0
SECTION
2
HEADER
9
$INSUNITS
70
4
9
$ACADVER
1
AC1014
9
$HANDSEED
5
FFFF
0
ENDSEC
0
SECTION
2
TABLES
0
TABLE
2
VPORT
5
8
100
AcDbSymbolTable
0
ENDTAB
0
TABLE
2
LTYPE
5
5
100
AcDbSymbolTable
0
LTYPE
5
14
100
AcDbSymbolTableRecord
100
AcDbLinetypeTableRecord
2
BYBLOCK
70
0
0
LTYPE
5
15
100
AcDbSymbolTableRecord
100
AcDbLinetypeTableRecord
2
BYLAYER
70
0
0
ENDTAB
0
TABLE
2
LAYER
5
2
100
AcDbSymbolTable
70
2
0
LAYER
5
50
100
AcDbSymbolTableRecord
100
AcDbLayerTableRecord
2
0
70
0
6
CONTINUOUS
0
ENDTAB
0
TABLE
2
STYLE
5
3
100
AcDbSymbolTable
70
1
0
STYLE
5
11
100
AcDbSymbolTableRecord
100
AcDbTextStyleTableRecord
2
STANDARD
70
0
0
ENDTAB
0
TABLE
2
VIEW
5
6
100
AcDbSymbolTable
70
0
0
ENDTAB
0
TABLE
2
UCS
5
7
100
AcDbSymbolTable
70
0
0
ENDTAB
0
TABLE
2
APPID
5
9
100
AcDbSymbolTable
70
2
0
APPID
5
12
100
AcDbSymbolTableRecord
100
AcDbRegAppTableRecord
2
ACAD
70
0
0
ENDTAB
0
TABLE
2
DIMSTYLE
5
A
100
AcDbSymbolTable
70
1
0
ENDTAB
0
TABLE
2
BLOCK_RECORD
5
1
100
AcDbSymbolTable
70
1
0
BLOCK_RECORD
5
1F
100
AcDbSymbolTableRecord
100
AcDbBlockTableRecord
2
*MODEL_SPACE
0
BLOCK_RECORD
5
1B
100
AcDbSymbolTableRecord
100
AcDbBlockTableRecord
2
*PAPER_SPACE
0
ENDTAB
0
ENDSEC
0
SECTION
2
BLOCKS
0
BLOCK
5
20
100
AcDbEntity
100
AcDbBlockBegin
2
*MODEL_SPACE
0
ENDBLK
5
21
100
AcDbEntity
100
AcDbBlockEnd
0
BLOCK
5
1C
100
AcDbEntity
100
AcDbBlockBegin
2
*PAPER_SPACE
0
ENDBLK
5
1D
100
AcDbEntity
100
AcDbBlockEnd
0
ENDSEC
0
SECTION
2
ENTITIES
0
SPLINE
5
100
100
AcDbEntity
8
0
100
AcDbSpline
70
0
71
2
72
6
73
3
74
0
42
0.000000001
43
0.0000000001
44
0.0000000001
40
0
40
0
40
0
40
1
40
1
40
1
10
7.1888876748017871
20
-5.1618315290674381
30
0
10
248.60786863855111
20
-5.1628899512650577
30
0
10
254.67740116026562
20
-5.1628899512650577
30
0
0
SPLINE
5
101
100
AcDbEntity
8
0
100
AcDbSpline
70
4
71
3
72
8
73
4
74
0
42
0.000000001
43
0.0000000001
44
0.0000000001
40
0
40
0
40
0
40
0
40
1
40
1
40
1
40
1
41
1
41
1
41
1
41
1
10
254.67740116026562
20
-5.1628899512650577
30
0
10
254.74619523876828
20
-5.1628899512650577
30
0
10
254.80581677347058
20
-5.2091035712051994
30
0
10
254.82310680321632
20
-5.2754258671630625
30
0
0
SPLINE
5
102
100
AcDbEntity
8
0
100
AcDbSpline
70
4
71
3
72
8
73
4
74
0
42
0.000000001
43
0.0000000001
44
0.0000000001
40
0
40
0
40
0
40
0
40
1
40
1
40
1
40
1
41
1
41
1
41
1
41
1
10
254.82310680321632
20
-5.2754258671630625
30
0
10
254.82345131190363
20
-5.2771894555800758
30
0
10
254.82379582059099
20
-5.2789533804313535
30
0
10
254.82416186107127
20
-5.2803647221729353
30
0
0
SPLINE
5
103
100
AcDbEntity
8
0
100
AcDbSpline
70
4
71
3
72
8
73
4
74
0
42
0.000000001
43
0.0000000001
44
0.0000000001
40
0
40
0
40
0
40
0
40
1
40
1
40
1
40
1
41
1
41
1
41
1
41
1
10
254.82416186107127
20
-5.2803647221729353
30
0
10
254.92574886024985
20
-5.6726524580852589
30
0
10
255.27923630525081
20
-5.9467602568703102
30
0
10
255.68422779900871
20
-5.9471128399800062
30
0
0
SPLINE
5
104
100
AcDbEntity
8
0
100
AcDbSpline
70
4
71
3
72
8
73
4
74
0
42
0.000000001
43
0.0000000001
44
0.0000000001
40
0
40
0
40
0
40
0
40
1
40
1
40
1
40
1
41
1
41
1
41
1
41
1
10
255.68422779900871
20
-5.9471128399800062
30
0
10
256.08921929276659
20
-5.9474654230897031
30
0
10
256.44339575514221
20
-5.6740634633925762
30
0
10
256.5453487948011
20
-5.2821283105899495
30
0
0
SPLINE
5
105
100
AcDbEntity
8
0
100
AcDbSpline
70
4
71
3
72
8
73
4
74
0
42
0.000000001
43
0.0000000001
44
0.0000000001
40
0
40
0
40
0
40
0
40
1
40
1
40
1
40
1
41
1
41
1
41
1
41
1
10
256.5453487948011
20
-5.2821283105899495
30
0
10
256.5453487948011
20
-5.2817757274802535
30
0
10
256.54571483528139
20
-5.2810702248265953
30
0
10
256.54571483528139
20
-5.2807173052826331
30
0
0
SPLINE
5
106
100
AcDbEntity
8
0
100
AcDbSpline
70
4
71
3
72
8
73
4
74
0
42
0.000000001
43
0.0000000001
44
0.0000000001
40
0
40
0
40
0
40
0
40
1
40
1
40
1
40
1
41
1
41
1
41
1
41
1
10
256.54571483528139
20
-5.2807173052826331
30
0
10
256.56369388240182
20
-5.2112204156004394
30
0
10
256.62650212246194
20
-5.1628899512650577
30
0
10
256.69811686584222
20
-5.1628899512650577
30
0
0
SPLINE
5
107
100
AcDbEntity
8
0
100
AcDbSpline
70
4
71
3
72
8
73
4
74
0
42
0.000000001
43
0.0000000001
44
0.0000000001
40
0
40
0
40
0
40
0
40
1
40
1
40
1
40
1
41
1
41
1
41
1
41
1
10
256.69811686584222
20
-5.1628899512650577
30
0
10
257.83792385789747
20
-5.1618315290674381
30
0
10
266.62031156984204
20
-5.1544232465526267
30
0
10
267.807057870547
20
-5.1537177438989676
30
0
0
SPLINE
5
108
100
AcDbEntity
8
0
100
AcDbSpline
70
4
71
3
72
8
73
4
74
0
42
0.000000001
43
0.0000000001
44
0.0000000001
40
0
40
0
40
0
40
0
40
1
40
1
40
1
40
1
41
1
41
1
41
1
41
1
10
267.807057870547
20
-5.1537177438989676
30
0
10
267.88502449284999
20
-5.1533648243550072
30
0
10
267.95274198170478
20
-5.2062815605905666
30
0
10
267.97179761847309
20
-5.2817757274802535
30
0
0
SPLINE
5
109
100
AcDbEntity
8
0
100
AcDbSpline
70
4
71
3
72
8
73
4
74
0
42
0.000000001
43
0.0000000001
44
0.0000000001
40
0
40
0
40
0
40
0
40
1
40
1
40
1
40
1
41
1
41
1
41
1
41
1
10
267.97179761847309
20
-5.2817757274802535
30
0
10
267.9721421271604
20
-5.282834149677873
30
0
10
267.97250816764074
20
-5.2835396523315312
30
0
10
267.97250816764074
20
-5.2845977380948863
30
0
0
SPLINE
5
110
100
AcDbEntity
8
0
100
AcDbSpline
70
4
71
3
72
8
73
4
74
0
42
0.000000001
43
0.0000000001
44
0.0000000001
40
0
40
0
40
0
40
0
40
1
40
1
40
1
40
1
41
1
41
1
41
1
41
1
10
267.97250816764074
20
-5.2845977380948863
30
0
10
268.07021944408677
20
-5.670183030580322
30
0
10
268.4166444609973
20
-5.9407629796628161
30
0
10
268.81422901797742
20
-5.9421739849701325
30
0
0
SPLINE
5
111
100
AcDbEntity
8
0
100
AcDbSpline
70
4
71
3
72
8
73
4
74
0
42
0.000000001
43
0.0000000001
44
0.0000000001
40
0
40
0
40
0
40
0
40
1
40
1
40
1
40
1
41
1
41
1
41
1
41
1
10
268.81422901797742
20
-5.9421739849701325
30
0
10
269.21215808364491
20
-5.9432324071677538
30
0
10
269.56000419889068
20
-5.674416046502273
30
0
10
269.65984712283961
20
-5.2895369295390262
30
0
0
SPLINE
5
112
100
AcDbEntity
8
0
100
AcDbSpline
70
4
71
3
72
8
73
4
74
0
42
0.000000001
43
0.0000000001
44
0.0000000001
40
0
40
0
40
0
40
0
40
1
40
1
40
1
40
1
41
1
41
1
41
1
41
1
10
269.65984712283961
20
-5.2895369295390262
30
0
10
269.66090218069462
20
-5.2849506576388485
30
0
10
269.66195723854958
20
-5.2803647221729353
30
0
10
269.66301229640453
20
-5.2761313698167207
30
0
0
SPLINE
5
113
100
AcDbEntity
8
0
100
AcDbSpline
70
4
71
3
72
8
73
4
74
0
42
0.000000001
43
0.0000000001
44
0.0000000001
40
0
40
0
40
0
40
0
40
1
40
1
40
1
40
1
41
1
41
1
41
1
41
1
10
269.66301229640453
20
-5.2761313698167207
30
0
10
269.6803023261503
20
-5.2094564907491616
30
0
10
269.7406128782273
20
-5.1628899512650577
30
0
10
269.8094069567299
20
-5.1628899512650577
30
0
0
SPLINE
5
114
100
AcDbEntity
8
0
100
AcDbSpline
70
0
71
2
72
6
73
3
74
0
42
0.000000001
43
0.0000000001
44
0.0000000001
40
0
40
0
40
0
40
1
40
1
40
1
10
269.8094069567299
20
-5.1628899512650577
30
0
10
271.39444836358268
20
-5.1628899512650577
30
0
10
288.56338330572129
20
-5.1628899512650577
30
0
0
LINE
5
115
100
AcDbEntity
8
0
100
AcDbLine
10
288.56338330572129
20
-5.1628899512650577
30
0
11
288.71931655032728
21
-5.1688872284725518
31
0
0
LINE
5
116
100
AcDbEntity
8
0
100
AcDbLine
10
288.71931655032728
20
-5.1688872284725518
30
0
11
288.87524979493327
21
-5.1868787236607687
31
0
0
LINE
5
117
100
AcDbEntity
8
0
100
AcDbLine
10
288.87524979493327
20
-5.1868787236607687
30
0
11
289.02939590072378
21
-5.2179231954615926
31
0
0
LINE
5
118
100
AcDbEntity
8
0
100
AcDbLine
10
289.02939590072378
20
-5.2179231954615926
30
0
11
289.18216397176485
21
-5.2599034630455188
31
0
0
LINE
5
119
100
AcDbEntity
8
0
100
AcDbLine
10
289.18216397176485
20
-5.2599034630455188
30
0
11
289.32821412340292
21
-5.3149367072420519
31
0
0
LINE
5
120
100
AcDbEntity
8
0
100
AcDbLine
10
289.32821412340292
20
-5.3149367072420519
30
0
11
289.47036702051548
21
-5.3798476614583333
31
0
0
LINE
5
121
100
AcDbEntity
8
0
100
AcDbLine
10
289.47036702051548
20
-5.3798476614583333
30
0
11
289.60724462835321
21
-5.4571057531992997
31
0
0
LINE
5
122
100
AcDbEntity
8
0
100
AcDbLine
10
289.60724462835321
20
-5.4571057531992997
30
0
11
289.73813639774835
21
-5.5438889718503157
31
0
0
LINE
5
123
100
AcDbEntity
8
0
100
AcDbLine
10
289.73813639774835
20
-5.5438889718503157
30
0
11
289.86125518988547
21
-5.6419609058283973
31
0
0
LINE
5
124
100
AcDbEntity
8
0
100
AcDbLine
10
289.86125518988547
20
-5.6419609058283973
30
0
11
289.97731155393217
21
-5.7481469614092129
31
0
0
LINE
5
125
100
AcDbEntity
8
0
100
AcDbLine
10
289.97731155393217
20
-5.7481469614092129
30
0
11
290.08314031632358
21
-5.8638574710315456
31
0
0
LINE
5
126
100
AcDbEntity
8
0
100
AcDbLine
10
290.08314031632358
20
-5.8638574710315456
30
0
11
290.18227269110491
21
-5.986976936037224
31
0
0
LINE
5
127
100
AcDbEntity
8
0
100
AcDbLine
10
290.18227269110491
20
-5.986976936037224
30
0
11
290.26835679935334
21
-6.1178565937988747
31
0
0
LINE
5
128
100
AcDbEntity
8
0
100
AcDbLine
10
290.26835679935334
20
-6.1178565937988747
30
0
11
290.34526836380132
21
-6.2550874576147795
31
0
0
LINE
5
129
100
AcDbEntity
8
0
100
AcDbLine
10
290.34526836380132
20
-6.2550874576147795
30
0
11
290.41016518777843
21
-6.3969032475938006
31
0
0
LINE
5
130
100
AcDbEntity
8
0
100
AcDbLine
10
290.41016518777843
20
-6.3969032475938006
30
0
11
290.4652004505806
21
-6.5440111485609211
31
0
0
LINE
5
131
100
AcDbEntity
8
0
100
AcDbLine
10
290.4652004505806
20
-6.5440111485609211
30
0
11
290.50718744684985
21
-6.6960585774064469
31
0
0
LINE
5
132
100
AcDbEntity
8
0
100
AcDbLine
10
290.50718744684985
20
-6.6960585774064469
30
0
11
290.53823629229612
21
-6.8498689218004554
31
0
0
LINE
5
133
100
AcDbEntity
8
0
100
AcDbLine
10
290.53823629229612
20
-6.8498689218004554
30
0
11
290.55729192906443
21
-7.0061493665679295
31
0
0
LINE
5
134
100
AcDbEntity
8
0
100
AcDbLine
10
290.55729192906443
20
-7.0061493665679295
30
0
11
290.56327776750697
21
-7.1631349775547983
31
0
0
LINE
5
135
100
AcDbEntity
8
0
100
AcDbLine
10
290.56327776750697
20
-7.1631349775547983
30
0
11
290.56327776750697
21
-7.3723318221235683
31
0
0
SPLINE
5
136
100
AcDbEntity
8
0
100
AcDbSpline
70
4
71
3
72
8
73
4
74
0
42
0.000000001
43
0.0000000001
44
0.0000000001
40
0
40
0
40
0
40
0
40
1
40
1
40
1
40
1
41
1
41
1
41
1
41
1
10
290.56327776750697
20
-7.3723318221235683
30
0
10
290.56327776750697
20
-7.4601727901036741
30
0
10
290.50507733113989
20
-7.5374308818446405
30
0
10
290.42075882991406
20
-7.5614199906746151
30
0
0
SPLINE
5
137
100
AcDbEntity
8
0
100
AcDbSpline
70
4
71
3
72
8
73
4
74
0
42
0.000000001
43
0.0000000001
44
0.0000000001
40
0
40
0
40
0
40
0
40
1
40
1
40
1
40
1
41
1
41
1
41
1
41
1
10
290.42075882991406
20
-7.5614199906746151
30
0
10
290.42004828074647
20
-7.561772573784312
30
0
10
290.41933773157882
20
-7.561772573784312
30
0
10
290.41864871420415
20
-7.5621258297625396
30
0
0
SPLINE
5
138
100
AcDbEntity
8
0
100
AcDbSpline
70
4
71
3
72
8
73
4
74
0
42
0.000000001
43
0.0000000001
44
0.0000000001
40
0
40
0
40
0
40
0
40
1
40
1
40
1
40
1
41
1
41
1
41
1
41
1
10
290.41864871420415
20
-7.5621258297625396
30
0
10
290.09302340929162
20
-7.6552589087307457
30
0
10
289.87042773368586
20
-7.9551187318942551
30
0
10
289.87535851427333
20
-8.2934323186761958
30
0
0
SPLINE
5
139
100
AcDbEntity
8
0
100
AcDbSpline
70
4
71
3
72
8
73
4
74
0
42
0.000000001
43
0.0000000001
44
0.0000000001
40
0
40
0
40
0
40
0
40
1
40
1
40
1
40
1
41
1
41
1
41
1
41
1
10
289.87535851427333
20
-8.2934323186761958
30
0
10
289.88065533534115
20
-8.6320978156993018
30
0
10
290.11173453737257
20
-8.9252551954359216
30
0
10
290.43981446668249
20
-9.0085105643843804
30
0
0
SPLINE
5
140
100
AcDbEntity
8
0
100
AcDbSpline
70
4
71
3
72
8
73
4
74
0
42
0.000000001
43
0.0000000001
44
0.0000000001
40
0
40
0
40
0
40
0
40
1
40
1
40
1
40
1
41
1
41
1
41
1
41
1
10
290.43981446668249
20
-9.0085105643843804
30
0
10
290.4405034840571
20
-9.0088638203626061
30
0
10
290.44121403322475
20
-9.0088638203626061
30
0
10
290.4419245823924
20
-9.0092164034723048
30
0
0
SPLINE
5
141
100
AcDbEntity
8
0
100
AcDbSpline
70
4
71
3
72
8
73
4
74
0
42
0.000000001
43
0.0000000001
44
0.0000000001
40
0
40
0
40
0
40
0
40
1
40
1
40
1
40
1
41
1
41
1
41
1
41
1
10
290.4419245823924
20
-9.0092164034723048
30
0
10
290.51319481708526
20
-9.0272082350947862
30
0
10
290.56327776750697
20
-9.0917659333328409
30
0
10
290.56327776750697
20
-9.1654968482397798
30
0
0
SPLINE
5
142
100
AcDbEntity
8
0
100
AcDbSpline
70
4
71
3
72
8
73
4
74
0
42
0.000000001
43
0.0000000001
44
0.0000000001
40
0
40
0
40
0
40
0
40
1
40
1
40
1
40
1
41
1
41
1
41
1
41
1
10
290.56327776750697
20
-9.1654968482397798
30
0
10
290.56327776750697
20
-10.316254775620063
30
0
10
290.56327776750697
20
-19.028432693674965
30
0
10
290.56327776750697
20
-20.142855047569114
30
0
0
SPLINE
5
143
100
AcDbEntity
8
0
100
AcDbSpline
70
4
71
3
72
8
73
4
74
0
42
0.000000001
43
0.0000000001
44
0.0000000001
40
0
40
0
40
0
40
0
40
1
40
1
40
1
40
1
41
1
41
1
41
1
41
1
10
290.56327776750697
20
-20.142855047569114
30
0
10
290.56327776750697
20
-20.211293851487959
30
0
10
290.51601548196288
20
-20.270560111606439
30
0
10
290.44898701048277
20
-20.285729259745757
30
0
0
SPLINE
5
144
100
AcDbEntity
8
0
100
AcDbSpline
70
4
71
3
72
8
73
4
74
0
42
0.000000001
43
0.0000000001
44
0.0000000001
40
0
40
0
40
0
40
0
40
1
40
1
40
1
40
1
41
1
41
1
41
1
41
1
10
290.44898701048277
20
-20.285729259745757
30
0
10
290.44474524726996
20
-20.286788354811907
30
0
10
290.44015897536974
20
-20.287846104140996
30
0
10
290.43557270346963
20
-20.28890519920715
30
0
0
SPLINE
5
145
100
AcDbEntity
8
0
100
AcDbSpline
70
4
71
3
72
8
73
4
74
0
42
0.000000001
43
0.0000000001
44
0.0000000001
40
0
40
0
40
0
40
0
40
1
40
1
40
1
40
1
41
1
41
1
41
1
41
1
10
290.43557270346963
20
-20.28890519920715
30
0
10
290.04046430267971
20
-20.37850975560427
30
0
10
289.75930215022663
20
-20.728464640822967
30
0
10
289.75611544486878
20
-21.13345209736967
30
0
0
SPLINE
5
146
100
AcDbEntity
8
0
100
AcDbSpline
70
4
71
3
72
8
73
4
74
0
42
0.000000001
43
0.0000000001
44
0.0000000001
40
0
40
0
40
0
40
0
40
1
40
1
40
1
40
1
41
1
41
1
41
1
41
1
10
289.75611544486878
20
-21.13345209736967
30
0
10
289.7529502713038
20
-21.538440899653434
30
0
10
290.02918164316947
20
-21.89227554481586
30
0
10
290.42252443693667
20
-21.987878051289002
30
0
0
SPLINE
5
147
100
AcDbEntity
8
0
100
AcDbSpline
70
4
71
3
72
8
73
4
74
0
42
0.000000001
43
0.0000000001
44
0.0000000001
40
0
40
0
40
0
40
0
40
1
40
1
40
1
40
1
41
1
41
1
41
1
41
1
10
290.42252443693667
20
-21.987878051289002
30
0
10
290.42323498610432
20
-21.988230634398697
30
0
10
290.42392400347904
20
-21.988230634398697
30
0
10
290.42463455264669
20
-21.988584563245457
30
0
0
SPLINE
5
148
100
AcDbEntity
8
0
100
AcDbSpline
70
4
71
3
72
8
73
4
74
0
42
0.000000001
43
0.0000000001
44
0.0000000001
40
0
40
0
40
0
40
0
40
1
40
1
40
1
40
1
41
1
41
1
41
1
41
1
10
290.42463455264669
20
-21.988584563245457
30
0
10
290.50613238899484
20
-22.008339983284952
30
0
10
290.56327776750697
20
-22.081363713366908
30
0
10
290.56327776750697
20
-22.164973011162125
30
0
0
SPLINE
5
149
100
AcDbEntity
8
0
100
AcDbSpline
70
0
71
2
72
6
73
3
74
0
42
0.000000001
43
0.0000000001
44
0.0000000001
40
0
40
0
40
0
40
1
40
1
40
1
10
290.56327776750697
20
-22.164973011162125
30
0
10
290.56327776750697
20
-24.671098765722753
30
0
10
290.56327776750697
20
-59.325784760118488
30
0
0
LINE
5
150
100
AcDbEntity
8
0
100
AcDbLine
10
290.56327776750697
20
-59.325784760118488
30
0
11
288.23530337641148
21
-59.325784760118488
31
0
0
LINE
5
151
100
AcDbEntity
8
0
100
AcDbLine
10
288.23530337641148
20
-59.325784760118488
30
0
11
288.23530337641148
21
-54.3706786295093
31
0
0
LINE
5
152
100
AcDbEntity
8
0
100
AcDbLine
10
288.23530337641148
20
-54.3706786295093
30
0
11
288.61665296150085
21
-54.370678629509293
31
0
0
LINE
5
153
100
AcDbEntity
8
0
100
AcDbLine
10
288.61665296150085
20
-54.370678629509293
30
0
11
288.61665296150085
21
-43.542899777257595
31
0
0
LINE
5
154
100
AcDbEntity
8
0
100
AcDbLine
10
288.61665296150085
20
-43.542899777257595
30
0
11
285.85405932953648
21
-43.542899777257603
31
0
0
LINE
5
155
100
AcDbEntity
8
0
100
AcDbLine
10
285.85405932953648
20
-43.542899777257603
30
0
11
285.85405932953648
21
-45.620400203814185
31
0
0
LINE
5
156
100
AcDbEntity
8
0
100
AcDbLine
10
285.85405932953648
20
-45.620400203814185
30
0
11
260.95471548403043
21
-45.620400203814185
31
0
0
LINE
5
157
100
AcDbEntity
8
0
100
AcDbLine
10
260.95471548403043
20
-45.620400203814185
30
0
11
260.95471548403043
21
-44.120748504886947
31
0
0
SPLINE
5
158
100
AcDbEntity
8
0
100
AcDbSpline
70
4
71
3
72
8
73
4
74
0
42
0.000000001
43
0.0000000001
44
0.0000000001
40
0
40
0
40
0
40
0
40
1
40
1
40
1
40
1
41
1
41
1
41
1
41
1
10
260.95471548403043
20
-44.120748504886947
30
0
10
260.95471548403043
20
-43.846288122992199
30
0
10
260.72893310306677
20
-43.620511124976801
30
0
10
260.45446733822382
20
-43.620511124976801
30
0
0
LINE
5
159
100
AcDbEntity
8
0
100
AcDbLine
10
260.45446733822382
20
-43.620511124976801
30
0
11
254.45443944417957
21
-43.620511124976801
31
0
0
SPLINE
5
160
100
AcDbEntity
8
0
100
AcDbSpline
70
4
71
3
72
8
73
4
74
0
42
0.000000001
43
0.0000000001
44
0.0000000001
40
0
40
0
40
0
40
0
40
1
40
1
40
1
40
1
41
1
41
1
41
1
41
1
10
254.45443944417951
20
-43.620511124976801
30
0
10
254.18033971981686
20
-43.620511124976801
30
0
10
253.95455733885319
20
-43.846288122992199
30
0
10
253.95455733885319
20
-44.120748504886947
30
0
0
LINE
5
161
100
AcDbEntity
8
0
100
AcDbLine
10
253.95455733885319
20
-44.120748504886947
30
0
11
253.95455733885319
21
-58.120698754761065
31
0
0
SPLINE
5
162
100
AcDbEntity
8
0
100
AcDbSpline
70
4
71
3
72
8
73
4
74
0
42
0.000000001
43
0.0000000001
44
0.0000000001
40
0
40
0
40
0
40
0
40
1
40
1
40
1
40
1
41
1
41
1
41
1
41
1
10
253.95455733885319
20
-58.120698754761065
30
0
10
253.95455733885319
20
-58.394809245020234
30
0
10
254.18033971981686
20
-58.620586243035639
30
0
10
254.45443944417951
20
-58.620586243035639
30
0
0
LINE
5
163
100
AcDbEntity
8
0
100
AcDbLine
10
254.45443944417957
20
-58.620586243035639
30
0
11
255.18540075153734
21
-58.620586243035639
31
0
0
LINE
5
164
100
AcDbEntity
8
0
100
AcDbLine
10
255.18540075153734
20
-58.620586243035639
30
0
11
255.18540075153734
21
-59.120468348361968
31
0
0
SPLINE
5
165
100
AcDbEntity
8
0
100
AcDbSpline
70
4
71
3
72
8
73
4
74
0
42
0.000000001
43
0.0000000001
44
0.0000000001
40
0
40
0
40
0
40
0
40
1
40
1
40
1
40
1
41
1
41
1
41
1
41
1
10
255.18540075153734
20
-59.120468348361975
30
0
10
255.18540075153734
20
-59.394928730256723
30
0
10
255.41118313250098
20
-59.620705728272121
30
0
10
255.68528285686369
20
-59.620705728272121
30
0
0
LINE
5
166
100
AcDbEntity
8
0
100
AcDbLine
10
255.68528285686372
20
-59.620705728272121
30
0
11
284.68531360774489
21
-59.620705728272121
31
0
0
LINE
5
167
100
AcDbEntity
8
0
100
AcDbLine
10
284.68531360774489
20
-59.620705728272121
30
0
11
284.68531360774489
21
-64.670352578814189
31
0
0
LINE
5
168
100
AcDbEntity
8
0
100
AcDbLine
10
284.68531360774489
20
-64.670352578814189
30
0
11
236.63533048186369
21
-64.670352578814189
31
0
0
SPLINE
5
169
100
AcDbEntity
8
0
100
AcDbSpline
70
4
71
3
72
8
73
4
74
0
42
0.000000001
43
0.0000000001
44
0.0000000001
40
0
40
0
40
0
40
0
40
1
40
1
40
1
40
1
41
1
41
1
41
1
41
1
10
236.63533048186366
20
-64.670352578814189
30
0
10
236.361230757501
20
-64.670352578814189
30
0
10
236.13544837653734
20
-64.896129576829594
30
0
10
236.13544837653734
20
-65.170589958724335
30
0
0
LINE
5
170
100
AcDbEntity
8
0
100
AcDbLine
10
236.13544837653734
20
-65.170589958724335
30
0
11
236.13544837653734
21
-78.170420723361957
31
0
0
SPLINE
5
171
100
AcDbEntity
8
0
100
AcDbSpline
70
4
71
3
72
8
73
4
74
0
42
0.000000001
43
0.0000000001
44
0.0000000001
40
0
40
0
40
0
40
0
40
1
40
1
40
1
40
1
41
1
41
1
41
1
41
1
10
236.13544837653734
20
-78.170420723361971
30
0
10
236.13544837653734
20
-78.444881105256727
30
0
10
236.361230757501
20
-78.670658103272132
30
0
10
236.63533048186366
20
-78.670658103272132
30
0
0
LINE
5
172
100
AcDbEntity
8
0
100
AcDbLine
10
236.63533048186369
20
-78.670658103272132
30
0
11
287.7354212710851
21
-78.670658103272132
31
0
0
SPLINE
5
173
100
AcDbEntity
8
0
100
AcDbSpline
70
4
71
3
72
8
73
4
74
0
42
0.000000001
43
0.0000000001
44
0.0000000001
40
0
40
0
40
0
40
0
40
1
40
1
40
1
40
1
41
1
41
1
41
1
41
1
10
287.73542127108516
20
-78.670658103272132
30
0
10
288.00952099544782
20
-78.670658103272132
30
0
10
288.23530337641148
20
-78.444881105256727
30
0
10
288.23530337641148
20
-78.170420723361971
30
0
0
LINE
5
174
100
AcDbEntity
8
0
100
AcDbLine
10
288.23530337641148
20
-78.170420723361971
30
0
11
288.23530337641148
21
-64.825930548836396
31
0
0
SPLINE
5
175
100
AcDbEntity
8
0
100
AcDbSpline
70
4
71
3
72
8
73
4
74
0
42
0.000000001
43
0.0000000001
44
0.0000000001
40
0
40
0
40
0
40
0
40
1
40
1
40
1
40
1
41
1
41
1
41
1
41
1
10
288.23530337641148
20
-64.825930548836396
30
0
10
288.23530337641148
20
-64.54970455991905
30
0
10
288.45897564166518
20
-64.32569316892625
30
0
10
288.7351854817378
20
-64.32569316892625
30
0
0
SPLINE
5
176
100
AcDbEntity
8
0
100
AcDbSpline
70
4
71
3
72
8
73
4
74
0
42
0.000000001
43
0.0000000001
44
0.0000000001
40
0
40
0
40
0
40
0
40
1
40
1
40
1
40
1
41
1
41
1
41
1
41
1
10
288.7351854817378
20
-64.32569316892625
30
0
10
289.12747321765011
20
-64.32569316892625
30
0
10
289.67110792626829
20
-64.32569316892625
30
0
10
290.0633956621806
20
-64.32569316892625
30
0
0
SPLINE
5
177
100
AcDbEntity
8
0
100
AcDbSpline
70
4
71
3
72
8
73
4
74
0
42
0.000000001
43
0.0000000001
44
0.0000000001
40
0
40
0
40
0
40
0
40
1
40
1
40
1
40
1
41
1
41
1
41
1
41
1
10
290.0633956621806
20
-64.32569316892625
30
0
10
290.33926099356586
20
-64.32569316892625
30
0
10
290.56327776750697
20
-64.54970455991905
30
0
10
290.56327776750697
20
-64.825930548836396
30
0
0
SPLINE
5
178
100
AcDbEntity
8
0
100
AcDbSpline
70
0
71
2
72
6
73
3
74
0
42
0.000000001
43
0.0000000001
44
0.0000000001
40
0
40
0
40
0
40
1
40
1
40
1
10
290.56327776750697
20
-64.825930548836396
30
0
10
290.56327776750697
20
-69.013390579834621
30
0
10
290.56327776750697
20
-98.089611580099756
30
0
0
LINE
5
179
100
AcDbEntity
8
0
100
AcDbLine
10
290.56327776750697
20
-98.089611580099756
30
0
11
290.55729192906443
21
-98.244834275538139
31
0
0
LINE
5
180
100
AcDbEntity
8
0
100
AcDbLine
10
290.55729192906443
20
-98.244834275538139
30
0
11
290.53823629229612
21
-98.400767520144143
31
0
0
LINE
5
181
100
AcDbEntity
8
0
100
AcDbLine
10
290.53823629229612
20
-98.400767520144143
30
0
11
290.50718744684985
21
-98.554924391831094
31
0
0
LINE
5
182
100
AcDbEntity
8
0
100
AcDbLine
10
290.50718744684985
20
-98.554924391831094
30
0
11
290.4652004505806
21
-98.706626639120742
31
0
0
LINE
5
183
100
AcDbEntity
8
0
100
AcDbLine
10
290.4652004505806
20
-98.706626639120742
30
0
11
290.41016518777849
21
-98.854786906468718
31
0
0
LINE
5
184
100
AcDbEntity
8
0
100
AcDbLine
10
290.41016518777849
20
-98.854786906468718
30
0
11
290.34526836380132
21
-98.995895511622763
31
0
0
LINE
5
185
100
AcDbEntity
8
0
100
AcDbLine
10
290.34526836380132
20
-98.995895511622763
30
0
11
290.26835679935328
21
-99.132773119460438
31
0
0
LINE
5
186
100
AcDbEntity
8
0
100
AcDbLine
10
290.26835679935328
20
-99.132773119460438
30
0
11
290.18227269110491
21
-99.263654122959153
31
0
0
LINE
5
187
100
AcDbEntity
8
0
100
AcDbLine
10
290.18227269110491
20
-99.263654122959153
30
0
11
290.08314031632364
21
-99.387838738847734
31
0
0
LINE
5
188
100
AcDbEntity
8
0
100
AcDbLine
10
290.08314031632364
20
-99.387838738847734
30
0
11
289.97731155393222
21
-99.503895102894461
31
0
0
LINE
5
189
100
AcDbEntity
8
0
100
AcDbLine
10
289.97731155393222
20
-99.503895102894461
30
0
11
289.86125518988547
21
-99.608668807430917
31
0
0
LINE
5
190
100
AcDbEntity
8
0
100
AcDbLine
10
289.86125518988547
20
-99.608668807430917
30
0
11
289.73813639774835
21
-99.706746124357238
31
0
0
LINE
5
191
100
AcDbEntity
8
0
100
AcDbLine
10
289.73813639774835
20
-99.706746124357238
30
0
11
289.60724462835321
21
-99.793885290460594
31
0
0
LINE
5
192
100
AcDbEntity
8
0
100
AcDbLine
10
289.60724462835321
20
-99.793885290460594
30
0
11
289.47036702051543
21
-99.870786089012142
31
0
0
LINE
5
193
100
AcDbEntity
8
0
100
AcDbLine
10
289.47036702051543
20
-99.870786089012142
30
0
11
289.32821412340297
21
-99.935693678885769
31
0
0
LINE
5
194
100
AcDbEntity
8
0
100
AcDbLine
10
289.32821412340297
20
-99.935693678885769
30
0
11
289.18216397176491
21
-99.991783999542889
31
0
0
LINE
5
195
100
AcDbEntity
8
0
100
AcDbLine
10
289.18216397176491
20
-99.991783999542889
30
0
11
289.02939590072378
21
-100.03377099581209
31
0
0
LINE
5
196
100
AcDbEntity
8
0
100
AcDbLine
10
289.02939590072378
20
-100.03377099581209
30
0
11
288.87524979493332
21
-100.06375401750691
31
0
0
LINE
5
197
100
AcDbEntity
8
0
100
AcDbLine
10
288.87524979493332
20
-100.06375401750691
30
0
11
288.71931655032733
21
-100.08174383052381
31
0
0
LINE
5
198
100
AcDbEntity
8
0
100
AcDbLine
10
288.71931655032733
20
-100.08174383052381
30
0
11
288.56338330572129
21
-100.08774043486278
31
0
0
LINE
5
199
100
AcDbEntity
8
0
100
AcDbLine
10
288.56338330572129
20
-100.08774043486278
30
0
11
7.1888876748017694
21
-100.0898613164692
31
0
0
LINE
5
200
100
AcDbEntity
8
0
100
AcDbLine
10
7.1888876748017694
20
-100.0898613164692
30
0
11
7.0319020638149183
21
-100.08174383052381
31
0
0
LINE
5
201
100
AcDbEntity
8
0
100
AcDbLine
10
7.0319020638149183
20
-100.08174383052381
30
0
11
6.8759742021571402
21
-100.06375401750691
31
0
0
LINE
5
202
100
AcDbEntity
8
0
100
AcDbLine
10
6.8759742021571402
20
-100.06375401750691
30
0
11
6.7218112746534349
21
-100.03377099581209
31
0
0
LINE
5
203
100
AcDbEntity
8
0
100
AcDbLine
10
6.7218112746534349
20
-100.03377099581209
30
0
11
6.5701171017861366
21
-99.991783999542875
31
0
0
LINE
5
204
100
AcDbEntity
8
0
100
AcDbLine
10
6.5701171017861366
20
-99.991783999542875
30
0
11
6.4230092008190169
21
-99.935693678885769
31
0
0
LINE
5
205
100
AcDbEntity
8
0
100
AcDbLine
10
6.4230092008190169
20
-99.935693678885769
30
0
11
6.2808401548617692
21
-99.870786089012157
31
0
0
LINE
5
206
100
AcDbEntity
8
0
100
AcDbLine
10
6.2808401548617692
20
-99.870786089012157
30
0
11
6.1439625470240919
21
-99.793885290460594
31
0
0
LINE
5
207
100
AcDbEntity
8
0
100
AcDbLine
10
6.1439625470240919
20
-99.793885290460594
30
0
11
6.0130822163939088
21
-99.706746124357224
31
0
0
LINE
5
208
100
AcDbEntity
8
0
100
AcDbLine
10
6.0130822163939088
20
-99.706746124357224
30
0
11
5.8899627513882322
21
-99.608668807430902
31
0
0
LINE
5
209
100
AcDbEntity
8
0
100
AcDbLine
10
5.8899627513882322
20
-99.608668807430902
30
0
11
5.7738996586561999
21
-99.503895102894475
31
0
0
LINE
5
210
100
AcDbEntity
8
0
100
AcDbLine
10
5.7738996586561999
20
-99.503895102894475
30
0
11
5.6680661861850821
21
-99.387838738847748
31
0
0
LINE
5
211
100
AcDbEntity
8
0
100
AcDbLine
10
5.6680661861850821
20
-99.387838738847748
30
0
11
5.5699942522070014
21
-99.263654122959153
31
0
0
LINE
5
212
100
AcDbEntity
8
0
100
AcDbLine
10
5.5699942522070014
20
-99.263654122959153
30
0
11
5.4828584504462885
21
-99.132773119460438
31
0
0
LINE
5
213
100
AcDbEntity
8
0
100
AcDbLine
10
5.4828584504462885
20
-99.132773119460438
30
0
11
5.4059532782492834
21
-98.995895511622763
31
0
0
LINE
5
214
100
AcDbEntity
8
0
100
AcDbLine
10
5.4059532782492834
20
-98.995895511622763
30
0
11
5.3410423240330021
21
-98.854786906468718
31
0
0
LINE
5
215
100
AcDbEntity
8
0
100
AcDbLine
10
5.3410423240330021
20
-98.854786906468718
30
0
11
5.2860090798364681
21
-98.706626639120742
31
0
0
LINE
5
216
100
AcDbEntity
8
0
100
AcDbLine
10
5.2860090798364681
20
-98.706626639120742
30
0
11
5.2440284758182765
21
-98.554924391831094
31
0
0
LINE
5
217
100
AcDbEntity
8
0
100
AcDbLine
10
5.2440284758182765
20
-98.554924391831094
30
0
11
5.2129843404517171
21
-98.400767520144143
31
0
0
LINE
5
218
100
AcDbEntity
8
0
100
AcDbLine
10
5.2129843404517171
20
-98.400767520144143
30
0
11
5.1949925088292357
21
-98.244834275538139
31
0
0
LINE
5
219
100
AcDbEntity
8
0
100
AcDbLine
10
5.1949925088292357
20
-98.244834275538139
30
0
11
5.1879371458583865
21
-98.089611580099756
31
0
0
LINE
5
220
100
AcDbEntity
8
0
100
AcDbLine
10
5.1879371458583865
20
-98.089611580099756
30
0
11
5.1879371458583883
21
-64.825930548836382
31
0
0
SPLINE
5
221
100
AcDbEntity
8
0
100
AcDbSpline
70
4
71
3
72
8
73
4
74
0
42
0.000000001
43
0.0000000001
44
0.0000000001
40
0
40
0
40
0
40
0
40
1
40
1
40
1
40
1
41
1
41
1
41
1
41
1
10
5.1879371458583883
20
-64.825930548836396
30
0
10
5.1879371458583883
20
-64.54970455991905
30
0
10
5.4119502190225131
20
-64.32569316892625
30
0
10
5.6878216062245777
20
-64.32569316892625
30
0
0
SPLINE
5
222
100
AcDbEntity
8
0
100
AcDbSpline
70
0
71
2
72
6
73
3
74
0
42
0.000000001
43
0.0000000001
44
0.0000000001
40
0
40
0
40
0
40
1
40
1
40
1
10
5.6878216062245777
20
-64.32569316892625
30
0
10
6.6554886422613073
20
-64.32569316892625
30
0
10
8.6888946483128482
20
-64.32569316892625
30
0
0
LINE
5
223
100
AcDbEntity
8
0
100
AcDbLine
10
8.6888946483128482
20
-64.32569316892625
30
0
11
9.4618288217007329
21
-64.203984709227882
31
0
0
LINE
5
224
100
AcDbEntity
8
0
100
AcDbLine
10
9.4618288217007329
20
-64.203984709227882
30
0
11
10.15785815932588
21
-63.848737040152557
31
0
0
LINE
5
225
100
AcDbEntity
8
0
100
AcDbLine
10
10.15785815932588
20
-63.848737040152557
30
0
11
10.711011939037325
21
-63.2948801128273
31
0
0
LINE
5
226
100
AcDbEntity
8
0
100
AcDbLine
10
10.711011939037325
20
-63.2948801128273
30
0
11
11.065905679265898
21
-62.598848756596574
31
0
0
LINE
5
227
100
AcDbEntity
8
0
100
AcDbLine
10
11.065905679265898
20
-62.598848756596574
30
0
11
11.189024471403044
21
-61.825916601814285
31
0
0
LINE
5
228
100
AcDbEntity
8
0
100
AcDbLine
10
11.189024471403044
20
-61.825916601814285
30
0
11
11.065905679265898
21
-61.052979064083743
31
0
0
LINE
5
229
100
AcDbEntity
8
0
100
AcDbLine
10
11.065905679265898
20
-61.052979064083743
30
0
11
10.711011939037324
21
-60.355892649998033
31
0
0
LINE
5
230
100
AcDbEntity
8
0
100
AcDbLine
10
10.711011939037324
20
-60.355892649998033
30
0
11
10.157858159325876
21
-59.802740888892174
31
0
0
LINE
5
231
100
AcDbEntity
8
0
100
AcDbLine
10
10.157858159325876
20
-59.802740888892174
30
0
11
9.4618288217007329
21
-59.44784849440066
31
0
0
LINE
5
232
100
AcDbEntity
8
0
100
AcDbLine
10
9.4618288217007329
20
-59.44784849440066
30
0
11
8.6899530705104659
21
-59.325784760118481
31
0
0
LINE
5
233
100
AcDbEntity
8
0
100
AcDbLine
10
8.6899530705104659
20
-59.325784760118481
30
0
11
5.6878216062245768
21
-59.325784760118488
31
0
0
SPLINE
5
234
100
AcDbEntity
8
0
100
AcDbSpline
70
4
71
3
72
8
73
4
74
0
42
0.000000001
43
0.0000000001
44
0.0000000001
40
0
40
0
40
0
40
0
40
1
40
1
40
1
40
1
41
1
41
1
41
1
41
1
10
5.6878216062245777
20
-59.325784760118488
30
0
10
5.5555306067213417
20
-59.325784760118488
30
0
10
5.4281781257937158
20
-59.273220270558362
30
0
10
5.3343395441718497
20
-59.179384716844879
30
0
0
SPLINE
5
235
100
AcDbEntity
8
0
100
AcDbSpline
70
4
71
3
72
8
73
4
74
0
42
0.000000001
43
0.0000000001
44
0.0000000001
40
0
40
0
40
0
40
0
40
1
40
1
40
1
40
1
41
1
41
1
41
1
41
1
10
5.3343395441718497
20
-59.179384716844879
30
0
10
5.2405006261157192
20
-59.085543780183158
30
0
10
5.1879371458583883
20
-58.958543882365227
30
0
10
5.1879371458583883
20
-58.825902654792152
30
0
0
SPLINE
5
236
100
AcDbEntity
8
0
100
AcDbSpline
70
0
71
2
72
6
73
3
74
0
42
0.000000001
43
0.0000000001
44
0.0000000001
40
0
40
0
40
0
40
1
40
1
40
1
10
5.1879371458583883
20
-58.825902654792152
30
0
10
5.1879371458583883
20
-53.485565833412814
30
0
10
5.1889952316217425
20
-7.1631349775547983
30
0
0
LINE
5
237
100
AcDbEntity
8
0
100
AcDbLine
10
5.1889952316217425
20
-7.1631349775547974
30
0
11
5.1949925088292357
21
-7.0061493665679295
31
0
0
LINE
5
238
100
AcDbEntity
8
0
100
AcDbLine
10
5.1949925088292357
20
-7.0061493665679295
30
0
11
5.2129843404517171
21
-6.8498689218004554
31
0
0
LINE
5
239
100
AcDbEntity
8
0
100
AcDbLine
10
5.2129843404517171
20
-6.8498689218004554
30
0
11
5.2440284758182765
21
-6.6960585774064461
31
0
0
LINE
5
240
100
AcDbEntity
8
0
100
AcDbLine
10
5.2440284758182765
20
-6.6960585774064461
30
0
11
5.2860090798364681
21
-6.5440111485609211
31
0
0
LINE
5
241
100
AcDbEntity
8
0
100
AcDbLine
10
5.2860090798364681
20
-6.5440111485609211
30
0
11
5.3410423240330021
21
-6.3969032475938015
31
0
0
LINE
5
242
100
AcDbEntity
8
0
100
AcDbLine
10
5.3410423240330021
20
-6.3969032475938015
30
0
11
5.4059532782492834
21
-6.2550874576147795
31
0
0
LINE
5
243
100
AcDbEntity
8
0
100
AcDbLine
10
5.4059532782492834
20
-6.2550874576147795
30
0
11
5.4828584504462885
21
-6.1178565937988765
31
0
0
LINE
5
244
100
AcDbEntity
8
0
100
AcDbLine
10
5.4828584504462885
20
-6.1178565937988765
30
0
11
5.5699942522070014
21
-5.986976936037224
31
0
0
LINE
5
245
100
AcDbEntity
8
0
100
AcDbLine
10
5.5699942522070014
20
-5.986976936037224
30
0
11
5.6680661861850821
21
-5.8638574710315456
31
0
0
LINE
5
246
100
AcDbEntity
8
0
100
AcDbLine
10
5.6680661861850821
20
-5.8638574710315456
30
0
11
5.7738996586561999
21
-5.7481469614092129
31
0
0
LINE
5
247
100
AcDbEntity
8
0
100
AcDbLine
10
5.7738996586561999
20
-5.7481469614092129
30
0
11
5.8899627513882322
21
-5.6419609058283964
31
0
0
LINE
5
248
100
AcDbEntity
8
0
100
AcDbLine
10
5.8899627513882322
20
-5.6419609058283964
30
0
11
6.0130822163939088
21
-5.5438889718503157
31
0
0
LINE
5
249
100
AcDbEntity
8
0
100
AcDbLine
10
6.0130822163939088
20
-5.5438889718503157
30
0
11
6.1439625470240911
21
-5.4571057531992997
31
0
0
LINE
5
250
100
AcDbEntity
8
0
100
AcDbLine
10
6.1439625470240911
20
-5.4571057531992997
30
0
11
6.2808401548617674
21
-5.3798476614583333
31
0
0
LINE
5
251
100
AcDbEntity
8
0
100
AcDbLine
10
6.2808401548617674
20
-5.3798476614583333
30
0
11
6.4230092008190169
21
-5.3149367072420519
31
0
0
LINE
5
252
100
AcDbEntity
8
0
100
AcDbLine
10
6.4230092008190169
20
-5.3149367072420519
30
0
11
6.5701171017861366
21
-5.2599034630455179
31
0
0
LINE
5
253
100
AcDbEntity
8
0
100
AcDbLine
10
6.5701171017861366
20
-5.2599034630455179
30
0
11
6.7218112746534349
21
-5.2179231954615908
31
0
0
LINE
5
254
100
AcDbEntity
8
0
100
AcDbLine
10
6.7218112746534349
20
-5.2179231954615908
30
0
11
6.8759742021571402
21
-5.1868787236607687
31
0
0
LINE
5
255
100
AcDbEntity
8
0
100
AcDbLine
10
6.8759742021571402
20
-5.1868787236607687
30
0
11
7.0319020638149183
21
-5.1688872284725518
31
0
0
LINE
5
256
100
AcDbEntity
8
0
100
AcDbLine
10
7.0319020638149183
20
-5.1688872284725518
30
0
11
7.1888876748017871
21
-5.1618315290674381
31
0
0
LINE
5
257
100
AcDbEntity
8
0
100
AcDbLine
10
23.417329376485988
20
-83.720304953814207
30
0
11
8.035904673337777
21
-83.720304953814207
31
0
0
SPLINE
5
258
100
AcDbEntity
8
0
100
AcDbSpline
70
4
71
3
72
8
73
4
74
0
42
0.000000001
43
0.0000000001
44
0.0000000001
40
0
40
0
40
0
40
0
40
1
40
1
40
1
40
1
41
1
41
1
41
1
41
1
10
8.0359046733377788
20
-83.720304953814207
30
0
10
7.7617975474212573
20
-83.720304953814207
30
0
10
7.5360198765373232
20
-83.946081951829598
30
0
10
7.5360198765373232
20
-84.220542333724353
30
0
0
LINE
5
259
100
AcDbEntity
8
0
100
AcDbLine
10
7.5360198765373223
20
-84.220542333724353
30
0
11
7.5360198765373232
21
-97.220373098361975
31
0
0
SPLINE
5
260
100
AcDbEntity
8
0
100
AcDbSpline
70
4
71
3
72
8
73
4
74
0
42
0.000000001
43
0.0000000001
44
0.0000000001
40
0
40
0
40
0
40
0
40
1
40
1
40
1
40
1
41
1
41
1
41
1
41
1
10
7.5360198765373232
20
-97.220373098361975
30
0
10
7.5360198765373232
20
-97.494838863204961
30
0
10
7.7617975474212573
20
-97.720610478272135
30
0
10
8.0359046733377788
20
-97.720610478272135
30
0
0
LINE
5
261
100
AcDbEntity
8
0
100
AcDbLine
10
8.0359046733377788
20
-97.720610478272135
30
0
11
23.417329376485988
21
-97.720610478272135
31
0
0
SPLINE
5
262
100
AcDbEntity
8
0
100
AcDbSpline
70
4
71
3
72
8
73
4
74
0
42
0.000000001
43
0.0000000001
44
0.0000000001
40
0
40
0
40
0
40
0
40
1
40
1
40
1
40
1
41
1
41
1
41
1
41
1
10
23.417329376485988
20
-97.720610478272135
30
0
10
23.691437175271034
20
-97.720610478272135
30
0
10
23.917214173286439
20
-97.494838863204961
30
0
10
23.917214173286439
20
-97.220373098361975
30
0
0
LINE
5
263
100
AcDbEntity
8
0
100
AcDbLine
10
23.917214173286439
20
-97.220373098361975
30
0
11
23.917214173286439
21
-84.220542333724353
31
0
0
SPLINE
5
264
100
AcDbEntity
8
0
100
AcDbSpline
70
4
71
3
72
8
73
4
74
0
42
0.000000001
43
0.0000000001
44
0.0000000001
40
0
40
0
40
0
40
0
40
1
40
1
40
1
40
1
41
1
41
1
41
1
41
1
10
23.917214173286439
20
-84.220542333724353
30
0
10
23.917214173286439
20
-83.946081951829598
30
0
10
23.691437175271034
20
-83.720304953814207
30
0
10
23.417329376485988
20
-83.720304953814207
30
0
0
LINE
5
265
100
AcDbEntity
8
0
100
AcDbLine
10
250.13539862641147
20
-97.220373098361975
30
0
11
250.13539862641147
21
-84.220542333724353
31
0
0
SPLINE
5
266
100
AcDbEntity
8
0
100
AcDbSpline
70
4
71
3
72
8
73
4
74
0
42
0.000000001
43
0.0000000001
44
0.0000000001
40
0
40
0
40
0
40
0
40
1
40
1
40
1
40
1
41
1
41
1
41
1
41
1
10
250.13539862641147
20
-84.220542333724353
30
0
10
250.13539862641147
20
-83.946081951829598
30
0
10
249.90961624544784
20
-83.720304953814207
30
0
10
249.63551652108509
20
-83.720304953814207
30
0
0
LINE
5
267
100
AcDbEntity
8
0
100
AcDbLine
10
249.63551652108507
20
-83.720304953814207
30
0
11
236.63533048186366
21
-83.720304953814207
31
0
0
SPLINE
5
268
100
AcDbEntity
8
0
100
AcDbSpline
70
4
71
3
72
8
73
4
74
0
42
0.000000001
43
0.0000000001
44
0.0000000001
40
0
40
0
40
0
40
0
40
1
40
1
40
1
40
1
41
1
41
1
41
1
41
1
10
236.63533048186366
20
-83.720304953814207
30
0
10
236.361230757501
20
-83.720304953814207
30
0
10
236.13544837653734
20
-83.946081951829598
30
0
10
236.13544837653734
20
-84.220542333724353
30
0
0
LINE
5
269
100
AcDbEntity
8
0
100
AcDbLine
10
236.13544837653734
20
-84.220542333724353
30
0
11
236.13544837653734
21
-97.220373098361975
31
0
0
SPLINE
5
270
100
AcDbEntity
8
0
100
AcDbSpline
70
4
71
3
72
8
73
4
74
0
42
0.000000001
43
0.0000000001
44
0.0000000001
40
0
40
0
40
0
40
0
40
1
40
1
40
1
40
1
41
1
41
1
41
1
41
1
10
236.13544837653734
20
-97.220373098361975
30
0
10
236.13544837653734
20
-97.494838863204961
30
0
10
236.361230757501
20
-97.720610478272135
30
0
10
236.63533048186366
20
-97.720610478272135
30
0
0
LINE
5
271
100
AcDbEntity
8
0
100
AcDbLine
10
236.63533048186369
20
-97.720610478272135
30
0
11
249.63551652108509
21
-97.720610478272135
31
0
0
SPLINE
5
272
100
AcDbEntity
8
0
100
AcDbSpline
70
4
71
3
72
8
73
4
74
0
42
0.000000001
43
0.0000000001
44
0.0000000001
40
0
40
0
40
0
40
0
40
1
40
1
40
1
40
1
41
1
41
1
41
1
41
1
10
249.63551652108509
20
-97.720610478272135
30
0
10
249.90961624544784
20
-97.720610478272135
30
0
10
250.13539862641147
20
-97.494838863204961
30
0
10
250.13539862641147
20
-97.220373098361975
30
0
0
LINE
5
273
100
AcDbEntity
8
0
100
AcDbLine
10
231.08544625141147
20
-97.220373098361975
30
0
11
231.08544625141147
21
-84.220542333724353
31
0
0
SPLINE
5
274
100
AcDbEntity
8
0
100
AcDbSpline
70
4
71
3
72
8
73
4
74
0
42
0.000000001
43
0.0000000001
44
0.0000000001
40
0
40
0
40
0
40
0
40
1
40
1
40
1
40
1
41
1
41
1
41
1
41
1
10
231.08544625141147
20
-84.220542333724353
30
0
10
231.08544625141147
20
-83.946081951829598
30
0
10
230.8596638704478
20
-83.720304953814207
30
0
10
230.58556414608512
20
-83.720304953814207
30
0
0
LINE
5
275
100
AcDbEntity
8
0
100
AcDbLine
10
230.58556414608506
20
-83.720304953814207
30
0
11
217.58537810686366
21
-83.720304953814207
31
0
0
SPLINE
5
276
100
AcDbEntity
8
0
100
AcDbSpline
70
4
71
3
72
8
73
4
74
0
42
0.000000001
43
0.0000000001
44
0.0000000001
40
0
40
0
40
0
40
0
40
1
40
1
40
1
40
1
41
1
41
1
41
1
41
1
10
217.58537810686366
20
-83.720304953814207
30
0
10
217.311278382501
20
-83.720304953814207
30
0
10
217.08549600153734
20
-83.946081951829598
30
0
10
217.08549600153734
20
-84.220542333724353
30
0
0
LINE
5
277
100
AcDbEntity
8
0
100
AcDbLine
10
217.08549600153734
20
-84.220542333724353
30
0
11
217.08549600153734
21
-97.220373098361975
31
0
0
SPLINE
5
278
100
AcDbEntity
8
0
100
AcDbSpline
70
4
71
3
72
8
73
4
74
0
42
0.000000001
43
0.0000000001
44
0.0000000001
40
0
40
0
40
0
40
0
40
1
40
1
40
1
40
1
41
1
41
1
41
1
41
1
10
217.08549600153734
20
-97.220373098361975
30
0
10
217.08549600153734
20
-97.494838863204961
30
0
10
217.311278382501
20
-97.720610478272135
30
0
10
217.58537810686366
20
-97.720610478272135
30
0
0
LINE
5
279
100
AcDbEntity
8
0
100
AcDbLine
10
217.58537810686369
20
-97.720610478272135
30
0
11
230.58556414608512
21
-97.720610478272135
31
0
0
SPLINE
5
280
100
AcDbEntity
8
0
100
AcDbSpline
70
4
71
3
72
8
73
4
74
0
42
0.000000001
43
0.0000000001
44
0.0000000001
40
0
40
0
40
0
40
0
40
1
40
1
40
1
40
1
41
1
41
1
41
1
41
1
10
230.58556414608512
20
-97.720610478272135
30
0
10
230.8596638704478
20
-97.720610478272135
30
0
10
231.08544625141147
20
-97.494838863204961
30
0
10
231.08544625141147
20
-97.220373098361975
30
0
0
LINE
5
281
100
AcDbEntity
8
0
100
AcDbLine
10
288.23530337641148
20
-97.220373098361975
30
0
11
288.23530337641148
21
-84.220542333724353
31
0
0
SPLINE
5
282
100
AcDbEntity
8
0
100
AcDbSpline
70
4
71
3
72
8
73
4
74
0
42
0.000000001
43
0.0000000001
44
0.0000000001
40
0
40
0
40
0
40
0
40
1
40
1
40
1
40
1
41
1
41
1
41
1
41
1
10
288.23530337641148
20
-84.220542333724353
30
0
10
288.23530337641148
20
-83.946081951829598
30
0
10
288.00952099544782
20
-83.720304953814207
30
0
10
287.73542127108516
20
-83.720304953814207
30
0
0
LINE
5
283
100
AcDbEntity
8
0
100
AcDbLine
10
287.7354212710851
20
-83.720304953814207
30
0
11
274.73523523186367
21
-83.720304953814207
31
0
0
SPLINE
5
284
100
AcDbEntity
8
0
100
AcDbSpline
70
4
71
3
72
8
73
4
74
0
42
0.000000001
43
0.0000000001
44
0.0000000001
40
0
40
0
40
0
40
0
40
1
40
1
40
1
40
1
41
1
41
1
41
1
41
1
10
274.73523523186367
20
-83.720304953814207
30
0
10
274.46113550750101
20
-83.720304953814207
30
0
10
274.23535312653735
20
-83.946081951829598
30
0
10
274.23535312653735
20
-84.220542333724353
30
0
0
LINE
5
285
100
AcDbEntity
8
0
100
AcDbLine
10
274.23535312653735
20
-84.220542333724353
30
0
11
274.23535312653735
21
-97.220373098361975
31
0
0
SPLINE
5
286
100
AcDbEntity
8
0
100
AcDbSpline
70
4
71
3
72
8
73
4
74
0
42
0.000000001
43
0.0000000001
44
0.0000000001
40
0
40
0
40
0
40
0
40
1
40
1
40
1
40
1
41
1
41
1
41
1
41
1
10
274.23535312653735
20
-97.220373098361975
30
0
10
274.23535312653735
20
-97.494838863204961
30
0
10
274.46113550750101
20
-97.720610478272135
30
0
10
274.73523523186367
20
-97.720610478272135
30
0
0
LINE
5
287
100
AcDbEntity
8
0
100
AcDbLine
10
274.73523523186367
20
-97.720610478272135
30
0
11
287.73542127108516
21
-97.720610478272135
31
0
0
SPLINE
5
288
100
AcDbEntity
8
0
100
AcDbSpline
70
4
71
3
72
8
73
4
74
0
42
0.000000001
43
0.0000000001
44
0.0000000001
40
0
40
0
40
0
40
0
40
1
40
1
40
1
40
1
41
1
41
1
41
1
41
1
10
287.73542127108516
20
-97.720610478272135
30
0
10
288.00952099544782
20
-97.720610478272135
30
0
10
288.23530337641148
20
-97.494838863204961
30
0
10
288.23530337641148
20
-97.220373098361975
30
0
0
LINE
5
289
100
AcDbEntity
8
0
100
AcDbLine
10
177.7166580971095
20
-83.720304953814207
30
0
11
172.34174121623866
21
-83.720304953814207
31
0
0
SPLINE
5
290
100
AcDbEntity
8
0
100
AcDbSpline
70
4
71
3
72
8
73
4
74
0
42
0.000000001
43
0.0000000001
44
0.0000000001
40
0
40
0
40
0
40
0
40
1
40
1
40
1
40
1
41
1
41
1
41
1
41
1
10
172.34174121623866
20
-83.720304953814207
30
0
10
172.06764149187597
20
-83.720304953814207
30
0
10
171.84185911091234
20
-83.946081951829598
30
0
10
171.84185911091234
20
-84.220542333724353
30
0
0
LINE
5
291
100
AcDbEntity
8
0
100
AcDbLine
10
171.84185911091234
20
-84.220542333724353
30
0
11
171.84185911091234
21
-97.220373098361975
31
0
0
SPLINE
5
292
100
AcDbEntity
8
0
100
AcDbSpline
70
4
71
3
72
8
73
4
74
0
42
0.000000001
43
0.0000000001
44
0.0000000001
40
0
40
0
40
0
40
0
40
1
40
1
40
1
40
1
41
1
41
1
41
1
41
1
10
171.84185911091234
20
-97.220373098361975
30
0
10
171.84185911091234
20
-97.494838863204961
30
0
10
172.06764149187597
20
-97.720610478272135
30
0
10
172.34174121623866
20
-97.720610478272135
30
0
0
LINE
5
293
100
AcDbEntity
8
0
100
AcDbLine
10
172.34174121623869
20
-97.720610478272135
30
0
11
185.34192725546009
21
-97.720610478272135
31
0
0
SPLINE
5
294
100
AcDbEntity
8
0
100
AcDbSpline
70
4
71
3
72
8
73
4
74
0
42
0.000000001
43
0.0000000001
44
0.0000000001
40
0
40
0
40
0
40
0
40
1
40
1
40
1
40
1
41
1
41
1
41
1
41
1
10
185.34192725546009
20
-97.720610478272135
30
0
10
185.61602697982281
20
-97.720610478272135
30
0
10
185.84180936078644
20
-97.494838863204961
30
0
10
185.84180936078644
20
-97.220373098361975
30
0
0
LINE
5
295
100
AcDbEntity
8
0
100
AcDbLine
10
185.84180936078644
20
-97.220373098361975
30
0
11
185.84180936078644
21
-84.220542333724353
31
0
0
SPLINE
5
296
100
AcDbEntity
8
0
100
AcDbSpline
70
4
71
3
72
8
73
4
74
0
42
0.000000001
43
0.0000000001
44
0.0000000001
40
0
40
0
40
0
40
0
40
1
40
1
40
1
40
1
41
1
41
1
41
1
41
1
10
185.84180936078644
20
-84.220542333724353
30
0
10
185.84180936078644
20
-83.946081951829598
30
0
10
185.61602697982281
20
-83.720304953814207
30
0
10
185.34192725546009
20
-83.720304953814207
30
0
0
LINE
5
297
100
AcDbEntity
8
0
100
AcDbLine
10
185.34192725546006
20
-83.720304953814207
30
0
11
184.71679471049373
21
-83.720304953814207
31
0
0
LINE
5
298
100
AcDbEntity
8
0
100
AcDbLine
10
184.71679471049373
20
-83.720304953814207
30
0
11
184.71679471049373
21
-82.22065325488694
31
0
0
SPLINE
5
299
100
AcDbEntity
8
0
100
AcDbSpline
70
4
71
3
72
8
73
4
74
0
42
0.000000001
43
0.0000000001
44
0.0000000001
40
0
40
0
40
0
40
0
40
1
40
1
40
1
40
1
41
1
41
1
41
1
41
1
10
184.71679471049373
20
-82.22065325488694
30
0
10
184.71679471049373
20
-81.946192872992199
30
0
10
184.49103386132307
20
-81.720415874976808
30
0
10
184.21691260516738
20
-81.720415874976808
30
0
0
LINE
5
300
100
AcDbEntity
8
0
100
AcDbLine
10
184.21691260516738
20
-81.720415874976808
30
0
11
178.21689547701962
21
-81.720415874976808
31
0
0
SPLINE
5
301
100
AcDbEntity
8
0
100
AcDbSpline
70
4
71
3
72
8
73
4
74
0
42
0.000000001
43
0.0000000001
44
0.0000000001
40
0
40
0
40
0
40
0
40
1
40
1
40
1
40
1
41
1
41
1
41
1
41
1
10
178.21689547701965
20
-81.720415874976808
30
0
10
177.94242971217665
20
-81.720415874976808
30
0
10
177.7166580971095
20
-81.946192872992199
30
0
10
177.7166580971095
20
-82.22065325488694
30
0
0
LINE
5
302
100
AcDbEntity
8
0
100
AcDbLine
10
177.7166580971095
20
-82.22065325488694
30
0
11
177.7166580971095
21
-83.720304953814207
31
0
0
LINE
5
303
100
AcDbEntity
8
0
100
AcDbLine
10
115.8424026201032
20
-83.720304953814207
30
0
11
101.34786708597056
21
-83.720304953814207
31
0
0
LINE
5
304
100
AcDbEntity
8
0
100
AcDbLine
10
101.34786708597056
20
-83.720304953814207
30
0
11
101.34786708597056
21
-82.22065325488694
31
0
0
SPLINE
5
305
100
AcDbEntity
8
0
100
AcDbSpline
70
4
71
3
72
8
73
4
74
0
42
0.000000001
43
0.0000000001
44
0.0000000001
40
0
40
0
40
0
40
0
40
1
40
1
40
1
40
1
41
1
41
1
41
1
41
1
10
101.34786708597056
20
-82.22065325488694
30
0
10
101.34786708597056
20
-81.946192872992199
30
0
10
101.12208470500693
20
-81.720415874976808
30
0
10
100.84762970606042
20
-81.720415874976808
30
0
0
LINE
5
306
100
AcDbEntity
8
0
100
AcDbLine
10
100.84762970606042
20
-81.720415874976808
30
0
11
92.466346999244706
21
-81.720415874976808
31
0
0
SPLINE
5
307
100
AcDbEntity
8
0
100
AcDbSpline
70
4
71
3
72
8
73
4
74
0
42
0.000000001
43
0.0000000001
44
0.0000000001
40
0
40
0
40
0
40
0
40
1
40
1
40
1
40
1
41
1
41
1
41
1
41
1
10
92.466346999244706
20
-81.720415874976808
30
0
10
92.192247274881993
20
-81.720415874976808
30
0
10
91.966464893918371
20
-81.946192872992199
30
0
10
91.966464893918371
20
-82.22065325488694
30
0
0
LINE
5
308
100
AcDbEntity
8
0
100
AcDbLine
10
91.966464893918371
20
-82.22065325488694
30
0
11
91.966464893918371
21
-96.220608887709304
31
0
0
SPLINE
5
309
100
AcDbEntity
8
0
100
AcDbSpline
70
4
71
3
72
8
73
4
74
0
42
0.000000001
43
0.0000000001
44
0.0000000001
40
0
40
0
40
0
40
0
40
1
40
1
40
1
40
1
41
1
41
1
41
1
41
1
10
91.966464893918371
20
-96.220608887709304
30
0
10
91.966464893918371
20
-96.494708612072003
30
0
10
92.192247274881993
20
-96.720490993035639
30
0
10
92.466346999244706
20
-96.720490993035639
30
0
0
LINE
5
310
100
AcDbEntity
8
0
100
AcDbLine
10
92.466346999244706
20
-96.720490993035639
30
0
11
100.40453770466235
21
-96.720490993035639
31
0
0
LINE
5
311
100
AcDbEntity
8
0
100
AcDbLine
10
100.40453770466235
20
-96.720490993035639
30
0
11
100.40453770466235
21
-97.220373098361975
31
0
0
SPLINE
5
312
100
AcDbEntity
8
0
100
AcDbSpline
70
4
71
3
72
8
73
4
74
0
42
0.000000001
43
0.0000000001
44
0.0000000001
40
0
40
0
40
0
40
0
40
1
40
1
40
1
40
1
41
1
41
1
41
1
41
1
10
100.40453770466235
20
-97.220373098361975
30
0
10
100.40453770466235
20
-97.494838863204961
30
0
10
100.63032008562598
20
-97.720610478272135
30
0
10
100.90441980998867
20
-97.720610478272135
30
0
0
LINE
5
313
100
AcDbEntity
8
0
100
AcDbLine
10
100.90441980998867
20
-97.720610478272135
30
0
11
116.28584989608511
21
-97.720610478272135
31
0
0
SPLINE
5
314
100
AcDbEntity
8
0
100
AcDbSpline
70
4
71
3
72
8
73
4
74
0
42
0.000000001
43
0.0000000001
44
0.0000000001
40
0
40
0
40
0
40
0
40
1
40
1
40
1
40
1
41
1
41
1
41
1
41
1
10
116.28584989608511
20
-97.720610478272135
30
0
10
116.55996038634429
20
-97.720610478272135
30
0
10
116.78573200141145
20
-97.494838863204961
30
0
10
116.78573200141145
20
-97.220373098361975
30
0
0
LINE
5
315
100
AcDbEntity
8
0
100
AcDbLine
10
116.78573200141145
20
-97.220373098361975
30
0
11
116.78573200141145
21
-96.720490993035639
31
0
0
LINE
5
316
100
AcDbEntity
8
0
100
AcDbLine
10
116.78573200141145
20
-96.720490993035639
30
0
11
124.21697817341233
21
-96.720490993035639
31
0
0
LINE
5
317
100
AcDbEntity
8
0
100
AcDbLine
10
124.21697817341233
20
-96.720490993035639
30
0
11
124.21697817341233
21
-97.220373098361975
31
0
0
SPLINE
5
318
100
AcDbEntity
8
0
100
AcDbSpline
70
4
71
3
72
8
73
4
74
0
42
0.000000001
43
0.0000000001
44
0.0000000001
40
0
40
0
40
0
40
0
40
1
40
1
40
1
40
1
41
1
41
1
41
1
41
1
10
124.21697817341233
20
-97.220373098361975
30
0
10
124.21697817341233
20
-97.494838863204961
30
0
10
124.44276055437598
20
-97.720610478272135
30
0
10
124.71686027873866
20
-97.720610478272135
30
0
0
LINE
5
319
100
AcDbEntity
8
0
100
AcDbLine
10
124.71686027873866
20
-97.720610478272135
30
0
11
137.7170463179601
21
-97.720610478272135
31
0
0
SPLINE
5
320
100
AcDbEntity
8
0
100
AcDbSpline
70
4
71
3
72
8
73
4
74
0
42
0.000000001
43
0.0000000001
44
0.0000000001
40
0
40
0
40
0
40
0
40
1
40
1
40
1
40
1
41
1
41
1
41
1
41
1
10
137.7170463179601
20
-97.720610478272135
30
0
10
137.99115680821927
20
-97.720610478272135
30
0
10
138.21692842328642
20
-97.494838863204961
30
0
10
138.21692842328642
20
-97.220373098361975
30
0
0
LINE
5
321
100
AcDbEntity
8
0
100
AcDbLine
10
138.21692842328642
20
-97.220373098361975
30
0
11
138.21692842328642
21
-96.720490993035639
31
0
0
LINE
5
322
100
AcDbEntity
8
0
100
AcDbLine
10
138.21692842328642
20
-96.720490993035639
30
0
11
138.94753445606042
21
-96.720490993035639
31
0
0
SPLINE
5
323
100
AcDbEntity
8
0
100
AcDbSpline
70
4
71
3
72
8
73
4
74
0
42
0.000000001
43
0.0000000001
44
0.0000000001
40
0
40
0
40
0
40
0
40
1
40
1
40
1
40
1
41
1
41
1
41
1
41
1
10
138.94753445606042
20
-96.720490993035639
30
0
10
139.22198945500691
20
-96.720490993035639
30
0
10
139.44777183597057
20
-96.494708612072003
30
0
10
139.44777183597057
20
-96.220608887709304
30
0
0
LINE
5
324
100
AcDbEntity
8
0
100
AcDbLine
10
139.44777183597057
20
-96.220608887709304
30
0
11
139.44777183597057
21
-82.22065325488694
31
0
0
SPLINE
5
325
100
AcDbEntity
8
0
100
AcDbSpline
70
4
71
3
72
8
73
4
74
0
42
0.000000001
43
0.0000000001
44
0.0000000001
40
0
40
0
40
0
40
0
40
1
40
1
40
1
40
1
41
1
41
1
41
1
41
1
10
139.44777183597057
20
-82.22065325488694
30
0
10
139.44777183597057
20
-81.946192872992199
30
0
10
139.22198945500691
20
-81.720415874976808
30
0
10
138.94753445606042
20
-81.720415874976808
30
0
0
LINE
5
326
100
AcDbEntity
8
0
100
AcDbLine
10
138.94753445606042
20
-81.720415874976808
30
0
11
132.94749579611971
21
-81.720415874976808
31
0
0
SPLINE
5
327
100
AcDbEntity
8
0
100
AcDbSpline
70
4
71
3
72
8
73
4
74
0
42
0.000000001
43
0.0000000001
44
0.0000000001
40
0
40
0
40
0
40
0
40
1
40
1
40
1
40
1
41
1
41
1
41
1
41
1
10
132.94749579611968
20
-81.720415874976808
30
0
10
132.67339607175703
20
-81.720415874976808
30
0
10
132.44761369079336
20
-81.946192872992199
30
0
10
132.44761369079336
20
-82.22065325488694
30
0
0
LINE
5
328
100
AcDbEntity
8
0
100
AcDbLine
10
132.44761369079336
20
-82.22065325488694
30
0
11
132.44761369079336
21
-83.720304953814207
31
0
0
LINE
5
329
100
AcDbEntity
8
0
100
AcDbLine
10
132.44761369079336
20
-83.720304953814207
30
0
11
125.22380481215542
21
-83.720304953814207
31
0
0
LINE
5
330
100
AcDbEntity
8
0
100
AcDbLine
10
125.22380481215542
20
-83.720304953814207
30
0
11
125.22380481215541
21
-82.22065325488694
31
0
0
SPLINE
5
331
100
AcDbEntity
8
0
100
AcDbSpline
70
4
71
3
72
8
73
4
74
0
42
0.000000001
43
0.0000000001
44
0.0000000001
40
0
40
0
40
0
40
0
40
1
40
1
40
1
40
1
41
1
41
1
41
1
41
1
10
125.22380481215541
20
-82.22065325488694
30
0
10
125.22380481215541
20
-81.946192872992199
30
0
10
124.99802243119177
20
-81.720415874976808
30
0
10
124.72356743224526
20
-81.720415874976808
30
0
0
LINE
5
332
100
AcDbEntity
8
0
100
AcDbLine
10
124.72356743224526
20
-81.720415874976808
30
0
11
116.34229549132601
21
-81.720415874976808
31
0
0
SPLINE
5
333
100
AcDbEntity
8
0
100
AcDbSpline
70
4
71
3
72
8
73
4
74
0
42
0.000000001
43
0.0000000001
44
0.0000000001
40
0
40
0
40
0
40
0
40
1
40
1
40
1
40
1
41
1
41
1
41
1
41
1
10
116.34229549132601
20
-81.720415874976808
30
0
10
116.06818500106685
20
-81.720415874976808
30
0
10
115.8424026201032
20
-81.946192872992199
30
0
10
115.8424026201032
20
-82.22065325488694
30
0
0
LINE
5
334
100
AcDbEntity
8
0
100
AcDbLine
10
115.8424026201032
20
-82.22065325488694
30
0
11
115.8424026201032
21
-83.720304953814207
31
0
0
LINE
5
335
100
AcDbEntity
8
0
100
AcDbLine
10
44.848525798360981
20
-83.720304953814207
30
0
11
27.085857048337779
21
-83.720304953814207
31
0
0
SPLINE
5
336
100
AcDbEntity
8
0
100
AcDbSpline
70
4
71
3
72
8
73
4
74
0
42
0.000000001
43
0.0000000001
44
0.0000000001
40
0
40
0
40
0
40
0
40
1
40
1
40
1
40
1
41
1
41
1
41
1
41
1
10
27.085857048337779
20
-83.720304953814207
30
0
10
26.811749249552726
20
-83.720304953814207
30
0
10
26.585972251537324
20
-83.946081951829598
30
0
10
26.585972251537324
20
-84.220542333724353
30
0
0
LINE
5
337
100
AcDbEntity
8
0
100
AcDbLine
10
26.585972251537324
20
-84.220542333724353
30
0
11
26.585972251537324
21
-97.220373098361975
31
0
0
SPLINE
5
338
100
AcDbEntity
8
0
100
AcDbSpline
70
4
71
3
72
8
73
4
74
0
42
0.000000001
43
0.0000000001
44
0.0000000001
40
0
40
0
40
0
40
0
40
1
40
1
40
1
40
1
41
1
41
1
41
1
41
1
10
26.585972251537324
20
-97.220373098361975
30
0
10
26.585972251537324
20
-97.494838863204961
30
0
10
26.811749249552726
20
-97.720610478272135
30
0
10
27.085857048337779
20
-97.720610478272135
30
0
0
LINE
5
339
100
AcDbEntity
8
0
100
AcDbLine
10
27.085857048337783
20
-97.720610478272135
30
0
11
44.848525798360981
21
-97.720610478272135
31
0
0
SPLINE
5
340
100
AcDbEntity
8
0
100
AcDbSpline
70
4
71
3
72
8
73
4
74
0
42
0.000000001
43
0.0000000001
44
0.0000000001
40
0
40
0
40
0
40
0
40
1
40
1
40
1
40
1
41
1
41
1
41
1
41
1
10
44.848525798360981
20
-97.720610478272135
30
0
10
45.122633597146034
20
-97.720610478272135
30
0
10
45.34841059516144
20
-97.494838863204961
30
0
10
45.34841059516144
20
-97.220373098361975
30
0
0
LINE
5
341
100
AcDbEntity
8
0
100
AcDbLine
10
45.34841059516144
20
-97.220373098361975
30
0
11
45.34841059516144
21
-84.220542333724353
31
0
0
SPLINE
5
342
100
AcDbEntity
8
0
100
AcDbSpline
70
4
71
3
72
8
73
4
74
0
42
0.000000001
43
0.0000000001
44
0.0000000001
40
0
40
0
40
0
40
0
40
1
40
1
40
1
40
1
41
1
41
1
41
1
41
1
10
45.34841059516144
20
-84.220542333724353
30
0
10
45.34841059516144
20
-83.946081951829598
30
0
10
45.122633597146034
20
-83.720304953814207
30
0
10
44.848525798360981
20
-83.720304953814207
30
0
0
LINE
5
343
100
AcDbEntity
8
0
100
AcDbLine
10
66.279724911710105
20
-83.720304953814207
30
0
11
48.517056161686902
21
-83.720304953814207
31
0
0
SPLINE
5
344
100
AcDbEntity
8
0
100
AcDbSpline
70
4
71
3
72
8
73
4
74
0
42
0.000000001
43
0.0000000001
44
0.0000000001
40
0
40
0
40
0
40
0
40
1
40
1
40
1
40
1
41
1
41
1
41
1
41
1
10
48.517056161686902
20
-83.720304953814207
30
0
10
48.242945671427726
20
-83.720304953814207
30
0
10
48.017168673412336
20
-83.946081951829598
30
0
10
48.017168673412336
20
-84.220542333724353
30
0
0
LINE
5
345
100
AcDbEntity
8
0
100
AcDbLine
10
48.017168673412336
20
-84.220542333724353
30
0
11
48.017168673412336
21
-97.220373098361975
31
0
0
SPLINE
5
346
100
AcDbEntity
8
0
100
AcDbSpline
70
4
71
3
72
8
73
4
74
0
42
0.000000001
43
0.0000000001
44
0.0000000001
40
0
40
0
40
0
40
0
40
1
40
1
40
1
40
1
41
1
41
1
41
1
41
1
10
48.017168673412336
20
-97.220373098361975
30
0
10
48.017168673412336
20
-97.494838863204961
30
0
10
48.242945671427726
20
-97.720610478272135
30
0
10
48.517056161686902
20
-97.720610478272135
30
0
0
LINE
5
347
100
AcDbEntity
8
0
100
AcDbLine
10
48.517056161686902
20
-97.720610478272135
30
0
11
66.279724911710105
21
-97.720610478272135
31
0
0
SPLINE
5
348
100
AcDbEntity
8
0
100
AcDbSpline
70
4
71
3
72
8
73
4
74
0
42
0.000000001
43
0.0000000001
44
0.0000000001
40
0
40
0
40
0
40
0
40
1
40
1
40
1
40
1
41
1
41
1
41
1
41
1
10
66.279724911710105
20
-97.720610478272135
30
0
10
66.553830019021035
20
-97.720610478272135
30
0
10
66.77960701703644
20
-97.494838863204961
30
0
10
66.77960701703644
20
-97.220373098361975
30
0
0
LINE
5
349
100
AcDbEntity
8
0
100
AcDbLine
10
66.77960701703644
20
-97.220373098361975
30
0
11
66.77960701703644
21
-84.220542333724353
31
0
0
SPLINE
5
350
100
AcDbEntity
8
0
100
AcDbSpline
70
4
71
3
72
8
73
4
74
0
42
0.000000001
43
0.0000000001
44
0.0000000001
40
0
40
0
40
0
40
0
40
1
40
1
40
1
40
1
41
1
41
1
41
1
41
1
10
66.77960701703644
20
-84.220542333724353
30
0
10
66.77960701703644
20
-83.946081951829598
30
0
10
66.553830019021035
20
-83.720304953814207
30
0
10
66.279724911710105
20
-83.720304953814207
30
0
0
LINE
5
351
100
AcDbEntity
8
0
100
AcDbLine
10
269.18535100141145
20
-97.220373098361975
30
0
11
269.18535100141145
21
-84.220542333724353
31
0
0
SPLINE
5
352
100
AcDbEntity
8
0
100
AcDbSpline
70
4
71
3
72
8
73
4
74
0
42
0.000000001
43
0.0000000001
44
0.0000000001
40
0
40
0
40
0
40
0
40
1
40
1
40
1
40
1
41
1
41
1
41
1
41
1
10
269.18535100141145
20
-84.220542333724353
30
0
10
269.18535100141145
20
-83.946081951829598
30
0
10
268.95956862044778
20
-83.720304953814207
30
0
10
268.68546889608513
20
-83.720304953814207
30
0
0
LINE
5
353
100
AcDbEntity
8
0
100
AcDbLine
10
268.68546889608513
20
-83.720304953814207
30
0
11
255.68528285686369
21
-83.720304953814207
31
0
0
SPLINE
5
354
100
AcDbEntity
8
0
100
AcDbSpline
70
4
71
3
72
8
73
4
74
0
42
0.000000001
43
0.0000000001
44
0.0000000001
40
0
40
0
40
0
40
0
40
1
40
1
40
1
40
1
41
1
41
1
41
1
41
1
10
255.68528285686369
20
-83.720304953814207
30
0
10
255.41118313250098
20
-83.720304953814207
30
0
10
255.18540075153734
20
-83.946081951829598
30
0
10
255.18540075153734
20
-84.220542333724353
30
0
0
LINE
5
355
100
AcDbEntity
8
0
100
AcDbLine
10
255.18540075153734
20
-84.220542333724353
30
0
11
255.18540075153734
21
-97.220373098361975
31
0
0
SPLINE
5
356
100
AcDbEntity
8
0
100
AcDbSpline
70
4
71
3
72
8
73
4
74
0
42
0.000000001
43
0.0000000001
44
0.0000000001
40
0
40
0
40
0
40
0
40
1
40
1
40
1
40
1
41
1
41
1
41
1
41
1
10
255.18540075153734
20
-97.220373098361975
30
0
10
255.18540075153734
20
-97.494838863204961
30
0
10
255.41118313250098
20
-97.720610478272135
30
0
10
255.68528285686369
20
-97.720610478272135
30
0
0
LINE
5
357
100
AcDbEntity
8
0
100
AcDbLine
10
255.68528285686372
20
-97.720610478272135
30
0
11
268.68546889608513
21
-97.720610478272135
31
0
0
SPLINE
5
358
100
AcDbEntity
8
0
100
AcDbSpline
70
4
71
3
72
8
73
4
74
0
42
0.000000001
43
0.0000000001
44
0.0000000001
40
0
40
0
40
0
40
0
40
1
40
1
40
1
40
1
41
1
41
1
41
1
41
1
10
268.68546889608513
20
-97.720610478272135
30
0
10
268.95956862044778
20
-97.720610478272135
30
0
10
269.18535100141145
20
-97.494838863204961
30
0
10
269.18535100141145
20
-97.220373098361975
30
0
0
LINE
5
359
100
AcDbEntity
8
0
100
AcDbLine
10
154.88563675141143
20
-97.220373098361975
30
0
11
154.88563675141143
21
-84.220542333724353
31
0
0
SPLINE
5
360
100
AcDbEntity
8
0
100
AcDbSpline
70
4
71
3
72
8
73
4
74
0
42
0.000000001
43
0.0000000001
44
0.0000000001
40
0
40
0
40
0
40
0
40
1
40
1
40
1
40
1
41
1
41
1
41
1
41
1
10
154.88563675141143
20
-84.220542333724353
30
0
10
154.88563675141143
20
-83.946081951829598
30
0
10
154.65986513634428
20
-83.720304953814207
30
0
10
154.3857546460851
20
-83.720304953814207
30
0
0
LINE
5
361
100
AcDbEntity
8
0
100
AcDbLine
10
154.3857546460851
20
-83.720304953814207
30
0
11
141.38556860686367
21
-83.720304953814207
31
0
0
SPLINE
5
362
100
AcDbEntity
8
0
100
AcDbSpline
70
4
71
3
72
8
73
4
74
0
42
0.000000001
43
0.0000000001
44
0.0000000001
40
0
40
0
40
0
40
0
40
1
40
1
40
1
40
1
41
1
41
1
41
1
41
1
10
141.38556860686367
20
-83.720304953814207
30
0
10
141.11146888250096
20
-83.720304953814207
30
0
10
140.88568650153732
20
-83.946081951829598
30
0
10
140.88568650153732
20
-84.220542333724353
30
0
0
LINE
5
363
100
AcDbEntity
8
0
100
AcDbLine
10
140.88568650153732
20
-84.220542333724353
30
0
11
140.88568650153732
21
-97.220373098361975
31
0
0
SPLINE
5
364
100
AcDbEntity
8
0
100
AcDbSpline
70
4
71
3
72
8
73
4
74
0
42
0.000000001
43
0.0000000001
44
0.0000000001
40
0
40
0
40
0
40
0
40
1
40
1
40
1
40
1
41
1
41
1
41
1
41
1
10
140.88568650153732
20
-97.220373098361975
30
0
10
140.88568650153732
20
-97.494838863204961
30
0
10
141.11146888250096
20
-97.720610478272135
30
0
10
141.38556860686367
20
-97.720610478272135
30
0
0
LINE
5
365
100
AcDbEntity
8
0
100
AcDbLine
10
141.38556860686367
20
-97.720610478272135
30
0
11
154.3857546460851
21
-97.720610478272135
31
0
0
SPLINE
5
366
100
AcDbEntity
8
0
100
AcDbSpline
70
4
71
3
72
8
73
4
74
0
42
0.000000001
43
0.0000000001
44
0.0000000001
40
0
40
0
40
0
40
0
40
1
40
1
40
1
40
1
41
1
41
1
41
1
41
1
10
154.3857546460851
20
-97.720610478272135
30
0
10
154.65986513634428
20
-97.720610478272135
30
0
10
154.88563675141143
20
-97.494838863204961
30
0
10
154.88563675141143
20
-97.220373098361975
30
0
0
LINE
5
367
100
AcDbEntity
8
0
100
AcDbLine
10
69.948252583561896
20
-97.720610478272135
30
0
11
85.329677286710108
21
-97.720610478272135
31
0
0
SPLINE
5
368
100
AcDbEntity
8
0
100
AcDbSpline
70
4
71
3
72
8
73
4
74
0
42
0.000000001
43
0.0000000001
44
0.0000000001
40
0
40
0
40
0
40
0
40
1
40
1
40
1
40
1
41
1
41
1
41
1
41
1
10
85.329677286710108
20
-97.720610478272135
30
0
10
85.603782394021039
20
-97.720610478272135
30
0
10
85.829559392036444
20
-97.494838863204961
30
0
10
85.829559392036444
20
-97.220373098361975
30
0
0
LINE
5
369
100
AcDbEntity
8
0
100
AcDbLine
10
85.829559392036444
20
-97.220373098361975
30
0
11
85.829559392036444
21
-84.220542333724353
31
0
0
SPLINE
5
370
100
AcDbEntity
8
0
100
AcDbSpline
70
4
71
3
72
8
73
4
74
0
42
0.000000001
43
0.0000000001
44
0.0000000001
40
0
40
0
40
0
40
0
40
1
40
1
40
1
40
1
41
1
41
1
41
1
41
1
10
85.829559392036444
20
-84.220542333724353
30
0
10
85.829559392036444
20
-83.946081951829598
30
0
10
85.603782394021039
20
-83.720304953814207
30
0
10
85.329677286710108
20
-83.720304953814207
30
0
0
LINE
5
371
100
AcDbEntity
8
0
100
AcDbLine
10
85.329677286710108
20
-83.720304953814207
30
0
11
84.71690399090194
21
-83.720304953814207
31
0
0
LINE
5
372
100
AcDbEntity
8
0
100
AcDbLine
10
84.71690399090194
20
-83.720304953814207
30
0
11
84.71690399090194
21
-82.22065325488694
31
0
0
SPLINE
5
373
100
AcDbEntity
8
0
100
AcDbSpline
70
4
71
3
72
8
73
4
74
0
42
0.000000001
43
0.0000000001
44
0.0000000001
40
0
40
0
40
0
40
0
40
1
40
1
40
1
40
1
41
1
41
1
41
1
41
1
10
84.71690399090194
20
-82.22065325488694
30
0
10
84.71690399090194
20
-81.946192872992199
30
0
10
84.491476884522129
20
-81.720415874976808
30
0
10
84.217016502627388
20
-81.720415874976808
30
0
0
LINE
5
374
100
AcDbEntity
8
0
100
AcDbLine
10
84.217016502627388
20
-81.720415874976808
30
0
11
78.216988608583137
21
-81.720415874976808
31
0
0
SPLINE
5
375
100
AcDbEntity
8
0
100
AcDbSpline
70
4
71
3
72
8
73
4
74
0
42
0.000000001
43
0.0000000001
44
0.0000000001
40
0
40
0
40
0
40
0
40
1
40
1
40
1
40
1
41
1
41
1
41
1
41
1
10
78.216988608583137
20
-81.720415874976808
30
0
10
77.942878118323975
20
-81.720415874976808
30
0
10
77.71710112030857
20
-81.946192872992199
30
0
10
77.71710112030857
20
-82.22065325488694
30
0
0
LINE
5
376
100
AcDbEntity
8
0
100
AcDbLine
10
77.71710112030857
20
-82.22065325488694
30
0
11
77.71710112030857
21
-83.720304953814207
31
0
0
LINE
5
377
100
AcDbEntity
8
0
100
AcDbLine
10
77.71710112030857
20
-83.720304953814207
30
0
11
69.948252583561896
21
-83.720304953814207
31
0
0
SPLINE
5
378
100
AcDbEntity
8
0
100
AcDbSpline
70
4
71
3
72
8
73
4
74
0
42
0.000000001
43
0.0000000001
44
0.0000000001
40
0
40
0
40
0
40
0
40
1
40
1
40
1
40
1
41
1
41
1
41
1
41
1
10
69.948252583561896
20
-83.720304953814207
30
0
10
69.674142093302734
20
-83.720304953814207
30
0
10
69.448365095287329
20
-83.946081951829598
30
0
10
69.448365095287329
20
-84.220542333724353
30
0
0
LINE
5
379
100
AcDbEntity
8
0
100
AcDbLine
10
69.448365095287329
20
-84.220542333724353
30
0
11
69.448365095287329
21
-97.220373098361975
31
0
0
SPLINE
5
380
100
AcDbEntity
8
0
100
AcDbSpline
70
4
71
3
72
8
73
4
74
0
42
0.000000001
43
0.0000000001
44
0.0000000001
40
0
40
0
40
0
40
0
40
1
40
1
40
1
40
1
41
1
41
1
41
1
41
1
10
69.448365095287329
20
-97.220373098361975
30
0
10
69.448365095287329
20
-97.494838863204961
30
0
10
69.674142093302734
20
-97.720610478272135
30
0
10
69.948252583561896
20
-97.720610478272135
30
0
0
SPLINE
5
381
100
AcDbEntity
8
0
100
AcDbSpline
70
4
71
3
72
8
73
4
74
0
42
0.000000001
43
0.0000000001
44
0.0000000001
40
0
40
0
40
0
40
0
40
1
40
1
40
1
40
1
41
1
41
1
41
1
41
1
10
195.65429957966234
20
-88.146245740673379
30
0
10
194.38889763927972
20
-88.212569045934046
30
0
10
193.38136045136901
20
-89.261022023414284
30
0
10
193.38136045136901
20
-90.543008827323291
30
0
0
SPLINE
5
382
100
AcDbEntity
8
0
100
AcDbSpline
70
4
71
3
72
8
73
4
74
0
42
0.000000001
43
0.0000000001
44
0.0000000001
40
0
40
0
40
0
40
0
40
1
40
1
40
1
40
1
41
1
41
1
41
1
41
1
10
193.38136045136901
20
-90.543008827323291
30
0
10
193.38136045136901
20
-91.825001014180501
30
0
10
194.38889763927972
20
-92.873459374608998
30
0
10
195.65429957966234
20
-92.93977729692142
30
0
0
LINE
5
383
100
AcDbEntity
8
0
100
AcDbLine
10
195.65429957966234
20
-92.93977729692142
30
0
11
195.65429957966234
21
-97.220373098361975
31
0
0
SPLINE
5
384
100
AcDbEntity
8
0
100
AcDbSpline
70
4
71
3
72
8
73
4
74
0
42
0.000000001
43
0.0000000001
44
0.0000000001
40
0
40
0
40
0
40
0
40
1
40
1
40
1
40
1
41
1
41
1
41
1
41
1
10
195.65429957966234
20
-97.220373098361975
30
0
10
195.65429957966234
20
-97.494838863204961
30
0
10
195.880081960626
20
-97.720610478272135
30
0
10
196.15418168498866
20
-97.720610478272135
30
0
0
LINE
5
385
100
AcDbEntity
8
0
100
AcDbLine
10
196.15418168498871
20
-97.720610478272135
30
0
11
209.15436772421009
21
-97.720610478272135
31
0
0
SPLINE
5
386
100
AcDbEntity
8
0
100
AcDbSpline
70
4
71
3
72
8
73
4
74
0
42
0.000000001
43
0.0000000001
44
0.0000000001
40
0
40
0
40
0
40
0
40
1
40
1
40
1
40
1
41
1
41
1
41
1
41
1
10
209.15436772421009
20
-97.720610478272135
30
0
10
209.4284674485728
20
-97.720610478272135
30
0
10
209.65424982953647
20
-97.494838863204961
30
0
10
209.65424982953647
20
-97.220373098361975
30
0
0
LINE
5
387
100
AcDbEntity
8
0
100
AcDbLine
10
209.65424982953647
20
-97.220373098361975
30
0
11
209.65424982953647
21
-84.220542333724353
31
0
0
SPLINE
5
388
100
AcDbEntity
8
0
100
AcDbSpline
70
4
71
3
72
8
73
4
74
0
42
0.000000001
43
0.0000000001
44
0.0000000001
40
0
40
0
40
0
40
0
40
1
40
1
40
1
40
1
41
1
41
1
41
1
41
1
10
209.65424982953647
20
-84.220542333724353
30
0
10
209.65424982953647
20
-83.946081951829598
30
0
10
209.4284674485728
20
-83.720304953814207
30
0
10
209.15436772421009
20
-83.720304953814207
30
0
0
LINE
5
389
100
AcDbEntity
8
0
100
AcDbLine
10
209.15436772421006
20
-83.720304953814207
30
0
11
196.15418168498866
21
-83.720304953814207
31
0
0
SPLINE
5
390
100
AcDbEntity
8
0
100
AcDbSpline
70
4
71
3
72
8
73
4
74
0
42
0.000000001
43
0.0000000001
44
0.0000000001
40
0
40
0
40
0
40
0
40
1
40
1
40
1
40
1
41
1
41
1
41
1
41
1
10
196.15418168498866
20
-83.720304953814207
30
0
10
195.880081960626
20
-83.720304953814207
30
0
10
195.65429957966234
20
-83.946081951829598
30
0
10
195.65429957966234
20
-84.220542333724353
30
0
0
LINE
5
391
100
AcDbEntity
8
0
100
AcDbLine
10
195.65429957966234
20
-84.220542333724353
30
0
11
195.65429957966234
21
-88.146245740673379
31
0
0
LINE
5
392
100
AcDbEntity
8
0
100
AcDbLine
10
156.3235514169782
20
-82.22065325488694
30
0
11
156.3235514169782
21
-96.220608887709304
31
0
0
SPLINE
5
393
100
AcDbEntity
8
0
100
AcDbSpline
70
4
71
3
72
8
73
4
74
0
42
0.000000001
43
0.0000000001
44
0.0000000001
40
0
40
0
40
0
40
0
40
1
40
1
40
1
40
1
41
1
41
1
41
1
41
1
10
156.3235514169782
20
-96.220608887709304
30
0
10
156.3235514169782
20
-96.494708612072003
30
0
10
156.54933379794184
20
-96.720490993035639
30
0
10
156.82344428820102
20
-96.720490993035639
30
0
0
LINE
5
394
100
AcDbEntity
8
0
100
AcDbLine
10
156.82344428820102
20
-96.720490993035639
30
0
11
162.82347218224527
21
-96.720490993035639
31
0
0
SPLINE
5
395
100
AcDbEntity
8
0
100
AcDbSpline
70
4
71
3
72
8
73
4
74
0
42
0.000000001
43
0.0000000001
44
0.0000000001
40
0
40
0
40
0
40
0
40
1
40
1
40
1
40
1
41
1
41
1
41
1
41
1
10
162.82347218224527
20
-96.720490993035639
30
0
10
163.09792718119178
20
-96.720490993035639
30
0
10
163.32370956215541
20
-96.494708612072003
30
0
10
163.32370956215541
20
-96.220608887709304
30
0
0
LINE
5
396
100
AcDbEntity
8
0
100
AcDbLine
10
163.32370956215541
20
-96.220608887709304
30
0
11
163.32370956215541
21
-82.22065325488694
31
0
0
SPLINE
5
397
100
AcDbEntity
8
0
100
AcDbSpline
70
4
71
3
72
8
73
4
74
0
42
0.000000001
43
0.0000000001
44
0.0000000001
40
0
40
0
40
0
40
0
40
1
40
1
40
1
40
1
41
1
41
1
41
1
41
1
10
163.32370956215541
20
-82.22065325488694
30
0
10
163.32370956215541
20
-81.946192872992199
30
0
10
163.09792718119178
20
-81.720415874976808
30
0
10
162.82347218224527
20
-81.720415874976808
30
0
0
LINE
5
398
100
AcDbEntity
8
0
100
AcDbLine
10
162.82347218224521
20
-81.720415874976808
30
0
11
156.82344428820102
21
-81.720415874976808
31
0
0
SPLINE
5
399
100
AcDbEntity
8
0
100
AcDbSpline
70
4
71
3
72
8
73
4
74
0
42
0.000000001
43
0.0000000001
44
0.0000000001
40
0
40
0
40
0
40
0
40
1
40
1
40
1
40
1
41
1
41
1
41
1
41
1
10
156.82344428820102
20
-81.720415874976808
30
0
10
156.54933379794184
20
-81.720415874976808
30
0
10
156.3235514169782
20
-81.946192872992199
30
0
10
156.3235514169782
20
-82.22065325488694
30
0
0
LINE
5
400
100
AcDbEntity
8
0
100
AcDbLine
10
32.94230556398599
20
-64.670352578814189
30
0
11
17.560880860837781
21
-64.670352578814189
31
0
0
SPLINE
5
401
100
AcDbEntity
8
0
100
AcDbSpline
70
4
71
3
72
8
73
4
74
0
42
0.000000001
43
0.0000000001
44
0.0000000001
40
0
40
0
40
0
40
0
40
1
40
1
40
1
40
1
41
1
41
1
41
1
41
1
10
17.560880860837777
20
-64.670352578814189
30
0
10
17.286773062052728
20
-64.670352578814189
30
0
10
17.060996064037326
20
-64.896129576829594
30
0
10
17.060996064037326
20
-65.170589958724335
30
0
0
LINE
5
402
100
AcDbEntity
8
0
100
AcDbLine
10
17.060996064037329
20
-65.170589958724335
30
0
11
17.060996064037326
21
-78.170420723361957
31
0
0
SPLINE
5
403
100
AcDbEntity
8
0
100
AcDbSpline
70
4
71
3
72
8
73
4
74
0
42
0.000000001
43
0.0000000001
44
0.0000000001
40
0
40
0
40
0
40
0
40
1
40
1
40
1
40
1
41
1
41
1
41
1
41
1
10
17.060996064037326
20
-78.170420723361971
30
0
10
17.060996064037326
20
-78.444881105256727
30
0
10
17.286773062052728
20
-78.670658103272132
30
0
10
17.560880860837777
20
-78.670658103272132
30
0
0
LINE
5
404
100
AcDbEntity
8
0
100
AcDbLine
10
17.560880860837777
20
-78.670658103272132
30
0
11
32.49886636242644
21
-78.670658103272132
31
0
0
LINE
5
405
100
AcDbEntity
8
0
100
AcDbLine
10
32.49886636242644
20
-78.670658103272132
30
0
11
32.49886636242644
21
-80.170315185147615
31
0
0
SPLINE
5
406
100
AcDbEntity
8
0
100
AcDbSpline
70
4
71
3
72
8
73
4
74
0
42
0.000000001
43
0.0000000001
44
0.0000000001
40
0
40
0
40
0
40
0
40
1
40
1
40
1
40
1
41
1
41
1
41
1
41
1
10
32.49886636242644
20
-80.170315185147615
30
0
10
32.49886636242644
20
-80.444775567042356
30
0
10
32.724643360441846
20
-80.670552565057761
30
0
10
32.998751159226899
20
-80.670552565057761
30
0
0
LINE
5
407
100
AcDbEntity
8
0
100
AcDbLine
10
32.998751159226899
20
-80.670552565057761
30
0
11
38.998779053271136
21
-80.670552565057761
31
0
0
SPLINE
5
408
100
AcDbEntity
8
0
100
AcDbSpline
70
4
71
3
72
8
73
4
74
0
42
0.000000001
43
0.0000000001
44
0.0000000001
40
0
40
0
40
0
40
0
40
1
40
1
40
1
40
1
41
1
41
1
41
1
41
1
10
38.998779053271136
20
-80.670552565057761
30
0
10
39.273239435165891
20
-80.670552565057761
30
0
10
39.499019124655405
20
-80.444775567042356
30
0
10
39.499019124655405
20
-80.170315185147615
30
0
0
LINE
5
409
100
AcDbEntity
8
0
100
AcDbLine
10
39.499019124655405
20
-80.170315185147615
30
0
11
39.499019124655405
21
-66.170364935273497
31
0
0
SPLINE
5
410
100
AcDbEntity
8
0
100
AcDbSpline
70
4
71
3
72
8
73
4
74
0
42
0.000000001
43
0.0000000001
44
0.0000000001
40
0
40
0
40
0
40
0
40
1
40
1
40
1
40
1
41
1
41
1
41
1
41
1
10
39.499019124655405
20
-66.170364935273497
30
0
10
39.499019124655405
20
-65.896254445014321
30
0
10
39.273239435165891
20
-65.67047744699893
30
0
10
38.998779053271136
20
-65.67047744699893
30
0
0
LINE
5
411
100
AcDbEntity
8
0
100
AcDbLine
10
38.998779053271136
20
-65.67047744699893
30
0
11
33.442190360786441
21
-65.67047744699893
31
0
0
LINE
5
412
100
AcDbEntity
8
0
100
AcDbLine
10
33.442190360786441
20
-65.67047744699893
30
0
11
33.442190360786441
21
-65.170589958724349
31
0
0
SPLINE
5
413
100
AcDbEntity
8
0
100
AcDbSpline
70
4
71
3
72
8
73
4
74
0
42
0.000000001
43
0.0000000001
44
0.0000000001
40
0
40
0
40
0
40
0
40
1
40
1
40
1
40
1
41
1
41
1
41
1
41
1
10
33.442190360786441
20
-65.170589958724335
30
0
10
33.442190360786441
20
-64.896129576829594
30
0
10
33.216413362771036
20
-64.670352578814189
30
0
10
32.94230556398599
20
-64.670352578814189
30
0
0
LINE
5
414
100
AcDbEntity
8
0
100
AcDbLine
10
8.6229259447674753
20
-66.335110066147806
30
0
11
7.4915701814484601
21
-66.335110066147806
31
0
0
SPLINE
5
415
100
AcDbEntity
8
0
100
AcDbSpline
70
4
71
3
72
8
73
4
74
0
42
0.000000001
43
0.0000000001
44
0.0000000001
40
0
40
0
40
0
40
0
40
1
40
1
40
1
40
1
41
1
41
1
41
1
41
1
10
7.4915701814484601
20
-66.335110066147806
30
0
10
7.2153455382681697
20
-66.335110066147806
30
0
10
6.9913328015383094
20
-66.559121457140606
30
0
10
6.9913328015383094
20
-66.835347446057966
30
0
0
SPLINE
5
416
100
AcDbEntity
8
0
100
AcDbSpline
70
4
71
3
72
8
73
4
74
0
42
0.000000001
43
0.0000000001
44
0.0000000001
40
0
40
0
40
0
40
0
40
1
40
1
40
1
40
1
41
1
41
1
41
1
41
1
10
6.9913328015383094
20
-66.835347446057966
30
0
10
6.9913328015383094
20
-68.487401175546012
30
0
10
6.9913328015383094
20
-73.760709525445321
30
0
10
6.9913328015383094
20
-75.412763254933367
30
0
0
SPLINE
5
417
100
AcDbEntity
8
0
100
AcDbSpline
70
4
71
3
72
8
73
4
74
0
42
0.000000001
43
0.0000000001
44
0.0000000001
40
0
40
0
40
0
40
0
40
1
40
1
40
1
40
1
41
1
41
1
41
1
41
1
10
6.9913328015383094
20
-75.412763254933367
30
0
10
6.9913328015383094
20
-75.688989243850713
30
0
10
7.2153455382681697
20
-75.912650743207934
30
0
10
7.4915701814484601
20
-75.913000634843513
30
0
0
SPLINE
5
418
100
AcDbEntity
8
0
100
AcDbSpline
70
0
71
2
72
6
73
3
74
0
42
0.000000001
43
0.0000000001
44
0.0000000001
40
0
40
0
40
0
40
1
40
1
40
1
10
7.4915701814484601
20
-75.913000634843513
30
0
10
7.9709937191214966
20
-75.913000634843513
30
0
10
8.6229259447674753
20
-75.913000634843513
30
0
0
LINE
5
419
100
AcDbEntity
8
0
100
AcDbLine
10
8.6229259447674753
20
-75.913000634843513
30
0
11
8.6229259447674753
21
-80.170315185147615
31
0
0
SPLINE
5
420
100
AcDbEntity
8
0
100
AcDbSpline
70
4
71
3
72
8
73
4
74
0
42
0.000000001
43
0.0000000001
44
0.0000000001
40
0
40
0
40
0
40
0
40
1
40
1
40
1
40
1
41
1
41
1
41
1
41
1
10
8.6229259447674753
20
-80.170315185147615
30
0
10
8.6229259447674753
20
-80.444775567042356
30
0
10
8.8487029427828787
20
-80.670552565057761
30
0
10
9.12281074156793
20
-80.670552565057761
30
0
0
LINE
5
421
100
AcDbEntity
8
0
100
AcDbLine
10
9.12281074156793
20
-80.670552565057761
30
0
11
15.122839981349232
21
-80.670552565057761
31
0
0
SPLINE
5
422
100
AcDbEntity
8
0
100
AcDbSpline
70
4
71
3
72
8
73
4
74
0
42
0.000000001
43
0.0000000001
44
0.0000000001
40
0
40
0
40
0
40
0
40
1
40
1
40
1
40
1
41
1
41
1
41
1
41
1
10
15.12283998134923
20
-80.670552565057761
30
0
10
15.397300363243978
20
-80.670552565057761
30
0
10
15.623077361259384
20
-80.444775567042356
30
0
10
15.623077361259384
20
-80.170315185147615
30
0
0
LINE
5
423
100
AcDbEntity
8
0
100
AcDbLine
10
15.62307736125938
20
-80.170315185147615
30
0
11
15.623077361259384
21
-66.170364935273497
31
0
0
SPLINE
5
424
100
AcDbEntity
8
0
100
AcDbSpline
70
4
71
3
72
8
73
4
74
0
42
0.000000001
43
0.0000000001
44
0.0000000001
40
0
40
0
40
0
40
0
40
1
40
1
40
1
40
1
41
1
41
1
41
1
41
1
10
15.623077361259384
20
-66.170364935273497
30
0
10
15.623077361259384
20
-65.896254445014321
30
0
10
15.397300363243978
20
-65.67047744699893
30
0
10
15.12283998134923
20
-65.67047744699893
30
0
0
LINE
5
425
100
AcDbEntity
8
0
100
AcDbLine
10
15.12283998134923
20
-65.67047744699893
30
0
11
9.12281074156793
21
-65.67047744699893
31
0
0
SPLINE
5
426
100
AcDbEntity
8
0
100
AcDbSpline
70
4
71
3
72
8
73
4
74
0
42
0.000000001
43
0.0000000001
44
0.0000000001
40
0
40
0
40
0
40
0
40
1
40
1
40
1
40
1
41
1
41
1
41
1
41
1
10
9.12281074156793
20
-65.67047744699893
30
0
10
8.8487029427828787
20
-65.67047744699893
30
0
10
8.6229259447674753
20
-65.896254445014321
30
0
10
8.6229259447674753
20
-66.170364935273497
30
0
0
LINE
5
427
100
AcDbEntity
8
0
100
AcDbLine
10
8.6229259447674753
20
-66.170364935273497
30
0
11
8.6229259447674753
21
-66.335110066147806
31
0
0
LINE
5
428
100
AcDbEntity
8
0
100
AcDbLine
10
231.08544625141147
20
-78.170420723361971
30
0
11
231.08544625141147
21
-65.170589958724349
31
0
0
SPLINE
5
429
100
AcDbEntity
8
0
100
AcDbSpline
70
4
71
3
72
8
73
4
74
0
42
0.000000001
43
0.0000000001
44
0.0000000001
40
0
40
0
40
0
40
0
40
1
40
1
40
1
40
1
41
1
41
1
41
1
41
1
10
231.08544625141147
20
-65.170589958724335
30
0
10
231.08544625141147
20
-64.896129576829594
30
0
10
230.8596638704478
20
-64.670352578814189
30
0
10
230.58556414608512
20
-64.670352578814189
30
0
0
LINE
5
430
100
AcDbEntity
8
0
100
AcDbLine
10
230.58556414608506
20
-64.670352578814189
30
0
11
217.58537810686366
21
-64.670352578814189
31
0
0
SPLINE
5
431
100
AcDbEntity
8
0
100
AcDbSpline
70
4
71
3
72
8
73
4
74
0
42
0.000000001
43
0.0000000001
44
0.0000000001
40
0
40
0
40
0
40
0
40
1
40
1
40
1
40
1
41
1
41
1
41
1
41
1
10
217.58537810686366
20
-64.670352578814189
30
0
10
217.311278382501
20
-64.670352578814189
30
0
10
217.08549600153734
20
-64.896129576829594
30
0
10
217.08549600153734
20
-65.170589958724335
30
0
0
LINE
5
432
100
AcDbEntity
8
0
100
AcDbLine
10
217.08549600153734
20
-65.170589958724335
30
0
11
217.08549600153734
21
-78.170420723361957
31
0
0
SPLINE
5
433
100
AcDbEntity
8
0
100
AcDbSpline
70
4
71
3
72
8
73
4
74
0
42
0.000000001
43
0.0000000001
44
0.0000000001
40
0
40
0
40
0
40
0
40
1
40
1
40
1
40
1
41
1
41
1
41
1
41
1
10
217.08549600153734
20
-78.170420723361971
30
0
10
217.08549600153734
20
-78.444881105256727
30
0
10
217.311278382501
20
-78.670658103272132
30
0
10
217.58537810686366
20
-78.670658103272132
30
0
0
LINE
5
434
100
AcDbEntity
8
0
100
AcDbLine
10
217.58537810686369
20
-78.670658103272132
30
0
11
230.58556414608512
21
-78.670658103272132
31
0
0
SPLINE
5
435
100
AcDbEntity
8
0
100
AcDbSpline
70
4
71
3
72
8
73
4
74
0
42
0.000000001
43
0.0000000001
44
0.0000000001
40
0
40
0
40
0
40
0
40
1
40
1
40
1
40
1
41
1
41
1
41
1
41
1
10
230.58556414608512
20
-78.670658103272132
30
0
10
230.8596638704478
20
-78.670658103272132
30
0
10
231.08544625141147
20
-78.444881105256727
30
0
10
231.08544625141147
20
-78.170420723361971
30
0
0
LINE
5
436
100
AcDbEntity
8
0
100
AcDbLine
10
97.735779626411443
20
-78.170420723361971
30
0
11
97.735779626411443
21
-65.170589958724349
31
0
0
SPLINE
5
437
100
AcDbEntity
8
0
100
AcDbSpline
70
4
71
3
72
8
73
4
74
0
42
0.000000001
43
0.0000000001
44
0.0000000001
40
0
40
0
40
0
40
0
40
1
40
1
40
1
40
1
41
1
41
1
41
1
41
1
10
97.735779626411443
20
-65.170589958724335
30
0
10
97.735779626411443
20
-64.896129576829594
30
0
10
97.510008011344269
20
-64.670352578814189
30
0
10
97.235897521085107
20
-64.670352578814189
30
0
0
LINE
5
438
100
AcDbEntity
8
0
100
AcDbLine
10
97.235897521085107
20
-64.670352578814189
30
0
11
84.235716864811906
21
-64.670352578814189
31
0
0
SPLINE
5
439
100
AcDbEntity
8
0
100
AcDbSpline
70
4
71
3
72
8
73
4
74
0
42
0.000000001
43
0.0000000001
44
0.0000000001
40
0
40
0
40
0
40
0
40
1
40
1
40
1
40
1
41
1
41
1
41
1
41
1
10
84.235716864811891
20
-64.670352578814189
30
0
10
83.961606374552744
20
-64.670352578814189
30
0
10
83.735829376537339
20
-64.896129576829594
30
0
10
83.735829376537339
20
-65.170589958724335
30
0
0
LINE
5
440
100
AcDbEntity
8
0
100
AcDbLine
10
83.735829376537339
20
-65.170589958724335
30
0
11
83.735829376537339
21
-78.170420723361957
31
0
0
SPLINE
5
441
100
AcDbEntity
8
0
100
AcDbSpline
70
4
71
3
72
8
73
4
74
0
42
0.000000001
43
0.0000000001
44
0.0000000001
40
0
40
0
40
0
40
0
40
1
40
1
40
1
40
1
41
1
41
1
41
1
41
1
10
83.735829376537339
20
-78.170420723361971
30
0
10
83.735829376537339
20
-78.444881105256727
30
0
10
83.961606374552744
20
-78.670658103272132
30
0
10
84.235716864811891
20
-78.670658103272132
30
0
0
LINE
5
442
100
AcDbEntity
8
0
100
AcDbLine
10
84.235716864811891
20
-78.670658103272132
30
0
11
97.235897521085093
21
-78.670658103272132
31
0
0
SPLINE
5
443
100
AcDbEntity
8
0
100
AcDbSpline
70
4
71
3
72
8
73
4
74
0
42
0.000000001
43
0.0000000001
44
0.0000000001
40
0
40
0
40
0
40
0
40
1
40
1
40
1
40
1
41
1
41
1
41
1
41
1
10
97.235897521085107
20
-78.670658103272132
30
0
10
97.510008011344269
20
-78.670658103272132
30
0
10
97.735779626411443
20
-78.444881105256727
30
0
10
97.735779626411443
20
-78.170420723361971
30
0
0
LINE
5
444
100
AcDbEntity
8
0
100
AcDbLine
10
192.98554150141143
20
-78.170420723361971
30
0
11
192.98554150141143
21
-65.170589958724349
31
0
0
SPLINE
5
445
100
AcDbEntity
8
0
100
AcDbSpline
70
4
71
3
72
8
73
4
74
0
42
0.000000001
43
0.0000000001
44
0.0000000001
40
0
40
0
40
0
40
0
40
1
40
1
40
1
40
1
41
1
41
1
41
1
41
1
10
192.98554150141143
20
-65.170589958724335
30
0
10
192.98554150141143
20
-64.896129576829594
30
0
10
192.75975912044782
20
-64.670352578814189
30
0
10
192.48565939608511
20
-64.670352578814189
30
0
0
LINE
5
446
100
AcDbEntity
8
0
100
AcDbLine
10
192.48565939608508
20
-64.670352578814189
30
0
11
179.48547335686368
21
-64.670352578814189
31
0
0
SPLINE
5
447
100
AcDbEntity
8
0
100
AcDbSpline
70
4
71
3
72
8
73
4
74
0
42
0.000000001
43
0.0000000001
44
0.0000000001
40
0
40
0
40
0
40
0
40
1
40
1
40
1
40
1
41
1
41
1
41
1
41
1
10
179.48547335686368
20
-64.670352578814189
30
0
10
179.21137363250099
20
-64.670352578814189
30
0
10
178.98559125153736
20
-64.896129576829594
30
0
10
178.98559125153736
20
-65.170589958724335
30
0
0
LINE
5
448
100
AcDbEntity
8
0
100
AcDbLine
10
178.98559125153736
20
-65.170589958724335
30
0
11
178.98559125153736
21
-78.170420723361957
31
0
0
SPLINE
5
449
100
AcDbEntity
8
0
100
AcDbSpline
70
4
71
3
72
8
73
4
74
0
42
0.000000001
43
0.0000000001
44
0.0000000001
40
0
40
0
40
0
40
0
40
1
40
1
40
1
40
1
41
1
41
1
41
1
41
1
10
178.98559125153736
20
-78.170420723361971
30
0
10
178.98559125153736
20
-78.444881105256727
30
0
10
179.21137363250099
20
-78.670658103272132
30
0
10
179.48547335686368
20
-78.670658103272132
30
0
0
LINE
5
450
100
AcDbEntity
8
0
100
AcDbLine
10
179.48547335686371
20
-78.670658103272132
30
0
11
192.48565939608511
21
-78.670658103272132
31
0
0
SPLINE
5
451
100
AcDbEntity
8
0
100
AcDbSpline
70
4
71
3
72
8
73
4
74
0
42
0.000000001
43
0.0000000001
44
0.0000000001
40
0
40
0
40
0
40
0
40
1
40
1
40
1
40
1
41
1
41
1
41
1
41
1
10
192.48565939608511
20
-78.670658103272132
30
0
10
192.75975912044782
20
-78.670658103272132
30
0
10
192.98554150141143
20
-78.444881105256727
30
0
10
192.98554150141143
20
-78.170420723361971
30
0
0
LINE
5
452
100
AcDbEntity
8
0
100
AcDbLine
10
212.03549387641144
20
-78.170420723361971
30
0
11
212.03549387641144
21
-65.170589958724349
31
0
0
SPLINE
5
453
100
AcDbEntity
8
0
100
AcDbSpline
70
4
71
3
72
8
73
4
74
0
42
0.000000001
43
0.0000000001
44
0.0000000001
40
0
40
0
40
0
40
0
40
1
40
1
40
1
40
1
41
1
41
1
41
1
41
1
10
212.03549387641144
20
-65.170589958724335
30
0
10
212.03549387641144
20
-64.896129576829594
30
0
10
211.8097114954478
20
-64.670352578814189
30
0
10
211.53561177108512
20
-64.670352578814189
30
0
0
LINE
5
454
100
AcDbEntity
8
0
100
AcDbLine
10
211.53561177108509
20
-64.670352578814189
30
0
11
198.53542573186365
21
-64.670352578814189
31
0
0
SPLINE
5
455
100
AcDbEntity
8
0
100
AcDbSpline
70
4
71
3
72
8
73
4
74
0
42
0.000000001
43
0.0000000001
44
0.0000000001
40
0
40
0
40
0
40
0
40
1
40
1
40
1
40
1
41
1
41
1
41
1
41
1
10
198.53542573186365
20
-64.670352578814189
30
0
10
198.261326007501
20
-64.670352578814189
30
0
10
198.03554362653733
20
-64.896129576829594
30
0
10
198.03554362653733
20
-65.170589958724335
30
0
0
LINE
5
456
100
AcDbEntity
8
0
100
AcDbLine
10
198.03554362653733
20
-65.170589958724335
30
0
11
198.03554362653733
21
-78.170420723361957
31
0
0
SPLINE
5
457
100
AcDbEntity
8
0
100
AcDbSpline
70
4
71
3
72
8
73
4
74
0
42
0.000000001
43
0.0000000001
44
0.0000000001
40
0
40
0
40
0
40
0
40
1
40
1
40
1
40
1
41
1
41
1
41
1
41
1
10
198.03554362653733
20
-78.170420723361971
30
0
10
198.03554362653733
20
-78.444881105256727
30
0
10
198.261326007501
20
-78.670658103272132
30
0
10
198.53542573186365
20
-78.670658103272132
30
0
0
LINE
5
458
100
AcDbEntity
8
0
100
AcDbLine
10
198.53542573186371
20
-78.670658103272132
30
0
11
211.53561177108512
21
-78.670658103272132
31
0
0
SPLINE
5
459
100
AcDbEntity
8
0
100
AcDbSpline
70
4
71
3
72
8
73
4
74
0
42
0.000000001
43
0.0000000001
44
0.0000000001
40
0
40
0
40
0
40
0
40
1
40
1
40
1
40
1
41
1
41
1
41
1
41
1
10
211.53561177108512
20
-78.670658103272132
30
0
10
211.8097114954478
20
-78.670658103272132
30
0
10
212.03549387641144
20
-78.444881105256727
30
0
10
212.03549387641144
20
-78.170420723361971
30
0
0
LINE
5
460
100
AcDbEntity
8
0
100
AcDbLine
10
59.635874876411449
20
-78.170420723361971
30
0
11
59.635874876411449
21
-65.170589958724349
31
0
0
SPLINE
5
461
100
AcDbEntity
8
0
100
AcDbSpline
70
4
71
3
72
8
73
4
74
0
42
0.000000001
43
0.0000000001
44
0.0000000001
40
0
40
0
40
0
40
0
40
1
40
1
40
1
40
1
41
1
41
1
41
1
41
1
10
59.635874876411449
20
-65.170589958724335
30
0
10
59.635874876411449
20
-64.896129576829594
30
0
10
59.410097878396037
20
-64.670352578814189
30
0
10
59.135992771085107
20
-64.670352578814189
30
0
0
LINE
5
462
100
AcDbEntity
8
0
100
AcDbLine
10
59.135992771085107
20
-64.670352578814189
30
0
11
46.135812114811898
21
-64.670352578814189
31
0
0
SPLINE
5
463
100
AcDbEntity
8
0
100
AcDbSpline
70
4
71
3
72
8
73
4
74
0
42
0.000000001
43
0.0000000001
44
0.0000000001
40
0
40
0
40
0
40
0
40
1
40
1
40
1
40
1
41
1
41
1
41
1
41
1
10
46.135812114811898
20
-64.670352578814189
30
0
10
45.861701624552722
20
-64.670352578814189
30
0
10
45.635924626537332
20
-64.896129576829594
30
0
10
45.635924626537332
20
-65.170589958724335
30
0
0
LINE
5
464
100
AcDbEntity
8
0
100
AcDbLine
10
45.635924626537332
20
-65.170589958724335
30
0
11
45.635924626537332
21
-78.170420723361957
31
0
0
SPLINE
5
465
100
AcDbEntity
8
0
100
AcDbSpline
70
4
71
3
72
8
73
4
74
0
42
0.000000001
43
0.0000000001
44
0.0000000001
40
0
40
0
40
0
40
0
40
1
40
1
40
1
40
1
41
1
41
1
41
1
41
1
10
45.635924626537332
20
-78.170420723361971
30
0
10
45.635924626537332
20
-78.444881105256727
30
0
10
45.861701624552722
20
-78.670658103272132
30
0
10
46.135812114811898
20
-78.670658103272132
30
0
0
LINE
5
466
100
AcDbEntity
8
0
100
AcDbLine
10
46.135812114811898
20
-78.670658103272132
30
0
11
59.135992771085107
21
-78.670658103272132
31
0
0
SPLINE
5
467
100
AcDbEntity
8
0
100
AcDbSpline
70
4
71
3
72
8
73
4
74
0
42
0.000000001
43
0.0000000001
44
0.0000000001
40
0
40
0
40
0
40
0
40
1
40
1
40
1
40
1
41
1
41
1
41
1
41
1
10
59.135992771085107
20
-78.670658103272132
30
0
10
59.410097878396037
20
-78.670658103272132
30
0
10
59.635874876411449
20
-78.444881105256727
30
0
10
59.635874876411449
20
-78.170420723361971
30
0
0
LINE
5
468
100
AcDbEntity
8
0
100
AcDbLine
10
78.685827251411439
20
-78.170420723361971
30
0
11
78.685827251411439
21
-65.170589958724349
31
0
0
SPLINE
5
469
100
AcDbEntity
8
0
100
AcDbSpline
70
4
71
3
72
8
73
4
74
0
42
0.000000001
43
0.0000000001
44
0.0000000001
40
0
40
0
40
0
40
0
40
1
40
1
40
1
40
1
41
1
41
1
41
1
41
1
10
78.685827251411439
20
-65.170589958724335
30
0
10
78.685827251411439
20
-64.896129576829594
30
0
10
78.460050253396034
20
-64.670352578814189
30
0
10
78.185945146085103
20
-64.670352578814189
30
0
0
LINE
5
470
100
AcDbEntity
8
0
100
AcDbLine
10
78.185945146085103
20
-64.670352578814189
30
0
11
65.185764489811902
21
-64.670352578814189
31
0
0
SPLINE
5
471
100
AcDbEntity
8
0
100
AcDbSpline
70
4
71
3
72
8
73
4
74
0
42
0.000000001
43
0.0000000001
44
0.0000000001
40
0
40
0
40
0
40
0
40
1
40
1
40
1
40
1
41
1
41
1
41
1
41
1
10
65.185764489811902
20
-64.670352578814189
30
0
10
64.911653999552726
20
-64.670352578814189
30
0
10
64.685877001537321
20
-64.896129576829594
30
0
10
64.685877001537321
20
-65.170589958724335
30
0
0
LINE
5
472
100
AcDbEntity
8
0
100
AcDbLine
10
64.685877001537321
20
-65.170589958724335
30
0
11
64.685877001537321
21
-78.170420723361957
31
0
0
SPLINE
5
473
100
AcDbEntity
8
0
100
AcDbSpline
70
4
71
3
72
8
73
4
74
0
42
0.000000001
43
0.0000000001
44
0.0000000001
40
0
40
0
40
0
40
0
40
1
40
1
40
1
40
1
41
1
41
1
41
1
41
1
10
64.685877001537321
20
-78.170420723361971
30
0
10
64.685877001537321
20
-78.444881105256727
30
0
10
64.911653999552726
20
-78.670658103272132
30
0
10
65.185764489811902
20
-78.670658103272132
30
0
0
LINE
5
474
100
AcDbEntity
8
0
100
AcDbLine
10
65.185764489811902
20
-78.670658103272132
30
0
11
78.185945146085103
21
-78.670658103272132
31
0
0
SPLINE
5
475
100
AcDbEntity
8
0
100
AcDbSpline
70
4
71
3
72
8
73
4
74
0
42
0.000000001
43
0.0000000001
44
0.0000000001
40
0
40
0
40
0
40
0
40
1
40
1
40
1
40
1
41
1
41
1
41
1
41
1
10
78.185945146085103
20
-78.670658103272132
30
0
10
78.460050253396034
20
-78.670658103272132
30
0
10
78.685827251411439
20
-78.444881105256727
30
0
10
78.685827251411439
20
-78.170420723361971
30
0
0
LINE
5
476
100
AcDbEntity
8
0
100
AcDbLine
10
116.78573200141145
20
-78.170420723361971
30
0
11
116.78573200141145
21
-65.170589958724349
31
0
0
SPLINE
5
477
100
AcDbEntity
8
0
100
AcDbSpline
70
4
71
3
72
8
73
4
74
0
42
0.000000001
43
0.0000000001
44
0.0000000001
40
0
40
0
40
0
40
0
40
1
40
1
40
1
40
1
41
1
41
1
41
1
41
1
10
116.78573200141145
20
-65.170589958724335
30
0
10
116.78573200141145
20
-64.896129576829594
30
0
10
116.55996038634429
20
-64.670352578814189
30
0
10
116.28584989608511
20
-64.670352578814189
30
0
0
LINE
5
478
100
AcDbEntity
8
0
100
AcDbLine
10
116.28584989608511
20
-64.670352578814189
30
0
11
103.28566385686366
21
-64.670352578814189
31
0
0
SPLINE
5
479
100
AcDbEntity
8
0
100
AcDbSpline
70
4
71
3
72
8
73
4
74
0
42
0.000000001
43
0.0000000001
44
0.0000000001
40
0
40
0
40
0
40
0
40
1
40
1
40
1
40
1
41
1
41
1
41
1
41
1
10
103.28566385686366
20
-64.670352578814189
30
0
10
103.01156413250098
20
-64.670352578814189
30
0
10
102.78578175153733
20
-64.896129576829594
30
0
10
102.78578175153733
20
-65.170589958724335
30
0
0
LINE
5
480
100
AcDbEntity
8
0
100
AcDbLine
10
102.78578175153733
20
-65.170589958724335
30
0
11
102.78578175153733
21
-78.170420723361957
31
0
0
SPLINE
5
481
100
AcDbEntity
8
0
100
AcDbSpline
70
4
71
3
72
8
73
4
74
0
42
0.000000001
43
0.0000000001
44
0.0000000001
40
0
40
0
40
0
40
0
40
1
40
1
40
1
40
1
41
1
41
1
41
1
41
1
10
102.78578175153733
20
-78.170420723361971
30
0
10
102.78578175153733
20
-78.444881105256727
30
0
10
103.01156413250098
20
-78.670658103272132
30
0
10
103.28566385686366
20
-78.670658103272132
30
0
0
LINE
5
482
100
AcDbEntity
8
0
100
AcDbLine
10
103.28566385686366
20
-78.670658103272132
30
0
11
116.28584989608511
21
-78.670658103272132
31
0
0
SPLINE
5
483
100
AcDbEntity
8
0
100
AcDbSpline
70
4
71
3
72
8
73
4
74
0
42
0.000000001
43
0.0000000001
44
0.0000000001
40
0
40
0
40
0
40
0
40
1
40
1
40
1
40
1
41
1
41
1
41
1
41
1
10
116.28584989608511
20
-78.670658103272132
30
0
10
116.55996038634429
20
-78.670658103272132
30
0
10
116.78573200141145
20
-78.444881105256727
30
0
10
116.78573200141145
20
-78.170420723361971
30
0
0
LINE
5
484
100
AcDbEntity
8
0
100
AcDbLine
10
135.83568437641145
20
-78.170420723361971
30
0
11
135.83568437641145
21
-65.170589958724349
31
0
0
SPLINE
5
485
100
AcDbEntity
8
0
100
AcDbSpline
70
4
71
3
72
8
73
4
74
0
42
0.000000001
43
0.0000000001
44
0.0000000001
40
0
40
0
40
0
40
0
40
1
40
1
40
1
40
1
41
1
41
1
41
1
41
1
10
135.83568437641145
20
-65.170589958724335
30
0
10
135.83568437641145
20
-64.896129576829594
30
0
10
135.60991276134428
20
-64.670352578814189
30
0
10
135.33580227108513
20
-64.670352578814189
30
0
0
LINE
5
486
100
AcDbEntity
8
0
100
AcDbLine
10
135.33580227108513
20
-64.670352578814189
30
0
11
122.33561623186368
21
-64.670352578814189
31
0
0
SPLINE
5
487
100
AcDbEntity
8
0
100
AcDbSpline
70
4
71
3
72
8
73
4
74
0
42
0.000000001
43
0.0000000001
44
0.0000000001
40
0
40
0
40
0
40
0
40
1
40
1
40
1
40
1
41
1
41
1
41
1
41
1
10
122.33561623186368
20
-64.670352578814189
30
0
10
122.06151650750098
20
-64.670352578814189
30
0
10
121.83573412653732
20
-64.896129576829594
30
0
10
121.83573412653732
20
-65.170589958724335
30
0
0
LINE
5
488
100
AcDbEntity
8
0
100
AcDbLine
10
121.83573412653732
20
-65.170589958724335
30
0
11
121.83573412653732
21
-78.170420723361957
31
0
0
SPLINE
5
489
100
AcDbEntity
8
0
100
AcDbSpline
70
4
71
3
72
8
73
4
74
0
42
0.000000001
43
0.0000000001
44
0.0000000001
40
0
40
0
40
0
40
0
40
1
40
1
40
1
40
1
41
1
41
1
41
1
41
1
10
121.83573412653732
20
-78.170420723361971
30
0
10
121.83573412653732
20
-78.444881105256727
30
0
10
122.06151650750098
20
-78.670658103272132
30
0
10
122.33561623186368
20
-78.670658103272132
30
0
0
LINE
5
490
100
AcDbEntity
8
0
100
AcDbLine
10
122.33561623186368
20
-78.670658103272132
30
0
11
135.33580227108513
21
-78.670658103272132
31
0
0
SPLINE
5
491
100
AcDbEntity
8
0
100
AcDbSpline
70
4
71
3
72
8
73
4
74
0
42
0.000000001
43
0.0000000001
44
0.0000000001
40
0
40
0
40
0
40
0
40
1
40
1
40
1
40
1
41
1
41
1
41
1
41
1
10
135.33580227108513
20
-78.670658103272132
30
0
10
135.60991276134428
20
-78.670658103272132
30
0
10
135.83568437641145
20
-78.444881105256727
30
0
10
135.83568437641145
20
-78.170420723361971
30
0
0
LINE
5
492
100
AcDbEntity
8
0
100
AcDbLine
10
154.88563675141143
20
-78.170420723361971
30
0
11
154.88563675141143
21
-65.170589958724349
31
0
0
SPLINE
5
493
100
AcDbEntity
8
0
100
AcDbSpline
70
4
71
3
72
8
73
4
74
0
42
0.000000001
43
0.0000000001
44
0.0000000001
40
0
40
0
40
0
40
0
40
1
40
1
40
1
40
1
41
1
41
1
41
1
41
1
10
154.88563675141143
20
-65.170589958724335
30
0
10
154.88563675141143
20
-64.896129576829594
30
0
10
154.65986513634428
20
-64.670352578814189
30
0
10
154.3857546460851
20
-64.670352578814189
30
0
0
LINE
5
494
100
AcDbEntity
8
0
100
AcDbLine
10
154.3857546460851
20
-64.670352578814189
30
0
11
141.38556860686367
21
-64.670352578814189
31
0
0
SPLINE
5
495
100
AcDbEntity
8
0
100
AcDbSpline
70
4
71
3
72
8
73
4
74
0
42
0.000000001
43
0.0000000001
44
0.0000000001
40
0
40
0
40
0
40
0
40
1
40
1
40
1
40
1
41
1
41
1
41
1
41
1
10
141.38556860686367
20
-64.670352578814189
30
0
10
141.11146888250096
20
-64.670352578814189
30
0
10
140.88568650153732
20
-64.896129576829594
30
0
10
140.88568650153732
20
-65.170589958724335
30
0
0
LINE
5
496
100
AcDbEntity
8
0
100
AcDbLine
10
140.88568650153732
20
-65.170589958724335
30
0
11
140.88568650153732
21
-78.170420723361957
31
0
0
SPLINE
5
497
100
AcDbEntity
8
0
100
AcDbSpline
70
4
71
3
72
8
73
4
74
0
42
0.000000001
43
0.0000000001
44
0.0000000001
40
0
40
0
40
0
40
0
40
1
40
1
40
1
40
1
41
1
41
1
41
1
41
1
10
140.88568650153732
20
-78.170420723361971
30
0
10
140.88568650153732
20
-78.444881105256727
30
0
10
141.11146888250096
20
-78.670658103272132
30
0
10
141.38556860686367
20
-78.670658103272132
30
0
0
LINE
5
498
100
AcDbEntity
8
0
100
AcDbLine
10
141.38556860686367
20
-78.670658103272132
30
0
11
154.3857546460851
21
-78.670658103272132
31
0
0
SPLINE
5
499
100
AcDbEntity
8
0
100
AcDbSpline
70
4
71
3
72
8
73
4
74
0
42
0.000000001
43
0.0000000001
44
0.0000000001
40
0
40
0
40
0
40
0
40
1
40
1
40
1
40
1
41
1
41
1
41
1
41
1
10
154.3857546460851
20
-78.670658103272132
30
0
10
154.65986513634428
20
-78.670658103272132
30
0
10
154.88563675141143
20
-78.444881105256727
30
0
10
154.88563675141143
20
-78.170420723361971
30
0
0
LINE
5
500
100
AcDbEntity
8
0
100
AcDbLine
10
173.93558912641143
20
-78.170420723361971
30
0
11
173.93558912641143
21
-65.170589958724349
31
0
0
SPLINE
5
501
100
AcDbEntity
8
0
100
AcDbSpline
70
4
71
3
72
8
73
4
74
0
42
0.000000001
43
0.0000000001
44
0.0000000001
40
0
40
0
40
0
40
0
40
1
40
1
40
1
40
1
41
1
41
1
41
1
41
1
10
173.93558912641143
20
-65.170589958724335
30
0
10
173.93558912641143
20
-64.896129576829594
30
0
10
173.70981751134426
20
-64.670352578814189
30
0
10
173.43570702108511
20
-64.670352578814189
30
0
0
LINE
5
502
100
AcDbEntity
8
0
100
AcDbLine
10
173.43570702108511
20
-64.670352578814189
30
0
11
160.43552098186368
21
-64.670352578814189
31
0
0
SPLINE
5
503
100
AcDbEntity
8
0
100
AcDbSpline
70
4
71
3
72
8
73
4
74
0
42
0.000000001
43
0.0000000001
44
0.0000000001
40
0
40
0
40
0
40
0
40
1
40
1
40
1
40
1
41
1
41
1
41
1
41
1
10
160.43552098186368
20
-64.670352578814189
30
0
10
160.16142125750096
20
-64.670352578814189
30
0
10
159.93563887653733
20
-64.896129576829594
30
0
10
159.93563887653733
20
-65.170589958724335
30
0
0
LINE
5
504
100
AcDbEntity
8
0
100
AcDbLine
10
159.93563887653733
20
-65.170589958724335
30
0
11
159.93563887653733
21
-78.170420723361957
31
0
0
SPLINE
5
505
100
AcDbEntity
8
0
100
AcDbSpline
70
4
71
3
72
8
73
4
74
0
42
0.000000001
43
0.0000000001
44
0.0000000001
40
0
40
0
40
0
40
0
40
1
40
1
40
1
40
1
41
1
41
1
41
1
41
1
10
159.93563887653733
20
-78.170420723361971
30
0
10
159.93563887653733
20
-78.444881105256727
30
0
10
160.16142125750096
20
-78.670658103272132
30
0
10
160.43552098186368
20
-78.670658103272132
30
0
0
LINE
5
506
100
AcDbEntity
8
0
100
AcDbLine
10
160.4355209818637
20
-78.670658103272132
30
0
11
173.43570702108511
21
-78.670658103272132
31
0
0
SPLINE
5
507
100
AcDbEntity
8
0
100
AcDbSpline
70
4
71
3
72
8
73
4
74
0
42
0.000000001
43
0.0000000001
44
0.0000000001
40
0
40
0
40
0
40
0
40
1
40
1
40
1
40
1
41
1
41
1
41
1
41
1
10
173.43570702108511
20
-78.670658103272132
30
0
10
173.70981751134426
20
-78.670658103272132
30
0
10
173.93558912641143
20
-78.444881105256727
30
0
10
173.93558912641143
20
-78.170420723361971
30
0
0
LINE
5
508
100
AcDbEntity
8
0
100
AcDbLine
10
88.210803438911427
20
-59.120468348361975
30
0
11
88.210803438911427
21
-46.120637583724353
31
0
0
SPLINE
5
509
100
AcDbEntity
8
0
100
AcDbSpline
70
4
71
3
72
8
73
4
74
0
42
0.000000001
43
0.0000000001
44
0.0000000001
40
0
40
0
40
0
40
0
40
1
40
1
40
1
40
1
41
1
41
1
41
1
41
1
10
88.210803438911427
20
-46.120637583724353
30
0
10
88.210803438911427
20
-45.846177201829605
30
0
10
87.985026440896036
20
-45.620400203814185
30
0
10
87.710921333585105
20
-45.620400203814185
30
0
0
LINE
5
510
100
AcDbEntity
8
0
100
AcDbLine
10
87.710921333585105
20
-45.620400203814185
30
0
11
74.710740677311904
21
-45.620400203814185
31
0
0
SPLINE
5
511
100
AcDbEntity
8
0
100
AcDbSpline
70
4
71
3
72
8
73
4
74
0
42
0.000000001
43
0.0000000001
44
0.0000000001
40
0
40
0
40
0
40
0
40
1
40
1
40
1
40
1
41
1
41
1
41
1
41
1
10
74.710740677311904
20
-45.620400203814185
30
0
10
74.436630187052742
20
-45.620400203814185
30
0
10
74.210853189037337
20
-45.846177201829605
30
0
10
74.210853189037337
20
-46.120637583724353
30
0
0
LINE
5
512
100
AcDbEntity
8
0
100
AcDbLine
10
74.210853189037337
20
-46.120637583724353
30
0
11
74.210853189037337
21
-59.120468348361975
31
0
0
SPLINE
5
513
100
AcDbEntity
8
0
100
AcDbSpline
70
4
71
3
72
8
73
4
74
0
42
0.000000001
43
0.0000000001
44
0.0000000001
40
0
40
0
40
0
40
0
40
1
40
1
40
1
40
1
41
1
41
1
41
1
41
1
10
74.210853189037337
20
-59.120468348361975
30
0
10
74.210853189037337
20
-59.394928730256723
30
0
10
74.436630187052742
20
-59.620705728272121
30
0
10
74.710740677311904
20
-59.620705728272121
30
0
0
LINE
5
514
100
AcDbEntity
8
0
100
AcDbLine
10
74.710740677311904
20
-59.620705728272121
30
0
11
87.710921333585105
21
-59.620705728272121
31
0
0
SPLINE
5
515
100
AcDbEntity
8
0
100
AcDbSpline
70
4
71
3
72
8
73
4
74
0
42
0.000000001
43
0.0000000001
44
0.0000000001
40
0
40
0
40
0
40
0
40
1
40
1
40
1
40
1
41
1
41
1
41
1
41
1
10
87.710921333585105
20
-59.620705728272121
30
0
10
87.985026440896036
20
-59.620705728272121
30
0
10
88.210803438911427
20
-59.394928730256723
30
0
10
88.210803438911427
20
-59.120468348361975
30
0
0
LINE
5
516
100
AcDbEntity
8
0
100
AcDbLine
10
183.46056531391145
20
-59.120468348361975
30
0
11
183.46056531391145
21
-46.120637583724353
31
0
0
SPLINE
5
517
100
AcDbEntity
8
0
100
AcDbSpline
70
4
71
3
72
8
73
4
74
0
42
0.000000001
43
0.0000000001
44
0.0000000001
40
0
40
0
40
0
40
0
40
1
40
1
40
1
40
1
41
1
41
1
41
1
41
1
10
183.46056531391145
20
-46.120637583724353
30
0
10
183.46056531391145
20
-45.846177201829605
30
0
10
183.23478293294781
20
-45.620400203814185
30
0
10
182.9606832085851
20
-45.620400203814185
30
0
0
LINE
5
518
100
AcDbEntity
8
0
100
AcDbLine
10
182.96068320858507
20
-45.620400203814185
30
0
11
169.96049716936366
21
-45.620400203814185
31
0
0
SPLINE
5
519
100
AcDbEntity
8
0
100
AcDbSpline
70
4
71
3
72
8
73
4
74
0
42
0.000000001
43
0.0000000001
44
0.0000000001
40
0
40
0
40
0
40
0
40
1
40
1
40
1
40
1
41
1
41
1
41
1
41
1
10
169.96049716936366
20
-45.620400203814185
30
0
10
169.68639744500098
20
-45.620400203814185
30
0
10
169.46061506403734
20
-45.846177201829605
30
0
10
169.46061506403734
20
-46.120637583724353
30
0
0
LINE
5
520
100
AcDbEntity
8
0
100
AcDbLine
10
169.46061506403734
20
-46.120637583724353
30
0
11
169.46061506403734
21
-59.120468348361975
31
0
0
SPLINE
5
521
100
AcDbEntity
8
0
100
AcDbSpline
70
4
71
3
72
8
73
4
74
0
42
0.000000001
43
0.0000000001
44
0.0000000001
40
0
40
0
40
0
40
0
40
1
40
1
40
1
40
1
41
1
41
1
41
1
41
1
10
169.46061506403734
20
-59.120468348361975
30
0
10
169.46061506403734
20
-59.394928730256723
30
0
10
169.68639744500098
20
-59.620705728272121
30
0
10
169.96049716936366
20
-59.620705728272121
30
0
0
LINE
5
522
100
AcDbEntity
8
0
100
AcDbLine
10
169.96049716936369
20
-59.620705728272121
30
0
11
182.9606832085851
21
-59.620705728272121
31
0
0
SPLINE
5
523
100
AcDbEntity
8
0
100
AcDbSpline
70
4
71
3
72
8
73
4
74
0
42
0.000000001
43
0.0000000001
44
0.0000000001
40
0
40
0
40
0
40
0
40
1
40
1
40
1
40
1
41
1
41
1
41
1
41
1
10
182.9606832085851
20
-59.620705728272121
30
0
10
183.23478293294781
20
-59.620705728272121
30
0
10
183.46056531391145
20
-59.394928730256723
30
0
10
183.46056531391145
20
-59.120468348361975
30
0
0
LINE
5
524
100
AcDbEntity
8
0
100
AcDbLine
10
221.56047006391145
20
-59.120468348361975
30
0
11
221.56047006391145
21
-46.120637583724353
31
0
0
SPLINE
5
525
100
AcDbEntity
8
0
100
AcDbSpline
70
4
71
3
72
8
73
4
74
0
42
0.000000001
43
0.0000000001
44
0.0000000001
40
0
40
0
40
0
40
0
40
1
40
1
40
1
40
1
41
1
41
1
41
1
41
1
10
221.56047006391145
20
-46.120637583724353
30
0
10
221.56047006391145
20
-45.846177201829605
30
0
10
221.33468768294784
20
-45.620400203814185
30
0
10
221.06058795858513
20
-45.620400203814185
30
0
0
LINE
5
526
100
AcDbEntity
8
0
100
AcDbLine
10
221.06058795858507
20
-45.620400203814185
30
0
11
208.0604019193637
21
-45.620400203814185
31
0
0
SPLINE
5
527
100
AcDbEntity
8
0
100
AcDbSpline
70
4
71
3
72
8
73
4
74
0
42
0.000000001
43
0.0000000001
44
0.0000000001
40
0
40
0
40
0
40
0
40
1
40
1
40
1
40
1
41
1
41
1
41
1
41
1
10
208.0604019193637
20
-45.620400203814185
30
0
10
207.78630219500099
20
-45.620400203814185
30
0
10
207.56051981403732
20
-45.846177201829605
30
0
10
207.56051981403732
20
-46.120637583724353
30
0
0
LINE
5
528
100
AcDbEntity
8
0
100
AcDbLine
10
207.56051981403732
20
-46.120637583724353
30
0
11
207.56051981403732
21
-59.120468348361975
31
0
0
SPLINE
5
529
100
AcDbEntity
8
0
100
AcDbSpline
70
4
71
3
72
8
73
4
74
0
42
0.000000001
43
0.0000000001
44
0.0000000001
40
0
40
0
40
0
40
0
40
1
40
1
40
1
40
1
41
1
41
1
41
1
41
1
10
207.56051981403732
20
-59.120468348361975
30
0
10
207.56051981403732
20
-59.394928730256723
30
0
10
207.78630219500099
20
-59.620705728272121
30
0
10
208.0604019193637
20
-59.620705728272121
30
0
0
LINE
5
530
100
AcDbEntity
8
0
100
AcDbLine
10
208.06040191936373
20
-59.620705728272121
30
0
11
221.06058795858513
21
-59.620705728272121
31
0
0
SPLINE
5
531
100
AcDbEntity
8
0
100
AcDbSpline
70
4
71
3
72
8
73
4
74
0
42
0.000000001
43
0.0000000001
44
0.0000000001
40
0
40
0
40
0
40
0
40
1
40
1
40
1
40
1
41
1
41
1
41
1
41
1
10
221.06058795858513
20
-59.620705728272121
30
0
10
221.33468768294784
20
-59.620705728272121
30
0
10
221.56047006391145
20
-59.394928730256723
30
0
10
221.56047006391145
20
-59.120468348361975
30
0
0
LINE
5
532
100
AcDbEntity
8
0
100
AcDbLine
10
202.51051768891145
20
-59.120468348361975
30
0
11
202.51051768891145
21
-46.120637583724353
31
0
0
SPLINE
5
533
100
AcDbEntity
8
0
100
AcDbSpline
70
4
71
3
72
8
73
4
74
0
42
0.000000001
43
0.0000000001
44
0.0000000001
40
0
40
0
40
0
40
0
40
1
40
1
40
1
40
1
41
1
41
1
41
1
41
1
10
202.51051768891145
20
-46.120637583724353
30
0
10
202.51051768891145
20
-45.846177201829605
30
0
10
202.28473530794784
20
-45.620400203814185
30
0
10
202.0106355835851
20
-45.620400203814185
30
0
0
LINE
5
534
100
AcDbEntity
8
0
100
AcDbLine
10
202.01063558358504
20
-45.620400203814185
30
0
11
189.01044954436367
21
-45.620400203814185
31
0
0
SPLINE
5
535
100
AcDbEntity
8
0
100
AcDbSpline
70
4
71
3
72
8
73
4
74
0
42
0.000000001
43
0.0000000001
44
0.0000000001
40
0
40
0
40
0
40
0
40
1
40
1
40
1
40
1
41
1
41
1
41
1
41
1
10
189.01044954436367
20
-45.620400203814185
30
0
10
188.73634982000098
20
-45.620400203814185
30
0
10
188.51056743903735
20
-45.846177201829605
30
0
10
188.51056743903735
20
-46.120637583724353
30
0
0
LINE
5
536
100
AcDbEntity
8
0
100
AcDbLine
10
188.51056743903735
20
-46.120637583724353
30
0
11
188.51056743903735
21
-59.120468348361975
31
0
0
SPLINE
5
537
100
AcDbEntity
8
0
100
AcDbSpline
70
4
71
3
72
8
73
4
74
0
42
0.000000001
43
0.0000000001
44
0.0000000001
40
0
40
0
40
0
40
0
40
1
40
1
40
1
40
1
41
1
41
1
41
1
41
1
10
188.51056743903735
20
-59.120468348361975
30
0
10
188.51056743903735
20
-59.394928730256723
30
0
10
188.73634982000098
20
-59.620705728272121
30
0
10
189.01044954436367
20
-59.620705728272121
30
0
0
LINE
5
538
100
AcDbEntity
8
0
100
AcDbLine
10
189.01044954436369
20
-59.620705728272121
30
0
11
202.0106355835851
21
-59.620705728272121
31
0
0
SPLINE
5
539
100
AcDbEntity
8
0
100
AcDbSpline
70
4
71
3
72
8
73
4
74
0
42
0.000000001
43
0.0000000001
44
0.0000000001
40
0
40
0
40
0
40
0
40
1
40
1
40
1
40
1
41
1
41
1
41
1
41
1
10
202.0106355835851
20
-59.620705728272121
30
0
10
202.28473530794784
20
-59.620705728272121
30
0
10
202.51051768891145
20
-59.394928730256723
30
0
10
202.51051768891145
20
-59.120468348361975
30
0
0
LINE
5
540
100
AcDbEntity
8
0
100
AcDbLine
10
36.610833235837774
20
-59.620705728272121
30
0
11
49.611016583585112
21
-59.620705728272121
31
0
0
SPLINE
5
541
100
AcDbEntity
8
0
100
AcDbSpline
70
4
71
3
72
8
73
4
74
0
42
0.000000001
43
0.0000000001
44
0.0000000001
40
0
40
0
40
0
40
0
40
1
40
1
40
1
40
1
41
1
41
1
41
1
41
1
10
49.611016583585112
20
-59.620705728272121
30
0
10
49.885121690896035
20
-59.620705728272121
30
0
10
50.110898688911441
20
-59.394928730256723
30
0
10
50.110898688911441
20
-59.120468348361975
30
0
0
LINE
5
542
100
AcDbEntity
8
0
100
AcDbLine
10
50.110898688911441
20
-59.120468348361975
30
0
11
50.110898688911441
21
-46.120637583724353
31
0
0
SPLINE
5
543
100
AcDbEntity
8
0
100
AcDbSpline
70
4
71
3
72
8
73
4
74
0
42
0.000000001
43
0.0000000001
44
0.0000000001
40
0
40
0
40
0
40
0
40
1
40
1
40
1
40
1
41
1
41
1
41
1
41
1
10
50.110898688911441
20
-46.120637583724353
30
0
10
50.110898688911441
20
-45.846177201829605
30
0
10
49.885121690896035
20
-45.620400203814185
30
0
10
49.611016583585112
20
-45.620400203814185
30
0
0
LINE
5
544
100
AcDbEntity
8
0
100
AcDbLine
10
49.611016583585112
20
-45.620400203814185
30
0
11
36.610833235837781
21
-45.620400203814185
31
0
0
SPLINE
5
545
100
AcDbEntity
8
0
100
AcDbSpline
70
4
71
3
72
8
73
4
74
0
42
0.000000001
43
0.0000000001
44
0.0000000001
40
0
40
0
40
0
40
0
40
1
40
1
40
1
40
1
41
1
41
1
41
1
41
1
10
36.610833235837774
20
-45.620400203814185
30
0
10
36.336725437052735
20
-45.620400203814185
30
0
10
36.11094843903733
20
-45.846177201829605
30
0
10
36.11094843903733
20
-46.120637583724353
30
0
0
LINE
5
546
100
AcDbEntity
8
0
100
AcDbLine
10
36.11094843903733
20
-46.120637583724353
30
0
11
36.11094843903733
21
-59.120468348361975
31
0
0
SPLINE
5
547
100
AcDbEntity
8
0
100
AcDbSpline
70
4
71
3
72
8
73
4
74
0
42
0.000000001
43
0.0000000001
44
0.0000000001
40
0
40
0
40
0
40
0
40
1
40
1
40
1
40
1
41
1
41
1
41
1
41
1
10
36.11094843903733
20
-59.120468348361975
30
0
10
36.11094843903733
20
-59.394928730256723
30
0
10
36.336725437052735
20
-59.620705728272121
30
0
10
36.610833235837774
20
-59.620705728272121
30
0
0
LINE
5
548
100
AcDbEntity
8
0
100
AcDbLine
10
242.99166648578645
20
-45.620400203814185
30
0
11
242.99166648578645
21
-40.570753353272124
31
0
0
LINE
5
549
100
AcDbEntity
8
0
100
AcDbLine
10
242.99166648578645
20
-40.570753353272124
30
0
11
244.87302842733513
21
-40.570753353272124
31
0
0
SPLINE
5
550
100
AcDbEntity
8
0
100
AcDbSpline
70
4
71
3
72
8
73
4
74
0
42
0.000000001
43
0.0000000001
44
0.0000000001
40
0
40
0
40
0
40
0
40
1
40
1
40
1
40
1
41
1
41
1
41
1
41
1
10
244.87302842733513
20
-40.570753353272124
30
0
10
245.14712815169784
20
-40.570753353272124
30
0
10
245.37291053266145
20
-40.344976355256719
30
0
10
245.37291053266145
20
-40.070515973361971
30
0
0
LINE
5
551
100
AcDbEntity
8
0
100
AcDbLine
10
245.37291053266145
20
-40.070515973361971
30
0
11
245.37291053266145
21
-27.070687900198461
31
0
0
SPLINE
5
552
100
AcDbEntity
8
0
100
AcDbSpline
70
4
71
3
72
8
73
4
74
0
42
0.000000001
43
0.0000000001
44
0.0000000001
40
0
40
0
40
0
40
0
40
1
40
1
40
1
40
1
41
1
41
1
41
1
41
1
10
245.37291053266145
20
-27.070687900198461
30
0
10
245.37291053266145
20
-26.796227518303716
30
0
10
245.14712815169784
20
-26.570450520288308
30
0
10
244.87302842733513
20
-26.570450520288308
30
0
0
LINE
5
553
100
AcDbEntity
8
0
100
AcDbLine
10
244.8730284273351
20
-26.570450520288308
30
0
11
231.8728423881137
21
-26.570450520288308
31
0
0
SPLINE
5
554
100
AcDbEntity
8
0
100
AcDbSpline
70
4
71
3
72
8
73
4
74
0
42
0.000000001
43
0.0000000001
44
0.0000000001
40
0
40
0
40
0
40
0
40
1
40
1
40
1
40
1
41
1
41
1
41
1
41
1
10
231.8728423881137
20
-26.570450520288308
30
0
10
231.59874266375098
20
-26.570450520288308
30
0
10
231.37296028278735
20
-26.796227518303716
30
0
10
231.37296028278735
20
-27.070687900198461
30
0
0
LINE
5
555
100
AcDbEntity
8
0
100
AcDbLine
10
231.37296028278735
20
-27.070687900198465
30
0
11
231.37296028278735
21
-27.657709171628163
31
0
0
LINE
5
556
100
AcDbEntity
8
0
100
AcDbLine
10
231.37296028278735
20
-27.657709171628163
30
0
11
230.49172859237163
21
-27.657709171628163
31
0
0
SPLINE
5
557
100
AcDbEntity
8
0
100
AcDbSpline
70
4
71
3
72
8
73
4
74
0
42
0.000000001
43
0.0000000001
44
0.0000000001
40
0
40
0
40
0
40
0
40
1
40
1
40
1
40
1
41
1
41
1
41
1
41
1
10
230.49172859237163
20
-27.657709171628163
30
0
10
230.21726282752866
20
-27.657709171628163
30
0
10
229.99184648704531
20
-27.883486169643561
30
0
10
229.99184648704531
20
-28.157593968428611
30
0
0
LINE
5
558
100
AcDbEntity
8
0
100
AcDbLine
10
229.99184648704531
20
-28.157593968428614
30
0
11
229.99184648704531
21
-34.157621862472858
31
0
0
SPLINE
5
559
100
AcDbEntity
8
0
100
AcDbSpline
70
4
71
3
72
8
73
4
74
0
42
0.000000001
43
0.0000000001
44
0.0000000001
40
0
40
0
40
0
40
0
40
1
40
1
40
1
40
1
41
1
41
1
41
1
41
1
10
229.99184648704531
20
-34.157621862472858
30
0
10
229.99184648704531
20
-34.431729661257904
30
0
10
230.21726282752866
20
-34.657506659273309
30
0
10
230.49172859237163
20
-34.657506659273309
30
0
0
LINE
5
560
100
AcDbEntity
8
0
100
AcDbLine
10
230.49172859237163
20
-34.657506659273309
30
0
11
231.37296028278735
21
-34.657506659273309
31
0
0
LINE
5
561
100
AcDbEntity
8
0
100
AcDbLine
10
231.37296028278735
20
-34.657506659273309
30
0
11
231.37296028278735
21
-36.095426707788313
31
0
0
LINE
5
562
100
AcDbEntity
8
0
100
AcDbLine
10
231.37296028278735
20
-36.095426707788313
30
0
11
229.49159834123864
21
-36.095426707788313
31
0
0
SPLINE
5
563
100
AcDbEntity
8
0
100
AcDbSpline
70
4
71
3
72
8
73
4
74
0
42
0.000000001
43
0.0000000001
44
0.0000000001
40
0
40
0
40
0
40
0
40
1
40
1
40
1
40
1
41
1
41
1
41
1
41
1
10
229.49159834123867
20
-36.095426707788313
30
0
10
229.21749861687599
20
-36.095426707788313
30
0
10
228.99171623591232
20
-36.321203705803711
30
0
10
228.99171623591232
20
-36.595664087698466
30
0
0
LINE
5
564
100
AcDbEntity
8
0
100
AcDbLine
10
228.99171623591232
20
-36.595664087698466
30
0
11
228.99171623591232
21
-49.595492160861966
31
0
0
SPLINE
5
565
100
AcDbEntity
8
0
100
AcDbSpline
70
4
71
3
72
8
73
4
74
0
42
0.000000001
43
0.0000000001
44
0.0000000001
40
0
40
0
40
0
40
0
40
1
40
1
40
1
40
1
41
1
41
1
41
1
41
1
10
228.99171623591232
20
-49.595492160861966
30
0
10
228.99171623591232
20
-49.869952542756721
30
0
10
229.21749861687599
20
-50.095729540772133
30
0
10
229.49159834123867
20
-50.095729540772133
30
0
0
LINE
5
566
100
AcDbEntity
8
0
100
AcDbLine
10
229.49159834123873
20
-50.095729540772133
30
0
11
230.07861961266838
21
-50.095729540772133
31
0
0
LINE
5
567
100
AcDbEntity
8
0
100
AcDbLine
10
230.07861961266838
20
-50.095729540772133
30
0
11
230.07861961266838
21
-51.753074708379749
31
0
0
SPLINE
5
568
100
AcDbEntity
8
0
100
AcDbSpline
70
4
71
3
72
8
73
4
74
0
42
0.000000001
43
0.0000000001
44
0.0000000001
40
0
40
0
40
0
40
0
40
1
40
1
40
1
40
1
41
1
41
1
41
1
41
1
10
230.07861961266838
20
-51.753074708379749
30
0
10
230.02395039034653
20
-51.833506720976516
30
0
10
229.99184648704531
20
-51.930168322515804
30
0
10
229.99184648704531
20
-52.033531694613458
30
0
0
LINE
5
569
100
AcDbEntity
8
0
100
AcDbLine
10
229.99184648704531
20
-52.033531694613458
30
0
11
229.99184648704531
21
-58.033564971605941
31
0
0
SPLINE
5
570
100
AcDbEntity
8
0
100
AcDbSpline
70
4
71
3
72
8
73
4
74
0
42
0.000000001
43
0.0000000001
44
0.0000000001
40
0
40
0
40
0
40
0
40
1
40
1
40
1
40
1
41
1
41
1
41
1
41
1
10
229.99184648704531
20
-58.033564971605934
30
0
10
229.99184648704531
20
-58.192663389776868
30
0
10
230.06768146184541
20
-58.335537601953504
30
0
10
230.18481441554007
20
-58.427263039957047
30
0
0
SPLINE
5
571
100
AcDbEntity
8
0
100
AcDbSpline
70
4
71
3
72
8
73
4
74
0
42
0.000000001
43
0.0000000001
44
0.0000000001
40
0
40
0
40
0
40
0
40
1
40
1
40
1
40
1
41
1
41
1
41
1
41
1
10
230.18481441554007
20
-58.427263039957047
30
0
10
230.27688436223093
20
-58.544735119390808
30
0
10
230.41940329982378
20
-58.620586243035639
30
0
10
230.5785017179947
20
-58.620586243035639
30
0
0
LINE
5
572
100
AcDbEntity
8
0
100
AcDbLine
10
230.5785017179947
20
-58.620586243035639
30
0
11
231.37296028278735
21
-58.620586243035639
31
0
0
LINE
5
573
100
AcDbEntity
8
0
100
AcDbLine
10
231.37296028278735
20
-58.620586243035639
30
0
11
231.37296028278735
21
-59.120468348361968
31
0
0
SPLINE
5
574
100
AcDbEntity
8
0
100
AcDbSpline
70
4
71
3
72
8
73
4
74
0
42
0.000000001
43
0.0000000001
44
0.0000000001
40
0
40
0
40
0
40
0
40
1
40
1
40
1
40
1
41
1
41
1
41
1
41
1
10
231.37296028278735
20
-59.120468348361975
30
0
10
231.37296028278735
20
-59.394928730256723
30
0
10
231.59874266375098
20
-59.620705728272121
30
0
10
231.8728423881137
20
-59.620705728272121
30
0
0
LINE
5
575
100
AcDbEntity
8
0
100
AcDbLine
10
231.87284238811372
20
-59.620705728272121
30
0
11
252.01676056796015
21
-59.620705728272121
31
0
0
SPLINE
5
576
100
AcDbEntity
8
0
100
AcDbSpline
70
4
71
3
72
8
73
4
74
0
42
0.000000001
43
0.0000000001
44
0.0000000001
40
0
40
0
40
0
40
0
40
1
40
1
40
1
40
1
41
1
41
1
41
1
41
1
10
252.01676056796009
20
-59.620705728272121
30
0
10
252.2908602923228
20
-59.620705728272121
30
0
10
252.51664267328647
20
-59.394928730256723
30
0
10
252.51664267328647
20
-59.120468348361975
30
0
0
LINE
5
577
100
AcDbEntity
8
0
100
AcDbLine
10
252.51664267328647
20
-59.120468348361975
30
0
11
252.51664267328647
21
-46.120637583724353
31
0
0
SPLINE
5
578
100
AcDbEntity
8
0
100
AcDbSpline
70
4
71
3
72
8
73
4
74
0
42
0.000000001
43
0.0000000001
44
0.0000000001
40
0
40
0
40
0
40
0
40
1
40
1
40
1
40
1
41
1
41
1
41
1
41
1
10
252.51664267328647
20
-46.120637583724353
30
0
10
252.51664267328647
20
-45.846177201829605
30
0
10
252.2908602923228
20
-45.620400203814185
30
0
10
252.01676056796009
20
-45.620400203814185
30
0
0
LINE
5
579
100
AcDbEntity
8
0
100
AcDbLine
10
252.01676056796006
20
-45.620400203814185
30
0
11
242.99166648578645
21
-45.620400203814185
31
0
0
LINE
5
580
100
AcDbEntity
8
0
100
AcDbLine
10
126.31070818891145
20
-59.120468348361975
30
0
11
126.31070818891145
21
-46.120637583724353
31
0
0
SPLINE
5
581
100
AcDbEntity
8
0
100
AcDbSpline
70
4
71
3
72
8
73
4
74
0
42
0.000000001
43
0.0000000001
44
0.0000000001
40
0
40
0
40
0
40
0
40
1
40
1
40
1
40
1
41
1
41
1
41
1
41
1
10
126.31070818891145
20
-46.120637583724353
30
0
10
126.31070818891145
20
-45.846177201829605
30
0
10
126.08493657384429
20
-45.620400203814185
30
0
10
125.81082608358511
20
-45.620400203814185
30
0
0
LINE
5
582
100
AcDbEntity
8
0
100
AcDbLine
10
125.81082608358511
20
-45.620400203814185
30
0
11
112.81064004436367
21
-45.620400203814185
31
0
0
SPLINE
5
583
100
AcDbEntity
8
0
100
AcDbSpline
70
4
71
3
72
8
73
4
74
0
42
0.000000001
43
0.0000000001
44
0.0000000001
40
0
40
0
40
0
40
0
40
1
40
1
40
1
40
1
41
1
41
1
41
1
41
1
10
112.81064004436367
20
-45.620400203814185
30
0
10
112.53654032000098
20
-45.620400203814185
30
0
10
112.31075793903734
20
-45.846177201829605
30
0
10
112.31075793903734
20
-46.120637583724353
30
0
0
LINE
5
584
100
AcDbEntity
8
0
100
AcDbLine
10
112.31075793903734
20
-46.120637583724353
30
0
11
112.31075793903734
21
-59.120468348361975
31
0
0
SPLINE
5
585
100
AcDbEntity
8
0
100
AcDbSpline
70
4
71
3
72
8
73
4
74
0
42
0.000000001
43
0.0000000001
44
0.0000000001
40
0
40
0
40
0
40
0
40
1
40
1
40
1
40
1
41
1
41
1
41
1
41
1
10
112.31075793903734
20
-59.120468348361975
30
0
10
112.31075793903734
20
-59.394928730256723
30
0
10
112.53654032000098
20
-59.620705728272121
30
0
10
112.81064004436367
20
-59.620705728272121
30
0
0
LINE
5
586
100
AcDbEntity
8
0
100
AcDbLine
10
112.81064004436367
20
-59.620705728272121
30
0
11
125.81082608358511
21
-59.620705728272121
31
0
0
SPLINE
5
587
100
AcDbEntity
8
0
100
AcDbSpline
70
4
71
3
72
8
73
4
74
0
42
0.000000001
43
0.0000000001
44
0.0000000001
40
0
40
0
40
0
40
0
40
1
40
1
40
1
40
1
41
1
41
1
41
1
41
1
10
125.81082608358511
20
-59.620705728272121
30
0
10
126.08493657384429
20
-59.620705728272121
30
0
10
126.31070818891145
20
-59.394928730256723
30
0
10
126.31070818891145
20
-59.120468348361975
30
0
0
LINE
5
588
100
AcDbEntity
8
0
100
AcDbLine
10
164.41061293891141
20
-59.120468348361975
30
0
11
164.41061293891141
21
-46.120637583724353
31
0
0
SPLINE
5
589
100
AcDbEntity
8
0
100
AcDbSpline
70
4
71
3
72
8
73
4
74
0
42
0.000000001
43
0.0000000001
44
0.0000000001
40
0
40
0
40
0
40
0
40
1
40
1
40
1
40
1
41
1
41
1
41
1
41
1
10
164.41061293891141
20
-46.120637583724353
30
0
10
164.41061293891141
20
-45.846177201829605
30
0
10
164.1848413238443
20
-45.620400203814185
30
0
10
163.91073083358509
20
-45.620400203814185
30
0
0
LINE
5
590
100
AcDbEntity
8
0
100
AcDbLine
10
163.91073083358509
20
-45.620400203814185
30
0
11
150.91054479436366
21
-45.620400203814185
31
0
0
SPLINE
5
591
100
AcDbEntity
8
0
100
AcDbSpline
70
4
71
3
72
8
73
4
74
0
42
0.000000001
43
0.0000000001
44
0.0000000001
40
0
40
0
40
0
40
0
40
1
40
1
40
1
40
1
41
1
41
1
41
1
41
1
10
150.91054479436366
20
-45.620400203814185
30
0
10
150.636445070001
20
-45.620400203814185
30
0
10
150.41066268903731
20
-45.846177201829605
30
0
10
150.41066268903731
20
-46.120637583724353
30
0
0
LINE
5
592
100
AcDbEntity
8
0
100
AcDbLine
10
150.41066268903731
20
-46.120637583724353
30
0
11
150.41066268903731
21
-59.120468348361975
31
0
0
SPLINE
5
593
100
AcDbEntity
8
0
100
AcDbSpline
70
4
71
3
72
8
73
4
74
0
42
0.000000001
43
0.0000000001
44
0.0000000001
40
0
40
0
40
0
40
0
40
1
40
1
40
1
40
1
41
1
41
1
41
1
41
1
10
150.41066268903731
20
-59.120468348361975
30
0
10
150.41066268903731
20
-59.394928730256723
30
0
10
150.636445070001
20
-59.620705728272121
30
0
10
150.91054479436366
20
-59.620705728272121
30
0
0
LINE
5
594
100
AcDbEntity
8
0
100
AcDbLine
10
150.91054479436366
20
-59.620705728272121
30
0
11
163.91073083358509
21
-59.620705728272121
31
0
0
SPLINE
5
595
100
AcDbEntity
8
0
100
AcDbSpline
70
4
71
3
72
8
73
4
74
0
42
0.000000001
43
0.0000000001
44
0.0000000001
40
0
40
0
40
0
40
0
40
1
40
1
40
1
40
1
41
1
41
1
41
1
41
1
10
163.91073083358509
20
-59.620705728272121
30
0
10
164.1848413238443
20
-59.620705728272121
30
0
10
164.41061293891141
20
-59.394928730256723
30
0
10
164.41061293891141
20
-59.120468348361975
30
0
0
LINE
5
596
100
AcDbEntity
8
0
100
AcDbLine
10
145.36066056391144
20
-59.120468348361975
30
0
11
145.36066056391144
21
-46.120637583724353
31
0
0
SPLINE
5
597
100
AcDbEntity
8
0
100
AcDbSpline
70
4
71
3
72
8
73
4
74
0
42
0.000000001
43
0.0000000001
44
0.0000000001
40
0
40
0
40
0
40
0
40
1
40
1
40
1
40
1
41
1
41
1
41
1
41
1
10
145.36066056391144
20
-46.120637583724353
30
0
10
145.36066056391144
20
-45.846177201829605
30
0
10
145.13488894884426
20
-45.620400203814185
30
0
10
144.86077845858512
20
-45.620400203814185
30
0
0
LINE
5
598
100
AcDbEntity
8
0
100
AcDbLine
10
144.86077845858512
20
-45.620400203814185
30
0
11
131.86059241936366
21
-45.620400203814185
31
0
0
SPLINE
5
599
100
AcDbEntity
8
0
100
AcDbSpline
70
4
71
3
72
8
73
4
74
0
42
0.000000001
43
0.0000000001
44
0.0000000001
40
0
40
0
40
0
40
0
40
1
40
1
40
1
40
1
41
1
41
1
41
1
41
1
10
131.86059241936366
20
-45.620400203814185
30
0
10
131.58649269500097
20
-45.620400203814185
30
0
10
131.36071031403733
20
-45.846177201829605
30
0
10
131.36071031403733
20
-46.120637583724353
30
0
0
LINE
5
600
100
AcDbEntity
8
0
100
AcDbLine
10
131.36071031403733
20
-46.120637583724353
30
0
11
131.36071031403733
21
-59.120468348361975
31
0
0
SPLINE
5
601
100
AcDbEntity
8
0
100
AcDbSpline
70
4
71
3
72
8
73
4
74
0
42
0.000000001
43
0.0000000001
44
0.0000000001
40
0
40
0
40
0
40
0
40
1
40
1
40
1
40
1
41
1
41
1
41
1
41
1
10
131.36071031403733
20
-59.120468348361975
30
0
10
131.36071031403733
20
-59.394928730256723
30
0
10
131.58649269500097
20
-59.620705728272121
30
0
10
131.86059241936366
20
-59.620705728272121
30
0
0
LINE
5
602
100
AcDbEntity
8
0
100
AcDbLine
10
131.86059241936366
20
-59.620705728272121
30
0
11
144.86077845858512
21
-59.620705728272121
31
0
0
SPLINE
5
603
100
AcDbEntity
8
0
100
AcDbSpline
70
4
71
3
72
8
73
4
74
0
42
0.000000001
43
0.0000000001
44
0.0000000001
40
0
40
0
40
0
40
0
40
1
40
1
40
1
40
1
41
1
41
1
41
1
41
1
10
144.86077845858512
20
-59.620705728272121
30
0
10
145.13488894884426
20
-59.620705728272121
30
0
10
145.36066056391144
20
-59.394928730256723
30
0
10
145.36066056391144
20
-59.120468348361975
30
0
0
LINE
5
604
100
AcDbEntity
8
0
100
AcDbLine
10
69.160851063911437
20
-59.120468348361975
30
0
11
69.160851063911437
21
-46.120637583724353
31
0
0
SPLINE
5
605
100
AcDbEntity
8
0
100
AcDbSpline
70
4
71
3
72
8
73
4
74
0
42
0.000000001
43
0.0000000001
44
0.0000000001
40
0
40
0
40
0
40
0
40
1
40
1
40
1
40
1
41
1
41
1
41
1
41
1
10
69.160851063911437
20
-46.120637583724353
30
0
10
69.160851063911437
20
-45.846177201829605
30
0
10
68.935074065896032
20
-45.620400203814185
30
0
10
68.660968958585102
20
-45.620400203814185
30
0
0
LINE
5
606
100
AcDbEntity
8
0
100
AcDbLine
10
68.660968958585102
20
-45.620400203814185
30
0
11
55.660788302311907
21
-45.620400203814185
31
0
0
SPLINE
5
607
100
AcDbEntity
8
0
100
AcDbSpline
70
4
71
3
72
8
73
4
74
0
42
0.000000001
43
0.0000000001
44
0.0000000001
40
0
40
0
40
0
40
0
40
1
40
1
40
1
40
1
41
1
41
1
41
1
41
1
10
55.660788302311907
20
-45.620400203814185
30
0
10
55.386677812052731
20
-45.620400203814185
30
0
10
55.160900814037326
20
-45.846177201829605
30
0
10
55.160900814037326
20
-46.120637583724353
30
0
0
LINE
5
608
100
AcDbEntity
8
0
100
AcDbLine
10
55.160900814037326
20
-46.120637583724353
30
0
11
55.160900814037326
21
-59.120468348361975
31
0
0
SPLINE
5
609
100
AcDbEntity
8
0
100
AcDbSpline
70
4
71
3
72
8
73
4
74
0
42
0.000000001
43
0.0000000001
44
0.0000000001
40
0
40
0
40
0
40
0
40
1
40
1
40
1
40
1
41
1
41
1
41
1
41
1
10
55.160900814037326
20
-59.120468348361975
30
0
10
55.160900814037326
20
-59.394928730256723
30
0
10
55.386677812052731
20
-59.620705728272121
30
0
10
55.660788302311907
20
-59.620705728272121
30
0
0
LINE
5
610
100
AcDbEntity
8
0
100
AcDbLine
10
55.660788302311907
20
-59.620705728272121
30
0
11
68.660968958585102
21
-59.620705728272121
31
0
0
SPLINE
5
611
100
AcDbEntity
8
0
100
AcDbSpline
70
4
71
3
72
8
73
4
74
0
42
0.000000001
43
0.0000000001
44
0.0000000001
40
0
40
0
40
0
40
0
40
1
40
1
40
1
40
1
41
1
41
1
41
1
41
1
10
68.660968958585102
20
-59.620705728272121
30
0
10
68.935074065896032
20
-59.620705728272121
30
0
10
69.160851063911437
20
-59.394928730256723
30
0
10
69.160851063911437
20
-59.120468348361975
30
0
0
LINE
5
612
100
AcDbEntity
8
0
100
AcDbLine
10
28.179817470235985
20
-45.620400203814185
30
0
11
12.798392767087776
21
-45.620400203814185
31
0
0
SPLINE
5
613
100
AcDbEntity
8
0
100
AcDbSpline
70
4
71
3
72
8
73
4
74
0
42
0.000000001
43
0.0000000001
44
0.0000000001
40
0
40
0
40
0
40
0
40
1
40
1
40
1
40
1
41
1
41
1
41
1
41
1
10
12.798392767087778
20
-45.620400203814185
30
0
10
12.524284968302728
20
-45.620400203814185
30
0
10
12.298507970287325
20
-45.846177201829605
30
0
10
12.298507970287325
20
-46.120637583724353
30
0
0
LINE
5
614
100
AcDbEntity
8
0
100
AcDbLine
10
12.298507970287327
20
-46.120637583724353
30
0
11
12.298507970287325
21
-59.120468348361975
31
0
0
SPLINE
5
615
100
AcDbEntity
8
0
100
AcDbSpline
70
4
71
3
72
8
73
4
74
0
42
0.000000001
43
0.0000000001
44
0.0000000001
40
0
40
0
40
0
40
0
40
1
40
1
40
1
40
1
41
1
41
1
41
1
41
1
10
12.298507970287325
20
-59.120468348361975
30
0
10
12.298507970287325
20
-59.394928730256723
30
0
10
12.524284968302728
20
-59.620705728272121
30
0
10
12.798392767087778
20
-59.620705728272121
30
0
0
LINE
5
616
100
AcDbEntity
8
0
100
AcDbLine
10
12.798392767087778
20
-59.620705728272121
30
0
11
28.179817470235989
21
-59.620705728272121
31
0
0
SPLINE
5
617
100
AcDbEntity
8
0
100
AcDbSpline
70
4
71
3
72
8
73
4
74
0
42
0.000000001
43
0.0000000001
44
0.0000000001
40
0
40
0
40
0
40
0
40
1
40
1
40
1
40
1
41
1
41
1
41
1
41
1
10
28.179817470235985
20
-59.620705728272121
30
0
10
28.453925269021035
20
-59.620705728272121
30
0
10
28.67970226703644
20
-59.394928730256723
30
0
10
28.67970226703644
20
-59.120468348361975
30
0
0
LINE
5
618
100
AcDbEntity
8
0
100
AcDbLine
10
28.67970226703644
20
-59.120468348361975
30
0
11
28.67970226703644
21
-46.120637583724353
31
0
0
SPLINE
5
619
100
AcDbEntity
8
0
100
AcDbSpline
70
4
71
3
72
8
73
4
74
0
42
0.000000001
43
0.0000000001
44
0.0000000001
40
0
40
0
40
0
40
0
40
1
40
1
40
1
40
1
41
1
41
1
41
1
41
1
10
28.67970226703644
20
-46.120637583724353
30
0
10
28.67970226703644
20
-45.846177201829605
30
0
10
28.453925269021035
20
-45.620400203814185
30
0
10
28.179817470235985
20
-45.620400203814185
30
0
0
LINE
5
620
100
AcDbEntity
8
0
100
AcDbLine
10
107.26075581391144
20
-59.120468348361975
30
0
11
107.26075581391144
21
-46.120637583724353
31
0
0
SPLINE
5
621
100
AcDbEntity
8
0
100
AcDbSpline
70
4
71
3
72
8
73
4
74
0
42
0.000000001
43
0.0000000001
44
0.0000000001
40
0
40
0
40
0
40
0
40
1
40
1
40
1
40
1
41
1
41
1
41
1
41
1
10
107.26075581391144
20
-46.120637583724353
30
0
10
107.26075581391144
20
-45.846177201829605
30
0
10
107.03498419884428
20
-45.620400203814185
30
0
10
106.76087370858511
20
-45.620400203814185
30
0
0
LINE
5
622
100
AcDbEntity
8
0
100
AcDbLine
10
106.76087370858511
20
-45.620400203814185
30
0
11
93.760687669363676
21
-45.620400203814185
31
0
0
SPLINE
5
623
100
AcDbEntity
8
0
100
AcDbSpline
70
4
71
3
72
8
73
4
74
0
42
0.000000001
43
0.0000000001
44
0.0000000001
40
0
40
0
40
0
40
0
40
1
40
1
40
1
40
1
41
1
41
1
41
1
41
1
10
93.760687669363676
20
-45.620400203814185
30
0
10
93.486587945000977
20
-45.620400203814185
30
0
10
93.260805564037327
20
-45.846177201829605
30
0
10
93.260805564037327
20
-46.120637583724353
30
0
0
LINE
5
624
100
AcDbEntity
8
0
100
AcDbLine
10
93.260805564037327
20
-46.120637583724353
30
0
11
93.260805564037327
21
-59.120468348361975
31
0
0
SPLINE
5
625
100
AcDbEntity
8
0
100
AcDbSpline
70
4
71
3
72
8
73
4
74
0
42
0.000000001
43
0.0000000001
44
0.0000000001
40
0
40
0
40
0
40
0
40
1
40
1
40
1
40
1
41
1
41
1
41
1
41
1
10
93.260805564037327
20
-59.120468348361975
30
0
10
93.260805564037327
20
-59.394928730256723
30
0
10
93.486587945000977
20
-59.620705728272121
30
0
10
93.760687669363676
20
-59.620705728272121
30
0
0
LINE
5
626
100
AcDbEntity
8
0
100
AcDbLine
10
93.760687669363676
20
-59.620705728272121
30
0
11
106.76087370858511
21
-59.620705728272121
31
0
0
SPLINE
5
627
100
AcDbEntity
8
0
100
AcDbSpline
70
4
71
3
72
8
73
4
74
0
42
0.000000001
43
0.0000000001
44
0.0000000001
40
0
40
0
40
0
40
0
40
1
40
1
40
1
40
1
41
1
41
1
41
1
41
1
10
106.76087370858511
20
-59.620705728272121
30
0
10
107.03498419884428
20
-59.620705728272121
30
0
10
107.26075581391144
20
-59.394928730256723
30
0
10
107.26075581391144
20
-59.120468348361975
30
0
0
SPLINE
5
628
100
AcDbEntity
8
0
100
AcDbSpline
70
4
71
3
72
8
73
4
74
0
42
0.000000001
43
0.0000000001
44
0.0000000001
40
0
40
0
40
0
40
0
40
1
40
1
40
1
40
1
41
1
41
1
41
1
41
1
10
9.7609841515133784
20
-43.022906977307962
30
0
10
9.7609841515133784
20
-42.747033571500303
30
0
10
9.5373233250246852
20
-42.523022180507503
30
0
10
9.2610993547129237
20
-42.523022180507503
30
0
0
SPLINE
5
629
100
AcDbEntity
8
0
100
AcDbSpline
70
4
71
3
72
8
73
4
74
0
42
0.000000001
43
0.0000000001
44
0.0000000001
40
0
40
0
40
0
40
0
40
1
40
1
40
1
40
1
41
1
41
1
41
1
41
1
10
9.2610993547129237
20
-42.523022180507503
30
0
10
8.7615671410221658
20
-42.523022180507503
30
0
10
7.9981580945443316
20
-42.523022180507503
30
0
10
7.4986258808535737
20
-42.523022180507503
30
0
0
SPLINE
5
630
100
AcDbEntity
8
0
100
AcDbSpline
70
4
71
3
72
8
73
4
74
0
42
0.000000001
43
0.0000000001
44
0.0000000001
40
0
40
0
40
0
40
0
40
1
40
1
40
1
40
1
41
1
41
1
41
1
41
1
10
7.4986258808535737
20
-42.523022180507503
30
0
10
7.2224012376732833
20
-42.523022180507503
30
0
10
6.998741084053119
20
-42.747033571500303
30
0
10
6.998741084053119
20
-43.022906977307962
30
0
0
SPLINE
5
631
100
AcDbEntity
8
0
100
AcDbSpline
70
4
71
3
72
8
73
4
74
0
42
0.000000001
43
0.0000000001
44
0.0000000001
40
0
40
0
40
0
40
0
40
1
40
1
40
1
40
1
41
1
41
1
41
1
41
1
10
6.998741084053119
20
-43.022906977307962
30
0
10
6.998741084053119
20
-44.803018353943031
30
0
10
6.998741084053119
20
-50.820688860842715
30
0
10
6.998741084053119
20
-52.600797546003662
30
0
0
SPLINE
5
632
100
AcDbEntity
8
0
100
AcDbSpline
70
4
71
3
72
8
73
4
74
0
42
0.000000001
43
0.0000000001
44
0.0000000001
40
0
40
0
40
0
40
0
40
1
40
1
40
1
40
1
41
1
41
1
41
1
41
1
10
6.998741084053119
20
-52.600797546003662
30
0
10
6.998741084053119
20
-52.876668260337198
30
0
10
7.2224012376732833
20
-53.100685034278243
30
0
10
7.4986258808535737
20
-53.100685034278243
30
0
0
SPLINE
5
633
100
AcDbEntity
8
0
100
AcDbSpline
70
4
71
3
72
8
73
4
74
0
42
0.000000001
43
0.0000000001
44
0.0000000001
40
0
40
0
40
0
40
0
40
1
40
1
40
1
40
1
41
1
41
1
41
1
41
1
10
7.4986258808535737
20
-53.100685034278243
30
0
10
7.9981580945443316
20
-53.100685034278243
30
0
10
8.7615671410221658
20
-53.100685034278243
30
0
10
9.2610993547129237
20
-53.100685034278243
30
0
0
SPLINE
5
634
100
AcDbEntity
8
0
100
AcDbSpline
70
4
71
3
72
8
73
4
74
0
42
0.000000001
43
0.0000000001
44
0.0000000001
40
0
40
0
40
0
40
0
40
1
40
1
40
1
40
1
41
1
41
1
41
1
41
1
10
9.2610993547129237
20
-53.100685034278243
30
0
10
9.5373233250246852
20
-53.100685034278243
30
0
10
9.7609841515133784
20
-52.876668260337198
30
0
10
9.7609841515133784
20
-52.600797546003662
30
0
0
SPLINE
5
635
100
AcDbEntity
8
0
100
AcDbSpline
70
4
71
3
72
8
73
4
74
0
42
0.000000001
43
0.0000000001
44
0.0000000001
40
0
40
0
40
0
40
0
40
1
40
1
40
1
40
1
41
1
41
1
41
1
41
1
10
9.7609841515133784
20
-52.600797546003662
30
0
10
9.7609841515133784
20
-50.820688860842715
30
0
10
9.7609841515133784
20
-44.803018353943031
30
0
10
9.7609841515133784
20
-43.022906977307962
30
0
0
LINE
5
636
100
AcDbEntity
8
0
100
AcDbLine
10
36.610833235837774
20
-40.570753353272124
30
0
11
49.611016583585112
21
-40.570753353272124
31
0
0
SPLINE
5
637
100
AcDbEntity
8
0
100
AcDbSpline
70
4
71
3
72
8
73
4
74
0
42
0.000000001
43
0.0000000001
44
0.0000000001
40
0
40
0
40
0
40
0
40
1
40
1
40
1
40
1
41
1
41
1
41
1
41
1
10
49.611016583585112
20
-40.570753353272124
30
0
10
49.885121690896035
20
-40.570753353272124
30
0
10
50.110898688911441
20
-40.344976355256719
30
0
10
50.110898688911441
20
-40.070515973361971
30
0
0
LINE
5
638
100
AcDbEntity
8
0
100
AcDbLine
10
50.110898688911441
20
-40.070515973361971
30
0
11
50.110898688911441
21
-27.070687900198461
31
0
0
SPLINE
5
639
100
AcDbEntity
8
0
100
AcDbSpline
70
4
71
3
72
8
73
4
74
0
42
0.000000001
43
0.0000000001
44
0.0000000001
40
0
40
0
40
0
40
0
40
1
40
1
40
1
40
1
41
1
41
1
41
1
41
1
10
50.110898688911441
20
-27.070687900198461
30
0
10
50.110898688911441
20
-26.796227518303716
30
0
10
49.885121690896035
20
-26.570450520288308
30
0
10
49.611016583585112
20
-26.570450520288308
30
0
0
LINE
5
640
100
AcDbEntity
8
0
100
AcDbLine
10
49.611016583585112
20
-26.570450520288308
30
0
11
36.610833235837781
21
-26.570450520288308
31
0
0
SPLINE
5
641
100
AcDbEntity
8
0
100
AcDbSpline
70
4
71
3
72
8
73
4
74
0
42
0.000000001
43
0.0000000001
44
0.0000000001
40
0
40
0
40
0
40
0
40
1
40
1
40
1
40
1
41
1
41
1
41
1
41
1
10
36.610833235837774
20
-26.570450520288308
30
0
10
36.336725437052735
20
-26.570450520288308
30
0
10
36.11094843903733
20
-26.796227518303716
30
0
10
36.11094843903733
20
-27.070687900198461
30
0
0
LINE
5
642
100
AcDbEntity
8
0
100
AcDbLine
10
36.11094843903733
20
-27.070687900198465
30
0
11
36.11094843903733
21
-40.070515973361971
31
0
0
SPLINE
5
643
100
AcDbEntity
8
0
100
AcDbSpline
70
4
71
3
72
8
73
4
74
0
42
0.000000001
43
0.0000000001
44
0.0000000001
40
0
40
0
40
0
40
0
40
1
40
1
40
1
40
1
41
1
41
1
41
1
41
1
10
36.11094843903733
20
-40.070515973361971
30
0
10
36.11094843903733
20
-40.344976355256719
30
0
10
36.336725437052735
20
-40.570753353272124
30
0
10
36.610833235837774
20
-40.570753353272124
30
0
0
LINE
5
644
100
AcDbEntity
8
0
100
AcDbLine
10
202.51051768891145
20
-40.070515973361971
30
0
11
202.51051768891145
21
-27.070687900198461
31
0
0
SPLINE
5
645
100
AcDbEntity
8
0
100
AcDbSpline
70
4
71
3
72
8
73
4
74
0
42
0.000000001
43
0.0000000001
44
0.0000000001
40
0
40
0
40
0
40
0
40
1
40
1
40
1
40
1
41
1
41
1
41
1
41
1
10
202.51051768891145
20
-27.070687900198461
30
0
10
202.51051768891145
20
-26.796227518303716
30
0
10
202.28473530794784
20
-26.570450520288308
30
0
10
202.0106355835851
20
-26.570450520288308
30
0
0
LINE
5
646
100
AcDbEntity
8
0
100
AcDbLine
10
202.01063558358504
20
-26.570450520288308
30
0
11
189.01044954436367
21
-26.570450520288308
31
0
0
SPLINE
5
647
100
AcDbEntity
8
0
100
AcDbSpline
70
4
71
3
72
8
73
4
74
0
42
0.000000001
43
0.0000000001
44
0.0000000001
40
0
40
0
40
0
40
0
40
1
40
1
40
1
40
1
41
1
41
1
41
1
41
1
10
189.01044954436367
20
-26.570450520288308
30
0
10
188.73634982000098
20
-26.570450520288308
30
0
10
188.51056743903735
20
-26.796227518303716
30
0
10
188.51056743903735
20
-27.070687900198461
30
0
0
LINE
5
648
100
AcDbEntity
8
0
100
AcDbLine
10
188.51056743903735
20
-27.070687900198465
30
0
11
188.51056743903735
21
-40.070515973361971
31
0
0
SPLINE
5
649
100
AcDbEntity
8
0
100
AcDbSpline
70
4
71
3
72
8
73
4
74
0
42
0.000000001
43
0.0000000001
44
0.0000000001
40
0
40
0
40
0
40
0
40
1
40
1
40
1
40
1
41
1
41
1
41
1
41
1
10
188.51056743903735
20
-40.070515973361971
30
0
10
188.51056743903735
20
-40.344976355256719
30
0
10
188.73634982000098
20
-40.570753353272124
30
0
10
189.01044954436367
20
-40.570753353272124
30
0
0
LINE
5
650
100
AcDbEntity
8
0
100
AcDbLine
10
189.01044954436369
20
-40.570753353272124
30
0
11
202.0106355835851
21
-40.570753353272124
31
0
0
SPLINE
5
651
100
AcDbEntity
8
0
100
AcDbSpline
70
4
71
3
72
8
73
4
74
0
42
0.000000001
43
0.0000000001
44
0.0000000001
40
0
40
0
40
0
40
0
40
1
40
1
40
1
40
1
41
1
41
1
41
1
41
1
10
202.0106355835851
20
-40.570753353272124
30
0
10
202.28473530794784
20
-40.570753353272124
30
0
10
202.51051768891145
20
-40.344976355256719
30
0
10
202.51051768891145
20
-40.070515973361971
30
0
0
LINE
5
652
100
AcDbEntity
8
0
100
AcDbLine
10
69.160851063911437
20
-40.070515973361971
30
0
11
69.160851063911437
21
-27.070687900198461
31
0
0
SPLINE
5
653
100
AcDbEntity
8
0
100
AcDbSpline
70
4
71
3
72
8
73
4
74
0
42
0.000000001
43
0.0000000001
44
0.0000000001
40
0
40
0
40
0
40
0
40
1
40
1
40
1
40
1
41
1
41
1
41
1
41
1
10
69.160851063911437
20
-27.070687900198461
30
0
10
69.160851063911437
20
-26.796227518303716
30
0
10
68.935074065896032
20
-26.570450520288308
30
0
10
68.660968958585102
20
-26.570450520288308
30
0
0
LINE
5
654
100
AcDbEntity
8
0
100
AcDbLine
10
68.660968958585102
20
-26.570450520288308
30
0
11
55.660788302311907
21
-26.570450520288308
31
0
0
SPLINE
5
655
100
AcDbEntity
8
0
100
AcDbSpline
70
4
71
3
72
8
73
4
74
0
42
0.000000001
43
0.0000000001
44
0.0000000001
40
0
40
0
40
0
40
0
40
1
40
1
40
1
40
1
41
1
41
1
41
1
41
1
10
55.660788302311907
20
-26.570450520288308
30
0
10
55.386677812052731
20
-26.570450520288308
30
0
10
55.160900814037326
20
-26.796227518303716
30
0
10
55.160900814037326
20
-27.070687900198461
30
0
0
LINE
5
656
100
AcDbEntity
8
0
100
AcDbLine
10
55.160900814037326
20
-27.070687900198465
30
0
11
55.160900814037326
21
-40.070515973361971
31
0
0
SPLINE
5
657
100
AcDbEntity
8
0
100
AcDbSpline
70
4
71
3
72
8
73
4
74
0
42
0.000000001
43
0.0000000001
44
0.0000000001
40
0
40
0
40
0
40
0
40
1
40
1
40
1
40
1
41
1
41
1
41
1
41
1
10
55.160900814037326
20
-40.070515973361971
30
0
10
55.160900814037326
20
-40.344976355256719
30
0
10
55.386677812052731
20
-40.570753353272124
30
0
10
55.660788302311907
20
-40.570753353272124
30
0
0
LINE
5
658
100
AcDbEntity
8
0
100
AcDbLine
10
55.660788302311907
20
-40.570753353272124
30
0
11
68.660968958585102
21
-40.570753353272124
31
0
0
SPLINE
5
659
100
AcDbEntity
8
0
100
AcDbSpline
70
4
71
3
72
8
73
4
74
0
42
0.000000001
43
0.0000000001
44
0.0000000001
40
0
40
0
40
0
40
0
40
1
40
1
40
1
40
1
41
1
41
1
41
1
41
1
10
68.660968958585102
20
-40.570753353272124
30
0
10
68.935074065896032
20
-40.570753353272124
30
0
10
69.160851063911437
20
-40.344976355256719
30
0
10
69.160851063911437
20
-40.070515973361971
30
0
0
LINE
5
660
100
AcDbEntity
8
0
100
AcDbLine
10
183.46056531391145
20
-40.070515973361971
30
0
11
183.46056531391145
21
-27.070687900198461
31
0
0
SPLINE
5
661
100
AcDbEntity
8
0
100
AcDbSpline
70
4
71
3
72
8
73
4
74
0
42
0.000000001
43
0.0000000001
44
0.0000000001
40
0
40
0
40
0
40
0
40
1
40
1
40
1
40
1
41
1
41
1
41
1
41
1
10
183.46056531391145
20
-27.070687900198461
30
0
10
183.46056531391145
20
-26.796227518303716
30
0
10
183.23478293294781
20
-26.570450520288308
30
0
10
182.9606832085851
20
-26.570450520288308
30
0
0
LINE
5
662
100
AcDbEntity
8
0
100
AcDbLine
10
182.96068320858507
20
-26.570450520288308
30
0
11
169.96049716936366
21
-26.570450520288308
31
0
0
SPLINE
5
663
100
AcDbEntity
8
0
100
AcDbSpline
70
4
71
3
72
8
73
4
74
0
42
0.000000001
43
0.0000000001
44
0.0000000001
40
0
40
0
40
0
40
0
40
1
40
1
40
1
40
1
41
1
41
1
41
1
41
1
10
169.96049716936366
20
-26.570450520288308
30
0
10
169.68639744500098
20
-26.570450520288308
30
0
10
169.46061506403734
20
-26.796227518303716
30
0
10
169.46061506403734
20
-27.070687900198461
30
0
0
LINE
5
664
100
AcDbEntity
8
0
100
AcDbLine
10
169.46061506403734
20
-27.070687900198465
30
0
11
169.46061506403734
21
-40.070515973361971
31
0
0
SPLINE
5
665
100
AcDbEntity
8
0
100
AcDbSpline
70
4
71
3
72
8
73
4
74
0
42
0.000000001
43
0.0000000001
44
0.0000000001
40
0
40
0
40
0
40
0
40
1
40
1
40
1
40
1
41
1
41
1
41
1
41
1
10
169.46061506403734
20
-40.070515973361971
30
0
10
169.46061506403734
20
-40.344976355256719
30
0
10
169.68639744500098
20
-40.570753353272124
30
0
10
169.96049716936366
20
-40.570753353272124
30
0
0
LINE
5
666
100
AcDbEntity
8
0
100
AcDbLine
10
169.96049716936369
20
-40.570753353272124
30
0
11
182.9606832085851
21
-40.570753353272124
31
0
0
SPLINE
5
667
100
AcDbEntity
8
0
100
AcDbSpline
70
4
71
3
72
8
73
4
74
0
42
0.000000001
43
0.0000000001
44
0.0000000001
40
0
40
0
40
0
40
0
40
1
40
1
40
1
40
1
41
1
41
1
41
1
41
1
10
182.9606832085851
20
-40.570753353272124
30
0
10
183.23478293294781
20
-40.570753353272124
30
0
10
183.46056531391145
20
-40.344976355256719
30
0
10
183.46056531391145
20
-40.070515973361971
30
0
0
LINE
5
668
100
AcDbEntity
8
0
100
AcDbLine
10
25.798573423360985
20
-26.570450520288308
30
0
11
12.798392767087778
21
-26.570450520288308
31
0
0
SPLINE
5
669
100
AcDbEntity
8
0
100
AcDbSpline
70
4
71
3
72
8
73
4
74
0
42
0.000000001
43
0.0000000001
44
0.0000000001
40
0
40
0
40
0
40
0
40
1
40
1
40
1
40
1
41
1
41
1
41
1
41
1
10
12.798392767087778
20
-26.570450520288308
30
0
10
12.524284968302728
20
-26.570450520288308
30
0
10
12.298507970287325
20
-26.796227518303716
30
0
10
12.298507970287325
20
-27.070687900198461
30
0
0
LINE
5
670
100
AcDbEntity
8
0
100
AcDbLine
10
12.298507970287327
20
-27.070687900198465
30
0
11
12.298507970287325
21
-40.070515973361971
31
0
0
SPLINE
5
671
100
AcDbEntity
8
0
100
AcDbSpline
70
4
71
3
72
8
73
4
74
0
42
0.000000001
43
0.0000000001
44
0.0000000001
40
0
40
0
40
0
40
0
40
1
40
1
40
1
40
1
41
1
41
1
41
1
41
1
10
12.298507970287325
20
-40.070515973361971
30
0
10
12.298507970287325
20
-40.344976355256719
30
0
10
12.524284968302728
20
-40.570753353272124
30
0
10
12.798392767087778
20
-40.570753353272124
30
0
0
LINE
5
672
100
AcDbEntity
8
0
100
AcDbLine
10
12.798392767087778
20
-40.570753353272124
30
0
11
25.798573423360985
21
-40.570753353272124
31
0
0
SPLINE
5
673
100
AcDbEntity
8
0
100
AcDbSpline
70
4
71
3
72
8
73
4
74
0
42
0.000000001
43
0.0000000001
44
0.0000000001
40
0
40
0
40
0
40
0
40
1
40
1
40
1
40
1
41
1
41
1
41
1
41
1
10
25.798573423360985
20
-40.570753353272124
30
0
10
26.072681222146031
20
-40.570753353272124
30
0
10
26.298458220161439
20
-40.344976355256719
30
0
10
26.298458220161439
20
-40.070515973361971
30
0
0
LINE
5
674
100
AcDbEntity
8
0
100
AcDbLine
10
26.298458220161439
20
-40.070515973361971
30
0
11
26.298458220161439
21
-27.070687900198461
31
0
0
SPLINE
5
675
100
AcDbEntity
8
0
100
AcDbSpline
70
4
71
3
72
8
73
4
74
0
42
0.000000001
43
0.0000000001
44
0.0000000001
40
0
40
0
40
0
40
0
40
1
40
1
40
1
40
1
41
1
41
1
41
1
41
1
10
26.298458220161439
20
-27.070687900198461
30
0
10
26.298458220161439
20
-26.796227518303716
30
0
10
26.072681222146031
20
-26.570450520288308
30
0
10
25.798573423360985
20
-26.570450520288308
30
0
0
LINE
5
676
100
AcDbEntity
8
0
100
AcDbLine
10
145.36066056391144
20
-40.070515973361971
30
0
11
145.36066056391144
21
-27.070687900198461
31
0
0
SPLINE
5
677
100
AcDbEntity
8
0
100
AcDbSpline
70
4
71
3
72
8
73
4
74
0
42
0.000000001
43
0.0000000001
44
0.0000000001
40
0
40
0
40
0
40
0
40
1
40
1
40
1
40
1
41
1
41
1
41
1
41
1
10
145.36066056391144
20
-27.070687900198461
30
0
10
145.36066056391144
20
-26.796227518303716
30
0
10
145.13488894884426
20
-26.570450520288308
30
0
10
144.86077845858512
20
-26.570450520288308
30
0
0
LINE
5
678
100
AcDbEntity
8
0
100
AcDbLine
10
144.86077845858512
20
-26.570450520288308
30
0
11
131.86059241936366
21
-26.570450520288308
31
0
0
SPLINE
5
679
100
AcDbEntity
8
0
100
AcDbSpline
70
4
71
3
72
8
73
4
74
0
42
0.000000001
43
0.0000000001
44
0.0000000001
40
0
40
0
40
0
40
0
40
1
40
1
40
1
40
1
41
1
41
1
41
1
41
1
10
131.86059241936366
20
-26.570450520288308
30
0
10
131.58649269500097
20
-26.570450520288308
30
0
10
131.36071031403733
20
-26.796227518303716
30
0
10
131.36071031403733
20
-27.070687900198461
30
0
0
LINE
5
680
100
AcDbEntity
8
0
100
AcDbLine
10
131.36071031403733
20
-27.070687900198465
30
0
11
131.36071031403733
21
-40.070515973361971
31
0
0
SPLINE
5
681
100
AcDbEntity
8
0
100
AcDbSpline
70
4
71
3
72
8
73
4
74
0
42
0.000000001
43
0.0000000001
44
0.0000000001
40
0
40
0
40
0
40
0
40
1
40
1
40
1
40
1
41
1
41
1
41
1
41
1
10
131.36071031403733
20
-40.070515973361971
30
0
10
131.36071031403733
20
-40.344976355256719
30
0
10
131.58649269500097
20
-40.570753353272124
30
0
10
131.86059241936366
20
-40.570753353272124
30
0
0
LINE
5
682
100
AcDbEntity
8
0
100
AcDbLine
10
131.86059241936366
20
-40.570753353272124
30
0
11
144.86077845858512
21
-40.570753353272124
31
0
0
SPLINE
5
683
100
AcDbEntity
8
0
100
AcDbSpline
70
4
71
3
72
8
73
4
74
0
42
0.000000001
43
0.0000000001
44
0.0000000001
40
0
40
0
40
0
40
0
40
1
40
1
40
1
40
1
41
1
41
1
41
1
41
1
10
144.86077845858512
20
-40.570753353272124
30
0
10
145.13488894884426
20
-40.570753353272124
30
0
10
145.36066056391144
20
-40.344976355256719
30
0
10
145.36066056391144
20
-40.070515973361971
30
0
0
LINE
5
684
100
AcDbEntity
8
0
100
AcDbLine
10
126.31070818891145
20
-40.070515973361971
30
0
11
126.31070818891145
21
-27.070687900198461
31
0
0
SPLINE
5
685
100
AcDbEntity
8
0
100
AcDbSpline
70
4
71
3
72
8
73
4
74
0
42
0.000000001
43
0.0000000001
44
0.0000000001
40
0
40
0
40
0
40
0
40
1
40
1
40
1
40
1
41
1
41
1
41
1
41
1
10
126.31070818891145
20
-27.070687900198461
30
0
10
126.31070818891145
20
-26.796227518303716
30
0
10
126.08493657384429
20
-26.570450520288308
30
0
10
125.81082608358511
20
-26.570450520288308
30
0
0
LINE
5
686
100
AcDbEntity
8
0
100
AcDbLine
10
125.81082608358511
20
-26.570450520288308
30
0
11
112.81064004436367
21
-26.570450520288308
31
0
0
SPLINE
5
687
100
AcDbEntity
8
0
100
AcDbSpline
70
4
71
3
72
8
73
4
74
0
42
0.000000001
43
0.0000000001
44
0.0000000001
40
0
40
0
40
0
40
0
40
1
40
1
40
1
40
1
41
1
41
1
41
1
41
1
10
112.81064004436367
20
-26.570450520288308
30
0
10
112.53654032000098
20
-26.570450520288308
30
0
10
112.31075793903734
20
-26.796227518303716
30
0
10
112.31075793903734
20
-27.070687900198461
30
0
0
LINE
5
688
100
AcDbEntity
8
0
100
AcDbLine
10
112.31075793903734
20
-27.070687900198465
30
0
11
112.31075793903734
21
-40.070515973361971
31
0
0
SPLINE
5
689
100
AcDbEntity
8
0
100
AcDbSpline
70
4
71
3
72
8
73
4
74
0
42
0.000000001
43
0.0000000001
44
0.0000000001
40
0
40
0
40
0
40
0
40
1
40
1
40
1
40
1
41
1
41
1
41
1
41
1
10
112.31075793903734
20
-40.070515973361971
30
0
10
112.31075793903734
20
-40.344976355256719
30
0
10
112.53654032000098
20
-40.570753353272124
30
0
10
112.81064004436367
20
-40.570753353272124
30
0
0
LINE
5
690
100
AcDbEntity
8
0
100
AcDbLine
10
112.81064004436367
20
-40.570753353272124
30
0
11
125.81082608358511
21
-40.570753353272124
31
0
0
SPLINE
5
691
100
AcDbEntity
8
0
100
AcDbSpline
70
4
71
3
72
8
73
4
74
0
42
0.000000001
43
0.0000000001
44
0.0000000001
40
0
40
0
40
0
40
0
40
1
40
1
40
1
40
1
41
1
41
1
41
1
41
1
10
125.81082608358511
20
-40.570753353272124
30
0
10
126.08493657384429
20
-40.570753353272124
30
0
10
126.31070818891145
20
-40.344976355256719
30
0
10
126.31070818891145
20
-40.070515973361971
30
0
0
LINE
5
692
100
AcDbEntity
8
0
100
AcDbLine
10
164.41061293891141
20
-40.070515973361971
30
0
11
164.41061293891141
21
-27.070687900198461
31
0
0
SPLINE
5
693
100
AcDbEntity
8
0
100
AcDbSpline
70
4
71
3
72
8
73
4
74
0
42
0.000000001
43
0.0000000001
44
0.0000000001
40
0
40
0
40
0
40
0
40
1
40
1
40
1
40
1
41
1
41
1
41
1
41
1
10
164.41061293891141
20
-27.070687900198461
30
0
10
164.41061293891141
20
-26.796227518303716
30
0
10
164.1848413238443
20
-26.570450520288308
30
0
10
163.91073083358509
20
-26.570450520288308
30
0
0
LINE
5
694
100
AcDbEntity
8
0
100
AcDbLine
10
163.91073083358509
20
-26.570450520288308
30
0
11
150.91054479436366
21
-26.570450520288308
31
0
0
SPLINE
5
695
100
AcDbEntity
8
0
100
AcDbSpline
70
4
71
3
72
8
73
4
74
0
42
0.000000001
43
0.0000000001
44
0.0000000001
40
0
40
0
40
0
40
0
40
1
40
1
40
1
40
1
41
1
41
1
41
1
41
1
10
150.91054479436366
20
-26.570450520288308
30
0
10
150.636445070001
20
-26.570450520288308
30
0
10
150.41066268903731
20
-26.796227518303716
30
0
10
150.41066268903731
20
-27.070687900198461
30
0
0
LINE
5
696
100
AcDbEntity
8
0
100
AcDbLine
10
150.41066268903731
20
-27.070687900198465
30
0
11
150.41066268903731
21
-40.070515973361971
31
0
0
SPLINE
5
697
100
AcDbEntity
8
0
100
AcDbSpline
70
4
71
3
72
8
73
4
74
0
42
0.000000001
43
0.0000000001
44
0.0000000001
40
0
40
0
40
0
40
0
40
1
40
1
40
1
40
1
41
1
41
1
41
1
41
1
10
150.41066268903731
20
-40.070515973361971
30
0
10
150.41066268903731
20
-40.344976355256719
30
0
10
150.636445070001
20
-40.570753353272124
30
0
10
150.91054479436366
20
-40.570753353272124
30
0
0
LINE
5
698
100
AcDbEntity
8
0
100
AcDbLine
10
150.91054479436366
20
-40.570753353272124
30
0
11
163.91073083358509
21
-40.570753353272124
31
0
0
SPLINE
5
699
100
AcDbEntity
8
0
100
AcDbSpline
70
4
71
3
72
8
73
4
74
0
42
0.000000001
43
0.0000000001
44
0.0000000001
40
0
40
0
40
0
40
0
40
1
40
1
40
1
40
1
41
1
41
1
41
1
41
1
10
163.91073083358509
20
-40.570753353272124
30
0
10
164.1848413238443
20
-40.570753353272124
30
0
10
164.41061293891141
20
-40.344976355256719
30
0
10
164.41061293891141
20
-40.070515973361971
30
0
0
LINE
5
700
100
AcDbEntity
8
0
100
AcDbLine
10
88.210803438911427
20
-40.070515973361971
30
0
11
88.210803438911427
21
-27.070687900198461
31
0
0
SPLINE
5
701
100
AcDbEntity
8
0
100
AcDbSpline
70
4
71
3
72
8
73
4
74
0
42
0.000000001
43
0.0000000001
44
0.0000000001
40
0
40
0
40
0
40
0
40
1
40
1
40
1
40
1
41
1
41
1
41
1
41
1
10
88.210803438911427
20
-27.070687900198461
30
0
10
88.210803438911427
20
-26.796227518303716
30
0
10
87.985026440896036
20
-26.570450520288308
30
0
10
87.710921333585105
20
-26.570450520288308
30
0
0
LINE
5
702
100
AcDbEntity
8
0
100
AcDbLine
10
87.710921333585105
20
-26.570450520288308
30
0
11
74.710740677311904
21
-26.570450520288308
31
0
0
SPLINE
5
703
100
AcDbEntity
8
0
100
AcDbSpline
70
4
71
3
72
8
73
4
74
0
42
0.000000001
43
0.0000000001
44
0.0000000001
40
0
40
0
40
0
40
0
40
1
40
1
40
1
40
1
41
1
41
1
41
1
41
1
10
74.710740677311904
20
-26.570450520288308
30
0
10
74.436630187052742
20
-26.570450520288308
30
0
10
74.210853189037337
20
-26.796227518303716
30
0
10
74.210853189037337
20
-27.070687900198461
30
0
0
LINE
5
704
100
AcDbEntity
8
0
100
AcDbLine
10
74.210853189037337
20
-27.070687900198465
30
0
11
74.210853189037337
21
-40.070515973361971
31
0
0
SPLINE
5
705
100
AcDbEntity
8
0
100
AcDbSpline
70
4
71
3
72
8
73
4
74
0
42
0.000000001
43
0.0000000001
44
0.0000000001
40
0
40
0
40
0
40
0
40
1
40
1
40
1
40
1
41
1
41
1
41
1
41
1
10
74.210853189037337
20
-40.070515973361971
30
0
10
74.210853189037337
20
-40.344976355256719
30
0
10
74.436630187052742
20
-40.570753353272124
30
0
10
74.710740677311904
20
-40.570753353272124
30
0
0
LINE
5
706
100
AcDbEntity
8
0
100
AcDbLine
10
74.710740677311904
20
-40.570753353272124
30
0
11
87.710921333585105
21
-40.570753353272124
31
0
0
SPLINE
5
707
100
AcDbEntity
8
0
100
AcDbSpline
70
4
71
3
72
8
73
4
74
0
42
0.000000001
43
0.0000000001
44
0.0000000001
40
0
40
0
40
0
40
0
40
1
40
1
40
1
40
1
41
1
41
1
41
1
41
1
10
87.710921333585105
20
-40.570753353272124
30
0
10
87.985026440896036
20
-40.570753353272124
30
0
10
88.210803438911427
20
-40.344976355256719
30
0
10
88.210803438911427
20
-40.070515973361971
30
0
0
SPLINE
5
708
100
AcDbEntity
8
0
100
AcDbSpline
70
4
71
3
72
8
73
4
74
0
42
0.000000001
43
0.0000000001
44
0.0000000001
40
0
40
0
40
0
40
0
40
1
40
1
40
1
40
1
41
1
41
1
41
1
41
1
10
287.73542127108516
20
-40.570753353272124
30
0
10
288.00952099544782
20
-40.570753353272124
30
0
10
288.23530337641148
20
-40.344976355256719
30
0
10
288.23530337641148
20
-40.070515973361971
30
0
0
LINE
5
709
100
AcDbEntity
8
0
100
AcDbLine
10
288.23530337641148
20
-40.070515973361971
30
0
11
288.23530337641148
21
-35.320728945983412
31
0
0
LINE
5
710
100
AcDbEntity
8
0
100
AcDbLine
10
288.23530337641148
20
-35.320728945983412
30
0
11
288.23564788509879
21
-35.320728945983412
31
0
0
SPLINE
5
711
100
AcDbEntity
8
0
100
AcDbSpline
70
4
71
3
72
8
73
4
74
0
42
0.000000001
43
0.0000000001
44
0.0000000001
40
0
40
0
40
0
40
0
40
1
40
1
40
1
40
1
41
1
41
1
41
1
41
1
10
288.23564788509879
20
-35.320728945983412
30
0
10
288.44590584333935
20
-35.320728945983412
30
0
10
288.61665296150085
20
-35.149984519296012
30
0
10
288.61665296150085
20
-34.939729252529624
30
0
0
SPLINE
5
712
100
AcDbEntity
8
0
100
AcDbSpline
70
4
71
3
72
8
73
4
74
0
42
0.000000001
43
0.0000000001
44
0.0000000001
40
0
40
0
40
0
40
0
40
1
40
1
40
1
40
1
41
1
41
1
41
1
41
1
10
288.61665296150085
20
-34.939729252529624
30
0
10
288.61665296150085
20
-33.281678918702603
30
0
10
288.61665296150085
20
-26.695684811083638
30
0
10
288.61665296150085
20
-24.821735189260959
30
0
0
SPLINE
5
713
100
AcDbEntity
8
0
100
AcDbSpline
70
4
71
3
72
8
73
4
74
0
42
0.000000001
43
0.0000000001
44
0.0000000001
40
0
40
0
40
0
40
0
40
1
40
1
40
1
40
1
41
1
41
1
41
1
41
1
10
288.61665296150085
20
-24.821735189260959
30
0
10
288.61665296150085
20
-24.689091270213765
30
0
10
288.56374934620163
20
-24.561738789286139
30
0
10
288.46989226069519
20
-24.467900544098534
30
0
0
SPLINE
5
714
100
AcDbEntity
8
0
100
AcDbSpline
70
4
71
3
72
8
73
4
74
0
42
0.000000001
43
0.0000000001
44
0.0000000001
40
0
40
0
40
0
40
0
40
1
40
1
40
1
40
1
41
1
41
1
41
1
41
1
10
288.46989226069519
20
-24.467900544098534
30
0
10
288.37642274746196
20
-24.374414882020634
30
0
10
288.24906219211198
20
-24.321497809350809
30
0
10
288.11642634748716
20
-24.321497809350809
30
0
0
LINE
5
715
100
AcDbEntity
8
0
100
AcDbLine
10
288.11642634748711
20
-24.321497809350809
30
0
11
286.35394143486275
21
-24.321497809350809
31
0
0
SPLINE
5
716
100
AcDbEntity
8
0
100
AcDbSpline
70
4
71
3
72
8
73
4
74
0
42
0.000000001
43
0.0000000001
44
0.0000000001
40
0
40
0
40
0
40
0
40
1
40
1
40
1
40
1
41
1
41
1
41
1
41
1
10
286.3539414348628
20
-24.321497809350809
30
0
10
286.07773159479018
20
-24.321497809350809
30
0
10
285.85405932953648
20
-24.545511891817728
30
0
10
285.85405932953648
20
-24.821735189260959
30
0
0
SPLINE
5
717
100
AcDbEntity
8
0
100
AcDbSpline
70
0
71
2
72
6
73
3
74
0
42
0.000000001
43
0.0000000001
44
0.0000000001
40
0
40
0
40
0
40
1
40
1
40
1
10
285.85405932953648
20
-24.821735189260959
30
0
10
285.85405932953648
20
-25.484249618277552
30
0
10
285.85405932953648
20
-26.570450520288308
30
0
0
LINE
5
718
100
AcDbEntity
8
0
100
AcDbLine
10
285.85405932953648
20
-26.570450520288308
30
0
11
250.9227947631137
21
-26.570450520288308
31
0
0
SPLINE
5
719
100
AcDbEntity
8
0
100
AcDbSpline
70
4
71
3
72
8
73
4
74
0
42
0.000000001
43
0.0000000001
44
0.0000000001
40
0
40
0
40
0
40
0
40
1
40
1
40
1
40
1
41
1
41
1
41
1
41
1
10
250.9227947631137
20
-26.570450520288308
30
0
10
250.64869503875099
20
-26.570450520288308
30
0
10
250.42291265778732
20
-26.796227518303716
30
0
10
250.42291265778732
20
-27.070687900198461
30
0
0
LINE
5
720
100
AcDbEntity
8
0
100
AcDbLine
10
250.42291265778732
20
-27.070687900198465
30
0
11
250.42291265778732
21
-40.070515973361971
31
0
0
SPLINE
5
721
100
AcDbEntity
8
0
100
AcDbSpline
70
4
71
3
72
8
73
4
74
0
42
0.000000001
43
0.0000000001
44
0.0000000001
40
0
40
0
40
0
40
0
40
1
40
1
40
1
40
1
41
1
41
1
41
1
41
1
10
250.42291265778732
20
-40.070515973361971
30
0
10
250.42291265778732
20
-40.344976355256719
30
0
10
250.64869503875099
20
-40.570753353272124
30
0
10
250.9227947631137
20
-40.570753353272124
30
0
0
LINE
5
722
100
AcDbEntity
8
0
100
AcDbLine
10
250.92279476311373
20
-40.570753353272124
30
0
11
287.73542127108516
21
-40.570753353272124
31
0
0
LINE
5
723
100
AcDbEntity
8
0
100
AcDbLine
10
107.26075581391144
20
-40.070515973361971
30
0
11
107.26075581391144
21
-27.070687900198461
31
0
0
SPLINE
5
724
100
AcDbEntity
8
0
100
AcDbSpline
70
4
71
3
72
8
73
4
74
0
42
0.000000001
43
0.0000000001
44
0.0000000001
40
0
40
0
40
0
40
0
40
1
40
1
40
1
40
1
41
1
41
1
41
1
41
1
10
107.26075581391144
20
-27.070687900198461
30
0
10
107.26075581391144
20
-26.796227518303716
30
0
10
107.03498419884428
20
-26.570450520288308
30
0
10
106.76087370858511
20
-26.570450520288308
30
0
0
LINE
5
725
100
AcDbEntity
8
0
100
AcDbLine
10
106.76087370858511
20
-26.570450520288308
30
0
11
93.760687669363676
21
-26.570450520288308
31
0
0
SPLINE
5
726
100
AcDbEntity
8
0
100
AcDbSpline
70
4
71
3
72
8
73
4
74
0
42
0.000000001
43
0.0000000001
44
0.0000000001
40
0
40
0
40
0
40
0
40
1
40
1
40
1
40
1
41
1
41
1
41
1
41
1
10
93.760687669363676
20
-26.570450520288308
30
0
10
93.486587945000977
20
-26.570450520288308
30
0
10
93.260805564037327
20
-26.796227518303716
30
0
10
93.260805564037327
20
-27.070687900198461
30
0
0
LINE
5
727
100
AcDbEntity
8
0
100
AcDbLine
10
93.260805564037327
20
-27.070687900198465
30
0
11
93.260805564037327
21
-40.070515973361971
31
0
0
SPLINE
5
728
100
AcDbEntity
8
0
100
AcDbSpline
70
4
71
3
72
8
73
4
74
0
42
0.000000001
43
0.0000000001
44
0.0000000001
40
0
40
0
40
0
40
0
40
1
40
1
40
1
40
1
41
1
41
1
41
1
41
1
10
93.260805564037327
20
-40.070515973361971
30
0
10
93.260805564037327
20
-40.344976355256719
30
0
10
93.486587945000977
20
-40.570753353272124
30
0
10
93.760687669363676
20
-40.570753353272124
30
0
0
LINE
5
729
100
AcDbEntity
8
0
100
AcDbLine
10
93.760687669363676
20
-40.570753353272124
30
0
11
106.76087370858511
21
-40.570753353272124
31
0
0
SPLINE
5
730
100
AcDbEntity
8
0
100
AcDbSpline
70
4
71
3
72
8
73
4
74
0
42
0.000000001
43
0.0000000001
44
0.0000000001
40
0
40
0
40
0
40
0
40
1
40
1
40
1
40
1
41
1
41
1
41
1
41
1
10
106.76087370858511
20
-40.570753353272124
30
0
10
107.03498419884428
20
-40.570753353272124
30
0
10
107.26075581391144
20
-40.344976355256719
30
0
10
107.26075581391144
20
-40.070515973361971
30
0
0
LINE
5
731
100
AcDbEntity
8
0
100
AcDbLine
10
221.56047006391145
20
-40.070515973361971
30
0
11
221.56047006391145
21
-27.070687900198461
31
0
0
SPLINE
5
732
100
AcDbEntity
8
0
100
AcDbSpline
70
4
71
3
72
8
73
4
74
0
42
0.000000001
43
0.0000000001
44
0.0000000001
40
0
40
0
40
0
40
0
40
1
40
1
40
1
40
1
41
1
41
1
41
1
41
1
10
221.56047006391145
20
-27.070687900198461
30
0
10
221.56047006391145
20
-26.796227518303716
30
0
10
221.33468768294784
20
-26.570450520288308
30
0
10
221.06058795858513
20
-26.570450520288308
30
0
0
LINE
5
733
100
AcDbEntity
8
0
100
AcDbLine
10
221.06058795858507
20
-26.570450520288308
30
0
11
208.0604019193637
21
-26.570450520288308
31
0
0
SPLINE
5
734
100
AcDbEntity
8
0
100
AcDbSpline
70
4
71
3
72
8
73
4
74
0
42
0.000000001
43
0.0000000001
44
0.0000000001
40
0
40
0
40
0
40
0
40
1
40
1
40
1
40
1
41
1
41
1
41
1
41
1
10
208.0604019193637
20
-26.570450520288308
30
0
10
207.78630219500099
20
-26.570450520288308
30
0
10
207.56051981403732
20
-26.796227518303716
30
0
10
207.56051981403732
20
-27.070687900198461
30
0
0
LINE
5
735
100
AcDbEntity
8
0
100
AcDbLine
10
207.56051981403732
20
-27.070687900198465
30
0
11
207.56051981403732
21
-40.070515973361971
31
0
0
SPLINE
5
736
100
AcDbEntity
8
0
100
AcDbSpline
70
4
71
3
72
8
73
4
74
0
42
0.000000001
43
0.0000000001
44
0.0000000001
40
0
40
0
40
0
40
0
40
1
40
1
40
1
40
1
41
1
41
1
41
1
41
1
10
207.56051981403732
20
-40.070515973361971
30
0
10
207.56051981403732
20
-40.344976355256719
30
0
10
207.78630219500099
20
-40.570753353272124
30
0
10
208.0604019193637
20
-40.570753353272124
30
0
0
LINE
5
737
100
AcDbEntity
8
0
100
AcDbLine
10
208.06040191936373
20
-40.570753353272124
30
0
11
221.06058795858513
21
-40.570753353272124
31
0
0
SPLINE
5
738
100
AcDbEntity
8
0
100
AcDbSpline
70
4
71
3
72
8
73
4
74
0
42
0.000000001
43
0.0000000001
44
0.0000000001
40
0
40
0
40
0
40
0
40
1
40
1
40
1
40
1
41
1
41
1
41
1
41
1
10
221.06058795858513
20
-40.570753353272124
30
0
10
221.33468768294784
20
-40.570753353272124
30
0
10
221.56047006391145
20
-40.344976355256719
30
0
10
221.56047006391145
20
-40.070515973361971
30
0
0
SPLINE
5
739
100
AcDbEntity
8
0
100
AcDbSpline
70
4
71
3
72
8
73
4
74
0
42
0.000000001
43
0.0000000001
44
0.0000000001
40
0
40
0
40
0
40
0
40
1
40
1
40
1
40
1
41
1
41
1
41
1
41
1
10
30.576585939834121
20
-30.826352046679499
30
0
10
29.251906973436519
20
-30.826352046679499
30
0
10
28.176291639139023
20
-31.901967380977002
30
0
10
28.176291639139023
20
-33.226291072790787
30
0
0
SPLINE
5
740
100
AcDbEntity
8
0
100
AcDbSpline
70
4
71
3
72
8
73
4
74
0
42
0.000000001
43
0.0000000001
44
0.0000000001
40
0
40
0
40
0
40
0
40
1
40
1
40
1
40
1
41
1
41
1
41
1
41
1
10
28.176291639139023
20
-33.226291072790787
30
0
10
28.176291639139023
20
-34.550970039188385
30
0
10
29.251906973436519
20
-35.626585373485888
30
0
10
30.576585939834121
20
-35.626585373485888
30
0
0
SPLINE
5
741
100
AcDbEntity
8
0
100
AcDbSpline
70
4
71
3
72
8
73
4
74
0
42
0.000000001
43
0.0000000001
44
0.0000000001
40
0
40
0
40
0
40
0
40
1
40
1
40
1
40
1
41
1
41
1
41
1
41
1
10
30.576585939834121
20
-35.626585373485888
30
0
10
31.900909631647906
20
-35.626585373485888
30
0
10
32.976524965945401
20
-34.550970039188385
30
0
10
32.976524965945401
20
-33.226291072790787
30
0
0
SPLINE
5
742
100
AcDbEntity
8
0
100
AcDbSpline
70
4
71
3
72
8
73
4
74
0
42
0.000000001
43
0.0000000001
44
0.0000000001
40
0
40
0
40
0
40
0
40
1
40
1
40
1
40
1
41
1
41
1
41
1
41
1
10
32.976524965945401
20
-33.226291072790787
30
0
10
32.976524965945401
20
-31.901967380977002
30
0
10
31.900909631647906
20
-30.826352046679499
30
0
10
30.576585939834121
20
-30.826352046679499
30
0
0
LINE
5
743
100
AcDbEntity
8
0
100
AcDbLine
10
250.13539862641147
20
-21.020563598361971
30
0
11
250.13539862641147
21
-8.0207355251984591
31
0
0
SPLINE
5
744
100
AcDbEntity
8
0
100
AcDbSpline
70
4
71
3
72
8
73
4
74
0
42
0.000000001
43
0.0000000001
44
0.0000000001
40
0
40
0
40
0
40
0
40
1
40
1
40
1
40
1
41
1
41
1
41
1
41
1
10
250.13539862641147
20
-8.0207355251984609
30
0
10
250.13539862641147
20
-7.7462751433037136
30
0
10
249.90961624544784
20
-7.5204981452883093
30
0
10
249.63551652108509
20
-7.5204981452883093
30
0
0
LINE
5
745
100
AcDbEntity
8
0
100
AcDbLine
10
249.63551652108507
20
-7.5204981452883093
30
0
11
236.63533048186366
21
-7.5204981452883093
31
0
0
SPLINE
5
746
100
AcDbEntity
8
0
100
AcDbSpline
70
4
71
3
72
8
73
4
74
0
42
0.000000001
43
0.0000000001
44
0.0000000001
40
0
40
0
40
0
40
0
40
1
40
1
40
1
40
1
41
1
41
1
41
1
41
1
10
236.63533048186366
20
-7.5204981452883093
30
0
10
236.361230757501
20
-7.5204981452883093
30
0
10
236.13544837653734
20
-7.7462751433037136
30
0
10
236.13544837653734
20
-8.0207355251984609
30
0
0
LINE
5
747
100
AcDbEntity
8
0
100
AcDbLine
10
236.13544837653734
20
-8.0207355251984609
30
0
11
236.13544837653734
21
-21.020563598361971
31
0
0
SPLINE
5
748
100
AcDbEntity
8
0
100
AcDbSpline
70
4
71
3
72
8
73
4
74
0
42
0.000000001
43
0.0000000001
44
0.0000000001
40
0
40
0
40
0
40
0
40
1
40
1
40
1
40
1
41
1
41
1
41
1
41
1
10
236.13544837653734
20
-21.020563598361971
30
0
10
236.13544837653734
20
-21.295023980256719
30
0
10
236.361230757501
20
-21.520802324009182
30
0
10
236.63533048186366
20
-21.520802324009182
30
0
0
LINE
5
749
100
AcDbEntity
8
0
100
AcDbLine
10
236.63533048186369
20
-21.520802324009182
30
0
11
249.63551652108509
21
-21.520802324009182
31
0
0
SPLINE
5
750
100
AcDbEntity
8
0
100
AcDbSpline
70
4
71
3
72
8
73
4
74
0
42
0.000000001
43
0.0000000001
44
0.0000000001
40
0
40
0
40
0
40
0
40
1
40
1
40
1
40
1
41
1
41
1
41
1
41
1
10
249.63551652108509
20
-21.520802324009182
30
0
10
249.90961624544784
20
-21.520802324009182
30
0
10
250.13539862641147
20
-21.295023980256719
30
0
10
250.13539862641147
20
-21.020563598361971
30
0
0
LINE
5
751
100
AcDbEntity
8
0
100
AcDbLine
10
116.78573200141145
20
-21.020563598361971
30
0
11
116.78573200141145
21
-8.0207355251984591
31
0
0
SPLINE
5
752
100
AcDbEntity
8
0
100
AcDbSpline
70
4
71
3
72
8
73
4
74
0
42
0.000000001
43
0.0000000001
44
0.0000000001
40
0
40
0
40
0
40
0
40
1
40
1
40
1
40
1
41
1
41
1
41
1
41
1
10
116.78573200141145
20
-8.0207355251984609
30
0
10
116.78573200141145
20
-7.7462751433037136
30
0
10
116.55996038634429
20
-7.5204981452883093
30
0
10
116.28584989608511
20
-7.5204981452883093
30
0
0
LINE
5
753
100
AcDbEntity
8
0
100
AcDbLine
10
116.28584989608511
20
-7.5204981452883093
30
0
11
103.28566385686366
21
-7.5204981452883093
31
0
0
SPLINE
5
754
100
AcDbEntity
8
0
100
AcDbSpline
70
4
71
3
72
8
73
4
74
0
42
0.000000001
43
0.0000000001
44
0.0000000001
40
0
40
0
40
0
40
0
40
1
40
1
40
1
40
1
41
1
41
1
41
1
41
1
10
103.28566385686366
20
-7.5204981452883093
30
0
10
103.01156413250098
20
-7.5204981452883093
30
0
10
102.78578175153733
20
-7.7462751433037136
30
0
10
102.78578175153733
20
-8.0207355251984609
30
0
0
LINE
5
755
100
AcDbEntity
8
0
100
AcDbLine
10
102.78578175153733
20
-8.0207355251984609
30
0
11
102.78578175153733
21
-21.020563598361971
31
0
0
SPLINE
5
756
100
AcDbEntity
8
0
100
AcDbSpline
70
4
71
3
72
8
73
4
74
0
42
0.000000001
43
0.0000000001
44
0.0000000001
40
0
40
0
40
0
40
0
40
1
40
1
40
1
40
1
41
1
41
1
41
1
41
1
10
102.78578175153733
20
-21.020563598361971
30
0
10
102.78578175153733
20
-21.295023980256719
30
0
10
103.01156413250098
20
-21.520802324009182
30
0
10
103.28566385686366
20
-21.520802324009182
30
0
0
LINE
5
757
100
AcDbEntity
8
0
100
AcDbLine
10
103.28566385686366
20
-21.520802324009182
30
0
11
116.28584989608511
21
-21.520802324009182
31
0
0
SPLINE
5
758
100
AcDbEntity
8
0
100
AcDbSpline
70
4
71
3
72
8
73
4
74
0
42
0.000000001
43
0.0000000001
44
0.0000000001
40
0
40
0
40
0
40
0
40
1
40
1
40
1
40
1
41
1
41
1
41
1
41
1
10
116.28584989608511
20
-21.520802324009182
30
0
10
116.55996038634429
20
-21.520802324009182
30
0
10
116.78573200141145
20
-21.295023980256719
30
0
10
116.78573200141145
20
-21.020563598361971
30
0
0
LINE
5
759
100
AcDbEntity
8
0
100
AcDbLine
10
21.5359714721485
20
-21.020563598361971
30
0
11
21.5359714721485
21
-8.0207355251984591
31
0
0
SPLINE
5
760
100
AcDbEntity
8
0
100
AcDbSpline
70
4
71
3
72
8
73
4
74
0
42
0.000000001
43
0.0000000001
44
0.0000000001
40
0
40
0
40
0
40
0
40
1
40
1
40
1
40
1
41
1
41
1
41
1
41
1
10
21.5359714721485
20
-8.0207355251984609
30
0
10
21.5359714721485
20
-7.7462751433037136
30
0
10
21.310194474133098
20
-7.5204981452883093
30
0
10
21.036086675348042
20
-7.5204981452883093
30
0
0
LINE
5
761
100
AcDbEntity
8
0
100
AcDbLine
10
21.036086675348038
20
-7.5204981452883093
30
0
11
8.0359046733377753
21
-7.5204981452883093
31
0
0
SPLINE
5
762
100
AcDbEntity
8
0
100
AcDbSpline
70
4
71
3
72
8
73
4
74
0
42
0.000000001
43
0.0000000001
44
0.0000000001
40
0
40
0
40
0
40
0
40
1
40
1
40
1
40
1
41
1
41
1
41
1
41
1
10
8.0359046733377788
20
-7.5204981452883093
30
0
10
7.7617975474212573
20
-7.5204981452883093
30
0
10
7.5360198765373232
20
-7.7462751433037136
30
0
10
7.5360198765373232
20
-8.0207355251984609
30
0
0
LINE
5
763
100
AcDbEntity
8
0
100
AcDbLine
10
7.5360198765373223
20
-8.0207355251984609
30
0
11
7.5360198765373232
21
-21.020563598361971
31
0
0
SPLINE
5
764
100
AcDbEntity
8
0
100
AcDbSpline
70
4
71
3
72
8
73
4
74
0
42
0.000000001
43
0.0000000001
44
0.0000000001
40
0
40
0
40
0
40
0
40
1
40
1
40
1
40
1
41
1
41
1
41
1
41
1
10
7.5360198765373232
20
-21.020563598361971
30
0
10
7.5360198765373232
20
-21.295023980256719
30
0
10
7.7617975474212573
20
-21.520802324009182
30
0
10
8.0359046733377788
20
-21.520802324009182
30
0
0
LINE
5
765
100
AcDbEntity
8
0
100
AcDbLine
10
8.0359046733377788
20
-21.520802324009182
30
0
11
21.036086675348045
21
-21.520802324009182
31
0
0
SPLINE
5
766
100
AcDbEntity
8
0
100
AcDbSpline
70
4
71
3
72
8
73
4
74
0
42
0.000000001
43
0.0000000001
44
0.0000000001
40
0
40
0
40
0
40
0
40
1
40
1
40
1
40
1
41
1
41
1
41
1
41
1
10
21.036086675348042
20
-21.520802324009182
30
0
10
21.310194474133098
20
-21.520802324009182
30
0
10
21.5359714721485
20
-21.295023980256719
30
0
10
21.5359714721485
20
-21.020563598361971
30
0
0
LINE
5
767
100
AcDbEntity
8
0
100
AcDbLine
10
97.735779626411443
20
-21.020563598361971
30
0
11
97.735779626411443
21
-8.0207355251984591
31
0
0
SPLINE
5
768
100
AcDbEntity
8
0
100
AcDbSpline
70
4
71
3
72
8
73
4
74
0
42
0.000000001
43
0.0000000001
44
0.0000000001
40
0
40
0
40
0
40
0
40
1
40
1
40
1
40
1
41
1
41
1
41
1
41
1
10
97.735779626411443
20
-8.0207355251984609
30
0
10
97.735779626411443
20
-7.7462751433037136
30
0
10
97.510008011344269
20
-7.5204981452883093
30
0
10
97.235897521085107
20
-7.5204981452883093
30
0
0
LINE
5
769
100
AcDbEntity
8
0
100
AcDbLine
10
97.235897521085107
20
-7.5204981452883093
30
0
11
84.235716864811906
21
-7.5204981452883093
31
0
0
SPLINE
5
770
100
AcDbEntity
8
0
100
AcDbSpline
70
4
71
3
72
8
73
4
74
0
42
0.000000001
43
0.0000000001
44
0.0000000001
40
0
40
0
40
0
40
0
40
1
40
1
40
1
40
1
41
1
41
1
41
1
41
1
10
84.235716864811891
20
-7.5204981452883093
30
0
10
83.961606374552744
20
-7.5204981452883093
30
0
10
83.735829376537339
20
-7.7462751433037136
30
0
10
83.735829376537339
20
-8.0207355251984609
30
0
0
LINE
5
771
100
AcDbEntity
8
0
100
AcDbLine
10
83.735829376537339
20
-8.0207355251984609
30
0
11
83.735829376537339
21
-21.020563598361971
31
0
0
SPLINE
5
772
100
AcDbEntity
8
0
100
AcDbSpline
70
4
71
3
72
8
73
4
74
0
42
0.000000001
43
0.0000000001
44
0.0000000001
40
0
40
0
40
0
40
0
40
1
40
1
40
1
40
1
41
1
41
1
41
1
41
1
10
83.735829376537339
20
-21.020563598361971
30
0
10
83.735829376537339
20
-21.295023980256719
30
0
10
83.961606374552744
20
-21.520802324009182
30
0
10
84.235716864811891
20
-21.520802324009182
30
0
0
LINE
5
773
100
AcDbEntity
8
0
100
AcDbLine
10
84.235716864811891
20
-21.520802324009182
30
0
11
97.235897521085093
21
-21.520802324009182
31
0
0
SPLINE
5
774
100
AcDbEntity
8
0
100
AcDbSpline
70
4
71
3
72
8
73
4
74
0
42
0.000000001
43
0.0000000001
44
0.0000000001
40
0
40
0
40
0
40
0
40
1
40
1
40
1
40
1
41
1
41
1
41
1
41
1
10
97.235897521085107
20
-21.520802324009182
30
0
10
97.510008011344269
20
-21.520802324009182
30
0
10
97.735779626411443
20
-21.295023980256719
30
0
10
97.735779626411443
20
-21.020563598361971
30
0
0
LINE
5
775
100
AcDbEntity
8
0
100
AcDbLine
10
27.085857048337779
20
-21.520802324009182
30
0
11
40.086037704610987
21
-21.520802324009182
31
0
0
SPLINE
5
776
100
AcDbEntity
8
0
100
AcDbSpline
70
4
71
3
72
8
73
4
74
0
42
0.000000001
43
0.0000000001
44
0.0000000001
40
0
40
0
40
0
40
0
40
1
40
1
40
1
40
1
41
1
41
1
41
1
41
1
10
40.086037704610987
20
-21.520802324009182
30
0
10
40.360145503396041
20
-21.520802324009182
30
0
10
40.585922501411446
20
-21.295023980256719
30
0
10
40.585922501411446
20
-21.020563598361971
30
0
0
LINE
5
777
100
AcDbEntity
8
0
100
AcDbLine
10
40.585922501411446
20
-21.020563598361967
30
0
11
40.585922501411446
21
-8.0207355251984591
31
0
0
SPLINE
5
778
100
AcDbEntity
8
0
100
AcDbSpline
70
4
71
3
72
8
73
4
74
0
42
0.000000001
43
0.0000000001
44
0.0000000001
40
0
40
0
40
0
40
0
40
1
40
1
40
1
40
1
41
1
41
1
41
1
41
1
10
40.585922501411446
20
-8.0207355251984609
30
0
10
40.585922501411446
20
-7.7462751433037136
30
0
10
40.360145503396041
20
-7.5204981452883093
30
0
10
40.086037704610987
20
-7.5204981452883093
30
0
0
LINE
5
779
100
AcDbEntity
8
0
100
AcDbLine
10
40.086037704610987
20
-7.5204981452883093
30
0
11
27.085857048337779
21
-7.5204981452883093
31
0
0
SPLINE
5
780
100
AcDbEntity
8
0
100
AcDbSpline
70
4
71
3
72
8
73
4
74
0
42
0.000000001
43
0.0000000001
44
0.0000000001
40
0
40
0
40
0
40
0
40
1
40
1
40
1
40
1
41
1
41
1
41
1
41
1
10
27.085857048337779
20
-7.5204981452883093
30
0
10
26.811749249552726
20
-7.5204981452883093
30
0
10
26.585972251537324
20
-7.7462751433037136
30
0
10
26.585972251537324
20
-8.0207355251984609
30
0
0
LINE
5
781
100
AcDbEntity
8
0
100
AcDbLine
10
26.585972251537324
20
-8.0207355251984609
30
0
11
26.585972251537324
21
-21.020563598361971
31
0
0
SPLINE
5
782
100
AcDbEntity
8
0
100
AcDbSpline
70
4
71
3
72
8
73
4
74
0
42
0.000000001
43
0.0000000001
44
0.0000000001
40
0
40
0
40
0
40
0
40
1
40
1
40
1
40
1
41
1
41
1
41
1
41
1
10
26.585972251537324
20
-21.020563598361971
30
0
10
26.585972251537324
20
-21.295023980256719
30
0
10
26.811749249552726
20
-21.520802324009182
30
0
10
27.085857048337779
20
-21.520802324009182
30
0
0
LINE
5
783
100
AcDbEntity
8
0
100
AcDbLine
10
192.98554150141143
20
-21.020563598361971
30
0
11
192.98554150141143
21
-8.0207355251984591
31
0
0
SPLINE
5
784
100
AcDbEntity
8
0
100
AcDbSpline
70
4
71
3
72
8
73
4
74
0
42
0.000000001
43
0.0000000001
44
0.0000000001
40
0
40
0
40
0
40
0
40
1
40
1
40
1
40
1
41
1
41
1
41
1
41
1
10
192.98554150141143
20
-8.0207355251984609
30
0
10
192.98554150141143
20
-7.7462751433037136
30
0
10
192.75975912044782
20
-7.5204981452883093
30
0
10
192.48565939608511
20
-7.5204981452883093
30
0
0
LINE
5
785
100
AcDbEntity
8
0
100
AcDbLine
10
192.48565939608508
20
-7.5204981452883093
30
0
11
179.48547335686368
21
-7.5204981452883093
31
0
0
SPLINE
5
786
100
AcDbEntity
8
0
100
AcDbSpline
70
4
71
3
72
8
73
4
74
0
42
0.000000001
43
0.0000000001
44
0.0000000001
40
0
40
0
40
0
40
0
40
1
40
1
40
1
40
1
41
1
41
1
41
1
41
1
10
179.48547335686368
20
-7.5204981452883093
30
0
10
179.21137363250099
20
-7.5204981452883093
30
0
10
178.98559125153736
20
-7.7462751433037136
30
0
10
178.98559125153736
20
-8.0207355251984609
30
0
0
LINE
5
787
100
AcDbEntity
8
0
100
AcDbLine
10
178.98559125153736
20
-8.0207355251984609
30
0
11
178.98559125153736
21
-21.020563598361971
31
0
0
SPLINE
5
788
100
AcDbEntity
8
0
100
AcDbSpline
70
4
71
3
72
8
73
4
74
0
42
0.000000001
43
0.0000000001
44
0.0000000001
40
0
40
0
40
0
40
0
40
1
40
1
40
1
40
1
41
1
41
1
41
1
41
1
10
178.98559125153736
20
-21.020563598361971
30
0
10
178.98559125153736
20
-21.295023980256719
30
0
10
179.21137363250099
20
-21.520802324009182
30
0
10
179.48547335686368
20
-21.520802324009182
30
0
0
LINE
5
789
100
AcDbEntity
8
0
100
AcDbLine
10
179.48547335686371
20
-21.520802324009182
30
0
11
192.48565939608511
21
-21.520802324009182
31
0
0
SPLINE
5
790
100
AcDbEntity
8
0
100
AcDbSpline
70
4
71
3
72
8
73
4
74
0
42
0.000000001
43
0.0000000001
44
0.0000000001
40
0
40
0
40
0
40
0
40
1
40
1
40
1
40
1
41
1
41
1
41
1
41
1
10
192.48565939608511
20
-21.520802324009182
30
0
10
192.75975912044782
20
-21.520802324009182
30
0
10
192.98554150141143
20
-21.295023980256719
30
0
10
192.98554150141143
20
-21.020563598361971
30
0
0
LINE
5
791
100
AcDbEntity
8
0
100
AcDbLine
10
59.635874876411449
20
-21.020563598361971
30
0
11
59.635874876411449
21
-8.0207355251984591
31
0
0
SPLINE
5
792
100
AcDbEntity
8
0
100
AcDbSpline
70
4
71
3
72
8
73
4
74
0
42
0.000000001
43
0.0000000001
44
0.0000000001
40
0
40
0
40
0
40
0
40
1
40
1
40
1
40
1
41
1
41
1
41
1
41
1
10
59.635874876411449
20
-8.0207355251984609
30
0
10
59.635874876411449
20
-7.7462751433037136
30
0
10
59.410097878396037
20
-7.5204981452883093
30
0
10
59.135992771085107
20
-7.5204981452883093
30
0
0
LINE
5
793
100
AcDbEntity
8
0
100
AcDbLine
10
59.135992771085107
20
-7.5204981452883093
30
0
11
46.135812114811898
21
-7.5204981452883093
31
0
0
SPLINE
5
794
100
AcDbEntity
8
0
100
AcDbSpline
70
4
71
3
72
8
73
4
74
0
42
0.000000001
43
0.0000000001
44
0.0000000001
40
0
40
0
40
0
40
0
40
1
40
1
40
1
40
1
41
1
41
1
41
1
41
1
10
46.135812114811898
20
-7.5204981452883093
30
0
10
45.861701624552722
20
-7.5204981452883093
30
0
10
45.635924626537332
20
-7.7462751433037136
30
0
10
45.635924626537332
20
-8.0207355251984609
30
0
0
LINE
5
795
100
AcDbEntity
8
0
100
AcDbLine
10
45.635924626537332
20
-8.0207355251984609
30
0
11
45.635924626537332
21
-21.020563598361971
31
0
0
SPLINE
5
796
100
AcDbEntity
8
0
100
AcDbSpline
70
4
71
3
72
8
73
4
74
0
42
0.000000001
43
0.0000000001
44
0.0000000001
40
0
40
0
40
0
40
0
40
1
40
1
40
1
40
1
41
1
41
1
41
1
41
1
10
45.635924626537332
20
-21.020563598361971
30
0
10
45.635924626537332
20
-21.295023980256719
30
0
10
45.861701624552722
20
-21.520802324009182
30
0
10
46.135812114811898
20
-21.520802324009182
30
0
0
LINE
5
797
100
AcDbEntity
8
0
100
AcDbLine
10
46.135812114811898
20
-21.520802324009182
30
0
11
59.135992771085107
21
-21.520802324009182
31
0
0
SPLINE
5
798
100
AcDbEntity
8
0
100
AcDbSpline
70
4
71
3
72
8
73
4
74
0
42
0.000000001
43
0.0000000001
44
0.0000000001
40
0
40
0
40
0
40
0
40
1
40
1
40
1
40
1
41
1
41
1
41
1
41
1
10
59.135992771085107
20
-21.520802324009182
30
0
10
59.410097878396037
20
-21.520802324009182
30
0
10
59.635874876411449
20
-21.295023980256719
30
0
10
59.635874876411449
20
-21.020563598361971
30
0
0
LINE
5
799
100
AcDbEntity
8
0
100
AcDbLine
10
231.08544625141147
20
-21.020563598361971
30
0
11
231.08544625141147
21
-8.0207355251984591
31
0
0
SPLINE
5
800
100
AcDbEntity
8
0
100
AcDbSpline
70
4
71
3
72
8
73
4
74
0
42
0.000000001
43
0.0000000001
44
0.0000000001
40
0
40
0
40
0
40
0
40
1
40
1
40
1
40
1
41
1
41
1
41
1
41
1
10
231.08544625141147
20
-8.0207355251984609
30
0
10
231.08544625141147
20
-7.7462751433037136
30
0
10
230.8596638704478
20
-7.5204981452883093
30
0
10
230.58556414608512
20
-7.5204981452883093
30
0
0
LINE
5
801
100
AcDbEntity
8
0
100
AcDbLine
10
230.58556414608506
20
-7.5204981452883093
30
0
11
217.58537810686366
21
-7.5204981452883093
31
0
0
SPLINE
5
802
100
AcDbEntity
8
0
100
AcDbSpline
70
4
71
3
72
8
73
4
74
0
42
0.000000001
43
0.0000000001
44
0.0000000001
40
0
40
0
40
0
40
0
40
1
40
1
40
1
40
1
41
1
41
1
41
1
41
1
10
217.58537810686366
20
-7.5204981452883093
30
0
10
217.311278382501
20
-7.5204981452883093
30
0
10
217.08549600153734
20
-7.7462751433037136
30
0
10
217.08549600153734
20
-8.0207355251984609
30
0
0
LINE
5
803
100
AcDbEntity
8
0
100
AcDbLine
10
217.08549600153734
20
-8.0207355251984609
30
0
11
217.08549600153734
21
-21.020563598361971
31
0
0
SPLINE
5
804
100
AcDbEntity
8
0
100
AcDbSpline
70
4
71
3
72
8
73
4
74
0
42
0.000000001
43
0.0000000001
44
0.0000000001
40
0
40
0
40
0
40
0
40
1
40
1
40
1
40
1
41
1
41
1
41
1
41
1
10
217.08549600153734
20
-21.020563598361971
30
0
10
217.08549600153734
20
-21.295023980256719
30
0
10
217.311278382501
20
-21.520802324009182
30
0
10
217.58537810686366
20
-21.520802324009182
30
0
0
LINE
5
805
100
AcDbEntity
8
0
100
AcDbLine
10
217.58537810686369
20
-21.520802324009182
30
0
11
230.58556414608512
21
-21.520802324009182
31
0
0
SPLINE
5
806
100
AcDbEntity
8
0
100
AcDbSpline
70
4
71
3
72
8
73
4
74
0
42
0.000000001
43
0.0000000001
44
0.0000000001
40
0
40
0
40
0
40
0
40
1
40
1
40
1
40
1
41
1
41
1
41
1
41
1
10
230.58556414608512
20
-21.520802324009182
30
0
10
230.8596638704478
20
-21.520802324009182
30
0
10
231.08544625141147
20
-21.295023980256719
30
0
10
231.08544625141147
20
-21.020563598361971
30
0
0
LINE
5
807
100
AcDbEntity
8
0
100
AcDbLine
10
135.83568437641145
20
-21.020563598361971
30
0
11
135.83568437641145
21
-8.0207355251984591
31
0
0
SPLINE
5
808
100
AcDbEntity
8
0
100
AcDbSpline
70
4
71
3
72
8
73
4
74
0
42
0.000000001
43
0.0000000001
44
0.0000000001
40
0
40
0
40
0
40
0
40
1
40
1
40
1
40
1
41
1
41
1
41
1
41
1
10
135.83568437641145
20
-8.0207355251984609
30
0
10
135.83568437641145
20
-7.7462751433037136
30
0
10
135.60991276134428
20
-7.5204981452883093
30
0
10
135.33580227108513
20
-7.5204981452883093
30
0
0
LINE
5
809
100
AcDbEntity
8
0
100
AcDbLine
10
135.33580227108513
20
-7.5204981452883093
30
0
11
122.33561623186368
21
-7.5204981452883093
31
0
0
SPLINE
5
810
100
AcDbEntity
8
0
100
AcDbSpline
70
4
71
3
72
8
73
4
74
0
42
0.000000001
43
0.0000000001
44
0.0000000001
40
0
40
0
40
0
40
0
40
1
40
1
40
1
40
1
41
1
41
1
41
1
41
1
10
122.33561623186368
20
-7.5204981452883093
30
0
10
122.06151650750098
20
-7.5204981452883093
30
0
10
121.83573412653732
20
-7.7462751433037136
30
0
10
121.83573412653732
20
-8.0207355251984609
30
0
0
LINE
5
811
100
AcDbEntity
8
0
100
AcDbLine
10
121.83573412653732
20
-8.0207355251984609
30
0
11
121.83573412653732
21
-21.020563598361971
31
0
0
SPLINE
5
812
100
AcDbEntity
8
0
100
AcDbSpline
70
4
71
3
72
8
73
4
74
0
42
0.000000001
43
0.0000000001
44
0.0000000001
40
0
40
0
40
0
40
0
40
1
40
1
40
1
40
1
41
1
41
1
41
1
41
1
10
121.83573412653732
20
-21.020563598361971
30
0
10
121.83573412653732
20
-21.295023980256719
30
0
10
122.06151650750098
20
-21.520802324009182
30
0
10
122.33561623186368
20
-21.520802324009182
30
0
0
LINE
5
813
100
AcDbEntity
8
0
100
AcDbLine
10
122.33561623186368
20
-21.520802324009182
30
0
11
135.33580227108513
21
-21.520802324009182
31
0
0
SPLINE
5
814
100
AcDbEntity
8
0
100
AcDbSpline
70
4
71
3
72
8
73
4
74
0
42
0.000000001
43
0.0000000001
44
0.0000000001
40
0
40
0
40
0
40
0
40
1
40
1
40
1
40
1
41
1
41
1
41
1
41
1
10
135.33580227108513
20
-21.520802324009182
30
0
10
135.60991276134428
20
-21.520802324009182
30
0
10
135.83568437641145
20
-21.295023980256719
30
0
10
135.83568437641145
20
-21.020563598361971
30
0
0
LINE
5
815
100
AcDbEntity
8
0
100
AcDbLine
10
154.88563675141143
20
-21.020563598361971
30
0
11
154.88563675141143
21
-8.0207355251984591
31
0
0
SPLINE
5
816
100
AcDbEntity
8
0
100
AcDbSpline
70
4
71
3
72
8
73
4
74
0
42
0.000000001
43
0.0000000001
44
0.0000000001
40
0
40
0
40
0
40
0
40
1
40
1
40
1
40
1
41
1
41
1
41
1
41
1
10
154.88563675141143
20
-8.0207355251984609
30
0
10
154.88563675141143
20
-7.7462751433037136
30
0
10
154.65986513634428
20
-7.5204981452883093
30
0
10
154.3857546460851
20
-7.5204981452883093
30
0
0
LINE
5
817
100
AcDbEntity
8
0
100
AcDbLine
10
154.3857546460851
20
-7.5204981452883093
30
0
11
141.38556860686367
21
-7.5204981452883093
31
0
0
SPLINE
5
818
100
AcDbEntity
8
0
100
AcDbSpline
70
4
71
3
72
8
73
4
74
0
42
0.000000001
43
0.0000000001
44
0.0000000001
40
0
40
0
40
0
40
0
40
1
40
1
40
1
40
1
41
1
41
1
41
1
41
1
10
141.38556860686367
20
-7.5204981452883093
30
0
10
141.11146888250096
20
-7.5204981452883093
30
0
10
140.88568650153732
20
-7.7462751433037136
30
0
10
140.88568650153732
20
-8.0207355251984609
30
0
0
LINE
5
819
100
AcDbEntity
8
0
100
AcDbLine
10
140.88568650153732
20
-8.0207355251984609
30
0
11
140.88568650153732
21
-21.020563598361971
31
0
0
SPLINE
5
820
100
AcDbEntity
8
0
100
AcDbSpline
70
4
71
3
72
8
73
4
74
0
42
0.000000001
43
0.0000000001
44
0.0000000001
40
0
40
0
40
0
40
0
40
1
40
1
40
1
40
1
41
1
41
1
41
1
41
1
10
140.88568650153732
20
-21.020563598361971
30
0
10
140.88568650153732
20
-21.295023980256719
30
0
10
141.11146888250096
20
-21.520802324009182
30
0
10
141.38556860686367
20
-21.520802324009182
30
0
0
LINE
5
821
100
AcDbEntity
8
0
100
AcDbLine
10
141.38556860686367
20
-21.520802324009182
30
0
11
154.3857546460851
21
-21.520802324009182
31
0
0
SPLINE
5
822
100
AcDbEntity
8
0
100
AcDbSpline
70
4
71
3
72
8
73
4
74
0
42
0.000000001
43
0.0000000001
44
0.0000000001
40
0
40
0
40
0
40
0
40
1
40
1
40
1
40
1
41
1
41
1
41
1
41
1
10
154.3857546460851
20
-21.520802324009182
30
0
10
154.65986513634428
20
-21.520802324009182
30
0
10
154.88563675141143
20
-21.295023980256719
30
0
10
154.88563675141143
20
-21.020563598361971
30
0
0
LINE
5
823
100
AcDbEntity
8
0
100
AcDbLine
10
212.03549387641144
20
-21.020563598361971
30
0
11
212.03549387641144
21
-8.0207355251984591
31
0
0
SPLINE
5
824
100
AcDbEntity
8
0
100
AcDbSpline
70
4
71
3
72
8
73
4
74
0
42
0.000000001
43
0.0000000001
44
0.0000000001
40
0
40
0
40
0
40
0
40
1
40
1
40
1
40
1
41
1
41
1
41
1
41
1
10
212.03549387641144
20
-8.0207355251984609
30
0
10
212.03549387641144
20
-7.7462751433037136
30
0
10
211.8097114954478
20
-7.5204981452883093
30
0
10
211.53561177108512
20
-7.5204981452883093
30
0
0
LINE
5
825
100
AcDbEntity
8
0
100
AcDbLine
10
211.53561177108509
20
-7.5204981452883093
30
0
11
198.53542573186365
21
-7.5204981452883093
31
0
0
SPLINE
5
826
100
AcDbEntity
8
0
100
AcDbSpline
70
4
71
3
72
8
73
4
74
0
42
0.000000001
43
0.0000000001
44
0.0000000001
40
0
40
0
40
0
40
0
40
1
40
1
40
1
40
1
41
1
41
1
41
1
41
1
10
198.53542573186365
20
-7.5204981452883093
30
0
10
198.261326007501
20
-7.5204981452883093
30
0
10
198.03554362653733
20
-7.7462751433037136
30
0
10
198.03554362653733
20
-8.0207355251984609
30
0
0
LINE
5
827
100
AcDbEntity
8
0
100
AcDbLine
10
198.03554362653733
20
-8.0207355251984609
30
0
11
198.03554362653733
21
-21.020563598361971
31
0
0
SPLINE
5
828
100
AcDbEntity
8
0
100
AcDbSpline
70
4
71
3
72
8
73
4
74
0
42
0.000000001
43
0.0000000001
44
0.0000000001
40
0
40
0
40
0
40
0
40
1
40
1
40
1
40
1
41
1
41
1
41
1
41
1
10
198.03554362653733
20
-21.020563598361971
30
0
10
198.03554362653733
20
-21.295023980256719
30
0
10
198.261326007501
20
-21.520802324009182
30
0
10
198.53542573186365
20
-21.520802324009182
30
0
0
LINE
5
829
100
AcDbEntity
8
0
100
AcDbLine
10
198.53542573186371
20
-21.520802324009182
30
0
11
211.53561177108512
21
-21.520802324009182
31
0
0
SPLINE
5
830
100
AcDbEntity
8
0
100
AcDbSpline
70
4
71
3
72
8
73
4
74
0
42
0.000000001
43
0.0000000001
44
0.0000000001
40
0
40
0
40
0
40
0
40
1
40
1
40
1
40
1
41
1
41
1
41
1
41
1
10
211.53561177108512
20
-21.520802324009182
30
0
10
211.8097114954478
20
-21.520802324009182
30
0
10
212.03549387641144
20
-21.295023980256719
30
0
10
212.03549387641144
20
-21.020563598361971
30
0
0
LINE
5
831
100
AcDbEntity
8
0
100
AcDbLine
10
173.93558912641143
20
-21.020563598361971
30
0
11
173.93558912641143
21
-8.0207355251984591
31
0
0
SPLINE
5
832
100
AcDbEntity
8
0
100
AcDbSpline
70
4
71
3
72
8
73
4
74
0
42
0.000000001
43
0.0000000001
44
0.0000000001
40
0
40
0
40
0
40
0
40
1
40
1
40
1
40
1
41
1
41
1
41
1
41
1
10
173.93558912641143
20
-8.0207355251984609
30
0
10
173.93558912641143
20
-7.7462751433037136
30
0
10
173.70981751134426
20
-7.5204981452883093
30
0
10
173.43570702108511
20
-7.5204981452883093
30
0
0
LINE
5
833
100
AcDbEntity
8
0
100
AcDbLine
10
173.43570702108511
20
-7.5204981452883093
30
0
11
160.43552098186368
21
-7.5204981452883093
31
0
0
SPLINE
5
834
100
AcDbEntity
8
0
100
AcDbSpline
70
4
71
3
72
8
73
4
74
0
42
0.000000001
43
0.0000000001
44
0.0000000001
40
0
40
0
40
0
40
0
40
1
40
1
40
1
40
1
41
1
41
1
41
1
41
1
10
160.43552098186368
20
-7.5204981452883093
30
0
10
160.16142125750096
20
-7.5204981452883093
30
0
10
159.93563887653733
20
-7.7462751433037136
30
0
10
159.93563887653733
20
-8.0207355251984609
30
0
0
LINE
5
835
100
AcDbEntity
8
0
100
AcDbLine
10
159.93563887653733
20
-8.0207355251984609
30
0
11
159.93563887653733
21
-21.020563598361971
31
0
0
SPLINE
5
836
100
AcDbEntity
8
0
100
AcDbSpline
70
4
71
3
72
8
73
4
74
0
42
0.000000001
43
0.0000000001
44
0.0000000001
40
0
40
0
40
0
40
0
40
1
40
1
40
1
40
1
41
1
41
1
41
1
41
1
10
159.93563887653733
20
-21.020563598361971
30
0
10
159.93563887653733
20
-21.295023980256719
30
0
10
160.16142125750096
20
-21.520802324009182
30
0
10
160.43552098186368
20
-21.520802324009182
30
0
0
LINE
5
837
100
AcDbEntity
8
0
100
AcDbLine
10
160.4355209818637
20
-21.520802324009182
30
0
11
173.43570702108511
21
-21.520802324009182
31
0
0
SPLINE
5
838
100
AcDbEntity
8
0
100
AcDbSpline
70
4
71
3
72
8
73
4
74
0
42
0.000000001
43
0.0000000001
44
0.0000000001
40
0
40
0
40
0
40
0
40
1
40
1
40
1
40
1
41
1
41
1
41
1
41
1
10
173.43570702108511
20
-21.520802324009182
30
0
10
173.70981751134426
20
-21.520802324009182
30
0
10
173.93558912641143
20
-21.295023980256719
30
0
10
173.93558912641143
20
-21.020563598361971
30
0
0
LINE
5
839
100
AcDbEntity
8
0
100
AcDbLine
10
78.685827251411439
20
-21.020563598361971
30
0
11
78.685827251411439
21
-8.0207355251984591
31
0
0
SPLINE
5
840
100
AcDbEntity
8
0
100
AcDbSpline
70
4
71
3
72
8
73
4
74
0
42
0.000000001
43
0.0000000001
44
0.0000000001
40
0
40
0
40
0
40
0
40
1
40
1
40
1
40
1
41
1
41
1
41
1
41
1
10
78.685827251411439
20
-8.0207355251984609
30
0
10
78.685827251411439
20
-7.7462751433037136
30
0
10
78.460050253396034
20
-7.5204981452883093
30
0
10
78.185945146085103
20
-7.5204981452883093
30
0
0
LINE
5
841
100
AcDbEntity
8
0
100
AcDbLine
10
78.185945146085103
20
-7.5204981452883093
30
0
11
65.185764489811902
21
-7.5204981452883093
31
0
0
SPLINE
5
842
100
AcDbEntity
8
0
100
AcDbSpline
70
4
71
3
72
8
73
4
74
0
42
0.000000001
43
0.0000000001
44
0.0000000001
40
0
40
0
40
0
40
0
40
1
40
1
40
1
40
1
41
1
41
1
41
1
41
1
10
65.185764489811902
20
-7.5204981452883093
30
0
10
64.911653999552726
20
-7.5204981452883093
30
0
10
64.685877001537321
20
-7.7462751433037136
30
0
10
64.685877001537321
20
-8.0207355251984609
30
0
0
LINE
5
843
100
AcDbEntity
8
0
100
AcDbLine
10
64.685877001537321
20
-8.0207355251984609
30
0
11
64.685877001537321
21
-21.020563598361971
31
0
0
SPLINE
5
844
100
AcDbEntity
8
0
100
AcDbSpline
70
4
71
3
72
8
73
4
74
0
42
0.000000001
43
0.0000000001
44
0.0000000001
40
0
40
0
40
0
40
0
40
1
40
1
40
1
40
1
41
1
41
1
41
1
41
1
10
64.685877001537321
20
-21.020563598361971
30
0
10
64.685877001537321
20
-21.295023980256719
30
0
10
64.911653999552726
20
-21.520802324009182
30
0
10
65.185764489811902
20
-21.520802324009182
30
0
0
LINE
5
845
100
AcDbEntity
8
0
100
AcDbLine
10
65.185764489811902
20
-21.520802324009182
30
0
11
78.185945146085103
21
-21.520802324009182
31
0
0
SPLINE
5
846
100
AcDbEntity
8
0
100
AcDbSpline
70
4
71
3
72
8
73
4
74
0
42
0.000000001
43
0.0000000001
44
0.0000000001
40
0
40
0
40
0
40
0
40
1
40
1
40
1
40
1
41
1
41
1
41
1
41
1
10
78.185945146085103
20
-21.520802324009182
30
0
10
78.460050253396034
20
-21.520802324009182
30
0
10
78.685827251411439
20
-21.295023980256719
30
0
10
78.685827251411439
20
-21.020563598361971
30
0
0
SPLINE
5
847
100
AcDbEntity
8
0
100
AcDbSpline
70
4
71
3
72
8
73
4
74
0
42
0.000000001
43
0.0000000001
44
0.0000000001
40
0
40
0
40
0
40
0
40
1
40
1
40
1
40
1
41
1
41
1
41
1
41
1
10
269.18535100141145
20
-7.9268966071423295
30
0
10
269.18535100141145
20
-7.7025306144342434
30
0
10
269.0033212237397
20
-7.5204981452883093
30
0
10
268.77895994111122
20
-7.5204981452883093
30
0
0
LINE
5
848
100
AcDbEntity
8
0
100
AcDbLine
10
268.77895994111128
20
-7.5204981452883093
30
0
11
255.59179181183751
21
-7.5204981452883093
31
0
0
SPLINE
5
849
100
AcDbEntity
8
0
100
AcDbSpline
70
4
71
3
72
8
73
4
74
0
42
0.000000001
43
0.0000000001
44
0.0000000001
40
0
40
0
40
0
40
0
40
1
40
1
40
1
40
1
41
1
41
1
41
1
41
1
10
255.59179181183754
20
-7.5204981452883093
30
0
10
255.36708602052184
20
-7.5204981452883093
30
0
10
255.18540075153734
20
-7.7025306144342434
30
0
10
255.18540075153734
20
-7.9268966071423295
30
0
0
LINE
5
850
100
AcDbEntity
8
0
100
AcDbLine
10
255.18540075153734
20
-7.9268966071423304
30
0
11
255.18540075153734
21
-21.11440318928663
31
0
0
SPLINE
5
851
100
AcDbEntity
8
0
100
AcDbSpline
70
4
71
3
72
8
73
4
74
0
42
0.000000001
43
0.0000000001
44
0.0000000001
40
0
40
0
40
0
40
0
40
1
40
1
40
1
40
1
41
1
41
1
41
1
41
1
10
255.18540075153734
20
-21.11440318928663
30
0
10
255.18540075153734
20
-21.33876850912619
30
0
10
255.36708602052184
20
-21.520802324009182
30
0
10
255.59179181183754
20
-21.520802324009182
30
0
0
LINE
5
852
100
AcDbEntity
8
0
100
AcDbLine
10
255.59179181183754
20
-21.520802324009178
30
0
11
268.77895994111128
21
-21.520802324009182
31
0
0
SPLINE
5
853
100
AcDbEntity
8
0
100
AcDbSpline
70
4
71
3
72
8
73
4
74
0
42
0.000000001
43
0.0000000001
44
0.0000000001
40
0
40
0
40
0
40
0
40
1
40
1
40
1
40
1
41
1
41
1
41
1
41
1
10
268.77895994111122
20
-21.520802324009182
30
0
10
269.0033212237397
20
-21.520802324009182
30
0
10
269.18535100141145
20
-21.33876850912619
30
0
10
269.18535100141145
20
-21.11440318928663
30
0
0
LINE
5
854
100
AcDbEntity
8
0
100
AcDbLine
10
269.18535100141145
20
-21.11440318928663
30
0
11
269.18535100141145
21
-7.9268966071423295
31
0
0
SPLINE
5
855
100
AcDbEntity
8
0
100
AcDbSpline
70
4
71
3
72
8
73
4
74
0
42
0.000000001
43
0.0000000001
44
0.0000000001
40
0
40
0
40
0
40
0
40
1
40
1
40
1
40
1
41
1
41
1
41
1
41
1
10
288.23530337641148
20
-7.9268966071423295
30
0
10
288.23530337641148
20
-7.7025306144342434
30
0
10
288.05327359873962
20
-7.5204981452883093
30
0
10
287.82891231611126
20
-7.5204981452883093
30
0
0
LINE
5
856
100
AcDbEntity
8
0
100
AcDbLine
10
287.82891231611131
20
-7.5204981452883093
30
0
11
274.64174418683751
21
-7.5204981452883093
31
0
0
SPLINE
5
857
100
AcDbEntity
8
0
100
AcDbSpline
70
4
71
3
72
8
73
4
74
0
42
0.000000001
43
0.0000000001
44
0.0000000001
40
0
40
0
40
0
40
0
40
1
40
1
40
1
40
1
41
1
41
1
41
1
41
1
10
274.64174418683751
20
-7.5204981452883093
30
0
10
274.41703839552184
20
-7.5204981452883093
30
0
10
274.23535312653735
20
-7.7025306144342434
30
0
10
274.23535312653735
20
-7.9268966071423295
30
0
0
LINE
5
858
100
AcDbEntity
8
0
100
AcDbLine
10
274.23535312653735
20
-7.9268966071423304
30
0
11
274.23535312653735
21
-21.11440318928663
31
0
0
SPLINE
5
859
100
AcDbEntity
8
0
100
AcDbSpline
70
4
71
3
72
8
73
4
74
0
42
0.000000001
43
0.0000000001
44
0.0000000001
40
0
40
0
40
0
40
0
40
1
40
1
40
1
40
1
41
1
41
1
41
1
41
1
10
274.23535312653735
20
-21.11440318928663
30
0
10
274.23535312653735
20
-21.33876850912619
30
0
10
274.41703839552184
20
-21.520802324009182
30
0
10
274.64174418683751
20
-21.520802324009182
30
0
0
LINE
5
860
100
AcDbEntity
8
0
100
AcDbLine
10
274.64174418683751
20
-21.520802324009178
30
0
11
287.82891231611126
21
-21.520802324009182
31
0
0
SPLINE
5
861
100
AcDbEntity
8
0
100
AcDbSpline
70
4
71
3
72
8
73
4
74
0
42
0.000000001
43
0.0000000001
44
0.0000000001
40
0
40
0
40
0
40
0
40
1
40
1
40
1
40
1
41
1
41
1
41
1
41
1
10
287.82891231611126
20
-21.520802324009182
30
0
10
288.05327359873962
20
-21.520802324009182
30
0
10
288.23530337641148
20
-21.33876850912619
30
0
10
288.23530337641148
20
-21.11440318928663
30
0
0
LINE
5
862
100
AcDbEntity
8
0
100
AcDbLine
10
288.23530337641148
20
-21.11440318928663
30
0
11
288.23530337641148
21
-7.9268966071423295
31
0
0
ENDSEC
0
SECTION
2
OBJECTS
0
DICTIONARY
5
C
100
AcDbDictionary
3
ACAD_GROUP
350
D
3
ACAD_MLINESTYLE
350
17
0
DICTIONARY
5
D
100
AcDbDictionary
0
DICTIONARY
5
1A
330
C
100
AcDbDictionary
0
DICTIONARY
5
17
100
AcDbDictionary
0
ENDSEC
0
EOF
