M48
; DRILL file {KiCad (5.1.6-0-10_14)} date Monday, September 14, 2020 at 08:19:36 PM
; FORMAT={-:-/ absolute / metric / decimal}
; #@! TF.CreationDate,2020-09-14T20:19:36+09:00
; #@! TF.GenerationSoftware,Kicad,Pcbnew,(5.1.6-0-10_14)
FMAT,2
METRIC
T1C0.400
T2C0.500
T3C0.600
T4C0.650
T5C0.813
T6C1.000
T7C1.470
T8C1.500
T9C2.499
T10C2.499
T11C1.750
T12C3.000
T13C3.048
T14C3.988
%
G90
G05
T1
X23.85Y-69.45
X23.85Y-88.55
X23.9Y-65.775
X23.9Y-90.325
X24.25Y-30.6
X24.25Y-33.9
X24.65Y-27.65
X24.69Y-105.435
X26.85Y-41.65
X27.4Y-88.575
X29.452Y-48.285
X29.65Y-25.65
X31.35Y-86.31
X31.35Y-91.39
X31.741Y-77.771
X31.834Y-67.335
X31.85Y-25.65
X32.05Y-27.65
X32.864Y-78.692
X34.823Y-79.368
X36.596Y-86.385
X38.86Y-34.315
X39.45Y-29.85
X40.45Y-29.85
X41.104Y-31.596
X41.85Y-38.1
X42.08Y-43.141
X43.622Y-72.415
X43.74Y-105.435
X43.95Y-54.25
X43.95Y-58.65
X46.594Y-67.966
X47.35Y-65.35
X48.385Y-91.465
X49.25Y-96.25
X50.45Y-25.65
X50.597Y-74.166
X51.05Y-50.45
X51.25Y-61.85
X51.496Y-95.296
X51.5Y-89.85
X51.82Y-46.343
X53.05Y-71.025
X53.05Y-73.075
X53.275Y-61.85
X53.28Y-48.25
X54.25Y-41.65
X55.25Y-42.45
X56.48Y-54.232
X56.511Y-55.056
X56.547Y-55.859
X56.554Y-56.662
X56.56Y-57.465
X56.65Y-50.85
X56.65Y-74.25
X56.83Y-59.413
X56.85Y-25.65
X56.85Y-28.45
X57.295Y-60.951
X57.756Y-34.315
X57.849Y-53.74
X58.096Y-60.905
X58.249Y-47.239
X58.25Y-43.45
X58.412Y-52.4
X58.716Y-65.373
X58.779Y-63.644
X58.837Y-62.143
X58.956Y-40.477
X59.32Y-78.13
X59.35Y-96.45
X59.4Y-62.82
X59.65Y-67.25
X59.716Y-47.218
X59.85Y-92.825
X60.039Y-63.445
X60.169Y-53.316
X60.2Y-89.85
X60.298Y-95.259
X60.71Y-62.675
X60.97Y-53.252
X61.304Y-62.134
X61.85Y-32.65
X62.502Y-86.193
X62.65Y-95.1
X62.673Y-110.515
X62.674Y-68.76
X62.85Y-29.25
X62.85Y-41.65
X63.27Y-48.8
X63.346Y-62.25
X63.856Y-63.04
X64.089Y-48.999
X64.16Y-52.72
X64.46Y-61.27
X64.852Y-53.127
X65.171Y-105.435
X65.334Y-61.074
X65.34Y-72.64
X65.77Y-54.034
X66.714Y-55.067
X67.15Y-55.75
X67.25Y-40.65
X67.425Y-53.032
X67.45Y-48.65
X67.45Y-50.95
X67.45Y-68.45
X67.45Y-71.85
X67.519Y-61.072
X67.708Y-39.301
X67.718Y-56.318
X67.746Y-63.044
X68.08Y-66.141
X68.177Y-57.65
X68.28Y-66.919
X68.342Y-56.826
X68.456Y-40.638
X68.542Y-93.709
X69.22Y-48.65
X69.22Y-50.95
X69.22Y-53.25
X69.25Y-40.02
X69.333Y-61.69
X71.22Y-41.28
X71.55Y-73.65
X71.85Y-52.05
X72.315Y-67.335
X72.799Y-38.474
X72.937Y-48.285
X72.953Y-41.28
X73.05Y-37.71
X76.85Y-43.25
X78.65Y-28.9
X78.65Y-32.45
X78.65Y-35.7
X81.84Y-86.48
X81.85Y-29.25
X84.05Y-110.45
X88.984Y-105.435
X89.25Y-73.65
X90.65Y-70.4
X90.65Y-73.7
X91.365Y-48.285
X91.45Y-67.25
X100.773Y-110.515
X100.89Y-29.235
X100.89Y-86.48
X109.15Y-64.4
X109.65Y-73.65
X110.415Y-48.285
X110.415Y-67.335
X119.85Y-29.25
X119.94Y-86.385
X119.94Y-105.435
X129.465Y-48.285
X129.465Y-67.335
X131.729Y-110.515
X133.4Y-60.42
X136.05Y-35.25
X138.99Y-86.385
X139.05Y-29.25
X141.372Y-105.435
X144.85Y-54.45
X144.85Y-70.25
X144.85Y-73.65
X148.516Y-48.285
X151.45Y-34.85
X158.041Y-29.235
X158.041Y-86.385
X158.041Y-105.435
X158.05Y-36.45
X162.686Y-72.415
X163.85Y-54.3
X167.52Y-67.335
X167.566Y-48.285
X177.05Y-29.25
X177.091Y-86.385
X182.65Y-73.7
X185.45Y-105.1
X186.616Y-48.285
X186.65Y-67.25
X188.85Y-105.05
X196.141Y-29.235
X196.25Y-86.45
X205.666Y-48.285
X205.666Y-67.335
X212.81Y-104.747
X214.05Y-102.45
X215.25Y-29.05
X215.25Y-86.45
X223.65Y-73.65
X224.716Y-48.285
X224.716Y-67.335
X226.98Y-110.515
X234.241Y-86.385
X234.241Y-105.435
X234.25Y-29.25
X235.85Y-55.65
X238.05Y-82.119
X239.25Y-73.65
X239.85Y-54.25
X240.221Y-37.021
X241.255Y-40.69
X242.65Y-57.582
X244.05Y-56.82
X245.25Y-56.85
X246.45Y-56.85
X247.25Y-41.25
X248.732Y-48.285
X250.05Y-104.85
X250.326Y-28.91
X250.65Y-38.85
X250.85Y-40.62
X252.466Y-38.066
X252.65Y-92.3
X253.29Y-29.235
X253.291Y-86.385
X253.291Y-105.435
X253.88Y-31.05
X254.299Y-41.165
X254.85Y-39.395
X255.672Y-67.05
X257.789Y-36.45
X259.892Y-77.058
X260.317Y-62.89
X260.55Y-82.25
X262.45Y-78.45
X266.213Y-57.82
X266.65Y-78.85
X266.65Y-79.85
X267.35Y-57.744
X267.579Y-48.285
X268.535Y-54.565
X269.25Y-43.25
X269.25Y-108.25
X269.25Y-111.45
X269.45Y-80.952
X270.213Y-96.835
X270.25Y-43.28
X270.795Y-69.218
X271.256Y-78.619
X272.063Y-80.952
X272.341Y-29.235
X272.341Y-105.435
X272.45Y-86.25
X272.516Y-78.707
X273.25Y-41.65
X273.45Y-45.115
X274.65Y-91.45
X274.884Y-41.212
X275.613Y-41.55
X277.65Y-27.25
X277.65Y-66.65
X278.65Y-65.85
X280.05Y-81.98
X282.05Y-98.45
X284.25Y-62.42
X284.85Y-80.85
X285.65Y-63.65
X285.85Y-59.75
X285.85Y-79.85
X286.05Y-81.05
X286.25Y-96.85
X286.45Y-72.85
X286.629Y-67.335
X286.65Y-100.05
X286.85Y-63.45
X287.25Y-47.65
X287.85Y-95.1
X288.45Y-40.05
X288.45Y-108.2
X289.01Y-86.385
X289.22Y-57.744
X289.65Y-39.247
X290.096Y-102.975
X291.45Y-29.25
X291.45Y-105.45
X298.85Y-58.544
X302.7Y-46.575
X302.7Y-48.325
X302.7Y-61.575
X302.7Y-65.775
X303.25Y-49.35
X305.356Y-53.45
X305.556Y-91.465
X305.561Y-72.415
X306.15Y-63.35
X306.2Y-48.325
X306.2Y-67.525
X306.25Y-44.15
X306.834Y-58.634
X37.802Y-26.837
X37.802Y-28.187
X38.652Y-26.837
X38.652Y-28.187
X39.502Y-26.837
X39.502Y-28.187
X40.352Y-26.837
X40.352Y-28.187
X41.202Y-26.837
X41.202Y-28.187
X42.052Y-26.837
X42.052Y-28.187
X42.902Y-26.837
X42.902Y-28.187
X43.752Y-26.837
X43.752Y-28.187
T2
X24.35Y-76.9
X24.358Y-81.25
X26.4Y-76.9
X26.4Y-81.25
X27.95Y-77.55
X27.95Y-80.55
X28.55Y-79.05
X45.9Y-50.45
X46.45Y-49.1
X46.45Y-51.75
X47.8Y-48.55
X47.8Y-52.35
X49.05Y-49.1
X49.05Y-51.8
X49.7Y-50.45
X149.6Y-67.7
X149.6Y-71.45
X150.8Y-67.7
X150.8Y-71.45
X152.0Y-67.7
X152.0Y-71.45
X211.9Y-109.6
X211.95Y-105.9
X213.1Y-109.6
X213.15Y-105.9
X214.3Y-109.6
X214.35Y-105.9
X281.45Y-48.6
X281.45Y-52.3
X282.65Y-48.6
X282.65Y-52.3
X283.85Y-48.583
X283.85Y-52.3
X301.65Y-79.05
X302.25Y-77.55
X302.25Y-80.55
X303.8Y-76.85
X303.8Y-81.2
X305.842Y-76.85
X305.85Y-81.2
T4
X287.88Y-30.67
X287.88Y-31.94
X287.88Y-33.21
X287.88Y-34.48
X287.88Y-35.75
X289.15Y-30.67
X289.15Y-31.94
X289.15Y-33.21
X289.15Y-34.48
X289.15Y-35.75
X278.35Y-40.08
X278.35Y-41.35
X279.62Y-40.08
X279.62Y-41.35
X280.89Y-40.08
X280.89Y-41.35
X282.16Y-40.08
X282.16Y-41.35
X283.43Y-40.08
X283.43Y-41.35
T5
X306.55Y-28.43
X306.55Y-30.97
X306.55Y-33.51
X306.55Y-36.05
T6
X295.994Y-100.466
X295.994Y-114.966
X298.494Y-100.466
X300.994Y-100.466
X300.994Y-114.966
X29.271Y-100.453
X29.271Y-114.953
X31.771Y-100.453
X34.271Y-100.453
X34.271Y-114.953
X294.95Y-37.65
X302.75Y-37.65
X294.25Y-34.85
X302.05Y-34.85
T7
X151.791Y-67.335
X158.141Y-64.795
X291.174Y-94.005
X297.524Y-91.465
X31.616Y-113.055
X37.966Y-110.515
X270.854Y-67.335
X277.204Y-64.795
X261.329Y-86.385
X267.679Y-83.845
X27.965Y-29.235
X34.315Y-26.695
X284.03Y-74.955
X290.38Y-72.415
X47.015Y-29.235
X53.365Y-26.695
X250.692Y-74.955
X257.042Y-72.415
X253.073Y-74.955
X259.423Y-72.415
T10
X47.8Y-50.45
T11
X179.096Y-88.925
X189.256Y-88.925
X31.457Y-69.875
X41.617Y-69.875
X102.895Y-31.775
X113.055Y-31.775
X255.296Y-107.975
X265.456Y-107.975
X274.346Y-88.925
X284.506Y-88.925
X90.989Y-107.975
X101.149Y-107.975
X150.521Y-50.825
X160.681Y-50.825
X38.601Y-88.925
X48.761Y-88.925
X217.195Y-31.775
X227.355Y-31.775
X198.146Y-88.925
X208.306Y-88.925
X288.634Y-69.875
X298.794Y-69.875
X274.346Y-31.775
X284.506Y-31.775
X179.096Y-31.775
X189.256Y-31.775
X112.42Y-50.825
X122.58Y-50.825
X112.42Y-69.875
X122.58Y-69.875
X293.396Y-107.975
X303.556Y-107.975
X248.152Y-69.875
X258.312Y-69.875
X33.839Y-69.875
X43.999Y-69.875
X288.634Y-50.825
X298.794Y-50.825
X160.046Y-88.925
X170.206Y-88.925
X119.564Y-107.975
X129.724Y-107.975
X274.346Y-69.875
X284.506Y-69.875
X236.246Y-107.975
X246.406Y-107.975
X250.533Y-50.825
X260.693Y-50.825
X55.27Y-69.875
X65.43Y-69.875
X50.508Y-107.975
X60.668Y-107.975
X269.584Y-50.825
X279.744Y-50.825
X131.47Y-69.875
X141.63Y-69.875
X150.521Y-69.875
X160.681Y-69.875
X71.939Y-107.975
X82.099Y-107.975
X255.295Y-31.775
X265.455Y-31.775
X83.845Y-88.925
X94.005Y-88.925
X121.945Y-88.925
X132.105Y-88.925
X255.296Y-88.925
X265.456Y-88.925
X88.608Y-107.975
X98.768Y-107.975
X262.44Y-88.925
X272.6Y-88.925
X250.533Y-69.875
X260.693Y-69.875
X64.795Y-88.925
X74.955Y-88.925
X36.22Y-88.925
X46.38Y-88.925
X291.015Y-88.925
X301.175Y-88.925
X26.695Y-31.775
X36.855Y-31.775
X45.745Y-107.975
X55.905Y-107.975
X83.845Y-31.775
X94.005Y-31.775
X121.945Y-31.775
X132.105Y-31.775
X226.721Y-50.825
X236.881Y-50.825
X188.621Y-50.825
X198.781Y-50.825
X26.695Y-107.975
X36.855Y-107.975
X45.745Y-31.775
X55.905Y-31.775
X64.795Y-31.775
X74.955Y-31.775
X160.046Y-31.775
X170.206Y-31.775
X236.245Y-31.775
X246.405Y-31.775
X93.37Y-69.875
X103.53Y-69.875
X169.571Y-69.875
X179.731Y-69.875
X140.995Y-31.775
X151.155Y-31.775
X293.396Y-50.825
X303.556Y-50.825
X140.995Y-88.925
X151.155Y-88.925
X150.521Y-69.875
X160.681Y-69.875
X274.346Y-107.975
X284.506Y-107.975
X74.32Y-50.825
X84.48Y-50.825
X288.634Y-88.925
X298.794Y-88.925
X207.671Y-69.875
X217.831Y-69.875
X169.571Y-50.825
X179.731Y-50.825
X102.895Y-88.925
X113.055Y-88.925
X214.815Y-107.975
X224.975Y-107.975
X31.457Y-50.825
X41.617Y-50.825
X207.671Y-50.825
X217.831Y-50.825
X214.815Y-107.975
X224.975Y-107.975
X29.076Y-107.975
X39.236Y-107.975
X269.584Y-69.875
X279.744Y-69.875
X236.246Y-88.925
X246.406Y-88.925
X191.002Y-107.975
X201.162Y-107.975
X121.945Y-107.975
X132.105Y-107.975
X67.176Y-107.975
X77.336Y-107.975
X198.146Y-31.775
X208.306Y-31.775
X93.37Y-50.825
X103.53Y-50.825
X226.721Y-69.875
X236.881Y-69.875
X188.621Y-69.875
X198.781Y-69.875
X260.059Y-88.925
X270.219Y-88.925
X143.377Y-107.975
X153.537Y-107.975
X160.046Y-107.975
X170.206Y-107.975
X293.396Y-31.775
X303.556Y-31.775
X55.27Y-50.825
X65.43Y-50.825
X293.396Y-69.875
X303.556Y-69.875
X293.396Y-88.925
X303.556Y-88.925
X257.677Y-69.875
X267.837Y-69.875
X26.695Y-31.775
X36.855Y-31.775
X131.47Y-50.825
X141.63Y-50.825
X248.152Y-60.35
X258.312Y-60.35
X281.49Y-69.875
X291.65Y-69.875
X74.32Y-69.875
X84.48Y-69.875
X217.196Y-88.925
X227.356Y-88.925
X45.745Y-31.775
X55.905Y-31.775
T12
X237.516Y-86.385
X243.866Y-83.845
X192.272Y-105.435
X198.622Y-102.895
X123.215Y-105.435
X129.565Y-102.895
X68.446Y-105.435
X74.796Y-102.895
X199.416Y-29.235
X205.766Y-26.695
X94.64Y-48.285
X100.99Y-45.745
X227.991Y-67.335
X234.341Y-64.795
X189.891Y-67.335
X196.241Y-64.795
X144.647Y-105.435
X150.997Y-102.895
X161.316Y-105.435
X167.666Y-102.895
X294.666Y-29.235
X301.016Y-26.695
X56.54Y-48.285
X62.89Y-45.745
X295.936Y-74.955
X302.286Y-72.415
X295.936Y-94.005
X302.286Y-91.465
X258.947Y-67.335
X265.297Y-64.795
X132.74Y-48.285
X139.09Y-45.745
X250.692Y-65.43
X257.042Y-62.89
X75.59Y-67.335
X81.94Y-64.795
X218.466Y-86.385
X224.816Y-83.845
X180.366Y-86.385
X186.716Y-83.845
X33.997Y-74.955
X40.347Y-72.415
X104.165Y-29.235
X110.515Y-26.695
X256.566Y-105.435
X262.916Y-102.895
X275.616Y-86.385
X281.966Y-83.845
X92.259Y-105.435
X98.609Y-102.895
X151.791Y-48.285
X158.141Y-45.745
X39.871Y-86.385
X46.221Y-83.845
X218.465Y-29.235
X224.815Y-26.695
X199.416Y-86.385
X205.766Y-83.845
X289.904Y-67.335
X296.254Y-64.795
X275.616Y-29.235
X281.966Y-26.695
X180.366Y-29.235
X186.716Y-26.695
X113.69Y-48.285
X120.04Y-45.745
X113.69Y-67.335
X120.04Y-64.795
X294.666Y-105.435
X301.016Y-102.895
X35.109Y-67.335
X41.459Y-64.795
X289.904Y-48.285
X296.254Y-45.745
X161.316Y-86.385
X167.666Y-83.845
X122.104Y-113.055
X128.454Y-110.515
X276.886Y-74.955
X283.236Y-72.415
X237.516Y-105.435
X243.866Y-102.895
X251.803Y-48.285
X258.153Y-45.745
X56.54Y-67.335
X62.89Y-64.795
X53.048Y-113.055
X59.398Y-110.515
X270.854Y-48.285
X277.204Y-45.745
X132.74Y-67.335
X139.09Y-64.795
X153.061Y-74.955
X159.411Y-72.415
X74.479Y-113.055
X80.829Y-110.515
X256.565Y-29.235
X262.915Y-26.695
X85.115Y-86.385
X91.465Y-83.845
X123.215Y-86.385
X129.565Y-83.845
X256.566Y-86.385
X262.916Y-83.845
X91.148Y-113.055
X97.498Y-110.515
X264.98Y-94.005
X271.33Y-91.465
X66.065Y-86.385
X72.415Y-83.845
X38.76Y-94.005
X45.11Y-91.465
X292.285Y-86.385
X298.635Y-83.845
X29.235Y-36.855
X35.585Y-34.315
X47.015Y-105.435
X53.365Y-102.895
X85.115Y-29.235
X91.465Y-26.695
X123.215Y-29.235
X129.565Y-26.695
X227.991Y-48.285
X234.341Y-45.745
X189.891Y-48.285
X196.241Y-45.745
X27.965Y-105.435
X34.315Y-102.895
X48.285Y-36.855
X54.635Y-34.315
X66.065Y-29.235
X72.415Y-26.695
X161.316Y-29.235
X167.666Y-26.695
X237.515Y-29.235
X243.865Y-26.695
X94.64Y-67.335
X100.99Y-64.795
X170.841Y-67.335
X177.191Y-64.795
X142.265Y-29.235
X148.615Y-26.695
X295.936Y-55.905
X302.286Y-53.365
X142.265Y-86.385
X148.615Y-83.845
X275.616Y-105.435
X281.966Y-102.895
X75.59Y-48.285
X81.94Y-45.745
X208.941Y-67.335
X215.291Y-64.795
X170.841Y-48.285
X177.191Y-45.745
X104.165Y-86.385
X110.515Y-83.845
X217.355Y-113.055
X223.705Y-110.515
X32.727Y-48.285
X39.078Y-45.745
X208.941Y-48.285
X215.291Y-45.745
X216.085Y-105.435
X222.435Y-102.895
T13
X29.362Y-81.94
X53.238Y-81.94
X246.247Y-48.412
X246.247Y-72.288
X115.087Y-114.96
X138.963Y-114.96
X98.457Y-114.96
X198.457Y-114.96
X153.188Y-114.96
X177.064Y-114.96
X250.819Y-76.86
X274.695Y-76.86
X112.706Y-114.96
X136.582Y-114.96
T14
X34.156Y-107.975
X274.664Y-69.875
X241.326Y-88.925
X196.082Y-107.975
X115.087Y-99.72
X127.025Y-107.975
X138.963Y-99.72
X72.256Y-107.975
X203.226Y-31.775
X98.45Y-50.825
X231.801Y-69.875
X193.701Y-69.875
X265.139Y-88.925
X98.457Y-99.72
X148.457Y-107.975
X198.457Y-99.72
X153.188Y-99.72
X165.126Y-107.975
X177.064Y-99.72
X298.476Y-31.775
X60.35Y-50.825
X298.476Y-69.875
X298.476Y-88.925
X250.819Y-61.62
X262.757Y-69.875
X274.695Y-61.62
X31.775Y-31.775
X136.55Y-50.825
X253.232Y-60.35
X286.57Y-69.875
X79.4Y-69.875
X222.276Y-88.925
X50.825Y-31.775
X184.176Y-88.925
X36.538Y-69.875
X107.975Y-31.775
X260.376Y-107.975
X279.426Y-88.925
X96.069Y-107.975
X155.601Y-50.825
X43.681Y-88.925
X222.275Y-31.775
X203.226Y-88.925
X293.714Y-69.875
X279.426Y-31.775
X184.176Y-31.775
X117.5Y-50.825
X117.5Y-69.875
X298.476Y-107.975
X253.232Y-69.875
X38.919Y-69.875
X293.714Y-50.825
X165.126Y-88.925
X112.706Y-99.72
X124.644Y-107.975
X136.582Y-99.72
X279.426Y-69.875
X241.326Y-107.975
X255.613Y-50.825
X60.35Y-69.875
X55.588Y-107.975
X274.664Y-50.825
X136.55Y-69.875
X155.601Y-69.875
X77.019Y-107.975
X260.375Y-31.775
X88.925Y-88.925
X127.025Y-88.925
X260.376Y-88.925
X93.688Y-107.975
X267.52Y-88.925
X255.613Y-69.875
X69.875Y-88.925
X29.362Y-97.18
X41.3Y-88.925
X53.238Y-97.18
X296.095Y-88.925
X31.775Y-31.775
X50.825Y-107.975
X88.925Y-31.775
X127.025Y-31.775
X231.801Y-50.825
X193.701Y-50.825
X31.775Y-107.975
X50.825Y-31.775
X69.875Y-31.775
X165.126Y-31.775
X241.325Y-31.775
X98.45Y-69.875
X174.651Y-69.875
X146.075Y-31.775
X298.476Y-50.825
X146.075Y-88.925
X155.601Y-69.875
X279.426Y-107.975
X79.4Y-50.825
X293.714Y-88.925
X212.751Y-69.875
X261.487Y-48.412
X261.487Y-72.288
X174.651Y-50.825
X107.975Y-88.925
X219.895Y-107.975
X36.538Y-50.825
X212.751Y-50.825
X219.895Y-107.975
T3
G00X36.452Y-23.427
M15
G01X36.452Y-24.227
M16
G05
G00X36.452Y-26.457
M15
G01X36.452Y-27.957
M16
G05
G00X45.102Y-23.427
M15
G01X45.102Y-24.227
M16
G05
G00X45.102Y-26.457
M15
G01X45.102Y-27.957
M16
G05
T8
G00X292.894Y-107.316
M15
G01X292.894Y-108.616
M16
G05
G00X304.094Y-107.316
M15
G01X304.094Y-108.616
M16
G05
G00X26.171Y-107.303
M15
G01X26.171Y-108.603
M16
G05
G00X37.371Y-107.303
M15
G01X37.371Y-108.603
M16
G05
T9
G00X149.549Y-69.55
M15
G01X152.051Y-69.55
M16
G05
G00X211.849Y-107.75
M15
G01X214.351Y-107.75
M16
G05
G00X281.399Y-50.45
M15
G01X283.901Y-50.45
M16
G05
T0
M30
