G04 #@! TF.GenerationSoftware,KiCad,Pcbnew,(5.1.6-0-10_14)*
G04 #@! TF.CreationDate,2020-09-14T20:19:33+09:00*
G04 #@! TF.ProjectId,Jones,4a6f6e65-732e-46b6-9963-61645f706362,v.0.2*
G04 #@! TF.SameCoordinates,Original*
G04 #@! TF.FileFunction,Legend,Top*
G04 #@! TF.FilePolarity,Positive*
%FSLAX46Y46*%
G04 Gerber Fmt 4.6, Leading zero omitted, Abs format (unit mm)*
G04 Created by KiCad (PCBNEW (5.1.6-0-10_14)) date 2020-09-14 20:19:33*
%MOMM*%
%LPD*%
G01*
G04 APERTURE LIST*
%ADD10C,0.120000*%
%ADD11C,0.150000*%
%ADD12C,0.100000*%
%ADD13C,1.500000*%
%ADD14C,3.400000*%
%ADD15C,4.387800*%
%ADD16C,2.150000*%
%ADD17C,1.400000*%
%ADD18C,5.400000*%
%ADD19O,7.400240X5.400000*%
%ADD20R,2.400000X2.400000*%
%ADD21C,2.400000*%
%ADD22R,2.400000X3.600000*%
%ADD23R,1.700000X3.800000*%
%ADD24C,1.100000*%
%ADD25O,1.300000X2.800000*%
%ADD26O,1.300000X2.100000*%
%ADD27C,3.448000*%
%ADD28R,1.400000X1.400000*%
%ADD29O,1.400000X1.400000*%
%ADD30R,1.900000X1.600000*%
%ADD31C,2.000000*%
%ADD32R,2.000000X1.250000*%
G04 APERTURE END LIST*
D10*
X298493580Y-107465550D02*
X298493580Y-108465550D01*
X298993580Y-107965550D02*
X297993580Y-107965550D01*
X294993580Y-114065550D02*
X292593580Y-114065550D01*
X299793580Y-114065550D02*
X297193580Y-114065550D01*
X304393580Y-114065550D02*
X301993580Y-114065550D01*
X302593580Y-100765550D02*
X302293580Y-100465550D01*
X302593580Y-100165550D02*
X302593580Y-100765550D01*
X302293580Y-100465550D02*
X302593580Y-100165550D01*
X304393580Y-101865550D02*
X292593580Y-101865550D01*
X304393580Y-105965550D02*
X304393580Y-101865550D01*
X292593580Y-105965550D02*
X292593580Y-101865550D01*
X292593580Y-114065550D02*
X292593580Y-109965550D01*
X304393580Y-109965550D02*
X304393580Y-114065550D01*
X301493580Y-107965550D02*
G75*
G03*
X301493580Y-107965550I-3000000J0D01*
G01*
D11*
X307820000Y-37320040D02*
X307820000Y-27160040D01*
X305280000Y-37320040D02*
X305280000Y-27160040D01*
X305280000Y-27160040D02*
X307820000Y-27160040D01*
X307820000Y-37320040D02*
X305280000Y-37320040D01*
D10*
X51240000Y-87890040D02*
X50910000Y-87890040D01*
X51240000Y-94460040D02*
X51240000Y-91810040D01*
X60460000Y-94460040D02*
X51240000Y-94460040D01*
X60460000Y-91810040D02*
X60460000Y-94460040D01*
X60460000Y-85240040D02*
X60460000Y-87890040D01*
X51240000Y-85240040D02*
X60460000Y-85240040D01*
X51240000Y-87890040D02*
X51240000Y-85240040D01*
X34771347Y-107952828D02*
G75*
G03*
X34771347Y-107952828I-3000000J0D01*
G01*
X37671347Y-109952828D02*
X37671347Y-114052828D01*
X25871347Y-114052828D02*
X25871347Y-109952828D01*
X25871347Y-105952828D02*
X25871347Y-101852828D01*
X37671347Y-105952828D02*
X37671347Y-101852828D01*
X37671347Y-101852828D02*
X25871347Y-101852828D01*
X35571347Y-100452828D02*
X35871347Y-100152828D01*
X35871347Y-100152828D02*
X35871347Y-100752828D01*
X35871347Y-100752828D02*
X35571347Y-100452828D01*
X37671347Y-114052828D02*
X35271347Y-114052828D01*
X33071347Y-114052828D02*
X30471347Y-114052828D01*
X28271347Y-114052828D02*
X25871347Y-114052828D01*
X32271347Y-107952828D02*
X31271347Y-107952828D01*
X31771347Y-107452828D02*
X31771347Y-108452828D01*
X277730323Y-39640040D02*
X277655000Y-39640040D01*
X277655000Y-39640040D02*
X277655000Y-38520040D01*
X277655000Y-38520040D02*
X284125000Y-38520040D01*
X284125000Y-38520040D02*
X284125000Y-39640040D01*
X284125000Y-39640040D02*
X284049677Y-39640040D01*
X278090000Y-38520040D02*
X278090000Y-34520040D01*
X278090000Y-34520040D02*
X278610000Y-34520040D01*
X278610000Y-34520040D02*
X278610000Y-38520040D01*
X278150000Y-38520040D02*
X278150000Y-34520040D01*
X278270000Y-38520040D02*
X278270000Y-34520040D01*
X278390000Y-38520040D02*
X278390000Y-34520040D01*
X278510000Y-38520040D02*
X278510000Y-34520040D01*
X278985000Y-39640040D02*
X278985000Y-38520040D01*
X278969677Y-39640040D02*
X279000323Y-39640040D01*
X279360000Y-38520040D02*
X279360000Y-34520040D01*
X279360000Y-34520040D02*
X279880000Y-34520040D01*
X279880000Y-34520040D02*
X279880000Y-38520040D01*
X280255000Y-39640040D02*
X280255000Y-38520040D01*
X280239677Y-39640040D02*
X280270323Y-39640040D01*
X280630000Y-38520040D02*
X280630000Y-34520040D01*
X280630000Y-34520040D02*
X281150000Y-34520040D01*
X281150000Y-34520040D02*
X281150000Y-38520040D01*
X281525000Y-39640040D02*
X281525000Y-38520040D01*
X281509677Y-39640040D02*
X281540323Y-39640040D01*
X281900000Y-38520040D02*
X281900000Y-34520040D01*
X281900000Y-34520040D02*
X282420000Y-34520040D01*
X282420000Y-34520040D02*
X282420000Y-38520040D01*
X282795000Y-39640040D02*
X282795000Y-38520040D01*
X282779677Y-39640040D02*
X282810323Y-39640040D01*
X283170000Y-38520040D02*
X283170000Y-34520040D01*
X283170000Y-34520040D02*
X283690000Y-34520040D01*
X283690000Y-34520040D02*
X283690000Y-38520040D01*
X278350000Y-42110040D02*
X277590000Y-42110040D01*
X277590000Y-42110040D02*
X277590000Y-41350040D01*
X289910000Y-36510040D02*
X289150000Y-36510040D01*
X289910000Y-35750040D02*
X289910000Y-36510040D01*
X282320000Y-30410040D02*
X286320000Y-30410040D01*
X282320000Y-30930040D02*
X282320000Y-30410040D01*
X286320000Y-30930040D02*
X282320000Y-30930040D01*
X287440000Y-31320363D02*
X287440000Y-31289717D01*
X287440000Y-31305040D02*
X286320000Y-31305040D01*
X282320000Y-31680040D02*
X286320000Y-31680040D01*
X282320000Y-32200040D02*
X282320000Y-31680040D01*
X286320000Y-32200040D02*
X282320000Y-32200040D01*
X287440000Y-32590363D02*
X287440000Y-32559717D01*
X287440000Y-32575040D02*
X286320000Y-32575040D01*
X282320000Y-32950040D02*
X286320000Y-32950040D01*
X282320000Y-33470040D02*
X282320000Y-32950040D01*
X286320000Y-33470040D02*
X282320000Y-33470040D01*
X287440000Y-33860363D02*
X287440000Y-33829717D01*
X287440000Y-33845040D02*
X286320000Y-33845040D01*
X282320000Y-34220040D02*
X286320000Y-34220040D01*
X282320000Y-34740040D02*
X282320000Y-34220040D01*
X286320000Y-34740040D02*
X282320000Y-34740040D01*
X287440000Y-35130363D02*
X287440000Y-35099717D01*
X287440000Y-35115040D02*
X286320000Y-35115040D01*
X286320000Y-35590040D02*
X282320000Y-35590040D01*
X286320000Y-35710040D02*
X282320000Y-35710040D01*
X286320000Y-35830040D02*
X282320000Y-35830040D01*
X286320000Y-35950040D02*
X282320000Y-35950040D01*
X282320000Y-35490040D02*
X286320000Y-35490040D01*
X282320000Y-36010040D02*
X282320000Y-35490040D01*
X286320000Y-36010040D02*
X282320000Y-36010040D01*
X287440000Y-29975040D02*
X287440000Y-30050363D01*
X286320000Y-29975040D02*
X287440000Y-29975040D01*
X286320000Y-36445040D02*
X286320000Y-29975040D01*
X287440000Y-36445040D02*
X286320000Y-36445040D01*
X287440000Y-36369717D02*
X287440000Y-36445040D01*
X28600000Y-64400040D02*
X28600000Y-63325040D01*
X22700000Y-64400040D02*
X28600000Y-64400040D01*
X22700000Y-60500040D02*
X28600000Y-60500040D01*
D12*
G36*
X28600000Y-64400040D02*
G01*
X27600000Y-64400040D01*
X28600000Y-63400040D01*
X28600000Y-64400040D01*
G37*
X28600000Y-64400040D02*
X27600000Y-64400040D01*
X28600000Y-63400040D01*
X28600000Y-64400040D01*
G36*
X28600000Y-68600040D02*
G01*
X27600000Y-68600040D01*
X28600000Y-67600040D01*
X28600000Y-68600040D01*
G37*
X28600000Y-68600040D02*
X27600000Y-68600040D01*
X28600000Y-67600040D01*
X28600000Y-68600040D01*
D10*
X22700000Y-64700040D02*
X28600000Y-64700040D01*
X22700000Y-68600040D02*
X28600000Y-68600040D01*
X28600000Y-68600040D02*
X28600000Y-67525040D01*
X28600000Y-87200040D02*
X28600000Y-86125040D01*
X22700000Y-87200040D02*
X28600000Y-87200040D01*
X22700000Y-83300040D02*
X28600000Y-83300040D01*
D12*
G36*
X28600000Y-87200040D02*
G01*
X27600000Y-87200040D01*
X28600000Y-86200040D01*
X28600000Y-87200040D01*
G37*
X28600000Y-87200040D02*
X27600000Y-87200040D01*
X28600000Y-86200040D01*
X28600000Y-87200040D01*
G36*
X28600000Y-91400040D02*
G01*
X27600000Y-91400040D01*
X28600000Y-90400040D01*
X28600000Y-91400040D01*
G37*
X28600000Y-91400040D02*
X27600000Y-91400040D01*
X28600000Y-90400040D01*
X28600000Y-91400040D01*
D10*
X22700000Y-87500040D02*
X28600000Y-87500040D01*
X22700000Y-91400040D02*
X28600000Y-91400040D01*
X28600000Y-91400040D02*
X28600000Y-90325040D01*
D12*
G36*
X301500000Y-41300040D02*
G01*
X302500000Y-41300040D01*
X301500000Y-42300040D01*
X301500000Y-41300040D01*
G37*
X301500000Y-41300040D02*
X302500000Y-41300040D01*
X301500000Y-42300040D01*
X301500000Y-41300040D01*
D10*
X307400000Y-45200040D02*
X301500000Y-45200040D01*
X307400000Y-41300040D02*
X301500000Y-41300040D01*
X301500000Y-41300040D02*
X301500000Y-42375040D01*
X301500000Y-45500040D02*
X301500000Y-46575040D01*
X307400000Y-45500040D02*
X301500000Y-45500040D01*
X307400000Y-49400040D02*
X301500000Y-49400040D01*
D12*
G36*
X301500000Y-45500040D02*
G01*
X302500000Y-45500040D01*
X301500000Y-46500040D01*
X301500000Y-45500040D01*
G37*
X301500000Y-45500040D02*
X302500000Y-45500040D01*
X301500000Y-46500040D01*
X301500000Y-45500040D01*
D10*
X301500000Y-60500040D02*
X301500000Y-61575040D01*
X307400000Y-60500040D02*
X301500000Y-60500040D01*
X307400000Y-64400040D02*
X301500000Y-64400040D01*
D12*
G36*
X301500000Y-60500040D02*
G01*
X302500000Y-60500040D01*
X301500000Y-61500040D01*
X301500000Y-60500040D01*
G37*
X301500000Y-60500040D02*
X302500000Y-60500040D01*
X301500000Y-61500040D01*
X301500000Y-60500040D01*
G36*
X301500000Y-64700040D02*
G01*
X302500000Y-64700040D01*
X301500000Y-65700040D01*
X301500000Y-64700040D01*
G37*
X301500000Y-64700040D02*
X302500000Y-64700040D01*
X301500000Y-65700040D01*
X301500000Y-64700040D01*
D10*
X307400000Y-68600040D02*
X301500000Y-68600040D01*
X307400000Y-64700040D02*
X301500000Y-64700040D01*
X301500000Y-64700040D02*
X301500000Y-65775040D01*
D11*
X292783333Y-103054801D02*
X292926190Y-103102420D01*
X293164285Y-103102420D01*
X293259523Y-103054801D01*
X293307142Y-103007182D01*
X293354761Y-102911944D01*
X293354761Y-102816706D01*
X293307142Y-102721468D01*
X293259523Y-102673849D01*
X293164285Y-102626230D01*
X292973809Y-102578611D01*
X292878571Y-102530992D01*
X292830952Y-102483373D01*
X292783333Y-102388135D01*
X292783333Y-102292897D01*
X292830952Y-102197659D01*
X292878571Y-102150040D01*
X292973809Y-102102420D01*
X293211904Y-102102420D01*
X293354761Y-102150040D01*
X293688095Y-102102420D02*
X293926190Y-103102420D01*
X294116666Y-102388135D01*
X294307142Y-103102420D01*
X294545238Y-102102420D01*
X294688095Y-103197659D02*
X295450000Y-103197659D01*
X296259523Y-103102420D02*
X295926190Y-102626230D01*
X295688095Y-103102420D02*
X295688095Y-102102420D01*
X296069047Y-102102420D01*
X296164285Y-102150040D01*
X296211904Y-102197659D01*
X296259523Y-102292897D01*
X296259523Y-102435754D01*
X296211904Y-102530992D01*
X296164285Y-102578611D01*
X296069047Y-102626230D01*
X295688095Y-102626230D01*
X296688095Y-102578611D02*
X297021428Y-102578611D01*
X297164285Y-103102420D02*
X296688095Y-103102420D01*
X296688095Y-102102420D01*
X297164285Y-102102420D01*
X298116666Y-103102420D02*
X297545238Y-103102420D01*
X297830952Y-103102420D02*
X297830952Y-102102420D01*
X297735714Y-102245278D01*
X297640476Y-102340516D01*
X297545238Y-102388135D01*
X306204895Y-26630535D02*
X306204895Y-26475716D01*
X306243600Y-26398306D01*
X306321009Y-26320897D01*
X306475828Y-26282192D01*
X306746761Y-26282192D01*
X306901580Y-26320897D01*
X306978990Y-26398306D01*
X307017695Y-26475716D01*
X307017695Y-26630535D01*
X306978990Y-26707944D01*
X306901580Y-26785354D01*
X306746761Y-26824059D01*
X306475828Y-26824059D01*
X306321009Y-26785354D01*
X306243600Y-26707944D01*
X306204895Y-26630535D01*
X307017695Y-25546801D02*
X307017695Y-25933849D01*
X306204895Y-25933849D01*
X306591942Y-25275868D02*
X306591942Y-25004935D01*
X307017695Y-24888820D02*
X307017695Y-25275868D01*
X306204895Y-25275868D01*
X306204895Y-24888820D01*
X307017695Y-24540478D02*
X306204895Y-24540478D01*
X306204895Y-24346954D01*
X306243600Y-24230840D01*
X306321009Y-24153430D01*
X306398419Y-24114725D01*
X306553238Y-24076020D01*
X306669352Y-24076020D01*
X306824171Y-24114725D01*
X306901580Y-24153430D01*
X306978990Y-24230840D01*
X307017695Y-24346954D01*
X307017695Y-24540478D01*
X302435714Y-37254801D02*
X302578571Y-37302420D01*
X302816666Y-37302420D01*
X302911904Y-37254801D01*
X302959523Y-37207182D01*
X303007142Y-37111944D01*
X303007142Y-37016706D01*
X302959523Y-36921468D01*
X302911904Y-36873849D01*
X302816666Y-36826230D01*
X302626190Y-36778611D01*
X302530952Y-36730992D01*
X302483333Y-36683373D01*
X302435714Y-36588135D01*
X302435714Y-36492897D01*
X302483333Y-36397659D01*
X302530952Y-36350040D01*
X302626190Y-36302420D01*
X302864285Y-36302420D01*
X303007142Y-36350040D01*
X303435714Y-37302420D02*
X303435714Y-36302420D01*
X303673809Y-36302420D01*
X303816666Y-36350040D01*
X303911904Y-36445278D01*
X303959523Y-36540516D01*
X304007142Y-36730992D01*
X304007142Y-36873849D01*
X303959523Y-37064325D01*
X303911904Y-37159563D01*
X303816666Y-37254801D01*
X303673809Y-37302420D01*
X303435714Y-37302420D01*
X304388095Y-37016706D02*
X304864285Y-37016706D01*
X304292857Y-37302420D02*
X304626190Y-36302420D01*
X304959523Y-37302420D01*
X302459523Y-34054801D02*
X302602380Y-34102420D01*
X302840476Y-34102420D01*
X302935714Y-34054801D01*
X302983333Y-34007182D01*
X303030952Y-33911944D01*
X303030952Y-33816706D01*
X302983333Y-33721468D01*
X302935714Y-33673849D01*
X302840476Y-33626230D01*
X302650000Y-33578611D01*
X302554761Y-33530992D01*
X302507142Y-33483373D01*
X302459523Y-33388135D01*
X302459523Y-33292897D01*
X302507142Y-33197659D01*
X302554761Y-33150040D01*
X302650000Y-33102420D01*
X302888095Y-33102420D01*
X303030952Y-33150040D01*
X304030952Y-34007182D02*
X303983333Y-34054801D01*
X303840476Y-34102420D01*
X303745238Y-34102420D01*
X303602380Y-34054801D01*
X303507142Y-33959563D01*
X303459523Y-33864325D01*
X303411904Y-33673849D01*
X303411904Y-33530992D01*
X303459523Y-33340516D01*
X303507142Y-33245278D01*
X303602380Y-33150040D01*
X303745238Y-33102420D01*
X303840476Y-33102420D01*
X303983333Y-33150040D01*
X304030952Y-33197659D01*
X304935714Y-34102420D02*
X304459523Y-34102420D01*
X304459523Y-33102420D01*
X302164285Y-30121468D02*
X302926190Y-30121468D01*
X302545238Y-30502420D02*
X302545238Y-29740516D01*
X303878571Y-29502420D02*
X303402380Y-29502420D01*
X303354761Y-29978611D01*
X303402380Y-29930992D01*
X303497619Y-29883373D01*
X303735714Y-29883373D01*
X303830952Y-29930992D01*
X303878571Y-29978611D01*
X303926190Y-30073849D01*
X303926190Y-30311944D01*
X303878571Y-30407182D01*
X303830952Y-30454801D01*
X303735714Y-30502420D01*
X303497619Y-30502420D01*
X303402380Y-30454801D01*
X303354761Y-30407182D01*
X304211904Y-29502420D02*
X304545238Y-30502420D01*
X304878571Y-29502420D01*
X302838095Y-27950040D02*
X302742857Y-27902420D01*
X302600000Y-27902420D01*
X302457142Y-27950040D01*
X302361904Y-28045278D01*
X302314285Y-28140516D01*
X302266666Y-28330992D01*
X302266666Y-28473849D01*
X302314285Y-28664325D01*
X302361904Y-28759563D01*
X302457142Y-28854801D01*
X302600000Y-28902420D01*
X302695238Y-28902420D01*
X302838095Y-28854801D01*
X302885714Y-28807182D01*
X302885714Y-28473849D01*
X302695238Y-28473849D01*
X303314285Y-28902420D02*
X303314285Y-27902420D01*
X303885714Y-28902420D01*
X303885714Y-27902420D01*
X304361904Y-28902420D02*
X304361904Y-27902420D01*
X304600000Y-27902420D01*
X304742857Y-27950040D01*
X304838095Y-28045278D01*
X304885714Y-28140516D01*
X304933333Y-28330992D01*
X304933333Y-28473849D01*
X304885714Y-28664325D01*
X304838095Y-28759563D01*
X304742857Y-28854801D01*
X304600000Y-28902420D01*
X304361904Y-28902420D01*
X55207142Y-84802420D02*
X54730952Y-84802420D01*
X54730952Y-83802420D01*
X55492857Y-84754801D02*
X55635714Y-84802420D01*
X55873809Y-84802420D01*
X55969047Y-84754801D01*
X56016666Y-84707182D01*
X56064285Y-84611944D01*
X56064285Y-84516706D01*
X56016666Y-84421468D01*
X55969047Y-84373849D01*
X55873809Y-84326230D01*
X55683333Y-84278611D01*
X55588095Y-84230992D01*
X55540476Y-84183373D01*
X55492857Y-84088135D01*
X55492857Y-83992897D01*
X55540476Y-83897659D01*
X55588095Y-83850040D01*
X55683333Y-83802420D01*
X55921428Y-83802420D01*
X56064285Y-83850040D01*
X57016666Y-84802420D02*
X56445238Y-84802420D01*
X56730952Y-84802420D02*
X56730952Y-83802420D01*
X56635714Y-83945278D01*
X56540476Y-84040516D01*
X56445238Y-84088135D01*
X53088095Y-90054801D02*
X53230952Y-90102420D01*
X53469047Y-90102420D01*
X53564285Y-90054801D01*
X53611904Y-90007182D01*
X53659523Y-89911944D01*
X53659523Y-89816706D01*
X53611904Y-89721468D01*
X53564285Y-89673849D01*
X53469047Y-89626230D01*
X53278571Y-89578611D01*
X53183333Y-89530992D01*
X53135714Y-89483373D01*
X53088095Y-89388135D01*
X53088095Y-89292897D01*
X53135714Y-89197659D01*
X53183333Y-89150040D01*
X53278571Y-89102420D01*
X53516666Y-89102420D01*
X53659523Y-89150040D01*
X54088095Y-89435754D02*
X54088095Y-90435754D01*
X54088095Y-89483373D02*
X54183333Y-89435754D01*
X54373809Y-89435754D01*
X54469047Y-89483373D01*
X54516666Y-89530992D01*
X54564285Y-89626230D01*
X54564285Y-89911944D01*
X54516666Y-90007182D01*
X54469047Y-90054801D01*
X54373809Y-90102420D01*
X54183333Y-90102420D01*
X54088095Y-90054801D01*
X55373809Y-90054801D02*
X55278571Y-90102420D01*
X55088095Y-90102420D01*
X54992857Y-90054801D01*
X54945238Y-89959563D01*
X54945238Y-89578611D01*
X54992857Y-89483373D01*
X55088095Y-89435754D01*
X55278571Y-89435754D01*
X55373809Y-89483373D01*
X55421428Y-89578611D01*
X55421428Y-89673849D01*
X54945238Y-89769087D01*
X56278571Y-90102420D02*
X56278571Y-89578611D01*
X56230952Y-89483373D01*
X56135714Y-89435754D01*
X55945238Y-89435754D01*
X55850000Y-89483373D01*
X56278571Y-90054801D02*
X56183333Y-90102420D01*
X55945238Y-90102420D01*
X55850000Y-90054801D01*
X55802380Y-89959563D01*
X55802380Y-89864325D01*
X55850000Y-89769087D01*
X55945238Y-89721468D01*
X56183333Y-89721468D01*
X56278571Y-89673849D01*
X56754761Y-90102420D02*
X56754761Y-89102420D01*
X56850000Y-89721468D02*
X57135714Y-90102420D01*
X57135714Y-89435754D02*
X56754761Y-89816706D01*
X57945238Y-90054801D02*
X57850000Y-90102420D01*
X57659523Y-90102420D01*
X57564285Y-90054801D01*
X57516666Y-89959563D01*
X57516666Y-89578611D01*
X57564285Y-89483373D01*
X57659523Y-89435754D01*
X57850000Y-89435754D01*
X57945238Y-89483373D01*
X57992857Y-89578611D01*
X57992857Y-89673849D01*
X57516666Y-89769087D01*
X58421428Y-90102420D02*
X58421428Y-89435754D01*
X58421428Y-89626230D02*
X58469047Y-89530992D01*
X58516666Y-89483373D01*
X58611904Y-89435754D01*
X58707142Y-89435754D01*
X26183333Y-103054801D02*
X26326190Y-103102420D01*
X26564285Y-103102420D01*
X26659523Y-103054801D01*
X26707142Y-103007182D01*
X26754761Y-102911944D01*
X26754761Y-102816706D01*
X26707142Y-102721468D01*
X26659523Y-102673849D01*
X26564285Y-102626230D01*
X26373809Y-102578611D01*
X26278571Y-102530992D01*
X26230952Y-102483373D01*
X26183333Y-102388135D01*
X26183333Y-102292897D01*
X26230952Y-102197659D01*
X26278571Y-102150040D01*
X26373809Y-102102420D01*
X26611904Y-102102420D01*
X26754761Y-102150040D01*
X27088095Y-102102420D02*
X27326190Y-103102420D01*
X27516666Y-102388135D01*
X27707142Y-103102420D01*
X27945238Y-102102420D01*
X28088095Y-103197659D02*
X28850000Y-103197659D01*
X29659523Y-103102420D02*
X29326190Y-102626230D01*
X29088095Y-103102420D02*
X29088095Y-102102420D01*
X29469047Y-102102420D01*
X29564285Y-102150040D01*
X29611904Y-102197659D01*
X29659523Y-102292897D01*
X29659523Y-102435754D01*
X29611904Y-102530992D01*
X29564285Y-102578611D01*
X29469047Y-102626230D01*
X29088095Y-102626230D01*
X30088095Y-102578611D02*
X30421428Y-102578611D01*
X30564285Y-103102420D02*
X30088095Y-103102420D01*
X30088095Y-102102420D01*
X30564285Y-102102420D01*
X30945238Y-102197659D02*
X30992857Y-102150040D01*
X31088095Y-102102420D01*
X31326190Y-102102420D01*
X31421428Y-102150040D01*
X31469047Y-102197659D01*
X31516666Y-102292897D01*
X31516666Y-102388135D01*
X31469047Y-102530992D01*
X30897619Y-103102420D01*
X31516666Y-103102420D01*
X284702380Y-40578611D02*
X285035714Y-40578611D01*
X285178571Y-41102420D02*
X284702380Y-41102420D01*
X284702380Y-40102420D01*
X285178571Y-40102420D01*
X285511904Y-40102420D02*
X286178571Y-41102420D01*
X286178571Y-40102420D02*
X285511904Y-41102420D01*
X286416666Y-40102420D02*
X286988095Y-40102420D01*
X286702380Y-41102420D02*
X286702380Y-40102420D01*
X287845238Y-41102420D02*
X287273809Y-41102420D01*
X287559523Y-41102420D02*
X287559523Y-40102420D01*
X287464285Y-40245278D01*
X287369047Y-40340516D01*
X287273809Y-40388135D01*
X286902380Y-37578611D02*
X287235714Y-37578611D01*
X287378571Y-38102420D02*
X286902380Y-38102420D01*
X286902380Y-37102420D01*
X287378571Y-37102420D01*
X287711904Y-37102420D02*
X288378571Y-38102420D01*
X288378571Y-37102420D02*
X287711904Y-38102420D01*
X288616666Y-37102420D02*
X289188095Y-37102420D01*
X288902380Y-38102420D02*
X288902380Y-37102420D01*
X289473809Y-37197659D02*
X289521428Y-37150040D01*
X289616666Y-37102420D01*
X289854761Y-37102420D01*
X289950000Y-37150040D01*
X289997619Y-37197659D01*
X290045238Y-37292897D01*
X290045238Y-37388135D01*
X289997619Y-37530992D01*
X289426190Y-38102420D01*
X290045238Y-38102420D01*
X24530952Y-60152420D02*
X24054761Y-60152420D01*
X24054761Y-59152420D01*
X24864285Y-59628611D02*
X25197619Y-59628611D01*
X25340476Y-60152420D02*
X24864285Y-60152420D01*
X24864285Y-59152420D01*
X25340476Y-59152420D01*
X25769047Y-60152420D02*
X25769047Y-59152420D01*
X26007142Y-59152420D01*
X26150000Y-59200040D01*
X26245238Y-59295278D01*
X26292857Y-59390516D01*
X26340476Y-59580992D01*
X26340476Y-59723849D01*
X26292857Y-59914325D01*
X26245238Y-60009563D01*
X26150000Y-60104801D01*
X26007142Y-60152420D01*
X25769047Y-60152420D01*
X27292857Y-60152420D02*
X26721428Y-60152420D01*
X27007142Y-60152420D02*
X27007142Y-59152420D01*
X26911904Y-59295278D01*
X26816666Y-59390516D01*
X26721428Y-59438135D01*
X24530952Y-69902420D02*
X24054761Y-69902420D01*
X24054761Y-68902420D01*
X24864285Y-69378611D02*
X25197619Y-69378611D01*
X25340476Y-69902420D02*
X24864285Y-69902420D01*
X24864285Y-68902420D01*
X25340476Y-68902420D01*
X25769047Y-69902420D02*
X25769047Y-68902420D01*
X26007142Y-68902420D01*
X26150000Y-68950040D01*
X26245238Y-69045278D01*
X26292857Y-69140516D01*
X26340476Y-69330992D01*
X26340476Y-69473849D01*
X26292857Y-69664325D01*
X26245238Y-69759563D01*
X26150000Y-69854801D01*
X26007142Y-69902420D01*
X25769047Y-69902420D01*
X26721428Y-68997659D02*
X26769047Y-68950040D01*
X26864285Y-68902420D01*
X27102380Y-68902420D01*
X27197619Y-68950040D01*
X27245238Y-68997659D01*
X27292857Y-69092897D01*
X27292857Y-69188135D01*
X27245238Y-69330992D01*
X26673809Y-69902420D01*
X27292857Y-69902420D01*
X24530952Y-83102420D02*
X24054761Y-83102420D01*
X24054761Y-82102420D01*
X24864285Y-82578611D02*
X25197619Y-82578611D01*
X25340476Y-83102420D02*
X24864285Y-83102420D01*
X24864285Y-82102420D01*
X25340476Y-82102420D01*
X25769047Y-83102420D02*
X25769047Y-82102420D01*
X26007142Y-82102420D01*
X26150000Y-82150040D01*
X26245238Y-82245278D01*
X26292857Y-82340516D01*
X26340476Y-82530992D01*
X26340476Y-82673849D01*
X26292857Y-82864325D01*
X26245238Y-82959563D01*
X26150000Y-83054801D01*
X26007142Y-83102420D01*
X25769047Y-83102420D01*
X26673809Y-82102420D02*
X27292857Y-82102420D01*
X26959523Y-82483373D01*
X27102380Y-82483373D01*
X27197619Y-82530992D01*
X27245238Y-82578611D01*
X27292857Y-82673849D01*
X27292857Y-82911944D01*
X27245238Y-83007182D01*
X27197619Y-83054801D01*
X27102380Y-83102420D01*
X26816666Y-83102420D01*
X26721428Y-83054801D01*
X26673809Y-83007182D01*
X24730952Y-92702420D02*
X24254761Y-92702420D01*
X24254761Y-91702420D01*
X25064285Y-92178611D02*
X25397619Y-92178611D01*
X25540476Y-92702420D02*
X25064285Y-92702420D01*
X25064285Y-91702420D01*
X25540476Y-91702420D01*
X25969047Y-92702420D02*
X25969047Y-91702420D01*
X26207142Y-91702420D01*
X26350000Y-91750040D01*
X26445238Y-91845278D01*
X26492857Y-91940516D01*
X26540476Y-92130992D01*
X26540476Y-92273849D01*
X26492857Y-92464325D01*
X26445238Y-92559563D01*
X26350000Y-92654801D01*
X26207142Y-92702420D01*
X25969047Y-92702420D01*
X27397619Y-92035754D02*
X27397619Y-92702420D01*
X27159523Y-91654801D02*
X26921428Y-92369087D01*
X27540476Y-92369087D01*
X303530952Y-40902420D02*
X303054761Y-40902420D01*
X303054761Y-39902420D01*
X303864285Y-40378611D02*
X304197619Y-40378611D01*
X304340476Y-40902420D02*
X303864285Y-40902420D01*
X303864285Y-39902420D01*
X304340476Y-39902420D01*
X304769047Y-40902420D02*
X304769047Y-39902420D01*
X305007142Y-39902420D01*
X305150000Y-39950040D01*
X305245238Y-40045278D01*
X305292857Y-40140516D01*
X305340476Y-40330992D01*
X305340476Y-40473849D01*
X305292857Y-40664325D01*
X305245238Y-40759563D01*
X305150000Y-40854801D01*
X305007142Y-40902420D01*
X304769047Y-40902420D01*
X306245238Y-39902420D02*
X305769047Y-39902420D01*
X305721428Y-40378611D01*
X305769047Y-40330992D01*
X305864285Y-40283373D01*
X306102380Y-40283373D01*
X306197619Y-40330992D01*
X306245238Y-40378611D01*
X306292857Y-40473849D01*
X306292857Y-40711944D01*
X306245238Y-40807182D01*
X306197619Y-40854801D01*
X306102380Y-40902420D01*
X305864285Y-40902420D01*
X305769047Y-40854801D01*
X305721428Y-40807182D01*
X303330952Y-50652420D02*
X302854761Y-50652420D01*
X302854761Y-49652420D01*
X303664285Y-50128611D02*
X303997619Y-50128611D01*
X304140476Y-50652420D02*
X303664285Y-50652420D01*
X303664285Y-49652420D01*
X304140476Y-49652420D01*
X304569047Y-50652420D02*
X304569047Y-49652420D01*
X304807142Y-49652420D01*
X304950000Y-49700040D01*
X305045238Y-49795278D01*
X305092857Y-49890516D01*
X305140476Y-50080992D01*
X305140476Y-50223849D01*
X305092857Y-50414325D01*
X305045238Y-50509563D01*
X304950000Y-50604801D01*
X304807142Y-50652420D01*
X304569047Y-50652420D01*
X305997619Y-49652420D02*
X305807142Y-49652420D01*
X305711904Y-49700040D01*
X305664285Y-49747659D01*
X305569047Y-49890516D01*
X305521428Y-50080992D01*
X305521428Y-50461944D01*
X305569047Y-50557182D01*
X305616666Y-50604801D01*
X305711904Y-50652420D01*
X305902380Y-50652420D01*
X305997619Y-50604801D01*
X306045238Y-50557182D01*
X306092857Y-50461944D01*
X306092857Y-50223849D01*
X306045238Y-50128611D01*
X305997619Y-50080992D01*
X305902380Y-50033373D01*
X305711904Y-50033373D01*
X305616666Y-50080992D01*
X305569047Y-50128611D01*
X305521428Y-50223849D01*
X303330952Y-60102420D02*
X302854761Y-60102420D01*
X302854761Y-59102420D01*
X303664285Y-59578611D02*
X303997619Y-59578611D01*
X304140476Y-60102420D02*
X303664285Y-60102420D01*
X303664285Y-59102420D01*
X304140476Y-59102420D01*
X304569047Y-60102420D02*
X304569047Y-59102420D01*
X304807142Y-59102420D01*
X304950000Y-59150040D01*
X305045238Y-59245278D01*
X305092857Y-59340516D01*
X305140476Y-59530992D01*
X305140476Y-59673849D01*
X305092857Y-59864325D01*
X305045238Y-59959563D01*
X304950000Y-60054801D01*
X304807142Y-60102420D01*
X304569047Y-60102420D01*
X305473809Y-59102420D02*
X306140476Y-59102420D01*
X305711904Y-60102420D01*
X303330952Y-69852420D02*
X302854761Y-69852420D01*
X302854761Y-68852420D01*
X303664285Y-69328611D02*
X303997619Y-69328611D01*
X304140476Y-69852420D02*
X303664285Y-69852420D01*
X303664285Y-68852420D01*
X304140476Y-68852420D01*
X304569047Y-69852420D02*
X304569047Y-68852420D01*
X304807142Y-68852420D01*
X304950000Y-68900040D01*
X305045238Y-68995278D01*
X305092857Y-69090516D01*
X305140476Y-69280992D01*
X305140476Y-69423849D01*
X305092857Y-69614325D01*
X305045238Y-69709563D01*
X304950000Y-69804801D01*
X304807142Y-69852420D01*
X304569047Y-69852420D01*
X305711904Y-69280992D02*
X305616666Y-69233373D01*
X305569047Y-69185754D01*
X305521428Y-69090516D01*
X305521428Y-69042897D01*
X305569047Y-68947659D01*
X305616666Y-68900040D01*
X305711904Y-68852420D01*
X305902380Y-68852420D01*
X305997619Y-68900040D01*
X306045238Y-68947659D01*
X306092857Y-69042897D01*
X306092857Y-69090516D01*
X306045238Y-69185754D01*
X305997619Y-69233373D01*
X305902380Y-69280992D01*
X305711904Y-69280992D01*
X305616666Y-69328611D01*
X305569047Y-69376230D01*
X305521428Y-69471468D01*
X305521428Y-69661944D01*
X305569047Y-69757182D01*
X305616666Y-69804801D01*
X305711904Y-69852420D01*
X305902380Y-69852420D01*
X305997619Y-69804801D01*
X306045238Y-69757182D01*
X306092857Y-69661944D01*
X306092857Y-69471468D01*
X306045238Y-69376230D01*
X305997619Y-69328611D01*
X305902380Y-69280992D01*
%LPC*%
D13*
X22600000Y-76900000D02*
X26400000Y-76900000D01*
X22650000Y-81200000D02*
X26450000Y-81200000D01*
X307600000Y-81200000D02*
X303800000Y-81200000D01*
X307550000Y-76900000D02*
X303750000Y-76900000D01*
X301650000Y-79050000D02*
G75*
G03*
X303800000Y-81200000I2150000J0D01*
G01*
X301650000Y-79050000D02*
G75*
G02*
X303800000Y-76900000I2150000J0D01*
G01*
X28550000Y-79050000D02*
G75*
G02*
X26400000Y-81200000I-2150000J0D01*
G01*
X28550000Y-79050000D02*
G75*
G03*
X26400000Y-76900000I-2150000J0D01*
G01*
D14*
X120040000Y-64795200D03*
D15*
X117500000Y-69875200D03*
D14*
X113690000Y-67335200D03*
D16*
X112420000Y-69875200D03*
X122580000Y-69875200D03*
D17*
X305842035Y-76850000D03*
X305850000Y-81200000D03*
X302250000Y-80550000D03*
X303800000Y-76850000D03*
X303800000Y-81200000D03*
X301650000Y-79050000D03*
X302250000Y-77550000D03*
X27950000Y-80550000D03*
D18*
X47800000Y-50450000D03*
D19*
X150800000Y-69550000D03*
X213100000Y-107750000D03*
X282650000Y-50450000D03*
D17*
X47800000Y-48550000D03*
X45900000Y-50450000D03*
X49700000Y-50450000D03*
X47800000Y-52350000D03*
X46450000Y-49100000D03*
X49050000Y-49100000D03*
X46450000Y-51750000D03*
X49050000Y-51800000D03*
X282650000Y-48600000D03*
X282650000Y-52300000D03*
X283850000Y-52300000D03*
X281450000Y-52300000D03*
X281450000Y-48600000D03*
X283850000Y-48583000D03*
X213150000Y-105900000D03*
X213100000Y-109600000D03*
X214350000Y-105900000D03*
X211950000Y-105900000D03*
X211900000Y-109600000D03*
X214300000Y-109600000D03*
X150800000Y-67700000D03*
X152000000Y-67700000D03*
X149600000Y-67700000D03*
X150800000Y-71450000D03*
X149600000Y-71450000D03*
X152000000Y-71450000D03*
X28550000Y-79050000D03*
X26400000Y-76900000D03*
X26400000Y-81250000D03*
X27950000Y-77550000D03*
X24350000Y-76900000D03*
X24357965Y-81250000D03*
D16*
X65430000Y-50825120D03*
X55270000Y-50825120D03*
D14*
X56540000Y-48285120D03*
D15*
X60350000Y-50825120D03*
D14*
X62890000Y-45745120D03*
X62890000Y-64795200D03*
D15*
X60350000Y-69875200D03*
D14*
X56540000Y-67335200D03*
D16*
X55270000Y-69875200D03*
X65430000Y-69875200D03*
X179730640Y-69875200D03*
X169570640Y-69875200D03*
D14*
X170840640Y-67335200D03*
D15*
X174650640Y-69875200D03*
D14*
X177190640Y-64795200D03*
X39077500Y-45745120D03*
D15*
X36537500Y-50825120D03*
D14*
X32727500Y-48285120D03*
D16*
X31457500Y-50825120D03*
X41617500Y-50825120D03*
D20*
X300993580Y-100465550D03*
D21*
X298493580Y-100465550D03*
X295993580Y-100465550D03*
D22*
X304093580Y-107965550D03*
X292893580Y-107965550D03*
D21*
X300993580Y-114965550D03*
X295993580Y-114965550D03*
D16*
X45745000Y-31775040D03*
X55905000Y-31775040D03*
D14*
X54635000Y-34315040D03*
D15*
X50825000Y-31775040D03*
D14*
X48285000Y-36855040D03*
X29235000Y-36855040D03*
D15*
X31775000Y-31775040D03*
D14*
X35585000Y-34315040D03*
D16*
X36855000Y-31775040D03*
X26695000Y-31775040D03*
D14*
X72415000Y-83845280D03*
D15*
X69875000Y-88925280D03*
D14*
X66065000Y-86385280D03*
D16*
X64795000Y-88925280D03*
X74955000Y-88925280D03*
D14*
X72415000Y-26695040D03*
D15*
X69875000Y-31775040D03*
D14*
X66065000Y-29235040D03*
D16*
X64795000Y-31775040D03*
X74955000Y-31775040D03*
X84480000Y-50825120D03*
X74320000Y-50825120D03*
D14*
X75590000Y-48285120D03*
D15*
X79400000Y-50825120D03*
D14*
X81940000Y-45745120D03*
X81940000Y-64795200D03*
D15*
X79400000Y-69875200D03*
D14*
X75590000Y-67335200D03*
D16*
X74320000Y-69875200D03*
X84480000Y-69875200D03*
D14*
X91465000Y-83845280D03*
D15*
X88925000Y-88925280D03*
D14*
X85115000Y-86385280D03*
D16*
X83845000Y-88925280D03*
X94005000Y-88925280D03*
D14*
X91465000Y-26695040D03*
D15*
X88925000Y-31775040D03*
D14*
X85115000Y-29235040D03*
D16*
X83845000Y-31775040D03*
X94005000Y-31775040D03*
X103530000Y-50825120D03*
X93370000Y-50825120D03*
D14*
X94640000Y-48285120D03*
D15*
X98450000Y-50825120D03*
D14*
X100990000Y-45745120D03*
X100990000Y-64795200D03*
D15*
X98450000Y-69875200D03*
D14*
X94640000Y-67335200D03*
D16*
X93370000Y-69875200D03*
X103530000Y-69875200D03*
D14*
X110515000Y-83845280D03*
D15*
X107975000Y-88925280D03*
D14*
X104165000Y-86385280D03*
D16*
X102895000Y-88925280D03*
X113055000Y-88925280D03*
D14*
X110515000Y-26695040D03*
D15*
X107975000Y-31775040D03*
D14*
X104165000Y-29235040D03*
D16*
X102895000Y-31775040D03*
X113055000Y-31775040D03*
X122580000Y-50825120D03*
X112420000Y-50825120D03*
D14*
X113690000Y-48285120D03*
D15*
X117500000Y-50825120D03*
D14*
X120040000Y-45745120D03*
X129565000Y-83845280D03*
D15*
X127025000Y-88925280D03*
D14*
X123215000Y-86385280D03*
D16*
X121945000Y-88925280D03*
X132105000Y-88925280D03*
D14*
X129565000Y-26695040D03*
D15*
X127025000Y-31775040D03*
D14*
X123215000Y-29235040D03*
D16*
X121945000Y-31775040D03*
X132105000Y-31775040D03*
X141630000Y-50825120D03*
X131470000Y-50825120D03*
D14*
X132740000Y-48285120D03*
D15*
X136550000Y-50825120D03*
D14*
X139090000Y-45745120D03*
X139090000Y-64795200D03*
D15*
X136550000Y-69875200D03*
D14*
X132740000Y-67335200D03*
D16*
X131470000Y-69875200D03*
X141630000Y-69875200D03*
D14*
X148615000Y-83845280D03*
D15*
X146075000Y-88925280D03*
D14*
X142265000Y-86385280D03*
D16*
X140995000Y-88925280D03*
X151155000Y-88925280D03*
X151155000Y-31775040D03*
X140995000Y-31775040D03*
D14*
X142265000Y-29235040D03*
D15*
X146075000Y-31775040D03*
D14*
X148615000Y-26695040D03*
D16*
X217830800Y-50825160D03*
X207670800Y-50825160D03*
D14*
X208940800Y-48285160D03*
D15*
X212750800Y-50825160D03*
D14*
X215290800Y-45745160D03*
X215290800Y-64795240D03*
D15*
X212750800Y-69875240D03*
D14*
X208940800Y-67335240D03*
D16*
X207670800Y-69875240D03*
X217830800Y-69875240D03*
D14*
X224815840Y-83845320D03*
D15*
X222275840Y-88925320D03*
D14*
X218465840Y-86385320D03*
D16*
X217195840Y-88925320D03*
X227355840Y-88925320D03*
D14*
X281966080Y-26695080D03*
D15*
X279426080Y-31775080D03*
D14*
X275616080Y-29235080D03*
D16*
X274346080Y-31775080D03*
X284506080Y-31775080D03*
X236880880Y-50825160D03*
X226720880Y-50825160D03*
D14*
X227990880Y-48285160D03*
D15*
X231800880Y-50825160D03*
D14*
X234340880Y-45745160D03*
D16*
X236880880Y-69875240D03*
X226720880Y-69875240D03*
D14*
X227990880Y-67335240D03*
D15*
X231800880Y-69875240D03*
D14*
X234340880Y-64795240D03*
X243865920Y-83845320D03*
D15*
X241325920Y-88925320D03*
D14*
X237515920Y-86385320D03*
D16*
X236245920Y-88925320D03*
X246405920Y-88925320D03*
X303556160Y-31775080D03*
X293396160Y-31775080D03*
D14*
X294666160Y-29235080D03*
D15*
X298476160Y-31775080D03*
D14*
X301016160Y-26695080D03*
D16*
X160680560Y-50825120D03*
X150520560Y-50825120D03*
D14*
X151790560Y-48285120D03*
D15*
X155600560Y-50825120D03*
D14*
X158140560Y-45745120D03*
X167665600Y-83845280D03*
D15*
X165125600Y-88925280D03*
D14*
X161315600Y-86385280D03*
D16*
X160045600Y-88925280D03*
X170205600Y-88925280D03*
D14*
X167665600Y-26695080D03*
D15*
X165125600Y-31775080D03*
D14*
X161315600Y-29235080D03*
D16*
X160045600Y-31775080D03*
X170205600Y-31775080D03*
X179730640Y-50825160D03*
X169570640Y-50825160D03*
D14*
X170840640Y-48285160D03*
D15*
X174650640Y-50825160D03*
D14*
X177190640Y-45745160D03*
X186715680Y-83845280D03*
D15*
X184175680Y-88925280D03*
D14*
X180365680Y-86385280D03*
D16*
X179095680Y-88925280D03*
X189255680Y-88925280D03*
X189255680Y-31775040D03*
X179095680Y-31775040D03*
D14*
X180365680Y-29235040D03*
D15*
X184175680Y-31775040D03*
D14*
X186715680Y-26695040D03*
D16*
X198780720Y-50825160D03*
X188620720Y-50825160D03*
D14*
X189890720Y-48285160D03*
D15*
X193700720Y-50825160D03*
D14*
X196240720Y-45745160D03*
D16*
X198780720Y-69875240D03*
X188620720Y-69875240D03*
D14*
X189890720Y-67335240D03*
D15*
X193700720Y-69875240D03*
D14*
X196240720Y-64795240D03*
X205765760Y-26695040D03*
D15*
X203225760Y-31775040D03*
D14*
X199415760Y-29235040D03*
D16*
X198145760Y-31775040D03*
X208305760Y-31775040D03*
X227354840Y-31775040D03*
X217194840Y-31775040D03*
D14*
X218464840Y-29235040D03*
D15*
X222274840Y-31775040D03*
D14*
X224814840Y-26695040D03*
X243864840Y-26695040D03*
D15*
X241324840Y-31775040D03*
D14*
X237514840Y-29235040D03*
D16*
X236244840Y-31775040D03*
X246404840Y-31775040D03*
X265454840Y-31775040D03*
X255294840Y-31775040D03*
D14*
X256564840Y-29235040D03*
D15*
X260374840Y-31775040D03*
D14*
X262914840Y-26695040D03*
D16*
X284506080Y-88925320D03*
X274346080Y-88925320D03*
D14*
X275616080Y-86385320D03*
D15*
X279426080Y-88925320D03*
D14*
X281966080Y-83845320D03*
D16*
X293396160Y-88925320D03*
X303556160Y-88925320D03*
D14*
X302286160Y-91465320D03*
D15*
X298476160Y-88925320D03*
D14*
X295936160Y-94005320D03*
X281966080Y-102895360D03*
D15*
X279426080Y-107975360D03*
D14*
X275616080Y-105435360D03*
D16*
X274346080Y-107975360D03*
X284506080Y-107975360D03*
D14*
X205765760Y-83845320D03*
D15*
X203225760Y-88925320D03*
D14*
X199415760Y-86385320D03*
D16*
X198145760Y-88925320D03*
X208305760Y-88925320D03*
X31457500Y-69875200D03*
X41617500Y-69875200D03*
D14*
X40347500Y-72415200D03*
D15*
X36537500Y-69875200D03*
D14*
X33997500Y-74955200D03*
X258153480Y-45745160D03*
D15*
X255613480Y-50825160D03*
D14*
X251803480Y-48285160D03*
D16*
X250533480Y-50825160D03*
X260693480Y-50825160D03*
D14*
X262916000Y-102895360D03*
D15*
X260376000Y-107975360D03*
D14*
X256566000Y-105435360D03*
D16*
X255296000Y-107975360D03*
X265456000Y-107975360D03*
D23*
X51500000Y-89850040D03*
X60200000Y-89850040D03*
D16*
X298793640Y-50825160D03*
X288633640Y-50825160D03*
D14*
X289903640Y-48285160D03*
D15*
X293713640Y-50825160D03*
D14*
X296253640Y-45745160D03*
D20*
X34271347Y-100452828D03*
D21*
X31771347Y-100452828D03*
X29271347Y-100452828D03*
D22*
X37371347Y-107952828D03*
X26171347Y-107952828D03*
D21*
X34271347Y-114952828D03*
X29271347Y-114952828D03*
D24*
X37801552Y-28187233D03*
X38651552Y-28187233D03*
X39501552Y-28187233D03*
X40351552Y-28187233D03*
X41201552Y-28187233D03*
X42051552Y-28187233D03*
X42901552Y-28187233D03*
X43751552Y-28187233D03*
X38651552Y-26837233D03*
X40351552Y-26837233D03*
X39501552Y-26837233D03*
X37801552Y-26837233D03*
X42051552Y-26837233D03*
X42901552Y-26837233D03*
X43751552Y-26837233D03*
X41201552Y-26837233D03*
D25*
X36451552Y-27207233D03*
X45101552Y-27207233D03*
D26*
X36451552Y-23827233D03*
X45101552Y-23827233D03*
D16*
X298793640Y-69875240D03*
X288633640Y-69875240D03*
D14*
X289903640Y-67335240D03*
D15*
X293713640Y-69875240D03*
D14*
X296253640Y-64795240D03*
X277203560Y-45745160D03*
D15*
X274663560Y-50825160D03*
D14*
X270853560Y-48285160D03*
D16*
X269583560Y-50825160D03*
X279743560Y-50825160D03*
X293396160Y-50825160D03*
X303556160Y-50825160D03*
D14*
X302286160Y-53365160D03*
D15*
X298476160Y-50825160D03*
D14*
X295936160Y-55905160D03*
D16*
X293396160Y-69875240D03*
X303556160Y-69875240D03*
D14*
X302286160Y-72415240D03*
D15*
X298476160Y-69875240D03*
D14*
X295936160Y-74955240D03*
D16*
X101149060Y-107975400D03*
X90989060Y-107975400D03*
D14*
X92259060Y-105435400D03*
D15*
X96069060Y-107975400D03*
D14*
X98609060Y-102895400D03*
X41458820Y-64795240D03*
D15*
X38918820Y-69875240D03*
D14*
X35108820Y-67335240D03*
D16*
X33838820Y-69875240D03*
X43998820Y-69875240D03*
X250533480Y-69875240D03*
X260693480Y-69875240D03*
D15*
X255613480Y-69875240D03*
X293713640Y-88925320D03*
D16*
X298793640Y-88925320D03*
X288633640Y-88925320D03*
X281489860Y-69875240D03*
X291649860Y-69875240D03*
D15*
X286569860Y-69875240D03*
D16*
X71938980Y-107975400D03*
X82098980Y-107975400D03*
D14*
X80828980Y-110515400D03*
D15*
X77018980Y-107975400D03*
D14*
X74478980Y-113055400D03*
D16*
X50507640Y-107975400D03*
X60667640Y-107975400D03*
D14*
X59397640Y-110515400D03*
D15*
X55587640Y-107975400D03*
D14*
X53047640Y-113055400D03*
D16*
X77336460Y-107975400D03*
X67176460Y-107975400D03*
D14*
X68446460Y-105435400D03*
D15*
X72256460Y-107975400D03*
D14*
X74796460Y-102895400D03*
X46221340Y-83845320D03*
D15*
X43681340Y-88925320D03*
D14*
X39871340Y-86385320D03*
D16*
X38601340Y-88925320D03*
X48761340Y-88925320D03*
D14*
X243865920Y-102895400D03*
D15*
X241325920Y-107975400D03*
D14*
X237515920Y-105435400D03*
D16*
X236245920Y-107975400D03*
X246405920Y-107975400D03*
X88607800Y-107975400D03*
X98767800Y-107975400D03*
D14*
X97497800Y-110515400D03*
D15*
X93687800Y-107975400D03*
D14*
X91147800Y-113055400D03*
X198621980Y-102895400D03*
D15*
X196081980Y-107975400D03*
D14*
X192271980Y-105435400D03*
D16*
X191001980Y-107975400D03*
X201161980Y-107975400D03*
D14*
X222434580Y-102895400D03*
D15*
X219894580Y-107975400D03*
D14*
X216084580Y-105435400D03*
D16*
X214814580Y-107975400D03*
X224974580Y-107975400D03*
X270218520Y-88925320D03*
X260058520Y-88925320D03*
D15*
X265138520Y-88925320D03*
D14*
X264979780Y-94005320D03*
D15*
X267519780Y-88925320D03*
D14*
X271329780Y-91465320D03*
D16*
X272599780Y-88925320D03*
X262439780Y-88925320D03*
D14*
X262916000Y-83845320D03*
D15*
X260376000Y-88925320D03*
D14*
X256566000Y-86385320D03*
D16*
X255296000Y-88925320D03*
X265456000Y-88925320D03*
D14*
X167665600Y-102895400D03*
D15*
X165125600Y-107975400D03*
D14*
X161315600Y-105435400D03*
D16*
X160045600Y-107975400D03*
X170205600Y-107975400D03*
D27*
X177063600Y-114960400D03*
X153187600Y-114960400D03*
D15*
X177063600Y-99720400D03*
X153187600Y-99720400D03*
D14*
X150996780Y-102895400D03*
D15*
X148456780Y-107975400D03*
D14*
X144646780Y-105435400D03*
D16*
X143376780Y-107975400D03*
X153536780Y-107975400D03*
D27*
X198456680Y-114960400D03*
X98456880Y-114960400D03*
D15*
X198456680Y-99720400D03*
X98456880Y-99720400D03*
D14*
X53365120Y-102895400D03*
D15*
X50825120Y-107975400D03*
D14*
X47015120Y-105435400D03*
D16*
X45745120Y-107975400D03*
X55905120Y-107975400D03*
D14*
X38760080Y-94005320D03*
D15*
X41300080Y-88925320D03*
D14*
X45110080Y-91465320D03*
D16*
X46380080Y-88925320D03*
X36220080Y-88925320D03*
D27*
X29362080Y-81940320D03*
X53238080Y-81940320D03*
D15*
X29362080Y-97180320D03*
X53238080Y-97180320D03*
D16*
X29076300Y-107975400D03*
X39236300Y-107975400D03*
D15*
X34156300Y-107975400D03*
D14*
X122104180Y-113055400D03*
D15*
X124644180Y-107975400D03*
D14*
X128454180Y-110515400D03*
D16*
X129724180Y-107975400D03*
X119564180Y-107975400D03*
D27*
X112706180Y-114960400D03*
X136582180Y-114960400D03*
D15*
X112706180Y-99720400D03*
X136582180Y-99720400D03*
D14*
X129565440Y-102895400D03*
D15*
X127025440Y-107975400D03*
D14*
X123215440Y-105435400D03*
D16*
X121945440Y-107975400D03*
X132105440Y-107975400D03*
D27*
X138963440Y-114960400D03*
X115087440Y-114960400D03*
D15*
X138963440Y-99720400D03*
X115087440Y-99720400D03*
D14*
X250692220Y-65430200D03*
D15*
X253232220Y-60350200D03*
D14*
X257042220Y-62890200D03*
D16*
X258312220Y-60350200D03*
X248152220Y-60350200D03*
D14*
X153060560Y-74955240D03*
D15*
X155600560Y-69875240D03*
D14*
X159410560Y-72415240D03*
D16*
X160680560Y-69875240D03*
X150520560Y-69875240D03*
X160680560Y-69875240D03*
X150520560Y-69875240D03*
D15*
X155600560Y-69875240D03*
D14*
X265297260Y-64795240D03*
D15*
X262757260Y-69875240D03*
D14*
X258947260Y-67335240D03*
D16*
X257677260Y-69875240D03*
X267837260Y-69875240D03*
D27*
X274695260Y-76860240D03*
X250819260Y-76860240D03*
D15*
X274695260Y-61620240D03*
X250819260Y-61620240D03*
D14*
X298634900Y-83845320D03*
D15*
X296094900Y-88925320D03*
D14*
X292284900Y-86385320D03*
D16*
X291014900Y-88925320D03*
X301174900Y-88925320D03*
D14*
X217354580Y-113055400D03*
D15*
X219894580Y-107975400D03*
D14*
X223704580Y-110515400D03*
D16*
X224974580Y-107975400D03*
X214814580Y-107975400D03*
D15*
X274663560Y-69875240D03*
D16*
X269583560Y-69875240D03*
X279743560Y-69875240D03*
D14*
X276886080Y-74955240D03*
D15*
X279426080Y-69875240D03*
D14*
X283236080Y-72415240D03*
D16*
X284506080Y-69875240D03*
X274346080Y-69875240D03*
X248152220Y-69875240D03*
X258312220Y-69875240D03*
D15*
X253232220Y-69875240D03*
D27*
X246247220Y-48412200D03*
X246247220Y-72288200D03*
D15*
X261487220Y-48412200D03*
X261487220Y-72288200D03*
D28*
X278350000Y-41350040D03*
D29*
X278350000Y-40080040D03*
X279620000Y-41350040D03*
X279620000Y-40080040D03*
X280890000Y-41350040D03*
X280890000Y-40080040D03*
X282160000Y-41350040D03*
X282160000Y-40080040D03*
X283430000Y-41350040D03*
X283430000Y-40080040D03*
X287880000Y-30670040D03*
X289150000Y-30670040D03*
X287880000Y-31940040D03*
X289150000Y-31940040D03*
X287880000Y-33210040D03*
X289150000Y-33210040D03*
X287880000Y-34480040D03*
X289150000Y-34480040D03*
X287880000Y-35750040D03*
D28*
X289150000Y-35750040D03*
D30*
X297500000Y-37650040D03*
X300200000Y-37650040D03*
D31*
X294950000Y-37650040D03*
X302750000Y-37650040D03*
X302050000Y-34850040D03*
X294250000Y-34850040D03*
D30*
X299500000Y-34850040D03*
X296800000Y-34850040D03*
D16*
X55905000Y-31775040D03*
X45745000Y-31775040D03*
D15*
X50825000Y-31775040D03*
X31775040Y-31775080D03*
D16*
X26695040Y-31775080D03*
X36855040Y-31775080D03*
D32*
X27400000Y-63325040D03*
X27400000Y-61575040D03*
X23900000Y-63325040D03*
X23900000Y-61575040D03*
X23900000Y-65775040D03*
X23900000Y-67525040D03*
X27400000Y-65775040D03*
X27400000Y-67525040D03*
X27400000Y-86125040D03*
X27400000Y-84375040D03*
X23900000Y-86125040D03*
X23900000Y-84375040D03*
X23900000Y-88575040D03*
X23900000Y-90325040D03*
X27400000Y-88575040D03*
X27400000Y-90325040D03*
X306200000Y-44125040D03*
X306200000Y-42375040D03*
X302700000Y-44125040D03*
X302700000Y-42375040D03*
X302700000Y-46575040D03*
X302700000Y-48325040D03*
X306200000Y-46575040D03*
X306200000Y-48325040D03*
X302700000Y-61575040D03*
X302700000Y-63325040D03*
X306200000Y-61575040D03*
X306200000Y-63325040D03*
X306200000Y-67525040D03*
X306200000Y-65775040D03*
X302700000Y-67525040D03*
X302700000Y-65775040D03*
D14*
X301016160Y-102895400D03*
D15*
X298476160Y-107975400D03*
D14*
X294666160Y-105435400D03*
D16*
X293396160Y-107975400D03*
X303556160Y-107975400D03*
D14*
X34315040Y-102895400D03*
D15*
X31775040Y-107975400D03*
D14*
X27965040Y-105435400D03*
D16*
X26695040Y-107975400D03*
X36855040Y-107975400D03*
M02*
