<?xml version="1.0" encoding="UTF-8" standalone="no"?>
<!DOCTYPE svg PUBLIC "-//W3C//DTD SVG 1.1//EN" "http://www.w3.org/Graphics/SVG/1.1/DTD/svg11.dtd">
<svg width="100%" height="100%" viewBox="0 0 1118 398" version="1.1" xmlns="http://www.w3.org/2000/svg" xmlns:xlink="http://www.w3.org/1999/xlink" xml:space="preserve" xmlns:serif="http://www.serif.com/" style="fill-rule:evenodd;clip-rule:evenodd;">
    <g transform="matrix(1.33333,0,0,1.33333,0,0)">
        <g id="v04_1">
            <g>
                <path d="M805.415,129.335L643.77,129.348C642.992,129.349 642.362,129.979 642.362,130.757C642.362,136.889 642.362,161.233 642.362,167.527C642.362,168.351 643.03,169.019 643.854,169.019L706.193,169.019L706.193,173.271C706.193,174.048 706.833,174.688 707.61,174.688L724.618,174.688C725.396,174.688 726.036,174.048 726.036,173.271L726.036,169.019L773.873,169.019L773.873,173.271C773.873,174.048 774.513,174.688 775.29,174.688L792.298,174.688C793.076,174.688 793.716,174.048 793.716,173.271L793.716,169.019L807.018,169.019L807.018,183.318L778.779,183.334C778.002,183.334 777.362,183.973 777.362,184.751L777.362,221.601C777.362,222.379 778.002,223.019 778.779,223.019L815.63,223.019C816.407,223.019 817.047,222.379 817.047,221.601L817.047,183.334C817.047,183.334 820.169,183.334 822.119,183.334C822.962,183.334 823.646,184.017 823.646,184.861C823.646,197.048 823.646,278.05 823.646,278.05L823.629,278.49L823.575,278.932L823.487,279.369L823.368,279.799L823.212,280.219L823.028,280.619L822.81,281.007L822.566,281.378L822.285,281.73L821.985,282.059L821.656,282.356L821.307,282.634L820.936,282.881L820.548,283.099L820.145,283.283L819.731,283.442L819.298,283.561L818.861,283.646L818.419,283.697L817.977,283.714L20.378,283.72L19.933,283.697L19.491,283.646L19.054,283.561L18.624,283.442L18.207,283.283L17.804,283.099L17.416,282.881L17.045,282.634L16.696,282.356L16.367,282.059L16.067,281.73L15.789,281.378L15.542,281.007L15.324,280.619L15.14,280.219L14.984,279.799L14.865,279.369L14.777,278.932L14.726,278.49L14.706,278.05L14.706,184.736C14.706,183.953 15.341,183.318 16.123,183.318L21.362,183.324L21.362,221.601C21.362,222.379 22.002,223.019 22.779,223.019L24.443,223.019L24.443,227.271C24.443,228.048 25.083,228.688 25.86,228.688L42.868,228.688C43.646,228.688 44.286,228.048 44.286,227.271L44.286,223.019L92.123,223.019L92.123,227.271C92.123,228.048 92.763,228.688 93.54,228.688L110.548,228.688C111.326,228.688 111.966,228.048 111.966,227.271L111.966,223.019L113.63,223.019C114.407,223.019 115.047,222.379 115.047,221.601L115.047,184.751C115.047,183.973 114.407,183.334 113.63,183.334L31.672,183.32L31.717,175.255L31.368,173.064L30.362,171.088L28.794,169.52L26.821,168.514L24.633,168.168L16.123,168.168L15.121,167.753L14.706,166.751L14.709,20.305L14.726,19.86L14.777,19.417L14.865,18.981L14.984,18.55L15.14,18.133L15.324,17.731L15.542,17.342L15.789,16.971L16.067,16.622L16.367,16.294L16.696,15.993L17.045,15.715L17.416,15.469L17.804,15.25L18.207,15.066L18.624,14.91L19.054,14.791L19.491,14.703L19.933,14.652L20.378,14.632L817.977,14.635L818.419,14.652L818.861,14.703L819.298,14.791L819.731,14.91L820.145,15.066L820.548,15.25L820.936,15.469L821.307,15.715L821.656,15.993L821.985,16.294L822.285,16.622L822.566,16.971L822.81,17.342L823.028,17.731L823.212,18.133L823.368,18.55L823.487,18.981L823.575,19.417L823.629,19.86L823.646,20.305C823.646,20.305 823.646,151.962 823.646,167.509C823.646,168.335 822.977,169.004 822.152,169.004C820.205,169.004 817.047,169.004 817.047,169.004L817.047,124.376C817.047,123.55 816.378,122.88 815.552,122.88C813.105,122.88 809.356,122.863 806.91,122.863C806.084,122.863 805.415,123.532 805.415,124.358L805.415,129.335ZM487.09,274.184L484.838,274.184C484.061,274.184 483.421,273.544 483.421,272.766L483.421,233.08C483.421,232.303 484.061,231.663 484.838,231.663L501.846,231.663C502.624,231.663 503.264,232.303 503.264,233.08L503.264,237.332L551.102,237.332L551.102,233.08C551.102,232.303 551.742,231.663 552.52,231.663L569.528,231.663C570.305,231.663 570.945,232.303 570.945,233.08L570.945,237.332L653.611,237.332C654.388,237.332 655.028,237.972 655.028,238.75L655.028,275.601C655.028,276.379 654.388,277.018 653.611,277.018L488.507,277.018C487.73,277.018 487.09,276.379 487.09,275.601L487.09,274.184ZM375.419,237.332L375.419,233.08C375.419,232.303 376.059,231.663 376.836,231.663L393.844,231.663C394.622,231.663 395.262,232.303 395.262,233.08L395.262,237.332L443.1,237.332L443.1,233.08C443.1,232.303 443.74,231.663 444.517,231.663L461.526,231.663C462.303,231.663 462.943,232.303 462.943,233.08L462.943,237.332L464.607,237.332C465.385,237.332 466.024,237.972 466.024,238.75L466.024,275.601C466.024,276.379 465.385,277.018 464.607,277.018L373.755,277.018C372.977,277.018 372.338,276.379 372.338,275.601L372.338,238.75C372.338,237.972 372.977,237.332 373.755,237.332L375.419,237.332ZM285.842,231.663C286.62,231.663 287.26,232.303 287.26,233.08L287.26,237.332L328.348,237.332L328.348,233.08C328.348,232.303 328.988,231.663 329.765,231.663L353.524,231.663C354.301,231.663 354.941,232.303 354.941,233.08L354.941,272.766C354.941,273.544 354.301,274.184 353.524,274.184L331.022,274.184L331.022,275.601C331.022,276.379 330.382,277.018 329.604,277.018L286.003,277.018C285.226,277.018 284.586,276.379 284.586,275.601L284.586,274.184L262.084,274.184C261.306,274.184 260.667,273.544 260.667,272.766L260.667,233.08C260.667,232.303 261.306,231.663 262.084,231.663L285.842,231.663ZM707.585,277.004C708.392,277.004 709.047,276.349 709.047,275.542C709.047,269.312 709.047,245.012 709.047,238.781C709.047,238.393 708.893,238.021 708.619,237.747C708.344,237.473 707.972,237.319 707.585,237.319C700.638,237.321 671.018,237.331 664.073,237.333C663.266,237.333 662.612,237.988 662.612,238.795C662.612,245.023 662.612,269.313 662.612,275.542C662.612,276.349 663.266,277.004 664.074,277.004C671.019,277.004 700.639,277.004 707.585,277.004ZM763.047,275.586L763.047,238.736C763.047,237.958 762.407,237.318 761.63,237.318L724.779,237.318C724.002,237.318 723.362,237.958 723.362,238.736L723.362,275.586C723.362,276.364 724.002,277.004 724.779,277.004L761.63,277.004C762.407,277.004 763.047,276.364 763.047,275.586ZM59.836,237.318L22.573,237.318C21.909,237.318 21.362,237.958 21.362,238.736L21.362,275.586C21.362,276.364 21.909,277.004 22.573,277.004L59.836,277.004C60.5,277.004 61.047,276.364 61.047,275.586L61.047,238.736C61.047,237.958 60.5,237.318 59.836,237.318ZM113.989,237.318L76.419,237.318C75.839,237.318 75.362,237.958 75.362,238.736L75.362,275.586C75.362,276.364 75.839,277.004 76.419,277.004L113.989,277.004C114.57,277.004 115.047,276.364 115.047,275.586L115.047,238.736C115.047,237.958 114.57,237.318 113.989,237.318ZM174.559,237.318L130.599,237.318C129.92,237.318 129.362,237.958 129.362,238.736L129.362,275.586C129.362,276.364 129.92,277.004 130.599,277.004L174.559,277.004C175.238,277.004 175.797,276.364 175.797,275.586L175.797,238.736C175.797,237.958 175.238,237.318 174.559,237.318ZM198.279,277.004L241.88,277.004C242.657,277.004 243.297,276.364 243.297,275.586L243.297,238.736C243.297,237.958 242.657,237.318 241.88,237.318L198.279,237.318C197.502,237.318 196.862,237.958 196.862,238.736L196.862,275.586C196.862,276.364 197.502,277.004 198.279,277.004ZM817.047,275.586L817.047,238.736C817.047,237.958 816.407,237.318 815.63,237.318L778.779,237.318C778.002,237.318 777.362,237.958 777.362,238.736L777.362,275.586C777.362,276.364 778.002,277.004 778.779,277.004L815.63,277.004C816.407,277.004 817.047,276.364 817.047,275.586ZM709.047,221.601L709.047,184.751C709.047,183.973 708.407,183.334 707.63,183.334L670.779,183.334C670.002,183.334 669.362,183.973 669.362,184.751L669.362,221.601C669.362,222.379 670.002,223.019 670.779,223.019L707.63,223.019C708.407,223.019 709.047,222.379 709.047,221.601ZM763.047,221.601L763.047,184.751C763.047,183.973 762.407,183.334 761.63,183.334L724.779,183.334C724.002,183.334 723.362,183.973 723.362,184.751L723.362,221.601C723.362,222.379 724.002,223.019 724.779,223.019L761.63,223.019C762.407,223.019 763.047,222.379 763.047,221.601ZM439.047,221.586L439.047,184.736C439.047,183.958 438.407,183.318 437.63,183.318L400.779,183.318C400.002,183.318 399.362,183.958 399.362,184.736L399.362,221.586C399.362,222.364 400.002,223.004 400.779,223.004L437.63,223.004C438.407,223.004 439.047,222.364 439.047,221.586ZM655.047,221.586L655.047,184.736C655.047,183.958 654.407,183.318 653.63,183.318L616.779,183.318C616.002,183.318 615.362,183.958 615.362,184.736L615.362,221.586C615.362,222.364 616.002,223.004 616.779,223.004L653.63,223.004C654.407,223.004 655.047,222.364 655.047,221.586ZM493.047,221.586L493.047,184.736C493.047,183.958 492.407,183.318 491.63,183.318L454.779,183.318C454.002,183.318 453.362,183.958 453.362,184.736L453.362,221.586C453.362,222.364 454.002,223.004 454.779,223.004L491.63,223.004C492.407,223.004 493.047,222.364 493.047,221.586ZM277.047,221.586L277.047,184.736C277.047,183.958 276.407,183.318 275.63,183.318L238.779,183.318C238.002,183.318 237.362,183.958 237.362,184.736L237.362,221.586C237.362,222.364 238.002,223.004 238.779,223.004L275.63,223.004C276.407,223.004 277.047,222.364 277.047,221.586ZM547.047,221.586L547.047,184.736C547.047,183.958 546.407,183.318 545.63,183.318L508.779,183.318C508.002,183.318 507.362,183.958 507.362,184.736L507.362,221.586C507.362,222.364 508.002,223.004 508.779,223.004L545.63,223.004C546.407,223.004 547.047,222.364 547.047,221.586ZM331.047,221.586L331.047,184.736C331.047,183.958 330.407,183.318 329.63,183.318L292.779,183.318C292.002,183.318 291.362,183.958 291.362,184.736L291.362,221.586C291.362,222.364 292.002,223.004 292.779,223.004L329.63,223.004C330.407,223.004 331.047,222.364 331.047,221.586ZM385.047,221.586L385.047,184.736C385.047,183.958 384.407,183.318 383.63,183.318L346.779,183.318C346.002,183.318 345.362,183.958 345.362,184.736L345.362,221.586C345.362,222.364 346.002,223.004 346.779,223.004L383.63,223.004C384.407,223.004 385.047,222.364 385.047,221.586ZM601.047,221.586L601.047,184.736C601.047,183.958 600.407,183.318 599.63,183.318L562.779,183.318C562.002,183.318 561.362,183.958 561.362,184.736L561.362,221.586C561.362,222.364 562.002,223.004 562.779,223.004L599.63,223.004C600.407,223.004 601.047,222.364 601.047,221.586ZM223.047,221.586L223.047,184.736C223.047,183.958 222.407,183.318 221.63,183.318L184.779,183.318C184.002,183.318 183.362,183.958 183.362,184.736L183.362,221.586C183.362,222.364 184.002,223.004 184.779,223.004L221.63,223.004C222.407,223.004 223.047,222.364 223.047,221.586ZM169.047,221.586L169.047,184.736C169.047,183.958 168.407,183.318 167.63,183.318L130.779,183.318C130.002,183.318 129.362,183.958 129.362,184.736L129.362,221.586C129.362,222.364 130.002,223.004 130.779,223.004L167.63,223.004C168.407,223.004 169.047,222.364 169.047,221.586ZM79.88,129.318L36.279,129.318C35.502,129.318 34.862,129.958 34.862,130.736L34.862,167.586C34.862,168.364 35.502,169.004 36.279,169.004L79.88,169.004C80.657,169.004 81.297,168.364 81.297,167.586L81.297,130.736C81.297,129.958 80.657,129.318 79.88,129.318ZM628.047,167.586L628.047,130.736C628.047,129.958 627.407,129.318 626.63,129.318L589.779,129.318C589.002,129.318 588.362,129.958 588.362,130.736L588.362,167.586C588.362,168.364 589.002,169.004 589.779,169.004L626.63,169.004C627.407,169.004 628.047,168.364 628.047,167.586ZM250.047,167.586L250.047,130.736C250.047,129.958 249.407,129.318 248.63,129.318L211.779,129.318C211.002,129.318 210.362,129.958 210.362,130.736L210.362,167.586C210.362,168.364 211.002,169.004 211.779,169.004L248.63,169.004C249.407,169.004 250.047,168.364 250.047,167.586ZM520.047,167.586L520.047,130.736C520.047,129.958 519.407,129.318 518.63,129.318L481.779,129.318C481.002,129.318 480.362,129.958 480.362,130.736L480.362,167.586C480.362,168.364 481.002,169.004 481.779,169.004L518.63,169.004C519.407,169.004 520.047,168.364 520.047,167.586ZM358.047,167.586L358.047,130.736C358.047,129.958 357.407,129.318 356.63,129.318L319.779,129.318C319.002,129.318 318.362,129.958 318.362,130.736L318.362,167.586C318.362,168.364 319.002,169.004 319.779,169.004L356.63,169.004C357.407,169.004 358.047,168.364 358.047,167.586ZM574.047,167.586L574.047,130.736C574.047,129.958 573.407,129.318 572.63,129.318L535.779,129.318C535.002,129.318 534.362,129.958 534.362,130.736L534.362,167.586C534.362,168.364 535.002,169.004 535.779,169.004L572.63,169.004C573.407,169.004 574.047,168.364 574.047,167.586ZM103.779,169.004L140.63,169.004C141.407,169.004 142.047,168.364 142.047,167.586L142.047,130.736C142.047,129.958 141.407,129.318 140.63,129.318L103.779,129.318C103.002,129.318 102.362,129.958 102.362,130.736L102.362,167.586C102.362,168.364 103.002,169.004 103.779,169.004ZM196.047,167.586L196.047,130.736C196.047,129.958 195.407,129.318 194.63,129.318L157.779,129.318C157.002,129.318 156.362,129.958 156.362,130.736L156.362,167.586C156.362,168.364 157.002,169.004 157.779,169.004L194.63,169.004C195.407,169.004 196.047,168.364 196.047,167.586ZM304.047,167.586L304.047,130.736C304.047,129.958 303.407,129.318 302.63,129.318L265.779,129.318C265.002,129.318 264.362,129.958 264.362,130.736L264.362,167.586C264.362,168.364 265.002,169.004 265.779,169.004L302.63,169.004C303.407,169.004 304.047,168.364 304.047,167.586ZM466.047,167.586L466.047,130.736C466.047,129.958 465.407,129.318 464.63,129.318L427.779,129.318C427.002,129.318 426.362,129.958 426.362,130.736L426.362,167.586C426.362,168.364 427.002,169.004 427.779,169.004L464.63,169.004C465.407,169.004 466.047,168.364 466.047,167.586ZM412.047,167.586L412.047,130.736C412.047,129.958 411.407,129.318 410.63,129.318L373.779,129.318C373.002,129.318 372.362,129.958 372.362,130.736L372.362,167.586C372.362,168.364 373.002,169.004 373.779,169.004L410.63,169.004C411.407,169.004 412.047,168.364 412.047,167.586ZM27.669,121.955C27.669,121.173 27.035,120.538 26.252,120.538C24.836,120.538 22.672,120.538 21.256,120.538C20.473,120.538 19.839,121.173 19.839,121.955C19.839,127.001 19.839,144.059 19.839,149.105C19.839,149.887 20.473,150.522 21.256,150.522C22.672,150.522 24.836,150.522 26.252,150.522C27.035,150.522 27.669,149.887 27.669,149.105C27.669,144.059 27.669,127.001 27.669,121.955ZM642.362,113.512C642.362,114.336 643.03,115.004 643.854,115.004C659.846,115.004 799.352,115.004 815.521,115.004C816.364,115.004 817.047,114.32 817.047,113.477C817.047,107.16 817.047,83.102 817.047,76.844C817.047,76.018 816.378,75.349 815.552,75.348C799.504,75.347 659.365,75.335 643.77,75.334C643.397,75.334 643.039,75.482 642.774,75.746C642.51,76.01 642.362,76.369 642.362,76.742C642.362,82.874 642.362,107.218 642.362,113.512ZM196.047,113.586L196.047,76.736C196.047,75.958 195.407,75.318 194.63,75.318L157.779,75.318C157.002,75.318 156.362,75.958 156.362,76.736L156.362,113.586C156.362,114.364 157.002,115.004 157.779,115.004L194.63,115.004C195.407,115.004 196.047,114.364 196.047,113.586ZM520.047,113.586L520.047,76.736C520.047,75.958 519.407,75.318 518.63,75.318L481.779,75.318C481.002,75.318 480.362,75.958 480.362,76.736L480.362,113.586C480.362,114.364 481.002,115.004 481.779,115.004L518.63,115.004C519.407,115.004 520.047,114.364 520.047,113.586ZM73.13,75.318L36.279,75.318C35.502,75.318 34.862,75.958 34.862,76.736L34.862,113.586C34.862,114.364 35.502,115.004 36.279,115.004L73.13,115.004C73.907,115.004 74.547,114.364 74.547,113.586L74.547,76.736C74.547,75.958 73.907,75.318 73.13,75.318ZM250.047,113.586L250.047,76.736C250.047,75.958 249.407,75.318 248.63,75.318L211.779,75.318C211.002,75.318 210.362,75.958 210.362,76.736L210.362,113.586C210.362,114.364 211.002,115.004 211.779,115.004L248.63,115.004C249.407,115.004 250.047,114.364 250.047,113.586ZM412.047,113.586L412.047,76.736C412.047,75.958 411.407,75.318 410.63,75.318L373.779,75.318C373.002,75.318 372.362,75.958 372.362,76.736L372.362,113.586C372.362,114.364 373.002,115.004 373.779,115.004L410.63,115.004C411.407,115.004 412.047,114.364 412.047,113.586ZM358.047,113.586L358.047,76.736C358.047,75.958 357.407,75.318 356.63,75.318L319.779,75.318C319.002,75.318 318.362,75.958 318.362,76.736L318.362,113.586C318.362,114.364 319.002,115.004 319.779,115.004L356.63,115.004C357.407,115.004 358.047,114.364 358.047,113.586ZM103.779,115.004L140.63,115.004C141.407,115.004 142.047,114.364 142.047,113.586L142.047,76.736C142.047,75.958 141.407,75.318 140.63,75.318L103.779,75.318C103.002,75.318 102.362,75.958 102.362,76.736L102.362,113.586C102.362,114.364 103.002,115.004 103.779,115.004ZM466.047,113.586L466.047,76.736C466.047,75.958 465.407,75.318 464.63,75.318L427.779,75.318C427.002,75.318 426.362,75.958 426.362,76.736L426.362,113.586C426.362,114.364 427.002,115.004 427.779,115.004L464.63,115.004C465.407,115.004 466.047,114.364 466.047,113.586ZM628.047,113.586L628.047,76.736C628.047,75.958 627.407,75.318 626.63,75.318L589.779,75.318C589.002,75.318 588.362,75.958 588.362,76.736L588.362,113.586C588.362,114.364 589.002,115.004 589.779,115.004L626.63,115.004C627.407,115.004 628.047,114.364 628.047,113.586ZM304.047,113.586L304.047,76.736C304.047,75.958 303.407,75.318 302.63,75.318L265.779,75.318C265.002,75.318 264.362,75.958 264.362,76.736L264.362,113.586C264.362,114.364 265.002,115.004 265.779,115.004L302.63,115.004C303.407,115.004 304.047,114.364 304.047,113.586ZM574.047,113.586L574.047,76.736C574.047,75.958 573.407,75.318 572.63,75.318L535.779,75.318C535.002,75.318 534.362,75.958 534.362,76.736L534.362,113.586C534.362,114.364 535.002,115.004 535.779,115.004L572.63,115.004C573.407,115.004 574.047,114.364 574.047,113.586ZM86.674,87.382C82.919,87.382 79.87,90.431 79.87,94.185C79.87,97.94 82.919,100.989 86.674,100.989C90.428,100.989 93.477,97.94 93.477,94.185C93.477,90.431 90.428,87.382 86.674,87.382ZM815.614,21.326C816.391,21.326 817.031,21.966 817.031,22.743L817.031,59.595C817.031,60.372 816.391,61.012 815.614,61.012L813.95,61.012L813.95,65.264C813.95,66.042 813.31,66.682 812.532,66.682L795.524,66.682C794.747,66.682 794.107,66.042 794.107,65.264L794.107,61.012L746.268,61.012L746.268,65.264C746.268,66.042 745.629,66.682 744.851,66.682L727.843,66.682C727.065,66.682 726.425,66.042 726.425,65.264L726.425,61.012L724.762,61.012C723.984,61.012 723.344,60.372 723.344,59.595L723.344,22.743C723.344,21.966 723.984,21.326 724.762,21.326L815.614,21.326ZM493.047,59.586L493.047,22.736C493.047,21.958 492.407,21.318 491.63,21.318L454.779,21.318C454.002,21.318 453.362,21.958 453.362,22.736L453.362,59.586C453.362,60.364 454.002,61.004 454.779,61.004L491.63,61.004C492.407,61.004 493.047,60.364 493.047,59.586ZM76.779,61.004L113.63,61.004C114.407,61.004 115.047,60.364 115.047,59.586L115.047,22.736C115.047,21.958 114.407,21.318 113.63,21.318L76.779,21.318C76.002,21.318 75.362,21.958 75.362,22.736L75.362,59.586C75.362,60.364 76.002,61.004 76.779,61.004ZM61.047,59.586L61.047,22.736C61.047,21.958 60.407,21.318 59.63,21.318L22.779,21.318C22.002,21.318 21.362,21.958 21.362,22.736L21.362,59.586C21.362,60.364 22.002,61.004 22.779,61.004L59.63,61.004C60.407,61.004 61.047,60.364 61.047,59.586ZM223.047,59.586L223.047,22.736C223.047,21.958 222.407,21.318 221.63,21.318L184.779,21.318C184.002,21.318 183.362,21.958 183.362,22.736L183.362,59.586C183.362,60.364 184.002,61.004 184.779,61.004L221.63,61.004C222.407,61.004 223.047,60.364 223.047,59.586ZM601.047,59.586L601.047,22.736C601.047,21.958 600.407,21.318 599.63,21.318L562.779,21.318C562.002,21.318 561.362,21.958 561.362,22.736L561.362,59.586C561.362,60.364 562.002,61.004 562.779,61.004L599.63,61.004C600.407,61.004 601.047,60.364 601.047,59.586ZM439.047,59.586L439.047,22.736C439.047,21.958 438.407,21.318 437.63,21.318L400.779,21.318C400.002,21.318 399.362,21.958 399.362,22.736L399.362,59.586C399.362,60.364 400.002,61.004 400.779,61.004L437.63,61.004C438.407,61.004 439.047,60.364 439.047,59.586ZM385.047,59.586L385.047,22.736C385.047,21.958 384.407,21.318 383.63,21.318L346.779,21.318C346.002,21.318 345.362,21.958 345.362,22.736L345.362,59.586C345.362,60.364 346.002,61.004 346.779,61.004L383.63,61.004C384.407,61.004 385.047,60.364 385.047,59.586ZM547.047,59.586L547.047,22.736C547.047,21.958 546.407,21.318 545.63,21.318L508.779,21.318C508.002,21.318 507.362,21.958 507.362,22.736L507.362,59.586C507.362,60.364 508.002,61.004 508.779,61.004L545.63,61.004C546.407,61.004 547.047,60.364 547.047,59.586ZM655.047,59.586L655.047,22.736C655.047,21.958 654.407,21.318 653.63,21.318L616.779,21.318C616.002,21.318 615.362,21.958 615.362,22.736L615.362,59.586C615.362,60.364 616.002,61.004 616.779,61.004L653.63,61.004C654.407,61.004 655.047,60.364 655.047,59.586ZM331.047,59.586L331.047,22.736C331.047,21.958 330.407,21.318 329.63,21.318L292.779,21.318C292.002,21.318 291.362,21.958 291.362,22.736L291.362,59.586C291.362,60.364 292.002,61.004 292.779,61.004L329.63,61.004C330.407,61.004 331.047,60.364 331.047,59.586ZM277.047,59.586L277.047,22.736C277.047,21.958 276.407,21.318 275.63,21.318L238.779,21.318C238.002,21.318 237.362,21.958 237.362,22.736L237.362,59.586C237.362,60.364 238.002,61.004 238.779,61.004L275.63,61.004C276.407,61.004 277.047,60.364 277.047,59.586ZM709.047,59.586L709.047,22.736C709.047,21.958 708.407,21.318 707.63,21.318L670.779,21.318C670.002,21.318 669.362,21.958 669.362,22.736L669.362,59.586C669.362,60.364 670.002,61.004 670.779,61.004L707.63,61.004C708.407,61.004 709.047,60.364 709.047,59.586ZM169.047,59.586L169.047,22.736C169.047,21.958 168.407,21.318 167.63,21.318L130.779,21.318C130.002,21.318 129.362,21.958 129.362,22.736L129.362,59.586C129.362,60.364 130.002,61.004 130.779,61.004L167.63,61.004C168.407,61.004 169.047,60.364 169.047,59.586Z" style="fill:rgb(192,192,192);stroke:rgb(28,191,255);stroke-width:1.42px;"/>
            </g>
        </g>
    </g>
</svg>
