%TF.GenerationSoftware,KiCad,Pcbnew,(5.1.10-1-10_14)*%
%TF.CreationDate,2021-07-19T18:02:04+09:00*%
%TF.ProjectId,keyplate,6b657970-6c61-4746-952e-6b696361645f,rev?*%
%TF.SameCoordinates,Original*%
%TF.FileFunction,Legend,Bot*%
%TF.FilePolarity,Positive*%
%FSLAX46Y46*%
G04 Gerber Fmt 4.6, Leading zero omitted, Abs format (unit mm)*
G04 Created by KiCad (PCBNEW (5.1.10-1-10_14)) date 2021-07-19 18:02:04*
%MOMM*%
%LPD*%
G01*
G04 APERTURE LIST*
%ADD10C,0.300000*%
%ADD11C,0.250000*%
%ADD12C,0.010000*%
G04 APERTURE END LIST*
D10*
X17046428Y-107238571D02*
X15974999Y-107238571D01*
X15760714Y-107310000D01*
X15617857Y-107452857D01*
X15546428Y-107667142D01*
X15546428Y-107810000D01*
X15546428Y-105810000D02*
X15546428Y-106524285D01*
X17046428Y-106524285D01*
X15689285Y-104452857D02*
X15617857Y-104524285D01*
X15546428Y-104738571D01*
X15546428Y-104881428D01*
X15617857Y-105095714D01*
X15760714Y-105238571D01*
X15903571Y-105310000D01*
X16189285Y-105381428D01*
X16403571Y-105381428D01*
X16689285Y-105310000D01*
X16832142Y-105238571D01*
X16975000Y-105095714D01*
X17046428Y-104881428D01*
X17046428Y-104738571D01*
X16975000Y-104524285D01*
X16903571Y-104452857D01*
X17046428Y-103381428D02*
X15975000Y-103381428D01*
X15760714Y-103452857D01*
X15617857Y-103595714D01*
X15546428Y-103810000D01*
X15546428Y-103952857D01*
X15546428Y-101952857D02*
X15546428Y-102667142D01*
X17046428Y-102667142D01*
X15689285Y-100595714D02*
X15617857Y-100667142D01*
X15546428Y-100881428D01*
X15546428Y-101024285D01*
X15617857Y-101238571D01*
X15760714Y-101381428D01*
X15903571Y-101452857D01*
X16189285Y-101524285D01*
X16403571Y-101524285D01*
X16689285Y-101452857D01*
X16832142Y-101381428D01*
X16975000Y-101238571D01*
X17046428Y-101024285D01*
X17046428Y-100881428D01*
X16975000Y-100667142D01*
X16903571Y-100595714D01*
X17046428Y-99524285D02*
X15975000Y-99524285D01*
X15760714Y-99595714D01*
X15617857Y-99738571D01*
X15546428Y-99952857D01*
X15546428Y-100095714D01*
X15546428Y-98095714D02*
X15546428Y-98810000D01*
X17046428Y-98810000D01*
X15689285Y-96738571D02*
X15617857Y-96810000D01*
X15546428Y-97024285D01*
X15546428Y-97167142D01*
X15617857Y-97381428D01*
X15760714Y-97524285D01*
X15903571Y-97595714D01*
X16189285Y-97667142D01*
X16403571Y-97667142D01*
X16689285Y-97595714D01*
X16832142Y-97524285D01*
X16975000Y-97381428D01*
X17046428Y-97167142D01*
X17046428Y-97024285D01*
X16975000Y-96810000D01*
X16903571Y-96738571D01*
X17046428Y-95667142D02*
X15975000Y-95667142D01*
X15760714Y-95738571D01*
X15617857Y-95881428D01*
X15546428Y-96095714D01*
X15546428Y-96238571D01*
X15546428Y-94238571D02*
X15546428Y-94952857D01*
X17046428Y-94952857D01*
X15689285Y-92881428D02*
X15617857Y-92952857D01*
X15546428Y-93167142D01*
X15546428Y-93310000D01*
X15617857Y-93524285D01*
X15760714Y-93667142D01*
X15903571Y-93738571D01*
X16189285Y-93810000D01*
X16403571Y-93810000D01*
X16689285Y-93738571D01*
X16832142Y-93667142D01*
X16975000Y-93524285D01*
X17046428Y-93310000D01*
X17046428Y-93167142D01*
X16975000Y-92952857D01*
X16903571Y-92881428D01*
D11*
X68926785Y-33988571D02*
X67855357Y-33988571D01*
X68498214Y-33345714D02*
X68926785Y-35274285D01*
X67998214Y-34631428D02*
X69069642Y-34631428D01*
X68426785Y-35274285D02*
X67998214Y-33345714D01*
X66926785Y-33488571D02*
X66926785Y-34560000D01*
X66998214Y-34774285D01*
X67141071Y-34917142D01*
X67355357Y-34988571D01*
X67498214Y-34988571D01*
X65998214Y-34988571D02*
X66141071Y-34917142D01*
X66212500Y-34845714D01*
X66283928Y-34702857D01*
X66283928Y-34274285D01*
X66212500Y-34131428D01*
X66141071Y-34060000D01*
X65998214Y-33988571D01*
X65783928Y-33988571D01*
X65641071Y-34060000D01*
X65569642Y-34131428D01*
X65498214Y-34274285D01*
X65498214Y-34702857D01*
X65569642Y-34845714D01*
X65641071Y-34917142D01*
X65783928Y-34988571D01*
X65998214Y-34988571D01*
X64855357Y-33988571D02*
X64855357Y-34988571D01*
X64855357Y-34131428D02*
X64783928Y-34060000D01*
X64641071Y-33988571D01*
X64426785Y-33988571D01*
X64283928Y-34060000D01*
X64212500Y-34202857D01*
X64212500Y-34988571D01*
X62926785Y-34917142D02*
X63069642Y-34988571D01*
X63355357Y-34988571D01*
X63498214Y-34917142D01*
X63569642Y-34774285D01*
X63569642Y-34202857D01*
X63498214Y-34060000D01*
X63355357Y-33988571D01*
X63069642Y-33988571D01*
X62926785Y-34060000D01*
X62855357Y-34202857D01*
X62855357Y-34345714D01*
X63569642Y-34488571D01*
X62283928Y-34917142D02*
X62141071Y-34988571D01*
X61855357Y-34988571D01*
X61712500Y-34917142D01*
X61641071Y-34774285D01*
X61641071Y-34702857D01*
X61712500Y-34560000D01*
X61855357Y-34488571D01*
X62069642Y-34488571D01*
X62212500Y-34417142D01*
X62283928Y-34274285D01*
X62283928Y-34202857D01*
X62212500Y-34060000D01*
X62069642Y-33988571D01*
X61855357Y-33988571D01*
X61712500Y-34060000D01*
X61355357Y-35131428D02*
X60212500Y-35131428D01*
X59855357Y-34988571D02*
X59855357Y-33488571D01*
X59712500Y-34417142D02*
X59283928Y-34988571D01*
X59283928Y-33988571D02*
X59855357Y-34560000D01*
X58641071Y-34988571D02*
X58641071Y-33488571D01*
X58641071Y-34060000D02*
X58498214Y-33988571D01*
X58212500Y-33988571D01*
X58069642Y-34060000D01*
X57998214Y-34131428D01*
X57926785Y-34274285D01*
X57926785Y-34702857D01*
X57998214Y-34845714D01*
X58069642Y-34917142D01*
X58212500Y-34988571D01*
X58498214Y-34988571D01*
X58641071Y-34917142D01*
X56641071Y-34988571D02*
X56641071Y-33488571D01*
X56641071Y-34917142D02*
X56783928Y-34988571D01*
X57069642Y-34988571D01*
X57212500Y-34917142D01*
X57283928Y-34845714D01*
X57355357Y-34702857D01*
X57355357Y-34274285D01*
X57283928Y-34131428D01*
X57212500Y-34060000D01*
X57069642Y-33988571D01*
X56783928Y-33988571D01*
X56641071Y-34060000D01*
X54783928Y-34988571D02*
X54783928Y-33488571D01*
X53926785Y-34988571D02*
X54569642Y-34131428D01*
X53926785Y-33488571D02*
X54783928Y-34345714D01*
X52712500Y-34917142D02*
X52855357Y-34988571D01*
X53141071Y-34988571D01*
X53283928Y-34917142D01*
X53355357Y-34774285D01*
X53355357Y-34202857D01*
X53283928Y-34060000D01*
X53141071Y-33988571D01*
X52855357Y-33988571D01*
X52712500Y-34060000D01*
X52641071Y-34202857D01*
X52641071Y-34345714D01*
X53355357Y-34488571D01*
X52141071Y-33988571D02*
X51783928Y-34988571D01*
X51426785Y-33988571D02*
X51783928Y-34988571D01*
X51926785Y-35345714D01*
X51998214Y-35417142D01*
X52141071Y-35488571D01*
X50855357Y-33988571D02*
X50855357Y-35488571D01*
X50855357Y-34060000D02*
X50712500Y-33988571D01*
X50426785Y-33988571D01*
X50283928Y-34060000D01*
X50212500Y-34131428D01*
X50141071Y-34274285D01*
X50141071Y-34702857D01*
X50212500Y-34845714D01*
X50283928Y-34917142D01*
X50426785Y-34988571D01*
X50712500Y-34988571D01*
X50855357Y-34917142D01*
X49283928Y-34988571D02*
X49426785Y-34917142D01*
X49498214Y-34774285D01*
X49498214Y-33488571D01*
X48069642Y-34988571D02*
X48069642Y-34202857D01*
X48141071Y-34060000D01*
X48283928Y-33988571D01*
X48569642Y-33988571D01*
X48712499Y-34060000D01*
X48069642Y-34917142D02*
X48212499Y-34988571D01*
X48569642Y-34988571D01*
X48712499Y-34917142D01*
X48783928Y-34774285D01*
X48783928Y-34631428D01*
X48712499Y-34488571D01*
X48569642Y-34417142D01*
X48212499Y-34417142D01*
X48069642Y-34345714D01*
X47569642Y-33988571D02*
X46998214Y-33988571D01*
X47355357Y-33488571D02*
X47355357Y-34774285D01*
X47283928Y-34917142D01*
X47141071Y-34988571D01*
X46998214Y-34988571D01*
X45926785Y-34917142D02*
X46069642Y-34988571D01*
X46355357Y-34988571D01*
X46498214Y-34917142D01*
X46569642Y-34774285D01*
X46569642Y-34202857D01*
X46498214Y-34060000D01*
X46355357Y-33988571D01*
X46069642Y-33988571D01*
X45926785Y-34060000D01*
X45855357Y-34202857D01*
X45855357Y-34345714D01*
X46569642Y-34488571D01*
X44212499Y-33988571D02*
X43855357Y-34988571D01*
X43498214Y-33988571D01*
X42926785Y-34845714D02*
X42855357Y-34917142D01*
X42926785Y-34988571D01*
X42998214Y-34917142D01*
X42926785Y-34845714D01*
X42926785Y-34988571D01*
X41569642Y-33988571D02*
X41569642Y-34988571D01*
X41926785Y-33417142D02*
X42283928Y-34488571D01*
X41355357Y-34488571D01*
X40783928Y-34845714D02*
X40712499Y-34917142D01*
X40783928Y-34988571D01*
X40855357Y-34917142D01*
X40783928Y-34845714D01*
X40783928Y-34988571D01*
X39783928Y-33488571D02*
X39641071Y-33488571D01*
X39498214Y-33560000D01*
X39426785Y-33631428D01*
X39355357Y-33774285D01*
X39283928Y-34060000D01*
X39283928Y-34417142D01*
X39355357Y-34702857D01*
X39426785Y-34845714D01*
X39498214Y-34917142D01*
X39641071Y-34988571D01*
X39783928Y-34988571D01*
X39926785Y-34917142D01*
X39998214Y-34845714D01*
X40069642Y-34702857D01*
X40141071Y-34417142D01*
X40141071Y-34060000D01*
X40069642Y-33774285D01*
X39998214Y-33631428D01*
X39926785Y-33560000D01*
X39783928Y-33488571D01*
X38641071Y-34845714D02*
X38569642Y-34917142D01*
X38641071Y-34988571D01*
X38712499Y-34917142D01*
X38641071Y-34845714D01*
X38641071Y-34988571D01*
X37998214Y-33631428D02*
X37926785Y-33560000D01*
X37783928Y-33488571D01*
X37426785Y-33488571D01*
X37283928Y-33560000D01*
X37212499Y-33631428D01*
X37141071Y-33774285D01*
X37141071Y-33917142D01*
X37212499Y-34131428D01*
X38069642Y-34988571D01*
X37141071Y-34988571D01*
X36426785Y-34917142D02*
X36426785Y-34988571D01*
X36498214Y-35131428D01*
X36569642Y-35202857D01*
X33712499Y-34274285D02*
X33783928Y-34202857D01*
X33926785Y-34131428D01*
X34069642Y-34131428D01*
X34212499Y-34202857D01*
X34283928Y-34274285D01*
X34355357Y-34417142D01*
X34355357Y-34560000D01*
X34283928Y-34702857D01*
X34212499Y-34774285D01*
X34069642Y-34845714D01*
X33926785Y-34845714D01*
X33783928Y-34774285D01*
X33712499Y-34702857D01*
X33712499Y-34131428D02*
X33712499Y-34702857D01*
X33641071Y-34774285D01*
X33569642Y-34774285D01*
X33426785Y-34702857D01*
X33355357Y-34560000D01*
X33355357Y-34202857D01*
X33498214Y-33988571D01*
X33712499Y-33845714D01*
X33998214Y-33774285D01*
X34283928Y-33845714D01*
X34498214Y-33988571D01*
X34641071Y-34202857D01*
X34712499Y-34488571D01*
X34641071Y-34774285D01*
X34498214Y-34988571D01*
X34283928Y-35131428D01*
X33998214Y-35202857D01*
X33712499Y-35131428D01*
X33498214Y-34988571D01*
X32712499Y-33988571D02*
X32712499Y-35274285D01*
X32783928Y-35417142D01*
X32926785Y-35488571D01*
X32998214Y-35488571D01*
X32712499Y-33488571D02*
X32783928Y-33560000D01*
X32712499Y-33631428D01*
X32641071Y-33560000D01*
X32712499Y-33488571D01*
X32712499Y-33631428D01*
X31998214Y-33988571D02*
X31998214Y-35488571D01*
X31998214Y-34060000D02*
X31855357Y-33988571D01*
X31569642Y-33988571D01*
X31426785Y-34060000D01*
X31355357Y-34131428D01*
X31283928Y-34274285D01*
X31283928Y-34702857D01*
X31355357Y-34845714D01*
X31426785Y-34917142D01*
X31569642Y-34988571D01*
X31855357Y-34988571D01*
X31998214Y-34917142D01*
X30712499Y-34917142D02*
X30569642Y-34988571D01*
X30283928Y-34988571D01*
X30141071Y-34917142D01*
X30069642Y-34774285D01*
X30069642Y-34702857D01*
X30141071Y-34560000D01*
X30283928Y-34488571D01*
X30498214Y-34488571D01*
X30641071Y-34417142D01*
X30712499Y-34274285D01*
X30712499Y-34202857D01*
X30641071Y-34060000D01*
X30498214Y-33988571D01*
X30283928Y-33988571D01*
X30141071Y-34060000D01*
X29426785Y-34988571D02*
X29426785Y-33488571D01*
X29283928Y-34417142D02*
X28855357Y-34988571D01*
X28855357Y-33988571D02*
X29426785Y-34560000D01*
X27641071Y-34917142D02*
X27783928Y-34988571D01*
X28069642Y-34988571D01*
X28212499Y-34917142D01*
X28283928Y-34774285D01*
X28283928Y-34202857D01*
X28212499Y-34060000D01*
X28069642Y-33988571D01*
X27783928Y-33988571D01*
X27641071Y-34060000D01*
X27569642Y-34202857D01*
X27569642Y-34345714D01*
X28283928Y-34488571D01*
X26926785Y-33988571D02*
X26926785Y-34988571D01*
X26926785Y-34131428D02*
X26855357Y-34060000D01*
X26712499Y-33988571D01*
X26498214Y-33988571D01*
X26355357Y-34060000D01*
X26283928Y-34202857D01*
X26283928Y-34988571D01*
X25569642Y-33988571D02*
X25569642Y-34988571D01*
X25569642Y-34131428D02*
X25498214Y-34060000D01*
X25355357Y-33988571D01*
X25141071Y-33988571D01*
X24998214Y-34060000D01*
X24926785Y-34202857D01*
X24926785Y-34988571D01*
D12*
%TO.C,G\u002A\u002A\u002A*%
G36*
X22049667Y-32257873D02*
G01*
X21808891Y-32258210D01*
X21540985Y-32258815D01*
X21509444Y-32258899D01*
X19921944Y-32263167D01*
X19829554Y-32306949D01*
X19725733Y-32366554D01*
X19643284Y-32438345D01*
X19582272Y-32517834D01*
X19562854Y-32548650D01*
X19546426Y-32577211D01*
X19532737Y-32606087D01*
X19521538Y-32637850D01*
X19512579Y-32675069D01*
X19505610Y-32720315D01*
X19500381Y-32776159D01*
X19496642Y-32845172D01*
X19494144Y-32929924D01*
X19492636Y-33032986D01*
X19491868Y-33156929D01*
X19491592Y-33304323D01*
X19491556Y-33451061D01*
X19491556Y-34161111D01*
X18796020Y-34161111D01*
X18631064Y-34161245D01*
X18491875Y-34161689D01*
X18375999Y-34162511D01*
X18280983Y-34163778D01*
X18204372Y-34165556D01*
X18143713Y-34167912D01*
X18096551Y-34170912D01*
X18060434Y-34174623D01*
X18032906Y-34179113D01*
X18019479Y-34182211D01*
X17900296Y-34224355D01*
X17801335Y-34284411D01*
X17719292Y-34364702D01*
X17677272Y-34422834D01*
X17665318Y-34440903D01*
X17654459Y-34456905D01*
X17644643Y-34472206D01*
X17635817Y-34488172D01*
X17627928Y-34506170D01*
X17620925Y-34527565D01*
X17614755Y-34553722D01*
X17609365Y-34586009D01*
X17604703Y-34625790D01*
X17600717Y-34674432D01*
X17597355Y-34733300D01*
X17594563Y-34803761D01*
X17592290Y-34887180D01*
X17590483Y-34984923D01*
X17589090Y-35098356D01*
X17588059Y-35228845D01*
X17587336Y-35377756D01*
X17586870Y-35546454D01*
X17586608Y-35736306D01*
X17586498Y-35948677D01*
X17586487Y-36184934D01*
X17586524Y-36446442D01*
X17586555Y-36734567D01*
X17586556Y-36787860D01*
X17586556Y-38929708D01*
X16849250Y-38933715D01*
X16686247Y-38934620D01*
X16548961Y-38935487D01*
X16434888Y-38936430D01*
X16341522Y-38937562D01*
X16266359Y-38938996D01*
X16206894Y-38940845D01*
X16160622Y-38943222D01*
X16125038Y-38946241D01*
X16097639Y-38950013D01*
X16075918Y-38954653D01*
X16057371Y-38960273D01*
X16039494Y-38966986D01*
X16030318Y-38970669D01*
X15941978Y-39018975D01*
X15857635Y-39088261D01*
X15784666Y-39171488D01*
X15734722Y-39252685D01*
X15688611Y-39346347D01*
X15684956Y-42401181D01*
X15684554Y-42749592D01*
X15684217Y-43070898D01*
X15683953Y-43366215D01*
X15683768Y-43636661D01*
X15683669Y-43883351D01*
X15683663Y-44107402D01*
X15683756Y-44309932D01*
X15683955Y-44492058D01*
X15684267Y-44654895D01*
X15684699Y-44799560D01*
X15685256Y-44927171D01*
X15685946Y-45038845D01*
X15686776Y-45135697D01*
X15687751Y-45218844D01*
X15688880Y-45289404D01*
X15690167Y-45348494D01*
X15691621Y-45397229D01*
X15693248Y-45436726D01*
X15695054Y-45468103D01*
X15697047Y-45492477D01*
X15699232Y-45510963D01*
X15701616Y-45524679D01*
X15703679Y-45532991D01*
X15750440Y-45644689D01*
X15820660Y-45744342D01*
X15910789Y-45828089D01*
X16017276Y-45892068D01*
X16044887Y-45904059D01*
X16126056Y-45936834D01*
X17713556Y-45939384D01*
X17976486Y-45939731D01*
X18212425Y-45939873D01*
X18422604Y-45939800D01*
X18608252Y-45939501D01*
X18770600Y-45938965D01*
X18910878Y-45938183D01*
X19030317Y-45937141D01*
X19130148Y-45935831D01*
X19211599Y-45934242D01*
X19275903Y-45932361D01*
X19324289Y-45930179D01*
X19357988Y-45927685D01*
X19378229Y-45924868D01*
X19378667Y-45924773D01*
X19496584Y-45885096D01*
X19601060Y-45822779D01*
X19689097Y-45740871D01*
X19757698Y-45642422D01*
X19803867Y-45530483D01*
X19815914Y-45479824D01*
X19818075Y-45453859D01*
X19820067Y-45400064D01*
X19821890Y-45318829D01*
X19823540Y-45210547D01*
X19825014Y-45075608D01*
X19826310Y-44914403D01*
X19827426Y-44727324D01*
X19828359Y-44514763D01*
X19829106Y-44277110D01*
X19829664Y-44014756D01*
X19830032Y-43728093D01*
X19830207Y-43417513D01*
X19830222Y-43289074D01*
X19830222Y-41174334D01*
X20532250Y-41174166D01*
X20703121Y-41173948D01*
X20847893Y-41173348D01*
X20968685Y-41172314D01*
X21067619Y-41170793D01*
X21146815Y-41168733D01*
X21208393Y-41166081D01*
X21254474Y-41162787D01*
X21287180Y-41158797D01*
X21304833Y-41155152D01*
X21423278Y-41109865D01*
X21526291Y-41042738D01*
X21611274Y-40956462D01*
X21675631Y-40853727D01*
X21716766Y-40737223D01*
X21719356Y-40725611D01*
X21721721Y-40704780D01*
X21723875Y-40665097D01*
X21725823Y-40605828D01*
X21727572Y-40526239D01*
X21729125Y-40425596D01*
X21730490Y-40303167D01*
X21731670Y-40158216D01*
X21732671Y-39990012D01*
X21733499Y-39797819D01*
X21734158Y-39580905D01*
X21734654Y-39338536D01*
X21734993Y-39069978D01*
X21735179Y-38774497D01*
X21735222Y-38527806D01*
X21735222Y-36404778D01*
X22451361Y-36404625D01*
X22620091Y-36404532D01*
X22763153Y-36404188D01*
X22883102Y-36403379D01*
X22982491Y-36401891D01*
X23063874Y-36399511D01*
X23129807Y-36396025D01*
X23182842Y-36391219D01*
X23225535Y-36384879D01*
X23260440Y-36376792D01*
X23290110Y-36366744D01*
X23317101Y-36354521D01*
X23343966Y-36339910D01*
X23363864Y-36328265D01*
X23452418Y-36260759D01*
X23528805Y-36173036D01*
X23587972Y-36072190D01*
X23624867Y-35965313D01*
X23625965Y-35960278D01*
X23628609Y-35934556D01*
X23630917Y-35883705D01*
X23632892Y-35807410D01*
X23634536Y-35705360D01*
X23635850Y-35577239D01*
X23636837Y-35422733D01*
X23637342Y-35284473D01*
X23299826Y-35284473D01*
X23299662Y-35411803D01*
X23299279Y-35520515D01*
X23298653Y-35612211D01*
X23297760Y-35688490D01*
X23296575Y-35750955D01*
X23295074Y-35801205D01*
X23293234Y-35840842D01*
X23291029Y-35871465D01*
X23288436Y-35894677D01*
X23285430Y-35912077D01*
X23281988Y-35925267D01*
X23278084Y-35935847D01*
X23273696Y-35945418D01*
X23273514Y-35945794D01*
X23230428Y-36005181D01*
X23190272Y-36035291D01*
X23178113Y-36041882D01*
X23165443Y-36047459D01*
X23149934Y-36052107D01*
X23129261Y-36055910D01*
X23101097Y-36058954D01*
X23063117Y-36061323D01*
X23012993Y-36063101D01*
X22948401Y-36064374D01*
X22867013Y-36065225D01*
X22766504Y-36065740D01*
X22644548Y-36066003D01*
X22498817Y-36066098D01*
X22343153Y-36066111D01*
X22167307Y-36066144D01*
X22017427Y-36066356D01*
X21891256Y-36066922D01*
X21786539Y-36068014D01*
X21701019Y-36069808D01*
X21632440Y-36072475D01*
X21578546Y-36076190D01*
X21537080Y-36081127D01*
X21505787Y-36087458D01*
X21482410Y-36095357D01*
X21464692Y-36104998D01*
X21450378Y-36116554D01*
X21437211Y-36130199D01*
X21431833Y-36136199D01*
X21428144Y-36140708D01*
X21424787Y-36146447D01*
X21421740Y-36154721D01*
X21418984Y-36166834D01*
X21416499Y-36184091D01*
X21414264Y-36207797D01*
X21412261Y-36239257D01*
X21410468Y-36279777D01*
X21408866Y-36330660D01*
X21407434Y-36393212D01*
X21406152Y-36468738D01*
X21405001Y-36558542D01*
X21403961Y-36663930D01*
X21403010Y-36786207D01*
X21402130Y-36926677D01*
X21401300Y-37086646D01*
X21400500Y-37267417D01*
X21399710Y-37470297D01*
X21398909Y-37696590D01*
X21398079Y-37947602D01*
X21397198Y-38224636D01*
X21396556Y-38430170D01*
X21395631Y-38725753D01*
X21394772Y-38994422D01*
X21393960Y-39237488D01*
X21393173Y-39456259D01*
X21392392Y-39652045D01*
X21391595Y-39826153D01*
X21390761Y-39979895D01*
X21389871Y-40114577D01*
X21388904Y-40231510D01*
X21387838Y-40332003D01*
X21386655Y-40417365D01*
X21385332Y-40488905D01*
X21383850Y-40547931D01*
X21382188Y-40595754D01*
X21380325Y-40633681D01*
X21378241Y-40663023D01*
X21375915Y-40685089D01*
X21373327Y-40701186D01*
X21370456Y-40712625D01*
X21367281Y-40720715D01*
X21363783Y-40726764D01*
X21360406Y-40731458D01*
X21326801Y-40769132D01*
X21292360Y-40799517D01*
X21283516Y-40805608D01*
X21273084Y-40810809D01*
X21258841Y-40815213D01*
X21238565Y-40818912D01*
X21210034Y-40821998D01*
X21171026Y-40824564D01*
X21119319Y-40826702D01*
X21052689Y-40828503D01*
X20968916Y-40830060D01*
X20865777Y-40831465D01*
X20741049Y-40832811D01*
X20592511Y-40834188D01*
X20420776Y-40835667D01*
X19588143Y-40842723D01*
X19539849Y-40895432D01*
X19491556Y-40948141D01*
X19491246Y-43181432D01*
X19491197Y-43475331D01*
X19491124Y-43742337D01*
X19491012Y-43983778D01*
X19490846Y-44200984D01*
X19490609Y-44395282D01*
X19490286Y-44568003D01*
X19489861Y-44720474D01*
X19489319Y-44854026D01*
X19488643Y-44969985D01*
X19487819Y-45069682D01*
X19486830Y-45154445D01*
X19485661Y-45225604D01*
X19484296Y-45284486D01*
X19482720Y-45332420D01*
X19480917Y-45370737D01*
X19478870Y-45400764D01*
X19476565Y-45423830D01*
X19473986Y-45441264D01*
X19471117Y-45454395D01*
X19467942Y-45464551D01*
X19464447Y-45473063D01*
X19464206Y-45473595D01*
X19423169Y-45535457D01*
X19364642Y-45576090D01*
X19318341Y-45591644D01*
X19298347Y-45593089D01*
X19252007Y-45594438D01*
X19181200Y-45595681D01*
X19087801Y-45596808D01*
X18973687Y-45597809D01*
X18840737Y-45598673D01*
X18690826Y-45599389D01*
X18525832Y-45599949D01*
X18347631Y-45600341D01*
X18158101Y-45600555D01*
X17959118Y-45600580D01*
X17752559Y-45600407D01*
X17727667Y-45600373D01*
X17485704Y-45600020D01*
X17270357Y-45599672D01*
X17080017Y-45599296D01*
X16913077Y-45598861D01*
X16767930Y-45598335D01*
X16642969Y-45597688D01*
X16536585Y-45596888D01*
X16447173Y-45595903D01*
X16373123Y-45594702D01*
X16312830Y-45593254D01*
X16264685Y-45591526D01*
X16227082Y-45589489D01*
X16198413Y-45587109D01*
X16177071Y-45584356D01*
X16161447Y-45581198D01*
X16149936Y-45577604D01*
X16140930Y-45573543D01*
X16133159Y-45569182D01*
X16091103Y-45536835D01*
X16054674Y-45496813D01*
X16052020Y-45493012D01*
X16020222Y-45445827D01*
X16020222Y-42438499D01*
X16020229Y-42095267D01*
X16020254Y-41779124D01*
X16020308Y-41488937D01*
X16020400Y-41223573D01*
X16020541Y-40981899D01*
X16020739Y-40762782D01*
X16021005Y-40565089D01*
X16021348Y-40387686D01*
X16021778Y-40229442D01*
X16022304Y-40089222D01*
X16022937Y-39965893D01*
X16023686Y-39858323D01*
X16024561Y-39765379D01*
X16025571Y-39685927D01*
X16026726Y-39618835D01*
X16028036Y-39562968D01*
X16029510Y-39517195D01*
X16031158Y-39480383D01*
X16032991Y-39451397D01*
X16035017Y-39429105D01*
X16037246Y-39412375D01*
X16039689Y-39400072D01*
X16042354Y-39391064D01*
X16045251Y-39384218D01*
X16046386Y-39382002D01*
X16076052Y-39343076D01*
X16116952Y-39307962D01*
X16127525Y-39301316D01*
X16182500Y-39269798D01*
X16986833Y-39269513D01*
X17158030Y-39269419D01*
X17303284Y-39269217D01*
X17424878Y-39268833D01*
X17525092Y-39268193D01*
X17606207Y-39267222D01*
X17670503Y-39265846D01*
X17720262Y-39263991D01*
X17757764Y-39261582D01*
X17785289Y-39258545D01*
X17805119Y-39254806D01*
X17819534Y-39250289D01*
X17830816Y-39244921D01*
X17836127Y-39241814D01*
X17871866Y-39214271D01*
X17898246Y-39184195D01*
X17899627Y-39181894D01*
X17902146Y-39172966D01*
X17904472Y-39154597D01*
X17906618Y-39125626D01*
X17908597Y-39084895D01*
X17910422Y-39031242D01*
X17912106Y-38963509D01*
X17913662Y-38880536D01*
X17915102Y-38781163D01*
X17916441Y-38664230D01*
X17917690Y-38528578D01*
X17918863Y-38373047D01*
X17919973Y-38196477D01*
X17921032Y-37997708D01*
X17922055Y-37775582D01*
X17923053Y-37528937D01*
X17924040Y-37256615D01*
X17925029Y-36957455D01*
X17925222Y-36896171D01*
X17926149Y-36601211D01*
X17927009Y-36333161D01*
X17927823Y-36090710D01*
X17928611Y-35872545D01*
X17929394Y-35677355D01*
X17930193Y-35503828D01*
X17931029Y-35350652D01*
X17931922Y-35216516D01*
X17932893Y-35100107D01*
X17933963Y-35000113D01*
X17935152Y-34915224D01*
X17936481Y-34844127D01*
X17937970Y-34785510D01*
X17939641Y-34738061D01*
X17941515Y-34700469D01*
X17943610Y-34671422D01*
X17945950Y-34649608D01*
X17948553Y-34633714D01*
X17951441Y-34622431D01*
X17954635Y-34614444D01*
X17958155Y-34608444D01*
X17961372Y-34603987D01*
X17994977Y-34566313D01*
X18029417Y-34535928D01*
X18038274Y-34529829D01*
X18048723Y-34524621D01*
X18062989Y-34520213D01*
X18083298Y-34516512D01*
X18111877Y-34513424D01*
X18150950Y-34510859D01*
X18202745Y-34508721D01*
X18269487Y-34506921D01*
X18353401Y-34505364D01*
X18456715Y-34503957D01*
X18581654Y-34502610D01*
X18730443Y-34501228D01*
X18898439Y-34499778D01*
X19072372Y-34498272D01*
X19220287Y-34496883D01*
X19344389Y-34495522D01*
X19446882Y-34494098D01*
X19529970Y-34492523D01*
X19595858Y-34490706D01*
X19646749Y-34488556D01*
X19684847Y-34485985D01*
X19712358Y-34482903D01*
X19731485Y-34479218D01*
X19744432Y-34474843D01*
X19753403Y-34469686D01*
X19759507Y-34464658D01*
X19772644Y-34452563D01*
X19783846Y-34440432D01*
X19793286Y-34426023D01*
X19801140Y-34407097D01*
X19807583Y-34381411D01*
X19812790Y-34346727D01*
X19816935Y-34300801D01*
X19820195Y-34241395D01*
X19822743Y-34166267D01*
X19824754Y-34073176D01*
X19826404Y-33959881D01*
X19827868Y-33824141D01*
X19829320Y-33663717D01*
X19830222Y-33558881D01*
X19831733Y-33386033D01*
X19833119Y-33239167D01*
X19834476Y-33116043D01*
X19835897Y-33014423D01*
X19837478Y-32932066D01*
X19839310Y-32866733D01*
X19841490Y-32816185D01*
X19844111Y-32778182D01*
X19847267Y-32750485D01*
X19851053Y-32730855D01*
X19855562Y-32717052D01*
X19860889Y-32706836D01*
X19866372Y-32698975D01*
X19899982Y-32661311D01*
X19934435Y-32630928D01*
X19940759Y-32626437D01*
X19948074Y-32622434D01*
X19957950Y-32618890D01*
X19971959Y-32615779D01*
X19991673Y-32613070D01*
X20018662Y-32610737D01*
X20054499Y-32608752D01*
X20100755Y-32607086D01*
X20159001Y-32605712D01*
X20230810Y-32604601D01*
X20317752Y-32603726D01*
X20421399Y-32603057D01*
X20543324Y-32602569D01*
X20685096Y-32602231D01*
X20848288Y-32602017D01*
X21034471Y-32601898D01*
X21245218Y-32601846D01*
X21482098Y-32601834D01*
X21565889Y-32601834D01*
X21811698Y-32601839D01*
X22030857Y-32601875D01*
X22224937Y-32601969D01*
X22395509Y-32602148D01*
X22544145Y-32602442D01*
X22672416Y-32602878D01*
X22781894Y-32603485D01*
X22874151Y-32604289D01*
X22950758Y-32605319D01*
X23013287Y-32606604D01*
X23063309Y-32608171D01*
X23102395Y-32610048D01*
X23132118Y-32612264D01*
X23154048Y-32614846D01*
X23169758Y-32617822D01*
X23180818Y-32621221D01*
X23188801Y-32625070D01*
X23195278Y-32629397D01*
X23197343Y-32630928D01*
X23235019Y-32664537D01*
X23265406Y-32698987D01*
X23269922Y-32705374D01*
X23273948Y-32712810D01*
X23277518Y-32722875D01*
X23280663Y-32737150D01*
X23283416Y-32757217D01*
X23285808Y-32784657D01*
X23287871Y-32821050D01*
X23289639Y-32867977D01*
X23291143Y-32927019D01*
X23292414Y-32999757D01*
X23293486Y-33087772D01*
X23294390Y-33192646D01*
X23295159Y-33315958D01*
X23295825Y-33459290D01*
X23296419Y-33624224D01*
X23296974Y-33812338D01*
X23297522Y-34025216D01*
X23298096Y-34264437D01*
X23298209Y-34312535D01*
X23298777Y-34556964D01*
X23299247Y-34774771D01*
X23299594Y-34967558D01*
X23299795Y-35136925D01*
X23299826Y-35284473D01*
X23637342Y-35284473D01*
X23637499Y-35241530D01*
X23637837Y-35033315D01*
X23637855Y-34797775D01*
X23637554Y-34534596D01*
X23637047Y-34288111D01*
X23633167Y-32686500D01*
X23588108Y-32591381D01*
X23521888Y-32482461D01*
X23436682Y-32392767D01*
X23335262Y-32324479D01*
X23220398Y-32279780D01*
X23181141Y-32270794D01*
X23157697Y-32268064D01*
X23116936Y-32265672D01*
X23057877Y-32263612D01*
X22979537Y-32261875D01*
X22880936Y-32260456D01*
X22761093Y-32259347D01*
X22619026Y-32258541D01*
X22453753Y-32258032D01*
X22264294Y-32257811D01*
X22049667Y-32257873D01*
G37*
X22049667Y-32257873D02*
X21808891Y-32258210D01*
X21540985Y-32258815D01*
X21509444Y-32258899D01*
X19921944Y-32263167D01*
X19829554Y-32306949D01*
X19725733Y-32366554D01*
X19643284Y-32438345D01*
X19582272Y-32517834D01*
X19562854Y-32548650D01*
X19546426Y-32577211D01*
X19532737Y-32606087D01*
X19521538Y-32637850D01*
X19512579Y-32675069D01*
X19505610Y-32720315D01*
X19500381Y-32776159D01*
X19496642Y-32845172D01*
X19494144Y-32929924D01*
X19492636Y-33032986D01*
X19491868Y-33156929D01*
X19491592Y-33304323D01*
X19491556Y-33451061D01*
X19491556Y-34161111D01*
X18796020Y-34161111D01*
X18631064Y-34161245D01*
X18491875Y-34161689D01*
X18375999Y-34162511D01*
X18280983Y-34163778D01*
X18204372Y-34165556D01*
X18143713Y-34167912D01*
X18096551Y-34170912D01*
X18060434Y-34174623D01*
X18032906Y-34179113D01*
X18019479Y-34182211D01*
X17900296Y-34224355D01*
X17801335Y-34284411D01*
X17719292Y-34364702D01*
X17677272Y-34422834D01*
X17665318Y-34440903D01*
X17654459Y-34456905D01*
X17644643Y-34472206D01*
X17635817Y-34488172D01*
X17627928Y-34506170D01*
X17620925Y-34527565D01*
X17614755Y-34553722D01*
X17609365Y-34586009D01*
X17604703Y-34625790D01*
X17600717Y-34674432D01*
X17597355Y-34733300D01*
X17594563Y-34803761D01*
X17592290Y-34887180D01*
X17590483Y-34984923D01*
X17589090Y-35098356D01*
X17588059Y-35228845D01*
X17587336Y-35377756D01*
X17586870Y-35546454D01*
X17586608Y-35736306D01*
X17586498Y-35948677D01*
X17586487Y-36184934D01*
X17586524Y-36446442D01*
X17586555Y-36734567D01*
X17586556Y-36787860D01*
X17586556Y-38929708D01*
X16849250Y-38933715D01*
X16686247Y-38934620D01*
X16548961Y-38935487D01*
X16434888Y-38936430D01*
X16341522Y-38937562D01*
X16266359Y-38938996D01*
X16206894Y-38940845D01*
X16160622Y-38943222D01*
X16125038Y-38946241D01*
X16097639Y-38950013D01*
X16075918Y-38954653D01*
X16057371Y-38960273D01*
X16039494Y-38966986D01*
X16030318Y-38970669D01*
X15941978Y-39018975D01*
X15857635Y-39088261D01*
X15784666Y-39171488D01*
X15734722Y-39252685D01*
X15688611Y-39346347D01*
X15684956Y-42401181D01*
X15684554Y-42749592D01*
X15684217Y-43070898D01*
X15683953Y-43366215D01*
X15683768Y-43636661D01*
X15683669Y-43883351D01*
X15683663Y-44107402D01*
X15683756Y-44309932D01*
X15683955Y-44492058D01*
X15684267Y-44654895D01*
X15684699Y-44799560D01*
X15685256Y-44927171D01*
X15685946Y-45038845D01*
X15686776Y-45135697D01*
X15687751Y-45218844D01*
X15688880Y-45289404D01*
X15690167Y-45348494D01*
X15691621Y-45397229D01*
X15693248Y-45436726D01*
X15695054Y-45468103D01*
X15697047Y-45492477D01*
X15699232Y-45510963D01*
X15701616Y-45524679D01*
X15703679Y-45532991D01*
X15750440Y-45644689D01*
X15820660Y-45744342D01*
X15910789Y-45828089D01*
X16017276Y-45892068D01*
X16044887Y-45904059D01*
X16126056Y-45936834D01*
X17713556Y-45939384D01*
X17976486Y-45939731D01*
X18212425Y-45939873D01*
X18422604Y-45939800D01*
X18608252Y-45939501D01*
X18770600Y-45938965D01*
X18910878Y-45938183D01*
X19030317Y-45937141D01*
X19130148Y-45935831D01*
X19211599Y-45934242D01*
X19275903Y-45932361D01*
X19324289Y-45930179D01*
X19357988Y-45927685D01*
X19378229Y-45924868D01*
X19378667Y-45924773D01*
X19496584Y-45885096D01*
X19601060Y-45822779D01*
X19689097Y-45740871D01*
X19757698Y-45642422D01*
X19803867Y-45530483D01*
X19815914Y-45479824D01*
X19818075Y-45453859D01*
X19820067Y-45400064D01*
X19821890Y-45318829D01*
X19823540Y-45210547D01*
X19825014Y-45075608D01*
X19826310Y-44914403D01*
X19827426Y-44727324D01*
X19828359Y-44514763D01*
X19829106Y-44277110D01*
X19829664Y-44014756D01*
X19830032Y-43728093D01*
X19830207Y-43417513D01*
X19830222Y-43289074D01*
X19830222Y-41174334D01*
X20532250Y-41174166D01*
X20703121Y-41173948D01*
X20847893Y-41173348D01*
X20968685Y-41172314D01*
X21067619Y-41170793D01*
X21146815Y-41168733D01*
X21208393Y-41166081D01*
X21254474Y-41162787D01*
X21287180Y-41158797D01*
X21304833Y-41155152D01*
X21423278Y-41109865D01*
X21526291Y-41042738D01*
X21611274Y-40956462D01*
X21675631Y-40853727D01*
X21716766Y-40737223D01*
X21719356Y-40725611D01*
X21721721Y-40704780D01*
X21723875Y-40665097D01*
X21725823Y-40605828D01*
X21727572Y-40526239D01*
X21729125Y-40425596D01*
X21730490Y-40303167D01*
X21731670Y-40158216D01*
X21732671Y-39990012D01*
X21733499Y-39797819D01*
X21734158Y-39580905D01*
X21734654Y-39338536D01*
X21734993Y-39069978D01*
X21735179Y-38774497D01*
X21735222Y-38527806D01*
X21735222Y-36404778D01*
X22451361Y-36404625D01*
X22620091Y-36404532D01*
X22763153Y-36404188D01*
X22883102Y-36403379D01*
X22982491Y-36401891D01*
X23063874Y-36399511D01*
X23129807Y-36396025D01*
X23182842Y-36391219D01*
X23225535Y-36384879D01*
X23260440Y-36376792D01*
X23290110Y-36366744D01*
X23317101Y-36354521D01*
X23343966Y-36339910D01*
X23363864Y-36328265D01*
X23452418Y-36260759D01*
X23528805Y-36173036D01*
X23587972Y-36072190D01*
X23624867Y-35965313D01*
X23625965Y-35960278D01*
X23628609Y-35934556D01*
X23630917Y-35883705D01*
X23632892Y-35807410D01*
X23634536Y-35705360D01*
X23635850Y-35577239D01*
X23636837Y-35422733D01*
X23637342Y-35284473D01*
X23299826Y-35284473D01*
X23299662Y-35411803D01*
X23299279Y-35520515D01*
X23298653Y-35612211D01*
X23297760Y-35688490D01*
X23296575Y-35750955D01*
X23295074Y-35801205D01*
X23293234Y-35840842D01*
X23291029Y-35871465D01*
X23288436Y-35894677D01*
X23285430Y-35912077D01*
X23281988Y-35925267D01*
X23278084Y-35935847D01*
X23273696Y-35945418D01*
X23273514Y-35945794D01*
X23230428Y-36005181D01*
X23190272Y-36035291D01*
X23178113Y-36041882D01*
X23165443Y-36047459D01*
X23149934Y-36052107D01*
X23129261Y-36055910D01*
X23101097Y-36058954D01*
X23063117Y-36061323D01*
X23012993Y-36063101D01*
X22948401Y-36064374D01*
X22867013Y-36065225D01*
X22766504Y-36065740D01*
X22644548Y-36066003D01*
X22498817Y-36066098D01*
X22343153Y-36066111D01*
X22167307Y-36066144D01*
X22017427Y-36066356D01*
X21891256Y-36066922D01*
X21786539Y-36068014D01*
X21701019Y-36069808D01*
X21632440Y-36072475D01*
X21578546Y-36076190D01*
X21537080Y-36081127D01*
X21505787Y-36087458D01*
X21482410Y-36095357D01*
X21464692Y-36104998D01*
X21450378Y-36116554D01*
X21437211Y-36130199D01*
X21431833Y-36136199D01*
X21428144Y-36140708D01*
X21424787Y-36146447D01*
X21421740Y-36154721D01*
X21418984Y-36166834D01*
X21416499Y-36184091D01*
X21414264Y-36207797D01*
X21412261Y-36239257D01*
X21410468Y-36279777D01*
X21408866Y-36330660D01*
X21407434Y-36393212D01*
X21406152Y-36468738D01*
X21405001Y-36558542D01*
X21403961Y-36663930D01*
X21403010Y-36786207D01*
X21402130Y-36926677D01*
X21401300Y-37086646D01*
X21400500Y-37267417D01*
X21399710Y-37470297D01*
X21398909Y-37696590D01*
X21398079Y-37947602D01*
X21397198Y-38224636D01*
X21396556Y-38430170D01*
X21395631Y-38725753D01*
X21394772Y-38994422D01*
X21393960Y-39237488D01*
X21393173Y-39456259D01*
X21392392Y-39652045D01*
X21391595Y-39826153D01*
X21390761Y-39979895D01*
X21389871Y-40114577D01*
X21388904Y-40231510D01*
X21387838Y-40332003D01*
X21386655Y-40417365D01*
X21385332Y-40488905D01*
X21383850Y-40547931D01*
X21382188Y-40595754D01*
X21380325Y-40633681D01*
X21378241Y-40663023D01*
X21375915Y-40685089D01*
X21373327Y-40701186D01*
X21370456Y-40712625D01*
X21367281Y-40720715D01*
X21363783Y-40726764D01*
X21360406Y-40731458D01*
X21326801Y-40769132D01*
X21292360Y-40799517D01*
X21283516Y-40805608D01*
X21273084Y-40810809D01*
X21258841Y-40815213D01*
X21238565Y-40818912D01*
X21210034Y-40821998D01*
X21171026Y-40824564D01*
X21119319Y-40826702D01*
X21052689Y-40828503D01*
X20968916Y-40830060D01*
X20865777Y-40831465D01*
X20741049Y-40832811D01*
X20592511Y-40834188D01*
X20420776Y-40835667D01*
X19588143Y-40842723D01*
X19539849Y-40895432D01*
X19491556Y-40948141D01*
X19491246Y-43181432D01*
X19491197Y-43475331D01*
X19491124Y-43742337D01*
X19491012Y-43983778D01*
X19490846Y-44200984D01*
X19490609Y-44395282D01*
X19490286Y-44568003D01*
X19489861Y-44720474D01*
X19489319Y-44854026D01*
X19488643Y-44969985D01*
X19487819Y-45069682D01*
X19486830Y-45154445D01*
X19485661Y-45225604D01*
X19484296Y-45284486D01*
X19482720Y-45332420D01*
X19480917Y-45370737D01*
X19478870Y-45400764D01*
X19476565Y-45423830D01*
X19473986Y-45441264D01*
X19471117Y-45454395D01*
X19467942Y-45464551D01*
X19464447Y-45473063D01*
X19464206Y-45473595D01*
X19423169Y-45535457D01*
X19364642Y-45576090D01*
X19318341Y-45591644D01*
X19298347Y-45593089D01*
X19252007Y-45594438D01*
X19181200Y-45595681D01*
X19087801Y-45596808D01*
X18973687Y-45597809D01*
X18840737Y-45598673D01*
X18690826Y-45599389D01*
X18525832Y-45599949D01*
X18347631Y-45600341D01*
X18158101Y-45600555D01*
X17959118Y-45600580D01*
X17752559Y-45600407D01*
X17727667Y-45600373D01*
X17485704Y-45600020D01*
X17270357Y-45599672D01*
X17080017Y-45599296D01*
X16913077Y-45598861D01*
X16767930Y-45598335D01*
X16642969Y-45597688D01*
X16536585Y-45596888D01*
X16447173Y-45595903D01*
X16373123Y-45594702D01*
X16312830Y-45593254D01*
X16264685Y-45591526D01*
X16227082Y-45589489D01*
X16198413Y-45587109D01*
X16177071Y-45584356D01*
X16161447Y-45581198D01*
X16149936Y-45577604D01*
X16140930Y-45573543D01*
X16133159Y-45569182D01*
X16091103Y-45536835D01*
X16054674Y-45496813D01*
X16052020Y-45493012D01*
X16020222Y-45445827D01*
X16020222Y-42438499D01*
X16020229Y-42095267D01*
X16020254Y-41779124D01*
X16020308Y-41488937D01*
X16020400Y-41223573D01*
X16020541Y-40981899D01*
X16020739Y-40762782D01*
X16021005Y-40565089D01*
X16021348Y-40387686D01*
X16021778Y-40229442D01*
X16022304Y-40089222D01*
X16022937Y-39965893D01*
X16023686Y-39858323D01*
X16024561Y-39765379D01*
X16025571Y-39685927D01*
X16026726Y-39618835D01*
X16028036Y-39562968D01*
X16029510Y-39517195D01*
X16031158Y-39480383D01*
X16032991Y-39451397D01*
X16035017Y-39429105D01*
X16037246Y-39412375D01*
X16039689Y-39400072D01*
X16042354Y-39391064D01*
X16045251Y-39384218D01*
X16046386Y-39382002D01*
X16076052Y-39343076D01*
X16116952Y-39307962D01*
X16127525Y-39301316D01*
X16182500Y-39269798D01*
X16986833Y-39269513D01*
X17158030Y-39269419D01*
X17303284Y-39269217D01*
X17424878Y-39268833D01*
X17525092Y-39268193D01*
X17606207Y-39267222D01*
X17670503Y-39265846D01*
X17720262Y-39263991D01*
X17757764Y-39261582D01*
X17785289Y-39258545D01*
X17805119Y-39254806D01*
X17819534Y-39250289D01*
X17830816Y-39244921D01*
X17836127Y-39241814D01*
X17871866Y-39214271D01*
X17898246Y-39184195D01*
X17899627Y-39181894D01*
X17902146Y-39172966D01*
X17904472Y-39154597D01*
X17906618Y-39125626D01*
X17908597Y-39084895D01*
X17910422Y-39031242D01*
X17912106Y-38963509D01*
X17913662Y-38880536D01*
X17915102Y-38781163D01*
X17916441Y-38664230D01*
X17917690Y-38528578D01*
X17918863Y-38373047D01*
X17919973Y-38196477D01*
X17921032Y-37997708D01*
X17922055Y-37775582D01*
X17923053Y-37528937D01*
X17924040Y-37256615D01*
X17925029Y-36957455D01*
X17925222Y-36896171D01*
X17926149Y-36601211D01*
X17927009Y-36333161D01*
X17927823Y-36090710D01*
X17928611Y-35872545D01*
X17929394Y-35677355D01*
X17930193Y-35503828D01*
X17931029Y-35350652D01*
X17931922Y-35216516D01*
X17932893Y-35100107D01*
X17933963Y-35000113D01*
X17935152Y-34915224D01*
X17936481Y-34844127D01*
X17937970Y-34785510D01*
X17939641Y-34738061D01*
X17941515Y-34700469D01*
X17943610Y-34671422D01*
X17945950Y-34649608D01*
X17948553Y-34633714D01*
X17951441Y-34622431D01*
X17954635Y-34614444D01*
X17958155Y-34608444D01*
X17961372Y-34603987D01*
X17994977Y-34566313D01*
X18029417Y-34535928D01*
X18038274Y-34529829D01*
X18048723Y-34524621D01*
X18062989Y-34520213D01*
X18083298Y-34516512D01*
X18111877Y-34513424D01*
X18150950Y-34510859D01*
X18202745Y-34508721D01*
X18269487Y-34506921D01*
X18353401Y-34505364D01*
X18456715Y-34503957D01*
X18581654Y-34502610D01*
X18730443Y-34501228D01*
X18898439Y-34499778D01*
X19072372Y-34498272D01*
X19220287Y-34496883D01*
X19344389Y-34495522D01*
X19446882Y-34494098D01*
X19529970Y-34492523D01*
X19595858Y-34490706D01*
X19646749Y-34488556D01*
X19684847Y-34485985D01*
X19712358Y-34482903D01*
X19731485Y-34479218D01*
X19744432Y-34474843D01*
X19753403Y-34469686D01*
X19759507Y-34464658D01*
X19772644Y-34452563D01*
X19783846Y-34440432D01*
X19793286Y-34426023D01*
X19801140Y-34407097D01*
X19807583Y-34381411D01*
X19812790Y-34346727D01*
X19816935Y-34300801D01*
X19820195Y-34241395D01*
X19822743Y-34166267D01*
X19824754Y-34073176D01*
X19826404Y-33959881D01*
X19827868Y-33824141D01*
X19829320Y-33663717D01*
X19830222Y-33558881D01*
X19831733Y-33386033D01*
X19833119Y-33239167D01*
X19834476Y-33116043D01*
X19835897Y-33014423D01*
X19837478Y-32932066D01*
X19839310Y-32866733D01*
X19841490Y-32816185D01*
X19844111Y-32778182D01*
X19847267Y-32750485D01*
X19851053Y-32730855D01*
X19855562Y-32717052D01*
X19860889Y-32706836D01*
X19866372Y-32698975D01*
X19899982Y-32661311D01*
X19934435Y-32630928D01*
X19940759Y-32626437D01*
X19948074Y-32622434D01*
X19957950Y-32618890D01*
X19971959Y-32615779D01*
X19991673Y-32613070D01*
X20018662Y-32610737D01*
X20054499Y-32608752D01*
X20100755Y-32607086D01*
X20159001Y-32605712D01*
X20230810Y-32604601D01*
X20317752Y-32603726D01*
X20421399Y-32603057D01*
X20543324Y-32602569D01*
X20685096Y-32602231D01*
X20848288Y-32602017D01*
X21034471Y-32601898D01*
X21245218Y-32601846D01*
X21482098Y-32601834D01*
X21565889Y-32601834D01*
X21811698Y-32601839D01*
X22030857Y-32601875D01*
X22224937Y-32601969D01*
X22395509Y-32602148D01*
X22544145Y-32602442D01*
X22672416Y-32602878D01*
X22781894Y-32603485D01*
X22874151Y-32604289D01*
X22950758Y-32605319D01*
X23013287Y-32606604D01*
X23063309Y-32608171D01*
X23102395Y-32610048D01*
X23132118Y-32612264D01*
X23154048Y-32614846D01*
X23169758Y-32617822D01*
X23180818Y-32621221D01*
X23188801Y-32625070D01*
X23195278Y-32629397D01*
X23197343Y-32630928D01*
X23235019Y-32664537D01*
X23265406Y-32698987D01*
X23269922Y-32705374D01*
X23273948Y-32712810D01*
X23277518Y-32722875D01*
X23280663Y-32737150D01*
X23283416Y-32757217D01*
X23285808Y-32784657D01*
X23287871Y-32821050D01*
X23289639Y-32867977D01*
X23291143Y-32927019D01*
X23292414Y-32999757D01*
X23293486Y-33087772D01*
X23294390Y-33192646D01*
X23295159Y-33315958D01*
X23295825Y-33459290D01*
X23296419Y-33624224D01*
X23296974Y-33812338D01*
X23297522Y-34025216D01*
X23298096Y-34264437D01*
X23298209Y-34312535D01*
X23298777Y-34556964D01*
X23299247Y-34774771D01*
X23299594Y-34967558D01*
X23299795Y-35136925D01*
X23299826Y-35284473D01*
X23637342Y-35284473D01*
X23637499Y-35241530D01*
X23637837Y-35033315D01*
X23637855Y-34797775D01*
X23637554Y-34534596D01*
X23637047Y-34288111D01*
X23633167Y-32686500D01*
X23588108Y-32591381D01*
X23521888Y-32482461D01*
X23436682Y-32392767D01*
X23335262Y-32324479D01*
X23220398Y-32279780D01*
X23181141Y-32270794D01*
X23157697Y-32268064D01*
X23116936Y-32265672D01*
X23057877Y-32263612D01*
X22979537Y-32261875D01*
X22880936Y-32260456D01*
X22761093Y-32259347D01*
X22619026Y-32258541D01*
X22453753Y-32258032D01*
X22264294Y-32257811D01*
X22049667Y-32257873D01*
G36*
X17629981Y-42586598D02*
G01*
X17557534Y-42593748D01*
X17536692Y-42597348D01*
X17401461Y-42635641D01*
X17286480Y-42691035D01*
X17192842Y-42762675D01*
X17121639Y-42849705D01*
X17073966Y-42951268D01*
X17070422Y-42962568D01*
X17058278Y-43017671D01*
X17048100Y-43091990D01*
X17041018Y-43176535D01*
X17039358Y-43209861D01*
X17032744Y-43375667D01*
X17626320Y-43375667D01*
X17631132Y-43227789D01*
X17633849Y-43160458D01*
X17637700Y-43114973D01*
X17644084Y-43084959D01*
X17654401Y-43064041D01*
X17670048Y-43045844D01*
X17671346Y-43044541D01*
X17721129Y-43012371D01*
X17781534Y-42998817D01*
X17844676Y-43002899D01*
X17902671Y-43023639D01*
X17947632Y-43060056D01*
X17961122Y-43080536D01*
X17975813Y-43129025D01*
X17980947Y-43190559D01*
X17976495Y-43252131D01*
X17962428Y-43300732D01*
X17961632Y-43302284D01*
X17942264Y-43332106D01*
X17912425Y-43366232D01*
X17869853Y-43406586D01*
X17812285Y-43455090D01*
X17737460Y-43513667D01*
X17643117Y-43584241D01*
X17551278Y-43651203D01*
X17452513Y-43722825D01*
X17373545Y-43780767D01*
X17311170Y-43827704D01*
X17262186Y-43866314D01*
X17223391Y-43899273D01*
X17191582Y-43929256D01*
X17163557Y-43958941D01*
X17136113Y-43991005D01*
X17117814Y-44013465D01*
X17063085Y-44093218D01*
X17025301Y-44178244D01*
X17002610Y-44274765D01*
X16993160Y-44388999D01*
X16992638Y-44434000D01*
X17000308Y-44574478D01*
X17023323Y-44694233D01*
X17063057Y-44797065D01*
X17120885Y-44886775D01*
X17179326Y-44949980D01*
X17231211Y-44993254D01*
X17290169Y-45034034D01*
X17335703Y-45059546D01*
X17441982Y-45098523D01*
X17568654Y-45125999D01*
X17710026Y-45141250D01*
X17860407Y-45143550D01*
X17953831Y-45138309D01*
X18044473Y-45125609D01*
X18140076Y-45103549D01*
X18231622Y-45074831D01*
X18310089Y-45042162D01*
X18351285Y-45019128D01*
X18436584Y-44951932D01*
X18503981Y-44872537D01*
X18554567Y-44778316D01*
X18589436Y-44666639D01*
X18609679Y-44534879D01*
X18616387Y-44381084D01*
X18616667Y-44250556D01*
X18024000Y-44250556D01*
X18023690Y-44402250D01*
X18020502Y-44499405D01*
X18010298Y-44573099D01*
X17991443Y-44627579D01*
X17962299Y-44667088D01*
X17921232Y-44695873D01*
X17908060Y-44702278D01*
X17829182Y-44726457D01*
X17754335Y-44723982D01*
X17693008Y-44702411D01*
X17633279Y-44659060D01*
X17594321Y-44598627D01*
X17577193Y-44524223D01*
X17582953Y-44438964D01*
X17591504Y-44403881D01*
X17604650Y-44366752D01*
X17623199Y-44331534D01*
X17649753Y-44295763D01*
X17686914Y-44256973D01*
X17737282Y-44212701D01*
X17803459Y-44160482D01*
X17888046Y-44097852D01*
X17993643Y-44022345D01*
X17995778Y-44020834D01*
X18077840Y-43961770D01*
X18157930Y-43902281D01*
X18231088Y-43846188D01*
X18292352Y-43797315D01*
X18336763Y-43759484D01*
X18345837Y-43751071D01*
X18441311Y-43645683D01*
X18510225Y-43536107D01*
X18553554Y-43419349D01*
X18572271Y-43292414D01*
X18567353Y-43152307D01*
X18559435Y-43094660D01*
X18526044Y-42970664D01*
X18469219Y-42861602D01*
X18390187Y-42768682D01*
X18290175Y-42693114D01*
X18170409Y-42636108D01*
X18062836Y-42605037D01*
X17995530Y-42594544D01*
X17909987Y-42587327D01*
X17814812Y-42583514D01*
X17718609Y-42583229D01*
X17629981Y-42586598D01*
G37*
X17629981Y-42586598D02*
X17557534Y-42593748D01*
X17536692Y-42597348D01*
X17401461Y-42635641D01*
X17286480Y-42691035D01*
X17192842Y-42762675D01*
X17121639Y-42849705D01*
X17073966Y-42951268D01*
X17070422Y-42962568D01*
X17058278Y-43017671D01*
X17048100Y-43091990D01*
X17041018Y-43176535D01*
X17039358Y-43209861D01*
X17032744Y-43375667D01*
X17626320Y-43375667D01*
X17631132Y-43227789D01*
X17633849Y-43160458D01*
X17637700Y-43114973D01*
X17644084Y-43084959D01*
X17654401Y-43064041D01*
X17670048Y-43045844D01*
X17671346Y-43044541D01*
X17721129Y-43012371D01*
X17781534Y-42998817D01*
X17844676Y-43002899D01*
X17902671Y-43023639D01*
X17947632Y-43060056D01*
X17961122Y-43080536D01*
X17975813Y-43129025D01*
X17980947Y-43190559D01*
X17976495Y-43252131D01*
X17962428Y-43300732D01*
X17961632Y-43302284D01*
X17942264Y-43332106D01*
X17912425Y-43366232D01*
X17869853Y-43406586D01*
X17812285Y-43455090D01*
X17737460Y-43513667D01*
X17643117Y-43584241D01*
X17551278Y-43651203D01*
X17452513Y-43722825D01*
X17373545Y-43780767D01*
X17311170Y-43827704D01*
X17262186Y-43866314D01*
X17223391Y-43899273D01*
X17191582Y-43929256D01*
X17163557Y-43958941D01*
X17136113Y-43991005D01*
X17117814Y-44013465D01*
X17063085Y-44093218D01*
X17025301Y-44178244D01*
X17002610Y-44274765D01*
X16993160Y-44388999D01*
X16992638Y-44434000D01*
X17000308Y-44574478D01*
X17023323Y-44694233D01*
X17063057Y-44797065D01*
X17120885Y-44886775D01*
X17179326Y-44949980D01*
X17231211Y-44993254D01*
X17290169Y-45034034D01*
X17335703Y-45059546D01*
X17441982Y-45098523D01*
X17568654Y-45125999D01*
X17710026Y-45141250D01*
X17860407Y-45143550D01*
X17953831Y-45138309D01*
X18044473Y-45125609D01*
X18140076Y-45103549D01*
X18231622Y-45074831D01*
X18310089Y-45042162D01*
X18351285Y-45019128D01*
X18436584Y-44951932D01*
X18503981Y-44872537D01*
X18554567Y-44778316D01*
X18589436Y-44666639D01*
X18609679Y-44534879D01*
X18616387Y-44381084D01*
X18616667Y-44250556D01*
X18024000Y-44250556D01*
X18023690Y-44402250D01*
X18020502Y-44499405D01*
X18010298Y-44573099D01*
X17991443Y-44627579D01*
X17962299Y-44667088D01*
X17921232Y-44695873D01*
X17908060Y-44702278D01*
X17829182Y-44726457D01*
X17754335Y-44723982D01*
X17693008Y-44702411D01*
X17633279Y-44659060D01*
X17594321Y-44598627D01*
X17577193Y-44524223D01*
X17582953Y-44438964D01*
X17591504Y-44403881D01*
X17604650Y-44366752D01*
X17623199Y-44331534D01*
X17649753Y-44295763D01*
X17686914Y-44256973D01*
X17737282Y-44212701D01*
X17803459Y-44160482D01*
X17888046Y-44097852D01*
X17993643Y-44022345D01*
X17995778Y-44020834D01*
X18077840Y-43961770D01*
X18157930Y-43902281D01*
X18231088Y-43846188D01*
X18292352Y-43797315D01*
X18336763Y-43759484D01*
X18345837Y-43751071D01*
X18441311Y-43645683D01*
X18510225Y-43536107D01*
X18553554Y-43419349D01*
X18572271Y-43292414D01*
X18567353Y-43152307D01*
X18559435Y-43094660D01*
X18526044Y-42970664D01*
X18469219Y-42861602D01*
X18390187Y-42768682D01*
X18290175Y-42693114D01*
X18170409Y-42636108D01*
X18062836Y-42605037D01*
X17995530Y-42594544D01*
X17909987Y-42587327D01*
X17814812Y-42583514D01*
X17718609Y-42583229D01*
X17629981Y-42586598D01*
G36*
X17205556Y-40200667D02*
G01*
X17854667Y-40200667D01*
X17854667Y-40751000D01*
X17247889Y-40751000D01*
X17247889Y-41202556D01*
X17854667Y-41202556D01*
X17854667Y-41795223D01*
X17149111Y-41795223D01*
X17149111Y-42246778D01*
X18447333Y-42246778D01*
X18447333Y-39749111D01*
X17205556Y-39749111D01*
X17205556Y-40200667D01*
G37*
X17205556Y-40200667D02*
X17854667Y-40200667D01*
X17854667Y-40751000D01*
X17247889Y-40751000D01*
X17247889Y-41202556D01*
X17854667Y-41202556D01*
X17854667Y-41795223D01*
X17149111Y-41795223D01*
X17149111Y-42246778D01*
X18447333Y-42246778D01*
X18447333Y-39749111D01*
X17205556Y-39749111D01*
X17205556Y-40200667D01*
G36*
X19853626Y-37851167D02*
G01*
X19584397Y-38679304D01*
X19536602Y-38826004D01*
X19491218Y-38964697D01*
X19449017Y-39093060D01*
X19410774Y-39208771D01*
X19377261Y-39309507D01*
X19349250Y-39392945D01*
X19327516Y-39456762D01*
X19312830Y-39498636D01*
X19305967Y-39516244D01*
X19305717Y-39516606D01*
X19304152Y-39504582D01*
X19302934Y-39466749D01*
X19302067Y-39405520D01*
X19301553Y-39323305D01*
X19301397Y-39222518D01*
X19301603Y-39105568D01*
X19302175Y-38974869D01*
X19303115Y-38832831D01*
X19304400Y-38684941D01*
X19312533Y-37844111D01*
X18814222Y-37844111D01*
X18814222Y-40341778D01*
X19445280Y-40341778D01*
X19725945Y-39529239D01*
X20006611Y-38716700D01*
X20010254Y-39529239D01*
X20013896Y-40341778D01*
X20507556Y-40341778D01*
X20507556Y-37843591D01*
X19853626Y-37851167D01*
G37*
X19853626Y-37851167D02*
X19584397Y-38679304D01*
X19536602Y-38826004D01*
X19491218Y-38964697D01*
X19449017Y-39093060D01*
X19410774Y-39208771D01*
X19377261Y-39309507D01*
X19349250Y-39392945D01*
X19327516Y-39456762D01*
X19312830Y-39498636D01*
X19305967Y-39516244D01*
X19305717Y-39516606D01*
X19304152Y-39504582D01*
X19302934Y-39466749D01*
X19302067Y-39405520D01*
X19301553Y-39323305D01*
X19301397Y-39222518D01*
X19301603Y-39105568D01*
X19302175Y-38974869D01*
X19303115Y-38832831D01*
X19304400Y-38684941D01*
X19312533Y-37844111D01*
X18814222Y-37844111D01*
X18814222Y-40341778D01*
X19445280Y-40341778D01*
X19725945Y-39529239D01*
X20006611Y-38716700D01*
X20010254Y-39529239D01*
X20013896Y-40341778D01*
X20507556Y-40341778D01*
X20507556Y-37843591D01*
X19853626Y-37851167D01*
G36*
X19591208Y-34960429D02*
G01*
X19496608Y-34965210D01*
X19414302Y-34973468D01*
X19352115Y-34985106D01*
X19351573Y-34985252D01*
X19217535Y-35031463D01*
X19107439Y-35091580D01*
X19020006Y-35166841D01*
X18953962Y-35258479D01*
X18908028Y-35367731D01*
X18892072Y-35429978D01*
X18886711Y-35470617D01*
X18882050Y-35535869D01*
X18878093Y-35622184D01*
X18874841Y-35726007D01*
X18872297Y-35843789D01*
X18870463Y-35971978D01*
X18869342Y-36107020D01*
X18868936Y-36245365D01*
X18869248Y-36383461D01*
X18870279Y-36517755D01*
X18872033Y-36644697D01*
X18874511Y-36760734D01*
X18877716Y-36862315D01*
X18881650Y-36945887D01*
X18886317Y-37007899D01*
X18890990Y-37041628D01*
X18928392Y-37162164D01*
X18986067Y-37264299D01*
X19064899Y-37348901D01*
X19165775Y-37416837D01*
X19289580Y-37468975D01*
X19343389Y-37484978D01*
X19390588Y-37493821D01*
X19458354Y-37501646D01*
X19539042Y-37508070D01*
X19625004Y-37512711D01*
X19708592Y-37515186D01*
X19782161Y-37515113D01*
X19838062Y-37512108D01*
X19851389Y-37510398D01*
X19994860Y-37477902D01*
X20120750Y-37429828D01*
X20227079Y-37367458D01*
X20311864Y-37292076D01*
X20373124Y-37204963D01*
X20393490Y-37159629D01*
X20406495Y-37121685D01*
X20417478Y-37081331D01*
X20426576Y-37036033D01*
X20433927Y-36983254D01*
X20439666Y-36920459D01*
X20443931Y-36845115D01*
X20446859Y-36754685D01*
X20448588Y-36646634D01*
X20449226Y-36523716D01*
X19856816Y-36523716D01*
X19856580Y-36642072D01*
X19855439Y-36739369D01*
X19853174Y-36817996D01*
X19849564Y-36880340D01*
X19844386Y-36928788D01*
X19837421Y-36965728D01*
X19828448Y-36993548D01*
X19817247Y-37014635D01*
X19803595Y-37031377D01*
X19787272Y-37046161D01*
X19777821Y-37053737D01*
X19729204Y-37076499D01*
X19667771Y-37084330D01*
X19604446Y-37077561D01*
X19550152Y-37056526D01*
X19535914Y-37046372D01*
X19518371Y-37030984D01*
X19503614Y-37015188D01*
X19491402Y-36996533D01*
X19481493Y-36972567D01*
X19473648Y-36940840D01*
X19467625Y-36898901D01*
X19463184Y-36844297D01*
X19460085Y-36774580D01*
X19458085Y-36687297D01*
X19456946Y-36579997D01*
X19456425Y-36450230D01*
X19456283Y-36295544D01*
X19456278Y-36235445D01*
X19456355Y-36072072D01*
X19456730Y-35934458D01*
X19457620Y-35820141D01*
X19459242Y-35726657D01*
X19461812Y-35651543D01*
X19465549Y-35592336D01*
X19470668Y-35546574D01*
X19477387Y-35511793D01*
X19485922Y-35485531D01*
X19496491Y-35465324D01*
X19509310Y-35448710D01*
X19524595Y-35433225D01*
X19527134Y-35430829D01*
X19571669Y-35405167D01*
X19631088Y-35391656D01*
X19694317Y-35391364D01*
X19750286Y-35405360D01*
X19757120Y-35408628D01*
X19777611Y-35419411D01*
X19794891Y-35430384D01*
X19809250Y-35443910D01*
X19820976Y-35462353D01*
X19830356Y-35488076D01*
X19837681Y-35523443D01*
X19843237Y-35570818D01*
X19847315Y-35632563D01*
X19850201Y-35711042D01*
X19852185Y-35808620D01*
X19853555Y-35927659D01*
X19854600Y-36070522D01*
X19855459Y-36214278D01*
X19856368Y-36381914D01*
X19856816Y-36523716D01*
X20449226Y-36523716D01*
X20449254Y-36518428D01*
X20448993Y-36367531D01*
X20447944Y-36191409D01*
X20447683Y-36156975D01*
X20446277Y-35987852D01*
X20444718Y-35844351D01*
X20442732Y-35723872D01*
X20440047Y-35623816D01*
X20436390Y-35541582D01*
X20431486Y-35474571D01*
X20425063Y-35420183D01*
X20416847Y-35375818D01*
X20406567Y-35338875D01*
X20393947Y-35306756D01*
X20378715Y-35276860D01*
X20360597Y-35246588D01*
X20350307Y-35230398D01*
X20286780Y-35154823D01*
X20200388Y-35087374D01*
X20096014Y-35031024D01*
X19978543Y-34988750D01*
X19936033Y-34978010D01*
X19870514Y-34967915D01*
X19785986Y-34961684D01*
X19690276Y-34959221D01*
X19591208Y-34960429D01*
G37*
X19591208Y-34960429D02*
X19496608Y-34965210D01*
X19414302Y-34973468D01*
X19352115Y-34985106D01*
X19351573Y-34985252D01*
X19217535Y-35031463D01*
X19107439Y-35091580D01*
X19020006Y-35166841D01*
X18953962Y-35258479D01*
X18908028Y-35367731D01*
X18892072Y-35429978D01*
X18886711Y-35470617D01*
X18882050Y-35535869D01*
X18878093Y-35622184D01*
X18874841Y-35726007D01*
X18872297Y-35843789D01*
X18870463Y-35971978D01*
X18869342Y-36107020D01*
X18868936Y-36245365D01*
X18869248Y-36383461D01*
X18870279Y-36517755D01*
X18872033Y-36644697D01*
X18874511Y-36760734D01*
X18877716Y-36862315D01*
X18881650Y-36945887D01*
X18886317Y-37007899D01*
X18890990Y-37041628D01*
X18928392Y-37162164D01*
X18986067Y-37264299D01*
X19064899Y-37348901D01*
X19165775Y-37416837D01*
X19289580Y-37468975D01*
X19343389Y-37484978D01*
X19390588Y-37493821D01*
X19458354Y-37501646D01*
X19539042Y-37508070D01*
X19625004Y-37512711D01*
X19708592Y-37515186D01*
X19782161Y-37515113D01*
X19838062Y-37512108D01*
X19851389Y-37510398D01*
X19994860Y-37477902D01*
X20120750Y-37429828D01*
X20227079Y-37367458D01*
X20311864Y-37292076D01*
X20373124Y-37204963D01*
X20393490Y-37159629D01*
X20406495Y-37121685D01*
X20417478Y-37081331D01*
X20426576Y-37036033D01*
X20433927Y-36983254D01*
X20439666Y-36920459D01*
X20443931Y-36845115D01*
X20446859Y-36754685D01*
X20448588Y-36646634D01*
X20449226Y-36523716D01*
X19856816Y-36523716D01*
X19856580Y-36642072D01*
X19855439Y-36739369D01*
X19853174Y-36817996D01*
X19849564Y-36880340D01*
X19844386Y-36928788D01*
X19837421Y-36965728D01*
X19828448Y-36993548D01*
X19817247Y-37014635D01*
X19803595Y-37031377D01*
X19787272Y-37046161D01*
X19777821Y-37053737D01*
X19729204Y-37076499D01*
X19667771Y-37084330D01*
X19604446Y-37077561D01*
X19550152Y-37056526D01*
X19535914Y-37046372D01*
X19518371Y-37030984D01*
X19503614Y-37015188D01*
X19491402Y-36996533D01*
X19481493Y-36972567D01*
X19473648Y-36940840D01*
X19467625Y-36898901D01*
X19463184Y-36844297D01*
X19460085Y-36774580D01*
X19458085Y-36687297D01*
X19456946Y-36579997D01*
X19456425Y-36450230D01*
X19456283Y-36295544D01*
X19456278Y-36235445D01*
X19456355Y-36072072D01*
X19456730Y-35934458D01*
X19457620Y-35820141D01*
X19459242Y-35726657D01*
X19461812Y-35651543D01*
X19465549Y-35592336D01*
X19470668Y-35546574D01*
X19477387Y-35511793D01*
X19485922Y-35485531D01*
X19496491Y-35465324D01*
X19509310Y-35448710D01*
X19524595Y-35433225D01*
X19527134Y-35430829D01*
X19571669Y-35405167D01*
X19631088Y-35391656D01*
X19694317Y-35391364D01*
X19750286Y-35405360D01*
X19757120Y-35408628D01*
X19777611Y-35419411D01*
X19794891Y-35430384D01*
X19809250Y-35443910D01*
X19820976Y-35462353D01*
X19830356Y-35488076D01*
X19837681Y-35523443D01*
X19843237Y-35570818D01*
X19847315Y-35632563D01*
X19850201Y-35711042D01*
X19852185Y-35808620D01*
X19853555Y-35927659D01*
X19854600Y-36070522D01*
X19855459Y-36214278D01*
X19856368Y-36381914D01*
X19856816Y-36523716D01*
X20449226Y-36523716D01*
X20449254Y-36518428D01*
X20448993Y-36367531D01*
X20447944Y-36191409D01*
X20447683Y-36156975D01*
X20446277Y-35987852D01*
X20444718Y-35844351D01*
X20442732Y-35723872D01*
X20440047Y-35623816D01*
X20436390Y-35541582D01*
X20431486Y-35474571D01*
X20425063Y-35420183D01*
X20416847Y-35375818D01*
X20406567Y-35338875D01*
X20393947Y-35306756D01*
X20378715Y-35276860D01*
X20360597Y-35246588D01*
X20350307Y-35230398D01*
X20286780Y-35154823D01*
X20200388Y-35087374D01*
X20096014Y-35031024D01*
X19978543Y-34988750D01*
X19936033Y-34978010D01*
X19870514Y-34967915D01*
X19785986Y-34961684D01*
X19690276Y-34959221D01*
X19591208Y-34960429D01*
G36*
X20973222Y-34053021D02*
G01*
X20973256Y-34245344D01*
X20973395Y-34411606D01*
X20973691Y-34553970D01*
X20974199Y-34674598D01*
X20974972Y-34775652D01*
X20976065Y-34859292D01*
X20977531Y-34927682D01*
X20979424Y-34982984D01*
X20981798Y-35027358D01*
X20984707Y-35062968D01*
X20988204Y-35091974D01*
X20992343Y-35116540D01*
X20997179Y-35138826D01*
X21000595Y-35152622D01*
X21041895Y-35269251D01*
X21101753Y-35366233D01*
X21181409Y-35444667D01*
X21282102Y-35505656D01*
X21405071Y-35550300D01*
X21464638Y-35564647D01*
X21551614Y-35577486D01*
X21654804Y-35584222D01*
X21764659Y-35584945D01*
X21871635Y-35579745D01*
X21966185Y-35568715D01*
X22012572Y-35559435D01*
X22131695Y-35521194D01*
X22233665Y-35470100D01*
X22313943Y-35408529D01*
X22327504Y-35394616D01*
X22375826Y-35335707D01*
X22413628Y-35273219D01*
X22441996Y-35202950D01*
X22462013Y-35120699D01*
X22474765Y-35022264D01*
X22481334Y-34903443D01*
X22482866Y-34792584D01*
X22483111Y-34556223D01*
X21908647Y-34556223D01*
X21901253Y-34802468D01*
X21897231Y-34907254D01*
X21891448Y-34987670D01*
X21882675Y-35047563D01*
X21869684Y-35090779D01*
X21851246Y-35121167D01*
X21826133Y-35142573D01*
X21793116Y-35158844D01*
X21786644Y-35161370D01*
X21719395Y-35174863D01*
X21660923Y-35162571D01*
X21613657Y-35126207D01*
X21580026Y-35067486D01*
X21564436Y-35004615D01*
X21562596Y-34977827D01*
X21560826Y-34925391D01*
X21559156Y-34849881D01*
X21557616Y-34753870D01*
X21556235Y-34639933D01*
X21555043Y-34510643D01*
X21554070Y-34368575D01*
X21553345Y-34216302D01*
X21552898Y-34056398D01*
X21552808Y-33995306D01*
X21551778Y-33060445D01*
X20973222Y-33060445D01*
X20973222Y-34053021D01*
G37*
X20973222Y-34053021D02*
X20973256Y-34245344D01*
X20973395Y-34411606D01*
X20973691Y-34553970D01*
X20974199Y-34674598D01*
X20974972Y-34775652D01*
X20976065Y-34859292D01*
X20977531Y-34927682D01*
X20979424Y-34982984D01*
X20981798Y-35027358D01*
X20984707Y-35062968D01*
X20988204Y-35091974D01*
X20992343Y-35116540D01*
X20997179Y-35138826D01*
X21000595Y-35152622D01*
X21041895Y-35269251D01*
X21101753Y-35366233D01*
X21181409Y-35444667D01*
X21282102Y-35505656D01*
X21405071Y-35550300D01*
X21464638Y-35564647D01*
X21551614Y-35577486D01*
X21654804Y-35584222D01*
X21764659Y-35584945D01*
X21871635Y-35579745D01*
X21966185Y-35568715D01*
X22012572Y-35559435D01*
X22131695Y-35521194D01*
X22233665Y-35470100D01*
X22313943Y-35408529D01*
X22327504Y-35394616D01*
X22375826Y-35335707D01*
X22413628Y-35273219D01*
X22441996Y-35202950D01*
X22462013Y-35120699D01*
X22474765Y-35022264D01*
X22481334Y-34903443D01*
X22482866Y-34792584D01*
X22483111Y-34556223D01*
X21908647Y-34556223D01*
X21901253Y-34802468D01*
X21897231Y-34907254D01*
X21891448Y-34987670D01*
X21882675Y-35047563D01*
X21869684Y-35090779D01*
X21851246Y-35121167D01*
X21826133Y-35142573D01*
X21793116Y-35158844D01*
X21786644Y-35161370D01*
X21719395Y-35174863D01*
X21660923Y-35162571D01*
X21613657Y-35126207D01*
X21580026Y-35067486D01*
X21564436Y-35004615D01*
X21562596Y-34977827D01*
X21560826Y-34925391D01*
X21559156Y-34849881D01*
X21557616Y-34753870D01*
X21556235Y-34639933D01*
X21555043Y-34510643D01*
X21554070Y-34368575D01*
X21553345Y-34216302D01*
X21552898Y-34056398D01*
X21552808Y-33995306D01*
X21551778Y-33060445D01*
X20973222Y-33060445D01*
X20973222Y-34053021D01*
%TD*%
M02*
