%TF.GenerationSoftware,KiCad,Pcbnew,(5.1.10-1-10_14)*%
%TF.CreationDate,2021-07-02T05:56:29+09:00*%
%TF.ProjectId,keyplate,6b657970-6c61-4746-952e-6b696361645f,rev?*%
%TF.SameCoordinates,Original*%
%TF.FileFunction,Legend,Bot*%
%TF.FilePolarity,Positive*%
%FSLAX46Y46*%
G04 Gerber Fmt 4.6, Leading zero omitted, Abs format (unit mm)*
G04 Created by KiCad (PCBNEW (5.1.10-1-10_14)) date 2021-07-02 05:56:29*
%MOMM*%
%LPD*%
G01*
G04 APERTURE LIST*
%ADD10C,0.300000*%
%ADD11C,0.250000*%
%ADD12C,0.010000*%
G04 APERTURE END LIST*
D10*
X17046428Y-107238571D02*
X15974999Y-107238571D01*
X15760714Y-107310000D01*
X15617857Y-107452857D01*
X15546428Y-107667142D01*
X15546428Y-107810000D01*
X15546428Y-105810000D02*
X15546428Y-106524285D01*
X17046428Y-106524285D01*
X15689285Y-104452857D02*
X15617857Y-104524285D01*
X15546428Y-104738571D01*
X15546428Y-104881428D01*
X15617857Y-105095714D01*
X15760714Y-105238571D01*
X15903571Y-105310000D01*
X16189285Y-105381428D01*
X16403571Y-105381428D01*
X16689285Y-105310000D01*
X16832142Y-105238571D01*
X16975000Y-105095714D01*
X17046428Y-104881428D01*
X17046428Y-104738571D01*
X16975000Y-104524285D01*
X16903571Y-104452857D01*
X17046428Y-103381428D02*
X15975000Y-103381428D01*
X15760714Y-103452857D01*
X15617857Y-103595714D01*
X15546428Y-103810000D01*
X15546428Y-103952857D01*
X15546428Y-101952857D02*
X15546428Y-102667142D01*
X17046428Y-102667142D01*
X15689285Y-100595714D02*
X15617857Y-100667142D01*
X15546428Y-100881428D01*
X15546428Y-101024285D01*
X15617857Y-101238571D01*
X15760714Y-101381428D01*
X15903571Y-101452857D01*
X16189285Y-101524285D01*
X16403571Y-101524285D01*
X16689285Y-101452857D01*
X16832142Y-101381428D01*
X16975000Y-101238571D01*
X17046428Y-101024285D01*
X17046428Y-100881428D01*
X16975000Y-100667142D01*
X16903571Y-100595714D01*
X17046428Y-99524285D02*
X15975000Y-99524285D01*
X15760714Y-99595714D01*
X15617857Y-99738571D01*
X15546428Y-99952857D01*
X15546428Y-100095714D01*
X15546428Y-98095714D02*
X15546428Y-98810000D01*
X17046428Y-98810000D01*
X15689285Y-96738571D02*
X15617857Y-96810000D01*
X15546428Y-97024285D01*
X15546428Y-97167142D01*
X15617857Y-97381428D01*
X15760714Y-97524285D01*
X15903571Y-97595714D01*
X16189285Y-97667142D01*
X16403571Y-97667142D01*
X16689285Y-97595714D01*
X16832142Y-97524285D01*
X16975000Y-97381428D01*
X17046428Y-97167142D01*
X17046428Y-97024285D01*
X16975000Y-96810000D01*
X16903571Y-96738571D01*
X17046428Y-95667142D02*
X15975000Y-95667142D01*
X15760714Y-95738571D01*
X15617857Y-95881428D01*
X15546428Y-96095714D01*
X15546428Y-96238571D01*
X15546428Y-94238571D02*
X15546428Y-94952857D01*
X17046428Y-94952857D01*
X15689285Y-92881428D02*
X15617857Y-92952857D01*
X15546428Y-93167142D01*
X15546428Y-93310000D01*
X15617857Y-93524285D01*
X15760714Y-93667142D01*
X15903571Y-93738571D01*
X16189285Y-93810000D01*
X16403571Y-93810000D01*
X16689285Y-93738571D01*
X16832142Y-93667142D01*
X16975000Y-93524285D01*
X17046428Y-93310000D01*
X17046428Y-93167142D01*
X16975000Y-92952857D01*
X16903571Y-92881428D01*
D11*
X68926785Y-33988571D02*
X67855357Y-33988571D01*
X68498214Y-33345714D02*
X68926785Y-35274285D01*
X67998214Y-34631428D02*
X69069642Y-34631428D01*
X68426785Y-35274285D02*
X67998214Y-33345714D01*
X66926785Y-33488571D02*
X66926785Y-34560000D01*
X66998214Y-34774285D01*
X67141071Y-34917142D01*
X67355357Y-34988571D01*
X67498214Y-34988571D01*
X65998214Y-34988571D02*
X66141071Y-34917142D01*
X66212500Y-34845714D01*
X66283928Y-34702857D01*
X66283928Y-34274285D01*
X66212500Y-34131428D01*
X66141071Y-34060000D01*
X65998214Y-33988571D01*
X65783928Y-33988571D01*
X65641071Y-34060000D01*
X65569642Y-34131428D01*
X65498214Y-34274285D01*
X65498214Y-34702857D01*
X65569642Y-34845714D01*
X65641071Y-34917142D01*
X65783928Y-34988571D01*
X65998214Y-34988571D01*
X64855357Y-33988571D02*
X64855357Y-34988571D01*
X64855357Y-34131428D02*
X64783928Y-34060000D01*
X64641071Y-33988571D01*
X64426785Y-33988571D01*
X64283928Y-34060000D01*
X64212500Y-34202857D01*
X64212500Y-34988571D01*
X62926785Y-34917142D02*
X63069642Y-34988571D01*
X63355357Y-34988571D01*
X63498214Y-34917142D01*
X63569642Y-34774285D01*
X63569642Y-34202857D01*
X63498214Y-34060000D01*
X63355357Y-33988571D01*
X63069642Y-33988571D01*
X62926785Y-34060000D01*
X62855357Y-34202857D01*
X62855357Y-34345714D01*
X63569642Y-34488571D01*
X62283928Y-34917142D02*
X62141071Y-34988571D01*
X61855357Y-34988571D01*
X61712500Y-34917142D01*
X61641071Y-34774285D01*
X61641071Y-34702857D01*
X61712500Y-34560000D01*
X61855357Y-34488571D01*
X62069642Y-34488571D01*
X62212500Y-34417142D01*
X62283928Y-34274285D01*
X62283928Y-34202857D01*
X62212500Y-34060000D01*
X62069642Y-33988571D01*
X61855357Y-33988571D01*
X61712500Y-34060000D01*
X61355357Y-35131428D02*
X60212500Y-35131428D01*
X59855357Y-34988571D02*
X59855357Y-33488571D01*
X59712500Y-34417142D02*
X59283928Y-34988571D01*
X59283928Y-33988571D02*
X59855357Y-34560000D01*
X58641071Y-34988571D02*
X58641071Y-33488571D01*
X58641071Y-34060000D02*
X58498214Y-33988571D01*
X58212500Y-33988571D01*
X58069642Y-34060000D01*
X57998214Y-34131428D01*
X57926785Y-34274285D01*
X57926785Y-34702857D01*
X57998214Y-34845714D01*
X58069642Y-34917142D01*
X58212500Y-34988571D01*
X58498214Y-34988571D01*
X58641071Y-34917142D01*
X56641071Y-34988571D02*
X56641071Y-33488571D01*
X56641071Y-34917142D02*
X56783928Y-34988571D01*
X57069642Y-34988571D01*
X57212500Y-34917142D01*
X57283928Y-34845714D01*
X57355357Y-34702857D01*
X57355357Y-34274285D01*
X57283928Y-34131428D01*
X57212500Y-34060000D01*
X57069642Y-33988571D01*
X56783928Y-33988571D01*
X56641071Y-34060000D01*
X54783928Y-34988571D02*
X54783928Y-33488571D01*
X53926785Y-34988571D02*
X54569642Y-34131428D01*
X53926785Y-33488571D02*
X54783928Y-34345714D01*
X52712500Y-34917142D02*
X52855357Y-34988571D01*
X53141071Y-34988571D01*
X53283928Y-34917142D01*
X53355357Y-34774285D01*
X53355357Y-34202857D01*
X53283928Y-34060000D01*
X53141071Y-33988571D01*
X52855357Y-33988571D01*
X52712500Y-34060000D01*
X52641071Y-34202857D01*
X52641071Y-34345714D01*
X53355357Y-34488571D01*
X52141071Y-33988571D02*
X51783928Y-34988571D01*
X51426785Y-33988571D02*
X51783928Y-34988571D01*
X51926785Y-35345714D01*
X51998214Y-35417142D01*
X52141071Y-35488571D01*
X50855357Y-33988571D02*
X50855357Y-35488571D01*
X50855357Y-34060000D02*
X50712500Y-33988571D01*
X50426785Y-33988571D01*
X50283928Y-34060000D01*
X50212500Y-34131428D01*
X50141071Y-34274285D01*
X50141071Y-34702857D01*
X50212500Y-34845714D01*
X50283928Y-34917142D01*
X50426785Y-34988571D01*
X50712500Y-34988571D01*
X50855357Y-34917142D01*
X49283928Y-34988571D02*
X49426785Y-34917142D01*
X49498214Y-34774285D01*
X49498214Y-33488571D01*
X48069642Y-34988571D02*
X48069642Y-34202857D01*
X48141071Y-34060000D01*
X48283928Y-33988571D01*
X48569642Y-33988571D01*
X48712499Y-34060000D01*
X48069642Y-34917142D02*
X48212499Y-34988571D01*
X48569642Y-34988571D01*
X48712499Y-34917142D01*
X48783928Y-34774285D01*
X48783928Y-34631428D01*
X48712499Y-34488571D01*
X48569642Y-34417142D01*
X48212499Y-34417142D01*
X48069642Y-34345714D01*
X47569642Y-33988571D02*
X46998214Y-33988571D01*
X47355357Y-33488571D02*
X47355357Y-34774285D01*
X47283928Y-34917142D01*
X47141071Y-34988571D01*
X46998214Y-34988571D01*
X45926785Y-34917142D02*
X46069642Y-34988571D01*
X46355357Y-34988571D01*
X46498214Y-34917142D01*
X46569642Y-34774285D01*
X46569642Y-34202857D01*
X46498214Y-34060000D01*
X46355357Y-33988571D01*
X46069642Y-33988571D01*
X45926785Y-34060000D01*
X45855357Y-34202857D01*
X45855357Y-34345714D01*
X46569642Y-34488571D01*
X44212499Y-33988571D02*
X43855357Y-34988571D01*
X43498214Y-33988571D01*
X42926785Y-34845714D02*
X42855357Y-34917142D01*
X42926785Y-34988571D01*
X42998214Y-34917142D01*
X42926785Y-34845714D01*
X42926785Y-34988571D01*
X41569642Y-33988571D02*
X41569642Y-34988571D01*
X41926785Y-33417142D02*
X42283928Y-34488571D01*
X41355357Y-34488571D01*
X40783928Y-34845714D02*
X40712499Y-34917142D01*
X40783928Y-34988571D01*
X40855357Y-34917142D01*
X40783928Y-34845714D01*
X40783928Y-34988571D01*
X39783928Y-33488571D02*
X39641071Y-33488571D01*
X39498214Y-33560000D01*
X39426785Y-33631428D01*
X39355357Y-33774285D01*
X39283928Y-34060000D01*
X39283928Y-34417142D01*
X39355357Y-34702857D01*
X39426785Y-34845714D01*
X39498214Y-34917142D01*
X39641071Y-34988571D01*
X39783928Y-34988571D01*
X39926785Y-34917142D01*
X39998214Y-34845714D01*
X40069642Y-34702857D01*
X40141071Y-34417142D01*
X40141071Y-34060000D01*
X40069642Y-33774285D01*
X39998214Y-33631428D01*
X39926785Y-33560000D01*
X39783928Y-33488571D01*
X38641071Y-34845714D02*
X38569642Y-34917142D01*
X38641071Y-34988571D01*
X38712499Y-34917142D01*
X38641071Y-34845714D01*
X38641071Y-34988571D01*
X37141071Y-34988571D02*
X37998214Y-34988571D01*
X37569642Y-34988571D02*
X37569642Y-33488571D01*
X37712499Y-33702857D01*
X37855357Y-33845714D01*
X37998214Y-33917142D01*
X36426785Y-34917142D02*
X36426785Y-34988571D01*
X36498214Y-35131428D01*
X36569642Y-35202857D01*
X33712499Y-34274285D02*
X33783928Y-34202857D01*
X33926785Y-34131428D01*
X34069642Y-34131428D01*
X34212499Y-34202857D01*
X34283928Y-34274285D01*
X34355357Y-34417142D01*
X34355357Y-34560000D01*
X34283928Y-34702857D01*
X34212499Y-34774285D01*
X34069642Y-34845714D01*
X33926785Y-34845714D01*
X33783928Y-34774285D01*
X33712499Y-34702857D01*
X33712499Y-34131428D02*
X33712499Y-34702857D01*
X33641071Y-34774285D01*
X33569642Y-34774285D01*
X33426785Y-34702857D01*
X33355357Y-34560000D01*
X33355357Y-34202857D01*
X33498214Y-33988571D01*
X33712499Y-33845714D01*
X33998214Y-33774285D01*
X34283928Y-33845714D01*
X34498214Y-33988571D01*
X34641071Y-34202857D01*
X34712499Y-34488571D01*
X34641071Y-34774285D01*
X34498214Y-34988571D01*
X34283928Y-35131428D01*
X33998214Y-35202857D01*
X33712499Y-35131428D01*
X33498214Y-34988571D01*
X32712499Y-33988571D02*
X32712499Y-35274285D01*
X32783928Y-35417142D01*
X32926785Y-35488571D01*
X32998214Y-35488571D01*
X32712499Y-33488571D02*
X32783928Y-33560000D01*
X32712499Y-33631428D01*
X32641071Y-33560000D01*
X32712499Y-33488571D01*
X32712499Y-33631428D01*
X31998214Y-33988571D02*
X31998214Y-35488571D01*
X31998214Y-34060000D02*
X31855357Y-33988571D01*
X31569642Y-33988571D01*
X31426785Y-34060000D01*
X31355357Y-34131428D01*
X31283928Y-34274285D01*
X31283928Y-34702857D01*
X31355357Y-34845714D01*
X31426785Y-34917142D01*
X31569642Y-34988571D01*
X31855357Y-34988571D01*
X31998214Y-34917142D01*
X30712499Y-34917142D02*
X30569642Y-34988571D01*
X30283928Y-34988571D01*
X30141071Y-34917142D01*
X30069642Y-34774285D01*
X30069642Y-34702857D01*
X30141071Y-34560000D01*
X30283928Y-34488571D01*
X30498214Y-34488571D01*
X30641071Y-34417142D01*
X30712499Y-34274285D01*
X30712499Y-34202857D01*
X30641071Y-34060000D01*
X30498214Y-33988571D01*
X30283928Y-33988571D01*
X30141071Y-34060000D01*
X29426785Y-34988571D02*
X29426785Y-33488571D01*
X29283928Y-34417142D02*
X28855357Y-34988571D01*
X28855357Y-33988571D02*
X29426785Y-34560000D01*
X27641071Y-34917142D02*
X27783928Y-34988571D01*
X28069642Y-34988571D01*
X28212499Y-34917142D01*
X28283928Y-34774285D01*
X28283928Y-34202857D01*
X28212499Y-34060000D01*
X28069642Y-33988571D01*
X27783928Y-33988571D01*
X27641071Y-34060000D01*
X27569642Y-34202857D01*
X27569642Y-34345714D01*
X28283928Y-34488571D01*
X26926785Y-33988571D02*
X26926785Y-34988571D01*
X26926785Y-34131428D02*
X26855357Y-34060000D01*
X26712499Y-33988571D01*
X26498214Y-33988571D01*
X26355357Y-34060000D01*
X26283928Y-34202857D01*
X26283928Y-34988571D01*
X25569642Y-33988571D02*
X25569642Y-34988571D01*
X25569642Y-34131428D02*
X25498214Y-34060000D01*
X25355357Y-33988571D01*
X25141071Y-33988571D01*
X24998214Y-34060000D01*
X24926785Y-34202857D01*
X24926785Y-34988571D01*
D12*
%TO.C,G\u002A\u002A\u002A*%
G36*
X20819100Y-34112441D02*
G01*
X20820469Y-34311254D01*
X20821858Y-34482585D01*
X20823439Y-34628833D01*
X20825383Y-34752397D01*
X20827863Y-34855678D01*
X20831050Y-34941074D01*
X20835116Y-35010985D01*
X20840233Y-35067810D01*
X20846572Y-35113950D01*
X20854305Y-35151803D01*
X20863604Y-35183769D01*
X20874641Y-35212247D01*
X20887587Y-35239638D01*
X20901709Y-35266647D01*
X20943071Y-35334499D01*
X20988802Y-35386129D01*
X21039235Y-35426788D01*
X21130319Y-35477121D01*
X21243788Y-35514397D01*
X21374707Y-35537673D01*
X21518145Y-35546004D01*
X21638032Y-35541321D01*
X21768462Y-35518534D01*
X21879549Y-35472978D01*
X21971278Y-35404674D01*
X22043631Y-35313644D01*
X22096591Y-35199910D01*
X22130143Y-35063495D01*
X22144270Y-34904420D01*
X22144769Y-34866970D01*
X22144882Y-34766117D01*
X21696647Y-34766117D01*
X21696647Y-34879030D01*
X21690685Y-34992032D01*
X21672632Y-35078594D01*
X21642238Y-35139712D01*
X21626743Y-35157094D01*
X21597883Y-35178195D01*
X21562312Y-35188785D01*
X21509131Y-35191920D01*
X21502411Y-35191941D01*
X21429041Y-35183663D01*
X21376930Y-35156650D01*
X21341769Y-35107636D01*
X21324582Y-35057096D01*
X21320533Y-35025613D01*
X21317063Y-34965502D01*
X21314169Y-34876574D01*
X21311847Y-34758640D01*
X21310094Y-34611511D01*
X21308906Y-34435000D01*
X21308282Y-34228916D01*
X21308176Y-34087148D01*
X21308176Y-33182353D01*
X20812927Y-33182353D01*
X20819100Y-34112441D01*
G37*
X20819100Y-34112441D02*
X20820469Y-34311254D01*
X20821858Y-34482585D01*
X20823439Y-34628833D01*
X20825383Y-34752397D01*
X20827863Y-34855678D01*
X20831050Y-34941074D01*
X20835116Y-35010985D01*
X20840233Y-35067810D01*
X20846572Y-35113950D01*
X20854305Y-35151803D01*
X20863604Y-35183769D01*
X20874641Y-35212247D01*
X20887587Y-35239638D01*
X20901709Y-35266647D01*
X20943071Y-35334499D01*
X20988802Y-35386129D01*
X21039235Y-35426788D01*
X21130319Y-35477121D01*
X21243788Y-35514397D01*
X21374707Y-35537673D01*
X21518145Y-35546004D01*
X21638032Y-35541321D01*
X21768462Y-35518534D01*
X21879549Y-35472978D01*
X21971278Y-35404674D01*
X22043631Y-35313644D01*
X22096591Y-35199910D01*
X22130143Y-35063495D01*
X22144270Y-34904420D01*
X22144769Y-34866970D01*
X22144882Y-34766117D01*
X21696647Y-34766117D01*
X21696647Y-34879030D01*
X21690685Y-34992032D01*
X21672632Y-35078594D01*
X21642238Y-35139712D01*
X21626743Y-35157094D01*
X21597883Y-35178195D01*
X21562312Y-35188785D01*
X21509131Y-35191920D01*
X21502411Y-35191941D01*
X21429041Y-35183663D01*
X21376930Y-35156650D01*
X21341769Y-35107636D01*
X21324582Y-35057096D01*
X21320533Y-35025613D01*
X21317063Y-34965502D01*
X21314169Y-34876574D01*
X21311847Y-34758640D01*
X21310094Y-34611511D01*
X21308906Y-34435000D01*
X21308282Y-34228916D01*
X21308176Y-34087148D01*
X21308176Y-33182353D01*
X20812927Y-33182353D01*
X20819100Y-34112441D01*
G36*
X19470234Y-34937310D02*
G01*
X19374889Y-34946576D01*
X19294814Y-34960736D01*
X19269968Y-34967468D01*
X19148354Y-35020401D01*
X19042391Y-35097868D01*
X18953533Y-35198113D01*
X18883232Y-35319374D01*
X18832942Y-35459895D01*
X18820810Y-35511032D01*
X18803159Y-35619527D01*
X18789899Y-35751040D01*
X18781031Y-35899030D01*
X18776555Y-36056956D01*
X18776471Y-36218279D01*
X18780778Y-36376456D01*
X18789477Y-36524948D01*
X18802568Y-36657215D01*
X18820051Y-36766716D01*
X18820810Y-36770380D01*
X18864068Y-36918429D01*
X18927023Y-37044998D01*
X19009028Y-37149377D01*
X19109433Y-37230853D01*
X19227589Y-37288715D01*
X19316810Y-37314014D01*
X19384552Y-37324044D01*
X19470510Y-37330587D01*
X19564818Y-37333504D01*
X19657608Y-37332654D01*
X19739014Y-37327898D01*
X19791647Y-37320730D01*
X19923458Y-37282595D01*
X20036094Y-37224389D01*
X20130314Y-37145111D01*
X20206879Y-37043759D01*
X20266548Y-36919333D01*
X20310082Y-36770832D01*
X20337766Y-36601473D01*
X20345114Y-36513741D01*
X20350379Y-36403575D01*
X20353561Y-36278352D01*
X20354662Y-36145448D01*
X20354210Y-36083873D01*
X19871522Y-36083873D01*
X19869788Y-36226948D01*
X19867120Y-36366245D01*
X19863855Y-36479528D01*
X19859531Y-36570663D01*
X19853689Y-36643517D01*
X19845865Y-36701957D01*
X19835599Y-36749850D01*
X19822430Y-36791063D01*
X19805895Y-36829464D01*
X19795394Y-36850411D01*
X19743555Y-36920992D01*
X19675744Y-36967340D01*
X19595102Y-36988189D01*
X19504774Y-36982275D01*
X19481753Y-36976663D01*
X19414265Y-36942647D01*
X19357993Y-36881994D01*
X19314266Y-36796265D01*
X19304532Y-36768235D01*
X19289785Y-36703416D01*
X19277826Y-36613975D01*
X19268653Y-36505044D01*
X19262268Y-36381753D01*
X19258671Y-36249233D01*
X19257861Y-36112614D01*
X19259840Y-35977027D01*
X19264606Y-35847604D01*
X19272161Y-35729474D01*
X19282504Y-35627769D01*
X19295636Y-35547619D01*
X19304485Y-35513176D01*
X19343664Y-35420337D01*
X19395111Y-35353915D01*
X19459973Y-35312590D01*
X19486646Y-35303651D01*
X19575211Y-35292000D01*
X19656145Y-35304892D01*
X19724390Y-35340836D01*
X19767341Y-35386474D01*
X19795876Y-35433615D01*
X19819211Y-35485887D01*
X19837728Y-35546443D01*
X19851814Y-35618438D01*
X19861852Y-35705024D01*
X19868226Y-35809356D01*
X19871321Y-35934588D01*
X19871522Y-36083873D01*
X20354210Y-36083873D01*
X20353683Y-36012239D01*
X20350626Y-35886102D01*
X20345489Y-35774412D01*
X20338276Y-35684547D01*
X20337642Y-35678805D01*
X20309324Y-35505698D01*
X20265873Y-35357701D01*
X20206319Y-35233613D01*
X20129693Y-35132235D01*
X20035027Y-35052364D01*
X19921351Y-34992799D01*
X19787698Y-34952340D01*
X19744853Y-34943972D01*
X19665519Y-34935498D01*
X19570545Y-34933447D01*
X19470234Y-34937310D01*
G37*
X19470234Y-34937310D02*
X19374889Y-34946576D01*
X19294814Y-34960736D01*
X19269968Y-34967468D01*
X19148354Y-35020401D01*
X19042391Y-35097868D01*
X18953533Y-35198113D01*
X18883232Y-35319374D01*
X18832942Y-35459895D01*
X18820810Y-35511032D01*
X18803159Y-35619527D01*
X18789899Y-35751040D01*
X18781031Y-35899030D01*
X18776555Y-36056956D01*
X18776471Y-36218279D01*
X18780778Y-36376456D01*
X18789477Y-36524948D01*
X18802568Y-36657215D01*
X18820051Y-36766716D01*
X18820810Y-36770380D01*
X18864068Y-36918429D01*
X18927023Y-37044998D01*
X19009028Y-37149377D01*
X19109433Y-37230853D01*
X19227589Y-37288715D01*
X19316810Y-37314014D01*
X19384552Y-37324044D01*
X19470510Y-37330587D01*
X19564818Y-37333504D01*
X19657608Y-37332654D01*
X19739014Y-37327898D01*
X19791647Y-37320730D01*
X19923458Y-37282595D01*
X20036094Y-37224389D01*
X20130314Y-37145111D01*
X20206879Y-37043759D01*
X20266548Y-36919333D01*
X20310082Y-36770832D01*
X20337766Y-36601473D01*
X20345114Y-36513741D01*
X20350379Y-36403575D01*
X20353561Y-36278352D01*
X20354662Y-36145448D01*
X20354210Y-36083873D01*
X19871522Y-36083873D01*
X19869788Y-36226948D01*
X19867120Y-36366245D01*
X19863855Y-36479528D01*
X19859531Y-36570663D01*
X19853689Y-36643517D01*
X19845865Y-36701957D01*
X19835599Y-36749850D01*
X19822430Y-36791063D01*
X19805895Y-36829464D01*
X19795394Y-36850411D01*
X19743555Y-36920992D01*
X19675744Y-36967340D01*
X19595102Y-36988189D01*
X19504774Y-36982275D01*
X19481753Y-36976663D01*
X19414265Y-36942647D01*
X19357993Y-36881994D01*
X19314266Y-36796265D01*
X19304532Y-36768235D01*
X19289785Y-36703416D01*
X19277826Y-36613975D01*
X19268653Y-36505044D01*
X19262268Y-36381753D01*
X19258671Y-36249233D01*
X19257861Y-36112614D01*
X19259840Y-35977027D01*
X19264606Y-35847604D01*
X19272161Y-35729474D01*
X19282504Y-35627769D01*
X19295636Y-35547619D01*
X19304485Y-35513176D01*
X19343664Y-35420337D01*
X19395111Y-35353915D01*
X19459973Y-35312590D01*
X19486646Y-35303651D01*
X19575211Y-35292000D01*
X19656145Y-35304892D01*
X19724390Y-35340836D01*
X19767341Y-35386474D01*
X19795876Y-35433615D01*
X19819211Y-35485887D01*
X19837728Y-35546443D01*
X19851814Y-35618438D01*
X19861852Y-35705024D01*
X19868226Y-35809356D01*
X19871321Y-35934588D01*
X19871522Y-36083873D01*
X20354210Y-36083873D01*
X20353683Y-36012239D01*
X20350626Y-35886102D01*
X20345489Y-35774412D01*
X20338276Y-35684547D01*
X20337642Y-35678805D01*
X20309324Y-35505698D01*
X20265873Y-35357701D01*
X20206319Y-35233613D01*
X20129693Y-35132235D01*
X20035027Y-35052364D01*
X19921351Y-34992799D01*
X19787698Y-34952340D01*
X19744853Y-34943972D01*
X19665519Y-34935498D01*
X19570545Y-34933447D01*
X19470234Y-34937310D01*
G36*
X19511443Y-38400559D02*
G01*
X19232846Y-39181235D01*
X19232099Y-38400559D01*
X19231353Y-37619882D01*
X18798058Y-37619882D01*
X18798058Y-39951380D01*
X19068493Y-39947307D01*
X19338927Y-39943235D01*
X19902443Y-38344529D01*
X19903074Y-39147617D01*
X19903705Y-39950706D01*
X20337000Y-39950706D01*
X20337000Y-37619882D01*
X19790041Y-37619882D01*
X19511443Y-38400559D01*
G37*
X19511443Y-38400559D02*
X19232846Y-39181235D01*
X19232099Y-38400559D01*
X19231353Y-37619882D01*
X18798058Y-37619882D01*
X18798058Y-39951380D01*
X19068493Y-39947307D01*
X19338927Y-39943235D01*
X19902443Y-38344529D01*
X19903074Y-39147617D01*
X19903705Y-39950706D01*
X20337000Y-39950706D01*
X20337000Y-37619882D01*
X19790041Y-37619882D01*
X19511443Y-38400559D01*
G36*
X17169470Y-39786353D02*
G01*
X17991235Y-39786353D01*
X17991235Y-40309294D01*
X17214294Y-40309294D01*
X17214294Y-40712706D01*
X17991235Y-40712706D01*
X17991235Y-41310353D01*
X17124647Y-41310353D01*
X17124647Y-41713764D01*
X18469353Y-41713764D01*
X18469353Y-39382941D01*
X17169470Y-39382941D01*
X17169470Y-39786353D01*
G37*
X17169470Y-39786353D02*
X17991235Y-39786353D01*
X17991235Y-40309294D01*
X17214294Y-40309294D01*
X17214294Y-40712706D01*
X17991235Y-40712706D01*
X17991235Y-41310353D01*
X17124647Y-41310353D01*
X17124647Y-41713764D01*
X18469353Y-41713764D01*
X18469353Y-39382941D01*
X17169470Y-39382941D01*
X17169470Y-39786353D01*
G36*
X17653707Y-42008156D02*
G01*
X17509105Y-42039117D01*
X17384864Y-42090759D01*
X17281587Y-42162781D01*
X17199880Y-42254883D01*
X17157581Y-42327513D01*
X17137927Y-42381684D01*
X17119948Y-42455260D01*
X17105617Y-42537764D01*
X17096907Y-42618719D01*
X17095226Y-42658794D01*
X17094764Y-42699882D01*
X17554091Y-42699882D01*
X17564470Y-42621441D01*
X17585510Y-42526335D01*
X17619938Y-42450006D01*
X17665623Y-42396776D01*
X17680189Y-42386572D01*
X17744282Y-42362265D01*
X17817785Y-42357183D01*
X17892487Y-42369469D01*
X17960177Y-42397266D01*
X18012643Y-42438715D01*
X18031736Y-42466089D01*
X18051904Y-42529177D01*
X18057923Y-42606432D01*
X18050191Y-42685914D01*
X18029103Y-42755688D01*
X18021619Y-42770523D01*
X18000755Y-42800452D01*
X17970779Y-42829705D01*
X17928524Y-42860115D01*
X17870828Y-42893515D01*
X17794525Y-42931742D01*
X17696451Y-42976629D01*
X17575532Y-43029119D01*
X17431010Y-43095256D01*
X17313434Y-43159812D01*
X17220165Y-43225406D01*
X17148566Y-43294658D01*
X17095997Y-43370189D01*
X17059818Y-43454617D01*
X17037392Y-43550562D01*
X17035121Y-43565614D01*
X17026721Y-43687222D01*
X17033953Y-43811676D01*
X17055422Y-43931270D01*
X17089736Y-44038293D01*
X17135498Y-44125037D01*
X17136580Y-44126597D01*
X17211933Y-44209584D01*
X17310870Y-44279041D01*
X17429837Y-44333948D01*
X17565280Y-44373287D01*
X17713647Y-44396038D01*
X17871384Y-44401183D01*
X18034938Y-44387701D01*
X18042995Y-44386550D01*
X18184773Y-44354054D01*
X18304758Y-44301128D01*
X18402835Y-44227909D01*
X18478891Y-44134536D01*
X18532809Y-44021147D01*
X18564476Y-43887878D01*
X18573857Y-43749500D01*
X18573941Y-43626235D01*
X18100252Y-43626235D01*
X18090861Y-43748021D01*
X18081652Y-43823258D01*
X18067421Y-43887232D01*
X18053778Y-43923580D01*
X18008296Y-43981626D01*
X17944891Y-44021908D01*
X17869865Y-44044162D01*
X17789515Y-44048124D01*
X17710143Y-44033530D01*
X17638046Y-44000117D01*
X17579526Y-43947619D01*
X17576368Y-43943574D01*
X17543917Y-43879135D01*
X17529051Y-43799979D01*
X17532461Y-43716039D01*
X17554836Y-43637246D01*
X17555034Y-43636797D01*
X17580627Y-43591159D01*
X17616608Y-43550672D01*
X17666936Y-43512676D01*
X17735572Y-43474513D01*
X17826475Y-43433523D01*
X17904569Y-43402078D01*
X17984999Y-43369951D01*
X18064341Y-43336894D01*
X18133913Y-43306608D01*
X18185032Y-43282793D01*
X18188641Y-43280987D01*
X18273292Y-43229237D01*
X18354292Y-43163615D01*
X18422687Y-43092125D01*
X18462032Y-43036573D01*
X18508423Y-42929440D01*
X18535284Y-42804310D01*
X18542082Y-42666255D01*
X18528283Y-42520344D01*
X18520676Y-42478870D01*
X18481261Y-42349944D01*
X18419552Y-42240783D01*
X18335837Y-42151586D01*
X18230405Y-42082551D01*
X18103547Y-42033876D01*
X17955552Y-42005758D01*
X17818066Y-41998179D01*
X17653707Y-42008156D01*
G37*
X17653707Y-42008156D02*
X17509105Y-42039117D01*
X17384864Y-42090759D01*
X17281587Y-42162781D01*
X17199880Y-42254883D01*
X17157581Y-42327513D01*
X17137927Y-42381684D01*
X17119948Y-42455260D01*
X17105617Y-42537764D01*
X17096907Y-42618719D01*
X17095226Y-42658794D01*
X17094764Y-42699882D01*
X17554091Y-42699882D01*
X17564470Y-42621441D01*
X17585510Y-42526335D01*
X17619938Y-42450006D01*
X17665623Y-42396776D01*
X17680189Y-42386572D01*
X17744282Y-42362265D01*
X17817785Y-42357183D01*
X17892487Y-42369469D01*
X17960177Y-42397266D01*
X18012643Y-42438715D01*
X18031736Y-42466089D01*
X18051904Y-42529177D01*
X18057923Y-42606432D01*
X18050191Y-42685914D01*
X18029103Y-42755688D01*
X18021619Y-42770523D01*
X18000755Y-42800452D01*
X17970779Y-42829705D01*
X17928524Y-42860115D01*
X17870828Y-42893515D01*
X17794525Y-42931742D01*
X17696451Y-42976629D01*
X17575532Y-43029119D01*
X17431010Y-43095256D01*
X17313434Y-43159812D01*
X17220165Y-43225406D01*
X17148566Y-43294658D01*
X17095997Y-43370189D01*
X17059818Y-43454617D01*
X17037392Y-43550562D01*
X17035121Y-43565614D01*
X17026721Y-43687222D01*
X17033953Y-43811676D01*
X17055422Y-43931270D01*
X17089736Y-44038293D01*
X17135498Y-44125037D01*
X17136580Y-44126597D01*
X17211933Y-44209584D01*
X17310870Y-44279041D01*
X17429837Y-44333948D01*
X17565280Y-44373287D01*
X17713647Y-44396038D01*
X17871384Y-44401183D01*
X18034938Y-44387701D01*
X18042995Y-44386550D01*
X18184773Y-44354054D01*
X18304758Y-44301128D01*
X18402835Y-44227909D01*
X18478891Y-44134536D01*
X18532809Y-44021147D01*
X18564476Y-43887878D01*
X18573857Y-43749500D01*
X18573941Y-43626235D01*
X18100252Y-43626235D01*
X18090861Y-43748021D01*
X18081652Y-43823258D01*
X18067421Y-43887232D01*
X18053778Y-43923580D01*
X18008296Y-43981626D01*
X17944891Y-44021908D01*
X17869865Y-44044162D01*
X17789515Y-44048124D01*
X17710143Y-44033530D01*
X17638046Y-44000117D01*
X17579526Y-43947619D01*
X17576368Y-43943574D01*
X17543917Y-43879135D01*
X17529051Y-43799979D01*
X17532461Y-43716039D01*
X17554836Y-43637246D01*
X17555034Y-43636797D01*
X17580627Y-43591159D01*
X17616608Y-43550672D01*
X17666936Y-43512676D01*
X17735572Y-43474513D01*
X17826475Y-43433523D01*
X17904569Y-43402078D01*
X17984999Y-43369951D01*
X18064341Y-43336894D01*
X18133913Y-43306608D01*
X18185032Y-43282793D01*
X18188641Y-43280987D01*
X18273292Y-43229237D01*
X18354292Y-43163615D01*
X18422687Y-43092125D01*
X18462032Y-43036573D01*
X18508423Y-42929440D01*
X18535284Y-42804310D01*
X18542082Y-42666255D01*
X18528283Y-42520344D01*
X18520676Y-42478870D01*
X18481261Y-42349944D01*
X18419552Y-42240783D01*
X18335837Y-42151586D01*
X18230405Y-42082551D01*
X18103547Y-42033876D01*
X17955552Y-42005758D01*
X17818066Y-41998179D01*
X17653707Y-42008156D01*
G36*
X21771555Y-32407217D02*
G01*
X21549516Y-32407708D01*
X21299598Y-32408409D01*
X21270823Y-32408495D01*
X19806588Y-32412882D01*
X19720726Y-32447555D01*
X19614558Y-32505978D01*
X19523221Y-32587262D01*
X19450541Y-32686489D01*
X19400345Y-32798738D01*
X19380181Y-32885491D01*
X19377110Y-32921609D01*
X19374263Y-32983723D01*
X19371719Y-33067945D01*
X19369556Y-33170388D01*
X19367854Y-33287167D01*
X19366692Y-33414395D01*
X19366150Y-33548184D01*
X19366124Y-33574559D01*
X19365823Y-34168470D01*
X18771911Y-34168771D01*
X18637300Y-34169183D01*
X18508496Y-34170231D01*
X18389388Y-34171835D01*
X18283860Y-34173914D01*
X18195801Y-34176391D01*
X18129096Y-34179186D01*
X18087633Y-34182219D01*
X18082844Y-34182828D01*
X17964230Y-34214326D01*
X17855070Y-34271082D01*
X17760283Y-34349270D01*
X17684790Y-34445063D01*
X17644907Y-34523373D01*
X17610235Y-34609235D01*
X17602131Y-38589909D01*
X16926359Y-38594219D01*
X16766633Y-38595269D01*
X16633938Y-38596296D01*
X16525425Y-38597443D01*
X16438244Y-38598857D01*
X16369544Y-38600683D01*
X16316475Y-38603067D01*
X16276187Y-38606153D01*
X16245831Y-38610087D01*
X16222555Y-38615014D01*
X16203510Y-38621080D01*
X16185846Y-38628430D01*
X16177072Y-38632432D01*
X16070446Y-38695751D01*
X15980090Y-38777929D01*
X15931804Y-38841238D01*
X15920809Y-38857747D01*
X15910716Y-38872412D01*
X15901489Y-38886515D01*
X15893091Y-38901337D01*
X15885484Y-38918158D01*
X15878633Y-38938259D01*
X15872500Y-38962922D01*
X15867048Y-38993427D01*
X15862240Y-39031055D01*
X15858040Y-39077088D01*
X15854411Y-39132805D01*
X15851315Y-39199488D01*
X15848716Y-39278417D01*
X15846578Y-39370875D01*
X15844862Y-39478140D01*
X15843532Y-39601496D01*
X15842552Y-39742221D01*
X15841885Y-39901598D01*
X15841492Y-40080907D01*
X15841339Y-40281428D01*
X15841387Y-40504444D01*
X15841601Y-40751234D01*
X15841942Y-41023081D01*
X15842375Y-41321263D01*
X15842862Y-41647063D01*
X15843250Y-41916897D01*
X15847176Y-44739988D01*
X15896095Y-44839353D01*
X15959118Y-44938802D01*
X16041765Y-45026232D01*
X16136754Y-45094723D01*
X16194608Y-45123033D01*
X16280470Y-45157706D01*
X17752176Y-45159959D01*
X17960897Y-45160156D01*
X18162207Y-45160107D01*
X18353959Y-45159825D01*
X18534008Y-45159325D01*
X18700207Y-45158621D01*
X18850411Y-45157725D01*
X18982471Y-45156653D01*
X19094244Y-45155417D01*
X19183581Y-45154032D01*
X19248338Y-45152511D01*
X19286367Y-45150868D01*
X19294397Y-45150057D01*
X19412399Y-45115434D01*
X19520589Y-45055987D01*
X19613680Y-44975697D01*
X19686385Y-44878545D01*
X19706927Y-44839406D01*
X19746823Y-44754294D01*
X19750718Y-42748441D01*
X19754614Y-40742588D01*
X20401683Y-40742588D01*
X20569579Y-40742479D01*
X20710557Y-40741934D01*
X20827585Y-40740623D01*
X20923627Y-40738216D01*
X21001649Y-40734386D01*
X21064616Y-40728802D01*
X21115495Y-40721135D01*
X21157250Y-40711056D01*
X21192846Y-40698236D01*
X21225251Y-40682345D01*
X21257428Y-40663055D01*
X21285764Y-40644443D01*
X21369043Y-40576582D01*
X21434454Y-40494025D01*
X21486599Y-40392414D01*
X21524823Y-40301823D01*
X21533031Y-36336891D01*
X22193809Y-36331872D01*
X22351729Y-36330635D01*
X22482705Y-36329438D01*
X22589678Y-36328128D01*
X22675585Y-36326550D01*
X22743365Y-36324550D01*
X22795957Y-36321974D01*
X22836299Y-36318669D01*
X22867332Y-36314479D01*
X22891992Y-36309250D01*
X22913220Y-36302829D01*
X22933953Y-36295061D01*
X22939777Y-36292741D01*
X23025302Y-36246844D01*
X23109129Y-36181542D01*
X23180758Y-36105867D01*
X23215878Y-36055267D01*
X23228576Y-36033436D01*
X23239835Y-36012605D01*
X23249742Y-35990931D01*
X23258383Y-35966574D01*
X23265846Y-35937690D01*
X23272217Y-35902439D01*
X23277584Y-35858977D01*
X23282032Y-35805464D01*
X23285649Y-35740057D01*
X23288522Y-35660914D01*
X23290737Y-35566194D01*
X23292382Y-35454054D01*
X23293542Y-35322652D01*
X23294306Y-35170146D01*
X23294760Y-34994695D01*
X23294991Y-34794457D01*
X23295085Y-34567589D01*
X23295119Y-34374647D01*
X23295138Y-34126684D01*
X23295110Y-34046221D01*
X22906905Y-34046221D01*
X22906863Y-34280851D01*
X22906859Y-34366921D01*
X22906874Y-34610677D01*
X22906848Y-34826336D01*
X22906683Y-35015684D01*
X22906281Y-35180505D01*
X22905547Y-35322586D01*
X22904383Y-35443712D01*
X22902691Y-35545667D01*
X22900376Y-35630239D01*
X22897339Y-35699210D01*
X22893484Y-35754369D01*
X22888713Y-35797498D01*
X22882931Y-35830385D01*
X22876039Y-35854814D01*
X22867940Y-35872571D01*
X22858539Y-35885441D01*
X22847736Y-35895210D01*
X22835437Y-35903663D01*
X22822900Y-35911690D01*
X22811838Y-35917842D01*
X22797268Y-35923053D01*
X22776654Y-35927434D01*
X22747458Y-35931095D01*
X22707143Y-35934145D01*
X22653172Y-35936694D01*
X22583007Y-35938852D01*
X22494112Y-35940728D01*
X22383948Y-35942433D01*
X22249979Y-35944076D01*
X22089667Y-35945766D01*
X22018564Y-35946470D01*
X21836516Y-35948432D01*
X21682396Y-35950510D01*
X21554248Y-35952767D01*
X21450119Y-35955271D01*
X21368054Y-35958085D01*
X21306097Y-35961275D01*
X21262294Y-35964907D01*
X21234691Y-35969046D01*
X21222419Y-35973060D01*
X21211491Y-35978830D01*
X21201623Y-35984009D01*
X21192762Y-35990075D01*
X21184853Y-35998505D01*
X21177842Y-36010775D01*
X21171676Y-36028362D01*
X21166299Y-36052742D01*
X21161659Y-36085394D01*
X21157701Y-36127793D01*
X21154371Y-36181416D01*
X21151615Y-36247741D01*
X21149379Y-36328243D01*
X21147609Y-36424400D01*
X21146251Y-36537689D01*
X21145251Y-36669586D01*
X21144554Y-36821568D01*
X21144108Y-36995112D01*
X21143857Y-37191695D01*
X21143748Y-37412794D01*
X21143727Y-37659885D01*
X21143739Y-37934445D01*
X21143740Y-38123405D01*
X21143617Y-38437469D01*
X21143278Y-38728171D01*
X21142727Y-38994921D01*
X21141968Y-39237126D01*
X21141006Y-39454199D01*
X21139844Y-39645547D01*
X21138487Y-39810580D01*
X21136939Y-39948709D01*
X21135205Y-40059342D01*
X21133287Y-40141890D01*
X21131192Y-40195762D01*
X21128922Y-40220368D01*
X21128821Y-40220756D01*
X21107498Y-40268307D01*
X21076484Y-40309392D01*
X21075423Y-40310403D01*
X21036861Y-40346647D01*
X20264842Y-40354117D01*
X20088885Y-40355805D01*
X19940326Y-40357365D01*
X19816680Y-40359073D01*
X19715464Y-40361205D01*
X19634197Y-40364036D01*
X19570394Y-40367843D01*
X19521573Y-40372900D01*
X19485251Y-40379484D01*
X19458944Y-40387870D01*
X19440171Y-40398333D01*
X19426447Y-40411151D01*
X19415291Y-40426597D01*
X19404218Y-40444948D01*
X19401181Y-40450007D01*
X19397283Y-40457332D01*
X19393755Y-40466787D01*
X19390572Y-40479861D01*
X19387710Y-40498045D01*
X19385144Y-40522827D01*
X19382850Y-40555698D01*
X19380803Y-40598147D01*
X19378977Y-40651665D01*
X19377349Y-40717740D01*
X19375894Y-40797863D01*
X19374587Y-40893524D01*
X19373403Y-41006212D01*
X19372318Y-41137416D01*
X19371306Y-41288627D01*
X19370344Y-41461335D01*
X19369407Y-41657029D01*
X19368470Y-41877199D01*
X19367508Y-42123334D01*
X19366496Y-42396925D01*
X19365823Y-42583751D01*
X19358353Y-44671444D01*
X19319161Y-44710633D01*
X19277580Y-44741335D01*
X19231099Y-44761525D01*
X19229514Y-44761919D01*
X19207532Y-44763637D01*
X19157825Y-44765232D01*
X19082550Y-44766690D01*
X18983863Y-44767997D01*
X18863921Y-44769138D01*
X18724882Y-44770099D01*
X18568902Y-44770866D01*
X18398137Y-44771425D01*
X18214746Y-44771760D01*
X18020885Y-44771859D01*
X17818710Y-44771705D01*
X17767117Y-44771626D01*
X17521376Y-44771139D01*
X17303918Y-44770544D01*
X17113144Y-44769816D01*
X16947456Y-44768931D01*
X16805254Y-44767865D01*
X16684940Y-44766593D01*
X16584915Y-44765091D01*
X16503579Y-44763335D01*
X16439334Y-44761300D01*
X16390581Y-44758963D01*
X16355721Y-44756297D01*
X16333155Y-44753281D01*
X16321284Y-44749888D01*
X16320759Y-44749605D01*
X16289377Y-44723283D01*
X16259392Y-44685690D01*
X16257315Y-44682370D01*
X16253766Y-44676036D01*
X16250518Y-44668323D01*
X16247559Y-44657939D01*
X16244875Y-44643592D01*
X16242452Y-44623987D01*
X16240276Y-44597834D01*
X16238336Y-44563839D01*
X16236616Y-44520711D01*
X16235104Y-44467155D01*
X16233787Y-44401881D01*
X16232650Y-44323595D01*
X16231681Y-44231004D01*
X16230865Y-44122817D01*
X16230191Y-43997741D01*
X16229643Y-43854483D01*
X16229209Y-43691751D01*
X16228876Y-43508252D01*
X16228630Y-43302694D01*
X16228457Y-43073783D01*
X16228344Y-42820229D01*
X16228278Y-42540737D01*
X16228245Y-42234016D01*
X16228232Y-41898773D01*
X16228232Y-41880375D01*
X16228243Y-41541116D01*
X16228297Y-41230470D01*
X16228406Y-40947167D01*
X16228580Y-40689938D01*
X16228829Y-40457514D01*
X16229163Y-40248625D01*
X16229595Y-40062002D01*
X16230134Y-39896375D01*
X16230791Y-39750475D01*
X16231577Y-39623032D01*
X16232502Y-39512778D01*
X16233577Y-39418442D01*
X16234812Y-39338755D01*
X16236219Y-39272448D01*
X16237808Y-39218251D01*
X16239589Y-39174895D01*
X16241573Y-39141111D01*
X16243771Y-39115628D01*
X16246194Y-39097178D01*
X16248851Y-39084491D01*
X16251742Y-39076324D01*
X16261991Y-39055365D01*
X16272849Y-39037673D01*
X16286782Y-39022971D01*
X16306254Y-39010984D01*
X16333732Y-39001433D01*
X16371679Y-38994042D01*
X16422560Y-38988535D01*
X16488841Y-38984633D01*
X16572986Y-38982061D01*
X16677461Y-38980541D01*
X16804730Y-38979797D01*
X16957258Y-38979552D01*
X17113489Y-38979529D01*
X17852345Y-38979529D01*
X17902896Y-38945463D01*
X17940756Y-38913919D01*
X17968977Y-38880046D01*
X17972121Y-38874492D01*
X17974867Y-38863177D01*
X17977358Y-38839774D01*
X17979604Y-38803038D01*
X17981618Y-38751722D01*
X17983412Y-38684579D01*
X17984997Y-38600362D01*
X17986385Y-38497824D01*
X17987588Y-38375719D01*
X17988617Y-38232799D01*
X17989485Y-38067817D01*
X17990203Y-37879528D01*
X17990782Y-37666683D01*
X17991236Y-37428036D01*
X17991574Y-37162341D01*
X17991810Y-36868350D01*
X17991858Y-36783176D01*
X17992082Y-36475177D01*
X17992427Y-36195943D01*
X17992902Y-35944359D01*
X17993517Y-35719306D01*
X17994284Y-35519670D01*
X17995210Y-35344332D01*
X17996308Y-35192177D01*
X17997586Y-35062088D01*
X17999055Y-34952948D01*
X18000724Y-34863641D01*
X18002605Y-34793050D01*
X18004706Y-34740058D01*
X18007038Y-34703549D01*
X18009610Y-34682407D01*
X18010755Y-34677870D01*
X18035559Y-34632977D01*
X18070374Y-34595973D01*
X18070749Y-34595693D01*
X18080862Y-34588746D01*
X18092594Y-34582879D01*
X18108475Y-34577972D01*
X18131030Y-34573906D01*
X18162788Y-34570560D01*
X18206276Y-34567816D01*
X18264022Y-34565553D01*
X18338553Y-34563651D01*
X18432396Y-34561991D01*
X18548079Y-34560453D01*
X18688130Y-34558917D01*
X18855076Y-34557263D01*
X18888457Y-34556941D01*
X19664005Y-34549470D01*
X19746823Y-34466652D01*
X19754294Y-33693082D01*
X19756020Y-33520374D01*
X19757656Y-33375029D01*
X19759307Y-33254531D01*
X19761082Y-33156362D01*
X19763088Y-33078005D01*
X19765433Y-33016941D01*
X19768223Y-32970653D01*
X19771566Y-32936623D01*
X19775570Y-32912334D01*
X19780342Y-32895269D01*
X19785989Y-32882909D01*
X19789074Y-32877861D01*
X19797877Y-32864120D01*
X19806377Y-32851963D01*
X19816359Y-32841295D01*
X19829607Y-32832019D01*
X19847908Y-32824036D01*
X19873047Y-32817251D01*
X19906808Y-32811567D01*
X19950978Y-32806886D01*
X20007342Y-32803111D01*
X20077686Y-32800145D01*
X20163794Y-32797891D01*
X20267452Y-32796253D01*
X20390446Y-32795132D01*
X20534560Y-32794433D01*
X20701581Y-32794057D01*
X20893294Y-32793909D01*
X21111483Y-32793891D01*
X21333843Y-32793905D01*
X21572225Y-32793937D01*
X21782553Y-32794045D01*
X21966657Y-32794261D01*
X22126365Y-32794620D01*
X22263505Y-32795152D01*
X22379908Y-32795891D01*
X22477401Y-32796870D01*
X22557813Y-32798120D01*
X22622973Y-32799674D01*
X22674711Y-32801566D01*
X22714855Y-32803826D01*
X22745233Y-32806489D01*
X22767674Y-32809587D01*
X22784008Y-32813151D01*
X22796063Y-32817216D01*
X22802294Y-32820052D01*
X22819386Y-32828086D01*
X22834512Y-32835269D01*
X22847791Y-32843373D01*
X22859343Y-32854173D01*
X22869289Y-32869438D01*
X22877747Y-32890944D01*
X22884838Y-32920461D01*
X22890682Y-32959762D01*
X22895398Y-33010620D01*
X22899105Y-33074807D01*
X22901925Y-33154095D01*
X22903977Y-33250258D01*
X22905380Y-33365068D01*
X22906255Y-33500296D01*
X22906720Y-33657716D01*
X22906897Y-33839100D01*
X22906905Y-34046221D01*
X23295110Y-34046221D01*
X23295061Y-33906751D01*
X23294812Y-33712995D01*
X23294318Y-33543563D01*
X23293503Y-33396603D01*
X23292293Y-33270261D01*
X23290613Y-33162685D01*
X23288388Y-33072023D01*
X23285543Y-32996422D01*
X23282005Y-32934028D01*
X23277698Y-32882990D01*
X23272547Y-32841454D01*
X23266478Y-32807568D01*
X23259416Y-32779479D01*
X23251286Y-32755335D01*
X23242014Y-32733282D01*
X23231525Y-32711468D01*
X23227750Y-32703939D01*
X23186914Y-32641993D01*
X23128182Y-32576603D01*
X23060805Y-32516818D01*
X22994034Y-32471685D01*
X22985915Y-32467384D01*
X22965135Y-32457262D01*
X22943591Y-32448281D01*
X22919477Y-32440381D01*
X22890983Y-32433498D01*
X22856303Y-32427571D01*
X22813629Y-32422538D01*
X22761153Y-32418337D01*
X22697067Y-32414905D01*
X22619565Y-32412181D01*
X22526837Y-32410102D01*
X22417077Y-32408607D01*
X22288476Y-32407633D01*
X22139227Y-32407118D01*
X21967523Y-32407000D01*
X21771555Y-32407217D01*
G37*
X21771555Y-32407217D02*
X21549516Y-32407708D01*
X21299598Y-32408409D01*
X21270823Y-32408495D01*
X19806588Y-32412882D01*
X19720726Y-32447555D01*
X19614558Y-32505978D01*
X19523221Y-32587262D01*
X19450541Y-32686489D01*
X19400345Y-32798738D01*
X19380181Y-32885491D01*
X19377110Y-32921609D01*
X19374263Y-32983723D01*
X19371719Y-33067945D01*
X19369556Y-33170388D01*
X19367854Y-33287167D01*
X19366692Y-33414395D01*
X19366150Y-33548184D01*
X19366124Y-33574559D01*
X19365823Y-34168470D01*
X18771911Y-34168771D01*
X18637300Y-34169183D01*
X18508496Y-34170231D01*
X18389388Y-34171835D01*
X18283860Y-34173914D01*
X18195801Y-34176391D01*
X18129096Y-34179186D01*
X18087633Y-34182219D01*
X18082844Y-34182828D01*
X17964230Y-34214326D01*
X17855070Y-34271082D01*
X17760283Y-34349270D01*
X17684790Y-34445063D01*
X17644907Y-34523373D01*
X17610235Y-34609235D01*
X17602131Y-38589909D01*
X16926359Y-38594219D01*
X16766633Y-38595269D01*
X16633938Y-38596296D01*
X16525425Y-38597443D01*
X16438244Y-38598857D01*
X16369544Y-38600683D01*
X16316475Y-38603067D01*
X16276187Y-38606153D01*
X16245831Y-38610087D01*
X16222555Y-38615014D01*
X16203510Y-38621080D01*
X16185846Y-38628430D01*
X16177072Y-38632432D01*
X16070446Y-38695751D01*
X15980090Y-38777929D01*
X15931804Y-38841238D01*
X15920809Y-38857747D01*
X15910716Y-38872412D01*
X15901489Y-38886515D01*
X15893091Y-38901337D01*
X15885484Y-38918158D01*
X15878633Y-38938259D01*
X15872500Y-38962922D01*
X15867048Y-38993427D01*
X15862240Y-39031055D01*
X15858040Y-39077088D01*
X15854411Y-39132805D01*
X15851315Y-39199488D01*
X15848716Y-39278417D01*
X15846578Y-39370875D01*
X15844862Y-39478140D01*
X15843532Y-39601496D01*
X15842552Y-39742221D01*
X15841885Y-39901598D01*
X15841492Y-40080907D01*
X15841339Y-40281428D01*
X15841387Y-40504444D01*
X15841601Y-40751234D01*
X15841942Y-41023081D01*
X15842375Y-41321263D01*
X15842862Y-41647063D01*
X15843250Y-41916897D01*
X15847176Y-44739988D01*
X15896095Y-44839353D01*
X15959118Y-44938802D01*
X16041765Y-45026232D01*
X16136754Y-45094723D01*
X16194608Y-45123033D01*
X16280470Y-45157706D01*
X17752176Y-45159959D01*
X17960897Y-45160156D01*
X18162207Y-45160107D01*
X18353959Y-45159825D01*
X18534008Y-45159325D01*
X18700207Y-45158621D01*
X18850411Y-45157725D01*
X18982471Y-45156653D01*
X19094244Y-45155417D01*
X19183581Y-45154032D01*
X19248338Y-45152511D01*
X19286367Y-45150868D01*
X19294397Y-45150057D01*
X19412399Y-45115434D01*
X19520589Y-45055987D01*
X19613680Y-44975697D01*
X19686385Y-44878545D01*
X19706927Y-44839406D01*
X19746823Y-44754294D01*
X19750718Y-42748441D01*
X19754614Y-40742588D01*
X20401683Y-40742588D01*
X20569579Y-40742479D01*
X20710557Y-40741934D01*
X20827585Y-40740623D01*
X20923627Y-40738216D01*
X21001649Y-40734386D01*
X21064616Y-40728802D01*
X21115495Y-40721135D01*
X21157250Y-40711056D01*
X21192846Y-40698236D01*
X21225251Y-40682345D01*
X21257428Y-40663055D01*
X21285764Y-40644443D01*
X21369043Y-40576582D01*
X21434454Y-40494025D01*
X21486599Y-40392414D01*
X21524823Y-40301823D01*
X21533031Y-36336891D01*
X22193809Y-36331872D01*
X22351729Y-36330635D01*
X22482705Y-36329438D01*
X22589678Y-36328128D01*
X22675585Y-36326550D01*
X22743365Y-36324550D01*
X22795957Y-36321974D01*
X22836299Y-36318669D01*
X22867332Y-36314479D01*
X22891992Y-36309250D01*
X22913220Y-36302829D01*
X22933953Y-36295061D01*
X22939777Y-36292741D01*
X23025302Y-36246844D01*
X23109129Y-36181542D01*
X23180758Y-36105867D01*
X23215878Y-36055267D01*
X23228576Y-36033436D01*
X23239835Y-36012605D01*
X23249742Y-35990931D01*
X23258383Y-35966574D01*
X23265846Y-35937690D01*
X23272217Y-35902439D01*
X23277584Y-35858977D01*
X23282032Y-35805464D01*
X23285649Y-35740057D01*
X23288522Y-35660914D01*
X23290737Y-35566194D01*
X23292382Y-35454054D01*
X23293542Y-35322652D01*
X23294306Y-35170146D01*
X23294760Y-34994695D01*
X23294991Y-34794457D01*
X23295085Y-34567589D01*
X23295119Y-34374647D01*
X23295138Y-34126684D01*
X23295110Y-34046221D01*
X22906905Y-34046221D01*
X22906863Y-34280851D01*
X22906859Y-34366921D01*
X22906874Y-34610677D01*
X22906848Y-34826336D01*
X22906683Y-35015684D01*
X22906281Y-35180505D01*
X22905547Y-35322586D01*
X22904383Y-35443712D01*
X22902691Y-35545667D01*
X22900376Y-35630239D01*
X22897339Y-35699210D01*
X22893484Y-35754369D01*
X22888713Y-35797498D01*
X22882931Y-35830385D01*
X22876039Y-35854814D01*
X22867940Y-35872571D01*
X22858539Y-35885441D01*
X22847736Y-35895210D01*
X22835437Y-35903663D01*
X22822900Y-35911690D01*
X22811838Y-35917842D01*
X22797268Y-35923053D01*
X22776654Y-35927434D01*
X22747458Y-35931095D01*
X22707143Y-35934145D01*
X22653172Y-35936694D01*
X22583007Y-35938852D01*
X22494112Y-35940728D01*
X22383948Y-35942433D01*
X22249979Y-35944076D01*
X22089667Y-35945766D01*
X22018564Y-35946470D01*
X21836516Y-35948432D01*
X21682396Y-35950510D01*
X21554248Y-35952767D01*
X21450119Y-35955271D01*
X21368054Y-35958085D01*
X21306097Y-35961275D01*
X21262294Y-35964907D01*
X21234691Y-35969046D01*
X21222419Y-35973060D01*
X21211491Y-35978830D01*
X21201623Y-35984009D01*
X21192762Y-35990075D01*
X21184853Y-35998505D01*
X21177842Y-36010775D01*
X21171676Y-36028362D01*
X21166299Y-36052742D01*
X21161659Y-36085394D01*
X21157701Y-36127793D01*
X21154371Y-36181416D01*
X21151615Y-36247741D01*
X21149379Y-36328243D01*
X21147609Y-36424400D01*
X21146251Y-36537689D01*
X21145251Y-36669586D01*
X21144554Y-36821568D01*
X21144108Y-36995112D01*
X21143857Y-37191695D01*
X21143748Y-37412794D01*
X21143727Y-37659885D01*
X21143739Y-37934445D01*
X21143740Y-38123405D01*
X21143617Y-38437469D01*
X21143278Y-38728171D01*
X21142727Y-38994921D01*
X21141968Y-39237126D01*
X21141006Y-39454199D01*
X21139844Y-39645547D01*
X21138487Y-39810580D01*
X21136939Y-39948709D01*
X21135205Y-40059342D01*
X21133287Y-40141890D01*
X21131192Y-40195762D01*
X21128922Y-40220368D01*
X21128821Y-40220756D01*
X21107498Y-40268307D01*
X21076484Y-40309392D01*
X21075423Y-40310403D01*
X21036861Y-40346647D01*
X20264842Y-40354117D01*
X20088885Y-40355805D01*
X19940326Y-40357365D01*
X19816680Y-40359073D01*
X19715464Y-40361205D01*
X19634197Y-40364036D01*
X19570394Y-40367843D01*
X19521573Y-40372900D01*
X19485251Y-40379484D01*
X19458944Y-40387870D01*
X19440171Y-40398333D01*
X19426447Y-40411151D01*
X19415291Y-40426597D01*
X19404218Y-40444948D01*
X19401181Y-40450007D01*
X19397283Y-40457332D01*
X19393755Y-40466787D01*
X19390572Y-40479861D01*
X19387710Y-40498045D01*
X19385144Y-40522827D01*
X19382850Y-40555698D01*
X19380803Y-40598147D01*
X19378977Y-40651665D01*
X19377349Y-40717740D01*
X19375894Y-40797863D01*
X19374587Y-40893524D01*
X19373403Y-41006212D01*
X19372318Y-41137416D01*
X19371306Y-41288627D01*
X19370344Y-41461335D01*
X19369407Y-41657029D01*
X19368470Y-41877199D01*
X19367508Y-42123334D01*
X19366496Y-42396925D01*
X19365823Y-42583751D01*
X19358353Y-44671444D01*
X19319161Y-44710633D01*
X19277580Y-44741335D01*
X19231099Y-44761525D01*
X19229514Y-44761919D01*
X19207532Y-44763637D01*
X19157825Y-44765232D01*
X19082550Y-44766690D01*
X18983863Y-44767997D01*
X18863921Y-44769138D01*
X18724882Y-44770099D01*
X18568902Y-44770866D01*
X18398137Y-44771425D01*
X18214746Y-44771760D01*
X18020885Y-44771859D01*
X17818710Y-44771705D01*
X17767117Y-44771626D01*
X17521376Y-44771139D01*
X17303918Y-44770544D01*
X17113144Y-44769816D01*
X16947456Y-44768931D01*
X16805254Y-44767865D01*
X16684940Y-44766593D01*
X16584915Y-44765091D01*
X16503579Y-44763335D01*
X16439334Y-44761300D01*
X16390581Y-44758963D01*
X16355721Y-44756297D01*
X16333155Y-44753281D01*
X16321284Y-44749888D01*
X16320759Y-44749605D01*
X16289377Y-44723283D01*
X16259392Y-44685690D01*
X16257315Y-44682370D01*
X16253766Y-44676036D01*
X16250518Y-44668323D01*
X16247559Y-44657939D01*
X16244875Y-44643592D01*
X16242452Y-44623987D01*
X16240276Y-44597834D01*
X16238336Y-44563839D01*
X16236616Y-44520711D01*
X16235104Y-44467155D01*
X16233787Y-44401881D01*
X16232650Y-44323595D01*
X16231681Y-44231004D01*
X16230865Y-44122817D01*
X16230191Y-43997741D01*
X16229643Y-43854483D01*
X16229209Y-43691751D01*
X16228876Y-43508252D01*
X16228630Y-43302694D01*
X16228457Y-43073783D01*
X16228344Y-42820229D01*
X16228278Y-42540737D01*
X16228245Y-42234016D01*
X16228232Y-41898773D01*
X16228232Y-41880375D01*
X16228243Y-41541116D01*
X16228297Y-41230470D01*
X16228406Y-40947167D01*
X16228580Y-40689938D01*
X16228829Y-40457514D01*
X16229163Y-40248625D01*
X16229595Y-40062002D01*
X16230134Y-39896375D01*
X16230791Y-39750475D01*
X16231577Y-39623032D01*
X16232502Y-39512778D01*
X16233577Y-39418442D01*
X16234812Y-39338755D01*
X16236219Y-39272448D01*
X16237808Y-39218251D01*
X16239589Y-39174895D01*
X16241573Y-39141111D01*
X16243771Y-39115628D01*
X16246194Y-39097178D01*
X16248851Y-39084491D01*
X16251742Y-39076324D01*
X16261991Y-39055365D01*
X16272849Y-39037673D01*
X16286782Y-39022971D01*
X16306254Y-39010984D01*
X16333732Y-39001433D01*
X16371679Y-38994042D01*
X16422560Y-38988535D01*
X16488841Y-38984633D01*
X16572986Y-38982061D01*
X16677461Y-38980541D01*
X16804730Y-38979797D01*
X16957258Y-38979552D01*
X17113489Y-38979529D01*
X17852345Y-38979529D01*
X17902896Y-38945463D01*
X17940756Y-38913919D01*
X17968977Y-38880046D01*
X17972121Y-38874492D01*
X17974867Y-38863177D01*
X17977358Y-38839774D01*
X17979604Y-38803038D01*
X17981618Y-38751722D01*
X17983412Y-38684579D01*
X17984997Y-38600362D01*
X17986385Y-38497824D01*
X17987588Y-38375719D01*
X17988617Y-38232799D01*
X17989485Y-38067817D01*
X17990203Y-37879528D01*
X17990782Y-37666683D01*
X17991236Y-37428036D01*
X17991574Y-37162341D01*
X17991810Y-36868350D01*
X17991858Y-36783176D01*
X17992082Y-36475177D01*
X17992427Y-36195943D01*
X17992902Y-35944359D01*
X17993517Y-35719306D01*
X17994284Y-35519670D01*
X17995210Y-35344332D01*
X17996308Y-35192177D01*
X17997586Y-35062088D01*
X17999055Y-34952948D01*
X18000724Y-34863641D01*
X18002605Y-34793050D01*
X18004706Y-34740058D01*
X18007038Y-34703549D01*
X18009610Y-34682407D01*
X18010755Y-34677870D01*
X18035559Y-34632977D01*
X18070374Y-34595973D01*
X18070749Y-34595693D01*
X18080862Y-34588746D01*
X18092594Y-34582879D01*
X18108475Y-34577972D01*
X18131030Y-34573906D01*
X18162788Y-34570560D01*
X18206276Y-34567816D01*
X18264022Y-34565553D01*
X18338553Y-34563651D01*
X18432396Y-34561991D01*
X18548079Y-34560453D01*
X18688130Y-34558917D01*
X18855076Y-34557263D01*
X18888457Y-34556941D01*
X19664005Y-34549470D01*
X19746823Y-34466652D01*
X19754294Y-33693082D01*
X19756020Y-33520374D01*
X19757656Y-33375029D01*
X19759307Y-33254531D01*
X19761082Y-33156362D01*
X19763088Y-33078005D01*
X19765433Y-33016941D01*
X19768223Y-32970653D01*
X19771566Y-32936623D01*
X19775570Y-32912334D01*
X19780342Y-32895269D01*
X19785989Y-32882909D01*
X19789074Y-32877861D01*
X19797877Y-32864120D01*
X19806377Y-32851963D01*
X19816359Y-32841295D01*
X19829607Y-32832019D01*
X19847908Y-32824036D01*
X19873047Y-32817251D01*
X19906808Y-32811567D01*
X19950978Y-32806886D01*
X20007342Y-32803111D01*
X20077686Y-32800145D01*
X20163794Y-32797891D01*
X20267452Y-32796253D01*
X20390446Y-32795132D01*
X20534560Y-32794433D01*
X20701581Y-32794057D01*
X20893294Y-32793909D01*
X21111483Y-32793891D01*
X21333843Y-32793905D01*
X21572225Y-32793937D01*
X21782553Y-32794045D01*
X21966657Y-32794261D01*
X22126365Y-32794620D01*
X22263505Y-32795152D01*
X22379908Y-32795891D01*
X22477401Y-32796870D01*
X22557813Y-32798120D01*
X22622973Y-32799674D01*
X22674711Y-32801566D01*
X22714855Y-32803826D01*
X22745233Y-32806489D01*
X22767674Y-32809587D01*
X22784008Y-32813151D01*
X22796063Y-32817216D01*
X22802294Y-32820052D01*
X22819386Y-32828086D01*
X22834512Y-32835269D01*
X22847791Y-32843373D01*
X22859343Y-32854173D01*
X22869289Y-32869438D01*
X22877747Y-32890944D01*
X22884838Y-32920461D01*
X22890682Y-32959762D01*
X22895398Y-33010620D01*
X22899105Y-33074807D01*
X22901925Y-33154095D01*
X22903977Y-33250258D01*
X22905380Y-33365068D01*
X22906255Y-33500296D01*
X22906720Y-33657716D01*
X22906897Y-33839100D01*
X22906905Y-34046221D01*
X23295110Y-34046221D01*
X23295061Y-33906751D01*
X23294812Y-33712995D01*
X23294318Y-33543563D01*
X23293503Y-33396603D01*
X23292293Y-33270261D01*
X23290613Y-33162685D01*
X23288388Y-33072023D01*
X23285543Y-32996422D01*
X23282005Y-32934028D01*
X23277698Y-32882990D01*
X23272547Y-32841454D01*
X23266478Y-32807568D01*
X23259416Y-32779479D01*
X23251286Y-32755335D01*
X23242014Y-32733282D01*
X23231525Y-32711468D01*
X23227750Y-32703939D01*
X23186914Y-32641993D01*
X23128182Y-32576603D01*
X23060805Y-32516818D01*
X22994034Y-32471685D01*
X22985915Y-32467384D01*
X22965135Y-32457262D01*
X22943591Y-32448281D01*
X22919477Y-32440381D01*
X22890983Y-32433498D01*
X22856303Y-32427571D01*
X22813629Y-32422538D01*
X22761153Y-32418337D01*
X22697067Y-32414905D01*
X22619565Y-32412181D01*
X22526837Y-32410102D01*
X22417077Y-32408607D01*
X22288476Y-32407633D01*
X22139227Y-32407118D01*
X21967523Y-32407000D01*
X21771555Y-32407217D01*
%TD*%
M02*
