%TF.GenerationSoftware,KiCad,Pcbnew,(5.1.10-1-10_14)*%
%TF.CreationDate,2021-07-02T05:56:29+09:00*%
%TF.ProjectId,keyplate,6b657970-6c61-4746-952e-6b696361645f,rev?*%
%TF.SameCoordinates,Original*%
%TF.FileFunction,Profile,NP*%
%FSLAX46Y46*%
G04 Gerber Fmt 4.6, Leading zero omitted, Abs format (unit mm)*
G04 Created by KiCad (PCBNEW (5.1.10-1-10_14)) date 2021-07-02 05:56:29*
%MOMM*%
%LPD*%
G01*
G04 APERTURE LIST*
%TA.AperFunction,Profile*%
%ADD10C,0.200000*%
%TD*%
G04 APERTURE END LIST*
D10*
X300532496Y-75499098D02*
X300532496Y-108374022D01*
X299993814Y-74960410D02*
X298204522Y-74960410D01*
X298204522Y-69905116D02*
X300005441Y-69905116D01*
X300532496Y-17447545D02*
X300532496Y-69377716D01*
X265597700Y-71910302D02*
X265813787Y-71860671D01*
X265813787Y-71860671D02*
X265983130Y-71727571D01*
X265983130Y-71727571D02*
X266082087Y-71534687D01*
X266082087Y-71534687D02*
X266097949Y-71410415D01*
X289473638Y-71910302D02*
X289689725Y-71860671D01*
X289689725Y-71860671D02*
X289859067Y-71727571D01*
X289859067Y-71727571D02*
X289958024Y-71534687D01*
X289958024Y-71534687D02*
X289973886Y-71410415D01*
X283473610Y-71910302D02*
X289473638Y-71910302D01*
X284704454Y-88960360D02*
X297704640Y-88960360D01*
X284204572Y-88460123D02*
X284254203Y-88676206D01*
X284254203Y-88676206D02*
X284387303Y-88845544D01*
X284387303Y-88845544D02*
X284580185Y-88944499D01*
X284580185Y-88944499D02*
X284704454Y-88960360D01*
X259597673Y-71910302D02*
X265597700Y-71910302D01*
X259097790Y-71410415D02*
X259147421Y-71626278D01*
X259147421Y-71626278D02*
X259280522Y-71795515D01*
X259280522Y-71795515D02*
X259473404Y-71894442D01*
X259473404Y-71894442D02*
X259597673Y-71910302D01*
X259097790Y-69910408D02*
X259097790Y-71410415D01*
X237106035Y-69910408D02*
X259097790Y-69910408D01*
X282973728Y-71410415D02*
X283023359Y-71626278D01*
X283023359Y-71626278D02*
X283156460Y-71795515D01*
X283156460Y-71795515D02*
X283349341Y-71894442D01*
X283349341Y-71894442D02*
X283473610Y-71910302D01*
X282973728Y-69910408D02*
X282973728Y-71410415D01*
X266097949Y-69910408D02*
X282973728Y-69910408D01*
X266097949Y-71410415D02*
X266097949Y-69910408D01*
X294666525Y-69910408D02*
X294666525Y-74954763D01*
X289973886Y-69910408D02*
X294666525Y-69910408D01*
X289973886Y-71410415D02*
X289973886Y-69910408D01*
X284204572Y-75460297D02*
X284204572Y-88460123D01*
X284704454Y-74960410D02*
X284488596Y-75009980D01*
X284488596Y-75009980D02*
X284319359Y-75142995D01*
X284319359Y-75142995D02*
X284220431Y-75335908D01*
X284220431Y-75335908D02*
X284204572Y-75460297D01*
X294666525Y-74954763D02*
X284704454Y-74960410D01*
X298204522Y-88460123D02*
X298204522Y-74960410D01*
X297704640Y-88960360D02*
X297920497Y-88910721D01*
X297920497Y-88910721D02*
X298089734Y-88777567D01*
X298089734Y-88777567D02*
X298188662Y-88584534D01*
X298188662Y-88584534D02*
X298204522Y-88460123D01*
X236579691Y-69384063D02*
X236621055Y-69588939D01*
X236621055Y-69588939D02*
X236733858Y-69756244D01*
X236733858Y-69756244D02*
X236901163Y-69869044D01*
X236901163Y-69869044D02*
X237106035Y-69910408D01*
X300151491Y-109548065D02*
X300052359Y-109672249D01*
X300237575Y-109417184D02*
X300151491Y-109548065D01*
X300314487Y-109280306D02*
X300237575Y-109417184D01*
X300379384Y-109139197D02*
X300314487Y-109280306D01*
X300434419Y-108991037D02*
X300379384Y-109139197D01*
X300476406Y-108839335D02*
X300434419Y-108991037D01*
X300507455Y-108685178D02*
X300476406Y-108839335D01*
X300526510Y-108529245D02*
X300507455Y-108685178D01*
X300532496Y-108374022D02*
X300526510Y-108529245D01*
X299993814Y-74960410D02*
X300203438Y-75002710D01*
X300203438Y-75002710D02*
X300374670Y-75118100D01*
X300374670Y-75118100D02*
X300490145Y-75289318D01*
X300490145Y-75289318D02*
X300532496Y-75499098D01*
X17001121Y-110366154D02*
X16845193Y-110348165D01*
X17158106Y-110374272D02*
X17001121Y-110366154D01*
X298532602Y-110372151D02*
X17158106Y-110374272D01*
X298688535Y-110366154D02*
X298532602Y-110372151D01*
X298844468Y-110348165D02*
X298688535Y-110366154D01*
X298998614Y-110318181D02*
X298844468Y-110348165D01*
X299151382Y-110276194D02*
X298998614Y-110318181D01*
X299297433Y-110220104D02*
X299151382Y-110276194D01*
X299439586Y-110155197D02*
X299297433Y-110220104D01*
X299576463Y-110078296D02*
X299439586Y-110155197D01*
X299707355Y-109991157D02*
X299576463Y-110078296D01*
X299830474Y-109893079D02*
X299707355Y-109991157D01*
X299946530Y-109788306D02*
X299830474Y-109893079D01*
X300052359Y-109672249D02*
X299946530Y-109788306D01*
X16539336Y-110276194D02*
X16392228Y-110220104D01*
X16691030Y-110318181D02*
X16539336Y-110276194D01*
X16845193Y-110348165D02*
X16691030Y-110318181D01*
X15637285Y-109672249D02*
X15539213Y-109548065D01*
X15743118Y-109788306D02*
X15637285Y-109672249D01*
X15859181Y-109893079D02*
X15743118Y-109788306D01*
X15982301Y-109991157D02*
X15859181Y-109893079D01*
X16113181Y-110078296D02*
X15982301Y-109991157D01*
X16250059Y-110155197D02*
X16113181Y-110078296D01*
X16392228Y-110220104D02*
X16250059Y-110155197D01*
X15310261Y-109139197D02*
X15255228Y-108991037D01*
X15375172Y-109280306D02*
X15310261Y-109139197D01*
X15452077Y-109417184D02*
X15375172Y-109280306D01*
X15539213Y-109548065D02*
X15452077Y-109417184D01*
X15182203Y-108685178D02*
X15164211Y-108529245D01*
X15213247Y-108839335D02*
X15182203Y-108685178D01*
X15255228Y-108991037D02*
X15213247Y-108839335D01*
X15157156Y-75455000D02*
X15206485Y-75238149D01*
X15206485Y-75238149D02*
X15339153Y-75069010D01*
X15339153Y-75069010D02*
X15532180Y-74970515D01*
X15532180Y-74970515D02*
X15657040Y-74954763D01*
X15157156Y-108374022D02*
X15157156Y-75455000D01*
X15164211Y-108529245D02*
X15157156Y-108374022D01*
X17505238Y-88460123D02*
X17554868Y-88676206D01*
X17554868Y-88676206D02*
X17687968Y-88845544D01*
X17687968Y-88845544D02*
X17880851Y-88944499D01*
X17880851Y-88944499D02*
X18005123Y-88960360D01*
X17505238Y-74956884D02*
X17505238Y-88460123D01*
X15657040Y-74954763D02*
X17505238Y-74956884D01*
X18592144Y-88960360D02*
X18592144Y-90460367D01*
X18005123Y-88960360D02*
X18592144Y-88960360D01*
X18592144Y-90460367D02*
X18641774Y-90676230D01*
X18641774Y-90676230D02*
X18774874Y-90845468D01*
X18774874Y-90845468D02*
X18967757Y-90944395D01*
X18967757Y-90944395D02*
X19092029Y-90960255D01*
X48967998Y-90960255D02*
X49184081Y-90910624D01*
X49184081Y-90910624D02*
X49353421Y-90777524D01*
X49353421Y-90777524D02*
X49452376Y-90584639D01*
X49452376Y-90584639D02*
X49468238Y-90460367D01*
X42967970Y-90960255D02*
X48967998Y-90960255D01*
X42468085Y-90460367D02*
X42517715Y-90676230D01*
X42517715Y-90676230D02*
X42650815Y-90845468D01*
X42650815Y-90845468D02*
X42843698Y-90944395D01*
X42843698Y-90944395D02*
X42967970Y-90960255D01*
X42468085Y-88960360D02*
X42468085Y-90460367D01*
X25592296Y-88960360D02*
X42468085Y-88960360D01*
X25592296Y-90460367D02*
X25592296Y-88960360D01*
X25092058Y-90960255D02*
X25308141Y-90910624D01*
X25308141Y-90910624D02*
X25477480Y-90777524D01*
X25477480Y-90777524D02*
X25576435Y-90584639D01*
X25576435Y-90584639D02*
X25592296Y-90460367D01*
X19092029Y-90960255D02*
X25092058Y-90960255D01*
X50055256Y-88960360D02*
X50271117Y-88910721D01*
X50271117Y-88910721D02*
X50440354Y-88777567D01*
X50440354Y-88777567D02*
X50539281Y-88584534D01*
X50539281Y-88584534D02*
X50555141Y-88460123D01*
X49468238Y-88960360D02*
X50055256Y-88960360D01*
X49468238Y-90460367D02*
X49468238Y-88960360D01*
X15158214Y-17447545D02*
X15164211Y-17290560D01*
X15157156Y-69110313D02*
X15158214Y-17447545D01*
X15303558Y-69463795D02*
X15157156Y-69110313D01*
X15657040Y-69610195D02*
X15303558Y-69463795D01*
X18659172Y-69610195D02*
X15657040Y-69610195D01*
X19431047Y-69732259D02*
X18659172Y-69610195D01*
X20127077Y-70087151D02*
X19431047Y-69732259D01*
X20680230Y-70640303D02*
X20127077Y-70087151D01*
X21035124Y-71337390D02*
X20680230Y-70640303D01*
X21158243Y-72110327D02*
X21035124Y-71337390D01*
X21142369Y-74955474D02*
X21158243Y-72110327D01*
X50055256Y-74960410D02*
X21142369Y-74955474D01*
X15255228Y-16828422D02*
X15310261Y-16681314D01*
X15213247Y-16980469D02*
X15255228Y-16828422D01*
X15182203Y-17134279D02*
X15213247Y-16980469D01*
X15164211Y-17290560D02*
X15182203Y-17134279D01*
X16392228Y-15599347D02*
X16539336Y-15544314D01*
X16250059Y-15664258D02*
X16392228Y-15599347D01*
X16113181Y-15741516D02*
X16250059Y-15664258D01*
X15982301Y-15828299D02*
X16113181Y-15741516D01*
X15859181Y-15926371D02*
X15982301Y-15828299D01*
X15743118Y-16032557D02*
X15859181Y-15926371D01*
X15637285Y-16148268D02*
X15743118Y-16032557D01*
X15539213Y-16271387D02*
X15637285Y-16148268D01*
X15452077Y-16402267D02*
X15539213Y-16271387D01*
X15375172Y-16539498D02*
X15452077Y-16402267D01*
X15310261Y-16681314D02*
X15375172Y-16539498D01*
X300476406Y-16980469D02*
X300507455Y-17134279D01*
X300434419Y-16828422D02*
X300476406Y-16980469D01*
X300379384Y-16681314D02*
X300434419Y-16828422D01*
X17001121Y-15453298D02*
X17158106Y-15446242D01*
X16845193Y-15471289D02*
X17001121Y-15453298D01*
X16691030Y-15502334D02*
X16845193Y-15471289D01*
X16539336Y-15544314D02*
X16691030Y-15502334D01*
X298688535Y-15453298D02*
X298844468Y-15471289D01*
X298532602Y-15447300D02*
X298688535Y-15453298D01*
X17158106Y-15446242D02*
X298532602Y-15447300D01*
X299297433Y-15599347D02*
X299439586Y-15664258D01*
X299151382Y-15544314D02*
X299297433Y-15599347D01*
X298998614Y-15502334D02*
X299151382Y-15544314D01*
X298844468Y-15471289D02*
X298998614Y-15502334D01*
X299707355Y-15828299D02*
X299830474Y-15926371D01*
X299576463Y-15741516D02*
X299707355Y-15828299D01*
X299439586Y-15664258D02*
X299576463Y-15741516D01*
X300314487Y-16539498D02*
X300379384Y-16681314D01*
X300237575Y-16402267D02*
X300314487Y-16539498D01*
X300151491Y-16271387D02*
X300237575Y-16402267D01*
X300052359Y-16148268D02*
X300151491Y-16271387D01*
X299946530Y-16032557D02*
X300052359Y-16148268D01*
X299830474Y-15926371D02*
X299946530Y-16032557D01*
X50555141Y-75460297D02*
X50505510Y-75244281D01*
X50505510Y-75244281D02*
X50372410Y-75075083D01*
X50372410Y-75075083D02*
X50179527Y-74976247D01*
X50179527Y-74976247D02*
X50055256Y-74960410D01*
X50555141Y-88460123D02*
X50555141Y-75460297D01*
X300532496Y-69377716D02*
X300491071Y-69583054D01*
X300491071Y-69583054D02*
X300378110Y-69750689D01*
X300378110Y-69750689D02*
X300210577Y-69863687D01*
X300210577Y-69863687D02*
X300005441Y-69905116D01*
X300526510Y-17290560D02*
X300532496Y-17447545D01*
X300507455Y-17134279D02*
X300526510Y-17290560D01*
X297677122Y-53633634D02*
X297422978Y-53633485D01*
X297422978Y-53633485D02*
X297149158Y-53633080D01*
X297149158Y-53633080D02*
X296860203Y-53632477D01*
X296860203Y-53632477D02*
X296560657Y-53631736D01*
X296560657Y-53631736D02*
X296357318Y-53631195D01*
X296357318Y-53631195D02*
X296152638Y-53630636D01*
X296152638Y-53630636D02*
X295947962Y-53630076D01*
X295947962Y-53630076D02*
X295744636Y-53629535D01*
X295744636Y-53629535D02*
X295544006Y-53629028D01*
X295544006Y-53629028D02*
X295251061Y-53628373D01*
X295251061Y-53628373D02*
X294971755Y-53627895D01*
X294971755Y-53627895D02*
X294710630Y-53627655D01*
X294710630Y-53627655D02*
X294628414Y-53627638D01*
X298204522Y-54161390D02*
X298163092Y-53955996D01*
X298163092Y-53955996D02*
X298050093Y-53788239D01*
X298050093Y-53788239D02*
X297882458Y-53675118D01*
X297882458Y-53675118D02*
X297677122Y-53633634D01*
X298204522Y-69905116D02*
X298204522Y-54161390D01*
X294101014Y-54155040D02*
X294101014Y-55910813D01*
X294628414Y-53627638D02*
X294423077Y-53669067D01*
X294423077Y-53669067D02*
X294255442Y-53782065D01*
X294255442Y-53782065D02*
X294142443Y-53949701D01*
X294142443Y-53949701D02*
X294101014Y-54155040D01*
X181803315Y-107510080D02*
X181803315Y-107010188D01*
X182303198Y-108009963D02*
X182087340Y-107960392D01*
X182087340Y-107960392D02*
X181918102Y-107827378D01*
X181918102Y-107827378D02*
X181819174Y-107634467D01*
X181819174Y-107634467D02*
X181803315Y-107510080D01*
X240548086Y-108009963D02*
X182303198Y-108009963D01*
X241047968Y-107510080D02*
X240998336Y-107726092D01*
X240998336Y-107726092D02*
X240865236Y-107895289D01*
X240865236Y-107895289D02*
X240672354Y-107994125D01*
X240672354Y-107994125D02*
X240548086Y-108009963D01*
X241047968Y-94509894D02*
X241047968Y-107510080D01*
X240548086Y-94009657D02*
X240763943Y-94059295D01*
X240763943Y-94059295D02*
X240933180Y-94192449D01*
X240933180Y-94192449D02*
X241032108Y-94385482D01*
X241032108Y-94385482D02*
X241047968Y-94509894D01*
X211385426Y-94009657D02*
X240548086Y-94009657D01*
X211385426Y-92509650D02*
X211385426Y-94009657D01*
X210885544Y-92009763D02*
X211101401Y-92059393D01*
X211101401Y-92059393D02*
X211270638Y-92192493D01*
X211270638Y-92192493D02*
X211369566Y-92385377D01*
X211369566Y-92385377D02*
X211385426Y-92509650D01*
X204885516Y-92009763D02*
X210885544Y-92009763D01*
X204385268Y-92509650D02*
X204434907Y-92293786D01*
X204434907Y-92293786D02*
X204568064Y-92124549D01*
X204568064Y-92124549D02*
X204761101Y-92025622D01*
X204761101Y-92025622D02*
X204885516Y-92009763D01*
X204385268Y-94009657D02*
X204385268Y-92509650D01*
X187509133Y-94009657D02*
X204385268Y-94009657D01*
X187509133Y-92509650D02*
X187509133Y-94009657D01*
X187008895Y-92009763D02*
X187224976Y-92059393D01*
X187224976Y-92059393D02*
X187394315Y-92192493D01*
X187394315Y-92192493D02*
X187493271Y-92385377D01*
X187493271Y-92385377D02*
X187509133Y-92509650D01*
X181008868Y-92009763D02*
X187008895Y-92009763D01*
X180508975Y-92509650D02*
X180558606Y-92293786D01*
X180558606Y-92293786D02*
X180691708Y-92124549D01*
X180691708Y-92124549D02*
X180884595Y-92025622D01*
X180884595Y-92025622D02*
X181008868Y-92009763D01*
X180508975Y-106509950D02*
X180508975Y-92509650D01*
X148908280Y-92009763D02*
X149124365Y-92059393D01*
X149124365Y-92059393D02*
X149293704Y-92192493D01*
X149293704Y-92192493D02*
X149392657Y-92385377D01*
X149392657Y-92385377D02*
X149408518Y-92509650D01*
X142908252Y-92009763D02*
X148908280Y-92009763D01*
X166284663Y-92509650D02*
X166334292Y-92293786D01*
X166334292Y-92293786D02*
X166467390Y-92124549D01*
X166467390Y-92124549D02*
X166660273Y-92025622D01*
X166660273Y-92025622D02*
X166784545Y-92009763D01*
X166284663Y-94009657D02*
X166284663Y-92509650D01*
X149408518Y-94009657D02*
X166284663Y-94009657D01*
X149408518Y-92509650D02*
X149408518Y-94009657D01*
X141321467Y-94509894D02*
X141371035Y-94293810D01*
X141371035Y-94293810D02*
X141504046Y-94124472D01*
X141504046Y-94124472D02*
X141696958Y-94025517D01*
X141696958Y-94025517D02*
X141821349Y-94009657D01*
X141321467Y-107510080D02*
X141321467Y-94509894D01*
X141821349Y-108009963D02*
X141605331Y-107960392D01*
X141605331Y-107960392D02*
X141436136Y-107827378D01*
X141436136Y-107827378D02*
X141337304Y-107634467D01*
X141337304Y-107634467D02*
X141321467Y-107510080D01*
X173871832Y-108009963D02*
X141821349Y-108009963D01*
X174371714Y-107510080D02*
X174322145Y-107726092D01*
X174322145Y-107726092D02*
X174189134Y-107895289D01*
X174189134Y-107895289D02*
X173996222Y-107994125D01*
X173996222Y-107994125D02*
X173871832Y-108009963D01*
X174371714Y-94509894D02*
X174371714Y-107510080D01*
X173871832Y-94009657D02*
X174087849Y-94059295D01*
X174087849Y-94059295D02*
X174257044Y-94192449D01*
X174257044Y-94192449D02*
X174355876Y-94385482D01*
X174355876Y-94385482D02*
X174371714Y-94509894D01*
X173284811Y-94009657D02*
X173871832Y-94009657D01*
X173284811Y-92509650D02*
X173284811Y-94009657D01*
X172784928Y-92009763D02*
X173000790Y-92059393D01*
X173000790Y-92059393D02*
X173170026Y-92192493D01*
X173170026Y-92192493D02*
X173268951Y-92385377D01*
X173268951Y-92385377D02*
X173284811Y-92509650D01*
X166784545Y-92009763D02*
X172784928Y-92009763D01*
X134684313Y-92009763D02*
X134900177Y-92059393D01*
X134900177Y-92059393D02*
X135069417Y-92192493D01*
X135069417Y-92192493D02*
X135168346Y-92385377D01*
X135168346Y-92385377D02*
X135184206Y-92509650D01*
X126302697Y-92009763D02*
X134684313Y-92009763D01*
X125802804Y-92509650D02*
X125852435Y-92293786D01*
X125852435Y-92293786D02*
X125985537Y-92124549D01*
X125985537Y-92124549D02*
X126178424Y-92025622D01*
X126178424Y-92025622D02*
X126302697Y-92009763D01*
X125802804Y-94009657D02*
X125802804Y-92509650D01*
X111307913Y-94009657D02*
X125802804Y-94009657D01*
X111307913Y-92509650D02*
X111307913Y-94009657D01*
X110807676Y-92009763D02*
X111023756Y-92059393D01*
X111023756Y-92059393D02*
X111193095Y-92192493D01*
X111193095Y-92192493D02*
X111292051Y-92385377D01*
X111292051Y-92385377D02*
X111307913Y-92509650D01*
X141821349Y-94009657D02*
X142408370Y-94009657D01*
X126746133Y-107510080D02*
X126696494Y-107726092D01*
X126696494Y-107726092D02*
X126563338Y-107895289D01*
X126563338Y-107895289D02*
X126370306Y-107994125D01*
X126370306Y-107994125D02*
X126245896Y-108009963D01*
X126746133Y-107010188D02*
X126746133Y-107510080D01*
X134684313Y-107010188D02*
X126746133Y-107010188D01*
X135184206Y-106509950D02*
X135134574Y-106726035D01*
X135134574Y-106726035D02*
X135001472Y-106895374D01*
X135001472Y-106895374D02*
X134808585Y-106994327D01*
X134808585Y-106994327D02*
X134684313Y-107010188D01*
X135184206Y-92509650D02*
X135184206Y-106509950D01*
X260104617Y-94520833D02*
X260065372Y-94323364D01*
X260065372Y-94323364D02*
X259953636Y-94156057D01*
X260104617Y-107489259D02*
X260104617Y-107264929D01*
X260104617Y-107264929D02*
X260104617Y-107005581D01*
X260104617Y-107005581D02*
X260104617Y-106713551D01*
X260104617Y-106713551D02*
X260104617Y-106391173D01*
X260104617Y-106391173D02*
X260104617Y-106040780D01*
X260104617Y-106040780D02*
X260104617Y-105664708D01*
X260104617Y-105664708D02*
X260104617Y-105265291D01*
X260104617Y-105265291D02*
X260104617Y-104844863D01*
X260104617Y-104844863D02*
X260104617Y-104405758D01*
X260104617Y-104405758D02*
X260104617Y-103950312D01*
X260104617Y-103950312D02*
X260104617Y-103480857D01*
X260104617Y-103480857D02*
X260104617Y-102999730D01*
X260104617Y-102999730D02*
X260104617Y-102509264D01*
X260104617Y-102509264D02*
X260104617Y-102011794D01*
X260104617Y-102011794D02*
X260104617Y-101509654D01*
X260104617Y-101509654D02*
X260104617Y-101005179D01*
X260104617Y-101005179D02*
X260104617Y-100500702D01*
X260104617Y-100500702D02*
X260104617Y-99998559D01*
X260104617Y-99998559D02*
X260104617Y-99501084D01*
X260104617Y-99501084D02*
X260104617Y-99010610D01*
X260104617Y-99010610D02*
X260104617Y-98529474D01*
X260104617Y-98529474D02*
X260104617Y-98060008D01*
X260104617Y-98060008D02*
X260104617Y-97604548D01*
X260104617Y-97604548D02*
X260104617Y-97165428D01*
X260104617Y-97165428D02*
X260104617Y-96744982D01*
X260104617Y-96744982D02*
X260104617Y-96345545D01*
X260104617Y-96345545D02*
X260104617Y-95969451D01*
X260104617Y-95969451D02*
X260104617Y-95619035D01*
X260104617Y-95619035D02*
X260104617Y-95296630D01*
X260104617Y-95296630D02*
X260104617Y-95004572D01*
X260104617Y-95004572D02*
X260104617Y-94745195D01*
X260104617Y-94745195D02*
X260104617Y-94520833D01*
X259588866Y-108005021D02*
X259789556Y-107964468D01*
X259789556Y-107964468D02*
X259970582Y-107835984D01*
X259970582Y-107835984D02*
X260081417Y-107642573D01*
X260081417Y-107642573D02*
X260104617Y-107489259D01*
X102426404Y-92009763D02*
X110807676Y-92009763D01*
X101926511Y-92509650D02*
X101976081Y-92293786D01*
X101976081Y-92293786D02*
X102109097Y-92124549D01*
X102109097Y-92124549D02*
X102302012Y-92025622D01*
X102302012Y-92025622D02*
X102426404Y-92009763D01*
X101926511Y-106509950D02*
X101926511Y-92509650D01*
X102426404Y-107010188D02*
X102210384Y-106960550D01*
X102210384Y-106960550D02*
X102041184Y-106827397D01*
X102041184Y-106827397D02*
X101942348Y-106634363D01*
X101942348Y-106634363D02*
X101926511Y-106509950D01*
X110364584Y-107010188D02*
X102426404Y-107010188D01*
X110364584Y-107510080D02*
X110364584Y-107010188D01*
X110864466Y-108009963D02*
X110648608Y-107960392D01*
X110648608Y-107960392D02*
X110479371Y-107827378D01*
X110479371Y-107827378D02*
X110380443Y-107634467D01*
X110380443Y-107634467D02*
X110364584Y-107510080D01*
X126245896Y-108009963D02*
X110864466Y-108009963D01*
X243723423Y-94525769D02*
X243723423Y-94750025D01*
X243723423Y-94750025D02*
X243723423Y-95009282D01*
X243723423Y-95009282D02*
X243723423Y-95301209D01*
X243723423Y-95301209D02*
X243723423Y-95623470D01*
X243723423Y-95623470D02*
X243723423Y-95973732D01*
X243723423Y-95973732D02*
X243723423Y-96349663D01*
X243723423Y-96349663D02*
X243723423Y-96748929D01*
X243723423Y-96748929D02*
X243723423Y-97169196D01*
X243723423Y-97169196D02*
X243723423Y-97608132D01*
X243723423Y-97608132D02*
X243723423Y-98063401D01*
X243723423Y-98063401D02*
X243723423Y-98532673D01*
X243723423Y-98532673D02*
X243723423Y-99013612D01*
X243723423Y-99013612D02*
X243723423Y-99503886D01*
X243723423Y-99503886D02*
X243723423Y-100001161D01*
X243723423Y-100001161D02*
X243723423Y-100503103D01*
X243723423Y-100503103D02*
X243723423Y-101007380D01*
X243723423Y-101007380D02*
X243723423Y-101511659D01*
X243723423Y-101511659D02*
X243723423Y-102013604D01*
X243723423Y-102013604D02*
X243723423Y-102510884D01*
X243723423Y-102510884D02*
X243723423Y-103001165D01*
X243723423Y-103001165D02*
X243723423Y-103482114D01*
X243723423Y-103482114D02*
X243723423Y-103951397D01*
X243723423Y-103951397D02*
X243723423Y-104406680D01*
X243723423Y-104406680D02*
X243723423Y-104845631D01*
X243723423Y-104845631D02*
X243723423Y-105265916D01*
X243723423Y-105265916D02*
X243723423Y-105665201D01*
X243723423Y-105665201D02*
X243723423Y-106041154D01*
X243723423Y-106041154D02*
X243723423Y-106391441D01*
X243723423Y-106391441D02*
X243723423Y-106713728D01*
X243723423Y-106713728D02*
X243723423Y-107005682D01*
X243723423Y-107005682D02*
X243723423Y-107264970D01*
X243723423Y-107264970D02*
X243723423Y-107489259D01*
X244238829Y-94010007D02*
X244038191Y-94050560D01*
X244038191Y-94050560D02*
X243857301Y-94179045D01*
X243857301Y-94179045D02*
X243746591Y-94372456D01*
X243746591Y-94372456D02*
X243723423Y-94525769D01*
X259588866Y-94005071D02*
X259336163Y-94005145D01*
X259336163Y-94005145D02*
X259039523Y-94005234D01*
X259039523Y-94005234D02*
X258701876Y-94005339D01*
X258701876Y-94005339D02*
X258326150Y-94005456D01*
X258326150Y-94005456D02*
X257915276Y-94005586D01*
X257915276Y-94005586D02*
X257472181Y-94005727D01*
X257472181Y-94005727D02*
X256999796Y-94005879D01*
X256999796Y-94005879D02*
X256501049Y-94006040D01*
X256501049Y-94006040D02*
X255978870Y-94006209D01*
X255978870Y-94006209D02*
X255436189Y-94006386D01*
X255436189Y-94006386D02*
X254875934Y-94006568D01*
X254875934Y-94006568D02*
X254301035Y-94006756D01*
X254301035Y-94006756D02*
X253714420Y-94006948D01*
X253714420Y-94006948D02*
X253119020Y-94007143D01*
X253119020Y-94007143D02*
X252517764Y-94007340D01*
X252517764Y-94007340D02*
X251913580Y-94007539D01*
X251913580Y-94007539D02*
X251309399Y-94007737D01*
X251309399Y-94007737D02*
X250708149Y-94007934D01*
X250708149Y-94007934D02*
X250112759Y-94008129D01*
X250112759Y-94008129D02*
X249526159Y-94008321D01*
X249526159Y-94008321D02*
X248951279Y-94008509D01*
X248951279Y-94008509D02*
X248391047Y-94008691D01*
X248391047Y-94008691D02*
X247848392Y-94008868D01*
X247848392Y-94008868D02*
X247326245Y-94009037D01*
X247326245Y-94009037D02*
X246827534Y-94009198D01*
X246827534Y-94009198D02*
X246355188Y-94009350D01*
X246355188Y-94009350D02*
X245912137Y-94009491D01*
X245912137Y-94009491D02*
X245501310Y-94009621D01*
X245501310Y-94009621D02*
X245125637Y-94009738D01*
X245125637Y-94009738D02*
X244788046Y-94009843D01*
X244788046Y-94009843D02*
X244491467Y-94009932D01*
X244491467Y-94009932D02*
X244238829Y-94010007D01*
X259953636Y-94156057D02*
X259786059Y-94044318D01*
X259786059Y-94044318D02*
X259588866Y-94005071D01*
X244239174Y-108005021D02*
X244491812Y-108005021D01*
X244491812Y-108005021D02*
X244788391Y-108005021D01*
X244788391Y-108005021D02*
X245125981Y-108005021D01*
X245125981Y-108005021D02*
X245501655Y-108005021D01*
X245501655Y-108005021D02*
X245912481Y-108005021D01*
X245912481Y-108005021D02*
X246355531Y-108005021D01*
X246355531Y-108005021D02*
X246827875Y-108005021D01*
X246827875Y-108005021D02*
X247326585Y-108005021D01*
X247326585Y-108005021D02*
X247848730Y-108005021D01*
X247848730Y-108005021D02*
X248391381Y-108005021D01*
X248391381Y-108005021D02*
X248951610Y-108005021D01*
X248951610Y-108005021D02*
X249526486Y-108005021D01*
X249526486Y-108005021D02*
X250113081Y-108005021D01*
X250113081Y-108005021D02*
X250708465Y-108005021D01*
X250708465Y-108005021D02*
X251309708Y-108005021D01*
X251309708Y-108005021D02*
X251913882Y-108005021D01*
X251913882Y-108005021D02*
X252518057Y-108005021D01*
X252518057Y-108005021D02*
X253119304Y-108005021D01*
X253119304Y-108005021D02*
X253714693Y-108005021D01*
X253714693Y-108005021D02*
X254301295Y-108005021D01*
X254301295Y-108005021D02*
X254876181Y-108005021D01*
X254876181Y-108005021D02*
X255436422Y-108005021D01*
X255436422Y-108005021D02*
X255979087Y-108005021D01*
X255979087Y-108005021D02*
X256501249Y-108005021D01*
X256501249Y-108005021D02*
X256999976Y-108005021D01*
X256999976Y-108005021D02*
X257472341Y-108005021D01*
X257472341Y-108005021D02*
X257915413Y-108005021D01*
X257915413Y-108005021D02*
X258326264Y-108005021D01*
X258326264Y-108005021D02*
X258701964Y-108005021D01*
X258701964Y-108005021D02*
X259039584Y-108005021D01*
X259039584Y-108005021D02*
X259336194Y-108005021D01*
X259336194Y-108005021D02*
X259588866Y-108005021D01*
X243723423Y-107489259D02*
X243763925Y-107689952D01*
X243763925Y-107689952D02*
X243892316Y-107870981D01*
X243892316Y-107870981D02*
X244085732Y-107981820D01*
X244085732Y-107981820D02*
X244239174Y-108005021D01*
X31077976Y-94004715D02*
X17932451Y-94004715D01*
X278654687Y-108005021D02*
X278870544Y-107955383D01*
X278870544Y-107955383D02*
X279039782Y-107822230D01*
X279039782Y-107822230D02*
X279138710Y-107629197D01*
X279138710Y-107629197D02*
X279154570Y-107504784D01*
X265654501Y-108005021D02*
X278654687Y-108005021D01*
X265154619Y-107504784D02*
X265204250Y-107720869D01*
X265204250Y-107720869D02*
X265337351Y-107890207D01*
X265337351Y-107890207D02*
X265530232Y-107989160D01*
X265530232Y-107989160D02*
X265654501Y-108005021D01*
X265154619Y-94504953D02*
X265154619Y-107504784D01*
X265654501Y-94004715D02*
X265438643Y-94054353D01*
X265438643Y-94054353D02*
X265269406Y-94187508D01*
X265269406Y-94187508D02*
X265170478Y-94380540D01*
X265170478Y-94380540D02*
X265154619Y-94504953D01*
X278654687Y-94004715D02*
X265654501Y-94004715D01*
X279154570Y-94504953D02*
X279104938Y-94288869D01*
X279104938Y-94288869D02*
X278971837Y-94119530D01*
X278971837Y-94119530D02*
X278778955Y-94020575D01*
X278778955Y-94020575D02*
X278654687Y-94004715D01*
X279154570Y-107504784D02*
X279154570Y-94504953D01*
X31505190Y-107504784D02*
X31505190Y-94504953D01*
X31077976Y-108005021D02*
X31280858Y-107944280D01*
X31280858Y-107944280D02*
X31431780Y-107783676D01*
X31431780Y-107783676D02*
X31500226Y-107580547D01*
X31500226Y-107580547D02*
X31505190Y-107504784D01*
X17932451Y-108005021D02*
X31077976Y-108005021D01*
X17505238Y-107504784D02*
X17547655Y-107720869D01*
X17547655Y-107720869D02*
X17661409Y-107890207D01*
X17661409Y-107890207D02*
X17846840Y-107994783D01*
X17846840Y-107994783D02*
X17932451Y-108005021D01*
X17505238Y-94504953D02*
X17505238Y-107504784D01*
X17932451Y-94004715D02*
X17729569Y-94065456D01*
X17729569Y-94065456D02*
X17578647Y-94226061D01*
X17578647Y-94226061D02*
X17510201Y-94429190D01*
X17510201Y-94429190D02*
X17505238Y-94504953D01*
X36928076Y-94004715D02*
X36735310Y-94077557D01*
X36735310Y-94077557D02*
X36609483Y-94246366D01*
X36609483Y-94246366D02*
X36557130Y-94454105D01*
X36557130Y-94454105D02*
X36555191Y-94504953D01*
X50181904Y-94004715D02*
X36928076Y-94004715D01*
X31505190Y-94504953D02*
X31462772Y-94288869D01*
X31462772Y-94288869D02*
X31349018Y-94119530D01*
X31349018Y-94119530D02*
X31163586Y-94014952D01*
X31163586Y-94014952D02*
X31077976Y-94004715D01*
X142408370Y-92509650D02*
X142457999Y-92293786D01*
X142457999Y-92293786D02*
X142591097Y-92124549D01*
X142591097Y-92124549D02*
X142783980Y-92025622D01*
X142783980Y-92025622D02*
X142908252Y-92009763D01*
X142408370Y-94009657D02*
X142408370Y-92509650D01*
X36928076Y-108005021D02*
X50181904Y-108005021D01*
X36555191Y-107504784D02*
X36592187Y-107720869D01*
X36592187Y-107720869D02*
X36705542Y-107905110D01*
X36705542Y-107905110D02*
X36890169Y-108002418D01*
X36890169Y-108002418D02*
X36928076Y-108005021D01*
X36555191Y-94504953D02*
X36555191Y-107504784D01*
X181008868Y-107010188D02*
X180793003Y-106960550D01*
X180793003Y-106960550D02*
X180623763Y-106827397D01*
X180623763Y-106827397D02*
X180524834Y-106634363D01*
X180524834Y-106634363D02*
X180508975Y-106509950D01*
X181803315Y-107010188D02*
X181008868Y-107010188D01*
X50555141Y-94504953D02*
X50518136Y-94288869D01*
X50518136Y-94288869D02*
X50404714Y-94104627D01*
X50404714Y-94104627D02*
X50219872Y-94007317D01*
X50219872Y-94007317D02*
X50181904Y-94004715D01*
X50555141Y-107504784D02*
X50555141Y-94504953D01*
X55605143Y-94504953D02*
X55605143Y-107504784D01*
X56041528Y-94004715D02*
X55834173Y-94065456D01*
X55834173Y-94065456D02*
X55692270Y-94206431D01*
X55692270Y-94206431D02*
X55614069Y-94404658D01*
X55614069Y-94404658D02*
X55605143Y-94504953D01*
X71549603Y-94004715D02*
X56041528Y-94004715D01*
X50181904Y-108005021D02*
X50374921Y-107932179D01*
X50374921Y-107932179D02*
X50500834Y-107763371D01*
X50500834Y-107763371D02*
X50553201Y-107555632D01*
X50553201Y-107555632D02*
X50555141Y-107504784D01*
X56041528Y-108005021D02*
X71549603Y-108005021D01*
X55605143Y-107504784D02*
X55648426Y-107720869D01*
X55648426Y-107720869D02*
X55764558Y-107890207D01*
X55764558Y-107890207D02*
X55954004Y-107994783D01*
X55954004Y-107994783D02*
X56041528Y-108005021D01*
X71549603Y-108005021D02*
X71757037Y-107944280D01*
X71757037Y-107944280D02*
X71899083Y-107803306D01*
X71899083Y-107803306D02*
X71977395Y-107605080D01*
X71977395Y-107605080D02*
X71986337Y-107504784D01*
X71986337Y-94504953D02*
X71942986Y-94288869D01*
X71942986Y-94288869D02*
X71826714Y-94119530D01*
X71826714Y-94119530D02*
X71637141Y-94014952D01*
X71637141Y-94014952D02*
X71549603Y-94004715D01*
X71986337Y-107504784D02*
X71986337Y-94504953D01*
X95298896Y-108005021D02*
X95514755Y-107955383D01*
X95514755Y-107955383D02*
X95683992Y-107822230D01*
X95683992Y-107822230D02*
X95782918Y-107629197D01*
X95782918Y-107629197D02*
X95798778Y-107504784D01*
X79917471Y-108005021D02*
X95298896Y-108005021D01*
X95798778Y-94504953D02*
X95749147Y-94288869D01*
X95749147Y-94288869D02*
X95616048Y-94119530D01*
X95616048Y-94119530D02*
X95423166Y-94020575D01*
X95423166Y-94020575D02*
X95298896Y-94004715D01*
X95798778Y-107504784D02*
X95798778Y-94504953D01*
X297704640Y-94004715D02*
X284704454Y-94004715D01*
X298204522Y-94504953D02*
X298154890Y-94288869D01*
X298154890Y-94288869D02*
X298021789Y-94119530D01*
X298021789Y-94119530D02*
X297828908Y-94020575D01*
X297828908Y-94020575D02*
X297704640Y-94004715D01*
X298204522Y-107504784D02*
X298204522Y-94504953D01*
X79417584Y-107504784D02*
X79467214Y-107720869D01*
X79467214Y-107720869D02*
X79600314Y-107890207D01*
X79600314Y-107890207D02*
X79793198Y-107989160D01*
X79793198Y-107989160D02*
X79917471Y-108005021D01*
X79417584Y-94504953D02*
X79417584Y-107504784D01*
X79917471Y-94004715D02*
X79701607Y-94054353D01*
X79701607Y-94054353D02*
X79532370Y-94187508D01*
X79532370Y-94187508D02*
X79433443Y-94380540D01*
X79433443Y-94380540D02*
X79417584Y-94504953D01*
X95298896Y-94004715D02*
X79917471Y-94004715D01*
X284704454Y-94004715D02*
X284488596Y-94054353D01*
X284488596Y-94054353D02*
X284319359Y-94187508D01*
X284319359Y-94187508D02*
X284220431Y-94380540D01*
X284220431Y-94380540D02*
X284204572Y-94504953D01*
X284204572Y-107504784D02*
X284254203Y-107720869D01*
X284254203Y-107720869D02*
X284387303Y-107890207D01*
X284387303Y-107890207D02*
X284580185Y-107989160D01*
X284580185Y-107989160D02*
X284704454Y-108005021D01*
X284204572Y-94504953D02*
X284204572Y-107504784D01*
X260104617Y-88460123D02*
X260104617Y-75460297D01*
X297704640Y-108005021D02*
X297920497Y-107955383D01*
X297920497Y-107955383D02*
X298089734Y-107822230D01*
X298089734Y-107822230D02*
X298188662Y-107629197D01*
X298188662Y-107629197D02*
X298204522Y-107504784D01*
X284704454Y-108005021D02*
X297704640Y-108005021D01*
X246604549Y-74960410D02*
X246388691Y-75009980D01*
X246388691Y-75009980D02*
X246219454Y-75142995D01*
X246219454Y-75142995D02*
X246120526Y-75335908D01*
X246120526Y-75335908D02*
X246104667Y-75460297D01*
X259604735Y-74960410D02*
X246604549Y-74960410D01*
X260104617Y-75460297D02*
X260054985Y-75244281D01*
X260054985Y-75244281D02*
X259921885Y-75075083D01*
X259921885Y-75075083D02*
X259729003Y-74976247D01*
X259729003Y-74976247D02*
X259604735Y-74960410D01*
X246104667Y-88460123D02*
X246154298Y-88676206D01*
X246154298Y-88676206D02*
X246287398Y-88845544D01*
X246287398Y-88845544D02*
X246480280Y-88944499D01*
X246480280Y-88944499D02*
X246604549Y-88960360D01*
X246104667Y-75460297D02*
X246104667Y-88460123D01*
X279154570Y-88460123D02*
X279154570Y-75460297D01*
X259604735Y-88960360D02*
X259820592Y-88910721D01*
X259820592Y-88910721D02*
X259989829Y-88777567D01*
X259989829Y-88777567D02*
X260088757Y-88584534D01*
X260088757Y-88584534D02*
X260104617Y-88460123D01*
X246604549Y-88960360D02*
X259604735Y-88960360D01*
X88655046Y-75455000D02*
X88605415Y-75238916D01*
X88605415Y-75238916D02*
X88472316Y-75069578D01*
X88472316Y-75069578D02*
X88279434Y-74970623D01*
X88279434Y-74970623D02*
X88155164Y-74954763D01*
X88655046Y-88454831D02*
X88655046Y-75455000D01*
X221504830Y-88955069D02*
X221720687Y-88905430D01*
X221720687Y-88905430D02*
X221889924Y-88772275D01*
X221889924Y-88772275D02*
X221988852Y-88579243D01*
X221988852Y-88579243D02*
X222004712Y-88454831D01*
X208504644Y-88955069D02*
X221504830Y-88955069D01*
X208004762Y-88454831D02*
X208054393Y-88670914D01*
X208054393Y-88670914D02*
X208187494Y-88840253D01*
X208187494Y-88840253D02*
X208380375Y-88939208D01*
X208380375Y-88939208D02*
X208504644Y-88955069D01*
X208004762Y-75455000D02*
X208004762Y-88454831D01*
X208504644Y-74954763D02*
X208288786Y-75004401D01*
X208288786Y-75004401D02*
X208119549Y-75137555D01*
X208119549Y-75137555D02*
X208020621Y-75330588D01*
X208020621Y-75330588D02*
X208004762Y-75455000D01*
X221504830Y-74954763D02*
X208504644Y-74954763D01*
X74655096Y-75455000D02*
X74655096Y-88454831D01*
X75154983Y-74954763D02*
X74939119Y-75004401D01*
X74939119Y-75004401D02*
X74769881Y-75137555D01*
X74769881Y-75137555D02*
X74670955Y-75330588D01*
X74670955Y-75330588D02*
X74655096Y-75455000D01*
X88155164Y-74954763D02*
X75154983Y-74954763D01*
X155329879Y-56405048D02*
X155280249Y-56188964D01*
X155280249Y-56188964D02*
X155147151Y-56019626D01*
X155147151Y-56019626D02*
X154954268Y-55920671D01*
X154954268Y-55920671D02*
X154829997Y-55904811D01*
X155329879Y-69404879D02*
X155329879Y-56405048D01*
X173879949Y-69905116D02*
X174095811Y-69855477D01*
X174095811Y-69855477D02*
X174265047Y-69722323D01*
X174265047Y-69722323D02*
X174363971Y-69529290D01*
X174363971Y-69529290D02*
X174379831Y-69404879D01*
X160879763Y-69905116D02*
X173879949Y-69905116D01*
X160379881Y-69404879D02*
X160429512Y-69620962D01*
X160429512Y-69620962D02*
X160562613Y-69790300D01*
X160562613Y-69790300D02*
X160755494Y-69889255D01*
X160755494Y-69889255D02*
X160879763Y-69905116D01*
X160379881Y-56405048D02*
X160379881Y-69404879D01*
X160879763Y-55904811D02*
X160663905Y-55954449D01*
X160663905Y-55954449D02*
X160494668Y-56087603D01*
X160494668Y-56087603D02*
X160395740Y-56280636D01*
X160395740Y-56280636D02*
X160379881Y-56405048D01*
X173879949Y-55904811D02*
X160879763Y-55904811D01*
X174379831Y-56405048D02*
X174330201Y-56188964D01*
X174330201Y-56188964D02*
X174197103Y-56019626D01*
X174197103Y-56019626D02*
X174004221Y-55920671D01*
X174004221Y-55920671D02*
X173879949Y-55904811D01*
X174379831Y-69404879D02*
X174379831Y-56405048D01*
X116730092Y-69905116D02*
X116945954Y-69855477D01*
X116945954Y-69855477D02*
X117115190Y-69722323D01*
X117115190Y-69722323D02*
X117214114Y-69529290D01*
X117214114Y-69529290D02*
X117229974Y-69404879D01*
X103729906Y-69905116D02*
X116730092Y-69905116D01*
X103230024Y-69404879D02*
X103279655Y-69620962D01*
X103279655Y-69620962D02*
X103412755Y-69790300D01*
X103412755Y-69790300D02*
X103605637Y-69889255D01*
X103605637Y-69889255D02*
X103729906Y-69905116D01*
X103230024Y-56405048D02*
X103230024Y-69404879D01*
X103729906Y-55904811D02*
X103514048Y-55954449D01*
X103514048Y-55954449D02*
X103344811Y-56087603D01*
X103344811Y-56087603D02*
X103245883Y-56280636D01*
X103245883Y-56280636D02*
X103230024Y-56405048D01*
X116730092Y-55904811D02*
X103729906Y-55904811D01*
X117229974Y-56405048D02*
X117180344Y-56188964D01*
X117180344Y-56188964D02*
X117047246Y-56019626D01*
X117047246Y-56019626D02*
X116854364Y-55920671D01*
X116854364Y-55920671D02*
X116730092Y-55904811D01*
X117229974Y-69404879D02*
X117229974Y-56405048D01*
X78630187Y-69905116D02*
X78846047Y-69855477D01*
X78846047Y-69855477D02*
X79015284Y-69722323D01*
X79015284Y-69722323D02*
X79114210Y-69529290D01*
X79114210Y-69529290D02*
X79130070Y-69404879D01*
X65630007Y-69905116D02*
X78630187Y-69905116D01*
X65130119Y-69404879D02*
X65179749Y-69620962D01*
X65179749Y-69620962D02*
X65312849Y-69790300D01*
X65312849Y-69790300D02*
X65505734Y-69889255D01*
X65505734Y-69889255D02*
X65630007Y-69905116D01*
X65130119Y-56405048D02*
X65130119Y-69404879D01*
X65630007Y-55904811D02*
X65414143Y-55954449D01*
X65414143Y-55954449D02*
X65244905Y-56087603D01*
X65244905Y-56087603D02*
X65145978Y-56280636D01*
X65145978Y-56280636D02*
X65130119Y-56405048D01*
X78630187Y-55904811D02*
X65630007Y-55904811D01*
X79130070Y-56405048D02*
X79080439Y-56188964D01*
X79080439Y-56188964D02*
X78947340Y-56019626D01*
X78947340Y-56019626D02*
X78754457Y-55920671D01*
X78754457Y-55920671D02*
X78630187Y-55904811D01*
X79130070Y-69404879D02*
X79130070Y-56405048D01*
X46080167Y-69404879D02*
X46129797Y-69620962D01*
X46129797Y-69620962D02*
X46262897Y-69790300D01*
X46262897Y-69790300D02*
X46455780Y-69889255D01*
X46455780Y-69889255D02*
X46580052Y-69905116D01*
X46080167Y-56405048D02*
X46080167Y-69404879D01*
X46580052Y-55904811D02*
X46364190Y-55954449D01*
X46364190Y-55954449D02*
X46194953Y-56087603D01*
X46194953Y-56087603D02*
X46096026Y-56280636D01*
X46096026Y-56280636D02*
X46080167Y-56405048D01*
X59580235Y-55904811D02*
X46580052Y-55904811D01*
X60080117Y-56405048D02*
X60030486Y-56188964D01*
X60030486Y-56188964D02*
X59897387Y-56019626D01*
X59897387Y-56019626D02*
X59704505Y-55920671D01*
X59704505Y-55920671D02*
X59580235Y-55904811D01*
X60080117Y-69404879D02*
X60080117Y-56405048D01*
X59580235Y-69905116D02*
X59796094Y-69855477D01*
X59796094Y-69855477D02*
X59965331Y-69722323D01*
X59965331Y-69722323D02*
X60064257Y-69529290D01*
X60064257Y-69529290D02*
X60080117Y-69404879D01*
X46580052Y-69905116D02*
X59580235Y-69905116D01*
X211979854Y-69905116D02*
X212195711Y-69855477D01*
X212195711Y-69855477D02*
X212364948Y-69722323D01*
X212364948Y-69722323D02*
X212463876Y-69529290D01*
X212463876Y-69529290D02*
X212479736Y-69404879D01*
X198979668Y-69905116D02*
X211979854Y-69905116D01*
X198479786Y-69404879D02*
X198529417Y-69620962D01*
X198529417Y-69620962D02*
X198662517Y-69790300D01*
X198662517Y-69790300D02*
X198855399Y-69889255D01*
X198855399Y-69889255D02*
X198979668Y-69905116D01*
X198479786Y-56405048D02*
X198479786Y-69404879D01*
X198979668Y-55904811D02*
X198763810Y-55954449D01*
X198763810Y-55954449D02*
X198594573Y-56087603D01*
X198594573Y-56087603D02*
X198495645Y-56280636D01*
X198495645Y-56280636D02*
X198479786Y-56405048D01*
X211979854Y-55904811D02*
X198979668Y-55904811D01*
X212479736Y-56405048D02*
X212430104Y-56188964D01*
X212430104Y-56188964D02*
X212297004Y-56019626D01*
X212297004Y-56019626D02*
X212104122Y-55920671D01*
X212104122Y-55920671D02*
X211979854Y-55904811D01*
X212479736Y-69404879D02*
X212479736Y-56405048D01*
X135780045Y-69905116D02*
X135995907Y-69855477D01*
X135995907Y-69855477D02*
X136165142Y-69722323D01*
X136165142Y-69722323D02*
X136264067Y-69529290D01*
X136264067Y-69529290D02*
X136279927Y-69404879D01*
X122779859Y-69905116D02*
X135780045Y-69905116D01*
X122279976Y-69404879D02*
X122329607Y-69620962D01*
X122329607Y-69620962D02*
X122462708Y-69790300D01*
X122462708Y-69790300D02*
X122655590Y-69889255D01*
X122655590Y-69889255D02*
X122779859Y-69905116D01*
X122279976Y-56405048D02*
X122279976Y-69404879D01*
X122779859Y-55904811D02*
X122564001Y-55954449D01*
X122564001Y-55954449D02*
X122394763Y-56087603D01*
X122394763Y-56087603D02*
X122295835Y-56280636D01*
X122295835Y-56280636D02*
X122279976Y-56405048D01*
X135780045Y-55904811D02*
X122779859Y-55904811D01*
X136279927Y-56405048D02*
X136230297Y-56188964D01*
X136230297Y-56188964D02*
X136097199Y-56019626D01*
X136097199Y-56019626D02*
X135904316Y-55920671D01*
X135904316Y-55920671D02*
X135780045Y-55904811D01*
X136279927Y-69404879D02*
X136279927Y-56405048D01*
X192929902Y-69905116D02*
X193145759Y-69855477D01*
X193145759Y-69855477D02*
X193314996Y-69722323D01*
X193314996Y-69722323D02*
X193413924Y-69529290D01*
X193413924Y-69529290D02*
X193429784Y-69404879D01*
X179929716Y-69905116D02*
X192929902Y-69905116D01*
X179429834Y-69404879D02*
X179479465Y-69620962D01*
X179479465Y-69620962D02*
X179612565Y-69790300D01*
X179612565Y-69790300D02*
X179805447Y-69889255D01*
X179805447Y-69889255D02*
X179929716Y-69905116D01*
X179429834Y-56405048D02*
X179429834Y-69404879D01*
X179929716Y-55904811D02*
X179713858Y-55954449D01*
X179713858Y-55954449D02*
X179544621Y-56087603D01*
X179544621Y-56087603D02*
X179445693Y-56280636D01*
X179445693Y-56280636D02*
X179429834Y-56405048D01*
X192929902Y-55904811D02*
X179929716Y-55904811D01*
X193429784Y-56405048D02*
X193380152Y-56188964D01*
X193380152Y-56188964D02*
X193247051Y-56019626D01*
X193247051Y-56019626D02*
X193054170Y-55920671D01*
X193054170Y-55920671D02*
X192929902Y-55904811D01*
X193429784Y-69404879D02*
X193429784Y-56405048D01*
X97680140Y-69905116D02*
X97895999Y-69855477D01*
X97895999Y-69855477D02*
X98065236Y-69722323D01*
X98065236Y-69722323D02*
X98164162Y-69529290D01*
X98164162Y-69529290D02*
X98180022Y-69404879D01*
X84679959Y-69905116D02*
X97680140Y-69905116D01*
X84180072Y-69404879D02*
X84229702Y-69620962D01*
X84229702Y-69620962D02*
X84362802Y-69790300D01*
X84362802Y-69790300D02*
X84555686Y-69889255D01*
X84555686Y-69889255D02*
X84679959Y-69905116D01*
X84180072Y-56405048D02*
X84180072Y-69404879D01*
X84679959Y-55904811D02*
X84464095Y-55954449D01*
X84464095Y-55954449D02*
X84294858Y-56087603D01*
X84294858Y-56087603D02*
X84195931Y-56280636D01*
X84195931Y-56280636D02*
X84180072Y-56405048D01*
X97680140Y-55904811D02*
X84679959Y-55904811D01*
X98180022Y-56405048D02*
X98130391Y-56188964D01*
X98130391Y-56188964D02*
X97997292Y-56019626D01*
X97997292Y-56019626D02*
X97804410Y-55920671D01*
X97804410Y-55920671D02*
X97680140Y-55904811D01*
X98180022Y-69404879D02*
X98180022Y-56405048D01*
X231029806Y-69905116D02*
X231245663Y-69855477D01*
X231245663Y-69855477D02*
X231414901Y-69722323D01*
X231414901Y-69722323D02*
X231513829Y-69529290D01*
X231513829Y-69529290D02*
X231529689Y-69404879D01*
X218029620Y-69905116D02*
X231029806Y-69905116D01*
X217529738Y-69404879D02*
X217579369Y-69620962D01*
X217579369Y-69620962D02*
X217712470Y-69790300D01*
X217712470Y-69790300D02*
X217905351Y-69889255D01*
X217905351Y-69889255D02*
X218029620Y-69905116D01*
X217529738Y-56405048D02*
X217529738Y-69404879D01*
X218029620Y-55904811D02*
X217813762Y-55954449D01*
X217813762Y-55954449D02*
X217644525Y-56087603D01*
X217644525Y-56087603D02*
X217545597Y-56280636D01*
X217545597Y-56280636D02*
X217529738Y-56405048D01*
X231029806Y-55904811D02*
X218029620Y-55904811D01*
X231529689Y-56405048D02*
X231480057Y-56188964D01*
X231480057Y-56188964D02*
X231346956Y-56019626D01*
X231346956Y-56019626D02*
X231154074Y-55920671D01*
X231154074Y-55920671D02*
X231029806Y-55904811D01*
X231529689Y-69404879D02*
X231529689Y-56405048D01*
X38648921Y-56405048D02*
X38599290Y-56188964D01*
X38599290Y-56188964D02*
X38466190Y-56019626D01*
X38466190Y-56019626D02*
X38273307Y-55920671D01*
X38273307Y-55920671D02*
X38149036Y-55904811D01*
X38648921Y-69404879D02*
X38648921Y-56405048D01*
X38149036Y-69905116D02*
X38364897Y-69855477D01*
X38364897Y-69855477D02*
X38534134Y-69722323D01*
X38534134Y-69722323D02*
X38633061Y-69529290D01*
X38633061Y-69529290D02*
X38648921Y-69404879D01*
X22767611Y-69905116D02*
X38149036Y-69905116D01*
X22267726Y-69404879D02*
X22317356Y-69620962D01*
X22317356Y-69620962D02*
X22450456Y-69790300D01*
X22450456Y-69790300D02*
X22643339Y-69889255D01*
X22643339Y-69889255D02*
X22767611Y-69905116D01*
X22267726Y-56405048D02*
X22267726Y-69404879D01*
X22767611Y-55904811D02*
X22551749Y-55954449D01*
X22551749Y-55954449D02*
X22382512Y-56087603D01*
X22382512Y-56087603D02*
X22283585Y-56280636D01*
X22283585Y-56280636D02*
X22267726Y-56405048D01*
X38149036Y-55904811D02*
X22767611Y-55904811D01*
X69105211Y-88955069D02*
X69321070Y-88905430D01*
X69321070Y-88905430D02*
X69490307Y-88772275D01*
X69490307Y-88772275D02*
X69589233Y-88579243D01*
X69589233Y-88579243D02*
X69605093Y-88454831D01*
X56105031Y-88955069D02*
X69105211Y-88955069D01*
X55605143Y-88454831D02*
X55654773Y-88670914D01*
X55654773Y-88670914D02*
X55787873Y-88840253D01*
X55787873Y-88840253D02*
X55980758Y-88939208D01*
X55980758Y-88939208D02*
X56105031Y-88955069D01*
X55605143Y-75455000D02*
X55605143Y-88454831D01*
X56105031Y-74954763D02*
X55889167Y-75004401D01*
X55889167Y-75004401D02*
X55719929Y-75137555D01*
X55719929Y-75137555D02*
X55621002Y-75330588D01*
X55621002Y-75330588D02*
X55605143Y-75455000D01*
X69105211Y-74954763D02*
X56105031Y-74954763D01*
X69605093Y-75455000D02*
X69555462Y-75238916D01*
X69555462Y-75238916D02*
X69422363Y-75069578D01*
X69422363Y-75069578D02*
X69229481Y-74970623D01*
X69229481Y-74970623D02*
X69105211Y-74954763D01*
X69605093Y-88454831D02*
X69605093Y-75455000D01*
X88155164Y-88955069D02*
X88371023Y-88905430D01*
X88371023Y-88905430D02*
X88540260Y-88772275D01*
X88540260Y-88772275D02*
X88639186Y-88579243D01*
X88639186Y-88579243D02*
X88655046Y-88454831D01*
X75154983Y-88955069D02*
X88155164Y-88955069D01*
X74655096Y-88454831D02*
X74704726Y-88670914D01*
X74704726Y-88670914D02*
X74837826Y-88840253D01*
X74837826Y-88840253D02*
X75030710Y-88939208D01*
X75030710Y-88939208D02*
X75154983Y-88955069D01*
X222004712Y-75455000D02*
X221955080Y-75238916D01*
X221955080Y-75238916D02*
X221821980Y-75069578D01*
X221821980Y-75069578D02*
X221629098Y-74970623D01*
X221629098Y-74970623D02*
X221504830Y-74954763D01*
X222004712Y-88454831D02*
X222004712Y-75455000D01*
X19730203Y-62885208D02*
X19730203Y-62503847D01*
X19730203Y-62503847D02*
X19730203Y-62279803D01*
X19730203Y-62279803D02*
X19730203Y-62035584D01*
X19730203Y-62035584D02*
X19730203Y-61772743D01*
X19730203Y-61772743D02*
X19730203Y-61492832D01*
X19730203Y-61492832D02*
X19730203Y-61197403D01*
X19730203Y-61197403D02*
X19730203Y-60888007D01*
X19730203Y-60888007D02*
X19730203Y-60566196D01*
X19730203Y-60566196D02*
X19730203Y-60233522D01*
X19730203Y-60233522D02*
X19730203Y-59891538D01*
X19730203Y-59891538D02*
X19730203Y-59541794D01*
X19730203Y-59541794D02*
X19730203Y-59185843D01*
X19730203Y-59185843D02*
X19730203Y-58825236D01*
X19730203Y-58825236D02*
X19730203Y-58461525D01*
X19730203Y-58461525D02*
X19730203Y-58096263D01*
X19730203Y-58096263D02*
X19730203Y-57731001D01*
X19730203Y-57731001D02*
X19730203Y-57367290D01*
X19730203Y-57367290D02*
X19730203Y-57006683D01*
X19730203Y-57006683D02*
X19730203Y-56650732D01*
X19730203Y-56650732D02*
X19730203Y-56300988D01*
X19730203Y-56300988D02*
X19730203Y-55959003D01*
X19730203Y-55959003D02*
X19730203Y-55626330D01*
X19730203Y-55626330D02*
X19730203Y-55304519D01*
X19730203Y-55304519D02*
X19730203Y-54995123D01*
X19730203Y-54995123D02*
X19730203Y-54699693D01*
X19730203Y-54699693D02*
X19730203Y-54419782D01*
X19730203Y-54419782D02*
X19730203Y-54156941D01*
X19730203Y-54156941D02*
X19730203Y-53912722D01*
X19730203Y-53912722D02*
X19730203Y-53688677D01*
X19730203Y-53688677D02*
X19730203Y-53486358D01*
X19730203Y-53486358D02*
X19730203Y-53307317D01*
X19230318Y-63385096D02*
X19447102Y-63335765D01*
X19447102Y-63335765D02*
X19616100Y-63203096D01*
X19616100Y-63203096D02*
X19714474Y-63010067D01*
X19714474Y-63010067D02*
X19730203Y-62885208D01*
X17467844Y-63385096D02*
X17719313Y-63385096D01*
X17719313Y-63385096D02*
X17940202Y-63385096D01*
X17940202Y-63385096D02*
X18171915Y-63385096D01*
X18171915Y-63385096D02*
X18408265Y-63385096D01*
X18408265Y-63385096D02*
X18643070Y-63385096D01*
X18643070Y-63385096D02*
X18870143Y-63385096D01*
X18870143Y-63385096D02*
X19083301Y-63385096D01*
X19083301Y-63385096D02*
X19230318Y-63385096D01*
X16967960Y-62885208D02*
X17017229Y-63101838D01*
X17017229Y-63101838D02*
X17149810Y-63270878D01*
X17149810Y-63270878D02*
X17342866Y-63369345D01*
X17342866Y-63369345D02*
X17467844Y-63385096D01*
X16967960Y-53307317D02*
X16967960Y-53688677D01*
X16967960Y-53688677D02*
X16967960Y-53912722D01*
X16967960Y-53912722D02*
X16967960Y-54156941D01*
X16967960Y-54156941D02*
X16967960Y-54419782D01*
X16967960Y-54419782D02*
X16967960Y-54699693D01*
X16967960Y-54699693D02*
X16967960Y-54995123D01*
X16967960Y-54995123D02*
X16967960Y-55304519D01*
X16967960Y-55304519D02*
X16967960Y-55626330D01*
X16967960Y-55626330D02*
X16967960Y-55959003D01*
X16967960Y-55959003D02*
X16967960Y-56300988D01*
X16967960Y-56300988D02*
X16967960Y-56650732D01*
X16967960Y-56650732D02*
X16967960Y-57006683D01*
X16967960Y-57006683D02*
X16967960Y-57367290D01*
X16967960Y-57367290D02*
X16967960Y-57731001D01*
X16967960Y-57731001D02*
X16967960Y-58096263D01*
X16967960Y-58096263D02*
X16967960Y-58461525D01*
X16967960Y-58461525D02*
X16967960Y-58825236D01*
X16967960Y-58825236D02*
X16967960Y-59185843D01*
X16967960Y-59185843D02*
X16967960Y-59541794D01*
X16967960Y-59541794D02*
X16967960Y-59891538D01*
X16967960Y-59891538D02*
X16967960Y-60233522D01*
X16967960Y-60233522D02*
X16967960Y-60566196D01*
X16967960Y-60566196D02*
X16967960Y-60888007D01*
X16967960Y-60888007D02*
X16967960Y-61197403D01*
X16967960Y-61197403D02*
X16967960Y-61492832D01*
X16967960Y-61492832D02*
X16967960Y-61772743D01*
X16967960Y-61772743D02*
X16967960Y-62035584D01*
X16967960Y-62035584D02*
X16967960Y-62279803D01*
X16967960Y-62279803D02*
X16967960Y-62503847D01*
X16967960Y-62503847D02*
X16967960Y-62706166D01*
X16967960Y-62706166D02*
X16967960Y-62885208D01*
X17467844Y-52807433D02*
X17251060Y-52856762D01*
X17251060Y-52856762D02*
X17082062Y-52989429D01*
X17082062Y-52989429D02*
X16983688Y-53182456D01*
X16983688Y-53182456D02*
X16967960Y-53307317D01*
X19230318Y-52807433D02*
X18978848Y-52807433D01*
X18978848Y-52807433D02*
X18757959Y-52807433D01*
X18757959Y-52807433D02*
X18526247Y-52807433D01*
X18526247Y-52807433D02*
X18289897Y-52807433D01*
X18289897Y-52807433D02*
X18055092Y-52807433D01*
X18055092Y-52807433D02*
X17828018Y-52807433D01*
X17828018Y-52807433D02*
X17614860Y-52807433D01*
X17614860Y-52807433D02*
X17467844Y-52807433D01*
X19730203Y-53307317D02*
X19680933Y-53090686D01*
X19680933Y-53090686D02*
X19548351Y-52921648D01*
X19548351Y-52921648D02*
X19355295Y-52823183D01*
X19355295Y-52823183D02*
X19230318Y-52807433D01*
X154829997Y-69905116D02*
X155045859Y-69855477D01*
X155045859Y-69855477D02*
X155215094Y-69722323D01*
X155215094Y-69722323D02*
X155314019Y-69529290D01*
X155314019Y-69529290D02*
X155329879Y-69404879D01*
X141829811Y-69905116D02*
X154829997Y-69905116D01*
X141329929Y-69404879D02*
X141379560Y-69620962D01*
X141379560Y-69620962D02*
X141512660Y-69790300D01*
X141512660Y-69790300D02*
X141705542Y-69889255D01*
X141705542Y-69889255D02*
X141829811Y-69905116D01*
X141329929Y-56405048D02*
X141329929Y-69404879D01*
X141829811Y-55904811D02*
X141613953Y-55954449D01*
X141613953Y-55954449D02*
X141444716Y-56087603D01*
X141444716Y-56087603D02*
X141345788Y-56280636D01*
X141345788Y-56280636D02*
X141329929Y-56405048D01*
X154829997Y-55904811D02*
X141829811Y-55904811D01*
X65630007Y-36854861D02*
X65414143Y-36904499D01*
X65414143Y-36904499D02*
X65244905Y-37037653D01*
X65244905Y-37037653D02*
X65145978Y-37230686D01*
X65145978Y-37230686D02*
X65130119Y-37355098D01*
X78630187Y-36854861D02*
X65630007Y-36854861D01*
X79130070Y-37355098D02*
X79080439Y-37139014D01*
X79080439Y-37139014D02*
X78947340Y-36969676D01*
X78947340Y-36969676D02*
X78754457Y-36870721D01*
X78754457Y-36870721D02*
X78630187Y-36854861D01*
X79130070Y-50354926D02*
X79130070Y-37355098D01*
X236579691Y-37357214D02*
X236579691Y-37578448D01*
X236579691Y-37578448D02*
X236579691Y-37834986D01*
X236579691Y-37834986D02*
X236579691Y-38124484D01*
X236579691Y-38124484D02*
X236579691Y-38444600D01*
X236579691Y-38444600D02*
X236579691Y-38792992D01*
X236579691Y-38792992D02*
X236579691Y-39167318D01*
X236579691Y-39167318D02*
X236579691Y-39565234D01*
X236579691Y-39565234D02*
X236579691Y-39984399D01*
X236579691Y-39984399D02*
X236579691Y-40422470D01*
X236579691Y-40422470D02*
X236579691Y-40877105D01*
X236579691Y-40877105D02*
X236579691Y-41345962D01*
X236579691Y-41345962D02*
X236579691Y-41826698D01*
X236579691Y-41826698D02*
X236579691Y-42316971D01*
X236579691Y-42316971D02*
X236579691Y-42814438D01*
X236579691Y-42814438D02*
X236579691Y-43316758D01*
X236579691Y-43316758D02*
X236579691Y-43821587D01*
X236579691Y-43821587D02*
X236579691Y-44326584D01*
X236579691Y-44326584D02*
X236579691Y-44829405D01*
X236579691Y-44829405D02*
X236579691Y-45327710D01*
X236579691Y-45327710D02*
X236579691Y-45819155D01*
X236579691Y-45819155D02*
X236579691Y-46301397D01*
X236579691Y-46301397D02*
X236579691Y-46772096D01*
X236579691Y-46772096D02*
X236579691Y-47228908D01*
X236579691Y-47228908D02*
X236579691Y-47669490D01*
X236579691Y-47669490D02*
X236579691Y-48091501D01*
X236579691Y-48091501D02*
X236579691Y-48492599D01*
X236579691Y-48492599D02*
X236579691Y-48870440D01*
X236579691Y-48870440D02*
X236579691Y-49222683D01*
X236579691Y-49222683D02*
X236579691Y-49546985D01*
X236579691Y-49546985D02*
X236579691Y-49841003D01*
X236579691Y-49841003D02*
X236579691Y-50102396D01*
X236579691Y-50102396D02*
X236579691Y-50328822D01*
X236725030Y-37005850D02*
X236612945Y-37178371D01*
X236612945Y-37178371D02*
X236579691Y-37357214D01*
X237076408Y-36860505D02*
X236875288Y-36903018D01*
X236875288Y-36903018D02*
X236725030Y-37005850D01*
X297677122Y-36865444D02*
X297020795Y-36865399D01*
X297020795Y-36865399D02*
X296124026Y-36865334D01*
X296124026Y-36865334D02*
X295002877Y-36865248D01*
X295002877Y-36865248D02*
X293673406Y-36865144D01*
X293673406Y-36865144D02*
X292151676Y-36865023D01*
X292151676Y-36865023D02*
X290453746Y-36864887D01*
X290453746Y-36864887D02*
X288595677Y-36864736D01*
X288595677Y-36864736D02*
X286593531Y-36864573D01*
X286593531Y-36864573D02*
X284463367Y-36864398D01*
X284463367Y-36864398D02*
X282221247Y-36864213D01*
X282221247Y-36864213D02*
X279883231Y-36864019D01*
X279883231Y-36864019D02*
X277465380Y-36863819D01*
X277465380Y-36863819D02*
X274983754Y-36863613D01*
X274983754Y-36863613D02*
X272454414Y-36863402D01*
X272454414Y-36863402D02*
X269893421Y-36863189D01*
X269893421Y-36863189D02*
X267316836Y-36862974D01*
X267316836Y-36862974D02*
X264740719Y-36862759D01*
X264740719Y-36862759D02*
X262181131Y-36862546D01*
X262181131Y-36862546D02*
X259654132Y-36862335D01*
X259654132Y-36862335D02*
X257175783Y-36862129D01*
X257175783Y-36862129D02*
X254762146Y-36861929D01*
X254762146Y-36861929D02*
X252429280Y-36861735D01*
X252429280Y-36861735D02*
X250193246Y-36861550D01*
X250193246Y-36861550D02*
X248070105Y-36861376D01*
X248070105Y-36861376D02*
X246075918Y-36861212D01*
X246075918Y-36861212D02*
X244226746Y-36861061D01*
X244226746Y-36861061D02*
X242538648Y-36860925D01*
X242538648Y-36860925D02*
X241027686Y-36860804D01*
X241027686Y-36860804D02*
X239709920Y-36860700D01*
X239709920Y-36860700D02*
X238601411Y-36860614D01*
X238601411Y-36860614D02*
X237718220Y-36860549D01*
X237718220Y-36860549D02*
X237076408Y-36860505D01*
X298204522Y-37393199D02*
X298163092Y-37187854D01*
X298163092Y-37187854D02*
X298050093Y-37020180D01*
X298050093Y-37020180D02*
X297882458Y-36907076D01*
X297882458Y-36907076D02*
X297677122Y-36865444D01*
X298204522Y-50316473D02*
X298204522Y-50089598D01*
X298204522Y-50089598D02*
X298204522Y-49828349D01*
X298204522Y-49828349D02*
X298204522Y-49535019D01*
X298204522Y-49535019D02*
X298204522Y-49211905D01*
X298204522Y-49211905D02*
X298204522Y-48861302D01*
X298204522Y-48861302D02*
X298204522Y-48485507D01*
X298204522Y-48485507D02*
X298204522Y-48086815D01*
X298204522Y-48086815D02*
X298204522Y-47667522D01*
X298204522Y-47667522D02*
X298204522Y-47229923D01*
X298204522Y-47229923D02*
X298204522Y-46776315D01*
X298204522Y-46776315D02*
X298204522Y-46308993D01*
X298204522Y-46308993D02*
X298204522Y-45830253D01*
X298204522Y-45830253D02*
X298204522Y-45342392D01*
X298204522Y-45342392D02*
X298204522Y-44847703D01*
X298204522Y-44847703D02*
X298204522Y-44348484D01*
X298204522Y-44348484D02*
X298204522Y-43847031D01*
X298204522Y-43847031D02*
X298204522Y-43345638D01*
X298204522Y-43345638D02*
X298204522Y-42846602D01*
X298204522Y-42846602D02*
X298204522Y-42352218D01*
X298204522Y-42352218D02*
X298204522Y-41864783D01*
X298204522Y-41864783D02*
X298204522Y-41386592D01*
X298204522Y-41386592D02*
X298204522Y-40919941D01*
X298204522Y-40919941D02*
X298204522Y-40467126D01*
X298204522Y-40467126D02*
X298204522Y-40030442D01*
X298204522Y-40030442D02*
X298204522Y-39612185D01*
X298204522Y-39612185D02*
X298204522Y-39214652D01*
X298204522Y-39214652D02*
X298204522Y-38840137D01*
X298204522Y-38840137D02*
X298204522Y-38490937D01*
X298204522Y-38490937D02*
X298204522Y-38169347D01*
X298204522Y-38169347D02*
X298204522Y-37877664D01*
X298204522Y-37877664D02*
X298204522Y-37618182D01*
X298204522Y-37618182D02*
X298204522Y-37393199D01*
X297666184Y-50855164D02*
X297875763Y-50812814D01*
X297875763Y-50812814D02*
X298046876Y-50697340D01*
X298046876Y-50697340D02*
X298162228Y-50526105D01*
X298162228Y-50526105D02*
X298204522Y-50316473D01*
X237106035Y-50855164D02*
X237759933Y-50855164D01*
X237759933Y-50855164D02*
X238653195Y-50855164D01*
X238653195Y-50855164D02*
X239769877Y-50855164D01*
X239769877Y-50855164D02*
X241094032Y-50855164D01*
X241094032Y-50855164D02*
X242609716Y-50855164D01*
X242609716Y-50855164D02*
X244300981Y-50855164D01*
X244300981Y-50855164D02*
X246151885Y-50855164D01*
X246151885Y-50855164D02*
X248146480Y-50855164D01*
X248146480Y-50855164D02*
X250268821Y-50855164D01*
X250268821Y-50855164D02*
X252502963Y-50855164D01*
X252502963Y-50855164D02*
X254832961Y-50855164D01*
X254832961Y-50855164D02*
X257242869Y-50855164D01*
X257242869Y-50855164D02*
X259716742Y-50855164D01*
X259716742Y-50855164D02*
X262238634Y-50855164D01*
X262238634Y-50855164D02*
X264792599Y-50855164D01*
X264792599Y-50855164D02*
X267362693Y-50855164D01*
X267362693Y-50855164D02*
X269932970Y-50855164D01*
X269932970Y-50855164D02*
X272487485Y-50855164D01*
X272487485Y-50855164D02*
X275010291Y-50855164D01*
X275010291Y-50855164D02*
X277485444Y-50855164D01*
X277485444Y-50855164D02*
X279896999Y-50855164D01*
X279896999Y-50855164D02*
X282229009Y-50855164D01*
X282229009Y-50855164D02*
X284465529Y-50855164D01*
X284465529Y-50855164D02*
X286590615Y-50855164D01*
X286590615Y-50855164D02*
X288588320Y-50855164D01*
X288588320Y-50855164D02*
X290442699Y-50855164D01*
X290442699Y-50855164D02*
X292137806Y-50855164D01*
X292137806Y-50855164D02*
X293657697Y-50855164D01*
X293657697Y-50855164D02*
X294986426Y-50855164D01*
X294986426Y-50855164D02*
X296108046Y-50855164D01*
X296108046Y-50855164D02*
X297006614Y-50855164D01*
X297006614Y-50855164D02*
X297666184Y-50855164D01*
X236579691Y-50328822D02*
X236621055Y-50533696D01*
X236621055Y-50533696D02*
X236733858Y-50701000D01*
X236733858Y-50701000D02*
X236901163Y-50813800D01*
X236901163Y-50813800D02*
X237106035Y-50855164D01*
X193429784Y-37355098D02*
X193380152Y-37139014D01*
X193380152Y-37139014D02*
X193247051Y-36969676D01*
X193247051Y-36969676D02*
X193054170Y-36870721D01*
X193054170Y-36870721D02*
X192929902Y-36854861D01*
X193429784Y-50354926D02*
X193429784Y-37355098D01*
X78630187Y-50855164D02*
X78846047Y-50805525D01*
X78846047Y-50805525D02*
X79015284Y-50672370D01*
X79015284Y-50672370D02*
X79114210Y-50479338D01*
X79114210Y-50479338D02*
X79130070Y-50354926D01*
X65630007Y-50855164D02*
X78630187Y-50855164D01*
X65130119Y-50354926D02*
X65179749Y-50571009D01*
X65179749Y-50571009D02*
X65312849Y-50740348D01*
X65312849Y-50740348D02*
X65505734Y-50839303D01*
X65505734Y-50839303D02*
X65630007Y-50855164D01*
X65130119Y-37355098D02*
X65130119Y-50354926D01*
X97680140Y-36854861D02*
X84679959Y-36854861D01*
X98180022Y-37355098D02*
X98130391Y-37139014D01*
X98130391Y-37139014D02*
X97997292Y-36969676D01*
X97997292Y-36969676D02*
X97804410Y-36870721D01*
X97804410Y-36870721D02*
X97680140Y-36854861D01*
X98180022Y-50354926D02*
X98180022Y-37355098D01*
X36267677Y-37355098D02*
X36218046Y-37139014D01*
X36218046Y-37139014D02*
X36084946Y-36969676D01*
X36084946Y-36969676D02*
X35892063Y-36870721D01*
X35892063Y-36870721D02*
X35767792Y-36854861D01*
X36267677Y-50354926D02*
X36267677Y-37355098D01*
X35767792Y-50855164D02*
X35983653Y-50805525D01*
X35983653Y-50805525D02*
X36152890Y-50672370D01*
X36152890Y-50672370D02*
X36251817Y-50479338D01*
X36251817Y-50479338D02*
X36267677Y-50354926D01*
X22767611Y-50855164D02*
X35767792Y-50855164D01*
X22267726Y-50354926D02*
X22317356Y-50571009D01*
X22317356Y-50571009D02*
X22450456Y-50740348D01*
X22450456Y-50740348D02*
X22643339Y-50839303D01*
X22643339Y-50839303D02*
X22767611Y-50855164D01*
X22267726Y-37355098D02*
X22267726Y-50354926D01*
X22767611Y-36854861D02*
X22551749Y-36904499D01*
X22551749Y-36904499D02*
X22382512Y-37037653D01*
X22382512Y-37037653D02*
X22283585Y-37230686D01*
X22283585Y-37230686D02*
X22267726Y-37355098D01*
X35767792Y-36854861D02*
X22767611Y-36854861D01*
X192929902Y-50855164D02*
X193145759Y-50805525D01*
X193145759Y-50805525D02*
X193314996Y-50672370D01*
X193314996Y-50672370D02*
X193413924Y-50479338D01*
X193413924Y-50479338D02*
X193429784Y-50354926D01*
X179929716Y-50855164D02*
X192929902Y-50855164D01*
X179429834Y-50354926D02*
X179479465Y-50571009D01*
X179479465Y-50571009D02*
X179612565Y-50740348D01*
X179612565Y-50740348D02*
X179805447Y-50839303D01*
X179805447Y-50839303D02*
X179929716Y-50855164D01*
X179429834Y-37355098D02*
X179429834Y-50354926D01*
X179929716Y-36854861D02*
X179713858Y-36904499D01*
X179713858Y-36904499D02*
X179544621Y-37037653D01*
X179544621Y-37037653D02*
X179445693Y-37230686D01*
X179445693Y-37230686D02*
X179429834Y-37355098D01*
X192929902Y-36854861D02*
X179929716Y-36854861D01*
X141829811Y-36854861D02*
X141613953Y-36904499D01*
X141613953Y-36904499D02*
X141444716Y-37037653D01*
X141444716Y-37037653D02*
X141345788Y-37230686D01*
X141345788Y-37230686D02*
X141329929Y-37355098D01*
X154829997Y-36854861D02*
X141829811Y-36854861D01*
X155329879Y-37355098D02*
X155280249Y-37139014D01*
X155280249Y-37139014D02*
X155147151Y-36969676D01*
X155147151Y-36969676D02*
X154954268Y-36870721D01*
X154954268Y-36870721D02*
X154829997Y-36854861D01*
X155329879Y-50354926D02*
X155329879Y-37355098D01*
X97680140Y-50855164D02*
X97895999Y-50805525D01*
X97895999Y-50805525D02*
X98065236Y-50672370D01*
X98065236Y-50672370D02*
X98164162Y-50479338D01*
X98164162Y-50479338D02*
X98180022Y-50354926D01*
X84679959Y-50855164D02*
X97680140Y-50855164D01*
X84180072Y-50354926D02*
X84229702Y-50571009D01*
X84229702Y-50571009D02*
X84362802Y-50740348D01*
X84362802Y-50740348D02*
X84555686Y-50839303D01*
X84555686Y-50839303D02*
X84679959Y-50855164D01*
X84180072Y-37355098D02*
X84180072Y-50354926D01*
X84679959Y-36854861D02*
X84464095Y-36904499D01*
X84464095Y-36904499D02*
X84294858Y-37037653D01*
X84294858Y-37037653D02*
X84195931Y-37230686D01*
X84195931Y-37230686D02*
X84180072Y-37355098D01*
X46580052Y-36854861D02*
X46364190Y-36904499D01*
X46364190Y-36904499D02*
X46194953Y-37037653D01*
X46194953Y-37037653D02*
X46096026Y-37230686D01*
X46096026Y-37230686D02*
X46080167Y-37355098D01*
X59580235Y-36854861D02*
X46580052Y-36854861D01*
X60080117Y-37355098D02*
X60030486Y-37139014D01*
X60030486Y-37139014D02*
X59897387Y-36969676D01*
X59897387Y-36969676D02*
X59704505Y-36870721D01*
X59704505Y-36870721D02*
X59580235Y-36854861D01*
X60080117Y-50354926D02*
X60080117Y-37355098D01*
X59580235Y-50855164D02*
X59796094Y-50805525D01*
X59796094Y-50805525D02*
X59965331Y-50672370D01*
X59965331Y-50672370D02*
X60064257Y-50479338D01*
X60064257Y-50479338D02*
X60080117Y-50354926D01*
X46580052Y-50855164D02*
X59580235Y-50855164D01*
X135780045Y-50855164D02*
X135995907Y-50805525D01*
X135995907Y-50805525D02*
X136165142Y-50672370D01*
X136165142Y-50672370D02*
X136264067Y-50479338D01*
X136264067Y-50479338D02*
X136279927Y-50354926D01*
X122779859Y-50855164D02*
X135780045Y-50855164D01*
X122279976Y-50354926D02*
X122329607Y-50571009D01*
X122329607Y-50571009D02*
X122462708Y-50740348D01*
X122462708Y-50740348D02*
X122655590Y-50839303D01*
X122655590Y-50839303D02*
X122779859Y-50855164D01*
X122279976Y-37355098D02*
X122279976Y-50354926D01*
X122779859Y-36854861D02*
X122564001Y-36904499D01*
X122564001Y-36904499D02*
X122394763Y-37037653D01*
X122394763Y-37037653D02*
X122295835Y-37230686D01*
X122295835Y-37230686D02*
X122279976Y-37355098D01*
X135780045Y-36854861D02*
X122779859Y-36854861D01*
X136279927Y-37355098D02*
X136230297Y-37139014D01*
X136230297Y-37139014D02*
X136097199Y-36969676D01*
X136097199Y-36969676D02*
X135904316Y-36870721D01*
X135904316Y-36870721D02*
X135780045Y-36854861D01*
X136279927Y-50354926D02*
X136279927Y-37355098D01*
X154829997Y-50855164D02*
X155045859Y-50805525D01*
X155045859Y-50805525D02*
X155215094Y-50672370D01*
X155215094Y-50672370D02*
X155314019Y-50479338D01*
X155314019Y-50479338D02*
X155329879Y-50354926D01*
X141829811Y-50855164D02*
X154829997Y-50855164D01*
X141329929Y-50354926D02*
X141379560Y-50571009D01*
X141379560Y-50571009D02*
X141512660Y-50740348D01*
X141512660Y-50740348D02*
X141705542Y-50839303D01*
X141705542Y-50839303D02*
X141829811Y-50855164D01*
X141329929Y-37355098D02*
X141329929Y-50354926D01*
X198979668Y-36854861D02*
X198763810Y-36904499D01*
X198763810Y-36904499D02*
X198594573Y-37037653D01*
X198594573Y-37037653D02*
X198495645Y-37230686D01*
X198495645Y-37230686D02*
X198479786Y-37355098D01*
X211979854Y-36854861D02*
X198979668Y-36854861D01*
X212479736Y-37355098D02*
X212430104Y-37139014D01*
X212430104Y-37139014D02*
X212297004Y-36969676D01*
X212297004Y-36969676D02*
X212104122Y-36870721D01*
X212104122Y-36870721D02*
X211979854Y-36854861D01*
X212479736Y-50354926D02*
X212479736Y-37355098D01*
X116730092Y-50855164D02*
X116945954Y-50805525D01*
X116945954Y-50805525D02*
X117115190Y-50672370D01*
X117115190Y-50672370D02*
X117214114Y-50479338D01*
X117214114Y-50479338D02*
X117229974Y-50354926D01*
X103729906Y-50855164D02*
X116730092Y-50855164D01*
X103230024Y-50354926D02*
X103279655Y-50571009D01*
X103279655Y-50571009D02*
X103412755Y-50740348D01*
X103412755Y-50740348D02*
X103605637Y-50839303D01*
X103605637Y-50839303D02*
X103729906Y-50855164D01*
X103230024Y-37355098D02*
X103230024Y-50354926D01*
X103729906Y-36854861D02*
X103514048Y-36904499D01*
X103514048Y-36904499D02*
X103344811Y-37037653D01*
X103344811Y-37037653D02*
X103245883Y-37230686D01*
X103245883Y-37230686D02*
X103230024Y-37355098D01*
X116730092Y-36854861D02*
X103729906Y-36854861D01*
X117229974Y-37355098D02*
X117180344Y-37139014D01*
X117180344Y-37139014D02*
X117047246Y-36969676D01*
X117047246Y-36969676D02*
X116854364Y-36870721D01*
X116854364Y-36870721D02*
X116730092Y-36854861D01*
X117229974Y-50354926D02*
X117229974Y-37355098D01*
X231029806Y-50855164D02*
X231245663Y-50805525D01*
X231245663Y-50805525D02*
X231414901Y-50672370D01*
X231414901Y-50672370D02*
X231513829Y-50479338D01*
X231513829Y-50479338D02*
X231529689Y-50354926D01*
X218029620Y-50855164D02*
X231029806Y-50855164D01*
X217529738Y-50354926D02*
X217579369Y-50571009D01*
X217579369Y-50571009D02*
X217712470Y-50740348D01*
X217712470Y-50740348D02*
X217905351Y-50839303D01*
X217905351Y-50839303D02*
X218029620Y-50855164D01*
X217529738Y-37355098D02*
X217529738Y-50354926D01*
X218029620Y-36854861D02*
X217813762Y-36904499D01*
X217813762Y-36904499D02*
X217644525Y-37037653D01*
X217644525Y-37037653D02*
X217545597Y-37230686D01*
X217545597Y-37230686D02*
X217529738Y-37355098D01*
X231029806Y-36854861D02*
X218029620Y-36854861D01*
X231529689Y-37355098D02*
X231480057Y-37139014D01*
X231480057Y-37139014D02*
X231346956Y-36969676D01*
X231346956Y-36969676D02*
X231154074Y-36870721D01*
X231154074Y-36870721D02*
X231029806Y-36854861D01*
X231529689Y-50354926D02*
X231529689Y-37355098D01*
X173879949Y-50855164D02*
X174095811Y-50805525D01*
X174095811Y-50805525D02*
X174265047Y-50672370D01*
X174265047Y-50672370D02*
X174363971Y-50479338D01*
X174363971Y-50479338D02*
X174379831Y-50354926D01*
X160879763Y-50855164D02*
X173879949Y-50855164D01*
X160379881Y-50354926D02*
X160429512Y-50571009D01*
X160429512Y-50571009D02*
X160562613Y-50740348D01*
X160562613Y-50740348D02*
X160755494Y-50839303D01*
X160755494Y-50839303D02*
X160879763Y-50855164D01*
X160379881Y-37355098D02*
X160379881Y-50354926D01*
X160879763Y-36854861D02*
X160663905Y-36904499D01*
X160663905Y-36904499D02*
X160494668Y-37037653D01*
X160494668Y-37037653D02*
X160395740Y-37230686D01*
X160395740Y-37230686D02*
X160379881Y-37355098D01*
X173879949Y-36854861D02*
X160879763Y-36854861D01*
X174379831Y-37355098D02*
X174330201Y-37139014D01*
X174330201Y-37139014D02*
X174197103Y-36969676D01*
X174197103Y-36969676D02*
X174004221Y-36870721D01*
X174004221Y-36870721D02*
X173879949Y-36854861D01*
X174379831Y-50354926D02*
X174379831Y-37355098D01*
X46080167Y-50354926D02*
X46129797Y-50571009D01*
X46129797Y-50571009D02*
X46262897Y-50740348D01*
X46262897Y-50740348D02*
X46455780Y-50839303D01*
X46455780Y-50839303D02*
X46580052Y-50855164D01*
X46080167Y-37355098D02*
X46080167Y-50354926D01*
X198479786Y-37355098D02*
X198479786Y-50354926D01*
X265148267Y-18307615D02*
X265197906Y-18091753D01*
X265197906Y-18091753D02*
X265331064Y-17922516D01*
X265331064Y-17922516D02*
X265524101Y-17823590D01*
X265524101Y-17823590D02*
X265648516Y-17807731D01*
X265148267Y-31308150D02*
X265148267Y-18307615D01*
X265648516Y-31808035D02*
X265432428Y-31758404D01*
X265432428Y-31758404D02*
X265263085Y-31625304D01*
X265263085Y-31625304D02*
X265164128Y-31432421D01*
X265164128Y-31432421D02*
X265148267Y-31308150D01*
X266235171Y-31808035D02*
X265648516Y-31808035D01*
X266235171Y-33308042D02*
X266235171Y-31808035D01*
X266735419Y-33808279D02*
X266519331Y-33758640D01*
X266519331Y-33758640D02*
X266349989Y-33625486D01*
X266349989Y-33625486D02*
X266251032Y-33432453D01*
X266251032Y-33432453D02*
X266235171Y-33308042D01*
X272735447Y-33808279D02*
X266735419Y-33808279D01*
X273235329Y-33308042D02*
X273185760Y-33524125D01*
X273185760Y-33524125D02*
X273052749Y-33693463D01*
X273052749Y-33693463D02*
X272859837Y-33792418D01*
X272859837Y-33792418D02*
X272735447Y-33808279D01*
X273235329Y-31808035D02*
X273235329Y-33308042D01*
X290111819Y-31808035D02*
X273235329Y-31808035D01*
X290111819Y-33308042D02*
X290111819Y-31808035D01*
X290611701Y-33808279D02*
X290395843Y-33758640D01*
X290395843Y-33758640D02*
X290226606Y-33625486D01*
X290226606Y-33625486D02*
X290127678Y-33432453D01*
X290127678Y-33432453D02*
X290111819Y-33308042D01*
X296611729Y-33808279D02*
X290611701Y-33808279D01*
X297111977Y-33308042D02*
X297062337Y-33524125D01*
X297062337Y-33524125D02*
X296929180Y-33693463D01*
X296929180Y-33693463D02*
X296736143Y-33792418D01*
X296736143Y-33792418D02*
X296611729Y-33808279D01*
X297111977Y-31808035D02*
X297111977Y-33308042D01*
X297698998Y-31808035D02*
X297111977Y-31808035D01*
X298198881Y-31308150D02*
X298149249Y-31524011D01*
X298149249Y-31524011D02*
X298016148Y-31693248D01*
X298016148Y-31693248D02*
X297823266Y-31792175D01*
X297823266Y-31792175D02*
X297698998Y-31808035D01*
X298198881Y-18307615D02*
X298198881Y-31308150D01*
X297698998Y-17807731D02*
X297914855Y-17857361D01*
X297914855Y-17857361D02*
X298084093Y-17990461D01*
X298084093Y-17990461D02*
X298183021Y-18183344D01*
X298183021Y-18183344D02*
X298198881Y-18307615D01*
X42945743Y-43510702D02*
X42933340Y-43265507D01*
X42933340Y-43265507D02*
X42896938Y-43027353D01*
X42896938Y-43027353D02*
X42837750Y-42797451D01*
X42837750Y-42797451D02*
X42756985Y-42577012D01*
X42756985Y-42577012D02*
X42655856Y-42367247D01*
X42655856Y-42367247D02*
X42535574Y-42169367D01*
X42535574Y-42169367D02*
X42397350Y-41984585D01*
X42397350Y-41984585D02*
X42242395Y-41814111D01*
X42242395Y-41814111D02*
X42071920Y-41659155D01*
X42071920Y-41659155D02*
X41887138Y-41520931D01*
X41887138Y-41520931D02*
X41689258Y-41400649D01*
X41689258Y-41400649D02*
X41479493Y-41299520D01*
X41479493Y-41299520D02*
X41259054Y-41218755D01*
X41259054Y-41218755D02*
X41029152Y-41159567D01*
X41029152Y-41159567D02*
X40790998Y-41123165D01*
X40790998Y-41123165D02*
X40545804Y-41110763D01*
X40545804Y-45910996D02*
X40790998Y-45898592D01*
X40790998Y-45898592D02*
X41029152Y-45862190D01*
X41029152Y-45862190D02*
X41259054Y-45803000D01*
X41259054Y-45803000D02*
X41479493Y-45722233D01*
X41479493Y-45722233D02*
X41689258Y-45621098D01*
X41689258Y-45621098D02*
X41887138Y-45500808D01*
X41887138Y-45500808D02*
X42071920Y-45362573D01*
X42071920Y-45362573D02*
X42242395Y-45207603D01*
X42242395Y-45207603D02*
X42397350Y-45037110D01*
X42397350Y-45037110D02*
X42535574Y-44852304D01*
X42535574Y-44852304D02*
X42655856Y-44654396D01*
X42655856Y-44654396D02*
X42756985Y-44444596D01*
X42756985Y-44444596D02*
X42837750Y-44224117D01*
X42837750Y-44224117D02*
X42896938Y-43994167D01*
X42896938Y-43994167D02*
X42933340Y-43755958D01*
X42933340Y-43755958D02*
X42945743Y-43510702D01*
X38145510Y-43510702D02*
X38157913Y-43755958D01*
X38157913Y-43755958D02*
X38194315Y-43994167D01*
X38194315Y-43994167D02*
X38253505Y-44224117D01*
X38253505Y-44224117D02*
X38334272Y-44444596D01*
X38334272Y-44444596D02*
X38435407Y-44654396D01*
X38435407Y-44654396D02*
X38555697Y-44852304D01*
X38555697Y-44852304D02*
X38693932Y-45037110D01*
X38693932Y-45037110D02*
X38848902Y-45207603D01*
X38848902Y-45207603D02*
X39019395Y-45362573D01*
X39019395Y-45362573D02*
X39204201Y-45500808D01*
X39204201Y-45500808D02*
X39402109Y-45621098D01*
X39402109Y-45621098D02*
X39611909Y-45722233D01*
X39611909Y-45722233D02*
X39832388Y-45803000D01*
X39832388Y-45803000D02*
X40062338Y-45862190D01*
X40062338Y-45862190D02*
X40300547Y-45898592D01*
X40300547Y-45898592D02*
X40545804Y-45910996D01*
X40545804Y-41110763D02*
X40300547Y-41123165D01*
X40300547Y-41123165D02*
X40062338Y-41159567D01*
X40062338Y-41159567D02*
X39832388Y-41218755D01*
X39832388Y-41218755D02*
X39611909Y-41299520D01*
X39611909Y-41299520D02*
X39402109Y-41400649D01*
X39402109Y-41400649D02*
X39204201Y-41520931D01*
X39204201Y-41520931D02*
X39019395Y-41659155D01*
X39019395Y-41659155D02*
X38848902Y-41814111D01*
X38848902Y-41814111D02*
X38693932Y-41984585D01*
X38693932Y-41984585D02*
X38555697Y-42169367D01*
X38555697Y-42169367D02*
X38435407Y-42367247D01*
X38435407Y-42367247D02*
X38334272Y-42577012D01*
X38334272Y-42577012D02*
X38253505Y-42797451D01*
X38253505Y-42797451D02*
X38194315Y-43027353D01*
X38194315Y-43027353D02*
X38157913Y-43265507D01*
X38157913Y-43265507D02*
X38145510Y-43510702D01*
X211979854Y-50855164D02*
X212195711Y-50805525D01*
X212195711Y-50805525D02*
X212364948Y-50672370D01*
X212364948Y-50672370D02*
X212463876Y-50479338D01*
X212463876Y-50479338D02*
X212479736Y-50354926D01*
X198979668Y-50855164D02*
X211979854Y-50855164D01*
X198479786Y-50354926D02*
X198529417Y-50571009D01*
X198529417Y-50571009D02*
X198662517Y-50740348D01*
X198662517Y-50740348D02*
X198855399Y-50839303D01*
X198855399Y-50839303D02*
X198979668Y-50855164D01*
X170404739Y-17804909D02*
X170188881Y-17854547D01*
X170188881Y-17854547D02*
X170019644Y-17987701D01*
X170019644Y-17987701D02*
X169920716Y-18180734D01*
X169920716Y-18180734D02*
X169904857Y-18305146D01*
X183404926Y-17804909D02*
X170404739Y-17804909D01*
X183904808Y-18305146D02*
X183855178Y-18089062D01*
X183855178Y-18089062D02*
X183722080Y-17919724D01*
X183722080Y-17919724D02*
X183529197Y-17820769D01*
X183529197Y-17820769D02*
X183404926Y-17804909D01*
X183904808Y-31304974D02*
X183904808Y-18305146D01*
X265648516Y-17807731D02*
X297698998Y-17807731D01*
X31505190Y-18305146D02*
X31455559Y-18089062D01*
X31455559Y-18089062D02*
X31322459Y-17919724D01*
X31322459Y-17919724D02*
X31129576Y-17820769D01*
X31129576Y-17820769D02*
X31005305Y-17804909D01*
X31505190Y-31304974D02*
X31505190Y-18305146D01*
X36555191Y-31304974D02*
X36604821Y-31521057D01*
X36604821Y-31521057D02*
X36737921Y-31690396D01*
X36737921Y-31690396D02*
X36930804Y-31789352D01*
X36930804Y-31789352D02*
X37055076Y-31805213D01*
X36555191Y-18305146D02*
X36555191Y-31304974D01*
X37055076Y-17804909D02*
X36839214Y-17854547D01*
X36839214Y-17854547D02*
X36669977Y-17987701D01*
X36669977Y-17987701D02*
X36571050Y-18180734D01*
X36571050Y-18180734D02*
X36555191Y-18305146D01*
X50055256Y-17804909D02*
X37055076Y-17804909D01*
X50555141Y-18305146D02*
X50505510Y-18089062D01*
X50505510Y-18089062D02*
X50372410Y-17919724D01*
X50372410Y-17919724D02*
X50179527Y-17820769D01*
X50179527Y-17820769D02*
X50055256Y-17804909D01*
X50555141Y-31304974D02*
X50555141Y-18305146D01*
X50055256Y-31805213D02*
X50271117Y-31755574D01*
X50271117Y-31755574D02*
X50440354Y-31622418D01*
X50440354Y-31622418D02*
X50539281Y-31429386D01*
X50539281Y-31429386D02*
X50555141Y-31304974D01*
X37055076Y-31805213D02*
X50055256Y-31805213D01*
X183404926Y-31805213D02*
X183620788Y-31755574D01*
X183620788Y-31755574D02*
X183790023Y-31622418D01*
X183790023Y-31622418D02*
X183888948Y-31429386D01*
X183888948Y-31429386D02*
X183904808Y-31304974D01*
X170404739Y-31805213D02*
X183404926Y-31805213D01*
X169904857Y-31304974D02*
X169954488Y-31521057D01*
X169954488Y-31521057D02*
X170087589Y-31690396D01*
X170087589Y-31690396D02*
X170280470Y-31789352D01*
X170280470Y-31789352D02*
X170404739Y-31805213D01*
X169904857Y-18305146D02*
X169904857Y-31304974D01*
X164854855Y-31304974D02*
X164854855Y-18305146D01*
X221504830Y-31805213D02*
X221720687Y-31755574D01*
X221720687Y-31755574D02*
X221889924Y-31622418D01*
X221889924Y-31622418D02*
X221988852Y-31429386D01*
X221988852Y-31429386D02*
X222004712Y-31304974D01*
X208504644Y-31805213D02*
X221504830Y-31805213D01*
X208004762Y-31304974D02*
X208054393Y-31521057D01*
X208054393Y-31521057D02*
X208187494Y-31690396D01*
X208187494Y-31690396D02*
X208380375Y-31789352D01*
X208380375Y-31789352D02*
X208504644Y-31805213D01*
X208004762Y-18305146D02*
X208004762Y-31304974D01*
X208504644Y-17804909D02*
X208288786Y-17854547D01*
X208288786Y-17854547D02*
X208119549Y-17987701D01*
X208119549Y-17987701D02*
X208020621Y-18180734D01*
X208020621Y-18180734D02*
X208004762Y-18305146D01*
X221504830Y-17804909D02*
X208504644Y-17804909D01*
X222004712Y-18305146D02*
X221955080Y-18089062D01*
X221955080Y-18089062D02*
X221821980Y-17919724D01*
X221821980Y-17919724D02*
X221629098Y-17820769D01*
X221629098Y-17820769D02*
X221504830Y-17804909D01*
X222004712Y-31304974D02*
X222004712Y-18305146D01*
X88155164Y-31805213D02*
X88371023Y-31755574D01*
X88371023Y-31755574D02*
X88540260Y-31622418D01*
X88540260Y-31622418D02*
X88639186Y-31429386D01*
X88639186Y-31429386D02*
X88655046Y-31304974D01*
X75154983Y-31805213D02*
X88155164Y-31805213D01*
X74655096Y-31304974D02*
X74704726Y-31521057D01*
X74704726Y-31521057D02*
X74837826Y-31690396D01*
X74837826Y-31690396D02*
X75030710Y-31789352D01*
X75030710Y-31789352D02*
X75154983Y-31805213D01*
X74655096Y-18305146D02*
X74655096Y-31304974D01*
X75154983Y-17804909D02*
X74939119Y-17854547D01*
X74939119Y-17854547D02*
X74769881Y-17987701D01*
X74769881Y-17987701D02*
X74670955Y-18180734D01*
X74670955Y-18180734D02*
X74655096Y-18305146D01*
X88155164Y-17804909D02*
X75154983Y-17804909D01*
X88655046Y-18305146D02*
X88605415Y-18089062D01*
X88605415Y-18089062D02*
X88472316Y-17919724D01*
X88472316Y-17919724D02*
X88279434Y-17820769D01*
X88279434Y-17820769D02*
X88155164Y-17804909D01*
X88655046Y-31304974D02*
X88655046Y-18305146D01*
X31005305Y-31805213D02*
X31221166Y-31755574D01*
X31221166Y-31755574D02*
X31390403Y-31622418D01*
X31390403Y-31622418D02*
X31489330Y-31429386D01*
X31489330Y-31429386D02*
X31505190Y-31304974D01*
X18005123Y-31805213D02*
X31005305Y-31805213D01*
X17505238Y-31304974D02*
X17554868Y-31521057D01*
X17554868Y-31521057D02*
X17687968Y-31690396D01*
X17687968Y-31690396D02*
X17880851Y-31789352D01*
X17880851Y-31789352D02*
X18005123Y-31805213D01*
X17505238Y-18305146D02*
X17505238Y-31304974D01*
X18005123Y-17804909D02*
X17789261Y-17854547D01*
X17789261Y-17854547D02*
X17620024Y-17987701D01*
X17620024Y-17987701D02*
X17521097Y-18180734D01*
X17521097Y-18180734D02*
X17505238Y-18305146D01*
X31005305Y-17804909D02*
X18005123Y-17804909D01*
X151354787Y-31805213D02*
X164354973Y-31805213D01*
X150854905Y-31304974D02*
X150904536Y-31521057D01*
X150904536Y-31521057D02*
X151037636Y-31690396D01*
X151037636Y-31690396D02*
X151230518Y-31789352D01*
X151230518Y-31789352D02*
X151354787Y-31805213D01*
X150854905Y-18305146D02*
X150854905Y-31304974D01*
X151354787Y-17804909D02*
X151138929Y-17854547D01*
X151138929Y-17854547D02*
X150969692Y-17987701D01*
X150969692Y-17987701D02*
X150870764Y-18180734D01*
X150870764Y-18180734D02*
X150854905Y-18305146D01*
X164354973Y-17804909D02*
X151354787Y-17804909D01*
X164854855Y-18305146D02*
X164805225Y-18089062D01*
X164805225Y-18089062D02*
X164672127Y-17919724D01*
X164672127Y-17919724D02*
X164479245Y-17820769D01*
X164479245Y-17820769D02*
X164354973Y-17804909D01*
X241054665Y-31304974D02*
X241054665Y-18305146D01*
X202454878Y-31805213D02*
X202670735Y-31755574D01*
X202670735Y-31755574D02*
X202839972Y-31622418D01*
X202839972Y-31622418D02*
X202938900Y-31429386D01*
X202938900Y-31429386D02*
X202954760Y-31304974D01*
X189454692Y-31805213D02*
X202454878Y-31805213D01*
X188954810Y-31304974D02*
X189004441Y-31521057D01*
X189004441Y-31521057D02*
X189137541Y-31690396D01*
X189137541Y-31690396D02*
X189330423Y-31789352D01*
X189330423Y-31789352D02*
X189454692Y-31805213D01*
X188954810Y-18305146D02*
X188954810Y-31304974D01*
X189454692Y-17804909D02*
X189238834Y-17854547D01*
X189238834Y-17854547D02*
X189069597Y-17987701D01*
X189069597Y-17987701D02*
X188970669Y-18180734D01*
X188970669Y-18180734D02*
X188954810Y-18305146D01*
X202454878Y-17804909D02*
X189454692Y-17804909D01*
X202954760Y-18305146D02*
X202905128Y-18089062D01*
X202905128Y-18089062D02*
X202772028Y-17919724D01*
X202772028Y-17919724D02*
X202579146Y-17820769D01*
X202579146Y-17820769D02*
X202454878Y-17804909D01*
X202954760Y-31304974D02*
X202954760Y-18305146D01*
X145305021Y-31805213D02*
X145520883Y-31755574D01*
X145520883Y-31755574D02*
X145690118Y-31622418D01*
X145690118Y-31622418D02*
X145789043Y-31429386D01*
X145789043Y-31429386D02*
X145804903Y-31304974D01*
X132304835Y-31805213D02*
X145305021Y-31805213D01*
X131804953Y-31304974D02*
X131854584Y-31521057D01*
X131854584Y-31521057D02*
X131987684Y-31690396D01*
X131987684Y-31690396D02*
X132180566Y-31789352D01*
X132180566Y-31789352D02*
X132304835Y-31805213D01*
X131804953Y-18305146D02*
X131804953Y-31304974D01*
X132304835Y-17804909D02*
X132088977Y-17854547D01*
X132088977Y-17854547D02*
X131919740Y-17987701D01*
X131919740Y-17987701D02*
X131820812Y-18180734D01*
X131820812Y-18180734D02*
X131804953Y-18305146D01*
X145305021Y-17804909D02*
X132304835Y-17804909D01*
X145804903Y-18305146D02*
X145755273Y-18089062D01*
X145755273Y-18089062D02*
X145622175Y-17919724D01*
X145622175Y-17919724D02*
X145429292Y-17820769D01*
X145429292Y-17820769D02*
X145305021Y-17804909D01*
X145804903Y-31304974D02*
X145804903Y-18305146D01*
X164354973Y-31805213D02*
X164570835Y-31755574D01*
X164570835Y-31755574D02*
X164740071Y-31622418D01*
X164740071Y-31622418D02*
X164838995Y-31429386D01*
X164838995Y-31429386D02*
X164854855Y-31304974D01*
X240554783Y-31805213D02*
X240770640Y-31755574D01*
X240770640Y-31755574D02*
X240939877Y-31622418D01*
X240939877Y-31622418D02*
X241038805Y-31429386D01*
X241038805Y-31429386D02*
X241054665Y-31304974D01*
X227554597Y-31805213D02*
X240554783Y-31805213D01*
X227054715Y-31304974D02*
X227104346Y-31521057D01*
X227104346Y-31521057D02*
X227237446Y-31690396D01*
X227237446Y-31690396D02*
X227430328Y-31789352D01*
X227430328Y-31789352D02*
X227554597Y-31805213D01*
X227054715Y-18305146D02*
X227054715Y-31304974D01*
X227554597Y-17804909D02*
X227338739Y-17854547D01*
X227338739Y-17854547D02*
X227169502Y-17987701D01*
X227169502Y-17987701D02*
X227070574Y-18180734D01*
X227070574Y-18180734D02*
X227054715Y-18305146D01*
X240554783Y-17804909D02*
X227554597Y-17804909D01*
X241054665Y-18305146D02*
X241005033Y-18089062D01*
X241005033Y-18089062D02*
X240871932Y-17919724D01*
X240871932Y-17919724D02*
X240679051Y-17820769D01*
X240679051Y-17820769D02*
X240554783Y-17804909D01*
X113254882Y-17804909D02*
X113039024Y-17854547D01*
X113039024Y-17854547D02*
X112869787Y-17987701D01*
X112869787Y-17987701D02*
X112770859Y-18180734D01*
X112770859Y-18180734D02*
X112755000Y-18305146D01*
X126255068Y-17804909D02*
X113254882Y-17804909D01*
X126754951Y-18305146D02*
X126705321Y-18089062D01*
X126705321Y-18089062D02*
X126572223Y-17919724D01*
X126572223Y-17919724D02*
X126379340Y-17820769D01*
X126379340Y-17820769D02*
X126255068Y-17804909D01*
X126754951Y-31304974D02*
X126754951Y-18305146D01*
X69105211Y-17804909D02*
X56105031Y-17804909D01*
X69605093Y-18305146D02*
X69555462Y-18089062D01*
X69555462Y-18089062D02*
X69422363Y-17919724D01*
X69422363Y-17919724D02*
X69229481Y-17820769D01*
X69229481Y-17820769D02*
X69105211Y-17804909D01*
X69605093Y-31304974D02*
X69605093Y-18305146D01*
X259604735Y-31805213D02*
X259820592Y-31755574D01*
X259820592Y-31755574D02*
X259989829Y-31622418D01*
X259989829Y-31622418D02*
X260088757Y-31429386D01*
X260088757Y-31429386D02*
X260104617Y-31304974D01*
X246604549Y-31805213D02*
X259604735Y-31805213D01*
X246104667Y-31304974D02*
X246154298Y-31521057D01*
X246154298Y-31521057D02*
X246287398Y-31690396D01*
X246287398Y-31690396D02*
X246480280Y-31789352D01*
X246480280Y-31789352D02*
X246604549Y-31805213D01*
X246104667Y-18305146D02*
X246104667Y-31304974D01*
X246604549Y-17804909D02*
X246388691Y-17854547D01*
X246388691Y-17854547D02*
X246219454Y-17987701D01*
X246219454Y-17987701D02*
X246120526Y-18180734D01*
X246120526Y-18180734D02*
X246104667Y-18305146D01*
X259604735Y-17804909D02*
X246604549Y-17804909D01*
X260104617Y-18305146D02*
X260054985Y-18089062D01*
X260054985Y-18089062D02*
X259921885Y-17919724D01*
X259921885Y-17919724D02*
X259729003Y-17820769D01*
X259729003Y-17820769D02*
X259604735Y-17804909D01*
X260104617Y-31304974D02*
X260104617Y-18305146D01*
X107205116Y-31805213D02*
X107420978Y-31755574D01*
X107420978Y-31755574D02*
X107590214Y-31622418D01*
X107590214Y-31622418D02*
X107689138Y-31429386D01*
X107689138Y-31429386D02*
X107704998Y-31304974D01*
X94204935Y-31805213D02*
X107205116Y-31805213D01*
X93705048Y-31304974D02*
X93754678Y-31521057D01*
X93754678Y-31521057D02*
X93887778Y-31690396D01*
X93887778Y-31690396D02*
X94080662Y-31789352D01*
X94080662Y-31789352D02*
X94204935Y-31805213D01*
X93705048Y-18305146D02*
X93705048Y-31304974D01*
X94204935Y-17804909D02*
X93989071Y-17854547D01*
X93989071Y-17854547D02*
X93819834Y-17987701D01*
X93819834Y-17987701D02*
X93720907Y-18180734D01*
X93720907Y-18180734D02*
X93705048Y-18305146D01*
X107205116Y-17804909D02*
X94204935Y-17804909D01*
X107704998Y-18305146D02*
X107655368Y-18089062D01*
X107655368Y-18089062D02*
X107522270Y-17919724D01*
X107522270Y-17919724D02*
X107329388Y-17820769D01*
X107329388Y-17820769D02*
X107205116Y-17804909D01*
X107704998Y-31304974D02*
X107704998Y-18305146D01*
X126255068Y-31805213D02*
X126470930Y-31755574D01*
X126470930Y-31755574D02*
X126640166Y-31622418D01*
X126640166Y-31622418D02*
X126739091Y-31429386D01*
X126739091Y-31429386D02*
X126754951Y-31304974D01*
X113254882Y-31805213D02*
X126255068Y-31805213D01*
X112755000Y-31304974D02*
X112804631Y-31521057D01*
X112804631Y-31521057D02*
X112937732Y-31690396D01*
X112937732Y-31690396D02*
X113130613Y-31789352D01*
X113130613Y-31789352D02*
X113254882Y-31805213D01*
X112755000Y-18305146D02*
X112755000Y-31304974D01*
X56105031Y-31805213D02*
X69105211Y-31805213D01*
X55605143Y-31304974D02*
X55654773Y-31521057D01*
X55654773Y-31521057D02*
X55787873Y-31690396D01*
X55787873Y-31690396D02*
X55980758Y-31789352D01*
X55980758Y-31789352D02*
X56105031Y-31805213D01*
X55605143Y-18305146D02*
X55605143Y-31304974D01*
X56105031Y-17804909D02*
X55889167Y-17854547D01*
X55889167Y-17854547D02*
X55719929Y-17987701D01*
X55719929Y-17987701D02*
X55621002Y-18180734D01*
X55621002Y-18180734D02*
X55605143Y-18305146D01*
X69105211Y-31805213D02*
X69321070Y-31755574D01*
X69321070Y-31755574D02*
X69490307Y-31622418D01*
X69490307Y-31622418D02*
X69589233Y-31429386D01*
X69589233Y-31429386D02*
X69605093Y-31304974D01*
X237076408Y-55915399D02*
X236861001Y-55964577D01*
X236861001Y-55964577D02*
X236693072Y-56096420D01*
X236693072Y-56096420D02*
X236595320Y-56288278D01*
X236595320Y-56288278D02*
X236579691Y-56412460D01*
X236579691Y-56412460D02*
X236579691Y-56633694D01*
X236579691Y-56633694D02*
X236579691Y-56890232D01*
X236579691Y-56890232D02*
X236579691Y-57179730D01*
X236579691Y-57179730D02*
X236579691Y-57499847D01*
X236579691Y-57499847D02*
X236579691Y-57848239D01*
X236579691Y-57848239D02*
X236579691Y-58222564D01*
X236579691Y-58222564D02*
X236579691Y-58620480D01*
X236579691Y-58620480D02*
X236579691Y-59039645D01*
X236579691Y-59039645D02*
X236579691Y-59477716D01*
X236579691Y-59477716D02*
X236579691Y-59932351D01*
X236579691Y-59932351D02*
X236579691Y-60401208D01*
X236579691Y-60401208D02*
X236579691Y-60881944D01*
X236579691Y-60881944D02*
X236579691Y-61372216D01*
X236579691Y-61372216D02*
X236579691Y-61869683D01*
X236579691Y-61869683D02*
X236579691Y-62372003D01*
X236579691Y-62372003D02*
X236579691Y-62876832D01*
X236579691Y-62876832D02*
X236579691Y-63381828D01*
X236579691Y-63381828D02*
X236579691Y-63884650D01*
X236579691Y-63884650D02*
X236579691Y-64382954D01*
X236579691Y-64382954D02*
X236579691Y-64874398D01*
X236579691Y-64874398D02*
X236579691Y-65356641D01*
X236579691Y-65356641D02*
X236579691Y-65827339D01*
X236579691Y-65827339D02*
X236579691Y-66284151D01*
X236579691Y-66284151D02*
X236579691Y-66724733D01*
X236579691Y-66724733D02*
X236579691Y-67146744D01*
X236579691Y-67146744D02*
X236579691Y-67547841D01*
X236579691Y-67547841D02*
X236579691Y-67925682D01*
X236579691Y-67925682D02*
X236579691Y-68277925D01*
X236579691Y-68277925D02*
X236579691Y-68602226D01*
X236579691Y-68602226D02*
X236579691Y-68896245D01*
X236579691Y-68896245D02*
X236579691Y-69157638D01*
X236579691Y-69157638D02*
X236579691Y-69384063D01*
X294101014Y-55910813D02*
X237076408Y-55915399D01*
X164854855Y-88454831D02*
X164854855Y-75455000D01*
X278654687Y-88960360D02*
X278870544Y-88910721D01*
X278870544Y-88910721D02*
X279039782Y-88777567D01*
X279039782Y-88777567D02*
X279138710Y-88584534D01*
X279138710Y-88584534D02*
X279154570Y-88460123D01*
X164354973Y-74954763D02*
X151354787Y-74954763D01*
X164854855Y-75455000D02*
X164805225Y-75238916D01*
X164805225Y-75238916D02*
X164672127Y-75069578D01*
X164672127Y-75069578D02*
X164479245Y-74970623D01*
X164479245Y-74970623D02*
X164354973Y-74954763D01*
X151354787Y-88955069D02*
X164354973Y-88955069D01*
X150854905Y-88454831D02*
X150904536Y-88670914D01*
X150904536Y-88670914D02*
X151037636Y-88840253D01*
X151037636Y-88840253D02*
X151230518Y-88939208D01*
X151230518Y-88939208D02*
X151354787Y-88955069D01*
X150854905Y-75455000D02*
X150854905Y-88454831D01*
X151354787Y-74954763D02*
X151138929Y-75004401D01*
X151138929Y-75004401D02*
X150969692Y-75137555D01*
X150969692Y-75137555D02*
X150870764Y-75330588D01*
X150870764Y-75330588D02*
X150854905Y-75455000D01*
X241054665Y-75455000D02*
X241005033Y-75238916D01*
X241005033Y-75238916D02*
X240871932Y-75069578D01*
X240871932Y-75069578D02*
X240679051Y-74970623D01*
X240679051Y-74970623D02*
X240554783Y-74954763D01*
X241054665Y-88454831D02*
X241054665Y-75455000D01*
X164354973Y-88955069D02*
X164570835Y-88905430D01*
X164570835Y-88905430D02*
X164740071Y-88772275D01*
X164740071Y-88772275D02*
X164838995Y-88579243D01*
X164838995Y-88579243D02*
X164854855Y-88454831D01*
X278654687Y-74960410D02*
X265654501Y-74960410D01*
X279154570Y-75460297D02*
X279104938Y-75244281D01*
X279104938Y-75244281D02*
X278971837Y-75075083D01*
X278971837Y-75075083D02*
X278778955Y-74976247D01*
X278778955Y-74976247D02*
X278654687Y-74960410D01*
X265654501Y-74960410D02*
X265438643Y-75009980D01*
X265438643Y-75009980D02*
X265269406Y-75142995D01*
X265269406Y-75142995D02*
X265170478Y-75335908D01*
X265170478Y-75335908D02*
X265154619Y-75460297D01*
X227554597Y-74954763D02*
X227338739Y-75004401D01*
X227338739Y-75004401D02*
X227169502Y-75137555D01*
X227169502Y-75137555D02*
X227070574Y-75330588D01*
X227070574Y-75330588D02*
X227054715Y-75455000D01*
X240554783Y-74954763D02*
X227554597Y-74954763D01*
X265654501Y-88960360D02*
X278654687Y-88960360D01*
X265154619Y-88460123D02*
X265204250Y-88676206D01*
X265204250Y-88676206D02*
X265337351Y-88845544D01*
X265337351Y-88845544D02*
X265530232Y-88944499D01*
X265530232Y-88944499D02*
X265654501Y-88960360D01*
X265154619Y-75460297D02*
X265154619Y-88460123D01*
X227054715Y-88454831D02*
X227104346Y-88670914D01*
X227104346Y-88670914D02*
X227237446Y-88840253D01*
X227237446Y-88840253D02*
X227430328Y-88939208D01*
X227430328Y-88939208D02*
X227554597Y-88955069D01*
X227054715Y-75455000D02*
X227054715Y-88454831D01*
X183904808Y-88454831D02*
X183904808Y-75455000D01*
X240554783Y-88955069D02*
X240770640Y-88905430D01*
X240770640Y-88905430D02*
X240939877Y-88772275D01*
X240939877Y-88772275D02*
X241038805Y-88579243D01*
X241038805Y-88579243D02*
X241054665Y-88454831D01*
X227554597Y-88955069D02*
X240554783Y-88955069D01*
X183904808Y-75455000D02*
X183855178Y-75238916D01*
X183855178Y-75238916D02*
X183722080Y-75069578D01*
X183722080Y-75069578D02*
X183529197Y-74970623D01*
X183529197Y-74970623D02*
X183404926Y-74954763D01*
X169904857Y-75455000D02*
X169904857Y-88454831D01*
X170404739Y-74954763D02*
X170188881Y-75004401D01*
X170188881Y-75004401D02*
X170019644Y-75137555D01*
X170019644Y-75137555D02*
X169920716Y-75330588D01*
X169920716Y-75330588D02*
X169904857Y-75455000D01*
X183404926Y-74954763D02*
X170404739Y-74954763D01*
X183404926Y-88955069D02*
X183620788Y-88905430D01*
X183620788Y-88905430D02*
X183790023Y-88772275D01*
X183790023Y-88772275D02*
X183888948Y-88579243D01*
X183888948Y-88579243D02*
X183904808Y-88454831D01*
X170404739Y-88955069D02*
X183404926Y-88955069D01*
X169904857Y-88454831D02*
X169954488Y-88670914D01*
X169954488Y-88670914D02*
X170087589Y-88840253D01*
X170087589Y-88840253D02*
X170280470Y-88939208D01*
X170280470Y-88939208D02*
X170404739Y-88955069D01*
X107704998Y-88454831D02*
X107704998Y-75455000D01*
X188954810Y-75455000D02*
X188954810Y-88454831D01*
X189454692Y-74954763D02*
X189238834Y-75004401D01*
X189238834Y-75004401D02*
X189069597Y-75137555D01*
X189069597Y-75137555D02*
X188970669Y-75330588D01*
X188970669Y-75330588D02*
X188954810Y-75455000D01*
X202454878Y-74954763D02*
X189454692Y-74954763D01*
X202954760Y-75455000D02*
X202905128Y-75238916D01*
X202905128Y-75238916D02*
X202772028Y-75069578D01*
X202772028Y-75069578D02*
X202579146Y-74970623D01*
X202579146Y-74970623D02*
X202454878Y-74954763D01*
X202954760Y-88454831D02*
X202954760Y-75455000D01*
X107205116Y-88955069D02*
X107420978Y-88905430D01*
X107420978Y-88905430D02*
X107590214Y-88772275D01*
X107590214Y-88772275D02*
X107689138Y-88579243D01*
X107689138Y-88579243D02*
X107704998Y-88454831D01*
X94204935Y-88955069D02*
X107205116Y-88955069D01*
X93705048Y-88454831D02*
X93754678Y-88670914D01*
X93754678Y-88670914D02*
X93887778Y-88840253D01*
X93887778Y-88840253D02*
X94080662Y-88939208D01*
X94080662Y-88939208D02*
X94204935Y-88955069D01*
X93705048Y-75455000D02*
X93705048Y-88454831D01*
X94204935Y-74954763D02*
X93989071Y-75004401D01*
X93989071Y-75004401D02*
X93819834Y-75137555D01*
X93819834Y-75137555D02*
X93720907Y-75330588D01*
X93720907Y-75330588D02*
X93705048Y-75455000D01*
X107205116Y-74954763D02*
X94204935Y-74954763D01*
X107704998Y-75455000D02*
X107655368Y-75238916D01*
X107655368Y-75238916D02*
X107522270Y-75069578D01*
X107522270Y-75069578D02*
X107329388Y-74970623D01*
X107329388Y-74970623D02*
X107205116Y-74954763D01*
X189454692Y-88955069D02*
X202454878Y-88955069D01*
X188954810Y-88454831D02*
X189004441Y-88670914D01*
X189004441Y-88670914D02*
X189137541Y-88840253D01*
X189137541Y-88840253D02*
X189330423Y-88939208D01*
X189330423Y-88939208D02*
X189454692Y-88955069D01*
X126255068Y-74954763D02*
X113254882Y-74954763D01*
X126754951Y-75455000D02*
X126705321Y-75238916D01*
X126705321Y-75238916D02*
X126572223Y-75069578D01*
X126572223Y-75069578D02*
X126379340Y-74970623D01*
X126379340Y-74970623D02*
X126255068Y-74954763D01*
X126754951Y-88454831D02*
X126754951Y-75455000D01*
X202454878Y-88955069D02*
X202670735Y-88905430D01*
X202670735Y-88905430D02*
X202839972Y-88772275D01*
X202839972Y-88772275D02*
X202938900Y-88579243D01*
X202938900Y-88579243D02*
X202954760Y-88454831D01*
X113254882Y-74954763D02*
X113039024Y-75004401D01*
X113039024Y-75004401D02*
X112869787Y-75137555D01*
X112869787Y-75137555D02*
X112770859Y-75330588D01*
X112770859Y-75330588D02*
X112755000Y-75455000D01*
X145305021Y-88955069D02*
X145520883Y-88905430D01*
X145520883Y-88905430D02*
X145690118Y-88772275D01*
X145690118Y-88772275D02*
X145789043Y-88579243D01*
X145789043Y-88579243D02*
X145804903Y-88454831D01*
X132304835Y-88955069D02*
X145305021Y-88955069D01*
X131804953Y-88454831D02*
X131854584Y-88670914D01*
X131854584Y-88670914D02*
X131987684Y-88840253D01*
X131987684Y-88840253D02*
X132180566Y-88939208D01*
X132180566Y-88939208D02*
X132304835Y-88955069D01*
X131804953Y-75455000D02*
X131804953Y-88454831D01*
X132304835Y-74954763D02*
X132088977Y-75004401D01*
X132088977Y-75004401D02*
X131919740Y-75137555D01*
X131919740Y-75137555D02*
X131820812Y-75330588D01*
X131820812Y-75330588D02*
X131804953Y-75455000D01*
X145305021Y-74954763D02*
X132304835Y-74954763D01*
X145804903Y-75455000D02*
X145755273Y-75238916D01*
X145755273Y-75238916D02*
X145622175Y-75069578D01*
X145622175Y-75069578D02*
X145429292Y-74970623D01*
X145429292Y-74970623D02*
X145305021Y-74954763D01*
X145804903Y-88454831D02*
X145804903Y-75455000D01*
X126255068Y-88955069D02*
X126470930Y-88905430D01*
X126470930Y-88905430D02*
X126640166Y-88772275D01*
X126640166Y-88772275D02*
X126739091Y-88579243D01*
X126739091Y-88579243D02*
X126754951Y-88454831D01*
X113254882Y-88955069D02*
X126255068Y-88955069D01*
X112755000Y-88454831D02*
X112804631Y-88670914D01*
X112804631Y-88670914D02*
X112937732Y-88840253D01*
X112937732Y-88840253D02*
X113130613Y-88939208D01*
X113130613Y-88939208D02*
X113254882Y-88955069D01*
X112755000Y-75455000D02*
X112755000Y-88454831D01*
M02*
