%TF.GenerationSoftware,KiCad,Pcbnew,(5.1.10-1-10_14)*%
%TF.CreationDate,2021-07-20T05:29:09+09:00*%
%TF.ProjectId,keyplate,6b657970-6c61-4746-952e-6b696361645f,rev?*%
%TF.SameCoordinates,Original*%
%TF.FileFunction,Legend,Bot*%
%TF.FilePolarity,Positive*%
%FSLAX46Y46*%
G04 Gerber Fmt 4.6, Leading zero omitted, Abs format (unit mm)*
G04 Created by KiCad (PCBNEW (5.1.10-1-10_14)) date 2021-07-20 05:29:09*
%MOMM*%
%LPD*%
G01*
G04 APERTURE LIST*
%ADD10C,0.250000*%
%ADD11C,0.300000*%
%ADD12C,0.010000*%
G04 APERTURE END LIST*
D10*
X71686785Y-33678571D02*
X70615357Y-33678571D01*
X71258214Y-33035714D02*
X71686785Y-34964285D01*
X70758214Y-34321428D02*
X71829642Y-34321428D01*
X71186785Y-34964285D02*
X70758214Y-33035714D01*
X69686785Y-33178571D02*
X69686785Y-34250000D01*
X69758214Y-34464285D01*
X69901071Y-34607142D01*
X70115357Y-34678571D01*
X70258214Y-34678571D01*
X68758214Y-34678571D02*
X68901071Y-34607142D01*
X68972500Y-34535714D01*
X69043928Y-34392857D01*
X69043928Y-33964285D01*
X68972500Y-33821428D01*
X68901071Y-33750000D01*
X68758214Y-33678571D01*
X68543928Y-33678571D01*
X68401071Y-33750000D01*
X68329642Y-33821428D01*
X68258214Y-33964285D01*
X68258214Y-34392857D01*
X68329642Y-34535714D01*
X68401071Y-34607142D01*
X68543928Y-34678571D01*
X68758214Y-34678571D01*
X67615357Y-33678571D02*
X67615357Y-34678571D01*
X67615357Y-33821428D02*
X67543928Y-33750000D01*
X67401071Y-33678571D01*
X67186785Y-33678571D01*
X67043928Y-33750000D01*
X66972500Y-33892857D01*
X66972500Y-34678571D01*
X65686785Y-34607142D02*
X65829642Y-34678571D01*
X66115357Y-34678571D01*
X66258214Y-34607142D01*
X66329642Y-34464285D01*
X66329642Y-33892857D01*
X66258214Y-33750000D01*
X66115357Y-33678571D01*
X65829642Y-33678571D01*
X65686785Y-33750000D01*
X65615357Y-33892857D01*
X65615357Y-34035714D01*
X66329642Y-34178571D01*
X65043928Y-34607142D02*
X64901071Y-34678571D01*
X64615357Y-34678571D01*
X64472500Y-34607142D01*
X64401071Y-34464285D01*
X64401071Y-34392857D01*
X64472500Y-34250000D01*
X64615357Y-34178571D01*
X64829642Y-34178571D01*
X64972500Y-34107142D01*
X65043928Y-33964285D01*
X65043928Y-33892857D01*
X64972500Y-33750000D01*
X64829642Y-33678571D01*
X64615357Y-33678571D01*
X64472500Y-33750000D01*
X64115357Y-34821428D02*
X62972500Y-34821428D01*
X62615357Y-34678571D02*
X62615357Y-33178571D01*
X62472500Y-34107142D02*
X62043928Y-34678571D01*
X62043928Y-33678571D02*
X62615357Y-34250000D01*
X61401071Y-34678571D02*
X61401071Y-33178571D01*
X61401071Y-33750000D02*
X61258214Y-33678571D01*
X60972500Y-33678571D01*
X60829642Y-33750000D01*
X60758214Y-33821428D01*
X60686785Y-33964285D01*
X60686785Y-34392857D01*
X60758214Y-34535714D01*
X60829642Y-34607142D01*
X60972500Y-34678571D01*
X61258214Y-34678571D01*
X61401071Y-34607142D01*
X59401071Y-34678571D02*
X59401071Y-33178571D01*
X59401071Y-34607142D02*
X59543928Y-34678571D01*
X59829642Y-34678571D01*
X59972500Y-34607142D01*
X60043928Y-34535714D01*
X60115357Y-34392857D01*
X60115357Y-33964285D01*
X60043928Y-33821428D01*
X59972500Y-33750000D01*
X59829642Y-33678571D01*
X59543928Y-33678571D01*
X59401071Y-33750000D01*
X57543928Y-34678571D02*
X57543928Y-33178571D01*
X56686785Y-34678571D02*
X57329642Y-33821428D01*
X56686785Y-33178571D02*
X57543928Y-34035714D01*
X55472500Y-34607142D02*
X55615357Y-34678571D01*
X55901071Y-34678571D01*
X56043928Y-34607142D01*
X56115357Y-34464285D01*
X56115357Y-33892857D01*
X56043928Y-33750000D01*
X55901071Y-33678571D01*
X55615357Y-33678571D01*
X55472500Y-33750000D01*
X55401071Y-33892857D01*
X55401071Y-34035714D01*
X56115357Y-34178571D01*
X54901071Y-33678571D02*
X54543928Y-34678571D01*
X54186785Y-33678571D02*
X54543928Y-34678571D01*
X54686785Y-35035714D01*
X54758214Y-35107142D01*
X54901071Y-35178571D01*
X53615357Y-33678571D02*
X53615357Y-35178571D01*
X53615357Y-33750000D02*
X53472500Y-33678571D01*
X53186785Y-33678571D01*
X53043928Y-33750000D01*
X52972500Y-33821428D01*
X52901071Y-33964285D01*
X52901071Y-34392857D01*
X52972500Y-34535714D01*
X53043928Y-34607142D01*
X53186785Y-34678571D01*
X53472500Y-34678571D01*
X53615357Y-34607142D01*
X52043928Y-34678571D02*
X52186785Y-34607142D01*
X52258214Y-34464285D01*
X52258214Y-33178571D01*
X50829642Y-34678571D02*
X50829642Y-33892857D01*
X50901071Y-33750000D01*
X51043928Y-33678571D01*
X51329642Y-33678571D01*
X51472499Y-33750000D01*
X50829642Y-34607142D02*
X50972499Y-34678571D01*
X51329642Y-34678571D01*
X51472499Y-34607142D01*
X51543928Y-34464285D01*
X51543928Y-34321428D01*
X51472499Y-34178571D01*
X51329642Y-34107142D01*
X50972499Y-34107142D01*
X50829642Y-34035714D01*
X50329642Y-33678571D02*
X49758214Y-33678571D01*
X50115357Y-33178571D02*
X50115357Y-34464285D01*
X50043928Y-34607142D01*
X49901071Y-34678571D01*
X49758214Y-34678571D01*
X48686785Y-34607142D02*
X48829642Y-34678571D01*
X49115357Y-34678571D01*
X49258214Y-34607142D01*
X49329642Y-34464285D01*
X49329642Y-33892857D01*
X49258214Y-33750000D01*
X49115357Y-33678571D01*
X48829642Y-33678571D01*
X48686785Y-33750000D01*
X48615357Y-33892857D01*
X48615357Y-34035714D01*
X49329642Y-34178571D01*
X46972499Y-33678571D02*
X46615357Y-34678571D01*
X46258214Y-33678571D01*
X45686785Y-34535714D02*
X45615357Y-34607142D01*
X45686785Y-34678571D01*
X45758214Y-34607142D01*
X45686785Y-34535714D01*
X45686785Y-34678571D01*
X44329642Y-33678571D02*
X44329642Y-34678571D01*
X44686785Y-33107142D02*
X45043928Y-34178571D01*
X44115357Y-34178571D01*
X43543928Y-34535714D02*
X43472499Y-34607142D01*
X43543928Y-34678571D01*
X43615357Y-34607142D01*
X43543928Y-34535714D01*
X43543928Y-34678571D01*
X42543928Y-33178571D02*
X42401071Y-33178571D01*
X42258214Y-33250000D01*
X42186785Y-33321428D01*
X42115357Y-33464285D01*
X42043928Y-33750000D01*
X42043928Y-34107142D01*
X42115357Y-34392857D01*
X42186785Y-34535714D01*
X42258214Y-34607142D01*
X42401071Y-34678571D01*
X42543928Y-34678571D01*
X42686785Y-34607142D01*
X42758214Y-34535714D01*
X42829642Y-34392857D01*
X42901071Y-34107142D01*
X42901071Y-33750000D01*
X42829642Y-33464285D01*
X42758214Y-33321428D01*
X42686785Y-33250000D01*
X42543928Y-33178571D01*
X41401071Y-34535714D02*
X41329642Y-34607142D01*
X41401071Y-34678571D01*
X41472499Y-34607142D01*
X41401071Y-34535714D01*
X41401071Y-34678571D01*
X40758214Y-33321428D02*
X40686785Y-33250000D01*
X40543928Y-33178571D01*
X40186785Y-33178571D01*
X40043928Y-33250000D01*
X39972499Y-33321428D01*
X39901071Y-33464285D01*
X39901071Y-33607142D01*
X39972499Y-33821428D01*
X40829642Y-34678571D01*
X39901071Y-34678571D01*
X39186785Y-34607142D02*
X39186785Y-34678571D01*
X39258214Y-34821428D01*
X39329642Y-34892857D01*
X36472499Y-33964285D02*
X36543928Y-33892857D01*
X36686785Y-33821428D01*
X36829642Y-33821428D01*
X36972499Y-33892857D01*
X37043928Y-33964285D01*
X37115357Y-34107142D01*
X37115357Y-34250000D01*
X37043928Y-34392857D01*
X36972499Y-34464285D01*
X36829642Y-34535714D01*
X36686785Y-34535714D01*
X36543928Y-34464285D01*
X36472499Y-34392857D01*
X36472499Y-33821428D02*
X36472499Y-34392857D01*
X36401071Y-34464285D01*
X36329642Y-34464285D01*
X36186785Y-34392857D01*
X36115357Y-34250000D01*
X36115357Y-33892857D01*
X36258214Y-33678571D01*
X36472499Y-33535714D01*
X36758214Y-33464285D01*
X37043928Y-33535714D01*
X37258214Y-33678571D01*
X37401071Y-33892857D01*
X37472499Y-34178571D01*
X37401071Y-34464285D01*
X37258214Y-34678571D01*
X37043928Y-34821428D01*
X36758214Y-34892857D01*
X36472499Y-34821428D01*
X36258214Y-34678571D01*
X35472499Y-33678571D02*
X35472499Y-34964285D01*
X35543928Y-35107142D01*
X35686785Y-35178571D01*
X35758214Y-35178571D01*
X35472499Y-33178571D02*
X35543928Y-33250000D01*
X35472499Y-33321428D01*
X35401071Y-33250000D01*
X35472499Y-33178571D01*
X35472499Y-33321428D01*
X34758214Y-33678571D02*
X34758214Y-35178571D01*
X34758214Y-33750000D02*
X34615357Y-33678571D01*
X34329642Y-33678571D01*
X34186785Y-33750000D01*
X34115357Y-33821428D01*
X34043928Y-33964285D01*
X34043928Y-34392857D01*
X34115357Y-34535714D01*
X34186785Y-34607142D01*
X34329642Y-34678571D01*
X34615357Y-34678571D01*
X34758214Y-34607142D01*
X33472499Y-34607142D02*
X33329642Y-34678571D01*
X33043928Y-34678571D01*
X32901071Y-34607142D01*
X32829642Y-34464285D01*
X32829642Y-34392857D01*
X32901071Y-34250000D01*
X33043928Y-34178571D01*
X33258214Y-34178571D01*
X33401071Y-34107142D01*
X33472499Y-33964285D01*
X33472499Y-33892857D01*
X33401071Y-33750000D01*
X33258214Y-33678571D01*
X33043928Y-33678571D01*
X32901071Y-33750000D01*
X32186785Y-34678571D02*
X32186785Y-33178571D01*
X32043928Y-34107142D02*
X31615357Y-34678571D01*
X31615357Y-33678571D02*
X32186785Y-34250000D01*
X30401071Y-34607142D02*
X30543928Y-34678571D01*
X30829642Y-34678571D01*
X30972499Y-34607142D01*
X31043928Y-34464285D01*
X31043928Y-33892857D01*
X30972499Y-33750000D01*
X30829642Y-33678571D01*
X30543928Y-33678571D01*
X30401071Y-33750000D01*
X30329642Y-33892857D01*
X30329642Y-34035714D01*
X31043928Y-34178571D01*
X29686785Y-33678571D02*
X29686785Y-34678571D01*
X29686785Y-33821428D02*
X29615357Y-33750000D01*
X29472499Y-33678571D01*
X29258214Y-33678571D01*
X29115357Y-33750000D01*
X29043928Y-33892857D01*
X29043928Y-34678571D01*
X28329642Y-33678571D02*
X28329642Y-34678571D01*
X28329642Y-33821428D02*
X28258214Y-33750000D01*
X28115357Y-33678571D01*
X27901071Y-33678571D01*
X27758214Y-33750000D01*
X27686785Y-33892857D01*
X27686785Y-34678571D01*
D11*
X19806428Y-106928571D02*
X18735000Y-106928571D01*
X18520714Y-107000000D01*
X18377857Y-107142857D01*
X18306428Y-107357142D01*
X18306428Y-107500000D01*
X18306428Y-105500000D02*
X18306428Y-106214285D01*
X19806428Y-106214285D01*
X18449285Y-104142857D02*
X18377857Y-104214285D01*
X18306428Y-104428571D01*
X18306428Y-104571428D01*
X18377857Y-104785714D01*
X18520714Y-104928571D01*
X18663571Y-105000000D01*
X18949285Y-105071428D01*
X19163571Y-105071428D01*
X19449285Y-105000000D01*
X19592142Y-104928571D01*
X19735000Y-104785714D01*
X19806428Y-104571428D01*
X19806428Y-104428571D01*
X19735000Y-104214285D01*
X19663571Y-104142857D01*
X19806428Y-103071428D02*
X18735000Y-103071428D01*
X18520714Y-103142857D01*
X18377857Y-103285714D01*
X18306428Y-103500000D01*
X18306428Y-103642857D01*
X18306428Y-101642857D02*
X18306428Y-102357142D01*
X19806428Y-102357142D01*
X18449285Y-100285714D02*
X18377857Y-100357142D01*
X18306428Y-100571428D01*
X18306428Y-100714285D01*
X18377857Y-100928571D01*
X18520714Y-101071428D01*
X18663571Y-101142857D01*
X18949285Y-101214285D01*
X19163571Y-101214285D01*
X19449285Y-101142857D01*
X19592142Y-101071428D01*
X19735000Y-100928571D01*
X19806428Y-100714285D01*
X19806428Y-100571428D01*
X19735000Y-100357142D01*
X19663571Y-100285714D01*
X19806428Y-99214285D02*
X18735000Y-99214285D01*
X18520714Y-99285714D01*
X18377857Y-99428571D01*
X18306428Y-99642857D01*
X18306428Y-99785714D01*
X18306428Y-97785714D02*
X18306428Y-98500000D01*
X19806428Y-98500000D01*
X18449285Y-96428571D02*
X18377857Y-96500000D01*
X18306428Y-96714285D01*
X18306428Y-96857142D01*
X18377857Y-97071428D01*
X18520714Y-97214285D01*
X18663571Y-97285714D01*
X18949285Y-97357142D01*
X19163571Y-97357142D01*
X19449285Y-97285714D01*
X19592142Y-97214285D01*
X19735000Y-97071428D01*
X19806428Y-96857142D01*
X19806428Y-96714285D01*
X19735000Y-96500000D01*
X19663571Y-96428571D01*
X19806428Y-95357142D02*
X18735000Y-95357142D01*
X18520714Y-95428571D01*
X18377857Y-95571428D01*
X18306428Y-95785714D01*
X18306428Y-95928571D01*
X18306428Y-93928571D02*
X18306428Y-94642857D01*
X19806428Y-94642857D01*
X18449285Y-92571428D02*
X18377857Y-92642857D01*
X18306428Y-92857142D01*
X18306428Y-93000000D01*
X18377857Y-93214285D01*
X18520714Y-93357142D01*
X18663571Y-93428571D01*
X18949285Y-93500000D01*
X19163571Y-93500000D01*
X19449285Y-93428571D01*
X19592142Y-93357142D01*
X19735000Y-93214285D01*
X19806428Y-93000000D01*
X19806428Y-92857142D01*
X19735000Y-92642857D01*
X19663571Y-92571428D01*
D12*
%TO.C,G\u002A\u002A\u002A*%
G36*
X23758222Y-33743021D02*
G01*
X23758256Y-33935344D01*
X23758395Y-34101606D01*
X23758691Y-34243970D01*
X23759199Y-34364598D01*
X23759972Y-34465652D01*
X23761065Y-34549292D01*
X23762531Y-34617682D01*
X23764424Y-34672984D01*
X23766798Y-34717358D01*
X23769707Y-34752968D01*
X23773204Y-34781974D01*
X23777343Y-34806540D01*
X23782179Y-34828826D01*
X23785595Y-34842622D01*
X23826895Y-34959251D01*
X23886753Y-35056233D01*
X23966409Y-35134667D01*
X24067102Y-35195656D01*
X24190071Y-35240300D01*
X24249638Y-35254647D01*
X24336614Y-35267486D01*
X24439804Y-35274222D01*
X24549659Y-35274945D01*
X24656635Y-35269745D01*
X24751185Y-35258715D01*
X24797572Y-35249435D01*
X24916695Y-35211194D01*
X25018665Y-35160100D01*
X25098943Y-35098529D01*
X25112504Y-35084616D01*
X25160826Y-35025707D01*
X25198628Y-34963219D01*
X25226996Y-34892950D01*
X25247013Y-34810699D01*
X25259765Y-34712264D01*
X25266334Y-34593443D01*
X25267866Y-34482584D01*
X25268111Y-34246223D01*
X24693647Y-34246223D01*
X24686253Y-34492468D01*
X24682231Y-34597254D01*
X24676448Y-34677670D01*
X24667675Y-34737563D01*
X24654684Y-34780779D01*
X24636246Y-34811167D01*
X24611133Y-34832573D01*
X24578116Y-34848844D01*
X24571644Y-34851370D01*
X24504395Y-34864863D01*
X24445923Y-34852571D01*
X24398657Y-34816207D01*
X24365026Y-34757486D01*
X24349436Y-34694615D01*
X24347596Y-34667827D01*
X24345826Y-34615391D01*
X24344156Y-34539881D01*
X24342616Y-34443870D01*
X24341235Y-34329933D01*
X24340043Y-34200643D01*
X24339070Y-34058575D01*
X24338345Y-33906302D01*
X24337898Y-33746398D01*
X24337808Y-33685306D01*
X24336778Y-32750445D01*
X23758222Y-32750445D01*
X23758222Y-33743021D01*
G37*
X23758222Y-33743021D02*
X23758256Y-33935344D01*
X23758395Y-34101606D01*
X23758691Y-34243970D01*
X23759199Y-34364598D01*
X23759972Y-34465652D01*
X23761065Y-34549292D01*
X23762531Y-34617682D01*
X23764424Y-34672984D01*
X23766798Y-34717358D01*
X23769707Y-34752968D01*
X23773204Y-34781974D01*
X23777343Y-34806540D01*
X23782179Y-34828826D01*
X23785595Y-34842622D01*
X23826895Y-34959251D01*
X23886753Y-35056233D01*
X23966409Y-35134667D01*
X24067102Y-35195656D01*
X24190071Y-35240300D01*
X24249638Y-35254647D01*
X24336614Y-35267486D01*
X24439804Y-35274222D01*
X24549659Y-35274945D01*
X24656635Y-35269745D01*
X24751185Y-35258715D01*
X24797572Y-35249435D01*
X24916695Y-35211194D01*
X25018665Y-35160100D01*
X25098943Y-35098529D01*
X25112504Y-35084616D01*
X25160826Y-35025707D01*
X25198628Y-34963219D01*
X25226996Y-34892950D01*
X25247013Y-34810699D01*
X25259765Y-34712264D01*
X25266334Y-34593443D01*
X25267866Y-34482584D01*
X25268111Y-34246223D01*
X24693647Y-34246223D01*
X24686253Y-34492468D01*
X24682231Y-34597254D01*
X24676448Y-34677670D01*
X24667675Y-34737563D01*
X24654684Y-34780779D01*
X24636246Y-34811167D01*
X24611133Y-34832573D01*
X24578116Y-34848844D01*
X24571644Y-34851370D01*
X24504395Y-34864863D01*
X24445923Y-34852571D01*
X24398657Y-34816207D01*
X24365026Y-34757486D01*
X24349436Y-34694615D01*
X24347596Y-34667827D01*
X24345826Y-34615391D01*
X24344156Y-34539881D01*
X24342616Y-34443870D01*
X24341235Y-34329933D01*
X24340043Y-34200643D01*
X24339070Y-34058575D01*
X24338345Y-33906302D01*
X24337898Y-33746398D01*
X24337808Y-33685306D01*
X24336778Y-32750445D01*
X23758222Y-32750445D01*
X23758222Y-33743021D01*
G36*
X22376208Y-34650429D02*
G01*
X22281608Y-34655210D01*
X22199302Y-34663468D01*
X22137115Y-34675106D01*
X22136573Y-34675252D01*
X22002535Y-34721463D01*
X21892439Y-34781580D01*
X21805006Y-34856841D01*
X21738962Y-34948479D01*
X21693028Y-35057731D01*
X21677072Y-35119978D01*
X21671711Y-35160617D01*
X21667050Y-35225869D01*
X21663093Y-35312184D01*
X21659841Y-35416007D01*
X21657297Y-35533789D01*
X21655463Y-35661978D01*
X21654342Y-35797020D01*
X21653936Y-35935365D01*
X21654248Y-36073461D01*
X21655279Y-36207755D01*
X21657033Y-36334697D01*
X21659511Y-36450734D01*
X21662716Y-36552315D01*
X21666650Y-36635887D01*
X21671317Y-36697899D01*
X21675990Y-36731628D01*
X21713392Y-36852164D01*
X21771067Y-36954299D01*
X21849899Y-37038901D01*
X21950775Y-37106837D01*
X22074580Y-37158975D01*
X22128389Y-37174978D01*
X22175588Y-37183821D01*
X22243354Y-37191646D01*
X22324042Y-37198070D01*
X22410004Y-37202711D01*
X22493592Y-37205186D01*
X22567161Y-37205113D01*
X22623062Y-37202108D01*
X22636389Y-37200398D01*
X22779860Y-37167902D01*
X22905750Y-37119828D01*
X23012079Y-37057458D01*
X23096864Y-36982076D01*
X23158124Y-36894963D01*
X23178490Y-36849629D01*
X23191495Y-36811685D01*
X23202478Y-36771331D01*
X23211576Y-36726033D01*
X23218927Y-36673254D01*
X23224666Y-36610459D01*
X23228931Y-36535115D01*
X23231859Y-36444685D01*
X23233588Y-36336634D01*
X23234226Y-36213716D01*
X22641816Y-36213716D01*
X22641580Y-36332072D01*
X22640439Y-36429369D01*
X22638174Y-36507996D01*
X22634564Y-36570340D01*
X22629386Y-36618788D01*
X22622421Y-36655728D01*
X22613448Y-36683548D01*
X22602247Y-36704635D01*
X22588595Y-36721377D01*
X22572272Y-36736161D01*
X22562821Y-36743737D01*
X22514204Y-36766499D01*
X22452771Y-36774330D01*
X22389446Y-36767561D01*
X22335152Y-36746526D01*
X22320914Y-36736372D01*
X22303371Y-36720984D01*
X22288614Y-36705188D01*
X22276402Y-36686533D01*
X22266493Y-36662567D01*
X22258648Y-36630840D01*
X22252625Y-36588901D01*
X22248184Y-36534297D01*
X22245085Y-36464580D01*
X22243085Y-36377297D01*
X22241946Y-36269997D01*
X22241425Y-36140230D01*
X22241283Y-35985544D01*
X22241278Y-35925445D01*
X22241355Y-35762072D01*
X22241730Y-35624458D01*
X22242620Y-35510141D01*
X22244242Y-35416657D01*
X22246812Y-35341543D01*
X22250549Y-35282336D01*
X22255668Y-35236574D01*
X22262387Y-35201793D01*
X22270922Y-35175531D01*
X22281491Y-35155324D01*
X22294310Y-35138710D01*
X22309595Y-35123225D01*
X22312134Y-35120829D01*
X22356669Y-35095167D01*
X22416088Y-35081656D01*
X22479317Y-35081364D01*
X22535286Y-35095360D01*
X22542120Y-35098628D01*
X22562611Y-35109411D01*
X22579891Y-35120384D01*
X22594250Y-35133910D01*
X22605976Y-35152353D01*
X22615356Y-35178076D01*
X22622681Y-35213443D01*
X22628237Y-35260818D01*
X22632315Y-35322563D01*
X22635201Y-35401042D01*
X22637185Y-35498620D01*
X22638555Y-35617659D01*
X22639600Y-35760522D01*
X22640459Y-35904278D01*
X22641368Y-36071914D01*
X22641816Y-36213716D01*
X23234226Y-36213716D01*
X23234254Y-36208428D01*
X23233993Y-36057531D01*
X23232944Y-35881409D01*
X23232683Y-35846975D01*
X23231277Y-35677852D01*
X23229718Y-35534351D01*
X23227732Y-35413872D01*
X23225047Y-35313816D01*
X23221390Y-35231582D01*
X23216486Y-35164571D01*
X23210063Y-35110183D01*
X23201847Y-35065818D01*
X23191567Y-35028875D01*
X23178947Y-34996756D01*
X23163715Y-34966860D01*
X23145597Y-34936588D01*
X23135307Y-34920398D01*
X23071780Y-34844823D01*
X22985388Y-34777374D01*
X22881014Y-34721024D01*
X22763543Y-34678750D01*
X22721033Y-34668010D01*
X22655514Y-34657915D01*
X22570986Y-34651684D01*
X22475276Y-34649221D01*
X22376208Y-34650429D01*
G37*
X22376208Y-34650429D02*
X22281608Y-34655210D01*
X22199302Y-34663468D01*
X22137115Y-34675106D01*
X22136573Y-34675252D01*
X22002535Y-34721463D01*
X21892439Y-34781580D01*
X21805006Y-34856841D01*
X21738962Y-34948479D01*
X21693028Y-35057731D01*
X21677072Y-35119978D01*
X21671711Y-35160617D01*
X21667050Y-35225869D01*
X21663093Y-35312184D01*
X21659841Y-35416007D01*
X21657297Y-35533789D01*
X21655463Y-35661978D01*
X21654342Y-35797020D01*
X21653936Y-35935365D01*
X21654248Y-36073461D01*
X21655279Y-36207755D01*
X21657033Y-36334697D01*
X21659511Y-36450734D01*
X21662716Y-36552315D01*
X21666650Y-36635887D01*
X21671317Y-36697899D01*
X21675990Y-36731628D01*
X21713392Y-36852164D01*
X21771067Y-36954299D01*
X21849899Y-37038901D01*
X21950775Y-37106837D01*
X22074580Y-37158975D01*
X22128389Y-37174978D01*
X22175588Y-37183821D01*
X22243354Y-37191646D01*
X22324042Y-37198070D01*
X22410004Y-37202711D01*
X22493592Y-37205186D01*
X22567161Y-37205113D01*
X22623062Y-37202108D01*
X22636389Y-37200398D01*
X22779860Y-37167902D01*
X22905750Y-37119828D01*
X23012079Y-37057458D01*
X23096864Y-36982076D01*
X23158124Y-36894963D01*
X23178490Y-36849629D01*
X23191495Y-36811685D01*
X23202478Y-36771331D01*
X23211576Y-36726033D01*
X23218927Y-36673254D01*
X23224666Y-36610459D01*
X23228931Y-36535115D01*
X23231859Y-36444685D01*
X23233588Y-36336634D01*
X23234226Y-36213716D01*
X22641816Y-36213716D01*
X22641580Y-36332072D01*
X22640439Y-36429369D01*
X22638174Y-36507996D01*
X22634564Y-36570340D01*
X22629386Y-36618788D01*
X22622421Y-36655728D01*
X22613448Y-36683548D01*
X22602247Y-36704635D01*
X22588595Y-36721377D01*
X22572272Y-36736161D01*
X22562821Y-36743737D01*
X22514204Y-36766499D01*
X22452771Y-36774330D01*
X22389446Y-36767561D01*
X22335152Y-36746526D01*
X22320914Y-36736372D01*
X22303371Y-36720984D01*
X22288614Y-36705188D01*
X22276402Y-36686533D01*
X22266493Y-36662567D01*
X22258648Y-36630840D01*
X22252625Y-36588901D01*
X22248184Y-36534297D01*
X22245085Y-36464580D01*
X22243085Y-36377297D01*
X22241946Y-36269997D01*
X22241425Y-36140230D01*
X22241283Y-35985544D01*
X22241278Y-35925445D01*
X22241355Y-35762072D01*
X22241730Y-35624458D01*
X22242620Y-35510141D01*
X22244242Y-35416657D01*
X22246812Y-35341543D01*
X22250549Y-35282336D01*
X22255668Y-35236574D01*
X22262387Y-35201793D01*
X22270922Y-35175531D01*
X22281491Y-35155324D01*
X22294310Y-35138710D01*
X22309595Y-35123225D01*
X22312134Y-35120829D01*
X22356669Y-35095167D01*
X22416088Y-35081656D01*
X22479317Y-35081364D01*
X22535286Y-35095360D01*
X22542120Y-35098628D01*
X22562611Y-35109411D01*
X22579891Y-35120384D01*
X22594250Y-35133910D01*
X22605976Y-35152353D01*
X22615356Y-35178076D01*
X22622681Y-35213443D01*
X22628237Y-35260818D01*
X22632315Y-35322563D01*
X22635201Y-35401042D01*
X22637185Y-35498620D01*
X22638555Y-35617659D01*
X22639600Y-35760522D01*
X22640459Y-35904278D01*
X22641368Y-36071914D01*
X22641816Y-36213716D01*
X23234226Y-36213716D01*
X23234254Y-36208428D01*
X23233993Y-36057531D01*
X23232944Y-35881409D01*
X23232683Y-35846975D01*
X23231277Y-35677852D01*
X23229718Y-35534351D01*
X23227732Y-35413872D01*
X23225047Y-35313816D01*
X23221390Y-35231582D01*
X23216486Y-35164571D01*
X23210063Y-35110183D01*
X23201847Y-35065818D01*
X23191567Y-35028875D01*
X23178947Y-34996756D01*
X23163715Y-34966860D01*
X23145597Y-34936588D01*
X23135307Y-34920398D01*
X23071780Y-34844823D01*
X22985388Y-34777374D01*
X22881014Y-34721024D01*
X22763543Y-34678750D01*
X22721033Y-34668010D01*
X22655514Y-34657915D01*
X22570986Y-34651684D01*
X22475276Y-34649221D01*
X22376208Y-34650429D01*
G36*
X22638626Y-37541167D02*
G01*
X22369397Y-38369304D01*
X22321602Y-38516004D01*
X22276218Y-38654697D01*
X22234017Y-38783060D01*
X22195774Y-38898771D01*
X22162261Y-38999507D01*
X22134250Y-39082945D01*
X22112516Y-39146762D01*
X22097830Y-39188636D01*
X22090967Y-39206244D01*
X22090717Y-39206606D01*
X22089152Y-39194582D01*
X22087934Y-39156749D01*
X22087067Y-39095520D01*
X22086553Y-39013305D01*
X22086397Y-38912518D01*
X22086603Y-38795568D01*
X22087175Y-38664869D01*
X22088115Y-38522831D01*
X22089400Y-38374941D01*
X22097533Y-37534111D01*
X21599222Y-37534111D01*
X21599222Y-40031778D01*
X22230280Y-40031778D01*
X22510945Y-39219239D01*
X22791611Y-38406700D01*
X22795254Y-39219239D01*
X22798896Y-40031778D01*
X23292556Y-40031778D01*
X23292556Y-37533591D01*
X22638626Y-37541167D01*
G37*
X22638626Y-37541167D02*
X22369397Y-38369304D01*
X22321602Y-38516004D01*
X22276218Y-38654697D01*
X22234017Y-38783060D01*
X22195774Y-38898771D01*
X22162261Y-38999507D01*
X22134250Y-39082945D01*
X22112516Y-39146762D01*
X22097830Y-39188636D01*
X22090967Y-39206244D01*
X22090717Y-39206606D01*
X22089152Y-39194582D01*
X22087934Y-39156749D01*
X22087067Y-39095520D01*
X22086553Y-39013305D01*
X22086397Y-38912518D01*
X22086603Y-38795568D01*
X22087175Y-38664869D01*
X22088115Y-38522831D01*
X22089400Y-38374941D01*
X22097533Y-37534111D01*
X21599222Y-37534111D01*
X21599222Y-40031778D01*
X22230280Y-40031778D01*
X22510945Y-39219239D01*
X22791611Y-38406700D01*
X22795254Y-39219239D01*
X22798896Y-40031778D01*
X23292556Y-40031778D01*
X23292556Y-37533591D01*
X22638626Y-37541167D01*
G36*
X19990556Y-39890667D02*
G01*
X20639667Y-39890667D01*
X20639667Y-40441000D01*
X20032889Y-40441000D01*
X20032889Y-40892556D01*
X20639667Y-40892556D01*
X20639667Y-41485223D01*
X19934111Y-41485223D01*
X19934111Y-41936778D01*
X21232333Y-41936778D01*
X21232333Y-39439111D01*
X19990556Y-39439111D01*
X19990556Y-39890667D01*
G37*
X19990556Y-39890667D02*
X20639667Y-39890667D01*
X20639667Y-40441000D01*
X20032889Y-40441000D01*
X20032889Y-40892556D01*
X20639667Y-40892556D01*
X20639667Y-41485223D01*
X19934111Y-41485223D01*
X19934111Y-41936778D01*
X21232333Y-41936778D01*
X21232333Y-39439111D01*
X19990556Y-39439111D01*
X19990556Y-39890667D01*
G36*
X20414981Y-42276598D02*
G01*
X20342534Y-42283748D01*
X20321692Y-42287348D01*
X20186461Y-42325641D01*
X20071480Y-42381035D01*
X19977842Y-42452675D01*
X19906639Y-42539705D01*
X19858966Y-42641268D01*
X19855422Y-42652568D01*
X19843278Y-42707671D01*
X19833100Y-42781990D01*
X19826018Y-42866535D01*
X19824358Y-42899861D01*
X19817744Y-43065667D01*
X20411320Y-43065667D01*
X20416132Y-42917789D01*
X20418849Y-42850458D01*
X20422700Y-42804973D01*
X20429084Y-42774959D01*
X20439401Y-42754041D01*
X20455048Y-42735844D01*
X20456346Y-42734541D01*
X20506129Y-42702371D01*
X20566534Y-42688817D01*
X20629676Y-42692899D01*
X20687671Y-42713639D01*
X20732632Y-42750056D01*
X20746122Y-42770536D01*
X20760813Y-42819025D01*
X20765947Y-42880559D01*
X20761495Y-42942131D01*
X20747428Y-42990732D01*
X20746632Y-42992284D01*
X20727264Y-43022106D01*
X20697425Y-43056232D01*
X20654853Y-43096586D01*
X20597285Y-43145090D01*
X20522460Y-43203667D01*
X20428117Y-43274241D01*
X20336278Y-43341203D01*
X20237513Y-43412825D01*
X20158545Y-43470767D01*
X20096170Y-43517704D01*
X20047186Y-43556314D01*
X20008391Y-43589273D01*
X19976582Y-43619256D01*
X19948557Y-43648941D01*
X19921113Y-43681005D01*
X19902814Y-43703465D01*
X19848085Y-43783218D01*
X19810301Y-43868244D01*
X19787610Y-43964765D01*
X19778160Y-44078999D01*
X19777638Y-44124000D01*
X19785308Y-44264478D01*
X19808323Y-44384233D01*
X19848057Y-44487065D01*
X19905885Y-44576775D01*
X19964326Y-44639980D01*
X20016211Y-44683254D01*
X20075169Y-44724034D01*
X20120703Y-44749546D01*
X20226982Y-44788523D01*
X20353654Y-44815999D01*
X20495026Y-44831250D01*
X20645407Y-44833550D01*
X20738831Y-44828309D01*
X20829473Y-44815609D01*
X20925076Y-44793549D01*
X21016622Y-44764831D01*
X21095089Y-44732162D01*
X21136285Y-44709128D01*
X21221584Y-44641932D01*
X21288981Y-44562537D01*
X21339567Y-44468316D01*
X21374436Y-44356639D01*
X21394679Y-44224879D01*
X21401387Y-44071084D01*
X21401667Y-43940556D01*
X20809000Y-43940556D01*
X20808690Y-44092250D01*
X20805502Y-44189405D01*
X20795298Y-44263099D01*
X20776443Y-44317579D01*
X20747299Y-44357088D01*
X20706232Y-44385873D01*
X20693060Y-44392278D01*
X20614182Y-44416457D01*
X20539335Y-44413982D01*
X20478008Y-44392411D01*
X20418279Y-44349060D01*
X20379321Y-44288627D01*
X20362193Y-44214223D01*
X20367953Y-44128964D01*
X20376504Y-44093881D01*
X20389650Y-44056752D01*
X20408199Y-44021534D01*
X20434753Y-43985763D01*
X20471914Y-43946973D01*
X20522282Y-43902701D01*
X20588459Y-43850482D01*
X20673046Y-43787852D01*
X20778643Y-43712345D01*
X20780778Y-43710834D01*
X20862840Y-43651770D01*
X20942930Y-43592281D01*
X21016088Y-43536188D01*
X21077352Y-43487315D01*
X21121763Y-43449484D01*
X21130837Y-43441071D01*
X21226311Y-43335683D01*
X21295225Y-43226107D01*
X21338554Y-43109349D01*
X21357271Y-42982414D01*
X21352353Y-42842307D01*
X21344435Y-42784660D01*
X21311044Y-42660664D01*
X21254219Y-42551602D01*
X21175187Y-42458682D01*
X21075175Y-42383114D01*
X20955409Y-42326108D01*
X20847836Y-42295037D01*
X20780530Y-42284544D01*
X20694987Y-42277327D01*
X20599812Y-42273514D01*
X20503609Y-42273229D01*
X20414981Y-42276598D01*
G37*
X20414981Y-42276598D02*
X20342534Y-42283748D01*
X20321692Y-42287348D01*
X20186461Y-42325641D01*
X20071480Y-42381035D01*
X19977842Y-42452675D01*
X19906639Y-42539705D01*
X19858966Y-42641268D01*
X19855422Y-42652568D01*
X19843278Y-42707671D01*
X19833100Y-42781990D01*
X19826018Y-42866535D01*
X19824358Y-42899861D01*
X19817744Y-43065667D01*
X20411320Y-43065667D01*
X20416132Y-42917789D01*
X20418849Y-42850458D01*
X20422700Y-42804973D01*
X20429084Y-42774959D01*
X20439401Y-42754041D01*
X20455048Y-42735844D01*
X20456346Y-42734541D01*
X20506129Y-42702371D01*
X20566534Y-42688817D01*
X20629676Y-42692899D01*
X20687671Y-42713639D01*
X20732632Y-42750056D01*
X20746122Y-42770536D01*
X20760813Y-42819025D01*
X20765947Y-42880559D01*
X20761495Y-42942131D01*
X20747428Y-42990732D01*
X20746632Y-42992284D01*
X20727264Y-43022106D01*
X20697425Y-43056232D01*
X20654853Y-43096586D01*
X20597285Y-43145090D01*
X20522460Y-43203667D01*
X20428117Y-43274241D01*
X20336278Y-43341203D01*
X20237513Y-43412825D01*
X20158545Y-43470767D01*
X20096170Y-43517704D01*
X20047186Y-43556314D01*
X20008391Y-43589273D01*
X19976582Y-43619256D01*
X19948557Y-43648941D01*
X19921113Y-43681005D01*
X19902814Y-43703465D01*
X19848085Y-43783218D01*
X19810301Y-43868244D01*
X19787610Y-43964765D01*
X19778160Y-44078999D01*
X19777638Y-44124000D01*
X19785308Y-44264478D01*
X19808323Y-44384233D01*
X19848057Y-44487065D01*
X19905885Y-44576775D01*
X19964326Y-44639980D01*
X20016211Y-44683254D01*
X20075169Y-44724034D01*
X20120703Y-44749546D01*
X20226982Y-44788523D01*
X20353654Y-44815999D01*
X20495026Y-44831250D01*
X20645407Y-44833550D01*
X20738831Y-44828309D01*
X20829473Y-44815609D01*
X20925076Y-44793549D01*
X21016622Y-44764831D01*
X21095089Y-44732162D01*
X21136285Y-44709128D01*
X21221584Y-44641932D01*
X21288981Y-44562537D01*
X21339567Y-44468316D01*
X21374436Y-44356639D01*
X21394679Y-44224879D01*
X21401387Y-44071084D01*
X21401667Y-43940556D01*
X20809000Y-43940556D01*
X20808690Y-44092250D01*
X20805502Y-44189405D01*
X20795298Y-44263099D01*
X20776443Y-44317579D01*
X20747299Y-44357088D01*
X20706232Y-44385873D01*
X20693060Y-44392278D01*
X20614182Y-44416457D01*
X20539335Y-44413982D01*
X20478008Y-44392411D01*
X20418279Y-44349060D01*
X20379321Y-44288627D01*
X20362193Y-44214223D01*
X20367953Y-44128964D01*
X20376504Y-44093881D01*
X20389650Y-44056752D01*
X20408199Y-44021534D01*
X20434753Y-43985763D01*
X20471914Y-43946973D01*
X20522282Y-43902701D01*
X20588459Y-43850482D01*
X20673046Y-43787852D01*
X20778643Y-43712345D01*
X20780778Y-43710834D01*
X20862840Y-43651770D01*
X20942930Y-43592281D01*
X21016088Y-43536188D01*
X21077352Y-43487315D01*
X21121763Y-43449484D01*
X21130837Y-43441071D01*
X21226311Y-43335683D01*
X21295225Y-43226107D01*
X21338554Y-43109349D01*
X21357271Y-42982414D01*
X21352353Y-42842307D01*
X21344435Y-42784660D01*
X21311044Y-42660664D01*
X21254219Y-42551602D01*
X21175187Y-42458682D01*
X21075175Y-42383114D01*
X20955409Y-42326108D01*
X20847836Y-42295037D01*
X20780530Y-42284544D01*
X20694987Y-42277327D01*
X20599812Y-42273514D01*
X20503609Y-42273229D01*
X20414981Y-42276598D01*
G36*
X24834667Y-31947873D02*
G01*
X24593891Y-31948210D01*
X24325985Y-31948815D01*
X24294444Y-31948899D01*
X22706944Y-31953167D01*
X22614554Y-31996949D01*
X22510733Y-32056554D01*
X22428284Y-32128345D01*
X22367272Y-32207834D01*
X22347854Y-32238650D01*
X22331426Y-32267211D01*
X22317737Y-32296087D01*
X22306538Y-32327850D01*
X22297579Y-32365069D01*
X22290610Y-32410315D01*
X22285381Y-32466159D01*
X22281642Y-32535172D01*
X22279144Y-32619924D01*
X22277636Y-32722986D01*
X22276868Y-32846929D01*
X22276592Y-32994323D01*
X22276556Y-33141061D01*
X22276556Y-33851111D01*
X21581020Y-33851111D01*
X21416064Y-33851245D01*
X21276875Y-33851689D01*
X21160999Y-33852511D01*
X21065983Y-33853778D01*
X20989372Y-33855556D01*
X20928713Y-33857912D01*
X20881551Y-33860912D01*
X20845434Y-33864623D01*
X20817906Y-33869113D01*
X20804479Y-33872211D01*
X20685296Y-33914355D01*
X20586335Y-33974411D01*
X20504292Y-34054702D01*
X20462272Y-34112834D01*
X20450318Y-34130903D01*
X20439459Y-34146905D01*
X20429643Y-34162206D01*
X20420817Y-34178172D01*
X20412928Y-34196170D01*
X20405925Y-34217565D01*
X20399755Y-34243722D01*
X20394365Y-34276009D01*
X20389703Y-34315790D01*
X20385717Y-34364432D01*
X20382355Y-34423300D01*
X20379563Y-34493761D01*
X20377290Y-34577180D01*
X20375483Y-34674923D01*
X20374090Y-34788356D01*
X20373059Y-34918845D01*
X20372336Y-35067756D01*
X20371870Y-35236454D01*
X20371608Y-35426306D01*
X20371498Y-35638677D01*
X20371487Y-35874934D01*
X20371524Y-36136442D01*
X20371555Y-36424567D01*
X20371556Y-36477860D01*
X20371556Y-38619708D01*
X19634250Y-38623715D01*
X19471247Y-38624620D01*
X19333961Y-38625487D01*
X19219888Y-38626430D01*
X19126522Y-38627562D01*
X19051359Y-38628996D01*
X18991894Y-38630845D01*
X18945622Y-38633222D01*
X18910038Y-38636241D01*
X18882639Y-38640013D01*
X18860918Y-38644653D01*
X18842371Y-38650273D01*
X18824494Y-38656986D01*
X18815318Y-38660669D01*
X18726978Y-38708975D01*
X18642635Y-38778261D01*
X18569666Y-38861488D01*
X18519722Y-38942685D01*
X18473611Y-39036347D01*
X18469956Y-42091181D01*
X18469554Y-42439592D01*
X18469217Y-42760898D01*
X18468953Y-43056215D01*
X18468768Y-43326661D01*
X18468669Y-43573351D01*
X18468663Y-43797402D01*
X18468756Y-43999932D01*
X18468955Y-44182058D01*
X18469267Y-44344895D01*
X18469699Y-44489560D01*
X18470256Y-44617171D01*
X18470946Y-44728845D01*
X18471776Y-44825697D01*
X18472751Y-44908844D01*
X18473880Y-44979404D01*
X18475167Y-45038494D01*
X18476621Y-45087229D01*
X18478248Y-45126726D01*
X18480054Y-45158103D01*
X18482047Y-45182477D01*
X18484232Y-45200963D01*
X18486616Y-45214679D01*
X18488679Y-45222991D01*
X18535440Y-45334689D01*
X18605660Y-45434342D01*
X18695789Y-45518089D01*
X18802276Y-45582068D01*
X18829887Y-45594059D01*
X18911056Y-45626834D01*
X20498556Y-45629384D01*
X20761486Y-45629731D01*
X20997425Y-45629873D01*
X21207604Y-45629800D01*
X21393252Y-45629501D01*
X21555600Y-45628965D01*
X21695878Y-45628183D01*
X21815317Y-45627141D01*
X21915148Y-45625831D01*
X21996599Y-45624242D01*
X22060903Y-45622361D01*
X22109289Y-45620179D01*
X22142988Y-45617685D01*
X22163229Y-45614868D01*
X22163667Y-45614773D01*
X22281584Y-45575096D01*
X22386060Y-45512779D01*
X22474097Y-45430871D01*
X22542698Y-45332422D01*
X22588867Y-45220483D01*
X22600914Y-45169824D01*
X22603075Y-45143859D01*
X22605067Y-45090064D01*
X22606890Y-45008829D01*
X22608540Y-44900547D01*
X22610014Y-44765608D01*
X22611310Y-44604403D01*
X22612426Y-44417324D01*
X22613359Y-44204763D01*
X22614106Y-43967110D01*
X22614664Y-43704756D01*
X22615032Y-43418093D01*
X22615207Y-43107513D01*
X22615222Y-42979074D01*
X22615222Y-40864334D01*
X23317250Y-40864166D01*
X23488121Y-40863948D01*
X23632893Y-40863348D01*
X23753685Y-40862314D01*
X23852619Y-40860793D01*
X23931815Y-40858733D01*
X23993393Y-40856081D01*
X24039474Y-40852787D01*
X24072180Y-40848797D01*
X24089833Y-40845152D01*
X24208278Y-40799865D01*
X24311291Y-40732738D01*
X24396274Y-40646462D01*
X24460631Y-40543727D01*
X24501766Y-40427223D01*
X24504356Y-40415611D01*
X24506721Y-40394780D01*
X24508875Y-40355097D01*
X24510823Y-40295828D01*
X24512572Y-40216239D01*
X24514125Y-40115596D01*
X24515490Y-39993167D01*
X24516670Y-39848216D01*
X24517671Y-39680012D01*
X24518499Y-39487819D01*
X24519158Y-39270905D01*
X24519654Y-39028536D01*
X24519993Y-38759978D01*
X24520179Y-38464497D01*
X24520222Y-38217806D01*
X24520222Y-36094778D01*
X25236361Y-36094625D01*
X25405091Y-36094532D01*
X25548153Y-36094188D01*
X25668102Y-36093379D01*
X25767491Y-36091891D01*
X25848874Y-36089511D01*
X25914807Y-36086025D01*
X25967842Y-36081219D01*
X26010535Y-36074879D01*
X26045440Y-36066792D01*
X26075110Y-36056744D01*
X26102101Y-36044521D01*
X26128966Y-36029910D01*
X26148864Y-36018265D01*
X26237418Y-35950759D01*
X26313805Y-35863036D01*
X26372972Y-35762190D01*
X26409867Y-35655313D01*
X26410965Y-35650278D01*
X26413609Y-35624556D01*
X26415917Y-35573705D01*
X26417892Y-35497410D01*
X26419536Y-35395360D01*
X26420850Y-35267239D01*
X26421837Y-35112733D01*
X26422342Y-34974473D01*
X26084826Y-34974473D01*
X26084662Y-35101803D01*
X26084279Y-35210515D01*
X26083653Y-35302211D01*
X26082760Y-35378490D01*
X26081575Y-35440955D01*
X26080074Y-35491205D01*
X26078234Y-35530842D01*
X26076029Y-35561465D01*
X26073436Y-35584677D01*
X26070430Y-35602077D01*
X26066988Y-35615267D01*
X26063084Y-35625847D01*
X26058696Y-35635418D01*
X26058514Y-35635794D01*
X26015428Y-35695181D01*
X25975272Y-35725291D01*
X25963113Y-35731882D01*
X25950443Y-35737459D01*
X25934934Y-35742107D01*
X25914261Y-35745910D01*
X25886097Y-35748954D01*
X25848117Y-35751323D01*
X25797993Y-35753101D01*
X25733401Y-35754374D01*
X25652013Y-35755225D01*
X25551504Y-35755740D01*
X25429548Y-35756003D01*
X25283817Y-35756098D01*
X25128153Y-35756111D01*
X24952307Y-35756144D01*
X24802427Y-35756356D01*
X24676256Y-35756922D01*
X24571539Y-35758014D01*
X24486019Y-35759808D01*
X24417440Y-35762475D01*
X24363546Y-35766190D01*
X24322080Y-35771127D01*
X24290787Y-35777458D01*
X24267410Y-35785357D01*
X24249692Y-35794998D01*
X24235378Y-35806554D01*
X24222211Y-35820199D01*
X24216833Y-35826199D01*
X24213144Y-35830708D01*
X24209787Y-35836447D01*
X24206740Y-35844721D01*
X24203984Y-35856834D01*
X24201499Y-35874091D01*
X24199264Y-35897797D01*
X24197261Y-35929257D01*
X24195468Y-35969777D01*
X24193866Y-36020660D01*
X24192434Y-36083212D01*
X24191152Y-36158738D01*
X24190001Y-36248542D01*
X24188961Y-36353930D01*
X24188010Y-36476207D01*
X24187130Y-36616677D01*
X24186300Y-36776646D01*
X24185500Y-36957417D01*
X24184710Y-37160297D01*
X24183909Y-37386590D01*
X24183079Y-37637602D01*
X24182198Y-37914636D01*
X24181556Y-38120170D01*
X24180631Y-38415753D01*
X24179772Y-38684422D01*
X24178960Y-38927488D01*
X24178173Y-39146259D01*
X24177392Y-39342045D01*
X24176595Y-39516153D01*
X24175761Y-39669895D01*
X24174871Y-39804577D01*
X24173904Y-39921510D01*
X24172838Y-40022003D01*
X24171655Y-40107365D01*
X24170332Y-40178905D01*
X24168850Y-40237931D01*
X24167188Y-40285754D01*
X24165325Y-40323681D01*
X24163241Y-40353023D01*
X24160915Y-40375089D01*
X24158327Y-40391186D01*
X24155456Y-40402625D01*
X24152281Y-40410715D01*
X24148783Y-40416764D01*
X24145406Y-40421458D01*
X24111801Y-40459132D01*
X24077360Y-40489517D01*
X24068516Y-40495608D01*
X24058084Y-40500809D01*
X24043841Y-40505213D01*
X24023565Y-40508912D01*
X23995034Y-40511998D01*
X23956026Y-40514564D01*
X23904319Y-40516702D01*
X23837689Y-40518503D01*
X23753916Y-40520060D01*
X23650777Y-40521465D01*
X23526049Y-40522811D01*
X23377511Y-40524188D01*
X23205776Y-40525667D01*
X22373143Y-40532723D01*
X22324849Y-40585432D01*
X22276556Y-40638141D01*
X22276246Y-42871432D01*
X22276197Y-43165331D01*
X22276124Y-43432337D01*
X22276012Y-43673778D01*
X22275846Y-43890984D01*
X22275609Y-44085282D01*
X22275286Y-44258003D01*
X22274861Y-44410474D01*
X22274319Y-44544026D01*
X22273643Y-44659985D01*
X22272819Y-44759682D01*
X22271830Y-44844445D01*
X22270661Y-44915604D01*
X22269296Y-44974486D01*
X22267720Y-45022420D01*
X22265917Y-45060737D01*
X22263870Y-45090764D01*
X22261565Y-45113830D01*
X22258986Y-45131264D01*
X22256117Y-45144395D01*
X22252942Y-45154551D01*
X22249447Y-45163063D01*
X22249206Y-45163595D01*
X22208169Y-45225457D01*
X22149642Y-45266090D01*
X22103341Y-45281644D01*
X22083347Y-45283089D01*
X22037007Y-45284438D01*
X21966200Y-45285681D01*
X21872801Y-45286808D01*
X21758687Y-45287809D01*
X21625737Y-45288673D01*
X21475826Y-45289389D01*
X21310832Y-45289949D01*
X21132631Y-45290341D01*
X20943101Y-45290555D01*
X20744118Y-45290580D01*
X20537559Y-45290407D01*
X20512667Y-45290373D01*
X20270704Y-45290020D01*
X20055357Y-45289672D01*
X19865017Y-45289296D01*
X19698077Y-45288861D01*
X19552930Y-45288335D01*
X19427969Y-45287688D01*
X19321585Y-45286888D01*
X19232173Y-45285903D01*
X19158123Y-45284702D01*
X19097830Y-45283254D01*
X19049685Y-45281526D01*
X19012082Y-45279489D01*
X18983413Y-45277109D01*
X18962071Y-45274356D01*
X18946447Y-45271198D01*
X18934936Y-45267604D01*
X18925930Y-45263543D01*
X18918159Y-45259182D01*
X18876103Y-45226835D01*
X18839674Y-45186813D01*
X18837020Y-45183012D01*
X18805222Y-45135827D01*
X18805222Y-42128499D01*
X18805229Y-41785267D01*
X18805254Y-41469124D01*
X18805308Y-41178937D01*
X18805400Y-40913573D01*
X18805541Y-40671899D01*
X18805739Y-40452782D01*
X18806005Y-40255089D01*
X18806348Y-40077686D01*
X18806778Y-39919442D01*
X18807304Y-39779222D01*
X18807937Y-39655893D01*
X18808686Y-39548323D01*
X18809561Y-39455379D01*
X18810571Y-39375927D01*
X18811726Y-39308835D01*
X18813036Y-39252968D01*
X18814510Y-39207195D01*
X18816158Y-39170383D01*
X18817991Y-39141397D01*
X18820017Y-39119105D01*
X18822246Y-39102375D01*
X18824689Y-39090072D01*
X18827354Y-39081064D01*
X18830251Y-39074218D01*
X18831386Y-39072002D01*
X18861052Y-39033076D01*
X18901952Y-38997962D01*
X18912525Y-38991316D01*
X18967500Y-38959798D01*
X19771833Y-38959513D01*
X19943030Y-38959419D01*
X20088284Y-38959217D01*
X20209878Y-38958833D01*
X20310092Y-38958193D01*
X20391207Y-38957222D01*
X20455503Y-38955846D01*
X20505262Y-38953991D01*
X20542764Y-38951582D01*
X20570289Y-38948545D01*
X20590119Y-38944806D01*
X20604534Y-38940289D01*
X20615816Y-38934921D01*
X20621127Y-38931814D01*
X20656866Y-38904271D01*
X20683246Y-38874195D01*
X20684627Y-38871894D01*
X20687146Y-38862966D01*
X20689472Y-38844597D01*
X20691618Y-38815626D01*
X20693597Y-38774895D01*
X20695422Y-38721242D01*
X20697106Y-38653509D01*
X20698662Y-38570536D01*
X20700102Y-38471163D01*
X20701441Y-38354230D01*
X20702690Y-38218578D01*
X20703863Y-38063047D01*
X20704973Y-37886477D01*
X20706032Y-37687708D01*
X20707055Y-37465582D01*
X20708053Y-37218937D01*
X20709040Y-36946615D01*
X20710029Y-36647455D01*
X20710222Y-36586171D01*
X20711149Y-36291211D01*
X20712009Y-36023161D01*
X20712823Y-35780710D01*
X20713611Y-35562545D01*
X20714394Y-35367355D01*
X20715193Y-35193828D01*
X20716029Y-35040652D01*
X20716922Y-34906516D01*
X20717893Y-34790107D01*
X20718963Y-34690113D01*
X20720152Y-34605224D01*
X20721481Y-34534127D01*
X20722970Y-34475510D01*
X20724641Y-34428061D01*
X20726515Y-34390469D01*
X20728610Y-34361422D01*
X20730950Y-34339608D01*
X20733553Y-34323714D01*
X20736441Y-34312431D01*
X20739635Y-34304444D01*
X20743155Y-34298444D01*
X20746372Y-34293987D01*
X20779977Y-34256313D01*
X20814417Y-34225928D01*
X20823274Y-34219829D01*
X20833723Y-34214621D01*
X20847989Y-34210213D01*
X20868298Y-34206512D01*
X20896877Y-34203424D01*
X20935950Y-34200859D01*
X20987745Y-34198721D01*
X21054487Y-34196921D01*
X21138401Y-34195364D01*
X21241715Y-34193957D01*
X21366654Y-34192610D01*
X21515443Y-34191228D01*
X21683439Y-34189778D01*
X21857372Y-34188272D01*
X22005287Y-34186883D01*
X22129389Y-34185522D01*
X22231882Y-34184098D01*
X22314970Y-34182523D01*
X22380858Y-34180706D01*
X22431749Y-34178556D01*
X22469847Y-34175985D01*
X22497358Y-34172903D01*
X22516485Y-34169218D01*
X22529432Y-34164843D01*
X22538403Y-34159686D01*
X22544507Y-34154658D01*
X22557644Y-34142563D01*
X22568846Y-34130432D01*
X22578286Y-34116023D01*
X22586140Y-34097097D01*
X22592583Y-34071411D01*
X22597790Y-34036727D01*
X22601935Y-33990801D01*
X22605195Y-33931395D01*
X22607743Y-33856267D01*
X22609754Y-33763176D01*
X22611404Y-33649881D01*
X22612868Y-33514141D01*
X22614320Y-33353717D01*
X22615222Y-33248881D01*
X22616733Y-33076033D01*
X22618119Y-32929167D01*
X22619476Y-32806043D01*
X22620897Y-32704423D01*
X22622478Y-32622066D01*
X22624310Y-32556733D01*
X22626490Y-32506185D01*
X22629111Y-32468182D01*
X22632267Y-32440485D01*
X22636053Y-32420855D01*
X22640562Y-32407052D01*
X22645889Y-32396836D01*
X22651372Y-32388975D01*
X22684982Y-32351311D01*
X22719435Y-32320928D01*
X22725759Y-32316437D01*
X22733074Y-32312434D01*
X22742950Y-32308890D01*
X22756959Y-32305779D01*
X22776673Y-32303070D01*
X22803662Y-32300737D01*
X22839499Y-32298752D01*
X22885755Y-32297086D01*
X22944001Y-32295712D01*
X23015810Y-32294601D01*
X23102752Y-32293726D01*
X23206399Y-32293057D01*
X23328324Y-32292569D01*
X23470096Y-32292231D01*
X23633288Y-32292017D01*
X23819471Y-32291898D01*
X24030218Y-32291846D01*
X24267098Y-32291834D01*
X24350889Y-32291834D01*
X24596698Y-32291839D01*
X24815857Y-32291875D01*
X25009937Y-32291969D01*
X25180509Y-32292148D01*
X25329145Y-32292442D01*
X25457416Y-32292878D01*
X25566894Y-32293485D01*
X25659151Y-32294289D01*
X25735758Y-32295319D01*
X25798287Y-32296604D01*
X25848309Y-32298171D01*
X25887395Y-32300048D01*
X25917118Y-32302264D01*
X25939048Y-32304846D01*
X25954758Y-32307822D01*
X25965818Y-32311221D01*
X25973801Y-32315070D01*
X25980278Y-32319397D01*
X25982343Y-32320928D01*
X26020019Y-32354537D01*
X26050406Y-32388987D01*
X26054922Y-32395374D01*
X26058948Y-32402810D01*
X26062518Y-32412875D01*
X26065663Y-32427150D01*
X26068416Y-32447217D01*
X26070808Y-32474657D01*
X26072871Y-32511050D01*
X26074639Y-32557977D01*
X26076143Y-32617019D01*
X26077414Y-32689757D01*
X26078486Y-32777772D01*
X26079390Y-32882646D01*
X26080159Y-33005958D01*
X26080825Y-33149290D01*
X26081419Y-33314224D01*
X26081974Y-33502338D01*
X26082522Y-33715216D01*
X26083096Y-33954437D01*
X26083209Y-34002535D01*
X26083777Y-34246964D01*
X26084247Y-34464771D01*
X26084594Y-34657558D01*
X26084795Y-34826925D01*
X26084826Y-34974473D01*
X26422342Y-34974473D01*
X26422499Y-34931530D01*
X26422837Y-34723315D01*
X26422855Y-34487775D01*
X26422554Y-34224596D01*
X26422047Y-33978111D01*
X26418167Y-32376500D01*
X26373108Y-32281381D01*
X26306888Y-32172461D01*
X26221682Y-32082767D01*
X26120262Y-32014479D01*
X26005398Y-31969780D01*
X25966141Y-31960794D01*
X25942697Y-31958064D01*
X25901936Y-31955672D01*
X25842877Y-31953612D01*
X25764537Y-31951875D01*
X25665936Y-31950456D01*
X25546093Y-31949347D01*
X25404026Y-31948541D01*
X25238753Y-31948032D01*
X25049294Y-31947811D01*
X24834667Y-31947873D01*
G37*
X24834667Y-31947873D02*
X24593891Y-31948210D01*
X24325985Y-31948815D01*
X24294444Y-31948899D01*
X22706944Y-31953167D01*
X22614554Y-31996949D01*
X22510733Y-32056554D01*
X22428284Y-32128345D01*
X22367272Y-32207834D01*
X22347854Y-32238650D01*
X22331426Y-32267211D01*
X22317737Y-32296087D01*
X22306538Y-32327850D01*
X22297579Y-32365069D01*
X22290610Y-32410315D01*
X22285381Y-32466159D01*
X22281642Y-32535172D01*
X22279144Y-32619924D01*
X22277636Y-32722986D01*
X22276868Y-32846929D01*
X22276592Y-32994323D01*
X22276556Y-33141061D01*
X22276556Y-33851111D01*
X21581020Y-33851111D01*
X21416064Y-33851245D01*
X21276875Y-33851689D01*
X21160999Y-33852511D01*
X21065983Y-33853778D01*
X20989372Y-33855556D01*
X20928713Y-33857912D01*
X20881551Y-33860912D01*
X20845434Y-33864623D01*
X20817906Y-33869113D01*
X20804479Y-33872211D01*
X20685296Y-33914355D01*
X20586335Y-33974411D01*
X20504292Y-34054702D01*
X20462272Y-34112834D01*
X20450318Y-34130903D01*
X20439459Y-34146905D01*
X20429643Y-34162206D01*
X20420817Y-34178172D01*
X20412928Y-34196170D01*
X20405925Y-34217565D01*
X20399755Y-34243722D01*
X20394365Y-34276009D01*
X20389703Y-34315790D01*
X20385717Y-34364432D01*
X20382355Y-34423300D01*
X20379563Y-34493761D01*
X20377290Y-34577180D01*
X20375483Y-34674923D01*
X20374090Y-34788356D01*
X20373059Y-34918845D01*
X20372336Y-35067756D01*
X20371870Y-35236454D01*
X20371608Y-35426306D01*
X20371498Y-35638677D01*
X20371487Y-35874934D01*
X20371524Y-36136442D01*
X20371555Y-36424567D01*
X20371556Y-36477860D01*
X20371556Y-38619708D01*
X19634250Y-38623715D01*
X19471247Y-38624620D01*
X19333961Y-38625487D01*
X19219888Y-38626430D01*
X19126522Y-38627562D01*
X19051359Y-38628996D01*
X18991894Y-38630845D01*
X18945622Y-38633222D01*
X18910038Y-38636241D01*
X18882639Y-38640013D01*
X18860918Y-38644653D01*
X18842371Y-38650273D01*
X18824494Y-38656986D01*
X18815318Y-38660669D01*
X18726978Y-38708975D01*
X18642635Y-38778261D01*
X18569666Y-38861488D01*
X18519722Y-38942685D01*
X18473611Y-39036347D01*
X18469956Y-42091181D01*
X18469554Y-42439592D01*
X18469217Y-42760898D01*
X18468953Y-43056215D01*
X18468768Y-43326661D01*
X18468669Y-43573351D01*
X18468663Y-43797402D01*
X18468756Y-43999932D01*
X18468955Y-44182058D01*
X18469267Y-44344895D01*
X18469699Y-44489560D01*
X18470256Y-44617171D01*
X18470946Y-44728845D01*
X18471776Y-44825697D01*
X18472751Y-44908844D01*
X18473880Y-44979404D01*
X18475167Y-45038494D01*
X18476621Y-45087229D01*
X18478248Y-45126726D01*
X18480054Y-45158103D01*
X18482047Y-45182477D01*
X18484232Y-45200963D01*
X18486616Y-45214679D01*
X18488679Y-45222991D01*
X18535440Y-45334689D01*
X18605660Y-45434342D01*
X18695789Y-45518089D01*
X18802276Y-45582068D01*
X18829887Y-45594059D01*
X18911056Y-45626834D01*
X20498556Y-45629384D01*
X20761486Y-45629731D01*
X20997425Y-45629873D01*
X21207604Y-45629800D01*
X21393252Y-45629501D01*
X21555600Y-45628965D01*
X21695878Y-45628183D01*
X21815317Y-45627141D01*
X21915148Y-45625831D01*
X21996599Y-45624242D01*
X22060903Y-45622361D01*
X22109289Y-45620179D01*
X22142988Y-45617685D01*
X22163229Y-45614868D01*
X22163667Y-45614773D01*
X22281584Y-45575096D01*
X22386060Y-45512779D01*
X22474097Y-45430871D01*
X22542698Y-45332422D01*
X22588867Y-45220483D01*
X22600914Y-45169824D01*
X22603075Y-45143859D01*
X22605067Y-45090064D01*
X22606890Y-45008829D01*
X22608540Y-44900547D01*
X22610014Y-44765608D01*
X22611310Y-44604403D01*
X22612426Y-44417324D01*
X22613359Y-44204763D01*
X22614106Y-43967110D01*
X22614664Y-43704756D01*
X22615032Y-43418093D01*
X22615207Y-43107513D01*
X22615222Y-42979074D01*
X22615222Y-40864334D01*
X23317250Y-40864166D01*
X23488121Y-40863948D01*
X23632893Y-40863348D01*
X23753685Y-40862314D01*
X23852619Y-40860793D01*
X23931815Y-40858733D01*
X23993393Y-40856081D01*
X24039474Y-40852787D01*
X24072180Y-40848797D01*
X24089833Y-40845152D01*
X24208278Y-40799865D01*
X24311291Y-40732738D01*
X24396274Y-40646462D01*
X24460631Y-40543727D01*
X24501766Y-40427223D01*
X24504356Y-40415611D01*
X24506721Y-40394780D01*
X24508875Y-40355097D01*
X24510823Y-40295828D01*
X24512572Y-40216239D01*
X24514125Y-40115596D01*
X24515490Y-39993167D01*
X24516670Y-39848216D01*
X24517671Y-39680012D01*
X24518499Y-39487819D01*
X24519158Y-39270905D01*
X24519654Y-39028536D01*
X24519993Y-38759978D01*
X24520179Y-38464497D01*
X24520222Y-38217806D01*
X24520222Y-36094778D01*
X25236361Y-36094625D01*
X25405091Y-36094532D01*
X25548153Y-36094188D01*
X25668102Y-36093379D01*
X25767491Y-36091891D01*
X25848874Y-36089511D01*
X25914807Y-36086025D01*
X25967842Y-36081219D01*
X26010535Y-36074879D01*
X26045440Y-36066792D01*
X26075110Y-36056744D01*
X26102101Y-36044521D01*
X26128966Y-36029910D01*
X26148864Y-36018265D01*
X26237418Y-35950759D01*
X26313805Y-35863036D01*
X26372972Y-35762190D01*
X26409867Y-35655313D01*
X26410965Y-35650278D01*
X26413609Y-35624556D01*
X26415917Y-35573705D01*
X26417892Y-35497410D01*
X26419536Y-35395360D01*
X26420850Y-35267239D01*
X26421837Y-35112733D01*
X26422342Y-34974473D01*
X26084826Y-34974473D01*
X26084662Y-35101803D01*
X26084279Y-35210515D01*
X26083653Y-35302211D01*
X26082760Y-35378490D01*
X26081575Y-35440955D01*
X26080074Y-35491205D01*
X26078234Y-35530842D01*
X26076029Y-35561465D01*
X26073436Y-35584677D01*
X26070430Y-35602077D01*
X26066988Y-35615267D01*
X26063084Y-35625847D01*
X26058696Y-35635418D01*
X26058514Y-35635794D01*
X26015428Y-35695181D01*
X25975272Y-35725291D01*
X25963113Y-35731882D01*
X25950443Y-35737459D01*
X25934934Y-35742107D01*
X25914261Y-35745910D01*
X25886097Y-35748954D01*
X25848117Y-35751323D01*
X25797993Y-35753101D01*
X25733401Y-35754374D01*
X25652013Y-35755225D01*
X25551504Y-35755740D01*
X25429548Y-35756003D01*
X25283817Y-35756098D01*
X25128153Y-35756111D01*
X24952307Y-35756144D01*
X24802427Y-35756356D01*
X24676256Y-35756922D01*
X24571539Y-35758014D01*
X24486019Y-35759808D01*
X24417440Y-35762475D01*
X24363546Y-35766190D01*
X24322080Y-35771127D01*
X24290787Y-35777458D01*
X24267410Y-35785357D01*
X24249692Y-35794998D01*
X24235378Y-35806554D01*
X24222211Y-35820199D01*
X24216833Y-35826199D01*
X24213144Y-35830708D01*
X24209787Y-35836447D01*
X24206740Y-35844721D01*
X24203984Y-35856834D01*
X24201499Y-35874091D01*
X24199264Y-35897797D01*
X24197261Y-35929257D01*
X24195468Y-35969777D01*
X24193866Y-36020660D01*
X24192434Y-36083212D01*
X24191152Y-36158738D01*
X24190001Y-36248542D01*
X24188961Y-36353930D01*
X24188010Y-36476207D01*
X24187130Y-36616677D01*
X24186300Y-36776646D01*
X24185500Y-36957417D01*
X24184710Y-37160297D01*
X24183909Y-37386590D01*
X24183079Y-37637602D01*
X24182198Y-37914636D01*
X24181556Y-38120170D01*
X24180631Y-38415753D01*
X24179772Y-38684422D01*
X24178960Y-38927488D01*
X24178173Y-39146259D01*
X24177392Y-39342045D01*
X24176595Y-39516153D01*
X24175761Y-39669895D01*
X24174871Y-39804577D01*
X24173904Y-39921510D01*
X24172838Y-40022003D01*
X24171655Y-40107365D01*
X24170332Y-40178905D01*
X24168850Y-40237931D01*
X24167188Y-40285754D01*
X24165325Y-40323681D01*
X24163241Y-40353023D01*
X24160915Y-40375089D01*
X24158327Y-40391186D01*
X24155456Y-40402625D01*
X24152281Y-40410715D01*
X24148783Y-40416764D01*
X24145406Y-40421458D01*
X24111801Y-40459132D01*
X24077360Y-40489517D01*
X24068516Y-40495608D01*
X24058084Y-40500809D01*
X24043841Y-40505213D01*
X24023565Y-40508912D01*
X23995034Y-40511998D01*
X23956026Y-40514564D01*
X23904319Y-40516702D01*
X23837689Y-40518503D01*
X23753916Y-40520060D01*
X23650777Y-40521465D01*
X23526049Y-40522811D01*
X23377511Y-40524188D01*
X23205776Y-40525667D01*
X22373143Y-40532723D01*
X22324849Y-40585432D01*
X22276556Y-40638141D01*
X22276246Y-42871432D01*
X22276197Y-43165331D01*
X22276124Y-43432337D01*
X22276012Y-43673778D01*
X22275846Y-43890984D01*
X22275609Y-44085282D01*
X22275286Y-44258003D01*
X22274861Y-44410474D01*
X22274319Y-44544026D01*
X22273643Y-44659985D01*
X22272819Y-44759682D01*
X22271830Y-44844445D01*
X22270661Y-44915604D01*
X22269296Y-44974486D01*
X22267720Y-45022420D01*
X22265917Y-45060737D01*
X22263870Y-45090764D01*
X22261565Y-45113830D01*
X22258986Y-45131264D01*
X22256117Y-45144395D01*
X22252942Y-45154551D01*
X22249447Y-45163063D01*
X22249206Y-45163595D01*
X22208169Y-45225457D01*
X22149642Y-45266090D01*
X22103341Y-45281644D01*
X22083347Y-45283089D01*
X22037007Y-45284438D01*
X21966200Y-45285681D01*
X21872801Y-45286808D01*
X21758687Y-45287809D01*
X21625737Y-45288673D01*
X21475826Y-45289389D01*
X21310832Y-45289949D01*
X21132631Y-45290341D01*
X20943101Y-45290555D01*
X20744118Y-45290580D01*
X20537559Y-45290407D01*
X20512667Y-45290373D01*
X20270704Y-45290020D01*
X20055357Y-45289672D01*
X19865017Y-45289296D01*
X19698077Y-45288861D01*
X19552930Y-45288335D01*
X19427969Y-45287688D01*
X19321585Y-45286888D01*
X19232173Y-45285903D01*
X19158123Y-45284702D01*
X19097830Y-45283254D01*
X19049685Y-45281526D01*
X19012082Y-45279489D01*
X18983413Y-45277109D01*
X18962071Y-45274356D01*
X18946447Y-45271198D01*
X18934936Y-45267604D01*
X18925930Y-45263543D01*
X18918159Y-45259182D01*
X18876103Y-45226835D01*
X18839674Y-45186813D01*
X18837020Y-45183012D01*
X18805222Y-45135827D01*
X18805222Y-42128499D01*
X18805229Y-41785267D01*
X18805254Y-41469124D01*
X18805308Y-41178937D01*
X18805400Y-40913573D01*
X18805541Y-40671899D01*
X18805739Y-40452782D01*
X18806005Y-40255089D01*
X18806348Y-40077686D01*
X18806778Y-39919442D01*
X18807304Y-39779222D01*
X18807937Y-39655893D01*
X18808686Y-39548323D01*
X18809561Y-39455379D01*
X18810571Y-39375927D01*
X18811726Y-39308835D01*
X18813036Y-39252968D01*
X18814510Y-39207195D01*
X18816158Y-39170383D01*
X18817991Y-39141397D01*
X18820017Y-39119105D01*
X18822246Y-39102375D01*
X18824689Y-39090072D01*
X18827354Y-39081064D01*
X18830251Y-39074218D01*
X18831386Y-39072002D01*
X18861052Y-39033076D01*
X18901952Y-38997962D01*
X18912525Y-38991316D01*
X18967500Y-38959798D01*
X19771833Y-38959513D01*
X19943030Y-38959419D01*
X20088284Y-38959217D01*
X20209878Y-38958833D01*
X20310092Y-38958193D01*
X20391207Y-38957222D01*
X20455503Y-38955846D01*
X20505262Y-38953991D01*
X20542764Y-38951582D01*
X20570289Y-38948545D01*
X20590119Y-38944806D01*
X20604534Y-38940289D01*
X20615816Y-38934921D01*
X20621127Y-38931814D01*
X20656866Y-38904271D01*
X20683246Y-38874195D01*
X20684627Y-38871894D01*
X20687146Y-38862966D01*
X20689472Y-38844597D01*
X20691618Y-38815626D01*
X20693597Y-38774895D01*
X20695422Y-38721242D01*
X20697106Y-38653509D01*
X20698662Y-38570536D01*
X20700102Y-38471163D01*
X20701441Y-38354230D01*
X20702690Y-38218578D01*
X20703863Y-38063047D01*
X20704973Y-37886477D01*
X20706032Y-37687708D01*
X20707055Y-37465582D01*
X20708053Y-37218937D01*
X20709040Y-36946615D01*
X20710029Y-36647455D01*
X20710222Y-36586171D01*
X20711149Y-36291211D01*
X20712009Y-36023161D01*
X20712823Y-35780710D01*
X20713611Y-35562545D01*
X20714394Y-35367355D01*
X20715193Y-35193828D01*
X20716029Y-35040652D01*
X20716922Y-34906516D01*
X20717893Y-34790107D01*
X20718963Y-34690113D01*
X20720152Y-34605224D01*
X20721481Y-34534127D01*
X20722970Y-34475510D01*
X20724641Y-34428061D01*
X20726515Y-34390469D01*
X20728610Y-34361422D01*
X20730950Y-34339608D01*
X20733553Y-34323714D01*
X20736441Y-34312431D01*
X20739635Y-34304444D01*
X20743155Y-34298444D01*
X20746372Y-34293987D01*
X20779977Y-34256313D01*
X20814417Y-34225928D01*
X20823274Y-34219829D01*
X20833723Y-34214621D01*
X20847989Y-34210213D01*
X20868298Y-34206512D01*
X20896877Y-34203424D01*
X20935950Y-34200859D01*
X20987745Y-34198721D01*
X21054487Y-34196921D01*
X21138401Y-34195364D01*
X21241715Y-34193957D01*
X21366654Y-34192610D01*
X21515443Y-34191228D01*
X21683439Y-34189778D01*
X21857372Y-34188272D01*
X22005287Y-34186883D01*
X22129389Y-34185522D01*
X22231882Y-34184098D01*
X22314970Y-34182523D01*
X22380858Y-34180706D01*
X22431749Y-34178556D01*
X22469847Y-34175985D01*
X22497358Y-34172903D01*
X22516485Y-34169218D01*
X22529432Y-34164843D01*
X22538403Y-34159686D01*
X22544507Y-34154658D01*
X22557644Y-34142563D01*
X22568846Y-34130432D01*
X22578286Y-34116023D01*
X22586140Y-34097097D01*
X22592583Y-34071411D01*
X22597790Y-34036727D01*
X22601935Y-33990801D01*
X22605195Y-33931395D01*
X22607743Y-33856267D01*
X22609754Y-33763176D01*
X22611404Y-33649881D01*
X22612868Y-33514141D01*
X22614320Y-33353717D01*
X22615222Y-33248881D01*
X22616733Y-33076033D01*
X22618119Y-32929167D01*
X22619476Y-32806043D01*
X22620897Y-32704423D01*
X22622478Y-32622066D01*
X22624310Y-32556733D01*
X22626490Y-32506185D01*
X22629111Y-32468182D01*
X22632267Y-32440485D01*
X22636053Y-32420855D01*
X22640562Y-32407052D01*
X22645889Y-32396836D01*
X22651372Y-32388975D01*
X22684982Y-32351311D01*
X22719435Y-32320928D01*
X22725759Y-32316437D01*
X22733074Y-32312434D01*
X22742950Y-32308890D01*
X22756959Y-32305779D01*
X22776673Y-32303070D01*
X22803662Y-32300737D01*
X22839499Y-32298752D01*
X22885755Y-32297086D01*
X22944001Y-32295712D01*
X23015810Y-32294601D01*
X23102752Y-32293726D01*
X23206399Y-32293057D01*
X23328324Y-32292569D01*
X23470096Y-32292231D01*
X23633288Y-32292017D01*
X23819471Y-32291898D01*
X24030218Y-32291846D01*
X24267098Y-32291834D01*
X24350889Y-32291834D01*
X24596698Y-32291839D01*
X24815857Y-32291875D01*
X25009937Y-32291969D01*
X25180509Y-32292148D01*
X25329145Y-32292442D01*
X25457416Y-32292878D01*
X25566894Y-32293485D01*
X25659151Y-32294289D01*
X25735758Y-32295319D01*
X25798287Y-32296604D01*
X25848309Y-32298171D01*
X25887395Y-32300048D01*
X25917118Y-32302264D01*
X25939048Y-32304846D01*
X25954758Y-32307822D01*
X25965818Y-32311221D01*
X25973801Y-32315070D01*
X25980278Y-32319397D01*
X25982343Y-32320928D01*
X26020019Y-32354537D01*
X26050406Y-32388987D01*
X26054922Y-32395374D01*
X26058948Y-32402810D01*
X26062518Y-32412875D01*
X26065663Y-32427150D01*
X26068416Y-32447217D01*
X26070808Y-32474657D01*
X26072871Y-32511050D01*
X26074639Y-32557977D01*
X26076143Y-32617019D01*
X26077414Y-32689757D01*
X26078486Y-32777772D01*
X26079390Y-32882646D01*
X26080159Y-33005958D01*
X26080825Y-33149290D01*
X26081419Y-33314224D01*
X26081974Y-33502338D01*
X26082522Y-33715216D01*
X26083096Y-33954437D01*
X26083209Y-34002535D01*
X26083777Y-34246964D01*
X26084247Y-34464771D01*
X26084594Y-34657558D01*
X26084795Y-34826925D01*
X26084826Y-34974473D01*
X26422342Y-34974473D01*
X26422499Y-34931530D01*
X26422837Y-34723315D01*
X26422855Y-34487775D01*
X26422554Y-34224596D01*
X26422047Y-33978111D01*
X26418167Y-32376500D01*
X26373108Y-32281381D01*
X26306888Y-32172461D01*
X26221682Y-32082767D01*
X26120262Y-32014479D01*
X26005398Y-31969780D01*
X25966141Y-31960794D01*
X25942697Y-31958064D01*
X25901936Y-31955672D01*
X25842877Y-31953612D01*
X25764537Y-31951875D01*
X25665936Y-31950456D01*
X25546093Y-31949347D01*
X25404026Y-31948541D01*
X25238753Y-31948032D01*
X25049294Y-31947811D01*
X24834667Y-31947873D01*
%TD*%
M02*
