%TF.GenerationSoftware,KiCad,Pcbnew,(5.1.9-0-10_14)*%
%TF.CreationDate,2021-01-10T18:13:26+09:00*%
%TF.ProjectId,keyplate,6b657970-6c61-4746-952e-6b696361645f,rev?*%
%TF.SameCoordinates,Original*%
%TF.FileFunction,Profile,NP*%
%FSLAX46Y46*%
G04 Gerber Fmt 4.6, Leading zero omitted, Abs format (unit mm)*
G04 Created by KiCad (PCBNEW (5.1.9-0-10_14)) date 2021-01-10 18:13:26*
%MOMM*%
%LPD*%
G01*
G04 APERTURE LIST*
%TA.AperFunction,Profile*%
%ADD10C,0.200000*%
%TD*%
G04 APERTURE END LIST*
D10*
X317589955Y-12782275D02*
X317589955Y405232D01*
X317183564Y-13188674D02*
X317394255Y-13129818D01*
X317394255Y-13129818D02*
X317540889Y-12975952D01*
X317540889Y-12975952D02*
X317589955Y-12782275D01*
X303996396Y-13188674D02*
X317183564Y-13188674D01*
X303590005Y-12782275D02*
X303648778Y-12992970D01*
X303648778Y-12992970D02*
X303802569Y-13139607D01*
X303802569Y-13139607D02*
X303996396Y-13188674D01*
X303590005Y405232D02*
X303590005Y-12782275D01*
X303996396Y811630D02*
X303785550Y752775D01*
X303785550Y752775D02*
X303639001Y598909D01*
X303639001Y598909D02*
X303590005Y405232D01*
X317183564Y811630D02*
X303996396Y811630D01*
X317589955Y405232D02*
X317531101Y615927D01*
X317531101Y615927D02*
X317377237Y762563D01*
X317377237Y762563D02*
X317183564Y811630D01*
X298540003Y-12782275D02*
X298540003Y405232D01*
X298133611Y-13188674D02*
X298344303Y-13129818D01*
X298344303Y-13129818D02*
X298490937Y-12975952D01*
X298490937Y-12975952D02*
X298540003Y-12782275D01*
X284946443Y-13188674D02*
X298133611Y-13188674D01*
X284540052Y-12782275D02*
X284598825Y-12992970D01*
X284598825Y-12992970D02*
X284752617Y-13139607D01*
X284752617Y-13139607D02*
X284946443Y-13188674D01*
X284540052Y405232D02*
X284540052Y-12782275D01*
X284946443Y811630D02*
X284735598Y752775D01*
X284735598Y752775D02*
X284589048Y598909D01*
X284589048Y598909D02*
X284540052Y405232D01*
X298133611Y811630D02*
X284946443Y811630D01*
X298540003Y405232D02*
X298481149Y615927D01*
X298481149Y615927D02*
X298327285Y762563D01*
X298327285Y762563D02*
X298133611Y811630D01*
X107540597Y-13188674D02*
X107756456Y-13139035D01*
X107756456Y-13139035D02*
X107925693Y-13005879D01*
X107925693Y-13005879D02*
X108024619Y-12812847D01*
X108024619Y-12812847D02*
X108040479Y-12688435D01*
X94540416Y-13188674D02*
X107540597Y-13188674D01*
X94040529Y-12688435D02*
X94090159Y-12904518D01*
X94090159Y-12904518D02*
X94223259Y-13073857D01*
X94223259Y-13073857D02*
X94416143Y-13172813D01*
X94416143Y-13172813D02*
X94540416Y-13188674D01*
X94040529Y311393D02*
X94040529Y-12688435D01*
X94540416Y811630D02*
X94324552Y761991D01*
X94324552Y761991D02*
X94155314Y628837D01*
X94155314Y628837D02*
X94056388Y435804D01*
X94056388Y435804D02*
X94040529Y311393D01*
X107540597Y811630D02*
X94540416Y811630D01*
X108040479Y311393D02*
X107990848Y527476D01*
X107990848Y527476D02*
X107857749Y696814D01*
X107857749Y696814D02*
X107664867Y795769D01*
X107664867Y795769D02*
X107540597Y811630D01*
X108040479Y-12688435D02*
X108040479Y311393D01*
X202790359Y-13188674D02*
X203006221Y-13139035D01*
X203006221Y-13139035D02*
X203175456Y-13005879D01*
X203175456Y-13005879D02*
X203274381Y-12812847D01*
X203274381Y-12812847D02*
X203290241Y-12688435D01*
X189790172Y-13188674D02*
X202790359Y-13188674D01*
X189290290Y-12688435D02*
X189339921Y-12904518D01*
X189339921Y-12904518D02*
X189473022Y-13073857D01*
X189473022Y-13073857D02*
X189665903Y-13172813D01*
X189665903Y-13172813D02*
X189790172Y-13188674D01*
X189290290Y311393D02*
X189290290Y-12688435D01*
X189790172Y811630D02*
X189574314Y761991D01*
X189574314Y761991D02*
X189405077Y628837D01*
X189405077Y628837D02*
X189306149Y435804D01*
X189306149Y435804D02*
X189290290Y311393D01*
X202790359Y811630D02*
X189790172Y811630D01*
X203290241Y311393D02*
X203240611Y527476D01*
X203240611Y527476D02*
X203107513Y696814D01*
X203107513Y696814D02*
X202914630Y795769D01*
X202914630Y795769D02*
X202790359Y811630D01*
X203290241Y-12688435D02*
X203290241Y311393D01*
X240890263Y-13188674D02*
X241106120Y-13139035D01*
X241106120Y-13139035D02*
X241275357Y-13005879D01*
X241275357Y-13005879D02*
X241374285Y-12812847D01*
X241374285Y-12812847D02*
X241390145Y-12688435D01*
X227890077Y-13188674D02*
X240890263Y-13188674D01*
X227390195Y-12688435D02*
X227439826Y-12904518D01*
X227439826Y-12904518D02*
X227572927Y-13073857D01*
X227572927Y-13073857D02*
X227765808Y-13172813D01*
X227765808Y-13172813D02*
X227890077Y-13188674D01*
X227390195Y311393D02*
X227390195Y-12688435D01*
X227890077Y811630D02*
X227674219Y761991D01*
X227674219Y761991D02*
X227504982Y628837D01*
X227504982Y628837D02*
X227406054Y435804D01*
X227406054Y435804D02*
X227390195Y311393D01*
X240890263Y811630D02*
X227890077Y811630D01*
X241390145Y311393D02*
X241340513Y527476D01*
X241340513Y527476D02*
X241207413Y696814D01*
X241207413Y696814D02*
X241014531Y795769D01*
X241014531Y795769D02*
X240890263Y811630D01*
X241390145Y-12688435D02*
X241390145Y311393D01*
X183740406Y-13188674D02*
X183956268Y-13139035D01*
X183956268Y-13139035D02*
X184125504Y-13005879D01*
X184125504Y-13005879D02*
X184224428Y-12812847D01*
X184224428Y-12812847D02*
X184240288Y-12688435D01*
X170740220Y-13188674D02*
X183740406Y-13188674D01*
X170240338Y-12688435D02*
X170289969Y-12904518D01*
X170289969Y-12904518D02*
X170423069Y-13073857D01*
X170423069Y-13073857D02*
X170615951Y-13172813D01*
X170615951Y-13172813D02*
X170740220Y-13188674D01*
X170240338Y311393D02*
X170240338Y-12688435D01*
X170740220Y811630D02*
X170524362Y761991D01*
X170524362Y761991D02*
X170355125Y628837D01*
X170355125Y628837D02*
X170256197Y435804D01*
X170256197Y435804D02*
X170240338Y311393D01*
X183740406Y811630D02*
X170740220Y811630D01*
X184240288Y311393D02*
X184190658Y527476D01*
X184190658Y527476D02*
X184057560Y696814D01*
X184057560Y696814D02*
X183864678Y795769D01*
X183864678Y795769D02*
X183740406Y811630D01*
X184240288Y-12688435D02*
X184240288Y311393D01*
X164690454Y-13188674D02*
X164906316Y-13139035D01*
X164906316Y-13139035D02*
X165075551Y-13005879D01*
X165075551Y-13005879D02*
X165174476Y-12812847D01*
X165174476Y-12812847D02*
X165190336Y-12688435D01*
X151690268Y-13188674D02*
X164690454Y-13188674D01*
X151190386Y-12688435D02*
X151240017Y-12904518D01*
X151240017Y-12904518D02*
X151373117Y-13073857D01*
X151373117Y-13073857D02*
X151565999Y-13172813D01*
X151565999Y-13172813D02*
X151690268Y-13188674D01*
X151190386Y311393D02*
X151190386Y-12688435D01*
X151690268Y811630D02*
X151474410Y761991D01*
X151474410Y761991D02*
X151305173Y628837D01*
X151305173Y628837D02*
X151206245Y435804D01*
X151206245Y435804D02*
X151190386Y311393D01*
X164690454Y811630D02*
X151690268Y811630D01*
X165190336Y311393D02*
X165140706Y527476D01*
X165140706Y527476D02*
X165007608Y696814D01*
X165007608Y696814D02*
X164814725Y795769D01*
X164814725Y795769D02*
X164690454Y811630D01*
X165190336Y-12688435D02*
X165190336Y311393D01*
X259940216Y-13188674D02*
X260156073Y-13139035D01*
X260156073Y-13139035D02*
X260325310Y-13005879D01*
X260325310Y-13005879D02*
X260424238Y-12812847D01*
X260424238Y-12812847D02*
X260440098Y-12688435D01*
X246940030Y-13188674D02*
X259940216Y-13188674D01*
X246440148Y-12688435D02*
X246489779Y-12904518D01*
X246489779Y-12904518D02*
X246622879Y-13073857D01*
X246622879Y-13073857D02*
X246815761Y-13172813D01*
X246815761Y-13172813D02*
X246940030Y-13188674D01*
X246440148Y311393D02*
X246440148Y-12688435D01*
X246940030Y811630D02*
X246724172Y761991D01*
X246724172Y761991D02*
X246554935Y628837D01*
X246554935Y628837D02*
X246456007Y435804D01*
X246456007Y435804D02*
X246440148Y311393D01*
X259940216Y811630D02*
X246940030Y811630D01*
X260440098Y311393D02*
X260390466Y527476D01*
X260390466Y527476D02*
X260257365Y696814D01*
X260257365Y696814D02*
X260064484Y795769D01*
X260064484Y795769D02*
X259940216Y811630D01*
X260440098Y-12688435D02*
X260440098Y311393D01*
X88490644Y-13188674D02*
X88706503Y-13139035D01*
X88706503Y-13139035D02*
X88875740Y-13005879D01*
X88875740Y-13005879D02*
X88974666Y-12812847D01*
X88974666Y-12812847D02*
X88990526Y-12688435D01*
X75490464Y-13188674D02*
X88490644Y-13188674D01*
X74990576Y-12688435D02*
X75040206Y-12904518D01*
X75040206Y-12904518D02*
X75173306Y-13073857D01*
X75173306Y-13073857D02*
X75366191Y-13172813D01*
X75366191Y-13172813D02*
X75490464Y-13188674D01*
X74990576Y311393D02*
X74990576Y-12688435D01*
X75490464Y811630D02*
X75274600Y761991D01*
X75274600Y761991D02*
X75105362Y628837D01*
X75105362Y628837D02*
X75006435Y435804D01*
X75006435Y435804D02*
X74990576Y311393D01*
X88490644Y811630D02*
X75490464Y811630D01*
X88990526Y311393D02*
X88940895Y527476D01*
X88940895Y527476D02*
X88807796Y696814D01*
X88807796Y696814D02*
X88614914Y795769D01*
X88614914Y795769D02*
X88490644Y811630D01*
X88990526Y-12688435D02*
X88990526Y311393D01*
X221840311Y-13188674D02*
X222056168Y-13139035D01*
X222056168Y-13139035D02*
X222225405Y-13005879D01*
X222225405Y-13005879D02*
X222324333Y-12812847D01*
X222324333Y-12812847D02*
X222340193Y-12688435D01*
X208840125Y-13188674D02*
X221840311Y-13188674D01*
X208340243Y-12688435D02*
X208389874Y-12904518D01*
X208389874Y-12904518D02*
X208522974Y-13073857D01*
X208522974Y-13073857D02*
X208715856Y-13172813D01*
X208715856Y-13172813D02*
X208840125Y-13188674D01*
X208340243Y311393D02*
X208340243Y-12688435D01*
X208840125Y811630D02*
X208624267Y761991D01*
X208624267Y761991D02*
X208455030Y628837D01*
X208455030Y628837D02*
X208356102Y435804D01*
X208356102Y435804D02*
X208340243Y311393D01*
X221840311Y811630D02*
X208840125Y811630D01*
X222340193Y311393D02*
X222290561Y527476D01*
X222290561Y527476D02*
X222157461Y696814D01*
X222157461Y696814D02*
X221964579Y795769D01*
X221964579Y795769D02*
X221840311Y811630D01*
X222340193Y-12688435D02*
X222340193Y311393D01*
X55940624Y-12688435D02*
X55990254Y-12904518D01*
X55990254Y-12904518D02*
X56123354Y-13073857D01*
X56123354Y-13073857D02*
X56316237Y-13172813D01*
X56316237Y-13172813D02*
X56440509Y-13188674D01*
X55940624Y311393D02*
X55940624Y-12688435D01*
X56440509Y811630D02*
X56224647Y761991D01*
X56224647Y761991D02*
X56055410Y628837D01*
X56055410Y628837D02*
X55956483Y435804D01*
X55956483Y435804D02*
X55940624Y311393D01*
X69440689Y811630D02*
X56440509Y811630D01*
X69940574Y311393D02*
X69890943Y527476D01*
X69890943Y527476D02*
X69757843Y696814D01*
X69757843Y696814D02*
X69564960Y795769D01*
X69564960Y795769D02*
X69440689Y811630D01*
X69940574Y-12688435D02*
X69940574Y311393D01*
X69440689Y-13188674D02*
X69656550Y-13139035D01*
X69656550Y-13139035D02*
X69825787Y-13005879D01*
X69825787Y-13005879D02*
X69924714Y-12812847D01*
X69924714Y-12812847D02*
X69940574Y-12688435D01*
X56440509Y-13188674D02*
X69440689Y-13188674D01*
X126590549Y-13188674D02*
X126806411Y-13139035D01*
X126806411Y-13139035D02*
X126975647Y-13005879D01*
X126975647Y-13005879D02*
X127074571Y-12812847D01*
X127074571Y-12812847D02*
X127090431Y-12688435D01*
X113590368Y-13188674D02*
X126590549Y-13188674D01*
X113090481Y-12688435D02*
X113140111Y-12904518D01*
X113140111Y-12904518D02*
X113273211Y-13073857D01*
X113273211Y-13073857D02*
X113466095Y-13172813D01*
X113466095Y-13172813D02*
X113590368Y-13188674D01*
X113090481Y311393D02*
X113090481Y-12688435D01*
X113590368Y811630D02*
X113374504Y761991D01*
X113374504Y761991D02*
X113205267Y628837D01*
X113205267Y628837D02*
X113106340Y435804D01*
X113106340Y435804D02*
X113090481Y311393D01*
X126590549Y811630D02*
X113590368Y811630D01*
X127090431Y311393D02*
X127040801Y527476D01*
X127040801Y527476D02*
X126907703Y696814D01*
X126907703Y696814D02*
X126714821Y795769D01*
X126714821Y795769D02*
X126590549Y811630D01*
X127090431Y-12688435D02*
X127090431Y311393D01*
X50390738Y-13188674D02*
X50606599Y-13139035D01*
X50606599Y-13139035D02*
X50775836Y-13005879D01*
X50775836Y-13005879D02*
X50874763Y-12812847D01*
X50874763Y-12812847D02*
X50890623Y-12688435D01*
X37390556Y-13188674D02*
X50390738Y-13188674D01*
X36890671Y-12688435D02*
X36940301Y-12904518D01*
X36940301Y-12904518D02*
X37073401Y-13073857D01*
X37073401Y-13073857D02*
X37266284Y-13172813D01*
X37266284Y-13172813D02*
X37390556Y-13188674D01*
X36890671Y311393D02*
X36890671Y-12688435D01*
X37390556Y811630D02*
X37174694Y761991D01*
X37174694Y761991D02*
X37005457Y628837D01*
X37005457Y628837D02*
X36906530Y435804D01*
X36906530Y435804D02*
X36890671Y311393D01*
X50390738Y811630D02*
X37390556Y811630D01*
X50890623Y311393D02*
X50840992Y527476D01*
X50840992Y527476D02*
X50707892Y696814D01*
X50707892Y696814D02*
X50515009Y795769D01*
X50515009Y795769D02*
X50390738Y811630D01*
X50890623Y-12688435D02*
X50890623Y311393D01*
X145640501Y-13188674D02*
X145856363Y-13139035D01*
X145856363Y-13139035D02*
X146025599Y-13005879D01*
X146025599Y-13005879D02*
X146124524Y-12812847D01*
X146124524Y-12812847D02*
X146140384Y-12688435D01*
X132640315Y-13188674D02*
X145640501Y-13188674D01*
X132140433Y-12688435D02*
X132190064Y-12904518D01*
X132190064Y-12904518D02*
X132323165Y-13073857D01*
X132323165Y-13073857D02*
X132516046Y-13172813D01*
X132516046Y-13172813D02*
X132640315Y-13188674D01*
X132140433Y311393D02*
X132140433Y-12688435D01*
X132640315Y811630D02*
X132424457Y761991D01*
X132424457Y761991D02*
X132255220Y628837D01*
X132255220Y628837D02*
X132156292Y435804D01*
X132156292Y435804D02*
X132140433Y311393D01*
X145640501Y811630D02*
X132640315Y811630D01*
X146140384Y311393D02*
X146090754Y527476D01*
X146090754Y527476D02*
X145957656Y696814D01*
X145957656Y696814D02*
X145764773Y795769D01*
X145764773Y795769D02*
X145640501Y811630D01*
X146140384Y-12688435D02*
X146140384Y311393D01*
X278990168Y-13188674D02*
X279206025Y-13139035D01*
X279206025Y-13139035D02*
X279375262Y-13005879D01*
X279375262Y-13005879D02*
X279474190Y-12812847D01*
X279474190Y-12812847D02*
X279490050Y-12688435D01*
X265989982Y-13188674D02*
X278990168Y-13188674D01*
X265490100Y-12688435D02*
X265539731Y-12904518D01*
X265539731Y-12904518D02*
X265672831Y-13073857D01*
X265672831Y-13073857D02*
X265865713Y-13172813D01*
X265865713Y-13172813D02*
X265989982Y-13188674D01*
X265490100Y311393D02*
X265490100Y-12688435D01*
X265989982Y811630D02*
X265774124Y761991D01*
X265774124Y761991D02*
X265604887Y628837D01*
X265604887Y628837D02*
X265505959Y435804D01*
X265505959Y435804D02*
X265490100Y311393D01*
X278990168Y811630D02*
X265989982Y811630D01*
X279490050Y311393D02*
X279440418Y527476D01*
X279440418Y527476D02*
X279307318Y696814D01*
X279307318Y696814D02*
X279114436Y795769D01*
X279114436Y795769D02*
X278990168Y811630D01*
X279490050Y-12688435D02*
X279490050Y311393D01*
X62331176Y-24894163D02*
X62318773Y-24648968D01*
X62318773Y-24648968D02*
X62282371Y-24410814D01*
X62282371Y-24410814D02*
X62223183Y-24180912D01*
X62223183Y-24180912D02*
X62142418Y-23960473D01*
X62142418Y-23960473D02*
X62041289Y-23750708D01*
X62041289Y-23750708D02*
X61921007Y-23552828D01*
X61921007Y-23552828D02*
X61782783Y-23368046D01*
X61782783Y-23368046D02*
X61627828Y-23197572D01*
X61627828Y-23197572D02*
X61457353Y-23042616D01*
X61457353Y-23042616D02*
X61272571Y-22904392D01*
X61272571Y-22904392D02*
X61074691Y-22784110D01*
X61074691Y-22784110D02*
X60864926Y-22682981D01*
X60864926Y-22682981D02*
X60644487Y-22602216D01*
X60644487Y-22602216D02*
X60414585Y-22543028D01*
X60414585Y-22543028D02*
X60176431Y-22506626D01*
X60176431Y-22506626D02*
X59931237Y-22494224D01*
X59931237Y-27294457D02*
X60176431Y-27282053D01*
X60176431Y-27282053D02*
X60414585Y-27245651D01*
X60414585Y-27245651D02*
X60644487Y-27186461D01*
X60644487Y-27186461D02*
X60864926Y-27105694D01*
X60864926Y-27105694D02*
X61074691Y-27004559D01*
X61074691Y-27004559D02*
X61272571Y-26884269D01*
X61272571Y-26884269D02*
X61457353Y-26746034D01*
X61457353Y-26746034D02*
X61627828Y-26591064D01*
X61627828Y-26591064D02*
X61782783Y-26420571D01*
X61782783Y-26420571D02*
X61921007Y-26235765D01*
X61921007Y-26235765D02*
X62041289Y-26037857D01*
X62041289Y-26037857D02*
X62142418Y-25828057D01*
X62142418Y-25828057D02*
X62223183Y-25607578D01*
X62223183Y-25607578D02*
X62282371Y-25377628D01*
X62282371Y-25377628D02*
X62318773Y-25139419D01*
X62318773Y-25139419D02*
X62331176Y-24894163D01*
X57530943Y-24894163D02*
X57543346Y-25139419D01*
X57543346Y-25139419D02*
X57579748Y-25377628D01*
X57579748Y-25377628D02*
X57638938Y-25607578D01*
X57638938Y-25607578D02*
X57719705Y-25828057D01*
X57719705Y-25828057D02*
X57820840Y-26037857D01*
X57820840Y-26037857D02*
X57941130Y-26235765D01*
X57941130Y-26235765D02*
X58079365Y-26420571D01*
X58079365Y-26420571D02*
X58234335Y-26591064D01*
X58234335Y-26591064D02*
X58404828Y-26746034D01*
X58404828Y-26746034D02*
X58589634Y-26884269D01*
X58589634Y-26884269D02*
X58787542Y-27004559D01*
X58787542Y-27004559D02*
X58997342Y-27105694D01*
X58997342Y-27105694D02*
X59217821Y-27186461D01*
X59217821Y-27186461D02*
X59447771Y-27245651D01*
X59447771Y-27245651D02*
X59685980Y-27282053D01*
X59685980Y-27282053D02*
X59931237Y-27294457D01*
X59931237Y-22494224D02*
X59685980Y-22506626D01*
X59685980Y-22506626D02*
X59447771Y-22543028D01*
X59447771Y-22543028D02*
X59217821Y-22602216D01*
X59217821Y-22602216D02*
X58997342Y-22682981D01*
X58997342Y-22682981D02*
X58787542Y-22784110D01*
X58787542Y-22784110D02*
X58589634Y-22904392D01*
X58589634Y-22904392D02*
X58404828Y-23042616D01*
X58404828Y-23042616D02*
X58234335Y-23197572D01*
X58234335Y-23197572D02*
X58079365Y-23368046D01*
X58079365Y-23368046D02*
X57941130Y-23552828D01*
X57941130Y-23552828D02*
X57820840Y-23750708D01*
X57820840Y-23750708D02*
X57719705Y-23960473D01*
X57719705Y-23960473D02*
X57638938Y-24180912D01*
X57638938Y-24180912D02*
X57579748Y-24410814D01*
X57579748Y-24410814D02*
X57543346Y-24648968D01*
X57543346Y-24648968D02*
X57530943Y-24894163D01*
X250415239Y-32238625D02*
X250631096Y-32188986D01*
X250631096Y-32188986D02*
X250800334Y-32055831D01*
X250800334Y-32055831D02*
X250899262Y-31862799D01*
X250899262Y-31862799D02*
X250915122Y-31738387D01*
X237415053Y-32238625D02*
X250415239Y-32238625D01*
X236915171Y-31738387D02*
X236964802Y-31954470D01*
X236964802Y-31954470D02*
X237097903Y-32123809D01*
X237097903Y-32123809D02*
X237290784Y-32222764D01*
X237290784Y-32222764D02*
X237415053Y-32238625D01*
X236915171Y-18738559D02*
X236915171Y-31738387D01*
X237415053Y-18238322D02*
X237199195Y-18287960D01*
X237199195Y-18287960D02*
X237029958Y-18421114D01*
X237029958Y-18421114D02*
X236931030Y-18614147D01*
X236931030Y-18614147D02*
X236915171Y-18738559D01*
X250415239Y-18238322D02*
X237415053Y-18238322D01*
X250915122Y-18738559D02*
X250865490Y-18522475D01*
X250865490Y-18522475D02*
X250732389Y-18353137D01*
X250732389Y-18353137D02*
X250539507Y-18254182D01*
X250539507Y-18254182D02*
X250415239Y-18238322D01*
X250915122Y-31738387D02*
X250915122Y-18738559D01*
X136115525Y-32238625D02*
X136331387Y-32188986D01*
X136331387Y-32188986D02*
X136500623Y-32055831D01*
X136500623Y-32055831D02*
X136599547Y-31862799D01*
X136599547Y-31862799D02*
X136615407Y-31738387D01*
X123115339Y-32238625D02*
X136115525Y-32238625D01*
X122615457Y-31738387D02*
X122665088Y-31954470D01*
X122665088Y-31954470D02*
X122798188Y-32123809D01*
X122798188Y-32123809D02*
X122991070Y-32222764D01*
X122991070Y-32222764D02*
X123115339Y-32238625D01*
X122615457Y-18738559D02*
X122615457Y-31738387D01*
X123115339Y-18238322D02*
X122899481Y-18287960D01*
X122899481Y-18287960D02*
X122730244Y-18421114D01*
X122730244Y-18421114D02*
X122631316Y-18614147D01*
X122631316Y-18614147D02*
X122615457Y-18738559D01*
X136115525Y-18238322D02*
X123115339Y-18238322D01*
X136615407Y-18738559D02*
X136565777Y-18522475D01*
X136565777Y-18522475D02*
X136432679Y-18353137D01*
X136432679Y-18353137D02*
X136239797Y-18254182D01*
X136239797Y-18254182D02*
X136115525Y-18238322D01*
X136615407Y-31738387D02*
X136615407Y-18738559D01*
X280277446Y-32238625D02*
X317090073Y-32238625D01*
X279777564Y-31738387D02*
X279827195Y-31954470D01*
X279827195Y-31954470D02*
X279960296Y-32123809D01*
X279960296Y-32123809D02*
X280153177Y-32222764D01*
X280153177Y-32222764D02*
X280277446Y-32238625D01*
X279777564Y-18738559D02*
X279777564Y-31738387D01*
X280277446Y-18238322D02*
X280061588Y-18287960D01*
X280061588Y-18287960D02*
X279892351Y-18421114D01*
X279892351Y-18421114D02*
X279793423Y-18614147D01*
X279793423Y-18614147D02*
X279777564Y-18738559D01*
X315208711Y-18238322D02*
X280277446Y-18238322D01*
X315208711Y-16489607D02*
X315208711Y-16754961D01*
X315208711Y-16754961D02*
X315208711Y-16969399D01*
X315208711Y-16969399D02*
X315208711Y-17188762D01*
X315208711Y-17188762D02*
X315208711Y-17405587D01*
X315208711Y-17405587D02*
X315208711Y-17612407D01*
X315208711Y-17612407D02*
X315208711Y-17859703D01*
X315208711Y-17859703D02*
X315208711Y-18098197D01*
X315208711Y-18098197D02*
X315208711Y-18238322D01*
X315708593Y-15989369D02*
X315491815Y-16038706D01*
X315491815Y-16038706D02*
X315322816Y-16171429D01*
X315322816Y-16171429D02*
X315224440Y-16364606D01*
X315224440Y-16364606D02*
X315208711Y-16489607D01*
X317471078Y-15989369D02*
X315708593Y-15989369D01*
X317824544Y-16135772D02*
X317651172Y-16022979D01*
X317651172Y-16022979D02*
X317471078Y-15989369D01*
X317971304Y-16489607D02*
X317928303Y-16286917D01*
X317928303Y-16286917D02*
X317824544Y-16135772D01*
X317971304Y-26607601D02*
X317971304Y-26241320D01*
X317971304Y-26241320D02*
X317971304Y-26019281D01*
X317971304Y-26019281D02*
X317971304Y-25773662D01*
X317971304Y-25773662D02*
X317971304Y-25506229D01*
X317971304Y-25506229D02*
X317971304Y-25218748D01*
X317971304Y-25218748D02*
X317971304Y-24912982D01*
X317971304Y-24912982D02*
X317971304Y-24590698D01*
X317971304Y-24590698D02*
X317971304Y-24253660D01*
X317971304Y-24253660D02*
X317971304Y-23903633D01*
X317971304Y-23903633D02*
X317971304Y-23542384D01*
X317971304Y-23542384D02*
X317971304Y-23171676D01*
X317971304Y-23171676D02*
X317971304Y-22793275D01*
X317971304Y-22793275D02*
X317971304Y-22408946D01*
X317971304Y-22408946D02*
X317971304Y-22020455D01*
X317971304Y-22020455D02*
X317971304Y-21629565D01*
X317971304Y-21629565D02*
X317971304Y-21238043D01*
X317971304Y-21238043D02*
X317971304Y-20847654D01*
X317971304Y-20847654D02*
X317971304Y-20460163D01*
X317971304Y-20460163D02*
X317971304Y-20077334D01*
X317971304Y-20077334D02*
X317971304Y-19700934D01*
X317971304Y-19700934D02*
X317971304Y-19332727D01*
X317971304Y-19332727D02*
X317971304Y-18974477D01*
X317971304Y-18974477D02*
X317971304Y-18627952D01*
X317971304Y-18627952D02*
X317971304Y-18294915D01*
X317971304Y-18294915D02*
X317971304Y-17977131D01*
X317971304Y-17977131D02*
X317971304Y-17676367D01*
X317971304Y-17676367D02*
X317971304Y-17394386D01*
X317971304Y-17394386D02*
X317971304Y-17132955D01*
X317971304Y-17132955D02*
X317971304Y-16893838D01*
X317971304Y-16893838D02*
X317971304Y-16678800D01*
X317971304Y-16678800D02*
X317971304Y-16489607D01*
X317590299Y-26988600D02*
X317787790Y-26933403D01*
X317787790Y-26933403D02*
X317933704Y-26772707D01*
X317933704Y-26772707D02*
X317971304Y-26607601D01*
X317589955Y-26988600D02*
X317590299Y-26988600D01*
X317589955Y-31738387D02*
X317589955Y-26988600D01*
X317090073Y-32238625D02*
X317305930Y-32188986D01*
X317305930Y-32188986D02*
X317475167Y-32055831D01*
X317475167Y-32055831D02*
X317574095Y-31862799D01*
X317574095Y-31862799D02*
X317589955Y-31738387D01*
X117065573Y-32238625D02*
X117281432Y-32188986D01*
X117281432Y-32188986D02*
X117450669Y-32055831D01*
X117450669Y-32055831D02*
X117549595Y-31862799D01*
X117549595Y-31862799D02*
X117565455Y-31738387D01*
X104065392Y-32238625D02*
X117065573Y-32238625D01*
X103565505Y-31738387D02*
X103615135Y-31954470D01*
X103615135Y-31954470D02*
X103748235Y-32123809D01*
X103748235Y-32123809D02*
X103941119Y-32222764D01*
X103941119Y-32222764D02*
X104065392Y-32238625D01*
X103565505Y-18738559D02*
X103565505Y-31738387D01*
X104065392Y-18238322D02*
X103849528Y-18287960D01*
X103849528Y-18287960D02*
X103680291Y-18421114D01*
X103680291Y-18421114D02*
X103581364Y-18614147D01*
X103581364Y-18614147D02*
X103565505Y-18738559D01*
X117065573Y-18238322D02*
X104065392Y-18238322D01*
X117565455Y-18738559D02*
X117515824Y-18522475D01*
X117515824Y-18522475D02*
X117382725Y-18353137D01*
X117382725Y-18353137D02*
X117189843Y-18254182D01*
X117189843Y-18254182D02*
X117065573Y-18238322D01*
X117565455Y-31738387D02*
X117565455Y-18738559D01*
X193265382Y-32238625D02*
X193481244Y-32188986D01*
X193481244Y-32188986D02*
X193650480Y-32055831D01*
X193650480Y-32055831D02*
X193749404Y-31862799D01*
X193749404Y-31862799D02*
X193765264Y-31738387D01*
X180265196Y-32238625D02*
X193265382Y-32238625D01*
X179765314Y-31738387D02*
X179814945Y-31954470D01*
X179814945Y-31954470D02*
X179948046Y-32123809D01*
X179948046Y-32123809D02*
X180140927Y-32222764D01*
X180140927Y-32222764D02*
X180265196Y-32238625D01*
X179765314Y-18738559D02*
X179765314Y-31738387D01*
X180265196Y-18238322D02*
X180049338Y-18287960D01*
X180049338Y-18287960D02*
X179880101Y-18421114D01*
X179880101Y-18421114D02*
X179781173Y-18614147D01*
X179781173Y-18614147D02*
X179765314Y-18738559D01*
X193265382Y-18238322D02*
X180265196Y-18238322D01*
X193765264Y-18738559D02*
X193715634Y-18522475D01*
X193715634Y-18522475D02*
X193582536Y-18353137D01*
X193582536Y-18353137D02*
X193389654Y-18254182D01*
X193389654Y-18254182D02*
X193265382Y-18238322D01*
X193765264Y-31738387D02*
X193765264Y-18738559D01*
X155165478Y-32238625D02*
X155381340Y-32188986D01*
X155381340Y-32188986D02*
X155550575Y-32055831D01*
X155550575Y-32055831D02*
X155649500Y-31862799D01*
X155649500Y-31862799D02*
X155665360Y-31738387D01*
X142165292Y-32238625D02*
X155165478Y-32238625D01*
X141665409Y-31738387D02*
X141715040Y-31954470D01*
X141715040Y-31954470D02*
X141848141Y-32123809D01*
X141848141Y-32123809D02*
X142041023Y-32222764D01*
X142041023Y-32222764D02*
X142165292Y-32238625D01*
X141665409Y-18738559D02*
X141665409Y-31738387D01*
X142165292Y-18238322D02*
X141949434Y-18287960D01*
X141949434Y-18287960D02*
X141780196Y-18421114D01*
X141780196Y-18421114D02*
X141681268Y-18614147D01*
X141681268Y-18614147D02*
X141665409Y-18738559D01*
X155165478Y-18238322D02*
X142165292Y-18238322D01*
X155665360Y-18738559D02*
X155615730Y-18522475D01*
X155615730Y-18522475D02*
X155482632Y-18353137D01*
X155482632Y-18353137D02*
X155289749Y-18254182D01*
X155289749Y-18254182D02*
X155165478Y-18238322D01*
X155665360Y-31738387D02*
X155665360Y-18738559D01*
X174215430Y-32238625D02*
X174431292Y-32188986D01*
X174431292Y-32188986D02*
X174600527Y-32055831D01*
X174600527Y-32055831D02*
X174699452Y-31862799D01*
X174699452Y-31862799D02*
X174715312Y-31738387D01*
X161215244Y-32238625D02*
X174215430Y-32238625D01*
X160715362Y-31738387D02*
X160764993Y-31954470D01*
X160764993Y-31954470D02*
X160898093Y-32123809D01*
X160898093Y-32123809D02*
X161090975Y-32222764D01*
X161090975Y-32222764D02*
X161215244Y-32238625D01*
X160715362Y-18738559D02*
X160715362Y-31738387D01*
X161215244Y-18238322D02*
X160999386Y-18287960D01*
X160999386Y-18287960D02*
X160830149Y-18421114D01*
X160830149Y-18421114D02*
X160731221Y-18614147D01*
X160731221Y-18614147D02*
X160715362Y-18738559D01*
X174215430Y-18238322D02*
X161215244Y-18238322D01*
X174715312Y-18738559D02*
X174665682Y-18522475D01*
X174665682Y-18522475D02*
X174532584Y-18353137D01*
X174532584Y-18353137D02*
X174339701Y-18254182D01*
X174339701Y-18254182D02*
X174215430Y-18238322D01*
X174715312Y-31738387D02*
X174715312Y-18738559D01*
X55653110Y-18738559D02*
X55603479Y-18522475D01*
X55603479Y-18522475D02*
X55470379Y-18353137D01*
X55470379Y-18353137D02*
X55277496Y-18254182D01*
X55277496Y-18254182D02*
X55153225Y-18238322D01*
X55653110Y-31738387D02*
X55653110Y-18738559D01*
X55153225Y-32238625D02*
X55369086Y-32188986D01*
X55369086Y-32188986D02*
X55538323Y-32055831D01*
X55538323Y-32055831D02*
X55637250Y-31862799D01*
X55637250Y-31862799D02*
X55653110Y-31738387D01*
X42153044Y-32238625D02*
X55153225Y-32238625D01*
X41653159Y-31738387D02*
X41702789Y-31954470D01*
X41702789Y-31954470D02*
X41835889Y-32123809D01*
X41835889Y-32123809D02*
X42028772Y-32222764D01*
X42028772Y-32222764D02*
X42153044Y-32238625D01*
X41653159Y-18738559D02*
X41653159Y-31738387D01*
X42153044Y-18238322D02*
X41937182Y-18287960D01*
X41937182Y-18287960D02*
X41767945Y-18421114D01*
X41767945Y-18421114D02*
X41669018Y-18614147D01*
X41669018Y-18614147D02*
X41653159Y-18738559D01*
X55153225Y-18238322D02*
X42153044Y-18238322D01*
X212315335Y-32238625D02*
X212531192Y-32188986D01*
X212531192Y-32188986D02*
X212700429Y-32055831D01*
X212700429Y-32055831D02*
X212799357Y-31862799D01*
X212799357Y-31862799D02*
X212815217Y-31738387D01*
X199315149Y-32238625D02*
X212315335Y-32238625D01*
X198815267Y-31738387D02*
X198864898Y-31954470D01*
X198864898Y-31954470D02*
X198997998Y-32123809D01*
X198997998Y-32123809D02*
X199190880Y-32222764D01*
X199190880Y-32222764D02*
X199315149Y-32238625D01*
X198815267Y-18738559D02*
X198815267Y-31738387D01*
X199315149Y-18238322D02*
X199099291Y-18287960D01*
X199099291Y-18287960D02*
X198930054Y-18421114D01*
X198930054Y-18421114D02*
X198831126Y-18614147D01*
X198831126Y-18614147D02*
X198815267Y-18738559D01*
X212315335Y-18238322D02*
X199315149Y-18238322D01*
X212815217Y-18738559D02*
X212765585Y-18522475D01*
X212765585Y-18522475D02*
X212632484Y-18353137D01*
X212632484Y-18353137D02*
X212439603Y-18254182D01*
X212439603Y-18254182D02*
X212315335Y-18238322D01*
X212815217Y-31738387D02*
X212815217Y-18738559D01*
X98015620Y-32238625D02*
X98231480Y-32188986D01*
X98231480Y-32188986D02*
X98400717Y-32055831D01*
X98400717Y-32055831D02*
X98499643Y-31862799D01*
X98499643Y-31862799D02*
X98515503Y-31738387D01*
X85015440Y-32238625D02*
X98015620Y-32238625D01*
X84515552Y-31738387D02*
X84565182Y-31954470D01*
X84565182Y-31954470D02*
X84698282Y-32123809D01*
X84698282Y-32123809D02*
X84891167Y-32222764D01*
X84891167Y-32222764D02*
X85015440Y-32238625D01*
X84515552Y-18738559D02*
X84515552Y-31738387D01*
X85015440Y-18238322D02*
X84799576Y-18287960D01*
X84799576Y-18287960D02*
X84630338Y-18421114D01*
X84630338Y-18421114D02*
X84531411Y-18614147D01*
X84531411Y-18614147D02*
X84515552Y-18738559D01*
X98015620Y-18238322D02*
X85015440Y-18238322D01*
X98515503Y-18738559D02*
X98465872Y-18522475D01*
X98465872Y-18522475D02*
X98332773Y-18353137D01*
X98332773Y-18353137D02*
X98139890Y-18254182D01*
X98139890Y-18254182D02*
X98015620Y-18238322D01*
X98515503Y-31738387D02*
X98515503Y-18738559D01*
X231365287Y-32238625D02*
X231581144Y-32188986D01*
X231581144Y-32188986D02*
X231750381Y-32055831D01*
X231750381Y-32055831D02*
X231849309Y-31862799D01*
X231849309Y-31862799D02*
X231865169Y-31738387D01*
X218365101Y-32238625D02*
X231365287Y-32238625D01*
X217865219Y-31738387D02*
X217914850Y-31954470D01*
X217914850Y-31954470D02*
X218047950Y-32123809D01*
X218047950Y-32123809D02*
X218240832Y-32222764D01*
X218240832Y-32222764D02*
X218365101Y-32238625D01*
X217865219Y-18738559D02*
X217865219Y-31738387D01*
X218365101Y-18238322D02*
X218149243Y-18287960D01*
X218149243Y-18287960D02*
X217980006Y-18421114D01*
X217980006Y-18421114D02*
X217881078Y-18614147D01*
X217881078Y-18614147D02*
X217865219Y-18738559D01*
X231365287Y-18238322D02*
X218365101Y-18238322D01*
X231865169Y-18738559D02*
X231815537Y-18522475D01*
X231815537Y-18522475D02*
X231682437Y-18353137D01*
X231682437Y-18353137D02*
X231489555Y-18254182D01*
X231489555Y-18254182D02*
X231365287Y-18238322D01*
X231865169Y-31738387D02*
X231865169Y-18738559D01*
X65465600Y-31738387D02*
X65515230Y-31954470D01*
X65515230Y-31954470D02*
X65648330Y-32123809D01*
X65648330Y-32123809D02*
X65841213Y-32222764D01*
X65841213Y-32222764D02*
X65965485Y-32238625D01*
X65465600Y-18738559D02*
X65465600Y-31738387D01*
X65965485Y-18238322D02*
X65749623Y-18287960D01*
X65749623Y-18287960D02*
X65580386Y-18421114D01*
X65580386Y-18421114D02*
X65481459Y-18614147D01*
X65481459Y-18614147D02*
X65465600Y-18738559D01*
X78965668Y-18238322D02*
X65965485Y-18238322D01*
X79465550Y-18738559D02*
X79415919Y-18522475D01*
X79415919Y-18522475D02*
X79282820Y-18353137D01*
X79282820Y-18353137D02*
X79089938Y-18254182D01*
X79089938Y-18254182D02*
X78965668Y-18238322D01*
X79465550Y-31738387D02*
X79465550Y-18738559D01*
X78965668Y-32238625D02*
X79181527Y-32188986D01*
X79181527Y-32188986D02*
X79350764Y-32055831D01*
X79350764Y-32055831D02*
X79449690Y-31862799D01*
X79449690Y-31862799D02*
X79465550Y-31738387D01*
X65965485Y-32238625D02*
X78965668Y-32238625D01*
X39115636Y-44268669D02*
X39115636Y-43887308D01*
X39115636Y-43887308D02*
X39115636Y-43663264D01*
X39115636Y-43663264D02*
X39115636Y-43419045D01*
X39115636Y-43419045D02*
X39115636Y-43156204D01*
X39115636Y-43156204D02*
X39115636Y-42876293D01*
X39115636Y-42876293D02*
X39115636Y-42580864D01*
X39115636Y-42580864D02*
X39115636Y-42271468D01*
X39115636Y-42271468D02*
X39115636Y-41949657D01*
X39115636Y-41949657D02*
X39115636Y-41616983D01*
X39115636Y-41616983D02*
X39115636Y-41274999D01*
X39115636Y-41274999D02*
X39115636Y-40925255D01*
X39115636Y-40925255D02*
X39115636Y-40569304D01*
X39115636Y-40569304D02*
X39115636Y-40208697D01*
X39115636Y-40208697D02*
X39115636Y-39844986D01*
X39115636Y-39844986D02*
X39115636Y-39479724D01*
X39115636Y-39479724D02*
X39115636Y-39114462D01*
X39115636Y-39114462D02*
X39115636Y-38750751D01*
X39115636Y-38750751D02*
X39115636Y-38390144D01*
X39115636Y-38390144D02*
X39115636Y-38034193D01*
X39115636Y-38034193D02*
X39115636Y-37684449D01*
X39115636Y-37684449D02*
X39115636Y-37342464D01*
X39115636Y-37342464D02*
X39115636Y-37009791D01*
X39115636Y-37009791D02*
X39115636Y-36687980D01*
X39115636Y-36687980D02*
X39115636Y-36378584D01*
X39115636Y-36378584D02*
X39115636Y-36083154D01*
X39115636Y-36083154D02*
X39115636Y-35803243D01*
X39115636Y-35803243D02*
X39115636Y-35540402D01*
X39115636Y-35540402D02*
X39115636Y-35296183D01*
X39115636Y-35296183D02*
X39115636Y-35072138D01*
X39115636Y-35072138D02*
X39115636Y-34869819D01*
X39115636Y-34869819D02*
X39115636Y-34690778D01*
X38615751Y-44768557D02*
X38832535Y-44719226D01*
X38832535Y-44719226D02*
X39001533Y-44586557D01*
X39001533Y-44586557D02*
X39099907Y-44393528D01*
X39099907Y-44393528D02*
X39115636Y-44268669D01*
X36853277Y-44768557D02*
X37104746Y-44768557D01*
X37104746Y-44768557D02*
X37325635Y-44768557D01*
X37325635Y-44768557D02*
X37557348Y-44768557D01*
X37557348Y-44768557D02*
X37793698Y-44768557D01*
X37793698Y-44768557D02*
X38028503Y-44768557D01*
X38028503Y-44768557D02*
X38255576Y-44768557D01*
X38255576Y-44768557D02*
X38468734Y-44768557D01*
X38468734Y-44768557D02*
X38615751Y-44768557D01*
X36353393Y-44268669D02*
X36402662Y-44485299D01*
X36402662Y-44485299D02*
X36535243Y-44654339D01*
X36535243Y-44654339D02*
X36728299Y-44752806D01*
X36728299Y-44752806D02*
X36853277Y-44768557D01*
X36353393Y-34690778D02*
X36353393Y-35072138D01*
X36353393Y-35072138D02*
X36353393Y-35296183D01*
X36353393Y-35296183D02*
X36353393Y-35540402D01*
X36353393Y-35540402D02*
X36353393Y-35803243D01*
X36353393Y-35803243D02*
X36353393Y-36083154D01*
X36353393Y-36083154D02*
X36353393Y-36378584D01*
X36353393Y-36378584D02*
X36353393Y-36687980D01*
X36353393Y-36687980D02*
X36353393Y-37009791D01*
X36353393Y-37009791D02*
X36353393Y-37342464D01*
X36353393Y-37342464D02*
X36353393Y-37684449D01*
X36353393Y-37684449D02*
X36353393Y-38034193D01*
X36353393Y-38034193D02*
X36353393Y-38390144D01*
X36353393Y-38390144D02*
X36353393Y-38750751D01*
X36353393Y-38750751D02*
X36353393Y-39114462D01*
X36353393Y-39114462D02*
X36353393Y-39479724D01*
X36353393Y-39479724D02*
X36353393Y-39844986D01*
X36353393Y-39844986D02*
X36353393Y-40208697D01*
X36353393Y-40208697D02*
X36353393Y-40569304D01*
X36353393Y-40569304D02*
X36353393Y-40925255D01*
X36353393Y-40925255D02*
X36353393Y-41274999D01*
X36353393Y-41274999D02*
X36353393Y-41616983D01*
X36353393Y-41616983D02*
X36353393Y-41949657D01*
X36353393Y-41949657D02*
X36353393Y-42271468D01*
X36353393Y-42271468D02*
X36353393Y-42580864D01*
X36353393Y-42580864D02*
X36353393Y-42876293D01*
X36353393Y-42876293D02*
X36353393Y-43156204D01*
X36353393Y-43156204D02*
X36353393Y-43419045D01*
X36353393Y-43419045D02*
X36353393Y-43663264D01*
X36353393Y-43663264D02*
X36353393Y-43887308D01*
X36353393Y-43887308D02*
X36353393Y-44089627D01*
X36353393Y-44089627D02*
X36353393Y-44268669D01*
X36853277Y-34190894D02*
X36636493Y-34240223D01*
X36636493Y-34240223D02*
X36467495Y-34372890D01*
X36467495Y-34372890D02*
X36369121Y-34565917D01*
X36369121Y-34565917D02*
X36353393Y-34690778D01*
X38615751Y-34190894D02*
X38364281Y-34190894D01*
X38364281Y-34190894D02*
X38143392Y-34190894D01*
X38143392Y-34190894D02*
X37911680Y-34190894D01*
X37911680Y-34190894D02*
X37675330Y-34190894D01*
X37675330Y-34190894D02*
X37440525Y-34190894D01*
X37440525Y-34190894D02*
X37213451Y-34190894D01*
X37213451Y-34190894D02*
X37000293Y-34190894D01*
X37000293Y-34190894D02*
X36853277Y-34190894D01*
X39115636Y-34690778D02*
X39066366Y-34474147D01*
X39066366Y-34474147D02*
X38933784Y-34305109D01*
X38933784Y-34305109D02*
X38740728Y-34206644D01*
X38740728Y-34206644D02*
X38615751Y-34190894D01*
X136115525Y-51288577D02*
X136331387Y-51238938D01*
X136331387Y-51238938D02*
X136500623Y-51105784D01*
X136500623Y-51105784D02*
X136599547Y-50912751D01*
X136599547Y-50912751D02*
X136615407Y-50788340D01*
X123115339Y-51288577D02*
X136115525Y-51288577D01*
X122615457Y-50788340D02*
X122665088Y-51004423D01*
X122665088Y-51004423D02*
X122798188Y-51173761D01*
X122798188Y-51173761D02*
X122991070Y-51272716D01*
X122991070Y-51272716D02*
X123115339Y-51288577D01*
X122615457Y-37788509D02*
X122615457Y-50788340D01*
X123115339Y-37288272D02*
X122899481Y-37337910D01*
X122899481Y-37337910D02*
X122730244Y-37471064D01*
X122730244Y-37471064D02*
X122631316Y-37664097D01*
X122631316Y-37664097D02*
X122615457Y-37788509D01*
X136115525Y-37288272D02*
X123115339Y-37288272D01*
X136615407Y-37788509D02*
X136565777Y-37572425D01*
X136565777Y-37572425D02*
X136432679Y-37403087D01*
X136432679Y-37403087D02*
X136239797Y-37304132D01*
X136239797Y-37304132D02*
X136115525Y-37288272D01*
X136615407Y-50788340D02*
X136615407Y-37788509D01*
X58034354Y-37788509D02*
X57984723Y-37572425D01*
X57984723Y-37572425D02*
X57851623Y-37403087D01*
X57851623Y-37403087D02*
X57658740Y-37304132D01*
X57658740Y-37304132D02*
X57534469Y-37288272D01*
X58034354Y-50788340D02*
X58034354Y-37788509D01*
X57534469Y-51288577D02*
X57750330Y-51238938D01*
X57750330Y-51238938D02*
X57919567Y-51105784D01*
X57919567Y-51105784D02*
X58018494Y-50912751D01*
X58018494Y-50912751D02*
X58034354Y-50788340D01*
X42153044Y-51288577D02*
X57534469Y-51288577D01*
X41653159Y-50788340D02*
X41702789Y-51004423D01*
X41702789Y-51004423D02*
X41835889Y-51173761D01*
X41835889Y-51173761D02*
X42028772Y-51272716D01*
X42028772Y-51272716D02*
X42153044Y-51288577D01*
X41653159Y-37788509D02*
X41653159Y-50788340D01*
X42153044Y-37288272D02*
X41937182Y-37337910D01*
X41937182Y-37337910D02*
X41767945Y-37471064D01*
X41767945Y-37471064D02*
X41669018Y-37664097D01*
X41669018Y-37664097D02*
X41653159Y-37788509D01*
X57534469Y-37288272D02*
X42153044Y-37288272D01*
X98015620Y-51288577D02*
X98231480Y-51238938D01*
X98231480Y-51238938D02*
X98400717Y-51105784D01*
X98400717Y-51105784D02*
X98499643Y-50912751D01*
X98499643Y-50912751D02*
X98515503Y-50788340D01*
X85015440Y-51288577D02*
X98015620Y-51288577D01*
X84515552Y-50788340D02*
X84565182Y-51004423D01*
X84565182Y-51004423D02*
X84698282Y-51173761D01*
X84698282Y-51173761D02*
X84891167Y-51272716D01*
X84891167Y-51272716D02*
X85015440Y-51288577D01*
X84515552Y-37788509D02*
X84515552Y-50788340D01*
X85015440Y-37288272D02*
X84799576Y-37337910D01*
X84799576Y-37337910D02*
X84630338Y-37471064D01*
X84630338Y-37471064D02*
X84531411Y-37664097D01*
X84531411Y-37664097D02*
X84515552Y-37788509D01*
X98015620Y-37288272D02*
X85015440Y-37288272D01*
X98515503Y-37788509D02*
X98465872Y-37572425D01*
X98465872Y-37572425D02*
X98332773Y-37403087D01*
X98332773Y-37403087D02*
X98139890Y-37304132D01*
X98139890Y-37304132D02*
X98015620Y-37288272D01*
X98515503Y-50788340D02*
X98515503Y-37788509D01*
X174215430Y-51288577D02*
X174431292Y-51238938D01*
X174431292Y-51238938D02*
X174600527Y-51105784D01*
X174600527Y-51105784D02*
X174699452Y-50912751D01*
X174699452Y-50912751D02*
X174715312Y-50788340D01*
X161215244Y-51288577D02*
X174215430Y-51288577D01*
X160715362Y-50788340D02*
X160764993Y-51004423D01*
X160764993Y-51004423D02*
X160898093Y-51173761D01*
X160898093Y-51173761D02*
X161090975Y-51272716D01*
X161090975Y-51272716D02*
X161215244Y-51288577D01*
X160715362Y-37788509D02*
X160715362Y-50788340D01*
X161215244Y-37288272D02*
X160999386Y-37337910D01*
X160999386Y-37337910D02*
X160830149Y-37471064D01*
X160830149Y-37471064D02*
X160731221Y-37664097D01*
X160731221Y-37664097D02*
X160715362Y-37788509D01*
X174215430Y-37288272D02*
X161215244Y-37288272D01*
X174715312Y-37788509D02*
X174665682Y-37572425D01*
X174665682Y-37572425D02*
X174532584Y-37403087D01*
X174532584Y-37403087D02*
X174339701Y-37304132D01*
X174339701Y-37304132D02*
X174215430Y-37288272D01*
X174715312Y-50788340D02*
X174715312Y-37788509D01*
X193265382Y-51288577D02*
X193481244Y-51238938D01*
X193481244Y-51238938D02*
X193650480Y-51105784D01*
X193650480Y-51105784D02*
X193749404Y-50912751D01*
X193749404Y-50912751D02*
X193765264Y-50788340D01*
X180265196Y-51288577D02*
X193265382Y-51288577D01*
X179765314Y-50788340D02*
X179814945Y-51004423D01*
X179814945Y-51004423D02*
X179948046Y-51173761D01*
X179948046Y-51173761D02*
X180140927Y-51272716D01*
X180140927Y-51272716D02*
X180265196Y-51288577D01*
X179765314Y-37788509D02*
X179765314Y-50788340D01*
X180265196Y-37288272D02*
X180049338Y-37337910D01*
X180049338Y-37337910D02*
X179880101Y-37471064D01*
X179880101Y-37471064D02*
X179781173Y-37664097D01*
X179781173Y-37664097D02*
X179765314Y-37788509D01*
X193265382Y-37288272D02*
X180265196Y-37288272D01*
X193765264Y-37788509D02*
X193715634Y-37572425D01*
X193715634Y-37572425D02*
X193582536Y-37403087D01*
X193582536Y-37403087D02*
X193389654Y-37304132D01*
X193389654Y-37304132D02*
X193265382Y-37288272D01*
X193765264Y-50788340D02*
X193765264Y-37788509D01*
X155165478Y-51288577D02*
X155381340Y-51238938D01*
X155381340Y-51238938D02*
X155550575Y-51105784D01*
X155550575Y-51105784D02*
X155649500Y-50912751D01*
X155649500Y-50912751D02*
X155665360Y-50788340D01*
X142165292Y-51288577D02*
X155165478Y-51288577D01*
X141665409Y-50788340D02*
X141715040Y-51004423D01*
X141715040Y-51004423D02*
X141848141Y-51173761D01*
X141848141Y-51173761D02*
X142041023Y-51272716D01*
X142041023Y-51272716D02*
X142165292Y-51288577D01*
X141665409Y-37788509D02*
X141665409Y-50788340D01*
X142165292Y-37288272D02*
X141949434Y-37337910D01*
X141949434Y-37337910D02*
X141780196Y-37471064D01*
X141780196Y-37471064D02*
X141681268Y-37664097D01*
X141681268Y-37664097D02*
X141665409Y-37788509D01*
X155165478Y-37288272D02*
X142165292Y-37288272D01*
X155665360Y-37788509D02*
X155615730Y-37572425D01*
X155615730Y-37572425D02*
X155482632Y-37403087D01*
X155482632Y-37403087D02*
X155289749Y-37304132D01*
X155289749Y-37304132D02*
X155165478Y-37288272D01*
X155665360Y-50788340D02*
X155665360Y-37788509D01*
X281371412Y-37288272D02*
X272346318Y-37288272D01*
X281871294Y-37788509D02*
X281821662Y-37572425D01*
X281821662Y-37572425D02*
X281688562Y-37403087D01*
X281688562Y-37403087D02*
X281495680Y-37304132D01*
X281495680Y-37304132D02*
X281371412Y-37288272D01*
X281871294Y-50788340D02*
X281871294Y-37788509D01*
X281371412Y-51288577D02*
X281587269Y-51238938D01*
X281587269Y-51238938D02*
X281756506Y-51105784D01*
X281756506Y-51105784D02*
X281855434Y-50912751D01*
X281855434Y-50912751D02*
X281871294Y-50788340D01*
X261227494Y-51288577D02*
X281371412Y-51288577D01*
X260727612Y-50788340D02*
X260777243Y-51004423D01*
X260777243Y-51004423D02*
X260910343Y-51173761D01*
X260910343Y-51173761D02*
X261103225Y-51272716D01*
X261103225Y-51272716D02*
X261227494Y-51288577D01*
X260727612Y-50288458D02*
X260727612Y-50788340D01*
X259933153Y-50288458D02*
X260727612Y-50288458D01*
X259539466Y-50095135D02*
X259698705Y-50229368D01*
X259698705Y-50229368D02*
X259903524Y-50287577D01*
X259903524Y-50287577D02*
X259933153Y-50288458D01*
X259346498Y-49701436D02*
X259387151Y-49898012D01*
X259387151Y-49898012D02*
X259507639Y-50068017D01*
X259507639Y-50068017D02*
X259539466Y-50095135D01*
X259346498Y-43701403D02*
X259346498Y-49701436D01*
X259433271Y-43420946D02*
X259355612Y-43606754D01*
X259355612Y-43606754D02*
X259346498Y-43701403D01*
X259433271Y-41763601D02*
X259433271Y-43420946D01*
X258846250Y-41763601D02*
X259433271Y-41763601D01*
X258346368Y-41263364D02*
X258395999Y-41479447D01*
X258395999Y-41479447D02*
X258529099Y-41648785D01*
X258529099Y-41648785D02*
X258721981Y-41747740D01*
X258721981Y-41747740D02*
X258846250Y-41763601D01*
X258346368Y-28263536D02*
X258346368Y-41263364D01*
X258846250Y-27763298D02*
X258630392Y-27812936D01*
X258630392Y-27812936D02*
X258461155Y-27946091D01*
X258461155Y-27946091D02*
X258362227Y-28139123D01*
X258362227Y-28139123D02*
X258346368Y-28263536D01*
X260727612Y-27763298D02*
X258846250Y-27763298D01*
X260727612Y-26325378D02*
X260727612Y-27763298D01*
X259846380Y-26325378D02*
X260727612Y-26325378D01*
X259346498Y-25825493D02*
X259396066Y-26041354D01*
X259396066Y-26041354D02*
X259529077Y-26210591D01*
X259529077Y-26210591D02*
X259721989Y-26309518D01*
X259721989Y-26309518D02*
X259846380Y-26325378D01*
X259346498Y-19825465D02*
X259346498Y-25825493D01*
X259846380Y-19325581D02*
X259630362Y-19375211D01*
X259630362Y-19375211D02*
X259461167Y-19508311D01*
X259461167Y-19508311D02*
X259362335Y-19701194D01*
X259362335Y-19701194D02*
X259346498Y-19825465D01*
X260727612Y-19325581D02*
X259846380Y-19325581D01*
X260727612Y-18738559D02*
X260727612Y-19325581D01*
X261227494Y-18238322D02*
X261011636Y-18287960D01*
X261011636Y-18287960D02*
X260842399Y-18421114D01*
X260842399Y-18421114D02*
X260743471Y-18614147D01*
X260743471Y-18614147D02*
X260727612Y-18738559D01*
X274227680Y-18238322D02*
X261227494Y-18238322D01*
X274727562Y-18738559D02*
X274677930Y-18522475D01*
X274677930Y-18522475D02*
X274544830Y-18353137D01*
X274544830Y-18353137D02*
X274351948Y-18254182D01*
X274351948Y-18254182D02*
X274227680Y-18238322D01*
X274727562Y-31738387D02*
X274727562Y-18738559D01*
X274227680Y-32238625D02*
X274443537Y-32188986D01*
X274443537Y-32188986D02*
X274612774Y-32055831D01*
X274612774Y-32055831D02*
X274711702Y-31862799D01*
X274711702Y-31862799D02*
X274727562Y-31738387D01*
X272346318Y-32238625D02*
X274227680Y-32238625D01*
X272346318Y-37288272D02*
X272346318Y-32238625D01*
X65465600Y-50788340D02*
X65515230Y-51004423D01*
X65515230Y-51004423D02*
X65648330Y-51173761D01*
X65648330Y-51173761D02*
X65841213Y-51272716D01*
X65841213Y-51272716D02*
X65965485Y-51288577D01*
X65465600Y-37788509D02*
X65465600Y-50788340D01*
X65965485Y-37288272D02*
X65749623Y-37337910D01*
X65749623Y-37337910D02*
X65580386Y-37471064D01*
X65580386Y-37471064D02*
X65481459Y-37664097D01*
X65481459Y-37664097D02*
X65465600Y-37788509D01*
X78965668Y-37288272D02*
X65965485Y-37288272D01*
X79465550Y-37788509D02*
X79415919Y-37572425D01*
X79415919Y-37572425D02*
X79282820Y-37403087D01*
X79282820Y-37403087D02*
X79089938Y-37304132D01*
X79089938Y-37304132D02*
X78965668Y-37288272D01*
X79465550Y-50788340D02*
X79465550Y-37788509D01*
X78965668Y-51288577D02*
X79181527Y-51238938D01*
X79181527Y-51238938D02*
X79350764Y-51105784D01*
X79350764Y-51105784D02*
X79449690Y-50912751D01*
X79449690Y-50912751D02*
X79465550Y-50788340D01*
X65965485Y-51288577D02*
X78965668Y-51288577D01*
X231365287Y-51288577D02*
X231581144Y-51238938D01*
X231581144Y-51238938D02*
X231750381Y-51105784D01*
X231750381Y-51105784D02*
X231849309Y-50912751D01*
X231849309Y-50912751D02*
X231865169Y-50788340D01*
X218365101Y-51288577D02*
X231365287Y-51288577D01*
X217865219Y-50788340D02*
X217914850Y-51004423D01*
X217914850Y-51004423D02*
X218047950Y-51173761D01*
X218047950Y-51173761D02*
X218240832Y-51272716D01*
X218240832Y-51272716D02*
X218365101Y-51288577D01*
X217865219Y-37788509D02*
X217865219Y-50788340D01*
X218365101Y-37288272D02*
X218149243Y-37337910D01*
X218149243Y-37337910D02*
X217980006Y-37471064D01*
X217980006Y-37471064D02*
X217881078Y-37664097D01*
X217881078Y-37664097D02*
X217865219Y-37788509D01*
X231365287Y-37288272D02*
X218365101Y-37288272D01*
X231865169Y-37788509D02*
X231815537Y-37572425D01*
X231815537Y-37572425D02*
X231682437Y-37403087D01*
X231682437Y-37403087D02*
X231489555Y-37304132D01*
X231489555Y-37304132D02*
X231365287Y-37288272D01*
X231865169Y-50788340D02*
X231865169Y-37788509D01*
X250415239Y-51288577D02*
X250631096Y-51238938D01*
X250631096Y-51238938D02*
X250800334Y-51105784D01*
X250800334Y-51105784D02*
X250899262Y-50912751D01*
X250899262Y-50912751D02*
X250915122Y-50788340D01*
X237415053Y-51288577D02*
X250415239Y-51288577D01*
X236915171Y-50788340D02*
X236964802Y-51004423D01*
X236964802Y-51004423D02*
X237097903Y-51173761D01*
X237097903Y-51173761D02*
X237290784Y-51272716D01*
X237290784Y-51272716D02*
X237415053Y-51288577D01*
X236915171Y-37788509D02*
X236915171Y-50788340D01*
X237415053Y-37288272D02*
X237199195Y-37337910D01*
X237199195Y-37337910D02*
X237029958Y-37471064D01*
X237029958Y-37471064D02*
X236931030Y-37664097D01*
X236931030Y-37664097D02*
X236915171Y-37788509D01*
X250415239Y-37288272D02*
X237415053Y-37288272D01*
X250915122Y-37788509D02*
X250865490Y-37572425D01*
X250865490Y-37572425D02*
X250732389Y-37403087D01*
X250732389Y-37403087D02*
X250539507Y-37304132D01*
X250539507Y-37304132D02*
X250415239Y-37288272D01*
X250915122Y-50788340D02*
X250915122Y-37788509D01*
X212315335Y-51288577D02*
X212531192Y-51238938D01*
X212531192Y-51238938D02*
X212700429Y-51105784D01*
X212700429Y-51105784D02*
X212799357Y-50912751D01*
X212799357Y-50912751D02*
X212815217Y-50788340D01*
X199315149Y-51288577D02*
X212315335Y-51288577D01*
X198815267Y-50788340D02*
X198864898Y-51004423D01*
X198864898Y-51004423D02*
X198997998Y-51173761D01*
X198997998Y-51173761D02*
X199190880Y-51272716D01*
X199190880Y-51272716D02*
X199315149Y-51288577D01*
X198815267Y-37788509D02*
X198815267Y-50788340D01*
X199315149Y-37288272D02*
X199099291Y-37337910D01*
X199099291Y-37337910D02*
X198930054Y-37471064D01*
X198930054Y-37471064D02*
X198831126Y-37664097D01*
X198831126Y-37664097D02*
X198815267Y-37788509D01*
X212315335Y-37288272D02*
X199315149Y-37288272D01*
X212815217Y-37788509D02*
X212765585Y-37572425D01*
X212765585Y-37572425D02*
X212632484Y-37403087D01*
X212632484Y-37403087D02*
X212439603Y-37304132D01*
X212439603Y-37304132D02*
X212315335Y-37288272D01*
X212815217Y-50788340D02*
X212815217Y-37788509D01*
X117065573Y-51288577D02*
X117281432Y-51238938D01*
X117281432Y-51238938D02*
X117450669Y-51105784D01*
X117450669Y-51105784D02*
X117549595Y-50912751D01*
X117549595Y-50912751D02*
X117565455Y-50788340D01*
X104065392Y-51288577D02*
X117065573Y-51288577D01*
X103565505Y-50788340D02*
X103615135Y-51004423D01*
X103615135Y-51004423D02*
X103748235Y-51173761D01*
X103748235Y-51173761D02*
X103941119Y-51272716D01*
X103941119Y-51272716D02*
X104065392Y-51288577D01*
X103565505Y-37788509D02*
X103565505Y-50788340D01*
X104065392Y-37288272D02*
X103849528Y-37337910D01*
X103849528Y-37337910D02*
X103680291Y-37471064D01*
X103680291Y-37471064D02*
X103581364Y-37664097D01*
X103581364Y-37664097D02*
X103565505Y-37788509D01*
X117065573Y-37288272D02*
X104065392Y-37288272D01*
X117565455Y-37788509D02*
X117515824Y-37572425D01*
X117515824Y-37572425D02*
X117382725Y-37403087D01*
X117382725Y-37403087D02*
X117189843Y-37304132D01*
X117189843Y-37304132D02*
X117065573Y-37288272D01*
X117565455Y-50788340D02*
X117565455Y-37788509D01*
X202790359Y-70338530D02*
X203006221Y-70288891D01*
X203006221Y-70288891D02*
X203175456Y-70155736D01*
X203175456Y-70155736D02*
X203274381Y-69962704D01*
X203274381Y-69962704D02*
X203290241Y-69838292D01*
X189790172Y-70338530D02*
X202790359Y-70338530D01*
X189290290Y-69838292D02*
X189339921Y-70054375D01*
X189339921Y-70054375D02*
X189473022Y-70223714D01*
X189473022Y-70223714D02*
X189665903Y-70322669D01*
X189665903Y-70322669D02*
X189790172Y-70338530D01*
X189290290Y-56838461D02*
X189290290Y-69838292D01*
X189790172Y-56338224D02*
X189574314Y-56387862D01*
X189574314Y-56387862D02*
X189405077Y-56521016D01*
X189405077Y-56521016D02*
X189306149Y-56714049D01*
X189306149Y-56714049D02*
X189290290Y-56838461D01*
X202790359Y-56338224D02*
X189790172Y-56338224D01*
X203290241Y-56838461D02*
X203240611Y-56622377D01*
X203240611Y-56622377D02*
X203107513Y-56453039D01*
X203107513Y-56453039D02*
X202914630Y-56354084D01*
X202914630Y-56354084D02*
X202790359Y-56338224D01*
X203290241Y-69838292D02*
X203290241Y-56838461D01*
X183740406Y-70338530D02*
X183956268Y-70288891D01*
X183956268Y-70288891D02*
X184125504Y-70155736D01*
X184125504Y-70155736D02*
X184224428Y-69962704D01*
X184224428Y-69962704D02*
X184240288Y-69838292D01*
X170740220Y-70338530D02*
X183740406Y-70338530D01*
X170240338Y-69838292D02*
X170289969Y-70054375D01*
X170289969Y-70054375D02*
X170423069Y-70223714D01*
X170423069Y-70223714D02*
X170615951Y-70322669D01*
X170615951Y-70322669D02*
X170740220Y-70338530D01*
X170240338Y-56838461D02*
X170240338Y-69838292D01*
X170740220Y-56338224D02*
X170524362Y-56387862D01*
X170524362Y-56387862D02*
X170355125Y-56521016D01*
X170355125Y-56521016D02*
X170256197Y-56714049D01*
X170256197Y-56714049D02*
X170240338Y-56838461D01*
X183740406Y-56338224D02*
X170740220Y-56338224D01*
X184240288Y-56838461D02*
X184190658Y-56622377D01*
X184190658Y-56622377D02*
X184057560Y-56453039D01*
X184057560Y-56453039D02*
X183864678Y-56354084D01*
X183864678Y-56354084D02*
X183740406Y-56338224D01*
X184240288Y-69838292D02*
X184240288Y-56838461D01*
X164690454Y-70338530D02*
X164906316Y-70288891D01*
X164906316Y-70288891D02*
X165075551Y-70155736D01*
X165075551Y-70155736D02*
X165174476Y-69962704D01*
X165174476Y-69962704D02*
X165190336Y-69838292D01*
X151690268Y-70338530D02*
X164690454Y-70338530D01*
X151190386Y-69838292D02*
X151240017Y-70054375D01*
X151240017Y-70054375D02*
X151373117Y-70223714D01*
X151373117Y-70223714D02*
X151565999Y-70322669D01*
X151565999Y-70322669D02*
X151690268Y-70338530D01*
X151190386Y-56838461D02*
X151190386Y-69838292D01*
X151690268Y-56338224D02*
X151474410Y-56387862D01*
X151474410Y-56387862D02*
X151305173Y-56521016D01*
X151305173Y-56521016D02*
X151206245Y-56714049D01*
X151206245Y-56714049D02*
X151190386Y-56838461D01*
X164690454Y-56338224D02*
X151690268Y-56338224D01*
X165190336Y-56838461D02*
X165140706Y-56622377D01*
X165140706Y-56622377D02*
X165007608Y-56453039D01*
X165007608Y-56453039D02*
X164814725Y-56354084D01*
X164814725Y-56354084D02*
X164690454Y-56338224D01*
X165190336Y-69838292D02*
X165190336Y-56838461D01*
X145640501Y-70338530D02*
X145856363Y-70288891D01*
X145856363Y-70288891D02*
X146025599Y-70155736D01*
X146025599Y-70155736D02*
X146124524Y-69962704D01*
X146124524Y-69962704D02*
X146140384Y-69838292D01*
X132640315Y-70338530D02*
X145640501Y-70338530D01*
X132140433Y-69838292D02*
X132190064Y-70054375D01*
X132190064Y-70054375D02*
X132323165Y-70223714D01*
X132323165Y-70223714D02*
X132516046Y-70322669D01*
X132516046Y-70322669D02*
X132640315Y-70338530D01*
X132140433Y-56838461D02*
X132140433Y-69838292D01*
X132640315Y-56338224D02*
X132424457Y-56387862D01*
X132424457Y-56387862D02*
X132255220Y-56521016D01*
X132255220Y-56521016D02*
X132156292Y-56714049D01*
X132156292Y-56714049D02*
X132140433Y-56838461D01*
X145640501Y-56338224D02*
X132640315Y-56338224D01*
X146140384Y-56838461D02*
X146090754Y-56622377D01*
X146090754Y-56622377D02*
X145957656Y-56453039D01*
X145957656Y-56453039D02*
X145764773Y-56354084D01*
X145764773Y-56354084D02*
X145640501Y-56338224D01*
X146140384Y-69838292D02*
X146140384Y-56838461D01*
X107540597Y-70338530D02*
X107756456Y-70288891D01*
X107756456Y-70288891D02*
X107925693Y-70155736D01*
X107925693Y-70155736D02*
X108024619Y-69962704D01*
X108024619Y-69962704D02*
X108040479Y-69838292D01*
X94540416Y-70338530D02*
X107540597Y-70338530D01*
X94040529Y-69838292D02*
X94090159Y-70054375D01*
X94090159Y-70054375D02*
X94223259Y-70223714D01*
X94223259Y-70223714D02*
X94416143Y-70322669D01*
X94416143Y-70322669D02*
X94540416Y-70338530D01*
X94040529Y-56838461D02*
X94040529Y-69838292D01*
X94540416Y-56338224D02*
X94324552Y-56387862D01*
X94324552Y-56387862D02*
X94155314Y-56521016D01*
X94155314Y-56521016D02*
X94056388Y-56714049D01*
X94056388Y-56714049D02*
X94040529Y-56838461D01*
X107540597Y-56338224D02*
X94540416Y-56338224D01*
X108040479Y-56838461D02*
X107990848Y-56622377D01*
X107990848Y-56622377D02*
X107857749Y-56453039D01*
X107857749Y-56453039D02*
X107664867Y-56354084D01*
X107664867Y-56354084D02*
X107540597Y-56338224D01*
X108040479Y-69838292D02*
X108040479Y-56838461D01*
X88490644Y-70338530D02*
X88706503Y-70288891D01*
X88706503Y-70288891D02*
X88875740Y-70155736D01*
X88875740Y-70155736D02*
X88974666Y-69962704D01*
X88974666Y-69962704D02*
X88990526Y-69838292D01*
X75490464Y-70338530D02*
X88490644Y-70338530D01*
X74990576Y-69838292D02*
X75040206Y-70054375D01*
X75040206Y-70054375D02*
X75173306Y-70223714D01*
X75173306Y-70223714D02*
X75366191Y-70322669D01*
X75366191Y-70322669D02*
X75490464Y-70338530D01*
X74990576Y-56838461D02*
X74990576Y-69838292D01*
X75490464Y-56338224D02*
X75274600Y-56387862D01*
X75274600Y-56387862D02*
X75105362Y-56521016D01*
X75105362Y-56521016D02*
X75006435Y-56714049D01*
X75006435Y-56714049D02*
X74990576Y-56838461D01*
X88490644Y-56338224D02*
X75490464Y-56338224D01*
X88990526Y-56838461D02*
X88940895Y-56622377D01*
X88940895Y-56622377D02*
X88807796Y-56453039D01*
X88807796Y-56453039D02*
X88614914Y-56354084D01*
X88614914Y-56354084D02*
X88490644Y-56338224D01*
X88990526Y-69838292D02*
X88990526Y-56838461D01*
X240890263Y-70338530D02*
X241106120Y-70288891D01*
X241106120Y-70288891D02*
X241275357Y-70155736D01*
X241275357Y-70155736D02*
X241374285Y-69962704D01*
X241374285Y-69962704D02*
X241390145Y-69838292D01*
X227890077Y-70338530D02*
X240890263Y-70338530D01*
X227390195Y-69838292D02*
X227439826Y-70054375D01*
X227439826Y-70054375D02*
X227572927Y-70223714D01*
X227572927Y-70223714D02*
X227765808Y-70322669D01*
X227765808Y-70322669D02*
X227890077Y-70338530D01*
X227390195Y-56838461D02*
X227390195Y-69838292D01*
X227890077Y-56338224D02*
X227674219Y-56387862D01*
X227674219Y-56387862D02*
X227504982Y-56521016D01*
X227504982Y-56521016D02*
X227406054Y-56714049D01*
X227406054Y-56714049D02*
X227390195Y-56838461D01*
X240890263Y-56338224D02*
X227890077Y-56338224D01*
X241390145Y-56838461D02*
X241340513Y-56622377D01*
X241340513Y-56622377D02*
X241207413Y-56453039D01*
X241207413Y-56453039D02*
X241014531Y-56354084D01*
X241014531Y-56354084D02*
X240890263Y-56338224D01*
X241390145Y-69838292D02*
X241390145Y-56838461D01*
X221840311Y-70338530D02*
X222056168Y-70288891D01*
X222056168Y-70288891D02*
X222225405Y-70155736D01*
X222225405Y-70155736D02*
X222324333Y-69962704D01*
X222324333Y-69962704D02*
X222340193Y-69838292D01*
X208840125Y-70338530D02*
X221840311Y-70338530D01*
X208340243Y-69838292D02*
X208389874Y-70054375D01*
X208389874Y-70054375D02*
X208522974Y-70223714D01*
X208522974Y-70223714D02*
X208715856Y-70322669D01*
X208715856Y-70322669D02*
X208840125Y-70338530D01*
X208340243Y-56838461D02*
X208340243Y-69838292D01*
X208840125Y-56338224D02*
X208624267Y-56387862D01*
X208624267Y-56387862D02*
X208455030Y-56521016D01*
X208455030Y-56521016D02*
X208356102Y-56714049D01*
X208356102Y-56714049D02*
X208340243Y-56838461D01*
X221840311Y-56338224D02*
X208840125Y-56338224D01*
X222340193Y-56838461D02*
X222290561Y-56622377D01*
X222290561Y-56622377D02*
X222157461Y-56453039D01*
X222157461Y-56453039D02*
X221964579Y-56354084D01*
X221964579Y-56354084D02*
X221840311Y-56338224D01*
X222340193Y-69838292D02*
X222340193Y-56838461D01*
X126590549Y-70338530D02*
X126806411Y-70288891D01*
X126806411Y-70288891D02*
X126975647Y-70155736D01*
X126975647Y-70155736D02*
X127074571Y-69962704D01*
X127074571Y-69962704D02*
X127090431Y-69838292D01*
X113590368Y-70338530D02*
X126590549Y-70338530D01*
X113090481Y-69838292D02*
X113140111Y-70054375D01*
X113140111Y-70054375D02*
X113273211Y-70223714D01*
X113273211Y-70223714D02*
X113466095Y-70322669D01*
X113466095Y-70322669D02*
X113590368Y-70338530D01*
X113090481Y-56838461D02*
X113090481Y-69838292D01*
X113590368Y-56338224D02*
X113374504Y-56387862D01*
X113374504Y-56387862D02*
X113205267Y-56521016D01*
X113205267Y-56521016D02*
X113106340Y-56714049D01*
X113106340Y-56714049D02*
X113090481Y-56838461D01*
X126590549Y-56338224D02*
X113590368Y-56338224D01*
X127090431Y-56838461D02*
X127040801Y-56622377D01*
X127040801Y-56622377D02*
X126907703Y-56453039D01*
X126907703Y-56453039D02*
X126714821Y-56354084D01*
X126714821Y-56354084D02*
X126590549Y-56338224D01*
X127090431Y-69838292D02*
X127090431Y-56838461D01*
X259940216Y-70338530D02*
X260156073Y-70288891D01*
X260156073Y-70288891D02*
X260325310Y-70155736D01*
X260325310Y-70155736D02*
X260424238Y-69962704D01*
X260424238Y-69962704D02*
X260440098Y-69838292D01*
X246940030Y-70338530D02*
X259940216Y-70338530D01*
X246440148Y-69838292D02*
X246489779Y-70054375D01*
X246489779Y-70054375D02*
X246622879Y-70223714D01*
X246622879Y-70223714D02*
X246815761Y-70322669D01*
X246815761Y-70322669D02*
X246940030Y-70338530D01*
X246440148Y-56838461D02*
X246440148Y-69838292D01*
X246940030Y-56338224D02*
X246724172Y-56387862D01*
X246724172Y-56387862D02*
X246554935Y-56521016D01*
X246554935Y-56521016D02*
X246456007Y-56714049D01*
X246456007Y-56714049D02*
X246440148Y-56838461D01*
X259940216Y-56338224D02*
X246940030Y-56338224D01*
X260440098Y-56838461D02*
X260390466Y-56622377D01*
X260390466Y-56622377D02*
X260257365Y-56453039D01*
X260257365Y-56453039D02*
X260064484Y-56354084D01*
X260064484Y-56354084D02*
X259940216Y-56338224D01*
X260440098Y-69838292D02*
X260440098Y-56838461D01*
X37977577Y-57838236D02*
X37977577Y-58002982D01*
X38477462Y-57338349D02*
X38261600Y-57387979D01*
X38261600Y-57387979D02*
X38092363Y-57521079D01*
X38092363Y-57521079D02*
X37993436Y-57713963D01*
X37993436Y-57713963D02*
X37977577Y-57838236D01*
X44477491Y-57338349D02*
X38477462Y-57338349D01*
X44977729Y-57838236D02*
X44928090Y-57622372D01*
X44928090Y-57622372D02*
X44794935Y-57453135D01*
X44794935Y-57453135D02*
X44601903Y-57354208D01*
X44601903Y-57354208D02*
X44477491Y-57338349D01*
X44977729Y-71838187D02*
X44977729Y-57838236D01*
X44477491Y-72338424D02*
X44693574Y-72288785D01*
X44693574Y-72288785D02*
X44862913Y-72155631D01*
X44862913Y-72155631D02*
X44961868Y-71962598D01*
X44961868Y-71962598D02*
X44977729Y-71838187D01*
X38477462Y-72338424D02*
X44477491Y-72338424D01*
X37977577Y-71838187D02*
X38027207Y-72054270D01*
X38027207Y-72054270D02*
X38160307Y-72223608D01*
X38160307Y-72223608D02*
X38353190Y-72322563D01*
X38353190Y-72322563D02*
X38477462Y-72338424D01*
X37977577Y-67580872D02*
X37977577Y-71838187D01*
X36846222Y-67580872D02*
X37080441Y-67580872D01*
X37080441Y-67580872D02*
X37321060Y-67580872D01*
X37321060Y-67580872D02*
X37549210Y-67580872D01*
X37549210Y-67580872D02*
X37779960Y-67580872D01*
X37779960Y-67580872D02*
X37977577Y-67580872D01*
X36345984Y-67080635D02*
X36395321Y-67297428D01*
X36395321Y-67297428D02*
X36528044Y-67466481D01*
X36528044Y-67466481D02*
X36721221Y-67565003D01*
X36721221Y-67565003D02*
X36846222Y-67580872D01*
X36345984Y-58503219D02*
X36345984Y-58853647D01*
X36345984Y-58853647D02*
X36345984Y-59057373D01*
X36345984Y-59057373D02*
X36345984Y-59278340D01*
X36345984Y-59278340D02*
X36345984Y-59515219D01*
X36345984Y-59515219D02*
X36345984Y-59766687D01*
X36345984Y-59766687D02*
X36345984Y-60031416D01*
X36345984Y-60031416D02*
X36345984Y-60308080D01*
X36345984Y-60308080D02*
X36345984Y-60595353D01*
X36345984Y-60595353D02*
X36345984Y-60891910D01*
X36345984Y-60891910D02*
X36345984Y-61196423D01*
X36345984Y-61196423D02*
X36345984Y-61507567D01*
X36345984Y-61507567D02*
X36345984Y-61824015D01*
X36345984Y-61824015D02*
X36345984Y-62144442D01*
X36345984Y-62144442D02*
X36345984Y-62467521D01*
X36345984Y-62467521D02*
X36345984Y-62791927D01*
X36345984Y-62791927D02*
X36345984Y-63116332D01*
X36345984Y-63116332D02*
X36345984Y-63439411D01*
X36345984Y-63439411D02*
X36345984Y-63759838D01*
X36345984Y-63759838D02*
X36345984Y-64076286D01*
X36345984Y-64076286D02*
X36345984Y-64387430D01*
X36345984Y-64387430D02*
X36345984Y-64691943D01*
X36345984Y-64691943D02*
X36345984Y-64988500D01*
X36345984Y-64988500D02*
X36345984Y-65275773D01*
X36345984Y-65275773D02*
X36345984Y-65552437D01*
X36345984Y-65552437D02*
X36345984Y-65817166D01*
X36345984Y-65817166D02*
X36345984Y-66068634D01*
X36345984Y-66068634D02*
X36345984Y-66305513D01*
X36345984Y-66305513D02*
X36345984Y-66526480D01*
X36345984Y-66526480D02*
X36345984Y-66730206D01*
X36345984Y-66730206D02*
X36345984Y-67080635D01*
X36846222Y-58002982D02*
X36629369Y-58052318D01*
X36629369Y-58052318D02*
X36460229Y-58185041D01*
X36460229Y-58185041D02*
X36361735Y-58378217D01*
X36361735Y-58378217D02*
X36345984Y-58503219D01*
X37977577Y-58002982D02*
X36846222Y-58002982D01*
X62796842Y-56838461D02*
X62747211Y-56622377D01*
X62747211Y-56622377D02*
X62614111Y-56453039D01*
X62614111Y-56453039D02*
X62421228Y-56354084D01*
X62421228Y-56354084D02*
X62296957Y-56338224D01*
X62796842Y-57338349D02*
X62796842Y-56838461D01*
X68353431Y-57338349D02*
X62796842Y-57338349D01*
X68853671Y-57838236D02*
X68804032Y-57622372D01*
X68804032Y-57622372D02*
X68670876Y-57453135D01*
X68670876Y-57453135D02*
X68477843Y-57354208D01*
X68477843Y-57354208D02*
X68353431Y-57338349D01*
X68853671Y-71838187D02*
X68853671Y-57838236D01*
X68353431Y-72338424D02*
X68569514Y-72288785D01*
X68569514Y-72288785D02*
X68738854Y-72155631D01*
X68738854Y-72155631D02*
X68837809Y-71962598D01*
X68837809Y-71962598D02*
X68853671Y-71838187D01*
X62353403Y-72338424D02*
X68353431Y-72338424D01*
X61853518Y-71838187D02*
X61903148Y-72054270D01*
X61903148Y-72054270D02*
X62036248Y-72223608D01*
X62036248Y-72223608D02*
X62229131Y-72322563D01*
X62229131Y-72322563D02*
X62353403Y-72338424D01*
X61853518Y-70338530D02*
X61853518Y-71838187D01*
X46915532Y-70338530D02*
X61853518Y-70338530D01*
X46415648Y-69838292D02*
X46465278Y-70054375D01*
X46465278Y-70054375D02*
X46598378Y-70223714D01*
X46598378Y-70223714D02*
X46791261Y-70322669D01*
X46791261Y-70322669D02*
X46915532Y-70338530D01*
X46415648Y-56838461D02*
X46415648Y-69838292D01*
X46915532Y-56338224D02*
X46699670Y-56387862D01*
X46699670Y-56387862D02*
X46530433Y-56521016D01*
X46530433Y-56521016D02*
X46431507Y-56714049D01*
X46431507Y-56714049D02*
X46415648Y-56838461D01*
X62296957Y-56338224D02*
X46915532Y-56338224D01*
X186178096Y-73388287D02*
X185962231Y-73437925D01*
X185962231Y-73437925D02*
X185792991Y-73571080D01*
X185792991Y-73571080D02*
X185694062Y-73764112D01*
X185694062Y-73764112D02*
X185678203Y-73888525D01*
X192178124Y-73388287D02*
X186178096Y-73388287D01*
X192678361Y-73888525D02*
X192628722Y-73672441D01*
X192628722Y-73672441D02*
X192495566Y-73503102D01*
X192495566Y-73503102D02*
X192302534Y-73404147D01*
X192302534Y-73404147D02*
X192178124Y-73388287D01*
X192678361Y-87888480D02*
X192678361Y-73888525D01*
X192178124Y-88388362D02*
X192394204Y-88338730D01*
X192394204Y-88338730D02*
X192563543Y-88205630D01*
X192563543Y-88205630D02*
X192662499Y-88012748D01*
X192662499Y-88012748D02*
X192678361Y-87888480D01*
X186178096Y-88388362D02*
X192178124Y-88388362D01*
X185678203Y-87888480D02*
X185727834Y-88104337D01*
X185727834Y-88104337D02*
X185860936Y-88273574D01*
X185860936Y-88273574D02*
X186053823Y-88372502D01*
X186053823Y-88372502D02*
X186178096Y-88388362D01*
X185678203Y-73888525D02*
X185678203Y-87888480D01*
X225008951Y-75888414D02*
X225008951Y-79814117D01*
X225508833Y-75388176D02*
X225292975Y-75437814D01*
X225292975Y-75437814D02*
X225123738Y-75570969D01*
X225123738Y-75570969D02*
X225024810Y-75764001D01*
X225024810Y-75764001D02*
X225008951Y-75888414D01*
X238509019Y-75388176D02*
X225508833Y-75388176D01*
X239008901Y-75888414D02*
X238959269Y-75672330D01*
X238959269Y-75672330D02*
X238826169Y-75502991D01*
X238826169Y-75502991D02*
X238633287Y-75404036D01*
X238633287Y-75404036D02*
X238509019Y-75388176D01*
X239008901Y-88888245D02*
X239008901Y-75888414D01*
X238509019Y-89388482D02*
X238724876Y-89338844D01*
X238724876Y-89338844D02*
X238894113Y-89205691D01*
X238894113Y-89205691D02*
X238993041Y-89012658D01*
X238993041Y-89012658D02*
X239008901Y-88888245D01*
X225508833Y-89388482D02*
X238509019Y-89388482D01*
X225008951Y-88888245D02*
X225058582Y-89104330D01*
X225058582Y-89104330D02*
X225191682Y-89273668D01*
X225191682Y-89273668D02*
X225384564Y-89372621D01*
X225384564Y-89372621D02*
X225508833Y-89388482D01*
X225008951Y-84607649D02*
X225008951Y-88888245D01*
X222736012Y-82210880D02*
X222747636Y-82448334D01*
X222747636Y-82448334D02*
X222781776Y-82679218D01*
X222781776Y-82679218D02*
X222837333Y-82902435D01*
X222837333Y-82902435D02*
X222913211Y-83116889D01*
X222913211Y-83116889D02*
X223008310Y-83321484D01*
X223008310Y-83321484D02*
X223121533Y-83515122D01*
X223121533Y-83515122D02*
X223251780Y-83696707D01*
X223251780Y-83696707D02*
X223397955Y-83865142D01*
X223397955Y-83865142D02*
X223558959Y-84019331D01*
X223558959Y-84019331D02*
X223733694Y-84158178D01*
X223733694Y-84158178D02*
X223921061Y-84280585D01*
X223921061Y-84280585D02*
X224119962Y-84385456D01*
X224119962Y-84385456D02*
X224329300Y-84471694D01*
X224329300Y-84471694D02*
X224547976Y-84538204D01*
X224547976Y-84538204D02*
X224774893Y-84583887D01*
X224774893Y-84583887D02*
X225008951Y-84607649D01*
X225008951Y-79814117D02*
X224774893Y-79837879D01*
X224774893Y-79837879D02*
X224547976Y-79883563D01*
X224547976Y-79883563D02*
X224329300Y-79950073D01*
X224329300Y-79950073D02*
X224119962Y-80036312D01*
X224119962Y-80036312D02*
X223921061Y-80141183D01*
X223921061Y-80141183D02*
X223733694Y-80263590D01*
X223733694Y-80263590D02*
X223558959Y-80402436D01*
X223558959Y-80402436D02*
X223397955Y-80556625D01*
X223397955Y-80556625D02*
X223251780Y-80725060D01*
X223251780Y-80725060D02*
X223121533Y-80906644D01*
X223121533Y-80906644D02*
X223008310Y-81100281D01*
X223008310Y-81100281D02*
X222913211Y-81304874D01*
X222913211Y-81304874D02*
X222837333Y-81519327D01*
X222837333Y-81519327D02*
X222781776Y-81742544D01*
X222781776Y-81742544D02*
X222747636Y-81973427D01*
X222747636Y-81973427D02*
X222736012Y-82210880D01*
X98803017Y-88888245D02*
X98852647Y-89104330D01*
X98852647Y-89104330D02*
X98985747Y-89273668D01*
X98985747Y-89273668D02*
X99178631Y-89372621D01*
X99178631Y-89372621D02*
X99302904Y-89388482D01*
X98803017Y-75888414D02*
X98803017Y-88888245D01*
X99302904Y-75388176D02*
X99087040Y-75437814D01*
X99087040Y-75437814D02*
X98917803Y-75570969D01*
X98917803Y-75570969D02*
X98818876Y-75764001D01*
X98818876Y-75764001D02*
X98803017Y-75888414D01*
X107071753Y-75388176D02*
X99302904Y-75388176D01*
X107071753Y-73888525D02*
X107071753Y-75388176D01*
X107571640Y-73388287D02*
X107355776Y-73437925D01*
X107355776Y-73437925D02*
X107186539Y-73571080D01*
X107186539Y-73571080D02*
X107087612Y-73764112D01*
X107087612Y-73764112D02*
X107071753Y-73888525D01*
X113571668Y-73388287D02*
X107571640Y-73388287D01*
X114071555Y-73888525D02*
X114021984Y-73672441D01*
X114021984Y-73672441D02*
X113888969Y-73503102D01*
X113888969Y-73503102D02*
X113696056Y-73404147D01*
X113696056Y-73404147D02*
X113571668Y-73388287D01*
X114071555Y-75388176D02*
X114071555Y-73888525D01*
X114684329Y-75388176D02*
X114071555Y-75388176D01*
X115184211Y-75888414D02*
X115134580Y-75672330D01*
X115134580Y-75672330D02*
X115001481Y-75502991D01*
X115001481Y-75502991D02*
X114808599Y-75404036D01*
X114808599Y-75404036D02*
X114684329Y-75388176D01*
X115184211Y-88888245D02*
X115184211Y-75888414D01*
X114684329Y-89388482D02*
X114900188Y-89338844D01*
X114900188Y-89338844D02*
X115069425Y-89205691D01*
X115069425Y-89205691D02*
X115168351Y-89012658D01*
X115168351Y-89012658D02*
X115184211Y-88888245D01*
X99302904Y-89388482D02*
X114684329Y-89388482D01*
X183740406Y-89388482D02*
X183956268Y-89338844D01*
X183956268Y-89338844D02*
X184125504Y-89205691D01*
X184125504Y-89205691D02*
X184224428Y-89012658D01*
X184224428Y-89012658D02*
X184240288Y-88888245D01*
X170740220Y-89388482D02*
X183740406Y-89388482D01*
X170240338Y-88888245D02*
X170289969Y-89104330D01*
X170289969Y-89104330D02*
X170423069Y-89273668D01*
X170423069Y-89273668D02*
X170615951Y-89372621D01*
X170615951Y-89372621D02*
X170740220Y-89388482D01*
X170240338Y-75888414D02*
X170240338Y-88888245D01*
X170740220Y-75388176D02*
X170524362Y-75437814D01*
X170524362Y-75437814D02*
X170355125Y-75570969D01*
X170355125Y-75570969D02*
X170256197Y-75764001D01*
X170256197Y-75764001D02*
X170240338Y-75888414D01*
X183740406Y-75388176D02*
X170740220Y-75388176D01*
X184240288Y-75888414D02*
X184190658Y-75672330D01*
X184190658Y-75672330D02*
X184057560Y-75502991D01*
X184057560Y-75502991D02*
X183864678Y-75404036D01*
X183864678Y-75404036D02*
X183740406Y-75388176D01*
X184240288Y-88888245D02*
X184240288Y-75888414D01*
X298040120Y-89388482D02*
X298255977Y-89338844D01*
X298255977Y-89338844D02*
X298425215Y-89205691D01*
X298425215Y-89205691D02*
X298524143Y-89012658D01*
X298524143Y-89012658D02*
X298540003Y-88888245D01*
X285039934Y-89388482D02*
X298040120Y-89388482D01*
X284540052Y-88888245D02*
X284589683Y-89104330D01*
X284589683Y-89104330D02*
X284722784Y-89273668D01*
X284722784Y-89273668D02*
X284915665Y-89372621D01*
X284915665Y-89372621D02*
X285039934Y-89388482D01*
X284540052Y-75888414D02*
X284540052Y-88888245D01*
X285039934Y-75388176D02*
X284824076Y-75437814D01*
X284824076Y-75437814D02*
X284654839Y-75570969D01*
X284654839Y-75570969D02*
X284555911Y-75764001D01*
X284555911Y-75764001D02*
X284540052Y-75888414D01*
X298040120Y-75388176D02*
X285039934Y-75388176D01*
X298540003Y-75888414D02*
X298490371Y-75672330D01*
X298490371Y-75672330D02*
X298357270Y-75502991D01*
X298357270Y-75502991D02*
X298164388Y-75404036D01*
X298164388Y-75404036D02*
X298040120Y-75388176D01*
X298540003Y-88888245D02*
X298540003Y-75888414D01*
X96134259Y-75888414D02*
X96084628Y-75672330D01*
X96084628Y-75672330D02*
X95951529Y-75502991D01*
X95951529Y-75502991D02*
X95758646Y-75404036D01*
X95758646Y-75404036D02*
X95634376Y-75388176D01*
X96134259Y-88888245D02*
X96134259Y-75888414D01*
X95634376Y-89388482D02*
X95850236Y-89338844D01*
X95850236Y-89338844D02*
X96019473Y-89205691D01*
X96019473Y-89205691D02*
X96118399Y-89012658D01*
X96118399Y-89012658D02*
X96134259Y-88888245D01*
X77871708Y-89388482D02*
X95634376Y-89388482D01*
X77371820Y-88888245D02*
X77421450Y-89104330D01*
X77421450Y-89104330D02*
X77554550Y-89273668D01*
X77554550Y-89273668D02*
X77747435Y-89372621D01*
X77747435Y-89372621D02*
X77871708Y-89388482D01*
X77371820Y-75888414D02*
X77371820Y-88888245D01*
X77871708Y-75388176D02*
X77655844Y-75437814D01*
X77655844Y-75437814D02*
X77486606Y-75570969D01*
X77486606Y-75570969D02*
X77387679Y-75764001D01*
X77387679Y-75764001D02*
X77371820Y-75888414D01*
X95634376Y-75388176D02*
X77871708Y-75388176D01*
X74703062Y-75888414D02*
X74653431Y-75672330D01*
X74653431Y-75672330D02*
X74520331Y-75502991D01*
X74520331Y-75502991D02*
X74327448Y-75404036D01*
X74327448Y-75404036D02*
X74203177Y-75388176D01*
X74703062Y-88888245D02*
X74703062Y-75888414D01*
X74203177Y-89388482D02*
X74419038Y-89338844D01*
X74419038Y-89338844D02*
X74588275Y-89205691D01*
X74588275Y-89205691D02*
X74687202Y-89012658D01*
X74687202Y-89012658D02*
X74703062Y-88888245D01*
X56440509Y-89388482D02*
X74203177Y-89388482D01*
X55940624Y-88888245D02*
X55990254Y-89104330D01*
X55990254Y-89104330D02*
X56123354Y-89273668D01*
X56123354Y-89273668D02*
X56316237Y-89372621D01*
X56316237Y-89372621D02*
X56440509Y-89388482D01*
X55940624Y-75888414D02*
X55940624Y-88888245D01*
X56440509Y-75388176D02*
X56224647Y-75437814D01*
X56224647Y-75437814D02*
X56055410Y-75570969D01*
X56055410Y-75570969D02*
X55956483Y-75764001D01*
X55956483Y-75764001D02*
X55940624Y-75888414D01*
X74203177Y-75388176D02*
X56440509Y-75388176D01*
X145197054Y-73888525D02*
X145197054Y-75388176D01*
X145696947Y-73388287D02*
X145481082Y-73437925D01*
X145481082Y-73437925D02*
X145311842Y-73571080D01*
X145311842Y-73571080D02*
X145212913Y-73764112D01*
X145212913Y-73764112D02*
X145197054Y-73888525D01*
X154078219Y-73388287D02*
X145696947Y-73388287D01*
X154578456Y-73888525D02*
X154528817Y-73672441D01*
X154528817Y-73672441D02*
X154395661Y-73503102D01*
X154395661Y-73503102D02*
X154202629Y-73404147D01*
X154202629Y-73404147D02*
X154078219Y-73388287D01*
X154578456Y-75388176D02*
X154578456Y-73888525D01*
X161802265Y-75388176D02*
X154578456Y-75388176D01*
X161802265Y-73888525D02*
X161802265Y-75388176D01*
X162302147Y-73388287D02*
X162086289Y-73437925D01*
X162086289Y-73437925D02*
X161917052Y-73571080D01*
X161917052Y-73571080D02*
X161818124Y-73764112D01*
X161818124Y-73764112D02*
X161802265Y-73888525D01*
X168302186Y-73388287D02*
X162302147Y-73388287D01*
X168802423Y-73888525D02*
X168752784Y-73672441D01*
X168752784Y-73672441D02*
X168619628Y-73503102D01*
X168619628Y-73503102D02*
X168426596Y-73404147D01*
X168426596Y-73404147D02*
X168302186Y-73388287D01*
X168802423Y-87888480D02*
X168802423Y-73888525D01*
X168302186Y-88388362D02*
X168518266Y-88338730D01*
X168518266Y-88338730D02*
X168687605Y-88205630D01*
X168687605Y-88205630D02*
X168786561Y-88012748D01*
X168786561Y-88012748D02*
X168802423Y-87888480D01*
X167571580Y-88388362D02*
X168302186Y-88388362D01*
X167571580Y-88888245D02*
X167571580Y-88388362D01*
X167071698Y-89388482D02*
X167287560Y-89338844D01*
X167287560Y-89338844D02*
X167456795Y-89205691D01*
X167456795Y-89205691D02*
X167555720Y-89012658D01*
X167555720Y-89012658D02*
X167571580Y-88888245D01*
X154071512Y-89388482D02*
X167071698Y-89388482D01*
X153571630Y-88888245D02*
X153621261Y-89104330D01*
X153621261Y-89104330D02*
X153754361Y-89273668D01*
X153754361Y-89273668D02*
X153947243Y-89372621D01*
X153947243Y-89372621D02*
X154071512Y-89388482D01*
X153571630Y-88388362D02*
X153571630Y-88888245D01*
X146140384Y-88388362D02*
X153571630Y-88388362D01*
X146140384Y-88888245D02*
X146140384Y-88388362D01*
X145640501Y-89388482D02*
X145856363Y-89338844D01*
X145856363Y-89338844D02*
X146025599Y-89205691D01*
X146025599Y-89205691D02*
X146124524Y-89012658D01*
X146124524Y-89012658D02*
X146140384Y-88888245D01*
X130259071Y-89388482D02*
X145640501Y-89388482D01*
X129759189Y-88888245D02*
X129808820Y-89104330D01*
X129808820Y-89104330D02*
X129941921Y-89273668D01*
X129941921Y-89273668D02*
X130134802Y-89372621D01*
X130134802Y-89372621D02*
X130259071Y-89388482D01*
X129759189Y-88388362D02*
X129759189Y-88888245D01*
X121820998Y-88388362D02*
X129759189Y-88388362D01*
X121321116Y-87888480D02*
X121370747Y-88104337D01*
X121370747Y-88104337D02*
X121503848Y-88273574D01*
X121503848Y-88273574D02*
X121696729Y-88372502D01*
X121696729Y-88372502D02*
X121820998Y-88388362D01*
X121321116Y-73888525D02*
X121321116Y-87888480D01*
X121820998Y-73388287D02*
X121605140Y-73437925D01*
X121605140Y-73437925D02*
X121435903Y-73571080D01*
X121435903Y-73571080D02*
X121336975Y-73764112D01*
X121336975Y-73764112D02*
X121321116Y-73888525D01*
X130202281Y-73388287D02*
X121820998Y-73388287D01*
X130702519Y-73888525D02*
X130652879Y-73672441D01*
X130652879Y-73672441D02*
X130519723Y-73503102D01*
X130519723Y-73503102D02*
X130326691Y-73404147D01*
X130326691Y-73404147D02*
X130202281Y-73388287D01*
X130702519Y-75388176D02*
X130702519Y-73888525D01*
X145197054Y-75388176D02*
X130702519Y-75388176D01*
X207071310Y-73888525D02*
X207071310Y-75388176D01*
X207571547Y-73388287D02*
X207355461Y-73437925D01*
X207355461Y-73437925D02*
X207186123Y-73571080D01*
X207186123Y-73571080D02*
X207087170Y-73764112D01*
X207087170Y-73764112D02*
X207071310Y-73888525D01*
X213571564Y-73388287D02*
X207571547Y-73388287D01*
X214071446Y-73888525D02*
X214021818Y-73672441D01*
X214021818Y-73672441D02*
X213888722Y-73503102D01*
X213888722Y-73503102D02*
X213695839Y-73404147D01*
X213695839Y-73404147D02*
X213571564Y-73388287D01*
X214071446Y-75388176D02*
X214071446Y-73888525D01*
X214696579Y-75388176D02*
X214071446Y-75388176D01*
X215196461Y-75888414D02*
X215146829Y-75672330D01*
X215146829Y-75672330D02*
X215013728Y-75502991D01*
X215013728Y-75502991D02*
X214820847Y-75404036D01*
X214820847Y-75404036D02*
X214696579Y-75388176D01*
X215196461Y-88888245D02*
X215196461Y-75888414D01*
X214696579Y-89388482D02*
X214912436Y-89338844D01*
X214912436Y-89338844D02*
X215081673Y-89205691D01*
X215081673Y-89205691D02*
X215180601Y-89012658D01*
X215180601Y-89012658D02*
X215196461Y-88888245D01*
X201696393Y-89388482D02*
X214696579Y-89388482D01*
X201196511Y-88888245D02*
X201246142Y-89104330D01*
X201246142Y-89104330D02*
X201379242Y-89273668D01*
X201379242Y-89273668D02*
X201572124Y-89372621D01*
X201572124Y-89372621D02*
X201696393Y-89388482D01*
X201196511Y-75888414D02*
X201196511Y-88888245D01*
X201696393Y-75388176D02*
X201480535Y-75437814D01*
X201480535Y-75437814D02*
X201311298Y-75570969D01*
X201311298Y-75570969D02*
X201212370Y-75764001D01*
X201212370Y-75764001D02*
X201196511Y-75888414D01*
X207071310Y-75388176D02*
X201696393Y-75388176D01*
X317090073Y-89388482D02*
X317305930Y-89338844D01*
X317305930Y-89338844D02*
X317475167Y-89205691D01*
X317475167Y-89205691D02*
X317574095Y-89012658D01*
X317574095Y-89012658D02*
X317589955Y-88888245D01*
X304089887Y-89388482D02*
X317090073Y-89388482D01*
X303590005Y-88888245D02*
X303639636Y-89104330D01*
X303639636Y-89104330D02*
X303772736Y-89273668D01*
X303772736Y-89273668D02*
X303965618Y-89372621D01*
X303965618Y-89372621D02*
X304089887Y-89388482D01*
X303590005Y-75888414D02*
X303590005Y-88888245D01*
X304089887Y-75388176D02*
X303874029Y-75437814D01*
X303874029Y-75437814D02*
X303704792Y-75570969D01*
X303704792Y-75570969D02*
X303605864Y-75764001D01*
X303605864Y-75764001D02*
X303590005Y-75888414D01*
X317090073Y-75388176D02*
X304089887Y-75388176D01*
X317589955Y-75888414D02*
X317540323Y-75672330D01*
X317540323Y-75672330D02*
X317407222Y-75502991D01*
X317407222Y-75502991D02*
X317214341Y-75404036D01*
X317214341Y-75404036D02*
X317090073Y-75388176D01*
X317589955Y-88888245D02*
X317589955Y-75888414D01*
X259940216Y-89388482D02*
X260156073Y-89338844D01*
X260156073Y-89338844D02*
X260325310Y-89205691D01*
X260325310Y-89205691D02*
X260424238Y-89012658D01*
X260424238Y-89012658D02*
X260440098Y-88888245D01*
X246940030Y-89388482D02*
X259940216Y-89388482D01*
X246440148Y-88888245D02*
X246489779Y-89104330D01*
X246489779Y-89104330D02*
X246622879Y-89273668D01*
X246622879Y-89273668D02*
X246815761Y-89372621D01*
X246815761Y-89372621D02*
X246940030Y-89388482D01*
X246440148Y-75888414D02*
X246440148Y-88888245D01*
X246940030Y-75388176D02*
X246724172Y-75437814D01*
X246724172Y-75437814D02*
X246554935Y-75570969D01*
X246554935Y-75570969D02*
X246456007Y-75764001D01*
X246456007Y-75764001D02*
X246440148Y-75888414D01*
X259940216Y-75388176D02*
X246940030Y-75388176D01*
X260440098Y-75888414D02*
X260390466Y-75672330D01*
X260390466Y-75672330D02*
X260257365Y-75502991D01*
X260257365Y-75502991D02*
X260064484Y-75404036D01*
X260064484Y-75404036D02*
X259940216Y-75388176D01*
X260440098Y-88888245D02*
X260440098Y-75888414D01*
X278990168Y-89388482D02*
X279206025Y-89338844D01*
X279206025Y-89338844D02*
X279375262Y-89205691D01*
X279375262Y-89205691D02*
X279474190Y-89012658D01*
X279474190Y-89012658D02*
X279490050Y-88888245D01*
X265989982Y-89388482D02*
X278990168Y-89388482D01*
X265490100Y-88888245D02*
X265539731Y-89104330D01*
X265539731Y-89104330D02*
X265672831Y-89273668D01*
X265672831Y-89273668D02*
X265865713Y-89372621D01*
X265865713Y-89372621D02*
X265989982Y-89388482D01*
X265490100Y-75888414D02*
X265490100Y-88888245D01*
X265989982Y-75388176D02*
X265774124Y-75437814D01*
X265774124Y-75437814D02*
X265604887Y-75570969D01*
X265604887Y-75570969D02*
X265505959Y-75764001D01*
X265505959Y-75764001D02*
X265490100Y-75888414D01*
X278990168Y-75388176D02*
X265989982Y-75388176D01*
X279490050Y-75888414D02*
X279440418Y-75672330D01*
X279440418Y-75672330D02*
X279307318Y-75502991D01*
X279307318Y-75502991D02*
X279114436Y-75404036D01*
X279114436Y-75404036D02*
X278990168Y-75388176D01*
X279490050Y-88888245D02*
X279490050Y-75888414D01*
X53271866Y-75888414D02*
X53222235Y-75672330D01*
X53222235Y-75672330D02*
X53089135Y-75502991D01*
X53089135Y-75502991D02*
X52896252Y-75404036D01*
X52896252Y-75404036D02*
X52771981Y-75388176D01*
X53271866Y-88888245D02*
X53271866Y-75888414D01*
X52771981Y-89388482D02*
X52987842Y-89338844D01*
X52987842Y-89338844D02*
X53157079Y-89205691D01*
X53157079Y-89205691D02*
X53256006Y-89012658D01*
X53256006Y-89012658D02*
X53271866Y-88888245D01*
X37390556Y-89388482D02*
X52771981Y-89388482D01*
X36890671Y-88888245D02*
X36940301Y-89104330D01*
X36940301Y-89104330D02*
X37073401Y-89273668D01*
X37073401Y-89273668D02*
X37266284Y-89372621D01*
X37266284Y-89372621D02*
X37390556Y-89388482D01*
X36890671Y-75888414D02*
X36890671Y-88888245D01*
X37390556Y-75388176D02*
X37174694Y-75437814D01*
X37174694Y-75437814D02*
X37005457Y-75570969D01*
X37005457Y-75570969D02*
X36906530Y-75764001D01*
X36906530Y-75764001D02*
X36890671Y-75888414D01*
X52771981Y-75388176D02*
X37390556Y-75388176D01*
X36386554Y3163241D02*
X36543539Y3170297D01*
X36230626Y3145250D02*
X36386554Y3163241D01*
X36076463Y3114205D02*
X36230626Y3145250D01*
X35924769Y3072225D02*
X36076463Y3114205D01*
X35777661Y3017192D02*
X35924769Y3072225D01*
X35635492Y2952281D02*
X35777661Y3017192D01*
X35498614Y2875023D02*
X35635492Y2952281D01*
X35367734Y2788240D02*
X35498614Y2875023D01*
X35244614Y2690168D02*
X35367734Y2788240D01*
X35128551Y2583982D02*
X35244614Y2690168D01*
X35022718Y2468271D02*
X35128551Y2583982D01*
X34924646Y2345152D02*
X35022718Y2468271D01*
X34837510Y2214272D02*
X34924646Y2345152D01*
X34760605Y2077041D02*
X34837510Y2214272D01*
X34695694Y1935225D02*
X34760605Y2077041D01*
X34640661Y1788117D02*
X34695694Y1935225D01*
X34598680Y1636070D02*
X34640661Y1788117D01*
X34567636Y1482260D02*
X34598680Y1636070D01*
X34549644Y1325979D02*
X34567636Y1482260D01*
X34543647Y1168994D02*
X34549644Y1325979D01*
X34542589Y-50493774D02*
X34542592Y-49875717D01*
X34542592Y-49875717D02*
X34542600Y-49033516D01*
X34542600Y-49033516D02*
X34542615Y-47983158D01*
X34542615Y-47983158D02*
X34542634Y-46740628D01*
X34542634Y-46740628D02*
X34542658Y-45321913D01*
X34542658Y-45321913D02*
X34542686Y-43742997D01*
X34542686Y-43742997D02*
X34542718Y-42019868D01*
X34542718Y-42019868D02*
X34542754Y-40168511D01*
X34542754Y-40168511D02*
X34542792Y-38204912D01*
X34542792Y-38204912D02*
X34542834Y-36145057D01*
X34542834Y-36145057D02*
X34542878Y-34004932D01*
X34542878Y-34004932D02*
X34542923Y-31800523D01*
X34542923Y-31800523D02*
X34542970Y-29547816D01*
X34542970Y-29547816D02*
X34543019Y-27262796D01*
X34543019Y-27262796D02*
X34543068Y-24961450D01*
X34543068Y-24961450D02*
X34543118Y-22659763D01*
X34543118Y-22659763D02*
X34543167Y-20373722D01*
X34543167Y-20373722D02*
X34543216Y-18119313D01*
X34543216Y-18119313D02*
X34543265Y-15912520D01*
X34543265Y-15912520D02*
X34543312Y-13769332D01*
X34543312Y-13769332D02*
X34543357Y-11705732D01*
X34543357Y-11705732D02*
X34543401Y-9737708D01*
X34543401Y-9737708D02*
X34543443Y-7881244D01*
X34543443Y-7881244D02*
X34543481Y-6152328D01*
X34543481Y-6152328D02*
X34543517Y-4566945D01*
X34543517Y-4566945D02*
X34543549Y-3141081D01*
X34543549Y-3141081D02*
X34543577Y-1890721D01*
X34543577Y-1890721D02*
X34543601Y-831853D01*
X34543601Y-831853D02*
X34543620Y19538D01*
X34543620Y19538D02*
X34543635Y647467D01*
X34543635Y647467D02*
X34543643Y1035948D01*
X34543643Y1035948D02*
X34543647Y1168994D01*
X34688991Y-50847256D02*
X34576074Y-50673747D01*
X34576074Y-50673747D02*
X34542589Y-50493774D01*
X35042473Y-50993656D02*
X34840100Y-50950844D01*
X34840100Y-50950844D02*
X34688991Y-50847256D01*
X38044605Y-50993656D02*
X35042473Y-50993656D01*
X38816480Y-51115720D02*
X38044605Y-50993656D01*
X39512510Y-51470612D02*
X38816480Y-51115720D01*
X40065663Y-52023764D02*
X39512510Y-51470612D01*
X40420557Y-52720851D02*
X40065663Y-52023764D01*
X40543676Y-53493788D02*
X40420557Y-52720851D01*
X40420557Y-54266720D02*
X40543676Y-53493788D01*
X40065663Y-54962752D02*
X40420557Y-54266720D01*
X39512510Y-55516609D02*
X40065663Y-54962752D01*
X38816480Y-55871856D02*
X39512510Y-55516609D01*
X38043546Y-55993565D02*
X38816480Y-55871856D01*
X35042473Y-55993565D02*
X35340176Y-55993565D01*
X35340176Y-55993565D02*
X35562301Y-55993565D01*
X35562301Y-55993565D02*
X35798055Y-55993565D01*
X35798055Y-55993565D02*
X36042899Y-55993565D01*
X36042899Y-55993565D02*
X36292291Y-55993565D01*
X36292291Y-55993565D02*
X36541694Y-55993565D01*
X36541694Y-55993565D02*
X36786566Y-55993565D01*
X36786566Y-55993565D02*
X37022368Y-55993565D01*
X37022368Y-55993565D02*
X37244560Y-55993565D01*
X37244560Y-55993565D02*
X37448603Y-55993565D01*
X37448603Y-55993565D02*
X37710706Y-55993565D01*
X37710706Y-55993565D02*
X37954283Y-55993565D01*
X37954283Y-55993565D02*
X38043546Y-55993565D01*
X34542589Y-56493802D02*
X34591918Y-56276949D01*
X34591918Y-56276949D02*
X34724586Y-56107810D01*
X34724586Y-56107810D02*
X34917613Y-56009316D01*
X34917613Y-56009316D02*
X35042473Y-55993565D01*
X34542589Y-89757483D02*
X34542589Y-56493802D01*
X34549644Y-89912706D02*
X34542589Y-89757483D01*
X34567636Y-90068639D02*
X34549644Y-89912706D01*
X34598680Y-90222796D02*
X34567636Y-90068639D01*
X34640661Y-90374498D02*
X34598680Y-90222796D01*
X34695694Y-90522658D02*
X34640661Y-90374498D01*
X34760605Y-90663767D02*
X34695694Y-90522658D01*
X34837510Y-90800645D02*
X34760605Y-90663767D01*
X34924646Y-90931526D02*
X34837510Y-90800645D01*
X35022718Y-91055710D02*
X34924646Y-90931526D01*
X35128551Y-91171767D02*
X35022718Y-91055710D01*
X35244614Y-91276540D02*
X35128551Y-91171767D01*
X35367734Y-91374618D02*
X35244614Y-91276540D01*
X35498614Y-91461757D02*
X35367734Y-91374618D01*
X35635492Y-91538658D02*
X35498614Y-91461757D01*
X35777661Y-91603565D02*
X35635492Y-91538658D01*
X35924769Y-91659655D02*
X35777661Y-91603565D01*
X36076463Y-91701642D02*
X35924769Y-91659655D01*
X36230626Y-91731626D02*
X36076463Y-91701642D01*
X36386554Y-91749615D02*
X36230626Y-91731626D01*
X36543539Y-91757733D02*
X36386554Y-91749615D01*
X317918035Y-91755612D02*
X36543539Y-91757733D01*
X318073968Y-91749615D02*
X317918035Y-91755612D01*
X318229901Y-91731626D02*
X318073968Y-91749615D01*
X318384047Y-91701642D02*
X318229901Y-91731626D01*
X318536815Y-91659655D02*
X318384047Y-91701642D01*
X318682866Y-91603565D02*
X318536815Y-91659655D01*
X318825019Y-91538658D02*
X318682866Y-91603565D01*
X318961896Y-91461757D02*
X318825019Y-91538658D01*
X319092788Y-91374618D02*
X318961896Y-91461757D01*
X319215907Y-91276540D02*
X319092788Y-91374618D01*
X319331963Y-91171767D02*
X319215907Y-91276540D01*
X319437792Y-91055710D02*
X319331963Y-91171767D01*
X319536924Y-90931526D02*
X319437792Y-91055710D01*
X319623008Y-90800645D02*
X319536924Y-90931526D01*
X319699920Y-90663767D02*
X319623008Y-90800645D01*
X319764817Y-90522658D02*
X319699920Y-90663767D01*
X319819852Y-90374498D02*
X319764817Y-90522658D01*
X319861839Y-90222796D02*
X319819852Y-90374498D01*
X319892888Y-90068639D02*
X319861839Y-90222796D01*
X319911943Y-89912706D02*
X319892888Y-90068639D01*
X319917929Y-89757483D02*
X319911943Y-89912706D01*
X319917929Y-56493802D02*
X319917929Y-56957645D01*
X319917929Y-56957645D02*
X319917929Y-57557440D01*
X319917929Y-57557440D02*
X319917929Y-58283305D01*
X319917929Y-58283305D02*
X319917929Y-59125359D01*
X319917929Y-59125359D02*
X319917929Y-60073721D01*
X319917929Y-60073721D02*
X319917929Y-61118508D01*
X319917929Y-61118508D02*
X319917929Y-62249840D01*
X319917929Y-62249840D02*
X319917929Y-63457836D01*
X319917929Y-63457836D02*
X319917929Y-64732615D01*
X319917929Y-64732615D02*
X319917929Y-66064294D01*
X319917929Y-66064294D02*
X319917929Y-67442993D01*
X319917929Y-67442993D02*
X319917929Y-68858830D01*
X319917929Y-68858830D02*
X319917929Y-70301925D01*
X319917929Y-70301925D02*
X319917929Y-71762396D01*
X319917929Y-71762396D02*
X319917929Y-73230361D01*
X319917929Y-73230361D02*
X319917929Y-74695940D01*
X319917929Y-74695940D02*
X319917929Y-76149250D01*
X319917929Y-76149250D02*
X319917929Y-77580411D01*
X319917929Y-77580411D02*
X319917929Y-78979542D01*
X319917929Y-78979542D02*
X319917929Y-80336761D01*
X319917929Y-80336761D02*
X319917929Y-81642187D01*
X319917929Y-81642187D02*
X319917929Y-82885939D01*
X319917929Y-82885939D02*
X319917929Y-84058135D01*
X319917929Y-84058135D02*
X319917929Y-85148894D01*
X319917929Y-85148894D02*
X319917929Y-86148335D01*
X319917929Y-86148335D02*
X319917929Y-87046576D01*
X319917929Y-87046576D02*
X319917929Y-87833737D01*
X319917929Y-87833737D02*
X319917929Y-88499935D01*
X319917929Y-88499935D02*
X319917929Y-89035290D01*
X319917929Y-89035290D02*
X319917929Y-89429921D01*
X319917929Y-89429921D02*
X319917929Y-89673945D01*
X319917929Y-89673945D02*
X319917929Y-89757483D01*
X319418047Y-55993565D02*
X319634674Y-56042901D01*
X319634674Y-56042901D02*
X319803711Y-56175624D01*
X319803711Y-56175624D02*
X319902178Y-56368800D01*
X319902178Y-56368800D02*
X319917929Y-56493802D01*
X318089837Y-55993565D02*
X318324465Y-55993565D01*
X318324465Y-55993565D02*
X318535739Y-55993565D01*
X318535739Y-55993565D02*
X318753942Y-55993565D01*
X318753942Y-55993565D02*
X318972144Y-55993565D01*
X318972144Y-55993565D02*
X319183418Y-55993565D01*
X319183418Y-55993565D02*
X319418047Y-55993565D01*
X317589955Y-56493802D02*
X317639226Y-56276949D01*
X317639226Y-56276949D02*
X317771810Y-56107810D01*
X317771810Y-56107810D02*
X317964864Y-56009316D01*
X317964864Y-56009316D02*
X318089837Y-55993565D01*
X317589955Y-69838292D02*
X317589955Y-56493802D01*
X317090073Y-70338530D02*
X317305930Y-70288891D01*
X317305930Y-70288891D02*
X317475167Y-70155736D01*
X317475167Y-70155736D02*
X317574095Y-69962704D01*
X317574095Y-69962704D02*
X317589955Y-69838292D01*
X265989982Y-70338530D02*
X317090073Y-70338530D01*
X265490100Y-69838292D02*
X265539731Y-70054375D01*
X265539731Y-70054375D02*
X265672831Y-70223714D01*
X265672831Y-70223714D02*
X265865713Y-70322669D01*
X265865713Y-70322669D02*
X265989982Y-70338530D01*
X265490100Y-56838461D02*
X265490100Y-69838292D01*
X265989982Y-56338224D02*
X265774124Y-56387862D01*
X265774124Y-56387862D02*
X265604887Y-56521016D01*
X265604887Y-56521016D02*
X265505959Y-56714049D01*
X265505959Y-56714049D02*
X265490100Y-56838461D01*
X314039965Y-56338224D02*
X265989982Y-56338224D01*
X314039965Y-51288577D02*
X314039965Y-56338224D01*
X285039934Y-51288577D02*
X314039965Y-51288577D01*
X284540052Y-50788340D02*
X284589683Y-51004423D01*
X284589683Y-51004423D02*
X284722784Y-51173761D01*
X284722784Y-51173761D02*
X284915665Y-51272716D01*
X284915665Y-51272716D02*
X285039934Y-51288577D01*
X284540052Y-50288458D02*
X284540052Y-50788340D01*
X283809091Y-50288458D02*
X284540052Y-50288458D01*
X283309209Y-49788570D02*
X283358840Y-50004433D01*
X283358840Y-50004433D02*
X283491940Y-50173671D01*
X283491940Y-50173671D02*
X283684822Y-50272598D01*
X283684822Y-50272598D02*
X283809091Y-50288458D01*
X283309209Y-35788620D02*
X283309209Y-49788570D01*
X283809091Y-35288383D02*
X283593233Y-35338021D01*
X283593233Y-35338021D02*
X283423996Y-35471175D01*
X283423996Y-35471175D02*
X283325068Y-35664208D01*
X283325068Y-35664208D02*
X283309209Y-35788620D01*
X289809119Y-35288383D02*
X283809091Y-35288383D01*
X290309367Y-35788620D02*
X290259727Y-35572536D01*
X290259727Y-35572536D02*
X290126570Y-35403198D01*
X290126570Y-35403198D02*
X289933533Y-35304243D01*
X289933533Y-35304243D02*
X289809119Y-35288383D01*
X290309367Y-37288272D02*
X290309367Y-35788620D01*
X315208711Y-37288272D02*
X290309367Y-37288272D01*
X315208711Y-35210771D02*
X315208711Y-37288272D01*
X317971304Y-35210771D02*
X315208711Y-35210771D01*
X317971304Y-46038550D02*
X317971304Y-35210771D01*
X317589955Y-46038550D02*
X317971304Y-46038550D01*
X317589955Y-50993656D02*
X317589955Y-46038550D01*
X319917929Y-50993656D02*
X317589955Y-50993656D01*
X319917929Y-13832845D02*
X319917929Y-14159940D01*
X319917929Y-14159940D02*
X319917929Y-14663175D01*
X319917929Y-14663175D02*
X319917929Y-15330315D01*
X319917929Y-15330315D02*
X319917929Y-16149130D01*
X319917929Y-16149130D02*
X319917929Y-17107387D01*
X319917929Y-17107387D02*
X319917929Y-18192855D01*
X319917929Y-18192855D02*
X319917929Y-19393301D01*
X319917929Y-19393301D02*
X319917929Y-20696493D01*
X319917929Y-20696493D02*
X319917929Y-22090199D01*
X319917929Y-22090199D02*
X319917929Y-23562187D01*
X319917929Y-23562187D02*
X319917929Y-25100225D01*
X319917929Y-25100225D02*
X319917929Y-26692082D01*
X319917929Y-26692082D02*
X319917929Y-28325524D01*
X319917929Y-28325524D02*
X319917929Y-29988321D01*
X319917929Y-29988321D02*
X319917929Y-31668239D01*
X319917929Y-31668239D02*
X319917929Y-33353047D01*
X319917929Y-33353047D02*
X319917929Y-35030513D01*
X319917929Y-35030513D02*
X319917929Y-36688405D01*
X319917929Y-36688405D02*
X319917929Y-38314490D01*
X319917929Y-38314490D02*
X319917929Y-39896537D01*
X319917929Y-39896537D02*
X319917929Y-41422314D01*
X319917929Y-41422314D02*
X319917929Y-42879589D01*
X319917929Y-42879589D02*
X319917929Y-44256129D01*
X319917929Y-44256129D02*
X319917929Y-45539703D01*
X319917929Y-45539703D02*
X319917929Y-46718078D01*
X319917929Y-46718078D02*
X319917929Y-47779023D01*
X319917929Y-47779023D02*
X319917929Y-48710305D01*
X319917929Y-48710305D02*
X319917929Y-49499692D01*
X319917929Y-49499692D02*
X319917929Y-50134953D01*
X319917929Y-50134953D02*
X319917929Y-50603855D01*
X319917929Y-50603855D02*
X319917929Y-50894167D01*
X319917929Y-50894167D02*
X319917929Y-50993656D01*
X319779286Y-13656456D02*
X319916449Y-13809643D01*
X319916449Y-13809643D02*
X319917929Y-13832845D01*
X319777176Y-13655750D02*
X319779286Y-13656456D01*
X319110767Y-12801324D02*
X319137384Y-13022369D01*
X319137384Y-13022369D02*
X319216518Y-13224435D01*
X319216518Y-13224435D02*
X319341750Y-13399330D01*
X319341750Y-13399330D02*
X319506662Y-13538864D01*
X319506662Y-13538864D02*
X319704836Y-13634848D01*
X319704836Y-13634848D02*
X319777176Y-13655750D01*
X319790224Y-11956777D02*
X319581074Y-12033284D01*
X319581074Y-12033284D02*
X319402448Y-12156589D01*
X319402448Y-12156589D02*
X319260832Y-12318571D01*
X319260832Y-12318571D02*
X319162714Y-12511109D01*
X319162714Y-12511109D02*
X319114582Y-12726083D01*
X319114582Y-12726083D02*
X319110767Y-12801324D01*
X319803639Y-11953601D02*
X319790224Y-11956777D01*
X319917929Y-11810727D02*
X319803639Y-11953601D01*
X319917929Y-833368D02*
X319917929Y-1134044D01*
X319917929Y-1134044D02*
X319917929Y-1343901D01*
X319917929Y-1343901D02*
X319917929Y-1589736D01*
X319917929Y-1589736D02*
X319917929Y-1868773D01*
X319917929Y-1868773D02*
X319917929Y-2178236D01*
X319917929Y-2178236D02*
X319917929Y-2515351D01*
X319917929Y-2515351D02*
X319917929Y-2877340D01*
X319917929Y-2877340D02*
X319917929Y-3261429D01*
X319917929Y-3261429D02*
X319917929Y-3664842D01*
X319917929Y-3664842D02*
X319917929Y-4084802D01*
X319917929Y-4084802D02*
X319917929Y-4518535D01*
X319917929Y-4518535D02*
X319917929Y-4963264D01*
X319917929Y-4963264D02*
X319917929Y-5416214D01*
X319917929Y-5416214D02*
X319917929Y-5874608D01*
X319917929Y-5874608D02*
X319917929Y-6335673D01*
X319917929Y-6335673D02*
X319917929Y-6796630D01*
X319917929Y-6796630D02*
X319917929Y-7254706D01*
X319917929Y-7254706D02*
X319917929Y-7707123D01*
X319917929Y-7707123D02*
X319917929Y-8151107D01*
X319917929Y-8151107D02*
X319917929Y-8583882D01*
X319917929Y-8583882D02*
X319917929Y-9002671D01*
X319917929Y-9002671D02*
X319917929Y-9404700D01*
X319917929Y-9404700D02*
X319917929Y-9787192D01*
X319917929Y-9787192D02*
X319917929Y-10147372D01*
X319917929Y-10147372D02*
X319917929Y-10482464D01*
X319917929Y-10482464D02*
X319917929Y-10789692D01*
X319917929Y-10789692D02*
X319917929Y-11066281D01*
X319917929Y-11066281D02*
X319917929Y-11309454D01*
X319917929Y-11309454D02*
X319917929Y-11516437D01*
X319917929Y-11516437D02*
X319917929Y-11810727D01*
X319796576Y-677088D02*
X319917929Y-833368D01*
X319794466Y-676382D02*
X319796576Y-677088D01*
X319230010Y38696D02*
X319264550Y-175299D01*
X319264550Y-175299D02*
X319355826Y-365904D01*
X319355826Y-365904D02*
X319495750Y-522793D01*
X319495750Y-522793D02*
X319676234Y-635643D01*
X319676234Y-635643D02*
X319794466Y-676382D01*
X319773300Y770003D02*
X319575702Y680969D01*
X319575702Y680969D02*
X319415503Y543150D01*
X319415503Y543150D02*
X319300524Y367115D01*
X319300524Y367115D02*
X319238583Y163432D01*
X319238583Y163432D02*
X319230010Y38696D01*
X319775410Y770709D02*
X319773300Y770003D01*
X319917929Y959797D02*
X319812899Y785692D01*
X319812899Y785692D02*
X319775410Y770709D01*
X319917929Y1168994D02*
X319917929Y959797D01*
X319911943Y1325979D02*
X319917929Y1168994D01*
X319892888Y1482260D02*
X319911943Y1325979D01*
X319861839Y1636070D02*
X319892888Y1482260D01*
X319819852Y1788117D02*
X319861839Y1636070D01*
X319764817Y1935225D02*
X319819852Y1788117D01*
X319699920Y2077041D02*
X319764817Y1935225D01*
X319623008Y2214272D02*
X319699920Y2077041D01*
X319536924Y2345152D02*
X319623008Y2214272D01*
X319437792Y2468271D02*
X319536924Y2345152D01*
X319331963Y2583982D02*
X319437792Y2468271D01*
X319215907Y2690168D02*
X319331963Y2583982D01*
X319092788Y2788240D02*
X319215907Y2690168D01*
X318961896Y2875023D02*
X319092788Y2788240D01*
X318825019Y2952281D02*
X318961896Y2875023D01*
X318682866Y3017192D02*
X318825019Y2952281D01*
X299164058Y3169239D02*
X299635880Y3169239D01*
X299635880Y3169239D02*
X299993766Y3169239D01*
X299993766Y3169239D02*
X300424973Y3169239D01*
X300424973Y3169239D02*
X300923502Y3169239D01*
X300923502Y3169239D02*
X301483357Y3169239D01*
X301483357Y3169239D02*
X302098541Y3169239D01*
X302098541Y3169239D02*
X302763056Y3169239D01*
X302763056Y3169239D02*
X303470905Y3169239D01*
X303470905Y3169239D02*
X304216091Y3169239D01*
X304216091Y3169239D02*
X304992617Y3169239D01*
X304992617Y3169239D02*
X305794485Y3169239D01*
X305794485Y3169239D02*
X306615698Y3169239D01*
X306615698Y3169239D02*
X307450259Y3169239D01*
X307450259Y3169239D02*
X308292171Y3169239D01*
X308292171Y3169239D02*
X309135437Y3169239D01*
X309135437Y3169239D02*
X309974059Y3169239D01*
X309974059Y3169239D02*
X310802040Y3169239D01*
X310802040Y3169239D02*
X311613382Y3169239D01*
X311613382Y3169239D02*
X312402090Y3169239D01*
X312402090Y3169239D02*
X313162165Y3169239D01*
X313162165Y3169239D02*
X313887610Y3169239D01*
X313887610Y3169239D02*
X314572428Y3169239D01*
X314572428Y3169239D02*
X315210622Y3169239D01*
X315210622Y3169239D02*
X315796195Y3169239D01*
X315796195Y3169239D02*
X316323148Y3169239D01*
X316323148Y3169239D02*
X316785486Y3169239D01*
X316785486Y3169239D02*
X317177211Y3169239D01*
X317177211Y3169239D02*
X317492325Y3169239D01*
X317492325Y3169239D02*
X317724832Y3169239D01*
X317724832Y3169239D02*
X317918035Y3169239D01*
X299017664Y3055997D02*
X299164058Y3169239D01*
X318536815Y3072225D02*
X318682866Y3017192D01*
X318384047Y3114205D02*
X318536815Y3072225D01*
X318229901Y3145250D02*
X318384047Y3114205D01*
X318073968Y3163241D02*
X318229901Y3145250D01*
X317918035Y3169239D02*
X318073968Y3163241D01*
X284032053Y3169239D02*
X284177758Y3056703D01*
X36543539Y3170297D02*
X58494065Y3170200D01*
X58494065Y3170200D02*
X79107573Y3170110D01*
X79107573Y3170110D02*
X98426045Y3170026D01*
X98426045Y3170026D02*
X116491463Y3169947D01*
X116491463Y3169947D02*
X133345811Y3169874D01*
X133345811Y3169874D02*
X149031070Y3169806D01*
X149031070Y3169806D02*
X163589223Y3169743D01*
X163589223Y3169743D02*
X177062251Y3169685D01*
X177062251Y3169685D02*
X189492139Y3169631D01*
X189492139Y3169631D02*
X200920867Y3169582D01*
X200920867Y3169582D02*
X211390419Y3169538D01*
X211390419Y3169538D02*
X220942777Y3169497D01*
X220942777Y3169497D02*
X229619923Y3169460D01*
X229619923Y3169460D02*
X237463839Y3169427D01*
X237463839Y3169427D02*
X244516508Y3169397D01*
X244516508Y3169397D02*
X250819913Y3169371D01*
X250819913Y3169371D02*
X256416036Y3169347D01*
X256416036Y3169347D02*
X261346859Y3169327D01*
X261346859Y3169327D02*
X265654365Y3169309D01*
X265654365Y3169309D02*
X269380535Y3169294D01*
X269380535Y3169294D02*
X272567353Y3169281D01*
X272567353Y3169281D02*
X275256801Y3169271D01*
X275256801Y3169271D02*
X277490862Y3169262D01*
X277490862Y3169262D02*
X279311516Y3169255D01*
X279311516Y3169255D02*
X280760748Y3169250D01*
X280760748Y3169250D02*
X281880540Y3169245D01*
X281880540Y3169245D02*
X282712873Y3169243D01*
X282712873Y3169243D02*
X283299731Y3169241D01*
X283299731Y3169241D02*
X283683095Y3169239D01*
X283683095Y3169239D02*
X283904949Y3169239D01*
X283904949Y3169239D02*
X284032053Y3169239D01*
X297327160Y3047531D02*
X297407051Y2843784D01*
X297407051Y2843784D02*
X297531593Y2670394D01*
X297531593Y2670394D02*
X297692970Y2533458D01*
X297692970Y2533458D02*
X297883371Y2439073D01*
X297883371Y2439073D02*
X298094981Y2393336D01*
X298094981Y2393336D02*
X298168881Y2389955D01*
X297326449Y3050353D02*
X297327160Y3047531D01*
X284177758Y3056703D02*
X284178813Y3051764D01*
X297161709Y3178411D02*
X297324521Y3057363D01*
X297324521Y3057363D02*
X297326449Y3050353D01*
X286052768Y3169239D02*
X286352323Y3169508D01*
X286352323Y3169508D02*
X286562296Y3169693D01*
X286562296Y3169693D02*
X286808679Y3169907D01*
X286808679Y3169907D02*
X287088682Y3170150D01*
X287088682Y3170150D02*
X287399515Y3170417D01*
X287399515Y3170417D02*
X287738388Y3170708D01*
X287738388Y3170708D02*
X288102509Y3171019D01*
X288102509Y3171019D02*
X288489090Y3171348D01*
X288489090Y3171348D02*
X288895340Y3171692D01*
X288895340Y3171692D02*
X289318469Y3172050D01*
X289318469Y3172050D02*
X289755686Y3172419D01*
X289755686Y3172419D02*
X290204202Y3172797D01*
X290204202Y3172797D02*
X290661225Y3173180D01*
X290661225Y3173180D02*
X291123967Y3173568D01*
X291123967Y3173568D02*
X291589636Y3173957D01*
X291589636Y3173957D02*
X292055443Y3174344D01*
X292055443Y3174344D02*
X292518597Y3174728D01*
X292518597Y3174728D02*
X292976308Y3175107D01*
X292976308Y3175107D02*
X293425786Y3175477D01*
X293425786Y3175477D02*
X293864241Y3175837D01*
X293864241Y3175837D02*
X294288882Y3176183D01*
X294288882Y3176183D02*
X294696920Y3176515D01*
X294696920Y3176515D02*
X295085563Y3176828D01*
X295085563Y3176828D02*
X295452023Y3177122D01*
X295452023Y3177122D02*
X295793508Y3177393D01*
X295793508Y3177393D02*
X296107229Y3177638D01*
X296107229Y3177638D02*
X296390395Y3177857D01*
X296390395Y3177857D02*
X296640216Y3178046D01*
X296640216Y3178046D02*
X296853902Y3178203D01*
X296853902Y3178203D02*
X297161709Y3178411D01*
X285038879Y2385016D02*
X285259999Y2412666D01*
X285259999Y2412666D02*
X285462435Y2491923D01*
X285462435Y2491923D02*
X285638221Y2616647D01*
X285638221Y2616647D02*
X285779390Y2780699D01*
X285779390Y2780699D02*
X285877977Y2977939D01*
X285877977Y2977939D02*
X285900000Y3050000D01*
X285900366Y3051411D02*
X286052768Y3169239D01*
X299014499Y3042592D02*
X299017664Y3055997D01*
X298168881Y2389955D02*
X298386129Y2416808D01*
X298386129Y2416808D02*
X298584985Y2494506D01*
X298584985Y2494506D02*
X298757620Y2616963D01*
X298757620Y2616963D02*
X298896208Y2778097D01*
X298896208Y2778097D02*
X298992920Y2971824D01*
X298992920Y2971824D02*
X299014499Y3042592D01*
X284178813Y3051764D02*
X284261202Y2844591D01*
X284261202Y2844591D02*
X284388801Y2668501D01*
X284388801Y2668501D02*
X284553683Y2529645D01*
X284553683Y2529645D02*
X284747923Y2434178D01*
X284747923Y2434178D02*
X284963595Y2388252D01*
X284963595Y2388252D02*
X285038879Y2385016D01*
X285900000Y3050000D02*
X285900366Y3051411D01*
M02*
