<?xml version="1.0"?>
<!-- Generated by SVGo -->
<svg width="295.752mm" height="105.252mm"
     viewBox="0.000 0.000 295.752 105.252"
     xmlns="http://www.w3.org/2000/svg" 
     xmlns:xlink="http://www.w3.org/1999/xlink">
<polygon points="288.564,5.163 288.720,5.169 288.876,5.187 289.030,5.218 289.183,5.260 289.329,5.315 289.471,5.380 289.608,5.457 289.739,5.544 289.862,5.642 289.978,5.748 290.084,5.864 290.183,5.987 290.269,6.118 290.346,6.255 290.411,6.397 290.466,6.544 290.508,6.696 290.539,6.850 290.558,7.006 290.564,7.163 290.564,59.326 287.063,59.326 286.290,59.448 285.594,59.803 285.041,60.356 284.686,61.053 284.564,61.825 284.686,62.599 285.041,63.295 285.594,63.849 286.290,64.204 287.063,64.326 290.564,64.326 290.564,98.090 290.558,98.245 290.539,98.401 290.508,98.555 290.466,98.707 290.411,98.855 290.346,98.996 290.269,99.133 290.183,99.264 290.084,99.388 289.978,99.504 289.862,99.609 289.739,99.707 289.608,99.794 289.471,99.871 289.329,99.936 289.183,99.992 289.030,100.034 288.876,100.064 288.720,100.082 288.564,100.088 7.189,100.090 7.032,100.082 6.876,100.064 6.722,100.034 6.570,99.992 6.423,99.936 6.281,99.871 6.144,99.794 6.013,99.707 5.890,99.609 5.774,99.504 5.668,99.388 5.570,99.264 5.483,99.133 5.406,98.996 5.341,98.855 5.286,98.707 5.244,98.555 5.213,98.401 5.195,98.245 5.188,98.090 5.188,64.326 8.689,64.326 9.462,64.204 10.158,63.849 10.711,63.295 11.066,62.599 11.189,61.826 11.066,61.053 10.711,60.356 10.158,59.803 9.462,59.448 8.690,59.326 5.188,59.326 5.189,7.163 5.195,7.006 5.213,6.850 5.244,6.696 5.286,6.544 5.341,6.397 5.406,6.255 5.483,6.118 5.570,5.987 5.668,5.864 5.774,5.748 5.890,5.642 6.013,5.544 6.144,5.457 6.281,5.380 6.423,5.315 6.570,5.260 6.722,5.218 6.876,5.187 7.032,5.169 7.189,5.162" style="fill:none;stroke-width:0.050000mm;stroke:black"/>
<polygon points="255.175,83.725 255.175,97.725 269.175,97.725 269.175,83.725" style="fill:none;stroke-width:0.050000mm;stroke:black"/>
<polygon points="172.425,82.755 172.425,83.725 171.832,83.725 171.832,83.956 170.701,83.956 170.701,90.225 169.876,90.225 169.876,93.025 170.701,93.025 170.701,96.255 171.832,96.255 171.832,97.725 192.976,97.725 192.976,93.025 194.501,93.025 194.501,96.255 195.644,96.255 195.644,97.725 247.745,97.725 247.745,83.725 199.525,83.725 199.525,82.755 196.226,82.755 196.226,83.725 195.644,83.725 195.644,83.956 194.501,83.956 194.501,88.425 192.976,88.425 192.976,83.725 175.726,83.725 175.726,82.755" style="fill:none;stroke-width:0.050000mm;stroke:black"/>
<polygon points="134.326,82.755 134.326,83.956 132.601,83.956 132.601,90.225 131.775,90.225 131.775,93.025 132.601,93.025 132.601,96.255 140.876,96.255 140.876,97.725 157.257,97.725 157.257,96.255 165.531,96.255 165.531,93.025 166.357,93.025 166.357,90.225 165.531,90.225 165.531,83.956 163.806,83.956 163.806,82.755 158.126,82.755 158.126,83.956 157.257,83.956 157.257,83.725 140.876,83.725 140.876,83.956 140.007,83.956 140.007,82.755" style="fill:none;stroke-width:0.050000mm;stroke:black"/>
<polygon points="93.845,82.755 93.845,83.956 92.120,83.956 92.120,90.225 91.294,90.225 91.294,93.025 92.120,93.025 92.120,96.255 100.395,96.255 100.395,97.725 116.776,97.725 116.776,96.255 125.050,96.255 125.050,93.025 125.876,93.025 125.876,90.225 125.050,90.225 125.050,83.956 123.326,83.956 123.326,82.755 117.645,82.755 117.645,83.956 116.776,83.956 116.776,83.725 100.395,83.725 100.395,83.956 99.526,83.956 99.526,82.755" style="fill:none;stroke-width:0.050000mm;stroke:black"/>
<polygon points="64.675,83.725 64.675,97.725 83.439,97.725 83.439,83.725" style="fill:none;stroke-width:0.050000mm;stroke:black"/>
<polygon points="40.864,83.725 40.864,97.725 57.245,97.725 57.245,83.725" style="fill:none;stroke-width:0.050000mm;stroke:black"/>
<polygon points="7.526,83.725 7.526,97.725 28.670,97.725 28.670,83.725" style="fill:none;stroke-width:0.050000mm;stroke:black"/>
<polygon points="7.526,64.675 7.526,78.675 10.501,78.675 10.501,79.645 13.801,79.645 13.801,78.675 34.300,78.675 34.300,79.645 37.600,79.645 37.600,78.675 40.576,78.675 40.576,64.675" style="fill:none;stroke-width:0.050000mm;stroke:black"/>
<polygon points="271.844,64.675 271.844,78.675 288.225,78.675 288.225,64.675" style="fill:none;stroke-width:0.050000mm;stroke:black"/>
<polygon points="236.126,64.675 236.126,78.675 269.175,78.675 269.175,64.675" style="fill:none;stroke-width:0.050000mm;stroke:black"/>
<polygon points="217.076,64.675 217.076,78.675 231.076,78.675 231.076,64.675" style="fill:none;stroke-width:0.050000mm;stroke:black"/>
<polygon points="198.025,64.675 198.025,78.675 212.025,78.675 212.025,64.675" style="fill:none;stroke-width:0.050000mm;stroke:black"/>
<polygon points="178.976,64.675 178.976,78.675 192.976,78.675 192.976,64.675" style="fill:none;stroke-width:0.050000mm;stroke:black"/>
<polygon points="159.925,64.675 159.925,78.675 173.925,78.675 173.925,64.675" style="fill:none;stroke-width:0.050000mm;stroke:black"/>
<polygon points="140.876,64.675 140.876,78.675 154.876,78.675 154.876,64.675" style="fill:none;stroke-width:0.050000mm;stroke:black"/>
<polygon points="121.826,64.675 121.826,78.675 135.826,78.675 135.826,64.675" style="fill:none;stroke-width:0.050000mm;stroke:black"/>
<polygon points="102.776,64.675 102.776,78.675 116.776,78.675 116.776,64.675" style="fill:none;stroke-width:0.050000mm;stroke:black"/>
<polygon points="83.726,64.675 83.726,78.675 97.726,78.675 97.726,64.675" style="fill:none;stroke-width:0.050000mm;stroke:black"/>
<polygon points="64.675,64.675 64.675,78.675 78.675,78.675 78.675,64.675" style="fill:none;stroke-width:0.050000mm;stroke:black"/>
<polygon points="45.626,64.675 45.626,78.675 59.626,78.675 59.626,64.675" style="fill:none;stroke-width:0.050000mm;stroke:black"/>
<polygon points="231.957,44.655 231.957,45.626 226.601,45.626 226.601,59.626 283.463,59.626 283.463,45.626 278.106,45.626 278.106,44.655 274.806,44.655 274.806,45.626 259.056,45.626 259.056,44.655 255.757,44.655 255.757,45.626 254.306,45.626 254.306,44.655 251.007,44.655 251.007,45.626 235.257,45.626 235.257,44.655" style="fill:none;stroke-width:0.050000mm;stroke:black"/>
<polygon points="207.550,45.626 207.550,59.626 221.550,59.626 221.550,45.626" style="fill:none;stroke-width:0.050000mm;stroke:black"/>
<polygon points="188.501,45.626 188.501,59.626 202.501,59.626 202.501,45.626" style="fill:none;stroke-width:0.050000mm;stroke:black"/>
<polygon points="169.451,45.626 169.451,59.626 183.451,59.626 183.451,45.626" style="fill:none;stroke-width:0.050000mm;stroke:black"/>
<polygon points="150.400,45.626 150.400,59.626 164.400,59.626 164.400,45.626" style="fill:none;stroke-width:0.050000mm;stroke:black"/>
<polygon points="131.351,45.626 131.351,51.556 131.197,51.853 131.077,52.627 131.197,53.398 131.351,53.697 131.351,59.626 145.351,59.626 145.351,45.626" style="fill:none;stroke-width:0.050000mm;stroke:black"/>
<polygon points="112.300,45.626 112.300,59.626 126.300,59.626 126.300,45.626" style="fill:none;stroke-width:0.050000mm;stroke:black"/>
<polygon points="93.251,45.626 93.251,59.626 107.251,59.626 107.251,45.626" style="fill:none;stroke-width:0.050000mm;stroke:black"/>
<polygon points="74.201,45.626 74.201,59.626 88.201,59.626 88.201,45.626" style="fill:none;stroke-width:0.050000mm;stroke:black"/>
<polygon points="55.151,45.626 55.151,59.626 69.151,59.626 69.151,45.626" style="fill:none;stroke-width:0.050000mm;stroke:black"/>
<polygon points="36.100,45.626 36.100,59.626 50.100,59.626 50.100,45.626" style="fill:none;stroke-width:0.050000mm;stroke:black"/>
<polygon points="12.289,45.626 12.289,59.626 26.289,59.626 26.289,45.626" style="fill:none;stroke-width:0.050000mm;stroke:black"/>
<polygon points="269.463,26.575 269.463,40.575 288.225,40.575 288.225,26.575" style="fill:none;stroke-width:0.050000mm;stroke:black"/>
<polygon points="245.650,26.575 245.650,40.575 269.175,40.575 269.175,26.575" style="fill:none;stroke-width:0.050000mm;stroke:black"/>
<polygon points="226.601,26.575 226.601,40.575 245.364,40.575 245.364,26.575" style="fill:none;stroke-width:0.050000mm;stroke:black"/>
<polygon points="207.550,26.575 207.550,40.575 221.550,40.575 221.550,26.575" style="fill:none;stroke-width:0.050000mm;stroke:black"/>
<polygon points="188.501,26.575 188.501,40.575 202.501,40.575 202.501,26.575" style="fill:none;stroke-width:0.050000mm;stroke:black"/>
<polygon points="169.451,26.575 169.451,40.575 183.451,40.575 183.451,26.575" style="fill:none;stroke-width:0.050000mm;stroke:black"/>
<polygon points="150.400,26.575 150.400,40.575 164.400,40.575 164.400,26.575" style="fill:none;stroke-width:0.050000mm;stroke:black"/>
<polygon points="131.351,26.575 131.351,40.575 145.351,40.575 145.351,26.575" style="fill:none;stroke-width:0.050000mm;stroke:black"/>
<polygon points="112.300,26.575 112.300,40.575 126.300,40.575 126.300,26.575" style="fill:none;stroke-width:0.050000mm;stroke:black"/>
<polygon points="93.251,26.575 93.251,40.575 107.251,40.575 107.251,26.575" style="fill:none;stroke-width:0.050000mm;stroke:black"/>
<polygon points="74.201,26.575 74.201,40.575 88.201,40.575 88.201,26.575" style="fill:none;stroke-width:0.050000mm;stroke:black"/>
<polygon points="55.151,26.575 55.151,40.575 69.151,40.575 69.151,26.575" style="fill:none;stroke-width:0.050000mm;stroke:black"/>
<polygon points="36.100,26.575 36.100,40.575 50.100,40.575 50.100,26.575" style="fill:none;stroke-width:0.050000mm;stroke:black"/>
<polygon points="12.289,26.575 12.289,40.575 26.289,40.575 26.289,26.575" style="fill:none;stroke-width:0.050000mm;stroke:black"/>
<polygon points="29.803,30.848 29.107,31.203 28.553,31.756 28.199,32.453 28.077,33.227 28.199,33.998 28.553,34.695 29.107,35.248 29.803,35.603 30.577,35.727 31.349,35.603 32.046,35.248 32.597,34.695 32.954,33.998 33.076,33.227 32.954,32.453 32.597,31.756 32.046,31.203 31.349,30.848 30.577,30.726" style="fill:none;stroke-width:0.050000mm;stroke:black"/>
<polygon points="255.175,7.525 255.175,21.525 258.150,21.525 258.150,22.495 261.450,22.495 261.450,21.525 281.950,21.525 281.950,22.495 285.250,22.495 285.250,21.525 288.225,21.525 288.225,7.525" style="fill:none;stroke-width:0.050000mm;stroke:black"/>
<polygon points="236.126,7.525 236.126,21.525 250.126,21.525 250.126,7.525" style="fill:none;stroke-width:0.050000mm;stroke:black"/>
<polygon points="217.076,7.525 217.076,21.525 231.076,21.525 231.076,7.525" style="fill:none;stroke-width:0.050000mm;stroke:black"/>
<polygon points="198.025,7.525 198.025,21.525 212.025,21.525 212.025,7.525" style="fill:none;stroke-width:0.050000mm;stroke:black"/>
<polygon points="178.976,7.525 178.976,21.525 192.976,21.525 192.976,7.525" style="fill:none;stroke-width:0.050000mm;stroke:black"/>
<polygon points="159.925,7.525 159.925,21.525 173.925,21.525 173.925,7.525" style="fill:none;stroke-width:0.050000mm;stroke:black"/>
<polygon points="140.876,7.525 140.876,21.525 154.876,21.525 154.876,7.525" style="fill:none;stroke-width:0.050000mm;stroke:black"/>
<polygon points="121.826,7.525 121.826,21.525 135.826,21.525 135.826,7.525" style="fill:none;stroke-width:0.050000mm;stroke:black"/>
<polygon points="102.776,7.525 102.776,21.525 116.776,21.525 116.776,7.525" style="fill:none;stroke-width:0.050000mm;stroke:black"/>
<polygon points="83.726,7.525 83.726,21.525 97.726,21.525 97.726,7.525" style="fill:none;stroke-width:0.050000mm;stroke:black"/>
<polygon points="64.675,7.525 64.675,21.525 78.675,21.525 78.675,7.525" style="fill:none;stroke-width:0.050000mm;stroke:black"/>
<polygon points="45.626,7.525 45.626,21.525 59.626,21.525 59.626,7.525" style="fill:none;stroke-width:0.050000mm;stroke:black"/>
<polygon points="26.576,7.525 26.576,21.525 40.576,21.525 40.576,7.525" style="fill:none;stroke-width:0.050000mm;stroke:black"/>
<polygon points="7.526,7.525 7.526,21.525 21.526,21.525 21.526,7.525" style="fill:none;stroke-width:0.050000mm;stroke:black"/>
</svg>
