<?xml version="1.0" encoding="UTF-8" standalone="no"?>
<!DOCTYPE svg PUBLIC "-//W3C//DTD SVG 1.1//EN" "http://www.w3.org/Graphics/SVG/1.1/DTD/svg11.dtd">
<svg width="100%" height="100%" viewBox="0 0 1118 398" version="1.1" xmlns="http://www.w3.org/2000/svg" xmlns:xlink="http://www.w3.org/1999/xlink" xml:space="preserve" xmlns:serif="http://www.serif.com/" style="fill-rule:evenodd;clip-rule:evenodd;">
    <g transform="matrix(1.33333,0,0,1.33333,0,0)">
        <path id="マージ済み" d="M817.977,14.635L818.419,14.652L818.861,14.703L819.298,14.791L819.731,14.91L820.145,15.066L820.548,15.25L820.936,15.469L821.307,15.715L821.656,15.993L821.985,16.294L822.285,16.622L822.566,16.971L822.81,17.342L823.028,17.731L823.212,18.133L823.368,18.55L823.487,18.981L823.575,19.417L823.629,19.86L823.646,20.305L823.646,166.751C823.646,167.127 823.497,167.487 823.231,167.753C822.965,168.019 822.605,168.168 822.229,168.168C819.486,168.168 813.722,168.168 813.722,168.168L811.531,168.514L809.558,169.52L807.99,171.088L806.984,173.064L806.638,175.252L806.984,177.446L807.99,179.419L809.558,180.989L811.531,181.996L813.722,182.341L822.229,182.341C823.011,182.341 823.646,182.976 823.646,183.759C823.646,195.629 823.646,278.05 823.646,278.05L823.629,278.49L823.575,278.932L823.487,279.369L823.368,279.799L823.212,280.219L823.028,280.619L822.81,281.007L822.566,281.378L822.285,281.73L821.985,282.059L821.656,282.356L821.307,282.634L820.936,282.881L820.548,283.099L820.145,283.283L819.731,283.442L819.298,283.561L818.861,283.646L818.419,283.697L817.977,283.714L20.378,283.72L19.933,283.697L19.491,283.646L19.054,283.561L18.624,283.442L18.207,283.283L17.804,283.099L17.416,282.881L17.045,282.634L16.696,282.356L16.367,282.059L16.067,281.73L15.789,281.378L15.542,281.007L15.324,280.619L15.14,280.219L14.984,279.799L14.865,279.369L14.777,278.932L14.726,278.49L14.706,278.05L14.706,183.759C14.706,182.976 15.341,182.341 16.123,182.341C18.866,182.341 24.63,182.341 24.63,182.341L26.821,181.996L28.794,180.989L30.362,179.419L31.368,177.446L31.717,175.255L31.368,173.064L30.362,171.088L28.794,169.52L26.821,168.514L24.633,168.168L16.123,168.168C15.748,168.168 15.387,168.019 15.121,167.753C14.855,167.487 14.706,167.127 14.706,166.751C14.706,151.613 14.709,20.305 14.709,20.305L14.726,19.86L14.777,19.417L14.865,18.981L14.984,18.55L15.14,18.133L15.324,17.731L15.542,17.342L15.789,16.971L16.067,16.622L16.367,16.294L16.696,15.993L17.045,15.715L17.416,15.469L17.804,15.25L18.207,15.066L18.624,14.91L19.054,14.791L19.491,14.703L19.933,14.652L20.378,14.632L817.977,14.635ZM777.528,237.546L777.528,276.806L819.104,276.806L819.104,237.546L777.528,237.546ZM702.269,252.817L702.269,237.516L565.583,237.516L565.583,234.794L556.231,234.794L556.231,237.516L554.581,237.516L554.581,238.164L551.341,238.164L551.341,250.705L547.019,250.705L547.019,237.516L498.121,237.516L498.121,234.794L488.764,234.794L488.764,237.516L487.083,237.516L487.083,238.164L483.877,238.164L483.877,255.756L481.538,255.756L481.538,263.614L483.877,263.614L483.877,272.678L487.083,272.678L487.083,276.803L547.019,276.803L547.019,263.614L551.341,263.614L551.341,272.678L554.581,272.678L554.581,276.803L702.269,276.803L702.269,261.377C703.173,260.188 703.709,258.704 703.709,257.097C703.709,255.489 703.173,254.006 702.269,252.817ZM266.199,234.794L266.199,238.164L261.33,238.164L261.33,255.756L258.999,255.756L258.999,263.614L261.33,263.614L261.33,272.678L284.685,272.678L284.685,276.803L330.918,276.803L330.918,272.678L354.27,272.678L354.27,263.614L356.601,263.614L356.601,255.756L354.27,255.756L354.27,238.164L349.404,238.164L349.404,234.794L333.37,234.794L333.37,238.164L330.918,238.164L330.918,237.516L284.685,237.516L284.685,238.164L282.232,238.164L282.232,234.794L266.199,234.794ZM380.948,234.794L380.948,238.164L376.079,238.164L376.079,255.756L373.748,255.756L373.748,263.614L376.079,263.614L376.079,272.678L399.434,272.678L399.434,276.803L445.667,276.803L445.667,272.678L469.019,272.678L469.019,263.614L471.351,263.614L471.351,255.756L469.019,255.756L469.019,238.164L464.151,238.164L464.151,234.794L448.12,234.794L448.12,238.164L445.667,238.164L445.667,237.516L399.434,237.516L399.434,238.164L396.982,238.164L396.982,234.794L380.948,234.794ZM116.048,237.543L116.048,276.803L162.057,276.803L162.057,237.543L116.048,237.543ZM183.543,237.543L183.543,276.803L236.307,276.803L236.307,237.543L183.543,237.543ZM81.057,250.025L81.057,237.543L21.546,237.543L21.546,252.113C20.279,253.394 19.496,255.154 19.496,257.096C19.496,259.038 20.279,260.799 21.546,262.079L21.546,276.803L81.057,276.803L81.057,264.167C84.747,263.923 87.67,260.848 87.67,257.096C87.67,253.344 84.747,250.269 81.057,250.025ZM762.803,252.564L762.803,237.543L723.543,237.543L723.543,252.117C722.278,253.397 721.496,255.157 721.496,257.097C721.496,259.037 722.278,260.797 723.543,262.077L723.543,276.803L762.803,276.803L762.803,261.628C763.827,260.399 764.443,258.819 764.443,257.096C764.443,255.373 763.827,253.793 762.803,252.564ZM21.546,183.543L21.546,222.831L29.941,222.831L29.941,225.553L39.253,225.553L39.253,222.831L97.096,222.831L97.096,225.553L106.408,225.553L106.408,222.831L114.806,222.831L114.806,183.543L21.546,183.543ZM669.546,183.543L669.546,222.803L762.803,222.803L762.803,183.543L669.546,183.543ZM507.546,183.543L507.546,222.803L546.806,222.803L546.806,183.543L507.546,183.543ZM453.543,183.543L453.543,222.803L492.803,222.803L492.803,183.543L453.543,183.543ZM399.546,183.543L399.546,222.803L438.806,222.803L438.806,183.543L399.546,183.543ZM345.546,183.543L345.546,222.803L384.806,222.803L384.806,183.543L345.546,183.543ZM291.546,183.543L291.546,222.803L330.806,222.803L330.806,183.543L291.546,183.543ZM237.546,183.543L237.546,222.803L276.806,222.803L276.806,183.543L237.546,183.543ZM183.543,183.543L183.543,222.803L222.803,222.803L222.803,183.543L183.543,183.543ZM129.546,183.543L129.546,222.803L168.806,222.803L168.806,183.543L129.546,183.543ZM615.546,183.543L615.546,222.803L654.806,222.803L654.806,183.543L615.546,183.543ZM770.794,183.543L770.794,222.803L816.803,222.803L816.803,183.543L770.794,183.543ZM561.543,183.543L561.543,222.803L600.803,222.803L600.803,183.543L561.543,183.543ZM35.048,129.546L35.048,168.806L74.307,168.806L74.307,129.546L35.048,129.546ZM102.543,129.546L102.543,168.806L141.803,168.806L141.803,129.546L102.543,129.546ZM588.543,129.546L588.543,168.806L627.803,168.806L627.803,129.546L588.543,129.546ZM534.546,129.546L534.546,168.806L573.806,168.806L573.806,129.546L534.546,129.546ZM657.688,126.794L657.688,129.519L642.546,129.519L642.546,168.806L803.305,168.806L803.305,129.519L788.159,129.519L788.159,126.794L778.83,126.794L778.83,129.519L734.302,129.519L734.302,126.794L724.975,126.794L724.975,129.519L720.873,129.519L720.873,126.794L711.546,126.794L711.546,129.519L667.018,129.519L667.018,126.794L657.688,126.794ZM318.543,129.546L318.543,168.806L357.803,168.806L357.803,129.546L318.543,129.546ZM372.329,129.546L372.329,146.175L371.895,147.008L371.557,149.179L371.895,151.341L372.329,152.179L372.329,168.806L411.806,168.806L411.806,129.546L372.329,129.546ZM210.546,129.546L210.546,168.806L249.806,168.806L249.806,129.546L210.546,129.546ZM156.546,129.546L156.546,168.806L195.806,168.806L195.806,129.546L156.546,129.546ZM426.543,129.546L426.543,168.806L465.803,168.806L465.803,129.546L426.543,129.546ZM264.546,129.546L264.546,168.806L303.806,168.806L303.806,129.546L264.546,129.546ZM480.546,129.546L480.546,168.806L519.806,168.806L519.806,129.546L480.546,129.546ZM820.803,150L814,150L814,159L820.803,159L820.803,150ZM820.803,128L814,128L814,137L820.803,137L820.803,128ZM264.546,75.543L264.546,114.803L303.806,114.803L303.806,75.543L264.546,75.543ZM696.543,75.543L696.543,114.803L762.803,114.803L762.803,75.543L696.543,75.543ZM210.546,75.543L210.546,114.803L249.806,114.803L249.806,75.543L210.546,75.543ZM156.546,75.543L156.546,114.803L195.806,114.803L195.806,75.543L156.546,75.543ZM102.543,75.543L102.543,114.803L141.803,114.803L141.803,75.543L102.543,75.543ZM426.543,75.543L426.543,114.803L465.803,114.803L465.803,75.543L426.543,75.543ZM318.543,75.543L318.543,114.803L357.803,114.803L357.803,75.543L318.543,75.543ZM534.546,75.543L534.546,114.803L573.806,114.803L573.806,75.543L534.546,75.543ZM480.546,75.543L480.546,114.803L519.806,114.803L519.806,75.543L480.546,75.543ZM588.543,75.543L588.543,114.803L627.803,114.803L627.803,75.543L588.543,75.543ZM35.048,75.543L35.048,114.803L74.307,114.803L74.307,75.543L35.048,75.543ZM642.546,75.543L642.546,114.803L695.307,114.803L695.307,75.543L642.546,75.543ZM764.045,75.543L764.045,114.803L816.803,114.803L816.803,75.543L764.045,75.543ZM372.546,75.543L372.546,114.803L411.806,114.803L411.806,75.543L372.546,75.543ZM84.482,87.443L82.509,88.449L80.938,90.016L79.934,91.992L79.588,94.185L79.934,96.37L80.938,98.346L82.509,99.913L84.482,100.919L86.676,101.271L88.865,100.919L90.841,99.913L92.404,98.346L93.416,96.37L93.762,94.185L93.416,91.992L92.404,90.016L90.841,88.449L88.865,87.443L86.676,87.097L84.482,87.443ZM723.543,21.543L723.543,60.831L731.938,60.831L731.938,63.553L741.25,63.553L741.25,60.831L799.096,60.831L799.096,63.553L808.408,63.553L808.408,60.831L816.803,60.831L816.803,21.543L723.543,21.543ZM615.546,21.543L615.546,60.803L654.806,60.803L654.806,21.543L615.546,21.543ZM561.543,21.543L561.543,60.803L600.803,60.803L600.803,21.543L561.543,21.543ZM75.546,21.543L75.546,60.803L114.806,60.803L114.806,21.543L75.546,21.543ZM129.546,21.543L129.546,60.803L168.806,60.803L168.806,21.543L129.546,21.543ZM183.543,21.543L183.543,60.803L222.803,60.803L222.803,21.543L183.543,21.543ZM21.546,21.543L21.546,60.803L60.806,60.803L60.806,21.543L21.546,21.543ZM507.546,21.543L507.546,60.803L546.806,60.803L546.806,21.543L507.546,21.543ZM669.546,21.543L669.546,60.803L708.806,60.803L708.806,21.543L669.546,21.543ZM399.546,21.543L399.546,60.803L438.806,60.803L438.806,21.543L399.546,21.543ZM345.546,21.543L345.546,60.803L384.806,60.803L384.806,21.543L345.546,21.543ZM291.546,21.543L291.546,60.803L330.806,60.803L330.806,21.543L291.546,21.543ZM453.543,21.543L453.543,60.803L492.803,60.803L492.803,21.543L453.543,21.543ZM237.546,21.543L237.546,60.803L276.806,60.803L276.806,21.543L237.546,21.543Z" style="fill:rgb(204,204,204);fill-rule:nonzero;stroke:rgb(0,0,255);stroke-width:0.85px;"/>
    </g>
</svg>
