%TF.GenerationSoftware,KiCad,Pcbnew,(5.1.10-1-10_14)*%
%TF.CreationDate,2021-05-27T16:08:53+09:00*%
%TF.ProjectId,Jones_plate_bottom,4a6f6e65-735f-4706-9c61-74655f626f74,rev?*%
%TF.SameCoordinates,Original*%
%TF.FileFunction,Legend,Top*%
%TF.FilePolarity,Positive*%
%FSLAX46Y46*%
G04 Gerber Fmt 4.6, Leading zero omitted, Abs format (unit mm)*
G04 Created by KiCad (PCBNEW (5.1.10-1-10_14)) date 2021-05-27 16:08:53*
%MOMM*%
%LPD*%
G01*
G04 APERTURE LIST*
%ADD10C,0.300000*%
%ADD11C,0.200000*%
G04 APERTURE END LIST*
D10*
X141621428Y-75953571D02*
X141621428Y-77025000D01*
X141550000Y-77239285D01*
X141407142Y-77382142D01*
X141192857Y-77453571D01*
X141050000Y-77453571D01*
X143050000Y-77453571D02*
X142335714Y-77453571D01*
X142335714Y-75953571D01*
X144407142Y-77310714D02*
X144335714Y-77382142D01*
X144121428Y-77453571D01*
X143978571Y-77453571D01*
X143764285Y-77382142D01*
X143621428Y-77239285D01*
X143550000Y-77096428D01*
X143478571Y-76810714D01*
X143478571Y-76596428D01*
X143550000Y-76310714D01*
X143621428Y-76167857D01*
X143764285Y-76025000D01*
X143978571Y-75953571D01*
X144121428Y-75953571D01*
X144335714Y-76025000D01*
X144407142Y-76096428D01*
X145478571Y-75953571D02*
X145478571Y-77025000D01*
X145407142Y-77239285D01*
X145264285Y-77382142D01*
X145050000Y-77453571D01*
X144907142Y-77453571D01*
X146907142Y-77453571D02*
X146192857Y-77453571D01*
X146192857Y-75953571D01*
X148264285Y-77310714D02*
X148192857Y-77382142D01*
X147978571Y-77453571D01*
X147835714Y-77453571D01*
X147621428Y-77382142D01*
X147478571Y-77239285D01*
X147407142Y-77096428D01*
X147335714Y-76810714D01*
X147335714Y-76596428D01*
X147407142Y-76310714D01*
X147478571Y-76167857D01*
X147621428Y-76025000D01*
X147835714Y-75953571D01*
X147978571Y-75953571D01*
X148192857Y-76025000D01*
X148264285Y-76096428D01*
X149335714Y-75953571D02*
X149335714Y-77025000D01*
X149264285Y-77239285D01*
X149121428Y-77382142D01*
X148907142Y-77453571D01*
X148764285Y-77453571D01*
X150764285Y-77453571D02*
X150050000Y-77453571D01*
X150050000Y-75953571D01*
X152121428Y-77310714D02*
X152050000Y-77382142D01*
X151835714Y-77453571D01*
X151692857Y-77453571D01*
X151478571Y-77382142D01*
X151335714Y-77239285D01*
X151264285Y-77096428D01*
X151192857Y-76810714D01*
X151192857Y-76596428D01*
X151264285Y-76310714D01*
X151335714Y-76167857D01*
X151478571Y-76025000D01*
X151692857Y-75953571D01*
X151835714Y-75953571D01*
X152050000Y-76025000D01*
X152121428Y-76096428D01*
X153192857Y-75953571D02*
X153192857Y-77025000D01*
X153121428Y-77239285D01*
X152978571Y-77382142D01*
X152764285Y-77453571D01*
X152621428Y-77453571D01*
X154621428Y-77453571D02*
X153907142Y-77453571D01*
X153907142Y-75953571D01*
X155978571Y-77310714D02*
X155907142Y-77382142D01*
X155692857Y-77453571D01*
X155550000Y-77453571D01*
X155335714Y-77382142D01*
X155192857Y-77239285D01*
X155121428Y-77096428D01*
X155050000Y-76810714D01*
X155050000Y-76596428D01*
X155121428Y-76310714D01*
X155192857Y-76167857D01*
X155335714Y-76025000D01*
X155550000Y-75953571D01*
X155692857Y-75953571D01*
X155907142Y-76025000D01*
X155978571Y-76096428D01*
D11*
X141265714Y-70728571D02*
X142337142Y-70728571D01*
X141694285Y-70085714D02*
X141265714Y-72014285D01*
X142194285Y-71371428D02*
X141122857Y-71371428D01*
X141765714Y-72014285D02*
X142194285Y-70085714D01*
X143265714Y-70228571D02*
X143265714Y-71300000D01*
X143194285Y-71514285D01*
X143051428Y-71657142D01*
X142837142Y-71728571D01*
X142694285Y-71728571D01*
X144194285Y-71728571D02*
X144051428Y-71657142D01*
X143980000Y-71585714D01*
X143908571Y-71442857D01*
X143908571Y-71014285D01*
X143980000Y-70871428D01*
X144051428Y-70800000D01*
X144194285Y-70728571D01*
X144408571Y-70728571D01*
X144551428Y-70800000D01*
X144622857Y-70871428D01*
X144694285Y-71014285D01*
X144694285Y-71442857D01*
X144622857Y-71585714D01*
X144551428Y-71657142D01*
X144408571Y-71728571D01*
X144194285Y-71728571D01*
X145337142Y-70728571D02*
X145337142Y-71728571D01*
X145337142Y-70871428D02*
X145408571Y-70800000D01*
X145551428Y-70728571D01*
X145765714Y-70728571D01*
X145908571Y-70800000D01*
X145980000Y-70942857D01*
X145980000Y-71728571D01*
X147265714Y-71657142D02*
X147122857Y-71728571D01*
X146837142Y-71728571D01*
X146694285Y-71657142D01*
X146622857Y-71514285D01*
X146622857Y-70942857D01*
X146694285Y-70800000D01*
X146837142Y-70728571D01*
X147122857Y-70728571D01*
X147265714Y-70800000D01*
X147337142Y-70942857D01*
X147337142Y-71085714D01*
X146622857Y-71228571D01*
X147908571Y-71657142D02*
X148051428Y-71728571D01*
X148337142Y-71728571D01*
X148480000Y-71657142D01*
X148551428Y-71514285D01*
X148551428Y-71442857D01*
X148480000Y-71300000D01*
X148337142Y-71228571D01*
X148122857Y-71228571D01*
X147980000Y-71157142D01*
X147908571Y-71014285D01*
X147908571Y-70942857D01*
X147980000Y-70800000D01*
X148122857Y-70728571D01*
X148337142Y-70728571D01*
X148480000Y-70800000D01*
X150837142Y-70942857D02*
X151051428Y-71014285D01*
X151122857Y-71085714D01*
X151194285Y-71228571D01*
X151194285Y-71442857D01*
X151122857Y-71585714D01*
X151051428Y-71657142D01*
X150908571Y-71728571D01*
X150337142Y-71728571D01*
X150337142Y-70228571D01*
X150837142Y-70228571D01*
X150980000Y-70300000D01*
X151051428Y-70371428D01*
X151122857Y-70514285D01*
X151122857Y-70657142D01*
X151051428Y-70800000D01*
X150980000Y-70871428D01*
X150837142Y-70942857D01*
X150337142Y-70942857D01*
X152051428Y-71728571D02*
X151908571Y-71657142D01*
X151837142Y-71585714D01*
X151765714Y-71442857D01*
X151765714Y-71014285D01*
X151837142Y-70871428D01*
X151908571Y-70800000D01*
X152051428Y-70728571D01*
X152265714Y-70728571D01*
X152408571Y-70800000D01*
X152480000Y-70871428D01*
X152551428Y-71014285D01*
X152551428Y-71442857D01*
X152480000Y-71585714D01*
X152408571Y-71657142D01*
X152265714Y-71728571D01*
X152051428Y-71728571D01*
X152980000Y-70728571D02*
X153551428Y-70728571D01*
X153194285Y-70228571D02*
X153194285Y-71514285D01*
X153265714Y-71657142D01*
X153408571Y-71728571D01*
X153551428Y-71728571D01*
X153837142Y-70728571D02*
X154408571Y-70728571D01*
X154051428Y-70228571D02*
X154051428Y-71514285D01*
X154122857Y-71657142D01*
X154265714Y-71728571D01*
X154408571Y-71728571D01*
X155122857Y-71728571D02*
X154980000Y-71657142D01*
X154908571Y-71585714D01*
X154837142Y-71442857D01*
X154837142Y-71014285D01*
X154908571Y-70871428D01*
X154980000Y-70800000D01*
X155122857Y-70728571D01*
X155337142Y-70728571D01*
X155480000Y-70800000D01*
X155551428Y-70871428D01*
X155622857Y-71014285D01*
X155622857Y-71442857D01*
X155551428Y-71585714D01*
X155480000Y-71657142D01*
X155337142Y-71728571D01*
X155122857Y-71728571D01*
X156265714Y-71728571D02*
X156265714Y-70728571D01*
X156265714Y-70871428D02*
X156337142Y-70800000D01*
X156480000Y-70728571D01*
X156694285Y-70728571D01*
X156837142Y-70800000D01*
X156908571Y-70942857D01*
X156908571Y-71728571D01*
X156908571Y-70942857D02*
X156980000Y-70800000D01*
X157122857Y-70728571D01*
X157337142Y-70728571D01*
X157480000Y-70800000D01*
X157551428Y-70942857D01*
X157551428Y-71728571D01*
X159408571Y-71728571D02*
X159408571Y-70228571D01*
X159980000Y-70228571D01*
X160122857Y-70300000D01*
X160194285Y-70371428D01*
X160265714Y-70514285D01*
X160265714Y-70728571D01*
X160194285Y-70871428D01*
X160122857Y-70942857D01*
X159980000Y-71014285D01*
X159408571Y-71014285D01*
X161122857Y-71728571D02*
X160980000Y-71657142D01*
X160908571Y-71514285D01*
X160908571Y-70228571D01*
X162337142Y-71728571D02*
X162337142Y-70942857D01*
X162265714Y-70800000D01*
X162122857Y-70728571D01*
X161837142Y-70728571D01*
X161694285Y-70800000D01*
X162337142Y-71657142D02*
X162194285Y-71728571D01*
X161837142Y-71728571D01*
X161694285Y-71657142D01*
X161622857Y-71514285D01*
X161622857Y-71371428D01*
X161694285Y-71228571D01*
X161837142Y-71157142D01*
X162194285Y-71157142D01*
X162337142Y-71085714D01*
X162837142Y-70728571D02*
X163408571Y-70728571D01*
X163051428Y-70228571D02*
X163051428Y-71514285D01*
X163122857Y-71657142D01*
X163265714Y-71728571D01*
X163408571Y-71728571D01*
X164480000Y-71657142D02*
X164337142Y-71728571D01*
X164051428Y-71728571D01*
X163908571Y-71657142D01*
X163837142Y-71514285D01*
X163837142Y-70942857D01*
X163908571Y-70800000D01*
X164051428Y-70728571D01*
X164337142Y-70728571D01*
X164480000Y-70800000D01*
X164551428Y-70942857D01*
X164551428Y-71085714D01*
X163837142Y-71228571D01*
X166194285Y-70728571D02*
X166551428Y-71728571D01*
X166908571Y-70728571D01*
X167480000Y-71585714D02*
X167551428Y-71657142D01*
X167480000Y-71728571D01*
X167408571Y-71657142D01*
X167480000Y-71585714D01*
X167480000Y-71728571D01*
X168480000Y-70228571D02*
X168622857Y-70228571D01*
X168765714Y-70300000D01*
X168837142Y-70371428D01*
X168908571Y-70514285D01*
X168980000Y-70800000D01*
X168980000Y-71157142D01*
X168908571Y-71442857D01*
X168837142Y-71585714D01*
X168765714Y-71657142D01*
X168622857Y-71728571D01*
X168480000Y-71728571D01*
X168337142Y-71657142D01*
X168265714Y-71585714D01*
X168194285Y-71442857D01*
X168122857Y-71157142D01*
X168122857Y-70800000D01*
X168194285Y-70514285D01*
X168265714Y-70371428D01*
X168337142Y-70300000D01*
X168480000Y-70228571D01*
X169622857Y-71585714D02*
X169694285Y-71657142D01*
X169622857Y-71728571D01*
X169551428Y-71657142D01*
X169622857Y-71585714D01*
X169622857Y-71728571D01*
X170980000Y-70728571D02*
X170980000Y-71728571D01*
X170622857Y-70157142D02*
X170265714Y-71228571D01*
X171194285Y-71228571D01*
X171765714Y-71585714D02*
X171837142Y-71657142D01*
X171765714Y-71728571D01*
X171694285Y-71657142D01*
X171765714Y-71585714D01*
X171765714Y-71728571D01*
X173265714Y-71728571D02*
X172408571Y-71728571D01*
X172837142Y-71728571D02*
X172837142Y-70228571D01*
X172694285Y-70442857D01*
X172551428Y-70585714D01*
X172408571Y-70657142D01*
X142265714Y-73464285D02*
X142194285Y-73392857D01*
X142051428Y-73321428D01*
X141908571Y-73321428D01*
X141765714Y-73392857D01*
X141694285Y-73464285D01*
X141622857Y-73607142D01*
X141622857Y-73750000D01*
X141694285Y-73892857D01*
X141765714Y-73964285D01*
X141908571Y-74035714D01*
X142051428Y-74035714D01*
X142194285Y-73964285D01*
X142265714Y-73892857D01*
X142265714Y-73321428D02*
X142265714Y-73892857D01*
X142337142Y-73964285D01*
X142408571Y-73964285D01*
X142551428Y-73892857D01*
X142622857Y-73750000D01*
X142622857Y-73392857D01*
X142480000Y-73178571D01*
X142265714Y-73035714D01*
X141980000Y-72964285D01*
X141694285Y-73035714D01*
X141480000Y-73178571D01*
X141337142Y-73392857D01*
X141265714Y-73678571D01*
X141337142Y-73964285D01*
X141480000Y-74178571D01*
X141694285Y-74321428D01*
X141980000Y-74392857D01*
X142265714Y-74321428D01*
X142480000Y-74178571D01*
X143265714Y-73178571D02*
X143265714Y-74464285D01*
X143194285Y-74607142D01*
X143051428Y-74678571D01*
X142980000Y-74678571D01*
X143265714Y-72678571D02*
X143194285Y-72750000D01*
X143265714Y-72821428D01*
X143337142Y-72750000D01*
X143265714Y-72678571D01*
X143265714Y-72821428D01*
X143980000Y-73178571D02*
X143980000Y-74678571D01*
X143980000Y-73250000D02*
X144122857Y-73178571D01*
X144408571Y-73178571D01*
X144551428Y-73250000D01*
X144622857Y-73321428D01*
X144694285Y-73464285D01*
X144694285Y-73892857D01*
X144622857Y-74035714D01*
X144551428Y-74107142D01*
X144408571Y-74178571D01*
X144122857Y-74178571D01*
X143980000Y-74107142D01*
X145265714Y-74107142D02*
X145408571Y-74178571D01*
X145694285Y-74178571D01*
X145837142Y-74107142D01*
X145908571Y-73964285D01*
X145908571Y-73892857D01*
X145837142Y-73750000D01*
X145694285Y-73678571D01*
X145480000Y-73678571D01*
X145337142Y-73607142D01*
X145265714Y-73464285D01*
X145265714Y-73392857D01*
X145337142Y-73250000D01*
X145480000Y-73178571D01*
X145694285Y-73178571D01*
X145837142Y-73250000D01*
X146551428Y-74178571D02*
X146551428Y-72678571D01*
X146694285Y-73607142D02*
X147122857Y-74178571D01*
X147122857Y-73178571D02*
X146551428Y-73750000D01*
X148337142Y-74107142D02*
X148194285Y-74178571D01*
X147908571Y-74178571D01*
X147765714Y-74107142D01*
X147694285Y-73964285D01*
X147694285Y-73392857D01*
X147765714Y-73250000D01*
X147908571Y-73178571D01*
X148194285Y-73178571D01*
X148337142Y-73250000D01*
X148408571Y-73392857D01*
X148408571Y-73535714D01*
X147694285Y-73678571D01*
X149051428Y-73178571D02*
X149051428Y-74178571D01*
X149051428Y-73321428D02*
X149122857Y-73250000D01*
X149265714Y-73178571D01*
X149480000Y-73178571D01*
X149622857Y-73250000D01*
X149694285Y-73392857D01*
X149694285Y-74178571D01*
X150408571Y-73178571D02*
X150408571Y-74178571D01*
X150408571Y-73321428D02*
X150480000Y-73250000D01*
X150622857Y-73178571D01*
X150837142Y-73178571D01*
X150980000Y-73250000D01*
X151051428Y-73392857D01*
X151051428Y-74178571D01*
M02*
