%TF.GenerationSoftware,KiCad,Pcbnew,(5.1.9-0-10_14)*%
%TF.CreationDate,2021-01-17T11:24:12+09:00*%
%TF.ProjectId,Jones_plate_bottom,4a6f6e65-735f-4706-9c61-74655f626f74,rev?*%
%TF.SameCoordinates,Original*%
%TF.FileFunction,Copper,L1,Top*%
%TF.FilePolarity,Positive*%
%FSLAX46Y46*%
G04 Gerber Fmt 4.6, Leading zero omitted, Abs format (unit mm)*
G04 Created by KiCad (PCBNEW (5.1.9-0-10_14)) date 2021-01-17 11:24:12*
%MOMM*%
%LPD*%
G01*
G04 APERTURE LIST*
%TA.AperFunction,NonConductor*%
%ADD10C,0.254000*%
%TD*%
%TA.AperFunction,NonConductor*%
%ADD11C,0.100000*%
%TD*%
G04 APERTURE END LIST*
D10*
X298660220Y-17886432D02*
X298886528Y-17954758D01*
X299095248Y-18065737D01*
X299278438Y-18215144D01*
X299429122Y-18397288D01*
X299541552Y-18605224D01*
X299611456Y-18831047D01*
X299639961Y-19102256D01*
X299639960Y-71589600D01*
X296586399Y-71589600D01*
X296552780Y-71592911D01*
X296545433Y-71592860D01*
X296534525Y-71593930D01*
X296301609Y-71618411D01*
X296231904Y-71632719D01*
X296162030Y-71646049D01*
X296151537Y-71649216D01*
X296151535Y-71649217D01*
X296151533Y-71649217D01*
X296151531Y-71649218D01*
X295927812Y-71718470D01*
X295862202Y-71746050D01*
X295796251Y-71772696D01*
X295786581Y-71777837D01*
X295786577Y-71777839D01*
X295786574Y-71777841D01*
X295580562Y-71889232D01*
X295521519Y-71929057D01*
X295462046Y-71967975D01*
X295453552Y-71974901D01*
X295453549Y-71974903D01*
X295453548Y-71974904D01*
X295273098Y-72124185D01*
X295222957Y-72174677D01*
X295172129Y-72224452D01*
X295165148Y-72232891D01*
X295165144Y-72232895D01*
X295165143Y-72232897D01*
X295017123Y-72414388D01*
X294977735Y-72473671D01*
X294937555Y-72532354D01*
X294932341Y-72541995D01*
X294822391Y-72748781D01*
X294795280Y-72814558D01*
X294767251Y-72879955D01*
X294764009Y-72890425D01*
X294696318Y-73114629D01*
X294682493Y-73184450D01*
X294667707Y-73254015D01*
X294666562Y-73264906D01*
X294666560Y-73264916D01*
X294666560Y-73264925D01*
X294643707Y-73497997D01*
X294643707Y-73532280D01*
X294640004Y-73566357D01*
X294639965Y-73577317D01*
X294639994Y-73585695D01*
X294643459Y-73619823D01*
X294643220Y-73654127D01*
X294644290Y-73665035D01*
X294668770Y-73897951D01*
X294683084Y-73967680D01*
X294696409Y-74037531D01*
X294699576Y-74048023D01*
X294768830Y-74271749D01*
X294796421Y-74337385D01*
X294823056Y-74403308D01*
X294828201Y-74412986D01*
X294939592Y-74618998D01*
X294979373Y-74677976D01*
X295018334Y-74737514D01*
X295025261Y-74746008D01*
X295174545Y-74926461D01*
X295225021Y-74976586D01*
X295274812Y-75027430D01*
X295283257Y-75034417D01*
X295464748Y-75182437D01*
X295524012Y-75221812D01*
X295582714Y-75262006D01*
X295592355Y-75267219D01*
X295799141Y-75377169D01*
X295864933Y-75404286D01*
X295930316Y-75432309D01*
X295940786Y-75435551D01*
X296164989Y-75503242D01*
X296234824Y-75517070D01*
X296304376Y-75531853D01*
X296315265Y-75532998D01*
X296315276Y-75533000D01*
X296315286Y-75533000D01*
X296548211Y-75555839D01*
X296586399Y-75559600D01*
X299639960Y-75559600D01*
X299639961Y-109636201D01*
X299613128Y-109909862D01*
X299544803Y-110136165D01*
X299433824Y-110344888D01*
X299284418Y-110528077D01*
X299102274Y-110678759D01*
X298894337Y-110791191D01*
X298668512Y-110861096D01*
X298397313Y-110889600D01*
X282963236Y-110889600D01*
X283233581Y-110835825D01*
X283549331Y-110705037D01*
X283833498Y-110515163D01*
X284075163Y-110273498D01*
X284265037Y-109989331D01*
X284395825Y-109673581D01*
X284462500Y-109338383D01*
X284462500Y-108996617D01*
X284395825Y-108661419D01*
X284265037Y-108345669D01*
X284075163Y-108061502D01*
X283833498Y-107819837D01*
X283549331Y-107629963D01*
X283233581Y-107499175D01*
X282898383Y-107432500D01*
X282556617Y-107432500D01*
X282221419Y-107499175D01*
X281905669Y-107629963D01*
X281621502Y-107819837D01*
X281379837Y-108061502D01*
X281189963Y-108345669D01*
X281059175Y-108661419D01*
X280992500Y-108996617D01*
X280992500Y-109338383D01*
X281059175Y-109673581D01*
X281189963Y-109989331D01*
X281379837Y-110273498D01*
X281621502Y-110515163D01*
X281905669Y-110705037D01*
X282221419Y-110835825D01*
X282491764Y-110889600D01*
X33408236Y-110889600D01*
X33678581Y-110835825D01*
X33994331Y-110705037D01*
X34278498Y-110515163D01*
X34520163Y-110273498D01*
X34710037Y-109989331D01*
X34840825Y-109673581D01*
X34907500Y-109338383D01*
X34907500Y-108996617D01*
X34840825Y-108661419D01*
X34710037Y-108345669D01*
X34520163Y-108061502D01*
X34278498Y-107819837D01*
X33994331Y-107629963D01*
X33678581Y-107499175D01*
X33343383Y-107432500D01*
X33001617Y-107432500D01*
X32666419Y-107499175D01*
X32350669Y-107629963D01*
X32066502Y-107819837D01*
X31824837Y-108061502D01*
X31634963Y-108345669D01*
X31504175Y-108661419D01*
X31437500Y-108996617D01*
X31437500Y-109338383D01*
X31504175Y-109673581D01*
X31634963Y-109989331D01*
X31824837Y-110273498D01*
X32066502Y-110515163D01*
X32350669Y-110705037D01*
X32666419Y-110835825D01*
X32936764Y-110889600D01*
X17463348Y-110889600D01*
X17189698Y-110862768D01*
X16963395Y-110794443D01*
X16754672Y-110683464D01*
X16571483Y-110534058D01*
X16420801Y-110351914D01*
X16308369Y-110143977D01*
X16238464Y-109918152D01*
X16209960Y-109646953D01*
X16209960Y-102329117D01*
X105732500Y-102329117D01*
X105732500Y-102670883D01*
X105799175Y-103006081D01*
X105929963Y-103321831D01*
X106119837Y-103605998D01*
X106361502Y-103847663D01*
X106645669Y-104037537D01*
X106961419Y-104168325D01*
X107296617Y-104235000D01*
X107638383Y-104235000D01*
X107973581Y-104168325D01*
X108289331Y-104037537D01*
X108573498Y-103847663D01*
X108815163Y-103605998D01*
X109005037Y-103321831D01*
X109135825Y-103006081D01*
X109202500Y-102670883D01*
X109202500Y-102329117D01*
X196220000Y-102329117D01*
X196220000Y-102670883D01*
X196286675Y-103006081D01*
X196417463Y-103321831D01*
X196607337Y-103605998D01*
X196849002Y-103847663D01*
X197133169Y-104037537D01*
X197448919Y-104168325D01*
X197784117Y-104235000D01*
X198125883Y-104235000D01*
X198461081Y-104168325D01*
X198776831Y-104037537D01*
X199060998Y-103847663D01*
X199302663Y-103605998D01*
X199492537Y-103321831D01*
X199623325Y-103006081D01*
X199690000Y-102670883D01*
X199690000Y-102329117D01*
X199679156Y-102274600D01*
X202681082Y-102274600D01*
X202716512Y-102634323D01*
X202821439Y-102980222D01*
X202991831Y-103299004D01*
X203221141Y-103578419D01*
X203500556Y-103807729D01*
X203819338Y-103978121D01*
X204165237Y-104083048D01*
X204434821Y-104109600D01*
X207415099Y-104109600D01*
X207684683Y-104083048D01*
X208030582Y-103978121D01*
X208349364Y-103807729D01*
X208628779Y-103578419D01*
X208858089Y-103299004D01*
X209028481Y-102980222D01*
X209133408Y-102634323D01*
X209168838Y-102274600D01*
X209133408Y-101914877D01*
X209028481Y-101568978D01*
X208858089Y-101250196D01*
X208628779Y-100970781D01*
X208349364Y-100741471D01*
X208030582Y-100571079D01*
X207684683Y-100466152D01*
X207415099Y-100439600D01*
X204434821Y-100439600D01*
X204165237Y-100466152D01*
X203819338Y-100571079D01*
X203500556Y-100741471D01*
X203221141Y-100970781D01*
X202991831Y-101250196D01*
X202821439Y-101568978D01*
X202716512Y-101914877D01*
X202681082Y-102274600D01*
X199679156Y-102274600D01*
X199623325Y-101993919D01*
X199492537Y-101678169D01*
X199302663Y-101394002D01*
X199060998Y-101152337D01*
X198776831Y-100962463D01*
X198461081Y-100831675D01*
X198125883Y-100765000D01*
X197784117Y-100765000D01*
X197448919Y-100831675D01*
X197133169Y-100962463D01*
X196849002Y-101152337D01*
X196607337Y-101394002D01*
X196417463Y-101678169D01*
X196286675Y-101993919D01*
X196220000Y-102329117D01*
X109202500Y-102329117D01*
X109135825Y-101993919D01*
X109005037Y-101678169D01*
X108815163Y-101394002D01*
X108573498Y-101152337D01*
X108289331Y-100962463D01*
X107973581Y-100831675D01*
X107638383Y-100765000D01*
X107296617Y-100765000D01*
X106961419Y-100831675D01*
X106645669Y-100962463D01*
X106361502Y-101152337D01*
X106119837Y-101394002D01*
X105929963Y-101678169D01*
X105799175Y-101993919D01*
X105732500Y-102329117D01*
X16209960Y-102329117D01*
X16209960Y-75559600D01*
X19263521Y-75559600D01*
X19297140Y-75556289D01*
X19304487Y-75556340D01*
X19315395Y-75555270D01*
X19548311Y-75530790D01*
X19618040Y-75516476D01*
X19687891Y-75503151D01*
X19698383Y-75499984D01*
X19698385Y-75499983D01*
X19698387Y-75499983D01*
X19698389Y-75499982D01*
X19922109Y-75430730D01*
X19987745Y-75403139D01*
X20053668Y-75376504D01*
X20063339Y-75371363D01*
X20063343Y-75371361D01*
X20063346Y-75371359D01*
X20269358Y-75259968D01*
X20328336Y-75220187D01*
X20387874Y-75181226D01*
X20396368Y-75174299D01*
X20576821Y-75025015D01*
X20626946Y-74974539D01*
X20677790Y-74924748D01*
X20684777Y-74916303D01*
X20832797Y-74734812D01*
X20872172Y-74675548D01*
X20912366Y-74616846D01*
X20917579Y-74607205D01*
X21027529Y-74400419D01*
X21054646Y-74334627D01*
X21082669Y-74269244D01*
X21085911Y-74258774D01*
X21153602Y-74034571D01*
X21167430Y-73964736D01*
X21182213Y-73895184D01*
X21183358Y-73884295D01*
X21183360Y-73884284D01*
X21183360Y-73884274D01*
X21206213Y-73651203D01*
X21206213Y-73616920D01*
X21209916Y-73582843D01*
X21209955Y-73571883D01*
X21209926Y-73563505D01*
X21206461Y-73529377D01*
X21206700Y-73495073D01*
X21205630Y-73484165D01*
X21181149Y-73251249D01*
X21166841Y-73181544D01*
X21153511Y-73111670D01*
X21150344Y-73101177D01*
X21081090Y-72877452D01*
X21053510Y-72811842D01*
X21026864Y-72745891D01*
X21021719Y-72736214D01*
X20910328Y-72530202D01*
X20870503Y-72471159D01*
X20831585Y-72411686D01*
X20824659Y-72403192D01*
X20675375Y-72222738D01*
X20624883Y-72172597D01*
X20575108Y-72121769D01*
X20566669Y-72114788D01*
X20566665Y-72114784D01*
X20566661Y-72114781D01*
X20385172Y-71966763D01*
X20325889Y-71927375D01*
X20267206Y-71887195D01*
X20257568Y-71881982D01*
X20257560Y-71881978D01*
X20050779Y-71772031D01*
X19985002Y-71744920D01*
X19919605Y-71716891D01*
X19909135Y-71713649D01*
X19684931Y-71645958D01*
X19615110Y-71632133D01*
X19545545Y-71617347D01*
X19534654Y-71616202D01*
X19534644Y-71616200D01*
X19534635Y-71616200D01*
X19301709Y-71593361D01*
X19263521Y-71589600D01*
X16209960Y-71589600D01*
X16209960Y-64074600D01*
X140381082Y-64074600D01*
X140416512Y-64434323D01*
X140521439Y-64780222D01*
X140691831Y-65099004D01*
X140921141Y-65378419D01*
X141200556Y-65607729D01*
X141519338Y-65778121D01*
X141865237Y-65883048D01*
X142134821Y-65909600D01*
X145115099Y-65909600D01*
X145384683Y-65883048D01*
X145730582Y-65778121D01*
X146049364Y-65607729D01*
X146328779Y-65378419D01*
X146558089Y-65099004D01*
X146728481Y-64780222D01*
X146833408Y-64434323D01*
X146868838Y-64074600D01*
X146833408Y-63714877D01*
X146728481Y-63368978D01*
X146558089Y-63050196D01*
X146328779Y-62770781D01*
X146049364Y-62541471D01*
X145730582Y-62371079D01*
X145384683Y-62266152D01*
X145115099Y-62239600D01*
X142134821Y-62239600D01*
X141865237Y-62266152D01*
X141519338Y-62371079D01*
X141200556Y-62541471D01*
X140921141Y-62770781D01*
X140691831Y-63050196D01*
X140521439Y-63368978D01*
X140416512Y-63714877D01*
X140381082Y-64074600D01*
X16209960Y-64074600D01*
X16209960Y-57561617D01*
X156215000Y-57561617D01*
X156215000Y-57903383D01*
X156281675Y-58238581D01*
X156412463Y-58554331D01*
X156602337Y-58838498D01*
X156844002Y-59080163D01*
X157128169Y-59270037D01*
X157443919Y-59400825D01*
X157779117Y-59467500D01*
X158120883Y-59467500D01*
X158456081Y-59400825D01*
X158771831Y-59270037D01*
X159055998Y-59080163D01*
X159297663Y-58838498D01*
X159487537Y-58554331D01*
X159618325Y-58238581D01*
X159685000Y-57903383D01*
X159685000Y-57561617D01*
X159618325Y-57226419D01*
X159487537Y-56910669D01*
X159297663Y-56626502D01*
X159055998Y-56384837D01*
X158771831Y-56194963D01*
X158456081Y-56064175D01*
X158120883Y-55997500D01*
X157779117Y-55997500D01*
X157443919Y-56064175D01*
X157128169Y-56194963D01*
X156844002Y-56384837D01*
X156602337Y-56626502D01*
X156412463Y-56910669D01*
X156281675Y-57226419D01*
X156215000Y-57561617D01*
X16209960Y-57561617D01*
X16209960Y-44788973D01*
X38740260Y-44788973D01*
X38740260Y-45160227D01*
X38812688Y-45524347D01*
X38954761Y-45867340D01*
X39161018Y-46176026D01*
X39423534Y-46438542D01*
X39732220Y-46644799D01*
X40075213Y-46786872D01*
X40439333Y-46859300D01*
X40810587Y-46859300D01*
X41174707Y-46786872D01*
X41517700Y-46644799D01*
X41826386Y-46438542D01*
X42088902Y-46176026D01*
X42118575Y-46131617D01*
X256227500Y-46131617D01*
X256227500Y-46473383D01*
X256294175Y-46808581D01*
X256424963Y-47124331D01*
X256614837Y-47408498D01*
X256856502Y-47650163D01*
X257140669Y-47840037D01*
X257456419Y-47970825D01*
X257791617Y-48037500D01*
X258133383Y-48037500D01*
X258468581Y-47970825D01*
X258784331Y-47840037D01*
X259068498Y-47650163D01*
X259310163Y-47408498D01*
X259500037Y-47124331D01*
X259630825Y-46808581D01*
X259697500Y-46473383D01*
X259697500Y-46131617D01*
X259630825Y-45796419D01*
X259500037Y-45480669D01*
X259310163Y-45196502D01*
X259088261Y-44974600D01*
X272231082Y-44974600D01*
X272266512Y-45334323D01*
X272371439Y-45680222D01*
X272541831Y-45999004D01*
X272771141Y-46278419D01*
X273050556Y-46507729D01*
X273369338Y-46678121D01*
X273715237Y-46783048D01*
X273984821Y-46809600D01*
X276965099Y-46809600D01*
X277234683Y-46783048D01*
X277580582Y-46678121D01*
X277899364Y-46507729D01*
X278178779Y-46278419D01*
X278408089Y-45999004D01*
X278578481Y-45680222D01*
X278683408Y-45334323D01*
X278718838Y-44974600D01*
X278683408Y-44614877D01*
X278578481Y-44268978D01*
X278408089Y-43950196D01*
X278178779Y-43670781D01*
X277899364Y-43441471D01*
X277580582Y-43271079D01*
X277234683Y-43166152D01*
X276965099Y-43139600D01*
X273984821Y-43139600D01*
X273715237Y-43166152D01*
X273369338Y-43271079D01*
X273050556Y-43441471D01*
X272771141Y-43670781D01*
X272541831Y-43950196D01*
X272371439Y-44268978D01*
X272266512Y-44614877D01*
X272231082Y-44974600D01*
X259088261Y-44974600D01*
X259068498Y-44954837D01*
X258784331Y-44764963D01*
X258468581Y-44634175D01*
X258133383Y-44567500D01*
X257791617Y-44567500D01*
X257456419Y-44634175D01*
X257140669Y-44764963D01*
X256856502Y-44954837D01*
X256614837Y-45196502D01*
X256424963Y-45480669D01*
X256294175Y-45796419D01*
X256227500Y-46131617D01*
X42118575Y-46131617D01*
X42295159Y-45867340D01*
X42437232Y-45524347D01*
X42509660Y-45160227D01*
X42509660Y-44788973D01*
X42437232Y-44424853D01*
X42295159Y-44081860D01*
X42088902Y-43773174D01*
X41826386Y-43510658D01*
X41517700Y-43304401D01*
X41174707Y-43162328D01*
X40810587Y-43089900D01*
X40439333Y-43089900D01*
X40075213Y-43162328D01*
X39732220Y-43304401D01*
X39423534Y-43510658D01*
X39161018Y-43773174D01*
X38954761Y-44081860D01*
X38812688Y-44424853D01*
X38740260Y-44788973D01*
X16209960Y-44788973D01*
X16209960Y-19866024D01*
X16264175Y-20138581D01*
X16394963Y-20454331D01*
X16584837Y-20738498D01*
X16826502Y-20980163D01*
X17110669Y-21170037D01*
X17426419Y-21300825D01*
X17761617Y-21367500D01*
X18103383Y-21367500D01*
X18438581Y-21300825D01*
X18754331Y-21170037D01*
X19038498Y-20980163D01*
X19280163Y-20738498D01*
X19470037Y-20454331D01*
X19600825Y-20138581D01*
X19667500Y-19803383D01*
X19667500Y-19461617D01*
X108590000Y-19461617D01*
X108590000Y-19803383D01*
X108656675Y-20138581D01*
X108787463Y-20454331D01*
X108977337Y-20738498D01*
X109219002Y-20980163D01*
X109503169Y-21170037D01*
X109818919Y-21300825D01*
X110154117Y-21367500D01*
X110495883Y-21367500D01*
X110831081Y-21300825D01*
X111146831Y-21170037D01*
X111430998Y-20980163D01*
X111672663Y-20738498D01*
X111862537Y-20454331D01*
X111993325Y-20138581D01*
X112060000Y-19803383D01*
X112060000Y-19461617D01*
X203840000Y-19461617D01*
X203840000Y-19803383D01*
X203906675Y-20138581D01*
X204037463Y-20454331D01*
X204227337Y-20738498D01*
X204469002Y-20980163D01*
X204753169Y-21170037D01*
X205068919Y-21300825D01*
X205404117Y-21367500D01*
X205745883Y-21367500D01*
X206081081Y-21300825D01*
X206396831Y-21170037D01*
X206680998Y-20980163D01*
X206922663Y-20738498D01*
X207112537Y-20454331D01*
X207243325Y-20138581D01*
X207310000Y-19803383D01*
X207310000Y-19461617D01*
X280992500Y-19461617D01*
X280992500Y-19803383D01*
X281059175Y-20138581D01*
X281189963Y-20454331D01*
X281379837Y-20738498D01*
X281621502Y-20980163D01*
X281905669Y-21170037D01*
X282221419Y-21300825D01*
X282556617Y-21367500D01*
X282898383Y-21367500D01*
X283233581Y-21300825D01*
X283549331Y-21170037D01*
X283833498Y-20980163D01*
X284075163Y-20738498D01*
X284265037Y-20454331D01*
X284395825Y-20138581D01*
X284462500Y-19803383D01*
X284462500Y-19461617D01*
X284395825Y-19126419D01*
X284265037Y-18810669D01*
X284075163Y-18526502D01*
X283833498Y-18284837D01*
X283549331Y-18094963D01*
X283233581Y-17964175D01*
X282898383Y-17897500D01*
X282556617Y-17897500D01*
X282221419Y-17964175D01*
X281905669Y-18094963D01*
X281621502Y-18284837D01*
X281379837Y-18526502D01*
X281189963Y-18810669D01*
X281059175Y-19126419D01*
X280992500Y-19461617D01*
X207310000Y-19461617D01*
X207243325Y-19126419D01*
X207112537Y-18810669D01*
X206922663Y-18526502D01*
X206680998Y-18284837D01*
X206396831Y-18094963D01*
X206081081Y-17964175D01*
X205745883Y-17897500D01*
X205404117Y-17897500D01*
X205068919Y-17964175D01*
X204753169Y-18094963D01*
X204469002Y-18284837D01*
X204227337Y-18526502D01*
X204037463Y-18810669D01*
X203906675Y-19126419D01*
X203840000Y-19461617D01*
X112060000Y-19461617D01*
X111993325Y-19126419D01*
X111862537Y-18810669D01*
X111672663Y-18526502D01*
X111430998Y-18284837D01*
X111146831Y-18094963D01*
X110831081Y-17964175D01*
X110495883Y-17897500D01*
X110154117Y-17897500D01*
X109818919Y-17964175D01*
X109503169Y-18094963D01*
X109219002Y-18284837D01*
X108977337Y-18526502D01*
X108787463Y-18810669D01*
X108656675Y-19126419D01*
X108590000Y-19461617D01*
X19667500Y-19461617D01*
X19600825Y-19126419D01*
X19470037Y-18810669D01*
X19280163Y-18526502D01*
X19038498Y-18284837D01*
X18754331Y-18094963D01*
X18438581Y-17964175D01*
X18103383Y-17897500D01*
X17761617Y-17897500D01*
X17426419Y-17964175D01*
X17110669Y-18094963D01*
X16826502Y-18284837D01*
X16584837Y-18526502D01*
X16394963Y-18810669D01*
X16264175Y-19126419D01*
X16209960Y-19398976D01*
X16209960Y-19112988D01*
X16236792Y-18839340D01*
X16305118Y-18613032D01*
X16416097Y-18404312D01*
X16565504Y-18221122D01*
X16747648Y-18070438D01*
X16955584Y-17958008D01*
X17181407Y-17888104D01*
X17452607Y-17859600D01*
X298386572Y-17859600D01*
X298660220Y-17886432D01*
%TA.AperFunction,NonConductor*%
D11*
G36*
X298660220Y-17886432D02*
G01*
X298886528Y-17954758D01*
X299095248Y-18065737D01*
X299278438Y-18215144D01*
X299429122Y-18397288D01*
X299541552Y-18605224D01*
X299611456Y-18831047D01*
X299639961Y-19102256D01*
X299639960Y-71589600D01*
X296586399Y-71589600D01*
X296552780Y-71592911D01*
X296545433Y-71592860D01*
X296534525Y-71593930D01*
X296301609Y-71618411D01*
X296231904Y-71632719D01*
X296162030Y-71646049D01*
X296151537Y-71649216D01*
X296151535Y-71649217D01*
X296151533Y-71649217D01*
X296151531Y-71649218D01*
X295927812Y-71718470D01*
X295862202Y-71746050D01*
X295796251Y-71772696D01*
X295786581Y-71777837D01*
X295786577Y-71777839D01*
X295786574Y-71777841D01*
X295580562Y-71889232D01*
X295521519Y-71929057D01*
X295462046Y-71967975D01*
X295453552Y-71974901D01*
X295453549Y-71974903D01*
X295453548Y-71974904D01*
X295273098Y-72124185D01*
X295222957Y-72174677D01*
X295172129Y-72224452D01*
X295165148Y-72232891D01*
X295165144Y-72232895D01*
X295165143Y-72232897D01*
X295017123Y-72414388D01*
X294977735Y-72473671D01*
X294937555Y-72532354D01*
X294932341Y-72541995D01*
X294822391Y-72748781D01*
X294795280Y-72814558D01*
X294767251Y-72879955D01*
X294764009Y-72890425D01*
X294696318Y-73114629D01*
X294682493Y-73184450D01*
X294667707Y-73254015D01*
X294666562Y-73264906D01*
X294666560Y-73264916D01*
X294666560Y-73264925D01*
X294643707Y-73497997D01*
X294643707Y-73532280D01*
X294640004Y-73566357D01*
X294639965Y-73577317D01*
X294639994Y-73585695D01*
X294643459Y-73619823D01*
X294643220Y-73654127D01*
X294644290Y-73665035D01*
X294668770Y-73897951D01*
X294683084Y-73967680D01*
X294696409Y-74037531D01*
X294699576Y-74048023D01*
X294768830Y-74271749D01*
X294796421Y-74337385D01*
X294823056Y-74403308D01*
X294828201Y-74412986D01*
X294939592Y-74618998D01*
X294979373Y-74677976D01*
X295018334Y-74737514D01*
X295025261Y-74746008D01*
X295174545Y-74926461D01*
X295225021Y-74976586D01*
X295274812Y-75027430D01*
X295283257Y-75034417D01*
X295464748Y-75182437D01*
X295524012Y-75221812D01*
X295582714Y-75262006D01*
X295592355Y-75267219D01*
X295799141Y-75377169D01*
X295864933Y-75404286D01*
X295930316Y-75432309D01*
X295940786Y-75435551D01*
X296164989Y-75503242D01*
X296234824Y-75517070D01*
X296304376Y-75531853D01*
X296315265Y-75532998D01*
X296315276Y-75533000D01*
X296315286Y-75533000D01*
X296548211Y-75555839D01*
X296586399Y-75559600D01*
X299639960Y-75559600D01*
X299639961Y-109636201D01*
X299613128Y-109909862D01*
X299544803Y-110136165D01*
X299433824Y-110344888D01*
X299284418Y-110528077D01*
X299102274Y-110678759D01*
X298894337Y-110791191D01*
X298668512Y-110861096D01*
X298397313Y-110889600D01*
X282963236Y-110889600D01*
X283233581Y-110835825D01*
X283549331Y-110705037D01*
X283833498Y-110515163D01*
X284075163Y-110273498D01*
X284265037Y-109989331D01*
X284395825Y-109673581D01*
X284462500Y-109338383D01*
X284462500Y-108996617D01*
X284395825Y-108661419D01*
X284265037Y-108345669D01*
X284075163Y-108061502D01*
X283833498Y-107819837D01*
X283549331Y-107629963D01*
X283233581Y-107499175D01*
X282898383Y-107432500D01*
X282556617Y-107432500D01*
X282221419Y-107499175D01*
X281905669Y-107629963D01*
X281621502Y-107819837D01*
X281379837Y-108061502D01*
X281189963Y-108345669D01*
X281059175Y-108661419D01*
X280992500Y-108996617D01*
X280992500Y-109338383D01*
X281059175Y-109673581D01*
X281189963Y-109989331D01*
X281379837Y-110273498D01*
X281621502Y-110515163D01*
X281905669Y-110705037D01*
X282221419Y-110835825D01*
X282491764Y-110889600D01*
X33408236Y-110889600D01*
X33678581Y-110835825D01*
X33994331Y-110705037D01*
X34278498Y-110515163D01*
X34520163Y-110273498D01*
X34710037Y-109989331D01*
X34840825Y-109673581D01*
X34907500Y-109338383D01*
X34907500Y-108996617D01*
X34840825Y-108661419D01*
X34710037Y-108345669D01*
X34520163Y-108061502D01*
X34278498Y-107819837D01*
X33994331Y-107629963D01*
X33678581Y-107499175D01*
X33343383Y-107432500D01*
X33001617Y-107432500D01*
X32666419Y-107499175D01*
X32350669Y-107629963D01*
X32066502Y-107819837D01*
X31824837Y-108061502D01*
X31634963Y-108345669D01*
X31504175Y-108661419D01*
X31437500Y-108996617D01*
X31437500Y-109338383D01*
X31504175Y-109673581D01*
X31634963Y-109989331D01*
X31824837Y-110273498D01*
X32066502Y-110515163D01*
X32350669Y-110705037D01*
X32666419Y-110835825D01*
X32936764Y-110889600D01*
X17463348Y-110889600D01*
X17189698Y-110862768D01*
X16963395Y-110794443D01*
X16754672Y-110683464D01*
X16571483Y-110534058D01*
X16420801Y-110351914D01*
X16308369Y-110143977D01*
X16238464Y-109918152D01*
X16209960Y-109646953D01*
X16209960Y-102329117D01*
X105732500Y-102329117D01*
X105732500Y-102670883D01*
X105799175Y-103006081D01*
X105929963Y-103321831D01*
X106119837Y-103605998D01*
X106361502Y-103847663D01*
X106645669Y-104037537D01*
X106961419Y-104168325D01*
X107296617Y-104235000D01*
X107638383Y-104235000D01*
X107973581Y-104168325D01*
X108289331Y-104037537D01*
X108573498Y-103847663D01*
X108815163Y-103605998D01*
X109005037Y-103321831D01*
X109135825Y-103006081D01*
X109202500Y-102670883D01*
X109202500Y-102329117D01*
X196220000Y-102329117D01*
X196220000Y-102670883D01*
X196286675Y-103006081D01*
X196417463Y-103321831D01*
X196607337Y-103605998D01*
X196849002Y-103847663D01*
X197133169Y-104037537D01*
X197448919Y-104168325D01*
X197784117Y-104235000D01*
X198125883Y-104235000D01*
X198461081Y-104168325D01*
X198776831Y-104037537D01*
X199060998Y-103847663D01*
X199302663Y-103605998D01*
X199492537Y-103321831D01*
X199623325Y-103006081D01*
X199690000Y-102670883D01*
X199690000Y-102329117D01*
X199679156Y-102274600D01*
X202681082Y-102274600D01*
X202716512Y-102634323D01*
X202821439Y-102980222D01*
X202991831Y-103299004D01*
X203221141Y-103578419D01*
X203500556Y-103807729D01*
X203819338Y-103978121D01*
X204165237Y-104083048D01*
X204434821Y-104109600D01*
X207415099Y-104109600D01*
X207684683Y-104083048D01*
X208030582Y-103978121D01*
X208349364Y-103807729D01*
X208628779Y-103578419D01*
X208858089Y-103299004D01*
X209028481Y-102980222D01*
X209133408Y-102634323D01*
X209168838Y-102274600D01*
X209133408Y-101914877D01*
X209028481Y-101568978D01*
X208858089Y-101250196D01*
X208628779Y-100970781D01*
X208349364Y-100741471D01*
X208030582Y-100571079D01*
X207684683Y-100466152D01*
X207415099Y-100439600D01*
X204434821Y-100439600D01*
X204165237Y-100466152D01*
X203819338Y-100571079D01*
X203500556Y-100741471D01*
X203221141Y-100970781D01*
X202991831Y-101250196D01*
X202821439Y-101568978D01*
X202716512Y-101914877D01*
X202681082Y-102274600D01*
X199679156Y-102274600D01*
X199623325Y-101993919D01*
X199492537Y-101678169D01*
X199302663Y-101394002D01*
X199060998Y-101152337D01*
X198776831Y-100962463D01*
X198461081Y-100831675D01*
X198125883Y-100765000D01*
X197784117Y-100765000D01*
X197448919Y-100831675D01*
X197133169Y-100962463D01*
X196849002Y-101152337D01*
X196607337Y-101394002D01*
X196417463Y-101678169D01*
X196286675Y-101993919D01*
X196220000Y-102329117D01*
X109202500Y-102329117D01*
X109135825Y-101993919D01*
X109005037Y-101678169D01*
X108815163Y-101394002D01*
X108573498Y-101152337D01*
X108289331Y-100962463D01*
X107973581Y-100831675D01*
X107638383Y-100765000D01*
X107296617Y-100765000D01*
X106961419Y-100831675D01*
X106645669Y-100962463D01*
X106361502Y-101152337D01*
X106119837Y-101394002D01*
X105929963Y-101678169D01*
X105799175Y-101993919D01*
X105732500Y-102329117D01*
X16209960Y-102329117D01*
X16209960Y-75559600D01*
X19263521Y-75559600D01*
X19297140Y-75556289D01*
X19304487Y-75556340D01*
X19315395Y-75555270D01*
X19548311Y-75530790D01*
X19618040Y-75516476D01*
X19687891Y-75503151D01*
X19698383Y-75499984D01*
X19698385Y-75499983D01*
X19698387Y-75499983D01*
X19698389Y-75499982D01*
X19922109Y-75430730D01*
X19987745Y-75403139D01*
X20053668Y-75376504D01*
X20063339Y-75371363D01*
X20063343Y-75371361D01*
X20063346Y-75371359D01*
X20269358Y-75259968D01*
X20328336Y-75220187D01*
X20387874Y-75181226D01*
X20396368Y-75174299D01*
X20576821Y-75025015D01*
X20626946Y-74974539D01*
X20677790Y-74924748D01*
X20684777Y-74916303D01*
X20832797Y-74734812D01*
X20872172Y-74675548D01*
X20912366Y-74616846D01*
X20917579Y-74607205D01*
X21027529Y-74400419D01*
X21054646Y-74334627D01*
X21082669Y-74269244D01*
X21085911Y-74258774D01*
X21153602Y-74034571D01*
X21167430Y-73964736D01*
X21182213Y-73895184D01*
X21183358Y-73884295D01*
X21183360Y-73884284D01*
X21183360Y-73884274D01*
X21206213Y-73651203D01*
X21206213Y-73616920D01*
X21209916Y-73582843D01*
X21209955Y-73571883D01*
X21209926Y-73563505D01*
X21206461Y-73529377D01*
X21206700Y-73495073D01*
X21205630Y-73484165D01*
X21181149Y-73251249D01*
X21166841Y-73181544D01*
X21153511Y-73111670D01*
X21150344Y-73101177D01*
X21081090Y-72877452D01*
X21053510Y-72811842D01*
X21026864Y-72745891D01*
X21021719Y-72736214D01*
X20910328Y-72530202D01*
X20870503Y-72471159D01*
X20831585Y-72411686D01*
X20824659Y-72403192D01*
X20675375Y-72222738D01*
X20624883Y-72172597D01*
X20575108Y-72121769D01*
X20566669Y-72114788D01*
X20566665Y-72114784D01*
X20566661Y-72114781D01*
X20385172Y-71966763D01*
X20325889Y-71927375D01*
X20267206Y-71887195D01*
X20257568Y-71881982D01*
X20257560Y-71881978D01*
X20050779Y-71772031D01*
X19985002Y-71744920D01*
X19919605Y-71716891D01*
X19909135Y-71713649D01*
X19684931Y-71645958D01*
X19615110Y-71632133D01*
X19545545Y-71617347D01*
X19534654Y-71616202D01*
X19534644Y-71616200D01*
X19534635Y-71616200D01*
X19301709Y-71593361D01*
X19263521Y-71589600D01*
X16209960Y-71589600D01*
X16209960Y-64074600D01*
X140381082Y-64074600D01*
X140416512Y-64434323D01*
X140521439Y-64780222D01*
X140691831Y-65099004D01*
X140921141Y-65378419D01*
X141200556Y-65607729D01*
X141519338Y-65778121D01*
X141865237Y-65883048D01*
X142134821Y-65909600D01*
X145115099Y-65909600D01*
X145384683Y-65883048D01*
X145730582Y-65778121D01*
X146049364Y-65607729D01*
X146328779Y-65378419D01*
X146558089Y-65099004D01*
X146728481Y-64780222D01*
X146833408Y-64434323D01*
X146868838Y-64074600D01*
X146833408Y-63714877D01*
X146728481Y-63368978D01*
X146558089Y-63050196D01*
X146328779Y-62770781D01*
X146049364Y-62541471D01*
X145730582Y-62371079D01*
X145384683Y-62266152D01*
X145115099Y-62239600D01*
X142134821Y-62239600D01*
X141865237Y-62266152D01*
X141519338Y-62371079D01*
X141200556Y-62541471D01*
X140921141Y-62770781D01*
X140691831Y-63050196D01*
X140521439Y-63368978D01*
X140416512Y-63714877D01*
X140381082Y-64074600D01*
X16209960Y-64074600D01*
X16209960Y-57561617D01*
X156215000Y-57561617D01*
X156215000Y-57903383D01*
X156281675Y-58238581D01*
X156412463Y-58554331D01*
X156602337Y-58838498D01*
X156844002Y-59080163D01*
X157128169Y-59270037D01*
X157443919Y-59400825D01*
X157779117Y-59467500D01*
X158120883Y-59467500D01*
X158456081Y-59400825D01*
X158771831Y-59270037D01*
X159055998Y-59080163D01*
X159297663Y-58838498D01*
X159487537Y-58554331D01*
X159618325Y-58238581D01*
X159685000Y-57903383D01*
X159685000Y-57561617D01*
X159618325Y-57226419D01*
X159487537Y-56910669D01*
X159297663Y-56626502D01*
X159055998Y-56384837D01*
X158771831Y-56194963D01*
X158456081Y-56064175D01*
X158120883Y-55997500D01*
X157779117Y-55997500D01*
X157443919Y-56064175D01*
X157128169Y-56194963D01*
X156844002Y-56384837D01*
X156602337Y-56626502D01*
X156412463Y-56910669D01*
X156281675Y-57226419D01*
X156215000Y-57561617D01*
X16209960Y-57561617D01*
X16209960Y-44788973D01*
X38740260Y-44788973D01*
X38740260Y-45160227D01*
X38812688Y-45524347D01*
X38954761Y-45867340D01*
X39161018Y-46176026D01*
X39423534Y-46438542D01*
X39732220Y-46644799D01*
X40075213Y-46786872D01*
X40439333Y-46859300D01*
X40810587Y-46859300D01*
X41174707Y-46786872D01*
X41517700Y-46644799D01*
X41826386Y-46438542D01*
X42088902Y-46176026D01*
X42118575Y-46131617D01*
X256227500Y-46131617D01*
X256227500Y-46473383D01*
X256294175Y-46808581D01*
X256424963Y-47124331D01*
X256614837Y-47408498D01*
X256856502Y-47650163D01*
X257140669Y-47840037D01*
X257456419Y-47970825D01*
X257791617Y-48037500D01*
X258133383Y-48037500D01*
X258468581Y-47970825D01*
X258784331Y-47840037D01*
X259068498Y-47650163D01*
X259310163Y-47408498D01*
X259500037Y-47124331D01*
X259630825Y-46808581D01*
X259697500Y-46473383D01*
X259697500Y-46131617D01*
X259630825Y-45796419D01*
X259500037Y-45480669D01*
X259310163Y-45196502D01*
X259088261Y-44974600D01*
X272231082Y-44974600D01*
X272266512Y-45334323D01*
X272371439Y-45680222D01*
X272541831Y-45999004D01*
X272771141Y-46278419D01*
X273050556Y-46507729D01*
X273369338Y-46678121D01*
X273715237Y-46783048D01*
X273984821Y-46809600D01*
X276965099Y-46809600D01*
X277234683Y-46783048D01*
X277580582Y-46678121D01*
X277899364Y-46507729D01*
X278178779Y-46278419D01*
X278408089Y-45999004D01*
X278578481Y-45680222D01*
X278683408Y-45334323D01*
X278718838Y-44974600D01*
X278683408Y-44614877D01*
X278578481Y-44268978D01*
X278408089Y-43950196D01*
X278178779Y-43670781D01*
X277899364Y-43441471D01*
X277580582Y-43271079D01*
X277234683Y-43166152D01*
X276965099Y-43139600D01*
X273984821Y-43139600D01*
X273715237Y-43166152D01*
X273369338Y-43271079D01*
X273050556Y-43441471D01*
X272771141Y-43670781D01*
X272541831Y-43950196D01*
X272371439Y-44268978D01*
X272266512Y-44614877D01*
X272231082Y-44974600D01*
X259088261Y-44974600D01*
X259068498Y-44954837D01*
X258784331Y-44764963D01*
X258468581Y-44634175D01*
X258133383Y-44567500D01*
X257791617Y-44567500D01*
X257456419Y-44634175D01*
X257140669Y-44764963D01*
X256856502Y-44954837D01*
X256614837Y-45196502D01*
X256424963Y-45480669D01*
X256294175Y-45796419D01*
X256227500Y-46131617D01*
X42118575Y-46131617D01*
X42295159Y-45867340D01*
X42437232Y-45524347D01*
X42509660Y-45160227D01*
X42509660Y-44788973D01*
X42437232Y-44424853D01*
X42295159Y-44081860D01*
X42088902Y-43773174D01*
X41826386Y-43510658D01*
X41517700Y-43304401D01*
X41174707Y-43162328D01*
X40810587Y-43089900D01*
X40439333Y-43089900D01*
X40075213Y-43162328D01*
X39732220Y-43304401D01*
X39423534Y-43510658D01*
X39161018Y-43773174D01*
X38954761Y-44081860D01*
X38812688Y-44424853D01*
X38740260Y-44788973D01*
X16209960Y-44788973D01*
X16209960Y-19866024D01*
X16264175Y-20138581D01*
X16394963Y-20454331D01*
X16584837Y-20738498D01*
X16826502Y-20980163D01*
X17110669Y-21170037D01*
X17426419Y-21300825D01*
X17761617Y-21367500D01*
X18103383Y-21367500D01*
X18438581Y-21300825D01*
X18754331Y-21170037D01*
X19038498Y-20980163D01*
X19280163Y-20738498D01*
X19470037Y-20454331D01*
X19600825Y-20138581D01*
X19667500Y-19803383D01*
X19667500Y-19461617D01*
X108590000Y-19461617D01*
X108590000Y-19803383D01*
X108656675Y-20138581D01*
X108787463Y-20454331D01*
X108977337Y-20738498D01*
X109219002Y-20980163D01*
X109503169Y-21170037D01*
X109818919Y-21300825D01*
X110154117Y-21367500D01*
X110495883Y-21367500D01*
X110831081Y-21300825D01*
X111146831Y-21170037D01*
X111430998Y-20980163D01*
X111672663Y-20738498D01*
X111862537Y-20454331D01*
X111993325Y-20138581D01*
X112060000Y-19803383D01*
X112060000Y-19461617D01*
X203840000Y-19461617D01*
X203840000Y-19803383D01*
X203906675Y-20138581D01*
X204037463Y-20454331D01*
X204227337Y-20738498D01*
X204469002Y-20980163D01*
X204753169Y-21170037D01*
X205068919Y-21300825D01*
X205404117Y-21367500D01*
X205745883Y-21367500D01*
X206081081Y-21300825D01*
X206396831Y-21170037D01*
X206680998Y-20980163D01*
X206922663Y-20738498D01*
X207112537Y-20454331D01*
X207243325Y-20138581D01*
X207310000Y-19803383D01*
X207310000Y-19461617D01*
X280992500Y-19461617D01*
X280992500Y-19803383D01*
X281059175Y-20138581D01*
X281189963Y-20454331D01*
X281379837Y-20738498D01*
X281621502Y-20980163D01*
X281905669Y-21170037D01*
X282221419Y-21300825D01*
X282556617Y-21367500D01*
X282898383Y-21367500D01*
X283233581Y-21300825D01*
X283549331Y-21170037D01*
X283833498Y-20980163D01*
X284075163Y-20738498D01*
X284265037Y-20454331D01*
X284395825Y-20138581D01*
X284462500Y-19803383D01*
X284462500Y-19461617D01*
X284395825Y-19126419D01*
X284265037Y-18810669D01*
X284075163Y-18526502D01*
X283833498Y-18284837D01*
X283549331Y-18094963D01*
X283233581Y-17964175D01*
X282898383Y-17897500D01*
X282556617Y-17897500D01*
X282221419Y-17964175D01*
X281905669Y-18094963D01*
X281621502Y-18284837D01*
X281379837Y-18526502D01*
X281189963Y-18810669D01*
X281059175Y-19126419D01*
X280992500Y-19461617D01*
X207310000Y-19461617D01*
X207243325Y-19126419D01*
X207112537Y-18810669D01*
X206922663Y-18526502D01*
X206680998Y-18284837D01*
X206396831Y-18094963D01*
X206081081Y-17964175D01*
X205745883Y-17897500D01*
X205404117Y-17897500D01*
X205068919Y-17964175D01*
X204753169Y-18094963D01*
X204469002Y-18284837D01*
X204227337Y-18526502D01*
X204037463Y-18810669D01*
X203906675Y-19126419D01*
X203840000Y-19461617D01*
X112060000Y-19461617D01*
X111993325Y-19126419D01*
X111862537Y-18810669D01*
X111672663Y-18526502D01*
X111430998Y-18284837D01*
X111146831Y-18094963D01*
X110831081Y-17964175D01*
X110495883Y-17897500D01*
X110154117Y-17897500D01*
X109818919Y-17964175D01*
X109503169Y-18094963D01*
X109219002Y-18284837D01*
X108977337Y-18526502D01*
X108787463Y-18810669D01*
X108656675Y-19126419D01*
X108590000Y-19461617D01*
X19667500Y-19461617D01*
X19600825Y-19126419D01*
X19470037Y-18810669D01*
X19280163Y-18526502D01*
X19038498Y-18284837D01*
X18754331Y-18094963D01*
X18438581Y-17964175D01*
X18103383Y-17897500D01*
X17761617Y-17897500D01*
X17426419Y-17964175D01*
X17110669Y-18094963D01*
X16826502Y-18284837D01*
X16584837Y-18526502D01*
X16394963Y-18810669D01*
X16264175Y-19126419D01*
X16209960Y-19398976D01*
X16209960Y-19112988D01*
X16236792Y-18839340D01*
X16305118Y-18613032D01*
X16416097Y-18404312D01*
X16565504Y-18221122D01*
X16747648Y-18070438D01*
X16955584Y-17958008D01*
X17181407Y-17888104D01*
X17452607Y-17859600D01*
X298386572Y-17859600D01*
X298660220Y-17886432D01*
G37*
%TD.AperFunction*%
M02*
