%TF.GenerationSoftware,KiCad,Pcbnew,(5.1.10-1-10_14)*%
%TF.CreationDate,2021-05-27T16:08:53+09:00*%
%TF.ProjectId,Jones_plate_bottom,4a6f6e65-735f-4706-9c61-74655f626f74,rev?*%
%TF.SameCoordinates,Original*%
%TF.FileFunction,Legend,Bot*%
%TF.FilePolarity,Positive*%
%FSLAX46Y46*%
G04 Gerber Fmt 4.6, Leading zero omitted, Abs format (unit mm)*
G04 Created by KiCad (PCBNEW (5.1.10-1-10_14)) date 2021-05-27 16:08:53*
%MOMM*%
%LPD*%
G01*
G04 APERTURE LIST*
%ADD10C,0.120000*%
G04 APERTURE END LIST*
D10*
X163425000Y-40000000D02*
X164425000Y-40000000D01*
X162925000Y-25500000D02*
X162925000Y-26500000D01*
X152925000Y-25500000D02*
X152925000Y-26500000D01*
X159425000Y-22000000D02*
X160425000Y-22000000D01*
X161425000Y-26000000D02*
X164425000Y-26000000D01*
X151425000Y-26000000D02*
X154425000Y-26000000D01*
X151425000Y-36000000D02*
X164500000Y-36000000D01*
X153425000Y-40000000D02*
X154425000Y-40000000D01*
X163425000Y-22000000D02*
X164425000Y-22000000D01*
X153425000Y-22000000D02*
X154425000Y-22000000D01*
X159425000Y-34000000D02*
X160425000Y-34000000D01*
X161425000Y-34000000D02*
X162425000Y-34000000D01*
X151425000Y-34000000D02*
X152425000Y-34000000D01*
X162925000Y-29500000D02*
X162925000Y-30500000D01*
X152925000Y-29500000D02*
X152925000Y-30500000D01*
X161425000Y-28000000D02*
X162425000Y-28000000D01*
X151425000Y-28000000D02*
X152425000Y-28000000D01*
X151425000Y-42000000D02*
X164500000Y-42000000D01*
X161425000Y-22000000D02*
X162425000Y-22000000D01*
X151425000Y-22000000D02*
X152425000Y-22000000D01*
X153425000Y-28000000D02*
X154425000Y-28000000D01*
X157925000Y-17000000D02*
X157925000Y-35000000D01*
X151425000Y-32000000D02*
X154425000Y-32000000D01*
X161425000Y-32000000D02*
X164425000Y-32000000D01*
X159425000Y-28000000D02*
X160425000Y-28000000D01*
X152925000Y-27500000D02*
X152925000Y-28500000D01*
X162925000Y-27500000D02*
X162925000Y-28500000D01*
X157925000Y-35000000D02*
X157925000Y-43000000D01*
X162925000Y-41500000D02*
X162925000Y-42500000D01*
X152925000Y-41500000D02*
X152925000Y-42500000D01*
X155425000Y-22000000D02*
X156425000Y-22000000D01*
X162925000Y-35500000D02*
X162925000Y-36500000D01*
X152925000Y-35500000D02*
X152925000Y-36500000D01*
X162925000Y-37500000D02*
X162925000Y-38500000D01*
X152925000Y-37500000D02*
X152925000Y-38500000D01*
X162925000Y-19500000D02*
X162925000Y-20500000D01*
X152925000Y-19500000D02*
X152925000Y-20500000D01*
X161425000Y-20000000D02*
X164425000Y-20000000D01*
X151425000Y-20000000D02*
X154425000Y-20000000D01*
X152925000Y-31500000D02*
X152925000Y-32500000D01*
X163425000Y-34000000D02*
X164425000Y-34000000D01*
X153425000Y-34000000D02*
X154425000Y-34000000D01*
X162925000Y-39500000D02*
X162925000Y-40500000D01*
X152925000Y-39500000D02*
X152925000Y-40500000D01*
X157425000Y-40000000D02*
X158425000Y-40000000D01*
X162925000Y-17500000D02*
X162925000Y-18500000D01*
X152925000Y-17500000D02*
X152925000Y-18500000D01*
X161425000Y-40000000D02*
X162425000Y-40000000D01*
X151425000Y-40000000D02*
X152425000Y-40000000D01*
X157425000Y-22000000D02*
X158425000Y-22000000D01*
X162925000Y-23500000D02*
X162925000Y-24500000D01*
X152925000Y-23500000D02*
X152925000Y-24500000D01*
X155425000Y-28000000D02*
X156425000Y-28000000D01*
X156425000Y-26000000D02*
X159425000Y-26000000D01*
X163425000Y-28000000D02*
X164425000Y-28000000D01*
X151425000Y-18000000D02*
X164500000Y-18000000D01*
X162925000Y-31500000D02*
X162925000Y-32500000D01*
X155425000Y-40000000D02*
X156425000Y-40000000D01*
X156425000Y-32000000D02*
X159425000Y-32000000D01*
X161425000Y-38000000D02*
X164425000Y-38000000D01*
X151425000Y-38000000D02*
X154425000Y-38000000D01*
X162925000Y-21500000D02*
X162925000Y-22500000D01*
X152925000Y-21500000D02*
X152925000Y-22500000D01*
X151425000Y-30000000D02*
X164500000Y-30000000D01*
X159425000Y-40000000D02*
X160425000Y-40000000D01*
X162925000Y-33500000D02*
X162925000Y-34500000D01*
X152925000Y-33500000D02*
X152925000Y-34500000D01*
X157425000Y-28000000D02*
X158425000Y-28000000D01*
X155425000Y-34000000D02*
X156425000Y-34000000D01*
X151425000Y-24000000D02*
X164500000Y-24000000D01*
X156425000Y-20000000D02*
X159425000Y-20000000D01*
X156425000Y-38000000D02*
X159425000Y-38000000D01*
X157425000Y-34000000D02*
X158425000Y-34000000D01*
X157425000Y-102750000D02*
X158425000Y-102750000D01*
X161425000Y-96750000D02*
X162425000Y-96750000D01*
X151425000Y-106750000D02*
X154425000Y-106750000D01*
X161425000Y-106750000D02*
X164425000Y-106750000D01*
X151425000Y-96750000D02*
X152425000Y-96750000D01*
X162925000Y-98250000D02*
X162925000Y-99250000D01*
X157925000Y-91750000D02*
X157925000Y-111750000D01*
X152925000Y-100250000D02*
X152925000Y-101250000D01*
X157425000Y-108750000D02*
X158425000Y-108750000D01*
X162925000Y-94250000D02*
X162925000Y-95250000D01*
X161425000Y-102750000D02*
X162425000Y-102750000D01*
X151425000Y-92750000D02*
X164500000Y-92750000D01*
X152925000Y-106250000D02*
X152925000Y-107250000D01*
X155425000Y-108750000D02*
X156425000Y-108750000D01*
X151425000Y-98750000D02*
X164500000Y-98750000D01*
X162925000Y-108250000D02*
X162925000Y-109250000D01*
X159425000Y-102750000D02*
X160425000Y-102750000D01*
X161425000Y-100750000D02*
X164425000Y-100750000D01*
X163425000Y-102750000D02*
X164425000Y-102750000D01*
X159425000Y-96750000D02*
X160425000Y-96750000D01*
X152925000Y-108250000D02*
X152925000Y-109250000D01*
X156425000Y-94750000D02*
X159425000Y-94750000D01*
X151425000Y-100750000D02*
X154425000Y-100750000D01*
X152925000Y-102250000D02*
X152925000Y-103250000D01*
X162925000Y-100250000D02*
X162925000Y-101250000D01*
X151425000Y-104750000D02*
X164500000Y-104750000D01*
X153425000Y-102750000D02*
X154425000Y-102750000D01*
X151425000Y-102750000D02*
X152425000Y-102750000D01*
X155425000Y-96750000D02*
X156425000Y-96750000D01*
X151425000Y-110750000D02*
X164500000Y-110750000D01*
X162925000Y-110250000D02*
X162925000Y-111250000D01*
X152925000Y-110250000D02*
X152925000Y-111250000D01*
X162925000Y-92250000D02*
X162925000Y-93250000D01*
X152925000Y-104250000D02*
X152925000Y-105250000D01*
X157425000Y-96750000D02*
X158425000Y-96750000D01*
X152925000Y-98250000D02*
X152925000Y-99250000D01*
X152925000Y-92250000D02*
X152925000Y-93250000D01*
X162925000Y-106250000D02*
X162925000Y-107250000D01*
X156425000Y-100750000D02*
X159425000Y-100750000D01*
X162925000Y-102250000D02*
X162925000Y-103250000D01*
X161425000Y-108750000D02*
X162425000Y-108750000D01*
X151425000Y-108750000D02*
X152425000Y-108750000D01*
X153425000Y-96750000D02*
X154425000Y-96750000D01*
X162925000Y-104250000D02*
X162925000Y-105250000D01*
X163425000Y-108750000D02*
X164425000Y-108750000D01*
X153425000Y-108750000D02*
X154425000Y-108750000D01*
X159425000Y-108750000D02*
X160425000Y-108750000D01*
X161425000Y-94750000D02*
X164425000Y-94750000D01*
X151425000Y-94750000D02*
X154425000Y-94750000D01*
X162925000Y-96250000D02*
X162925000Y-97250000D01*
X152925000Y-96250000D02*
X152925000Y-97250000D01*
X155425000Y-102750000D02*
X156425000Y-102750000D01*
X156425000Y-106750000D02*
X159425000Y-106750000D01*
X152925000Y-94250000D02*
X152925000Y-95250000D01*
X163425000Y-96750000D02*
X164425000Y-96750000D01*
X268850000Y-100200000D02*
X268850000Y-101200000D01*
X273350000Y-108700000D02*
X274350000Y-108700000D01*
X298850000Y-100200000D02*
X298850000Y-101200000D01*
X298850000Y-94200000D02*
X298850000Y-95200000D01*
X288850000Y-94200000D02*
X288850000Y-95200000D01*
X278850000Y-94200000D02*
X278850000Y-95200000D01*
X287350000Y-102700000D02*
X288350000Y-102700000D01*
X277350000Y-102700000D02*
X278350000Y-102700000D01*
X258850000Y-106200000D02*
X258850000Y-107200000D01*
X277350000Y-92700000D02*
X287350000Y-92700000D01*
X267350000Y-92700000D02*
X277350000Y-92700000D01*
X268850000Y-106200000D02*
X268850000Y-107200000D01*
X288850000Y-100200000D02*
X288850000Y-101200000D01*
X263850000Y-91700000D02*
X263850000Y-111700000D01*
X298850000Y-104200000D02*
X298850000Y-105200000D01*
X257350000Y-92700000D02*
X267350000Y-92700000D01*
X287350000Y-110700000D02*
X297350000Y-110700000D01*
X281350000Y-108700000D02*
X282350000Y-108700000D01*
X271350000Y-108700000D02*
X272350000Y-108700000D01*
X277350000Y-110700000D02*
X287350000Y-110700000D01*
X287350000Y-98700000D02*
X297350000Y-98700000D01*
X267350000Y-98700000D02*
X277350000Y-98700000D01*
X257350000Y-98700000D02*
X267350000Y-98700000D01*
X288850000Y-104200000D02*
X288850000Y-105200000D01*
X263350000Y-102700000D02*
X264350000Y-102700000D01*
X291350000Y-108700000D02*
X292350000Y-108700000D01*
X288850000Y-108200000D02*
X288850000Y-109200000D01*
X278850000Y-108200000D02*
X278850000Y-109200000D01*
X261350000Y-108700000D02*
X262350000Y-108700000D01*
X298850000Y-108200000D02*
X298850000Y-109200000D01*
X285350000Y-102700000D02*
X286350000Y-102700000D01*
X275350000Y-102700000D02*
X276350000Y-102700000D01*
X287350000Y-100700000D02*
X290350000Y-100700000D01*
X277350000Y-100700000D02*
X280350000Y-100700000D01*
X279350000Y-102700000D02*
X280350000Y-102700000D01*
X259350000Y-102700000D02*
X260350000Y-102700000D01*
X291350000Y-96700000D02*
X292350000Y-96700000D01*
X281350000Y-96700000D02*
X282350000Y-96700000D01*
X285350000Y-96700000D02*
X286350000Y-96700000D01*
X275350000Y-96700000D02*
X276350000Y-96700000D01*
X258850000Y-108200000D02*
X258850000Y-109200000D01*
X292350000Y-94700000D02*
X295350000Y-94700000D01*
X265350000Y-96700000D02*
X266350000Y-96700000D01*
X293850000Y-91700000D02*
X293850000Y-111700000D01*
X297350000Y-98700000D02*
X300350000Y-98700000D01*
X295350000Y-102700000D02*
X296350000Y-102700000D01*
X268850000Y-108200000D02*
X268850000Y-109200000D01*
X287350000Y-104700000D02*
X297350000Y-104700000D01*
X261350000Y-96700000D02*
X262350000Y-96700000D01*
X293350000Y-102700000D02*
X294350000Y-102700000D01*
X248850000Y-106200000D02*
X248850000Y-107200000D01*
X248850000Y-100200000D02*
X248850000Y-101200000D01*
X247350000Y-106700000D02*
X250350000Y-106700000D01*
X247350000Y-96700000D02*
X248350000Y-96700000D01*
X282350000Y-94700000D02*
X285350000Y-94700000D01*
X272350000Y-94700000D02*
X275350000Y-94700000D01*
X267350000Y-100700000D02*
X270350000Y-100700000D01*
X257350000Y-100700000D02*
X260350000Y-100700000D01*
X268850000Y-102200000D02*
X268850000Y-103200000D01*
X297350000Y-100700000D02*
X300350000Y-100700000D01*
X277350000Y-104700000D02*
X287350000Y-104700000D01*
X258850000Y-102200000D02*
X258850000Y-103200000D01*
X297350000Y-102700000D02*
X298350000Y-102700000D01*
X257350000Y-106700000D02*
X260350000Y-106700000D01*
X278850000Y-100200000D02*
X278850000Y-101200000D01*
X267350000Y-104700000D02*
X277350000Y-104700000D01*
X277350000Y-98700000D02*
X287350000Y-98700000D01*
X269350000Y-102700000D02*
X270350000Y-102700000D01*
X267350000Y-102700000D02*
X268350000Y-102700000D01*
X248850000Y-102200000D02*
X248850000Y-103200000D01*
X247350000Y-102700000D02*
X248350000Y-102700000D01*
X249350000Y-102700000D02*
X250350000Y-102700000D01*
X253350000Y-108700000D02*
X254350000Y-108700000D01*
X283350000Y-108700000D02*
X284350000Y-108700000D01*
X271350000Y-96700000D02*
X272350000Y-96700000D01*
X297350000Y-110700000D02*
X300350000Y-110700000D01*
X267350000Y-110700000D02*
X277350000Y-110700000D01*
X257350000Y-110700000D02*
X267350000Y-110700000D01*
X247350000Y-110700000D02*
X257350000Y-110700000D01*
X247350000Y-104700000D02*
X257350000Y-104700000D01*
X247350000Y-98700000D02*
X257350000Y-98700000D01*
X299350000Y-96700000D02*
X300350000Y-96700000D01*
X289350000Y-96700000D02*
X290350000Y-96700000D01*
X278850000Y-110200000D02*
X278850000Y-111200000D01*
X268850000Y-110200000D02*
X268850000Y-111200000D01*
X258850000Y-110200000D02*
X258850000Y-111200000D01*
X248850000Y-110200000D02*
X248850000Y-111200000D01*
X298850000Y-92200000D02*
X298850000Y-93200000D01*
X288850000Y-92200000D02*
X288850000Y-93200000D01*
X278850000Y-92200000D02*
X278850000Y-93200000D01*
X288850000Y-96200000D02*
X288850000Y-97200000D01*
X268850000Y-104200000D02*
X268850000Y-105200000D01*
X258850000Y-104200000D02*
X258850000Y-105200000D01*
X287350000Y-96700000D02*
X288350000Y-96700000D01*
X283350000Y-96700000D02*
X284350000Y-96700000D01*
X273350000Y-96700000D02*
X274350000Y-96700000D01*
X263350000Y-96700000D02*
X264350000Y-96700000D01*
X292350000Y-106700000D02*
X295350000Y-106700000D01*
X282350000Y-106700000D02*
X285350000Y-106700000D01*
X268850000Y-98200000D02*
X268850000Y-99200000D01*
X258850000Y-98200000D02*
X258850000Y-99200000D01*
X298850000Y-96200000D02*
X298850000Y-97200000D01*
X268850000Y-92200000D02*
X268850000Y-93200000D01*
X258850000Y-92200000D02*
X258850000Y-93200000D01*
X278850000Y-106200000D02*
X278850000Y-107200000D01*
X288850000Y-106200000D02*
X288850000Y-107200000D01*
X257350000Y-104700000D02*
X267350000Y-104700000D01*
X292350000Y-100700000D02*
X295350000Y-100700000D01*
X282350000Y-100700000D02*
X285350000Y-100700000D01*
X272350000Y-100700000D02*
X275350000Y-100700000D01*
X262350000Y-100700000D02*
X265350000Y-100700000D01*
X298850000Y-98200000D02*
X298850000Y-99200000D01*
X262350000Y-94700000D02*
X265350000Y-94700000D01*
X278850000Y-102200000D02*
X278850000Y-103200000D01*
X265350000Y-102700000D02*
X266350000Y-102700000D01*
X295350000Y-96700000D02*
X296350000Y-96700000D01*
X293350000Y-96700000D02*
X294350000Y-96700000D01*
X298850000Y-102200000D02*
X298850000Y-103200000D01*
X288850000Y-102200000D02*
X288850000Y-103200000D01*
X297350000Y-108700000D02*
X298350000Y-108700000D01*
X248850000Y-104200000D02*
X248850000Y-105200000D01*
X257350000Y-108700000D02*
X258350000Y-108700000D01*
X299350000Y-108700000D02*
X300350000Y-108700000D01*
X287350000Y-108700000D02*
X288350000Y-108700000D01*
X277350000Y-108700000D02*
X278350000Y-108700000D01*
X267350000Y-108700000D02*
X268350000Y-108700000D01*
X293350000Y-108700000D02*
X294350000Y-108700000D01*
X298850000Y-106200000D02*
X298850000Y-107200000D01*
X272350000Y-106700000D02*
X275350000Y-106700000D01*
X262350000Y-106700000D02*
X265350000Y-106700000D01*
X257350000Y-96700000D02*
X258350000Y-96700000D01*
X299350000Y-102700000D02*
X300350000Y-102700000D01*
X248850000Y-108200000D02*
X248850000Y-109200000D01*
X252350000Y-94700000D02*
X255350000Y-94700000D01*
X247350000Y-100700000D02*
X250350000Y-100700000D01*
X247350000Y-92700000D02*
X257350000Y-92700000D01*
X268850000Y-94200000D02*
X268850000Y-95200000D01*
X258850000Y-94200000D02*
X258850000Y-95200000D01*
X279350000Y-96700000D02*
X280350000Y-96700000D01*
X269350000Y-96700000D02*
X270350000Y-96700000D01*
X259350000Y-96700000D02*
X260350000Y-96700000D01*
X295350000Y-108700000D02*
X296350000Y-108700000D01*
X278850000Y-104200000D02*
X278850000Y-105200000D01*
X297350000Y-104700000D02*
X300350000Y-104700000D01*
X289350000Y-108700000D02*
X290350000Y-108700000D01*
X279350000Y-108700000D02*
X280350000Y-108700000D01*
X269350000Y-108700000D02*
X270350000Y-108700000D01*
X285350000Y-108700000D02*
X286350000Y-108700000D01*
X275350000Y-108700000D02*
X276350000Y-108700000D01*
X265350000Y-108700000D02*
X266350000Y-108700000D01*
X277350000Y-94700000D02*
X280350000Y-94700000D01*
X267350000Y-94700000D02*
X270350000Y-94700000D01*
X257350000Y-94700000D02*
X260350000Y-94700000D01*
X278850000Y-96200000D02*
X278850000Y-97200000D01*
X268850000Y-96200000D02*
X268850000Y-97200000D01*
X258850000Y-96200000D02*
X258850000Y-97200000D01*
X291350000Y-102700000D02*
X292350000Y-102700000D01*
X281350000Y-102700000D02*
X282350000Y-102700000D01*
X271350000Y-102700000D02*
X272350000Y-102700000D01*
X261350000Y-102700000D02*
X262350000Y-102700000D01*
X249350000Y-96700000D02*
X250350000Y-96700000D01*
X255350000Y-108700000D02*
X256350000Y-108700000D01*
X247350000Y-108700000D02*
X248350000Y-108700000D01*
X249350000Y-108700000D02*
X250350000Y-108700000D01*
X247350000Y-94700000D02*
X250350000Y-94700000D01*
X252350000Y-100700000D02*
X255350000Y-100700000D01*
X248850000Y-98200000D02*
X248850000Y-99200000D01*
X248850000Y-96200000D02*
X248850000Y-97200000D01*
X251350000Y-102700000D02*
X252350000Y-102700000D01*
X253350000Y-96700000D02*
X254350000Y-96700000D01*
X252350000Y-106700000D02*
X255350000Y-106700000D01*
X297350000Y-106700000D02*
X300350000Y-106700000D01*
X248850000Y-92200000D02*
X248850000Y-93200000D01*
X248850000Y-94200000D02*
X248850000Y-95200000D01*
X251350000Y-96700000D02*
X252350000Y-96700000D01*
X253350000Y-102700000D02*
X254350000Y-102700000D01*
X251350000Y-108700000D02*
X252350000Y-108700000D01*
X283850000Y-91700000D02*
X283850000Y-111700000D01*
X273850000Y-91700000D02*
X273850000Y-111700000D01*
X287350000Y-106700000D02*
X290350000Y-106700000D01*
X267350000Y-106700000D02*
X270350000Y-106700000D01*
X277350000Y-106700000D02*
X280350000Y-106700000D01*
X257350000Y-102700000D02*
X258350000Y-102700000D01*
X259350000Y-108700000D02*
X260350000Y-108700000D01*
X297350000Y-94700000D02*
X300350000Y-94700000D01*
X287350000Y-94700000D02*
X290350000Y-94700000D01*
X288850000Y-98200000D02*
X288850000Y-99200000D01*
X278850000Y-98200000D02*
X278850000Y-99200000D01*
X255350000Y-102700000D02*
X256350000Y-102700000D01*
X255350000Y-96700000D02*
X256350000Y-96700000D01*
X253850000Y-91700000D02*
X253850000Y-111700000D01*
X283350000Y-102700000D02*
X284350000Y-102700000D01*
X273350000Y-102700000D02*
X274350000Y-102700000D01*
X277350000Y-96700000D02*
X278350000Y-96700000D01*
X289350000Y-102700000D02*
X290350000Y-102700000D01*
X263350000Y-108700000D02*
X264350000Y-108700000D01*
X258850000Y-100200000D02*
X258850000Y-101200000D01*
X267350000Y-96700000D02*
X268350000Y-96700000D01*
X298850000Y-110200000D02*
X298850000Y-111200000D01*
X288850000Y-110200000D02*
X288850000Y-111200000D01*
X297350000Y-92700000D02*
X300350000Y-92700000D01*
X287350000Y-92700000D02*
X297350000Y-92700000D01*
X297350000Y-96700000D02*
X298350000Y-96700000D01*
X45500000Y-104700000D02*
X55500000Y-104700000D01*
X27000000Y-102200000D02*
X27000000Y-103200000D01*
X65500000Y-102700000D02*
X66500000Y-102700000D01*
X25500000Y-106700000D02*
X28500000Y-106700000D01*
X47000000Y-100200000D02*
X47000000Y-101200000D01*
X35500000Y-104700000D02*
X45500000Y-104700000D01*
X45500000Y-98700000D02*
X55500000Y-98700000D01*
X37500000Y-102700000D02*
X38500000Y-102700000D01*
X35500000Y-102700000D02*
X36500000Y-102700000D01*
X17000000Y-102200000D02*
X17000000Y-103200000D01*
X15500000Y-102700000D02*
X16500000Y-102700000D01*
X17500000Y-102700000D02*
X18500000Y-102700000D01*
X21500000Y-108700000D02*
X22500000Y-108700000D01*
X17000000Y-106200000D02*
X17000000Y-107200000D01*
X17000000Y-100200000D02*
X17000000Y-101200000D01*
X15500000Y-106700000D02*
X18500000Y-106700000D01*
X15500000Y-96700000D02*
X16500000Y-96700000D01*
X17500000Y-96700000D02*
X18500000Y-96700000D01*
X23500000Y-108700000D02*
X24500000Y-108700000D01*
X15500000Y-108700000D02*
X16500000Y-108700000D01*
X17500000Y-108700000D02*
X18500000Y-108700000D01*
X15500000Y-94700000D02*
X18500000Y-94700000D01*
X20500000Y-100700000D02*
X23500000Y-100700000D01*
X17000000Y-98200000D02*
X17000000Y-99200000D01*
X17000000Y-96200000D02*
X17000000Y-97200000D01*
X19500000Y-102700000D02*
X20500000Y-102700000D01*
X21500000Y-96700000D02*
X22500000Y-96700000D01*
X20500000Y-106700000D02*
X23500000Y-106700000D01*
X65500000Y-106700000D02*
X68500000Y-106700000D01*
X17000000Y-92200000D02*
X17000000Y-93200000D01*
X17000000Y-94200000D02*
X17000000Y-95200000D01*
X19500000Y-96700000D02*
X20500000Y-96700000D01*
X21500000Y-102700000D02*
X22500000Y-102700000D01*
X19500000Y-108700000D02*
X20500000Y-108700000D01*
X17000000Y-108200000D02*
X17000000Y-109200000D01*
X20500000Y-94700000D02*
X23500000Y-94700000D01*
X15500000Y-100700000D02*
X18500000Y-100700000D01*
X15500000Y-92700000D02*
X25500000Y-92700000D01*
X15500000Y-104700000D02*
X25500000Y-104700000D01*
X15500000Y-98700000D02*
X25500000Y-98700000D01*
X67500000Y-96700000D02*
X68500000Y-96700000D01*
X57500000Y-96700000D02*
X58500000Y-96700000D01*
X47500000Y-96700000D02*
X48500000Y-96700000D01*
X37500000Y-96700000D02*
X38500000Y-96700000D01*
X27500000Y-96700000D02*
X28500000Y-96700000D01*
X63500000Y-108700000D02*
X64500000Y-108700000D01*
X53500000Y-108700000D02*
X54500000Y-108700000D01*
X43500000Y-108700000D02*
X44500000Y-108700000D01*
X33500000Y-108700000D02*
X34500000Y-108700000D01*
X45500000Y-94700000D02*
X48500000Y-94700000D01*
X35500000Y-94700000D02*
X38500000Y-94700000D01*
X25500000Y-94700000D02*
X28500000Y-94700000D01*
X47000000Y-96200000D02*
X47000000Y-97200000D01*
X37000000Y-96200000D02*
X37000000Y-97200000D01*
X27000000Y-96200000D02*
X27000000Y-97200000D01*
X59500000Y-102700000D02*
X60500000Y-102700000D01*
X49500000Y-102700000D02*
X50500000Y-102700000D01*
X39500000Y-102700000D02*
X40500000Y-102700000D01*
X29500000Y-102700000D02*
X30500000Y-102700000D01*
X61500000Y-96700000D02*
X62500000Y-96700000D01*
X67000000Y-102200000D02*
X67000000Y-103200000D01*
X57000000Y-102200000D02*
X57000000Y-103200000D01*
X65500000Y-108700000D02*
X66500000Y-108700000D01*
X55500000Y-108700000D02*
X56500000Y-108700000D01*
X45500000Y-108700000D02*
X46500000Y-108700000D01*
X35500000Y-108700000D02*
X36500000Y-108700000D01*
X61500000Y-108700000D02*
X62500000Y-108700000D01*
X67000000Y-106200000D02*
X67000000Y-107200000D01*
X45500000Y-96700000D02*
X46500000Y-96700000D01*
X57500000Y-102700000D02*
X58500000Y-102700000D01*
X31500000Y-108700000D02*
X32500000Y-108700000D01*
X27000000Y-100200000D02*
X27000000Y-101200000D01*
X35500000Y-96700000D02*
X36500000Y-96700000D01*
X67000000Y-110200000D02*
X67000000Y-111200000D01*
X57000000Y-110200000D02*
X57000000Y-111200000D01*
X47000000Y-110200000D02*
X47000000Y-111200000D01*
X37000000Y-110200000D02*
X37000000Y-111200000D01*
X27000000Y-110200000D02*
X27000000Y-111200000D01*
X17000000Y-110200000D02*
X17000000Y-111200000D01*
X67000000Y-92200000D02*
X67000000Y-93200000D01*
X57000000Y-92200000D02*
X57000000Y-93200000D01*
X47000000Y-92200000D02*
X47000000Y-93200000D01*
X37000000Y-92200000D02*
X37000000Y-93200000D01*
X27000000Y-92200000D02*
X27000000Y-93200000D01*
X47000000Y-106200000D02*
X47000000Y-107200000D01*
X57000000Y-106200000D02*
X57000000Y-107200000D01*
X25500000Y-104700000D02*
X35500000Y-104700000D01*
X60500000Y-100700000D02*
X63500000Y-100700000D01*
X50500000Y-100700000D02*
X53500000Y-100700000D01*
X40500000Y-100700000D02*
X43500000Y-100700000D01*
X30500000Y-100700000D02*
X33500000Y-100700000D01*
X67000000Y-98200000D02*
X67000000Y-99200000D01*
X57000000Y-98200000D02*
X57000000Y-99200000D01*
X47000000Y-98200000D02*
X47000000Y-99200000D01*
X23500000Y-102700000D02*
X24500000Y-102700000D01*
X23500000Y-96700000D02*
X24500000Y-96700000D01*
X22000000Y-91700000D02*
X22000000Y-111700000D01*
X17000000Y-104200000D02*
X17000000Y-105200000D01*
X25500000Y-108700000D02*
X26500000Y-108700000D01*
X67500000Y-108700000D02*
X68500000Y-108700000D01*
X57500000Y-108700000D02*
X58500000Y-108700000D01*
X47500000Y-108700000D02*
X48500000Y-108700000D01*
X37500000Y-108700000D02*
X38500000Y-108700000D01*
X27500000Y-108700000D02*
X28500000Y-108700000D01*
X65500000Y-94700000D02*
X68500000Y-94700000D01*
X55500000Y-94700000D02*
X58500000Y-94700000D01*
X37000000Y-98200000D02*
X37000000Y-99200000D01*
X27000000Y-98200000D02*
X27000000Y-99200000D01*
X67000000Y-96200000D02*
X67000000Y-97200000D01*
X57000000Y-96200000D02*
X57000000Y-97200000D01*
X37000000Y-104200000D02*
X37000000Y-105200000D01*
X27000000Y-104200000D02*
X27000000Y-105200000D01*
X55500000Y-96700000D02*
X56500000Y-96700000D01*
X51500000Y-96700000D02*
X52500000Y-96700000D01*
X41500000Y-96700000D02*
X42500000Y-96700000D01*
X31500000Y-96700000D02*
X32500000Y-96700000D01*
X60500000Y-106700000D02*
X63500000Y-106700000D01*
X50500000Y-106700000D02*
X53500000Y-106700000D01*
X40500000Y-106700000D02*
X43500000Y-106700000D01*
X30500000Y-106700000D02*
X33500000Y-106700000D01*
X25500000Y-96700000D02*
X26500000Y-96700000D01*
X67500000Y-102700000D02*
X68500000Y-102700000D01*
X52000000Y-91700000D02*
X52000000Y-111700000D01*
X42000000Y-91700000D02*
X42000000Y-111700000D01*
X55500000Y-106700000D02*
X58500000Y-106700000D01*
X35500000Y-106700000D02*
X38500000Y-106700000D01*
X45500000Y-106700000D02*
X48500000Y-106700000D01*
X25500000Y-102700000D02*
X26500000Y-102700000D01*
X37000000Y-100200000D02*
X37000000Y-101200000D01*
X41500000Y-108700000D02*
X42500000Y-108700000D01*
X67000000Y-100200000D02*
X67000000Y-101200000D01*
X67000000Y-94200000D02*
X67000000Y-95200000D01*
X57000000Y-94200000D02*
X57000000Y-95200000D01*
X47000000Y-94200000D02*
X47000000Y-95200000D01*
X55500000Y-102700000D02*
X56500000Y-102700000D01*
X45500000Y-102700000D02*
X46500000Y-102700000D01*
X27000000Y-106200000D02*
X27000000Y-107200000D01*
X37000000Y-106200000D02*
X37000000Y-107200000D01*
X57000000Y-100200000D02*
X57000000Y-101200000D01*
X32000000Y-91700000D02*
X32000000Y-111700000D01*
X67000000Y-104200000D02*
X67000000Y-105200000D01*
X25500000Y-92700000D02*
X35500000Y-92700000D01*
X55500000Y-110700000D02*
X65500000Y-110700000D01*
X45500000Y-110700000D02*
X55500000Y-110700000D01*
X55500000Y-98700000D02*
X65500000Y-98700000D01*
X35500000Y-98700000D02*
X45500000Y-98700000D01*
X65500000Y-98700000D02*
X68500000Y-98700000D01*
X63500000Y-102700000D02*
X64500000Y-102700000D01*
X53500000Y-102700000D02*
X54500000Y-102700000D01*
X43500000Y-102700000D02*
X44500000Y-102700000D01*
X33500000Y-102700000D02*
X34500000Y-102700000D01*
X63500000Y-96700000D02*
X64500000Y-96700000D01*
X53500000Y-96700000D02*
X54500000Y-96700000D01*
X43500000Y-96700000D02*
X44500000Y-96700000D01*
X33500000Y-96700000D02*
X34500000Y-96700000D01*
X62000000Y-91700000D02*
X62000000Y-111700000D01*
X37000000Y-94200000D02*
X37000000Y-95200000D01*
X27000000Y-94200000D02*
X27000000Y-95200000D01*
X59500000Y-96700000D02*
X60500000Y-96700000D01*
X49500000Y-96700000D02*
X50500000Y-96700000D01*
X51500000Y-108700000D02*
X52500000Y-108700000D01*
X39500000Y-96700000D02*
X40500000Y-96700000D01*
X29500000Y-96700000D02*
X30500000Y-96700000D01*
X61500000Y-102700000D02*
X62500000Y-102700000D01*
X51500000Y-102700000D02*
X52500000Y-102700000D01*
X41500000Y-102700000D02*
X42500000Y-102700000D01*
X31500000Y-102700000D02*
X32500000Y-102700000D01*
X59500000Y-108700000D02*
X60500000Y-108700000D01*
X49500000Y-108700000D02*
X50500000Y-108700000D01*
X39500000Y-108700000D02*
X40500000Y-108700000D01*
X29500000Y-108700000D02*
X30500000Y-108700000D01*
X67000000Y-108200000D02*
X67000000Y-109200000D01*
X27000000Y-108200000D02*
X27000000Y-109200000D01*
X60500000Y-94700000D02*
X63500000Y-94700000D01*
X50500000Y-94700000D02*
X53500000Y-94700000D01*
X40500000Y-94700000D02*
X43500000Y-94700000D01*
X30500000Y-94700000D02*
X33500000Y-94700000D01*
X47000000Y-102200000D02*
X47000000Y-103200000D01*
X37000000Y-102200000D02*
X37000000Y-103200000D01*
X65500000Y-100700000D02*
X68500000Y-100700000D01*
X55500000Y-100700000D02*
X58500000Y-100700000D01*
X45500000Y-100700000D02*
X48500000Y-100700000D01*
X35500000Y-100700000D02*
X38500000Y-100700000D01*
X25500000Y-100700000D02*
X28500000Y-100700000D01*
X65500000Y-110700000D02*
X68500000Y-110700000D01*
X35500000Y-110700000D02*
X45500000Y-110700000D01*
X25500000Y-110700000D02*
X35500000Y-110700000D01*
X15500000Y-110700000D02*
X25500000Y-110700000D01*
X65500000Y-92700000D02*
X68500000Y-92700000D01*
X55500000Y-92700000D02*
X65500000Y-92700000D01*
X25500000Y-98700000D02*
X35500000Y-98700000D01*
X57000000Y-104200000D02*
X57000000Y-105200000D01*
X47000000Y-104200000D02*
X47000000Y-105200000D01*
X65500000Y-104700000D02*
X68500000Y-104700000D01*
X45500000Y-92700000D02*
X55500000Y-92700000D01*
X35500000Y-92700000D02*
X45500000Y-92700000D01*
X57000000Y-108200000D02*
X57000000Y-109200000D01*
X47000000Y-108200000D02*
X47000000Y-109200000D01*
X37000000Y-108200000D02*
X37000000Y-109200000D01*
X55500000Y-104700000D02*
X65500000Y-104700000D01*
X47500000Y-102700000D02*
X48500000Y-102700000D01*
X27500000Y-102700000D02*
X28500000Y-102700000D01*
X65500000Y-96700000D02*
X66500000Y-96700000D01*
X275350000Y-40000000D02*
X276350000Y-40000000D01*
X257350000Y-40000000D02*
X258350000Y-40000000D01*
X283850000Y-17000000D02*
X283850000Y-35000000D01*
X247350000Y-38000000D02*
X250350000Y-38000000D01*
X278850000Y-23500000D02*
X278850000Y-24500000D01*
X268850000Y-23500000D02*
X268850000Y-24500000D01*
X257350000Y-38000000D02*
X260350000Y-38000000D01*
X283350000Y-28000000D02*
X284350000Y-28000000D01*
X283350000Y-34000000D02*
X284350000Y-34000000D01*
X299350000Y-22000000D02*
X300350000Y-22000000D01*
X252350000Y-20000000D02*
X255350000Y-20000000D01*
X247350000Y-26000000D02*
X250350000Y-26000000D01*
X247350000Y-18000000D02*
X257350000Y-18000000D01*
X247350000Y-30000000D02*
X257350000Y-30000000D01*
X297350000Y-28000000D02*
X298350000Y-28000000D01*
X287350000Y-28000000D02*
X288350000Y-28000000D01*
X278850000Y-29500000D02*
X278850000Y-30500000D01*
X268850000Y-29500000D02*
X268850000Y-30500000D01*
X277350000Y-42000000D02*
X287350000Y-42000000D01*
X277350000Y-28000000D02*
X278350000Y-28000000D01*
X267350000Y-28000000D02*
X268350000Y-28000000D01*
X257350000Y-28000000D02*
X258350000Y-28000000D01*
X297350000Y-40000000D02*
X298350000Y-40000000D01*
X287350000Y-40000000D02*
X288350000Y-40000000D01*
X289350000Y-40000000D02*
X290350000Y-40000000D01*
X279350000Y-40000000D02*
X280350000Y-40000000D01*
X278850000Y-25500000D02*
X278850000Y-26500000D01*
X268850000Y-25500000D02*
X268850000Y-26500000D01*
X285350000Y-22000000D02*
X286350000Y-22000000D01*
X275350000Y-22000000D02*
X276350000Y-22000000D01*
X258850000Y-25500000D02*
X258850000Y-26500000D01*
X257350000Y-42000000D02*
X267350000Y-42000000D01*
X298850000Y-25500000D02*
X298850000Y-26500000D01*
X288850000Y-25500000D02*
X288850000Y-26500000D01*
X263350000Y-34000000D02*
X264350000Y-34000000D01*
X297350000Y-26000000D02*
X300350000Y-26000000D01*
X287350000Y-26000000D02*
X290350000Y-26000000D01*
X277350000Y-26000000D02*
X280350000Y-26000000D01*
X267350000Y-26000000D02*
X270350000Y-26000000D01*
X257350000Y-26000000D02*
X260350000Y-26000000D01*
X297350000Y-36000000D02*
X300350000Y-36000000D01*
X267350000Y-36000000D02*
X277350000Y-36000000D01*
X257350000Y-36000000D02*
X267350000Y-36000000D01*
X257350000Y-22000000D02*
X258350000Y-22000000D01*
X299350000Y-40000000D02*
X300350000Y-40000000D01*
X269350000Y-40000000D02*
X270350000Y-40000000D01*
X259350000Y-40000000D02*
X260350000Y-40000000D01*
X247350000Y-32000000D02*
X250350000Y-32000000D01*
X247350000Y-22000000D02*
X248350000Y-22000000D01*
X249350000Y-22000000D02*
X250350000Y-22000000D01*
X255350000Y-34000000D02*
X256350000Y-34000000D01*
X247350000Y-34000000D02*
X248350000Y-34000000D01*
X249350000Y-34000000D02*
X250350000Y-34000000D01*
X247350000Y-20000000D02*
X250350000Y-20000000D01*
X252350000Y-26000000D02*
X255350000Y-26000000D01*
X248850000Y-23500000D02*
X248850000Y-24500000D01*
X255350000Y-28000000D02*
X256350000Y-28000000D01*
X255350000Y-22000000D02*
X256350000Y-22000000D01*
X253850000Y-17000000D02*
X253850000Y-35000000D01*
X248850000Y-29500000D02*
X248850000Y-30500000D01*
X248850000Y-27500000D02*
X248850000Y-28500000D01*
X247350000Y-28000000D02*
X248350000Y-28000000D01*
X249350000Y-28000000D02*
X250350000Y-28000000D01*
X253350000Y-34000000D02*
X254350000Y-34000000D01*
X248850000Y-31500000D02*
X248850000Y-32500000D01*
X248850000Y-25500000D02*
X248850000Y-26500000D01*
X289350000Y-22000000D02*
X290350000Y-22000000D01*
X279350000Y-22000000D02*
X280350000Y-22000000D01*
X269350000Y-22000000D02*
X270350000Y-22000000D01*
X259350000Y-22000000D02*
X260350000Y-22000000D01*
X298850000Y-29500000D02*
X298850000Y-30500000D01*
X288850000Y-29500000D02*
X288850000Y-30500000D01*
X295350000Y-34000000D02*
X296350000Y-34000000D01*
X285350000Y-34000000D02*
X286350000Y-34000000D01*
X275350000Y-34000000D02*
X276350000Y-34000000D01*
X265350000Y-34000000D02*
X266350000Y-34000000D01*
X297350000Y-34000000D02*
X298350000Y-34000000D01*
X287350000Y-34000000D02*
X288350000Y-34000000D01*
X277350000Y-34000000D02*
X278350000Y-34000000D01*
X267350000Y-34000000D02*
X268350000Y-34000000D01*
X257350000Y-34000000D02*
X258350000Y-34000000D01*
X297350000Y-42000000D02*
X300350000Y-42000000D01*
X257350000Y-24000000D02*
X267350000Y-24000000D01*
X297350000Y-30000000D02*
X300350000Y-30000000D01*
X261350000Y-34000000D02*
X262350000Y-34000000D01*
X278850000Y-37500000D02*
X278850000Y-38500000D01*
X268850000Y-37500000D02*
X268850000Y-38500000D01*
X258850000Y-37500000D02*
X258850000Y-38500000D01*
X248850000Y-37500000D02*
X248850000Y-38500000D01*
X298850000Y-19500000D02*
X298850000Y-20500000D01*
X288850000Y-19500000D02*
X288850000Y-20500000D01*
X278850000Y-19500000D02*
X278850000Y-20500000D01*
X268850000Y-19500000D02*
X268850000Y-20500000D01*
X258850000Y-19500000D02*
X258850000Y-20500000D01*
X297350000Y-20000000D02*
X300350000Y-20000000D01*
X288850000Y-27500000D02*
X288850000Y-28500000D01*
X278850000Y-27500000D02*
X278850000Y-28500000D01*
X298850000Y-27500000D02*
X298850000Y-28500000D01*
X283850000Y-35000000D02*
X283850000Y-43000000D01*
X253350000Y-28000000D02*
X254350000Y-28000000D01*
X251350000Y-34000000D02*
X252350000Y-34000000D01*
X248850000Y-33500000D02*
X248850000Y-34500000D01*
X287350000Y-20000000D02*
X290350000Y-20000000D01*
X277350000Y-20000000D02*
X280350000Y-20000000D01*
X267350000Y-20000000D02*
X270350000Y-20000000D01*
X257350000Y-20000000D02*
X260350000Y-20000000D01*
X268850000Y-31500000D02*
X268850000Y-32500000D01*
X258850000Y-31500000D02*
X258850000Y-32500000D01*
X291350000Y-28000000D02*
X292350000Y-28000000D01*
X258850000Y-17500000D02*
X258850000Y-18500000D01*
X298850000Y-37500000D02*
X298850000Y-38500000D01*
X273350000Y-40000000D02*
X274350000Y-40000000D01*
X295350000Y-40000000D02*
X296350000Y-40000000D01*
X285350000Y-40000000D02*
X286350000Y-40000000D01*
X287350000Y-42000000D02*
X297350000Y-42000000D01*
X293350000Y-34000000D02*
X294350000Y-34000000D01*
X278850000Y-17500000D02*
X278850000Y-18500000D01*
X268850000Y-17500000D02*
X268850000Y-18500000D01*
X298850000Y-23500000D02*
X298850000Y-24500000D01*
X291350000Y-22000000D02*
X292350000Y-22000000D01*
X281350000Y-22000000D02*
X282350000Y-22000000D01*
X271350000Y-22000000D02*
X272350000Y-22000000D01*
X261350000Y-22000000D02*
X262350000Y-22000000D01*
X293350000Y-28000000D02*
X294350000Y-28000000D01*
X288850000Y-35500000D02*
X288850000Y-36500000D01*
X278850000Y-35500000D02*
X278850000Y-36500000D01*
X268850000Y-35500000D02*
X268850000Y-36500000D01*
X277350000Y-24000000D02*
X287350000Y-24000000D01*
X263350000Y-22000000D02*
X264350000Y-22000000D01*
X288850000Y-37500000D02*
X288850000Y-38500000D01*
X282350000Y-32000000D02*
X285350000Y-32000000D01*
X251350000Y-40000000D02*
X252350000Y-40000000D01*
X267350000Y-30000000D02*
X277350000Y-30000000D01*
X248850000Y-21500000D02*
X248850000Y-22500000D01*
X251350000Y-28000000D02*
X252350000Y-28000000D01*
X253350000Y-22000000D02*
X254350000Y-22000000D01*
X252350000Y-32000000D02*
X255350000Y-32000000D01*
X248850000Y-17500000D02*
X248850000Y-18500000D01*
X248850000Y-19500000D02*
X248850000Y-20500000D01*
X251350000Y-22000000D02*
X252350000Y-22000000D01*
X247350000Y-24000000D02*
X257350000Y-24000000D01*
X249350000Y-40000000D02*
X250350000Y-40000000D01*
X277350000Y-38000000D02*
X280350000Y-38000000D01*
X282350000Y-20000000D02*
X285350000Y-20000000D01*
X297350000Y-32000000D02*
X300350000Y-32000000D01*
X257350000Y-18000000D02*
X267350000Y-18000000D01*
X273850000Y-17000000D02*
X273850000Y-35000000D01*
X263850000Y-17000000D02*
X263850000Y-35000000D01*
X267350000Y-38000000D02*
X270350000Y-38000000D01*
X298850000Y-35500000D02*
X298850000Y-36500000D01*
X287350000Y-38000000D02*
X290350000Y-38000000D01*
X271350000Y-34000000D02*
X272350000Y-34000000D01*
X297350000Y-24000000D02*
X300350000Y-24000000D01*
X262350000Y-32000000D02*
X265350000Y-32000000D01*
X299350000Y-34000000D02*
X300350000Y-34000000D01*
X289350000Y-34000000D02*
X290350000Y-34000000D01*
X279350000Y-34000000D02*
X280350000Y-34000000D01*
X258850000Y-29500000D02*
X258850000Y-30500000D01*
X269350000Y-34000000D02*
X270350000Y-34000000D01*
X259350000Y-34000000D02*
X260350000Y-34000000D01*
X297350000Y-38000000D02*
X300350000Y-38000000D01*
X298850000Y-39500000D02*
X298850000Y-40500000D01*
X288850000Y-39500000D02*
X288850000Y-40500000D01*
X278850000Y-39500000D02*
X278850000Y-40500000D01*
X268850000Y-39500000D02*
X268850000Y-40500000D01*
X258850000Y-39500000D02*
X258850000Y-40500000D01*
X248850000Y-39500000D02*
X248850000Y-40500000D01*
X298850000Y-21500000D02*
X298850000Y-22500000D01*
X299350000Y-28000000D02*
X300350000Y-28000000D01*
X293350000Y-40000000D02*
X294350000Y-40000000D01*
X283350000Y-40000000D02*
X284350000Y-40000000D01*
X265350000Y-40000000D02*
X266350000Y-40000000D01*
X265350000Y-22000000D02*
X266350000Y-22000000D01*
X293850000Y-35000000D02*
X293850000Y-43000000D01*
X268850000Y-27500000D02*
X268850000Y-28500000D01*
X258850000Y-27500000D02*
X258850000Y-28500000D01*
X298850000Y-31500000D02*
X298850000Y-32500000D01*
X267350000Y-42000000D02*
X277350000Y-42000000D01*
X287350000Y-24000000D02*
X297350000Y-24000000D01*
X287350000Y-30000000D02*
X297350000Y-30000000D01*
X277350000Y-30000000D02*
X287350000Y-30000000D01*
X277350000Y-22000000D02*
X278350000Y-22000000D01*
X267350000Y-22000000D02*
X268350000Y-22000000D01*
X247350000Y-36000000D02*
X257350000Y-36000000D01*
X297350000Y-18000000D02*
X300350000Y-18000000D01*
X287350000Y-18000000D02*
X297350000Y-18000000D01*
X287350000Y-36000000D02*
X297350000Y-36000000D01*
X277350000Y-36000000D02*
X287350000Y-36000000D01*
X297350000Y-22000000D02*
X298350000Y-22000000D01*
X287350000Y-22000000D02*
X288350000Y-22000000D01*
X269350000Y-28000000D02*
X270350000Y-28000000D01*
X259350000Y-28000000D02*
X260350000Y-28000000D01*
X267350000Y-32000000D02*
X270350000Y-32000000D01*
X257350000Y-32000000D02*
X260350000Y-32000000D01*
X295350000Y-28000000D02*
X296350000Y-28000000D01*
X285350000Y-28000000D02*
X286350000Y-28000000D01*
X287350000Y-32000000D02*
X290350000Y-32000000D01*
X277350000Y-32000000D02*
X280350000Y-32000000D01*
X275350000Y-28000000D02*
X276350000Y-28000000D01*
X265350000Y-28000000D02*
X266350000Y-28000000D01*
X272350000Y-32000000D02*
X275350000Y-32000000D01*
X292350000Y-32000000D02*
X295350000Y-32000000D01*
X263850000Y-35000000D02*
X263850000Y-43000000D01*
X273850000Y-35000000D02*
X273850000Y-43000000D01*
X298850000Y-41500000D02*
X298850000Y-42500000D01*
X288850000Y-41500000D02*
X288850000Y-42500000D01*
X278850000Y-41500000D02*
X278850000Y-42500000D01*
X268850000Y-41500000D02*
X268850000Y-42500000D01*
X258850000Y-41500000D02*
X258850000Y-42500000D01*
X248850000Y-41500000D02*
X248850000Y-42500000D01*
X293350000Y-22000000D02*
X294350000Y-22000000D01*
X283350000Y-22000000D02*
X284350000Y-22000000D01*
X263350000Y-40000000D02*
X264350000Y-40000000D01*
X253350000Y-40000000D02*
X254350000Y-40000000D01*
X288850000Y-33500000D02*
X288850000Y-34500000D01*
X277350000Y-40000000D02*
X278350000Y-40000000D01*
X267350000Y-40000000D02*
X268350000Y-40000000D01*
X273350000Y-22000000D02*
X274350000Y-22000000D01*
X258850000Y-35500000D02*
X258850000Y-36500000D01*
X258850000Y-21500000D02*
X258850000Y-22500000D01*
X248850000Y-35500000D02*
X248850000Y-36500000D01*
X298850000Y-17500000D02*
X298850000Y-18500000D01*
X255350000Y-40000000D02*
X256350000Y-40000000D01*
X247350000Y-42000000D02*
X257350000Y-42000000D01*
X277350000Y-18000000D02*
X287350000Y-18000000D01*
X293850000Y-17000000D02*
X293850000Y-35000000D01*
X267350000Y-24000000D02*
X277350000Y-24000000D01*
X268850000Y-21500000D02*
X268850000Y-22500000D01*
X298850000Y-33500000D02*
X298850000Y-34500000D01*
X273350000Y-28000000D02*
X274350000Y-28000000D01*
X282350000Y-38000000D02*
X285350000Y-38000000D01*
X262350000Y-38000000D02*
X265350000Y-38000000D01*
X288850000Y-21500000D02*
X288850000Y-22500000D01*
X273350000Y-34000000D02*
X274350000Y-34000000D01*
X267350000Y-18000000D02*
X277350000Y-18000000D01*
X288850000Y-31500000D02*
X288850000Y-32500000D01*
X278850000Y-21500000D02*
X278850000Y-22500000D01*
X278850000Y-31500000D02*
X278850000Y-32500000D01*
X257350000Y-30000000D02*
X267350000Y-30000000D01*
X271350000Y-28000000D02*
X272350000Y-28000000D01*
X261350000Y-28000000D02*
X262350000Y-28000000D01*
X291350000Y-34000000D02*
X292350000Y-34000000D01*
X247350000Y-40000000D02*
X248350000Y-40000000D01*
X291350000Y-40000000D02*
X292350000Y-40000000D01*
X281350000Y-40000000D02*
X282350000Y-40000000D01*
X258850000Y-33500000D02*
X258850000Y-34500000D01*
X263350000Y-28000000D02*
X264350000Y-28000000D01*
X278850000Y-33500000D02*
X278850000Y-34500000D01*
X268850000Y-33500000D02*
X268850000Y-34500000D01*
X292350000Y-26000000D02*
X295350000Y-26000000D01*
X282350000Y-26000000D02*
X285350000Y-26000000D01*
X272350000Y-38000000D02*
X275350000Y-38000000D01*
X258850000Y-23500000D02*
X258850000Y-24500000D01*
X281350000Y-28000000D02*
X282350000Y-28000000D01*
X252350000Y-38000000D02*
X255350000Y-38000000D01*
X272350000Y-26000000D02*
X275350000Y-26000000D01*
X262350000Y-26000000D02*
X265350000Y-26000000D01*
X281350000Y-34000000D02*
X282350000Y-34000000D01*
X271350000Y-40000000D02*
X272350000Y-40000000D01*
X261350000Y-40000000D02*
X262350000Y-40000000D01*
X292350000Y-20000000D02*
X295350000Y-20000000D01*
X289350000Y-28000000D02*
X290350000Y-28000000D01*
X279350000Y-28000000D02*
X280350000Y-28000000D01*
X292350000Y-38000000D02*
X295350000Y-38000000D01*
X262350000Y-20000000D02*
X265350000Y-20000000D01*
X295350000Y-22000000D02*
X296350000Y-22000000D01*
X288850000Y-17500000D02*
X288850000Y-18500000D01*
X288850000Y-23500000D02*
X288850000Y-24500000D01*
X272350000Y-20000000D02*
X275350000Y-20000000D01*
X253850000Y-35000000D02*
X253850000Y-43000000D01*
X57500000Y-40000000D02*
X58500000Y-40000000D01*
X47500000Y-40000000D02*
X48500000Y-40000000D01*
X47000000Y-25500000D02*
X47000000Y-26500000D01*
X37000000Y-25500000D02*
X37000000Y-26500000D01*
X53500000Y-22000000D02*
X54500000Y-22000000D01*
X43500000Y-22000000D02*
X44500000Y-22000000D01*
X27000000Y-25500000D02*
X27000000Y-26500000D01*
X25500000Y-42000000D02*
X35500000Y-42000000D01*
X67000000Y-25500000D02*
X67000000Y-26500000D01*
X57000000Y-25500000D02*
X57000000Y-26500000D01*
X31500000Y-34000000D02*
X32500000Y-34000000D01*
X65500000Y-26000000D02*
X68500000Y-26000000D01*
X55500000Y-26000000D02*
X58500000Y-26000000D01*
X45500000Y-26000000D02*
X48500000Y-26000000D01*
X35500000Y-26000000D02*
X38500000Y-26000000D01*
X25500000Y-26000000D02*
X28500000Y-26000000D01*
X65500000Y-36000000D02*
X68500000Y-36000000D01*
X35500000Y-36000000D02*
X45500000Y-36000000D01*
X25500000Y-36000000D02*
X35500000Y-36000000D01*
X25500000Y-22000000D02*
X26500000Y-22000000D01*
X67500000Y-40000000D02*
X68500000Y-40000000D01*
X37500000Y-40000000D02*
X38500000Y-40000000D01*
X27500000Y-40000000D02*
X28500000Y-40000000D01*
X15500000Y-32000000D02*
X18500000Y-32000000D01*
X15500000Y-22000000D02*
X16500000Y-22000000D01*
X17500000Y-22000000D02*
X18500000Y-22000000D01*
X23500000Y-34000000D02*
X24500000Y-34000000D01*
X15500000Y-34000000D02*
X16500000Y-34000000D01*
X17500000Y-34000000D02*
X18500000Y-34000000D01*
X15500000Y-20000000D02*
X18500000Y-20000000D01*
X20500000Y-26000000D02*
X23500000Y-26000000D01*
X17000000Y-23500000D02*
X17000000Y-24500000D01*
X23500000Y-28000000D02*
X24500000Y-28000000D01*
X23500000Y-22000000D02*
X24500000Y-22000000D01*
X22000000Y-17000000D02*
X22000000Y-35000000D01*
X17000000Y-29500000D02*
X17000000Y-30500000D01*
X17000000Y-27500000D02*
X17000000Y-28500000D01*
X15500000Y-28000000D02*
X16500000Y-28000000D01*
X17500000Y-28000000D02*
X18500000Y-28000000D01*
X21500000Y-34000000D02*
X22500000Y-34000000D01*
X17000000Y-31500000D02*
X17000000Y-32500000D01*
X17000000Y-25500000D02*
X17000000Y-26500000D01*
X57500000Y-22000000D02*
X58500000Y-22000000D01*
X47500000Y-22000000D02*
X48500000Y-22000000D01*
X37500000Y-22000000D02*
X38500000Y-22000000D01*
X27500000Y-22000000D02*
X28500000Y-22000000D01*
X67000000Y-29500000D02*
X67000000Y-30500000D01*
X57000000Y-29500000D02*
X57000000Y-30500000D01*
X63500000Y-34000000D02*
X64500000Y-34000000D01*
X53500000Y-34000000D02*
X54500000Y-34000000D01*
X43500000Y-34000000D02*
X44500000Y-34000000D01*
X33500000Y-34000000D02*
X34500000Y-34000000D01*
X65500000Y-34000000D02*
X66500000Y-34000000D01*
X55500000Y-34000000D02*
X56500000Y-34000000D01*
X45500000Y-34000000D02*
X46500000Y-34000000D01*
X35500000Y-34000000D02*
X36500000Y-34000000D01*
X25500000Y-34000000D02*
X26500000Y-34000000D01*
X65500000Y-42000000D02*
X68500000Y-42000000D01*
X25500000Y-24000000D02*
X35500000Y-24000000D01*
X65500000Y-30000000D02*
X68500000Y-30000000D01*
X17000000Y-21500000D02*
X17000000Y-22500000D01*
X19500000Y-28000000D02*
X20500000Y-28000000D01*
X21500000Y-22000000D02*
X22500000Y-22000000D01*
X20500000Y-32000000D02*
X23500000Y-32000000D01*
X17000000Y-17500000D02*
X17000000Y-18500000D01*
X17000000Y-19500000D02*
X17000000Y-20500000D01*
X19500000Y-22000000D02*
X20500000Y-22000000D01*
X15500000Y-24000000D02*
X25500000Y-24000000D01*
X17500000Y-40000000D02*
X18500000Y-40000000D01*
X67500000Y-22000000D02*
X68500000Y-22000000D01*
X20500000Y-20000000D02*
X23500000Y-20000000D01*
X15500000Y-26000000D02*
X18500000Y-26000000D01*
X15500000Y-18000000D02*
X25500000Y-18000000D01*
X15500000Y-30000000D02*
X25500000Y-30000000D01*
X65500000Y-28000000D02*
X66500000Y-28000000D01*
X55500000Y-28000000D02*
X56500000Y-28000000D01*
X47000000Y-29500000D02*
X47000000Y-30500000D01*
X37000000Y-29500000D02*
X37000000Y-30500000D01*
X45500000Y-42000000D02*
X55500000Y-42000000D01*
X45500000Y-28000000D02*
X46500000Y-28000000D01*
X35500000Y-28000000D02*
X36500000Y-28000000D01*
X25500000Y-28000000D02*
X26500000Y-28000000D01*
X65500000Y-40000000D02*
X66500000Y-40000000D01*
X55500000Y-40000000D02*
X56500000Y-40000000D01*
X21500000Y-28000000D02*
X22500000Y-28000000D01*
X19500000Y-34000000D02*
X20500000Y-34000000D01*
X17000000Y-33500000D02*
X17000000Y-34500000D01*
X67000000Y-31500000D02*
X67000000Y-32500000D01*
X35500000Y-42000000D02*
X45500000Y-42000000D01*
X55500000Y-24000000D02*
X65500000Y-24000000D01*
X55500000Y-30000000D02*
X65500000Y-30000000D01*
X45500000Y-30000000D02*
X55500000Y-30000000D01*
X45500000Y-22000000D02*
X46500000Y-22000000D01*
X35500000Y-22000000D02*
X36500000Y-22000000D01*
X15500000Y-36000000D02*
X25500000Y-36000000D01*
X65500000Y-18000000D02*
X68500000Y-18000000D01*
X55500000Y-18000000D02*
X65500000Y-18000000D01*
X55500000Y-36000000D02*
X65500000Y-36000000D01*
X45500000Y-36000000D02*
X55500000Y-36000000D01*
X65500000Y-22000000D02*
X66500000Y-22000000D01*
X55500000Y-22000000D02*
X56500000Y-22000000D01*
X37500000Y-28000000D02*
X38500000Y-28000000D01*
X27500000Y-28000000D02*
X28500000Y-28000000D01*
X65500000Y-32000000D02*
X68500000Y-32000000D01*
X25500000Y-18000000D02*
X35500000Y-18000000D01*
X42000000Y-17000000D02*
X42000000Y-35000000D01*
X32000000Y-17000000D02*
X32000000Y-35000000D01*
X35500000Y-32000000D02*
X38500000Y-32000000D01*
X25500000Y-32000000D02*
X28500000Y-32000000D01*
X63500000Y-28000000D02*
X64500000Y-28000000D01*
X53500000Y-28000000D02*
X54500000Y-28000000D01*
X55500000Y-32000000D02*
X58500000Y-32000000D01*
X45500000Y-32000000D02*
X48500000Y-32000000D01*
X43500000Y-28000000D02*
X44500000Y-28000000D01*
X33500000Y-28000000D02*
X34500000Y-28000000D01*
X33500000Y-22000000D02*
X34500000Y-22000000D01*
X62000000Y-35000000D02*
X62000000Y-43000000D01*
X37000000Y-27500000D02*
X37000000Y-28500000D01*
X27000000Y-27500000D02*
X27000000Y-28500000D01*
X57000000Y-27500000D02*
X57000000Y-28500000D01*
X47000000Y-27500000D02*
X47000000Y-28500000D01*
X67000000Y-27500000D02*
X67000000Y-28500000D01*
X52000000Y-35000000D02*
X52000000Y-43000000D01*
X42000000Y-35000000D02*
X42000000Y-43000000D01*
X67000000Y-41500000D02*
X67000000Y-42500000D01*
X57000000Y-41500000D02*
X57000000Y-42500000D01*
X47000000Y-41500000D02*
X47000000Y-42500000D01*
X37000000Y-41500000D02*
X37000000Y-42500000D01*
X27000000Y-41500000D02*
X27000000Y-42500000D01*
X17000000Y-41500000D02*
X17000000Y-42500000D01*
X67000000Y-23500000D02*
X67000000Y-24500000D01*
X59500000Y-22000000D02*
X60500000Y-22000000D01*
X49500000Y-22000000D02*
X50500000Y-22000000D01*
X39500000Y-22000000D02*
X40500000Y-22000000D01*
X29500000Y-22000000D02*
X30500000Y-22000000D01*
X61500000Y-28000000D02*
X62500000Y-28000000D01*
X57000000Y-35500000D02*
X57000000Y-36500000D01*
X47000000Y-35500000D02*
X47000000Y-36500000D01*
X37000000Y-35500000D02*
X37000000Y-36500000D01*
X45500000Y-24000000D02*
X55500000Y-24000000D01*
X31500000Y-22000000D02*
X32500000Y-22000000D01*
X57000000Y-37500000D02*
X57000000Y-38500000D01*
X47000000Y-37500000D02*
X47000000Y-38500000D01*
X37000000Y-37500000D02*
X37000000Y-38500000D01*
X27000000Y-37500000D02*
X27000000Y-38500000D01*
X17000000Y-37500000D02*
X17000000Y-38500000D01*
X67000000Y-19500000D02*
X67000000Y-20500000D01*
X57000000Y-19500000D02*
X57000000Y-20500000D01*
X47000000Y-19500000D02*
X47000000Y-20500000D01*
X37000000Y-19500000D02*
X37000000Y-20500000D01*
X27000000Y-19500000D02*
X27000000Y-20500000D01*
X65500000Y-20000000D02*
X68500000Y-20000000D01*
X55500000Y-20000000D02*
X58500000Y-20000000D01*
X45500000Y-20000000D02*
X48500000Y-20000000D01*
X35500000Y-20000000D02*
X38500000Y-20000000D01*
X25500000Y-20000000D02*
X28500000Y-20000000D01*
X37000000Y-31500000D02*
X37000000Y-32500000D01*
X27000000Y-31500000D02*
X27000000Y-32500000D01*
X59500000Y-28000000D02*
X60500000Y-28000000D01*
X67500000Y-34000000D02*
X68500000Y-34000000D01*
X57500000Y-34000000D02*
X58500000Y-34000000D01*
X47500000Y-34000000D02*
X48500000Y-34000000D01*
X27000000Y-29500000D02*
X27000000Y-30500000D01*
X37500000Y-34000000D02*
X38500000Y-34000000D01*
X27500000Y-34000000D02*
X28500000Y-34000000D01*
X65500000Y-38000000D02*
X68500000Y-38000000D01*
X67000000Y-39500000D02*
X67000000Y-40500000D01*
X57000000Y-39500000D02*
X57000000Y-40500000D01*
X47000000Y-39500000D02*
X47000000Y-40500000D01*
X37000000Y-39500000D02*
X37000000Y-40500000D01*
X27000000Y-39500000D02*
X27000000Y-40500000D01*
X17000000Y-39500000D02*
X17000000Y-40500000D01*
X67000000Y-21500000D02*
X67000000Y-22500000D01*
X67500000Y-28000000D02*
X68500000Y-28000000D01*
X61500000Y-40000000D02*
X62500000Y-40000000D01*
X51500000Y-40000000D02*
X52500000Y-40000000D01*
X41500000Y-40000000D02*
X42500000Y-40000000D01*
X63500000Y-40000000D02*
X64500000Y-40000000D01*
X53500000Y-40000000D02*
X54500000Y-40000000D01*
X55500000Y-42000000D02*
X65500000Y-42000000D01*
X61500000Y-34000000D02*
X62500000Y-34000000D01*
X47000000Y-17500000D02*
X47000000Y-18500000D01*
X37000000Y-17500000D02*
X37000000Y-18500000D01*
X27000000Y-17500000D02*
X27000000Y-18500000D01*
X67000000Y-37500000D02*
X67000000Y-38500000D01*
X45500000Y-40000000D02*
X46500000Y-40000000D01*
X35500000Y-40000000D02*
X36500000Y-40000000D01*
X31500000Y-40000000D02*
X32500000Y-40000000D01*
X21500000Y-40000000D02*
X22500000Y-40000000D01*
X61500000Y-22000000D02*
X62500000Y-22000000D01*
X51500000Y-22000000D02*
X52500000Y-22000000D01*
X41500000Y-22000000D02*
X42500000Y-22000000D01*
X27000000Y-35500000D02*
X27000000Y-36500000D01*
X17000000Y-35500000D02*
X17000000Y-36500000D01*
X67000000Y-17500000D02*
X67000000Y-18500000D01*
X57000000Y-17500000D02*
X57000000Y-18500000D01*
X57000000Y-23500000D02*
X57000000Y-24500000D01*
X47000000Y-23500000D02*
X47000000Y-24500000D01*
X37000000Y-23500000D02*
X37000000Y-24500000D01*
X27000000Y-23500000D02*
X27000000Y-24500000D01*
X49500000Y-28000000D02*
X50500000Y-28000000D01*
X39500000Y-28000000D02*
X40500000Y-28000000D01*
X29500000Y-28000000D02*
X30500000Y-28000000D01*
X60500000Y-26000000D02*
X63500000Y-26000000D01*
X50500000Y-26000000D02*
X53500000Y-26000000D01*
X40500000Y-26000000D02*
X43500000Y-26000000D01*
X30500000Y-26000000D02*
X33500000Y-26000000D01*
X57500000Y-28000000D02*
X58500000Y-28000000D01*
X47500000Y-28000000D02*
X48500000Y-28000000D01*
X15500000Y-42000000D02*
X25500000Y-42000000D01*
X45500000Y-18000000D02*
X55500000Y-18000000D01*
X35500000Y-18000000D02*
X45500000Y-18000000D01*
X57000000Y-31500000D02*
X57000000Y-32500000D01*
X47000000Y-31500000D02*
X47000000Y-32500000D01*
X25500000Y-30000000D02*
X35500000Y-30000000D01*
X59500000Y-40000000D02*
X60500000Y-40000000D01*
X49500000Y-40000000D02*
X50500000Y-40000000D01*
X39500000Y-40000000D02*
X40500000Y-40000000D01*
X29500000Y-40000000D02*
X30500000Y-40000000D01*
X19500000Y-40000000D02*
X20500000Y-40000000D01*
X60500000Y-32000000D02*
X63500000Y-32000000D01*
X50500000Y-32000000D02*
X53500000Y-32000000D01*
X40500000Y-32000000D02*
X43500000Y-32000000D01*
X30500000Y-32000000D02*
X33500000Y-32000000D01*
X67000000Y-35500000D02*
X67000000Y-36500000D01*
X55500000Y-38000000D02*
X58500000Y-38000000D01*
X45500000Y-38000000D02*
X48500000Y-38000000D01*
X35500000Y-38000000D02*
X38500000Y-38000000D01*
X25500000Y-38000000D02*
X28500000Y-38000000D01*
X15500000Y-38000000D02*
X18500000Y-38000000D01*
X25500000Y-40000000D02*
X26500000Y-40000000D01*
X15500000Y-40000000D02*
X16500000Y-40000000D01*
X57000000Y-21500000D02*
X57000000Y-22500000D01*
X47000000Y-21500000D02*
X47000000Y-22500000D01*
X37000000Y-21500000D02*
X37000000Y-22500000D01*
X27000000Y-21500000D02*
X27000000Y-22500000D01*
X35500000Y-30000000D02*
X45500000Y-30000000D01*
X32000000Y-35000000D02*
X32000000Y-43000000D01*
X22000000Y-35000000D02*
X22000000Y-43000000D01*
X43500000Y-40000000D02*
X44500000Y-40000000D01*
X33500000Y-40000000D02*
X34500000Y-40000000D01*
X62000000Y-17000000D02*
X62000000Y-35000000D01*
X52000000Y-17000000D02*
X52000000Y-35000000D01*
X47000000Y-33500000D02*
X47000000Y-34500000D01*
X37000000Y-33500000D02*
X37000000Y-34500000D01*
X27000000Y-33500000D02*
X27000000Y-34500000D01*
X67000000Y-33500000D02*
X67000000Y-34500000D01*
X57000000Y-33500000D02*
X57000000Y-34500000D01*
X51500000Y-28000000D02*
X52500000Y-28000000D01*
X41500000Y-28000000D02*
X42500000Y-28000000D01*
X31500000Y-28000000D02*
X32500000Y-28000000D01*
X59500000Y-34000000D02*
X60500000Y-34000000D01*
X49500000Y-34000000D02*
X50500000Y-34000000D01*
X39500000Y-34000000D02*
X40500000Y-34000000D01*
X29500000Y-34000000D02*
X30500000Y-34000000D01*
X35500000Y-24000000D02*
X45500000Y-24000000D01*
X65500000Y-24000000D02*
X68500000Y-24000000D01*
X23500000Y-40000000D02*
X24500000Y-40000000D01*
X63500000Y-22000000D02*
X64500000Y-22000000D01*
X40500000Y-20000000D02*
X43500000Y-20000000D01*
X30500000Y-20000000D02*
X33500000Y-20000000D01*
X60500000Y-38000000D02*
X63500000Y-38000000D01*
X50500000Y-38000000D02*
X53500000Y-38000000D01*
X40500000Y-38000000D02*
X43500000Y-38000000D01*
X30500000Y-38000000D02*
X33500000Y-38000000D01*
X20500000Y-38000000D02*
X23500000Y-38000000D01*
X60500000Y-20000000D02*
X63500000Y-20000000D01*
X50500000Y-20000000D02*
X53500000Y-20000000D01*
X51500000Y-34000000D02*
X52500000Y-34000000D01*
X41500000Y-34000000D02*
X42500000Y-34000000D01*
M02*
