%TF.GenerationSoftware,KiCad,Pcbnew,(5.1.10-1-10_14)*%
%TF.CreationDate,2021-05-27T16:08:53+09:00*%
%TF.ProjectId,Jones_plate_bottom,4a6f6e65-735f-4706-9c61-74655f626f74,rev?*%
%TF.SameCoordinates,Original*%
%TF.FileFunction,Copper,L2,Bot*%
%TF.FilePolarity,Positive*%
%FSLAX46Y46*%
G04 Gerber Fmt 4.6, Leading zero omitted, Abs format (unit mm)*
G04 Created by KiCad (PCBNEW (5.1.10-1-10_14)) date 2021-05-27 16:08:53*
%MOMM*%
%LPD*%
G01*
G04 APERTURE LIST*
%TA.AperFunction,NonConductor*%
%ADD10C,0.254000*%
%TD*%
%TA.AperFunction,NonConductor*%
%ADD11C,0.100000*%
%TD*%
G04 APERTURE END LIST*
D10*
X25839960Y-24713160D02*
X25843231Y-24746369D01*
X25843206Y-24749934D01*
X25844275Y-24760842D01*
X25850342Y-24818567D01*
X25851319Y-24828486D01*
X25851419Y-24828817D01*
X25856515Y-24877300D01*
X25870821Y-24946995D01*
X25884154Y-25016885D01*
X25887321Y-25027377D01*
X25921948Y-25139240D01*
X25949529Y-25204852D01*
X25976171Y-25270793D01*
X25981316Y-25280470D01*
X26037011Y-25383478D01*
X26076818Y-25442495D01*
X26115759Y-25502002D01*
X26122677Y-25510484D01*
X26122681Y-25510491D01*
X26122686Y-25510496D01*
X26197328Y-25600722D01*
X26247836Y-25650878D01*
X26297590Y-25701685D01*
X26306035Y-25708672D01*
X26306038Y-25708675D01*
X26306042Y-25708677D01*
X26396780Y-25782683D01*
X26456055Y-25822065D01*
X26514749Y-25862254D01*
X26524390Y-25867467D01*
X26627783Y-25922442D01*
X26693578Y-25949561D01*
X26758960Y-25977583D01*
X26769422Y-25980822D01*
X26769428Y-25980824D01*
X26769434Y-25980825D01*
X26881531Y-26014669D01*
X26951337Y-26028491D01*
X27020916Y-26043280D01*
X27031809Y-26044425D01*
X27031818Y-26044427D01*
X27031826Y-26044427D01*
X27148211Y-26055839D01*
X27186399Y-26059600D01*
X40063521Y-26059600D01*
X40096730Y-26056329D01*
X40100294Y-26056354D01*
X40111202Y-26055285D01*
X40168912Y-26049219D01*
X40178847Y-26048241D01*
X40179178Y-26048141D01*
X40227660Y-26043045D01*
X40297355Y-26028739D01*
X40367245Y-26015406D01*
X40377737Y-26012239D01*
X40489600Y-25977612D01*
X40555212Y-25950031D01*
X40621153Y-25923389D01*
X40630830Y-25918244D01*
X40733838Y-25862549D01*
X40792855Y-25822742D01*
X40852362Y-25783801D01*
X40860844Y-25776883D01*
X40860851Y-25776879D01*
X40860856Y-25776874D01*
X40951082Y-25702232D01*
X41001238Y-25651724D01*
X41052045Y-25601970D01*
X41059032Y-25593525D01*
X41059035Y-25593522D01*
X41059037Y-25593518D01*
X41133043Y-25502780D01*
X41172425Y-25443505D01*
X41212614Y-25384811D01*
X41217827Y-25375170D01*
X41272802Y-25271777D01*
X41299921Y-25205982D01*
X41327943Y-25140600D01*
X41331182Y-25130138D01*
X41331184Y-25130132D01*
X41331185Y-25130126D01*
X41365029Y-25018029D01*
X41378851Y-24948223D01*
X41393640Y-24878644D01*
X41394785Y-24867751D01*
X41394787Y-24867742D01*
X41394787Y-24867734D01*
X41406213Y-24751203D01*
X41409960Y-24713161D01*
X41409960Y-19679077D01*
X109015000Y-19679077D01*
X109015000Y-20020843D01*
X109081675Y-20356041D01*
X109212463Y-20671791D01*
X109402337Y-20955958D01*
X109644002Y-21197623D01*
X109928169Y-21387497D01*
X110243919Y-21518285D01*
X110579117Y-21584960D01*
X110920883Y-21584960D01*
X111256081Y-21518285D01*
X111571831Y-21387497D01*
X111855998Y-21197623D01*
X112097663Y-20955958D01*
X112287537Y-20671791D01*
X112418325Y-20356041D01*
X112485000Y-20020843D01*
X112485000Y-19679077D01*
X204215000Y-19679077D01*
X204215000Y-20020843D01*
X204281675Y-20356041D01*
X204412463Y-20671791D01*
X204602337Y-20955958D01*
X204844002Y-21197623D01*
X205128169Y-21387497D01*
X205443919Y-21518285D01*
X205779117Y-21584960D01*
X206120883Y-21584960D01*
X206456081Y-21518285D01*
X206771831Y-21387497D01*
X207055998Y-21197623D01*
X207297663Y-20955958D01*
X207487537Y-20671791D01*
X207618325Y-20356041D01*
X207685000Y-20020843D01*
X207685000Y-19679077D01*
X207618325Y-19343879D01*
X207487537Y-19028129D01*
X207297663Y-18743962D01*
X207055998Y-18502297D01*
X206771831Y-18312423D01*
X206456081Y-18181635D01*
X206120883Y-18114960D01*
X205779117Y-18114960D01*
X205443919Y-18181635D01*
X205128169Y-18312423D01*
X204844002Y-18502297D01*
X204602337Y-18743962D01*
X204412463Y-19028129D01*
X204281675Y-19343879D01*
X204215000Y-19679077D01*
X112485000Y-19679077D01*
X112418325Y-19343879D01*
X112287537Y-19028129D01*
X112097663Y-18743962D01*
X111855998Y-18502297D01*
X111571831Y-18312423D01*
X111256081Y-18181635D01*
X110920883Y-18114960D01*
X110579117Y-18114960D01*
X110243919Y-18181635D01*
X109928169Y-18312423D01*
X109644002Y-18502297D01*
X109402337Y-18743962D01*
X109212463Y-19028129D01*
X109081675Y-19343879D01*
X109015000Y-19679077D01*
X41409960Y-19679077D01*
X41409960Y-17859600D01*
X298386572Y-17859600D01*
X298660220Y-17886432D01*
X298886528Y-17954758D01*
X299095248Y-18065737D01*
X299278438Y-18215144D01*
X299429122Y-18397288D01*
X299541552Y-18605224D01*
X299611456Y-18831047D01*
X299639961Y-19102256D01*
X299639960Y-75336039D01*
X299639960Y-75336040D01*
X299639961Y-109636201D01*
X299613128Y-109909862D01*
X299544803Y-110136165D01*
X299433824Y-110344888D01*
X299284418Y-110528077D01*
X299102274Y-110678759D01*
X298894337Y-110791191D01*
X298668512Y-110861096D01*
X298397313Y-110889600D01*
X17463348Y-110889600D01*
X17189698Y-110862768D01*
X16963395Y-110794443D01*
X16754672Y-110683464D01*
X16571483Y-110534058D01*
X16420801Y-110351914D01*
X16308369Y-110143977D01*
X16238464Y-109918152D01*
X16209960Y-109646953D01*
X16209960Y-108779077D01*
X97565000Y-108779077D01*
X97565000Y-109120843D01*
X97631675Y-109456041D01*
X97762463Y-109771791D01*
X97952337Y-110055958D01*
X98194002Y-110297623D01*
X98478169Y-110487497D01*
X98793919Y-110618285D01*
X99129117Y-110684960D01*
X99470883Y-110684960D01*
X99806081Y-110618285D01*
X100121831Y-110487497D01*
X100405998Y-110297623D01*
X100647663Y-110055958D01*
X100837537Y-109771791D01*
X100968325Y-109456041D01*
X101035000Y-109120843D01*
X101035000Y-108779077D01*
X188915000Y-108779077D01*
X188915000Y-109120843D01*
X188981675Y-109456041D01*
X189112463Y-109771791D01*
X189302337Y-110055958D01*
X189544002Y-110297623D01*
X189828169Y-110487497D01*
X190143919Y-110618285D01*
X190479117Y-110684960D01*
X190820883Y-110684960D01*
X191156081Y-110618285D01*
X191471831Y-110487497D01*
X191755998Y-110297623D01*
X191997663Y-110055958D01*
X192187537Y-109771791D01*
X192318325Y-109456041D01*
X192385000Y-109120843D01*
X192385000Y-108779077D01*
X192318325Y-108443879D01*
X192187537Y-108128129D01*
X191997663Y-107843962D01*
X191755998Y-107602297D01*
X191471831Y-107412423D01*
X191156081Y-107281635D01*
X190820883Y-107214960D01*
X190479117Y-107214960D01*
X190143919Y-107281635D01*
X189828169Y-107412423D01*
X189544002Y-107602297D01*
X189302337Y-107843962D01*
X189112463Y-108128129D01*
X188981675Y-108443879D01*
X188915000Y-108779077D01*
X101035000Y-108779077D01*
X100968325Y-108443879D01*
X100837537Y-108128129D01*
X100647663Y-107843962D01*
X100405998Y-107602297D01*
X100121831Y-107412423D01*
X99806081Y-107281635D01*
X99470883Y-107214960D01*
X99129117Y-107214960D01*
X98793919Y-107281635D01*
X98478169Y-107412423D01*
X98194002Y-107602297D01*
X97952337Y-107843962D01*
X97762463Y-108128129D01*
X97631675Y-108443879D01*
X97565000Y-108779077D01*
X16209960Y-108779077D01*
X16209960Y-102274600D01*
X202681082Y-102274600D01*
X202716512Y-102634323D01*
X202821439Y-102980222D01*
X202991831Y-103299004D01*
X203221141Y-103578419D01*
X203500556Y-103807729D01*
X203819338Y-103978121D01*
X204165237Y-104083048D01*
X204434821Y-104109600D01*
X207415099Y-104109600D01*
X207684683Y-104083048D01*
X208030582Y-103978121D01*
X208349364Y-103807729D01*
X208628779Y-103578419D01*
X208858089Y-103299004D01*
X209028481Y-102980222D01*
X209133408Y-102634323D01*
X209168838Y-102274600D01*
X209133408Y-101914877D01*
X209028481Y-101568978D01*
X208858089Y-101250196D01*
X208628779Y-100970781D01*
X208349364Y-100741471D01*
X208030582Y-100571079D01*
X207684683Y-100466152D01*
X207415099Y-100439600D01*
X204434821Y-100439600D01*
X204165237Y-100466152D01*
X203819338Y-100571079D01*
X203500556Y-100741471D01*
X203221141Y-100970781D01*
X202991831Y-101250196D01*
X202821439Y-101568978D01*
X202716512Y-101914877D01*
X202681082Y-102274600D01*
X16209960Y-102274600D01*
X16209960Y-73574600D01*
X16881082Y-73574600D01*
X16916512Y-73934323D01*
X17021439Y-74280222D01*
X17191831Y-74599004D01*
X17421141Y-74878419D01*
X17700556Y-75107729D01*
X18019338Y-75278121D01*
X18365237Y-75383048D01*
X18634821Y-75409600D01*
X19315099Y-75409600D01*
X19584683Y-75383048D01*
X19930582Y-75278121D01*
X20249364Y-75107729D01*
X20528779Y-74878419D01*
X20758089Y-74599004D01*
X20928481Y-74280222D01*
X21033408Y-73934323D01*
X21068838Y-73574600D01*
X294781082Y-73574600D01*
X294816512Y-73934323D01*
X294921439Y-74280222D01*
X295091831Y-74599004D01*
X295321141Y-74878419D01*
X295600556Y-75107729D01*
X295919338Y-75278121D01*
X296265237Y-75383048D01*
X296534821Y-75409600D01*
X297215099Y-75409600D01*
X297484683Y-75383048D01*
X297830582Y-75278121D01*
X298149364Y-75107729D01*
X298428779Y-74878419D01*
X298658089Y-74599004D01*
X298828481Y-74280222D01*
X298933408Y-73934323D01*
X298968838Y-73574600D01*
X298933408Y-73214877D01*
X298828481Y-72868978D01*
X298658089Y-72550196D01*
X298428779Y-72270781D01*
X298149364Y-72041471D01*
X297830582Y-71871079D01*
X297484683Y-71766152D01*
X297215099Y-71739600D01*
X296534821Y-71739600D01*
X296265237Y-71766152D01*
X295919338Y-71871079D01*
X295600556Y-72041471D01*
X295321141Y-72270781D01*
X295091831Y-72550196D01*
X294921439Y-72868978D01*
X294816512Y-73214877D01*
X294781082Y-73574600D01*
X21068838Y-73574600D01*
X21033408Y-73214877D01*
X20928481Y-72868978D01*
X20758089Y-72550196D01*
X20528779Y-72270781D01*
X20249364Y-72041471D01*
X19930582Y-71871079D01*
X19584683Y-71766152D01*
X19315099Y-71739600D01*
X18634821Y-71739600D01*
X18365237Y-71766152D01*
X18019338Y-71871079D01*
X17700556Y-72041471D01*
X17421141Y-72270781D01*
X17191831Y-72550196D01*
X17021439Y-72868978D01*
X16916512Y-73214877D01*
X16881082Y-73574600D01*
X16209960Y-73574600D01*
X16209960Y-64074600D01*
X140381082Y-64074600D01*
X140416512Y-64434323D01*
X140521439Y-64780222D01*
X140691831Y-65099004D01*
X140921141Y-65378419D01*
X141200556Y-65607729D01*
X141519338Y-65778121D01*
X141865237Y-65883048D01*
X142134821Y-65909600D01*
X145115099Y-65909600D01*
X145384683Y-65883048D01*
X145730582Y-65778121D01*
X146049364Y-65607729D01*
X146328779Y-65378419D01*
X146558089Y-65099004D01*
X146728481Y-64780222D01*
X146833408Y-64434323D01*
X146868838Y-64074600D01*
X146833408Y-63714877D01*
X146728481Y-63368978D01*
X146558089Y-63050196D01*
X146328779Y-62770781D01*
X146049364Y-62541471D01*
X145730582Y-62371079D01*
X145384683Y-62266152D01*
X145115099Y-62239600D01*
X142134821Y-62239600D01*
X141865237Y-62266152D01*
X141519338Y-62371079D01*
X141200556Y-62541471D01*
X140921141Y-62770781D01*
X140691831Y-63050196D01*
X140521439Y-63368978D01*
X140416512Y-63714877D01*
X140381082Y-64074600D01*
X16209960Y-64074600D01*
X16209960Y-44788973D01*
X38740260Y-44788973D01*
X38740260Y-45160227D01*
X38812688Y-45524347D01*
X38954761Y-45867340D01*
X39161018Y-46176026D01*
X39423534Y-46438542D01*
X39732220Y-46644799D01*
X40075213Y-46786872D01*
X40439333Y-46859300D01*
X40810587Y-46859300D01*
X41174707Y-46786872D01*
X41517700Y-46644799D01*
X41826386Y-46438542D01*
X42088902Y-46176026D01*
X42295159Y-45867340D01*
X42437232Y-45524347D01*
X42509660Y-45160227D01*
X42509660Y-44974600D01*
X272231082Y-44974600D01*
X272266512Y-45334323D01*
X272371439Y-45680222D01*
X272541831Y-45999004D01*
X272771141Y-46278419D01*
X273050556Y-46507729D01*
X273369338Y-46678121D01*
X273715237Y-46783048D01*
X273984821Y-46809600D01*
X276965099Y-46809600D01*
X277234683Y-46783048D01*
X277580582Y-46678121D01*
X277899364Y-46507729D01*
X278178779Y-46278419D01*
X278408089Y-45999004D01*
X278578481Y-45680222D01*
X278683408Y-45334323D01*
X278718838Y-44974600D01*
X278683408Y-44614877D01*
X278578481Y-44268978D01*
X278408089Y-43950196D01*
X278178779Y-43670781D01*
X277899364Y-43441471D01*
X277580582Y-43271079D01*
X277234683Y-43166152D01*
X276965099Y-43139600D01*
X273984821Y-43139600D01*
X273715237Y-43166152D01*
X273369338Y-43271079D01*
X273050556Y-43441471D01*
X272771141Y-43670781D01*
X272541831Y-43950196D01*
X272371439Y-44268978D01*
X272266512Y-44614877D01*
X272231082Y-44974600D01*
X42509660Y-44974600D01*
X42509660Y-44788973D01*
X42437232Y-44424853D01*
X42295159Y-44081860D01*
X42088902Y-43773174D01*
X41826386Y-43510658D01*
X41517700Y-43304401D01*
X41174707Y-43162328D01*
X40810587Y-43089900D01*
X40439333Y-43089900D01*
X40075213Y-43162328D01*
X39732220Y-43304401D01*
X39423534Y-43510658D01*
X39161018Y-43773174D01*
X38954761Y-44081860D01*
X38812688Y-44424853D01*
X38740260Y-44788973D01*
X16209960Y-44788973D01*
X16209960Y-19112988D01*
X16236792Y-18839340D01*
X16305118Y-18613032D01*
X16416097Y-18404312D01*
X16565504Y-18221122D01*
X16747648Y-18070438D01*
X16955584Y-17958008D01*
X17181407Y-17888104D01*
X17452607Y-17859600D01*
X25839961Y-17859600D01*
X25839960Y-24713160D01*
%TA.AperFunction,NonConductor*%
D11*
G36*
X25839960Y-24713160D02*
G01*
X25843231Y-24746369D01*
X25843206Y-24749934D01*
X25844275Y-24760842D01*
X25850342Y-24818567D01*
X25851319Y-24828486D01*
X25851419Y-24828817D01*
X25856515Y-24877300D01*
X25870821Y-24946995D01*
X25884154Y-25016885D01*
X25887321Y-25027377D01*
X25921948Y-25139240D01*
X25949529Y-25204852D01*
X25976171Y-25270793D01*
X25981316Y-25280470D01*
X26037011Y-25383478D01*
X26076818Y-25442495D01*
X26115759Y-25502002D01*
X26122677Y-25510484D01*
X26122681Y-25510491D01*
X26122686Y-25510496D01*
X26197328Y-25600722D01*
X26247836Y-25650878D01*
X26297590Y-25701685D01*
X26306035Y-25708672D01*
X26306038Y-25708675D01*
X26306042Y-25708677D01*
X26396780Y-25782683D01*
X26456055Y-25822065D01*
X26514749Y-25862254D01*
X26524390Y-25867467D01*
X26627783Y-25922442D01*
X26693578Y-25949561D01*
X26758960Y-25977583D01*
X26769422Y-25980822D01*
X26769428Y-25980824D01*
X26769434Y-25980825D01*
X26881531Y-26014669D01*
X26951337Y-26028491D01*
X27020916Y-26043280D01*
X27031809Y-26044425D01*
X27031818Y-26044427D01*
X27031826Y-26044427D01*
X27148211Y-26055839D01*
X27186399Y-26059600D01*
X40063521Y-26059600D01*
X40096730Y-26056329D01*
X40100294Y-26056354D01*
X40111202Y-26055285D01*
X40168912Y-26049219D01*
X40178847Y-26048241D01*
X40179178Y-26048141D01*
X40227660Y-26043045D01*
X40297355Y-26028739D01*
X40367245Y-26015406D01*
X40377737Y-26012239D01*
X40489600Y-25977612D01*
X40555212Y-25950031D01*
X40621153Y-25923389D01*
X40630830Y-25918244D01*
X40733838Y-25862549D01*
X40792855Y-25822742D01*
X40852362Y-25783801D01*
X40860844Y-25776883D01*
X40860851Y-25776879D01*
X40860856Y-25776874D01*
X40951082Y-25702232D01*
X41001238Y-25651724D01*
X41052045Y-25601970D01*
X41059032Y-25593525D01*
X41059035Y-25593522D01*
X41059037Y-25593518D01*
X41133043Y-25502780D01*
X41172425Y-25443505D01*
X41212614Y-25384811D01*
X41217827Y-25375170D01*
X41272802Y-25271777D01*
X41299921Y-25205982D01*
X41327943Y-25140600D01*
X41331182Y-25130138D01*
X41331184Y-25130132D01*
X41331185Y-25130126D01*
X41365029Y-25018029D01*
X41378851Y-24948223D01*
X41393640Y-24878644D01*
X41394785Y-24867751D01*
X41394787Y-24867742D01*
X41394787Y-24867734D01*
X41406213Y-24751203D01*
X41409960Y-24713161D01*
X41409960Y-19679077D01*
X109015000Y-19679077D01*
X109015000Y-20020843D01*
X109081675Y-20356041D01*
X109212463Y-20671791D01*
X109402337Y-20955958D01*
X109644002Y-21197623D01*
X109928169Y-21387497D01*
X110243919Y-21518285D01*
X110579117Y-21584960D01*
X110920883Y-21584960D01*
X111256081Y-21518285D01*
X111571831Y-21387497D01*
X111855998Y-21197623D01*
X112097663Y-20955958D01*
X112287537Y-20671791D01*
X112418325Y-20356041D01*
X112485000Y-20020843D01*
X112485000Y-19679077D01*
X204215000Y-19679077D01*
X204215000Y-20020843D01*
X204281675Y-20356041D01*
X204412463Y-20671791D01*
X204602337Y-20955958D01*
X204844002Y-21197623D01*
X205128169Y-21387497D01*
X205443919Y-21518285D01*
X205779117Y-21584960D01*
X206120883Y-21584960D01*
X206456081Y-21518285D01*
X206771831Y-21387497D01*
X207055998Y-21197623D01*
X207297663Y-20955958D01*
X207487537Y-20671791D01*
X207618325Y-20356041D01*
X207685000Y-20020843D01*
X207685000Y-19679077D01*
X207618325Y-19343879D01*
X207487537Y-19028129D01*
X207297663Y-18743962D01*
X207055998Y-18502297D01*
X206771831Y-18312423D01*
X206456081Y-18181635D01*
X206120883Y-18114960D01*
X205779117Y-18114960D01*
X205443919Y-18181635D01*
X205128169Y-18312423D01*
X204844002Y-18502297D01*
X204602337Y-18743962D01*
X204412463Y-19028129D01*
X204281675Y-19343879D01*
X204215000Y-19679077D01*
X112485000Y-19679077D01*
X112418325Y-19343879D01*
X112287537Y-19028129D01*
X112097663Y-18743962D01*
X111855998Y-18502297D01*
X111571831Y-18312423D01*
X111256081Y-18181635D01*
X110920883Y-18114960D01*
X110579117Y-18114960D01*
X110243919Y-18181635D01*
X109928169Y-18312423D01*
X109644002Y-18502297D01*
X109402337Y-18743962D01*
X109212463Y-19028129D01*
X109081675Y-19343879D01*
X109015000Y-19679077D01*
X41409960Y-19679077D01*
X41409960Y-17859600D01*
X298386572Y-17859600D01*
X298660220Y-17886432D01*
X298886528Y-17954758D01*
X299095248Y-18065737D01*
X299278438Y-18215144D01*
X299429122Y-18397288D01*
X299541552Y-18605224D01*
X299611456Y-18831047D01*
X299639961Y-19102256D01*
X299639960Y-75336039D01*
X299639960Y-75336040D01*
X299639961Y-109636201D01*
X299613128Y-109909862D01*
X299544803Y-110136165D01*
X299433824Y-110344888D01*
X299284418Y-110528077D01*
X299102274Y-110678759D01*
X298894337Y-110791191D01*
X298668512Y-110861096D01*
X298397313Y-110889600D01*
X17463348Y-110889600D01*
X17189698Y-110862768D01*
X16963395Y-110794443D01*
X16754672Y-110683464D01*
X16571483Y-110534058D01*
X16420801Y-110351914D01*
X16308369Y-110143977D01*
X16238464Y-109918152D01*
X16209960Y-109646953D01*
X16209960Y-108779077D01*
X97565000Y-108779077D01*
X97565000Y-109120843D01*
X97631675Y-109456041D01*
X97762463Y-109771791D01*
X97952337Y-110055958D01*
X98194002Y-110297623D01*
X98478169Y-110487497D01*
X98793919Y-110618285D01*
X99129117Y-110684960D01*
X99470883Y-110684960D01*
X99806081Y-110618285D01*
X100121831Y-110487497D01*
X100405998Y-110297623D01*
X100647663Y-110055958D01*
X100837537Y-109771791D01*
X100968325Y-109456041D01*
X101035000Y-109120843D01*
X101035000Y-108779077D01*
X188915000Y-108779077D01*
X188915000Y-109120843D01*
X188981675Y-109456041D01*
X189112463Y-109771791D01*
X189302337Y-110055958D01*
X189544002Y-110297623D01*
X189828169Y-110487497D01*
X190143919Y-110618285D01*
X190479117Y-110684960D01*
X190820883Y-110684960D01*
X191156081Y-110618285D01*
X191471831Y-110487497D01*
X191755998Y-110297623D01*
X191997663Y-110055958D01*
X192187537Y-109771791D01*
X192318325Y-109456041D01*
X192385000Y-109120843D01*
X192385000Y-108779077D01*
X192318325Y-108443879D01*
X192187537Y-108128129D01*
X191997663Y-107843962D01*
X191755998Y-107602297D01*
X191471831Y-107412423D01*
X191156081Y-107281635D01*
X190820883Y-107214960D01*
X190479117Y-107214960D01*
X190143919Y-107281635D01*
X189828169Y-107412423D01*
X189544002Y-107602297D01*
X189302337Y-107843962D01*
X189112463Y-108128129D01*
X188981675Y-108443879D01*
X188915000Y-108779077D01*
X101035000Y-108779077D01*
X100968325Y-108443879D01*
X100837537Y-108128129D01*
X100647663Y-107843962D01*
X100405998Y-107602297D01*
X100121831Y-107412423D01*
X99806081Y-107281635D01*
X99470883Y-107214960D01*
X99129117Y-107214960D01*
X98793919Y-107281635D01*
X98478169Y-107412423D01*
X98194002Y-107602297D01*
X97952337Y-107843962D01*
X97762463Y-108128129D01*
X97631675Y-108443879D01*
X97565000Y-108779077D01*
X16209960Y-108779077D01*
X16209960Y-102274600D01*
X202681082Y-102274600D01*
X202716512Y-102634323D01*
X202821439Y-102980222D01*
X202991831Y-103299004D01*
X203221141Y-103578419D01*
X203500556Y-103807729D01*
X203819338Y-103978121D01*
X204165237Y-104083048D01*
X204434821Y-104109600D01*
X207415099Y-104109600D01*
X207684683Y-104083048D01*
X208030582Y-103978121D01*
X208349364Y-103807729D01*
X208628779Y-103578419D01*
X208858089Y-103299004D01*
X209028481Y-102980222D01*
X209133408Y-102634323D01*
X209168838Y-102274600D01*
X209133408Y-101914877D01*
X209028481Y-101568978D01*
X208858089Y-101250196D01*
X208628779Y-100970781D01*
X208349364Y-100741471D01*
X208030582Y-100571079D01*
X207684683Y-100466152D01*
X207415099Y-100439600D01*
X204434821Y-100439600D01*
X204165237Y-100466152D01*
X203819338Y-100571079D01*
X203500556Y-100741471D01*
X203221141Y-100970781D01*
X202991831Y-101250196D01*
X202821439Y-101568978D01*
X202716512Y-101914877D01*
X202681082Y-102274600D01*
X16209960Y-102274600D01*
X16209960Y-73574600D01*
X16881082Y-73574600D01*
X16916512Y-73934323D01*
X17021439Y-74280222D01*
X17191831Y-74599004D01*
X17421141Y-74878419D01*
X17700556Y-75107729D01*
X18019338Y-75278121D01*
X18365237Y-75383048D01*
X18634821Y-75409600D01*
X19315099Y-75409600D01*
X19584683Y-75383048D01*
X19930582Y-75278121D01*
X20249364Y-75107729D01*
X20528779Y-74878419D01*
X20758089Y-74599004D01*
X20928481Y-74280222D01*
X21033408Y-73934323D01*
X21068838Y-73574600D01*
X294781082Y-73574600D01*
X294816512Y-73934323D01*
X294921439Y-74280222D01*
X295091831Y-74599004D01*
X295321141Y-74878419D01*
X295600556Y-75107729D01*
X295919338Y-75278121D01*
X296265237Y-75383048D01*
X296534821Y-75409600D01*
X297215099Y-75409600D01*
X297484683Y-75383048D01*
X297830582Y-75278121D01*
X298149364Y-75107729D01*
X298428779Y-74878419D01*
X298658089Y-74599004D01*
X298828481Y-74280222D01*
X298933408Y-73934323D01*
X298968838Y-73574600D01*
X298933408Y-73214877D01*
X298828481Y-72868978D01*
X298658089Y-72550196D01*
X298428779Y-72270781D01*
X298149364Y-72041471D01*
X297830582Y-71871079D01*
X297484683Y-71766152D01*
X297215099Y-71739600D01*
X296534821Y-71739600D01*
X296265237Y-71766152D01*
X295919338Y-71871079D01*
X295600556Y-72041471D01*
X295321141Y-72270781D01*
X295091831Y-72550196D01*
X294921439Y-72868978D01*
X294816512Y-73214877D01*
X294781082Y-73574600D01*
X21068838Y-73574600D01*
X21033408Y-73214877D01*
X20928481Y-72868978D01*
X20758089Y-72550196D01*
X20528779Y-72270781D01*
X20249364Y-72041471D01*
X19930582Y-71871079D01*
X19584683Y-71766152D01*
X19315099Y-71739600D01*
X18634821Y-71739600D01*
X18365237Y-71766152D01*
X18019338Y-71871079D01*
X17700556Y-72041471D01*
X17421141Y-72270781D01*
X17191831Y-72550196D01*
X17021439Y-72868978D01*
X16916512Y-73214877D01*
X16881082Y-73574600D01*
X16209960Y-73574600D01*
X16209960Y-64074600D01*
X140381082Y-64074600D01*
X140416512Y-64434323D01*
X140521439Y-64780222D01*
X140691831Y-65099004D01*
X140921141Y-65378419D01*
X141200556Y-65607729D01*
X141519338Y-65778121D01*
X141865237Y-65883048D01*
X142134821Y-65909600D01*
X145115099Y-65909600D01*
X145384683Y-65883048D01*
X145730582Y-65778121D01*
X146049364Y-65607729D01*
X146328779Y-65378419D01*
X146558089Y-65099004D01*
X146728481Y-64780222D01*
X146833408Y-64434323D01*
X146868838Y-64074600D01*
X146833408Y-63714877D01*
X146728481Y-63368978D01*
X146558089Y-63050196D01*
X146328779Y-62770781D01*
X146049364Y-62541471D01*
X145730582Y-62371079D01*
X145384683Y-62266152D01*
X145115099Y-62239600D01*
X142134821Y-62239600D01*
X141865237Y-62266152D01*
X141519338Y-62371079D01*
X141200556Y-62541471D01*
X140921141Y-62770781D01*
X140691831Y-63050196D01*
X140521439Y-63368978D01*
X140416512Y-63714877D01*
X140381082Y-64074600D01*
X16209960Y-64074600D01*
X16209960Y-44788973D01*
X38740260Y-44788973D01*
X38740260Y-45160227D01*
X38812688Y-45524347D01*
X38954761Y-45867340D01*
X39161018Y-46176026D01*
X39423534Y-46438542D01*
X39732220Y-46644799D01*
X40075213Y-46786872D01*
X40439333Y-46859300D01*
X40810587Y-46859300D01*
X41174707Y-46786872D01*
X41517700Y-46644799D01*
X41826386Y-46438542D01*
X42088902Y-46176026D01*
X42295159Y-45867340D01*
X42437232Y-45524347D01*
X42509660Y-45160227D01*
X42509660Y-44974600D01*
X272231082Y-44974600D01*
X272266512Y-45334323D01*
X272371439Y-45680222D01*
X272541831Y-45999004D01*
X272771141Y-46278419D01*
X273050556Y-46507729D01*
X273369338Y-46678121D01*
X273715237Y-46783048D01*
X273984821Y-46809600D01*
X276965099Y-46809600D01*
X277234683Y-46783048D01*
X277580582Y-46678121D01*
X277899364Y-46507729D01*
X278178779Y-46278419D01*
X278408089Y-45999004D01*
X278578481Y-45680222D01*
X278683408Y-45334323D01*
X278718838Y-44974600D01*
X278683408Y-44614877D01*
X278578481Y-44268978D01*
X278408089Y-43950196D01*
X278178779Y-43670781D01*
X277899364Y-43441471D01*
X277580582Y-43271079D01*
X277234683Y-43166152D01*
X276965099Y-43139600D01*
X273984821Y-43139600D01*
X273715237Y-43166152D01*
X273369338Y-43271079D01*
X273050556Y-43441471D01*
X272771141Y-43670781D01*
X272541831Y-43950196D01*
X272371439Y-44268978D01*
X272266512Y-44614877D01*
X272231082Y-44974600D01*
X42509660Y-44974600D01*
X42509660Y-44788973D01*
X42437232Y-44424853D01*
X42295159Y-44081860D01*
X42088902Y-43773174D01*
X41826386Y-43510658D01*
X41517700Y-43304401D01*
X41174707Y-43162328D01*
X40810587Y-43089900D01*
X40439333Y-43089900D01*
X40075213Y-43162328D01*
X39732220Y-43304401D01*
X39423534Y-43510658D01*
X39161018Y-43773174D01*
X38954761Y-44081860D01*
X38812688Y-44424853D01*
X38740260Y-44788973D01*
X16209960Y-44788973D01*
X16209960Y-19112988D01*
X16236792Y-18839340D01*
X16305118Y-18613032D01*
X16416097Y-18404312D01*
X16565504Y-18221122D01*
X16747648Y-18070438D01*
X16955584Y-17958008D01*
X17181407Y-17888104D01*
X17452607Y-17859600D01*
X25839961Y-17859600D01*
X25839960Y-24713160D01*
G37*
%TD.AperFunction*%
M02*
