%TF.GenerationSoftware,KiCad,Pcbnew,(5.1.10-1-10_14)*%
%TF.CreationDate,2021-08-04T05:51:24+09:00*%
%TF.ProjectId,Jones_plate_bottom,4a6f6e65-735f-4706-9c61-74655f626f74,v.1 (042)*%
%TF.SameCoordinates,Original*%
%TF.FileFunction,Legend,Top*%
%TF.FilePolarity,Positive*%
%FSLAX46Y46*%
G04 Gerber Fmt 4.6, Leading zero omitted, Abs format (unit mm)*
G04 Created by KiCad (PCBNEW (5.1.10-1-10_14)) date 2021-08-04 05:51:24*
%MOMM*%
%LPD*%
G01*
G04 APERTURE LIST*
%ADD10C,0.200000*%
%ADD11C,0.300000*%
%ADD12C,0.010000*%
G04 APERTURE END LIST*
D10*
X60571428Y-68778571D02*
X60571428Y-69850000D01*
X60500000Y-70064285D01*
X60357142Y-70207142D01*
X60142857Y-70278571D01*
X60000000Y-70278571D01*
X62000000Y-70278571D02*
X61285714Y-70278571D01*
X61285714Y-68778571D01*
X63357142Y-70135714D02*
X63285714Y-70207142D01*
X63071428Y-70278571D01*
X62928571Y-70278571D01*
X62714285Y-70207142D01*
X62571428Y-70064285D01*
X62500000Y-69921428D01*
X62428571Y-69635714D01*
X62428571Y-69421428D01*
X62500000Y-69135714D01*
X62571428Y-68992857D01*
X62714285Y-68850000D01*
X62928571Y-68778571D01*
X63071428Y-68778571D01*
X63285714Y-68850000D01*
X63357142Y-68921428D01*
X64428571Y-68778571D02*
X64428571Y-69850000D01*
X64357142Y-70064285D01*
X64214285Y-70207142D01*
X64000000Y-70278571D01*
X63857142Y-70278571D01*
X65857142Y-70278571D02*
X65142857Y-70278571D01*
X65142857Y-68778571D01*
X67214285Y-70135714D02*
X67142857Y-70207142D01*
X66928571Y-70278571D01*
X66785714Y-70278571D01*
X66571428Y-70207142D01*
X66428571Y-70064285D01*
X66357142Y-69921428D01*
X66285714Y-69635714D01*
X66285714Y-69421428D01*
X66357142Y-69135714D01*
X66428571Y-68992857D01*
X66571428Y-68850000D01*
X66785714Y-68778571D01*
X66928571Y-68778571D01*
X67142857Y-68850000D01*
X67214285Y-68921428D01*
X68285714Y-68778571D02*
X68285714Y-69850000D01*
X68214285Y-70064285D01*
X68071428Y-70207142D01*
X67857142Y-70278571D01*
X67714285Y-70278571D01*
X69714285Y-70278571D02*
X69000000Y-70278571D01*
X69000000Y-68778571D01*
X71071428Y-70135714D02*
X71000000Y-70207142D01*
X70785714Y-70278571D01*
X70642857Y-70278571D01*
X70428571Y-70207142D01*
X70285714Y-70064285D01*
X70214285Y-69921428D01*
X70142857Y-69635714D01*
X70142857Y-69421428D01*
X70214285Y-69135714D01*
X70285714Y-68992857D01*
X70428571Y-68850000D01*
X70642857Y-68778571D01*
X70785714Y-68778571D01*
X71000000Y-68850000D01*
X71071428Y-68921428D01*
X72142857Y-68778571D02*
X72142857Y-69850000D01*
X72071428Y-70064285D01*
X71928571Y-70207142D01*
X71714285Y-70278571D01*
X71571428Y-70278571D01*
X73571428Y-70278571D02*
X72857142Y-70278571D01*
X72857142Y-68778571D01*
X74928571Y-70135714D02*
X74857142Y-70207142D01*
X74642857Y-70278571D01*
X74500000Y-70278571D01*
X74285714Y-70207142D01*
X74142857Y-70064285D01*
X74071428Y-69921428D01*
X74000000Y-69635714D01*
X74000000Y-69421428D01*
X74071428Y-69135714D01*
X74142857Y-68992857D01*
X74285714Y-68850000D01*
X74500000Y-68778571D01*
X74642857Y-68778571D01*
X74857142Y-68850000D01*
X74928571Y-68921428D01*
D11*
X60037857Y-62114285D02*
X61323571Y-62114285D01*
X60552142Y-61342857D02*
X60037857Y-63657142D01*
X61152142Y-62885714D02*
X59866428Y-62885714D01*
X60637857Y-63657142D02*
X61152142Y-61342857D01*
X62437857Y-61514285D02*
X62437857Y-62800000D01*
X62352142Y-63057142D01*
X62180714Y-63228571D01*
X61923571Y-63314285D01*
X61752142Y-63314285D01*
X63552142Y-63314285D02*
X63380714Y-63228571D01*
X63295000Y-63142857D01*
X63209285Y-62971428D01*
X63209285Y-62457142D01*
X63295000Y-62285714D01*
X63380714Y-62200000D01*
X63552142Y-62114285D01*
X63809285Y-62114285D01*
X63980714Y-62200000D01*
X64066428Y-62285714D01*
X64152142Y-62457142D01*
X64152142Y-62971428D01*
X64066428Y-63142857D01*
X63980714Y-63228571D01*
X63809285Y-63314285D01*
X63552142Y-63314285D01*
X64923571Y-62114285D02*
X64923571Y-63314285D01*
X64923571Y-62285714D02*
X65009285Y-62200000D01*
X65180714Y-62114285D01*
X65437857Y-62114285D01*
X65609285Y-62200000D01*
X65695000Y-62371428D01*
X65695000Y-63314285D01*
X67237857Y-63228571D02*
X67066428Y-63314285D01*
X66723571Y-63314285D01*
X66552142Y-63228571D01*
X66466428Y-63057142D01*
X66466428Y-62371428D01*
X66552142Y-62200000D01*
X66723571Y-62114285D01*
X67066428Y-62114285D01*
X67237857Y-62200000D01*
X67323571Y-62371428D01*
X67323571Y-62542857D01*
X66466428Y-62714285D01*
X68009285Y-63228571D02*
X68180714Y-63314285D01*
X68523571Y-63314285D01*
X68695000Y-63228571D01*
X68780714Y-63057142D01*
X68780714Y-62971428D01*
X68695000Y-62800000D01*
X68523571Y-62714285D01*
X68266428Y-62714285D01*
X68095000Y-62628571D01*
X68009285Y-62457142D01*
X68009285Y-62371428D01*
X68095000Y-62200000D01*
X68266428Y-62114285D01*
X68523571Y-62114285D01*
X68695000Y-62200000D01*
X69123571Y-63485714D02*
X70495000Y-63485714D01*
X70923571Y-63314285D02*
X70923571Y-61514285D01*
X71095000Y-62628571D02*
X71609285Y-63314285D01*
X71609285Y-62114285D02*
X70923571Y-62800000D01*
X72380714Y-63314285D02*
X72380714Y-61514285D01*
X72380714Y-62200000D02*
X72552142Y-62114285D01*
X72895000Y-62114285D01*
X73066428Y-62200000D01*
X73152142Y-62285714D01*
X73237857Y-62457142D01*
X73237857Y-62971428D01*
X73152142Y-63142857D01*
X73066428Y-63228571D01*
X72895000Y-63314285D01*
X72552142Y-63314285D01*
X72380714Y-63228571D01*
X74780714Y-63314285D02*
X74780714Y-61514285D01*
X74780714Y-63228571D02*
X74609285Y-63314285D01*
X74266428Y-63314285D01*
X74095000Y-63228571D01*
X74009285Y-63142857D01*
X73923571Y-62971428D01*
X73923571Y-62457142D01*
X74009285Y-62285714D01*
X74095000Y-62200000D01*
X74266428Y-62114285D01*
X74609285Y-62114285D01*
X74780714Y-62200000D01*
X77609285Y-62371428D02*
X77866428Y-62457142D01*
X77952142Y-62542857D01*
X78037857Y-62714285D01*
X78037857Y-62971428D01*
X77952142Y-63142857D01*
X77866428Y-63228571D01*
X77695000Y-63314285D01*
X77009285Y-63314285D01*
X77009285Y-61514285D01*
X77609285Y-61514285D01*
X77780714Y-61600000D01*
X77866428Y-61685714D01*
X77952142Y-61857142D01*
X77952142Y-62028571D01*
X77866428Y-62200000D01*
X77780714Y-62285714D01*
X77609285Y-62371428D01*
X77009285Y-62371428D01*
X79066428Y-63314285D02*
X78895000Y-63228571D01*
X78809285Y-63142857D01*
X78723571Y-62971428D01*
X78723571Y-62457142D01*
X78809285Y-62285714D01*
X78895000Y-62200000D01*
X79066428Y-62114285D01*
X79323571Y-62114285D01*
X79495000Y-62200000D01*
X79580714Y-62285714D01*
X79666428Y-62457142D01*
X79666428Y-62971428D01*
X79580714Y-63142857D01*
X79495000Y-63228571D01*
X79323571Y-63314285D01*
X79066428Y-63314285D01*
X80180714Y-62114285D02*
X80866428Y-62114285D01*
X80437857Y-61514285D02*
X80437857Y-63057142D01*
X80523571Y-63228571D01*
X80695000Y-63314285D01*
X80866428Y-63314285D01*
X81209285Y-62114285D02*
X81895000Y-62114285D01*
X81466428Y-61514285D02*
X81466428Y-63057142D01*
X81552142Y-63228571D01*
X81723571Y-63314285D01*
X81895000Y-63314285D01*
X82752142Y-63314285D02*
X82580714Y-63228571D01*
X82495000Y-63142857D01*
X82409285Y-62971428D01*
X82409285Y-62457142D01*
X82495000Y-62285714D01*
X82580714Y-62200000D01*
X82752142Y-62114285D01*
X83009285Y-62114285D01*
X83180714Y-62200000D01*
X83266428Y-62285714D01*
X83352142Y-62457142D01*
X83352142Y-62971428D01*
X83266428Y-63142857D01*
X83180714Y-63228571D01*
X83009285Y-63314285D01*
X82752142Y-63314285D01*
X84123571Y-63314285D02*
X84123571Y-62114285D01*
X84123571Y-62285714D02*
X84209285Y-62200000D01*
X84380714Y-62114285D01*
X84637857Y-62114285D01*
X84809285Y-62200000D01*
X84895000Y-62371428D01*
X84895000Y-63314285D01*
X84895000Y-62371428D02*
X84980714Y-62200000D01*
X85152142Y-62114285D01*
X85409285Y-62114285D01*
X85580714Y-62200000D01*
X85666428Y-62371428D01*
X85666428Y-63314285D01*
X87895000Y-63314285D02*
X87895000Y-61514285D01*
X88580714Y-61514285D01*
X88752142Y-61600000D01*
X88837857Y-61685714D01*
X88923571Y-61857142D01*
X88923571Y-62114285D01*
X88837857Y-62285714D01*
X88752142Y-62371428D01*
X88580714Y-62457142D01*
X87895000Y-62457142D01*
X89952142Y-63314285D02*
X89780714Y-63228571D01*
X89695000Y-63057142D01*
X89695000Y-61514285D01*
X91409285Y-63314285D02*
X91409285Y-62371428D01*
X91323571Y-62200000D01*
X91152142Y-62114285D01*
X90809285Y-62114285D01*
X90637857Y-62200000D01*
X91409285Y-63228571D02*
X91237857Y-63314285D01*
X90809285Y-63314285D01*
X90637857Y-63228571D01*
X90552142Y-63057142D01*
X90552142Y-62885714D01*
X90637857Y-62714285D01*
X90809285Y-62628571D01*
X91237857Y-62628571D01*
X91409285Y-62542857D01*
X92009285Y-62114285D02*
X92695000Y-62114285D01*
X92266428Y-61514285D02*
X92266428Y-63057142D01*
X92352142Y-63228571D01*
X92523571Y-63314285D01*
X92695000Y-63314285D01*
X93980714Y-63228571D02*
X93809285Y-63314285D01*
X93466428Y-63314285D01*
X93295000Y-63228571D01*
X93209285Y-63057142D01*
X93209285Y-62371428D01*
X93295000Y-62200000D01*
X93466428Y-62114285D01*
X93809285Y-62114285D01*
X93980714Y-62200000D01*
X94066428Y-62371428D01*
X94066428Y-62542857D01*
X93209285Y-62714285D01*
X96037857Y-62114285D02*
X96466428Y-63314285D01*
X96895000Y-62114285D01*
X97580714Y-63142857D02*
X97666428Y-63228571D01*
X97580714Y-63314285D01*
X97495000Y-63228571D01*
X97580714Y-63142857D01*
X97580714Y-63314285D01*
X99380714Y-63314285D02*
X98352142Y-63314285D01*
X98866428Y-63314285D02*
X98866428Y-61514285D01*
X98695000Y-61771428D01*
X98523571Y-61942857D01*
X98352142Y-62028571D01*
X102037857Y-64000000D02*
X101952142Y-63914285D01*
X101780714Y-63657142D01*
X101695000Y-63485714D01*
X101609285Y-63228571D01*
X101523571Y-62800000D01*
X101523571Y-62457142D01*
X101609285Y-62028571D01*
X101695000Y-61771428D01*
X101780714Y-61600000D01*
X101952142Y-61342857D01*
X102037857Y-61257142D01*
X103066428Y-61514285D02*
X103237857Y-61514285D01*
X103409285Y-61600000D01*
X103495000Y-61685714D01*
X103580714Y-61857142D01*
X103666428Y-62200000D01*
X103666428Y-62628571D01*
X103580714Y-62971428D01*
X103495000Y-63142857D01*
X103409285Y-63228571D01*
X103237857Y-63314285D01*
X103066428Y-63314285D01*
X102895000Y-63228571D01*
X102809285Y-63142857D01*
X102723571Y-62971428D01*
X102637857Y-62628571D01*
X102637857Y-62200000D01*
X102723571Y-61857142D01*
X102809285Y-61685714D01*
X102895000Y-61600000D01*
X103066428Y-61514285D01*
X105209285Y-62114285D02*
X105209285Y-63314285D01*
X104780714Y-61428571D02*
X104352142Y-62714285D01*
X105466428Y-62714285D01*
X106066428Y-61685714D02*
X106152142Y-61600000D01*
X106323571Y-61514285D01*
X106752142Y-61514285D01*
X106923571Y-61600000D01*
X107009285Y-61685714D01*
X107095000Y-61857142D01*
X107095000Y-62028571D01*
X107009285Y-62285714D01*
X105980714Y-63314285D01*
X107095000Y-63314285D01*
X107695000Y-64000000D02*
X107780714Y-63914285D01*
X107952142Y-63657142D01*
X108037857Y-63485714D01*
X108123571Y-63228571D01*
X108209285Y-62800000D01*
X108209285Y-62457142D01*
X108123571Y-62028571D01*
X108037857Y-61771428D01*
X107952142Y-61600000D01*
X107780714Y-61342857D01*
X107695000Y-61257142D01*
X61237857Y-65457142D02*
X61152142Y-65371428D01*
X60980714Y-65285714D01*
X60809285Y-65285714D01*
X60637857Y-65371428D01*
X60552142Y-65457142D01*
X60466428Y-65628571D01*
X60466428Y-65800000D01*
X60552142Y-65971428D01*
X60637857Y-66057142D01*
X60809285Y-66142857D01*
X60980714Y-66142857D01*
X61152142Y-66057142D01*
X61237857Y-65971428D01*
X61237857Y-65285714D02*
X61237857Y-65971428D01*
X61323571Y-66057142D01*
X61409285Y-66057142D01*
X61580714Y-65971428D01*
X61666428Y-65800000D01*
X61666428Y-65371428D01*
X61495000Y-65114285D01*
X61237857Y-64942857D01*
X60895000Y-64857142D01*
X60552142Y-64942857D01*
X60295000Y-65114285D01*
X60123571Y-65371428D01*
X60037857Y-65714285D01*
X60123571Y-66057142D01*
X60295000Y-66314285D01*
X60552142Y-66485714D01*
X60895000Y-66571428D01*
X61237857Y-66485714D01*
X61495000Y-66314285D01*
X62437857Y-65114285D02*
X62437857Y-66657142D01*
X62352142Y-66828571D01*
X62180714Y-66914285D01*
X62095000Y-66914285D01*
X62437857Y-64514285D02*
X62352142Y-64600000D01*
X62437857Y-64685714D01*
X62523571Y-64600000D01*
X62437857Y-64514285D01*
X62437857Y-64685714D01*
X63295000Y-65114285D02*
X63295000Y-66914285D01*
X63295000Y-65200000D02*
X63466428Y-65114285D01*
X63809285Y-65114285D01*
X63980714Y-65200000D01*
X64066428Y-65285714D01*
X64152142Y-65457142D01*
X64152142Y-65971428D01*
X64066428Y-66142857D01*
X63980714Y-66228571D01*
X63809285Y-66314285D01*
X63466428Y-66314285D01*
X63295000Y-66228571D01*
X64837857Y-66228571D02*
X65009285Y-66314285D01*
X65352142Y-66314285D01*
X65523571Y-66228571D01*
X65609285Y-66057142D01*
X65609285Y-65971428D01*
X65523571Y-65800000D01*
X65352142Y-65714285D01*
X65095000Y-65714285D01*
X64923571Y-65628571D01*
X64837857Y-65457142D01*
X64837857Y-65371428D01*
X64923571Y-65200000D01*
X65095000Y-65114285D01*
X65352142Y-65114285D01*
X65523571Y-65200000D01*
X66380714Y-66314285D02*
X66380714Y-64514285D01*
X66552142Y-65628571D02*
X67066428Y-66314285D01*
X67066428Y-65114285D02*
X66380714Y-65800000D01*
X68523571Y-66228571D02*
X68352142Y-66314285D01*
X68009285Y-66314285D01*
X67837857Y-66228571D01*
X67752142Y-66057142D01*
X67752142Y-65371428D01*
X67837857Y-65200000D01*
X68009285Y-65114285D01*
X68352142Y-65114285D01*
X68523571Y-65200000D01*
X68609285Y-65371428D01*
X68609285Y-65542857D01*
X67752142Y-65714285D01*
X69380714Y-65114285D02*
X69380714Y-66314285D01*
X69380714Y-65285714D02*
X69466428Y-65200000D01*
X69637857Y-65114285D01*
X69895000Y-65114285D01*
X70066428Y-65200000D01*
X70152142Y-65371428D01*
X70152142Y-66314285D01*
X71009285Y-65114285D02*
X71009285Y-66314285D01*
X71009285Y-65285714D02*
X71095000Y-65200000D01*
X71266428Y-65114285D01*
X71523571Y-65114285D01*
X71695000Y-65200000D01*
X71780714Y-65371428D01*
X71780714Y-66314285D01*
D12*
%TO.C,G\u002A\u002A\u002A*%
G36*
X52001778Y-60653021D02*
G01*
X52001744Y-60845344D01*
X52001605Y-61011606D01*
X52001309Y-61153970D01*
X52000801Y-61274598D01*
X52000028Y-61375652D01*
X51998935Y-61459292D01*
X51997469Y-61527682D01*
X51995576Y-61582984D01*
X51993202Y-61627358D01*
X51990293Y-61662968D01*
X51986796Y-61691974D01*
X51982657Y-61716540D01*
X51977821Y-61738826D01*
X51974405Y-61752622D01*
X51933105Y-61869251D01*
X51873247Y-61966233D01*
X51793591Y-62044667D01*
X51692898Y-62105656D01*
X51569929Y-62150300D01*
X51510362Y-62164647D01*
X51423386Y-62177486D01*
X51320196Y-62184222D01*
X51210341Y-62184945D01*
X51103365Y-62179745D01*
X51008815Y-62168715D01*
X50962428Y-62159435D01*
X50843305Y-62121194D01*
X50741335Y-62070100D01*
X50661057Y-62008529D01*
X50647496Y-61994616D01*
X50599174Y-61935707D01*
X50561372Y-61873219D01*
X50533004Y-61802950D01*
X50512987Y-61720699D01*
X50500235Y-61622264D01*
X50493666Y-61503443D01*
X50492134Y-61392584D01*
X50491889Y-61156223D01*
X51066353Y-61156223D01*
X51073747Y-61402468D01*
X51077769Y-61507254D01*
X51083552Y-61587670D01*
X51092325Y-61647563D01*
X51105316Y-61690779D01*
X51123754Y-61721167D01*
X51148867Y-61742573D01*
X51181884Y-61758844D01*
X51188356Y-61761370D01*
X51255605Y-61774863D01*
X51314077Y-61762571D01*
X51361343Y-61726207D01*
X51394974Y-61667486D01*
X51410564Y-61604615D01*
X51412404Y-61577827D01*
X51414174Y-61525391D01*
X51415844Y-61449881D01*
X51417384Y-61353870D01*
X51418765Y-61239933D01*
X51419957Y-61110643D01*
X51420930Y-60968575D01*
X51421655Y-60816302D01*
X51422102Y-60656398D01*
X51422192Y-60595306D01*
X51423222Y-59660445D01*
X52001778Y-59660445D01*
X52001778Y-60653021D01*
G37*
X52001778Y-60653021D02*
X52001744Y-60845344D01*
X52001605Y-61011606D01*
X52001309Y-61153970D01*
X52000801Y-61274598D01*
X52000028Y-61375652D01*
X51998935Y-61459292D01*
X51997469Y-61527682D01*
X51995576Y-61582984D01*
X51993202Y-61627358D01*
X51990293Y-61662968D01*
X51986796Y-61691974D01*
X51982657Y-61716540D01*
X51977821Y-61738826D01*
X51974405Y-61752622D01*
X51933105Y-61869251D01*
X51873247Y-61966233D01*
X51793591Y-62044667D01*
X51692898Y-62105656D01*
X51569929Y-62150300D01*
X51510362Y-62164647D01*
X51423386Y-62177486D01*
X51320196Y-62184222D01*
X51210341Y-62184945D01*
X51103365Y-62179745D01*
X51008815Y-62168715D01*
X50962428Y-62159435D01*
X50843305Y-62121194D01*
X50741335Y-62070100D01*
X50661057Y-62008529D01*
X50647496Y-61994616D01*
X50599174Y-61935707D01*
X50561372Y-61873219D01*
X50533004Y-61802950D01*
X50512987Y-61720699D01*
X50500235Y-61622264D01*
X50493666Y-61503443D01*
X50492134Y-61392584D01*
X50491889Y-61156223D01*
X51066353Y-61156223D01*
X51073747Y-61402468D01*
X51077769Y-61507254D01*
X51083552Y-61587670D01*
X51092325Y-61647563D01*
X51105316Y-61690779D01*
X51123754Y-61721167D01*
X51148867Y-61742573D01*
X51181884Y-61758844D01*
X51188356Y-61761370D01*
X51255605Y-61774863D01*
X51314077Y-61762571D01*
X51361343Y-61726207D01*
X51394974Y-61667486D01*
X51410564Y-61604615D01*
X51412404Y-61577827D01*
X51414174Y-61525391D01*
X51415844Y-61449881D01*
X51417384Y-61353870D01*
X51418765Y-61239933D01*
X51419957Y-61110643D01*
X51420930Y-60968575D01*
X51421655Y-60816302D01*
X51422102Y-60656398D01*
X51422192Y-60595306D01*
X51423222Y-59660445D01*
X52001778Y-59660445D01*
X52001778Y-60653021D01*
G36*
X53383792Y-61560429D02*
G01*
X53478392Y-61565210D01*
X53560698Y-61573468D01*
X53622885Y-61585106D01*
X53623427Y-61585252D01*
X53757465Y-61631463D01*
X53867561Y-61691580D01*
X53954994Y-61766841D01*
X54021038Y-61858479D01*
X54066972Y-61967731D01*
X54082928Y-62029978D01*
X54088289Y-62070617D01*
X54092950Y-62135869D01*
X54096907Y-62222184D01*
X54100159Y-62326007D01*
X54102703Y-62443789D01*
X54104537Y-62571978D01*
X54105658Y-62707020D01*
X54106064Y-62845365D01*
X54105752Y-62983461D01*
X54104721Y-63117755D01*
X54102967Y-63244697D01*
X54100489Y-63360734D01*
X54097284Y-63462315D01*
X54093350Y-63545887D01*
X54088683Y-63607899D01*
X54084010Y-63641628D01*
X54046608Y-63762164D01*
X53988933Y-63864299D01*
X53910101Y-63948901D01*
X53809225Y-64016837D01*
X53685420Y-64068975D01*
X53631611Y-64084978D01*
X53584412Y-64093821D01*
X53516646Y-64101646D01*
X53435958Y-64108070D01*
X53349996Y-64112711D01*
X53266408Y-64115186D01*
X53192839Y-64115113D01*
X53136938Y-64112108D01*
X53123611Y-64110398D01*
X52980140Y-64077902D01*
X52854250Y-64029828D01*
X52747921Y-63967458D01*
X52663136Y-63892076D01*
X52601876Y-63804963D01*
X52581510Y-63759629D01*
X52568505Y-63721685D01*
X52557522Y-63681331D01*
X52548424Y-63636033D01*
X52541073Y-63583254D01*
X52535334Y-63520459D01*
X52531069Y-63445115D01*
X52528141Y-63354685D01*
X52526412Y-63246634D01*
X52525774Y-63123716D01*
X53118184Y-63123716D01*
X53118420Y-63242072D01*
X53119561Y-63339369D01*
X53121826Y-63417996D01*
X53125436Y-63480340D01*
X53130614Y-63528788D01*
X53137579Y-63565728D01*
X53146552Y-63593548D01*
X53157753Y-63614635D01*
X53171405Y-63631377D01*
X53187728Y-63646161D01*
X53197179Y-63653737D01*
X53245796Y-63676499D01*
X53307229Y-63684330D01*
X53370554Y-63677561D01*
X53424848Y-63656526D01*
X53439086Y-63646372D01*
X53456629Y-63630984D01*
X53471386Y-63615188D01*
X53483598Y-63596533D01*
X53493507Y-63572567D01*
X53501352Y-63540840D01*
X53507375Y-63498901D01*
X53511816Y-63444297D01*
X53514915Y-63374580D01*
X53516915Y-63287297D01*
X53518054Y-63179997D01*
X53518575Y-63050230D01*
X53518717Y-62895544D01*
X53518722Y-62835445D01*
X53518645Y-62672072D01*
X53518270Y-62534458D01*
X53517380Y-62420141D01*
X53515758Y-62326657D01*
X53513188Y-62251543D01*
X53509451Y-62192336D01*
X53504332Y-62146574D01*
X53497613Y-62111793D01*
X53489078Y-62085531D01*
X53478509Y-62065324D01*
X53465690Y-62048710D01*
X53450405Y-62033225D01*
X53447866Y-62030829D01*
X53403331Y-62005167D01*
X53343912Y-61991656D01*
X53280683Y-61991364D01*
X53224714Y-62005360D01*
X53217880Y-62008628D01*
X53197389Y-62019411D01*
X53180109Y-62030384D01*
X53165750Y-62043910D01*
X53154024Y-62062353D01*
X53144644Y-62088076D01*
X53137319Y-62123443D01*
X53131763Y-62170818D01*
X53127685Y-62232563D01*
X53124799Y-62311042D01*
X53122815Y-62408620D01*
X53121445Y-62527659D01*
X53120400Y-62670522D01*
X53119541Y-62814278D01*
X53118632Y-62981914D01*
X53118184Y-63123716D01*
X52525774Y-63123716D01*
X52525746Y-63118428D01*
X52526007Y-62967531D01*
X52527056Y-62791409D01*
X52527317Y-62756975D01*
X52528723Y-62587852D01*
X52530282Y-62444351D01*
X52532268Y-62323872D01*
X52534953Y-62223816D01*
X52538610Y-62141582D01*
X52543514Y-62074571D01*
X52549937Y-62020183D01*
X52558153Y-61975818D01*
X52568433Y-61938875D01*
X52581053Y-61906756D01*
X52596285Y-61876860D01*
X52614403Y-61846588D01*
X52624693Y-61830398D01*
X52688220Y-61754823D01*
X52774612Y-61687374D01*
X52878986Y-61631024D01*
X52996457Y-61588750D01*
X53038967Y-61578010D01*
X53104486Y-61567915D01*
X53189014Y-61561684D01*
X53284724Y-61559221D01*
X53383792Y-61560429D01*
G37*
X53383792Y-61560429D02*
X53478392Y-61565210D01*
X53560698Y-61573468D01*
X53622885Y-61585106D01*
X53623427Y-61585252D01*
X53757465Y-61631463D01*
X53867561Y-61691580D01*
X53954994Y-61766841D01*
X54021038Y-61858479D01*
X54066972Y-61967731D01*
X54082928Y-62029978D01*
X54088289Y-62070617D01*
X54092950Y-62135869D01*
X54096907Y-62222184D01*
X54100159Y-62326007D01*
X54102703Y-62443789D01*
X54104537Y-62571978D01*
X54105658Y-62707020D01*
X54106064Y-62845365D01*
X54105752Y-62983461D01*
X54104721Y-63117755D01*
X54102967Y-63244697D01*
X54100489Y-63360734D01*
X54097284Y-63462315D01*
X54093350Y-63545887D01*
X54088683Y-63607899D01*
X54084010Y-63641628D01*
X54046608Y-63762164D01*
X53988933Y-63864299D01*
X53910101Y-63948901D01*
X53809225Y-64016837D01*
X53685420Y-64068975D01*
X53631611Y-64084978D01*
X53584412Y-64093821D01*
X53516646Y-64101646D01*
X53435958Y-64108070D01*
X53349996Y-64112711D01*
X53266408Y-64115186D01*
X53192839Y-64115113D01*
X53136938Y-64112108D01*
X53123611Y-64110398D01*
X52980140Y-64077902D01*
X52854250Y-64029828D01*
X52747921Y-63967458D01*
X52663136Y-63892076D01*
X52601876Y-63804963D01*
X52581510Y-63759629D01*
X52568505Y-63721685D01*
X52557522Y-63681331D01*
X52548424Y-63636033D01*
X52541073Y-63583254D01*
X52535334Y-63520459D01*
X52531069Y-63445115D01*
X52528141Y-63354685D01*
X52526412Y-63246634D01*
X52525774Y-63123716D01*
X53118184Y-63123716D01*
X53118420Y-63242072D01*
X53119561Y-63339369D01*
X53121826Y-63417996D01*
X53125436Y-63480340D01*
X53130614Y-63528788D01*
X53137579Y-63565728D01*
X53146552Y-63593548D01*
X53157753Y-63614635D01*
X53171405Y-63631377D01*
X53187728Y-63646161D01*
X53197179Y-63653737D01*
X53245796Y-63676499D01*
X53307229Y-63684330D01*
X53370554Y-63677561D01*
X53424848Y-63656526D01*
X53439086Y-63646372D01*
X53456629Y-63630984D01*
X53471386Y-63615188D01*
X53483598Y-63596533D01*
X53493507Y-63572567D01*
X53501352Y-63540840D01*
X53507375Y-63498901D01*
X53511816Y-63444297D01*
X53514915Y-63374580D01*
X53516915Y-63287297D01*
X53518054Y-63179997D01*
X53518575Y-63050230D01*
X53518717Y-62895544D01*
X53518722Y-62835445D01*
X53518645Y-62672072D01*
X53518270Y-62534458D01*
X53517380Y-62420141D01*
X53515758Y-62326657D01*
X53513188Y-62251543D01*
X53509451Y-62192336D01*
X53504332Y-62146574D01*
X53497613Y-62111793D01*
X53489078Y-62085531D01*
X53478509Y-62065324D01*
X53465690Y-62048710D01*
X53450405Y-62033225D01*
X53447866Y-62030829D01*
X53403331Y-62005167D01*
X53343912Y-61991656D01*
X53280683Y-61991364D01*
X53224714Y-62005360D01*
X53217880Y-62008628D01*
X53197389Y-62019411D01*
X53180109Y-62030384D01*
X53165750Y-62043910D01*
X53154024Y-62062353D01*
X53144644Y-62088076D01*
X53137319Y-62123443D01*
X53131763Y-62170818D01*
X53127685Y-62232563D01*
X53124799Y-62311042D01*
X53122815Y-62408620D01*
X53121445Y-62527659D01*
X53120400Y-62670522D01*
X53119541Y-62814278D01*
X53118632Y-62981914D01*
X53118184Y-63123716D01*
X52525774Y-63123716D01*
X52525746Y-63118428D01*
X52526007Y-62967531D01*
X52527056Y-62791409D01*
X52527317Y-62756975D01*
X52528723Y-62587852D01*
X52530282Y-62444351D01*
X52532268Y-62323872D01*
X52534953Y-62223816D01*
X52538610Y-62141582D01*
X52543514Y-62074571D01*
X52549937Y-62020183D01*
X52558153Y-61975818D01*
X52568433Y-61938875D01*
X52581053Y-61906756D01*
X52596285Y-61876860D01*
X52614403Y-61846588D01*
X52624693Y-61830398D01*
X52688220Y-61754823D01*
X52774612Y-61687374D01*
X52878986Y-61631024D01*
X52996457Y-61588750D01*
X53038967Y-61578010D01*
X53104486Y-61567915D01*
X53189014Y-61561684D01*
X53284724Y-61559221D01*
X53383792Y-61560429D01*
G36*
X53121374Y-64451167D02*
G01*
X53390603Y-65279304D01*
X53438398Y-65426004D01*
X53483782Y-65564697D01*
X53525983Y-65693060D01*
X53564226Y-65808771D01*
X53597739Y-65909507D01*
X53625750Y-65992945D01*
X53647484Y-66056762D01*
X53662170Y-66098636D01*
X53669033Y-66116244D01*
X53669283Y-66116606D01*
X53670848Y-66104582D01*
X53672066Y-66066749D01*
X53672933Y-66005520D01*
X53673447Y-65923305D01*
X53673603Y-65822518D01*
X53673397Y-65705568D01*
X53672825Y-65574869D01*
X53671885Y-65432831D01*
X53670600Y-65284941D01*
X53662467Y-64444111D01*
X54160778Y-64444111D01*
X54160778Y-66941778D01*
X53529720Y-66941778D01*
X53249055Y-66129239D01*
X52968389Y-65316700D01*
X52964746Y-66129239D01*
X52961104Y-66941778D01*
X52467444Y-66941778D01*
X52467444Y-64443591D01*
X53121374Y-64451167D01*
G37*
X53121374Y-64451167D02*
X53390603Y-65279304D01*
X53438398Y-65426004D01*
X53483782Y-65564697D01*
X53525983Y-65693060D01*
X53564226Y-65808771D01*
X53597739Y-65909507D01*
X53625750Y-65992945D01*
X53647484Y-66056762D01*
X53662170Y-66098636D01*
X53669033Y-66116244D01*
X53669283Y-66116606D01*
X53670848Y-66104582D01*
X53672066Y-66066749D01*
X53672933Y-66005520D01*
X53673447Y-65923305D01*
X53673603Y-65822518D01*
X53673397Y-65705568D01*
X53672825Y-65574869D01*
X53671885Y-65432831D01*
X53670600Y-65284941D01*
X53662467Y-64444111D01*
X54160778Y-64444111D01*
X54160778Y-66941778D01*
X53529720Y-66941778D01*
X53249055Y-66129239D01*
X52968389Y-65316700D01*
X52964746Y-66129239D01*
X52961104Y-66941778D01*
X52467444Y-66941778D01*
X52467444Y-64443591D01*
X53121374Y-64451167D01*
G36*
X55769444Y-66800667D02*
G01*
X55120333Y-66800667D01*
X55120333Y-67351000D01*
X55727111Y-67351000D01*
X55727111Y-67802556D01*
X55120333Y-67802556D01*
X55120333Y-68395223D01*
X55825889Y-68395223D01*
X55825889Y-68846778D01*
X54527667Y-68846778D01*
X54527667Y-66349111D01*
X55769444Y-66349111D01*
X55769444Y-66800667D01*
G37*
X55769444Y-66800667D02*
X55120333Y-66800667D01*
X55120333Y-67351000D01*
X55727111Y-67351000D01*
X55727111Y-67802556D01*
X55120333Y-67802556D01*
X55120333Y-68395223D01*
X55825889Y-68395223D01*
X55825889Y-68846778D01*
X54527667Y-68846778D01*
X54527667Y-66349111D01*
X55769444Y-66349111D01*
X55769444Y-66800667D01*
G36*
X55345019Y-69186598D02*
G01*
X55417466Y-69193748D01*
X55438308Y-69197348D01*
X55573539Y-69235641D01*
X55688520Y-69291035D01*
X55782158Y-69362675D01*
X55853361Y-69449705D01*
X55901034Y-69551268D01*
X55904578Y-69562568D01*
X55916722Y-69617671D01*
X55926900Y-69691990D01*
X55933982Y-69776535D01*
X55935642Y-69809861D01*
X55942256Y-69975667D01*
X55348680Y-69975667D01*
X55343868Y-69827789D01*
X55341151Y-69760458D01*
X55337300Y-69714973D01*
X55330916Y-69684959D01*
X55320599Y-69664041D01*
X55304952Y-69645844D01*
X55303654Y-69644541D01*
X55253871Y-69612371D01*
X55193466Y-69598817D01*
X55130324Y-69602899D01*
X55072329Y-69623639D01*
X55027368Y-69660056D01*
X55013878Y-69680536D01*
X54999187Y-69729025D01*
X54994053Y-69790559D01*
X54998505Y-69852131D01*
X55012572Y-69900732D01*
X55013368Y-69902284D01*
X55032736Y-69932106D01*
X55062575Y-69966232D01*
X55105147Y-70006586D01*
X55162715Y-70055090D01*
X55237540Y-70113667D01*
X55331883Y-70184241D01*
X55423722Y-70251203D01*
X55522487Y-70322825D01*
X55601455Y-70380767D01*
X55663830Y-70427704D01*
X55712814Y-70466314D01*
X55751609Y-70499273D01*
X55783418Y-70529256D01*
X55811443Y-70558941D01*
X55838887Y-70591005D01*
X55857186Y-70613465D01*
X55911915Y-70693218D01*
X55949699Y-70778244D01*
X55972390Y-70874765D01*
X55981840Y-70988999D01*
X55982362Y-71034000D01*
X55974692Y-71174478D01*
X55951677Y-71294233D01*
X55911943Y-71397065D01*
X55854115Y-71486775D01*
X55795674Y-71549980D01*
X55743789Y-71593254D01*
X55684831Y-71634034D01*
X55639297Y-71659546D01*
X55533018Y-71698523D01*
X55406346Y-71725999D01*
X55264974Y-71741250D01*
X55114593Y-71743550D01*
X55021169Y-71738309D01*
X54930527Y-71725609D01*
X54834924Y-71703549D01*
X54743378Y-71674831D01*
X54664911Y-71642162D01*
X54623715Y-71619128D01*
X54538416Y-71551932D01*
X54471019Y-71472537D01*
X54420433Y-71378316D01*
X54385564Y-71266639D01*
X54365321Y-71134879D01*
X54358613Y-70981084D01*
X54358333Y-70850556D01*
X54951000Y-70850556D01*
X54951310Y-71002250D01*
X54954498Y-71099405D01*
X54964702Y-71173099D01*
X54983557Y-71227579D01*
X55012701Y-71267088D01*
X55053768Y-71295873D01*
X55066940Y-71302278D01*
X55145818Y-71326457D01*
X55220665Y-71323982D01*
X55281992Y-71302411D01*
X55341721Y-71259060D01*
X55380679Y-71198627D01*
X55397807Y-71124223D01*
X55392047Y-71038964D01*
X55383496Y-71003881D01*
X55370350Y-70966752D01*
X55351801Y-70931534D01*
X55325247Y-70895763D01*
X55288086Y-70856973D01*
X55237718Y-70812701D01*
X55171541Y-70760482D01*
X55086954Y-70697852D01*
X54981357Y-70622345D01*
X54979222Y-70620834D01*
X54897160Y-70561770D01*
X54817070Y-70502281D01*
X54743912Y-70446188D01*
X54682648Y-70397315D01*
X54638237Y-70359484D01*
X54629163Y-70351071D01*
X54533689Y-70245683D01*
X54464775Y-70136107D01*
X54421446Y-70019349D01*
X54402729Y-69892414D01*
X54407647Y-69752307D01*
X54415565Y-69694660D01*
X54448956Y-69570664D01*
X54505781Y-69461602D01*
X54584813Y-69368682D01*
X54684825Y-69293114D01*
X54804591Y-69236108D01*
X54912164Y-69205037D01*
X54979470Y-69194544D01*
X55065013Y-69187327D01*
X55160188Y-69183514D01*
X55256391Y-69183229D01*
X55345019Y-69186598D01*
G37*
X55345019Y-69186598D02*
X55417466Y-69193748D01*
X55438308Y-69197348D01*
X55573539Y-69235641D01*
X55688520Y-69291035D01*
X55782158Y-69362675D01*
X55853361Y-69449705D01*
X55901034Y-69551268D01*
X55904578Y-69562568D01*
X55916722Y-69617671D01*
X55926900Y-69691990D01*
X55933982Y-69776535D01*
X55935642Y-69809861D01*
X55942256Y-69975667D01*
X55348680Y-69975667D01*
X55343868Y-69827789D01*
X55341151Y-69760458D01*
X55337300Y-69714973D01*
X55330916Y-69684959D01*
X55320599Y-69664041D01*
X55304952Y-69645844D01*
X55303654Y-69644541D01*
X55253871Y-69612371D01*
X55193466Y-69598817D01*
X55130324Y-69602899D01*
X55072329Y-69623639D01*
X55027368Y-69660056D01*
X55013878Y-69680536D01*
X54999187Y-69729025D01*
X54994053Y-69790559D01*
X54998505Y-69852131D01*
X55012572Y-69900732D01*
X55013368Y-69902284D01*
X55032736Y-69932106D01*
X55062575Y-69966232D01*
X55105147Y-70006586D01*
X55162715Y-70055090D01*
X55237540Y-70113667D01*
X55331883Y-70184241D01*
X55423722Y-70251203D01*
X55522487Y-70322825D01*
X55601455Y-70380767D01*
X55663830Y-70427704D01*
X55712814Y-70466314D01*
X55751609Y-70499273D01*
X55783418Y-70529256D01*
X55811443Y-70558941D01*
X55838887Y-70591005D01*
X55857186Y-70613465D01*
X55911915Y-70693218D01*
X55949699Y-70778244D01*
X55972390Y-70874765D01*
X55981840Y-70988999D01*
X55982362Y-71034000D01*
X55974692Y-71174478D01*
X55951677Y-71294233D01*
X55911943Y-71397065D01*
X55854115Y-71486775D01*
X55795674Y-71549980D01*
X55743789Y-71593254D01*
X55684831Y-71634034D01*
X55639297Y-71659546D01*
X55533018Y-71698523D01*
X55406346Y-71725999D01*
X55264974Y-71741250D01*
X55114593Y-71743550D01*
X55021169Y-71738309D01*
X54930527Y-71725609D01*
X54834924Y-71703549D01*
X54743378Y-71674831D01*
X54664911Y-71642162D01*
X54623715Y-71619128D01*
X54538416Y-71551932D01*
X54471019Y-71472537D01*
X54420433Y-71378316D01*
X54385564Y-71266639D01*
X54365321Y-71134879D01*
X54358613Y-70981084D01*
X54358333Y-70850556D01*
X54951000Y-70850556D01*
X54951310Y-71002250D01*
X54954498Y-71099405D01*
X54964702Y-71173099D01*
X54983557Y-71227579D01*
X55012701Y-71267088D01*
X55053768Y-71295873D01*
X55066940Y-71302278D01*
X55145818Y-71326457D01*
X55220665Y-71323982D01*
X55281992Y-71302411D01*
X55341721Y-71259060D01*
X55380679Y-71198627D01*
X55397807Y-71124223D01*
X55392047Y-71038964D01*
X55383496Y-71003881D01*
X55370350Y-70966752D01*
X55351801Y-70931534D01*
X55325247Y-70895763D01*
X55288086Y-70856973D01*
X55237718Y-70812701D01*
X55171541Y-70760482D01*
X55086954Y-70697852D01*
X54981357Y-70622345D01*
X54979222Y-70620834D01*
X54897160Y-70561770D01*
X54817070Y-70502281D01*
X54743912Y-70446188D01*
X54682648Y-70397315D01*
X54638237Y-70359484D01*
X54629163Y-70351071D01*
X54533689Y-70245683D01*
X54464775Y-70136107D01*
X54421446Y-70019349D01*
X54402729Y-69892414D01*
X54407647Y-69752307D01*
X54415565Y-69694660D01*
X54448956Y-69570664D01*
X54505781Y-69461602D01*
X54584813Y-69368682D01*
X54684825Y-69293114D01*
X54804591Y-69236108D01*
X54912164Y-69205037D01*
X54979470Y-69194544D01*
X55065013Y-69187327D01*
X55160188Y-69183514D01*
X55256391Y-69183229D01*
X55345019Y-69186598D01*
G36*
X50925333Y-58857873D02*
G01*
X51166109Y-58858210D01*
X51434015Y-58858815D01*
X51465556Y-58858899D01*
X53053056Y-58863167D01*
X53145446Y-58906949D01*
X53249267Y-58966554D01*
X53331716Y-59038345D01*
X53392728Y-59117834D01*
X53412146Y-59148650D01*
X53428574Y-59177211D01*
X53442263Y-59206087D01*
X53453462Y-59237850D01*
X53462421Y-59275069D01*
X53469390Y-59320315D01*
X53474619Y-59376159D01*
X53478358Y-59445172D01*
X53480856Y-59529924D01*
X53482364Y-59632986D01*
X53483132Y-59756929D01*
X53483408Y-59904323D01*
X53483444Y-60051061D01*
X53483444Y-60761111D01*
X54178980Y-60761111D01*
X54343936Y-60761245D01*
X54483125Y-60761689D01*
X54599001Y-60762511D01*
X54694017Y-60763778D01*
X54770628Y-60765556D01*
X54831287Y-60767912D01*
X54878449Y-60770912D01*
X54914566Y-60774623D01*
X54942094Y-60779113D01*
X54955521Y-60782211D01*
X55074704Y-60824355D01*
X55173665Y-60884411D01*
X55255708Y-60964702D01*
X55297728Y-61022834D01*
X55309682Y-61040903D01*
X55320541Y-61056905D01*
X55330357Y-61072206D01*
X55339183Y-61088172D01*
X55347072Y-61106170D01*
X55354075Y-61127565D01*
X55360245Y-61153722D01*
X55365635Y-61186009D01*
X55370297Y-61225790D01*
X55374283Y-61274432D01*
X55377645Y-61333300D01*
X55380437Y-61403761D01*
X55382710Y-61487180D01*
X55384517Y-61584923D01*
X55385910Y-61698356D01*
X55386941Y-61828845D01*
X55387664Y-61977756D01*
X55388130Y-62146454D01*
X55388392Y-62336306D01*
X55388502Y-62548677D01*
X55388513Y-62784934D01*
X55388476Y-63046442D01*
X55388445Y-63334567D01*
X55388444Y-63387860D01*
X55388444Y-65529708D01*
X56125750Y-65533715D01*
X56288753Y-65534620D01*
X56426039Y-65535487D01*
X56540112Y-65536430D01*
X56633478Y-65537562D01*
X56708641Y-65538996D01*
X56768106Y-65540845D01*
X56814378Y-65543222D01*
X56849962Y-65546241D01*
X56877361Y-65550013D01*
X56899082Y-65554653D01*
X56917629Y-65560273D01*
X56935506Y-65566986D01*
X56944682Y-65570669D01*
X57033022Y-65618975D01*
X57117365Y-65688261D01*
X57190334Y-65771488D01*
X57240278Y-65852685D01*
X57286389Y-65946347D01*
X57290044Y-69001181D01*
X57290446Y-69349592D01*
X57290783Y-69670898D01*
X57291047Y-69966215D01*
X57291232Y-70236661D01*
X57291331Y-70483351D01*
X57291337Y-70707402D01*
X57291244Y-70909932D01*
X57291045Y-71092058D01*
X57290733Y-71254895D01*
X57290301Y-71399560D01*
X57289744Y-71527171D01*
X57289054Y-71638845D01*
X57288224Y-71735697D01*
X57287249Y-71818844D01*
X57286120Y-71889404D01*
X57284833Y-71948494D01*
X57283379Y-71997229D01*
X57281752Y-72036726D01*
X57279946Y-72068103D01*
X57277953Y-72092477D01*
X57275768Y-72110963D01*
X57273384Y-72124679D01*
X57271321Y-72132991D01*
X57224560Y-72244689D01*
X57154340Y-72344342D01*
X57064211Y-72428089D01*
X56957724Y-72492068D01*
X56930113Y-72504059D01*
X56848944Y-72536834D01*
X55261444Y-72539384D01*
X54998514Y-72539731D01*
X54762575Y-72539873D01*
X54552396Y-72539800D01*
X54366748Y-72539501D01*
X54204400Y-72538965D01*
X54064122Y-72538183D01*
X53944683Y-72537141D01*
X53844852Y-72535831D01*
X53763401Y-72534242D01*
X53699097Y-72532361D01*
X53650711Y-72530179D01*
X53617012Y-72527685D01*
X53596771Y-72524868D01*
X53596333Y-72524773D01*
X53478416Y-72485096D01*
X53373940Y-72422779D01*
X53285903Y-72340871D01*
X53217302Y-72242422D01*
X53171133Y-72130483D01*
X53159086Y-72079824D01*
X53156925Y-72053859D01*
X53154933Y-72000064D01*
X53153110Y-71918829D01*
X53151460Y-71810547D01*
X53149986Y-71675608D01*
X53148690Y-71514403D01*
X53147574Y-71327324D01*
X53146641Y-71114763D01*
X53145894Y-70877110D01*
X53145336Y-70614756D01*
X53144968Y-70328093D01*
X53144793Y-70017513D01*
X53144778Y-69889074D01*
X53144778Y-67774334D01*
X52442750Y-67774166D01*
X52271879Y-67773948D01*
X52127107Y-67773348D01*
X52006315Y-67772314D01*
X51907381Y-67770793D01*
X51828185Y-67768733D01*
X51766607Y-67766081D01*
X51720526Y-67762787D01*
X51687820Y-67758797D01*
X51670167Y-67755152D01*
X51551722Y-67709865D01*
X51448709Y-67642738D01*
X51363726Y-67556462D01*
X51299369Y-67453727D01*
X51258234Y-67337223D01*
X51255644Y-67325611D01*
X51253279Y-67304780D01*
X51251125Y-67265097D01*
X51249177Y-67205828D01*
X51247428Y-67126239D01*
X51245875Y-67025596D01*
X51244510Y-66903167D01*
X51243330Y-66758216D01*
X51242329Y-66590012D01*
X51241501Y-66397819D01*
X51240842Y-66180905D01*
X51240346Y-65938536D01*
X51240007Y-65669978D01*
X51239821Y-65374497D01*
X51239778Y-65127806D01*
X51239778Y-63004778D01*
X50523639Y-63004625D01*
X50354909Y-63004532D01*
X50211847Y-63004188D01*
X50091898Y-63003379D01*
X49992509Y-63001891D01*
X49911126Y-62999511D01*
X49845193Y-62996025D01*
X49792158Y-62991219D01*
X49749465Y-62984879D01*
X49714560Y-62976792D01*
X49684890Y-62966744D01*
X49657899Y-62954521D01*
X49631034Y-62939910D01*
X49611136Y-62928265D01*
X49522582Y-62860759D01*
X49446195Y-62773036D01*
X49387028Y-62672190D01*
X49350133Y-62565313D01*
X49349035Y-62560278D01*
X49346391Y-62534556D01*
X49344083Y-62483705D01*
X49342108Y-62407410D01*
X49340464Y-62305360D01*
X49339150Y-62177239D01*
X49338163Y-62022733D01*
X49337658Y-61884473D01*
X49675174Y-61884473D01*
X49675338Y-62011803D01*
X49675721Y-62120515D01*
X49676347Y-62212211D01*
X49677240Y-62288490D01*
X49678425Y-62350955D01*
X49679926Y-62401205D01*
X49681766Y-62440842D01*
X49683971Y-62471465D01*
X49686564Y-62494677D01*
X49689570Y-62512077D01*
X49693012Y-62525267D01*
X49696916Y-62535847D01*
X49701304Y-62545418D01*
X49701486Y-62545794D01*
X49744572Y-62605181D01*
X49784728Y-62635291D01*
X49796887Y-62641882D01*
X49809557Y-62647459D01*
X49825066Y-62652107D01*
X49845739Y-62655910D01*
X49873903Y-62658954D01*
X49911883Y-62661323D01*
X49962007Y-62663101D01*
X50026599Y-62664374D01*
X50107987Y-62665225D01*
X50208496Y-62665740D01*
X50330452Y-62666003D01*
X50476183Y-62666098D01*
X50631847Y-62666111D01*
X50807693Y-62666144D01*
X50957573Y-62666356D01*
X51083744Y-62666922D01*
X51188461Y-62668014D01*
X51273981Y-62669808D01*
X51342560Y-62672475D01*
X51396454Y-62676190D01*
X51437920Y-62681127D01*
X51469213Y-62687458D01*
X51492590Y-62695357D01*
X51510308Y-62704998D01*
X51524622Y-62716554D01*
X51537789Y-62730199D01*
X51543167Y-62736199D01*
X51546856Y-62740708D01*
X51550213Y-62746447D01*
X51553260Y-62754721D01*
X51556016Y-62766834D01*
X51558501Y-62784091D01*
X51560736Y-62807797D01*
X51562739Y-62839257D01*
X51564532Y-62879777D01*
X51566134Y-62930660D01*
X51567566Y-62993212D01*
X51568848Y-63068738D01*
X51569999Y-63158542D01*
X51571039Y-63263930D01*
X51571990Y-63386207D01*
X51572870Y-63526677D01*
X51573700Y-63686646D01*
X51574500Y-63867417D01*
X51575290Y-64070297D01*
X51576091Y-64296590D01*
X51576921Y-64547602D01*
X51577802Y-64824636D01*
X51578444Y-65030170D01*
X51579369Y-65325753D01*
X51580228Y-65594422D01*
X51581040Y-65837488D01*
X51581827Y-66056259D01*
X51582608Y-66252045D01*
X51583405Y-66426153D01*
X51584239Y-66579895D01*
X51585129Y-66714577D01*
X51586096Y-66831510D01*
X51587162Y-66932003D01*
X51588345Y-67017365D01*
X51589668Y-67088905D01*
X51591150Y-67147931D01*
X51592812Y-67195754D01*
X51594675Y-67233681D01*
X51596759Y-67263023D01*
X51599085Y-67285089D01*
X51601673Y-67301186D01*
X51604544Y-67312625D01*
X51607719Y-67320715D01*
X51611217Y-67326764D01*
X51614594Y-67331458D01*
X51648199Y-67369132D01*
X51682640Y-67399517D01*
X51691484Y-67405608D01*
X51701916Y-67410809D01*
X51716159Y-67415213D01*
X51736435Y-67418912D01*
X51764966Y-67421998D01*
X51803974Y-67424564D01*
X51855681Y-67426702D01*
X51922311Y-67428503D01*
X52006084Y-67430060D01*
X52109223Y-67431465D01*
X52233951Y-67432811D01*
X52382489Y-67434188D01*
X52554224Y-67435667D01*
X53386857Y-67442723D01*
X53435151Y-67495432D01*
X53483444Y-67548141D01*
X53483754Y-69781432D01*
X53483803Y-70075331D01*
X53483876Y-70342337D01*
X53483988Y-70583778D01*
X53484154Y-70800984D01*
X53484391Y-70995282D01*
X53484714Y-71168003D01*
X53485139Y-71320474D01*
X53485681Y-71454026D01*
X53486357Y-71569985D01*
X53487181Y-71669682D01*
X53488170Y-71754445D01*
X53489339Y-71825604D01*
X53490704Y-71884486D01*
X53492280Y-71932420D01*
X53494083Y-71970737D01*
X53496130Y-72000764D01*
X53498435Y-72023830D01*
X53501014Y-72041264D01*
X53503883Y-72054395D01*
X53507058Y-72064551D01*
X53510553Y-72073063D01*
X53510794Y-72073595D01*
X53551831Y-72135457D01*
X53610358Y-72176090D01*
X53656659Y-72191644D01*
X53676653Y-72193089D01*
X53722993Y-72194438D01*
X53793800Y-72195681D01*
X53887199Y-72196808D01*
X54001313Y-72197809D01*
X54134263Y-72198673D01*
X54284174Y-72199389D01*
X54449168Y-72199949D01*
X54627369Y-72200341D01*
X54816899Y-72200555D01*
X55015882Y-72200580D01*
X55222441Y-72200407D01*
X55247333Y-72200373D01*
X55489296Y-72200020D01*
X55704643Y-72199672D01*
X55894983Y-72199296D01*
X56061923Y-72198861D01*
X56207070Y-72198335D01*
X56332031Y-72197688D01*
X56438415Y-72196888D01*
X56527827Y-72195903D01*
X56601877Y-72194702D01*
X56662170Y-72193254D01*
X56710315Y-72191526D01*
X56747918Y-72189489D01*
X56776587Y-72187109D01*
X56797929Y-72184356D01*
X56813553Y-72181198D01*
X56825064Y-72177604D01*
X56834070Y-72173543D01*
X56841841Y-72169182D01*
X56883897Y-72136835D01*
X56920326Y-72096813D01*
X56922980Y-72093012D01*
X56954778Y-72045827D01*
X56954778Y-69038499D01*
X56954771Y-68695267D01*
X56954746Y-68379124D01*
X56954692Y-68088937D01*
X56954600Y-67823573D01*
X56954459Y-67581899D01*
X56954261Y-67362782D01*
X56953995Y-67165089D01*
X56953652Y-66987686D01*
X56953222Y-66829442D01*
X56952696Y-66689222D01*
X56952063Y-66565893D01*
X56951314Y-66458323D01*
X56950439Y-66365379D01*
X56949429Y-66285927D01*
X56948274Y-66218835D01*
X56946964Y-66162968D01*
X56945490Y-66117195D01*
X56943842Y-66080383D01*
X56942009Y-66051397D01*
X56939983Y-66029105D01*
X56937754Y-66012375D01*
X56935311Y-66000072D01*
X56932646Y-65991064D01*
X56929749Y-65984218D01*
X56928614Y-65982002D01*
X56898948Y-65943076D01*
X56858048Y-65907962D01*
X56847475Y-65901316D01*
X56792500Y-65869798D01*
X55988167Y-65869513D01*
X55816970Y-65869419D01*
X55671716Y-65869217D01*
X55550122Y-65868833D01*
X55449908Y-65868193D01*
X55368793Y-65867222D01*
X55304497Y-65865846D01*
X55254738Y-65863991D01*
X55217236Y-65861582D01*
X55189711Y-65858545D01*
X55169881Y-65854806D01*
X55155466Y-65850289D01*
X55144184Y-65844921D01*
X55138873Y-65841814D01*
X55103134Y-65814271D01*
X55076754Y-65784195D01*
X55075373Y-65781894D01*
X55072854Y-65772966D01*
X55070528Y-65754597D01*
X55068382Y-65725626D01*
X55066403Y-65684895D01*
X55064578Y-65631242D01*
X55062894Y-65563509D01*
X55061338Y-65480536D01*
X55059898Y-65381163D01*
X55058559Y-65264230D01*
X55057310Y-65128578D01*
X55056137Y-64973047D01*
X55055027Y-64796477D01*
X55053968Y-64597708D01*
X55052945Y-64375582D01*
X55051947Y-64128937D01*
X55050960Y-63856615D01*
X55049971Y-63557455D01*
X55049778Y-63496171D01*
X55048851Y-63201211D01*
X55047991Y-62933161D01*
X55047177Y-62690710D01*
X55046389Y-62472545D01*
X55045606Y-62277355D01*
X55044807Y-62103828D01*
X55043971Y-61950652D01*
X55043078Y-61816516D01*
X55042107Y-61700107D01*
X55041037Y-61600113D01*
X55039848Y-61515224D01*
X55038519Y-61444127D01*
X55037030Y-61385510D01*
X55035359Y-61338061D01*
X55033485Y-61300469D01*
X55031390Y-61271422D01*
X55029050Y-61249608D01*
X55026447Y-61233714D01*
X55023559Y-61222431D01*
X55020365Y-61214444D01*
X55016845Y-61208444D01*
X55013628Y-61203987D01*
X54980023Y-61166313D01*
X54945583Y-61135928D01*
X54936726Y-61129829D01*
X54926277Y-61124621D01*
X54912011Y-61120213D01*
X54891702Y-61116512D01*
X54863123Y-61113424D01*
X54824050Y-61110859D01*
X54772255Y-61108721D01*
X54705513Y-61106921D01*
X54621599Y-61105364D01*
X54518285Y-61103957D01*
X54393346Y-61102610D01*
X54244557Y-61101228D01*
X54076561Y-61099778D01*
X53902628Y-61098272D01*
X53754713Y-61096883D01*
X53630611Y-61095522D01*
X53528118Y-61094098D01*
X53445030Y-61092523D01*
X53379142Y-61090706D01*
X53328251Y-61088556D01*
X53290153Y-61085985D01*
X53262642Y-61082903D01*
X53243515Y-61079218D01*
X53230568Y-61074843D01*
X53221597Y-61069686D01*
X53215493Y-61064658D01*
X53202356Y-61052563D01*
X53191154Y-61040432D01*
X53181714Y-61026023D01*
X53173860Y-61007097D01*
X53167417Y-60981411D01*
X53162210Y-60946727D01*
X53158065Y-60900801D01*
X53154805Y-60841395D01*
X53152257Y-60766267D01*
X53150246Y-60673176D01*
X53148596Y-60559881D01*
X53147132Y-60424141D01*
X53145680Y-60263717D01*
X53144778Y-60158881D01*
X53143267Y-59986033D01*
X53141881Y-59839167D01*
X53140524Y-59716043D01*
X53139103Y-59614423D01*
X53137522Y-59532066D01*
X53135690Y-59466733D01*
X53133510Y-59416185D01*
X53130889Y-59378182D01*
X53127733Y-59350485D01*
X53123947Y-59330855D01*
X53119438Y-59317052D01*
X53114111Y-59306836D01*
X53108628Y-59298975D01*
X53075018Y-59261311D01*
X53040565Y-59230928D01*
X53034241Y-59226437D01*
X53026926Y-59222434D01*
X53017050Y-59218890D01*
X53003041Y-59215779D01*
X52983327Y-59213070D01*
X52956338Y-59210737D01*
X52920501Y-59208752D01*
X52874245Y-59207086D01*
X52815999Y-59205712D01*
X52744190Y-59204601D01*
X52657248Y-59203726D01*
X52553601Y-59203057D01*
X52431676Y-59202569D01*
X52289904Y-59202231D01*
X52126712Y-59202017D01*
X51940529Y-59201898D01*
X51729782Y-59201846D01*
X51492902Y-59201834D01*
X51409111Y-59201834D01*
X51163302Y-59201839D01*
X50944143Y-59201875D01*
X50750063Y-59201969D01*
X50579491Y-59202148D01*
X50430855Y-59202442D01*
X50302584Y-59202878D01*
X50193106Y-59203485D01*
X50100849Y-59204289D01*
X50024242Y-59205319D01*
X49961713Y-59206604D01*
X49911691Y-59208171D01*
X49872605Y-59210048D01*
X49842882Y-59212264D01*
X49820952Y-59214846D01*
X49805242Y-59217822D01*
X49794182Y-59221221D01*
X49786199Y-59225070D01*
X49779722Y-59229397D01*
X49777657Y-59230928D01*
X49739981Y-59264537D01*
X49709594Y-59298987D01*
X49705078Y-59305374D01*
X49701052Y-59312810D01*
X49697482Y-59322875D01*
X49694337Y-59337150D01*
X49691584Y-59357217D01*
X49689192Y-59384657D01*
X49687129Y-59421050D01*
X49685361Y-59467977D01*
X49683857Y-59527019D01*
X49682586Y-59599757D01*
X49681514Y-59687772D01*
X49680610Y-59792646D01*
X49679841Y-59915958D01*
X49679175Y-60059290D01*
X49678581Y-60224224D01*
X49678026Y-60412338D01*
X49677478Y-60625216D01*
X49676904Y-60864437D01*
X49676791Y-60912535D01*
X49676223Y-61156964D01*
X49675753Y-61374771D01*
X49675406Y-61567558D01*
X49675205Y-61736925D01*
X49675174Y-61884473D01*
X49337658Y-61884473D01*
X49337501Y-61841530D01*
X49337163Y-61633315D01*
X49337145Y-61397775D01*
X49337446Y-61134596D01*
X49337953Y-60888111D01*
X49341833Y-59286500D01*
X49386892Y-59191381D01*
X49453112Y-59082461D01*
X49538318Y-58992767D01*
X49639738Y-58924479D01*
X49754602Y-58879780D01*
X49793859Y-58870794D01*
X49817303Y-58868064D01*
X49858064Y-58865672D01*
X49917123Y-58863612D01*
X49995463Y-58861875D01*
X50094064Y-58860456D01*
X50213907Y-58859347D01*
X50355974Y-58858541D01*
X50521247Y-58858032D01*
X50710706Y-58857811D01*
X50925333Y-58857873D01*
G37*
X50925333Y-58857873D02*
X51166109Y-58858210D01*
X51434015Y-58858815D01*
X51465556Y-58858899D01*
X53053056Y-58863167D01*
X53145446Y-58906949D01*
X53249267Y-58966554D01*
X53331716Y-59038345D01*
X53392728Y-59117834D01*
X53412146Y-59148650D01*
X53428574Y-59177211D01*
X53442263Y-59206087D01*
X53453462Y-59237850D01*
X53462421Y-59275069D01*
X53469390Y-59320315D01*
X53474619Y-59376159D01*
X53478358Y-59445172D01*
X53480856Y-59529924D01*
X53482364Y-59632986D01*
X53483132Y-59756929D01*
X53483408Y-59904323D01*
X53483444Y-60051061D01*
X53483444Y-60761111D01*
X54178980Y-60761111D01*
X54343936Y-60761245D01*
X54483125Y-60761689D01*
X54599001Y-60762511D01*
X54694017Y-60763778D01*
X54770628Y-60765556D01*
X54831287Y-60767912D01*
X54878449Y-60770912D01*
X54914566Y-60774623D01*
X54942094Y-60779113D01*
X54955521Y-60782211D01*
X55074704Y-60824355D01*
X55173665Y-60884411D01*
X55255708Y-60964702D01*
X55297728Y-61022834D01*
X55309682Y-61040903D01*
X55320541Y-61056905D01*
X55330357Y-61072206D01*
X55339183Y-61088172D01*
X55347072Y-61106170D01*
X55354075Y-61127565D01*
X55360245Y-61153722D01*
X55365635Y-61186009D01*
X55370297Y-61225790D01*
X55374283Y-61274432D01*
X55377645Y-61333300D01*
X55380437Y-61403761D01*
X55382710Y-61487180D01*
X55384517Y-61584923D01*
X55385910Y-61698356D01*
X55386941Y-61828845D01*
X55387664Y-61977756D01*
X55388130Y-62146454D01*
X55388392Y-62336306D01*
X55388502Y-62548677D01*
X55388513Y-62784934D01*
X55388476Y-63046442D01*
X55388445Y-63334567D01*
X55388444Y-63387860D01*
X55388444Y-65529708D01*
X56125750Y-65533715D01*
X56288753Y-65534620D01*
X56426039Y-65535487D01*
X56540112Y-65536430D01*
X56633478Y-65537562D01*
X56708641Y-65538996D01*
X56768106Y-65540845D01*
X56814378Y-65543222D01*
X56849962Y-65546241D01*
X56877361Y-65550013D01*
X56899082Y-65554653D01*
X56917629Y-65560273D01*
X56935506Y-65566986D01*
X56944682Y-65570669D01*
X57033022Y-65618975D01*
X57117365Y-65688261D01*
X57190334Y-65771488D01*
X57240278Y-65852685D01*
X57286389Y-65946347D01*
X57290044Y-69001181D01*
X57290446Y-69349592D01*
X57290783Y-69670898D01*
X57291047Y-69966215D01*
X57291232Y-70236661D01*
X57291331Y-70483351D01*
X57291337Y-70707402D01*
X57291244Y-70909932D01*
X57291045Y-71092058D01*
X57290733Y-71254895D01*
X57290301Y-71399560D01*
X57289744Y-71527171D01*
X57289054Y-71638845D01*
X57288224Y-71735697D01*
X57287249Y-71818844D01*
X57286120Y-71889404D01*
X57284833Y-71948494D01*
X57283379Y-71997229D01*
X57281752Y-72036726D01*
X57279946Y-72068103D01*
X57277953Y-72092477D01*
X57275768Y-72110963D01*
X57273384Y-72124679D01*
X57271321Y-72132991D01*
X57224560Y-72244689D01*
X57154340Y-72344342D01*
X57064211Y-72428089D01*
X56957724Y-72492068D01*
X56930113Y-72504059D01*
X56848944Y-72536834D01*
X55261444Y-72539384D01*
X54998514Y-72539731D01*
X54762575Y-72539873D01*
X54552396Y-72539800D01*
X54366748Y-72539501D01*
X54204400Y-72538965D01*
X54064122Y-72538183D01*
X53944683Y-72537141D01*
X53844852Y-72535831D01*
X53763401Y-72534242D01*
X53699097Y-72532361D01*
X53650711Y-72530179D01*
X53617012Y-72527685D01*
X53596771Y-72524868D01*
X53596333Y-72524773D01*
X53478416Y-72485096D01*
X53373940Y-72422779D01*
X53285903Y-72340871D01*
X53217302Y-72242422D01*
X53171133Y-72130483D01*
X53159086Y-72079824D01*
X53156925Y-72053859D01*
X53154933Y-72000064D01*
X53153110Y-71918829D01*
X53151460Y-71810547D01*
X53149986Y-71675608D01*
X53148690Y-71514403D01*
X53147574Y-71327324D01*
X53146641Y-71114763D01*
X53145894Y-70877110D01*
X53145336Y-70614756D01*
X53144968Y-70328093D01*
X53144793Y-70017513D01*
X53144778Y-69889074D01*
X53144778Y-67774334D01*
X52442750Y-67774166D01*
X52271879Y-67773948D01*
X52127107Y-67773348D01*
X52006315Y-67772314D01*
X51907381Y-67770793D01*
X51828185Y-67768733D01*
X51766607Y-67766081D01*
X51720526Y-67762787D01*
X51687820Y-67758797D01*
X51670167Y-67755152D01*
X51551722Y-67709865D01*
X51448709Y-67642738D01*
X51363726Y-67556462D01*
X51299369Y-67453727D01*
X51258234Y-67337223D01*
X51255644Y-67325611D01*
X51253279Y-67304780D01*
X51251125Y-67265097D01*
X51249177Y-67205828D01*
X51247428Y-67126239D01*
X51245875Y-67025596D01*
X51244510Y-66903167D01*
X51243330Y-66758216D01*
X51242329Y-66590012D01*
X51241501Y-66397819D01*
X51240842Y-66180905D01*
X51240346Y-65938536D01*
X51240007Y-65669978D01*
X51239821Y-65374497D01*
X51239778Y-65127806D01*
X51239778Y-63004778D01*
X50523639Y-63004625D01*
X50354909Y-63004532D01*
X50211847Y-63004188D01*
X50091898Y-63003379D01*
X49992509Y-63001891D01*
X49911126Y-62999511D01*
X49845193Y-62996025D01*
X49792158Y-62991219D01*
X49749465Y-62984879D01*
X49714560Y-62976792D01*
X49684890Y-62966744D01*
X49657899Y-62954521D01*
X49631034Y-62939910D01*
X49611136Y-62928265D01*
X49522582Y-62860759D01*
X49446195Y-62773036D01*
X49387028Y-62672190D01*
X49350133Y-62565313D01*
X49349035Y-62560278D01*
X49346391Y-62534556D01*
X49344083Y-62483705D01*
X49342108Y-62407410D01*
X49340464Y-62305360D01*
X49339150Y-62177239D01*
X49338163Y-62022733D01*
X49337658Y-61884473D01*
X49675174Y-61884473D01*
X49675338Y-62011803D01*
X49675721Y-62120515D01*
X49676347Y-62212211D01*
X49677240Y-62288490D01*
X49678425Y-62350955D01*
X49679926Y-62401205D01*
X49681766Y-62440842D01*
X49683971Y-62471465D01*
X49686564Y-62494677D01*
X49689570Y-62512077D01*
X49693012Y-62525267D01*
X49696916Y-62535847D01*
X49701304Y-62545418D01*
X49701486Y-62545794D01*
X49744572Y-62605181D01*
X49784728Y-62635291D01*
X49796887Y-62641882D01*
X49809557Y-62647459D01*
X49825066Y-62652107D01*
X49845739Y-62655910D01*
X49873903Y-62658954D01*
X49911883Y-62661323D01*
X49962007Y-62663101D01*
X50026599Y-62664374D01*
X50107987Y-62665225D01*
X50208496Y-62665740D01*
X50330452Y-62666003D01*
X50476183Y-62666098D01*
X50631847Y-62666111D01*
X50807693Y-62666144D01*
X50957573Y-62666356D01*
X51083744Y-62666922D01*
X51188461Y-62668014D01*
X51273981Y-62669808D01*
X51342560Y-62672475D01*
X51396454Y-62676190D01*
X51437920Y-62681127D01*
X51469213Y-62687458D01*
X51492590Y-62695357D01*
X51510308Y-62704998D01*
X51524622Y-62716554D01*
X51537789Y-62730199D01*
X51543167Y-62736199D01*
X51546856Y-62740708D01*
X51550213Y-62746447D01*
X51553260Y-62754721D01*
X51556016Y-62766834D01*
X51558501Y-62784091D01*
X51560736Y-62807797D01*
X51562739Y-62839257D01*
X51564532Y-62879777D01*
X51566134Y-62930660D01*
X51567566Y-62993212D01*
X51568848Y-63068738D01*
X51569999Y-63158542D01*
X51571039Y-63263930D01*
X51571990Y-63386207D01*
X51572870Y-63526677D01*
X51573700Y-63686646D01*
X51574500Y-63867417D01*
X51575290Y-64070297D01*
X51576091Y-64296590D01*
X51576921Y-64547602D01*
X51577802Y-64824636D01*
X51578444Y-65030170D01*
X51579369Y-65325753D01*
X51580228Y-65594422D01*
X51581040Y-65837488D01*
X51581827Y-66056259D01*
X51582608Y-66252045D01*
X51583405Y-66426153D01*
X51584239Y-66579895D01*
X51585129Y-66714577D01*
X51586096Y-66831510D01*
X51587162Y-66932003D01*
X51588345Y-67017365D01*
X51589668Y-67088905D01*
X51591150Y-67147931D01*
X51592812Y-67195754D01*
X51594675Y-67233681D01*
X51596759Y-67263023D01*
X51599085Y-67285089D01*
X51601673Y-67301186D01*
X51604544Y-67312625D01*
X51607719Y-67320715D01*
X51611217Y-67326764D01*
X51614594Y-67331458D01*
X51648199Y-67369132D01*
X51682640Y-67399517D01*
X51691484Y-67405608D01*
X51701916Y-67410809D01*
X51716159Y-67415213D01*
X51736435Y-67418912D01*
X51764966Y-67421998D01*
X51803974Y-67424564D01*
X51855681Y-67426702D01*
X51922311Y-67428503D01*
X52006084Y-67430060D01*
X52109223Y-67431465D01*
X52233951Y-67432811D01*
X52382489Y-67434188D01*
X52554224Y-67435667D01*
X53386857Y-67442723D01*
X53435151Y-67495432D01*
X53483444Y-67548141D01*
X53483754Y-69781432D01*
X53483803Y-70075331D01*
X53483876Y-70342337D01*
X53483988Y-70583778D01*
X53484154Y-70800984D01*
X53484391Y-70995282D01*
X53484714Y-71168003D01*
X53485139Y-71320474D01*
X53485681Y-71454026D01*
X53486357Y-71569985D01*
X53487181Y-71669682D01*
X53488170Y-71754445D01*
X53489339Y-71825604D01*
X53490704Y-71884486D01*
X53492280Y-71932420D01*
X53494083Y-71970737D01*
X53496130Y-72000764D01*
X53498435Y-72023830D01*
X53501014Y-72041264D01*
X53503883Y-72054395D01*
X53507058Y-72064551D01*
X53510553Y-72073063D01*
X53510794Y-72073595D01*
X53551831Y-72135457D01*
X53610358Y-72176090D01*
X53656659Y-72191644D01*
X53676653Y-72193089D01*
X53722993Y-72194438D01*
X53793800Y-72195681D01*
X53887199Y-72196808D01*
X54001313Y-72197809D01*
X54134263Y-72198673D01*
X54284174Y-72199389D01*
X54449168Y-72199949D01*
X54627369Y-72200341D01*
X54816899Y-72200555D01*
X55015882Y-72200580D01*
X55222441Y-72200407D01*
X55247333Y-72200373D01*
X55489296Y-72200020D01*
X55704643Y-72199672D01*
X55894983Y-72199296D01*
X56061923Y-72198861D01*
X56207070Y-72198335D01*
X56332031Y-72197688D01*
X56438415Y-72196888D01*
X56527827Y-72195903D01*
X56601877Y-72194702D01*
X56662170Y-72193254D01*
X56710315Y-72191526D01*
X56747918Y-72189489D01*
X56776587Y-72187109D01*
X56797929Y-72184356D01*
X56813553Y-72181198D01*
X56825064Y-72177604D01*
X56834070Y-72173543D01*
X56841841Y-72169182D01*
X56883897Y-72136835D01*
X56920326Y-72096813D01*
X56922980Y-72093012D01*
X56954778Y-72045827D01*
X56954778Y-69038499D01*
X56954771Y-68695267D01*
X56954746Y-68379124D01*
X56954692Y-68088937D01*
X56954600Y-67823573D01*
X56954459Y-67581899D01*
X56954261Y-67362782D01*
X56953995Y-67165089D01*
X56953652Y-66987686D01*
X56953222Y-66829442D01*
X56952696Y-66689222D01*
X56952063Y-66565893D01*
X56951314Y-66458323D01*
X56950439Y-66365379D01*
X56949429Y-66285927D01*
X56948274Y-66218835D01*
X56946964Y-66162968D01*
X56945490Y-66117195D01*
X56943842Y-66080383D01*
X56942009Y-66051397D01*
X56939983Y-66029105D01*
X56937754Y-66012375D01*
X56935311Y-66000072D01*
X56932646Y-65991064D01*
X56929749Y-65984218D01*
X56928614Y-65982002D01*
X56898948Y-65943076D01*
X56858048Y-65907962D01*
X56847475Y-65901316D01*
X56792500Y-65869798D01*
X55988167Y-65869513D01*
X55816970Y-65869419D01*
X55671716Y-65869217D01*
X55550122Y-65868833D01*
X55449908Y-65868193D01*
X55368793Y-65867222D01*
X55304497Y-65865846D01*
X55254738Y-65863991D01*
X55217236Y-65861582D01*
X55189711Y-65858545D01*
X55169881Y-65854806D01*
X55155466Y-65850289D01*
X55144184Y-65844921D01*
X55138873Y-65841814D01*
X55103134Y-65814271D01*
X55076754Y-65784195D01*
X55075373Y-65781894D01*
X55072854Y-65772966D01*
X55070528Y-65754597D01*
X55068382Y-65725626D01*
X55066403Y-65684895D01*
X55064578Y-65631242D01*
X55062894Y-65563509D01*
X55061338Y-65480536D01*
X55059898Y-65381163D01*
X55058559Y-65264230D01*
X55057310Y-65128578D01*
X55056137Y-64973047D01*
X55055027Y-64796477D01*
X55053968Y-64597708D01*
X55052945Y-64375582D01*
X55051947Y-64128937D01*
X55050960Y-63856615D01*
X55049971Y-63557455D01*
X55049778Y-63496171D01*
X55048851Y-63201211D01*
X55047991Y-62933161D01*
X55047177Y-62690710D01*
X55046389Y-62472545D01*
X55045606Y-62277355D01*
X55044807Y-62103828D01*
X55043971Y-61950652D01*
X55043078Y-61816516D01*
X55042107Y-61700107D01*
X55041037Y-61600113D01*
X55039848Y-61515224D01*
X55038519Y-61444127D01*
X55037030Y-61385510D01*
X55035359Y-61338061D01*
X55033485Y-61300469D01*
X55031390Y-61271422D01*
X55029050Y-61249608D01*
X55026447Y-61233714D01*
X55023559Y-61222431D01*
X55020365Y-61214444D01*
X55016845Y-61208444D01*
X55013628Y-61203987D01*
X54980023Y-61166313D01*
X54945583Y-61135928D01*
X54936726Y-61129829D01*
X54926277Y-61124621D01*
X54912011Y-61120213D01*
X54891702Y-61116512D01*
X54863123Y-61113424D01*
X54824050Y-61110859D01*
X54772255Y-61108721D01*
X54705513Y-61106921D01*
X54621599Y-61105364D01*
X54518285Y-61103957D01*
X54393346Y-61102610D01*
X54244557Y-61101228D01*
X54076561Y-61099778D01*
X53902628Y-61098272D01*
X53754713Y-61096883D01*
X53630611Y-61095522D01*
X53528118Y-61094098D01*
X53445030Y-61092523D01*
X53379142Y-61090706D01*
X53328251Y-61088556D01*
X53290153Y-61085985D01*
X53262642Y-61082903D01*
X53243515Y-61079218D01*
X53230568Y-61074843D01*
X53221597Y-61069686D01*
X53215493Y-61064658D01*
X53202356Y-61052563D01*
X53191154Y-61040432D01*
X53181714Y-61026023D01*
X53173860Y-61007097D01*
X53167417Y-60981411D01*
X53162210Y-60946727D01*
X53158065Y-60900801D01*
X53154805Y-60841395D01*
X53152257Y-60766267D01*
X53150246Y-60673176D01*
X53148596Y-60559881D01*
X53147132Y-60424141D01*
X53145680Y-60263717D01*
X53144778Y-60158881D01*
X53143267Y-59986033D01*
X53141881Y-59839167D01*
X53140524Y-59716043D01*
X53139103Y-59614423D01*
X53137522Y-59532066D01*
X53135690Y-59466733D01*
X53133510Y-59416185D01*
X53130889Y-59378182D01*
X53127733Y-59350485D01*
X53123947Y-59330855D01*
X53119438Y-59317052D01*
X53114111Y-59306836D01*
X53108628Y-59298975D01*
X53075018Y-59261311D01*
X53040565Y-59230928D01*
X53034241Y-59226437D01*
X53026926Y-59222434D01*
X53017050Y-59218890D01*
X53003041Y-59215779D01*
X52983327Y-59213070D01*
X52956338Y-59210737D01*
X52920501Y-59208752D01*
X52874245Y-59207086D01*
X52815999Y-59205712D01*
X52744190Y-59204601D01*
X52657248Y-59203726D01*
X52553601Y-59203057D01*
X52431676Y-59202569D01*
X52289904Y-59202231D01*
X52126712Y-59202017D01*
X51940529Y-59201898D01*
X51729782Y-59201846D01*
X51492902Y-59201834D01*
X51409111Y-59201834D01*
X51163302Y-59201839D01*
X50944143Y-59201875D01*
X50750063Y-59201969D01*
X50579491Y-59202148D01*
X50430855Y-59202442D01*
X50302584Y-59202878D01*
X50193106Y-59203485D01*
X50100849Y-59204289D01*
X50024242Y-59205319D01*
X49961713Y-59206604D01*
X49911691Y-59208171D01*
X49872605Y-59210048D01*
X49842882Y-59212264D01*
X49820952Y-59214846D01*
X49805242Y-59217822D01*
X49794182Y-59221221D01*
X49786199Y-59225070D01*
X49779722Y-59229397D01*
X49777657Y-59230928D01*
X49739981Y-59264537D01*
X49709594Y-59298987D01*
X49705078Y-59305374D01*
X49701052Y-59312810D01*
X49697482Y-59322875D01*
X49694337Y-59337150D01*
X49691584Y-59357217D01*
X49689192Y-59384657D01*
X49687129Y-59421050D01*
X49685361Y-59467977D01*
X49683857Y-59527019D01*
X49682586Y-59599757D01*
X49681514Y-59687772D01*
X49680610Y-59792646D01*
X49679841Y-59915958D01*
X49679175Y-60059290D01*
X49678581Y-60224224D01*
X49678026Y-60412338D01*
X49677478Y-60625216D01*
X49676904Y-60864437D01*
X49676791Y-60912535D01*
X49676223Y-61156964D01*
X49675753Y-61374771D01*
X49675406Y-61567558D01*
X49675205Y-61736925D01*
X49675174Y-61884473D01*
X49337658Y-61884473D01*
X49337501Y-61841530D01*
X49337163Y-61633315D01*
X49337145Y-61397775D01*
X49337446Y-61134596D01*
X49337953Y-60888111D01*
X49341833Y-59286500D01*
X49386892Y-59191381D01*
X49453112Y-59082461D01*
X49538318Y-58992767D01*
X49639738Y-58924479D01*
X49754602Y-58879780D01*
X49793859Y-58870794D01*
X49817303Y-58868064D01*
X49858064Y-58865672D01*
X49917123Y-58863612D01*
X49995463Y-58861875D01*
X50094064Y-58860456D01*
X50213907Y-58859347D01*
X50355974Y-58858541D01*
X50521247Y-58858032D01*
X50710706Y-58857811D01*
X50925333Y-58857873D01*
%TD*%
M02*
