%TF.GenerationSoftware,KiCad,Pcbnew,(5.1.10-1-10_14)*%
%TF.CreationDate,2021-07-02T05:57:47+09:00*%
%TF.ProjectId,Jones_plate_bottom,4a6f6e65-735f-4706-9c61-74655f626f74,rev?*%
%TF.SameCoordinates,Original*%
%TF.FileFunction,Legend,Top*%
%TF.FilePolarity,Positive*%
%FSLAX46Y46*%
G04 Gerber Fmt 4.6, Leading zero omitted, Abs format (unit mm)*
G04 Created by KiCad (PCBNEW (5.1.10-1-10_14)) date 2021-07-02 05:57:47*
%MOMM*%
%LPD*%
G01*
G04 APERTURE LIST*
%ADD10C,0.200000*%
%ADD11C,0.300000*%
%ADD12C,0.010000*%
G04 APERTURE END LIST*
D10*
X60571428Y-68778571D02*
X60571428Y-69850000D01*
X60500000Y-70064285D01*
X60357142Y-70207142D01*
X60142857Y-70278571D01*
X60000000Y-70278571D01*
X62000000Y-70278571D02*
X61285714Y-70278571D01*
X61285714Y-68778571D01*
X63357142Y-70135714D02*
X63285714Y-70207142D01*
X63071428Y-70278571D01*
X62928571Y-70278571D01*
X62714285Y-70207142D01*
X62571428Y-70064285D01*
X62500000Y-69921428D01*
X62428571Y-69635714D01*
X62428571Y-69421428D01*
X62500000Y-69135714D01*
X62571428Y-68992857D01*
X62714285Y-68850000D01*
X62928571Y-68778571D01*
X63071428Y-68778571D01*
X63285714Y-68850000D01*
X63357142Y-68921428D01*
X64428571Y-68778571D02*
X64428571Y-69850000D01*
X64357142Y-70064285D01*
X64214285Y-70207142D01*
X64000000Y-70278571D01*
X63857142Y-70278571D01*
X65857142Y-70278571D02*
X65142857Y-70278571D01*
X65142857Y-68778571D01*
X67214285Y-70135714D02*
X67142857Y-70207142D01*
X66928571Y-70278571D01*
X66785714Y-70278571D01*
X66571428Y-70207142D01*
X66428571Y-70064285D01*
X66357142Y-69921428D01*
X66285714Y-69635714D01*
X66285714Y-69421428D01*
X66357142Y-69135714D01*
X66428571Y-68992857D01*
X66571428Y-68850000D01*
X66785714Y-68778571D01*
X66928571Y-68778571D01*
X67142857Y-68850000D01*
X67214285Y-68921428D01*
X68285714Y-68778571D02*
X68285714Y-69850000D01*
X68214285Y-70064285D01*
X68071428Y-70207142D01*
X67857142Y-70278571D01*
X67714285Y-70278571D01*
X69714285Y-70278571D02*
X69000000Y-70278571D01*
X69000000Y-68778571D01*
X71071428Y-70135714D02*
X71000000Y-70207142D01*
X70785714Y-70278571D01*
X70642857Y-70278571D01*
X70428571Y-70207142D01*
X70285714Y-70064285D01*
X70214285Y-69921428D01*
X70142857Y-69635714D01*
X70142857Y-69421428D01*
X70214285Y-69135714D01*
X70285714Y-68992857D01*
X70428571Y-68850000D01*
X70642857Y-68778571D01*
X70785714Y-68778571D01*
X71000000Y-68850000D01*
X71071428Y-68921428D01*
X72142857Y-68778571D02*
X72142857Y-69850000D01*
X72071428Y-70064285D01*
X71928571Y-70207142D01*
X71714285Y-70278571D01*
X71571428Y-70278571D01*
X73571428Y-70278571D02*
X72857142Y-70278571D01*
X72857142Y-68778571D01*
X74928571Y-70135714D02*
X74857142Y-70207142D01*
X74642857Y-70278571D01*
X74500000Y-70278571D01*
X74285714Y-70207142D01*
X74142857Y-70064285D01*
X74071428Y-69921428D01*
X74000000Y-69635714D01*
X74000000Y-69421428D01*
X74071428Y-69135714D01*
X74142857Y-68992857D01*
X74285714Y-68850000D01*
X74500000Y-68778571D01*
X74642857Y-68778571D01*
X74857142Y-68850000D01*
X74928571Y-68921428D01*
D11*
X60037857Y-62114285D02*
X61323571Y-62114285D01*
X60552142Y-61342857D02*
X60037857Y-63657142D01*
X61152142Y-62885714D02*
X59866428Y-62885714D01*
X60637857Y-63657142D02*
X61152142Y-61342857D01*
X62437857Y-61514285D02*
X62437857Y-62800000D01*
X62352142Y-63057142D01*
X62180714Y-63228571D01*
X61923571Y-63314285D01*
X61752142Y-63314285D01*
X63552142Y-63314285D02*
X63380714Y-63228571D01*
X63295000Y-63142857D01*
X63209285Y-62971428D01*
X63209285Y-62457142D01*
X63295000Y-62285714D01*
X63380714Y-62200000D01*
X63552142Y-62114285D01*
X63809285Y-62114285D01*
X63980714Y-62200000D01*
X64066428Y-62285714D01*
X64152142Y-62457142D01*
X64152142Y-62971428D01*
X64066428Y-63142857D01*
X63980714Y-63228571D01*
X63809285Y-63314285D01*
X63552142Y-63314285D01*
X64923571Y-62114285D02*
X64923571Y-63314285D01*
X64923571Y-62285714D02*
X65009285Y-62200000D01*
X65180714Y-62114285D01*
X65437857Y-62114285D01*
X65609285Y-62200000D01*
X65695000Y-62371428D01*
X65695000Y-63314285D01*
X67237857Y-63228571D02*
X67066428Y-63314285D01*
X66723571Y-63314285D01*
X66552142Y-63228571D01*
X66466428Y-63057142D01*
X66466428Y-62371428D01*
X66552142Y-62200000D01*
X66723571Y-62114285D01*
X67066428Y-62114285D01*
X67237857Y-62200000D01*
X67323571Y-62371428D01*
X67323571Y-62542857D01*
X66466428Y-62714285D01*
X68009285Y-63228571D02*
X68180714Y-63314285D01*
X68523571Y-63314285D01*
X68695000Y-63228571D01*
X68780714Y-63057142D01*
X68780714Y-62971428D01*
X68695000Y-62800000D01*
X68523571Y-62714285D01*
X68266428Y-62714285D01*
X68095000Y-62628571D01*
X68009285Y-62457142D01*
X68009285Y-62371428D01*
X68095000Y-62200000D01*
X68266428Y-62114285D01*
X68523571Y-62114285D01*
X68695000Y-62200000D01*
X69123571Y-63485714D02*
X70495000Y-63485714D01*
X70923571Y-63314285D02*
X70923571Y-61514285D01*
X71095000Y-62628571D02*
X71609285Y-63314285D01*
X71609285Y-62114285D02*
X70923571Y-62800000D01*
X72380714Y-63314285D02*
X72380714Y-61514285D01*
X72380714Y-62200000D02*
X72552142Y-62114285D01*
X72895000Y-62114285D01*
X73066428Y-62200000D01*
X73152142Y-62285714D01*
X73237857Y-62457142D01*
X73237857Y-62971428D01*
X73152142Y-63142857D01*
X73066428Y-63228571D01*
X72895000Y-63314285D01*
X72552142Y-63314285D01*
X72380714Y-63228571D01*
X74780714Y-63314285D02*
X74780714Y-61514285D01*
X74780714Y-63228571D02*
X74609285Y-63314285D01*
X74266428Y-63314285D01*
X74095000Y-63228571D01*
X74009285Y-63142857D01*
X73923571Y-62971428D01*
X73923571Y-62457142D01*
X74009285Y-62285714D01*
X74095000Y-62200000D01*
X74266428Y-62114285D01*
X74609285Y-62114285D01*
X74780714Y-62200000D01*
X77609285Y-62371428D02*
X77866428Y-62457142D01*
X77952142Y-62542857D01*
X78037857Y-62714285D01*
X78037857Y-62971428D01*
X77952142Y-63142857D01*
X77866428Y-63228571D01*
X77695000Y-63314285D01*
X77009285Y-63314285D01*
X77009285Y-61514285D01*
X77609285Y-61514285D01*
X77780714Y-61600000D01*
X77866428Y-61685714D01*
X77952142Y-61857142D01*
X77952142Y-62028571D01*
X77866428Y-62200000D01*
X77780714Y-62285714D01*
X77609285Y-62371428D01*
X77009285Y-62371428D01*
X79066428Y-63314285D02*
X78895000Y-63228571D01*
X78809285Y-63142857D01*
X78723571Y-62971428D01*
X78723571Y-62457142D01*
X78809285Y-62285714D01*
X78895000Y-62200000D01*
X79066428Y-62114285D01*
X79323571Y-62114285D01*
X79495000Y-62200000D01*
X79580714Y-62285714D01*
X79666428Y-62457142D01*
X79666428Y-62971428D01*
X79580714Y-63142857D01*
X79495000Y-63228571D01*
X79323571Y-63314285D01*
X79066428Y-63314285D01*
X80180714Y-62114285D02*
X80866428Y-62114285D01*
X80437857Y-61514285D02*
X80437857Y-63057142D01*
X80523571Y-63228571D01*
X80695000Y-63314285D01*
X80866428Y-63314285D01*
X81209285Y-62114285D02*
X81895000Y-62114285D01*
X81466428Y-61514285D02*
X81466428Y-63057142D01*
X81552142Y-63228571D01*
X81723571Y-63314285D01*
X81895000Y-63314285D01*
X82752142Y-63314285D02*
X82580714Y-63228571D01*
X82495000Y-63142857D01*
X82409285Y-62971428D01*
X82409285Y-62457142D01*
X82495000Y-62285714D01*
X82580714Y-62200000D01*
X82752142Y-62114285D01*
X83009285Y-62114285D01*
X83180714Y-62200000D01*
X83266428Y-62285714D01*
X83352142Y-62457142D01*
X83352142Y-62971428D01*
X83266428Y-63142857D01*
X83180714Y-63228571D01*
X83009285Y-63314285D01*
X82752142Y-63314285D01*
X84123571Y-63314285D02*
X84123571Y-62114285D01*
X84123571Y-62285714D02*
X84209285Y-62200000D01*
X84380714Y-62114285D01*
X84637857Y-62114285D01*
X84809285Y-62200000D01*
X84895000Y-62371428D01*
X84895000Y-63314285D01*
X84895000Y-62371428D02*
X84980714Y-62200000D01*
X85152142Y-62114285D01*
X85409285Y-62114285D01*
X85580714Y-62200000D01*
X85666428Y-62371428D01*
X85666428Y-63314285D01*
X87895000Y-63314285D02*
X87895000Y-61514285D01*
X88580714Y-61514285D01*
X88752142Y-61600000D01*
X88837857Y-61685714D01*
X88923571Y-61857142D01*
X88923571Y-62114285D01*
X88837857Y-62285714D01*
X88752142Y-62371428D01*
X88580714Y-62457142D01*
X87895000Y-62457142D01*
X89952142Y-63314285D02*
X89780714Y-63228571D01*
X89695000Y-63057142D01*
X89695000Y-61514285D01*
X91409285Y-63314285D02*
X91409285Y-62371428D01*
X91323571Y-62200000D01*
X91152142Y-62114285D01*
X90809285Y-62114285D01*
X90637857Y-62200000D01*
X91409285Y-63228571D02*
X91237857Y-63314285D01*
X90809285Y-63314285D01*
X90637857Y-63228571D01*
X90552142Y-63057142D01*
X90552142Y-62885714D01*
X90637857Y-62714285D01*
X90809285Y-62628571D01*
X91237857Y-62628571D01*
X91409285Y-62542857D01*
X92009285Y-62114285D02*
X92695000Y-62114285D01*
X92266428Y-61514285D02*
X92266428Y-63057142D01*
X92352142Y-63228571D01*
X92523571Y-63314285D01*
X92695000Y-63314285D01*
X93980714Y-63228571D02*
X93809285Y-63314285D01*
X93466428Y-63314285D01*
X93295000Y-63228571D01*
X93209285Y-63057142D01*
X93209285Y-62371428D01*
X93295000Y-62200000D01*
X93466428Y-62114285D01*
X93809285Y-62114285D01*
X93980714Y-62200000D01*
X94066428Y-62371428D01*
X94066428Y-62542857D01*
X93209285Y-62714285D01*
X96037857Y-62114285D02*
X96466428Y-63314285D01*
X96895000Y-62114285D01*
X97580714Y-63142857D02*
X97666428Y-63228571D01*
X97580714Y-63314285D01*
X97495000Y-63228571D01*
X97580714Y-63142857D01*
X97580714Y-63314285D01*
X98780714Y-61514285D02*
X98952142Y-61514285D01*
X99123571Y-61600000D01*
X99209285Y-61685714D01*
X99295000Y-61857142D01*
X99380714Y-62200000D01*
X99380714Y-62628571D01*
X99295000Y-62971428D01*
X99209285Y-63142857D01*
X99123571Y-63228571D01*
X98952142Y-63314285D01*
X98780714Y-63314285D01*
X98609285Y-63228571D01*
X98523571Y-63142857D01*
X98437857Y-62971428D01*
X98352142Y-62628571D01*
X98352142Y-62200000D01*
X98437857Y-61857142D01*
X98523571Y-61685714D01*
X98609285Y-61600000D01*
X98780714Y-61514285D01*
X100152142Y-63142857D02*
X100237857Y-63228571D01*
X100152142Y-63314285D01*
X100066428Y-63228571D01*
X100152142Y-63142857D01*
X100152142Y-63314285D01*
X101780714Y-62114285D02*
X101780714Y-63314285D01*
X101352142Y-61428571D02*
X100923571Y-62714285D01*
X102037857Y-62714285D01*
X102723571Y-63142857D02*
X102809285Y-63228571D01*
X102723571Y-63314285D01*
X102637857Y-63228571D01*
X102723571Y-63142857D01*
X102723571Y-63314285D01*
X104523571Y-63314285D02*
X103495000Y-63314285D01*
X104009285Y-63314285D02*
X104009285Y-61514285D01*
X103837857Y-61771428D01*
X103666428Y-61942857D01*
X103495000Y-62028571D01*
X61237857Y-65457142D02*
X61152142Y-65371428D01*
X60980714Y-65285714D01*
X60809285Y-65285714D01*
X60637857Y-65371428D01*
X60552142Y-65457142D01*
X60466428Y-65628571D01*
X60466428Y-65800000D01*
X60552142Y-65971428D01*
X60637857Y-66057142D01*
X60809285Y-66142857D01*
X60980714Y-66142857D01*
X61152142Y-66057142D01*
X61237857Y-65971428D01*
X61237857Y-65285714D02*
X61237857Y-65971428D01*
X61323571Y-66057142D01*
X61409285Y-66057142D01*
X61580714Y-65971428D01*
X61666428Y-65800000D01*
X61666428Y-65371428D01*
X61495000Y-65114285D01*
X61237857Y-64942857D01*
X60895000Y-64857142D01*
X60552142Y-64942857D01*
X60295000Y-65114285D01*
X60123571Y-65371428D01*
X60037857Y-65714285D01*
X60123571Y-66057142D01*
X60295000Y-66314285D01*
X60552142Y-66485714D01*
X60895000Y-66571428D01*
X61237857Y-66485714D01*
X61495000Y-66314285D01*
X62437857Y-65114285D02*
X62437857Y-66657142D01*
X62352142Y-66828571D01*
X62180714Y-66914285D01*
X62095000Y-66914285D01*
X62437857Y-64514285D02*
X62352142Y-64600000D01*
X62437857Y-64685714D01*
X62523571Y-64600000D01*
X62437857Y-64514285D01*
X62437857Y-64685714D01*
X63295000Y-65114285D02*
X63295000Y-66914285D01*
X63295000Y-65200000D02*
X63466428Y-65114285D01*
X63809285Y-65114285D01*
X63980714Y-65200000D01*
X64066428Y-65285714D01*
X64152142Y-65457142D01*
X64152142Y-65971428D01*
X64066428Y-66142857D01*
X63980714Y-66228571D01*
X63809285Y-66314285D01*
X63466428Y-66314285D01*
X63295000Y-66228571D01*
X64837857Y-66228571D02*
X65009285Y-66314285D01*
X65352142Y-66314285D01*
X65523571Y-66228571D01*
X65609285Y-66057142D01*
X65609285Y-65971428D01*
X65523571Y-65800000D01*
X65352142Y-65714285D01*
X65095000Y-65714285D01*
X64923571Y-65628571D01*
X64837857Y-65457142D01*
X64837857Y-65371428D01*
X64923571Y-65200000D01*
X65095000Y-65114285D01*
X65352142Y-65114285D01*
X65523571Y-65200000D01*
X66380714Y-66314285D02*
X66380714Y-64514285D01*
X66552142Y-65628571D02*
X67066428Y-66314285D01*
X67066428Y-65114285D02*
X66380714Y-65800000D01*
X68523571Y-66228571D02*
X68352142Y-66314285D01*
X68009285Y-66314285D01*
X67837857Y-66228571D01*
X67752142Y-66057142D01*
X67752142Y-65371428D01*
X67837857Y-65200000D01*
X68009285Y-65114285D01*
X68352142Y-65114285D01*
X68523571Y-65200000D01*
X68609285Y-65371428D01*
X68609285Y-65542857D01*
X67752142Y-65714285D01*
X69380714Y-65114285D02*
X69380714Y-66314285D01*
X69380714Y-65285714D02*
X69466428Y-65200000D01*
X69637857Y-65114285D01*
X69895000Y-65114285D01*
X70066428Y-65200000D01*
X70152142Y-65371428D01*
X70152142Y-66314285D01*
X71009285Y-65114285D02*
X71009285Y-66314285D01*
X71009285Y-65285714D02*
X71095000Y-65200000D01*
X71266428Y-65114285D01*
X71523571Y-65114285D01*
X71695000Y-65200000D01*
X71780714Y-65371428D01*
X71780714Y-66314285D01*
D12*
%TO.C,G\u002A\u002A\u002A*%
G36*
X50810571Y-58486847D02*
G01*
X51062215Y-58487403D01*
X51345455Y-58488198D01*
X51378067Y-58488295D01*
X53037533Y-58493267D01*
X53134844Y-58532562D01*
X53255167Y-58598775D01*
X53358682Y-58690898D01*
X53441053Y-58803355D01*
X53497942Y-58930570D01*
X53520795Y-59028890D01*
X53524275Y-59069824D01*
X53527501Y-59140220D01*
X53530385Y-59235671D01*
X53532836Y-59351774D01*
X53534765Y-59484124D01*
X53536082Y-59628314D01*
X53536696Y-59779942D01*
X53536726Y-59809834D01*
X53537067Y-60482934D01*
X54210167Y-60483274D01*
X54362726Y-60483742D01*
X54508704Y-60484929D01*
X54643694Y-60486746D01*
X54763292Y-60489103D01*
X54863092Y-60491910D01*
X54938691Y-60495078D01*
X54985682Y-60498515D01*
X54991110Y-60499205D01*
X55125539Y-60534903D01*
X55249254Y-60599227D01*
X55356679Y-60687840D01*
X55442238Y-60796406D01*
X55487438Y-60885157D01*
X55526733Y-60982467D01*
X55531326Y-63238182D01*
X55535918Y-65493897D01*
X56301793Y-65498782D01*
X56482816Y-65499973D01*
X56633203Y-65501136D01*
X56756184Y-65502436D01*
X56854990Y-65504039D01*
X56932850Y-65506108D01*
X56992995Y-65508809D01*
X57038654Y-65512307D01*
X57073058Y-65516765D01*
X57099437Y-65522349D01*
X57121022Y-65529224D01*
X57141041Y-65537554D01*
X57150985Y-65542091D01*
X57271828Y-65613852D01*
X57374231Y-65706987D01*
X57428955Y-65778737D01*
X57441416Y-65797447D01*
X57452855Y-65814067D01*
X57463312Y-65830051D01*
X57472830Y-65846849D01*
X57481451Y-65865913D01*
X57489216Y-65888694D01*
X57496167Y-65916646D01*
X57502345Y-65951218D01*
X57507794Y-65993863D01*
X57512554Y-66046033D01*
X57516667Y-66109179D01*
X57520176Y-66184753D01*
X57523121Y-66274207D01*
X57525545Y-66378992D01*
X57527490Y-66500560D01*
X57528996Y-66640362D01*
X57530107Y-66799851D01*
X57530864Y-66980478D01*
X57531308Y-67183695D01*
X57531482Y-67410953D01*
X57531427Y-67663704D01*
X57531185Y-67943400D01*
X57530798Y-68251492D01*
X57530308Y-68589432D01*
X57529756Y-68958672D01*
X57529317Y-69264484D01*
X57524867Y-72463987D01*
X57469425Y-72576601D01*
X57398000Y-72689309D01*
X57304333Y-72788397D01*
X57196678Y-72866020D01*
X57131110Y-72898105D01*
X57033800Y-72937400D01*
X55365867Y-72939955D01*
X55129317Y-72940177D01*
X54901166Y-72940121D01*
X54683846Y-72939802D01*
X54479790Y-72939236D01*
X54291431Y-72938437D01*
X54121201Y-72937422D01*
X53971532Y-72936207D01*
X53844857Y-72934806D01*
X53743607Y-72933236D01*
X53670217Y-72931513D01*
X53627117Y-72929650D01*
X53618016Y-72928732D01*
X53484281Y-72889492D01*
X53361665Y-72822119D01*
X53256163Y-72731124D01*
X53173764Y-72621018D01*
X53150482Y-72576661D01*
X53105267Y-72480200D01*
X53096437Y-67933600D01*
X52363092Y-67933600D01*
X52172811Y-67933477D01*
X52013035Y-67932859D01*
X51880403Y-67931373D01*
X51771556Y-67928646D01*
X51683131Y-67924305D01*
X51611768Y-67917976D01*
X51554106Y-67909287D01*
X51506784Y-67897864D01*
X51466441Y-67883334D01*
X51429716Y-67865325D01*
X51393248Y-67843463D01*
X51361134Y-67822369D01*
X51266751Y-67745460D01*
X51192618Y-67651896D01*
X51133521Y-67536737D01*
X51090200Y-67434067D01*
X51080898Y-62940477D01*
X50332016Y-62934789D01*
X50153040Y-62933387D01*
X50004600Y-62932030D01*
X49883365Y-62930545D01*
X49786004Y-62928757D01*
X49709186Y-62926491D01*
X49649582Y-62923572D01*
X49603860Y-62919825D01*
X49568690Y-62915076D01*
X49540742Y-62909151D01*
X49516684Y-62901873D01*
X49493187Y-62893070D01*
X49486586Y-62890440D01*
X49389658Y-62838423D01*
X49294654Y-62764415D01*
X49213474Y-62678650D01*
X49173672Y-62621303D01*
X49159280Y-62596561D01*
X49146520Y-62572952D01*
X49135292Y-62548389D01*
X49125499Y-62520784D01*
X49117041Y-62488049D01*
X49109820Y-62448098D01*
X49103738Y-62398841D01*
X49098697Y-62338193D01*
X49094598Y-62264065D01*
X49091342Y-62174370D01*
X49088831Y-62067020D01*
X49086967Y-61939928D01*
X49085652Y-61791006D01*
X49084786Y-61618166D01*
X49084271Y-61419322D01*
X49084010Y-61192385D01*
X49083903Y-60935268D01*
X49083865Y-60716600D01*
X49083843Y-60435576D01*
X49083875Y-60344384D01*
X49523841Y-60344384D01*
X49523888Y-60610298D01*
X49523893Y-60707844D01*
X49523875Y-60984101D01*
X49523905Y-61228515D01*
X49524093Y-61443109D01*
X49524547Y-61629907D01*
X49525380Y-61790932D01*
X49526699Y-61928207D01*
X49528616Y-62043757D01*
X49531241Y-62139604D01*
X49534683Y-62217772D01*
X49539052Y-62280285D01*
X49544458Y-62329165D01*
X49551012Y-62366437D01*
X49558823Y-62394123D01*
X49568001Y-62414248D01*
X49578656Y-62428834D01*
X49590898Y-62439905D01*
X49604838Y-62449485D01*
X49619046Y-62458583D01*
X49631584Y-62465554D01*
X49648096Y-62471460D01*
X49671459Y-62476426D01*
X49704547Y-62480575D01*
X49750238Y-62484031D01*
X49811405Y-62486920D01*
X49890925Y-62489366D01*
X49991673Y-62491493D01*
X50116525Y-62493425D01*
X50268357Y-62495286D01*
X50450043Y-62497202D01*
X50530627Y-62498000D01*
X50736948Y-62500224D01*
X50911618Y-62502578D01*
X51056851Y-62505137D01*
X51174864Y-62507974D01*
X51267872Y-62511163D01*
X51338090Y-62514779D01*
X51387733Y-62518896D01*
X51419016Y-62523586D01*
X51432925Y-62528135D01*
X51445310Y-62534674D01*
X51456493Y-62540544D01*
X51466536Y-62547419D01*
X51475500Y-62556973D01*
X51483445Y-62570879D01*
X51490434Y-62590810D01*
X51496527Y-62618442D01*
X51501786Y-62655447D01*
X51506272Y-62703499D01*
X51510046Y-62764272D01*
X51513169Y-62839440D01*
X51515703Y-62930676D01*
X51517710Y-63039654D01*
X51519249Y-63168048D01*
X51520382Y-63317531D01*
X51521172Y-63489778D01*
X51521678Y-63686461D01*
X51521962Y-63909255D01*
X51522085Y-64159834D01*
X51522109Y-64439870D01*
X51522095Y-64751039D01*
X51522095Y-64965193D01*
X51522234Y-65321132D01*
X51522618Y-65650595D01*
X51523242Y-65952911D01*
X51524102Y-66227410D01*
X51525193Y-66473426D01*
X51526510Y-66690287D01*
X51528047Y-66877325D01*
X51529802Y-67033871D01*
X51531768Y-67159255D01*
X51533941Y-67252810D01*
X51536316Y-67313864D01*
X51538889Y-67341751D01*
X51539002Y-67342191D01*
X51563169Y-67396082D01*
X51598318Y-67442645D01*
X51599520Y-67443791D01*
X51643224Y-67484867D01*
X52518179Y-67493334D01*
X52717596Y-67495246D01*
X52885964Y-67497014D01*
X53026096Y-67498950D01*
X53140807Y-67501366D01*
X53232910Y-67504575D01*
X53305220Y-67508889D01*
X53360551Y-67514620D01*
X53401716Y-67522082D01*
X53431530Y-67531586D01*
X53452806Y-67543445D01*
X53468360Y-67557971D01*
X53481004Y-67575477D01*
X53493553Y-67596275D01*
X53496994Y-67602008D01*
X53501413Y-67610310D01*
X53505411Y-67621026D01*
X53509018Y-67635843D01*
X53512262Y-67656451D01*
X53515170Y-67684538D01*
X53517770Y-67721791D01*
X53520090Y-67769901D01*
X53522159Y-67830554D01*
X53524004Y-67905439D01*
X53525653Y-67996246D01*
X53527135Y-68104661D01*
X53528477Y-68232374D01*
X53529706Y-68381072D01*
X53530852Y-68552445D01*
X53531943Y-68748180D01*
X53533005Y-68969967D01*
X53534067Y-69219492D01*
X53535158Y-69498446D01*
X53536304Y-69808515D01*
X53537067Y-70020252D01*
X53545534Y-72386304D01*
X53589951Y-72430718D01*
X53637076Y-72465514D01*
X53689754Y-72488395D01*
X53691551Y-72488842D01*
X53716463Y-72490789D01*
X53772798Y-72492597D01*
X53858110Y-72494249D01*
X53969955Y-72495731D01*
X54105889Y-72497024D01*
X54263467Y-72498113D01*
X54440244Y-72498982D01*
X54633777Y-72499615D01*
X54841621Y-72499995D01*
X55061331Y-72500107D01*
X55290462Y-72499933D01*
X55348934Y-72499843D01*
X55627440Y-72499291D01*
X55873893Y-72498617D01*
X56090103Y-72497792D01*
X56277883Y-72496789D01*
X56439045Y-72495581D01*
X56575401Y-72494139D01*
X56688763Y-72492437D01*
X56780944Y-72490447D01*
X56853755Y-72488141D01*
X56909008Y-72485491D01*
X56948516Y-72482471D01*
X56974091Y-72479052D01*
X56987544Y-72475206D01*
X56988140Y-72474886D01*
X57023706Y-72445055D01*
X57057688Y-72402449D01*
X57060043Y-72398686D01*
X57064065Y-72391508D01*
X57067746Y-72382767D01*
X57071099Y-72370999D01*
X57074142Y-72354738D01*
X57076888Y-72332520D01*
X57079353Y-72302879D01*
X57081553Y-72264352D01*
X57083501Y-72215472D01*
X57085215Y-72154776D01*
X57086708Y-72080799D01*
X57087996Y-71992074D01*
X57089095Y-71887139D01*
X57090019Y-71764527D01*
X57090784Y-71622774D01*
X57091404Y-71460415D01*
X57091896Y-71275985D01*
X57092273Y-71068020D01*
X57092553Y-70835053D01*
X57092749Y-70575622D01*
X57092876Y-70288260D01*
X57092951Y-69971502D01*
X57092988Y-69623885D01*
X57093003Y-69243943D01*
X57093004Y-69223093D01*
X57092991Y-68838599D01*
X57092929Y-68486533D01*
X57092806Y-68165457D01*
X57092609Y-67873931D01*
X57092327Y-67610517D01*
X57091948Y-67373776D01*
X57091459Y-67162269D01*
X57090848Y-66974559D01*
X57090103Y-66809206D01*
X57089212Y-66664771D01*
X57088164Y-66539815D01*
X57086946Y-66432901D01*
X57085546Y-66342590D01*
X57083951Y-66267442D01*
X57082151Y-66206018D01*
X57080132Y-66156882D01*
X57077883Y-66118593D01*
X57075392Y-66089712D01*
X57072647Y-66068802D01*
X57069635Y-66054424D01*
X57066358Y-66045168D01*
X57054744Y-66021414D01*
X57042438Y-66001363D01*
X57026647Y-65984701D01*
X57004578Y-65971115D01*
X56973437Y-65960291D01*
X56930431Y-65951915D01*
X56872765Y-65945673D01*
X56797647Y-65941251D01*
X56702282Y-65938336D01*
X56583877Y-65936614D01*
X56439639Y-65935771D01*
X56266774Y-65935493D01*
X56089712Y-65935467D01*
X55252342Y-65935467D01*
X55195051Y-65896859D01*
X55152143Y-65861108D01*
X55120159Y-65822719D01*
X55116596Y-65816425D01*
X55113484Y-65803601D01*
X55110661Y-65777078D01*
X55108115Y-65735444D01*
X55105832Y-65677286D01*
X55103799Y-65601190D01*
X55102003Y-65505744D01*
X55100430Y-65389535D01*
X55099067Y-65251148D01*
X55097900Y-65089172D01*
X55096917Y-64902193D01*
X55096103Y-64688798D01*
X55095446Y-64447574D01*
X55094933Y-64177108D01*
X55094549Y-63875987D01*
X55094282Y-63542797D01*
X55094227Y-63446267D01*
X55093973Y-63097201D01*
X55093583Y-62780736D01*
X55093045Y-62495607D01*
X55092347Y-62240548D01*
X55091478Y-62014293D01*
X55090428Y-61815577D01*
X55089184Y-61643134D01*
X55087736Y-61495700D01*
X55086071Y-61372008D01*
X55084179Y-61270793D01*
X55082048Y-61190790D01*
X55079666Y-61130733D01*
X55077024Y-61089356D01*
X55074108Y-61065395D01*
X55072811Y-61060253D01*
X55044700Y-61009375D01*
X55005243Y-60967437D01*
X55004818Y-60967120D01*
X54993357Y-60959246D01*
X54980060Y-60952597D01*
X54962062Y-60947036D01*
X54936499Y-60942427D01*
X54900506Y-60938636D01*
X54851220Y-60935525D01*
X54785775Y-60932960D01*
X54701307Y-60930805D01*
X54594951Y-60928924D01*
X54463843Y-60927180D01*
X54305119Y-60925440D01*
X54115914Y-60923565D01*
X54078081Y-60923200D01*
X53199128Y-60914734D01*
X53105267Y-60820873D01*
X53096800Y-59944161D01*
X53094843Y-59748424D01*
X53092990Y-59583701D01*
X53091118Y-59447136D01*
X53089106Y-59335878D01*
X53086833Y-59247072D01*
X53084176Y-59177866D01*
X53081014Y-59125407D01*
X53077225Y-59086840D01*
X53072687Y-59059313D01*
X53067279Y-59039972D01*
X53060879Y-59025965D01*
X53057383Y-59020243D01*
X53047405Y-59004669D01*
X53037772Y-58990892D01*
X53026460Y-58978802D01*
X53011445Y-58968288D01*
X52990704Y-58959242D01*
X52962214Y-58951552D01*
X52923950Y-58945110D01*
X52873891Y-58939804D01*
X52810012Y-58935526D01*
X52730289Y-58932165D01*
X52632700Y-58929610D01*
X52515221Y-58927753D01*
X52375828Y-58926484D01*
X52212498Y-58925691D01*
X52023208Y-58925266D01*
X51805933Y-58925098D01*
X51558652Y-58925077D01*
X51306644Y-58925093D01*
X51036478Y-58925129D01*
X50798106Y-58925251D01*
X50589455Y-58925497D01*
X50408453Y-58925903D01*
X50253027Y-58926506D01*
X50121104Y-58927344D01*
X50010612Y-58928453D01*
X49919478Y-58929870D01*
X49845630Y-58931631D01*
X49786994Y-58933775D01*
X49741498Y-58936337D01*
X49707069Y-58939355D01*
X49681636Y-58942865D01*
X49663124Y-58946905D01*
X49649462Y-58951512D01*
X49642400Y-58954726D01*
X49623029Y-58963831D01*
X49605886Y-58971972D01*
X49590837Y-58981157D01*
X49577744Y-58993396D01*
X49566472Y-59010697D01*
X49556886Y-59035070D01*
X49548850Y-59068522D01*
X49542227Y-59113064D01*
X49536883Y-59170703D01*
X49532680Y-59243448D01*
X49529484Y-59333309D01*
X49527159Y-59442293D01*
X49525569Y-59572411D01*
X49524578Y-59725670D01*
X49524050Y-59904079D01*
X49523850Y-60109648D01*
X49523841Y-60344384D01*
X49083875Y-60344384D01*
X49083931Y-60186318D01*
X49084212Y-59966728D01*
X49084773Y-59774705D01*
X49085696Y-59608150D01*
X49087068Y-59464963D01*
X49088972Y-59343044D01*
X49091494Y-59240293D01*
X49094717Y-59154612D01*
X49098727Y-59083899D01*
X49103609Y-59026056D01*
X49109447Y-58978982D01*
X49116325Y-58940578D01*
X49124328Y-58908744D01*
X49133542Y-58881380D01*
X49144050Y-58856387D01*
X49155938Y-58831665D01*
X49160216Y-58823131D01*
X49206498Y-58752926D01*
X49273060Y-58678818D01*
X49349421Y-58611061D01*
X49425095Y-58559910D01*
X49434296Y-58555036D01*
X49457847Y-58543564D01*
X49482263Y-58533386D01*
X49509593Y-58524432D01*
X49541886Y-58516632D01*
X49581190Y-58509915D01*
X49629554Y-58504211D01*
X49689026Y-58499449D01*
X49761657Y-58495560D01*
X49849493Y-58492472D01*
X49954585Y-58490116D01*
X50078980Y-58488422D01*
X50224727Y-58487318D01*
X50393876Y-58486734D01*
X50588474Y-58486601D01*
X50810571Y-58486847D01*
G37*
X50810571Y-58486847D02*
X51062215Y-58487403D01*
X51345455Y-58488198D01*
X51378067Y-58488295D01*
X53037533Y-58493267D01*
X53134844Y-58532562D01*
X53255167Y-58598775D01*
X53358682Y-58690898D01*
X53441053Y-58803355D01*
X53497942Y-58930570D01*
X53520795Y-59028890D01*
X53524275Y-59069824D01*
X53527501Y-59140220D01*
X53530385Y-59235671D01*
X53532836Y-59351774D01*
X53534765Y-59484124D01*
X53536082Y-59628314D01*
X53536696Y-59779942D01*
X53536726Y-59809834D01*
X53537067Y-60482934D01*
X54210167Y-60483274D01*
X54362726Y-60483742D01*
X54508704Y-60484929D01*
X54643694Y-60486746D01*
X54763292Y-60489103D01*
X54863092Y-60491910D01*
X54938691Y-60495078D01*
X54985682Y-60498515D01*
X54991110Y-60499205D01*
X55125539Y-60534903D01*
X55249254Y-60599227D01*
X55356679Y-60687840D01*
X55442238Y-60796406D01*
X55487438Y-60885157D01*
X55526733Y-60982467D01*
X55531326Y-63238182D01*
X55535918Y-65493897D01*
X56301793Y-65498782D01*
X56482816Y-65499973D01*
X56633203Y-65501136D01*
X56756184Y-65502436D01*
X56854990Y-65504039D01*
X56932850Y-65506108D01*
X56992995Y-65508809D01*
X57038654Y-65512307D01*
X57073058Y-65516765D01*
X57099437Y-65522349D01*
X57121022Y-65529224D01*
X57141041Y-65537554D01*
X57150985Y-65542091D01*
X57271828Y-65613852D01*
X57374231Y-65706987D01*
X57428955Y-65778737D01*
X57441416Y-65797447D01*
X57452855Y-65814067D01*
X57463312Y-65830051D01*
X57472830Y-65846849D01*
X57481451Y-65865913D01*
X57489216Y-65888694D01*
X57496167Y-65916646D01*
X57502345Y-65951218D01*
X57507794Y-65993863D01*
X57512554Y-66046033D01*
X57516667Y-66109179D01*
X57520176Y-66184753D01*
X57523121Y-66274207D01*
X57525545Y-66378992D01*
X57527490Y-66500560D01*
X57528996Y-66640362D01*
X57530107Y-66799851D01*
X57530864Y-66980478D01*
X57531308Y-67183695D01*
X57531482Y-67410953D01*
X57531427Y-67663704D01*
X57531185Y-67943400D01*
X57530798Y-68251492D01*
X57530308Y-68589432D01*
X57529756Y-68958672D01*
X57529317Y-69264484D01*
X57524867Y-72463987D01*
X57469425Y-72576601D01*
X57398000Y-72689309D01*
X57304333Y-72788397D01*
X57196678Y-72866020D01*
X57131110Y-72898105D01*
X57033800Y-72937400D01*
X55365867Y-72939955D01*
X55129317Y-72940177D01*
X54901166Y-72940121D01*
X54683846Y-72939802D01*
X54479790Y-72939236D01*
X54291431Y-72938437D01*
X54121201Y-72937422D01*
X53971532Y-72936207D01*
X53844857Y-72934806D01*
X53743607Y-72933236D01*
X53670217Y-72931513D01*
X53627117Y-72929650D01*
X53618016Y-72928732D01*
X53484281Y-72889492D01*
X53361665Y-72822119D01*
X53256163Y-72731124D01*
X53173764Y-72621018D01*
X53150482Y-72576661D01*
X53105267Y-72480200D01*
X53096437Y-67933600D01*
X52363092Y-67933600D01*
X52172811Y-67933477D01*
X52013035Y-67932859D01*
X51880403Y-67931373D01*
X51771556Y-67928646D01*
X51683131Y-67924305D01*
X51611768Y-67917976D01*
X51554106Y-67909287D01*
X51506784Y-67897864D01*
X51466441Y-67883334D01*
X51429716Y-67865325D01*
X51393248Y-67843463D01*
X51361134Y-67822369D01*
X51266751Y-67745460D01*
X51192618Y-67651896D01*
X51133521Y-67536737D01*
X51090200Y-67434067D01*
X51080898Y-62940477D01*
X50332016Y-62934789D01*
X50153040Y-62933387D01*
X50004600Y-62932030D01*
X49883365Y-62930545D01*
X49786004Y-62928757D01*
X49709186Y-62926491D01*
X49649582Y-62923572D01*
X49603860Y-62919825D01*
X49568690Y-62915076D01*
X49540742Y-62909151D01*
X49516684Y-62901873D01*
X49493187Y-62893070D01*
X49486586Y-62890440D01*
X49389658Y-62838423D01*
X49294654Y-62764415D01*
X49213474Y-62678650D01*
X49173672Y-62621303D01*
X49159280Y-62596561D01*
X49146520Y-62572952D01*
X49135292Y-62548389D01*
X49125499Y-62520784D01*
X49117041Y-62488049D01*
X49109820Y-62448098D01*
X49103738Y-62398841D01*
X49098697Y-62338193D01*
X49094598Y-62264065D01*
X49091342Y-62174370D01*
X49088831Y-62067020D01*
X49086967Y-61939928D01*
X49085652Y-61791006D01*
X49084786Y-61618166D01*
X49084271Y-61419322D01*
X49084010Y-61192385D01*
X49083903Y-60935268D01*
X49083865Y-60716600D01*
X49083843Y-60435576D01*
X49083875Y-60344384D01*
X49523841Y-60344384D01*
X49523888Y-60610298D01*
X49523893Y-60707844D01*
X49523875Y-60984101D01*
X49523905Y-61228515D01*
X49524093Y-61443109D01*
X49524547Y-61629907D01*
X49525380Y-61790932D01*
X49526699Y-61928207D01*
X49528616Y-62043757D01*
X49531241Y-62139604D01*
X49534683Y-62217772D01*
X49539052Y-62280285D01*
X49544458Y-62329165D01*
X49551012Y-62366437D01*
X49558823Y-62394123D01*
X49568001Y-62414248D01*
X49578656Y-62428834D01*
X49590898Y-62439905D01*
X49604838Y-62449485D01*
X49619046Y-62458583D01*
X49631584Y-62465554D01*
X49648096Y-62471460D01*
X49671459Y-62476426D01*
X49704547Y-62480575D01*
X49750238Y-62484031D01*
X49811405Y-62486920D01*
X49890925Y-62489366D01*
X49991673Y-62491493D01*
X50116525Y-62493425D01*
X50268357Y-62495286D01*
X50450043Y-62497202D01*
X50530627Y-62498000D01*
X50736948Y-62500224D01*
X50911618Y-62502578D01*
X51056851Y-62505137D01*
X51174864Y-62507974D01*
X51267872Y-62511163D01*
X51338090Y-62514779D01*
X51387733Y-62518896D01*
X51419016Y-62523586D01*
X51432925Y-62528135D01*
X51445310Y-62534674D01*
X51456493Y-62540544D01*
X51466536Y-62547419D01*
X51475500Y-62556973D01*
X51483445Y-62570879D01*
X51490434Y-62590810D01*
X51496527Y-62618442D01*
X51501786Y-62655447D01*
X51506272Y-62703499D01*
X51510046Y-62764272D01*
X51513169Y-62839440D01*
X51515703Y-62930676D01*
X51517710Y-63039654D01*
X51519249Y-63168048D01*
X51520382Y-63317531D01*
X51521172Y-63489778D01*
X51521678Y-63686461D01*
X51521962Y-63909255D01*
X51522085Y-64159834D01*
X51522109Y-64439870D01*
X51522095Y-64751039D01*
X51522095Y-64965193D01*
X51522234Y-65321132D01*
X51522618Y-65650595D01*
X51523242Y-65952911D01*
X51524102Y-66227410D01*
X51525193Y-66473426D01*
X51526510Y-66690287D01*
X51528047Y-66877325D01*
X51529802Y-67033871D01*
X51531768Y-67159255D01*
X51533941Y-67252810D01*
X51536316Y-67313864D01*
X51538889Y-67341751D01*
X51539002Y-67342191D01*
X51563169Y-67396082D01*
X51598318Y-67442645D01*
X51599520Y-67443791D01*
X51643224Y-67484867D01*
X52518179Y-67493334D01*
X52717596Y-67495246D01*
X52885964Y-67497014D01*
X53026096Y-67498950D01*
X53140807Y-67501366D01*
X53232910Y-67504575D01*
X53305220Y-67508889D01*
X53360551Y-67514620D01*
X53401716Y-67522082D01*
X53431530Y-67531586D01*
X53452806Y-67543445D01*
X53468360Y-67557971D01*
X53481004Y-67575477D01*
X53493553Y-67596275D01*
X53496994Y-67602008D01*
X53501413Y-67610310D01*
X53505411Y-67621026D01*
X53509018Y-67635843D01*
X53512262Y-67656451D01*
X53515170Y-67684538D01*
X53517770Y-67721791D01*
X53520090Y-67769901D01*
X53522159Y-67830554D01*
X53524004Y-67905439D01*
X53525653Y-67996246D01*
X53527135Y-68104661D01*
X53528477Y-68232374D01*
X53529706Y-68381072D01*
X53530852Y-68552445D01*
X53531943Y-68748180D01*
X53533005Y-68969967D01*
X53534067Y-69219492D01*
X53535158Y-69498446D01*
X53536304Y-69808515D01*
X53537067Y-70020252D01*
X53545534Y-72386304D01*
X53589951Y-72430718D01*
X53637076Y-72465514D01*
X53689754Y-72488395D01*
X53691551Y-72488842D01*
X53716463Y-72490789D01*
X53772798Y-72492597D01*
X53858110Y-72494249D01*
X53969955Y-72495731D01*
X54105889Y-72497024D01*
X54263467Y-72498113D01*
X54440244Y-72498982D01*
X54633777Y-72499615D01*
X54841621Y-72499995D01*
X55061331Y-72500107D01*
X55290462Y-72499933D01*
X55348934Y-72499843D01*
X55627440Y-72499291D01*
X55873893Y-72498617D01*
X56090103Y-72497792D01*
X56277883Y-72496789D01*
X56439045Y-72495581D01*
X56575401Y-72494139D01*
X56688763Y-72492437D01*
X56780944Y-72490447D01*
X56853755Y-72488141D01*
X56909008Y-72485491D01*
X56948516Y-72482471D01*
X56974091Y-72479052D01*
X56987544Y-72475206D01*
X56988140Y-72474886D01*
X57023706Y-72445055D01*
X57057688Y-72402449D01*
X57060043Y-72398686D01*
X57064065Y-72391508D01*
X57067746Y-72382767D01*
X57071099Y-72370999D01*
X57074142Y-72354738D01*
X57076888Y-72332520D01*
X57079353Y-72302879D01*
X57081553Y-72264352D01*
X57083501Y-72215472D01*
X57085215Y-72154776D01*
X57086708Y-72080799D01*
X57087996Y-71992074D01*
X57089095Y-71887139D01*
X57090019Y-71764527D01*
X57090784Y-71622774D01*
X57091404Y-71460415D01*
X57091896Y-71275985D01*
X57092273Y-71068020D01*
X57092553Y-70835053D01*
X57092749Y-70575622D01*
X57092876Y-70288260D01*
X57092951Y-69971502D01*
X57092988Y-69623885D01*
X57093003Y-69243943D01*
X57093004Y-69223093D01*
X57092991Y-68838599D01*
X57092929Y-68486533D01*
X57092806Y-68165457D01*
X57092609Y-67873931D01*
X57092327Y-67610517D01*
X57091948Y-67373776D01*
X57091459Y-67162269D01*
X57090848Y-66974559D01*
X57090103Y-66809206D01*
X57089212Y-66664771D01*
X57088164Y-66539815D01*
X57086946Y-66432901D01*
X57085546Y-66342590D01*
X57083951Y-66267442D01*
X57082151Y-66206018D01*
X57080132Y-66156882D01*
X57077883Y-66118593D01*
X57075392Y-66089712D01*
X57072647Y-66068802D01*
X57069635Y-66054424D01*
X57066358Y-66045168D01*
X57054744Y-66021414D01*
X57042438Y-66001363D01*
X57026647Y-65984701D01*
X57004578Y-65971115D01*
X56973437Y-65960291D01*
X56930431Y-65951915D01*
X56872765Y-65945673D01*
X56797647Y-65941251D01*
X56702282Y-65938336D01*
X56583877Y-65936614D01*
X56439639Y-65935771D01*
X56266774Y-65935493D01*
X56089712Y-65935467D01*
X55252342Y-65935467D01*
X55195051Y-65896859D01*
X55152143Y-65861108D01*
X55120159Y-65822719D01*
X55116596Y-65816425D01*
X55113484Y-65803601D01*
X55110661Y-65777078D01*
X55108115Y-65735444D01*
X55105832Y-65677286D01*
X55103799Y-65601190D01*
X55102003Y-65505744D01*
X55100430Y-65389535D01*
X55099067Y-65251148D01*
X55097900Y-65089172D01*
X55096917Y-64902193D01*
X55096103Y-64688798D01*
X55095446Y-64447574D01*
X55094933Y-64177108D01*
X55094549Y-63875987D01*
X55094282Y-63542797D01*
X55094227Y-63446267D01*
X55093973Y-63097201D01*
X55093583Y-62780736D01*
X55093045Y-62495607D01*
X55092347Y-62240548D01*
X55091478Y-62014293D01*
X55090428Y-61815577D01*
X55089184Y-61643134D01*
X55087736Y-61495700D01*
X55086071Y-61372008D01*
X55084179Y-61270793D01*
X55082048Y-61190790D01*
X55079666Y-61130733D01*
X55077024Y-61089356D01*
X55074108Y-61065395D01*
X55072811Y-61060253D01*
X55044700Y-61009375D01*
X55005243Y-60967437D01*
X55004818Y-60967120D01*
X54993357Y-60959246D01*
X54980060Y-60952597D01*
X54962062Y-60947036D01*
X54936499Y-60942427D01*
X54900506Y-60938636D01*
X54851220Y-60935525D01*
X54785775Y-60932960D01*
X54701307Y-60930805D01*
X54594951Y-60928924D01*
X54463843Y-60927180D01*
X54305119Y-60925440D01*
X54115914Y-60923565D01*
X54078081Y-60923200D01*
X53199128Y-60914734D01*
X53105267Y-60820873D01*
X53096800Y-59944161D01*
X53094843Y-59748424D01*
X53092990Y-59583701D01*
X53091118Y-59447136D01*
X53089106Y-59335878D01*
X53086833Y-59247072D01*
X53084176Y-59177866D01*
X53081014Y-59125407D01*
X53077225Y-59086840D01*
X53072687Y-59059313D01*
X53067279Y-59039972D01*
X53060879Y-59025965D01*
X53057383Y-59020243D01*
X53047405Y-59004669D01*
X53037772Y-58990892D01*
X53026460Y-58978802D01*
X53011445Y-58968288D01*
X52990704Y-58959242D01*
X52962214Y-58951552D01*
X52923950Y-58945110D01*
X52873891Y-58939804D01*
X52810012Y-58935526D01*
X52730289Y-58932165D01*
X52632700Y-58929610D01*
X52515221Y-58927753D01*
X52375828Y-58926484D01*
X52212498Y-58925691D01*
X52023208Y-58925266D01*
X51805933Y-58925098D01*
X51558652Y-58925077D01*
X51306644Y-58925093D01*
X51036478Y-58925129D01*
X50798106Y-58925251D01*
X50589455Y-58925497D01*
X50408453Y-58925903D01*
X50253027Y-58926506D01*
X50121104Y-58927344D01*
X50010612Y-58928453D01*
X49919478Y-58929870D01*
X49845630Y-58931631D01*
X49786994Y-58933775D01*
X49741498Y-58936337D01*
X49707069Y-58939355D01*
X49681636Y-58942865D01*
X49663124Y-58946905D01*
X49649462Y-58951512D01*
X49642400Y-58954726D01*
X49623029Y-58963831D01*
X49605886Y-58971972D01*
X49590837Y-58981157D01*
X49577744Y-58993396D01*
X49566472Y-59010697D01*
X49556886Y-59035070D01*
X49548850Y-59068522D01*
X49542227Y-59113064D01*
X49536883Y-59170703D01*
X49532680Y-59243448D01*
X49529484Y-59333309D01*
X49527159Y-59442293D01*
X49525569Y-59572411D01*
X49524578Y-59725670D01*
X49524050Y-59904079D01*
X49523850Y-60109648D01*
X49523841Y-60344384D01*
X49083875Y-60344384D01*
X49083931Y-60186318D01*
X49084212Y-59966728D01*
X49084773Y-59774705D01*
X49085696Y-59608150D01*
X49087068Y-59464963D01*
X49088972Y-59343044D01*
X49091494Y-59240293D01*
X49094717Y-59154612D01*
X49098727Y-59083899D01*
X49103609Y-59026056D01*
X49109447Y-58978982D01*
X49116325Y-58940578D01*
X49124328Y-58908744D01*
X49133542Y-58881380D01*
X49144050Y-58856387D01*
X49155938Y-58831665D01*
X49160216Y-58823131D01*
X49206498Y-58752926D01*
X49273060Y-58678818D01*
X49349421Y-58611061D01*
X49425095Y-58559910D01*
X49434296Y-58555036D01*
X49457847Y-58543564D01*
X49482263Y-58533386D01*
X49509593Y-58524432D01*
X49541886Y-58516632D01*
X49581190Y-58509915D01*
X49629554Y-58504211D01*
X49689026Y-58499449D01*
X49761657Y-58495560D01*
X49849493Y-58492472D01*
X49954585Y-58490116D01*
X50078980Y-58488422D01*
X50224727Y-58487318D01*
X50393876Y-58486734D01*
X50588474Y-58486601D01*
X50810571Y-58486847D01*
G36*
X55477465Y-69367911D02*
G01*
X55641348Y-69402999D01*
X55782154Y-69461527D01*
X55899201Y-69543153D01*
X55991803Y-69647535D01*
X56039741Y-69729849D01*
X56062016Y-69791243D01*
X56082392Y-69874629D01*
X56098633Y-69968133D01*
X56108505Y-70059882D01*
X56110411Y-70105300D01*
X56110933Y-70151867D01*
X55590363Y-70151867D01*
X55578600Y-70062967D01*
X55554755Y-69955180D01*
X55515737Y-69868673D01*
X55463961Y-69808347D01*
X55447452Y-69796782D01*
X55374814Y-69769234D01*
X55291510Y-69763475D01*
X55206848Y-69777399D01*
X55130133Y-69808902D01*
X55070672Y-69855878D01*
X55049032Y-69886901D01*
X55026175Y-69958401D01*
X55019353Y-70045956D01*
X55028117Y-70136037D01*
X55052016Y-70215113D01*
X55060499Y-70231926D01*
X55084144Y-70265847D01*
X55118117Y-70298999D01*
X55166006Y-70333464D01*
X55231395Y-70371318D01*
X55317872Y-70414642D01*
X55429022Y-70465513D01*
X55566063Y-70525002D01*
X55729856Y-70599957D01*
X55863108Y-70673121D01*
X55968812Y-70747461D01*
X56049958Y-70825947D01*
X56109537Y-70911548D01*
X56150539Y-71007233D01*
X56175956Y-71115971D01*
X56178529Y-71133030D01*
X56188049Y-71270852D01*
X56179853Y-71411901D01*
X56155521Y-71547439D01*
X56116633Y-71668732D01*
X56064768Y-71767043D01*
X56063543Y-71768810D01*
X55978142Y-71862862D01*
X55866014Y-71941580D01*
X55731185Y-72003808D01*
X55577682Y-72048392D01*
X55409533Y-72074177D01*
X55230764Y-72080008D01*
X55045404Y-72064729D01*
X55036272Y-72063424D01*
X54875591Y-72026595D01*
X54739608Y-71966612D01*
X54628453Y-71883631D01*
X54542257Y-71777808D01*
X54481149Y-71649300D01*
X54445261Y-71498263D01*
X54434628Y-71341433D01*
X54434534Y-71201734D01*
X54971381Y-71201734D01*
X54982024Y-71339758D01*
X54992460Y-71425026D01*
X55008590Y-71497530D01*
X55024052Y-71538724D01*
X55075598Y-71604510D01*
X55147456Y-71650163D01*
X55232486Y-71675385D01*
X55323549Y-71679875D01*
X55413505Y-71663335D01*
X55495214Y-71625466D01*
X55561537Y-71565969D01*
X55565116Y-71561384D01*
X55601894Y-71488353D01*
X55618742Y-71398643D01*
X55614878Y-71303511D01*
X55589519Y-71214213D01*
X55589295Y-71213704D01*
X55560289Y-71161981D01*
X55519511Y-71116095D01*
X55462472Y-71073033D01*
X55384685Y-71029782D01*
X55281661Y-70983327D01*
X55193155Y-70947689D01*
X55102001Y-70911279D01*
X55012080Y-70873814D01*
X54933231Y-70839489D01*
X54875296Y-70812499D01*
X54871207Y-70810453D01*
X54775268Y-70751802D01*
X54683469Y-70677431D01*
X54605954Y-70596409D01*
X54561364Y-70533449D01*
X54508787Y-70412032D01*
X54478345Y-70270219D01*
X54470641Y-70113756D01*
X54486279Y-69948391D01*
X54494901Y-69901386D01*
X54539570Y-69755270D01*
X54609508Y-69631555D01*
X54704385Y-69530465D01*
X54823874Y-69452225D01*
X54967646Y-69397060D01*
X55135375Y-69365193D01*
X55291191Y-69356603D01*
X55477465Y-69367911D01*
G37*
X55477465Y-69367911D02*
X55641348Y-69402999D01*
X55782154Y-69461527D01*
X55899201Y-69543153D01*
X55991803Y-69647535D01*
X56039741Y-69729849D01*
X56062016Y-69791243D01*
X56082392Y-69874629D01*
X56098633Y-69968133D01*
X56108505Y-70059882D01*
X56110411Y-70105300D01*
X56110933Y-70151867D01*
X55590363Y-70151867D01*
X55578600Y-70062967D01*
X55554755Y-69955180D01*
X55515737Y-69868673D01*
X55463961Y-69808347D01*
X55447452Y-69796782D01*
X55374814Y-69769234D01*
X55291510Y-69763475D01*
X55206848Y-69777399D01*
X55130133Y-69808902D01*
X55070672Y-69855878D01*
X55049032Y-69886901D01*
X55026175Y-69958401D01*
X55019353Y-70045956D01*
X55028117Y-70136037D01*
X55052016Y-70215113D01*
X55060499Y-70231926D01*
X55084144Y-70265847D01*
X55118117Y-70298999D01*
X55166006Y-70333464D01*
X55231395Y-70371318D01*
X55317872Y-70414642D01*
X55429022Y-70465513D01*
X55566063Y-70525002D01*
X55729856Y-70599957D01*
X55863108Y-70673121D01*
X55968812Y-70747461D01*
X56049958Y-70825947D01*
X56109537Y-70911548D01*
X56150539Y-71007233D01*
X56175956Y-71115971D01*
X56178529Y-71133030D01*
X56188049Y-71270852D01*
X56179853Y-71411901D01*
X56155521Y-71547439D01*
X56116633Y-71668732D01*
X56064768Y-71767043D01*
X56063543Y-71768810D01*
X55978142Y-71862862D01*
X55866014Y-71941580D01*
X55731185Y-72003808D01*
X55577682Y-72048392D01*
X55409533Y-72074177D01*
X55230764Y-72080008D01*
X55045404Y-72064729D01*
X55036272Y-72063424D01*
X54875591Y-72026595D01*
X54739608Y-71966612D01*
X54628453Y-71883631D01*
X54542257Y-71777808D01*
X54481149Y-71649300D01*
X54445261Y-71498263D01*
X54434628Y-71341433D01*
X54434534Y-71201734D01*
X54971381Y-71201734D01*
X54982024Y-71339758D01*
X54992460Y-71425026D01*
X55008590Y-71497530D01*
X55024052Y-71538724D01*
X55075598Y-71604510D01*
X55147456Y-71650163D01*
X55232486Y-71675385D01*
X55323549Y-71679875D01*
X55413505Y-71663335D01*
X55495214Y-71625466D01*
X55561537Y-71565969D01*
X55565116Y-71561384D01*
X55601894Y-71488353D01*
X55618742Y-71398643D01*
X55614878Y-71303511D01*
X55589519Y-71214213D01*
X55589295Y-71213704D01*
X55560289Y-71161981D01*
X55519511Y-71116095D01*
X55462472Y-71073033D01*
X55384685Y-71029782D01*
X55281661Y-70983327D01*
X55193155Y-70947689D01*
X55102001Y-70911279D01*
X55012080Y-70873814D01*
X54933231Y-70839489D01*
X54875296Y-70812499D01*
X54871207Y-70810453D01*
X54775268Y-70751802D01*
X54683469Y-70677431D01*
X54605954Y-70596409D01*
X54561364Y-70533449D01*
X54508787Y-70412032D01*
X54478345Y-70270219D01*
X54470641Y-70113756D01*
X54486279Y-69948391D01*
X54494901Y-69901386D01*
X54539570Y-69755270D01*
X54609508Y-69631555D01*
X54704385Y-69530465D01*
X54823874Y-69452225D01*
X54967646Y-69397060D01*
X55135375Y-69365193D01*
X55291191Y-69356603D01*
X55477465Y-69367911D01*
G36*
X56026267Y-66849867D02*
G01*
X55094934Y-66849867D01*
X55094934Y-67442534D01*
X55975467Y-67442534D01*
X55975467Y-67899734D01*
X55094934Y-67899734D01*
X55094934Y-68577067D01*
X56077067Y-68577067D01*
X56077067Y-69034267D01*
X54553067Y-69034267D01*
X54553067Y-66392667D01*
X56026267Y-66392667D01*
X56026267Y-66849867D01*
G37*
X56026267Y-66849867D02*
X55094934Y-66849867D01*
X55094934Y-67442534D01*
X55975467Y-67442534D01*
X55975467Y-67899734D01*
X55094934Y-67899734D01*
X55094934Y-68577067D01*
X56077067Y-68577067D01*
X56077067Y-69034267D01*
X54553067Y-69034267D01*
X54553067Y-66392667D01*
X56026267Y-66392667D01*
X56026267Y-66849867D01*
G36*
X53372031Y-65279300D02*
G01*
X53687775Y-66164067D01*
X53688621Y-65279300D01*
X53689467Y-64394534D01*
X54180534Y-64394534D01*
X54180534Y-67036897D01*
X53874041Y-67032282D01*
X53567549Y-67027667D01*
X53248223Y-66121733D01*
X52928898Y-65215800D01*
X52928182Y-66125967D01*
X52927467Y-67036134D01*
X52436400Y-67036134D01*
X52436400Y-64394534D01*
X53056287Y-64394534D01*
X53372031Y-65279300D01*
G37*
X53372031Y-65279300D02*
X53687775Y-66164067D01*
X53688621Y-65279300D01*
X53689467Y-64394534D01*
X54180534Y-64394534D01*
X54180534Y-67036897D01*
X53874041Y-67032282D01*
X53567549Y-67027667D01*
X53248223Y-66121733D01*
X52928898Y-65215800D01*
X52928182Y-66125967D01*
X52927467Y-67036134D01*
X52436400Y-67036134D01*
X52436400Y-64394534D01*
X53056287Y-64394534D01*
X53372031Y-65279300D01*
G36*
X53418735Y-61354285D02*
G01*
X53526792Y-61364786D01*
X53617544Y-61380834D01*
X53645703Y-61388465D01*
X53783532Y-61448455D01*
X53903623Y-61536251D01*
X54004330Y-61649861D01*
X54084004Y-61787292D01*
X54140998Y-61946549D01*
X54154748Y-62004503D01*
X54174753Y-62127465D01*
X54189781Y-62276513D01*
X54199831Y-62444235D01*
X54204904Y-62623218D01*
X54205000Y-62806050D01*
X54200118Y-62985317D01*
X54190259Y-63153609D01*
X54175422Y-63303511D01*
X54155608Y-63427612D01*
X54154748Y-63431764D01*
X54105723Y-63599553D01*
X54034373Y-63742999D01*
X53941435Y-63861294D01*
X53827643Y-63953634D01*
X53693733Y-64019211D01*
X53592615Y-64047883D01*
X53515841Y-64059251D01*
X53418422Y-64066666D01*
X53311540Y-64069972D01*
X53206377Y-64069009D01*
X53114117Y-64063619D01*
X53054467Y-64055494D01*
X52905080Y-64012275D01*
X52777426Y-63946308D01*
X52670643Y-63856459D01*
X52583870Y-63741594D01*
X52516245Y-63600578D01*
X52466907Y-63432276D01*
X52435531Y-63240337D01*
X52427204Y-63140907D01*
X52421237Y-63016052D01*
X52417631Y-62874133D01*
X52416382Y-62723508D01*
X52416895Y-62653724D01*
X52963941Y-62653724D01*
X52965907Y-62815874D01*
X52968931Y-62973745D01*
X52972631Y-63102133D01*
X52977531Y-63205419D01*
X52984152Y-63287987D01*
X52993019Y-63354219D01*
X53004654Y-63408497D01*
X53019580Y-63455206D01*
X53038319Y-63498726D01*
X53050220Y-63522467D01*
X53108970Y-63602458D01*
X53185823Y-63654986D01*
X53277217Y-63678615D01*
X53379589Y-63671912D01*
X53405679Y-63665552D01*
X53482166Y-63627000D01*
X53545941Y-63558260D01*
X53595498Y-63461101D01*
X53606530Y-63429334D01*
X53623243Y-63355872D01*
X53636797Y-63254506D01*
X53647193Y-63131050D01*
X53654429Y-62991320D01*
X53658506Y-62841131D01*
X53659424Y-62686296D01*
X53657182Y-62532632D01*
X53651780Y-62385952D01*
X53643217Y-62252071D01*
X53631495Y-62136806D01*
X53616612Y-62045969D01*
X53606583Y-62006933D01*
X53562181Y-61901716D01*
X53503874Y-61826437D01*
X53430363Y-61779602D01*
X53400135Y-61769472D01*
X53299761Y-61756267D01*
X53208035Y-61770878D01*
X53130691Y-61811615D01*
X53082014Y-61863337D01*
X53049673Y-61916764D01*
X53023228Y-61976006D01*
X53002241Y-62044636D01*
X52986277Y-62126230D01*
X52974901Y-62224361D01*
X52967677Y-62342604D01*
X52964169Y-62484534D01*
X52963941Y-62653724D01*
X52416895Y-62653724D01*
X52417492Y-62572538D01*
X52420957Y-62429583D01*
X52426778Y-62303001D01*
X52434953Y-62201154D01*
X52435672Y-62194647D01*
X52467766Y-61998458D01*
X52517011Y-61830728D01*
X52584505Y-61690096D01*
X52671348Y-61575200D01*
X52778636Y-61484679D01*
X52907468Y-61417173D01*
X53058942Y-61371319D01*
X53107500Y-61361835D01*
X53197412Y-61352231D01*
X53305049Y-61349907D01*
X53418735Y-61354285D01*
G37*
X53418735Y-61354285D02*
X53526792Y-61364786D01*
X53617544Y-61380834D01*
X53645703Y-61388465D01*
X53783532Y-61448455D01*
X53903623Y-61536251D01*
X54004330Y-61649861D01*
X54084004Y-61787292D01*
X54140998Y-61946549D01*
X54154748Y-62004503D01*
X54174753Y-62127465D01*
X54189781Y-62276513D01*
X54199831Y-62444235D01*
X54204904Y-62623218D01*
X54205000Y-62806050D01*
X54200118Y-62985317D01*
X54190259Y-63153609D01*
X54175422Y-63303511D01*
X54155608Y-63427612D01*
X54154748Y-63431764D01*
X54105723Y-63599553D01*
X54034373Y-63742999D01*
X53941435Y-63861294D01*
X53827643Y-63953634D01*
X53693733Y-64019211D01*
X53592615Y-64047883D01*
X53515841Y-64059251D01*
X53418422Y-64066666D01*
X53311540Y-64069972D01*
X53206377Y-64069009D01*
X53114117Y-64063619D01*
X53054467Y-64055494D01*
X52905080Y-64012275D01*
X52777426Y-63946308D01*
X52670643Y-63856459D01*
X52583870Y-63741594D01*
X52516245Y-63600578D01*
X52466907Y-63432276D01*
X52435531Y-63240337D01*
X52427204Y-63140907D01*
X52421237Y-63016052D01*
X52417631Y-62874133D01*
X52416382Y-62723508D01*
X52416895Y-62653724D01*
X52963941Y-62653724D01*
X52965907Y-62815874D01*
X52968931Y-62973745D01*
X52972631Y-63102133D01*
X52977531Y-63205419D01*
X52984152Y-63287987D01*
X52993019Y-63354219D01*
X53004654Y-63408497D01*
X53019580Y-63455206D01*
X53038319Y-63498726D01*
X53050220Y-63522467D01*
X53108970Y-63602458D01*
X53185823Y-63654986D01*
X53277217Y-63678615D01*
X53379589Y-63671912D01*
X53405679Y-63665552D01*
X53482166Y-63627000D01*
X53545941Y-63558260D01*
X53595498Y-63461101D01*
X53606530Y-63429334D01*
X53623243Y-63355872D01*
X53636797Y-63254506D01*
X53647193Y-63131050D01*
X53654429Y-62991320D01*
X53658506Y-62841131D01*
X53659424Y-62686296D01*
X53657182Y-62532632D01*
X53651780Y-62385952D01*
X53643217Y-62252071D01*
X53631495Y-62136806D01*
X53616612Y-62045969D01*
X53606583Y-62006933D01*
X53562181Y-61901716D01*
X53503874Y-61826437D01*
X53430363Y-61779602D01*
X53400135Y-61769472D01*
X53299761Y-61756267D01*
X53208035Y-61770878D01*
X53130691Y-61811615D01*
X53082014Y-61863337D01*
X53049673Y-61916764D01*
X53023228Y-61976006D01*
X53002241Y-62044636D01*
X52986277Y-62126230D01*
X52974901Y-62224361D01*
X52967677Y-62342604D01*
X52964169Y-62484534D01*
X52963941Y-62653724D01*
X52416895Y-62653724D01*
X52417492Y-62572538D01*
X52420957Y-62429583D01*
X52426778Y-62303001D01*
X52434953Y-62201154D01*
X52435672Y-62194647D01*
X52467766Y-61998458D01*
X52517011Y-61830728D01*
X52584505Y-61690096D01*
X52671348Y-61575200D01*
X52778636Y-61484679D01*
X52907468Y-61417173D01*
X53058942Y-61371319D01*
X53107500Y-61361835D01*
X53197412Y-61352231D01*
X53305049Y-61349907D01*
X53418735Y-61354285D01*
G36*
X51890020Y-60419434D02*
G01*
X51888469Y-60644755D01*
X51886894Y-60838930D01*
X51885103Y-61004678D01*
X51882899Y-61144718D01*
X51880088Y-61261769D01*
X51876476Y-61358551D01*
X51871868Y-61437783D01*
X51866069Y-61502185D01*
X51858885Y-61554477D01*
X51850120Y-61597377D01*
X51839582Y-61633605D01*
X51827073Y-61665881D01*
X51812401Y-61696923D01*
X51796396Y-61727533D01*
X51749519Y-61804433D01*
X51697691Y-61862947D01*
X51640534Y-61909027D01*
X51537305Y-61966071D01*
X51408707Y-62008318D01*
X51260331Y-62034696D01*
X51097769Y-62044139D01*
X50961897Y-62038831D01*
X50814076Y-62013006D01*
X50688177Y-61961375D01*
X50584218Y-61883964D01*
X50502218Y-61780797D01*
X50442196Y-61651899D01*
X50404171Y-61497294D01*
X50388160Y-61317009D01*
X50387595Y-61274567D01*
X50387467Y-61160267D01*
X50895467Y-61160267D01*
X50895467Y-61288235D01*
X50902224Y-61416304D01*
X50922684Y-61514407D01*
X50957130Y-61583674D01*
X50974691Y-61603374D01*
X51007399Y-61627288D01*
X51047713Y-61639290D01*
X51107985Y-61642843D01*
X51115600Y-61642867D01*
X51198753Y-61633485D01*
X51257812Y-61602871D01*
X51297662Y-61547321D01*
X51317141Y-61490042D01*
X51321729Y-61454362D01*
X51325662Y-61386236D01*
X51328942Y-61285451D01*
X51331574Y-61151792D01*
X51333560Y-60985047D01*
X51334906Y-60785000D01*
X51335613Y-60551438D01*
X51335734Y-60390768D01*
X51335734Y-59365334D01*
X51897016Y-59365334D01*
X51890020Y-60419434D01*
G37*
X51890020Y-60419434D02*
X51888469Y-60644755D01*
X51886894Y-60838930D01*
X51885103Y-61004678D01*
X51882899Y-61144718D01*
X51880088Y-61261769D01*
X51876476Y-61358551D01*
X51871868Y-61437783D01*
X51866069Y-61502185D01*
X51858885Y-61554477D01*
X51850120Y-61597377D01*
X51839582Y-61633605D01*
X51827073Y-61665881D01*
X51812401Y-61696923D01*
X51796396Y-61727533D01*
X51749519Y-61804433D01*
X51697691Y-61862947D01*
X51640534Y-61909027D01*
X51537305Y-61966071D01*
X51408707Y-62008318D01*
X51260331Y-62034696D01*
X51097769Y-62044139D01*
X50961897Y-62038831D01*
X50814076Y-62013006D01*
X50688177Y-61961375D01*
X50584218Y-61883964D01*
X50502218Y-61780797D01*
X50442196Y-61651899D01*
X50404171Y-61497294D01*
X50388160Y-61317009D01*
X50387595Y-61274567D01*
X50387467Y-61160267D01*
X50895467Y-61160267D01*
X50895467Y-61288235D01*
X50902224Y-61416304D01*
X50922684Y-61514407D01*
X50957130Y-61583674D01*
X50974691Y-61603374D01*
X51007399Y-61627288D01*
X51047713Y-61639290D01*
X51107985Y-61642843D01*
X51115600Y-61642867D01*
X51198753Y-61633485D01*
X51257812Y-61602871D01*
X51297662Y-61547321D01*
X51317141Y-61490042D01*
X51321729Y-61454362D01*
X51325662Y-61386236D01*
X51328942Y-61285451D01*
X51331574Y-61151792D01*
X51333560Y-60985047D01*
X51334906Y-60785000D01*
X51335613Y-60551438D01*
X51335734Y-60390768D01*
X51335734Y-59365334D01*
X51897016Y-59365334D01*
X51890020Y-60419434D01*
%TD*%
M02*
