<?xml version="1.0" encoding="UTF-8" standalone="no"?>
<!DOCTYPE svg PUBLIC "-//W3C//DTD SVG 1.1//EN" "http://www.w3.org/Graphics/SVG/1.1/DTD/svg11.dtd">
<svg width="100%" height="100%" viewBox="0 0 1118 398" version="1.1" xmlns="http://www.w3.org/2000/svg" xmlns:xlink="http://www.w3.org/1999/xlink" xml:space="preserve" xmlns:serif="http://www.serif.com/" style="fill-rule:evenodd;clip-rule:evenodd;">
    <g transform="matrix(1.33333,0,0,1.33333,0,0)">
        <path id="ANSI---JP---SpaceCadet" serif:id="ANSI &amp; JP &amp; SpaceCadet" d="M503.765,237.318L488.529,237.318C487.752,237.318 487.112,237.958 487.112,238.736L487.112,275.586C487.112,276.364 487.752,277.004 488.529,277.004L525.38,277.004C526.157,277.004 526.797,276.364 526.797,275.586L526.797,238.736C526.797,237.958 526.157,237.318 525.38,237.318L523.608,237.318L523.608,233.067C523.608,232.289 522.968,231.649 522.191,231.649L505.183,231.649C504.405,231.649 503.765,232.289 503.765,233.067L503.765,237.318ZM328.373,237.318L287.286,237.318L287.286,233.067C287.286,232.289 286.646,231.649 285.868,231.649L262.11,231.649C261.333,231.649 260.693,232.289 260.693,233.067L260.693,272.752C260.693,273.529 261.333,274.169 262.11,274.169L284.612,274.169L284.612,275.586C284.612,276.364 285.252,277.004 286.029,277.004L329.63,277.004C330.407,277.004 331.047,276.364 331.047,275.586L331.047,274.169L352.112,274.169L352.112,275.586C352.112,276.364 352.752,277.004 353.529,277.004L390.38,277.004C391.157,277.004 391.797,276.364 391.797,275.586L391.797,274.169L393.868,274.169C394.646,274.169 395.286,273.529 395.286,272.752L395.286,233.067C395.286,232.289 394.646,231.649 393.868,231.649L376.86,231.649C376.083,231.649 375.443,232.289 375.443,233.067L375.443,237.318L354.966,237.318L354.966,233.067C354.966,232.289 354.326,231.649 353.548,231.649L329.79,231.649C329.013,231.649 328.373,232.289 328.373,233.067L328.373,237.318ZM127.13,237.318L76.779,237.318C76.002,237.318 75.362,237.958 75.362,238.736L75.362,275.586C75.362,276.364 76.002,277.004 76.779,277.004L127.13,277.004C127.907,277.004 128.547,276.364 128.547,275.586L128.547,238.736C128.547,237.958 127.907,237.318 127.13,237.318ZM187.88,237.318L137.529,237.318C136.752,237.318 136.112,237.958 136.112,238.736L136.112,275.586C136.112,276.364 136.752,277.004 137.529,277.004L187.88,277.004C188.657,277.004 189.297,276.364 189.297,275.586L189.297,238.736C189.297,237.958 188.657,237.318 187.88,237.318ZM763.047,275.586L763.047,238.736C763.047,237.958 762.407,237.318 761.63,237.318L724.779,237.318C724.002,237.318 723.362,237.958 723.362,238.736L723.362,275.586C723.362,276.364 724.002,277.004 724.779,277.004L761.63,277.004C762.407,277.004 763.047,276.364 763.047,275.586ZM439.047,275.586L439.047,238.736C439.047,237.958 438.407,237.318 437.63,237.318L400.779,237.318C400.002,237.318 399.362,237.958 399.362,238.736L399.362,275.586C399.362,276.364 400.002,277.004 400.779,277.004L437.63,277.004C438.407,277.004 439.047,276.364 439.047,275.586ZM198.279,277.004L241.88,277.004C242.657,277.004 243.297,276.364 243.297,275.586L243.297,238.736C243.297,237.958 242.657,237.318 241.88,237.318L240.143,237.318L240.143,233.067C240.143,232.289 239.504,231.649 238.726,231.649L221.718,231.649C220.941,231.649 220.301,232.289 220.301,233.067L220.301,237.318L198.279,237.318C197.502,237.318 196.862,237.958 196.862,238.736L196.862,275.586C196.862,276.364 197.502,277.004 198.279,277.004ZM66.38,237.318L22.779,237.318C22.002,237.318 21.362,237.958 21.362,238.736L21.362,275.586C21.362,276.364 22.002,277.004 22.779,277.004L66.38,277.004C67.157,277.004 67.797,276.364 67.797,275.586L67.797,238.736C67.797,237.958 67.157,237.318 66.38,237.318ZM554.612,249.864C551.025,250.052 548.169,253.024 548.169,256.658C548.169,260.292 551.025,263.264 554.612,263.452L554.612,275.586C554.612,276.364 555.252,277.004 556.029,277.004L592.88,277.004C593.657,277.004 594.297,276.364 594.297,275.586L594.297,238.736C594.297,237.958 593.657,237.318 592.88,237.318L556.029,237.318C555.252,237.318 554.612,237.958 554.612,238.736L554.612,249.864ZM817.047,275.586L817.047,238.736C817.047,237.958 816.407,237.318 815.63,237.318L778.779,237.318C778.002,237.318 777.362,237.958 777.362,238.736L777.362,275.586C777.362,276.364 778.002,277.004 778.779,277.004L815.63,277.004C816.407,277.004 817.047,276.364 817.047,275.586ZM655.047,275.586L655.047,238.736C655.047,237.958 654.407,237.318 653.63,237.318L616.779,237.318C616.002,237.318 615.362,237.958 615.362,238.736L615.362,275.586C615.362,276.364 616.002,277.004 616.779,277.004L653.63,277.004C654.407,277.004 655.047,276.364 655.047,275.586ZM709.047,275.586L709.047,238.736C709.047,237.958 708.407,237.318 707.63,237.318L670.779,237.318C670.002,237.318 669.362,237.958 669.362,238.736L669.362,275.586C669.362,276.364 670.002,277.004 670.779,277.004L707.63,277.004C708.407,277.004 709.047,276.364 709.047,275.586ZM443.123,233.067L443.123,272.752C443.123,273.529 443.763,274.169 444.54,274.169L461.548,274.169C462.326,274.169 462.966,273.529 462.966,272.752L462.966,233.067C462.966,232.289 462.326,231.649 461.548,231.649L444.54,231.649C443.763,231.649 443.123,232.289 443.123,233.067ZM93.38,183.318L49.779,183.318C49.002,183.318 48.362,183.958 48.362,184.736L48.362,221.586C48.362,222.364 49.002,223.004 49.779,223.004L92.123,223.004L92.123,227.255C92.123,228.033 92.763,228.673 93.54,228.673L110.548,228.673C111.326,228.673 111.966,228.033 111.966,227.255L111.966,187.57C111.966,186.793 111.326,186.153 110.548,186.153L94.797,186.153L94.797,184.736C94.797,183.958 94.157,183.318 93.38,183.318ZM24.443,188.037L21.236,188.037C20.453,188.037 19.818,188.672 19.818,189.455C19.818,194.138 19.818,209.086 19.818,213.769C19.818,214.552 20.453,215.186 21.236,215.187C22.595,215.187 24.443,215.187 24.443,215.187L24.443,227.255C24.443,228.033 25.083,228.673 25.86,228.673L42.868,228.673C43.646,228.673 44.286,228.033 44.286,227.255L44.286,187.57C44.286,186.793 43.646,186.153 42.868,186.153L25.86,186.153C25.083,186.153 24.443,186.793 24.443,187.57L24.443,188.037ZM601.047,221.586L601.047,184.736C601.047,183.958 600.407,183.318 599.63,183.318L562.779,183.318C562.002,183.318 561.362,183.958 561.362,184.736L561.362,221.586C561.362,222.364 562.002,223.004 562.779,223.004L599.63,223.004C600.407,223.004 601.047,222.364 601.047,221.586ZM169.047,221.586L169.047,184.736C169.047,183.958 168.407,183.318 167.63,183.318L130.779,183.318C130.002,183.318 129.362,183.958 129.362,184.736L129.362,221.586C129.362,222.364 130.002,223.004 130.779,223.004L167.63,223.004C168.407,223.004 169.047,222.364 169.047,221.586ZM223.047,221.586L223.047,184.736C223.047,183.958 222.407,183.318 221.63,183.318L184.779,183.318C184.002,183.318 183.362,183.958 183.362,184.736L183.362,221.586C183.362,222.364 184.002,223.004 184.779,223.004L221.63,223.004C222.407,223.004 223.047,222.364 223.047,221.586ZM331.047,221.586L331.047,184.736C331.047,183.958 330.407,183.318 329.63,183.318L292.779,183.318C292.002,183.318 291.362,183.958 291.362,184.736L291.362,221.586C291.362,222.364 292.002,223.004 292.779,223.004L329.63,223.004C330.407,223.004 331.047,222.364 331.047,221.586ZM385.047,221.586L385.047,184.736C385.047,183.958 384.407,183.318 383.63,183.318L346.779,183.318C346.002,183.318 345.362,183.958 345.362,184.736L345.362,221.586C345.362,222.364 346.002,223.004 346.779,223.004L383.63,223.004C384.407,223.004 385.047,222.364 385.047,221.586ZM439.047,221.586L439.047,184.736C439.047,183.958 438.407,183.318 437.63,183.318L400.779,183.318C400.002,183.318 399.362,183.958 399.362,184.736L399.362,221.586C399.362,222.364 400.002,223.004 400.779,223.004L437.63,223.004C438.407,223.004 439.047,222.364 439.047,221.586ZM493.047,221.586L493.047,184.736C493.047,183.958 492.407,183.318 491.63,183.318L454.779,183.318C454.002,183.318 453.362,183.958 453.362,184.736L453.362,221.586C453.362,222.364 454.002,223.004 454.779,223.004L491.63,223.004C492.407,223.004 493.047,222.364 493.047,221.586ZM547.047,221.586L547.047,184.736C547.047,183.958 546.407,183.318 545.63,183.318L508.779,183.318C508.002,183.318 507.362,183.958 507.362,184.736L507.362,221.586C507.362,222.364 508.002,223.004 508.779,223.004L545.63,223.004C546.407,223.004 547.047,222.364 547.047,221.586ZM655.047,221.586L655.047,184.736C655.047,183.958 654.407,183.318 653.63,183.318L616.779,183.318C616.002,183.318 615.362,183.958 615.362,184.736L615.362,221.586C615.362,222.364 616.002,223.004 616.779,223.004L653.63,223.004C654.407,223.004 655.047,222.364 655.047,221.586ZM277.047,221.586L277.047,184.736C277.047,183.958 276.407,183.318 275.63,183.318L238.779,183.318C238.002,183.318 237.362,183.958 237.362,184.736L237.362,221.586C237.362,222.364 238.002,223.004 238.779,223.004L275.63,223.004C276.407,223.004 277.047,222.364 277.047,221.586ZM304.047,167.586L304.047,130.736C304.047,129.958 303.407,129.318 302.63,129.318L265.779,129.318C265.002,129.318 264.362,129.958 264.362,130.736L264.362,167.586C264.362,168.364 265.002,169.004 265.779,169.004L302.63,169.004C303.407,169.004 304.047,168.364 304.047,167.586ZM688.797,129.318L688.797,115.004L694.13,115.004C694.907,115.004 695.547,114.364 695.547,113.586L695.547,76.736C695.547,75.958 694.907,75.318 694.13,75.318L657.279,75.318C656.502,75.318 655.862,75.958 655.862,76.736L655.862,78.4L653.364,78.4C652.586,78.4 651.947,79.04 651.947,79.817L651.947,96.825C651.947,97.602 652.586,98.242 653.364,98.242L655.862,98.242L655.862,102.318L650.529,102.318C649.752,102.318 649.112,102.958 649.112,103.736L649.112,140.586C649.112,141.364 649.752,142.004 650.529,142.004L652.193,142.004L652.193,146.702C652.038,146.93 651.947,147.204 651.947,147.497L651.947,164.505C651.947,164.956 652.162,165.361 652.494,165.621C652.755,165.954 653.159,166.169 653.61,166.169L655.862,166.169L655.862,167.586C655.862,168.364 656.502,169.004 657.279,169.004L714.38,169.004C715.157,169.004 715.797,168.364 715.797,167.586L715.797,130.736C715.797,129.958 715.157,129.318 714.38,129.318L688.797,129.318ZM520.047,167.586L520.047,130.736C520.047,129.958 519.407,129.318 518.63,129.318L481.779,129.318C481.002,129.318 480.362,129.958 480.362,130.736L480.362,167.586C480.362,168.364 481.002,169.004 481.779,169.004L518.63,169.004C519.407,169.004 520.047,168.364 520.047,167.586ZM628.047,167.586L628.047,130.736C628.047,129.958 627.407,129.318 626.63,129.318L589.779,129.318C589.002,129.318 588.362,129.958 588.362,130.736L588.362,167.586C588.362,168.364 589.002,169.004 589.779,169.004L626.63,169.004C627.407,169.004 628.047,168.364 628.047,167.586ZM574.047,167.586L574.047,130.736C574.047,129.958 573.407,129.318 572.63,129.318L535.779,129.318C535.002,129.318 534.362,129.958 534.362,130.736L534.362,167.586C534.362,168.364 535.002,169.004 535.779,169.004L572.63,169.004C573.407,169.004 574.047,168.364 574.047,167.586ZM103.779,169.004L140.63,169.004C141.407,169.004 142.047,168.364 142.047,167.586L142.047,130.736C142.047,129.958 141.407,129.318 140.63,129.318L103.779,129.318C103.002,129.318 102.362,129.958 102.362,130.736L102.362,167.586C102.362,168.364 103.002,169.004 103.779,169.004ZM250.047,167.586L250.047,130.736C250.047,129.958 249.407,129.318 248.63,129.318L211.779,129.318C211.002,129.318 210.362,129.958 210.362,130.736L210.362,167.586C210.362,168.364 211.002,169.004 211.779,169.004L248.63,169.004C249.407,169.004 250.047,168.364 250.047,167.586ZM358.047,167.586L358.047,130.736C358.047,129.958 357.407,129.318 356.63,129.318L319.779,129.318C319.002,129.318 318.362,129.958 318.362,130.736L318.362,167.586C318.362,168.364 319.002,169.004 319.779,169.004L356.63,169.004C357.407,169.004 358.047,168.364 358.047,167.586ZM466.047,167.586L466.047,130.736C466.047,129.958 465.407,129.318 464.63,129.318L427.779,129.318C427.002,129.318 426.362,129.958 426.362,130.736L426.362,167.586C426.362,168.364 427.002,169.004 427.779,169.004L464.63,169.004C465.407,169.004 466.047,168.364 466.047,167.586ZM412.047,167.586L412.047,130.736C412.047,129.958 411.407,129.318 410.63,129.318L373.779,129.318C373.002,129.318 372.362,129.958 372.362,130.736L372.362,167.586C372.362,168.364 373.002,169.004 373.779,169.004L410.63,169.004C411.407,169.004 412.047,168.364 412.047,167.586ZM196.047,167.586L196.047,130.736C196.047,129.958 195.407,129.318 194.63,129.318L157.779,129.318C157.002,129.318 156.362,129.958 156.362,130.736L156.362,167.586C156.362,168.364 157.002,169.004 157.779,169.004L194.63,169.004C195.407,169.004 196.047,168.364 196.047,167.586ZM79.88,129.318L36.279,129.318C35.502,129.318 34.862,129.958 34.862,130.736L34.862,167.586C34.862,168.364 35.502,169.004 36.279,169.004L79.88,169.004C80.657,169.004 81.297,168.364 81.297,167.586L81.297,130.736C81.297,129.958 80.657,129.318 79.88,129.318ZM27.669,121.955C27.669,121.173 27.035,120.538 26.252,120.538C24.836,120.538 22.672,120.538 21.256,120.538C20.473,120.538 19.839,121.173 19.839,121.955C19.839,127.001 19.839,144.059 19.839,149.105C19.839,149.887 20.473,150.522 21.256,150.522C22.672,150.522 24.836,150.522 26.252,150.522C27.035,150.522 27.669,149.887 27.669,149.105C27.669,144.059 27.669,127.001 27.669,121.955ZM103.779,115.004L140.63,115.004C141.407,115.004 142.047,114.364 142.047,113.586L142.047,76.736C142.047,75.958 141.407,75.318 140.63,75.318L103.779,75.318C103.002,75.318 102.362,75.958 102.362,76.736L102.362,113.586C102.362,114.364 103.002,115.004 103.779,115.004ZM574.047,113.586L574.047,76.736C574.047,75.958 573.407,75.318 572.63,75.318L535.779,75.318C535.002,75.318 534.362,75.958 534.362,76.736L534.362,113.586C534.362,114.364 535.002,115.004 535.779,115.004L572.63,115.004C573.407,115.004 574.047,114.364 574.047,113.586ZM196.047,113.586L196.047,76.736C196.047,75.958 195.407,75.318 194.63,75.318L157.779,75.318C157.002,75.318 156.362,75.958 156.362,76.736L156.362,113.586C156.362,114.364 157.002,115.004 157.779,115.004L194.63,115.004C195.407,115.004 196.047,114.364 196.047,113.586ZM520.047,113.586L520.047,76.736C520.047,75.958 519.407,75.318 518.63,75.318L481.779,75.318C481.002,75.318 480.362,75.958 480.362,76.736L480.362,113.586C480.362,114.364 481.002,115.004 481.779,115.004L518.63,115.004C519.407,115.004 520.047,114.364 520.047,113.586ZM73.13,75.318L36.279,75.318C35.502,75.318 34.862,75.958 34.862,76.736L34.862,113.586C34.862,114.364 35.502,115.004 36.279,115.004L73.13,115.004C73.907,115.004 74.547,114.364 74.547,113.586L74.547,76.736C74.547,75.958 73.907,75.318 73.13,75.318ZM412.047,113.586L412.047,76.736C412.047,75.958 411.407,75.318 410.63,75.318L373.779,75.318C373.002,75.318 372.362,75.958 372.362,76.736L372.362,113.586C372.362,114.364 373.002,115.004 373.779,115.004L410.63,115.004C411.407,115.004 412.047,114.364 412.047,113.586ZM358.047,113.586L358.047,76.736C358.047,75.958 357.407,75.318 356.63,75.318L319.779,75.318C319.002,75.318 318.362,75.958 318.362,76.736L318.362,113.586C318.362,114.364 319.002,115.004 319.779,115.004L356.63,115.004C357.407,115.004 358.047,114.364 358.047,113.586ZM466.047,113.586L466.047,76.736C466.047,75.958 465.407,75.318 464.63,75.318L427.779,75.318C427.002,75.318 426.362,75.958 426.362,76.736L426.362,113.586C426.362,114.364 427.002,115.004 427.779,115.004L464.63,115.004C465.407,115.004 466.047,114.364 466.047,113.586ZM250.047,113.586L250.047,76.736C250.047,75.958 249.407,75.318 248.63,75.318L211.779,75.318C211.002,75.318 210.362,75.958 210.362,76.736L210.362,113.586C210.362,114.364 211.002,115.004 211.779,115.004L248.63,115.004C249.407,115.004 250.047,114.364 250.047,113.586ZM815.63,115.004C816.407,115.004 817.047,114.364 817.047,113.586L817.047,100.122L817.048,100.122C817.644,100.122 818.128,99.638 818.128,99.042C818.128,94.342 818.128,75.673 818.128,70.361C818.128,69.985 817.978,69.624 817.712,69.358C817.447,69.093 817.086,68.943 816.71,68.943L811.714,68.943C810.931,68.943 810.297,69.578 810.297,70.361C810.297,72.239 810.297,75.318 810.297,75.318L711.279,75.318C710.502,75.318 709.862,75.958 709.862,76.736L709.862,113.586C709.862,114.364 710.502,115.004 711.279,115.004L815.63,115.004ZM304.047,113.586L304.047,76.736C304.047,75.958 303.407,75.318 302.63,75.318L265.779,75.318C265.002,75.318 264.362,75.958 264.362,76.736L264.362,113.586C264.362,114.364 265.002,115.004 265.779,115.004L302.63,115.004C303.407,115.004 304.047,114.364 304.047,113.586ZM628.047,113.586L628.047,76.736C628.047,75.958 627.407,75.318 626.63,75.318L589.779,75.318C589.002,75.318 588.362,75.958 588.362,76.736L588.362,113.586C588.362,114.364 589.002,115.004 589.779,115.004L626.63,115.004C627.407,115.004 628.047,114.364 628.047,113.586ZM86.674,87.382C82.919,87.382 79.87,90.431 79.87,94.185C79.87,97.94 82.919,100.989 86.674,100.989C90.428,100.989 93.477,97.94 93.477,94.185C93.477,90.431 90.428,87.382 86.674,87.382ZM493.047,59.586L493.047,22.736C493.047,21.958 492.407,21.318 491.63,21.318L454.779,21.318C454.002,21.318 453.362,21.958 453.362,22.736L453.362,59.586C453.362,60.364 454.002,61.004 454.779,61.004L491.63,61.004C492.407,61.004 493.047,60.364 493.047,59.586ZM601.047,59.586L601.047,22.736C601.047,21.958 600.407,21.318 599.63,21.318L562.779,21.318C562.002,21.318 561.362,21.958 561.362,22.736L561.362,59.586C561.362,60.364 562.002,61.004 562.779,61.004L599.63,61.004C600.407,61.004 601.047,60.364 601.047,59.586ZM439.047,59.586L439.047,22.736C439.047,21.958 438.407,21.318 437.63,21.318L400.779,21.318C400.002,21.318 399.362,21.958 399.362,22.736L399.362,59.586C399.362,60.364 400.002,61.004 400.779,61.004L437.63,61.004C438.407,61.004 439.047,60.364 439.047,59.586ZM385.047,59.586L385.047,22.736C385.047,21.958 384.407,21.318 383.63,21.318L346.779,21.318C346.002,21.318 345.362,21.958 345.362,22.736L345.362,59.586C345.362,60.364 346.002,61.004 346.779,61.004L383.63,61.004C384.407,61.004 385.047,60.364 385.047,59.586ZM655.047,59.586L655.047,22.736C655.047,21.958 654.407,21.318 653.63,21.318L616.779,21.318C616.002,21.318 615.362,21.958 615.362,22.736L615.362,59.586C615.362,60.364 616.002,61.004 616.779,61.004L653.63,61.004C654.407,61.004 655.047,60.364 655.047,59.586ZM223.047,59.586L223.047,22.736C223.047,21.958 222.407,21.318 221.63,21.318L184.779,21.318C184.002,21.318 183.362,21.958 183.362,22.736L183.362,59.586C183.362,60.364 184.002,61.004 184.779,61.004L221.63,61.004C222.407,61.004 223.047,60.364 223.047,59.586ZM709.047,59.586L709.047,22.736C709.047,21.958 708.407,21.318 707.63,21.318L670.779,21.318C670.002,21.318 669.362,21.958 669.362,22.736L669.362,59.586C669.362,60.364 670.002,61.004 670.779,61.004L707.63,61.004C708.407,61.004 709.047,60.364 709.047,59.586ZM331.047,59.586L331.047,22.736C331.047,21.958 330.407,21.318 329.63,21.318L292.779,21.318C292.002,21.318 291.362,21.958 291.362,22.736L291.362,59.586C291.362,60.364 292.002,61.004 292.779,61.004L329.63,61.004C330.407,61.004 331.047,60.364 331.047,59.586ZM61.047,59.586L61.047,22.736C61.047,21.958 60.407,21.318 59.63,21.318L22.779,21.318C22.002,21.318 21.362,21.958 21.362,22.736L21.362,59.586C21.362,60.364 22.002,61.004 22.779,61.004L59.63,61.004C60.407,61.004 61.047,60.364 61.047,59.586ZM277.047,59.586L277.047,22.736C277.047,21.958 276.407,21.318 275.63,21.318L238.779,21.318C238.002,21.318 237.362,21.958 237.362,22.736L237.362,59.586C237.362,60.364 238.002,61.004 238.779,61.004L275.63,61.004C276.407,61.004 277.047,60.364 277.047,59.586ZM76.779,61.004L113.63,61.004C114.407,61.004 115.047,60.364 115.047,59.586L115.047,22.736C115.047,21.958 114.407,21.318 113.63,21.318L76.779,21.318C76.002,21.318 75.362,21.958 75.362,22.736L75.362,59.586C75.362,60.364 76.002,61.004 76.779,61.004ZM547.047,59.586L547.047,22.736C547.047,21.958 546.407,21.318 545.63,21.318L508.779,21.318C508.002,21.318 507.362,21.958 507.362,22.736L507.362,59.586C507.362,60.364 508.002,61.004 508.779,61.004L545.63,61.004C546.407,61.004 547.047,60.364 547.047,59.586ZM169.047,59.586L169.047,22.736C169.047,21.958 168.407,21.318 167.63,21.318L130.779,21.318C130.002,21.318 129.362,21.958 129.362,22.736L129.362,59.586C129.362,60.364 130.002,61.004 130.779,61.004L167.63,61.004C168.407,61.004 169.047,60.364 169.047,59.586ZM670.779,223.004L815.63,223.004C816.407,223.004 817.047,222.364 817.047,221.586L817.047,183.759C817.047,182.976 817.681,182.341 818.464,182.341C819.576,182.341 821.117,182.341 822.229,182.341C823.011,182.341 823.646,182.976 823.646,183.759C823.646,195.629 823.646,278.05 823.646,278.05L823.629,278.49L823.575,278.932L823.487,279.369L823.368,279.799L823.212,280.219L823.028,280.619L822.81,281.007L822.566,281.378L822.285,281.73L821.985,282.059L821.656,282.356L821.307,282.634L820.936,282.881L820.548,283.099L820.145,283.283L819.731,283.442L819.298,283.561L818.861,283.646L818.419,283.697L817.977,283.714L20.378,283.72L19.933,283.697L19.491,283.646L19.054,283.561L18.624,283.442L18.207,283.283L17.804,283.099L17.416,282.881L17.045,282.634L16.696,282.356L16.367,282.059L16.067,281.73L15.789,281.378L15.542,281.007L15.324,280.619L15.14,280.219L14.984,279.799L14.865,279.369L14.777,278.932L14.726,278.49L14.706,278.05L14.706,183.759C14.706,182.976 15.341,182.341 16.123,182.341C18.866,182.341 24.63,182.341 24.63,182.341L26.821,181.996L28.794,180.989L30.362,179.419L31.368,177.446L31.717,175.255L31.368,173.064L30.362,171.088L28.794,169.52L26.821,168.514L24.633,168.168L16.123,168.168C15.748,168.168 15.387,168.019 15.121,167.753C14.855,167.487 14.706,167.127 14.706,166.751C14.706,151.613 14.709,20.305 14.709,20.305L14.726,19.86L14.777,19.417L14.865,18.981L14.984,18.55L15.14,18.133L15.324,17.731L15.542,17.342L15.789,16.971L16.067,16.622L16.367,16.294L16.696,15.993L17.045,15.715L17.416,15.469L17.804,15.25L18.207,15.066L18.624,14.91L19.054,14.791L19.491,14.703L19.933,14.652L20.378,14.632C20.378,14.632 687.072,14.635 721.945,14.635C722.727,14.635 723.362,15.269 723.362,16.052C723.362,23.688 723.362,59.586 723.362,59.586C723.362,60.364 724.002,61.004 724.779,61.004L761.63,61.004C762.407,61.004 763.047,60.364 763.047,59.586L763.047,16.05C763.047,15.674 763.196,15.313 763.462,15.048C763.728,14.782 764.088,14.632 764.464,14.633C773.073,14.633 817.977,14.635 817.977,14.635L818.419,14.652L818.861,14.703L819.298,14.791L819.731,14.91L820.145,15.066L820.548,15.25L820.936,15.469L821.307,15.715L821.656,15.993L821.985,16.294L822.285,16.622L822.566,16.971L822.81,17.342L823.028,17.731L823.212,18.133L823.368,18.55L823.487,18.981L823.575,19.417L823.629,19.86L823.646,20.305L823.646,20.305C823.646,20.865 823.192,21.318 822.633,21.318C815.977,21.318 778.779,21.318 778.779,21.318C778.002,21.318 777.362,21.958 777.362,22.736L777.362,59.586C777.362,60.364 778.002,61.004 778.779,61.004L822.229,61.004C822.605,61.004 822.965,61.153 823.231,61.419C823.497,61.684 823.646,62.045 823.646,62.421C823.646,74.151 823.646,155.021 823.646,166.751C823.646,167.534 823.011,168.168 822.229,168.168C821.117,168.168 819.576,168.168 818.464,168.168C817.681,168.168 817.047,167.534 817.047,166.751C817.047,163.185 817.047,154.122 817.047,154.122L817.048,154.122C817.334,154.122 817.609,154.008 817.811,153.805C818.014,153.603 818.128,153.328 818.128,153.042L818.128,124.846C818.128,124.47 817.978,124.11 817.712,123.844C817.447,123.578 817.086,123.429 816.71,123.429C815.294,123.429 813.13,123.429 811.714,123.429C811.338,123.429 810.978,123.578 810.712,123.844C810.446,124.11 810.297,124.47 810.297,124.846C810.297,126.589 810.297,129.318 810.297,129.318L739.716,129.318L739.716,125.067C739.716,124.289 739.076,123.649 738.298,123.649L721.29,123.649C720.513,123.649 719.873,124.289 719.873,125.067L719.873,164.752C719.873,165.529 720.513,166.169 721.29,166.169L723.362,166.169L723.362,167.586C723.362,168.364 724.002,169.004 724.779,169.004L806.984,169.004L806.984,183.318L670.779,183.318C670.002,183.318 669.362,183.958 669.362,184.736L669.362,221.586C669.362,222.364 670.002,223.004 670.779,223.004Z" style="fill:rgb(152,152,152);fill-rule:nonzero;stroke:rgb(0,104,207);stroke-width:1.42px;"/>
    </g>
</svg>
