  0
SECTION
  2
HEADER
  9
$ACADVER
  1
AC1014
  9
$HANDSEED
  5
FFFF
  9
$MEASUREMENT
 70
     1
  0
ENDSEC
  0
SECTION
  2
TABLES
  0
TABLE
  2
VPORT
  5
8
330
0
100
AcDbSymbolTable
 70
     4
  0
VPORT
  5
2E
330
8
100
AcDbSymbolTableRecord
100
AcDbViewportTableRecord
  2
*ACTIVE
 70
     0
 10
0.0
 20
0.0
 11
1.0
 21
1.0
 12
210.0
 22
148.5
 13
0.0
 23
0.0
 14
10.0
 24
10.0
 15
10.0
 25
10.0
 16
0.0
 26
0.0
 36
1.0
 17
0.0
 27
0.0
 37
0.0
 40
341.0
 41
1.24
 42
50.0
 43
0.0
 44
0.0
 50
0.0
 51
0.0
 71
     0
 72
   100
 73
     1
 74
     3
 75
     0
 76
     0
 77
     0
 78
     0
  0
ENDTAB
  0
TABLE
  2
LTYPE
  5
5
330
0
100
AcDbSymbolTable
 70
     1
  0
LTYPE
  5
14
330
5
100
AcDbSymbolTableRecord
100
AcDbLinetypeTableRecord
  2
BYBLOCK
 70
     0
  3

 72
    65
 73
     0
 40
0.0
  0
LTYPE
  5
15
330
5
100
AcDbSymbolTableRecord
100
AcDbLinetypeTableRecord
  2
BYLAYER
 70
     0
  3

 72
    65
 73
     0
 40
0.0
  0
LTYPE
  5
16
330
5
100
AcDbSymbolTableRecord
100
AcDbLinetypeTableRecord
  2
CONTINUOUS
 70
     0
  3
Solid line
 72
    65
 73
     0
 40
0.0
  0
ENDTAB
  0
TABLE
  2
LAYER
  5
2
100
AcDbSymbolTable
 70
1
  0
LAYER
  5
50
100
AcDbSymbolTableRecord
100
AcDbLayerTableRecord
  2
0
 70
0
  6
CONTINUOUS
  0
ENDTAB
  0
TABLE
  2
STYLE
  5
3
330
0
100
AcDbSymbolTable
 70
     1
  0
STYLE
  5
11
330
3
100
AcDbSymbolTableRecord
100
AcDbTextStyleTableRecord
  2
STANDARD
 70
     0
 40
0.0
 41
1.0
 50
0.0
 71
     0
 42
2.5
  3
txt
  4

  0
ENDTAB
  0
TABLE
  2
VIEW
  5
6
330
0
100
AcDbSymbolTable
 70
     0
  0
ENDTAB
  0
TABLE
  2
UCS
  5
7
330
0
100
AcDbSymbolTable
 70
     0
  0
ENDTAB
  0
TABLE
  2
APPID
  5
9
330
0
100
AcDbSymbolTable
 70
     2
  0
APPID
  5
12
330
9
100
AcDbSymbolTableRecord
100
AcDbRegAppTableRecord
  2
ACAD
 70
     0
  0
ENDTAB
  0
TABLE
  2
DIMSTYLE
  5
A
330
0
100
AcDbSymbolTable
 70
     1
  0
DIMSTYLE
105
27
330
A
100
AcDbSymbolTableRecord
100
AcDbDimStyleTableRecord
  2
ISO-25
 70
     0
  3

  4

  5

  6

  7

 40
1.0
 41
2.5
 42
0.625
 43
3.75
 44
1.25
 45
0.0
 46
0.0
 47
0.0
 48
0.0
140
2.5
141
2.5
142
0.0
143
0.03937007874016
144
1.0
145
0.0
146
1.0
147
0.625
 71
     0
 72
     0
 73
     0
 74
     0
 75
     0
 76
     0
 77
     1
 78
     8
170
     0
171
     3
172
     1
173
     0
174
     0
175
     0
176
     0
177
     0
178
     0
270
     2
271
     2
272
     2
273
     2
274
     3
340
11
275
     0
280
     0
281
     0
282
     0
283
     0
284
     8
285
     0
286
     0
287
     3
288
     0
  0
ENDTAB
  0
TABLE
  2
BLOCK_RECORD
  5
1
330
0
100
AcDbSymbolTable
 70
     1
  0
BLOCK_RECORD
  5
1F
330
1
100
AcDbSymbolTableRecord
100
AcDbBlockTableRecord
  2
*MODEL_SPACE
  0
BLOCK_RECORD
  5
1B
330
1
100
AcDbSymbolTableRecord
100
AcDbBlockTableRecord
  2
*PAPER_SPACE
  0
ENDTAB
  0
ENDSEC
  0
SECTION
  2
BLOCKS
  0
BLOCK
  5
20
330
1F
100
AcDbEntity
  8
0
100
AcDbBlockBegin
  2
*MODEL_SPACE
 70
     0
 10
0.0
 20
0.0
 30
0.0
  3
*MODEL_SPACE
  1

  0
ENDBLK
  5
21
330
1F
100
AcDbEntity
  8
0
100
AcDbBlockEnd
  0
BLOCK
  5
1C
330
1B
100
AcDbEntity
 67
     1
  8
0
100
AcDbBlockBegin
  2
*PAPER_SPACE
  1

  0
ENDBLK
  5
1D
330
1B
100
AcDbEntity
 67
     1
  8
0
100
AcDbBlockEnd
  0
ENDSEC
  0
SECTION
  2
ENTITIES
  0
SPLINE
  5
100
100
AcDbEntity
  8
0
 62
5
100
AcDbSpline
 70
8
 71
3
 72
8
 73
4
 74
0
 40
0
 40
0
 40
0
 40
0
 40
1
 40
1
 40
1
 40
1
 10
172.341744
 20
21.583859
 30
0.0
 10
172.067636
 20
21.583859
 30
0.0
 10
171.841859
 20
21.358082
 30
0.0
 10
171.841859
 20
21.083622
 30
0.0
  0
LWPOLYLINE
  5
101
100
AcDbEntity
  8
0
 62
5
100
AcDbPolyline
 90
2
 70
0
 10
177.716653
 20
21.583859
 30
0.0
 10
172.341744
 20
21.583859
 30
0.0
  0
SPLINE
  5
102
100
AcDbEntity
  8
0
 62
5
100
AcDbSpline
 70
8
 71
3
 72
8
 73
4
 74
0
 40
0
 40
0
 40
0
 40
0
 40
1
 40
1
 40
1
 40
1
 10
171.841859
 20
8.083793
 30
0.0
 10
171.841859
 20
7.809333
 30
0.0
 10
172.067636
 20
7.583555
 30
0.0
 10
172.341744
 20
7.583555
 30
0.0
  0
LWPOLYLINE
  5
103
100
AcDbEntity
  8
0
 62
5
100
AcDbPolyline
 90
2
 70
0
 10
171.841859
 20
21.083622
 30
0.0
 10
171.841859
 20
8.083793
 30
0.0
  0
SPLINE
  5
104
100
AcDbEntity
  8
0
 62
5
100
AcDbSpline
 70
8
 71
3
 72
8
 73
4
 74
0
 40
0
 40
0
 40
0
 40
0
 40
1
 40
1
 40
1
 40
1
 10
185.341926
 20
7.583555
 30
0.0
 10
185.616033
 20
7.583555
 30
0.0
 10
185.841810
 20
7.809333
 30
0.0
 10
185.841810
 20
8.083793
 30
0.0
  0
LWPOLYLINE
  5
105
100
AcDbEntity
  8
0
 62
5
100
AcDbPolyline
 90
2
 70
0
 10
172.341744
 20
7.583555
 30
0.0
 10
185.341926
 20
7.583555
 30
0.0
  0
SPLINE
  5
106
100
AcDbEntity
  8
0
 62
5
100
AcDbSpline
 70
8
 71
3
 72
8
 73
4
 74
0
 40
0
 40
0
 40
0
 40
0
 40
1
 40
1
 40
1
 40
1
 10
185.841810
 20
21.083622
 30
0.0
 10
185.841810
 20
21.358082
 30
0.0
 10
185.616033
 20
21.583859
 30
0.0
 10
185.341926
 20
21.583859
 30
0.0
  0
LWPOLYLINE
  5
107
100
AcDbEntity
  8
0
 62
5
100
AcDbPolyline
 90
2
 70
0
 10
185.841810
 20
8.083793
 30
0.0
 10
185.841810
 20
21.083622
 30
0.0
  0
SPLINE
  5
108
100
AcDbEntity
  8
0
 62
5
100
AcDbSpline
 70
8
 71
3
 72
8
 73
4
 74
0
 40
0
 40
0
 40
0
 40
0
 40
1
 40
1
 40
1
 40
1
 10
184.716805
 20
23.083514
 30
0.0
 10
184.716805
 20
23.357974
 30
0.0
 10
184.491028
 20
23.583752
 30
0.0
 10
184.216920
 20
23.583752
 30
0.0
  0
LWPOLYLINE
  5
109
100
AcDbEntity
  8
0
 62
5
100
AcDbPolyline
 90
3
 70
0
 10
185.341926
 20
21.583859
 30
0.0
 10
184.716805
 20
21.583859
 30
0.0
 10
184.716805
 20
23.083514
 30
0.0
  0
SPLINE
  5
10a
100
AcDbEntity
  8
0
 62
5
100
AcDbSpline
 70
8
 71
3
 72
8
 73
4
 74
0
 40
0
 40
0
 40
0
 40
0
 40
1
 40
1
 40
1
 40
1
 10
178.216891
 20
23.583752
 30
0.0
 10
177.942430
 20
23.583752
 30
0.0
 10
177.716653
 20
23.357974
 30
0.0
 10
177.716653
 20
23.083514
 30
0.0
  0
LWPOLYLINE
  5
10b
100
AcDbEntity
  8
0
 62
5
100
AcDbPolyline
 90
2
 70
0
 10
184.216920
 20
23.583752
 30
0.0
 10
178.216891
 20
23.583752
 30
0.0
  0
LWPOLYLINE
  5
10c
100
AcDbEntity
  8
0
 62
5
100
AcDbPolyline
 90
3
 70
0
 10
177.716653
 20
23.083514
 30
0.0
 10
177.716653
 20
21.583859
 30
0.0
 10
177.716653
 20
21.583859
 30
0.0
  0
SPLINE
  5
10d
100
AcDbEntity
  8
0
 62
5
100
AcDbSpline
 70
8
 71
3
 72
8
 73
4
 74
0
 40
0
 40
0
 40
0
 40
0
 40
1
 40
1
 40
1
 40
1
 10
101.347863
 20
23.083514
 30
0.0
 10
101.347863
 20
23.357974
 30
0.0
 10
101.122086
 20
23.583752
 30
0.0
 10
100.847626
 20
23.583752
 30
0.0
  0
LWPOLYLINE
  5
10e
100
AcDbEntity
  8
0
 62
5
100
AcDbPolyline
 90
3
 70
0
 10
115.842408
 20
21.583859
 30
0.0
 10
101.347863
 20
21.583859
 30
0.0
 10
101.347863
 20
23.083514
 30
0.0
  0
SPLINE
  5
10f
100
AcDbEntity
  8
0
 62
5
100
AcDbSpline
 70
8
 71
3
 72
8
 73
4
 74
0
 40
0
 40
0
 40
0
 40
0
 40
1
 40
1
 40
1
 40
1
 10
92.466352
 20
23.583752
 30
0.0
 10
92.192245
 20
23.583752
 30
0.0
 10
91.966467
 20
23.357974
 30
0.0
 10
91.966467
 20
23.083514
 30
0.0
  0
LWPOLYLINE
  5
110
100
AcDbEntity
  8
0
 62
5
100
AcDbPolyline
 90
2
 70
0
 10
100.847626
 20
23.583752
 30
0.0
 10
92.466352
 20
23.583752
 30
0.0
  0
SPLINE
  5
111
100
AcDbEntity
  8
0
 62
5
100
AcDbSpline
 70
8
 71
3
 72
8
 73
4
 74
0
 40
0
 40
0
 40
0
 40
0
 40
1
 40
1
 40
1
 40
1
 10
91.966467
 20
9.083563
 30
0.0
 10
91.966467
 20
8.809455
 30
0.0
 10
92.192245
 20
8.583678
 30
0.0
 10
92.466352
 20
8.583678
 30
0.0
  0
LWPOLYLINE
  5
112
100
AcDbEntity
  8
0
 62
5
100
AcDbPolyline
 90
2
 70
0
 10
91.966467
 20
23.083514
 30
0.0
 10
91.966467
 20
9.083563
 30
0.0
  0
SPLINE
  5
113
100
AcDbEntity
  8
0
 62
5
100
AcDbSpline
 70
8
 71
3
 72
8
 73
4
 74
0
 40
0
 40
0
 40
0
 40
0
 40
1
 40
1
 40
1
 40
1
 10
100.404538
 20
8.083793
 30
0.0
 10
100.404538
 20
7.809333
 30
0.0
 10
100.630315
 20
7.583555
 30
0.0
 10
100.904423
 20
7.583555
 30
0.0
  0
LWPOLYLINE
  5
114
100
AcDbEntity
  8
0
 62
5
100
AcDbPolyline
 90
3
 70
0
 10
92.466352
 20
8.583678
 30
0.0
 10
100.404538
 20
8.583678
 30
0.0
 10
100.404538
 20
8.083793
 30
0.0
  0
SPLINE
  5
115
100
AcDbEntity
  8
0
 62
5
100
AcDbSpline
 70
8
 71
3
 72
8
 73
4
 74
0
 40
0
 40
0
 40
0
 40
0
 40
1
 40
1
 40
1
 40
1
 10
116.285848
 20
7.583555
 30
0.0
 10
116.559956
 20
7.583555
 30
0.0
 10
116.785733
 20
7.809333
 30
0.0
 10
116.785733
 20
8.083793
 30
0.0
  0
LWPOLYLINE
  5
116
100
AcDbEntity
  8
0
 62
5
100
AcDbPolyline
 90
2
 70
0
 10
100.904423
 20
7.583555
 30
0.0
 10
116.285848
 20
7.583555
 30
0.0
  0
SPLINE
  5
117
100
AcDbEntity
  8
0
 62
5
100
AcDbSpline
 70
8
 71
3
 72
8
 73
4
 74
0
 40
0
 40
0
 40
0
 40
0
 40
1
 40
1
 40
1
 40
1
 10
124.216978
 20
8.083793
 30
0.0
 10
124.216978
 20
7.809333
 30
0.0
 10
124.442756
 20
7.583555
 30
0.0
 10
124.716863
 20
7.583555
 30
0.0
  0
LWPOLYLINE
  5
118
100
AcDbEntity
  8
0
 62
5
100
AcDbPolyline
 90
4
 70
0
 10
116.785733
 20
8.083793
 30
0.0
 10
116.785733
 20
8.583678
 30
0.0
 10
124.216978
 20
8.583678
 30
0.0
 10
124.216978
 20
8.083793
 30
0.0
  0
SPLINE
  5
119
100
AcDbEntity
  8
0
 62
5
100
AcDbSpline
 70
8
 71
3
 72
8
 73
4
 74
0
 40
0
 40
0
 40
0
 40
0
 40
1
 40
1
 40
1
 40
1
 10
137.717045
 20
7.583555
 30
0.0
 10
137.991152
 20
7.583555
 30
0.0
 10
138.216929
 20
7.809333
 30
0.0
 10
138.216929
 20
8.083793
 30
0.0
  0
LWPOLYLINE
  5
11a
100
AcDbEntity
  8
0
 62
5
100
AcDbPolyline
 90
2
 70
0
 10
124.716863
 20
7.583555
 30
0.0
 10
137.717045
 20
7.583555
 30
0.0
  0
SPLINE
  5
11b
100
AcDbEntity
  8
0
 62
5
100
AcDbSpline
 70
8
 71
3
 72
8
 73
4
 74
0
 40
0
 40
0
 40
0
 40
0
 40
1
 40
1
 40
1
 40
1
 10
138.947530
 20
8.583678
 30
0.0
 10
139.221991
 20
8.583678
 30
0.0
 10
139.447768
 20
8.809455
 30
0.0
 10
139.447768
 20
9.083563
 30
0.0
  0
LWPOLYLINE
  5
11c
100
AcDbEntity
  8
0
 62
5
100
AcDbPolyline
 90
3
 70
0
 10
138.216929
 20
8.083793
 30
0.0
 10
138.216929
 20
8.583678
 30
0.0
 10
138.947530
 20
8.583678
 30
0.0
  0
SPLINE
  5
11d
100
AcDbEntity
  8
0
 62
5
100
AcDbSpline
 70
8
 71
3
 72
8
 73
4
 74
0
 40
0
 40
0
 40
0
 40
0
 40
1
 40
1
 40
1
 40
1
 10
139.447768
 20
23.083514
 30
0.0
 10
139.447768
 20
23.357974
 30
0.0
 10
139.221991
 20
23.583752
 30
0.0
 10
138.947530
 20
23.583752
 30
0.0
  0
LWPOLYLINE
  5
11e
100
AcDbEntity
  8
0
 62
5
100
AcDbPolyline
 90
2
 70
0
 10
139.447768
 20
9.083563
 30
0.0
 10
139.447768
 20
23.083514
 30
0.0
  0
SPLINE
  5
11f
100
AcDbEntity
  8
0
 62
5
100
AcDbSpline
 70
8
 71
3
 72
8
 73
4
 74
0
 40
0
 40
0
 40
0
 40
0
 40
1
 40
1
 40
1
 40
1
 10
132.947501
 20
23.583752
 30
0.0
 10
132.673393
 20
23.583752
 30
0.0
 10
132.447616
 20
23.357974
 30
0.0
 10
132.447616
 20
23.083514
 30
0.0
  0
LWPOLYLINE
  5
120
100
AcDbEntity
  8
0
 62
5
100
AcDbPolyline
 90
2
 70
0
 10
138.947530
 20
23.583752
 30
0.0
 10
132.947501
 20
23.583752
 30
0.0
  0
SPLINE
  5
121
100
AcDbEntity
  8
0
 62
5
100
AcDbSpline
 70
8
 71
3
 72
8
 73
4
 74
0
 40
0
 40
0
 40
0
 40
0
 40
1
 40
1
 40
1
 40
1
 10
125.223804
 20
23.083514
 30
0.0
 10
125.223804
 20
23.357974
 30
0.0
 10
124.998026
 20
23.583752
 30
0.0
 10
124.723566
 20
23.583752
 30
0.0
  0
LWPOLYLINE
  5
122
100
AcDbEntity
  8
0
 62
5
100
AcDbPolyline
 90
4
 70
0
 10
132.447616
 20
23.083514
 30
0.0
 10
132.447616
 20
21.583859
 30
0.0
 10
125.223804
 20
21.583859
 30
0.0
 10
125.223804
 20
23.083514
 30
0.0
  0
SPLINE
  5
123
100
AcDbEntity
  8
0
 62
5
100
AcDbSpline
 70
8
 71
3
 72
8
 73
4
 74
0
 40
0
 40
0
 40
0
 40
0
 40
1
 40
1
 40
1
 40
1
 10
116.342292
 20
23.583752
 30
0.0
 10
116.068185
 20
23.583752
 30
0.0
 10
115.842408
 20
23.357974
 30
0.0
 10
115.842408
 20
23.083514
 30
0.0
  0
LWPOLYLINE
  5
124
100
AcDbEntity
  8
0
 62
5
100
AcDbPolyline
 90
2
 70
0
 10
124.723566
 20
23.583752
 30
0.0
 10
116.342292
 20
23.583752
 30
0.0
  0
LWPOLYLINE
  5
125
100
AcDbEntity
  8
0
 62
5
100
AcDbPolyline
 90
3
 70
0
 10
115.842408
 20
23.083514
 30
0.0
 10
115.842408
 20
21.583859
 30
0.0
 10
115.842408
 20
21.583859
 30
0.0
  0
SPLINE
  5
126
100
AcDbEntity
  8
0
 62
5
100
AcDbSpline
 70
8
 71
3
 72
8
 73
4
 74
0
 40
0
 40
0
 40
0
 40
0
 40
1
 40
1
 40
1
 40
1
 10
27.085857
 20
21.583859
 30
0.0
 10
26.811750
 20
21.583859
 30
0.0
 10
26.585972
 20
21.358082
 30
0.0
 10
26.585972
 20
21.083622
 30
0.0
  0
LWPOLYLINE
  5
127
100
AcDbEntity
  8
0
 62
5
100
AcDbPolyline
 90
2
 70
0
 10
44.848527
 20
21.583859
 30
0.0
 10
27.085857
 20
21.583859
 30
0.0
  0
SPLINE
  5
128
100
AcDbEntity
  8
0
 62
5
100
AcDbSpline
 70
8
 71
3
 72
8
 73
4
 74
0
 40
0
 40
0
 40
0
 40
0
 40
1
 40
1
 40
1
 40
1
 10
26.585972
 20
8.083793
 30
0.0
 10
26.585972
 20
7.809333
 30
0.0
 10
26.811750
 20
7.583555
 30
0.0
 10
27.085857
 20
7.583555
 30
0.0
  0
LWPOLYLINE
  5
129
100
AcDbEntity
  8
0
 62
5
100
AcDbPolyline
 90
2
 70
0
 10
26.585972
 20
21.083622
 30
0.0
 10
26.585972
 20
8.083793
 30
0.0
  0
SPLINE
  5
12a
100
AcDbEntity
  8
0
 62
5
100
AcDbSpline
 70
8
 71
3
 72
8
 73
4
 74
0
 40
0
 40
0
 40
0
 40
0
 40
1
 40
1
 40
1
 40
1
 10
44.848527
 20
7.583555
 30
0.0
 10
45.122634
 20
7.583555
 30
0.0
 10
45.348412
 20
7.809333
 30
0.0
 10
45.348412
 20
8.083793
 30
0.0
  0
LWPOLYLINE
  5
12b
100
AcDbEntity
  8
0
 62
5
100
AcDbPolyline
 90
2
 70
0
 10
27.085857
 20
7.583555
 30
0.0
 10
44.848527
 20
7.583555
 30
0.0
  0
SPLINE
  5
12c
100
AcDbEntity
  8
0
 62
5
100
AcDbSpline
 70
8
 71
3
 72
8
 73
4
 74
0
 40
0
 40
0
 40
0
 40
0
 40
1
 40
1
 40
1
 40
1
 10
45.348412
 20
21.083622
 30
0.0
 10
45.348412
 20
21.358082
 30
0.0
 10
45.122634
 20
21.583859
 30
0.0
 10
44.848527
 20
21.583859
 30
0.0
  0
LWPOLYLINE
  5
12d
100
AcDbEntity
  8
0
 62
5
100
AcDbPolyline
 90
2
 70
0
 10
45.348412
 20
8.083793
 30
0.0
 10
45.348412
 20
21.083622
 30
0.0
  0
LWPOLYLINE
  5
12e
100
AcDbEntity
  8
0
 62
5
100
AcDbPolyline
 90
1
 70
1
 10
44.848527
 20
21.583859
 30
0.0
  0
SPLINE
  5
12f
100
AcDbEntity
  8
0
 62
5
100
AcDbSpline
 70
8
 71
3
 72
8
 73
4
 74
0
 40
0
 40
0
 40
0
 40
0
 40
1
 40
1
 40
1
 40
1
 10
48.517054
 20
21.583859
 30
0.0
 10
48.242946
 20
21.583859
 30
0.0
 10
48.017169
 20
21.358082
 30
0.0
 10
48.017169
 20
21.083622
 30
0.0
  0
LWPOLYLINE
  5
130
100
AcDbEntity
  8
0
 62
5
100
AcDbPolyline
 90
2
 70
0
 10
66.279723
 20
21.583859
 30
0.0
 10
48.517054
 20
21.583859
 30
0.0
  0
SPLINE
  5
131
100
AcDbEntity
  8
0
 62
5
100
AcDbSpline
 70
8
 71
3
 72
8
 73
4
 74
0
 40
0
 40
0
 40
0
 40
0
 40
1
 40
1
 40
1
 40
1
 10
48.017169
 20
8.083793
 30
0.0
 10
48.017169
 20
7.809333
 30
0.0
 10
48.242946
 20
7.583555
 30
0.0
 10
48.517054
 20
7.583555
 30
0.0
  0
LWPOLYLINE
  5
132
100
AcDbEntity
  8
0
 62
5
100
AcDbPolyline
 90
2
 70
0
 10
48.017169
 20
21.083622
 30
0.0
 10
48.017169
 20
8.083793
 30
0.0
  0
SPLINE
  5
133
100
AcDbEntity
  8
0
 62
5
100
AcDbSpline
 70
8
 71
3
 72
8
 73
4
 74
0
 40
0
 40
0
 40
0
 40
0
 40
1
 40
1
 40
1
 40
1
 10
66.279723
 20
7.583555
 30
0.0
 10
66.553831
 20
7.583555
 30
0.0
 10
66.779608
 20
7.809333
 30
0.0
 10
66.779608
 20
8.083793
 30
0.0
  0
LWPOLYLINE
  5
134
100
AcDbEntity
  8
0
 62
5
100
AcDbPolyline
 90
2
 70
0
 10
48.517054
 20
7.583555
 30
0.0
 10
66.279723
 20
7.583555
 30
0.0
  0
SPLINE
  5
135
100
AcDbEntity
  8
0
 62
5
100
AcDbSpline
 70
8
 71
3
 72
8
 73
4
 74
0
 40
0
 40
0
 40
0
 40
0
 40
1
 40
1
 40
1
 40
1
 10
66.779608
 20
21.083622
 30
0.0
 10
66.779608
 20
21.358082
 30
0.0
 10
66.553831
 20
21.583859
 30
0.0
 10
66.279723
 20
21.583859
 30
0.0
  0
LWPOLYLINE
  5
136
100
AcDbEntity
  8
0
 62
5
100
AcDbPolyline
 90
2
 70
0
 10
66.779608
 20
8.083793
 30
0.0
 10
66.779608
 20
21.083622
 30
0.0
  0
LWPOLYLINE
  5
137
100
AcDbEntity
  8
0
 62
5
100
AcDbPolyline
 90
1
 70
1
 10
66.279723
 20
21.583859
 30
0.0
  0
SPLINE
  5
138
100
AcDbEntity
  8
0
 62
5
100
AcDbSpline
 70
8
 71
3
 72
8
 73
4
 74
0
 40
0
 40
0
 40
0
 40
0
 40
1
 40
1
 40
1
 40
1
 10
269.185352
 20
21.083622
 30
0.0
 10
269.185352
 20
21.358082
 30
0.0
 10
268.959575
 20
21.583859
 30
0.0
 10
268.685467
 20
21.583859
 30
0.0
  0
LWPOLYLINE
  5
139
100
AcDbEntity
  8
0
 62
5
100
AcDbPolyline
 90
2
 70
0
 10
269.185352
 20
8.083793
 30
0.0
 10
269.185352
 20
21.083622
 30
0.0
  0
SPLINE
  5
13a
100
AcDbEntity
  8
0
 62
5
100
AcDbSpline
 70
8
 71
3
 72
8
 73
4
 74
0
 40
0
 40
0
 40
0
 40
0
 40
1
 40
1
 40
1
 40
1
 10
255.685286
 20
21.583859
 30
0.0
 10
255.411178
 20
21.583859
 30
0.0
 10
255.185401
 20
21.358082
 30
0.0
 10
255.185401
 20
21.083622
 30
0.0
  0
LWPOLYLINE
  5
13b
100
AcDbEntity
  8
0
 62
5
100
AcDbPolyline
 90
2
 70
0
 10
268.685467
 20
21.583859
 30
0.0
 10
255.685286
 20
21.583859
 30
0.0
  0
SPLINE
  5
13c
100
AcDbEntity
  8
0
 62
5
100
AcDbSpline
 70
8
 71
3
 72
8
 73
4
 74
0
 40
0
 40
0
 40
0
 40
0
 40
1
 40
1
 40
1
 40
1
 10
255.185401
 20
8.083793
 30
0.0
 10
255.185401
 20
7.809333
 30
0.0
 10
255.411178
 20
7.583555
 30
0.0
 10
255.685286
 20
7.583555
 30
0.0
  0
LWPOLYLINE
  5
13d
100
AcDbEntity
  8
0
 62
5
100
AcDbPolyline
 90
2
 70
0
 10
255.185401
 20
21.083622
 30
0.0
 10
255.185401
 20
8.083793
 30
0.0
  0
SPLINE
  5
13e
100
AcDbEntity
  8
0
 62
5
100
AcDbSpline
 70
8
 71
3
 72
8
 73
4
 74
0
 40
0
 40
0
 40
0
 40
0
 40
1
 40
1
 40
1
 40
1
 10
268.685467
 20
7.583555
 30
0.0
 10
268.959575
 20
7.583555
 30
0.0
 10
269.185352
 20
7.809333
 30
0.0
 10
269.185352
 20
8.083793
 30
0.0
  0
LWPOLYLINE
  5
13f
100
AcDbEntity
  8
0
 62
5
100
AcDbPolyline
 90
2
 70
0
 10
255.685286
 20
7.583555
 30
0.0
 10
268.685467
 20
7.583555
 30
0.0
  0
LWPOLYLINE
  5
140
100
AcDbEntity
  8
0
 62
5
100
AcDbPolyline
 90
1
 70
1
 10
269.185352
 20
8.083793
 30
0.0
  0
SPLINE
  5
141
100
AcDbEntity
  8
0
 62
5
100
AcDbSpline
 70
8
 71
3
 72
8
 73
4
 74
0
 40
0
 40
0
 40
0
 40
0
 40
1
 40
1
 40
1
 40
1
 10
154.885638
 20
21.083622
 30
0.0
 10
154.885638
 20
21.358082
 30
0.0
 10
154.659861
 20
21.583859
 30
0.0
 10
154.385753
 20
21.583859
 30
0.0
  0
LWPOLYLINE
  5
142
100
AcDbEntity
  8
0
 62
5
100
AcDbPolyline
 90
2
 70
0
 10
154.885638
 20
8.083793
 30
0.0
 10
154.885638
 20
21.083622
 30
0.0
  0
SPLINE
  5
143
100
AcDbEntity
  8
0
 62
5
100
AcDbSpline
 70
8
 71
3
 72
8
 73
4
 74
0
 40
0
 40
0
 40
0
 40
0
 40
1
 40
1
 40
1
 40
1
 10
141.385572
 20
21.583859
 30
0.0
 10
141.111464
 20
21.583859
 30
0.0
 10
140.885687
 20
21.358082
 30
0.0
 10
140.885687
 20
21.083622
 30
0.0
  0
LWPOLYLINE
  5
144
100
AcDbEntity
  8
0
 62
5
100
AcDbPolyline
 90
2
 70
0
 10
154.385753
 20
21.583859
 30
0.0
 10
141.385572
 20
21.583859
 30
0.0
  0
SPLINE
  5
145
100
AcDbEntity
  8
0
 62
5
100
AcDbSpline
 70
8
 71
3
 72
8
 73
4
 74
0
 40
0
 40
0
 40
0
 40
0
 40
1
 40
1
 40
1
 40
1
 10
140.885687
 20
8.083793
 30
0.0
 10
140.885687
 20
7.809333
 30
0.0
 10
141.111464
 20
7.583555
 30
0.0
 10
141.385572
 20
7.583555
 30
0.0
  0
LWPOLYLINE
  5
146
100
AcDbEntity
  8
0
 62
5
100
AcDbPolyline
 90
2
 70
0
 10
140.885687
 20
21.083622
 30
0.0
 10
140.885687
 20
8.083793
 30
0.0
  0
SPLINE
  5
147
100
AcDbEntity
  8
0
 62
5
100
AcDbSpline
 70
8
 71
3
 72
8
 73
4
 74
0
 40
0
 40
0
 40
0
 40
0
 40
1
 40
1
 40
1
 40
1
 10
154.385753
 20
7.583555
 30
0.0
 10
154.659861
 20
7.583555
 30
0.0
 10
154.885638
 20
7.809333
 30
0.0
 10
154.885638
 20
8.083793
 30
0.0
  0
LWPOLYLINE
  5
148
100
AcDbEntity
  8
0
 62
5
100
AcDbPolyline
 90
2
 70
0
 10
141.385572
 20
7.583555
 30
0.0
 10
154.385753
 20
7.583555
 30
0.0
  0
LWPOLYLINE
  5
149
100
AcDbEntity
  8
0
 62
5
100
AcDbPolyline
 90
1
 70
1
 10
154.885638
 20
8.083793
 30
0.0
  0
SPLINE
  5
14a
100
AcDbEntity
  8
0
 62
5
100
AcDbSpline
 70
8
 71
3
 72
8
 73
4
 74
0
 40
0
 40
0
 40
0
 40
0
 40
1
 40
1
 40
1
 40
1
 10
85.329676
 20
7.583555
 30
0.0
 10
85.603783
 20
7.583555
 30
0.0
 10
85.829560
 20
7.809333
 30
0.0
 10
85.829560
 20
8.083793
 30
0.0
  0
LWPOLYLINE
  5
14b
100
AcDbEntity
  8
0
 62
5
100
AcDbPolyline
 90
2
 70
0
 10
69.948250
 20
7.583555
 30
0.0
 10
85.329676
 20
7.583555
 30
0.0
  0
SPLINE
  5
14c
100
AcDbEntity
  8
0
 62
5
100
AcDbSpline
 70
8
 71
3
 72
8
 73
4
 74
0
 40
0
 40
0
 40
0
 40
0
 40
1
 40
1
 40
1
 40
1
 10
85.829560
 20
21.083622
 30
0.0
 10
85.829560
 20
21.358082
 30
0.0
 10
85.603783
 20
21.583859
 30
0.0
 10
85.329676
 20
21.583859
 30
0.0
  0
LWPOLYLINE
  5
14d
100
AcDbEntity
  8
0
 62
5
100
AcDbPolyline
 90
2
 70
0
 10
85.829560
 20
8.083793
 30
0.0
 10
85.829560
 20
21.083622
 30
0.0
  0
SPLINE
  5
14e
100
AcDbEntity
  8
0
 62
5
100
AcDbSpline
 70
8
 71
3
 72
8
 73
4
 74
0
 40
0
 40
0
 40
0
 40
0
 40
1
 40
1
 40
1
 40
1
 10
84.716902
 20
23.083514
 30
0.0
 10
84.716902
 20
23.357974
 30
0.0
 10
84.491478
 20
23.583752
 30
0.0
 10
84.217017
 20
23.583752
 30
0.0
  0
LWPOLYLINE
  5
14f
100
AcDbEntity
  8
0
 62
5
100
AcDbPolyline
 90
3
 70
0
 10
85.329676
 20
21.583859
 30
0.0
 10
84.716902
 20
21.583859
 30
0.0
 10
84.716902
 20
23.083514
 30
0.0
  0
SPLINE
  5
150
100
AcDbEntity
  8
0
 62
5
100
AcDbSpline
 70
8
 71
3
 72
8
 73
4
 74
0
 40
0
 40
0
 40
0
 40
0
 40
1
 40
1
 40
1
 40
1
 10
78.216988
 20
23.583752
 30
0.0
 10
77.942880
 20
23.583752
 30
0.0
 10
77.717103
 20
23.357974
 30
0.0
 10
77.717103
 20
23.083514
 30
0.0
  0
LWPOLYLINE
  5
151
100
AcDbEntity
  8
0
 62
5
100
AcDbPolyline
 90
2
 70
0
 10
84.217017
 20
23.583752
 30
0.0
 10
78.216988
 20
23.583752
 30
0.0
  0
SPLINE
  5
152
100
AcDbEntity
  8
0
 62
5
100
AcDbSpline
 70
8
 71
3
 72
8
 73
4
 74
0
 40
0
 40
0
 40
0
 40
0
 40
1
 40
1
 40
1
 40
1
 10
69.948250
 20
21.583859
 30
0.0
 10
69.674142
 20
21.583859
 30
0.0
 10
69.448365
 20
21.358082
 30
0.0
 10
69.448365
 20
21.083622
 30
0.0
  0
LWPOLYLINE
  5
153
100
AcDbEntity
  8
0
 62
5
100
AcDbPolyline
 90
3
 70
0
 10
77.717103
 20
23.083514
 30
0.0
 10
77.717103
 20
21.583859
 30
0.0
 10
69.948250
 20
21.583859
 30
0.0
  0
SPLINE
  5
154
100
AcDbEntity
  8
0
 62
5
100
AcDbSpline
 70
8
 71
3
 72
8
 73
4
 74
0
 40
0
 40
0
 40
0
 40
0
 40
1
 40
1
 40
1
 40
1
 10
69.448365
 20
8.083793
 30
0.0
 10
69.448365
 20
7.809333
 30
0.0
 10
69.674142
 20
7.583555
 30
0.0
 10
69.948250
 20
7.583555
 30
0.0
  0
LWPOLYLINE
  5
155
100
AcDbEntity
  8
0
 62
5
100
AcDbPolyline
 90
2
 70
0
 10
69.448365
 20
21.083622
 30
0.0
 10
69.448365
 20
8.083793
 30
0.0
  0
LWPOLYLINE
  5
156
100
AcDbEntity
  8
0
 62
5
100
AcDbPolyline
 90
1
 70
1
 10
69.948250
 20
7.583555
 30
0.0
  0
SPLINE
  5
157
100
AcDbEntity
  8
0
 62
5
100
AcDbSpline
 70
8
 71
3
 72
8
 73
4
 74
0
 40
0
 40
0
 40
0
 40
0
 40
1
 40
1
 40
1
 40
1
 10
8.035905
 20
21.583859
 30
0.0
 10
7.761797
 20
21.583859
 30
0.0
 10
7.536020
 20
21.358082
 30
0.0
 10
7.536020
 20
21.083622
 30
0.0
  0
LWPOLYLINE
  5
158
100
AcDbEntity
  8
0
 62
5
100
AcDbPolyline
 90
2
 70
0
 10
23.417330
 20
21.583859
 30
0.0
 10
8.035905
 20
21.583859
 30
0.0
  0
SPLINE
  5
159
100
AcDbEntity
  8
0
 62
5
100
AcDbSpline
 70
8
 71
3
 72
8
 73
4
 74
0
 40
0
 40
0
 40
0
 40
0
 40
1
 40
1
 40
1
 40
1
 10
7.536020
 20
8.083793
 30
0.0
 10
7.536020
 20
7.809333
 30
0.0
 10
7.761797
 20
7.583555
 30
0.0
 10
8.035905
 20
7.583555
 30
0.0
  0
LWPOLYLINE
  5
15a
100
AcDbEntity
  8
0
 62
5
100
AcDbPolyline
 90
2
 70
0
 10
7.536020
 20
21.083622
 30
0.0
 10
7.536020
 20
8.083793
 30
0.0
  0
SPLINE
  5
15b
100
AcDbEntity
  8
0
 62
5
100
AcDbSpline
 70
8
 71
3
 72
8
 73
4
 74
0
 40
0
 40
0
 40
0
 40
0
 40
1
 40
1
 40
1
 40
1
 10
23.417330
 20
7.583555
 30
0.0
 10
23.691438
 20
7.583555
 30
0.0
 10
23.917215
 20
7.809333
 30
0.0
 10
23.917215
 20
8.083793
 30
0.0
  0
LWPOLYLINE
  5
15c
100
AcDbEntity
  8
0
 62
5
100
AcDbPolyline
 90
2
 70
0
 10
8.035905
 20
7.583555
 30
0.0
 10
23.417330
 20
7.583555
 30
0.0
  0
SPLINE
  5
15d
100
AcDbEntity
  8
0
 62
5
100
AcDbSpline
 70
8
 71
3
 72
8
 73
4
 74
0
 40
0
 40
0
 40
0
 40
0
 40
1
 40
1
 40
1
 40
1
 10
23.917215
 20
21.083622
 30
0.0
 10
23.917215
 20
21.358082
 30
0.0
 10
23.691438
 20
21.583859
 30
0.0
 10
23.417330
 20
21.583859
 30
0.0
  0
LWPOLYLINE
  5
15e
100
AcDbEntity
  8
0
 62
5
100
AcDbPolyline
 90
2
 70
0
 10
23.917215
 20
8.083793
 30
0.0
 10
23.917215
 20
21.083622
 30
0.0
  0
SPLINE
  5
15f
100
AcDbEntity
  8
0
 62
5
100
AcDbSpline
 70
8
 71
3
 72
8
 73
4
 74
0
 40
0
 40
0
 40
0
 40
0
 40
1
 40
1
 40
1
 40
1
 10
195.654300
 20
17.157920
 30
0.0
 10
194.388889
 20
17.091598
 30
0.0
 10
193.381358
 20
16.043145
 30
0.0
 10
193.381358
 20
14.761154
 30
0.0
  0
SPLINE
  5
160
100
AcDbEntity
  8
0
 62
5
100
AcDbSpline
 70
8
 71
3
 72
8
 73
4
 74
0
 40
0
 40
0
 40
0
 40
0
 40
1
 40
1
 40
1
 40
1
 10
193.381358
 20
14.761154
 30
0.0
 10
193.381358
 20
13.479163
 30
0.0
 10
194.388889
 20
12.430710
 30
0.0
 10
195.654300
 20
12.364388
 30
0.0
  0
LWPOLYLINE
  5
161
100
AcDbEntity
  8
0
 62
5
100
AcDbPolyline
 90
1
 70
1
 10
23.417330
 20
21.583859
 30
0.0
  0
SPLINE
  5
162
100
AcDbEntity
  8
0
 62
5
100
AcDbSpline
 70
8
 71
3
 72
8
 73
4
 74
0
 40
0
 40
0
 40
0
 40
0
 40
1
 40
1
 40
1
 40
1
 10
195.654300
 20
8.083793
 30
0.0
 10
195.654300
 20
7.809333
 30
0.0
 10
195.880077
 20
7.583555
 30
0.0
 10
196.154185
 20
7.583555
 30
0.0
  0
LWPOLYLINE
  5
163
100
AcDbEntity
  8
0
 62
5
100
AcDbPolyline
 90
2
 70
0
 10
195.654300
 20
12.364388
 30
0.0
 10
195.654300
 20
8.083793
 30
0.0
  0
SPLINE
  5
164
100
AcDbEntity
  8
0
 62
5
100
AcDbSpline
 70
8
 71
3
 72
8
 73
4
 74
0
 40
0
 40
0
 40
0
 40
0
 40
1
 40
1
 40
1
 40
1
 10
209.154366
 20
7.583555
 30
0.0
 10
209.428474
 20
7.583555
 30
0.0
 10
209.654251
 20
7.809333
 30
0.0
 10
209.654251
 20
8.083793
 30
0.0
  0
LWPOLYLINE
  5
165
100
AcDbEntity
  8
0
 62
5
100
AcDbPolyline
 90
2
 70
0
 10
196.154185
 20
7.583555
 30
0.0
 10
209.154366
 20
7.583555
 30
0.0
  0
SPLINE
  5
166
100
AcDbEntity
  8
0
 62
5
100
AcDbSpline
 70
8
 71
3
 72
8
 73
4
 74
0
 40
0
 40
0
 40
0
 40
0
 40
1
 40
1
 40
1
 40
1
 10
209.654251
 20
21.083622
 30
0.0
 10
209.654251
 20
21.358082
 30
0.0
 10
209.428474
 20
21.583859
 30
0.0
 10
209.154366
 20
21.583859
 30
0.0
  0
LWPOLYLINE
  5
167
100
AcDbEntity
  8
0
 62
5
100
AcDbPolyline
 90
2
 70
0
 10
209.654251
 20
8.083793
 30
0.0
 10
209.654251
 20
21.083622
 30
0.0
  0
SPLINE
  5
168
100
AcDbEntity
  8
0
 62
5
100
AcDbSpline
 70
8
 71
3
 72
8
 73
4
 74
0
 40
0
 40
0
 40
0
 40
0
 40
1
 40
1
 40
1
 40
1
 10
196.154185
 20
21.583859
 30
0.0
 10
195.880077
 20
21.583859
 30
0.0
 10
195.654300
 20
21.358082
 30
0.0
 10
195.654300
 20
21.083622
 30
0.0
  0
LWPOLYLINE
  5
169
100
AcDbEntity
  8
0
 62
5
100
AcDbPolyline
 90
2
 70
0
 10
209.154366
 20
21.583859
 30
0.0
 10
196.154185
 20
21.583859
 30
0.0
  0
LWPOLYLINE
  5
16a
100
AcDbEntity
  8
0
 62
5
100
AcDbPolyline
 90
3
 70
0
 10
195.654300
 20
21.083622
 30
0.0
 10
195.654300
 20
17.157920
 30
0.0
 10
195.654300
 20
17.157920
 30
0.0
  0
SPLINE
  5
16b
100
AcDbEntity
  8
0
 62
5
100
AcDbSpline
 70
8
 71
3
 72
8
 73
4
 74
0
 40
0
 40
0
 40
0
 40
0
 40
1
 40
1
 40
1
 40
1
 10
288.235304
 20
21.083622
 30
0.0
 10
288.235304
 20
21.358082
 30
0.0
 10
288.009527
 20
21.583859
 30
0.0
 10
287.735420
 20
21.583859
 30
0.0
  0
LWPOLYLINE
  5
16c
100
AcDbEntity
  8
0
 62
5
100
AcDbPolyline
 90
2
 70
0
 10
288.235304
 20
8.083793
 30
0.0
 10
288.235304
 20
21.083622
 30
0.0
  0
SPLINE
  5
16d
100
AcDbEntity
  8
0
 62
5
100
AcDbSpline
 70
8
 71
3
 72
8
 73
4
 74
0
 40
0
 40
0
 40
0
 40
0
 40
1
 40
1
 40
1
 40
1
 10
274.735238
 20
21.583859
 30
0.0
 10
274.461131
 20
21.583859
 30
0.0
 10
274.235353
 20
21.358082
 30
0.0
 10
274.235353
 20
21.083622
 30
0.0
  0
LWPOLYLINE
  5
16e
100
AcDbEntity
  8
0
 62
5
100
AcDbPolyline
 90
2
 70
0
 10
287.735420
 20
21.583859
 30
0.0
 10
274.735238
 20
21.583859
 30
0.0
  0
SPLINE
  5
16f
100
AcDbEntity
  8
0
 62
5
100
AcDbSpline
 70
8
 71
3
 72
8
 73
4
 74
0
 40
0
 40
0
 40
0
 40
0
 40
1
 40
1
 40
1
 40
1
 10
274.235353
 20
8.083793
 30
0.0
 10
274.235353
 20
7.809333
 30
0.0
 10
274.461131
 20
7.583555
 30
0.0
 10
274.735238
 20
7.583555
 30
0.0
  0
LWPOLYLINE
  5
170
100
AcDbEntity
  8
0
 62
5
100
AcDbPolyline
 90
2
 70
0
 10
274.235353
 20
21.083622
 30
0.0
 10
274.235353
 20
8.083793
 30
0.0
  0
SPLINE
  5
171
100
AcDbEntity
  8
0
 62
5
100
AcDbSpline
 70
8
 71
3
 72
8
 73
4
 74
0
 40
0
 40
0
 40
0
 40
0
 40
1
 40
1
 40
1
 40
1
 10
287.735420
 20
7.583555
 30
0.0
 10
288.009527
 20
7.583555
 30
0.0
 10
288.235304
 20
7.809333
 30
0.0
 10
288.235304
 20
8.083793
 30
0.0
  0
LWPOLYLINE
  5
172
100
AcDbEntity
  8
0
 62
5
100
AcDbPolyline
 90
2
 70
0
 10
274.735238
 20
7.583555
 30
0.0
 10
287.735420
 20
7.583555
 30
0.0
  0
LWPOLYLINE
  5
173
100
AcDbEntity
  8
0
 62
5
100
AcDbPolyline
 90
1
 70
1
 10
288.235304
 20
8.083793
 30
0.0
  0
SPLINE
  5
174
100
AcDbEntity
  8
0
 62
5
100
AcDbSpline
 70
8
 71
3
 72
8
 73
4
 74
0
 40
0
 40
0
 40
0
 40
0
 40
1
 40
1
 40
1
 40
1
 10
231.085447
 20
21.083622
 30
0.0
 10
231.085447
 20
21.358082
 30
0.0
 10
230.859670
 20
21.583859
 30
0.0
 10
230.585562
 20
21.583859
 30
0.0
  0
LWPOLYLINE
  5
175
100
AcDbEntity
  8
0
 62
5
100
AcDbPolyline
 90
2
 70
0
 10
231.085447
 20
8.083793
 30
0.0
 10
231.085447
 20
21.083622
 30
0.0
  0
SPLINE
  5
176
100
AcDbEntity
  8
0
 62
5
100
AcDbSpline
 70
8
 71
3
 72
8
 73
4
 74
0
 40
0
 40
0
 40
0
 40
0
 40
1
 40
1
 40
1
 40
1
 10
217.585381
 20
21.583859
 30
0.0
 10
217.311273
 20
21.583859
 30
0.0
 10
217.085496
 20
21.358082
 30
0.0
 10
217.085496
 20
21.083622
 30
0.0
  0
LWPOLYLINE
  5
177
100
AcDbEntity
  8
0
 62
5
100
AcDbPolyline
 90
2
 70
0
 10
230.585562
 20
21.583859
 30
0.0
 10
217.585381
 20
21.583859
 30
0.0
  0
SPLINE
  5
178
100
AcDbEntity
  8
0
 62
5
100
AcDbSpline
 70
8
 71
3
 72
8
 73
4
 74
0
 40
0
 40
0
 40
0
 40
0
 40
1
 40
1
 40
1
 40
1
 10
217.085496
 20
8.083793
 30
0.0
 10
217.085496
 20
7.809333
 30
0.0
 10
217.311273
 20
7.583555
 30
0.0
 10
217.585381
 20
7.583555
 30
0.0
  0
LWPOLYLINE
  5
179
100
AcDbEntity
  8
0
 62
5
100
AcDbPolyline
 90
2
 70
0
 10
217.085496
 20
21.083622
 30
0.0
 10
217.085496
 20
8.083793
 30
0.0
  0
SPLINE
  5
17a
100
AcDbEntity
  8
0
 62
5
100
AcDbSpline
 70
8
 71
3
 72
8
 73
4
 74
0
 40
0
 40
0
 40
0
 40
0
 40
1
 40
1
 40
1
 40
1
 10
230.585562
 20
7.583555
 30
0.0
 10
230.859670
 20
7.583555
 30
0.0
 10
231.085447
 20
7.809333
 30
0.0
 10
231.085447
 20
8.083793
 30
0.0
  0
LWPOLYLINE
  5
17b
100
AcDbEntity
  8
0
 62
5
100
AcDbPolyline
 90
2
 70
0
 10
217.585381
 20
7.583555
 30
0.0
 10
230.585562
 20
7.583555
 30
0.0
  0
LWPOLYLINE
  5
17c
100
AcDbEntity
  8
0
 62
5
100
AcDbPolyline
 90
1
 70
1
 10
231.085447
 20
8.083793
 30
0.0
  0
SPLINE
  5
17d
100
AcDbEntity
  8
0
 62
5
100
AcDbSpline
 70
8
 71
3
 72
8
 73
4
 74
0
 40
0
 40
0
 40
0
 40
0
 40
1
 40
1
 40
1
 40
1
 10
250.135400
 20
21.083622
 30
0.0
 10
250.135400
 20
21.358082
 30
0.0
 10
249.909622
 20
21.583859
 30
0.0
 10
249.635515
 20
21.583859
 30
0.0
  0
LWPOLYLINE
  5
17e
100
AcDbEntity
  8
0
 62
5
100
AcDbPolyline
 90
2
 70
0
 10
250.135400
 20
8.083793
 30
0.0
 10
250.135400
 20
21.083622
 30
0.0
  0
SPLINE
  5
17f
100
AcDbEntity
  8
0
 62
5
100
AcDbSpline
 70
8
 71
3
 72
8
 73
4
 74
0
 40
0
 40
0
 40
0
 40
0
 40
1
 40
1
 40
1
 40
1
 10
236.635333
 20
21.583859
 30
0.0
 10
236.361226
 20
21.583859
 30
0.0
 10
236.135449
 20
21.358082
 30
0.0
 10
236.135449
 20
21.083622
 30
0.0
  0
LWPOLYLINE
  5
180
100
AcDbEntity
  8
0
 62
5
100
AcDbPolyline
 90
2
 70
0
 10
249.635515
 20
21.583859
 30
0.0
 10
236.635333
 20
21.583859
 30
0.0
  0
SPLINE
  5
181
100
AcDbEntity
  8
0
 62
5
100
AcDbSpline
 70
8
 71
3
 72
8
 73
4
 74
0
 40
0
 40
0
 40
0
 40
0
 40
1
 40
1
 40
1
 40
1
 10
236.135449
 20
8.083793
 30
0.0
 10
236.135449
 20
7.809333
 30
0.0
 10
236.361226
 20
7.583555
 30
0.0
 10
236.635333
 20
7.583555
 30
0.0
  0
LWPOLYLINE
  5
182
100
AcDbEntity
  8
0
 62
5
100
AcDbPolyline
 90
2
 70
0
 10
236.135449
 20
21.083622
 30
0.0
 10
236.135449
 20
8.083793
 30
0.0
  0
SPLINE
  5
183
100
AcDbEntity
  8
0
 62
5
100
AcDbSpline
 70
8
 71
3
 72
8
 73
4
 74
0
 40
0
 40
0
 40
0
 40
0
 40
1
 40
1
 40
1
 40
1
 10
249.635515
 20
7.583555
 30
0.0
 10
249.909622
 20
7.583555
 30
0.0
 10
250.135400
 20
7.809333
 30
0.0
 10
250.135400
 20
8.083793
 30
0.0
  0
LWPOLYLINE
  5
184
100
AcDbEntity
  8
0
 62
5
100
AcDbPolyline
 90
2
 70
0
 10
236.635333
 20
7.583555
 30
0.0
 10
249.635515
 20
7.583555
 30
0.0
  0
LWPOLYLINE
  5
185
100
AcDbEntity
  8
0
 62
5
100
AcDbPolyline
 90
1
 70
1
 10
250.135400
 20
8.083793
 30
0.0
  0
SPLINE
  5
186
100
AcDbEntity
  8
0
 62
5
100
AcDbSpline
 70
8
 71
3
 72
8
 73
4
 74
0
 40
0
 40
0
 40
0
 40
0
 40
1
 40
1
 40
1
 40
1
 10
156.323556
 20
9.083563
 30
0.0
 10
156.323556
 20
8.809455
 30
0.0
 10
156.549334
 20
8.583678
 30
0.0
 10
156.823441
 20
8.583678
 30
0.0
  0
LWPOLYLINE
  5
187
100
AcDbEntity
  8
0
 62
5
100
AcDbPolyline
 90
2
 70
0
 10
156.323556
 20
23.083514
 30
0.0
 10
156.323556
 20
9.083563
 30
0.0
  0
SPLINE
  5
188
100
AcDbEntity
  8
0
 62
5
100
AcDbSpline
 70
8
 71
3
 72
8
 73
4
 74
0
 40
0
 40
0
 40
0
 40
0
 40
1
 40
1
 40
1
 40
1
 10
162.823471
 20
8.583678
 30
0.0
 10
163.097931
 20
8.583678
 30
0.0
 10
163.323708
 20
8.809455
 30
0.0
 10
163.323708
 20
9.083563
 30
0.0
  0
LWPOLYLINE
  5
189
100
AcDbEntity
  8
0
 62
5
100
AcDbPolyline
 90
2
 70
0
 10
156.823441
 20
8.583678
 30
0.0
 10
162.823471
 20
8.583678
 30
0.0
  0
SPLINE
  5
18a
100
AcDbEntity
  8
0
 62
5
100
AcDbSpline
 70
8
 71
3
 72
8
 73
4
 74
0
 40
0
 40
0
 40
0
 40
0
 40
1
 40
1
 40
1
 40
1
 10
163.323708
 20
23.083514
 30
0.0
 10
163.323708
 20
23.357974
 30
0.0
 10
163.097931
 20
23.583752
 30
0.0
 10
162.823471
 20
23.583752
 30
0.0
  0
LWPOLYLINE
  5
18b
100
AcDbEntity
  8
0
 62
5
100
AcDbPolyline
 90
2
 70
0
 10
163.323708
 20
9.083563
 30
0.0
 10
163.323708
 20
23.083514
 30
0.0
  0
SPLINE
  5
18c
100
AcDbEntity
  8
0
 62
5
100
AcDbSpline
 70
8
 71
3
 72
8
 73
4
 74
0
 40
0
 40
0
 40
0
 40
0
 40
1
 40
1
 40
1
 40
1
 10
156.823441
 20
23.583752
 30
0.0
 10
156.549334
 20
23.583752
 30
0.0
 10
156.323556
 20
23.357974
 30
0.0
 10
156.323556
 20
23.083514
 30
0.0
  0
LWPOLYLINE
  5
18d
100
AcDbEntity
  8
0
 62
5
100
AcDbPolyline
 90
2
 70
0
 10
162.823471
 20
23.583752
 30
0.0
 10
156.823441
 20
23.583752
 30
0.0
  0
LWPOLYLINE
  5
18e
100
AcDbEntity
  8
0
 62
5
100
AcDbPolyline
 90
1
 70
1
 10
156.323556
 20
23.083514
 30
0.0
  0
SPLINE
  5
18f
100
AcDbEntity
  8
0
 62
5
100
AcDbSpline
 70
8
 71
3
 72
8
 73
4
 74
0
 40
0
 40
0
 40
0
 40
0
 40
1
 40
1
 40
1
 40
1
 10
17.560881
 20
40.633812
 30
0.0
 10
17.286773
 20
40.633812
 30
0.0
 10
17.060996
 20
40.408034
 30
0.0
 10
17.060996
 20
40.133574
 30
0.0
  0
LWPOLYLINE
  5
190
100
AcDbEntity
  8
0
 62
5
100
AcDbPolyline
 90
2
 70
0
 10
32.942307
 20
40.633812
 30
0.0
 10
17.560881
 20
40.633812
 30
0.0
  0
SPLINE
  5
191
100
AcDbEntity
  8
0
 62
5
100
AcDbSpline
 70
8
 71
3
 72
8
 73
4
 74
0
 40
0
 40
0
 40
0
 40
0
 40
1
 40
1
 40
1
 40
1
 10
17.060996
 20
27.133745
 30
0.0
 10
17.060996
 20
26.859285
 30
0.0
 10
17.286773
 20
26.633508
 30
0.0
 10
17.560881
 20
26.633508
 30
0.0
  0
LWPOLYLINE
  5
192
100
AcDbEntity
  8
0
 62
5
100
AcDbPolyline
 90
2
 70
0
 10
17.060996
 20
40.133574
 30
0.0
 10
17.060996
 20
27.133745
 30
0.0
  0
SPLINE
  5
193
100
AcDbEntity
  8
0
 62
5
100
AcDbSpline
 70
8
 71
3
 72
8
 73
4
 74
0
 40
0
 40
0
 40
0
 40
0
 40
1
 40
1
 40
1
 40
1
 10
32.498866
 20
25.133853
 30
0.0
 10
32.498866
 20
24.859393
 30
0.0
 10
32.724643
 20
24.633616
 30
0.0
 10
32.998751
 20
24.633616
 30
0.0
  0
LWPOLYLINE
  5
194
100
AcDbEntity
  8
0
 62
5
100
AcDbPolyline
 90
3
 70
0
 10
17.560881
 20
26.633508
 30
0.0
 10
32.498866
 20
26.633508
 30
0.0
 10
32.498866
 20
25.133853
 30
0.0
  0
SPLINE
  5
195
100
AcDbEntity
  8
0
 62
5
100
AcDbSpline
 70
8
 71
3
 72
8
 73
4
 74
0
 40
0
 40
0
 40
0
 40
0
 40
1
 40
1
 40
1
 40
1
 10
38.998780
 20
24.633616
 30
0.0
 10
39.273241
 20
24.633616
 30
0.0
 10
39.499018
 20
24.859393
 30
0.0
 10
39.499018
 20
25.133853
 30
0.0
  0
LWPOLYLINE
  5
196
100
AcDbEntity
  8
0
 62
5
100
AcDbPolyline
 90
2
 70
0
 10
32.998751
 20
24.633616
 30
0.0
 10
38.998780
 20
24.633616
 30
0.0
  0
SPLINE
  5
197
100
AcDbEntity
  8
0
 62
5
100
AcDbSpline
 70
8
 71
3
 72
8
 73
4
 74
0
 40
0
 40
0
 40
0
 40
0
 40
1
 40
1
 40
1
 40
1
 10
39.499018
 20
39.133804
 30
0.0
 10
39.499018
 20
39.407912
 30
0.0
 10
39.273241
 20
39.633689
 30
0.0
 10
38.998780
 20
39.633689
 30
0.0
  0
LWPOLYLINE
  5
198
100
AcDbEntity
  8
0
 62
5
100
AcDbPolyline
 90
2
 70
0
 10
39.499018
 20
25.133853
 30
0.0
 10
39.499018
 20
39.133804
 30
0.0
  0
SPLINE
  5
199
100
AcDbEntity
  8
0
 62
5
100
AcDbSpline
 70
8
 71
3
 72
8
 73
4
 74
0
 40
0
 40
0
 40
0
 40
0
 40
1
 40
1
 40
1
 40
1
 10
33.442191
 20
40.133574
 30
0.0
 10
33.442191
 20
40.408034
 30
0.0
 10
33.216414
 20
40.633812
 30
0.0
 10
32.942307
 20
40.633812
 30
0.0
  0
LWPOLYLINE
  5
19a
100
AcDbEntity
  8
0
 62
5
100
AcDbPolyline
 90
3
 70
0
 10
38.998780
 20
39.633689
 30
0.0
 10
33.442191
 20
39.633689
 30
0.0
 10
33.442191
 20
40.133574
 30
0.0
  0
LWPOLYLINE
  5
19b
100
AcDbEntity
  8
0
 62
5
100
AcDbPolyline
 90
1
 70
1
 10
32.942307
 20
40.633812
 30
0.0
  0
SPLINE
  5
19c
100
AcDbEntity
  8
0
 62
5
100
AcDbSpline
 70
8
 71
3
 72
8
 73
4
 74
0
 40
0
 40
0
 40
0
 40
0
 40
1
 40
1
 40
1
 40
1
 10
8.622926
 20
25.133853
 30
0.0
 10
8.622926
 20
24.859393
 30
0.0
 10
8.848703
 20
24.633616
 30
0.0
 10
9.122811
 20
24.633616
 30
0.0
  0
LWPOLYLINE
  5
19d
100
AcDbEntity
  8
0
 62
5
100
AcDbPolyline
 90
5
 70
0
 10
8.622926
 20
38.969058
 30
0.0
 10
6.991333
 20
38.969058
 30
0.0
 10
6.991333
 20
31.391410
 30
0.0
 10
8.622926
 20
31.391410
 30
0.0
 10
8.622926
 20
25.133853
 30
0.0
  0
SPLINE
  5
19e
100
AcDbEntity
  8
0
 62
5
100
AcDbSpline
 70
8
 71
3
 72
8
 73
4
 74
0
 40
0
 40
0
 40
0
 40
0
 40
1
 40
1
 40
1
 40
1
 10
15.122840
 20
24.633616
 30
0.0
 10
15.397300
 20
24.633616
 30
0.0
 10
15.623078
 20
24.859393
 30
0.0
 10
15.623078
 20
25.133853
 30
0.0
  0
LWPOLYLINE
  5
19f
100
AcDbEntity
  8
0
 62
5
100
AcDbPolyline
 90
2
 70
0
 10
9.122811
 20
24.633616
 30
0.0
 10
15.122840
 20
24.633616
 30
0.0
  0
SPLINE
  5
1a0
100
AcDbEntity
  8
0
 62
5
100
AcDbSpline
 70
8
 71
3
 72
8
 73
4
 74
0
 40
0
 40
0
 40
0
 40
0
 40
1
 40
1
 40
1
 40
1
 10
15.623078
 20
39.133804
 30
0.0
 10
15.623078
 20
39.407912
 30
0.0
 10
15.397300
 20
39.633689
 30
0.0
 10
15.122840
 20
39.633689
 30
0.0
  0
LWPOLYLINE
  5
1a1
100
AcDbEntity
  8
0
 62
5
100
AcDbPolyline
 90
2
 70
0
 10
15.623078
 20
25.133853
 30
0.0
 10
15.623078
 20
39.133804
 30
0.0
  0
SPLINE
  5
1a2
100
AcDbEntity
  8
0
 62
5
100
AcDbSpline
 70
8
 71
3
 72
8
 73
4
 74
0
 40
0
 40
0
 40
0
 40
0
 40
1
 40
1
 40
1
 40
1
 10
9.122811
 20
39.633689
 30
0.0
 10
8.848703
 20
39.633689
 30
0.0
 10
8.622926
 20
39.407912
 30
0.0
 10
8.622926
 20
39.133804
 30
0.0
  0
LWPOLYLINE
  5
1a3
100
AcDbEntity
  8
0
 62
5
100
AcDbPolyline
 90
2
 70
0
 10
15.122840
 20
39.633689
 30
0.0
 10
9.122811
 20
39.633689
 30
0.0
  0
LWPOLYLINE
  5
1a4
100
AcDbEntity
  8
0
 62
5
100
AcDbPolyline
 90
3
 70
0
 10
8.622926
 20
39.133804
 30
0.0
 10
8.622926
 20
38.969058
 30
0.0
 10
8.622926
 20
38.969058
 30
0.0
  0
SPLINE
  5
1a5
100
AcDbEntity
  8
0
 62
5
100
AcDbSpline
 70
8
 71
3
 72
8
 73
4
 74
0
 40
0
 40
0
 40
0
 40
0
 40
1
 40
1
 40
1
 40
1
 10
212.035495
 20
40.133574
 30
0.0
 10
212.035495
 20
40.408034
 30
0.0
 10
211.809718
 20
40.633812
 30
0.0
 10
211.535610
 20
40.633812
 30
0.0
  0
LWPOLYLINE
  5
1a6
100
AcDbEntity
  8
0
 62
5
100
AcDbPolyline
 90
2
 70
0
 10
212.035495
 20
27.133745
 30
0.0
 10
212.035495
 20
40.133574
 30
0.0
  0
SPLINE
  5
1a7
100
AcDbEntity
  8
0
 62
5
100
AcDbSpline
 70
8
 71
3
 72
8
 73
4
 74
0
 40
0
 40
0
 40
0
 40
0
 40
1
 40
1
 40
1
 40
1
 10
198.535429
 20
40.633812
 30
0.0
 10
198.261321
 20
40.633812
 30
0.0
 10
198.035544
 20
40.408034
 30
0.0
 10
198.035544
 20
40.133574
 30
0.0
  0
LWPOLYLINE
  5
1a8
100
AcDbEntity
  8
0
 62
5
100
AcDbPolyline
 90
2
 70
0
 10
211.535610
 20
40.633812
 30
0.0
 10
198.535429
 20
40.633812
 30
0.0
  0
SPLINE
  5
1a9
100
AcDbEntity
  8
0
 62
5
100
AcDbSpline
 70
8
 71
3
 72
8
 73
4
 74
0
 40
0
 40
0
 40
0
 40
0
 40
1
 40
1
 40
1
 40
1
 10
198.035544
 20
27.133745
 30
0.0
 10
198.035544
 20
26.859285
 30
0.0
 10
198.261321
 20
26.633508
 30
0.0
 10
198.535429
 20
26.633508
 30
0.0
  0
LWPOLYLINE
  5
1aa
100
AcDbEntity
  8
0
 62
5
100
AcDbPolyline
 90
2
 70
0
 10
198.035544
 20
40.133574
 30
0.0
 10
198.035544
 20
27.133745
 30
0.0
  0
SPLINE
  5
1ab
100
AcDbEntity
  8
0
 62
5
100
AcDbSpline
 70
8
 71
3
 72
8
 73
4
 74
0
 40
0
 40
0
 40
0
 40
0
 40
1
 40
1
 40
1
 40
1
 10
211.535610
 20
26.633508
 30
0.0
 10
211.809718
 20
26.633508
 30
0.0
 10
212.035495
 20
26.859285
 30
0.0
 10
212.035495
 20
27.133745
 30
0.0
  0
LWPOLYLINE
  5
1ac
100
AcDbEntity
  8
0
 62
5
100
AcDbPolyline
 90
2
 70
0
 10
198.535429
 20
26.633508
 30
0.0
 10
211.535610
 20
26.633508
 30
0.0
  0
LWPOLYLINE
  5
1ad
100
AcDbEntity
  8
0
 62
5
100
AcDbPolyline
 90
1
 70
1
 10
212.035495
 20
27.133745
 30
0.0
  0
SPLINE
  5
1ae
100
AcDbEntity
  8
0
 62
5
100
AcDbSpline
 70
8
 71
3
 72
8
 73
4
 74
0
 40
0
 40
0
 40
0
 40
0
 40
1
 40
1
 40
1
 40
1
 10
59.635876
 20
40.133574
 30
0.0
 10
59.635876
 20
40.408034
 30
0.0
 10
59.410099
 20
40.633812
 30
0.0
 10
59.135991
 20
40.633812
 30
0.0
  0
LWPOLYLINE
  5
1af
100
AcDbEntity
  8
0
 62
5
100
AcDbPolyline
 90
2
 70
0
 10
59.635876
 20
27.133745
 30
0.0
 10
59.635876
 20
40.133574
 30
0.0
  0
SPLINE
  5
1b0
100
AcDbEntity
  8
0
 62
5
100
AcDbSpline
 70
8
 71
3
 72
8
 73
4
 74
0
 40
0
 40
0
 40
0
 40
0
 40
1
 40
1
 40
1
 40
1
 10
46.135810
 20
40.633812
 30
0.0
 10
45.861702
 20
40.633812
 30
0.0
 10
45.635925
 20
40.408034
 30
0.0
 10
45.635925
 20
40.133574
 30
0.0
  0
LWPOLYLINE
  5
1b1
100
AcDbEntity
  8
0
 62
5
100
AcDbPolyline
 90
2
 70
0
 10
59.135991
 20
40.633812
 30
0.0
 10
46.135810
 20
40.633812
 30
0.0
  0
SPLINE
  5
1b2
100
AcDbEntity
  8
0
 62
5
100
AcDbSpline
 70
8
 71
3
 72
8
 73
4
 74
0
 40
0
 40
0
 40
0
 40
0
 40
1
 40
1
 40
1
 40
1
 10
45.635925
 20
27.133745
 30
0.0
 10
45.635925
 20
26.859285
 30
0.0
 10
45.861702
 20
26.633508
 30
0.0
 10
46.135810
 20
26.633508
 30
0.0
  0
LWPOLYLINE
  5
1b3
100
AcDbEntity
  8
0
 62
5
100
AcDbPolyline
 90
2
 70
0
 10
45.635925
 20
40.133574
 30
0.0
 10
45.635925
 20
27.133745
 30
0.0
  0
SPLINE
  5
1b4
100
AcDbEntity
  8
0
 62
5
100
AcDbSpline
 70
8
 71
3
 72
8
 73
4
 74
0
 40
0
 40
0
 40
0
 40
0
 40
1
 40
1
 40
1
 40
1
 10
59.135991
 20
26.633508
 30
0.0
 10
59.410099
 20
26.633508
 30
0.0
 10
59.635876
 20
26.859285
 30
0.0
 10
59.635876
 20
27.133745
 30
0.0
  0
LWPOLYLINE
  5
1b5
100
AcDbEntity
  8
0
 62
5
100
AcDbPolyline
 90
2
 70
0
 10
46.135810
 20
26.633508
 30
0.0
 10
59.135991
 20
26.633508
 30
0.0
  0
LWPOLYLINE
  5
1b6
100
AcDbEntity
  8
0
 62
5
100
AcDbPolyline
 90
1
 70
1
 10
59.635876
 20
27.133745
 30
0.0
  0
SPLINE
  5
1b7
100
AcDbEntity
  8
0
 62
5
100
AcDbSpline
 70
8
 71
3
 72
8
 73
4
 74
0
 40
0
 40
0
 40
0
 40
0
 40
1
 40
1
 40
1
 40
1
 10
78.685828
 20
40.133574
 30
0.0
 10
78.685828
 20
40.408034
 30
0.0
 10
78.460051
 20
40.633812
 30
0.0
 10
78.185943
 20
40.633812
 30
0.0
  0
LWPOLYLINE
  5
1b8
100
AcDbEntity
  8
0
 62
5
100
AcDbPolyline
 90
2
 70
0
 10
78.685828
 20
27.133745
 30
0.0
 10
78.685828
 20
40.133574
 30
0.0
  0
SPLINE
  5
1b9
100
AcDbEntity
  8
0
 62
5
100
AcDbSpline
 70
8
 71
3
 72
8
 73
4
 74
0
 40
0
 40
0
 40
0
 40
0
 40
1
 40
1
 40
1
 40
1
 10
65.185762
 20
40.633812
 30
0.0
 10
64.911654
 20
40.633812
 30
0.0
 10
64.685877
 20
40.408034
 30
0.0
 10
64.685877
 20
40.133574
 30
0.0
  0
LWPOLYLINE
  5
1ba
100
AcDbEntity
  8
0
 62
5
100
AcDbPolyline
 90
2
 70
0
 10
78.185943
 20
40.633812
 30
0.0
 10
65.185762
 20
40.633812
 30
0.0
  0
SPLINE
  5
1bb
100
AcDbEntity
  8
0
 62
5
100
AcDbSpline
 70
8
 71
3
 72
8
 73
4
 74
0
 40
0
 40
0
 40
0
 40
0
 40
1
 40
1
 40
1
 40
1
 10
64.685877
 20
27.133745
 30
0.0
 10
64.685877
 20
26.859285
 30
0.0
 10
64.911654
 20
26.633508
 30
0.0
 10
65.185762
 20
26.633508
 30
0.0
  0
LWPOLYLINE
  5
1bc
100
AcDbEntity
  8
0
 62
5
100
AcDbPolyline
 90
2
 70
0
 10
64.685877
 20
40.133574
 30
0.0
 10
64.685877
 20
27.133745
 30
0.0
  0
SPLINE
  5
1bd
100
AcDbEntity
  8
0
 62
5
100
AcDbSpline
 70
8
 71
3
 72
8
 73
4
 74
0
 40
0
 40
0
 40
0
 40
0
 40
1
 40
1
 40
1
 40
1
 10
78.185943
 20
26.633508
 30
0.0
 10
78.460051
 20
26.633508
 30
0.0
 10
78.685828
 20
26.859285
 30
0.0
 10
78.685828
 20
27.133745
 30
0.0
  0
LWPOLYLINE
  5
1be
100
AcDbEntity
  8
0
 62
5
100
AcDbPolyline
 90
2
 70
0
 10
65.185762
 20
26.633508
 30
0.0
 10
78.185943
 20
26.633508
 30
0.0
  0
LWPOLYLINE
  5
1bf
100
AcDbEntity
  8
0
 62
5
100
AcDbPolyline
 90
1
 70
1
 10
78.685828
 20
27.133745
 30
0.0
  0
SPLINE
  5
1c0
100
AcDbEntity
  8
0
 62
5
100
AcDbSpline
 70
8
 71
3
 72
8
 73
4
 74
0
 40
0
 40
0
 40
0
 40
0
 40
1
 40
1
 40
1
 40
1
 10
116.785733
 20
40.133574
 30
0.0
 10
116.785733
 20
40.408034
 30
0.0
 10
116.559956
 20
40.633812
 30
0.0
 10
116.285848
 20
40.633812
 30
0.0
  0
LWPOLYLINE
  5
1c1
100
AcDbEntity
  8
0
 62
5
100
AcDbPolyline
 90
2
 70
0
 10
116.785733
 20
27.133745
 30
0.0
 10
116.785733
 20
40.133574
 30
0.0
  0
SPLINE
  5
1c2
100
AcDbEntity
  8
0
 62
5
100
AcDbSpline
 70
8
 71
3
 72
8
 73
4
 74
0
 40
0
 40
0
 40
0
 40
0
 40
1
 40
1
 40
1
 40
1
 10
103.285667
 20
40.633812
 30
0.0
 10
103.011559
 20
40.633812
 30
0.0
 10
102.785782
 20
40.408034
 30
0.0
 10
102.785782
 20
40.133574
 30
0.0
  0
LWPOLYLINE
  5
1c3
100
AcDbEntity
  8
0
 62
5
100
AcDbPolyline
 90
2
 70
0
 10
116.285848
 20
40.633812
 30
0.0
 10
103.285667
 20
40.633812
 30
0.0
  0
SPLINE
  5
1c4
100
AcDbEntity
  8
0
 62
5
100
AcDbSpline
 70
8
 71
3
 72
8
 73
4
 74
0
 40
0
 40
0
 40
0
 40
0
 40
1
 40
1
 40
1
 40
1
 10
102.785782
 20
27.133745
 30
0.0
 10
102.785782
 20
26.859285
 30
0.0
 10
103.011559
 20
26.633508
 30
0.0
 10
103.285667
 20
26.633508
 30
0.0
  0
LWPOLYLINE
  5
1c5
100
AcDbEntity
  8
0
 62
5
100
AcDbPolyline
 90
2
 70
0
 10
102.785782
 20
40.133574
 30
0.0
 10
102.785782
 20
27.133745
 30
0.0
  0
SPLINE
  5
1c6
100
AcDbEntity
  8
0
 62
5
100
AcDbSpline
 70
8
 71
3
 72
8
 73
4
 74
0
 40
0
 40
0
 40
0
 40
0
 40
1
 40
1
 40
1
 40
1
 10
116.285848
 20
26.633508
 30
0.0
 10
116.559956
 20
26.633508
 30
0.0
 10
116.785733
 20
26.859285
 30
0.0
 10
116.785733
 20
27.133745
 30
0.0
  0
LWPOLYLINE
  5
1c7
100
AcDbEntity
  8
0
 62
5
100
AcDbPolyline
 90
2
 70
0
 10
103.285667
 20
26.633508
 30
0.0
 10
116.285848
 20
26.633508
 30
0.0
  0
LWPOLYLINE
  5
1c8
100
AcDbEntity
  8
0
 62
5
100
AcDbPolyline
 90
1
 70
1
 10
116.785733
 20
27.133745
 30
0.0
  0
SPLINE
  5
1c9
100
AcDbEntity
  8
0
 62
5
100
AcDbSpline
 70
8
 71
3
 72
8
 73
4
 74
0
 40
0
 40
0
 40
0
 40
0
 40
1
 40
1
 40
1
 40
1
 10
135.835685
 20
40.133574
 30
0.0
 10
135.835685
 20
40.408034
 30
0.0
 10
135.609908
 20
40.633812
 30
0.0
 10
135.335801
 20
40.633812
 30
0.0
  0
LWPOLYLINE
  5
1ca
100
AcDbEntity
  8
0
 62
5
100
AcDbPolyline
 90
2
 70
0
 10
135.835685
 20
27.133745
 30
0.0
 10
135.835685
 20
40.133574
 30
0.0
  0
SPLINE
  5
1cb
100
AcDbEntity
  8
0
 62
5
100
AcDbSpline
 70
8
 71
3
 72
8
 73
4
 74
0
 40
0
 40
0
 40
0
 40
0
 40
1
 40
1
 40
1
 40
1
 10
122.335619
 20
40.633812
 30
0.0
 10
122.061512
 20
40.633812
 30
0.0
 10
121.835734
 20
40.408034
 30
0.0
 10
121.835734
 20
40.133574
 30
0.0
  0
LWPOLYLINE
  5
1cc
100
AcDbEntity
  8
0
 62
5
100
AcDbPolyline
 90
2
 70
0
 10
135.335801
 20
40.633812
 30
0.0
 10
122.335619
 20
40.633812
 30
0.0
  0
SPLINE
  5
1cd
100
AcDbEntity
  8
0
 62
5
100
AcDbSpline
 70
8
 71
3
 72
8
 73
4
 74
0
 40
0
 40
0
 40
0
 40
0
 40
1
 40
1
 40
1
 40
1
 10
121.835734
 20
27.133745
 30
0.0
 10
121.835734
 20
26.859285
 30
0.0
 10
122.061512
 20
26.633508
 30
0.0
 10
122.335619
 20
26.633508
 30
0.0
  0
LWPOLYLINE
  5
1ce
100
AcDbEntity
  8
0
 62
5
100
AcDbPolyline
 90
2
 70
0
 10
121.835734
 20
40.133574
 30
0.0
 10
121.835734
 20
27.133745
 30
0.0
  0
SPLINE
  5
1cf
100
AcDbEntity
  8
0
 62
5
100
AcDbSpline
 70
8
 71
3
 72
8
 73
4
 74
0
 40
0
 40
0
 40
0
 40
0
 40
1
 40
1
 40
1
 40
1
 10
135.335801
 20
26.633508
 30
0.0
 10
135.609908
 20
26.633508
 30
0.0
 10
135.835685
 20
26.859285
 30
0.0
 10
135.835685
 20
27.133745
 30
0.0
  0
LWPOLYLINE
  5
1d0
100
AcDbEntity
  8
0
 62
5
100
AcDbPolyline
 90
2
 70
0
 10
122.335619
 20
26.633508
 30
0.0
 10
135.335801
 20
26.633508
 30
0.0
  0
LWPOLYLINE
  5
1d1
100
AcDbEntity
  8
0
 62
5
100
AcDbPolyline
 90
1
 70
1
 10
135.835685
 20
27.133745
 30
0.0
  0
SPLINE
  5
1d2
100
AcDbEntity
  8
0
 62
5
100
AcDbSpline
 70
8
 71
3
 72
8
 73
4
 74
0
 40
0
 40
0
 40
0
 40
0
 40
1
 40
1
 40
1
 40
1
 10
154.885638
 20
40.133574
 30
0.0
 10
154.885638
 20
40.408034
 30
0.0
 10
154.659861
 20
40.633812
 30
0.0
 10
154.385753
 20
40.633812
 30
0.0
  0
LWPOLYLINE
  5
1d3
100
AcDbEntity
  8
0
 62
5
100
AcDbPolyline
 90
2
 70
0
 10
154.885638
 20
27.133745
 30
0.0
 10
154.885638
 20
40.133574
 30
0.0
  0
SPLINE
  5
1d4
100
AcDbEntity
  8
0
 62
5
100
AcDbSpline
 70
8
 71
3
 72
8
 73
4
 74
0
 40
0
 40
0
 40
0
 40
0
 40
1
 40
1
 40
1
 40
1
 10
141.385572
 20
40.633812
 30
0.0
 10
141.111464
 20
40.633812
 30
0.0
 10
140.885687
 20
40.408034
 30
0.0
 10
140.885687
 20
40.133574
 30
0.0
  0
LWPOLYLINE
  5
1d5
100
AcDbEntity
  8
0
 62
5
100
AcDbPolyline
 90
2
 70
0
 10
154.385753
 20
40.633812
 30
0.0
 10
141.385572
 20
40.633812
 30
0.0
  0
SPLINE
  5
1d6
100
AcDbEntity
  8
0
 62
5
100
AcDbSpline
 70
8
 71
3
 72
8
 73
4
 74
0
 40
0
 40
0
 40
0
 40
0
 40
1
 40
1
 40
1
 40
1
 10
140.885687
 20
27.133745
 30
0.0
 10
140.885687
 20
26.859285
 30
0.0
 10
141.111464
 20
26.633508
 30
0.0
 10
141.385572
 20
26.633508
 30
0.0
  0
LWPOLYLINE
  5
1d7
100
AcDbEntity
  8
0
 62
5
100
AcDbPolyline
 90
2
 70
0
 10
140.885687
 20
40.133574
 30
0.0
 10
140.885687
 20
27.133745
 30
0.0
  0
SPLINE
  5
1d8
100
AcDbEntity
  8
0
 62
5
100
AcDbSpline
 70
8
 71
3
 72
8
 73
4
 74
0
 40
0
 40
0
 40
0
 40
0
 40
1
 40
1
 40
1
 40
1
 10
154.385753
 20
26.633508
 30
0.0
 10
154.659861
 20
26.633508
 30
0.0
 10
154.885638
 20
26.859285
 30
0.0
 10
154.885638
 20
27.133745
 30
0.0
  0
LWPOLYLINE
  5
1d9
100
AcDbEntity
  8
0
 62
5
100
AcDbPolyline
 90
2
 70
0
 10
141.385572
 20
26.633508
 30
0.0
 10
154.385753
 20
26.633508
 30
0.0
  0
LWPOLYLINE
  5
1da
100
AcDbEntity
  8
0
 62
5
100
AcDbPolyline
 90
1
 70
1
 10
154.885638
 20
27.133745
 30
0.0
  0
SPLINE
  5
1db
100
AcDbEntity
  8
0
 62
5
100
AcDbSpline
 70
8
 71
3
 72
8
 73
4
 74
0
 40
0
 40
0
 40
0
 40
0
 40
1
 40
1
 40
1
 40
1
 10
173.935590
 20
40.133574
 30
0.0
 10
173.935590
 20
40.408034
 30
0.0
 10
173.709813
 20
40.633812
 30
0.0
 10
173.435705
 20
40.633812
 30
0.0
  0
LWPOLYLINE
  5
1dc
100
AcDbEntity
  8
0
 62
5
100
AcDbPolyline
 90
2
 70
0
 10
173.935590
 20
27.133745
 30
0.0
 10
173.935590
 20
40.133574
 30
0.0
  0
SPLINE
  5
1dd
100
AcDbEntity
  8
0
 62
5
100
AcDbSpline
 70
8
 71
3
 72
8
 73
4
 74
0
 40
0
 40
0
 40
0
 40
0
 40
1
 40
1
 40
1
 40
1
 10
160.435524
 20
40.633812
 30
0.0
 10
160.161416
 20
40.633812
 30
0.0
 10
159.935639
 20
40.408034
 30
0.0
 10
159.935639
 20
40.133574
 30
0.0
  0
LWPOLYLINE
  5
1de
100
AcDbEntity
  8
0
 62
5
100
AcDbPolyline
 90
2
 70
0
 10
173.435705
 20
40.633812
 30
0.0
 10
160.435524
 20
40.633812
 30
0.0
  0
SPLINE
  5
1df
100
AcDbEntity
  8
0
 62
5
100
AcDbSpline
 70
8
 71
3
 72
8
 73
4
 74
0
 40
0
 40
0
 40
0
 40
0
 40
1
 40
1
 40
1
 40
1
 10
159.935639
 20
27.133745
 30
0.0
 10
159.935639
 20
26.859285
 30
0.0
 10
160.161416
 20
26.633508
 30
0.0
 10
160.435524
 20
26.633508
 30
0.0
  0
LWPOLYLINE
  5
1e0
100
AcDbEntity
  8
0
 62
5
100
AcDbPolyline
 90
2
 70
0
 10
159.935639
 20
40.133574
 30
0.0
 10
159.935639
 20
27.133745
 30
0.0
  0
SPLINE
  5
1e1
100
AcDbEntity
  8
0
 62
5
100
AcDbSpline
 70
8
 71
3
 72
8
 73
4
 74
0
 40
0
 40
0
 40
0
 40
0
 40
1
 40
1
 40
1
 40
1
 10
173.435705
 20
26.633508
 30
0.0
 10
173.709813
 20
26.633508
 30
0.0
 10
173.935590
 20
26.859285
 30
0.0
 10
173.935590
 20
27.133745
 30
0.0
  0
LWPOLYLINE
  5
1e2
100
AcDbEntity
  8
0
 62
5
100
AcDbPolyline
 90
2
 70
0
 10
160.435524
 20
26.633508
 30
0.0
 10
173.435705
 20
26.633508
 30
0.0
  0
LWPOLYLINE
  5
1e3
100
AcDbEntity
  8
0
 62
5
100
AcDbPolyline
 90
1
 70
1
 10
173.935590
 20
27.133745
 30
0.0
  0
SPLINE
  5
1e4
100
AcDbEntity
  8
0
 62
5
100
AcDbSpline
 70
8
 71
3
 72
8
 73
4
 74
0
 40
0
 40
0
 40
0
 40
0
 40
1
 40
1
 40
1
 40
1
 10
192.985543
 20
40.133574
 30
0.0
 10
192.985543
 20
40.408034
 30
0.0
 10
192.759765
 20
40.633812
 30
0.0
 10
192.485658
 20
40.633812
 30
0.0
  0
LWPOLYLINE
  5
1e5
100
AcDbEntity
  8
0
 62
5
100
AcDbPolyline
 90
2
 70
0
 10
192.985543
 20
27.133745
 30
0.0
 10
192.985543
 20
40.133574
 30
0.0
  0
SPLINE
  5
1e6
100
AcDbEntity
  8
0
 62
5
100
AcDbSpline
 70
8
 71
3
 72
8
 73
4
 74
0
 40
0
 40
0
 40
0
 40
0
 40
1
 40
1
 40
1
 40
1
 10
179.485476
 20
40.633812
 30
0.0
 10
179.211369
 20
40.633812
 30
0.0
 10
178.985591
 20
40.408034
 30
0.0
 10
178.985591
 20
40.133574
 30
0.0
  0
LWPOLYLINE
  5
1e7
100
AcDbEntity
  8
0
 62
5
100
AcDbPolyline
 90
2
 70
0
 10
192.485658
 20
40.633812
 30
0.0
 10
179.485476
 20
40.633812
 30
0.0
  0
SPLINE
  5
1e8
100
AcDbEntity
  8
0
 62
5
100
AcDbSpline
 70
8
 71
3
 72
8
 73
4
 74
0
 40
0
 40
0
 40
0
 40
0
 40
1
 40
1
 40
1
 40
1
 10
178.985591
 20
27.133745
 30
0.0
 10
178.985591
 20
26.859285
 30
0.0
 10
179.211369
 20
26.633508
 30
0.0
 10
179.485476
 20
26.633508
 30
0.0
  0
LWPOLYLINE
  5
1e9
100
AcDbEntity
  8
0
 62
5
100
AcDbPolyline
 90
2
 70
0
 10
178.985591
 20
40.133574
 30
0.0
 10
178.985591
 20
27.133745
 30
0.0
  0
SPLINE
  5
1ea
100
AcDbEntity
  8
0
 62
5
100
AcDbSpline
 70
8
 71
3
 72
8
 73
4
 74
0
 40
0
 40
0
 40
0
 40
0
 40
1
 40
1
 40
1
 40
1
 10
192.485658
 20
26.633508
 30
0.0
 10
192.759765
 20
26.633508
 30
0.0
 10
192.985543
 20
26.859285
 30
0.0
 10
192.985543
 20
27.133745
 30
0.0
  0
LWPOLYLINE
  5
1eb
100
AcDbEntity
  8
0
 62
5
100
AcDbPolyline
 90
2
 70
0
 10
179.485476
 20
26.633508
 30
0.0
 10
192.485658
 20
26.633508
 30
0.0
  0
LWPOLYLINE
  5
1ec
100
AcDbEntity
  8
0
 62
5
100
AcDbPolyline
 90
1
 70
1
 10
192.985543
 20
27.133745
 30
0.0
  0
SPLINE
  5
1ed
100
AcDbEntity
  8
0
 62
5
100
AcDbSpline
 70
8
 71
3
 72
8
 73
4
 74
0
 40
0
 40
0
 40
0
 40
0
 40
1
 40
1
 40
1
 40
1
 10
231.085447
 20
40.133574
 30
0.0
 10
231.085447
 20
40.408034
 30
0.0
 10
230.859670
 20
40.633812
 30
0.0
 10
230.585562
 20
40.633812
 30
0.0
  0
LWPOLYLINE
  5
1ee
100
AcDbEntity
  8
0
 62
5
100
AcDbPolyline
 90
2
 70
0
 10
231.085447
 20
27.133745
 30
0.0
 10
231.085447
 20
40.133574
 30
0.0
  0
SPLINE
  5
1ef
100
AcDbEntity
  8
0
 62
5
100
AcDbSpline
 70
8
 71
3
 72
8
 73
4
 74
0
 40
0
 40
0
 40
0
 40
0
 40
1
 40
1
 40
1
 40
1
 10
217.585381
 20
40.633812
 30
0.0
 10
217.311273
 20
40.633812
 30
0.0
 10
217.085496
 20
40.408034
 30
0.0
 10
217.085496
 20
40.133574
 30
0.0
  0
LWPOLYLINE
  5
1f0
100
AcDbEntity
  8
0
 62
5
100
AcDbPolyline
 90
2
 70
0
 10
230.585562
 20
40.633812
 30
0.0
 10
217.585381
 20
40.633812
 30
0.0
  0
SPLINE
  5
1f1
100
AcDbEntity
  8
0
 62
5
100
AcDbSpline
 70
8
 71
3
 72
8
 73
4
 74
0
 40
0
 40
0
 40
0
 40
0
 40
1
 40
1
 40
1
 40
1
 10
217.085496
 20
27.133745
 30
0.0
 10
217.085496
 20
26.859285
 30
0.0
 10
217.311273
 20
26.633508
 30
0.0
 10
217.585381
 20
26.633508
 30
0.0
  0
LWPOLYLINE
  5
1f2
100
AcDbEntity
  8
0
 62
5
100
AcDbPolyline
 90
2
 70
0
 10
217.085496
 20
40.133574
 30
0.0
 10
217.085496
 20
27.133745
 30
0.0
  0
SPLINE
  5
1f3
100
AcDbEntity
  8
0
 62
5
100
AcDbSpline
 70
8
 71
3
 72
8
 73
4
 74
0
 40
0
 40
0
 40
0
 40
0
 40
1
 40
1
 40
1
 40
1
 10
230.585562
 20
26.633508
 30
0.0
 10
230.859670
 20
26.633508
 30
0.0
 10
231.085447
 20
26.859285
 30
0.0
 10
231.085447
 20
27.133745
 30
0.0
  0
LWPOLYLINE
  5
1f4
100
AcDbEntity
  8
0
 62
5
100
AcDbPolyline
 90
2
 70
0
 10
217.585381
 20
26.633508
 30
0.0
 10
230.585562
 20
26.633508
 30
0.0
  0
LWPOLYLINE
  5
1f5
100
AcDbEntity
  8
0
 62
5
100
AcDbPolyline
 90
1
 70
1
 10
231.085447
 20
27.133745
 30
0.0
  0
SPLINE
  5
1f6
100
AcDbEntity
  8
0
 62
5
100
AcDbSpline
 70
8
 71
3
 72
8
 73
4
 74
0
 40
0
 40
0
 40
0
 40
0
 40
1
 40
1
 40
1
 40
1
 10
97.735781
 20
40.133574
 30
0.0
 10
97.735781
 20
40.408034
 30
0.0
 10
97.510003
 20
40.633812
 30
0.0
 10
97.235896
 20
40.633812
 30
0.0
  0
LWPOLYLINE
  5
1f7
100
AcDbEntity
  8
0
 62
5
100
AcDbPolyline
 90
2
 70
0
 10
97.735781
 20
27.133745
 30
0.0
 10
97.735781
 20
40.133574
 30
0.0
  0
SPLINE
  5
1f8
100
AcDbEntity
  8
0
 62
5
100
AcDbSpline
 70
8
 71
3
 72
8
 73
4
 74
0
 40
0
 40
0
 40
0
 40
0
 40
1
 40
1
 40
1
 40
1
 10
84.235714
 20
40.633812
 30
0.0
 10
83.961607
 20
40.633812
 30
0.0
 10
83.735830
 20
40.408034
 30
0.0
 10
83.735830
 20
40.133574
 30
0.0
  0
LWPOLYLINE
  5
1f9
100
AcDbEntity
  8
0
 62
5
100
AcDbPolyline
 90
2
 70
0
 10
97.235896
 20
40.633812
 30
0.0
 10
84.235714
 20
40.633812
 30
0.0
  0
SPLINE
  5
1fa
100
AcDbEntity
  8
0
 62
5
100
AcDbSpline
 70
8
 71
3
 72
8
 73
4
 74
0
 40
0
 40
0
 40
0
 40
0
 40
1
 40
1
 40
1
 40
1
 10
83.735830
 20
27.133745
 30
0.0
 10
83.735830
 20
26.859285
 30
0.0
 10
83.961607
 20
26.633508
 30
0.0
 10
84.235714
 20
26.633508
 30
0.0
  0
LWPOLYLINE
  5
1fb
100
AcDbEntity
  8
0
 62
5
100
AcDbPolyline
 90
2
 70
0
 10
83.735830
 20
40.133574
 30
0.0
 10
83.735830
 20
27.133745
 30
0.0
  0
SPLINE
  5
1fc
100
AcDbEntity
  8
0
 62
5
100
AcDbSpline
 70
8
 71
3
 72
8
 73
4
 74
0
 40
0
 40
0
 40
0
 40
0
 40
1
 40
1
 40
1
 40
1
 10
97.235896
 20
26.633508
 30
0.0
 10
97.510003
 20
26.633508
 30
0.0
 10
97.735781
 20
26.859285
 30
0.0
 10
97.735781
 20
27.133745
 30
0.0
  0
LWPOLYLINE
  5
1fd
100
AcDbEntity
  8
0
 62
5
100
AcDbPolyline
 90
2
 70
0
 10
84.235714
 20
26.633508
 30
0.0
 10
97.235896
 20
26.633508
 30
0.0
  0
LWPOLYLINE
  5
1fe
100
AcDbEntity
  8
0
 62
5
100
AcDbPolyline
 90
1
 70
1
 10
97.735781
 20
27.133745
 30
0.0
  0
SPLINE
  5
1ff
100
AcDbEntity
  8
0
 62
5
100
AcDbSpline
 70
8
 71
3
 72
8
 73
4
 74
0
 40
0
 40
0
 40
0
 40
0
 40
1
 40
1
 40
1
 40
1
 10
236.635333
 20
40.633812
 30
0.0
 10
236.361226
 20
40.633812
 30
0.0
 10
236.135449
 20
40.408034
 30
0.0
 10
236.135449
 20
40.133574
 30
0.0
  0
LWPOLYLINE
  5
200
100
AcDbEntity
  8
0
 62
5
100
AcDbPolyline
 90
2
 70
0
 10
268.685467
 20
40.633812
 30
0.0
 10
236.635333
 20
40.633812
 30
0.0
  0
SPLINE
  5
201
100
AcDbEntity
  8
0
 62
5
100
AcDbSpline
 70
8
 71
3
 72
8
 73
4
 74
0
 40
0
 40
0
 40
0
 40
0
 40
1
 40
1
 40
1
 40
1
 10
236.135449
 20
27.133745
 30
0.0
 10
236.135449
 20
26.859285
 30
0.0
 10
236.361226
 20
26.633508
 30
0.0
 10
236.635333
 20
26.633508
 30
0.0
  0
LWPOLYLINE
  5
202
100
AcDbEntity
  8
0
 62
5
100
AcDbPolyline
 90
2
 70
0
 10
236.135449
 20
40.133574
 30
0.0
 10
236.135449
 20
27.133745
 30
0.0
  0
SPLINE
  5
203
100
AcDbEntity
  8
0
 62
5
100
AcDbSpline
 70
8
 71
3
 72
8
 73
4
 74
0
 40
0
 40
0
 40
0
 40
0
 40
1
 40
1
 40
1
 40
1
 10
268.685467
 20
26.633508
 30
0.0
 10
268.959575
 20
26.633508
 30
0.0
 10
269.185352
 20
26.859285
 30
0.0
 10
269.185352
 20
27.133745
 30
0.0
  0
LWPOLYLINE
  5
204
100
AcDbEntity
  8
0
 62
5
100
AcDbPolyline
 90
2
 70
0
 10
236.635333
 20
26.633508
 30
0.0
 10
268.685467
 20
26.633508
 30
0.0
  0
SPLINE
  5
205
100
AcDbEntity
  8
0
 62
5
100
AcDbSpline
 70
8
 71
3
 72
8
 73
4
 74
0
 40
0
 40
0
 40
0
 40
0
 40
1
 40
1
 40
1
 40
1
 10
269.185352
 20
40.133574
 30
0.0
 10
269.185352
 20
40.408034
 30
0.0
 10
268.959575
 20
40.633812
 30
0.0
 10
268.685467
 20
40.633812
 30
0.0
  0
LWPOLYLINE
  5
206
100
AcDbEntity
  8
0
 62
5
100
AcDbPolyline
 90
2
 70
0
 10
269.185352
 20
27.133745
 30
0.0
 10
269.185352
 20
40.133574
 30
0.0
  0
LWPOLYLINE
  5
207
100
AcDbEntity
  8
0
 62
5
100
AcDbPolyline
 90
1
 70
1
 10
268.685467
 20
40.633812
 30
0.0
  0
SPLINE
  5
208
100
AcDbEntity
  8
0
 62
5
100
AcDbSpline
 70
8
 71
3
 72
8
 73
4
 74
0
 40
0
 40
0
 40
0
 40
0
 40
1
 40
1
 40
1
 40
1
 10
107.260757
 20
59.183526
 30
0.0
 10
107.260757
 20
59.457987
 30
0.0
 10
107.034980
 20
59.683764
 30
0.0
 10
106.760872
 20
59.683764
 30
0.0
  0
LWPOLYLINE
  5
209
100
AcDbEntity
  8
0
 62
5
100
AcDbPolyline
 90
2
 70
0
 10
107.260757
 20
46.183698
 30
0.0
 10
107.260757
 20
59.183526
 30
0.0
  0
SPLINE
  5
20a
100
AcDbEntity
  8
0
 62
5
100
AcDbSpline
 70
8
 71
3
 72
8
 73
4
 74
0
 40
0
 40
0
 40
0
 40
0
 40
1
 40
1
 40
1
 40
1
 10
93.760691
 20
59.683764
 30
0.0
 10
93.486583
 20
59.683764
 30
0.0
 10
93.260806
 20
59.457987
 30
0.0
 10
93.260806
 20
59.183526
 30
0.0
  0
LWPOLYLINE
  5
20b
100
AcDbEntity
  8
0
 62
5
100
AcDbPolyline
 90
2
 70
0
 10
106.760872
 20
59.683764
 30
0.0
 10
93.760691
 20
59.683764
 30
0.0
  0
SPLINE
  5
20c
100
AcDbEntity
  8
0
 62
5
100
AcDbSpline
 70
8
 71
3
 72
8
 73
4
 74
0
 40
0
 40
0
 40
0
 40
0
 40
1
 40
1
 40
1
 40
1
 10
93.260806
 20
46.183698
 30
0.0
 10
93.260806
 20
45.909237
 30
0.0
 10
93.486583
 20
45.683460
 30
0.0
 10
93.760691
 20
45.683460
 30
0.0
  0
LWPOLYLINE
  5
20d
100
AcDbEntity
  8
0
 62
5
100
AcDbPolyline
 90
2
 70
0
 10
93.260806
 20
59.183526
 30
0.0
 10
93.260806
 20
46.183698
 30
0.0
  0
SPLINE
  5
20e
100
AcDbEntity
  8
0
 62
5
100
AcDbSpline
 70
8
 71
3
 72
8
 73
4
 74
0
 40
0
 40
0
 40
0
 40
0
 40
1
 40
1
 40
1
 40
1
 10
106.760872
 20
45.683460
 30
0.0
 10
107.034980
 20
45.683460
 30
0.0
 10
107.260757
 20
45.909237
 30
0.0
 10
107.260757
 20
46.183698
 30
0.0
  0
LWPOLYLINE
  5
20f
100
AcDbEntity
  8
0
 62
5
100
AcDbPolyline
 90
2
 70
0
 10
93.760691
 20
45.683460
 30
0.0
 10
106.760872
 20
45.683460
 30
0.0
  0
LWPOLYLINE
  5
210
100
AcDbEntity
  8
0
 62
5
100
AcDbPolyline
 90
1
 70
1
 10
107.260757
 20
46.183698
 30
0.0
  0
SPLINE
  5
211
100
AcDbEntity
  8
0
 62
5
100
AcDbSpline
 70
8
 71
3
 72
8
 73
4
 74
0
 40
0
 40
0
 40
0
 40
0
 40
1
 40
1
 40
1
 40
1
 10
244.873027
 20
64.733413
 30
0.0
 10
245.147134
 20
64.733413
 30
0.0
 10
245.372912
 20
64.959190
 30
0.0
 10
245.372912
 20
65.233650
 30
0.0
  0
LWPOLYLINE
  5
212
100
AcDbEntity
  8
0
 62
5
100
AcDbPolyline
 90
3
 70
0
 10
242.991668
 20
59.683764
 30
0.0
 10
242.991668
 20
64.733413
 30
0.0
 10
244.873027
 20
64.733413
 30
0.0
  0
SPLINE
  5
213
100
AcDbEntity
  8
0
 62
5
100
AcDbSpline
 70
8
 71
3
 72
8
 73
4
 74
0
 40
0
 40
0
 40
0
 40
0
 40
1
 40
1
 40
1
 40
1
 10
245.372912
 20
78.233479
 30
0.0
 10
245.372912
 20
78.507939
 30
0.0
 10
245.147134
 20
78.733716
 30
0.0
 10
244.873027
 20
78.733716
 30
0.0
  0
LWPOLYLINE
  5
214
100
AcDbEntity
  8
0
 62
5
100
AcDbPolyline
 90
2
 70
0
 10
245.372912
 20
65.233650
 30
0.0
 10
245.372912
 20
78.233479
 30
0.0
  0
SPLINE
  5
215
100
AcDbEntity
  8
0
 62
5
100
AcDbSpline
 70
8
 71
3
 72
8
 73
4
 74
0
 40
0
 40
0
 40
0
 40
0
 40
1
 40
1
 40
1
 40
1
 10
231.872845
 20
78.733716
 30
0.0
 10
231.598738
 20
78.733716
 30
0.0
 10
231.372960
 20
78.507939
 30
0.0
 10
231.372960
 20
78.233479
 30
0.0
  0
LWPOLYLINE
  5
216
100
AcDbEntity
  8
0
 62
5
100
AcDbPolyline
 90
2
 70
0
 10
244.873027
 20
78.733716
 30
0.0
 10
231.872845
 20
78.733716
 30
0.0
  0
SPLINE
  5
217
100
AcDbEntity
  8
0
 62
5
100
AcDbSpline
 70
8
 71
3
 72
8
 73
4
 74
0
 40
0
 40
0
 40
0
 40
0
 40
1
 40
1
 40
1
 40
1
 10
230.491724
 20
77.646458
 30
0.0
 10
230.217263
 20
77.646458
 30
0.0
 10
229.991839
 20
77.420681
 30
0.0
 10
229.991839
 20
77.146573
 30
0.0
  0
LWPOLYLINE
  5
218
100
AcDbEntity
  8
0
 62
5
100
AcDbPolyline
 90
3
 70
0
 10
231.372960
 20
78.233479
 30
0.0
 10
231.372960
 20
77.646458
 30
0.0
 10
230.491724
 20
77.646458
 30
0.0
  0
SPLINE
  5
219
100
AcDbEntity
  8
0
 62
5
100
AcDbSpline
 70
8
 71
3
 72
8
 73
4
 74
0
 40
0
 40
0
 40
0
 40
0
 40
1
 40
1
 40
1
 40
1
 10
229.991839
 20
71.146544
 30
0.0
 10
229.991839
 20
70.872436
 30
0.0
 10
230.217263
 20
70.646659
 30
0.0
 10
230.491724
 20
70.646659
 30
0.0
  0
LWPOLYLINE
  5
21a
100
AcDbEntity
  8
0
 62
5
100
AcDbPolyline
 90
2
 70
0
 10
229.991839
 20
77.146573
 30
0.0
 10
229.991839
 20
71.146544
 30
0.0
  0
SPLINE
  5
21b
100
AcDbEntity
  8
0
 62
5
100
AcDbSpline
 70
8
 71
3
 72
8
 73
4
 74
0
 40
0
 40
0
 40
0
 40
0
 40
1
 40
1
 40
1
 40
1
 10
229.491601
 20
69.208740
 30
0.0
 10
229.217494
 20
69.208740
 30
0.0
 10
228.991716
 20
68.982963
 30
0.0
 10
228.991716
 20
68.708503
 30
0.0
  0
LWPOLYLINE
  5
21c
100
AcDbEntity
  8
0
 62
5
100
AcDbPolyline
 90
4
 70
0
 10
230.491724
 20
70.646659
 30
0.0
 10
231.372960
 20
70.646659
 30
0.0
 10
231.372960
 20
69.208740
 30
0.0
 10
229.491601
 20
69.208740
 30
0.0
  0
SPLINE
  5
21d
100
AcDbEntity
  8
0
 62
5
100
AcDbSpline
 70
8
 71
3
 72
8
 73
4
 74
0
 40
0
 40
0
 40
0
 40
0
 40
1
 40
1
 40
1
 40
1
 10
228.991716
 20
55.708674
 30
0.0
 10
228.991716
 20
55.434214
 30
0.0
 10
229.217494
 20
55.208436
 30
0.0
 10
229.491601
 20
55.208436
 30
0.0
  0
LWPOLYLINE
  5
21e
100
AcDbEntity
  8
0
 62
5
100
AcDbPolyline
 90
2
 70
0
 10
228.991716
 20
68.708503
 30
0.0
 10
228.991716
 20
55.708674
 30
0.0
  0
SPLINE
  5
21f
100
AcDbEntity
  8
0
 62
5
100
AcDbSpline
 70
8
 71
3
 72
8
 73
4
 74
0
 40
0
 40
0
 40
0
 40
0
 40
1
 40
1
 40
1
 40
1
 10
230.078622
 20
53.551090
 30
0.0
 10
230.023942
 20
53.470657
 30
0.0
 10
229.991839
 20
53.373996
 30
0.0
 10
229.991839
 20
53.270633
 30
0.0
  0
LWPOLYLINE
  5
220
100
AcDbEntity
  8
0
 62
5
100
AcDbPolyline
 90
3
 70
0
 10
229.491601
 20
55.208436
 30
0.0
 10
230.078622
 20
55.208436
 30
0.0
 10
230.078622
 20
53.551090
 30
0.0
  0
SPLINE
  5
221
100
AcDbEntity
  8
0
 62
5
100
AcDbSpline
 70
8
 71
3
 72
8
 73
4
 74
0
 40
0
 40
0
 40
0
 40
0
 40
1
 40
1
 40
1
 40
1
 10
229.991839
 20
47.270603
 30
0.0
 10
229.991839
 20
47.111501
 30
0.0
 10
230.067686
 20
46.968626
 30
0.0
 10
230.184808
 20
46.876904
 30
0.0
  0
SPLINE
  5
222
100
AcDbEntity
  8
0
 62
5
100
AcDbSpline
 70
8
 71
3
 72
8
 73
4
 74
0
 40
0
 40
0
 40
0
 40
0
 40
1
 40
1
 40
1
 40
1
 10
230.184808
 20
46.876904
 30
0.0
 10
230.276883
 20
46.759430
 30
0.0
 10
230.419405
 20
46.683583
 30
0.0
 10
230.578507
 20
46.683583
 30
0.0
  0
LWPOLYLINE
  5
223
100
AcDbEntity
  8
0
 62
5
100
AcDbPolyline
 90
2
 70
0
 10
229.991839
 20
53.270633
 30
0.0
 10
229.991839
 20
47.270603
 30
0.0
  0
SPLINE
  5
224
100
AcDbEntity
  8
0
 62
5
100
AcDbSpline
 70
8
 71
3
 72
8
 73
4
 74
0
 40
0
 40
0
 40
0
 40
0
 40
1
 40
1
 40
1
 40
1
 10
231.372960
 20
46.183698
 30
0.0
 10
231.372960
 20
45.909237
 30
0.0
 10
231.598738
 20
45.683460
 30
0.0
 10
231.872845
 20
45.683460
 30
0.0
  0
LWPOLYLINE
  5
225
100
AcDbEntity
  8
0
 62
5
100
AcDbPolyline
 90
3
 70
0
 10
230.578507
 20
46.683583
 30
0.0
 10
231.372960
 20
46.683583
 30
0.0
 10
231.372960
 20
46.183698
 30
0.0
  0
SPLINE
  5
226
100
AcDbEntity
  8
0
 62
5
100
AcDbSpline
 70
8
 71
3
 72
8
 73
4
 74
0
 40
0
 40
0
 40
0
 40
0
 40
1
 40
1
 40
1
 40
1
 10
252.016759
 20
45.683460
 30
0.0
 10
252.290866
 20
45.683460
 30
0.0
 10
252.516644
 20
45.909237
 30
0.0
 10
252.516644
 20
46.183698
 30
0.0
  0
LWPOLYLINE
  5
227
100
AcDbEntity
  8
0
 62
5
100
AcDbPolyline
 90
2
 70
0
 10
231.872845
 20
45.683460
 30
0.0
 10
252.016759
 20
45.683460
 30
0.0
  0
SPLINE
  5
228
100
AcDbEntity
  8
0
 62
5
100
AcDbSpline
 70
8
 71
3
 72
8
 73
4
 74
0
 40
0
 40
0
 40
0
 40
0
 40
1
 40
1
 40
1
 40
1
 10
252.516644
 20
59.183526
 30
0.0
 10
252.516644
 20
59.457987
 30
0.0
 10
252.290866
 20
59.683764
 30
0.0
 10
252.016759
 20
59.683764
 30
0.0
  0
LWPOLYLINE
  5
229
100
AcDbEntity
  8
0
 62
5
100
AcDbPolyline
 90
2
 70
0
 10
252.516644
 20
46.183698
 30
0.0
 10
252.516644
 20
59.183526
 30
0.0
  0
LWPOLYLINE
  5
22a
100
AcDbEntity
  8
0
 62
5
100
AcDbPolyline
 90
3
 70
0
 10
252.016759
 20
59.683764
 30
0.0
 10
242.991668
 20
59.683764
 30
0.0
 10
242.991668
 20
59.683764
 30
0.0
  0
SPLINE
  5
22b
100
AcDbEntity
  8
0
 62
5
100
AcDbSpline
 70
8
 71
3
 72
8
 73
4
 74
0
 40
0
 40
0
 40
0
 40
0
 40
1
 40
1
 40
1
 40
1
 10
183.460566
 20
59.183526
 30
0.0
 10
183.460566
 20
59.457987
 30
0.0
 10
183.234789
 20
59.683764
 30
0.0
 10
182.960681
 20
59.683764
 30
0.0
  0
LWPOLYLINE
  5
22c
100
AcDbEntity
  8
0
 62
5
100
AcDbPolyline
 90
2
 70
0
 10
183.460566
 20
46.183698
 30
0.0
 10
183.460566
 20
59.183526
 30
0.0
  0
SPLINE
  5
22d
100
AcDbEntity
  8
0
 62
5
100
AcDbSpline
 70
8
 71
3
 72
8
 73
4
 74
0
 40
0
 40
0
 40
0
 40
0
 40
1
 40
1
 40
1
 40
1
 10
169.960500
 20
59.683764
 30
0.0
 10
169.686392
 20
59.683764
 30
0.0
 10
169.460615
 20
59.457987
 30
0.0
 10
169.460615
 20
59.183526
 30
0.0
  0
LWPOLYLINE
  5
22e
100
AcDbEntity
  8
0
 62
5
100
AcDbPolyline
 90
2
 70
0
 10
182.960681
 20
59.683764
 30
0.0
 10
169.960500
 20
59.683764
 30
0.0
  0
SPLINE
  5
22f
100
AcDbEntity
  8
0
 62
5
100
AcDbSpline
 70
8
 71
3
 72
8
 73
4
 74
0
 40
0
 40
0
 40
0
 40
0
 40
1
 40
1
 40
1
 40
1
 10
169.460615
 20
46.183698
 30
0.0
 10
169.460615
 20
45.909237
 30
0.0
 10
169.686392
 20
45.683460
 30
0.0
 10
169.960500
 20
45.683460
 30
0.0
  0
LWPOLYLINE
  5
230
100
AcDbEntity
  8
0
 62
5
100
AcDbPolyline
 90
2
 70
0
 10
169.460615
 20
59.183526
 30
0.0
 10
169.460615
 20
46.183698
 30
0.0
  0
SPLINE
  5
231
100
AcDbEntity
  8
0
 62
5
100
AcDbSpline
 70
8
 71
3
 72
8
 73
4
 74
0
 40
0
 40
0
 40
0
 40
0
 40
1
 40
1
 40
1
 40
1
 10
182.960681
 20
45.683460
 30
0.0
 10
183.234789
 20
45.683460
 30
0.0
 10
183.460566
 20
45.909237
 30
0.0
 10
183.460566
 20
46.183698
 30
0.0
  0
LWPOLYLINE
  5
232
100
AcDbEntity
  8
0
 62
5
100
AcDbPolyline
 90
2
 70
0
 10
169.960500
 20
45.683460
 30
0.0
 10
182.960681
 20
45.683460
 30
0.0
  0
LWPOLYLINE
  5
233
100
AcDbEntity
  8
0
 62
5
100
AcDbPolyline
 90
1
 70
1
 10
183.460566
 20
46.183698
 30
0.0
  0
SPLINE
  5
234
100
AcDbEntity
  8
0
 62
5
100
AcDbSpline
 70
8
 71
3
 72
8
 73
4
 74
0
 40
0
 40
0
 40
0
 40
0
 40
1
 40
1
 40
1
 40
1
 10
221.560471
 20
59.183526
 30
0.0
 10
221.560471
 20
59.457987
 30
0.0
 10
221.334694
 20
59.683764
 30
0.0
 10
221.060586
 20
59.683764
 30
0.0
  0
LWPOLYLINE
  5
235
100
AcDbEntity
  8
0
 62
5
100
AcDbPolyline
 90
2
 70
0
 10
221.560471
 20
46.183698
 30
0.0
 10
221.560471
 20
59.183526
 30
0.0
  0
SPLINE
  5
236
100
AcDbEntity
  8
0
 62
5
100
AcDbSpline
 70
8
 71
3
 72
8
 73
4
 74
0
 40
0
 40
0
 40
0
 40
0
 40
1
 40
1
 40
1
 40
1
 10
208.060405
 20
59.683764
 30
0.0
 10
207.786297
 20
59.683764
 30
0.0
 10
207.560520
 20
59.457987
 30
0.0
 10
207.560520
 20
59.183526
 30
0.0
  0
LWPOLYLINE
  5
237
100
AcDbEntity
  8
0
 62
5
100
AcDbPolyline
 90
2
 70
0
 10
221.060586
 20
59.683764
 30
0.0
 10
208.060405
 20
59.683764
 30
0.0
  0
SPLINE
  5
238
100
AcDbEntity
  8
0
 62
5
100
AcDbSpline
 70
8
 71
3
 72
8
 73
4
 74
0
 40
0
 40
0
 40
0
 40
0
 40
1
 40
1
 40
1
 40
1
 10
207.560520
 20
46.183698
 30
0.0
 10
207.560520
 20
45.909237
 30
0.0
 10
207.786297
 20
45.683460
 30
0.0
 10
208.060405
 20
45.683460
 30
0.0
  0
LWPOLYLINE
  5
239
100
AcDbEntity
  8
0
 62
5
100
AcDbPolyline
 90
2
 70
0
 10
207.560520
 20
59.183526
 30
0.0
 10
207.560520
 20
46.183698
 30
0.0
  0
SPLINE
  5
23a
100
AcDbEntity
  8
0
 62
5
100
AcDbSpline
 70
8
 71
3
 72
8
 73
4
 74
0
 40
0
 40
0
 40
0
 40
0
 40
1
 40
1
 40
1
 40
1
 10
221.060586
 20
45.683460
 30
0.0
 10
221.334694
 20
45.683460
 30
0.0
 10
221.560471
 20
45.909237
 30
0.0
 10
221.560471
 20
46.183698
 30
0.0
  0
LWPOLYLINE
  5
23b
100
AcDbEntity
  8
0
 62
5
100
AcDbPolyline
 90
2
 70
0
 10
208.060405
 20
45.683460
 30
0.0
 10
221.060586
 20
45.683460
 30
0.0
  0
LWPOLYLINE
  5
23c
100
AcDbEntity
  8
0
 62
5
100
AcDbPolyline
 90
1
 70
1
 10
221.560471
 20
46.183698
 30
0.0
  0
SPLINE
  5
23d
100
AcDbEntity
  8
0
 62
5
100
AcDbSpline
 70
8
 71
3
 72
8
 73
4
 74
0
 40
0
 40
0
 40
0
 40
0
 40
1
 40
1
 40
1
 40
1
 10
202.510519
 20
59.183526
 30
0.0
 10
202.510519
 20
59.457987
 30
0.0
 10
202.284742
 20
59.683764
 30
0.0
 10
202.010634
 20
59.683764
 30
0.0
  0
LWPOLYLINE
  5
23e
100
AcDbEntity
  8
0
 62
5
100
AcDbPolyline
 90
2
 70
0
 10
202.510519
 20
46.183698
 30
0.0
 10
202.510519
 20
59.183526
 30
0.0
  0
SPLINE
  5
23f
100
AcDbEntity
  8
0
 62
5
100
AcDbSpline
 70
8
 71
3
 72
8
 73
4
 74
0
 40
0
 40
0
 40
0
 40
0
 40
1
 40
1
 40
1
 40
1
 10
189.010452
 20
59.683764
 30
0.0
 10
188.736345
 20
59.683764
 30
0.0
 10
188.510568
 20
59.457987
 30
0.0
 10
188.510568
 20
59.183526
 30
0.0
  0
LWPOLYLINE
  5
240
100
AcDbEntity
  8
0
 62
5
100
AcDbPolyline
 90
2
 70
0
 10
202.010634
 20
59.683764
 30
0.0
 10
189.010452
 20
59.683764
 30
0.0
  0
SPLINE
  5
241
100
AcDbEntity
  8
0
 62
5
100
AcDbSpline
 70
8
 71
3
 72
8
 73
4
 74
0
 40
0
 40
0
 40
0
 40
0
 40
1
 40
1
 40
1
 40
1
 10
188.510568
 20
46.183698
 30
0.0
 10
188.510568
 20
45.909237
 30
0.0
 10
188.736345
 20
45.683460
 30
0.0
 10
189.010452
 20
45.683460
 30
0.0
  0
LWPOLYLINE
  5
242
100
AcDbEntity
  8
0
 62
5
100
AcDbPolyline
 90
2
 70
0
 10
188.510568
 20
59.183526
 30
0.0
 10
188.510568
 20
46.183698
 30
0.0
  0
SPLINE
  5
243
100
AcDbEntity
  8
0
 62
5
100
AcDbSpline
 70
8
 71
3
 72
8
 73
4
 74
0
 40
0
 40
0
 40
0
 40
0
 40
1
 40
1
 40
1
 40
1
 10
202.010634
 20
45.683460
 30
0.0
 10
202.284742
 20
45.683460
 30
0.0
 10
202.510519
 20
45.909237
 30
0.0
 10
202.510519
 20
46.183698
 30
0.0
  0
LWPOLYLINE
  5
244
100
AcDbEntity
  8
0
 62
5
100
AcDbPolyline
 90
2
 70
0
 10
189.010452
 20
45.683460
 30
0.0
 10
202.010634
 20
45.683460
 30
0.0
  0
LWPOLYLINE
  5
245
100
AcDbEntity
  8
0
 62
5
100
AcDbPolyline
 90
1
 70
1
 10
202.510519
 20
46.183698
 30
0.0
  0
SPLINE
  5
246
100
AcDbEntity
  8
0
 62
5
100
AcDbSpline
 70
8
 71
3
 72
8
 73
4
 74
0
 40
0
 40
0
 40
0
 40
0
 40
1
 40
1
 40
1
 40
1
 10
49.611015
 20
45.683460
 30
0.0
 10
49.885123
 20
45.683460
 30
0.0
 10
50.110900
 20
45.909237
 30
0.0
 10
50.110900
 20
46.183698
 30
0.0
  0
LWPOLYLINE
  5
247
100
AcDbEntity
  8
0
 62
5
100
AcDbPolyline
 90
2
 70
0
 10
36.610833
 20
45.683460
 30
0.0
 10
49.611015
 20
45.683460
 30
0.0
  0
SPLINE
  5
248
100
AcDbEntity
  8
0
 62
5
100
AcDbSpline
 70
8
 71
3
 72
8
 73
4
 74
0
 40
0
 40
0
 40
0
 40
0
 40
1
 40
1
 40
1
 40
1
 10
50.110900
 20
59.183526
 30
0.0
 10
50.110900
 20
59.457987
 30
0.0
 10
49.885123
 20
59.683764
 30
0.0
 10
49.611015
 20
59.683764
 30
0.0
  0
LWPOLYLINE
  5
249
100
AcDbEntity
  8
0
 62
5
100
AcDbPolyline
 90
2
 70
0
 10
50.110900
 20
46.183698
 30
0.0
 10
50.110900
 20
59.183526
 30
0.0
  0
SPLINE
  5
24a
100
AcDbEntity
  8
0
 62
5
100
AcDbSpline
 70
8
 71
3
 72
8
 73
4
 74
0
 40
0
 40
0
 40
0
 40
0
 40
1
 40
1
 40
1
 40
1
 10
36.610833
 20
59.683764
 30
0.0
 10
36.336726
 20
59.683764
 30
0.0
 10
36.110949
 20
59.457987
 30
0.0
 10
36.110949
 20
59.183526
 30
0.0
  0
LWPOLYLINE
  5
24b
100
AcDbEntity
  8
0
 62
5
100
AcDbPolyline
 90
2
 70
0
 10
49.611015
 20
59.683764
 30
0.0
 10
36.610833
 20
59.683764
 30
0.0
  0
SPLINE
  5
24c
100
AcDbEntity
  8
0
 62
5
100
AcDbSpline
 70
8
 71
3
 72
8
 73
4
 74
0
 40
0
 40
0
 40
0
 40
0
 40
1
 40
1
 40
1
 40
1
 10
36.110949
 20
46.183698
 30
0.0
 10
36.110949
 20
45.909237
 30
0.0
 10
36.336726
 20
45.683460
 30
0.0
 10
36.610833
 20
45.683460
 30
0.0
  0
LWPOLYLINE
  5
24d
100
AcDbEntity
  8
0
 62
5
100
AcDbPolyline
 90
2
 70
0
 10
36.110949
 20
59.183526
 30
0.0
 10
36.110949
 20
46.183698
 30
0.0
  0
LWPOLYLINE
  5
24e
100
AcDbEntity
  8
0
 62
5
100
AcDbPolyline
 90
1
 70
1
 10
36.610833
 20
45.683460
 30
0.0
  0
SPLINE
  5
24f
100
AcDbEntity
  8
0
 62
5
100
AcDbSpline
 70
8
 71
3
 72
8
 73
4
 74
0
 40
0
 40
0
 40
0
 40
0
 40
1
 40
1
 40
1
 40
1
 10
88.210804
 20
59.183526
 30
0.0
 10
88.210804
 20
59.457987
 30
0.0
 10
87.985027
 20
59.683764
 30
0.0
 10
87.710920
 20
59.683764
 30
0.0
  0
LWPOLYLINE
  5
250
100
AcDbEntity
  8
0
 62
5
100
AcDbPolyline
 90
2
 70
0
 10
88.210804
 20
46.183698
 30
0.0
 10
88.210804
 20
59.183526
 30
0.0
  0
SPLINE
  5
251
100
AcDbEntity
  8
0
 62
5
100
AcDbSpline
 70
8
 71
3
 72
8
 73
4
 74
0
 40
0
 40
0
 40
0
 40
0
 40
1
 40
1
 40
1
 40
1
 10
74.710738
 20
59.683764
 30
0.0
 10
74.436631
 20
59.683764
 30
0.0
 10
74.210853
 20
59.457987
 30
0.0
 10
74.210853
 20
59.183526
 30
0.0
  0
LWPOLYLINE
  5
252
100
AcDbEntity
  8
0
 62
5
100
AcDbPolyline
 90
2
 70
0
 10
87.710920
 20
59.683764
 30
0.0
 10
74.710738
 20
59.683764
 30
0.0
  0
SPLINE
  5
253
100
AcDbEntity
  8
0
 62
5
100
AcDbSpline
 70
8
 71
3
 72
8
 73
4
 74
0
 40
0
 40
0
 40
0
 40
0
 40
1
 40
1
 40
1
 40
1
 10
74.210853
 20
46.183698
 30
0.0
 10
74.210853
 20
45.909237
 30
0.0
 10
74.436631
 20
45.683460
 30
0.0
 10
74.710738
 20
45.683460
 30
0.0
  0
LWPOLYLINE
  5
254
100
AcDbEntity
  8
0
 62
5
100
AcDbPolyline
 90
2
 70
0
 10
74.210853
 20
59.183526
 30
0.0
 10
74.210853
 20
46.183698
 30
0.0
  0
SPLINE
  5
255
100
AcDbEntity
  8
0
 62
5
100
AcDbSpline
 70
8
 71
3
 72
8
 73
4
 74
0
 40
0
 40
0
 40
0
 40
0
 40
1
 40
1
 40
1
 40
1
 10
87.710920
 20
45.683460
 30
0.0
 10
87.985027
 20
45.683460
 30
0.0
 10
88.210804
 20
45.909237
 30
0.0
 10
88.210804
 20
46.183698
 30
0.0
  0
LWPOLYLINE
  5
256
100
AcDbEntity
  8
0
 62
5
100
AcDbPolyline
 90
2
 70
0
 10
74.710738
 20
45.683460
 30
0.0
 10
87.710920
 20
45.683460
 30
0.0
  0
LWPOLYLINE
  5
257
100
AcDbEntity
  8
0
 62
5
100
AcDbPolyline
 90
1
 70
1
 10
88.210804
 20
46.183698
 30
0.0
  0
SPLINE
  5
258
100
AcDbEntity
  8
0
 62
5
100
AcDbSpline
 70
8
 71
3
 72
8
 73
4
 74
0
 40
0
 40
0
 40
0
 40
0
 40
1
 40
1
 40
1
 40
1
 10
126.310709
 20
59.183526
 30
0.0
 10
126.310709
 20
59.457987
 30
0.0
 10
126.084932
 20
59.683764
 30
0.0
 10
125.810824
 20
59.683764
 30
0.0
  0
LWPOLYLINE
  5
259
100
AcDbEntity
  8
0
 62
5
100
AcDbPolyline
 90
2
 70
0
 10
126.310709
 20
46.183698
 30
0.0
 10
126.310709
 20
59.183526
 30
0.0
  0
SPLINE
  5
25a
100
AcDbEntity
  8
0
 62
5
100
AcDbSpline
 70
8
 71
3
 72
8
 73
4
 74
0
 40
0
 40
0
 40
0
 40
0
 40
1
 40
1
 40
1
 40
1
 10
112.810643
 20
59.683764
 30
0.0
 10
112.536535
 20
59.683764
 30
0.0
 10
112.310758
 20
59.457987
 30
0.0
 10
112.310758
 20
59.183526
 30
0.0
  0
LWPOLYLINE
  5
25b
100
AcDbEntity
  8
0
 62
5
100
AcDbPolyline
 90
2
 70
0
 10
125.810824
 20
59.683764
 30
0.0
 10
112.810643
 20
59.683764
 30
0.0
  0
SPLINE
  5
25c
100
AcDbEntity
  8
0
 62
5
100
AcDbSpline
 70
8
 71
3
 72
8
 73
4
 74
0
 40
0
 40
0
 40
0
 40
0
 40
1
 40
1
 40
1
 40
1
 10
112.310758
 20
46.183698
 30
0.0
 10
112.310758
 20
45.909237
 30
0.0
 10
112.536535
 20
45.683460
 30
0.0
 10
112.810643
 20
45.683460
 30
0.0
  0
LWPOLYLINE
  5
25d
100
AcDbEntity
  8
0
 62
5
100
AcDbPolyline
 90
2
 70
0
 10
112.310758
 20
59.183526
 30
0.0
 10
112.310758
 20
46.183698
 30
0.0
  0
SPLINE
  5
25e
100
AcDbEntity
  8
0
 62
5
100
AcDbSpline
 70
8
 71
3
 72
8
 73
4
 74
0
 40
0
 40
0
 40
0
 40
0
 40
1
 40
1
 40
1
 40
1
 10
125.810824
 20
45.683460
 30
0.0
 10
126.084932
 20
45.683460
 30
0.0
 10
126.310709
 20
45.909237
 30
0.0
 10
126.310709
 20
46.183698
 30
0.0
  0
LWPOLYLINE
  5
25f
100
AcDbEntity
  8
0
 62
5
100
AcDbPolyline
 90
2
 70
0
 10
112.810643
 20
45.683460
 30
0.0
 10
125.810824
 20
45.683460
 30
0.0
  0
LWPOLYLINE
  5
260
100
AcDbEntity
  8
0
 62
5
100
AcDbPolyline
 90
1
 70
1
 10
126.310709
 20
46.183698
 30
0.0
  0
SPLINE
  5
261
100
AcDbEntity
  8
0
 62
5
100
AcDbSpline
 70
8
 71
3
 72
8
 73
4
 74
0
 40
0
 40
0
 40
0
 40
0
 40
1
 40
1
 40
1
 40
1
 10
164.410614
 20
59.183526
 30
0.0
 10
164.410614
 20
59.457987
 30
0.0
 10
164.184837
 20
59.683764
 30
0.0
 10
163.910729
 20
59.683764
 30
0.0
  0
LWPOLYLINE
  5
262
100
AcDbEntity
  8
0
 62
5
100
AcDbPolyline
 90
2
 70
0
 10
164.410614
 20
46.183698
 30
0.0
 10
164.410614
 20
59.183526
 30
0.0
  0
SPLINE
  5
263
100
AcDbEntity
  8
0
 62
5
100
AcDbSpline
 70
8
 71
3
 72
8
 73
4
 74
0
 40
0
 40
0
 40
0
 40
0
 40
1
 40
1
 40
1
 40
1
 10
150.910548
 20
59.683764
 30
0.0
 10
150.636440
 20
59.683764
 30
0.0
 10
150.410663
 20
59.457987
 30
0.0
 10
150.410663
 20
59.183526
 30
0.0
  0
LWPOLYLINE
  5
264
100
AcDbEntity
  8
0
 62
5
100
AcDbPolyline
 90
2
 70
0
 10
163.910729
 20
59.683764
 30
0.0
 10
150.910548
 20
59.683764
 30
0.0
  0
SPLINE
  5
265
100
AcDbEntity
  8
0
 62
5
100
AcDbSpline
 70
8
 71
3
 72
8
 73
4
 74
0
 40
0
 40
0
 40
0
 40
0
 40
1
 40
1
 40
1
 40
1
 10
150.410663
 20
46.183698
 30
0.0
 10
150.410663
 20
45.909237
 30
0.0
 10
150.636440
 20
45.683460
 30
0.0
 10
150.910548
 20
45.683460
 30
0.0
  0
LWPOLYLINE
  5
266
100
AcDbEntity
  8
0
 62
5
100
AcDbPolyline
 90
2
 70
0
 10
150.410663
 20
59.183526
 30
0.0
 10
150.410663
 20
46.183698
 30
0.0
  0
SPLINE
  5
267
100
AcDbEntity
  8
0
 62
5
100
AcDbSpline
 70
8
 71
3
 72
8
 73
4
 74
0
 40
0
 40
0
 40
0
 40
0
 40
1
 40
1
 40
1
 40
1
 10
163.910729
 20
45.683460
 30
0.0
 10
164.184837
 20
45.683460
 30
0.0
 10
164.410614
 20
45.909237
 30
0.0
 10
164.410614
 20
46.183698
 30
0.0
  0
LWPOLYLINE
  5
268
100
AcDbEntity
  8
0
 62
5
100
AcDbPolyline
 90
2
 70
0
 10
150.910548
 20
45.683460
 30
0.0
 10
163.910729
 20
45.683460
 30
0.0
  0
LWPOLYLINE
  5
269
100
AcDbEntity
  8
0
 62
5
100
AcDbPolyline
 90
1
 70
1
 10
164.410614
 20
46.183698
 30
0.0
  0
SPLINE
  5
26a
100
AcDbEntity
  8
0
 62
5
100
AcDbSpline
 70
8
 71
3
 72
8
 73
4
 74
0
 40
0
 40
0
 40
0
 40
0
 40
1
 40
1
 40
1
 40
1
 10
145.360662
 20
59.183526
 30
0.0
 10
145.360662
 20
59.457987
 30
0.0
 10
145.134884
 20
59.683764
 30
0.0
 10
144.860777
 20
59.683764
 30
0.0
  0
LWPOLYLINE
  5
26b
100
AcDbEntity
  8
0
 62
5
100
AcDbPolyline
 90
2
 70
0
 10
145.360662
 20
46.183698
 30
0.0
 10
145.360662
 20
59.183526
 30
0.0
  0
SPLINE
  5
26c
100
AcDbEntity
  8
0
 62
5
100
AcDbSpline
 70
8
 71
3
 72
8
 73
4
 74
0
 40
0
 40
0
 40
0
 40
0
 40
1
 40
1
 40
1
 40
1
 10
131.860595
 20
59.683764
 30
0.0
 10
131.586488
 20
59.683764
 30
0.0
 10
131.360710
 20
59.457987
 30
0.0
 10
131.360710
 20
59.183526
 30
0.0
  0
LWPOLYLINE
  5
26d
100
AcDbEntity
  8
0
 62
5
100
AcDbPolyline
 90
2
 70
0
 10
144.860777
 20
59.683764
 30
0.0
 10
131.860595
 20
59.683764
 30
0.0
  0
SPLINE
  5
26e
100
AcDbEntity
  8
0
 62
5
100
AcDbSpline
 70
8
 71
3
 72
8
 73
4
 74
0
 40
0
 40
0
 40
0
 40
0
 40
1
 40
1
 40
1
 40
1
 10
131.360710
 20
46.183698
 30
0.0
 10
131.360710
 20
45.909237
 30
0.0
 10
131.586488
 20
45.683460
 30
0.0
 10
131.860595
 20
45.683460
 30
0.0
  0
LWPOLYLINE
  5
26f
100
AcDbEntity
  8
0
 62
5
100
AcDbPolyline
 90
2
 70
0
 10
131.360710
 20
59.183526
 30
0.0
 10
131.360710
 20
46.183698
 30
0.0
  0
SPLINE
  5
270
100
AcDbEntity
  8
0
 62
5
100
AcDbSpline
 70
8
 71
3
 72
8
 73
4
 74
0
 40
0
 40
0
 40
0
 40
0
 40
1
 40
1
 40
1
 40
1
 10
144.860777
 20
45.683460
 30
0.0
 10
145.134884
 20
45.683460
 30
0.0
 10
145.360662
 20
45.909237
 30
0.0
 10
145.360662
 20
46.183698
 30
0.0
  0
LWPOLYLINE
  5
271
100
AcDbEntity
  8
0
 62
5
100
AcDbPolyline
 90
2
 70
0
 10
131.860595
 20
45.683460
 30
0.0
 10
144.860777
 20
45.683460
 30
0.0
  0
LWPOLYLINE
  5
272
100
AcDbEntity
  8
0
 62
5
100
AcDbPolyline
 90
1
 70
1
 10
145.360662
 20
46.183698
 30
0.0
  0
SPLINE
  5
273
100
AcDbEntity
  8
0
 62
5
100
AcDbSpline
 70
8
 71
3
 72
8
 73
4
 74
0
 40
0
 40
0
 40
0
 40
0
 40
1
 40
1
 40
1
 40
1
 10
69.160852
 20
59.183526
 30
0.0
 10
69.160852
 20
59.457987
 30
0.0
 10
68.935075
 20
59.683764
 30
0.0
 10
68.660967
 20
59.683764
 30
0.0
  0
LWPOLYLINE
  5
274
100
AcDbEntity
  8
0
 62
5
100
AcDbPolyline
 90
2
 70
0
 10
69.160852
 20
46.183698
 30
0.0
 10
69.160852
 20
59.183526
 30
0.0
  0
SPLINE
  5
275
100
AcDbEntity
  8
0
 62
5
100
AcDbSpline
 70
8
 71
3
 72
8
 73
4
 74
0
 40
0
 40
0
 40
0
 40
0
 40
1
 40
1
 40
1
 40
1
 10
55.660786
 20
59.683764
 30
0.0
 10
55.386678
 20
59.683764
 30
0.0
 10
55.160901
 20
59.457987
 30
0.0
 10
55.160901
 20
59.183526
 30
0.0
  0
LWPOLYLINE
  5
276
100
AcDbEntity
  8
0
 62
5
100
AcDbPolyline
 90
2
 70
0
 10
68.660967
 20
59.683764
 30
0.0
 10
55.660786
 20
59.683764
 30
0.0
  0
SPLINE
  5
277
100
AcDbEntity
  8
0
 62
5
100
AcDbSpline
 70
8
 71
3
 72
8
 73
4
 74
0
 40
0
 40
0
 40
0
 40
0
 40
1
 40
1
 40
1
 40
1
 10
55.160901
 20
46.183698
 30
0.0
 10
55.160901
 20
45.909237
 30
0.0
 10
55.386678
 20
45.683460
 30
0.0
 10
55.660786
 20
45.683460
 30
0.0
  0
LWPOLYLINE
  5
278
100
AcDbEntity
  8
0
 62
5
100
AcDbPolyline
 90
2
 70
0
 10
55.160901
 20
59.183526
 30
0.0
 10
55.160901
 20
46.183698
 30
0.0
  0
SPLINE
  5
279
100
AcDbEntity
  8
0
 62
5
100
AcDbSpline
 70
8
 71
3
 72
8
 73
4
 74
0
 40
0
 40
0
 40
0
 40
0
 40
1
 40
1
 40
1
 40
1
 10
68.660967
 20
45.683460
 30
0.0
 10
68.935075
 20
45.683460
 30
0.0
 10
69.160852
 20
45.909237
 30
0.0
 10
69.160852
 20
46.183698
 30
0.0
  0
LWPOLYLINE
  5
27a
100
AcDbEntity
  8
0
 62
5
100
AcDbPolyline
 90
2
 70
0
 10
55.660786
 20
45.683460
 30
0.0
 10
68.660967
 20
45.683460
 30
0.0
  0
LWPOLYLINE
  5
27b
100
AcDbEntity
  8
0
 62
5
100
AcDbPolyline
 90
1
 70
1
 10
69.160852
 20
46.183698
 30
0.0
  0
SPLINE
  5
27c
100
AcDbEntity
  8
0
 62
5
100
AcDbSpline
 70
8
 71
3
 72
8
 73
4
 74
0
 40
0
 40
0
 40
0
 40
0
 40
1
 40
1
 40
1
 40
1
 10
12.798393
 20
59.683764
 30
0.0
 10
12.524285
 20
59.683764
 30
0.0
 10
12.298508
 20
59.457987
 30
0.0
 10
12.298508
 20
59.183526
 30
0.0
  0
LWPOLYLINE
  5
27d
100
AcDbEntity
  8
0
 62
5
100
AcDbPolyline
 90
2
 70
0
 10
28.179818
 20
59.683764
 30
0.0
 10
12.798393
 20
59.683764
 30
0.0
  0
SPLINE
  5
27e
100
AcDbEntity
  8
0
 62
5
100
AcDbSpline
 70
8
 71
3
 72
8
 73
4
 74
0
 40
0
 40
0
 40
0
 40
0
 40
1
 40
1
 40
1
 40
1
 10
12.298508
 20
46.183698
 30
0.0
 10
12.298508
 20
45.909237
 30
0.0
 10
12.524285
 20
45.683460
 30
0.0
 10
12.798393
 20
45.683460
 30
0.0
  0
LWPOLYLINE
  5
27f
100
AcDbEntity
  8
0
 62
5
100
AcDbPolyline
 90
2
 70
0
 10
12.298508
 20
59.183526
 30
0.0
 10
12.298508
 20
46.183698
 30
0.0
  0
SPLINE
  5
280
100
AcDbEntity
  8
0
 62
5
100
AcDbSpline
 70
8
 71
3
 72
8
 73
4
 74
0
 40
0
 40
0
 40
0
 40
0
 40
1
 40
1
 40
1
 40
1
 10
28.179818
 20
45.683460
 30
0.0
 10
28.453926
 20
45.683460
 30
0.0
 10
28.679703
 20
45.909237
 30
0.0
 10
28.679703
 20
46.183698
 30
0.0
  0
LWPOLYLINE
  5
281
100
AcDbEntity
  8
0
 62
5
100
AcDbPolyline
 90
2
 70
0
 10
12.798393
 20
45.683460
 30
0.0
 10
28.179818
 20
45.683460
 30
0.0
  0
SPLINE
  5
282
100
AcDbEntity
  8
0
 62
5
100
AcDbSpline
 70
8
 71
3
 72
8
 73
4
 74
0
 40
0
 40
0
 40
0
 40
0
 40
1
 40
1
 40
1
 40
1
 10
28.679703
 20
59.183526
 30
0.0
 10
28.679703
 20
59.457987
 30
0.0
 10
28.453926
 20
59.683764
 30
0.0
 10
28.179818
 20
59.683764
 30
0.0
  0
LWPOLYLINE
  5
283
100
AcDbEntity
  8
0
 62
5
100
AcDbPolyline
 90
2
 70
0
 10
28.679703
 20
46.183698
 30
0.0
 10
28.679703
 20
59.183526
 30
0.0
  0
LWPOLYLINE
  5
284
100
AcDbEntity
  8
0
 62
5
100
AcDbPolyline
 90
1
 70
1
 10
28.179818
 20
59.683764
 30
0.0
  0
LWPOLYLINE
  5
285
100
AcDbEntity
  8
0
 62
5
100
AcDbPolyline
 90
5
 70
1
 10
9.760984
 20
61.781023
 30
0.0
 10
6.998741
 20
61.781023
 30
0.0
 10
6.998741
 20
54.203375
 30
0.0
 10
9.760984
 20
54.203375
 30
0.0
 10
9.760984
 20
61.781023
 30
0.0
  0
SPLINE
  5
286
100
AcDbEntity
  8
0
 62
5
100
AcDbSpline
 70
8
 71
3
 72
8
 73
4
 74
0
 40
0
 40
0
 40
0
 40
0
 40
1
 40
1
 40
1
 40
1
 10
49.611015
 20
64.733413
 30
0.0
 10
49.885123
 20
64.733413
 30
0.0
 10
50.110900
 20
64.959190
 30
0.0
 10
50.110900
 20
65.233650
 30
0.0
  0
LWPOLYLINE
  5
287
100
AcDbEntity
  8
0
 62
5
100
AcDbPolyline
 90
2
 70
0
 10
36.610833
 20
64.733413
 30
0.0
 10
49.611015
 20
64.733413
 30
0.0
  0
SPLINE
  5
288
100
AcDbEntity
  8
0
 62
5
100
AcDbSpline
 70
8
 71
3
 72
8
 73
4
 74
0
 40
0
 40
0
 40
0
 40
0
 40
1
 40
1
 40
1
 40
1
 10
50.110900
 20
78.233479
 30
0.0
 10
50.110900
 20
78.507939
 30
0.0
 10
49.885123
 20
78.733716
 30
0.0
 10
49.611015
 20
78.733716
 30
0.0
  0
LWPOLYLINE
  5
289
100
AcDbEntity
  8
0
 62
5
100
AcDbPolyline
 90
2
 70
0
 10
50.110900
 20
65.233650
 30
0.0
 10
50.110900
 20
78.233479
 30
0.0
  0
SPLINE
  5
28a
100
AcDbEntity
  8
0
 62
5
100
AcDbSpline
 70
8
 71
3
 72
8
 73
4
 74
0
 40
0
 40
0
 40
0
 40
0
 40
1
 40
1
 40
1
 40
1
 10
36.610833
 20
78.733716
 30
0.0
 10
36.336726
 20
78.733716
 30
0.0
 10
36.110949
 20
78.507939
 30
0.0
 10
36.110949
 20
78.233479
 30
0.0
  0
LWPOLYLINE
  5
28b
100
AcDbEntity
  8
0
 62
5
100
AcDbPolyline
 90
2
 70
0
 10
49.611015
 20
78.733716
 30
0.0
 10
36.610833
 20
78.733716
 30
0.0
  0
SPLINE
  5
28c
100
AcDbEntity
  8
0
 62
5
100
AcDbSpline
 70
8
 71
3
 72
8
 73
4
 74
0
 40
0
 40
0
 40
0
 40
0
 40
1
 40
1
 40
1
 40
1
 10
36.110949
 20
65.233650
 30
0.0
 10
36.110949
 20
64.959190
 30
0.0
 10
36.336726
 20
64.733413
 30
0.0
 10
36.610833
 20
64.733413
 30
0.0
  0
LWPOLYLINE
  5
28d
100
AcDbEntity
  8
0
 62
5
100
AcDbPolyline
 90
2
 70
0
 10
36.110949
 20
78.233479
 30
0.0
 10
36.110949
 20
65.233650
 30
0.0
  0
LWPOLYLINE
  5
28e
100
AcDbEntity
  8
0
 62
5
100
AcDbPolyline
 90
1
 70
1
 10
36.610833
 20
64.733413
 30
0.0
  0
SPLINE
  5
28f
100
AcDbEntity
  8
0
 62
5
100
AcDbSpline
 70
8
 71
3
 72
8
 73
4
 74
0
 40
0
 40
0
 40
0
 40
0
 40
1
 40
1
 40
1
 40
1
 10
202.510519
 20
78.233479
 30
0.0
 10
202.510519
 20
78.507939
 30
0.0
 10
202.284742
 20
78.733716
 30
0.0
 10
202.010634
 20
78.733716
 30
0.0
  0
LWPOLYLINE
  5
290
100
AcDbEntity
  8
0
 62
5
100
AcDbPolyline
 90
2
 70
0
 10
202.510519
 20
65.233650
 30
0.0
 10
202.510519
 20
78.233479
 30
0.0
  0
SPLINE
  5
291
100
AcDbEntity
  8
0
 62
5
100
AcDbSpline
 70
8
 71
3
 72
8
 73
4
 74
0
 40
0
 40
0
 40
0
 40
0
 40
1
 40
1
 40
1
 40
1
 10
189.010452
 20
78.733716
 30
0.0
 10
188.736345
 20
78.733716
 30
0.0
 10
188.510568
 20
78.507939
 30
0.0
 10
188.510568
 20
78.233479
 30
0.0
  0
LWPOLYLINE
  5
292
100
AcDbEntity
  8
0
 62
5
100
AcDbPolyline
 90
2
 70
0
 10
202.010634
 20
78.733716
 30
0.0
 10
189.010452
 20
78.733716
 30
0.0
  0
SPLINE
  5
293
100
AcDbEntity
  8
0
 62
5
100
AcDbSpline
 70
8
 71
3
 72
8
 73
4
 74
0
 40
0
 40
0
 40
0
 40
0
 40
1
 40
1
 40
1
 40
1
 10
188.510568
 20
65.233650
 30
0.0
 10
188.510568
 20
64.959190
 30
0.0
 10
188.736345
 20
64.733413
 30
0.0
 10
189.010452
 20
64.733413
 30
0.0
  0
LWPOLYLINE
  5
294
100
AcDbEntity
  8
0
 62
5
100
AcDbPolyline
 90
2
 70
0
 10
188.510568
 20
78.233479
 30
0.0
 10
188.510568
 20
65.233650
 30
0.0
  0
SPLINE
  5
295
100
AcDbEntity
  8
0
 62
5
100
AcDbSpline
 70
8
 71
3
 72
8
 73
4
 74
0
 40
0
 40
0
 40
0
 40
0
 40
1
 40
1
 40
1
 40
1
 10
202.010634
 20
64.733413
 30
0.0
 10
202.284742
 20
64.733413
 30
0.0
 10
202.510519
 20
64.959190
 30
0.0
 10
202.510519
 20
65.233650
 30
0.0
  0
LWPOLYLINE
  5
296
100
AcDbEntity
  8
0
 62
5
100
AcDbPolyline
 90
2
 70
0
 10
189.010452
 20
64.733413
 30
0.0
 10
202.010634
 20
64.733413
 30
0.0
  0
LWPOLYLINE
  5
297
100
AcDbEntity
  8
0
 62
5
100
AcDbPolyline
 90
1
 70
1
 10
202.510519
 20
65.233650
 30
0.0
  0
SPLINE
  5
298
100
AcDbEntity
  8
0
 62
5
100
AcDbSpline
 70
8
 71
3
 72
8
 73
4
 74
0
 40
0
 40
0
 40
0
 40
0
 40
1
 40
1
 40
1
 40
1
 10
69.160852
 20
78.233479
 30
0.0
 10
69.160852
 20
78.507939
 30
0.0
 10
68.935075
 20
78.733716
 30
0.0
 10
68.660967
 20
78.733716
 30
0.0
  0
LWPOLYLINE
  5
299
100
AcDbEntity
  8
0
 62
5
100
AcDbPolyline
 90
2
 70
0
 10
69.160852
 20
65.233650
 30
0.0
 10
69.160852
 20
78.233479
 30
0.0
  0
SPLINE
  5
29a
100
AcDbEntity
  8
0
 62
5
100
AcDbSpline
 70
8
 71
3
 72
8
 73
4
 74
0
 40
0
 40
0
 40
0
 40
0
 40
1
 40
1
 40
1
 40
1
 10
55.660786
 20
78.733716
 30
0.0
 10
55.386678
 20
78.733716
 30
0.0
 10
55.160901
 20
78.507939
 30
0.0
 10
55.160901
 20
78.233479
 30
0.0
  0
LWPOLYLINE
  5
29b
100
AcDbEntity
  8
0
 62
5
100
AcDbPolyline
 90
2
 70
0
 10
68.660967
 20
78.733716
 30
0.0
 10
55.660786
 20
78.733716
 30
0.0
  0
SPLINE
  5
29c
100
AcDbEntity
  8
0
 62
5
100
AcDbSpline
 70
8
 71
3
 72
8
 73
4
 74
0
 40
0
 40
0
 40
0
 40
0
 40
1
 40
1
 40
1
 40
1
 10
55.160901
 20
65.233650
 30
0.0
 10
55.160901
 20
64.959190
 30
0.0
 10
55.386678
 20
64.733413
 30
0.0
 10
55.660786
 20
64.733413
 30
0.0
  0
LWPOLYLINE
  5
29d
100
AcDbEntity
  8
0
 62
5
100
AcDbPolyline
 90
2
 70
0
 10
55.160901
 20
78.233479
 30
0.0
 10
55.160901
 20
65.233650
 30
0.0
  0
SPLINE
  5
29e
100
AcDbEntity
  8
0
 62
5
100
AcDbSpline
 70
8
 71
3
 72
8
 73
4
 74
0
 40
0
 40
0
 40
0
 40
0
 40
1
 40
1
 40
1
 40
1
 10
68.660967
 20
64.733413
 30
0.0
 10
68.935075
 20
64.733413
 30
0.0
 10
69.160852
 20
64.959190
 30
0.0
 10
69.160852
 20
65.233650
 30
0.0
  0
LWPOLYLINE
  5
29f
100
AcDbEntity
  8
0
 62
5
100
AcDbPolyline
 90
2
 70
0
 10
55.660786
 20
64.733413
 30
0.0
 10
68.660967
 20
64.733413
 30
0.0
  0
LWPOLYLINE
  5
2a0
100
AcDbEntity
  8
0
 62
5
100
AcDbPolyline
 90
1
 70
1
 10
69.160852
 20
65.233650
 30
0.0
  0
SPLINE
  5
2a1
100
AcDbEntity
  8
0
 62
5
100
AcDbSpline
 70
8
 71
3
 72
8
 73
4
 74
0
 40
0
 40
0
 40
0
 40
0
 40
1
 40
1
 40
1
 40
1
 10
183.460566
 20
78.233479
 30
0.0
 10
183.460566
 20
78.507939
 30
0.0
 10
183.234789
 20
78.733716
 30
0.0
 10
182.960681
 20
78.733716
 30
0.0
  0
LWPOLYLINE
  5
2a2
100
AcDbEntity
  8
0
 62
5
100
AcDbPolyline
 90
2
 70
0
 10
183.460566
 20
65.233650
 30
0.0
 10
183.460566
 20
78.233479
 30
0.0
  0
SPLINE
  5
2a3
100
AcDbEntity
  8
0
 62
5
100
AcDbSpline
 70
8
 71
3
 72
8
 73
4
 74
0
 40
0
 40
0
 40
0
 40
0
 40
1
 40
1
 40
1
 40
1
 10
169.960500
 20
78.733716
 30
0.0
 10
169.686392
 20
78.733716
 30
0.0
 10
169.460615
 20
78.507939
 30
0.0
 10
169.460615
 20
78.233479
 30
0.0
  0
LWPOLYLINE
  5
2a4
100
AcDbEntity
  8
0
 62
5
100
AcDbPolyline
 90
2
 70
0
 10
182.960681
 20
78.733716
 30
0.0
 10
169.960500
 20
78.733716
 30
0.0
  0
SPLINE
  5
2a5
100
AcDbEntity
  8
0
 62
5
100
AcDbSpline
 70
8
 71
3
 72
8
 73
4
 74
0
 40
0
 40
0
 40
0
 40
0
 40
1
 40
1
 40
1
 40
1
 10
169.460615
 20
65.233650
 30
0.0
 10
169.460615
 20
64.959190
 30
0.0
 10
169.686392
 20
64.733413
 30
0.0
 10
169.960500
 20
64.733413
 30
0.0
  0
LWPOLYLINE
  5
2a6
100
AcDbEntity
  8
0
 62
5
100
AcDbPolyline
 90
2
 70
0
 10
169.460615
 20
78.233479
 30
0.0
 10
169.460615
 20
65.233650
 30
0.0
  0
SPLINE
  5
2a7
100
AcDbEntity
  8
0
 62
5
100
AcDbSpline
 70
8
 71
3
 72
8
 73
4
 74
0
 40
0
 40
0
 40
0
 40
0
 40
1
 40
1
 40
1
 40
1
 10
182.960681
 20
64.733413
 30
0.0
 10
183.234789
 20
64.733413
 30
0.0
 10
183.460566
 20
64.959190
 30
0.0
 10
183.460566
 20
65.233650
 30
0.0
  0
LWPOLYLINE
  5
2a8
100
AcDbEntity
  8
0
 62
5
100
AcDbPolyline
 90
2
 70
0
 10
169.960500
 20
64.733413
 30
0.0
 10
182.960681
 20
64.733413
 30
0.0
  0
LWPOLYLINE
  5
2a9
100
AcDbEntity
  8
0
 62
5
100
AcDbPolyline
 90
1
 70
1
 10
183.460566
 20
65.233650
 30
0.0
  0
SPLINE
  5
2aa
100
AcDbEntity
  8
0
 62
5
100
AcDbSpline
 70
8
 71
3
 72
8
 73
4
 74
0
 40
0
 40
0
 40
0
 40
0
 40
1
 40
1
 40
1
 40
1
 10
12.798393
 20
78.733716
 30
0.0
 10
12.524285
 20
78.733716
 30
0.0
 10
12.298508
 20
78.507939
 30
0.0
 10
12.298508
 20
78.233479
 30
0.0
  0
LWPOLYLINE
  5
2ab
100
AcDbEntity
  8
0
 62
5
100
AcDbPolyline
 90
2
 70
0
 10
25.798574
 20
78.733716
 30
0.0
 10
12.798393
 20
78.733716
 30
0.0
  0
SPLINE
  5
2ac
100
AcDbEntity
  8
0
 62
5
100
AcDbSpline
 70
8
 71
3
 72
8
 73
4
 74
0
 40
0
 40
0
 40
0
 40
0
 40
1
 40
1
 40
1
 40
1
 10
12.298508
 20
65.233650
 30
0.0
 10
12.298508
 20
64.959190
 30
0.0
 10
12.524285
 20
64.733413
 30
0.0
 10
12.798393
 20
64.733413
 30
0.0
  0
LWPOLYLINE
  5
2ad
100
AcDbEntity
  8
0
 62
5
100
AcDbPolyline
 90
2
 70
0
 10
12.298508
 20
78.233479
 30
0.0
 10
12.298508
 20
65.233650
 30
0.0
  0
SPLINE
  5
2ae
100
AcDbEntity
  8
0
 62
5
100
AcDbSpline
 70
8
 71
3
 72
8
 73
4
 74
0
 40
0
 40
0
 40
0
 40
0
 40
1
 40
1
 40
1
 40
1
 10
25.798574
 20
64.733413
 30
0.0
 10
26.072682
 20
64.733413
 30
0.0
 10
26.298459
 20
64.959190
 30
0.0
 10
26.298459
 20
65.233650
 30
0.0
  0
LWPOLYLINE
  5
2af
100
AcDbEntity
  8
0
 62
5
100
AcDbPolyline
 90
2
 70
0
 10
12.798393
 20
64.733413
 30
0.0
 10
25.798574
 20
64.733413
 30
0.0
  0
SPLINE
  5
2b0
100
AcDbEntity
  8
0
 62
5
100
AcDbSpline
 70
8
 71
3
 72
8
 73
4
 74
0
 40
0
 40
0
 40
0
 40
0
 40
1
 40
1
 40
1
 40
1
 10
26.298459
 20
78.233479
 30
0.0
 10
26.298459
 20
78.507939
 30
0.0
 10
26.072682
 20
78.733716
 30
0.0
 10
25.798574
 20
78.733716
 30
0.0
  0
LWPOLYLINE
  5
2b1
100
AcDbEntity
  8
0
 62
5
100
AcDbPolyline
 90
2
 70
0
 10
26.298459
 20
65.233650
 30
0.0
 10
26.298459
 20
78.233479
 30
0.0
  0
LWPOLYLINE
  5
2b2
100
AcDbEntity
  8
0
 62
5
100
AcDbPolyline
 90
1
 70
1
 10
25.798574
 20
78.733716
 30
0.0
  0
SPLINE
  5
2b3
100
AcDbEntity
  8
0
 62
5
100
AcDbSpline
 70
8
 71
3
 72
8
 73
4
 74
0
 40
0
 40
0
 40
0
 40
0
 40
1
 40
1
 40
1
 40
1
 10
145.360662
 20
78.233479
 30
0.0
 10
145.360662
 20
78.507939
 30
0.0
 10
145.134884
 20
78.733716
 30
0.0
 10
144.860777
 20
78.733716
 30
0.0
  0
LWPOLYLINE
  5
2b4
100
AcDbEntity
  8
0
 62
5
100
AcDbPolyline
 90
2
 70
0
 10
145.360662
 20
65.233650
 30
0.0
 10
145.360662
 20
78.233479
 30
0.0
  0
SPLINE
  5
2b5
100
AcDbEntity
  8
0
 62
5
100
AcDbSpline
 70
8
 71
3
 72
8
 73
4
 74
0
 40
0
 40
0
 40
0
 40
0
 40
1
 40
1
 40
1
 40
1
 10
131.860595
 20
78.733716
 30
0.0
 10
131.586488
 20
78.733716
 30
0.0
 10
131.360710
 20
78.507939
 30
0.0
 10
131.360710
 20
78.233479
 30
0.0
  0
LWPOLYLINE
  5
2b6
100
AcDbEntity
  8
0
 62
5
100
AcDbPolyline
 90
2
 70
0
 10
144.860777
 20
78.733716
 30
0.0
 10
131.860595
 20
78.733716
 30
0.0
  0
SPLINE
  5
2b7
100
AcDbEntity
  8
0
 62
5
100
AcDbSpline
 70
8
 71
3
 72
8
 73
4
 74
0
 40
0
 40
0
 40
0
 40
0
 40
1
 40
1
 40
1
 40
1
 10
131.360710
 20
65.233650
 30
0.0
 10
131.360710
 20
64.959190
 30
0.0
 10
131.586488
 20
64.733413
 30
0.0
 10
131.860595
 20
64.733413
 30
0.0
  0
LWPOLYLINE
  5
2b8
100
AcDbEntity
  8
0
 62
5
100
AcDbPolyline
 90
2
 70
0
 10
131.360710
 20
78.233479
 30
0.0
 10
131.360710
 20
65.233650
 30
0.0
  0
SPLINE
  5
2b9
100
AcDbEntity
  8
0
 62
5
100
AcDbSpline
 70
8
 71
3
 72
8
 73
4
 74
0
 40
0
 40
0
 40
0
 40
0
 40
1
 40
1
 40
1
 40
1
 10
144.860777
 20
64.733413
 30
0.0
 10
145.134884
 20
64.733413
 30
0.0
 10
145.360662
 20
64.959190
 30
0.0
 10
145.360662
 20
65.233650
 30
0.0
  0
LWPOLYLINE
  5
2ba
100
AcDbEntity
  8
0
 62
5
100
AcDbPolyline
 90
2
 70
0
 10
131.860595
 20
64.733413
 30
0.0
 10
144.860777
 20
64.733413
 30
0.0
  0
LWPOLYLINE
  5
2bb
100
AcDbEntity
  8
0
 62
5
100
AcDbPolyline
 90
1
 70
1
 10
145.360662
 20
65.233650
 30
0.0
  0
SPLINE
  5
2bc
100
AcDbEntity
  8
0
 62
5
100
AcDbSpline
 70
8
 71
3
 72
8
 73
4
 74
0
 40
0
 40
0
 40
0
 40
0
 40
1
 40
1
 40
1
 40
1
 10
126.310709
 20
78.233479
 30
0.0
 10
126.310709
 20
78.507939
 30
0.0
 10
126.084932
 20
78.733716
 30
0.0
 10
125.810824
 20
78.733716
 30
0.0
  0
LWPOLYLINE
  5
2bd
100
AcDbEntity
  8
0
 62
5
100
AcDbPolyline
 90
2
 70
0
 10
126.310709
 20
65.233650
 30
0.0
 10
126.310709
 20
78.233479
 30
0.0
  0
SPLINE
  5
2be
100
AcDbEntity
  8
0
 62
5
100
AcDbSpline
 70
8
 71
3
 72
8
 73
4
 74
0
 40
0
 40
0
 40
0
 40
0
 40
1
 40
1
 40
1
 40
1
 10
112.810643
 20
78.733716
 30
0.0
 10
112.536535
 20
78.733716
 30
0.0
 10
112.310758
 20
78.507939
 30
0.0
 10
112.310758
 20
78.233479
 30
0.0
  0
LWPOLYLINE
  5
2bf
100
AcDbEntity
  8
0
 62
5
100
AcDbPolyline
 90
2
 70
0
 10
125.810824
 20
78.733716
 30
0.0
 10
112.810643
 20
78.733716
 30
0.0
  0
SPLINE
  5
2c0
100
AcDbEntity
  8
0
 62
5
100
AcDbSpline
 70
8
 71
3
 72
8
 73
4
 74
0
 40
0
 40
0
 40
0
 40
0
 40
1
 40
1
 40
1
 40
1
 10
112.310758
 20
65.233650
 30
0.0
 10
112.310758
 20
64.959190
 30
0.0
 10
112.536535
 20
64.733413
 30
0.0
 10
112.810643
 20
64.733413
 30
0.0
  0
LWPOLYLINE
  5
2c1
100
AcDbEntity
  8
0
 62
5
100
AcDbPolyline
 90
2
 70
0
 10
112.310758
 20
78.233479
 30
0.0
 10
112.310758
 20
65.233650
 30
0.0
  0
SPLINE
  5
2c2
100
AcDbEntity
  8
0
 62
5
100
AcDbSpline
 70
8
 71
3
 72
8
 73
4
 74
0
 40
0
 40
0
 40
0
 40
0
 40
1
 40
1
 40
1
 40
1
 10
125.810824
 20
64.733413
 30
0.0
 10
126.084932
 20
64.733413
 30
0.0
 10
126.310709
 20
64.959190
 30
0.0
 10
126.310709
 20
65.233650
 30
0.0
  0
LWPOLYLINE
  5
2c3
100
AcDbEntity
  8
0
 62
5
100
AcDbPolyline
 90
2
 70
0
 10
112.810643
 20
64.733413
 30
0.0
 10
125.810824
 20
64.733413
 30
0.0
  0
LWPOLYLINE
  5
2c4
100
AcDbEntity
  8
0
 62
5
100
AcDbPolyline
 90
1
 70
1
 10
126.310709
 20
65.233650
 30
0.0
  0
SPLINE
  5
2c5
100
AcDbEntity
  8
0
 62
5
100
AcDbSpline
 70
8
 71
3
 72
8
 73
4
 74
0
 40
0
 40
0
 40
0
 40
0
 40
1
 40
1
 40
1
 40
1
 10
164.410614
 20
78.233479
 30
0.0
 10
164.410614
 20
78.507939
 30
0.0
 10
164.184837
 20
78.733716
 30
0.0
 10
163.910729
 20
78.733716
 30
0.0
  0
LWPOLYLINE
  5
2c6
100
AcDbEntity
  8
0
 62
5
100
AcDbPolyline
 90
2
 70
0
 10
164.410614
 20
65.233650
 30
0.0
 10
164.410614
 20
78.233479
 30
0.0
  0
SPLINE
  5
2c7
100
AcDbEntity
  8
0
 62
5
100
AcDbSpline
 70
8
 71
3
 72
8
 73
4
 74
0
 40
0
 40
0
 40
0
 40
0
 40
1
 40
1
 40
1
 40
1
 10
150.910548
 20
78.733716
 30
0.0
 10
150.636440
 20
78.733716
 30
0.0
 10
150.410663
 20
78.507939
 30
0.0
 10
150.410663
 20
78.233479
 30
0.0
  0
LWPOLYLINE
  5
2c8
100
AcDbEntity
  8
0
 62
5
100
AcDbPolyline
 90
2
 70
0
 10
163.910729
 20
78.733716
 30
0.0
 10
150.910548
 20
78.733716
 30
0.0
  0
SPLINE
  5
2c9
100
AcDbEntity
  8
0
 62
5
100
AcDbSpline
 70
8
 71
3
 72
8
 73
4
 74
0
 40
0
 40
0
 40
0
 40
0
 40
1
 40
1
 40
1
 40
1
 10
150.410663
 20
65.233650
 30
0.0
 10
150.410663
 20
64.959190
 30
0.0
 10
150.636440
 20
64.733413
 30
0.0
 10
150.910548
 20
64.733413
 30
0.0
  0
LWPOLYLINE
  5
2ca
100
AcDbEntity
  8
0
 62
5
100
AcDbPolyline
 90
2
 70
0
 10
150.410663
 20
78.233479
 30
0.0
 10
150.410663
 20
65.233650
 30
0.0
  0
SPLINE
  5
2cb
100
AcDbEntity
  8
0
 62
5
100
AcDbSpline
 70
8
 71
3
 72
8
 73
4
 74
0
 40
0
 40
0
 40
0
 40
0
 40
1
 40
1
 40
1
 40
1
 10
163.910729
 20
64.733413
 30
0.0
 10
164.184837
 20
64.733413
 30
0.0
 10
164.410614
 20
64.959190
 30
0.0
 10
164.410614
 20
65.233650
 30
0.0
  0
LWPOLYLINE
  5
2cc
100
AcDbEntity
  8
0
 62
5
100
AcDbPolyline
 90
2
 70
0
 10
150.910548
 20
64.733413
 30
0.0
 10
163.910729
 20
64.733413
 30
0.0
  0
LWPOLYLINE
  5
2cd
100
AcDbEntity
  8
0
 62
5
100
AcDbPolyline
 90
1
 70
1
 10
164.410614
 20
65.233650
 30
0.0
  0
SPLINE
  5
2ce
100
AcDbEntity
  8
0
 62
5
100
AcDbSpline
 70
8
 71
3
 72
8
 73
4
 74
0
 40
0
 40
0
 40
0
 40
0
 40
1
 40
1
 40
1
 40
1
 10
88.210804
 20
78.233479
 30
0.0
 10
88.210804
 20
78.507939
 30
0.0
 10
87.985027
 20
78.733716
 30
0.0
 10
87.710920
 20
78.733716
 30
0.0
  0
LWPOLYLINE
  5
2cf
100
AcDbEntity
  8
0
 62
5
100
AcDbPolyline
 90
2
 70
0
 10
88.210804
 20
65.233650
 30
0.0
 10
88.210804
 20
78.233479
 30
0.0
  0
SPLINE
  5
2d0
100
AcDbEntity
  8
0
 62
5
100
AcDbSpline
 70
8
 71
3
 72
8
 73
4
 74
0
 40
0
 40
0
 40
0
 40
0
 40
1
 40
1
 40
1
 40
1
 10
74.710738
 20
78.733716
 30
0.0
 10
74.436631
 20
78.733716
 30
0.0
 10
74.210853
 20
78.507939
 30
0.0
 10
74.210853
 20
78.233479
 30
0.0
  0
LWPOLYLINE
  5
2d1
100
AcDbEntity
  8
0
 62
5
100
AcDbPolyline
 90
2
 70
0
 10
87.710920
 20
78.733716
 30
0.0
 10
74.710738
 20
78.733716
 30
0.0
  0
SPLINE
  5
2d2
100
AcDbEntity
  8
0
 62
5
100
AcDbSpline
 70
8
 71
3
 72
8
 73
4
 74
0
 40
0
 40
0
 40
0
 40
0
 40
1
 40
1
 40
1
 40
1
 10
74.210853
 20
65.233650
 30
0.0
 10
74.210853
 20
64.959190
 30
0.0
 10
74.436631
 20
64.733413
 30
0.0
 10
74.710738
 20
64.733413
 30
0.0
  0
LWPOLYLINE
  5
2d3
100
AcDbEntity
  8
0
 62
5
100
AcDbPolyline
 90
2
 70
0
 10
74.210853
 20
78.233479
 30
0.0
 10
74.210853
 20
65.233650
 30
0.0
  0
SPLINE
  5
2d4
100
AcDbEntity
  8
0
 62
5
100
AcDbSpline
 70
8
 71
3
 72
8
 73
4
 74
0
 40
0
 40
0
 40
0
 40
0
 40
1
 40
1
 40
1
 40
1
 10
87.710920
 20
64.733413
 30
0.0
 10
87.985027
 20
64.733413
 30
0.0
 10
88.210804
 20
64.959190
 30
0.0
 10
88.210804
 20
65.233650
 30
0.0
  0
LWPOLYLINE
  5
2d5
100
AcDbEntity
  8
0
 62
5
100
AcDbPolyline
 90
2
 70
0
 10
74.710738
 20
64.733413
 30
0.0
 10
87.710920
 20
64.733413
 30
0.0
  0
SPLINE
  5
2d6
100
AcDbEntity
  8
0
 62
5
100
AcDbSpline
 70
8
 71
3
 72
8
 73
4
 74
0
 40
0
 40
0
 40
0
 40
0
 40
1
 40
1
 40
1
 40
1
 10
287.735420
 20
64.733413
 30
0.0
 10
288.009527
 20
64.733413
 30
0.0
 10
288.235304
 20
64.959190
 30
0.0
 10
288.235304
 20
65.233650
 30
0.0
  0
LWPOLYLINE
  5
2d7
100
AcDbEntity
  8
0
 62
5
100
AcDbPolyline
 90
1
 70
1
 10
88.210804
 20
65.233650
 30
0.0
  0
SPLINE
  5
2d8
100
AcDbEntity
  8
0
 62
5
100
AcDbSpline
 70
8
 71
3
 72
8
 73
4
 74
0
 40
0
 40
0
 40
0
 40
0
 40
1
 40
1
 40
1
 40
1
 10
250.922798
 20
78.733716
 30
0.0
 10
250.648690
 20
78.733716
 30
0.0
 10
250.422913
 20
78.507939
 30
0.0
 10
250.422913
 20
78.233479
 30
0.0
  0
LWPOLYLINE
  5
2d9
100
AcDbEntity
  8
0
 62
5
100
AcDbPolyline
 90
7
 70
0
 10
288.235304
 20
65.233650
 30
0.0
 10
288.235304
 20
71.983683
 30
0.0
 10
288.616656
 20
71.983683
 30
0.0
 10
288.616656
 20
80.982669
 30
0.0
 10
285.854060
 20
80.982669
 30
0.0
 10
285.854060
 20
78.733716
 30
0.0
 10
250.922798
 20
78.733716
 30
0.0
  0
SPLINE
  5
2da
100
AcDbEntity
  8
0
 62
5
100
AcDbSpline
 70
8
 71
3
 72
8
 73
4
 74
0
 40
0
 40
0
 40
0
 40
0
 40
1
 40
1
 40
1
 40
1
 10
250.422913
 20
65.233650
 30
0.0
 10
250.422913
 20
64.959190
 30
0.0
 10
250.648690
 20
64.733413
 30
0.0
 10
250.922798
 20
64.733413
 30
0.0
  0
LWPOLYLINE
  5
2db
100
AcDbEntity
  8
0
 62
5
100
AcDbPolyline
 90
2
 70
0
 10
250.422913
 20
78.233479
 30
0.0
 10
250.422913
 20
65.233650
 30
0.0
  0
LWPOLYLINE
  5
2dc
100
AcDbEntity
  8
0
 62
5
100
AcDbPolyline
 90
3
 70
0
 10
250.922798
 20
64.733413
 30
0.0
 10
287.735420
 20
64.733413
 30
0.0
 10
287.735420
 20
64.733413
 30
0.0
  0
SPLINE
  5
2dd
100
AcDbEntity
  8
0
 62
5
100
AcDbSpline
 70
8
 71
3
 72
8
 73
4
 74
0
 40
0
 40
0
 40
0
 40
0
 40
1
 40
1
 40
1
 40
1
 10
107.260757
 20
78.233479
 30
0.0
 10
107.260757
 20
78.507939
 30
0.0
 10
107.034980
 20
78.733716
 30
0.0
 10
106.760872
 20
78.733716
 30
0.0
  0
LWPOLYLINE
  5
2de
100
AcDbEntity
  8
0
 62
5
100
AcDbPolyline
 90
2
 70
0
 10
107.260757
 20
65.233650
 30
0.0
 10
107.260757
 20
78.233479
 30
0.0
  0
SPLINE
  5
2df
100
AcDbEntity
  8
0
 62
5
100
AcDbSpline
 70
8
 71
3
 72
8
 73
4
 74
0
 40
0
 40
0
 40
0
 40
0
 40
1
 40
1
 40
1
 40
1
 10
93.760691
 20
78.733716
 30
0.0
 10
93.486583
 20
78.733716
 30
0.0
 10
93.260806
 20
78.507939
 30
0.0
 10
93.260806
 20
78.233479
 30
0.0
  0
LWPOLYLINE
  5
2e0
100
AcDbEntity
  8
0
 62
5
100
AcDbPolyline
 90
2
 70
0
 10
106.760872
 20
78.733716
 30
0.0
 10
93.760691
 20
78.733716
 30
0.0
  0
SPLINE
  5
2e1
100
AcDbEntity
  8
0
 62
5
100
AcDbSpline
 70
8
 71
3
 72
8
 73
4
 74
0
 40
0
 40
0
 40
0
 40
0
 40
1
 40
1
 40
1
 40
1
 10
93.260806
 20
65.233650
 30
0.0
 10
93.260806
 20
64.959190
 30
0.0
 10
93.486583
 20
64.733413
 30
0.0
 10
93.760691
 20
64.733413
 30
0.0
  0
LWPOLYLINE
  5
2e2
100
AcDbEntity
  8
0
 62
5
100
AcDbPolyline
 90
2
 70
0
 10
93.260806
 20
78.233479
 30
0.0
 10
93.260806
 20
65.233650
 30
0.0
  0
SPLINE
  5
2e3
100
AcDbEntity
  8
0
 62
5
100
AcDbSpline
 70
8
 71
3
 72
8
 73
4
 74
0
 40
0
 40
0
 40
0
 40
0
 40
1
 40
1
 40
1
 40
1
 10
106.760872
 20
64.733413
 30
0.0
 10
107.034980
 20
64.733413
 30
0.0
 10
107.260757
 20
64.959190
 30
0.0
 10
107.260757
 20
65.233650
 30
0.0
  0
LWPOLYLINE
  5
2e4
100
AcDbEntity
  8
0
 62
5
100
AcDbPolyline
 90
2
 70
0
 10
93.760691
 20
64.733413
 30
0.0
 10
106.760872
 20
64.733413
 30
0.0
  0
LWPOLYLINE
  5
2e5
100
AcDbEntity
  8
0
 62
5
100
AcDbPolyline
 90
1
 70
1
 10
107.260757
 20
65.233650
 30
0.0
  0
SPLINE
  5
2e6
100
AcDbEntity
  8
0
 62
5
100
AcDbSpline
 70
8
 71
3
 72
8
 73
4
 74
0
 40
0
 40
0
 40
0
 40
0
 40
1
 40
1
 40
1
 40
1
 10
221.560471
 20
78.233479
 30
0.0
 10
221.560471
 20
78.507939
 30
0.0
 10
221.334694
 20
78.733716
 30
0.0
 10
221.060586
 20
78.733716
 30
0.0
  0
LWPOLYLINE
  5
2e7
100
AcDbEntity
  8
0
 62
5
100
AcDbPolyline
 90
2
 70
0
 10
221.560471
 20
65.233650
 30
0.0
 10
221.560471
 20
78.233479
 30
0.0
  0
SPLINE
  5
2e8
100
AcDbEntity
  8
0
 62
5
100
AcDbSpline
 70
8
 71
3
 72
8
 73
4
 74
0
 40
0
 40
0
 40
0
 40
0
 40
1
 40
1
 40
1
 40
1
 10
208.060405
 20
78.733716
 30
0.0
 10
207.786297
 20
78.733716
 30
0.0
 10
207.560520
 20
78.507939
 30
0.0
 10
207.560520
 20
78.233479
 30
0.0
  0
LWPOLYLINE
  5
2e9
100
AcDbEntity
  8
0
 62
5
100
AcDbPolyline
 90
2
 70
0
 10
221.060586
 20
78.733716
 30
0.0
 10
208.060405
 20
78.733716
 30
0.0
  0
SPLINE
  5
2ea
100
AcDbEntity
  8
0
 62
5
100
AcDbSpline
 70
8
 71
3
 72
8
 73
4
 74
0
 40
0
 40
0
 40
0
 40
0
 40
1
 40
1
 40
1
 40
1
 10
207.560520
 20
65.233650
 30
0.0
 10
207.560520
 20
64.959190
 30
0.0
 10
207.786297
 20
64.733413
 30
0.0
 10
208.060405
 20
64.733413
 30
0.0
  0
LWPOLYLINE
  5
2eb
100
AcDbEntity
  8
0
 62
5
100
AcDbPolyline
 90
2
 70
0
 10
207.560520
 20
78.233479
 30
0.0
 10
207.560520
 20
65.233650
 30
0.0
  0
SPLINE
  5
2ec
100
AcDbEntity
  8
0
 62
5
100
AcDbSpline
 70
8
 71
3
 72
8
 73
4
 74
0
 40
0
 40
0
 40
0
 40
0
 40
1
 40
1
 40
1
 40
1
 10
221.060586
 20
64.733413
 30
0.0
 10
221.334694
 20
64.733413
 30
0.0
 10
221.560471
 20
64.959190
 30
0.0
 10
221.560471
 20
65.233650
 30
0.0
  0
LWPOLYLINE
  5
2ed
100
AcDbEntity
  8
0
 62
5
100
AcDbPolyline
 90
2
 70
0
 10
208.060405
 20
64.733413
 30
0.0
 10
221.060586
 20
64.733413
 30
0.0
  0
SPLINE
  5
2ee
100
AcDbEntity
  8
0
 62
5
100
AcDbSpline
 70
8
 71
3
 72
8
 73
4
 74
0
 40
0
 40
0
 40
0
 40
0
 40
1
 40
1
 40
1
 40
1
 10
30.576585
 20
74.477816
 30
0.0
 10
29.251907
 20
74.477816
 30
0.0
 10
28.176291
 20
73.402199
 30
0.0
 10
28.176291
 20
72.077875
 30
0.0
  0
SPLINE
  5
2ef
100
AcDbEntity
  8
0
 62
5
100
AcDbSpline
 70
8
 71
3
 72
8
 73
4
 74
0
 40
0
 40
0
 40
0
 40
0
 40
1
 40
1
 40
1
 40
1
 10
28.176291
 20
72.077875
 30
0.0
 10
28.176291
 20
70.753197
 30
0.0
 10
29.251907
 20
69.677581
 30
0.0
 10
30.576585
 20
69.677581
 30
0.0
  0
SPLINE
  5
2f0
100
AcDbEntity
  8
0
 62
5
100
AcDbSpline
 70
8
 71
3
 72
8
 73
4
 74
0
 40
0
 40
0
 40
0
 40
0
 40
1
 40
1
 40
1
 40
1
 10
30.576585
 20
69.677581
 30
0.0
 10
31.900909
 20
69.677581
 30
0.0
 10
32.976526
 20
70.753197
 30
0.0
 10
32.976526
 20
72.077875
 30
0.0
  0
SPLINE
  5
2f1
100
AcDbEntity
  8
0
 62
5
100
AcDbSpline
 70
8
 71
3
 72
8
 73
4
 74
0
 40
0
 40
0
 40
0
 40
0
 40
1
 40
1
 40
1
 40
1
 10
32.976526
 20
72.077875
 30
0.0
 10
32.976526
 20
73.402199
 30
0.0
 10
31.900909
 20
74.477816
 30
0.0
 10
30.576585
 20
74.477816
 30
0.0
  0
LWPOLYLINE
  5
2f2
100
AcDbEntity
  8
0
 62
5
100
AcDbPolyline
 90
1
 70
1
 10
221.560471
 20
65.233650
 30
0.0
  0
LWPOLYLINE
  5
2f3
100
AcDbEntity
  8
0
 62
5
100
AcDbPolyline
 90
1
 70
1
 10
30.576585
 20
74.477816
 30
0.0
  0
SPLINE
  5
2f4
100
AcDbEntity
  8
0
 62
5
100
AcDbSpline
 70
8
 71
3
 72
8
 73
4
 74
0
 40
0
 40
0
 40
0
 40
0
 40
1
 40
1
 40
1
 40
1
 10
173.935590
 20
97.283431
 30
0.0
 10
173.935590
 20
97.557892
 30
0.0
 10
173.709813
 20
97.783669
 30
0.0
 10
173.435705
 20
97.783669
 30
0.0
  0
LWPOLYLINE
  5
2f5
100
AcDbEntity
  8
0
 62
5
100
AcDbPolyline
 90
2
 70
0
 10
173.935590
 20
84.283603
 30
0.0
 10
173.935590
 20
97.283431
 30
0.0
  0
SPLINE
  5
2f6
100
AcDbEntity
  8
0
 62
5
100
AcDbSpline
 70
8
 71
3
 72
8
 73
4
 74
0
 40
0
 40
0
 40
0
 40
0
 40
1
 40
1
 40
1
 40
1
 10
160.435524
 20
97.783669
 30
0.0
 10
160.161416
 20
97.783669
 30
0.0
 10
159.935639
 20
97.557892
 30
0.0
 10
159.935639
 20
97.283431
 30
0.0
  0
LWPOLYLINE
  5
2f7
100
AcDbEntity
  8
0
 62
5
100
AcDbPolyline
 90
2
 70
0
 10
173.435705
 20
97.783669
 30
0.0
 10
160.435524
 20
97.783669
 30
0.0
  0
SPLINE
  5
2f8
100
AcDbEntity
  8
0
 62
5
100
AcDbSpline
 70
8
 71
3
 72
8
 73
4
 74
0
 40
0
 40
0
 40
0
 40
0
 40
1
 40
1
 40
1
 40
1
 10
159.935639
 20
84.283603
 30
0.0
 10
159.935639
 20
84.009142
 30
0.0
 10
160.161416
 20
83.783365
 30
0.0
 10
160.435524
 20
83.783365
 30
0.0
  0
LWPOLYLINE
  5
2f9
100
AcDbEntity
  8
0
 62
5
100
AcDbPolyline
 90
2
 70
0
 10
159.935639
 20
97.283431
 30
0.0
 10
159.935639
 20
84.283603
 30
0.0
  0
SPLINE
  5
2fa
100
AcDbEntity
  8
0
 62
5
100
AcDbSpline
 70
8
 71
3
 72
8
 73
4
 74
0
 40
0
 40
0
 40
0
 40
0
 40
1
 40
1
 40
1
 40
1
 10
173.435705
 20
83.783365
 30
0.0
 10
173.709813
 20
83.783365
 30
0.0
 10
173.935590
 20
84.009142
 30
0.0
 10
173.935590
 20
84.283603
 30
0.0
  0
LWPOLYLINE
  5
2fb
100
AcDbEntity
  8
0
 62
5
100
AcDbPolyline
 90
2
 70
0
 10
160.435524
 20
83.783365
 30
0.0
 10
173.435705
 20
83.783365
 30
0.0
  0
LWPOLYLINE
  5
2fc
100
AcDbEntity
  8
0
 62
5
100
AcDbPolyline
 90
1
 70
1
 10
173.935590
 20
84.283603
 30
0.0
  0
SPLINE
  5
2fd
100
AcDbEntity
  8
0
 62
5
100
AcDbSpline
 70
8
 71
3
 72
8
 73
4
 74
0
 40
0
 40
0
 40
0
 40
0
 40
1
 40
1
 40
1
 40
1
 10
212.035495
 20
97.283431
 30
0.0
 10
212.035495
 20
97.557892
 30
0.0
 10
211.809718
 20
97.783669
 30
0.0
 10
211.535610
 20
97.783669
 30
0.0
  0
LWPOLYLINE
  5
2fe
100
AcDbEntity
  8
0
 62
5
100
AcDbPolyline
 90
2
 70
0
 10
212.035495
 20
84.283603
 30
0.0
 10
212.035495
 20
97.283431
 30
0.0
  0
SPLINE
  5
2ff
100
AcDbEntity
  8
0
 62
5
100
AcDbSpline
 70
8
 71
3
 72
8
 73
4
 74
0
 40
0
 40
0
 40
0
 40
0
 40
1
 40
1
 40
1
 40
1
 10
198.535429
 20
97.783669
 30
0.0
 10
198.261321
 20
97.783669
 30
0.0
 10
198.035544
 20
97.557892
 30
0.0
 10
198.035544
 20
97.283431
 30
0.0
  0
LWPOLYLINE
  5
300
100
AcDbEntity
  8
0
 62
5
100
AcDbPolyline
 90
2
 70
0
 10
211.535610
 20
97.783669
 30
0.0
 10
198.535429
 20
97.783669
 30
0.0
  0
SPLINE
  5
301
100
AcDbEntity
  8
0
 62
5
100
AcDbSpline
 70
8
 71
3
 72
8
 73
4
 74
0
 40
0
 40
0
 40
0
 40
0
 40
1
 40
1
 40
1
 40
1
 10
198.035544
 20
84.283603
 30
0.0
 10
198.035544
 20
84.009142
 30
0.0
 10
198.261321
 20
83.783365
 30
0.0
 10
198.535429
 20
83.783365
 30
0.0
  0
LWPOLYLINE
  5
302
100
AcDbEntity
  8
0
 62
5
100
AcDbPolyline
 90
2
 70
0
 10
198.035544
 20
97.283431
 30
0.0
 10
198.035544
 20
84.283603
 30
0.0
  0
SPLINE
  5
303
100
AcDbEntity
  8
0
 62
5
100
AcDbSpline
 70
8
 71
3
 72
8
 73
4
 74
0
 40
0
 40
0
 40
0
 40
0
 40
1
 40
1
 40
1
 40
1
 10
211.535610
 20
83.783365
 30
0.0
 10
211.809718
 20
83.783365
 30
0.0
 10
212.035495
 20
84.009142
 30
0.0
 10
212.035495
 20
84.283603
 30
0.0
  0
LWPOLYLINE
  5
304
100
AcDbEntity
  8
0
 62
5
100
AcDbPolyline
 90
2
 70
0
 10
198.535429
 20
83.783365
 30
0.0
 10
211.535610
 20
83.783365
 30
0.0
  0
LWPOLYLINE
  5
305
100
AcDbEntity
  8
0
 62
5
100
AcDbPolyline
 90
1
 70
1
 10
212.035495
 20
84.283603
 30
0.0
  0
SPLINE
  5
306
100
AcDbEntity
  8
0
 62
5
100
AcDbSpline
 70
8
 71
3
 72
8
 73
4
 74
0
 40
0
 40
0
 40
0
 40
0
 40
1
 40
1
 40
1
 40
1
 10
154.885638
 20
97.283431
 30
0.0
 10
154.885638
 20
97.557892
 30
0.0
 10
154.659861
 20
97.783669
 30
0.0
 10
154.385753
 20
97.783669
 30
0.0
  0
LWPOLYLINE
  5
307
100
AcDbEntity
  8
0
 62
5
100
AcDbPolyline
 90
2
 70
0
 10
154.885638
 20
84.283603
 30
0.0
 10
154.885638
 20
97.283431
 30
0.0
  0
SPLINE
  5
308
100
AcDbEntity
  8
0
 62
5
100
AcDbSpline
 70
8
 71
3
 72
8
 73
4
 74
0
 40
0
 40
0
 40
0
 40
0
 40
1
 40
1
 40
1
 40
1
 10
141.385572
 20
97.783669
 30
0.0
 10
141.111464
 20
97.783669
 30
0.0
 10
140.885687
 20
97.557892
 30
0.0
 10
140.885687
 20
97.283431
 30
0.0
  0
LWPOLYLINE
  5
309
100
AcDbEntity
  8
0
 62
5
100
AcDbPolyline
 90
2
 70
0
 10
154.385753
 20
97.783669
 30
0.0
 10
141.385572
 20
97.783669
 30
0.0
  0
SPLINE
  5
30a
100
AcDbEntity
  8
0
 62
5
100
AcDbSpline
 70
8
 71
3
 72
8
 73
4
 74
0
 40
0
 40
0
 40
0
 40
0
 40
1
 40
1
 40
1
 40
1
 10
140.885687
 20
84.283603
 30
0.0
 10
140.885687
 20
84.009142
 30
0.0
 10
141.111464
 20
83.783365
 30
0.0
 10
141.385572
 20
83.783365
 30
0.0
  0
LWPOLYLINE
  5
30b
100
AcDbEntity
  8
0
 62
5
100
AcDbPolyline
 90
2
 70
0
 10
140.885687
 20
97.283431
 30
0.0
 10
140.885687
 20
84.283603
 30
0.0
  0
SPLINE
  5
30c
100
AcDbEntity
  8
0
 62
5
100
AcDbSpline
 70
8
 71
3
 72
8
 73
4
 74
0
 40
0
 40
0
 40
0
 40
0
 40
1
 40
1
 40
1
 40
1
 10
154.385753
 20
83.783365
 30
0.0
 10
154.659861
 20
83.783365
 30
0.0
 10
154.885638
 20
84.009142
 30
0.0
 10
154.885638
 20
84.283603
 30
0.0
  0
LWPOLYLINE
  5
30d
100
AcDbEntity
  8
0
 62
5
100
AcDbPolyline
 90
2
 70
0
 10
141.385572
 20
83.783365
 30
0.0
 10
154.385753
 20
83.783365
 30
0.0
  0
LWPOLYLINE
  5
30e
100
AcDbEntity
  8
0
 62
5
100
AcDbPolyline
 90
1
 70
1
 10
154.885638
 20
84.283603
 30
0.0
  0
SPLINE
  5
30f
100
AcDbEntity
  8
0
 62
5
100
AcDbSpline
 70
8
 71
3
 72
8
 73
4
 74
0
 40
0
 40
0
 40
0
 40
0
 40
1
 40
1
 40
1
 40
1
 10
135.835685
 20
97.283431
 30
0.0
 10
135.835685
 20
97.557892
 30
0.0
 10
135.609908
 20
97.783669
 30
0.0
 10
135.335801
 20
97.783669
 30
0.0
  0
LWPOLYLINE
  5
310
100
AcDbEntity
  8
0
 62
5
100
AcDbPolyline
 90
2
 70
0
 10
135.835685
 20
84.283603
 30
0.0
 10
135.835685
 20
97.283431
 30
0.0
  0
SPLINE
  5
311
100
AcDbEntity
  8
0
 62
5
100
AcDbSpline
 70
8
 71
3
 72
8
 73
4
 74
0
 40
0
 40
0
 40
0
 40
0
 40
1
 40
1
 40
1
 40
1
 10
122.335619
 20
97.783669
 30
0.0
 10
122.061512
 20
97.783669
 30
0.0
 10
121.835734
 20
97.557892
 30
0.0
 10
121.835734
 20
97.283431
 30
0.0
  0
LWPOLYLINE
  5
312
100
AcDbEntity
  8
0
 62
5
100
AcDbPolyline
 90
2
 70
0
 10
135.335801
 20
97.783669
 30
0.0
 10
122.335619
 20
97.783669
 30
0.0
  0
SPLINE
  5
313
100
AcDbEntity
  8
0
 62
5
100
AcDbSpline
 70
8
 71
3
 72
8
 73
4
 74
0
 40
0
 40
0
 40
0
 40
0
 40
1
 40
1
 40
1
 40
1
 10
121.835734
 20
84.283603
 30
0.0
 10
121.835734
 20
84.009142
 30
0.0
 10
122.061512
 20
83.783365
 30
0.0
 10
122.335619
 20
83.783365
 30
0.0
  0
LWPOLYLINE
  5
314
100
AcDbEntity
  8
0
 62
5
100
AcDbPolyline
 90
2
 70
0
 10
121.835734
 20
97.283431
 30
0.0
 10
121.835734
 20
84.283603
 30
0.0
  0
SPLINE
  5
315
100
AcDbEntity
  8
0
 62
5
100
AcDbSpline
 70
8
 71
3
 72
8
 73
4
 74
0
 40
0
 40
0
 40
0
 40
0
 40
1
 40
1
 40
1
 40
1
 10
135.335801
 20
83.783365
 30
0.0
 10
135.609908
 20
83.783365
 30
0.0
 10
135.835685
 20
84.009142
 30
0.0
 10
135.835685
 20
84.283603
 30
0.0
  0
LWPOLYLINE
  5
316
100
AcDbEntity
  8
0
 62
5
100
AcDbPolyline
 90
2
 70
0
 10
122.335619
 20
83.783365
 30
0.0
 10
135.335801
 20
83.783365
 30
0.0
  0
LWPOLYLINE
  5
317
100
AcDbEntity
  8
0
 62
5
100
AcDbPolyline
 90
1
 70
1
 10
135.835685
 20
84.283603
 30
0.0
  0
SPLINE
  5
318
100
AcDbEntity
  8
0
 62
5
100
AcDbSpline
 70
8
 71
3
 72
8
 73
4
 74
0
 40
0
 40
0
 40
0
 40
0
 40
1
 40
1
 40
1
 40
1
 10
231.085447
 20
97.283431
 30
0.0
 10
231.085447
 20
97.557892
 30
0.0
 10
230.859670
 20
97.783669
 30
0.0
 10
230.585562
 20
97.783669
 30
0.0
  0
LWPOLYLINE
  5
319
100
AcDbEntity
  8
0
 62
5
100
AcDbPolyline
 90
2
 70
0
 10
231.085447
 20
84.283603
 30
0.0
 10
231.085447
 20
97.283431
 30
0.0
  0
SPLINE
  5
31a
100
AcDbEntity
  8
0
 62
5
100
AcDbSpline
 70
8
 71
3
 72
8
 73
4
 74
0
 40
0
 40
0
 40
0
 40
0
 40
1
 40
1
 40
1
 40
1
 10
217.585381
 20
97.783669
 30
0.0
 10
217.311273
 20
97.783669
 30
0.0
 10
217.085496
 20
97.557892
 30
0.0
 10
217.085496
 20
97.283431
 30
0.0
  0
LWPOLYLINE
  5
31b
100
AcDbEntity
  8
0
 62
5
100
AcDbPolyline
 90
2
 70
0
 10
230.585562
 20
97.783669
 30
0.0
 10
217.585381
 20
97.783669
 30
0.0
  0
SPLINE
  5
31c
100
AcDbEntity
  8
0
 62
5
100
AcDbSpline
 70
8
 71
3
 72
8
 73
4
 74
0
 40
0
 40
0
 40
0
 40
0
 40
1
 40
1
 40
1
 40
1
 10
217.085496
 20
84.283603
 30
0.0
 10
217.085496
 20
84.009142
 30
0.0
 10
217.311273
 20
83.783365
 30
0.0
 10
217.585381
 20
83.783365
 30
0.0
  0
LWPOLYLINE
  5
31d
100
AcDbEntity
  8
0
 62
5
100
AcDbPolyline
 90
2
 70
0
 10
217.085496
 20
97.283431
 30
0.0
 10
217.085496
 20
84.283603
 30
0.0
  0
SPLINE
  5
31e
100
AcDbEntity
  8
0
 62
5
100
AcDbSpline
 70
8
 71
3
 72
8
 73
4
 74
0
 40
0
 40
0
 40
0
 40
0
 40
1
 40
1
 40
1
 40
1
 10
230.585562
 20
83.783365
 30
0.0
 10
230.859670
 20
83.783365
 30
0.0
 10
231.085447
 20
84.009142
 30
0.0
 10
231.085447
 20
84.283603
 30
0.0
  0
LWPOLYLINE
  5
31f
100
AcDbEntity
  8
0
 62
5
100
AcDbPolyline
 90
2
 70
0
 10
217.585381
 20
83.783365
 30
0.0
 10
230.585562
 20
83.783365
 30
0.0
  0
LWPOLYLINE
  5
320
100
AcDbEntity
  8
0
 62
5
100
AcDbPolyline
 90
1
 70
1
 10
231.085447
 20
84.283603
 30
0.0
  0
SPLINE
  5
321
100
AcDbEntity
  8
0
 62
5
100
AcDbSpline
 70
8
 71
3
 72
8
 73
4
 74
0
 40
0
 40
0
 40
0
 40
0
 40
1
 40
1
 40
1
 40
1
 10
78.685828
 20
97.283431
 30
0.0
 10
78.685828
 20
97.557892
 30
0.0
 10
78.460051
 20
97.783669
 30
0.0
 10
78.185943
 20
97.783669
 30
0.0
  0
LWPOLYLINE
  5
322
100
AcDbEntity
  8
0
 62
5
100
AcDbPolyline
 90
2
 70
0
 10
78.685828
 20
84.283603
 30
0.0
 10
78.685828
 20
97.283431
 30
0.0
  0
SPLINE
  5
323
100
AcDbEntity
  8
0
 62
5
100
AcDbSpline
 70
8
 71
3
 72
8
 73
4
 74
0
 40
0
 40
0
 40
0
 40
0
 40
1
 40
1
 40
1
 40
1
 10
65.185762
 20
97.783669
 30
0.0
 10
64.911654
 20
97.783669
 30
0.0
 10
64.685877
 20
97.557892
 30
0.0
 10
64.685877
 20
97.283431
 30
0.0
  0
LWPOLYLINE
  5
324
100
AcDbEntity
  8
0
 62
5
100
AcDbPolyline
 90
2
 70
0
 10
78.185943
 20
97.783669
 30
0.0
 10
65.185762
 20
97.783669
 30
0.0
  0
SPLINE
  5
325
100
AcDbEntity
  8
0
 62
5
100
AcDbSpline
 70
8
 71
3
 72
8
 73
4
 74
0
 40
0
 40
0
 40
0
 40
0
 40
1
 40
1
 40
1
 40
1
 10
64.685877
 20
84.283603
 30
0.0
 10
64.685877
 20
84.009142
 30
0.0
 10
64.911654
 20
83.783365
 30
0.0
 10
65.185762
 20
83.783365
 30
0.0
  0
LWPOLYLINE
  5
326
100
AcDbEntity
  8
0
 62
5
100
AcDbPolyline
 90
2
 70
0
 10
64.685877
 20
97.283431
 30
0.0
 10
64.685877
 20
84.283603
 30
0.0
  0
SPLINE
  5
327
100
AcDbEntity
  8
0
 62
5
100
AcDbSpline
 70
8
 71
3
 72
8
 73
4
 74
0
 40
0
 40
0
 40
0
 40
0
 40
1
 40
1
 40
1
 40
1
 10
78.185943
 20
83.783365
 30
0.0
 10
78.460051
 20
83.783365
 30
0.0
 10
78.685828
 20
84.009142
 30
0.0
 10
78.685828
 20
84.283603
 30
0.0
  0
LWPOLYLINE
  5
328
100
AcDbEntity
  8
0
 62
5
100
AcDbPolyline
 90
2
 70
0
 10
65.185762
 20
83.783365
 30
0.0
 10
78.185943
 20
83.783365
 30
0.0
  0
LWPOLYLINE
  5
329
100
AcDbEntity
  8
0
 62
5
100
AcDbPolyline
 90
1
 70
1
 10
78.685828
 20
84.283603
 30
0.0
  0
SPLINE
  5
32a
100
AcDbEntity
  8
0
 62
5
100
AcDbSpline
 70
8
 71
3
 72
8
 73
4
 74
0
 40
0
 40
0
 40
0
 40
0
 40
1
 40
1
 40
1
 40
1
 10
250.135400
 20
97.283431
 30
0.0
 10
250.135400
 20
97.557892
 30
0.0
 10
249.909622
 20
97.783669
 30
0.0
 10
249.635515
 20
97.783669
 30
0.0
  0
LWPOLYLINE
  5
32b
100
AcDbEntity
  8
0
 62
5
100
AcDbPolyline
 90
2
 70
0
 10
250.135400
 20
84.283603
 30
0.0
 10
250.135400
 20
97.283431
 30
0.0
  0
SPLINE
  5
32c
100
AcDbEntity
  8
0
 62
5
100
AcDbSpline
 70
8
 71
3
 72
8
 73
4
 74
0
 40
0
 40
0
 40
0
 40
0
 40
1
 40
1
 40
1
 40
1
 10
236.635333
 20
97.783669
 30
0.0
 10
236.361226
 20
97.783669
 30
0.0
 10
236.135449
 20
97.557892
 30
0.0
 10
236.135449
 20
97.283431
 30
0.0
  0
LWPOLYLINE
  5
32d
100
AcDbEntity
  8
0
 62
5
100
AcDbPolyline
 90
2
 70
0
 10
249.635515
 20
97.783669
 30
0.0
 10
236.635333
 20
97.783669
 30
0.0
  0
SPLINE
  5
32e
100
AcDbEntity
  8
0
 62
5
100
AcDbSpline
 70
8
 71
3
 72
8
 73
4
 74
0
 40
0
 40
0
 40
0
 40
0
 40
1
 40
1
 40
1
 40
1
 10
236.135449
 20
84.283603
 30
0.0
 10
236.135449
 20
84.009142
 30
0.0
 10
236.361226
 20
83.783365
 30
0.0
 10
236.635333
 20
83.783365
 30
0.0
  0
LWPOLYLINE
  5
32f
100
AcDbEntity
  8
0
 62
5
100
AcDbPolyline
 90
2
 70
0
 10
236.135449
 20
97.283431
 30
0.0
 10
236.135449
 20
84.283603
 30
0.0
  0
SPLINE
  5
330
100
AcDbEntity
  8
0
 62
5
100
AcDbSpline
 70
8
 71
3
 72
8
 73
4
 74
0
 40
0
 40
0
 40
0
 40
0
 40
1
 40
1
 40
1
 40
1
 10
249.635515
 20
83.783365
 30
0.0
 10
249.909622
 20
83.783365
 30
0.0
 10
250.135400
 20
84.009142
 30
0.0
 10
250.135400
 20
84.283603
 30
0.0
  0
LWPOLYLINE
  5
331
100
AcDbEntity
  8
0
 62
5
100
AcDbPolyline
 90
2
 70
0
 10
236.635333
 20
83.783365
 30
0.0
 10
249.635515
 20
83.783365
 30
0.0
  0
LWPOLYLINE
  5
332
100
AcDbEntity
  8
0
 62
5
100
AcDbPolyline
 90
1
 70
1
 10
250.135400
 20
84.283603
 30
0.0
  0
SPLINE
  5
333
100
AcDbEntity
  8
0
 62
5
100
AcDbSpline
 70
8
 71
3
 72
8
 73
4
 74
0
 40
0
 40
0
 40
0
 40
0
 40
1
 40
1
 40
1
 40
1
 10
116.785733
 20
97.283431
 30
0.0
 10
116.785733
 20
97.557892
 30
0.0
 10
116.559956
 20
97.783669
 30
0.0
 10
116.285848
 20
97.783669
 30
0.0
  0
LWPOLYLINE
  5
334
100
AcDbEntity
  8
0
 62
5
100
AcDbPolyline
 90
2
 70
0
 10
116.785733
 20
84.283603
 30
0.0
 10
116.785733
 20
97.283431
 30
0.0
  0
SPLINE
  5
335
100
AcDbEntity
  8
0
 62
5
100
AcDbSpline
 70
8
 71
3
 72
8
 73
4
 74
0
 40
0
 40
0
 40
0
 40
0
 40
1
 40
1
 40
1
 40
1
 10
103.285667
 20
97.783669
 30
0.0
 10
103.011559
 20
97.783669
 30
0.0
 10
102.785782
 20
97.557892
 30
0.0
 10
102.785782
 20
97.283431
 30
0.0
  0
LWPOLYLINE
  5
336
100
AcDbEntity
  8
0
 62
5
100
AcDbPolyline
 90
2
 70
0
 10
116.285848
 20
97.783669
 30
0.0
 10
103.285667
 20
97.783669
 30
0.0
  0
SPLINE
  5
337
100
AcDbEntity
  8
0
 62
5
100
AcDbSpline
 70
8
 71
3
 72
8
 73
4
 74
0
 40
0
 40
0
 40
0
 40
0
 40
1
 40
1
 40
1
 40
1
 10
102.785782
 20
84.283603
 30
0.0
 10
102.785782
 20
84.009142
 30
0.0
 10
103.011559
 20
83.783365
 30
0.0
 10
103.285667
 20
83.783365
 30
0.0
  0
LWPOLYLINE
  5
338
100
AcDbEntity
  8
0
 62
5
100
AcDbPolyline
 90
2
 70
0
 10
102.785782
 20
97.283431
 30
0.0
 10
102.785782
 20
84.283603
 30
0.0
  0
SPLINE
  5
339
100
AcDbEntity
  8
0
 62
5
100
AcDbSpline
 70
8
 71
3
 72
8
 73
4
 74
0
 40
0
 40
0
 40
0
 40
0
 40
1
 40
1
 40
1
 40
1
 10
116.285848
 20
83.783365
 30
0.0
 10
116.559956
 20
83.783365
 30
0.0
 10
116.785733
 20
84.009142
 30
0.0
 10
116.785733
 20
84.283603
 30
0.0
  0
LWPOLYLINE
  5
33a
100
AcDbEntity
  8
0
 62
5
100
AcDbPolyline
 90
2
 70
0
 10
103.285667
 20
83.783365
 30
0.0
 10
116.285848
 20
83.783365
 30
0.0
  0
LWPOLYLINE
  5
33b
100
AcDbEntity
  8
0
 62
5
100
AcDbPolyline
 90
1
 70
1
 10
116.785733
 20
84.283603
 30
0.0
  0
SPLINE
  5
33c
100
AcDbEntity
  8
0
 62
5
100
AcDbSpline
 70
8
 71
3
 72
8
 73
4
 74
0
 40
0
 40
0
 40
0
 40
0
 40
1
 40
1
 40
1
 40
1
 10
21.535971
 20
97.283431
 30
0.0
 10
21.535971
 20
97.557892
 30
0.0
 10
21.310194
 20
97.783669
 30
0.0
 10
21.036086
 20
97.783669
 30
0.0
  0
LWPOLYLINE
  5
33d
100
AcDbEntity
  8
0
 62
5
100
AcDbPolyline
 90
2
 70
0
 10
21.535971
 20
84.283603
 30
0.0
 10
21.535971
 20
97.283431
 30
0.0
  0
SPLINE
  5
33e
100
AcDbEntity
  8
0
 62
5
100
AcDbSpline
 70
8
 71
3
 72
8
 73
4
 74
0
 40
0
 40
0
 40
0
 40
0
 40
1
 40
1
 40
1
 40
1
 10
8.035905
 20
97.783669
 30
0.0
 10
7.761797
 20
97.783669
 30
0.0
 10
7.536020
 20
97.557892
 30
0.0
 10
7.536020
 20
97.283431
 30
0.0
  0
LWPOLYLINE
  5
33f
100
AcDbEntity
  8
0
 62
5
100
AcDbPolyline
 90
2
 70
0
 10
21.036086
 20
97.783669
 30
0.0
 10
8.035905
 20
97.783669
 30
0.0
  0
SPLINE
  5
340
100
AcDbEntity
  8
0
 62
5
100
AcDbSpline
 70
8
 71
3
 72
8
 73
4
 74
0
 40
0
 40
0
 40
0
 40
0
 40
1
 40
1
 40
1
 40
1
 10
7.536020
 20
84.283603
 30
0.0
 10
7.536020
 20
84.009142
 30
0.0
 10
7.761797
 20
83.783365
 30
0.0
 10
8.035905
 20
83.783365
 30
0.0
  0
LWPOLYLINE
  5
341
100
AcDbEntity
  8
0
 62
5
100
AcDbPolyline
 90
2
 70
0
 10
7.536020
 20
97.283431
 30
0.0
 10
7.536020
 20
84.283603
 30
0.0
  0
SPLINE
  5
342
100
AcDbEntity
  8
0
 62
5
100
AcDbSpline
 70
8
 71
3
 72
8
 73
4
 74
0
 40
0
 40
0
 40
0
 40
0
 40
1
 40
1
 40
1
 40
1
 10
21.036086
 20
83.783365
 30
0.0
 10
21.310194
 20
83.783365
 30
0.0
 10
21.535971
 20
84.009142
 30
0.0
 10
21.535971
 20
84.283603
 30
0.0
  0
LWPOLYLINE
  5
343
100
AcDbEntity
  8
0
 62
5
100
AcDbPolyline
 90
2
 70
0
 10
8.035905
 20
83.783365
 30
0.0
 10
21.036086
 20
83.783365
 30
0.0
  0
LWPOLYLINE
  5
344
100
AcDbEntity
  8
0
 62
5
100
AcDbPolyline
 90
1
 70
1
 10
21.535971
 20
84.283603
 30
0.0
  0
SPLINE
  5
345
100
AcDbEntity
  8
0
 62
5
100
AcDbSpline
 70
8
 71
3
 72
8
 73
4
 74
0
 40
0
 40
0
 40
0
 40
0
 40
1
 40
1
 40
1
 40
1
 10
97.735781
 20
97.283431
 30
0.0
 10
97.735781
 20
97.557892
 30
0.0
 10
97.510003
 20
97.783669
 30
0.0
 10
97.235896
 20
97.783669
 30
0.0
  0
LWPOLYLINE
  5
346
100
AcDbEntity
  8
0
 62
5
100
AcDbPolyline
 90
2
 70
0
 10
97.735781
 20
84.283603
 30
0.0
 10
97.735781
 20
97.283431
 30
0.0
  0
SPLINE
  5
347
100
AcDbEntity
  8
0
 62
5
100
AcDbSpline
 70
8
 71
3
 72
8
 73
4
 74
0
 40
0
 40
0
 40
0
 40
0
 40
1
 40
1
 40
1
 40
1
 10
84.235714
 20
97.783669
 30
0.0
 10
83.961607
 20
97.783669
 30
0.0
 10
83.735830
 20
97.557892
 30
0.0
 10
83.735830
 20
97.283431
 30
0.0
  0
LWPOLYLINE
  5
348
100
AcDbEntity
  8
0
 62
5
100
AcDbPolyline
 90
2
 70
0
 10
97.235896
 20
97.783669
 30
0.0
 10
84.235714
 20
97.783669
 30
0.0
  0
SPLINE
  5
349
100
AcDbEntity
  8
0
 62
5
100
AcDbSpline
 70
8
 71
3
 72
8
 73
4
 74
0
 40
0
 40
0
 40
0
 40
0
 40
1
 40
1
 40
1
 40
1
 10
83.735830
 20
84.283603
 30
0.0
 10
83.735830
 20
84.009142
 30
0.0
 10
83.961607
 20
83.783365
 30
0.0
 10
84.235714
 20
83.783365
 30
0.0
  0
LWPOLYLINE
  5
34a
100
AcDbEntity
  8
0
 62
5
100
AcDbPolyline
 90
2
 70
0
 10
83.735830
 20
97.283431
 30
0.0
 10
83.735830
 20
84.283603
 30
0.0
  0
SPLINE
  5
34b
100
AcDbEntity
  8
0
 62
5
100
AcDbSpline
 70
8
 71
3
 72
8
 73
4
 74
0
 40
0
 40
0
 40
0
 40
0
 40
1
 40
1
 40
1
 40
1
 10
97.235896
 20
83.783365
 30
0.0
 10
97.510003
 20
83.783365
 30
0.0
 10
97.735781
 20
84.009142
 30
0.0
 10
97.735781
 20
84.283603
 30
0.0
  0
LWPOLYLINE
  5
34c
100
AcDbEntity
  8
0
 62
5
100
AcDbPolyline
 90
2
 70
0
 10
84.235714
 20
83.783365
 30
0.0
 10
97.235896
 20
83.783365
 30
0.0
  0
LWPOLYLINE
  5
34d
100
AcDbEntity
  8
0
 62
5
100
AcDbPolyline
 90
1
 70
1
 10
97.735781
 20
84.283603
 30
0.0
  0
SPLINE
  5
34e
100
AcDbEntity
  8
0
 62
5
100
AcDbSpline
 70
8
 71
3
 72
8
 73
4
 74
0
 40
0
 40
0
 40
0
 40
0
 40
1
 40
1
 40
1
 40
1
 10
40.086039
 20
83.783365
 30
0.0
 10
40.360146
 20
83.783365
 30
0.0
 10
40.585924
 20
84.009142
 30
0.0
 10
40.585924
 20
84.283603
 30
0.0
  0
LWPOLYLINE
  5
34f
100
AcDbEntity
  8
0
 62
5
100
AcDbPolyline
 90
2
 70
0
 10
27.085857
 20
83.783365
 30
0.0
 10
40.086039
 20
83.783365
 30
0.0
  0
SPLINE
  5
350
100
AcDbEntity
  8
0
 62
5
100
AcDbSpline
 70
8
 71
3
 72
8
 73
4
 74
0
 40
0
 40
0
 40
0
 40
0
 40
1
 40
1
 40
1
 40
1
 10
40.585924
 20
97.283431
 30
0.0
 10
40.585924
 20
97.557892
 30
0.0
 10
40.360146
 20
97.783669
 30
0.0
 10
40.086039
 20
97.783669
 30
0.0
  0
LWPOLYLINE
  5
351
100
AcDbEntity
  8
0
 62
5
100
AcDbPolyline
 90
2
 70
0
 10
40.585924
 20
84.283603
 30
0.0
 10
40.585924
 20
97.283431
 30
0.0
  0
SPLINE
  5
352
100
AcDbEntity
  8
0
 62
5
100
AcDbSpline
 70
8
 71
3
 72
8
 73
4
 74
0
 40
0
 40
0
 40
0
 40
0
 40
1
 40
1
 40
1
 40
1
 10
27.085857
 20
97.783669
 30
0.0
 10
26.811750
 20
97.783669
 30
0.0
 10
26.585972
 20
97.557892
 30
0.0
 10
26.585972
 20
97.283431
 30
0.0
  0
LWPOLYLINE
  5
353
100
AcDbEntity
  8
0
 62
5
100
AcDbPolyline
 90
2
 70
0
 10
40.086039
 20
97.783669
 30
0.0
 10
27.085857
 20
97.783669
 30
0.0
  0
SPLINE
  5
354
100
AcDbEntity
  8
0
 62
5
100
AcDbSpline
 70
8
 71
3
 72
8
 73
4
 74
0
 40
0
 40
0
 40
0
 40
0
 40
1
 40
1
 40
1
 40
1
 10
26.585972
 20
84.283603
 30
0.0
 10
26.585972
 20
84.009142
 30
0.0
 10
26.811750
 20
83.783365
 30
0.0
 10
27.085857
 20
83.783365
 30
0.0
  0
LWPOLYLINE
  5
355
100
AcDbEntity
  8
0
 62
5
100
AcDbPolyline
 90
2
 70
0
 10
26.585972
 20
97.283431
 30
0.0
 10
26.585972
 20
84.283603
 30
0.0
  0
LWPOLYLINE
  5
356
100
AcDbEntity
  8
0
 62
5
100
AcDbPolyline
 90
1
 70
1
 10
27.085857
 20
83.783365
 30
0.0
  0
SPLINE
  5
357
100
AcDbEntity
  8
0
 62
5
100
AcDbSpline
 70
8
 71
3
 72
8
 73
4
 74
0
 40
0
 40
0
 40
0
 40
0
 40
1
 40
1
 40
1
 40
1
 10
192.985543
 20
97.283431
 30
0.0
 10
192.985543
 20
97.557892
 30
0.0
 10
192.759765
 20
97.783669
 30
0.0
 10
192.485658
 20
97.783669
 30
0.0
  0
LWPOLYLINE
  5
358
100
AcDbEntity
  8
0
 62
5
100
AcDbPolyline
 90
2
 70
0
 10
192.985543
 20
84.283603
 30
0.0
 10
192.985543
 20
97.283431
 30
0.0
  0
SPLINE
  5
359
100
AcDbEntity
  8
0
 62
5
100
AcDbSpline
 70
8
 71
3
 72
8
 73
4
 74
0
 40
0
 40
0
 40
0
 40
0
 40
1
 40
1
 40
1
 40
1
 10
179.485476
 20
97.783669
 30
0.0
 10
179.211369
 20
97.783669
 30
0.0
 10
178.985591
 20
97.557892
 30
0.0
 10
178.985591
 20
97.283431
 30
0.0
  0
LWPOLYLINE
  5
35a
100
AcDbEntity
  8
0
 62
5
100
AcDbPolyline
 90
2
 70
0
 10
192.485658
 20
97.783669
 30
0.0
 10
179.485476
 20
97.783669
 30
0.0
  0
SPLINE
  5
35b
100
AcDbEntity
  8
0
 62
5
100
AcDbSpline
 70
8
 71
3
 72
8
 73
4
 74
0
 40
0
 40
0
 40
0
 40
0
 40
1
 40
1
 40
1
 40
1
 10
178.985591
 20
84.283603
 30
0.0
 10
178.985591
 20
84.009142
 30
0.0
 10
179.211369
 20
83.783365
 30
0.0
 10
179.485476
 20
83.783365
 30
0.0
  0
LWPOLYLINE
  5
35c
100
AcDbEntity
  8
0
 62
5
100
AcDbPolyline
 90
2
 70
0
 10
178.985591
 20
97.283431
 30
0.0
 10
178.985591
 20
84.283603
 30
0.0
  0
SPLINE
  5
35d
100
AcDbEntity
  8
0
 62
5
100
AcDbSpline
 70
8
 71
3
 72
8
 73
4
 74
0
 40
0
 40
0
 40
0
 40
0
 40
1
 40
1
 40
1
 40
1
 10
192.485658
 20
83.783365
 30
0.0
 10
192.759765
 20
83.783365
 30
0.0
 10
192.985543
 20
84.009142
 30
0.0
 10
192.985543
 20
84.283603
 30
0.0
  0
LWPOLYLINE
  5
35e
100
AcDbEntity
  8
0
 62
5
100
AcDbPolyline
 90
2
 70
0
 10
179.485476
 20
83.783365
 30
0.0
 10
192.485658
 20
83.783365
 30
0.0
  0
LWPOLYLINE
  5
35f
100
AcDbEntity
  8
0
 62
5
100
AcDbPolyline
 90
1
 70
1
 10
192.985543
 20
84.283603
 30
0.0
  0
SPLINE
  5
360
100
AcDbEntity
  8
0
 62
5
100
AcDbSpline
 70
8
 71
3
 72
8
 73
4
 74
0
 40
0
 40
0
 40
0
 40
0
 40
1
 40
1
 40
1
 40
1
 10
59.635876
 20
97.283431
 30
0.0
 10
59.635876
 20
97.557892
 30
0.0
 10
59.410099
 20
97.783669
 30
0.0
 10
59.135991
 20
97.783669
 30
0.0
  0
LWPOLYLINE
  5
361
100
AcDbEntity
  8
0
 62
5
100
AcDbPolyline
 90
2
 70
0
 10
59.635876
 20
84.283603
 30
0.0
 10
59.635876
 20
97.283431
 30
0.0
  0
SPLINE
  5
362
100
AcDbEntity
  8
0
 62
5
100
AcDbSpline
 70
8
 71
3
 72
8
 73
4
 74
0
 40
0
 40
0
 40
0
 40
0
 40
1
 40
1
 40
1
 40
1
 10
46.135810
 20
97.783669
 30
0.0
 10
45.861702
 20
97.783669
 30
0.0
 10
45.635925
 20
97.557892
 30
0.0
 10
45.635925
 20
97.283431
 30
0.0
  0
LWPOLYLINE
  5
363
100
AcDbEntity
  8
0
 62
5
100
AcDbPolyline
 90
2
 70
0
 10
59.135991
 20
97.783669
 30
0.0
 10
46.135810
 20
97.783669
 30
0.0
  0
SPLINE
  5
364
100
AcDbEntity
  8
0
 62
5
100
AcDbSpline
 70
8
 71
3
 72
8
 73
4
 74
0
 40
0
 40
0
 40
0
 40
0
 40
1
 40
1
 40
1
 40
1
 10
45.635925
 20
84.283603
 30
0.0
 10
45.635925
 20
84.009142
 30
0.0
 10
45.861702
 20
83.783365
 30
0.0
 10
46.135810
 20
83.783365
 30
0.0
  0
LWPOLYLINE
  5
365
100
AcDbEntity
  8
0
 62
5
100
AcDbPolyline
 90
2
 70
0
 10
45.635925
 20
97.283431
 30
0.0
 10
45.635925
 20
84.283603
 30
0.0
  0
SPLINE
  5
366
100
AcDbEntity
  8
0
 62
5
100
AcDbSpline
 70
8
 71
3
 72
8
 73
4
 74
0
 40
0
 40
0
 40
0
 40
0
 40
1
 40
1
 40
1
 40
1
 10
59.135991
 20
83.783365
 30
0.0
 10
59.410099
 20
83.783365
 30
0.0
 10
59.635876
 20
84.009142
 30
0.0
 10
59.635876
 20
84.283603
 30
0.0
  0
LWPOLYLINE
  5
367
100
AcDbEntity
  8
0
 62
5
100
AcDbPolyline
 90
2
 70
0
 10
46.135810
 20
83.783365
 30
0.0
 10
59.135991
 20
83.783365
 30
0.0
  0
LWPOLYLINE
  5
368
100
AcDbEntity
  8
0
 62
5
100
AcDbPolyline
 90
1
 70
1
 10
59.635876
 20
84.283603
 30
0.0
  0
SPLINE
  5
369
100
AcDbEntity
  8
0
 62
5
100
AcDbSpline
 70
8
 71
3
 72
8
 73
4
 74
0
 40
0
 40
0
 40
0
 40
0
 40
1
 40
1
 40
1
 40
1
 10
272.353994
 20
40.633812
 30
0.0
 10
272.079886
 20
40.633812
 30
0.0
 10
271.854109
 20
40.408034
 30
0.0
 10
271.854109
 20
40.133574
 30
0.0
  0
LWPOLYLINE
  5
36a
100
AcDbEntity
  8
0
 62
5
100
AcDbPolyline
 90
2
 70
0
 10
284.685311
 20
40.633812
 30
0.0
 10
272.353994
 20
40.633812
 30
0.0
  0
SPLINE
  5
36b
100
AcDbEntity
  8
0
 62
5
100
AcDbSpline
 70
8
 71
3
 72
8
 73
4
 74
0
 40
0
 40
0
 40
0
 40
0
 40
1
 40
1
 40
1
 40
1
 10
271.854109
 20
27.133745
 30
0.0
 10
271.854109
 20
26.859285
 30
0.0
 10
272.079886
 20
26.633508
 30
0.0
 10
272.353994
 20
26.633508
 30
0.0
  0
LWPOLYLINE
  5
36c
100
AcDbEntity
  8
0
 62
5
100
AcDbPolyline
 90
2
 70
0
 10
271.854109
 20
40.133574
 30
0.0
 10
271.854109
 20
27.133745
 30
0.0
  0
SPLINE
  5
36d
100
AcDbEntity
  8
0
 62
5
100
AcDbSpline
 70
8
 71
3
 72
8
 73
4
 74
0
 40
0
 40
0
 40
0
 40
0
 40
1
 40
1
 40
1
 40
1
 10
287.735420
 20
26.633508
 30
0.0
 10
288.009527
 20
26.633508
 30
0.0
 10
288.235304
 20
26.859285
 30
0.0
 10
288.235304
 20
27.133745
 30
0.0
  0
LWPOLYLINE
  5
36e
100
AcDbEntity
  8
0
 62
5
100
AcDbPolyline
 90
2
 70
0
 10
272.353994
 20
26.633508
 30
0.0
 10
287.735420
 20
26.633508
 30
0.0
  0
SPLINE
  5
36f
100
AcDbEntity
  8
0
 62
5
100
AcDbSpline
 70
8
 71
3
 72
8
 73
4
 74
0
 40
0
 40
0
 40
0
 40
0
 40
1
 40
1
 40
1
 40
1
 10
255.185401
 20
84.283603
 30
0.0
 10
255.185401
 20
84.009142
 30
0.0
 10
255.411178
 20
83.783365
 30
0.0
 10
255.685286
 20
83.783365
 30
0.0
  0
LWPOLYLINE
  5
370
100
AcDbEntity
  8
0
 62
5
100
AcDbPolyline
 90
81
 70
0
 10
288.235304
 20
27.133745
 30
0.0
 10
288.235304
 20
40.978475
 30
0.0
 10
290.563279
 20
40.978475
 30
0.0
 10
290.563279
 20
7.214551
 30
0.0
 10
290.557282
 20
7.059329
 30
0.0
 10
290.538232
 20
6.903402
 30
0.0
 10
290.507188
 20
6.749238
 30
0.0
 10
290.465207
 20
6.597544
 30
0.0
 10
290.410174
 20
6.449378
 30
0.0
 10
290.345263
 20
6.308267
 30
0.0
 10
290.268358
 20
6.171389
 30
0.0
 10
290.182280
 20
6.040509
 30
0.0
 10
290.083150
 20
5.916332
 30
0.0
 10
289.977317
 20
5.800268
 30
0.0
 10
289.861253
 20
5.695493
 30
0.0
 10
289.738134
 20
5.597421
 30
0.0
 10
289.607254
 20
5.510286
 30
0.0
 10
289.470376
 20
5.433380
 30
0.0
 10
289.328207
 20
5.368469
 30
0.0
 10
289.182158
 20
5.312378
 30
0.0
 10
289.029405
 20
5.270397
 30
0.0
 10
288.875242
 20
5.240411
 30
0.0
 10
288.719314
 20
5.222420
 30
0.0
 10
288.563387
 20
5.216422
 30
0.0
 10
7.188888
 20
5.214306
 30
0.0
 10
7.031902
 20
5.222420
 30
0.0
 10
6.875974
 20
5.240411
 30
0.0
 10
6.721811
 20
5.270397
 30
0.0
 10
6.570117
 20
5.312378
 30
0.0
 10
6.423009
 20
5.368469
 30
0.0
 10
6.280840
 20
5.433380
 30
0.0
 10
6.143962
 20
5.510286
 30
0.0
 10
6.013082
 20
5.597421
 30
0.0
 10
5.889963
 20
5.695493
 30
0.0
 10
5.773899
 20
5.800268
 30
0.0
 10
5.668066
 20
5.916332
 30
0.0
 10
5.569994
 20
6.040509
 30
0.0
 10
5.482859
 20
6.171389
 30
0.0
 10
5.405953
 20
6.308267
 30
0.0
 10
5.341042
 20
6.449378
 30
0.0
 10
5.286009
 20
6.597544
 30
0.0
 10
5.244029
 20
6.749238
 30
0.0
 10
5.212984
 20
6.903402
 30
0.0
 10
5.194993
 20
7.059329
 30
0.0
 10
5.187937
 20
7.214551
 30
0.0
 10
5.187937
 20
40.978475
 30
0.0
 10
8.688895
 20
40.978475
 30
0.0
 10
9.461829
 20
41.100183
 30
0.0
 10
10.157858
 20
41.455429
 30
0.0
 10
10.711012
 20
42.009289
 30
0.0
 10
11.065906
 20
42.705318
 30
0.0
 10
11.189025
 20
43.478252
 30
0.0
 10
11.065906
 20
44.251186
 30
0.0
 10
10.711012
 20
44.948273
 30
0.0
 10
10.157858
 20
45.501427
 30
0.0
 10
9.461829
 20
45.856321
 30
0.0
 10
8.689953
 20
45.978382
 30
0.0
 10
5.187937
 20
45.978382
 30
0.0
 10
5.188995
 20
98.141032
 30
0.0
 10
5.194993
 20
98.298018
 30
0.0
 10
5.212984
 20
98.454298
 30
0.0
 10
5.244029
 20
98.608108
 30
0.0
 10
5.286009
 20
98.760155
 30
0.0
 10
5.341042
 20
98.907263
 30
0.0
 10
5.405953
 20
99.049080
 30
0.0
 10
5.482859
 20
99.186310
 30
0.0
 10
5.569994
 20
99.317190
 30
0.0
 10
5.668066
 20
99.440309
 30
0.0
 10
5.773899
 20
99.556020
 30
0.0
 10
5.889963
 20
99.662206
 30
0.0
 10
6.013082
 20
99.760278
 30
0.0
 10
6.143962
 20
99.847061
 30
0.0
 10
6.280840
 20
99.924319
 30
0.0
 10
6.423009
 20
99.989230
 30
0.0
 10
6.570117
 20
100.044263
 30
0.0
 10
6.721811
 20
100.086244
 30
0.0
 10
6.875974
 20
100.117288
 30
0.0
 10
7.031902
 20
100.135280
 30
0.0
 10
7.188888
 20
100.142335
 30
0.0
 10
255.185401
 20
100.141277
 30
0.0
 10
255.185401
 20
84.283603
 30
0.0
  0
SPLINE
  5
371
100
AcDbEntity
  8
0
 62
5
100
AcDbSpline
 70
8
 71
3
 72
8
 73
4
 74
0
 40
0
 40
0
 40
0
 40
0
 40
1
 40
1
 40
1
 40
1
 10
268.685467
 20
83.783365
 30
0.0
 10
268.959575
 20
83.783365
 30
0.0
 10
269.185352
 20
84.009142
 30
0.0
 10
269.185352
 20
84.283603
 30
0.0
  0
LWPOLYLINE
  5
372
100
AcDbEntity
  8
0
 62
5
100
AcDbPolyline
 90
2
 70
0
 10
255.685286
 20
83.783365
 30
0.0
 10
268.685467
 20
83.783365
 30
0.0
  0
SPLINE
  5
373
100
AcDbEntity
  8
0
 62
5
100
AcDbSpline
 70
8
 71
3
 72
8
 73
4
 74
0
 40
0
 40
0
 40
0
 40
0
 40
1
 40
1
 40
1
 40
1
 10
274.735238
 20
97.783669
 30
0.0
 10
274.461131
 20
97.783669
 30
0.0
 10
274.235353
 20
97.557892
 30
0.0
 10
274.235353
 20
97.283431
 30
0.0
  0
LWPOLYLINE
  5
374
100
AcDbEntity
  8
0
 62
5
100
AcDbPolyline
 90
25
 70
0
 10
269.185352
 20
84.283603
 30
0.0
 10
269.185352
 20
100.142335
 30
0.0
 10
288.563387
 20
100.141277
 30
0.0
 10
288.719314
 20
100.135280
 30
0.0
 10
288.875242
 20
100.117288
 30
0.0
 10
289.029405
 20
100.086244
 30
0.0
 10
289.182158
 20
100.044263
 30
0.0
 10
289.328207
 20
99.989230
 30
0.0
 10
289.470376
 20
99.924319
 30
0.0
 10
289.607254
 20
99.847061
 30
0.0
 10
289.738134
 20
99.760278
 30
0.0
 10
289.861253
 20
99.662206
 30
0.0
 10
289.977317
 20
99.556020
 30
0.0
 10
290.083150
 20
99.440309
 30
0.0
 10
290.182280
 20
99.317190
 30
0.0
 10
290.268358
 20
99.186310
 30
0.0
 10
290.345263
 20
99.049080
 30
0.0
 10
290.410174
 20
98.907263
 30
0.0
 10
290.465207
 20
98.760155
 30
0.0
 10
290.507188
 20
98.608108
 30
0.0
 10
290.538232
 20
98.454298
 30
0.0
 10
290.557282
 20
98.298018
 30
0.0
 10
290.563279
 20
98.141032
 30
0.0
 10
290.563279
 20
97.783669
 30
0.0
 10
274.735238
 20
97.783669
 30
0.0
  0
SPLINE
  5
375
100
AcDbEntity
  8
0
 62
5
100
AcDbSpline
 70
8
 71
3
 72
8
 73
4
 74
0
 40
0
 40
0
 40
0
 40
0
 40
1
 40
1
 40
1
 40
1
 10
274.235353
 20
84.283603
 30
0.0
 10
274.235353
 20
84.009142
 30
0.0
 10
274.461131
 20
83.783365
 30
0.0
 10
274.735238
 20
83.783365
 30
0.0
  0
LWPOLYLINE
  5
376
100
AcDbEntity
  8
0
 62
5
100
AcDbPolyline
 90
2
 70
0
 10
274.235353
 20
97.283431
 30
0.0
 10
274.235353
 20
84.283603
 30
0.0
  0
SPLINE
  5
377
100
AcDbEntity
  8
0
 62
5
100
AcDbSpline
 70
8
 71
3
 72
8
 73
4
 74
0
 40
0
 40
0
 40
0
 40
0
 40
1
 40
1
 40
1
 40
1
 10
260.954714
 20
61.183419
 30
0.0
 10
260.954714
 20
61.457879
 30
0.0
 10
260.728937
 20
61.683656
 30
0.0
 10
260.454477
 20
61.683656
 30
0.0
  0
LWPOLYLINE
  5
378
100
AcDbEntity
  8
0
 62
5
100
AcDbPolyline
 90
11
 70
0
 10
274.735238
 20
83.783365
 30
0.0
 10
290.563279
 20
83.783365
 30
0.0
 10
290.563279
 20
45.978382
 30
0.0
 10
288.235304
 20
45.978382
 30
0.0
 10
288.235304
 20
52.933731
 30
0.0
 10
288.616656
 20
52.933731
 30
0.0
 10
288.616656
 20
61.761267
 30
0.0
 10
285.854060
 20
61.761267
 30
0.0
 10
285.854060
 20
59.683764
 30
0.0
 10
260.954714
 20
59.683764
 30
0.0
 10
260.954714
 20
61.183419
 30
0.0
  0
SPLINE
  5
379
100
AcDbEntity
  8
0
 62
5
100
AcDbSpline
 70
8
 71
3
 72
8
 73
4
 74
0
 40
0
 40
0
 40
0
 40
0
 40
1
 40
1
 40
1
 40
1
 10
254.454447
 20
61.683656
 30
0.0
 10
254.180340
 20
61.683656
 30
0.0
 10
253.954562
 20
61.457879
 30
0.0
 10
253.954562
 20
61.183419
 30
0.0
  0
LWPOLYLINE
  5
37a
100
AcDbEntity
  8
0
 62
5
100
AcDbPolyline
 90
2
 70
0
 10
260.454477
 20
61.683656
 30
0.0
 10
254.454447
 20
61.683656
 30
0.0
  0
SPLINE
  5
37b
100
AcDbEntity
  8
0
 62
5
100
AcDbSpline
 70
8
 71
3
 72
8
 73
4
 74
0
 40
0
 40
0
 40
0
 40
0
 40
1
 40
1
 40
1
 40
1
 10
253.954562
 20
47.183468
 30
0.0
 10
253.954562
 20
46.909360
 30
0.0
 10
254.180340
 20
46.683583
 30
0.0
 10
254.454447
 20
46.683583
 30
0.0
  0
LWPOLYLINE
  5
37c
100
AcDbEntity
  8
0
 62
5
100
AcDbPolyline
 90
2
 70
0
 10
253.954562
 20
61.183419
 30
0.0
 10
253.954562
 20
47.183468
 30
0.0
  0
SPLINE
  5
37d
100
AcDbEntity
  8
0
 62
5
100
AcDbSpline
 70
8
 71
3
 72
8
 73
4
 74
0
 40
0
 40
0
 40
0
 40
0
 40
1
 40
1
 40
1
 40
1
 10
255.185401
 20
46.183698
 30
0.0
 10
255.185401
 20
45.909237
 30
0.0
 10
255.411178
 20
45.683460
 30
0.0
 10
255.685286
 20
45.683460
 30
0.0
  0
LWPOLYLINE
  5
37e
100
AcDbEntity
  8
0
 62
5
100
AcDbPolyline
 90
3
 70
0
 10
254.454447
 20
46.683583
 30
0.0
 10
255.185401
 20
46.683583
 30
0.0
 10
255.185401
 20
46.183698
 30
0.0
  0
LWPOLYLINE
  5
37f
100
AcDbEntity
  8
0
 62
5
100
AcDbPolyline
 90
4
 70
0
 10
255.685286
 20
45.683460
 30
0.0
 10
284.685311
 20
45.683460
 30
0.0
 10
284.685311
 20
40.633812
 30
0.0
 10
284.685311
 20
40.633812
 30
0.0
  0
ENDSEC
  0
SECTION
  2
OBJECTS
  0
DICTIONARY
  5
C
330
0
100
AcDbDictionary
  3
ACAD_GROUP
350
D
  3
ACAD_MLINESTYLE
350
17
  0
DICTIONARY
  5
D
330
C
100
AcDbDictionary
  0
DICTIONARY
  5
1A
330
C
100
AcDbDictionary
  0
DICTIONARY
  5
17
330
C
100
AcDbDictionary
  3
STANDARD
350
18
  0
DICTIONARY
  5
19
330
C
100
AcDbDictionary
  0
ENDSEC
  0
EOF
