G04 #@! TF.GenerationSoftware,KiCad,Pcbnew,(5.1.6-0-10_14)*
G04 #@! TF.CreationDate,2020-06-28T15:00:23+09:00*
G04 #@! TF.ProjectId,Jones,4a6f6e65-732e-46b6-9963-61645f706362,rev?*
G04 #@! TF.SameCoordinates,Original*
G04 #@! TF.FileFunction,Profile,NP*
%FSLAX46Y46*%
G04 Gerber Fmt 4.6, Leading zero omitted, Abs format (unit mm)*
G04 Created by KiCad (PCBNEW (5.1.6-0-10_14)) date 2020-06-28 15:00:23*
%MOMM*%
%LPD*%
G01*
G04 APERTURE LIST*
G04 #@! TA.AperFunction,Profile*
%ADD10C,0.150000*%
G04 #@! TD*
G04 #@! TA.AperFunction,Profile*
%ADD11C,0.300000*%
G04 #@! TD*
G04 #@! TA.AperFunction,Profile*
%ADD12C,0.200000*%
G04 #@! TD*
G04 APERTURE END LIST*
D10*
X123390070Y-123018580D02*
X125363840Y-123027040D01*
X250787480Y-123018580D02*
X273918280Y-123021960D01*
D11*
X282046280Y-117149480D02*
X305600000Y-117150000D01*
X133491840Y-117154560D02*
X273918280Y-117149480D01*
X126481440Y-118272160D02*
X126481440Y-121909440D01*
X132374240Y-121909440D02*
X132374240Y-118272160D01*
X125363840Y-117154560D02*
G75*
G02*
X126481440Y-118272160I0J-1117600D01*
G01*
X132374240Y-118272160D02*
G75*
G02*
X133491840Y-117154560I1117600J0D01*
G01*
X126481440Y-121909440D02*
G75*
G02*
X125363840Y-123027040I-1117600J0D01*
G01*
X133491840Y-123027040D02*
G75*
G02*
X132374240Y-121909440I0J1117600D01*
G01*
X275035880Y-118267080D02*
X275035880Y-121904360D01*
X280928680Y-121904360D02*
X280928680Y-118267080D01*
X273918280Y-117149480D02*
G75*
G02*
X275035880Y-118267080I0J-1117600D01*
G01*
X280928680Y-118267080D02*
G75*
G02*
X282046280Y-117149480I1117600J0D01*
G01*
X275035880Y-121904360D02*
G75*
G02*
X273918280Y-123021960I-1117600J0D01*
G01*
X282046280Y-123021960D02*
G75*
G02*
X280928680Y-121904360I0J1117600D01*
G01*
D10*
X50698000Y-123016880D02*
X57905420Y-123018580D01*
X26949040Y-123018580D02*
X42570000Y-123016880D01*
D11*
X50698000Y-123016880D02*
G75*
G02*
X49580400Y-121899280I0J1117600D01*
G01*
X43687600Y-121899280D02*
G75*
G02*
X42570000Y-123016880I-1117600J0D01*
G01*
X50698000Y-117144400D02*
X125363840Y-117154560D01*
X49580400Y-118262000D02*
G75*
G02*
X50698000Y-117144400I1117600J0D01*
G01*
X42570000Y-117144400D02*
G75*
G02*
X43687600Y-118262000I0J-1117600D01*
G01*
X24600000Y-117150000D02*
X42570000Y-117144400D01*
X49580400Y-121899280D02*
X49580400Y-118262000D01*
X43687600Y-118262000D02*
X43687600Y-121899280D01*
D10*
X297222050Y-124209210D02*
X297222050Y-133734250D01*
X297222050Y-133734250D02*
X297222050Y-140878030D01*
X60286680Y-124209210D02*
X60286680Y-132543620D01*
X60286680Y-133734250D02*
X60286680Y-140878030D01*
X59096050Y-124209210D02*
X59096050Y-132543620D01*
X59096050Y-133734250D02*
X59096050Y-140878030D01*
X59096050Y-132543620D02*
X60286680Y-132543620D01*
X60286680Y-133734250D02*
X59096050Y-133734250D01*
X80527390Y-124209210D02*
X80527390Y-132543620D01*
X80527390Y-133734250D02*
X80527390Y-140878030D01*
X79336760Y-124209210D02*
X79336760Y-132543620D01*
X79336760Y-133734250D02*
X79336760Y-140878030D01*
X79336760Y-132543620D02*
X80527390Y-132543620D01*
X80527390Y-133734250D02*
X79336760Y-133734250D01*
X91243060Y-124209210D02*
X91243060Y-132543620D01*
X91243060Y-133734250D02*
X91243060Y-140878030D01*
X90052430Y-124209210D02*
X90052430Y-132543620D01*
X90052430Y-133734250D02*
X90052430Y-140878030D01*
X90052430Y-132543620D02*
X91243060Y-132543620D01*
X91243060Y-133734250D02*
X90052430Y-133734250D01*
X106721250Y-124209210D02*
X106721250Y-132543620D01*
X106721250Y-133734250D02*
X106721250Y-140878030D01*
X105530620Y-124209210D02*
X105530620Y-132543620D01*
X105530620Y-133734250D02*
X105530620Y-140878030D01*
X105530620Y-132543620D02*
X106721250Y-132543620D01*
X106721250Y-133734250D02*
X105530620Y-133734250D01*
X122199440Y-124209210D02*
X122199440Y-132543620D01*
X122199440Y-133734250D02*
X122199440Y-140878030D01*
X121008810Y-124209210D02*
X121008810Y-132543620D01*
X121008810Y-133734250D02*
X121008810Y-140878030D01*
X121008810Y-132543620D02*
X122199440Y-132543620D01*
X122199440Y-133734250D02*
X121008810Y-133734250D01*
X137677630Y-124209210D02*
X137677630Y-132543620D01*
X137677630Y-133734250D02*
X137677630Y-140878030D01*
X136487000Y-124209210D02*
X136487000Y-132543620D01*
X136487000Y-133734250D02*
X136487000Y-140878030D01*
X136487000Y-132543620D02*
X137677630Y-132543620D01*
X137677630Y-133734250D02*
X136487000Y-133734250D01*
X210306060Y-124209210D02*
X210306060Y-132543620D01*
X210306060Y-133734250D02*
X210306060Y-140878030D01*
X209115430Y-124209210D02*
X209115430Y-132543620D01*
X209115430Y-133734250D02*
X209115430Y-140878030D01*
X209115430Y-132543620D02*
X210306060Y-132543620D01*
X210306060Y-133734250D02*
X209115430Y-133734250D01*
X249596850Y-133734250D02*
X248406220Y-133734250D01*
X248406220Y-132543620D02*
X249596850Y-132543620D01*
X86480540Y-132543620D02*
G75*
G03*
X86480540Y-132543620I-1190630J0D01*
G01*
X71002350Y-132543620D02*
G75*
G03*
X71002350Y-132543620I-1190630J0D01*
G01*
X128152590Y-132543620D02*
G75*
G03*
X128152590Y-132543620I-1190630J0D01*
G01*
X112674400Y-132543620D02*
G75*
G03*
X112674400Y-132543620I-1190630J0D01*
G01*
X97196210Y-132543620D02*
G75*
G03*
X97196210Y-132543620I-1190630J0D01*
G01*
X255550000Y-132543620D02*
G75*
G03*
X255550000Y-132543620I-1190630J0D01*
G01*
X291268900Y-132543620D02*
G75*
G03*
X291268900Y-132543620I-1190630J0D01*
G01*
X218640470Y-132543620D02*
G75*
G03*
X218640470Y-132543620I-1190630J0D01*
G01*
X240071810Y-132543620D02*
G75*
G03*
X240071810Y-132543620I-1190630J0D01*
G01*
X143630780Y-132543620D02*
G75*
G03*
X143630780Y-132543620I-1190630J0D01*
G01*
X200781020Y-132543620D02*
G75*
G03*
X200781020Y-132543620I-1190630J0D01*
G01*
X81718020Y-123018580D02*
X88861800Y-123018580D01*
X88861800Y-142068660D02*
X81718020Y-142068660D01*
X90052430Y-140878030D02*
G75*
G02*
X88861800Y-142068660I-1190630J0D01*
G01*
X80527390Y-124209210D02*
G75*
G02*
X81718020Y-123018580I1190630J0D01*
G01*
X88861800Y-123018580D02*
G75*
G02*
X90052430Y-124209210I0J-1190630D01*
G01*
X81718020Y-142068660D02*
G75*
G02*
X80527390Y-140878030I0J1190630D01*
G01*
X248406220Y-133734250D02*
X248406220Y-140878030D01*
X248406220Y-124209210D02*
X248406220Y-132543620D01*
X249596850Y-133734250D02*
X249596850Y-140878030D01*
X249596850Y-124209210D02*
X249596850Y-132543620D01*
X135296370Y-123018580D02*
G75*
G02*
X136487000Y-124209210I0J-1190630D01*
G01*
X123390070Y-142068660D02*
G75*
G02*
X122199440Y-140878030I0J1190630D01*
G01*
X282046280Y-123021960D02*
X296031420Y-123018580D01*
X296031420Y-142068660D02*
X250787480Y-142068660D01*
X249596850Y-124209210D02*
G75*
G02*
X250787480Y-123018580I1190630J0D01*
G01*
X250787480Y-142068660D02*
G75*
G02*
X249596850Y-140878030I0J1190630D01*
G01*
X296031420Y-123018580D02*
G75*
G02*
X297222050Y-124209210I0J-1190630D01*
G01*
X297222050Y-140878030D02*
G75*
G02*
X296031420Y-142068660I-1190630J0D01*
G01*
X210306060Y-124209210D02*
G75*
G02*
X211496690Y-123018580I1190630J0D01*
G01*
X211496690Y-142068660D02*
G75*
G02*
X210306060Y-140878030I0J1190630D01*
G01*
X248406220Y-140878030D02*
G75*
G02*
X247215590Y-142068660I-1190630J0D01*
G01*
X247215590Y-142068660D02*
X211496690Y-142068660D01*
X211496690Y-123018580D02*
X247215590Y-123018580D01*
X247215590Y-123018580D02*
G75*
G02*
X248406220Y-124209210I0J-1190630D01*
G01*
X207924800Y-123018580D02*
G75*
G02*
X209115430Y-124209210I0J-1190630D01*
G01*
X209115430Y-140878030D02*
G75*
G02*
X207924800Y-142068660I-1190630J0D01*
G01*
X138868260Y-142068660D02*
G75*
G02*
X137677630Y-140878030I0J1190630D01*
G01*
X137677630Y-124209210D02*
G75*
G02*
X138868260Y-123018580I1190630J0D01*
G01*
X207924800Y-142068660D02*
X138868260Y-142068660D01*
X138868260Y-123018580D02*
X207924800Y-123018580D01*
X104339990Y-142068660D02*
X92433690Y-142068660D01*
X105530620Y-140878030D02*
G75*
G02*
X104339990Y-142068660I-1190630J0D01*
G01*
X91243060Y-124209210D02*
G75*
G02*
X92433690Y-123018580I1190630J0D01*
G01*
X61477310Y-123018580D02*
X78146130Y-123018580D01*
X92433690Y-123018580D02*
X104339990Y-123018580D01*
X60286680Y-124209210D02*
G75*
G02*
X61477310Y-123018580I1190630J0D01*
G01*
X78146130Y-123018580D02*
G75*
G02*
X79336760Y-124209210I0J-1190630D01*
G01*
X61477310Y-142068660D02*
G75*
G02*
X60286680Y-140878030I0J1190630D01*
G01*
X79336760Y-140878030D02*
G75*
G02*
X78146130Y-142068660I-1190630J0D01*
G01*
X78146130Y-142068660D02*
X61477310Y-142068660D01*
X135296370Y-142068660D02*
X123390070Y-142068660D01*
X136487000Y-140878030D02*
G75*
G02*
X135296370Y-142068660I-1190630J0D01*
G01*
X122199440Y-124209210D02*
G75*
G02*
X123390070Y-123018580I1190630J0D01*
G01*
X104339990Y-123018580D02*
G75*
G02*
X105530620Y-124209210I0J-1190630D01*
G01*
X92433690Y-142068660D02*
G75*
G02*
X91243060Y-140878030I0J1190630D01*
G01*
X107911880Y-123018580D02*
X119818180Y-123018580D01*
X119818180Y-142068660D02*
X107911880Y-142068660D01*
X121008810Y-140878030D02*
G75*
G02*
X119818180Y-142068660I-1190630J0D01*
G01*
X106721250Y-124209210D02*
G75*
G02*
X107911880Y-123018580I1190630J0D01*
G01*
X119818180Y-123018580D02*
G75*
G02*
X121008810Y-124209210I0J-1190630D01*
G01*
X107911880Y-142068660D02*
G75*
G02*
X106721250Y-140878030I0J1190630D01*
G01*
X133491840Y-123027040D02*
X135296370Y-123018580D01*
X36474080Y-132543620D02*
G75*
G03*
X36474080Y-132543620I-1190630J0D01*
G01*
X55524160Y-132543620D02*
G75*
G03*
X55524160Y-132543620I-1190630J0D01*
G01*
X26949040Y-142068660D02*
G75*
G02*
X25758410Y-140878030I0J1190630D01*
G01*
X25758410Y-140878030D02*
X25758410Y-124209210D01*
X59096050Y-140878030D02*
G75*
G02*
X57905420Y-142068660I-1190630J0D01*
G01*
X25758410Y-124209210D02*
G75*
G02*
X26949040Y-123018580I1190630J0D01*
G01*
X57905420Y-123018580D02*
G75*
G02*
X59096050Y-124209210I0J-1190630D01*
G01*
X57905420Y-142068660D02*
X26949040Y-142068660D01*
X65881250Y-80168750D02*
X259556250Y-80168750D01*
X259556250Y-78581250D02*
X65881250Y-78581250D01*
D12*
X259556250Y-78581250D02*
G75*
G02*
X259556250Y-80168750I0J-793750D01*
G01*
X65881250Y-80168750D02*
G75*
G02*
X65881250Y-78581250I0J793750D01*
G01*
D11*
X24600000Y-22550000D02*
X34800000Y-22550000D01*
X35300000Y-22050000D02*
X46300000Y-22050000D01*
X303800000Y-77650000D02*
X307600000Y-77650000D01*
X303800000Y-80450000D02*
X307600000Y-80450000D01*
X307600000Y-77650000D02*
X307600000Y-24550000D01*
X307600000Y-80450000D02*
X307600000Y-115150000D01*
X22600000Y-77650000D02*
X22600000Y-24550000D01*
X26400000Y-77650000D02*
X22600000Y-77650000D01*
X22600000Y-80450000D02*
X26400000Y-80450000D01*
X22600000Y-115150000D02*
X22600000Y-80450000D01*
X305600000Y-22550000D02*
X46800000Y-22550000D01*
X46300000Y-22050000D02*
G75*
G03*
X46800000Y-22550000I500000J0D01*
G01*
X34800000Y-22550000D02*
G75*
G03*
X35300000Y-22050000I0J500000D01*
G01*
X26400000Y-80450000D02*
G75*
G03*
X27800000Y-79050000I0J1400000D01*
G01*
X303800000Y-80450000D02*
G75*
G02*
X302400000Y-79050000I0J1400000D01*
G01*
X302400000Y-79050000D02*
G75*
G02*
X303800000Y-77650000I1400000J0D01*
G01*
X27800000Y-79050000D02*
G75*
G03*
X26400000Y-77650000I-1400000J0D01*
G01*
X307600000Y-24550000D02*
G75*
G03*
X305600000Y-22550000I-2000000J0D01*
G01*
X305600000Y-117150000D02*
G75*
G03*
X307600000Y-115150000I0J2000000D01*
G01*
X22600000Y-115150000D02*
G75*
G03*
X24600000Y-117150000I2000000J0D01*
G01*
X24600000Y-22550000D02*
G75*
G03*
X22600000Y-24550000I0J-2000000D01*
G01*
M02*
