G04 #@! TF.GenerationSoftware,KiCad,Pcbnew,(5.1.6-0-10_14)*
G04 #@! TF.CreationDate,2020-06-28T15:00:23+09:00*
G04 #@! TF.ProjectId,Jones,4a6f6e65-732e-46b6-9963-61645f706362,rev?*
G04 #@! TF.SameCoordinates,Original*
G04 #@! TF.FileFunction,Legend,Top*
G04 #@! TF.FilePolarity,Positive*
%FSLAX46Y46*%
G04 Gerber Fmt 4.6, Leading zero omitted, Abs format (unit mm)*
G04 Created by KiCad (PCBNEW (5.1.6-0-10_14)) date 2020-06-28 15:00:23*
%MOMM*%
%LPD*%
G01*
G04 APERTURE LIST*
%ADD10C,0.120000*%
%ADD11C,0.150000*%
%ADD12C,2.501900*%
%ADD13C,0.000100*%
%ADD14C,1.187400*%
%ADD15C,7.401300*%
%ADD16C,7.400240*%
%ADD17C,1.400000*%
%ADD18C,2.150000*%
%ADD19C,3.400000*%
%ADD20C,4.387800*%
%ADD21R,1.250000X2.000000*%
%ADD22C,2.400000*%
%ADD23R,2.400000X3.600000*%
%ADD24R,2.400000X2.400000*%
%ADD25C,3.448000*%
%ADD26C,4.400000*%
%ADD27C,2.600000*%
%ADD28O,1.500000X2.600000*%
%ADD29O,2.100000X2.100000*%
%ADD30R,2.100000X2.100000*%
G04 APERTURE END LIST*
D10*
X307568750Y-60800000D02*
X306493750Y-60800000D01*
X307568750Y-66700000D02*
X307568750Y-60800000D01*
X303668750Y-66700000D02*
X303668750Y-60800000D01*
X303668750Y-74700000D02*
X303668750Y-68800000D01*
X307568750Y-74700000D02*
X307568750Y-68800000D01*
X307568750Y-68800000D02*
X306493750Y-68800000D01*
X296212500Y-108119140D02*
X296212500Y-107119140D01*
X295712500Y-107619140D02*
X296712500Y-107619140D01*
X299712500Y-101519140D02*
X302112500Y-101519140D01*
X294912500Y-101519140D02*
X297512500Y-101519140D01*
X290312500Y-101519140D02*
X292712500Y-101519140D01*
X292112500Y-114819140D02*
X292412500Y-115119140D01*
X292112500Y-115419140D02*
X292112500Y-114819140D01*
X292412500Y-115119140D02*
X292112500Y-115419140D01*
X290312500Y-113719140D02*
X302112500Y-113719140D01*
X290312500Y-109619140D02*
X290312500Y-113719140D01*
X302112500Y-109619140D02*
X302112500Y-113719140D01*
X302112500Y-101519140D02*
X302112500Y-105619140D01*
X290312500Y-105619140D02*
X290312500Y-101519140D01*
X299212500Y-107619140D02*
G75*
G03*
X299212500Y-107619140I-3000000J0D01*
G01*
D11*
X303321130Y-64869047D02*
X303321130Y-65345238D01*
X302321130Y-65345238D01*
X302797321Y-64535714D02*
X302797321Y-64202380D01*
X303321130Y-64059523D02*
X303321130Y-64535714D01*
X302321130Y-64535714D01*
X302321130Y-64059523D01*
X303321130Y-63630952D02*
X302321130Y-63630952D01*
X302321130Y-63392857D01*
X302368750Y-63250000D01*
X302463988Y-63154761D01*
X302559226Y-63107142D01*
X302749702Y-63059523D01*
X302892559Y-63059523D01*
X303083035Y-63107142D01*
X303178273Y-63154761D01*
X303273511Y-63250000D01*
X303321130Y-63392857D01*
X303321130Y-63630952D01*
X303321130Y-62107142D02*
X303321130Y-62678571D01*
X303321130Y-62392857D02*
X302321130Y-62392857D01*
X302463988Y-62488095D01*
X302559226Y-62583333D01*
X302606845Y-62678571D01*
X305196130Y-66964285D02*
X305196130Y-67535714D01*
X305196130Y-67250000D02*
X304196130Y-67250000D01*
X304338988Y-67345238D01*
X304434226Y-67440476D01*
X304481845Y-67535714D01*
X303321130Y-72869047D02*
X303321130Y-73345238D01*
X302321130Y-73345238D01*
X302797321Y-72535714D02*
X302797321Y-72202380D01*
X303321130Y-72059523D02*
X303321130Y-72535714D01*
X302321130Y-72535714D01*
X302321130Y-72059523D01*
X303321130Y-71630952D02*
X302321130Y-71630952D01*
X302321130Y-71392857D01*
X302368750Y-71250000D01*
X302463988Y-71154761D01*
X302559226Y-71107142D01*
X302749702Y-71059523D01*
X302892559Y-71059523D01*
X303083035Y-71107142D01*
X303178273Y-71154761D01*
X303273511Y-71250000D01*
X303321130Y-71392857D01*
X303321130Y-71630952D01*
X302416369Y-70678571D02*
X302368750Y-70630952D01*
X302321130Y-70535714D01*
X302321130Y-70297619D01*
X302368750Y-70202380D01*
X302416369Y-70154761D01*
X302511607Y-70107142D01*
X302606845Y-70107142D01*
X302749702Y-70154761D01*
X303321130Y-70726190D01*
X303321130Y-70107142D01*
X305196130Y-74464285D02*
X305196130Y-75035714D01*
X305196130Y-74750000D02*
X304196130Y-74750000D01*
X304338988Y-74845238D01*
X304434226Y-74940476D01*
X304481845Y-75035714D01*
%LPC*%
D12*
X303800000Y-76399050D02*
X307600000Y-76399050D01*
X303800000Y-81700950D02*
X307650000Y-81700950D01*
X22600000Y-76399050D02*
X26400000Y-76399050D01*
X22600000Y-81700950D02*
X26400000Y-81700950D01*
X301149050Y-79050000D02*
G75*
G02*
X303800000Y-76399050I2650950J0D01*
G01*
X303800000Y-81700950D02*
G75*
G02*
X301149050Y-79050000I0J2650950D01*
G01*
X29050950Y-79050000D02*
G75*
G03*
X26400000Y-76399050I-2650950J0D01*
G01*
X26400000Y-81700950D02*
G75*
G03*
X29050950Y-79050000I0J2650950D01*
G01*
D13*
G36*
X43792000Y-24446000D02*
G01*
X43792000Y-26946000D01*
X43792891Y-26980018D01*
X43795561Y-27013944D01*
X43800003Y-27047682D01*
X43806204Y-27081143D01*
X43814148Y-27114232D01*
X43823813Y-27146861D01*
X43835173Y-27178939D01*
X43848195Y-27210379D01*
X43862846Y-27241094D01*
X43879083Y-27271000D01*
X43896864Y-27300015D01*
X43916139Y-27328060D01*
X43936855Y-27355058D01*
X43958956Y-27380935D01*
X43982381Y-27405619D01*
X44007065Y-27429044D01*
X44032942Y-27451145D01*
X44059940Y-27471861D01*
X44087985Y-27491136D01*
X44117000Y-27508917D01*
X44146906Y-27525154D01*
X44177621Y-27539805D01*
X44209061Y-27552827D01*
X44241139Y-27564187D01*
X44273768Y-27573852D01*
X44306857Y-27581796D01*
X44340318Y-27587997D01*
X44374056Y-27592439D01*
X44407982Y-27595109D01*
X44442000Y-27596000D01*
X44476018Y-27595109D01*
X44509944Y-27592439D01*
X44543682Y-27587997D01*
X44577143Y-27581796D01*
X44610232Y-27573852D01*
X44642861Y-27564187D01*
X44674939Y-27552827D01*
X44706379Y-27539805D01*
X44737094Y-27525154D01*
X44767000Y-27508917D01*
X44796015Y-27491136D01*
X44824060Y-27471861D01*
X44851058Y-27451145D01*
X44876935Y-27429044D01*
X44901619Y-27405619D01*
X44925044Y-27380935D01*
X44947145Y-27355058D01*
X44967861Y-27328060D01*
X44987136Y-27300015D01*
X45004917Y-27271000D01*
X45021154Y-27241094D01*
X45035805Y-27210379D01*
X45048827Y-27178939D01*
X45060187Y-27146861D01*
X45069852Y-27114232D01*
X45077796Y-27081143D01*
X45083997Y-27047682D01*
X45088439Y-27013944D01*
X45091109Y-26980018D01*
X45092000Y-26946000D01*
X45092000Y-24446000D01*
X45091109Y-24411982D01*
X45088439Y-24378056D01*
X45083997Y-24344318D01*
X45077796Y-24310857D01*
X45069852Y-24277768D01*
X45060187Y-24245139D01*
X45048827Y-24213061D01*
X45035805Y-24181621D01*
X45021154Y-24150906D01*
X45004917Y-24121000D01*
X44987136Y-24091985D01*
X44967861Y-24063940D01*
X44947145Y-24036942D01*
X44925044Y-24011065D01*
X44901619Y-23986381D01*
X44876935Y-23962956D01*
X44851058Y-23940855D01*
X44824060Y-23920139D01*
X44796015Y-23900864D01*
X44767000Y-23883083D01*
X44737094Y-23866846D01*
X44706379Y-23852195D01*
X44674939Y-23839173D01*
X44642861Y-23827813D01*
X44610232Y-23818148D01*
X44577143Y-23810204D01*
X44543682Y-23804003D01*
X44509944Y-23799561D01*
X44476018Y-23796891D01*
X44442000Y-23796000D01*
X44407982Y-23796891D01*
X44374056Y-23799561D01*
X44340318Y-23804003D01*
X44306857Y-23810204D01*
X44273768Y-23818148D01*
X44241139Y-23827813D01*
X44209061Y-23839173D01*
X44177621Y-23852195D01*
X44146906Y-23866846D01*
X44117000Y-23883083D01*
X44087985Y-23900864D01*
X44059940Y-23920139D01*
X44032942Y-23940855D01*
X44007065Y-23962956D01*
X43982381Y-23986381D01*
X43958956Y-24011065D01*
X43936855Y-24036942D01*
X43916139Y-24063940D01*
X43896864Y-24091985D01*
X43879083Y-24121000D01*
X43862846Y-24150906D01*
X43848195Y-24181621D01*
X43835173Y-24213061D01*
X43823813Y-24245139D01*
X43814148Y-24277768D01*
X43806204Y-24310857D01*
X43800003Y-24344318D01*
X43795561Y-24378056D01*
X43792891Y-24411982D01*
X43792000Y-24446000D01*
G37*
X43792000Y-24446000D02*
X43792000Y-26946000D01*
X43792891Y-26980018D01*
X43795561Y-27013944D01*
X43800003Y-27047682D01*
X43806204Y-27081143D01*
X43814148Y-27114232D01*
X43823813Y-27146861D01*
X43835173Y-27178939D01*
X43848195Y-27210379D01*
X43862846Y-27241094D01*
X43879083Y-27271000D01*
X43896864Y-27300015D01*
X43916139Y-27328060D01*
X43936855Y-27355058D01*
X43958956Y-27380935D01*
X43982381Y-27405619D01*
X44007065Y-27429044D01*
X44032942Y-27451145D01*
X44059940Y-27471861D01*
X44087985Y-27491136D01*
X44117000Y-27508917D01*
X44146906Y-27525154D01*
X44177621Y-27539805D01*
X44209061Y-27552827D01*
X44241139Y-27564187D01*
X44273768Y-27573852D01*
X44306857Y-27581796D01*
X44340318Y-27587997D01*
X44374056Y-27592439D01*
X44407982Y-27595109D01*
X44442000Y-27596000D01*
X44476018Y-27595109D01*
X44509944Y-27592439D01*
X44543682Y-27587997D01*
X44577143Y-27581796D01*
X44610232Y-27573852D01*
X44642861Y-27564187D01*
X44674939Y-27552827D01*
X44706379Y-27539805D01*
X44737094Y-27525154D01*
X44767000Y-27508917D01*
X44796015Y-27491136D01*
X44824060Y-27471861D01*
X44851058Y-27451145D01*
X44876935Y-27429044D01*
X44901619Y-27405619D01*
X44925044Y-27380935D01*
X44947145Y-27355058D01*
X44967861Y-27328060D01*
X44987136Y-27300015D01*
X45004917Y-27271000D01*
X45021154Y-27241094D01*
X45035805Y-27210379D01*
X45048827Y-27178939D01*
X45060187Y-27146861D01*
X45069852Y-27114232D01*
X45077796Y-27081143D01*
X45083997Y-27047682D01*
X45088439Y-27013944D01*
X45091109Y-26980018D01*
X45092000Y-26946000D01*
X45092000Y-24446000D01*
X45091109Y-24411982D01*
X45088439Y-24378056D01*
X45083997Y-24344318D01*
X45077796Y-24310857D01*
X45069852Y-24277768D01*
X45060187Y-24245139D01*
X45048827Y-24213061D01*
X45035805Y-24181621D01*
X45021154Y-24150906D01*
X45004917Y-24121000D01*
X44987136Y-24091985D01*
X44967861Y-24063940D01*
X44947145Y-24036942D01*
X44925044Y-24011065D01*
X44901619Y-23986381D01*
X44876935Y-23962956D01*
X44851058Y-23940855D01*
X44824060Y-23920139D01*
X44796015Y-23900864D01*
X44767000Y-23883083D01*
X44737094Y-23866846D01*
X44706379Y-23852195D01*
X44674939Y-23839173D01*
X44642861Y-23827813D01*
X44610232Y-23818148D01*
X44577143Y-23810204D01*
X44543682Y-23804003D01*
X44509944Y-23799561D01*
X44476018Y-23796891D01*
X44442000Y-23796000D01*
X44407982Y-23796891D01*
X44374056Y-23799561D01*
X44340318Y-23804003D01*
X44306857Y-23810204D01*
X44273768Y-23818148D01*
X44241139Y-23827813D01*
X44209061Y-23839173D01*
X44177621Y-23852195D01*
X44146906Y-23866846D01*
X44117000Y-23883083D01*
X44087985Y-23900864D01*
X44059940Y-23920139D01*
X44032942Y-23940855D01*
X44007065Y-23962956D01*
X43982381Y-23986381D01*
X43958956Y-24011065D01*
X43936855Y-24036942D01*
X43916139Y-24063940D01*
X43896864Y-24091985D01*
X43879083Y-24121000D01*
X43862846Y-24150906D01*
X43848195Y-24181621D01*
X43835173Y-24213061D01*
X43823813Y-24245139D01*
X43814148Y-24277768D01*
X43806204Y-24310857D01*
X43800003Y-24344318D01*
X43795561Y-24378056D01*
X43792891Y-24411982D01*
X43792000Y-24446000D01*
G36*
X36492000Y-24446000D02*
G01*
X36492000Y-26946000D01*
X36492891Y-26980018D01*
X36495561Y-27013944D01*
X36500003Y-27047682D01*
X36506204Y-27081143D01*
X36514148Y-27114232D01*
X36523813Y-27146861D01*
X36535173Y-27178939D01*
X36548195Y-27210379D01*
X36562846Y-27241094D01*
X36579083Y-27271000D01*
X36596864Y-27300015D01*
X36616139Y-27328060D01*
X36636855Y-27355058D01*
X36658956Y-27380935D01*
X36682381Y-27405619D01*
X36707065Y-27429044D01*
X36732942Y-27451145D01*
X36759940Y-27471861D01*
X36787985Y-27491136D01*
X36817000Y-27508917D01*
X36846906Y-27525154D01*
X36877621Y-27539805D01*
X36909061Y-27552827D01*
X36941139Y-27564187D01*
X36973768Y-27573852D01*
X37006857Y-27581796D01*
X37040318Y-27587997D01*
X37074056Y-27592439D01*
X37107982Y-27595109D01*
X37142000Y-27596000D01*
X37176018Y-27595109D01*
X37209944Y-27592439D01*
X37243682Y-27587997D01*
X37277143Y-27581796D01*
X37310232Y-27573852D01*
X37342861Y-27564187D01*
X37374939Y-27552827D01*
X37406379Y-27539805D01*
X37437094Y-27525154D01*
X37467000Y-27508917D01*
X37496015Y-27491136D01*
X37524060Y-27471861D01*
X37551058Y-27451145D01*
X37576935Y-27429044D01*
X37601619Y-27405619D01*
X37625044Y-27380935D01*
X37647145Y-27355058D01*
X37667861Y-27328060D01*
X37687136Y-27300015D01*
X37704917Y-27271000D01*
X37721154Y-27241094D01*
X37735805Y-27210379D01*
X37748827Y-27178939D01*
X37760187Y-27146861D01*
X37769852Y-27114232D01*
X37777796Y-27081143D01*
X37783997Y-27047682D01*
X37788439Y-27013944D01*
X37791109Y-26980018D01*
X37792000Y-26946000D01*
X37792000Y-24446000D01*
X37791109Y-24411982D01*
X37788439Y-24378056D01*
X37783997Y-24344318D01*
X37777796Y-24310857D01*
X37769852Y-24277768D01*
X37760187Y-24245139D01*
X37748827Y-24213061D01*
X37735805Y-24181621D01*
X37721154Y-24150906D01*
X37704917Y-24121000D01*
X37687136Y-24091985D01*
X37667861Y-24063940D01*
X37647145Y-24036942D01*
X37625044Y-24011065D01*
X37601619Y-23986381D01*
X37576935Y-23962956D01*
X37551058Y-23940855D01*
X37524060Y-23920139D01*
X37496015Y-23900864D01*
X37467000Y-23883083D01*
X37437094Y-23866846D01*
X37406379Y-23852195D01*
X37374939Y-23839173D01*
X37342861Y-23827813D01*
X37310232Y-23818148D01*
X37277143Y-23810204D01*
X37243682Y-23804003D01*
X37209944Y-23799561D01*
X37176018Y-23796891D01*
X37142000Y-23796000D01*
X37107982Y-23796891D01*
X37074056Y-23799561D01*
X37040318Y-23804003D01*
X37006857Y-23810204D01*
X36973768Y-23818148D01*
X36941139Y-23827813D01*
X36909061Y-23839173D01*
X36877621Y-23852195D01*
X36846906Y-23866846D01*
X36817000Y-23883083D01*
X36787985Y-23900864D01*
X36759940Y-23920139D01*
X36732942Y-23940855D01*
X36707065Y-23962956D01*
X36682381Y-23986381D01*
X36658956Y-24011065D01*
X36636855Y-24036942D01*
X36616139Y-24063940D01*
X36596864Y-24091985D01*
X36579083Y-24121000D01*
X36562846Y-24150906D01*
X36548195Y-24181621D01*
X36535173Y-24213061D01*
X36523813Y-24245139D01*
X36514148Y-24277768D01*
X36506204Y-24310857D01*
X36500003Y-24344318D01*
X36495561Y-24378056D01*
X36492891Y-24411982D01*
X36492000Y-24446000D01*
G37*
X36492000Y-24446000D02*
X36492000Y-26946000D01*
X36492891Y-26980018D01*
X36495561Y-27013944D01*
X36500003Y-27047682D01*
X36506204Y-27081143D01*
X36514148Y-27114232D01*
X36523813Y-27146861D01*
X36535173Y-27178939D01*
X36548195Y-27210379D01*
X36562846Y-27241094D01*
X36579083Y-27271000D01*
X36596864Y-27300015D01*
X36616139Y-27328060D01*
X36636855Y-27355058D01*
X36658956Y-27380935D01*
X36682381Y-27405619D01*
X36707065Y-27429044D01*
X36732942Y-27451145D01*
X36759940Y-27471861D01*
X36787985Y-27491136D01*
X36817000Y-27508917D01*
X36846906Y-27525154D01*
X36877621Y-27539805D01*
X36909061Y-27552827D01*
X36941139Y-27564187D01*
X36973768Y-27573852D01*
X37006857Y-27581796D01*
X37040318Y-27587997D01*
X37074056Y-27592439D01*
X37107982Y-27595109D01*
X37142000Y-27596000D01*
X37176018Y-27595109D01*
X37209944Y-27592439D01*
X37243682Y-27587997D01*
X37277143Y-27581796D01*
X37310232Y-27573852D01*
X37342861Y-27564187D01*
X37374939Y-27552827D01*
X37406379Y-27539805D01*
X37437094Y-27525154D01*
X37467000Y-27508917D01*
X37496015Y-27491136D01*
X37524060Y-27471861D01*
X37551058Y-27451145D01*
X37576935Y-27429044D01*
X37601619Y-27405619D01*
X37625044Y-27380935D01*
X37647145Y-27355058D01*
X37667861Y-27328060D01*
X37687136Y-27300015D01*
X37704917Y-27271000D01*
X37721154Y-27241094D01*
X37735805Y-27210379D01*
X37748827Y-27178939D01*
X37760187Y-27146861D01*
X37769852Y-27114232D01*
X37777796Y-27081143D01*
X37783997Y-27047682D01*
X37788439Y-27013944D01*
X37791109Y-26980018D01*
X37792000Y-26946000D01*
X37792000Y-24446000D01*
X37791109Y-24411982D01*
X37788439Y-24378056D01*
X37783997Y-24344318D01*
X37777796Y-24310857D01*
X37769852Y-24277768D01*
X37760187Y-24245139D01*
X37748827Y-24213061D01*
X37735805Y-24181621D01*
X37721154Y-24150906D01*
X37704917Y-24121000D01*
X37687136Y-24091985D01*
X37667861Y-24063940D01*
X37647145Y-24036942D01*
X37625044Y-24011065D01*
X37601619Y-23986381D01*
X37576935Y-23962956D01*
X37551058Y-23940855D01*
X37524060Y-23920139D01*
X37496015Y-23900864D01*
X37467000Y-23883083D01*
X37437094Y-23866846D01*
X37406379Y-23852195D01*
X37374939Y-23839173D01*
X37342861Y-23827813D01*
X37310232Y-23818148D01*
X37277143Y-23810204D01*
X37243682Y-23804003D01*
X37209944Y-23799561D01*
X37176018Y-23796891D01*
X37142000Y-23796000D01*
X37107982Y-23796891D01*
X37074056Y-23799561D01*
X37040318Y-23804003D01*
X37006857Y-23810204D01*
X36973768Y-23818148D01*
X36941139Y-23827813D01*
X36909061Y-23839173D01*
X36877621Y-23852195D01*
X36846906Y-23866846D01*
X36817000Y-23883083D01*
X36787985Y-23900864D01*
X36759940Y-23920139D01*
X36732942Y-23940855D01*
X36707065Y-23962956D01*
X36682381Y-23986381D01*
X36658956Y-24011065D01*
X36636855Y-24036942D01*
X36616139Y-24063940D01*
X36596864Y-24091985D01*
X36579083Y-24121000D01*
X36562846Y-24150906D01*
X36548195Y-24181621D01*
X36535173Y-24213061D01*
X36523813Y-24245139D01*
X36514148Y-24277768D01*
X36506204Y-24310857D01*
X36500003Y-24344318D01*
X36495561Y-24378056D01*
X36492891Y-24411982D01*
X36492000Y-24446000D01*
D14*
X126887840Y-122742560D03*
X128157840Y-122742560D03*
X131967840Y-122742560D03*
X130697840Y-122742560D03*
X129427840Y-122742560D03*
X131967840Y-117408560D03*
X130697840Y-117408560D03*
X126887840Y-117408560D03*
X128157840Y-117408560D03*
X129427840Y-117408560D03*
X275442280Y-122737480D03*
X276712280Y-122737480D03*
X280522280Y-122737480D03*
X279252280Y-122737480D03*
X277982280Y-122737480D03*
X280522280Y-117403480D03*
X279252280Y-117403480D03*
X275442280Y-117403480D03*
X276712280Y-117403480D03*
X277982280Y-117403480D03*
D15*
X47800000Y-50450000D03*
D16*
X150800000Y-69550000D03*
X213100000Y-107750000D03*
X282650000Y-50450000D03*
D17*
X47800000Y-48150000D03*
X45500000Y-50450000D03*
X50100000Y-50450000D03*
X47800000Y-52750000D03*
X46173654Y-48823654D03*
X49426346Y-48823654D03*
X46173654Y-52076346D03*
X49426346Y-52076346D03*
X282650000Y-48150000D03*
X282650000Y-52750000D03*
X283850000Y-52750000D03*
X281450000Y-52750000D03*
X281450000Y-48150000D03*
X283850000Y-48133000D03*
X213100000Y-105450000D03*
X213100000Y-110050000D03*
X214300000Y-105450000D03*
X211900000Y-105450000D03*
X211900000Y-110050000D03*
X214300000Y-110050000D03*
X150800000Y-67250000D03*
X152000000Y-67250000D03*
X149600000Y-67250000D03*
X150800000Y-71850000D03*
X149600000Y-71850000D03*
X152000000Y-71850000D03*
X29000000Y-79050000D03*
X26400000Y-76450000D03*
X26400000Y-81650000D03*
X28238478Y-77211522D03*
X28238478Y-80888478D03*
X24357965Y-76450000D03*
X24357965Y-81650000D03*
X301200000Y-79050000D03*
X301961522Y-77211522D03*
X303800000Y-76450000D03*
X305842035Y-76450000D03*
X305842035Y-81650000D03*
X303800000Y-81650000D03*
X301961522Y-80888478D03*
D14*
X46634000Y-117398400D03*
X45364000Y-117398400D03*
X44094000Y-117398400D03*
X47904000Y-117398400D03*
X49174000Y-117398400D03*
X46634000Y-122732400D03*
X47904000Y-122732400D03*
X49174000Y-122732400D03*
X45364000Y-122732400D03*
X44094000Y-122732400D03*
D18*
X45745000Y-31775040D03*
X55905000Y-31775040D03*
D19*
X54635000Y-34315040D03*
D20*
X50825000Y-31775040D03*
D19*
X48285000Y-36855040D03*
D21*
X304743750Y-65500000D03*
X306493750Y-65500000D03*
X304743750Y-62000000D03*
X306493750Y-62000000D03*
X306493750Y-70000000D03*
X304743750Y-70000000D03*
X306493750Y-73500000D03*
X304743750Y-73500000D03*
D22*
X298712500Y-100619140D03*
X293712500Y-100619140D03*
D23*
X301812500Y-107619140D03*
X290612500Y-107619140D03*
D22*
X298712500Y-115119140D03*
X296212500Y-115119140D03*
D24*
X293712500Y-115119140D03*
D18*
X62413750Y-107975360D03*
X72573750Y-107975360D03*
D20*
X67493750Y-107975360D03*
X50825000Y-107975360D03*
D18*
X55905000Y-107975360D03*
X45745000Y-107975360D03*
X48126250Y-107975360D03*
X58286250Y-107975360D03*
D20*
X53206250Y-107975360D03*
X36537500Y-107975360D03*
D18*
X41617500Y-107975360D03*
X31457500Y-107975360D03*
D20*
X34156250Y-107975360D03*
D18*
X39236250Y-107975360D03*
X29076250Y-107975360D03*
X26695000Y-107975360D03*
X36855000Y-107975360D03*
D20*
X31775000Y-107975360D03*
D18*
X86226250Y-107975360D03*
X96386250Y-107975360D03*
D20*
X91306250Y-107975360D03*
D18*
X69557500Y-107975360D03*
X79717500Y-107975360D03*
D20*
X74637500Y-107975360D03*
X77018750Y-107975360D03*
D18*
X82098750Y-107975360D03*
X71938750Y-107975360D03*
D20*
X198456150Y-99720360D03*
X98456350Y-99720360D03*
D25*
X198456150Y-114960360D03*
X98456350Y-114960360D03*
D18*
X153536250Y-107975360D03*
X143376250Y-107975360D03*
D20*
X148456250Y-107975360D03*
X29362000Y-80670280D03*
X53238000Y-80670280D03*
D25*
X29362000Y-95910280D03*
X53238000Y-95910280D03*
D18*
X46380000Y-88925280D03*
X36220000Y-88925280D03*
D19*
X37490000Y-86385280D03*
D20*
X41300000Y-88925280D03*
D19*
X43840000Y-83845280D03*
X41458750Y-102895360D03*
D20*
X38918750Y-107975360D03*
D19*
X35108750Y-105435360D03*
D18*
X33838750Y-107975360D03*
X43998750Y-107975360D03*
D19*
X127183750Y-102895360D03*
D20*
X124643750Y-107975360D03*
D19*
X120833750Y-105435360D03*
D18*
X119563750Y-107975360D03*
X129723750Y-107975360D03*
D25*
X136581750Y-114960360D03*
X112705750Y-114960360D03*
D20*
X136581750Y-99720360D03*
X112705750Y-99720360D03*
D19*
X167665000Y-102895360D03*
D20*
X165125000Y-107975360D03*
D19*
X161315000Y-105435360D03*
D18*
X160045000Y-107975360D03*
X170205000Y-107975360D03*
D25*
X177063000Y-114960360D03*
X153187000Y-114960360D03*
D20*
X177063000Y-99720360D03*
X153187000Y-99720360D03*
D19*
X29235000Y-36855040D03*
D20*
X31775000Y-31775040D03*
D19*
X35585000Y-34315040D03*
D18*
X36855000Y-31775040D03*
X26695000Y-31775040D03*
X41617500Y-50825120D03*
X31457500Y-50825120D03*
D19*
X32727500Y-48285120D03*
D20*
X36537500Y-50825120D03*
D19*
X39077500Y-45745120D03*
D18*
X41617500Y-69875200D03*
X31457500Y-69875200D03*
D19*
X32727500Y-67335200D03*
D20*
X36537500Y-69875200D03*
D19*
X39077500Y-64795200D03*
D18*
X65430000Y-50825120D03*
X55270000Y-50825120D03*
D19*
X56540000Y-48285120D03*
D20*
X60350000Y-50825120D03*
D19*
X62890000Y-45745120D03*
X57810000Y-74955200D03*
D20*
X60350000Y-69875200D03*
D19*
X64160000Y-72415200D03*
D18*
X65430000Y-69875200D03*
X55270000Y-69875200D03*
D19*
X72415000Y-83845280D03*
D20*
X69875000Y-88925280D03*
D19*
X66065000Y-86385280D03*
D18*
X64795000Y-88925280D03*
X74955000Y-88925280D03*
X70192500Y-107975360D03*
X60032500Y-107975360D03*
D19*
X61302500Y-105435360D03*
D20*
X65112500Y-107975360D03*
D19*
X67652500Y-102895360D03*
X72415000Y-26695040D03*
D20*
X69875000Y-31775040D03*
D19*
X66065000Y-29235040D03*
D18*
X64795000Y-31775040D03*
X74955000Y-31775040D03*
X84480000Y-50825120D03*
X74320000Y-50825120D03*
D19*
X75590000Y-48285120D03*
D20*
X79400000Y-50825120D03*
D19*
X81940000Y-45745120D03*
X76860000Y-74955200D03*
D20*
X79400000Y-69875200D03*
D19*
X83210000Y-72415200D03*
D18*
X84480000Y-69875200D03*
X74320000Y-69875200D03*
D19*
X91465000Y-83845280D03*
D20*
X88925000Y-88925280D03*
D19*
X85115000Y-86385280D03*
D18*
X83845000Y-88925280D03*
X94005000Y-88925280D03*
X94005000Y-107975360D03*
X83845000Y-107975360D03*
D19*
X85115000Y-105435360D03*
D20*
X88925000Y-107975360D03*
D19*
X91465000Y-102895360D03*
X91465000Y-26695040D03*
D20*
X88925000Y-31775040D03*
D19*
X85115000Y-29235040D03*
D18*
X83845000Y-31775040D03*
X94005000Y-31775040D03*
X103530000Y-50825120D03*
X93370000Y-50825120D03*
D19*
X94640000Y-48285120D03*
D20*
X98450000Y-50825120D03*
D19*
X100990000Y-45745120D03*
X100990000Y-64795200D03*
D20*
X98450000Y-69875200D03*
D19*
X94640000Y-67335200D03*
D18*
X93370000Y-69875200D03*
X103530000Y-69875200D03*
D19*
X110515000Y-83845280D03*
D20*
X107975000Y-88925280D03*
D19*
X104165000Y-86385280D03*
D18*
X102895000Y-88925280D03*
X113055000Y-88925280D03*
D19*
X110515000Y-26695040D03*
D20*
X107975000Y-31775040D03*
D19*
X104165000Y-29235040D03*
D18*
X102895000Y-31775040D03*
X113055000Y-31775040D03*
X122580000Y-50825120D03*
X112420000Y-50825120D03*
D19*
X113690000Y-48285120D03*
D20*
X117500000Y-50825120D03*
D19*
X120040000Y-45745120D03*
X120040000Y-64795200D03*
D20*
X117500000Y-69875200D03*
D19*
X113690000Y-67335200D03*
D18*
X112420000Y-69875200D03*
X122580000Y-69875200D03*
D19*
X129565000Y-83845280D03*
D20*
X127025000Y-88925280D03*
D19*
X123215000Y-86385280D03*
D18*
X121945000Y-88925280D03*
X132105000Y-88925280D03*
D19*
X129565000Y-26695040D03*
D20*
X127025000Y-31775040D03*
D19*
X123215000Y-29235040D03*
D18*
X121945000Y-31775040D03*
X132105000Y-31775040D03*
X141630000Y-50825120D03*
X131470000Y-50825120D03*
D19*
X132740000Y-48285120D03*
D20*
X136550000Y-50825120D03*
D19*
X139090000Y-45745120D03*
X139090000Y-64795200D03*
D20*
X136550000Y-69875200D03*
D19*
X132740000Y-67335200D03*
D18*
X131470000Y-69875200D03*
X141630000Y-69875200D03*
D19*
X148615000Y-83845280D03*
D20*
X146075000Y-88925280D03*
D19*
X142265000Y-86385280D03*
D18*
X140995000Y-88925280D03*
X151155000Y-88925280D03*
X151155000Y-31775040D03*
X140995000Y-31775040D03*
D19*
X142265000Y-29235040D03*
D20*
X146075000Y-31775040D03*
D19*
X148615000Y-26695040D03*
D18*
X160680000Y-50825120D03*
X150520000Y-50825120D03*
D19*
X151790000Y-48285120D03*
D20*
X155600000Y-50825120D03*
D19*
X158140000Y-45745120D03*
X153060000Y-74955200D03*
D20*
X155600000Y-69875200D03*
D19*
X159410000Y-72415200D03*
D18*
X160680000Y-69875200D03*
X150520000Y-69875200D03*
D19*
X167665000Y-83845280D03*
D20*
X165125000Y-88925280D03*
D19*
X161315000Y-86385280D03*
D18*
X160045000Y-88925280D03*
X170205000Y-88925280D03*
D19*
X167665000Y-26695040D03*
D20*
X165125000Y-31775040D03*
D19*
X161315000Y-29235040D03*
D18*
X160045000Y-31775040D03*
X170205000Y-31775040D03*
X179730000Y-50825120D03*
X169570000Y-50825120D03*
D19*
X170840000Y-48285120D03*
D20*
X174650000Y-50825120D03*
D19*
X177190000Y-45745120D03*
D18*
X179730000Y-69875200D03*
X169570000Y-69875200D03*
D19*
X170840000Y-67335200D03*
D20*
X174650000Y-69875200D03*
D19*
X177190000Y-64795200D03*
X186715000Y-83845280D03*
D20*
X184175000Y-88925280D03*
D19*
X180365000Y-86385280D03*
D18*
X179095000Y-88925280D03*
X189255000Y-88925280D03*
X189255000Y-31775040D03*
X179095000Y-31775040D03*
D19*
X180365000Y-29235040D03*
D20*
X184175000Y-31775040D03*
D19*
X186715000Y-26695040D03*
D18*
X198780000Y-50825120D03*
X188620000Y-50825120D03*
D19*
X189890000Y-48285120D03*
D20*
X193700000Y-50825120D03*
D19*
X196240000Y-45745120D03*
D18*
X198780000Y-69875200D03*
X188620000Y-69875200D03*
D19*
X189890000Y-67335200D03*
D20*
X193700000Y-69875200D03*
D19*
X196240000Y-64795200D03*
X205765000Y-83845280D03*
D20*
X203225000Y-88925280D03*
D19*
X199415000Y-86385280D03*
D18*
X198145000Y-88925280D03*
X208305000Y-88925280D03*
D19*
X205765000Y-26695040D03*
D20*
X203225000Y-31775040D03*
D19*
X199415000Y-29235040D03*
D18*
X198145000Y-31775040D03*
X208305000Y-31775040D03*
X217830000Y-50825120D03*
X207670000Y-50825120D03*
D19*
X208940000Y-48285120D03*
D20*
X212750000Y-50825120D03*
D19*
X215290000Y-45745120D03*
D18*
X217830000Y-69875200D03*
X207670000Y-69875200D03*
D19*
X208940000Y-67335200D03*
D20*
X212750000Y-69875200D03*
D19*
X215290000Y-64795200D03*
X224815000Y-83845280D03*
D20*
X222275000Y-88925280D03*
D19*
X218465000Y-86385280D03*
D18*
X217195000Y-88925280D03*
X227355000Y-88925280D03*
X227355000Y-31775040D03*
X217195000Y-31775040D03*
D19*
X218465000Y-29235040D03*
D20*
X222275000Y-31775040D03*
D19*
X224815000Y-26695040D03*
D18*
X236880000Y-50825120D03*
X226720000Y-50825120D03*
D19*
X227990000Y-48285120D03*
D20*
X231800000Y-50825120D03*
D19*
X234340000Y-45745120D03*
D18*
X236880000Y-69875200D03*
X226720000Y-69875200D03*
D19*
X227990000Y-67335200D03*
D20*
X231800000Y-69875200D03*
D19*
X234340000Y-64795200D03*
X201002500Y-102895360D03*
D20*
X198462500Y-107975360D03*
D19*
X194652500Y-105435360D03*
D18*
X193382500Y-107975360D03*
X203542500Y-107975360D03*
D19*
X243865000Y-26695040D03*
D20*
X241325000Y-31775040D03*
D19*
X237515000Y-29235040D03*
D18*
X236245000Y-31775040D03*
X246405000Y-31775040D03*
D19*
X258152500Y-45745120D03*
D20*
X255612500Y-50825120D03*
D19*
X251802500Y-48285120D03*
D18*
X250532500Y-50825120D03*
X260692500Y-50825120D03*
D19*
X243865000Y-83845280D03*
D20*
X241325000Y-88925280D03*
D19*
X237515000Y-86385280D03*
D18*
X236245000Y-88925280D03*
X246405000Y-88925280D03*
X265455000Y-31775040D03*
X255295000Y-31775040D03*
D19*
X256565000Y-29235040D03*
D20*
X260375000Y-31775040D03*
D19*
X262915000Y-26695040D03*
D18*
X298792500Y-69875200D03*
X288632500Y-69875200D03*
D19*
X289902500Y-67335200D03*
D20*
X293712500Y-69875200D03*
D19*
X296252500Y-64795200D03*
D18*
X272598750Y-88925280D03*
X262438750Y-88925280D03*
D19*
X263708750Y-86385280D03*
D20*
X267518750Y-88925280D03*
D19*
X270058750Y-83845280D03*
D18*
X258311250Y-107975360D03*
X248151250Y-107975360D03*
D19*
X249421250Y-105435360D03*
D20*
X253231250Y-107975360D03*
D19*
X255771250Y-102895360D03*
X281965000Y-26695040D03*
D20*
X279425000Y-31775040D03*
D19*
X275615000Y-29235040D03*
D18*
X274345000Y-31775040D03*
X284505000Y-31775040D03*
X303555000Y-31775040D03*
X293395000Y-31775040D03*
D19*
X294665000Y-29235040D03*
D20*
X298475000Y-31775040D03*
D19*
X301015000Y-26695040D03*
D18*
X303555000Y-50825120D03*
X293395000Y-50825120D03*
D19*
X294665000Y-48285120D03*
D20*
X298475000Y-50825120D03*
D19*
X301015000Y-45745120D03*
D18*
X291013750Y-88925280D03*
X301173750Y-88925280D03*
D19*
X299903750Y-91465280D03*
D20*
X296093750Y-88925280D03*
D19*
X293553750Y-94005280D03*
D18*
X191001250Y-107975360D03*
X201161250Y-107975360D03*
D20*
X196081250Y-107975360D03*
X222275000Y-107975360D03*
D18*
X227355000Y-107975360D03*
X217195000Y-107975360D03*
D26*
X219893750Y-107975360D03*
D27*
X223703750Y-110515360D03*
X217353750Y-113055360D03*
D19*
X281965000Y-45745120D03*
D20*
X279425000Y-50825120D03*
D19*
X275615000Y-48285120D03*
D18*
X274345000Y-50825120D03*
X284505000Y-50825120D03*
D20*
X250850000Y-50825120D03*
D18*
X255930000Y-50825120D03*
X245770000Y-50825120D03*
D20*
X250850000Y-69875200D03*
D18*
X255930000Y-69875200D03*
X245770000Y-69875200D03*
X243388750Y-88925280D03*
X253548750Y-88925280D03*
D20*
X248468750Y-88925280D03*
D18*
X264820000Y-50825120D03*
X274980000Y-50825120D03*
D20*
X269900000Y-50825120D03*
X274662500Y-88925280D03*
D18*
X279742500Y-88925280D03*
X269582500Y-88925280D03*
X288632500Y-50825120D03*
X298792500Y-50825120D03*
D20*
X293712500Y-50825120D03*
D18*
X298792500Y-88925280D03*
X288632500Y-88925280D03*
D20*
X293712500Y-88925280D03*
D19*
X265296250Y-64795200D03*
D20*
X262756250Y-69875200D03*
D19*
X258946250Y-67335200D03*
D18*
X257676250Y-69875200D03*
X267836250Y-69875200D03*
D25*
X274694250Y-76860200D03*
X250818250Y-76860200D03*
D20*
X274694250Y-61620200D03*
X250818250Y-61620200D03*
D18*
X255295000Y-107975360D03*
X265455000Y-107975360D03*
D20*
X260375000Y-107975360D03*
D18*
X241007500Y-107975360D03*
X251167500Y-107975360D03*
D20*
X246087500Y-107975360D03*
X241325000Y-107975360D03*
D18*
X246405000Y-107975360D03*
X236245000Y-107975360D03*
D20*
X257993750Y-107975360D03*
D18*
X263073750Y-107975360D03*
X252913750Y-107975360D03*
X229736250Y-107975360D03*
X219576250Y-107975360D03*
D20*
X224656250Y-107975360D03*
D26*
X222275000Y-107975360D03*
D27*
X218465000Y-105435360D03*
X224815000Y-102895360D03*
D20*
X269900000Y-61620200D03*
X293712500Y-61620200D03*
D25*
X269900000Y-76860200D03*
X293712500Y-76860200D03*
D18*
X276726250Y-69875200D03*
X286886250Y-69875200D03*
D20*
X281806250Y-69875200D03*
X277043750Y-40030040D03*
X300856250Y-40030040D03*
D25*
X277043750Y-24790040D03*
X300856250Y-24790040D03*
D18*
X283870000Y-31775040D03*
X294030000Y-31775040D03*
D20*
X288950000Y-31775040D03*
D28*
X37142000Y-25696000D03*
X44442000Y-25696000D03*
D27*
X277043750Y-107975360D03*
X298475000Y-107975360D03*
D29*
X89814000Y-42697000D03*
X92354000Y-42697000D03*
D30*
X94894000Y-42697000D03*
M02*
