<?xml version="1.0" encoding="UTF-8" standalone="no"?>
<!DOCTYPE svg PUBLIC "-//W3C//DTD SVG 1.1//EN" "http://www.w3.org/Graphics/SVG/1.1/DTD/svg11.dtd">
<svg width="100%" height="100%" viewBox="0 0 1118 398" version="1.1" xmlns="http://www.w3.org/2000/svg" xmlns:xlink="http://www.w3.org/1999/xlink" xml:space="preserve" xmlns:serif="http://www.serif.com/" style="fill-rule:evenodd;clip-rule:evenodd;">
    <g transform="matrix(1.33333,0,0,1.33333,0,0)">
        <g id="KLEから生成">
            <path id="外形" d="M817.016,183.331L822.229,183.331C822.605,183.331 822.965,183.48 823.231,183.746C823.497,184.012 823.646,184.372 823.646,184.748L823.646,278.05L823.629,278.49L823.575,278.932L823.487,279.369L823.368,279.799L823.212,280.219L823.028,280.619L822.81,281.007L822.566,281.378L822.285,281.73L821.985,282.059L821.656,282.356L821.307,282.634L820.936,282.881L820.548,283.099L820.145,283.283L819.731,283.442L819.298,283.561L818.861,283.646L818.419,283.697L817.977,283.714L20.378,283.72L19.933,283.697L19.491,283.646L19.054,283.561L18.624,283.442L18.207,283.283L17.804,283.099L17.416,282.881L17.045,282.634L16.696,282.356L16.367,282.059L16.067,281.73L15.789,281.378L15.542,281.007L15.324,280.619L15.14,280.219L14.984,279.799L14.865,279.369L14.777,278.932L14.726,278.49L14.706,278.05L14.706,184.961C14.706,184.585 14.855,184.224 15.121,183.958C15.387,183.693 15.748,183.543 16.123,183.543L21.334,183.543L21.334,222.831L29.767,222.831L29.767,225.553L39.121,225.553L39.121,222.831L97.228,222.831L97.228,225.553L106.583,225.553L106.583,222.831L115.019,222.831L115.019,183.543L30.362,183.543L30.362,168.168L16.123,168.168C15.748,168.168 15.387,168.019 15.121,167.753C14.855,167.487 14.706,167.127 14.706,166.751C14.706,151.613 14.709,20.305 14.709,20.305L14.726,19.86L14.777,19.417L14.865,18.981L14.984,18.55L15.14,18.133L15.324,17.731L15.542,17.342L15.789,16.971L16.067,16.622L16.367,16.294L16.696,15.993L17.045,15.715L17.416,15.469L17.804,15.25L18.207,15.066L18.624,14.91L19.054,14.791L19.491,14.703L19.933,14.652L20.378,14.632L817.977,14.635L818.419,14.652L818.861,14.703L819.298,14.791L819.731,14.91L820.145,15.066L820.548,15.25L820.936,15.469L821.307,15.715L821.656,15.993L821.985,16.294L822.285,16.622L822.566,16.971L822.81,17.342L823.028,17.731L823.212,18.133L823.368,18.55L823.487,18.981L823.575,19.417L823.629,19.86L823.646,20.305L823.646,126.795L814,126.795L814,137L823.646,137L823.646,148.795L814,148.795L814,159L823.646,159L823.646,166.751C823.646,167.534 823.011,168.168 822.229,168.168C818.655,168.168 809.558,168.168 809.558,168.168L809.558,183.331M763.016,252.832L763.016,237.331L723.331,237.331L723.331,252.342C722.191,253.599 721.496,255.268 721.496,257.097C721.496,258.926 722.191,260.595 723.331,261.852L723.331,277.016L763.016,277.016L763.016,261.36C763.912,260.173 764.443,258.696 764.443,257.096C764.443,255.496 763.912,254.019 763.016,252.832ZM81.269,250.043L81.269,237.331L21.334,237.331L21.334,252.338C20.192,253.596 19.496,255.265 19.496,257.096C19.496,258.927 20.192,260.597 21.334,261.855L21.334,277.016L81.269,277.016L81.269,264.15C84.859,263.804 87.67,260.776 87.67,257.096C87.67,253.417 84.859,250.388 81.269,250.043ZM115.835,237.331L115.835,277.016L162.269,277.016L162.269,237.331L115.835,237.331ZM183.331,237.331L183.331,277.016L236.52,277.016L236.52,237.331L183.331,237.331ZM777.528,237.546L777.528,276.806L819.104,276.806L819.104,237.546L777.528,237.546ZM702.269,252.817L702.269,237.516L565.583,237.516L565.583,234.794L556.231,234.794L556.231,237.516L554.581,237.516L554.581,238.164L551.341,238.164L551.341,250.705L547.019,250.705L547.019,237.516L498.121,237.516L498.121,234.794L488.764,234.794L488.764,237.516L487.083,237.516L487.083,238.164L483.877,238.164L483.877,255.756L481.538,255.756L481.538,263.614L483.877,263.614L483.877,272.678L487.083,272.678L487.083,276.803L547.019,276.803L547.019,263.614L551.341,263.614L551.341,272.678L554.581,272.678L554.581,276.803L702.269,276.803L702.269,261.377C703.173,260.188 703.709,258.704 703.709,257.097C703.709,255.489 703.173,254.006 702.269,252.817ZM380.767,234.794L380.767,238.164L375.877,238.164L375.877,255.756L373.535,255.756L373.535,263.614L375.877,263.614L375.877,272.678L399.334,272.678L399.334,276.803L445.768,276.803L445.768,272.678L469.222,272.678L469.222,263.614L471.563,263.614L471.563,255.756L469.222,255.756L469.222,238.164L464.332,238.164L464.332,234.794L448.231,234.794L448.231,238.164L445.768,238.164L445.768,237.516L399.334,237.516L399.334,238.164L396.87,238.164L396.87,234.794L380.767,234.794ZM266.017,234.794L266.017,238.164L261.128,238.164L261.128,255.756L258.786,255.756L258.786,263.614L261.128,263.614L261.128,272.678L284.584,272.678L284.584,276.803L331.019,276.803L331.019,272.678L354.472,272.678L354.472,263.614L356.814,263.614L356.814,255.756L354.472,255.756L354.472,238.164L349.586,238.164L349.586,234.794L333.482,234.794L333.482,238.164L331.019,238.164L331.019,237.516L284.584,237.516L284.584,238.164L282.121,238.164L282.121,234.794L266.017,234.794ZM507.334,183.331L507.334,223.016L547.019,223.016L547.019,183.331L507.334,183.331ZM345.334,183.331L345.334,223.016L385.019,223.016L385.019,183.331L345.334,183.331ZM561.331,183.331L561.331,223.016L601.016,223.016L601.016,183.331L561.331,183.331ZM453.331,183.331L453.331,223.016L493.016,223.016L493.016,183.331L453.331,183.331ZM129.334,183.331L129.334,223.016L169.019,223.016L169.019,183.331L129.334,183.331ZM669.334,183.331L669.334,223.016L763.016,223.016L763.016,183.331L669.334,183.331ZM809.558,183.331L770.581,183.331L770.581,223.016L817.016,223.016L817.016,183.331M183.331,183.331L183.331,223.016L223.016,223.016L223.016,183.331L183.331,183.331ZM615.334,183.331L615.334,223.016L655.019,223.016L655.019,183.331L615.334,183.331ZM237.334,183.331L237.334,223.016L277.019,223.016L277.019,183.331L237.334,183.331ZM399.334,183.331L399.334,223.016L439.019,223.016L439.019,183.331L399.334,183.331ZM291.334,183.331L291.334,223.016L331.019,223.016L331.019,183.331L291.334,183.331ZM34.835,129.334L34.835,169.019L74.52,169.019L74.52,129.334L34.835,129.334ZM534.334,129.334L534.334,169.019L574.019,169.019L574.019,129.334L534.334,129.334ZM372.125,129.334L372.125,146.143L371.686,146.985L371.344,149.179L371.686,151.364L372.125,152.212L372.125,169.019L412.019,169.019L412.019,129.334L372.125,129.334ZM426.331,129.334L426.331,169.019L466.016,169.019L466.016,129.334L426.331,129.334ZM588.331,129.334L588.331,169.019L628.016,169.019L628.016,129.334L588.331,129.334ZM480.334,129.334L480.334,169.019L520.019,169.019L520.019,129.334L480.334,129.334ZM264.334,129.334L264.334,169.019L304.019,169.019L304.019,129.334L264.334,129.334ZM210.334,129.334L210.334,169.019L250.019,169.019L250.019,129.334L210.334,129.334ZM156.334,129.334L156.334,169.019L196.019,169.019L196.019,129.334L156.334,129.334ZM102.331,129.334L102.331,169.019L142.016,169.019L142.016,129.334L102.331,129.334ZM318.331,129.334L318.331,169.019L358.016,169.019L358.016,129.334L318.331,129.334ZM657.516,126.794L657.516,129.519L642.334,129.519L642.334,168.806L803.517,168.806L803.517,129.519L788.332,129.519L788.332,126.794L778.978,126.794L778.978,129.519L734.332,129.519L734.332,126.794L724.98,126.794L724.98,129.519L720.867,129.519L720.867,126.794L711.516,126.794L711.516,129.519L666.87,129.519L666.87,126.794L657.516,126.794ZM318.331,75.331L318.331,115.016L358.016,115.016L358.016,75.331L318.331,75.331ZM372.334,75.331L372.334,115.016L412.019,115.016L412.019,75.331L372.334,75.331ZM426.331,75.331L426.331,115.016L466.016,115.016L466.016,75.331L426.331,75.331ZM210.334,75.331L210.334,115.016L250.019,115.016L250.019,75.331L210.334,75.331ZM480.334,75.331L480.334,115.016L520.019,115.016L520.019,75.331L480.334,75.331ZM534.334,75.331L534.334,115.016L574.019,115.016L574.019,75.331L534.334,75.331ZM34.835,75.331L34.835,115.016L74.52,115.016L74.52,75.331L34.835,75.331ZM588.331,75.331L588.331,115.016L628.016,115.016L628.016,75.331L588.331,75.331ZM264.334,75.331L264.334,115.016L304.019,115.016L304.019,75.331L264.334,75.331ZM156.334,75.331L156.334,115.016L196.019,115.016L196.019,75.331L156.334,75.331ZM102.331,75.331L102.331,115.016L142.016,115.016L142.016,75.331L102.331,75.331ZM642.546,75.331L642.546,115.016L816.803,115.016L816.803,75.331L642.546,75.331ZM84.482,87.443L82.509,88.449L80.938,90.016L79.934,91.992L79.588,94.185L79.934,96.37L80.938,98.346L82.509,99.913L84.482,100.919L86.676,101.271L88.865,100.919L90.841,99.913L92.404,98.346L93.416,96.37L93.762,94.185L93.416,91.992L92.404,90.016L90.841,88.449L88.865,87.443L86.676,87.097L84.482,87.443ZM723.543,21.543L723.543,60.831L731.938,60.831L731.938,63.553L741.25,63.553L741.25,60.831L799.096,60.831L799.096,63.553L808.408,63.553L808.408,60.831L816.803,60.831L816.803,21.543L723.543,21.543ZM129.334,21.331L129.334,61.016L169.019,61.016L169.019,21.331L129.334,21.331ZM561.331,21.331L561.331,61.016L601.016,61.016L601.016,21.331L561.331,21.331ZM507.334,21.331L507.334,61.016L547.019,61.016L547.019,21.331L507.334,21.331ZM399.334,21.331L399.334,61.016L439.019,61.016L439.019,21.331L399.334,21.331ZM183.331,21.331L183.331,61.016L223.016,61.016L223.016,21.331L183.331,21.331ZM345.334,21.331L345.334,61.016L385.019,61.016L385.019,21.331L345.334,21.331ZM615.334,21.331L615.334,61.016L655.019,61.016L655.019,21.331L615.334,21.331ZM669.334,21.331L669.334,61.016L709.019,61.016L709.019,21.331L669.334,21.331ZM75.334,21.331L75.334,61.016L115.019,61.016L115.019,21.331L75.334,21.331ZM453.331,21.331L453.331,61.016L493.016,61.016L493.016,21.331L453.331,21.331ZM291.334,21.331L291.334,61.016L331.019,61.016L331.019,21.331L291.334,21.331ZM237.334,21.331L237.334,61.016L277.019,61.016L277.019,21.331L237.334,21.331ZM21.334,21.331L21.334,61.016L61.019,61.016L61.019,21.331L21.334,21.331Z" style="fill:rgb(154,154,154);fill-rule:nonzero;stroke:rgb(0,61,246);stroke-width:0.85px;"/>
        </g>
    </g>
</svg>
