<?xml version="1.0" encoding="UTF-8" standalone="no"?>
<!DOCTYPE svg PUBLIC "-//W3C//DTD SVG 1.1//EN" "http://www.w3.org/Graphics/SVG/1.1/DTD/svg11.dtd">
<svg width="100%" height="100%" viewBox="0 0 1323 398" version="1.1" xmlns="http://www.w3.org/2000/svg" xmlns:xlink="http://www.w3.org/1999/xlink" xml:space="preserve" xmlns:serif="http://www.serif.com/" style="fill-rule:evenodd;clip-rule:evenodd;stroke-linecap:round;stroke-linejoin:round;stroke-miterlimit:1.5;">
    <g transform="matrix(1.33333,0,0,1.33333,0,0)">
        <path id="マージ済みv.0.3_捨て基板つき" d="M903.383,243.684C901.818,243.684 900.549,244.952 900.549,246.517C900.544,254.744 900.533,278.05 900.533,278.05L900.516,278.49L900.462,278.932L900.374,279.369L900.255,279.799L900.099,280.219L899.915,280.619L899.697,281.007L899.453,281.378L899.172,281.73L898.872,282.059L898.543,282.356L898.194,282.634L897.823,282.881L897.435,283.099L897.032,283.283L896.618,283.442L896.185,283.561L895.748,283.646L895.306,283.697L894.864,283.714L97.265,283.72L96.82,283.697L96.378,283.646L95.941,283.561L95.511,283.442L95.094,283.283L94.691,283.099L94.303,282.881L93.932,282.634L93.583,282.356L93.254,282.059L92.954,281.73L92.676,281.378L92.429,281.007L92.211,280.619L92.027,280.219L91.871,279.799L91.752,279.369L91.664,278.932L91.613,278.49L91.593,278.05C91.593,278.05 91.593,254.746 91.592,246.519C91.592,244.953 90.323,243.684 88.758,243.684C84.401,243.684 76.107,243.684 71.751,243.684C70.999,243.684 70.278,243.983 69.746,244.514C69.215,245.046 68.916,245.767 68.916,246.519C68.916,254.42 68.916,276.491 68.916,282.302C68.916,283.085 68.281,283.72 67.499,283.72C63.427,283.72 51.728,283.72 47.656,283.72C46.873,283.72 46.239,283.085 46.239,282.302C46.239,262.26 46.239,36.092 46.239,16.05C46.239,15.267 46.873,14.632 47.656,14.632C51.728,14.632 63.427,14.632 67.499,14.632C68.281,14.632 68.916,15.267 68.916,16.05C68.916,23.526 68.916,58.427 68.916,68.672C68.916,69.424 69.215,70.145 69.746,70.677C70.278,71.208 70.999,71.507 71.751,71.507C76.107,71.507 84.402,71.507 88.759,71.507C90.324,71.507 91.593,70.238 91.593,68.672C91.594,57.927 91.596,20.305 91.596,20.305L91.613,19.86L91.664,19.417L91.752,18.981L91.871,18.55L92.027,18.133L92.211,17.731L92.429,17.342L92.676,16.971L92.954,16.622L93.254,16.294L93.583,15.993L93.932,15.715L94.303,15.469L94.691,15.25L95.094,15.066L95.511,14.91L95.941,14.791L96.378,14.703L96.82,14.652L97.265,14.632L894.864,14.635L895.306,14.652L895.748,14.703L896.185,14.791L896.618,14.91L897.032,15.066L897.435,15.25L897.823,15.469L898.194,15.715L898.543,15.993L898.872,16.294L899.172,16.622L899.453,16.971L899.697,17.342L899.915,17.731L900.099,18.133L900.255,18.55L900.374,18.981L900.462,19.417L900.516,19.86L900.533,20.305L900.533,68.672C900.533,69.424 900.832,70.145 901.363,70.677C901.895,71.208 902.616,71.507 903.368,71.507C907.728,71.507 916.032,71.507 920.392,71.507C921.144,71.507 921.865,71.208 922.397,70.677C922.928,70.145 923.227,69.424 923.227,68.672C923.227,58.427 923.227,23.526 923.227,16.05C923.227,15.267 923.862,14.632 924.644,14.632C928.716,14.632 940.415,14.632 944.487,14.632C945.27,14.632 945.904,15.267 945.904,16.05C945.904,36.092 945.904,262.26 945.904,282.302C945.904,283.085 945.27,283.72 944.487,283.72C940.415,283.72 928.716,283.72 924.644,283.72C923.862,283.72 923.227,283.085 923.227,282.302C923.227,276.491 923.227,254.42 923.227,246.519C923.227,245.767 922.928,245.046 922.397,244.514C921.865,243.983 921.144,243.684 920.392,243.684C916.035,243.684 907.74,243.684 903.383,243.684ZM779.153,252.812L779.153,238.776C779.153,237.999 778.513,237.359 777.735,237.359L647.821,237.359L647.821,233.107C647.821,232.33 647.182,231.69 646.404,231.69L629.396,231.69C628.619,231.69 627.979,232.33 627.979,233.107L627.979,272.792C627.979,273.57 628.619,274.209 629.396,274.209L631.468,274.209L631.468,275.627C631.468,276.404 632.107,277.044 632.885,277.044L777.735,277.044C778.513,277.044 779.153,276.404 779.153,275.627L779.153,261.381C780.058,260.191 780.596,258.706 780.596,257.097C780.596,255.487 780.058,254.003 779.153,252.812ZM406.646,231.69C406.27,231.69 405.91,231.839 405.644,232.105C405.378,232.371 405.229,232.731 405.229,233.107C405.229,234.786 405.229,237.359 405.229,237.359L364.141,237.359L364.141,233.107C364.141,232.33 363.502,231.69 362.724,231.69L338.966,231.69L338.752,231.706L338.569,231.747L338.323,231.846C338.163,231.928 338.02,232.041 337.902,232.176C337.864,232.218 337.829,232.263 337.797,232.31L337.675,232.526L337.601,232.744L337.571,232.858L337.549,233.107L337.549,272.792L337.565,273.007L337.633,273.27L337.721,273.465C337.776,273.566 337.842,273.659 337.919,273.743L338.015,273.839C338.134,273.948 338.272,274.036 338.422,274.099L338.73,274.188L338.966,274.209L361.468,274.209L361.468,275.627L361.479,275.806L361.523,276.008L361.577,276.169L361.665,276.344C361.712,276.424 361.768,276.5 361.83,276.569L361.96,276.697L362.142,276.831L362.304,276.918L362.567,277.008L362.812,277.042L362.885,277.044L406.485,277.044C407.263,277.044 407.903,276.404 407.903,275.627L407.903,274.209L430.404,274.209C431.182,274.209 431.821,273.57 431.821,272.792L431.821,233.107C431.821,232.33 431.182,231.69 430.404,231.69L406.646,231.69ZM563.968,274.209L561.716,274.209C560.939,274.209 560.299,273.57 560.299,272.792L560.299,233.107C560.299,232.33 560.939,231.69 561.716,231.69L578.724,231.69C579.502,231.69 580.141,232.33 580.141,233.107L580.141,237.359L622.485,237.359C623.263,237.359 623.903,237.999 623.903,238.776L623.903,275.627C623.903,276.404 623.263,277.044 622.485,277.044L565.385,277.044C564.607,277.044 563.968,276.404 563.968,275.627L563.968,274.209ZM99.635,237.359C98.857,237.359 98.218,237.999 98.218,238.776L98.218,252.341C97.078,253.599 96.383,255.267 96.383,257.096C96.383,258.926 97.078,260.594 98.218,261.852L98.218,275.627C98.218,276.404 98.857,277.044 99.635,277.044L156.735,277.044C157.513,277.044 158.153,276.404 158.153,275.627L158.153,264.15C161.744,263.806 164.556,260.777 164.556,257.096C164.556,253.415 161.744,250.386 158.153,250.042L158.153,238.776C158.153,237.999 157.513,237.359 156.735,237.359L99.635,237.359ZM519.979,237.359L478.891,237.359L478.891,233.107C478.891,232.33 478.252,231.69 477.474,231.69L453.716,231.69L453.523,231.703C453.445,231.714 453.37,231.731 453.297,231.754L453.199,231.789C452.995,231.87 452.814,231.996 452.669,232.156L452.544,232.318L452.44,232.495C452.363,232.652 452.316,232.825 452.303,233.007L452.299,233.107L452.299,272.792C452.299,272.908 452.313,273.022 452.34,273.13L452.447,273.418L452.463,273.451C452.503,273.526 452.55,273.598 452.603,273.665L452.791,273.862L452.954,273.984L453.092,274.058L453.297,274.145L453.502,274.193L453.716,274.209L476.218,274.209L476.218,275.627L476.234,275.841L476.304,276.112C476.337,276.201 476.379,276.287 476.429,276.367L476.442,276.388L476.61,276.601C476.706,276.703 476.818,276.79 476.94,276.86L477.085,276.932L477.351,277.015C477.443,277.034 477.538,277.044 477.635,277.044L521.235,277.044C522.013,277.044 522.653,276.404 522.653,275.627L522.653,274.209L545.154,274.209C545.932,274.209 546.571,273.57 546.571,272.792L546.571,233.107C546.571,232.33 545.932,231.69 545.154,231.69L521.396,231.69L521.21,231.703L520.977,231.754L520.748,231.849C520.648,231.901 520.555,231.964 520.471,232.037L520.326,232.182L520.222,232.317L520.091,232.558L520.043,232.688C520.008,232.798 519.987,232.915 519.981,233.035L519.979,233.071L519.979,237.359ZM194.135,237.359C193.357,237.359 192.718,237.999 192.718,238.776L192.718,275.627C192.718,276.404 193.357,277.044 194.135,277.044L237.735,277.044C238.513,277.044 239.153,276.404 239.153,275.627L239.153,238.776C239.153,237.999 238.513,237.359 237.735,237.359L194.135,237.359ZM261.635,237.359C260.857,237.359 260.218,237.999 260.218,238.776L260.218,275.627C260.218,276.404 260.857,277.044 261.635,277.044L311.985,277.044C312.763,277.044 313.403,276.404 313.403,275.627L313.403,238.776C313.403,237.999 312.763,237.359 311.985,237.359L261.635,237.359ZM839.903,252.833L839.903,238.776C839.903,237.999 839.263,237.359 838.485,237.359L801.635,237.359C800.857,237.359 800.218,237.999 800.218,238.776L800.218,252.342C799.078,253.599 798.383,255.268 798.383,257.097C798.383,258.926 799.078,260.595 800.218,261.852L800.218,275.627C800.218,276.404 800.857,277.044 801.635,277.044L838.485,277.044C839.263,277.044 839.903,276.404 839.903,275.627L839.903,261.36C840.799,260.173 841.33,258.696 841.33,257.096C841.33,255.496 840.799,254.019 839.903,252.833ZM854.202,277.019L854.202,237.334L895.991,237.334L895.991,277.019L854.202,277.019ZM361.523,276.008L361.509,275.964L361.532,276.046L361.523,276.008ZM338.682,274.18L338.743,274.192L338.73,274.188L338.712,274.186L338.638,274.167L338.682,274.18ZM453.092,274.058L453.043,274.037L453.158,274.093L453.092,274.058ZM452.369,273.228L452.363,273.212L452.379,273.258L452.369,273.228ZM337.601,232.744L337.624,232.655L337.585,232.789L337.601,232.744ZM521.21,231.703L521.21,231.703ZM91.592,94.185C91.592,94.185 91.592,94.184 91.592,94.184C91.591,94.184 91.591,94.184 91.591,94.184C91.457,94.184 77.804,94.184 71.751,94.184C70.999,94.184 70.278,94.483 69.746,95.014C69.215,95.546 68.916,96.267 68.916,97.019C68.916,113.923 68.916,201.268 68.916,218.172C68.916,218.924 69.215,219.645 69.746,220.177C70.278,220.708 70.999,221.007 71.751,221.007L88.757,221.007C88.757,219.441 90.027,218.172 91.592,218.172C91.592,210.302 91.593,188.525 91.593,184.961C91.593,184.585 91.742,184.224 92.008,183.958C92.274,183.693 92.634,183.543 93.01,183.543L98.218,183.543L98.218,221.627C98.218,222.404 98.857,223.044 99.635,223.044L101.299,223.044L101.299,227.296C101.299,228.074 101.939,228.713 102.716,228.713L119.724,228.713C120.502,228.713 121.141,228.074 121.141,227.296L121.141,223.044L168.979,223.044L168.979,227.296C168.979,228.074 169.619,228.713 170.396,228.713L187.404,228.713C188.182,228.713 188.821,228.074 188.821,227.296L188.821,223.044L190.485,223.044C191.263,223.044 191.903,222.404 191.903,221.627L191.903,184.776C191.903,183.999 191.263,183.359 190.485,183.359L107.249,183.359L107.249,168.168L93.01,168.168C92.635,168.168 92.274,168.019 92.008,167.753C91.742,167.487 91.593,167.127 91.593,166.751C91.593,160.752 91.592,94.274 91.592,94.185L91.592,94.185ZM900.548,218.174C900.549,219.739 901.818,221.007 903.383,221.007C907.74,221.007 916.035,221.007 920.392,221.007C921.144,221.007 921.865,220.708 922.397,220.177C922.928,219.645 923.227,218.924 923.227,218.172C923.227,201.268 923.227,113.923 923.227,97.019C923.227,96.267 922.928,95.546 922.397,95.014C921.865,94.483 921.144,94.184 920.392,94.184C916.035,94.184 907.739,94.184 903.383,94.184C901.818,94.184 900.549,95.452 900.548,97.017C900.544,104.704 900.533,125.378 900.533,125.378C900.533,125.754 900.384,126.114 900.118,126.38C899.852,126.646 899.491,126.795 899.116,126.795C897.289,126.795 894.131,126.795 892.304,126.795C891.521,126.795 890.887,127.43 890.887,128.213C890.887,130.158 890.887,133.637 890.887,135.583C890.887,136.365 891.521,137 892.304,137C894.131,137 897.289,137 899.116,137C899.491,137 899.852,137.149 900.118,137.415C900.384,137.681 900.533,138.041 900.533,138.417C900.533,140.686 900.533,145.109 900.533,147.378C900.533,147.754 900.384,148.114 900.118,148.38C899.852,148.646 899.491,148.795 899.116,148.795C897.289,148.795 894.131,148.795 892.304,148.795C891.521,148.795 890.887,149.43 890.887,150.213C890.887,152.158 890.887,155.637 890.887,157.583C890.887,158.365 891.521,159 892.304,159C894.131,159 897.289,159 899.116,159C899.491,159 899.852,159.149 900.118,159.415C900.384,159.681 900.533,160.041 900.533,160.417C900.533,162.654 900.533,166.751 900.533,166.751C900.533,167.534 899.898,168.168 899.116,168.168C895.542,168.168 886.445,168.168 886.445,168.168L886.445,183.359L848.885,183.359C848.107,183.359 847.468,183.999 847.468,184.776L847.468,221.627C847.468,222.404 848.107,223.044 848.885,223.044L892.485,223.044C893.263,223.044 893.903,222.404 893.903,221.627L893.903,183.359L899.116,183.359C899.898,183.359 900.533,183.994 900.533,184.776C900.533,187.152 900.544,210.058 900.548,218.174ZM245.903,221.627C245.903,222.404 245.263,223.044 244.485,223.044L207.635,223.044C206.857,223.044 206.218,222.404 206.218,221.627L206.218,184.776C206.218,183.999 206.857,183.359 207.635,183.359L244.485,183.359C245.263,183.359 245.903,183.999 245.903,184.776L245.903,221.627ZM353.903,221.627C353.903,222.404 353.263,223.044 352.485,223.044L315.635,223.044C314.857,223.044 314.218,222.404 314.218,221.627L314.218,184.776C314.218,183.999 314.857,183.359 315.635,183.359L352.485,183.359C353.263,183.359 353.903,183.999 353.903,184.776L353.903,221.627ZM623.903,221.627C623.903,222.404 623.263,223.044 622.485,223.044L585.635,223.044C584.857,223.044 584.218,222.404 584.218,221.627L584.218,184.776C584.218,183.999 584.857,183.359 585.635,183.359L622.485,183.359C623.263,183.359 623.903,183.999 623.903,184.776L623.903,221.627ZM299.903,221.627C299.903,222.404 299.263,223.044 298.485,223.044L261.635,223.044C260.857,223.044 260.218,222.404 260.218,221.627L260.218,184.776C260.218,183.999 260.857,183.359 261.635,183.359L298.485,183.359C299.263,183.359 299.903,183.999 299.903,184.776L299.903,221.627ZM692.218,184.776C692.218,183.994 692.852,183.359 693.635,183.359L730.485,183.359C731.268,183.359 731.903,183.994 731.903,184.776L731.903,221.627C731.903,222.41 731.268,223.044 730.485,223.044L693.635,223.044C692.852,223.044 692.218,222.41 692.218,221.627L692.218,184.776ZM677.903,221.627C677.903,222.404 677.263,223.044 676.485,223.044L639.635,223.044C638.857,223.044 638.218,222.404 638.218,221.627L638.218,184.776C638.218,183.999 638.857,183.359 639.635,183.359L676.485,183.359C677.263,183.359 677.903,183.999 677.903,184.776L677.903,221.627ZM569.903,221.627C569.903,222.404 569.263,223.044 568.485,223.044L531.635,223.044C530.857,223.044 530.218,222.404 530.218,221.627L530.218,184.776C530.218,183.999 530.857,183.359 531.635,183.359L568.485,183.359C569.263,183.359 569.903,183.999 569.903,184.776L569.903,221.627ZM515.903,221.627C515.903,222.404 515.263,223.044 514.485,223.044L477.635,223.044C476.857,223.044 476.218,222.404 476.218,221.627L476.218,184.776C476.218,183.999 476.857,183.359 477.635,183.359L514.485,183.359C515.263,183.359 515.903,183.999 515.903,184.776L515.903,221.627ZM461.903,221.627C461.903,222.404 461.263,223.044 460.485,223.044L423.635,223.044C422.857,223.044 422.218,222.404 422.218,221.627L422.218,184.776C422.218,183.999 422.857,183.359 423.635,183.359L460.485,183.359C461.263,183.359 461.903,183.999 461.903,184.776L461.903,221.627ZM407.903,221.627C407.903,222.404 407.263,223.044 406.485,223.044L369.635,223.044C368.857,223.044 368.218,222.404 368.218,221.627L368.218,184.776C368.218,183.999 368.857,183.359 369.635,183.359L406.485,183.359C407.263,183.359 407.903,183.999 407.903,184.776L407.903,221.627ZM747.635,223.044C746.857,223.044 746.218,222.404 746.218,221.627L746.218,184.776C746.218,183.999 746.857,183.359 747.635,183.359L838.485,183.359C839.263,183.359 839.903,183.999 839.903,184.776L839.903,221.627C839.903,222.404 839.263,223.044 838.485,223.044L747.635,223.044ZM149.985,129.359C150.763,129.359 151.403,129.999 151.403,130.776L151.403,167.627C151.403,168.404 150.763,169.044 149.985,169.044L113.135,169.044C112.357,169.044 111.718,168.404 111.718,167.627L111.718,130.776C111.718,129.999 112.357,129.359 113.135,129.359L149.985,129.359ZM488.903,167.627C488.903,168.404 488.263,169.044 487.485,169.044L450.635,169.044C449.857,169.044 449.218,168.404 449.218,167.627L449.218,130.776C449.218,129.999 449.857,129.359 450.635,129.359L487.485,129.359C488.263,129.359 488.903,129.999 488.903,130.776L488.903,167.627ZM380.903,167.627C380.903,168.404 380.263,169.044 379.485,169.044L342.635,169.044C341.857,169.044 341.218,168.404 341.218,167.627L341.218,130.776C341.218,129.999 341.857,129.359 342.635,129.359L379.485,129.359C380.263,129.359 380.903,129.999 380.903,130.776L380.903,167.627ZM596.903,167.627C596.903,168.404 596.263,169.044 595.485,169.044L558.635,169.044C557.857,169.044 557.218,168.404 557.218,167.627L557.218,130.776C557.218,129.999 557.857,129.359 558.635,129.359L595.485,129.359C596.263,129.359 596.903,129.999 596.903,130.776L596.903,167.627ZM542.903,167.627C542.903,168.404 542.263,169.044 541.485,169.044L504.635,169.044C503.857,169.044 503.218,168.404 503.218,167.627L503.218,130.776C503.218,129.999 503.857,129.359 504.635,129.359L541.485,129.359C542.263,129.359 542.903,129.999 542.903,130.776L542.903,167.627ZM272.903,167.627C272.903,168.404 272.263,169.044 271.485,169.044L234.635,169.044C233.857,169.044 233.218,168.404 233.218,167.627L233.218,130.776C233.218,129.999 233.857,129.359 234.635,129.359L271.485,129.359C272.263,129.359 272.903,129.999 272.903,130.776L272.903,167.627ZM180.635,169.044C179.857,169.044 179.218,168.404 179.218,167.627L179.218,130.776C179.218,129.999 179.857,129.359 180.635,129.359L217.485,129.359C218.263,129.359 218.903,129.999 218.903,130.776L218.903,167.627C218.903,168.404 218.263,169.044 217.485,169.044L180.635,169.044ZM434.903,167.627C434.903,168.404 434.263,169.044 433.485,169.044L396.635,169.044C395.857,169.044 395.218,168.404 395.218,167.627L395.218,130.776C395.218,129.999 395.857,129.359 396.635,129.359L433.485,129.359C434.263,129.359 434.903,129.999 434.903,130.776L434.903,167.627ZM650.903,167.627C650.903,168.404 650.263,169.044 649.485,169.044L612.635,169.044C611.857,169.044 611.218,168.404 611.218,167.627L611.218,130.776C611.218,129.999 611.857,129.359 612.635,129.359L649.485,129.359C650.263,129.359 650.903,129.999 650.903,130.776L650.903,167.627ZM704.903,167.627C704.903,168.404 704.263,169.044 703.485,169.044L666.635,169.044C665.857,169.044 665.218,168.404 665.218,167.627L665.218,130.776C665.218,129.999 665.857,129.359 666.635,129.359L703.485,129.359C704.263,129.359 704.903,129.999 704.903,130.776L704.903,167.627ZM719.831,168.79L720.008,168.896L720.215,168.98C720.326,169.015 720.442,169.036 720.562,169.042L720.635,169.044L878.985,169.044L879.022,169.044C879.783,169.024 880.403,168.392 880.403,167.627L880.403,130.776C880.403,129.999 879.763,129.359 878.985,129.359L870.571,129.359L870.571,125.107C870.571,124.33 869.932,123.69 869.154,123.69L852.146,123.69C851.369,123.69 850.729,124.33 850.729,125.107L850.729,129.359L816.571,129.359L816.571,125.107C816.571,124.33 815.932,123.69 815.154,123.69L784.466,123.69C783.689,123.69 783.049,124.33 783.049,125.107L783.049,129.359L748.891,129.359L748.891,125.107C748.891,124.33 748.252,123.69 747.474,123.69L730.466,123.69C729.689,123.69 729.049,124.33 729.049,125.107L729.049,129.359L720.635,129.359L720.385,129.381C720.251,129.406 720.122,129.449 720.003,129.509L719.932,129.548L719.71,129.706L719.522,129.904C719.451,129.993 719.391,130.091 719.344,130.195L719.317,130.259L719.24,130.527L719.218,130.776L719.218,167.627C719.218,168.034 719.393,168.404 719.672,168.663L719.831,168.79ZM326.903,167.627C326.903,168.404 326.263,169.044 325.485,169.044L288.635,169.044C287.857,169.044 287.218,168.404 287.218,167.627L287.218,130.776C287.218,129.999 287.857,129.359 288.635,129.359L325.485,129.359C326.263,129.359 326.903,129.999 326.903,130.776L326.903,167.627ZM719.831,168.79L719.817,168.781C719.826,168.788 719.835,168.794 719.845,168.801L719.831,168.79ZM434.903,113.627C434.903,114.404 434.263,115.044 433.485,115.044L396.635,115.044C395.857,115.044 395.218,114.404 395.218,113.627L395.218,76.776C395.218,75.999 395.857,75.359 396.635,75.359L433.485,75.359C434.263,75.359 434.903,75.999 434.903,76.776L434.903,113.627ZM180.635,115.044C179.857,115.044 179.218,114.404 179.218,113.627L179.218,76.776C179.218,75.999 179.857,75.359 180.635,75.359L217.485,75.359C218.263,75.359 218.903,75.999 218.903,76.776L218.903,113.627C218.903,114.404 218.263,115.044 217.485,115.044L180.635,115.044ZM272.903,113.627C272.903,114.404 272.263,115.044 271.485,115.044L234.635,115.044C233.857,115.044 233.218,114.404 233.218,113.627L233.218,76.776C233.218,75.999 233.857,75.359 234.635,75.359L271.485,75.359C272.263,75.359 272.903,75.999 272.903,76.776L272.903,113.627ZM892.485,75.359C893.263,75.359 893.903,75.999 893.903,76.776L893.903,113.627C893.903,114.404 893.263,115.044 892.485,115.044L720.635,115.044C719.857,115.044 719.218,114.404 719.218,113.627L719.218,76.776C719.218,75.999 719.857,75.359 720.635,75.359L892.485,75.359ZM380.903,113.627C380.903,114.404 380.263,115.044 379.485,115.044L342.635,115.044C341.857,115.044 341.218,114.404 341.218,113.627L341.218,76.776C341.218,75.999 341.857,75.359 342.635,75.359L379.485,75.359C380.263,75.359 380.903,75.999 380.903,76.776L380.903,113.627ZM326.903,113.627C326.903,114.404 326.263,115.044 325.485,115.044L288.635,115.044C287.857,115.044 287.218,114.404 287.218,113.627L287.218,76.776C287.218,75.999 287.857,75.359 288.635,75.359L325.485,75.359C326.263,75.359 326.903,75.999 326.903,76.776L326.903,113.627ZM488.903,113.627C488.903,114.404 488.263,115.044 487.485,115.044L450.635,115.044C449.857,115.044 449.218,114.404 449.218,113.627L449.218,76.776C449.218,75.999 449.857,75.359 450.635,75.359L487.485,75.359C488.263,75.359 488.903,75.999 488.903,76.776L488.903,113.627ZM149.985,75.359C150.763,75.359 151.403,75.999 151.403,76.776L151.403,113.627C151.403,114.404 150.763,115.044 149.985,115.044L113.135,115.044C112.357,115.044 111.718,114.404 111.718,113.627L111.718,76.776C111.718,75.999 112.357,75.359 113.135,75.359L149.985,75.359ZM596.903,113.627C596.903,114.404 596.263,115.044 595.485,115.044L558.635,115.044C557.857,115.044 557.218,114.404 557.218,113.627L557.218,76.776C557.218,75.999 557.857,75.359 558.635,75.359L595.485,75.359C596.263,75.359 596.903,75.999 596.903,76.776L596.903,113.627ZM542.903,113.627C542.903,114.404 542.263,115.044 541.485,115.044L504.635,115.044C503.857,115.044 503.218,114.404 503.218,113.627L503.218,76.776C503.218,75.999 503.857,75.359 504.635,75.359L541.485,75.359C542.263,75.359 542.903,75.999 542.903,76.776L542.903,113.627ZM650.903,113.627C650.903,114.404 650.263,115.044 649.485,115.044L612.635,115.044C611.857,115.044 611.218,114.404 611.218,113.627L611.218,76.776C611.218,75.999 611.857,75.359 612.635,75.359L649.485,75.359C650.263,75.359 650.903,75.999 650.903,76.776L650.903,113.627ZM704.903,113.627C704.903,114.404 704.263,115.044 703.485,115.044L666.635,115.044C665.857,115.044 665.218,114.404 665.218,113.627L665.218,76.776C665.218,75.999 665.857,75.359 666.635,75.359L703.485,75.359C704.263,75.359 704.903,75.999 704.903,76.776L704.903,113.627ZM161.369,87.443L159.396,88.449L157.825,90.016L156.821,91.992L156.475,94.185L156.821,96.37L157.825,98.346L159.396,99.913L161.369,100.919L163.563,101.271L165.752,100.919L167.728,99.913L169.29,98.346L170.303,96.37L170.649,94.185L170.303,91.992L169.29,90.016L167.728,88.449L165.752,87.443L163.563,87.097L161.369,87.443ZM823.141,61.044L823.141,65.296C823.141,66.074 822.502,66.713 821.724,66.713L804.716,66.713C803.939,66.713 803.299,66.074 803.299,65.296L803.299,61.044L801.635,61.044C800.857,61.044 800.218,60.404 800.218,59.627L800.218,22.776C800.218,21.999 800.857,21.359 801.635,21.359L892.485,21.359C893.263,21.359 893.903,21.999 893.903,22.776L893.903,59.627C893.903,60.404 893.263,61.044 892.485,61.044L890.821,61.044L890.821,65.296C890.821,66.074 890.182,66.713 889.404,66.713L872.396,66.713C871.619,66.713 870.979,66.074 870.979,65.296L870.979,61.044L823.141,61.044ZM569.903,59.627C569.903,60.404 569.263,61.044 568.485,61.044L531.635,61.044C530.857,61.044 530.218,60.404 530.218,59.627L530.218,22.776C530.218,21.999 530.857,21.359 531.635,21.359L568.485,21.359C569.263,21.359 569.903,21.999 569.903,22.776L569.903,59.627ZM515.903,59.627C515.903,60.404 515.263,61.044 514.485,61.044L477.635,61.044C476.857,61.044 476.218,60.404 476.218,59.627L476.218,22.776C476.218,21.999 476.857,21.359 477.635,21.359L514.485,21.359C515.263,21.359 515.903,21.999 515.903,22.776L515.903,59.627ZM461.903,59.627C461.903,60.404 461.263,61.044 460.485,61.044L423.635,61.044C422.857,61.044 422.218,60.404 422.218,59.627L422.218,22.776C422.218,21.999 422.857,21.359 423.635,21.359L460.485,21.359C461.263,21.359 461.903,21.999 461.903,22.776L461.903,59.627ZM407.903,59.627C407.903,60.404 407.263,61.044 406.485,61.044L369.635,61.044C368.857,61.044 368.218,60.404 368.218,59.627L368.218,22.776C368.218,21.999 368.857,21.359 369.635,21.359L406.485,21.359C407.263,21.359 407.903,21.999 407.903,22.776L407.903,59.627ZM137.903,59.627C137.903,60.404 137.263,61.044 136.485,61.044L99.635,61.044C98.857,61.044 98.218,60.404 98.218,59.627L98.218,22.776C98.218,21.999 98.857,21.359 99.635,21.359L136.485,21.359C137.263,21.359 137.903,21.999 137.903,22.776L137.903,59.627ZM299.903,59.627C299.903,60.404 299.263,61.044 298.485,61.044L261.635,61.044C260.857,61.044 260.218,60.404 260.218,59.627L260.218,22.776C260.218,21.999 260.857,21.359 261.635,21.359L298.485,21.359C299.263,21.359 299.903,21.999 299.903,22.776L299.903,59.627ZM623.903,59.627C623.903,60.404 623.263,61.044 622.485,61.044L585.635,61.044C584.857,61.044 584.218,60.404 584.218,59.627L584.218,22.776C584.218,21.999 584.857,21.359 585.635,21.359L622.485,21.359C623.263,21.359 623.903,21.999 623.903,22.776L623.903,59.627ZM677.903,59.627C677.903,60.404 677.263,61.044 676.485,61.044L639.635,61.044C638.857,61.044 638.218,60.404 638.218,59.627L638.218,22.776C638.218,21.999 638.857,21.359 639.635,21.359L676.485,21.359C677.263,21.359 677.903,21.999 677.903,22.776L677.903,59.627ZM353.903,59.627C353.903,60.404 353.263,61.044 352.485,61.044L315.635,61.044C314.857,61.044 314.218,60.404 314.218,59.627L314.218,22.776C314.218,21.999 314.857,21.359 315.635,21.359L352.485,21.359C353.263,21.359 353.903,21.999 353.903,22.776L353.903,59.627ZM785.903,59.627C785.903,60.404 785.263,61.044 784.485,61.044L747.635,61.044C746.857,61.044 746.218,60.404 746.218,59.627L746.218,22.776C746.218,21.999 746.857,21.359 747.635,21.359L784.485,21.359C785.263,21.359 785.903,21.999 785.903,22.776L785.903,59.627ZM245.903,59.627C245.903,60.404 245.263,61.044 244.485,61.044L207.635,61.044C206.857,61.044 206.218,60.404 206.218,59.627L206.218,22.776C206.218,21.999 206.857,21.359 207.635,21.359L244.485,21.359C245.263,21.359 245.903,21.999 245.903,22.776L245.903,59.627ZM153.635,61.044C152.857,61.044 152.218,60.404 152.218,59.627L152.218,22.776C152.218,21.999 152.857,21.359 153.635,21.359L190.485,21.359C191.263,21.359 191.903,21.999 191.903,22.776L191.903,59.627C191.903,60.404 191.263,61.044 190.485,61.044L153.635,61.044ZM731.903,59.627C731.903,60.404 731.263,61.044 730.485,61.044L693.635,61.044C692.857,61.044 692.218,60.404 692.218,59.627L692.218,22.776C692.218,21.999 692.857,21.359 693.635,21.359L730.485,21.359C731.263,21.359 731.903,21.999 731.903,22.776L731.903,59.627Z" style="fill:rgb(253,227,237);stroke:rgb(255,51,51);stroke-width:0.85px;"/>
    </g>
</svg>
