<?xml version="1.0" encoding="UTF-8" standalone="no"?>
<!DOCTYPE svg PUBLIC "-//W3C//DTD SVG 1.1//EN" "http://www.w3.org/Graphics/SVG/1.1/DTD/svg11.dtd">
<svg width="100%" height="100%" viewBox="0 0 1323 398" version="1.1" xmlns="http://www.w3.org/2000/svg" xmlns:xlink="http://www.w3.org/1999/xlink" xml:space="preserve" xmlns:serif="http://www.serif.com/" style="fill-rule:evenodd;clip-rule:evenodd;stroke-linecap:round;stroke-linejoin:round;stroke-miterlimit:1.5;">
    <g transform="matrix(1.33333,0,0,1.33333,0,0)">
        <g id="マージ済みv.0.3" transform="matrix(1,0,0,1,76.8869,0)">
            <path d="M817.016,183.359L822.229,183.359C823.011,183.359 823.646,183.994 823.646,184.776C823.646,196.575 823.646,278.05 823.646,278.05L823.629,278.49L823.575,278.932L823.487,279.369L823.368,279.799L823.212,280.219L823.028,280.619L822.81,281.007L822.566,281.378L822.285,281.73L821.985,282.059L821.656,282.356L821.307,282.634L820.936,282.881L820.548,283.099L820.145,283.283L819.731,283.442L819.298,283.561L818.861,283.646L818.419,283.697L817.977,283.714L20.378,283.72L19.933,283.697L19.491,283.646L19.054,283.561L18.624,283.442L18.207,283.283L17.804,283.099L17.416,282.881L17.045,282.634L16.696,282.356L16.367,282.059L16.067,281.73L15.789,281.378L15.542,281.007L15.324,280.619L15.14,280.219L14.984,279.799L14.865,279.369L14.777,278.932L14.726,278.49L14.706,278.05L14.706,184.961C14.706,184.585 14.855,184.224 15.121,183.958C15.387,183.693 15.748,183.543 16.123,183.543L21.331,183.543L21.331,221.627C21.331,222.404 21.971,223.044 22.748,223.044L24.412,223.044L24.412,227.296C24.412,228.074 25.052,228.713 25.829,228.713L42.837,228.713C43.615,228.713 44.254,228.074 44.254,227.296L44.254,223.044L92.092,223.044L92.092,227.296C92.092,228.074 92.732,228.713 93.509,228.713L110.517,228.713C111.295,228.713 111.934,228.074 111.934,227.296L111.934,223.044L113.598,223.044C114.376,223.044 115.016,222.404 115.016,221.627L115.016,184.776C115.016,183.999 114.376,183.359 113.598,183.359L30.362,183.359L30.362,168.168L16.123,168.168C15.748,168.168 15.387,168.019 15.121,167.753C14.855,167.487 14.706,167.127 14.706,166.751C14.706,151.613 14.709,20.305 14.709,20.305L14.726,19.86L14.777,19.417L14.865,18.981L14.984,18.55L15.14,18.133L15.324,17.731L15.542,17.342L15.789,16.971L16.067,16.622L16.367,16.294L16.696,15.993L17.045,15.715L17.416,15.469L17.804,15.25L18.207,15.066L18.624,14.91L19.054,14.791L19.491,14.703L19.933,14.652L20.378,14.632L817.977,14.635L818.419,14.652L818.861,14.703L819.298,14.791L819.731,14.91L820.145,15.066L820.548,15.25L820.936,15.469L821.307,15.715L821.656,15.993L821.985,16.294L822.285,16.622L822.566,16.971L822.81,17.342L823.028,17.731L823.212,18.133L823.368,18.55L823.487,18.981L823.575,19.417L823.629,19.86L823.646,20.305L823.646,125.378C823.646,125.754 823.497,126.114 823.231,126.38C822.965,126.646 822.605,126.795 822.229,126.795C820.402,126.795 817.244,126.795 815.417,126.795C814.635,126.795 814,127.43 814,128.213C814,130.158 814,133.637 814,135.583C814,136.365 814.635,137 815.417,137C817.244,137 820.402,137 822.229,137C822.605,137 822.965,137.149 823.231,137.415C823.497,137.681 823.646,138.041 823.646,138.417C823.646,140.686 823.646,145.109 823.646,147.378C823.646,147.754 823.497,148.114 823.231,148.38C822.965,148.646 822.605,148.795 822.229,148.795C820.402,148.795 817.244,148.795 815.417,148.795C814.635,148.795 814,149.43 814,150.213C814,152.158 814,155.637 814,157.583C814,158.365 814.635,159 815.417,159C817.244,159 820.402,159 822.229,159C822.605,159 822.965,159.149 823.231,159.415C823.497,159.681 823.646,160.041 823.646,160.417C823.646,162.654 823.646,166.751 823.646,166.751C823.646,167.534 823.011,168.168 822.229,168.168C818.655,168.168 809.558,168.168 809.558,168.168L809.558,183.359L771.998,183.359C771.221,183.359 770.581,183.999 770.581,184.776L770.581,221.627C770.581,222.404 771.221,223.044 771.998,223.044L815.598,223.044C816.376,223.044 817.016,222.404 817.016,221.627L817.016,183.359M117.248,237.359C116.471,237.359 115.831,237.999 115.831,238.776L115.831,275.627C115.831,276.404 116.471,277.044 117.248,277.044L160.848,277.044C161.626,277.044 162.266,276.404 162.266,275.627L162.266,238.776C162.266,237.999 161.626,237.359 160.848,237.359L117.248,237.359ZM184.748,237.359C183.971,237.359 183.331,237.999 183.331,238.776L183.331,275.627C183.331,276.404 183.971,277.044 184.748,277.044L235.098,277.044C235.876,277.044 236.516,276.404 236.516,275.627L236.516,238.776C236.516,237.999 235.876,237.359 235.098,237.359L184.748,237.359ZM763.016,252.833L763.016,238.776C763.016,237.999 762.376,237.359 761.598,237.359L724.748,237.359C723.971,237.359 723.331,237.999 723.331,238.776L723.331,252.342C722.191,253.599 721.496,255.268 721.496,257.097C721.496,258.926 722.191,260.595 723.331,261.852L723.331,275.627C723.331,276.404 723.971,277.044 724.748,277.044L761.598,277.044C762.376,277.044 763.016,276.404 763.016,275.627L763.016,261.36C763.912,260.173 764.443,258.696 764.443,257.096C764.443,255.496 763.912,254.019 763.016,252.833ZM443.092,237.359L402.004,237.359L402.004,233.107C402.004,232.33 401.365,231.69 400.587,231.69L376.829,231.69L376.636,231.703C376.558,231.714 376.483,231.731 376.41,231.754L376.312,231.789C376.108,231.87 375.927,231.996 375.782,232.156L375.658,232.318L375.553,232.495C375.477,232.652 375.429,232.825 375.416,233.007L375.412,233.107L375.412,272.792C375.412,272.908 375.426,273.022 375.453,273.13L375.56,273.418L375.576,273.451C375.616,273.526 375.663,273.598 375.716,273.665L375.904,273.862L376.067,273.984L376.205,274.058L376.41,274.145L376.615,274.193L376.829,274.209L399.331,274.209L399.331,275.627L399.347,275.841L399.417,276.112C399.45,276.201 399.492,276.287 399.542,276.367L399.555,276.388L399.723,276.601C399.82,276.703 399.931,276.79 400.053,276.86L400.199,276.932L400.464,277.015C400.556,277.034 400.651,277.044 400.748,277.044L444.348,277.044C445.126,277.044 445.766,276.404 445.766,275.627L445.766,274.209L468.267,274.209C469.045,274.209 469.684,273.57 469.684,272.792L469.684,233.107C469.684,232.33 469.045,231.69 468.267,231.69L444.509,231.69L444.324,231.703L444.09,231.754L443.861,231.849C443.761,231.901 443.668,231.964 443.584,232.037L443.439,232.182L443.335,232.317L443.204,232.558L443.156,232.688C443.121,232.798 443.1,232.915 443.094,233.035L443.092,233.071L443.092,237.359ZM22.748,237.359C21.971,237.359 21.331,237.999 21.331,238.776L21.331,252.341C20.191,253.599 19.496,255.267 19.496,257.096C19.496,258.926 20.191,260.594 21.331,261.852L21.331,275.627C21.331,276.404 21.971,277.044 22.748,277.044L79.848,277.044C80.626,277.044 81.266,276.404 81.266,275.627L81.266,264.15C84.857,263.806 87.67,260.777 87.67,257.096C87.67,253.415 84.857,250.386 81.266,250.042L81.266,238.776C81.266,237.999 80.626,237.359 79.848,237.359L22.748,237.359ZM555.998,277.044L488.498,277.044C487.721,277.044 487.081,276.404 487.081,275.627L487.081,274.209L484.829,274.209C484.052,274.209 483.412,273.57 483.412,272.792L483.412,233.107C483.412,232.33 484.052,231.69 484.829,231.69L501.837,231.69C502.615,231.69 503.254,232.33 503.254,233.107L503.254,237.359L545.598,237.359M329.759,231.69C329.383,231.69 329.023,231.839 328.757,232.105C328.491,232.371 328.342,232.731 328.342,233.107C328.342,234.786 328.342,237.359 328.342,237.359L287.254,237.359L287.254,233.107C287.254,232.33 286.615,231.69 285.837,231.69L262.079,231.69L261.865,231.706L261.682,231.747L261.436,231.846C261.276,231.928 261.133,232.041 261.015,232.176C260.977,232.218 260.942,232.263 260.91,232.31L260.788,232.526L260.714,232.744L260.684,232.858L260.662,233.107L260.662,272.792L260.678,273.007L260.746,273.27L260.834,273.465C260.889,273.566 260.956,273.659 261.032,273.743L261.128,273.839C261.247,273.948 261.385,274.036 261.535,274.099L261.843,274.188L262.079,274.209L284.581,274.209L284.581,275.627L284.592,275.806L284.637,276.008L284.69,276.169L284.778,276.344C284.826,276.424 284.881,276.5 284.943,276.569L285.073,276.697L285.255,276.831L285.417,276.918L285.68,277.008L285.926,277.042L285.998,277.044L329.598,277.044C330.376,277.044 331.016,276.404 331.016,275.627L331.016,274.209L353.517,274.209C354.295,274.209 354.934,273.57 354.934,272.792L354.934,233.107C354.934,232.33 354.295,231.69 353.517,231.69L329.759,231.69ZM555.998,277.044L700.848,277.044C701.626,277.044 702.266,276.404 702.266,275.627L702.266,261.381C703.171,260.191 703.709,258.706 703.709,257.097C703.709,255.487 703.171,254.003 702.266,252.812L702.266,238.776C702.266,237.999 701.626,237.359 700.848,237.359L570.934,237.359L570.934,233.107C570.934,232.33 570.295,231.69 569.517,231.69L552.509,231.69C551.732,231.69 551.092,232.33 551.092,233.107L551.092,237.359L545.598,237.359M777.315,277.019L777.315,237.334L819.104,237.334L819.104,277.019L777.315,277.019ZM601.016,221.627C601.016,222.404 600.376,223.044 599.598,223.044L562.748,223.044C561.971,223.044 561.331,222.404 561.331,221.627L561.331,184.776C561.331,183.999 561.971,183.359 562.748,183.359L599.598,183.359C600.376,183.359 601.016,183.999 601.016,184.776L601.016,221.627ZM493.016,221.627C493.016,222.404 492.376,223.044 491.598,223.044L454.748,223.044C453.971,223.044 453.331,222.404 453.331,221.627L453.331,184.776C453.331,183.999 453.971,183.359 454.748,183.359L491.598,183.359C492.376,183.359 493.016,183.999 493.016,184.776L493.016,221.627ZM439.016,221.627C439.016,222.404 438.376,223.044 437.598,223.044L400.748,223.044C399.971,223.044 399.331,222.404 399.331,221.627L399.331,184.776C399.331,183.999 399.971,183.359 400.748,183.359L437.598,183.359C438.376,183.359 439.016,183.999 439.016,184.776L439.016,221.627ZM385.016,221.627C385.016,222.404 384.376,223.044 383.598,223.044L346.748,223.044C345.971,223.044 345.331,222.404 345.331,221.627L345.331,184.776C345.331,183.999 345.971,183.359 346.748,183.359L383.598,183.359C384.376,183.359 385.016,183.999 385.016,184.776L385.016,221.627ZM331.016,221.627C331.016,222.404 330.376,223.044 329.598,223.044L292.748,223.044C291.971,223.044 291.331,222.404 291.331,221.627L291.331,184.776C291.331,183.999 291.971,183.359 292.748,183.359L329.598,183.359C330.376,183.359 331.016,183.999 331.016,184.776L331.016,221.627ZM670.748,223.044C669.971,223.044 669.331,222.404 669.331,221.627L669.331,184.776C669.331,183.999 669.971,183.359 670.748,183.359L761.598,183.359C762.376,183.359 763.016,183.999 763.016,184.776L763.016,221.627C763.016,222.404 762.376,223.044 761.598,223.044L670.748,223.044ZM277.016,221.627C277.016,222.404 276.376,223.044 275.598,223.044L238.748,223.044C237.971,223.044 237.331,222.404 237.331,221.627L237.331,184.776C237.331,183.999 237.971,183.359 238.748,183.359L275.598,183.359C276.376,183.359 277.016,183.999 277.016,184.776L277.016,221.627ZM547.016,221.627C547.016,222.404 546.376,223.044 545.598,223.044L508.748,223.044C507.971,223.044 507.331,222.404 507.331,221.627L507.331,184.776C507.331,183.999 507.971,183.359 508.748,183.359L545.598,183.359C546.376,183.359 547.016,183.999 547.016,184.776L547.016,221.627ZM169.016,221.627C169.016,222.404 168.376,223.044 167.598,223.044L130.748,223.044C129.971,223.044 129.331,222.404 129.331,221.627L129.331,184.776C129.331,183.999 129.971,183.359 130.748,183.359L167.598,183.359C168.376,183.359 169.016,183.999 169.016,184.776L169.016,221.627ZM223.016,221.627C223.016,222.404 222.376,223.044 221.598,223.044L184.748,223.044C183.971,223.044 183.331,222.404 183.331,221.627L183.331,184.776C183.331,183.999 183.971,183.359 184.748,183.359L221.598,183.359C222.376,183.359 223.016,183.999 223.016,184.776L223.016,221.627ZM615.331,184.776C615.331,183.994 615.965,183.359 616.748,183.359L653.598,183.359C654.381,183.359 655.016,183.994 655.016,184.776L655.016,221.627C655.016,222.41 654.381,223.044 653.598,223.044L616.748,223.044C615.965,223.044 615.331,222.41 615.331,221.627L615.331,184.776ZM520.016,167.627C520.016,168.404 519.376,169.044 518.598,169.044L481.748,169.044C480.971,169.044 480.331,168.404 480.331,167.627L480.331,130.776C480.331,129.999 480.971,129.359 481.748,129.359L518.598,129.359C519.376,129.359 520.016,129.999 520.016,130.776L520.016,167.627ZM466.016,167.627C466.016,168.404 465.376,169.044 464.598,169.044L427.748,169.044C426.971,169.044 426.331,168.404 426.331,167.627L426.331,130.776C426.331,129.999 426.971,129.359 427.748,129.359L464.598,129.359C465.376,129.359 466.016,129.999 466.016,130.776L466.016,167.627ZM73.098,129.359C73.876,129.359 74.516,129.999 74.516,130.776L74.516,167.627C74.516,168.404 73.876,169.044 73.098,169.044L36.248,169.044C35.471,169.044 34.831,168.404 34.831,167.627L34.831,130.776C34.831,129.999 35.471,129.359 36.248,129.359L73.098,129.359ZM412.016,167.627C412.016,168.404 411.376,169.044 410.598,169.044L373.748,169.044C372.971,169.044 372.331,168.404 372.331,167.627L372.331,130.776C372.331,129.999 372.971,129.359 373.748,129.359L410.598,129.359C411.376,129.359 412.016,129.999 412.016,130.776L412.016,167.627ZM250.016,167.627C250.016,168.404 249.376,169.044 248.598,169.044L211.748,169.044C210.971,169.044 210.331,168.404 210.331,167.627L210.331,130.776C210.331,129.999 210.971,129.359 211.748,129.359L248.598,129.359C249.376,129.359 250.016,129.999 250.016,130.776L250.016,167.627ZM304.016,167.627C304.016,168.404 303.376,169.044 302.598,169.044L265.748,169.044C264.971,169.044 264.331,168.404 264.331,167.627L264.331,130.776C264.331,129.999 264.971,129.359 265.748,129.359L302.598,129.359C303.376,129.359 304.016,129.999 304.016,130.776L304.016,167.627ZM103.748,169.044C102.971,169.044 102.331,168.404 102.331,167.627L102.331,130.776C102.331,129.999 102.971,129.359 103.748,129.359L140.598,129.359C141.376,129.359 142.016,129.999 142.016,130.776L142.016,167.627C142.016,168.404 141.376,169.044 140.598,169.044L103.748,169.044ZM358.016,167.627C358.016,168.404 357.376,169.044 356.598,169.044L319.748,169.044C318.971,169.044 318.331,168.404 318.331,167.627L318.331,130.776C318.331,129.999 318.971,129.359 319.748,129.359L356.598,129.359C357.376,129.359 358.016,129.999 358.016,130.776L358.016,167.627ZM574.016,167.627C574.016,168.404 573.376,169.044 572.598,169.044L535.748,169.044C534.971,169.044 534.331,168.404 534.331,167.627L534.331,130.776C534.331,129.999 534.971,129.359 535.748,129.359L572.598,129.359C573.376,129.359 574.016,129.999 574.016,130.776L574.016,167.627ZM628.016,167.627C628.016,168.404 627.376,169.044 626.598,169.044L589.748,169.044C588.971,169.044 588.331,168.404 588.331,167.627L588.331,130.776C588.331,129.999 588.971,129.359 589.748,129.359L626.598,129.359C627.376,129.359 628.016,129.999 628.016,130.776L628.016,167.627ZM642.944,168.79L643.121,168.896L643.329,168.98C643.439,169.015 643.555,169.036 643.676,169.042L643.748,169.044L802.098,169.044L802.135,169.044C802.896,169.024 803.516,168.392 803.516,167.627L803.516,130.776C803.516,129.999 802.876,129.359 802.098,129.359L793.684,129.359L793.684,125.107C793.684,124.33 793.045,123.69 792.267,123.69L775.259,123.69C774.482,123.69 773.842,124.33 773.842,125.107L773.842,129.359L739.684,129.359L739.684,125.107C739.684,124.33 739.045,123.69 738.267,123.69L707.579,123.69C706.802,123.69 706.162,124.33 706.162,125.107L706.162,129.359L672.004,129.359L672.004,125.107C672.004,124.33 671.365,123.69 670.587,123.69L653.579,123.69C652.802,123.69 652.162,124.33 652.162,125.107L652.162,129.359L643.748,129.359L643.499,129.381C643.364,129.406 643.235,129.449 643.116,129.509L643.045,129.548L642.823,129.706L642.635,129.904C642.564,129.993 642.504,130.091 642.457,130.195L642.43,130.259L642.353,130.527L642.331,130.776L642.331,167.627C642.331,168.034 642.506,168.404 642.785,168.663L642.944,168.79ZM196.016,167.627C196.016,168.404 195.376,169.044 194.598,169.044L157.748,169.044C156.971,169.044 156.331,168.404 156.331,167.627L156.331,130.776C156.331,129.999 156.971,129.359 157.748,129.359L194.598,129.359C195.376,129.359 196.016,129.999 196.016,130.776L196.016,167.627ZM642.944,168.79L642.93,168.781C642.939,168.788 642.948,168.794 642.958,168.801L642.944,168.79ZM628.016,113.627C628.016,114.404 627.376,115.044 626.598,115.044L589.748,115.044C588.971,115.044 588.331,114.404 588.331,113.627L588.331,76.776C588.331,75.999 588.971,75.359 589.748,75.359L626.598,75.359C627.376,75.359 628.016,75.999 628.016,76.776L628.016,113.627ZM574.016,113.627C574.016,114.404 573.376,115.044 572.598,115.044L535.748,115.044C534.971,115.044 534.331,114.404 534.331,113.627L534.331,76.776C534.331,75.999 534.971,75.359 535.748,75.359L572.598,75.359C573.376,75.359 574.016,75.999 574.016,76.776L574.016,113.627ZM466.016,113.627C466.016,114.404 465.376,115.044 464.598,115.044L427.748,115.044C426.971,115.044 426.331,114.404 426.331,113.627L426.331,76.776C426.331,75.999 426.971,75.359 427.748,75.359L464.598,75.359C465.376,75.359 466.016,75.999 466.016,76.776L466.016,113.627ZM358.016,113.627C358.016,114.404 357.376,115.044 356.598,115.044L319.748,115.044C318.971,115.044 318.331,114.404 318.331,113.627L318.331,76.776C318.331,75.999 318.971,75.359 319.748,75.359L356.598,75.359C357.376,75.359 358.016,75.999 358.016,76.776L358.016,113.627ZM103.748,115.044C102.971,115.044 102.331,114.404 102.331,113.627L102.331,76.776C102.331,75.999 102.971,75.359 103.748,75.359L140.598,75.359C141.376,75.359 142.016,75.999 142.016,76.776L142.016,113.627C142.016,114.404 141.376,115.044 140.598,115.044L103.748,115.044ZM196.016,113.627C196.016,114.404 195.376,115.044 194.598,115.044L157.748,115.044C156.971,115.044 156.331,114.404 156.331,113.627L156.331,76.776C156.331,75.999 156.971,75.359 157.748,75.359L194.598,75.359C195.376,75.359 196.016,75.999 196.016,76.776L196.016,113.627ZM73.098,75.359C73.876,75.359 74.516,75.999 74.516,76.776L74.516,113.627C74.516,114.404 73.876,115.044 73.098,115.044L36.248,115.044C35.471,115.044 34.831,114.404 34.831,113.627L34.831,76.776C34.831,75.999 35.471,75.359 36.248,75.359L73.098,75.359ZM520.016,113.627C520.016,114.404 519.376,115.044 518.598,115.044L481.748,115.044C480.971,115.044 480.331,114.404 480.331,113.627L480.331,76.776C480.331,75.999 480.971,75.359 481.748,75.359L518.598,75.359C519.376,75.359 520.016,75.999 520.016,76.776L520.016,113.627ZM815.598,75.359C816.376,75.359 817.016,75.999 817.016,76.776L817.016,113.627C817.016,114.404 816.376,115.044 815.598,115.044L643.748,115.044C642.971,115.044 642.331,114.404 642.331,113.627L642.331,76.776C642.331,75.999 642.971,75.359 643.748,75.359L815.598,75.359ZM304.016,113.627C304.016,114.404 303.376,115.044 302.598,115.044L265.748,115.044C264.971,115.044 264.331,114.404 264.331,113.627L264.331,76.776C264.331,75.999 264.971,75.359 265.748,75.359L302.598,75.359C303.376,75.359 304.016,75.999 304.016,76.776L304.016,113.627ZM250.016,113.627C250.016,114.404 249.376,115.044 248.598,115.044L211.748,115.044C210.971,115.044 210.331,114.404 210.331,113.627L210.331,76.776C210.331,75.999 210.971,75.359 211.748,75.359L248.598,75.359C249.376,75.359 250.016,75.999 250.016,76.776L250.016,113.627ZM412.016,113.627C412.016,114.404 411.376,115.044 410.598,115.044L373.748,115.044C372.971,115.044 372.331,114.404 372.331,113.627L372.331,76.776C372.331,75.999 372.971,75.359 373.748,75.359L410.598,75.359C411.376,75.359 412.016,75.999 412.016,76.776L412.016,113.627ZM84.482,87.443L82.509,88.449L80.938,90.016L79.934,91.992L79.588,94.185L79.934,96.37L80.938,98.346L82.509,99.913L84.482,100.919L86.676,101.271L88.865,100.919L90.841,99.913L92.404,98.346L93.416,96.37L93.762,94.185L93.416,91.992L92.404,90.016L90.841,88.449L88.865,87.443L86.676,87.097L84.482,87.443ZM746.254,61.044L746.254,65.296C746.254,66.074 745.615,66.713 744.837,66.713L727.829,66.713C727.052,66.713 726.412,66.074 726.412,65.296L726.412,61.044L724.748,61.044C723.971,61.044 723.331,60.404 723.331,59.627L723.331,22.776C723.331,21.999 723.971,21.359 724.748,21.359L815.598,21.359C816.376,21.359 817.016,21.999 817.016,22.776L817.016,59.627C817.016,60.404 816.376,61.044 815.598,61.044L813.934,61.044L813.934,65.296C813.934,66.074 813.295,66.713 812.517,66.713L795.509,66.713C794.732,66.713 794.092,66.074 794.092,65.296L794.092,61.044L746.254,61.044ZM493.016,59.627C493.016,60.404 492.376,61.044 491.598,61.044L454.748,61.044C453.971,61.044 453.331,60.404 453.331,59.627L453.331,22.776C453.331,21.999 453.971,21.359 454.748,21.359L491.598,21.359C492.376,21.359 493.016,21.999 493.016,22.776L493.016,59.627ZM439.016,59.627C439.016,60.404 438.376,61.044 437.598,61.044L400.748,61.044C399.971,61.044 399.331,60.404 399.331,59.627L399.331,22.776C399.331,21.999 399.971,21.359 400.748,21.359L437.598,21.359C438.376,21.359 439.016,21.999 439.016,22.776L439.016,59.627ZM385.016,59.627C385.016,60.404 384.376,61.044 383.598,61.044L346.748,61.044C345.971,61.044 345.331,60.404 345.331,59.627L345.331,22.776C345.331,21.999 345.971,21.359 346.748,21.359L383.598,21.359C384.376,21.359 385.016,21.999 385.016,22.776L385.016,59.627ZM331.016,59.627C331.016,60.404 330.376,61.044 329.598,61.044L292.748,61.044C291.971,61.044 291.331,60.404 291.331,59.627L291.331,22.776C291.331,21.999 291.971,21.359 292.748,21.359L329.598,21.359C330.376,21.359 331.016,21.999 331.016,22.776L331.016,59.627ZM61.016,59.627C61.016,60.404 60.376,61.044 59.598,61.044L22.748,61.044C21.971,61.044 21.331,60.404 21.331,59.627L21.331,22.776C21.331,21.999 21.971,21.359 22.748,21.359L59.598,21.359C60.376,21.359 61.016,21.999 61.016,22.776L61.016,59.627ZM223.016,59.627C223.016,60.404 222.376,61.044 221.598,61.044L184.748,61.044C183.971,61.044 183.331,60.404 183.331,59.627L183.331,22.776C183.331,21.999 183.971,21.359 184.748,21.359L221.598,21.359C222.376,21.359 223.016,21.999 223.016,22.776L223.016,59.627ZM547.016,59.627C547.016,60.404 546.376,61.044 545.598,61.044L508.748,61.044C507.971,61.044 507.331,60.404 507.331,59.627L507.331,22.776C507.331,21.999 507.971,21.359 508.748,21.359L545.598,21.359C546.376,21.359 547.016,21.999 547.016,22.776L547.016,59.627ZM601.016,59.627C601.016,60.404 600.376,61.044 599.598,61.044L562.748,61.044C561.971,61.044 561.331,60.404 561.331,59.627L561.331,22.776C561.331,21.999 561.971,21.359 562.748,21.359L599.598,21.359C600.376,21.359 601.016,21.999 601.016,22.776L601.016,59.627ZM277.016,59.627C277.016,60.404 276.376,61.044 275.598,61.044L238.748,61.044C237.971,61.044 237.331,60.404 237.331,59.627L237.331,22.776C237.331,21.999 237.971,21.359 238.748,21.359L275.598,21.359C276.376,21.359 277.016,21.999 277.016,22.776L277.016,59.627ZM709.016,59.627C709.016,60.404 708.376,61.044 707.598,61.044L670.748,61.044C669.971,61.044 669.331,60.404 669.331,59.627L669.331,22.776C669.331,21.999 669.971,21.359 670.748,21.359L707.598,21.359C708.376,21.359 709.016,21.999 709.016,22.776L709.016,59.627ZM169.016,59.627C169.016,60.404 168.376,61.044 167.598,61.044L130.748,61.044C129.971,61.044 129.331,60.404 129.331,59.627L129.331,22.776C129.331,21.999 129.971,21.359 130.748,21.359L167.598,21.359C168.376,21.359 169.016,21.999 169.016,22.776L169.016,59.627ZM76.748,61.044C75.971,61.044 75.331,60.404 75.331,59.627L75.331,22.776C75.331,21.999 75.971,21.359 76.748,21.359L113.598,21.359C114.376,21.359 115.016,21.999 115.016,22.776L115.016,59.627C115.016,60.404 114.376,61.044 113.598,61.044L76.748,61.044ZM655.016,59.627C655.016,60.404 654.376,61.044 653.598,61.044L616.748,61.044C615.971,61.044 615.331,60.404 615.331,59.627L615.331,22.776C615.331,21.999 615.971,21.359 616.748,21.359L653.598,21.359C654.376,21.359 655.016,21.999 655.016,22.776L655.016,59.627Z" style="fill:rgb(253,227,237);stroke:rgb(255,51,51);stroke-width:0.85px;"/>
        </g>
    </g>
</svg>
