  0
SECTION
  2
HEADER
  9
$ACADVER
  1
AC1014
  9
$HANDSEED
  5
FFFF
  9
$MEASUREMENT
 70
     1
  0
ENDSEC
  0
SECTION
  2
TABLES
  0
TABLE
  2
VPORT
  5
8
330
0
100
AcDbSymbolTable
 70
     4
  0
VPORT
  5
2E
330
8
100
AcDbSymbolTableRecord
100
AcDbViewportTableRecord
  2
*ACTIVE
 70
     0
 10
0.0
 20
0.0
 11
1.0
 21
1.0
 12
210.0
 22
148.5
 13
0.0
 23
0.0
 14
10.0
 24
10.0
 15
10.0
 25
10.0
 16
0.0
 26
0.0
 36
1.0
 17
0.0
 27
0.0
 37
0.0
 40
341.0
 41
1.24
 42
50.0
 43
0.0
 44
0.0
 50
0.0
 51
0.0
 71
     0
 72
   100
 73
     1
 74
     3
 75
     0
 76
     0
 77
     0
 78
     0
  0
ENDTAB
  0
TABLE
  2
LTYPE
  5
5
330
0
100
AcDbSymbolTable
 70
     1
  0
LTYPE
  5
14
330
5
100
AcDbSymbolTableRecord
100
AcDbLinetypeTableRecord
  2
BYBLOCK
 70
     0
  3

 72
    65
 73
     0
 40
0.0
  0
LTYPE
  5
15
330
5
100
AcDbSymbolTableRecord
100
AcDbLinetypeTableRecord
  2
BYLAYER
 70
     0
  3

 72
    65
 73
     0
 40
0.0
  0
LTYPE
  5
16
330
5
100
AcDbSymbolTableRecord
100
AcDbLinetypeTableRecord
  2
CONTINUOUS
 70
     0
  3
Solid line
 72
    65
 73
     0
 40
0.0
  0
ENDTAB
  0
TABLE
  2
LAYER
  5
2
100
AcDbSymbolTable
 70
1
  0
LAYER
  5
50
100
AcDbSymbolTableRecord
100
AcDbLayerTableRecord
  2
0
 70
0
  6
CONTINUOUS
  0
ENDTAB
  0
TABLE
  2
STYLE
  5
3
330
0
100
AcDbSymbolTable
 70
     1
  0
STYLE
  5
11
330
3
100
AcDbSymbolTableRecord
100
AcDbTextStyleTableRecord
  2
STANDARD
 70
     0
 40
0.0
 41
1.0
 50
0.0
 71
     0
 42
2.5
  3
txt
  4

  0
ENDTAB
  0
TABLE
  2
VIEW
  5
6
330
0
100
AcDbSymbolTable
 70
     0
  0
ENDTAB
  0
TABLE
  2
UCS
  5
7
330
0
100
AcDbSymbolTable
 70
     0
  0
ENDTAB
  0
TABLE
  2
APPID
  5
9
330
0
100
AcDbSymbolTable
 70
     2
  0
APPID
  5
12
330
9
100
AcDbSymbolTableRecord
100
AcDbRegAppTableRecord
  2
ACAD
 70
     0
  0
ENDTAB
  0
TABLE
  2
DIMSTYLE
  5
A
330
0
100
AcDbSymbolTable
 70
     1
  0
DIMSTYLE
105
27
330
A
100
AcDbSymbolTableRecord
100
AcDbDimStyleTableRecord
  2
ISO-25
 70
     0
  3

  4

  5

  6

  7

 40
1.0
 41
2.5
 42
0.625
 43
3.75
 44
1.25
 45
0.0
 46
0.0
 47
0.0
 48
0.0
140
2.5
141
2.5
142
0.0
143
0.03937007874016
144
1.0
145
0.0
146
1.0
147
0.625
 71
     0
 72
     0
 73
     0
 74
     0
 75
     0
 76
     0
 77
     1
 78
     8
170
     0
171
     3
172
     1
173
     0
174
     0
175
     0
176
     0
177
     0
178
     0
270
     2
271
     2
272
     2
273
     2
274
     3
340
11
275
     0
280
     0
281
     0
282
     0
283
     0
284
     8
285
     0
286
     0
287
     3
288
     0
  0
ENDTAB
  0
TABLE
  2
BLOCK_RECORD
  5
1
330
0
100
AcDbSymbolTable
 70
     1
  0
BLOCK_RECORD
  5
1F
330
1
100
AcDbSymbolTableRecord
100
AcDbBlockTableRecord
  2
*MODEL_SPACE
  0
BLOCK_RECORD
  5
1B
330
1
100
AcDbSymbolTableRecord
100
AcDbBlockTableRecord
  2
*PAPER_SPACE
  0
ENDTAB
  0
ENDSEC
  0
SECTION
  2
BLOCKS
  0
BLOCK
  5
20
330
1F
100
AcDbEntity
  8
0
100
AcDbBlockBegin
  2
*MODEL_SPACE
 70
     0
 10
0.0
 20
0.0
 30
0.0
  3
*MODEL_SPACE
  1

  0
ENDBLK
  5
21
330
1F
100
AcDbEntity
  8
0
100
AcDbBlockEnd
  0
BLOCK
  5
1C
330
1B
100
AcDbEntity
 67
     1
  8
0
100
AcDbBlockBegin
  2
*PAPER_SPACE
  1

  0
ENDBLK
  5
1D
330
1B
100
AcDbEntity
 67
     1
  8
0
100
AcDbBlockEnd
  0
ENDSEC
  0
SECTION
  2
ENTITIES
  0
SPLINE
  5
100
100
AcDbEntity
  8
0
 62
1
100
AcDbSpline
 70
8
 71
3
 72
8
 73
4
 74
0
 40
0
 40
0
 40
0
 40
0
 40
1
 40
1
 40
1
 40
1
 10
317.187316
 20
40.619348
 30
0.0
 10
317.463188
 20
40.619348
 30
0.0
 10
317.687201
 20
40.395334
 30
0.0
 10
317.687201
 20
40.119463
 30
0.0
  0
SPLINE
  5
101
100
AcDbEntity
  8
0
 62
1
100
AcDbSpline
 70
8
 71
3
 72
8
 73
4
 74
0
 40
0
 40
0
 40
0
 40
0
 40
1
 40
1
 40
1
 40
1
 10
317.687201
 20
40.119463
 30
0.0
 10
317.687201
 20
35.957048
 30
0.0
 10
317.687201
 20
7.214551
 30
0.0
 10
317.687201
 20
7.214551
 30
0.0
  0
LWPOLYLINE
  5
102
100
AcDbEntity
  8
0
 62
1
100
AcDbPolyline
 90
2
 70
0
 10
315.348290
 20
40.619348
 30
0.0
 10
317.187316
 20
40.619348
 30
0.0
  0
SPLINE
  5
103
100
AcDbEntity
  8
0
 62
1
100
AcDbSpline
 70
8
 71
3
 72
8
 73
4
 74
0
 40
0
 40
0
 40
0
 40
0
 40
1
 40
1
 40
1
 40
1
 10
32.311859
 20
40.054199
 30
0.0
 10
32.311859
 20
40.186843
 30
0.0
 10
32.364423
 20
40.314196
 30
0.0
 10
32.458261
 20
40.408034
 30
0.0
  0
SPLINE
  5
104
100
AcDbEntity
  8
0
 62
1
100
AcDbSpline
 70
8
 71
3
 72
8
 73
4
 74
0
 40
0
 40
0
 40
0
 40
0
 40
1
 40
1
 40
1
 40
1
 10
32.458261
 20
40.408034
 30
0.0
 10
32.552100
 20
40.501520
 30
0.0
 10
32.679452
 20
40.554437
 30
0.0
 10
32.811744
 20
40.554437
 30
0.0
  0
LWPOLYLINE
  5
105
100
AcDbEntity
  8
0
 62
1
100
AcDbPolyline
 90
43
 70
0
 10
317.687201
 20
7.214551
 30
0.0
 10
317.681204
 20
7.059329
 30
0.0
 10
317.662154
 20
6.903402
 30
0.0
 10
317.631110
 20
6.749238
 30
0.0
 10
317.589129
 20
6.597544
 30
0.0
 10
317.534096
 20
6.449378
 30
0.0
 10
317.469185
 20
6.308267
 30
0.0
 10
317.392280
 20
6.171389
 30
0.0
 10
317.306202
 20
6.040509
 30
0.0
 10
317.207072
 20
5.916332
 30
0.0
 10
317.101239
 20
5.800268
 30
0.0
 10
316.985175
 20
5.695493
 30
0.0
 10
316.862056
 20
5.597421
 30
0.0
 10
316.731176
 20
5.510286
 30
0.0
 10
316.594298
 20
5.433380
 30
0.0
 10
316.452129
 20
5.368469
 30
0.0
 10
316.306080
 20
5.312378
 30
0.0
 10
316.153327
 20
5.270397
 30
0.0
 10
315.999164
 20
5.240411
 30
0.0
 10
315.843236
 20
5.222420
 30
0.0
 10
315.687309
 20
5.216422
 30
0.0
 10
34.312809
 20
5.214306
 30
0.0
 10
34.155824
 20
5.222420
 30
0.0
 10
33.999896
 20
5.240411
 30
0.0
 10
33.845733
 20
5.270397
 30
0.0
 10
33.694039
 20
5.312378
 30
0.0
 10
33.546931
 20
5.368469
 30
0.0
 10
33.404762
 20
5.433380
 30
0.0
 10
33.267884
 20
5.510286
 30
0.0
 10
33.137004
 20
5.597421
 30
0.0
 10
33.013885
 20
5.695493
 30
0.0
 10
32.897821
 20
5.800268
 30
0.0
 10
32.791988
 20
5.916332
 30
0.0
 10
32.693916
 20
6.040509
 30
0.0
 10
32.606780
 20
6.171389
 30
0.0
 10
32.529875
 20
6.308267
 30
0.0
 10
32.464964
 20
6.449378
 30
0.0
 10
32.409931
 20
6.597544
 30
0.0
 10
32.367950
 20
6.749238
 30
0.0
 10
32.336906
 20
6.903402
 30
0.0
 10
32.318914
 20
7.059329
 30
0.0
 10
32.311859
 20
7.214551
 30
0.0
 10
32.311859
 20
40.054199
 30
0.0
  0
SPLINE
  5
106
100
AcDbEntity
  8
0
 62
1
100
AcDbSpline
 70
8
 71
3
 72
8
 73
4
 74
0
 40
0
 40
0
 40
0
 40
0
 40
1
 40
1
 40
1
 40
1
 10
34.649006
 20
27.119282
 30
0.0
 10
34.649006
 20
26.845174
 30
0.0
 10
34.874783
 20
26.619397
 30
0.0
 10
35.148891
 20
26.619397
 30
0.0
  0
LWPOLYLINE
  5
107
100
AcDbEntity
  8
0
 62
1
100
AcDbPolyline
 90
3
 70
0
 10
32.811744
 20
40.554437
 30
0.0
 10
34.649006
 20
40.554437
 30
0.0
 10
34.649006
 20
27.119282
 30
0.0
  0
SPLINE
  5
108
100
AcDbEntity
  8
0
 62
1
100
AcDbSpline
 70
8
 71
3
 72
8
 73
4
 74
0
 40
0
 40
0
 40
0
 40
0
 40
1
 40
1
 40
1
 40
1
 10
35.735911
 20
25.119389
 30
0.0
 10
35.735911
 20
24.844929
 30
0.0
 10
35.961689
 20
24.619504
 30
0.0
 10
36.235796
 20
24.619504
 30
0.0
  0
LWPOLYLINE
  5
109
100
AcDbEntity
  8
0
 62
1
100
AcDbPolyline
 90
3
 70
0
 10
35.148891
 20
26.619397
 30
0.0
 10
35.735911
 20
26.619397
 30
0.0
 10
35.735911
 20
25.119389
 30
0.0
  0
SPLINE
  5
10a
100
AcDbEntity
  8
0
 62
1
100
AcDbSpline
 70
8
 71
3
 72
8
 73
4
 74
0
 40
0
 40
0
 40
0
 40
0
 40
1
 40
1
 40
1
 40
1
 10
42.235826
 20
24.619504
 30
0.0
 10
42.510286
 20
24.619504
 30
0.0
 10
42.735711
 20
24.844929
 30
0.0
 10
42.735711
 20
25.119389
 30
0.0
  0
LWPOLYLINE
  5
10b
100
AcDbEntity
  8
0
 62
1
100
AcDbPolyline
 90
2
 70
0
 10
36.235796
 20
24.619504
 30
0.0
 10
42.235826
 20
24.619504
 30
0.0
  0
SPLINE
  5
10c
100
AcDbEntity
  8
0
 62
1
100
AcDbSpline
 70
8
 71
3
 72
8
 73
4
 74
0
 40
0
 40
0
 40
0
 40
0
 40
1
 40
1
 40
1
 40
1
 10
59.611852
 20
25.119389
 30
0.0
 10
59.611852
 20
24.844929
 30
0.0
 10
59.837629
 20
24.619504
 30
0.0
 10
60.111737
 20
24.619504
 30
0.0
  0
LWPOLYLINE
  5
10d
100
AcDbEntity
  8
0
 62
1
100
AcDbPolyline
 90
4
 70
0
 10
42.735711
 20
25.119389
 30
0.0
 10
42.735711
 20
26.619397
 30
0.0
 10
59.611852
 20
26.619397
 30
0.0
 10
59.611852
 20
25.119389
 30
0.0
  0
SPLINE
  5
10e
100
AcDbEntity
  8
0
 62
1
100
AcDbSpline
 70
8
 71
3
 72
8
 73
4
 74
0
 40
0
 40
0
 40
0
 40
0
 40
1
 40
1
 40
1
 40
1
 10
66.111766
 20
24.619504
 30
0.0
 10
66.386227
 20
24.619504
 30
0.0
 10
66.611651
 20
24.844929
 30
0.0
 10
66.611651
 20
25.119389
 30
0.0
  0
LWPOLYLINE
  5
10f
100
AcDbEntity
  8
0
 62
1
100
AcDbPolyline
 90
2
 70
0
 10
60.111737
 20
24.619504
 30
0.0
 10
66.111766
 20
24.619504
 30
0.0
  0
SPLINE
  5
110
100
AcDbEntity
  8
0
 62
1
100
AcDbSpline
 70
8
 71
3
 72
8
 73
4
 74
0
 40
0
 40
0
 40
0
 40
0
 40
1
 40
1
 40
1
 40
1
 10
67.198672
 20
26.619397
 30
0.0
 10
67.473132
 20
26.619397
 30
0.0
 10
67.698909
 20
26.845174
 30
0.0
 10
67.698909
 20
27.119282
 30
0.0
  0
LWPOLYLINE
  5
111
100
AcDbEntity
  8
0
 62
1
100
AcDbPolyline
 90
3
 70
0
 10
66.611651
 20
25.119389
 30
0.0
 10
66.611651
 20
26.619397
 30
0.0
 10
67.198672
 20
26.619397
 30
0.0
  0
SPLINE
  5
112
100
AcDbEntity
  8
0
 62
1
100
AcDbSpline
 70
8
 71
3
 72
8
 73
4
 74
0
 40
0
 40
0
 40
0
 40
0
 40
1
 40
1
 40
1
 40
1
 10
67.698909
 20
40.119463
 30
0.0
 10
67.698909
 20
40.393571
 30
0.0
 10
67.473132
 20
40.619348
 30
0.0
 10
67.198672
 20
40.619348
 30
0.0
  0
LWPOLYLINE
  5
113
100
AcDbEntity
  8
0
 62
1
100
AcDbPolyline
 90
2
 70
0
 10
67.698909
 20
27.119282
 30
0.0
 10
67.698909
 20
40.119463
 30
0.0
  0
SPLINE
  5
114
100
AcDbEntity
  8
0
 62
1
100
AcDbSpline
 70
8
 71
3
 72
8
 73
4
 74
0
 40
0
 40
0
 40
0
 40
0
 40
1
 40
1
 40
1
 40
1
 10
32.811744
 20
45.978382
 30
0.0
 10
32.679452
 20
45.978382
 30
0.0
 10
32.552100
 20
46.030945
 30
0.0
 10
32.458261
 20
46.124784
 30
0.0
  0
SPLINE
  5
115
100
AcDbEntity
  8
0
 62
1
100
AcDbSpline
 70
8
 71
3
 72
8
 73
4
 74
0
 40
0
 40
0
 40
0
 40
0
 40
1
 40
1
 40
1
 40
1
 10
32.458261
 20
46.124784
 30
0.0
 10
32.364423
 20
46.218623
 30
0.0
 10
32.311859
 20
46.345622
 30
0.0
 10
32.311859
 20
46.478267
 30
0.0
  0
SPLINE
  5
116
100
AcDbEntity
  8
0
 62
1
100
AcDbSpline
 70
8
 71
3
 72
8
 73
4
 74
0
 40
0
 40
0
 40
0
 40
0
 40
1
 40
1
 40
1
 40
1
 10
32.311859
 20
46.478267
 30
0.0
 10
32.311859
 20
51.818603
 30
0.0
 10
32.312917
 20
98.141032
 30
0.0
 10
32.312917
 20
98.141032
 30
0.0
  0
LWPOLYLINE
  5
117
100
AcDbEntity
  8
0
 62
1
100
AcDbPolyline
 90
4
 70
0
 10
67.198672
 20
40.619348
 30
0.0
 10
37.834934
 20
40.619348
 30
0.0
 10
37.834934
 20
45.978382
 30
0.0
 10
32.811744
 20
45.978382
 30
0.0
  0
SPLINE
  5
118
100
AcDbEntity
  8
0
 62
1
100
AcDbSpline
 70
8
 71
3
 72
8
 73
4
 74
0
 40
0
 40
0
 40
0
 40
0
 40
1
 40
1
 40
1
 40
1
 10
317.687201
 20
61.073705
 30
0.0
 10
317.687201
 20
60.941061
 30
0.0
 10
317.634637
 20
60.814061
 30
0.0
 10
317.540799
 20
60.720223
 30
0.0
  0
SPLINE
  5
119
100
AcDbEntity
  8
0
 62
1
100
AcDbSpline
 70
8
 71
3
 72
8
 73
4
 74
0
 40
0
 40
0
 40
0
 40
0
 40
1
 40
1
 40
1
 40
1
 10
317.540799
 20
60.720223
 30
0.0
 10
317.446960
 20
60.626384
 30
0.0
 10
317.319960
 20
60.573820
 30
0.0
 10
317.187316
 20
60.573820
 30
0.0
  0
SPLINE
  5
11a
100
AcDbEntity
  8
0
 62
1
100
AcDbSpline
 70
8
 71
3
 72
8
 73
4
 74
0
 40
0
 40
0
 40
0
 40
0
 40
1
 40
1
 40
1
 40
1
 10
317.187316
 20
60.573820
 30
0.0
 10
316.542793
 20
60.573820
 30
0.0
 10
315.428723
 20
60.573820
 30
0.0
 10
314.784200
 20
60.573820
 30
0.0
  0
SPLINE
  5
11b
100
AcDbEntity
  8
0
 62
1
100
AcDbSpline
 70
8
 71
3
 72
8
 73
4
 74
0
 40
0
 40
0
 40
0
 40
0
 40
1
 40
1
 40
1
 40
1
 10
314.784200
 20
60.573820
 30
0.0
 10
314.508328
 20
60.573820
 30
0.0
 10
314.284315
 20
60.349807
 30
0.0
 10
314.284315
 20
60.073583
 30
0.0
  0
SPLINE
  5
11c
100
AcDbEntity
  8
0
 62
1
100
AcDbSpline
 70
8
 71
3
 72
8
 73
4
 74
0
 40
0
 40
0
 40
0
 40
0
 40
1
 40
1
 40
1
 40
1
 10
314.284315
 20
60.073583
 30
0.0
 10
314.284315
 20
59.387431
 30
0.0
 10
314.284315
 20
58.160121
 30
0.0
 10
314.284315
 20
57.473617
 30
0.0
  0
SPLINE
  5
11d
100
AcDbEntity
  8
0
 62
1
100
AcDbSpline
 70
8
 71
3
 72
8
 73
4
 74
0
 40
0
 40
0
 40
0
 40
0
 40
1
 40
1
 40
1
 40
1
 10
314.284315
 20
57.473617
 30
0.0
 10
314.284315
 20
57.197745
 30
0.0
 10
314.508328
 20
56.973732
 30
0.0
 10
314.784200
 20
56.973732
 30
0.0
  0
SPLINE
  5
11e
100
AcDbEntity
  8
0
 62
1
100
AcDbSpline
 70
8
 71
3
 72
8
 73
4
 74
0
 40
0
 40
0
 40
0
 40
0
 40
1
 40
1
 40
1
 40
1
 10
314.784200
 20
56.973732
 30
0.0
 10
315.428723
 20
56.973732
 30
0.0
 10
316.542793
 20
56.973732
 30
0.0
 10
317.187316
 20
56.973732
 30
0.0
  0
SPLINE
  5
11f
100
AcDbEntity
  8
0
 62
1
100
AcDbSpline
 70
8
 71
3
 72
8
 73
4
 74
0
 40
0
 40
0
 40
0
 40
0
 40
1
 40
1
 40
1
 40
1
 10
317.187316
 20
56.973732
 30
0.0
 10
317.319960
 20
56.973732
 30
0.0
 10
317.446960
 20
56.921168
 30
0.0
 10
317.540799
 20
56.827330
 30
0.0
  0
SPLINE
  5
120
100
AcDbEntity
  8
0
 62
1
100
AcDbSpline
 70
8
 71
3
 72
8
 73
4
 74
0
 40
0
 40
0
 40
0
 40
0
 40
1
 40
1
 40
1
 40
1
 10
317.540799
 20
56.827330
 30
0.0
 10
317.634637
 20
56.733491
 30
0.0
 10
317.687201
 20
56.606491
 30
0.0
 10
317.687201
 20
56.473847
 30
0.0
  0
SPLINE
  5
121
100
AcDbEntity
  8
0
 62
1
100
AcDbSpline
 70
8
 71
3
 72
8
 73
4
 74
0
 40
0
 40
0
 40
0
 40
0
 40
1
 40
1
 40
1
 40
1
 10
317.687201
 20
56.473847
 30
0.0
 10
317.687201
 20
55.673396
 30
0.0
 10
317.687201
 20
54.113064
 30
0.0
 10
317.687201
 20
53.312613
 30
0.0
  0
SPLINE
  5
122
100
AcDbEntity
  8
0
 62
1
100
AcDbSpline
 70
8
 71
3
 72
8
 73
4
 74
0
 40
0
 40
0
 40
0
 40
0
 40
1
 40
1
 40
1
 40
1
 10
317.687201
 20
53.312613
 30
0.0
 10
317.687201
 20
53.179969
 30
0.0
 10
317.634637
 20
53.052970
 30
0.0
 10
317.540799
 20
52.959131
 30
0.0
  0
SPLINE
  5
123
100
AcDbEntity
  8
0
 62
1
100
AcDbSpline
 70
8
 71
3
 72
8
 73
4
 74
0
 40
0
 40
0
 40
0
 40
0
 40
1
 40
1
 40
1
 40
1
 10
317.540799
 20
52.959131
 30
0.0
 10
317.446960
 20
52.865292
 30
0.0
 10
317.319960
 20
52.812728
 30
0.0
 10
317.187316
 20
52.812728
 30
0.0
  0
SPLINE
  5
124
100
AcDbEntity
  8
0
 62
1
100
AcDbSpline
 70
8
 71
3
 72
8
 73
4
 74
0
 40
0
 40
0
 40
0
 40
0
 40
1
 40
1
 40
1
 40
1
 10
317.187316
 20
52.812728
 30
0.0
 10
316.542793
 20
52.812728
 30
0.0
 10
315.428723
 20
52.812728
 30
0.0
 10
314.784200
 20
52.812728
 30
0.0
  0
SPLINE
  5
125
100
AcDbEntity
  8
0
 62
1
100
AcDbSpline
 70
8
 71
3
 72
8
 73
4
 74
0
 40
0
 40
0
 40
0
 40
0
 40
1
 40
1
 40
1
 40
1
 10
314.784200
 20
52.812728
 30
0.0
 10
314.508328
 20
52.812728
 30
0.0
 10
314.284315
 20
52.588715
 30
0.0
 10
314.284315
 20
52.312491
 30
0.0
  0
SPLINE
  5
126
100
AcDbEntity
  8
0
 62
1
100
AcDbSpline
 70
8
 71
3
 72
8
 73
4
 74
0
 40
0
 40
0
 40
0
 40
0
 40
1
 40
1
 40
1
 40
1
 10
314.284315
 20
52.312491
 30
0.0
 10
314.284315
 20
51.626340
 30
0.0
 10
314.284315
 20
50.399029
 30
0.0
 10
314.284315
 20
49.712525
 30
0.0
  0
SPLINE
  5
127
100
AcDbEntity
  8
0
 62
1
100
AcDbSpline
 70
8
 71
3
 72
8
 73
4
 74
0
 40
0
 40
0
 40
0
 40
0
 40
1
 40
1
 40
1
 40
1
 10
314.284315
 20
49.712525
 30
0.0
 10
314.284315
 20
49.436654
 30
0.0
 10
314.508328
 20
49.212640
 30
0.0
 10
314.784200
 20
49.212640
 30
0.0
  0
SPLINE
  5
128
100
AcDbEntity
  8
0
 62
1
100
AcDbSpline
 70
8
 71
3
 72
8
 73
4
 74
0
 40
0
 40
0
 40
0
 40
0
 40
1
 40
1
 40
1
 40
1
 10
314.784200
 20
49.212640
 30
0.0
 10
315.428723
 20
49.212640
 30
0.0
 10
316.542793
 20
49.212640
 30
0.0
 10
317.187316
 20
49.212640
 30
0.0
  0
SPLINE
  5
129
100
AcDbEntity
  8
0
 62
1
100
AcDbSpline
 70
8
 71
3
 72
8
 73
4
 74
0
 40
0
 40
0
 40
0
 40
0
 40
1
 40
1
 40
1
 40
1
 10
317.187316
 20
49.212640
 30
0.0
 10
317.319960
 20
49.212640
 30
0.0
 10
317.446960
 20
49.160076
 30
0.0
 10
317.540799
 20
49.066238
 30
0.0
  0
SPLINE
  5
12a
100
AcDbEntity
  8
0
 62
1
100
AcDbSpline
 70
8
 71
3
 72
8
 73
4
 74
0
 40
0
 40
0
 40
0
 40
0
 40
1
 40
1
 40
1
 40
1
 10
317.540799
 20
49.066238
 30
0.0
 10
317.634637
 20
48.972399
 30
0.0
 10
317.687201
 20
48.845399
 30
0.0
 10
317.687201
 20
48.712755
 30
0.0
  0
SPLINE
  5
12b
100
AcDbEntity
  8
0
 62
1
100
AcDbSpline
 70
8
 71
3
 72
8
 73
4
 74
0
 40
0
 40
0
 40
0
 40
0
 40
1
 40
1
 40
1
 40
1
 10
317.687201
 20
48.712755
 30
0.0
 10
317.687201
 20
47.923593
 30
0.0
 10
317.687201
 20
46.478267
 30
0.0
 10
317.687201
 20
46.478267
 30
0.0
  0
SPLINE
  5
12c
100
AcDbEntity
  8
0
 62
1
100
AcDbSpline
 70
8
 71
3
 72
8
 73
4
 74
0
 40
0
 40
0
 40
0
 40
0
 40
1
 40
1
 40
1
 40
1
 10
317.687201
 20
46.478267
 30
0.0
 10
317.687201
 20
46.202042
 30
0.0
 10
317.463188
 20
45.978382
 30
0.0
 10
317.187316
 20
45.978382
 30
0.0
  0
SPLINE
  5
12d
100
AcDbEntity
  8
0
 62
1
100
AcDbSpline
 70
8
 71
3
 72
8
 73
4
 74
0
 40
0
 40
0
 40
0
 40
0
 40
1
 40
1
 40
1
 40
1
 10
317.187316
 20
45.978382
 30
0.0
 10
315.926492
 20
45.978382
 30
0.0
 10
312.717280
 20
45.978382
 30
0.0
 10
312.717280
 20
45.978382
 30
0.0
  0
LWPOLYLINE
  5
12e
100
AcDbEntity
  8
0
 62
1
100
AcDbPolyline
 90
43
 70
0
 10
32.312917
 20
98.141032
 30
0.0
 10
32.318914
 20
98.298018
 30
0.0
 10
32.336906
 20
98.454298
 30
0.0
 10
32.367950
 20
98.608108
 30
0.0
 10
32.409931
 20
98.760155
 30
0.0
 10
32.464964
 20
98.907263
 30
0.0
 10
32.529875
 20
99.049080
 30
0.0
 10
32.606780
 20
99.186310
 30
0.0
 10
32.693916
 20
99.317190
 30
0.0
 10
32.791988
 20
99.440309
 30
0.0
 10
32.897821
 20
99.556020
 30
0.0
 10
33.013885
 20
99.662206
 30
0.0
 10
33.137004
 20
99.760278
 30
0.0
 10
33.267884
 20
99.847061
 30
0.0
 10
33.404762
 20
99.924319
 30
0.0
 10
33.546931
 20
99.989230
 30
0.0
 10
33.694039
 20
100.044263
 30
0.0
 10
33.845733
 20
100.086244
 30
0.0
 10
33.999896
 20
100.117288
 30
0.0
 10
34.155824
 20
100.135280
 30
0.0
 10
34.312809
 20
100.142335
 30
0.0
 10
315.687309
 20
100.141277
 30
0.0
 10
315.843236
 20
100.135280
 30
0.0
 10
315.999164
 20
100.117288
 30
0.0
 10
316.153327
 20
100.086244
 30
0.0
 10
316.306080
 20
100.044263
 30
0.0
 10
316.452129
 20
99.989230
 30
0.0
 10
316.594298
 20
99.924319
 30
0.0
 10
316.731176
 20
99.847061
 30
0.0
 10
316.862056
 20
99.760278
 30
0.0
 10
316.985175
 20
99.662206
 30
0.0
 10
317.101239
 20
99.556020
 30
0.0
 10
317.207072
 20
99.440309
 30
0.0
 10
317.306202
 20
99.317190
 30
0.0
 10
317.392280
 20
99.186310
 30
0.0
 10
317.469185
 20
99.049080
 30
0.0
 10
317.534096
 20
98.907263
 30
0.0
 10
317.589129
 20
98.760155
 30
0.0
 10
317.631110
 20
98.608108
 30
0.0
 10
317.662154
 20
98.454298
 30
0.0
 10
317.681204
 20
98.298018
 30
0.0
 10
317.687201
 20
98.141032
 30
0.0
 10
317.687201
 20
61.073705
 30
0.0
  0
SPLINE
  5
12f
100
AcDbEntity
  8
0
 62
1
100
AcDbSpline
 70
8
 71
3
 72
8
 73
4
 74
0
 40
0
 40
0
 40
0
 40
0
 40
1
 40
1
 40
1
 40
1
 10
299.466980
 20
40.619348
 30
0.0
 10
299.192872
 20
40.619348
 30
0.0
 10
298.967095
 20
40.393571
 30
0.0
 10
298.967095
 20
40.119463
 30
0.0
  0
LWPOLYLINE
  5
130
100
AcDbEntity
  8
0
 62
1
100
AcDbPolyline
 90
3
 70
0
 10
312.717280
 20
45.978382
 30
0.0
 10
312.717280
 20
40.619348
 30
0.0
 10
299.466980
 20
40.619348
 30
0.0
  0
SPLINE
  5
131
100
AcDbEntity
  8
0
 62
1
100
AcDbSpline
 70
8
 71
3
 72
8
 73
4
 74
0
 40
0
 40
0
 40
0
 40
0
 40
1
 40
1
 40
1
 40
1
 10
298.967095
 20
27.119282
 30
0.0
 10
298.967095
 20
26.845174
 30
0.0
 10
299.192872
 20
26.619397
 30
0.0
 10
299.466980
 20
26.619397
 30
0.0
  0
LWPOLYLINE
  5
132
100
AcDbEntity
  8
0
 62
1
100
AcDbPolyline
 90
2
 70
0
 10
298.967095
 20
40.119463
 30
0.0
 10
298.967095
 20
27.119282
 30
0.0
  0
SPLINE
  5
133
100
AcDbEntity
  8
0
 62
1
100
AcDbSpline
 70
8
 71
3
 72
8
 73
4
 74
0
 40
0
 40
0
 40
0
 40
0
 40
1
 40
1
 40
1
 40
1
 10
314.848053
 20
26.619397
 30
0.0
 10
315.122513
 20
26.619397
 30
0.0
 10
315.348290
 20
26.845174
 30
0.0
 10
315.348290
 20
27.119282
 30
0.0
  0
LWPOLYLINE
  5
134
100
AcDbEntity
  8
0
 62
1
100
AcDbPolyline
 90
2
 70
0
 10
299.466980
 20
26.619397
 30
0.0
 10
314.848053
 20
26.619397
 30
0.0
  0
SPLINE
  5
135
100
AcDbEntity
  8
0
 62
1
100
AcDbSpline
 70
8
 71
3
 72
8
 73
4
 74
0
 40
0
 40
0
 40
0
 40
0
 40
1
 40
1
 40
1
 40
1
 10
68.486307
 20
21.569395
 30
0.0
 10
68.212200
 20
21.569395
 30
0.0
 10
67.986423
 20
21.343618
 30
0.0
 10
67.986423
 20
21.069511
 30
0.0
  0
LWPOLYLINE
  5
136
100
AcDbEntity
  8
0
 62
1
100
AcDbPolyline
 90
2
 70
0
 10
315.348290
 20
27.119282
 30
0.0
 10
315.348290
 20
40.619348
 30
0.0
  0
SPLINE
  5
137
100
AcDbEntity
  8
0
 62
1
100
AcDbSpline
 70
8
 71
3
 72
8
 73
4
 74
0
 40
0
 40
0
 40
0
 40
0
 40
1
 40
1
 40
1
 40
1
 10
67.986423
 20
8.069329
 30
0.0
 10
67.986423
 20
7.795222
 30
0.0
 10
68.212200
 20
7.569444
 30
0.0
 10
68.486307
 20
7.569444
 30
0.0
  0
LWPOLYLINE
  5
138
100
AcDbEntity
  8
0
 62
1
100
AcDbPolyline
 90
2
 70
0
 10
67.986423
 20
21.069511
 30
0.0
 10
67.986423
 20
8.069329
 30
0.0
  0
SPLINE
  5
139
100
AcDbEntity
  8
0
 62
1
100
AcDbSpline
 70
8
 71
3
 72
8
 73
4
 74
0
 40
0
 40
0
 40
0
 40
0
 40
1
 40
1
 40
1
 40
1
 10
83.867380
 20
7.569444
 30
0.0
 10
84.141840
 20
7.569444
 30
0.0
 10
84.367618
 20
7.795222
 30
0.0
 10
84.367618
 20
8.069329
 30
0.0
  0
LWPOLYLINE
  5
13a
100
AcDbEntity
  8
0
 62
1
100
AcDbPolyline
 90
2
 70
0
 10
68.486307
 20
7.569444
 30
0.0
 10
83.867380
 20
7.569444
 30
0.0
  0
SPLINE
  5
13b
100
AcDbEntity
  8
0
 62
1
100
AcDbSpline
 70
8
 71
3
 72
8
 73
4
 74
0
 40
0
 40
0
 40
0
 40
0
 40
1
 40
1
 40
1
 40
1
 10
84.367618
 20
21.069511
 30
0.0
 10
84.367618
 20
21.343618
 30
0.0
 10
84.141840
 20
21.569395
 30
0.0
 10
83.867380
 20
21.569395
 30
0.0
  0
LWPOLYLINE
  5
13c
100
AcDbEntity
  8
0
 62
1
100
AcDbPolyline
 90
2
 70
0
 10
84.367618
 20
8.069329
 30
0.0
 10
84.367618
 20
21.069511
 30
0.0
  0
SPLINE
  5
13d
100
AcDbEntity
  8
0
 62
1
100
AcDbSpline
 70
8
 71
3
 72
8
 73
4
 74
0
 40
0
 40
0
 40
0
 40
0
 40
1
 40
1
 40
1
 40
1
 10
92.298748
 20
21.569395
 30
0.0
 10
92.024640
 20
21.569395
 30
0.0
 10
91.798863
 20
21.343618
 30
0.0
 10
91.798863
 20
21.069511
 30
0.0
  0
LWPOLYLINE
  5
13e
100
AcDbEntity
  8
0
 62
1
100
AcDbPolyline
 90
3
 70
0
 10
83.867380
 20
21.569395
 30
0.0
 10
68.486307
 20
21.569395
 30
0.0
 10
68.486307
 20
21.569395
 30
0.0
  0
SPLINE
  5
13f
100
AcDbEntity
  8
0
 62
1
100
AcDbSpline
 70
8
 71
3
 72
8
 73
4
 74
0
 40
0
 40
0
 40
0
 40
0
 40
1
 40
1
 40
1
 40
1
 10
91.798863
 20
8.069329
 30
0.0
 10
91.798863
 20
7.795222
 30
0.0
 10
92.024640
 20
7.569444
 30
0.0
 10
92.298748
 20
7.569444
 30
0.0
  0
LWPOLYLINE
  5
140
100
AcDbEntity
  8
0
 62
1
100
AcDbPolyline
 90
2
 70
0
 10
91.798863
 20
21.069511
 30
0.0
 10
91.798863
 20
8.069329
 30
0.0
  0
SPLINE
  5
141
100
AcDbEntity
  8
0
 62
1
100
AcDbSpline
 70
8
 71
3
 72
8
 73
4
 74
0
 40
0
 40
0
 40
0
 40
0
 40
1
 40
1
 40
1
 40
1
 10
110.061065
 20
7.569444
 30
0.0
 10
110.335525
 20
7.569444
 30
0.0
 10
110.561302
 20
7.795222
 30
0.0
 10
110.561302
 20
8.069329
 30
0.0
  0
LWPOLYLINE
  5
142
100
AcDbEntity
  8
0
 62
1
100
AcDbPolyline
 90
2
 70
0
 10
92.298748
 20
7.569444
 30
0.0
 10
110.061065
 20
7.569444
 30
0.0
  0
SPLINE
  5
143
100
AcDbEntity
  8
0
 62
1
100
AcDbSpline
 70
8
 71
3
 72
8
 73
4
 74
0
 40
0
 40
0
 40
0
 40
0
 40
1
 40
1
 40
1
 40
1
 10
110.561302
 20
21.069511
 30
0.0
 10
110.561302
 20
21.343618
 30
0.0
 10
110.335525
 20
21.569395
 30
0.0
 10
110.061065
 20
21.569395
 30
0.0
  0
LWPOLYLINE
  5
144
100
AcDbEntity
  8
0
 62
1
100
AcDbPolyline
 90
2
 70
0
 10
110.561302
 20
8.069329
 30
0.0
 10
110.561302
 20
21.069511
 30
0.0
  0
LWPOLYLINE
  5
145
100
AcDbEntity
  8
0
 62
1
100
AcDbPolyline
 90
3
 70
0
 10
110.061065
 20
21.569395
 30
0.0
 10
92.298748
 20
21.569395
 30
0.0
 10
92.298748
 20
21.569395
 30
0.0
  0
SPLINE
  5
146
100
AcDbEntity
  8
0
 62
1
100
AcDbSpline
 70
8
 71
3
 72
8
 73
4
 74
0
 40
0
 40
0
 40
0
 40
0
 40
1
 40
1
 40
1
 40
1
 10
296.298338
 20
21.069511
 30
0.0
 10
296.298338
 20
21.343618
 30
0.0
 10
296.072561
 20
21.569395
 30
0.0
 10
295.798100
 20
21.569395
 30
0.0
  0
LWPOLYLINE
  5
147
100
AcDbEntity
  8
0
 62
1
100
AcDbPolyline
 90
2
 70
0
 10
296.298338
 20
16.110526
 30
0.0
 10
296.298338
 20
21.069511
 30
0.0
  0
SPLINE
  5
148
100
AcDbEntity
  8
0
 62
1
100
AcDbSpline
 70
8
 71
3
 72
8
 73
4
 74
0
 40
0
 40
0
 40
0
 40
0
 40
1
 40
1
 40
1
 40
1
 10
282.798272
 20
21.569395
 30
0.0
 10
282.524164
 20
21.569395
 30
0.0
 10
282.298387
 20
21.343618
 30
0.0
 10
282.298387
 20
21.069511
 30
0.0
  0
LWPOLYLINE
  5
149
100
AcDbEntity
  8
0
 62
1
100
AcDbPolyline
 90
2
 70
0
 10
295.798100
 20
21.569395
 30
0.0
 10
282.798272
 20
21.569395
 30
0.0
  0
SPLINE
  5
14a
100
AcDbEntity
  8
0
 62
1
100
AcDbSpline
 70
8
 71
3
 72
8
 73
4
 74
0
 40
0
 40
0
 40
0
 40
0
 40
1
 40
1
 40
1
 40
1
 10
282.298387
 20
16.283739
 30
0.0
 10
281.896221
 20
15.840299
 30
0.0
 10
281.651041
 20
15.251514
 30
0.0
 10
281.651041
 20
14.606285
 30
0.0
  0
SPLINE
  5
14b
100
AcDbEntity
  8
0
 62
1
100
AcDbSpline
 70
8
 71
3
 72
8
 73
4
 74
0
 40
0
 40
0
 40
0
 40
0
 40
1
 40
1
 40
1
 40
1
 10
281.651041
 20
14.606285
 30
0.0
 10
281.651041
 20
13.961056
 30
0.0
 10
281.896221
 20
13.372271
 30
0.0
 10
282.298387
 20
12.928831
 30
0.0
  0
LWPOLYLINE
  5
14c
100
AcDbEntity
  8
0
 62
1
100
AcDbPolyline
 90
2
 70
0
 10
282.298387
 20
21.069511
 30
0.0
 10
282.298387
 20
16.283739
 30
0.0
  0
SPLINE
  5
14d
100
AcDbEntity
  8
0
 62
1
100
AcDbSpline
 70
8
 71
3
 72
8
 73
4
 74
0
 40
0
 40
0
 40
0
 40
0
 40
1
 40
1
 40
1
 40
1
 10
282.298387
 20
8.069329
 30
0.0
 10
282.298387
 20
7.795222
 30
0.0
 10
282.524164
 20
7.569444
 30
0.0
 10
282.798272
 20
7.569444
 30
0.0
  0
LWPOLYLINE
  5
14e
100
AcDbEntity
  8
0
 62
1
100
AcDbPolyline
 90
2
 70
0
 10
282.298387
 20
12.928831
 30
0.0
 10
282.298387
 20
8.069329
 30
0.0
  0
SPLINE
  5
14f
100
AcDbEntity
  8
0
 62
1
100
AcDbSpline
 70
8
 71
3
 72
8
 73
4
 74
0
 40
0
 40
0
 40
0
 40
0
 40
1
 40
1
 40
1
 40
1
 10
295.798100
 20
7.569444
 30
0.0
 10
296.072561
 20
7.569444
 30
0.0
 10
296.298338
 20
7.795222
 30
0.0
 10
296.298338
 20
8.069329
 30
0.0
  0
LWPOLYLINE
  5
150
100
AcDbEntity
  8
0
 62
1
100
AcDbPolyline
 90
2
 70
0
 10
282.798272
 20
7.569444
 30
0.0
 10
295.798100
 20
7.569444
 30
0.0
  0
SPLINE
  5
151
100
AcDbEntity
  8
0
 62
1
100
AcDbSpline
 70
8
 71
3
 72
8
 73
4
 74
0
 40
0
 40
0
 40
0
 40
0
 40
1
 40
1
 40
1
 40
1
 10
296.298338
 20
13.102397
 30
0.0
 10
296.614426
 20
13.521143
 30
0.0
 10
296.801750
 20
14.042195
 30
0.0
 10
296.801750
 20
14.606638
 30
0.0
  0
SPLINE
  5
152
100
AcDbEntity
  8
0
 62
1
100
AcDbSpline
 70
8
 71
3
 72
8
 73
4
 74
0
 40
0
 40
0
 40
0
 40
0
 40
1
 40
1
 40
1
 40
1
 10
296.801750
 20
14.606638
 30
0.0
 10
296.801750
 20
15.171081
 30
0.0
 10
296.614426
 20
15.692132
 30
0.0
 10
296.298338
 20
16.110526
 30
0.0
  0
LWPOLYLINE
  5
153
100
AcDbEntity
  8
0
 62
1
100
AcDbPolyline
 90
2
 70
0
 10
296.298338
 20
8.069329
 30
0.0
 10
296.298338
 20
13.102397
 30
0.0
  0
LWPOLYLINE
  5
154
100
AcDbEntity
  8
0
 62
1
100
AcDbPolyline
 90
1
 70
1
 10
296.298338
 20
16.110526
 30
0.0
  0
SPLINE
  5
155
100
AcDbEntity
  8
0
 62
1
100
AcDbSpline
 70
8
 71
3
 72
8
 73
4
 74
0
 40
0
 40
0
 40
0
 40
0
 40
1
 40
1
 40
1
 40
1
 10
168.941645
 20
23.069403
 30
0.0
 10
168.941645
 20
23.343510
 30
0.0
 10
168.716221
 20
23.569288
 30
0.0
 10
168.441760
 20
23.569288
 30
0.0
  0
LWPOLYLINE
  5
156
100
AcDbEntity
  8
0
 62
1
100
AcDbPolyline
 90
3
 70
0
 10
183.436542
 20
21.569395
 30
0.0
 10
168.941645
 20
21.569395
 30
0.0
 10
168.941645
 20
23.069403
 30
0.0
  0
SPLINE
  5
157
100
AcDbEntity
  8
0
 62
1
100
AcDbSpline
 70
8
 71
3
 72
8
 73
4
 74
0
 40
0
 40
0
 40
0
 40
0
 40
1
 40
1
 40
1
 40
1
 10
159.992401
 20
23.564702
 30
0.0
 10
159.964884
 20
23.560821
 30
0.0
 10
159.938426
 20
23.554824
 30
0.0
 10
159.912673
 20
23.546710
 30
0.0
  0
LWPOLYLINE
  5
158
100
AcDbEntity
  8
0
 62
1
100
AcDbPolyline
 90
3
 70
0
 10
168.441760
 20
23.569288
 30
0.0
 10
160.060487
 20
23.569288
 30
0.0
 10
159.992401
 20
23.564702
 30
0.0
  0
SPLINE
  5
159
100
AcDbEntity
  8
0
 62
1
100
AcDbSpline
 70
8
 71
3
 72
8
 73
4
 74
0
 40
0
 40
0
 40
0
 40
0
 40
1
 40
1
 40
1
 40
1
 10
159.878101
 20
23.534363
 30
0.0
 10
159.806135
 20
23.505788
 30
0.0
 10
159.742282
 20
23.461338
 30
0.0
 10
159.691129
 20
23.404894
 30
0.0
  0
LWPOLYLINE
  5
15a
100
AcDbEntity
  8
0
 62
1
100
AcDbPolyline
 90
2
 70
0
 10
159.912673
 20
23.546710
 30
0.0
 10
159.878101
 20
23.534363
 30
0.0
  0
SPLINE
  5
15b
100
AcDbEntity
  8
0
 62
1
100
AcDbSpline
 70
8
 71
3
 72
8
 73
4
 74
0
 40
0
 40
0
 40
0
 40
0
 40
1
 40
1
 40
1
 40
1
 10
159.610343
 20
23.285302
 30
0.0
 10
159.583532
 20
23.229916
 30
0.0
 10
159.566599
 20
23.168886
 30
0.0
 10
159.562013
 20
23.104680
 30
0.0
  0
LWPOLYLINE
  5
15c
100
AcDbEntity
  8
0
 62
1
100
AcDbPolyline
 90
3
 70
0
 10
159.691129
 20
23.404894
 30
0.0
 10
159.647385
 20
23.347744
 30
0.0
 10
159.610343
 20
23.285302
 30
0.0
  0
SPLINE
  5
15d
100
AcDbEntity
  8
0
 62
1
100
AcDbSpline
 70
8
 71
3
 72
8
 73
4
 74
0
 40
0
 40
0
 40
0
 40
0
 40
1
 40
1
 40
1
 40
1
 10
159.560602
 20
9.069452
 30
0.0
 10
159.560602
 20
9.028530
 30
0.0
 10
159.565541
 20
8.988313
 30
0.0
 10
159.575066
 20
8.950213
 30
0.0
  0
LWPOLYLINE
  5
15e
100
AcDbEntity
  8
0
 62
1
100
AcDbPolyline
 90
3
 70
0
 10
159.562013
 20
23.104680
 30
0.0
 10
159.560602
 20
23.069403
 30
0.0
 10
159.560602
 20
9.069452
 30
0.0
  0
SPLINE
  5
15f
100
AcDbEntity
  8
0
 62
1
100
AcDbSpline
 70
8
 71
3
 72
8
 73
4
 74
0
 40
0
 40
0
 40
0
 40
0
 40
1
 40
1
 40
1
 40
1
 10
159.618457
 20
8.836972
 30
0.0
 10
159.632568
 20
8.810513
 30
0.0
 10
159.649149
 20
8.785114
 30
0.0
 10
159.667846
 20
8.761477
 30
0.0
  0
LWPOLYLINE
  5
160
100
AcDbEntity
  8
0
 62
1
100
AcDbPolyline
 90
3
 70
0
 10
159.575066
 20
8.950213
 30
0.0
 10
159.612813
 20
8.848613
 30
0.0
 10
159.618457
 20
8.836972
 30
0.0
  0
SPLINE
  5
161
100
AcDbEntity
  8
0
 62
1
100
AcDbSpline
 70
8
 71
3
 72
8
 73
4
 74
0
 40
0
 40
0
 40
0
 40
0
 40
1
 40
1
 40
1
 40
1
 10
168.029011
 20
7.898232
 30
0.0
 10
168.040653
 20
7.866835
 30
0.0
 10
168.055470
 20
7.836496
 30
0.0
 10
168.073108
 20
7.808274
 30
0.0
  0
LWPOLYLINE
  5
162
100
AcDbEntity
  8
0
 62
1
100
AcDbPolyline
 90
11
 70
0
 10
159.667846
 20
8.761477
 30
0.0
 10
159.734168
 20
8.691980
 30
0.0
 10
159.791671
 20
8.648942
 30
0.0
 10
159.840354
 20
8.622836
 30
0.0
 10
159.912673
 20
8.592145
 30
0.0
 10
159.984993
 20
8.575211
 30
0.0
 10
160.060487
 20
8.569567
 30
0.0
 10
167.998673
 20
8.569567
 30
0.0
 10
167.998673
 20
8.069329
 30
0.0
 10
168.004317
 20
7.993835
 30
0.0
 10
168.029011
 20
7.898232
 30
0.0
  0
SPLINE
  5
163
100
AcDbEntity
  8
0
 62
1
100
AcDbSpline
 70
8
 71
3
 72
8
 73
4
 74
0
 40
0
 40
0
 40
0
 40
0
 40
1
 40
1
 40
1
 40
1
 10
168.136961
 20
7.725725
 30
0.0
 10
168.171180
 20
7.689741
 30
0.0
 10
168.210339
 20
7.659050
 30
0.0
 10
168.253377
 20
7.634355
 30
0.0
  0
LWPOLYLINE
  5
164
100
AcDbEntity
  8
0
 62
1
100
AcDbPolyline
 90
3
 70
0
 10
168.073108
 20
7.808274
 30
0.0
 10
168.077695
 20
7.800866
 30
0.0
 10
168.136961
 20
7.725725
 30
0.0
  0
SPLINE
  5
165
100
AcDbEntity
  8
0
 62
1
100
AcDbSpline
 70
8
 71
3
 72
8
 73
4
 74
0
 40
0
 40
0
 40
0
 40
0
 40
1
 40
1
 40
1
 40
1
 10
168.398369
 20
7.579675
 30
0.0
 10
168.430824
 20
7.572972
 30
0.0
 10
168.464338
 20
7.569444
 30
0.0
 10
168.498557
 20
7.569444
 30
0.0
  0
LWPOLYLINE
  5
166
100
AcDbEntity
  8
0
 62
1
100
AcDbPolyline
 90
3
 70
0
 10
168.253377
 20
7.634355
 30
0.0
 10
168.304883
 20
7.608955
 30
0.0
 10
168.398369
 20
7.579675
 30
0.0
  0
SPLINE
  5
167
100
AcDbEntity
  8
0
 62
1
100
AcDbSpline
 70
8
 71
3
 72
8
 73
4
 74
0
 40
0
 40
0
 40
0
 40
0
 40
1
 40
1
 40
1
 40
1
 10
183.879630
 20
7.569444
 30
0.0
 10
184.154090
 20
7.569444
 30
0.0
 10
184.379868
 20
7.795222
 30
0.0
 10
184.379868
 20
8.069329
 30
0.0
  0
LWPOLYLINE
  5
168
100
AcDbEntity
  8
0
 62
1
100
AcDbPolyline
 90
2
 70
0
 10
168.498557
 20
7.569444
 30
0.0
 10
183.879630
 20
7.569444
 30
0.0
  0
SPLINE
  5
169
100
AcDbEntity
  8
0
 62
1
100
AcDbSpline
 70
8
 71
3
 72
8
 73
4
 74
0
 40
0
 40
0
 40
0
 40
0
 40
1
 40
1
 40
1
 40
1
 10
192.317701
 20
8.569567
 30
0.0
 10
192.592161
 20
8.569567
 30
0.0
 10
192.817585
 20
8.794991
 30
0.0
 10
192.817585
 20
9.069452
 30
0.0
  0
LWPOLYLINE
  5
16a
100
AcDbEntity
  8
0
 62
1
100
AcDbPolyline
 90
3
 70
0
 10
184.379868
 20
8.069329
 30
0.0
 10
184.379868
 20
8.569567
 30
0.0
 10
192.317701
 20
8.569567
 30
0.0
  0
SPLINE
  5
16b
100
AcDbEntity
  8
0
 62
1
100
AcDbSpline
 70
8
 71
3
 72
8
 73
4
 74
0
 40
0
 40
0
 40
0
 40
0
 40
1
 40
1
 40
1
 40
1
 10
192.817585
 20
23.069403
 30
0.0
 10
192.817585
 20
23.343510
 30
0.0
 10
192.592161
 20
23.569288
 30
0.0
 10
192.317701
 20
23.569288
 30
0.0
  0
LWPOLYLINE
  5
16c
100
AcDbEntity
  8
0
 62
1
100
AcDbPolyline
 90
2
 70
0
 10
192.817585
 20
9.069452
 30
0.0
 10
192.817585
 20
23.069403
 30
0.0
  0
SPLINE
  5
16d
100
AcDbEntity
  8
0
 62
1
100
AcDbSpline
 70
8
 71
3
 72
8
 73
4
 74
0
 40
0
 40
0
 40
0
 40
0
 40
1
 40
1
 40
1
 40
1
 10
183.707828
 20
23.513196
 30
0.0
 10
183.672550
 20
23.494852
 30
0.0
 10
183.639742
 20
23.472627
 30
0.0
 10
183.610108
 20
23.446874
 30
0.0
  0
LWPOLYLINE
  5
16e
100
AcDbEntity
  8
0
 62
1
100
AcDbPolyline
 90
5
 70
0
 10
192.317701
 20
23.569288
 30
0.0
 10
183.936427
 20
23.569288
 30
0.0
 10
183.871163
 20
23.564702
 30
0.0
 10
183.788614
 20
23.546710
 30
0.0
 10
183.707828
 20
23.513196
 30
0.0
  0
SPLINE
  5
16f
100
AcDbEntity
  8
0
 62
1
100
AcDbSpline
 70
8
 71
3
 72
8
 73
4
 74
0
 40
0
 40
0
 40
0
 40
0
 40
1
 40
1
 40
1
 40
1
 10
183.459120
 20
23.217216
 30
0.0
 10
183.446773
 20
23.178411
 30
0.0
 10
183.439364
 20
23.137136
 30
0.0
 10
183.437248
 20
23.094803
 30
0.0
  0
LWPOLYLINE
  5
170
100
AcDbEntity
  8
0
 62
1
100
AcDbPolyline
 90
5
 70
0
 10
183.610108
 20
23.446874
 30
0.0
 10
183.558956
 20
23.395721
 30
0.0
 10
183.522267
 20
23.348097
 30
0.0
 10
183.476053
 20
23.263077
 30
0.0
 10
183.459120
 20
23.217216
 30
0.0
  0
SPLINE
  5
171
100
AcDbEntity
  8
0
 62
1
100
AcDbSpline
 70
8
 71
3
 72
8
 73
4
 74
0
 40
0
 40
0
 40
0
 40
0
 40
1
 40
1
 40
1
 40
1
 10
35.148891
 20
21.569395
 30
0.0
 10
34.874783
 20
21.569395
 30
0.0
 10
34.649006
 20
21.343618
 30
0.0
 10
34.649006
 20
21.069511
 30
0.0
  0
LWPOLYLINE
  5
172
100
AcDbEntity
  8
0
 62
1
100
AcDbPolyline
 90
4
 70
0
 10
183.437248
 20
23.094803
 30
0.0
 10
183.436542
 20
23.082103
 30
0.0
 10
183.436542
 20
21.569395
 30
0.0
 10
183.436542
 20
21.569395
 30
0.0
  0
SPLINE
  5
173
100
AcDbEntity
  8
0
 62
1
100
AcDbSpline
 70
8
 71
3
 72
8
 73
4
 74
0
 40
0
 40
0
 40
0
 40
0
 40
1
 40
1
 40
1
 40
1
 10
34.649006
 20
16.284092
 30
0.0
 10
34.246840
 20
15.840299
 30
0.0
 10
34.001660
 20
15.251867
 30
0.0
 10
34.001660
 20
14.606638
 30
0.0
  0
SPLINE
  5
174
100
AcDbEntity
  8
0
 62
1
100
AcDbSpline
 70
8
 71
3
 72
8
 73
4
 74
0
 40
0
 40
0
 40
0
 40
0
 40
1
 40
1
 40
1
 40
1
 10
34.001660
 20
14.606638
 30
0.0
 10
34.001660
 20
13.961056
 30
0.0
 10
34.246840
 20
13.372624
 30
0.0
 10
34.649006
 20
12.928831
 30
0.0
  0
LWPOLYLINE
  5
175
100
AcDbEntity
  8
0
 62
1
100
AcDbPolyline
 90
2
 70
0
 10
34.649006
 20
21.069511
 30
0.0
 10
34.649006
 20
16.284092
 30
0.0
  0
SPLINE
  5
176
100
AcDbEntity
  8
0
 62
1
100
AcDbSpline
 70
8
 71
3
 72
8
 73
4
 74
0
 40
0
 40
0
 40
0
 40
0
 40
1
 40
1
 40
1
 40
1
 10
34.649006
 20
8.069329
 30
0.0
 10
34.649006
 20
7.795222
 30
0.0
 10
34.874783
 20
7.569444
 30
0.0
 10
35.148891
 20
7.569444
 30
0.0
  0
LWPOLYLINE
  5
177
100
AcDbEntity
  8
0
 62
1
100
AcDbPolyline
 90
2
 70
0
 10
34.649006
 20
12.928831
 30
0.0
 10
34.649006
 20
8.069329
 30
0.0
  0
SPLINE
  5
178
100
AcDbEntity
  8
0
 62
1
100
AcDbSpline
 70
8
 71
3
 72
8
 73
4
 74
0
 40
0
 40
0
 40
0
 40
0
 40
1
 40
1
 40
1
 40
1
 10
55.292451
 20
7.569444
 30
0.0
 10
55.566912
 20
7.569444
 30
0.0
 10
55.792689
 20
7.795222
 30
0.0
 10
55.792689
 20
8.069329
 30
0.0
  0
LWPOLYLINE
  5
179
100
AcDbEntity
  8
0
 62
1
100
AcDbPolyline
 90
2
 70
0
 10
35.148891
 20
7.569444
 30
0.0
 10
55.292451
 20
7.569444
 30
0.0
  0
SPLINE
  5
17a
100
AcDbEntity
  8
0
 62
1
100
AcDbSpline
 70
8
 71
3
 72
8
 73
4
 74
0
 40
0
 40
0
 40
0
 40
0
 40
1
 40
1
 40
1
 40
1
 10
55.792689
 20
12.118150
 30
0.0
 10
57.059511
 20
12.239505
 30
0.0
 10
58.051872
 20
13.308066
 30
0.0
 10
58.051872
 20
14.606638
 30
0.0
  0
SPLINE
  5
17b
100
AcDbEntity
  8
0
 62
1
100
AcDbSpline
 70
8
 71
3
 72
8
 73
4
 74
0
 40
0
 40
0
 40
0
 40
0
 40
1
 40
1
 40
1
 40
1
 10
58.051872
 20
14.606638
 30
0.0
 10
58.051872
 20
15.905210
 30
0.0
 10
57.059511
 20
16.973771
 30
0.0
 10
55.792689
 20
17.095126
 30
0.0
  0
LWPOLYLINE
  5
17c
100
AcDbEntity
  8
0
 62
1
100
AcDbPolyline
 90
2
 70
0
 10
55.792689
 20
8.069329
 30
0.0
 10
55.792689
 20
12.118150
 30
0.0
  0
SPLINE
  5
17d
100
AcDbEntity
  8
0
 62
1
100
AcDbSpline
 70
8
 71
3
 72
8
 73
4
 74
0
 40
0
 40
0
 40
0
 40
0
 40
1
 40
1
 40
1
 40
1
 10
55.792689
 20
21.069511
 30
0.0
 10
55.792689
 20
21.343618
 30
0.0
 10
55.566912
 20
21.569395
 30
0.0
 10
55.292451
 20
21.569395
 30
0.0
  0
LWPOLYLINE
  5
17e
100
AcDbEntity
  8
0
 62
1
100
AcDbPolyline
 90
2
 70
0
 10
55.792689
 20
17.095126
 30
0.0
 10
55.792689
 20
21.069511
 30
0.0
  0
LWPOLYLINE
  5
17f
100
AcDbEntity
  8
0
 62
1
100
AcDbPolyline
 90
3
 70
0
 10
55.292451
 20
21.569395
 30
0.0
 10
35.148891
 20
21.569395
 30
0.0
 10
35.148891
 20
21.569395
 30
0.0
  0
SPLINE
  5
180
100
AcDbEntity
  8
0
 62
1
100
AcDbSpline
 70
8
 71
3
 72
8
 73
4
 74
0
 40
0
 40
0
 40
0
 40
0
 40
1
 40
1
 40
1
 40
1
 10
199.454730
 20
7.569444
 30
0.0
 10
199.180622
 20
7.569444
 30
0.0
 10
198.954845
 20
7.795222
 30
0.0
 10
198.954845
 20
8.069329
 30
0.0
  0
LWPOLYLINE
  5
181
100
AcDbEntity
  8
0
 62
1
100
AcDbPolyline
 90
2
 70
0
 10
223.267170
 20
7.569444
 30
0.0
 10
199.454730
 20
7.569444
 30
0.0
  0
SPLINE
  5
182
100
AcDbEntity
  8
0
 62
1
100
AcDbSpline
 70
8
 71
3
 72
8
 73
4
 74
0
 40
0
 40
0
 40
0
 40
0
 40
1
 40
1
 40
1
 40
1
 10
198.160392
 20
8.569567
 30
0.0
 10
197.886284
 20
8.569567
 30
0.0
 10
197.660507
 20
8.794991
 30
0.0
 10
197.660507
 20
9.069452
 30
0.0
  0
LWPOLYLINE
  5
183
100
AcDbEntity
  8
0
 62
1
100
AcDbPolyline
 90
3
 70
0
 10
198.954845
 20
8.069329
 30
0.0
 10
198.954845
 20
8.569567
 30
0.0
 10
198.160392
 20
8.569567
 30
0.0
  0
SPLINE
  5
184
100
AcDbEntity
  8
0
 62
1
100
AcDbSpline
 70
8
 71
3
 72
8
 73
4
 74
0
 40
0
 40
0
 40
0
 40
0
 40
1
 40
1
 40
1
 40
1
 10
197.660507
 20
23.069403
 30
0.0
 10
197.660507
 20
23.343510
 30
0.0
 10
197.886284
 20
23.569288
 30
0.0
 10
198.160392
 20
23.569288
 30
0.0
  0
LWPOLYLINE
  5
185
100
AcDbEntity
  8
0
 62
1
100
AcDbPolyline
 90
2
 70
0
 10
197.660507
 20
9.069452
 30
0.0
 10
197.660507
 20
23.069403
 30
0.0
  0
SPLINE
  5
186
100
AcDbEntity
  8
0
 62
1
100
AcDbSpline
 70
8
 71
3
 72
8
 73
4
 74
0
 40
0
 40
0
 40
0
 40
0
 40
1
 40
1
 40
1
 40
1
 10
204.160421
 20
23.569288
 30
0.0
 10
204.434881
 20
23.569288
 30
0.0
 10
204.660306
 20
23.343510
 30
0.0
 10
204.660306
 20
23.069403
 30
0.0
  0
LWPOLYLINE
  5
187
100
AcDbEntity
  8
0
 62
1
100
AcDbPolyline
 90
2
 70
0
 10
198.160392
 20
23.569288
 30
0.0
 10
204.160421
 20
23.569288
 30
0.0
  0
SPLINE
  5
188
100
AcDbEntity
  8
0
 62
1
100
AcDbSpline
 70
8
 71
3
 72
8
 73
4
 74
0
 40
0
 40
0
 40
0
 40
0
 40
1
 40
1
 40
1
 40
1
 10
143.455278
 20
23.569288
 30
0.0
 10
143.322634
 20
23.569288
 30
0.0
 10
143.195635
 20
23.516724
 30
0.0
 10
143.101796
 20
23.422885
 30
0.0
  0
SPLINE
  5
189
100
AcDbEntity
  8
0
 62
1
100
AcDbSpline
 70
8
 71
3
 72
8
 73
4
 74
0
 40
0
 40
0
 40
0
 40
0
 40
1
 40
1
 40
1
 40
1
 10
143.101796
 20
23.422885
 30
0.0
 10
143.007957
 20
23.329047
 30
0.0
 10
142.955393
 20
23.202047
 30
0.0
 10
142.955393
 20
23.069403
 30
0.0
  0
SPLINE
  5
18a
100
AcDbEntity
  8
0
 62
1
100
AcDbSpline
 70
8
 71
3
 72
8
 73
4
 74
0
 40
0
 40
0
 40
0
 40
0
 40
1
 40
1
 40
1
 40
1
 10
142.955393
 20
23.069403
 30
0.0
 10
142.955393
 20
22.477090
 30
0.0
 10
142.955393
 20
21.569395
 30
0.0
 10
142.955393
 20
21.569395
 30
0.0
  0
LWPOLYLINE
  5
18b
100
AcDbEntity
  8
0
 62
1
100
AcDbPolyline
 90
3
 70
0
 10
204.660306
 20
23.069403
 30
0.0
 10
204.660306
 20
21.569395
 30
0.0
 10
219.598291
 20
21.569395
 30
0.0
  0
SPLINE
  5
18c
100
AcDbEntity
  8
0
 62
1
100
AcDbSpline
 70
8
 71
3
 72
8
 73
4
 74
0
 40
0
 40
0
 40
0
 40
0
 40
1
 40
1
 40
1
 40
1
 10
128.460496
 20
23.069403
 30
0.0
 10
128.460496
 20
23.343510
 30
0.0
 10
128.235072
 20
23.569288
 30
0.0
 10
127.960611
 20
23.569288
 30
0.0
  0
LWPOLYLINE
  5
18d
100
AcDbEntity
  8
0
 62
1
100
AcDbPolyline
 90
3
 70
0
 10
142.955393
 20
21.569395
 30
0.0
 10
128.460496
 20
21.569395
 30
0.0
 10
128.460496
 20
23.069403
 30
0.0
  0
SPLINE
  5
18e
100
AcDbEntity
  8
0
 62
1
100
AcDbSpline
 70
8
 71
3
 72
8
 73
4
 74
0
 40
0
 40
0
 40
0
 40
0
 40
1
 40
1
 40
1
 40
1
 10
119.352502
 20
23.514254
 30
0.0
 10
119.296058
 20
23.485327
 30
0.0
 10
119.245611
 20
23.445463
 30
0.0
 10
119.203983
 20
23.397838
 30
0.0
  0
SPLINE
  5
18f
100
AcDbEntity
  8
0
 62
1
100
AcDbSpline
 70
8
 71
3
 72
8
 73
4
 74
0
 40
0
 40
0
 40
0
 40
0
 40
1
 40
1
 40
1
 40
1
 10
119.203983
 20
23.397838
 30
0.0
 10
119.190578
 20
23.383021
 30
0.0
 10
119.178231
 20
23.367147
 30
0.0
 10
119.166942
 20
23.350566
 30
0.0
  0
LWPOLYLINE
  5
190
100
AcDbEntity
  8
0
 62
1
100
AcDbPolyline
 90
5
 70
0
 10
127.960611
 20
23.569288
 30
0.0
 10
119.579338
 20
23.569288
 30
0.0
 10
119.503844
 20
23.563643
 30
0.0
 10
119.439286
 20
23.549179
 30
0.0
 10
119.352502
 20
23.514254
 30
0.0
  0
SPLINE
  5
191
100
AcDbEntity
  8
0
 62
1
100
AcDbSpline
 70
8
 71
3
 72
8
 73
4
 74
0
 40
0
 40
0
 40
0
 40
0
 40
1
 40
1
 40
1
 40
1
 10
119.140131
 20
8.832033
 30
0.0
 10
119.159533
 20
8.796402
 30
0.0
 10
119.183170
 20
8.763594
 30
0.0
 10
119.209981
 20
8.733961
 30
0.0
  0
LWPOLYLINE
  5
192
100
AcDbEntity
  8
0
 62
1
100
AcDbPolyline
 90
9
 70
0
 10
119.166942
 20
23.350566
 30
0.0
 10
119.123903
 20
23.274366
 30
0.0
 10
119.097798
 20
23.197461
 30
0.0
 10
119.087214
 20
23.157244
 30
0.0
 10
119.079453
 20
23.069403
 30
0.0
 10
119.079453
 20
9.069452
 30
0.0
 10
119.085098
 20
8.993605
 30
0.0
 10
119.109086
 20
8.900824
 30
0.0
 10
119.140131
 20
8.832033
 30
0.0
  0
SPLINE
  5
193
100
AcDbEntity
  8
0
 62
1
100
AcDbSpline
 70
8
 71
3
 72
8
 73
4
 74
0
 40
0
 40
0
 40
0
 40
0
 40
1
 40
1
 40
1
 40
1
 10
119.243847
 20
8.700094
 30
0.0
 10
119.285828
 20
8.661642
 30
0.0
 10
119.334511
 20
8.630597
 30
0.0
 10
119.387427
 20
8.608372
 30
0.0
  0
LWPOLYLINE
  5
194
100
AcDbEntity
  8
0
 62
1
100
AcDbPolyline
 90
2
 70
0
 10
119.209981
 20
8.733961
 30
0.0
 10
119.243847
 20
8.700094
 30
0.0
  0
SPLINE
  5
195
100
AcDbEntity
  8
0
 62
1
100
AcDbSpline
 70
8
 71
3
 72
8
 73
4
 74
0
 40
0
 40
0
 40
0
 40
0
 40
1
 40
1
 40
1
 40
1
 10
127.587021
 20
7.816388
 30
0.0
 10
127.603954
 20
7.788166
 30
0.0
 10
127.623357
 20
7.761355
 30
0.0
 10
127.645229
 20
7.737013
 30
0.0
  0
LWPOLYLINE
  5
196
100
AcDbEntity
  8
0
 62
1
100
AcDbPolyline
 90
9
 70
0
 10
119.387427
 20
8.608372
 30
0.0
 10
119.496083
 20
8.576975
 30
0.0
 10
119.579338
 20
8.569567
 30
0.0
 10
127.517524
 20
8.569567
 30
0.0
 10
127.517524
 20
8.069329
 30
0.0
 10
127.521404
 20
8.006182
 30
0.0
 10
127.537279
 20
7.934921
 30
0.0
 10
127.555976
 20
7.878124
 30
0.0
 10
127.587021
 20
7.816388
 30
0.0
  0
SPLINE
  5
197
100
AcDbEntity
  8
0
 62
1
100
AcDbSpline
 70
8
 71
3
 72
8
 73
4
 74
0
 40
0
 40
0
 40
0
 40
0
 40
1
 40
1
 40
1
 40
1
 10
143.398481
 20
7.569444
 30
0.0
 10
143.672942
 20
7.569444
 30
0.0
 10
143.898719
 20
7.795222
 30
0.0
 10
143.898719
 20
8.069329
 30
0.0
  0
LWPOLYLINE
  5
198
100
AcDbEntity
  8
0
 62
1
100
AcDbPolyline
 90
8
 70
0
 10
127.645229
 20
7.737013
 30
0.0
 10
127.691090
 20
7.691858
 30
0.0
 10
127.755295
 20
7.644586
 30
0.0
 10
127.812445
 20
7.613894
 30
0.0
 10
127.905226
 20
7.582144
 30
0.0
 10
127.992009
 20
7.570150
 30
0.0
 10
128.017409
 20
7.569444
 30
0.0
 10
143.398481
 20
7.569444
 30
0.0
  0
SPLINE
  5
199
100
AcDbEntity
  8
0
 62
1
100
AcDbSpline
 70
8
 71
3
 72
8
 73
4
 74
0
 40
0
 40
0
 40
0
 40
0
 40
1
 40
1
 40
1
 40
1
 10
151.836552
 20
8.569567
 30
0.0
 10
152.111012
 20
8.569567
 30
0.0
 10
152.336437
 20
8.794991
 30
0.0
 10
152.336437
 20
9.069452
 30
0.0
  0
LWPOLYLINE
  5
19a
100
AcDbEntity
  8
0
 62
1
100
AcDbPolyline
 90
3
 70
0
 10
143.898719
 20
8.069329
 30
0.0
 10
143.898719
 20
8.569567
 30
0.0
 10
151.836552
 20
8.569567
 30
0.0
  0
SPLINE
  5
19b
100
AcDbEntity
  8
0
 62
1
100
AcDbSpline
 70
8
 71
3
 72
8
 73
4
 74
0
 40
0
 40
0
 40
0
 40
0
 40
1
 40
1
 40
1
 40
1
 10
152.336437
 20
23.069403
 30
0.0
 10
152.336437
 20
23.343510
 30
0.0
 10
152.111012
 20
23.569288
 30
0.0
 10
151.836552
 20
23.569288
 30
0.0
  0
LWPOLYLINE
  5
19c
100
AcDbEntity
  8
0
 62
1
100
AcDbPolyline
 90
2
 70
0
 10
152.336437
 20
9.069452
 30
0.0
 10
152.336437
 20
23.069403
 30
0.0
  0
LWPOLYLINE
  5
19d
100
AcDbEntity
  8
0
 62
1
100
AcDbPolyline
 90
3
 70
0
 10
151.836552
 20
23.569288
 30
0.0
 10
143.455278
 20
23.569288
 30
0.0
 10
143.455278
 20
23.569288
 30
0.0
  0
SPLINE
  5
19e
100
AcDbEntity
  8
0
 62
1
100
AcDbSpline
 70
8
 71
3
 72
8
 73
4
 74
0
 40
0
 40
0
 40
0
 40
0
 40
1
 40
1
 40
1
 40
1
 10
274.366904
 20
7.569444
 30
0.0
 10
274.641364
 20
7.569444
 30
0.0
 10
274.867141
 20
7.795222
 30
0.0
 10
274.867141
 20
8.069329
 30
0.0
  0
LWPOLYLINE
  5
19f
100
AcDbEntity
  8
0
 62
1
100
AcDbPolyline
 90
2
 70
0
 10
223.267170
 20
7.569444
 30
0.0
 10
274.366904
 20
7.569444
 30
0.0
  0
SPLINE
  5
1a0
100
AcDbEntity
  8
0
 62
1
100
AcDbSpline
 70
8
 71
3
 72
8
 73
4
 74
0
 40
0
 40
0
 40
0
 40
0
 40
1
 40
1
 40
1
 40
1
 10
274.867141
 20
13.094989
 30
0.0
 10
275.186405
 20
13.514793
 30
0.0
 10
275.376199
 20
14.038667
 30
0.0
 10
275.376199
 20
14.606285
 30
0.0
  0
SPLINE
  5
1a1
100
AcDbEntity
  8
0
 62
1
100
AcDbSpline
 70
8
 71
3
 72
8
 73
4
 74
0
 40
0
 40
0
 40
0
 40
0
 40
1
 40
1
 40
1
 40
1
 10
275.376199
 20
14.606285
 30
0.0
 10
275.376199
 20
15.174256
 30
0.0
 10
275.186405
 20
15.697777
 30
0.0
 10
274.867141
 20
16.117934
 30
0.0
  0
LWPOLYLINE
  5
1a2
100
AcDbEntity
  8
0
 62
1
100
AcDbPolyline
 90
2
 70
0
 10
274.867141
 20
8.069329
 30
0.0
 10
274.867141
 20
13.094989
 30
0.0
  0
SPLINE
  5
1a3
100
AcDbEntity
  8
0
 62
1
100
AcDbSpline
 70
8
 71
3
 72
8
 73
4
 74
0
 40
0
 40
0
 40
0
 40
0
 40
1
 40
1
 40
1
 40
1
 10
274.867141
 20
21.069511
 30
0.0
 10
274.867141
 20
21.343618
 30
0.0
 10
274.641364
 20
21.569395
 30
0.0
 10
274.366904
 20
21.569395
 30
0.0
  0
LWPOLYLINE
  5
1a4
100
AcDbEntity
  8
0
 62
1
100
AcDbPolyline
 90
2
 70
0
 10
274.867141
 20
16.117934
 30
0.0
 10
274.867141
 20
21.069511
 30
0.0
  0
SPLINE
  5
1a5
100
AcDbEntity
  8
0
 62
1
100
AcDbSpline
 70
8
 71
3
 72
8
 73
4
 74
0
 40
0
 40
0
 40
0
 40
0
 40
1
 40
1
 40
1
 40
1
 10
228.536246
 20
23.069403
 30
0.0
 10
228.536246
 20
23.343510
 30
0.0
 10
228.310822
 20
23.569288
 30
0.0
 10
228.036361
 20
23.569288
 30
0.0
  0
LWPOLYLINE
  5
1a6
100
AcDbEntity
  8
0
 62
1
100
AcDbPolyline
 90
3
 70
0
 10
274.366904
 20
21.569395
 30
0.0
 10
228.536246
 20
21.569395
 30
0.0
 10
228.536246
 20
23.069403
 30
0.0
  0
SPLINE
  5
1a7
100
AcDbEntity
  8
0
 62
1
100
AcDbSpline
 70
8
 71
3
 72
8
 73
4
 74
0
 40
0
 40
0
 40
0
 40
0
 40
1
 40
1
 40
1
 40
1
 10
222.036332
 20
23.569288
 30
0.0
 10
221.762224
 20
23.569288
 30
0.0
 10
221.536447
 20
23.343510
 30
0.0
 10
221.536447
 20
23.069403
 30
0.0
  0
LWPOLYLINE
  5
1a8
100
AcDbEntity
  8
0
 62
1
100
AcDbPolyline
 90
2
 70
0
 10
228.036361
 20
23.569288
 30
0.0
 10
222.036332
 20
23.569288
 30
0.0
  0
LWPOLYLINE
  5
1a9
100
AcDbEntity
  8
0
 62
1
100
AcDbPolyline
 90
3
 70
0
 10
221.536447
 20
23.069403
 30
0.0
 10
221.536447
 20
21.569395
 30
0.0
 10
219.598291
 20
21.569395
 30
0.0
  0
SPLINE
  5
1aa
100
AcDbEntity
  8
0
 62
1
100
AcDbSpline
 70
8
 71
3
 72
8
 73
4
 74
0
 40
0
 40
0
 40
0
 40
0
 40
1
 40
1
 40
1
 40
1
 10
239.148481
 20
27.119282
 30
0.0
 10
239.148481
 20
26.845174
 30
0.0
 10
238.922704
 20
26.619397
 30
0.0
 10
238.648243
 20
26.619397
 30
0.0
  0
LWPOLYLINE
  5
1ab
100
AcDbEntity
  8
0
 62
1
100
AcDbPolyline
 90
5
 70
1
 10
301.342695
 20
7.578264
 30
0.0
 10
301.342695
 20
21.578215
 30
0.0
 10
316.084888
 20
21.578215
 30
0.0
 10
316.084888
 20
7.578264
 30
0.0
 10
301.342695
 20
7.578264
 30
0.0
  0
SPLINE
  5
1ac
100
AcDbEntity
  8
0
 62
1
100
AcDbSpline
 70
8
 71
3
 72
8
 73
4
 74
0
 40
0
 40
0
 40
0
 40
0
 40
1
 40
1
 40
1
 40
1
 10
225.648414
 20
26.619397
 30
0.0
 10
225.374307
 20
26.619397
 30
0.0
 10
225.148530
 20
26.845174
 30
0.0
 10
225.148530
 20
27.119282
 30
0.0
  0
LWPOLYLINE
  5
1ad
100
AcDbEntity
  8
0
 62
1
100
AcDbPolyline
 90
2
 70
0
 10
238.648243
 20
26.619397
 30
0.0
 10
225.648414
 20
26.619397
 30
0.0
  0
SPLINE
  5
1ae
100
AcDbEntity
  8
0
 62
1
100
AcDbSpline
 70
8
 71
3
 72
8
 73
4
 74
0
 40
0
 40
0
 40
0
 40
0
 40
1
 40
1
 40
1
 40
1
 10
225.148530
 20
40.119463
 30
0.0
 10
225.148530
 20
40.393571
 30
0.0
 10
225.374307
 20
40.619348
 30
0.0
 10
225.648414
 20
40.619348
 30
0.0
  0
LWPOLYLINE
  5
1af
100
AcDbEntity
  8
0
 62
1
100
AcDbPolyline
 90
2
 70
0
 10
225.148530
 20
27.119282
 30
0.0
 10
225.148530
 20
40.119463
 30
0.0
  0
SPLINE
  5
1b0
100
AcDbEntity
  8
0
 62
1
100
AcDbSpline
 70
8
 71
3
 72
8
 73
4
 74
0
 40
0
 40
0
 40
0
 40
0
 40
1
 40
1
 40
1
 40
1
 10
238.648243
 20
40.619348
 30
0.0
 10
238.922704
 20
40.619348
 30
0.0
 10
239.148481
 20
40.393571
 30
0.0
 10
239.148481
 20
40.119463
 30
0.0
  0
LWPOLYLINE
  5
1b1
100
AcDbEntity
  8
0
 62
1
100
AcDbPolyline
 90
2
 70
0
 10
225.648414
 20
40.619348
 30
0.0
 10
238.648243
 20
40.619348
 30
0.0
  0
SPLINE
  5
1b2
100
AcDbEntity
  8
0
 62
1
100
AcDbSpline
 70
8
 71
3
 72
8
 73
4
 74
0
 40
0
 40
0
 40
0
 40
0
 40
1
 40
1
 40
1
 40
1
 10
201.048576
 20
27.119282
 30
0.0
 10
201.048576
 20
26.845174
 30
0.0
 10
200.822799
 20
26.619397
 30
0.0
 10
200.548338
 20
26.619397
 30
0.0
  0
LWPOLYLINE
  5
1b3
100
AcDbEntity
  8
0
 62
1
100
AcDbPolyline
 90
3
 70
0
 10
239.148481
 20
40.119463
 30
0.0
 10
239.148481
 20
27.119282
 30
0.0
 10
239.148481
 20
27.119282
 30
0.0
  0
SPLINE
  5
1b4
100
AcDbEntity
  8
0
 62
1
100
AcDbSpline
 70
8
 71
3
 72
8
 73
4
 74
0
 40
0
 40
0
 40
0
 40
0
 40
1
 40
1
 40
1
 40
1
 10
187.548510
 20
26.619397
 30
0.0
 10
187.274402
 20
26.619397
 30
0.0
 10
187.048625
 20
26.845174
 30
0.0
 10
187.048625
 20
27.119282
 30
0.0
  0
LWPOLYLINE
  5
1b5
100
AcDbEntity
  8
0
 62
1
100
AcDbPolyline
 90
2
 70
0
 10
200.548338
 20
26.619397
 30
0.0
 10
187.548510
 20
26.619397
 30
0.0
  0
SPLINE
  5
1b6
100
AcDbEntity
  8
0
 62
1
100
AcDbSpline
 70
8
 71
3
 72
8
 73
4
 74
0
 40
0
 40
0
 40
0
 40
0
 40
1
 40
1
 40
1
 40
1
 10
187.048625
 20
40.119463
 30
0.0
 10
187.048625
 20
40.393571
 30
0.0
 10
187.274402
 20
40.619348
 30
0.0
 10
187.548510
 20
40.619348
 30
0.0
  0
LWPOLYLINE
  5
1b7
100
AcDbEntity
  8
0
 62
1
100
AcDbPolyline
 90
2
 70
0
 10
187.048625
 20
27.119282
 30
0.0
 10
187.048625
 20
40.119463
 30
0.0
  0
SPLINE
  5
1b8
100
AcDbEntity
  8
0
 62
1
100
AcDbSpline
 70
8
 71
3
 72
8
 73
4
 74
0
 40
0
 40
0
 40
0
 40
0
 40
1
 40
1
 40
1
 40
1
 10
200.548338
 20
40.619348
 30
0.0
 10
200.822799
 20
40.619348
 30
0.0
 10
201.048576
 20
40.393571
 30
0.0
 10
201.048576
 20
40.119463
 30
0.0
  0
LWPOLYLINE
  5
1b9
100
AcDbEntity
  8
0
 62
1
100
AcDbPolyline
 90
2
 70
0
 10
187.548510
 20
40.619348
 30
0.0
 10
200.548338
 20
40.619348
 30
0.0
  0
SPLINE
  5
1ba
100
AcDbEntity
  8
0
 62
1
100
AcDbSpline
 70
8
 71
3
 72
8
 73
4
 74
0
 40
0
 40
0
 40
0
 40
0
 40
1
 40
1
 40
1
 40
1
 10
181.998624
 20
27.119282
 30
0.0
 10
181.998624
 20
26.845174
 30
0.0
 10
181.772846
 20
26.619397
 30
0.0
 10
181.498386
 20
26.619397
 30
0.0
  0
LWPOLYLINE
  5
1bb
100
AcDbEntity
  8
0
 62
1
100
AcDbPolyline
 90
3
 70
0
 10
201.048576
 20
40.119463
 30
0.0
 10
201.048576
 20
27.119282
 30
0.0
 10
201.048576
 20
27.119282
 30
0.0
  0
SPLINE
  5
1bc
100
AcDbEntity
  8
0
 62
1
100
AcDbSpline
 70
8
 71
3
 72
8
 73
4
 74
0
 40
0
 40
0
 40
0
 40
0
 40
1
 40
1
 40
1
 40
1
 10
168.498557
 20
26.619397
 30
0.0
 10
168.224450
 20
26.619397
 30
0.0
 10
167.998673
 20
26.845174
 30
0.0
 10
167.998673
 20
27.119282
 30
0.0
  0
LWPOLYLINE
  5
1bd
100
AcDbEntity
  8
0
 62
1
100
AcDbPolyline
 90
2
 70
0
 10
181.498386
 20
26.619397
 30
0.0
 10
168.498557
 20
26.619397
 30
0.0
  0
SPLINE
  5
1be
100
AcDbEntity
  8
0
 62
1
100
AcDbSpline
 70
8
 71
3
 72
8
 73
4
 74
0
 40
0
 40
0
 40
0
 40
0
 40
1
 40
1
 40
1
 40
1
 10
167.998673
 20
40.119463
 30
0.0
 10
167.998673
 20
40.393571
 30
0.0
 10
168.224450
 20
40.619348
 30
0.0
 10
168.498557
 20
40.619348
 30
0.0
  0
LWPOLYLINE
  5
1bf
100
AcDbEntity
  8
0
 62
1
100
AcDbPolyline
 90
2
 70
0
 10
167.998673
 20
27.119282
 30
0.0
 10
167.998673
 20
40.119463
 30
0.0
  0
SPLINE
  5
1c0
100
AcDbEntity
  8
0
 62
1
100
AcDbSpline
 70
8
 71
3
 72
8
 73
4
 74
0
 40
0
 40
0
 40
0
 40
0
 40
1
 40
1
 40
1
 40
1
 10
181.498386
 20
40.619348
 30
0.0
 10
181.772846
 20
40.619348
 30
0.0
 10
181.998624
 20
40.393571
 30
0.0
 10
181.998624
 20
40.119463
 30
0.0
  0
LWPOLYLINE
  5
1c1
100
AcDbEntity
  8
0
 62
1
100
AcDbPolyline
 90
2
 70
0
 10
168.498557
 20
40.619348
 30
0.0
 10
181.498386
 20
40.619348
 30
0.0
  0
SPLINE
  5
1c2
100
AcDbEntity
  8
0
 62
1
100
AcDbSpline
 70
8
 71
3
 72
8
 73
4
 74
0
 40
0
 40
0
 40
0
 40
0
 40
1
 40
1
 40
1
 40
1
 10
162.948671
 20
27.119282
 30
0.0
 10
162.948671
 20
26.845174
 30
0.0
 10
162.722894
 20
26.619397
 30
0.0
 10
162.448434
 20
26.619397
 30
0.0
  0
LWPOLYLINE
  5
1c3
100
AcDbEntity
  8
0
 62
1
100
AcDbPolyline
 90
3
 70
0
 10
181.998624
 20
40.119463
 30
0.0
 10
181.998624
 20
27.119282
 30
0.0
 10
181.998624
 20
27.119282
 30
0.0
  0
SPLINE
  5
1c4
100
AcDbEntity
  8
0
 62
1
100
AcDbSpline
 70
8
 71
3
 72
8
 73
4
 74
0
 40
0
 40
0
 40
0
 40
0
 40
1
 40
1
 40
1
 40
1
 10
149.448605
 20
26.619397
 30
0.0
 10
149.174497
 20
26.619397
 30
0.0
 10
148.948720
 20
26.845174
 30
0.0
 10
148.948720
 20
27.119282
 30
0.0
  0
LWPOLYLINE
  5
1c5
100
AcDbEntity
  8
0
 62
1
100
AcDbPolyline
 90
2
 70
0
 10
162.448434
 20
26.619397
 30
0.0
 10
149.448605
 20
26.619397
 30
0.0
  0
SPLINE
  5
1c6
100
AcDbEntity
  8
0
 62
1
100
AcDbSpline
 70
8
 71
3
 72
8
 73
4
 74
0
 40
0
 40
0
 40
0
 40
0
 40
1
 40
1
 40
1
 40
1
 10
148.948720
 20
40.119463
 30
0.0
 10
148.948720
 20
40.393571
 30
0.0
 10
149.174497
 20
40.619348
 30
0.0
 10
149.448605
 20
40.619348
 30
0.0
  0
LWPOLYLINE
  5
1c7
100
AcDbEntity
  8
0
 62
1
100
AcDbPolyline
 90
2
 70
0
 10
148.948720
 20
27.119282
 30
0.0
 10
148.948720
 20
40.119463
 30
0.0
  0
SPLINE
  5
1c8
100
AcDbEntity
  8
0
 62
1
100
AcDbSpline
 70
8
 71
3
 72
8
 73
4
 74
0
 40
0
 40
0
 40
0
 40
0
 40
1
 40
1
 40
1
 40
1
 10
162.448434
 20
40.619348
 30
0.0
 10
162.722894
 20
40.619348
 30
0.0
 10
162.948671
 20
40.393571
 30
0.0
 10
162.948671
 20
40.119463
 30
0.0
  0
LWPOLYLINE
  5
1c9
100
AcDbEntity
  8
0
 62
1
100
AcDbPolyline
 90
2
 70
0
 10
149.448605
 20
40.619348
 30
0.0
 10
162.448434
 20
40.619348
 30
0.0
  0
SPLINE
  5
1ca
100
AcDbEntity
  8
0
 62
1
100
AcDbSpline
 70
8
 71
3
 72
8
 73
4
 74
0
 40
0
 40
0
 40
0
 40
0
 40
1
 40
1
 40
1
 40
1
 10
143.898719
 20
27.119282
 30
0.0
 10
143.898719
 20
26.845174
 30
0.0
 10
143.672942
 20
26.619397
 30
0.0
 10
143.398481
 20
26.619397
 30
0.0
  0
LWPOLYLINE
  5
1cb
100
AcDbEntity
  8
0
 62
1
100
AcDbPolyline
 90
3
 70
0
 10
162.948671
 20
40.119463
 30
0.0
 10
162.948671
 20
27.119282
 30
0.0
 10
162.948671
 20
27.119282
 30
0.0
  0
SPLINE
  5
1cc
100
AcDbEntity
  8
0
 62
1
100
AcDbSpline
 70
8
 71
3
 72
8
 73
4
 74
0
 40
0
 40
0
 40
0
 40
0
 40
1
 40
1
 40
1
 40
1
 10
130.398653
 20
26.619397
 30
0.0
 10
130.124545
 20
26.619397
 30
0.0
 10
129.898768
 20
26.845174
 30
0.0
 10
129.898768
 20
27.119282
 30
0.0
  0
LWPOLYLINE
  5
1cd
100
AcDbEntity
  8
0
 62
1
100
AcDbPolyline
 90
2
 70
0
 10
143.398481
 20
26.619397
 30
0.0
 10
130.398653
 20
26.619397
 30
0.0
  0
SPLINE
  5
1ce
100
AcDbEntity
  8
0
 62
1
100
AcDbSpline
 70
8
 71
3
 72
8
 73
4
 74
0
 40
0
 40
0
 40
0
 40
0
 40
1
 40
1
 40
1
 40
1
 10
129.898768
 20
40.119463
 30
0.0
 10
129.898768
 20
40.393571
 30
0.0
 10
130.124545
 20
40.619348
 30
0.0
 10
130.398653
 20
40.619348
 30
0.0
  0
LWPOLYLINE
  5
1cf
100
AcDbEntity
  8
0
 62
1
100
AcDbPolyline
 90
2
 70
0
 10
129.898768
 20
27.119282
 30
0.0
 10
129.898768
 20
40.119463
 30
0.0
  0
SPLINE
  5
1d0
100
AcDbEntity
  8
0
 62
1
100
AcDbSpline
 70
8
 71
3
 72
8
 73
4
 74
0
 40
0
 40
0
 40
0
 40
0
 40
1
 40
1
 40
1
 40
1
 10
143.398481
 20
40.619348
 30
0.0
 10
143.672942
 20
40.619348
 30
0.0
 10
143.898719
 20
40.393571
 30
0.0
 10
143.898719
 20
40.119463
 30
0.0
  0
LWPOLYLINE
  5
1d1
100
AcDbEntity
  8
0
 62
1
100
AcDbPolyline
 90
2
 70
0
 10
130.398653
 20
40.619348
 30
0.0
 10
143.398481
 20
40.619348
 30
0.0
  0
SPLINE
  5
1d2
100
AcDbEntity
  8
0
 62
1
100
AcDbSpline
 70
8
 71
3
 72
8
 73
4
 74
0
 40
0
 40
0
 40
0
 40
0
 40
1
 40
1
 40
1
 40
1
 10
263.748319
 20
26.619397
 30
0.0
 10
263.474212
 20
26.619397
 30
0.0
 10
263.248434
 20
26.845174
 30
0.0
 10
263.248434
 20
27.119282
 30
0.0
  0
LWPOLYLINE
  5
1d3
100
AcDbEntity
  8
0
 62
1
100
AcDbPolyline
 90
3
 70
0
 10
143.898719
 20
40.119463
 30
0.0
 10
143.898719
 20
27.119282
 30
0.0
 10
143.898719
 20
27.119282
 30
0.0
  0
SPLINE
  5
1d4
100
AcDbEntity
  8
0
 62
1
100
AcDbSpline
 70
8
 71
3
 72
8
 73
4
 74
0
 40
0
 40
0
 40
0
 40
0
 40
1
 40
1
 40
1
 40
1
 10
263.248434
 20
40.119463
 30
0.0
 10
263.248434
 20
40.393571
 30
0.0
 10
263.474212
 20
40.619348
 30
0.0
 10
263.748319
 20
40.619348
 30
0.0
  0
LWPOLYLINE
  5
1d5
100
AcDbEntity
  8
0
 62
1
100
AcDbPolyline
 90
2
 70
0
 10
263.248434
 20
27.119282
 30
0.0
 10
263.248434
 20
40.119463
 30
0.0
  0
SPLINE
  5
1d6
100
AcDbEntity
  8
0
 62
1
100
AcDbSpline
 70
8
 71
3
 72
8
 73
4
 74
0
 40
0
 40
0
 40
0
 40
0
 40
1
 40
1
 40
1
 40
1
 10
295.798100
 20
40.619348
 30
0.0
 10
296.072561
 20
40.619348
 30
0.0
 10
296.298338
 20
40.393571
 30
0.0
 10
296.298338
 20
40.119463
 30
0.0
  0
LWPOLYLINE
  5
1d7
100
AcDbEntity
  8
0
 62
1
100
AcDbPolyline
 90
2
 70
0
 10
263.748319
 20
40.619348
 30
0.0
 10
295.798100
 20
40.619348
 30
0.0
  0
SPLINE
  5
1d8
100
AcDbEntity
  8
0
 62
1
100
AcDbSpline
 70
8
 71
3
 72
8
 73
4
 74
0
 40
0
 40
0
 40
0
 40
0
 40
1
 40
1
 40
1
 40
1
 10
296.298338
 20
27.119282
 30
0.0
 10
296.298338
 20
26.845174
 30
0.0
 10
296.072561
 20
26.619397
 30
0.0
 10
295.798100
 20
26.619397
 30
0.0
  0
LWPOLYLINE
  5
1d9
100
AcDbEntity
  8
0
 62
1
100
AcDbPolyline
 90
2
 70
0
 10
296.298338
 20
40.119463
 30
0.0
 10
296.298338
 20
27.119282
 30
0.0
  0
SPLINE
  5
1da
100
AcDbEntity
  8
0
 62
1
100
AcDbSpline
 70
8
 71
3
 72
8
 73
4
 74
0
 40
0
 40
0
 40
0
 40
0
 40
1
 40
1
 40
1
 40
1
 10
124.848766
 20
27.119282
 30
0.0
 10
124.848766
 20
26.845174
 30
0.0
 10
124.622989
 20
26.619397
 30
0.0
 10
124.348529
 20
26.619397
 30
0.0
  0
LWPOLYLINE
  5
1db
100
AcDbEntity
  8
0
 62
1
100
AcDbPolyline
 90
3
 70
0
 10
295.798100
 20
26.619397
 30
0.0
 10
263.748319
 20
26.619397
 30
0.0
 10
263.748319
 20
26.619397
 30
0.0
  0
SPLINE
  5
1dc
100
AcDbEntity
  8
0
 62
1
100
AcDbSpline
 70
8
 71
3
 72
8
 73
4
 74
0
 40
0
 40
0
 40
0
 40
0
 40
1
 40
1
 40
1
 40
1
 10
111.348700
 20
26.619397
 30
0.0
 10
111.074593
 20
26.619397
 30
0.0
 10
110.848815
 20
26.845174
 30
0.0
 10
110.848815
 20
27.119282
 30
0.0
  0
LWPOLYLINE
  5
1dd
100
AcDbEntity
  8
0
 62
1
100
AcDbPolyline
 90
2
 70
0
 10
124.348529
 20
26.619397
 30
0.0
 10
111.348700
 20
26.619397
 30
0.0
  0
SPLINE
  5
1de
100
AcDbEntity
  8
0
 62
1
100
AcDbSpline
 70
8
 71
3
 72
8
 73
4
 74
0
 40
0
 40
0
 40
0
 40
0
 40
1
 40
1
 40
1
 40
1
 10
110.848815
 20
40.119463
 30
0.0
 10
110.848815
 20
40.393571
 30
0.0
 10
111.074593
 20
40.619348
 30
0.0
 10
111.348700
 20
40.619348
 30
0.0
  0
LWPOLYLINE
  5
1df
100
AcDbEntity
  8
0
 62
1
100
AcDbPolyline
 90
2
 70
0
 10
110.848815
 20
27.119282
 30
0.0
 10
110.848815
 20
40.119463
 30
0.0
  0
SPLINE
  5
1e0
100
AcDbEntity
  8
0
 62
1
100
AcDbSpline
 70
8
 71
3
 72
8
 73
4
 74
0
 40
0
 40
0
 40
0
 40
0
 40
1
 40
1
 40
1
 40
1
 10
124.348529
 20
40.619348
 30
0.0
 10
124.622989
 20
40.619348
 30
0.0
 10
124.848766
 20
40.393571
 30
0.0
 10
124.848766
 20
40.119463
 30
0.0
  0
LWPOLYLINE
  5
1e1
100
AcDbEntity
  8
0
 62
1
100
AcDbPolyline
 90
2
 70
0
 10
111.348700
 20
40.619348
 30
0.0
 10
124.348529
 20
40.619348
 30
0.0
  0
SPLINE
  5
1e2
100
AcDbEntity
  8
0
 62
1
100
AcDbSpline
 70
8
 71
3
 72
8
 73
4
 74
0
 40
0
 40
0
 40
0
 40
0
 40
1
 40
1
 40
1
 40
1
 10
220.098528
 20
27.119282
 30
0.0
 10
220.098528
 20
26.845174
 30
0.0
 10
219.872751
 20
26.619397
 30
0.0
 10
219.598291
 20
26.619397
 30
0.0
  0
LWPOLYLINE
  5
1e3
100
AcDbEntity
  8
0
 62
1
100
AcDbPolyline
 90
3
 70
0
 10
124.848766
 20
40.119463
 30
0.0
 10
124.848766
 20
27.119282
 30
0.0
 10
124.848766
 20
27.119282
 30
0.0
  0
SPLINE
  5
1e4
100
AcDbEntity
  8
0
 62
1
100
AcDbSpline
 70
8
 71
3
 72
8
 73
4
 74
0
 40
0
 40
0
 40
0
 40
0
 40
1
 40
1
 40
1
 40
1
 10
206.598462
 20
26.619397
 30
0.0
 10
206.324354
 20
26.619397
 30
0.0
 10
206.098577
 20
26.845174
 30
0.0
 10
206.098577
 20
27.119282
 30
0.0
  0
LWPOLYLINE
  5
1e5
100
AcDbEntity
  8
0
 62
1
100
AcDbPolyline
 90
2
 70
0
 10
219.598291
 20
26.619397
 30
0.0
 10
206.598462
 20
26.619397
 30
0.0
  0
SPLINE
  5
1e6
100
AcDbEntity
  8
0
 62
1
100
AcDbSpline
 70
8
 71
3
 72
8
 73
4
 74
0
 40
0
 40
0
 40
0
 40
0
 40
1
 40
1
 40
1
 40
1
 10
206.098577
 20
40.119463
 30
0.0
 10
206.098577
 20
40.393571
 30
0.0
 10
206.324354
 20
40.619348
 30
0.0
 10
206.598462
 20
40.619348
 30
0.0
  0
LWPOLYLINE
  5
1e7
100
AcDbEntity
  8
0
 62
1
100
AcDbPolyline
 90
2
 70
0
 10
206.098577
 20
27.119282
 30
0.0
 10
206.098577
 20
40.119463
 30
0.0
  0
SPLINE
  5
1e8
100
AcDbEntity
  8
0
 62
1
100
AcDbSpline
 70
8
 71
3
 72
8
 73
4
 74
0
 40
0
 40
0
 40
0
 40
0
 40
1
 40
1
 40
1
 40
1
 10
219.598291
 20
40.619348
 30
0.0
 10
219.872751
 20
40.619348
 30
0.0
 10
220.098528
 20
40.393571
 30
0.0
 10
220.098528
 20
40.119463
 30
0.0
  0
LWPOLYLINE
  5
1e9
100
AcDbEntity
  8
0
 62
1
100
AcDbPolyline
 90
2
 70
0
 10
206.598462
 20
40.619348
 30
0.0
 10
219.598291
 20
40.619348
 30
0.0
  0
SPLINE
  5
1ea
100
AcDbEntity
  8
0
 62
1
100
AcDbSpline
 70
8
 71
3
 72
8
 73
4
 74
0
 40
0
 40
0
 40
0
 40
0
 40
1
 40
1
 40
1
 40
1
 10
86.748862
 20
27.119282
 30
0.0
 10
86.748862
 20
26.845174
 30
0.0
 10
86.523085
 20
26.619397
 30
0.0
 10
86.248624
 20
26.619397
 30
0.0
  0
LWPOLYLINE
  5
1eb
100
AcDbEntity
  8
0
 62
1
100
AcDbPolyline
 90
3
 70
0
 10
220.098528
 20
40.119463
 30
0.0
 10
220.098528
 20
27.119282
 30
0.0
 10
220.098528
 20
27.119282
 30
0.0
  0
SPLINE
  5
1ec
100
AcDbEntity
  8
0
 62
1
100
AcDbSpline
 70
8
 71
3
 72
8
 73
4
 74
0
 40
0
 40
0
 40
0
 40
0
 40
1
 40
1
 40
1
 40
1
 10
73.248795
 20
26.619397
 30
0.0
 10
72.974688
 20
26.619397
 30
0.0
 10
72.748911
 20
26.845174
 30
0.0
 10
72.748911
 20
27.119282
 30
0.0
  0
LWPOLYLINE
  5
1ed
100
AcDbEntity
  8
0
 62
1
100
AcDbPolyline
 90
2
 70
0
 10
86.248624
 20
26.619397
 30
0.0
 10
73.248795
 20
26.619397
 30
0.0
  0
SPLINE
  5
1ee
100
AcDbEntity
  8
0
 62
1
100
AcDbSpline
 70
8
 71
3
 72
8
 73
4
 74
0
 40
0
 40
0
 40
0
 40
0
 40
1
 40
1
 40
1
 40
1
 10
72.748911
 20
40.119463
 30
0.0
 10
72.748911
 20
40.393571
 30
0.0
 10
72.974688
 20
40.619348
 30
0.0
 10
73.248795
 20
40.619348
 30
0.0
  0
LWPOLYLINE
  5
1ef
100
AcDbEntity
  8
0
 62
1
100
AcDbPolyline
 90
2
 70
0
 10
72.748911
 20
27.119282
 30
0.0
 10
72.748911
 20
40.119463
 30
0.0
  0
SPLINE
  5
1f0
100
AcDbEntity
  8
0
 62
1
100
AcDbSpline
 70
8
 71
3
 72
8
 73
4
 74
0
 40
0
 40
0
 40
0
 40
0
 40
1
 40
1
 40
1
 40
1
 10
86.248624
 20
40.619348
 30
0.0
 10
86.523085
 20
40.619348
 30
0.0
 10
86.748862
 20
40.393571
 30
0.0
 10
86.748862
 20
40.119463
 30
0.0
  0
LWPOLYLINE
  5
1f1
100
AcDbEntity
  8
0
 62
1
100
AcDbPolyline
 90
2
 70
0
 10
73.248795
 20
40.619348
 30
0.0
 10
86.248624
 20
40.619348
 30
0.0
  0
SPLINE
  5
1f2
100
AcDbEntity
  8
0
 62
1
100
AcDbSpline
 70
8
 71
3
 72
8
 73
4
 74
0
 40
0
 40
0
 40
0
 40
0
 40
1
 40
1
 40
1
 40
1
 10
105.798814
 20
27.119282
 30
0.0
 10
105.798814
 20
26.845174
 30
0.0
 10
105.573037
 20
26.619397
 30
0.0
 10
105.298576
 20
26.619397
 30
0.0
  0
LWPOLYLINE
  5
1f3
100
AcDbEntity
  8
0
 62
1
100
AcDbPolyline
 90
3
 70
0
 10
86.748862
 20
40.119463
 30
0.0
 10
86.748862
 20
27.119282
 30
0.0
 10
86.748862
 20
27.119282
 30
0.0
  0
SPLINE
  5
1f4
100
AcDbEntity
  8
0
 62
1
100
AcDbSpline
 70
8
 71
3
 72
8
 73
4
 74
0
 40
0
 40
0
 40
0
 40
0
 40
1
 40
1
 40
1
 40
1
 10
92.298748
 20
26.619397
 30
0.0
 10
92.024640
 20
26.619397
 30
0.0
 10
91.798863
 20
26.845174
 30
0.0
 10
91.798863
 20
27.119282
 30
0.0
  0
LWPOLYLINE
  5
1f5
100
AcDbEntity
  8
0
 62
1
100
AcDbPolyline
 90
2
 70
0
 10
105.298576
 20
26.619397
 30
0.0
 10
92.298748
 20
26.619397
 30
0.0
  0
SPLINE
  5
1f6
100
AcDbEntity
  8
0
 62
1
100
AcDbSpline
 70
8
 71
3
 72
8
 73
4
 74
0
 40
0
 40
0
 40
0
 40
0
 40
1
 40
1
 40
1
 40
1
 10
91.798863
 20
40.119463
 30
0.0
 10
91.798863
 20
40.393571
 30
0.0
 10
92.024640
 20
40.619348
 30
0.0
 10
92.298748
 20
40.619348
 30
0.0
  0
LWPOLYLINE
  5
1f7
100
AcDbEntity
  8
0
 62
1
100
AcDbPolyline
 90
2
 70
0
 10
91.798863
 20
27.119282
 30
0.0
 10
91.798863
 20
40.119463
 30
0.0
  0
SPLINE
  5
1f8
100
AcDbEntity
  8
0
 62
1
100
AcDbSpline
 70
8
 71
3
 72
8
 73
4
 74
0
 40
0
 40
0
 40
0
 40
0
 40
1
 40
1
 40
1
 40
1
 10
105.298576
 20
40.619348
 30
0.0
 10
105.573037
 20
40.619348
 30
0.0
 10
105.798814
 20
40.393571
 30
0.0
 10
105.798814
 20
40.119463
 30
0.0
  0
LWPOLYLINE
  5
1f9
100
AcDbEntity
  8
0
 62
1
100
AcDbPolyline
 90
2
 70
0
 10
92.298748
 20
40.619348
 30
0.0
 10
105.298576
 20
40.619348
 30
0.0
  0
SPLINE
  5
1fa
100
AcDbEntity
  8
0
 62
1
100
AcDbSpline
 70
8
 71
3
 72
8
 73
4
 74
0
 40
0
 40
0
 40
0
 40
0
 40
1
 40
1
 40
1
 40
1
 10
244.198482
 20
40.119463
 30
0.0
 10
244.198482
 20
40.395334
 30
0.0
 10
244.422143
 20
40.619348
 30
0.0
 10
244.698367
 20
40.619348
 30
0.0
  0
LWPOLYLINE
  5
1fb
100
AcDbEntity
  8
0
 62
1
100
AcDbPolyline
 90
3
 70
0
 10
105.798814
 20
40.119463
 30
0.0
 10
105.798814
 20
27.119282
 30
0.0
 10
105.798814
 20
27.119282
 30
0.0
  0
SPLINE
  5
1fc
100
AcDbEntity
  8
0
 62
1
100
AcDbSpline
 70
8
 71
3
 72
8
 73
4
 74
0
 40
0
 40
0
 40
0
 40
0
 40
1
 40
1
 40
1
 40
1
 10
257.698195
 20
40.619348
 30
0.0
 10
257.974420
 20
40.619348
 30
0.0
 10
258.198433
 20
40.395334
 30
0.0
 10
258.198433
 20
40.119463
 30
0.0
  0
LWPOLYLINE
  5
1fd
100
AcDbEntity
  8
0
 62
1
100
AcDbPolyline
 90
2
 70
0
 10
244.698367
 20
40.619348
 30
0.0
 10
257.698195
 20
40.619348
 30
0.0
  0
SPLINE
  5
1fe
100
AcDbEntity
  8
0
 62
1
100
AcDbSpline
 70
8
 71
3
 72
8
 73
4
 74
0
 40
0
 40
0
 40
0
 40
0
 40
1
 40
1
 40
1
 40
1
 10
258.198433
 20
27.119282
 30
0.0
 10
258.198433
 20
26.843057
 30
0.0
 10
257.974420
 20
26.619397
 30
0.0
 10
257.698195
 20
26.619397
 30
0.0
  0
LWPOLYLINE
  5
1ff
100
AcDbEntity
  8
0
 62
1
100
AcDbPolyline
 90
2
 70
0
 10
258.198433
 20
40.119463
 30
0.0
 10
258.198433
 20
27.119282
 30
0.0
  0
SPLINE
  5
200
100
AcDbEntity
  8
0
 62
1
100
AcDbSpline
 70
8
 71
3
 72
8
 73
4
 74
0
 40
0
 40
0
 40
0
 40
0
 40
1
 40
1
 40
1
 40
1
 10
244.698367
 20
26.619397
 30
0.0
 10
244.422143
 20
26.619397
 30
0.0
 10
244.198482
 20
26.843057
 30
0.0
 10
244.198482
 20
27.119282
 30
0.0
  0
LWPOLYLINE
  5
201
100
AcDbEntity
  8
0
 62
1
100
AcDbPolyline
 90
2
 70
0
 10
257.698195
 20
26.619397
 30
0.0
 10
244.698367
 20
26.619397
 30
0.0
  0
SPLINE
  5
202
100
AcDbEntity
  8
0
 62
1
100
AcDbSpline
 70
8
 71
3
 72
8
 73
4
 74
0
 40
0
 40
0
 40
0
 40
0
 40
1
 40
1
 40
1
 40
1
 10
210.573552
 20
46.169234
 30
0.0
 10
210.573552
 20
45.895126
 30
0.0
 10
210.347775
 20
45.669349
 30
0.0
 10
210.073315
 20
45.669349
 30
0.0
  0
LWPOLYLINE
  5
203
100
AcDbEntity
  8
0
 62
1
100
AcDbPolyline
 90
3
 70
0
 10
244.198482
 20
27.119282
 30
0.0
 10
244.198482
 20
40.119463
 30
0.0
 10
244.198482
 20
40.119463
 30
0.0
  0
SPLINE
  5
204
100
AcDbEntity
  8
0
 62
1
100
AcDbSpline
 70
8
 71
3
 72
8
 73
4
 74
0
 40
0
 40
0
 40
0
 40
0
 40
1
 40
1
 40
1
 40
1
 10
197.073486
 20
45.669349
 30
0.0
 10
196.799378
 20
45.669349
 30
0.0
 10
196.573601
 20
45.895126
 30
0.0
 10
196.573601
 20
46.169234
 30
0.0
  0
LWPOLYLINE
  5
205
100
AcDbEntity
  8
0
 62
1
100
AcDbPolyline
 90
2
 70
0
 10
210.073315
 20
45.669349
 30
0.0
 10
197.073486
 20
45.669349
 30
0.0
  0
SPLINE
  5
206
100
AcDbEntity
  8
0
 62
1
100
AcDbSpline
 70
8
 71
3
 72
8
 73
4
 74
0
 40
0
 40
0
 40
0
 40
0
 40
1
 40
1
 40
1
 40
1
 10
196.573601
 20
59.169415
 30
0.0
 10
196.573601
 20
59.443523
 30
0.0
 10
196.799378
 20
59.669300
 30
0.0
 10
197.073486
 20
59.669300
 30
0.0
  0
LWPOLYLINE
  5
207
100
AcDbEntity
  8
0
 62
1
100
AcDbPolyline
 90
2
 70
0
 10
196.573601
 20
46.169234
 30
0.0
 10
196.573601
 20
59.169415
 30
0.0
  0
SPLINE
  5
208
100
AcDbEntity
  8
0
 62
1
100
AcDbSpline
 70
8
 71
3
 72
8
 73
4
 74
0
 40
0
 40
0
 40
0
 40
0
 40
1
 40
1
 40
1
 40
1
 10
210.073315
 20
59.669300
 30
0.0
 10
210.347775
 20
59.669300
 30
0.0
 10
210.573552
 20
59.443523
 30
0.0
 10
210.573552
 20
59.169415
 30
0.0
  0
LWPOLYLINE
  5
209
100
AcDbEntity
  8
0
 62
1
100
AcDbPolyline
 90
2
 70
0
 10
197.073486
 20
59.669300
 30
0.0
 10
210.073315
 20
59.669300
 30
0.0
  0
SPLINE
  5
20a
100
AcDbEntity
  8
0
 62
1
100
AcDbSpline
 70
8
 71
3
 72
8
 73
4
 74
0
 40
0
 40
0
 40
0
 40
0
 40
1
 40
1
 40
1
 40
1
 10
191.523600
 20
46.169234
 30
0.0
 10
191.523600
 20
45.895126
 30
0.0
 10
191.297823
 20
45.669349
 30
0.0
 10
191.023362
 20
45.669349
 30
0.0
  0
LWPOLYLINE
  5
20b
100
AcDbEntity
  8
0
 62
1
100
AcDbPolyline
 90
3
 70
0
 10
210.573552
 20
59.169415
 30
0.0
 10
210.573552
 20
46.169234
 30
0.0
 10
210.573552
 20
46.169234
 30
0.0
  0
SPLINE
  5
20c
100
AcDbEntity
  8
0
 62
1
100
AcDbSpline
 70
8
 71
3
 72
8
 73
4
 74
0
 40
0
 40
0
 40
0
 40
0
 40
1
 40
1
 40
1
 40
1
 10
178.023534
 20
45.669349
 30
0.0
 10
177.749426
 20
45.669349
 30
0.0
 10
177.523649
 20
45.895126
 30
0.0
 10
177.523649
 20
46.169234
 30
0.0
  0
LWPOLYLINE
  5
20d
100
AcDbEntity
  8
0
 62
1
100
AcDbPolyline
 90
2
 70
0
 10
191.023362
 20
45.669349
 30
0.0
 10
178.023534
 20
45.669349
 30
0.0
  0
SPLINE
  5
20e
100
AcDbEntity
  8
0
 62
1
100
AcDbSpline
 70
8
 71
3
 72
8
 73
4
 74
0
 40
0
 40
0
 40
0
 40
0
 40
1
 40
1
 40
1
 40
1
 10
177.523649
 20
59.169415
 30
0.0
 10
177.523649
 20
59.443523
 30
0.0
 10
177.749426
 20
59.669300
 30
0.0
 10
178.023534
 20
59.669300
 30
0.0
  0
LWPOLYLINE
  5
20f
100
AcDbEntity
  8
0
 62
1
100
AcDbPolyline
 90
2
 70
0
 10
177.523649
 20
46.169234
 30
0.0
 10
177.523649
 20
59.169415
 30
0.0
  0
SPLINE
  5
210
100
AcDbEntity
  8
0
 62
1
100
AcDbSpline
 70
8
 71
3
 72
8
 73
4
 74
0
 40
0
 40
0
 40
0
 40
0
 40
1
 40
1
 40
1
 40
1
 10
191.023362
 20
59.669300
 30
0.0
 10
191.297823
 20
59.669300
 30
0.0
 10
191.523600
 20
59.443523
 30
0.0
 10
191.523600
 20
59.169415
 30
0.0
  0
LWPOLYLINE
  5
211
100
AcDbEntity
  8
0
 62
1
100
AcDbPolyline
 90
2
 70
0
 10
178.023534
 20
59.669300
 30
0.0
 10
191.023362
 20
59.669300
 30
0.0
  0
SPLINE
  5
212
100
AcDbEntity
  8
0
 62
1
100
AcDbSpline
 70
8
 71
3
 72
8
 73
4
 74
0
 40
0
 40
0
 40
0
 40
0
 40
1
 40
1
 40
1
 40
1
 10
52.911207
 20
59.669300
 30
0.0
 10
53.185668
 20
59.669300
 30
0.0
 10
53.411445
 20
59.443523
 30
0.0
 10
53.411445
 20
59.169415
 30
0.0
  0
LWPOLYLINE
  5
213
100
AcDbEntity
  8
0
 62
1
100
AcDbPolyline
 90
3
 70
0
 10
191.523600
 20
59.169415
 30
0.0
 10
191.523600
 20
46.169234
 30
0.0
 10
191.523600
 20
46.169234
 30
0.0
  0
SPLINE
  5
214
100
AcDbEntity
  8
0
 62
1
100
AcDbSpline
 70
8
 71
3
 72
8
 73
4
 74
0
 40
0
 40
0
 40
0
 40
0
 40
1
 40
1
 40
1
 40
1
 10
53.411445
 20
46.169234
 30
0.0
 10
53.411445
 20
45.895126
 30
0.0
 10
53.185668
 20
45.669349
 30
0.0
 10
52.911207
 20
45.669349
 30
0.0
  0
LWPOLYLINE
  5
215
100
AcDbEntity
  8
0
 62
1
100
AcDbPolyline
 90
2
 70
0
 10
53.411445
 20
59.169415
 30
0.0
 10
53.411445
 20
46.169234
 30
0.0
  0
SPLINE
  5
216
100
AcDbEntity
  8
0
 62
1
100
AcDbSpline
 70
8
 71
3
 72
8
 73
4
 74
0
 40
0
 40
0
 40
0
 40
0
 40
1
 40
1
 40
1
 40
1
 10
39.911379
 20
45.669349
 30
0.0
 10
39.637271
 20
45.669349
 30
0.0
 10
39.411494
 20
45.895126
 30
0.0
 10
39.411494
 20
46.169234
 30
0.0
  0
LWPOLYLINE
  5
217
100
AcDbEntity
  8
0
 62
1
100
AcDbPolyline
 90
2
 70
0
 10
52.911207
 20
45.669349
 30
0.0
 10
39.911379
 20
45.669349
 30
0.0
  0
SPLINE
  5
218
100
AcDbEntity
  8
0
 62
1
100
AcDbSpline
 70
8
 71
3
 72
8
 73
4
 74
0
 40
0
 40
0
 40
0
 40
0
 40
1
 40
1
 40
1
 40
1
 10
39.411494
 20
59.169415
 30
0.0
 10
39.411494
 20
59.443523
 30
0.0
 10
39.637271
 20
59.669300
 30
0.0
 10
39.911379
 20
59.669300
 30
0.0
  0
LWPOLYLINE
  5
219
100
AcDbEntity
  8
0
 62
1
100
AcDbPolyline
 90
2
 70
0
 10
39.411494
 20
46.169234
 30
0.0
 10
39.411494
 20
59.169415
 30
0.0
  0
SPLINE
  5
21a
100
AcDbEntity
  8
0
 62
1
100
AcDbSpline
 70
8
 71
3
 72
8
 73
4
 74
0
 40
0
 40
0
 40
0
 40
0
 40
1
 40
1
 40
1
 40
1
 10
172.473647
 20
46.169234
 30
0.0
 10
172.473647
 20
45.895126
 30
0.0
 10
172.247870
 20
45.669349
 30
0.0
 10
171.973410
 20
45.669349
 30
0.0
  0
LWPOLYLINE
  5
21b
100
AcDbEntity
  8
0
 62
1
100
AcDbPolyline
 90
3
 70
0
 10
39.911379
 20
59.669300
 30
0.0
 10
52.911207
 20
59.669300
 30
0.0
 10
52.911207
 20
59.669300
 30
0.0
  0
SPLINE
  5
21c
100
AcDbEntity
  8
0
 62
1
100
AcDbSpline
 70
8
 71
3
 72
8
 73
4
 74
0
 40
0
 40
0
 40
0
 40
0
 40
1
 40
1
 40
1
 40
1
 10
158.973581
 20
45.669349
 30
0.0
 10
158.699474
 20
45.669349
 30
0.0
 10
158.473696
 20
45.895126
 30
0.0
 10
158.473696
 20
46.169234
 30
0.0
  0
LWPOLYLINE
  5
21d
100
AcDbEntity
  8
0
 62
1
100
AcDbPolyline
 90
2
 70
0
 10
171.973410
 20
45.669349
 30
0.0
 10
158.973581
 20
45.669349
 30
0.0
  0
SPLINE
  5
21e
100
AcDbEntity
  8
0
 62
1
100
AcDbSpline
 70
8
 71
3
 72
8
 73
4
 74
0
 40
0
 40
0
 40
0
 40
0
 40
1
 40
1
 40
1
 40
1
 10
158.473696
 20
59.169415
 30
0.0
 10
158.473696
 20
59.443523
 30
0.0
 10
158.699474
 20
59.669300
 30
0.0
 10
158.973581
 20
59.669300
 30
0.0
  0
LWPOLYLINE
  5
21f
100
AcDbEntity
  8
0
 62
1
100
AcDbPolyline
 90
2
 70
0
 10
158.473696
 20
46.169234
 30
0.0
 10
158.473696
 20
59.169415
 30
0.0
  0
SPLINE
  5
220
100
AcDbEntity
  8
0
 62
1
100
AcDbSpline
 70
8
 71
3
 72
8
 73
4
 74
0
 40
0
 40
0
 40
0
 40
0
 40
1
 40
1
 40
1
 40
1
 10
171.973410
 20
59.669300
 30
0.0
 10
172.247870
 20
59.669300
 30
0.0
 10
172.473647
 20
59.443523
 30
0.0
 10
172.473647
 20
59.169415
 30
0.0
  0
LWPOLYLINE
  5
221
100
AcDbEntity
  8
0
 62
1
100
AcDbPolyline
 90
2
 70
0
 10
158.973581
 20
59.669300
 30
0.0
 10
171.973410
 20
59.669300
 30
0.0
  0
SPLINE
  5
222
100
AcDbEntity
  8
0
 62
1
100
AcDbSpline
 70
8
 71
3
 72
8
 73
4
 74
0
 40
0
 40
0
 40
0
 40
0
 40
1
 40
1
 40
1
 40
1
 10
115.323790
 20
46.169234
 30
0.0
 10
115.323790
 20
45.895126
 30
0.0
 10
115.098013
 20
45.669349
 30
0.0
 10
114.823553
 20
45.669349
 30
0.0
  0
LWPOLYLINE
  5
223
100
AcDbEntity
  8
0
 62
1
100
AcDbPolyline
 90
3
 70
0
 10
172.473647
 20
59.169415
 30
0.0
 10
172.473647
 20
46.169234
 30
0.0
 10
172.473647
 20
46.169234
 30
0.0
  0
SPLINE
  5
224
100
AcDbEntity
  8
0
 62
1
100
AcDbSpline
 70
8
 71
3
 72
8
 73
4
 74
0
 40
0
 40
0
 40
0
 40
0
 40
1
 40
1
 40
1
 40
1
 10
101.823724
 20
45.669349
 30
0.0
 10
101.549616
 20
45.669349
 30
0.0
 10
101.323839
 20
45.895126
 30
0.0
 10
101.323839
 20
46.169234
 30
0.0
  0
LWPOLYLINE
  5
225
100
AcDbEntity
  8
0
 62
1
100
AcDbPolyline
 90
2
 70
0
 10
114.823553
 20
45.669349
 30
0.0
 10
101.823724
 20
45.669349
 30
0.0
  0
SPLINE
  5
226
100
AcDbEntity
  8
0
 62
1
100
AcDbSpline
 70
8
 71
3
 72
8
 73
4
 74
0
 40
0
 40
0
 40
0
 40
0
 40
1
 40
1
 40
1
 40
1
 10
101.323839
 20
59.169415
 30
0.0
 10
101.323839
 20
59.443523
 30
0.0
 10
101.549616
 20
59.669300
 30
0.0
 10
101.823724
 20
59.669300
 30
0.0
  0
LWPOLYLINE
  5
227
100
AcDbEntity
  8
0
 62
1
100
AcDbPolyline
 90
2
 70
0
 10
101.323839
 20
46.169234
 30
0.0
 10
101.323839
 20
59.169415
 30
0.0
  0
SPLINE
  5
228
100
AcDbEntity
  8
0
 62
1
100
AcDbSpline
 70
8
 71
3
 72
8
 73
4
 74
0
 40
0
 40
0
 40
0
 40
0
 40
1
 40
1
 40
1
 40
1
 10
114.823553
 20
59.669300
 30
0.0
 10
115.098013
 20
59.669300
 30
0.0
 10
115.323790
 20
59.443523
 30
0.0
 10
115.323790
 20
59.169415
 30
0.0
  0
LWPOLYLINE
  5
229
100
AcDbEntity
  8
0
 62
1
100
AcDbPolyline
 90
2
 70
0
 10
101.823724
 20
59.669300
 30
0.0
 10
114.823553
 20
59.669300
 30
0.0
  0
SPLINE
  5
22a
100
AcDbEntity
  8
0
 62
1
100
AcDbSpline
 70
8
 71
3
 72
8
 73
4
 74
0
 40
0
 40
0
 40
0
 40
0
 40
1
 40
1
 40
1
 40
1
 10
134.373743
 20
46.169234
 30
0.0
 10
134.373743
 20
45.895126
 30
0.0
 10
134.147965
 20
45.669349
 30
0.0
 10
133.873505
 20
45.669349
 30
0.0
  0
LWPOLYLINE
  5
22b
100
AcDbEntity
  8
0
 62
1
100
AcDbPolyline
 90
3
 70
0
 10
115.323790
 20
59.169415
 30
0.0
 10
115.323790
 20
46.169234
 30
0.0
 10
115.323790
 20
46.169234
 30
0.0
  0
SPLINE
  5
22c
100
AcDbEntity
  8
0
 62
1
100
AcDbSpline
 70
8
 71
3
 72
8
 73
4
 74
0
 40
0
 40
0
 40
0
 40
0
 40
1
 40
1
 40
1
 40
1
 10
120.873676
 20
45.669349
 30
0.0
 10
120.599569
 20
45.669349
 30
0.0
 10
120.373792
 20
45.895126
 30
0.0
 10
120.373792
 20
46.169234
 30
0.0
  0
LWPOLYLINE
  5
22d
100
AcDbEntity
  8
0
 62
1
100
AcDbPolyline
 90
2
 70
0
 10
133.873505
 20
45.669349
 30
0.0
 10
120.873676
 20
45.669349
 30
0.0
  0
SPLINE
  5
22e
100
AcDbEntity
  8
0
 62
1
100
AcDbSpline
 70
8
 71
3
 72
8
 73
4
 74
0
 40
0
 40
0
 40
0
 40
0
 40
1
 40
1
 40
1
 40
1
 10
120.373792
 20
59.169415
 30
0.0
 10
120.373792
 20
59.443523
 30
0.0
 10
120.599569
 20
59.669300
 30
0.0
 10
120.873676
 20
59.669300
 30
0.0
  0
LWPOLYLINE
  5
22f
100
AcDbEntity
  8
0
 62
1
100
AcDbPolyline
 90
2
 70
0
 10
120.373792
 20
46.169234
 30
0.0
 10
120.373792
 20
59.169415
 30
0.0
  0
SPLINE
  5
230
100
AcDbEntity
  8
0
 62
1
100
AcDbSpline
 70
8
 71
3
 72
8
 73
4
 74
0
 40
0
 40
0
 40
0
 40
0
 40
1
 40
1
 40
1
 40
1
 10
133.873505
 20
59.669300
 30
0.0
 10
134.147965
 20
59.669300
 30
0.0
 10
134.373743
 20
59.443523
 30
0.0
 10
134.373743
 20
59.169415
 30
0.0
  0
LWPOLYLINE
  5
231
100
AcDbEntity
  8
0
 62
1
100
AcDbPolyline
 90
2
 70
0
 10
120.873676
 20
59.669300
 30
0.0
 10
133.873505
 20
59.669300
 30
0.0
  0
SPLINE
  5
232
100
AcDbEntity
  8
0
 62
1
100
AcDbSpline
 70
8
 71
3
 72
8
 73
4
 74
0
 40
0
 40
0
 40
0
 40
0
 40
1
 40
1
 40
1
 40
1
 10
63.723819
 20
45.669349
 30
0.0
 10
63.449712
 20
45.669349
 30
0.0
 10
63.223934
 20
45.895126
 30
0.0
 10
63.223934
 20
46.169234
 30
0.0
  0
LWPOLYLINE
  5
233
100
AcDbEntity
  8
0
 62
1
100
AcDbPolyline
 90
3
 70
0
 10
134.373743
 20
59.169415
 30
0.0
 10
134.373743
 20
46.169234
 30
0.0
 10
134.373743
 20
46.169234
 30
0.0
  0
SPLINE
  5
234
100
AcDbEntity
  8
0
 62
1
100
AcDbSpline
 70
8
 71
3
 72
8
 73
4
 74
0
 40
0
 40
0
 40
0
 40
0
 40
1
 40
1
 40
1
 40
1
 10
63.223934
 20
59.169415
 30
0.0
 10
63.223934
 20
59.443523
 30
0.0
 10
63.449712
 20
59.669300
 30
0.0
 10
63.723819
 20
59.669300
 30
0.0
  0
LWPOLYLINE
  5
235
100
AcDbEntity
  8
0
 62
1
100
AcDbPolyline
 90
2
 70
0
 10
63.223934
 20
46.169234
 30
0.0
 10
63.223934
 20
59.169415
 30
0.0
  0
SPLINE
  5
236
100
AcDbEntity
  8
0
 62
1
100
AcDbSpline
 70
8
 71
3
 72
8
 73
4
 74
0
 40
0
 40
0
 40
0
 40
0
 40
1
 40
1
 40
1
 40
1
 10
76.723648
 20
59.669300
 30
0.0
 10
76.998108
 20
59.669300
 30
0.0
 10
77.223886
 20
59.443523
 30
0.0
 10
77.223886
 20
59.169415
 30
0.0
  0
LWPOLYLINE
  5
237
100
AcDbEntity
  8
0
 62
1
100
AcDbPolyline
 90
2
 70
0
 10
63.723819
 20
59.669300
 30
0.0
 10
76.723648
 20
59.669300
 30
0.0
  0
SPLINE
  5
238
100
AcDbEntity
  8
0
 62
1
100
AcDbSpline
 70
8
 71
3
 72
8
 73
4
 74
0
 40
0
 40
0
 40
0
 40
0
 40
1
 40
1
 40
1
 40
1
 10
77.223886
 20
46.169234
 30
0.0
 10
77.223886
 20
45.895126
 30
0.0
 10
76.998108
 20
45.669349
 30
0.0
 10
76.723648
 20
45.669349
 30
0.0
  0
LWPOLYLINE
  5
239
100
AcDbEntity
  8
0
 62
1
100
AcDbPolyline
 90
2
 70
0
 10
77.223886
 20
59.169415
 30
0.0
 10
77.223886
 20
46.169234
 30
0.0
  0
SPLINE
  5
23a
100
AcDbEntity
  8
0
 62
1
100
AcDbSpline
 70
8
 71
3
 72
8
 73
4
 74
0
 40
0
 40
0
 40
0
 40
0
 40
1
 40
1
 40
1
 40
1
 10
153.423695
 20
46.169234
 30
0.0
 10
153.423695
 20
45.895126
 30
0.0
 10
153.197918
 20
45.669349
 30
0.0
 10
152.923457
 20
45.669349
 30
0.0
  0
LWPOLYLINE
  5
23b
100
AcDbEntity
  8
0
 62
1
100
AcDbPolyline
 90
3
 70
0
 10
76.723648
 20
45.669349
 30
0.0
 10
63.723819
 20
45.669349
 30
0.0
 10
63.723819
 20
45.669349
 30
0.0
  0
SPLINE
  5
23c
100
AcDbEntity
  8
0
 62
1
100
AcDbSpline
 70
8
 71
3
 72
8
 73
4
 74
0
 40
0
 40
0
 40
0
 40
0
 40
1
 40
1
 40
1
 40
1
 10
139.923629
 20
45.669349
 30
0.0
 10
139.649521
 20
45.669349
 30
0.0
 10
139.423744
 20
45.895126
 30
0.0
 10
139.423744
 20
46.169234
 30
0.0
  0
LWPOLYLINE
  5
23d
100
AcDbEntity
  8
0
 62
1
100
AcDbPolyline
 90
2
 70
0
 10
152.923457
 20
45.669349
 30
0.0
 10
139.923629
 20
45.669349
 30
0.0
  0
SPLINE
  5
23e
100
AcDbEntity
  8
0
 62
1
100
AcDbSpline
 70
8
 71
3
 72
8
 73
4
 74
0
 40
0
 40
0
 40
0
 40
0
 40
1
 40
1
 40
1
 40
1
 10
139.423744
 20
59.169415
 30
0.0
 10
139.423744
 20
59.443523
 30
0.0
 10
139.649521
 20
59.669300
 30
0.0
 10
139.923629
 20
59.669300
 30
0.0
  0
LWPOLYLINE
  5
23f
100
AcDbEntity
  8
0
 62
1
100
AcDbPolyline
 90
2
 70
0
 10
139.423744
 20
46.169234
 30
0.0
 10
139.423744
 20
59.169415
 30
0.0
  0
SPLINE
  5
240
100
AcDbEntity
  8
0
 62
1
100
AcDbSpline
 70
8
 71
3
 72
8
 73
4
 74
0
 40
0
 40
0
 40
0
 40
0
 40
1
 40
1
 40
1
 40
1
 10
152.923457
 20
59.669300
 30
0.0
 10
153.197918
 20
59.669300
 30
0.0
 10
153.423695
 20
59.443523
 30
0.0
 10
153.423695
 20
59.169415
 30
0.0
  0
LWPOLYLINE
  5
241
100
AcDbEntity
  8
0
 62
1
100
AcDbPolyline
 90
2
 70
0
 10
139.923629
 20
59.669300
 30
0.0
 10
152.923457
 20
59.669300
 30
0.0
  0
SPLINE
  5
242
100
AcDbEntity
  8
0
 62
1
100
AcDbSpline
 70
8
 71
3
 72
8
 73
4
 74
0
 40
0
 40
0
 40
0
 40
0
 40
1
 40
1
 40
1
 40
1
 10
229.623505
 20
46.169234
 30
0.0
 10
229.623505
 20
45.895126
 30
0.0
 10
229.397727
 20
45.669349
 30
0.0
 10
229.123267
 20
45.669349
 30
0.0
  0
LWPOLYLINE
  5
243
100
AcDbEntity
  8
0
 62
1
100
AcDbPolyline
 90
3
 70
0
 10
153.423695
 20
59.169415
 30
0.0
 10
153.423695
 20
46.169234
 30
0.0
 10
153.423695
 20
46.169234
 30
0.0
  0
SPLINE
  5
244
100
AcDbEntity
  8
0
 62
1
100
AcDbSpline
 70
8
 71
3
 72
8
 73
4
 74
0
 40
0
 40
0
 40
0
 40
0
 40
1
 40
1
 40
1
 40
1
 10
216.123438
 20
45.669349
 30
0.0
 10
215.849331
 20
45.669349
 30
0.0
 10
215.623553
 20
45.895126
 30
0.0
 10
215.623553
 20
46.169234
 30
0.0
  0
LWPOLYLINE
  5
245
100
AcDbEntity
  8
0
 62
1
100
AcDbPolyline
 90
2
 70
0
 10
229.123267
 20
45.669349
 30
0.0
 10
216.123438
 20
45.669349
 30
0.0
  0
SPLINE
  5
246
100
AcDbEntity
  8
0
 62
1
100
AcDbSpline
 70
8
 71
3
 72
8
 73
4
 74
0
 40
0
 40
0
 40
0
 40
0
 40
1
 40
1
 40
1
 40
1
 10
215.623553
 20
59.169415
 30
0.0
 10
215.623553
 20
59.443523
 30
0.0
 10
215.849331
 20
59.669300
 30
0.0
 10
216.123438
 20
59.669300
 30
0.0
  0
LWPOLYLINE
  5
247
100
AcDbEntity
  8
0
 62
1
100
AcDbPolyline
 90
2
 70
0
 10
215.623553
 20
46.169234
 30
0.0
 10
215.623553
 20
59.169415
 30
0.0
  0
SPLINE
  5
248
100
AcDbEntity
  8
0
 62
1
100
AcDbSpline
 70
8
 71
3
 72
8
 73
4
 74
0
 40
0
 40
0
 40
0
 40
0
 40
1
 40
1
 40
1
 40
1
 10
229.123267
 20
59.669300
 30
0.0
 10
229.397727
 20
59.669300
 30
0.0
 10
229.623505
 20
59.443523
 30
0.0
 10
229.623505
 20
59.169415
 30
0.0
  0
LWPOLYLINE
  5
249
100
AcDbEntity
  8
0
 62
1
100
AcDbPolyline
 90
2
 70
0
 10
216.123438
 20
59.669300
 30
0.0
 10
229.123267
 20
59.669300
 30
0.0
  0
SPLINE
  5
24a
100
AcDbEntity
  8
0
 62
1
100
AcDbSpline
 70
8
 71
3
 72
8
 73
4
 74
0
 40
0
 40
0
 40
0
 40
0
 40
1
 40
1
 40
1
 40
1
 10
248.673457
 20
46.169234
 30
0.0
 10
248.673457
 20
45.895126
 30
0.0
 10
248.447680
 20
45.669349
 30
0.0
 10
248.173219
 20
45.669349
 30
0.0
  0
LWPOLYLINE
  5
24b
100
AcDbEntity
  8
0
 62
1
100
AcDbPolyline
 90
3
 70
0
 10
229.623505
 20
59.169415
 30
0.0
 10
229.623505
 20
46.169234
 30
0.0
 10
229.623505
 20
46.169234
 30
0.0
  0
SPLINE
  5
24c
100
AcDbEntity
  8
0
 62
1
100
AcDbSpline
 70
8
 71
3
 72
8
 73
4
 74
0
 40
0
 40
0
 40
0
 40
0
 40
1
 40
1
 40
1
 40
1
 10
235.173391
 20
45.669349
 30
0.0
 10
234.899283
 20
45.669349
 30
0.0
 10
234.673506
 20
45.895126
 30
0.0
 10
234.673506
 20
46.169234
 30
0.0
  0
LWPOLYLINE
  5
24d
100
AcDbEntity
  8
0
 62
1
100
AcDbPolyline
 90
2
 70
0
 10
248.173219
 20
45.669349
 30
0.0
 10
235.173391
 20
45.669349
 30
0.0
  0
SPLINE
  5
24e
100
AcDbEntity
  8
0
 62
1
100
AcDbSpline
 70
8
 71
3
 72
8
 73
4
 74
0
 40
0
 40
0
 40
0
 40
0
 40
1
 40
1
 40
1
 40
1
 10
234.673506
 20
59.169415
 30
0.0
 10
234.673506
 20
59.443523
 30
0.0
 10
234.899283
 20
59.669300
 30
0.0
 10
235.173391
 20
59.669300
 30
0.0
  0
LWPOLYLINE
  5
24f
100
AcDbEntity
  8
0
 62
1
100
AcDbPolyline
 90
2
 70
0
 10
234.673506
 20
46.169234
 30
0.0
 10
234.673506
 20
59.169415
 30
0.0
  0
SPLINE
  5
250
100
AcDbEntity
  8
0
 62
1
100
AcDbSpline
 70
8
 71
3
 72
8
 73
4
 74
0
 40
0
 40
0
 40
0
 40
0
 40
1
 40
1
 40
1
 40
1
 10
248.173219
 20
59.669300
 30
0.0
 10
248.447680
 20
59.669300
 30
0.0
 10
248.673457
 20
59.443523
 30
0.0
 10
248.673457
 20
59.169415
 30
0.0
  0
LWPOLYLINE
  5
251
100
AcDbEntity
  8
0
 62
1
100
AcDbPolyline
 90
2
 70
0
 10
235.173391
 20
59.669300
 30
0.0
 10
248.173219
 20
59.669300
 30
0.0
  0
LWPOLYLINE
  5
252
100
AcDbEntity
  8
0
 62
1
100
AcDbPolyline
 90
3
 70
0
 10
248.673457
 20
59.169415
 30
0.0
 10
248.673457
 20
46.169234
 30
0.0
 10
248.673457
 20
46.169234
 30
0.0
  0
SPLINE
  5
253
100
AcDbEntity
  8
0
 62
1
100
AcDbSpline
 70
8
 71
3
 72
8
 73
4
 74
0
 40
0
 40
0
 40
0
 40
0
 40
1
 40
1
 40
1
 40
1
 10
254.075530
 20
45.691927
 30
0.0
 10
254.114335
 20
45.679580
 30
0.0
 10
254.155257
 20
45.672171
 30
0.0
 10
254.197943
 20
45.670055
 30
0.0
  0
LWPOLYLINE
  5
254
100
AcDbEntity
  8
0
 62
1
100
AcDbPolyline
 90
3
 70
0
 10
253.939710
 20
45.758954
 30
0.0
 10
254.002152
 20
45.721560
 30
0.0
 10
254.075530
 20
45.691927
 30
0.0
  0
SPLINE
  5
255
100
AcDbEntity
  8
0
 62
1
100
AcDbSpline
 70
8
 71
3
 72
8
 73
4
 74
0
 40
0
 40
0
 40
0
 40
0
 40
1
 40
1
 40
1
 40
1
 10
310.098617
 20
45.669349
 30
0.0
 10
310.367080
 20
45.676405
 30
0.0
 10
310.585802
 20
45.899360
 30
0.0
 10
310.585802
 20
46.169234
 30
0.0
  0
LWPOLYLINE
  5
256
100
AcDbEntity
  8
0
 62
1
100
AcDbPolyline
 90
4
 70
0
 10
254.197943
 20
45.670055
 30
0.0
 10
254.223343
 20
45.669349
 30
0.0
 10
310.085565
 20
45.669349
 30
0.0
 10
310.098617
 20
45.669349
 30
0.0
  0
SPLINE
  5
257
100
AcDbEntity
  8
0
 62
1
100
AcDbSpline
 70
8
 71
3
 72
8
 73
4
 74
0
 40
0
 40
0
 40
0
 40
0
 40
1
 40
1
 40
1
 40
1
 10
310.585802
 20
59.169415
 30
0.0
 10
310.585802
 20
59.443523
 30
0.0
 10
310.360025
 20
59.669300
 30
0.0
 10
310.085565
 20
59.669300
 30
0.0
  0
LWPOLYLINE
  5
258
100
AcDbEntity
  8
0
 62
1
100
AcDbPolyline
 90
2
 70
0
 10
310.585802
 20
46.169234
 30
0.0
 10
310.585802
 20
59.169415
 30
0.0
  0
SPLINE
  5
259
100
AcDbEntity
  8
0
 62
1
100
AcDbSpline
 70
8
 71
3
 72
8
 73
4
 74
0
 40
0
 40
0
 40
0
 40
0
 40
1
 40
1
 40
1
 40
1
 10
307.117300
 20
61.169308
 30
0.0
 10
307.117300
 20
61.443415
 30
0.0
 10
306.891875
 20
61.669192
 30
0.0
 10
306.617415
 20
61.669192
 30
0.0
  0
LWPOLYLINE
  5
25a
100
AcDbEntity
  8
0
 62
1
100
AcDbPolyline
 90
3
 70
0
 10
310.085565
 20
59.669300
 30
0.0
 10
307.117300
 20
59.669300
 30
0.0
 10
307.117300
 20
61.169308
 30
0.0
  0
SPLINE
  5
25b
100
AcDbEntity
  8
0
 62
1
100
AcDbSpline
 70
8
 71
3
 72
8
 73
4
 74
0
 40
0
 40
0
 40
0
 40
0
 40
1
 40
1
 40
1
 40
1
 10
300.617385
 20
61.669192
 30
0.0
 10
300.343278
 20
61.669192
 30
0.0
 10
300.117501
 20
61.443415
 30
0.0
 10
300.117501
 20
61.169308
 30
0.0
  0
LWPOLYLINE
  5
25c
100
AcDbEntity
  8
0
 62
1
100
AcDbPolyline
 90
2
 70
0
 10
306.617415
 20
61.669192
 30
0.0
 10
300.617385
 20
61.669192
 30
0.0
  0
SPLINE
  5
25d
100
AcDbEntity
  8
0
 62
1
100
AcDbSpline
 70
8
 71
3
 72
8
 73
4
 74
0
 40
0
 40
0
 40
0
 40
0
 40
1
 40
1
 40
1
 40
1
 10
288.067347
 20
61.169308
 30
0.0
 10
288.067347
 20
61.443415
 30
0.0
 10
287.841923
 20
61.669192
 30
0.0
 10
287.567462
 20
61.669192
 30
0.0
  0
LWPOLYLINE
  5
25e
100
AcDbEntity
  8
0
 62
1
100
AcDbPolyline
 90
4
 70
0
 10
300.117501
 20
61.169308
 30
0.0
 10
300.117501
 20
59.669300
 30
0.0
 10
288.067347
 20
59.669300
 30
0.0
 10
288.067347
 20
61.169308
 30
0.0
  0
SPLINE
  5
25f
100
AcDbEntity
  8
0
 62
1
100
AcDbSpline
 70
8
 71
3
 72
8
 73
4
 74
0
 40
0
 40
0
 40
0
 40
0
 40
1
 40
1
 40
1
 40
1
 10
276.741445
 20
61.669192
 30
0.0
 10
276.467337
 20
61.669192
 30
0.0
 10
276.241560
 20
61.443415
 30
0.0
 10
276.241560
 20
61.169308
 30
0.0
  0
LWPOLYLINE
  5
260
100
AcDbEntity
  8
0
 62
1
100
AcDbPolyline
 90
2
 70
0
 10
287.567462
 20
61.669192
 30
0.0
 10
276.741445
 20
61.669192
 30
0.0
  0
SPLINE
  5
261
100
AcDbEntity
  8
0
 62
1
100
AcDbSpline
 70
8
 71
3
 72
8
 73
4
 74
0
 40
0
 40
0
 40
0
 40
0
 40
1
 40
1
 40
1
 40
1
 10
264.191407
 20
61.169308
 30
0.0
 10
264.191407
 20
61.443415
 30
0.0
 10
263.965983
 20
61.669192
 30
0.0
 10
263.691522
 20
61.669192
 30
0.0
  0
LWPOLYLINE
  5
262
100
AcDbEntity
  8
0
 62
1
100
AcDbPolyline
 90
4
 70
0
 10
276.241560
 20
61.169308
 30
0.0
 10
276.241560
 20
59.669300
 30
0.0
 10
264.191407
 20
59.669300
 30
0.0
 10
264.191407
 20
61.169308
 30
0.0
  0
SPLINE
  5
263
100
AcDbEntity
  8
0
 62
1
100
AcDbSpline
 70
8
 71
3
 72
8
 73
4
 74
0
 40
0
 40
0
 40
0
 40
0
 40
1
 40
1
 40
1
 40
1
 10
257.691493
 20
61.669192
 30
0.0
 10
257.417385
 20
61.669192
 30
0.0
 10
257.191608
 20
61.443415
 30
0.0
 10
257.191608
 20
61.169308
 30
0.0
  0
LWPOLYLINE
  5
264
100
AcDbEntity
  8
0
 62
1
100
AcDbPolyline
 90
2
 70
0
 10
263.691522
 20
61.669192
 30
0.0
 10
257.691493
 20
61.669192
 30
0.0
  0
SPLINE
  5
265
100
AcDbEntity
  8
0
 62
1
100
AcDbSpline
 70
8
 71
3
 72
8
 73
4
 74
0
 40
0
 40
0
 40
0
 40
0
 40
1
 40
1
 40
1
 40
1
 10
254.135502
 20
59.661539
 30
0.0
 10
254.087877
 20
59.652720
 30
0.0
 10
254.042369
 20
59.637550
 30
0.0
 10
254.000388
 20
59.616384
 30
0.0
  0
LWPOLYLINE
  5
266
100
AcDbEntity
  8
0
 62
1
100
AcDbPolyline
 90
4
 70
0
 10
257.191608
 20
61.169308
 30
0.0
 10
257.191608
 20
59.669300
 30
0.0
 10
254.223343
 20
59.669300
 30
0.0
 10
254.135502
 20
59.661539
 30
0.0
  0
SPLINE
  5
267
100
AcDbEntity
  8
0
 62
1
100
AcDbSpline
 70
8
 71
3
 72
8
 73
4
 74
0
 40
0
 40
0
 40
0
 40
0
 40
1
 40
1
 40
1
 40
1
 10
253.830702
 20
59.477037
 30
0.0
 10
253.805655
 20
59.445640
 30
0.0
 10
253.784489
 20
59.411068
 30
0.0
 10
253.767908
 20
59.374379
 30
0.0
  0
LWPOLYLINE
  5
268
100
AcDbEntity
  8
0
 62
1
100
AcDbPolyline
 90
4
 70
0
 10
254.000388
 20
59.616384
 30
0.0
 10
253.975341
 20
59.602625
 30
0.0
 10
253.897024
 20
59.546887
 30
0.0
 10
253.830702
 20
59.477037
 30
0.0
  0
SPLINE
  5
269
100
AcDbEntity
  8
0
 62
1
100
AcDbSpline
 70
8
 71
3
 72
8
 73
4
 74
0
 40
0
 40
0
 40
0
 40
0
 40
1
 40
1
 40
1
 40
1
 10
253.723458
 20
46.169234
 30
0.0
 10
253.723458
 20
46.025654
 30
0.0
 10
253.785194
 20
45.895126
 30
0.0
 10
253.883619
 20
45.803757
 30
0.0
  0
LWPOLYLINE
  5
26a
100
AcDbEntity
  8
0
 62
1
100
AcDbPolyline
 90
5
 70
0
 10
253.767908
 20
59.374379
 30
0.0
 10
253.758383
 20
59.351801
 30
0.0
 10
253.731219
 20
59.257257
 30
0.0
 10
253.723458
 20
59.169415
 30
0.0
 10
253.723458
 20
46.169234
 30
0.0
  0
SPLINE
  5
26b
100
AcDbEntity
  8
0
 62
1
100
AcDbSpline
 70
8
 71
3
 72
8
 73
4
 74
0
 40
0
 40
0
 40
0
 40
0
 40
1
 40
1
 40
1
 40
1
 10
96.273838
 20
46.169234
 30
0.0
 10
96.273838
 20
45.895126
 30
0.0
 10
96.048061
 20
45.669349
 30
0.0
 10
95.773600
 20
45.669349
 30
0.0
  0
LWPOLYLINE
  5
26c
100
AcDbEntity
  8
0
 62
1
100
AcDbPolyline
 90
3
 70
0
 10
253.883619
 20
45.803757
 30
0.0
 10
253.939710
 20
45.758954
 30
0.0
 10
253.939710
 20
45.758954
 30
0.0
  0
SPLINE
  5
26d
100
AcDbEntity
  8
0
 62
1
100
AcDbSpline
 70
8
 71
3
 72
8
 73
4
 74
0
 40
0
 40
0
 40
0
 40
0
 40
1
 40
1
 40
1
 40
1
 10
82.773772
 20
45.669349
 30
0.0
 10
82.499664
 20
45.669349
 30
0.0
 10
82.273887
 20
45.895126
 30
0.0
 10
82.273887
 20
46.169234
 30
0.0
  0
LWPOLYLINE
  5
26e
100
AcDbEntity
  8
0
 62
1
100
AcDbPolyline
 90
2
 70
0
 10
95.773600
 20
45.669349
 30
0.0
 10
82.773772
 20
45.669349
 30
0.0
  0
SPLINE
  5
26f
100
AcDbEntity
  8
0
 62
1
100
AcDbSpline
 70
8
 71
3
 72
8
 73
4
 74
0
 40
0
 40
0
 40
0
 40
0
 40
1
 40
1
 40
1
 40
1
 10
82.273887
 20
59.169415
 30
0.0
 10
82.273887
 20
59.443523
 30
0.0
 10
82.499664
 20
59.669300
 30
0.0
 10
82.773772
 20
59.669300
 30
0.0
  0
LWPOLYLINE
  5
270
100
AcDbEntity
  8
0
 62
1
100
AcDbPolyline
 90
2
 70
0
 10
82.273887
 20
46.169234
 30
0.0
 10
82.273887
 20
59.169415
 30
0.0
  0
SPLINE
  5
271
100
AcDbEntity
  8
0
 62
1
100
AcDbSpline
 70
8
 71
3
 72
8
 73
4
 74
0
 40
0
 40
0
 40
0
 40
0
 40
1
 40
1
 40
1
 40
1
 10
95.773600
 20
59.669300
 30
0.0
 10
96.048061
 20
59.669300
 30
0.0
 10
96.273838
 20
59.443523
 30
0.0
 10
96.273838
 20
59.169415
 30
0.0
  0
LWPOLYLINE
  5
272
100
AcDbEntity
  8
0
 62
1
100
AcDbPolyline
 90
2
 70
0
 10
82.773772
 20
59.669300
 30
0.0
 10
95.773600
 20
59.669300
 30
0.0
  0
LWPOLYLINE
  5
273
100
AcDbEntity
  8
0
 62
1
100
AcDbPolyline
 90
3
 70
0
 10
96.273838
 20
59.169415
 30
0.0
 10
96.273838
 20
46.169234
 30
0.0
 10
96.273838
 20
46.169234
 30
0.0
  0
SPLINE
  5
274
100
AcDbEntity
  8
0
 62
1
100
AcDbSpline
 70
8
 71
3
 72
8
 73
4
 74
0
 40
0
 40
0
 40
0
 40
0
 40
1
 40
1
 40
1
 40
1
 10
253.934772
 20
45.762129
 30
0.0
 10
253.937947
 20
45.759660
 30
0.0
 10
253.941122
 20
45.757543
 30
0.0
 10
253.944649
 20
45.755074
 30
0.0
  0
LWPOLYLINE
  5
275
100
AcDbEntity
  8
0
 62
1
100
AcDbPolyline
 90
2
 70
0
 10
253.939710
 20
45.758954
 30
0.0
 10
253.934772
 20
45.762129
 30
0.0
  0
SPLINE
  5
276
100
AcDbEntity
  8
0
 62
1
100
AcDbSpline
 70
8
 71
3
 72
8
 73
4
 74
0
 40
0
 40
0
 40
0
 40
0
 40
1
 40
1
 40
1
 40
1
 10
248.673457
 20
65.219186
 30
0.0
 10
248.673457
 20
64.945079
 30
0.0
 10
248.447680
 20
64.719301
 30
0.0
 10
248.173219
 20
64.719301
 30
0.0
  0
LWPOLYLINE
  5
277
100
AcDbEntity
  8
0
 62
1
100
AcDbPolyline
 90
3
 70
0
 10
253.944649
 20
45.755074
 30
0.0
 10
253.939710
 20
45.758954
 30
0.0
 10
253.939710
 20
45.758954
 30
0.0
  0
SPLINE
  5
278
100
AcDbEntity
  8
0
 62
1
100
AcDbSpline
 70
8
 71
3
 72
8
 73
4
 74
0
 40
0
 40
0
 40
0
 40
0
 40
1
 40
1
 40
1
 40
1
 10
235.173391
 20
64.719301
 30
0.0
 10
234.899283
 20
64.719301
 30
0.0
 10
234.673506
 20
64.945079
 30
0.0
 10
234.673506
 20
65.219186
 30
0.0
  0
LWPOLYLINE
  5
279
100
AcDbEntity
  8
0
 62
1
100
AcDbPolyline
 90
2
 70
0
 10
248.173219
 20
64.719301
 30
0.0
 10
235.173391
 20
64.719301
 30
0.0
  0
SPLINE
  5
27a
100
AcDbEntity
  8
0
 62
1
100
AcDbSpline
 70
8
 71
3
 72
8
 73
4
 74
0
 40
0
 40
0
 40
0
 40
0
 40
1
 40
1
 40
1
 40
1
 10
234.673506
 20
78.219368
 30
0.0
 10
234.673506
 20
78.493475
 30
0.0
 10
234.899283
 20
78.719253
 30
0.0
 10
235.173391
 20
78.719253
 30
0.0
  0
LWPOLYLINE
  5
27b
100
AcDbEntity
  8
0
 62
1
100
AcDbPolyline
 90
2
 70
0
 10
234.673506
 20
65.219186
 30
0.0
 10
234.673506
 20
78.219368
 30
0.0
  0
SPLINE
  5
27c
100
AcDbEntity
  8
0
 62
1
100
AcDbSpline
 70
8
 71
3
 72
8
 73
4
 74
0
 40
0
 40
0
 40
0
 40
0
 40
1
 40
1
 40
1
 40
1
 10
248.173219
 20
78.719253
 30
0.0
 10
248.447680
 20
78.719253
 30
0.0
 10
248.673457
 20
78.493475
 30
0.0
 10
248.673457
 20
78.219368
 30
0.0
  0
LWPOLYLINE
  5
27d
100
AcDbEntity
  8
0
 62
1
100
AcDbPolyline
 90
2
 70
0
 10
235.173391
 20
78.719253
 30
0.0
 10
248.173219
 20
78.719253
 30
0.0
  0
SPLINE
  5
27e
100
AcDbEntity
  8
0
 62
1
100
AcDbSpline
 70
8
 71
3
 72
8
 73
4
 74
0
 40
0
 40
0
 40
0
 40
0
 40
1
 40
1
 40
1
 40
1
 10
229.623505
 20
65.219186
 30
0.0
 10
229.623505
 20
64.945079
 30
0.0
 10
229.397727
 20
64.719301
 30
0.0
 10
229.123267
 20
64.719301
 30
0.0
  0
LWPOLYLINE
  5
27f
100
AcDbEntity
  8
0
 62
1
100
AcDbPolyline
 90
3
 70
0
 10
248.673457
 20
78.219368
 30
0.0
 10
248.673457
 20
65.219186
 30
0.0
 10
248.673457
 20
65.219186
 30
0.0
  0
SPLINE
  5
280
100
AcDbEntity
  8
0
 62
1
100
AcDbSpline
 70
8
 71
3
 72
8
 73
4
 74
0
 40
0
 40
0
 40
0
 40
0
 40
1
 40
1
 40
1
 40
1
 10
216.123438
 20
64.719301
 30
0.0
 10
215.849331
 20
64.719301
 30
0.0
 10
215.623553
 20
64.945079
 30
0.0
 10
215.623553
 20
65.219186
 30
0.0
  0
LWPOLYLINE
  5
281
100
AcDbEntity
  8
0
 62
1
100
AcDbPolyline
 90
2
 70
0
 10
229.123267
 20
64.719301
 30
0.0
 10
216.123438
 20
64.719301
 30
0.0
  0
SPLINE
  5
282
100
AcDbEntity
  8
0
 62
1
100
AcDbSpline
 70
8
 71
3
 72
8
 73
4
 74
0
 40
0
 40
0
 40
0
 40
0
 40
1
 40
1
 40
1
 40
1
 10
215.623553
 20
78.219368
 30
0.0
 10
215.623553
 20
78.493475
 30
0.0
 10
215.849331
 20
78.719253
 30
0.0
 10
216.123438
 20
78.719253
 30
0.0
  0
LWPOLYLINE
  5
283
100
AcDbEntity
  8
0
 62
1
100
AcDbPolyline
 90
2
 70
0
 10
215.623553
 20
65.219186
 30
0.0
 10
215.623553
 20
78.219368
 30
0.0
  0
SPLINE
  5
284
100
AcDbEntity
  8
0
 62
1
100
AcDbSpline
 70
8
 71
3
 72
8
 73
4
 74
0
 40
0
 40
0
 40
0
 40
0
 40
1
 40
1
 40
1
 40
1
 10
229.123267
 20
78.719253
 30
0.0
 10
229.397727
 20
78.719253
 30
0.0
 10
229.623505
 20
78.493475
 30
0.0
 10
229.623505
 20
78.219368
 30
0.0
  0
LWPOLYLINE
  5
285
100
AcDbEntity
  8
0
 62
1
100
AcDbPolyline
 90
2
 70
0
 10
216.123438
 20
78.719253
 30
0.0
 10
229.123267
 20
78.719253
 30
0.0
  0
SPLINE
  5
286
100
AcDbEntity
  8
0
 62
1
100
AcDbSpline
 70
8
 71
3
 72
8
 73
4
 74
0
 40
0
 40
0
 40
0
 40
0
 40
1
 40
1
 40
1
 40
1
 10
191.523600
 20
65.219186
 30
0.0
 10
191.523600
 20
64.945079
 30
0.0
 10
191.297823
 20
64.719301
 30
0.0
 10
191.023362
 20
64.719301
 30
0.0
  0
LWPOLYLINE
  5
287
100
AcDbEntity
  8
0
 62
1
100
AcDbPolyline
 90
3
 70
0
 10
229.623505
 20
78.219368
 30
0.0
 10
229.623505
 20
65.219186
 30
0.0
 10
229.623505
 20
65.219186
 30
0.0
  0
SPLINE
  5
288
100
AcDbEntity
  8
0
 62
1
100
AcDbSpline
 70
8
 71
3
 72
8
 73
4
 74
0
 40
0
 40
0
 40
0
 40
0
 40
1
 40
1
 40
1
 40
1
 10
178.023534
 20
64.719301
 30
0.0
 10
177.749426
 20
64.719301
 30
0.0
 10
177.523649
 20
64.945079
 30
0.0
 10
177.523649
 20
65.219186
 30
0.0
  0
LWPOLYLINE
  5
289
100
AcDbEntity
  8
0
 62
1
100
AcDbPolyline
 90
2
 70
0
 10
191.023362
 20
64.719301
 30
0.0
 10
178.023534
 20
64.719301
 30
0.0
  0
SPLINE
  5
28a
100
AcDbEntity
  8
0
 62
1
100
AcDbSpline
 70
8
 71
3
 72
8
 73
4
 74
0
 40
0
 40
0
 40
0
 40
0
 40
1
 40
1
 40
1
 40
1
 10
177.523649
 20
78.219368
 30
0.0
 10
177.523649
 20
78.493475
 30
0.0
 10
177.749426
 20
78.719253
 30
0.0
 10
178.023534
 20
78.719253
 30
0.0
  0
LWPOLYLINE
  5
28b
100
AcDbEntity
  8
0
 62
1
100
AcDbPolyline
 90
2
 70
0
 10
177.523649
 20
65.219186
 30
0.0
 10
177.523649
 20
78.219368
 30
0.0
  0
SPLINE
  5
28c
100
AcDbEntity
  8
0
 62
1
100
AcDbSpline
 70
8
 71
3
 72
8
 73
4
 74
0
 40
0
 40
0
 40
0
 40
0
 40
1
 40
1
 40
1
 40
1
 10
191.023362
 20
78.719253
 30
0.0
 10
191.297823
 20
78.719253
 30
0.0
 10
191.523600
 20
78.493475
 30
0.0
 10
191.523600
 20
78.219368
 30
0.0
  0
LWPOLYLINE
  5
28d
100
AcDbEntity
  8
0
 62
1
100
AcDbPolyline
 90
2
 70
0
 10
178.023534
 20
78.719253
 30
0.0
 10
191.023362
 20
78.719253
 30
0.0
  0
SPLINE
  5
28e
100
AcDbEntity
  8
0
 62
1
100
AcDbSpline
 70
8
 71
3
 72
8
 73
4
 74
0
 40
0
 40
0
 40
0
 40
0
 40
1
 40
1
 40
1
 40
1
 10
153.423695
 20
65.219186
 30
0.0
 10
153.423695
 20
64.945079
 30
0.0
 10
153.197918
 20
64.719301
 30
0.0
 10
152.923457
 20
64.719301
 30
0.0
  0
LWPOLYLINE
  5
28f
100
AcDbEntity
  8
0
 62
1
100
AcDbPolyline
 90
3
 70
0
 10
191.523600
 20
78.219368
 30
0.0
 10
191.523600
 20
65.219186
 30
0.0
 10
191.523600
 20
65.219186
 30
0.0
  0
SPLINE
  5
290
100
AcDbEntity
  8
0
 62
1
100
AcDbSpline
 70
8
 71
3
 72
8
 73
4
 74
0
 40
0
 40
0
 40
0
 40
0
 40
1
 40
1
 40
1
 40
1
 10
139.923629
 20
64.719301
 30
0.0
 10
139.649521
 20
64.719301
 30
0.0
 10
139.423744
 20
64.945079
 30
0.0
 10
139.423744
 20
65.219186
 30
0.0
  0
LWPOLYLINE
  5
291
100
AcDbEntity
  8
0
 62
1
100
AcDbPolyline
 90
2
 70
0
 10
152.923457
 20
64.719301
 30
0.0
 10
139.923629
 20
64.719301
 30
0.0
  0
SPLINE
  5
292
100
AcDbEntity
  8
0
 62
1
100
AcDbSpline
 70
8
 71
3
 72
8
 73
4
 74
0
 40
0
 40
0
 40
0
 40
0
 40
1
 40
1
 40
1
 40
1
 10
139.423744
 20
78.219368
 30
0.0
 10
139.423744
 20
78.493475
 30
0.0
 10
139.649521
 20
78.719253
 30
0.0
 10
139.923629
 20
78.719253
 30
0.0
  0
LWPOLYLINE
  5
293
100
AcDbEntity
  8
0
 62
1
100
AcDbPolyline
 90
2
 70
0
 10
139.423744
 20
65.219186
 30
0.0
 10
139.423744
 20
78.219368
 30
0.0
  0
SPLINE
  5
294
100
AcDbEntity
  8
0
 62
1
100
AcDbSpline
 70
8
 71
3
 72
8
 73
4
 74
0
 40
0
 40
0
 40
0
 40
0
 40
1
 40
1
 40
1
 40
1
 10
152.923457
 20
78.719253
 30
0.0
 10
153.197918
 20
78.719253
 30
0.0
 10
153.423695
 20
78.493475
 30
0.0
 10
153.423695
 20
78.219368
 30
0.0
  0
LWPOLYLINE
  5
295
100
AcDbEntity
  8
0
 62
1
100
AcDbPolyline
 90
2
 70
0
 10
139.923629
 20
78.719253
 30
0.0
 10
152.923457
 20
78.719253
 30
0.0
  0
SPLINE
  5
296
100
AcDbEntity
  8
0
 62
1
100
AcDbSpline
 70
8
 71
3
 72
8
 73
4
 74
0
 40
0
 40
0
 40
0
 40
0
 40
1
 40
1
 40
1
 40
1
 10
63.723819
 20
64.719301
 30
0.0
 10
63.449712
 20
64.719301
 30
0.0
 10
63.223934
 20
64.945079
 30
0.0
 10
63.223934
 20
65.219186
 30
0.0
  0
LWPOLYLINE
  5
297
100
AcDbEntity
  8
0
 62
1
100
AcDbPolyline
 90
3
 70
0
 10
153.423695
 20
78.219368
 30
0.0
 10
153.423695
 20
65.219186
 30
0.0
 10
153.423695
 20
65.219186
 30
0.0
  0
SPLINE
  5
298
100
AcDbEntity
  8
0
 62
1
100
AcDbSpline
 70
8
 71
3
 72
8
 73
4
 74
0
 40
0
 40
0
 40
0
 40
0
 40
1
 40
1
 40
1
 40
1
 10
63.223934
 20
78.219368
 30
0.0
 10
63.223934
 20
78.493475
 30
0.0
 10
63.449712
 20
78.719253
 30
0.0
 10
63.723819
 20
78.719253
 30
0.0
  0
LWPOLYLINE
  5
299
100
AcDbEntity
  8
0
 62
1
100
AcDbPolyline
 90
2
 70
0
 10
63.223934
 20
65.219186
 30
0.0
 10
63.223934
 20
78.219368
 30
0.0
  0
SPLINE
  5
29a
100
AcDbEntity
  8
0
 62
1
100
AcDbSpline
 70
8
 71
3
 72
8
 73
4
 74
0
 40
0
 40
0
 40
0
 40
0
 40
1
 40
1
 40
1
 40
1
 10
76.723648
 20
78.719253
 30
0.0
 10
76.998108
 20
78.719253
 30
0.0
 10
77.223886
 20
78.493475
 30
0.0
 10
77.223886
 20
78.219368
 30
0.0
  0
LWPOLYLINE
  5
29b
100
AcDbEntity
  8
0
 62
1
100
AcDbPolyline
 90
2
 70
0
 10
63.723819
 20
78.719253
 30
0.0
 10
76.723648
 20
78.719253
 30
0.0
  0
SPLINE
  5
29c
100
AcDbEntity
  8
0
 62
1
100
AcDbSpline
 70
8
 71
3
 72
8
 73
4
 74
0
 40
0
 40
0
 40
0
 40
0
 40
1
 40
1
 40
1
 40
1
 10
77.223886
 20
65.219186
 30
0.0
 10
77.223886
 20
64.945079
 30
0.0
 10
76.998108
 20
64.719301
 30
0.0
 10
76.723648
 20
64.719301
 30
0.0
  0
LWPOLYLINE
  5
29d
100
AcDbEntity
  8
0
 62
1
100
AcDbPolyline
 90
2
 70
0
 10
77.223886
 20
78.219368
 30
0.0
 10
77.223886
 20
65.219186
 30
0.0
  0
SPLINE
  5
29e
100
AcDbEntity
  8
0
 62
1
100
AcDbSpline
 70
8
 71
3
 72
8
 73
4
 74
0
 40
0
 40
0
 40
0
 40
0
 40
1
 40
1
 40
1
 40
1
 10
96.273838
 20
65.219186
 30
0.0
 10
96.273838
 20
64.945079
 30
0.0
 10
96.048061
 20
64.719301
 30
0.0
 10
95.773600
 20
64.719301
 30
0.0
  0
LWPOLYLINE
  5
29f
100
AcDbEntity
  8
0
 62
1
100
AcDbPolyline
 90
3
 70
0
 10
76.723648
 20
64.719301
 30
0.0
 10
63.723819
 20
64.719301
 30
0.0
 10
63.723819
 20
64.719301
 30
0.0
  0
SPLINE
  5
2a0
100
AcDbEntity
  8
0
 62
1
100
AcDbSpline
 70
8
 71
3
 72
8
 73
4
 74
0
 40
0
 40
0
 40
0
 40
0
 40
1
 40
1
 40
1
 40
1
 10
82.773772
 20
64.719301
 30
0.0
 10
82.499664
 20
64.719301
 30
0.0
 10
82.273887
 20
64.945079
 30
0.0
 10
82.273887
 20
65.219186
 30
0.0
  0
LWPOLYLINE
  5
2a1
100
AcDbEntity
  8
0
 62
1
100
AcDbPolyline
 90
2
 70
0
 10
95.773600
 20
64.719301
 30
0.0
 10
82.773772
 20
64.719301
 30
0.0
  0
SPLINE
  5
2a2
100
AcDbEntity
  8
0
 62
1
100
AcDbSpline
 70
8
 71
3
 72
8
 73
4
 74
0
 40
0
 40
0
 40
0
 40
0
 40
1
 40
1
 40
1
 40
1
 10
82.273887
 20
78.219368
 30
0.0
 10
82.273887
 20
78.493475
 30
0.0
 10
82.499664
 20
78.719253
 30
0.0
 10
82.773772
 20
78.719253
 30
0.0
  0
LWPOLYLINE
  5
2a3
100
AcDbEntity
  8
0
 62
1
100
AcDbPolyline
 90
2
 70
0
 10
82.273887
 20
65.219186
 30
0.0
 10
82.273887
 20
78.219368
 30
0.0
  0
SPLINE
  5
2a4
100
AcDbEntity
  8
0
 62
1
100
AcDbSpline
 70
8
 71
3
 72
8
 73
4
 74
0
 40
0
 40
0
 40
0
 40
0
 40
1
 40
1
 40
1
 40
1
 10
95.773600
 20
78.719253
 30
0.0
 10
96.048061
 20
78.719253
 30
0.0
 10
96.273838
 20
78.493475
 30
0.0
 10
96.273838
 20
78.219368
 30
0.0
  0
LWPOLYLINE
  5
2a5
100
AcDbEntity
  8
0
 62
1
100
AcDbPolyline
 90
2
 70
0
 10
82.773772
 20
78.719253
 30
0.0
 10
95.773600
 20
78.719253
 30
0.0
  0
SPLINE
  5
2a6
100
AcDbEntity
  8
0
 62
1
100
AcDbSpline
 70
8
 71
3
 72
8
 73
4
 74
0
 40
0
 40
0
 40
0
 40
0
 40
1
 40
1
 40
1
 40
1
 10
52.911207
 20
78.719253
 30
0.0
 10
53.185668
 20
78.719253
 30
0.0
 10
53.411445
 20
78.493475
 30
0.0
 10
53.411445
 20
78.219368
 30
0.0
  0
LWPOLYLINE
  5
2a7
100
AcDbEntity
  8
0
 62
1
100
AcDbPolyline
 90
3
 70
0
 10
96.273838
 20
78.219368
 30
0.0
 10
96.273838
 20
65.219186
 30
0.0
 10
96.273838
 20
65.219186
 30
0.0
  0
SPLINE
  5
2a8
100
AcDbEntity
  8
0
 62
1
100
AcDbSpline
 70
8
 71
3
 72
8
 73
4
 74
0
 40
0
 40
0
 40
0
 40
0
 40
1
 40
1
 40
1
 40
1
 10
53.411445
 20
65.219186
 30
0.0
 10
53.411445
 20
64.945079
 30
0.0
 10
53.185668
 20
64.719301
 30
0.0
 10
52.911207
 20
64.719301
 30
0.0
  0
LWPOLYLINE
  5
2a9
100
AcDbEntity
  8
0
 62
1
100
AcDbPolyline
 90
2
 70
0
 10
53.411445
 20
78.219368
 30
0.0
 10
53.411445
 20
65.219186
 30
0.0
  0
SPLINE
  5
2aa
100
AcDbEntity
  8
0
 62
1
100
AcDbSpline
 70
8
 71
3
 72
8
 73
4
 74
0
 40
0
 40
0
 40
0
 40
0
 40
1
 40
1
 40
1
 40
1
 10
39.911379
 20
64.719301
 30
0.0
 10
39.637271
 20
64.719301
 30
0.0
 10
39.411494
 20
64.945079
 30
0.0
 10
39.411494
 20
65.219186
 30
0.0
  0
LWPOLYLINE
  5
2ab
100
AcDbEntity
  8
0
 62
1
100
AcDbPolyline
 90
2
 70
0
 10
52.911207
 20
64.719301
 30
0.0
 10
39.911379
 20
64.719301
 30
0.0
  0
SPLINE
  5
2ac
100
AcDbEntity
  8
0
 62
1
100
AcDbSpline
 70
8
 71
3
 72
8
 73
4
 74
0
 40
0
 40
0
 40
0
 40
0
 40
1
 40
1
 40
1
 40
1
 10
39.411494
 20
78.219368
 30
0.0
 10
39.411494
 20
78.493475
 30
0.0
 10
39.637271
 20
78.719253
 30
0.0
 10
39.911379
 20
78.719253
 30
0.0
  0
LWPOLYLINE
  5
2ad
100
AcDbEntity
  8
0
 62
1
100
AcDbPolyline
 90
2
 70
0
 10
39.411494
 20
65.219186
 30
0.0
 10
39.411494
 20
78.219368
 30
0.0
  0
SPLINE
  5
2ae
100
AcDbEntity
  8
0
 62
1
100
AcDbSpline
 70
8
 71
3
 72
8
 73
4
 74
0
 40
0
 40
0
 40
0
 40
0
 40
1
 40
1
 40
1
 40
1
 10
210.573552
 20
65.219186
 30
0.0
 10
210.573552
 20
64.945079
 30
0.0
 10
210.347775
 20
64.719301
 30
0.0
 10
210.073315
 20
64.719301
 30
0.0
  0
LWPOLYLINE
  5
2af
100
AcDbEntity
  8
0
 62
1
100
AcDbPolyline
 90
3
 70
0
 10
39.911379
 20
78.719253
 30
0.0
 10
52.911207
 20
78.719253
 30
0.0
 10
52.911207
 20
78.719253
 30
0.0
  0
SPLINE
  5
2b0
100
AcDbEntity
  8
0
 62
1
100
AcDbSpline
 70
8
 71
3
 72
8
 73
4
 74
0
 40
0
 40
0
 40
0
 40
0
 40
1
 40
1
 40
1
 40
1
 10
197.073486
 20
64.719301
 30
0.0
 10
196.799378
 20
64.719301
 30
0.0
 10
196.573601
 20
64.945079
 30
0.0
 10
196.573601
 20
65.219186
 30
0.0
  0
LWPOLYLINE
  5
2b1
100
AcDbEntity
  8
0
 62
1
100
AcDbPolyline
 90
2
 70
0
 10
210.073315
 20
64.719301
 30
0.0
 10
197.073486
 20
64.719301
 30
0.0
  0
SPLINE
  5
2b2
100
AcDbEntity
  8
0
 62
1
100
AcDbSpline
 70
8
 71
3
 72
8
 73
4
 74
0
 40
0
 40
0
 40
0
 40
0
 40
1
 40
1
 40
1
 40
1
 10
196.573601
 20
78.219368
 30
0.0
 10
196.573601
 20
78.493475
 30
0.0
 10
196.799378
 20
78.719253
 30
0.0
 10
197.073486
 20
78.719253
 30
0.0
  0
LWPOLYLINE
  5
2b3
100
AcDbEntity
  8
0
 62
1
100
AcDbPolyline
 90
2
 70
0
 10
196.573601
 20
65.219186
 30
0.0
 10
196.573601
 20
78.219368
 30
0.0
  0
SPLINE
  5
2b4
100
AcDbEntity
  8
0
 62
1
100
AcDbSpline
 70
8
 71
3
 72
8
 73
4
 74
0
 40
0
 40
0
 40
0
 40
0
 40
1
 40
1
 40
1
 40
1
 10
210.073315
 20
78.719253
 30
0.0
 10
210.347775
 20
78.719253
 30
0.0
 10
210.573552
 20
78.493475
 30
0.0
 10
210.573552
 20
78.219368
 30
0.0
  0
LWPOLYLINE
  5
2b5
100
AcDbEntity
  8
0
 62
1
100
AcDbPolyline
 90
2
 70
0
 10
197.073486
 20
78.719253
 30
0.0
 10
210.073315
 20
78.719253
 30
0.0
  0
SPLINE
  5
2b6
100
AcDbEntity
  8
0
 62
1
100
AcDbSpline
 70
8
 71
3
 72
8
 73
4
 74
0
 40
0
 40
0
 40
0
 40
0
 40
1
 40
1
 40
1
 40
1
 10
314.848053
 20
78.719253
 30
0.0
 10
315.122513
 20
78.719253
 30
0.0
 10
315.348290
 20
78.493475
 30
0.0
 10
315.348290
 20
78.219368
 30
0.0
  0
LWPOLYLINE
  5
2b7
100
AcDbEntity
  8
0
 62
1
100
AcDbPolyline
 90
3
 70
0
 10
210.573552
 20
78.219368
 30
0.0
 10
210.573552
 20
65.219186
 30
0.0
 10
210.573552
 20
65.219186
 30
0.0
  0
SPLINE
  5
2b8
100
AcDbEntity
  8
0
 62
1
100
AcDbSpline
 70
8
 71
3
 72
8
 73
4
 74
0
 40
0
 40
0
 40
0
 40
0
 40
1
 40
1
 40
1
 40
1
 10
315.348290
 20
65.219186
 30
0.0
 10
315.348290
 20
64.945079
 30
0.0
 10
315.122513
 20
64.719301
 30
0.0
 10
314.848053
 20
64.719301
 30
0.0
  0
LWPOLYLINE
  5
2b9
100
AcDbEntity
  8
0
 62
1
100
AcDbPolyline
 90
2
 70
0
 10
315.348290
 20
78.219368
 30
0.0
 10
315.348290
 20
65.219186
 30
0.0
  0
SPLINE
  5
2ba
100
AcDbEntity
  8
0
 62
1
100
AcDbSpline
 70
8
 71
3
 72
8
 73
4
 74
0
 40
0
 40
0
 40
0
 40
0
 40
1
 40
1
 40
1
 40
1
 10
254.223343
 20
64.719301
 30
0.0
 10
253.949235
 20
64.719301
 30
0.0
 10
253.723458
 20
64.945079
 30
0.0
 10
253.723458
 20
65.219186
 30
0.0
  0
LWPOLYLINE
  5
2bb
100
AcDbEntity
  8
0
 62
1
100
AcDbPolyline
 90
2
 70
0
 10
314.848053
 20
64.719301
 30
0.0
 10
254.223343
 20
64.719301
 30
0.0
  0
SPLINE
  5
2bc
100
AcDbEntity
  8
0
 62
1
100
AcDbSpline
 70
8
 71
3
 72
8
 73
4
 74
0
 40
0
 40
0
 40
0
 40
0
 40
1
 40
1
 40
1
 40
1
 10
253.723458
 20
78.219368
 30
0.0
 10
253.723458
 20
78.493475
 30
0.0
 10
253.949235
 20
78.719253
 30
0.0
 10
254.223343
 20
78.719253
 30
0.0
  0
LWPOLYLINE
  5
2bd
100
AcDbEntity
  8
0
 62
1
100
AcDbPolyline
 90
2
 70
0
 10
253.723458
 20
65.219186
 30
0.0
 10
253.723458
 20
78.219368
 30
0.0
  0
SPLINE
  5
2be
100
AcDbEntity
  8
0
 62
1
100
AcDbSpline
 70
8
 71
3
 72
8
 73
4
 74
0
 40
0
 40
0
 40
0
 40
0
 40
1
 40
1
 40
1
 40
1
 10
134.373743
 20
65.219186
 30
0.0
 10
134.373743
 20
64.945079
 30
0.0
 10
134.147965
 20
64.719301
 30
0.0
 10
133.873505
 20
64.719301
 30
0.0
  0
LWPOLYLINE
  5
2bf
100
AcDbEntity
  8
0
 62
1
100
AcDbPolyline
 90
3
 70
0
 10
254.223343
 20
78.719253
 30
0.0
 10
314.848053
 20
78.719253
 30
0.0
 10
314.848053
 20
78.719253
 30
0.0
  0
SPLINE
  5
2c0
100
AcDbEntity
  8
0
 62
1
100
AcDbSpline
 70
8
 71
3
 72
8
 73
4
 74
0
 40
0
 40
0
 40
0
 40
0
 40
1
 40
1
 40
1
 40
1
 10
120.873676
 20
64.719301
 30
0.0
 10
120.599569
 20
64.719301
 30
0.0
 10
120.373792
 20
64.945079
 30
0.0
 10
120.373792
 20
65.219186
 30
0.0
  0
LWPOLYLINE
  5
2c1
100
AcDbEntity
  8
0
 62
1
100
AcDbPolyline
 90
2
 70
0
 10
133.873505
 20
64.719301
 30
0.0
 10
120.873676
 20
64.719301
 30
0.0
  0
SPLINE
  5
2c2
100
AcDbEntity
  8
0
 62
1
100
AcDbSpline
 70
8
 71
3
 72
8
 73
4
 74
0
 40
0
 40
0
 40
0
 40
0
 40
1
 40
1
 40
1
 40
1
 10
120.373792
 20
78.219368
 30
0.0
 10
120.373792
 20
78.493475
 30
0.0
 10
120.599569
 20
78.719253
 30
0.0
 10
120.873676
 20
78.719253
 30
0.0
  0
LWPOLYLINE
  5
2c3
100
AcDbEntity
  8
0
 62
1
100
AcDbPolyline
 90
2
 70
0
 10
120.373792
 20
65.219186
 30
0.0
 10
120.373792
 20
78.219368
 30
0.0
  0
SPLINE
  5
2c4
100
AcDbEntity
  8
0
 62
1
100
AcDbSpline
 70
8
 71
3
 72
8
 73
4
 74
0
 40
0
 40
0
 40
0
 40
0
 40
1
 40
1
 40
1
 40
1
 10
133.873505
 20
78.719253
 30
0.0
 10
134.147965
 20
78.719253
 30
0.0
 10
134.373743
 20
78.493475
 30
0.0
 10
134.373743
 20
78.219368
 30
0.0
  0
LWPOLYLINE
  5
2c5
100
AcDbEntity
  8
0
 62
1
100
AcDbPolyline
 90
2
 70
0
 10
120.873676
 20
78.719253
 30
0.0
 10
133.873505
 20
78.719253
 30
0.0
  0
SPLINE
  5
2c6
100
AcDbEntity
  8
0
 62
1
100
AcDbSpline
 70
8
 71
3
 72
8
 73
4
 74
0
 40
0
 40
0
 40
0
 40
0
 40
1
 40
1
 40
1
 40
1
 10
115.323790
 20
65.219186
 30
0.0
 10
115.323790
 20
64.945079
 30
0.0
 10
115.098013
 20
64.719301
 30
0.0
 10
114.823553
 20
64.719301
 30
0.0
  0
LWPOLYLINE
  5
2c7
100
AcDbEntity
  8
0
 62
1
100
AcDbPolyline
 90
3
 70
0
 10
134.373743
 20
78.219368
 30
0.0
 10
134.373743
 20
65.219186
 30
0.0
 10
134.373743
 20
65.219186
 30
0.0
  0
SPLINE
  5
2c8
100
AcDbEntity
  8
0
 62
1
100
AcDbSpline
 70
8
 71
3
 72
8
 73
4
 74
0
 40
0
 40
0
 40
0
 40
0
 40
1
 40
1
 40
1
 40
1
 10
101.823724
 20
64.719301
 30
0.0
 10
101.549616
 20
64.719301
 30
0.0
 10
101.323839
 20
64.945079
 30
0.0
 10
101.323839
 20
65.219186
 30
0.0
  0
LWPOLYLINE
  5
2c9
100
AcDbEntity
  8
0
 62
1
100
AcDbPolyline
 90
2
 70
0
 10
114.823553
 20
64.719301
 30
0.0
 10
101.823724
 20
64.719301
 30
0.0
  0
SPLINE
  5
2ca
100
AcDbEntity
  8
0
 62
1
100
AcDbSpline
 70
8
 71
3
 72
8
 73
4
 74
0
 40
0
 40
0
 40
0
 40
0
 40
1
 40
1
 40
1
 40
1
 10
101.323839
 20
78.219368
 30
0.0
 10
101.323839
 20
78.493475
 30
0.0
 10
101.549616
 20
78.719253
 30
0.0
 10
101.823724
 20
78.719253
 30
0.0
  0
LWPOLYLINE
  5
2cb
100
AcDbEntity
  8
0
 62
1
100
AcDbPolyline
 90
2
 70
0
 10
101.323839
 20
65.219186
 30
0.0
 10
101.323839
 20
78.219368
 30
0.0
  0
SPLINE
  5
2cc
100
AcDbEntity
  8
0
 62
1
100
AcDbSpline
 70
8
 71
3
 72
8
 73
4
 74
0
 40
0
 40
0
 40
0
 40
0
 40
1
 40
1
 40
1
 40
1
 10
114.823553
 20
78.719253
 30
0.0
 10
115.098013
 20
78.719253
 30
0.0
 10
115.323790
 20
78.493475
 30
0.0
 10
115.323790
 20
78.219368
 30
0.0
  0
LWPOLYLINE
  5
2cd
100
AcDbEntity
  8
0
 62
1
100
AcDbPolyline
 90
2
 70
0
 10
101.823724
 20
78.719253
 30
0.0
 10
114.823553
 20
78.719253
 30
0.0
  0
SPLINE
  5
2ce
100
AcDbEntity
  8
0
 62
1
100
AcDbSpline
 70
8
 71
3
 72
8
 73
4
 74
0
 40
0
 40
0
 40
0
 40
0
 40
1
 40
1
 40
1
 40
1
 10
172.473647
 20
65.219186
 30
0.0
 10
172.473647
 20
64.945079
 30
0.0
 10
172.247870
 20
64.719301
 30
0.0
 10
171.973410
 20
64.719301
 30
0.0
  0
LWPOLYLINE
  5
2cf
100
AcDbEntity
  8
0
 62
1
100
AcDbPolyline
 90
3
 70
0
 10
115.323790
 20
78.219368
 30
0.0
 10
115.323790
 20
65.219186
 30
0.0
 10
115.323790
 20
65.219186
 30
0.0
  0
SPLINE
  5
2d0
100
AcDbEntity
  8
0
 62
1
100
AcDbSpline
 70
8
 71
3
 72
8
 73
4
 74
0
 40
0
 40
0
 40
0
 40
0
 40
1
 40
1
 40
1
 40
1
 10
158.973581
 20
64.719301
 30
0.0
 10
158.699474
 20
64.719301
 30
0.0
 10
158.473696
 20
64.945079
 30
0.0
 10
158.473696
 20
65.219186
 30
0.0
  0
LWPOLYLINE
  5
2d1
100
AcDbEntity
  8
0
 62
1
100
AcDbPolyline
 90
2
 70
0
 10
171.973410
 20
64.719301
 30
0.0
 10
158.973581
 20
64.719301
 30
0.0
  0
SPLINE
  5
2d2
100
AcDbEntity
  8
0
 62
1
100
AcDbSpline
 70
8
 71
3
 72
8
 73
4
 74
0
 40
0
 40
0
 40
0
 40
0
 40
1
 40
1
 40
1
 40
1
 10
158.473696
 20
78.219368
 30
0.0
 10
158.473696
 20
78.493475
 30
0.0
 10
158.699474
 20
78.719253
 30
0.0
 10
158.973581
 20
78.719253
 30
0.0
  0
LWPOLYLINE
  5
2d3
100
AcDbEntity
  8
0
 62
1
100
AcDbPolyline
 90
2
 70
0
 10
158.473696
 20
65.219186
 30
0.0
 10
158.473696
 20
78.219368
 30
0.0
  0
SPLINE
  5
2d4
100
AcDbEntity
  8
0
 62
1
100
AcDbSpline
 70
8
 71
3
 72
8
 73
4
 74
0
 40
0
 40
0
 40
0
 40
0
 40
1
 40
1
 40
1
 40
1
 10
171.973410
 20
78.719253
 30
0.0
 10
172.247870
 20
78.719253
 30
0.0
 10
172.473647
 20
78.493475
 30
0.0
 10
172.473647
 20
78.219368
 30
0.0
  0
LWPOLYLINE
  5
2d5
100
AcDbEntity
  8
0
 62
1
100
AcDbPolyline
 90
2
 70
0
 10
158.973581
 20
78.719253
 30
0.0
 10
171.973410
 20
78.719253
 30
0.0
  0
LWPOLYLINE
  5
2d6
100
AcDbEntity
  8
0
 62
1
100
AcDbPolyline
 90
3
 70
0
 10
172.473647
 20
78.219368
 30
0.0
 10
172.473647
 20
65.219186
 30
0.0
 10
172.473647
 20
65.219186
 30
0.0
  0
LWPOLYLINE
  5
2d7
100
AcDbEntity
  8
0
 62
1
100
AcDbPolyline
 90
21
 70
1
 10
56.927220
 20
74.456297
 30
0.0
 10
56.231191
 20
74.101403
 30
0.0
 10
55.676978
 20
73.548602
 30
0.0
 10
55.322790
 20
72.851514
 30
0.0
 10
55.200729
 20
72.077875
 30
0.0
 10
55.322790
 20
71.307057
 30
0.0
 10
55.676978
 20
70.609970
 30
0.0
 10
56.231191
 20
70.057169
 30
0.0
 10
56.927220
 20
69.702275
 30
0.0
 10
57.701212
 20
69.578098
 30
0.0
 10
58.473441
 20
69.702275
 30
0.0
 10
59.170528
 20
70.057169
 30
0.0
 10
59.721918
 20
70.609970
 30
0.0
 10
60.078928
 20
71.307057
 30
0.0
 10
60.200989
 20
72.077875
 30
0.0
 10
60.078928
 20
72.851514
 30
0.0
 10
59.721918
 20
73.548602
 30
0.0
 10
59.170528
 20
74.101403
 30
0.0
 10
58.473441
 20
74.456297
 30
0.0
 10
57.701212
 20
74.578357
 30
0.0
 10
56.927220
 20
74.456297
 30
0.0
  0
SPLINE
  5
2d8
100
AcDbEntity
  8
0
 62
1
100
AcDbSpline
 70
8
 71
3
 72
8
 73
4
 74
0
 40
0
 40
0
 40
0
 40
0
 40
1
 40
1
 40
1
 40
1
 10
290.385092
 20
82.269246
 30
0.0
 10
290.385092
 20
81.994786
 30
0.0
 10
290.159667
 20
81.769362
 30
0.0
 10
289.885207
 20
81.769362
 30
0.0
  0
LWPOLYLINE
  5
2d9
100
AcDbEntity
  8
0
 62
1
100
AcDbPolyline
 90
2
 70
0
 10
290.385092
 20
83.769254
 30
0.0
 10
290.385092
 20
82.269246
 30
0.0
  0
SPLINE
  5
2da
100
AcDbEntity
  8
0
 62
1
100
AcDbSpline
 70
8
 71
3
 72
8
 73
4
 74
0
 40
0
 40
0
 40
0
 40
0
 40
1
 40
1
 40
1
 40
1
 10
283.885177
 20
81.769362
 30
0.0
 10
283.611070
 20
81.769362
 30
0.0
 10
283.385292
 20
81.994786
 30
0.0
 10
283.385292
 20
82.269246
 30
0.0
  0
LWPOLYLINE
  5
2db
100
AcDbEntity
  8
0
 62
1
100
AcDbPolyline
 90
2
 70
0
 10
289.885207
 20
81.769362
 30
0.0
 10
283.885177
 20
81.769362
 30
0.0
  0
SPLINE
  5
2dc
100
AcDbEntity
  8
0
 62
1
100
AcDbSpline
 70
8
 71
3
 72
8
 73
4
 74
0
 40
0
 40
0
 40
0
 40
0
 40
1
 40
1
 40
1
 40
1
 10
282.798272
 20
83.769254
 30
0.0
 10
282.524164
 20
83.769254
 30
0.0
 10
282.298387
 20
83.995031
 30
0.0
 10
282.298387
 20
84.269139
 30
0.0
  0
LWPOLYLINE
  5
2dd
100
AcDbEntity
  8
0
 62
1
100
AcDbPolyline
 90
3
 70
0
 10
283.385292
 20
82.269246
 30
0.0
 10
283.385292
 20
83.769254
 30
0.0
 10
282.798272
 20
83.769254
 30
0.0
  0
SPLINE
  5
2de
100
AcDbEntity
  8
0
 62
1
100
AcDbSpline
 70
8
 71
3
 72
8
 73
4
 74
0
 40
0
 40
0
 40
0
 40
0
 40
1
 40
1
 40
1
 40
1
 10
282.298387
 20
97.269320
 30
0.0
 10
282.298387
 20
97.543428
 30
0.0
 10
282.524164
 20
97.769205
 30
0.0
 10
282.798272
 20
97.769205
 30
0.0
  0
LWPOLYLINE
  5
2df
100
AcDbEntity
  8
0
 62
1
100
AcDbPolyline
 90
2
 70
0
 10
282.298387
 20
84.269139
 30
0.0
 10
282.298387
 20
97.269320
 30
0.0
  0
SPLINE
  5
2e0
100
AcDbEntity
  8
0
 62
1
100
AcDbSpline
 70
8
 71
3
 72
8
 73
4
 74
0
 40
0
 40
0
 40
0
 40
0
 40
1
 40
1
 40
1
 40
1
 10
314.848053
 20
97.769205
 30
0.0
 10
315.122513
 20
97.769205
 30
0.0
 10
315.348290
 20
97.543428
 30
0.0
 10
315.348290
 20
97.269320
 30
0.0
  0
LWPOLYLINE
  5
2e1
100
AcDbEntity
  8
0
 62
1
100
AcDbPolyline
 90
2
 70
0
 10
282.798272
 20
97.769205
 30
0.0
 10
314.848053
 20
97.769205
 30
0.0
  0
SPLINE
  5
2e2
100
AcDbEntity
  8
0
 62
1
100
AcDbSpline
 70
8
 71
3
 72
8
 73
4
 74
0
 40
0
 40
0
 40
0
 40
0
 40
1
 40
1
 40
1
 40
1
 10
315.348290
 20
84.269139
 30
0.0
 10
315.348290
 20
83.995031
 30
0.0
 10
315.122513
 20
83.769254
 30
0.0
 10
314.848053
 20
83.769254
 30
0.0
  0
LWPOLYLINE
  5
2e3
100
AcDbEntity
  8
0
 62
1
100
AcDbPolyline
 90
2
 70
0
 10
315.348290
 20
97.269320
 30
0.0
 10
315.348290
 20
84.269139
 30
0.0
  0
SPLINE
  5
2e4
100
AcDbEntity
  8
0
 62
1
100
AcDbSpline
 70
8
 71
3
 72
8
 73
4
 74
0
 40
0
 40
0
 40
0
 40
0
 40
1
 40
1
 40
1
 40
1
 10
314.261032
 20
82.269246
 30
0.0
 10
314.261032
 20
81.994786
 30
0.0
 10
314.035607
 20
81.769362
 30
0.0
 10
313.761147
 20
81.769362
 30
0.0
  0
LWPOLYLINE
  5
2e5
100
AcDbEntity
  8
0
 62
1
100
AcDbPolyline
 90
3
 70
0
 10
314.848053
 20
83.769254
 30
0.0
 10
314.261032
 20
83.769254
 30
0.0
 10
314.261032
 20
82.269246
 30
0.0
  0
SPLINE
  5
2e6
100
AcDbEntity
  8
0
 62
1
100
AcDbSpline
 70
8
 71
3
 72
8
 73
4
 74
0
 40
0
 40
0
 40
0
 40
0
 40
1
 40
1
 40
1
 40
1
 10
307.761118
 20
81.769362
 30
0.0
 10
307.487010
 20
81.769362
 30
0.0
 10
307.261233
 20
81.994786
 30
0.0
 10
307.261233
 20
82.269246
 30
0.0
  0
LWPOLYLINE
  5
2e7
100
AcDbEntity
  8
0
 62
1
100
AcDbPolyline
 90
2
 70
0
 10
313.761147
 20
81.769362
 30
0.0
 10
307.761118
 20
81.769362
 30
0.0
  0
SPLINE
  5
2e8
100
AcDbEntity
  8
0
 62
1
100
AcDbSpline
 70
8
 71
3
 72
8
 73
4
 74
0
 40
0
 40
0
 40
0
 40
0
 40
1
 40
1
 40
1
 40
1
 10
201.048576
 20
84.269139
 30
0.0
 10
201.048576
 20
83.995031
 30
0.0
 10
200.822799
 20
83.769254
 30
0.0
 10
200.548338
 20
83.769254
 30
0.0
  0
LWPOLYLINE
  5
2e9
100
AcDbEntity
  8
0
 62
1
100
AcDbPolyline
 90
4
 70
0
 10
307.261233
 20
82.269246
 30
0.0
 10
307.261233
 20
83.769254
 30
0.0
 10
290.385092
 20
83.769254
 30
0.0
 10
290.385092
 20
83.769254
 30
0.0
  0
SPLINE
  5
2ea
100
AcDbEntity
  8
0
 62
1
100
AcDbSpline
 70
8
 71
3
 72
8
 73
4
 74
0
 40
0
 40
0
 40
0
 40
0
 40
1
 40
1
 40
1
 40
1
 10
187.548510
 20
83.769254
 30
0.0
 10
187.274402
 20
83.769254
 30
0.0
 10
187.048625
 20
83.995031
 30
0.0
 10
187.048625
 20
84.269139
 30
0.0
  0
LWPOLYLINE
  5
2eb
100
AcDbEntity
  8
0
 62
1
100
AcDbPolyline
 90
2
 70
0
 10
200.548338
 20
83.769254
 30
0.0
 10
187.548510
 20
83.769254
 30
0.0
  0
SPLINE
  5
2ec
100
AcDbEntity
  8
0
 62
1
100
AcDbSpline
 70
8
 71
3
 72
8
 73
4
 74
0
 40
0
 40
0
 40
0
 40
0
 40
1
 40
1
 40
1
 40
1
 10
187.048625
 20
97.269320
 30
0.0
 10
187.048625
 20
97.543428
 30
0.0
 10
187.274402
 20
97.769205
 30
0.0
 10
187.548510
 20
97.769205
 30
0.0
  0
LWPOLYLINE
  5
2ed
100
AcDbEntity
  8
0
 62
1
100
AcDbPolyline
 90
2
 70
0
 10
187.048625
 20
84.269139
 30
0.0
 10
187.048625
 20
97.269320
 30
0.0
  0
SPLINE
  5
2ee
100
AcDbEntity
  8
0
 62
1
100
AcDbSpline
 70
8
 71
3
 72
8
 73
4
 74
0
 40
0
 40
0
 40
0
 40
0
 40
1
 40
1
 40
1
 40
1
 10
200.548338
 20
97.769205
 30
0.0
 10
200.822799
 20
97.769205
 30
0.0
 10
201.048576
 20
97.543428
 30
0.0
 10
201.048576
 20
97.269320
 30
0.0
  0
LWPOLYLINE
  5
2ef
100
AcDbEntity
  8
0
 62
1
100
AcDbPolyline
 90
2
 70
0
 10
187.548510
 20
97.769205
 30
0.0
 10
200.548338
 20
97.769205
 30
0.0
  0
SPLINE
  5
2f0
100
AcDbEntity
  8
0
 62
1
100
AcDbSpline
 70
8
 71
3
 72
8
 73
4
 74
0
 40
0
 40
0
 40
0
 40
0
 40
1
 40
1
 40
1
 40
1
 10
181.998624
 20
84.269139
 30
0.0
 10
181.998624
 20
83.995031
 30
0.0
 10
181.772846
 20
83.769254
 30
0.0
 10
181.498386
 20
83.769254
 30
0.0
  0
LWPOLYLINE
  5
2f1
100
AcDbEntity
  8
0
 62
1
100
AcDbPolyline
 90
3
 70
0
 10
201.048576
 20
97.269320
 30
0.0
 10
201.048576
 20
84.269139
 30
0.0
 10
201.048576
 20
84.269139
 30
0.0
  0
SPLINE
  5
2f2
100
AcDbEntity
  8
0
 62
1
100
AcDbSpline
 70
8
 71
3
 72
8
 73
4
 74
0
 40
0
 40
0
 40
0
 40
0
 40
1
 40
1
 40
1
 40
1
 10
168.498557
 20
83.769254
 30
0.0
 10
168.224450
 20
83.769254
 30
0.0
 10
167.998673
 20
83.995031
 30
0.0
 10
167.998673
 20
84.269139
 30
0.0
  0
LWPOLYLINE
  5
2f3
100
AcDbEntity
  8
0
 62
1
100
AcDbPolyline
 90
2
 70
0
 10
181.498386
 20
83.769254
 30
0.0
 10
168.498557
 20
83.769254
 30
0.0
  0
SPLINE
  5
2f4
100
AcDbEntity
  8
0
 62
1
100
AcDbSpline
 70
8
 71
3
 72
8
 73
4
 74
0
 40
0
 40
0
 40
0
 40
0
 40
1
 40
1
 40
1
 40
1
 10
167.998673
 20
97.269320
 30
0.0
 10
167.998673
 20
97.543428
 30
0.0
 10
168.224450
 20
97.769205
 30
0.0
 10
168.498557
 20
97.769205
 30
0.0
  0
LWPOLYLINE
  5
2f5
100
AcDbEntity
  8
0
 62
1
100
AcDbPolyline
 90
2
 70
0
 10
167.998673
 20
84.269139
 30
0.0
 10
167.998673
 20
97.269320
 30
0.0
  0
SPLINE
  5
2f6
100
AcDbEntity
  8
0
 62
1
100
AcDbSpline
 70
8
 71
3
 72
8
 73
4
 74
0
 40
0
 40
0
 40
0
 40
0
 40
1
 40
1
 40
1
 40
1
 10
181.498386
 20
97.769205
 30
0.0
 10
181.772846
 20
97.769205
 30
0.0
 10
181.998624
 20
97.543428
 30
0.0
 10
181.998624
 20
97.269320
 30
0.0
  0
LWPOLYLINE
  5
2f7
100
AcDbEntity
  8
0
 62
1
100
AcDbPolyline
 90
2
 70
0
 10
168.498557
 20
97.769205
 30
0.0
 10
181.498386
 20
97.769205
 30
0.0
  0
SPLINE
  5
2f8
100
AcDbEntity
  8
0
 62
1
100
AcDbSpline
 70
8
 71
3
 72
8
 73
4
 74
0
 40
0
 40
0
 40
0
 40
0
 40
1
 40
1
 40
1
 40
1
 10
162.948671
 20
84.269139
 30
0.0
 10
162.948671
 20
83.995031
 30
0.0
 10
162.722894
 20
83.769254
 30
0.0
 10
162.448434
 20
83.769254
 30
0.0
  0
LWPOLYLINE
  5
2f9
100
AcDbEntity
  8
0
 62
1
100
AcDbPolyline
 90
3
 70
0
 10
181.998624
 20
97.269320
 30
0.0
 10
181.998624
 20
84.269139
 30
0.0
 10
181.998624
 20
84.269139
 30
0.0
  0
SPLINE
  5
2fa
100
AcDbEntity
  8
0
 62
1
100
AcDbSpline
 70
8
 71
3
 72
8
 73
4
 74
0
 40
0
 40
0
 40
0
 40
0
 40
1
 40
1
 40
1
 40
1
 10
149.448605
 20
83.769254
 30
0.0
 10
149.174497
 20
83.769254
 30
0.0
 10
148.948720
 20
83.995031
 30
0.0
 10
148.948720
 20
84.269139
 30
0.0
  0
LWPOLYLINE
  5
2fb
100
AcDbEntity
  8
0
 62
1
100
AcDbPolyline
 90
2
 70
0
 10
162.448434
 20
83.769254
 30
0.0
 10
149.448605
 20
83.769254
 30
0.0
  0
SPLINE
  5
2fc
100
AcDbEntity
  8
0
 62
1
100
AcDbSpline
 70
8
 71
3
 72
8
 73
4
 74
0
 40
0
 40
0
 40
0
 40
0
 40
1
 40
1
 40
1
 40
1
 10
148.948720
 20
97.269320
 30
0.0
 10
148.948720
 20
97.543428
 30
0.0
 10
149.174497
 20
97.769205
 30
0.0
 10
149.448605
 20
97.769205
 30
0.0
  0
LWPOLYLINE
  5
2fd
100
AcDbEntity
  8
0
 62
1
100
AcDbPolyline
 90
2
 70
0
 10
148.948720
 20
84.269139
 30
0.0
 10
148.948720
 20
97.269320
 30
0.0
  0
SPLINE
  5
2fe
100
AcDbEntity
  8
0
 62
1
100
AcDbSpline
 70
8
 71
3
 72
8
 73
4
 74
0
 40
0
 40
0
 40
0
 40
0
 40
1
 40
1
 40
1
 40
1
 10
162.448434
 20
97.769205
 30
0.0
 10
162.722894
 20
97.769205
 30
0.0
 10
162.948671
 20
97.543428
 30
0.0
 10
162.948671
 20
97.269320
 30
0.0
  0
LWPOLYLINE
  5
2ff
100
AcDbEntity
  8
0
 62
1
100
AcDbPolyline
 90
2
 70
0
 10
149.448605
 20
97.769205
 30
0.0
 10
162.448434
 20
97.769205
 30
0.0
  0
SPLINE
  5
300
100
AcDbEntity
  8
0
 62
1
100
AcDbSpline
 70
8
 71
3
 72
8
 73
4
 74
0
 40
0
 40
0
 40
0
 40
0
 40
1
 40
1
 40
1
 40
1
 10
143.898719
 20
84.269139
 30
0.0
 10
143.898719
 20
83.995031
 30
0.0
 10
143.672942
 20
83.769254
 30
0.0
 10
143.398481
 20
83.769254
 30
0.0
  0
LWPOLYLINE
  5
301
100
AcDbEntity
  8
0
 62
1
100
AcDbPolyline
 90
3
 70
0
 10
162.948671
 20
97.269320
 30
0.0
 10
162.948671
 20
84.269139
 30
0.0
 10
162.948671
 20
84.269139
 30
0.0
  0
SPLINE
  5
302
100
AcDbEntity
  8
0
 62
1
100
AcDbSpline
 70
8
 71
3
 72
8
 73
4
 74
0
 40
0
 40
0
 40
0
 40
0
 40
1
 40
1
 40
1
 40
1
 10
130.398653
 20
83.769254
 30
0.0
 10
130.124545
 20
83.769254
 30
0.0
 10
129.898768
 20
83.995031
 30
0.0
 10
129.898768
 20
84.269139
 30
0.0
  0
LWPOLYLINE
  5
303
100
AcDbEntity
  8
0
 62
1
100
AcDbPolyline
 90
2
 70
0
 10
143.398481
 20
83.769254
 30
0.0
 10
130.398653
 20
83.769254
 30
0.0
  0
SPLINE
  5
304
100
AcDbEntity
  8
0
 62
1
100
AcDbSpline
 70
8
 71
3
 72
8
 73
4
 74
0
 40
0
 40
0
 40
0
 40
0
 40
1
 40
1
 40
1
 40
1
 10
129.898768
 20
97.269320
 30
0.0
 10
129.898768
 20
97.543428
 30
0.0
 10
130.124545
 20
97.769205
 30
0.0
 10
130.398653
 20
97.769205
 30
0.0
  0
LWPOLYLINE
  5
305
100
AcDbEntity
  8
0
 62
1
100
AcDbPolyline
 90
2
 70
0
 10
129.898768
 20
84.269139
 30
0.0
 10
129.898768
 20
97.269320
 30
0.0
  0
SPLINE
  5
306
100
AcDbEntity
  8
0
 62
1
100
AcDbSpline
 70
8
 71
3
 72
8
 73
4
 74
0
 40
0
 40
0
 40
0
 40
0
 40
1
 40
1
 40
1
 40
1
 10
143.398481
 20
97.769205
 30
0.0
 10
143.672942
 20
97.769205
 30
0.0
 10
143.898719
 20
97.543428
 30
0.0
 10
143.898719
 20
97.269320
 30
0.0
  0
LWPOLYLINE
  5
307
100
AcDbEntity
  8
0
 62
1
100
AcDbPolyline
 90
2
 70
0
 10
130.398653
 20
97.769205
 30
0.0
 10
143.398481
 20
97.769205
 30
0.0
  0
SPLINE
  5
308
100
AcDbEntity
  8
0
 62
1
100
AcDbSpline
 70
8
 71
3
 72
8
 73
4
 74
0
 40
0
 40
0
 40
0
 40
0
 40
1
 40
1
 40
1
 40
1
 10
48.648957
 20
84.269139
 30
0.0
 10
48.648957
 20
83.995031
 30
0.0
 10
48.423180
 20
83.769254
 30
0.0
 10
48.148719
 20
83.769254
 30
0.0
  0
LWPOLYLINE
  5
309
100
AcDbEntity
  8
0
 62
1
100
AcDbPolyline
 90
3
 70
0
 10
143.898719
 20
97.269320
 30
0.0
 10
143.898719
 20
84.269139
 30
0.0
 10
143.898719
 20
84.269139
 30
0.0
  0
SPLINE
  5
30a
100
AcDbEntity
  8
0
 62
1
100
AcDbSpline
 70
8
 71
3
 72
8
 73
4
 74
0
 40
0
 40
0
 40
0
 40
0
 40
1
 40
1
 40
1
 40
1
 10
35.148891
 20
83.769254
 30
0.0
 10
34.874783
 20
83.769254
 30
0.0
 10
34.649006
 20
83.995031
 30
0.0
 10
34.649006
 20
84.269139
 30
0.0
  0
LWPOLYLINE
  5
30b
100
AcDbEntity
  8
0
 62
1
100
AcDbPolyline
 90
2
 70
0
 10
48.148719
 20
83.769254
 30
0.0
 10
35.148891
 20
83.769254
 30
0.0
  0
SPLINE
  5
30c
100
AcDbEntity
  8
0
 62
1
100
AcDbSpline
 70
8
 71
3
 72
8
 73
4
 74
0
 40
0
 40
0
 40
0
 40
0
 40
1
 40
1
 40
1
 40
1
 10
34.649006
 20
97.269320
 30
0.0
 10
34.649006
 20
97.543428
 30
0.0
 10
34.874783
 20
97.769205
 30
0.0
 10
35.148891
 20
97.769205
 30
0.0
  0
LWPOLYLINE
  5
30d
100
AcDbEntity
  8
0
 62
1
100
AcDbPolyline
 90
2
 70
0
 10
34.649006
 20
84.269139
 30
0.0
 10
34.649006
 20
97.269320
 30
0.0
  0
SPLINE
  5
30e
100
AcDbEntity
  8
0
 62
1
100
AcDbSpline
 70
8
 71
3
 72
8
 73
4
 74
0
 40
0
 40
0
 40
0
 40
0
 40
1
 40
1
 40
1
 40
1
 10
48.148719
 20
97.769205
 30
0.0
 10
48.423180
 20
97.769205
 30
0.0
 10
48.648957
 20
97.543428
 30
0.0
 10
48.648957
 20
97.269320
 30
0.0
  0
LWPOLYLINE
  5
30f
100
AcDbEntity
  8
0
 62
1
100
AcDbPolyline
 90
2
 70
0
 10
35.148891
 20
97.769205
 30
0.0
 10
48.148719
 20
97.769205
 30
0.0
  0
SPLINE
  5
310
100
AcDbEntity
  8
0
 62
1
100
AcDbSpline
 70
8
 71
3
 72
8
 73
4
 74
0
 40
0
 40
0
 40
0
 40
0
 40
1
 40
1
 40
1
 40
1
 10
105.798814
 20
84.269139
 30
0.0
 10
105.798814
 20
83.995031
 30
0.0
 10
105.573037
 20
83.769254
 30
0.0
 10
105.298576
 20
83.769254
 30
0.0
  0
LWPOLYLINE
  5
311
100
AcDbEntity
  8
0
 62
1
100
AcDbPolyline
 90
3
 70
0
 10
48.648957
 20
97.269320
 30
0.0
 10
48.648957
 20
84.269139
 30
0.0
 10
48.648957
 20
84.269139
 30
0.0
  0
SPLINE
  5
312
100
AcDbEntity
  8
0
 62
1
100
AcDbSpline
 70
8
 71
3
 72
8
 73
4
 74
0
 40
0
 40
0
 40
0
 40
0
 40
1
 40
1
 40
1
 40
1
 10
92.298748
 20
83.769254
 30
0.0
 10
92.024640
 20
83.769254
 30
0.0
 10
91.798863
 20
83.995031
 30
0.0
 10
91.798863
 20
84.269139
 30
0.0
  0
LWPOLYLINE
  5
313
100
AcDbEntity
  8
0
 62
1
100
AcDbPolyline
 90
2
 70
0
 10
105.298576
 20
83.769254
 30
0.0
 10
92.298748
 20
83.769254
 30
0.0
  0
SPLINE
  5
314
100
AcDbEntity
  8
0
 62
1
100
AcDbSpline
 70
8
 71
3
 72
8
 73
4
 74
0
 40
0
 40
0
 40
0
 40
0
 40
1
 40
1
 40
1
 40
1
 10
91.798863
 20
97.269320
 30
0.0
 10
91.798863
 20
97.543428
 30
0.0
 10
92.024640
 20
97.769205
 30
0.0
 10
92.298748
 20
97.769205
 30
0.0
  0
LWPOLYLINE
  5
315
100
AcDbEntity
  8
0
 62
1
100
AcDbPolyline
 90
2
 70
0
 10
91.798863
 20
84.269139
 30
0.0
 10
91.798863
 20
97.269320
 30
0.0
  0
SPLINE
  5
316
100
AcDbEntity
  8
0
 62
1
100
AcDbSpline
 70
8
 71
3
 72
8
 73
4
 74
0
 40
0
 40
0
 40
0
 40
0
 40
1
 40
1
 40
1
 40
1
 10
105.298576
 20
97.769205
 30
0.0
 10
105.573037
 20
97.769205
 30
0.0
 10
105.798814
 20
97.543428
 30
0.0
 10
105.798814
 20
97.269320
 30
0.0
  0
LWPOLYLINE
  5
317
100
AcDbEntity
  8
0
 62
1
100
AcDbPolyline
 90
2
 70
0
 10
92.298748
 20
97.769205
 30
0.0
 10
105.298576
 20
97.769205
 30
0.0
  0
SPLINE
  5
318
100
AcDbEntity
  8
0
 62
1
100
AcDbSpline
 70
8
 71
3
 72
8
 73
4
 74
0
 40
0
 40
0
 40
0
 40
0
 40
1
 40
1
 40
1
 40
1
 10
220.098528
 20
84.269139
 30
0.0
 10
220.098528
 20
83.995031
 30
0.0
 10
219.872751
 20
83.769254
 30
0.0
 10
219.598291
 20
83.769254
 30
0.0
  0
LWPOLYLINE
  5
319
100
AcDbEntity
  8
0
 62
1
100
AcDbPolyline
 90
3
 70
0
 10
105.798814
 20
97.269320
 30
0.0
 10
105.798814
 20
84.269139
 30
0.0
 10
105.798814
 20
84.269139
 30
0.0
  0
SPLINE
  5
31a
100
AcDbEntity
  8
0
 62
1
100
AcDbSpline
 70
8
 71
3
 72
8
 73
4
 74
0
 40
0
 40
0
 40
0
 40
0
 40
1
 40
1
 40
1
 40
1
 10
206.598462
 20
83.769254
 30
0.0
 10
206.324354
 20
83.769254
 30
0.0
 10
206.098577
 20
83.995031
 30
0.0
 10
206.098577
 20
84.269139
 30
0.0
  0
LWPOLYLINE
  5
31b
100
AcDbEntity
  8
0
 62
1
100
AcDbPolyline
 90
2
 70
0
 10
219.598291
 20
83.769254
 30
0.0
 10
206.598462
 20
83.769254
 30
0.0
  0
SPLINE
  5
31c
100
AcDbEntity
  8
0
 62
1
100
AcDbSpline
 70
8
 71
3
 72
8
 73
4
 74
0
 40
0
 40
0
 40
0
 40
0
 40
1
 40
1
 40
1
 40
1
 10
206.098577
 20
97.269320
 30
0.0
 10
206.098577
 20
97.543428
 30
0.0
 10
206.324354
 20
97.769205
 30
0.0
 10
206.598462
 20
97.769205
 30
0.0
  0
LWPOLYLINE
  5
31d
100
AcDbEntity
  8
0
 62
1
100
AcDbPolyline
 90
2
 70
0
 10
206.098577
 20
84.269139
 30
0.0
 10
206.098577
 20
97.269320
 30
0.0
  0
SPLINE
  5
31e
100
AcDbEntity
  8
0
 62
1
100
AcDbSpline
 70
8
 71
3
 72
8
 73
4
 74
0
 40
0
 40
0
 40
0
 40
0
 40
1
 40
1
 40
1
 40
1
 10
219.598291
 20
97.769205
 30
0.0
 10
219.872751
 20
97.769205
 30
0.0
 10
220.098528
 20
97.543428
 30
0.0
 10
220.098528
 20
97.269320
 30
0.0
  0
LWPOLYLINE
  5
31f
100
AcDbEntity
  8
0
 62
1
100
AcDbPolyline
 90
2
 70
0
 10
206.598462
 20
97.769205
 30
0.0
 10
219.598291
 20
97.769205
 30
0.0
  0
SPLINE
  5
320
100
AcDbEntity
  8
0
 62
1
100
AcDbSpline
 70
8
 71
3
 72
8
 73
4
 74
0
 40
0
 40
0
 40
0
 40
0
 40
1
 40
1
 40
1
 40
1
 10
239.148481
 20
84.269139
 30
0.0
 10
239.148481
 20
83.995031
 30
0.0
 10
238.922704
 20
83.769254
 30
0.0
 10
238.648243
 20
83.769254
 30
0.0
  0
LWPOLYLINE
  5
321
100
AcDbEntity
  8
0
 62
1
100
AcDbPolyline
 90
3
 70
0
 10
220.098528
 20
97.269320
 30
0.0
 10
220.098528
 20
84.269139
 30
0.0
 10
220.098528
 20
84.269139
 30
0.0
  0
SPLINE
  5
322
100
AcDbEntity
  8
0
 62
1
100
AcDbSpline
 70
8
 71
3
 72
8
 73
4
 74
0
 40
0
 40
0
 40
0
 40
0
 40
1
 40
1
 40
1
 40
1
 10
225.648414
 20
83.769254
 30
0.0
 10
225.374307
 20
83.769254
 30
0.0
 10
225.148530
 20
83.995031
 30
0.0
 10
225.148530
 20
84.269139
 30
0.0
  0
LWPOLYLINE
  5
323
100
AcDbEntity
  8
0
 62
1
100
AcDbPolyline
 90
2
 70
0
 10
238.648243
 20
83.769254
 30
0.0
 10
225.648414
 20
83.769254
 30
0.0
  0
SPLINE
  5
324
100
AcDbEntity
  8
0
 62
1
100
AcDbSpline
 70
8
 71
3
 72
8
 73
4
 74
0
 40
0
 40
0
 40
0
 40
0
 40
1
 40
1
 40
1
 40
1
 10
225.148530
 20
97.269320
 30
0.0
 10
225.148530
 20
97.543428
 30
0.0
 10
225.374307
 20
97.769205
 30
0.0
 10
225.648414
 20
97.769205
 30
0.0
  0
LWPOLYLINE
  5
325
100
AcDbEntity
  8
0
 62
1
100
AcDbPolyline
 90
2
 70
0
 10
225.148530
 20
84.269139
 30
0.0
 10
225.148530
 20
97.269320
 30
0.0
  0
SPLINE
  5
326
100
AcDbEntity
  8
0
 62
1
100
AcDbSpline
 70
8
 71
3
 72
8
 73
4
 74
0
 40
0
 40
0
 40
0
 40
0
 40
1
 40
1
 40
1
 40
1
 10
238.648243
 20
97.769205
 30
0.0
 10
238.922704
 20
97.769205
 30
0.0
 10
239.148481
 20
97.543428
 30
0.0
 10
239.148481
 20
97.269320
 30
0.0
  0
LWPOLYLINE
  5
327
100
AcDbEntity
  8
0
 62
1
100
AcDbPolyline
 90
2
 70
0
 10
225.648414
 20
97.769205
 30
0.0
 10
238.648243
 20
97.769205
 30
0.0
  0
SPLINE
  5
328
100
AcDbEntity
  8
0
 62
1
100
AcDbSpline
 70
8
 71
3
 72
8
 73
4
 74
0
 40
0
 40
0
 40
0
 40
0
 40
1
 40
1
 40
1
 40
1
 10
124.848766
 20
84.269139
 30
0.0
 10
124.848766
 20
83.995031
 30
0.0
 10
124.622989
 20
83.769254
 30
0.0
 10
124.348529
 20
83.769254
 30
0.0
  0
LWPOLYLINE
  5
329
100
AcDbEntity
  8
0
 62
1
100
AcDbPolyline
 90
3
 70
0
 10
239.148481
 20
97.269320
 30
0.0
 10
239.148481
 20
84.269139
 30
0.0
 10
239.148481
 20
84.269139
 30
0.0
  0
SPLINE
  5
32a
100
AcDbEntity
  8
0
 62
1
100
AcDbSpline
 70
8
 71
3
 72
8
 73
4
 74
0
 40
0
 40
0
 40
0
 40
0
 40
1
 40
1
 40
1
 40
1
 10
111.348700
 20
83.769254
 30
0.0
 10
111.074593
 20
83.769254
 30
0.0
 10
110.848815
 20
83.995031
 30
0.0
 10
110.848815
 20
84.269139
 30
0.0
  0
LWPOLYLINE
  5
32b
100
AcDbEntity
  8
0
 62
1
100
AcDbPolyline
 90
2
 70
0
 10
124.348529
 20
83.769254
 30
0.0
 10
111.348700
 20
83.769254
 30
0.0
  0
SPLINE
  5
32c
100
AcDbEntity
  8
0
 62
1
100
AcDbSpline
 70
8
 71
3
 72
8
 73
4
 74
0
 40
0
 40
0
 40
0
 40
0
 40
1
 40
1
 40
1
 40
1
 10
110.848815
 20
97.269320
 30
0.0
 10
110.848815
 20
97.543428
 30
0.0
 10
111.074593
 20
97.769205
 30
0.0
 10
111.348700
 20
97.769205
 30
0.0
  0
LWPOLYLINE
  5
32d
100
AcDbEntity
  8
0
 62
1
100
AcDbPolyline
 90
2
 70
0
 10
110.848815
 20
84.269139
 30
0.0
 10
110.848815
 20
97.269320
 30
0.0
  0
SPLINE
  5
32e
100
AcDbEntity
  8
0
 62
1
100
AcDbSpline
 70
8
 71
3
 72
8
 73
4
 74
0
 40
0
 40
0
 40
0
 40
0
 40
1
 40
1
 40
1
 40
1
 10
124.348529
 20
97.769205
 30
0.0
 10
124.622989
 20
97.769205
 30
0.0
 10
124.848766
 20
97.543428
 30
0.0
 10
124.848766
 20
97.269320
 30
0.0
  0
LWPOLYLINE
  5
32f
100
AcDbEntity
  8
0
 62
1
100
AcDbPolyline
 90
2
 70
0
 10
111.348700
 20
97.769205
 30
0.0
 10
124.348529
 20
97.769205
 30
0.0
  0
SPLINE
  5
330
100
AcDbEntity
  8
0
 62
1
100
AcDbSpline
 70
8
 71
3
 72
8
 73
4
 74
0
 40
0
 40
0
 40
0
 40
0
 40
1
 40
1
 40
1
 40
1
 10
277.248385
 20
84.269139
 30
0.0
 10
277.248385
 20
83.995031
 30
0.0
 10
277.022608
 20
83.769254
 30
0.0
 10
276.748148
 20
83.769254
 30
0.0
  0
LWPOLYLINE
  5
331
100
AcDbEntity
  8
0
 62
1
100
AcDbPolyline
 90
3
 70
0
 10
124.848766
 20
97.269320
 30
0.0
 10
124.848766
 20
84.269139
 30
0.0
 10
124.848766
 20
84.269139
 30
0.0
  0
SPLINE
  5
332
100
AcDbEntity
  8
0
 62
1
100
AcDbSpline
 70
8
 71
3
 72
8
 73
4
 74
0
 40
0
 40
0
 40
0
 40
0
 40
1
 40
1
 40
1
 40
1
 10
263.748319
 20
83.769254
 30
0.0
 10
263.474212
 20
83.769254
 30
0.0
 10
263.248434
 20
83.995031
 30
0.0
 10
263.248434
 20
84.269139
 30
0.0
  0
LWPOLYLINE
  5
333
100
AcDbEntity
  8
0
 62
1
100
AcDbPolyline
 90
2
 70
0
 10
276.748148
 20
83.769254
 30
0.0
 10
263.748319
 20
83.769254
 30
0.0
  0
SPLINE
  5
334
100
AcDbEntity
  8
0
 62
1
100
AcDbSpline
 70
8
 71
3
 72
8
 73
4
 74
0
 40
0
 40
0
 40
0
 40
0
 40
1
 40
1
 40
1
 40
1
 10
263.248434
 20
97.269320
 30
0.0
 10
263.248434
 20
97.543428
 30
0.0
 10
263.474212
 20
97.769205
 30
0.0
 10
263.748319
 20
97.769205
 30
0.0
  0
LWPOLYLINE
  5
335
100
AcDbEntity
  8
0
 62
1
100
AcDbPolyline
 90
2
 70
0
 10
263.248434
 20
84.269139
 30
0.0
 10
263.248434
 20
97.269320
 30
0.0
  0
SPLINE
  5
336
100
AcDbEntity
  8
0
 62
1
100
AcDbSpline
 70
8
 71
3
 72
8
 73
4
 74
0
 40
0
 40
0
 40
0
 40
0
 40
1
 40
1
 40
1
 40
1
 10
276.748148
 20
97.769205
 30
0.0
 10
277.022608
 20
97.769205
 30
0.0
 10
277.248385
 20
97.543428
 30
0.0
 10
277.248385
 20
97.269320
 30
0.0
  0
LWPOLYLINE
  5
337
100
AcDbEntity
  8
0
 62
1
100
AcDbPolyline
 90
2
 70
0
 10
263.748319
 20
97.769205
 30
0.0
 10
276.748148
 20
97.769205
 30
0.0
  0
SPLINE
  5
338
100
AcDbEntity
  8
0
 62
1
100
AcDbSpline
 70
8
 71
3
 72
8
 73
4
 74
0
 40
0
 40
0
 40
0
 40
0
 40
1
 40
1
 40
1
 40
1
 10
86.748862
 20
84.269139
 30
0.0
 10
86.748862
 20
83.995031
 30
0.0
 10
86.523085
 20
83.769254
 30
0.0
 10
86.248624
 20
83.769254
 30
0.0
  0
LWPOLYLINE
  5
339
100
AcDbEntity
  8
0
 62
1
100
AcDbPolyline
 90
3
 70
0
 10
277.248385
 20
97.269320
 30
0.0
 10
277.248385
 20
84.269139
 30
0.0
 10
277.248385
 20
84.269139
 30
0.0
  0
SPLINE
  5
33a
100
AcDbEntity
  8
0
 62
1
100
AcDbSpline
 70
8
 71
3
 72
8
 73
4
 74
0
 40
0
 40
0
 40
0
 40
0
 40
1
 40
1
 40
1
 40
1
 10
73.248795
 20
83.769254
 30
0.0
 10
72.974688
 20
83.769254
 30
0.0
 10
72.748911
 20
83.995031
 30
0.0
 10
72.748911
 20
84.269139
 30
0.0
  0
LWPOLYLINE
  5
33b
100
AcDbEntity
  8
0
 62
1
100
AcDbPolyline
 90
2
 70
0
 10
86.248624
 20
83.769254
 30
0.0
 10
73.248795
 20
83.769254
 30
0.0
  0
SPLINE
  5
33c
100
AcDbEntity
  8
0
 62
1
100
AcDbSpline
 70
8
 71
3
 72
8
 73
4
 74
0
 40
0
 40
0
 40
0
 40
0
 40
1
 40
1
 40
1
 40
1
 10
72.748911
 20
97.269320
 30
0.0
 10
72.748911
 20
97.543428
 30
0.0
 10
72.974688
 20
97.769205
 30
0.0
 10
73.248795
 20
97.769205
 30
0.0
  0
LWPOLYLINE
  5
33d
100
AcDbEntity
  8
0
 62
1
100
AcDbPolyline
 90
2
 70
0
 10
72.748911
 20
84.269139
 30
0.0
 10
72.748911
 20
97.269320
 30
0.0
  0
SPLINE
  5
33e
100
AcDbEntity
  8
0
 62
1
100
AcDbSpline
 70
8
 71
3
 72
8
 73
4
 74
0
 40
0
 40
0
 40
0
 40
0
 40
1
 40
1
 40
1
 40
1
 10
86.248624
 20
97.769205
 30
0.0
 10
86.523085
 20
97.769205
 30
0.0
 10
86.748862
 20
97.543428
 30
0.0
 10
86.748862
 20
97.269320
 30
0.0
  0
LWPOLYLINE
  5
33f
100
AcDbEntity
  8
0
 62
1
100
AcDbPolyline
 90
2
 70
0
 10
73.248795
 20
97.769205
 30
0.0
 10
86.248624
 20
97.769205
 30
0.0
  0
SPLINE
  5
340
100
AcDbEntity
  8
0
 62
1
100
AcDbSpline
 70
8
 71
3
 72
8
 73
4
 74
0
 40
0
 40
0
 40
0
 40
0
 40
1
 40
1
 40
1
 40
1
 10
54.198843
 20
83.769254
 30
0.0
 10
53.924735
 20
83.769254
 30
0.0
 10
53.698958
 20
83.995031
 30
0.0
 10
53.698958
 20
84.269139
 30
0.0
  0
LWPOLYLINE
  5
341
100
AcDbEntity
  8
0
 62
1
100
AcDbPolyline
 90
3
 70
0
 10
86.748862
 20
97.269320
 30
0.0
 10
86.748862
 20
84.269139
 30
0.0
 10
86.748862
 20
84.269139
 30
0.0
  0
SPLINE
  5
342
100
AcDbEntity
  8
0
 62
1
100
AcDbSpline
 70
8
 71
3
 72
8
 73
4
 74
0
 40
0
 40
0
 40
0
 40
0
 40
1
 40
1
 40
1
 40
1
 10
53.698958
 20
97.269320
 30
0.0
 10
53.698958
 20
97.543428
 30
0.0
 10
53.924735
 20
97.769205
 30
0.0
 10
54.198843
 20
97.769205
 30
0.0
  0
LWPOLYLINE
  5
343
100
AcDbEntity
  8
0
 62
1
100
AcDbPolyline
 90
2
 70
0
 10
53.698958
 20
84.269139
 30
0.0
 10
53.698958
 20
97.269320
 30
0.0
  0
SPLINE
  5
344
100
AcDbEntity
  8
0
 62
1
100
AcDbSpline
 70
8
 71
3
 72
8
 73
4
 74
0
 40
0
 40
0
 40
0
 40
0
 40
1
 40
1
 40
1
 40
1
 10
67.198672
 20
97.769205
 30
0.0
 10
67.473132
 20
97.769205
 30
0.0
 10
67.698909
 20
97.543428
 30
0.0
 10
67.698909
 20
97.269320
 30
0.0
  0
LWPOLYLINE
  5
345
100
AcDbEntity
  8
0
 62
1
100
AcDbPolyline
 90
2
 70
0
 10
54.198843
 20
97.769205
 30
0.0
 10
67.198672
 20
97.769205
 30
0.0
  0
SPLINE
  5
346
100
AcDbEntity
  8
0
 62
1
100
AcDbSpline
 70
8
 71
3
 72
8
 73
4
 74
0
 40
0
 40
0
 40
0
 40
0
 40
1
 40
1
 40
1
 40
1
 10
67.698909
 20
84.269139
 30
0.0
 10
67.698909
 20
83.995031
 30
0.0
 10
67.473132
 20
83.769254
 30
0.0
 10
67.198672
 20
83.769254
 30
0.0
  0
LWPOLYLINE
  5
347
100
AcDbEntity
  8
0
 62
1
100
AcDbPolyline
 90
2
 70
0
 10
67.698909
 20
97.269320
 30
0.0
 10
67.698909
 20
84.269139
 30
0.0
  0
SPLINE
  5
348
100
AcDbEntity
  8
0
 62
1
100
AcDbSpline
 70
8
 71
3
 72
8
 73
4
 74
0
 40
0
 40
0
 40
0
 40
0
 40
1
 40
1
 40
1
 40
1
 10
258.198433
 20
84.269139
 30
0.0
 10
258.198433
 20
83.995031
 30
0.0
 10
257.972656
 20
83.769254
 30
0.0
 10
257.698195
 20
83.769254
 30
0.0
  0
LWPOLYLINE
  5
349
100
AcDbEntity
  8
0
 62
1
100
AcDbPolyline
 90
3
 70
0
 10
67.198672
 20
83.769254
 30
0.0
 10
54.198843
 20
83.769254
 30
0.0
 10
54.198843
 20
83.769254
 30
0.0
  0
SPLINE
  5
34a
100
AcDbEntity
  8
0
 62
1
100
AcDbSpline
 70
8
 71
3
 72
8
 73
4
 74
0
 40
0
 40
0
 40
0
 40
0
 40
1
 40
1
 40
1
 40
1
 10
244.698367
 20
83.769254
 30
0.0
 10
244.424259
 20
83.769254
 30
0.0
 10
244.198482
 20
83.995031
 30
0.0
 10
244.198482
 20
84.269139
 30
0.0
  0
LWPOLYLINE
  5
34b
100
AcDbEntity
  8
0
 62
1
100
AcDbPolyline
 90
2
 70
0
 10
257.698195
 20
83.769254
 30
0.0
 10
244.698367
 20
83.769254
 30
0.0
  0
SPLINE
  5
34c
100
AcDbEntity
  8
0
 62
1
100
AcDbSpline
 70
8
 71
3
 72
8
 73
4
 74
0
 40
0
 40
0
 40
0
 40
0
 40
1
 40
1
 40
1
 40
1
 10
244.198482
 20
97.269320
 30
0.0
 10
244.198482
 20
97.543428
 30
0.0
 10
244.424259
 20
97.769205
 30
0.0
 10
244.698367
 20
97.769205
 30
0.0
  0
LWPOLYLINE
  5
34d
100
AcDbEntity
  8
0
 62
1
100
AcDbPolyline
 90
2
 70
0
 10
244.198482
 20
84.269139
 30
0.0
 10
244.198482
 20
97.269320
 30
0.0
  0
SPLINE
  5
34e
100
AcDbEntity
  8
0
 62
1
100
AcDbSpline
 70
8
 71
3
 72
8
 73
4
 74
0
 40
0
 40
0
 40
0
 40
0
 40
1
 40
1
 40
1
 40
1
 10
257.698195
 20
97.769205
 30
0.0
 10
257.972656
 20
97.769205
 30
0.0
 10
258.198433
 20
97.543428
 30
0.0
 10
258.198433
 20
97.269320
 30
0.0
  0
LWPOLYLINE
  5
34f
100
AcDbEntity
  8
0
 62
1
100
AcDbPolyline
 90
2
 70
0
 10
244.698367
 20
97.769205
 30
0.0
 10
257.698195
 20
97.769205
 30
0.0
  0
LWPOLYLINE
  5
350
100
AcDbEntity
  8
0
 62
1
100
AcDbPolyline
 90
3
 70
0
 10
258.198433
 20
97.269320
 30
0.0
 10
258.198433
 20
84.269139
 30
0.0
 10
258.198433
 20
84.269139
 30
0.0
  0
ENDSEC
  0
SECTION
  2
OBJECTS
  0
DICTIONARY
  5
C
330
0
100
AcDbDictionary
  3
ACAD_GROUP
350
D
  3
ACAD_MLINESTYLE
350
17
  0
DICTIONARY
  5
D
330
C
100
AcDbDictionary
  0
DICTIONARY
  5
1A
330
C
100
AcDbDictionary
  0
DICTIONARY
  5
17
330
C
100
AcDbDictionary
  3
STANDARD
350
18
  0
DICTIONARY
  5
19
330
C
100
AcDbDictionary
  0
ENDSEC
  0
EOF
