M48
; DRILL file {KiCad (5.1.6-0-10_14)} date Sunday, June 28, 2020 at 04:37:16 PM
; FORMAT={-:-/ absolute / metric / decimal}
; #@! TF.CreationDate,2020-06-28T16:37:16+09:00
; #@! TF.GenerationSoftware,Kicad,Pcbnew,(5.1.6-0-10_14)
FMAT,2
METRIC
T1C0.400
T2C0.500
T3C0.700
T4C1.000
T5C1.470
T6C1.500
T7C2.499
T8C2.499
T9C0.787
T10C1.750
T11C2.200
T12C3.000
T13C3.048
T14C3.988
T15C4.000
%
G90
G05
T1
X29.452Y-48.285
X29.452Y-67.335
X31.834Y-105.435
X33.172Y-102.895
X34.215Y-86.385
X35.331Y-102.895
X38.887Y-34.442
X39.694Y-29.419
X42.019Y-39.194
X42.019Y-40.622
X42.767Y-29.419
X42.82Y-40.528
X42.824Y-39.268
X47.578Y-67.41
X51.811Y-46.435
X52.476Y-45.745
X53.265Y-48.285
X54.254Y-36.855
X55.397Y-37.998
X57.429Y-51.46
X57.937Y-34.315
X58.064Y-105.435
X60.985Y-35.585
X60.986Y-81.052
X61.009Y-65.435
X61.18Y-37.564
X61.621Y-78.638
X61.874Y-36.22
X61.874Y-38.252
X62.763Y-29.235
X62.763Y-86.385
X63.144Y-40.538
X64.606Y-75.023
X65.557Y-74.32
X66.954Y-67.61
X67.327Y-72.166
X67.462Y-69.494
X69.24Y-49.555
X69.346Y-57.537
X69.367Y-64.16
X69.398Y-58.339
X69.779Y-68.066
X71.018Y-64.795
X71.399Y-52.984
X71.445Y-55.916
X71.914Y-64.788
X72.248Y-55.902
X72.315Y-48.285
X73.072Y-55.883
X73.558Y-64.541
X73.939Y-53.365
X74.195Y-68.228
X74.993Y-67.594
X75.526Y-55.968
X75.717Y-58.572
X76.352Y-64.541
X76.422Y-56.024
X76.479Y-58.953
X76.987Y-59.588
X77.241Y-56.032
X78.13Y-56.286
X80.22Y-67.27
X81.261Y-67.421
X81.813Y-29.362
X81.84Y-86.385
X81.84Y-105.435
X85.242Y-56.272
X85.81Y-55.704
X86.385Y-55.143
X86.512Y-72.415
X88.422Y-53.497
X89.052Y-52.476
X89.687Y-51.225
X91.365Y-48.385
X91.365Y-67.335
X100.863Y-29.235
X100.89Y-86.385
X110.415Y-48.285
X110.415Y-55.805
X110.415Y-67.335
X117.559Y-105.435
X119.913Y-29.362
X119.94Y-86.385
X129.465Y-48.285
X129.465Y-55.805
X129.465Y-67.335
X138.963Y-29.362
X138.99Y-86.385
X148.515Y-48.285
X148.515Y-56.005
X158.013Y-29.362
X158.04Y-86.385
X158.04Y-105.435
X162.685Y-72.415
X167.565Y-48.285
X167.565Y-57.021
X167.565Y-67.335
X177.09Y-29.235
X177.09Y-86.385
X186.615Y-48.285
X186.615Y-57.583
X186.615Y-67.335
X191.377Y-105.435
X196.113Y-29.235
X196.14Y-86.385
X205.665Y-48.285
X205.665Y-58.164
X205.665Y-67.335
X215.19Y-86.385
X215.29Y-29.235
X224.715Y-48.285
X224.715Y-58.545
X224.715Y-67.335
X234.24Y-86.385
X234.34Y-29.235
X246.146Y-105.435
X248.527Y-48.285
X253.39Y-29.362
X255.671Y-67.335
X255.676Y-57.97
X260.434Y-86.385
X263.382Y-75.59
X263.382Y-73.309
X264.185Y-73.304
X264.239Y-75.523
X264.988Y-74.034
X265.942Y-75.022
X267.487Y-60.073
X269.656Y-57.947
X272.34Y-48.285
X272.44Y-29.235
X277.007Y-56.662
X286.627Y-67.335
X288.696Y-56.794
X291.363Y-29.235
X291.39Y-29.235
X291.39Y-48.285
X302.412Y-57.937
X302.92Y-58.699
X303.047Y-60.223
X303.179Y-91.465
X304.444Y-60.223
X306.476Y-73.558
X306.494Y-65.5
T2
X24.358Y-76.45
X24.358Y-81.65
X26.4Y-76.45
X26.4Y-81.65
X28.238Y-77.212
X28.238Y-80.888
X29.0Y-79.05
X45.5Y-50.45
X46.174Y-48.824
X46.174Y-52.076
X47.8Y-48.15
X47.8Y-52.75
X49.426Y-48.824
X49.426Y-52.076
X50.1Y-50.45
X149.6Y-67.25
X149.6Y-71.85
X150.8Y-67.25
X150.8Y-71.85
X152.0Y-67.25
X152.0Y-71.85
X211.9Y-105.45
X211.9Y-110.05
X213.1Y-105.45
X213.1Y-110.05
X214.3Y-105.45
X214.3Y-110.05
X281.45Y-48.15
X281.45Y-52.75
X282.65Y-48.15
X282.65Y-52.75
X283.85Y-48.133
X283.85Y-52.75
X301.2Y-79.05
X301.962Y-77.212
X301.962Y-80.888
X303.8Y-76.45
X303.8Y-81.65
X305.842Y-76.45
X305.842Y-81.65
T4
X89.814Y-42.697
X92.354Y-42.697
X94.894Y-42.697
X293.712Y-100.619
X293.712Y-115.119
X296.212Y-115.119
X298.712Y-100.619
X298.712Y-115.119
T5
X33.997Y-113.055
X40.347Y-110.515
X255.454Y-113.055
X261.804Y-110.515
X291.173Y-55.905
X297.522Y-53.365
X144.646Y-105.435
X150.996Y-102.895
X193.541Y-113.055
X199.891Y-110.515
X267.36Y-55.905
X273.71Y-53.365
X29.235Y-113.055
X35.585Y-110.515
X248.31Y-55.905
X254.66Y-53.365
X48.285Y-113.055
X54.635Y-110.515
X72.097Y-113.055
X78.447Y-110.515
X220.846Y-105.435
X227.196Y-102.895
X289.902Y-86.385
X296.252Y-83.845
X279.266Y-74.955
X285.616Y-72.415
X243.547Y-113.055
X249.897Y-110.515
X219.735Y-113.055
X226.085Y-110.515
X257.835Y-113.055
X264.185Y-110.515
X88.766Y-113.055
X95.116Y-110.515
X248.31Y-74.955
X254.66Y-72.415
X286.41Y-36.855
X292.76Y-34.315
X50.666Y-113.055
X57.016Y-110.515
X31.616Y-113.055
X37.966Y-110.515
X238.785Y-113.055
X245.135Y-110.515
X74.479Y-113.055
X80.829Y-110.515
X245.929Y-94.005
X252.279Y-91.465
X64.954Y-113.055
X71.304Y-110.515
X272.123Y-94.005
X278.472Y-91.465
T6
X217.354Y-113.055
X223.704Y-110.515
X218.465Y-105.435
X224.815Y-102.895
T8
X47.8Y-50.45
T9
X275.442Y-117.403
X276.712Y-117.403
X277.982Y-117.403
X279.252Y-117.403
X280.522Y-117.403
X44.094Y-122.732
X45.364Y-122.732
X46.634Y-122.732
X47.904Y-122.732
X49.174Y-122.732
X126.888Y-117.409
X128.158Y-117.409
X129.428Y-117.409
X130.698Y-117.409
X131.968Y-117.409
X44.094Y-117.398
X45.364Y-117.398
X46.634Y-117.398
X47.904Y-117.398
X49.174Y-117.398
X275.442Y-122.737
X276.712Y-122.737
X277.982Y-122.737
X279.252Y-122.737
X280.522Y-122.737
X126.888Y-122.743
X128.158Y-122.743
X129.428Y-122.743
X130.698Y-122.743
X131.968Y-122.743
T10
X29.076Y-107.975
X39.236Y-107.975
X74.32Y-69.875
X84.48Y-69.875
X179.095Y-31.775
X189.255Y-31.775
X60.032Y-107.975
X70.192Y-107.975
X236.245Y-107.975
X246.405Y-107.975
X255.295Y-31.775
X265.455Y-31.775
X93.37Y-69.875
X103.53Y-69.875
X207.67Y-50.825
X217.83Y-50.825
X236.245Y-88.925
X246.405Y-88.925
X150.52Y-50.825
X160.68Y-50.825
X71.939Y-107.975
X82.099Y-107.975
X83.845Y-88.925
X94.005Y-88.925
X188.62Y-50.825
X198.78Y-50.825
X274.345Y-31.775
X284.505Y-31.775
X243.389Y-88.925
X253.549Y-88.925
X226.72Y-50.825
X236.88Y-50.825
X288.632Y-69.875
X298.792Y-69.875
X169.57Y-50.825
X179.73Y-50.825
X62.414Y-107.975
X72.574Y-107.975
X269.582Y-88.925
X279.743Y-88.925
X102.895Y-31.775
X113.055Y-31.775
X83.845Y-107.975
X94.005Y-107.975
X31.457Y-107.975
X41.617Y-107.975
X198.145Y-31.775
X208.305Y-31.775
X131.47Y-69.875
X141.63Y-69.875
X31.457Y-50.825
X41.617Y-50.825
X226.72Y-69.875
X236.88Y-69.875
X64.795Y-31.775
X74.955Y-31.775
X252.914Y-107.975
X263.074Y-107.975
X288.632Y-50.825
X298.792Y-50.825
X274.345Y-50.825
X284.505Y-50.825
X207.67Y-69.875
X217.83Y-69.875
X257.676Y-69.875
X267.836Y-69.875
X112.42Y-50.825
X122.58Y-50.825
X150.52Y-69.875
X160.68Y-69.875
X143.376Y-107.975
X153.536Y-107.975
X191.001Y-107.975
X201.161Y-107.975
X119.564Y-107.975
X129.724Y-107.975
X188.62Y-69.875
X198.78Y-69.875
X264.82Y-50.825
X274.98Y-50.825
X293.395Y-31.775
X303.555Y-31.775
X26.695Y-107.975
X36.855Y-107.975
X74.32Y-50.825
X84.48Y-50.825
X262.439Y-88.925
X272.599Y-88.925
X169.57Y-69.875
X179.73Y-69.875
X245.77Y-50.825
X255.93Y-50.825
X112.42Y-69.875
X122.58Y-69.875
X45.745Y-107.975
X55.905Y-107.975
X36.22Y-88.925
X46.38Y-88.925
X83.845Y-31.775
X94.005Y-31.775
X236.245Y-31.775
X246.405Y-31.775
X140.995Y-88.925
X151.155Y-88.925
X69.557Y-107.975
X79.718Y-107.975
X160.045Y-107.975
X170.205Y-107.975
X31.457Y-69.875
X41.617Y-69.875
X121.945Y-31.775
X132.105Y-31.775
X193.382Y-107.975
X203.542Y-107.975
X219.576Y-107.975
X229.736Y-107.975
X179.095Y-88.925
X189.255Y-88.925
X121.945Y-88.925
X132.105Y-88.925
X288.632Y-88.925
X298.792Y-88.925
X276.726Y-69.875
X286.886Y-69.875
X217.195Y-88.925
X227.355Y-88.925
X241.007Y-107.975
X251.167Y-107.975
X55.27Y-69.875
X65.43Y-69.875
X160.045Y-88.925
X170.205Y-88.925
X102.895Y-88.925
X113.055Y-88.925
X250.532Y-50.825
X260.692Y-50.825
X217.195Y-107.975
X227.355Y-107.975
X255.295Y-107.975
X265.455Y-107.975
X198.145Y-88.925
X208.305Y-88.925
X45.745Y-31.775
X55.905Y-31.775
X86.226Y-107.975
X96.386Y-107.975
X293.395Y-50.825
X303.555Y-50.825
X248.151Y-107.975
X258.311Y-107.975
X245.77Y-69.875
X255.93Y-69.875
X217.195Y-31.775
X227.355Y-31.775
X64.795Y-88.925
X74.955Y-88.925
X160.045Y-31.775
X170.205Y-31.775
X283.87Y-31.775
X294.03Y-31.775
X93.37Y-50.825
X103.53Y-50.825
X140.995Y-31.775
X151.155Y-31.775
X291.014Y-88.925
X301.174Y-88.925
X33.839Y-107.975
X43.999Y-107.975
X55.27Y-50.825
X65.43Y-50.825
X48.126Y-107.975
X58.286Y-107.975
X131.47Y-50.825
X141.63Y-50.825
X26.695Y-31.775
X36.855Y-31.775
T11
X277.044Y-107.975
X298.475Y-107.975
T12
X218.465Y-29.235
X224.815Y-26.695
X66.065Y-86.385
X72.415Y-83.845
X161.315Y-29.235
X167.665Y-26.695
X94.64Y-48.285
X100.99Y-45.745
X142.265Y-29.235
X148.615Y-26.695
X293.554Y-94.005
X299.904Y-91.465
X35.109Y-105.435
X41.459Y-102.895
X56.54Y-48.285
X62.89Y-45.745
X132.74Y-48.285
X139.09Y-45.745
X29.235Y-36.855
X35.585Y-34.315
X76.86Y-74.955
X83.21Y-72.415
X180.365Y-29.235
X186.715Y-26.695
X61.302Y-105.435
X67.653Y-102.895
X256.565Y-29.235
X262.915Y-26.695
X94.64Y-67.335
X100.99Y-64.795
X208.94Y-48.285
X215.29Y-45.745
X237.515Y-86.385
X243.865Y-83.845
X151.79Y-48.285
X158.14Y-45.745
X85.115Y-86.385
X91.465Y-83.845
X189.89Y-48.285
X196.24Y-45.745
X275.615Y-29.235
X281.965Y-26.695
X227.99Y-48.285
X234.34Y-45.745
X289.902Y-67.335
X296.252Y-64.795
X170.84Y-48.285
X177.19Y-45.745
X104.165Y-29.235
X110.515Y-26.695
X85.115Y-105.435
X91.465Y-102.895
X199.415Y-29.235
X205.765Y-26.695
X132.74Y-67.335
X139.09Y-64.795
X32.727Y-48.285
X39.078Y-45.745
X227.99Y-67.335
X234.34Y-64.795
X66.065Y-29.235
X72.415Y-26.695
X275.615Y-48.285
X281.965Y-45.745
X208.94Y-67.335
X215.29Y-64.795
X258.946Y-67.335
X265.296Y-64.795
X113.69Y-48.285
X120.04Y-45.745
X153.06Y-74.955
X159.41Y-72.415
X120.834Y-105.435
X127.184Y-102.895
X189.89Y-67.335
X196.24Y-64.795
X294.665Y-29.235
X301.015Y-26.695
X75.59Y-48.285
X81.94Y-45.745
X263.709Y-86.385
X270.059Y-83.845
X170.84Y-67.335
X177.19Y-64.795
X113.69Y-67.335
X120.04Y-64.795
X37.49Y-86.385
X43.84Y-83.845
X85.115Y-29.235
X91.465Y-26.695
X237.515Y-29.235
X243.865Y-26.695
X142.265Y-86.385
X148.615Y-83.845
X161.315Y-105.435
X167.665Y-102.895
X32.727Y-67.335
X39.078Y-64.795
X123.215Y-29.235
X129.565Y-26.695
X194.653Y-105.435
X201.002Y-102.895
X180.365Y-86.385
X186.715Y-83.845
X123.215Y-86.385
X129.565Y-83.845
X218.465Y-86.385
X224.815Y-83.845
X57.81Y-74.955
X64.16Y-72.415
X161.315Y-86.385
X167.665Y-83.845
X104.165Y-86.385
X110.515Y-83.845
X251.802Y-48.285
X258.152Y-45.745
X199.415Y-86.385
X205.765Y-83.845
X48.285Y-36.855
X54.635Y-34.315
X294.665Y-48.285
X301.015Y-45.745
X249.421Y-105.435
X255.771Y-102.895
T13
X198.456Y-114.96
X153.187Y-114.96
X277.044Y-24.79
X300.856Y-24.79
X250.818Y-76.86
X274.694Y-76.86
X98.456Y-114.96
X112.706Y-114.96
X136.582Y-114.96
X29.362Y-95.91
X53.238Y-95.91
X177.063Y-114.96
X269.9Y-76.86
X293.712Y-76.86
T14
X69.875Y-31.775
X257.994Y-107.975
X293.712Y-50.825
X279.425Y-50.825
X212.75Y-69.875
X250.818Y-61.62
X262.756Y-69.875
X274.694Y-61.62
X117.5Y-50.825
X155.6Y-69.875
X98.456Y-99.72
X148.456Y-107.975
X198.456Y-99.72
X196.081Y-107.975
X112.706Y-99.72
X124.644Y-107.975
X136.582Y-99.72
X193.7Y-69.875
X269.9Y-50.825
X298.475Y-31.775
X31.775Y-107.975
X79.4Y-50.825
X267.519Y-88.925
X174.65Y-69.875
X250.85Y-50.825
X117.5Y-69.875
X50.825Y-107.975
X29.362Y-80.67
X41.3Y-88.925
X53.238Y-80.67
X88.925Y-31.775
X241.325Y-31.775
X146.075Y-88.925
X74.638Y-107.975
X153.187Y-99.72
X165.125Y-107.975
X177.063Y-99.72
X36.538Y-69.875
X127.025Y-31.775
X198.462Y-107.975
X224.656Y-107.975
X184.175Y-88.925
X127.025Y-88.925
X293.712Y-88.925
X269.9Y-61.62
X281.806Y-69.875
X293.712Y-61.62
X222.275Y-88.925
X246.087Y-107.975
X60.35Y-69.875
X165.125Y-88.925
X107.975Y-88.925
X255.612Y-50.825
X222.275Y-107.975
X260.375Y-107.975
X203.225Y-88.925
X50.825Y-31.775
X91.306Y-107.975
X298.475Y-50.825
X253.231Y-107.975
X250.85Y-69.875
X222.275Y-31.775
X69.875Y-88.925
X165.125Y-31.775
X277.044Y-40.03
X288.95Y-31.775
X300.856Y-40.03
X98.45Y-50.825
X146.075Y-31.775
X296.094Y-88.925
X38.919Y-107.975
X60.35Y-50.825
X53.206Y-107.975
X136.55Y-50.825
X31.775Y-31.775
X34.156Y-107.975
X79.4Y-69.875
X184.175Y-31.775
X65.112Y-107.975
X241.325Y-107.975
X260.375Y-31.775
X98.45Y-69.875
X212.75Y-50.825
X241.325Y-88.925
X155.6Y-50.825
X77.019Y-107.975
X88.925Y-88.925
X193.7Y-50.825
X279.425Y-31.775
X248.469Y-88.925
X231.8Y-50.825
X293.712Y-69.875
X174.65Y-50.825
X67.494Y-107.975
X274.662Y-88.925
X107.975Y-31.775
X88.925Y-107.975
X36.538Y-107.975
X203.225Y-31.775
X136.55Y-69.875
X36.538Y-50.825
X231.8Y-69.875
T15
X219.894Y-107.975
X222.275Y-107.975
T3
G00X37.142Y-24.446
M15
G01X37.142Y-26.946
M16
G05
G00X44.442Y-24.446
M15
G01X44.442Y-26.946
M16
G05
T6
G00X290.613Y-108.269
M15
G01X290.613Y-106.969
M16
G05
G00X301.812Y-108.269
M15
G01X301.812Y-106.969
M16
G05
T7
G00X149.549Y-69.55
M15
G01X152.051Y-69.55
M16
G05
G00X211.849Y-107.75
M15
G01X214.351Y-107.75
M16
G05
G00X281.399Y-50.45
M15
G01X283.901Y-50.45
M16
G05
T0
M30
