<?xml version="1.0" encoding="UTF-8" standalone="no"?>
<!DOCTYPE svg PUBLIC "-//W3C//DTD SVG 1.1//EN" "http://www.w3.org/Graphics/SVG/1.1/DTD/svg11.dtd">
<svg width="100%" height="100%" viewBox="0 0 188 316" version="1.1" xmlns="http://www.w3.org/2000/svg" xmlns:xlink="http://www.w3.org/1999/xlink" xml:space="preserve" xmlns:serif="http://www.serif.com/" style="fill-rule:evenodd;clip-rule:evenodd;stroke-linecap:round;stroke-linejoin:round;stroke-miterlimit:1.5;">
    <g transform="matrix(0.32,0,0,0.32,-395.021,-338.492)">
        <g id="Sticker-Numbus-Sans-T-BlaCond" serif:id="Sticker Numbus Sans T BlaCond" transform="matrix(1.125,0,0,1.09868,570.069,1031.84)">
            <rect x="590.551" y="23.622" width="519.685" height="897.638" style="fill:none;"/>
            <g transform="matrix(1.01587,0,0,1.04021,562.995,-203.842)">
                <g>
                    <g transform="matrix(233.333,0,0,233.333,342.208,1022.56)">
                        <path d="M0.447,-0.459L0.447,-0.51C0.447,-0.623 0.381,-0.677 0.245,-0.677C0.107,-0.677 0.034,-0.614 0.034,-0.496C0.034,-0.427 0.064,-0.379 0.137,-0.326L0.25,-0.246C0.285,-0.221 0.3,-0.197 0.3,-0.167C0.3,-0.129 0.278,-0.105 0.243,-0.105C0.207,-0.105 0.184,-0.128 0.184,-0.165L0.184,-0.232L0.024,-0.232L0.024,-0.165C0.024,-0.051 0.099,0.01 0.24,0.01C0.388,0.01 0.46,-0.054 0.46,-0.183C0.46,-0.259 0.434,-0.303 0.36,-0.355L0.257,-0.429C0.209,-0.462 0.194,-0.483 0.194,-0.515C0.194,-0.543 0.213,-0.562 0.241,-0.562C0.272,-0.562 0.287,-0.545 0.287,-0.51L0.287,-0.459L0.447,-0.459Z" style="fill-rule:nonzero;"/>
                    </g>
                    <g transform="matrix(233.333,0,0,233.333,346.758,845.067)">
                        <path d="M0.381,-0.667L0.049,-0.667L0.049,-0L0.396,-0L0.396,-0.122L0.209,-0.122L0.209,-0.278L0.372,-0.278L0.372,-0.4L0.209,-0.4L0.209,-0.545L0.381,-0.545L0.381,-0.667Z" style="fill-rule:nonzero;"/>
                    </g>
                    <g transform="matrix(233.333,0,0,233.333,218.831,726.956)">
                        <path d="M0.505,-0L0.505,-0.667L0.368,-0.667L0.371,-0.221L0.226,-0.667L0.049,-0.667L0.049,-0L0.186,-0L0.183,-0.431L0.332,-0L0.505,-0Z" style="fill-rule:nonzero;"/>
                    </g>
                    <g transform="matrix(233.333,0,0,233.333,223.965,550.116)">
                        <path d="M0.467,-0.481C0.467,-0.552 0.455,-0.592 0.425,-0.622C0.389,-0.658 0.329,-0.677 0.255,-0.677C0.181,-0.677 0.121,-0.658 0.085,-0.622C0.055,-0.592 0.043,-0.552 0.043,-0.481L0.043,-0.186C0.043,-0.115 0.055,-0.075 0.085,-0.045C0.121,-0.009 0.181,0.01 0.255,0.01C0.329,0.01 0.389,-0.009 0.425,-0.045C0.455,-0.075 0.467,-0.115 0.467,-0.186L0.467,-0.481ZM0.203,-0.488C0.203,-0.535 0.22,-0.558 0.255,-0.558C0.29,-0.558 0.307,-0.535 0.307,-0.488L0.307,-0.179C0.307,-0.132 0.29,-0.109 0.255,-0.109C0.22,-0.109 0.203,-0.132 0.203,-0.179L0.203,-0.488Z" style="fill-rule:nonzero;"/>
                    </g>
                    <g transform="matrix(233.333,0,0,233.333,104.992,430.489)">
                        <path d="M0.012,-0.269L0.012,-0.192C0.012,-0.11 0.025,-0.068 0.06,-0.036C0.095,-0.006 0.147,0.01 0.216,0.01C0.284,0.01 0.337,-0.006 0.371,-0.036C0.406,-0.068 0.419,-0.109 0.419,-0.192L0.419,-0.667L0.259,-0.667L0.259,-0.168C0.259,-0.124 0.246,-0.105 0.216,-0.105C0.185,-0.105 0.172,-0.124 0.172,-0.168L0.172,-0.269L0.012,-0.269Z" style="fill-rule:nonzero;"/>
                    </g>
                </g>
                <g transform="matrix(1,0,0,1,-566.929,-755.906)">
                    <path d="M732.283,1228.35L732.283,1499.4C732.283,1512.77 743.135,1523.62 756.502,1523.62L850.394,1523.62L850.394,1794.68C850.394,1808.05 861.246,1818.9 874.612,1818.9L1062.4,1818.9C1075.76,1818.9 1086.61,1808.05 1086.61,1794.68L1086.61,1429.73C1086.61,1416.36 1075.76,1405.51 1062.4,1405.51L968.504,1405.51L968.504,1134.45C968.504,1121.09 957.652,1110.24 944.285,1110.24L850.394,1110.24L850.394,1016.35C850.394,1002.98 839.542,992.126 826.175,992.126L638.392,992.126C625.025,992.126 614.173,1002.98 614.173,1016.35L614.173,1204.13C614.173,1217.49 625.025,1228.35 638.392,1228.35L732.283,1228.35Z" style="fill:none;stroke:black;stroke-width:21.88px;"/>
                </g>
            </g>
        </g>
    </g>
</svg>
