<?xml version="1.0" encoding="UTF-8" standalone="no"?>
<!DOCTYPE svg PUBLIC "-//W3C//DTD SVG 1.1//EN" "http://www.w3.org/Graphics/SVG/1.1/DTD/svg11.dtd">
<svg width="100%" height="100%" viewBox="0 0 188 316" version="1.1" xmlns="http://www.w3.org/2000/svg" xmlns:xlink="http://www.w3.org/1999/xlink" xml:space="preserve" xmlns:serif="http://www.serif.com/" style="fill-rule:evenodd;clip-rule:evenodd;stroke-linecap:round;stroke-linejoin:round;stroke-miterlimit:1.5;">
    <g transform="matrix(0.32,0,0,0.32,-395.021,-338.492)">
        <g id="Sticker-Numbus-Sans-T-BlaCond" serif:id="Sticker Numbus Sans T BlaCond" transform="matrix(1.125,0,0,1.09868,570.069,1031.84)">
            <rect x="590.551" y="23.622" width="519.685" height="897.638" style="fill:none;"/>
            <g transform="matrix(1.01587,0,0,1.04021,562.995,-203.842)">
                <g>
                    <g transform="matrix(1,0,0,1,-35.7446,338.127)">
                        <text x="377.953px" y="684.43px" style="font-family:'NimbusSansT-BlackCondensed', 'NimbuSanTBlaCon';font-weight:500;font-size:233.333px;">S</text>
                    </g>
                    <g transform="matrix(1,0,0,1,-31.1946,160.636)">
                        <text x="377.953px" y="684.43px" style="font-family:'NimbusSansT-BlackCondensed', 'NimbuSanTBlaCon';font-weight:500;font-size:233.333px;">E</text>
                    </g>
                    <g transform="matrix(1,0,0,1,-159.122,42.526)">
                        <text x="377.953px" y="684.43px" style="font-family:'NimbusSansT-BlackCondensed', 'NimbuSanTBlaCon';font-weight:500;font-size:233.333px;">N</text>
                    </g>
                    <g transform="matrix(1,0,0,1,-153.988,-134.314)">
                        <text x="377.953px" y="684.43px" style="font-family:'NimbusSansT-BlackCondensed', 'NimbuSanTBlaCon';font-weight:500;font-size:233.333px;">O</text>
                    </g>
                    <g transform="matrix(1,0,0,1,-154.85,-17.7208)">
                        <text x="259.843px" y="448.21px" style="font-family:'NimbusSansT-BlackCondensed', 'NimbuSanTBlaCon';font-weight:500;font-size:233.333px;">J</text>
                    </g>
                </g>
                <g transform="matrix(1,0,0,1,-566.929,-755.906)">
                    <path d="M732.283,1228.35L732.283,1499.4C732.283,1512.77 743.135,1523.62 756.502,1523.62L850.394,1523.62L850.394,1794.68C850.394,1808.05 861.246,1818.9 874.612,1818.9L1062.4,1818.9C1075.76,1818.9 1086.61,1808.05 1086.61,1794.68L1086.61,1429.73C1086.61,1416.36 1075.76,1405.51 1062.4,1405.51L968.504,1405.51L968.504,1134.45C968.504,1121.09 957.652,1110.24 944.285,1110.24L850.394,1110.24L850.394,1016.35C850.394,1002.98 839.542,992.126 826.175,992.126L638.392,992.126C625.025,992.126 614.173,1002.98 614.173,1016.35L614.173,1204.13C614.173,1217.49 625.025,1228.35 638.392,1228.35L732.283,1228.35Z" style="fill:none;stroke:black;stroke-width:21.88px;"/>
                </g>
            </g>
        </g>
    </g>
</svg>
