%TF.GenerationSoftware,KiCad,Pcbnew,(5.1.10-1-10_14)*%
%TF.CreationDate,2021-05-27T15:54:42+09:00*%
%TF.ProjectId,keyplate,6b657970-6c61-4746-952e-6b696361645f,rev?*%
%TF.SameCoordinates,Original*%
%TF.FileFunction,Profile,NP*%
%FSLAX46Y46*%
G04 Gerber Fmt 4.6, Leading zero omitted, Abs format (unit mm)*
G04 Created by KiCad (PCBNEW (5.1.10-1-10_14)) date 2021-05-27 15:54:42*
%MOMM*%
%LPD*%
G01*
G04 APERTURE LIST*
%TA.AperFunction,Profile*%
%ADD10C,0.200000*%
%TD*%
G04 APERTURE END LIST*
D10*
X325652721Y-60389357D02*
X325652721Y-93264281D01*
X323324747Y-59850669D02*
X325114039Y-59850669D01*
X325125666Y-54795375D02*
X323324747Y-54795375D01*
X325652721Y-2337804D02*
X325652721Y-54267975D01*
X315094111Y-54800667D02*
X319786750Y-54800667D01*
X315094111Y-56300674D02*
X315094111Y-54800667D01*
X233624869Y-2695168D02*
X233409011Y-2744806D01*
X233409011Y-2744806D02*
X233239774Y-2877960D01*
X233239774Y-2877960D02*
X233140846Y-3070993D01*
X233140846Y-3070993D02*
X233124987Y-3195405D01*
X246625055Y-2695168D02*
X233624869Y-2695168D01*
X247124937Y-3195405D02*
X247075305Y-2979321D01*
X247075305Y-2979321D02*
X246942205Y-2809983D01*
X246942205Y-2809983D02*
X246749323Y-2711028D01*
X246749323Y-2711028D02*
X246625055Y-2695168D01*
X247124937Y-16195233D02*
X247124937Y-3195405D01*
X94225436Y-16695472D02*
X94441295Y-16645833D01*
X94441295Y-16645833D02*
X94610532Y-16512677D01*
X94610532Y-16512677D02*
X94709458Y-16319645D01*
X94709458Y-16319645D02*
X94725318Y-16195233D01*
X81225256Y-16695472D02*
X94225436Y-16695472D01*
X80725368Y-16195233D02*
X80774998Y-16411316D01*
X80774998Y-16411316D02*
X80908098Y-16580655D01*
X80908098Y-16580655D02*
X81100983Y-16679611D01*
X81100983Y-16679611D02*
X81225256Y-16695472D01*
X80725368Y-3195405D02*
X80725368Y-16195233D01*
X81225256Y-2695168D02*
X81009392Y-2744806D01*
X81009392Y-2744806D02*
X80840154Y-2877960D01*
X80840154Y-2877960D02*
X80741227Y-3070993D01*
X80741227Y-3070993D02*
X80725368Y-3195405D01*
X94225436Y-2695168D02*
X81225256Y-2695168D01*
X94725318Y-3195405D02*
X94675687Y-2979321D01*
X94675687Y-2979321D02*
X94542588Y-2809983D01*
X94542588Y-2809983D02*
X94349706Y-2711028D01*
X94349706Y-2711028D02*
X94225436Y-2695168D01*
X94725318Y-16195233D02*
X94725318Y-3195405D01*
X56125530Y-16695472D02*
X56341391Y-16645833D01*
X56341391Y-16645833D02*
X56510628Y-16512677D01*
X56510628Y-16512677D02*
X56609555Y-16319645D01*
X56609555Y-16319645D02*
X56625415Y-16195233D01*
X43125348Y-16695472D02*
X56125530Y-16695472D01*
X42625463Y-16195233D02*
X42675093Y-16411316D01*
X42675093Y-16411316D02*
X42808193Y-16580655D01*
X42808193Y-16580655D02*
X43001076Y-16679611D01*
X43001076Y-16679611D02*
X43125348Y-16695472D01*
X42625463Y-3195405D02*
X42625463Y-16195233D01*
X43125348Y-2695168D02*
X42909486Y-2744806D01*
X42909486Y-2744806D02*
X42740249Y-2877960D01*
X42740249Y-2877960D02*
X42641322Y-3070993D01*
X42641322Y-3070993D02*
X42625463Y-3195405D01*
X56125530Y-2695168D02*
X43125348Y-2695168D01*
X56625415Y-3195405D02*
X56575784Y-2979321D01*
X56575784Y-2979321D02*
X56442684Y-2809983D01*
X56442684Y-2809983D02*
X56249801Y-2711028D01*
X56249801Y-2711028D02*
X56125530Y-2695168D01*
X56625415Y-16195233D02*
X56625415Y-3195405D01*
X61675416Y-16195233D02*
X61725046Y-16411316D01*
X61725046Y-16411316D02*
X61858146Y-16580655D01*
X61858146Y-16580655D02*
X62051029Y-16679611D01*
X62051029Y-16679611D02*
X62175301Y-16695472D01*
X61675416Y-3195405D02*
X61675416Y-16195233D01*
X62175301Y-2695168D02*
X61959439Y-2744806D01*
X61959439Y-2744806D02*
X61790202Y-2877960D01*
X61790202Y-2877960D02*
X61691275Y-3070993D01*
X61691275Y-3070993D02*
X61675416Y-3195405D01*
X75175481Y-2695168D02*
X62175301Y-2695168D01*
X75675366Y-3195405D02*
X75625735Y-2979321D01*
X75625735Y-2979321D02*
X75492635Y-2809983D01*
X75492635Y-2809983D02*
X75299752Y-2711028D01*
X75299752Y-2711028D02*
X75175481Y-2695168D01*
X75675366Y-16195233D02*
X75675366Y-3195405D01*
X75175481Y-16695472D02*
X75391342Y-16645833D01*
X75391342Y-16645833D02*
X75560579Y-16512677D01*
X75560579Y-16512677D02*
X75659506Y-16319645D01*
X75659506Y-16319645D02*
X75675366Y-16195233D01*
X62175301Y-16695472D02*
X75175481Y-16695472D01*
X323324747Y-16289073D02*
X323324747Y-3101566D01*
X322918356Y-16695472D02*
X323129047Y-16636616D01*
X323129047Y-16636616D02*
X323275681Y-16482750D01*
X323275681Y-16482750D02*
X323324747Y-16289073D01*
X309731188Y-16695472D02*
X322918356Y-16695472D01*
X309324797Y-16289073D02*
X309383570Y-16499768D01*
X309383570Y-16499768D02*
X309537361Y-16646405D01*
X309537361Y-16646405D02*
X309731188Y-16695472D01*
X309324797Y-3101566D02*
X309324797Y-16289073D01*
X309731188Y-2695168D02*
X309520342Y-2754022D01*
X309520342Y-2754022D02*
X309373793Y-2907888D01*
X309373793Y-2907888D02*
X309324797Y-3101566D01*
X322918356Y-2695168D02*
X309731188Y-2695168D01*
X323324747Y-3101566D02*
X323265893Y-2890870D01*
X323265893Y-2890870D02*
X323112029Y-2744234D01*
X323112029Y-2744234D02*
X322918356Y-2695168D01*
X304274795Y-16289073D02*
X304274795Y-3101566D01*
X303868403Y-16695472D02*
X304079095Y-16636616D01*
X304079095Y-16636616D02*
X304225729Y-16482750D01*
X304225729Y-16482750D02*
X304274795Y-16289073D01*
X290681235Y-16695472D02*
X303868403Y-16695472D01*
X290274844Y-16289073D02*
X290333617Y-16499768D01*
X290333617Y-16499768D02*
X290487409Y-16646405D01*
X290487409Y-16646405D02*
X290681235Y-16695472D01*
X290274844Y-3101566D02*
X290274844Y-16289073D01*
X290681235Y-2695168D02*
X290470390Y-2754022D01*
X290470390Y-2754022D02*
X290323840Y-2907888D01*
X290323840Y-2907888D02*
X290274844Y-3101566D01*
X303868403Y-2695168D02*
X290681235Y-2695168D01*
X304274795Y-3101566D02*
X304215941Y-2890870D01*
X304215941Y-2890870D02*
X304062077Y-2744234D01*
X304062077Y-2744234D02*
X303868403Y-2695168D01*
X256150031Y-35745423D02*
X256365888Y-35695784D01*
X256365888Y-35695784D02*
X256535126Y-35562629D01*
X256535126Y-35562629D02*
X256634054Y-35369597D01*
X256634054Y-35369597D02*
X256649914Y-35245185D01*
X243149845Y-35745423D02*
X256150031Y-35745423D01*
X242649963Y-35245185D02*
X242699594Y-35461268D01*
X242699594Y-35461268D02*
X242832695Y-35630607D01*
X242832695Y-35630607D02*
X243025576Y-35729562D01*
X243025576Y-35729562D02*
X243149845Y-35745423D01*
X242649963Y-22245357D02*
X242649963Y-35245185D01*
X243149845Y-21745120D02*
X242933987Y-21794758D01*
X242933987Y-21794758D02*
X242764750Y-21927912D01*
X242764750Y-21927912D02*
X242665822Y-22120945D01*
X242665822Y-22120945D02*
X242649963Y-22245357D01*
X256150031Y-21745120D02*
X243149845Y-21745120D01*
X256649914Y-22245357D02*
X256600282Y-22029273D01*
X256600282Y-22029273D02*
X256467181Y-21859935D01*
X256467181Y-21859935D02*
X256274299Y-21760980D01*
X256274299Y-21760980D02*
X256150031Y-21745120D01*
X256649914Y-35245185D02*
X256649914Y-22245357D01*
X122800365Y-35745423D02*
X123016224Y-35695784D01*
X123016224Y-35695784D02*
X123185461Y-35562629D01*
X123185461Y-35562629D02*
X123284387Y-35369597D01*
X123284387Y-35369597D02*
X123300247Y-35245185D01*
X109800184Y-35745423D02*
X122800365Y-35745423D01*
X109300297Y-35245185D02*
X109349927Y-35461268D01*
X109349927Y-35461268D02*
X109483027Y-35630607D01*
X109483027Y-35630607D02*
X109675911Y-35729562D01*
X109675911Y-35729562D02*
X109800184Y-35745423D01*
X109300297Y-22245357D02*
X109300297Y-35245185D01*
X109800184Y-21745120D02*
X109584320Y-21794758D01*
X109584320Y-21794758D02*
X109415083Y-21927912D01*
X109415083Y-21927912D02*
X109316156Y-22120945D01*
X109316156Y-22120945D02*
X109300297Y-22245357D01*
X122800365Y-21745120D02*
X109800184Y-21745120D01*
X123300247Y-22245357D02*
X123250616Y-22029273D01*
X123250616Y-22029273D02*
X123117517Y-21859935D01*
X123117517Y-21859935D02*
X122924635Y-21760980D01*
X122924635Y-21760980D02*
X122800365Y-21745120D01*
X123300247Y-35245185D02*
X123300247Y-22245357D01*
X71200392Y-35245185D02*
X71250022Y-35461268D01*
X71250022Y-35461268D02*
X71383122Y-35630607D01*
X71383122Y-35630607D02*
X71576005Y-35729562D01*
X71576005Y-35729562D02*
X71700277Y-35745423D01*
X71200392Y-22245357D02*
X71200392Y-35245185D01*
X71700277Y-21745120D02*
X71484415Y-21794758D01*
X71484415Y-21794758D02*
X71315178Y-21927912D01*
X71315178Y-21927912D02*
X71216251Y-22120945D01*
X71216251Y-22120945D02*
X71200392Y-22245357D01*
X84700460Y-21745120D02*
X71700277Y-21745120D01*
X85200342Y-22245357D02*
X85150711Y-22029273D01*
X85150711Y-22029273D02*
X85017612Y-21859935D01*
X85017612Y-21859935D02*
X84824730Y-21760980D01*
X84824730Y-21760980D02*
X84700460Y-21745120D01*
X85200342Y-35245185D02*
X85200342Y-22245357D01*
X84700460Y-35745423D02*
X84916319Y-35695784D01*
X84916319Y-35695784D02*
X85085556Y-35562629D01*
X85085556Y-35562629D02*
X85184482Y-35369597D01*
X85184482Y-35369597D02*
X85200342Y-35245185D01*
X71700277Y-35745423D02*
X84700460Y-35745423D01*
X103750412Y-35745423D02*
X103966272Y-35695784D01*
X103966272Y-35695784D02*
X104135509Y-35562629D01*
X104135509Y-35562629D02*
X104234435Y-35369597D01*
X104234435Y-35369597D02*
X104250295Y-35245185D01*
X90750232Y-35745423D02*
X103750412Y-35745423D01*
X90250344Y-35245185D02*
X90299974Y-35461268D01*
X90299974Y-35461268D02*
X90433074Y-35630607D01*
X90433074Y-35630607D02*
X90625959Y-35729562D01*
X90625959Y-35729562D02*
X90750232Y-35745423D01*
X90250344Y-22245357D02*
X90250344Y-35245185D01*
X90750232Y-21745120D02*
X90534368Y-21794758D01*
X90534368Y-21794758D02*
X90365130Y-21927912D01*
X90365130Y-21927912D02*
X90266203Y-22120945D01*
X90266203Y-22120945D02*
X90250344Y-22245357D01*
X103750412Y-21745120D02*
X90750232Y-21745120D01*
X104250295Y-22245357D02*
X104200664Y-22029273D01*
X104200664Y-22029273D02*
X104067565Y-21859935D01*
X104067565Y-21859935D02*
X103874682Y-21760980D01*
X103874682Y-21760980D02*
X103750412Y-21745120D01*
X104250295Y-35245185D02*
X104250295Y-22245357D01*
X218050127Y-35745423D02*
X218265984Y-35695784D01*
X218265984Y-35695784D02*
X218435221Y-35562629D01*
X218435221Y-35562629D02*
X218534149Y-35369597D01*
X218534149Y-35369597D02*
X218550009Y-35245185D01*
X205049941Y-35745423D02*
X218050127Y-35745423D01*
X204550059Y-35245185D02*
X204599690Y-35461268D01*
X204599690Y-35461268D02*
X204732790Y-35630607D01*
X204732790Y-35630607D02*
X204925672Y-35729562D01*
X204925672Y-35729562D02*
X205049941Y-35745423D01*
X204550059Y-22245357D02*
X204550059Y-35245185D01*
X205049941Y-21745120D02*
X204834083Y-21794758D01*
X204834083Y-21794758D02*
X204664846Y-21927912D01*
X204664846Y-21927912D02*
X204565918Y-22120945D01*
X204565918Y-22120945D02*
X204550059Y-22245357D01*
X218050127Y-21745120D02*
X205049941Y-21745120D01*
X218550009Y-22245357D02*
X218500377Y-22029273D01*
X218500377Y-22029273D02*
X218367276Y-21859935D01*
X218367276Y-21859935D02*
X218174395Y-21760980D01*
X218174395Y-21760980D02*
X218050127Y-21745120D01*
X218550009Y-35245185D02*
X218550009Y-22245357D01*
X237100079Y-35745423D02*
X237315936Y-35695784D01*
X237315936Y-35695784D02*
X237485173Y-35562629D01*
X237485173Y-35562629D02*
X237584101Y-35369597D01*
X237584101Y-35369597D02*
X237599961Y-35245185D01*
X224099893Y-35745423D02*
X237100079Y-35745423D01*
X223600011Y-35245185D02*
X223649642Y-35461268D01*
X223649642Y-35461268D02*
X223782742Y-35630607D01*
X223782742Y-35630607D02*
X223975624Y-35729562D01*
X223975624Y-35729562D02*
X224099893Y-35745423D01*
X223600011Y-22245357D02*
X223600011Y-35245185D01*
X224099893Y-21745120D02*
X223884035Y-21794758D01*
X223884035Y-21794758D02*
X223714798Y-21927912D01*
X223714798Y-21927912D02*
X223615870Y-22120945D01*
X223615870Y-22120945D02*
X223600011Y-22245357D01*
X237100079Y-21745120D02*
X224099893Y-21745120D01*
X237599961Y-22245357D02*
X237550329Y-22029273D01*
X237550329Y-22029273D02*
X237417229Y-21859935D01*
X237417229Y-21859935D02*
X237224347Y-21760980D01*
X237224347Y-21760980D02*
X237100079Y-21745120D01*
X237599961Y-35245185D02*
X237599961Y-22245357D01*
X141850317Y-35745423D02*
X142066179Y-35695784D01*
X142066179Y-35695784D02*
X142235415Y-35562629D01*
X142235415Y-35562629D02*
X142334339Y-35369597D01*
X142334339Y-35369597D02*
X142350199Y-35245185D01*
X128850131Y-35745423D02*
X141850317Y-35745423D01*
X128350249Y-35245185D02*
X128399880Y-35461268D01*
X128399880Y-35461268D02*
X128532980Y-35630607D01*
X128532980Y-35630607D02*
X128725862Y-35729562D01*
X128725862Y-35729562D02*
X128850131Y-35745423D01*
X128350249Y-22245357D02*
X128350249Y-35245185D01*
X128850131Y-21745120D02*
X128634273Y-21794758D01*
X128634273Y-21794758D02*
X128465036Y-21927912D01*
X128465036Y-21927912D02*
X128366108Y-22120945D01*
X128366108Y-22120945D02*
X128350249Y-22245357D01*
X141850317Y-21745120D02*
X128850131Y-21745120D01*
X142350199Y-22245357D02*
X142300569Y-22029273D01*
X142300569Y-22029273D02*
X142167471Y-21859935D01*
X142167471Y-21859935D02*
X141974589Y-21760980D01*
X141974589Y-21760980D02*
X141850317Y-21745120D01*
X142350199Y-35245185D02*
X142350199Y-22245357D01*
X61387902Y-22245357D02*
X61338271Y-22029273D01*
X61338271Y-22029273D02*
X61205171Y-21859935D01*
X61205171Y-21859935D02*
X61012288Y-21760980D01*
X61012288Y-21760980D02*
X60888017Y-21745120D01*
X61387902Y-35245185D02*
X61387902Y-22245357D01*
X60888017Y-35745423D02*
X61103878Y-35695784D01*
X61103878Y-35695784D02*
X61273115Y-35562629D01*
X61273115Y-35562629D02*
X61372042Y-35369597D01*
X61372042Y-35369597D02*
X61387902Y-35245185D01*
X47887836Y-35745423D02*
X60888017Y-35745423D01*
X47387951Y-35245185D02*
X47437581Y-35461268D01*
X47437581Y-35461268D02*
X47570681Y-35630607D01*
X47570681Y-35630607D02*
X47763564Y-35729562D01*
X47763564Y-35729562D02*
X47887836Y-35745423D01*
X47387951Y-22245357D02*
X47387951Y-35245185D01*
X47887836Y-21745120D02*
X47671974Y-21794758D01*
X47671974Y-21794758D02*
X47502737Y-21927912D01*
X47502737Y-21927912D02*
X47403810Y-22120945D01*
X47403810Y-22120945D02*
X47387951Y-22245357D01*
X60888017Y-21745120D02*
X47887836Y-21745120D01*
X179950222Y-35745423D02*
X180166084Y-35695784D01*
X180166084Y-35695784D02*
X180335319Y-35562629D01*
X180335319Y-35562629D02*
X180434244Y-35369597D01*
X180434244Y-35369597D02*
X180450104Y-35245185D01*
X166950036Y-35745423D02*
X179950222Y-35745423D01*
X166450154Y-35245185D02*
X166499785Y-35461268D01*
X166499785Y-35461268D02*
X166632885Y-35630607D01*
X166632885Y-35630607D02*
X166825767Y-35729562D01*
X166825767Y-35729562D02*
X166950036Y-35745423D01*
X166450154Y-22245357D02*
X166450154Y-35245185D01*
X166950036Y-21745120D02*
X166734178Y-21794758D01*
X166734178Y-21794758D02*
X166564941Y-21927912D01*
X166564941Y-21927912D02*
X166466013Y-22120945D01*
X166466013Y-22120945D02*
X166450154Y-22245357D01*
X179950222Y-21745120D02*
X166950036Y-21745120D01*
X180450104Y-22245357D02*
X180400474Y-22029273D01*
X180400474Y-22029273D02*
X180267376Y-21859935D01*
X180267376Y-21859935D02*
X180074493Y-21760980D01*
X180074493Y-21760980D02*
X179950222Y-21745120D01*
X180450104Y-35245185D02*
X180450104Y-22245357D01*
X160900270Y-35745423D02*
X161116132Y-35695784D01*
X161116132Y-35695784D02*
X161285367Y-35562629D01*
X161285367Y-35562629D02*
X161384292Y-35369597D01*
X161384292Y-35369597D02*
X161400152Y-35245185D01*
X147900084Y-35745423D02*
X160900270Y-35745423D01*
X147400201Y-35245185D02*
X147449832Y-35461268D01*
X147449832Y-35461268D02*
X147582933Y-35630607D01*
X147582933Y-35630607D02*
X147775815Y-35729562D01*
X147775815Y-35729562D02*
X147900084Y-35745423D01*
X147400201Y-22245357D02*
X147400201Y-35245185D01*
X147900084Y-21745120D02*
X147684226Y-21794758D01*
X147684226Y-21794758D02*
X147514988Y-21927912D01*
X147514988Y-21927912D02*
X147416060Y-22120945D01*
X147416060Y-22120945D02*
X147400201Y-22245357D01*
X160900270Y-21745120D02*
X147900084Y-21745120D01*
X161400152Y-22245357D02*
X161350522Y-22029273D01*
X161350522Y-22029273D02*
X161217424Y-21859935D01*
X161217424Y-21859935D02*
X161024541Y-21760980D01*
X161024541Y-21760980D02*
X160900270Y-21745120D01*
X161400152Y-35245185D02*
X161400152Y-22245357D01*
X199000174Y-35745423D02*
X199216036Y-35695784D01*
X199216036Y-35695784D02*
X199385272Y-35562629D01*
X199385272Y-35562629D02*
X199484196Y-35369597D01*
X199484196Y-35369597D02*
X199500056Y-35245185D01*
X185999988Y-35745423D02*
X199000174Y-35745423D01*
X185500106Y-35245185D02*
X185549737Y-35461268D01*
X185549737Y-35461268D02*
X185682838Y-35630607D01*
X185682838Y-35630607D02*
X185875719Y-35729562D01*
X185875719Y-35729562D02*
X185999988Y-35745423D01*
X185500106Y-22245357D02*
X185500106Y-35245185D01*
X185999988Y-21745120D02*
X185784130Y-21794758D01*
X185784130Y-21794758D02*
X185614893Y-21927912D01*
X185614893Y-21927912D02*
X185515965Y-22120945D01*
X185515965Y-22120945D02*
X185500106Y-22245357D01*
X199000174Y-21745120D02*
X185999988Y-21745120D01*
X199500056Y-22245357D02*
X199450426Y-22029273D01*
X199450426Y-22029273D02*
X199317328Y-21859935D01*
X199317328Y-21859935D02*
X199124446Y-21760980D01*
X199124446Y-21760980D02*
X199000174Y-21745120D01*
X199500056Y-35245185D02*
X199500056Y-22245357D01*
X261699916Y-22247473D02*
X261699916Y-22468707D01*
X261699916Y-22468707D02*
X261699916Y-22725245D01*
X261699916Y-22725245D02*
X261699916Y-23014743D01*
X261699916Y-23014743D02*
X261699916Y-23334859D01*
X261699916Y-23334859D02*
X261699916Y-23683251D01*
X261699916Y-23683251D02*
X261699916Y-24057577D01*
X261699916Y-24057577D02*
X261699916Y-24455493D01*
X261699916Y-24455493D02*
X261699916Y-24874658D01*
X261699916Y-24874658D02*
X261699916Y-25312729D01*
X261699916Y-25312729D02*
X261699916Y-25767364D01*
X261699916Y-25767364D02*
X261699916Y-26236221D01*
X261699916Y-26236221D02*
X261699916Y-26716957D01*
X261699916Y-26716957D02*
X261699916Y-27207230D01*
X261699916Y-27207230D02*
X261699916Y-27704697D01*
X261699916Y-27704697D02*
X261699916Y-28207017D01*
X261699916Y-28207017D02*
X261699916Y-28711846D01*
X261699916Y-28711846D02*
X261699916Y-29216843D01*
X261699916Y-29216843D02*
X261699916Y-29719664D01*
X261699916Y-29719664D02*
X261699916Y-30217969D01*
X261699916Y-30217969D02*
X261699916Y-30709414D01*
X261699916Y-30709414D02*
X261699916Y-31191656D01*
X261699916Y-31191656D02*
X261699916Y-31662355D01*
X261699916Y-31662355D02*
X261699916Y-32119167D01*
X261699916Y-32119167D02*
X261699916Y-32559749D01*
X261699916Y-32559749D02*
X261699916Y-32981760D01*
X261699916Y-32981760D02*
X261699916Y-33382858D01*
X261699916Y-33382858D02*
X261699916Y-33760699D01*
X261699916Y-33760699D02*
X261699916Y-34112942D01*
X261699916Y-34112942D02*
X261699916Y-34437244D01*
X261699916Y-34437244D02*
X261699916Y-34731262D01*
X261699916Y-34731262D02*
X261699916Y-34992655D01*
X261699916Y-34992655D02*
X261699916Y-35219081D01*
X261845255Y-21896109D02*
X261733170Y-22068630D01*
X261733170Y-22068630D02*
X261699916Y-22247473D01*
X262196633Y-21750764D02*
X261995513Y-21793277D01*
X261995513Y-21793277D02*
X261845255Y-21896109D01*
X322797347Y-21755703D02*
X322141020Y-21755658D01*
X322141020Y-21755658D02*
X321244251Y-21755593D01*
X321244251Y-21755593D02*
X320123102Y-21755507D01*
X320123102Y-21755507D02*
X318793631Y-21755403D01*
X318793631Y-21755403D02*
X317271901Y-21755282D01*
X317271901Y-21755282D02*
X315573971Y-21755146D01*
X315573971Y-21755146D02*
X313715902Y-21754995D01*
X313715902Y-21754995D02*
X311713756Y-21754832D01*
X311713756Y-21754832D02*
X309583592Y-21754657D01*
X309583592Y-21754657D02*
X307341472Y-21754472D01*
X307341472Y-21754472D02*
X305003456Y-21754278D01*
X305003456Y-21754278D02*
X302585605Y-21754078D01*
X302585605Y-21754078D02*
X300103979Y-21753872D01*
X300103979Y-21753872D02*
X297574639Y-21753661D01*
X297574639Y-21753661D02*
X295013646Y-21753448D01*
X295013646Y-21753448D02*
X292437061Y-21753233D01*
X292437061Y-21753233D02*
X289860944Y-21753018D01*
X289860944Y-21753018D02*
X287301356Y-21752805D01*
X287301356Y-21752805D02*
X284774357Y-21752594D01*
X284774357Y-21752594D02*
X282296008Y-21752388D01*
X282296008Y-21752388D02*
X279882371Y-21752188D01*
X279882371Y-21752188D02*
X277549505Y-21751994D01*
X277549505Y-21751994D02*
X275313471Y-21751809D01*
X275313471Y-21751809D02*
X273190330Y-21751635D01*
X273190330Y-21751635D02*
X271196143Y-21751471D01*
X271196143Y-21751471D02*
X269346971Y-21751320D01*
X269346971Y-21751320D02*
X267658873Y-21751184D01*
X267658873Y-21751184D02*
X266147911Y-21751063D01*
X266147911Y-21751063D02*
X264830145Y-21750959D01*
X264830145Y-21750959D02*
X263721636Y-21750873D01*
X263721636Y-21750873D02*
X262838445Y-21750808D01*
X262838445Y-21750808D02*
X262196633Y-21750764D01*
X323324747Y-22283458D02*
X323283317Y-22078113D01*
X323283317Y-22078113D02*
X323170318Y-21910439D01*
X323170318Y-21910439D02*
X323002683Y-21797335D01*
X323002683Y-21797335D02*
X322797347Y-21755703D01*
X323324747Y-35206732D02*
X323324747Y-34979857D01*
X323324747Y-34979857D02*
X323324747Y-34718608D01*
X323324747Y-34718608D02*
X323324747Y-34425278D01*
X323324747Y-34425278D02*
X323324747Y-34102164D01*
X323324747Y-34102164D02*
X323324747Y-33751561D01*
X323324747Y-33751561D02*
X323324747Y-33375766D01*
X323324747Y-33375766D02*
X323324747Y-32977074D01*
X323324747Y-32977074D02*
X323324747Y-32557781D01*
X323324747Y-32557781D02*
X323324747Y-32120182D01*
X323324747Y-32120182D02*
X323324747Y-31666574D01*
X323324747Y-31666574D02*
X323324747Y-31199252D01*
X323324747Y-31199252D02*
X323324747Y-30720512D01*
X323324747Y-30720512D02*
X323324747Y-30232651D01*
X323324747Y-30232651D02*
X323324747Y-29737962D01*
X323324747Y-29737962D02*
X323324747Y-29238743D01*
X323324747Y-29238743D02*
X323324747Y-28737290D01*
X323324747Y-28737290D02*
X323324747Y-28235897D01*
X323324747Y-28235897D02*
X323324747Y-27736861D01*
X323324747Y-27736861D02*
X323324747Y-27242477D01*
X323324747Y-27242477D02*
X323324747Y-26755042D01*
X323324747Y-26755042D02*
X323324747Y-26276851D01*
X323324747Y-26276851D02*
X323324747Y-25810200D01*
X323324747Y-25810200D02*
X323324747Y-25357385D01*
X323324747Y-25357385D02*
X323324747Y-24920701D01*
X323324747Y-24920701D02*
X323324747Y-24502444D01*
X323324747Y-24502444D02*
X323324747Y-24104911D01*
X323324747Y-24104911D02*
X323324747Y-23730396D01*
X323324747Y-23730396D02*
X323324747Y-23381196D01*
X323324747Y-23381196D02*
X323324747Y-23059606D01*
X323324747Y-23059606D02*
X323324747Y-22767923D01*
X323324747Y-22767923D02*
X323324747Y-22508441D01*
X323324747Y-22508441D02*
X323324747Y-22283458D01*
X322786409Y-35745423D02*
X322995988Y-35703073D01*
X322995988Y-35703073D02*
X323167101Y-35587599D01*
X323167101Y-35587599D02*
X323282453Y-35416364D01*
X323282453Y-35416364D02*
X323324747Y-35206732D01*
X262226260Y-35745423D02*
X262880158Y-35745423D01*
X262880158Y-35745423D02*
X263773420Y-35745423D01*
X263773420Y-35745423D02*
X264890102Y-35745423D01*
X264890102Y-35745423D02*
X266214257Y-35745423D01*
X266214257Y-35745423D02*
X267729941Y-35745423D01*
X267729941Y-35745423D02*
X269421206Y-35745423D01*
X269421206Y-35745423D02*
X271272110Y-35745423D01*
X271272110Y-35745423D02*
X273266705Y-35745423D01*
X273266705Y-35745423D02*
X275389046Y-35745423D01*
X275389046Y-35745423D02*
X277623188Y-35745423D01*
X277623188Y-35745423D02*
X279953186Y-35745423D01*
X279953186Y-35745423D02*
X282363094Y-35745423D01*
X282363094Y-35745423D02*
X284836967Y-35745423D01*
X284836967Y-35745423D02*
X287358859Y-35745423D01*
X287358859Y-35745423D02*
X289912824Y-35745423D01*
X289912824Y-35745423D02*
X292482918Y-35745423D01*
X292482918Y-35745423D02*
X295053195Y-35745423D01*
X295053195Y-35745423D02*
X297607710Y-35745423D01*
X297607710Y-35745423D02*
X300130516Y-35745423D01*
X300130516Y-35745423D02*
X302605669Y-35745423D01*
X302605669Y-35745423D02*
X305017224Y-35745423D01*
X305017224Y-35745423D02*
X307349234Y-35745423D01*
X307349234Y-35745423D02*
X309585754Y-35745423D01*
X309585754Y-35745423D02*
X311710840Y-35745423D01*
X311710840Y-35745423D02*
X313708545Y-35745423D01*
X313708545Y-35745423D02*
X315562924Y-35745423D01*
X315562924Y-35745423D02*
X317258031Y-35745423D01*
X317258031Y-35745423D02*
X318777922Y-35745423D01*
X318777922Y-35745423D02*
X320106651Y-35745423D01*
X320106651Y-35745423D02*
X321228271Y-35745423D01*
X321228271Y-35745423D02*
X322126839Y-35745423D01*
X322126839Y-35745423D02*
X322786409Y-35745423D01*
X261699916Y-35219081D02*
X261741280Y-35423955D01*
X261741280Y-35423955D02*
X261854083Y-35591259D01*
X261854083Y-35591259D02*
X262021388Y-35704059D01*
X262021388Y-35704059D02*
X262226260Y-35745423D01*
X44850428Y-47775467D02*
X44850428Y-47394106D01*
X44850428Y-47394106D02*
X44850428Y-47170062D01*
X44850428Y-47170062D02*
X44850428Y-46925843D01*
X44850428Y-46925843D02*
X44850428Y-46663002D01*
X44850428Y-46663002D02*
X44850428Y-46383091D01*
X44850428Y-46383091D02*
X44850428Y-46087662D01*
X44850428Y-46087662D02*
X44850428Y-45778266D01*
X44850428Y-45778266D02*
X44850428Y-45456455D01*
X44850428Y-45456455D02*
X44850428Y-45123781D01*
X44850428Y-45123781D02*
X44850428Y-44781797D01*
X44850428Y-44781797D02*
X44850428Y-44432053D01*
X44850428Y-44432053D02*
X44850428Y-44076102D01*
X44850428Y-44076102D02*
X44850428Y-43715495D01*
X44850428Y-43715495D02*
X44850428Y-43351784D01*
X44850428Y-43351784D02*
X44850428Y-42986522D01*
X44850428Y-42986522D02*
X44850428Y-42621260D01*
X44850428Y-42621260D02*
X44850428Y-42257549D01*
X44850428Y-42257549D02*
X44850428Y-41896942D01*
X44850428Y-41896942D02*
X44850428Y-41540991D01*
X44850428Y-41540991D02*
X44850428Y-41191247D01*
X44850428Y-41191247D02*
X44850428Y-40849262D01*
X44850428Y-40849262D02*
X44850428Y-40516589D01*
X44850428Y-40516589D02*
X44850428Y-40194778D01*
X44850428Y-40194778D02*
X44850428Y-39885382D01*
X44850428Y-39885382D02*
X44850428Y-39589952D01*
X44850428Y-39589952D02*
X44850428Y-39310041D01*
X44850428Y-39310041D02*
X44850428Y-39047200D01*
X44850428Y-39047200D02*
X44850428Y-38802981D01*
X44850428Y-38802981D02*
X44850428Y-38578936D01*
X44850428Y-38578936D02*
X44850428Y-38376617D01*
X44850428Y-38376617D02*
X44850428Y-38197576D01*
X44350543Y-48275355D02*
X44567327Y-48226024D01*
X44567327Y-48226024D02*
X44736325Y-48093355D01*
X44736325Y-48093355D02*
X44834699Y-47900326D01*
X44834699Y-47900326D02*
X44850428Y-47775467D01*
X42588069Y-48275355D02*
X42839538Y-48275355D01*
X42839538Y-48275355D02*
X43060427Y-48275355D01*
X43060427Y-48275355D02*
X43292140Y-48275355D01*
X43292140Y-48275355D02*
X43528490Y-48275355D01*
X43528490Y-48275355D02*
X43763295Y-48275355D01*
X43763295Y-48275355D02*
X43990368Y-48275355D01*
X43990368Y-48275355D02*
X44203526Y-48275355D01*
X44203526Y-48275355D02*
X44350543Y-48275355D01*
X42088185Y-47775467D02*
X42137454Y-47992097D01*
X42137454Y-47992097D02*
X42270035Y-48161137D01*
X42270035Y-48161137D02*
X42463091Y-48259604D01*
X42463091Y-48259604D02*
X42588069Y-48275355D01*
X42088185Y-38197576D02*
X42088185Y-38578936D01*
X42088185Y-38578936D02*
X42088185Y-38802981D01*
X42088185Y-38802981D02*
X42088185Y-39047200D01*
X42088185Y-39047200D02*
X42088185Y-39310041D01*
X42088185Y-39310041D02*
X42088185Y-39589952D01*
X42088185Y-39589952D02*
X42088185Y-39885382D01*
X42088185Y-39885382D02*
X42088185Y-40194778D01*
X42088185Y-40194778D02*
X42088185Y-40516589D01*
X42088185Y-40516589D02*
X42088185Y-40849262D01*
X42088185Y-40849262D02*
X42088185Y-41191247D01*
X42088185Y-41191247D02*
X42088185Y-41540991D01*
X42088185Y-41540991D02*
X42088185Y-41896942D01*
X42088185Y-41896942D02*
X42088185Y-42257549D01*
X42088185Y-42257549D02*
X42088185Y-42621260D01*
X42088185Y-42621260D02*
X42088185Y-42986522D01*
X42088185Y-42986522D02*
X42088185Y-43351784D01*
X42088185Y-43351784D02*
X42088185Y-43715495D01*
X42088185Y-43715495D02*
X42088185Y-44076102D01*
X42088185Y-44076102D02*
X42088185Y-44432053D01*
X42088185Y-44432053D02*
X42088185Y-44781797D01*
X42088185Y-44781797D02*
X42088185Y-45123781D01*
X42088185Y-45123781D02*
X42088185Y-45456455D01*
X42088185Y-45456455D02*
X42088185Y-45778266D01*
X42088185Y-45778266D02*
X42088185Y-46087662D01*
X42088185Y-46087662D02*
X42088185Y-46383091D01*
X42088185Y-46383091D02*
X42088185Y-46663002D01*
X42088185Y-46663002D02*
X42088185Y-46925843D01*
X42088185Y-46925843D02*
X42088185Y-47170062D01*
X42088185Y-47170062D02*
X42088185Y-47394106D01*
X42088185Y-47394106D02*
X42088185Y-47596425D01*
X42088185Y-47596425D02*
X42088185Y-47775467D01*
X42588069Y-37697692D02*
X42371285Y-37747021D01*
X42371285Y-37747021D02*
X42202287Y-37879688D01*
X42202287Y-37879688D02*
X42103913Y-38072715D01*
X42103913Y-38072715D02*
X42088185Y-38197576D01*
X44350543Y-37697692D02*
X44099073Y-37697692D01*
X44099073Y-37697692D02*
X43878184Y-37697692D01*
X43878184Y-37697692D02*
X43646472Y-37697692D01*
X43646472Y-37697692D02*
X43410122Y-37697692D01*
X43410122Y-37697692D02*
X43175317Y-37697692D01*
X43175317Y-37697692D02*
X42948243Y-37697692D01*
X42948243Y-37697692D02*
X42735085Y-37697692D01*
X42735085Y-37697692D02*
X42588069Y-37697692D01*
X44850428Y-38197576D02*
X44801158Y-37980945D01*
X44801158Y-37980945D02*
X44668576Y-37811907D01*
X44668576Y-37811907D02*
X44475520Y-37713442D01*
X44475520Y-37713442D02*
X44350543Y-37697692D01*
X218050127Y-54795375D02*
X218265984Y-54745736D01*
X218265984Y-54745736D02*
X218435221Y-54612582D01*
X218435221Y-54612582D02*
X218534149Y-54419549D01*
X218534149Y-54419549D02*
X218550009Y-54295138D01*
X205049941Y-54795375D02*
X218050127Y-54795375D01*
X204550059Y-54295138D02*
X204599690Y-54511221D01*
X204599690Y-54511221D02*
X204732790Y-54680559D01*
X204732790Y-54680559D02*
X204925672Y-54779514D01*
X204925672Y-54779514D02*
X205049941Y-54795375D01*
X204550059Y-41295307D02*
X204550059Y-54295138D01*
X205049941Y-40795070D02*
X204834083Y-40844708D01*
X204834083Y-40844708D02*
X204664846Y-40977862D01*
X204664846Y-40977862D02*
X204565918Y-41170895D01*
X204565918Y-41170895D02*
X204550059Y-41295307D01*
X218050127Y-40795070D02*
X205049941Y-40795070D01*
X218550009Y-41295307D02*
X218500377Y-41079223D01*
X218500377Y-41079223D02*
X218367276Y-40909885D01*
X218367276Y-40909885D02*
X218174395Y-40810930D01*
X218174395Y-40810930D02*
X218050127Y-40795070D01*
X218550009Y-54295138D02*
X218550009Y-41295307D01*
X103750412Y-54795375D02*
X103966272Y-54745736D01*
X103966272Y-54745736D02*
X104135509Y-54612582D01*
X104135509Y-54612582D02*
X104234435Y-54419549D01*
X104234435Y-54419549D02*
X104250295Y-54295138D01*
X90750232Y-54795375D02*
X103750412Y-54795375D01*
X90250344Y-54295138D02*
X90299974Y-54511221D01*
X90299974Y-54511221D02*
X90433074Y-54680559D01*
X90433074Y-54680559D02*
X90625959Y-54779514D01*
X90625959Y-54779514D02*
X90750232Y-54795375D01*
X90250344Y-41295307D02*
X90250344Y-54295138D01*
X90750232Y-40795070D02*
X90534368Y-40844708D01*
X90534368Y-40844708D02*
X90365130Y-40977862D01*
X90365130Y-40977862D02*
X90266203Y-41170895D01*
X90266203Y-41170895D02*
X90250344Y-41295307D01*
X103750412Y-40795070D02*
X90750232Y-40795070D01*
X104250295Y-41295307D02*
X104200664Y-41079223D01*
X104200664Y-41079223D02*
X104067565Y-40909885D01*
X104067565Y-40909885D02*
X103874682Y-40810930D01*
X103874682Y-40810930D02*
X103750412Y-40795070D01*
X104250295Y-54295138D02*
X104250295Y-41295307D01*
X122800365Y-54795375D02*
X123016224Y-54745736D01*
X123016224Y-54745736D02*
X123185461Y-54612582D01*
X123185461Y-54612582D02*
X123284387Y-54419549D01*
X123284387Y-54419549D02*
X123300247Y-54295138D01*
X109800184Y-54795375D02*
X122800365Y-54795375D01*
X109300297Y-54295138D02*
X109349927Y-54511221D01*
X109349927Y-54511221D02*
X109483027Y-54680559D01*
X109483027Y-54680559D02*
X109675911Y-54779514D01*
X109675911Y-54779514D02*
X109800184Y-54795375D01*
X109300297Y-41295307D02*
X109300297Y-54295138D01*
X109800184Y-40795070D02*
X109584320Y-40844708D01*
X109584320Y-40844708D02*
X109415083Y-40977862D01*
X109415083Y-40977862D02*
X109316156Y-41170895D01*
X109316156Y-41170895D02*
X109300297Y-41295307D01*
X122800365Y-40795070D02*
X109800184Y-40795070D01*
X123300247Y-41295307D02*
X123250616Y-41079223D01*
X123250616Y-41079223D02*
X123117517Y-40909885D01*
X123117517Y-40909885D02*
X122924635Y-40810930D01*
X122924635Y-40810930D02*
X122800365Y-40795070D01*
X123300247Y-54295138D02*
X123300247Y-41295307D01*
X160900270Y-54795375D02*
X161116132Y-54745736D01*
X161116132Y-54745736D02*
X161285367Y-54612582D01*
X161285367Y-54612582D02*
X161384292Y-54419549D01*
X161384292Y-54419549D02*
X161400152Y-54295138D01*
X147900084Y-54795375D02*
X160900270Y-54795375D01*
X147400201Y-54295138D02*
X147449832Y-54511221D01*
X147449832Y-54511221D02*
X147582933Y-54680559D01*
X147582933Y-54680559D02*
X147775815Y-54779514D01*
X147775815Y-54779514D02*
X147900084Y-54795375D01*
X147400201Y-41295307D02*
X147400201Y-54295138D01*
X147900084Y-40795070D02*
X147684226Y-40844708D01*
X147684226Y-40844708D02*
X147514988Y-40977862D01*
X147514988Y-40977862D02*
X147416060Y-41170895D01*
X147416060Y-41170895D02*
X147400201Y-41295307D01*
X160900270Y-40795070D02*
X147900084Y-40795070D01*
X161400152Y-41295307D02*
X161350522Y-41079223D01*
X161350522Y-41079223D02*
X161217424Y-40909885D01*
X161217424Y-40909885D02*
X161024541Y-40810930D01*
X161024541Y-40810930D02*
X160900270Y-40795070D01*
X161400152Y-54295138D02*
X161400152Y-41295307D01*
X71200392Y-54295138D02*
X71250022Y-54511221D01*
X71250022Y-54511221D02*
X71383122Y-54680559D01*
X71383122Y-54680559D02*
X71576005Y-54779514D01*
X71576005Y-54779514D02*
X71700277Y-54795375D01*
X71200392Y-41295307D02*
X71200392Y-54295138D01*
X71700277Y-40795070D02*
X71484415Y-40844708D01*
X71484415Y-40844708D02*
X71315178Y-40977862D01*
X71315178Y-40977862D02*
X71216251Y-41170895D01*
X71216251Y-41170895D02*
X71200392Y-41295307D01*
X84700460Y-40795070D02*
X71700277Y-40795070D01*
X85200342Y-41295307D02*
X85150711Y-41079223D01*
X85150711Y-41079223D02*
X85017612Y-40909885D01*
X85017612Y-40909885D02*
X84824730Y-40810930D01*
X84824730Y-40810930D02*
X84700460Y-40795070D01*
X85200342Y-54295138D02*
X85200342Y-41295307D01*
X84700460Y-54795375D02*
X84916319Y-54745736D01*
X84916319Y-54745736D02*
X85085556Y-54612582D01*
X85085556Y-54612582D02*
X85184482Y-54419549D01*
X85184482Y-54419549D02*
X85200342Y-54295138D01*
X71700277Y-54795375D02*
X84700460Y-54795375D01*
X199000174Y-54795375D02*
X199216036Y-54745736D01*
X199216036Y-54745736D02*
X199385272Y-54612582D01*
X199385272Y-54612582D02*
X199484196Y-54419549D01*
X199484196Y-54419549D02*
X199500056Y-54295138D01*
X185999988Y-54795375D02*
X199000174Y-54795375D01*
X185500106Y-54295138D02*
X185549737Y-54511221D01*
X185549737Y-54511221D02*
X185682838Y-54680559D01*
X185682838Y-54680559D02*
X185875719Y-54779514D01*
X185875719Y-54779514D02*
X185999988Y-54795375D01*
X185500106Y-41295307D02*
X185500106Y-54295138D01*
X185999988Y-40795070D02*
X185784130Y-40844708D01*
X185784130Y-40844708D02*
X185614893Y-40977862D01*
X185614893Y-40977862D02*
X185515965Y-41170895D01*
X185515965Y-41170895D02*
X185500106Y-41295307D01*
X199000174Y-40795070D02*
X185999988Y-40795070D01*
X199500056Y-41295307D02*
X199450426Y-41079223D01*
X199450426Y-41079223D02*
X199317328Y-40909885D01*
X199317328Y-40909885D02*
X199124446Y-40810930D01*
X199124446Y-40810930D02*
X199000174Y-40795070D01*
X199500056Y-54295138D02*
X199500056Y-41295307D01*
X256150031Y-54795375D02*
X256365888Y-54745736D01*
X256365888Y-54745736D02*
X256535126Y-54612582D01*
X256535126Y-54612582D02*
X256634054Y-54419549D01*
X256634054Y-54419549D02*
X256649914Y-54295138D01*
X243149845Y-54795375D02*
X256150031Y-54795375D01*
X242649963Y-54295138D02*
X242699594Y-54511221D01*
X242699594Y-54511221D02*
X242832695Y-54680559D01*
X242832695Y-54680559D02*
X243025576Y-54779514D01*
X243025576Y-54779514D02*
X243149845Y-54795375D01*
X242649963Y-41295307D02*
X242649963Y-54295138D01*
X243149845Y-40795070D02*
X242933987Y-40844708D01*
X242933987Y-40844708D02*
X242764750Y-40977862D01*
X242764750Y-40977862D02*
X242665822Y-41170895D01*
X242665822Y-41170895D02*
X242649963Y-41295307D01*
X256150031Y-40795070D02*
X243149845Y-40795070D01*
X256649914Y-41295307D02*
X256600282Y-41079223D01*
X256600282Y-41079223D02*
X256467181Y-40909885D01*
X256467181Y-40909885D02*
X256274299Y-40810930D01*
X256274299Y-40810930D02*
X256150031Y-40795070D01*
X256649914Y-54295138D02*
X256649914Y-41295307D01*
X63769146Y-41295307D02*
X63719515Y-41079223D01*
X63719515Y-41079223D02*
X63586415Y-40909885D01*
X63586415Y-40909885D02*
X63393532Y-40810930D01*
X63393532Y-40810930D02*
X63269261Y-40795070D01*
X63769146Y-54295138D02*
X63769146Y-41295307D01*
X63269261Y-54795375D02*
X63485122Y-54745736D01*
X63485122Y-54745736D02*
X63654359Y-54612582D01*
X63654359Y-54612582D02*
X63753286Y-54419549D01*
X63753286Y-54419549D02*
X63769146Y-54295138D01*
X47887836Y-54795375D02*
X63269261Y-54795375D01*
X47387951Y-54295138D02*
X47437581Y-54511221D01*
X47437581Y-54511221D02*
X47570681Y-54680559D01*
X47570681Y-54680559D02*
X47763564Y-54779514D01*
X47763564Y-54779514D02*
X47887836Y-54795375D01*
X47387951Y-41295307D02*
X47387951Y-54295138D01*
X47887836Y-40795070D02*
X47671974Y-40844708D01*
X47671974Y-40844708D02*
X47502737Y-40977862D01*
X47502737Y-40977862D02*
X47403810Y-41170895D01*
X47403810Y-41170895D02*
X47387951Y-41295307D01*
X63269261Y-40795070D02*
X47887836Y-40795070D01*
X141850317Y-54795375D02*
X142066179Y-54745736D01*
X142066179Y-54745736D02*
X142235415Y-54612582D01*
X142235415Y-54612582D02*
X142334339Y-54419549D01*
X142334339Y-54419549D02*
X142350199Y-54295138D01*
X128850131Y-54795375D02*
X141850317Y-54795375D01*
X128350249Y-54295138D02*
X128399880Y-54511221D01*
X128399880Y-54511221D02*
X128532980Y-54680559D01*
X128532980Y-54680559D02*
X128725862Y-54779514D01*
X128725862Y-54779514D02*
X128850131Y-54795375D01*
X128350249Y-41295307D02*
X128350249Y-54295138D01*
X128850131Y-40795070D02*
X128634273Y-40844708D01*
X128634273Y-40844708D02*
X128465036Y-40977862D01*
X128465036Y-40977862D02*
X128366108Y-41170895D01*
X128366108Y-41170895D02*
X128350249Y-41295307D01*
X141850317Y-40795070D02*
X128850131Y-40795070D01*
X142350199Y-41295307D02*
X142300569Y-41079223D01*
X142300569Y-41079223D02*
X142167471Y-40909885D01*
X142167471Y-40909885D02*
X141974589Y-40810930D01*
X141974589Y-40810930D02*
X141850317Y-40795070D01*
X142350199Y-54295138D02*
X142350199Y-41295307D01*
X237100079Y-54795375D02*
X237315936Y-54745736D01*
X237315936Y-54745736D02*
X237485173Y-54612582D01*
X237485173Y-54612582D02*
X237584101Y-54419549D01*
X237584101Y-54419549D02*
X237599961Y-54295138D01*
X224099893Y-54795375D02*
X237100079Y-54795375D01*
X223600011Y-54295138D02*
X223649642Y-54511221D01*
X223649642Y-54511221D02*
X223782742Y-54680559D01*
X223782742Y-54680559D02*
X223975624Y-54779514D01*
X223975624Y-54779514D02*
X224099893Y-54795375D01*
X223600011Y-41295307D02*
X223600011Y-54295138D01*
X224099893Y-40795070D02*
X223884035Y-40844708D01*
X223884035Y-40844708D02*
X223714798Y-40977862D01*
X223714798Y-40977862D02*
X223615870Y-41170895D01*
X223615870Y-41170895D02*
X223600011Y-41295307D01*
X237100079Y-40795070D02*
X224099893Y-40795070D01*
X237599961Y-41295307D02*
X237550329Y-41079223D01*
X237550329Y-41079223D02*
X237417229Y-40909885D01*
X237417229Y-40909885D02*
X237224347Y-40810930D01*
X237224347Y-40810930D02*
X237100079Y-40795070D01*
X237599961Y-54295138D02*
X237599961Y-41295307D01*
X179950222Y-54795375D02*
X180166084Y-54745736D01*
X180166084Y-54745736D02*
X180335319Y-54612582D01*
X180335319Y-54612582D02*
X180434244Y-54419549D01*
X180434244Y-54419549D02*
X180450104Y-54295138D01*
X166950036Y-54795375D02*
X179950222Y-54795375D01*
X166450154Y-54295138D02*
X166499785Y-54511221D01*
X166499785Y-54511221D02*
X166632885Y-54680559D01*
X166632885Y-54680559D02*
X166825767Y-54779514D01*
X166825767Y-54779514D02*
X166950036Y-54795375D01*
X166450154Y-41295307D02*
X166450154Y-54295138D01*
X166950036Y-40795070D02*
X166734178Y-40844708D01*
X166734178Y-40844708D02*
X166564941Y-40977862D01*
X166564941Y-40977862D02*
X166466013Y-41170895D01*
X166466013Y-41170895D02*
X166450154Y-41295307D01*
X179950222Y-40795070D02*
X166950036Y-40795070D01*
X180450104Y-41295307D02*
X180400474Y-41079223D01*
X180400474Y-41079223D02*
X180267376Y-40909885D01*
X180267376Y-40909885D02*
X180074493Y-40810930D01*
X180074493Y-40810930D02*
X179950222Y-40795070D01*
X180450104Y-54295138D02*
X180450104Y-41295307D01*
X94225436Y-73845328D02*
X94441295Y-73795689D01*
X94441295Y-73795689D02*
X94610532Y-73662534D01*
X94610532Y-73662534D02*
X94709458Y-73469502D01*
X94709458Y-73469502D02*
X94725318Y-73345090D01*
X81225256Y-73845328D02*
X94225436Y-73845328D01*
X80725368Y-73345090D02*
X80774998Y-73561173D01*
X80774998Y-73561173D02*
X80908098Y-73730512D01*
X80908098Y-73730512D02*
X81100983Y-73829467D01*
X81100983Y-73829467D02*
X81225256Y-73845328D01*
X80725368Y-60345259D02*
X80725368Y-73345090D01*
X81225256Y-59845022D02*
X81009392Y-59894660D01*
X81009392Y-59894660D02*
X80840154Y-60027814D01*
X80840154Y-60027814D02*
X80741227Y-60220847D01*
X80741227Y-60220847D02*
X80725368Y-60345259D01*
X94225436Y-59845022D02*
X81225256Y-59845022D01*
X94725318Y-60345259D02*
X94675687Y-60129175D01*
X94675687Y-60129175D02*
X94542588Y-59959837D01*
X94542588Y-59959837D02*
X94349706Y-59860882D01*
X94349706Y-59860882D02*
X94225436Y-59845022D01*
X94725318Y-73345090D02*
X94725318Y-60345259D01*
X113275389Y-73845328D02*
X113491248Y-73795689D01*
X113491248Y-73795689D02*
X113660485Y-73662534D01*
X113660485Y-73662534D02*
X113759411Y-73469502D01*
X113759411Y-73469502D02*
X113775271Y-73345090D01*
X100275208Y-73845328D02*
X113275389Y-73845328D01*
X99775321Y-73345090D02*
X99824951Y-73561173D01*
X99824951Y-73561173D02*
X99958051Y-73730512D01*
X99958051Y-73730512D02*
X100150935Y-73829467D01*
X100150935Y-73829467D02*
X100275208Y-73845328D01*
X99775321Y-60345259D02*
X99775321Y-73345090D01*
X100275208Y-59845022D02*
X100059344Y-59894660D01*
X100059344Y-59894660D02*
X99890106Y-60027814D01*
X99890106Y-60027814D02*
X99791180Y-60220847D01*
X99791180Y-60220847D02*
X99775321Y-60345259D01*
X113275389Y-59845022D02*
X100275208Y-59845022D01*
X113775271Y-60345259D02*
X113725640Y-60129175D01*
X113725640Y-60129175D02*
X113592541Y-59959837D01*
X113592541Y-59959837D02*
X113399659Y-59860882D01*
X113399659Y-59860882D02*
X113275389Y-59845022D01*
X113775271Y-73345090D02*
X113775271Y-60345259D01*
X246625055Y-73845328D02*
X246840912Y-73795689D01*
X246840912Y-73795689D02*
X247010149Y-73662534D01*
X247010149Y-73662534D02*
X247109077Y-73469502D01*
X247109077Y-73469502D02*
X247124937Y-73345090D01*
X233624869Y-73845328D02*
X246625055Y-73845328D01*
X233124987Y-73345090D02*
X233174618Y-73561173D01*
X233174618Y-73561173D02*
X233307719Y-73730512D01*
X233307719Y-73730512D02*
X233500600Y-73829467D01*
X233500600Y-73829467D02*
X233624869Y-73845328D01*
X233124987Y-60345259D02*
X233124987Y-73345090D01*
X233624869Y-59845022D02*
X233409011Y-59894660D01*
X233409011Y-59894660D02*
X233239774Y-60027814D01*
X233239774Y-60027814D02*
X233140846Y-60220847D01*
X233140846Y-60220847D02*
X233124987Y-60345259D01*
X246625055Y-59845022D02*
X233624869Y-59845022D01*
X247124937Y-60345259D02*
X247075305Y-60129175D01*
X247075305Y-60129175D02*
X246942205Y-59959837D01*
X246942205Y-59959837D02*
X246749323Y-59860882D01*
X246749323Y-59860882D02*
X246625055Y-59845022D01*
X247124937Y-73345090D02*
X247124937Y-60345259D01*
X208525151Y-73845328D02*
X208741013Y-73795689D01*
X208741013Y-73795689D02*
X208910248Y-73662534D01*
X208910248Y-73662534D02*
X209009173Y-73469502D01*
X209009173Y-73469502D02*
X209025033Y-73345090D01*
X195524964Y-73845328D02*
X208525151Y-73845328D01*
X195025082Y-73345090D02*
X195074713Y-73561173D01*
X195074713Y-73561173D02*
X195207814Y-73730512D01*
X195207814Y-73730512D02*
X195400695Y-73829467D01*
X195400695Y-73829467D02*
X195524964Y-73845328D01*
X195025082Y-60345259D02*
X195025082Y-73345090D01*
X195524964Y-59845022D02*
X195309106Y-59894660D01*
X195309106Y-59894660D02*
X195139869Y-60027814D01*
X195139869Y-60027814D02*
X195040941Y-60220847D01*
X195040941Y-60220847D02*
X195025082Y-60345259D01*
X208525151Y-59845022D02*
X195524964Y-59845022D01*
X209025033Y-60345259D02*
X208975403Y-60129175D01*
X208975403Y-60129175D02*
X208842305Y-59959837D01*
X208842305Y-59959837D02*
X208649422Y-59860882D01*
X208649422Y-59860882D02*
X208525151Y-59845022D01*
X209025033Y-73345090D02*
X209025033Y-60345259D01*
X265675008Y-73845328D02*
X265890865Y-73795689D01*
X265890865Y-73795689D02*
X266060102Y-73662534D01*
X266060102Y-73662534D02*
X266159030Y-73469502D01*
X266159030Y-73469502D02*
X266174890Y-73345090D01*
X252674822Y-73845328D02*
X265675008Y-73845328D01*
X252174940Y-73345090D02*
X252224571Y-73561173D01*
X252224571Y-73561173D02*
X252357671Y-73730512D01*
X252357671Y-73730512D02*
X252550553Y-73829467D01*
X252550553Y-73829467D02*
X252674822Y-73845328D01*
X252174940Y-60345259D02*
X252174940Y-73345090D01*
X252674822Y-59845022D02*
X252458964Y-59894660D01*
X252458964Y-59894660D02*
X252289727Y-60027814D01*
X252289727Y-60027814D02*
X252190799Y-60220847D01*
X252190799Y-60220847D02*
X252174940Y-60345259D01*
X265675008Y-59845022D02*
X252674822Y-59845022D01*
X266174890Y-60345259D02*
X266125258Y-60129175D01*
X266125258Y-60129175D02*
X265992157Y-59959837D01*
X265992157Y-59959837D02*
X265799276Y-59860882D01*
X265799276Y-59860882D02*
X265675008Y-59845022D01*
X266174890Y-73345090D02*
X266174890Y-60345259D01*
X189475198Y-73845328D02*
X189691060Y-73795689D01*
X189691060Y-73795689D02*
X189860296Y-73662534D01*
X189860296Y-73662534D02*
X189959220Y-73469502D01*
X189959220Y-73469502D02*
X189975080Y-73345090D01*
X176475012Y-73845328D02*
X189475198Y-73845328D01*
X175975130Y-73345090D02*
X176024761Y-73561173D01*
X176024761Y-73561173D02*
X176157861Y-73730512D01*
X176157861Y-73730512D02*
X176350743Y-73829467D01*
X176350743Y-73829467D02*
X176475012Y-73845328D01*
X175975130Y-60345259D02*
X175975130Y-73345090D01*
X176475012Y-59845022D02*
X176259154Y-59894660D01*
X176259154Y-59894660D02*
X176089917Y-60027814D01*
X176089917Y-60027814D02*
X175990989Y-60220847D01*
X175990989Y-60220847D02*
X175975130Y-60345259D01*
X189475198Y-59845022D02*
X176475012Y-59845022D01*
X189975080Y-60345259D02*
X189925450Y-60129175D01*
X189925450Y-60129175D02*
X189792352Y-59959837D01*
X189792352Y-59959837D02*
X189599470Y-59860882D01*
X189599470Y-59860882D02*
X189475198Y-59845022D01*
X189975080Y-73345090D02*
X189975080Y-60345259D01*
X170425246Y-73845328D02*
X170641108Y-73795689D01*
X170641108Y-73795689D02*
X170810343Y-73662534D01*
X170810343Y-73662534D02*
X170909268Y-73469502D01*
X170909268Y-73469502D02*
X170925128Y-73345090D01*
X157425060Y-73845328D02*
X170425246Y-73845328D01*
X156925178Y-73345090D02*
X156974809Y-73561173D01*
X156974809Y-73561173D02*
X157107909Y-73730512D01*
X157107909Y-73730512D02*
X157300791Y-73829467D01*
X157300791Y-73829467D02*
X157425060Y-73845328D01*
X156925178Y-60345259D02*
X156925178Y-73345090D01*
X157425060Y-59845022D02*
X157209202Y-59894660D01*
X157209202Y-59894660D02*
X157039965Y-60027814D01*
X157039965Y-60027814D02*
X156941037Y-60220847D01*
X156941037Y-60220847D02*
X156925178Y-60345259D01*
X170425246Y-59845022D02*
X157425060Y-59845022D01*
X170925128Y-60345259D02*
X170875498Y-60129175D01*
X170875498Y-60129175D02*
X170742400Y-59959837D01*
X170742400Y-59959837D02*
X170549517Y-59860882D01*
X170549517Y-59860882D02*
X170425246Y-59845022D01*
X170925128Y-73345090D02*
X170925128Y-60345259D01*
X151375293Y-73845328D02*
X151591155Y-73795689D01*
X151591155Y-73795689D02*
X151760391Y-73662534D01*
X151760391Y-73662534D02*
X151859316Y-73469502D01*
X151859316Y-73469502D02*
X151875176Y-73345090D01*
X138375107Y-73845328D02*
X151375293Y-73845328D01*
X137875225Y-73345090D02*
X137924856Y-73561173D01*
X137924856Y-73561173D02*
X138057957Y-73730512D01*
X138057957Y-73730512D02*
X138250838Y-73829467D01*
X138250838Y-73829467D02*
X138375107Y-73845328D01*
X137875225Y-60345259D02*
X137875225Y-73345090D01*
X138375107Y-59845022D02*
X138159249Y-59894660D01*
X138159249Y-59894660D02*
X137990012Y-60027814D01*
X137990012Y-60027814D02*
X137891084Y-60220847D01*
X137891084Y-60220847D02*
X137875225Y-60345259D01*
X151375293Y-59845022D02*
X138375107Y-59845022D01*
X151875176Y-60345259D02*
X151825546Y-60129175D01*
X151825546Y-60129175D02*
X151692448Y-59959837D01*
X151692448Y-59959837D02*
X151499565Y-59860882D01*
X151499565Y-59860882D02*
X151375293Y-59845022D01*
X151875176Y-73345090D02*
X151875176Y-60345259D01*
X227575103Y-73845328D02*
X227790960Y-73795689D01*
X227790960Y-73795689D02*
X227960197Y-73662534D01*
X227960197Y-73662534D02*
X228059125Y-73469502D01*
X228059125Y-73469502D02*
X228074985Y-73345090D01*
X214574917Y-73845328D02*
X227575103Y-73845328D01*
X214075035Y-73345090D02*
X214124666Y-73561173D01*
X214124666Y-73561173D02*
X214257766Y-73730512D01*
X214257766Y-73730512D02*
X214450648Y-73829467D01*
X214450648Y-73829467D02*
X214574917Y-73845328D01*
X214075035Y-60345259D02*
X214075035Y-73345090D01*
X214574917Y-59845022D02*
X214359059Y-59894660D01*
X214359059Y-59894660D02*
X214189822Y-60027814D01*
X214189822Y-60027814D02*
X214090894Y-60220847D01*
X214090894Y-60220847D02*
X214075035Y-60345259D01*
X227575103Y-59845022D02*
X214574917Y-59845022D01*
X228074985Y-60345259D02*
X228025353Y-60129175D01*
X228025353Y-60129175D02*
X227892253Y-59959837D01*
X227892253Y-59959837D02*
X227699371Y-59860882D01*
X227699371Y-59860882D02*
X227575103Y-59845022D01*
X228074985Y-73345090D02*
X228074985Y-60345259D01*
X132325341Y-73845328D02*
X132541203Y-73795689D01*
X132541203Y-73795689D02*
X132710439Y-73662534D01*
X132710439Y-73662534D02*
X132809363Y-73469502D01*
X132809363Y-73469502D02*
X132825223Y-73345090D01*
X119325160Y-73845328D02*
X132325341Y-73845328D01*
X118825273Y-73345090D02*
X118874903Y-73561173D01*
X118874903Y-73561173D02*
X119008003Y-73730512D01*
X119008003Y-73730512D02*
X119200887Y-73829467D01*
X119200887Y-73829467D02*
X119325160Y-73845328D01*
X118825273Y-60345259D02*
X118825273Y-73345090D01*
X119325160Y-59845022D02*
X119109296Y-59894660D01*
X119109296Y-59894660D02*
X118940059Y-60027814D01*
X118940059Y-60027814D02*
X118841132Y-60220847D01*
X118841132Y-60220847D02*
X118825273Y-60345259D01*
X132325341Y-59845022D02*
X119325160Y-59845022D01*
X132825223Y-60345259D02*
X132775593Y-60129175D01*
X132775593Y-60129175D02*
X132642495Y-59959837D01*
X132642495Y-59959837D02*
X132449613Y-59860882D01*
X132449613Y-59860882D02*
X132325341Y-59845022D01*
X132825223Y-73345090D02*
X132825223Y-60345259D01*
X303774912Y-73850619D02*
X303990769Y-73800980D01*
X303990769Y-73800980D02*
X304160007Y-73667826D01*
X304160007Y-73667826D02*
X304258935Y-73474793D01*
X304258935Y-73474793D02*
X304274795Y-73350382D01*
X290774726Y-73850619D02*
X303774912Y-73850619D01*
X290274844Y-73350382D02*
X290324475Y-73566465D01*
X290324475Y-73566465D02*
X290457576Y-73735803D01*
X290457576Y-73735803D02*
X290650457Y-73834758D01*
X290650457Y-73834758D02*
X290774726Y-73850619D01*
X290274844Y-60350556D02*
X290274844Y-73350382D01*
X290774726Y-59850669D02*
X290558868Y-59900239D01*
X290558868Y-59900239D02*
X290389631Y-60033254D01*
X290389631Y-60033254D02*
X290290703Y-60226167D01*
X290290703Y-60226167D02*
X290274844Y-60350556D01*
X303774912Y-59850669D02*
X290774726Y-59850669D01*
X304274795Y-60350556D02*
X304225163Y-60134540D01*
X304225163Y-60134540D02*
X304092062Y-59965342D01*
X304092062Y-59965342D02*
X303899180Y-59866506D01*
X303899180Y-59866506D02*
X303774912Y-59850669D01*
X304274795Y-73350382D02*
X304274795Y-60350556D01*
X284724960Y-73850619D02*
X284940817Y-73800980D01*
X284940817Y-73800980D02*
X285110054Y-73667826D01*
X285110054Y-73667826D02*
X285208982Y-73474793D01*
X285208982Y-73474793D02*
X285224842Y-73350382D01*
X271724774Y-73850619D02*
X284724960Y-73850619D01*
X271224892Y-73350382D02*
X271274523Y-73566465D01*
X271274523Y-73566465D02*
X271407623Y-73735803D01*
X271407623Y-73735803D02*
X271600505Y-73834758D01*
X271600505Y-73834758D02*
X271724774Y-73850619D01*
X271224892Y-60350556D02*
X271224892Y-73350382D01*
X271724774Y-59850669D02*
X271508916Y-59900239D01*
X271508916Y-59900239D02*
X271339679Y-60033254D01*
X271339679Y-60033254D02*
X271240751Y-60226167D01*
X271240751Y-60226167D02*
X271224892Y-60350556D01*
X284724960Y-59850669D02*
X271724774Y-59850669D01*
X285224842Y-60350556D02*
X285175210Y-60134540D01*
X285175210Y-60134540D02*
X285042110Y-59965342D01*
X285042110Y-59965342D02*
X284849228Y-59866506D01*
X284849228Y-59866506D02*
X284724960Y-59850669D01*
X285224842Y-73350382D02*
X285224842Y-60350556D01*
X56625415Y-79395212D02*
X56582997Y-79179128D01*
X56582997Y-79179128D02*
X56469243Y-79009789D01*
X56469243Y-79009789D02*
X56283811Y-78905211D01*
X56283811Y-78905211D02*
X56198201Y-78894974D01*
X56625415Y-92395043D02*
X56625415Y-79395212D01*
X56198201Y-92895280D02*
X56401083Y-92834539D01*
X56401083Y-92834539D02*
X56552005Y-92673935D01*
X56552005Y-92673935D02*
X56620451Y-92470806D01*
X56620451Y-92470806D02*
X56625415Y-92395043D01*
X43052676Y-92895280D02*
X56198201Y-92895280D01*
X42625463Y-92395043D02*
X42667880Y-92611128D01*
X42667880Y-92611128D02*
X42781634Y-92780466D01*
X42781634Y-92780466D02*
X42967065Y-92885042D01*
X42967065Y-92885042D02*
X43052676Y-92895280D01*
X42625463Y-79395212D02*
X42625463Y-92395043D01*
X43052676Y-78894974D02*
X42849794Y-78955715D01*
X42849794Y-78955715D02*
X42698872Y-79116320D01*
X42698872Y-79116320D02*
X42630426Y-79319449D01*
X42630426Y-79319449D02*
X42625463Y-79395212D01*
X56198201Y-78894974D02*
X43052676Y-78894974D01*
X75675366Y-79395212D02*
X75638361Y-79179128D01*
X75638361Y-79179128D02*
X75524939Y-78994886D01*
X75524939Y-78994886D02*
X75340097Y-78897576D01*
X75340097Y-78897576D02*
X75302129Y-78894974D01*
X75675366Y-92395043D02*
X75675366Y-79395212D01*
X75302129Y-92895280D02*
X75495146Y-92822438D01*
X75495146Y-92822438D02*
X75621059Y-92653630D01*
X75621059Y-92653630D02*
X75673426Y-92445891D01*
X75673426Y-92445891D02*
X75675366Y-92395043D01*
X62048301Y-92895280D02*
X75302129Y-92895280D01*
X61675416Y-92395043D02*
X61712412Y-92611128D01*
X61712412Y-92611128D02*
X61825767Y-92795369D01*
X61825767Y-92795369D02*
X62010394Y-92892677D01*
X62010394Y-92892677D02*
X62048301Y-92895280D01*
X61675416Y-79395212D02*
X61675416Y-92395043D01*
X62048301Y-78894974D02*
X61855535Y-78967816D01*
X61855535Y-78967816D02*
X61729708Y-79136625D01*
X61729708Y-79136625D02*
X61677355Y-79344364D01*
X61677355Y-79344364D02*
X61675416Y-79395212D01*
X75302129Y-78894974D02*
X62048301Y-78894974D01*
X303774912Y-92895280D02*
X303990769Y-92845642D01*
X303990769Y-92845642D02*
X304160007Y-92712489D01*
X304160007Y-92712489D02*
X304258935Y-92519456D01*
X304258935Y-92519456D02*
X304274795Y-92395043D01*
X290774726Y-92895280D02*
X303774912Y-92895280D01*
X290274844Y-92395043D02*
X290324475Y-92611128D01*
X290324475Y-92611128D02*
X290457576Y-92780466D01*
X290457576Y-92780466D02*
X290650457Y-92879419D01*
X290650457Y-92879419D02*
X290774726Y-92895280D01*
X290274844Y-79395212D02*
X290274844Y-92395043D01*
X290774726Y-78894974D02*
X290558868Y-78944612D01*
X290558868Y-78944612D02*
X290389631Y-79077767D01*
X290389631Y-79077767D02*
X290290703Y-79270799D01*
X290290703Y-79270799D02*
X290274844Y-79395212D01*
X303774912Y-78894974D02*
X290774726Y-78894974D01*
X304274795Y-79395212D02*
X304225163Y-79179128D01*
X304225163Y-79179128D02*
X304092062Y-79009789D01*
X304092062Y-79009789D02*
X303899180Y-78910834D01*
X303899180Y-78910834D02*
X303774912Y-78894974D01*
X304274795Y-92395043D02*
X304274795Y-79395212D01*
X104537809Y-92395043D02*
X104587439Y-92611128D01*
X104587439Y-92611128D02*
X104720539Y-92780466D01*
X104720539Y-92780466D02*
X104913423Y-92879419D01*
X104913423Y-92879419D02*
X105037696Y-92895280D01*
X104537809Y-79395212D02*
X104537809Y-92395043D01*
X105037696Y-78894974D02*
X104821832Y-78944612D01*
X104821832Y-78944612D02*
X104652595Y-79077767D01*
X104652595Y-79077767D02*
X104553668Y-79270799D01*
X104553668Y-79270799D02*
X104537809Y-79395212D01*
X120419121Y-78894974D02*
X105037696Y-78894974D01*
X120919003Y-79395212D02*
X120869372Y-79179128D01*
X120869372Y-79179128D02*
X120736273Y-79009789D01*
X120736273Y-79009789D02*
X120543391Y-78910834D01*
X120543391Y-78910834D02*
X120419121Y-78894974D01*
X120919003Y-92395043D02*
X120919003Y-79395212D01*
X120419121Y-92895280D02*
X120634980Y-92845642D01*
X120634980Y-92845642D02*
X120804217Y-92712489D01*
X120804217Y-92712489D02*
X120903143Y-92519456D01*
X120903143Y-92519456D02*
X120919003Y-92395043D01*
X105037696Y-92895280D02*
X120419121Y-92895280D01*
X322824865Y-92895280D02*
X323040722Y-92845642D01*
X323040722Y-92845642D02*
X323209959Y-92712489D01*
X323209959Y-92712489D02*
X323308887Y-92519456D01*
X323308887Y-92519456D02*
X323324747Y-92395043D01*
X309824679Y-92895280D02*
X322824865Y-92895280D01*
X309324797Y-92395043D02*
X309374428Y-92611128D01*
X309374428Y-92611128D02*
X309507528Y-92780466D01*
X309507528Y-92780466D02*
X309700410Y-92879419D01*
X309700410Y-92879419D02*
X309824679Y-92895280D01*
X309324797Y-79395212D02*
X309324797Y-92395043D01*
X309824679Y-78894974D02*
X309608821Y-78944612D01*
X309608821Y-78944612D02*
X309439584Y-79077767D01*
X309439584Y-79077767D02*
X309340656Y-79270799D01*
X309340656Y-79270799D02*
X309324797Y-79395212D01*
X322824865Y-78894974D02*
X309824679Y-78894974D01*
X323324747Y-79395212D02*
X323275115Y-79179128D01*
X323275115Y-79179128D02*
X323142014Y-79009789D01*
X323142014Y-79009789D02*
X322949133Y-78910834D01*
X322949133Y-78910834D02*
X322824865Y-78894974D01*
X323324747Y-92395043D02*
X323324747Y-79395212D01*
X97106562Y-79395212D02*
X97063211Y-79179128D01*
X97063211Y-79179128D02*
X96946939Y-79009789D01*
X96946939Y-79009789D02*
X96757366Y-78905211D01*
X96757366Y-78905211D02*
X96669828Y-78894974D01*
X97106562Y-92395043D02*
X97106562Y-79395212D01*
X96669828Y-92895280D02*
X96877262Y-92834539D01*
X96877262Y-92834539D02*
X97019308Y-92693565D01*
X97019308Y-92693565D02*
X97097620Y-92495339D01*
X97097620Y-92495339D02*
X97106562Y-92395043D01*
X81161753Y-92895280D02*
X96669828Y-92895280D01*
X80725368Y-92395043D02*
X80768651Y-92611128D01*
X80768651Y-92611128D02*
X80884783Y-92780466D01*
X80884783Y-92780466D02*
X81074229Y-92885042D01*
X81074229Y-92885042D02*
X81161753Y-92895280D01*
X80725368Y-79395212D02*
X80725368Y-92395043D01*
X81161753Y-78894974D02*
X80954398Y-78955715D01*
X80954398Y-78955715D02*
X80812495Y-79096690D01*
X80812495Y-79096690D02*
X80734294Y-79294917D01*
X80734294Y-79294917D02*
X80725368Y-79395212D01*
X96669828Y-78894974D02*
X81161753Y-78894974D01*
X245483827Y-92895280D02*
X245778152Y-92895280D01*
X245778152Y-92895280D02*
X246137922Y-92895280D01*
X246137922Y-92895280D02*
X246558772Y-92895280D01*
X246558772Y-92895280D02*
X247036341Y-92895280D01*
X247036341Y-92895280D02*
X247566264Y-92895280D01*
X247566264Y-92895280D02*
X248144179Y-92895280D01*
X248144179Y-92895280D02*
X248765723Y-92895280D01*
X248765723Y-92895280D02*
X249426533Y-92895280D01*
X249426533Y-92895280D02*
X250122247Y-92895280D01*
X250122247Y-92895280D02*
X250848500Y-92895280D01*
X250848500Y-92895280D02*
X251600932Y-92895280D01*
X251600932Y-92895280D02*
X252375178Y-92895280D01*
X252375178Y-92895280D02*
X253166875Y-92895280D01*
X253166875Y-92895280D02*
X253971661Y-92895280D01*
X253971661Y-92895280D02*
X254785173Y-92895280D01*
X254785173Y-92895280D02*
X255603048Y-92895280D01*
X255603048Y-92895280D02*
X256420923Y-92895280D01*
X256420923Y-92895280D02*
X257234435Y-92895280D01*
X257234435Y-92895280D02*
X258039222Y-92895280D01*
X258039222Y-92895280D02*
X258830919Y-92895280D01*
X258830919Y-92895280D02*
X259605165Y-92895280D01*
X259605165Y-92895280D02*
X260357596Y-92895280D01*
X260357596Y-92895280D02*
X261083850Y-92895280D01*
X261083850Y-92895280D02*
X261779564Y-92895280D01*
X261779564Y-92895280D02*
X262440374Y-92895280D01*
X262440374Y-92895280D02*
X263061918Y-92895280D01*
X263061918Y-92895280D02*
X263639833Y-92895280D01*
X263639833Y-92895280D02*
X264169756Y-92895280D01*
X264169756Y-92895280D02*
X264647324Y-92895280D01*
X264647324Y-92895280D02*
X265068174Y-92895280D01*
X265068174Y-92895280D02*
X265427944Y-92895280D01*
X265427944Y-92895280D02*
X265722270Y-92895280D01*
X245031207Y-92442671D02*
X245075812Y-92638803D01*
X245075812Y-92638803D02*
X245212948Y-92805300D01*
X245212948Y-92805300D02*
X245414860Y-92890059D01*
X245414860Y-92890059D02*
X245483827Y-92895280D01*
X245031207Y-79352880D02*
X245031207Y-79570169D01*
X245031207Y-79570169D02*
X245031207Y-79824573D01*
X245031207Y-79824573D02*
X245031207Y-80113617D01*
X245031207Y-80113617D02*
X245031207Y-80434826D01*
X245031207Y-80434826D02*
X245031207Y-80785726D01*
X245031207Y-80785726D02*
X245031207Y-81163844D01*
X245031207Y-81163844D02*
X245031207Y-81566704D01*
X245031207Y-81566704D02*
X245031207Y-81991834D01*
X245031207Y-81991834D02*
X245031207Y-82436758D01*
X245031207Y-82436758D02*
X245031207Y-82899002D01*
X245031207Y-82899002D02*
X245031207Y-83376093D01*
X245031207Y-83376093D02*
X245031207Y-83865555D01*
X245031207Y-83865555D02*
X245031207Y-84364916D01*
X245031207Y-84364916D02*
X245031207Y-84871700D01*
X245031207Y-84871700D02*
X245031207Y-85383433D01*
X245031207Y-85383433D02*
X245031207Y-85897642D01*
X245031207Y-85897642D02*
X245031207Y-86411852D01*
X245031207Y-86411852D02*
X245031207Y-86923588D01*
X245031207Y-86923588D02*
X245031207Y-87430377D01*
X245031207Y-87430377D02*
X245031207Y-87929745D01*
X245031207Y-87929745D02*
X245031207Y-88419217D01*
X245031207Y-88419217D02*
X245031207Y-88896319D01*
X245031207Y-88896319D02*
X245031207Y-89358577D01*
X245031207Y-89358577D02*
X245031207Y-89803517D01*
X245031207Y-89803517D02*
X245031207Y-90228664D01*
X245031207Y-90228664D02*
X245031207Y-90631544D01*
X245031207Y-90631544D02*
X245031207Y-91009683D01*
X245031207Y-91009683D02*
X245031207Y-91360608D01*
X245031207Y-91360608D02*
X245031207Y-91681843D01*
X245031207Y-91681843D02*
X245031207Y-91970914D01*
X245031207Y-91970914D02*
X245031207Y-92225348D01*
X245031207Y-92225348D02*
X245031207Y-92442671D01*
X245483461Y-78900266D02*
X245287391Y-78944934D01*
X245287391Y-78944934D02*
X245121055Y-79082163D01*
X245121055Y-79082163D02*
X245036418Y-79283999D01*
X245036418Y-79283999D02*
X245031207Y-79352880D01*
X265722270Y-78895330D02*
X265427880Y-78895404D01*
X265427880Y-78895404D02*
X265068053Y-78895493D01*
X265068053Y-78895493D02*
X264647151Y-78895598D01*
X264647151Y-78895598D02*
X264169537Y-78895715D01*
X264169537Y-78895715D02*
X263639573Y-78895845D01*
X263639573Y-78895845D02*
X263061622Y-78895986D01*
X263061622Y-78895986D02*
X262440046Y-78896138D01*
X262440046Y-78896138D02*
X261779209Y-78896299D01*
X261779209Y-78896299D02*
X261083473Y-78896468D01*
X261083473Y-78896468D02*
X260357201Y-78896645D01*
X260357201Y-78896645D02*
X259604754Y-78896827D01*
X259604754Y-78896827D02*
X258830496Y-78897015D01*
X258830496Y-78897015D02*
X258038790Y-78897207D01*
X258038790Y-78897207D02*
X257233998Y-78897402D01*
X257233998Y-78897402D02*
X256420483Y-78897599D01*
X256420483Y-78897599D02*
X255602607Y-78897798D01*
X255602607Y-78897798D02*
X254784733Y-78897996D01*
X254784733Y-78897996D02*
X253971223Y-78898193D01*
X253971223Y-78898193D02*
X253166441Y-78898388D01*
X253166441Y-78898388D02*
X252374749Y-78898580D01*
X252374749Y-78898580D02*
X251600510Y-78898768D01*
X251600510Y-78898768D02*
X250848085Y-78898950D01*
X250848085Y-78898950D02*
X250121839Y-78899127D01*
X250121839Y-78899127D02*
X249426133Y-78899296D01*
X249426133Y-78899296D02*
X248765330Y-78899457D01*
X248765330Y-78899457D02*
X248143793Y-78899609D01*
X248143793Y-78899609D02*
X247565885Y-78899750D01*
X247565885Y-78899750D02*
X247035967Y-78899880D01*
X247035967Y-78899880D02*
X246558403Y-78899997D01*
X246558403Y-78899997D02*
X246137556Y-78900102D01*
X246137556Y-78900102D02*
X245777787Y-78900191D01*
X245777787Y-78900191D02*
X245483461Y-78900266D01*
X266042254Y-79027621D02*
X265864334Y-78918199D01*
X265864334Y-78918199D02*
X265722270Y-78895330D01*
X266174890Y-79347944D02*
X266126662Y-79144428D01*
X266126662Y-79144428D02*
X266042254Y-79027621D01*
X266174890Y-92442671D02*
X266174890Y-92225305D01*
X266174890Y-92225305D02*
X266174890Y-91970808D01*
X266174890Y-91970808D02*
X266174890Y-91681655D01*
X266174890Y-91681655D02*
X266174890Y-91360322D01*
X266174890Y-91360322D02*
X266174890Y-91009284D01*
X266174890Y-91009284D02*
X266174890Y-90631016D01*
X266174890Y-90631016D02*
X266174890Y-90227994D01*
X266174890Y-90227994D02*
X266174890Y-89802694D01*
X266174890Y-89802694D02*
X266174890Y-89357589D01*
X266174890Y-89357589D02*
X266174890Y-88895157D01*
X266174890Y-88895157D02*
X266174890Y-88417873D01*
X266174890Y-88417873D02*
X266174890Y-87928211D01*
X266174890Y-87928211D02*
X266174890Y-87428648D01*
X266174890Y-87428648D02*
X266174890Y-86921659D01*
X266174890Y-86921659D02*
X266174890Y-86409719D01*
X266174890Y-86409719D02*
X266174890Y-85895303D01*
X266174890Y-85895303D02*
X266174890Y-85380887D01*
X266174890Y-85380887D02*
X266174890Y-84868947D01*
X266174890Y-84868947D02*
X266174890Y-84361958D01*
X266174890Y-84361958D02*
X266174890Y-83862395D01*
X266174890Y-83862395D02*
X266174890Y-83372734D01*
X266174890Y-83372734D02*
X266174890Y-82895449D01*
X266174890Y-82895449D02*
X266174890Y-82433018D01*
X266174890Y-82433018D02*
X266174890Y-81987914D01*
X266174890Y-81987914D02*
X266174890Y-81562614D01*
X266174890Y-81562614D02*
X266174890Y-81159593D01*
X266174890Y-81159593D02*
X266174890Y-80781326D01*
X266174890Y-80781326D02*
X266174890Y-80430288D01*
X266174890Y-80430288D02*
X266174890Y-80108956D01*
X266174890Y-80108956D02*
X266174890Y-79819804D01*
X266174890Y-79819804D02*
X266174890Y-79565308D01*
X266174890Y-79565308D02*
X266174890Y-79347944D01*
X266042254Y-92762633D02*
X266151995Y-92584725D01*
X266151995Y-92584725D02*
X266174890Y-92442671D01*
X265722270Y-92895280D02*
X265925619Y-92846902D01*
X265925619Y-92846902D02*
X266042254Y-92762633D01*
X269359399Y-92895280D02*
X269612037Y-92895280D01*
X269612037Y-92895280D02*
X269908616Y-92895280D01*
X269908616Y-92895280D02*
X270246206Y-92895280D01*
X270246206Y-92895280D02*
X270621880Y-92895280D01*
X270621880Y-92895280D02*
X271032706Y-92895280D01*
X271032706Y-92895280D02*
X271475756Y-92895280D01*
X271475756Y-92895280D02*
X271948100Y-92895280D01*
X271948100Y-92895280D02*
X272446810Y-92895280D01*
X272446810Y-92895280D02*
X272968955Y-92895280D01*
X272968955Y-92895280D02*
X273511606Y-92895280D01*
X273511606Y-92895280D02*
X274071835Y-92895280D01*
X274071835Y-92895280D02*
X274646711Y-92895280D01*
X274646711Y-92895280D02*
X275233306Y-92895280D01*
X275233306Y-92895280D02*
X275828690Y-92895280D01*
X275828690Y-92895280D02*
X276429933Y-92895280D01*
X276429933Y-92895280D02*
X277034107Y-92895280D01*
X277034107Y-92895280D02*
X277638282Y-92895280D01*
X277638282Y-92895280D02*
X278239529Y-92895280D01*
X278239529Y-92895280D02*
X278834918Y-92895280D01*
X278834918Y-92895280D02*
X279421520Y-92895280D01*
X279421520Y-92895280D02*
X279996406Y-92895280D01*
X279996406Y-92895280D02*
X280556647Y-92895280D01*
X280556647Y-92895280D02*
X281099312Y-92895280D01*
X281099312Y-92895280D02*
X281621474Y-92895280D01*
X281621474Y-92895280D02*
X282120201Y-92895280D01*
X282120201Y-92895280D02*
X282592566Y-92895280D01*
X282592566Y-92895280D02*
X283035638Y-92895280D01*
X283035638Y-92895280D02*
X283446489Y-92895280D01*
X283446489Y-92895280D02*
X283822189Y-92895280D01*
X283822189Y-92895280D02*
X284159809Y-92895280D01*
X284159809Y-92895280D02*
X284456419Y-92895280D01*
X284456419Y-92895280D02*
X284709091Y-92895280D01*
X268843648Y-92379518D02*
X268884150Y-92580211D01*
X268884150Y-92580211D02*
X269012541Y-92761240D01*
X269012541Y-92761240D02*
X269205957Y-92872079D01*
X269205957Y-92872079D02*
X269359399Y-92895280D01*
X268843648Y-79416028D02*
X268843648Y-79640284D01*
X268843648Y-79640284D02*
X268843648Y-79899541D01*
X268843648Y-79899541D02*
X268843648Y-80191468D01*
X268843648Y-80191468D02*
X268843648Y-80513729D01*
X268843648Y-80513729D02*
X268843648Y-80863991D01*
X268843648Y-80863991D02*
X268843648Y-81239922D01*
X268843648Y-81239922D02*
X268843648Y-81639188D01*
X268843648Y-81639188D02*
X268843648Y-82059455D01*
X268843648Y-82059455D02*
X268843648Y-82498391D01*
X268843648Y-82498391D02*
X268843648Y-82953660D01*
X268843648Y-82953660D02*
X268843648Y-83422932D01*
X268843648Y-83422932D02*
X268843648Y-83903871D01*
X268843648Y-83903871D02*
X268843648Y-84394145D01*
X268843648Y-84394145D02*
X268843648Y-84891420D01*
X268843648Y-84891420D02*
X268843648Y-85393362D01*
X268843648Y-85393362D02*
X268843648Y-85897639D01*
X268843648Y-85897639D02*
X268843648Y-86401918D01*
X268843648Y-86401918D02*
X268843648Y-86903863D01*
X268843648Y-86903863D02*
X268843648Y-87401143D01*
X268843648Y-87401143D02*
X268843648Y-87891424D01*
X268843648Y-87891424D02*
X268843648Y-88372373D01*
X268843648Y-88372373D02*
X268843648Y-88841656D01*
X268843648Y-88841656D02*
X268843648Y-89296939D01*
X268843648Y-89296939D02*
X268843648Y-89735890D01*
X268843648Y-89735890D02*
X268843648Y-90156175D01*
X268843648Y-90156175D02*
X268843648Y-90555460D01*
X268843648Y-90555460D02*
X268843648Y-90931413D01*
X268843648Y-90931413D02*
X268843648Y-91281700D01*
X268843648Y-91281700D02*
X268843648Y-91603987D01*
X268843648Y-91603987D02*
X268843648Y-91895941D01*
X268843648Y-91895941D02*
X268843648Y-92155229D01*
X268843648Y-92155229D02*
X268843648Y-92379518D01*
X269359054Y-78900266D02*
X269158416Y-78940819D01*
X269158416Y-78940819D02*
X268977526Y-79069304D01*
X268977526Y-79069304D02*
X268866816Y-79262715D01*
X268866816Y-79262715D02*
X268843648Y-79416028D01*
X284709091Y-78895330D02*
X284456388Y-78895404D01*
X284456388Y-78895404D02*
X284159748Y-78895493D01*
X284159748Y-78895493D02*
X283822101Y-78895598D01*
X283822101Y-78895598D02*
X283446375Y-78895715D01*
X283446375Y-78895715D02*
X283035501Y-78895845D01*
X283035501Y-78895845D02*
X282592406Y-78895986D01*
X282592406Y-78895986D02*
X282120021Y-78896138D01*
X282120021Y-78896138D02*
X281621274Y-78896299D01*
X281621274Y-78896299D02*
X281099095Y-78896468D01*
X281099095Y-78896468D02*
X280556414Y-78896645D01*
X280556414Y-78896645D02*
X279996159Y-78896827D01*
X279996159Y-78896827D02*
X279421260Y-78897015D01*
X279421260Y-78897015D02*
X278834645Y-78897207D01*
X278834645Y-78897207D02*
X278239245Y-78897402D01*
X278239245Y-78897402D02*
X277637989Y-78897599D01*
X277637989Y-78897599D02*
X277033805Y-78897798D01*
X277033805Y-78897798D02*
X276429624Y-78897996D01*
X276429624Y-78897996D02*
X275828374Y-78898193D01*
X275828374Y-78898193D02*
X275232984Y-78898388D01*
X275232984Y-78898388D02*
X274646384Y-78898580D01*
X274646384Y-78898580D02*
X274071504Y-78898768D01*
X274071504Y-78898768D02*
X273511272Y-78898950D01*
X273511272Y-78898950D02*
X272968617Y-78899127D01*
X272968617Y-78899127D02*
X272446470Y-78899296D01*
X272446470Y-78899296D02*
X271947759Y-78899457D01*
X271947759Y-78899457D02*
X271475413Y-78899609D01*
X271475413Y-78899609D02*
X271032362Y-78899750D01*
X271032362Y-78899750D02*
X270621535Y-78899880D01*
X270621535Y-78899880D02*
X270245862Y-78899997D01*
X270245862Y-78899997D02*
X269908271Y-78900102D01*
X269908271Y-78900102D02*
X269611692Y-78900191D01*
X269611692Y-78900191D02*
X269359054Y-78900266D01*
X285073861Y-79046316D02*
X284906284Y-78934577D01*
X284906284Y-78934577D02*
X284709091Y-78895330D01*
X285224842Y-79411092D02*
X285185597Y-79213623D01*
X285185597Y-79213623D02*
X285073861Y-79046316D01*
X285224842Y-92379518D02*
X285224842Y-92155188D01*
X285224842Y-92155188D02*
X285224842Y-91895840D01*
X285224842Y-91895840D02*
X285224842Y-91603810D01*
X285224842Y-91603810D02*
X285224842Y-91281432D01*
X285224842Y-91281432D02*
X285224842Y-90931039D01*
X285224842Y-90931039D02*
X285224842Y-90554967D01*
X285224842Y-90554967D02*
X285224842Y-90155550D01*
X285224842Y-90155550D02*
X285224842Y-89735122D01*
X285224842Y-89735122D02*
X285224842Y-89296017D01*
X285224842Y-89296017D02*
X285224842Y-88840571D01*
X285224842Y-88840571D02*
X285224842Y-88371116D01*
X285224842Y-88371116D02*
X285224842Y-87889989D01*
X285224842Y-87889989D02*
X285224842Y-87399523D01*
X285224842Y-87399523D02*
X285224842Y-86902053D01*
X285224842Y-86902053D02*
X285224842Y-86399913D01*
X285224842Y-86399913D02*
X285224842Y-85895438D01*
X285224842Y-85895438D02*
X285224842Y-85390961D01*
X285224842Y-85390961D02*
X285224842Y-84888818D01*
X285224842Y-84888818D02*
X285224842Y-84391343D01*
X285224842Y-84391343D02*
X285224842Y-83900869D01*
X285224842Y-83900869D02*
X285224842Y-83419733D01*
X285224842Y-83419733D02*
X285224842Y-82950267D01*
X285224842Y-82950267D02*
X285224842Y-82494807D01*
X285224842Y-82494807D02*
X285224842Y-82055687D01*
X285224842Y-82055687D02*
X285224842Y-81635241D01*
X285224842Y-81635241D02*
X285224842Y-81235804D01*
X285224842Y-81235804D02*
X285224842Y-80859710D01*
X285224842Y-80859710D02*
X285224842Y-80509294D01*
X285224842Y-80509294D02*
X285224842Y-80186889D01*
X285224842Y-80186889D02*
X285224842Y-79894831D01*
X285224842Y-79894831D02*
X285224842Y-79635454D01*
X285224842Y-79635454D02*
X285224842Y-79411092D01*
X284709091Y-92895280D02*
X284909781Y-92854727D01*
X284909781Y-92854727D02*
X285090807Y-92726243D01*
X285090807Y-92726243D02*
X285201642Y-92532832D01*
X285201642Y-92532832D02*
X285224842Y-92379518D01*
X239181816Y-92444437D02*
X239181816Y-92097921D01*
X239181816Y-92097921D02*
X239181816Y-91840712D01*
X239181816Y-91840712D02*
X239181816Y-91594439D01*
X239181816Y-91594439D02*
X239181816Y-91373814D01*
X239181816Y-91373814D02*
X239181816Y-91076367D01*
X239181816Y-91076367D02*
X239181816Y-90819211D01*
X239181816Y-90819211D02*
X239181816Y-90472759D01*
X239632304Y-92895280D02*
X239436885Y-92850832D01*
X239436885Y-92850832D02*
X239271235Y-92714211D01*
X239271235Y-92714211D02*
X239187000Y-92513110D01*
X239187000Y-92513110D02*
X239181816Y-92444437D01*
X241911961Y-92895280D02*
X241665016Y-92895280D01*
X241665016Y-92895280D02*
X241457809Y-92895280D01*
X241457809Y-92895280D02*
X241236846Y-92895280D01*
X241236846Y-92895280D02*
X241006714Y-92895280D01*
X241006714Y-92895280D02*
X240772003Y-92895280D01*
X240772003Y-92895280D02*
X240537301Y-92895280D01*
X240537301Y-92895280D02*
X240307197Y-92895280D01*
X240307197Y-92895280D02*
X240086279Y-92895280D01*
X240086279Y-92895280D02*
X239879136Y-92895280D01*
X239879136Y-92895280D02*
X239632304Y-92895280D01*
X242362449Y-92444437D02*
X242318007Y-92639924D01*
X242318007Y-92639924D02*
X242181449Y-92805732D01*
X242181449Y-92805732D02*
X241980541Y-92890086D01*
X241980541Y-92890086D02*
X241911961Y-92895280D01*
X242362449Y-90472759D02*
X242362449Y-90819211D01*
X242362449Y-90819211D02*
X242362449Y-91076367D01*
X242362449Y-91076367D02*
X242362449Y-91322574D01*
X242362449Y-91322574D02*
X242362449Y-91543181D01*
X242362449Y-91543181D02*
X242362449Y-91840712D01*
X242362449Y-91840712D02*
X242362449Y-92097921D01*
X242362449Y-92097921D02*
X242362449Y-92444437D01*
X241911961Y-90021916D02*
X242107220Y-90066363D01*
X242107220Y-90066363D02*
X242272921Y-90202984D01*
X242272921Y-90202984D02*
X242357255Y-90404085D01*
X242357255Y-90404085D02*
X242362449Y-90472759D01*
X239632304Y-90021916D02*
X239879136Y-90021916D01*
X239879136Y-90021916D02*
X240086279Y-90021916D01*
X240086279Y-90021916D02*
X240307197Y-90021916D01*
X240307197Y-90021916D02*
X240537301Y-90021916D01*
X240537301Y-90021916D02*
X240772003Y-90021916D01*
X240772003Y-90021916D02*
X241006714Y-90021916D01*
X241006714Y-90021916D02*
X241236846Y-90021916D01*
X241236846Y-90021916D02*
X241457809Y-90021916D01*
X241457809Y-90021916D02*
X241665016Y-90021916D01*
X241665016Y-90021916D02*
X241911961Y-90021916D01*
X239181816Y-90472759D02*
X239226194Y-90277271D01*
X239226194Y-90277271D02*
X239362657Y-90111463D01*
X239362657Y-90111463D02*
X239563638Y-90027109D01*
X239563638Y-90027109D02*
X239632304Y-90021916D01*
X136437311Y-78900621D02*
X150931846Y-78900621D01*
X136437311Y-77400614D02*
X136437311Y-78900621D01*
X135937073Y-76900377D02*
X136153154Y-76950015D01*
X136153154Y-76950015D02*
X136322493Y-77083169D01*
X136322493Y-77083169D02*
X136421449Y-77276202D01*
X136421449Y-77276202D02*
X136437311Y-77400614D01*
X127555790Y-76900377D02*
X135937073Y-76900377D01*
X127055908Y-77400614D02*
X127105539Y-77184530D01*
X127105539Y-77184530D02*
X127238640Y-77015192D01*
X127238640Y-77015192D02*
X127431521Y-76916237D01*
X127431521Y-76916237D02*
X127555790Y-76900377D01*
X127055908Y-91400564D02*
X127055908Y-77400614D01*
X127555790Y-91900447D02*
X127339932Y-91850817D01*
X127339932Y-91850817D02*
X127170695Y-91717719D01*
X127170695Y-91717719D02*
X127071767Y-91524836D01*
X127071767Y-91524836D02*
X127055908Y-91400564D01*
X133112737Y-91900447D02*
X127555790Y-91900447D01*
X133112737Y-92400339D02*
X133112737Y-91900447D01*
X133612619Y-92900577D02*
X133396761Y-92850937D01*
X133396761Y-92850937D02*
X133227524Y-92717781D01*
X133227524Y-92717781D02*
X133128596Y-92524749D01*
X133128596Y-92524749D02*
X133112737Y-92400339D01*
X151375293Y-92900577D02*
X133612619Y-92900577D01*
X151875176Y-92400339D02*
X151825546Y-92616420D01*
X151825546Y-92616420D02*
X151692448Y-92785759D01*
X151692448Y-92785759D02*
X151499565Y-92884715D01*
X151499565Y-92884715D02*
X151375293Y-92900577D01*
X151875176Y-91900447D02*
X151875176Y-92400339D01*
X156925178Y-91900447D02*
X151875176Y-91900447D01*
X156925178Y-92400339D02*
X156925178Y-91900447D01*
X157425060Y-92900577D02*
X157209202Y-92850937D01*
X157209202Y-92850937D02*
X157039965Y-92717781D01*
X157039965Y-92717781D02*
X156941037Y-92524749D01*
X156941037Y-92524749D02*
X156925178Y-92400339D01*
X236012810Y-92900577D02*
X157425060Y-92900577D01*
X236513058Y-92400339D02*
X236463418Y-92616420D01*
X236463418Y-92616420D02*
X236330260Y-92785759D01*
X236330260Y-92785759D02*
X236137224Y-92884715D01*
X236137224Y-92884715D02*
X236012810Y-92900577D01*
X236513058Y-77400614D02*
X236513058Y-92400339D01*
X236012810Y-76900377D02*
X236228897Y-76950015D01*
X236228897Y-76950015D02*
X236398239Y-77083169D01*
X236398239Y-77083169D02*
X236497196Y-77276202D01*
X236497196Y-77276202D02*
X236513058Y-77400614D01*
X230012782Y-76900377D02*
X236012810Y-76900377D01*
X229512900Y-77400614D02*
X229562531Y-77184530D01*
X229562531Y-77184530D02*
X229695631Y-77015192D01*
X229695631Y-77015192D02*
X229888513Y-76916237D01*
X229888513Y-76916237D02*
X230012782Y-76900377D01*
X229512900Y-78900621D02*
X229512900Y-77400614D01*
X212637120Y-78900621D02*
X229512900Y-78900621D01*
X212637120Y-77400614D02*
X212637120Y-78900621D01*
X212136883Y-76900377D02*
X212352963Y-76950015D01*
X212352963Y-76950015D02*
X212522302Y-77083169D01*
X212522302Y-77083169D02*
X212621258Y-77276202D01*
X212621258Y-77276202D02*
X212637120Y-77400614D01*
X206136844Y-76900377D02*
X212136883Y-76900377D01*
X205636962Y-77400614D02*
X205686593Y-77184530D01*
X205686593Y-77184530D02*
X205819693Y-77015192D01*
X205819693Y-77015192D02*
X206012575Y-76916237D01*
X206012575Y-76916237D02*
X206136844Y-76900377D01*
X205636962Y-78900621D02*
X205636962Y-77400614D01*
X198413153Y-78900621D02*
X205636962Y-78900621D01*
X198413153Y-77400614D02*
X198413153Y-78900621D01*
X197912916Y-76900377D02*
X198128996Y-76950015D01*
X198128996Y-76950015D02*
X198298335Y-77083169D01*
X198298335Y-77083169D02*
X198397291Y-77276202D01*
X198397291Y-77276202D02*
X198413153Y-77400614D01*
X191912888Y-76900377D02*
X197912916Y-76900377D01*
X191412995Y-77400614D02*
X191462626Y-77184530D01*
X191462626Y-77184530D02*
X191595728Y-77015192D01*
X191595728Y-77015192D02*
X191788615Y-76916237D01*
X191788615Y-76916237D02*
X191912888Y-76900377D01*
X191412995Y-78900621D02*
X191412995Y-77400614D01*
X50212283Y-75850514D02*
X50428366Y-75800883D01*
X50428366Y-75800883D02*
X50597705Y-75667783D01*
X50597705Y-75667783D02*
X50696660Y-75474898D01*
X50696660Y-75474898D02*
X50712521Y-75350626D01*
X44212254Y-75850514D02*
X50212283Y-75850514D01*
X290717925Y-56800561D02*
X290934012Y-56750930D01*
X290934012Y-56750930D02*
X291103355Y-56617830D01*
X291103355Y-56617830D02*
X291202312Y-56424946D01*
X291202312Y-56424946D02*
X291218174Y-56300674D01*
X309824679Y-73850619D02*
X322824865Y-73850619D01*
X261699916Y-41302719D02*
X261699916Y-41523953D01*
X261699916Y-41523953D02*
X261699916Y-41780491D01*
X261699916Y-41780491D02*
X261699916Y-42069989D01*
X261699916Y-42069989D02*
X261699916Y-42390106D01*
X261699916Y-42390106D02*
X261699916Y-42738498D01*
X261699916Y-42738498D02*
X261699916Y-43112823D01*
X261699916Y-43112823D02*
X261699916Y-43510739D01*
X261699916Y-43510739D02*
X261699916Y-43929904D01*
X261699916Y-43929904D02*
X261699916Y-44367975D01*
X261699916Y-44367975D02*
X261699916Y-44822610D01*
X261699916Y-44822610D02*
X261699916Y-45291467D01*
X261699916Y-45291467D02*
X261699916Y-45772203D01*
X261699916Y-45772203D02*
X261699916Y-46262475D01*
X261699916Y-46262475D02*
X261699916Y-46759942D01*
X261699916Y-46759942D02*
X261699916Y-47262262D01*
X261699916Y-47262262D02*
X261699916Y-47767091D01*
X261699916Y-47767091D02*
X261699916Y-48272087D01*
X261699916Y-48272087D02*
X261699916Y-48774909D01*
X261699916Y-48774909D02*
X261699916Y-49273213D01*
X261699916Y-49273213D02*
X261699916Y-49764657D01*
X261699916Y-49764657D02*
X261699916Y-50246900D01*
X261699916Y-50246900D02*
X261699916Y-50717598D01*
X261699916Y-50717598D02*
X261699916Y-51174410D01*
X261699916Y-51174410D02*
X261699916Y-51614992D01*
X261699916Y-51614992D02*
X261699916Y-52037003D01*
X261699916Y-52037003D02*
X261699916Y-52438100D01*
X261699916Y-52438100D02*
X261699916Y-52815941D01*
X261699916Y-52815941D02*
X261699916Y-53168184D01*
X261699916Y-53168184D02*
X261699916Y-53492485D01*
X261699916Y-53492485D02*
X261699916Y-53786504D01*
X261699916Y-53786504D02*
X261699916Y-54047897D01*
X261699916Y-54047897D02*
X261699916Y-54274322D01*
X261699916Y-54274322D02*
X261741280Y-54479198D01*
X261741280Y-54479198D02*
X261854083Y-54646503D01*
X261854083Y-54646503D02*
X262021388Y-54759303D01*
X262021388Y-54759303D02*
X262226260Y-54800667D01*
X319786750Y-59845022D02*
X309824679Y-59850669D01*
X319786750Y-54800667D02*
X319786750Y-59845022D01*
X262226260Y-54800667D02*
X284218015Y-54800667D01*
X284218015Y-54800667D02*
X284218015Y-56300674D01*
X284717898Y-56800561D02*
X290717925Y-56800561D01*
X189475198Y-16695472D02*
X189691060Y-16645833D01*
X189691060Y-16645833D02*
X189860296Y-16512677D01*
X189860296Y-16512677D02*
X189959220Y-16319645D01*
X189959220Y-16319645D02*
X189975080Y-16195233D01*
X176475012Y-16695472D02*
X189475198Y-16695472D01*
X175975130Y-16195233D02*
X176024761Y-16411316D01*
X176024761Y-16411316D02*
X176157861Y-16580655D01*
X176157861Y-16580655D02*
X176350743Y-16679611D01*
X176350743Y-16679611D02*
X176475012Y-16695472D01*
X175975130Y-3195405D02*
X175975130Y-16195233D01*
X176475012Y-2695168D02*
X176259154Y-2744806D01*
X176259154Y-2744806D02*
X176089917Y-2877960D01*
X176089917Y-2877960D02*
X175990989Y-3070993D01*
X175990989Y-3070993D02*
X175975130Y-3195405D01*
X314593863Y-56800561D02*
X314809950Y-56750930D01*
X314809950Y-56750930D02*
X314979292Y-56617830D01*
X314979292Y-56617830D02*
X315078249Y-56424946D01*
X315078249Y-56424946D02*
X315094111Y-56300674D01*
X132325341Y-16695472D02*
X132541203Y-16645833D01*
X132541203Y-16645833D02*
X132710439Y-16512677D01*
X132710439Y-16512677D02*
X132809363Y-16319645D01*
X132809363Y-16319645D02*
X132825223Y-16195233D01*
X119325160Y-16695472D02*
X132325341Y-16695472D01*
X118825273Y-16195233D02*
X118874903Y-16411316D01*
X118874903Y-16411316D02*
X119008003Y-16580655D01*
X119008003Y-16580655D02*
X119200887Y-16679611D01*
X119200887Y-16679611D02*
X119325160Y-16695472D01*
X118825273Y-3195405D02*
X118825273Y-16195233D01*
X119325160Y-2695168D02*
X119109296Y-2744806D01*
X119109296Y-2744806D02*
X118940059Y-2877960D01*
X118940059Y-2877960D02*
X118841132Y-3070993D01*
X118841132Y-3070993D02*
X118825273Y-3195405D01*
X132325341Y-2695168D02*
X119325160Y-2695168D01*
X189475198Y-2695168D02*
X176475012Y-2695168D01*
X189975080Y-3195405D02*
X189925450Y-2979321D01*
X189925450Y-2979321D02*
X189792352Y-2809983D01*
X189792352Y-2809983D02*
X189599470Y-2711028D01*
X189599470Y-2711028D02*
X189475198Y-2695168D01*
X189975080Y-16195233D02*
X189975080Y-3195405D01*
X151375293Y-16695472D02*
X151591155Y-16645833D01*
X151591155Y-16645833D02*
X151760391Y-16512677D01*
X151760391Y-16512677D02*
X151859316Y-16319645D01*
X151859316Y-16319645D02*
X151875176Y-16195233D01*
X138375107Y-16695472D02*
X151375293Y-16695472D01*
X137875225Y-16195233D02*
X137924856Y-16411316D01*
X137924856Y-16411316D02*
X138057957Y-16580655D01*
X138057957Y-16580655D02*
X138250838Y-16679611D01*
X138250838Y-16679611D02*
X138375107Y-16695472D01*
X137875225Y-3195405D02*
X137875225Y-16195233D01*
X138375107Y-2695168D02*
X138159249Y-2744806D01*
X138159249Y-2744806D02*
X137990012Y-2877960D01*
X137990012Y-2877960D02*
X137891084Y-3070993D01*
X137891084Y-3070993D02*
X137875225Y-3195405D01*
X151375293Y-2695168D02*
X138375107Y-2695168D01*
X151875176Y-3195405D02*
X151825546Y-2979321D01*
X151825546Y-2979321D02*
X151692448Y-2809983D01*
X151692448Y-2809983D02*
X151499565Y-2711028D01*
X151499565Y-2711028D02*
X151375293Y-2695168D01*
X151875176Y-16195233D02*
X151875176Y-3195405D01*
X208525151Y-16695472D02*
X208741013Y-16645833D01*
X208741013Y-16645833D02*
X208910248Y-16512677D01*
X208910248Y-16512677D02*
X209009173Y-16319645D01*
X209009173Y-16319645D02*
X209025033Y-16195233D01*
X195524964Y-16695472D02*
X208525151Y-16695472D01*
X195025082Y-16195233D02*
X195074713Y-16411316D01*
X195074713Y-16411316D02*
X195207814Y-16580655D01*
X195207814Y-16580655D02*
X195400695Y-16679611D01*
X195400695Y-16679611D02*
X195524964Y-16695472D01*
X195025082Y-3195405D02*
X195025082Y-16195233D01*
X195524964Y-2695168D02*
X195309106Y-2744806D01*
X195309106Y-2744806D02*
X195139869Y-2877960D01*
X195139869Y-2877960D02*
X195040941Y-3070993D01*
X195040941Y-3070993D02*
X195025082Y-3195405D01*
X208525151Y-2695168D02*
X195524964Y-2695168D01*
X209025033Y-3195405D02*
X208975403Y-2979321D01*
X208975403Y-2979321D02*
X208842305Y-2809983D01*
X208842305Y-2809983D02*
X208649422Y-2711028D01*
X208649422Y-2711028D02*
X208525151Y-2695168D01*
X209025033Y-16195233D02*
X209025033Y-3195405D01*
X170425246Y-16695472D02*
X170641108Y-16645833D01*
X170641108Y-16645833D02*
X170810343Y-16512677D01*
X170810343Y-16512677D02*
X170909268Y-16319645D01*
X170909268Y-16319645D02*
X170925128Y-16195233D01*
X157425060Y-16695472D02*
X170425246Y-16695472D01*
X156925178Y-16195233D02*
X156974809Y-16411316D01*
X156974809Y-16411316D02*
X157107909Y-16580655D01*
X157107909Y-16580655D02*
X157300791Y-16679611D01*
X157300791Y-16679611D02*
X157425060Y-16695472D01*
X156925178Y-3195405D02*
X156925178Y-16195233D01*
X157425060Y-2695168D02*
X157209202Y-2744806D01*
X157209202Y-2744806D02*
X157039965Y-2877960D01*
X157039965Y-2877960D02*
X156941037Y-3070993D01*
X156941037Y-3070993D02*
X156925178Y-3195405D01*
X170425246Y-2695168D02*
X157425060Y-2695168D01*
X170925128Y-3195405D02*
X170875498Y-2979321D01*
X170875498Y-2979321D02*
X170742400Y-2809983D01*
X170742400Y-2809983D02*
X170549517Y-2711028D01*
X170549517Y-2711028D02*
X170425246Y-2695168D01*
X170925128Y-16195233D02*
X170925128Y-3195405D01*
X45800455Y-55530562D02*
X45247302Y-54977410D01*
X46155349Y-56227649D02*
X45800455Y-55530562D01*
X46278468Y-57000586D02*
X46155349Y-56227649D01*
X46262594Y-59845733D02*
X46278468Y-57000586D01*
X75175481Y-59850669D02*
X46262594Y-59845733D01*
X75675366Y-60350556D02*
X75625735Y-60134540D01*
X75625735Y-60134540D02*
X75492635Y-59965342D01*
X75492635Y-59965342D02*
X75299752Y-59866506D01*
X75299752Y-59866506D02*
X75175481Y-59850669D01*
X75675366Y-73350382D02*
X75675366Y-60350556D01*
X75175481Y-73850619D02*
X75391342Y-73800980D01*
X75391342Y-73800980D02*
X75560579Y-73667826D01*
X75560579Y-73667826D02*
X75659506Y-73474793D01*
X75659506Y-73474793D02*
X75675366Y-73350382D01*
X74588463Y-73850619D02*
X75175481Y-73850619D01*
X74588463Y-75350626D02*
X74588463Y-73850619D01*
X74088223Y-75850514D02*
X74304306Y-75800883D01*
X74304306Y-75800883D02*
X74473646Y-75667783D01*
X74473646Y-75667783D02*
X74572601Y-75474898D01*
X74572601Y-75474898D02*
X74588463Y-75350626D01*
X68088195Y-75850514D02*
X74088223Y-75850514D01*
X67588310Y-75350626D02*
X67637940Y-75566489D01*
X67637940Y-75566489D02*
X67771040Y-75735727D01*
X67771040Y-75735727D02*
X67963923Y-75834654D01*
X67963923Y-75834654D02*
X68088195Y-75850514D01*
X67588310Y-73850619D02*
X67588310Y-75350626D01*
X50712521Y-73850619D02*
X67588310Y-73850619D01*
X50712521Y-75350626D02*
X50712521Y-73850619D01*
X43712369Y-75350626D02*
X43761999Y-75566489D01*
X43761999Y-75566489D02*
X43895099Y-75735727D01*
X43895099Y-75735727D02*
X44087982Y-75834654D01*
X44087982Y-75834654D02*
X44212254Y-75850514D01*
X43712369Y-73850619D02*
X43712369Y-75350626D01*
X43125348Y-73850619D02*
X43712369Y-73850619D01*
X42625463Y-73350382D02*
X42675093Y-73566465D01*
X42675093Y-73566465D02*
X42808193Y-73735803D01*
X42808193Y-73735803D02*
X43001076Y-73834758D01*
X43001076Y-73834758D02*
X43125348Y-73850619D01*
X42625463Y-59847143D02*
X42625463Y-73350382D01*
X40777265Y-59845022D02*
X42625463Y-59847143D01*
X40277381Y-60345259D02*
X40326710Y-60128408D01*
X40326710Y-60128408D02*
X40459378Y-59959269D01*
X40459378Y-59959269D02*
X40652405Y-59860774D01*
X40652405Y-59860774D02*
X40777265Y-59845022D01*
X40277381Y-93264281D02*
X40277381Y-60345259D01*
X40284436Y-93419504D02*
X40277381Y-93264281D01*
X40302428Y-93575437D02*
X40284436Y-93419504D01*
X40333472Y-93729594D02*
X40302428Y-93575437D01*
X40375453Y-93881296D02*
X40333472Y-93729594D01*
X40430486Y-94029456D02*
X40375453Y-93881296D01*
X40495397Y-94170565D02*
X40430486Y-94029456D01*
X40572302Y-94307443D02*
X40495397Y-94170565D01*
X40659438Y-94438324D02*
X40572302Y-94307443D01*
X40757510Y-94562508D02*
X40659438Y-94438324D01*
X40863343Y-94678565D02*
X40757510Y-94562508D01*
X40979406Y-94783338D02*
X40863343Y-94678565D01*
X41102526Y-94881416D02*
X40979406Y-94783338D01*
X41233406Y-94968555D02*
X41102526Y-94881416D01*
X41370284Y-95045456D02*
X41233406Y-94968555D01*
X41512453Y-95110363D02*
X41370284Y-95045456D01*
X41659561Y-95166453D02*
X41512453Y-95110363D01*
X41811255Y-95208440D02*
X41659561Y-95166453D01*
X41965418Y-95238424D02*
X41811255Y-95208440D01*
X42121346Y-95256413D02*
X41965418Y-95238424D01*
X42278331Y-95264531D02*
X42121346Y-95256413D01*
X323652827Y-95262410D02*
X42278331Y-95264531D01*
X323808760Y-95256413D02*
X323652827Y-95262410D01*
X323964693Y-95238424D02*
X323808760Y-95256413D01*
X324118839Y-95208440D02*
X323964693Y-95238424D01*
X324271607Y-95166453D02*
X324118839Y-95208440D01*
X324417658Y-95110363D02*
X324271607Y-95166453D01*
X324559811Y-95045456D02*
X324417658Y-95110363D01*
X324696688Y-94968555D02*
X324559811Y-95045456D01*
X324827580Y-94881416D02*
X324696688Y-94968555D01*
X319221239Y-39073522D02*
X319221239Y-40801072D01*
X319748639Y-38546120D02*
X319543302Y-38587549D01*
X319543302Y-38587549D02*
X319375667Y-38700547D01*
X319375667Y-38700547D02*
X319262668Y-38868183D01*
X319262668Y-38868183D02*
X319221239Y-39073522D01*
X322797347Y-38523893D02*
X322543203Y-38524442D01*
X322543203Y-38524442D02*
X322269383Y-38525944D01*
X322269383Y-38525944D02*
X321980428Y-38528178D01*
X321980428Y-38528178D02*
X321680882Y-38530925D01*
X321680882Y-38530925D02*
X321477543Y-38532933D01*
X321477543Y-38532933D02*
X321272863Y-38535006D01*
X321272863Y-38535006D02*
X321068187Y-38537079D01*
X321068187Y-38537079D02*
X320864861Y-38539087D01*
X320864861Y-38539087D02*
X320664231Y-38540964D01*
X320664231Y-38540964D02*
X320371286Y-38543394D01*
X320371286Y-38543394D02*
X320091980Y-38545164D01*
X320091980Y-38545164D02*
X319830855Y-38546056D01*
X319830855Y-38546056D02*
X319748639Y-38546120D01*
X323324747Y-39051649D02*
X323283317Y-38846255D01*
X323283317Y-38846255D02*
X323170318Y-38678498D01*
X323170318Y-38678498D02*
X323002683Y-38565377D01*
X323002683Y-38565377D02*
X322797347Y-38523893D01*
X323324747Y-54795375D02*
X323324747Y-39051649D01*
X325652721Y-54267975D02*
X325611296Y-54473313D01*
X325611296Y-54473313D02*
X325498335Y-54640948D01*
X325498335Y-54640948D02*
X325330802Y-54753946D01*
X325330802Y-54753946D02*
X325125666Y-54795375D01*
X325646735Y-2180819D02*
X325652721Y-2337804D01*
X325627680Y-2024538D02*
X325646735Y-2180819D01*
X325596631Y-1870728D02*
X325627680Y-2024538D01*
X325554644Y-1718681D02*
X325596631Y-1870728D01*
X325499609Y-1571573D02*
X325554644Y-1718681D01*
X325434712Y-1429757D02*
X325499609Y-1571573D01*
X325357800Y-1292526D02*
X325434712Y-1429757D01*
X325271716Y-1161646D02*
X325357800Y-1292526D01*
X325172584Y-1038527D02*
X325271716Y-1161646D01*
X325066755Y-922816D02*
X325172584Y-1038527D01*
X324950699Y-816630D02*
X325066755Y-922816D01*
X324827580Y-718558D02*
X324950699Y-816630D01*
X324696688Y-631775D02*
X324827580Y-718558D01*
X324559811Y-554517D02*
X324696688Y-631775D01*
X324417658Y-489606D02*
X324559811Y-554517D01*
X324271607Y-434573D02*
X324417658Y-489606D01*
X324118839Y-392593D02*
X324271607Y-434573D01*
X323964693Y-361548D02*
X324118839Y-392593D01*
X323808760Y-343557D02*
X323964693Y-361548D01*
X323652827Y-337559D02*
X323808760Y-343557D01*
X42278331Y-336501D02*
X323652827Y-337559D01*
X42121346Y-343557D02*
X42278331Y-336501D01*
X41965418Y-361548D02*
X42121346Y-343557D01*
X41811255Y-392593D02*
X41965418Y-361548D01*
X41659561Y-434573D02*
X41811255Y-392593D01*
X41512453Y-489606D02*
X41659561Y-434573D01*
X41370284Y-554517D02*
X41512453Y-489606D01*
X41233406Y-631775D02*
X41370284Y-554517D01*
X41102526Y-718558D02*
X41233406Y-631775D01*
X40979406Y-816630D02*
X41102526Y-718558D01*
X40863343Y-922816D02*
X40979406Y-816630D01*
X40757510Y-1038527D02*
X40863343Y-922816D01*
X40659438Y-1161646D02*
X40757510Y-1038527D01*
X40572302Y-1292526D02*
X40659438Y-1161646D01*
X40495397Y-1429757D02*
X40572302Y-1292526D01*
X40430486Y-1571573D02*
X40495397Y-1429757D01*
X40375453Y-1718681D02*
X40430486Y-1571573D01*
X40333472Y-1870728D02*
X40375453Y-1718681D01*
X40302428Y-2024538D02*
X40333472Y-1870728D01*
X40284436Y-2180819D02*
X40302428Y-2024538D01*
X40278439Y-2337804D02*
X40284436Y-2180819D01*
X40277381Y-54000572D02*
X40278439Y-2337804D01*
X40423783Y-54354054D02*
X40277381Y-54000572D01*
X40777265Y-54500454D02*
X40423783Y-54354054D01*
X43779397Y-54500454D02*
X40777265Y-54500454D01*
X44551272Y-54622518D02*
X43779397Y-54500454D01*
X45247302Y-54977410D02*
X44551272Y-54622518D01*
X132825223Y-3195405D02*
X132775593Y-2979321D01*
X132775593Y-2979321D02*
X132642495Y-2809983D01*
X132642495Y-2809983D02*
X132449613Y-2711028D01*
X132449613Y-2711028D02*
X132325341Y-2695168D01*
X132825223Y-16195233D02*
X132825223Y-3195405D01*
X113275389Y-2695168D02*
X100275208Y-2695168D01*
X113775271Y-3195405D02*
X113725640Y-2979321D01*
X113725640Y-2979321D02*
X113592541Y-2809983D01*
X113592541Y-2809983D02*
X113399659Y-2711028D01*
X113399659Y-2711028D02*
X113275389Y-2695168D01*
X271224892Y-3195405D02*
X271224892Y-16195233D01*
X271724774Y-2695168D02*
X271508916Y-2744806D01*
X271508916Y-2744806D02*
X271339679Y-2877960D01*
X271339679Y-2877960D02*
X271240751Y-3070993D01*
X271240751Y-3070993D02*
X271224892Y-3195405D01*
X284724960Y-2695168D02*
X271724774Y-2695168D01*
X285224842Y-3195405D02*
X285175210Y-2979321D01*
X285175210Y-2979321D02*
X285042110Y-2809983D01*
X285042110Y-2809983D02*
X284849228Y-2711028D01*
X284849228Y-2711028D02*
X284724960Y-2695168D01*
X285224842Y-16195233D02*
X285224842Y-3195405D01*
X265675008Y-16695472D02*
X265890865Y-16645833D01*
X265890865Y-16645833D02*
X266060102Y-16512677D01*
X266060102Y-16512677D02*
X266159030Y-16319645D01*
X266159030Y-16319645D02*
X266174890Y-16195233D01*
X214574917Y-16695472D02*
X227575103Y-16695472D01*
X214075035Y-16195233D02*
X214124666Y-16411316D01*
X214124666Y-16411316D02*
X214257766Y-16580655D01*
X214257766Y-16580655D02*
X214450648Y-16679611D01*
X214450648Y-16679611D02*
X214574917Y-16695472D01*
X214075035Y-3195405D02*
X214075035Y-16195233D01*
X214574917Y-2695168D02*
X214359059Y-2744806D01*
X214359059Y-2744806D02*
X214189822Y-2877960D01*
X214189822Y-2877960D02*
X214090894Y-3070993D01*
X214090894Y-3070993D02*
X214075035Y-3195405D01*
X227575103Y-2695168D02*
X214574917Y-2695168D01*
X228074985Y-3195405D02*
X228025353Y-2979321D01*
X228025353Y-2979321D02*
X227892253Y-2809983D01*
X227892253Y-2809983D02*
X227699371Y-2711028D01*
X227699371Y-2711028D02*
X227575103Y-2695168D01*
X228074985Y-16195233D02*
X228074985Y-3195405D01*
X113275389Y-16695472D02*
X113491248Y-16645833D01*
X113491248Y-16645833D02*
X113660485Y-16512677D01*
X113660485Y-16512677D02*
X113759411Y-16319645D01*
X113759411Y-16319645D02*
X113775271Y-16195233D01*
X100275208Y-16695472D02*
X113275389Y-16695472D01*
X99775321Y-16195233D02*
X99824951Y-16411316D01*
X99824951Y-16411316D02*
X99958051Y-16580655D01*
X99958051Y-16580655D02*
X100150935Y-16679611D01*
X100150935Y-16679611D02*
X100275208Y-16695472D01*
X99775321Y-3195405D02*
X99775321Y-16195233D01*
X100275208Y-2695168D02*
X100059344Y-2744806D01*
X100059344Y-2744806D02*
X99890106Y-2877960D01*
X99890106Y-2877960D02*
X99791180Y-3070993D01*
X99791180Y-3070993D02*
X99775321Y-3195405D01*
X284724960Y-16695472D02*
X284940817Y-16645833D01*
X284940817Y-16645833D02*
X285110054Y-16512677D01*
X285110054Y-16512677D02*
X285208982Y-16319645D01*
X285208982Y-16319645D02*
X285224842Y-16195233D01*
X271724774Y-16695472D02*
X284724960Y-16695472D01*
X271224892Y-16195233D02*
X271274523Y-16411316D01*
X271274523Y-16411316D02*
X271407623Y-16580655D01*
X271407623Y-16580655D02*
X271600505Y-16679611D01*
X271600505Y-16679611D02*
X271724774Y-16695472D01*
X252674822Y-16695472D02*
X265675008Y-16695472D01*
X252174940Y-16195233D02*
X252224571Y-16411316D01*
X252224571Y-16411316D02*
X252357671Y-16580655D01*
X252357671Y-16580655D02*
X252550553Y-16679611D01*
X252550553Y-16679611D02*
X252674822Y-16695472D01*
X252174940Y-3195405D02*
X252174940Y-16195233D01*
X252674822Y-2695168D02*
X252458964Y-2744806D01*
X252458964Y-2744806D02*
X252289727Y-2877960D01*
X252289727Y-2877960D02*
X252190799Y-3070993D01*
X252190799Y-3070993D02*
X252174940Y-3195405D01*
X265675008Y-2695168D02*
X252674822Y-2695168D01*
X262196633Y-40805658D02*
X261981226Y-40854836D01*
X261981226Y-40854836D02*
X261813297Y-40986679D01*
X261813297Y-40986679D02*
X261715545Y-41178537D01*
X261715545Y-41178537D02*
X261699916Y-41302719D01*
X309324797Y-73350382D02*
X309374428Y-73566465D01*
X309374428Y-73566465D02*
X309507528Y-73735803D01*
X309507528Y-73735803D02*
X309700410Y-73834758D01*
X309700410Y-73834758D02*
X309824679Y-73850619D01*
X309324797Y-60350556D02*
X309324797Y-73350382D01*
X309824679Y-59850669D02*
X309608821Y-59900239D01*
X309608821Y-59900239D02*
X309439584Y-60033254D01*
X309439584Y-60033254D02*
X309340656Y-60226167D01*
X309340656Y-60226167D02*
X309324797Y-60350556D01*
X325652721Y-93264281D02*
X325646735Y-93419504D01*
X325114039Y-59850669D02*
X325323663Y-59892969D01*
X325323663Y-59892969D02*
X325494895Y-60008359D01*
X325494895Y-60008359D02*
X325610370Y-60179577D01*
X325610370Y-60179577D02*
X325652721Y-60389357D01*
X323324747Y-73350382D02*
X323324747Y-59850669D01*
X325596631Y-93729594D02*
X325554644Y-93881296D01*
X325627680Y-93575437D02*
X325596631Y-93729594D01*
X325646735Y-93419504D02*
X325627680Y-93575437D01*
X308093953Y-54800667D02*
X308093953Y-56300674D01*
X284218015Y-56300674D02*
X284267646Y-56516537D01*
X284267646Y-56516537D02*
X284400747Y-56685774D01*
X284400747Y-56685774D02*
X284593629Y-56784701D01*
X284593629Y-56784701D02*
X284717898Y-56800561D01*
X308093953Y-56300674D02*
X308143584Y-56516537D01*
X308143584Y-56516537D02*
X308276685Y-56685774D01*
X308276685Y-56685774D02*
X308469566Y-56784701D01*
X308469566Y-56784701D02*
X308593835Y-56800561D01*
X322824865Y-73850619D02*
X323040722Y-73800980D01*
X323040722Y-73800980D02*
X323209959Y-73667826D01*
X323209959Y-73667826D02*
X323308887Y-73474793D01*
X323308887Y-73474793D02*
X323324747Y-73350382D01*
X291218174Y-56300674D02*
X291218174Y-54800667D01*
X291218174Y-54800667D02*
X308093953Y-54800667D01*
X174537215Y-77400614D02*
X174537215Y-78900621D01*
X174036978Y-76900377D02*
X174253058Y-76950015D01*
X174253058Y-76950015D02*
X174422397Y-77083169D01*
X174422397Y-77083169D02*
X174521353Y-77276202D01*
X174521353Y-77276202D02*
X174537215Y-77400614D01*
X168036939Y-76900377D02*
X174036978Y-76900377D01*
X167537057Y-77400614D02*
X167586688Y-77184530D01*
X167586688Y-77184530D02*
X167719789Y-77015192D01*
X167719789Y-77015192D02*
X167912670Y-76916237D01*
X167912670Y-76916237D02*
X168036939Y-76900377D01*
X167537057Y-78900621D02*
X167537057Y-77400614D01*
X160313248Y-78900621D02*
X167537057Y-78900621D01*
X160313248Y-77400614D02*
X160313248Y-78900621D01*
X159813011Y-76900377D02*
X160029091Y-76950015D01*
X160029091Y-76950015D02*
X160198430Y-77083169D01*
X160198430Y-77083169D02*
X160297386Y-77276202D01*
X160297386Y-77276202D02*
X160313248Y-77400614D01*
X151431739Y-76900377D02*
X159813011Y-76900377D01*
X150931846Y-77400614D02*
X150981477Y-77184530D01*
X150981477Y-77184530D02*
X151114580Y-77015192D01*
X151114580Y-77015192D02*
X151307466Y-76916237D01*
X151307466Y-76916237D02*
X151431739Y-76900377D01*
X150931846Y-78900621D02*
X150931846Y-77400614D01*
X266174890Y-3195405D02*
X266125258Y-2979321D01*
X266125258Y-2979321D02*
X265992157Y-2809983D01*
X265992157Y-2809983D02*
X265799276Y-2711028D01*
X265799276Y-2711028D02*
X265675008Y-2695168D01*
X266174890Y-16195233D02*
X266174890Y-3195405D01*
X227575103Y-16695472D02*
X227790960Y-16645833D01*
X227790960Y-16645833D02*
X227960197Y-16512677D01*
X227960197Y-16512677D02*
X228059125Y-16319645D01*
X228059125Y-16319645D02*
X228074985Y-16195233D01*
X324950699Y-94783338D02*
X324827580Y-94881416D01*
X325066755Y-94678565D02*
X324950699Y-94783338D01*
X325172584Y-94562508D02*
X325066755Y-94678565D01*
X325271716Y-94438324D02*
X325172584Y-94562508D01*
X325357800Y-94307443D02*
X325271716Y-94438324D01*
X325434712Y-94170565D02*
X325357800Y-94307443D01*
X325499609Y-94029456D02*
X325434712Y-94170565D01*
X325554644Y-93881296D02*
X325499609Y-94029456D01*
X308593835Y-56800561D02*
X314593863Y-56800561D01*
X174537215Y-78900621D02*
X191412995Y-78900621D01*
X319221239Y-40801072D02*
X262196633Y-40805658D01*
X113775271Y-16195233D02*
X113775271Y-3195405D01*
X246625055Y-16695472D02*
X246840912Y-16645833D01*
X246840912Y-16645833D02*
X247010149Y-16512677D01*
X247010149Y-16512677D02*
X247109077Y-16319645D01*
X247109077Y-16319645D02*
X247124937Y-16195233D01*
X233624869Y-16695472D02*
X246625055Y-16695472D01*
X233124987Y-16195233D02*
X233174618Y-16411316D01*
X233174618Y-16411316D02*
X233307719Y-16580655D01*
X233307719Y-16580655D02*
X233500600Y-16679611D01*
X233500600Y-16679611D02*
X233624869Y-16695472D01*
X233124987Y-3195405D02*
X233124987Y-16195233D01*
M02*
