M48
; DRILL file {KiCad (5.1.10-1-10_14)} date Thursday, May 27, 2021 at 03:54:31 PM
; FORMAT={-:-/ absolute / inch / decimal}
; #@! TF.CreationDate,2021-05-27T15:54:31+09:00
; #@! TF.GenerationSoftware,Kicad,Pcbnew,(5.1.10-1-10_14)
FMAT,2
INCH
T1C0.0310
T2C0.0866
T3C0.1260
T4C0.2087
%
G90
G05
T1
X9.3557Y-3.1171
X9.4057Y-3.1171
X9.4557Y-3.1171
X9.5057Y-3.1171
X9.5557Y-3.1171
X9.6049Y-3.1171
T2
X1.7079Y-1.1398
X1.7079Y-2.0047
X2.1378Y-0.7646
X2.1378Y-1.515
X2.1378Y-2.2642
X2.3256Y-3.0142
X3.2634Y-3.0142
X3.9776Y-3.389
X4.8909Y-3.389
X5.326Y-1.5146
X5.7945Y-3.0146
X7.2008Y-3.0146
X8.7012Y-3.0146
X9.0756Y-1.5146
X10.3882Y-3.0142
X10.7634Y-2.2634
X10.7638Y-0.7648
X10.7638Y-1.5148
X12.4518Y-0.7648
T3
X4.8917Y-3.6398
X5.3287Y-0.1496
X9.0807Y-0.1496
T4
X2.5856Y-1.1181
T0
M30
