<?xml version="1.0"?>
<!-- Generated by SVGo -->
<svg width="295.752mm" height="105.252mm"
     viewBox="0.000 0.000 295.752 105.252"
     xmlns="http://www.w3.org/2000/svg" 
     xmlns:xlink="http://www.w3.org/1999/xlink">
<polygon points="288.564,5.163 288.720,5.169 288.876,5.187 289.030,5.218 289.183,5.260 289.329,5.315 289.471,5.380 289.608,5.457 289.739,5.544 289.862,5.642 289.978,5.748 290.084,5.864 290.183,5.987 290.269,6.118 290.346,6.255 290.411,6.397 290.466,6.544 290.508,6.696 290.539,6.850 290.558,7.006 290.564,7.163 290.564,59.326 287.063,59.326 286.290,59.448 285.594,59.803 285.041,60.356 284.686,61.053 284.564,61.825 284.686,62.599 285.041,63.295 285.594,63.849 286.290,64.204 287.063,64.326 290.564,64.326 290.564,98.090 290.558,98.245 290.539,98.401 290.508,98.555 290.466,98.707 290.411,98.855 290.346,98.996 290.269,99.133 290.183,99.264 290.084,99.388 289.978,99.504 289.862,99.609 289.739,99.707 289.608,99.794 289.471,99.871 289.329,99.936 289.183,99.992 289.030,100.034 288.876,100.064 288.720,100.082 288.564,100.088 7.189,100.090 7.032,100.082 6.876,100.064 6.722,100.034 6.570,99.992 6.423,99.936 6.281,99.871 6.144,99.794 6.013,99.707 5.890,99.609 5.774,99.504 5.668,99.388 5.570,99.264 5.483,99.133 5.406,98.996 5.341,98.855 5.286,98.707 5.244,98.555 5.213,98.401 5.195,98.245 5.188,98.090 5.188,64.326 8.689,64.326 9.462,64.204 10.158,63.849 10.711,63.295 11.066,62.599 11.189,61.826 11.066,61.053 10.711,60.356 10.158,59.803 9.462,59.448 8.690,59.326 5.188,59.326 5.189,7.163 5.195,7.006 5.213,6.850 5.244,6.696 5.286,6.544 5.341,6.397 5.406,6.255 5.483,6.118 5.570,5.987 5.668,5.864 5.774,5.748 5.890,5.642 6.013,5.544 6.144,5.457 6.281,5.380 6.423,5.315 6.570,5.260 6.722,5.218 6.876,5.187 7.032,5.169 7.189,5.162" style="fill:none;stroke-width:0.050000mm;stroke:black"/>
<polygon points="128.970,83.725 128.970,88.425 89.345,88.425 89.345,85.195 82.595,85.195 82.595,88.425 81.770,88.425 81.770,91.225 82.595,91.225 82.595,97.495 84.320,97.495 84.320,98.695 87.620,98.695 87.620,97.495 89.345,97.495 89.345,93.025 128.970,93.025 128.970,97.725 142.970,97.725 142.970,93.025 182.595,93.025 182.595,97.495 184.320,97.495 184.320,98.695 187.620,98.695 187.620,97.495 189.345,97.495 189.345,91.225 190.169,91.225 190.169,88.425 189.345,88.425 189.345,85.195 182.595,85.195 182.595,88.425 142.970,88.425 142.970,83.725" style="fill:none;stroke-width:0.050000mm;stroke:black"/>
<polygon points="221.839,83.725 221.839,97.725 235.839,97.725 235.839,83.725" style="fill:none;stroke-width:0.050000mm;stroke:black"/>
<polygon points="200.406,83.725 200.406,97.725 214.406,97.725 214.406,83.725" style="fill:none;stroke-width:0.050000mm;stroke:black"/>
<polygon points="57.532,83.725 57.532,97.725 71.532,97.725 71.532,83.725" style="fill:none;stroke-width:0.050000mm;stroke:black"/>
<polygon points="36.100,83.725 36.100,97.725 50.100,97.725 50.100,83.725" style="fill:none;stroke-width:0.050000mm;stroke:black"/>
<polygon points="195.103,88.148 194.406,88.504 193.853,89.056 193.499,89.754 193.376,90.526 193.499,91.299 193.853,91.995 194.406,92.549 195.103,92.903 195.876,93.026 196.649,92.903 197.346,92.549 197.899,91.995 198.254,91.299 198.376,90.526 198.254,89.754 197.899,89.056 197.346,88.504 196.649,88.148 195.876,88.026" style="fill:none;stroke-width:0.050000mm;stroke:black"/>
<polygon points="17.050,64.675 17.050,69.376 15.526,69.376 15.526,66.145 8.776,66.145 8.776,69.376 7.951,69.376 7.951,72.175 8.776,72.175 8.776,78.445 10.501,78.445 10.501,79.645 13.801,79.645 13.801,78.445 15.526,78.445 15.526,73.975 17.050,73.975 17.050,78.675 31.050,78.675 31.050,73.975 32.576,73.975 32.576,78.445 34.300,78.445 34.300,79.645 37.600,79.645 37.600,78.445 39.326,78.445 39.326,72.175 40.151,72.175 40.151,69.376 39.326,69.376 39.326,66.145 32.576,66.145 32.576,69.376 31.050,69.376 31.050,64.675" style="fill:none;stroke-width:0.050000mm;stroke:black"/>
<polygon points="271.844,64.675 271.844,78.675 285.844,78.675 285.844,64.675" style="fill:none;stroke-width:0.050000mm;stroke:black"/>
<polygon points="243.269,64.675 243.269,78.675 257.269,78.675 257.269,64.675" style="fill:none;stroke-width:0.050000mm;stroke:black"/>
<polygon points="217.076,64.675 217.076,78.675 231.076,78.675 231.076,64.675" style="fill:none;stroke-width:0.050000mm;stroke:black"/>
<polygon points="198.025,64.675 198.025,78.675 212.025,78.675 212.025,64.675" style="fill:none;stroke-width:0.050000mm;stroke:black"/>
<polygon points="178.976,64.675 178.976,78.675 192.976,78.675 192.976,64.675" style="fill:none;stroke-width:0.050000mm;stroke:black"/>
<polygon points="159.925,64.675 159.925,78.675 173.925,78.675 173.925,64.675" style="fill:none;stroke-width:0.050000mm;stroke:black"/>
<polygon points="140.876,64.675 140.876,78.675 154.876,78.675 154.876,64.675" style="fill:none;stroke-width:0.050000mm;stroke:black"/>
<polygon points="121.826,64.675 121.826,78.675 135.826,78.675 135.826,64.675" style="fill:none;stroke-width:0.050000mm;stroke:black"/>
<polygon points="102.776,64.675 102.776,78.675 116.776,78.675 116.776,64.675" style="fill:none;stroke-width:0.050000mm;stroke:black"/>
<polygon points="83.726,64.675 83.726,78.675 97.726,78.675 97.726,64.675" style="fill:none;stroke-width:0.050000mm;stroke:black"/>
<polygon points="64.675,64.675 64.675,78.675 78.675,78.675 78.675,64.675" style="fill:none;stroke-width:0.050000mm;stroke:black"/>
<polygon points="45.626,64.675 45.626,78.675 59.626,78.675 59.626,64.675" style="fill:none;stroke-width:0.050000mm;stroke:black"/>
<polygon points="238.507,45.626 238.507,50.325 236.982,50.325 236.982,47.096 230.232,47.096 230.232,50.325 229.406,50.325 229.406,53.126 230.232,53.126 230.232,59.395 231.957,59.395 231.957,60.596 235.257,60.596 235.257,59.395 236.982,59.395 236.982,54.925 238.507,54.925 238.507,59.626 252.507,59.626 252.507,54.925 254.031,54.925 254.031,59.395 255.757,59.395 255.757,60.596 259.056,60.596 259.056,59.395 260.781,59.395 260.781,53.126 261.606,53.126 261.606,50.325 260.781,50.325 260.781,47.096 254.031,47.096 254.031,50.325 252.507,50.325 252.507,45.626" style="fill:none;stroke-width:0.050000mm;stroke:black"/>
<polygon points="269.463,45.626 269.463,59.626 283.463,59.626 283.463,45.626" style="fill:none;stroke-width:0.050000mm;stroke:black"/>
<polygon points="207.550,45.626 207.550,59.626 221.550,59.626 221.550,45.626" style="fill:none;stroke-width:0.050000mm;stroke:black"/>
<polygon points="188.501,45.626 188.501,59.626 202.501,59.626 202.501,45.626" style="fill:none;stroke-width:0.050000mm;stroke:black"/>
<polygon points="169.451,45.626 169.451,59.626 183.451,59.626 183.451,45.626" style="fill:none;stroke-width:0.050000mm;stroke:black"/>
<polygon points="150.400,45.626 150.400,59.626 164.400,59.626 164.400,45.626" style="fill:none;stroke-width:0.050000mm;stroke:black"/>
<polygon points="131.351,45.626 131.351,51.556 131.197,51.853 131.077,52.627 131.197,53.398 131.351,53.697 131.351,59.626 145.351,59.626 145.351,45.626" style="fill:none;stroke-width:0.050000mm;stroke:black"/>
<polygon points="112.300,45.626 112.300,59.626 126.300,59.626 126.300,45.626" style="fill:none;stroke-width:0.050000mm;stroke:black"/>
<polygon points="93.251,45.626 93.251,59.626 107.251,59.626 107.251,45.626" style="fill:none;stroke-width:0.050000mm;stroke:black"/>
<polygon points="74.201,45.626 74.201,59.626 88.201,59.626 88.201,45.626" style="fill:none;stroke-width:0.050000mm;stroke:black"/>
<polygon points="55.151,45.626 55.151,59.626 69.151,59.626 69.151,45.626" style="fill:none;stroke-width:0.050000mm;stroke:black"/>
<polygon points="36.100,45.626 36.100,59.626 50.100,59.626 50.100,45.626" style="fill:none;stroke-width:0.050000mm;stroke:black"/>
<polygon points="12.289,45.626 12.289,59.626 26.289,59.626 26.289,45.626" style="fill:none;stroke-width:0.050000mm;stroke:black"/>
<polygon points="274.225,26.575 274.225,40.575 288.225,40.575 288.225,26.575" style="fill:none;stroke-width:0.050000mm;stroke:black"/>
<polygon points="255.175,26.575 255.175,40.575 269.175,40.575 269.175,26.575" style="fill:none;stroke-width:0.050000mm;stroke:black"/>
<polygon points="231.364,26.575 231.364,40.575 245.364,40.575 245.364,26.575" style="fill:none;stroke-width:0.050000mm;stroke:black"/>
<polygon points="207.550,26.575 207.550,40.575 221.550,40.575 221.550,26.575" style="fill:none;stroke-width:0.050000mm;stroke:black"/>
<polygon points="188.501,26.575 188.501,40.575 202.501,40.575 202.501,26.575" style="fill:none;stroke-width:0.050000mm;stroke:black"/>
<polygon points="169.451,26.575 169.451,40.575 183.451,40.575 183.451,26.575" style="fill:none;stroke-width:0.050000mm;stroke:black"/>
<polygon points="150.400,26.575 150.400,40.575 164.400,40.575 164.400,26.575" style="fill:none;stroke-width:0.050000mm;stroke:black"/>
<polygon points="131.351,26.575 131.351,40.575 145.351,40.575 145.351,26.575" style="fill:none;stroke-width:0.050000mm;stroke:black"/>
<polygon points="112.300,26.575 112.300,40.575 126.300,40.575 126.300,26.575" style="fill:none;stroke-width:0.050000mm;stroke:black"/>
<polygon points="93.251,26.575 93.251,40.575 107.251,40.575 107.251,26.575" style="fill:none;stroke-width:0.050000mm;stroke:black"/>
<polygon points="74.201,26.575 74.201,40.575 88.201,40.575 88.201,26.575" style="fill:none;stroke-width:0.050000mm;stroke:black"/>
<polygon points="55.151,26.575 55.151,40.575 69.151,40.575 69.151,26.575" style="fill:none;stroke-width:0.050000mm;stroke:black"/>
<polygon points="36.100,26.575 36.100,40.575 50.100,40.575 50.100,26.575" style="fill:none;stroke-width:0.050000mm;stroke:black"/>
<polygon points="12.289,26.575 12.289,40.575 26.289,40.575 26.289,26.575" style="fill:none;stroke-width:0.050000mm;stroke:black"/>
<polygon points="29.803,30.848 29.107,31.203 28.553,31.756 28.199,32.453 28.077,33.227 28.199,33.998 28.553,34.695 29.107,35.248 29.803,35.603 30.577,35.727 31.349,35.603 32.046,35.248 32.597,34.695 32.954,33.998 33.076,33.227 32.954,32.453 32.597,31.756 32.046,31.203 31.349,30.848 30.577,30.726" style="fill:none;stroke-width:0.050000mm;stroke:black"/>
<polygon points="274.225,7.525 274.225,21.525 288.225,21.525 288.225,7.525" style="fill:none;stroke-width:0.050000mm;stroke:black"/>
<polygon points="255.175,7.525 255.175,21.525 269.175,21.525 269.175,7.525" style="fill:none;stroke-width:0.050000mm;stroke:black"/>
<polygon points="236.126,7.525 236.126,21.525 250.126,21.525 250.126,7.525" style="fill:none;stroke-width:0.050000mm;stroke:black"/>
<polygon points="217.076,7.525 217.076,21.525 231.076,21.525 231.076,7.525" style="fill:none;stroke-width:0.050000mm;stroke:black"/>
<polygon points="198.025,7.525 198.025,21.525 212.025,21.525 212.025,7.525" style="fill:none;stroke-width:0.050000mm;stroke:black"/>
<polygon points="178.976,7.525 178.976,21.525 192.976,21.525 192.976,7.525" style="fill:none;stroke-width:0.050000mm;stroke:black"/>
<polygon points="159.925,7.525 159.925,21.525 173.925,21.525 173.925,7.525" style="fill:none;stroke-width:0.050000mm;stroke:black"/>
<polygon points="140.876,7.525 140.876,21.525 154.876,21.525 154.876,7.525" style="fill:none;stroke-width:0.050000mm;stroke:black"/>
<polygon points="121.826,7.525 121.826,21.525 135.826,21.525 135.826,7.525" style="fill:none;stroke-width:0.050000mm;stroke:black"/>
<polygon points="102.776,7.525 102.776,21.525 116.776,21.525 116.776,7.525" style="fill:none;stroke-width:0.050000mm;stroke:black"/>
<polygon points="83.726,7.525 83.726,21.525 97.726,21.525 97.726,7.525" style="fill:none;stroke-width:0.050000mm;stroke:black"/>
<polygon points="64.675,7.525 64.675,21.525 78.675,21.525 78.675,7.525" style="fill:none;stroke-width:0.050000mm;stroke:black"/>
<polygon points="45.626,7.525 45.626,21.525 59.626,21.525 59.626,7.525" style="fill:none;stroke-width:0.050000mm;stroke:black"/>
<polygon points="26.576,7.525 26.576,21.525 40.576,21.525 40.576,7.525" style="fill:none;stroke-width:0.050000mm;stroke:black"/>
<polygon points="7.526,7.525 7.526,21.525 21.526,21.525 21.526,7.525" style="fill:none;stroke-width:0.050000mm;stroke:black"/>
</svg>
