<?xml version="1.0" encoding="UTF-8" standalone="no"?>
<!DOCTYPE svg PUBLIC "-//W3C//DTD SVG 1.1//EN" "http://www.w3.org/Graphics/SVG/1.1/DTD/svg11.dtd">
<svg width="100%" height="100%" viewBox="0 0 1118 398" version="1.1" xmlns="http://www.w3.org/2000/svg" xmlns:xlink="http://www.w3.org/1999/xlink" xml:space="preserve" xmlns:serif="http://www.serif.com/" style="fill-rule:evenodd;clip-rule:evenodd;stroke-linecap:round;stroke-linejoin:round;">
    <g transform="matrix(1.33333,0,0,1.33333,0,0)">
        <path d="M817.977,14.635L818.419,14.652L818.861,14.703L819.298,14.791L819.731,14.91L820.145,15.066L820.548,15.25L820.936,15.469L821.307,15.715L821.656,15.993L821.985,16.294L822.285,16.622L822.566,16.971L822.81,17.342L823.028,17.731L823.212,18.133L823.368,18.55L823.487,18.981L823.575,19.417L823.629,19.86L823.646,20.305L823.646,168.168L813.722,168.168L811.531,168.514L809.558,169.52L807.99,171.088L806.984,173.064L806.638,175.252L806.984,177.446L807.99,179.419L809.558,180.989L811.531,181.996L813.722,182.341L823.646,182.341L823.646,278.05L823.629,278.49L823.575,278.932L823.487,279.369L823.368,279.799L823.212,280.219L823.028,280.619L822.81,281.007L822.566,281.378L822.285,281.73L821.985,282.059L821.656,282.356L821.307,282.634L820.936,282.881L820.548,283.099L820.145,283.283L819.731,283.442L819.298,283.561L818.861,283.646L818.419,283.697L817.977,283.714L20.378,283.72L19.933,283.697L19.491,283.646L19.054,283.561L18.624,283.442L18.207,283.283L17.804,283.099L17.416,282.881L17.045,282.634L16.696,282.356L16.367,282.059L16.067,281.73L15.789,281.378L15.542,281.007L15.324,280.619L15.14,280.219L14.984,279.799L14.865,279.369L14.777,278.932L14.726,278.49L14.706,278.05L14.706,182.341L24.63,182.341L26.821,181.996L28.794,180.989L30.362,179.419L31.368,177.446L31.717,175.255L31.368,173.064L30.362,171.088L28.794,169.52L26.821,168.514L24.633,168.168L14.706,168.168L14.709,20.305L14.726,19.86L14.777,19.417L14.865,18.981L14.984,18.55L15.14,18.133L15.324,17.731L15.542,17.342L15.789,16.971L16.067,16.622L16.367,16.294L16.696,15.993L17.045,15.715L17.416,15.469L17.804,15.25L18.207,15.066L18.624,14.91L19.054,14.791L19.491,14.703L19.933,14.652L20.378,14.632L817.977,14.635ZM702.269,277.016L702.269,237.331L649.083,237.331L649.083,277.016L702.269,277.016ZM533.52,277.016L533.52,237.331L487.083,237.331L487.083,277.016L533.52,277.016ZM229.765,277.016L229.765,237.331L183.331,237.331L183.331,277.016L229.765,277.016ZM162.269,277.016L162.269,237.331L115.835,237.331L115.835,277.016L162.269,277.016ZM81.269,248.743L88.793,248.671C88.793,248.671 92.543,249.283 94.112,250.543C97.771,253.481 98.356,258.838 95.418,262.498C93.742,264.585 88.793,265.676 88.793,265.676C88.793,265.676 81.269,265.676 81.269,265.676L81.269,277.016L21.334,277.016L21.334,237.331L81.269,237.331L81.269,248.743ZM607.765,277.016L607.765,237.331L554.581,237.331L554.581,249.626L553.048,249.868L551.072,250.877L549.505,252.442L548.501,254.421L548.152,256.609L548.501,258.8L549.505,260.773L551.072,262.344L553.048,263.347L554.581,263.591L554.581,277.016L607.765,277.016ZM439.016,277.016L439.016,263.693L443.339,263.693L443.339,272.849L462.472,272.849L462.472,263.693L464.814,263.693L464.814,255.756L462.472,255.756L462.472,237.983L457.583,237.983L457.583,234.581L448.228,234.581L448.228,237.983L443.339,237.983L443.339,250.654L439.016,250.654L439.016,237.331L399.331,237.331L399.331,250.654L395.011,250.654L395.011,237.983L390.118,237.983L390.118,234.581L380.767,234.581L380.767,237.983L375.877,237.983L375.877,255.756L373.535,255.756L373.535,263.693L375.877,263.693L375.877,272.849L395.011,272.849L395.011,263.693L399.331,263.693L399.331,277.016L439.016,277.016ZM324.266,277.016L324.266,263.693L328.589,263.693L328.589,272.849L347.723,272.849L347.723,263.693L350.065,263.693L350.065,255.756L347.723,255.756L347.723,237.983L342.833,237.983L342.833,234.581L333.479,234.581L333.479,237.983L328.589,237.983L328.589,250.654L324.266,250.654L324.266,237.331L284.581,237.331L284.581,250.654L280.261,250.654L280.261,237.983L275.369,237.983L275.369,234.581L266.014,234.581L266.014,237.983L261.128,237.983L261.128,255.756L258.786,255.756L258.786,263.693L261.128,263.693L261.128,272.849L280.261,272.849L280.261,263.693L284.581,263.693L284.581,277.016L324.266,277.016ZM810.675,234.978L770.99,234.978L770.99,276.08L810.675,276.08L810.675,234.978ZM736.499,248.743C741.193,248.743 745.003,252.553 745.003,257.247C745.003,261.94 741.193,265.751 736.499,265.751C731.806,265.751 727.995,261.94 727.995,257.247C727.995,252.553 731.806,248.743 736.499,248.743ZM641.865,262.498C638.926,266.157 633.57,266.743 629.91,263.804C626.25,260.865 625.665,255.508 628.604,251.849C631.543,248.189 636.9,247.604 640.559,250.543C644.219,253.481 644.804,258.838 641.865,262.498ZM561.331,183.331L561.331,223.016L601.016,223.016L601.016,183.331L561.331,183.331ZM399.334,183.331L399.334,223.016L439.019,223.016L439.019,183.331L399.334,183.331ZM291.334,183.331L291.334,223.016L331.019,223.016L331.019,183.331L291.334,183.331ZM237.334,183.331L237.334,223.016L277.019,223.016L277.019,183.331L237.334,183.331ZM129.334,183.331L129.334,223.016L169.019,223.016L169.019,183.331L129.334,183.331ZM345.334,183.331L345.334,223.016L385.019,223.016L385.019,183.331L345.334,183.331ZM183.331,183.331L183.331,223.016L223.016,223.016L223.016,183.331L183.331,183.331ZM675.269,223.016L675.269,183.331L615.334,183.331L615.334,223.016L675.269,223.016ZM749.517,223.016L749.517,183.331L689.581,183.331L689.581,223.016L749.517,223.016ZM507.334,183.331L507.334,223.016L547.019,223.016L547.019,183.331L507.334,183.331ZM810.266,223.016L810.266,183.331L763.832,183.331L763.832,223.016L810.266,223.016ZM453.331,183.331L453.331,223.016L493.016,223.016L493.016,183.331L453.331,183.331ZM88.021,223.016L88.021,209.69L92.341,209.69L92.341,218.849L111.475,218.849L111.475,209.69L113.814,209.69L113.814,201.756L111.475,201.756L111.475,183.983L106.586,183.983L106.586,180.581L97.231,180.581L97.231,183.983L92.341,183.983L92.341,196.654L88.021,196.654L88.021,183.331L48.336,183.331L48.336,196.654L44.011,196.654L44.011,183.983L39.124,183.983L39.124,180.581L29.769,180.581L29.769,183.983L24.877,183.983L24.877,201.756L22.538,201.756L22.538,209.69L24.877,209.69L24.877,218.849L44.011,218.849L44.011,209.69L48.336,209.69L48.336,223.016L88.021,223.016ZM666.865,129.334L666.865,126.584L657.513,126.584L657.513,129.334L642.334,129.334L642.334,169.019L715.762,169.019L715.762,164.852L730.083,164.852L730.083,169.019L803.517,169.019L803.517,129.334L788.332,129.334L788.332,126.584L778.98,126.584L778.98,129.334L734.329,129.334L734.329,126.584L724.975,126.584L724.975,129.988L720.87,129.988L720.87,126.584L711.516,126.584L711.516,129.334L666.865,129.334ZM318.331,129.334L318.331,169.019L358.016,169.019L358.016,129.334L318.331,129.334ZM210.334,129.334L210.334,169.019L250.019,169.019L250.019,129.334L210.334,129.334ZM264.334,129.334L264.334,169.019L304.019,169.019L304.019,129.334L264.334,129.334ZM426.331,129.334L426.331,169.019L466.016,169.019L466.016,129.334L426.331,129.334ZM102.331,129.334L102.331,169.019L142.016,169.019L142.016,129.334L102.331,129.334ZM534.334,129.334L534.334,169.019L574.019,169.019L574.019,129.334L534.334,129.334ZM588.331,129.334L588.331,169.019L628.016,169.019L628.016,129.334L588.331,129.334ZM34.835,129.334L34.835,169.019L74.52,169.019L74.52,129.334L34.835,129.334ZM156.334,129.334L156.334,169.019L196.019,169.019L196.019,129.334L156.334,129.334ZM372.334,129.334L372.334,146.143L371.897,146.985L371.557,149.179L371.897,151.364L372.334,152.212L372.334,169.019L412.019,169.019L412.019,129.334L372.334,129.334ZM480.334,129.334L480.334,169.019L520.019,169.019L520.019,129.334L480.334,129.334ZM820.936,150L814,150L814,159L820.936,159L820.936,150ZM820.936,128L814,128L814,137L820.936,137L820.936,128ZM588.331,75.331L588.331,115.016L628.016,115.016L628.016,75.331L588.331,75.331ZM534.334,75.331L534.334,115.016L574.019,115.016L574.019,75.331L534.334,75.331ZM817.016,115.016L817.016,75.331L642.334,75.331L642.334,115.016L817.016,115.016ZM372.334,75.331L372.334,115.016L412.019,115.016L412.019,75.331L372.334,75.331ZM318.331,75.331L318.331,115.016L358.016,115.016L358.016,75.331L318.331,75.331ZM426.331,75.331L426.331,115.016L466.016,115.016L466.016,75.331L426.331,75.331ZM102.331,75.331L102.331,115.016L142.016,115.016L142.016,75.331L102.331,75.331ZM210.334,75.331L210.334,115.016L250.019,115.016L250.019,75.331L210.334,75.331ZM264.334,75.331L264.334,115.016L304.019,115.016L304.019,75.331L264.334,75.331ZM34.835,75.331L34.835,115.016L74.52,115.016L74.52,75.331L34.835,75.331ZM156.334,75.331L156.334,115.016L196.019,115.016L196.019,75.331L156.334,75.331ZM480.334,75.331L480.334,115.016L520.019,115.016L520.019,75.331L480.334,75.331ZM84.481,87.443L82.508,88.449L80.938,90.017L79.934,91.993L79.588,94.187L79.934,96.372L80.938,98.348L82.508,99.916L84.481,100.922L86.675,101.273L88.863,100.922L90.839,99.916L92.401,98.348L93.413,96.372L93.759,94.187L93.413,91.993L92.401,90.017L90.839,88.449L88.863,87.443L86.675,87.097L84.481,87.443ZM799.228,61.016L799.228,63.765L808.583,63.765L808.583,61.016L817.016,61.016L817.016,21.331L723.331,21.331L723.331,61.016L731.764,61.016L731.764,63.765L741.118,63.765L741.118,61.016L799.228,61.016ZM561.331,21.331L561.331,61.016L601.016,61.016L601.016,21.331L561.331,21.331ZM669.334,21.331L669.334,61.016L709.019,61.016L709.019,21.331L669.334,21.331ZM615.334,21.331L615.334,61.016L655.019,61.016L655.019,21.331L615.334,21.331ZM453.331,21.331L453.331,61.016L493.016,61.016L493.016,21.331L453.331,21.331ZM183.331,21.331L183.331,61.016L223.016,61.016L223.016,21.331L183.331,21.331ZM129.334,21.331L129.334,61.016L169.019,61.016L169.019,21.331L129.334,21.331ZM237.334,21.331L237.334,61.016L277.019,61.016L277.019,21.331L237.334,21.331ZM399.334,21.331L399.334,61.016L439.019,61.016L439.019,21.331L399.334,21.331ZM345.334,21.331L345.334,61.016L385.019,61.016L385.019,21.331L345.334,21.331ZM291.334,21.331L291.334,61.016L331.019,61.016L331.019,21.331L291.334,21.331ZM21.334,21.331L21.334,61.016L61.019,61.016L61.019,21.331L21.334,21.331ZM75.334,21.331L75.334,61.016L115.019,61.016L115.019,21.331L75.334,21.331ZM507.334,21.331L507.334,61.016L547.019,61.016L547.019,21.331L507.334,21.331Z" style="fill:rgb(156,156,156);stroke:black;stroke-width:1.13px;"/>
    </g>
</svg>
