  0
SECTION
  2
HEADER
  9
$ACADVER
  1
AC1014
  9
$HANDSEED
  5
FFFF
  9
$MEASUREMENT
 70
     1
  0
ENDSEC
  0
SECTION
  2
TABLES
  0
TABLE
  2
VPORT
  5
8
330
0
100
AcDbSymbolTable
 70
     4
  0
VPORT
  5
2E
330
8
100
AcDbSymbolTableRecord
100
AcDbViewportTableRecord
  2
*ACTIVE
 70
     0
 10
0.0
 20
0.0
 11
1.0
 21
1.0
 12
210.0
 22
148.5
 13
0.0
 23
0.0
 14
10.0
 24
10.0
 15
10.0
 25
10.0
 16
0.0
 26
0.0
 36
1.0
 17
0.0
 27
0.0
 37
0.0
 40
341.0
 41
1.24
 42
50.0
 43
0.0
 44
0.0
 50
0.0
 51
0.0
 71
     0
 72
   100
 73
     1
 74
     3
 75
     0
 76
     0
 77
     0
 78
     0
  0
ENDTAB
  0
TABLE
  2
LTYPE
  5
5
330
0
100
AcDbSymbolTable
 70
     1
  0
LTYPE
  5
14
330
5
100
AcDbSymbolTableRecord
100
AcDbLinetypeTableRecord
  2
BYBLOCK
 70
     0
  3

 72
    65
 73
     0
 40
0.0
  0
LTYPE
  5
15
330
5
100
AcDbSymbolTableRecord
100
AcDbLinetypeTableRecord
  2
BYLAYER
 70
     0
  3

 72
    65
 73
     0
 40
0.0
  0
LTYPE
  5
16
330
5
100
AcDbSymbolTableRecord
100
AcDbLinetypeTableRecord
  2
CONTINUOUS
 70
     0
  3
Solid line
 72
    65
 73
     0
 40
0.0
  0
ENDTAB
  0
TABLE
  2
LAYER
  5
2
100
AcDbSymbolTable
 70
1
  0
LAYER
  5
50
100
AcDbSymbolTableRecord
100
AcDbLayerTableRecord
  2
0
 70
0
  6
CONTINUOUS
  0
ENDTAB
  0
TABLE
  2
STYLE
  5
3
330
0
100
AcDbSymbolTable
 70
     1
  0
STYLE
  5
11
330
3
100
AcDbSymbolTableRecord
100
AcDbTextStyleTableRecord
  2
STANDARD
 70
     0
 40
0.0
 41
1.0
 50
0.0
 71
     0
 42
2.5
  3
txt
  4

  0
ENDTAB
  0
TABLE
  2
VIEW
  5
6
330
0
100
AcDbSymbolTable
 70
     0
  0
ENDTAB
  0
TABLE
  2
UCS
  5
7
330
0
100
AcDbSymbolTable
 70
     0
  0
ENDTAB
  0
TABLE
  2
APPID
  5
9
330
0
100
AcDbSymbolTable
 70
     2
  0
APPID
  5
12
330
9
100
AcDbSymbolTableRecord
100
AcDbRegAppTableRecord
  2
ACAD
 70
     0
  0
ENDTAB
  0
TABLE
  2
DIMSTYLE
  5
A
330
0
100
AcDbSymbolTable
 70
     1
  0
DIMSTYLE
105
27
330
A
100
AcDbSymbolTableRecord
100
AcDbDimStyleTableRecord
  2
ISO-25
 70
     0
  3

  4

  5

  6

  7

 40
1.0
 41
2.5
 42
0.625
 43
3.75
 44
1.25
 45
0.0
 46
0.0
 47
0.0
 48
0.0
140
2.5
141
2.5
142
0.0
143
0.03937007874016
144
1.0
145
0.0
146
1.0
147
0.625
 71
     0
 72
     0
 73
     0
 74
     0
 75
     0
 76
     0
 77
     1
 78
     8
170
     0
171
     3
172
     1
173
     0
174
     0
175
     0
176
     0
177
     0
178
     0
270
     2
271
     2
272
     2
273
     2
274
     3
340
11
275
     0
280
     0
281
     0
282
     0
283
     0
284
     8
285
     0
286
     0
287
     3
288
     0
  0
ENDTAB
  0
TABLE
  2
BLOCK_RECORD
  5
1
330
0
100
AcDbSymbolTable
 70
     1
  0
BLOCK_RECORD
  5
1F
330
1
100
AcDbSymbolTableRecord
100
AcDbBlockTableRecord
  2
*MODEL_SPACE
  0
BLOCK_RECORD
  5
1B
330
1
100
AcDbSymbolTableRecord
100
AcDbBlockTableRecord
  2
*PAPER_SPACE
  0
ENDTAB
  0
ENDSEC
  0
SECTION
  2
BLOCKS
  0
BLOCK
  5
20
330
1F
100
AcDbEntity
  8
0
100
AcDbBlockBegin
  2
*MODEL_SPACE
 70
     0
 10
0.0
 20
0.0
 30
0.0
  3
*MODEL_SPACE
  1

  0
ENDBLK
  5
21
330
1F
100
AcDbEntity
  8
0
100
AcDbBlockEnd
  0
BLOCK
  5
1C
330
1B
100
AcDbEntity
 67
     1
  8
0
100
AcDbBlockBegin
  2
*PAPER_SPACE
  1

  0
ENDBLK
  5
1D
330
1B
100
AcDbEntity
 67
     1
  8
0
100
AcDbBlockEnd
  0
ENDSEC
  0
SECTION
  2
ENTITIES
  0
LWPOLYLINE
  5
100
100
AcDbEntity
  8
0
 62
7
100
AcDbPolyline
 90
111
 70
1
 10
288.563387
 20
100.141277
 30
0.0
 10
288.719314
 20
100.135280
 30
0.0
 10
288.875242
 20
100.117288
 30
0.0
 10
289.029405
 20
100.086244
 30
0.0
 10
289.182158
 20
100.044263
 30
0.0
 10
289.328207
 20
99.989230
 30
0.0
 10
289.470376
 20
99.924319
 30
0.0
 10
289.607254
 20
99.847061
 30
0.0
 10
289.738134
 20
99.760278
 30
0.0
 10
289.861253
 20
99.662206
 30
0.0
 10
289.977317
 20
99.556020
 30
0.0
 10
290.083150
 20
99.440309
 30
0.0
 10
290.182280
 20
99.317190
 30
0.0
 10
290.268358
 20
99.186310
 30
0.0
 10
290.345263
 20
99.049080
 30
0.0
 10
290.410174
 20
98.907263
 30
0.0
 10
290.465207
 20
98.760155
 30
0.0
 10
290.507188
 20
98.608108
 30
0.0
 10
290.538232
 20
98.454298
 30
0.0
 10
290.557282
 20
98.298018
 30
0.0
 10
290.563279
 20
98.141032
 30
0.0
 10
290.563279
 20
45.978382
 30
0.0
 10
287.062321
 20
45.978382
 30
0.0
 10
286.289387
 20
45.856321
 30
0.0
 10
285.593358
 20
45.501427
 30
0.0
 10
285.040204
 20
44.948273
 30
0.0
 10
284.685311
 20
44.251186
 30
0.0
 10
284.563250
 20
43.479310
 30
0.0
 10
284.685311
 20
42.705318
 30
0.0
 10
285.040204
 20
42.009289
 30
0.0
 10
285.593358
 20
41.455429
 30
0.0
 10
286.289387
 20
41.100183
 30
0.0
 10
287.062321
 20
40.978475
 30
0.0
 10
290.563279
 20
40.978475
 30
0.0
 10
290.563279
 20
7.214551
 30
0.0
 10
290.557282
 20
7.059329
 30
0.0
 10
290.538232
 20
6.903402
 30
0.0
 10
290.507188
 20
6.749238
 30
0.0
 10
290.465207
 20
6.597544
 30
0.0
 10
290.410174
 20
6.449378
 30
0.0
 10
290.345263
 20
6.308267
 30
0.0
 10
290.268358
 20
6.171389
 30
0.0
 10
290.182280
 20
6.040509
 30
0.0
 10
290.083150
 20
5.916332
 30
0.0
 10
289.977317
 20
5.800268
 30
0.0
 10
289.861253
 20
5.695493
 30
0.0
 10
289.738134
 20
5.597421
 30
0.0
 10
289.607254
 20
5.510286
 30
0.0
 10
289.470376
 20
5.433380
 30
0.0
 10
289.328207
 20
5.368469
 30
0.0
 10
289.182158
 20
5.312378
 30
0.0
 10
289.029405
 20
5.270397
 30
0.0
 10
288.875242
 20
5.240411
 30
0.0
 10
288.719314
 20
5.222420
 30
0.0
 10
288.563387
 20
5.216422
 30
0.0
 10
7.188888
 20
5.214306
 30
0.0
 10
7.031902
 20
5.222420
 30
0.0
 10
6.875974
 20
5.240411
 30
0.0
 10
6.721811
 20
5.270397
 30
0.0
 10
6.570117
 20
5.312378
 30
0.0
 10
6.423009
 20
5.368469
 30
0.0
 10
6.280840
 20
5.433380
 30
0.0
 10
6.143962
 20
5.510286
 30
0.0
 10
6.013082
 20
5.597421
 30
0.0
 10
5.889963
 20
5.695493
 30
0.0
 10
5.773899
 20
5.800268
 30
0.0
 10
5.668066
 20
5.916332
 30
0.0
 10
5.569994
 20
6.040509
 30
0.0
 10
5.482859
 20
6.171389
 30
0.0
 10
5.405953
 20
6.308267
 30
0.0
 10
5.341042
 20
6.449378
 30
0.0
 10
5.286009
 20
6.597544
 30
0.0
 10
5.244029
 20
6.749238
 30
0.0
 10
5.212984
 20
6.903402
 30
0.0
 10
5.194993
 20
7.059329
 30
0.0
 10
5.187937
 20
7.214551
 30
0.0
 10
5.187937
 20
40.978475
 30
0.0
 10
8.688895
 20
40.978475
 30
0.0
 10
9.461829
 20
41.100183
 30
0.0
 10
10.157858
 20
41.455429
 30
0.0
 10
10.711012
 20
42.009289
 30
0.0
 10
11.065906
 20
42.705318
 30
0.0
 10
11.189025
 20
43.478252
 30
0.0
 10
11.065906
 20
44.251186
 30
0.0
 10
10.711012
 20
44.948273
 30
0.0
 10
10.157858
 20
45.501427
 30
0.0
 10
9.461829
 20
45.856321
 30
0.0
 10
8.689953
 20
45.978382
 30
0.0
 10
5.187937
 20
45.978382
 30
0.0
 10
5.188995
 20
98.141032
 30
0.0
 10
5.194993
 20
98.298018
 30
0.0
 10
5.212984
 20
98.454298
 30
0.0
 10
5.244029
 20
98.608108
 30
0.0
 10
5.286009
 20
98.760155
 30
0.0
 10
5.341042
 20
98.907263
 30
0.0
 10
5.405953
 20
99.049080
 30
0.0
 10
5.482859
 20
99.186310
 30
0.0
 10
5.569994
 20
99.317190
 30
0.0
 10
5.668066
 20
99.440309
 30
0.0
 10
5.773899
 20
99.556020
 30
0.0
 10
5.889963
 20
99.662206
 30
0.0
 10
6.013082
 20
99.760278
 30
0.0
 10
6.143962
 20
99.847061
 30
0.0
 10
6.280840
 20
99.924319
 30
0.0
 10
6.423009
 20
99.989230
 30
0.0
 10
6.570117
 20
100.044263
 30
0.0
 10
6.721811
 20
100.086244
 30
0.0
 10
6.875974
 20
100.117288
 30
0.0
 10
7.031902
 20
100.135280
 30
0.0
 10
7.188888
 20
100.142335
 30
0.0
 10
288.563387
 20
100.141277
 30
0.0
  0
LWPOLYLINE
  5
101
100
AcDbEntity
  8
0
 62
7
100
AcDbPolyline
 90
5
 70
1
 10
285.487525
 20
21.909472
 30
0.0
 10
272.487697
 20
21.909472
 30
0.0
 10
272.487697
 20
7.579322
 30
0.0
 10
285.487525
 20
7.579322
 30
0.0
 10
285.487525
 20
21.909472
 30
0.0
  0
LWPOLYLINE
  5
102
100
AcDbEntity
  8
0
 62
7
100
AcDbPolyline
 90
37
 70
1
 10
154.799560
 20
7.654464
 30
0.0
 10
154.799560
 20
12.307238
 30
0.0
 10
156.399403
 20
12.307238
 30
0.0
 10
156.399403
 20
9.109668
 30
0.0
 10
163.149084
 20
9.109668
 30
0.0
 10
163.149084
 20
12.307238
 30
0.0
 10
163.974935
 20
12.307238
 30
0.0
 10
163.974935
 20
15.079359
 30
0.0
 10
163.149084
 20
15.079359
 30
0.0
 10
163.149084
 20
21.286468
 30
0.0
 10
161.424005
 20
21.286468
 30
0.0
 10
161.424005
 20
22.474268
 30
0.0
 10
158.124130
 20
22.474268
 30
0.0
 10
158.124130
 20
21.286468
 30
0.0
 10
156.399403
 20
21.286468
 30
0.0
 10
156.399403
 20
16.861235
 30
0.0
 10
154.799560
 20
16.861235
 30
0.0
 10
154.799560
 20
21.514009
 30
0.0
 10
140.949539
 20
21.514009
 30
0.0
 10
140.949539
 20
16.861235
 30
0.0
 10
139.350754
 20
16.861235
 30
0.0
 10
139.350754
 20
21.286468
 30
0.0
 10
137.624970
 20
21.286468
 30
0.0
 10
137.624970
 20
22.474268
 30
0.0
 10
134.326153
 20
22.474268
 30
0.0
 10
134.326153
 20
21.286468
 30
0.0
 10
132.601074
 20
21.286468
 30
0.0
 10
132.601074
 20
15.079359
 30
0.0
 10
131.775223
 20
15.079359
 30
0.0
 10
131.775223
 20
12.307238
 30
0.0
 10
132.601074
 20
12.307238
 30
0.0
 10
132.601074
 20
9.109668
 30
0.0
 10
139.350754
 20
9.109668
 30
0.0
 10
139.350754
 20
12.307238
 30
0.0
 10
140.949539
 20
12.307238
 30
0.0
 10
140.949539
 20
7.654464
 30
0.0
 10
154.799560
 20
7.654464
 30
0.0
  0
LWPOLYLINE
  5
103
100
AcDbEntity
  8
0
 62
7
100
AcDbPolyline
 90
5
 70
1
 10
188.138388
 20
7.654464
 30
0.0
 10
188.138388
 20
21.504484
 30
0.0
 10
171.906417
 20
21.504484
 30
0.0
 10
171.906417
 20
7.654464
 30
0.0
 10
188.138388
 20
7.654464
 30
0.0
  0
LWPOLYLINE
  5
104
100
AcDbEntity
  8
0
 62
7
100
AcDbPolyline
 90
5
 70
1
 10
80.980642
 20
7.654464
 30
0.0
 10
80.980642
 20
21.504484
 30
0.0
 10
64.749730
 20
21.504484
 30
0.0
 10
64.749730
 20
7.654464
 30
0.0
 10
80.980642
 20
7.654464
 30
0.0
  0
LWPOLYLINE
  5
105
100
AcDbEntity
  8
0
 62
7
100
AcDbPolyline
 90
5
 70
1
 10
57.169965
 20
7.654464
 30
0.0
 10
57.169965
 20
21.504484
 30
0.0
 10
40.939053
 20
21.504484
 30
0.0
 10
40.939053
 20
7.654464
 30
0.0
 10
57.169965
 20
7.654464
 30
0.0
  0
LWPOLYLINE
  5
106
100
AcDbEntity
  8
0
 62
7
100
AcDbPolyline
 90
5
 70
1
 10
247.669489
 20
7.654464
 30
0.0
 10
247.669489
 20
21.504484
 30
0.0
 10
229.056275
 20
21.504484
 30
0.0
 10
229.056275
 20
7.654464
 30
0.0
 10
247.669489
 20
7.654464
 30
0.0
  0
LWPOLYLINE
  5
107
100
AcDbEntity
  8
0
 62
7
100
AcDbPolyline
 90
16
 70
1
 10
214.330309
 20
7.654464
 30
0.0
 10
214.330309
 20
21.504484
 30
0.0
 10
195.702277
 20
21.504484
 30
0.0
 10
195.702277
 20
17.213306
 30
0.0
 10
195.165351
 20
17.128640
 30
0.0
 10
194.473203
 20
16.776569
 30
0.0
 10
193.924282
 20
16.230470
 30
0.0
 10
193.572563
 20
15.540086
 30
0.0
 10
193.450502
 20
14.776324
 30
0.0
 10
193.572563
 20
14.011503
 30
0.0
 10
193.924282
 20
13.322883
 30
0.0
 10
194.473203
 20
12.775020
 30
0.0
 10
195.165351
 20
12.424713
 30
0.0
 10
195.702277
 20
12.339694
 30
0.0
 10
195.702277
 20
7.654464
 30
0.0
 10
214.330309
 20
7.654464
 30
0.0
  0
LWPOLYLINE
  5
108
100
AcDbEntity
  8
0
 62
7
100
AcDbPolyline
 90
5
 70
1
 10
28.595037
 20
7.654464
 30
0.0
 10
28.595037
 20
21.504484
 30
0.0
 10
7.600931
 20
21.504484
 30
0.0
 10
7.600931
 20
7.654464
 30
0.0
 10
28.595037
 20
7.654464
 30
0.0
  0
SPLINE
  5
109
100
AcDbEntity
  8
0
 62
7
100
AcDbSpline
 70
8
 71
3
 72
8
 73
4
 74
0
 40
0
 40
0
 40
0
 40
0
 40
1
 40
1
 40
1
 40
1
 10
259.819831
 20
17.553383
 30
0.0
 10
261.475766
 20
17.553383
 30
0.0
 10
262.819846
 20
16.209303
 30
0.0
 10
262.819846
 20
14.553369
 30
0.0
  0
SPLINE
  5
10a
100
AcDbEntity
  8
0
 62
7
100
AcDbSpline
 70
8
 71
3
 72
8
 73
4
 74
0
 40
0
 40
0
 40
0
 40
0
 40
1
 40
1
 40
1
 40
1
 10
262.819846
 20
14.553369
 30
0.0
 10
262.819846
 20
12.897787
 30
0.0
 10
261.475766
 20
11.553354
 30
0.0
 10
259.819831
 20
11.553354
 30
0.0
  0
SPLINE
  5
10b
100
AcDbEntity
  8
0
 62
7
100
AcDbSpline
 70
8
 71
3
 72
8
 73
4
 74
0
 40
0
 40
0
 40
0
 40
0
 40
1
 40
1
 40
1
 40
1
 10
259.819831
 20
11.553354
 30
0.0
 10
258.164249
 20
11.553354
 30
0.0
 10
256.819816
 20
12.897787
 30
0.0
 10
256.819816
 20
14.553369
 30
0.0
  0
SPLINE
  5
10c
100
AcDbEntity
  8
0
 62
7
100
AcDbSpline
 70
8
 71
3
 72
8
 73
4
 74
0
 40
0
 40
0
 40
0
 40
0
 40
1
 40
1
 40
1
 40
1
 10
256.819816
 20
14.553369
 30
0.0
 10
256.819816
 20
16.209303
 30
0.0
 10
258.164249
 20
17.553383
 30
0.0
 10
259.819831
 20
17.553383
 30
0.0
  0
LWPOLYLINE
  5
10d
100
AcDbEntity
  8
0
 62
7
100
AcDbPolyline
 90
37
 70
1
 10
114.318764
 20
7.654464
 30
0.0
 10
114.318764
 20
12.307238
 30
0.0
 10
115.918607
 20
12.307238
 30
0.0
 10
115.918607
 20
9.109668
 30
0.0
 10
122.668288
 20
9.109668
 30
0.0
 10
122.668288
 20
12.307238
 30
0.0
 10
123.494138
 20
12.307238
 30
0.0
 10
123.494138
 20
15.079359
 30
0.0
 10
122.668288
 20
15.079359
 30
0.0
 10
122.668288
 20
21.286468
 30
0.0
 10
120.943209
 20
21.286468
 30
0.0
 10
120.943209
 20
22.474268
 30
0.0
 10
117.643334
 20
22.474268
 30
0.0
 10
117.643334
 20
21.286468
 30
0.0
 10
115.918607
 20
21.286468
 30
0.0
 10
115.918607
 20
16.861235
 30
0.0
 10
114.318764
 20
16.861235
 30
0.0
 10
114.318764
 20
21.514009
 30
0.0
 10
100.468743
 20
21.514009
 30
0.0
 10
100.468743
 20
16.861235
 30
0.0
 10
98.869958
 20
16.861235
 30
0.0
 10
98.869958
 20
21.286468
 30
0.0
 10
97.144174
 20
21.286468
 30
0.0
 10
97.144174
 20
22.474268
 30
0.0
 10
93.844299
 20
22.474268
 30
0.0
 10
93.844299
 20
21.286468
 30
0.0
 10
92.120278
 20
21.286468
 30
0.0
 10
92.120278
 20
15.079359
 30
0.0
 10
91.294427
 20
15.079359
 30
0.0
 10
91.294427
 20
12.307238
 30
0.0
 10
92.120278
 20
12.307238
 30
0.0
 10
92.120278
 20
9.109668
 30
0.0
 10
98.869958
 20
9.109668
 30
0.0
 10
98.869958
 20
12.307238
 30
0.0
 10
100.468743
 20
12.307238
 30
0.0
 10
100.468743
 20
7.654464
 30
0.0
 10
114.318764
 20
7.654464
 30
0.0
  0
LWPOLYLINE
  5
10e
100
AcDbEntity
  8
0
 62
7
100
AcDbPolyline
 90
1
 70
1
 10
259.819831
 20
17.553383
 30
0.0
  0
LWPOLYLINE
  5
10f
100
AcDbEntity
  8
0
 62
7
100
AcDbPolyline
 90
5
 70
1
 10
45.700836
 20
40.554437
 30
0.0
 10
45.700836
 20
26.704416
 30
0.0
 10
59.550857
 20
26.704416
 30
0.0
 10
59.550857
 20
40.554437
 30
0.0
 10
45.700836
 20
40.554437
 30
0.0
  0
LWPOLYLINE
  5
110
100
AcDbEntity
  8
0
 62
7
100
AcDbPolyline
 90
5
 70
1
 10
121.900645
 20
40.554437
 30
0.0
 10
121.900645
 20
26.704416
 30
0.0
 10
135.750666
 20
26.704416
 30
0.0
 10
135.750666
 20
40.554437
 30
0.0
 10
121.900645
 20
40.554437
 30
0.0
  0
LWPOLYLINE
  5
111
100
AcDbEntity
  8
0
 62
7
100
AcDbPolyline
 90
5
 70
1
 10
64.749730
 20
40.554437
 30
0.0
 10
64.749730
 20
26.704416
 30
0.0
 10
78.599751
 20
26.704416
 30
0.0
 10
78.599751
 20
40.554437
 30
0.0
 10
64.749730
 20
40.554437
 30
0.0
  0
LWPOLYLINE
  5
112
100
AcDbEntity
  8
0
 62
7
100
AcDbPolyline
 90
5
 70
1
 10
83.800740
 20
40.554437
 30
0.0
 10
83.800740
 20
26.704416
 30
0.0
 10
97.650761
 20
26.704416
 30
0.0
 10
97.650761
 20
40.554437
 30
0.0
 10
83.800740
 20
40.554437
 30
0.0
  0
LWPOLYLINE
  5
113
100
AcDbEntity
  8
0
 62
7
100
AcDbPolyline
 90
5
 70
1
 10
102.850693
 20
40.554437
 30
0.0
 10
102.850693
 20
26.704416
 30
0.0
 10
116.700714
 20
26.704416
 30
0.0
 10
116.700714
 20
40.554437
 30
0.0
 10
102.850693
 20
40.554437
 30
0.0
  0
LWPOLYLINE
  5
114
100
AcDbEntity
  8
0
 62
7
100
AcDbPolyline
 90
37
 70
1
 10
30.976986
 20
26.704416
 30
0.0
 10
30.976986
 20
31.358249
 30
0.0
 10
32.575771
 20
31.358249
 30
0.0
 10
32.575771
 20
28.159621
 30
0.0
 10
39.325804
 20
28.159621
 30
0.0
 10
39.325804
 20
31.358249
 30
0.0
 10
40.150950
 20
31.358249
 30
0.0
 10
40.150950
 20
34.129311
 30
0.0
 10
39.325804
 20
34.129311
 30
0.0
 10
39.325804
 20
40.336421
 30
0.0
 10
37.601078
 20
40.336421
 30
0.0
 10
37.601078
 20
41.524221
 30
0.0
 10
34.300850
 20
41.524221
 30
0.0
 10
34.300850
 20
40.336421
 30
0.0
 10
32.575771
 20
40.336421
 30
0.0
 10
32.575771
 20
35.911187
 30
0.0
 10
30.976986
 20
35.911187
 30
0.0
 10
30.976986
 20
40.563962
 30
0.0
 10
17.126966
 20
40.563962
 30
0.0
 10
17.126966
 20
35.911187
 30
0.0
 10
15.526064
 20
35.911187
 30
0.0
 10
15.526064
 20
40.336421
 30
0.0
 10
13.802043
 20
40.336421
 30
0.0
 10
13.802043
 20
41.524221
 30
0.0
 10
10.501815
 20
41.524221
 30
0.0
 10
10.501815
 20
40.336421
 30
0.0
 10
8.776031
 20
40.336421
 30
0.0
 10
8.776031
 20
34.129311
 30
0.0
 10
7.950886
 20
34.129311
 30
0.0
 10
7.950886
 20
31.358249
 30
0.0
 10
8.776031
 20
31.358249
 30
0.0
 10
8.776031
 20
28.159621
 30
0.0
 10
15.526064
 20
28.159621
 30
0.0
 10
15.526064
 20
31.358249
 30
0.0
 10
17.126966
 20
31.358249
 30
0.0
 10
17.126966
 20
26.704416
 30
0.0
 10
30.976986
 20
26.704416
 30
0.0
  0
LWPOLYLINE
  5
115
100
AcDbEntity
  8
0
 62
7
100
AcDbPolyline
 90
5
 70
1
 10
238.144513
 20
26.704416
 30
0.0
 10
238.144513
 20
40.554437
 30
0.0
 10
217.150407
 20
40.554437
 30
0.0
 10
217.150407
 20
26.704416
 30
0.0
 10
238.144513
 20
26.704416
 30
0.0
  0
LWPOLYLINE
  5
116
100
AcDbEntity
  8
0
 62
7
100
AcDbPolyline
 90
5
 70
1
 10
179.050502
 20
40.554437
 30
0.0
 10
179.050502
 20
26.704416
 30
0.0
 10
192.900523
 20
26.704416
 30
0.0
 10
192.900523
 20
40.554437
 30
0.0
 10
179.050502
 20
40.554437
 30
0.0
  0
LWPOLYLINE
  5
117
100
AcDbEntity
  8
0
 62
7
100
AcDbPolyline
 90
5
 70
1
 10
140.950598
 20
40.554437
 30
0.0
 10
140.950598
 20
26.704416
 30
0.0
 10
154.800619
 20
26.704416
 30
0.0
 10
154.800619
 20
40.554437
 30
0.0
 10
140.950598
 20
40.554437
 30
0.0
  0
LWPOLYLINE
  5
118
100
AcDbEntity
  8
0
 62
7
100
AcDbPolyline
 90
5
 70
1
 10
159.999492
 20
40.554437
 30
0.0
 10
159.999492
 20
26.704416
 30
0.0
 10
173.849513
 20
26.704416
 30
0.0
 10
173.849513
 20
40.554437
 30
0.0
 10
159.999492
 20
40.554437
 30
0.0
  0
LWPOLYLINE
  5
119
100
AcDbEntity
  8
0
 62
7
100
AcDbPolyline
 90
5
 70
1
 10
264.337492
 20
26.704416
 30
0.0
 10
264.337492
 20
40.554437
 30
0.0
 10
243.343386
 20
40.554437
 30
0.0
 10
243.343386
 20
26.704416
 30
0.0
 10
264.337492
 20
26.704416
 30
0.0
  0
LWPOLYLINE
  5
11a
100
AcDbEntity
  8
0
 62
7
100
AcDbPolyline
 90
5
 70
1
 10
198.099396
 20
40.554437
 30
0.0
 10
198.099396
 20
26.704416
 30
0.0
 10
211.949417
 20
26.704416
 30
0.0
 10
211.949417
 20
40.554437
 30
0.0
 10
198.099396
 20
40.554437
 30
0.0
  0
LWPOLYLINE
  5
11b
100
AcDbEntity
  8
0
 62
7
100
AcDbPolyline
 90
5
 70
1
 10
285.768336
 20
26.704416
 30
0.0
 10
285.768336
 20
40.554437
 30
0.0
 10
269.537423
 20
40.554437
 30
0.0
 10
269.537423
 20
26.704416
 30
0.0
 10
285.768336
 20
26.704416
 30
0.0
  0
LWPOLYLINE
  5
11c
100
AcDbEntity
  8
0
 62
7
100
AcDbPolyline
 90
5
 70
1
 10
12.364125
 20
59.603331
 30
0.0
 10
12.364125
 20
45.753310
 30
0.0
 10
26.213793
 20
45.753310
 30
0.0
 10
26.213793
 20
59.603331
 30
0.0
 10
12.364125
 20
59.603331
 30
0.0
  0
LWPOLYLINE
  5
11d
100
AcDbEntity
  8
0
 62
7
100
AcDbPolyline
 90
5
 70
1
 10
93.325717
 20
59.603331
 30
0.0
 10
93.325717
 20
45.753310
 30
0.0
 10
107.175738
 20
45.753310
 30
0.0
 10
107.175738
 20
59.603331
 30
0.0
 10
93.325717
 20
59.603331
 30
0.0
  0
LWPOLYLINE
  5
11e
100
AcDbEntity
  8
0
 62
7
100
AcDbPolyline
 90
5
 70
1
 10
169.525526
 20
59.603331
 30
0.0
 10
169.525526
 20
45.753310
 30
0.0
 10
183.375547
 20
45.753310
 30
0.0
 10
183.375547
 20
59.603331
 30
0.0
 10
169.525526
 20
59.603331
 30
0.0
  0
LWPOLYLINE
  5
11f
100
AcDbEntity
  8
0
 62
7
100
AcDbPolyline
 90
5
 70
1
 10
74.275764
 20
59.603331
 30
0.0
 10
74.275764
 20
45.753310
 30
0.0
 10
88.125785
 20
45.753310
 30
0.0
 10
88.125785
 20
59.603331
 30
0.0
 10
74.275764
 20
59.603331
 30
0.0
  0
LWPOLYLINE
  5
120
100
AcDbEntity
  8
0
 62
7
100
AcDbPolyline
 90
5
 70
1
 10
112.374611
 20
59.603331
 30
0.0
 10
112.374611
 20
45.753310
 30
0.0
 10
126.224632
 20
45.753310
 30
0.0
 10
126.224632
 20
59.603331
 30
0.0
 10
112.374611
 20
59.603331
 30
0.0
  0
LWPOLYLINE
  5
121
100
AcDbEntity
  8
0
 62
7
100
AcDbPolyline
 90
5
 70
1
 10
150.474515
 20
59.603331
 30
0.0
 10
150.474515
 20
45.753310
 30
0.0
 10
164.324536
 20
45.753310
 30
0.0
 10
164.324536
 20
59.603331
 30
0.0
 10
150.474515
 20
59.603331
 30
0.0
  0
LWPOLYLINE
  5
122
100
AcDbEntity
  8
0
 62
7
100
AcDbPolyline
 90
5
 70
1
 10
55.225812
 20
59.603331
 30
0.0
 10
55.225812
 20
45.753310
 30
0.0
 10
69.075833
 20
45.753310
 30
0.0
 10
69.075833
 20
59.603331
 30
0.0
 10
55.225812
 20
59.603331
 30
0.0
  0
LWPOLYLINE
  5
123
100
AcDbEntity
  8
0
 62
7
100
AcDbPolyline
 90
5
 70
1
 10
207.624373
 20
59.603331
 30
0.0
 10
207.624373
 20
45.753310
 30
0.0
 10
221.474394
 20
45.753310
 30
0.0
 10
221.474394
 20
59.603331
 30
0.0
 10
207.624373
 20
59.603331
 30
0.0
  0
LWPOLYLINE
  5
124
100
AcDbEntity
  8
0
 62
7
100
AcDbPolyline
 90
10
 70
1
 10
131.494766
 20
59.603331
 30
0.0
 10
131.494766
 20
53.737004
 30
0.0
 10
131.344130
 20
53.443141
 30
0.0
 10
131.226655
 20
52.677262
 30
0.0
 10
131.344130
 20
51.914558
 30
0.0
 10
131.494766
 20
51.618931
 30
0.0
 10
131.494766
 20
45.753310
 30
0.0
 10
145.200501
 20
45.753310
 30
0.0
 10
145.200501
 20
59.603331
 30
0.0
 10
131.494766
 20
59.603331
 30
0.0
  0
LWPOLYLINE
  5
125
100
AcDbEntity
  8
0
 62
7
100
AcDbPolyline
 90
5
 70
1
 10
188.575479
 20
59.603331
 30
0.0
 10
188.575479
 20
45.753310
 30
0.0
 10
202.425499
 20
45.753310
 30
0.0
 10
202.425499
 20
59.603331
 30
0.0
 10
188.575479
 20
59.603331
 30
0.0
  0
LWPOLYLINE
  5
126
100
AcDbEntity
  8
0
 62
7
100
AcDbPolyline
 90
5
 70
1
 10
36.174801
 20
59.603331
 30
0.0
 10
36.174801
 20
45.753310
 30
0.0
 10
50.024822
 20
45.753310
 30
0.0
 10
50.024822
 20
59.603331
 30
0.0
 10
36.174801
 20
59.603331
 30
0.0
  0
LWPOLYLINE
  5
127
100
AcDbEntity
  8
0
 62
7
100
AcDbPolyline
 90
25
 70
1
 10
235.306423
 20
59.612856
 30
0.0
 10
235.306423
 20
60.573115
 30
0.0
 10
232.016426
 20
60.573115
 30
0.0
 10
232.016426
 20
59.612856
 30
0.0
 10
226.675383
 20
59.612856
 30
0.0
 10
226.675383
 20
45.753310
 30
0.0
 10
252.510999
 20
45.753310
 30
0.0
 10
252.510999
 20
47.208515
 30
0.0
 10
257.549712
 20
47.208515
 30
0.0
 10
257.549712
 20
45.753310
 30
0.0
 10
283.387444
 20
45.753310
 30
0.0
 10
283.387444
 20
59.612856
 30
0.0
 10
278.044285
 20
59.612856
 30
0.0
 10
278.044285
 20
60.573115
 30
0.0
 10
274.754288
 20
60.573115
 30
0.0
 10
274.754288
 20
59.612856
 30
0.0
 10
259.043722
 20
59.612856
 30
0.0
 10
259.043722
 20
60.573115
 30
0.0
 10
255.752313
 20
60.573115
 30
0.0
 10
255.752313
 20
59.384256
 30
0.0
 10
254.308398
 20
59.384256
 30
0.0
 10
254.308398
 20
60.573115
 30
0.0
 10
251.016989
 20
60.573115
 30
0.0
 10
251.016989
 20
59.612856
 30
0.0
 10
235.306423
 20
59.612856
 30
0.0
  0
LWPOLYLINE
  5
128
100
AcDbEntity
  8
0
 62
7
100
AcDbPolyline
 90
5
 70
1
 10
289.607254
 20
52.387632
 30
0.0
 10
287.160393
 20
52.387632
 30
0.0
 10
287.160393
 20
49.212640
 30
0.0
 10
289.607254
 20
49.212640
 30
0.0
 10
289.607254
 20
52.387632
 30
0.0
  0
LWPOLYLINE
  5
129
100
AcDbEntity
  8
0
 62
7
100
AcDbPolyline
 90
5
 70
1
 10
289.607254
 20
60.148724
 30
0.0
 10
287.160393
 20
60.148724
 30
0.0
 10
287.160393
 20
56.973732
 30
0.0
 10
289.607254
 20
56.973732
 30
0.0
 10
289.607254
 20
60.148724
 30
0.0
  0
LWPOLYLINE
  5
12a
100
AcDbEntity
  8
0
 62
7
100
AcDbPolyline
 90
5
 70
1
 10
288.149227
 20
64.729179
 30
0.0
 10
288.149227
 20
78.729130
 30
0.0
 10
226.675383
 20
78.729130
 30
0.0
 10
226.675383
 20
64.729179
 30
0.0
 10
288.149227
 20
64.729179
 30
0.0
  0
LWPOLYLINE
  5
12b
100
AcDbEntity
  8
0
 62
7
100
AcDbPolyline
 90
5
 70
1
 10
207.624373
 20
78.654342
 30
0.0
 10
207.624373
 20
64.804321
 30
0.0
 10
221.474394
 20
64.804321
 30
0.0
 10
221.474394
 20
78.654342
 30
0.0
 10
207.624373
 20
78.654342
 30
0.0
  0
LWPOLYLINE
  5
12c
100
AcDbEntity
  8
0
 62
7
100
AcDbPolyline
 90
5
 70
1
 10
12.364125
 20
78.654342
 30
0.0
 10
12.364125
 20
64.804321
 30
0.0
 10
26.213793
 20
64.804321
 30
0.0
 10
26.213793
 20
78.654342
 30
0.0
 10
12.364125
 20
78.654342
 30
0.0
  0
LWPOLYLINE
  5
12d
100
AcDbEntity
  8
0
 62
7
100
AcDbPolyline
 90
5
 70
1
 10
55.225812
 20
78.654342
 30
0.0
 10
55.225812
 20
64.804321
 30
0.0
 10
69.075833
 20
64.804321
 30
0.0
 10
69.075833
 20
78.654342
 30
0.0
 10
55.225812
 20
78.654342
 30
0.0
  0
LWPOLYLINE
  5
12e
100
AcDbEntity
  8
0
 62
7
100
AcDbPolyline
 90
5
 70
1
 10
150.474515
 20
78.654342
 30
0.0
 10
150.474515
 20
64.804321
 30
0.0
 10
164.324536
 20
64.804321
 30
0.0
 10
164.324536
 20
78.654342
 30
0.0
 10
150.474515
 20
78.654342
 30
0.0
  0
LWPOLYLINE
  5
12f
100
AcDbEntity
  8
0
 62
7
100
AcDbPolyline
 90
5
 70
1
 10
93.325717
 20
78.654342
 30
0.0
 10
93.325717
 20
64.804321
 30
0.0
 10
107.175738
 20
64.804321
 30
0.0
 10
107.175738
 20
78.654342
 30
0.0
 10
93.325717
 20
78.654342
 30
0.0
  0
LWPOLYLINE
  5
130
100
AcDbEntity
  8
0
 62
7
100
AcDbPolyline
 90
5
 70
1
 10
74.275764
 20
78.654342
 30
0.0
 10
74.275764
 20
64.804321
 30
0.0
 10
88.125785
 20
64.804321
 30
0.0
 10
88.125785
 20
78.654342
 30
0.0
 10
74.275764
 20
78.654342
 30
0.0
  0
LWPOLYLINE
  5
131
100
AcDbEntity
  8
0
 62
7
100
AcDbPolyline
 90
5
 70
1
 10
36.174801
 20
78.654342
 30
0.0
 10
36.174801
 20
64.804321
 30
0.0
 10
50.024822
 20
64.804321
 30
0.0
 10
50.024822
 20
78.654342
 30
0.0
 10
36.174801
 20
78.654342
 30
0.0
  0
LWPOLYLINE
  5
132
100
AcDbEntity
  8
0
 62
7
100
AcDbPolyline
 90
5
 70
1
 10
169.525526
 20
78.654342
 30
0.0
 10
169.525526
 20
64.804321
 30
0.0
 10
183.375547
 20
64.804321
 30
0.0
 10
183.375547
 20
78.654342
 30
0.0
 10
169.525526
 20
78.654342
 30
0.0
  0
LWPOLYLINE
  5
133
100
AcDbEntity
  8
0
 62
7
100
AcDbPolyline
 90
5
 70
1
 10
131.425621
 20
78.654342
 30
0.0
 10
131.425621
 20
64.804321
 30
0.0
 10
145.275642
 20
64.804321
 30
0.0
 10
145.275642
 20
78.654342
 30
0.0
 10
131.425621
 20
78.654342
 30
0.0
  0
LWPOLYLINE
  5
134
100
AcDbEntity
  8
0
 62
7
100
AcDbPolyline
 90
5
 70
1
 10
112.374611
 20
78.654342
 30
0.0
 10
112.374611
 20
64.804321
 30
0.0
 10
126.224632
 20
64.804321
 30
0.0
 10
126.224632
 20
78.654342
 30
0.0
 10
112.374611
 20
78.654342
 30
0.0
  0
LWPOLYLINE
  5
135
100
AcDbEntity
  8
0
 62
7
100
AcDbPolyline
 90
5
 70
1
 10
188.575479
 20
78.654342
 30
0.0
 10
188.575479
 20
64.804321
 30
0.0
 10
202.425499
 20
64.804321
 30
0.0
 10
202.425499
 20
78.654342
 30
0.0
 10
188.575479
 20
78.654342
 30
0.0
  0
LWPOLYLINE
  5
136
100
AcDbEntity
  8
0
 62
7
100
AcDbPolyline
 90
21
 70
1
 10
29.802945
 20
74.456297
 30
0.0
 10
29.106916
 20
74.101403
 30
0.0
 10
28.553056
 20
73.548249
 30
0.0
 10
28.198868
 20
72.851162
 30
0.0
 10
28.076808
 20
72.077169
 30
0.0
 10
28.198868
 20
71.306352
 30
0.0
 10
28.553056
 20
70.609265
 30
0.0
 10
29.106916
 20
70.056110
 30
0.0
 10
29.802945
 20
69.701217
 30
0.0
 10
30.576937
 20
69.577392
 30
0.0
 10
31.348813
 20
69.701217
 30
0.0
 10
32.045900
 20
70.056110
 30
0.0
 10
32.596938
 20
70.609265
 30
0.0
 10
32.953948
 20
71.306352
 30
0.0
 10
33.076009
 20
72.077169
 30
0.0
 10
32.953948
 20
72.851162
 30
0.0
 10
32.596938
 20
73.548249
 30
0.0
 10
32.045900
 20
74.101403
 30
0.0
 10
31.348813
 20
74.456297
 30
0.0
 10
30.576937
 20
74.578357
 30
0.0
 10
29.802945
 20
74.456297
 30
0.0
  0
LWPOLYLINE
  5
137
100
AcDbEntity
  8
0
 62
7
100
AcDbPolyline
 90
13
 70
1
 10
281.902606
 20
83.854273
 30
0.0
 10
281.902606
 20
82.809348
 30
0.0
 10
285.187665
 20
82.809348
 30
0.0
 10
285.187665
 20
83.854273
 30
0.0
 10
288.149227
 20
83.854273
 30
0.0
 10
288.149227
 20
97.704294
 30
0.0
 10
255.249254
 20
97.704294
 30
0.0
 10
255.249254
 20
83.854273
 30
0.0
 10
258.210816
 20
83.854273
 30
0.0
 10
258.210816
 20
82.809348
 30
0.0
 10
261.495874
 20
82.809348
 30
0.0
 10
261.495874
 20
83.854273
 30
0.0
 10
281.902606
 20
83.854273
 30
0.0
  0
LWPOLYLINE
  5
138
100
AcDbEntity
  8
0
 62
7
100
AcDbPolyline
 90
5
 70
1
 10
26.650883
 20
97.704294
 30
0.0
 10
26.650883
 20
83.854273
 30
0.0
 10
40.500904
 20
83.854273
 30
0.0
 10
40.500904
 20
97.704294
 30
0.0
 10
26.650883
 20
97.704294
 30
0.0
  0
LWPOLYLINE
  5
139
100
AcDbEntity
  8
0
 62
7
100
AcDbPolyline
 90
5
 70
1
 10
7.600931
 20
97.704294
 30
0.0
 10
7.600931
 20
83.854273
 30
0.0
 10
21.450952
 20
83.854273
 30
0.0
 10
21.450952
 20
97.704294
 30
0.0
 10
7.600931
 20
97.704294
 30
0.0
  0
LWPOLYLINE
  5
13a
100
AcDbEntity
  8
0
 62
7
100
AcDbPolyline
 90
5
 70
1
 10
198.099396
 20
97.704294
 30
0.0
 10
198.099396
 20
83.854273
 30
0.0
 10
211.949417
 20
83.854273
 30
0.0
 10
211.949417
 20
97.704294
 30
0.0
 10
198.099396
 20
97.704294
 30
0.0
  0
LWPOLYLINE
  5
13b
100
AcDbEntity
  8
0
 62
7
100
AcDbPolyline
 90
5
 70
1
 10
45.700836
 20
97.704294
 30
0.0
 10
45.700836
 20
83.854273
 30
0.0
 10
59.550857
 20
83.854273
 30
0.0
 10
59.550857
 20
97.704294
 30
0.0
 10
45.700836
 20
97.704294
 30
0.0
  0
LWPOLYLINE
  5
13c
100
AcDbEntity
  8
0
 62
7
100
AcDbPolyline
 90
5
 70
1
 10
140.950598
 20
97.704294
 30
0.0
 10
140.950598
 20
83.854273
 30
0.0
 10
154.800619
 20
83.854273
 30
0.0
 10
154.800619
 20
97.704294
 30
0.0
 10
140.950598
 20
97.704294
 30
0.0
  0
LWPOLYLINE
  5
13d
100
AcDbEntity
  8
0
 62
7
100
AcDbPolyline
 90
5
 70
1
 10
64.749730
 20
97.704294
 30
0.0
 10
64.749730
 20
83.854273
 30
0.0
 10
78.599751
 20
83.854273
 30
0.0
 10
78.599751
 20
97.704294
 30
0.0
 10
64.749730
 20
97.704294
 30
0.0
  0
LWPOLYLINE
  5
13e
100
AcDbEntity
  8
0
 62
7
100
AcDbPolyline
 90
5
 70
1
 10
83.800740
 20
97.704294
 30
0.0
 10
83.800740
 20
83.854273
 30
0.0
 10
97.650761
 20
83.854273
 30
0.0
 10
97.650761
 20
97.704294
 30
0.0
 10
83.800740
 20
97.704294
 30
0.0
  0
LWPOLYLINE
  5
13f
100
AcDbEntity
  8
0
 62
7
100
AcDbPolyline
 90
5
 70
1
 10
102.850693
 20
97.704294
 30
0.0
 10
102.850693
 20
83.854273
 30
0.0
 10
116.700714
 20
83.854273
 30
0.0
 10
116.700714
 20
97.704294
 30
0.0
 10
102.850693
 20
97.704294
 30
0.0
  0
LWPOLYLINE
  5
140
100
AcDbEntity
  8
0
 62
7
100
AcDbPolyline
 90
5
 70
1
 10
121.900645
 20
97.704294
 30
0.0
 10
121.900645
 20
83.854273
 30
0.0
 10
135.750666
 20
83.854273
 30
0.0
 10
135.750666
 20
97.704294
 30
0.0
 10
121.900645
 20
97.704294
 30
0.0
  0
LWPOLYLINE
  5
141
100
AcDbEntity
  8
0
 62
7
100
AcDbPolyline
 90
5
 70
1
 10
179.050502
 20
97.704294
 30
0.0
 10
179.050502
 20
83.854273
 30
0.0
 10
192.900523
 20
83.854273
 30
0.0
 10
192.900523
 20
97.704294
 30
0.0
 10
179.050502
 20
97.704294
 30
0.0
  0
LWPOLYLINE
  5
142
100
AcDbEntity
  8
0
 62
7
100
AcDbPolyline
 90
5
 70
1
 10
217.150407
 20
97.704294
 30
0.0
 10
217.150407
 20
83.854273
 30
0.0
 10
231.000428
 20
83.854273
 30
0.0
 10
231.000428
 20
97.704294
 30
0.0
 10
217.150407
 20
97.704294
 30
0.0
  0
LWPOLYLINE
  5
143
100
AcDbEntity
  8
0
 62
7
100
AcDbPolyline
 90
5
 70
1
 10
236.200359
 20
97.704294
 30
0.0
 10
236.200359
 20
83.854273
 30
0.0
 10
250.050380
 20
83.854273
 30
0.0
 10
250.050380
 20
97.704294
 30
0.0
 10
236.200359
 20
97.704294
 30
0.0
  0
LWPOLYLINE
  5
144
100
AcDbEntity
  8
0
 62
7
100
AcDbPolyline
 90
5
 70
1
 10
159.999492
 20
97.704294
 30
0.0
 10
159.999492
 20
83.854273
 30
0.0
 10
173.849513
 20
83.854273
 30
0.0
 10
173.849513
 20
97.704294
 30
0.0
 10
159.999492
 20
97.704294
 30
0.0
  0
ENDSEC
  0
SECTION
  2
OBJECTS
  0
DICTIONARY
  5
C
330
0
100
AcDbDictionary
  3
ACAD_GROUP
350
D
  3
ACAD_MLINESTYLE
350
17
  0
DICTIONARY
  5
D
330
C
100
AcDbDictionary
  0
DICTIONARY
  5
1A
330
C
100
AcDbDictionary
  0
DICTIONARY
  5
17
330
C
100
AcDbDictionary
  3
STANDARD
350
18
  0
DICTIONARY
  5
19
330
C
100
AcDbDictionary
  0
ENDSEC
  0
EOF
