<?xml version="1.0" encoding="UTF-8" standalone="no"?>
<!DOCTYPE svg PUBLIC "-//W3C//DTD SVG 1.1//EN" "http://www.w3.org/Graphics/SVG/1.1/DTD/svg11.dtd">
<svg width="100%" height="100%" viewBox="0 0 1118 398" version="1.1" xmlns="http://www.w3.org/2000/svg" xmlns:xlink="http://www.w3.org/1999/xlink" xml:space="preserve" xmlns:serif="http://www.serif.com/" style="fill-rule:evenodd;clip-rule:evenodd;stroke-linecap:round;stroke-linejoin:round;">
    <g transform="matrix(1.33333,0,0,1.33333,0,0)">
        <path d="M817.977,14.635L818.419,14.652L818.861,14.703L819.298,14.791L819.731,14.91L820.145,15.066L820.548,15.25L820.936,15.469L821.307,15.715L821.656,15.993L821.985,16.294L822.285,16.622L822.566,16.971L822.81,17.342L823.028,17.731L823.212,18.133L823.368,18.55L823.487,18.981L823.575,19.417L823.629,19.86L823.646,20.305L823.646,168.168L813.722,168.168L811.531,168.514L809.558,169.52L807.99,171.088L806.984,173.064L806.638,175.252L806.984,177.446L807.99,179.419L809.558,180.989L811.531,181.996L813.722,182.341L823.646,182.341L823.646,278.05L823.629,278.49L823.575,278.932L823.487,279.369L823.368,279.799L823.212,280.219L823.028,280.619L822.81,281.007L822.566,281.378L822.285,281.73L821.985,282.059L821.656,282.356L821.307,282.634L820.936,282.881L820.548,283.099L820.145,283.283L819.731,283.442L819.298,283.561L818.861,283.646L818.419,283.697L817.977,283.714L20.378,283.72L19.933,283.697L19.491,283.646L19.054,283.561L18.624,283.442L18.207,283.283L17.804,283.099L17.416,282.881L17.045,282.634L16.696,282.356L16.367,282.059L16.067,281.73L15.789,281.378L15.542,281.007L15.324,280.619L15.14,280.219L14.984,279.799L14.865,279.369L14.777,278.932L14.726,278.49L14.706,278.05L14.706,182.341L24.63,182.341L26.821,181.996L28.794,180.989L30.362,179.419L31.368,177.446L31.717,175.255L31.368,173.064L30.362,171.088L28.794,169.52L26.821,168.514L24.633,168.168L14.706,168.168L14.709,20.305L14.726,19.86L14.777,19.417L14.865,18.981L14.984,18.55L15.14,18.133L15.324,17.731L15.542,17.342L15.789,16.971L16.067,16.622L16.367,16.294L16.696,15.993L17.045,15.715L17.416,15.469L17.804,15.25L18.207,15.066L18.624,14.91L19.054,14.791L19.491,14.703L19.933,14.652L20.378,14.632L817.977,14.635ZM809.258,236.395L772.408,236.395L772.408,277.016L809.258,277.016L809.258,236.395ZM438.803,276.803L438.803,263.614L443.338,263.614L443.338,272.678L462.471,272.678L462.471,263.614L464.812,263.614L464.812,255.756L462.471,255.756L462.471,238.161L457.581,238.161L457.581,234.794L448.227,234.794L448.227,238.161L443.338,238.161L443.338,250.705L438.803,250.705L438.803,237.516L399.543,237.516L399.543,250.705L395.011,250.705L395.011,238.161L390.119,238.161L390.119,234.794L380.768,234.794L380.768,238.161L375.878,238.161L375.878,255.756L373.537,255.756L373.537,263.614L375.878,263.614L375.878,272.678L395.011,272.678L395.011,263.614L399.543,263.614L399.543,276.803L438.803,276.803ZM533.307,276.803L533.307,237.543L487.295,237.543L487.295,276.803L533.307,276.803ZM229.552,276.803L229.552,237.543L183.543,237.543L183.543,276.803L229.552,276.803ZM162.057,276.803L162.057,237.543L116.048,237.543L116.048,276.803L162.057,276.803ZM702.057,276.803L702.057,237.543L649.295,237.543L649.295,276.803L702.057,276.803ZM607.552,276.803L607.552,237.543L554.748,237.543L554.748,249.707L553.226,249.947L551.264,250.945L549.708,252.493L548.711,254.45L548.365,256.615L548.711,258.783L549.708,260.735L551.264,262.288L553.226,263.281L554.748,263.522L554.748,276.803L607.552,276.803ZM81.057,276.803L81.057,237.543L21.546,237.543L21.546,276.803L81.057,276.803ZM324.054,276.803L324.054,263.614L328.589,263.614L328.589,272.678L347.722,272.678L347.722,263.614L350.063,263.614L350.063,255.756L347.722,255.756L347.722,238.161L342.832,238.161L342.832,234.794L333.478,234.794L333.478,238.161L328.589,238.161L328.589,250.705L324.054,250.705L324.054,237.516L284.794,237.516L284.794,250.705L280.262,250.705L280.262,238.161L275.37,238.161L275.37,234.794L266.016,234.794L266.016,238.161L261.129,238.161L261.129,255.756L258.788,255.756L258.788,263.614L261.129,263.614L261.129,272.678L280.262,272.678L280.262,263.614L284.794,263.614L284.794,276.803L324.054,276.803ZM736.499,248.743C741.193,248.743 745.003,252.553 745.003,257.247C745.003,261.94 741.193,265.751 736.499,265.751C731.806,265.751 727.995,261.94 727.995,257.247C727.995,252.553 731.806,248.743 736.499,248.743ZM129.546,183.543L129.546,222.803L168.806,222.803L168.806,183.543L129.546,183.543ZM345.546,183.543L345.546,222.803L384.806,222.803L384.806,183.543L345.546,183.543ZM183.543,183.543L183.543,222.803L222.803,222.803L222.803,183.543L183.543,183.543ZM237.546,183.543L237.546,222.803L276.806,222.803L276.806,183.543L237.546,183.543ZM291.546,183.543L291.546,222.803L330.806,222.803L330.806,183.543L291.546,183.543ZM87.809,222.803L87.809,209.611L92.341,209.611L92.341,218.678L111.475,218.678L111.475,209.611L113.814,209.611L113.814,201.756L111.475,201.756L111.475,184.161L106.586,184.161L106.586,180.794L97.231,180.794L97.231,184.161L92.341,184.161L92.341,196.705L87.809,196.705L87.809,183.516L48.549,183.516L48.549,196.705L44.011,196.705L44.011,184.161L39.124,184.161L39.124,180.794L29.769,180.794L29.769,184.161L24.877,184.161L24.877,201.756L22.538,201.756L22.538,209.611L24.877,209.611L24.877,218.678L44.011,218.678L44.011,209.611L48.549,209.611L48.549,222.803L87.809,222.803ZM675.057,222.803L675.057,183.543L615.546,183.543L615.546,222.803L675.057,222.803ZM507.546,183.543L507.546,222.803L546.806,222.803L546.806,183.543L507.546,183.543ZM399.546,183.543L399.546,222.803L438.806,222.803L438.806,183.543L399.546,183.543ZM453.543,183.543L453.543,222.803L492.803,222.803L492.803,183.543L453.543,183.543ZM749.305,222.803L749.305,183.543L689.794,183.543L689.794,222.803L749.305,222.803ZM561.543,183.543L561.543,222.803L600.803,222.803L600.803,183.543L561.543,183.543ZM810.054,222.803L810.054,183.543L764.045,183.543L764.045,222.803L810.054,222.803ZM35.048,129.546L35.048,168.806L74.307,168.806L74.307,129.546L35.048,129.546ZM264.546,129.546L264.546,168.806L303.806,168.806L303.806,129.546L264.546,129.546ZM480.546,129.546L480.546,168.806L519.806,168.806L519.806,129.546L480.546,129.546ZM210.546,129.546L210.546,168.806L249.806,168.806L249.806,129.546L210.546,129.546ZM318.543,129.546L318.543,168.806L357.803,168.806L357.803,129.546L318.543,129.546ZM426.543,129.546L426.543,168.806L465.803,168.806L465.803,129.546L426.543,129.546ZM156.546,129.546L156.546,168.806L195.806,168.806L195.806,129.546L156.546,129.546ZM588.543,129.546L588.543,168.806L627.803,168.806L627.803,129.546L588.543,129.546ZM372.742,129.546L372.742,146.175L372.315,147.008L371.982,149.179L372.315,151.341L372.742,152.179L372.742,168.806L411.593,168.806L411.593,129.546L372.742,129.546ZM534.546,129.546L534.546,168.806L573.806,168.806L573.806,129.546L534.546,129.546ZM102.543,129.546L102.543,168.806L141.803,168.806L141.803,129.546L102.543,129.546ZM667.012,129.519L667.012,126.797L657.686,126.797L657.686,129.519L642.546,129.519L642.546,168.806L715.781,168.806L715.781,164.681L730.064,164.681L730.064,168.806L803.305,168.806L803.305,129.519L788.159,129.519L788.159,126.797L778.833,126.797L778.833,129.519L734.299,129.519L734.299,126.797L724.969,126.797L724.969,130.167L720.876,130.167L720.876,126.797L711.546,126.797L711.546,129.519L667.012,129.519ZM820.936,150L814,150L814,159L820.936,159L820.936,150ZM820.936,128L814,128L814,137L820.936,137L820.936,128ZM816.803,115.016L816.803,75.331L642.546,75.331L642.546,115.016L816.803,115.016ZM588.543,75.543L588.543,114.803L627.803,114.803L627.803,75.543L588.543,75.543ZM35.048,75.543L35.048,114.803L74.307,114.803L74.307,75.543L35.048,75.543ZM156.546,75.543L156.546,114.803L195.806,114.803L195.806,75.543L156.546,75.543ZM426.543,75.543L426.543,114.803L465.803,114.803L465.803,75.543L426.543,75.543ZM264.546,75.543L264.546,114.803L303.806,114.803L303.806,75.543L264.546,75.543ZM210.546,75.543L210.546,114.803L249.806,114.803L249.806,75.543L210.546,75.543ZM102.543,75.543L102.543,114.803L141.803,114.803L141.803,75.543L102.543,75.543ZM480.546,75.543L480.546,114.803L519.806,114.803L519.806,75.543L480.546,75.543ZM372.546,75.543L372.546,114.803L411.806,114.803L411.806,75.543L372.546,75.543ZM318.543,75.543L318.543,114.803L357.803,114.803L357.803,75.543L318.543,75.543ZM534.546,75.543L534.546,114.803L573.806,114.803L573.806,75.543L534.546,75.543ZM84.481,87.443L82.508,88.449L80.938,90.017L79.934,91.993L79.588,94.187L79.934,96.372L80.938,98.348L82.508,99.916L84.481,100.922L86.675,101.273L88.863,100.922L90.839,99.916L92.401,98.348L93.413,96.372L93.759,94.187L93.413,91.993L92.401,90.017L90.839,88.449L88.863,87.443L86.675,87.097L84.481,87.443ZM799.096,60.803L799.096,63.765L808.408,63.765L808.408,60.803L816.803,60.803L816.803,21.543L723.543,21.543L723.543,60.803L731.938,60.803L731.938,63.765L741.25,63.765L741.25,60.803L799.096,60.803ZM75.546,21.543L75.546,60.803L114.806,60.803L114.806,21.543L75.546,21.543ZM21.546,21.543L21.546,60.803L60.806,60.803L60.806,21.543L21.546,21.543ZM561.543,21.543L561.543,60.803L600.803,60.803L600.803,21.543L561.543,21.543ZM129.546,21.543L129.546,60.803L168.806,60.803L168.806,21.543L129.546,21.543ZM399.546,21.543L399.546,60.803L438.806,60.803L438.806,21.543L399.546,21.543ZM183.543,21.543L183.543,60.803L222.803,60.803L222.803,21.543L183.543,21.543ZM237.546,21.543L237.546,60.803L276.806,60.803L276.806,21.543L237.546,21.543ZM291.546,21.543L291.546,60.803L330.806,60.803L330.806,21.543L291.546,21.543ZM345.546,21.543L345.546,60.803L384.806,60.803L384.806,21.543L345.546,21.543ZM507.546,21.543L507.546,60.803L546.806,60.803L546.806,21.543L507.546,21.543ZM615.546,21.543L615.546,60.803L654.806,60.803L654.806,21.543L615.546,21.543ZM669.546,21.543L669.546,60.803L708.806,60.803L708.806,21.543L669.546,21.543ZM453.543,21.543L453.543,60.803L492.803,60.803L492.803,21.543L453.543,21.543Z" style="fill:rgb(156,156,156);stroke:black;stroke-width:1.13px;"/>
    </g>
</svg>
