%TF.GenerationSoftware,KiCad,Pcbnew,(5.1.6-0-10_14)*%
%TF.CreationDate,2020-08-10T19:33:14+09:00*%
%TF.ProjectId,keyplate,6b657970-6c61-4746-952e-6b696361645f,rev?*%
%TF.SameCoordinates,Original*%
%TF.FileFunction,Legend,Bot*%
%TF.FilePolarity,Positive*%
%FSLAX46Y46*%
G04 Gerber Fmt 4.6, Leading zero omitted, Abs format (unit mm)*
G04 Created by KiCad (PCBNEW (5.1.6-0-10_14)) date 2020-08-10 19:33:14*
%MOMM*%
%LPD*%
G01*
G04 APERTURE LIST*
%ADD10C,0.300000*%
G04 APERTURE END LIST*
D10*
X38371428Y-54596428D02*
X37300000Y-54596428D01*
X37085714Y-54667857D01*
X36942857Y-54810714D01*
X36871428Y-55025000D01*
X36871428Y-55167857D01*
X36871428Y-53667857D02*
X36942857Y-53810714D01*
X37014285Y-53882142D01*
X37157142Y-53953571D01*
X37585714Y-53953571D01*
X37728571Y-53882142D01*
X37800000Y-53810714D01*
X37871428Y-53667857D01*
X37871428Y-53453571D01*
X37800000Y-53310714D01*
X37728571Y-53239285D01*
X37585714Y-53167857D01*
X37157142Y-53167857D01*
X37014285Y-53239285D01*
X36942857Y-53310714D01*
X36871428Y-53453571D01*
X36871428Y-53667857D01*
X37871428Y-52525000D02*
X36871428Y-52525000D01*
X37728571Y-52525000D02*
X37800000Y-52453571D01*
X37871428Y-52310714D01*
X37871428Y-52096428D01*
X37800000Y-51953571D01*
X37657142Y-51882142D01*
X36871428Y-51882142D01*
X36942857Y-50596428D02*
X36871428Y-50739285D01*
X36871428Y-51025000D01*
X36942857Y-51167857D01*
X37085714Y-51239285D01*
X37657142Y-51239285D01*
X37800000Y-51167857D01*
X37871428Y-51025000D01*
X37871428Y-50739285D01*
X37800000Y-50596428D01*
X37657142Y-50525000D01*
X37514285Y-50525000D01*
X37371428Y-51239285D01*
X36942857Y-49953571D02*
X36871428Y-49810714D01*
X36871428Y-49525000D01*
X36942857Y-49382142D01*
X37085714Y-49310714D01*
X37157142Y-49310714D01*
X37300000Y-49382142D01*
X37371428Y-49525000D01*
X37371428Y-49739285D01*
X37442857Y-49882142D01*
X37585714Y-49953571D01*
X37657142Y-49953571D01*
X37800000Y-49882142D01*
X37871428Y-49739285D01*
X37871428Y-49525000D01*
X37800000Y-49382142D01*
X36871428Y-47525000D02*
X38371428Y-47525000D01*
X36871428Y-46667857D02*
X37728571Y-47310714D01*
X38371428Y-46667857D02*
X37514285Y-47525000D01*
X36942857Y-45453571D02*
X36871428Y-45596428D01*
X36871428Y-45882142D01*
X36942857Y-46025000D01*
X37085714Y-46096428D01*
X37657142Y-46096428D01*
X37800000Y-46025000D01*
X37871428Y-45882142D01*
X37871428Y-45596428D01*
X37800000Y-45453571D01*
X37657142Y-45382142D01*
X37514285Y-45382142D01*
X37371428Y-46096428D01*
X37871428Y-44882142D02*
X36871428Y-44525000D01*
X37871428Y-44167857D02*
X36871428Y-44525000D01*
X36514285Y-44667857D01*
X36442857Y-44739285D01*
X36371428Y-44882142D01*
X37871428Y-43596428D02*
X36371428Y-43596428D01*
X37800000Y-43596428D02*
X37871428Y-43453571D01*
X37871428Y-43167857D01*
X37800000Y-43025000D01*
X37728571Y-42953571D01*
X37585714Y-42882142D01*
X37157142Y-42882142D01*
X37014285Y-42953571D01*
X36942857Y-43025000D01*
X36871428Y-43167857D01*
X36871428Y-43453571D01*
X36942857Y-43596428D01*
X36871428Y-42025000D02*
X36942857Y-42167857D01*
X37085714Y-42239285D01*
X38371428Y-42239285D01*
X36871428Y-40810714D02*
X37657142Y-40810714D01*
X37800000Y-40882142D01*
X37871428Y-41025000D01*
X37871428Y-41310714D01*
X37800000Y-41453571D01*
X36942857Y-40810714D02*
X36871428Y-40953571D01*
X36871428Y-41310714D01*
X36942857Y-41453571D01*
X37085714Y-41525000D01*
X37228571Y-41525000D01*
X37371428Y-41453571D01*
X37442857Y-41310714D01*
X37442857Y-40953571D01*
X37514285Y-40810714D01*
X37871428Y-40310714D02*
X37871428Y-39739285D01*
X38371428Y-40096428D02*
X37085714Y-40096428D01*
X36942857Y-40025000D01*
X36871428Y-39882142D01*
X36871428Y-39739285D01*
X36942857Y-38667857D02*
X36871428Y-38810714D01*
X36871428Y-39096428D01*
X36942857Y-39239285D01*
X37085714Y-39310714D01*
X37657142Y-39310714D01*
X37800000Y-39239285D01*
X37871428Y-39096428D01*
X37871428Y-38810714D01*
X37800000Y-38667857D01*
X37657142Y-38596428D01*
X37514285Y-38596428D01*
X37371428Y-39310714D01*
X37871428Y-36953571D02*
X36871428Y-36596428D01*
X37871428Y-36239285D01*
X37014285Y-35667857D02*
X36942857Y-35596428D01*
X36871428Y-35667857D01*
X36942857Y-35739285D01*
X37014285Y-35667857D01*
X36871428Y-35667857D01*
X38371428Y-34667857D02*
X38371428Y-34525000D01*
X38300000Y-34382142D01*
X38228571Y-34310714D01*
X38085714Y-34239285D01*
X37800000Y-34167857D01*
X37442857Y-34167857D01*
X37157142Y-34239285D01*
X37014285Y-34310714D01*
X36942857Y-34382142D01*
X36871428Y-34525000D01*
X36871428Y-34667857D01*
X36942857Y-34810714D01*
X37014285Y-34882142D01*
X37157142Y-34953571D01*
X37442857Y-35025000D01*
X37800000Y-35025000D01*
X38085714Y-34953571D01*
X38228571Y-34882142D01*
X38300000Y-34810714D01*
X38371428Y-34667857D01*
X37014285Y-33524999D02*
X36942857Y-33453571D01*
X36871428Y-33524999D01*
X36942857Y-33596428D01*
X37014285Y-33524999D01*
X36871428Y-33524999D01*
X38371428Y-32953571D02*
X38371428Y-32024999D01*
X37800000Y-32524999D01*
X37800000Y-32310714D01*
X37728571Y-32167857D01*
X37657142Y-32096428D01*
X37514285Y-32024999D01*
X37157142Y-32024999D01*
X37014285Y-32096428D01*
X36942857Y-32167857D01*
X36871428Y-32310714D01*
X36871428Y-32739285D01*
X36942857Y-32882142D01*
X37014285Y-32953571D01*
X37585714Y-29310714D02*
X37657142Y-29382142D01*
X37728571Y-29524999D01*
X37728571Y-29667857D01*
X37657142Y-29810714D01*
X37585714Y-29882142D01*
X37442857Y-29953571D01*
X37300000Y-29953571D01*
X37157142Y-29882142D01*
X37085714Y-29810714D01*
X37014285Y-29667857D01*
X37014285Y-29524999D01*
X37085714Y-29382142D01*
X37157142Y-29310714D01*
X37728571Y-29310714D02*
X37157142Y-29310714D01*
X37085714Y-29239285D01*
X37085714Y-29167857D01*
X37157142Y-29024999D01*
X37300000Y-28953571D01*
X37657142Y-28953571D01*
X37871428Y-29096428D01*
X38014285Y-29310714D01*
X38085714Y-29596428D01*
X38014285Y-29882142D01*
X37871428Y-30096428D01*
X37657142Y-30239285D01*
X37371428Y-30310714D01*
X37085714Y-30239285D01*
X36871428Y-30096428D01*
X36728571Y-29882142D01*
X36657142Y-29596428D01*
X36728571Y-29310714D01*
X36871428Y-29096428D01*
X37871428Y-28310714D02*
X36585714Y-28310714D01*
X36442857Y-28382142D01*
X36371428Y-28524999D01*
X36371428Y-28596428D01*
X38371428Y-28310714D02*
X38300000Y-28382142D01*
X38228571Y-28310714D01*
X38300000Y-28239285D01*
X38371428Y-28310714D01*
X38228571Y-28310714D01*
X37871428Y-27596428D02*
X36371428Y-27596428D01*
X37800000Y-27596428D02*
X37871428Y-27453571D01*
X37871428Y-27167857D01*
X37800000Y-27024999D01*
X37728571Y-26953571D01*
X37585714Y-26882142D01*
X37157142Y-26882142D01*
X37014285Y-26953571D01*
X36942857Y-27024999D01*
X36871428Y-27167857D01*
X36871428Y-27453571D01*
X36942857Y-27596428D01*
X36942857Y-26310714D02*
X36871428Y-26167857D01*
X36871428Y-25882142D01*
X36942857Y-25739285D01*
X37085714Y-25667857D01*
X37157142Y-25667857D01*
X37300000Y-25739285D01*
X37371428Y-25882142D01*
X37371428Y-26096428D01*
X37442857Y-26239285D01*
X37585714Y-26310714D01*
X37657142Y-26310714D01*
X37800000Y-26239285D01*
X37871428Y-26096428D01*
X37871428Y-25882142D01*
X37800000Y-25739285D01*
X36871428Y-25024999D02*
X38371428Y-25024999D01*
X37442857Y-24882142D02*
X36871428Y-24453571D01*
X37871428Y-24453571D02*
X37300000Y-25024999D01*
X36942857Y-23239285D02*
X36871428Y-23382142D01*
X36871428Y-23667857D01*
X36942857Y-23810714D01*
X37085714Y-23882142D01*
X37657142Y-23882142D01*
X37800000Y-23810714D01*
X37871428Y-23667857D01*
X37871428Y-23382142D01*
X37800000Y-23239285D01*
X37657142Y-23167857D01*
X37514285Y-23167857D01*
X37371428Y-23882142D01*
X37871428Y-22524999D02*
X36871428Y-22524999D01*
X37728571Y-22524999D02*
X37800000Y-22453571D01*
X37871428Y-22310714D01*
X37871428Y-22096428D01*
X37800000Y-21953571D01*
X37657142Y-21882142D01*
X36871428Y-21882142D01*
X37871428Y-21167857D02*
X36871428Y-21167857D01*
X37728571Y-21167857D02*
X37800000Y-21096428D01*
X37871428Y-20953571D01*
X37871428Y-20739285D01*
X37800000Y-20596428D01*
X37657142Y-20524999D01*
X36871428Y-20524999D01*
M02*
