%TF.GenerationSoftware,KiCad,Pcbnew,(5.1.6-0-10_14)*%
%TF.CreationDate,2020-09-14T20:18:27+09:00*%
%TF.ProjectId,keyplate,6b657970-6c61-4746-952e-6b696361645f,rev?*%
%TF.SameCoordinates,Original*%
%TF.FileFunction,Profile,NP*%
%FSLAX46Y46*%
G04 Gerber Fmt 4.6, Leading zero omitted, Abs format (unit mm)*
G04 Created by KiCad (PCBNEW (5.1.6-0-10_14)) date 2020-09-14 20:18:27*
%MOMM*%
%LPD*%
G01*
G04 APERTURE LIST*
%TA.AperFunction,Profile*%
%ADD10C,0.050000*%
%TD*%
%TA.AperFunction,Profile*%
%ADD11C,0.100000*%
%TD*%
G04 APERTURE END LIST*
D10*
X60159694Y-32906171D02*
X60283095Y-32903045D01*
X60283095Y-32903045D02*
X60404888Y-32893767D01*
X60404888Y-32893767D02*
X60524921Y-32878491D01*
X60524921Y-32878491D02*
X60643042Y-32857365D01*
X60643042Y-32857365D02*
X60759100Y-32830543D01*
X60759100Y-32830543D02*
X60872944Y-32798175D01*
X60872944Y-32798175D02*
X60984422Y-32760413D01*
X60984422Y-32760413D02*
X61093383Y-32717407D01*
X61093383Y-32717407D02*
X61199676Y-32669310D01*
X61199676Y-32669310D02*
X61303149Y-32616273D01*
X61303149Y-32616273D02*
X61403650Y-32558447D01*
X61403650Y-32558447D02*
X61501028Y-32495983D01*
X61501028Y-32495983D02*
X61595132Y-32429033D01*
X61595132Y-32429033D02*
X61685811Y-32357747D01*
X61685811Y-32357747D02*
X61772912Y-32282279D01*
X61772912Y-32282279D02*
X61856286Y-32202778D01*
X61856286Y-32202778D02*
X61935779Y-32119396D01*
X61935779Y-32119396D02*
X62011241Y-32032284D01*
X62011241Y-32032284D02*
X62082520Y-31941595D01*
X62082520Y-31941595D02*
X62149465Y-31847478D01*
X62149465Y-31847478D02*
X62211925Y-31750086D01*
X62211925Y-31750086D02*
X62269748Y-31649570D01*
X62269748Y-31649570D02*
X62322782Y-31546081D01*
X62322782Y-31546081D02*
X62370877Y-31439771D01*
X62370877Y-31439771D02*
X62413880Y-31330790D01*
X62413880Y-31330790D02*
X62451641Y-31219291D01*
X62451641Y-31219291D02*
X62484008Y-31105424D01*
X62484008Y-31105424D02*
X62510830Y-30989342D01*
X62510830Y-30989342D02*
X62531955Y-30871194D01*
X62531955Y-30871194D02*
X62547231Y-30751133D01*
X62547231Y-30751133D02*
X62556509Y-30629310D01*
X62556509Y-30629310D02*
X62559635Y-30505877D01*
D11*
X37131835Y-81499933D02*
X37131835Y-94499762D01*
X37131835Y-94499762D02*
X37142071Y-94600056D01*
X37142071Y-94600056D02*
X37181465Y-94715845D01*
X37181465Y-94715845D02*
X37246621Y-94817206D01*
X37246621Y-94817206D02*
X37333477Y-94900087D01*
X37333477Y-94900087D02*
X37437973Y-94960433D01*
X37437973Y-94960433D02*
X37556047Y-94994192D01*
X37556047Y-94994192D02*
X37631720Y-95000000D01*
X53013145Y-80999696D02*
X37631720Y-80999696D01*
X145438223Y-79500041D02*
X145438223Y-80999696D01*
X154319381Y-78999803D02*
X145938107Y-78999803D01*
X145938107Y-78999803D02*
X145837928Y-79010040D01*
X145837928Y-79010040D02*
X145722245Y-79049441D01*
X145722245Y-79049441D02*
X145620953Y-79114618D01*
X145620953Y-79114618D02*
X145538111Y-79201519D01*
X145538111Y-79201519D02*
X145477783Y-79306091D01*
X145477783Y-79306091D02*
X145444029Y-79424278D01*
X145444029Y-79424278D02*
X145438223Y-79500041D01*
X154819619Y-80999696D02*
X154819619Y-79500041D01*
X162043431Y-80999696D02*
X154819619Y-80999696D01*
X162043431Y-79500041D02*
X162043431Y-80999696D01*
X154819619Y-79500041D02*
X154809381Y-79399746D01*
X154809381Y-79399746D02*
X154769980Y-79283957D01*
X154769980Y-79283957D02*
X154704803Y-79182596D01*
X154704803Y-79182596D02*
X154617902Y-79099715D01*
X154617902Y-79099715D02*
X154513331Y-79039369D01*
X154513331Y-79039369D02*
X154395143Y-79005610D01*
X154395143Y-79005610D02*
X154319381Y-78999803D01*
X168543345Y-78999803D02*
X162543315Y-78999803D01*
X162543315Y-78999803D02*
X162443136Y-79010040D01*
X162443136Y-79010040D02*
X162327453Y-79049441D01*
X162327453Y-79049441D02*
X162226161Y-79114618D01*
X162226161Y-79114618D02*
X162143319Y-79201519D01*
X162143319Y-79201519D02*
X162082991Y-79306091D01*
X162082991Y-79306091D02*
X162049237Y-79424278D01*
X162049237Y-79424278D02*
X162043431Y-79500041D01*
X169043583Y-93499992D02*
X169043583Y-79500041D01*
X37631720Y-80999696D02*
X37531541Y-81009933D01*
X37531541Y-81009933D02*
X37415858Y-81049334D01*
X37415858Y-81049334D02*
X37314565Y-81114511D01*
X37314565Y-81114511D02*
X37231723Y-81201412D01*
X37231723Y-81201412D02*
X37171395Y-81305983D01*
X37171395Y-81305983D02*
X37137641Y-81424170D01*
X37137641Y-81424170D02*
X37131835Y-81499933D01*
X99544065Y-95000000D02*
X99544065Y-95000000D01*
X99044180Y-81499933D02*
X99044180Y-94499762D01*
X99044180Y-94499762D02*
X99054416Y-94600056D01*
X99054416Y-94600056D02*
X99093810Y-94715845D01*
X99093810Y-94715845D02*
X99158966Y-94817206D01*
X99158966Y-94817206D02*
X99245822Y-94900087D01*
X99245822Y-94900087D02*
X99350318Y-94960433D01*
X99350318Y-94960433D02*
X99468392Y-94994192D01*
X99468392Y-94994192D02*
X99544065Y-95000000D01*
X107312918Y-80999696D02*
X99544065Y-80999696D01*
X107312918Y-79500041D02*
X107312918Y-80999696D01*
X225250115Y-90219167D02*
X225250115Y-94499762D01*
X225250115Y-94499762D02*
X225260351Y-94600056D01*
X225260351Y-94600056D02*
X225299745Y-94715845D01*
X225299745Y-94715845D02*
X225364901Y-94817206D01*
X225364901Y-94817206D02*
X225451757Y-94900087D01*
X225451757Y-94900087D02*
X225556253Y-94960433D01*
X225556253Y-94960433D02*
X225674327Y-94994192D01*
X225674327Y-94994192D02*
X225750000Y-95000000D01*
X53013145Y-80999696D02*
X53013145Y-80999696D01*
X78112869Y-95000000D02*
X95875538Y-95000000D01*
X95875538Y-95000000D02*
X95975716Y-94989762D01*
X95975716Y-94989762D02*
X96091399Y-94950361D01*
X96091399Y-94950361D02*
X96192692Y-94885184D01*
X96192692Y-94885184D02*
X96275533Y-94798283D01*
X96275533Y-94798283D02*
X96335861Y-94693712D01*
X96335861Y-94693712D02*
X96369615Y-94575524D01*
X96369615Y-94575524D02*
X96375422Y-94499762D01*
X77612984Y-81499933D02*
X77612984Y-94499762D01*
X170981387Y-95000000D02*
X183981568Y-95000000D01*
X183981568Y-95000000D02*
X184081746Y-94989762D01*
X184081746Y-94989762D02*
X184197429Y-94950361D01*
X184197429Y-94950361D02*
X184298722Y-94885184D01*
X184298722Y-94885184D02*
X184381564Y-94798283D01*
X184381564Y-94798283D02*
X184441892Y-94693712D01*
X184441892Y-94693712D02*
X184475646Y-94575524D01*
X184475646Y-94575524D02*
X184481453Y-94499762D01*
X170481502Y-81499933D02*
X170481502Y-94499762D01*
X170481502Y-94499762D02*
X170491738Y-94600056D01*
X170491738Y-94600056D02*
X170531132Y-94715845D01*
X170531132Y-94715845D02*
X170596288Y-94817206D01*
X170596288Y-94817206D02*
X170683144Y-94900087D01*
X170683144Y-94900087D02*
X170787640Y-94960433D01*
X170787640Y-94960433D02*
X170905714Y-94994192D01*
X170905714Y-94994192D02*
X170981387Y-95000000D01*
X183981568Y-80999696D02*
X170981387Y-80999696D01*
X285281101Y-95000000D02*
X298281282Y-95000000D01*
X298281282Y-95000000D02*
X298381460Y-94989762D01*
X298381460Y-94989762D02*
X298497143Y-94950361D01*
X298497143Y-94950361D02*
X298598436Y-94885184D01*
X298598436Y-94885184D02*
X298681278Y-94798283D01*
X298681278Y-94798283D02*
X298741606Y-94693712D01*
X298741606Y-94693712D02*
X298775360Y-94575524D01*
X298775360Y-94575524D02*
X298781167Y-94499762D01*
X170981387Y-80999696D02*
X170881208Y-81009933D01*
X170881208Y-81009933D02*
X170765525Y-81049334D01*
X170765525Y-81049334D02*
X170664232Y-81114511D01*
X170664232Y-81114511D02*
X170581390Y-81201412D01*
X170581390Y-81201412D02*
X170521062Y-81305983D01*
X170521062Y-81305983D02*
X170487308Y-81424170D01*
X170487308Y-81424170D02*
X170481502Y-81499933D01*
X184481453Y-94499762D02*
X184481453Y-81499933D01*
X207812706Y-78999803D02*
X207712411Y-79010040D01*
X207712411Y-79010040D02*
X207596622Y-79049441D01*
X207596622Y-79049441D02*
X207495261Y-79114618D01*
X207495261Y-79114618D02*
X207412380Y-79201519D01*
X207412380Y-79201519D02*
X207352034Y-79306091D01*
X207352034Y-79306091D02*
X207318275Y-79424278D01*
X207318275Y-79424278D02*
X207312468Y-79500041D01*
X207312468Y-79500041D02*
X207312468Y-80999696D01*
X213812735Y-78999803D02*
X207812706Y-78999803D01*
X74444342Y-95000000D02*
X74544520Y-94989762D01*
X74544520Y-94989762D02*
X74660203Y-94950361D01*
X74660203Y-94950361D02*
X74761496Y-94885184D01*
X74761496Y-94885184D02*
X74844337Y-94798283D01*
X74844337Y-94798283D02*
X74904666Y-94693712D01*
X74904666Y-94693712D02*
X74938420Y-94575524D01*
X74938420Y-94575524D02*
X74944227Y-94499762D01*
X56181787Y-81499933D02*
X56181787Y-94499762D01*
X56181787Y-94499762D02*
X56192023Y-94600056D01*
X56192023Y-94600056D02*
X56231417Y-94715845D01*
X56231417Y-94715845D02*
X56296573Y-94817206D01*
X56296573Y-94817206D02*
X56383430Y-94900087D01*
X56383430Y-94900087D02*
X56487926Y-94960433D01*
X56487926Y-94960433D02*
X56605999Y-94994192D01*
X56605999Y-94994192D02*
X56681672Y-95000000D01*
X222977173Y-87822401D02*
X222980101Y-87941880D01*
X222980101Y-87941880D02*
X222988796Y-88059854D01*
X222988796Y-88059854D02*
X223003121Y-88176186D01*
X223003121Y-88176186D02*
X223022936Y-88290738D01*
X223022936Y-88290738D02*
X223048107Y-88403373D01*
X223048107Y-88403373D02*
X223078494Y-88513955D01*
X223078494Y-88513955D02*
X223113961Y-88622346D01*
X223113961Y-88622346D02*
X223154371Y-88728409D01*
X223154371Y-88728409D02*
X223199587Y-88832007D01*
X223199587Y-88832007D02*
X223249470Y-88933002D01*
X223249470Y-88933002D02*
X223303884Y-89031259D01*
X223303884Y-89031259D02*
X223362692Y-89126640D01*
X223362692Y-89126640D02*
X223425756Y-89219007D01*
X223425756Y-89219007D02*
X223492940Y-89308224D01*
X223492940Y-89308224D02*
X223564105Y-89394154D01*
X223564105Y-89394154D02*
X223639114Y-89476659D01*
X223639114Y-89476659D02*
X223717831Y-89555603D01*
X223717831Y-89555603D02*
X223800118Y-89630848D01*
X223800118Y-89630848D02*
X223885838Y-89702258D01*
X223885838Y-89702258D02*
X223974853Y-89769694D01*
X223974853Y-89769694D02*
X224067026Y-89833021D01*
X224067026Y-89833021D02*
X224162220Y-89892101D01*
X224162220Y-89892101D02*
X224260298Y-89946797D01*
X224260298Y-89946797D02*
X224361122Y-89996972D01*
X224361122Y-89996972D02*
X224464555Y-90042489D01*
X224464555Y-90042489D02*
X224570461Y-90083211D01*
X224570461Y-90083211D02*
X224678700Y-90119000D01*
X224678700Y-90119000D02*
X224789138Y-90149720D01*
X224789138Y-90149720D02*
X224901635Y-90175234D01*
X224901635Y-90175234D02*
X225016055Y-90195405D01*
X225016055Y-90195405D02*
X225132261Y-90210094D01*
X225132261Y-90210094D02*
X225250115Y-90219167D01*
X225250115Y-85425635D02*
X225132261Y-85434707D01*
X225132261Y-85434707D02*
X225016055Y-85449396D01*
X225016055Y-85449396D02*
X224901635Y-85469567D01*
X224901635Y-85469567D02*
X224789138Y-85495081D01*
X224789138Y-85495081D02*
X224678700Y-85525801D01*
X224678700Y-85525801D02*
X224570461Y-85561590D01*
X224570461Y-85561590D02*
X224464555Y-85602312D01*
X224464555Y-85602312D02*
X224361122Y-85647829D01*
X224361122Y-85647829D02*
X224260298Y-85698004D01*
X224260298Y-85698004D02*
X224162220Y-85752700D01*
X224162220Y-85752700D02*
X224067026Y-85811780D01*
X224067026Y-85811780D02*
X223974853Y-85875107D01*
X223974853Y-85875107D02*
X223885838Y-85942543D01*
X223885838Y-85942543D02*
X223800118Y-86013953D01*
X223800118Y-86013953D02*
X223717831Y-86089198D01*
X223717831Y-86089198D02*
X223639114Y-86168142D01*
X223639114Y-86168142D02*
X223564105Y-86250647D01*
X223564105Y-86250647D02*
X223492940Y-86336577D01*
X223492940Y-86336577D02*
X223425756Y-86425794D01*
X223425756Y-86425794D02*
X223362692Y-86518161D01*
X223362692Y-86518161D02*
X223303884Y-86613542D01*
X223303884Y-86613542D02*
X223249470Y-86711799D01*
X223249470Y-86711799D02*
X223199587Y-86812794D01*
X223199587Y-86812794D02*
X223154371Y-86916392D01*
X223154371Y-86916392D02*
X223113961Y-87022455D01*
X223113961Y-87022455D02*
X223078494Y-87130846D01*
X223078494Y-87130846D02*
X223048107Y-87241428D01*
X223048107Y-87241428D02*
X223022936Y-87354063D01*
X223022936Y-87354063D02*
X223003121Y-87468615D01*
X223003121Y-87468615D02*
X222988796Y-87584947D01*
X222988796Y-87584947D02*
X222980101Y-87702921D01*
X222980101Y-87702921D02*
X222977173Y-87822401D01*
X53513030Y-94499762D02*
X53513030Y-81499933D01*
X53513030Y-81499933D02*
X53502793Y-81399638D01*
X53502793Y-81399638D02*
X53463399Y-81283849D01*
X53463399Y-81283849D02*
X53398243Y-81182488D01*
X53398243Y-81182488D02*
X53311387Y-81099608D01*
X53311387Y-81099608D02*
X53206891Y-81039262D01*
X53206891Y-81039262D02*
X53088817Y-81005503D01*
X53088817Y-81005503D02*
X53013145Y-80999696D01*
X37631720Y-95000000D02*
X53013145Y-95000000D01*
X53013145Y-95000000D02*
X53113323Y-94989762D01*
X53113323Y-94989762D02*
X53229006Y-94950361D01*
X53229006Y-94950361D02*
X53330299Y-94885184D01*
X53330299Y-94885184D02*
X53413141Y-94798283D01*
X53413141Y-94798283D02*
X53473469Y-94693712D01*
X53473469Y-94693712D02*
X53507223Y-94575524D01*
X53507223Y-94575524D02*
X53513030Y-94499762D01*
X74944227Y-81499933D02*
X74933990Y-81399638D01*
X74933990Y-81399638D02*
X74894596Y-81283849D01*
X74894596Y-81283849D02*
X74829440Y-81182488D01*
X74829440Y-81182488D02*
X74742583Y-81099608D01*
X74742583Y-81099608D02*
X74638087Y-81039262D01*
X74638087Y-81039262D02*
X74520014Y-81005503D01*
X74520014Y-81005503D02*
X74444342Y-80999696D01*
X56681672Y-95000000D02*
X74444342Y-95000000D01*
X77612984Y-94499762D02*
X77623220Y-94600056D01*
X77623220Y-94600056D02*
X77662614Y-94715845D01*
X77662614Y-94715845D02*
X77727770Y-94817206D01*
X77727770Y-94817206D02*
X77814626Y-94900087D01*
X77814626Y-94900087D02*
X77919122Y-94960433D01*
X77919122Y-94960433D02*
X78037196Y-94994192D01*
X78037196Y-94994192D02*
X78112869Y-95000000D01*
X95875538Y-80999696D02*
X78112869Y-80999696D01*
X115425375Y-81499933D02*
X115415138Y-81399638D01*
X115415138Y-81399638D02*
X115375744Y-81283849D01*
X115375744Y-81283849D02*
X115310589Y-81182488D01*
X115310589Y-81182488D02*
X115223732Y-81099608D01*
X115223732Y-81099608D02*
X115119236Y-81039262D01*
X115119236Y-81039262D02*
X115001163Y-81005503D01*
X115001163Y-81005503D02*
X114925491Y-80999696D01*
X99544065Y-95000000D02*
X114925491Y-95000000D01*
X114925491Y-95000000D02*
X115025669Y-94989762D01*
X115025669Y-94989762D02*
X115141352Y-94950361D01*
X115141352Y-94950361D02*
X115242644Y-94885184D01*
X115242644Y-94885184D02*
X115325486Y-94798283D01*
X115325486Y-94798283D02*
X115385814Y-94693712D01*
X115385814Y-94693712D02*
X115419568Y-94575524D01*
X115419568Y-94575524D02*
X115425375Y-94499762D01*
X184481453Y-94499762D02*
X184481453Y-94499762D01*
X169043583Y-79500041D02*
X169033345Y-79399746D01*
X169033345Y-79399746D02*
X168993944Y-79283957D01*
X168993944Y-79283957D02*
X168928767Y-79182596D01*
X168928767Y-79182596D02*
X168841866Y-79099715D01*
X168841866Y-79099715D02*
X168737295Y-79039369D01*
X168737295Y-79039369D02*
X168619107Y-79005610D01*
X168619107Y-79005610D02*
X168543345Y-78999803D01*
X167812744Y-93999877D02*
X168543345Y-93999877D01*
X167812744Y-94499762D02*
X167812744Y-93999877D01*
X168543345Y-93999877D02*
X168643639Y-93989640D01*
X168643639Y-93989640D02*
X168759428Y-93950246D01*
X168759428Y-93950246D02*
X168860789Y-93885090D01*
X168860789Y-93885090D02*
X168943670Y-93798234D01*
X168943670Y-93798234D02*
X169004016Y-93693738D01*
X169004016Y-93693738D02*
X169037775Y-93575664D01*
X169037775Y-93575664D02*
X169043583Y-93499992D01*
X154312678Y-95000000D02*
X167312860Y-95000000D01*
X184481453Y-81499933D02*
X184471216Y-81399638D01*
X184471216Y-81399638D02*
X184431822Y-81283849D01*
X184431822Y-81283849D02*
X184366666Y-81182488D01*
X184366666Y-81182488D02*
X184279810Y-81099608D01*
X184279810Y-81099608D02*
X184175314Y-81039262D01*
X184175314Y-81039262D02*
X184057240Y-81005503D01*
X184057240Y-81005503D02*
X183981568Y-80999696D01*
X298781167Y-94499762D02*
X298781167Y-94499762D01*
X298781167Y-81499933D02*
X298770930Y-81399638D01*
X298770930Y-81399638D02*
X298731536Y-81283849D01*
X298731536Y-81283849D02*
X298666380Y-81182488D01*
X298666380Y-81182488D02*
X298579524Y-81099608D01*
X298579524Y-81099608D02*
X298475028Y-81039262D01*
X298475028Y-81039262D02*
X298356954Y-81005503D01*
X298356954Y-81005503D02*
X298281282Y-80999696D01*
X95875538Y-80999696D02*
X95875538Y-80999696D01*
X96375422Y-94499762D02*
X96375422Y-81499933D01*
X96375422Y-81499933D02*
X96365185Y-81399638D01*
X96365185Y-81399638D02*
X96325791Y-81283849D01*
X96325791Y-81283849D02*
X96260636Y-81182488D01*
X96260636Y-81182488D02*
X96173780Y-81099608D01*
X96173780Y-81099608D02*
X96069284Y-81039262D01*
X96069284Y-81039262D02*
X95951210Y-81005503D01*
X95951210Y-81005503D02*
X95875538Y-80999696D01*
X284781216Y-81499933D02*
X284781216Y-94499762D01*
X284781216Y-94499762D02*
X284791452Y-94600056D01*
X284791452Y-94600056D02*
X284830846Y-94715845D01*
X284830846Y-94715845D02*
X284896002Y-94817206D01*
X284896002Y-94817206D02*
X284982858Y-94900087D01*
X284982858Y-94900087D02*
X285087354Y-94960433D01*
X285087354Y-94960433D02*
X285205428Y-94994192D01*
X285205428Y-94994192D02*
X285281101Y-95000000D01*
X298281282Y-80999696D02*
X285281101Y-80999696D01*
X285281101Y-80999696D02*
X285180922Y-81009933D01*
X285180922Y-81009933D02*
X285065239Y-81049334D01*
X285065239Y-81049334D02*
X284963946Y-81114511D01*
X284963946Y-81114511D02*
X284881104Y-81201412D01*
X284881104Y-81201412D02*
X284820776Y-81305983D01*
X284820776Y-81305983D02*
X284787022Y-81424170D01*
X284787022Y-81424170D02*
X284781216Y-81499933D01*
X298781167Y-94499762D02*
X298781167Y-81499933D01*
X74444342Y-80999696D02*
X56681672Y-80999696D01*
X56681672Y-80999696D02*
X56581493Y-81009933D01*
X56581493Y-81009933D02*
X56465810Y-81049334D01*
X56465810Y-81049334D02*
X56364517Y-81114511D01*
X56364517Y-81114511D02*
X56281676Y-81201412D01*
X56281676Y-81201412D02*
X56221347Y-81305983D01*
X56221347Y-81305983D02*
X56187593Y-81424170D01*
X56187593Y-81424170D02*
X56181787Y-81499933D01*
X145438223Y-80999696D02*
X145438223Y-80999696D01*
X78112869Y-80999696D02*
X78012690Y-81009933D01*
X78012690Y-81009933D02*
X77897007Y-81049334D01*
X77897007Y-81049334D02*
X77795714Y-81114511D01*
X77795714Y-81114511D02*
X77712872Y-81201412D01*
X77712872Y-81201412D02*
X77652544Y-81305983D01*
X77652544Y-81305983D02*
X77618790Y-81424170D01*
X77618790Y-81424170D02*
X77612984Y-81499933D01*
X74444342Y-80999696D02*
X74444342Y-80999696D01*
X74944227Y-94499762D02*
X74944227Y-81499933D01*
X238750181Y-95000000D02*
X238850359Y-94989762D01*
X238850359Y-94989762D02*
X238966042Y-94950361D01*
X238966042Y-94950361D02*
X239067335Y-94885184D01*
X239067335Y-94885184D02*
X239150177Y-94798283D01*
X239150177Y-94798283D02*
X239210505Y-94693712D01*
X239210505Y-94693712D02*
X239244259Y-94575524D01*
X239244259Y-94575524D02*
X239250066Y-94499762D01*
X99544065Y-80999696D02*
X99443886Y-81009933D01*
X99443886Y-81009933D02*
X99328203Y-81049334D01*
X99328203Y-81049334D02*
X99226910Y-81114511D01*
X99226910Y-81114511D02*
X99144068Y-81201412D01*
X99144068Y-81201412D02*
X99083740Y-81305983D01*
X99083740Y-81305983D02*
X99049986Y-81424170D01*
X99049986Y-81424170D02*
X99044180Y-81499933D01*
X113812832Y-78999803D02*
X107812803Y-78999803D01*
X107812803Y-78999803D02*
X107712624Y-79010040D01*
X107712624Y-79010040D02*
X107596941Y-79049441D01*
X107596941Y-79049441D02*
X107495648Y-79114618D01*
X107495648Y-79114618D02*
X107412806Y-79201519D01*
X107412806Y-79201519D02*
X107352478Y-79306091D01*
X107352478Y-79306091D02*
X107318724Y-79424278D01*
X107318724Y-79424278D02*
X107312918Y-79500041D01*
X114312717Y-80999696D02*
X114312717Y-79500041D01*
X114925491Y-80999696D02*
X114312717Y-80999696D01*
X114312717Y-79500041D02*
X114302494Y-79399746D01*
X114302494Y-79399746D02*
X114263146Y-79283957D01*
X114263146Y-79283957D02*
X114198045Y-79182596D01*
X114198045Y-79182596D02*
X114111226Y-79099715D01*
X114111226Y-79099715D02*
X114006727Y-79039369D01*
X114006727Y-79039369D02*
X113888585Y-79005610D01*
X113888585Y-79005610D02*
X113812832Y-78999803D01*
X115425375Y-94499762D02*
X115425375Y-81499933D01*
X167312860Y-95000000D02*
X167413038Y-94989762D01*
X167413038Y-94989762D02*
X167528721Y-94950361D01*
X167528721Y-94950361D02*
X167630013Y-94885184D01*
X167630013Y-94885184D02*
X167712855Y-94798283D01*
X167712855Y-94798283D02*
X167773183Y-94693712D01*
X167773183Y-94693712D02*
X167806937Y-94575524D01*
X167806937Y-94575524D02*
X167812744Y-94499762D01*
X153812793Y-93999877D02*
X153812793Y-94499762D01*
X146381548Y-93999877D02*
X153812793Y-93999877D01*
X146381548Y-94499762D02*
X146381548Y-93999877D01*
X153812793Y-94499762D02*
X153823029Y-94600056D01*
X153823029Y-94600056D02*
X153862423Y-94715845D01*
X153862423Y-94715845D02*
X153927579Y-94817206D01*
X153927579Y-94817206D02*
X154014436Y-94900087D01*
X154014436Y-94900087D02*
X154118932Y-94960433D01*
X154118932Y-94960433D02*
X154237005Y-94994192D01*
X154237005Y-94994192D02*
X154312678Y-95000000D01*
X130500238Y-95000000D02*
X145881663Y-95000000D01*
X214937741Y-95000000D02*
X215037919Y-94989762D01*
X215037919Y-94989762D02*
X215153602Y-94950361D01*
X215153602Y-94950361D02*
X215254894Y-94885184D01*
X215254894Y-94885184D02*
X215337736Y-94798283D01*
X215337736Y-94798283D02*
X215398064Y-94693712D01*
X215398064Y-94693712D02*
X215431818Y-94575524D01*
X215431818Y-94575524D02*
X215437625Y-94499762D01*
X214312620Y-79500041D02*
X214302383Y-79399746D01*
X214302383Y-79399746D02*
X214262989Y-79283957D01*
X214262989Y-79283957D02*
X214197833Y-79182596D01*
X214197833Y-79182596D02*
X214110977Y-79099715D01*
X214110977Y-79099715D02*
X214006481Y-79039369D01*
X214006481Y-79039369D02*
X213888407Y-79005610D01*
X213888407Y-79005610D02*
X213812735Y-78999803D01*
X215437625Y-94499762D02*
X215437625Y-81499933D01*
X214312620Y-80999696D02*
X214312620Y-79500041D01*
X214937741Y-80999696D02*
X214312620Y-80999696D01*
X145881663Y-95000000D02*
X145981841Y-94989762D01*
X145981841Y-94989762D02*
X146097524Y-94950361D01*
X146097524Y-94950361D02*
X146198817Y-94885184D01*
X146198817Y-94885184D02*
X146281659Y-94798283D01*
X146281659Y-94798283D02*
X146341987Y-94693712D01*
X146341987Y-94693712D02*
X146375741Y-94575524D01*
X146375741Y-94575524D02*
X146381548Y-94499762D01*
X130000353Y-93999877D02*
X130000353Y-94499762D01*
X122062167Y-93999877D02*
X130000353Y-93999877D01*
X201437674Y-94499762D02*
X201447910Y-94600056D01*
X201447910Y-94600056D02*
X201487304Y-94715845D01*
X201487304Y-94715845D02*
X201552460Y-94817206D01*
X201552460Y-94817206D02*
X201639316Y-94900087D01*
X201639316Y-94900087D02*
X201743812Y-94960433D01*
X201743812Y-94960433D02*
X201861886Y-94994192D01*
X201861886Y-94994192D02*
X201937559Y-95000000D01*
X130000353Y-94499762D02*
X130010589Y-94600056D01*
X130010589Y-94600056D02*
X130049983Y-94715845D01*
X130049983Y-94715845D02*
X130115139Y-94817206D01*
X130115139Y-94817206D02*
X130201995Y-94900087D01*
X130201995Y-94900087D02*
X130306491Y-94960433D01*
X130306491Y-94960433D02*
X130424565Y-94994192D01*
X130424565Y-94994192D02*
X130500238Y-95000000D01*
X201937559Y-80999696D02*
X201837380Y-81009933D01*
X201837380Y-81009933D02*
X201721697Y-81049334D01*
X201721697Y-81049334D02*
X201620404Y-81114511D01*
X201620404Y-81114511D02*
X201537562Y-81201412D01*
X201537562Y-81201412D02*
X201477234Y-81305983D01*
X201477234Y-81305983D02*
X201443480Y-81424170D01*
X201443480Y-81424170D02*
X201437674Y-81499933D01*
X201437674Y-81499933D02*
X201437674Y-94499762D01*
X215437625Y-81499933D02*
X215427388Y-81399638D01*
X215427388Y-81399638D02*
X215387994Y-81283849D01*
X215387994Y-81283849D02*
X215322839Y-81182488D01*
X215322839Y-81182488D02*
X215235982Y-81099608D01*
X215235982Y-81099608D02*
X215131486Y-81039262D01*
X215131486Y-81039262D02*
X215013413Y-81005503D01*
X215013413Y-81005503D02*
X214937741Y-80999696D01*
X201937559Y-95000000D02*
X214937741Y-95000000D01*
X130943678Y-79500041D02*
X130933440Y-79399746D01*
X130933440Y-79399746D02*
X130894039Y-79283957D01*
X130894039Y-79283957D02*
X130828862Y-79182596D01*
X130828862Y-79182596D02*
X130741961Y-79099715D01*
X130741961Y-79099715D02*
X130637390Y-79039369D01*
X130637390Y-79039369D02*
X130519203Y-79005610D01*
X130519203Y-79005610D02*
X130443441Y-78999803D01*
X207312468Y-80999696D02*
X207312468Y-80999696D01*
X207312468Y-80999696D02*
X201937559Y-80999696D01*
X121562282Y-79500041D02*
X121562282Y-93499992D01*
X121562282Y-93499992D02*
X121572518Y-93600170D01*
X121572518Y-93600170D02*
X121611912Y-93715853D01*
X121611912Y-93715853D02*
X121677068Y-93817146D01*
X121677068Y-93817146D02*
X121763925Y-93899988D01*
X121763925Y-93899988D02*
X121868421Y-93960316D01*
X121868421Y-93960316D02*
X121986494Y-93994070D01*
X121986494Y-93994070D02*
X122062167Y-93999877D01*
X130443441Y-78999803D02*
X122062167Y-78999803D01*
X122062167Y-78999803D02*
X121961988Y-79010040D01*
X121961988Y-79010040D02*
X121846305Y-79049441D01*
X121846305Y-79049441D02*
X121745012Y-79114618D01*
X121745012Y-79114618D02*
X121662171Y-79201519D01*
X121662171Y-79201519D02*
X121601842Y-79306091D01*
X121601842Y-79306091D02*
X121568088Y-79424278D01*
X121568088Y-79424278D02*
X121562282Y-79500041D01*
X130943678Y-80999696D02*
X130943678Y-79500041D01*
X145438223Y-80999696D02*
X130943678Y-80999696D01*
X266231148Y-75950047D02*
X266231148Y-75950047D01*
X265731264Y-62449981D02*
X265731264Y-75449810D01*
X265731264Y-75449810D02*
X265741500Y-75550104D01*
X265741500Y-75550104D02*
X265780894Y-75665893D01*
X265780894Y-75665893D02*
X265846049Y-75767254D01*
X265846049Y-75767254D02*
X265932906Y-75850134D01*
X265932906Y-75850134D02*
X266037402Y-75910480D01*
X266037402Y-75910480D02*
X266155475Y-75944239D01*
X266155475Y-75944239D02*
X266231148Y-75950047D01*
X314281126Y-61949743D02*
X266231148Y-61949743D01*
X314281126Y-56900095D02*
X314281126Y-61949743D01*
X285281101Y-56900095D02*
X314281126Y-56900095D01*
X266231148Y-61949743D02*
X266130969Y-61959980D01*
X266130969Y-61959980D02*
X266015286Y-61999381D01*
X266015286Y-61999381D02*
X265913994Y-62064558D01*
X265913994Y-62064558D02*
X265831152Y-62151459D01*
X265831152Y-62151459D02*
X265770824Y-62256031D01*
X265770824Y-62256031D02*
X265737070Y-62374218D01*
X265737070Y-62374218D02*
X265731264Y-62449981D01*
X284781216Y-55899972D02*
X284781216Y-56399857D01*
X284050262Y-55899972D02*
X284781216Y-55899972D01*
X284781216Y-56399857D02*
X284791452Y-56500151D01*
X284791452Y-56500151D02*
X284830846Y-56615940D01*
X284830846Y-56615940D02*
X284896002Y-56717301D01*
X284896002Y-56717301D02*
X284982858Y-56800182D01*
X284982858Y-56800182D02*
X285087354Y-56860528D01*
X285087354Y-56860528D02*
X285205428Y-56894287D01*
X285205428Y-56894287D02*
X285281101Y-56900095D01*
X283550377Y-41400136D02*
X283550377Y-55400087D01*
X283550377Y-55400087D02*
X283560613Y-55500265D01*
X283560613Y-55500265D02*
X283600007Y-55615948D01*
X283600007Y-55615948D02*
X283665163Y-55717241D01*
X283665163Y-55717241D02*
X283752020Y-55800083D01*
X283752020Y-55800083D02*
X283856516Y-55860411D01*
X283856516Y-55860411D02*
X283974589Y-55894165D01*
X283974589Y-55894165D02*
X284050262Y-55899972D01*
X290050292Y-40899899D02*
X284050262Y-40899899D01*
X284050262Y-40899899D02*
X283950083Y-40910136D01*
X283950083Y-40910136D02*
X283834400Y-40949537D01*
X283834400Y-40949537D02*
X283733107Y-41014714D01*
X283733107Y-41014714D02*
X283650266Y-41101615D01*
X283650266Y-41101615D02*
X283589937Y-41206186D01*
X283589937Y-41206186D02*
X283556183Y-41324373D01*
X283556183Y-41324373D02*
X283550377Y-41400136D01*
X290550529Y-42899791D02*
X290550529Y-41400136D01*
X315449875Y-42899791D02*
X290550529Y-42899791D01*
X290550529Y-41400136D02*
X290540291Y-41299841D01*
X290540291Y-41299841D02*
X290500890Y-41184052D01*
X290500890Y-41184052D02*
X290435713Y-41082691D01*
X290435713Y-41082691D02*
X290348812Y-40999811D01*
X290348812Y-40999811D02*
X290244241Y-40939465D01*
X290244241Y-40939465D02*
X290126054Y-40905706D01*
X290126054Y-40905706D02*
X290050292Y-40899899D01*
X318212471Y-51269070D02*
X318212471Y-41322173D01*
X315449875Y-41322173D02*
X315449875Y-41441221D01*
X315449875Y-41441221D02*
X315449875Y-41566501D01*
X315449875Y-41566501D02*
X315449875Y-41696095D01*
X315449875Y-41696095D02*
X315449875Y-41828082D01*
X315449875Y-41828082D02*
X315449875Y-41960542D01*
X315449875Y-41960542D02*
X315449875Y-42091556D01*
X315449875Y-42091556D02*
X315449875Y-42219204D01*
X315449875Y-42219204D02*
X315449875Y-42341565D01*
X315449875Y-42341565D02*
X315449875Y-42456721D01*
X315449875Y-42456721D02*
X315449875Y-42562752D01*
X315449875Y-42562752D02*
X315449875Y-42700487D01*
X315449875Y-42700487D02*
X315449875Y-42806892D01*
X315449875Y-42806892D02*
X315449875Y-42899791D01*
X315596278Y-40968690D02*
X315527147Y-41055123D01*
X315527147Y-41055123D02*
X315479112Y-41153622D01*
X315479112Y-41153622D02*
X315453681Y-41260514D01*
X315453681Y-41260514D02*
X315449875Y-41322173D01*
X315949760Y-40822288D02*
X315839793Y-40834510D01*
X315839793Y-40834510D02*
X315736178Y-40870173D01*
X315736178Y-40870173D02*
X315642588Y-40927769D01*
X315642588Y-40927769D02*
X315596278Y-40968690D01*
X317712234Y-40822288D02*
X317565217Y-40822288D01*
X317565217Y-40822288D02*
X317460764Y-40822288D01*
X317460764Y-40822288D02*
X317352059Y-40822288D01*
X317352059Y-40822288D02*
X317239875Y-40822288D01*
X317239875Y-40822288D02*
X317124985Y-40822288D01*
X317124985Y-40822288D02*
X317008163Y-40822288D01*
X317008163Y-40822288D02*
X316890181Y-40822288D01*
X316890181Y-40822288D02*
X316771812Y-40822288D01*
X316771812Y-40822288D02*
X316653830Y-40822288D01*
X316653830Y-40822288D02*
X316537008Y-40822288D01*
X316537008Y-40822288D02*
X316422118Y-40822288D01*
X316422118Y-40822288D02*
X316309934Y-40822288D01*
X316309934Y-40822288D02*
X316201229Y-40822288D01*
X316201229Y-40822288D02*
X316096776Y-40822288D01*
X316096776Y-40822288D02*
X315949760Y-40822288D01*
X318065716Y-40968690D02*
X317979436Y-40899559D01*
X317979436Y-40899559D02*
X317880897Y-40851525D01*
X317880897Y-40851525D02*
X317773914Y-40826094D01*
X317773914Y-40826094D02*
X317712234Y-40822288D01*
X318212471Y-41322173D02*
X318200180Y-41212206D01*
X318200180Y-41212206D02*
X318164376Y-41108591D01*
X318164376Y-41108591D02*
X318106659Y-41015000D01*
X318106659Y-41015000D02*
X318065716Y-40968690D01*
X317831119Y-51650069D02*
X317831472Y-51650069D01*
X318100641Y-51538239D02*
X318163004Y-51456510D01*
X318163004Y-51456510D02*
X318200958Y-51361853D01*
X318200958Y-51361853D02*
X318212471Y-51269070D01*
X317831472Y-51650069D02*
X317933255Y-51636170D01*
X317933255Y-51636170D02*
X318026956Y-51595909D01*
X318026956Y-51595909D02*
X318100641Y-51538239D01*
X304331053Y-18800190D02*
X319659209Y-18800190D01*
X317831119Y-56105288D02*
X317831119Y-55981825D01*
X317831119Y-55981825D02*
X317831119Y-55847941D01*
X317831119Y-55847941D02*
X317831119Y-55704575D01*
X317831119Y-55704575D02*
X317831119Y-55552668D01*
X317831119Y-55552668D02*
X317831119Y-55393161D01*
X317831119Y-55393161D02*
X317831119Y-55226993D01*
X317831119Y-55226993D02*
X317831119Y-55055106D01*
X317831119Y-55055106D02*
X317831119Y-54878440D01*
X317831119Y-54878440D02*
X317831119Y-54697935D01*
X317831119Y-54697935D02*
X317831119Y-54514533D01*
X317831119Y-54514533D02*
X317831119Y-54329173D01*
X317831119Y-54329173D02*
X317831119Y-54142795D01*
X317831119Y-54142795D02*
X317831119Y-53956342D01*
X317831119Y-53956342D02*
X317831119Y-53770752D01*
X317831119Y-53770752D02*
X317831119Y-53586967D01*
X317831119Y-53586967D02*
X317831119Y-53405927D01*
X317831119Y-53405927D02*
X317831119Y-53228573D01*
X317831119Y-53228573D02*
X317831119Y-53055844D01*
X317831119Y-53055844D02*
X317831119Y-52888683D01*
X317831119Y-52888683D02*
X317831119Y-52728028D01*
X317831119Y-52728028D02*
X317831119Y-52574821D01*
X317831119Y-52574821D02*
X317831119Y-52430002D01*
X317831119Y-52430002D02*
X317831119Y-52294511D01*
X317831119Y-52294511D02*
X317831119Y-52169290D01*
X317831119Y-52169290D02*
X317831119Y-52055278D01*
X317831119Y-52055278D02*
X317831119Y-51953417D01*
X317831119Y-51953417D02*
X317831119Y-51789906D01*
X317831119Y-51789906D02*
X317831119Y-51686282D01*
X317831119Y-51686282D02*
X317831119Y-51650069D01*
X318331004Y-56605173D02*
X318230218Y-56595023D01*
X318230218Y-56595023D02*
X318114219Y-56555903D01*
X318114219Y-56555903D02*
X318012970Y-56491070D01*
X318012970Y-56491070D02*
X317930385Y-56404439D01*
X317930385Y-56404439D02*
X317870382Y-56299927D01*
X317870382Y-56299927D02*
X317836875Y-56181449D01*
X317836875Y-56181449D02*
X317831119Y-56105288D01*
X319659209Y-56605173D02*
X319545136Y-56605173D01*
X319545136Y-56605173D02*
X319424580Y-56605173D01*
X319424580Y-56605173D02*
X319299035Y-56605173D01*
X319299035Y-56605173D02*
X319169999Y-56605173D01*
X319169999Y-56605173D02*
X319038968Y-56605173D01*
X319038968Y-56605173D02*
X318907438Y-56605173D01*
X318907438Y-56605173D02*
X318776905Y-56605173D01*
X318776905Y-56605173D02*
X318648867Y-56605173D01*
X318648867Y-56605173D02*
X318524818Y-56605173D01*
X318524818Y-56605173D02*
X318406257Y-56605173D01*
X318406257Y-56605173D02*
X318331004Y-56605173D01*
X320159094Y-56105288D02*
X320148929Y-56206074D01*
X320148929Y-56206074D02*
X320109764Y-56322072D01*
X320109764Y-56322072D02*
X320044877Y-56423321D01*
X320044877Y-56423321D02*
X319958209Y-56505906D01*
X319958209Y-56505906D02*
X319853699Y-56565910D01*
X319853699Y-56565910D02*
X319735288Y-56599416D01*
X319735288Y-56599416D02*
X319659209Y-56605173D01*
X320159094Y-19300075D02*
X320159094Y-19757988D01*
X320159094Y-19757988D02*
X320159094Y-20349885D01*
X320159094Y-20349885D02*
X320159094Y-21066834D01*
X320159094Y-21066834D02*
X320159094Y-21899902D01*
X320159094Y-21899902D02*
X320159094Y-22840158D01*
X320159094Y-22840158D02*
X320159094Y-23878667D01*
X320159094Y-23878667D02*
X320159094Y-25006500D01*
X320159094Y-25006500D02*
X320159094Y-26214722D01*
X320159094Y-26214722D02*
X320159094Y-27494403D01*
X320159094Y-27494403D02*
X320159094Y-28836609D01*
X320159094Y-28836609D02*
X320159094Y-30232409D01*
X320159094Y-30232409D02*
X320159094Y-31672870D01*
X320159094Y-31672870D02*
X320159094Y-33149060D01*
X320159094Y-33149060D02*
X320159094Y-34652047D01*
X320159094Y-34652047D02*
X320159094Y-36172898D01*
X320159094Y-36172898D02*
X320159094Y-37702681D01*
X320159094Y-37702681D02*
X320159094Y-39232465D01*
X320159094Y-39232465D02*
X320159094Y-40753316D01*
X320159094Y-40753316D02*
X320159094Y-42256303D01*
X320159094Y-42256303D02*
X320159094Y-43732493D01*
X320159094Y-43732493D02*
X320159094Y-45172954D01*
X320159094Y-45172954D02*
X320159094Y-46568754D01*
X320159094Y-46568754D02*
X320159094Y-47910960D01*
X320159094Y-47910960D02*
X320159094Y-49190640D01*
X320159094Y-49190640D02*
X320159094Y-50398863D01*
X320159094Y-50398863D02*
X320159094Y-51526695D01*
X320159094Y-51526695D02*
X320159094Y-52565205D01*
X320159094Y-52565205D02*
X320159094Y-53505460D01*
X320159094Y-53505460D02*
X320159094Y-54338528D01*
X320159094Y-54338528D02*
X320159094Y-55055477D01*
X320159094Y-55055477D02*
X320159094Y-55647374D01*
X320159094Y-55647374D02*
X320159094Y-56105288D01*
X320012692Y-18946592D02*
X320081822Y-19032871D01*
X320081822Y-19032871D02*
X320129856Y-19131410D01*
X320129856Y-19131410D02*
X320155287Y-19238394D01*
X320155287Y-19238394D02*
X320159094Y-19300075D01*
X319659209Y-18800190D02*
X319769175Y-18812412D01*
X319769175Y-18812412D02*
X319872790Y-18848075D01*
X319872790Y-18848075D02*
X319966381Y-18905671D01*
X319966381Y-18905671D02*
X320012692Y-18946592D01*
X303831168Y-5300124D02*
X303831168Y-18299952D01*
X303831168Y-18299952D02*
X303841404Y-18400246D01*
X303841404Y-18400246D02*
X303880798Y-18516035D01*
X303880798Y-18516035D02*
X303945954Y-18617396D01*
X303945954Y-18617396D02*
X304032811Y-18700277D01*
X304032811Y-18700277D02*
X304137307Y-18760623D01*
X304137307Y-18760623D02*
X304255380Y-18794382D01*
X304255380Y-18794382D02*
X304331053Y-18800190D01*
X320159094Y-4442523D02*
X320159094Y-4442523D01*
X320153097Y-4285537D02*
X320159094Y-4442523D01*
X320134047Y-4129257D02*
X320153097Y-4285537D01*
X320103003Y-3975447D02*
X320134047Y-4129257D01*
X320061022Y-3823400D02*
X320103003Y-3975447D01*
X320005989Y-3676292D02*
X320061022Y-3823400D01*
X319941078Y-3534475D02*
X320005989Y-3676292D01*
X319864173Y-3397245D02*
X319941078Y-3534475D01*
X319778095Y-3266365D02*
X319864173Y-3397245D01*
X319678965Y-3143246D02*
X319778095Y-3266365D01*
X319573132Y-3027535D02*
X319678965Y-3143246D01*
X319457068Y-2921349D02*
X319573132Y-3027535D01*
X319333949Y-2823277D02*
X319457068Y-2921349D01*
X319203069Y-2736494D02*
X319333949Y-2823277D01*
X319066191Y-2659236D02*
X319203069Y-2736494D01*
X318924022Y-2594325D02*
X319066191Y-2659236D01*
X318777973Y-2539292D02*
X318924022Y-2594325D01*
X318625220Y-2497311D02*
X318777973Y-2539292D01*
X318471057Y-2466267D02*
X318625220Y-2497311D01*
X318315129Y-2448275D02*
X318471057Y-2466267D01*
X318159202Y-2442278D02*
X318315129Y-2448275D01*
X304331053Y-4799886D02*
X304230874Y-4810123D01*
X304230874Y-4810123D02*
X304115191Y-4849524D01*
X304115191Y-4849524D02*
X304013898Y-4914701D01*
X304013898Y-4914701D02*
X303931057Y-5001602D01*
X303931057Y-5001602D02*
X303870728Y-5106173D01*
X303870728Y-5106173D02*
X303836974Y-5224361D01*
X303836974Y-5224361D02*
X303831168Y-5300124D01*
X319801731Y-4799886D02*
X319550761Y-4799886D01*
X319550761Y-4799886D02*
X319241035Y-4799886D01*
X319241035Y-4799886D02*
X318876929Y-4799886D01*
X318876929Y-4799886D02*
X318462818Y-4799886D01*
X318462818Y-4799886D02*
X318003078Y-4799886D01*
X318003078Y-4799886D02*
X317502084Y-4799886D01*
X317502084Y-4799886D02*
X316964213Y-4799886D01*
X316964213Y-4799886D02*
X316393840Y-4799886D01*
X316393840Y-4799886D02*
X315795340Y-4799886D01*
X315795340Y-4799886D02*
X315173089Y-4799886D01*
X315173089Y-4799886D02*
X314531464Y-4799886D01*
X314531464Y-4799886D02*
X313874839Y-4799886D01*
X313874839Y-4799886D02*
X313207590Y-4799886D01*
X313207590Y-4799886D02*
X312534094Y-4799886D01*
X312534094Y-4799886D02*
X311858726Y-4799886D01*
X311858726Y-4799886D02*
X311185860Y-4799886D01*
X311185860Y-4799886D02*
X310519874Y-4799886D01*
X310519874Y-4799886D02*
X309865143Y-4799886D01*
X309865143Y-4799886D02*
X309226043Y-4799886D01*
X309226043Y-4799886D02*
X308606948Y-4799886D01*
X308606948Y-4799886D02*
X308012236Y-4799886D01*
X308012236Y-4799886D02*
X307446281Y-4799886D01*
X307446281Y-4799886D02*
X306913459Y-4799886D01*
X306913459Y-4799886D02*
X306418147Y-4799886D01*
X306418147Y-4799886D02*
X305964719Y-4799886D01*
X305964719Y-4799886D02*
X305557551Y-4799886D01*
X305557551Y-4799886D02*
X305201020Y-4799886D01*
X305201020Y-4799886D02*
X304899500Y-4799886D01*
X304899500Y-4799886D02*
X304657368Y-4799886D01*
X304657368Y-4799886D02*
X304478999Y-4799886D01*
X304478999Y-4799886D02*
X304368768Y-4799886D01*
X304368768Y-4799886D02*
X304331053Y-4799886D01*
X320159094Y-4442523D02*
X320143013Y-4548861D01*
X320143013Y-4548861D02*
X320098018Y-4642411D01*
X320098018Y-4642411D02*
X320028978Y-4718342D01*
X320028978Y-4718342D02*
X319940763Y-4771829D01*
X319940763Y-4771829D02*
X319838242Y-4798043D01*
X319838242Y-4798043D02*
X319801731Y-4799886D01*
X298781167Y-18299952D02*
X298781167Y-2941458D01*
X299281052Y-2441573D02*
X299602413Y-2441575D01*
X299602413Y-2441575D02*
X299993553Y-2441580D01*
X299993553Y-2441580D02*
X300449227Y-2441590D01*
X300449227Y-2441590D02*
X300964189Y-2441603D01*
X300964189Y-2441603D02*
X301533195Y-2441619D01*
X301533195Y-2441619D02*
X302150998Y-2441638D01*
X302150998Y-2441638D02*
X302812355Y-2441659D01*
X302812355Y-2441659D02*
X303512020Y-2441683D01*
X303512020Y-2441683D02*
X304244748Y-2441708D01*
X304244748Y-2441708D02*
X305005294Y-2441736D01*
X305005294Y-2441736D02*
X305788413Y-2441765D01*
X305788413Y-2441765D02*
X306588860Y-2441796D01*
X306588860Y-2441796D02*
X307401389Y-2441827D01*
X307401389Y-2441827D02*
X308220756Y-2441859D01*
X308220756Y-2441859D02*
X309041716Y-2441892D01*
X309041716Y-2441892D02*
X309859023Y-2441925D01*
X309859023Y-2441925D02*
X310667432Y-2441958D01*
X310667432Y-2441958D02*
X311461698Y-2441991D01*
X311461698Y-2441991D02*
X312236577Y-2442023D01*
X312236577Y-2442023D02*
X312986823Y-2442054D01*
X312986823Y-2442054D02*
X313707191Y-2442085D01*
X313707191Y-2442085D02*
X314392436Y-2442114D01*
X314392436Y-2442114D02*
X315037313Y-2442142D01*
X315037313Y-2442142D02*
X315636577Y-2442167D01*
X315636577Y-2442167D02*
X316184982Y-2442191D01*
X316184982Y-2442191D02*
X316677284Y-2442212D01*
X316677284Y-2442212D02*
X317108238Y-2442231D01*
X317108238Y-2442231D02*
X317472598Y-2442247D01*
X317472598Y-2442247D02*
X317765119Y-2442260D01*
X317765119Y-2442260D02*
X317980557Y-2442270D01*
X317980557Y-2442270D02*
X318113666Y-2442275D01*
X318113666Y-2442275D02*
X318159202Y-2442278D01*
X298927569Y-2587975D02*
X299014002Y-2518784D01*
X299014002Y-2518784D02*
X299112501Y-2470663D01*
X299112501Y-2470663D02*
X299219393Y-2445261D01*
X299219393Y-2445261D02*
X299281052Y-2441573D01*
X298781167Y-2941458D02*
X298793389Y-2831430D01*
X298793389Y-2831430D02*
X298829052Y-2727729D01*
X298829052Y-2727729D02*
X298886648Y-2634167D01*
X298886648Y-2634167D02*
X298927569Y-2587975D01*
X285281101Y-18800190D02*
X298281282Y-18800190D01*
X298281282Y-18800190D02*
X298381460Y-18789952D01*
X298381460Y-18789952D02*
X298497143Y-18750551D01*
X298497143Y-18750551D02*
X298598436Y-18685374D01*
X298598436Y-18685374D02*
X298681278Y-18598473D01*
X298681278Y-18598473D02*
X298741606Y-18493902D01*
X298741606Y-18493902D02*
X298775360Y-18375714D01*
X298775360Y-18375714D02*
X298781167Y-18299952D01*
X36627717Y-2448275D02*
X36784703Y-2441220D01*
X36471789Y-2466267D02*
X36627717Y-2448275D01*
X36317626Y-2497311D02*
X36471789Y-2466267D01*
X36165932Y-2539292D02*
X36317626Y-2497311D01*
X36018824Y-2594325D02*
X36165932Y-2539292D01*
X35876655Y-2659236D02*
X36018824Y-2594325D01*
X35739777Y-2736494D02*
X35876655Y-2659236D01*
X35608897Y-2823277D02*
X35739777Y-2736494D01*
X35485778Y-2921349D02*
X35608897Y-2823277D01*
X35369714Y-3027535D02*
X35485778Y-2921349D01*
X35263881Y-3143246D02*
X35369714Y-3027535D01*
X35165809Y-3266365D02*
X35263881Y-3143246D01*
X35078674Y-3397245D02*
X35165809Y-3266365D01*
X35001768Y-3534475D02*
X35078674Y-3397245D01*
X34936857Y-3676292D02*
X35001768Y-3534475D01*
X34881824Y-3823400D02*
X34936857Y-3676292D01*
X34839844Y-3975447D02*
X34881824Y-3823400D01*
X34808799Y-4129257D02*
X34839844Y-3975447D01*
X34790808Y-4285537D02*
X34808799Y-4129257D01*
X34784810Y-4442523D02*
X34790808Y-4285537D01*
X284781216Y-18299952D02*
X284791452Y-18400246D01*
X284791452Y-18400246D02*
X284830846Y-18516035D01*
X284830846Y-18516035D02*
X284896002Y-18617396D01*
X284896002Y-18617396D02*
X284982858Y-18700277D01*
X284982858Y-18700277D02*
X285087354Y-18760623D01*
X285087354Y-18760623D02*
X285205428Y-18794382D01*
X285205428Y-18794382D02*
X285281101Y-18800190D01*
X284781216Y-2942163D02*
X284781216Y-3223225D01*
X284781216Y-3223225D02*
X284781216Y-3558563D01*
X284781216Y-3558563D02*
X284781216Y-3944031D01*
X284781216Y-3944031D02*
X284781216Y-4375484D01*
X284781216Y-4375484D02*
X284781216Y-4848779D01*
X284781216Y-4848779D02*
X284781216Y-5359770D01*
X284781216Y-5359770D02*
X284781216Y-5904314D01*
X284781216Y-5904314D02*
X284781216Y-6478266D01*
X284781216Y-6478266D02*
X284781216Y-7077481D01*
X284781216Y-7077481D02*
X284781216Y-7697815D01*
X284781216Y-7697815D02*
X284781216Y-8335124D01*
X284781216Y-8335124D02*
X284781216Y-8985264D01*
X284781216Y-8985264D02*
X284781216Y-9644088D01*
X284781216Y-9644088D02*
X284781216Y-10307455D01*
X284781216Y-10307455D02*
X284781216Y-10971218D01*
X284781216Y-10971218D02*
X284781216Y-11631234D01*
X284781216Y-11631234D02*
X284781216Y-12283357D01*
X284781216Y-12283357D02*
X284781216Y-12923444D01*
X284781216Y-12923444D02*
X284781216Y-13547350D01*
X284781216Y-13547350D02*
X284781216Y-14150931D01*
X284781216Y-14150931D02*
X284781216Y-14730043D01*
X284781216Y-14730043D02*
X284781216Y-15280540D01*
X284781216Y-15280540D02*
X284781216Y-15798278D01*
X284781216Y-15798278D02*
X284781216Y-16279113D01*
X284781216Y-16279113D02*
X284781216Y-16718901D01*
X284781216Y-16718901D02*
X284781216Y-17113497D01*
X284781216Y-17113497D02*
X284781216Y-17458756D01*
X284781216Y-17458756D02*
X284781216Y-17750535D01*
X284781216Y-17750535D02*
X284781216Y-17984688D01*
X284781216Y-17984688D02*
X284781216Y-18157071D01*
X284781216Y-18157071D02*
X284781216Y-18263541D01*
X284781216Y-18263541D02*
X284781216Y-18299952D01*
X284281331Y-2442278D02*
X284382015Y-2452427D01*
X284382015Y-2452427D02*
X284497961Y-2491547D01*
X284497961Y-2491547D02*
X284599218Y-2556380D01*
X284599218Y-2556380D02*
X284681845Y-2643011D01*
X284681845Y-2643011D02*
X284741903Y-2747523D01*
X284741903Y-2747523D02*
X284775451Y-2866001D01*
X284775451Y-2866001D02*
X284781216Y-2942163D01*
X36784703Y-2441220D02*
X37459768Y-2441223D01*
X37459768Y-2441223D02*
X39429048Y-2441231D01*
X39429048Y-2441231D02*
X42608662Y-2441246D01*
X42608662Y-2441246D02*
X46914733Y-2441265D01*
X46914733Y-2441265D02*
X52263383Y-2441289D01*
X52263383Y-2441289D02*
X58570734Y-2441317D01*
X58570734Y-2441317D02*
X65752908Y-2441349D01*
X65752908Y-2441349D02*
X73726027Y-2441385D01*
X73726027Y-2441385D02*
X82406213Y-2441423D01*
X82406213Y-2441423D02*
X91709587Y-2441465D01*
X91709587Y-2441465D02*
X101552271Y-2441509D01*
X101552271Y-2441509D02*
X111850388Y-2441554D01*
X111850388Y-2441554D02*
X122520060Y-2441601D01*
X122520060Y-2441601D02*
X133477408Y-2441650D01*
X133477408Y-2441650D02*
X144638554Y-2441699D01*
X144638554Y-2441699D02*
X155919621Y-2441749D01*
X155919621Y-2441749D02*
X167236729Y-2441798D01*
X167236729Y-2441798D02*
X178506002Y-2441847D01*
X178506002Y-2441847D02*
X189643561Y-2441896D01*
X189643561Y-2441896D02*
X200565527Y-2441943D01*
X200565527Y-2441943D02*
X211188024Y-2441988D01*
X211188024Y-2441988D02*
X221427172Y-2442032D01*
X221427172Y-2442032D02*
X231199094Y-2442074D01*
X231199094Y-2442074D02*
X240419912Y-2442112D01*
X240419912Y-2442112D02*
X249005747Y-2442148D01*
X249005747Y-2442148D02*
X256872722Y-2442180D01*
X256872722Y-2442180D02*
X263936959Y-2442208D01*
X263936959Y-2442208D02*
X270114579Y-2442232D01*
X270114579Y-2442232D02*
X275321704Y-2442251D01*
X275321704Y-2442251D02*
X279474456Y-2442266D01*
X279474456Y-2442266D02*
X282488958Y-2442274D01*
X282488958Y-2442274D02*
X284281331Y-2442278D01*
X38285768Y-56605173D02*
X35283637Y-56605173D01*
X39057644Y-56727234D02*
X38285768Y-56605173D01*
X39753673Y-57082128D02*
X39057644Y-56727234D01*
X40306827Y-57635282D02*
X39753673Y-57082128D01*
X40661721Y-58332369D02*
X40306827Y-57635282D01*
X40784840Y-59105303D02*
X40661721Y-58332369D01*
X40661721Y-59878237D02*
X40784840Y-59105303D01*
X40306827Y-60574266D02*
X40661721Y-59878237D01*
X39753673Y-61128126D02*
X40306827Y-60574266D01*
X39057644Y-61483372D02*
X39753673Y-61128126D01*
X38284710Y-61605080D02*
X39057644Y-61483372D01*
X34783752Y-56105288D02*
X34783755Y-55487231D01*
X34783755Y-55487231D02*
X34783763Y-54645030D01*
X34783763Y-54645030D02*
X34783778Y-53594672D01*
X34783778Y-53594672D02*
X34783797Y-52352143D01*
X34783797Y-52352143D02*
X34783821Y-50933427D01*
X34783821Y-50933427D02*
X34783849Y-49354512D01*
X34783849Y-49354512D02*
X34783881Y-47631383D01*
X34783881Y-47631383D02*
X34783917Y-45780026D01*
X34783917Y-45780026D02*
X34783955Y-43816427D01*
X34783955Y-43816427D02*
X34783997Y-41756573D01*
X34783997Y-41756573D02*
X34784041Y-39616448D01*
X34784041Y-39616448D02*
X34784086Y-37412038D01*
X34784086Y-37412038D02*
X34784133Y-35159331D01*
X34784133Y-35159331D02*
X34784182Y-32874311D01*
X34784182Y-32874311D02*
X34784231Y-30572965D01*
X34784231Y-30572965D02*
X34784281Y-28271279D01*
X34784281Y-28271279D02*
X34784330Y-25985238D01*
X34784330Y-25985238D02*
X34784379Y-23730829D01*
X34784379Y-23730829D02*
X34784428Y-21524037D01*
X34784428Y-21524037D02*
X34784475Y-19380848D01*
X34784475Y-19380848D02*
X34784520Y-17317248D01*
X34784520Y-17317248D02*
X34784564Y-15349224D01*
X34784564Y-15349224D02*
X34784606Y-13492761D01*
X34784606Y-13492761D02*
X34784644Y-11763845D01*
X34784644Y-11763845D02*
X34784680Y-10178462D01*
X34784680Y-10178462D02*
X34784712Y-8752598D01*
X34784712Y-8752598D02*
X34784740Y-7502238D01*
X34784740Y-7502238D02*
X34784764Y-6443370D01*
X34784764Y-6443370D02*
X34784783Y-5591978D01*
X34784783Y-5591978D02*
X34784798Y-4964049D01*
X34784798Y-4964049D02*
X34784806Y-4575568D01*
X34784806Y-4575568D02*
X34784810Y-4442523D01*
X34930154Y-56458771D02*
X34861023Y-56372337D01*
X34861023Y-56372337D02*
X34812989Y-56273838D01*
X34812989Y-56273838D02*
X34787558Y-56166946D01*
X34787558Y-56166946D02*
X34783752Y-56105288D01*
X35283637Y-56605173D02*
X35173824Y-56592950D01*
X35173824Y-56592950D02*
X35070169Y-56557288D01*
X35070169Y-56557288D02*
X34976486Y-56499691D01*
X34976486Y-56499691D02*
X34930154Y-56458771D01*
X34783752Y-95369004D02*
X34783752Y-62105318D01*
X34790808Y-95524226D02*
X34783752Y-95369004D01*
X34808799Y-95680153D02*
X34790808Y-95524226D01*
X34839844Y-95834317D02*
X34808799Y-95680153D01*
X34881824Y-95986011D02*
X34839844Y-95834317D01*
X34936857Y-96134177D02*
X34881824Y-95986011D01*
X35001768Y-96275288D02*
X34936857Y-96134177D01*
X35078674Y-96412166D02*
X35001768Y-96275288D01*
X35165809Y-96543046D02*
X35078674Y-96412166D01*
X35263881Y-96667223D02*
X35165809Y-96543046D01*
X35369714Y-96783287D02*
X35263881Y-96667223D01*
X35485778Y-96888062D02*
X35369714Y-96783287D01*
X35608897Y-96986134D02*
X35485778Y-96888062D01*
X35739777Y-97073269D02*
X35608897Y-96986134D01*
X35876655Y-97150175D02*
X35739777Y-97073269D01*
X36018824Y-97215086D02*
X35876655Y-97150175D01*
X36165932Y-97271177D02*
X36018824Y-97215086D01*
X36317626Y-97313158D02*
X36165932Y-97271177D01*
X36471789Y-97343144D02*
X36317626Y-97313158D01*
X36627717Y-97361135D02*
X36471789Y-97343144D01*
X36784703Y-97369249D02*
X36627717Y-97361135D01*
X318159202Y-97367133D02*
X36784703Y-97369249D01*
X318315129Y-97361135D02*
X318159202Y-97367133D01*
X318471057Y-97343144D02*
X318315129Y-97361135D01*
X318625220Y-97313158D02*
X318471057Y-97343144D01*
X318777973Y-97271177D02*
X318625220Y-97313158D01*
X318924022Y-97215086D02*
X318777973Y-97271177D01*
X319066191Y-97150175D02*
X318924022Y-97215086D01*
X319203069Y-97073269D02*
X319066191Y-97150175D01*
X319333949Y-96986134D02*
X319203069Y-97073269D01*
X319457068Y-96888062D02*
X319333949Y-96986134D01*
X319573132Y-96783287D02*
X319457068Y-96888062D01*
X319678965Y-96667223D02*
X319573132Y-96783287D01*
X319778095Y-96543046D02*
X319678965Y-96667223D01*
X319864173Y-96412166D02*
X319778095Y-96543046D01*
X319941078Y-96275288D02*
X319864173Y-96412166D01*
X320005989Y-96134177D02*
X319941078Y-96275288D01*
X320061022Y-95986011D02*
X320005989Y-96134177D01*
X320103003Y-95834317D02*
X320061022Y-95986011D01*
X320134047Y-95680153D02*
X320103003Y-95834317D01*
X320153097Y-95524226D02*
X320134047Y-95680153D01*
X320159094Y-95369004D02*
X320153097Y-95524226D01*
X35283637Y-61605080D02*
X35476807Y-61605080D01*
X35476807Y-61605080D02*
X35581340Y-61605080D01*
X35581340Y-61605080D02*
X35690415Y-61605080D01*
X35690415Y-61605080D02*
X35803465Y-61605080D01*
X35803465Y-61605080D02*
X35919922Y-61605080D01*
X35919922Y-61605080D02*
X36039219Y-61605080D01*
X36039219Y-61605080D02*
X36160789Y-61605080D01*
X36160789Y-61605080D02*
X36284063Y-61605080D01*
X36284063Y-61605080D02*
X36408474Y-61605080D01*
X36408474Y-61605080D02*
X36533455Y-61605080D01*
X36533455Y-61605080D02*
X36658439Y-61605080D01*
X36658439Y-61605080D02*
X36782858Y-61605080D01*
X36782858Y-61605080D02*
X36906144Y-61605080D01*
X36906144Y-61605080D02*
X37027730Y-61605080D01*
X37027730Y-61605080D02*
X37147048Y-61605080D01*
X37147048Y-61605080D02*
X37263532Y-61605080D01*
X37263532Y-61605080D02*
X37376613Y-61605080D01*
X37376613Y-61605080D02*
X37485724Y-61605080D01*
X37485724Y-61605080D02*
X37590298Y-61605080D01*
X37590298Y-61605080D02*
X37783563Y-61605080D01*
X37783563Y-61605080D02*
X37951870Y-61605080D01*
X37951870Y-61605080D02*
X38090678Y-61605080D01*
X38090678Y-61605080D02*
X38195447Y-61605080D01*
X38195447Y-61605080D02*
X38284710Y-61605080D01*
X34783752Y-62105318D02*
X34793916Y-62004516D01*
X34793916Y-62004516D02*
X34833081Y-61888465D01*
X34833081Y-61888465D02*
X34897968Y-61787140D01*
X34897968Y-61787140D02*
X34984636Y-61704474D01*
X34984636Y-61704474D02*
X35089146Y-61644398D01*
X35089146Y-61644398D02*
X35207557Y-61610845D01*
X35207557Y-61610845D02*
X35283637Y-61605080D01*
X317831119Y-75449810D02*
X317831119Y-62105318D01*
X320159094Y-62105318D02*
X320159094Y-62569161D01*
X320159094Y-62569161D02*
X320159094Y-63168957D01*
X320159094Y-63168957D02*
X320159094Y-63894822D01*
X320159094Y-63894822D02*
X320159094Y-64736876D01*
X320159094Y-64736876D02*
X320159094Y-65685238D01*
X320159094Y-65685238D02*
X320159094Y-66730025D01*
X320159094Y-66730025D02*
X320159094Y-67861358D01*
X320159094Y-67861358D02*
X320159094Y-69069354D01*
X320159094Y-69069354D02*
X320159094Y-70344132D01*
X320159094Y-70344132D02*
X320159094Y-71675812D01*
X320159094Y-71675812D02*
X320159094Y-73054511D01*
X320159094Y-73054511D02*
X320159094Y-74470349D01*
X320159094Y-74470349D02*
X320159094Y-75913444D01*
X320159094Y-75913444D02*
X320159094Y-77373915D01*
X320159094Y-77373915D02*
X320159094Y-78841880D01*
X320159094Y-78841880D02*
X320159094Y-80307459D01*
X320159094Y-80307459D02*
X320159094Y-81760770D01*
X320159094Y-81760770D02*
X320159094Y-83191931D01*
X320159094Y-83191931D02*
X320159094Y-84591062D01*
X320159094Y-84591062D02*
X320159094Y-85948281D01*
X320159094Y-85948281D02*
X320159094Y-87253707D01*
X320159094Y-87253707D02*
X320159094Y-88497459D01*
X320159094Y-88497459D02*
X320159094Y-89669655D01*
X320159094Y-89669655D02*
X320159094Y-90760414D01*
X320159094Y-90760414D02*
X320159094Y-91759855D01*
X320159094Y-91759855D02*
X320159094Y-92658097D01*
X320159094Y-92658097D02*
X320159094Y-93445257D01*
X320159094Y-93445257D02*
X320159094Y-94111456D01*
X320159094Y-94111456D02*
X320159094Y-94646811D01*
X320159094Y-94646811D02*
X320159094Y-95041442D01*
X320159094Y-95041442D02*
X320159094Y-95285466D01*
X320159094Y-95285466D02*
X320159094Y-95369004D01*
X319659209Y-61605080D02*
X319759893Y-61615245D01*
X319759893Y-61615245D02*
X319875839Y-61654417D01*
X319875839Y-61654417D02*
X319977096Y-61719326D01*
X319977096Y-61719326D02*
X320059723Y-61806039D01*
X320059723Y-61806039D02*
X320119781Y-61910623D01*
X320119781Y-61910623D02*
X320153329Y-62029148D01*
X320153329Y-62029148D02*
X320159094Y-62105318D01*
X318331004Y-61605080D02*
X318445076Y-61605080D01*
X318445076Y-61605080D02*
X318565632Y-61605080D01*
X318565632Y-61605080D02*
X318691177Y-61605080D01*
X318691177Y-61605080D02*
X318820213Y-61605080D01*
X318820213Y-61605080D02*
X318951244Y-61605080D01*
X318951244Y-61605080D02*
X319082774Y-61605080D01*
X319082774Y-61605080D02*
X319213307Y-61605080D01*
X319213307Y-61605080D02*
X319341345Y-61605080D01*
X319341345Y-61605080D02*
X319465394Y-61605080D01*
X319465394Y-61605080D02*
X319583955Y-61605080D01*
X319583955Y-61605080D02*
X319659209Y-61605080D01*
X317831119Y-62105318D02*
X317841268Y-62004516D01*
X317841268Y-62004516D02*
X317880388Y-61888465D01*
X317880388Y-61888465D02*
X317945221Y-61787140D01*
X317945221Y-61787140D02*
X318031852Y-61704474D01*
X318031852Y-61704474D02*
X318136364Y-61644398D01*
X318136364Y-61644398D02*
X318254842Y-61610845D01*
X318254842Y-61610845D02*
X318331004Y-61605080D01*
X266231148Y-75950047D02*
X317331235Y-75950047D01*
X317331235Y-75950047D02*
X317431413Y-75939809D01*
X317431413Y-75939809D02*
X317547096Y-75900408D01*
X317547096Y-75900408D02*
X317648388Y-75835231D01*
X317648388Y-75835231D02*
X317731230Y-75748330D01*
X317731230Y-75748330D02*
X317791558Y-75643759D01*
X317791558Y-75643759D02*
X317825312Y-75525572D01*
X317825312Y-75525572D02*
X317831119Y-75449810D01*
X89231691Y-18299952D02*
X89231691Y-18299952D01*
X75731625Y-18800190D02*
X88731806Y-18800190D01*
X88731806Y-18800190D02*
X88831984Y-18789952D01*
X88831984Y-18789952D02*
X88947667Y-18750551D01*
X88947667Y-18750551D02*
X89048960Y-18685374D01*
X89048960Y-18685374D02*
X89131802Y-18598473D01*
X89131802Y-18598473D02*
X89192130Y-18493902D01*
X89192130Y-18493902D02*
X89225884Y-18375714D01*
X89225884Y-18375714D02*
X89231691Y-18299952D01*
X75231740Y-5300124D02*
X75231740Y-18299952D01*
X75231740Y-18299952D02*
X75241976Y-18400246D01*
X75241976Y-18400246D02*
X75281370Y-18516035D01*
X75281370Y-18516035D02*
X75346526Y-18617396D01*
X75346526Y-18617396D02*
X75433382Y-18700277D01*
X75433382Y-18700277D02*
X75537878Y-18760623D01*
X75537878Y-18760623D02*
X75655952Y-18794382D01*
X75655952Y-18794382D02*
X75731625Y-18800190D01*
X88731806Y-4799886D02*
X75731625Y-4799886D01*
X75731625Y-4799886D02*
X75631446Y-4810123D01*
X75631446Y-4810123D02*
X75515763Y-4849524D01*
X75515763Y-4849524D02*
X75414470Y-4914701D01*
X75414470Y-4914701D02*
X75331628Y-5001602D01*
X75331628Y-5001602D02*
X75271300Y-5106173D01*
X75271300Y-5106173D02*
X75237546Y-5224361D01*
X75237546Y-5224361D02*
X75231740Y-5300124D01*
X89231691Y-18299952D02*
X89231691Y-5300124D01*
X89231691Y-5300124D02*
X89221454Y-5199829D01*
X89221454Y-5199829D02*
X89182060Y-5084040D01*
X89182060Y-5084040D02*
X89116904Y-4982679D01*
X89116904Y-4982679D02*
X89030048Y-4899798D01*
X89030048Y-4899798D02*
X88925552Y-4839452D01*
X88925552Y-4839452D02*
X88807478Y-4805693D01*
X88807478Y-4805693D02*
X88731806Y-4799886D01*
X222581358Y-18299952D02*
X222581358Y-18299952D01*
X209081291Y-18800190D02*
X222081473Y-18800190D01*
X222081473Y-18800190D02*
X222181651Y-18789952D01*
X222181651Y-18789952D02*
X222297334Y-18750551D01*
X222297334Y-18750551D02*
X222398627Y-18685374D01*
X222398627Y-18685374D02*
X222481468Y-18598473D01*
X222481468Y-18598473D02*
X222541797Y-18493902D01*
X222541797Y-18493902D02*
X222575551Y-18375714D01*
X222575551Y-18375714D02*
X222581358Y-18299952D01*
X208581406Y-5300124D02*
X208581406Y-18299952D01*
X208581406Y-18299952D02*
X208591642Y-18400246D01*
X208591642Y-18400246D02*
X208631036Y-18516035D01*
X208631036Y-18516035D02*
X208696192Y-18617396D01*
X208696192Y-18617396D02*
X208783049Y-18700277D01*
X208783049Y-18700277D02*
X208887545Y-18760623D01*
X208887545Y-18760623D02*
X209005618Y-18794382D01*
X209005618Y-18794382D02*
X209081291Y-18800190D01*
X222081473Y-4799886D02*
X209081291Y-4799886D01*
X209081291Y-4799886D02*
X208981112Y-4810123D01*
X208981112Y-4810123D02*
X208865429Y-4849524D01*
X208865429Y-4849524D02*
X208764136Y-4914701D01*
X208764136Y-4914701D02*
X208681295Y-5001602D01*
X208681295Y-5001602D02*
X208620966Y-5106173D01*
X208620966Y-5106173D02*
X208587212Y-5224361D01*
X208587212Y-5224361D02*
X208581406Y-5300124D01*
X222581358Y-18299952D02*
X222581358Y-5300124D01*
X222581358Y-5300124D02*
X222571121Y-5199829D01*
X222571121Y-5199829D02*
X222531727Y-5084040D01*
X222531727Y-5084040D02*
X222466571Y-4982679D01*
X222466571Y-4982679D02*
X222379714Y-4899798D01*
X222379714Y-4899798D02*
X222275218Y-4839452D01*
X222275218Y-4839452D02*
X222157145Y-4805693D01*
X222157145Y-4805693D02*
X222081473Y-4799886D01*
X56681672Y-18800190D02*
X56681672Y-18800190D01*
X56181787Y-5300124D02*
X56181787Y-18299952D01*
X56181787Y-18299952D02*
X56192023Y-18400246D01*
X56192023Y-18400246D02*
X56231417Y-18516035D01*
X56231417Y-18516035D02*
X56296573Y-18617396D01*
X56296573Y-18617396D02*
X56383430Y-18700277D01*
X56383430Y-18700277D02*
X56487926Y-18760623D01*
X56487926Y-18760623D02*
X56605999Y-18794382D01*
X56605999Y-18794382D02*
X56681672Y-18800190D01*
X69681854Y-4799886D02*
X56681672Y-4799886D01*
X56681672Y-4799886D02*
X56581493Y-4810123D01*
X56581493Y-4810123D02*
X56465810Y-4849524D01*
X56465810Y-4849524D02*
X56364517Y-4914701D01*
X56364517Y-4914701D02*
X56281676Y-5001602D01*
X56281676Y-5001602D02*
X56221347Y-5106173D01*
X56221347Y-5106173D02*
X56187593Y-5224361D01*
X56187593Y-5224361D02*
X56181787Y-5300124D01*
X70181739Y-18299952D02*
X70181739Y-5300124D01*
X70181739Y-5300124D02*
X70171502Y-5199829D01*
X70171502Y-5199829D02*
X70132108Y-5084040D01*
X70132108Y-5084040D02*
X70066952Y-4982679D01*
X70066952Y-4982679D02*
X69980095Y-4899798D01*
X69980095Y-4899798D02*
X69875599Y-4839452D01*
X69875599Y-4839452D02*
X69757526Y-4805693D01*
X69757526Y-4805693D02*
X69681854Y-4799886D01*
X56681672Y-18800190D02*
X69681854Y-18800190D01*
X69681854Y-18800190D02*
X69782032Y-18789952D01*
X69782032Y-18789952D02*
X69897715Y-18750551D01*
X69897715Y-18750551D02*
X69999008Y-18685374D01*
X69999008Y-18685374D02*
X70081849Y-18598473D01*
X70081849Y-18598473D02*
X70142178Y-18493902D01*
X70142178Y-18493902D02*
X70175932Y-18375714D01*
X70175932Y-18375714D02*
X70181739Y-18299952D01*
X127331596Y-18299952D02*
X127331596Y-18299952D01*
X113831529Y-18800190D02*
X126831711Y-18800190D01*
X126831711Y-18800190D02*
X126931889Y-18789952D01*
X126931889Y-18789952D02*
X127047572Y-18750551D01*
X127047572Y-18750551D02*
X127148865Y-18685374D01*
X127148865Y-18685374D02*
X127231706Y-18598473D01*
X127231706Y-18598473D02*
X127292035Y-18493902D01*
X127292035Y-18493902D02*
X127325789Y-18375714D01*
X127325789Y-18375714D02*
X127331596Y-18299952D01*
X113331645Y-5300124D02*
X113331645Y-18299952D01*
X113331645Y-18299952D02*
X113341881Y-18400246D01*
X113341881Y-18400246D02*
X113381275Y-18516035D01*
X113381275Y-18516035D02*
X113446430Y-18617396D01*
X113446430Y-18617396D02*
X113533287Y-18700277D01*
X113533287Y-18700277D02*
X113637783Y-18760623D01*
X113637783Y-18760623D02*
X113755856Y-18794382D01*
X113755856Y-18794382D02*
X113831529Y-18800190D01*
X126831711Y-4799886D02*
X113831529Y-4799886D01*
X113831529Y-4799886D02*
X113731350Y-4810123D01*
X113731350Y-4810123D02*
X113615667Y-4849524D01*
X113615667Y-4849524D02*
X113514375Y-4914701D01*
X113514375Y-4914701D02*
X113431533Y-5001602D01*
X113431533Y-5001602D02*
X113371205Y-5106173D01*
X113371205Y-5106173D02*
X113337451Y-5224361D01*
X113337451Y-5224361D02*
X113331645Y-5300124D01*
X127331596Y-18299952D02*
X127331596Y-5300124D01*
X127331596Y-5300124D02*
X127321359Y-5199829D01*
X127321359Y-5199829D02*
X127281965Y-5084040D01*
X127281965Y-5084040D02*
X127216809Y-4982679D01*
X127216809Y-4982679D02*
X127129952Y-4899798D01*
X127129952Y-4899798D02*
X127025456Y-4839452D01*
X127025456Y-4839452D02*
X126907383Y-4805693D01*
X126907383Y-4805693D02*
X126831711Y-4799886D01*
X51131786Y-18299952D02*
X51131786Y-18299952D01*
X37631720Y-18800190D02*
X50631901Y-18800190D01*
X50631901Y-18800190D02*
X50732079Y-18789952D01*
X50732079Y-18789952D02*
X50847762Y-18750551D01*
X50847762Y-18750551D02*
X50949055Y-18685374D01*
X50949055Y-18685374D02*
X51031897Y-18598473D01*
X51031897Y-18598473D02*
X51092225Y-18493902D01*
X51092225Y-18493902D02*
X51125979Y-18375714D01*
X51125979Y-18375714D02*
X51131786Y-18299952D01*
X37131835Y-5300124D02*
X37131835Y-18299952D01*
X37131835Y-18299952D02*
X37142071Y-18400246D01*
X37142071Y-18400246D02*
X37181465Y-18516035D01*
X37181465Y-18516035D02*
X37246621Y-18617396D01*
X37246621Y-18617396D02*
X37333477Y-18700277D01*
X37333477Y-18700277D02*
X37437973Y-18760623D01*
X37437973Y-18760623D02*
X37556047Y-18794382D01*
X37556047Y-18794382D02*
X37631720Y-18800190D01*
X50631901Y-4799886D02*
X37631720Y-4799886D01*
X37631720Y-4799886D02*
X37531541Y-4810123D01*
X37531541Y-4810123D02*
X37415858Y-4849524D01*
X37415858Y-4849524D02*
X37314565Y-4914701D01*
X37314565Y-4914701D02*
X37231723Y-5001602D01*
X37231723Y-5001602D02*
X37171395Y-5106173D01*
X37171395Y-5106173D02*
X37137641Y-5224361D01*
X37137641Y-5224361D02*
X37131835Y-5300124D01*
X51131786Y-18299952D02*
X51131786Y-5300124D01*
X51131786Y-5300124D02*
X51121549Y-5199829D01*
X51121549Y-5199829D02*
X51082155Y-5084040D01*
X51082155Y-5084040D02*
X51016999Y-4982679D01*
X51016999Y-4982679D02*
X50930143Y-4899798D01*
X50930143Y-4899798D02*
X50825647Y-4839452D01*
X50825647Y-4839452D02*
X50707573Y-4805693D01*
X50707573Y-4805693D02*
X50631901Y-4799886D01*
X146381548Y-18299952D02*
X146381548Y-18299952D01*
X132881482Y-18800190D02*
X145881663Y-18800190D01*
X145881663Y-18800190D02*
X145981841Y-18789952D01*
X145981841Y-18789952D02*
X146097524Y-18750551D01*
X146097524Y-18750551D02*
X146198817Y-18685374D01*
X146198817Y-18685374D02*
X146281659Y-18598473D01*
X146281659Y-18598473D02*
X146341987Y-18493902D01*
X146341987Y-18493902D02*
X146375741Y-18375714D01*
X146375741Y-18375714D02*
X146381548Y-18299952D01*
X132381597Y-5300124D02*
X132381597Y-18299952D01*
X132381597Y-18299952D02*
X132391833Y-18400246D01*
X132391833Y-18400246D02*
X132431227Y-18516035D01*
X132431227Y-18516035D02*
X132496383Y-18617396D01*
X132496383Y-18617396D02*
X132583239Y-18700277D01*
X132583239Y-18700277D02*
X132687735Y-18760623D01*
X132687735Y-18760623D02*
X132805809Y-18794382D01*
X132805809Y-18794382D02*
X132881482Y-18800190D01*
X145881663Y-4799886D02*
X132881482Y-4799886D01*
X132881482Y-4799886D02*
X132781303Y-4810123D01*
X132781303Y-4810123D02*
X132665620Y-4849524D01*
X132665620Y-4849524D02*
X132564327Y-4914701D01*
X132564327Y-4914701D02*
X132481485Y-5001602D01*
X132481485Y-5001602D02*
X132421157Y-5106173D01*
X132421157Y-5106173D02*
X132387403Y-5224361D01*
X132387403Y-5224361D02*
X132381597Y-5300124D01*
X146381548Y-18299952D02*
X146381548Y-5300124D01*
X146381548Y-5300124D02*
X146371311Y-5199829D01*
X146371311Y-5199829D02*
X146331917Y-5084040D01*
X146331917Y-5084040D02*
X146266761Y-4982679D01*
X146266761Y-4982679D02*
X146179905Y-4899798D01*
X146179905Y-4899798D02*
X146075409Y-4839452D01*
X146075409Y-4839452D02*
X145957335Y-4805693D01*
X145957335Y-4805693D02*
X145881663Y-4799886D01*
X279731215Y-18299952D02*
X279731215Y-18299952D01*
X266231148Y-18800190D02*
X279231330Y-18800190D01*
X279231330Y-18800190D02*
X279331508Y-18789952D01*
X279331508Y-18789952D02*
X279447191Y-18750551D01*
X279447191Y-18750551D02*
X279548484Y-18685374D01*
X279548484Y-18685374D02*
X279631325Y-18598473D01*
X279631325Y-18598473D02*
X279691654Y-18493902D01*
X279691654Y-18493902D02*
X279725408Y-18375714D01*
X279725408Y-18375714D02*
X279731215Y-18299952D01*
X265731264Y-5300124D02*
X265731264Y-18299952D01*
X265731264Y-18299952D02*
X265741500Y-18400246D01*
X265741500Y-18400246D02*
X265780894Y-18516035D01*
X265780894Y-18516035D02*
X265846049Y-18617396D01*
X265846049Y-18617396D02*
X265932906Y-18700277D01*
X265932906Y-18700277D02*
X266037402Y-18760623D01*
X266037402Y-18760623D02*
X266155475Y-18794382D01*
X266155475Y-18794382D02*
X266231148Y-18800190D01*
X279231330Y-4799886D02*
X266231148Y-4799886D01*
X266231148Y-4799886D02*
X266130969Y-4810123D01*
X266130969Y-4810123D02*
X266015286Y-4849524D01*
X266015286Y-4849524D02*
X265913994Y-4914701D01*
X265913994Y-4914701D02*
X265831152Y-5001602D01*
X265831152Y-5001602D02*
X265770824Y-5106173D01*
X265770824Y-5106173D02*
X265737070Y-5224361D01*
X265737070Y-5224361D02*
X265731264Y-5300124D01*
X279731215Y-18299952D02*
X279731215Y-5300124D01*
X279731215Y-5300124D02*
X279720978Y-5199829D01*
X279720978Y-5199829D02*
X279681584Y-5084040D01*
X279681584Y-5084040D02*
X279616428Y-4982679D01*
X279616428Y-4982679D02*
X279529571Y-4899798D01*
X279529571Y-4899798D02*
X279425075Y-4839452D01*
X279425075Y-4839452D02*
X279307002Y-4805693D01*
X279307002Y-4805693D02*
X279231330Y-4799886D01*
X108281643Y-18299952D02*
X108281643Y-18299952D01*
X94781577Y-18800190D02*
X107781758Y-18800190D01*
X107781758Y-18800190D02*
X107881936Y-18789952D01*
X107881936Y-18789952D02*
X107997619Y-18750551D01*
X107997619Y-18750551D02*
X108098912Y-18685374D01*
X108098912Y-18685374D02*
X108181754Y-18598473D01*
X108181754Y-18598473D02*
X108242082Y-18493902D01*
X108242082Y-18493902D02*
X108275836Y-18375714D01*
X108275836Y-18375714D02*
X108281643Y-18299952D01*
X94281692Y-5300124D02*
X94281692Y-18299952D01*
X94281692Y-18299952D02*
X94291928Y-18400246D01*
X94291928Y-18400246D02*
X94331322Y-18516035D01*
X94331322Y-18516035D02*
X94396478Y-18617396D01*
X94396478Y-18617396D02*
X94483334Y-18700277D01*
X94483334Y-18700277D02*
X94587830Y-18760623D01*
X94587830Y-18760623D02*
X94705904Y-18794382D01*
X94705904Y-18794382D02*
X94781577Y-18800190D01*
X107781758Y-4799886D02*
X94781577Y-4799886D01*
X94781577Y-4799886D02*
X94681398Y-4810123D01*
X94681398Y-4810123D02*
X94565715Y-4849524D01*
X94565715Y-4849524D02*
X94464422Y-4914701D01*
X94464422Y-4914701D02*
X94381580Y-5001602D01*
X94381580Y-5001602D02*
X94321252Y-5106173D01*
X94321252Y-5106173D02*
X94287498Y-5224361D01*
X94287498Y-5224361D02*
X94281692Y-5300124D01*
X108281643Y-18299952D02*
X108281643Y-5300124D01*
X108281643Y-5300124D02*
X108271406Y-5199829D01*
X108271406Y-5199829D02*
X108232012Y-5084040D01*
X108232012Y-5084040D02*
X108166856Y-4982679D01*
X108166856Y-4982679D02*
X108080000Y-4899798D01*
X108080000Y-4899798D02*
X107975504Y-4839452D01*
X107975504Y-4839452D02*
X107857430Y-4805693D01*
X107857430Y-4805693D02*
X107781758Y-4799886D01*
X260681262Y-18299952D02*
X260681262Y-18299952D01*
X247181196Y-18800190D02*
X260181377Y-18800190D01*
X260181377Y-18800190D02*
X260281555Y-18789952D01*
X260281555Y-18789952D02*
X260397238Y-18750551D01*
X260397238Y-18750551D02*
X260498531Y-18685374D01*
X260498531Y-18685374D02*
X260581373Y-18598473D01*
X260581373Y-18598473D02*
X260641701Y-18493902D01*
X260641701Y-18493902D02*
X260675455Y-18375714D01*
X260675455Y-18375714D02*
X260681262Y-18299952D01*
X246681311Y-5300124D02*
X246681311Y-18299952D01*
X246681311Y-18299952D02*
X246691547Y-18400246D01*
X246691547Y-18400246D02*
X246730941Y-18516035D01*
X246730941Y-18516035D02*
X246796097Y-18617396D01*
X246796097Y-18617396D02*
X246882953Y-18700277D01*
X246882953Y-18700277D02*
X246987449Y-18760623D01*
X246987449Y-18760623D02*
X247105523Y-18794382D01*
X247105523Y-18794382D02*
X247181196Y-18800190D01*
X260181377Y-4799886D02*
X247181196Y-4799886D01*
X247181196Y-4799886D02*
X247081017Y-4810123D01*
X247081017Y-4810123D02*
X246965334Y-4849524D01*
X246965334Y-4849524D02*
X246864041Y-4914701D01*
X246864041Y-4914701D02*
X246781199Y-5001602D01*
X246781199Y-5001602D02*
X246720871Y-5106173D01*
X246720871Y-5106173D02*
X246687117Y-5224361D01*
X246687117Y-5224361D02*
X246681311Y-5300124D01*
X260681262Y-18299952D02*
X260681262Y-5300124D01*
X260681262Y-5300124D02*
X260671025Y-5199829D01*
X260671025Y-5199829D02*
X260631631Y-5084040D01*
X260631631Y-5084040D02*
X260566475Y-4982679D01*
X260566475Y-4982679D02*
X260479619Y-4899798D01*
X260479619Y-4899798D02*
X260375123Y-4839452D01*
X260375123Y-4839452D02*
X260257049Y-4805693D01*
X260257049Y-4805693D02*
X260181377Y-4799886D01*
X165431500Y-18299952D02*
X165431500Y-18299952D01*
X151931434Y-18800190D02*
X164931616Y-18800190D01*
X164931616Y-18800190D02*
X165031794Y-18789952D01*
X165031794Y-18789952D02*
X165147477Y-18750551D01*
X165147477Y-18750551D02*
X165248769Y-18685374D01*
X165248769Y-18685374D02*
X165331611Y-18598473D01*
X165331611Y-18598473D02*
X165391939Y-18493902D01*
X165391939Y-18493902D02*
X165425693Y-18375714D01*
X165425693Y-18375714D02*
X165431500Y-18299952D01*
X151431549Y-5300124D02*
X151431549Y-18299952D01*
X151431549Y-18299952D02*
X151441785Y-18400246D01*
X151441785Y-18400246D02*
X151481179Y-18516035D01*
X151481179Y-18516035D02*
X151546335Y-18617396D01*
X151546335Y-18617396D02*
X151633192Y-18700277D01*
X151633192Y-18700277D02*
X151737688Y-18760623D01*
X151737688Y-18760623D02*
X151855761Y-18794382D01*
X151855761Y-18794382D02*
X151931434Y-18800190D01*
X164931616Y-4799886D02*
X151931434Y-4799886D01*
X151931434Y-4799886D02*
X151831255Y-4810123D01*
X151831255Y-4810123D02*
X151715572Y-4849524D01*
X151715572Y-4849524D02*
X151614279Y-4914701D01*
X151614279Y-4914701D02*
X151531438Y-5001602D01*
X151531438Y-5001602D02*
X151471109Y-5106173D01*
X151471109Y-5106173D02*
X151437355Y-5224361D01*
X151437355Y-5224361D02*
X151431549Y-5300124D01*
X165431500Y-18299952D02*
X165431500Y-5300124D01*
X165431500Y-5300124D02*
X165421263Y-5199829D01*
X165421263Y-5199829D02*
X165381869Y-5084040D01*
X165381869Y-5084040D02*
X165316714Y-4982679D01*
X165316714Y-4982679D02*
X165229857Y-4899798D01*
X165229857Y-4899798D02*
X165125361Y-4839452D01*
X165125361Y-4839452D02*
X165007288Y-4805693D01*
X165007288Y-4805693D02*
X164931616Y-4799886D01*
X184481453Y-18299952D02*
X184481453Y-18299952D01*
X170981387Y-18800190D02*
X183981568Y-18800190D01*
X183981568Y-18800190D02*
X184081746Y-18789952D01*
X184081746Y-18789952D02*
X184197429Y-18750551D01*
X184197429Y-18750551D02*
X184298722Y-18685374D01*
X184298722Y-18685374D02*
X184381564Y-18598473D01*
X184381564Y-18598473D02*
X184441892Y-18493902D01*
X184441892Y-18493902D02*
X184475646Y-18375714D01*
X184475646Y-18375714D02*
X184481453Y-18299952D01*
X170481502Y-5300124D02*
X170481502Y-18299952D01*
X170481502Y-18299952D02*
X170491738Y-18400246D01*
X170491738Y-18400246D02*
X170531132Y-18516035D01*
X170531132Y-18516035D02*
X170596288Y-18617396D01*
X170596288Y-18617396D02*
X170683144Y-18700277D01*
X170683144Y-18700277D02*
X170787640Y-18760623D01*
X170787640Y-18760623D02*
X170905714Y-18794382D01*
X170905714Y-18794382D02*
X170981387Y-18800190D01*
X183981568Y-4799886D02*
X170981387Y-4799886D01*
X170981387Y-4799886D02*
X170881208Y-4810123D01*
X170881208Y-4810123D02*
X170765525Y-4849524D01*
X170765525Y-4849524D02*
X170664232Y-4914701D01*
X170664232Y-4914701D02*
X170581390Y-5001602D01*
X170581390Y-5001602D02*
X170521062Y-5106173D01*
X170521062Y-5106173D02*
X170487308Y-5224361D01*
X170487308Y-5224361D02*
X170481502Y-5300124D01*
X184481453Y-18299952D02*
X184481453Y-5300124D01*
X184481453Y-5300124D02*
X184471216Y-5199829D01*
X184471216Y-5199829D02*
X184431822Y-5084040D01*
X184431822Y-5084040D02*
X184366666Y-4982679D01*
X184366666Y-4982679D02*
X184279810Y-4899798D01*
X184279810Y-4899798D02*
X184175314Y-4839452D01*
X184175314Y-4839452D02*
X184057240Y-4805693D01*
X184057240Y-4805693D02*
X183981568Y-4799886D01*
X241631310Y-18299952D02*
X241631310Y-18299952D01*
X228131244Y-18800190D02*
X241131425Y-18800190D01*
X241131425Y-18800190D02*
X241231603Y-18789952D01*
X241231603Y-18789952D02*
X241347286Y-18750551D01*
X241347286Y-18750551D02*
X241448579Y-18685374D01*
X241448579Y-18685374D02*
X241531421Y-18598473D01*
X241531421Y-18598473D02*
X241591749Y-18493902D01*
X241591749Y-18493902D02*
X241625503Y-18375714D01*
X241625503Y-18375714D02*
X241631310Y-18299952D01*
X227631359Y-5300124D02*
X227631359Y-18299952D01*
X227631359Y-18299952D02*
X227641595Y-18400246D01*
X227641595Y-18400246D02*
X227680989Y-18516035D01*
X227680989Y-18516035D02*
X227746145Y-18617396D01*
X227746145Y-18617396D02*
X227833001Y-18700277D01*
X227833001Y-18700277D02*
X227937497Y-18760623D01*
X227937497Y-18760623D02*
X228055571Y-18794382D01*
X228055571Y-18794382D02*
X228131244Y-18800190D01*
X241131425Y-4799886D02*
X228131244Y-4799886D01*
X228131244Y-4799886D02*
X228031065Y-4810123D01*
X228031065Y-4810123D02*
X227915382Y-4849524D01*
X227915382Y-4849524D02*
X227814089Y-4914701D01*
X227814089Y-4914701D02*
X227731247Y-5001602D01*
X227731247Y-5001602D02*
X227670919Y-5106173D01*
X227670919Y-5106173D02*
X227637165Y-5224361D01*
X227637165Y-5224361D02*
X227631359Y-5300124D01*
X241631310Y-18299952D02*
X241631310Y-5300124D01*
X241631310Y-5300124D02*
X241621073Y-5199829D01*
X241621073Y-5199829D02*
X241581679Y-5084040D01*
X241581679Y-5084040D02*
X241516523Y-4982679D01*
X241516523Y-4982679D02*
X241429667Y-4899798D01*
X241429667Y-4899798D02*
X241325171Y-4839452D01*
X241325171Y-4839452D02*
X241207097Y-4805693D01*
X241207097Y-4805693D02*
X241131425Y-4799886D01*
X203531405Y-18299952D02*
X203531405Y-18299952D01*
X190031339Y-18800190D02*
X203031520Y-18800190D01*
X203031520Y-18800190D02*
X203131698Y-18789952D01*
X203131698Y-18789952D02*
X203247381Y-18750551D01*
X203247381Y-18750551D02*
X203348674Y-18685374D01*
X203348674Y-18685374D02*
X203431516Y-18598473D01*
X203431516Y-18598473D02*
X203491844Y-18493902D01*
X203491844Y-18493902D02*
X203525598Y-18375714D01*
X203525598Y-18375714D02*
X203531405Y-18299952D01*
X189531454Y-5300124D02*
X189531454Y-18299952D01*
X189531454Y-18299952D02*
X189541690Y-18400246D01*
X189541690Y-18400246D02*
X189581084Y-18516035D01*
X189581084Y-18516035D02*
X189646240Y-18617396D01*
X189646240Y-18617396D02*
X189733096Y-18700277D01*
X189733096Y-18700277D02*
X189837592Y-18760623D01*
X189837592Y-18760623D02*
X189955666Y-18794382D01*
X189955666Y-18794382D02*
X190031339Y-18800190D01*
X203031520Y-4799886D02*
X190031339Y-4799886D01*
X190031339Y-4799886D02*
X189931160Y-4810123D01*
X189931160Y-4810123D02*
X189815477Y-4849524D01*
X189815477Y-4849524D02*
X189714184Y-4914701D01*
X189714184Y-4914701D02*
X189631342Y-5001602D01*
X189631342Y-5001602D02*
X189571014Y-5106173D01*
X189571014Y-5106173D02*
X189537260Y-5224361D01*
X189537260Y-5224361D02*
X189531454Y-5300124D01*
X203531405Y-18299952D02*
X203531405Y-5300124D01*
X203531405Y-5300124D02*
X203521168Y-5199829D01*
X203521168Y-5199829D02*
X203481774Y-5084040D01*
X203481774Y-5084040D02*
X203416618Y-4982679D01*
X203416618Y-4982679D02*
X203329762Y-4899798D01*
X203329762Y-4899798D02*
X203225266Y-4839452D01*
X203225266Y-4839452D02*
X203107192Y-4805693D01*
X203107192Y-4805693D02*
X203031520Y-4799886D01*
X251156286Y-37349905D02*
X251156286Y-37349905D01*
X237656220Y-37850142D02*
X250656401Y-37850142D01*
X250656401Y-37850142D02*
X250756579Y-37839904D01*
X250756579Y-37839904D02*
X250872262Y-37800503D01*
X250872262Y-37800503D02*
X250973555Y-37735326D01*
X250973555Y-37735326D02*
X251056397Y-37648425D01*
X251056397Y-37648425D02*
X251116725Y-37543854D01*
X251116725Y-37543854D02*
X251150479Y-37425667D01*
X251150479Y-37425667D02*
X251156286Y-37349905D01*
X237156335Y-24350076D02*
X237156335Y-37349905D01*
X237156335Y-37349905D02*
X237166571Y-37450199D01*
X237166571Y-37450199D02*
X237205965Y-37565988D01*
X237205965Y-37565988D02*
X237271121Y-37667349D01*
X237271121Y-37667349D02*
X237357977Y-37750229D01*
X237357977Y-37750229D02*
X237462473Y-37810575D01*
X237462473Y-37810575D02*
X237580547Y-37844334D01*
X237580547Y-37844334D02*
X237656220Y-37850142D01*
X250656401Y-23849839D02*
X237656220Y-23849839D01*
X237656220Y-23849839D02*
X237556041Y-23860076D01*
X237556041Y-23860076D02*
X237440358Y-23899477D01*
X237440358Y-23899477D02*
X237339065Y-23964654D01*
X237339065Y-23964654D02*
X237256223Y-24051555D01*
X237256223Y-24051555D02*
X237195895Y-24156126D01*
X237195895Y-24156126D02*
X237162141Y-24274313D01*
X237162141Y-24274313D02*
X237156335Y-24350076D01*
X251156286Y-37349905D02*
X251156286Y-24350076D01*
X251156286Y-24350076D02*
X251146049Y-24249781D01*
X251146049Y-24249781D02*
X251106655Y-24133992D01*
X251106655Y-24133992D02*
X251041499Y-24032631D01*
X251041499Y-24032631D02*
X250954643Y-23949751D01*
X250954643Y-23949751D02*
X250850147Y-23889405D01*
X250850147Y-23889405D02*
X250732073Y-23855646D01*
X250732073Y-23855646D02*
X250656401Y-23849839D01*
X136856572Y-37349905D02*
X136856572Y-37349905D01*
X123356506Y-37850142D02*
X136356687Y-37850142D01*
X136356687Y-37850142D02*
X136456865Y-37839904D01*
X136456865Y-37839904D02*
X136572548Y-37800503D01*
X136572548Y-37800503D02*
X136673841Y-37735326D01*
X136673841Y-37735326D02*
X136756683Y-37648425D01*
X136756683Y-37648425D02*
X136817011Y-37543854D01*
X136817011Y-37543854D02*
X136850765Y-37425667D01*
X136850765Y-37425667D02*
X136856572Y-37349905D01*
X122856621Y-24350076D02*
X122856621Y-37349905D01*
X122856621Y-37349905D02*
X122866857Y-37450199D01*
X122866857Y-37450199D02*
X122906251Y-37565988D01*
X122906251Y-37565988D02*
X122971407Y-37667349D01*
X122971407Y-37667349D02*
X123058263Y-37750229D01*
X123058263Y-37750229D02*
X123162759Y-37810575D01*
X123162759Y-37810575D02*
X123280833Y-37844334D01*
X123280833Y-37844334D02*
X123356506Y-37850142D01*
X136356687Y-23849839D02*
X123356506Y-23849839D01*
X123356506Y-23849839D02*
X123256327Y-23860076D01*
X123256327Y-23860076D02*
X123140644Y-23899477D01*
X123140644Y-23899477D02*
X123039351Y-23964654D01*
X123039351Y-23964654D02*
X122956509Y-24051555D01*
X122956509Y-24051555D02*
X122896181Y-24156126D01*
X122896181Y-24156126D02*
X122862427Y-24274313D01*
X122862427Y-24274313D02*
X122856621Y-24350076D01*
X136856572Y-37349905D02*
X136856572Y-24350076D01*
X136856572Y-24350076D02*
X136846335Y-24249781D01*
X136846335Y-24249781D02*
X136806941Y-24133992D01*
X136806941Y-24133992D02*
X136741785Y-24032631D01*
X136741785Y-24032631D02*
X136654929Y-23949751D01*
X136654929Y-23949751D02*
X136550433Y-23889405D01*
X136550433Y-23889405D02*
X136432359Y-23855646D01*
X136432359Y-23855646D02*
X136356687Y-23849839D01*
X317331235Y-37850142D02*
X317331235Y-37850142D01*
X280518613Y-37850142D02*
X317331235Y-37850142D01*
X280018728Y-24350076D02*
X280018728Y-37349905D01*
X280018728Y-37349905D02*
X280028964Y-37450199D01*
X280028964Y-37450199D02*
X280068358Y-37565988D01*
X280068358Y-37565988D02*
X280133514Y-37667349D01*
X280133514Y-37667349D02*
X280220370Y-37750229D01*
X280220370Y-37750229D02*
X280324866Y-37810575D01*
X280324866Y-37810575D02*
X280442940Y-37844334D01*
X280442940Y-37844334D02*
X280518613Y-37850142D01*
X315449875Y-23849839D02*
X280518613Y-23849839D01*
X280518613Y-23849839D02*
X280418434Y-23860076D01*
X280418434Y-23860076D02*
X280302751Y-23899477D01*
X280302751Y-23899477D02*
X280201458Y-23964654D01*
X280201458Y-23964654D02*
X280118616Y-24051555D01*
X280118616Y-24051555D02*
X280058288Y-24156126D01*
X280058288Y-24156126D02*
X280024534Y-24274313D01*
X280024534Y-24274313D02*
X280018728Y-24350076D01*
X317712234Y-21600886D02*
X315949760Y-21600886D01*
X315449875Y-22101124D02*
X315449875Y-22229941D01*
X315449875Y-22229941D02*
X315449875Y-22366478D01*
X315449875Y-22366478D02*
X315449875Y-22508521D01*
X315449875Y-22508521D02*
X315449875Y-22653859D01*
X315449875Y-22653859D02*
X315449875Y-22800280D01*
X315449875Y-22800280D02*
X315449875Y-22945572D01*
X315449875Y-22945572D02*
X315449875Y-23087524D01*
X315449875Y-23087524D02*
X315449875Y-23223924D01*
X315449875Y-23223924D02*
X315449875Y-23352560D01*
X315449875Y-23352560D02*
X315449875Y-23471221D01*
X315449875Y-23471221D02*
X315449875Y-23577694D01*
X315449875Y-23577694D02*
X315449875Y-23709714D01*
X315449875Y-23709714D02*
X315449875Y-23822443D01*
X315449875Y-23822443D02*
X315449875Y-23849839D01*
X315949760Y-21600886D02*
X315848974Y-21611051D01*
X315848974Y-21611051D02*
X315732975Y-21650223D01*
X315732975Y-21650223D02*
X315631726Y-21715131D01*
X315631726Y-21715131D02*
X315549141Y-21801844D01*
X315549141Y-21801844D02*
X315489138Y-21906429D01*
X315489138Y-21906429D02*
X315455631Y-22024953D01*
X315455631Y-22024953D02*
X315449875Y-22101124D01*
X317831119Y-32600117D02*
X317831472Y-32600117D01*
X317831119Y-37349905D02*
X317831119Y-32600117D01*
X318065716Y-21747288D02*
X317979436Y-21678311D01*
X317979436Y-21678311D02*
X317880897Y-21630237D01*
X317880897Y-21630237D02*
X317773914Y-21604714D01*
X317773914Y-21604714D02*
X317712234Y-21600886D01*
X318212471Y-22101124D02*
X318200180Y-21991088D01*
X318200180Y-21991088D02*
X318164376Y-21887332D01*
X318164376Y-21887332D02*
X318106659Y-21793621D01*
X318106659Y-21793621D02*
X318065716Y-21747288D01*
X318212471Y-32219118D02*
X318212471Y-32049532D01*
X318212471Y-32049532D02*
X318212471Y-31852837D01*
X318212471Y-31852837D02*
X318212471Y-31630798D01*
X318212471Y-31630798D02*
X318212471Y-31385179D01*
X318212471Y-31385179D02*
X318212471Y-31117746D01*
X318212471Y-31117746D02*
X318212471Y-30830264D01*
X318212471Y-30830264D02*
X318212471Y-30524499D01*
X318212471Y-30524499D02*
X318212471Y-30202214D01*
X318212471Y-30202214D02*
X318212471Y-29865177D01*
X318212471Y-29865177D02*
X318212471Y-29515150D01*
X318212471Y-29515150D02*
X318212471Y-29153901D01*
X318212471Y-29153901D02*
X318212471Y-28783193D01*
X318212471Y-28783193D02*
X318212471Y-28404792D01*
X318212471Y-28404792D02*
X318212471Y-28020463D01*
X318212471Y-28020463D02*
X318212471Y-27631971D01*
X318212471Y-27631971D02*
X318212471Y-27241082D01*
X318212471Y-27241082D02*
X318212471Y-26849561D01*
X318212471Y-26849561D02*
X318212471Y-26459171D01*
X318212471Y-26459171D02*
X318212471Y-26071680D01*
X318212471Y-26071680D02*
X318212471Y-25688852D01*
X318212471Y-25688852D02*
X318212471Y-25312451D01*
X318212471Y-25312451D02*
X318212471Y-24944244D01*
X318212471Y-24944244D02*
X318212471Y-24585995D01*
X318212471Y-24585995D02*
X318212471Y-24239469D01*
X318212471Y-24239469D02*
X318212471Y-23906432D01*
X318212471Y-23906432D02*
X318212471Y-23588649D01*
X318212471Y-23588649D02*
X318212471Y-23287884D01*
X318212471Y-23287884D02*
X318212471Y-23005904D01*
X318212471Y-23005904D02*
X318212471Y-22744472D01*
X318212471Y-22744472D02*
X318212471Y-22505355D01*
X318212471Y-22505355D02*
X318212471Y-22290317D01*
X318212471Y-22290317D02*
X318212471Y-22101124D01*
X317831472Y-32600117D02*
X317944708Y-32582973D01*
X317944708Y-32582973D02*
X318044419Y-32535004D01*
X318044419Y-32535004D02*
X318125416Y-32461400D01*
X318125416Y-32461400D02*
X318182507Y-32367350D01*
X318182507Y-32367350D02*
X318210502Y-32258045D01*
X318210502Y-32258045D02*
X318212471Y-32219118D01*
X117806619Y-37349905D02*
X117806619Y-37349905D01*
X317331235Y-37850142D02*
X317431413Y-37839904D01*
X317431413Y-37839904D02*
X317547096Y-37800503D01*
X317547096Y-37800503D02*
X317648388Y-37735326D01*
X317648388Y-37735326D02*
X317731230Y-37648425D01*
X317731230Y-37648425D02*
X317791558Y-37543854D01*
X317791558Y-37543854D02*
X317825312Y-37425667D01*
X317825312Y-37425667D02*
X317831119Y-37349905D01*
X104306553Y-37850142D02*
X117306735Y-37850142D01*
X117306735Y-37850142D02*
X117406913Y-37839904D01*
X117406913Y-37839904D02*
X117522596Y-37800503D01*
X117522596Y-37800503D02*
X117623888Y-37735326D01*
X117623888Y-37735326D02*
X117706730Y-37648425D01*
X117706730Y-37648425D02*
X117767058Y-37543854D01*
X117767058Y-37543854D02*
X117800812Y-37425667D01*
X117800812Y-37425667D02*
X117806619Y-37349905D01*
X103806668Y-24350076D02*
X103806668Y-37349905D01*
X103806668Y-37349905D02*
X103816904Y-37450199D01*
X103816904Y-37450199D02*
X103856298Y-37565988D01*
X103856298Y-37565988D02*
X103921454Y-37667349D01*
X103921454Y-37667349D02*
X104008311Y-37750229D01*
X104008311Y-37750229D02*
X104112807Y-37810575D01*
X104112807Y-37810575D02*
X104230880Y-37844334D01*
X104230880Y-37844334D02*
X104306553Y-37850142D01*
X117306735Y-23849839D02*
X104306553Y-23849839D01*
X104306553Y-23849839D02*
X104206374Y-23860076D01*
X104206374Y-23860076D02*
X104090691Y-23899477D01*
X104090691Y-23899477D02*
X103989398Y-23964654D01*
X103989398Y-23964654D02*
X103906557Y-24051555D01*
X103906557Y-24051555D02*
X103846228Y-24156126D01*
X103846228Y-24156126D02*
X103812474Y-24274313D01*
X103812474Y-24274313D02*
X103806668Y-24350076D01*
X117806619Y-37349905D02*
X117806619Y-24350076D01*
X117806619Y-24350076D02*
X117796382Y-24249781D01*
X117796382Y-24249781D02*
X117756988Y-24133992D01*
X117756988Y-24133992D02*
X117691833Y-24032631D01*
X117691833Y-24032631D02*
X117604976Y-23949751D01*
X117604976Y-23949751D02*
X117500480Y-23889405D01*
X117500480Y-23889405D02*
X117382407Y-23855646D01*
X117382407Y-23855646D02*
X117306735Y-23849839D01*
X194006429Y-37349905D02*
X194006429Y-37349905D01*
X180506363Y-37850142D02*
X193506544Y-37850142D01*
X193506544Y-37850142D02*
X193606722Y-37839904D01*
X193606722Y-37839904D02*
X193722405Y-37800503D01*
X193722405Y-37800503D02*
X193823698Y-37735326D01*
X193823698Y-37735326D02*
X193906540Y-37648425D01*
X193906540Y-37648425D02*
X193966868Y-37543854D01*
X193966868Y-37543854D02*
X194000622Y-37425667D01*
X194000622Y-37425667D02*
X194006429Y-37349905D01*
X180006478Y-24350076D02*
X180006478Y-37349905D01*
X180006478Y-37349905D02*
X180016714Y-37450199D01*
X180016714Y-37450199D02*
X180056108Y-37565988D01*
X180056108Y-37565988D02*
X180121264Y-37667349D01*
X180121264Y-37667349D02*
X180208120Y-37750229D01*
X180208120Y-37750229D02*
X180312616Y-37810575D01*
X180312616Y-37810575D02*
X180430690Y-37844334D01*
X180430690Y-37844334D02*
X180506363Y-37850142D01*
X193506544Y-23849839D02*
X180506363Y-23849839D01*
X180506363Y-23849839D02*
X180406184Y-23860076D01*
X180406184Y-23860076D02*
X180290501Y-23899477D01*
X180290501Y-23899477D02*
X180189208Y-23964654D01*
X180189208Y-23964654D02*
X180106366Y-24051555D01*
X180106366Y-24051555D02*
X180046038Y-24156126D01*
X180046038Y-24156126D02*
X180012284Y-24274313D01*
X180012284Y-24274313D02*
X180006478Y-24350076D01*
X194006429Y-37349905D02*
X194006429Y-24350076D01*
X194006429Y-24350076D02*
X193996192Y-24249781D01*
X193996192Y-24249781D02*
X193956798Y-24133992D01*
X193956798Y-24133992D02*
X193891642Y-24032631D01*
X193891642Y-24032631D02*
X193804786Y-23949751D01*
X193804786Y-23949751D02*
X193700290Y-23889405D01*
X193700290Y-23889405D02*
X193582216Y-23855646D01*
X193582216Y-23855646D02*
X193506544Y-23849839D01*
X155906524Y-37349905D02*
X155906524Y-37349905D01*
X142406458Y-37850142D02*
X155406639Y-37850142D01*
X155406639Y-37850142D02*
X155506817Y-37839904D01*
X155506817Y-37839904D02*
X155622500Y-37800503D01*
X155622500Y-37800503D02*
X155723793Y-37735326D01*
X155723793Y-37735326D02*
X155806635Y-37648425D01*
X155806635Y-37648425D02*
X155866963Y-37543854D01*
X155866963Y-37543854D02*
X155900717Y-37425667D01*
X155900717Y-37425667D02*
X155906524Y-37349905D01*
X141906573Y-24350076D02*
X141906573Y-37349905D01*
X141906573Y-37349905D02*
X141916809Y-37450199D01*
X141916809Y-37450199D02*
X141956203Y-37565988D01*
X141956203Y-37565988D02*
X142021359Y-37667349D01*
X142021359Y-37667349D02*
X142108215Y-37750229D01*
X142108215Y-37750229D02*
X142212711Y-37810575D01*
X142212711Y-37810575D02*
X142330785Y-37844334D01*
X142330785Y-37844334D02*
X142406458Y-37850142D01*
X155406639Y-23849839D02*
X142406458Y-23849839D01*
X142406458Y-23849839D02*
X142306279Y-23860076D01*
X142306279Y-23860076D02*
X142190596Y-23899477D01*
X142190596Y-23899477D02*
X142089303Y-23964654D01*
X142089303Y-23964654D02*
X142006461Y-24051555D01*
X142006461Y-24051555D02*
X141946133Y-24156126D01*
X141946133Y-24156126D02*
X141912379Y-24274313D01*
X141912379Y-24274313D02*
X141906573Y-24350076D01*
X155906524Y-37349905D02*
X155906524Y-24350076D01*
X155906524Y-24350076D02*
X155896287Y-24249781D01*
X155896287Y-24249781D02*
X155856893Y-24133992D01*
X155856893Y-24133992D02*
X155791737Y-24032631D01*
X155791737Y-24032631D02*
X155704881Y-23949751D01*
X155704881Y-23949751D02*
X155600385Y-23889405D01*
X155600385Y-23889405D02*
X155482311Y-23855646D01*
X155482311Y-23855646D02*
X155406639Y-23849839D01*
X174956477Y-37349905D02*
X174956477Y-37349905D01*
X161456409Y-37850142D02*
X174456592Y-37850142D01*
X174456592Y-37850142D02*
X174556770Y-37839904D01*
X174556770Y-37839904D02*
X174672453Y-37800503D01*
X174672453Y-37800503D02*
X174773746Y-37735326D01*
X174773746Y-37735326D02*
X174856587Y-37648425D01*
X174856587Y-37648425D02*
X174916916Y-37543854D01*
X174916916Y-37543854D02*
X174950670Y-37425667D01*
X174950670Y-37425667D02*
X174956477Y-37349905D01*
X160956525Y-24350076D02*
X160956525Y-37349905D01*
X160956525Y-37349905D02*
X160966761Y-37450199D01*
X160966761Y-37450199D02*
X161006155Y-37565988D01*
X161006155Y-37565988D02*
X161071311Y-37667349D01*
X161071311Y-37667349D02*
X161158167Y-37750229D01*
X161158167Y-37750229D02*
X161262663Y-37810575D01*
X161262663Y-37810575D02*
X161380737Y-37844334D01*
X161380737Y-37844334D02*
X161456409Y-37850142D01*
X174456592Y-23849839D02*
X161456409Y-23849839D01*
X161456409Y-23849839D02*
X161356231Y-23860076D01*
X161356231Y-23860076D02*
X161240548Y-23899477D01*
X161240548Y-23899477D02*
X161139255Y-23964654D01*
X161139255Y-23964654D02*
X161056414Y-24051555D01*
X161056414Y-24051555D02*
X160996085Y-24156126D01*
X160996085Y-24156126D02*
X160962331Y-24274313D01*
X160962331Y-24274313D02*
X160956525Y-24350076D01*
X174956477Y-37349905D02*
X174956477Y-24350076D01*
X174956477Y-24350076D02*
X174946240Y-24249781D01*
X174946240Y-24249781D02*
X174906846Y-24133992D01*
X174906846Y-24133992D02*
X174841690Y-24032631D01*
X174841690Y-24032631D02*
X174754833Y-23949751D01*
X174754833Y-23949751D02*
X174650337Y-23889405D01*
X174650337Y-23889405D02*
X174532264Y-23855646D01*
X174532264Y-23855646D02*
X174456592Y-23849839D01*
X55394389Y-23849839D02*
X55394389Y-23849839D01*
X55894274Y-37349905D02*
X55894274Y-24350076D01*
X55894274Y-24350076D02*
X55884037Y-24249781D01*
X55884037Y-24249781D02*
X55844643Y-24133992D01*
X55844643Y-24133992D02*
X55779487Y-24032631D01*
X55779487Y-24032631D02*
X55692631Y-23949751D01*
X55692631Y-23949751D02*
X55588135Y-23889405D01*
X55588135Y-23889405D02*
X55470061Y-23855646D01*
X55470061Y-23855646D02*
X55394389Y-23849839D01*
X42394208Y-37850142D02*
X55394389Y-37850142D01*
X55394389Y-37850142D02*
X55494567Y-37839904D01*
X55494567Y-37839904D02*
X55610250Y-37800503D01*
X55610250Y-37800503D02*
X55711543Y-37735326D01*
X55711543Y-37735326D02*
X55794385Y-37648425D01*
X55794385Y-37648425D02*
X55854713Y-37543854D01*
X55854713Y-37543854D02*
X55888467Y-37425667D01*
X55888467Y-37425667D02*
X55894274Y-37349905D01*
X41894323Y-24350076D02*
X41894323Y-37349905D01*
X41894323Y-37349905D02*
X41904559Y-37450199D01*
X41904559Y-37450199D02*
X41943953Y-37565988D01*
X41943953Y-37565988D02*
X42009109Y-37667349D01*
X42009109Y-37667349D02*
X42095965Y-37750229D01*
X42095965Y-37750229D02*
X42200461Y-37810575D01*
X42200461Y-37810575D02*
X42318535Y-37844334D01*
X42318535Y-37844334D02*
X42394208Y-37850142D01*
X55394389Y-23849839D02*
X42394208Y-23849839D01*
X42394208Y-23849839D02*
X42294029Y-23860076D01*
X42294029Y-23860076D02*
X42178346Y-23899477D01*
X42178346Y-23899477D02*
X42077053Y-23964654D01*
X42077053Y-23964654D02*
X41994211Y-24051555D01*
X41994211Y-24051555D02*
X41933883Y-24156126D01*
X41933883Y-24156126D02*
X41900129Y-24274313D01*
X41900129Y-24274313D02*
X41894323Y-24350076D01*
X213056381Y-37349905D02*
X213056381Y-37349905D01*
X199556315Y-37850142D02*
X212556496Y-37850142D01*
X212556496Y-37850142D02*
X212656674Y-37839904D01*
X212656674Y-37839904D02*
X212772357Y-37800503D01*
X212772357Y-37800503D02*
X212873650Y-37735326D01*
X212873650Y-37735326D02*
X212956492Y-37648425D01*
X212956492Y-37648425D02*
X213016820Y-37543854D01*
X213016820Y-37543854D02*
X213050574Y-37425667D01*
X213050574Y-37425667D02*
X213056381Y-37349905D01*
X199056430Y-24350076D02*
X199056430Y-37349905D01*
X199056430Y-37349905D02*
X199066666Y-37450199D01*
X199066666Y-37450199D02*
X199106060Y-37565988D01*
X199106060Y-37565988D02*
X199171216Y-37667349D01*
X199171216Y-37667349D02*
X199258072Y-37750229D01*
X199258072Y-37750229D02*
X199362568Y-37810575D01*
X199362568Y-37810575D02*
X199480642Y-37844334D01*
X199480642Y-37844334D02*
X199556315Y-37850142D01*
X212556496Y-23849839D02*
X199556315Y-23849839D01*
X199556315Y-23849839D02*
X199456136Y-23860076D01*
X199456136Y-23860076D02*
X199340453Y-23899477D01*
X199340453Y-23899477D02*
X199239160Y-23964654D01*
X199239160Y-23964654D02*
X199156318Y-24051555D01*
X199156318Y-24051555D02*
X199095990Y-24156126D01*
X199095990Y-24156126D02*
X199062236Y-24274313D01*
X199062236Y-24274313D02*
X199056430Y-24350076D01*
X213056381Y-37349905D02*
X213056381Y-24350076D01*
X213056381Y-24350076D02*
X213046144Y-24249781D01*
X213046144Y-24249781D02*
X213006750Y-24133992D01*
X213006750Y-24133992D02*
X212941594Y-24032631D01*
X212941594Y-24032631D02*
X212854738Y-23949751D01*
X212854738Y-23949751D02*
X212750242Y-23889405D01*
X212750242Y-23889405D02*
X212632168Y-23855646D01*
X212632168Y-23855646D02*
X212556496Y-23849839D01*
X98756667Y-37349905D02*
X98756667Y-37349905D01*
X85256601Y-37850142D02*
X98256782Y-37850142D01*
X98256782Y-37850142D02*
X98356960Y-37839904D01*
X98356960Y-37839904D02*
X98472643Y-37800503D01*
X98472643Y-37800503D02*
X98573936Y-37735326D01*
X98573936Y-37735326D02*
X98656778Y-37648425D01*
X98656778Y-37648425D02*
X98717106Y-37543854D01*
X98717106Y-37543854D02*
X98750860Y-37425667D01*
X98750860Y-37425667D02*
X98756667Y-37349905D01*
X84756716Y-24350076D02*
X84756716Y-37349905D01*
X84756716Y-37349905D02*
X84766952Y-37450199D01*
X84766952Y-37450199D02*
X84806346Y-37565988D01*
X84806346Y-37565988D02*
X84871502Y-37667349D01*
X84871502Y-37667349D02*
X84958358Y-37750229D01*
X84958358Y-37750229D02*
X85062854Y-37810575D01*
X85062854Y-37810575D02*
X85180928Y-37844334D01*
X85180928Y-37844334D02*
X85256601Y-37850142D01*
X98256782Y-23849839D02*
X85256601Y-23849839D01*
X85256601Y-23849839D02*
X85156422Y-23860076D01*
X85156422Y-23860076D02*
X85040739Y-23899477D01*
X85040739Y-23899477D02*
X84939446Y-23964654D01*
X84939446Y-23964654D02*
X84856604Y-24051555D01*
X84856604Y-24051555D02*
X84796276Y-24156126D01*
X84796276Y-24156126D02*
X84762522Y-24274313D01*
X84762522Y-24274313D02*
X84756716Y-24350076D01*
X98756667Y-37349905D02*
X98756667Y-24350076D01*
X98756667Y-24350076D02*
X98746430Y-24249781D01*
X98746430Y-24249781D02*
X98707036Y-24133992D01*
X98707036Y-24133992D02*
X98641880Y-24032631D01*
X98641880Y-24032631D02*
X98555024Y-23949751D01*
X98555024Y-23949751D02*
X98450528Y-23889405D01*
X98450528Y-23889405D02*
X98332454Y-23855646D01*
X98332454Y-23855646D02*
X98256782Y-23849839D01*
X232106334Y-37349905D02*
X232106334Y-37349905D01*
X218606267Y-37850142D02*
X231606449Y-37850142D01*
X231606449Y-37850142D02*
X231706627Y-37839904D01*
X231706627Y-37839904D02*
X231822310Y-37800503D01*
X231822310Y-37800503D02*
X231923603Y-37735326D01*
X231923603Y-37735326D02*
X232006445Y-37648425D01*
X232006445Y-37648425D02*
X232066773Y-37543854D01*
X232066773Y-37543854D02*
X232100527Y-37425667D01*
X232100527Y-37425667D02*
X232106334Y-37349905D01*
X218106383Y-24350076D02*
X218106383Y-37349905D01*
X218106383Y-37349905D02*
X218116619Y-37450199D01*
X218116619Y-37450199D02*
X218156013Y-37565988D01*
X218156013Y-37565988D02*
X218221168Y-37667349D01*
X218221168Y-37667349D02*
X218308025Y-37750229D01*
X218308025Y-37750229D02*
X218412521Y-37810575D01*
X218412521Y-37810575D02*
X218530594Y-37844334D01*
X218530594Y-37844334D02*
X218606267Y-37850142D01*
X231606449Y-23849839D02*
X218606267Y-23849839D01*
X218606267Y-23849839D02*
X218506088Y-23860076D01*
X218506088Y-23860076D02*
X218390405Y-23899477D01*
X218390405Y-23899477D02*
X218289113Y-23964654D01*
X218289113Y-23964654D02*
X218206271Y-24051555D01*
X218206271Y-24051555D02*
X218145943Y-24156126D01*
X218145943Y-24156126D02*
X218112189Y-24274313D01*
X218112189Y-24274313D02*
X218106383Y-24350076D01*
X232106334Y-37349905D02*
X232106334Y-24350076D01*
X232106334Y-24350076D02*
X232096097Y-24249781D01*
X232096097Y-24249781D02*
X232056703Y-24133992D01*
X232056703Y-24133992D02*
X231991547Y-24032631D01*
X231991547Y-24032631D02*
X231904691Y-23949751D01*
X231904691Y-23949751D02*
X231800195Y-23889405D01*
X231800195Y-23889405D02*
X231682121Y-23855646D01*
X231682121Y-23855646D02*
X231606449Y-23849839D01*
X66206648Y-37850142D02*
X66206648Y-37850142D01*
X65706764Y-24350076D02*
X65706764Y-37349905D01*
X65706764Y-37349905D02*
X65717000Y-37450199D01*
X65717000Y-37450199D02*
X65756394Y-37565988D01*
X65756394Y-37565988D02*
X65821549Y-37667349D01*
X65821549Y-37667349D02*
X65908406Y-37750229D01*
X65908406Y-37750229D02*
X66012902Y-37810575D01*
X66012902Y-37810575D02*
X66130975Y-37844334D01*
X66130975Y-37844334D02*
X66206648Y-37850142D01*
X79206830Y-23849839D02*
X66206648Y-23849839D01*
X66206648Y-23849839D02*
X66106469Y-23860076D01*
X66106469Y-23860076D02*
X65990786Y-23899477D01*
X65990786Y-23899477D02*
X65889494Y-23964654D01*
X65889494Y-23964654D02*
X65806652Y-24051555D01*
X65806652Y-24051555D02*
X65746324Y-24156126D01*
X65746324Y-24156126D02*
X65712570Y-24274313D01*
X65712570Y-24274313D02*
X65706764Y-24350076D01*
X79706715Y-37349905D02*
X79706715Y-24350076D01*
X79706715Y-24350076D02*
X79696478Y-24249781D01*
X79696478Y-24249781D02*
X79657084Y-24133992D01*
X79657084Y-24133992D02*
X79591928Y-24032631D01*
X79591928Y-24032631D02*
X79505072Y-23949751D01*
X79505072Y-23949751D02*
X79400576Y-23889405D01*
X79400576Y-23889405D02*
X79282502Y-23855646D01*
X79282502Y-23855646D02*
X79206830Y-23849839D01*
X66206648Y-37850142D02*
X79206830Y-37850142D01*
X79206830Y-37850142D02*
X79307008Y-37839904D01*
X79307008Y-37839904D02*
X79422691Y-37800503D01*
X79422691Y-37800503D02*
X79523984Y-37735326D01*
X79523984Y-37735326D02*
X79606826Y-37648425D01*
X79606826Y-37648425D02*
X79667154Y-37543854D01*
X79667154Y-37543854D02*
X79700908Y-37425667D01*
X79700908Y-37425667D02*
X79706715Y-37349905D01*
X39356799Y-40302295D02*
X39356799Y-40302295D01*
X57775633Y-42899791D02*
X57775633Y-42899791D01*
X39356799Y-49880187D02*
X39356799Y-49701145D01*
X39356799Y-49701145D02*
X39356799Y-49498826D01*
X39356799Y-49498826D02*
X39356799Y-49274781D01*
X39356799Y-49274781D02*
X39356799Y-49030562D01*
X39356799Y-49030562D02*
X39356799Y-48767721D01*
X39356799Y-48767721D02*
X39356799Y-48487810D01*
X39356799Y-48487810D02*
X39356799Y-48192380D01*
X39356799Y-48192380D02*
X39356799Y-47882984D01*
X39356799Y-47882984D02*
X39356799Y-47561174D01*
X39356799Y-47561174D02*
X39356799Y-47228500D01*
X39356799Y-47228500D02*
X39356799Y-46886515D01*
X39356799Y-46886515D02*
X39356799Y-46536771D01*
X39356799Y-46536771D02*
X39356799Y-46180820D01*
X39356799Y-46180820D02*
X39356799Y-45820213D01*
X39356799Y-45820213D02*
X39356799Y-45456503D01*
X39356799Y-45456503D02*
X39356799Y-45091241D01*
X39356799Y-45091241D02*
X39356799Y-44725978D01*
X39356799Y-44725978D02*
X39356799Y-44362268D01*
X39356799Y-44362268D02*
X39356799Y-44001661D01*
X39356799Y-44001661D02*
X39356799Y-43645710D01*
X39356799Y-43645710D02*
X39356799Y-43295966D01*
X39356799Y-43295966D02*
X39356799Y-42953981D01*
X39356799Y-42953981D02*
X39356799Y-42621307D01*
X39356799Y-42621307D02*
X39356799Y-42299497D01*
X39356799Y-42299497D02*
X39356799Y-41990101D01*
X39356799Y-41990101D02*
X39356799Y-41694671D01*
X39356799Y-41694671D02*
X39356799Y-41414760D01*
X39356799Y-41414760D02*
X39356799Y-41151919D01*
X39356799Y-41151919D02*
X39356799Y-40907700D01*
X39356799Y-40907700D02*
X39356799Y-40683655D01*
X39356799Y-40683655D02*
X39356799Y-40481336D01*
X39356799Y-40481336D02*
X39356799Y-40302295D01*
X38856914Y-50380072D02*
X38957699Y-50369907D01*
X38957699Y-50369907D02*
X39073698Y-50330742D01*
X39073698Y-50330742D02*
X39174947Y-50265855D01*
X39174947Y-50265855D02*
X39257532Y-50179187D01*
X39257532Y-50179187D02*
X39317535Y-50074677D01*
X39317535Y-50074677D02*
X39351042Y-49956266D01*
X39351042Y-49956266D02*
X39356799Y-49880187D01*
X37094441Y-50380072D02*
X37241457Y-50380072D01*
X37241457Y-50380072D02*
X37345910Y-50380072D01*
X37345910Y-50380072D02*
X37454615Y-50380072D01*
X37454615Y-50380072D02*
X37566799Y-50380072D01*
X37566799Y-50380072D02*
X37681688Y-50380072D01*
X37681688Y-50380072D02*
X37798511Y-50380072D01*
X37798511Y-50380072D02*
X37916493Y-50380072D01*
X37916493Y-50380072D02*
X38034861Y-50380072D01*
X38034861Y-50380072D02*
X38152843Y-50380072D01*
X38152843Y-50380072D02*
X38269666Y-50380072D01*
X38269666Y-50380072D02*
X38384555Y-50380072D01*
X38384555Y-50380072D02*
X38496739Y-50380072D01*
X38496739Y-50380072D02*
X38605444Y-50380072D01*
X38605444Y-50380072D02*
X38709897Y-50380072D01*
X38709897Y-50380072D02*
X38856914Y-50380072D01*
X36594556Y-49880187D02*
X36604705Y-49980871D01*
X36604705Y-49980871D02*
X36643825Y-50096817D01*
X36643825Y-50096817D02*
X36708658Y-50198074D01*
X36708658Y-50198074D02*
X36795289Y-50280701D01*
X36795289Y-50280701D02*
X36899801Y-50340759D01*
X36899801Y-50340759D02*
X37018279Y-50374307D01*
X37018279Y-50374307D02*
X37094441Y-50380072D01*
X36594556Y-40302295D02*
X36594556Y-40481336D01*
X36594556Y-40481336D02*
X36594556Y-40683655D01*
X36594556Y-40683655D02*
X36594556Y-40907700D01*
X36594556Y-40907700D02*
X36594556Y-41151919D01*
X36594556Y-41151919D02*
X36594556Y-41414760D01*
X36594556Y-41414760D02*
X36594556Y-41694671D01*
X36594556Y-41694671D02*
X36594556Y-41990101D01*
X36594556Y-41990101D02*
X36594556Y-42299497D01*
X36594556Y-42299497D02*
X36594556Y-42621307D01*
X36594556Y-42621307D02*
X36594556Y-42953981D01*
X36594556Y-42953981D02*
X36594556Y-43295966D01*
X36594556Y-43295966D02*
X36594556Y-43645710D01*
X36594556Y-43645710D02*
X36594556Y-44001661D01*
X36594556Y-44001661D02*
X36594556Y-44362268D01*
X36594556Y-44362268D02*
X36594556Y-44725978D01*
X36594556Y-44725978D02*
X36594556Y-45091241D01*
X36594556Y-45091241D02*
X36594556Y-45456503D01*
X36594556Y-45456503D02*
X36594556Y-45820213D01*
X36594556Y-45820213D02*
X36594556Y-46180820D01*
X36594556Y-46180820D02*
X36594556Y-46536771D01*
X36594556Y-46536771D02*
X36594556Y-46886515D01*
X36594556Y-46886515D02*
X36594556Y-47228500D01*
X36594556Y-47228500D02*
X36594556Y-47561174D01*
X36594556Y-47561174D02*
X36594556Y-47882984D01*
X36594556Y-47882984D02*
X36594556Y-48192380D01*
X36594556Y-48192380D02*
X36594556Y-48487810D01*
X36594556Y-48487810D02*
X36594556Y-48767721D01*
X36594556Y-48767721D02*
X36594556Y-49030562D01*
X36594556Y-49030562D02*
X36594556Y-49274781D01*
X36594556Y-49274781D02*
X36594556Y-49498826D01*
X36594556Y-49498826D02*
X36594556Y-49701145D01*
X36594556Y-49701145D02*
X36594556Y-49880187D01*
X37094441Y-39802410D02*
X36993654Y-39812574D01*
X36993654Y-39812574D02*
X36877656Y-39851739D01*
X36877656Y-39851739D02*
X36776407Y-39916626D01*
X36776407Y-39916626D02*
X36693822Y-40003294D01*
X36693822Y-40003294D02*
X36633818Y-40107804D01*
X36633818Y-40107804D02*
X36600312Y-40226215D01*
X36600312Y-40226215D02*
X36594556Y-40302295D01*
X38856914Y-39802410D02*
X38709897Y-39802410D01*
X38709897Y-39802410D02*
X38605444Y-39802410D01*
X38605444Y-39802410D02*
X38496739Y-39802410D01*
X38496739Y-39802410D02*
X38384555Y-39802410D01*
X38384555Y-39802410D02*
X38269666Y-39802410D01*
X38269666Y-39802410D02*
X38152843Y-39802410D01*
X38152843Y-39802410D02*
X38034861Y-39802410D01*
X38034861Y-39802410D02*
X37916493Y-39802410D01*
X37916493Y-39802410D02*
X37798511Y-39802410D01*
X37798511Y-39802410D02*
X37681688Y-39802410D01*
X37681688Y-39802410D02*
X37566799Y-39802410D01*
X37566799Y-39802410D02*
X37454615Y-39802410D01*
X37454615Y-39802410D02*
X37345910Y-39802410D01*
X37345910Y-39802410D02*
X37241457Y-39802410D01*
X37241457Y-39802410D02*
X37094441Y-39802410D01*
X39356799Y-40302295D02*
X39346649Y-40201610D01*
X39346649Y-40201610D02*
X39307529Y-40085664D01*
X39307529Y-40085664D02*
X39242696Y-39984407D01*
X39242696Y-39984407D02*
X39156065Y-39901780D01*
X39156065Y-39901780D02*
X39051553Y-39841722D01*
X39051553Y-39841722D02*
X38933075Y-39808174D01*
X38933075Y-39808174D02*
X38856914Y-39802410D01*
X58275518Y-56399857D02*
X58275518Y-43400029D01*
X58275518Y-43400029D02*
X58265281Y-43299734D01*
X58265281Y-43299734D02*
X58225887Y-43183945D01*
X58225887Y-43183945D02*
X58160731Y-43082584D01*
X58160731Y-43082584D02*
X58073875Y-42999703D01*
X58073875Y-42999703D02*
X57969379Y-42939357D01*
X57969379Y-42939357D02*
X57851305Y-42905598D01*
X57851305Y-42905598D02*
X57775633Y-42899791D01*
X42394208Y-56900095D02*
X57775633Y-56900095D01*
X57775633Y-56900095D02*
X57875811Y-56889857D01*
X57875811Y-56889857D02*
X57991494Y-56850456D01*
X57991494Y-56850456D02*
X58092787Y-56785279D01*
X58092787Y-56785279D02*
X58175629Y-56698378D01*
X58175629Y-56698378D02*
X58235957Y-56593807D01*
X58235957Y-56593807D02*
X58269711Y-56475619D01*
X58269711Y-56475619D02*
X58275518Y-56399857D01*
X41894323Y-43400029D02*
X41894323Y-56399857D01*
X41894323Y-56399857D02*
X41904559Y-56500151D01*
X41904559Y-56500151D02*
X41943953Y-56615940D01*
X41943953Y-56615940D02*
X42009109Y-56717301D01*
X42009109Y-56717301D02*
X42095965Y-56800182D01*
X42095965Y-56800182D02*
X42200461Y-56860528D01*
X42200461Y-56860528D02*
X42318535Y-56894287D01*
X42318535Y-56894287D02*
X42394208Y-56900095D01*
X57775633Y-42899791D02*
X42394208Y-42899791D01*
X42394208Y-42899791D02*
X42294029Y-42910028D01*
X42294029Y-42910028D02*
X42178346Y-42949429D01*
X42178346Y-42949429D02*
X42077053Y-43014606D01*
X42077053Y-43014606D02*
X41994211Y-43101507D01*
X41994211Y-43101507D02*
X41933883Y-43206078D01*
X41933883Y-43206078D02*
X41900129Y-43324266D01*
X41900129Y-43324266D02*
X41894323Y-43400029D01*
X98756667Y-56399857D02*
X98756667Y-56399857D01*
X85256601Y-56900095D02*
X98256782Y-56900095D01*
X98256782Y-56900095D02*
X98356960Y-56889857D01*
X98356960Y-56889857D02*
X98472643Y-56850456D01*
X98472643Y-56850456D02*
X98573936Y-56785279D01*
X98573936Y-56785279D02*
X98656778Y-56698378D01*
X98656778Y-56698378D02*
X98717106Y-56593807D01*
X98717106Y-56593807D02*
X98750860Y-56475619D01*
X98750860Y-56475619D02*
X98756667Y-56399857D01*
X84756716Y-43400029D02*
X84756716Y-56399857D01*
X84756716Y-56399857D02*
X84766952Y-56500151D01*
X84766952Y-56500151D02*
X84806346Y-56615940D01*
X84806346Y-56615940D02*
X84871502Y-56717301D01*
X84871502Y-56717301D02*
X84958358Y-56800182D01*
X84958358Y-56800182D02*
X85062854Y-56860528D01*
X85062854Y-56860528D02*
X85180928Y-56894287D01*
X85180928Y-56894287D02*
X85256601Y-56900095D01*
X98256782Y-42899791D02*
X85256601Y-42899791D01*
X85256601Y-42899791D02*
X85156422Y-42910028D01*
X85156422Y-42910028D02*
X85040739Y-42949429D01*
X85040739Y-42949429D02*
X84939446Y-43014606D01*
X84939446Y-43014606D02*
X84856604Y-43101507D01*
X84856604Y-43101507D02*
X84796276Y-43206078D01*
X84796276Y-43206078D02*
X84762522Y-43324266D01*
X84762522Y-43324266D02*
X84756716Y-43400029D01*
X98756667Y-56399857D02*
X98756667Y-43400029D01*
X98756667Y-43400029D02*
X98746430Y-43299734D01*
X98746430Y-43299734D02*
X98707036Y-43183945D01*
X98707036Y-43183945D02*
X98641880Y-43082584D01*
X98641880Y-43082584D02*
X98555024Y-42999703D01*
X98555024Y-42999703D02*
X98450528Y-42939357D01*
X98450528Y-42939357D02*
X98332454Y-42905598D01*
X98332454Y-42905598D02*
X98256782Y-42899791D01*
X174956477Y-56399857D02*
X174956477Y-56399857D01*
X161456409Y-56900095D02*
X174456592Y-56900095D01*
X174456592Y-56900095D02*
X174556770Y-56889857D01*
X174556770Y-56889857D02*
X174672453Y-56850456D01*
X174672453Y-56850456D02*
X174773746Y-56785279D01*
X174773746Y-56785279D02*
X174856587Y-56698378D01*
X174856587Y-56698378D02*
X174916916Y-56593807D01*
X174916916Y-56593807D02*
X174950670Y-56475619D01*
X174950670Y-56475619D02*
X174956477Y-56399857D01*
X160956525Y-43400029D02*
X160956525Y-56399857D01*
X160956525Y-56399857D02*
X160966761Y-56500151D01*
X160966761Y-56500151D02*
X161006155Y-56615940D01*
X161006155Y-56615940D02*
X161071311Y-56717301D01*
X161071311Y-56717301D02*
X161158167Y-56800182D01*
X161158167Y-56800182D02*
X161262663Y-56860528D01*
X161262663Y-56860528D02*
X161380737Y-56894287D01*
X161380737Y-56894287D02*
X161456409Y-56900095D01*
X174456592Y-42899791D02*
X161456409Y-42899791D01*
X161456409Y-42899791D02*
X161356231Y-42910028D01*
X161356231Y-42910028D02*
X161240548Y-42949429D01*
X161240548Y-42949429D02*
X161139255Y-43014606D01*
X161139255Y-43014606D02*
X161056414Y-43101507D01*
X161056414Y-43101507D02*
X160996085Y-43206078D01*
X160996085Y-43206078D02*
X160962331Y-43324266D01*
X160962331Y-43324266D02*
X160956525Y-43400029D01*
X174956477Y-56399857D02*
X174956477Y-43400029D01*
X174956477Y-43400029D02*
X174946240Y-43299734D01*
X174946240Y-43299734D02*
X174906846Y-43183945D01*
X174906846Y-43183945D02*
X174841690Y-43082584D01*
X174841690Y-43082584D02*
X174754833Y-42999703D01*
X174754833Y-42999703D02*
X174650337Y-42939357D01*
X174650337Y-42939357D02*
X174532264Y-42905598D01*
X174532264Y-42905598D02*
X174456592Y-42899791D01*
X194006429Y-56399857D02*
X194006429Y-56399857D01*
X180506363Y-56900095D02*
X193506544Y-56900095D01*
X193506544Y-56900095D02*
X193606722Y-56889857D01*
X193606722Y-56889857D02*
X193722405Y-56850456D01*
X193722405Y-56850456D02*
X193823698Y-56785279D01*
X193823698Y-56785279D02*
X193906540Y-56698378D01*
X193906540Y-56698378D02*
X193966868Y-56593807D01*
X193966868Y-56593807D02*
X194000622Y-56475619D01*
X194000622Y-56475619D02*
X194006429Y-56399857D01*
X180006478Y-43400029D02*
X180006478Y-56399857D01*
X180006478Y-56399857D02*
X180016714Y-56500151D01*
X180016714Y-56500151D02*
X180056108Y-56615940D01*
X180056108Y-56615940D02*
X180121264Y-56717301D01*
X180121264Y-56717301D02*
X180208120Y-56800182D01*
X180208120Y-56800182D02*
X180312616Y-56860528D01*
X180312616Y-56860528D02*
X180430690Y-56894287D01*
X180430690Y-56894287D02*
X180506363Y-56900095D01*
X193506544Y-42899791D02*
X180506363Y-42899791D01*
X180506363Y-42899791D02*
X180406184Y-42910028D01*
X180406184Y-42910028D02*
X180290501Y-42949429D01*
X180290501Y-42949429D02*
X180189208Y-43014606D01*
X180189208Y-43014606D02*
X180106366Y-43101507D01*
X180106366Y-43101507D02*
X180046038Y-43206078D01*
X180046038Y-43206078D02*
X180012284Y-43324266D01*
X180012284Y-43324266D02*
X180006478Y-43400029D01*
X194006429Y-56399857D02*
X194006429Y-43400029D01*
X194006429Y-43400029D02*
X193996192Y-43299734D01*
X193996192Y-43299734D02*
X193956798Y-43183945D01*
X193956798Y-43183945D02*
X193891642Y-43082584D01*
X193891642Y-43082584D02*
X193804786Y-42999703D01*
X193804786Y-42999703D02*
X193700290Y-42939357D01*
X193700290Y-42939357D02*
X193582216Y-42905598D01*
X193582216Y-42905598D02*
X193506544Y-42899791D01*
X155906524Y-56399857D02*
X155906524Y-56399857D01*
X142406458Y-56900095D02*
X155406639Y-56900095D01*
X155406639Y-56900095D02*
X155506817Y-56889857D01*
X155506817Y-56889857D02*
X155622500Y-56850456D01*
X155622500Y-56850456D02*
X155723793Y-56785279D01*
X155723793Y-56785279D02*
X155806635Y-56698378D01*
X155806635Y-56698378D02*
X155866963Y-56593807D01*
X155866963Y-56593807D02*
X155900717Y-56475619D01*
X155900717Y-56475619D02*
X155906524Y-56399857D01*
X141906573Y-43400029D02*
X141906573Y-56399857D01*
X141906573Y-56399857D02*
X141916809Y-56500151D01*
X141916809Y-56500151D02*
X141956203Y-56615940D01*
X141956203Y-56615940D02*
X142021359Y-56717301D01*
X142021359Y-56717301D02*
X142108215Y-56800182D01*
X142108215Y-56800182D02*
X142212711Y-56860528D01*
X142212711Y-56860528D02*
X142330785Y-56894287D01*
X142330785Y-56894287D02*
X142406458Y-56900095D01*
X155406639Y-42899791D02*
X142406458Y-42899791D01*
X142406458Y-42899791D02*
X142306279Y-42910028D01*
X142306279Y-42910028D02*
X142190596Y-42949429D01*
X142190596Y-42949429D02*
X142089303Y-43014606D01*
X142089303Y-43014606D02*
X142006461Y-43101507D01*
X142006461Y-43101507D02*
X141946133Y-43206078D01*
X141946133Y-43206078D02*
X141912379Y-43324266D01*
X141912379Y-43324266D02*
X141906573Y-43400029D01*
X155906524Y-56399857D02*
X155906524Y-43400029D01*
X155906524Y-43400029D02*
X155896287Y-43299734D01*
X155896287Y-43299734D02*
X155856893Y-43183945D01*
X155856893Y-43183945D02*
X155791737Y-43082584D01*
X155791737Y-43082584D02*
X155704881Y-42999703D01*
X155704881Y-42999703D02*
X155600385Y-42939357D01*
X155600385Y-42939357D02*
X155482311Y-42905598D01*
X155482311Y-42905598D02*
X155406639Y-42899791D01*
X117806619Y-56399857D02*
X117806619Y-56399857D01*
X104306553Y-56900095D02*
X117306735Y-56900095D01*
X117306735Y-56900095D02*
X117406913Y-56889857D01*
X117406913Y-56889857D02*
X117522596Y-56850456D01*
X117522596Y-56850456D02*
X117623888Y-56785279D01*
X117623888Y-56785279D02*
X117706730Y-56698378D01*
X117706730Y-56698378D02*
X117767058Y-56593807D01*
X117767058Y-56593807D02*
X117800812Y-56475619D01*
X117800812Y-56475619D02*
X117806619Y-56399857D01*
X103806668Y-43400029D02*
X103806668Y-56399857D01*
X103806668Y-56399857D02*
X103816904Y-56500151D01*
X103816904Y-56500151D02*
X103856298Y-56615940D01*
X103856298Y-56615940D02*
X103921454Y-56717301D01*
X103921454Y-56717301D02*
X104008311Y-56800182D01*
X104008311Y-56800182D02*
X104112807Y-56860528D01*
X104112807Y-56860528D02*
X104230880Y-56894287D01*
X104230880Y-56894287D02*
X104306553Y-56900095D01*
X117306735Y-42899791D02*
X104306553Y-42899791D01*
X104306553Y-42899791D02*
X104206374Y-42910028D01*
X104206374Y-42910028D02*
X104090691Y-42949429D01*
X104090691Y-42949429D02*
X103989398Y-43014606D01*
X103989398Y-43014606D02*
X103906557Y-43101507D01*
X103906557Y-43101507D02*
X103846228Y-43206078D01*
X103846228Y-43206078D02*
X103812474Y-43324266D01*
X103812474Y-43324266D02*
X103806668Y-43400029D01*
X117806619Y-56399857D02*
X117806619Y-43400029D01*
X117806619Y-43400029D02*
X117796382Y-43299734D01*
X117796382Y-43299734D02*
X117756988Y-43183945D01*
X117756988Y-43183945D02*
X117691833Y-43082584D01*
X117691833Y-43082584D02*
X117604976Y-42999703D01*
X117604976Y-42999703D02*
X117500480Y-42939357D01*
X117500480Y-42939357D02*
X117382407Y-42905598D01*
X117382407Y-42905598D02*
X117306735Y-42899791D01*
X66206648Y-56900095D02*
X66206648Y-56900095D01*
X65706764Y-43400029D02*
X65706764Y-56399857D01*
X65706764Y-56399857D02*
X65717000Y-56500151D01*
X65717000Y-56500151D02*
X65756394Y-56615940D01*
X65756394Y-56615940D02*
X65821549Y-56717301D01*
X65821549Y-56717301D02*
X65908406Y-56800182D01*
X65908406Y-56800182D02*
X66012902Y-56860528D01*
X66012902Y-56860528D02*
X66130975Y-56894287D01*
X66130975Y-56894287D02*
X66206648Y-56900095D01*
X79206830Y-42899791D02*
X66206648Y-42899791D01*
X66206648Y-42899791D02*
X66106469Y-42910028D01*
X66106469Y-42910028D02*
X65990786Y-42949429D01*
X65990786Y-42949429D02*
X65889494Y-43014606D01*
X65889494Y-43014606D02*
X65806652Y-43101507D01*
X65806652Y-43101507D02*
X65746324Y-43206078D01*
X65746324Y-43206078D02*
X65712570Y-43324266D01*
X65712570Y-43324266D02*
X65706764Y-43400029D01*
X79706715Y-56399857D02*
X79706715Y-43400029D01*
X79706715Y-43400029D02*
X79696478Y-43299734D01*
X79696478Y-43299734D02*
X79657084Y-43183945D01*
X79657084Y-43183945D02*
X79591928Y-43082584D01*
X79591928Y-43082584D02*
X79505072Y-42999703D01*
X79505072Y-42999703D02*
X79400576Y-42939357D01*
X79400576Y-42939357D02*
X79282502Y-42905598D01*
X79282502Y-42905598D02*
X79206830Y-42899791D01*
X66206648Y-56900095D02*
X79206830Y-56900095D01*
X79206830Y-56900095D02*
X79307008Y-56889857D01*
X79307008Y-56889857D02*
X79422691Y-56850456D01*
X79422691Y-56850456D02*
X79523984Y-56785279D01*
X79523984Y-56785279D02*
X79606826Y-56698378D01*
X79606826Y-56698378D02*
X79667154Y-56593807D01*
X79667154Y-56593807D02*
X79700908Y-56475619D01*
X79700908Y-56475619D02*
X79706715Y-56399857D01*
X232106334Y-56399857D02*
X232106334Y-56399857D01*
X218606267Y-56900095D02*
X231606449Y-56900095D01*
X231606449Y-56900095D02*
X231706627Y-56889857D01*
X231706627Y-56889857D02*
X231822310Y-56850456D01*
X231822310Y-56850456D02*
X231923603Y-56785279D01*
X231923603Y-56785279D02*
X232006445Y-56698378D01*
X232006445Y-56698378D02*
X232066773Y-56593807D01*
X232066773Y-56593807D02*
X232100527Y-56475619D01*
X232100527Y-56475619D02*
X232106334Y-56399857D01*
X218106383Y-43400029D02*
X218106383Y-56399857D01*
X218106383Y-56399857D02*
X218116619Y-56500151D01*
X218116619Y-56500151D02*
X218156013Y-56615940D01*
X218156013Y-56615940D02*
X218221168Y-56717301D01*
X218221168Y-56717301D02*
X218308025Y-56800182D01*
X218308025Y-56800182D02*
X218412521Y-56860528D01*
X218412521Y-56860528D02*
X218530594Y-56894287D01*
X218530594Y-56894287D02*
X218606267Y-56900095D01*
X231606449Y-42899791D02*
X218606267Y-42899791D01*
X218606267Y-42899791D02*
X218506088Y-42910028D01*
X218506088Y-42910028D02*
X218390405Y-42949429D01*
X218390405Y-42949429D02*
X218289113Y-43014606D01*
X218289113Y-43014606D02*
X218206271Y-43101507D01*
X218206271Y-43101507D02*
X218145943Y-43206078D01*
X218145943Y-43206078D02*
X218112189Y-43324266D01*
X218112189Y-43324266D02*
X218106383Y-43400029D01*
X232106334Y-56399857D02*
X232106334Y-43400029D01*
X232106334Y-43400029D02*
X232096097Y-43299734D01*
X232096097Y-43299734D02*
X232056703Y-43183945D01*
X232056703Y-43183945D02*
X231991547Y-43082584D01*
X231991547Y-43082584D02*
X231904691Y-42999703D01*
X231904691Y-42999703D02*
X231800195Y-42939357D01*
X231800195Y-42939357D02*
X231682121Y-42905598D01*
X231682121Y-42905598D02*
X231606449Y-42899791D01*
X251156286Y-56399857D02*
X251156286Y-56399857D01*
X237656220Y-56900095D02*
X250656401Y-56900095D01*
X250656401Y-56900095D02*
X250756579Y-56889857D01*
X250756579Y-56889857D02*
X250872262Y-56850456D01*
X250872262Y-56850456D02*
X250973555Y-56785279D01*
X250973555Y-56785279D02*
X251056397Y-56698378D01*
X251056397Y-56698378D02*
X251116725Y-56593807D01*
X251116725Y-56593807D02*
X251150479Y-56475619D01*
X251150479Y-56475619D02*
X251156286Y-56399857D01*
X237156335Y-43400029D02*
X237156335Y-56399857D01*
X237156335Y-56399857D02*
X237166571Y-56500151D01*
X237166571Y-56500151D02*
X237205965Y-56615940D01*
X237205965Y-56615940D02*
X237271121Y-56717301D01*
X237271121Y-56717301D02*
X237357977Y-56800182D01*
X237357977Y-56800182D02*
X237462473Y-56860528D01*
X237462473Y-56860528D02*
X237580547Y-56894287D01*
X237580547Y-56894287D02*
X237656220Y-56900095D01*
X250656401Y-42899791D02*
X237656220Y-42899791D01*
X237656220Y-42899791D02*
X237556041Y-42910028D01*
X237556041Y-42910028D02*
X237440358Y-42949429D01*
X237440358Y-42949429D02*
X237339065Y-43014606D01*
X237339065Y-43014606D02*
X237256223Y-43101507D01*
X237256223Y-43101507D02*
X237195895Y-43206078D01*
X237195895Y-43206078D02*
X237162141Y-43324266D01*
X237162141Y-43324266D02*
X237156335Y-43400029D01*
X251156286Y-56399857D02*
X251156286Y-43400029D01*
X251156286Y-43400029D02*
X251146049Y-43299734D01*
X251146049Y-43299734D02*
X251106655Y-43183945D01*
X251106655Y-43183945D02*
X251041499Y-43082584D01*
X251041499Y-43082584D02*
X250954643Y-42999703D01*
X250954643Y-42999703D02*
X250850147Y-42939357D01*
X250850147Y-42939357D02*
X250732073Y-42905598D01*
X250732073Y-42905598D02*
X250656401Y-42899791D01*
X213056381Y-56399857D02*
X213056381Y-56399857D01*
X199556315Y-56900095D02*
X212556496Y-56900095D01*
X212556496Y-56900095D02*
X212656674Y-56889857D01*
X212656674Y-56889857D02*
X212772357Y-56850456D01*
X212772357Y-56850456D02*
X212873650Y-56785279D01*
X212873650Y-56785279D02*
X212956492Y-56698378D01*
X212956492Y-56698378D02*
X213016820Y-56593807D01*
X213016820Y-56593807D02*
X213050574Y-56475619D01*
X213050574Y-56475619D02*
X213056381Y-56399857D01*
X199056430Y-43400029D02*
X199056430Y-56399857D01*
X199056430Y-56399857D02*
X199066666Y-56500151D01*
X199066666Y-56500151D02*
X199106060Y-56615940D01*
X199106060Y-56615940D02*
X199171216Y-56717301D01*
X199171216Y-56717301D02*
X199258072Y-56800182D01*
X199258072Y-56800182D02*
X199362568Y-56860528D01*
X199362568Y-56860528D02*
X199480642Y-56894287D01*
X199480642Y-56894287D02*
X199556315Y-56900095D01*
X212556496Y-42899791D02*
X199556315Y-42899791D01*
X199556315Y-42899791D02*
X199456136Y-42910028D01*
X199456136Y-42910028D02*
X199340453Y-42949429D01*
X199340453Y-42949429D02*
X199239160Y-43014606D01*
X199239160Y-43014606D02*
X199156318Y-43101507D01*
X199156318Y-43101507D02*
X199095990Y-43206078D01*
X199095990Y-43206078D02*
X199062236Y-43324266D01*
X199062236Y-43324266D02*
X199056430Y-43400029D01*
X213056381Y-56399857D02*
X213056381Y-43400029D01*
X213056381Y-43400029D02*
X213046144Y-43299734D01*
X213046144Y-43299734D02*
X213006750Y-43183945D01*
X213006750Y-43183945D02*
X212941594Y-43082584D01*
X212941594Y-43082584D02*
X212854738Y-42999703D01*
X212854738Y-42999703D02*
X212750242Y-42939357D01*
X212750242Y-42939357D02*
X212632168Y-42905598D01*
X212632168Y-42905598D02*
X212556496Y-42899791D01*
X272587483Y-42899791D02*
X272587483Y-42899791D01*
X281612574Y-42899791D02*
X272587483Y-42899791D01*
X282112459Y-56399857D02*
X282112459Y-43400029D01*
X282112459Y-43400029D02*
X282102222Y-43299734D01*
X282102222Y-43299734D02*
X282062828Y-43183945D01*
X282062828Y-43183945D02*
X281997672Y-43082584D01*
X281997672Y-43082584D02*
X281910815Y-42999703D01*
X281910815Y-42999703D02*
X281806319Y-42939357D01*
X281806319Y-42939357D02*
X281688246Y-42905598D01*
X281688246Y-42905598D02*
X281612574Y-42899791D01*
X261468660Y-56900095D02*
X281612574Y-56900095D01*
X281612574Y-56900095D02*
X281712752Y-56889857D01*
X281712752Y-56889857D02*
X281828435Y-56850456D01*
X281828435Y-56850456D02*
X281929728Y-56785279D01*
X281929728Y-56785279D02*
X282012569Y-56698378D01*
X282012569Y-56698378D02*
X282072898Y-56593807D01*
X282072898Y-56593807D02*
X282106652Y-56475619D01*
X282106652Y-56475619D02*
X282112459Y-56399857D01*
X260968775Y-55899972D02*
X260968775Y-56399857D01*
X260174322Y-55899972D02*
X260968775Y-55899972D01*
X260968775Y-56399857D02*
X260979011Y-56500151D01*
X260979011Y-56500151D02*
X261018405Y-56615940D01*
X261018405Y-56615940D02*
X261083561Y-56717301D01*
X261083561Y-56717301D02*
X261170418Y-56800182D01*
X261170418Y-56800182D02*
X261274914Y-56860528D01*
X261274914Y-56860528D02*
X261392987Y-56894287D01*
X261392987Y-56894287D02*
X261468660Y-56900095D01*
X259587654Y-49312922D02*
X259587654Y-55312952D01*
X259780623Y-55706651D02*
X259858608Y-55786416D01*
X259858608Y-55786416D02*
X259952337Y-55847364D01*
X259952337Y-55847364D02*
X260058633Y-55886285D01*
X260058633Y-55886285D02*
X260159455Y-55899750D01*
X260159455Y-55899750D02*
X260174322Y-55899972D01*
X259587654Y-55312952D02*
X259598180Y-55414667D01*
X259598180Y-55414667D02*
X259634089Y-55522395D01*
X259634089Y-55522395D02*
X259692365Y-55617898D01*
X259692365Y-55617898D02*
X259769764Y-55697903D01*
X259769764Y-55697903D02*
X259780623Y-55706651D01*
X259674437Y-47375119D02*
X259674437Y-49032465D01*
X259087416Y-47375119D02*
X259674437Y-47375119D01*
X259674437Y-49032465D02*
X259626438Y-49120777D01*
X259626438Y-49120777D02*
X259596768Y-49218273D01*
X259596768Y-49218273D02*
X259587654Y-49312922D01*
X258587531Y-33875052D02*
X258587531Y-46874881D01*
X258587531Y-46874881D02*
X258597767Y-46975175D01*
X258597767Y-46975175D02*
X258637161Y-47090964D01*
X258637161Y-47090964D02*
X258702317Y-47192325D01*
X258702317Y-47192325D02*
X258789174Y-47275206D01*
X258789174Y-47275206D02*
X258893670Y-47335552D01*
X258893670Y-47335552D02*
X259011743Y-47369311D01*
X259011743Y-47369311D02*
X259087416Y-47375119D01*
X260968775Y-33374815D02*
X259087416Y-33374815D01*
X260968775Y-31936896D02*
X260968775Y-33374815D01*
X260087539Y-31936896D02*
X260968775Y-31936896D01*
X259087416Y-33374815D02*
X258987237Y-33385052D01*
X258987237Y-33385052D02*
X258871554Y-33424453D01*
X258871554Y-33424453D02*
X258770261Y-33489630D01*
X258770261Y-33489630D02*
X258687420Y-33576531D01*
X258687420Y-33576531D02*
X258627091Y-33681102D01*
X258627091Y-33681102D02*
X258593337Y-33799289D01*
X258593337Y-33799289D02*
X258587531Y-33875052D01*
X259587654Y-25436982D02*
X259587654Y-31437011D01*
X259587654Y-31437011D02*
X259597876Y-31537189D01*
X259597876Y-31537189D02*
X259637224Y-31652872D01*
X259637224Y-31652872D02*
X259702325Y-31754165D01*
X259702325Y-31754165D02*
X259789144Y-31837007D01*
X259789144Y-31837007D02*
X259893643Y-31897335D01*
X259893643Y-31897335D02*
X260011785Y-31931089D01*
X260011785Y-31931089D02*
X260087539Y-31936896D01*
X260968775Y-24937097D02*
X260087539Y-24937097D01*
X260968775Y-24350076D02*
X260968775Y-24937097D01*
X260087539Y-24937097D02*
X259987259Y-24947333D01*
X259987259Y-24947333D02*
X259871523Y-24986727D01*
X259871523Y-24986727D02*
X259770237Y-25051883D01*
X259770237Y-25051883D02*
X259687439Y-25138739D01*
X259687439Y-25138739D02*
X259627164Y-25243235D01*
X259627164Y-25243235D02*
X259593452Y-25361309D01*
X259593452Y-25361309D02*
X259587654Y-25436982D01*
X274468842Y-23849839D02*
X261468660Y-23849839D01*
X261468660Y-23849839D02*
X261368481Y-23860076D01*
X261368481Y-23860076D02*
X261252798Y-23899477D01*
X261252798Y-23899477D02*
X261151505Y-23964654D01*
X261151505Y-23964654D02*
X261068664Y-24051555D01*
X261068664Y-24051555D02*
X261008335Y-24156126D01*
X261008335Y-24156126D02*
X260974581Y-24274313D01*
X260974581Y-24274313D02*
X260968775Y-24350076D01*
X274968727Y-37349905D02*
X274968727Y-24350076D01*
X274968727Y-24350076D02*
X274958490Y-24249781D01*
X274958490Y-24249781D02*
X274919096Y-24133992D01*
X274919096Y-24133992D02*
X274853940Y-24032631D01*
X274853940Y-24032631D02*
X274767083Y-23949751D01*
X274767083Y-23949751D02*
X274662587Y-23889405D01*
X274662587Y-23889405D02*
X274544514Y-23855646D01*
X274544514Y-23855646D02*
X274468842Y-23849839D01*
X272587483Y-37850142D02*
X274468842Y-37850142D01*
X272587483Y-42899791D02*
X272587483Y-37850142D01*
X274468842Y-37850142D02*
X274569020Y-37839904D01*
X274569020Y-37839904D02*
X274684703Y-37800503D01*
X274684703Y-37800503D02*
X274785996Y-37735326D01*
X274785996Y-37735326D02*
X274868837Y-37648425D01*
X274868837Y-37648425D02*
X274929166Y-37543854D01*
X274929166Y-37543854D02*
X274962920Y-37425667D01*
X274962920Y-37425667D02*
X274968727Y-37349905D01*
X136856572Y-56399857D02*
X136856572Y-56399857D01*
X123356506Y-56900095D02*
X136356687Y-56900095D01*
X136356687Y-56900095D02*
X136456865Y-56889857D01*
X136456865Y-56889857D02*
X136572548Y-56850456D01*
X136572548Y-56850456D02*
X136673841Y-56785279D01*
X136673841Y-56785279D02*
X136756683Y-56698378D01*
X136756683Y-56698378D02*
X136817011Y-56593807D01*
X136817011Y-56593807D02*
X136850765Y-56475619D01*
X136850765Y-56475619D02*
X136856572Y-56399857D01*
X122856621Y-43400029D02*
X122856621Y-56399857D01*
X122856621Y-56399857D02*
X122866857Y-56500151D01*
X122866857Y-56500151D02*
X122906251Y-56615940D01*
X122906251Y-56615940D02*
X122971407Y-56717301D01*
X122971407Y-56717301D02*
X123058263Y-56800182D01*
X123058263Y-56800182D02*
X123162759Y-56860528D01*
X123162759Y-56860528D02*
X123280833Y-56894287D01*
X123280833Y-56894287D02*
X123356506Y-56900095D01*
X136356687Y-42899791D02*
X123356506Y-42899791D01*
X123356506Y-42899791D02*
X123256327Y-42910028D01*
X123256327Y-42910028D02*
X123140644Y-42949429D01*
X123140644Y-42949429D02*
X123039351Y-43014606D01*
X123039351Y-43014606D02*
X122956509Y-43101507D01*
X122956509Y-43101507D02*
X122896181Y-43206078D01*
X122896181Y-43206078D02*
X122862427Y-43324266D01*
X122862427Y-43324266D02*
X122856621Y-43400029D01*
X136856572Y-56399857D02*
X136856572Y-43400029D01*
X136856572Y-43400029D02*
X136846335Y-43299734D01*
X136846335Y-43299734D02*
X136806941Y-43183945D01*
X136806941Y-43183945D02*
X136741785Y-43082584D01*
X136741785Y-43082584D02*
X136654929Y-42999703D01*
X136654929Y-42999703D02*
X136550433Y-42939357D01*
X136550433Y-42939357D02*
X136432359Y-42905598D01*
X136432359Y-42905598D02*
X136356687Y-42899791D01*
X127331596Y-75449810D02*
X127331596Y-75449810D01*
X113831529Y-75950047D02*
X126831711Y-75950047D01*
X126831711Y-75950047D02*
X126931889Y-75939809D01*
X126931889Y-75939809D02*
X127047572Y-75900408D01*
X127047572Y-75900408D02*
X127148865Y-75835231D01*
X127148865Y-75835231D02*
X127231706Y-75748330D01*
X127231706Y-75748330D02*
X127292035Y-75643759D01*
X127292035Y-75643759D02*
X127325789Y-75525572D01*
X127325789Y-75525572D02*
X127331596Y-75449810D01*
X113331645Y-62449981D02*
X113331645Y-75449810D01*
X113331645Y-75449810D02*
X113341881Y-75550104D01*
X113341881Y-75550104D02*
X113381275Y-75665893D01*
X113381275Y-75665893D02*
X113446430Y-75767254D01*
X113446430Y-75767254D02*
X113533287Y-75850134D01*
X113533287Y-75850134D02*
X113637783Y-75910480D01*
X113637783Y-75910480D02*
X113755856Y-75944239D01*
X113755856Y-75944239D02*
X113831529Y-75950047D01*
X126831711Y-61949743D02*
X113831529Y-61949743D01*
X113831529Y-61949743D02*
X113731350Y-61959980D01*
X113731350Y-61959980D02*
X113615667Y-61999381D01*
X113615667Y-61999381D02*
X113514375Y-62064558D01*
X113514375Y-62064558D02*
X113431533Y-62151459D01*
X113431533Y-62151459D02*
X113371205Y-62256031D01*
X113371205Y-62256031D02*
X113337451Y-62374218D01*
X113337451Y-62374218D02*
X113331645Y-62449981D01*
X127331596Y-75449810D02*
X127331596Y-62449981D01*
X127331596Y-62449981D02*
X127321359Y-62349686D01*
X127321359Y-62349686D02*
X127281965Y-62233897D01*
X127281965Y-62233897D02*
X127216809Y-62132536D01*
X127216809Y-62132536D02*
X127129952Y-62049655D01*
X127129952Y-62049655D02*
X127025456Y-61989309D01*
X127025456Y-61989309D02*
X126907383Y-61955550D01*
X126907383Y-61955550D02*
X126831711Y-61949743D01*
X260681262Y-75449810D02*
X260681262Y-75449810D01*
X247181196Y-75950047D02*
X260181377Y-75950047D01*
X260181377Y-75950047D02*
X260281555Y-75939809D01*
X260281555Y-75939809D02*
X260397238Y-75900408D01*
X260397238Y-75900408D02*
X260498531Y-75835231D01*
X260498531Y-75835231D02*
X260581373Y-75748330D01*
X260581373Y-75748330D02*
X260641701Y-75643759D01*
X260641701Y-75643759D02*
X260675455Y-75525572D01*
X260675455Y-75525572D02*
X260681262Y-75449810D01*
X246681311Y-62449981D02*
X246681311Y-75449810D01*
X246681311Y-75449810D02*
X246691547Y-75550104D01*
X246691547Y-75550104D02*
X246730941Y-75665893D01*
X246730941Y-75665893D02*
X246796097Y-75767254D01*
X246796097Y-75767254D02*
X246882953Y-75850134D01*
X246882953Y-75850134D02*
X246987449Y-75910480D01*
X246987449Y-75910480D02*
X247105523Y-75944239D01*
X247105523Y-75944239D02*
X247181196Y-75950047D01*
X260181377Y-61949743D02*
X247181196Y-61949743D01*
X247181196Y-61949743D02*
X247081017Y-61959980D01*
X247081017Y-61959980D02*
X246965334Y-61999381D01*
X246965334Y-61999381D02*
X246864041Y-62064558D01*
X246864041Y-62064558D02*
X246781199Y-62151459D01*
X246781199Y-62151459D02*
X246720871Y-62256031D01*
X246720871Y-62256031D02*
X246687117Y-62374218D01*
X246687117Y-62374218D02*
X246681311Y-62449981D01*
X260681262Y-75449810D02*
X260681262Y-62449981D01*
X260681262Y-62449981D02*
X260671025Y-62349686D01*
X260671025Y-62349686D02*
X260631631Y-62233897D01*
X260631631Y-62233897D02*
X260566475Y-62132536D01*
X260566475Y-62132536D02*
X260479619Y-62049655D01*
X260479619Y-62049655D02*
X260375123Y-61989309D01*
X260375123Y-61989309D02*
X260257049Y-61955550D01*
X260257049Y-61955550D02*
X260181377Y-61949743D01*
X222581358Y-75449810D02*
X222581358Y-75449810D01*
X209081291Y-75950047D02*
X222081473Y-75950047D01*
X222081473Y-75950047D02*
X222181651Y-75939809D01*
X222181651Y-75939809D02*
X222297334Y-75900408D01*
X222297334Y-75900408D02*
X222398627Y-75835231D01*
X222398627Y-75835231D02*
X222481468Y-75748330D01*
X222481468Y-75748330D02*
X222541797Y-75643759D01*
X222541797Y-75643759D02*
X222575551Y-75525572D01*
X222575551Y-75525572D02*
X222581358Y-75449810D01*
X208581406Y-62449981D02*
X208581406Y-75449810D01*
X208581406Y-75449810D02*
X208591642Y-75550104D01*
X208591642Y-75550104D02*
X208631036Y-75665893D01*
X208631036Y-75665893D02*
X208696192Y-75767254D01*
X208696192Y-75767254D02*
X208783049Y-75850134D01*
X208783049Y-75850134D02*
X208887545Y-75910480D01*
X208887545Y-75910480D02*
X209005618Y-75944239D01*
X209005618Y-75944239D02*
X209081291Y-75950047D01*
X222081473Y-61949743D02*
X209081291Y-61949743D01*
X209081291Y-61949743D02*
X208981112Y-61959980D01*
X208981112Y-61959980D02*
X208865429Y-61999381D01*
X208865429Y-61999381D02*
X208764136Y-62064558D01*
X208764136Y-62064558D02*
X208681295Y-62151459D01*
X208681295Y-62151459D02*
X208620966Y-62256031D01*
X208620966Y-62256031D02*
X208587212Y-62374218D01*
X208587212Y-62374218D02*
X208581406Y-62449981D01*
X222581358Y-75449810D02*
X222581358Y-62449981D01*
X222581358Y-62449981D02*
X222571121Y-62349686D01*
X222571121Y-62349686D02*
X222531727Y-62233897D01*
X222531727Y-62233897D02*
X222466571Y-62132536D01*
X222466571Y-62132536D02*
X222379714Y-62049655D01*
X222379714Y-62049655D02*
X222275218Y-61989309D01*
X222275218Y-61989309D02*
X222157145Y-61955550D01*
X222157145Y-61955550D02*
X222081473Y-61949743D01*
X203531405Y-75449810D02*
X203531405Y-75449810D01*
X190031339Y-75950047D02*
X203031520Y-75950047D01*
X203031520Y-75950047D02*
X203131698Y-75939809D01*
X203131698Y-75939809D02*
X203247381Y-75900408D01*
X203247381Y-75900408D02*
X203348674Y-75835231D01*
X203348674Y-75835231D02*
X203431516Y-75748330D01*
X203431516Y-75748330D02*
X203491844Y-75643759D01*
X203491844Y-75643759D02*
X203525598Y-75525572D01*
X203525598Y-75525572D02*
X203531405Y-75449810D01*
X189531454Y-62449981D02*
X189531454Y-75449810D01*
X189531454Y-75449810D02*
X189541690Y-75550104D01*
X189541690Y-75550104D02*
X189581084Y-75665893D01*
X189581084Y-75665893D02*
X189646240Y-75767254D01*
X189646240Y-75767254D02*
X189733096Y-75850134D01*
X189733096Y-75850134D02*
X189837592Y-75910480D01*
X189837592Y-75910480D02*
X189955666Y-75944239D01*
X189955666Y-75944239D02*
X190031339Y-75950047D01*
X203031520Y-61949743D02*
X190031339Y-61949743D01*
X190031339Y-61949743D02*
X189931160Y-61959980D01*
X189931160Y-61959980D02*
X189815477Y-61999381D01*
X189815477Y-61999381D02*
X189714184Y-62064558D01*
X189714184Y-62064558D02*
X189631342Y-62151459D01*
X189631342Y-62151459D02*
X189571014Y-62256031D01*
X189571014Y-62256031D02*
X189537260Y-62374218D01*
X189537260Y-62374218D02*
X189531454Y-62449981D01*
X203531405Y-75449810D02*
X203531405Y-62449981D01*
X203531405Y-62449981D02*
X203521168Y-62349686D01*
X203521168Y-62349686D02*
X203481774Y-62233897D01*
X203481774Y-62233897D02*
X203416618Y-62132536D01*
X203416618Y-62132536D02*
X203329762Y-62049655D01*
X203329762Y-62049655D02*
X203225266Y-61989309D01*
X203225266Y-61989309D02*
X203107192Y-61955550D01*
X203107192Y-61955550D02*
X203031520Y-61949743D01*
X184481453Y-75449810D02*
X184481453Y-75449810D01*
X170981387Y-75950047D02*
X183981568Y-75950047D01*
X183981568Y-75950047D02*
X184081746Y-75939809D01*
X184081746Y-75939809D02*
X184197429Y-75900408D01*
X184197429Y-75900408D02*
X184298722Y-75835231D01*
X184298722Y-75835231D02*
X184381564Y-75748330D01*
X184381564Y-75748330D02*
X184441892Y-75643759D01*
X184441892Y-75643759D02*
X184475646Y-75525572D01*
X184475646Y-75525572D02*
X184481453Y-75449810D01*
X170481502Y-62449981D02*
X170481502Y-75449810D01*
X170481502Y-75449810D02*
X170491738Y-75550104D01*
X170491738Y-75550104D02*
X170531132Y-75665893D01*
X170531132Y-75665893D02*
X170596288Y-75767254D01*
X170596288Y-75767254D02*
X170683144Y-75850134D01*
X170683144Y-75850134D02*
X170787640Y-75910480D01*
X170787640Y-75910480D02*
X170905714Y-75944239D01*
X170905714Y-75944239D02*
X170981387Y-75950047D01*
X183981568Y-61949743D02*
X170981387Y-61949743D01*
X170981387Y-61949743D02*
X170881208Y-61959980D01*
X170881208Y-61959980D02*
X170765525Y-61999381D01*
X170765525Y-61999381D02*
X170664232Y-62064558D01*
X170664232Y-62064558D02*
X170581390Y-62151459D01*
X170581390Y-62151459D02*
X170521062Y-62256031D01*
X170521062Y-62256031D02*
X170487308Y-62374218D01*
X170487308Y-62374218D02*
X170481502Y-62449981D01*
X184481453Y-75449810D02*
X184481453Y-62449981D01*
X184481453Y-62449981D02*
X184471216Y-62349686D01*
X184471216Y-62349686D02*
X184431822Y-62233897D01*
X184431822Y-62233897D02*
X184366666Y-62132536D01*
X184366666Y-62132536D02*
X184279810Y-62049655D01*
X184279810Y-62049655D02*
X184175314Y-61989309D01*
X184175314Y-61989309D02*
X184057240Y-61955550D01*
X184057240Y-61955550D02*
X183981568Y-61949743D01*
X165431500Y-75449810D02*
X165431500Y-75449810D01*
X151931434Y-75950047D02*
X164931616Y-75950047D01*
X164931616Y-75950047D02*
X165031794Y-75939809D01*
X165031794Y-75939809D02*
X165147477Y-75900408D01*
X165147477Y-75900408D02*
X165248769Y-75835231D01*
X165248769Y-75835231D02*
X165331611Y-75748330D01*
X165331611Y-75748330D02*
X165391939Y-75643759D01*
X165391939Y-75643759D02*
X165425693Y-75525572D01*
X165425693Y-75525572D02*
X165431500Y-75449810D01*
X151431549Y-62449981D02*
X151431549Y-75449810D01*
X151431549Y-75449810D02*
X151441785Y-75550104D01*
X151441785Y-75550104D02*
X151481179Y-75665893D01*
X151481179Y-75665893D02*
X151546335Y-75767254D01*
X151546335Y-75767254D02*
X151633192Y-75850134D01*
X151633192Y-75850134D02*
X151737688Y-75910480D01*
X151737688Y-75910480D02*
X151855761Y-75944239D01*
X151855761Y-75944239D02*
X151931434Y-75950047D01*
X164931616Y-61949743D02*
X151931434Y-61949743D01*
X151931434Y-61949743D02*
X151831255Y-61959980D01*
X151831255Y-61959980D02*
X151715572Y-61999381D01*
X151715572Y-61999381D02*
X151614279Y-62064558D01*
X151614279Y-62064558D02*
X151531438Y-62151459D01*
X151531438Y-62151459D02*
X151471109Y-62256031D01*
X151471109Y-62256031D02*
X151437355Y-62374218D01*
X151437355Y-62374218D02*
X151431549Y-62449981D01*
X165431500Y-75449810D02*
X165431500Y-62449981D01*
X165431500Y-62449981D02*
X165421263Y-62349686D01*
X165421263Y-62349686D02*
X165381869Y-62233897D01*
X165381869Y-62233897D02*
X165316714Y-62132536D01*
X165316714Y-62132536D02*
X165229857Y-62049655D01*
X165229857Y-62049655D02*
X165125361Y-61989309D01*
X165125361Y-61989309D02*
X165007288Y-61955550D01*
X165007288Y-61955550D02*
X164931616Y-61949743D01*
X146381548Y-75449810D02*
X146381548Y-75449810D01*
X132881482Y-75950047D02*
X145881663Y-75950047D01*
X145881663Y-75950047D02*
X145981841Y-75939809D01*
X145981841Y-75939809D02*
X146097524Y-75900408D01*
X146097524Y-75900408D02*
X146198817Y-75835231D01*
X146198817Y-75835231D02*
X146281659Y-75748330D01*
X146281659Y-75748330D02*
X146341987Y-75643759D01*
X146341987Y-75643759D02*
X146375741Y-75525572D01*
X146375741Y-75525572D02*
X146381548Y-75449810D01*
X132381597Y-62449981D02*
X132381597Y-75449810D01*
X132381597Y-75449810D02*
X132391833Y-75550104D01*
X132391833Y-75550104D02*
X132431227Y-75665893D01*
X132431227Y-75665893D02*
X132496383Y-75767254D01*
X132496383Y-75767254D02*
X132583239Y-75850134D01*
X132583239Y-75850134D02*
X132687735Y-75910480D01*
X132687735Y-75910480D02*
X132805809Y-75944239D01*
X132805809Y-75944239D02*
X132881482Y-75950047D01*
X145881663Y-61949743D02*
X132881482Y-61949743D01*
X132881482Y-61949743D02*
X132781303Y-61959980D01*
X132781303Y-61959980D02*
X132665620Y-61999381D01*
X132665620Y-61999381D02*
X132564327Y-62064558D01*
X132564327Y-62064558D02*
X132481485Y-62151459D01*
X132481485Y-62151459D02*
X132421157Y-62256031D01*
X132421157Y-62256031D02*
X132387403Y-62374218D01*
X132387403Y-62374218D02*
X132381597Y-62449981D01*
X146381548Y-75449810D02*
X146381548Y-62449981D01*
X146381548Y-62449981D02*
X146371311Y-62349686D01*
X146371311Y-62349686D02*
X146331917Y-62233897D01*
X146331917Y-62233897D02*
X146266761Y-62132536D01*
X146266761Y-62132536D02*
X146179905Y-62049655D01*
X146179905Y-62049655D02*
X146075409Y-61989309D01*
X146075409Y-61989309D02*
X145957335Y-61955550D01*
X145957335Y-61955550D02*
X145881663Y-61949743D01*
X108281643Y-75449810D02*
X108281643Y-75449810D01*
X94781577Y-75950047D02*
X107781758Y-75950047D01*
X107781758Y-75950047D02*
X107881936Y-75939809D01*
X107881936Y-75939809D02*
X107997619Y-75900408D01*
X107997619Y-75900408D02*
X108098912Y-75835231D01*
X108098912Y-75835231D02*
X108181754Y-75748330D01*
X108181754Y-75748330D02*
X108242082Y-75643759D01*
X108242082Y-75643759D02*
X108275836Y-75525572D01*
X108275836Y-75525572D02*
X108281643Y-75449810D01*
X94281692Y-62449981D02*
X94281692Y-75449810D01*
X94281692Y-75449810D02*
X94291928Y-75550104D01*
X94291928Y-75550104D02*
X94331322Y-75665893D01*
X94331322Y-75665893D02*
X94396478Y-75767254D01*
X94396478Y-75767254D02*
X94483334Y-75850134D01*
X94483334Y-75850134D02*
X94587830Y-75910480D01*
X94587830Y-75910480D02*
X94705904Y-75944239D01*
X94705904Y-75944239D02*
X94781577Y-75950047D01*
X107781758Y-61949743D02*
X94781577Y-61949743D01*
X94781577Y-61949743D02*
X94681398Y-61959980D01*
X94681398Y-61959980D02*
X94565715Y-61999381D01*
X94565715Y-61999381D02*
X94464422Y-62064558D01*
X94464422Y-62064558D02*
X94381580Y-62151459D01*
X94381580Y-62151459D02*
X94321252Y-62256031D01*
X94321252Y-62256031D02*
X94287498Y-62374218D01*
X94287498Y-62374218D02*
X94281692Y-62449981D01*
X108281643Y-75449810D02*
X108281643Y-62449981D01*
X108281643Y-62449981D02*
X108271406Y-62349686D01*
X108271406Y-62349686D02*
X108232012Y-62233897D01*
X108232012Y-62233897D02*
X108166856Y-62132536D01*
X108166856Y-62132536D02*
X108080000Y-62049655D01*
X108080000Y-62049655D02*
X107975504Y-61989309D01*
X107975504Y-61989309D02*
X107857430Y-61955550D01*
X107857430Y-61955550D02*
X107781758Y-61949743D01*
X89231691Y-75449810D02*
X89231691Y-75449810D01*
X75731625Y-75950047D02*
X88731806Y-75950047D01*
X88731806Y-75950047D02*
X88831984Y-75939809D01*
X88831984Y-75939809D02*
X88947667Y-75900408D01*
X88947667Y-75900408D02*
X89048960Y-75835231D01*
X89048960Y-75835231D02*
X89131802Y-75748330D01*
X89131802Y-75748330D02*
X89192130Y-75643759D01*
X89192130Y-75643759D02*
X89225884Y-75525572D01*
X89225884Y-75525572D02*
X89231691Y-75449810D01*
X75231740Y-62449981D02*
X75231740Y-75449810D01*
X75231740Y-75449810D02*
X75241976Y-75550104D01*
X75241976Y-75550104D02*
X75281370Y-75665893D01*
X75281370Y-75665893D02*
X75346526Y-75767254D01*
X75346526Y-75767254D02*
X75433382Y-75850134D01*
X75433382Y-75850134D02*
X75537878Y-75910480D01*
X75537878Y-75910480D02*
X75655952Y-75944239D01*
X75655952Y-75944239D02*
X75731625Y-75950047D01*
X88731806Y-61949743D02*
X75731625Y-61949743D01*
X75731625Y-61949743D02*
X75631446Y-61959980D01*
X75631446Y-61959980D02*
X75515763Y-61999381D01*
X75515763Y-61999381D02*
X75414470Y-62064558D01*
X75414470Y-62064558D02*
X75331628Y-62151459D01*
X75331628Y-62151459D02*
X75271300Y-62256031D01*
X75271300Y-62256031D02*
X75237546Y-62374218D01*
X75237546Y-62374218D02*
X75231740Y-62449981D01*
X89231691Y-75449810D02*
X89231691Y-62449981D01*
X89231691Y-62449981D02*
X89221454Y-62349686D01*
X89221454Y-62349686D02*
X89182060Y-62233897D01*
X89182060Y-62233897D02*
X89116904Y-62132536D01*
X89116904Y-62132536D02*
X89030048Y-62049655D01*
X89030048Y-62049655D02*
X88925552Y-61989309D01*
X88925552Y-61989309D02*
X88807478Y-61955550D01*
X88807478Y-61955550D02*
X88731806Y-61949743D01*
X241631310Y-75449810D02*
X241631310Y-75449810D01*
X228131244Y-75950047D02*
X241131425Y-75950047D01*
X241131425Y-75950047D02*
X241231603Y-75939809D01*
X241231603Y-75939809D02*
X241347286Y-75900408D01*
X241347286Y-75900408D02*
X241448579Y-75835231D01*
X241448579Y-75835231D02*
X241531421Y-75748330D01*
X241531421Y-75748330D02*
X241591749Y-75643759D01*
X241591749Y-75643759D02*
X241625503Y-75525572D01*
X241625503Y-75525572D02*
X241631310Y-75449810D01*
X227631359Y-62449981D02*
X227631359Y-75449810D01*
X227631359Y-75449810D02*
X227641595Y-75550104D01*
X227641595Y-75550104D02*
X227680989Y-75665893D01*
X227680989Y-75665893D02*
X227746145Y-75767254D01*
X227746145Y-75767254D02*
X227833001Y-75850134D01*
X227833001Y-75850134D02*
X227937497Y-75910480D01*
X227937497Y-75910480D02*
X228055571Y-75944239D01*
X228055571Y-75944239D02*
X228131244Y-75950047D01*
X241131425Y-61949743D02*
X228131244Y-61949743D01*
X228131244Y-61949743D02*
X228031065Y-61959980D01*
X228031065Y-61959980D02*
X227915382Y-61999381D01*
X227915382Y-61999381D02*
X227814089Y-62064558D01*
X227814089Y-62064558D02*
X227731247Y-62151459D01*
X227731247Y-62151459D02*
X227670919Y-62256031D01*
X227670919Y-62256031D02*
X227637165Y-62374218D01*
X227637165Y-62374218D02*
X227631359Y-62449981D01*
X241631310Y-75449810D02*
X241631310Y-62449981D01*
X241631310Y-62449981D02*
X241621073Y-62349686D01*
X241621073Y-62349686D02*
X241581679Y-62233897D01*
X241581679Y-62233897D02*
X241516523Y-62132536D01*
X241516523Y-62132536D02*
X241429667Y-62049655D01*
X241429667Y-62049655D02*
X241325171Y-61989309D01*
X241325171Y-61989309D02*
X241207097Y-61955550D01*
X241207097Y-61955550D02*
X241131425Y-61949743D01*
X38218741Y-63614497D02*
X38218741Y-63614497D01*
X38218741Y-63449751D02*
X38218741Y-63614497D01*
X44718655Y-62949866D02*
X38718626Y-62949866D01*
X38718626Y-62949866D02*
X38618447Y-62960102D01*
X38618447Y-62960102D02*
X38502764Y-62999496D01*
X38502764Y-62999496D02*
X38401471Y-63064652D01*
X38401471Y-63064652D02*
X38318629Y-63151508D01*
X38318629Y-63151508D02*
X38258301Y-63256004D01*
X38258301Y-63256004D02*
X38224547Y-63374078D01*
X38224547Y-63374078D02*
X38218741Y-63449751D01*
X45218893Y-77449702D02*
X45218893Y-63449751D01*
X45218893Y-63449751D02*
X45208655Y-63349572D01*
X45208655Y-63349572D02*
X45169254Y-63233889D01*
X45169254Y-63233889D02*
X45104077Y-63132596D01*
X45104077Y-63132596D02*
X45017176Y-63049754D01*
X45017176Y-63049754D02*
X44912605Y-62989426D01*
X44912605Y-62989426D02*
X44794417Y-62955672D01*
X44794417Y-62955672D02*
X44718655Y-62949866D01*
X38718626Y-77949939D02*
X44718655Y-77949939D01*
X44718655Y-77949939D02*
X44818949Y-77939701D01*
X44818949Y-77939701D02*
X44934738Y-77900300D01*
X44934738Y-77900300D02*
X45036099Y-77835123D01*
X45036099Y-77835123D02*
X45118980Y-77748222D01*
X45118980Y-77748222D02*
X45179326Y-77643651D01*
X45179326Y-77643651D02*
X45213085Y-77525464D01*
X45213085Y-77525464D02*
X45218893Y-77449702D01*
X38218741Y-73192390D02*
X38218741Y-77449702D01*
X38218741Y-77449702D02*
X38228977Y-77549996D01*
X38228977Y-77549996D02*
X38268371Y-77665785D01*
X38268371Y-77665785D02*
X38333527Y-77767146D01*
X38333527Y-77767146D02*
X38420383Y-77850026D01*
X38420383Y-77850026D02*
X38524879Y-77910372D01*
X38524879Y-77910372D02*
X38642953Y-77944131D01*
X38642953Y-77944131D02*
X38718626Y-77949939D01*
X38218741Y-63614497D02*
X37087385Y-63614497D01*
X37087385Y-73192390D02*
X37226092Y-73192390D01*
X37226092Y-73192390D02*
X37369820Y-73192390D01*
X37369820Y-73192390D02*
X37514494Y-73192390D01*
X37514494Y-73192390D02*
X37656037Y-73192390D01*
X37656037Y-73192390D02*
X37790374Y-73192390D01*
X37790374Y-73192390D02*
X37913428Y-73192390D01*
X37913428Y-73192390D02*
X38021124Y-73192390D01*
X38021124Y-73192390D02*
X38133782Y-73192390D01*
X38133782Y-73192390D02*
X38218741Y-73192390D01*
X36587148Y-72692153D02*
X36597313Y-72792939D01*
X36597313Y-72792939D02*
X36636485Y-72908944D01*
X36636485Y-72908944D02*
X36701393Y-73010215D01*
X36701393Y-73010215D02*
X36788106Y-73092844D01*
X36788106Y-73092844D02*
X36892690Y-73152923D01*
X36892690Y-73152923D02*
X37011215Y-73186543D01*
X37011215Y-73186543D02*
X37087385Y-73192390D01*
X36587148Y-64114735D02*
X36587148Y-64280003D01*
X36587148Y-64280003D02*
X36587148Y-64465163D01*
X36587148Y-64465163D02*
X36587148Y-64668889D01*
X36587148Y-64668889D02*
X36587148Y-64889856D01*
X36587148Y-64889856D02*
X36587148Y-65126735D01*
X36587148Y-65126735D02*
X36587148Y-65378203D01*
X36587148Y-65378203D02*
X36587148Y-65642932D01*
X36587148Y-65642932D02*
X36587148Y-65919596D01*
X36587148Y-65919596D02*
X36587148Y-66206869D01*
X36587148Y-66206869D02*
X36587148Y-66503426D01*
X36587148Y-66503426D02*
X36587148Y-66807939D01*
X36587148Y-66807939D02*
X36587148Y-67119083D01*
X36587148Y-67119083D02*
X36587148Y-67435532D01*
X36587148Y-67435532D02*
X36587148Y-67755958D01*
X36587148Y-67755958D02*
X36587148Y-68079038D01*
X36587148Y-68079038D02*
X36587148Y-68403443D01*
X36587148Y-68403443D02*
X36587148Y-68727849D01*
X36587148Y-68727849D02*
X36587148Y-69050928D01*
X36587148Y-69050928D02*
X36587148Y-69371355D01*
X36587148Y-69371355D02*
X36587148Y-69687803D01*
X36587148Y-69687803D02*
X36587148Y-69998947D01*
X36587148Y-69998947D02*
X36587148Y-70303461D01*
X36587148Y-70303461D02*
X36587148Y-70600017D01*
X36587148Y-70600017D02*
X36587148Y-70887290D01*
X36587148Y-70887290D02*
X36587148Y-71163955D01*
X36587148Y-71163955D02*
X36587148Y-71428684D01*
X36587148Y-71428684D02*
X36587148Y-71680151D01*
X36587148Y-71680151D02*
X36587148Y-71917031D01*
X36587148Y-71917031D02*
X36587148Y-72137997D01*
X36587148Y-72137997D02*
X36587148Y-72341724D01*
X36587148Y-72341724D02*
X36587148Y-72526884D01*
X36587148Y-72526884D02*
X36587148Y-72692153D01*
X37087385Y-63614497D02*
X36986583Y-63624662D01*
X36986583Y-63624662D02*
X36870533Y-63663834D01*
X36870533Y-63663834D02*
X36769208Y-63728743D01*
X36769208Y-63728743D02*
X36686541Y-63815456D01*
X36686541Y-63815456D02*
X36626466Y-63920040D01*
X36626466Y-63920040D02*
X36592913Y-64038565D01*
X36592913Y-64038565D02*
X36587148Y-64114735D01*
X62538122Y-61949743D02*
X62538122Y-61949743D01*
X63038006Y-62949866D02*
X63038006Y-62449981D01*
X68594595Y-62949866D02*
X63038006Y-62949866D01*
X63038006Y-62449981D02*
X63027769Y-62349686D01*
X63027769Y-62349686D02*
X62988375Y-62233897D01*
X62988375Y-62233897D02*
X62923220Y-62132536D01*
X62923220Y-62132536D02*
X62836363Y-62049655D01*
X62836363Y-62049655D02*
X62731867Y-61989309D01*
X62731867Y-61989309D02*
X62613794Y-61955550D01*
X62613794Y-61955550D02*
X62538122Y-61949743D01*
X69094833Y-77449702D02*
X69094833Y-63449751D01*
X69094833Y-63449751D02*
X69084595Y-63349572D01*
X69084595Y-63349572D02*
X69045194Y-63233889D01*
X69045194Y-63233889D02*
X68980017Y-63132596D01*
X68980017Y-63132596D02*
X68893116Y-63049754D01*
X68893116Y-63049754D02*
X68788545Y-62989426D01*
X68788545Y-62989426D02*
X68670357Y-62955672D01*
X68670357Y-62955672D02*
X68594595Y-62949866D01*
X62594566Y-77949939D02*
X68594595Y-77949939D01*
X68594595Y-77949939D02*
X68694889Y-77939701D01*
X68694889Y-77939701D02*
X68810678Y-77900300D01*
X68810678Y-77900300D02*
X68912039Y-77835123D01*
X68912039Y-77835123D02*
X68994920Y-77748222D01*
X68994920Y-77748222D02*
X69055266Y-77643651D01*
X69055266Y-77643651D02*
X69089025Y-77525464D01*
X69089025Y-77525464D02*
X69094833Y-77449702D01*
X62094681Y-75950047D02*
X62094681Y-77449702D01*
X47156696Y-75950047D02*
X62094681Y-75950047D01*
X62094681Y-77449702D02*
X62104917Y-77549996D01*
X62104917Y-77549996D02*
X62144311Y-77665785D01*
X62144311Y-77665785D02*
X62209467Y-77767146D01*
X62209467Y-77767146D02*
X62296323Y-77850026D01*
X62296323Y-77850026D02*
X62400819Y-77910372D01*
X62400819Y-77910372D02*
X62518893Y-77944131D01*
X62518893Y-77944131D02*
X62594566Y-77949939D01*
X46656811Y-62449981D02*
X46656811Y-75449810D01*
X46656811Y-75449810D02*
X46667047Y-75550104D01*
X46667047Y-75550104D02*
X46706441Y-75665893D01*
X46706441Y-75665893D02*
X46771597Y-75767254D01*
X46771597Y-75767254D02*
X46858453Y-75850134D01*
X46858453Y-75850134D02*
X46962949Y-75910480D01*
X46962949Y-75910480D02*
X47081023Y-75944239D01*
X47081023Y-75944239D02*
X47156696Y-75950047D01*
X62538122Y-61949743D02*
X47156696Y-61949743D01*
X47156696Y-61949743D02*
X47056517Y-61959980D01*
X47056517Y-61959980D02*
X46940834Y-61999381D01*
X46940834Y-61999381D02*
X46839541Y-62064558D01*
X46839541Y-62064558D02*
X46756699Y-62151459D01*
X46756699Y-62151459D02*
X46696371Y-62256031D01*
X46696371Y-62256031D02*
X46662617Y-62374218D01*
X46662617Y-62374218D02*
X46656811Y-62449981D01*
X185919371Y-79500041D02*
X185919371Y-79500041D01*
X192419286Y-78999803D02*
X186419256Y-78999803D01*
X186419256Y-78999803D02*
X186319077Y-79010040D01*
X186319077Y-79010040D02*
X186203394Y-79049441D01*
X186203394Y-79049441D02*
X186102101Y-79114618D01*
X186102101Y-79114618D02*
X186019260Y-79201519D01*
X186019260Y-79201519D02*
X185958931Y-79306091D01*
X185958931Y-79306091D02*
X185925177Y-79424278D01*
X185925177Y-79424278D02*
X185919371Y-79500041D01*
X192919523Y-93499992D02*
X192919523Y-79500041D01*
X192919523Y-79500041D02*
X192909285Y-79399746D01*
X192909285Y-79399746D02*
X192869884Y-79283957D01*
X192869884Y-79283957D02*
X192804707Y-79182596D01*
X192804707Y-79182596D02*
X192717806Y-79099715D01*
X192717806Y-79099715D02*
X192613235Y-79039369D01*
X192613235Y-79039369D02*
X192495048Y-79005610D01*
X192495048Y-79005610D02*
X192419286Y-78999803D01*
X186419256Y-93999877D02*
X192419286Y-93999877D01*
X192419286Y-93999877D02*
X192519580Y-93989640D01*
X192519580Y-93989640D02*
X192635369Y-93950246D01*
X192635369Y-93950246D02*
X192736730Y-93885090D01*
X192736730Y-93885090D02*
X192819610Y-93798234D01*
X192819610Y-93798234D02*
X192879956Y-93693738D01*
X192879956Y-93693738D02*
X192913715Y-93575664D01*
X192913715Y-93575664D02*
X192919523Y-93499992D01*
X185919371Y-79500041D02*
X185919371Y-93499992D01*
X185919371Y-93499992D02*
X185929607Y-93600170D01*
X185929607Y-93600170D02*
X185969001Y-93715853D01*
X185969001Y-93715853D02*
X186034157Y-93817146D01*
X186034157Y-93817146D02*
X186121014Y-93899988D01*
X186121014Y-93899988D02*
X186225510Y-93960316D01*
X186225510Y-93960316D02*
X186343583Y-93994070D01*
X186343583Y-93994070D02*
X186419256Y-93999877D01*
X279731215Y-94499762D02*
X279731215Y-94499762D01*
X266231148Y-95000000D02*
X279231330Y-95000000D01*
X279231330Y-95000000D02*
X279331508Y-94989762D01*
X279331508Y-94989762D02*
X279447191Y-94950361D01*
X279447191Y-94950361D02*
X279548484Y-94885184D01*
X279548484Y-94885184D02*
X279631325Y-94798283D01*
X279631325Y-94798283D02*
X279691654Y-94693712D01*
X279691654Y-94693712D02*
X279725408Y-94575524D01*
X279725408Y-94575524D02*
X279731215Y-94499762D01*
X265731264Y-81499933D02*
X265731264Y-94499762D01*
X265731264Y-94499762D02*
X265741500Y-94600056D01*
X265741500Y-94600056D02*
X265780894Y-94715845D01*
X265780894Y-94715845D02*
X265846049Y-94817206D01*
X265846049Y-94817206D02*
X265932906Y-94900087D01*
X265932906Y-94900087D02*
X266037402Y-94960433D01*
X266037402Y-94960433D02*
X266155475Y-94994192D01*
X266155475Y-94994192D02*
X266231148Y-95000000D01*
X279231330Y-80999696D02*
X266231148Y-80999696D01*
X266231148Y-80999696D02*
X266130969Y-81009933D01*
X266130969Y-81009933D02*
X266015286Y-81049334D01*
X266015286Y-81049334D02*
X265913994Y-81114511D01*
X265913994Y-81114511D02*
X265831152Y-81201412D01*
X265831152Y-81201412D02*
X265770824Y-81305983D01*
X265770824Y-81305983D02*
X265737070Y-81424170D01*
X265737070Y-81424170D02*
X265731264Y-81499933D01*
X279731215Y-94499762D02*
X279731215Y-81499933D01*
X279731215Y-81499933D02*
X279720978Y-81399638D01*
X279720978Y-81399638D02*
X279681584Y-81283849D01*
X279681584Y-81283849D02*
X279616428Y-81182488D01*
X279616428Y-81182488D02*
X279529571Y-81099608D01*
X279529571Y-81099608D02*
X279425075Y-81039262D01*
X279425075Y-81039262D02*
X279307002Y-81005503D01*
X279307002Y-81005503D02*
X279231330Y-80999696D01*
X260681262Y-94499762D02*
X260681262Y-94499762D01*
X247181196Y-95000000D02*
X260181377Y-95000000D01*
X260181377Y-95000000D02*
X260281555Y-94989762D01*
X260281555Y-94989762D02*
X260397238Y-94950361D01*
X260397238Y-94950361D02*
X260498531Y-94885184D01*
X260498531Y-94885184D02*
X260581373Y-94798283D01*
X260581373Y-94798283D02*
X260641701Y-94693712D01*
X260641701Y-94693712D02*
X260675455Y-94575524D01*
X260675455Y-94575524D02*
X260681262Y-94499762D01*
X246681311Y-81499933D02*
X246681311Y-94499762D01*
X246681311Y-94499762D02*
X246691547Y-94600056D01*
X246691547Y-94600056D02*
X246730941Y-94715845D01*
X246730941Y-94715845D02*
X246796097Y-94817206D01*
X246796097Y-94817206D02*
X246882953Y-94900087D01*
X246882953Y-94900087D02*
X246987449Y-94960433D01*
X246987449Y-94960433D02*
X247105523Y-94994192D01*
X247105523Y-94994192D02*
X247181196Y-95000000D01*
X260181377Y-80999696D02*
X247181196Y-80999696D01*
X247181196Y-80999696D02*
X247081017Y-81009933D01*
X247081017Y-81009933D02*
X246965334Y-81049334D01*
X246965334Y-81049334D02*
X246864041Y-81114511D01*
X246864041Y-81114511D02*
X246781199Y-81201412D01*
X246781199Y-81201412D02*
X246720871Y-81305983D01*
X246720871Y-81305983D02*
X246687117Y-81424170D01*
X246687117Y-81424170D02*
X246681311Y-81499933D01*
X260681262Y-94499762D02*
X260681262Y-81499933D01*
X260681262Y-81499933D02*
X260671025Y-81399638D01*
X260671025Y-81399638D02*
X260631631Y-81283849D01*
X260631631Y-81283849D02*
X260566475Y-81182488D01*
X260566475Y-81182488D02*
X260479619Y-81099608D01*
X260479619Y-81099608D02*
X260375123Y-81039262D01*
X260375123Y-81039262D02*
X260257049Y-81005503D01*
X260257049Y-81005503D02*
X260181377Y-80999696D01*
X317831119Y-94499762D02*
X317831119Y-94499762D01*
X304331053Y-95000000D02*
X317331235Y-95000000D01*
X317331235Y-95000000D02*
X317431413Y-94989762D01*
X317431413Y-94989762D02*
X317547096Y-94950361D01*
X317547096Y-94950361D02*
X317648388Y-94885184D01*
X317648388Y-94885184D02*
X317731230Y-94798283D01*
X317731230Y-94798283D02*
X317791558Y-94693712D01*
X317791558Y-94693712D02*
X317825312Y-94575524D01*
X317825312Y-94575524D02*
X317831119Y-94499762D01*
X303831168Y-81499933D02*
X303831168Y-94499762D01*
X303831168Y-94499762D02*
X303841404Y-94600056D01*
X303841404Y-94600056D02*
X303880798Y-94715845D01*
X303880798Y-94715845D02*
X303945954Y-94817206D01*
X303945954Y-94817206D02*
X304032811Y-94900087D01*
X304032811Y-94900087D02*
X304137307Y-94960433D01*
X304137307Y-94960433D02*
X304255380Y-94994192D01*
X304255380Y-94994192D02*
X304331053Y-95000000D01*
X317331235Y-80999696D02*
X304331053Y-80999696D01*
X304331053Y-80999696D02*
X304230874Y-81009933D01*
X304230874Y-81009933D02*
X304115191Y-81049334D01*
X304115191Y-81049334D02*
X304013898Y-81114511D01*
X304013898Y-81114511D02*
X303931057Y-81201412D01*
X303931057Y-81201412D02*
X303870728Y-81305983D01*
X303870728Y-81305983D02*
X303836974Y-81424170D01*
X303836974Y-81424170D02*
X303831168Y-81499933D01*
X317831119Y-94499762D02*
X317831119Y-81499933D01*
X317831119Y-81499933D02*
X317820882Y-81399638D01*
X317820882Y-81399638D02*
X317781488Y-81283849D01*
X317781488Y-81283849D02*
X317716333Y-81182488D01*
X317716333Y-81182488D02*
X317629476Y-81099608D01*
X317629476Y-81099608D02*
X317524980Y-81039262D01*
X317524980Y-81039262D02*
X317406907Y-81005503D01*
X317406907Y-81005503D02*
X317331235Y-80999696D01*
X225250115Y-85425635D02*
X225250115Y-85425635D01*
X225250115Y-81499933D02*
X225250115Y-85425635D01*
X238750181Y-80999696D02*
X225750000Y-80999696D01*
X225750000Y-80999696D02*
X225649821Y-81009933D01*
X225649821Y-81009933D02*
X225534138Y-81049334D01*
X225534138Y-81049334D02*
X225432845Y-81114511D01*
X225432845Y-81114511D02*
X225350003Y-81201412D01*
X225350003Y-81201412D02*
X225289675Y-81305983D01*
X225289675Y-81305983D02*
X225255921Y-81424170D01*
X225255921Y-81424170D02*
X225250115Y-81499933D01*
X239250066Y-94499762D02*
X239250066Y-81499933D01*
X239250066Y-81499933D02*
X239239829Y-81399638D01*
X239239829Y-81399638D02*
X239200435Y-81283849D01*
X239200435Y-81283849D02*
X239135279Y-81182488D01*
X239135279Y-81182488D02*
X239048423Y-81099608D01*
X239048423Y-81099608D02*
X238943927Y-81039262D01*
X238943927Y-81039262D02*
X238825853Y-81005503D01*
X238825853Y-81005503D02*
X238750181Y-80999696D01*
X225750000Y-95000000D02*
X238750181Y-95000000D01*
D10*
X60159694Y-28105936D02*
X60159694Y-28105936D01*
X62559635Y-30505877D02*
X62556509Y-30382475D01*
X62556509Y-30382475D02*
X62547231Y-30260682D01*
X62547231Y-30260682D02*
X62531955Y-30140649D01*
X62531955Y-30140649D02*
X62510830Y-30022528D01*
X62510830Y-30022528D02*
X62484008Y-29906470D01*
X62484008Y-29906470D02*
X62451641Y-29792626D01*
X62451641Y-29792626D02*
X62413880Y-29681148D01*
X62413880Y-29681148D02*
X62370877Y-29572187D01*
X62370877Y-29572187D02*
X62322782Y-29465894D01*
X62322782Y-29465894D02*
X62269748Y-29362421D01*
X62269748Y-29362421D02*
X62211925Y-29261920D01*
X62211925Y-29261920D02*
X62149465Y-29164542D01*
X62149465Y-29164542D02*
X62082520Y-29070438D01*
X62082520Y-29070438D02*
X62011241Y-28979759D01*
X62011241Y-28979759D02*
X61935779Y-28892658D01*
X61935779Y-28892658D02*
X61856286Y-28809285D01*
X61856286Y-28809285D02*
X61772912Y-28729791D01*
X61772912Y-28729791D02*
X61685811Y-28654329D01*
X61685811Y-28654329D02*
X61595132Y-28583050D01*
X61595132Y-28583050D02*
X61501028Y-28516105D01*
X61501028Y-28516105D02*
X61403650Y-28453645D01*
X61403650Y-28453645D02*
X61303149Y-28395822D01*
X61303149Y-28395822D02*
X61199676Y-28342788D01*
X61199676Y-28342788D02*
X61093383Y-28294693D01*
X61093383Y-28294693D02*
X60984422Y-28251690D01*
X60984422Y-28251690D02*
X60872944Y-28213929D01*
X60872944Y-28213929D02*
X60759100Y-28181562D01*
X60759100Y-28181562D02*
X60643042Y-28154740D01*
X60643042Y-28154740D02*
X60524921Y-28133615D01*
X60524921Y-28133615D02*
X60404888Y-28118339D01*
X60404888Y-28118339D02*
X60283095Y-28109061D01*
X60283095Y-28109061D02*
X60159694Y-28105936D01*
X57759400Y-30505877D02*
X57762525Y-30629310D01*
X57762525Y-30629310D02*
X57771803Y-30751133D01*
X57771803Y-30751133D02*
X57787079Y-30871194D01*
X57787079Y-30871194D02*
X57808205Y-30989342D01*
X57808205Y-30989342D02*
X57835027Y-31105424D01*
X57835027Y-31105424D02*
X57867395Y-31219291D01*
X57867395Y-31219291D02*
X57905157Y-31330790D01*
X57905157Y-31330790D02*
X57948163Y-31439771D01*
X57948163Y-31439771D02*
X57996260Y-31546081D01*
X57996260Y-31546081D02*
X58049297Y-31649570D01*
X58049297Y-31649570D02*
X58107123Y-31750086D01*
X58107123Y-31750086D02*
X58169587Y-31847478D01*
X58169587Y-31847478D02*
X58236537Y-31941595D01*
X58236537Y-31941595D02*
X58307823Y-32032284D01*
X58307823Y-32032284D02*
X58383291Y-32119396D01*
X58383291Y-32119396D02*
X58462792Y-32202778D01*
X58462792Y-32202778D02*
X58546174Y-32282279D01*
X58546174Y-32282279D02*
X58633286Y-32357747D01*
X58633286Y-32357747D02*
X58723975Y-32429033D01*
X58723975Y-32429033D02*
X58818092Y-32495983D01*
X58818092Y-32495983D02*
X58915484Y-32558447D01*
X58915484Y-32558447D02*
X59016000Y-32616273D01*
X59016000Y-32616273D02*
X59119489Y-32669310D01*
X59119489Y-32669310D02*
X59225799Y-32717407D01*
X59225799Y-32717407D02*
X59334780Y-32760413D01*
X59334780Y-32760413D02*
X59446279Y-32798175D01*
X59446279Y-32798175D02*
X59560146Y-32830543D01*
X59560146Y-32830543D02*
X59676228Y-32857365D01*
X59676228Y-32857365D02*
X59794376Y-32878491D01*
X59794376Y-32878491D02*
X59914437Y-32893767D01*
X59914437Y-32893767D02*
X60036260Y-32903045D01*
X60036260Y-32903045D02*
X60159694Y-32906171D01*
X60159694Y-28105936D02*
X60036260Y-28109061D01*
X60036260Y-28109061D02*
X59914437Y-28118339D01*
X59914437Y-28118339D02*
X59794376Y-28133615D01*
X59794376Y-28133615D02*
X59676228Y-28154740D01*
X59676228Y-28154740D02*
X59560146Y-28181562D01*
X59560146Y-28181562D02*
X59446279Y-28213929D01*
X59446279Y-28213929D02*
X59334780Y-28251690D01*
X59334780Y-28251690D02*
X59225799Y-28294693D01*
X59225799Y-28294693D02*
X59119489Y-28342788D01*
X59119489Y-28342788D02*
X59016000Y-28395822D01*
X59016000Y-28395822D02*
X58915484Y-28453645D01*
X58915484Y-28453645D02*
X58818092Y-28516105D01*
X58818092Y-28516105D02*
X58723975Y-28583050D01*
X58723975Y-28583050D02*
X58633286Y-28654329D01*
X58633286Y-28654329D02*
X58546174Y-28729791D01*
X58546174Y-28729791D02*
X58462792Y-28809285D01*
X58462792Y-28809285D02*
X58383291Y-28892658D01*
X58383291Y-28892658D02*
X58307823Y-28979759D01*
X58307823Y-28979759D02*
X58236537Y-29070438D01*
X58236537Y-29070438D02*
X58169587Y-29164542D01*
X58169587Y-29164542D02*
X58107123Y-29261920D01*
X58107123Y-29261920D02*
X58049297Y-29362421D01*
X58049297Y-29362421D02*
X57996260Y-29465894D01*
X57996260Y-29465894D02*
X57948163Y-29572187D01*
X57948163Y-29572187D02*
X57905157Y-29681148D01*
X57905157Y-29681148D02*
X57867395Y-29792626D01*
X57867395Y-29792626D02*
X57835027Y-29906470D01*
X57835027Y-29906470D02*
X57808205Y-30022528D01*
X57808205Y-30022528D02*
X57787079Y-30140649D01*
X57787079Y-30140649D02*
X57771803Y-30260682D01*
X57771803Y-30260682D02*
X57762525Y-30382475D01*
X57762525Y-30382475D02*
X57759400Y-30505877D01*
M02*
