G04 #@! TF.GenerationSoftware,KiCad,Pcbnew,(5.1.6-0-10_14)*
G04 #@! TF.CreationDate,2020-07-21T07:07:53+09:00*
G04 #@! TF.ProjectId,Jones,4a6f6e65-732e-46b6-9963-61645f706362,v.0.2*
G04 #@! TF.SameCoordinates,Original*
G04 #@! TF.FileFunction,Copper,L2,Bot*
G04 #@! TF.FilePolarity,Positive*
%FSLAX46Y46*%
G04 Gerber Fmt 4.6, Leading zero omitted, Abs format (unit mm)*
G04 Created by KiCad (PCBNEW (5.1.6-0-10_14)) date 2020-07-21 07:07:53*
%MOMM*%
%LPD*%
G01*
G04 APERTURE LIST*
G04 #@! TA.AperFunction,ComponentPad*
%ADD10R,0.850000X0.850000*%
G04 #@! TD*
G04 #@! TA.AperFunction,ViaPad*
%ADD11C,0.600000*%
G04 #@! TD*
G04 #@! TA.AperFunction,Conductor*
%ADD12C,0.200000*%
G04 #@! TD*
G04 #@! TA.AperFunction,NonConductor*
%ADD13C,0.254000*%
G04 #@! TD*
G04 APERTURE END LIST*
D10*
X138884810Y-172069380D03*
D11*
X46470001Y-173579999D03*
X79460000Y-192370000D03*
X65100000Y-210940000D03*
D12*
X45621790Y-190028269D02*
X45843521Y-190250000D01*
X45621790Y-174428210D02*
X45621790Y-190028269D01*
X46470001Y-173579999D02*
X45621790Y-174428210D01*
X45843521Y-190250000D02*
X49850000Y-190250000D01*
D13*
G36*
X64785117Y-180007449D02*
G01*
X64902889Y-180043006D01*
X65011514Y-180100763D01*
X65106851Y-180178518D01*
X65185269Y-180273310D01*
X65243782Y-180381527D01*
X65280162Y-180499051D01*
X65295710Y-180646982D01*
X65295711Y-189844217D01*
X65293013Y-189871610D01*
X65303779Y-189980919D01*
X65323000Y-190044282D01*
X65323000Y-193698938D01*
X65303779Y-193762301D01*
X65293013Y-193871610D01*
X65295710Y-193898994D01*
X65295711Y-194886079D01*
X65281031Y-195035797D01*
X65245473Y-195153570D01*
X65187717Y-195262193D01*
X65109960Y-195357533D01*
X65015172Y-195435948D01*
X64906952Y-195494463D01*
X64789429Y-195530842D01*
X64641499Y-195546390D01*
X50402392Y-195546390D01*
X50252683Y-195531711D01*
X50134910Y-195496153D01*
X50026287Y-195438397D01*
X49930947Y-195360640D01*
X49852532Y-195265852D01*
X49794017Y-195157632D01*
X49757638Y-195040109D01*
X49748557Y-194953713D01*
X49742378Y-192896065D01*
X49744787Y-192871610D01*
X49742227Y-192845617D01*
X49736182Y-190832600D01*
X49878611Y-190832600D01*
X49964209Y-190824169D01*
X50074030Y-190790856D01*
X50175241Y-190736757D01*
X50263953Y-190663953D01*
X50336757Y-190575241D01*
X50390856Y-190474030D01*
X50424169Y-190364209D01*
X50435418Y-190250000D01*
X50424169Y-190135791D01*
X50390856Y-190025970D01*
X50336757Y-189924759D01*
X50263953Y-189836047D01*
X50175241Y-189763243D01*
X50074030Y-189709144D01*
X49964209Y-189675831D01*
X49878611Y-189667400D01*
X49742090Y-189667400D01*
X49742090Y-187605073D01*
X60823695Y-187605073D01*
X60823695Y-187951707D01*
X60891319Y-188291680D01*
X61023970Y-188611928D01*
X61216550Y-188900143D01*
X61461657Y-189145250D01*
X61749872Y-189337830D01*
X62070120Y-189470481D01*
X62410093Y-189538105D01*
X62756727Y-189538105D01*
X63096700Y-189470481D01*
X63416948Y-189337830D01*
X63705163Y-189145250D01*
X63950270Y-188900143D01*
X64142850Y-188611928D01*
X64275501Y-188291680D01*
X64343125Y-187951707D01*
X64343125Y-187605073D01*
X64275501Y-187265100D01*
X64142850Y-186944852D01*
X63950270Y-186656637D01*
X63705163Y-186411530D01*
X63416948Y-186218950D01*
X63096700Y-186086299D01*
X62756727Y-186018675D01*
X62410093Y-186018675D01*
X62070120Y-186086299D01*
X61749872Y-186218950D01*
X61461657Y-186411530D01*
X61216550Y-186656637D01*
X61023970Y-186944852D01*
X60891319Y-187265100D01*
X60823695Y-187605073D01*
X49742090Y-187605073D01*
X49742090Y-180653072D01*
X49756769Y-180503363D01*
X49792326Y-180385591D01*
X49850083Y-180276966D01*
X49927838Y-180181629D01*
X50022630Y-180103211D01*
X50130847Y-180044698D01*
X50248371Y-180008318D01*
X50396302Y-179992770D01*
X64635408Y-179992770D01*
X64785117Y-180007449D01*
G37*
X64785117Y-180007449D02*
X64902889Y-180043006D01*
X65011514Y-180100763D01*
X65106851Y-180178518D01*
X65185269Y-180273310D01*
X65243782Y-180381527D01*
X65280162Y-180499051D01*
X65295710Y-180646982D01*
X65295711Y-189844217D01*
X65293013Y-189871610D01*
X65303779Y-189980919D01*
X65323000Y-190044282D01*
X65323000Y-193698938D01*
X65303779Y-193762301D01*
X65293013Y-193871610D01*
X65295710Y-193898994D01*
X65295711Y-194886079D01*
X65281031Y-195035797D01*
X65245473Y-195153570D01*
X65187717Y-195262193D01*
X65109960Y-195357533D01*
X65015172Y-195435948D01*
X64906952Y-195494463D01*
X64789429Y-195530842D01*
X64641499Y-195546390D01*
X50402392Y-195546390D01*
X50252683Y-195531711D01*
X50134910Y-195496153D01*
X50026287Y-195438397D01*
X49930947Y-195360640D01*
X49852532Y-195265852D01*
X49794017Y-195157632D01*
X49757638Y-195040109D01*
X49748557Y-194953713D01*
X49742378Y-192896065D01*
X49744787Y-192871610D01*
X49742227Y-192845617D01*
X49736182Y-190832600D01*
X49878611Y-190832600D01*
X49964209Y-190824169D01*
X50074030Y-190790856D01*
X50175241Y-190736757D01*
X50263953Y-190663953D01*
X50336757Y-190575241D01*
X50390856Y-190474030D01*
X50424169Y-190364209D01*
X50435418Y-190250000D01*
X50424169Y-190135791D01*
X50390856Y-190025970D01*
X50336757Y-189924759D01*
X50263953Y-189836047D01*
X50175241Y-189763243D01*
X50074030Y-189709144D01*
X49964209Y-189675831D01*
X49878611Y-189667400D01*
X49742090Y-189667400D01*
X49742090Y-187605073D01*
X60823695Y-187605073D01*
X60823695Y-187951707D01*
X60891319Y-188291680D01*
X61023970Y-188611928D01*
X61216550Y-188900143D01*
X61461657Y-189145250D01*
X61749872Y-189337830D01*
X62070120Y-189470481D01*
X62410093Y-189538105D01*
X62756727Y-189538105D01*
X63096700Y-189470481D01*
X63416948Y-189337830D01*
X63705163Y-189145250D01*
X63950270Y-188900143D01*
X64142850Y-188611928D01*
X64275501Y-188291680D01*
X64343125Y-187951707D01*
X64343125Y-187605073D01*
X64275501Y-187265100D01*
X64142850Y-186944852D01*
X63950270Y-186656637D01*
X63705163Y-186411530D01*
X63416948Y-186218950D01*
X63096700Y-186086299D01*
X62756727Y-186018675D01*
X62410093Y-186018675D01*
X62070120Y-186086299D01*
X61749872Y-186218950D01*
X61461657Y-186411530D01*
X61216550Y-186656637D01*
X61023970Y-186944852D01*
X60891319Y-187265100D01*
X60823695Y-187605073D01*
X49742090Y-187605073D01*
X49742090Y-180653072D01*
X49756769Y-180503363D01*
X49792326Y-180385591D01*
X49850083Y-180276966D01*
X49927838Y-180181629D01*
X50022630Y-180103211D01*
X50130847Y-180044698D01*
X50248371Y-180008318D01*
X50396302Y-179992770D01*
X64635408Y-179992770D01*
X64785117Y-180007449D01*
M02*
