G04 #@! TF.GenerationSoftware,KiCad,Pcbnew,(5.1.6-0-10_14)*
G04 #@! TF.CreationDate,2020-07-21T07:07:53+09:00*
G04 #@! TF.ProjectId,Jones,4a6f6e65-732e-46b6-9963-61645f706362,v.0.2*
G04 #@! TF.SameCoordinates,Original*
G04 #@! TF.FileFunction,Profile,NP*
%FSLAX46Y46*%
G04 Gerber Fmt 4.6, Leading zero omitted, Abs format (unit mm)*
G04 Created by KiCad (PCBNEW (5.1.6-0-10_14)) date 2020-07-21 07:07:53*
%MOMM*%
%LPD*%
G01*
G04 APERTURE LIST*
G04 #@! TA.AperFunction,Profile*
%ADD10C,0.150000*%
G04 #@! TD*
G04 APERTURE END LIST*
D10*
X138755090Y-160385090D02*
X141155090Y-160385090D01*
X138755090Y-253254230D02*
X141155090Y-253254230D01*
X42151690Y-253032220D02*
X44551690Y-253032220D01*
X42151690Y-160163080D02*
X44551690Y-160163080D01*
X103950000Y-227971770D02*
X103953470Y-218725960D01*
X82684000Y-218725960D02*
X82700000Y-227971770D01*
X103950000Y-227971770D02*
X101734080Y-227971770D01*
X103950000Y-231971770D02*
X101734080Y-231971770D01*
X82700000Y-231971770D02*
X85065260Y-231971770D01*
X82700000Y-227971770D02*
X85065260Y-227971770D01*
X58871400Y-227060370D02*
X58900000Y-227971770D01*
X56328270Y-231971770D02*
X58900000Y-231971770D01*
X56328270Y-227971770D02*
X58900000Y-227971770D01*
X46000000Y-174821530D02*
X46000000Y-189871610D01*
X46015670Y-161353710D02*
X46000000Y-170878750D01*
X46000000Y-189871610D02*
X49184490Y-189871610D01*
X46000000Y-192871610D02*
X49184490Y-192871610D01*
X46000000Y-208921690D02*
X47993860Y-208921690D01*
X46000000Y-212921690D02*
X47993860Y-212921690D01*
X134909850Y-174821530D02*
X137291110Y-174821530D01*
X134909850Y-170821530D02*
X137300000Y-170821530D01*
X134909850Y-193871610D02*
X137300000Y-193871610D01*
X134909850Y-189871610D02*
X137300000Y-189871610D01*
X134909850Y-212921690D02*
X137300000Y-212921690D01*
X134909850Y-208921690D02*
X137300000Y-208921690D01*
X135312920Y-250799840D02*
X137300000Y-250799840D01*
X135312920Y-246799840D02*
X137300000Y-246799840D01*
X137300000Y-250799840D02*
X137291110Y-252063600D01*
X137300000Y-212921690D02*
X137300000Y-227971770D01*
X46000000Y-231971770D02*
X46000000Y-246850000D01*
X135312920Y-251841590D02*
G75*
G02*
X134122290Y-253032220I-1190630J0D01*
G01*
X133233650Y-244706620D02*
G75*
G03*
X133233650Y-244706620I-1190630J0D01*
G01*
X134122290Y-236363400D02*
G75*
G02*
X135312920Y-237554030I0J-1190630D01*
G01*
X101058000Y-236363400D02*
X133308000Y-236363400D01*
X100784650Y-253032220D02*
G75*
G02*
X99594020Y-251841590I0J1190630D01*
G01*
X99594020Y-247799840D02*
X99594020Y-237554030D01*
X134122290Y-253032220D02*
X100784650Y-253032220D01*
X135312920Y-237554030D02*
X135312920Y-246799840D01*
X99594020Y-237554030D02*
G75*
G02*
X100784650Y-236363400I1190630J0D01*
G01*
X104033730Y-244697810D02*
G75*
G03*
X104033730Y-244697810I-1190630J0D01*
G01*
X48396930Y-246857060D02*
X48396930Y-237554030D01*
X96324120Y-244706620D02*
G75*
G03*
X96324120Y-244706620I-1190630J0D01*
G01*
X97212760Y-236363400D02*
G75*
G02*
X98403390Y-237554030I0J-1190630D01*
G01*
X55840310Y-244697170D02*
G75*
G03*
X55840310Y-244697170I-1190630J0D01*
G01*
X49587560Y-253032220D02*
G75*
G02*
X48396930Y-251841590I0J1190630D01*
G01*
X97212760Y-253032220D02*
X49587560Y-253032220D01*
X98403390Y-237554030D02*
X98403390Y-247799840D01*
X49587560Y-236363400D02*
X78517610Y-236363400D01*
X48396930Y-237554030D02*
G75*
G02*
X49587560Y-236363400I1190630J0D01*
G01*
X98403390Y-251841590D02*
G75*
G02*
X97212760Y-253032220I-1190630J0D01*
G01*
X133308000Y-236363400D02*
X134122290Y-236363400D01*
X100784650Y-236363400D02*
X101058000Y-236363400D01*
X78517610Y-236363400D02*
X97212760Y-236363400D01*
X135312920Y-250799840D02*
X135312920Y-251841590D01*
X99594020Y-250799840D02*
X99594020Y-251841590D01*
X98403390Y-250799840D02*
X99594020Y-250799840D01*
X98403390Y-250799840D02*
X98403390Y-251841590D01*
X48396930Y-250799840D02*
X48396930Y-251841590D01*
X46000000Y-250799840D02*
X48396930Y-250799840D01*
X46000000Y-246850000D02*
X48396930Y-246857060D01*
X98403390Y-247799840D02*
X99594020Y-247799840D01*
X62583410Y-206828470D02*
G75*
G03*
X62583410Y-206828470I-1190630J0D01*
G01*
X47993860Y-208921690D02*
X47993860Y-199675880D01*
X63472050Y-215154070D02*
X49184490Y-215154070D01*
X64662680Y-199675880D02*
X64662680Y-208921690D01*
X64662680Y-213963440D02*
G75*
G02*
X63472050Y-215154070I-1190630J0D01*
G01*
X49184490Y-215154070D02*
G75*
G02*
X47993860Y-213963440I0J1190630D01*
G01*
X47993860Y-199675880D02*
G75*
G02*
X49184490Y-198485250I1190630J0D01*
G01*
X47993860Y-212921690D02*
X47993860Y-213963440D01*
X64662680Y-212921690D02*
X64662680Y-213963440D01*
X49184490Y-198485250D02*
X63472050Y-198485250D01*
X63472050Y-198485250D02*
G75*
G02*
X64662680Y-199675880I0J-1190630D01*
G01*
X44825040Y-160163080D02*
X44551690Y-160163080D01*
X44825040Y-160163080D02*
G75*
G02*
X46015670Y-161353710I0J-1190630D01*
G01*
X46000000Y-228971770D02*
X46000000Y-212921690D01*
X46000000Y-192871610D02*
X46000000Y-208921690D01*
X42151690Y-253032220D02*
G75*
G02*
X40961060Y-251841590I0J1190630D01*
G01*
X40961060Y-251841590D02*
X40961060Y-161353710D01*
X40961060Y-161353710D02*
G75*
G02*
X42151690Y-160163080I1190630J0D01*
G01*
X46015670Y-251841590D02*
G75*
G02*
X44825040Y-253032220I-1190630J0D01*
G01*
X46000000Y-250799840D02*
X46015670Y-251841590D01*
X44825040Y-253032220D02*
X44551690Y-253032220D01*
X80252132Y-225501327D02*
G75*
G03*
X80252132Y-225501327I-4600000J0D01*
G01*
X60062030Y-217535330D02*
X81493370Y-217535330D01*
X58900000Y-231971770D02*
X58871400Y-233013520D01*
X58871400Y-218725960D02*
G75*
G02*
X60062030Y-217535330I1190630J0D01*
G01*
X82700000Y-231971770D02*
X82684000Y-233013520D01*
X61493860Y-224679110D02*
G75*
G02*
X62684490Y-225869740I0J-1190630D01*
G01*
X60062030Y-234204150D02*
G75*
G02*
X58871400Y-233013520I0J1190630D01*
G01*
X81493370Y-234204150D02*
X60062030Y-234204150D01*
X62684490Y-225869740D02*
G75*
G02*
X61493860Y-227060370I-1190630J0D01*
G01*
X81493370Y-217535330D02*
G75*
G02*
X82684000Y-218725960I0J-1190630D01*
G01*
X82684000Y-233013520D02*
G75*
G02*
X81493370Y-234204150I-1190630J0D01*
G01*
X58871400Y-227060370D02*
X61493860Y-227060370D01*
X58871400Y-224679110D02*
X58871400Y-218725960D01*
X58871400Y-224679110D02*
X61493860Y-224679110D01*
X101734080Y-233013520D02*
G75*
G02*
X100543450Y-234204150I-1190630J0D01*
G01*
X99654810Y-225878550D02*
G75*
G03*
X99654810Y-225878550I-1190630J0D01*
G01*
X100543450Y-217535330D02*
G75*
G02*
X101734080Y-218725960I0J-1190630D01*
G01*
X86255890Y-217535330D02*
X100543450Y-217535330D01*
X86255890Y-234204150D02*
G75*
G02*
X85065260Y-233013520I0J1190630D01*
G01*
X85065260Y-227971770D02*
X85065260Y-218725960D01*
X100543450Y-234204150D02*
X86255890Y-234204150D01*
X101734080Y-218725960D02*
X101734080Y-227971770D01*
X85065260Y-218725960D02*
G75*
G02*
X86255890Y-217535330I1190630J0D01*
G01*
X101734080Y-231971770D02*
X101734080Y-233013520D01*
X85065260Y-231971770D02*
X85065260Y-233013520D01*
X137300000Y-208921690D02*
X137300000Y-193871610D01*
X138481740Y-253254230D02*
X138755090Y-253254230D01*
X142345720Y-252063600D02*
G75*
G02*
X141155090Y-253254230I-1190630J0D01*
G01*
X141155090Y-160385090D02*
G75*
G02*
X142345720Y-161575720I0J-1190630D01*
G01*
X142345720Y-161575720D02*
X142345720Y-252063600D01*
X137300000Y-231971770D02*
X137300000Y-246799840D01*
X137291110Y-174821530D02*
X137300000Y-189871610D01*
X138481740Y-253254230D02*
G75*
G02*
X137291110Y-252063600I0J1190630D01*
G01*
X137300000Y-170821530D02*
X137291110Y-161575720D01*
X137291110Y-161575720D02*
G75*
G02*
X138481740Y-160385090I1190630J0D01*
G01*
X138481740Y-160385090D02*
X138755090Y-160385090D01*
X56328270Y-231971770D02*
X56328270Y-233013520D01*
X98000320Y-171821530D02*
X99190950Y-171821530D01*
X80140870Y-189871610D02*
X78950240Y-189871610D01*
X46000000Y-170878750D02*
X47993860Y-170878750D01*
X64662680Y-208921690D02*
X65853310Y-208921690D01*
X65853310Y-189871610D02*
X67043940Y-189871610D01*
X134909850Y-227971770D02*
X137300000Y-227971770D01*
X134909850Y-231971770D02*
X137300000Y-231971770D01*
X134909850Y-231971770D02*
X134909850Y-233013520D01*
X49184490Y-192871610D02*
X49184490Y-194913360D01*
X65853310Y-193871610D02*
X67043940Y-193871610D01*
X65853310Y-193871610D02*
X65853310Y-194913360D01*
X67043940Y-193871610D02*
X67043940Y-194913360D01*
X64662680Y-212921690D02*
X65853310Y-212921690D01*
X78950240Y-193871610D02*
X78950240Y-194913360D01*
X65853310Y-212921690D02*
X65853310Y-213963440D01*
X46000000Y-174821530D02*
X47993860Y-174821530D01*
X134909850Y-212921690D02*
X134909850Y-213963440D01*
X47993860Y-174821530D02*
X47993860Y-175863280D01*
X78950240Y-193871610D02*
X80140870Y-193871610D01*
X98000320Y-174821530D02*
X98000320Y-175863280D01*
X80140870Y-193871610D02*
X80140870Y-194913360D01*
X98000320Y-174821530D02*
X99190950Y-174821530D01*
X134909850Y-193871610D02*
X134909850Y-194913360D01*
X99190950Y-174821530D02*
X99190950Y-175863280D01*
X46000000Y-231971770D02*
X49184490Y-231971770D01*
X46000000Y-228971770D02*
X49184490Y-228971770D01*
X49184490Y-231971770D02*
X49184490Y-233013520D01*
X134909850Y-174821530D02*
X134909850Y-175863280D01*
X54323350Y-217535330D02*
X55137640Y-217535330D01*
X111259120Y-217535330D02*
X133719220Y-217535330D01*
X72593130Y-179435170D02*
X77759610Y-179435170D01*
X67043940Y-198485250D02*
X113721160Y-198485250D01*
X78114540Y-160385090D02*
X96809690Y-160385090D01*
X108814460Y-179435170D02*
X133719220Y-179435170D01*
X100381580Y-160385090D02*
X100654930Y-160385090D01*
X132904930Y-160385090D02*
X133719220Y-160385090D01*
X56328270Y-218725960D02*
X56328270Y-227971770D01*
X55137640Y-234204150D02*
X50375120Y-234204150D01*
X56328270Y-233013520D02*
G75*
G02*
X55137640Y-234204150I-1190630J0D01*
G01*
X49184490Y-228971770D02*
X49184490Y-218725960D01*
X50375120Y-234204150D02*
G75*
G02*
X49184490Y-233013520I0J1190630D01*
G01*
X53645020Y-225860930D02*
G75*
G03*
X53645020Y-225860930I-1190630J0D01*
G01*
X55137640Y-217535330D02*
G75*
G02*
X56328270Y-218725960I0J-1190630D01*
G01*
X49184490Y-218725960D02*
G75*
G02*
X50375120Y-217535330I1190630J0D01*
G01*
X50375120Y-217535330D02*
X54323350Y-217535330D01*
X68234570Y-196103990D02*
G75*
G02*
X67043940Y-194913360I0J1190630D01*
G01*
X71504470Y-187760770D02*
G75*
G03*
X71504470Y-187760770I-1190630J0D01*
G01*
X77759610Y-179435170D02*
G75*
G02*
X78950240Y-180625800I0J-1190630D01*
G01*
X77759610Y-196103990D02*
X68234570Y-196103990D01*
X78950240Y-194913360D02*
G75*
G02*
X77759610Y-196103990I-1190630J0D01*
G01*
X67043940Y-189871610D02*
X67043940Y-180625800D01*
X67043940Y-180625800D02*
G75*
G02*
X68234570Y-179435170I1190630J0D01*
G01*
X68234570Y-179435170D02*
X72593130Y-179435170D01*
X78950240Y-180625800D02*
X78950240Y-189871610D01*
X49184490Y-180625800D02*
G75*
G02*
X50375120Y-179435170I1190630J0D01*
G01*
X65853310Y-180625800D02*
X65853310Y-189871610D01*
X64662680Y-196103990D02*
X50375120Y-196103990D01*
X49184490Y-189871610D02*
X49184490Y-180625800D01*
X50375120Y-196103990D02*
G75*
G02*
X49184490Y-194913360I0J1190630D01*
G01*
X50375120Y-179435170D02*
X64662680Y-179435170D01*
X64662680Y-179435170D02*
G75*
G02*
X65853310Y-180625800I0J-1190630D01*
G01*
X63774040Y-187778390D02*
G75*
G03*
X63774040Y-187778390I-1190630J0D01*
G01*
X65853310Y-194913360D02*
G75*
G02*
X64662680Y-196103990I-1190630J0D01*
G01*
X134909850Y-213963440D02*
G75*
G02*
X133719220Y-215154070I-1190630J0D01*
G01*
X65853310Y-199675880D02*
G75*
G02*
X67043940Y-198485250I1190630J0D01*
G01*
X113721160Y-198485250D02*
X133719220Y-198485250D01*
X134909850Y-199675880D02*
X134909850Y-208921690D01*
X133719220Y-215154070D02*
X67043940Y-215154070D01*
X67043940Y-215154070D02*
G75*
G02*
X65853310Y-213963440I0J1190630D01*
G01*
X133719220Y-198485250D02*
G75*
G02*
X134909850Y-199675880I0J-1190630D01*
G01*
X73296690Y-206819020D02*
G75*
G03*
X73296690Y-206819020I-1190630J0D01*
G01*
X65853310Y-208921690D02*
X65853310Y-199675880D01*
X132830580Y-206828470D02*
G75*
G03*
X132830580Y-206828470I-1190630J0D01*
G01*
X134909850Y-233013520D02*
G75*
G02*
X133719220Y-234204150I-1190630J0D01*
G01*
X103953470Y-218725960D02*
G75*
G02*
X105144100Y-217535330I1190630J0D01*
G01*
X105144100Y-217535330D02*
X111259120Y-217535330D01*
X134909850Y-218725960D02*
X134909850Y-227971770D01*
X133719220Y-234204150D02*
X105144100Y-234204150D01*
X105144100Y-234204150D02*
G75*
G02*
X103953470Y-233013520I0J1190630D01*
G01*
X133719220Y-217535330D02*
G75*
G02*
X134909850Y-218725960I0J-1190630D01*
G01*
X111412760Y-225872290D02*
G75*
G03*
X111412760Y-225872290I-1190630J0D01*
G01*
X103953470Y-233013520D02*
X103950000Y-231971770D01*
X132830580Y-225878550D02*
G75*
G03*
X132830580Y-225878550I-1190630J0D01*
G01*
X98000320Y-175863280D02*
G75*
G02*
X96809690Y-177053910I-1190630J0D01*
G01*
X47993860Y-161575720D02*
G75*
G02*
X49184490Y-160385090I1190630J0D01*
G01*
X49184490Y-160385090D02*
X78114540Y-160385090D01*
X98000320Y-161575720D02*
X98000320Y-171821530D01*
X96809690Y-177053910D02*
X49184490Y-177053910D01*
X49184490Y-177053910D02*
G75*
G02*
X47993860Y-175863280I0J1190630D01*
G01*
X55437240Y-168718860D02*
G75*
G03*
X55437240Y-168718860I-1190630J0D01*
G01*
X96809690Y-160385090D02*
G75*
G02*
X98000320Y-161575720I0J-1190630D01*
G01*
X95921050Y-168728310D02*
G75*
G03*
X95921050Y-168728310I-1190630J0D01*
G01*
X47993860Y-170878750D02*
X47993860Y-161575720D01*
X134909850Y-194913360D02*
G75*
G02*
X133719220Y-196103990I-1190630J0D01*
G01*
X80140870Y-180625800D02*
G75*
G02*
X81331500Y-179435170I1190630J0D01*
G01*
X81331500Y-179435170D02*
X108814460Y-179435170D01*
X134909850Y-180625800D02*
X134909850Y-189871610D01*
X133719220Y-196103990D02*
X81331500Y-196103990D01*
X81331500Y-196103990D02*
G75*
G02*
X80140870Y-194913360I0J1190630D01*
G01*
X84587080Y-187769580D02*
G75*
G03*
X84587080Y-187769580I-1190630J0D01*
G01*
X133719220Y-179435170D02*
G75*
G02*
X134909850Y-180625800I0J-1190630D01*
G01*
X132830580Y-187778390D02*
G75*
G03*
X132830580Y-187778390I-1190630J0D01*
G01*
X80140870Y-189871610D02*
X80140870Y-180625800D01*
X103630660Y-168719500D02*
G75*
G03*
X103630660Y-168719500I-1190630J0D01*
G01*
X99190950Y-161575720D02*
G75*
G02*
X100381580Y-160385090I1190630J0D01*
G01*
X134909850Y-161575720D02*
X134909850Y-170821530D01*
X133719220Y-177053910D02*
X100381580Y-177053910D01*
X99190950Y-171821530D02*
X99190950Y-161575720D01*
X100381580Y-177053910D02*
G75*
G02*
X99190950Y-175863280I0J1190630D01*
G01*
X100654930Y-160385090D02*
X132904930Y-160385090D01*
X133719220Y-160385090D02*
G75*
G02*
X134909850Y-161575720I0J-1190630D01*
G01*
X132830580Y-168728310D02*
G75*
G03*
X132830580Y-168728310I-1190630J0D01*
G01*
X134909850Y-175863280D02*
G75*
G02*
X133719220Y-177053910I-1190630J0D01*
G01*
M02*
