G04 #@! TF.GenerationSoftware,KiCad,Pcbnew,(5.1.6-0-10_14)*
G04 #@! TF.CreationDate,2020-07-21T07:07:53+09:00*
G04 #@! TF.ProjectId,Jones,4a6f6e65-732e-46b6-9963-61645f706362,v.0.2*
G04 #@! TF.SameCoordinates,Original*
G04 #@! TF.FileFunction,Legend,Bot*
G04 #@! TF.FilePolarity,Positive*
%FSLAX46Y46*%
G04 Gerber Fmt 4.6, Leading zero omitted, Abs format (unit mm)*
G04 Created by KiCad (PCBNEW (5.1.6-0-10_14)) date 2020-07-21 07:07:53*
%MOMM*%
%LPD*%
G01*
G04 APERTURE LIST*
%ADD10C,0.300000*%
%ADD11C,0.010000*%
%ADD12C,0.100000*%
%ADD13R,1.250000X1.250000*%
G04 APERTURE END LIST*
D10*
X137878571Y-236921428D02*
X138950000Y-236921428D01*
X139164285Y-236850000D01*
X139307142Y-236707142D01*
X139378571Y-236492857D01*
X139378571Y-236350000D01*
X139378571Y-238350000D02*
X139378571Y-237635714D01*
X137878571Y-237635714D01*
X139235714Y-239707142D02*
X139307142Y-239635714D01*
X139378571Y-239421428D01*
X139378571Y-239278571D01*
X139307142Y-239064285D01*
X139164285Y-238921428D01*
X139021428Y-238850000D01*
X138735714Y-238778571D01*
X138521428Y-238778571D01*
X138235714Y-238850000D01*
X138092857Y-238921428D01*
X137950000Y-239064285D01*
X137878571Y-239278571D01*
X137878571Y-239421428D01*
X137950000Y-239635714D01*
X138021428Y-239707142D01*
X137878571Y-240778571D02*
X138950000Y-240778571D01*
X139164285Y-240707142D01*
X139307142Y-240564285D01*
X139378571Y-240350000D01*
X139378571Y-240207142D01*
X139378571Y-242207142D02*
X139378571Y-241492857D01*
X137878571Y-241492857D01*
X139235714Y-243564285D02*
X139307142Y-243492857D01*
X139378571Y-243278571D01*
X139378571Y-243135714D01*
X139307142Y-242921428D01*
X139164285Y-242778571D01*
X139021428Y-242707142D01*
X138735714Y-242635714D01*
X138521428Y-242635714D01*
X138235714Y-242707142D01*
X138092857Y-242778571D01*
X137950000Y-242921428D01*
X137878571Y-243135714D01*
X137878571Y-243278571D01*
X137950000Y-243492857D01*
X138021428Y-243564285D01*
X137878571Y-244635714D02*
X138950000Y-244635714D01*
X139164285Y-244564285D01*
X139307142Y-244421428D01*
X139378571Y-244207142D01*
X139378571Y-244064285D01*
X139378571Y-246064285D02*
X139378571Y-245350000D01*
X137878571Y-245350000D01*
X139235714Y-247421428D02*
X139307142Y-247350000D01*
X139378571Y-247135714D01*
X139378571Y-246992857D01*
X139307142Y-246778571D01*
X139164285Y-246635714D01*
X139021428Y-246564285D01*
X138735714Y-246492857D01*
X138521428Y-246492857D01*
X138235714Y-246564285D01*
X138092857Y-246635714D01*
X137950000Y-246778571D01*
X137878571Y-246992857D01*
X137878571Y-247135714D01*
X137950000Y-247350000D01*
X138021428Y-247421428D01*
X137878571Y-248492857D02*
X138950000Y-248492857D01*
X139164285Y-248421428D01*
X139307142Y-248278571D01*
X139378571Y-248064285D01*
X139378571Y-247921428D01*
X139378571Y-249921428D02*
X139378571Y-249207142D01*
X137878571Y-249207142D01*
X139235714Y-251278571D02*
X139307142Y-251207142D01*
X139378571Y-250992857D01*
X139378571Y-250850000D01*
X139307142Y-250635714D01*
X139164285Y-250492857D01*
X139021428Y-250421428D01*
X138735714Y-250350000D01*
X138521428Y-250350000D01*
X138235714Y-250421428D01*
X138092857Y-250492857D01*
X137950000Y-250635714D01*
X137878571Y-250850000D01*
X137878571Y-250992857D01*
X137950000Y-251207142D01*
X138021428Y-251278571D01*
D11*
G36*
X128390614Y-209839061D02*
G01*
X128777964Y-209713929D01*
X129086848Y-209515086D01*
X129303627Y-209247660D01*
X129361175Y-209123479D01*
X129396482Y-208873181D01*
X129324043Y-208643484D01*
X129163033Y-208459546D01*
X128932625Y-208346526D01*
X128751122Y-208323000D01*
X128624186Y-208353348D01*
X128471757Y-208454472D01*
X128272130Y-208641490D01*
X128226935Y-208688126D01*
X128037221Y-208878760D01*
X127859289Y-209045171D01*
X127727898Y-209155030D01*
X127715341Y-209163957D01*
X127473228Y-209262954D01*
X127223233Y-209253356D01*
X126986728Y-209150150D01*
X126785087Y-208968326D01*
X126639680Y-208722873D01*
X126571879Y-208428780D01*
X126569500Y-208360337D01*
X126592893Y-208156837D01*
X126669382Y-207937999D01*
X126808428Y-207687613D01*
X127019494Y-207389470D01*
X127312042Y-207027361D01*
X127425339Y-206894250D01*
X127662235Y-206606738D01*
X127885695Y-206314277D01*
X128073158Y-206047801D01*
X128202068Y-205838247D01*
X128218473Y-205806626D01*
X128398576Y-205319079D01*
X128459093Y-204841522D01*
X128407434Y-204384494D01*
X128251013Y-203958534D01*
X127997240Y-203574181D01*
X127653528Y-203241974D01*
X127227289Y-202972452D01*
X126725935Y-202776155D01*
X126156878Y-202663621D01*
X125998000Y-202649331D01*
X125748012Y-202636972D01*
X125534900Y-202634892D01*
X125401517Y-202643418D01*
X125394750Y-202644747D01*
X125259977Y-202673329D01*
X125058227Y-202714924D01*
X124939064Y-202739130D01*
X124545044Y-202874706D01*
X124225705Y-203098905D01*
X123994170Y-203396629D01*
X123863561Y-203752781D01*
X123839000Y-204004705D01*
X123876626Y-204319625D01*
X123994033Y-204542022D01*
X124198014Y-204683304D01*
X124255954Y-204704888D01*
X124525242Y-204742814D01*
X124766778Y-204661656D01*
X124902625Y-204558133D01*
X124992148Y-204446660D01*
X125035181Y-204296826D01*
X125045500Y-204086028D01*
X125076354Y-203754470D01*
X125176651Y-203515412D01*
X125357992Y-203348288D01*
X125501602Y-203277517D01*
X125851088Y-203200442D01*
X126213976Y-203227804D01*
X126563575Y-203346705D01*
X126873191Y-203544241D01*
X127116134Y-203807512D01*
X127265710Y-204123617D01*
X127267775Y-204131167D01*
X127304030Y-204316133D01*
X127302937Y-204493464D01*
X127256510Y-204679125D01*
X127156764Y-204889085D01*
X126995716Y-205139311D01*
X126765378Y-205445772D01*
X126457767Y-205824435D01*
X126365986Y-205934486D01*
X126078710Y-206295465D01*
X125868402Y-206606734D01*
X125715710Y-206901362D01*
X125601285Y-207212415D01*
X125583610Y-207271491D01*
X125500211Y-207766614D01*
X125540825Y-208240668D01*
X125703108Y-208685300D01*
X125984710Y-209092157D01*
X126140060Y-209251693D01*
X126461089Y-209508957D01*
X126804008Y-209687719D01*
X127209664Y-209806776D01*
X127435066Y-209847680D01*
X127938436Y-209885353D01*
X128390614Y-209839061D01*
G37*
X128390614Y-209839061D02*
X128777964Y-209713929D01*
X129086848Y-209515086D01*
X129303627Y-209247660D01*
X129361175Y-209123479D01*
X129396482Y-208873181D01*
X129324043Y-208643484D01*
X129163033Y-208459546D01*
X128932625Y-208346526D01*
X128751122Y-208323000D01*
X128624186Y-208353348D01*
X128471757Y-208454472D01*
X128272130Y-208641490D01*
X128226935Y-208688126D01*
X128037221Y-208878760D01*
X127859289Y-209045171D01*
X127727898Y-209155030D01*
X127715341Y-209163957D01*
X127473228Y-209262954D01*
X127223233Y-209253356D01*
X126986728Y-209150150D01*
X126785087Y-208968326D01*
X126639680Y-208722873D01*
X126571879Y-208428780D01*
X126569500Y-208360337D01*
X126592893Y-208156837D01*
X126669382Y-207937999D01*
X126808428Y-207687613D01*
X127019494Y-207389470D01*
X127312042Y-207027361D01*
X127425339Y-206894250D01*
X127662235Y-206606738D01*
X127885695Y-206314277D01*
X128073158Y-206047801D01*
X128202068Y-205838247D01*
X128218473Y-205806626D01*
X128398576Y-205319079D01*
X128459093Y-204841522D01*
X128407434Y-204384494D01*
X128251013Y-203958534D01*
X127997240Y-203574181D01*
X127653528Y-203241974D01*
X127227289Y-202972452D01*
X126725935Y-202776155D01*
X126156878Y-202663621D01*
X125998000Y-202649331D01*
X125748012Y-202636972D01*
X125534900Y-202634892D01*
X125401517Y-202643418D01*
X125394750Y-202644747D01*
X125259977Y-202673329D01*
X125058227Y-202714924D01*
X124939064Y-202739130D01*
X124545044Y-202874706D01*
X124225705Y-203098905D01*
X123994170Y-203396629D01*
X123863561Y-203752781D01*
X123839000Y-204004705D01*
X123876626Y-204319625D01*
X123994033Y-204542022D01*
X124198014Y-204683304D01*
X124255954Y-204704888D01*
X124525242Y-204742814D01*
X124766778Y-204661656D01*
X124902625Y-204558133D01*
X124992148Y-204446660D01*
X125035181Y-204296826D01*
X125045500Y-204086028D01*
X125076354Y-203754470D01*
X125176651Y-203515412D01*
X125357992Y-203348288D01*
X125501602Y-203277517D01*
X125851088Y-203200442D01*
X126213976Y-203227804D01*
X126563575Y-203346705D01*
X126873191Y-203544241D01*
X127116134Y-203807512D01*
X127265710Y-204123617D01*
X127267775Y-204131167D01*
X127304030Y-204316133D01*
X127302937Y-204493464D01*
X127256510Y-204679125D01*
X127156764Y-204889085D01*
X126995716Y-205139311D01*
X126765378Y-205445772D01*
X126457767Y-205824435D01*
X126365986Y-205934486D01*
X126078710Y-206295465D01*
X125868402Y-206606734D01*
X125715710Y-206901362D01*
X125601285Y-207212415D01*
X125583610Y-207271491D01*
X125500211Y-207766614D01*
X125540825Y-208240668D01*
X125703108Y-208685300D01*
X125984710Y-209092157D01*
X126140060Y-209251693D01*
X126461089Y-209508957D01*
X126804008Y-209687719D01*
X127209664Y-209806776D01*
X127435066Y-209847680D01*
X127938436Y-209885353D01*
X128390614Y-209839061D01*
G36*
X122725699Y-209853010D02*
G01*
X123066452Y-209722869D01*
X123320579Y-209514213D01*
X123487445Y-209241982D01*
X123566417Y-208921120D01*
X123556861Y-208566565D01*
X123458144Y-208193261D01*
X123269633Y-207816148D01*
X122990693Y-207450167D01*
X122834284Y-207291951D01*
X122595376Y-207083538D01*
X122332593Y-206887280D01*
X122025874Y-206690963D01*
X121655160Y-206482377D01*
X121200388Y-206249311D01*
X120809298Y-206059326D01*
X120439301Y-205882479D01*
X120167658Y-205744372D01*
X119979785Y-205625664D01*
X119861096Y-205507011D01*
X119797008Y-205369071D01*
X119772935Y-205192501D01*
X119774292Y-204957959D01*
X119784483Y-204700209D01*
X119797211Y-204424460D01*
X119816217Y-204243174D01*
X119851268Y-204123863D01*
X119912130Y-204034041D01*
X120008567Y-203941217D01*
X120014126Y-203936247D01*
X120227779Y-203794842D01*
X120408782Y-203751000D01*
X120711887Y-203798215D01*
X121086484Y-203936144D01*
X121521252Y-204159211D01*
X122004873Y-204461842D01*
X122354446Y-204709187D01*
X122537332Y-204836702D01*
X122685449Y-204926294D01*
X122762484Y-204957500D01*
X122853553Y-204910224D01*
X122964033Y-204800563D01*
X123050981Y-204676767D01*
X123074887Y-204606502D01*
X123027983Y-204528510D01*
X122896447Y-204391290D01*
X122698238Y-204210475D01*
X122451314Y-204001698D01*
X122173634Y-203780592D01*
X121883155Y-203562792D01*
X121841151Y-203532493D01*
X121278323Y-203165416D01*
X120752714Y-202901698D01*
X120243955Y-202731511D01*
X120124250Y-202703944D01*
X119836138Y-202647698D01*
X119627990Y-202622175D01*
X119456999Y-202625598D01*
X119280356Y-202656191D01*
X119233921Y-202667005D01*
X118914704Y-202802297D01*
X118667686Y-203038379D01*
X118492458Y-203376300D01*
X118388613Y-203817106D01*
X118355742Y-204361847D01*
X118379338Y-204862250D01*
X118447051Y-205409386D01*
X118559809Y-205925542D01*
X118676466Y-206285770D01*
X119965500Y-206285770D01*
X120015219Y-206271956D01*
X120156153Y-206325254D01*
X120375962Y-206439249D01*
X120662310Y-206607527D01*
X121002859Y-206823674D01*
X121013250Y-206830480D01*
X121481031Y-207169460D01*
X121851495Y-207506829D01*
X122117894Y-207834586D01*
X122273477Y-208144724D01*
X122313605Y-208372665D01*
X122265540Y-208632994D01*
X122135154Y-208873348D01*
X121950487Y-209043949D01*
X121928692Y-209055995D01*
X121677698Y-209118493D01*
X121406222Y-209069990D01*
X121133097Y-208920245D01*
X120877155Y-208679021D01*
X120689866Y-208413940D01*
X120560890Y-208162952D01*
X120423136Y-207843684D01*
X120286971Y-207486592D01*
X120162761Y-207122129D01*
X120060870Y-206780750D01*
X119991665Y-206492910D01*
X119965512Y-206289063D01*
X119965500Y-206285770D01*
X118676466Y-206285770D01*
X118728237Y-206445632D01*
X118962958Y-207004567D01*
X119148491Y-207390039D01*
X119489809Y-207992436D01*
X119876284Y-208533925D01*
X120293041Y-208997766D01*
X120725203Y-209367220D01*
X121118675Y-209606972D01*
X121543675Y-209769330D01*
X121995263Y-209865562D01*
X122429704Y-209888973D01*
X122725699Y-209853010D01*
G37*
X122725699Y-209853010D02*
X123066452Y-209722869D01*
X123320579Y-209514213D01*
X123487445Y-209241982D01*
X123566417Y-208921120D01*
X123556861Y-208566565D01*
X123458144Y-208193261D01*
X123269633Y-207816148D01*
X122990693Y-207450167D01*
X122834284Y-207291951D01*
X122595376Y-207083538D01*
X122332593Y-206887280D01*
X122025874Y-206690963D01*
X121655160Y-206482377D01*
X121200388Y-206249311D01*
X120809298Y-206059326D01*
X120439301Y-205882479D01*
X120167658Y-205744372D01*
X119979785Y-205625664D01*
X119861096Y-205507011D01*
X119797008Y-205369071D01*
X119772935Y-205192501D01*
X119774292Y-204957959D01*
X119784483Y-204700209D01*
X119797211Y-204424460D01*
X119816217Y-204243174D01*
X119851268Y-204123863D01*
X119912130Y-204034041D01*
X120008567Y-203941217D01*
X120014126Y-203936247D01*
X120227779Y-203794842D01*
X120408782Y-203751000D01*
X120711887Y-203798215D01*
X121086484Y-203936144D01*
X121521252Y-204159211D01*
X122004873Y-204461842D01*
X122354446Y-204709187D01*
X122537332Y-204836702D01*
X122685449Y-204926294D01*
X122762484Y-204957500D01*
X122853553Y-204910224D01*
X122964033Y-204800563D01*
X123050981Y-204676767D01*
X123074887Y-204606502D01*
X123027983Y-204528510D01*
X122896447Y-204391290D01*
X122698238Y-204210475D01*
X122451314Y-204001698D01*
X122173634Y-203780592D01*
X121883155Y-203562792D01*
X121841151Y-203532493D01*
X121278323Y-203165416D01*
X120752714Y-202901698D01*
X120243955Y-202731511D01*
X120124250Y-202703944D01*
X119836138Y-202647698D01*
X119627990Y-202622175D01*
X119456999Y-202625598D01*
X119280356Y-202656191D01*
X119233921Y-202667005D01*
X118914704Y-202802297D01*
X118667686Y-203038379D01*
X118492458Y-203376300D01*
X118388613Y-203817106D01*
X118355742Y-204361847D01*
X118379338Y-204862250D01*
X118447051Y-205409386D01*
X118559809Y-205925542D01*
X118676466Y-206285770D01*
X119965500Y-206285770D01*
X120015219Y-206271956D01*
X120156153Y-206325254D01*
X120375962Y-206439249D01*
X120662310Y-206607527D01*
X121002859Y-206823674D01*
X121013250Y-206830480D01*
X121481031Y-207169460D01*
X121851495Y-207506829D01*
X122117894Y-207834586D01*
X122273477Y-208144724D01*
X122313605Y-208372665D01*
X122265540Y-208632994D01*
X122135154Y-208873348D01*
X121950487Y-209043949D01*
X121928692Y-209055995D01*
X121677698Y-209118493D01*
X121406222Y-209069990D01*
X121133097Y-208920245D01*
X120877155Y-208679021D01*
X120689866Y-208413940D01*
X120560890Y-208162952D01*
X120423136Y-207843684D01*
X120286971Y-207486592D01*
X120162761Y-207122129D01*
X120060870Y-206780750D01*
X119991665Y-206492910D01*
X119965512Y-206289063D01*
X119965500Y-206285770D01*
X118676466Y-206285770D01*
X118728237Y-206445632D01*
X118962958Y-207004567D01*
X119148491Y-207390039D01*
X119489809Y-207992436D01*
X119876284Y-208533925D01*
X120293041Y-208997766D01*
X120725203Y-209367220D01*
X121118675Y-209606972D01*
X121543675Y-209769330D01*
X121995263Y-209865562D01*
X122429704Y-209888973D01*
X122725699Y-209853010D01*
G36*
X113649664Y-209838270D02*
G01*
X113702158Y-209793392D01*
X113750097Y-209734276D01*
X113777186Y-209669524D01*
X113782077Y-209575459D01*
X113763423Y-209428405D01*
X113719877Y-209204685D01*
X113650273Y-208881453D01*
X113582156Y-208572229D01*
X113520965Y-208300025D01*
X113473208Y-208093424D01*
X113445392Y-207981009D01*
X113444668Y-207978463D01*
X113470434Y-207961741D01*
X113574657Y-208026317D01*
X113745663Y-208164019D01*
X113883892Y-208285962D01*
X114348505Y-208683910D01*
X114818216Y-209044000D01*
X115275395Y-209355104D01*
X115702415Y-209606097D01*
X116081648Y-209785851D01*
X116395465Y-209883239D01*
X116421876Y-209887907D01*
X116713189Y-209880331D01*
X116970900Y-209772170D01*
X117162511Y-209580002D01*
X117212934Y-209484368D01*
X117257463Y-209351749D01*
X117281415Y-209203279D01*
X117282360Y-209025266D01*
X117257867Y-208804017D01*
X117205505Y-208525839D01*
X117122843Y-208177040D01*
X117007452Y-207743927D01*
X116856900Y-207212807D01*
X116736233Y-206799000D01*
X116549914Y-206161338D01*
X116397993Y-205632389D01*
X116277420Y-205199513D01*
X116185147Y-204850070D01*
X116118123Y-204571418D01*
X116073300Y-204350919D01*
X116047629Y-204175930D01*
X116038059Y-204033813D01*
X116041117Y-203917562D01*
X116072317Y-203740129D01*
X116141132Y-203648947D01*
X116258639Y-203645431D01*
X116435914Y-203730996D01*
X116684032Y-203907059D01*
X116823432Y-204017552D01*
X117119798Y-204258061D01*
X117332687Y-204429288D01*
X117478411Y-204540512D01*
X117573279Y-204601010D01*
X117633602Y-204620061D01*
X117675690Y-204606944D01*
X117715855Y-204570936D01*
X117745782Y-204542232D01*
X117839601Y-204432606D01*
X117870000Y-204358449D01*
X117827135Y-204284534D01*
X117712705Y-204148439D01*
X117547954Y-203974679D01*
X117473125Y-203900511D01*
X116956786Y-203431277D01*
X116480188Y-203067079D01*
X116046838Y-202809728D01*
X115660241Y-202661035D01*
X115323904Y-202622811D01*
X115095199Y-202672249D01*
X114920190Y-202810421D01*
X114803359Y-203058381D01*
X114746132Y-203412304D01*
X114740288Y-203624000D01*
X114765764Y-203973077D01*
X114838560Y-204420023D01*
X114959647Y-204969120D01*
X115129992Y-205624646D01*
X115350567Y-206390881D01*
X115416819Y-206610594D01*
X115577557Y-207156102D01*
X115707356Y-207631929D01*
X115803754Y-208027406D01*
X115864287Y-208331864D01*
X115886493Y-208534633D01*
X115878271Y-208609443D01*
X115785794Y-208693403D01*
X115615440Y-208701444D01*
X115384202Y-208642082D01*
X115109072Y-208523828D01*
X114807044Y-208355198D01*
X114495109Y-208144703D01*
X114190261Y-207900859D01*
X113909492Y-207632177D01*
X113893325Y-207614963D01*
X113725658Y-207428272D01*
X113582008Y-207247646D01*
X113456745Y-207058381D01*
X113344239Y-206845772D01*
X113238860Y-206595113D01*
X113134977Y-206291700D01*
X113026962Y-205920827D01*
X112909182Y-205467791D01*
X112776009Y-204917885D01*
X112643668Y-204351052D01*
X112306789Y-202893750D01*
X111659394Y-202875654D01*
X111390140Y-202872812D01*
X111175662Y-202879463D01*
X111042545Y-202894240D01*
X111012000Y-202908956D01*
X111027055Y-202985108D01*
X111068639Y-203162149D01*
X111131380Y-203418040D01*
X111209906Y-203730741D01*
X111264054Y-203943052D01*
X111379143Y-204398315D01*
X111501696Y-204894703D01*
X111628089Y-205416461D01*
X111754699Y-205947829D01*
X111877903Y-206473051D01*
X111994076Y-206976368D01*
X112099595Y-207442024D01*
X112190837Y-207854260D01*
X112264178Y-208197319D01*
X112315996Y-208455443D01*
X112342665Y-208612875D01*
X112345500Y-208645986D01*
X112328349Y-208786707D01*
X112292161Y-208856470D01*
X112186836Y-208849577D01*
X112000039Y-208753672D01*
X111737321Y-208572243D01*
X111404234Y-208308777D01*
X111354918Y-208267732D01*
X110871423Y-207863213D01*
X110553841Y-208180795D01*
X110830545Y-208434501D01*
X111218470Y-208782677D01*
X111542659Y-209054826D01*
X111825849Y-209267934D01*
X112090778Y-209438987D01*
X112360183Y-209584970D01*
X112390889Y-209600140D01*
X112809415Y-209779886D01*
X113165128Y-209880434D01*
X113448416Y-209900367D01*
X113649664Y-209838270D01*
G37*
X113649664Y-209838270D02*
X113702158Y-209793392D01*
X113750097Y-209734276D01*
X113777186Y-209669524D01*
X113782077Y-209575459D01*
X113763423Y-209428405D01*
X113719877Y-209204685D01*
X113650273Y-208881453D01*
X113582156Y-208572229D01*
X113520965Y-208300025D01*
X113473208Y-208093424D01*
X113445392Y-207981009D01*
X113444668Y-207978463D01*
X113470434Y-207961741D01*
X113574657Y-208026317D01*
X113745663Y-208164019D01*
X113883892Y-208285962D01*
X114348505Y-208683910D01*
X114818216Y-209044000D01*
X115275395Y-209355104D01*
X115702415Y-209606097D01*
X116081648Y-209785851D01*
X116395465Y-209883239D01*
X116421876Y-209887907D01*
X116713189Y-209880331D01*
X116970900Y-209772170D01*
X117162511Y-209580002D01*
X117212934Y-209484368D01*
X117257463Y-209351749D01*
X117281415Y-209203279D01*
X117282360Y-209025266D01*
X117257867Y-208804017D01*
X117205505Y-208525839D01*
X117122843Y-208177040D01*
X117007452Y-207743927D01*
X116856900Y-207212807D01*
X116736233Y-206799000D01*
X116549914Y-206161338D01*
X116397993Y-205632389D01*
X116277420Y-205199513D01*
X116185147Y-204850070D01*
X116118123Y-204571418D01*
X116073300Y-204350919D01*
X116047629Y-204175930D01*
X116038059Y-204033813D01*
X116041117Y-203917562D01*
X116072317Y-203740129D01*
X116141132Y-203648947D01*
X116258639Y-203645431D01*
X116435914Y-203730996D01*
X116684032Y-203907059D01*
X116823432Y-204017552D01*
X117119798Y-204258061D01*
X117332687Y-204429288D01*
X117478411Y-204540512D01*
X117573279Y-204601010D01*
X117633602Y-204620061D01*
X117675690Y-204606944D01*
X117715855Y-204570936D01*
X117745782Y-204542232D01*
X117839601Y-204432606D01*
X117870000Y-204358449D01*
X117827135Y-204284534D01*
X117712705Y-204148439D01*
X117547954Y-203974679D01*
X117473125Y-203900511D01*
X116956786Y-203431277D01*
X116480188Y-203067079D01*
X116046838Y-202809728D01*
X115660241Y-202661035D01*
X115323904Y-202622811D01*
X115095199Y-202672249D01*
X114920190Y-202810421D01*
X114803359Y-203058381D01*
X114746132Y-203412304D01*
X114740288Y-203624000D01*
X114765764Y-203973077D01*
X114838560Y-204420023D01*
X114959647Y-204969120D01*
X115129992Y-205624646D01*
X115350567Y-206390881D01*
X115416819Y-206610594D01*
X115577557Y-207156102D01*
X115707356Y-207631929D01*
X115803754Y-208027406D01*
X115864287Y-208331864D01*
X115886493Y-208534633D01*
X115878271Y-208609443D01*
X115785794Y-208693403D01*
X115615440Y-208701444D01*
X115384202Y-208642082D01*
X115109072Y-208523828D01*
X114807044Y-208355198D01*
X114495109Y-208144703D01*
X114190261Y-207900859D01*
X113909492Y-207632177D01*
X113893325Y-207614963D01*
X113725658Y-207428272D01*
X113582008Y-207247646D01*
X113456745Y-207058381D01*
X113344239Y-206845772D01*
X113238860Y-206595113D01*
X113134977Y-206291700D01*
X113026962Y-205920827D01*
X112909182Y-205467791D01*
X112776009Y-204917885D01*
X112643668Y-204351052D01*
X112306789Y-202893750D01*
X111659394Y-202875654D01*
X111390140Y-202872812D01*
X111175662Y-202879463D01*
X111042545Y-202894240D01*
X111012000Y-202908956D01*
X111027055Y-202985108D01*
X111068639Y-203162149D01*
X111131380Y-203418040D01*
X111209906Y-203730741D01*
X111264054Y-203943052D01*
X111379143Y-204398315D01*
X111501696Y-204894703D01*
X111628089Y-205416461D01*
X111754699Y-205947829D01*
X111877903Y-206473051D01*
X111994076Y-206976368D01*
X112099595Y-207442024D01*
X112190837Y-207854260D01*
X112264178Y-208197319D01*
X112315996Y-208455443D01*
X112342665Y-208612875D01*
X112345500Y-208645986D01*
X112328349Y-208786707D01*
X112292161Y-208856470D01*
X112186836Y-208849577D01*
X112000039Y-208753672D01*
X111737321Y-208572243D01*
X111404234Y-208308777D01*
X111354918Y-208267732D01*
X110871423Y-207863213D01*
X110553841Y-208180795D01*
X110830545Y-208434501D01*
X111218470Y-208782677D01*
X111542659Y-209054826D01*
X111825849Y-209267934D01*
X112090778Y-209438987D01*
X112360183Y-209584970D01*
X112390889Y-209600140D01*
X112809415Y-209779886D01*
X113165128Y-209880434D01*
X113448416Y-209900367D01*
X113649664Y-209838270D01*
G36*
X108400667Y-209813113D02*
G01*
X108832406Y-209661027D01*
X109197003Y-209401262D01*
X109495746Y-209032997D01*
X109652029Y-208742061D01*
X109778546Y-208359498D01*
X109856067Y-207892626D01*
X109883904Y-207374589D01*
X109861373Y-206838531D01*
X109787784Y-206317596D01*
X109709024Y-205991636D01*
X109485776Y-205403945D01*
X109168038Y-204824045D01*
X108773823Y-204272390D01*
X108321146Y-203769435D01*
X107828021Y-203335636D01*
X107312463Y-202991446D01*
X106891758Y-202792754D01*
X106518937Y-202689107D01*
X106099290Y-202633334D01*
X105678351Y-202627307D01*
X105301656Y-202672897D01*
X105130553Y-202720391D01*
X104707882Y-202932098D01*
X104368396Y-203236515D01*
X104107524Y-203638427D01*
X103992781Y-203911487D01*
X103925717Y-204199271D01*
X103889359Y-204575017D01*
X103883209Y-205003580D01*
X103906769Y-205449814D01*
X103920423Y-205560750D01*
X105335993Y-205560750D01*
X105353271Y-204966796D01*
X105419451Y-204478934D01*
X105538902Y-204084323D01*
X105715995Y-203770118D01*
X105955102Y-203523476D01*
X106054026Y-203450887D01*
X106264674Y-203342339D01*
X106475493Y-203316798D01*
X106722340Y-203374557D01*
X106921413Y-203457987D01*
X107261166Y-203682345D01*
X107572973Y-204020410D01*
X107850143Y-204460679D01*
X108085984Y-204991650D01*
X108273803Y-205601820D01*
X108340485Y-205897251D01*
X108379370Y-206189893D01*
X108400441Y-206565150D01*
X108404012Y-206979939D01*
X108390401Y-207391178D01*
X108359921Y-207755781D01*
X108325251Y-207977185D01*
X108198395Y-208395873D01*
X108015806Y-208736199D01*
X107788711Y-208987392D01*
X107528339Y-209138679D01*
X107245918Y-209179289D01*
X107098293Y-209154269D01*
X106719247Y-208984372D01*
X106366081Y-208692676D01*
X106041790Y-208282304D01*
X105749364Y-207756377D01*
X105740455Y-207737439D01*
X105561965Y-207284195D01*
X105438514Y-206793886D01*
X105364996Y-206239043D01*
X105336309Y-205592193D01*
X105335993Y-205560750D01*
X103920423Y-205560750D01*
X103959543Y-205878573D01*
X104025112Y-206195750D01*
X104265122Y-206913049D01*
X104603027Y-207607651D01*
X105021070Y-208249040D01*
X105501494Y-208806701D01*
X105599864Y-208902085D01*
X106089866Y-209304445D01*
X106588244Y-209590318D01*
X107118202Y-209769348D01*
X107702943Y-209851179D01*
X107900500Y-209858341D01*
X108400667Y-209813113D01*
G37*
X108400667Y-209813113D02*
X108832406Y-209661027D01*
X109197003Y-209401262D01*
X109495746Y-209032997D01*
X109652029Y-208742061D01*
X109778546Y-208359498D01*
X109856067Y-207892626D01*
X109883904Y-207374589D01*
X109861373Y-206838531D01*
X109787784Y-206317596D01*
X109709024Y-205991636D01*
X109485776Y-205403945D01*
X109168038Y-204824045D01*
X108773823Y-204272390D01*
X108321146Y-203769435D01*
X107828021Y-203335636D01*
X107312463Y-202991446D01*
X106891758Y-202792754D01*
X106518937Y-202689107D01*
X106099290Y-202633334D01*
X105678351Y-202627307D01*
X105301656Y-202672897D01*
X105130553Y-202720391D01*
X104707882Y-202932098D01*
X104368396Y-203236515D01*
X104107524Y-203638427D01*
X103992781Y-203911487D01*
X103925717Y-204199271D01*
X103889359Y-204575017D01*
X103883209Y-205003580D01*
X103906769Y-205449814D01*
X103920423Y-205560750D01*
X105335993Y-205560750D01*
X105353271Y-204966796D01*
X105419451Y-204478934D01*
X105538902Y-204084323D01*
X105715995Y-203770118D01*
X105955102Y-203523476D01*
X106054026Y-203450887D01*
X106264674Y-203342339D01*
X106475493Y-203316798D01*
X106722340Y-203374557D01*
X106921413Y-203457987D01*
X107261166Y-203682345D01*
X107572973Y-204020410D01*
X107850143Y-204460679D01*
X108085984Y-204991650D01*
X108273803Y-205601820D01*
X108340485Y-205897251D01*
X108379370Y-206189893D01*
X108400441Y-206565150D01*
X108404012Y-206979939D01*
X108390401Y-207391178D01*
X108359921Y-207755781D01*
X108325251Y-207977185D01*
X108198395Y-208395873D01*
X108015806Y-208736199D01*
X107788711Y-208987392D01*
X107528339Y-209138679D01*
X107245918Y-209179289D01*
X107098293Y-209154269D01*
X106719247Y-208984372D01*
X106366081Y-208692676D01*
X106041790Y-208282304D01*
X105749364Y-207756377D01*
X105740455Y-207737439D01*
X105561965Y-207284195D01*
X105438514Y-206793886D01*
X105364996Y-206239043D01*
X105336309Y-205592193D01*
X105335993Y-205560750D01*
X103920423Y-205560750D01*
X103959543Y-205878573D01*
X104025112Y-206195750D01*
X104265122Y-206913049D01*
X104603027Y-207607651D01*
X105021070Y-208249040D01*
X105501494Y-208806701D01*
X105599864Y-208902085D01*
X106089866Y-209304445D01*
X106588244Y-209590318D01*
X107118202Y-209769348D01*
X107702943Y-209851179D01*
X107900500Y-209858341D01*
X108400667Y-209813113D01*
G36*
X103673769Y-212707022D02*
G01*
X103885905Y-212702647D01*
X104007268Y-212693475D01*
X104027000Y-212685970D01*
X104004505Y-212623337D01*
X103943625Y-212468215D01*
X103854269Y-212245573D01*
X103769929Y-212038052D01*
X103622008Y-211650791D01*
X103445363Y-211143533D01*
X103241074Y-210519738D01*
X103010221Y-209782860D01*
X102753885Y-208936359D01*
X102473145Y-207983691D01*
X102169081Y-206928313D01*
X102123202Y-206767250D01*
X101918301Y-206049888D01*
X101742565Y-205442187D01*
X101591801Y-204931268D01*
X101461814Y-204504253D01*
X101348410Y-204148263D01*
X101247394Y-203850417D01*
X101154572Y-203597839D01*
X101065750Y-203377648D01*
X100976734Y-203176965D01*
X100905135Y-203027048D01*
X100509711Y-202334266D01*
X100058743Y-201753832D01*
X99553244Y-201286685D01*
X98994224Y-200933762D01*
X98394506Y-200699356D01*
X98015508Y-200621276D01*
X97599305Y-200584828D01*
X97193097Y-200591007D01*
X96844085Y-200640807D01*
X96756250Y-200664826D01*
X96349937Y-200835333D01*
X96024196Y-201058681D01*
X95794185Y-201321534D01*
X95675065Y-201610555D01*
X95673828Y-201616992D01*
X95676467Y-201871028D01*
X95767882Y-202092869D01*
X95926001Y-202257372D01*
X96128754Y-202339393D01*
X96300371Y-202330781D01*
X96423153Y-202269628D01*
X96605097Y-202142959D01*
X96814307Y-201973788D01*
X96899220Y-201898701D01*
X97304400Y-201571271D01*
X97672672Y-201362167D01*
X98010738Y-201270438D01*
X98325296Y-201295131D01*
X98623046Y-201435296D01*
X98845804Y-201622039D01*
X98974055Y-201763703D01*
X99092056Y-201927800D01*
X99207360Y-202130668D01*
X99327519Y-202388643D01*
X99460088Y-202718062D01*
X99612618Y-203135262D01*
X99792662Y-203656579D01*
X99809832Y-203707267D01*
X99964047Y-204170574D01*
X100134036Y-204694540D01*
X100316420Y-205267735D01*
X100507818Y-205878729D01*
X100704851Y-206516092D01*
X100904139Y-207168392D01*
X101102301Y-207824202D01*
X101295957Y-208472089D01*
X101481727Y-209100624D01*
X101656231Y-209698377D01*
X101816090Y-210253918D01*
X101957922Y-210755817D01*
X102078348Y-211192643D01*
X102173987Y-211552966D01*
X102241461Y-211825356D01*
X102277387Y-211998383D01*
X102279831Y-212059835D01*
X102189287Y-212083537D01*
X102005718Y-212089650D01*
X101761553Y-212080354D01*
X101489219Y-212057828D01*
X101221143Y-212024254D01*
X100989755Y-211981810D01*
X100940352Y-211969786D01*
X100481136Y-211810746D01*
X100056486Y-211589005D01*
X99682716Y-211319546D01*
X99376141Y-211017349D01*
X99153075Y-210697396D01*
X99029832Y-210374670D01*
X99010500Y-210197580D01*
X99043211Y-210005776D01*
X99129332Y-209764100D01*
X99201000Y-209614612D01*
X99339514Y-209305830D01*
X99384211Y-209062516D01*
X99335849Y-208865375D01*
X99235636Y-208732864D01*
X99035227Y-208613108D01*
X98785856Y-208573926D01*
X98541840Y-208621993D01*
X98498982Y-208642383D01*
X98341078Y-208793440D01*
X98224954Y-209039373D01*
X98156506Y-209353235D01*
X98141630Y-209708076D01*
X98185677Y-210074314D01*
X98336341Y-210568033D01*
X98581771Y-211017880D01*
X98937693Y-211452662D01*
X98938503Y-211453512D01*
X99413898Y-211873219D01*
X99955845Y-212201039D01*
X100574693Y-212441617D01*
X101280796Y-212599597D01*
X101582250Y-212639845D01*
X101784774Y-212656878D01*
X102057781Y-212672157D01*
X102378232Y-212685247D01*
X102723093Y-212695713D01*
X103069327Y-212703120D01*
X103393898Y-212707035D01*
X103673769Y-212707022D01*
G37*
X103673769Y-212707022D02*
X103885905Y-212702647D01*
X104007268Y-212693475D01*
X104027000Y-212685970D01*
X104004505Y-212623337D01*
X103943625Y-212468215D01*
X103854269Y-212245573D01*
X103769929Y-212038052D01*
X103622008Y-211650791D01*
X103445363Y-211143533D01*
X103241074Y-210519738D01*
X103010221Y-209782860D01*
X102753885Y-208936359D01*
X102473145Y-207983691D01*
X102169081Y-206928313D01*
X102123202Y-206767250D01*
X101918301Y-206049888D01*
X101742565Y-205442187D01*
X101591801Y-204931268D01*
X101461814Y-204504253D01*
X101348410Y-204148263D01*
X101247394Y-203850417D01*
X101154572Y-203597839D01*
X101065750Y-203377648D01*
X100976734Y-203176965D01*
X100905135Y-203027048D01*
X100509711Y-202334266D01*
X100058743Y-201753832D01*
X99553244Y-201286685D01*
X98994224Y-200933762D01*
X98394506Y-200699356D01*
X98015508Y-200621276D01*
X97599305Y-200584828D01*
X97193097Y-200591007D01*
X96844085Y-200640807D01*
X96756250Y-200664826D01*
X96349937Y-200835333D01*
X96024196Y-201058681D01*
X95794185Y-201321534D01*
X95675065Y-201610555D01*
X95673828Y-201616992D01*
X95676467Y-201871028D01*
X95767882Y-202092869D01*
X95926001Y-202257372D01*
X96128754Y-202339393D01*
X96300371Y-202330781D01*
X96423153Y-202269628D01*
X96605097Y-202142959D01*
X96814307Y-201973788D01*
X96899220Y-201898701D01*
X97304400Y-201571271D01*
X97672672Y-201362167D01*
X98010738Y-201270438D01*
X98325296Y-201295131D01*
X98623046Y-201435296D01*
X98845804Y-201622039D01*
X98974055Y-201763703D01*
X99092056Y-201927800D01*
X99207360Y-202130668D01*
X99327519Y-202388643D01*
X99460088Y-202718062D01*
X99612618Y-203135262D01*
X99792662Y-203656579D01*
X99809832Y-203707267D01*
X99964047Y-204170574D01*
X100134036Y-204694540D01*
X100316420Y-205267735D01*
X100507818Y-205878729D01*
X100704851Y-206516092D01*
X100904139Y-207168392D01*
X101102301Y-207824202D01*
X101295957Y-208472089D01*
X101481727Y-209100624D01*
X101656231Y-209698377D01*
X101816090Y-210253918D01*
X101957922Y-210755817D01*
X102078348Y-211192643D01*
X102173987Y-211552966D01*
X102241461Y-211825356D01*
X102277387Y-211998383D01*
X102279831Y-212059835D01*
X102189287Y-212083537D01*
X102005718Y-212089650D01*
X101761553Y-212080354D01*
X101489219Y-212057828D01*
X101221143Y-212024254D01*
X100989755Y-211981810D01*
X100940352Y-211969786D01*
X100481136Y-211810746D01*
X100056486Y-211589005D01*
X99682716Y-211319546D01*
X99376141Y-211017349D01*
X99153075Y-210697396D01*
X99029832Y-210374670D01*
X99010500Y-210197580D01*
X99043211Y-210005776D01*
X99129332Y-209764100D01*
X99201000Y-209614612D01*
X99339514Y-209305830D01*
X99384211Y-209062516D01*
X99335849Y-208865375D01*
X99235636Y-208732864D01*
X99035227Y-208613108D01*
X98785856Y-208573926D01*
X98541840Y-208621993D01*
X98498982Y-208642383D01*
X98341078Y-208793440D01*
X98224954Y-209039373D01*
X98156506Y-209353235D01*
X98141630Y-209708076D01*
X98185677Y-210074314D01*
X98336341Y-210568033D01*
X98581771Y-211017880D01*
X98937693Y-211452662D01*
X98938503Y-211453512D01*
X99413898Y-211873219D01*
X99955845Y-212201039D01*
X100574693Y-212441617D01*
X101280796Y-212599597D01*
X101582250Y-212639845D01*
X101784774Y-212656878D01*
X102057781Y-212672157D01*
X102378232Y-212685247D01*
X102723093Y-212695713D01*
X103069327Y-212703120D01*
X103393898Y-212707035D01*
X103673769Y-212707022D01*
G36*
X91990614Y-171789061D02*
G01*
X92377964Y-171663929D01*
X92686848Y-171465086D01*
X92903627Y-171197660D01*
X92961175Y-171073479D01*
X92996482Y-170823181D01*
X92924043Y-170593484D01*
X92763033Y-170409546D01*
X92532625Y-170296526D01*
X92351122Y-170273000D01*
X92224186Y-170303348D01*
X92071757Y-170404472D01*
X91872130Y-170591490D01*
X91826935Y-170638126D01*
X91637221Y-170828760D01*
X91459289Y-170995171D01*
X91327898Y-171105030D01*
X91315341Y-171113957D01*
X91073228Y-171212954D01*
X90823233Y-171203356D01*
X90586728Y-171100150D01*
X90385087Y-170918326D01*
X90239680Y-170672873D01*
X90171879Y-170378780D01*
X90169500Y-170310337D01*
X90192893Y-170106837D01*
X90269382Y-169887999D01*
X90408428Y-169637613D01*
X90619494Y-169339470D01*
X90912042Y-168977361D01*
X91025339Y-168844250D01*
X91262235Y-168556738D01*
X91485695Y-168264277D01*
X91673158Y-167997801D01*
X91802068Y-167788247D01*
X91818473Y-167756626D01*
X91998576Y-167269079D01*
X92059093Y-166791522D01*
X92007434Y-166334494D01*
X91851013Y-165908534D01*
X91597240Y-165524181D01*
X91253528Y-165191974D01*
X90827289Y-164922452D01*
X90325935Y-164726155D01*
X89756878Y-164613621D01*
X89598000Y-164599331D01*
X89348012Y-164586972D01*
X89134900Y-164584892D01*
X89001517Y-164593418D01*
X88994750Y-164594747D01*
X88859977Y-164623329D01*
X88658227Y-164664924D01*
X88539064Y-164689130D01*
X88145044Y-164824706D01*
X87825705Y-165048905D01*
X87594170Y-165346629D01*
X87463561Y-165702781D01*
X87439000Y-165954705D01*
X87476626Y-166269625D01*
X87594033Y-166492022D01*
X87798014Y-166633304D01*
X87855954Y-166654888D01*
X88125242Y-166692814D01*
X88366778Y-166611656D01*
X88502625Y-166508133D01*
X88592148Y-166396660D01*
X88635181Y-166246826D01*
X88645500Y-166036028D01*
X88676354Y-165704470D01*
X88776651Y-165465412D01*
X88957992Y-165298288D01*
X89101602Y-165227517D01*
X89451088Y-165150442D01*
X89813976Y-165177804D01*
X90163575Y-165296705D01*
X90473191Y-165494241D01*
X90716134Y-165757512D01*
X90865710Y-166073617D01*
X90867775Y-166081167D01*
X90904030Y-166266133D01*
X90902937Y-166443464D01*
X90856510Y-166629125D01*
X90756764Y-166839085D01*
X90595716Y-167089311D01*
X90365378Y-167395772D01*
X90057767Y-167774435D01*
X89965986Y-167884486D01*
X89678710Y-168245465D01*
X89468402Y-168556734D01*
X89315710Y-168851362D01*
X89201285Y-169162415D01*
X89183610Y-169221491D01*
X89100211Y-169716614D01*
X89140825Y-170190668D01*
X89303108Y-170635300D01*
X89584710Y-171042157D01*
X89740060Y-171201693D01*
X90061089Y-171458957D01*
X90404008Y-171637719D01*
X90809664Y-171756776D01*
X91035066Y-171797680D01*
X91538436Y-171835353D01*
X91990614Y-171789061D01*
G37*
X91990614Y-171789061D02*
X92377964Y-171663929D01*
X92686848Y-171465086D01*
X92903627Y-171197660D01*
X92961175Y-171073479D01*
X92996482Y-170823181D01*
X92924043Y-170593484D01*
X92763033Y-170409546D01*
X92532625Y-170296526D01*
X92351122Y-170273000D01*
X92224186Y-170303348D01*
X92071757Y-170404472D01*
X91872130Y-170591490D01*
X91826935Y-170638126D01*
X91637221Y-170828760D01*
X91459289Y-170995171D01*
X91327898Y-171105030D01*
X91315341Y-171113957D01*
X91073228Y-171212954D01*
X90823233Y-171203356D01*
X90586728Y-171100150D01*
X90385087Y-170918326D01*
X90239680Y-170672873D01*
X90171879Y-170378780D01*
X90169500Y-170310337D01*
X90192893Y-170106837D01*
X90269382Y-169887999D01*
X90408428Y-169637613D01*
X90619494Y-169339470D01*
X90912042Y-168977361D01*
X91025339Y-168844250D01*
X91262235Y-168556738D01*
X91485695Y-168264277D01*
X91673158Y-167997801D01*
X91802068Y-167788247D01*
X91818473Y-167756626D01*
X91998576Y-167269079D01*
X92059093Y-166791522D01*
X92007434Y-166334494D01*
X91851013Y-165908534D01*
X91597240Y-165524181D01*
X91253528Y-165191974D01*
X90827289Y-164922452D01*
X90325935Y-164726155D01*
X89756878Y-164613621D01*
X89598000Y-164599331D01*
X89348012Y-164586972D01*
X89134900Y-164584892D01*
X89001517Y-164593418D01*
X88994750Y-164594747D01*
X88859977Y-164623329D01*
X88658227Y-164664924D01*
X88539064Y-164689130D01*
X88145044Y-164824706D01*
X87825705Y-165048905D01*
X87594170Y-165346629D01*
X87463561Y-165702781D01*
X87439000Y-165954705D01*
X87476626Y-166269625D01*
X87594033Y-166492022D01*
X87798014Y-166633304D01*
X87855954Y-166654888D01*
X88125242Y-166692814D01*
X88366778Y-166611656D01*
X88502625Y-166508133D01*
X88592148Y-166396660D01*
X88635181Y-166246826D01*
X88645500Y-166036028D01*
X88676354Y-165704470D01*
X88776651Y-165465412D01*
X88957992Y-165298288D01*
X89101602Y-165227517D01*
X89451088Y-165150442D01*
X89813976Y-165177804D01*
X90163575Y-165296705D01*
X90473191Y-165494241D01*
X90716134Y-165757512D01*
X90865710Y-166073617D01*
X90867775Y-166081167D01*
X90904030Y-166266133D01*
X90902937Y-166443464D01*
X90856510Y-166629125D01*
X90756764Y-166839085D01*
X90595716Y-167089311D01*
X90365378Y-167395772D01*
X90057767Y-167774435D01*
X89965986Y-167884486D01*
X89678710Y-168245465D01*
X89468402Y-168556734D01*
X89315710Y-168851362D01*
X89201285Y-169162415D01*
X89183610Y-169221491D01*
X89100211Y-169716614D01*
X89140825Y-170190668D01*
X89303108Y-170635300D01*
X89584710Y-171042157D01*
X89740060Y-171201693D01*
X90061089Y-171458957D01*
X90404008Y-171637719D01*
X90809664Y-171756776D01*
X91035066Y-171797680D01*
X91538436Y-171835353D01*
X91990614Y-171789061D01*
G36*
X86325699Y-171803010D02*
G01*
X86666452Y-171672869D01*
X86920579Y-171464213D01*
X87087445Y-171191982D01*
X87166417Y-170871120D01*
X87156861Y-170516565D01*
X87058144Y-170143261D01*
X86869633Y-169766148D01*
X86590693Y-169400167D01*
X86434284Y-169241951D01*
X86195376Y-169033538D01*
X85932593Y-168837280D01*
X85625874Y-168640963D01*
X85255160Y-168432377D01*
X84800388Y-168199311D01*
X84409298Y-168009326D01*
X84039301Y-167832479D01*
X83767658Y-167694372D01*
X83579785Y-167575664D01*
X83461096Y-167457011D01*
X83397008Y-167319071D01*
X83372935Y-167142501D01*
X83374292Y-166907959D01*
X83384483Y-166650209D01*
X83397211Y-166374460D01*
X83416217Y-166193174D01*
X83451268Y-166073863D01*
X83512130Y-165984041D01*
X83608567Y-165891217D01*
X83614126Y-165886247D01*
X83827779Y-165744842D01*
X84008782Y-165701000D01*
X84311887Y-165748215D01*
X84686484Y-165886144D01*
X85121252Y-166109211D01*
X85604873Y-166411842D01*
X85954446Y-166659187D01*
X86137332Y-166786702D01*
X86285449Y-166876294D01*
X86362484Y-166907500D01*
X86453553Y-166860224D01*
X86564033Y-166750563D01*
X86650981Y-166626767D01*
X86674887Y-166556502D01*
X86627983Y-166478510D01*
X86496447Y-166341290D01*
X86298238Y-166160475D01*
X86051314Y-165951698D01*
X85773634Y-165730592D01*
X85483155Y-165512792D01*
X85441151Y-165482493D01*
X84878323Y-165115416D01*
X84352714Y-164851698D01*
X83843955Y-164681511D01*
X83724250Y-164653944D01*
X83436138Y-164597698D01*
X83227990Y-164572175D01*
X83056999Y-164575598D01*
X82880356Y-164606191D01*
X82833921Y-164617005D01*
X82514704Y-164752297D01*
X82267686Y-164988379D01*
X82092458Y-165326300D01*
X81988613Y-165767106D01*
X81955742Y-166311847D01*
X81979338Y-166812250D01*
X82047051Y-167359386D01*
X82159809Y-167875542D01*
X82276466Y-168235770D01*
X83565500Y-168235770D01*
X83615219Y-168221956D01*
X83756153Y-168275254D01*
X83975962Y-168389249D01*
X84262310Y-168557527D01*
X84602859Y-168773674D01*
X84613250Y-168780480D01*
X85081031Y-169119460D01*
X85451495Y-169456829D01*
X85717894Y-169784586D01*
X85873477Y-170094724D01*
X85913605Y-170322665D01*
X85865540Y-170582994D01*
X85735154Y-170823348D01*
X85550487Y-170993949D01*
X85528692Y-171005995D01*
X85277698Y-171068493D01*
X85006222Y-171019990D01*
X84733097Y-170870245D01*
X84477155Y-170629021D01*
X84289866Y-170363940D01*
X84160890Y-170112952D01*
X84023136Y-169793684D01*
X83886971Y-169436592D01*
X83762761Y-169072129D01*
X83660870Y-168730750D01*
X83591665Y-168442910D01*
X83565512Y-168239063D01*
X83565500Y-168235770D01*
X82276466Y-168235770D01*
X82328237Y-168395632D01*
X82562958Y-168954567D01*
X82748491Y-169340039D01*
X83089809Y-169942436D01*
X83476284Y-170483925D01*
X83893041Y-170947766D01*
X84325203Y-171317220D01*
X84718675Y-171556972D01*
X85143675Y-171719330D01*
X85595263Y-171815562D01*
X86029704Y-171838973D01*
X86325699Y-171803010D01*
G37*
X86325699Y-171803010D02*
X86666452Y-171672869D01*
X86920579Y-171464213D01*
X87087445Y-171191982D01*
X87166417Y-170871120D01*
X87156861Y-170516565D01*
X87058144Y-170143261D01*
X86869633Y-169766148D01*
X86590693Y-169400167D01*
X86434284Y-169241951D01*
X86195376Y-169033538D01*
X85932593Y-168837280D01*
X85625874Y-168640963D01*
X85255160Y-168432377D01*
X84800388Y-168199311D01*
X84409298Y-168009326D01*
X84039301Y-167832479D01*
X83767658Y-167694372D01*
X83579785Y-167575664D01*
X83461096Y-167457011D01*
X83397008Y-167319071D01*
X83372935Y-167142501D01*
X83374292Y-166907959D01*
X83384483Y-166650209D01*
X83397211Y-166374460D01*
X83416217Y-166193174D01*
X83451268Y-166073863D01*
X83512130Y-165984041D01*
X83608567Y-165891217D01*
X83614126Y-165886247D01*
X83827779Y-165744842D01*
X84008782Y-165701000D01*
X84311887Y-165748215D01*
X84686484Y-165886144D01*
X85121252Y-166109211D01*
X85604873Y-166411842D01*
X85954446Y-166659187D01*
X86137332Y-166786702D01*
X86285449Y-166876294D01*
X86362484Y-166907500D01*
X86453553Y-166860224D01*
X86564033Y-166750563D01*
X86650981Y-166626767D01*
X86674887Y-166556502D01*
X86627983Y-166478510D01*
X86496447Y-166341290D01*
X86298238Y-166160475D01*
X86051314Y-165951698D01*
X85773634Y-165730592D01*
X85483155Y-165512792D01*
X85441151Y-165482493D01*
X84878323Y-165115416D01*
X84352714Y-164851698D01*
X83843955Y-164681511D01*
X83724250Y-164653944D01*
X83436138Y-164597698D01*
X83227990Y-164572175D01*
X83056999Y-164575598D01*
X82880356Y-164606191D01*
X82833921Y-164617005D01*
X82514704Y-164752297D01*
X82267686Y-164988379D01*
X82092458Y-165326300D01*
X81988613Y-165767106D01*
X81955742Y-166311847D01*
X81979338Y-166812250D01*
X82047051Y-167359386D01*
X82159809Y-167875542D01*
X82276466Y-168235770D01*
X83565500Y-168235770D01*
X83615219Y-168221956D01*
X83756153Y-168275254D01*
X83975962Y-168389249D01*
X84262310Y-168557527D01*
X84602859Y-168773674D01*
X84613250Y-168780480D01*
X85081031Y-169119460D01*
X85451495Y-169456829D01*
X85717894Y-169784586D01*
X85873477Y-170094724D01*
X85913605Y-170322665D01*
X85865540Y-170582994D01*
X85735154Y-170823348D01*
X85550487Y-170993949D01*
X85528692Y-171005995D01*
X85277698Y-171068493D01*
X85006222Y-171019990D01*
X84733097Y-170870245D01*
X84477155Y-170629021D01*
X84289866Y-170363940D01*
X84160890Y-170112952D01*
X84023136Y-169793684D01*
X83886971Y-169436592D01*
X83762761Y-169072129D01*
X83660870Y-168730750D01*
X83591665Y-168442910D01*
X83565512Y-168239063D01*
X83565500Y-168235770D01*
X82276466Y-168235770D01*
X82328237Y-168395632D01*
X82562958Y-168954567D01*
X82748491Y-169340039D01*
X83089809Y-169942436D01*
X83476284Y-170483925D01*
X83893041Y-170947766D01*
X84325203Y-171317220D01*
X84718675Y-171556972D01*
X85143675Y-171719330D01*
X85595263Y-171815562D01*
X86029704Y-171838973D01*
X86325699Y-171803010D01*
G36*
X77249664Y-171788270D02*
G01*
X77302158Y-171743392D01*
X77350097Y-171684276D01*
X77377186Y-171619524D01*
X77382077Y-171525459D01*
X77363423Y-171378405D01*
X77319877Y-171154685D01*
X77250273Y-170831453D01*
X77182156Y-170522229D01*
X77120965Y-170250025D01*
X77073208Y-170043424D01*
X77045392Y-169931009D01*
X77044668Y-169928463D01*
X77070434Y-169911741D01*
X77174657Y-169976317D01*
X77345663Y-170114019D01*
X77483892Y-170235962D01*
X77948505Y-170633910D01*
X78418216Y-170994000D01*
X78875395Y-171305104D01*
X79302415Y-171556097D01*
X79681648Y-171735851D01*
X79995465Y-171833239D01*
X80021876Y-171837907D01*
X80313189Y-171830331D01*
X80570900Y-171722170D01*
X80762511Y-171530002D01*
X80812934Y-171434368D01*
X80857463Y-171301749D01*
X80881415Y-171153279D01*
X80882360Y-170975266D01*
X80857867Y-170754017D01*
X80805505Y-170475839D01*
X80722843Y-170127040D01*
X80607452Y-169693927D01*
X80456900Y-169162807D01*
X80336233Y-168749000D01*
X80149914Y-168111338D01*
X79997993Y-167582389D01*
X79877420Y-167149513D01*
X79785147Y-166800070D01*
X79718123Y-166521418D01*
X79673300Y-166300919D01*
X79647629Y-166125930D01*
X79638059Y-165983813D01*
X79641117Y-165867562D01*
X79672317Y-165690129D01*
X79741132Y-165598947D01*
X79858639Y-165595431D01*
X80035914Y-165680996D01*
X80284032Y-165857059D01*
X80423432Y-165967552D01*
X80719798Y-166208061D01*
X80932687Y-166379288D01*
X81078411Y-166490512D01*
X81173279Y-166551010D01*
X81233602Y-166570061D01*
X81275690Y-166556944D01*
X81315855Y-166520936D01*
X81345782Y-166492232D01*
X81439601Y-166382606D01*
X81470000Y-166308449D01*
X81427135Y-166234534D01*
X81312705Y-166098439D01*
X81147954Y-165924679D01*
X81073125Y-165850511D01*
X80556786Y-165381277D01*
X80080188Y-165017079D01*
X79646838Y-164759728D01*
X79260241Y-164611035D01*
X78923904Y-164572811D01*
X78695199Y-164622249D01*
X78520190Y-164760421D01*
X78403359Y-165008381D01*
X78346132Y-165362304D01*
X78340288Y-165574000D01*
X78365764Y-165923077D01*
X78438560Y-166370023D01*
X78559647Y-166919120D01*
X78729992Y-167574646D01*
X78950567Y-168340881D01*
X79016819Y-168560594D01*
X79177557Y-169106102D01*
X79307356Y-169581929D01*
X79403754Y-169977406D01*
X79464287Y-170281864D01*
X79486493Y-170484633D01*
X79478271Y-170559443D01*
X79385794Y-170643403D01*
X79215440Y-170651444D01*
X78984202Y-170592082D01*
X78709072Y-170473828D01*
X78407044Y-170305198D01*
X78095109Y-170094703D01*
X77790261Y-169850859D01*
X77509492Y-169582177D01*
X77493325Y-169564963D01*
X77325658Y-169378272D01*
X77182008Y-169197646D01*
X77056745Y-169008381D01*
X76944239Y-168795772D01*
X76838860Y-168545113D01*
X76734977Y-168241700D01*
X76626962Y-167870827D01*
X76509182Y-167417791D01*
X76376009Y-166867885D01*
X76243668Y-166301052D01*
X75906789Y-164843750D01*
X75259394Y-164825654D01*
X74990140Y-164822812D01*
X74775662Y-164829463D01*
X74642545Y-164844240D01*
X74612000Y-164858956D01*
X74627055Y-164935108D01*
X74668639Y-165112149D01*
X74731380Y-165368040D01*
X74809906Y-165680741D01*
X74864054Y-165893052D01*
X74979143Y-166348315D01*
X75101696Y-166844703D01*
X75228089Y-167366461D01*
X75354699Y-167897829D01*
X75477903Y-168423051D01*
X75594076Y-168926368D01*
X75699595Y-169392024D01*
X75790837Y-169804260D01*
X75864178Y-170147319D01*
X75915996Y-170405443D01*
X75942665Y-170562875D01*
X75945500Y-170595986D01*
X75928349Y-170736707D01*
X75892161Y-170806470D01*
X75786836Y-170799577D01*
X75600039Y-170703672D01*
X75337321Y-170522243D01*
X75004234Y-170258777D01*
X74954918Y-170217732D01*
X74471423Y-169813213D01*
X74153841Y-170130795D01*
X74430545Y-170384501D01*
X74818470Y-170732677D01*
X75142659Y-171004826D01*
X75425849Y-171217934D01*
X75690778Y-171388987D01*
X75960183Y-171534970D01*
X75990889Y-171550140D01*
X76409415Y-171729886D01*
X76765128Y-171830434D01*
X77048416Y-171850367D01*
X77249664Y-171788270D01*
G37*
X77249664Y-171788270D02*
X77302158Y-171743392D01*
X77350097Y-171684276D01*
X77377186Y-171619524D01*
X77382077Y-171525459D01*
X77363423Y-171378405D01*
X77319877Y-171154685D01*
X77250273Y-170831453D01*
X77182156Y-170522229D01*
X77120965Y-170250025D01*
X77073208Y-170043424D01*
X77045392Y-169931009D01*
X77044668Y-169928463D01*
X77070434Y-169911741D01*
X77174657Y-169976317D01*
X77345663Y-170114019D01*
X77483892Y-170235962D01*
X77948505Y-170633910D01*
X78418216Y-170994000D01*
X78875395Y-171305104D01*
X79302415Y-171556097D01*
X79681648Y-171735851D01*
X79995465Y-171833239D01*
X80021876Y-171837907D01*
X80313189Y-171830331D01*
X80570900Y-171722170D01*
X80762511Y-171530002D01*
X80812934Y-171434368D01*
X80857463Y-171301749D01*
X80881415Y-171153279D01*
X80882360Y-170975266D01*
X80857867Y-170754017D01*
X80805505Y-170475839D01*
X80722843Y-170127040D01*
X80607452Y-169693927D01*
X80456900Y-169162807D01*
X80336233Y-168749000D01*
X80149914Y-168111338D01*
X79997993Y-167582389D01*
X79877420Y-167149513D01*
X79785147Y-166800070D01*
X79718123Y-166521418D01*
X79673300Y-166300919D01*
X79647629Y-166125930D01*
X79638059Y-165983813D01*
X79641117Y-165867562D01*
X79672317Y-165690129D01*
X79741132Y-165598947D01*
X79858639Y-165595431D01*
X80035914Y-165680996D01*
X80284032Y-165857059D01*
X80423432Y-165967552D01*
X80719798Y-166208061D01*
X80932687Y-166379288D01*
X81078411Y-166490512D01*
X81173279Y-166551010D01*
X81233602Y-166570061D01*
X81275690Y-166556944D01*
X81315855Y-166520936D01*
X81345782Y-166492232D01*
X81439601Y-166382606D01*
X81470000Y-166308449D01*
X81427135Y-166234534D01*
X81312705Y-166098439D01*
X81147954Y-165924679D01*
X81073125Y-165850511D01*
X80556786Y-165381277D01*
X80080188Y-165017079D01*
X79646838Y-164759728D01*
X79260241Y-164611035D01*
X78923904Y-164572811D01*
X78695199Y-164622249D01*
X78520190Y-164760421D01*
X78403359Y-165008381D01*
X78346132Y-165362304D01*
X78340288Y-165574000D01*
X78365764Y-165923077D01*
X78438560Y-166370023D01*
X78559647Y-166919120D01*
X78729992Y-167574646D01*
X78950567Y-168340881D01*
X79016819Y-168560594D01*
X79177557Y-169106102D01*
X79307356Y-169581929D01*
X79403754Y-169977406D01*
X79464287Y-170281864D01*
X79486493Y-170484633D01*
X79478271Y-170559443D01*
X79385794Y-170643403D01*
X79215440Y-170651444D01*
X78984202Y-170592082D01*
X78709072Y-170473828D01*
X78407044Y-170305198D01*
X78095109Y-170094703D01*
X77790261Y-169850859D01*
X77509492Y-169582177D01*
X77493325Y-169564963D01*
X77325658Y-169378272D01*
X77182008Y-169197646D01*
X77056745Y-169008381D01*
X76944239Y-168795772D01*
X76838860Y-168545113D01*
X76734977Y-168241700D01*
X76626962Y-167870827D01*
X76509182Y-167417791D01*
X76376009Y-166867885D01*
X76243668Y-166301052D01*
X75906789Y-164843750D01*
X75259394Y-164825654D01*
X74990140Y-164822812D01*
X74775662Y-164829463D01*
X74642545Y-164844240D01*
X74612000Y-164858956D01*
X74627055Y-164935108D01*
X74668639Y-165112149D01*
X74731380Y-165368040D01*
X74809906Y-165680741D01*
X74864054Y-165893052D01*
X74979143Y-166348315D01*
X75101696Y-166844703D01*
X75228089Y-167366461D01*
X75354699Y-167897829D01*
X75477903Y-168423051D01*
X75594076Y-168926368D01*
X75699595Y-169392024D01*
X75790837Y-169804260D01*
X75864178Y-170147319D01*
X75915996Y-170405443D01*
X75942665Y-170562875D01*
X75945500Y-170595986D01*
X75928349Y-170736707D01*
X75892161Y-170806470D01*
X75786836Y-170799577D01*
X75600039Y-170703672D01*
X75337321Y-170522243D01*
X75004234Y-170258777D01*
X74954918Y-170217732D01*
X74471423Y-169813213D01*
X74153841Y-170130795D01*
X74430545Y-170384501D01*
X74818470Y-170732677D01*
X75142659Y-171004826D01*
X75425849Y-171217934D01*
X75690778Y-171388987D01*
X75960183Y-171534970D01*
X75990889Y-171550140D01*
X76409415Y-171729886D01*
X76765128Y-171830434D01*
X77048416Y-171850367D01*
X77249664Y-171788270D01*
G36*
X72000667Y-171763113D02*
G01*
X72432406Y-171611027D01*
X72797003Y-171351262D01*
X73095746Y-170982997D01*
X73252029Y-170692061D01*
X73378546Y-170309498D01*
X73456067Y-169842626D01*
X73483904Y-169324589D01*
X73461373Y-168788531D01*
X73387784Y-168267596D01*
X73309024Y-167941636D01*
X73085776Y-167353945D01*
X72768038Y-166774045D01*
X72373823Y-166222390D01*
X71921146Y-165719435D01*
X71428021Y-165285636D01*
X70912463Y-164941446D01*
X70491758Y-164742754D01*
X70118937Y-164639107D01*
X69699290Y-164583334D01*
X69278351Y-164577307D01*
X68901656Y-164622897D01*
X68730553Y-164670391D01*
X68307882Y-164882098D01*
X67968396Y-165186515D01*
X67707524Y-165588427D01*
X67592781Y-165861487D01*
X67525717Y-166149271D01*
X67489359Y-166525017D01*
X67483209Y-166953580D01*
X67506769Y-167399814D01*
X67520423Y-167510750D01*
X68935993Y-167510750D01*
X68953271Y-166916796D01*
X69019451Y-166428934D01*
X69138902Y-166034323D01*
X69315995Y-165720118D01*
X69555102Y-165473476D01*
X69654026Y-165400887D01*
X69864674Y-165292339D01*
X70075493Y-165266798D01*
X70322340Y-165324557D01*
X70521413Y-165407987D01*
X70861166Y-165632345D01*
X71172973Y-165970410D01*
X71450143Y-166410679D01*
X71685984Y-166941650D01*
X71873803Y-167551820D01*
X71940485Y-167847251D01*
X71979370Y-168139893D01*
X72000441Y-168515150D01*
X72004012Y-168929939D01*
X71990401Y-169341178D01*
X71959921Y-169705781D01*
X71925251Y-169927185D01*
X71798395Y-170345873D01*
X71615806Y-170686199D01*
X71388711Y-170937392D01*
X71128339Y-171088679D01*
X70845918Y-171129289D01*
X70698293Y-171104269D01*
X70319247Y-170934372D01*
X69966081Y-170642676D01*
X69641790Y-170232304D01*
X69349364Y-169706377D01*
X69340455Y-169687439D01*
X69161965Y-169234195D01*
X69038514Y-168743886D01*
X68964996Y-168189043D01*
X68936309Y-167542193D01*
X68935993Y-167510750D01*
X67520423Y-167510750D01*
X67559543Y-167828573D01*
X67625112Y-168145750D01*
X67865122Y-168863049D01*
X68203027Y-169557651D01*
X68621070Y-170199040D01*
X69101494Y-170756701D01*
X69199864Y-170852085D01*
X69689866Y-171254445D01*
X70188244Y-171540318D01*
X70718202Y-171719348D01*
X71302943Y-171801179D01*
X71500500Y-171808341D01*
X72000667Y-171763113D01*
G37*
X72000667Y-171763113D02*
X72432406Y-171611027D01*
X72797003Y-171351262D01*
X73095746Y-170982997D01*
X73252029Y-170692061D01*
X73378546Y-170309498D01*
X73456067Y-169842626D01*
X73483904Y-169324589D01*
X73461373Y-168788531D01*
X73387784Y-168267596D01*
X73309024Y-167941636D01*
X73085776Y-167353945D01*
X72768038Y-166774045D01*
X72373823Y-166222390D01*
X71921146Y-165719435D01*
X71428021Y-165285636D01*
X70912463Y-164941446D01*
X70491758Y-164742754D01*
X70118937Y-164639107D01*
X69699290Y-164583334D01*
X69278351Y-164577307D01*
X68901656Y-164622897D01*
X68730553Y-164670391D01*
X68307882Y-164882098D01*
X67968396Y-165186515D01*
X67707524Y-165588427D01*
X67592781Y-165861487D01*
X67525717Y-166149271D01*
X67489359Y-166525017D01*
X67483209Y-166953580D01*
X67506769Y-167399814D01*
X67520423Y-167510750D01*
X68935993Y-167510750D01*
X68953271Y-166916796D01*
X69019451Y-166428934D01*
X69138902Y-166034323D01*
X69315995Y-165720118D01*
X69555102Y-165473476D01*
X69654026Y-165400887D01*
X69864674Y-165292339D01*
X70075493Y-165266798D01*
X70322340Y-165324557D01*
X70521413Y-165407987D01*
X70861166Y-165632345D01*
X71172973Y-165970410D01*
X71450143Y-166410679D01*
X71685984Y-166941650D01*
X71873803Y-167551820D01*
X71940485Y-167847251D01*
X71979370Y-168139893D01*
X72000441Y-168515150D01*
X72004012Y-168929939D01*
X71990401Y-169341178D01*
X71959921Y-169705781D01*
X71925251Y-169927185D01*
X71798395Y-170345873D01*
X71615806Y-170686199D01*
X71388711Y-170937392D01*
X71128339Y-171088679D01*
X70845918Y-171129289D01*
X70698293Y-171104269D01*
X70319247Y-170934372D01*
X69966081Y-170642676D01*
X69641790Y-170232304D01*
X69349364Y-169706377D01*
X69340455Y-169687439D01*
X69161965Y-169234195D01*
X69038514Y-168743886D01*
X68964996Y-168189043D01*
X68936309Y-167542193D01*
X68935993Y-167510750D01*
X67520423Y-167510750D01*
X67559543Y-167828573D01*
X67625112Y-168145750D01*
X67865122Y-168863049D01*
X68203027Y-169557651D01*
X68621070Y-170199040D01*
X69101494Y-170756701D01*
X69199864Y-170852085D01*
X69689866Y-171254445D01*
X70188244Y-171540318D01*
X70718202Y-171719348D01*
X71302943Y-171801179D01*
X71500500Y-171808341D01*
X72000667Y-171763113D01*
G36*
X67273769Y-174657022D02*
G01*
X67485905Y-174652647D01*
X67607268Y-174643475D01*
X67627000Y-174635970D01*
X67604505Y-174573337D01*
X67543625Y-174418215D01*
X67454269Y-174195573D01*
X67369929Y-173988052D01*
X67222008Y-173600791D01*
X67045363Y-173093533D01*
X66841074Y-172469738D01*
X66610221Y-171732860D01*
X66353885Y-170886359D01*
X66073145Y-169933691D01*
X65769081Y-168878313D01*
X65723202Y-168717250D01*
X65518301Y-167999888D01*
X65342565Y-167392187D01*
X65191801Y-166881268D01*
X65061814Y-166454253D01*
X64948410Y-166098263D01*
X64847394Y-165800417D01*
X64754572Y-165547839D01*
X64665750Y-165327648D01*
X64576734Y-165126965D01*
X64505135Y-164977048D01*
X64109711Y-164284266D01*
X63658743Y-163703832D01*
X63153244Y-163236685D01*
X62594224Y-162883762D01*
X61994506Y-162649356D01*
X61615508Y-162571276D01*
X61199305Y-162534828D01*
X60793097Y-162541007D01*
X60444085Y-162590807D01*
X60356250Y-162614826D01*
X59949937Y-162785333D01*
X59624196Y-163008681D01*
X59394185Y-163271534D01*
X59275065Y-163560555D01*
X59273828Y-163566992D01*
X59276467Y-163821028D01*
X59367882Y-164042869D01*
X59526001Y-164207372D01*
X59728754Y-164289393D01*
X59900371Y-164280781D01*
X60023153Y-164219628D01*
X60205097Y-164092959D01*
X60414307Y-163923788D01*
X60499220Y-163848701D01*
X60904400Y-163521271D01*
X61272672Y-163312167D01*
X61610738Y-163220438D01*
X61925296Y-163245131D01*
X62223046Y-163385296D01*
X62445804Y-163572039D01*
X62574055Y-163713703D01*
X62692056Y-163877800D01*
X62807360Y-164080668D01*
X62927519Y-164338643D01*
X63060088Y-164668062D01*
X63212618Y-165085262D01*
X63392662Y-165606579D01*
X63409832Y-165657267D01*
X63564047Y-166120574D01*
X63734036Y-166644540D01*
X63916420Y-167217735D01*
X64107818Y-167828729D01*
X64304851Y-168466092D01*
X64504139Y-169118392D01*
X64702301Y-169774202D01*
X64895957Y-170422089D01*
X65081727Y-171050624D01*
X65256231Y-171648377D01*
X65416090Y-172203918D01*
X65557922Y-172705817D01*
X65678348Y-173142643D01*
X65773987Y-173502966D01*
X65841461Y-173775356D01*
X65877387Y-173948383D01*
X65879831Y-174009835D01*
X65789287Y-174033537D01*
X65605718Y-174039650D01*
X65361553Y-174030354D01*
X65089219Y-174007828D01*
X64821143Y-173974254D01*
X64589755Y-173931810D01*
X64540352Y-173919786D01*
X64081136Y-173760746D01*
X63656486Y-173539005D01*
X63282716Y-173269546D01*
X62976141Y-172967349D01*
X62753075Y-172647396D01*
X62629832Y-172324670D01*
X62610500Y-172147580D01*
X62643211Y-171955776D01*
X62729332Y-171714100D01*
X62801000Y-171564612D01*
X62939514Y-171255830D01*
X62984211Y-171012516D01*
X62935849Y-170815375D01*
X62835636Y-170682864D01*
X62635227Y-170563108D01*
X62385856Y-170523926D01*
X62141840Y-170571993D01*
X62098982Y-170592383D01*
X61941078Y-170743440D01*
X61824954Y-170989373D01*
X61756506Y-171303235D01*
X61741630Y-171658076D01*
X61785677Y-172024314D01*
X61936341Y-172518033D01*
X62181771Y-172967880D01*
X62537693Y-173402662D01*
X62538503Y-173403512D01*
X63013898Y-173823219D01*
X63555845Y-174151039D01*
X64174693Y-174391617D01*
X64880796Y-174549597D01*
X65182250Y-174589845D01*
X65384774Y-174606878D01*
X65657781Y-174622157D01*
X65978232Y-174635247D01*
X66323093Y-174645713D01*
X66669327Y-174653120D01*
X66993898Y-174657035D01*
X67273769Y-174657022D01*
G37*
X67273769Y-174657022D02*
X67485905Y-174652647D01*
X67607268Y-174643475D01*
X67627000Y-174635970D01*
X67604505Y-174573337D01*
X67543625Y-174418215D01*
X67454269Y-174195573D01*
X67369929Y-173988052D01*
X67222008Y-173600791D01*
X67045363Y-173093533D01*
X66841074Y-172469738D01*
X66610221Y-171732860D01*
X66353885Y-170886359D01*
X66073145Y-169933691D01*
X65769081Y-168878313D01*
X65723202Y-168717250D01*
X65518301Y-167999888D01*
X65342565Y-167392187D01*
X65191801Y-166881268D01*
X65061814Y-166454253D01*
X64948410Y-166098263D01*
X64847394Y-165800417D01*
X64754572Y-165547839D01*
X64665750Y-165327648D01*
X64576734Y-165126965D01*
X64505135Y-164977048D01*
X64109711Y-164284266D01*
X63658743Y-163703832D01*
X63153244Y-163236685D01*
X62594224Y-162883762D01*
X61994506Y-162649356D01*
X61615508Y-162571276D01*
X61199305Y-162534828D01*
X60793097Y-162541007D01*
X60444085Y-162590807D01*
X60356250Y-162614826D01*
X59949937Y-162785333D01*
X59624196Y-163008681D01*
X59394185Y-163271534D01*
X59275065Y-163560555D01*
X59273828Y-163566992D01*
X59276467Y-163821028D01*
X59367882Y-164042869D01*
X59526001Y-164207372D01*
X59728754Y-164289393D01*
X59900371Y-164280781D01*
X60023153Y-164219628D01*
X60205097Y-164092959D01*
X60414307Y-163923788D01*
X60499220Y-163848701D01*
X60904400Y-163521271D01*
X61272672Y-163312167D01*
X61610738Y-163220438D01*
X61925296Y-163245131D01*
X62223046Y-163385296D01*
X62445804Y-163572039D01*
X62574055Y-163713703D01*
X62692056Y-163877800D01*
X62807360Y-164080668D01*
X62927519Y-164338643D01*
X63060088Y-164668062D01*
X63212618Y-165085262D01*
X63392662Y-165606579D01*
X63409832Y-165657267D01*
X63564047Y-166120574D01*
X63734036Y-166644540D01*
X63916420Y-167217735D01*
X64107818Y-167828729D01*
X64304851Y-168466092D01*
X64504139Y-169118392D01*
X64702301Y-169774202D01*
X64895957Y-170422089D01*
X65081727Y-171050624D01*
X65256231Y-171648377D01*
X65416090Y-172203918D01*
X65557922Y-172705817D01*
X65678348Y-173142643D01*
X65773987Y-173502966D01*
X65841461Y-173775356D01*
X65877387Y-173948383D01*
X65879831Y-174009835D01*
X65789287Y-174033537D01*
X65605718Y-174039650D01*
X65361553Y-174030354D01*
X65089219Y-174007828D01*
X64821143Y-173974254D01*
X64589755Y-173931810D01*
X64540352Y-173919786D01*
X64081136Y-173760746D01*
X63656486Y-173539005D01*
X63282716Y-173269546D01*
X62976141Y-172967349D01*
X62753075Y-172647396D01*
X62629832Y-172324670D01*
X62610500Y-172147580D01*
X62643211Y-171955776D01*
X62729332Y-171714100D01*
X62801000Y-171564612D01*
X62939514Y-171255830D01*
X62984211Y-171012516D01*
X62935849Y-170815375D01*
X62835636Y-170682864D01*
X62635227Y-170563108D01*
X62385856Y-170523926D01*
X62141840Y-170571993D01*
X62098982Y-170592383D01*
X61941078Y-170743440D01*
X61824954Y-170989373D01*
X61756506Y-171303235D01*
X61741630Y-171658076D01*
X61785677Y-172024314D01*
X61936341Y-172518033D01*
X62181771Y-172967880D01*
X62537693Y-173402662D01*
X62538503Y-173403512D01*
X63013898Y-173823219D01*
X63555845Y-174151039D01*
X64174693Y-174391617D01*
X64880796Y-174549597D01*
X65182250Y-174589845D01*
X65384774Y-174606878D01*
X65657781Y-174622157D01*
X65978232Y-174635247D01*
X66323093Y-174645713D01*
X66669327Y-174653120D01*
X66993898Y-174657035D01*
X67273769Y-174657022D01*
G36*
X87003566Y-185189889D02*
G01*
X86616216Y-185315021D01*
X86307332Y-185513864D01*
X86090553Y-185781290D01*
X86033005Y-185905471D01*
X85997698Y-186155769D01*
X86070137Y-186385466D01*
X86231147Y-186569404D01*
X86461555Y-186682424D01*
X86643058Y-186705950D01*
X86769994Y-186675602D01*
X86922423Y-186574478D01*
X87122050Y-186387460D01*
X87167245Y-186340824D01*
X87356959Y-186150190D01*
X87534891Y-185983779D01*
X87666282Y-185873920D01*
X87678839Y-185864993D01*
X87920952Y-185765996D01*
X88170947Y-185775594D01*
X88407452Y-185878800D01*
X88609093Y-186060624D01*
X88754500Y-186306077D01*
X88822301Y-186600170D01*
X88824680Y-186668613D01*
X88801287Y-186872113D01*
X88724798Y-187090951D01*
X88585752Y-187341337D01*
X88374686Y-187639480D01*
X88082138Y-188001589D01*
X87968841Y-188134700D01*
X87731945Y-188422212D01*
X87508485Y-188714673D01*
X87321022Y-188981149D01*
X87192112Y-189190703D01*
X87175707Y-189222324D01*
X86995604Y-189709871D01*
X86935087Y-190187428D01*
X86986746Y-190644456D01*
X87143167Y-191070416D01*
X87396940Y-191454769D01*
X87740652Y-191786976D01*
X88166891Y-192056498D01*
X88668245Y-192252795D01*
X89237302Y-192365329D01*
X89396180Y-192379619D01*
X89646168Y-192391978D01*
X89859280Y-192394058D01*
X89992663Y-192385532D01*
X89999430Y-192384203D01*
X90134203Y-192355621D01*
X90335953Y-192314026D01*
X90455116Y-192289820D01*
X90849136Y-192154244D01*
X91168475Y-191930045D01*
X91400010Y-191632321D01*
X91530619Y-191276169D01*
X91555180Y-191024245D01*
X91517554Y-190709325D01*
X91400147Y-190486928D01*
X91196166Y-190345646D01*
X91138226Y-190324062D01*
X90868938Y-190286136D01*
X90627402Y-190367294D01*
X90491555Y-190470817D01*
X90402032Y-190582290D01*
X90358999Y-190732124D01*
X90348680Y-190942922D01*
X90317826Y-191274480D01*
X90217529Y-191513538D01*
X90036188Y-191680662D01*
X89892578Y-191751433D01*
X89543092Y-191828508D01*
X89180204Y-191801146D01*
X88830605Y-191682245D01*
X88520989Y-191484709D01*
X88278046Y-191221438D01*
X88128470Y-190905333D01*
X88126405Y-190897783D01*
X88090150Y-190712817D01*
X88091243Y-190535486D01*
X88137670Y-190349825D01*
X88237416Y-190139865D01*
X88398464Y-189889639D01*
X88628802Y-189583178D01*
X88936413Y-189204515D01*
X89028194Y-189094464D01*
X89315470Y-188733485D01*
X89525778Y-188422216D01*
X89678470Y-188127588D01*
X89792895Y-187816535D01*
X89810570Y-187757459D01*
X89893969Y-187262336D01*
X89853355Y-186788282D01*
X89691072Y-186343650D01*
X89409470Y-185936793D01*
X89254120Y-185777257D01*
X88933091Y-185519993D01*
X88590172Y-185341231D01*
X88184516Y-185222174D01*
X87959114Y-185181270D01*
X87455744Y-185143597D01*
X87003566Y-185189889D01*
G37*
X87003566Y-185189889D02*
X86616216Y-185315021D01*
X86307332Y-185513864D01*
X86090553Y-185781290D01*
X86033005Y-185905471D01*
X85997698Y-186155769D01*
X86070137Y-186385466D01*
X86231147Y-186569404D01*
X86461555Y-186682424D01*
X86643058Y-186705950D01*
X86769994Y-186675602D01*
X86922423Y-186574478D01*
X87122050Y-186387460D01*
X87167245Y-186340824D01*
X87356959Y-186150190D01*
X87534891Y-185983779D01*
X87666282Y-185873920D01*
X87678839Y-185864993D01*
X87920952Y-185765996D01*
X88170947Y-185775594D01*
X88407452Y-185878800D01*
X88609093Y-186060624D01*
X88754500Y-186306077D01*
X88822301Y-186600170D01*
X88824680Y-186668613D01*
X88801287Y-186872113D01*
X88724798Y-187090951D01*
X88585752Y-187341337D01*
X88374686Y-187639480D01*
X88082138Y-188001589D01*
X87968841Y-188134700D01*
X87731945Y-188422212D01*
X87508485Y-188714673D01*
X87321022Y-188981149D01*
X87192112Y-189190703D01*
X87175707Y-189222324D01*
X86995604Y-189709871D01*
X86935087Y-190187428D01*
X86986746Y-190644456D01*
X87143167Y-191070416D01*
X87396940Y-191454769D01*
X87740652Y-191786976D01*
X88166891Y-192056498D01*
X88668245Y-192252795D01*
X89237302Y-192365329D01*
X89396180Y-192379619D01*
X89646168Y-192391978D01*
X89859280Y-192394058D01*
X89992663Y-192385532D01*
X89999430Y-192384203D01*
X90134203Y-192355621D01*
X90335953Y-192314026D01*
X90455116Y-192289820D01*
X90849136Y-192154244D01*
X91168475Y-191930045D01*
X91400010Y-191632321D01*
X91530619Y-191276169D01*
X91555180Y-191024245D01*
X91517554Y-190709325D01*
X91400147Y-190486928D01*
X91196166Y-190345646D01*
X91138226Y-190324062D01*
X90868938Y-190286136D01*
X90627402Y-190367294D01*
X90491555Y-190470817D01*
X90402032Y-190582290D01*
X90358999Y-190732124D01*
X90348680Y-190942922D01*
X90317826Y-191274480D01*
X90217529Y-191513538D01*
X90036188Y-191680662D01*
X89892578Y-191751433D01*
X89543092Y-191828508D01*
X89180204Y-191801146D01*
X88830605Y-191682245D01*
X88520989Y-191484709D01*
X88278046Y-191221438D01*
X88128470Y-190905333D01*
X88126405Y-190897783D01*
X88090150Y-190712817D01*
X88091243Y-190535486D01*
X88137670Y-190349825D01*
X88237416Y-190139865D01*
X88398464Y-189889639D01*
X88628802Y-189583178D01*
X88936413Y-189204515D01*
X89028194Y-189094464D01*
X89315470Y-188733485D01*
X89525778Y-188422216D01*
X89678470Y-188127588D01*
X89792895Y-187816535D01*
X89810570Y-187757459D01*
X89893969Y-187262336D01*
X89853355Y-186788282D01*
X89691072Y-186343650D01*
X89409470Y-185936793D01*
X89254120Y-185777257D01*
X88933091Y-185519993D01*
X88590172Y-185341231D01*
X88184516Y-185222174D01*
X87959114Y-185181270D01*
X87455744Y-185143597D01*
X87003566Y-185189889D01*
G36*
X92668481Y-185175940D02*
G01*
X92327728Y-185306081D01*
X92073601Y-185514737D01*
X91906735Y-185786968D01*
X91827763Y-186107830D01*
X91837319Y-186462385D01*
X91936036Y-186835689D01*
X92124547Y-187212802D01*
X92403487Y-187578783D01*
X92559896Y-187736999D01*
X92798804Y-187945412D01*
X93061587Y-188141670D01*
X93368306Y-188337987D01*
X93739020Y-188546573D01*
X94193792Y-188779639D01*
X94584882Y-188969624D01*
X94954879Y-189146471D01*
X95226522Y-189284578D01*
X95414395Y-189403286D01*
X95533084Y-189521939D01*
X95597172Y-189659879D01*
X95621245Y-189836449D01*
X95619888Y-190070991D01*
X95609697Y-190328741D01*
X95596969Y-190604490D01*
X95577963Y-190785776D01*
X95542912Y-190905087D01*
X95482050Y-190994909D01*
X95385613Y-191087733D01*
X95380054Y-191092703D01*
X95166401Y-191234108D01*
X94985398Y-191277950D01*
X94682293Y-191230735D01*
X94307696Y-191092806D01*
X93872928Y-190869739D01*
X93389307Y-190567108D01*
X93039734Y-190319763D01*
X92856848Y-190192248D01*
X92708731Y-190102656D01*
X92631696Y-190071450D01*
X92540627Y-190118726D01*
X92430147Y-190228387D01*
X92343199Y-190352183D01*
X92319293Y-190422448D01*
X92366197Y-190500440D01*
X92497733Y-190637660D01*
X92695942Y-190818475D01*
X92942866Y-191027252D01*
X93220546Y-191248358D01*
X93511025Y-191466158D01*
X93553029Y-191496457D01*
X94115857Y-191863534D01*
X94641466Y-192127252D01*
X95150225Y-192297439D01*
X95269930Y-192325006D01*
X95558042Y-192381252D01*
X95766190Y-192406775D01*
X95937181Y-192403352D01*
X96113824Y-192372759D01*
X96160259Y-192361945D01*
X96479476Y-192226653D01*
X96726494Y-191990571D01*
X96901722Y-191652650D01*
X97005567Y-191211844D01*
X97038438Y-190667103D01*
X97014842Y-190166700D01*
X96947129Y-189619564D01*
X96834371Y-189103408D01*
X96717714Y-188743180D01*
X95428680Y-188743180D01*
X95378961Y-188756994D01*
X95238027Y-188703696D01*
X95018218Y-188589701D01*
X94731870Y-188421423D01*
X94391321Y-188205276D01*
X94380930Y-188198470D01*
X93913149Y-187859490D01*
X93542685Y-187522121D01*
X93276286Y-187194364D01*
X93120703Y-186884226D01*
X93080575Y-186656285D01*
X93128640Y-186395956D01*
X93259026Y-186155602D01*
X93443693Y-185985001D01*
X93465488Y-185972955D01*
X93716482Y-185910457D01*
X93987958Y-185958960D01*
X94261083Y-186108705D01*
X94517025Y-186349929D01*
X94704314Y-186615010D01*
X94833290Y-186865998D01*
X94971044Y-187185266D01*
X95107209Y-187542358D01*
X95231419Y-187906821D01*
X95333310Y-188248200D01*
X95402515Y-188536040D01*
X95428668Y-188739887D01*
X95428680Y-188743180D01*
X96717714Y-188743180D01*
X96665943Y-188583318D01*
X96431222Y-188024383D01*
X96245689Y-187638911D01*
X95904371Y-187036514D01*
X95517896Y-186495025D01*
X95101139Y-186031184D01*
X94668977Y-185661730D01*
X94275505Y-185421978D01*
X93850505Y-185259620D01*
X93398917Y-185163388D01*
X92964476Y-185139977D01*
X92668481Y-185175940D01*
G37*
X92668481Y-185175940D02*
X92327728Y-185306081D01*
X92073601Y-185514737D01*
X91906735Y-185786968D01*
X91827763Y-186107830D01*
X91837319Y-186462385D01*
X91936036Y-186835689D01*
X92124547Y-187212802D01*
X92403487Y-187578783D01*
X92559896Y-187736999D01*
X92798804Y-187945412D01*
X93061587Y-188141670D01*
X93368306Y-188337987D01*
X93739020Y-188546573D01*
X94193792Y-188779639D01*
X94584882Y-188969624D01*
X94954879Y-189146471D01*
X95226522Y-189284578D01*
X95414395Y-189403286D01*
X95533084Y-189521939D01*
X95597172Y-189659879D01*
X95621245Y-189836449D01*
X95619888Y-190070991D01*
X95609697Y-190328741D01*
X95596969Y-190604490D01*
X95577963Y-190785776D01*
X95542912Y-190905087D01*
X95482050Y-190994909D01*
X95385613Y-191087733D01*
X95380054Y-191092703D01*
X95166401Y-191234108D01*
X94985398Y-191277950D01*
X94682293Y-191230735D01*
X94307696Y-191092806D01*
X93872928Y-190869739D01*
X93389307Y-190567108D01*
X93039734Y-190319763D01*
X92856848Y-190192248D01*
X92708731Y-190102656D01*
X92631696Y-190071450D01*
X92540627Y-190118726D01*
X92430147Y-190228387D01*
X92343199Y-190352183D01*
X92319293Y-190422448D01*
X92366197Y-190500440D01*
X92497733Y-190637660D01*
X92695942Y-190818475D01*
X92942866Y-191027252D01*
X93220546Y-191248358D01*
X93511025Y-191466158D01*
X93553029Y-191496457D01*
X94115857Y-191863534D01*
X94641466Y-192127252D01*
X95150225Y-192297439D01*
X95269930Y-192325006D01*
X95558042Y-192381252D01*
X95766190Y-192406775D01*
X95937181Y-192403352D01*
X96113824Y-192372759D01*
X96160259Y-192361945D01*
X96479476Y-192226653D01*
X96726494Y-191990571D01*
X96901722Y-191652650D01*
X97005567Y-191211844D01*
X97038438Y-190667103D01*
X97014842Y-190166700D01*
X96947129Y-189619564D01*
X96834371Y-189103408D01*
X96717714Y-188743180D01*
X95428680Y-188743180D01*
X95378961Y-188756994D01*
X95238027Y-188703696D01*
X95018218Y-188589701D01*
X94731870Y-188421423D01*
X94391321Y-188205276D01*
X94380930Y-188198470D01*
X93913149Y-187859490D01*
X93542685Y-187522121D01*
X93276286Y-187194364D01*
X93120703Y-186884226D01*
X93080575Y-186656285D01*
X93128640Y-186395956D01*
X93259026Y-186155602D01*
X93443693Y-185985001D01*
X93465488Y-185972955D01*
X93716482Y-185910457D01*
X93987958Y-185958960D01*
X94261083Y-186108705D01*
X94517025Y-186349929D01*
X94704314Y-186615010D01*
X94833290Y-186865998D01*
X94971044Y-187185266D01*
X95107209Y-187542358D01*
X95231419Y-187906821D01*
X95333310Y-188248200D01*
X95402515Y-188536040D01*
X95428668Y-188739887D01*
X95428680Y-188743180D01*
X96717714Y-188743180D01*
X96665943Y-188583318D01*
X96431222Y-188024383D01*
X96245689Y-187638911D01*
X95904371Y-187036514D01*
X95517896Y-186495025D01*
X95101139Y-186031184D01*
X94668977Y-185661730D01*
X94275505Y-185421978D01*
X93850505Y-185259620D01*
X93398917Y-185163388D01*
X92964476Y-185139977D01*
X92668481Y-185175940D01*
G36*
X101744516Y-185190680D02*
G01*
X101692022Y-185235558D01*
X101644083Y-185294674D01*
X101616994Y-185359426D01*
X101612103Y-185453491D01*
X101630757Y-185600545D01*
X101674303Y-185824265D01*
X101743907Y-186147497D01*
X101812024Y-186456721D01*
X101873215Y-186728925D01*
X101920972Y-186935526D01*
X101948788Y-187047941D01*
X101949512Y-187050487D01*
X101923746Y-187067209D01*
X101819523Y-187002633D01*
X101648517Y-186864931D01*
X101510288Y-186742988D01*
X101045675Y-186345040D01*
X100575964Y-185984950D01*
X100118785Y-185673846D01*
X99691765Y-185422853D01*
X99312532Y-185243099D01*
X98998715Y-185145711D01*
X98972304Y-185141043D01*
X98680991Y-185148619D01*
X98423280Y-185256780D01*
X98231669Y-185448948D01*
X98181246Y-185544582D01*
X98136717Y-185677201D01*
X98112765Y-185825671D01*
X98111820Y-186003684D01*
X98136313Y-186224933D01*
X98188675Y-186503111D01*
X98271337Y-186851910D01*
X98386728Y-187285023D01*
X98537280Y-187816143D01*
X98657947Y-188229950D01*
X98844266Y-188867612D01*
X98996187Y-189396561D01*
X99116760Y-189829437D01*
X99209033Y-190178880D01*
X99276057Y-190457532D01*
X99320880Y-190678031D01*
X99346551Y-190853020D01*
X99356121Y-190995137D01*
X99353063Y-191111388D01*
X99321863Y-191288821D01*
X99253048Y-191380003D01*
X99135541Y-191383519D01*
X98958266Y-191297954D01*
X98710148Y-191121891D01*
X98570748Y-191011398D01*
X98274382Y-190770889D01*
X98061493Y-190599662D01*
X97915769Y-190488438D01*
X97820901Y-190427940D01*
X97760578Y-190408889D01*
X97718490Y-190422006D01*
X97678325Y-190458014D01*
X97648398Y-190486718D01*
X97554579Y-190596344D01*
X97524180Y-190670501D01*
X97567045Y-190744416D01*
X97681475Y-190880511D01*
X97846226Y-191054271D01*
X97921055Y-191128439D01*
X98437394Y-191597673D01*
X98913992Y-191961871D01*
X99347342Y-192219222D01*
X99733939Y-192367915D01*
X100070276Y-192406139D01*
X100298981Y-192356701D01*
X100473990Y-192218529D01*
X100590821Y-191970569D01*
X100648048Y-191616646D01*
X100653892Y-191404950D01*
X100628416Y-191055873D01*
X100555620Y-190608927D01*
X100434533Y-190059830D01*
X100264188Y-189404304D01*
X100043613Y-188638069D01*
X99977361Y-188418356D01*
X99816623Y-187872848D01*
X99686824Y-187397021D01*
X99590426Y-187001544D01*
X99529893Y-186697086D01*
X99507687Y-186494317D01*
X99515909Y-186419507D01*
X99608386Y-186335547D01*
X99778740Y-186327506D01*
X100009978Y-186386868D01*
X100285108Y-186505122D01*
X100587136Y-186673752D01*
X100899071Y-186884247D01*
X101203919Y-187128091D01*
X101484688Y-187396773D01*
X101500855Y-187413987D01*
X101668522Y-187600678D01*
X101812172Y-187781304D01*
X101937435Y-187970569D01*
X102049941Y-188183178D01*
X102155320Y-188433837D01*
X102259203Y-188737250D01*
X102367218Y-189108123D01*
X102484998Y-189561159D01*
X102618171Y-190111065D01*
X102750512Y-190677898D01*
X103087391Y-192135200D01*
X103734786Y-192153296D01*
X104004040Y-192156138D01*
X104218518Y-192149487D01*
X104351635Y-192134710D01*
X104382180Y-192119994D01*
X104367125Y-192043842D01*
X104325541Y-191866801D01*
X104262800Y-191610910D01*
X104184274Y-191298209D01*
X104130126Y-191085898D01*
X104015037Y-190630635D01*
X103892484Y-190134247D01*
X103766091Y-189612489D01*
X103639481Y-189081121D01*
X103516277Y-188555899D01*
X103400104Y-188052582D01*
X103294585Y-187586926D01*
X103203343Y-187174690D01*
X103130002Y-186831631D01*
X103078184Y-186573507D01*
X103051515Y-186416075D01*
X103048680Y-186382964D01*
X103065831Y-186242243D01*
X103102019Y-186172480D01*
X103207344Y-186179373D01*
X103394141Y-186275278D01*
X103656859Y-186456707D01*
X103989946Y-186720173D01*
X104039262Y-186761218D01*
X104522757Y-187165737D01*
X104840339Y-186848155D01*
X104563635Y-186594449D01*
X104175710Y-186246273D01*
X103851521Y-185974124D01*
X103568331Y-185761016D01*
X103303402Y-185589963D01*
X103033997Y-185443980D01*
X103003291Y-185428810D01*
X102584765Y-185249064D01*
X102229052Y-185148516D01*
X101945764Y-185128583D01*
X101744516Y-185190680D01*
G37*
X101744516Y-185190680D02*
X101692022Y-185235558D01*
X101644083Y-185294674D01*
X101616994Y-185359426D01*
X101612103Y-185453491D01*
X101630757Y-185600545D01*
X101674303Y-185824265D01*
X101743907Y-186147497D01*
X101812024Y-186456721D01*
X101873215Y-186728925D01*
X101920972Y-186935526D01*
X101948788Y-187047941D01*
X101949512Y-187050487D01*
X101923746Y-187067209D01*
X101819523Y-187002633D01*
X101648517Y-186864931D01*
X101510288Y-186742988D01*
X101045675Y-186345040D01*
X100575964Y-185984950D01*
X100118785Y-185673846D01*
X99691765Y-185422853D01*
X99312532Y-185243099D01*
X98998715Y-185145711D01*
X98972304Y-185141043D01*
X98680991Y-185148619D01*
X98423280Y-185256780D01*
X98231669Y-185448948D01*
X98181246Y-185544582D01*
X98136717Y-185677201D01*
X98112765Y-185825671D01*
X98111820Y-186003684D01*
X98136313Y-186224933D01*
X98188675Y-186503111D01*
X98271337Y-186851910D01*
X98386728Y-187285023D01*
X98537280Y-187816143D01*
X98657947Y-188229950D01*
X98844266Y-188867612D01*
X98996187Y-189396561D01*
X99116760Y-189829437D01*
X99209033Y-190178880D01*
X99276057Y-190457532D01*
X99320880Y-190678031D01*
X99346551Y-190853020D01*
X99356121Y-190995137D01*
X99353063Y-191111388D01*
X99321863Y-191288821D01*
X99253048Y-191380003D01*
X99135541Y-191383519D01*
X98958266Y-191297954D01*
X98710148Y-191121891D01*
X98570748Y-191011398D01*
X98274382Y-190770889D01*
X98061493Y-190599662D01*
X97915769Y-190488438D01*
X97820901Y-190427940D01*
X97760578Y-190408889D01*
X97718490Y-190422006D01*
X97678325Y-190458014D01*
X97648398Y-190486718D01*
X97554579Y-190596344D01*
X97524180Y-190670501D01*
X97567045Y-190744416D01*
X97681475Y-190880511D01*
X97846226Y-191054271D01*
X97921055Y-191128439D01*
X98437394Y-191597673D01*
X98913992Y-191961871D01*
X99347342Y-192219222D01*
X99733939Y-192367915D01*
X100070276Y-192406139D01*
X100298981Y-192356701D01*
X100473990Y-192218529D01*
X100590821Y-191970569D01*
X100648048Y-191616646D01*
X100653892Y-191404950D01*
X100628416Y-191055873D01*
X100555620Y-190608927D01*
X100434533Y-190059830D01*
X100264188Y-189404304D01*
X100043613Y-188638069D01*
X99977361Y-188418356D01*
X99816623Y-187872848D01*
X99686824Y-187397021D01*
X99590426Y-187001544D01*
X99529893Y-186697086D01*
X99507687Y-186494317D01*
X99515909Y-186419507D01*
X99608386Y-186335547D01*
X99778740Y-186327506D01*
X100009978Y-186386868D01*
X100285108Y-186505122D01*
X100587136Y-186673752D01*
X100899071Y-186884247D01*
X101203919Y-187128091D01*
X101484688Y-187396773D01*
X101500855Y-187413987D01*
X101668522Y-187600678D01*
X101812172Y-187781304D01*
X101937435Y-187970569D01*
X102049941Y-188183178D01*
X102155320Y-188433837D01*
X102259203Y-188737250D01*
X102367218Y-189108123D01*
X102484998Y-189561159D01*
X102618171Y-190111065D01*
X102750512Y-190677898D01*
X103087391Y-192135200D01*
X103734786Y-192153296D01*
X104004040Y-192156138D01*
X104218518Y-192149487D01*
X104351635Y-192134710D01*
X104382180Y-192119994D01*
X104367125Y-192043842D01*
X104325541Y-191866801D01*
X104262800Y-191610910D01*
X104184274Y-191298209D01*
X104130126Y-191085898D01*
X104015037Y-190630635D01*
X103892484Y-190134247D01*
X103766091Y-189612489D01*
X103639481Y-189081121D01*
X103516277Y-188555899D01*
X103400104Y-188052582D01*
X103294585Y-187586926D01*
X103203343Y-187174690D01*
X103130002Y-186831631D01*
X103078184Y-186573507D01*
X103051515Y-186416075D01*
X103048680Y-186382964D01*
X103065831Y-186242243D01*
X103102019Y-186172480D01*
X103207344Y-186179373D01*
X103394141Y-186275278D01*
X103656859Y-186456707D01*
X103989946Y-186720173D01*
X104039262Y-186761218D01*
X104522757Y-187165737D01*
X104840339Y-186848155D01*
X104563635Y-186594449D01*
X104175710Y-186246273D01*
X103851521Y-185974124D01*
X103568331Y-185761016D01*
X103303402Y-185589963D01*
X103033997Y-185443980D01*
X103003291Y-185428810D01*
X102584765Y-185249064D01*
X102229052Y-185148516D01*
X101945764Y-185128583D01*
X101744516Y-185190680D01*
G36*
X106993513Y-185215837D02*
G01*
X106561774Y-185367923D01*
X106197177Y-185627688D01*
X105898434Y-185995953D01*
X105742151Y-186286889D01*
X105615634Y-186669452D01*
X105538113Y-187136324D01*
X105510276Y-187654361D01*
X105532807Y-188190419D01*
X105606396Y-188711354D01*
X105685156Y-189037314D01*
X105908404Y-189625005D01*
X106226142Y-190204905D01*
X106620357Y-190756560D01*
X107073034Y-191259515D01*
X107566159Y-191693314D01*
X108081717Y-192037504D01*
X108502422Y-192236196D01*
X108875243Y-192339843D01*
X109294890Y-192395616D01*
X109715829Y-192401643D01*
X110092524Y-192356053D01*
X110263627Y-192308559D01*
X110686298Y-192096852D01*
X111025784Y-191792435D01*
X111286656Y-191390523D01*
X111401399Y-191117463D01*
X111468463Y-190829679D01*
X111504821Y-190453933D01*
X111510971Y-190025370D01*
X111487411Y-189579136D01*
X111473757Y-189468200D01*
X110058187Y-189468200D01*
X110040909Y-190062154D01*
X109974729Y-190550016D01*
X109855278Y-190944627D01*
X109678185Y-191258832D01*
X109439078Y-191505474D01*
X109340154Y-191578063D01*
X109129506Y-191686611D01*
X108918687Y-191712152D01*
X108671840Y-191654393D01*
X108472767Y-191570963D01*
X108133014Y-191346605D01*
X107821207Y-191008540D01*
X107544037Y-190568271D01*
X107308196Y-190037300D01*
X107120377Y-189427130D01*
X107053695Y-189131699D01*
X107014810Y-188839057D01*
X106993739Y-188463800D01*
X106990168Y-188049011D01*
X107003779Y-187637772D01*
X107034259Y-187273169D01*
X107068929Y-187051765D01*
X107195785Y-186633077D01*
X107378374Y-186292751D01*
X107605469Y-186041558D01*
X107865841Y-185890271D01*
X108148262Y-185849661D01*
X108295887Y-185874681D01*
X108674933Y-186044578D01*
X109028099Y-186336274D01*
X109352390Y-186746646D01*
X109644816Y-187272573D01*
X109653725Y-187291511D01*
X109832215Y-187744755D01*
X109955666Y-188235064D01*
X110029184Y-188789907D01*
X110057871Y-189436757D01*
X110058187Y-189468200D01*
X111473757Y-189468200D01*
X111434637Y-189150377D01*
X111369068Y-188833200D01*
X111129058Y-188115901D01*
X110791153Y-187421299D01*
X110373110Y-186779910D01*
X109892686Y-186222249D01*
X109794316Y-186126865D01*
X109304314Y-185724505D01*
X108805936Y-185438632D01*
X108275978Y-185259602D01*
X107691237Y-185177771D01*
X107493680Y-185170609D01*
X106993513Y-185215837D01*
G37*
X106993513Y-185215837D02*
X106561774Y-185367923D01*
X106197177Y-185627688D01*
X105898434Y-185995953D01*
X105742151Y-186286889D01*
X105615634Y-186669452D01*
X105538113Y-187136324D01*
X105510276Y-187654361D01*
X105532807Y-188190419D01*
X105606396Y-188711354D01*
X105685156Y-189037314D01*
X105908404Y-189625005D01*
X106226142Y-190204905D01*
X106620357Y-190756560D01*
X107073034Y-191259515D01*
X107566159Y-191693314D01*
X108081717Y-192037504D01*
X108502422Y-192236196D01*
X108875243Y-192339843D01*
X109294890Y-192395616D01*
X109715829Y-192401643D01*
X110092524Y-192356053D01*
X110263627Y-192308559D01*
X110686298Y-192096852D01*
X111025784Y-191792435D01*
X111286656Y-191390523D01*
X111401399Y-191117463D01*
X111468463Y-190829679D01*
X111504821Y-190453933D01*
X111510971Y-190025370D01*
X111487411Y-189579136D01*
X111473757Y-189468200D01*
X110058187Y-189468200D01*
X110040909Y-190062154D01*
X109974729Y-190550016D01*
X109855278Y-190944627D01*
X109678185Y-191258832D01*
X109439078Y-191505474D01*
X109340154Y-191578063D01*
X109129506Y-191686611D01*
X108918687Y-191712152D01*
X108671840Y-191654393D01*
X108472767Y-191570963D01*
X108133014Y-191346605D01*
X107821207Y-191008540D01*
X107544037Y-190568271D01*
X107308196Y-190037300D01*
X107120377Y-189427130D01*
X107053695Y-189131699D01*
X107014810Y-188839057D01*
X106993739Y-188463800D01*
X106990168Y-188049011D01*
X107003779Y-187637772D01*
X107034259Y-187273169D01*
X107068929Y-187051765D01*
X107195785Y-186633077D01*
X107378374Y-186292751D01*
X107605469Y-186041558D01*
X107865841Y-185890271D01*
X108148262Y-185849661D01*
X108295887Y-185874681D01*
X108674933Y-186044578D01*
X109028099Y-186336274D01*
X109352390Y-186746646D01*
X109644816Y-187272573D01*
X109653725Y-187291511D01*
X109832215Y-187744755D01*
X109955666Y-188235064D01*
X110029184Y-188789907D01*
X110057871Y-189436757D01*
X110058187Y-189468200D01*
X111473757Y-189468200D01*
X111434637Y-189150377D01*
X111369068Y-188833200D01*
X111129058Y-188115901D01*
X110791153Y-187421299D01*
X110373110Y-186779910D01*
X109892686Y-186222249D01*
X109794316Y-186126865D01*
X109304314Y-185724505D01*
X108805936Y-185438632D01*
X108275978Y-185259602D01*
X107691237Y-185177771D01*
X107493680Y-185170609D01*
X106993513Y-185215837D01*
G36*
X111720411Y-182321928D02*
G01*
X111508275Y-182326303D01*
X111386912Y-182335475D01*
X111367180Y-182342980D01*
X111389675Y-182405613D01*
X111450555Y-182560735D01*
X111539911Y-182783377D01*
X111624251Y-182990898D01*
X111772172Y-183378159D01*
X111948817Y-183885417D01*
X112153106Y-184509212D01*
X112383959Y-185246090D01*
X112640295Y-186092591D01*
X112921035Y-187045259D01*
X113225099Y-188100637D01*
X113270978Y-188261700D01*
X113475879Y-188979062D01*
X113651615Y-189586763D01*
X113802379Y-190097682D01*
X113932366Y-190524697D01*
X114045770Y-190880687D01*
X114146786Y-191178533D01*
X114239608Y-191431111D01*
X114328430Y-191651302D01*
X114417446Y-191851985D01*
X114489045Y-192001902D01*
X114884469Y-192694684D01*
X115335437Y-193275118D01*
X115840936Y-193742265D01*
X116399956Y-194095188D01*
X116999674Y-194329594D01*
X117378672Y-194407674D01*
X117794875Y-194444122D01*
X118201083Y-194437943D01*
X118550095Y-194388143D01*
X118637930Y-194364124D01*
X119044243Y-194193617D01*
X119369984Y-193970269D01*
X119599995Y-193707416D01*
X119719115Y-193418395D01*
X119720352Y-193411958D01*
X119717713Y-193157922D01*
X119626298Y-192936081D01*
X119468179Y-192771578D01*
X119265426Y-192689557D01*
X119093809Y-192698169D01*
X118971027Y-192759322D01*
X118789083Y-192885991D01*
X118579873Y-193055162D01*
X118494960Y-193130249D01*
X118089780Y-193457679D01*
X117721508Y-193666783D01*
X117383442Y-193758512D01*
X117068884Y-193733819D01*
X116771134Y-193593654D01*
X116548376Y-193406911D01*
X116420125Y-193265247D01*
X116302124Y-193101150D01*
X116186820Y-192898282D01*
X116066661Y-192640307D01*
X115934092Y-192310888D01*
X115781562Y-191893688D01*
X115601518Y-191372371D01*
X115584348Y-191321683D01*
X115430133Y-190858376D01*
X115260144Y-190334410D01*
X115077760Y-189761215D01*
X114886362Y-189150221D01*
X114689329Y-188512858D01*
X114490041Y-187860558D01*
X114291879Y-187204748D01*
X114098223Y-186556861D01*
X113912453Y-185928326D01*
X113737949Y-185330573D01*
X113578090Y-184775032D01*
X113436258Y-184273133D01*
X113315832Y-183836307D01*
X113220193Y-183475984D01*
X113152719Y-183203594D01*
X113116793Y-183030567D01*
X113114349Y-182969115D01*
X113204893Y-182945413D01*
X113388462Y-182939300D01*
X113632627Y-182948596D01*
X113904961Y-182971122D01*
X114173037Y-183004696D01*
X114404425Y-183047140D01*
X114453828Y-183059164D01*
X114913044Y-183218204D01*
X115337694Y-183439945D01*
X115711464Y-183709404D01*
X116018039Y-184011601D01*
X116241105Y-184331554D01*
X116364348Y-184654280D01*
X116383680Y-184831370D01*
X116350969Y-185023174D01*
X116264848Y-185264850D01*
X116193180Y-185414338D01*
X116054666Y-185723120D01*
X116009969Y-185966434D01*
X116058331Y-186163575D01*
X116158544Y-186296086D01*
X116358953Y-186415842D01*
X116608324Y-186455024D01*
X116852340Y-186406957D01*
X116895198Y-186386567D01*
X117053102Y-186235510D01*
X117169226Y-185989577D01*
X117237674Y-185675715D01*
X117252550Y-185320874D01*
X117208503Y-184954636D01*
X117057839Y-184460917D01*
X116812409Y-184011070D01*
X116456487Y-183576288D01*
X116455677Y-183575438D01*
X115980282Y-183155731D01*
X115438335Y-182827911D01*
X114819487Y-182587333D01*
X114113384Y-182429353D01*
X113811930Y-182389105D01*
X113609406Y-182372072D01*
X113336399Y-182356793D01*
X113015948Y-182343703D01*
X112671087Y-182333237D01*
X112324853Y-182325830D01*
X112000282Y-182321915D01*
X111720411Y-182321928D01*
G37*
X111720411Y-182321928D02*
X111508275Y-182326303D01*
X111386912Y-182335475D01*
X111367180Y-182342980D01*
X111389675Y-182405613D01*
X111450555Y-182560735D01*
X111539911Y-182783377D01*
X111624251Y-182990898D01*
X111772172Y-183378159D01*
X111948817Y-183885417D01*
X112153106Y-184509212D01*
X112383959Y-185246090D01*
X112640295Y-186092591D01*
X112921035Y-187045259D01*
X113225099Y-188100637D01*
X113270978Y-188261700D01*
X113475879Y-188979062D01*
X113651615Y-189586763D01*
X113802379Y-190097682D01*
X113932366Y-190524697D01*
X114045770Y-190880687D01*
X114146786Y-191178533D01*
X114239608Y-191431111D01*
X114328430Y-191651302D01*
X114417446Y-191851985D01*
X114489045Y-192001902D01*
X114884469Y-192694684D01*
X115335437Y-193275118D01*
X115840936Y-193742265D01*
X116399956Y-194095188D01*
X116999674Y-194329594D01*
X117378672Y-194407674D01*
X117794875Y-194444122D01*
X118201083Y-194437943D01*
X118550095Y-194388143D01*
X118637930Y-194364124D01*
X119044243Y-194193617D01*
X119369984Y-193970269D01*
X119599995Y-193707416D01*
X119719115Y-193418395D01*
X119720352Y-193411958D01*
X119717713Y-193157922D01*
X119626298Y-192936081D01*
X119468179Y-192771578D01*
X119265426Y-192689557D01*
X119093809Y-192698169D01*
X118971027Y-192759322D01*
X118789083Y-192885991D01*
X118579873Y-193055162D01*
X118494960Y-193130249D01*
X118089780Y-193457679D01*
X117721508Y-193666783D01*
X117383442Y-193758512D01*
X117068884Y-193733819D01*
X116771134Y-193593654D01*
X116548376Y-193406911D01*
X116420125Y-193265247D01*
X116302124Y-193101150D01*
X116186820Y-192898282D01*
X116066661Y-192640307D01*
X115934092Y-192310888D01*
X115781562Y-191893688D01*
X115601518Y-191372371D01*
X115584348Y-191321683D01*
X115430133Y-190858376D01*
X115260144Y-190334410D01*
X115077760Y-189761215D01*
X114886362Y-189150221D01*
X114689329Y-188512858D01*
X114490041Y-187860558D01*
X114291879Y-187204748D01*
X114098223Y-186556861D01*
X113912453Y-185928326D01*
X113737949Y-185330573D01*
X113578090Y-184775032D01*
X113436258Y-184273133D01*
X113315832Y-183836307D01*
X113220193Y-183475984D01*
X113152719Y-183203594D01*
X113116793Y-183030567D01*
X113114349Y-182969115D01*
X113204893Y-182945413D01*
X113388462Y-182939300D01*
X113632627Y-182948596D01*
X113904961Y-182971122D01*
X114173037Y-183004696D01*
X114404425Y-183047140D01*
X114453828Y-183059164D01*
X114913044Y-183218204D01*
X115337694Y-183439945D01*
X115711464Y-183709404D01*
X116018039Y-184011601D01*
X116241105Y-184331554D01*
X116364348Y-184654280D01*
X116383680Y-184831370D01*
X116350969Y-185023174D01*
X116264848Y-185264850D01*
X116193180Y-185414338D01*
X116054666Y-185723120D01*
X116009969Y-185966434D01*
X116058331Y-186163575D01*
X116158544Y-186296086D01*
X116358953Y-186415842D01*
X116608324Y-186455024D01*
X116852340Y-186406957D01*
X116895198Y-186386567D01*
X117053102Y-186235510D01*
X117169226Y-185989577D01*
X117237674Y-185675715D01*
X117252550Y-185320874D01*
X117208503Y-184954636D01*
X117057839Y-184460917D01*
X116812409Y-184011070D01*
X116456487Y-183576288D01*
X116455677Y-183575438D01*
X115980282Y-183155731D01*
X115438335Y-182827911D01*
X114819487Y-182587333D01*
X114113384Y-182429353D01*
X113811930Y-182389105D01*
X113609406Y-182372072D01*
X113336399Y-182356793D01*
X113015948Y-182343703D01*
X112671087Y-182333237D01*
X112324853Y-182325830D01*
X112000282Y-182321915D01*
X111720411Y-182321928D01*
G36*
X125245842Y-163979645D02*
G01*
X125069063Y-163983291D01*
X124967927Y-163990934D01*
X124951484Y-163997188D01*
X124970229Y-164049382D01*
X125020962Y-164178651D01*
X125095426Y-164364186D01*
X125165710Y-164537120D01*
X125288977Y-164859838D01*
X125436181Y-165282552D01*
X125606422Y-165802382D01*
X125798799Y-166416446D01*
X126012413Y-167121864D01*
X126246363Y-167915754D01*
X126499749Y-168795236D01*
X126537982Y-168929455D01*
X126708733Y-169527256D01*
X126855179Y-170033674D01*
X126980816Y-170459440D01*
X127089138Y-170815286D01*
X127183642Y-171111944D01*
X127267822Y-171360149D01*
X127345173Y-171570631D01*
X127419191Y-171754123D01*
X127493371Y-171921359D01*
X127553038Y-172046290D01*
X127882558Y-172623608D01*
X128258364Y-173107303D01*
X128679613Y-173496592D01*
X129145463Y-173790695D01*
X129645229Y-173986033D01*
X129961060Y-174051100D01*
X130307896Y-174081473D01*
X130646403Y-174076324D01*
X130937246Y-174034824D01*
X131010442Y-174014808D01*
X131349036Y-173872719D01*
X131620487Y-173686595D01*
X131812162Y-173467552D01*
X131911429Y-173226701D01*
X131912460Y-173221337D01*
X131910261Y-173009640D01*
X131834082Y-172824772D01*
X131702316Y-172687686D01*
X131533355Y-172619336D01*
X131390341Y-172626513D01*
X131288023Y-172677473D01*
X131136403Y-172783031D01*
X130962061Y-172924007D01*
X130891300Y-172986579D01*
X130553650Y-173259438D01*
X130246756Y-173433691D01*
X129965035Y-173510132D01*
X129702903Y-173489554D01*
X129454778Y-173372750D01*
X129269146Y-173217131D01*
X129162271Y-173099078D01*
X129063937Y-172962330D01*
X128967850Y-172793274D01*
X128867717Y-172578294D01*
X128757243Y-172303779D01*
X128630135Y-171956112D01*
X128480098Y-171521680D01*
X128465790Y-171479441D01*
X128337278Y-171093352D01*
X128195620Y-170656713D01*
X128043634Y-170179050D01*
X127884135Y-169669889D01*
X127719941Y-169138754D01*
X127553868Y-168595170D01*
X127388733Y-168048662D01*
X127227353Y-167508756D01*
X127072544Y-166984976D01*
X126927124Y-166486849D01*
X126793909Y-166023898D01*
X126675715Y-165605649D01*
X126575360Y-165241628D01*
X126495661Y-164941359D01*
X126439433Y-164714367D01*
X126409494Y-164570177D01*
X126407457Y-164518967D01*
X126482911Y-164499215D01*
X126635885Y-164494121D01*
X126839356Y-164501868D01*
X127066301Y-164520640D01*
X127289697Y-164548618D01*
X127482521Y-164583988D01*
X127523690Y-164594008D01*
X127906370Y-164726542D01*
X128260245Y-164911326D01*
X128571720Y-165135875D01*
X128827199Y-165387706D01*
X129013088Y-165654333D01*
X129115790Y-165923271D01*
X129131900Y-166070846D01*
X129104641Y-166230683D01*
X129032873Y-166432080D01*
X128973150Y-166556653D01*
X128857722Y-166813972D01*
X128820474Y-167016733D01*
X128860776Y-167181017D01*
X128944287Y-167291443D01*
X129111294Y-167391240D01*
X129319104Y-167423891D01*
X129522450Y-167383836D01*
X129558165Y-167366844D01*
X129689752Y-167240963D01*
X129786522Y-167036019D01*
X129843562Y-166774467D01*
X129855958Y-166478766D01*
X129819252Y-166173568D01*
X129693699Y-165762135D01*
X129489174Y-165387263D01*
X129192573Y-165024945D01*
X129191898Y-165024237D01*
X128795735Y-164674481D01*
X128344113Y-164401297D01*
X127828406Y-164200816D01*
X127239987Y-164069166D01*
X126988775Y-164035626D01*
X126820005Y-164021431D01*
X126592500Y-164008699D01*
X126325456Y-163997791D01*
X126038072Y-163989069D01*
X125749544Y-163982896D01*
X125479068Y-163979634D01*
X125245842Y-163979645D01*
G37*
X125245842Y-163979645D02*
X125069063Y-163983291D01*
X124967927Y-163990934D01*
X124951484Y-163997188D01*
X124970229Y-164049382D01*
X125020962Y-164178651D01*
X125095426Y-164364186D01*
X125165710Y-164537120D01*
X125288977Y-164859838D01*
X125436181Y-165282552D01*
X125606422Y-165802382D01*
X125798799Y-166416446D01*
X126012413Y-167121864D01*
X126246363Y-167915754D01*
X126499749Y-168795236D01*
X126537982Y-168929455D01*
X126708733Y-169527256D01*
X126855179Y-170033674D01*
X126980816Y-170459440D01*
X127089138Y-170815286D01*
X127183642Y-171111944D01*
X127267822Y-171360149D01*
X127345173Y-171570631D01*
X127419191Y-171754123D01*
X127493371Y-171921359D01*
X127553038Y-172046290D01*
X127882558Y-172623608D01*
X128258364Y-173107303D01*
X128679613Y-173496592D01*
X129145463Y-173790695D01*
X129645229Y-173986033D01*
X129961060Y-174051100D01*
X130307896Y-174081473D01*
X130646403Y-174076324D01*
X130937246Y-174034824D01*
X131010442Y-174014808D01*
X131349036Y-173872719D01*
X131620487Y-173686595D01*
X131812162Y-173467552D01*
X131911429Y-173226701D01*
X131912460Y-173221337D01*
X131910261Y-173009640D01*
X131834082Y-172824772D01*
X131702316Y-172687686D01*
X131533355Y-172619336D01*
X131390341Y-172626513D01*
X131288023Y-172677473D01*
X131136403Y-172783031D01*
X130962061Y-172924007D01*
X130891300Y-172986579D01*
X130553650Y-173259438D01*
X130246756Y-173433691D01*
X129965035Y-173510132D01*
X129702903Y-173489554D01*
X129454778Y-173372750D01*
X129269146Y-173217131D01*
X129162271Y-173099078D01*
X129063937Y-172962330D01*
X128967850Y-172793274D01*
X128867717Y-172578294D01*
X128757243Y-172303779D01*
X128630135Y-171956112D01*
X128480098Y-171521680D01*
X128465790Y-171479441D01*
X128337278Y-171093352D01*
X128195620Y-170656713D01*
X128043634Y-170179050D01*
X127884135Y-169669889D01*
X127719941Y-169138754D01*
X127553868Y-168595170D01*
X127388733Y-168048662D01*
X127227353Y-167508756D01*
X127072544Y-166984976D01*
X126927124Y-166486849D01*
X126793909Y-166023898D01*
X126675715Y-165605649D01*
X126575360Y-165241628D01*
X126495661Y-164941359D01*
X126439433Y-164714367D01*
X126409494Y-164570177D01*
X126407457Y-164518967D01*
X126482911Y-164499215D01*
X126635885Y-164494121D01*
X126839356Y-164501868D01*
X127066301Y-164520640D01*
X127289697Y-164548618D01*
X127482521Y-164583988D01*
X127523690Y-164594008D01*
X127906370Y-164726542D01*
X128260245Y-164911326D01*
X128571720Y-165135875D01*
X128827199Y-165387706D01*
X129013088Y-165654333D01*
X129115790Y-165923271D01*
X129131900Y-166070846D01*
X129104641Y-166230683D01*
X129032873Y-166432080D01*
X128973150Y-166556653D01*
X128857722Y-166813972D01*
X128820474Y-167016733D01*
X128860776Y-167181017D01*
X128944287Y-167291443D01*
X129111294Y-167391240D01*
X129319104Y-167423891D01*
X129522450Y-167383836D01*
X129558165Y-167366844D01*
X129689752Y-167240963D01*
X129786522Y-167036019D01*
X129843562Y-166774467D01*
X129855958Y-166478766D01*
X129819252Y-166173568D01*
X129693699Y-165762135D01*
X129489174Y-165387263D01*
X129192573Y-165024945D01*
X129191898Y-165024237D01*
X128795735Y-164674481D01*
X128344113Y-164401297D01*
X127828406Y-164200816D01*
X127239987Y-164069166D01*
X126988775Y-164035626D01*
X126820005Y-164021431D01*
X126592500Y-164008699D01*
X126325456Y-163997791D01*
X126038072Y-163989069D01*
X125749544Y-163982896D01*
X125479068Y-163979634D01*
X125245842Y-163979645D01*
G36*
X121306761Y-166391236D02*
G01*
X120946979Y-166517974D01*
X120643148Y-166734445D01*
X120394195Y-167041332D01*
X120263960Y-167283779D01*
X120158529Y-167602582D01*
X120093928Y-167991641D01*
X120070730Y-168423339D01*
X120089506Y-168870054D01*
X120150830Y-169304166D01*
X120216464Y-169575800D01*
X120402503Y-170065543D01*
X120667285Y-170548793D01*
X120995798Y-171008505D01*
X121373029Y-171427634D01*
X121783966Y-171789134D01*
X122213598Y-172075959D01*
X122564185Y-172241535D01*
X122874869Y-172327908D01*
X123224575Y-172374385D01*
X123575357Y-172379407D01*
X123889270Y-172341416D01*
X124031856Y-172301837D01*
X124384082Y-172125415D01*
X124666987Y-171871734D01*
X124884380Y-171536807D01*
X124980000Y-171309258D01*
X125035886Y-171069437D01*
X125066184Y-170756315D01*
X125071309Y-170399180D01*
X125051676Y-170027318D01*
X125040298Y-169934871D01*
X123860656Y-169934871D01*
X123846257Y-170429834D01*
X123791108Y-170836385D01*
X123691565Y-171165227D01*
X123543987Y-171427065D01*
X123344731Y-171632600D01*
X123262295Y-171693091D01*
X123086755Y-171783547D01*
X122911072Y-171804831D01*
X122705367Y-171756699D01*
X122539473Y-171687174D01*
X122256345Y-171500209D01*
X121996506Y-171218488D01*
X121765531Y-170851597D01*
X121568997Y-170409122D01*
X121412481Y-169900647D01*
X121356913Y-169654454D01*
X121324508Y-169410586D01*
X121306949Y-169097872D01*
X121303973Y-168752214D01*
X121315316Y-168409515D01*
X121340716Y-168105679D01*
X121369608Y-167921176D01*
X121475321Y-167572269D01*
X121627478Y-167288664D01*
X121816724Y-167079336D01*
X122033701Y-166953264D01*
X122269052Y-166919422D01*
X122392072Y-166940272D01*
X122707945Y-167081854D01*
X123002249Y-167324933D01*
X123272492Y-167666910D01*
X123516180Y-168105182D01*
X123523604Y-168120964D01*
X123672346Y-168498667D01*
X123775222Y-168907258D01*
X123836486Y-169369628D01*
X123860393Y-169908669D01*
X123860656Y-169934871D01*
X125040298Y-169934871D01*
X125007698Y-169670019D01*
X124953057Y-169405705D01*
X124753048Y-168807956D01*
X124471461Y-168229121D01*
X124123092Y-167694630D01*
X123722738Y-167229913D01*
X123640763Y-167150426D01*
X123232429Y-166815126D01*
X122817113Y-166576898D01*
X122375481Y-166427707D01*
X121888198Y-166359514D01*
X121723567Y-166353546D01*
X121306761Y-166391236D01*
G37*
X121306761Y-166391236D02*
X120946979Y-166517974D01*
X120643148Y-166734445D01*
X120394195Y-167041332D01*
X120263960Y-167283779D01*
X120158529Y-167602582D01*
X120093928Y-167991641D01*
X120070730Y-168423339D01*
X120089506Y-168870054D01*
X120150830Y-169304166D01*
X120216464Y-169575800D01*
X120402503Y-170065543D01*
X120667285Y-170548793D01*
X120995798Y-171008505D01*
X121373029Y-171427634D01*
X121783966Y-171789134D01*
X122213598Y-172075959D01*
X122564185Y-172241535D01*
X122874869Y-172327908D01*
X123224575Y-172374385D01*
X123575357Y-172379407D01*
X123889270Y-172341416D01*
X124031856Y-172301837D01*
X124384082Y-172125415D01*
X124666987Y-171871734D01*
X124884380Y-171536807D01*
X124980000Y-171309258D01*
X125035886Y-171069437D01*
X125066184Y-170756315D01*
X125071309Y-170399180D01*
X125051676Y-170027318D01*
X125040298Y-169934871D01*
X123860656Y-169934871D01*
X123846257Y-170429834D01*
X123791108Y-170836385D01*
X123691565Y-171165227D01*
X123543987Y-171427065D01*
X123344731Y-171632600D01*
X123262295Y-171693091D01*
X123086755Y-171783547D01*
X122911072Y-171804831D01*
X122705367Y-171756699D01*
X122539473Y-171687174D01*
X122256345Y-171500209D01*
X121996506Y-171218488D01*
X121765531Y-170851597D01*
X121568997Y-170409122D01*
X121412481Y-169900647D01*
X121356913Y-169654454D01*
X121324508Y-169410586D01*
X121306949Y-169097872D01*
X121303973Y-168752214D01*
X121315316Y-168409515D01*
X121340716Y-168105679D01*
X121369608Y-167921176D01*
X121475321Y-167572269D01*
X121627478Y-167288664D01*
X121816724Y-167079336D01*
X122033701Y-166953264D01*
X122269052Y-166919422D01*
X122392072Y-166940272D01*
X122707945Y-167081854D01*
X123002249Y-167324933D01*
X123272492Y-167666910D01*
X123516180Y-168105182D01*
X123523604Y-168120964D01*
X123672346Y-168498667D01*
X123775222Y-168907258D01*
X123836486Y-169369628D01*
X123860393Y-169908669D01*
X123860656Y-169934871D01*
X125040298Y-169934871D01*
X125007698Y-169670019D01*
X124953057Y-169405705D01*
X124753048Y-168807956D01*
X124471461Y-168229121D01*
X124123092Y-167694630D01*
X123722738Y-167229913D01*
X123640763Y-167150426D01*
X123232429Y-166815126D01*
X122817113Y-166576898D01*
X122375481Y-166427707D01*
X121888198Y-166359514D01*
X121723567Y-166353546D01*
X121306761Y-166391236D01*
G36*
X116932597Y-166370271D02*
G01*
X116888852Y-166407670D01*
X116848903Y-166456933D01*
X116826329Y-166510893D01*
X116822253Y-166589281D01*
X116837798Y-166711826D01*
X116874086Y-166898259D01*
X116932090Y-167167619D01*
X116988853Y-167425306D01*
X117039846Y-167652142D01*
X117079644Y-167824310D01*
X117102823Y-167917989D01*
X117103427Y-167920110D01*
X117081955Y-167934046D01*
X116995102Y-167880232D01*
X116852597Y-167765480D01*
X116737407Y-167663862D01*
X116350229Y-167332238D01*
X115958804Y-167032164D01*
X115577821Y-166772910D01*
X115221971Y-166563749D01*
X114905944Y-166413954D01*
X114644430Y-166332797D01*
X114622420Y-166328907D01*
X114379659Y-166335221D01*
X114164900Y-166425355D01*
X114005224Y-166585495D01*
X113963205Y-166665190D01*
X113926098Y-166775706D01*
X113906138Y-166899430D01*
X113905350Y-167047775D01*
X113925761Y-167232149D01*
X113969396Y-167463964D01*
X114038281Y-167754630D01*
X114134440Y-168115558D01*
X114259900Y-168558157D01*
X114360456Y-168902996D01*
X114515722Y-169434381D01*
X114642323Y-169875172D01*
X114742800Y-170235902D01*
X114819694Y-170527105D01*
X114875547Y-170759315D01*
X114912900Y-170943064D01*
X114934293Y-171088888D01*
X114942268Y-171207319D01*
X114939719Y-171304195D01*
X114913720Y-171452056D01*
X114856374Y-171528041D01*
X114758451Y-171530971D01*
X114610722Y-171459666D01*
X114403956Y-171312947D01*
X114287790Y-171220870D01*
X114040818Y-171020446D01*
X113863411Y-170877757D01*
X113741975Y-170785070D01*
X113662918Y-170734655D01*
X113612649Y-170718779D01*
X113577575Y-170729710D01*
X113544105Y-170759717D01*
X113519165Y-170783636D01*
X113440982Y-170874992D01*
X113415650Y-170936789D01*
X113451371Y-170998385D01*
X113546729Y-171111797D01*
X113684022Y-171256597D01*
X113746380Y-171318404D01*
X114176662Y-171709432D01*
X114573827Y-172012931D01*
X114934952Y-172227390D01*
X115257116Y-172351301D01*
X115537397Y-172383154D01*
X115727984Y-172341955D01*
X115873825Y-172226813D01*
X115971185Y-172020179D01*
X116018873Y-171725244D01*
X116023744Y-171548830D01*
X116002514Y-171257933D01*
X115941850Y-170885477D01*
X115840944Y-170427897D01*
X115698990Y-169881625D01*
X115515178Y-169243095D01*
X115459967Y-169060001D01*
X115326019Y-168605412D01*
X115217853Y-168208889D01*
X115137522Y-167879325D01*
X115087077Y-167625610D01*
X115068572Y-167456635D01*
X115075425Y-167394294D01*
X115152488Y-167324328D01*
X115294450Y-167317626D01*
X115487148Y-167367095D01*
X115716423Y-167465640D01*
X115968114Y-167606165D01*
X116228059Y-167781577D01*
X116482100Y-167984781D01*
X116716074Y-168208682D01*
X116729546Y-168223028D01*
X116869268Y-168378604D01*
X116988977Y-168529125D01*
X117093362Y-168686846D01*
X117187117Y-168864020D01*
X117274933Y-169072903D01*
X117361502Y-169325747D01*
X117451515Y-169634807D01*
X117549665Y-170012338D01*
X117660642Y-170470593D01*
X117770927Y-170942953D01*
X118051660Y-172157371D01*
X118591155Y-172172452D01*
X118815534Y-172174820D01*
X118994265Y-172169277D01*
X119105196Y-172156964D01*
X119130650Y-172144700D01*
X119118105Y-172081240D01*
X119083451Y-171933706D01*
X119031167Y-171720463D01*
X118965729Y-171459879D01*
X118920605Y-171282953D01*
X118824698Y-170903568D01*
X118722570Y-170489911D01*
X118617242Y-170055113D01*
X118511734Y-169612306D01*
X118409065Y-169174621D01*
X118312254Y-168755190D01*
X118224321Y-168367143D01*
X118148286Y-168023613D01*
X118087168Y-167737731D01*
X118043987Y-167522627D01*
X118021762Y-167391434D01*
X118019400Y-167363841D01*
X118033692Y-167246574D01*
X118063849Y-167188438D01*
X118151620Y-167194182D01*
X118307284Y-167274103D01*
X118526216Y-167425294D01*
X118803788Y-167644849D01*
X118844885Y-167679053D01*
X119247797Y-168016152D01*
X119380123Y-167883826D01*
X119512449Y-167751501D01*
X119281862Y-167540079D01*
X118958592Y-167249933D01*
X118688434Y-167023142D01*
X118452443Y-166845552D01*
X118231668Y-166703008D01*
X118007164Y-166581355D01*
X117981576Y-166568713D01*
X117632804Y-166418925D01*
X117336377Y-166335135D01*
X117100304Y-166318524D01*
X116932597Y-166370271D01*
G37*
X116932597Y-166370271D02*
X116888852Y-166407670D01*
X116848903Y-166456933D01*
X116826329Y-166510893D01*
X116822253Y-166589281D01*
X116837798Y-166711826D01*
X116874086Y-166898259D01*
X116932090Y-167167619D01*
X116988853Y-167425306D01*
X117039846Y-167652142D01*
X117079644Y-167824310D01*
X117102823Y-167917989D01*
X117103427Y-167920110D01*
X117081955Y-167934046D01*
X116995102Y-167880232D01*
X116852597Y-167765480D01*
X116737407Y-167663862D01*
X116350229Y-167332238D01*
X115958804Y-167032164D01*
X115577821Y-166772910D01*
X115221971Y-166563749D01*
X114905944Y-166413954D01*
X114644430Y-166332797D01*
X114622420Y-166328907D01*
X114379659Y-166335221D01*
X114164900Y-166425355D01*
X114005224Y-166585495D01*
X113963205Y-166665190D01*
X113926098Y-166775706D01*
X113906138Y-166899430D01*
X113905350Y-167047775D01*
X113925761Y-167232149D01*
X113969396Y-167463964D01*
X114038281Y-167754630D01*
X114134440Y-168115558D01*
X114259900Y-168558157D01*
X114360456Y-168902996D01*
X114515722Y-169434381D01*
X114642323Y-169875172D01*
X114742800Y-170235902D01*
X114819694Y-170527105D01*
X114875547Y-170759315D01*
X114912900Y-170943064D01*
X114934293Y-171088888D01*
X114942268Y-171207319D01*
X114939719Y-171304195D01*
X114913720Y-171452056D01*
X114856374Y-171528041D01*
X114758451Y-171530971D01*
X114610722Y-171459666D01*
X114403956Y-171312947D01*
X114287790Y-171220870D01*
X114040818Y-171020446D01*
X113863411Y-170877757D01*
X113741975Y-170785070D01*
X113662918Y-170734655D01*
X113612649Y-170718779D01*
X113577575Y-170729710D01*
X113544105Y-170759717D01*
X113519165Y-170783636D01*
X113440982Y-170874992D01*
X113415650Y-170936789D01*
X113451371Y-170998385D01*
X113546729Y-171111797D01*
X113684022Y-171256597D01*
X113746380Y-171318404D01*
X114176662Y-171709432D01*
X114573827Y-172012931D01*
X114934952Y-172227390D01*
X115257116Y-172351301D01*
X115537397Y-172383154D01*
X115727984Y-172341955D01*
X115873825Y-172226813D01*
X115971185Y-172020179D01*
X116018873Y-171725244D01*
X116023744Y-171548830D01*
X116002514Y-171257933D01*
X115941850Y-170885477D01*
X115840944Y-170427897D01*
X115698990Y-169881625D01*
X115515178Y-169243095D01*
X115459967Y-169060001D01*
X115326019Y-168605412D01*
X115217853Y-168208889D01*
X115137522Y-167879325D01*
X115087077Y-167625610D01*
X115068572Y-167456635D01*
X115075425Y-167394294D01*
X115152488Y-167324328D01*
X115294450Y-167317626D01*
X115487148Y-167367095D01*
X115716423Y-167465640D01*
X115968114Y-167606165D01*
X116228059Y-167781577D01*
X116482100Y-167984781D01*
X116716074Y-168208682D01*
X116729546Y-168223028D01*
X116869268Y-168378604D01*
X116988977Y-168529125D01*
X117093362Y-168686846D01*
X117187117Y-168864020D01*
X117274933Y-169072903D01*
X117361502Y-169325747D01*
X117451515Y-169634807D01*
X117549665Y-170012338D01*
X117660642Y-170470593D01*
X117770927Y-170942953D01*
X118051660Y-172157371D01*
X118591155Y-172172452D01*
X118815534Y-172174820D01*
X118994265Y-172169277D01*
X119105196Y-172156964D01*
X119130650Y-172144700D01*
X119118105Y-172081240D01*
X119083451Y-171933706D01*
X119031167Y-171720463D01*
X118965729Y-171459879D01*
X118920605Y-171282953D01*
X118824698Y-170903568D01*
X118722570Y-170489911D01*
X118617242Y-170055113D01*
X118511734Y-169612306D01*
X118409065Y-169174621D01*
X118312254Y-168755190D01*
X118224321Y-168367143D01*
X118148286Y-168023613D01*
X118087168Y-167737731D01*
X118043987Y-167522627D01*
X118021762Y-167391434D01*
X118019400Y-167363841D01*
X118033692Y-167246574D01*
X118063849Y-167188438D01*
X118151620Y-167194182D01*
X118307284Y-167274103D01*
X118526216Y-167425294D01*
X118803788Y-167644849D01*
X118844885Y-167679053D01*
X119247797Y-168016152D01*
X119380123Y-167883826D01*
X119512449Y-167751501D01*
X119281862Y-167540079D01*
X118958592Y-167249933D01*
X118688434Y-167023142D01*
X118452443Y-166845552D01*
X118231668Y-166703008D01*
X118007164Y-166581355D01*
X117981576Y-166568713D01*
X117632804Y-166418925D01*
X117336377Y-166335135D01*
X117100304Y-166318524D01*
X116932597Y-166370271D01*
G36*
X109369235Y-166357988D02*
G01*
X109085273Y-166466439D01*
X108873501Y-166640319D01*
X108734446Y-166867178D01*
X108668636Y-167134564D01*
X108676599Y-167430025D01*
X108758863Y-167741112D01*
X108915956Y-168055373D01*
X109148406Y-168360357D01*
X109278747Y-168492204D01*
X109477837Y-168665881D01*
X109696823Y-168829430D01*
X109952421Y-168993028D01*
X110261350Y-169166849D01*
X110640327Y-169361071D01*
X110966235Y-169519391D01*
X111274566Y-169666764D01*
X111500935Y-169781853D01*
X111657496Y-169880777D01*
X111756403Y-169979654D01*
X111809810Y-170094604D01*
X111829871Y-170241746D01*
X111828740Y-170437197D01*
X111820247Y-170651989D01*
X111809641Y-170881780D01*
X111793802Y-171032852D01*
X111764593Y-171132277D01*
X111713875Y-171207129D01*
X111633511Y-171284482D01*
X111628878Y-171288624D01*
X111450834Y-171406461D01*
X111299998Y-171442996D01*
X111047411Y-171403650D01*
X110735247Y-171288710D01*
X110372940Y-171102821D01*
X109969922Y-170850628D01*
X109678611Y-170644508D01*
X109526207Y-170538245D01*
X109402776Y-170463585D01*
X109338580Y-170437580D01*
X109262690Y-170476976D01*
X109170622Y-170568361D01*
X109098166Y-170671524D01*
X109078244Y-170730079D01*
X109117331Y-170795071D01*
X109226944Y-170909421D01*
X109392119Y-171060101D01*
X109597889Y-171234082D01*
X109829289Y-171418336D01*
X110071354Y-171599837D01*
X110106358Y-171625086D01*
X110575381Y-171930984D01*
X111013388Y-172150748D01*
X111437355Y-172292571D01*
X111537109Y-172315543D01*
X111777202Y-172362415D01*
X111950658Y-172383684D01*
X112093151Y-172380832D01*
X112240353Y-172355338D01*
X112279049Y-172346325D01*
X112545063Y-172233582D01*
X112750912Y-172036847D01*
X112896935Y-171755247D01*
X112983472Y-171387908D01*
X113010865Y-170933957D01*
X112991202Y-170516955D01*
X112934775Y-170061008D01*
X112840809Y-169630878D01*
X112743595Y-169330689D01*
X111669400Y-169330689D01*
X111627968Y-169342200D01*
X111510523Y-169297785D01*
X111327348Y-169202789D01*
X111088725Y-169062557D01*
X110804934Y-168882435D01*
X110796275Y-168876763D01*
X110406458Y-168594280D01*
X110097737Y-168313139D01*
X109875739Y-168040008D01*
X109746086Y-167781560D01*
X109712646Y-167591609D01*
X109752700Y-167374669D01*
X109861355Y-167174373D01*
X110015244Y-167032206D01*
X110033407Y-167022167D01*
X110242568Y-166970086D01*
X110468798Y-167010505D01*
X110696402Y-167135292D01*
X110909688Y-167336313D01*
X111065762Y-167557213D01*
X111173242Y-167766370D01*
X111288036Y-168032426D01*
X111401507Y-168330003D01*
X111505016Y-168633722D01*
X111589925Y-168918205D01*
X111647596Y-169158072D01*
X111669390Y-169327944D01*
X111669400Y-169330689D01*
X112743595Y-169330689D01*
X112700453Y-169197470D01*
X112504852Y-168731690D01*
X112350241Y-168410464D01*
X112065809Y-167908466D01*
X111743746Y-167457226D01*
X111396449Y-167070692D01*
X111036314Y-166762813D01*
X110708421Y-166563020D01*
X110354254Y-166427722D01*
X109977931Y-166347528D01*
X109615897Y-166328019D01*
X109369235Y-166357988D01*
G37*
X109369235Y-166357988D02*
X109085273Y-166466439D01*
X108873501Y-166640319D01*
X108734446Y-166867178D01*
X108668636Y-167134564D01*
X108676599Y-167430025D01*
X108758863Y-167741112D01*
X108915956Y-168055373D01*
X109148406Y-168360357D01*
X109278747Y-168492204D01*
X109477837Y-168665881D01*
X109696823Y-168829430D01*
X109952421Y-168993028D01*
X110261350Y-169166849D01*
X110640327Y-169361071D01*
X110966235Y-169519391D01*
X111274566Y-169666764D01*
X111500935Y-169781853D01*
X111657496Y-169880777D01*
X111756403Y-169979654D01*
X111809810Y-170094604D01*
X111829871Y-170241746D01*
X111828740Y-170437197D01*
X111820247Y-170651989D01*
X111809641Y-170881780D01*
X111793802Y-171032852D01*
X111764593Y-171132277D01*
X111713875Y-171207129D01*
X111633511Y-171284482D01*
X111628878Y-171288624D01*
X111450834Y-171406461D01*
X111299998Y-171442996D01*
X111047411Y-171403650D01*
X110735247Y-171288710D01*
X110372940Y-171102821D01*
X109969922Y-170850628D01*
X109678611Y-170644508D01*
X109526207Y-170538245D01*
X109402776Y-170463585D01*
X109338580Y-170437580D01*
X109262690Y-170476976D01*
X109170622Y-170568361D01*
X109098166Y-170671524D01*
X109078244Y-170730079D01*
X109117331Y-170795071D01*
X109226944Y-170909421D01*
X109392119Y-171060101D01*
X109597889Y-171234082D01*
X109829289Y-171418336D01*
X110071354Y-171599837D01*
X110106358Y-171625086D01*
X110575381Y-171930984D01*
X111013388Y-172150748D01*
X111437355Y-172292571D01*
X111537109Y-172315543D01*
X111777202Y-172362415D01*
X111950658Y-172383684D01*
X112093151Y-172380832D01*
X112240353Y-172355338D01*
X112279049Y-172346325D01*
X112545063Y-172233582D01*
X112750912Y-172036847D01*
X112896935Y-171755247D01*
X112983472Y-171387908D01*
X113010865Y-170933957D01*
X112991202Y-170516955D01*
X112934775Y-170061008D01*
X112840809Y-169630878D01*
X112743595Y-169330689D01*
X111669400Y-169330689D01*
X111627968Y-169342200D01*
X111510523Y-169297785D01*
X111327348Y-169202789D01*
X111088725Y-169062557D01*
X110804934Y-168882435D01*
X110796275Y-168876763D01*
X110406458Y-168594280D01*
X110097737Y-168313139D01*
X109875739Y-168040008D01*
X109746086Y-167781560D01*
X109712646Y-167591609D01*
X109752700Y-167374669D01*
X109861355Y-167174373D01*
X110015244Y-167032206D01*
X110033407Y-167022167D01*
X110242568Y-166970086D01*
X110468798Y-167010505D01*
X110696402Y-167135292D01*
X110909688Y-167336313D01*
X111065762Y-167557213D01*
X111173242Y-167766370D01*
X111288036Y-168032426D01*
X111401507Y-168330003D01*
X111505016Y-168633722D01*
X111589925Y-168918205D01*
X111647596Y-169158072D01*
X111669390Y-169327944D01*
X111669400Y-169330689D01*
X112743595Y-169330689D01*
X112700453Y-169197470D01*
X112504852Y-168731690D01*
X112350241Y-168410464D01*
X112065809Y-167908466D01*
X111743746Y-167457226D01*
X111396449Y-167070692D01*
X111036314Y-166762813D01*
X110708421Y-166563020D01*
X110354254Y-166427722D01*
X109977931Y-166347528D01*
X109615897Y-166328019D01*
X109369235Y-166357988D01*
G36*
X104648472Y-166369613D02*
G01*
X104325680Y-166473889D01*
X104068277Y-166639591D01*
X103887627Y-166862447D01*
X103839671Y-166965931D01*
X103810249Y-167174512D01*
X103870614Y-167365927D01*
X104004789Y-167519208D01*
X104196796Y-167613392D01*
X104348049Y-167632996D01*
X104453828Y-167607706D01*
X104580852Y-167523437D01*
X104747208Y-167367589D01*
X104784871Y-167328725D01*
X104942966Y-167169863D01*
X105091242Y-167031187D01*
X105200735Y-166939639D01*
X105211199Y-166932199D01*
X105412960Y-166849701D01*
X105621289Y-166857700D01*
X105818376Y-166943705D01*
X105986411Y-167095225D01*
X106107584Y-167299769D01*
X106164084Y-167544847D01*
X106166067Y-167601883D01*
X106146573Y-167771466D01*
X106082832Y-167953831D01*
X105966960Y-168162486D01*
X105791072Y-168410938D01*
X105547282Y-168712696D01*
X105452868Y-168823621D01*
X105255454Y-169063215D01*
X105069238Y-169306933D01*
X104913018Y-169528995D01*
X104805594Y-169703624D01*
X104791923Y-169729975D01*
X104641837Y-170136264D01*
X104591406Y-170534228D01*
X104634455Y-170915085D01*
X104764806Y-171270052D01*
X104976283Y-171590346D01*
X105262710Y-171867185D01*
X105617909Y-172091786D01*
X106035704Y-172255367D01*
X106509919Y-172349146D01*
X106642317Y-172361054D01*
X106850640Y-172371353D01*
X107028233Y-172373086D01*
X107139386Y-172365982D01*
X107145025Y-172364874D01*
X107257336Y-172341055D01*
X107425461Y-172306393D01*
X107524763Y-172286222D01*
X107853113Y-172173242D01*
X108119229Y-171986409D01*
X108312175Y-171738306D01*
X108421016Y-171441513D01*
X108441484Y-171231576D01*
X108410129Y-170969142D01*
X108312290Y-170783811D01*
X108142305Y-170666076D01*
X108094022Y-170648090D01*
X107869615Y-170616485D01*
X107668335Y-170684117D01*
X107555130Y-170770386D01*
X107480526Y-170863280D01*
X107444666Y-170988141D01*
X107436067Y-171163806D01*
X107410355Y-171440105D01*
X107326774Y-171639320D01*
X107175657Y-171778590D01*
X107055982Y-171837566D01*
X106764744Y-171901795D01*
X106462337Y-171878993D01*
X106171004Y-171779909D01*
X105912991Y-171615296D01*
X105710539Y-171395903D01*
X105585892Y-171132482D01*
X105584171Y-171126191D01*
X105553958Y-170972052D01*
X105554869Y-170824277D01*
X105593559Y-170669559D01*
X105676680Y-170494593D01*
X105810887Y-170286070D01*
X106002835Y-170030687D01*
X106259177Y-169715134D01*
X106335662Y-169623425D01*
X106575058Y-169322609D01*
X106750315Y-169063218D01*
X106877558Y-168817695D01*
X106972913Y-168558484D01*
X106987641Y-168509254D01*
X107057141Y-168096651D01*
X107023296Y-167701606D01*
X106888060Y-167331080D01*
X106653391Y-166992032D01*
X106523934Y-166859086D01*
X106256410Y-166644699D01*
X105970643Y-166495731D01*
X105632597Y-166396517D01*
X105444762Y-166362430D01*
X105025287Y-166331035D01*
X104648472Y-166369613D01*
G37*
X104648472Y-166369613D02*
X104325680Y-166473889D01*
X104068277Y-166639591D01*
X103887627Y-166862447D01*
X103839671Y-166965931D01*
X103810249Y-167174512D01*
X103870614Y-167365927D01*
X104004789Y-167519208D01*
X104196796Y-167613392D01*
X104348049Y-167632996D01*
X104453828Y-167607706D01*
X104580852Y-167523437D01*
X104747208Y-167367589D01*
X104784871Y-167328725D01*
X104942966Y-167169863D01*
X105091242Y-167031187D01*
X105200735Y-166939639D01*
X105211199Y-166932199D01*
X105412960Y-166849701D01*
X105621289Y-166857700D01*
X105818376Y-166943705D01*
X105986411Y-167095225D01*
X106107584Y-167299769D01*
X106164084Y-167544847D01*
X106166067Y-167601883D01*
X106146573Y-167771466D01*
X106082832Y-167953831D01*
X105966960Y-168162486D01*
X105791072Y-168410938D01*
X105547282Y-168712696D01*
X105452868Y-168823621D01*
X105255454Y-169063215D01*
X105069238Y-169306933D01*
X104913018Y-169528995D01*
X104805594Y-169703624D01*
X104791923Y-169729975D01*
X104641837Y-170136264D01*
X104591406Y-170534228D01*
X104634455Y-170915085D01*
X104764806Y-171270052D01*
X104976283Y-171590346D01*
X105262710Y-171867185D01*
X105617909Y-172091786D01*
X106035704Y-172255367D01*
X106509919Y-172349146D01*
X106642317Y-172361054D01*
X106850640Y-172371353D01*
X107028233Y-172373086D01*
X107139386Y-172365982D01*
X107145025Y-172364874D01*
X107257336Y-172341055D01*
X107425461Y-172306393D01*
X107524763Y-172286222D01*
X107853113Y-172173242D01*
X108119229Y-171986409D01*
X108312175Y-171738306D01*
X108421016Y-171441513D01*
X108441484Y-171231576D01*
X108410129Y-170969142D01*
X108312290Y-170783811D01*
X108142305Y-170666076D01*
X108094022Y-170648090D01*
X107869615Y-170616485D01*
X107668335Y-170684117D01*
X107555130Y-170770386D01*
X107480526Y-170863280D01*
X107444666Y-170988141D01*
X107436067Y-171163806D01*
X107410355Y-171440105D01*
X107326774Y-171639320D01*
X107175657Y-171778590D01*
X107055982Y-171837566D01*
X106764744Y-171901795D01*
X106462337Y-171878993D01*
X106171004Y-171779909D01*
X105912991Y-171615296D01*
X105710539Y-171395903D01*
X105585892Y-171132482D01*
X105584171Y-171126191D01*
X105553958Y-170972052D01*
X105554869Y-170824277D01*
X105593559Y-170669559D01*
X105676680Y-170494593D01*
X105810887Y-170286070D01*
X106002835Y-170030687D01*
X106259177Y-169715134D01*
X106335662Y-169623425D01*
X106575058Y-169322609D01*
X106750315Y-169063218D01*
X106877558Y-168817695D01*
X106972913Y-168558484D01*
X106987641Y-168509254D01*
X107057141Y-168096651D01*
X107023296Y-167701606D01*
X106888060Y-167331080D01*
X106653391Y-166992032D01*
X106523934Y-166859086D01*
X106256410Y-166644699D01*
X105970643Y-166495731D01*
X105632597Y-166396517D01*
X105444762Y-166362430D01*
X105025287Y-166331035D01*
X104648472Y-166369613D01*
%LPC*%
D12*
G36*
X136300000Y-254050000D02*
G01*
X47300000Y-254050000D01*
X47300000Y-159849520D01*
X136300000Y-159699520D01*
X136300000Y-254050000D01*
G37*
X136300000Y-254050000D02*
X47300000Y-254050000D01*
X47300000Y-159849520D01*
X136300000Y-159699520D01*
X136300000Y-254050000D01*
D13*
X138884810Y-172069380D03*
M02*
