G04 #@! TF.GenerationSoftware,KiCad,Pcbnew,(5.1.6-0-10_14)*
G04 #@! TF.CreationDate,2020-07-21T07:07:53+09:00*
G04 #@! TF.ProjectId,Jones,4a6f6e65-732e-46b6-9963-61645f706362,v.0.2*
G04 #@! TF.SameCoordinates,Original*
G04 #@! TF.FileFunction,Copper,L1,Top*
G04 #@! TF.FilePolarity,Positive*
%FSLAX46Y46*%
G04 Gerber Fmt 4.6, Leading zero omitted, Abs format (unit mm)*
G04 Created by KiCad (PCBNEW (5.1.6-0-10_14)) date 2020-07-21 07:07:53*
%MOMM*%
%LPD*%
G01*
G04 APERTURE LIST*
G04 #@! TA.AperFunction,EtchedComponent*
%ADD10C,0.010000*%
G04 #@! TD*
G04 #@! TA.AperFunction,ComponentPad*
%ADD11R,0.850000X0.850000*%
G04 #@! TD*
G04 #@! TA.AperFunction,ViaPad*
%ADD12C,0.600000*%
G04 #@! TD*
G04 #@! TA.AperFunction,Conductor*
%ADD13C,0.200000*%
G04 #@! TD*
G04 APERTURE END LIST*
D10*
G36*
X128133904Y-204295149D02*
G01*
X128521254Y-204420281D01*
X128830138Y-204619124D01*
X129046917Y-204886550D01*
X129104465Y-205010731D01*
X129139772Y-205261029D01*
X129067333Y-205490726D01*
X128906323Y-205674664D01*
X128675915Y-205787684D01*
X128494412Y-205811210D01*
X128367476Y-205780862D01*
X128215047Y-205679738D01*
X128015420Y-205492720D01*
X127970225Y-205446084D01*
X127780511Y-205255450D01*
X127602579Y-205089039D01*
X127471188Y-204979180D01*
X127458631Y-204970253D01*
X127216518Y-204871256D01*
X126966523Y-204880854D01*
X126730018Y-204984060D01*
X126528377Y-205165884D01*
X126382970Y-205411337D01*
X126315169Y-205705430D01*
X126312790Y-205773873D01*
X126336183Y-205977373D01*
X126412672Y-206196211D01*
X126551718Y-206446597D01*
X126762784Y-206744740D01*
X127055332Y-207106849D01*
X127168629Y-207239960D01*
X127405525Y-207527472D01*
X127628985Y-207819933D01*
X127816448Y-208086409D01*
X127945358Y-208295963D01*
X127961763Y-208327584D01*
X128141866Y-208815131D01*
X128202383Y-209292688D01*
X128150724Y-209749716D01*
X127994303Y-210175676D01*
X127740530Y-210560029D01*
X127396818Y-210892236D01*
X126970579Y-211161758D01*
X126469225Y-211358055D01*
X125900168Y-211470589D01*
X125741290Y-211484879D01*
X125491302Y-211497238D01*
X125278190Y-211499318D01*
X125144807Y-211490792D01*
X125138040Y-211489463D01*
X125003267Y-211460881D01*
X124801517Y-211419286D01*
X124682354Y-211395080D01*
X124288334Y-211259504D01*
X123968995Y-211035305D01*
X123737460Y-210737581D01*
X123606851Y-210381429D01*
X123582290Y-210129505D01*
X123619916Y-209814585D01*
X123737323Y-209592188D01*
X123941304Y-209450906D01*
X123999244Y-209429322D01*
X124268532Y-209391396D01*
X124510068Y-209472554D01*
X124645915Y-209576077D01*
X124735438Y-209687550D01*
X124778471Y-209837384D01*
X124788790Y-210048182D01*
X124819644Y-210379740D01*
X124919941Y-210618798D01*
X125101282Y-210785922D01*
X125244892Y-210856693D01*
X125594378Y-210933768D01*
X125957266Y-210906406D01*
X126306865Y-210787505D01*
X126616481Y-210589969D01*
X126859424Y-210326698D01*
X127009000Y-210010593D01*
X127011065Y-210003043D01*
X127047320Y-209818077D01*
X127046227Y-209640746D01*
X126999800Y-209455085D01*
X126900054Y-209245125D01*
X126739006Y-208994899D01*
X126508668Y-208688438D01*
X126201057Y-208309775D01*
X126109276Y-208199724D01*
X125822000Y-207838745D01*
X125611692Y-207527476D01*
X125459000Y-207232848D01*
X125344575Y-206921795D01*
X125326900Y-206862719D01*
X125243501Y-206367596D01*
X125284115Y-205893542D01*
X125446398Y-205448910D01*
X125728000Y-205042053D01*
X125883350Y-204882517D01*
X126204379Y-204625253D01*
X126547298Y-204446491D01*
X126952954Y-204327434D01*
X127178356Y-204286530D01*
X127681726Y-204248857D01*
X128133904Y-204295149D01*
G37*
X128133904Y-204295149D02*
X128521254Y-204420281D01*
X128830138Y-204619124D01*
X129046917Y-204886550D01*
X129104465Y-205010731D01*
X129139772Y-205261029D01*
X129067333Y-205490726D01*
X128906323Y-205674664D01*
X128675915Y-205787684D01*
X128494412Y-205811210D01*
X128367476Y-205780862D01*
X128215047Y-205679738D01*
X128015420Y-205492720D01*
X127970225Y-205446084D01*
X127780511Y-205255450D01*
X127602579Y-205089039D01*
X127471188Y-204979180D01*
X127458631Y-204970253D01*
X127216518Y-204871256D01*
X126966523Y-204880854D01*
X126730018Y-204984060D01*
X126528377Y-205165884D01*
X126382970Y-205411337D01*
X126315169Y-205705430D01*
X126312790Y-205773873D01*
X126336183Y-205977373D01*
X126412672Y-206196211D01*
X126551718Y-206446597D01*
X126762784Y-206744740D01*
X127055332Y-207106849D01*
X127168629Y-207239960D01*
X127405525Y-207527472D01*
X127628985Y-207819933D01*
X127816448Y-208086409D01*
X127945358Y-208295963D01*
X127961763Y-208327584D01*
X128141866Y-208815131D01*
X128202383Y-209292688D01*
X128150724Y-209749716D01*
X127994303Y-210175676D01*
X127740530Y-210560029D01*
X127396818Y-210892236D01*
X126970579Y-211161758D01*
X126469225Y-211358055D01*
X125900168Y-211470589D01*
X125741290Y-211484879D01*
X125491302Y-211497238D01*
X125278190Y-211499318D01*
X125144807Y-211490792D01*
X125138040Y-211489463D01*
X125003267Y-211460881D01*
X124801517Y-211419286D01*
X124682354Y-211395080D01*
X124288334Y-211259504D01*
X123968995Y-211035305D01*
X123737460Y-210737581D01*
X123606851Y-210381429D01*
X123582290Y-210129505D01*
X123619916Y-209814585D01*
X123737323Y-209592188D01*
X123941304Y-209450906D01*
X123999244Y-209429322D01*
X124268532Y-209391396D01*
X124510068Y-209472554D01*
X124645915Y-209576077D01*
X124735438Y-209687550D01*
X124778471Y-209837384D01*
X124788790Y-210048182D01*
X124819644Y-210379740D01*
X124919941Y-210618798D01*
X125101282Y-210785922D01*
X125244892Y-210856693D01*
X125594378Y-210933768D01*
X125957266Y-210906406D01*
X126306865Y-210787505D01*
X126616481Y-210589969D01*
X126859424Y-210326698D01*
X127009000Y-210010593D01*
X127011065Y-210003043D01*
X127047320Y-209818077D01*
X127046227Y-209640746D01*
X126999800Y-209455085D01*
X126900054Y-209245125D01*
X126739006Y-208994899D01*
X126508668Y-208688438D01*
X126201057Y-208309775D01*
X126109276Y-208199724D01*
X125822000Y-207838745D01*
X125611692Y-207527476D01*
X125459000Y-207232848D01*
X125344575Y-206921795D01*
X125326900Y-206862719D01*
X125243501Y-206367596D01*
X125284115Y-205893542D01*
X125446398Y-205448910D01*
X125728000Y-205042053D01*
X125883350Y-204882517D01*
X126204379Y-204625253D01*
X126547298Y-204446491D01*
X126952954Y-204327434D01*
X127178356Y-204286530D01*
X127681726Y-204248857D01*
X128133904Y-204295149D01*
G36*
X122468989Y-204281200D02*
G01*
X122809742Y-204411341D01*
X123063869Y-204619997D01*
X123230735Y-204892228D01*
X123309707Y-205213090D01*
X123300151Y-205567645D01*
X123201434Y-205940949D01*
X123012923Y-206318062D01*
X122733983Y-206684043D01*
X122577574Y-206842259D01*
X122338666Y-207050672D01*
X122075883Y-207246930D01*
X121769164Y-207443247D01*
X121398450Y-207651833D01*
X120943678Y-207884899D01*
X120552588Y-208074884D01*
X120182591Y-208251731D01*
X119910948Y-208389838D01*
X119723075Y-208508546D01*
X119604386Y-208627199D01*
X119540298Y-208765139D01*
X119516225Y-208941709D01*
X119517582Y-209176251D01*
X119527773Y-209434001D01*
X119540501Y-209709750D01*
X119559507Y-209891036D01*
X119594558Y-210010347D01*
X119655420Y-210100169D01*
X119751857Y-210192993D01*
X119757416Y-210197963D01*
X119971069Y-210339368D01*
X120152072Y-210383210D01*
X120455177Y-210335995D01*
X120829774Y-210198066D01*
X121264542Y-209974999D01*
X121748163Y-209672368D01*
X122097736Y-209425023D01*
X122280622Y-209297508D01*
X122428739Y-209207916D01*
X122505774Y-209176710D01*
X122596843Y-209223986D01*
X122707323Y-209333647D01*
X122794271Y-209457443D01*
X122818177Y-209527708D01*
X122771273Y-209605700D01*
X122639737Y-209742920D01*
X122441528Y-209923735D01*
X122194604Y-210132512D01*
X121916924Y-210353618D01*
X121626445Y-210571418D01*
X121584441Y-210601717D01*
X121021613Y-210968794D01*
X120496004Y-211232512D01*
X119987245Y-211402699D01*
X119867540Y-211430266D01*
X119579428Y-211486512D01*
X119371280Y-211512035D01*
X119200289Y-211508612D01*
X119023646Y-211478019D01*
X118977211Y-211467205D01*
X118657994Y-211331913D01*
X118410976Y-211095831D01*
X118235748Y-210757910D01*
X118131903Y-210317104D01*
X118099032Y-209772363D01*
X118122628Y-209271960D01*
X118190341Y-208724824D01*
X118303099Y-208208668D01*
X118419756Y-207848440D01*
X119708790Y-207848440D01*
X119758509Y-207862254D01*
X119899443Y-207808956D01*
X120119252Y-207694961D01*
X120405600Y-207526683D01*
X120746149Y-207310536D01*
X120756540Y-207303730D01*
X121224321Y-206964750D01*
X121594785Y-206627381D01*
X121861184Y-206299624D01*
X122016767Y-205989486D01*
X122056895Y-205761545D01*
X122008830Y-205501216D01*
X121878444Y-205260862D01*
X121693777Y-205090261D01*
X121671982Y-205078215D01*
X121420988Y-205015717D01*
X121149512Y-205064220D01*
X120876387Y-205213965D01*
X120620445Y-205455189D01*
X120433156Y-205720270D01*
X120304180Y-205971258D01*
X120166426Y-206290526D01*
X120030261Y-206647618D01*
X119906051Y-207012081D01*
X119804160Y-207353460D01*
X119734955Y-207641300D01*
X119708802Y-207845147D01*
X119708790Y-207848440D01*
X118419756Y-207848440D01*
X118471527Y-207688578D01*
X118706248Y-207129643D01*
X118891781Y-206744171D01*
X119233099Y-206141774D01*
X119619574Y-205600285D01*
X120036331Y-205136444D01*
X120468493Y-204766990D01*
X120861965Y-204527238D01*
X121286965Y-204364880D01*
X121738553Y-204268648D01*
X122172994Y-204245237D01*
X122468989Y-204281200D01*
G37*
X122468989Y-204281200D02*
X122809742Y-204411341D01*
X123063869Y-204619997D01*
X123230735Y-204892228D01*
X123309707Y-205213090D01*
X123300151Y-205567645D01*
X123201434Y-205940949D01*
X123012923Y-206318062D01*
X122733983Y-206684043D01*
X122577574Y-206842259D01*
X122338666Y-207050672D01*
X122075883Y-207246930D01*
X121769164Y-207443247D01*
X121398450Y-207651833D01*
X120943678Y-207884899D01*
X120552588Y-208074884D01*
X120182591Y-208251731D01*
X119910948Y-208389838D01*
X119723075Y-208508546D01*
X119604386Y-208627199D01*
X119540298Y-208765139D01*
X119516225Y-208941709D01*
X119517582Y-209176251D01*
X119527773Y-209434001D01*
X119540501Y-209709750D01*
X119559507Y-209891036D01*
X119594558Y-210010347D01*
X119655420Y-210100169D01*
X119751857Y-210192993D01*
X119757416Y-210197963D01*
X119971069Y-210339368D01*
X120152072Y-210383210D01*
X120455177Y-210335995D01*
X120829774Y-210198066D01*
X121264542Y-209974999D01*
X121748163Y-209672368D01*
X122097736Y-209425023D01*
X122280622Y-209297508D01*
X122428739Y-209207916D01*
X122505774Y-209176710D01*
X122596843Y-209223986D01*
X122707323Y-209333647D01*
X122794271Y-209457443D01*
X122818177Y-209527708D01*
X122771273Y-209605700D01*
X122639737Y-209742920D01*
X122441528Y-209923735D01*
X122194604Y-210132512D01*
X121916924Y-210353618D01*
X121626445Y-210571418D01*
X121584441Y-210601717D01*
X121021613Y-210968794D01*
X120496004Y-211232512D01*
X119987245Y-211402699D01*
X119867540Y-211430266D01*
X119579428Y-211486512D01*
X119371280Y-211512035D01*
X119200289Y-211508612D01*
X119023646Y-211478019D01*
X118977211Y-211467205D01*
X118657994Y-211331913D01*
X118410976Y-211095831D01*
X118235748Y-210757910D01*
X118131903Y-210317104D01*
X118099032Y-209772363D01*
X118122628Y-209271960D01*
X118190341Y-208724824D01*
X118303099Y-208208668D01*
X118419756Y-207848440D01*
X119708790Y-207848440D01*
X119758509Y-207862254D01*
X119899443Y-207808956D01*
X120119252Y-207694961D01*
X120405600Y-207526683D01*
X120746149Y-207310536D01*
X120756540Y-207303730D01*
X121224321Y-206964750D01*
X121594785Y-206627381D01*
X121861184Y-206299624D01*
X122016767Y-205989486D01*
X122056895Y-205761545D01*
X122008830Y-205501216D01*
X121878444Y-205260862D01*
X121693777Y-205090261D01*
X121671982Y-205078215D01*
X121420988Y-205015717D01*
X121149512Y-205064220D01*
X120876387Y-205213965D01*
X120620445Y-205455189D01*
X120433156Y-205720270D01*
X120304180Y-205971258D01*
X120166426Y-206290526D01*
X120030261Y-206647618D01*
X119906051Y-207012081D01*
X119804160Y-207353460D01*
X119734955Y-207641300D01*
X119708802Y-207845147D01*
X119708790Y-207848440D01*
X118419756Y-207848440D01*
X118471527Y-207688578D01*
X118706248Y-207129643D01*
X118891781Y-206744171D01*
X119233099Y-206141774D01*
X119619574Y-205600285D01*
X120036331Y-205136444D01*
X120468493Y-204766990D01*
X120861965Y-204527238D01*
X121286965Y-204364880D01*
X121738553Y-204268648D01*
X122172994Y-204245237D01*
X122468989Y-204281200D01*
G36*
X113392954Y-204295940D02*
G01*
X113445448Y-204340818D01*
X113493387Y-204399934D01*
X113520476Y-204464686D01*
X113525367Y-204558751D01*
X113506713Y-204705805D01*
X113463167Y-204929525D01*
X113393563Y-205252757D01*
X113325446Y-205561981D01*
X113264255Y-205834185D01*
X113216498Y-206040786D01*
X113188682Y-206153201D01*
X113187958Y-206155747D01*
X113213724Y-206172469D01*
X113317947Y-206107893D01*
X113488953Y-205970191D01*
X113627182Y-205848248D01*
X114091795Y-205450300D01*
X114561506Y-205090210D01*
X115018685Y-204779106D01*
X115445705Y-204528113D01*
X115824938Y-204348359D01*
X116138755Y-204250971D01*
X116165166Y-204246303D01*
X116456479Y-204253879D01*
X116714190Y-204362040D01*
X116905801Y-204554208D01*
X116956224Y-204649842D01*
X117000753Y-204782461D01*
X117024705Y-204930931D01*
X117025650Y-205108944D01*
X117001157Y-205330193D01*
X116948795Y-205608371D01*
X116866133Y-205957170D01*
X116750742Y-206390283D01*
X116600190Y-206921403D01*
X116479523Y-207335210D01*
X116293204Y-207972872D01*
X116141283Y-208501821D01*
X116020710Y-208934697D01*
X115928437Y-209284140D01*
X115861413Y-209562792D01*
X115816590Y-209783291D01*
X115790919Y-209958280D01*
X115781349Y-210100397D01*
X115784407Y-210216648D01*
X115815607Y-210394081D01*
X115884422Y-210485263D01*
X116001929Y-210488779D01*
X116179204Y-210403214D01*
X116427322Y-210227151D01*
X116566722Y-210116658D01*
X116863088Y-209876149D01*
X117075977Y-209704922D01*
X117221701Y-209593698D01*
X117316569Y-209533200D01*
X117376892Y-209514149D01*
X117418980Y-209527266D01*
X117459145Y-209563274D01*
X117489072Y-209591978D01*
X117582891Y-209701604D01*
X117613290Y-209775761D01*
X117570425Y-209849676D01*
X117455995Y-209985771D01*
X117291244Y-210159531D01*
X117216415Y-210233699D01*
X116700076Y-210702933D01*
X116223478Y-211067131D01*
X115790128Y-211324482D01*
X115403531Y-211473175D01*
X115067194Y-211511399D01*
X114838489Y-211461961D01*
X114663480Y-211323789D01*
X114546649Y-211075829D01*
X114489422Y-210721906D01*
X114483578Y-210510210D01*
X114509054Y-210161133D01*
X114581850Y-209714187D01*
X114702937Y-209165090D01*
X114873282Y-208509564D01*
X115093857Y-207743329D01*
X115160109Y-207523616D01*
X115320847Y-206978108D01*
X115450646Y-206502281D01*
X115547044Y-206106804D01*
X115607577Y-205802346D01*
X115629783Y-205599577D01*
X115621561Y-205524767D01*
X115529084Y-205440807D01*
X115358730Y-205432766D01*
X115127492Y-205492128D01*
X114852362Y-205610382D01*
X114550334Y-205779012D01*
X114238399Y-205989507D01*
X113933551Y-206233351D01*
X113652782Y-206502033D01*
X113636615Y-206519247D01*
X113468948Y-206705938D01*
X113325298Y-206886564D01*
X113200035Y-207075829D01*
X113087529Y-207288438D01*
X112982150Y-207539097D01*
X112878267Y-207842510D01*
X112770252Y-208213383D01*
X112652472Y-208666419D01*
X112519299Y-209216325D01*
X112386958Y-209783158D01*
X112050079Y-211240460D01*
X111402684Y-211258556D01*
X111133430Y-211261398D01*
X110918952Y-211254747D01*
X110785835Y-211239970D01*
X110755290Y-211225254D01*
X110770345Y-211149102D01*
X110811929Y-210972061D01*
X110874670Y-210716170D01*
X110953196Y-210403469D01*
X111007344Y-210191158D01*
X111122433Y-209735895D01*
X111244986Y-209239507D01*
X111371379Y-208717749D01*
X111497989Y-208186381D01*
X111621193Y-207661159D01*
X111737366Y-207157842D01*
X111842885Y-206692186D01*
X111934127Y-206279950D01*
X112007468Y-205936891D01*
X112059286Y-205678767D01*
X112085955Y-205521335D01*
X112088790Y-205488224D01*
X112071639Y-205347503D01*
X112035451Y-205277740D01*
X111930126Y-205284633D01*
X111743329Y-205380538D01*
X111480611Y-205561967D01*
X111147524Y-205825433D01*
X111098208Y-205866478D01*
X110614713Y-206270997D01*
X110297131Y-205953415D01*
X110573835Y-205699709D01*
X110961760Y-205351533D01*
X111285949Y-205079384D01*
X111569139Y-204866276D01*
X111834068Y-204695223D01*
X112103473Y-204549240D01*
X112134179Y-204534070D01*
X112552705Y-204354324D01*
X112908418Y-204253776D01*
X113191706Y-204233843D01*
X113392954Y-204295940D01*
G37*
X113392954Y-204295940D02*
X113445448Y-204340818D01*
X113493387Y-204399934D01*
X113520476Y-204464686D01*
X113525367Y-204558751D01*
X113506713Y-204705805D01*
X113463167Y-204929525D01*
X113393563Y-205252757D01*
X113325446Y-205561981D01*
X113264255Y-205834185D01*
X113216498Y-206040786D01*
X113188682Y-206153201D01*
X113187958Y-206155747D01*
X113213724Y-206172469D01*
X113317947Y-206107893D01*
X113488953Y-205970191D01*
X113627182Y-205848248D01*
X114091795Y-205450300D01*
X114561506Y-205090210D01*
X115018685Y-204779106D01*
X115445705Y-204528113D01*
X115824938Y-204348359D01*
X116138755Y-204250971D01*
X116165166Y-204246303D01*
X116456479Y-204253879D01*
X116714190Y-204362040D01*
X116905801Y-204554208D01*
X116956224Y-204649842D01*
X117000753Y-204782461D01*
X117024705Y-204930931D01*
X117025650Y-205108944D01*
X117001157Y-205330193D01*
X116948795Y-205608371D01*
X116866133Y-205957170D01*
X116750742Y-206390283D01*
X116600190Y-206921403D01*
X116479523Y-207335210D01*
X116293204Y-207972872D01*
X116141283Y-208501821D01*
X116020710Y-208934697D01*
X115928437Y-209284140D01*
X115861413Y-209562792D01*
X115816590Y-209783291D01*
X115790919Y-209958280D01*
X115781349Y-210100397D01*
X115784407Y-210216648D01*
X115815607Y-210394081D01*
X115884422Y-210485263D01*
X116001929Y-210488779D01*
X116179204Y-210403214D01*
X116427322Y-210227151D01*
X116566722Y-210116658D01*
X116863088Y-209876149D01*
X117075977Y-209704922D01*
X117221701Y-209593698D01*
X117316569Y-209533200D01*
X117376892Y-209514149D01*
X117418980Y-209527266D01*
X117459145Y-209563274D01*
X117489072Y-209591978D01*
X117582891Y-209701604D01*
X117613290Y-209775761D01*
X117570425Y-209849676D01*
X117455995Y-209985771D01*
X117291244Y-210159531D01*
X117216415Y-210233699D01*
X116700076Y-210702933D01*
X116223478Y-211067131D01*
X115790128Y-211324482D01*
X115403531Y-211473175D01*
X115067194Y-211511399D01*
X114838489Y-211461961D01*
X114663480Y-211323789D01*
X114546649Y-211075829D01*
X114489422Y-210721906D01*
X114483578Y-210510210D01*
X114509054Y-210161133D01*
X114581850Y-209714187D01*
X114702937Y-209165090D01*
X114873282Y-208509564D01*
X115093857Y-207743329D01*
X115160109Y-207523616D01*
X115320847Y-206978108D01*
X115450646Y-206502281D01*
X115547044Y-206106804D01*
X115607577Y-205802346D01*
X115629783Y-205599577D01*
X115621561Y-205524767D01*
X115529084Y-205440807D01*
X115358730Y-205432766D01*
X115127492Y-205492128D01*
X114852362Y-205610382D01*
X114550334Y-205779012D01*
X114238399Y-205989507D01*
X113933551Y-206233351D01*
X113652782Y-206502033D01*
X113636615Y-206519247D01*
X113468948Y-206705938D01*
X113325298Y-206886564D01*
X113200035Y-207075829D01*
X113087529Y-207288438D01*
X112982150Y-207539097D01*
X112878267Y-207842510D01*
X112770252Y-208213383D01*
X112652472Y-208666419D01*
X112519299Y-209216325D01*
X112386958Y-209783158D01*
X112050079Y-211240460D01*
X111402684Y-211258556D01*
X111133430Y-211261398D01*
X110918952Y-211254747D01*
X110785835Y-211239970D01*
X110755290Y-211225254D01*
X110770345Y-211149102D01*
X110811929Y-210972061D01*
X110874670Y-210716170D01*
X110953196Y-210403469D01*
X111007344Y-210191158D01*
X111122433Y-209735895D01*
X111244986Y-209239507D01*
X111371379Y-208717749D01*
X111497989Y-208186381D01*
X111621193Y-207661159D01*
X111737366Y-207157842D01*
X111842885Y-206692186D01*
X111934127Y-206279950D01*
X112007468Y-205936891D01*
X112059286Y-205678767D01*
X112085955Y-205521335D01*
X112088790Y-205488224D01*
X112071639Y-205347503D01*
X112035451Y-205277740D01*
X111930126Y-205284633D01*
X111743329Y-205380538D01*
X111480611Y-205561967D01*
X111147524Y-205825433D01*
X111098208Y-205866478D01*
X110614713Y-206270997D01*
X110297131Y-205953415D01*
X110573835Y-205699709D01*
X110961760Y-205351533D01*
X111285949Y-205079384D01*
X111569139Y-204866276D01*
X111834068Y-204695223D01*
X112103473Y-204549240D01*
X112134179Y-204534070D01*
X112552705Y-204354324D01*
X112908418Y-204253776D01*
X113191706Y-204233843D01*
X113392954Y-204295940D01*
G36*
X108143957Y-204321097D02*
G01*
X108575696Y-204473183D01*
X108940293Y-204732948D01*
X109239036Y-205101213D01*
X109395319Y-205392149D01*
X109521836Y-205774712D01*
X109599357Y-206241584D01*
X109627194Y-206759621D01*
X109604663Y-207295679D01*
X109531074Y-207816614D01*
X109452314Y-208142574D01*
X109229066Y-208730265D01*
X108911328Y-209310165D01*
X108517113Y-209861820D01*
X108064436Y-210364775D01*
X107571311Y-210798574D01*
X107055753Y-211142764D01*
X106635048Y-211341456D01*
X106262227Y-211445103D01*
X105842580Y-211500876D01*
X105421641Y-211506903D01*
X105044946Y-211461313D01*
X104873843Y-211413819D01*
X104451172Y-211202112D01*
X104111686Y-210897695D01*
X103850814Y-210495783D01*
X103736071Y-210222723D01*
X103669007Y-209934939D01*
X103632649Y-209559193D01*
X103626499Y-209130630D01*
X103650059Y-208684396D01*
X103663713Y-208573460D01*
X105079283Y-208573460D01*
X105096561Y-209167414D01*
X105162741Y-209655276D01*
X105282192Y-210049887D01*
X105459285Y-210364092D01*
X105698392Y-210610734D01*
X105797316Y-210683323D01*
X106007964Y-210791871D01*
X106218783Y-210817412D01*
X106465630Y-210759653D01*
X106664703Y-210676223D01*
X107004456Y-210451865D01*
X107316263Y-210113800D01*
X107593433Y-209673531D01*
X107829274Y-209142560D01*
X108017093Y-208532390D01*
X108083775Y-208236959D01*
X108122660Y-207944317D01*
X108143731Y-207569060D01*
X108147302Y-207154271D01*
X108133691Y-206743032D01*
X108103211Y-206378429D01*
X108068541Y-206157025D01*
X107941685Y-205738337D01*
X107759096Y-205398011D01*
X107532001Y-205146818D01*
X107271629Y-204995531D01*
X106989208Y-204954921D01*
X106841583Y-204979941D01*
X106462537Y-205149838D01*
X106109371Y-205441534D01*
X105785080Y-205851906D01*
X105492654Y-206377833D01*
X105483745Y-206396771D01*
X105305255Y-206850015D01*
X105181804Y-207340324D01*
X105108286Y-207895167D01*
X105079599Y-208542017D01*
X105079283Y-208573460D01*
X103663713Y-208573460D01*
X103702833Y-208255637D01*
X103768402Y-207938460D01*
X104008412Y-207221161D01*
X104346317Y-206526559D01*
X104764360Y-205885170D01*
X105244784Y-205327509D01*
X105343154Y-205232125D01*
X105833156Y-204829765D01*
X106331534Y-204543892D01*
X106861492Y-204364862D01*
X107446233Y-204283031D01*
X107643790Y-204275869D01*
X108143957Y-204321097D01*
G37*
X108143957Y-204321097D02*
X108575696Y-204473183D01*
X108940293Y-204732948D01*
X109239036Y-205101213D01*
X109395319Y-205392149D01*
X109521836Y-205774712D01*
X109599357Y-206241584D01*
X109627194Y-206759621D01*
X109604663Y-207295679D01*
X109531074Y-207816614D01*
X109452314Y-208142574D01*
X109229066Y-208730265D01*
X108911328Y-209310165D01*
X108517113Y-209861820D01*
X108064436Y-210364775D01*
X107571311Y-210798574D01*
X107055753Y-211142764D01*
X106635048Y-211341456D01*
X106262227Y-211445103D01*
X105842580Y-211500876D01*
X105421641Y-211506903D01*
X105044946Y-211461313D01*
X104873843Y-211413819D01*
X104451172Y-211202112D01*
X104111686Y-210897695D01*
X103850814Y-210495783D01*
X103736071Y-210222723D01*
X103669007Y-209934939D01*
X103632649Y-209559193D01*
X103626499Y-209130630D01*
X103650059Y-208684396D01*
X103663713Y-208573460D01*
X105079283Y-208573460D01*
X105096561Y-209167414D01*
X105162741Y-209655276D01*
X105282192Y-210049887D01*
X105459285Y-210364092D01*
X105698392Y-210610734D01*
X105797316Y-210683323D01*
X106007964Y-210791871D01*
X106218783Y-210817412D01*
X106465630Y-210759653D01*
X106664703Y-210676223D01*
X107004456Y-210451865D01*
X107316263Y-210113800D01*
X107593433Y-209673531D01*
X107829274Y-209142560D01*
X108017093Y-208532390D01*
X108083775Y-208236959D01*
X108122660Y-207944317D01*
X108143731Y-207569060D01*
X108147302Y-207154271D01*
X108133691Y-206743032D01*
X108103211Y-206378429D01*
X108068541Y-206157025D01*
X107941685Y-205738337D01*
X107759096Y-205398011D01*
X107532001Y-205146818D01*
X107271629Y-204995531D01*
X106989208Y-204954921D01*
X106841583Y-204979941D01*
X106462537Y-205149838D01*
X106109371Y-205441534D01*
X105785080Y-205851906D01*
X105492654Y-206377833D01*
X105483745Y-206396771D01*
X105305255Y-206850015D01*
X105181804Y-207340324D01*
X105108286Y-207895167D01*
X105079599Y-208542017D01*
X105079283Y-208573460D01*
X103663713Y-208573460D01*
X103702833Y-208255637D01*
X103768402Y-207938460D01*
X104008412Y-207221161D01*
X104346317Y-206526559D01*
X104764360Y-205885170D01*
X105244784Y-205327509D01*
X105343154Y-205232125D01*
X105833156Y-204829765D01*
X106331534Y-204543892D01*
X106861492Y-204364862D01*
X107446233Y-204283031D01*
X107643790Y-204275869D01*
X108143957Y-204321097D01*
G36*
X103417059Y-201427188D02*
G01*
X103629195Y-201431563D01*
X103750558Y-201440735D01*
X103770290Y-201448240D01*
X103747795Y-201510873D01*
X103686915Y-201665995D01*
X103597559Y-201888637D01*
X103513219Y-202096158D01*
X103365298Y-202483419D01*
X103188653Y-202990677D01*
X102984364Y-203614472D01*
X102753511Y-204351350D01*
X102497175Y-205197851D01*
X102216435Y-206150519D01*
X101912371Y-207205897D01*
X101866492Y-207366960D01*
X101661591Y-208084322D01*
X101485855Y-208692023D01*
X101335091Y-209202942D01*
X101205104Y-209629957D01*
X101091700Y-209985947D01*
X100990684Y-210283793D01*
X100897862Y-210536371D01*
X100809040Y-210756562D01*
X100720024Y-210957245D01*
X100648425Y-211107162D01*
X100253001Y-211799944D01*
X99802033Y-212380378D01*
X99296534Y-212847525D01*
X98737514Y-213200448D01*
X98137796Y-213434854D01*
X97758798Y-213512934D01*
X97342595Y-213549382D01*
X96936387Y-213543203D01*
X96587375Y-213493403D01*
X96499540Y-213469384D01*
X96093227Y-213298877D01*
X95767486Y-213075529D01*
X95537475Y-212812676D01*
X95418355Y-212523655D01*
X95417118Y-212517218D01*
X95419757Y-212263182D01*
X95511172Y-212041341D01*
X95669291Y-211876838D01*
X95872044Y-211794817D01*
X96043661Y-211803429D01*
X96166443Y-211864582D01*
X96348387Y-211991251D01*
X96557597Y-212160422D01*
X96642510Y-212235509D01*
X97047690Y-212562939D01*
X97415962Y-212772043D01*
X97754028Y-212863772D01*
X98068586Y-212839079D01*
X98366336Y-212698914D01*
X98589094Y-212512171D01*
X98717345Y-212370507D01*
X98835346Y-212206410D01*
X98950650Y-212003542D01*
X99070809Y-211745567D01*
X99203378Y-211416148D01*
X99355908Y-210998948D01*
X99535952Y-210477631D01*
X99553122Y-210426943D01*
X99707337Y-209963636D01*
X99877326Y-209439670D01*
X100059710Y-208866475D01*
X100251108Y-208255481D01*
X100448141Y-207618118D01*
X100647429Y-206965818D01*
X100845591Y-206310008D01*
X101039247Y-205662121D01*
X101225017Y-205033586D01*
X101399521Y-204435833D01*
X101559380Y-203880292D01*
X101701212Y-203378393D01*
X101821638Y-202941567D01*
X101917277Y-202581244D01*
X101984751Y-202308854D01*
X102020677Y-202135827D01*
X102023121Y-202074375D01*
X101932577Y-202050673D01*
X101749008Y-202044560D01*
X101504843Y-202053856D01*
X101232509Y-202076382D01*
X100964433Y-202109956D01*
X100733045Y-202152400D01*
X100683642Y-202164424D01*
X100224426Y-202323464D01*
X99799776Y-202545205D01*
X99426006Y-202814664D01*
X99119431Y-203116861D01*
X98896365Y-203436814D01*
X98773122Y-203759540D01*
X98753790Y-203936630D01*
X98786501Y-204128434D01*
X98872622Y-204370110D01*
X98944290Y-204519598D01*
X99082804Y-204828380D01*
X99127501Y-205071694D01*
X99079139Y-205268835D01*
X98978926Y-205401346D01*
X98778517Y-205521102D01*
X98529146Y-205560284D01*
X98285130Y-205512217D01*
X98242272Y-205491827D01*
X98084368Y-205340770D01*
X97968244Y-205094837D01*
X97899796Y-204780975D01*
X97884920Y-204426134D01*
X97928967Y-204059896D01*
X98079631Y-203566177D01*
X98325061Y-203116330D01*
X98680983Y-202681548D01*
X98681793Y-202680698D01*
X99157188Y-202260991D01*
X99699135Y-201933171D01*
X100317983Y-201692593D01*
X101024086Y-201534613D01*
X101325540Y-201494365D01*
X101528064Y-201477332D01*
X101801071Y-201462053D01*
X102121522Y-201448963D01*
X102466383Y-201438497D01*
X102812617Y-201431090D01*
X103137188Y-201427175D01*
X103417059Y-201427188D01*
G37*
X103417059Y-201427188D02*
X103629195Y-201431563D01*
X103750558Y-201440735D01*
X103770290Y-201448240D01*
X103747795Y-201510873D01*
X103686915Y-201665995D01*
X103597559Y-201888637D01*
X103513219Y-202096158D01*
X103365298Y-202483419D01*
X103188653Y-202990677D01*
X102984364Y-203614472D01*
X102753511Y-204351350D01*
X102497175Y-205197851D01*
X102216435Y-206150519D01*
X101912371Y-207205897D01*
X101866492Y-207366960D01*
X101661591Y-208084322D01*
X101485855Y-208692023D01*
X101335091Y-209202942D01*
X101205104Y-209629957D01*
X101091700Y-209985947D01*
X100990684Y-210283793D01*
X100897862Y-210536371D01*
X100809040Y-210756562D01*
X100720024Y-210957245D01*
X100648425Y-211107162D01*
X100253001Y-211799944D01*
X99802033Y-212380378D01*
X99296534Y-212847525D01*
X98737514Y-213200448D01*
X98137796Y-213434854D01*
X97758798Y-213512934D01*
X97342595Y-213549382D01*
X96936387Y-213543203D01*
X96587375Y-213493403D01*
X96499540Y-213469384D01*
X96093227Y-213298877D01*
X95767486Y-213075529D01*
X95537475Y-212812676D01*
X95418355Y-212523655D01*
X95417118Y-212517218D01*
X95419757Y-212263182D01*
X95511172Y-212041341D01*
X95669291Y-211876838D01*
X95872044Y-211794817D01*
X96043661Y-211803429D01*
X96166443Y-211864582D01*
X96348387Y-211991251D01*
X96557597Y-212160422D01*
X96642510Y-212235509D01*
X97047690Y-212562939D01*
X97415962Y-212772043D01*
X97754028Y-212863772D01*
X98068586Y-212839079D01*
X98366336Y-212698914D01*
X98589094Y-212512171D01*
X98717345Y-212370507D01*
X98835346Y-212206410D01*
X98950650Y-212003542D01*
X99070809Y-211745567D01*
X99203378Y-211416148D01*
X99355908Y-210998948D01*
X99535952Y-210477631D01*
X99553122Y-210426943D01*
X99707337Y-209963636D01*
X99877326Y-209439670D01*
X100059710Y-208866475D01*
X100251108Y-208255481D01*
X100448141Y-207618118D01*
X100647429Y-206965818D01*
X100845591Y-206310008D01*
X101039247Y-205662121D01*
X101225017Y-205033586D01*
X101399521Y-204435833D01*
X101559380Y-203880292D01*
X101701212Y-203378393D01*
X101821638Y-202941567D01*
X101917277Y-202581244D01*
X101984751Y-202308854D01*
X102020677Y-202135827D01*
X102023121Y-202074375D01*
X101932577Y-202050673D01*
X101749008Y-202044560D01*
X101504843Y-202053856D01*
X101232509Y-202076382D01*
X100964433Y-202109956D01*
X100733045Y-202152400D01*
X100683642Y-202164424D01*
X100224426Y-202323464D01*
X99799776Y-202545205D01*
X99426006Y-202814664D01*
X99119431Y-203116861D01*
X98896365Y-203436814D01*
X98773122Y-203759540D01*
X98753790Y-203936630D01*
X98786501Y-204128434D01*
X98872622Y-204370110D01*
X98944290Y-204519598D01*
X99082804Y-204828380D01*
X99127501Y-205071694D01*
X99079139Y-205268835D01*
X98978926Y-205401346D01*
X98778517Y-205521102D01*
X98529146Y-205560284D01*
X98285130Y-205512217D01*
X98242272Y-205491827D01*
X98084368Y-205340770D01*
X97968244Y-205094837D01*
X97899796Y-204780975D01*
X97884920Y-204426134D01*
X97928967Y-204059896D01*
X98079631Y-203566177D01*
X98325061Y-203116330D01*
X98680983Y-202681548D01*
X98681793Y-202680698D01*
X99157188Y-202260991D01*
X99699135Y-201933171D01*
X100317983Y-201692593D01*
X101024086Y-201534613D01*
X101325540Y-201494365D01*
X101528064Y-201477332D01*
X101801071Y-201462053D01*
X102121522Y-201448963D01*
X102466383Y-201438497D01*
X102812617Y-201431090D01*
X103137188Y-201427175D01*
X103417059Y-201427188D01*
G36*
X91217284Y-166224989D02*
G01*
X91604634Y-166350121D01*
X91913518Y-166548964D01*
X92130297Y-166816390D01*
X92187845Y-166940571D01*
X92223152Y-167190869D01*
X92150713Y-167420566D01*
X91989703Y-167604504D01*
X91759295Y-167717524D01*
X91577792Y-167741050D01*
X91450856Y-167710702D01*
X91298427Y-167609578D01*
X91098800Y-167422560D01*
X91053605Y-167375924D01*
X90863891Y-167185290D01*
X90685959Y-167018879D01*
X90554568Y-166909020D01*
X90542011Y-166900093D01*
X90299898Y-166801096D01*
X90049903Y-166810694D01*
X89813398Y-166913900D01*
X89611757Y-167095724D01*
X89466350Y-167341177D01*
X89398549Y-167635270D01*
X89396170Y-167703713D01*
X89419563Y-167907213D01*
X89496052Y-168126051D01*
X89635098Y-168376437D01*
X89846164Y-168674580D01*
X90138712Y-169036689D01*
X90252009Y-169169800D01*
X90488905Y-169457312D01*
X90712365Y-169749773D01*
X90899828Y-170016249D01*
X91028738Y-170225803D01*
X91045143Y-170257424D01*
X91225246Y-170744971D01*
X91285763Y-171222528D01*
X91234104Y-171679556D01*
X91077683Y-172105516D01*
X90823910Y-172489869D01*
X90480198Y-172822076D01*
X90053959Y-173091598D01*
X89552605Y-173287895D01*
X88983548Y-173400429D01*
X88824670Y-173414719D01*
X88574682Y-173427078D01*
X88361570Y-173429158D01*
X88228187Y-173420632D01*
X88221420Y-173419303D01*
X88086647Y-173390721D01*
X87884897Y-173349126D01*
X87765734Y-173324920D01*
X87371714Y-173189344D01*
X87052375Y-172965145D01*
X86820840Y-172667421D01*
X86690231Y-172311269D01*
X86665670Y-172059345D01*
X86703296Y-171744425D01*
X86820703Y-171522028D01*
X87024684Y-171380746D01*
X87082624Y-171359162D01*
X87351912Y-171321236D01*
X87593448Y-171402394D01*
X87729295Y-171505917D01*
X87818818Y-171617390D01*
X87861851Y-171767224D01*
X87872170Y-171978022D01*
X87903024Y-172309580D01*
X88003321Y-172548638D01*
X88184662Y-172715762D01*
X88328272Y-172786533D01*
X88677758Y-172863608D01*
X89040646Y-172836246D01*
X89390245Y-172717345D01*
X89699861Y-172519809D01*
X89942804Y-172256538D01*
X90092380Y-171940433D01*
X90094445Y-171932883D01*
X90130700Y-171747917D01*
X90129607Y-171570586D01*
X90083180Y-171384925D01*
X89983434Y-171174965D01*
X89822386Y-170924739D01*
X89592048Y-170618278D01*
X89284437Y-170239615D01*
X89192656Y-170129564D01*
X88905380Y-169768585D01*
X88695072Y-169457316D01*
X88542380Y-169162688D01*
X88427955Y-168851635D01*
X88410280Y-168792559D01*
X88326881Y-168297436D01*
X88367495Y-167823382D01*
X88529778Y-167378750D01*
X88811380Y-166971893D01*
X88966730Y-166812357D01*
X89287759Y-166555093D01*
X89630678Y-166376331D01*
X90036334Y-166257274D01*
X90261736Y-166216370D01*
X90765106Y-166178697D01*
X91217284Y-166224989D01*
G37*
X91217284Y-166224989D02*
X91604634Y-166350121D01*
X91913518Y-166548964D01*
X92130297Y-166816390D01*
X92187845Y-166940571D01*
X92223152Y-167190869D01*
X92150713Y-167420566D01*
X91989703Y-167604504D01*
X91759295Y-167717524D01*
X91577792Y-167741050D01*
X91450856Y-167710702D01*
X91298427Y-167609578D01*
X91098800Y-167422560D01*
X91053605Y-167375924D01*
X90863891Y-167185290D01*
X90685959Y-167018879D01*
X90554568Y-166909020D01*
X90542011Y-166900093D01*
X90299898Y-166801096D01*
X90049903Y-166810694D01*
X89813398Y-166913900D01*
X89611757Y-167095724D01*
X89466350Y-167341177D01*
X89398549Y-167635270D01*
X89396170Y-167703713D01*
X89419563Y-167907213D01*
X89496052Y-168126051D01*
X89635098Y-168376437D01*
X89846164Y-168674580D01*
X90138712Y-169036689D01*
X90252009Y-169169800D01*
X90488905Y-169457312D01*
X90712365Y-169749773D01*
X90899828Y-170016249D01*
X91028738Y-170225803D01*
X91045143Y-170257424D01*
X91225246Y-170744971D01*
X91285763Y-171222528D01*
X91234104Y-171679556D01*
X91077683Y-172105516D01*
X90823910Y-172489869D01*
X90480198Y-172822076D01*
X90053959Y-173091598D01*
X89552605Y-173287895D01*
X88983548Y-173400429D01*
X88824670Y-173414719D01*
X88574682Y-173427078D01*
X88361570Y-173429158D01*
X88228187Y-173420632D01*
X88221420Y-173419303D01*
X88086647Y-173390721D01*
X87884897Y-173349126D01*
X87765734Y-173324920D01*
X87371714Y-173189344D01*
X87052375Y-172965145D01*
X86820840Y-172667421D01*
X86690231Y-172311269D01*
X86665670Y-172059345D01*
X86703296Y-171744425D01*
X86820703Y-171522028D01*
X87024684Y-171380746D01*
X87082624Y-171359162D01*
X87351912Y-171321236D01*
X87593448Y-171402394D01*
X87729295Y-171505917D01*
X87818818Y-171617390D01*
X87861851Y-171767224D01*
X87872170Y-171978022D01*
X87903024Y-172309580D01*
X88003321Y-172548638D01*
X88184662Y-172715762D01*
X88328272Y-172786533D01*
X88677758Y-172863608D01*
X89040646Y-172836246D01*
X89390245Y-172717345D01*
X89699861Y-172519809D01*
X89942804Y-172256538D01*
X90092380Y-171940433D01*
X90094445Y-171932883D01*
X90130700Y-171747917D01*
X90129607Y-171570586D01*
X90083180Y-171384925D01*
X89983434Y-171174965D01*
X89822386Y-170924739D01*
X89592048Y-170618278D01*
X89284437Y-170239615D01*
X89192656Y-170129564D01*
X88905380Y-169768585D01*
X88695072Y-169457316D01*
X88542380Y-169162688D01*
X88427955Y-168851635D01*
X88410280Y-168792559D01*
X88326881Y-168297436D01*
X88367495Y-167823382D01*
X88529778Y-167378750D01*
X88811380Y-166971893D01*
X88966730Y-166812357D01*
X89287759Y-166555093D01*
X89630678Y-166376331D01*
X90036334Y-166257274D01*
X90261736Y-166216370D01*
X90765106Y-166178697D01*
X91217284Y-166224989D01*
G36*
X85552369Y-166211040D02*
G01*
X85893122Y-166341181D01*
X86147249Y-166549837D01*
X86314115Y-166822068D01*
X86393087Y-167142930D01*
X86383531Y-167497485D01*
X86284814Y-167870789D01*
X86096303Y-168247902D01*
X85817363Y-168613883D01*
X85660954Y-168772099D01*
X85422046Y-168980512D01*
X85159263Y-169176770D01*
X84852544Y-169373087D01*
X84481830Y-169581673D01*
X84027058Y-169814739D01*
X83635968Y-170004724D01*
X83265971Y-170181571D01*
X82994328Y-170319678D01*
X82806455Y-170438386D01*
X82687766Y-170557039D01*
X82623678Y-170694979D01*
X82599605Y-170871549D01*
X82600962Y-171106091D01*
X82611153Y-171363841D01*
X82623881Y-171639590D01*
X82642887Y-171820876D01*
X82677938Y-171940187D01*
X82738800Y-172030009D01*
X82835237Y-172122833D01*
X82840796Y-172127803D01*
X83054449Y-172269208D01*
X83235452Y-172313050D01*
X83538557Y-172265835D01*
X83913154Y-172127906D01*
X84347922Y-171904839D01*
X84831543Y-171602208D01*
X85181116Y-171354863D01*
X85364002Y-171227348D01*
X85512119Y-171137756D01*
X85589154Y-171106550D01*
X85680223Y-171153826D01*
X85790703Y-171263487D01*
X85877651Y-171387283D01*
X85901557Y-171457548D01*
X85854653Y-171535540D01*
X85723117Y-171672760D01*
X85524908Y-171853575D01*
X85277984Y-172062352D01*
X85000304Y-172283458D01*
X84709825Y-172501258D01*
X84667821Y-172531557D01*
X84104993Y-172898634D01*
X83579384Y-173162352D01*
X83070625Y-173332539D01*
X82950920Y-173360106D01*
X82662808Y-173416352D01*
X82454660Y-173441875D01*
X82283669Y-173438452D01*
X82107026Y-173407859D01*
X82060591Y-173397045D01*
X81741374Y-173261753D01*
X81494356Y-173025671D01*
X81319128Y-172687750D01*
X81215283Y-172246944D01*
X81182412Y-171702203D01*
X81206008Y-171201800D01*
X81273721Y-170654664D01*
X81386479Y-170138508D01*
X81503136Y-169778280D01*
X82792170Y-169778280D01*
X82841889Y-169792094D01*
X82982823Y-169738796D01*
X83202632Y-169624801D01*
X83488980Y-169456523D01*
X83829529Y-169240376D01*
X83839920Y-169233570D01*
X84307701Y-168894590D01*
X84678165Y-168557221D01*
X84944564Y-168229464D01*
X85100147Y-167919326D01*
X85140275Y-167691385D01*
X85092210Y-167431056D01*
X84961824Y-167190702D01*
X84777157Y-167020101D01*
X84755362Y-167008055D01*
X84504368Y-166945557D01*
X84232892Y-166994060D01*
X83959767Y-167143805D01*
X83703825Y-167385029D01*
X83516536Y-167650110D01*
X83387560Y-167901098D01*
X83249806Y-168220366D01*
X83113641Y-168577458D01*
X82989431Y-168941921D01*
X82887540Y-169283300D01*
X82818335Y-169571140D01*
X82792182Y-169774987D01*
X82792170Y-169778280D01*
X81503136Y-169778280D01*
X81554907Y-169618418D01*
X81789628Y-169059483D01*
X81975161Y-168674011D01*
X82316479Y-168071614D01*
X82702954Y-167530125D01*
X83119711Y-167066284D01*
X83551873Y-166696830D01*
X83945345Y-166457078D01*
X84370345Y-166294720D01*
X84821933Y-166198488D01*
X85256374Y-166175077D01*
X85552369Y-166211040D01*
G37*
X85552369Y-166211040D02*
X85893122Y-166341181D01*
X86147249Y-166549837D01*
X86314115Y-166822068D01*
X86393087Y-167142930D01*
X86383531Y-167497485D01*
X86284814Y-167870789D01*
X86096303Y-168247902D01*
X85817363Y-168613883D01*
X85660954Y-168772099D01*
X85422046Y-168980512D01*
X85159263Y-169176770D01*
X84852544Y-169373087D01*
X84481830Y-169581673D01*
X84027058Y-169814739D01*
X83635968Y-170004724D01*
X83265971Y-170181571D01*
X82994328Y-170319678D01*
X82806455Y-170438386D01*
X82687766Y-170557039D01*
X82623678Y-170694979D01*
X82599605Y-170871549D01*
X82600962Y-171106091D01*
X82611153Y-171363841D01*
X82623881Y-171639590D01*
X82642887Y-171820876D01*
X82677938Y-171940187D01*
X82738800Y-172030009D01*
X82835237Y-172122833D01*
X82840796Y-172127803D01*
X83054449Y-172269208D01*
X83235452Y-172313050D01*
X83538557Y-172265835D01*
X83913154Y-172127906D01*
X84347922Y-171904839D01*
X84831543Y-171602208D01*
X85181116Y-171354863D01*
X85364002Y-171227348D01*
X85512119Y-171137756D01*
X85589154Y-171106550D01*
X85680223Y-171153826D01*
X85790703Y-171263487D01*
X85877651Y-171387283D01*
X85901557Y-171457548D01*
X85854653Y-171535540D01*
X85723117Y-171672760D01*
X85524908Y-171853575D01*
X85277984Y-172062352D01*
X85000304Y-172283458D01*
X84709825Y-172501258D01*
X84667821Y-172531557D01*
X84104993Y-172898634D01*
X83579384Y-173162352D01*
X83070625Y-173332539D01*
X82950920Y-173360106D01*
X82662808Y-173416352D01*
X82454660Y-173441875D01*
X82283669Y-173438452D01*
X82107026Y-173407859D01*
X82060591Y-173397045D01*
X81741374Y-173261753D01*
X81494356Y-173025671D01*
X81319128Y-172687750D01*
X81215283Y-172246944D01*
X81182412Y-171702203D01*
X81206008Y-171201800D01*
X81273721Y-170654664D01*
X81386479Y-170138508D01*
X81503136Y-169778280D01*
X82792170Y-169778280D01*
X82841889Y-169792094D01*
X82982823Y-169738796D01*
X83202632Y-169624801D01*
X83488980Y-169456523D01*
X83829529Y-169240376D01*
X83839920Y-169233570D01*
X84307701Y-168894590D01*
X84678165Y-168557221D01*
X84944564Y-168229464D01*
X85100147Y-167919326D01*
X85140275Y-167691385D01*
X85092210Y-167431056D01*
X84961824Y-167190702D01*
X84777157Y-167020101D01*
X84755362Y-167008055D01*
X84504368Y-166945557D01*
X84232892Y-166994060D01*
X83959767Y-167143805D01*
X83703825Y-167385029D01*
X83516536Y-167650110D01*
X83387560Y-167901098D01*
X83249806Y-168220366D01*
X83113641Y-168577458D01*
X82989431Y-168941921D01*
X82887540Y-169283300D01*
X82818335Y-169571140D01*
X82792182Y-169774987D01*
X82792170Y-169778280D01*
X81503136Y-169778280D01*
X81554907Y-169618418D01*
X81789628Y-169059483D01*
X81975161Y-168674011D01*
X82316479Y-168071614D01*
X82702954Y-167530125D01*
X83119711Y-167066284D01*
X83551873Y-166696830D01*
X83945345Y-166457078D01*
X84370345Y-166294720D01*
X84821933Y-166198488D01*
X85256374Y-166175077D01*
X85552369Y-166211040D01*
G36*
X76476334Y-166225780D02*
G01*
X76528828Y-166270658D01*
X76576767Y-166329774D01*
X76603856Y-166394526D01*
X76608747Y-166488591D01*
X76590093Y-166635645D01*
X76546547Y-166859365D01*
X76476943Y-167182597D01*
X76408826Y-167491821D01*
X76347635Y-167764025D01*
X76299878Y-167970626D01*
X76272062Y-168083041D01*
X76271338Y-168085587D01*
X76297104Y-168102309D01*
X76401327Y-168037733D01*
X76572333Y-167900031D01*
X76710562Y-167778088D01*
X77175175Y-167380140D01*
X77644886Y-167020050D01*
X78102065Y-166708946D01*
X78529085Y-166457953D01*
X78908318Y-166278199D01*
X79222135Y-166180811D01*
X79248546Y-166176143D01*
X79539859Y-166183719D01*
X79797570Y-166291880D01*
X79989181Y-166484048D01*
X80039604Y-166579682D01*
X80084133Y-166712301D01*
X80108085Y-166860771D01*
X80109030Y-167038784D01*
X80084537Y-167260033D01*
X80032175Y-167538211D01*
X79949513Y-167887010D01*
X79834122Y-168320123D01*
X79683570Y-168851243D01*
X79562903Y-169265050D01*
X79376584Y-169902712D01*
X79224663Y-170431661D01*
X79104090Y-170864537D01*
X79011817Y-171213980D01*
X78944793Y-171492632D01*
X78899970Y-171713131D01*
X78874299Y-171888120D01*
X78864729Y-172030237D01*
X78867787Y-172146488D01*
X78898987Y-172323921D01*
X78967802Y-172415103D01*
X79085309Y-172418619D01*
X79262584Y-172333054D01*
X79510702Y-172156991D01*
X79650102Y-172046498D01*
X79946468Y-171805989D01*
X80159357Y-171634762D01*
X80305081Y-171523538D01*
X80399949Y-171463040D01*
X80460272Y-171443989D01*
X80502360Y-171457106D01*
X80542525Y-171493114D01*
X80572452Y-171521818D01*
X80666271Y-171631444D01*
X80696670Y-171705601D01*
X80653805Y-171779516D01*
X80539375Y-171915611D01*
X80374624Y-172089371D01*
X80299795Y-172163539D01*
X79783456Y-172632773D01*
X79306858Y-172996971D01*
X78873508Y-173254322D01*
X78486911Y-173403015D01*
X78150574Y-173441239D01*
X77921869Y-173391801D01*
X77746860Y-173253629D01*
X77630029Y-173005669D01*
X77572802Y-172651746D01*
X77566958Y-172440050D01*
X77592434Y-172090973D01*
X77665230Y-171644027D01*
X77786317Y-171094930D01*
X77956662Y-170439404D01*
X78177237Y-169673169D01*
X78243489Y-169453456D01*
X78404227Y-168907948D01*
X78534026Y-168432121D01*
X78630424Y-168036644D01*
X78690957Y-167732186D01*
X78713163Y-167529417D01*
X78704941Y-167454607D01*
X78612464Y-167370647D01*
X78442110Y-167362606D01*
X78210872Y-167421968D01*
X77935742Y-167540222D01*
X77633714Y-167708852D01*
X77321779Y-167919347D01*
X77016931Y-168163191D01*
X76736162Y-168431873D01*
X76719995Y-168449087D01*
X76552328Y-168635778D01*
X76408678Y-168816404D01*
X76283415Y-169005669D01*
X76170909Y-169218278D01*
X76065530Y-169468937D01*
X75961647Y-169772350D01*
X75853632Y-170143223D01*
X75735852Y-170596259D01*
X75602679Y-171146165D01*
X75470338Y-171712998D01*
X75133459Y-173170300D01*
X74486064Y-173188396D01*
X74216810Y-173191238D01*
X74002332Y-173184587D01*
X73869215Y-173169810D01*
X73838670Y-173155094D01*
X73853725Y-173078942D01*
X73895309Y-172901901D01*
X73958050Y-172646010D01*
X74036576Y-172333309D01*
X74090724Y-172120998D01*
X74205813Y-171665735D01*
X74328366Y-171169347D01*
X74454759Y-170647589D01*
X74581369Y-170116221D01*
X74704573Y-169590999D01*
X74820746Y-169087682D01*
X74926265Y-168622026D01*
X75017507Y-168209790D01*
X75090848Y-167866731D01*
X75142666Y-167608607D01*
X75169335Y-167451175D01*
X75172170Y-167418064D01*
X75155019Y-167277343D01*
X75118831Y-167207580D01*
X75013506Y-167214473D01*
X74826709Y-167310378D01*
X74563991Y-167491807D01*
X74230904Y-167755273D01*
X74181588Y-167796318D01*
X73698093Y-168200837D01*
X73380511Y-167883255D01*
X73657215Y-167629549D01*
X74045140Y-167281373D01*
X74369329Y-167009224D01*
X74652519Y-166796116D01*
X74917448Y-166625063D01*
X75186853Y-166479080D01*
X75217559Y-166463910D01*
X75636085Y-166284164D01*
X75991798Y-166183616D01*
X76275086Y-166163683D01*
X76476334Y-166225780D01*
G37*
X76476334Y-166225780D02*
X76528828Y-166270658D01*
X76576767Y-166329774D01*
X76603856Y-166394526D01*
X76608747Y-166488591D01*
X76590093Y-166635645D01*
X76546547Y-166859365D01*
X76476943Y-167182597D01*
X76408826Y-167491821D01*
X76347635Y-167764025D01*
X76299878Y-167970626D01*
X76272062Y-168083041D01*
X76271338Y-168085587D01*
X76297104Y-168102309D01*
X76401327Y-168037733D01*
X76572333Y-167900031D01*
X76710562Y-167778088D01*
X77175175Y-167380140D01*
X77644886Y-167020050D01*
X78102065Y-166708946D01*
X78529085Y-166457953D01*
X78908318Y-166278199D01*
X79222135Y-166180811D01*
X79248546Y-166176143D01*
X79539859Y-166183719D01*
X79797570Y-166291880D01*
X79989181Y-166484048D01*
X80039604Y-166579682D01*
X80084133Y-166712301D01*
X80108085Y-166860771D01*
X80109030Y-167038784D01*
X80084537Y-167260033D01*
X80032175Y-167538211D01*
X79949513Y-167887010D01*
X79834122Y-168320123D01*
X79683570Y-168851243D01*
X79562903Y-169265050D01*
X79376584Y-169902712D01*
X79224663Y-170431661D01*
X79104090Y-170864537D01*
X79011817Y-171213980D01*
X78944793Y-171492632D01*
X78899970Y-171713131D01*
X78874299Y-171888120D01*
X78864729Y-172030237D01*
X78867787Y-172146488D01*
X78898987Y-172323921D01*
X78967802Y-172415103D01*
X79085309Y-172418619D01*
X79262584Y-172333054D01*
X79510702Y-172156991D01*
X79650102Y-172046498D01*
X79946468Y-171805989D01*
X80159357Y-171634762D01*
X80305081Y-171523538D01*
X80399949Y-171463040D01*
X80460272Y-171443989D01*
X80502360Y-171457106D01*
X80542525Y-171493114D01*
X80572452Y-171521818D01*
X80666271Y-171631444D01*
X80696670Y-171705601D01*
X80653805Y-171779516D01*
X80539375Y-171915611D01*
X80374624Y-172089371D01*
X80299795Y-172163539D01*
X79783456Y-172632773D01*
X79306858Y-172996971D01*
X78873508Y-173254322D01*
X78486911Y-173403015D01*
X78150574Y-173441239D01*
X77921869Y-173391801D01*
X77746860Y-173253629D01*
X77630029Y-173005669D01*
X77572802Y-172651746D01*
X77566958Y-172440050D01*
X77592434Y-172090973D01*
X77665230Y-171644027D01*
X77786317Y-171094930D01*
X77956662Y-170439404D01*
X78177237Y-169673169D01*
X78243489Y-169453456D01*
X78404227Y-168907948D01*
X78534026Y-168432121D01*
X78630424Y-168036644D01*
X78690957Y-167732186D01*
X78713163Y-167529417D01*
X78704941Y-167454607D01*
X78612464Y-167370647D01*
X78442110Y-167362606D01*
X78210872Y-167421968D01*
X77935742Y-167540222D01*
X77633714Y-167708852D01*
X77321779Y-167919347D01*
X77016931Y-168163191D01*
X76736162Y-168431873D01*
X76719995Y-168449087D01*
X76552328Y-168635778D01*
X76408678Y-168816404D01*
X76283415Y-169005669D01*
X76170909Y-169218278D01*
X76065530Y-169468937D01*
X75961647Y-169772350D01*
X75853632Y-170143223D01*
X75735852Y-170596259D01*
X75602679Y-171146165D01*
X75470338Y-171712998D01*
X75133459Y-173170300D01*
X74486064Y-173188396D01*
X74216810Y-173191238D01*
X74002332Y-173184587D01*
X73869215Y-173169810D01*
X73838670Y-173155094D01*
X73853725Y-173078942D01*
X73895309Y-172901901D01*
X73958050Y-172646010D01*
X74036576Y-172333309D01*
X74090724Y-172120998D01*
X74205813Y-171665735D01*
X74328366Y-171169347D01*
X74454759Y-170647589D01*
X74581369Y-170116221D01*
X74704573Y-169590999D01*
X74820746Y-169087682D01*
X74926265Y-168622026D01*
X75017507Y-168209790D01*
X75090848Y-167866731D01*
X75142666Y-167608607D01*
X75169335Y-167451175D01*
X75172170Y-167418064D01*
X75155019Y-167277343D01*
X75118831Y-167207580D01*
X75013506Y-167214473D01*
X74826709Y-167310378D01*
X74563991Y-167491807D01*
X74230904Y-167755273D01*
X74181588Y-167796318D01*
X73698093Y-168200837D01*
X73380511Y-167883255D01*
X73657215Y-167629549D01*
X74045140Y-167281373D01*
X74369329Y-167009224D01*
X74652519Y-166796116D01*
X74917448Y-166625063D01*
X75186853Y-166479080D01*
X75217559Y-166463910D01*
X75636085Y-166284164D01*
X75991798Y-166183616D01*
X76275086Y-166163683D01*
X76476334Y-166225780D01*
G36*
X71227337Y-166250937D02*
G01*
X71659076Y-166403023D01*
X72023673Y-166662788D01*
X72322416Y-167031053D01*
X72478699Y-167321989D01*
X72605216Y-167704552D01*
X72682737Y-168171424D01*
X72710574Y-168689461D01*
X72688043Y-169225519D01*
X72614454Y-169746454D01*
X72535694Y-170072414D01*
X72312446Y-170660105D01*
X71994708Y-171240005D01*
X71600493Y-171791660D01*
X71147816Y-172294615D01*
X70654691Y-172728414D01*
X70139133Y-173072604D01*
X69718428Y-173271296D01*
X69345607Y-173374943D01*
X68925960Y-173430716D01*
X68505021Y-173436743D01*
X68128326Y-173391153D01*
X67957223Y-173343659D01*
X67534552Y-173131952D01*
X67195066Y-172827535D01*
X66934194Y-172425623D01*
X66819451Y-172152563D01*
X66752387Y-171864779D01*
X66716029Y-171489033D01*
X66709879Y-171060470D01*
X66733439Y-170614236D01*
X66747093Y-170503300D01*
X68162663Y-170503300D01*
X68179941Y-171097254D01*
X68246121Y-171585116D01*
X68365572Y-171979727D01*
X68542665Y-172293932D01*
X68781772Y-172540574D01*
X68880696Y-172613163D01*
X69091344Y-172721711D01*
X69302163Y-172747252D01*
X69549010Y-172689493D01*
X69748083Y-172606063D01*
X70087836Y-172381705D01*
X70399643Y-172043640D01*
X70676813Y-171603371D01*
X70912654Y-171072400D01*
X71100473Y-170462230D01*
X71167155Y-170166799D01*
X71206040Y-169874157D01*
X71227111Y-169498900D01*
X71230682Y-169084111D01*
X71217071Y-168672872D01*
X71186591Y-168308269D01*
X71151921Y-168086865D01*
X71025065Y-167668177D01*
X70842476Y-167327851D01*
X70615381Y-167076658D01*
X70355009Y-166925371D01*
X70072588Y-166884761D01*
X69924963Y-166909781D01*
X69545917Y-167079678D01*
X69192751Y-167371374D01*
X68868460Y-167781746D01*
X68576034Y-168307673D01*
X68567125Y-168326611D01*
X68388635Y-168779855D01*
X68265184Y-169270164D01*
X68191666Y-169825007D01*
X68162979Y-170471857D01*
X68162663Y-170503300D01*
X66747093Y-170503300D01*
X66786213Y-170185477D01*
X66851782Y-169868300D01*
X67091792Y-169151001D01*
X67429697Y-168456399D01*
X67847740Y-167815010D01*
X68328164Y-167257349D01*
X68426534Y-167161965D01*
X68916536Y-166759605D01*
X69414914Y-166473732D01*
X69944872Y-166294702D01*
X70529613Y-166212871D01*
X70727170Y-166205709D01*
X71227337Y-166250937D01*
G37*
X71227337Y-166250937D02*
X71659076Y-166403023D01*
X72023673Y-166662788D01*
X72322416Y-167031053D01*
X72478699Y-167321989D01*
X72605216Y-167704552D01*
X72682737Y-168171424D01*
X72710574Y-168689461D01*
X72688043Y-169225519D01*
X72614454Y-169746454D01*
X72535694Y-170072414D01*
X72312446Y-170660105D01*
X71994708Y-171240005D01*
X71600493Y-171791660D01*
X71147816Y-172294615D01*
X70654691Y-172728414D01*
X70139133Y-173072604D01*
X69718428Y-173271296D01*
X69345607Y-173374943D01*
X68925960Y-173430716D01*
X68505021Y-173436743D01*
X68128326Y-173391153D01*
X67957223Y-173343659D01*
X67534552Y-173131952D01*
X67195066Y-172827535D01*
X66934194Y-172425623D01*
X66819451Y-172152563D01*
X66752387Y-171864779D01*
X66716029Y-171489033D01*
X66709879Y-171060470D01*
X66733439Y-170614236D01*
X66747093Y-170503300D01*
X68162663Y-170503300D01*
X68179941Y-171097254D01*
X68246121Y-171585116D01*
X68365572Y-171979727D01*
X68542665Y-172293932D01*
X68781772Y-172540574D01*
X68880696Y-172613163D01*
X69091344Y-172721711D01*
X69302163Y-172747252D01*
X69549010Y-172689493D01*
X69748083Y-172606063D01*
X70087836Y-172381705D01*
X70399643Y-172043640D01*
X70676813Y-171603371D01*
X70912654Y-171072400D01*
X71100473Y-170462230D01*
X71167155Y-170166799D01*
X71206040Y-169874157D01*
X71227111Y-169498900D01*
X71230682Y-169084111D01*
X71217071Y-168672872D01*
X71186591Y-168308269D01*
X71151921Y-168086865D01*
X71025065Y-167668177D01*
X70842476Y-167327851D01*
X70615381Y-167076658D01*
X70355009Y-166925371D01*
X70072588Y-166884761D01*
X69924963Y-166909781D01*
X69545917Y-167079678D01*
X69192751Y-167371374D01*
X68868460Y-167781746D01*
X68576034Y-168307673D01*
X68567125Y-168326611D01*
X68388635Y-168779855D01*
X68265184Y-169270164D01*
X68191666Y-169825007D01*
X68162979Y-170471857D01*
X68162663Y-170503300D01*
X66747093Y-170503300D01*
X66786213Y-170185477D01*
X66851782Y-169868300D01*
X67091792Y-169151001D01*
X67429697Y-168456399D01*
X67847740Y-167815010D01*
X68328164Y-167257349D01*
X68426534Y-167161965D01*
X68916536Y-166759605D01*
X69414914Y-166473732D01*
X69944872Y-166294702D01*
X70529613Y-166212871D01*
X70727170Y-166205709D01*
X71227337Y-166250937D01*
G36*
X66500439Y-163357028D02*
G01*
X66712575Y-163361403D01*
X66833938Y-163370575D01*
X66853670Y-163378080D01*
X66831175Y-163440713D01*
X66770295Y-163595835D01*
X66680939Y-163818477D01*
X66596599Y-164025998D01*
X66448678Y-164413259D01*
X66272033Y-164920517D01*
X66067744Y-165544312D01*
X65836891Y-166281190D01*
X65580555Y-167127691D01*
X65299815Y-168080359D01*
X64995751Y-169135737D01*
X64949872Y-169296800D01*
X64744971Y-170014162D01*
X64569235Y-170621863D01*
X64418471Y-171132782D01*
X64288484Y-171559797D01*
X64175080Y-171915787D01*
X64074064Y-172213633D01*
X63981242Y-172466211D01*
X63892420Y-172686402D01*
X63803404Y-172887085D01*
X63731805Y-173037002D01*
X63336381Y-173729784D01*
X62885413Y-174310218D01*
X62379914Y-174777365D01*
X61820894Y-175130288D01*
X61221176Y-175364694D01*
X60842178Y-175442774D01*
X60425975Y-175479222D01*
X60019767Y-175473043D01*
X59670755Y-175423243D01*
X59582920Y-175399224D01*
X59176607Y-175228717D01*
X58850866Y-175005369D01*
X58620855Y-174742516D01*
X58501735Y-174453495D01*
X58500498Y-174447058D01*
X58503137Y-174193022D01*
X58594552Y-173971181D01*
X58752671Y-173806678D01*
X58955424Y-173724657D01*
X59127041Y-173733269D01*
X59249823Y-173794422D01*
X59431767Y-173921091D01*
X59640977Y-174090262D01*
X59725890Y-174165349D01*
X60131070Y-174492779D01*
X60499342Y-174701883D01*
X60837408Y-174793612D01*
X61151966Y-174768919D01*
X61449716Y-174628754D01*
X61672474Y-174442011D01*
X61800725Y-174300347D01*
X61918726Y-174136250D01*
X62034030Y-173933382D01*
X62154189Y-173675407D01*
X62286758Y-173345988D01*
X62439288Y-172928788D01*
X62619332Y-172407471D01*
X62636502Y-172356783D01*
X62790717Y-171893476D01*
X62960706Y-171369510D01*
X63143090Y-170796315D01*
X63334488Y-170185321D01*
X63531521Y-169547958D01*
X63730809Y-168895658D01*
X63928971Y-168239848D01*
X64122627Y-167591961D01*
X64308397Y-166963426D01*
X64482901Y-166365673D01*
X64642760Y-165810132D01*
X64784592Y-165308233D01*
X64905018Y-164871407D01*
X65000657Y-164511084D01*
X65068131Y-164238694D01*
X65104057Y-164065667D01*
X65106501Y-164004215D01*
X65015957Y-163980513D01*
X64832388Y-163974400D01*
X64588223Y-163983696D01*
X64315889Y-164006222D01*
X64047813Y-164039796D01*
X63816425Y-164082240D01*
X63767022Y-164094264D01*
X63307806Y-164253304D01*
X62883156Y-164475045D01*
X62509386Y-164744504D01*
X62202811Y-165046701D01*
X61979745Y-165366654D01*
X61856502Y-165689380D01*
X61837170Y-165866470D01*
X61869881Y-166058274D01*
X61956002Y-166299950D01*
X62027670Y-166449438D01*
X62166184Y-166758220D01*
X62210881Y-167001534D01*
X62162519Y-167198675D01*
X62062306Y-167331186D01*
X61861897Y-167450942D01*
X61612526Y-167490124D01*
X61368510Y-167442057D01*
X61325652Y-167421667D01*
X61167748Y-167270610D01*
X61051624Y-167024677D01*
X60983176Y-166710815D01*
X60968300Y-166355974D01*
X61012347Y-165989736D01*
X61163011Y-165496017D01*
X61408441Y-165046170D01*
X61764363Y-164611388D01*
X61765173Y-164610538D01*
X62240568Y-164190831D01*
X62782515Y-163863011D01*
X63401363Y-163622433D01*
X64107466Y-163464453D01*
X64408920Y-163424205D01*
X64611444Y-163407172D01*
X64884451Y-163391893D01*
X65204902Y-163378803D01*
X65549763Y-163368337D01*
X65895997Y-163360930D01*
X66220568Y-163357015D01*
X66500439Y-163357028D01*
G37*
X66500439Y-163357028D02*
X66712575Y-163361403D01*
X66833938Y-163370575D01*
X66853670Y-163378080D01*
X66831175Y-163440713D01*
X66770295Y-163595835D01*
X66680939Y-163818477D01*
X66596599Y-164025998D01*
X66448678Y-164413259D01*
X66272033Y-164920517D01*
X66067744Y-165544312D01*
X65836891Y-166281190D01*
X65580555Y-167127691D01*
X65299815Y-168080359D01*
X64995751Y-169135737D01*
X64949872Y-169296800D01*
X64744971Y-170014162D01*
X64569235Y-170621863D01*
X64418471Y-171132782D01*
X64288484Y-171559797D01*
X64175080Y-171915787D01*
X64074064Y-172213633D01*
X63981242Y-172466211D01*
X63892420Y-172686402D01*
X63803404Y-172887085D01*
X63731805Y-173037002D01*
X63336381Y-173729784D01*
X62885413Y-174310218D01*
X62379914Y-174777365D01*
X61820894Y-175130288D01*
X61221176Y-175364694D01*
X60842178Y-175442774D01*
X60425975Y-175479222D01*
X60019767Y-175473043D01*
X59670755Y-175423243D01*
X59582920Y-175399224D01*
X59176607Y-175228717D01*
X58850866Y-175005369D01*
X58620855Y-174742516D01*
X58501735Y-174453495D01*
X58500498Y-174447058D01*
X58503137Y-174193022D01*
X58594552Y-173971181D01*
X58752671Y-173806678D01*
X58955424Y-173724657D01*
X59127041Y-173733269D01*
X59249823Y-173794422D01*
X59431767Y-173921091D01*
X59640977Y-174090262D01*
X59725890Y-174165349D01*
X60131070Y-174492779D01*
X60499342Y-174701883D01*
X60837408Y-174793612D01*
X61151966Y-174768919D01*
X61449716Y-174628754D01*
X61672474Y-174442011D01*
X61800725Y-174300347D01*
X61918726Y-174136250D01*
X62034030Y-173933382D01*
X62154189Y-173675407D01*
X62286758Y-173345988D01*
X62439288Y-172928788D01*
X62619332Y-172407471D01*
X62636502Y-172356783D01*
X62790717Y-171893476D01*
X62960706Y-171369510D01*
X63143090Y-170796315D01*
X63334488Y-170185321D01*
X63531521Y-169547958D01*
X63730809Y-168895658D01*
X63928971Y-168239848D01*
X64122627Y-167591961D01*
X64308397Y-166963426D01*
X64482901Y-166365673D01*
X64642760Y-165810132D01*
X64784592Y-165308233D01*
X64905018Y-164871407D01*
X65000657Y-164511084D01*
X65068131Y-164238694D01*
X65104057Y-164065667D01*
X65106501Y-164004215D01*
X65015957Y-163980513D01*
X64832388Y-163974400D01*
X64588223Y-163983696D01*
X64315889Y-164006222D01*
X64047813Y-164039796D01*
X63816425Y-164082240D01*
X63767022Y-164094264D01*
X63307806Y-164253304D01*
X62883156Y-164475045D01*
X62509386Y-164744504D01*
X62202811Y-165046701D01*
X61979745Y-165366654D01*
X61856502Y-165689380D01*
X61837170Y-165866470D01*
X61869881Y-166058274D01*
X61956002Y-166299950D01*
X62027670Y-166449438D01*
X62166184Y-166758220D01*
X62210881Y-167001534D01*
X62162519Y-167198675D01*
X62062306Y-167331186D01*
X61861897Y-167450942D01*
X61612526Y-167490124D01*
X61368510Y-167442057D01*
X61325652Y-167421667D01*
X61167748Y-167270610D01*
X61051624Y-167024677D01*
X60983176Y-166710815D01*
X60968300Y-166355974D01*
X61012347Y-165989736D01*
X61163011Y-165496017D01*
X61408441Y-165046170D01*
X61764363Y-164611388D01*
X61765173Y-164610538D01*
X62240568Y-164190831D01*
X62782515Y-163863011D01*
X63401363Y-163622433D01*
X64107466Y-163464453D01*
X64408920Y-163424205D01*
X64611444Y-163407172D01*
X64884451Y-163391893D01*
X65204902Y-163378803D01*
X65549763Y-163368337D01*
X65895997Y-163360930D01*
X66220568Y-163357015D01*
X66500439Y-163357028D01*
G36*
X128137204Y-185265069D02*
G01*
X128524554Y-185390201D01*
X128833438Y-185589044D01*
X129050217Y-185856470D01*
X129107765Y-185980651D01*
X129143072Y-186230949D01*
X129070633Y-186460646D01*
X128909623Y-186644584D01*
X128679215Y-186757604D01*
X128497712Y-186781130D01*
X128370776Y-186750782D01*
X128218347Y-186649658D01*
X128018720Y-186462640D01*
X127973525Y-186416004D01*
X127783811Y-186225370D01*
X127605879Y-186058959D01*
X127474488Y-185949100D01*
X127461931Y-185940173D01*
X127219818Y-185841176D01*
X126969823Y-185850774D01*
X126733318Y-185953980D01*
X126531677Y-186135804D01*
X126386270Y-186381257D01*
X126318469Y-186675350D01*
X126316090Y-186743793D01*
X126339483Y-186947293D01*
X126415972Y-187166131D01*
X126555018Y-187416517D01*
X126766084Y-187714660D01*
X127058632Y-188076769D01*
X127171929Y-188209880D01*
X127408825Y-188497392D01*
X127632285Y-188789853D01*
X127819748Y-189056329D01*
X127948658Y-189265883D01*
X127965063Y-189297504D01*
X128145166Y-189785051D01*
X128205683Y-190262608D01*
X128154024Y-190719636D01*
X127997603Y-191145596D01*
X127743830Y-191529949D01*
X127400118Y-191862156D01*
X126973879Y-192131678D01*
X126472525Y-192327975D01*
X125903468Y-192440509D01*
X125744590Y-192454799D01*
X125494602Y-192467158D01*
X125281490Y-192469238D01*
X125148107Y-192460712D01*
X125141340Y-192459383D01*
X125006567Y-192430801D01*
X124804817Y-192389206D01*
X124685654Y-192365000D01*
X124291634Y-192229424D01*
X123972295Y-192005225D01*
X123740760Y-191707501D01*
X123610151Y-191351349D01*
X123585590Y-191099425D01*
X123623216Y-190784505D01*
X123740623Y-190562108D01*
X123944604Y-190420826D01*
X124002544Y-190399242D01*
X124271832Y-190361316D01*
X124513368Y-190442474D01*
X124649215Y-190545997D01*
X124738738Y-190657470D01*
X124781771Y-190807304D01*
X124792090Y-191018102D01*
X124822944Y-191349660D01*
X124923241Y-191588718D01*
X125104582Y-191755842D01*
X125248192Y-191826613D01*
X125597678Y-191903688D01*
X125960566Y-191876326D01*
X126310165Y-191757425D01*
X126619781Y-191559889D01*
X126862724Y-191296618D01*
X127012300Y-190980513D01*
X127014365Y-190972963D01*
X127050620Y-190787997D01*
X127049527Y-190610666D01*
X127003100Y-190425005D01*
X126903354Y-190215045D01*
X126742306Y-189964819D01*
X126511968Y-189658358D01*
X126204357Y-189279695D01*
X126112576Y-189169644D01*
X125825300Y-188808665D01*
X125614992Y-188497396D01*
X125462300Y-188202768D01*
X125347875Y-187891715D01*
X125330200Y-187832639D01*
X125246801Y-187337516D01*
X125287415Y-186863462D01*
X125449698Y-186418830D01*
X125731300Y-186011973D01*
X125886650Y-185852437D01*
X126207679Y-185595173D01*
X126550598Y-185416411D01*
X126956254Y-185297354D01*
X127181656Y-185256450D01*
X127685026Y-185218777D01*
X128137204Y-185265069D01*
G37*
X128137204Y-185265069D02*
X128524554Y-185390201D01*
X128833438Y-185589044D01*
X129050217Y-185856470D01*
X129107765Y-185980651D01*
X129143072Y-186230949D01*
X129070633Y-186460646D01*
X128909623Y-186644584D01*
X128679215Y-186757604D01*
X128497712Y-186781130D01*
X128370776Y-186750782D01*
X128218347Y-186649658D01*
X128018720Y-186462640D01*
X127973525Y-186416004D01*
X127783811Y-186225370D01*
X127605879Y-186058959D01*
X127474488Y-185949100D01*
X127461931Y-185940173D01*
X127219818Y-185841176D01*
X126969823Y-185850774D01*
X126733318Y-185953980D01*
X126531677Y-186135804D01*
X126386270Y-186381257D01*
X126318469Y-186675350D01*
X126316090Y-186743793D01*
X126339483Y-186947293D01*
X126415972Y-187166131D01*
X126555018Y-187416517D01*
X126766084Y-187714660D01*
X127058632Y-188076769D01*
X127171929Y-188209880D01*
X127408825Y-188497392D01*
X127632285Y-188789853D01*
X127819748Y-189056329D01*
X127948658Y-189265883D01*
X127965063Y-189297504D01*
X128145166Y-189785051D01*
X128205683Y-190262608D01*
X128154024Y-190719636D01*
X127997603Y-191145596D01*
X127743830Y-191529949D01*
X127400118Y-191862156D01*
X126973879Y-192131678D01*
X126472525Y-192327975D01*
X125903468Y-192440509D01*
X125744590Y-192454799D01*
X125494602Y-192467158D01*
X125281490Y-192469238D01*
X125148107Y-192460712D01*
X125141340Y-192459383D01*
X125006567Y-192430801D01*
X124804817Y-192389206D01*
X124685654Y-192365000D01*
X124291634Y-192229424D01*
X123972295Y-192005225D01*
X123740760Y-191707501D01*
X123610151Y-191351349D01*
X123585590Y-191099425D01*
X123623216Y-190784505D01*
X123740623Y-190562108D01*
X123944604Y-190420826D01*
X124002544Y-190399242D01*
X124271832Y-190361316D01*
X124513368Y-190442474D01*
X124649215Y-190545997D01*
X124738738Y-190657470D01*
X124781771Y-190807304D01*
X124792090Y-191018102D01*
X124822944Y-191349660D01*
X124923241Y-191588718D01*
X125104582Y-191755842D01*
X125248192Y-191826613D01*
X125597678Y-191903688D01*
X125960566Y-191876326D01*
X126310165Y-191757425D01*
X126619781Y-191559889D01*
X126862724Y-191296618D01*
X127012300Y-190980513D01*
X127014365Y-190972963D01*
X127050620Y-190787997D01*
X127049527Y-190610666D01*
X127003100Y-190425005D01*
X126903354Y-190215045D01*
X126742306Y-189964819D01*
X126511968Y-189658358D01*
X126204357Y-189279695D01*
X126112576Y-189169644D01*
X125825300Y-188808665D01*
X125614992Y-188497396D01*
X125462300Y-188202768D01*
X125347875Y-187891715D01*
X125330200Y-187832639D01*
X125246801Y-187337516D01*
X125287415Y-186863462D01*
X125449698Y-186418830D01*
X125731300Y-186011973D01*
X125886650Y-185852437D01*
X126207679Y-185595173D01*
X126550598Y-185416411D01*
X126956254Y-185297354D01*
X127181656Y-185256450D01*
X127685026Y-185218777D01*
X128137204Y-185265069D01*
G36*
X122472289Y-185251120D02*
G01*
X122813042Y-185381261D01*
X123067169Y-185589917D01*
X123234035Y-185862148D01*
X123313007Y-186183010D01*
X123303451Y-186537565D01*
X123204734Y-186910869D01*
X123016223Y-187287982D01*
X122737283Y-187653963D01*
X122580874Y-187812179D01*
X122341966Y-188020592D01*
X122079183Y-188216850D01*
X121772464Y-188413167D01*
X121401750Y-188621753D01*
X120946978Y-188854819D01*
X120555888Y-189044804D01*
X120185891Y-189221651D01*
X119914248Y-189359758D01*
X119726375Y-189478466D01*
X119607686Y-189597119D01*
X119543598Y-189735059D01*
X119519525Y-189911629D01*
X119520882Y-190146171D01*
X119531073Y-190403921D01*
X119543801Y-190679670D01*
X119562807Y-190860956D01*
X119597858Y-190980267D01*
X119658720Y-191070089D01*
X119755157Y-191162913D01*
X119760716Y-191167883D01*
X119974369Y-191309288D01*
X120155372Y-191353130D01*
X120458477Y-191305915D01*
X120833074Y-191167986D01*
X121267842Y-190944919D01*
X121751463Y-190642288D01*
X122101036Y-190394943D01*
X122283922Y-190267428D01*
X122432039Y-190177836D01*
X122509074Y-190146630D01*
X122600143Y-190193906D01*
X122710623Y-190303567D01*
X122797571Y-190427363D01*
X122821477Y-190497628D01*
X122774573Y-190575620D01*
X122643037Y-190712840D01*
X122444828Y-190893655D01*
X122197904Y-191102432D01*
X121920224Y-191323538D01*
X121629745Y-191541338D01*
X121587741Y-191571637D01*
X121024913Y-191938714D01*
X120499304Y-192202432D01*
X119990545Y-192372619D01*
X119870840Y-192400186D01*
X119582728Y-192456432D01*
X119374580Y-192481955D01*
X119203589Y-192478532D01*
X119026946Y-192447939D01*
X118980511Y-192437125D01*
X118661294Y-192301833D01*
X118414276Y-192065751D01*
X118239048Y-191727830D01*
X118135203Y-191287024D01*
X118102332Y-190742283D01*
X118125928Y-190241880D01*
X118193641Y-189694744D01*
X118306399Y-189178588D01*
X118423056Y-188818360D01*
X119712090Y-188818360D01*
X119761809Y-188832174D01*
X119902743Y-188778876D01*
X120122552Y-188664881D01*
X120408900Y-188496603D01*
X120749449Y-188280456D01*
X120759840Y-188273650D01*
X121227621Y-187934670D01*
X121598085Y-187597301D01*
X121864484Y-187269544D01*
X122020067Y-186959406D01*
X122060195Y-186731465D01*
X122012130Y-186471136D01*
X121881744Y-186230782D01*
X121697077Y-186060181D01*
X121675282Y-186048135D01*
X121424288Y-185985637D01*
X121152812Y-186034140D01*
X120879687Y-186183885D01*
X120623745Y-186425109D01*
X120436456Y-186690190D01*
X120307480Y-186941178D01*
X120169726Y-187260446D01*
X120033561Y-187617538D01*
X119909351Y-187982001D01*
X119807460Y-188323380D01*
X119738255Y-188611220D01*
X119712102Y-188815067D01*
X119712090Y-188818360D01*
X118423056Y-188818360D01*
X118474827Y-188658498D01*
X118709548Y-188099563D01*
X118895081Y-187714091D01*
X119236399Y-187111694D01*
X119622874Y-186570205D01*
X120039631Y-186106364D01*
X120471793Y-185736910D01*
X120865265Y-185497158D01*
X121290265Y-185334800D01*
X121741853Y-185238568D01*
X122176294Y-185215157D01*
X122472289Y-185251120D01*
G37*
X122472289Y-185251120D02*
X122813042Y-185381261D01*
X123067169Y-185589917D01*
X123234035Y-185862148D01*
X123313007Y-186183010D01*
X123303451Y-186537565D01*
X123204734Y-186910869D01*
X123016223Y-187287982D01*
X122737283Y-187653963D01*
X122580874Y-187812179D01*
X122341966Y-188020592D01*
X122079183Y-188216850D01*
X121772464Y-188413167D01*
X121401750Y-188621753D01*
X120946978Y-188854819D01*
X120555888Y-189044804D01*
X120185891Y-189221651D01*
X119914248Y-189359758D01*
X119726375Y-189478466D01*
X119607686Y-189597119D01*
X119543598Y-189735059D01*
X119519525Y-189911629D01*
X119520882Y-190146171D01*
X119531073Y-190403921D01*
X119543801Y-190679670D01*
X119562807Y-190860956D01*
X119597858Y-190980267D01*
X119658720Y-191070089D01*
X119755157Y-191162913D01*
X119760716Y-191167883D01*
X119974369Y-191309288D01*
X120155372Y-191353130D01*
X120458477Y-191305915D01*
X120833074Y-191167986D01*
X121267842Y-190944919D01*
X121751463Y-190642288D01*
X122101036Y-190394943D01*
X122283922Y-190267428D01*
X122432039Y-190177836D01*
X122509074Y-190146630D01*
X122600143Y-190193906D01*
X122710623Y-190303567D01*
X122797571Y-190427363D01*
X122821477Y-190497628D01*
X122774573Y-190575620D01*
X122643037Y-190712840D01*
X122444828Y-190893655D01*
X122197904Y-191102432D01*
X121920224Y-191323538D01*
X121629745Y-191541338D01*
X121587741Y-191571637D01*
X121024913Y-191938714D01*
X120499304Y-192202432D01*
X119990545Y-192372619D01*
X119870840Y-192400186D01*
X119582728Y-192456432D01*
X119374580Y-192481955D01*
X119203589Y-192478532D01*
X119026946Y-192447939D01*
X118980511Y-192437125D01*
X118661294Y-192301833D01*
X118414276Y-192065751D01*
X118239048Y-191727830D01*
X118135203Y-191287024D01*
X118102332Y-190742283D01*
X118125928Y-190241880D01*
X118193641Y-189694744D01*
X118306399Y-189178588D01*
X118423056Y-188818360D01*
X119712090Y-188818360D01*
X119761809Y-188832174D01*
X119902743Y-188778876D01*
X120122552Y-188664881D01*
X120408900Y-188496603D01*
X120749449Y-188280456D01*
X120759840Y-188273650D01*
X121227621Y-187934670D01*
X121598085Y-187597301D01*
X121864484Y-187269544D01*
X122020067Y-186959406D01*
X122060195Y-186731465D01*
X122012130Y-186471136D01*
X121881744Y-186230782D01*
X121697077Y-186060181D01*
X121675282Y-186048135D01*
X121424288Y-185985637D01*
X121152812Y-186034140D01*
X120879687Y-186183885D01*
X120623745Y-186425109D01*
X120436456Y-186690190D01*
X120307480Y-186941178D01*
X120169726Y-187260446D01*
X120033561Y-187617538D01*
X119909351Y-187982001D01*
X119807460Y-188323380D01*
X119738255Y-188611220D01*
X119712102Y-188815067D01*
X119712090Y-188818360D01*
X118423056Y-188818360D01*
X118474827Y-188658498D01*
X118709548Y-188099563D01*
X118895081Y-187714091D01*
X119236399Y-187111694D01*
X119622874Y-186570205D01*
X120039631Y-186106364D01*
X120471793Y-185736910D01*
X120865265Y-185497158D01*
X121290265Y-185334800D01*
X121741853Y-185238568D01*
X122176294Y-185215157D01*
X122472289Y-185251120D01*
G36*
X113396254Y-185265860D02*
G01*
X113448748Y-185310738D01*
X113496687Y-185369854D01*
X113523776Y-185434606D01*
X113528667Y-185528671D01*
X113510013Y-185675725D01*
X113466467Y-185899445D01*
X113396863Y-186222677D01*
X113328746Y-186531901D01*
X113267555Y-186804105D01*
X113219798Y-187010706D01*
X113191982Y-187123121D01*
X113191258Y-187125667D01*
X113217024Y-187142389D01*
X113321247Y-187077813D01*
X113492253Y-186940111D01*
X113630482Y-186818168D01*
X114095095Y-186420220D01*
X114564806Y-186060130D01*
X115021985Y-185749026D01*
X115449005Y-185498033D01*
X115828238Y-185318279D01*
X116142055Y-185220891D01*
X116168466Y-185216223D01*
X116459779Y-185223799D01*
X116717490Y-185331960D01*
X116909101Y-185524128D01*
X116959524Y-185619762D01*
X117004053Y-185752381D01*
X117028005Y-185900851D01*
X117028950Y-186078864D01*
X117004457Y-186300113D01*
X116952095Y-186578291D01*
X116869433Y-186927090D01*
X116754042Y-187360203D01*
X116603490Y-187891323D01*
X116482823Y-188305130D01*
X116296504Y-188942792D01*
X116144583Y-189471741D01*
X116024010Y-189904617D01*
X115931737Y-190254060D01*
X115864713Y-190532712D01*
X115819890Y-190753211D01*
X115794219Y-190928200D01*
X115784649Y-191070317D01*
X115787707Y-191186568D01*
X115818907Y-191364001D01*
X115887722Y-191455183D01*
X116005229Y-191458699D01*
X116182504Y-191373134D01*
X116430622Y-191197071D01*
X116570022Y-191086578D01*
X116866388Y-190846069D01*
X117079277Y-190674842D01*
X117225001Y-190563618D01*
X117319869Y-190503120D01*
X117380192Y-190484069D01*
X117422280Y-190497186D01*
X117462445Y-190533194D01*
X117492372Y-190561898D01*
X117586191Y-190671524D01*
X117616590Y-190745681D01*
X117573725Y-190819596D01*
X117459295Y-190955691D01*
X117294544Y-191129451D01*
X117219715Y-191203619D01*
X116703376Y-191672853D01*
X116226778Y-192037051D01*
X115793428Y-192294402D01*
X115406831Y-192443095D01*
X115070494Y-192481319D01*
X114841789Y-192431881D01*
X114666780Y-192293709D01*
X114549949Y-192045749D01*
X114492722Y-191691826D01*
X114486878Y-191480130D01*
X114512354Y-191131053D01*
X114585150Y-190684107D01*
X114706237Y-190135010D01*
X114876582Y-189479484D01*
X115097157Y-188713249D01*
X115163409Y-188493536D01*
X115324147Y-187948028D01*
X115453946Y-187472201D01*
X115550344Y-187076724D01*
X115610877Y-186772266D01*
X115633083Y-186569497D01*
X115624861Y-186494687D01*
X115532384Y-186410727D01*
X115362030Y-186402686D01*
X115130792Y-186462048D01*
X114855662Y-186580302D01*
X114553634Y-186748932D01*
X114241699Y-186959427D01*
X113936851Y-187203271D01*
X113656082Y-187471953D01*
X113639915Y-187489167D01*
X113472248Y-187675858D01*
X113328598Y-187856484D01*
X113203335Y-188045749D01*
X113090829Y-188258358D01*
X112985450Y-188509017D01*
X112881567Y-188812430D01*
X112773552Y-189183303D01*
X112655772Y-189636339D01*
X112522599Y-190186245D01*
X112390258Y-190753078D01*
X112053379Y-192210380D01*
X111405984Y-192228476D01*
X111136730Y-192231318D01*
X110922252Y-192224667D01*
X110789135Y-192209890D01*
X110758590Y-192195174D01*
X110773645Y-192119022D01*
X110815229Y-191941981D01*
X110877970Y-191686090D01*
X110956496Y-191373389D01*
X111010644Y-191161078D01*
X111125733Y-190705815D01*
X111248286Y-190209427D01*
X111374679Y-189687669D01*
X111501289Y-189156301D01*
X111624493Y-188631079D01*
X111740666Y-188127762D01*
X111846185Y-187662106D01*
X111937427Y-187249870D01*
X112010768Y-186906811D01*
X112062586Y-186648687D01*
X112089255Y-186491255D01*
X112092090Y-186458144D01*
X112074939Y-186317423D01*
X112038751Y-186247660D01*
X111933426Y-186254553D01*
X111746629Y-186350458D01*
X111483911Y-186531887D01*
X111150824Y-186795353D01*
X111101508Y-186836398D01*
X110618013Y-187240917D01*
X110300431Y-186923335D01*
X110577135Y-186669629D01*
X110965060Y-186321453D01*
X111289249Y-186049304D01*
X111572439Y-185836196D01*
X111837368Y-185665143D01*
X112106773Y-185519160D01*
X112137479Y-185503990D01*
X112556005Y-185324244D01*
X112911718Y-185223696D01*
X113195006Y-185203763D01*
X113396254Y-185265860D01*
G37*
X113396254Y-185265860D02*
X113448748Y-185310738D01*
X113496687Y-185369854D01*
X113523776Y-185434606D01*
X113528667Y-185528671D01*
X113510013Y-185675725D01*
X113466467Y-185899445D01*
X113396863Y-186222677D01*
X113328746Y-186531901D01*
X113267555Y-186804105D01*
X113219798Y-187010706D01*
X113191982Y-187123121D01*
X113191258Y-187125667D01*
X113217024Y-187142389D01*
X113321247Y-187077813D01*
X113492253Y-186940111D01*
X113630482Y-186818168D01*
X114095095Y-186420220D01*
X114564806Y-186060130D01*
X115021985Y-185749026D01*
X115449005Y-185498033D01*
X115828238Y-185318279D01*
X116142055Y-185220891D01*
X116168466Y-185216223D01*
X116459779Y-185223799D01*
X116717490Y-185331960D01*
X116909101Y-185524128D01*
X116959524Y-185619762D01*
X117004053Y-185752381D01*
X117028005Y-185900851D01*
X117028950Y-186078864D01*
X117004457Y-186300113D01*
X116952095Y-186578291D01*
X116869433Y-186927090D01*
X116754042Y-187360203D01*
X116603490Y-187891323D01*
X116482823Y-188305130D01*
X116296504Y-188942792D01*
X116144583Y-189471741D01*
X116024010Y-189904617D01*
X115931737Y-190254060D01*
X115864713Y-190532712D01*
X115819890Y-190753211D01*
X115794219Y-190928200D01*
X115784649Y-191070317D01*
X115787707Y-191186568D01*
X115818907Y-191364001D01*
X115887722Y-191455183D01*
X116005229Y-191458699D01*
X116182504Y-191373134D01*
X116430622Y-191197071D01*
X116570022Y-191086578D01*
X116866388Y-190846069D01*
X117079277Y-190674842D01*
X117225001Y-190563618D01*
X117319869Y-190503120D01*
X117380192Y-190484069D01*
X117422280Y-190497186D01*
X117462445Y-190533194D01*
X117492372Y-190561898D01*
X117586191Y-190671524D01*
X117616590Y-190745681D01*
X117573725Y-190819596D01*
X117459295Y-190955691D01*
X117294544Y-191129451D01*
X117219715Y-191203619D01*
X116703376Y-191672853D01*
X116226778Y-192037051D01*
X115793428Y-192294402D01*
X115406831Y-192443095D01*
X115070494Y-192481319D01*
X114841789Y-192431881D01*
X114666780Y-192293709D01*
X114549949Y-192045749D01*
X114492722Y-191691826D01*
X114486878Y-191480130D01*
X114512354Y-191131053D01*
X114585150Y-190684107D01*
X114706237Y-190135010D01*
X114876582Y-189479484D01*
X115097157Y-188713249D01*
X115163409Y-188493536D01*
X115324147Y-187948028D01*
X115453946Y-187472201D01*
X115550344Y-187076724D01*
X115610877Y-186772266D01*
X115633083Y-186569497D01*
X115624861Y-186494687D01*
X115532384Y-186410727D01*
X115362030Y-186402686D01*
X115130792Y-186462048D01*
X114855662Y-186580302D01*
X114553634Y-186748932D01*
X114241699Y-186959427D01*
X113936851Y-187203271D01*
X113656082Y-187471953D01*
X113639915Y-187489167D01*
X113472248Y-187675858D01*
X113328598Y-187856484D01*
X113203335Y-188045749D01*
X113090829Y-188258358D01*
X112985450Y-188509017D01*
X112881567Y-188812430D01*
X112773552Y-189183303D01*
X112655772Y-189636339D01*
X112522599Y-190186245D01*
X112390258Y-190753078D01*
X112053379Y-192210380D01*
X111405984Y-192228476D01*
X111136730Y-192231318D01*
X110922252Y-192224667D01*
X110789135Y-192209890D01*
X110758590Y-192195174D01*
X110773645Y-192119022D01*
X110815229Y-191941981D01*
X110877970Y-191686090D01*
X110956496Y-191373389D01*
X111010644Y-191161078D01*
X111125733Y-190705815D01*
X111248286Y-190209427D01*
X111374679Y-189687669D01*
X111501289Y-189156301D01*
X111624493Y-188631079D01*
X111740666Y-188127762D01*
X111846185Y-187662106D01*
X111937427Y-187249870D01*
X112010768Y-186906811D01*
X112062586Y-186648687D01*
X112089255Y-186491255D01*
X112092090Y-186458144D01*
X112074939Y-186317423D01*
X112038751Y-186247660D01*
X111933426Y-186254553D01*
X111746629Y-186350458D01*
X111483911Y-186531887D01*
X111150824Y-186795353D01*
X111101508Y-186836398D01*
X110618013Y-187240917D01*
X110300431Y-186923335D01*
X110577135Y-186669629D01*
X110965060Y-186321453D01*
X111289249Y-186049304D01*
X111572439Y-185836196D01*
X111837368Y-185665143D01*
X112106773Y-185519160D01*
X112137479Y-185503990D01*
X112556005Y-185324244D01*
X112911718Y-185223696D01*
X113195006Y-185203763D01*
X113396254Y-185265860D01*
G36*
X108147257Y-185291017D02*
G01*
X108578996Y-185443103D01*
X108943593Y-185702868D01*
X109242336Y-186071133D01*
X109398619Y-186362069D01*
X109525136Y-186744632D01*
X109602657Y-187211504D01*
X109630494Y-187729541D01*
X109607963Y-188265599D01*
X109534374Y-188786534D01*
X109455614Y-189112494D01*
X109232366Y-189700185D01*
X108914628Y-190280085D01*
X108520413Y-190831740D01*
X108067736Y-191334695D01*
X107574611Y-191768494D01*
X107059053Y-192112684D01*
X106638348Y-192311376D01*
X106265527Y-192415023D01*
X105845880Y-192470796D01*
X105424941Y-192476823D01*
X105048246Y-192431233D01*
X104877143Y-192383739D01*
X104454472Y-192172032D01*
X104114986Y-191867615D01*
X103854114Y-191465703D01*
X103739371Y-191192643D01*
X103672307Y-190904859D01*
X103635949Y-190529113D01*
X103629799Y-190100550D01*
X103653359Y-189654316D01*
X103667013Y-189543380D01*
X105082583Y-189543380D01*
X105099861Y-190137334D01*
X105166041Y-190625196D01*
X105285492Y-191019807D01*
X105462585Y-191334012D01*
X105701692Y-191580654D01*
X105800616Y-191653243D01*
X106011264Y-191761791D01*
X106222083Y-191787332D01*
X106468930Y-191729573D01*
X106668003Y-191646143D01*
X107007756Y-191421785D01*
X107319563Y-191083720D01*
X107596733Y-190643451D01*
X107832574Y-190112480D01*
X108020393Y-189502310D01*
X108087075Y-189206879D01*
X108125960Y-188914237D01*
X108147031Y-188538980D01*
X108150602Y-188124191D01*
X108136991Y-187712952D01*
X108106511Y-187348349D01*
X108071841Y-187126945D01*
X107944985Y-186708257D01*
X107762396Y-186367931D01*
X107535301Y-186116738D01*
X107274929Y-185965451D01*
X106992508Y-185924841D01*
X106844883Y-185949861D01*
X106465837Y-186119758D01*
X106112671Y-186411454D01*
X105788380Y-186821826D01*
X105495954Y-187347753D01*
X105487045Y-187366691D01*
X105308555Y-187819935D01*
X105185104Y-188310244D01*
X105111586Y-188865087D01*
X105082899Y-189511937D01*
X105082583Y-189543380D01*
X103667013Y-189543380D01*
X103706133Y-189225557D01*
X103771702Y-188908380D01*
X104011712Y-188191081D01*
X104349617Y-187496479D01*
X104767660Y-186855090D01*
X105248084Y-186297429D01*
X105346454Y-186202045D01*
X105836456Y-185799685D01*
X106334834Y-185513812D01*
X106864792Y-185334782D01*
X107449533Y-185252951D01*
X107647090Y-185245789D01*
X108147257Y-185291017D01*
G37*
X108147257Y-185291017D02*
X108578996Y-185443103D01*
X108943593Y-185702868D01*
X109242336Y-186071133D01*
X109398619Y-186362069D01*
X109525136Y-186744632D01*
X109602657Y-187211504D01*
X109630494Y-187729541D01*
X109607963Y-188265599D01*
X109534374Y-188786534D01*
X109455614Y-189112494D01*
X109232366Y-189700185D01*
X108914628Y-190280085D01*
X108520413Y-190831740D01*
X108067736Y-191334695D01*
X107574611Y-191768494D01*
X107059053Y-192112684D01*
X106638348Y-192311376D01*
X106265527Y-192415023D01*
X105845880Y-192470796D01*
X105424941Y-192476823D01*
X105048246Y-192431233D01*
X104877143Y-192383739D01*
X104454472Y-192172032D01*
X104114986Y-191867615D01*
X103854114Y-191465703D01*
X103739371Y-191192643D01*
X103672307Y-190904859D01*
X103635949Y-190529113D01*
X103629799Y-190100550D01*
X103653359Y-189654316D01*
X103667013Y-189543380D01*
X105082583Y-189543380D01*
X105099861Y-190137334D01*
X105166041Y-190625196D01*
X105285492Y-191019807D01*
X105462585Y-191334012D01*
X105701692Y-191580654D01*
X105800616Y-191653243D01*
X106011264Y-191761791D01*
X106222083Y-191787332D01*
X106468930Y-191729573D01*
X106668003Y-191646143D01*
X107007756Y-191421785D01*
X107319563Y-191083720D01*
X107596733Y-190643451D01*
X107832574Y-190112480D01*
X108020393Y-189502310D01*
X108087075Y-189206879D01*
X108125960Y-188914237D01*
X108147031Y-188538980D01*
X108150602Y-188124191D01*
X108136991Y-187712952D01*
X108106511Y-187348349D01*
X108071841Y-187126945D01*
X107944985Y-186708257D01*
X107762396Y-186367931D01*
X107535301Y-186116738D01*
X107274929Y-185965451D01*
X106992508Y-185924841D01*
X106844883Y-185949861D01*
X106465837Y-186119758D01*
X106112671Y-186411454D01*
X105788380Y-186821826D01*
X105495954Y-187347753D01*
X105487045Y-187366691D01*
X105308555Y-187819935D01*
X105185104Y-188310244D01*
X105111586Y-188865087D01*
X105082899Y-189511937D01*
X105082583Y-189543380D01*
X103667013Y-189543380D01*
X103706133Y-189225557D01*
X103771702Y-188908380D01*
X104011712Y-188191081D01*
X104349617Y-187496479D01*
X104767660Y-186855090D01*
X105248084Y-186297429D01*
X105346454Y-186202045D01*
X105836456Y-185799685D01*
X106334834Y-185513812D01*
X106864792Y-185334782D01*
X107449533Y-185252951D01*
X107647090Y-185245789D01*
X108147257Y-185291017D01*
G36*
X103420359Y-182397108D02*
G01*
X103632495Y-182401483D01*
X103753858Y-182410655D01*
X103773590Y-182418160D01*
X103751095Y-182480793D01*
X103690215Y-182635915D01*
X103600859Y-182858557D01*
X103516519Y-183066078D01*
X103368598Y-183453339D01*
X103191953Y-183960597D01*
X102987664Y-184584392D01*
X102756811Y-185321270D01*
X102500475Y-186167771D01*
X102219735Y-187120439D01*
X101915671Y-188175817D01*
X101869792Y-188336880D01*
X101664891Y-189054242D01*
X101489155Y-189661943D01*
X101338391Y-190172862D01*
X101208404Y-190599877D01*
X101095000Y-190955867D01*
X100993984Y-191253713D01*
X100901162Y-191506291D01*
X100812340Y-191726482D01*
X100723324Y-191927165D01*
X100651725Y-192077082D01*
X100256301Y-192769864D01*
X99805333Y-193350298D01*
X99299834Y-193817445D01*
X98740814Y-194170368D01*
X98141096Y-194404774D01*
X97762098Y-194482854D01*
X97345895Y-194519302D01*
X96939687Y-194513123D01*
X96590675Y-194463323D01*
X96502840Y-194439304D01*
X96096527Y-194268797D01*
X95770786Y-194045449D01*
X95540775Y-193782596D01*
X95421655Y-193493575D01*
X95420418Y-193487138D01*
X95423057Y-193233102D01*
X95514472Y-193011261D01*
X95672591Y-192846758D01*
X95875344Y-192764737D01*
X96046961Y-192773349D01*
X96169743Y-192834502D01*
X96351687Y-192961171D01*
X96560897Y-193130342D01*
X96645810Y-193205429D01*
X97050990Y-193532859D01*
X97419262Y-193741963D01*
X97757328Y-193833692D01*
X98071886Y-193808999D01*
X98369636Y-193668834D01*
X98592394Y-193482091D01*
X98720645Y-193340427D01*
X98838646Y-193176330D01*
X98953950Y-192973462D01*
X99074109Y-192715487D01*
X99206678Y-192386068D01*
X99359208Y-191968868D01*
X99539252Y-191447551D01*
X99556422Y-191396863D01*
X99710637Y-190933556D01*
X99880626Y-190409590D01*
X100063010Y-189836395D01*
X100254408Y-189225401D01*
X100451441Y-188588038D01*
X100650729Y-187935738D01*
X100848891Y-187279928D01*
X101042547Y-186632041D01*
X101228317Y-186003506D01*
X101402821Y-185405753D01*
X101562680Y-184850212D01*
X101704512Y-184348313D01*
X101824938Y-183911487D01*
X101920577Y-183551164D01*
X101988051Y-183278774D01*
X102023977Y-183105747D01*
X102026421Y-183044295D01*
X101935877Y-183020593D01*
X101752308Y-183014480D01*
X101508143Y-183023776D01*
X101235809Y-183046302D01*
X100967733Y-183079876D01*
X100736345Y-183122320D01*
X100686942Y-183134344D01*
X100227726Y-183293384D01*
X99803076Y-183515125D01*
X99429306Y-183784584D01*
X99122731Y-184086781D01*
X98899665Y-184406734D01*
X98776422Y-184729460D01*
X98757090Y-184906550D01*
X98789801Y-185098354D01*
X98875922Y-185340030D01*
X98947590Y-185489518D01*
X99086104Y-185798300D01*
X99130801Y-186041614D01*
X99082439Y-186238755D01*
X98982226Y-186371266D01*
X98781817Y-186491022D01*
X98532446Y-186530204D01*
X98288430Y-186482137D01*
X98245572Y-186461747D01*
X98087668Y-186310690D01*
X97971544Y-186064757D01*
X97903096Y-185750895D01*
X97888220Y-185396054D01*
X97932267Y-185029816D01*
X98082931Y-184536097D01*
X98328361Y-184086250D01*
X98684283Y-183651468D01*
X98685093Y-183650618D01*
X99160488Y-183230911D01*
X99702435Y-182903091D01*
X100321283Y-182662513D01*
X101027386Y-182504533D01*
X101328840Y-182464285D01*
X101531364Y-182447252D01*
X101804371Y-182431973D01*
X102124822Y-182418883D01*
X102469683Y-182408417D01*
X102815917Y-182401010D01*
X103140488Y-182397095D01*
X103420359Y-182397108D01*
G37*
X103420359Y-182397108D02*
X103632495Y-182401483D01*
X103753858Y-182410655D01*
X103773590Y-182418160D01*
X103751095Y-182480793D01*
X103690215Y-182635915D01*
X103600859Y-182858557D01*
X103516519Y-183066078D01*
X103368598Y-183453339D01*
X103191953Y-183960597D01*
X102987664Y-184584392D01*
X102756811Y-185321270D01*
X102500475Y-186167771D01*
X102219735Y-187120439D01*
X101915671Y-188175817D01*
X101869792Y-188336880D01*
X101664891Y-189054242D01*
X101489155Y-189661943D01*
X101338391Y-190172862D01*
X101208404Y-190599877D01*
X101095000Y-190955867D01*
X100993984Y-191253713D01*
X100901162Y-191506291D01*
X100812340Y-191726482D01*
X100723324Y-191927165D01*
X100651725Y-192077082D01*
X100256301Y-192769864D01*
X99805333Y-193350298D01*
X99299834Y-193817445D01*
X98740814Y-194170368D01*
X98141096Y-194404774D01*
X97762098Y-194482854D01*
X97345895Y-194519302D01*
X96939687Y-194513123D01*
X96590675Y-194463323D01*
X96502840Y-194439304D01*
X96096527Y-194268797D01*
X95770786Y-194045449D01*
X95540775Y-193782596D01*
X95421655Y-193493575D01*
X95420418Y-193487138D01*
X95423057Y-193233102D01*
X95514472Y-193011261D01*
X95672591Y-192846758D01*
X95875344Y-192764737D01*
X96046961Y-192773349D01*
X96169743Y-192834502D01*
X96351687Y-192961171D01*
X96560897Y-193130342D01*
X96645810Y-193205429D01*
X97050990Y-193532859D01*
X97419262Y-193741963D01*
X97757328Y-193833692D01*
X98071886Y-193808999D01*
X98369636Y-193668834D01*
X98592394Y-193482091D01*
X98720645Y-193340427D01*
X98838646Y-193176330D01*
X98953950Y-192973462D01*
X99074109Y-192715487D01*
X99206678Y-192386068D01*
X99359208Y-191968868D01*
X99539252Y-191447551D01*
X99556422Y-191396863D01*
X99710637Y-190933556D01*
X99880626Y-190409590D01*
X100063010Y-189836395D01*
X100254408Y-189225401D01*
X100451441Y-188588038D01*
X100650729Y-187935738D01*
X100848891Y-187279928D01*
X101042547Y-186632041D01*
X101228317Y-186003506D01*
X101402821Y-185405753D01*
X101562680Y-184850212D01*
X101704512Y-184348313D01*
X101824938Y-183911487D01*
X101920577Y-183551164D01*
X101988051Y-183278774D01*
X102023977Y-183105747D01*
X102026421Y-183044295D01*
X101935877Y-183020593D01*
X101752308Y-183014480D01*
X101508143Y-183023776D01*
X101235809Y-183046302D01*
X100967733Y-183079876D01*
X100736345Y-183122320D01*
X100686942Y-183134344D01*
X100227726Y-183293384D01*
X99803076Y-183515125D01*
X99429306Y-183784584D01*
X99122731Y-184086781D01*
X98899665Y-184406734D01*
X98776422Y-184729460D01*
X98757090Y-184906550D01*
X98789801Y-185098354D01*
X98875922Y-185340030D01*
X98947590Y-185489518D01*
X99086104Y-185798300D01*
X99130801Y-186041614D01*
X99082439Y-186238755D01*
X98982226Y-186371266D01*
X98781817Y-186491022D01*
X98532446Y-186530204D01*
X98288430Y-186482137D01*
X98245572Y-186461747D01*
X98087668Y-186310690D01*
X97971544Y-186064757D01*
X97903096Y-185750895D01*
X97888220Y-185396054D01*
X97932267Y-185029816D01*
X98082931Y-184536097D01*
X98328361Y-184086250D01*
X98684283Y-183651468D01*
X98685093Y-183650618D01*
X99160488Y-183230911D01*
X99702435Y-182903091D01*
X100321283Y-182662513D01*
X101027386Y-182504533D01*
X101328840Y-182464285D01*
X101531364Y-182447252D01*
X101804371Y-182431973D01*
X102124822Y-182418883D01*
X102469683Y-182408417D01*
X102815917Y-182401010D01*
X103140488Y-182397095D01*
X103420359Y-182397108D01*
G36*
X108714148Y-164142345D02*
G01*
X108890927Y-164145991D01*
X108992063Y-164153634D01*
X109008506Y-164159888D01*
X108989761Y-164212082D01*
X108939028Y-164341351D01*
X108864564Y-164526886D01*
X108794280Y-164699820D01*
X108671013Y-165022538D01*
X108523809Y-165445252D01*
X108353568Y-165965082D01*
X108161191Y-166579146D01*
X107947577Y-167284564D01*
X107713627Y-168078454D01*
X107460241Y-168957936D01*
X107422008Y-169092155D01*
X107251257Y-169689956D01*
X107104811Y-170196374D01*
X106979174Y-170622140D01*
X106870852Y-170977986D01*
X106776348Y-171274644D01*
X106692168Y-171522849D01*
X106614817Y-171733331D01*
X106540799Y-171916823D01*
X106466619Y-172084059D01*
X106406952Y-172208990D01*
X106077432Y-172786308D01*
X105701626Y-173270003D01*
X105280377Y-173659292D01*
X104814527Y-173953395D01*
X104314761Y-174148733D01*
X103998930Y-174213800D01*
X103652094Y-174244173D01*
X103313587Y-174239024D01*
X103022744Y-174197524D01*
X102949548Y-174177508D01*
X102610954Y-174035419D01*
X102339503Y-173849295D01*
X102147828Y-173630252D01*
X102048561Y-173389401D01*
X102047530Y-173384037D01*
X102049729Y-173172340D01*
X102125908Y-172987472D01*
X102257674Y-172850386D01*
X102426635Y-172782036D01*
X102569649Y-172789213D01*
X102671967Y-172840173D01*
X102823587Y-172945731D01*
X102997929Y-173086707D01*
X103068690Y-173149279D01*
X103406340Y-173422138D01*
X103713234Y-173596391D01*
X103994955Y-173672832D01*
X104257087Y-173652254D01*
X104505212Y-173535450D01*
X104690844Y-173379831D01*
X104797719Y-173261778D01*
X104896053Y-173125030D01*
X104992140Y-172955974D01*
X105092273Y-172740994D01*
X105202747Y-172466479D01*
X105329855Y-172118812D01*
X105479892Y-171684380D01*
X105494200Y-171642141D01*
X105622712Y-171256052D01*
X105764370Y-170819413D01*
X105916356Y-170341750D01*
X106075855Y-169832589D01*
X106240049Y-169301454D01*
X106406122Y-168757870D01*
X106571257Y-168211362D01*
X106732637Y-167671456D01*
X106887446Y-167147676D01*
X107032866Y-166649549D01*
X107166081Y-166186598D01*
X107284275Y-165768349D01*
X107384630Y-165404328D01*
X107464329Y-165104059D01*
X107520557Y-164877067D01*
X107550496Y-164732877D01*
X107552533Y-164681667D01*
X107477079Y-164661915D01*
X107324105Y-164656821D01*
X107120634Y-164664568D01*
X106893689Y-164683340D01*
X106670293Y-164711318D01*
X106477469Y-164746688D01*
X106436300Y-164756708D01*
X106053620Y-164889242D01*
X105699745Y-165074026D01*
X105388270Y-165298575D01*
X105132791Y-165550406D01*
X104946902Y-165817033D01*
X104844200Y-166085971D01*
X104828090Y-166233546D01*
X104855349Y-166393383D01*
X104927117Y-166594780D01*
X104986840Y-166719353D01*
X105102268Y-166976672D01*
X105139516Y-167179433D01*
X105099214Y-167343717D01*
X105015703Y-167454143D01*
X104848696Y-167553940D01*
X104640886Y-167586591D01*
X104437540Y-167546536D01*
X104401825Y-167529544D01*
X104270238Y-167403663D01*
X104173468Y-167198719D01*
X104116428Y-166937167D01*
X104104032Y-166641466D01*
X104140738Y-166336268D01*
X104266291Y-165924835D01*
X104470816Y-165549963D01*
X104767417Y-165187645D01*
X104768092Y-165186937D01*
X105164255Y-164837181D01*
X105615877Y-164563997D01*
X106131584Y-164363516D01*
X106720003Y-164231866D01*
X106971215Y-164198326D01*
X107139985Y-164184131D01*
X107367490Y-164171399D01*
X107634534Y-164160491D01*
X107921918Y-164151769D01*
X108210446Y-164145596D01*
X108480922Y-164142334D01*
X108714148Y-164142345D01*
G37*
X108714148Y-164142345D02*
X108890927Y-164145991D01*
X108992063Y-164153634D01*
X109008506Y-164159888D01*
X108989761Y-164212082D01*
X108939028Y-164341351D01*
X108864564Y-164526886D01*
X108794280Y-164699820D01*
X108671013Y-165022538D01*
X108523809Y-165445252D01*
X108353568Y-165965082D01*
X108161191Y-166579146D01*
X107947577Y-167284564D01*
X107713627Y-168078454D01*
X107460241Y-168957936D01*
X107422008Y-169092155D01*
X107251257Y-169689956D01*
X107104811Y-170196374D01*
X106979174Y-170622140D01*
X106870852Y-170977986D01*
X106776348Y-171274644D01*
X106692168Y-171522849D01*
X106614817Y-171733331D01*
X106540799Y-171916823D01*
X106466619Y-172084059D01*
X106406952Y-172208990D01*
X106077432Y-172786308D01*
X105701626Y-173270003D01*
X105280377Y-173659292D01*
X104814527Y-173953395D01*
X104314761Y-174148733D01*
X103998930Y-174213800D01*
X103652094Y-174244173D01*
X103313587Y-174239024D01*
X103022744Y-174197524D01*
X102949548Y-174177508D01*
X102610954Y-174035419D01*
X102339503Y-173849295D01*
X102147828Y-173630252D01*
X102048561Y-173389401D01*
X102047530Y-173384037D01*
X102049729Y-173172340D01*
X102125908Y-172987472D01*
X102257674Y-172850386D01*
X102426635Y-172782036D01*
X102569649Y-172789213D01*
X102671967Y-172840173D01*
X102823587Y-172945731D01*
X102997929Y-173086707D01*
X103068690Y-173149279D01*
X103406340Y-173422138D01*
X103713234Y-173596391D01*
X103994955Y-173672832D01*
X104257087Y-173652254D01*
X104505212Y-173535450D01*
X104690844Y-173379831D01*
X104797719Y-173261778D01*
X104896053Y-173125030D01*
X104992140Y-172955974D01*
X105092273Y-172740994D01*
X105202747Y-172466479D01*
X105329855Y-172118812D01*
X105479892Y-171684380D01*
X105494200Y-171642141D01*
X105622712Y-171256052D01*
X105764370Y-170819413D01*
X105916356Y-170341750D01*
X106075855Y-169832589D01*
X106240049Y-169301454D01*
X106406122Y-168757870D01*
X106571257Y-168211362D01*
X106732637Y-167671456D01*
X106887446Y-167147676D01*
X107032866Y-166649549D01*
X107166081Y-166186598D01*
X107284275Y-165768349D01*
X107384630Y-165404328D01*
X107464329Y-165104059D01*
X107520557Y-164877067D01*
X107550496Y-164732877D01*
X107552533Y-164681667D01*
X107477079Y-164661915D01*
X107324105Y-164656821D01*
X107120634Y-164664568D01*
X106893689Y-164683340D01*
X106670293Y-164711318D01*
X106477469Y-164746688D01*
X106436300Y-164756708D01*
X106053620Y-164889242D01*
X105699745Y-165074026D01*
X105388270Y-165298575D01*
X105132791Y-165550406D01*
X104946902Y-165817033D01*
X104844200Y-166085971D01*
X104828090Y-166233546D01*
X104855349Y-166393383D01*
X104927117Y-166594780D01*
X104986840Y-166719353D01*
X105102268Y-166976672D01*
X105139516Y-167179433D01*
X105099214Y-167343717D01*
X105015703Y-167454143D01*
X104848696Y-167553940D01*
X104640886Y-167586591D01*
X104437540Y-167546536D01*
X104401825Y-167529544D01*
X104270238Y-167403663D01*
X104173468Y-167198719D01*
X104116428Y-166937167D01*
X104104032Y-166641466D01*
X104140738Y-166336268D01*
X104266291Y-165924835D01*
X104470816Y-165549963D01*
X104767417Y-165187645D01*
X104768092Y-165186937D01*
X105164255Y-164837181D01*
X105615877Y-164563997D01*
X106131584Y-164363516D01*
X106720003Y-164231866D01*
X106971215Y-164198326D01*
X107139985Y-164184131D01*
X107367490Y-164171399D01*
X107634534Y-164160491D01*
X107921918Y-164151769D01*
X108210446Y-164145596D01*
X108480922Y-164142334D01*
X108714148Y-164142345D01*
G36*
X112653229Y-166553936D02*
G01*
X113013011Y-166680674D01*
X113316842Y-166897145D01*
X113565795Y-167204032D01*
X113696030Y-167446479D01*
X113801461Y-167765282D01*
X113866062Y-168154341D01*
X113889260Y-168586039D01*
X113870484Y-169032754D01*
X113809160Y-169466866D01*
X113743526Y-169738500D01*
X113557487Y-170228243D01*
X113292705Y-170711493D01*
X112964192Y-171171205D01*
X112586961Y-171590334D01*
X112176024Y-171951834D01*
X111746392Y-172238659D01*
X111395805Y-172404235D01*
X111085121Y-172490608D01*
X110735415Y-172537085D01*
X110384633Y-172542107D01*
X110070720Y-172504116D01*
X109928134Y-172464537D01*
X109575908Y-172288115D01*
X109293003Y-172034434D01*
X109075610Y-171699507D01*
X108979990Y-171471958D01*
X108924104Y-171232137D01*
X108893806Y-170919015D01*
X108888681Y-170561880D01*
X108908314Y-170190018D01*
X108919692Y-170097571D01*
X110099334Y-170097571D01*
X110113733Y-170592534D01*
X110168882Y-170999085D01*
X110268425Y-171327927D01*
X110416003Y-171589765D01*
X110615259Y-171795300D01*
X110697695Y-171855791D01*
X110873235Y-171946247D01*
X111048918Y-171967531D01*
X111254623Y-171919399D01*
X111420517Y-171849874D01*
X111703645Y-171662909D01*
X111963484Y-171381188D01*
X112194459Y-171014297D01*
X112390993Y-170571822D01*
X112547509Y-170063347D01*
X112603077Y-169817154D01*
X112635482Y-169573286D01*
X112653041Y-169260572D01*
X112656017Y-168914914D01*
X112644674Y-168572215D01*
X112619274Y-168268379D01*
X112590382Y-168083876D01*
X112484669Y-167734969D01*
X112332512Y-167451364D01*
X112143266Y-167242036D01*
X111926289Y-167115964D01*
X111690938Y-167082122D01*
X111567918Y-167102972D01*
X111252045Y-167244554D01*
X110957741Y-167487633D01*
X110687498Y-167829610D01*
X110443810Y-168267882D01*
X110436386Y-168283664D01*
X110287644Y-168661367D01*
X110184768Y-169069958D01*
X110123504Y-169532328D01*
X110099597Y-170071369D01*
X110099334Y-170097571D01*
X108919692Y-170097571D01*
X108952292Y-169832719D01*
X109006933Y-169568405D01*
X109206942Y-168970656D01*
X109488529Y-168391821D01*
X109836898Y-167857330D01*
X110237252Y-167392613D01*
X110319227Y-167313126D01*
X110727561Y-166977826D01*
X111142877Y-166739598D01*
X111584509Y-166590407D01*
X112071792Y-166522214D01*
X112236423Y-166516246D01*
X112653229Y-166553936D01*
G37*
X112653229Y-166553936D02*
X113013011Y-166680674D01*
X113316842Y-166897145D01*
X113565795Y-167204032D01*
X113696030Y-167446479D01*
X113801461Y-167765282D01*
X113866062Y-168154341D01*
X113889260Y-168586039D01*
X113870484Y-169032754D01*
X113809160Y-169466866D01*
X113743526Y-169738500D01*
X113557487Y-170228243D01*
X113292705Y-170711493D01*
X112964192Y-171171205D01*
X112586961Y-171590334D01*
X112176024Y-171951834D01*
X111746392Y-172238659D01*
X111395805Y-172404235D01*
X111085121Y-172490608D01*
X110735415Y-172537085D01*
X110384633Y-172542107D01*
X110070720Y-172504116D01*
X109928134Y-172464537D01*
X109575908Y-172288115D01*
X109293003Y-172034434D01*
X109075610Y-171699507D01*
X108979990Y-171471958D01*
X108924104Y-171232137D01*
X108893806Y-170919015D01*
X108888681Y-170561880D01*
X108908314Y-170190018D01*
X108919692Y-170097571D01*
X110099334Y-170097571D01*
X110113733Y-170592534D01*
X110168882Y-170999085D01*
X110268425Y-171327927D01*
X110416003Y-171589765D01*
X110615259Y-171795300D01*
X110697695Y-171855791D01*
X110873235Y-171946247D01*
X111048918Y-171967531D01*
X111254623Y-171919399D01*
X111420517Y-171849874D01*
X111703645Y-171662909D01*
X111963484Y-171381188D01*
X112194459Y-171014297D01*
X112390993Y-170571822D01*
X112547509Y-170063347D01*
X112603077Y-169817154D01*
X112635482Y-169573286D01*
X112653041Y-169260572D01*
X112656017Y-168914914D01*
X112644674Y-168572215D01*
X112619274Y-168268379D01*
X112590382Y-168083876D01*
X112484669Y-167734969D01*
X112332512Y-167451364D01*
X112143266Y-167242036D01*
X111926289Y-167115964D01*
X111690938Y-167082122D01*
X111567918Y-167102972D01*
X111252045Y-167244554D01*
X110957741Y-167487633D01*
X110687498Y-167829610D01*
X110443810Y-168267882D01*
X110436386Y-168283664D01*
X110287644Y-168661367D01*
X110184768Y-169069958D01*
X110123504Y-169532328D01*
X110099597Y-170071369D01*
X110099334Y-170097571D01*
X108919692Y-170097571D01*
X108952292Y-169832719D01*
X109006933Y-169568405D01*
X109206942Y-168970656D01*
X109488529Y-168391821D01*
X109836898Y-167857330D01*
X110237252Y-167392613D01*
X110319227Y-167313126D01*
X110727561Y-166977826D01*
X111142877Y-166739598D01*
X111584509Y-166590407D01*
X112071792Y-166522214D01*
X112236423Y-166516246D01*
X112653229Y-166553936D01*
G36*
X117027393Y-166532971D02*
G01*
X117071138Y-166570370D01*
X117111087Y-166619633D01*
X117133661Y-166673593D01*
X117137737Y-166751981D01*
X117122192Y-166874526D01*
X117085904Y-167060959D01*
X117027900Y-167330319D01*
X116971137Y-167588006D01*
X116920144Y-167814842D01*
X116880346Y-167987010D01*
X116857167Y-168080689D01*
X116856563Y-168082810D01*
X116878035Y-168096746D01*
X116964888Y-168042932D01*
X117107393Y-167928180D01*
X117222583Y-167826562D01*
X117609761Y-167494938D01*
X118001186Y-167194864D01*
X118382169Y-166935610D01*
X118738019Y-166726449D01*
X119054046Y-166576654D01*
X119315560Y-166495497D01*
X119337570Y-166491607D01*
X119580331Y-166497921D01*
X119795090Y-166588055D01*
X119954766Y-166748195D01*
X119996785Y-166827890D01*
X120033892Y-166938406D01*
X120053852Y-167062130D01*
X120054640Y-167210475D01*
X120034229Y-167394849D01*
X119990594Y-167626664D01*
X119921709Y-167917330D01*
X119825550Y-168278258D01*
X119700090Y-168720857D01*
X119599534Y-169065696D01*
X119444268Y-169597081D01*
X119317667Y-170037872D01*
X119217190Y-170398602D01*
X119140296Y-170689805D01*
X119084443Y-170922015D01*
X119047090Y-171105764D01*
X119025697Y-171251588D01*
X119017722Y-171370019D01*
X119020271Y-171466895D01*
X119046270Y-171614756D01*
X119103616Y-171690741D01*
X119201539Y-171693671D01*
X119349268Y-171622366D01*
X119556034Y-171475647D01*
X119672200Y-171383570D01*
X119919172Y-171183146D01*
X120096579Y-171040457D01*
X120218015Y-170947770D01*
X120297072Y-170897355D01*
X120347341Y-170881479D01*
X120382415Y-170892410D01*
X120415885Y-170922417D01*
X120440825Y-170946336D01*
X120519008Y-171037692D01*
X120544340Y-171099489D01*
X120508619Y-171161085D01*
X120413261Y-171274497D01*
X120275968Y-171419297D01*
X120213610Y-171481104D01*
X119783328Y-171872132D01*
X119386163Y-172175631D01*
X119025038Y-172390090D01*
X118702874Y-172514001D01*
X118422593Y-172545854D01*
X118232006Y-172504655D01*
X118086165Y-172389513D01*
X117988805Y-172182879D01*
X117941117Y-171887944D01*
X117936246Y-171711530D01*
X117957476Y-171420633D01*
X118018140Y-171048177D01*
X118119046Y-170590597D01*
X118261000Y-170044325D01*
X118444812Y-169405795D01*
X118500023Y-169222701D01*
X118633971Y-168768112D01*
X118742137Y-168371589D01*
X118822468Y-168042025D01*
X118872913Y-167788310D01*
X118891418Y-167619335D01*
X118884565Y-167556994D01*
X118807502Y-167487028D01*
X118665540Y-167480326D01*
X118472842Y-167529795D01*
X118243567Y-167628340D01*
X117991876Y-167768865D01*
X117731931Y-167944277D01*
X117477890Y-168147481D01*
X117243916Y-168371382D01*
X117230444Y-168385728D01*
X117090722Y-168541304D01*
X116971013Y-168691825D01*
X116866628Y-168849546D01*
X116772873Y-169026720D01*
X116685057Y-169235603D01*
X116598488Y-169488447D01*
X116508475Y-169797507D01*
X116410325Y-170175038D01*
X116299348Y-170633293D01*
X116189063Y-171105653D01*
X115908330Y-172320071D01*
X115368835Y-172335152D01*
X115144456Y-172337520D01*
X114965725Y-172331977D01*
X114854794Y-172319664D01*
X114829340Y-172307400D01*
X114841885Y-172243940D01*
X114876539Y-172096406D01*
X114928823Y-171883163D01*
X114994261Y-171622579D01*
X115039385Y-171445653D01*
X115135292Y-171066268D01*
X115237420Y-170652611D01*
X115342748Y-170217813D01*
X115448256Y-169775006D01*
X115550925Y-169337321D01*
X115647736Y-168917890D01*
X115735669Y-168529843D01*
X115811704Y-168186313D01*
X115872822Y-167900431D01*
X115916003Y-167685327D01*
X115938228Y-167554134D01*
X115940590Y-167526541D01*
X115926298Y-167409274D01*
X115896141Y-167351138D01*
X115808370Y-167356882D01*
X115652706Y-167436803D01*
X115433774Y-167587994D01*
X115156202Y-167807549D01*
X115115105Y-167841753D01*
X114712193Y-168178852D01*
X114579867Y-168046526D01*
X114447541Y-167914201D01*
X114678128Y-167702779D01*
X115001398Y-167412633D01*
X115271556Y-167185842D01*
X115507547Y-167008252D01*
X115728322Y-166865708D01*
X115952826Y-166744055D01*
X115978414Y-166731413D01*
X116327186Y-166581625D01*
X116623613Y-166497835D01*
X116859686Y-166481224D01*
X117027393Y-166532971D01*
G37*
X117027393Y-166532971D02*
X117071138Y-166570370D01*
X117111087Y-166619633D01*
X117133661Y-166673593D01*
X117137737Y-166751981D01*
X117122192Y-166874526D01*
X117085904Y-167060959D01*
X117027900Y-167330319D01*
X116971137Y-167588006D01*
X116920144Y-167814842D01*
X116880346Y-167987010D01*
X116857167Y-168080689D01*
X116856563Y-168082810D01*
X116878035Y-168096746D01*
X116964888Y-168042932D01*
X117107393Y-167928180D01*
X117222583Y-167826562D01*
X117609761Y-167494938D01*
X118001186Y-167194864D01*
X118382169Y-166935610D01*
X118738019Y-166726449D01*
X119054046Y-166576654D01*
X119315560Y-166495497D01*
X119337570Y-166491607D01*
X119580331Y-166497921D01*
X119795090Y-166588055D01*
X119954766Y-166748195D01*
X119996785Y-166827890D01*
X120033892Y-166938406D01*
X120053852Y-167062130D01*
X120054640Y-167210475D01*
X120034229Y-167394849D01*
X119990594Y-167626664D01*
X119921709Y-167917330D01*
X119825550Y-168278258D01*
X119700090Y-168720857D01*
X119599534Y-169065696D01*
X119444268Y-169597081D01*
X119317667Y-170037872D01*
X119217190Y-170398602D01*
X119140296Y-170689805D01*
X119084443Y-170922015D01*
X119047090Y-171105764D01*
X119025697Y-171251588D01*
X119017722Y-171370019D01*
X119020271Y-171466895D01*
X119046270Y-171614756D01*
X119103616Y-171690741D01*
X119201539Y-171693671D01*
X119349268Y-171622366D01*
X119556034Y-171475647D01*
X119672200Y-171383570D01*
X119919172Y-171183146D01*
X120096579Y-171040457D01*
X120218015Y-170947770D01*
X120297072Y-170897355D01*
X120347341Y-170881479D01*
X120382415Y-170892410D01*
X120415885Y-170922417D01*
X120440825Y-170946336D01*
X120519008Y-171037692D01*
X120544340Y-171099489D01*
X120508619Y-171161085D01*
X120413261Y-171274497D01*
X120275968Y-171419297D01*
X120213610Y-171481104D01*
X119783328Y-171872132D01*
X119386163Y-172175631D01*
X119025038Y-172390090D01*
X118702874Y-172514001D01*
X118422593Y-172545854D01*
X118232006Y-172504655D01*
X118086165Y-172389513D01*
X117988805Y-172182879D01*
X117941117Y-171887944D01*
X117936246Y-171711530D01*
X117957476Y-171420633D01*
X118018140Y-171048177D01*
X118119046Y-170590597D01*
X118261000Y-170044325D01*
X118444812Y-169405795D01*
X118500023Y-169222701D01*
X118633971Y-168768112D01*
X118742137Y-168371589D01*
X118822468Y-168042025D01*
X118872913Y-167788310D01*
X118891418Y-167619335D01*
X118884565Y-167556994D01*
X118807502Y-167487028D01*
X118665540Y-167480326D01*
X118472842Y-167529795D01*
X118243567Y-167628340D01*
X117991876Y-167768865D01*
X117731931Y-167944277D01*
X117477890Y-168147481D01*
X117243916Y-168371382D01*
X117230444Y-168385728D01*
X117090722Y-168541304D01*
X116971013Y-168691825D01*
X116866628Y-168849546D01*
X116772873Y-169026720D01*
X116685057Y-169235603D01*
X116598488Y-169488447D01*
X116508475Y-169797507D01*
X116410325Y-170175038D01*
X116299348Y-170633293D01*
X116189063Y-171105653D01*
X115908330Y-172320071D01*
X115368835Y-172335152D01*
X115144456Y-172337520D01*
X114965725Y-172331977D01*
X114854794Y-172319664D01*
X114829340Y-172307400D01*
X114841885Y-172243940D01*
X114876539Y-172096406D01*
X114928823Y-171883163D01*
X114994261Y-171622579D01*
X115039385Y-171445653D01*
X115135292Y-171066268D01*
X115237420Y-170652611D01*
X115342748Y-170217813D01*
X115448256Y-169775006D01*
X115550925Y-169337321D01*
X115647736Y-168917890D01*
X115735669Y-168529843D01*
X115811704Y-168186313D01*
X115872822Y-167900431D01*
X115916003Y-167685327D01*
X115938228Y-167554134D01*
X115940590Y-167526541D01*
X115926298Y-167409274D01*
X115896141Y-167351138D01*
X115808370Y-167356882D01*
X115652706Y-167436803D01*
X115433774Y-167587994D01*
X115156202Y-167807549D01*
X115115105Y-167841753D01*
X114712193Y-168178852D01*
X114579867Y-168046526D01*
X114447541Y-167914201D01*
X114678128Y-167702779D01*
X115001398Y-167412633D01*
X115271556Y-167185842D01*
X115507547Y-167008252D01*
X115728322Y-166865708D01*
X115952826Y-166744055D01*
X115978414Y-166731413D01*
X116327186Y-166581625D01*
X116623613Y-166497835D01*
X116859686Y-166481224D01*
X117027393Y-166532971D01*
G36*
X124590755Y-166520688D02*
G01*
X124874717Y-166629139D01*
X125086489Y-166803019D01*
X125225544Y-167029878D01*
X125291354Y-167297264D01*
X125283391Y-167592725D01*
X125201127Y-167903812D01*
X125044034Y-168218073D01*
X124811584Y-168523057D01*
X124681243Y-168654904D01*
X124482153Y-168828581D01*
X124263167Y-168992130D01*
X124007569Y-169155728D01*
X123698640Y-169329549D01*
X123319663Y-169523771D01*
X122993755Y-169682091D01*
X122685424Y-169829464D01*
X122459055Y-169944553D01*
X122302494Y-170043477D01*
X122203587Y-170142354D01*
X122150180Y-170257304D01*
X122130119Y-170404446D01*
X122131250Y-170599897D01*
X122139743Y-170814689D01*
X122150349Y-171044480D01*
X122166188Y-171195552D01*
X122195397Y-171294977D01*
X122246115Y-171369829D01*
X122326479Y-171447182D01*
X122331112Y-171451324D01*
X122509156Y-171569161D01*
X122659992Y-171605696D01*
X122912579Y-171566350D01*
X123224743Y-171451410D01*
X123587050Y-171265521D01*
X123990068Y-171013328D01*
X124281379Y-170807208D01*
X124433783Y-170700945D01*
X124557214Y-170626285D01*
X124621410Y-170600280D01*
X124697300Y-170639676D01*
X124789368Y-170731061D01*
X124861824Y-170834224D01*
X124881746Y-170892779D01*
X124842659Y-170957771D01*
X124733046Y-171072121D01*
X124567871Y-171222801D01*
X124362101Y-171396782D01*
X124130701Y-171581036D01*
X123888636Y-171762537D01*
X123853632Y-171787786D01*
X123384609Y-172093684D01*
X122946602Y-172313448D01*
X122522635Y-172455271D01*
X122422881Y-172478243D01*
X122182788Y-172525115D01*
X122009332Y-172546384D01*
X121866839Y-172543532D01*
X121719637Y-172518038D01*
X121680941Y-172509025D01*
X121414927Y-172396282D01*
X121209078Y-172199547D01*
X121063055Y-171917947D01*
X120976518Y-171550608D01*
X120949125Y-171096657D01*
X120968788Y-170679655D01*
X121025215Y-170223708D01*
X121119181Y-169793578D01*
X121216395Y-169493389D01*
X122290590Y-169493389D01*
X122332022Y-169504900D01*
X122449467Y-169460485D01*
X122632642Y-169365489D01*
X122871265Y-169225257D01*
X123155056Y-169045135D01*
X123163715Y-169039463D01*
X123553532Y-168756980D01*
X123862253Y-168475839D01*
X124084251Y-168202708D01*
X124213904Y-167944260D01*
X124247344Y-167754309D01*
X124207290Y-167537369D01*
X124098635Y-167337073D01*
X123944746Y-167194906D01*
X123926583Y-167184867D01*
X123717422Y-167132786D01*
X123491192Y-167173205D01*
X123263588Y-167297992D01*
X123050302Y-167499013D01*
X122894228Y-167719913D01*
X122786748Y-167929070D01*
X122671954Y-168195126D01*
X122558483Y-168492703D01*
X122454974Y-168796422D01*
X122370065Y-169080905D01*
X122312394Y-169320772D01*
X122290600Y-169490644D01*
X122290590Y-169493389D01*
X121216395Y-169493389D01*
X121259537Y-169360170D01*
X121455138Y-168894390D01*
X121609749Y-168573164D01*
X121894181Y-168071166D01*
X122216244Y-167619926D01*
X122563541Y-167233392D01*
X122923676Y-166925513D01*
X123251569Y-166725720D01*
X123605736Y-166590422D01*
X123982059Y-166510228D01*
X124344093Y-166490719D01*
X124590755Y-166520688D01*
G37*
X124590755Y-166520688D02*
X124874717Y-166629139D01*
X125086489Y-166803019D01*
X125225544Y-167029878D01*
X125291354Y-167297264D01*
X125283391Y-167592725D01*
X125201127Y-167903812D01*
X125044034Y-168218073D01*
X124811584Y-168523057D01*
X124681243Y-168654904D01*
X124482153Y-168828581D01*
X124263167Y-168992130D01*
X124007569Y-169155728D01*
X123698640Y-169329549D01*
X123319663Y-169523771D01*
X122993755Y-169682091D01*
X122685424Y-169829464D01*
X122459055Y-169944553D01*
X122302494Y-170043477D01*
X122203587Y-170142354D01*
X122150180Y-170257304D01*
X122130119Y-170404446D01*
X122131250Y-170599897D01*
X122139743Y-170814689D01*
X122150349Y-171044480D01*
X122166188Y-171195552D01*
X122195397Y-171294977D01*
X122246115Y-171369829D01*
X122326479Y-171447182D01*
X122331112Y-171451324D01*
X122509156Y-171569161D01*
X122659992Y-171605696D01*
X122912579Y-171566350D01*
X123224743Y-171451410D01*
X123587050Y-171265521D01*
X123990068Y-171013328D01*
X124281379Y-170807208D01*
X124433783Y-170700945D01*
X124557214Y-170626285D01*
X124621410Y-170600280D01*
X124697300Y-170639676D01*
X124789368Y-170731061D01*
X124861824Y-170834224D01*
X124881746Y-170892779D01*
X124842659Y-170957771D01*
X124733046Y-171072121D01*
X124567871Y-171222801D01*
X124362101Y-171396782D01*
X124130701Y-171581036D01*
X123888636Y-171762537D01*
X123853632Y-171787786D01*
X123384609Y-172093684D01*
X122946602Y-172313448D01*
X122522635Y-172455271D01*
X122422881Y-172478243D01*
X122182788Y-172525115D01*
X122009332Y-172546384D01*
X121866839Y-172543532D01*
X121719637Y-172518038D01*
X121680941Y-172509025D01*
X121414927Y-172396282D01*
X121209078Y-172199547D01*
X121063055Y-171917947D01*
X120976518Y-171550608D01*
X120949125Y-171096657D01*
X120968788Y-170679655D01*
X121025215Y-170223708D01*
X121119181Y-169793578D01*
X121216395Y-169493389D01*
X122290590Y-169493389D01*
X122332022Y-169504900D01*
X122449467Y-169460485D01*
X122632642Y-169365489D01*
X122871265Y-169225257D01*
X123155056Y-169045135D01*
X123163715Y-169039463D01*
X123553532Y-168756980D01*
X123862253Y-168475839D01*
X124084251Y-168202708D01*
X124213904Y-167944260D01*
X124247344Y-167754309D01*
X124207290Y-167537369D01*
X124098635Y-167337073D01*
X123944746Y-167194906D01*
X123926583Y-167184867D01*
X123717422Y-167132786D01*
X123491192Y-167173205D01*
X123263588Y-167297992D01*
X123050302Y-167499013D01*
X122894228Y-167719913D01*
X122786748Y-167929070D01*
X122671954Y-168195126D01*
X122558483Y-168492703D01*
X122454974Y-168796422D01*
X122370065Y-169080905D01*
X122312394Y-169320772D01*
X122290600Y-169490644D01*
X122290590Y-169493389D01*
X121216395Y-169493389D01*
X121259537Y-169360170D01*
X121455138Y-168894390D01*
X121609749Y-168573164D01*
X121894181Y-168071166D01*
X122216244Y-167619926D01*
X122563541Y-167233392D01*
X122923676Y-166925513D01*
X123251569Y-166725720D01*
X123605736Y-166590422D01*
X123982059Y-166510228D01*
X124344093Y-166490719D01*
X124590755Y-166520688D01*
G36*
X129311518Y-166532313D02*
G01*
X129634310Y-166636589D01*
X129891713Y-166802291D01*
X130072363Y-167025147D01*
X130120319Y-167128631D01*
X130149741Y-167337212D01*
X130089376Y-167528627D01*
X129955201Y-167681908D01*
X129763194Y-167776092D01*
X129611941Y-167795696D01*
X129506162Y-167770406D01*
X129379138Y-167686137D01*
X129212782Y-167530289D01*
X129175119Y-167491425D01*
X129017024Y-167332563D01*
X128868748Y-167193887D01*
X128759255Y-167102339D01*
X128748791Y-167094899D01*
X128547030Y-167012401D01*
X128338701Y-167020400D01*
X128141614Y-167106405D01*
X127973579Y-167257925D01*
X127852406Y-167462469D01*
X127795906Y-167707547D01*
X127793923Y-167764583D01*
X127813417Y-167934166D01*
X127877158Y-168116531D01*
X127993030Y-168325186D01*
X128168918Y-168573638D01*
X128412708Y-168875396D01*
X128507122Y-168986321D01*
X128704536Y-169225915D01*
X128890752Y-169469633D01*
X129046972Y-169691695D01*
X129154396Y-169866324D01*
X129168067Y-169892675D01*
X129318153Y-170298964D01*
X129368584Y-170696928D01*
X129325535Y-171077785D01*
X129195184Y-171432752D01*
X128983707Y-171753046D01*
X128697280Y-172029885D01*
X128342081Y-172254486D01*
X127924286Y-172418067D01*
X127450071Y-172511846D01*
X127317673Y-172523754D01*
X127109350Y-172534053D01*
X126931757Y-172535786D01*
X126820604Y-172528682D01*
X126814965Y-172527574D01*
X126702654Y-172503755D01*
X126534529Y-172469093D01*
X126435227Y-172448922D01*
X126106877Y-172335942D01*
X125840761Y-172149109D01*
X125647815Y-171901006D01*
X125538974Y-171604213D01*
X125518506Y-171394276D01*
X125549861Y-171131842D01*
X125647700Y-170946511D01*
X125817685Y-170828776D01*
X125865968Y-170810790D01*
X126090375Y-170779185D01*
X126291655Y-170846817D01*
X126404860Y-170933086D01*
X126479464Y-171025980D01*
X126515324Y-171150841D01*
X126523923Y-171326506D01*
X126549635Y-171602805D01*
X126633216Y-171802020D01*
X126784333Y-171941290D01*
X126904008Y-172000266D01*
X127195246Y-172064495D01*
X127497653Y-172041693D01*
X127788986Y-171942609D01*
X128046999Y-171777996D01*
X128249451Y-171558603D01*
X128374098Y-171295182D01*
X128375819Y-171288891D01*
X128406032Y-171134752D01*
X128405121Y-170986977D01*
X128366431Y-170832259D01*
X128283310Y-170657293D01*
X128149103Y-170448770D01*
X127957155Y-170193387D01*
X127700813Y-169877834D01*
X127624328Y-169786125D01*
X127384932Y-169485309D01*
X127209675Y-169225918D01*
X127082432Y-168980395D01*
X126987077Y-168721184D01*
X126972349Y-168671954D01*
X126902849Y-168259351D01*
X126936694Y-167864306D01*
X127071930Y-167493780D01*
X127306599Y-167154732D01*
X127436056Y-167021786D01*
X127703580Y-166807399D01*
X127989347Y-166658431D01*
X128327393Y-166559217D01*
X128515228Y-166525130D01*
X128934703Y-166493735D01*
X129311518Y-166532313D01*
G37*
X129311518Y-166532313D02*
X129634310Y-166636589D01*
X129891713Y-166802291D01*
X130072363Y-167025147D01*
X130120319Y-167128631D01*
X130149741Y-167337212D01*
X130089376Y-167528627D01*
X129955201Y-167681908D01*
X129763194Y-167776092D01*
X129611941Y-167795696D01*
X129506162Y-167770406D01*
X129379138Y-167686137D01*
X129212782Y-167530289D01*
X129175119Y-167491425D01*
X129017024Y-167332563D01*
X128868748Y-167193887D01*
X128759255Y-167102339D01*
X128748791Y-167094899D01*
X128547030Y-167012401D01*
X128338701Y-167020400D01*
X128141614Y-167106405D01*
X127973579Y-167257925D01*
X127852406Y-167462469D01*
X127795906Y-167707547D01*
X127793923Y-167764583D01*
X127813417Y-167934166D01*
X127877158Y-168116531D01*
X127993030Y-168325186D01*
X128168918Y-168573638D01*
X128412708Y-168875396D01*
X128507122Y-168986321D01*
X128704536Y-169225915D01*
X128890752Y-169469633D01*
X129046972Y-169691695D01*
X129154396Y-169866324D01*
X129168067Y-169892675D01*
X129318153Y-170298964D01*
X129368584Y-170696928D01*
X129325535Y-171077785D01*
X129195184Y-171432752D01*
X128983707Y-171753046D01*
X128697280Y-172029885D01*
X128342081Y-172254486D01*
X127924286Y-172418067D01*
X127450071Y-172511846D01*
X127317673Y-172523754D01*
X127109350Y-172534053D01*
X126931757Y-172535786D01*
X126820604Y-172528682D01*
X126814965Y-172527574D01*
X126702654Y-172503755D01*
X126534529Y-172469093D01*
X126435227Y-172448922D01*
X126106877Y-172335942D01*
X125840761Y-172149109D01*
X125647815Y-171901006D01*
X125538974Y-171604213D01*
X125518506Y-171394276D01*
X125549861Y-171131842D01*
X125647700Y-170946511D01*
X125817685Y-170828776D01*
X125865968Y-170810790D01*
X126090375Y-170779185D01*
X126291655Y-170846817D01*
X126404860Y-170933086D01*
X126479464Y-171025980D01*
X126515324Y-171150841D01*
X126523923Y-171326506D01*
X126549635Y-171602805D01*
X126633216Y-171802020D01*
X126784333Y-171941290D01*
X126904008Y-172000266D01*
X127195246Y-172064495D01*
X127497653Y-172041693D01*
X127788986Y-171942609D01*
X128046999Y-171777996D01*
X128249451Y-171558603D01*
X128374098Y-171295182D01*
X128375819Y-171288891D01*
X128406032Y-171134752D01*
X128405121Y-170986977D01*
X128366431Y-170832259D01*
X128283310Y-170657293D01*
X128149103Y-170448770D01*
X127957155Y-170193387D01*
X127700813Y-169877834D01*
X127624328Y-169786125D01*
X127384932Y-169485309D01*
X127209675Y-169225918D01*
X127082432Y-168980395D01*
X126987077Y-168721184D01*
X126972349Y-168671954D01*
X126902849Y-168259351D01*
X126936694Y-167864306D01*
X127071930Y-167493780D01*
X127306599Y-167154732D01*
X127436056Y-167021786D01*
X127703580Y-166807399D01*
X127989347Y-166658431D01*
X128327393Y-166559217D01*
X128515228Y-166525130D01*
X128934703Y-166493735D01*
X129311518Y-166532313D01*
D11*
X138884810Y-172069380D03*
D12*
X46470001Y-173579999D03*
X79460000Y-192370000D03*
X65100000Y-210940000D03*
D13*
X138884810Y-172069380D02*
X138884810Y-190835190D01*
X138884810Y-190835190D02*
X137100000Y-192620000D01*
X79710000Y-192620000D02*
X79460000Y-192370000D01*
X137100000Y-192620000D02*
X79710000Y-192620000D01*
X138884810Y-209110709D02*
X138820000Y-209175519D01*
X138884810Y-190835190D02*
X138884810Y-209110709D01*
X137447769Y-210547750D02*
X137412250Y-210547750D01*
X138820000Y-209175519D02*
X137447769Y-210547750D01*
X137412250Y-210547750D02*
X136330000Y-211630000D01*
X65790000Y-211630000D02*
X65100000Y-210940000D01*
X136330000Y-211630000D02*
X65790000Y-211630000D01*
X99000000Y-172660000D02*
X98080001Y-173579999D01*
X98080001Y-173579999D02*
X46470001Y-173579999D01*
X138294190Y-172660000D02*
X99000000Y-172660000D01*
X138884810Y-172069380D02*
X138294190Y-172660000D01*
M02*
