G04 #@! TF.GenerationSoftware,KiCad,Pcbnew,(5.1.10-1-10_14)*
G04 #@! TF.CreationDate,2022-01-21T05:32:34+09:00*
G04 #@! TF.ProjectId,Jones,4a6f6e65-732e-46b6-9963-61645f706362,v.1.01 (042)*
G04 #@! TF.SameCoordinates,Original*
G04 #@! TF.FileFunction,Profile,NP*
%FSLAX46Y46*%
G04 Gerber Fmt 4.6, Leading zero omitted, Abs format (unit mm)*
G04 Created by KiCad (PCBNEW (5.1.10-1-10_14)) date 2022-01-21 05:32:34*
%MOMM*%
%LPD*%
G01*
G04 APERTURE LIST*
G04 #@! TA.AperFunction,Profile*
%ADD10C,0.150000*%
G04 #@! TD*
G04 #@! TA.AperFunction,Profile*
%ADD11C,0.300000*%
G04 #@! TD*
G04 APERTURE END LIST*
D10*
X281270856Y-47710766D02*
X280770856Y-48010767D01*
X280750000Y-46950040D02*
G75*
G02*
X281270856Y-47710766I260428J-380363D01*
G01*
X280750000Y-46950040D02*
X280250000Y-47250041D01*
X280770856Y-48010766D02*
G75*
G02*
X280250000Y-47250040I-260428J380363D01*
G01*
X24295751Y-82369637D02*
X26841336Y-82369636D01*
X24295752Y-76644637D02*
G75*
G02*
X24225040Y-75725401I-35356J459618D01*
G01*
X24295751Y-76644637D02*
X26841336Y-76644636D01*
X24225040Y-81450400D02*
X26770625Y-81450400D01*
X24295752Y-82369637D02*
G75*
G02*
X24225040Y-81450401I-35356J459618D01*
G01*
X29807450Y-79632811D02*
X29807449Y-78316515D01*
X28888214Y-79703523D02*
X28888213Y-78387226D01*
X29807450Y-79632811D02*
G75*
G02*
X28888214Y-79703523I-459618J-35356D01*
G01*
X28888214Y-78387227D02*
G75*
G02*
X29807450Y-78316515I459618J35356D01*
G01*
X24225040Y-75725400D02*
X26770625Y-75725400D01*
X26770624Y-75725401D02*
G75*
G02*
X26841336Y-76644637I35356J-459618D01*
G01*
X26770624Y-81450401D02*
G75*
G02*
X26841336Y-82369637I35356J-459618D01*
G01*
X300467630Y-78442989D02*
X300467631Y-79759285D01*
X301386866Y-78372277D02*
X301386867Y-79688574D01*
X301386866Y-79688573D02*
G75*
G02*
X300467630Y-79759285I-459618J-35356D01*
G01*
X300467630Y-78442989D02*
G75*
G02*
X301386866Y-78372277I459618J35356D01*
G01*
X305979329Y-81431163D02*
X303433744Y-81431164D01*
X305979328Y-81431163D02*
G75*
G02*
X306050040Y-82350399I35356J-459618D01*
G01*
X303504456Y-82350399D02*
G75*
G02*
X303433744Y-81431163I-35356J459618D01*
G01*
X306050040Y-82350400D02*
X303504455Y-82350400D01*
X305979329Y-75706163D02*
X303433744Y-75706164D01*
X305979328Y-75706163D02*
G75*
G02*
X306050040Y-76625399I35356J-459618D01*
G01*
X303504456Y-76625399D02*
G75*
G02*
X303433744Y-75706163I-35356J459618D01*
G01*
X306050040Y-76625400D02*
X303504455Y-76625400D01*
X211336793Y-104481344D02*
X210196847Y-105139493D01*
X210717703Y-105900218D02*
G75*
G02*
X210196847Y-105139492I-260428J380363D01*
G01*
X211857649Y-105242070D02*
X210717703Y-105900219D01*
X211336793Y-104481344D02*
G75*
G02*
X211857649Y-105242070I260428J-380363D01*
G01*
X282854456Y-47750399D02*
G75*
G02*
X282783744Y-46831163I-35356J459618D01*
G01*
X284100040Y-46831163D02*
X282783744Y-46831164D01*
X284100040Y-46831163D02*
G75*
G02*
X284170752Y-47750399I35356J-459618D01*
G01*
X284170752Y-47750399D02*
X282854455Y-47750400D01*
X216679328Y-104331164D02*
G75*
G02*
X216750040Y-105250400I35356J-459618D01*
G01*
X216679329Y-104331164D02*
X214133744Y-104331165D01*
X214204456Y-105250400D02*
G75*
G02*
X214133744Y-104331164I-35356J459618D01*
G01*
X216750040Y-105250401D02*
X214204455Y-105250401D01*
X216336793Y-109431344D02*
X215196847Y-110089493D01*
X215717703Y-110850218D02*
G75*
G02*
X215196847Y-110089492I-260428J380363D01*
G01*
X216857649Y-110192070D02*
X215717703Y-110850219D01*
X216336793Y-109431344D02*
G75*
G02*
X216857649Y-110192070I260428J-380363D01*
G01*
X149720752Y-72900399D02*
X148404455Y-72900400D01*
X149650040Y-71981163D02*
X148333744Y-71981164D01*
X149650040Y-71981163D02*
G75*
G02*
X149720752Y-72900399I35356J-459618D01*
G01*
X148404456Y-72900399D02*
G75*
G02*
X148333744Y-71981163I-35356J459618D01*
G01*
X152920752Y-72900399D02*
X151604455Y-72900400D01*
X152850040Y-71981163D02*
X151533744Y-71981164D01*
X152850040Y-71981163D02*
G75*
G02*
X152920752Y-72900399I35356J-459618D01*
G01*
X151604456Y-72900399D02*
G75*
G02*
X151533744Y-71981163I-35356J459618D01*
G01*
X210804456Y-111050400D02*
G75*
G02*
X210733744Y-110131164I-35356J459618D01*
G01*
X213350040Y-111050401D02*
X210804455Y-111050401D01*
X213279329Y-110131164D02*
X210733744Y-110131165D01*
X213279328Y-110131164D02*
G75*
G02*
X213350040Y-111050400I35356J-459618D01*
G01*
X148600050Y-67157541D02*
G75*
G02*
X148079194Y-66396815I-260428J380363D01*
G01*
X150804591Y-65884750D02*
X148600050Y-67157542D01*
X150283735Y-65124023D02*
X148079194Y-66396816D01*
X150283734Y-65124023D02*
G75*
G02*
X150804590Y-65884749I260428J-380363D01*
G01*
X152661868Y-65925399D02*
X153592631Y-66856161D01*
X152661868Y-65925399D02*
G75*
G02*
X153261866Y-65225401I299999J349999D01*
G01*
X153261866Y-65225401D02*
X154192629Y-66156162D01*
X154192628Y-66156163D02*
G75*
G02*
X153592630Y-66856161I-299999J-349999D01*
G01*
X281804456Y-54000399D02*
G75*
G02*
X281733744Y-53081163I-35356J459618D01*
G01*
X283120752Y-54000399D02*
X281804455Y-54000400D01*
X283050040Y-53081163D02*
X281733744Y-53081164D01*
X283050040Y-53081163D02*
G75*
G02*
X283120752Y-54000399I35356J-459618D01*
G01*
X285117703Y-53800218D02*
G75*
G02*
X284596847Y-53039492I-260428J380363D01*
G01*
X286257649Y-53142070D02*
X285117703Y-53800219D01*
X285736793Y-52381344D02*
X284596847Y-53039493D01*
X285736793Y-52381344D02*
G75*
G02*
X286257649Y-53142070I260428J-380363D01*
G01*
X147300040Y-70845984D02*
G75*
G02*
X146380804Y-70916696I-459618J-35356D01*
G01*
X147300041Y-68300400D02*
X147300041Y-70845985D01*
X146380804Y-68371111D02*
X146380805Y-70916696D01*
X146380804Y-68371112D02*
G75*
G02*
X147300040Y-68300400I459618J35356D01*
G01*
X50800040Y-51500400D02*
X49000041Y-53300401D01*
X50800040Y-51500400D02*
G75*
G02*
X51500038Y-52100398I349999J-299999D01*
G01*
X49700038Y-53900398D02*
G75*
G02*
X49000040Y-53300400I-349999J299999D01*
G01*
X51500039Y-52100399D02*
X49700039Y-53900399D01*
X44150040Y-52200400D02*
G75*
G02*
X44750038Y-51500402I299999J349999D01*
G01*
X46550038Y-53300402D02*
G75*
G02*
X45950040Y-54000400I-299999J-349999D01*
G01*
X45950039Y-54000401D02*
X44150039Y-52200401D01*
X46550038Y-53300402D02*
X44750037Y-51500403D01*
X49000043Y-47600397D02*
G75*
G02*
X49600041Y-46900399I299999J349999D01*
G01*
X51400041Y-48700399D02*
X49600040Y-46900400D01*
X51400041Y-48700399D02*
G75*
G02*
X50800043Y-49400397I-299999J-349999D01*
G01*
X50800042Y-49400398D02*
X49000042Y-47600398D01*
X44850039Y-49300399D02*
G75*
G02*
X44150041Y-48700401I-349999J299999D01*
G01*
X45950041Y-46900401D02*
G75*
G02*
X46650039Y-47500399I349999J-299999D01*
G01*
X45950041Y-46900401D02*
X44150042Y-48700402D01*
X46650040Y-47500400D02*
X44850040Y-49300400D01*
D11*
X307100000Y-85450000D02*
X307100000Y-104450000D01*
X307597918Y-84247918D02*
X307600000Y-80850000D01*
X307600000Y-115150000D02*
X307597918Y-105652082D01*
X307600000Y-77250000D02*
X307597918Y-50952082D01*
X307100000Y-30750000D02*
X307100000Y-49750000D01*
X307597918Y-29547918D02*
X307600000Y-24550000D01*
X22600000Y-77250000D02*
X22602082Y-50952082D01*
X22600000Y-115150000D02*
X22602082Y-105652082D01*
X23100000Y-85450000D02*
X23100000Y-104450000D01*
X23100000Y-30750000D02*
X23100000Y-49750000D01*
X305600000Y-117150000D02*
X271502082Y-117147918D01*
X230997918Y-117147918D02*
X176202082Y-117147918D01*
X154797918Y-117147918D02*
X100102082Y-117147918D01*
X175000000Y-116650000D02*
X156000000Y-116650000D01*
X270300000Y-116650000D02*
X232200000Y-116650000D01*
X98900000Y-116650000D02*
X60800000Y-116650000D01*
X305600000Y-22550000D02*
X271502082Y-22552082D01*
X230997918Y-22552082D02*
X195202082Y-22552082D01*
X135797918Y-22552082D02*
X100002082Y-22552082D01*
X194000000Y-23050000D02*
X137000000Y-23050000D01*
X270300000Y-23050000D02*
X232200000Y-23050000D01*
X98800000Y-23050000D02*
X60700000Y-23050000D01*
X59497918Y-22552082D02*
X46800000Y-22550000D01*
X22602082Y-84247918D02*
X22600000Y-80850000D01*
X23000000Y-80450000D02*
X26400000Y-80450000D01*
X26400000Y-77650000D02*
X23000000Y-77650000D01*
X22602082Y-29547918D02*
X22600000Y-24550000D01*
X303800000Y-80450000D02*
X307200000Y-80450000D01*
X303800000Y-77650000D02*
X307200000Y-77650000D01*
X35300000Y-22050000D02*
X46300000Y-22050000D01*
X24600000Y-22550000D02*
X34800000Y-22550000D01*
X59597918Y-117147918D02*
X24600000Y-117150000D01*
X307348959Y-84848959D02*
G75*
G03*
X307100000Y-85450000I601041J-601041D01*
G01*
X307348959Y-84848959D02*
G75*
G03*
X307597918Y-84247918I-601041J601041D01*
G01*
X307348959Y-105051041D02*
G75*
G02*
X307597918Y-105652082I-601041J-601041D01*
G01*
X307348959Y-105051041D02*
G75*
G02*
X307100000Y-104450000I601041J601041D01*
G01*
X307348959Y-50351041D02*
G75*
G02*
X307597918Y-50952082I-601041J-601041D01*
G01*
X307348959Y-50351041D02*
G75*
G02*
X307100000Y-49750000I601041J601041D01*
G01*
X307348959Y-30148959D02*
G75*
G03*
X307100000Y-30750000I601041J-601041D01*
G01*
X307348959Y-30148959D02*
G75*
G03*
X307597918Y-29547918I-601041J601041D01*
G01*
X22851041Y-105051041D02*
G75*
G03*
X23100000Y-104450000I-601041J601041D01*
G01*
X22851041Y-105051041D02*
G75*
G03*
X22602082Y-105652082I601041J-601041D01*
G01*
X22851041Y-50351041D02*
G75*
G03*
X23100000Y-49750000I-601041J601041D01*
G01*
X22851041Y-50351041D02*
G75*
G03*
X22602082Y-50952082I601041J-601041D01*
G01*
X22851041Y-84848959D02*
G75*
G02*
X22602082Y-84247918I601041J601041D01*
G01*
X22851041Y-84848959D02*
G75*
G02*
X23100000Y-85450000I-601041J-601041D01*
G01*
X22851041Y-30148959D02*
G75*
G02*
X22602082Y-29547918I601041J601041D01*
G01*
X22851041Y-30148959D02*
G75*
G02*
X23100000Y-30750000I-601041J-601041D01*
G01*
X99501041Y-116898959D02*
G75*
G03*
X100102082Y-117147918I601041J601041D01*
G01*
X99501041Y-116898959D02*
G75*
G03*
X98900000Y-116650000I-601041J-601041D01*
G01*
X175601041Y-116898959D02*
G75*
G03*
X176202082Y-117147918I601041J601041D01*
G01*
X175601041Y-116898959D02*
G75*
G03*
X175000000Y-116650000I-601041J-601041D01*
G01*
X270901041Y-116898959D02*
G75*
G03*
X271502082Y-117147918I601041J601041D01*
G01*
X270901041Y-116898959D02*
G75*
G03*
X270300000Y-116650000I-601041J-601041D01*
G01*
X231598959Y-116898959D02*
G75*
G02*
X230997918Y-117147918I-601041J601041D01*
G01*
X231598959Y-116898959D02*
G75*
G02*
X232200000Y-116650000I601041J-601041D01*
G01*
X155398959Y-116898959D02*
G75*
G02*
X154797918Y-117147918I-601041J601041D01*
G01*
X155398959Y-116898959D02*
G75*
G02*
X156000000Y-116650000I601041J-601041D01*
G01*
X60198959Y-116898959D02*
G75*
G02*
X59597918Y-117147918I-601041J601041D01*
G01*
X60198959Y-116898959D02*
G75*
G02*
X60800000Y-116650000I601041J-601041D01*
G01*
X270901041Y-22801041D02*
G75*
G02*
X271502082Y-22552082I601041J-601041D01*
G01*
X270901041Y-22801041D02*
G75*
G02*
X270300000Y-23050000I-601041J601041D01*
G01*
X194601041Y-22801041D02*
G75*
G02*
X195202082Y-22552082I601041J-601041D01*
G01*
X194601041Y-22801041D02*
G75*
G02*
X194000000Y-23050000I-601041J601041D01*
G01*
X99401041Y-22801041D02*
G75*
G02*
X100002082Y-22552082I601041J-601041D01*
G01*
X99401041Y-22801041D02*
G75*
G02*
X98800000Y-23050000I-601041J601041D01*
G01*
X231598959Y-22801041D02*
G75*
G03*
X230997918Y-22552082I-601041J-601041D01*
G01*
X231598959Y-22801041D02*
G75*
G03*
X232200000Y-23050000I601041J601041D01*
G01*
X136398959Y-22801041D02*
G75*
G03*
X135797918Y-22552082I-601041J-601041D01*
G01*
X136398959Y-22801041D02*
G75*
G03*
X137000000Y-23050000I601041J601041D01*
G01*
X60098959Y-22801041D02*
G75*
G03*
X59497918Y-22552082I-601041J-601041D01*
G01*
X60098959Y-22801041D02*
G75*
G03*
X60700000Y-23050000I601041J601041D01*
G01*
X307200000Y-80450000D02*
G75*
G02*
X307600000Y-80850000I0J-400000D01*
G01*
X307600000Y-77250000D02*
G75*
G02*
X307200000Y-77650000I-400000J0D01*
G01*
X22600000Y-80850000D02*
G75*
G02*
X23000000Y-80450000I400000J0D01*
G01*
X23000000Y-77650000D02*
G75*
G02*
X22600000Y-77250000I0J400000D01*
G01*
X24600000Y-22550000D02*
G75*
G03*
X22600000Y-24550000I0J-2000000D01*
G01*
X22600000Y-115150000D02*
G75*
G03*
X24600000Y-117150000I2000000J0D01*
G01*
X305600000Y-117150000D02*
G75*
G03*
X307600000Y-115150000I0J2000000D01*
G01*
X307600000Y-24550000D02*
G75*
G03*
X305600000Y-22550000I-2000000J0D01*
G01*
X27800000Y-79050000D02*
G75*
G03*
X26400000Y-77650000I-1400000J0D01*
G01*
X302400000Y-79050000D02*
G75*
G02*
X303800000Y-77650000I1400000J0D01*
G01*
X303800000Y-80450000D02*
G75*
G02*
X302400000Y-79050000I0J1400000D01*
G01*
X26400000Y-80450000D02*
G75*
G03*
X27800000Y-79050000I0J1400000D01*
G01*
X34800000Y-22550000D02*
G75*
G03*
X35300000Y-22050000I0J500000D01*
G01*
X46300000Y-22050000D02*
G75*
G03*
X46800000Y-22550000I500000J0D01*
G01*
M02*
