G04 #@! TF.GenerationSoftware,KiCad,Pcbnew,(5.1.6-0-10_14)*
G04 #@! TF.CreationDate,2020-07-20T09:45:54+09:00*
G04 #@! TF.ProjectId,Jones,4a6f6e65-732e-46b6-9963-61645f706362,v.0.2*
G04 #@! TF.SameCoordinates,Original*
G04 #@! TF.FileFunction,Legend,Top*
G04 #@! TF.FilePolarity,Positive*
%FSLAX46Y46*%
G04 Gerber Fmt 4.6, Leading zero omitted, Abs format (unit mm)*
G04 Created by KiCad (PCBNEW (5.1.6-0-10_14)) date 2020-07-20 09:45:54*
%MOMM*%
%LPD*%
G01*
G04 APERTURE LIST*
%ADD10C,0.100000*%
%ADD11C,0.120000*%
%ADD12C,0.150000*%
%ADD13C,2.501900*%
%ADD14C,1.400000*%
%ADD15O,7.400240X5.400000*%
%ADD16C,5.400000*%
%ADD17C,4.387800*%
%ADD18C,3.448000*%
%ADD19C,2.150000*%
%ADD20C,3.400000*%
%ADD21R,1.250000X2.000000*%
%ADD22C,2.400000*%
%ADD23R,2.400000X3.600000*%
%ADD24R,2.400000X2.400000*%
%ADD25C,2.600000*%
%ADD26O,2.100000X2.100000*%
%ADD27R,2.100000X2.100000*%
%ADD28O,2.100000X3.100000*%
%ADD29O,1.500000X2.050000*%
G04 APERTURE END LIST*
D10*
G36*
X307550000Y-69675040D02*
G01*
X306700000Y-68825040D01*
X307550000Y-68825040D01*
X307550000Y-69675040D01*
G37*
X307550000Y-69675040D02*
X306700000Y-68825040D01*
X307550000Y-68825040D01*
X307550000Y-69675040D01*
G36*
X307550000Y-61650040D02*
G01*
X306700000Y-60800040D01*
X307550000Y-60800040D01*
X307550000Y-61650040D01*
G37*
X307550000Y-61650040D02*
X306700000Y-60800040D01*
X307550000Y-60800040D01*
X307550000Y-61650040D01*
D11*
X307568750Y-60800000D02*
X306493750Y-60800000D01*
X307568750Y-66700000D02*
X307568750Y-60800000D01*
X303668750Y-66700000D02*
X303668750Y-60800000D01*
X303668750Y-74700000D02*
X303668750Y-68800000D01*
X307568750Y-74700000D02*
X307568750Y-68800000D01*
X307568750Y-68800000D02*
X306493750Y-68800000D01*
X299785530Y-108119140D02*
X299785530Y-107119140D01*
X299285530Y-107619140D02*
X300285530Y-107619140D01*
X303285530Y-101519140D02*
X305685530Y-101519140D01*
X298485530Y-101519140D02*
X301085530Y-101519140D01*
X293885530Y-101519140D02*
X296285530Y-101519140D01*
X295685530Y-114819140D02*
X295985530Y-115119140D01*
X295685530Y-115419140D02*
X295685530Y-114819140D01*
X295985530Y-115119140D02*
X295685530Y-115419140D01*
X293885530Y-113719140D02*
X305685530Y-113719140D01*
X293885530Y-109619140D02*
X293885530Y-113719140D01*
X305685530Y-109619140D02*
X305685530Y-113719140D01*
X305685530Y-101519140D02*
X305685530Y-105619140D01*
X293885530Y-105619140D02*
X293885530Y-101519140D01*
X302785530Y-107619140D02*
G75*
G03*
X302785530Y-107619140I-3000000J0D01*
G01*
D12*
X290330000Y-98930000D02*
X290330000Y-109090000D01*
X292870000Y-98930000D02*
X292870000Y-109090000D01*
X292870000Y-109090000D02*
X290330000Y-109090000D01*
X290330000Y-98930000D02*
X292870000Y-98930000D01*
X303321130Y-64869047D02*
X303321130Y-65345238D01*
X302321130Y-65345238D01*
X302797321Y-64535714D02*
X302797321Y-64202380D01*
X303321130Y-64059523D02*
X303321130Y-64535714D01*
X302321130Y-64535714D01*
X302321130Y-64059523D01*
X303321130Y-63630952D02*
X302321130Y-63630952D01*
X302321130Y-63392857D01*
X302368750Y-63250000D01*
X302463988Y-63154761D01*
X302559226Y-63107142D01*
X302749702Y-63059523D01*
X302892559Y-63059523D01*
X303083035Y-63107142D01*
X303178273Y-63154761D01*
X303273511Y-63250000D01*
X303321130Y-63392857D01*
X303321130Y-63630952D01*
X303321130Y-62107142D02*
X303321130Y-62678571D01*
X303321130Y-62392857D02*
X302321130Y-62392857D01*
X302463988Y-62488095D01*
X302559226Y-62583333D01*
X302606845Y-62678571D01*
X303321130Y-72869047D02*
X303321130Y-73345238D01*
X302321130Y-73345238D01*
X302797321Y-72535714D02*
X302797321Y-72202380D01*
X303321130Y-72059523D02*
X303321130Y-72535714D01*
X302321130Y-72535714D01*
X302321130Y-72059523D01*
X303321130Y-71630952D02*
X302321130Y-71630952D01*
X302321130Y-71392857D01*
X302368750Y-71250000D01*
X302463988Y-71154761D01*
X302559226Y-71107142D01*
X302749702Y-71059523D01*
X302892559Y-71059523D01*
X303083035Y-71107142D01*
X303178273Y-71154761D01*
X303273511Y-71250000D01*
X303321130Y-71392857D01*
X303321130Y-71630952D01*
X302416369Y-70678571D02*
X302368750Y-70630952D01*
X302321130Y-70535714D01*
X302321130Y-70297619D01*
X302368750Y-70202380D01*
X302416369Y-70154761D01*
X302511607Y-70107142D01*
X302606845Y-70107142D01*
X302749702Y-70154761D01*
X303321130Y-70726190D01*
X303321130Y-70107142D01*
X274159523Y-109547659D02*
X274350000Y-109404801D01*
X274540476Y-109547659D01*
X303359523Y-109547659D02*
X303550000Y-109404801D01*
X303740476Y-109547659D01*
X287535714Y-100604761D02*
X287678571Y-100652380D01*
X287916666Y-100652380D01*
X288011904Y-100604761D01*
X288059523Y-100557142D01*
X288107142Y-100461904D01*
X288107142Y-100366666D01*
X288059523Y-100271428D01*
X288011904Y-100223809D01*
X287916666Y-100176190D01*
X287726190Y-100128571D01*
X287630952Y-100080952D01*
X287583333Y-100033333D01*
X287535714Y-99938095D01*
X287535714Y-99842857D01*
X287583333Y-99747619D01*
X287630952Y-99700000D01*
X287726190Y-99652380D01*
X287964285Y-99652380D01*
X288107142Y-99700000D01*
X288535714Y-100652380D02*
X288535714Y-99652380D01*
X288773809Y-99652380D01*
X288916666Y-99700000D01*
X289011904Y-99795238D01*
X289059523Y-99890476D01*
X289107142Y-100080952D01*
X289107142Y-100223809D01*
X289059523Y-100414285D01*
X289011904Y-100509523D01*
X288916666Y-100604761D01*
X288773809Y-100652380D01*
X288535714Y-100652380D01*
X289488095Y-100366666D02*
X289964285Y-100366666D01*
X289392857Y-100652380D02*
X289726190Y-99652380D01*
X290059523Y-100652380D01*
X287559523Y-103154761D02*
X287702380Y-103202380D01*
X287940476Y-103202380D01*
X288035714Y-103154761D01*
X288083333Y-103107142D01*
X288130952Y-103011904D01*
X288130952Y-102916666D01*
X288083333Y-102821428D01*
X288035714Y-102773809D01*
X287940476Y-102726190D01*
X287750000Y-102678571D01*
X287654761Y-102630952D01*
X287607142Y-102583333D01*
X287559523Y-102488095D01*
X287559523Y-102392857D01*
X287607142Y-102297619D01*
X287654761Y-102250000D01*
X287750000Y-102202380D01*
X287988095Y-102202380D01*
X288130952Y-102250000D01*
X289130952Y-103107142D02*
X289083333Y-103154761D01*
X288940476Y-103202380D01*
X288845238Y-103202380D01*
X288702380Y-103154761D01*
X288607142Y-103059523D01*
X288559523Y-102964285D01*
X288511904Y-102773809D01*
X288511904Y-102630952D01*
X288559523Y-102440476D01*
X288607142Y-102345238D01*
X288702380Y-102250000D01*
X288845238Y-102202380D01*
X288940476Y-102202380D01*
X289083333Y-102250000D01*
X289130952Y-102297619D01*
X290035714Y-103202380D02*
X289559523Y-103202380D01*
X289559523Y-102202380D01*
X287364285Y-105421428D02*
X288126190Y-105421428D01*
X287745238Y-105802380D02*
X287745238Y-105040476D01*
X289078571Y-104802380D02*
X288602380Y-104802380D01*
X288554761Y-105278571D01*
X288602380Y-105230952D01*
X288697619Y-105183333D01*
X288935714Y-105183333D01*
X289030952Y-105230952D01*
X289078571Y-105278571D01*
X289126190Y-105373809D01*
X289126190Y-105611904D01*
X289078571Y-105707142D01*
X289030952Y-105754761D01*
X288935714Y-105802380D01*
X288697619Y-105802380D01*
X288602380Y-105754761D01*
X288554761Y-105707142D01*
X289411904Y-104802380D02*
X289745238Y-105802380D01*
X290078571Y-104802380D01*
X287988095Y-107350000D02*
X287892857Y-107302380D01*
X287750000Y-107302380D01*
X287607142Y-107350000D01*
X287511904Y-107445238D01*
X287464285Y-107540476D01*
X287416666Y-107730952D01*
X287416666Y-107873809D01*
X287464285Y-108064285D01*
X287511904Y-108159523D01*
X287607142Y-108254761D01*
X287750000Y-108302380D01*
X287845238Y-108302380D01*
X287988095Y-108254761D01*
X288035714Y-108207142D01*
X288035714Y-107873809D01*
X287845238Y-107873809D01*
X288464285Y-108302380D02*
X288464285Y-107302380D01*
X289035714Y-108302380D01*
X289035714Y-107302380D01*
X289511904Y-108302380D02*
X289511904Y-107302380D01*
X289750000Y-107302380D01*
X289892857Y-107350000D01*
X289988095Y-107445238D01*
X290035714Y-107540476D01*
X290083333Y-107730952D01*
X290083333Y-107873809D01*
X290035714Y-108064285D01*
X289988095Y-108159523D01*
X289892857Y-108254761D01*
X289750000Y-108302380D01*
X289511904Y-108302380D01*
X255109523Y-109547659D02*
X255300000Y-109404801D01*
X255490476Y-109547659D01*
X243834523Y-109547659D02*
X244025000Y-109404801D01*
X244215476Y-109547659D01*
X284309523Y-109547659D02*
X284500000Y-109404801D01*
X284690476Y-109547659D01*
X263290476Y-106402420D02*
X263100000Y-106545278D01*
X262909523Y-106402420D01*
X26509523Y-109547659D02*
X26700000Y-109404801D01*
X26890476Y-109547659D01*
X45559523Y-109547659D02*
X45750000Y-109404801D01*
X45940476Y-109547659D01*
%LPC*%
D13*
X22600000Y-81700950D02*
X26400000Y-81700950D01*
X22600000Y-76399050D02*
X26400000Y-76399050D01*
X303800000Y-81700950D02*
X307650000Y-81700950D01*
X303800000Y-76399050D02*
X307600000Y-76399050D01*
X26400000Y-81700950D02*
G75*
G03*
X29050950Y-79050000I0J2650950D01*
G01*
X29050950Y-79050000D02*
G75*
G03*
X26400000Y-76399050I-2650950J0D01*
G01*
X303800000Y-81700950D02*
G75*
G02*
X301149050Y-79050000I0J2650950D01*
G01*
X301149050Y-79050000D02*
G75*
G02*
X303800000Y-76399050I2650950J0D01*
G01*
D14*
X301961522Y-80888478D03*
X303800000Y-81650000D03*
X305842035Y-81650000D03*
X305842035Y-76450000D03*
X303800000Y-76450000D03*
X301961522Y-77211522D03*
X301200000Y-79050000D03*
X24357965Y-81650000D03*
X24357965Y-76450000D03*
X28238478Y-80888478D03*
X28238478Y-77211522D03*
X26400000Y-81650000D03*
X26400000Y-76450000D03*
X29000000Y-79050000D03*
X152000000Y-71450000D03*
X149600000Y-71450000D03*
X150800000Y-71450000D03*
X149600000Y-67700000D03*
X152000000Y-67700000D03*
X150800000Y-67700000D03*
X214300000Y-109600000D03*
X211900000Y-109600000D03*
X211950000Y-105900000D03*
X214350000Y-105900000D03*
X213100000Y-109600000D03*
X213150000Y-105900000D03*
X283850000Y-48583000D03*
X281450000Y-48600000D03*
X281450000Y-52300000D03*
X283850000Y-52300000D03*
X282650000Y-52300000D03*
X282650000Y-48600000D03*
X49050000Y-51800000D03*
X46450000Y-51750000D03*
X49050000Y-49100000D03*
X46450000Y-49100000D03*
X47800000Y-52350000D03*
X49700000Y-50450000D03*
X45900000Y-50450000D03*
X47800000Y-48550000D03*
D15*
X282650000Y-50450000D03*
X213100000Y-107750000D03*
X150800000Y-69550000D03*
D16*
X47800000Y-50450000D03*
D17*
X191287760Y-99720360D03*
X215163760Y-99720360D03*
D18*
X191287760Y-114960360D03*
X215163760Y-114960360D03*
D19*
X208305760Y-107975360D03*
X198145760Y-107975360D03*
D20*
X199415760Y-105435360D03*
D17*
X203225760Y-107975360D03*
D20*
X205765760Y-102895360D03*
D19*
X217195840Y-107975360D03*
X227355840Y-107975360D03*
D17*
X222275840Y-107975360D03*
D19*
X45745000Y-31775040D03*
X55905000Y-31775040D03*
D20*
X54635000Y-34315040D03*
D17*
X50825000Y-31775040D03*
D20*
X48285000Y-36855040D03*
D21*
X304743750Y-65500000D03*
X306493750Y-65500000D03*
X304743750Y-62000000D03*
X306493750Y-62000000D03*
X306493750Y-70000000D03*
X304743750Y-70000000D03*
X306493750Y-73500000D03*
X304743750Y-73500000D03*
D22*
X302285530Y-100619140D03*
X297285530Y-100619140D03*
D23*
X305385530Y-107619140D03*
X294185530Y-107619140D03*
D22*
X302285530Y-115119140D03*
X299785530Y-115119140D03*
D24*
X297285530Y-115119140D03*
D19*
X26695000Y-107975360D03*
X36855000Y-107975360D03*
D17*
X31775000Y-107975360D03*
D20*
X127183750Y-102895360D03*
D17*
X124643750Y-107975360D03*
D20*
X120833750Y-105435360D03*
D19*
X119563750Y-107975360D03*
X129723750Y-107975360D03*
D18*
X136581750Y-114960360D03*
X112705750Y-114960360D03*
D17*
X136581750Y-99720360D03*
X112705750Y-99720360D03*
D20*
X29235000Y-36855040D03*
D17*
X31775000Y-31775040D03*
D20*
X35585000Y-34315040D03*
D19*
X36855000Y-31775040D03*
X26695000Y-31775040D03*
X65430000Y-50825120D03*
X55270000Y-50825120D03*
D20*
X56540000Y-48285120D03*
D17*
X60350000Y-50825120D03*
D20*
X62890000Y-45745120D03*
X57810000Y-74955200D03*
D17*
X60350000Y-69875200D03*
D20*
X64160000Y-72415200D03*
D19*
X65430000Y-69875200D03*
X55270000Y-69875200D03*
D20*
X72415000Y-83845280D03*
D17*
X69875000Y-88925280D03*
D20*
X66065000Y-86385280D03*
D19*
X64795000Y-88925280D03*
X74955000Y-88925280D03*
X70192500Y-107975360D03*
X60032500Y-107975360D03*
D20*
X61302500Y-105435360D03*
D17*
X65112500Y-107975360D03*
D20*
X67652500Y-102895360D03*
X72415000Y-26695040D03*
D17*
X69875000Y-31775040D03*
D20*
X66065000Y-29235040D03*
D19*
X64795000Y-31775040D03*
X74955000Y-31775040D03*
X84480000Y-50825120D03*
X74320000Y-50825120D03*
D20*
X75590000Y-48285120D03*
D17*
X79400000Y-50825120D03*
D20*
X81940000Y-45745120D03*
X76860000Y-74955200D03*
D17*
X79400000Y-69875200D03*
D20*
X83210000Y-72415200D03*
D19*
X84480000Y-69875200D03*
X74320000Y-69875200D03*
D20*
X91465000Y-83845280D03*
D17*
X88925000Y-88925280D03*
D20*
X85115000Y-86385280D03*
D19*
X83845000Y-88925280D03*
X94005000Y-88925280D03*
D20*
X91465000Y-26695040D03*
D17*
X88925000Y-31775040D03*
D20*
X85115000Y-29235040D03*
D19*
X83845000Y-31775040D03*
X94005000Y-31775040D03*
X103530000Y-50825120D03*
X93370000Y-50825120D03*
D20*
X94640000Y-48285120D03*
D17*
X98450000Y-50825120D03*
D20*
X100990000Y-45745120D03*
X100990000Y-64795200D03*
D17*
X98450000Y-69875200D03*
D20*
X94640000Y-67335200D03*
D19*
X93370000Y-69875200D03*
X103530000Y-69875200D03*
D20*
X110515000Y-83845280D03*
D17*
X107975000Y-88925280D03*
D20*
X104165000Y-86385280D03*
D19*
X102895000Y-88925280D03*
X113055000Y-88925280D03*
D20*
X110515000Y-26695040D03*
D17*
X107975000Y-31775040D03*
D20*
X104165000Y-29235040D03*
D19*
X102895000Y-31775040D03*
X113055000Y-31775040D03*
X122580000Y-50825120D03*
X112420000Y-50825120D03*
D20*
X113690000Y-48285120D03*
D17*
X117500000Y-50825120D03*
D20*
X120040000Y-45745120D03*
X120040000Y-64795200D03*
D17*
X117500000Y-69875200D03*
D20*
X113690000Y-67335200D03*
D19*
X112420000Y-69875200D03*
X122580000Y-69875200D03*
D20*
X129565000Y-83845280D03*
D17*
X127025000Y-88925280D03*
D20*
X123215000Y-86385280D03*
D19*
X121945000Y-88925280D03*
X132105000Y-88925280D03*
D20*
X129565000Y-26695040D03*
D17*
X127025000Y-31775040D03*
D20*
X123215000Y-29235040D03*
D19*
X121945000Y-31775040D03*
X132105000Y-31775040D03*
X141630000Y-50825120D03*
X131470000Y-50825120D03*
D20*
X132740000Y-48285120D03*
D17*
X136550000Y-50825120D03*
D20*
X139090000Y-45745120D03*
X139090000Y-64795200D03*
D17*
X136550000Y-69875200D03*
D20*
X132740000Y-67335200D03*
D19*
X131470000Y-69875200D03*
X141630000Y-69875200D03*
D20*
X148615000Y-83845280D03*
D17*
X146075000Y-88925280D03*
D20*
X142265000Y-86385280D03*
D19*
X140995000Y-88925280D03*
X151155000Y-88925280D03*
X151155000Y-31775040D03*
X140995000Y-31775040D03*
D20*
X142265000Y-29235040D03*
D17*
X146075000Y-31775040D03*
D20*
X148615000Y-26695040D03*
D19*
X160680000Y-50825120D03*
X150520000Y-50825120D03*
D20*
X151790000Y-48285120D03*
D17*
X155600000Y-50825120D03*
D20*
X158140000Y-45745120D03*
X153060000Y-74955200D03*
D17*
X155600000Y-69875200D03*
D20*
X159410000Y-72415200D03*
D19*
X160680000Y-69875200D03*
X150520000Y-69875200D03*
D20*
X167665000Y-83845280D03*
D17*
X165125000Y-88925280D03*
D20*
X161315000Y-86385280D03*
D19*
X160045000Y-88925280D03*
X170205000Y-88925280D03*
D20*
X167665000Y-26695040D03*
D17*
X165125000Y-31775040D03*
D20*
X161315000Y-29235040D03*
D19*
X160045000Y-31775040D03*
X170205000Y-31775040D03*
X179730000Y-50825120D03*
X169570000Y-50825120D03*
D20*
X170840000Y-48285120D03*
D17*
X174650000Y-50825120D03*
D20*
X177190000Y-45745120D03*
D19*
X179730000Y-69875200D03*
X169570000Y-69875200D03*
D20*
X170840000Y-67335200D03*
D17*
X174650000Y-69875200D03*
D20*
X177190000Y-64795200D03*
X186715000Y-83845280D03*
D17*
X184175000Y-88925280D03*
D20*
X180365000Y-86385280D03*
D19*
X179095000Y-88925280D03*
X189255000Y-88925280D03*
X189255000Y-31775040D03*
X179095000Y-31775040D03*
D20*
X180365000Y-29235040D03*
D17*
X184175000Y-31775040D03*
D20*
X186715000Y-26695040D03*
D19*
X198780000Y-50825120D03*
X188620000Y-50825120D03*
D20*
X189890000Y-48285120D03*
D17*
X193700000Y-50825120D03*
D20*
X196240000Y-45745120D03*
D19*
X198780000Y-69875200D03*
X188620000Y-69875200D03*
D20*
X189890000Y-67335200D03*
D17*
X193700000Y-69875200D03*
D20*
X196240000Y-64795200D03*
X205765000Y-83845280D03*
D17*
X203225000Y-88925280D03*
D20*
X199415000Y-86385280D03*
D19*
X198145000Y-88925280D03*
X208305000Y-88925280D03*
D20*
X205765000Y-26695040D03*
D17*
X203225000Y-31775040D03*
D20*
X199415000Y-29235040D03*
D19*
X198145000Y-31775040D03*
X208305000Y-31775040D03*
X217830000Y-50825120D03*
X207670000Y-50825120D03*
D20*
X208940000Y-48285120D03*
D17*
X212750000Y-50825120D03*
D20*
X215290000Y-45745120D03*
D19*
X217830000Y-69875200D03*
X207670000Y-69875200D03*
D20*
X208940000Y-67335200D03*
D17*
X212750000Y-69875200D03*
D20*
X215290000Y-64795200D03*
X224815000Y-83845280D03*
D17*
X222275000Y-88925280D03*
D20*
X218465000Y-86385280D03*
D19*
X217195000Y-88925280D03*
X227355000Y-88925280D03*
X227355000Y-31775040D03*
X217195000Y-31775040D03*
D20*
X218465000Y-29235040D03*
D17*
X222275000Y-31775040D03*
D20*
X224815000Y-26695040D03*
D19*
X236880000Y-50825120D03*
X226720000Y-50825120D03*
D20*
X227990000Y-48285120D03*
D17*
X231800000Y-50825120D03*
D20*
X234340000Y-45745120D03*
D19*
X236880000Y-69875200D03*
X226720000Y-69875200D03*
D20*
X227990000Y-67335200D03*
D17*
X231800000Y-69875200D03*
D20*
X234340000Y-64795200D03*
X243865000Y-26695040D03*
D17*
X241325000Y-31775040D03*
D20*
X237515000Y-29235040D03*
D19*
X236245000Y-31775040D03*
X246405000Y-31775040D03*
D20*
X253390960Y-45745120D03*
D17*
X250850960Y-50825120D03*
D20*
X247040960Y-48285120D03*
D19*
X245770960Y-50825120D03*
X255930960Y-50825120D03*
X265455000Y-31775040D03*
X255295000Y-31775040D03*
D20*
X256565000Y-29235040D03*
D17*
X260375000Y-31775040D03*
D20*
X262915000Y-26695040D03*
D19*
X274981040Y-69875200D03*
X264821040Y-69875200D03*
D20*
X266091040Y-67335200D03*
D17*
X269901040Y-69875200D03*
D20*
X272441040Y-64795200D03*
D19*
X265456000Y-88925280D03*
X255296000Y-88925280D03*
D20*
X256566000Y-86385280D03*
D17*
X260376000Y-88925280D03*
D20*
X262916000Y-83845280D03*
X281965000Y-26695040D03*
D17*
X279425000Y-31775040D03*
D20*
X275615000Y-29235040D03*
D19*
X274345000Y-31775040D03*
X284505000Y-31775040D03*
X303555000Y-31775040D03*
X293395000Y-31775040D03*
D20*
X294665000Y-29235040D03*
D17*
X298475000Y-31775040D03*
D20*
X301015000Y-26695040D03*
D19*
X284506080Y-88925280D03*
X274346080Y-88925280D03*
D20*
X275616080Y-86385280D03*
D17*
X279426080Y-88925280D03*
D20*
X281966080Y-83845280D03*
D19*
X236245920Y-107975360D03*
X246405920Y-107975360D03*
D17*
X241325920Y-107975360D03*
D20*
X272441040Y-45745120D03*
D17*
X269901040Y-50825120D03*
D20*
X266091040Y-48285120D03*
D19*
X264821040Y-50825120D03*
X274981040Y-50825120D03*
X269583560Y-88925280D03*
X279743560Y-88925280D03*
D17*
X274663560Y-88925280D03*
D25*
X274350000Y-107975360D03*
X303550000Y-107975360D03*
D26*
X272370000Y-98800000D03*
X274910000Y-98800000D03*
D27*
X277450000Y-98800000D03*
D19*
X293396160Y-88925280D03*
X303556160Y-88925280D03*
D20*
X302286160Y-91465280D03*
D17*
X298476160Y-88925280D03*
D20*
X295936160Y-94005280D03*
D17*
X50825120Y-107975360D03*
D19*
X45745120Y-107975360D03*
X55905120Y-107975360D03*
X58286380Y-107975360D03*
X48126380Y-107975360D03*
D17*
X53206380Y-107975360D03*
D20*
X41458750Y-102895360D03*
D17*
X38918750Y-107975360D03*
D20*
X35108750Y-105435360D03*
D19*
X33838750Y-107975360D03*
X43998750Y-107975360D03*
X31457500Y-107975360D03*
X41617500Y-107975360D03*
D17*
X36537500Y-107975360D03*
D19*
X29076250Y-107975360D03*
X39236250Y-107975360D03*
D17*
X34156250Y-107975360D03*
X67493940Y-107975360D03*
D19*
X72573940Y-107975360D03*
X62413940Y-107975360D03*
X69557720Y-107975360D03*
X79717720Y-107975360D03*
D17*
X74637720Y-107975360D03*
D19*
X71938980Y-107975360D03*
X82098980Y-107975360D03*
D17*
X77018980Y-107975360D03*
D20*
X91465280Y-102895360D03*
D17*
X88925280Y-107975360D03*
D20*
X85115280Y-105435360D03*
D19*
X83845280Y-107975360D03*
X94005280Y-107975360D03*
X86226540Y-107975360D03*
X96386540Y-107975360D03*
D17*
X91306540Y-107975360D03*
X93687800Y-107975360D03*
D19*
X98767800Y-107975360D03*
X88607800Y-107975360D03*
D20*
X167665600Y-102895360D03*
D17*
X165125600Y-107975360D03*
D20*
X161315600Y-105435360D03*
D19*
X160045600Y-107975360D03*
X170205600Y-107975360D03*
D18*
X177063600Y-114960360D03*
X153187600Y-114960360D03*
D17*
X177063600Y-99720360D03*
X153187600Y-99720360D03*
D19*
X150520560Y-107975360D03*
X160680560Y-107975360D03*
D17*
X155600560Y-107975360D03*
D19*
X191001980Y-107975360D03*
X201161980Y-107975360D03*
D17*
X196081980Y-107975360D03*
D19*
X193383240Y-107975360D03*
X203543240Y-107975360D03*
D17*
X198463240Y-107975360D03*
X200844500Y-107975360D03*
D19*
X205924500Y-107975360D03*
X195764500Y-107975360D03*
X214814580Y-107975360D03*
X224974580Y-107975360D03*
D17*
X219894580Y-107975360D03*
X224657100Y-107975360D03*
D19*
X229737100Y-107975360D03*
X219577100Y-107975360D03*
D17*
X215132060Y-107975360D03*
D19*
X220212060Y-107975360D03*
X210052060Y-107975360D03*
X239262140Y-107975360D03*
X229102140Y-107975360D03*
D20*
X230372140Y-105435360D03*
D17*
X234182140Y-107975360D03*
D20*
X236722140Y-102895360D03*
D17*
X238944660Y-107975360D03*
D19*
X244024660Y-107975360D03*
X233864660Y-107975360D03*
D17*
X246088440Y-107975360D03*
D19*
X251168440Y-107975360D03*
X241008440Y-107975360D03*
D20*
X260534740Y-102895360D03*
D17*
X257994740Y-107975360D03*
D20*
X254184740Y-105435360D03*
D19*
X252914740Y-107975360D03*
X263074740Y-107975360D03*
X248152220Y-107975360D03*
X258312220Y-107975360D03*
D17*
X253232220Y-107975360D03*
D20*
X281966080Y-102895360D03*
D17*
X279426080Y-107975360D03*
D20*
X275616080Y-105435360D03*
D19*
X274346080Y-107975360D03*
X284506080Y-107975360D03*
D17*
X112744440Y-99720360D03*
X212744240Y-99720360D03*
D18*
X112744440Y-114960360D03*
X212744240Y-114960360D03*
D19*
X157664340Y-107975360D03*
X167824340Y-107975360D03*
D17*
X162744340Y-107975360D03*
X155600610Y-99720360D03*
X179413110Y-99720360D03*
D18*
X155600610Y-114960360D03*
X179413110Y-114960360D03*
D19*
X162426860Y-107975360D03*
X172586860Y-107975360D03*
D17*
X167506860Y-107975360D03*
D20*
X43840080Y-83845280D03*
D17*
X41300080Y-88925280D03*
D20*
X37490080Y-86385280D03*
D19*
X36220080Y-88925280D03*
X46380080Y-88925280D03*
D18*
X53238080Y-81940280D03*
X29362080Y-81940280D03*
D17*
X53238080Y-97180280D03*
X29362080Y-97180280D03*
D20*
X293872380Y-64795200D03*
D17*
X291332380Y-69875200D03*
D20*
X287522380Y-67335200D03*
D19*
X286252380Y-69875200D03*
X296412380Y-69875200D03*
D17*
X274662500Y-61620200D03*
X250850000Y-61620200D03*
D18*
X274662500Y-76860200D03*
X250850000Y-76860200D03*
D19*
X267836250Y-69875200D03*
X257676250Y-69875200D03*
D17*
X262756250Y-69875200D03*
D19*
X255930000Y-69875200D03*
X245770000Y-69875200D03*
D20*
X247040000Y-67335200D03*
D17*
X250850000Y-69875200D03*
D20*
X253390000Y-64795200D03*
D19*
X269583560Y-50825120D03*
X279743560Y-50825120D03*
D17*
X274663560Y-50825120D03*
X267519780Y-88925280D03*
D19*
X262439780Y-88925280D03*
X272599780Y-88925280D03*
X288633640Y-69875200D03*
X298793640Y-69875200D03*
D17*
X293713640Y-69875200D03*
D20*
X291173640Y-55905120D03*
D17*
X293713640Y-50825120D03*
D20*
X297523640Y-53365120D03*
D19*
X298793640Y-50825120D03*
X288633640Y-50825120D03*
X291014900Y-69875200D03*
X301174900Y-69875200D03*
D17*
X296094900Y-69875200D03*
X293713640Y-88925280D03*
D19*
X288633640Y-88925280D03*
X298793640Y-88925280D03*
D17*
X296094900Y-88925280D03*
D19*
X291014900Y-88925280D03*
X301174900Y-88925280D03*
D20*
X243865920Y-83845280D03*
D17*
X241325920Y-88925280D03*
D20*
X237515920Y-86385280D03*
D19*
X236245920Y-88925280D03*
X246405920Y-88925280D03*
X243389700Y-88925280D03*
X253549700Y-88925280D03*
D17*
X248469700Y-88925280D03*
D19*
X284506080Y-50825120D03*
X274346080Y-50825120D03*
D17*
X279426080Y-50825120D03*
D27*
X75500000Y-42000000D03*
D26*
X72960000Y-42000000D03*
X70420000Y-42000000D03*
D27*
X306000000Y-49000000D03*
D20*
X39077500Y-45745120D03*
D17*
X36537500Y-50825120D03*
D20*
X32727500Y-48285120D03*
D19*
X31457500Y-50825120D03*
X41617500Y-50825120D03*
X41617500Y-69875200D03*
X31457500Y-69875200D03*
D20*
X32727500Y-67335200D03*
D17*
X36537500Y-69875200D03*
D20*
X39077500Y-64795200D03*
D28*
X44450000Y-23850000D03*
X37150000Y-23850000D03*
D29*
X42400000Y-29150000D03*
X41600000Y-27450000D03*
X40800000Y-29150000D03*
X40000000Y-27450000D03*
X39200000Y-29150000D03*
D20*
X253073480Y-55905120D03*
D17*
X255613480Y-50825120D03*
D20*
X259423480Y-53365120D03*
D19*
X260693480Y-50825120D03*
X250533480Y-50825120D03*
D20*
X29235040Y-94005280D03*
D17*
X31775040Y-88925280D03*
D20*
X35585040Y-91465280D03*
D19*
X36855040Y-88925280D03*
X26695040Y-88925280D03*
D20*
X279266250Y-74955200D03*
D17*
X281806250Y-69875200D03*
D20*
X285616250Y-72415200D03*
D19*
X286886250Y-69875200D03*
X276726250Y-69875200D03*
D18*
X269868250Y-76860200D03*
X293744250Y-76860200D03*
D17*
X269868250Y-61620200D03*
X293744250Y-61620200D03*
D20*
X286410000Y-36855040D03*
D17*
X288950000Y-31775040D03*
D20*
X292760000Y-34315040D03*
D19*
X294030000Y-31775040D03*
X283870000Y-31775040D03*
D18*
X277012000Y-24790040D03*
X300888000Y-24790040D03*
D17*
X277012000Y-40030040D03*
X300888000Y-40030040D03*
D20*
X301016160Y-45745120D03*
D17*
X298476160Y-50825120D03*
D20*
X294666160Y-48285120D03*
D19*
X293396160Y-50825120D03*
X303556160Y-50825120D03*
D20*
X48285120Y-94005280D03*
D17*
X50825120Y-88925280D03*
D20*
X54635120Y-91465280D03*
D19*
X55905120Y-88925280D03*
X45745120Y-88925280D03*
D20*
X124485440Y-113055360D03*
D17*
X127025440Y-107975360D03*
D20*
X130835440Y-110515360D03*
D19*
X132105440Y-107975360D03*
X121945440Y-107975360D03*
D18*
X115087440Y-114960360D03*
X138963440Y-114960360D03*
D17*
X115087440Y-99720360D03*
X138963440Y-99720360D03*
D20*
X150996780Y-102895360D03*
D17*
X148456780Y-107975360D03*
D20*
X144646780Y-105435360D03*
D19*
X143376780Y-107975360D03*
X153536780Y-107975360D03*
D18*
X198456680Y-114960360D03*
X98456880Y-114960360D03*
D17*
X198456680Y-99720360D03*
X98456880Y-99720360D03*
D20*
X186715680Y-102895360D03*
D17*
X184175680Y-107975360D03*
D20*
X180365680Y-105435360D03*
D19*
X179095680Y-107975360D03*
X189255680Y-107975360D03*
D18*
X196113680Y-114960360D03*
X172237680Y-114960360D03*
D17*
X196113680Y-99720360D03*
X172237680Y-99720360D03*
D20*
X257836000Y-113055360D03*
D17*
X260376000Y-107975360D03*
D20*
X264186000Y-110515360D03*
D19*
X265456000Y-107975360D03*
X255296000Y-107975360D03*
D25*
X255300000Y-107975400D03*
X244025000Y-107975400D03*
X284500000Y-107975040D03*
X263075000Y-107975400D03*
X26700000Y-107975040D03*
X45750000Y-107975040D03*
D19*
X298476160Y-113055400D03*
X298476160Y-102895400D03*
D17*
X298476160Y-107975400D03*
M02*
