G04 #@! TF.GenerationSoftware,KiCad,Pcbnew,(5.1.6-0-10_14)*
G04 #@! TF.CreationDate,2020-10-11T16:31:34+09:00*
G04 #@! TF.ProjectId,Jones,4a6f6e65-732e-46b6-9963-61645f706362,v.0.2*
G04 #@! TF.SameCoordinates,Original*
G04 #@! TF.FileFunction,Other,Fab,Top*
%FSLAX46Y46*%
G04 Gerber Fmt 4.6, Leading zero omitted, Abs format (unit mm)*
G04 Created by KiCad (PCBNEW (5.1.6-0-10_14)) date 2020-10-11 16:31:34*
%MOMM*%
%LPD*%
G01*
G04 APERTURE LIST*
%ADD10C,0.120000*%
%ADD11C,0.100000*%
%ADD12C,0.150000*%
%ADD13C,0.090000*%
G04 APERTURE END LIST*
D10*
X298493580Y-104965550D02*
X298493580Y-110965550D01*
X301493580Y-107965550D02*
X295493580Y-107965550D01*
X303193580Y-101965550D02*
X304293580Y-102965550D01*
X292693580Y-101965550D02*
X303193580Y-101965550D01*
X292693580Y-113965550D02*
X292693580Y-101965550D01*
X304293580Y-113965550D02*
X292693580Y-113965550D01*
X304293580Y-102965550D02*
X304293580Y-113965550D01*
X301493580Y-107965550D02*
G75*
G03*
X301493580Y-107965550I-3000000J0D01*
G01*
D11*
X51350000Y-86350040D02*
X52350000Y-85350040D01*
X60350000Y-94350040D02*
X51350000Y-94350040D01*
X60350000Y-85350040D02*
X60350000Y-94350040D01*
X52350000Y-85350040D02*
X60350000Y-85350040D01*
X51350000Y-94350040D02*
X51350000Y-86350040D01*
D10*
X34771347Y-107952828D02*
G75*
G03*
X34771347Y-107952828I-3000000J0D01*
G01*
X37571347Y-102952828D02*
X37571347Y-113952828D01*
X37571347Y-113952828D02*
X25971347Y-113952828D01*
X25971347Y-113952828D02*
X25971347Y-101952828D01*
X25971347Y-101952828D02*
X36471347Y-101952828D01*
X36471347Y-101952828D02*
X37571347Y-102952828D01*
X34771347Y-107952828D02*
X28771347Y-107952828D01*
X31771347Y-104952828D02*
X31771347Y-110952828D01*
D11*
X271815000Y-39330000D02*
X271815000Y-38580000D01*
X271815000Y-38580000D02*
X278165000Y-38580000D01*
X278165000Y-38580000D02*
X278165000Y-39580000D01*
X278165000Y-39580000D02*
X272065000Y-39580000D01*
X272065000Y-39580000D02*
X271815000Y-39330000D01*
X272250000Y-41550000D02*
X272250000Y-39580000D01*
X272250000Y-41550000D02*
X272650000Y-41550000D01*
X272650000Y-41550000D02*
X272650000Y-39580000D01*
X272250000Y-38580000D02*
X272250000Y-34580000D01*
X272250000Y-34580000D02*
X272650000Y-34580000D01*
X272650000Y-38580000D02*
X272650000Y-34580000D01*
X273520000Y-41550000D02*
X273520000Y-39580000D01*
X273520000Y-41550000D02*
X273920000Y-41550000D01*
X273920000Y-41550000D02*
X273920000Y-39580000D01*
X273520000Y-38580000D02*
X273520000Y-34580000D01*
X273520000Y-34580000D02*
X273920000Y-34580000D01*
X273920000Y-38580000D02*
X273920000Y-34580000D01*
X274790000Y-41550000D02*
X274790000Y-39580000D01*
X274790000Y-41550000D02*
X275190000Y-41550000D01*
X275190000Y-41550000D02*
X275190000Y-39580000D01*
X274790000Y-38580000D02*
X274790000Y-34580000D01*
X274790000Y-34580000D02*
X275190000Y-34580000D01*
X275190000Y-38580000D02*
X275190000Y-34580000D01*
X276060000Y-41550000D02*
X276060000Y-39580000D01*
X276060000Y-41550000D02*
X276460000Y-41550000D01*
X276460000Y-41550000D02*
X276460000Y-39580000D01*
X276060000Y-38580000D02*
X276060000Y-34580000D01*
X276060000Y-34580000D02*
X276460000Y-34580000D01*
X276460000Y-38580000D02*
X276460000Y-34580000D01*
X277330000Y-41550000D02*
X277330000Y-39580000D01*
X277330000Y-41550000D02*
X277730000Y-41550000D01*
X277730000Y-41550000D02*
X277730000Y-39580000D01*
X277330000Y-38580000D02*
X277330000Y-34580000D01*
X277330000Y-34580000D02*
X277730000Y-34580000D01*
X277730000Y-38580000D02*
X277730000Y-34580000D01*
X289930000Y-38580000D02*
X289930000Y-34580000D01*
X289530000Y-34580000D02*
X289930000Y-34580000D01*
X289530000Y-38580000D02*
X289530000Y-34580000D01*
X289930000Y-41550000D02*
X289930000Y-39580000D01*
X289530000Y-41550000D02*
X289930000Y-41550000D01*
X289530000Y-41550000D02*
X289530000Y-39580000D01*
X288660000Y-38580000D02*
X288660000Y-34580000D01*
X288260000Y-34580000D02*
X288660000Y-34580000D01*
X288260000Y-38580000D02*
X288260000Y-34580000D01*
X288660000Y-41550000D02*
X288660000Y-39580000D01*
X288260000Y-41550000D02*
X288660000Y-41550000D01*
X288260000Y-41550000D02*
X288260000Y-39580000D01*
X287390000Y-38580000D02*
X287390000Y-34580000D01*
X286990000Y-34580000D02*
X287390000Y-34580000D01*
X286990000Y-38580000D02*
X286990000Y-34580000D01*
X287390000Y-41550000D02*
X287390000Y-39580000D01*
X286990000Y-41550000D02*
X287390000Y-41550000D01*
X286990000Y-41550000D02*
X286990000Y-39580000D01*
X286120000Y-38580000D02*
X286120000Y-34580000D01*
X285720000Y-34580000D02*
X286120000Y-34580000D01*
X285720000Y-38580000D02*
X285720000Y-34580000D01*
X286120000Y-41550000D02*
X286120000Y-39580000D01*
X285720000Y-41550000D02*
X286120000Y-41550000D01*
X285720000Y-41550000D02*
X285720000Y-39580000D01*
X284850000Y-38580000D02*
X284850000Y-34580000D01*
X284450000Y-34580000D02*
X284850000Y-34580000D01*
X284450000Y-38580000D02*
X284450000Y-34580000D01*
X284850000Y-41550000D02*
X284850000Y-39580000D01*
X284450000Y-41550000D02*
X284850000Y-41550000D01*
X284450000Y-41550000D02*
X284450000Y-39580000D01*
X284265000Y-39580000D02*
X284015000Y-39330000D01*
X290365000Y-39580000D02*
X284265000Y-39580000D01*
X290365000Y-38580000D02*
X290365000Y-39580000D01*
X284015000Y-38580000D02*
X290365000Y-38580000D01*
X284015000Y-39330000D02*
X284015000Y-38580000D01*
X27150000Y-62450040D02*
G75*
G03*
X27150000Y-62450040I-1500000J0D01*
G01*
X27400000Y-60700040D02*
X23900000Y-60700040D01*
X27400000Y-64200040D02*
X27400000Y-60700040D01*
X23900000Y-64200040D02*
X27400000Y-64200040D01*
X23900000Y-60700040D02*
X23900000Y-64200040D01*
X27400000Y-63200040D02*
X26400000Y-64200040D01*
X27400000Y-67400040D02*
X26400000Y-68400040D01*
X23900000Y-64900040D02*
X23900000Y-68400040D01*
X23900000Y-68400040D02*
X27400000Y-68400040D01*
X27400000Y-68400040D02*
X27400000Y-64900040D01*
X27400000Y-64900040D02*
X23900000Y-64900040D01*
X27150000Y-66650040D02*
G75*
G03*
X27150000Y-66650040I-1500000J0D01*
G01*
X27150000Y-85250040D02*
G75*
G03*
X27150000Y-85250040I-1500000J0D01*
G01*
X27400000Y-83500040D02*
X23900000Y-83500040D01*
X27400000Y-87000040D02*
X27400000Y-83500040D01*
X23900000Y-87000040D02*
X27400000Y-87000040D01*
X23900000Y-83500040D02*
X23900000Y-87000040D01*
X27400000Y-86000040D02*
X26400000Y-87000040D01*
X27400000Y-90200040D02*
X26400000Y-91200040D01*
X23900000Y-87700040D02*
X23900000Y-91200040D01*
X23900000Y-91200040D02*
X27400000Y-91200040D01*
X27400000Y-91200040D02*
X27400000Y-87700040D01*
X27400000Y-87700040D02*
X23900000Y-87700040D01*
X27150000Y-89450040D02*
G75*
G03*
X27150000Y-89450040I-1500000J0D01*
G01*
X302700000Y-42500040D02*
X303700000Y-41500040D01*
X306200000Y-45000040D02*
X306200000Y-41500040D01*
X306200000Y-41500040D02*
X302700000Y-41500040D01*
X302700000Y-41500040D02*
X302700000Y-45000040D01*
X302700000Y-45000040D02*
X306200000Y-45000040D01*
X305950000Y-43250040D02*
G75*
G03*
X305950000Y-43250040I-1500000J0D01*
G01*
X305950000Y-47450040D02*
G75*
G03*
X305950000Y-47450040I-1500000J0D01*
G01*
X302700000Y-49200040D02*
X306200000Y-49200040D01*
X302700000Y-45700040D02*
X302700000Y-49200040D01*
X306200000Y-45700040D02*
X302700000Y-45700040D01*
X306200000Y-49200040D02*
X306200000Y-45700040D01*
X302700000Y-46700040D02*
X303700000Y-45700040D01*
X305950000Y-62450040D02*
G75*
G03*
X305950000Y-62450040I-1500000J0D01*
G01*
X302700000Y-64200040D02*
X306200000Y-64200040D01*
X302700000Y-60700040D02*
X302700000Y-64200040D01*
X306200000Y-60700040D02*
X302700000Y-60700040D01*
X306200000Y-64200040D02*
X306200000Y-60700040D01*
X302700000Y-61700040D02*
X303700000Y-60700040D01*
X302700000Y-65900040D02*
X303700000Y-64900040D01*
X306200000Y-68400040D02*
X306200000Y-64900040D01*
X306200000Y-64900040D02*
X302700000Y-64900040D01*
X302700000Y-64900040D02*
X302700000Y-68400040D01*
X302700000Y-68400040D02*
X306200000Y-68400040D01*
X305950000Y-66650040D02*
G75*
G03*
X305950000Y-66650040I-1500000J0D01*
G01*
D12*
X291045960Y-115679835D02*
X290569770Y-116013169D01*
X291045960Y-116251264D02*
X290045960Y-116251264D01*
X290045960Y-115870311D01*
X290093580Y-115775073D01*
X290141199Y-115727454D01*
X290236437Y-115679835D01*
X290379294Y-115679835D01*
X290474532Y-115727454D01*
X290522151Y-115775073D01*
X290569770Y-115870311D01*
X290569770Y-116251264D01*
X291045960Y-115108407D02*
X290998341Y-115203645D01*
X290950722Y-115251264D01*
X290855484Y-115298883D01*
X290569770Y-115298883D01*
X290474532Y-115251264D01*
X290426913Y-115203645D01*
X290379294Y-115108407D01*
X290379294Y-114965550D01*
X290426913Y-114870311D01*
X290474532Y-114822692D01*
X290569770Y-114775073D01*
X290855484Y-114775073D01*
X290950722Y-114822692D01*
X290998341Y-114870311D01*
X291045960Y-114965550D01*
X291045960Y-115108407D01*
X290379294Y-114489359D02*
X290379294Y-114108407D01*
X290045960Y-114346502D02*
X290903103Y-114346502D01*
X290998341Y-114298883D01*
X291045960Y-114203645D01*
X291045960Y-114108407D01*
X291045960Y-113346502D02*
X290522151Y-113346502D01*
X290426913Y-113394121D01*
X290379294Y-113489359D01*
X290379294Y-113679835D01*
X290426913Y-113775073D01*
X290998341Y-113346502D02*
X291045960Y-113441740D01*
X291045960Y-113679835D01*
X290998341Y-113775073D01*
X290903103Y-113822692D01*
X290807865Y-113822692D01*
X290712627Y-113775073D01*
X290665008Y-113679835D01*
X290665008Y-113441740D01*
X290617389Y-113346502D01*
X291045960Y-112870311D02*
X290379294Y-112870311D01*
X290569770Y-112870311D02*
X290474532Y-112822692D01*
X290426913Y-112775073D01*
X290379294Y-112679835D01*
X290379294Y-112584597D01*
X290379294Y-112346502D02*
X291045960Y-112108407D01*
X290379294Y-111870311D02*
X291045960Y-112108407D01*
X291284056Y-112203645D01*
X291331675Y-112251264D01*
X291379294Y-112346502D01*
X291141199Y-111727454D02*
X291141199Y-110965550D01*
X290522151Y-110727454D02*
X290522151Y-110394121D01*
X291045960Y-110251264D02*
X291045960Y-110727454D01*
X290045960Y-110727454D01*
X290045960Y-110251264D01*
X290379294Y-109822692D02*
X291045960Y-109822692D01*
X290474532Y-109822692D02*
X290426913Y-109775073D01*
X290379294Y-109679835D01*
X290379294Y-109536978D01*
X290426913Y-109441740D01*
X290522151Y-109394121D01*
X291045960Y-109394121D01*
X290998341Y-108489359D02*
X291045960Y-108584597D01*
X291045960Y-108775073D01*
X290998341Y-108870311D01*
X290950722Y-108917930D01*
X290855484Y-108965550D01*
X290569770Y-108965550D01*
X290474532Y-108917930D01*
X290426913Y-108870311D01*
X290379294Y-108775073D01*
X290379294Y-108584597D01*
X290426913Y-108489359D01*
X291045960Y-107917930D02*
X290998341Y-108013169D01*
X290950722Y-108060788D01*
X290855484Y-108108407D01*
X290569770Y-108108407D01*
X290474532Y-108060788D01*
X290426913Y-108013169D01*
X290379294Y-107917930D01*
X290379294Y-107775073D01*
X290426913Y-107679835D01*
X290474532Y-107632216D01*
X290569770Y-107584597D01*
X290855484Y-107584597D01*
X290950722Y-107632216D01*
X290998341Y-107679835D01*
X291045960Y-107775073D01*
X291045960Y-107917930D01*
X291045960Y-106727454D02*
X290045960Y-106727454D01*
X290998341Y-106727454D02*
X291045960Y-106822692D01*
X291045960Y-107013169D01*
X290998341Y-107108407D01*
X290950722Y-107156026D01*
X290855484Y-107203645D01*
X290569770Y-107203645D01*
X290474532Y-107156026D01*
X290426913Y-107108407D01*
X290379294Y-107013169D01*
X290379294Y-106822692D01*
X290426913Y-106727454D01*
X290998341Y-105870311D02*
X291045960Y-105965550D01*
X291045960Y-106156026D01*
X290998341Y-106251264D01*
X290903103Y-106298883D01*
X290522151Y-106298883D01*
X290426913Y-106251264D01*
X290379294Y-106156026D01*
X290379294Y-105965550D01*
X290426913Y-105870311D01*
X290522151Y-105822692D01*
X290617389Y-105822692D01*
X290712627Y-106298883D01*
X291045960Y-105394121D02*
X290379294Y-105394121D01*
X290569770Y-105394121D02*
X290474532Y-105346502D01*
X290426913Y-105298883D01*
X290379294Y-105203645D01*
X290379294Y-105108407D01*
X291141199Y-105013169D02*
X291141199Y-104251264D01*
X290998341Y-104060788D02*
X291045960Y-103917930D01*
X291045960Y-103679835D01*
X290998341Y-103584597D01*
X290950722Y-103536978D01*
X290855484Y-103489359D01*
X290760246Y-103489359D01*
X290665008Y-103536978D01*
X290617389Y-103584597D01*
X290569770Y-103679835D01*
X290522151Y-103870311D01*
X290474532Y-103965550D01*
X290426913Y-104013169D01*
X290331675Y-104060788D01*
X290236437Y-104060788D01*
X290141199Y-104013169D01*
X290093580Y-103965550D01*
X290045960Y-103870311D01*
X290045960Y-103632216D01*
X290093580Y-103489359D01*
X290379294Y-103156026D02*
X291045960Y-102965550D01*
X290569770Y-102775073D01*
X291045960Y-102584597D01*
X290379294Y-102394121D01*
X291045960Y-102013169D02*
X290379294Y-102013169D01*
X290045960Y-102013169D02*
X290093580Y-102060788D01*
X290141199Y-102013169D01*
X290093580Y-101965550D01*
X290045960Y-102013169D01*
X290141199Y-102013169D01*
X290379294Y-101679835D02*
X290379294Y-101298883D01*
X290045960Y-101536978D02*
X290903103Y-101536978D01*
X290998341Y-101489359D01*
X291045960Y-101394121D01*
X291045960Y-101298883D01*
X290998341Y-100536978D02*
X291045960Y-100632216D01*
X291045960Y-100822692D01*
X290998341Y-100917930D01*
X290950722Y-100965550D01*
X290855484Y-101013169D01*
X290569770Y-101013169D01*
X290474532Y-100965550D01*
X290426913Y-100917930D01*
X290379294Y-100822692D01*
X290379294Y-100632216D01*
X290426913Y-100536978D01*
X291045960Y-100108407D02*
X290045960Y-100108407D01*
X291045960Y-99679835D02*
X290522151Y-99679835D01*
X290426913Y-99727454D01*
X290379294Y-99822692D01*
X290379294Y-99965550D01*
X290426913Y-100060788D01*
X290474532Y-100108407D01*
X295098341Y-114232216D02*
X295145960Y-114089359D01*
X295145960Y-113851264D01*
X295098341Y-113756026D01*
X295050722Y-113708407D01*
X294955484Y-113660788D01*
X294860246Y-113660788D01*
X294765008Y-113708407D01*
X294717389Y-113756026D01*
X294669770Y-113851264D01*
X294622151Y-114041740D01*
X294574532Y-114136978D01*
X294526913Y-114184597D01*
X294431675Y-114232216D01*
X294336437Y-114232216D01*
X294241199Y-114184597D01*
X294193580Y-114136978D01*
X294145960Y-114041740D01*
X294145960Y-113803645D01*
X294193580Y-113660788D01*
X294145960Y-113327454D02*
X295145960Y-113089359D01*
X294431675Y-112898883D01*
X295145960Y-112708407D01*
X294145960Y-112470311D01*
X295241199Y-112327454D02*
X295241199Y-111565550D01*
X295145960Y-110756026D02*
X294669770Y-111089359D01*
X295145960Y-111327454D02*
X294145960Y-111327454D01*
X294145960Y-110946502D01*
X294193580Y-110851264D01*
X294241199Y-110803645D01*
X294336437Y-110756026D01*
X294479294Y-110756026D01*
X294574532Y-110803645D01*
X294622151Y-110851264D01*
X294669770Y-110946502D01*
X294669770Y-111327454D01*
X294622151Y-110327454D02*
X294622151Y-109994121D01*
X295145960Y-109851264D02*
X295145960Y-110327454D01*
X294145960Y-110327454D01*
X294145960Y-109851264D01*
X295145960Y-108898883D02*
X295145960Y-109470311D01*
X295145960Y-109184597D02*
X294145960Y-109184597D01*
X294288818Y-109279835D01*
X294384056Y-109375073D01*
X294431675Y-109470311D01*
X308691942Y-32407944D02*
X308691942Y-32137011D01*
X309117695Y-32020897D02*
X309117695Y-32407944D01*
X308304895Y-32407944D01*
X308304895Y-32020897D01*
X308304895Y-31749963D02*
X309117695Y-31208097D01*
X308304895Y-31208097D02*
X309117695Y-31749963D01*
X308304895Y-31014573D02*
X308304895Y-30550116D01*
X309117695Y-30782344D02*
X308304895Y-30782344D01*
X308304895Y-30356592D02*
X308304895Y-29853430D01*
X308614533Y-30124363D01*
X308614533Y-30008249D01*
X308653238Y-29930840D01*
X308691942Y-29892135D01*
X308769352Y-29853430D01*
X308962876Y-29853430D01*
X309040285Y-29892135D01*
X309078990Y-29930840D01*
X309117695Y-30008249D01*
X309117695Y-30240478D01*
X309078990Y-30317887D01*
X309040285Y-30356592D01*
X55207142Y-90302420D02*
X54730952Y-90302420D01*
X54730952Y-89302420D01*
X55492857Y-90254801D02*
X55635714Y-90302420D01*
X55873809Y-90302420D01*
X55969047Y-90254801D01*
X56016666Y-90207182D01*
X56064285Y-90111944D01*
X56064285Y-90016706D01*
X56016666Y-89921468D01*
X55969047Y-89873849D01*
X55873809Y-89826230D01*
X55683333Y-89778611D01*
X55588095Y-89730992D01*
X55540476Y-89683373D01*
X55492857Y-89588135D01*
X55492857Y-89492897D01*
X55540476Y-89397659D01*
X55588095Y-89350040D01*
X55683333Y-89302420D01*
X55921428Y-89302420D01*
X56064285Y-89350040D01*
X57016666Y-90302420D02*
X56445238Y-90302420D01*
X56730952Y-90302420D02*
X56730952Y-89302420D01*
X56635714Y-89445278D01*
X56540476Y-89540516D01*
X56445238Y-89588135D01*
X24323727Y-115667113D02*
X23847537Y-116000447D01*
X24323727Y-116238542D02*
X23323727Y-116238542D01*
X23323727Y-115857589D01*
X23371347Y-115762351D01*
X23418966Y-115714732D01*
X23514204Y-115667113D01*
X23657061Y-115667113D01*
X23752299Y-115714732D01*
X23799918Y-115762351D01*
X23847537Y-115857589D01*
X23847537Y-116238542D01*
X24323727Y-115095685D02*
X24276108Y-115190923D01*
X24228489Y-115238542D01*
X24133251Y-115286161D01*
X23847537Y-115286161D01*
X23752299Y-115238542D01*
X23704680Y-115190923D01*
X23657061Y-115095685D01*
X23657061Y-114952828D01*
X23704680Y-114857589D01*
X23752299Y-114809970D01*
X23847537Y-114762351D01*
X24133251Y-114762351D01*
X24228489Y-114809970D01*
X24276108Y-114857589D01*
X24323727Y-114952828D01*
X24323727Y-115095685D01*
X23657061Y-114476637D02*
X23657061Y-114095685D01*
X23323727Y-114333780D02*
X24180870Y-114333780D01*
X24276108Y-114286161D01*
X24323727Y-114190923D01*
X24323727Y-114095685D01*
X24323727Y-113333780D02*
X23799918Y-113333780D01*
X23704680Y-113381399D01*
X23657061Y-113476637D01*
X23657061Y-113667113D01*
X23704680Y-113762351D01*
X24276108Y-113333780D02*
X24323727Y-113429018D01*
X24323727Y-113667113D01*
X24276108Y-113762351D01*
X24180870Y-113809970D01*
X24085632Y-113809970D01*
X23990394Y-113762351D01*
X23942775Y-113667113D01*
X23942775Y-113429018D01*
X23895156Y-113333780D01*
X24323727Y-112857589D02*
X23657061Y-112857589D01*
X23847537Y-112857589D02*
X23752299Y-112809970D01*
X23704680Y-112762351D01*
X23657061Y-112667113D01*
X23657061Y-112571875D01*
X23657061Y-112333780D02*
X24323727Y-112095685D01*
X23657061Y-111857589D02*
X24323727Y-112095685D01*
X24561823Y-112190923D01*
X24609442Y-112238542D01*
X24657061Y-112333780D01*
X24418966Y-111714732D02*
X24418966Y-110952828D01*
X23799918Y-110714732D02*
X23799918Y-110381399D01*
X24323727Y-110238542D02*
X24323727Y-110714732D01*
X23323727Y-110714732D01*
X23323727Y-110238542D01*
X23657061Y-109809970D02*
X24323727Y-109809970D01*
X23752299Y-109809970D02*
X23704680Y-109762351D01*
X23657061Y-109667113D01*
X23657061Y-109524256D01*
X23704680Y-109429018D01*
X23799918Y-109381399D01*
X24323727Y-109381399D01*
X24276108Y-108476637D02*
X24323727Y-108571875D01*
X24323727Y-108762351D01*
X24276108Y-108857589D01*
X24228489Y-108905208D01*
X24133251Y-108952828D01*
X23847537Y-108952828D01*
X23752299Y-108905208D01*
X23704680Y-108857589D01*
X23657061Y-108762351D01*
X23657061Y-108571875D01*
X23704680Y-108476637D01*
X24323727Y-107905208D02*
X24276108Y-108000447D01*
X24228489Y-108048066D01*
X24133251Y-108095685D01*
X23847537Y-108095685D01*
X23752299Y-108048066D01*
X23704680Y-108000447D01*
X23657061Y-107905208D01*
X23657061Y-107762351D01*
X23704680Y-107667113D01*
X23752299Y-107619494D01*
X23847537Y-107571875D01*
X24133251Y-107571875D01*
X24228489Y-107619494D01*
X24276108Y-107667113D01*
X24323727Y-107762351D01*
X24323727Y-107905208D01*
X24323727Y-106714732D02*
X23323727Y-106714732D01*
X24276108Y-106714732D02*
X24323727Y-106809970D01*
X24323727Y-107000447D01*
X24276108Y-107095685D01*
X24228489Y-107143304D01*
X24133251Y-107190923D01*
X23847537Y-107190923D01*
X23752299Y-107143304D01*
X23704680Y-107095685D01*
X23657061Y-107000447D01*
X23657061Y-106809970D01*
X23704680Y-106714732D01*
X24276108Y-105857589D02*
X24323727Y-105952828D01*
X24323727Y-106143304D01*
X24276108Y-106238542D01*
X24180870Y-106286161D01*
X23799918Y-106286161D01*
X23704680Y-106238542D01*
X23657061Y-106143304D01*
X23657061Y-105952828D01*
X23704680Y-105857589D01*
X23799918Y-105809970D01*
X23895156Y-105809970D01*
X23990394Y-106286161D01*
X24323727Y-105381399D02*
X23657061Y-105381399D01*
X23847537Y-105381399D02*
X23752299Y-105333780D01*
X23704680Y-105286161D01*
X23657061Y-105190923D01*
X23657061Y-105095685D01*
X24418966Y-105000447D02*
X24418966Y-104238542D01*
X24276108Y-104048066D02*
X24323727Y-103905208D01*
X24323727Y-103667113D01*
X24276108Y-103571875D01*
X24228489Y-103524256D01*
X24133251Y-103476637D01*
X24038013Y-103476637D01*
X23942775Y-103524256D01*
X23895156Y-103571875D01*
X23847537Y-103667113D01*
X23799918Y-103857589D01*
X23752299Y-103952828D01*
X23704680Y-104000447D01*
X23609442Y-104048066D01*
X23514204Y-104048066D01*
X23418966Y-104000447D01*
X23371347Y-103952828D01*
X23323727Y-103857589D01*
X23323727Y-103619494D01*
X23371347Y-103476637D01*
X23657061Y-103143304D02*
X24323727Y-102952828D01*
X23847537Y-102762351D01*
X24323727Y-102571875D01*
X23657061Y-102381399D01*
X24323727Y-102000447D02*
X23657061Y-102000447D01*
X23323727Y-102000447D02*
X23371347Y-102048066D01*
X23418966Y-102000447D01*
X23371347Y-101952828D01*
X23323727Y-102000447D01*
X23418966Y-102000447D01*
X23657061Y-101667113D02*
X23657061Y-101286161D01*
X23323727Y-101524256D02*
X24180870Y-101524256D01*
X24276108Y-101476637D01*
X24323727Y-101381399D01*
X24323727Y-101286161D01*
X24276108Y-100524256D02*
X24323727Y-100619494D01*
X24323727Y-100809970D01*
X24276108Y-100905208D01*
X24228489Y-100952828D01*
X24133251Y-101000447D01*
X23847537Y-101000447D01*
X23752299Y-100952828D01*
X23704680Y-100905208D01*
X23657061Y-100809970D01*
X23657061Y-100619494D01*
X23704680Y-100524256D01*
X24323727Y-100095685D02*
X23323727Y-100095685D01*
X24323727Y-99667113D02*
X23799918Y-99667113D01*
X23704680Y-99714732D01*
X23657061Y-99809970D01*
X23657061Y-99952828D01*
X23704680Y-100048066D01*
X23752299Y-100095685D01*
X28376108Y-114219494D02*
X28423727Y-114076637D01*
X28423727Y-113838542D01*
X28376108Y-113743304D01*
X28328489Y-113695685D01*
X28233251Y-113648066D01*
X28138013Y-113648066D01*
X28042775Y-113695685D01*
X27995156Y-113743304D01*
X27947537Y-113838542D01*
X27899918Y-114029018D01*
X27852299Y-114124256D01*
X27804680Y-114171875D01*
X27709442Y-114219494D01*
X27614204Y-114219494D01*
X27518966Y-114171875D01*
X27471347Y-114124256D01*
X27423727Y-114029018D01*
X27423727Y-113790923D01*
X27471347Y-113648066D01*
X27423727Y-113314732D02*
X28423727Y-113076637D01*
X27709442Y-112886161D01*
X28423727Y-112695685D01*
X27423727Y-112457589D01*
X28518966Y-112314732D02*
X28518966Y-111552828D01*
X28423727Y-110743304D02*
X27947537Y-111076637D01*
X28423727Y-111314732D02*
X27423727Y-111314732D01*
X27423727Y-110933780D01*
X27471347Y-110838542D01*
X27518966Y-110790923D01*
X27614204Y-110743304D01*
X27757061Y-110743304D01*
X27852299Y-110790923D01*
X27899918Y-110838542D01*
X27947537Y-110933780D01*
X27947537Y-111314732D01*
X27899918Y-110314732D02*
X27899918Y-109981399D01*
X28423727Y-109838542D02*
X28423727Y-110314732D01*
X27423727Y-110314732D01*
X27423727Y-109838542D01*
X27518966Y-109457589D02*
X27471347Y-109409970D01*
X27423727Y-109314732D01*
X27423727Y-109076637D01*
X27471347Y-108981399D01*
X27518966Y-108933780D01*
X27614204Y-108886161D01*
X27709442Y-108886161D01*
X27852299Y-108933780D01*
X28423727Y-109505208D01*
X28423727Y-108886161D01*
X279522142Y-45925357D02*
X279569761Y-45972976D01*
X279617380Y-46115833D01*
X279617380Y-46211071D01*
X279569761Y-46353928D01*
X279474523Y-46449166D01*
X279379285Y-46496785D01*
X279188809Y-46544404D01*
X279045952Y-46544404D01*
X278855476Y-46496785D01*
X278760238Y-46449166D01*
X278665000Y-46353928D01*
X278617380Y-46211071D01*
X278617380Y-46115833D01*
X278665000Y-45972976D01*
X278712619Y-45925357D01*
X279617380Y-45353928D02*
X279569761Y-45449166D01*
X279522142Y-45496785D01*
X279426904Y-45544404D01*
X279141190Y-45544404D01*
X279045952Y-45496785D01*
X278998333Y-45449166D01*
X278950714Y-45353928D01*
X278950714Y-45211071D01*
X278998333Y-45115833D01*
X279045952Y-45068214D01*
X279141190Y-45020595D01*
X279426904Y-45020595D01*
X279522142Y-45068214D01*
X279569761Y-45115833D01*
X279617380Y-45211071D01*
X279617380Y-45353928D01*
X278950714Y-44592023D02*
X279617380Y-44592023D01*
X279045952Y-44592023D02*
X278998333Y-44544404D01*
X278950714Y-44449166D01*
X278950714Y-44306309D01*
X278998333Y-44211071D01*
X279093571Y-44163452D01*
X279617380Y-44163452D01*
X278950714Y-43687261D02*
X279617380Y-43687261D01*
X279045952Y-43687261D02*
X278998333Y-43639642D01*
X278950714Y-43544404D01*
X278950714Y-43401547D01*
X278998333Y-43306309D01*
X279093571Y-43258690D01*
X279617380Y-43258690D01*
X279712619Y-43020595D02*
X279712619Y-42258690D01*
X278617380Y-41830119D02*
X278617380Y-41734880D01*
X278665000Y-41639642D01*
X278712619Y-41592023D01*
X278807857Y-41544404D01*
X278998333Y-41496785D01*
X279236428Y-41496785D01*
X279426904Y-41544404D01*
X279522142Y-41592023D01*
X279569761Y-41639642D01*
X279617380Y-41734880D01*
X279617380Y-41830119D01*
X279569761Y-41925357D01*
X279522142Y-41972976D01*
X279426904Y-42020595D01*
X279236428Y-42068214D01*
X278998333Y-42068214D01*
X278807857Y-42020595D01*
X278712619Y-41972976D01*
X278665000Y-41925357D01*
X278617380Y-41830119D01*
X278712619Y-41115833D02*
X278665000Y-41068214D01*
X278617380Y-40972976D01*
X278617380Y-40734880D01*
X278665000Y-40639642D01*
X278712619Y-40592023D01*
X278807857Y-40544404D01*
X278903095Y-40544404D01*
X279045952Y-40592023D01*
X279617380Y-41163452D01*
X279617380Y-40544404D01*
X279617380Y-40211071D02*
X278950714Y-39687261D01*
X278950714Y-40211071D02*
X279617380Y-39687261D01*
X278617380Y-39115833D02*
X278617380Y-39020595D01*
X278665000Y-38925357D01*
X278712619Y-38877738D01*
X278807857Y-38830119D01*
X278998333Y-38782500D01*
X279236428Y-38782500D01*
X279426904Y-38830119D01*
X279522142Y-38877738D01*
X279569761Y-38925357D01*
X279617380Y-39020595D01*
X279617380Y-39115833D01*
X279569761Y-39211071D01*
X279522142Y-39258690D01*
X279426904Y-39306309D01*
X279236428Y-39353928D01*
X278998333Y-39353928D01*
X278807857Y-39306309D01*
X278712619Y-39258690D01*
X278665000Y-39211071D01*
X278617380Y-39115833D01*
X278617380Y-37877738D02*
X278617380Y-38353928D01*
X279093571Y-38401547D01*
X279045952Y-38353928D01*
X278998333Y-38258690D01*
X278998333Y-38020595D01*
X279045952Y-37925357D01*
X279093571Y-37877738D01*
X279188809Y-37830119D01*
X279426904Y-37830119D01*
X279522142Y-37877738D01*
X279569761Y-37925357D01*
X279617380Y-38020595D01*
X279617380Y-38258690D01*
X279569761Y-38353928D01*
X279522142Y-38401547D01*
X279712619Y-37639642D02*
X279712619Y-36877738D01*
X278617380Y-36449166D02*
X278617380Y-36258690D01*
X278665000Y-36163452D01*
X278760238Y-36068214D01*
X278950714Y-36020595D01*
X279284047Y-36020595D01*
X279474523Y-36068214D01*
X279569761Y-36163452D01*
X279617380Y-36258690D01*
X279617380Y-36449166D01*
X279569761Y-36544404D01*
X279474523Y-36639642D01*
X279284047Y-36687261D01*
X278950714Y-36687261D01*
X278760238Y-36639642D01*
X278665000Y-36544404D01*
X278617380Y-36449166D01*
X279617380Y-35163452D02*
X278617380Y-35163452D01*
X279569761Y-35163452D02*
X279617380Y-35258690D01*
X279617380Y-35449166D01*
X279569761Y-35544404D01*
X279522142Y-35592023D01*
X279426904Y-35639642D01*
X279141190Y-35639642D01*
X279045952Y-35592023D01*
X278998333Y-35544404D01*
X278950714Y-35449166D01*
X278950714Y-35258690D01*
X278998333Y-35163452D01*
X279617380Y-34258690D02*
X278617380Y-34258690D01*
X279569761Y-34258690D02*
X279617380Y-34353928D01*
X279617380Y-34544404D01*
X279569761Y-34639642D01*
X279522142Y-34687261D01*
X279426904Y-34734880D01*
X279141190Y-34734880D01*
X279045952Y-34687261D01*
X278998333Y-34639642D01*
X278950714Y-34544404D01*
X278950714Y-34353928D01*
X278998333Y-34258690D01*
X279712619Y-34020595D02*
X279712619Y-33258690D01*
X279093571Y-33020595D02*
X279093571Y-32687261D01*
X279617380Y-32544404D02*
X279617380Y-33020595D01*
X278617380Y-33020595D01*
X278617380Y-32544404D01*
X278950714Y-32211071D02*
X279617380Y-31972976D01*
X278950714Y-31734880D01*
X279569761Y-30972976D02*
X279617380Y-31068214D01*
X279617380Y-31258690D01*
X279569761Y-31353928D01*
X279474523Y-31401547D01*
X279093571Y-31401547D01*
X278998333Y-31353928D01*
X278950714Y-31258690D01*
X278950714Y-31068214D01*
X278998333Y-30972976D01*
X279093571Y-30925357D01*
X279188809Y-30925357D01*
X279284047Y-31401547D01*
X278950714Y-30496785D02*
X279617380Y-30496785D01*
X279045952Y-30496785D02*
X278998333Y-30449166D01*
X278950714Y-30353928D01*
X278950714Y-30211071D01*
X278998333Y-30115833D01*
X279093571Y-30068214D01*
X279617380Y-30068214D01*
D13*
X274061428Y-39037142D02*
X274261428Y-39037142D01*
X274347142Y-39351428D02*
X274061428Y-39351428D01*
X274061428Y-38751428D01*
X274347142Y-38751428D01*
X274547142Y-38751428D02*
X274947142Y-39351428D01*
X274947142Y-38751428D02*
X274547142Y-39351428D01*
X275090000Y-38751428D02*
X275432857Y-38751428D01*
X275261428Y-39351428D02*
X275261428Y-38751428D01*
X275947142Y-39351428D02*
X275604285Y-39351428D01*
X275775714Y-39351428D02*
X275775714Y-38751428D01*
X275718571Y-38837142D01*
X275661428Y-38894285D01*
X275604285Y-38922857D01*
D12*
X291722142Y-45925357D02*
X291769761Y-45972976D01*
X291817380Y-46115833D01*
X291817380Y-46211071D01*
X291769761Y-46353928D01*
X291674523Y-46449166D01*
X291579285Y-46496785D01*
X291388809Y-46544404D01*
X291245952Y-46544404D01*
X291055476Y-46496785D01*
X290960238Y-46449166D01*
X290865000Y-46353928D01*
X290817380Y-46211071D01*
X290817380Y-46115833D01*
X290865000Y-45972976D01*
X290912619Y-45925357D01*
X291817380Y-45353928D02*
X291769761Y-45449166D01*
X291722142Y-45496785D01*
X291626904Y-45544404D01*
X291341190Y-45544404D01*
X291245952Y-45496785D01*
X291198333Y-45449166D01*
X291150714Y-45353928D01*
X291150714Y-45211071D01*
X291198333Y-45115833D01*
X291245952Y-45068214D01*
X291341190Y-45020595D01*
X291626904Y-45020595D01*
X291722142Y-45068214D01*
X291769761Y-45115833D01*
X291817380Y-45211071D01*
X291817380Y-45353928D01*
X291150714Y-44592023D02*
X291817380Y-44592023D01*
X291245952Y-44592023D02*
X291198333Y-44544404D01*
X291150714Y-44449166D01*
X291150714Y-44306309D01*
X291198333Y-44211071D01*
X291293571Y-44163452D01*
X291817380Y-44163452D01*
X291150714Y-43687261D02*
X291817380Y-43687261D01*
X291245952Y-43687261D02*
X291198333Y-43639642D01*
X291150714Y-43544404D01*
X291150714Y-43401547D01*
X291198333Y-43306309D01*
X291293571Y-43258690D01*
X291817380Y-43258690D01*
X291912619Y-43020595D02*
X291912619Y-42258690D01*
X290817380Y-41830119D02*
X290817380Y-41734880D01*
X290865000Y-41639642D01*
X290912619Y-41592023D01*
X291007857Y-41544404D01*
X291198333Y-41496785D01*
X291436428Y-41496785D01*
X291626904Y-41544404D01*
X291722142Y-41592023D01*
X291769761Y-41639642D01*
X291817380Y-41734880D01*
X291817380Y-41830119D01*
X291769761Y-41925357D01*
X291722142Y-41972976D01*
X291626904Y-42020595D01*
X291436428Y-42068214D01*
X291198333Y-42068214D01*
X291007857Y-42020595D01*
X290912619Y-41972976D01*
X290865000Y-41925357D01*
X290817380Y-41830119D01*
X290912619Y-41115833D02*
X290865000Y-41068214D01*
X290817380Y-40972976D01*
X290817380Y-40734880D01*
X290865000Y-40639642D01*
X290912619Y-40592023D01*
X291007857Y-40544404D01*
X291103095Y-40544404D01*
X291245952Y-40592023D01*
X291817380Y-41163452D01*
X291817380Y-40544404D01*
X291817380Y-40211071D02*
X291150714Y-39687261D01*
X291150714Y-40211071D02*
X291817380Y-39687261D01*
X290817380Y-39115833D02*
X290817380Y-39020595D01*
X290865000Y-38925357D01*
X290912619Y-38877738D01*
X291007857Y-38830119D01*
X291198333Y-38782500D01*
X291436428Y-38782500D01*
X291626904Y-38830119D01*
X291722142Y-38877738D01*
X291769761Y-38925357D01*
X291817380Y-39020595D01*
X291817380Y-39115833D01*
X291769761Y-39211071D01*
X291722142Y-39258690D01*
X291626904Y-39306309D01*
X291436428Y-39353928D01*
X291198333Y-39353928D01*
X291007857Y-39306309D01*
X290912619Y-39258690D01*
X290865000Y-39211071D01*
X290817380Y-39115833D01*
X290817380Y-37877738D02*
X290817380Y-38353928D01*
X291293571Y-38401547D01*
X291245952Y-38353928D01*
X291198333Y-38258690D01*
X291198333Y-38020595D01*
X291245952Y-37925357D01*
X291293571Y-37877738D01*
X291388809Y-37830119D01*
X291626904Y-37830119D01*
X291722142Y-37877738D01*
X291769761Y-37925357D01*
X291817380Y-38020595D01*
X291817380Y-38258690D01*
X291769761Y-38353928D01*
X291722142Y-38401547D01*
X291912619Y-37639642D02*
X291912619Y-36877738D01*
X290817380Y-36449166D02*
X290817380Y-36258690D01*
X290865000Y-36163452D01*
X290960238Y-36068214D01*
X291150714Y-36020595D01*
X291484047Y-36020595D01*
X291674523Y-36068214D01*
X291769761Y-36163452D01*
X291817380Y-36258690D01*
X291817380Y-36449166D01*
X291769761Y-36544404D01*
X291674523Y-36639642D01*
X291484047Y-36687261D01*
X291150714Y-36687261D01*
X290960238Y-36639642D01*
X290865000Y-36544404D01*
X290817380Y-36449166D01*
X291817380Y-35163452D02*
X290817380Y-35163452D01*
X291769761Y-35163452D02*
X291817380Y-35258690D01*
X291817380Y-35449166D01*
X291769761Y-35544404D01*
X291722142Y-35592023D01*
X291626904Y-35639642D01*
X291341190Y-35639642D01*
X291245952Y-35592023D01*
X291198333Y-35544404D01*
X291150714Y-35449166D01*
X291150714Y-35258690D01*
X291198333Y-35163452D01*
X291817380Y-34258690D02*
X290817380Y-34258690D01*
X291769761Y-34258690D02*
X291817380Y-34353928D01*
X291817380Y-34544404D01*
X291769761Y-34639642D01*
X291722142Y-34687261D01*
X291626904Y-34734880D01*
X291341190Y-34734880D01*
X291245952Y-34687261D01*
X291198333Y-34639642D01*
X291150714Y-34544404D01*
X291150714Y-34353928D01*
X291198333Y-34258690D01*
X291912619Y-34020595D02*
X291912619Y-33258690D01*
X291293571Y-33020595D02*
X291293571Y-32687261D01*
X291817380Y-32544404D02*
X291817380Y-33020595D01*
X290817380Y-33020595D01*
X290817380Y-32544404D01*
X291150714Y-32211071D02*
X291817380Y-31972976D01*
X291150714Y-31734880D01*
X291769761Y-30972976D02*
X291817380Y-31068214D01*
X291817380Y-31258690D01*
X291769761Y-31353928D01*
X291674523Y-31401547D01*
X291293571Y-31401547D01*
X291198333Y-31353928D01*
X291150714Y-31258690D01*
X291150714Y-31068214D01*
X291198333Y-30972976D01*
X291293571Y-30925357D01*
X291388809Y-30925357D01*
X291484047Y-31401547D01*
X291150714Y-30496785D02*
X291817380Y-30496785D01*
X291245952Y-30496785D02*
X291198333Y-30449166D01*
X291150714Y-30353928D01*
X291150714Y-30211071D01*
X291198333Y-30115833D01*
X291293571Y-30068214D01*
X291817380Y-30068214D01*
D13*
X286261428Y-39037142D02*
X286461428Y-39037142D01*
X286547142Y-39351428D02*
X286261428Y-39351428D01*
X286261428Y-38751428D01*
X286547142Y-38751428D01*
X286747142Y-38751428D02*
X287147142Y-39351428D01*
X287147142Y-38751428D02*
X286747142Y-39351428D01*
X287290000Y-38751428D02*
X287632857Y-38751428D01*
X287461428Y-39351428D02*
X287461428Y-38751428D01*
X287804285Y-38808571D02*
X287832857Y-38780000D01*
X287890000Y-38751428D01*
X288032857Y-38751428D01*
X288090000Y-38780000D01*
X288118571Y-38808571D01*
X288147142Y-38865714D01*
X288147142Y-38922857D01*
X288118571Y-39008571D01*
X287775714Y-39351428D01*
X288147142Y-39351428D01*
D12*
X21388095Y-66104801D02*
X21530952Y-66152420D01*
X21769047Y-66152420D01*
X21864285Y-66104801D01*
X21911904Y-66057182D01*
X21959523Y-65961944D01*
X21959523Y-65866706D01*
X21911904Y-65771468D01*
X21864285Y-65723849D01*
X21769047Y-65676230D01*
X21578571Y-65628611D01*
X21483333Y-65580992D01*
X21435714Y-65533373D01*
X21388095Y-65438135D01*
X21388095Y-65342897D01*
X21435714Y-65247659D01*
X21483333Y-65200040D01*
X21578571Y-65152420D01*
X21816666Y-65152420D01*
X21959523Y-65200040D01*
X22388095Y-66152420D02*
X22388095Y-65152420D01*
X22959523Y-66152420D02*
X22530952Y-65580992D01*
X22959523Y-65152420D02*
X22388095Y-65723849D01*
X23816666Y-65152420D02*
X23626190Y-65152420D01*
X23530952Y-65200040D01*
X23483333Y-65247659D01*
X23388095Y-65390516D01*
X23340476Y-65580992D01*
X23340476Y-65961944D01*
X23388095Y-66057182D01*
X23435714Y-66104801D01*
X23530952Y-66152420D01*
X23721428Y-66152420D01*
X23816666Y-66104801D01*
X23864285Y-66057182D01*
X23911904Y-65961944D01*
X23911904Y-65723849D01*
X23864285Y-65628611D01*
X23816666Y-65580992D01*
X23721428Y-65533373D01*
X23530952Y-65533373D01*
X23435714Y-65580992D01*
X23388095Y-65628611D01*
X23340476Y-65723849D01*
X24483333Y-65580992D02*
X24388095Y-65533373D01*
X24340476Y-65485754D01*
X24292857Y-65390516D01*
X24292857Y-65342897D01*
X24340476Y-65247659D01*
X24388095Y-65200040D01*
X24483333Y-65152420D01*
X24673809Y-65152420D01*
X24769047Y-65200040D01*
X24816666Y-65247659D01*
X24864285Y-65342897D01*
X24864285Y-65390516D01*
X24816666Y-65485754D01*
X24769047Y-65533373D01*
X24673809Y-65580992D01*
X24483333Y-65580992D01*
X24388095Y-65628611D01*
X24340476Y-65676230D01*
X24292857Y-65771468D01*
X24292857Y-65961944D01*
X24340476Y-66057182D01*
X24388095Y-66104801D01*
X24483333Y-66152420D01*
X24673809Y-66152420D01*
X24769047Y-66104801D01*
X24816666Y-66057182D01*
X24864285Y-65961944D01*
X24864285Y-65771468D01*
X24816666Y-65676230D01*
X24769047Y-65628611D01*
X24673809Y-65580992D01*
X25816666Y-66152420D02*
X25245238Y-66152420D01*
X25530952Y-66152420D02*
X25530952Y-65152420D01*
X25435714Y-65295278D01*
X25340476Y-65390516D01*
X25245238Y-65438135D01*
X26197619Y-65247659D02*
X26245238Y-65200040D01*
X26340476Y-65152420D01*
X26578571Y-65152420D01*
X26673809Y-65200040D01*
X26721428Y-65247659D01*
X26769047Y-65342897D01*
X26769047Y-65438135D01*
X26721428Y-65580992D01*
X26150000Y-66152420D01*
X26769047Y-66152420D01*
X27197619Y-66152420D02*
X27197619Y-65152420D01*
X27530952Y-65866706D01*
X27864285Y-65152420D01*
X27864285Y-66152420D01*
X28340476Y-66152420D02*
X28340476Y-65152420D01*
X28816666Y-66152420D02*
X28816666Y-65152420D01*
X29388095Y-66152420D01*
X29388095Y-65152420D01*
X29864285Y-66152420D02*
X29864285Y-65152420D01*
D11*
X25090476Y-62676230D02*
X24852380Y-62676230D01*
X24852380Y-62176230D01*
X25257142Y-62414325D02*
X25423809Y-62414325D01*
X25495238Y-62676230D02*
X25257142Y-62676230D01*
X25257142Y-62176230D01*
X25495238Y-62176230D01*
X25709523Y-62676230D02*
X25709523Y-62176230D01*
X25828571Y-62176230D01*
X25900000Y-62200040D01*
X25947619Y-62247659D01*
X25971428Y-62295278D01*
X25995238Y-62390516D01*
X25995238Y-62461944D01*
X25971428Y-62557182D01*
X25947619Y-62604801D01*
X25900000Y-62652420D01*
X25828571Y-62676230D01*
X25709523Y-62676230D01*
X26471428Y-62676230D02*
X26185714Y-62676230D01*
X26328571Y-62676230D02*
X26328571Y-62176230D01*
X26280952Y-62247659D01*
X26233333Y-62295278D01*
X26185714Y-62319087D01*
D12*
X21388095Y-70304801D02*
X21530952Y-70352420D01*
X21769047Y-70352420D01*
X21864285Y-70304801D01*
X21911904Y-70257182D01*
X21959523Y-70161944D01*
X21959523Y-70066706D01*
X21911904Y-69971468D01*
X21864285Y-69923849D01*
X21769047Y-69876230D01*
X21578571Y-69828611D01*
X21483333Y-69780992D01*
X21435714Y-69733373D01*
X21388095Y-69638135D01*
X21388095Y-69542897D01*
X21435714Y-69447659D01*
X21483333Y-69400040D01*
X21578571Y-69352420D01*
X21816666Y-69352420D01*
X21959523Y-69400040D01*
X22388095Y-70352420D02*
X22388095Y-69352420D01*
X22959523Y-70352420D02*
X22530952Y-69780992D01*
X22959523Y-69352420D02*
X22388095Y-69923849D01*
X23816666Y-69352420D02*
X23626190Y-69352420D01*
X23530952Y-69400040D01*
X23483333Y-69447659D01*
X23388095Y-69590516D01*
X23340476Y-69780992D01*
X23340476Y-70161944D01*
X23388095Y-70257182D01*
X23435714Y-70304801D01*
X23530952Y-70352420D01*
X23721428Y-70352420D01*
X23816666Y-70304801D01*
X23864285Y-70257182D01*
X23911904Y-70161944D01*
X23911904Y-69923849D01*
X23864285Y-69828611D01*
X23816666Y-69780992D01*
X23721428Y-69733373D01*
X23530952Y-69733373D01*
X23435714Y-69780992D01*
X23388095Y-69828611D01*
X23340476Y-69923849D01*
X24483333Y-69780992D02*
X24388095Y-69733373D01*
X24340476Y-69685754D01*
X24292857Y-69590516D01*
X24292857Y-69542897D01*
X24340476Y-69447659D01*
X24388095Y-69400040D01*
X24483333Y-69352420D01*
X24673809Y-69352420D01*
X24769047Y-69400040D01*
X24816666Y-69447659D01*
X24864285Y-69542897D01*
X24864285Y-69590516D01*
X24816666Y-69685754D01*
X24769047Y-69733373D01*
X24673809Y-69780992D01*
X24483333Y-69780992D01*
X24388095Y-69828611D01*
X24340476Y-69876230D01*
X24292857Y-69971468D01*
X24292857Y-70161944D01*
X24340476Y-70257182D01*
X24388095Y-70304801D01*
X24483333Y-70352420D01*
X24673809Y-70352420D01*
X24769047Y-70304801D01*
X24816666Y-70257182D01*
X24864285Y-70161944D01*
X24864285Y-69971468D01*
X24816666Y-69876230D01*
X24769047Y-69828611D01*
X24673809Y-69780992D01*
X25816666Y-70352420D02*
X25245238Y-70352420D01*
X25530952Y-70352420D02*
X25530952Y-69352420D01*
X25435714Y-69495278D01*
X25340476Y-69590516D01*
X25245238Y-69638135D01*
X26197619Y-69447659D02*
X26245238Y-69400040D01*
X26340476Y-69352420D01*
X26578571Y-69352420D01*
X26673809Y-69400040D01*
X26721428Y-69447659D01*
X26769047Y-69542897D01*
X26769047Y-69638135D01*
X26721428Y-69780992D01*
X26150000Y-70352420D01*
X26769047Y-70352420D01*
X27197619Y-70352420D02*
X27197619Y-69352420D01*
X27530952Y-70066706D01*
X27864285Y-69352420D01*
X27864285Y-70352420D01*
X28340476Y-70352420D02*
X28340476Y-69352420D01*
X28816666Y-70352420D02*
X28816666Y-69352420D01*
X29388095Y-70352420D01*
X29388095Y-69352420D01*
X29864285Y-70352420D02*
X29864285Y-69352420D01*
D11*
X25090476Y-66876230D02*
X24852380Y-66876230D01*
X24852380Y-66376230D01*
X25257142Y-66614325D02*
X25423809Y-66614325D01*
X25495238Y-66876230D02*
X25257142Y-66876230D01*
X25257142Y-66376230D01*
X25495238Y-66376230D01*
X25709523Y-66876230D02*
X25709523Y-66376230D01*
X25828571Y-66376230D01*
X25900000Y-66400040D01*
X25947619Y-66447659D01*
X25971428Y-66495278D01*
X25995238Y-66590516D01*
X25995238Y-66661944D01*
X25971428Y-66757182D01*
X25947619Y-66804801D01*
X25900000Y-66852420D01*
X25828571Y-66876230D01*
X25709523Y-66876230D01*
X26185714Y-66423849D02*
X26209523Y-66400040D01*
X26257142Y-66376230D01*
X26376190Y-66376230D01*
X26423809Y-66400040D01*
X26447619Y-66423849D01*
X26471428Y-66471468D01*
X26471428Y-66519087D01*
X26447619Y-66590516D01*
X26161904Y-66876230D01*
X26471428Y-66876230D01*
D12*
X21388095Y-88904801D02*
X21530952Y-88952420D01*
X21769047Y-88952420D01*
X21864285Y-88904801D01*
X21911904Y-88857182D01*
X21959523Y-88761944D01*
X21959523Y-88666706D01*
X21911904Y-88571468D01*
X21864285Y-88523849D01*
X21769047Y-88476230D01*
X21578571Y-88428611D01*
X21483333Y-88380992D01*
X21435714Y-88333373D01*
X21388095Y-88238135D01*
X21388095Y-88142897D01*
X21435714Y-88047659D01*
X21483333Y-88000040D01*
X21578571Y-87952420D01*
X21816666Y-87952420D01*
X21959523Y-88000040D01*
X22388095Y-88952420D02*
X22388095Y-87952420D01*
X22959523Y-88952420D02*
X22530952Y-88380992D01*
X22959523Y-87952420D02*
X22388095Y-88523849D01*
X23816666Y-87952420D02*
X23626190Y-87952420D01*
X23530952Y-88000040D01*
X23483333Y-88047659D01*
X23388095Y-88190516D01*
X23340476Y-88380992D01*
X23340476Y-88761944D01*
X23388095Y-88857182D01*
X23435714Y-88904801D01*
X23530952Y-88952420D01*
X23721428Y-88952420D01*
X23816666Y-88904801D01*
X23864285Y-88857182D01*
X23911904Y-88761944D01*
X23911904Y-88523849D01*
X23864285Y-88428611D01*
X23816666Y-88380992D01*
X23721428Y-88333373D01*
X23530952Y-88333373D01*
X23435714Y-88380992D01*
X23388095Y-88428611D01*
X23340476Y-88523849D01*
X24483333Y-88380992D02*
X24388095Y-88333373D01*
X24340476Y-88285754D01*
X24292857Y-88190516D01*
X24292857Y-88142897D01*
X24340476Y-88047659D01*
X24388095Y-88000040D01*
X24483333Y-87952420D01*
X24673809Y-87952420D01*
X24769047Y-88000040D01*
X24816666Y-88047659D01*
X24864285Y-88142897D01*
X24864285Y-88190516D01*
X24816666Y-88285754D01*
X24769047Y-88333373D01*
X24673809Y-88380992D01*
X24483333Y-88380992D01*
X24388095Y-88428611D01*
X24340476Y-88476230D01*
X24292857Y-88571468D01*
X24292857Y-88761944D01*
X24340476Y-88857182D01*
X24388095Y-88904801D01*
X24483333Y-88952420D01*
X24673809Y-88952420D01*
X24769047Y-88904801D01*
X24816666Y-88857182D01*
X24864285Y-88761944D01*
X24864285Y-88571468D01*
X24816666Y-88476230D01*
X24769047Y-88428611D01*
X24673809Y-88380992D01*
X25816666Y-88952420D02*
X25245238Y-88952420D01*
X25530952Y-88952420D02*
X25530952Y-87952420D01*
X25435714Y-88095278D01*
X25340476Y-88190516D01*
X25245238Y-88238135D01*
X26197619Y-88047659D02*
X26245238Y-88000040D01*
X26340476Y-87952420D01*
X26578571Y-87952420D01*
X26673809Y-88000040D01*
X26721428Y-88047659D01*
X26769047Y-88142897D01*
X26769047Y-88238135D01*
X26721428Y-88380992D01*
X26150000Y-88952420D01*
X26769047Y-88952420D01*
X27197619Y-88952420D02*
X27197619Y-87952420D01*
X27530952Y-88666706D01*
X27864285Y-87952420D01*
X27864285Y-88952420D01*
X28340476Y-88952420D02*
X28340476Y-87952420D01*
X28816666Y-88952420D02*
X28816666Y-87952420D01*
X29388095Y-88952420D01*
X29388095Y-87952420D01*
X29864285Y-88952420D02*
X29864285Y-87952420D01*
D11*
X25090476Y-85476230D02*
X24852380Y-85476230D01*
X24852380Y-84976230D01*
X25257142Y-85214325D02*
X25423809Y-85214325D01*
X25495238Y-85476230D02*
X25257142Y-85476230D01*
X25257142Y-84976230D01*
X25495238Y-84976230D01*
X25709523Y-85476230D02*
X25709523Y-84976230D01*
X25828571Y-84976230D01*
X25900000Y-85000040D01*
X25947619Y-85047659D01*
X25971428Y-85095278D01*
X25995238Y-85190516D01*
X25995238Y-85261944D01*
X25971428Y-85357182D01*
X25947619Y-85404801D01*
X25900000Y-85452420D01*
X25828571Y-85476230D01*
X25709523Y-85476230D01*
X26161904Y-84976230D02*
X26471428Y-84976230D01*
X26304761Y-85166706D01*
X26376190Y-85166706D01*
X26423809Y-85190516D01*
X26447619Y-85214325D01*
X26471428Y-85261944D01*
X26471428Y-85380992D01*
X26447619Y-85428611D01*
X26423809Y-85452420D01*
X26376190Y-85476230D01*
X26233333Y-85476230D01*
X26185714Y-85452420D01*
X26161904Y-85428611D01*
D12*
X21388095Y-93104801D02*
X21530952Y-93152420D01*
X21769047Y-93152420D01*
X21864285Y-93104801D01*
X21911904Y-93057182D01*
X21959523Y-92961944D01*
X21959523Y-92866706D01*
X21911904Y-92771468D01*
X21864285Y-92723849D01*
X21769047Y-92676230D01*
X21578571Y-92628611D01*
X21483333Y-92580992D01*
X21435714Y-92533373D01*
X21388095Y-92438135D01*
X21388095Y-92342897D01*
X21435714Y-92247659D01*
X21483333Y-92200040D01*
X21578571Y-92152420D01*
X21816666Y-92152420D01*
X21959523Y-92200040D01*
X22388095Y-93152420D02*
X22388095Y-92152420D01*
X22959523Y-93152420D02*
X22530952Y-92580992D01*
X22959523Y-92152420D02*
X22388095Y-92723849D01*
X23816666Y-92152420D02*
X23626190Y-92152420D01*
X23530952Y-92200040D01*
X23483333Y-92247659D01*
X23388095Y-92390516D01*
X23340476Y-92580992D01*
X23340476Y-92961944D01*
X23388095Y-93057182D01*
X23435714Y-93104801D01*
X23530952Y-93152420D01*
X23721428Y-93152420D01*
X23816666Y-93104801D01*
X23864285Y-93057182D01*
X23911904Y-92961944D01*
X23911904Y-92723849D01*
X23864285Y-92628611D01*
X23816666Y-92580992D01*
X23721428Y-92533373D01*
X23530952Y-92533373D01*
X23435714Y-92580992D01*
X23388095Y-92628611D01*
X23340476Y-92723849D01*
X24483333Y-92580992D02*
X24388095Y-92533373D01*
X24340476Y-92485754D01*
X24292857Y-92390516D01*
X24292857Y-92342897D01*
X24340476Y-92247659D01*
X24388095Y-92200040D01*
X24483333Y-92152420D01*
X24673809Y-92152420D01*
X24769047Y-92200040D01*
X24816666Y-92247659D01*
X24864285Y-92342897D01*
X24864285Y-92390516D01*
X24816666Y-92485754D01*
X24769047Y-92533373D01*
X24673809Y-92580992D01*
X24483333Y-92580992D01*
X24388095Y-92628611D01*
X24340476Y-92676230D01*
X24292857Y-92771468D01*
X24292857Y-92961944D01*
X24340476Y-93057182D01*
X24388095Y-93104801D01*
X24483333Y-93152420D01*
X24673809Y-93152420D01*
X24769047Y-93104801D01*
X24816666Y-93057182D01*
X24864285Y-92961944D01*
X24864285Y-92771468D01*
X24816666Y-92676230D01*
X24769047Y-92628611D01*
X24673809Y-92580992D01*
X25816666Y-93152420D02*
X25245238Y-93152420D01*
X25530952Y-93152420D02*
X25530952Y-92152420D01*
X25435714Y-92295278D01*
X25340476Y-92390516D01*
X25245238Y-92438135D01*
X26197619Y-92247659D02*
X26245238Y-92200040D01*
X26340476Y-92152420D01*
X26578571Y-92152420D01*
X26673809Y-92200040D01*
X26721428Y-92247659D01*
X26769047Y-92342897D01*
X26769047Y-92438135D01*
X26721428Y-92580992D01*
X26150000Y-93152420D01*
X26769047Y-93152420D01*
X27197619Y-93152420D02*
X27197619Y-92152420D01*
X27530952Y-92866706D01*
X27864285Y-92152420D01*
X27864285Y-93152420D01*
X28340476Y-93152420D02*
X28340476Y-92152420D01*
X28816666Y-93152420D02*
X28816666Y-92152420D01*
X29388095Y-93152420D01*
X29388095Y-92152420D01*
X29864285Y-93152420D02*
X29864285Y-92152420D01*
D11*
X25090476Y-89676230D02*
X24852380Y-89676230D01*
X24852380Y-89176230D01*
X25257142Y-89414325D02*
X25423809Y-89414325D01*
X25495238Y-89676230D02*
X25257142Y-89676230D01*
X25257142Y-89176230D01*
X25495238Y-89176230D01*
X25709523Y-89676230D02*
X25709523Y-89176230D01*
X25828571Y-89176230D01*
X25900000Y-89200040D01*
X25947619Y-89247659D01*
X25971428Y-89295278D01*
X25995238Y-89390516D01*
X25995238Y-89461944D01*
X25971428Y-89557182D01*
X25947619Y-89604801D01*
X25900000Y-89652420D01*
X25828571Y-89676230D01*
X25709523Y-89676230D01*
X26423809Y-89342897D02*
X26423809Y-89676230D01*
X26304761Y-89152420D02*
X26185714Y-89509563D01*
X26495238Y-89509563D01*
D12*
X300188095Y-40404801D02*
X300330952Y-40452420D01*
X300569047Y-40452420D01*
X300664285Y-40404801D01*
X300711904Y-40357182D01*
X300759523Y-40261944D01*
X300759523Y-40166706D01*
X300711904Y-40071468D01*
X300664285Y-40023849D01*
X300569047Y-39976230D01*
X300378571Y-39928611D01*
X300283333Y-39880992D01*
X300235714Y-39833373D01*
X300188095Y-39738135D01*
X300188095Y-39642897D01*
X300235714Y-39547659D01*
X300283333Y-39500040D01*
X300378571Y-39452420D01*
X300616666Y-39452420D01*
X300759523Y-39500040D01*
X301188095Y-40452420D02*
X301188095Y-39452420D01*
X301759523Y-40452420D02*
X301330952Y-39880992D01*
X301759523Y-39452420D02*
X301188095Y-40023849D01*
X302616666Y-39452420D02*
X302426190Y-39452420D01*
X302330952Y-39500040D01*
X302283333Y-39547659D01*
X302188095Y-39690516D01*
X302140476Y-39880992D01*
X302140476Y-40261944D01*
X302188095Y-40357182D01*
X302235714Y-40404801D01*
X302330952Y-40452420D01*
X302521428Y-40452420D01*
X302616666Y-40404801D01*
X302664285Y-40357182D01*
X302711904Y-40261944D01*
X302711904Y-40023849D01*
X302664285Y-39928611D01*
X302616666Y-39880992D01*
X302521428Y-39833373D01*
X302330952Y-39833373D01*
X302235714Y-39880992D01*
X302188095Y-39928611D01*
X302140476Y-40023849D01*
X303283333Y-39880992D02*
X303188095Y-39833373D01*
X303140476Y-39785754D01*
X303092857Y-39690516D01*
X303092857Y-39642897D01*
X303140476Y-39547659D01*
X303188095Y-39500040D01*
X303283333Y-39452420D01*
X303473809Y-39452420D01*
X303569047Y-39500040D01*
X303616666Y-39547659D01*
X303664285Y-39642897D01*
X303664285Y-39690516D01*
X303616666Y-39785754D01*
X303569047Y-39833373D01*
X303473809Y-39880992D01*
X303283333Y-39880992D01*
X303188095Y-39928611D01*
X303140476Y-39976230D01*
X303092857Y-40071468D01*
X303092857Y-40261944D01*
X303140476Y-40357182D01*
X303188095Y-40404801D01*
X303283333Y-40452420D01*
X303473809Y-40452420D01*
X303569047Y-40404801D01*
X303616666Y-40357182D01*
X303664285Y-40261944D01*
X303664285Y-40071468D01*
X303616666Y-39976230D01*
X303569047Y-39928611D01*
X303473809Y-39880992D01*
X304616666Y-40452420D02*
X304045238Y-40452420D01*
X304330952Y-40452420D02*
X304330952Y-39452420D01*
X304235714Y-39595278D01*
X304140476Y-39690516D01*
X304045238Y-39738135D01*
X304997619Y-39547659D02*
X305045238Y-39500040D01*
X305140476Y-39452420D01*
X305378571Y-39452420D01*
X305473809Y-39500040D01*
X305521428Y-39547659D01*
X305569047Y-39642897D01*
X305569047Y-39738135D01*
X305521428Y-39880992D01*
X304950000Y-40452420D01*
X305569047Y-40452420D01*
X305997619Y-40452420D02*
X305997619Y-39452420D01*
X306330952Y-40166706D01*
X306664285Y-39452420D01*
X306664285Y-40452420D01*
X307140476Y-40452420D02*
X307140476Y-39452420D01*
X307616666Y-40452420D02*
X307616666Y-39452420D01*
X308188095Y-40452420D01*
X308188095Y-39452420D01*
X308664285Y-40452420D02*
X308664285Y-39452420D01*
D11*
X303890476Y-43476230D02*
X303652380Y-43476230D01*
X303652380Y-42976230D01*
X304057142Y-43214325D02*
X304223809Y-43214325D01*
X304295238Y-43476230D02*
X304057142Y-43476230D01*
X304057142Y-42976230D01*
X304295238Y-42976230D01*
X304509523Y-43476230D02*
X304509523Y-42976230D01*
X304628571Y-42976230D01*
X304700000Y-43000040D01*
X304747619Y-43047659D01*
X304771428Y-43095278D01*
X304795238Y-43190516D01*
X304795238Y-43261944D01*
X304771428Y-43357182D01*
X304747619Y-43404801D01*
X304700000Y-43452420D01*
X304628571Y-43476230D01*
X304509523Y-43476230D01*
X305247619Y-42976230D02*
X305009523Y-42976230D01*
X304985714Y-43214325D01*
X305009523Y-43190516D01*
X305057142Y-43166706D01*
X305176190Y-43166706D01*
X305223809Y-43190516D01*
X305247619Y-43214325D01*
X305271428Y-43261944D01*
X305271428Y-43380992D01*
X305247619Y-43428611D01*
X305223809Y-43452420D01*
X305176190Y-43476230D01*
X305057142Y-43476230D01*
X305009523Y-43452420D01*
X304985714Y-43428611D01*
D12*
X300188095Y-44604801D02*
X300330952Y-44652420D01*
X300569047Y-44652420D01*
X300664285Y-44604801D01*
X300711904Y-44557182D01*
X300759523Y-44461944D01*
X300759523Y-44366706D01*
X300711904Y-44271468D01*
X300664285Y-44223849D01*
X300569047Y-44176230D01*
X300378571Y-44128611D01*
X300283333Y-44080992D01*
X300235714Y-44033373D01*
X300188095Y-43938135D01*
X300188095Y-43842897D01*
X300235714Y-43747659D01*
X300283333Y-43700040D01*
X300378571Y-43652420D01*
X300616666Y-43652420D01*
X300759523Y-43700040D01*
X301188095Y-44652420D02*
X301188095Y-43652420D01*
X301759523Y-44652420D02*
X301330952Y-44080992D01*
X301759523Y-43652420D02*
X301188095Y-44223849D01*
X302616666Y-43652420D02*
X302426190Y-43652420D01*
X302330952Y-43700040D01*
X302283333Y-43747659D01*
X302188095Y-43890516D01*
X302140476Y-44080992D01*
X302140476Y-44461944D01*
X302188095Y-44557182D01*
X302235714Y-44604801D01*
X302330952Y-44652420D01*
X302521428Y-44652420D01*
X302616666Y-44604801D01*
X302664285Y-44557182D01*
X302711904Y-44461944D01*
X302711904Y-44223849D01*
X302664285Y-44128611D01*
X302616666Y-44080992D01*
X302521428Y-44033373D01*
X302330952Y-44033373D01*
X302235714Y-44080992D01*
X302188095Y-44128611D01*
X302140476Y-44223849D01*
X303283333Y-44080992D02*
X303188095Y-44033373D01*
X303140476Y-43985754D01*
X303092857Y-43890516D01*
X303092857Y-43842897D01*
X303140476Y-43747659D01*
X303188095Y-43700040D01*
X303283333Y-43652420D01*
X303473809Y-43652420D01*
X303569047Y-43700040D01*
X303616666Y-43747659D01*
X303664285Y-43842897D01*
X303664285Y-43890516D01*
X303616666Y-43985754D01*
X303569047Y-44033373D01*
X303473809Y-44080992D01*
X303283333Y-44080992D01*
X303188095Y-44128611D01*
X303140476Y-44176230D01*
X303092857Y-44271468D01*
X303092857Y-44461944D01*
X303140476Y-44557182D01*
X303188095Y-44604801D01*
X303283333Y-44652420D01*
X303473809Y-44652420D01*
X303569047Y-44604801D01*
X303616666Y-44557182D01*
X303664285Y-44461944D01*
X303664285Y-44271468D01*
X303616666Y-44176230D01*
X303569047Y-44128611D01*
X303473809Y-44080992D01*
X304616666Y-44652420D02*
X304045238Y-44652420D01*
X304330952Y-44652420D02*
X304330952Y-43652420D01*
X304235714Y-43795278D01*
X304140476Y-43890516D01*
X304045238Y-43938135D01*
X304997619Y-43747659D02*
X305045238Y-43700040D01*
X305140476Y-43652420D01*
X305378571Y-43652420D01*
X305473809Y-43700040D01*
X305521428Y-43747659D01*
X305569047Y-43842897D01*
X305569047Y-43938135D01*
X305521428Y-44080992D01*
X304950000Y-44652420D01*
X305569047Y-44652420D01*
X305997619Y-44652420D02*
X305997619Y-43652420D01*
X306330952Y-44366706D01*
X306664285Y-43652420D01*
X306664285Y-44652420D01*
X307140476Y-44652420D02*
X307140476Y-43652420D01*
X307616666Y-44652420D02*
X307616666Y-43652420D01*
X308188095Y-44652420D01*
X308188095Y-43652420D01*
X308664285Y-44652420D02*
X308664285Y-43652420D01*
D11*
X303890476Y-47676230D02*
X303652380Y-47676230D01*
X303652380Y-47176230D01*
X304057142Y-47414325D02*
X304223809Y-47414325D01*
X304295238Y-47676230D02*
X304057142Y-47676230D01*
X304057142Y-47176230D01*
X304295238Y-47176230D01*
X304509523Y-47676230D02*
X304509523Y-47176230D01*
X304628571Y-47176230D01*
X304700000Y-47200040D01*
X304747619Y-47247659D01*
X304771428Y-47295278D01*
X304795238Y-47390516D01*
X304795238Y-47461944D01*
X304771428Y-47557182D01*
X304747619Y-47604801D01*
X304700000Y-47652420D01*
X304628571Y-47676230D01*
X304509523Y-47676230D01*
X305223809Y-47176230D02*
X305128571Y-47176230D01*
X305080952Y-47200040D01*
X305057142Y-47223849D01*
X305009523Y-47295278D01*
X304985714Y-47390516D01*
X304985714Y-47580992D01*
X305009523Y-47628611D01*
X305033333Y-47652420D01*
X305080952Y-47676230D01*
X305176190Y-47676230D01*
X305223809Y-47652420D01*
X305247619Y-47628611D01*
X305271428Y-47580992D01*
X305271428Y-47461944D01*
X305247619Y-47414325D01*
X305223809Y-47390516D01*
X305176190Y-47366706D01*
X305080952Y-47366706D01*
X305033333Y-47390516D01*
X305009523Y-47414325D01*
X304985714Y-47461944D01*
D12*
X300188095Y-59604801D02*
X300330952Y-59652420D01*
X300569047Y-59652420D01*
X300664285Y-59604801D01*
X300711904Y-59557182D01*
X300759523Y-59461944D01*
X300759523Y-59366706D01*
X300711904Y-59271468D01*
X300664285Y-59223849D01*
X300569047Y-59176230D01*
X300378571Y-59128611D01*
X300283333Y-59080992D01*
X300235714Y-59033373D01*
X300188095Y-58938135D01*
X300188095Y-58842897D01*
X300235714Y-58747659D01*
X300283333Y-58700040D01*
X300378571Y-58652420D01*
X300616666Y-58652420D01*
X300759523Y-58700040D01*
X301188095Y-59652420D02*
X301188095Y-58652420D01*
X301759523Y-59652420D02*
X301330952Y-59080992D01*
X301759523Y-58652420D02*
X301188095Y-59223849D01*
X302616666Y-58652420D02*
X302426190Y-58652420D01*
X302330952Y-58700040D01*
X302283333Y-58747659D01*
X302188095Y-58890516D01*
X302140476Y-59080992D01*
X302140476Y-59461944D01*
X302188095Y-59557182D01*
X302235714Y-59604801D01*
X302330952Y-59652420D01*
X302521428Y-59652420D01*
X302616666Y-59604801D01*
X302664285Y-59557182D01*
X302711904Y-59461944D01*
X302711904Y-59223849D01*
X302664285Y-59128611D01*
X302616666Y-59080992D01*
X302521428Y-59033373D01*
X302330952Y-59033373D01*
X302235714Y-59080992D01*
X302188095Y-59128611D01*
X302140476Y-59223849D01*
X303283333Y-59080992D02*
X303188095Y-59033373D01*
X303140476Y-58985754D01*
X303092857Y-58890516D01*
X303092857Y-58842897D01*
X303140476Y-58747659D01*
X303188095Y-58700040D01*
X303283333Y-58652420D01*
X303473809Y-58652420D01*
X303569047Y-58700040D01*
X303616666Y-58747659D01*
X303664285Y-58842897D01*
X303664285Y-58890516D01*
X303616666Y-58985754D01*
X303569047Y-59033373D01*
X303473809Y-59080992D01*
X303283333Y-59080992D01*
X303188095Y-59128611D01*
X303140476Y-59176230D01*
X303092857Y-59271468D01*
X303092857Y-59461944D01*
X303140476Y-59557182D01*
X303188095Y-59604801D01*
X303283333Y-59652420D01*
X303473809Y-59652420D01*
X303569047Y-59604801D01*
X303616666Y-59557182D01*
X303664285Y-59461944D01*
X303664285Y-59271468D01*
X303616666Y-59176230D01*
X303569047Y-59128611D01*
X303473809Y-59080992D01*
X304616666Y-59652420D02*
X304045238Y-59652420D01*
X304330952Y-59652420D02*
X304330952Y-58652420D01*
X304235714Y-58795278D01*
X304140476Y-58890516D01*
X304045238Y-58938135D01*
X304997619Y-58747659D02*
X305045238Y-58700040D01*
X305140476Y-58652420D01*
X305378571Y-58652420D01*
X305473809Y-58700040D01*
X305521428Y-58747659D01*
X305569047Y-58842897D01*
X305569047Y-58938135D01*
X305521428Y-59080992D01*
X304950000Y-59652420D01*
X305569047Y-59652420D01*
X305997619Y-59652420D02*
X305997619Y-58652420D01*
X306330952Y-59366706D01*
X306664285Y-58652420D01*
X306664285Y-59652420D01*
X307140476Y-59652420D02*
X307140476Y-58652420D01*
X307616666Y-59652420D02*
X307616666Y-58652420D01*
X308188095Y-59652420D01*
X308188095Y-58652420D01*
X308664285Y-59652420D02*
X308664285Y-58652420D01*
D11*
X303890476Y-62676230D02*
X303652380Y-62676230D01*
X303652380Y-62176230D01*
X304057142Y-62414325D02*
X304223809Y-62414325D01*
X304295238Y-62676230D02*
X304057142Y-62676230D01*
X304057142Y-62176230D01*
X304295238Y-62176230D01*
X304509523Y-62676230D02*
X304509523Y-62176230D01*
X304628571Y-62176230D01*
X304700000Y-62200040D01*
X304747619Y-62247659D01*
X304771428Y-62295278D01*
X304795238Y-62390516D01*
X304795238Y-62461944D01*
X304771428Y-62557182D01*
X304747619Y-62604801D01*
X304700000Y-62652420D01*
X304628571Y-62676230D01*
X304509523Y-62676230D01*
X304961904Y-62176230D02*
X305295238Y-62176230D01*
X305080952Y-62676230D01*
D12*
X300188095Y-63804801D02*
X300330952Y-63852420D01*
X300569047Y-63852420D01*
X300664285Y-63804801D01*
X300711904Y-63757182D01*
X300759523Y-63661944D01*
X300759523Y-63566706D01*
X300711904Y-63471468D01*
X300664285Y-63423849D01*
X300569047Y-63376230D01*
X300378571Y-63328611D01*
X300283333Y-63280992D01*
X300235714Y-63233373D01*
X300188095Y-63138135D01*
X300188095Y-63042897D01*
X300235714Y-62947659D01*
X300283333Y-62900040D01*
X300378571Y-62852420D01*
X300616666Y-62852420D01*
X300759523Y-62900040D01*
X301188095Y-63852420D02*
X301188095Y-62852420D01*
X301759523Y-63852420D02*
X301330952Y-63280992D01*
X301759523Y-62852420D02*
X301188095Y-63423849D01*
X302616666Y-62852420D02*
X302426190Y-62852420D01*
X302330952Y-62900040D01*
X302283333Y-62947659D01*
X302188095Y-63090516D01*
X302140476Y-63280992D01*
X302140476Y-63661944D01*
X302188095Y-63757182D01*
X302235714Y-63804801D01*
X302330952Y-63852420D01*
X302521428Y-63852420D01*
X302616666Y-63804801D01*
X302664285Y-63757182D01*
X302711904Y-63661944D01*
X302711904Y-63423849D01*
X302664285Y-63328611D01*
X302616666Y-63280992D01*
X302521428Y-63233373D01*
X302330952Y-63233373D01*
X302235714Y-63280992D01*
X302188095Y-63328611D01*
X302140476Y-63423849D01*
X303283333Y-63280992D02*
X303188095Y-63233373D01*
X303140476Y-63185754D01*
X303092857Y-63090516D01*
X303092857Y-63042897D01*
X303140476Y-62947659D01*
X303188095Y-62900040D01*
X303283333Y-62852420D01*
X303473809Y-62852420D01*
X303569047Y-62900040D01*
X303616666Y-62947659D01*
X303664285Y-63042897D01*
X303664285Y-63090516D01*
X303616666Y-63185754D01*
X303569047Y-63233373D01*
X303473809Y-63280992D01*
X303283333Y-63280992D01*
X303188095Y-63328611D01*
X303140476Y-63376230D01*
X303092857Y-63471468D01*
X303092857Y-63661944D01*
X303140476Y-63757182D01*
X303188095Y-63804801D01*
X303283333Y-63852420D01*
X303473809Y-63852420D01*
X303569047Y-63804801D01*
X303616666Y-63757182D01*
X303664285Y-63661944D01*
X303664285Y-63471468D01*
X303616666Y-63376230D01*
X303569047Y-63328611D01*
X303473809Y-63280992D01*
X304616666Y-63852420D02*
X304045238Y-63852420D01*
X304330952Y-63852420D02*
X304330952Y-62852420D01*
X304235714Y-62995278D01*
X304140476Y-63090516D01*
X304045238Y-63138135D01*
X304997619Y-62947659D02*
X305045238Y-62900040D01*
X305140476Y-62852420D01*
X305378571Y-62852420D01*
X305473809Y-62900040D01*
X305521428Y-62947659D01*
X305569047Y-63042897D01*
X305569047Y-63138135D01*
X305521428Y-63280992D01*
X304950000Y-63852420D01*
X305569047Y-63852420D01*
X305997619Y-63852420D02*
X305997619Y-62852420D01*
X306330952Y-63566706D01*
X306664285Y-62852420D01*
X306664285Y-63852420D01*
X307140476Y-63852420D02*
X307140476Y-62852420D01*
X307616666Y-63852420D02*
X307616666Y-62852420D01*
X308188095Y-63852420D01*
X308188095Y-62852420D01*
X308664285Y-63852420D02*
X308664285Y-62852420D01*
D11*
X303890476Y-66876230D02*
X303652380Y-66876230D01*
X303652380Y-66376230D01*
X304057142Y-66614325D02*
X304223809Y-66614325D01*
X304295238Y-66876230D02*
X304057142Y-66876230D01*
X304057142Y-66376230D01*
X304295238Y-66376230D01*
X304509523Y-66876230D02*
X304509523Y-66376230D01*
X304628571Y-66376230D01*
X304700000Y-66400040D01*
X304747619Y-66447659D01*
X304771428Y-66495278D01*
X304795238Y-66590516D01*
X304795238Y-66661944D01*
X304771428Y-66757182D01*
X304747619Y-66804801D01*
X304700000Y-66852420D01*
X304628571Y-66876230D01*
X304509523Y-66876230D01*
X305080952Y-66590516D02*
X305033333Y-66566706D01*
X305009523Y-66542897D01*
X304985714Y-66495278D01*
X304985714Y-66471468D01*
X305009523Y-66423849D01*
X305033333Y-66400040D01*
X305080952Y-66376230D01*
X305176190Y-66376230D01*
X305223809Y-66400040D01*
X305247619Y-66423849D01*
X305271428Y-66471468D01*
X305271428Y-66495278D01*
X305247619Y-66542897D01*
X305223809Y-66566706D01*
X305176190Y-66590516D01*
X305080952Y-66590516D01*
X305033333Y-66614325D01*
X305009523Y-66638135D01*
X304985714Y-66685754D01*
X304985714Y-66780992D01*
X305009523Y-66828611D01*
X305033333Y-66852420D01*
X305080952Y-66876230D01*
X305176190Y-66876230D01*
X305223809Y-66852420D01*
X305247619Y-66828611D01*
X305271428Y-66780992D01*
X305271428Y-66685754D01*
X305247619Y-66638135D01*
X305223809Y-66614325D01*
X305176190Y-66590516D01*
M02*
