G04 #@! TF.GenerationSoftware,KiCad,Pcbnew,(5.1.6-0-10_14)*
G04 #@! TF.CreationDate,2020-06-28T15:00:23+09:00*
G04 #@! TF.ProjectId,Jones,4a6f6e65-732e-46b6-9963-61645f706362,rev?*
G04 #@! TF.SameCoordinates,Original*
G04 #@! TF.FileFunction,Other,Fab,Bot*
%FSLAX46Y46*%
G04 Gerber Fmt 4.6, Leading zero omitted, Abs format (unit mm)*
G04 Created by KiCad (PCBNEW (5.1.6-0-10_14)) date 2020-06-28 15:00:23*
%MOMM*%
%LPD*%
G01*
G04 APERTURE LIST*
%ADD10C,0.100000*%
%ADD11C,0.150000*%
%ADD12C,0.200000*%
%ADD13C,0.127000*%
%ADD14C,0.120000*%
%ADD15C,0.015000*%
G04 APERTURE END LIST*
D10*
X61132000Y-57353000D02*
X63632000Y-57353000D01*
X63632000Y-57353000D02*
X63632000Y-60553000D01*
X63632000Y-60553000D02*
X61132000Y-60553000D01*
X61132000Y-60553000D02*
X61132000Y-57353000D01*
X62632000Y-57353000D02*
X63632000Y-58353000D01*
X60782000Y-54927000D02*
X63982000Y-54927000D01*
X60782000Y-53327000D02*
X60782000Y-54927000D01*
X63982000Y-53327000D02*
X60782000Y-53327000D01*
X63982000Y-54927000D02*
X63982000Y-53327000D01*
X63982000Y-64452000D02*
X63982000Y-62852000D01*
X63982000Y-62852000D02*
X60782000Y-62852000D01*
X60782000Y-62852000D02*
X60782000Y-64452000D01*
X60782000Y-64452000D02*
X63982000Y-64452000D01*
X107351000Y-54003000D02*
X107351000Y-51203000D01*
X107351000Y-51203000D02*
X105551000Y-51203000D01*
X105551000Y-51203000D02*
X105551000Y-54003000D01*
X105551000Y-54003000D02*
X107351000Y-54003000D01*
X106451000Y-53353000D02*
X106451000Y-52953000D01*
X106451000Y-52953000D02*
X107001000Y-52953000D01*
X106451000Y-52953000D02*
X105901000Y-52953000D01*
X106451000Y-52953000D02*
X106851000Y-52353000D01*
X106851000Y-52353000D02*
X106051000Y-52353000D01*
X106051000Y-52353000D02*
X106451000Y-52953000D01*
X106451000Y-52353000D02*
X106451000Y-51853000D01*
X40930000Y-40160000D02*
X40930000Y-37360000D01*
X40930000Y-37360000D02*
X39130000Y-37360000D01*
X39130000Y-37360000D02*
X39130000Y-40160000D01*
X39130000Y-40160000D02*
X40930000Y-40160000D01*
X40030000Y-39510000D02*
X40030000Y-39110000D01*
X40030000Y-39110000D02*
X40580000Y-39110000D01*
X40030000Y-39110000D02*
X39480000Y-39110000D01*
X40030000Y-39110000D02*
X40430000Y-38510000D01*
X40430000Y-38510000D02*
X39630000Y-38510000D01*
X39630000Y-38510000D02*
X40030000Y-39110000D01*
X40030000Y-38510000D02*
X40030000Y-38010000D01*
X59980000Y-40160000D02*
X59980000Y-37360000D01*
X59980000Y-37360000D02*
X58180000Y-37360000D01*
X58180000Y-37360000D02*
X58180000Y-40160000D01*
X58180000Y-40160000D02*
X59980000Y-40160000D01*
X59080000Y-39510000D02*
X59080000Y-39110000D01*
X59080000Y-39110000D02*
X59630000Y-39110000D01*
X59080000Y-39110000D02*
X58530000Y-39110000D01*
X59080000Y-39110000D02*
X59480000Y-38510000D01*
X59480000Y-38510000D02*
X58680000Y-38510000D01*
X58680000Y-38510000D02*
X59080000Y-39110000D01*
X59080000Y-38510000D02*
X59080000Y-38010000D01*
X76490000Y-37620000D02*
X76490000Y-34820000D01*
X76490000Y-34820000D02*
X74690000Y-34820000D01*
X74690000Y-34820000D02*
X74690000Y-37620000D01*
X74690000Y-37620000D02*
X76490000Y-37620000D01*
X75590000Y-36970000D02*
X75590000Y-36570000D01*
X75590000Y-36570000D02*
X76140000Y-36570000D01*
X75590000Y-36570000D02*
X75040000Y-36570000D01*
X75590000Y-36570000D02*
X75990000Y-35970000D01*
X75990000Y-35970000D02*
X75190000Y-35970000D01*
X75190000Y-35970000D02*
X75590000Y-36570000D01*
X75590000Y-35970000D02*
X75590000Y-35470000D01*
X95540000Y-37620000D02*
X95540000Y-34820000D01*
X95540000Y-34820000D02*
X93740000Y-34820000D01*
X93740000Y-34820000D02*
X93740000Y-37620000D01*
X93740000Y-37620000D02*
X95540000Y-37620000D01*
X94640000Y-36970000D02*
X94640000Y-36570000D01*
X94640000Y-36570000D02*
X95190000Y-36570000D01*
X94640000Y-36570000D02*
X94090000Y-36570000D01*
X94640000Y-36570000D02*
X95040000Y-35970000D01*
X95040000Y-35970000D02*
X94240000Y-35970000D01*
X94240000Y-35970000D02*
X94640000Y-36570000D01*
X94640000Y-35970000D02*
X94640000Y-35470000D01*
X114590000Y-37620000D02*
X114590000Y-34820000D01*
X114590000Y-34820000D02*
X112790000Y-34820000D01*
X112790000Y-34820000D02*
X112790000Y-37620000D01*
X112790000Y-37620000D02*
X114590000Y-37620000D01*
X113690000Y-36970000D02*
X113690000Y-36570000D01*
X113690000Y-36570000D02*
X114240000Y-36570000D01*
X113690000Y-36570000D02*
X113140000Y-36570000D01*
X113690000Y-36570000D02*
X114090000Y-35970000D01*
X114090000Y-35970000D02*
X113290000Y-35970000D01*
X113290000Y-35970000D02*
X113690000Y-36570000D01*
X113690000Y-35970000D02*
X113690000Y-35470000D01*
X133640000Y-37620000D02*
X133640000Y-34820000D01*
X133640000Y-34820000D02*
X131840000Y-34820000D01*
X131840000Y-34820000D02*
X131840000Y-37620000D01*
X131840000Y-37620000D02*
X133640000Y-37620000D01*
X132740000Y-36970000D02*
X132740000Y-36570000D01*
X132740000Y-36570000D02*
X133290000Y-36570000D01*
X132740000Y-36570000D02*
X132190000Y-36570000D01*
X132740000Y-36570000D02*
X133140000Y-35970000D01*
X133140000Y-35970000D02*
X132340000Y-35970000D01*
X132340000Y-35970000D02*
X132740000Y-36570000D01*
X132740000Y-35970000D02*
X132740000Y-35470000D01*
X152690000Y-37620000D02*
X152690000Y-34820000D01*
X152690000Y-34820000D02*
X150890000Y-34820000D01*
X150890000Y-34820000D02*
X150890000Y-37620000D01*
X150890000Y-37620000D02*
X152690000Y-37620000D01*
X151790000Y-36970000D02*
X151790000Y-36570000D01*
X151790000Y-36570000D02*
X152340000Y-36570000D01*
X151790000Y-36570000D02*
X151240000Y-36570000D01*
X151790000Y-36570000D02*
X152190000Y-35970000D01*
X152190000Y-35970000D02*
X151390000Y-35970000D01*
X151390000Y-35970000D02*
X151790000Y-36570000D01*
X151790000Y-35970000D02*
X151790000Y-35470000D01*
X171740000Y-37620000D02*
X171740000Y-34820000D01*
X171740000Y-34820000D02*
X169940000Y-34820000D01*
X169940000Y-34820000D02*
X169940000Y-37620000D01*
X169940000Y-37620000D02*
X171740000Y-37620000D01*
X170840000Y-36970000D02*
X170840000Y-36570000D01*
X170840000Y-36570000D02*
X171390000Y-36570000D01*
X170840000Y-36570000D02*
X170290000Y-36570000D01*
X170840000Y-36570000D02*
X171240000Y-35970000D01*
X171240000Y-35970000D02*
X170440000Y-35970000D01*
X170440000Y-35970000D02*
X170840000Y-36570000D01*
X170840000Y-35970000D02*
X170840000Y-35470000D01*
X190790000Y-37620000D02*
X190790000Y-34820000D01*
X190790000Y-34820000D02*
X188990000Y-34820000D01*
X188990000Y-34820000D02*
X188990000Y-37620000D01*
X188990000Y-37620000D02*
X190790000Y-37620000D01*
X189890000Y-36970000D02*
X189890000Y-36570000D01*
X189890000Y-36570000D02*
X190440000Y-36570000D01*
X189890000Y-36570000D02*
X189340000Y-36570000D01*
X189890000Y-36570000D02*
X190290000Y-35970000D01*
X190290000Y-35970000D02*
X189490000Y-35970000D01*
X189490000Y-35970000D02*
X189890000Y-36570000D01*
X189890000Y-35970000D02*
X189890000Y-35470000D01*
X209840000Y-37620000D02*
X209840000Y-34820000D01*
X209840000Y-34820000D02*
X208040000Y-34820000D01*
X208040000Y-34820000D02*
X208040000Y-37620000D01*
X208040000Y-37620000D02*
X209840000Y-37620000D01*
X208940000Y-36970000D02*
X208940000Y-36570000D01*
X208940000Y-36570000D02*
X209490000Y-36570000D01*
X208940000Y-36570000D02*
X208390000Y-36570000D01*
X208940000Y-36570000D02*
X209340000Y-35970000D01*
X209340000Y-35970000D02*
X208540000Y-35970000D01*
X208540000Y-35970000D02*
X208940000Y-36570000D01*
X208940000Y-35970000D02*
X208940000Y-35470000D01*
X228890000Y-37620000D02*
X228890000Y-34820000D01*
X228890000Y-34820000D02*
X227090000Y-34820000D01*
X227090000Y-34820000D02*
X227090000Y-37620000D01*
X227090000Y-37620000D02*
X228890000Y-37620000D01*
X227990000Y-36970000D02*
X227990000Y-36570000D01*
X227990000Y-36570000D02*
X228540000Y-36570000D01*
X227990000Y-36570000D02*
X227440000Y-36570000D01*
X227990000Y-36570000D02*
X228390000Y-35970000D01*
X228390000Y-35970000D02*
X227590000Y-35970000D01*
X227590000Y-35970000D02*
X227990000Y-36570000D01*
X227990000Y-35970000D02*
X227990000Y-35470000D01*
X247940000Y-37620000D02*
X247940000Y-34820000D01*
X247940000Y-34820000D02*
X246140000Y-34820000D01*
X246140000Y-34820000D02*
X246140000Y-37620000D01*
X246140000Y-37620000D02*
X247940000Y-37620000D01*
X247040000Y-36970000D02*
X247040000Y-36570000D01*
X247040000Y-36570000D02*
X247590000Y-36570000D01*
X247040000Y-36570000D02*
X246490000Y-36570000D01*
X247040000Y-36570000D02*
X247440000Y-35970000D01*
X247440000Y-35970000D02*
X246640000Y-35970000D01*
X246640000Y-35970000D02*
X247040000Y-36570000D01*
X247040000Y-35970000D02*
X247040000Y-35470000D01*
X266990000Y-37620000D02*
X266990000Y-34820000D01*
X266990000Y-34820000D02*
X265190000Y-34820000D01*
X265190000Y-34820000D02*
X265190000Y-37620000D01*
X265190000Y-37620000D02*
X266990000Y-37620000D01*
X266090000Y-36970000D02*
X266090000Y-36570000D01*
X266090000Y-36570000D02*
X266640000Y-36570000D01*
X266090000Y-36570000D02*
X265540000Y-36570000D01*
X266090000Y-36570000D02*
X266490000Y-35970000D01*
X266490000Y-35970000D02*
X265690000Y-35970000D01*
X265690000Y-35970000D02*
X266090000Y-36570000D01*
X266090000Y-35970000D02*
X266090000Y-35470000D01*
X284135000Y-37620000D02*
X284135000Y-34820000D01*
X284135000Y-34820000D02*
X282335000Y-34820000D01*
X282335000Y-34820000D02*
X282335000Y-37620000D01*
X282335000Y-37620000D02*
X284135000Y-37620000D01*
X283235000Y-36970000D02*
X283235000Y-36570000D01*
X283235000Y-36570000D02*
X283785000Y-36570000D01*
X283235000Y-36570000D02*
X282685000Y-36570000D01*
X283235000Y-36570000D02*
X283635000Y-35970000D01*
X283635000Y-35970000D02*
X282835000Y-35970000D01*
X282835000Y-35970000D02*
X283235000Y-36570000D01*
X283235000Y-35970000D02*
X283235000Y-35470000D01*
X298105000Y-75720000D02*
X298105000Y-72920000D01*
X298105000Y-72920000D02*
X296305000Y-72920000D01*
X296305000Y-72920000D02*
X296305000Y-75720000D01*
X296305000Y-75720000D02*
X298105000Y-75720000D01*
X297205000Y-75070000D02*
X297205000Y-74670000D01*
X297205000Y-74670000D02*
X297755000Y-74670000D01*
X297205000Y-74670000D02*
X296655000Y-74670000D01*
X297205000Y-74670000D02*
X297605000Y-74070000D01*
X297605000Y-74070000D02*
X296805000Y-74070000D01*
X296805000Y-74070000D02*
X297205000Y-74670000D01*
X297205000Y-74070000D02*
X297205000Y-73570000D01*
X42570000Y-55020000D02*
X42570000Y-54520000D01*
X42170000Y-55020000D02*
X42570000Y-55620000D01*
X42970000Y-55020000D02*
X42170000Y-55020000D01*
X42570000Y-55620000D02*
X42970000Y-55020000D01*
X42570000Y-55620000D02*
X42020000Y-55620000D01*
X42570000Y-55620000D02*
X43120000Y-55620000D01*
X42570000Y-56020000D02*
X42570000Y-55620000D01*
X41670000Y-56670000D02*
X43470000Y-56670000D01*
X41670000Y-53870000D02*
X41670000Y-56670000D01*
X43470000Y-53870000D02*
X41670000Y-53870000D01*
X43470000Y-56670000D02*
X43470000Y-53870000D01*
X51968000Y-55020000D02*
X51968000Y-54520000D01*
X51568000Y-55020000D02*
X51968000Y-55620000D01*
X52368000Y-55020000D02*
X51568000Y-55020000D01*
X51968000Y-55620000D02*
X52368000Y-55020000D01*
X51968000Y-55620000D02*
X51418000Y-55620000D01*
X51968000Y-55620000D02*
X52518000Y-55620000D01*
X51968000Y-56020000D02*
X51968000Y-55620000D01*
X51068000Y-56670000D02*
X52868000Y-56670000D01*
X51068000Y-53870000D02*
X51068000Y-56670000D01*
X52868000Y-53870000D02*
X51068000Y-53870000D01*
X52868000Y-56670000D02*
X52868000Y-53870000D01*
X88174000Y-52098000D02*
X88174000Y-49298000D01*
X88174000Y-49298000D02*
X86374000Y-49298000D01*
X86374000Y-49298000D02*
X86374000Y-52098000D01*
X86374000Y-52098000D02*
X88174000Y-52098000D01*
X87274000Y-51448000D02*
X87274000Y-51048000D01*
X87274000Y-51048000D02*
X87824000Y-51048000D01*
X87274000Y-51048000D02*
X86724000Y-51048000D01*
X87274000Y-51048000D02*
X87674000Y-50448000D01*
X87674000Y-50448000D02*
X86874000Y-50448000D01*
X86874000Y-50448000D02*
X87274000Y-51048000D01*
X87274000Y-50448000D02*
X87274000Y-49948000D01*
X125501000Y-52226000D02*
X125501000Y-51726000D01*
X125101000Y-52226000D02*
X125501000Y-52826000D01*
X125901000Y-52226000D02*
X125101000Y-52226000D01*
X125501000Y-52826000D02*
X125901000Y-52226000D01*
X125501000Y-52826000D02*
X124951000Y-52826000D01*
X125501000Y-52826000D02*
X126051000Y-52826000D01*
X125501000Y-53226000D02*
X125501000Y-52826000D01*
X124601000Y-53876000D02*
X126401000Y-53876000D01*
X124601000Y-51076000D02*
X124601000Y-53876000D01*
X126401000Y-51076000D02*
X124601000Y-51076000D01*
X126401000Y-53876000D02*
X126401000Y-51076000D01*
X145324000Y-54130000D02*
X145324000Y-51330000D01*
X145324000Y-51330000D02*
X143524000Y-51330000D01*
X143524000Y-51330000D02*
X143524000Y-54130000D01*
X143524000Y-54130000D02*
X145324000Y-54130000D01*
X144424000Y-53480000D02*
X144424000Y-53080000D01*
X144424000Y-53080000D02*
X144974000Y-53080000D01*
X144424000Y-53080000D02*
X143874000Y-53080000D01*
X144424000Y-53080000D02*
X144824000Y-52480000D01*
X144824000Y-52480000D02*
X144024000Y-52480000D01*
X144024000Y-52480000D02*
X144424000Y-53080000D01*
X144424000Y-52480000D02*
X144424000Y-51980000D01*
X164374000Y-54384000D02*
X164374000Y-51584000D01*
X164374000Y-51584000D02*
X162574000Y-51584000D01*
X162574000Y-51584000D02*
X162574000Y-54384000D01*
X162574000Y-54384000D02*
X164374000Y-54384000D01*
X163474000Y-53734000D02*
X163474000Y-53334000D01*
X163474000Y-53334000D02*
X164024000Y-53334000D01*
X163474000Y-53334000D02*
X162924000Y-53334000D01*
X163474000Y-53334000D02*
X163874000Y-52734000D01*
X163874000Y-52734000D02*
X163074000Y-52734000D01*
X163074000Y-52734000D02*
X163474000Y-53334000D01*
X163474000Y-52734000D02*
X163474000Y-52234000D01*
X183424000Y-54384000D02*
X183424000Y-51584000D01*
X183424000Y-51584000D02*
X181624000Y-51584000D01*
X181624000Y-51584000D02*
X181624000Y-54384000D01*
X181624000Y-54384000D02*
X183424000Y-54384000D01*
X182524000Y-53734000D02*
X182524000Y-53334000D01*
X182524000Y-53334000D02*
X183074000Y-53334000D01*
X182524000Y-53334000D02*
X181974000Y-53334000D01*
X182524000Y-53334000D02*
X182924000Y-52734000D01*
X182924000Y-52734000D02*
X182124000Y-52734000D01*
X182124000Y-52734000D02*
X182524000Y-53334000D01*
X182524000Y-52734000D02*
X182524000Y-52234000D01*
X200315000Y-56670000D02*
X200315000Y-53870000D01*
X200315000Y-53870000D02*
X198515000Y-53870000D01*
X198515000Y-53870000D02*
X198515000Y-56670000D01*
X198515000Y-56670000D02*
X200315000Y-56670000D01*
X199415000Y-56020000D02*
X199415000Y-55620000D01*
X199415000Y-55620000D02*
X199965000Y-55620000D01*
X199415000Y-55620000D02*
X198865000Y-55620000D01*
X199415000Y-55620000D02*
X199815000Y-55020000D01*
X199815000Y-55020000D02*
X199015000Y-55020000D01*
X199015000Y-55020000D02*
X199415000Y-55620000D01*
X199415000Y-55020000D02*
X199415000Y-54520000D01*
X219365000Y-56670000D02*
X219365000Y-53870000D01*
X219365000Y-53870000D02*
X217565000Y-53870000D01*
X217565000Y-53870000D02*
X217565000Y-56670000D01*
X217565000Y-56670000D02*
X219365000Y-56670000D01*
X218465000Y-56020000D02*
X218465000Y-55620000D01*
X218465000Y-55620000D02*
X219015000Y-55620000D01*
X218465000Y-55620000D02*
X217915000Y-55620000D01*
X218465000Y-55620000D02*
X218865000Y-55020000D01*
X218865000Y-55020000D02*
X218065000Y-55020000D01*
X218065000Y-55020000D02*
X218465000Y-55620000D01*
X218465000Y-55020000D02*
X218465000Y-54520000D01*
X238415000Y-56670000D02*
X238415000Y-53870000D01*
X238415000Y-53870000D02*
X236615000Y-53870000D01*
X236615000Y-53870000D02*
X236615000Y-56670000D01*
X236615000Y-56670000D02*
X238415000Y-56670000D01*
X237515000Y-56020000D02*
X237515000Y-55620000D01*
X237515000Y-55620000D02*
X238065000Y-55620000D01*
X237515000Y-55620000D02*
X236965000Y-55620000D01*
X237515000Y-55620000D02*
X237915000Y-55020000D01*
X237915000Y-55020000D02*
X237115000Y-55020000D01*
X237115000Y-55020000D02*
X237515000Y-55620000D01*
X237515000Y-55020000D02*
X237515000Y-54520000D01*
X262545000Y-56670000D02*
X262545000Y-53870000D01*
X262545000Y-53870000D02*
X260745000Y-53870000D01*
X260745000Y-53870000D02*
X260745000Y-56670000D01*
X260745000Y-56670000D02*
X262545000Y-56670000D01*
X261645000Y-56020000D02*
X261645000Y-55620000D01*
X261645000Y-55620000D02*
X262195000Y-55620000D01*
X261645000Y-55620000D02*
X261095000Y-55620000D01*
X261645000Y-55620000D02*
X262045000Y-55020000D01*
X262045000Y-55020000D02*
X261245000Y-55020000D01*
X261245000Y-55020000D02*
X261645000Y-55620000D01*
X261645000Y-55020000D02*
X261645000Y-54520000D01*
X287945000Y-56162000D02*
X287945000Y-53362000D01*
X287945000Y-53362000D02*
X286145000Y-53362000D01*
X286145000Y-53362000D02*
X286145000Y-56162000D01*
X286145000Y-56162000D02*
X287945000Y-56162000D01*
X287045000Y-55512000D02*
X287045000Y-55112000D01*
X287045000Y-55112000D02*
X287595000Y-55112000D01*
X287045000Y-55112000D02*
X286495000Y-55112000D01*
X287045000Y-55112000D02*
X287445000Y-54512000D01*
X287445000Y-54512000D02*
X286645000Y-54512000D01*
X286645000Y-54512000D02*
X287045000Y-55112000D01*
X287045000Y-54512000D02*
X287045000Y-54012000D01*
X305090000Y-37620000D02*
X305090000Y-34820000D01*
X305090000Y-34820000D02*
X303290000Y-34820000D01*
X303290000Y-34820000D02*
X303290000Y-37620000D01*
X303290000Y-37620000D02*
X305090000Y-37620000D01*
X304190000Y-36970000D02*
X304190000Y-36570000D01*
X304190000Y-36570000D02*
X304740000Y-36570000D01*
X304190000Y-36570000D02*
X303640000Y-36570000D01*
X304190000Y-36570000D02*
X304590000Y-35970000D01*
X304590000Y-35970000D02*
X303790000Y-35970000D01*
X303790000Y-35970000D02*
X304190000Y-36570000D01*
X304190000Y-35970000D02*
X304190000Y-35470000D01*
X42073000Y-75720000D02*
X42073000Y-72920000D01*
X42073000Y-72920000D02*
X40273000Y-72920000D01*
X40273000Y-72920000D02*
X40273000Y-75720000D01*
X40273000Y-75720000D02*
X42073000Y-75720000D01*
X41173000Y-75070000D02*
X41173000Y-74670000D01*
X41173000Y-74670000D02*
X41723000Y-74670000D01*
X41173000Y-74670000D02*
X40623000Y-74670000D01*
X41173000Y-74670000D02*
X41573000Y-74070000D01*
X41573000Y-74070000D02*
X40773000Y-74070000D01*
X40773000Y-74070000D02*
X41173000Y-74670000D01*
X41173000Y-74070000D02*
X41173000Y-73570000D01*
X45121000Y-75720000D02*
X45121000Y-72920000D01*
X45121000Y-72920000D02*
X43321000Y-72920000D01*
X43321000Y-72920000D02*
X43321000Y-75720000D01*
X43321000Y-75720000D02*
X45121000Y-75720000D01*
X44221000Y-75070000D02*
X44221000Y-74670000D01*
X44221000Y-74670000D02*
X44771000Y-74670000D01*
X44221000Y-74670000D02*
X43671000Y-74670000D01*
X44221000Y-74670000D02*
X44621000Y-74070000D01*
X44621000Y-74070000D02*
X43821000Y-74070000D01*
X43821000Y-74070000D02*
X44221000Y-74670000D01*
X44221000Y-74070000D02*
X44221000Y-73570000D01*
X90968000Y-75720000D02*
X90968000Y-72920000D01*
X90968000Y-72920000D02*
X89168000Y-72920000D01*
X89168000Y-72920000D02*
X89168000Y-75720000D01*
X89168000Y-75720000D02*
X90968000Y-75720000D01*
X90068000Y-75070000D02*
X90068000Y-74670000D01*
X90068000Y-74670000D02*
X90618000Y-74670000D01*
X90068000Y-74670000D02*
X89518000Y-74670000D01*
X90068000Y-74670000D02*
X90468000Y-74070000D01*
X90468000Y-74070000D02*
X89668000Y-74070000D01*
X89668000Y-74070000D02*
X90068000Y-74670000D01*
X90068000Y-74070000D02*
X90068000Y-73570000D01*
X105065000Y-75720000D02*
X105065000Y-72920000D01*
X105065000Y-72920000D02*
X103265000Y-72920000D01*
X103265000Y-72920000D02*
X103265000Y-75720000D01*
X103265000Y-75720000D02*
X105065000Y-75720000D01*
X104165000Y-75070000D02*
X104165000Y-74670000D01*
X104165000Y-74670000D02*
X104715000Y-74670000D01*
X104165000Y-74670000D02*
X103615000Y-74670000D01*
X104165000Y-74670000D02*
X104565000Y-74070000D01*
X104565000Y-74070000D02*
X103765000Y-74070000D01*
X103765000Y-74070000D02*
X104165000Y-74670000D01*
X104165000Y-74070000D02*
X104165000Y-73570000D01*
X123215000Y-74070000D02*
X123215000Y-73570000D01*
X122815000Y-74070000D02*
X123215000Y-74670000D01*
X123615000Y-74070000D02*
X122815000Y-74070000D01*
X123215000Y-74670000D02*
X123615000Y-74070000D01*
X123215000Y-74670000D02*
X122665000Y-74670000D01*
X123215000Y-74670000D02*
X123765000Y-74670000D01*
X123215000Y-75070000D02*
X123215000Y-74670000D01*
X122315000Y-75720000D02*
X124115000Y-75720000D01*
X122315000Y-72920000D02*
X122315000Y-75720000D01*
X124115000Y-72920000D02*
X122315000Y-72920000D01*
X124115000Y-75720000D02*
X124115000Y-72920000D01*
X142265000Y-74070000D02*
X142265000Y-73570000D01*
X141865000Y-74070000D02*
X142265000Y-74670000D01*
X142665000Y-74070000D02*
X141865000Y-74070000D01*
X142265000Y-74670000D02*
X142665000Y-74070000D01*
X142265000Y-74670000D02*
X141715000Y-74670000D01*
X142265000Y-74670000D02*
X142815000Y-74670000D01*
X142265000Y-75070000D02*
X142265000Y-74670000D01*
X141365000Y-75720000D02*
X143165000Y-75720000D01*
X141365000Y-72920000D02*
X141365000Y-75720000D01*
X143165000Y-72920000D02*
X141365000Y-72920000D01*
X143165000Y-75720000D02*
X143165000Y-72920000D01*
X146075000Y-74070000D02*
X146075000Y-73570000D01*
X145675000Y-74070000D02*
X146075000Y-74670000D01*
X146475000Y-74070000D02*
X145675000Y-74070000D01*
X146075000Y-74670000D02*
X146475000Y-74070000D01*
X146075000Y-74670000D02*
X145525000Y-74670000D01*
X146075000Y-74670000D02*
X146625000Y-74670000D01*
X146075000Y-75070000D02*
X146075000Y-74670000D01*
X145175000Y-75720000D02*
X146975000Y-75720000D01*
X145175000Y-72920000D02*
X145175000Y-75720000D01*
X146975000Y-72920000D02*
X145175000Y-72920000D01*
X146975000Y-75720000D02*
X146975000Y-72920000D01*
X180365000Y-74070000D02*
X180365000Y-73570000D01*
X179965000Y-74070000D02*
X180365000Y-74670000D01*
X180765000Y-74070000D02*
X179965000Y-74070000D01*
X180365000Y-74670000D02*
X180765000Y-74070000D01*
X180365000Y-74670000D02*
X179815000Y-74670000D01*
X180365000Y-74670000D02*
X180915000Y-74670000D01*
X180365000Y-75070000D02*
X180365000Y-74670000D01*
X179465000Y-75720000D02*
X181265000Y-75720000D01*
X179465000Y-72920000D02*
X179465000Y-75720000D01*
X181265000Y-72920000D02*
X179465000Y-72920000D01*
X181265000Y-75720000D02*
X181265000Y-72920000D01*
X199415000Y-74070000D02*
X199415000Y-73570000D01*
X199015000Y-74070000D02*
X199415000Y-74670000D01*
X199815000Y-74070000D02*
X199015000Y-74070000D01*
X199415000Y-74670000D02*
X199815000Y-74070000D01*
X199415000Y-74670000D02*
X198865000Y-74670000D01*
X199415000Y-74670000D02*
X199965000Y-74670000D01*
X199415000Y-75070000D02*
X199415000Y-74670000D01*
X198515000Y-75720000D02*
X200315000Y-75720000D01*
X198515000Y-72920000D02*
X198515000Y-75720000D01*
X200315000Y-72920000D02*
X198515000Y-72920000D01*
X200315000Y-75720000D02*
X200315000Y-72920000D01*
X218465000Y-74070000D02*
X218465000Y-73570000D01*
X218065000Y-74070000D02*
X218465000Y-74670000D01*
X218865000Y-74070000D02*
X218065000Y-74070000D01*
X218465000Y-74670000D02*
X218865000Y-74070000D01*
X218465000Y-74670000D02*
X217915000Y-74670000D01*
X218465000Y-74670000D02*
X219015000Y-74670000D01*
X218465000Y-75070000D02*
X218465000Y-74670000D01*
X217565000Y-75720000D02*
X219365000Y-75720000D01*
X217565000Y-72920000D02*
X217565000Y-75720000D01*
X219365000Y-72920000D02*
X217565000Y-72920000D01*
X219365000Y-75720000D02*
X219365000Y-72920000D01*
X237515000Y-74070000D02*
X237515000Y-73570000D01*
X237115000Y-74070000D02*
X237515000Y-74670000D01*
X237915000Y-74070000D02*
X237115000Y-74070000D01*
X237515000Y-74670000D02*
X237915000Y-74070000D01*
X237515000Y-74670000D02*
X236965000Y-74670000D01*
X237515000Y-74670000D02*
X238065000Y-74670000D01*
X237515000Y-75070000D02*
X237515000Y-74670000D01*
X236615000Y-75720000D02*
X238415000Y-75720000D01*
X236615000Y-72920000D02*
X236615000Y-75720000D01*
X238415000Y-72920000D02*
X236615000Y-72920000D01*
X238415000Y-75720000D02*
X238415000Y-72920000D01*
X266090000Y-74070000D02*
X266090000Y-73570000D01*
X265690000Y-74070000D02*
X266090000Y-74670000D01*
X266490000Y-74070000D02*
X265690000Y-74070000D01*
X266090000Y-74670000D02*
X266490000Y-74070000D01*
X266090000Y-74670000D02*
X265540000Y-74670000D01*
X266090000Y-74670000D02*
X266640000Y-74670000D01*
X266090000Y-75070000D02*
X266090000Y-74670000D01*
X265190000Y-75720000D02*
X266990000Y-75720000D01*
X265190000Y-72920000D02*
X265190000Y-75720000D01*
X266990000Y-72920000D02*
X265190000Y-72920000D01*
X266990000Y-75720000D02*
X266990000Y-72920000D01*
X304190000Y-55020000D02*
X304190000Y-54520000D01*
X303790000Y-55020000D02*
X304190000Y-55620000D01*
X304590000Y-55020000D02*
X303790000Y-55020000D01*
X304190000Y-55620000D02*
X304590000Y-55020000D01*
X304190000Y-55620000D02*
X303640000Y-55620000D01*
X304190000Y-55620000D02*
X304740000Y-55620000D01*
X304190000Y-56020000D02*
X304190000Y-55620000D01*
X303290000Y-56670000D02*
X305090000Y-56670000D01*
X303290000Y-53870000D02*
X303290000Y-56670000D01*
X305090000Y-53870000D02*
X303290000Y-53870000D01*
X305090000Y-56670000D02*
X305090000Y-53870000D01*
X47015000Y-93120000D02*
X47015000Y-92620000D01*
X46615000Y-93120000D02*
X47015000Y-93720000D01*
X47415000Y-93120000D02*
X46615000Y-93120000D01*
X47015000Y-93720000D02*
X47415000Y-93120000D01*
X47015000Y-93720000D02*
X46465000Y-93720000D01*
X47015000Y-93720000D02*
X47565000Y-93720000D01*
X47015000Y-94120000D02*
X47015000Y-93720000D01*
X46115000Y-94770000D02*
X47915000Y-94770000D01*
X46115000Y-91970000D02*
X46115000Y-94770000D01*
X47915000Y-91970000D02*
X46115000Y-91970000D01*
X47915000Y-94770000D02*
X47915000Y-91970000D01*
X78130000Y-93120000D02*
X78130000Y-92620000D01*
X77730000Y-93120000D02*
X78130000Y-93720000D01*
X78530000Y-93120000D02*
X77730000Y-93120000D01*
X78130000Y-93720000D02*
X78530000Y-93120000D01*
X78130000Y-93720000D02*
X77580000Y-93720000D01*
X78130000Y-93720000D02*
X78680000Y-93720000D01*
X78130000Y-94120000D02*
X78130000Y-93720000D01*
X77230000Y-94770000D02*
X79030000Y-94770000D01*
X77230000Y-91970000D02*
X77230000Y-94770000D01*
X79030000Y-91970000D02*
X77230000Y-91970000D01*
X79030000Y-94770000D02*
X79030000Y-91970000D01*
X94640000Y-93120000D02*
X94640000Y-92620000D01*
X94240000Y-93120000D02*
X94640000Y-93720000D01*
X95040000Y-93120000D02*
X94240000Y-93120000D01*
X94640000Y-93720000D02*
X95040000Y-93120000D01*
X94640000Y-93720000D02*
X94090000Y-93720000D01*
X94640000Y-93720000D02*
X95190000Y-93720000D01*
X94640000Y-94120000D02*
X94640000Y-93720000D01*
X93740000Y-94770000D02*
X95540000Y-94770000D01*
X93740000Y-91970000D02*
X93740000Y-94770000D01*
X95540000Y-91970000D02*
X93740000Y-91970000D01*
X95540000Y-94770000D02*
X95540000Y-91970000D01*
X113690000Y-93120000D02*
X113690000Y-92620000D01*
X113290000Y-93120000D02*
X113690000Y-93720000D01*
X114090000Y-93120000D02*
X113290000Y-93120000D01*
X113690000Y-93720000D02*
X114090000Y-93120000D01*
X113690000Y-93720000D02*
X113140000Y-93720000D01*
X113690000Y-93720000D02*
X114240000Y-93720000D01*
X113690000Y-94120000D02*
X113690000Y-93720000D01*
X112790000Y-94770000D02*
X114590000Y-94770000D01*
X112790000Y-91970000D02*
X112790000Y-94770000D01*
X114590000Y-91970000D02*
X112790000Y-91970000D01*
X114590000Y-94770000D02*
X114590000Y-91970000D01*
X132740000Y-93120000D02*
X132740000Y-92620000D01*
X132340000Y-93120000D02*
X132740000Y-93720000D01*
X133140000Y-93120000D02*
X132340000Y-93120000D01*
X132740000Y-93720000D02*
X133140000Y-93120000D01*
X132740000Y-93720000D02*
X132190000Y-93720000D01*
X132740000Y-93720000D02*
X133290000Y-93720000D01*
X132740000Y-94120000D02*
X132740000Y-93720000D01*
X131840000Y-94770000D02*
X133640000Y-94770000D01*
X131840000Y-91970000D02*
X131840000Y-94770000D01*
X133640000Y-91970000D02*
X131840000Y-91970000D01*
X133640000Y-94770000D02*
X133640000Y-91970000D01*
X151790000Y-93120000D02*
X151790000Y-92620000D01*
X151390000Y-93120000D02*
X151790000Y-93720000D01*
X152190000Y-93120000D02*
X151390000Y-93120000D01*
X151790000Y-93720000D02*
X152190000Y-93120000D01*
X151790000Y-93720000D02*
X151240000Y-93720000D01*
X151790000Y-93720000D02*
X152340000Y-93720000D01*
X151790000Y-94120000D02*
X151790000Y-93720000D01*
X150890000Y-94770000D02*
X152690000Y-94770000D01*
X150890000Y-91970000D02*
X150890000Y-94770000D01*
X152690000Y-91970000D02*
X150890000Y-91970000D01*
X152690000Y-94770000D02*
X152690000Y-91970000D01*
X170840000Y-93120000D02*
X170840000Y-92620000D01*
X170440000Y-93120000D02*
X170840000Y-93720000D01*
X171240000Y-93120000D02*
X170440000Y-93120000D01*
X170840000Y-93720000D02*
X171240000Y-93120000D01*
X170840000Y-93720000D02*
X170290000Y-93720000D01*
X170840000Y-93720000D02*
X171390000Y-93720000D01*
X170840000Y-94120000D02*
X170840000Y-93720000D01*
X169940000Y-94770000D02*
X171740000Y-94770000D01*
X169940000Y-91970000D02*
X169940000Y-94770000D01*
X171740000Y-91970000D02*
X169940000Y-91970000D01*
X171740000Y-94770000D02*
X171740000Y-91970000D01*
X189890000Y-93120000D02*
X189890000Y-92620000D01*
X189490000Y-93120000D02*
X189890000Y-93720000D01*
X190290000Y-93120000D02*
X189490000Y-93120000D01*
X189890000Y-93720000D02*
X190290000Y-93120000D01*
X189890000Y-93720000D02*
X189340000Y-93720000D01*
X189890000Y-93720000D02*
X190440000Y-93720000D01*
X189890000Y-94120000D02*
X189890000Y-93720000D01*
X188990000Y-94770000D02*
X190790000Y-94770000D01*
X188990000Y-91970000D02*
X188990000Y-94770000D01*
X190790000Y-91970000D02*
X188990000Y-91970000D01*
X190790000Y-94770000D02*
X190790000Y-91970000D01*
X208940000Y-93120000D02*
X208940000Y-92620000D01*
X208540000Y-93120000D02*
X208940000Y-93720000D01*
X209340000Y-93120000D02*
X208540000Y-93120000D01*
X208940000Y-93720000D02*
X209340000Y-93120000D01*
X208940000Y-93720000D02*
X208390000Y-93720000D01*
X208940000Y-93720000D02*
X209490000Y-93720000D01*
X208940000Y-94120000D02*
X208940000Y-93720000D01*
X208040000Y-94770000D02*
X209840000Y-94770000D01*
X208040000Y-91970000D02*
X208040000Y-94770000D01*
X209840000Y-91970000D02*
X208040000Y-91970000D01*
X209840000Y-94770000D02*
X209840000Y-91970000D01*
X227990000Y-93120000D02*
X227990000Y-92620000D01*
X227590000Y-93120000D02*
X227990000Y-93720000D01*
X228390000Y-93120000D02*
X227590000Y-93120000D01*
X227990000Y-93720000D02*
X228390000Y-93120000D01*
X227990000Y-93720000D02*
X227440000Y-93720000D01*
X227990000Y-93720000D02*
X228540000Y-93720000D01*
X227990000Y-94120000D02*
X227990000Y-93720000D01*
X227090000Y-94770000D02*
X228890000Y-94770000D01*
X227090000Y-91970000D02*
X227090000Y-94770000D01*
X228890000Y-91970000D02*
X227090000Y-91970000D01*
X228890000Y-94770000D02*
X228890000Y-91970000D01*
X242595000Y-93374000D02*
X242595000Y-92874000D01*
X242195000Y-93374000D02*
X242595000Y-93974000D01*
X242995000Y-93374000D02*
X242195000Y-93374000D01*
X242595000Y-93974000D02*
X242995000Y-93374000D01*
X242595000Y-93974000D02*
X242045000Y-93974000D01*
X242595000Y-93974000D02*
X243145000Y-93974000D01*
X242595000Y-94374000D02*
X242595000Y-93974000D01*
X241695000Y-95024000D02*
X243495000Y-95024000D01*
X241695000Y-92224000D02*
X241695000Y-95024000D01*
X243495000Y-92224000D02*
X241695000Y-92224000D01*
X243495000Y-95024000D02*
X243495000Y-92224000D01*
X269265000Y-93120000D02*
X269265000Y-92620000D01*
X268865000Y-93120000D02*
X269265000Y-93720000D01*
X269665000Y-93120000D02*
X268865000Y-93120000D01*
X269265000Y-93720000D02*
X269665000Y-93120000D01*
X269265000Y-93720000D02*
X268715000Y-93720000D01*
X269265000Y-93720000D02*
X269815000Y-93720000D01*
X269265000Y-94120000D02*
X269265000Y-93720000D01*
X268365000Y-94770000D02*
X270165000Y-94770000D01*
X268365000Y-91970000D02*
X268365000Y-94770000D01*
X270165000Y-91970000D02*
X268365000Y-91970000D01*
X270165000Y-94770000D02*
X270165000Y-91970000D01*
X286410000Y-93120000D02*
X286410000Y-92620000D01*
X286010000Y-93120000D02*
X286410000Y-93720000D01*
X286810000Y-93120000D02*
X286010000Y-93120000D01*
X286410000Y-93720000D02*
X286810000Y-93120000D01*
X286410000Y-93720000D02*
X285860000Y-93720000D01*
X286410000Y-93720000D02*
X286960000Y-93720000D01*
X286410000Y-94120000D02*
X286410000Y-93720000D01*
X285510000Y-94770000D02*
X287310000Y-94770000D01*
X285510000Y-91970000D02*
X285510000Y-94770000D01*
X287310000Y-91970000D02*
X285510000Y-91970000D01*
X287310000Y-94770000D02*
X287310000Y-91970000D01*
X45110000Y-112487500D02*
X45110000Y-111987500D01*
X44710000Y-112487500D02*
X45110000Y-113087500D01*
X45510000Y-112487500D02*
X44710000Y-112487500D01*
X45110000Y-113087500D02*
X45510000Y-112487500D01*
X45110000Y-113087500D02*
X44560000Y-113087500D01*
X45110000Y-113087500D02*
X45660000Y-113087500D01*
X45110000Y-113487500D02*
X45110000Y-113087500D01*
X44210000Y-114137500D02*
X46010000Y-114137500D01*
X44210000Y-111337500D02*
X44210000Y-114137500D01*
X46010000Y-111337500D02*
X44210000Y-111337500D01*
X46010000Y-114137500D02*
X46010000Y-111337500D01*
X60350000Y-112487500D02*
X60350000Y-111987500D01*
X59950000Y-112487500D02*
X60350000Y-113087500D01*
X60750000Y-112487500D02*
X59950000Y-112487500D01*
X60350000Y-113087500D02*
X60750000Y-112487500D01*
X60350000Y-113087500D02*
X59800000Y-113087500D01*
X60350000Y-113087500D02*
X60900000Y-113087500D01*
X60350000Y-113487500D02*
X60350000Y-113087500D01*
X59450000Y-114137500D02*
X61250000Y-114137500D01*
X59450000Y-111337500D02*
X59450000Y-114137500D01*
X61250000Y-111337500D02*
X59450000Y-111337500D01*
X61250000Y-114137500D02*
X61250000Y-111337500D01*
X84956250Y-112487500D02*
X84956250Y-111987500D01*
X84556250Y-112487500D02*
X84956250Y-113087500D01*
X85356250Y-112487500D02*
X84556250Y-112487500D01*
X84956250Y-113087500D02*
X85356250Y-112487500D01*
X84956250Y-113087500D02*
X84406250Y-113087500D01*
X84956250Y-113087500D02*
X85506250Y-113087500D01*
X84956250Y-113487500D02*
X84956250Y-113087500D01*
X84056250Y-114137500D02*
X85856250Y-114137500D01*
X84056250Y-111337500D02*
X84056250Y-114137500D01*
X85856250Y-111337500D02*
X84056250Y-111337500D01*
X85856250Y-114137500D02*
X85856250Y-111337500D01*
X130835000Y-112487500D02*
X130835000Y-111987500D01*
X130435000Y-112487500D02*
X130835000Y-113087500D01*
X131235000Y-112487500D02*
X130435000Y-112487500D01*
X130835000Y-113087500D02*
X131235000Y-112487500D01*
X130835000Y-113087500D02*
X130285000Y-113087500D01*
X130835000Y-113087500D02*
X131385000Y-113087500D01*
X130835000Y-113487500D02*
X130835000Y-113087500D01*
X129935000Y-114137500D02*
X131735000Y-114137500D01*
X129935000Y-111337500D02*
X129935000Y-114137500D01*
X131735000Y-111337500D02*
X129935000Y-111337500D01*
X131735000Y-114137500D02*
X131735000Y-111337500D01*
X171475000Y-112487500D02*
X171475000Y-111987500D01*
X171075000Y-112487500D02*
X171475000Y-113087500D01*
X171875000Y-112487500D02*
X171075000Y-112487500D01*
X171475000Y-113087500D02*
X171875000Y-112487500D01*
X171475000Y-113087500D02*
X170925000Y-113087500D01*
X171475000Y-113087500D02*
X172025000Y-113087500D01*
X171475000Y-113487500D02*
X171475000Y-113087500D01*
X170575000Y-114137500D02*
X172375000Y-114137500D01*
X170575000Y-111337500D02*
X170575000Y-114137500D01*
X172375000Y-111337500D02*
X170575000Y-111337500D01*
X172375000Y-114137500D02*
X172375000Y-111337500D01*
X267360000Y-112487500D02*
X267360000Y-111987500D01*
X266960000Y-112487500D02*
X267360000Y-113087500D01*
X267760000Y-112487500D02*
X266960000Y-112487500D01*
X267360000Y-113087500D02*
X267760000Y-112487500D01*
X267360000Y-113087500D02*
X266810000Y-113087500D01*
X267360000Y-113087500D02*
X267910000Y-113087500D01*
X267360000Y-113487500D02*
X267360000Y-113087500D01*
X266460000Y-114137500D02*
X268260000Y-114137500D01*
X266460000Y-111337500D02*
X266460000Y-114137500D01*
X268260000Y-111337500D02*
X266460000Y-111337500D01*
X268260000Y-114137500D02*
X268260000Y-111337500D01*
X291120000Y-114137500D02*
X291120000Y-111337500D01*
X291120000Y-111337500D02*
X289320000Y-111337500D01*
X289320000Y-111337500D02*
X289320000Y-114137500D01*
X289320000Y-114137500D02*
X291120000Y-114137500D01*
X290220000Y-113487500D02*
X290220000Y-113087500D01*
X290220000Y-113087500D02*
X290770000Y-113087500D01*
X290220000Y-113087500D02*
X289670000Y-113087500D01*
X290220000Y-113087500D02*
X290620000Y-112487500D01*
X290620000Y-112487500D02*
X289820000Y-112487500D01*
X289820000Y-112487500D02*
X290220000Y-113087500D01*
X290220000Y-112487500D02*
X290220000Y-111987500D01*
X56997000Y-30035000D02*
X56997000Y-28435000D01*
X56997000Y-28435000D02*
X53797000Y-28435000D01*
X53797000Y-28435000D02*
X53797000Y-30035000D01*
X53797000Y-30035000D02*
X56997000Y-30035000D01*
D11*
X46828000Y-66310000D02*
X46828000Y-74710000D01*
X46828000Y-74710000D02*
X48228000Y-74710000D01*
X48328000Y-74710000D02*
X48328000Y-73110000D01*
X48328000Y-73110000D02*
X50528000Y-73110000D01*
X50528000Y-73110000D02*
X50528000Y-74710000D01*
X50528000Y-74710000D02*
X52028000Y-74710000D01*
X52028000Y-74710000D02*
X52028000Y-66310000D01*
X52028000Y-66310000D02*
X50528000Y-66310000D01*
X50528000Y-66310000D02*
X50528000Y-67910000D01*
X50528000Y-67910000D02*
X48328000Y-67910000D01*
X48328000Y-67910000D02*
X48328000Y-66310000D01*
X48328000Y-66310000D02*
X46828000Y-66310000D01*
X50428000Y-70510000D02*
G75*
G03*
X50428000Y-70510000I-1000000J0D01*
G01*
X48328000Y-67910000D02*
X46828000Y-69410000D01*
X48328000Y-73110000D02*
X46828000Y-71610000D01*
X50528000Y-73110000D02*
X52028000Y-71610000D01*
X50528000Y-67910000D02*
X52028000Y-69410000D01*
D10*
X204495000Y-112487500D02*
X204495000Y-111987500D01*
X204095000Y-112487500D02*
X204495000Y-113087500D01*
X204895000Y-112487500D02*
X204095000Y-112487500D01*
X204495000Y-113087500D02*
X204895000Y-112487500D01*
X204495000Y-113087500D02*
X203945000Y-113087500D01*
X204495000Y-113087500D02*
X205045000Y-113087500D01*
X204495000Y-113487500D02*
X204495000Y-113087500D01*
X203595000Y-114137500D02*
X205395000Y-114137500D01*
X203595000Y-111337500D02*
X203595000Y-114137500D01*
X205395000Y-111337500D02*
X203595000Y-111337500D01*
X205395000Y-114137500D02*
X205395000Y-111337500D01*
X231430000Y-114137500D02*
X231430000Y-111337500D01*
X231430000Y-111337500D02*
X229630000Y-111337500D01*
X229630000Y-111337500D02*
X229630000Y-114137500D01*
X229630000Y-114137500D02*
X231430000Y-114137500D01*
X230530000Y-113487500D02*
X230530000Y-113087500D01*
X230530000Y-113087500D02*
X231080000Y-113087500D01*
X230530000Y-113087500D02*
X229980000Y-113087500D01*
X230530000Y-113087500D02*
X230930000Y-112487500D01*
X230930000Y-112487500D02*
X230130000Y-112487500D01*
X230130000Y-112487500D02*
X230530000Y-113087500D01*
X230530000Y-112487500D02*
X230530000Y-111987500D01*
D11*
X78812000Y-64350000D02*
X78812000Y-55350000D01*
X78812000Y-55350000D02*
X68812000Y-55350000D01*
X68812000Y-55350000D02*
X68812000Y-65350000D01*
X68812000Y-65350000D02*
X77812000Y-65350000D01*
X77812000Y-65350000D02*
X78812000Y-64350000D01*
D10*
X73482000Y-71234000D02*
X73482000Y-72834000D01*
X73482000Y-72834000D02*
X76682000Y-72834000D01*
X76682000Y-72834000D02*
X76682000Y-71234000D01*
X76682000Y-71234000D02*
X73482000Y-71234000D01*
X84518000Y-66268000D02*
X84518000Y-63068000D01*
X82918000Y-66268000D02*
X84518000Y-66268000D01*
X82918000Y-63068000D02*
X82918000Y-66268000D01*
X84518000Y-63068000D02*
X82918000Y-63068000D01*
X67640000Y-50406000D02*
X67640000Y-52006000D01*
X67640000Y-52006000D02*
X70840000Y-52006000D01*
X70840000Y-52006000D02*
X70840000Y-50406000D01*
X70840000Y-50406000D02*
X67640000Y-50406000D01*
X67386000Y-68694000D02*
X67386000Y-70294000D01*
X67386000Y-70294000D02*
X70586000Y-70294000D01*
X70586000Y-70294000D02*
X70586000Y-68694000D01*
X70586000Y-68694000D02*
X67386000Y-68694000D01*
X60782000Y-67246000D02*
X63982000Y-67246000D01*
X60782000Y-65646000D02*
X60782000Y-67246000D01*
X63982000Y-65646000D02*
X60782000Y-65646000D01*
X63982000Y-67246000D02*
X63982000Y-65646000D01*
X46050000Y-42100000D02*
X49250000Y-42100000D01*
X46050000Y-40500000D02*
X46050000Y-42100000D01*
X49250000Y-40500000D02*
X46050000Y-40500000D01*
X49250000Y-42100000D02*
X49250000Y-40500000D01*
X49250000Y-45656000D02*
X49250000Y-44056000D01*
X49250000Y-44056000D02*
X46050000Y-44056000D01*
X46050000Y-44056000D02*
X46050000Y-45656000D01*
X46050000Y-45656000D02*
X49250000Y-45656000D01*
X51028000Y-64833000D02*
X51028000Y-63233000D01*
X51028000Y-63233000D02*
X47828000Y-63233000D01*
X47828000Y-63233000D02*
X47828000Y-64833000D01*
X47828000Y-64833000D02*
X51028000Y-64833000D01*
X82918000Y-53924000D02*
X82918000Y-57124000D01*
X84518000Y-53924000D02*
X82918000Y-53924000D01*
X84518000Y-57124000D02*
X84518000Y-53924000D01*
X82918000Y-57124000D02*
X84518000Y-57124000D01*
D12*
X39292000Y-29246000D02*
G75*
G03*
X39292000Y-29246000I-100000J0D01*
G01*
D13*
X44742000Y-21496000D02*
X36842000Y-21496000D01*
X44742000Y-28696000D02*
X44742000Y-21496000D01*
X36842000Y-28696000D02*
X44742000Y-28696000D01*
X36842000Y-21496000D02*
X36842000Y-28696000D01*
X32792000Y-21996000D02*
X48792000Y-21996000D01*
D10*
X95529000Y-43967000D02*
X96164000Y-43332000D01*
X88544000Y-43967000D02*
X95529000Y-43967000D01*
X88544000Y-41427000D02*
X88544000Y-43967000D01*
X96164000Y-41427000D02*
X88544000Y-41427000D01*
X96164000Y-43332000D02*
X96164000Y-41427000D01*
D11*
X65884380Y-57262523D02*
X65884380Y-56691095D01*
X65884380Y-56976809D02*
X64884380Y-56976809D01*
X65027238Y-56881571D01*
X65122476Y-56786333D01*
X65170095Y-56691095D01*
X64884380Y-58119666D02*
X64884380Y-57929190D01*
X64932000Y-57833952D01*
X64979619Y-57786333D01*
X65122476Y-57691095D01*
X65312952Y-57643476D01*
X65693904Y-57643476D01*
X65789142Y-57691095D01*
X65836761Y-57738714D01*
X65884380Y-57833952D01*
X65884380Y-58024428D01*
X65836761Y-58119666D01*
X65789142Y-58167285D01*
X65693904Y-58214904D01*
X65455809Y-58214904D01*
X65360571Y-58167285D01*
X65312952Y-58119666D01*
X65265333Y-58024428D01*
X65265333Y-57833952D01*
X65312952Y-57738714D01*
X65360571Y-57691095D01*
X65455809Y-57643476D01*
X65884380Y-58643476D02*
X64884380Y-58643476D01*
X65598666Y-58976809D01*
X64884380Y-59310142D01*
X65884380Y-59310142D01*
X65884380Y-59786333D02*
X64884380Y-59786333D01*
X65360571Y-59786333D02*
X65360571Y-60357761D01*
X65884380Y-60357761D02*
X64884380Y-60357761D01*
X65217714Y-60738714D02*
X65217714Y-61262523D01*
X65884380Y-60738714D01*
X65884380Y-61262523D01*
X64024857Y-55494619D02*
X63977238Y-55447000D01*
X63882000Y-55399380D01*
X63643904Y-55399380D01*
X63548666Y-55447000D01*
X63501047Y-55494619D01*
X63453428Y-55589857D01*
X63453428Y-55685095D01*
X63501047Y-55827952D01*
X64072476Y-56399380D01*
X63453428Y-56399380D01*
X63072476Y-55494619D02*
X63024857Y-55447000D01*
X62929619Y-55399380D01*
X62691523Y-55399380D01*
X62596285Y-55447000D01*
X62548666Y-55494619D01*
X62501047Y-55589857D01*
X62501047Y-55685095D01*
X62548666Y-55827952D01*
X63120095Y-56399380D01*
X62501047Y-56399380D01*
X62072476Y-55732714D02*
X62072476Y-56732714D01*
X62072476Y-55780333D02*
X61977238Y-55732714D01*
X61786761Y-55732714D01*
X61691523Y-55780333D01*
X61643904Y-55827952D01*
X61596285Y-55923190D01*
X61596285Y-56208904D01*
X61643904Y-56304142D01*
X61691523Y-56351761D01*
X61786761Y-56399380D01*
X61977238Y-56399380D01*
X62072476Y-56351761D01*
X60834380Y-55875571D02*
X61167714Y-55875571D01*
X61167714Y-56399380D02*
X61167714Y-55399380D01*
X60691523Y-55399380D01*
D14*
X62515333Y-54412714D02*
X62553428Y-54450809D01*
X62667714Y-54488904D01*
X62743904Y-54488904D01*
X62858190Y-54450809D01*
X62934380Y-54374619D01*
X62972476Y-54298428D01*
X63010571Y-54146047D01*
X63010571Y-54031761D01*
X62972476Y-53879380D01*
X62934380Y-53803190D01*
X62858190Y-53727000D01*
X62743904Y-53688904D01*
X62667714Y-53688904D01*
X62553428Y-53727000D01*
X62515333Y-53765095D01*
X62210571Y-53765095D02*
X62172476Y-53727000D01*
X62096285Y-53688904D01*
X61905809Y-53688904D01*
X61829619Y-53727000D01*
X61791523Y-53765095D01*
X61753428Y-53841285D01*
X61753428Y-53917476D01*
X61791523Y-54031761D01*
X62248666Y-54488904D01*
X61753428Y-54488904D01*
D11*
X64024857Y-65019619D02*
X63977238Y-64972000D01*
X63882000Y-64924380D01*
X63643904Y-64924380D01*
X63548666Y-64972000D01*
X63501047Y-65019619D01*
X63453428Y-65114857D01*
X63453428Y-65210095D01*
X63501047Y-65352952D01*
X64072476Y-65924380D01*
X63453428Y-65924380D01*
X63072476Y-65019619D02*
X63024857Y-64972000D01*
X62929619Y-64924380D01*
X62691523Y-64924380D01*
X62596285Y-64972000D01*
X62548666Y-65019619D01*
X62501047Y-65114857D01*
X62501047Y-65210095D01*
X62548666Y-65352952D01*
X63120095Y-65924380D01*
X62501047Y-65924380D01*
X62072476Y-65257714D02*
X62072476Y-66257714D01*
X62072476Y-65305333D02*
X61977238Y-65257714D01*
X61786761Y-65257714D01*
X61691523Y-65305333D01*
X61643904Y-65352952D01*
X61596285Y-65448190D01*
X61596285Y-65733904D01*
X61643904Y-65829142D01*
X61691523Y-65876761D01*
X61786761Y-65924380D01*
X61977238Y-65924380D01*
X62072476Y-65876761D01*
X60834380Y-65400571D02*
X61167714Y-65400571D01*
X61167714Y-65924380D02*
X61167714Y-64924380D01*
X60691523Y-64924380D01*
D14*
X62515333Y-63937714D02*
X62553428Y-63975809D01*
X62667714Y-64013904D01*
X62743904Y-64013904D01*
X62858190Y-63975809D01*
X62934380Y-63899619D01*
X62972476Y-63823428D01*
X63010571Y-63671047D01*
X63010571Y-63556761D01*
X62972476Y-63404380D01*
X62934380Y-63328190D01*
X62858190Y-63252000D01*
X62743904Y-63213904D01*
X62667714Y-63213904D01*
X62553428Y-63252000D01*
X62515333Y-63290095D01*
X62248666Y-63213904D02*
X61753428Y-63213904D01*
X62020095Y-63518666D01*
X61905809Y-63518666D01*
X61829619Y-63556761D01*
X61791523Y-63594857D01*
X61753428Y-63671047D01*
X61753428Y-63861523D01*
X61791523Y-63937714D01*
X61829619Y-63975809D01*
X61905809Y-64013904D01*
X62134380Y-64013904D01*
X62210571Y-63975809D01*
X62248666Y-63937714D01*
D11*
X104803380Y-52341095D02*
X103803380Y-52341095D01*
X103803380Y-52579190D01*
X103851000Y-52722047D01*
X103946238Y-52817285D01*
X104041476Y-52864904D01*
X104231952Y-52912523D01*
X104374809Y-52912523D01*
X104565285Y-52864904D01*
X104660523Y-52817285D01*
X104755761Y-52722047D01*
X104803380Y-52579190D01*
X104803380Y-52341095D01*
X108903380Y-51388714D02*
X107903380Y-51388714D01*
X107903380Y-51626809D01*
X107951000Y-51769666D01*
X108046238Y-51864904D01*
X108141476Y-51912523D01*
X108331952Y-51960142D01*
X108474809Y-51960142D01*
X108665285Y-51912523D01*
X108760523Y-51864904D01*
X108855761Y-51769666D01*
X108903380Y-51626809D01*
X108903380Y-51388714D01*
X108903380Y-52912523D02*
X108903380Y-52341095D01*
X108903380Y-52626809D02*
X107903380Y-52626809D01*
X108046238Y-52531571D01*
X108141476Y-52436333D01*
X108189095Y-52341095D01*
X107903380Y-53245857D02*
X107903380Y-53912523D01*
X108903380Y-53483952D01*
X38382380Y-38498095D02*
X37382380Y-38498095D01*
X37382380Y-38736190D01*
X37430000Y-38879047D01*
X37525238Y-38974285D01*
X37620476Y-39021904D01*
X37810952Y-39069523D01*
X37953809Y-39069523D01*
X38144285Y-39021904D01*
X38239523Y-38974285D01*
X38334761Y-38879047D01*
X38382380Y-38736190D01*
X38382380Y-38498095D01*
X38450380Y-38021904D02*
X37450380Y-38021904D01*
X37450380Y-38260000D01*
X37498000Y-38402857D01*
X37593238Y-38498095D01*
X37688476Y-38545714D01*
X37878952Y-38593333D01*
X38021809Y-38593333D01*
X38212285Y-38545714D01*
X38307523Y-38498095D01*
X38402761Y-38402857D01*
X38450380Y-38260000D01*
X38450380Y-38021904D01*
X38450380Y-39545714D02*
X38450380Y-38974285D01*
X38450380Y-39260000D02*
X37450380Y-39260000D01*
X37593238Y-39164761D01*
X37688476Y-39069523D01*
X37736095Y-38974285D01*
X57432380Y-38498095D02*
X56432380Y-38498095D01*
X56432380Y-38736190D01*
X56480000Y-38879047D01*
X56575238Y-38974285D01*
X56670476Y-39021904D01*
X56860952Y-39069523D01*
X57003809Y-39069523D01*
X57194285Y-39021904D01*
X57289523Y-38974285D01*
X57384761Y-38879047D01*
X57432380Y-38736190D01*
X57432380Y-38498095D01*
X61532380Y-38021904D02*
X60532380Y-38021904D01*
X60532380Y-38260000D01*
X60580000Y-38402857D01*
X60675238Y-38498095D01*
X60770476Y-38545714D01*
X60960952Y-38593333D01*
X61103809Y-38593333D01*
X61294285Y-38545714D01*
X61389523Y-38498095D01*
X61484761Y-38402857D01*
X61532380Y-38260000D01*
X61532380Y-38021904D01*
X60532380Y-39450476D02*
X60532380Y-39260000D01*
X60580000Y-39164761D01*
X60627619Y-39117142D01*
X60770476Y-39021904D01*
X60960952Y-38974285D01*
X61341904Y-38974285D01*
X61437142Y-39021904D01*
X61484761Y-39069523D01*
X61532380Y-39164761D01*
X61532380Y-39355238D01*
X61484761Y-39450476D01*
X61437142Y-39498095D01*
X61341904Y-39545714D01*
X61103809Y-39545714D01*
X61008571Y-39498095D01*
X60960952Y-39450476D01*
X60913333Y-39355238D01*
X60913333Y-39164761D01*
X60960952Y-39069523D01*
X61008571Y-39021904D01*
X61103809Y-38974285D01*
X73942380Y-35958095D02*
X72942380Y-35958095D01*
X72942380Y-36196190D01*
X72990000Y-36339047D01*
X73085238Y-36434285D01*
X73180476Y-36481904D01*
X73370952Y-36529523D01*
X73513809Y-36529523D01*
X73704285Y-36481904D01*
X73799523Y-36434285D01*
X73894761Y-36339047D01*
X73942380Y-36196190D01*
X73942380Y-35958095D01*
X78042380Y-35005714D02*
X77042380Y-35005714D01*
X77042380Y-35243809D01*
X77090000Y-35386666D01*
X77185238Y-35481904D01*
X77280476Y-35529523D01*
X77470952Y-35577142D01*
X77613809Y-35577142D01*
X77804285Y-35529523D01*
X77899523Y-35481904D01*
X77994761Y-35386666D01*
X78042380Y-35243809D01*
X78042380Y-35005714D01*
X78042380Y-36529523D02*
X78042380Y-35958095D01*
X78042380Y-36243809D02*
X77042380Y-36243809D01*
X77185238Y-36148571D01*
X77280476Y-36053333D01*
X77328095Y-35958095D01*
X78042380Y-37481904D02*
X78042380Y-36910476D01*
X78042380Y-37196190D02*
X77042380Y-37196190D01*
X77185238Y-37100952D01*
X77280476Y-37005714D01*
X77328095Y-36910476D01*
X92992380Y-35958095D02*
X91992380Y-35958095D01*
X91992380Y-36196190D01*
X92040000Y-36339047D01*
X92135238Y-36434285D01*
X92230476Y-36481904D01*
X92420952Y-36529523D01*
X92563809Y-36529523D01*
X92754285Y-36481904D01*
X92849523Y-36434285D01*
X92944761Y-36339047D01*
X92992380Y-36196190D01*
X92992380Y-35958095D01*
X97092380Y-35005714D02*
X96092380Y-35005714D01*
X96092380Y-35243809D01*
X96140000Y-35386666D01*
X96235238Y-35481904D01*
X96330476Y-35529523D01*
X96520952Y-35577142D01*
X96663809Y-35577142D01*
X96854285Y-35529523D01*
X96949523Y-35481904D01*
X97044761Y-35386666D01*
X97092380Y-35243809D01*
X97092380Y-35005714D01*
X97092380Y-36529523D02*
X97092380Y-35958095D01*
X97092380Y-36243809D02*
X96092380Y-36243809D01*
X96235238Y-36148571D01*
X96330476Y-36053333D01*
X96378095Y-35958095D01*
X96092380Y-37386666D02*
X96092380Y-37196190D01*
X96140000Y-37100952D01*
X96187619Y-37053333D01*
X96330476Y-36958095D01*
X96520952Y-36910476D01*
X96901904Y-36910476D01*
X96997142Y-36958095D01*
X97044761Y-37005714D01*
X97092380Y-37100952D01*
X97092380Y-37291428D01*
X97044761Y-37386666D01*
X96997142Y-37434285D01*
X96901904Y-37481904D01*
X96663809Y-37481904D01*
X96568571Y-37434285D01*
X96520952Y-37386666D01*
X96473333Y-37291428D01*
X96473333Y-37100952D01*
X96520952Y-37005714D01*
X96568571Y-36958095D01*
X96663809Y-36910476D01*
X112042380Y-35958095D02*
X111042380Y-35958095D01*
X111042380Y-36196190D01*
X111090000Y-36339047D01*
X111185238Y-36434285D01*
X111280476Y-36481904D01*
X111470952Y-36529523D01*
X111613809Y-36529523D01*
X111804285Y-36481904D01*
X111899523Y-36434285D01*
X111994761Y-36339047D01*
X112042380Y-36196190D01*
X112042380Y-35958095D01*
X116142380Y-35005714D02*
X115142380Y-35005714D01*
X115142380Y-35243809D01*
X115190000Y-35386666D01*
X115285238Y-35481904D01*
X115380476Y-35529523D01*
X115570952Y-35577142D01*
X115713809Y-35577142D01*
X115904285Y-35529523D01*
X115999523Y-35481904D01*
X116094761Y-35386666D01*
X116142380Y-35243809D01*
X116142380Y-35005714D01*
X115237619Y-35958095D02*
X115190000Y-36005714D01*
X115142380Y-36100952D01*
X115142380Y-36339047D01*
X115190000Y-36434285D01*
X115237619Y-36481904D01*
X115332857Y-36529523D01*
X115428095Y-36529523D01*
X115570952Y-36481904D01*
X116142380Y-35910476D01*
X116142380Y-36529523D01*
X116142380Y-37481904D02*
X116142380Y-36910476D01*
X116142380Y-37196190D02*
X115142380Y-37196190D01*
X115285238Y-37100952D01*
X115380476Y-37005714D01*
X115428095Y-36910476D01*
X131092380Y-35958095D02*
X130092380Y-35958095D01*
X130092380Y-36196190D01*
X130140000Y-36339047D01*
X130235238Y-36434285D01*
X130330476Y-36481904D01*
X130520952Y-36529523D01*
X130663809Y-36529523D01*
X130854285Y-36481904D01*
X130949523Y-36434285D01*
X131044761Y-36339047D01*
X131092380Y-36196190D01*
X131092380Y-35958095D01*
X135192380Y-35005714D02*
X134192380Y-35005714D01*
X134192380Y-35243809D01*
X134240000Y-35386666D01*
X134335238Y-35481904D01*
X134430476Y-35529523D01*
X134620952Y-35577142D01*
X134763809Y-35577142D01*
X134954285Y-35529523D01*
X135049523Y-35481904D01*
X135144761Y-35386666D01*
X135192380Y-35243809D01*
X135192380Y-35005714D01*
X134287619Y-35958095D02*
X134240000Y-36005714D01*
X134192380Y-36100952D01*
X134192380Y-36339047D01*
X134240000Y-36434285D01*
X134287619Y-36481904D01*
X134382857Y-36529523D01*
X134478095Y-36529523D01*
X134620952Y-36481904D01*
X135192380Y-35910476D01*
X135192380Y-36529523D01*
X134192380Y-37434285D02*
X134192380Y-36958095D01*
X134668571Y-36910476D01*
X134620952Y-36958095D01*
X134573333Y-37053333D01*
X134573333Y-37291428D01*
X134620952Y-37386666D01*
X134668571Y-37434285D01*
X134763809Y-37481904D01*
X135001904Y-37481904D01*
X135097142Y-37434285D01*
X135144761Y-37386666D01*
X135192380Y-37291428D01*
X135192380Y-37053333D01*
X135144761Y-36958095D01*
X135097142Y-36910476D01*
X150142380Y-35958095D02*
X149142380Y-35958095D01*
X149142380Y-36196190D01*
X149190000Y-36339047D01*
X149285238Y-36434285D01*
X149380476Y-36481904D01*
X149570952Y-36529523D01*
X149713809Y-36529523D01*
X149904285Y-36481904D01*
X149999523Y-36434285D01*
X150094761Y-36339047D01*
X150142380Y-36196190D01*
X150142380Y-35958095D01*
X154242380Y-35005714D02*
X153242380Y-35005714D01*
X153242380Y-35243809D01*
X153290000Y-35386666D01*
X153385238Y-35481904D01*
X153480476Y-35529523D01*
X153670952Y-35577142D01*
X153813809Y-35577142D01*
X154004285Y-35529523D01*
X154099523Y-35481904D01*
X154194761Y-35386666D01*
X154242380Y-35243809D01*
X154242380Y-35005714D01*
X153337619Y-35958095D02*
X153290000Y-36005714D01*
X153242380Y-36100952D01*
X153242380Y-36339047D01*
X153290000Y-36434285D01*
X153337619Y-36481904D01*
X153432857Y-36529523D01*
X153528095Y-36529523D01*
X153670952Y-36481904D01*
X154242380Y-35910476D01*
X154242380Y-36529523D01*
X154242380Y-37005714D02*
X154242380Y-37196190D01*
X154194761Y-37291428D01*
X154147142Y-37339047D01*
X154004285Y-37434285D01*
X153813809Y-37481904D01*
X153432857Y-37481904D01*
X153337619Y-37434285D01*
X153290000Y-37386666D01*
X153242380Y-37291428D01*
X153242380Y-37100952D01*
X153290000Y-37005714D01*
X153337619Y-36958095D01*
X153432857Y-36910476D01*
X153670952Y-36910476D01*
X153766190Y-36958095D01*
X153813809Y-37005714D01*
X153861428Y-37100952D01*
X153861428Y-37291428D01*
X153813809Y-37386666D01*
X153766190Y-37434285D01*
X153670952Y-37481904D01*
X169192380Y-35958095D02*
X168192380Y-35958095D01*
X168192380Y-36196190D01*
X168240000Y-36339047D01*
X168335238Y-36434285D01*
X168430476Y-36481904D01*
X168620952Y-36529523D01*
X168763809Y-36529523D01*
X168954285Y-36481904D01*
X169049523Y-36434285D01*
X169144761Y-36339047D01*
X169192380Y-36196190D01*
X169192380Y-35958095D01*
X173292380Y-35005714D02*
X172292380Y-35005714D01*
X172292380Y-35243809D01*
X172340000Y-35386666D01*
X172435238Y-35481904D01*
X172530476Y-35529523D01*
X172720952Y-35577142D01*
X172863809Y-35577142D01*
X173054285Y-35529523D01*
X173149523Y-35481904D01*
X173244761Y-35386666D01*
X173292380Y-35243809D01*
X173292380Y-35005714D01*
X172292380Y-35910476D02*
X172292380Y-36529523D01*
X172673333Y-36196190D01*
X172673333Y-36339047D01*
X172720952Y-36434285D01*
X172768571Y-36481904D01*
X172863809Y-36529523D01*
X173101904Y-36529523D01*
X173197142Y-36481904D01*
X173244761Y-36434285D01*
X173292380Y-36339047D01*
X173292380Y-36053333D01*
X173244761Y-35958095D01*
X173197142Y-35910476D01*
X172292380Y-36862857D02*
X172292380Y-37481904D01*
X172673333Y-37148571D01*
X172673333Y-37291428D01*
X172720952Y-37386666D01*
X172768571Y-37434285D01*
X172863809Y-37481904D01*
X173101904Y-37481904D01*
X173197142Y-37434285D01*
X173244761Y-37386666D01*
X173292380Y-37291428D01*
X173292380Y-37005714D01*
X173244761Y-36910476D01*
X173197142Y-36862857D01*
X188242380Y-35958095D02*
X187242380Y-35958095D01*
X187242380Y-36196190D01*
X187290000Y-36339047D01*
X187385238Y-36434285D01*
X187480476Y-36481904D01*
X187670952Y-36529523D01*
X187813809Y-36529523D01*
X188004285Y-36481904D01*
X188099523Y-36434285D01*
X188194761Y-36339047D01*
X188242380Y-36196190D01*
X188242380Y-35958095D01*
X192342380Y-35005714D02*
X191342380Y-35005714D01*
X191342380Y-35243809D01*
X191390000Y-35386666D01*
X191485238Y-35481904D01*
X191580476Y-35529523D01*
X191770952Y-35577142D01*
X191913809Y-35577142D01*
X192104285Y-35529523D01*
X192199523Y-35481904D01*
X192294761Y-35386666D01*
X192342380Y-35243809D01*
X192342380Y-35005714D01*
X191342380Y-35910476D02*
X191342380Y-36529523D01*
X191723333Y-36196190D01*
X191723333Y-36339047D01*
X191770952Y-36434285D01*
X191818571Y-36481904D01*
X191913809Y-36529523D01*
X192151904Y-36529523D01*
X192247142Y-36481904D01*
X192294761Y-36434285D01*
X192342380Y-36339047D01*
X192342380Y-36053333D01*
X192294761Y-35958095D01*
X192247142Y-35910476D01*
X191342380Y-36862857D02*
X191342380Y-37529523D01*
X192342380Y-37100952D01*
X207292380Y-35958095D02*
X206292380Y-35958095D01*
X206292380Y-36196190D01*
X206340000Y-36339047D01*
X206435238Y-36434285D01*
X206530476Y-36481904D01*
X206720952Y-36529523D01*
X206863809Y-36529523D01*
X207054285Y-36481904D01*
X207149523Y-36434285D01*
X207244761Y-36339047D01*
X207292380Y-36196190D01*
X207292380Y-35958095D01*
X211392380Y-35005714D02*
X210392380Y-35005714D01*
X210392380Y-35243809D01*
X210440000Y-35386666D01*
X210535238Y-35481904D01*
X210630476Y-35529523D01*
X210820952Y-35577142D01*
X210963809Y-35577142D01*
X211154285Y-35529523D01*
X211249523Y-35481904D01*
X211344761Y-35386666D01*
X211392380Y-35243809D01*
X211392380Y-35005714D01*
X210725714Y-36434285D02*
X211392380Y-36434285D01*
X210344761Y-36196190D02*
X211059047Y-35958095D01*
X211059047Y-36577142D01*
X211392380Y-37481904D02*
X211392380Y-36910476D01*
X211392380Y-37196190D02*
X210392380Y-37196190D01*
X210535238Y-37100952D01*
X210630476Y-37005714D01*
X210678095Y-36910476D01*
X226342380Y-35958095D02*
X225342380Y-35958095D01*
X225342380Y-36196190D01*
X225390000Y-36339047D01*
X225485238Y-36434285D01*
X225580476Y-36481904D01*
X225770952Y-36529523D01*
X225913809Y-36529523D01*
X226104285Y-36481904D01*
X226199523Y-36434285D01*
X226294761Y-36339047D01*
X226342380Y-36196190D01*
X226342380Y-35958095D01*
X230442380Y-35005714D02*
X229442380Y-35005714D01*
X229442380Y-35243809D01*
X229490000Y-35386666D01*
X229585238Y-35481904D01*
X229680476Y-35529523D01*
X229870952Y-35577142D01*
X230013809Y-35577142D01*
X230204285Y-35529523D01*
X230299523Y-35481904D01*
X230394761Y-35386666D01*
X230442380Y-35243809D01*
X230442380Y-35005714D01*
X229775714Y-36434285D02*
X230442380Y-36434285D01*
X229394761Y-36196190D02*
X230109047Y-35958095D01*
X230109047Y-36577142D01*
X229442380Y-37386666D02*
X229442380Y-37196190D01*
X229490000Y-37100952D01*
X229537619Y-37053333D01*
X229680476Y-36958095D01*
X229870952Y-36910476D01*
X230251904Y-36910476D01*
X230347142Y-36958095D01*
X230394761Y-37005714D01*
X230442380Y-37100952D01*
X230442380Y-37291428D01*
X230394761Y-37386666D01*
X230347142Y-37434285D01*
X230251904Y-37481904D01*
X230013809Y-37481904D01*
X229918571Y-37434285D01*
X229870952Y-37386666D01*
X229823333Y-37291428D01*
X229823333Y-37100952D01*
X229870952Y-37005714D01*
X229918571Y-36958095D01*
X230013809Y-36910476D01*
X245392380Y-35958095D02*
X244392380Y-35958095D01*
X244392380Y-36196190D01*
X244440000Y-36339047D01*
X244535238Y-36434285D01*
X244630476Y-36481904D01*
X244820952Y-36529523D01*
X244963809Y-36529523D01*
X245154285Y-36481904D01*
X245249523Y-36434285D01*
X245344761Y-36339047D01*
X245392380Y-36196190D01*
X245392380Y-35958095D01*
X249492380Y-35005714D02*
X248492380Y-35005714D01*
X248492380Y-35243809D01*
X248540000Y-35386666D01*
X248635238Y-35481904D01*
X248730476Y-35529523D01*
X248920952Y-35577142D01*
X249063809Y-35577142D01*
X249254285Y-35529523D01*
X249349523Y-35481904D01*
X249444761Y-35386666D01*
X249492380Y-35243809D01*
X249492380Y-35005714D01*
X248492380Y-36481904D02*
X248492380Y-36005714D01*
X248968571Y-35958095D01*
X248920952Y-36005714D01*
X248873333Y-36100952D01*
X248873333Y-36339047D01*
X248920952Y-36434285D01*
X248968571Y-36481904D01*
X249063809Y-36529523D01*
X249301904Y-36529523D01*
X249397142Y-36481904D01*
X249444761Y-36434285D01*
X249492380Y-36339047D01*
X249492380Y-36100952D01*
X249444761Y-36005714D01*
X249397142Y-35958095D01*
X249492380Y-37481904D02*
X249492380Y-36910476D01*
X249492380Y-37196190D02*
X248492380Y-37196190D01*
X248635238Y-37100952D01*
X248730476Y-37005714D01*
X248778095Y-36910476D01*
X264442380Y-35958095D02*
X263442380Y-35958095D01*
X263442380Y-36196190D01*
X263490000Y-36339047D01*
X263585238Y-36434285D01*
X263680476Y-36481904D01*
X263870952Y-36529523D01*
X264013809Y-36529523D01*
X264204285Y-36481904D01*
X264299523Y-36434285D01*
X264394761Y-36339047D01*
X264442380Y-36196190D01*
X264442380Y-35958095D01*
X268542380Y-35005714D02*
X267542380Y-35005714D01*
X267542380Y-35243809D01*
X267590000Y-35386666D01*
X267685238Y-35481904D01*
X267780476Y-35529523D01*
X267970952Y-35577142D01*
X268113809Y-35577142D01*
X268304285Y-35529523D01*
X268399523Y-35481904D01*
X268494761Y-35386666D01*
X268542380Y-35243809D01*
X268542380Y-35005714D01*
X267542380Y-36481904D02*
X267542380Y-36005714D01*
X268018571Y-35958095D01*
X267970952Y-36005714D01*
X267923333Y-36100952D01*
X267923333Y-36339047D01*
X267970952Y-36434285D01*
X268018571Y-36481904D01*
X268113809Y-36529523D01*
X268351904Y-36529523D01*
X268447142Y-36481904D01*
X268494761Y-36434285D01*
X268542380Y-36339047D01*
X268542380Y-36100952D01*
X268494761Y-36005714D01*
X268447142Y-35958095D01*
X267542380Y-37386666D02*
X267542380Y-37196190D01*
X267590000Y-37100952D01*
X267637619Y-37053333D01*
X267780476Y-36958095D01*
X267970952Y-36910476D01*
X268351904Y-36910476D01*
X268447142Y-36958095D01*
X268494761Y-37005714D01*
X268542380Y-37100952D01*
X268542380Y-37291428D01*
X268494761Y-37386666D01*
X268447142Y-37434285D01*
X268351904Y-37481904D01*
X268113809Y-37481904D01*
X268018571Y-37434285D01*
X267970952Y-37386666D01*
X267923333Y-37291428D01*
X267923333Y-37100952D01*
X267970952Y-37005714D01*
X268018571Y-36958095D01*
X268113809Y-36910476D01*
X281587380Y-35958095D02*
X280587380Y-35958095D01*
X280587380Y-36196190D01*
X280635000Y-36339047D01*
X280730238Y-36434285D01*
X280825476Y-36481904D01*
X281015952Y-36529523D01*
X281158809Y-36529523D01*
X281349285Y-36481904D01*
X281444523Y-36434285D01*
X281539761Y-36339047D01*
X281587380Y-36196190D01*
X281587380Y-35958095D01*
X281528380Y-36275714D02*
X280528380Y-36275714D01*
X280528380Y-36513809D01*
X280576000Y-36656666D01*
X280671238Y-36751904D01*
X280766476Y-36799523D01*
X280956952Y-36847142D01*
X281099809Y-36847142D01*
X281290285Y-36799523D01*
X281385523Y-36751904D01*
X281480761Y-36656666D01*
X281528380Y-36513809D01*
X281528380Y-36275714D01*
X280528380Y-37704285D02*
X280528380Y-37513809D01*
X280576000Y-37418571D01*
X280623619Y-37370952D01*
X280766476Y-37275714D01*
X280956952Y-37228095D01*
X281337904Y-37228095D01*
X281433142Y-37275714D01*
X281480761Y-37323333D01*
X281528380Y-37418571D01*
X281528380Y-37609047D01*
X281480761Y-37704285D01*
X281433142Y-37751904D01*
X281337904Y-37799523D01*
X281099809Y-37799523D01*
X281004571Y-37751904D01*
X280956952Y-37704285D01*
X280909333Y-37609047D01*
X280909333Y-37418571D01*
X280956952Y-37323333D01*
X281004571Y-37275714D01*
X281099809Y-37228095D01*
X281528380Y-38751904D02*
X281528380Y-38180476D01*
X281528380Y-38466190D02*
X280528380Y-38466190D01*
X280671238Y-38370952D01*
X280766476Y-38275714D01*
X280814095Y-38180476D01*
X295557380Y-74058095D02*
X294557380Y-74058095D01*
X294557380Y-74296190D01*
X294605000Y-74439047D01*
X294700238Y-74534285D01*
X294795476Y-74581904D01*
X294985952Y-74629523D01*
X295128809Y-74629523D01*
X295319285Y-74581904D01*
X295414523Y-74534285D01*
X295509761Y-74439047D01*
X295557380Y-74296190D01*
X295557380Y-74058095D01*
X299657380Y-73105714D02*
X298657380Y-73105714D01*
X298657380Y-73343809D01*
X298705000Y-73486666D01*
X298800238Y-73581904D01*
X298895476Y-73629523D01*
X299085952Y-73677142D01*
X299228809Y-73677142D01*
X299419285Y-73629523D01*
X299514523Y-73581904D01*
X299609761Y-73486666D01*
X299657380Y-73343809D01*
X299657380Y-73105714D01*
X298657380Y-74581904D02*
X298657380Y-74105714D01*
X299133571Y-74058095D01*
X299085952Y-74105714D01*
X299038333Y-74200952D01*
X299038333Y-74439047D01*
X299085952Y-74534285D01*
X299133571Y-74581904D01*
X299228809Y-74629523D01*
X299466904Y-74629523D01*
X299562142Y-74581904D01*
X299609761Y-74534285D01*
X299657380Y-74439047D01*
X299657380Y-74200952D01*
X299609761Y-74105714D01*
X299562142Y-74058095D01*
X299085952Y-75200952D02*
X299038333Y-75105714D01*
X298990714Y-75058095D01*
X298895476Y-75010476D01*
X298847857Y-75010476D01*
X298752619Y-75058095D01*
X298705000Y-75105714D01*
X298657380Y-75200952D01*
X298657380Y-75391428D01*
X298705000Y-75486666D01*
X298752619Y-75534285D01*
X298847857Y-75581904D01*
X298895476Y-75581904D01*
X298990714Y-75534285D01*
X299038333Y-75486666D01*
X299085952Y-75391428D01*
X299085952Y-75200952D01*
X299133571Y-75105714D01*
X299181190Y-75058095D01*
X299276428Y-75010476D01*
X299466904Y-75010476D01*
X299562142Y-75058095D01*
X299609761Y-75105714D01*
X299657380Y-75200952D01*
X299657380Y-75391428D01*
X299609761Y-75486666D01*
X299562142Y-75534285D01*
X299466904Y-75581904D01*
X299276428Y-75581904D01*
X299181190Y-75534285D01*
X299133571Y-75486666D01*
X299085952Y-75391428D01*
X40922380Y-55008095D02*
X39922380Y-55008095D01*
X39922380Y-55246190D01*
X39970000Y-55389047D01*
X40065238Y-55484285D01*
X40160476Y-55531904D01*
X40350952Y-55579523D01*
X40493809Y-55579523D01*
X40684285Y-55531904D01*
X40779523Y-55484285D01*
X40874761Y-55389047D01*
X40922380Y-55246190D01*
X40922380Y-55008095D01*
X45022380Y-54531904D02*
X44022380Y-54531904D01*
X44022380Y-54770000D01*
X44070000Y-54912857D01*
X44165238Y-55008095D01*
X44260476Y-55055714D01*
X44450952Y-55103333D01*
X44593809Y-55103333D01*
X44784285Y-55055714D01*
X44879523Y-55008095D01*
X44974761Y-54912857D01*
X45022380Y-54770000D01*
X45022380Y-54531904D01*
X44117619Y-55484285D02*
X44070000Y-55531904D01*
X44022380Y-55627142D01*
X44022380Y-55865238D01*
X44070000Y-55960476D01*
X44117619Y-56008095D01*
X44212857Y-56055714D01*
X44308095Y-56055714D01*
X44450952Y-56008095D01*
X45022380Y-55436666D01*
X45022380Y-56055714D01*
X50320380Y-55008095D02*
X49320380Y-55008095D01*
X49320380Y-55246190D01*
X49368000Y-55389047D01*
X49463238Y-55484285D01*
X49558476Y-55531904D01*
X49748952Y-55579523D01*
X49891809Y-55579523D01*
X50082285Y-55531904D01*
X50177523Y-55484285D01*
X50272761Y-55389047D01*
X50320380Y-55246190D01*
X50320380Y-55008095D01*
X54420380Y-54531904D02*
X53420380Y-54531904D01*
X53420380Y-54770000D01*
X53468000Y-54912857D01*
X53563238Y-55008095D01*
X53658476Y-55055714D01*
X53848952Y-55103333D01*
X53991809Y-55103333D01*
X54182285Y-55055714D01*
X54277523Y-55008095D01*
X54372761Y-54912857D01*
X54420380Y-54770000D01*
X54420380Y-54531904D01*
X53420380Y-55436666D02*
X53420380Y-56103333D01*
X54420380Y-55674761D01*
X85626380Y-50436095D02*
X84626380Y-50436095D01*
X84626380Y-50674190D01*
X84674000Y-50817047D01*
X84769238Y-50912285D01*
X84864476Y-50959904D01*
X85054952Y-51007523D01*
X85197809Y-51007523D01*
X85388285Y-50959904D01*
X85483523Y-50912285D01*
X85578761Y-50817047D01*
X85626380Y-50674190D01*
X85626380Y-50436095D01*
X89631380Y-48086714D02*
X88631380Y-48086714D01*
X88631380Y-48324809D01*
X88679000Y-48467666D01*
X88774238Y-48562904D01*
X88869476Y-48610523D01*
X89059952Y-48658142D01*
X89202809Y-48658142D01*
X89393285Y-48610523D01*
X89488523Y-48562904D01*
X89583761Y-48467666D01*
X89631380Y-48324809D01*
X89631380Y-48086714D01*
X89631380Y-49610523D02*
X89631380Y-49039095D01*
X89631380Y-49324809D02*
X88631380Y-49324809D01*
X88774238Y-49229571D01*
X88869476Y-49134333D01*
X88917095Y-49039095D01*
X88726619Y-49991476D02*
X88679000Y-50039095D01*
X88631380Y-50134333D01*
X88631380Y-50372428D01*
X88679000Y-50467666D01*
X88726619Y-50515285D01*
X88821857Y-50562904D01*
X88917095Y-50562904D01*
X89059952Y-50515285D01*
X89631380Y-49943857D01*
X89631380Y-50562904D01*
X123853380Y-52214095D02*
X122853380Y-52214095D01*
X122853380Y-52452190D01*
X122901000Y-52595047D01*
X122996238Y-52690285D01*
X123091476Y-52737904D01*
X123281952Y-52785523D01*
X123424809Y-52785523D01*
X123615285Y-52737904D01*
X123710523Y-52690285D01*
X123805761Y-52595047D01*
X123853380Y-52452190D01*
X123853380Y-52214095D01*
X127953380Y-51261714D02*
X126953380Y-51261714D01*
X126953380Y-51499809D01*
X127001000Y-51642666D01*
X127096238Y-51737904D01*
X127191476Y-51785523D01*
X127381952Y-51833142D01*
X127524809Y-51833142D01*
X127715285Y-51785523D01*
X127810523Y-51737904D01*
X127905761Y-51642666D01*
X127953380Y-51499809D01*
X127953380Y-51261714D01*
X127048619Y-52214095D02*
X127001000Y-52261714D01*
X126953380Y-52356952D01*
X126953380Y-52595047D01*
X127001000Y-52690285D01*
X127048619Y-52737904D01*
X127143857Y-52785523D01*
X127239095Y-52785523D01*
X127381952Y-52737904D01*
X127953380Y-52166476D01*
X127953380Y-52785523D01*
X127048619Y-53166476D02*
X127001000Y-53214095D01*
X126953380Y-53309333D01*
X126953380Y-53547428D01*
X127001000Y-53642666D01*
X127048619Y-53690285D01*
X127143857Y-53737904D01*
X127239095Y-53737904D01*
X127381952Y-53690285D01*
X127953380Y-53118857D01*
X127953380Y-53737904D01*
X142776380Y-52468095D02*
X141776380Y-52468095D01*
X141776380Y-52706190D01*
X141824000Y-52849047D01*
X141919238Y-52944285D01*
X142014476Y-52991904D01*
X142204952Y-53039523D01*
X142347809Y-53039523D01*
X142538285Y-52991904D01*
X142633523Y-52944285D01*
X142728761Y-52849047D01*
X142776380Y-52706190D01*
X142776380Y-52468095D01*
X146876380Y-51515714D02*
X145876380Y-51515714D01*
X145876380Y-51753809D01*
X145924000Y-51896666D01*
X146019238Y-51991904D01*
X146114476Y-52039523D01*
X146304952Y-52087142D01*
X146447809Y-52087142D01*
X146638285Y-52039523D01*
X146733523Y-51991904D01*
X146828761Y-51896666D01*
X146876380Y-51753809D01*
X146876380Y-51515714D01*
X145971619Y-52468095D02*
X145924000Y-52515714D01*
X145876380Y-52610952D01*
X145876380Y-52849047D01*
X145924000Y-52944285D01*
X145971619Y-52991904D01*
X146066857Y-53039523D01*
X146162095Y-53039523D01*
X146304952Y-52991904D01*
X146876380Y-52420476D01*
X146876380Y-53039523D01*
X145876380Y-53896666D02*
X145876380Y-53706190D01*
X145924000Y-53610952D01*
X145971619Y-53563333D01*
X146114476Y-53468095D01*
X146304952Y-53420476D01*
X146685904Y-53420476D01*
X146781142Y-53468095D01*
X146828761Y-53515714D01*
X146876380Y-53610952D01*
X146876380Y-53801428D01*
X146828761Y-53896666D01*
X146781142Y-53944285D01*
X146685904Y-53991904D01*
X146447809Y-53991904D01*
X146352571Y-53944285D01*
X146304952Y-53896666D01*
X146257333Y-53801428D01*
X146257333Y-53610952D01*
X146304952Y-53515714D01*
X146352571Y-53468095D01*
X146447809Y-53420476D01*
X161826380Y-52722095D02*
X160826380Y-52722095D01*
X160826380Y-52960190D01*
X160874000Y-53103047D01*
X160969238Y-53198285D01*
X161064476Y-53245904D01*
X161254952Y-53293523D01*
X161397809Y-53293523D01*
X161588285Y-53245904D01*
X161683523Y-53198285D01*
X161778761Y-53103047D01*
X161826380Y-52960190D01*
X161826380Y-52722095D01*
X165926380Y-51769714D02*
X164926380Y-51769714D01*
X164926380Y-52007809D01*
X164974000Y-52150666D01*
X165069238Y-52245904D01*
X165164476Y-52293523D01*
X165354952Y-52341142D01*
X165497809Y-52341142D01*
X165688285Y-52293523D01*
X165783523Y-52245904D01*
X165878761Y-52150666D01*
X165926380Y-52007809D01*
X165926380Y-51769714D01*
X164926380Y-52674476D02*
X164926380Y-53293523D01*
X165307333Y-52960190D01*
X165307333Y-53103047D01*
X165354952Y-53198285D01*
X165402571Y-53245904D01*
X165497809Y-53293523D01*
X165735904Y-53293523D01*
X165831142Y-53245904D01*
X165878761Y-53198285D01*
X165926380Y-53103047D01*
X165926380Y-52817333D01*
X165878761Y-52722095D01*
X165831142Y-52674476D01*
X164926380Y-53912571D02*
X164926380Y-54007809D01*
X164974000Y-54103047D01*
X165021619Y-54150666D01*
X165116857Y-54198285D01*
X165307333Y-54245904D01*
X165545428Y-54245904D01*
X165735904Y-54198285D01*
X165831142Y-54150666D01*
X165878761Y-54103047D01*
X165926380Y-54007809D01*
X165926380Y-53912571D01*
X165878761Y-53817333D01*
X165831142Y-53769714D01*
X165735904Y-53722095D01*
X165545428Y-53674476D01*
X165307333Y-53674476D01*
X165116857Y-53722095D01*
X165021619Y-53769714D01*
X164974000Y-53817333D01*
X164926380Y-53912571D01*
X180876380Y-52722095D02*
X179876380Y-52722095D01*
X179876380Y-52960190D01*
X179924000Y-53103047D01*
X180019238Y-53198285D01*
X180114476Y-53245904D01*
X180304952Y-53293523D01*
X180447809Y-53293523D01*
X180638285Y-53245904D01*
X180733523Y-53198285D01*
X180828761Y-53103047D01*
X180876380Y-52960190D01*
X180876380Y-52722095D01*
X184976380Y-51769714D02*
X183976380Y-51769714D01*
X183976380Y-52007809D01*
X184024000Y-52150666D01*
X184119238Y-52245904D01*
X184214476Y-52293523D01*
X184404952Y-52341142D01*
X184547809Y-52341142D01*
X184738285Y-52293523D01*
X184833523Y-52245904D01*
X184928761Y-52150666D01*
X184976380Y-52007809D01*
X184976380Y-51769714D01*
X183976380Y-52674476D02*
X183976380Y-53293523D01*
X184357333Y-52960190D01*
X184357333Y-53103047D01*
X184404952Y-53198285D01*
X184452571Y-53245904D01*
X184547809Y-53293523D01*
X184785904Y-53293523D01*
X184881142Y-53245904D01*
X184928761Y-53198285D01*
X184976380Y-53103047D01*
X184976380Y-52817333D01*
X184928761Y-52722095D01*
X184881142Y-52674476D01*
X184309714Y-54150666D02*
X184976380Y-54150666D01*
X183928761Y-53912571D02*
X184643047Y-53674476D01*
X184643047Y-54293523D01*
X197767380Y-55008095D02*
X196767380Y-55008095D01*
X196767380Y-55246190D01*
X196815000Y-55389047D01*
X196910238Y-55484285D01*
X197005476Y-55531904D01*
X197195952Y-55579523D01*
X197338809Y-55579523D01*
X197529285Y-55531904D01*
X197624523Y-55484285D01*
X197719761Y-55389047D01*
X197767380Y-55246190D01*
X197767380Y-55008095D01*
X201867380Y-54055714D02*
X200867380Y-54055714D01*
X200867380Y-54293809D01*
X200915000Y-54436666D01*
X201010238Y-54531904D01*
X201105476Y-54579523D01*
X201295952Y-54627142D01*
X201438809Y-54627142D01*
X201629285Y-54579523D01*
X201724523Y-54531904D01*
X201819761Y-54436666D01*
X201867380Y-54293809D01*
X201867380Y-54055714D01*
X200867380Y-54960476D02*
X200867380Y-55579523D01*
X201248333Y-55246190D01*
X201248333Y-55389047D01*
X201295952Y-55484285D01*
X201343571Y-55531904D01*
X201438809Y-55579523D01*
X201676904Y-55579523D01*
X201772142Y-55531904D01*
X201819761Y-55484285D01*
X201867380Y-55389047D01*
X201867380Y-55103333D01*
X201819761Y-55008095D01*
X201772142Y-54960476D01*
X201295952Y-56150952D02*
X201248333Y-56055714D01*
X201200714Y-56008095D01*
X201105476Y-55960476D01*
X201057857Y-55960476D01*
X200962619Y-56008095D01*
X200915000Y-56055714D01*
X200867380Y-56150952D01*
X200867380Y-56341428D01*
X200915000Y-56436666D01*
X200962619Y-56484285D01*
X201057857Y-56531904D01*
X201105476Y-56531904D01*
X201200714Y-56484285D01*
X201248333Y-56436666D01*
X201295952Y-56341428D01*
X201295952Y-56150952D01*
X201343571Y-56055714D01*
X201391190Y-56008095D01*
X201486428Y-55960476D01*
X201676904Y-55960476D01*
X201772142Y-56008095D01*
X201819761Y-56055714D01*
X201867380Y-56150952D01*
X201867380Y-56341428D01*
X201819761Y-56436666D01*
X201772142Y-56484285D01*
X201676904Y-56531904D01*
X201486428Y-56531904D01*
X201391190Y-56484285D01*
X201343571Y-56436666D01*
X201295952Y-56341428D01*
X216817380Y-55008095D02*
X215817380Y-55008095D01*
X215817380Y-55246190D01*
X215865000Y-55389047D01*
X215960238Y-55484285D01*
X216055476Y-55531904D01*
X216245952Y-55579523D01*
X216388809Y-55579523D01*
X216579285Y-55531904D01*
X216674523Y-55484285D01*
X216769761Y-55389047D01*
X216817380Y-55246190D01*
X216817380Y-55008095D01*
X220917380Y-54055714D02*
X219917380Y-54055714D01*
X219917380Y-54293809D01*
X219965000Y-54436666D01*
X220060238Y-54531904D01*
X220155476Y-54579523D01*
X220345952Y-54627142D01*
X220488809Y-54627142D01*
X220679285Y-54579523D01*
X220774523Y-54531904D01*
X220869761Y-54436666D01*
X220917380Y-54293809D01*
X220917380Y-54055714D01*
X220250714Y-55484285D02*
X220917380Y-55484285D01*
X219869761Y-55246190D02*
X220584047Y-55008095D01*
X220584047Y-55627142D01*
X220012619Y-55960476D02*
X219965000Y-56008095D01*
X219917380Y-56103333D01*
X219917380Y-56341428D01*
X219965000Y-56436666D01*
X220012619Y-56484285D01*
X220107857Y-56531904D01*
X220203095Y-56531904D01*
X220345952Y-56484285D01*
X220917380Y-55912857D01*
X220917380Y-56531904D01*
X235867380Y-55008095D02*
X234867380Y-55008095D01*
X234867380Y-55246190D01*
X234915000Y-55389047D01*
X235010238Y-55484285D01*
X235105476Y-55531904D01*
X235295952Y-55579523D01*
X235438809Y-55579523D01*
X235629285Y-55531904D01*
X235724523Y-55484285D01*
X235819761Y-55389047D01*
X235867380Y-55246190D01*
X235867380Y-55008095D01*
X239967380Y-54055714D02*
X238967380Y-54055714D01*
X238967380Y-54293809D01*
X239015000Y-54436666D01*
X239110238Y-54531904D01*
X239205476Y-54579523D01*
X239395952Y-54627142D01*
X239538809Y-54627142D01*
X239729285Y-54579523D01*
X239824523Y-54531904D01*
X239919761Y-54436666D01*
X239967380Y-54293809D01*
X239967380Y-54055714D01*
X239300714Y-55484285D02*
X239967380Y-55484285D01*
X238919761Y-55246190D02*
X239634047Y-55008095D01*
X239634047Y-55627142D01*
X238967380Y-55912857D02*
X238967380Y-56579523D01*
X239967380Y-56150952D01*
X259997380Y-55008095D02*
X258997380Y-55008095D01*
X258997380Y-55246190D01*
X259045000Y-55389047D01*
X259140238Y-55484285D01*
X259235476Y-55531904D01*
X259425952Y-55579523D01*
X259568809Y-55579523D01*
X259759285Y-55531904D01*
X259854523Y-55484285D01*
X259949761Y-55389047D01*
X259997380Y-55246190D01*
X259997380Y-55008095D01*
X264097380Y-54055714D02*
X263097380Y-54055714D01*
X263097380Y-54293809D01*
X263145000Y-54436666D01*
X263240238Y-54531904D01*
X263335476Y-54579523D01*
X263525952Y-54627142D01*
X263668809Y-54627142D01*
X263859285Y-54579523D01*
X263954523Y-54531904D01*
X264049761Y-54436666D01*
X264097380Y-54293809D01*
X264097380Y-54055714D01*
X263097380Y-55531904D02*
X263097380Y-55055714D01*
X263573571Y-55008095D01*
X263525952Y-55055714D01*
X263478333Y-55150952D01*
X263478333Y-55389047D01*
X263525952Y-55484285D01*
X263573571Y-55531904D01*
X263668809Y-55579523D01*
X263906904Y-55579523D01*
X264002142Y-55531904D01*
X264049761Y-55484285D01*
X264097380Y-55389047D01*
X264097380Y-55150952D01*
X264049761Y-55055714D01*
X264002142Y-55008095D01*
X263192619Y-55960476D02*
X263145000Y-56008095D01*
X263097380Y-56103333D01*
X263097380Y-56341428D01*
X263145000Y-56436666D01*
X263192619Y-56484285D01*
X263287857Y-56531904D01*
X263383095Y-56531904D01*
X263525952Y-56484285D01*
X264097380Y-55912857D01*
X264097380Y-56531904D01*
X285397380Y-54500095D02*
X284397380Y-54500095D01*
X284397380Y-54738190D01*
X284445000Y-54881047D01*
X284540238Y-54976285D01*
X284635476Y-55023904D01*
X284825952Y-55071523D01*
X284968809Y-55071523D01*
X285159285Y-55023904D01*
X285254523Y-54976285D01*
X285349761Y-54881047D01*
X285397380Y-54738190D01*
X285397380Y-54500095D01*
X289497380Y-53547714D02*
X288497380Y-53547714D01*
X288497380Y-53785809D01*
X288545000Y-53928666D01*
X288640238Y-54023904D01*
X288735476Y-54071523D01*
X288925952Y-54119142D01*
X289068809Y-54119142D01*
X289259285Y-54071523D01*
X289354523Y-54023904D01*
X289449761Y-53928666D01*
X289497380Y-53785809D01*
X289497380Y-53547714D01*
X288497380Y-55023904D02*
X288497380Y-54547714D01*
X288973571Y-54500095D01*
X288925952Y-54547714D01*
X288878333Y-54642952D01*
X288878333Y-54881047D01*
X288925952Y-54976285D01*
X288973571Y-55023904D01*
X289068809Y-55071523D01*
X289306904Y-55071523D01*
X289402142Y-55023904D01*
X289449761Y-54976285D01*
X289497380Y-54881047D01*
X289497380Y-54642952D01*
X289449761Y-54547714D01*
X289402142Y-54500095D01*
X288497380Y-55404857D02*
X288497380Y-56071523D01*
X289497380Y-55642952D01*
X302542380Y-35958095D02*
X301542380Y-35958095D01*
X301542380Y-36196190D01*
X301590000Y-36339047D01*
X301685238Y-36434285D01*
X301780476Y-36481904D01*
X301970952Y-36529523D01*
X302113809Y-36529523D01*
X302304285Y-36481904D01*
X302399523Y-36434285D01*
X302494761Y-36339047D01*
X302542380Y-36196190D01*
X302542380Y-35958095D01*
X306642380Y-35005714D02*
X305642380Y-35005714D01*
X305642380Y-35243809D01*
X305690000Y-35386666D01*
X305785238Y-35481904D01*
X305880476Y-35529523D01*
X306070952Y-35577142D01*
X306213809Y-35577142D01*
X306404285Y-35529523D01*
X306499523Y-35481904D01*
X306594761Y-35386666D01*
X306642380Y-35243809D01*
X306642380Y-35005714D01*
X305642380Y-36434285D02*
X305642380Y-36243809D01*
X305690000Y-36148571D01*
X305737619Y-36100952D01*
X305880476Y-36005714D01*
X306070952Y-35958095D01*
X306451904Y-35958095D01*
X306547142Y-36005714D01*
X306594761Y-36053333D01*
X306642380Y-36148571D01*
X306642380Y-36339047D01*
X306594761Y-36434285D01*
X306547142Y-36481904D01*
X306451904Y-36529523D01*
X306213809Y-36529523D01*
X306118571Y-36481904D01*
X306070952Y-36434285D01*
X306023333Y-36339047D01*
X306023333Y-36148571D01*
X306070952Y-36053333D01*
X306118571Y-36005714D01*
X306213809Y-35958095D01*
X305737619Y-36910476D02*
X305690000Y-36958095D01*
X305642380Y-37053333D01*
X305642380Y-37291428D01*
X305690000Y-37386666D01*
X305737619Y-37434285D01*
X305832857Y-37481904D01*
X305928095Y-37481904D01*
X306070952Y-37434285D01*
X306642380Y-36862857D01*
X306642380Y-37481904D01*
X39525380Y-74058095D02*
X38525380Y-74058095D01*
X38525380Y-74296190D01*
X38573000Y-74439047D01*
X38668238Y-74534285D01*
X38763476Y-74581904D01*
X38953952Y-74629523D01*
X39096809Y-74629523D01*
X39287285Y-74581904D01*
X39382523Y-74534285D01*
X39477761Y-74439047D01*
X39525380Y-74296190D01*
X39525380Y-74058095D01*
X39720380Y-73581904D02*
X38720380Y-73581904D01*
X38720380Y-73820000D01*
X38768000Y-73962857D01*
X38863238Y-74058095D01*
X38958476Y-74105714D01*
X39148952Y-74153333D01*
X39291809Y-74153333D01*
X39482285Y-74105714D01*
X39577523Y-74058095D01*
X39672761Y-73962857D01*
X39720380Y-73820000D01*
X39720380Y-73581904D01*
X38720380Y-74486666D02*
X38720380Y-75105714D01*
X39101333Y-74772380D01*
X39101333Y-74915238D01*
X39148952Y-75010476D01*
X39196571Y-75058095D01*
X39291809Y-75105714D01*
X39529904Y-75105714D01*
X39625142Y-75058095D01*
X39672761Y-75010476D01*
X39720380Y-74915238D01*
X39720380Y-74629523D01*
X39672761Y-74534285D01*
X39625142Y-74486666D01*
X42573380Y-74058095D02*
X41573380Y-74058095D01*
X41573380Y-74296190D01*
X41621000Y-74439047D01*
X41716238Y-74534285D01*
X41811476Y-74581904D01*
X42001952Y-74629523D01*
X42144809Y-74629523D01*
X42335285Y-74581904D01*
X42430523Y-74534285D01*
X42525761Y-74439047D01*
X42573380Y-74296190D01*
X42573380Y-74058095D01*
X46673380Y-73581904D02*
X45673380Y-73581904D01*
X45673380Y-73820000D01*
X45721000Y-73962857D01*
X45816238Y-74058095D01*
X45911476Y-74105714D01*
X46101952Y-74153333D01*
X46244809Y-74153333D01*
X46435285Y-74105714D01*
X46530523Y-74058095D01*
X46625761Y-73962857D01*
X46673380Y-73820000D01*
X46673380Y-73581904D01*
X46101952Y-74724761D02*
X46054333Y-74629523D01*
X46006714Y-74581904D01*
X45911476Y-74534285D01*
X45863857Y-74534285D01*
X45768619Y-74581904D01*
X45721000Y-74629523D01*
X45673380Y-74724761D01*
X45673380Y-74915238D01*
X45721000Y-75010476D01*
X45768619Y-75058095D01*
X45863857Y-75105714D01*
X45911476Y-75105714D01*
X46006714Y-75058095D01*
X46054333Y-75010476D01*
X46101952Y-74915238D01*
X46101952Y-74724761D01*
X46149571Y-74629523D01*
X46197190Y-74581904D01*
X46292428Y-74534285D01*
X46482904Y-74534285D01*
X46578142Y-74581904D01*
X46625761Y-74629523D01*
X46673380Y-74724761D01*
X46673380Y-74915238D01*
X46625761Y-75010476D01*
X46578142Y-75058095D01*
X46482904Y-75105714D01*
X46292428Y-75105714D01*
X46197190Y-75058095D01*
X46149571Y-75010476D01*
X46101952Y-74915238D01*
X88420380Y-74058095D02*
X87420380Y-74058095D01*
X87420380Y-74296190D01*
X87468000Y-74439047D01*
X87563238Y-74534285D01*
X87658476Y-74581904D01*
X87848952Y-74629523D01*
X87991809Y-74629523D01*
X88182285Y-74581904D01*
X88277523Y-74534285D01*
X88372761Y-74439047D01*
X88420380Y-74296190D01*
X88420380Y-74058095D01*
X92520380Y-73105714D02*
X91520380Y-73105714D01*
X91520380Y-73343809D01*
X91568000Y-73486666D01*
X91663238Y-73581904D01*
X91758476Y-73629523D01*
X91948952Y-73677142D01*
X92091809Y-73677142D01*
X92282285Y-73629523D01*
X92377523Y-73581904D01*
X92472761Y-73486666D01*
X92520380Y-73343809D01*
X92520380Y-73105714D01*
X92520380Y-74629523D02*
X92520380Y-74058095D01*
X92520380Y-74343809D02*
X91520380Y-74343809D01*
X91663238Y-74248571D01*
X91758476Y-74153333D01*
X91806095Y-74058095D01*
X91520380Y-74962857D02*
X91520380Y-75581904D01*
X91901333Y-75248571D01*
X91901333Y-75391428D01*
X91948952Y-75486666D01*
X91996571Y-75534285D01*
X92091809Y-75581904D01*
X92329904Y-75581904D01*
X92425142Y-75534285D01*
X92472761Y-75486666D01*
X92520380Y-75391428D01*
X92520380Y-75105714D01*
X92472761Y-75010476D01*
X92425142Y-74962857D01*
X102517380Y-74058095D02*
X101517380Y-74058095D01*
X101517380Y-74296190D01*
X101565000Y-74439047D01*
X101660238Y-74534285D01*
X101755476Y-74581904D01*
X101945952Y-74629523D01*
X102088809Y-74629523D01*
X102279285Y-74581904D01*
X102374523Y-74534285D01*
X102469761Y-74439047D01*
X102517380Y-74296190D01*
X102517380Y-74058095D01*
X106617380Y-73105714D02*
X105617380Y-73105714D01*
X105617380Y-73343809D01*
X105665000Y-73486666D01*
X105760238Y-73581904D01*
X105855476Y-73629523D01*
X106045952Y-73677142D01*
X106188809Y-73677142D01*
X106379285Y-73629523D01*
X106474523Y-73581904D01*
X106569761Y-73486666D01*
X106617380Y-73343809D01*
X106617380Y-73105714D01*
X106617380Y-74629523D02*
X106617380Y-74058095D01*
X106617380Y-74343809D02*
X105617380Y-74343809D01*
X105760238Y-74248571D01*
X105855476Y-74153333D01*
X105903095Y-74058095D01*
X106045952Y-75200952D02*
X105998333Y-75105714D01*
X105950714Y-75058095D01*
X105855476Y-75010476D01*
X105807857Y-75010476D01*
X105712619Y-75058095D01*
X105665000Y-75105714D01*
X105617380Y-75200952D01*
X105617380Y-75391428D01*
X105665000Y-75486666D01*
X105712619Y-75534285D01*
X105807857Y-75581904D01*
X105855476Y-75581904D01*
X105950714Y-75534285D01*
X105998333Y-75486666D01*
X106045952Y-75391428D01*
X106045952Y-75200952D01*
X106093571Y-75105714D01*
X106141190Y-75058095D01*
X106236428Y-75010476D01*
X106426904Y-75010476D01*
X106522142Y-75058095D01*
X106569761Y-75105714D01*
X106617380Y-75200952D01*
X106617380Y-75391428D01*
X106569761Y-75486666D01*
X106522142Y-75534285D01*
X106426904Y-75581904D01*
X106236428Y-75581904D01*
X106141190Y-75534285D01*
X106093571Y-75486666D01*
X106045952Y-75391428D01*
X121567380Y-74058095D02*
X120567380Y-74058095D01*
X120567380Y-74296190D01*
X120615000Y-74439047D01*
X120710238Y-74534285D01*
X120805476Y-74581904D01*
X120995952Y-74629523D01*
X121138809Y-74629523D01*
X121329285Y-74581904D01*
X121424523Y-74534285D01*
X121519761Y-74439047D01*
X121567380Y-74296190D01*
X121567380Y-74058095D01*
X125667380Y-73105714D02*
X124667380Y-73105714D01*
X124667380Y-73343809D01*
X124715000Y-73486666D01*
X124810238Y-73581904D01*
X124905476Y-73629523D01*
X125095952Y-73677142D01*
X125238809Y-73677142D01*
X125429285Y-73629523D01*
X125524523Y-73581904D01*
X125619761Y-73486666D01*
X125667380Y-73343809D01*
X125667380Y-73105714D01*
X124762619Y-74058095D02*
X124715000Y-74105714D01*
X124667380Y-74200952D01*
X124667380Y-74439047D01*
X124715000Y-74534285D01*
X124762619Y-74581904D01*
X124857857Y-74629523D01*
X124953095Y-74629523D01*
X125095952Y-74581904D01*
X125667380Y-74010476D01*
X125667380Y-74629523D01*
X124667380Y-74962857D02*
X124667380Y-75581904D01*
X125048333Y-75248571D01*
X125048333Y-75391428D01*
X125095952Y-75486666D01*
X125143571Y-75534285D01*
X125238809Y-75581904D01*
X125476904Y-75581904D01*
X125572142Y-75534285D01*
X125619761Y-75486666D01*
X125667380Y-75391428D01*
X125667380Y-75105714D01*
X125619761Y-75010476D01*
X125572142Y-74962857D01*
X140617380Y-74058095D02*
X139617380Y-74058095D01*
X139617380Y-74296190D01*
X139665000Y-74439047D01*
X139760238Y-74534285D01*
X139855476Y-74581904D01*
X140045952Y-74629523D01*
X140188809Y-74629523D01*
X140379285Y-74581904D01*
X140474523Y-74534285D01*
X140569761Y-74439047D01*
X140617380Y-74296190D01*
X140617380Y-74058095D01*
X140812380Y-73105714D02*
X139812380Y-73105714D01*
X139812380Y-73343809D01*
X139860000Y-73486666D01*
X139955238Y-73581904D01*
X140050476Y-73629523D01*
X140240952Y-73677142D01*
X140383809Y-73677142D01*
X140574285Y-73629523D01*
X140669523Y-73581904D01*
X140764761Y-73486666D01*
X140812380Y-73343809D01*
X140812380Y-73105714D01*
X139907619Y-74058095D02*
X139860000Y-74105714D01*
X139812380Y-74200952D01*
X139812380Y-74439047D01*
X139860000Y-74534285D01*
X139907619Y-74581904D01*
X140002857Y-74629523D01*
X140098095Y-74629523D01*
X140240952Y-74581904D01*
X140812380Y-74010476D01*
X140812380Y-74629523D01*
X139812380Y-74962857D02*
X139812380Y-75629523D01*
X140812380Y-75200952D01*
X144427380Y-74058095D02*
X143427380Y-74058095D01*
X143427380Y-74296190D01*
X143475000Y-74439047D01*
X143570238Y-74534285D01*
X143665476Y-74581904D01*
X143855952Y-74629523D01*
X143998809Y-74629523D01*
X144189285Y-74581904D01*
X144284523Y-74534285D01*
X144379761Y-74439047D01*
X144427380Y-74296190D01*
X144427380Y-74058095D01*
X144622380Y-73105714D02*
X143622380Y-73105714D01*
X143622380Y-73343809D01*
X143670000Y-73486666D01*
X143765238Y-73581904D01*
X143860476Y-73629523D01*
X144050952Y-73677142D01*
X144193809Y-73677142D01*
X144384285Y-73629523D01*
X144479523Y-73581904D01*
X144574761Y-73486666D01*
X144622380Y-73343809D01*
X144622380Y-73105714D01*
X143622380Y-74010476D02*
X143622380Y-74629523D01*
X144003333Y-74296190D01*
X144003333Y-74439047D01*
X144050952Y-74534285D01*
X144098571Y-74581904D01*
X144193809Y-74629523D01*
X144431904Y-74629523D01*
X144527142Y-74581904D01*
X144574761Y-74534285D01*
X144622380Y-74439047D01*
X144622380Y-74153333D01*
X144574761Y-74058095D01*
X144527142Y-74010476D01*
X144622380Y-75581904D02*
X144622380Y-75010476D01*
X144622380Y-75296190D02*
X143622380Y-75296190D01*
X143765238Y-75200952D01*
X143860476Y-75105714D01*
X143908095Y-75010476D01*
X178717380Y-74058095D02*
X177717380Y-74058095D01*
X177717380Y-74296190D01*
X177765000Y-74439047D01*
X177860238Y-74534285D01*
X177955476Y-74581904D01*
X178145952Y-74629523D01*
X178288809Y-74629523D01*
X178479285Y-74581904D01*
X178574523Y-74534285D01*
X178669761Y-74439047D01*
X178717380Y-74296190D01*
X178717380Y-74058095D01*
X182817380Y-73105714D02*
X181817380Y-73105714D01*
X181817380Y-73343809D01*
X181865000Y-73486666D01*
X181960238Y-73581904D01*
X182055476Y-73629523D01*
X182245952Y-73677142D01*
X182388809Y-73677142D01*
X182579285Y-73629523D01*
X182674523Y-73581904D01*
X182769761Y-73486666D01*
X182817380Y-73343809D01*
X182817380Y-73105714D01*
X181817380Y-74010476D02*
X181817380Y-74629523D01*
X182198333Y-74296190D01*
X182198333Y-74439047D01*
X182245952Y-74534285D01*
X182293571Y-74581904D01*
X182388809Y-74629523D01*
X182626904Y-74629523D01*
X182722142Y-74581904D01*
X182769761Y-74534285D01*
X182817380Y-74439047D01*
X182817380Y-74153333D01*
X182769761Y-74058095D01*
X182722142Y-74010476D01*
X181817380Y-75534285D02*
X181817380Y-75058095D01*
X182293571Y-75010476D01*
X182245952Y-75058095D01*
X182198333Y-75153333D01*
X182198333Y-75391428D01*
X182245952Y-75486666D01*
X182293571Y-75534285D01*
X182388809Y-75581904D01*
X182626904Y-75581904D01*
X182722142Y-75534285D01*
X182769761Y-75486666D01*
X182817380Y-75391428D01*
X182817380Y-75153333D01*
X182769761Y-75058095D01*
X182722142Y-75010476D01*
X197767380Y-74058095D02*
X196767380Y-74058095D01*
X196767380Y-74296190D01*
X196815000Y-74439047D01*
X196910238Y-74534285D01*
X197005476Y-74581904D01*
X197195952Y-74629523D01*
X197338809Y-74629523D01*
X197529285Y-74581904D01*
X197624523Y-74534285D01*
X197719761Y-74439047D01*
X197767380Y-74296190D01*
X197767380Y-74058095D01*
X201867380Y-73105714D02*
X200867380Y-73105714D01*
X200867380Y-73343809D01*
X200915000Y-73486666D01*
X201010238Y-73581904D01*
X201105476Y-73629523D01*
X201295952Y-73677142D01*
X201438809Y-73677142D01*
X201629285Y-73629523D01*
X201724523Y-73581904D01*
X201819761Y-73486666D01*
X201867380Y-73343809D01*
X201867380Y-73105714D01*
X200867380Y-74010476D02*
X200867380Y-74629523D01*
X201248333Y-74296190D01*
X201248333Y-74439047D01*
X201295952Y-74534285D01*
X201343571Y-74581904D01*
X201438809Y-74629523D01*
X201676904Y-74629523D01*
X201772142Y-74581904D01*
X201819761Y-74534285D01*
X201867380Y-74439047D01*
X201867380Y-74153333D01*
X201819761Y-74058095D01*
X201772142Y-74010476D01*
X201867380Y-75105714D02*
X201867380Y-75296190D01*
X201819761Y-75391428D01*
X201772142Y-75439047D01*
X201629285Y-75534285D01*
X201438809Y-75581904D01*
X201057857Y-75581904D01*
X200962619Y-75534285D01*
X200915000Y-75486666D01*
X200867380Y-75391428D01*
X200867380Y-75200952D01*
X200915000Y-75105714D01*
X200962619Y-75058095D01*
X201057857Y-75010476D01*
X201295952Y-75010476D01*
X201391190Y-75058095D01*
X201438809Y-75105714D01*
X201486428Y-75200952D01*
X201486428Y-75391428D01*
X201438809Y-75486666D01*
X201391190Y-75534285D01*
X201295952Y-75581904D01*
X216817380Y-74058095D02*
X215817380Y-74058095D01*
X215817380Y-74296190D01*
X215865000Y-74439047D01*
X215960238Y-74534285D01*
X216055476Y-74581904D01*
X216245952Y-74629523D01*
X216388809Y-74629523D01*
X216579285Y-74581904D01*
X216674523Y-74534285D01*
X216769761Y-74439047D01*
X216817380Y-74296190D01*
X216817380Y-74058095D01*
X220917380Y-73105714D02*
X219917380Y-73105714D01*
X219917380Y-73343809D01*
X219965000Y-73486666D01*
X220060238Y-73581904D01*
X220155476Y-73629523D01*
X220345952Y-73677142D01*
X220488809Y-73677142D01*
X220679285Y-73629523D01*
X220774523Y-73581904D01*
X220869761Y-73486666D01*
X220917380Y-73343809D01*
X220917380Y-73105714D01*
X220250714Y-74534285D02*
X220917380Y-74534285D01*
X219869761Y-74296190D02*
X220584047Y-74058095D01*
X220584047Y-74677142D01*
X219917380Y-74962857D02*
X219917380Y-75581904D01*
X220298333Y-75248571D01*
X220298333Y-75391428D01*
X220345952Y-75486666D01*
X220393571Y-75534285D01*
X220488809Y-75581904D01*
X220726904Y-75581904D01*
X220822142Y-75534285D01*
X220869761Y-75486666D01*
X220917380Y-75391428D01*
X220917380Y-75105714D01*
X220869761Y-75010476D01*
X220822142Y-74962857D01*
X235867380Y-74058095D02*
X234867380Y-74058095D01*
X234867380Y-74296190D01*
X234915000Y-74439047D01*
X235010238Y-74534285D01*
X235105476Y-74581904D01*
X235295952Y-74629523D01*
X235438809Y-74629523D01*
X235629285Y-74581904D01*
X235724523Y-74534285D01*
X235819761Y-74439047D01*
X235867380Y-74296190D01*
X235867380Y-74058095D01*
X239967380Y-73105714D02*
X238967380Y-73105714D01*
X238967380Y-73343809D01*
X239015000Y-73486666D01*
X239110238Y-73581904D01*
X239205476Y-73629523D01*
X239395952Y-73677142D01*
X239538809Y-73677142D01*
X239729285Y-73629523D01*
X239824523Y-73581904D01*
X239919761Y-73486666D01*
X239967380Y-73343809D01*
X239967380Y-73105714D01*
X239300714Y-74534285D02*
X239967380Y-74534285D01*
X238919761Y-74296190D02*
X239634047Y-74058095D01*
X239634047Y-74677142D01*
X239395952Y-75200952D02*
X239348333Y-75105714D01*
X239300714Y-75058095D01*
X239205476Y-75010476D01*
X239157857Y-75010476D01*
X239062619Y-75058095D01*
X239015000Y-75105714D01*
X238967380Y-75200952D01*
X238967380Y-75391428D01*
X239015000Y-75486666D01*
X239062619Y-75534285D01*
X239157857Y-75581904D01*
X239205476Y-75581904D01*
X239300714Y-75534285D01*
X239348333Y-75486666D01*
X239395952Y-75391428D01*
X239395952Y-75200952D01*
X239443571Y-75105714D01*
X239491190Y-75058095D01*
X239586428Y-75010476D01*
X239776904Y-75010476D01*
X239872142Y-75058095D01*
X239919761Y-75105714D01*
X239967380Y-75200952D01*
X239967380Y-75391428D01*
X239919761Y-75486666D01*
X239872142Y-75534285D01*
X239776904Y-75581904D01*
X239586428Y-75581904D01*
X239491190Y-75534285D01*
X239443571Y-75486666D01*
X239395952Y-75391428D01*
X264442380Y-74058095D02*
X263442380Y-74058095D01*
X263442380Y-74296190D01*
X263490000Y-74439047D01*
X263585238Y-74534285D01*
X263680476Y-74581904D01*
X263870952Y-74629523D01*
X264013809Y-74629523D01*
X264204285Y-74581904D01*
X264299523Y-74534285D01*
X264394761Y-74439047D01*
X264442380Y-74296190D01*
X264442380Y-74058095D01*
X268542380Y-73105714D02*
X267542380Y-73105714D01*
X267542380Y-73343809D01*
X267590000Y-73486666D01*
X267685238Y-73581904D01*
X267780476Y-73629523D01*
X267970952Y-73677142D01*
X268113809Y-73677142D01*
X268304285Y-73629523D01*
X268399523Y-73581904D01*
X268494761Y-73486666D01*
X268542380Y-73343809D01*
X268542380Y-73105714D01*
X267542380Y-74581904D02*
X267542380Y-74105714D01*
X268018571Y-74058095D01*
X267970952Y-74105714D01*
X267923333Y-74200952D01*
X267923333Y-74439047D01*
X267970952Y-74534285D01*
X268018571Y-74581904D01*
X268113809Y-74629523D01*
X268351904Y-74629523D01*
X268447142Y-74581904D01*
X268494761Y-74534285D01*
X268542380Y-74439047D01*
X268542380Y-74200952D01*
X268494761Y-74105714D01*
X268447142Y-74058095D01*
X267542380Y-74962857D02*
X267542380Y-75581904D01*
X267923333Y-75248571D01*
X267923333Y-75391428D01*
X267970952Y-75486666D01*
X268018571Y-75534285D01*
X268113809Y-75581904D01*
X268351904Y-75581904D01*
X268447142Y-75534285D01*
X268494761Y-75486666D01*
X268542380Y-75391428D01*
X268542380Y-75105714D01*
X268494761Y-75010476D01*
X268447142Y-74962857D01*
X302542380Y-55008095D02*
X301542380Y-55008095D01*
X301542380Y-55246190D01*
X301590000Y-55389047D01*
X301685238Y-55484285D01*
X301780476Y-55531904D01*
X301970952Y-55579523D01*
X302113809Y-55579523D01*
X302304285Y-55531904D01*
X302399523Y-55484285D01*
X302494761Y-55389047D01*
X302542380Y-55246190D01*
X302542380Y-55008095D01*
X306642380Y-54055714D02*
X305642380Y-54055714D01*
X305642380Y-54293809D01*
X305690000Y-54436666D01*
X305785238Y-54531904D01*
X305880476Y-54579523D01*
X306070952Y-54627142D01*
X306213809Y-54627142D01*
X306404285Y-54579523D01*
X306499523Y-54531904D01*
X306594761Y-54436666D01*
X306642380Y-54293809D01*
X306642380Y-54055714D01*
X305642380Y-55484285D02*
X305642380Y-55293809D01*
X305690000Y-55198571D01*
X305737619Y-55150952D01*
X305880476Y-55055714D01*
X306070952Y-55008095D01*
X306451904Y-55008095D01*
X306547142Y-55055714D01*
X306594761Y-55103333D01*
X306642380Y-55198571D01*
X306642380Y-55389047D01*
X306594761Y-55484285D01*
X306547142Y-55531904D01*
X306451904Y-55579523D01*
X306213809Y-55579523D01*
X306118571Y-55531904D01*
X306070952Y-55484285D01*
X306023333Y-55389047D01*
X306023333Y-55198571D01*
X306070952Y-55103333D01*
X306118571Y-55055714D01*
X306213809Y-55008095D01*
X305642380Y-55912857D02*
X305642380Y-56531904D01*
X306023333Y-56198571D01*
X306023333Y-56341428D01*
X306070952Y-56436666D01*
X306118571Y-56484285D01*
X306213809Y-56531904D01*
X306451904Y-56531904D01*
X306547142Y-56484285D01*
X306594761Y-56436666D01*
X306642380Y-56341428D01*
X306642380Y-56055714D01*
X306594761Y-55960476D01*
X306547142Y-55912857D01*
X45367380Y-93108095D02*
X44367380Y-93108095D01*
X44367380Y-93346190D01*
X44415000Y-93489047D01*
X44510238Y-93584285D01*
X44605476Y-93631904D01*
X44795952Y-93679523D01*
X44938809Y-93679523D01*
X45129285Y-93631904D01*
X45224523Y-93584285D01*
X45319761Y-93489047D01*
X45367380Y-93346190D01*
X45367380Y-93108095D01*
X49467380Y-92631904D02*
X48467380Y-92631904D01*
X48467380Y-92870000D01*
X48515000Y-93012857D01*
X48610238Y-93108095D01*
X48705476Y-93155714D01*
X48895952Y-93203333D01*
X49038809Y-93203333D01*
X49229285Y-93155714D01*
X49324523Y-93108095D01*
X49419761Y-93012857D01*
X49467380Y-92870000D01*
X49467380Y-92631904D01*
X48800714Y-94060476D02*
X49467380Y-94060476D01*
X48419761Y-93822380D02*
X49134047Y-93584285D01*
X49134047Y-94203333D01*
X76482380Y-93108095D02*
X75482380Y-93108095D01*
X75482380Y-93346190D01*
X75530000Y-93489047D01*
X75625238Y-93584285D01*
X75720476Y-93631904D01*
X75910952Y-93679523D01*
X76053809Y-93679523D01*
X76244285Y-93631904D01*
X76339523Y-93584285D01*
X76434761Y-93489047D01*
X76482380Y-93346190D01*
X76482380Y-93108095D01*
X80582380Y-92631904D02*
X79582380Y-92631904D01*
X79582380Y-92870000D01*
X79630000Y-93012857D01*
X79725238Y-93108095D01*
X79820476Y-93155714D01*
X80010952Y-93203333D01*
X80153809Y-93203333D01*
X80344285Y-93155714D01*
X80439523Y-93108095D01*
X80534761Y-93012857D01*
X80582380Y-92870000D01*
X80582380Y-92631904D01*
X80582380Y-93679523D02*
X80582380Y-93870000D01*
X80534761Y-93965238D01*
X80487142Y-94012857D01*
X80344285Y-94108095D01*
X80153809Y-94155714D01*
X79772857Y-94155714D01*
X79677619Y-94108095D01*
X79630000Y-94060476D01*
X79582380Y-93965238D01*
X79582380Y-93774761D01*
X79630000Y-93679523D01*
X79677619Y-93631904D01*
X79772857Y-93584285D01*
X80010952Y-93584285D01*
X80106190Y-93631904D01*
X80153809Y-93679523D01*
X80201428Y-93774761D01*
X80201428Y-93965238D01*
X80153809Y-94060476D01*
X80106190Y-94108095D01*
X80010952Y-94155714D01*
X92992380Y-93108095D02*
X91992380Y-93108095D01*
X91992380Y-93346190D01*
X92040000Y-93489047D01*
X92135238Y-93584285D01*
X92230476Y-93631904D01*
X92420952Y-93679523D01*
X92563809Y-93679523D01*
X92754285Y-93631904D01*
X92849523Y-93584285D01*
X92944761Y-93489047D01*
X92992380Y-93346190D01*
X92992380Y-93108095D01*
X97092380Y-92155714D02*
X96092380Y-92155714D01*
X96092380Y-92393809D01*
X96140000Y-92536666D01*
X96235238Y-92631904D01*
X96330476Y-92679523D01*
X96520952Y-92727142D01*
X96663809Y-92727142D01*
X96854285Y-92679523D01*
X96949523Y-92631904D01*
X97044761Y-92536666D01*
X97092380Y-92393809D01*
X97092380Y-92155714D01*
X97092380Y-93679523D02*
X97092380Y-93108095D01*
X97092380Y-93393809D02*
X96092380Y-93393809D01*
X96235238Y-93298571D01*
X96330476Y-93203333D01*
X96378095Y-93108095D01*
X96425714Y-94536666D02*
X97092380Y-94536666D01*
X96044761Y-94298571D02*
X96759047Y-94060476D01*
X96759047Y-94679523D01*
X112042380Y-93108095D02*
X111042380Y-93108095D01*
X111042380Y-93346190D01*
X111090000Y-93489047D01*
X111185238Y-93584285D01*
X111280476Y-93631904D01*
X111470952Y-93679523D01*
X111613809Y-93679523D01*
X111804285Y-93631904D01*
X111899523Y-93584285D01*
X111994761Y-93489047D01*
X112042380Y-93346190D01*
X112042380Y-93108095D01*
X116142380Y-92155714D02*
X115142380Y-92155714D01*
X115142380Y-92393809D01*
X115190000Y-92536666D01*
X115285238Y-92631904D01*
X115380476Y-92679523D01*
X115570952Y-92727142D01*
X115713809Y-92727142D01*
X115904285Y-92679523D01*
X115999523Y-92631904D01*
X116094761Y-92536666D01*
X116142380Y-92393809D01*
X116142380Y-92155714D01*
X116142380Y-93679523D02*
X116142380Y-93108095D01*
X116142380Y-93393809D02*
X115142380Y-93393809D01*
X115285238Y-93298571D01*
X115380476Y-93203333D01*
X115428095Y-93108095D01*
X116142380Y-94155714D02*
X116142380Y-94346190D01*
X116094761Y-94441428D01*
X116047142Y-94489047D01*
X115904285Y-94584285D01*
X115713809Y-94631904D01*
X115332857Y-94631904D01*
X115237619Y-94584285D01*
X115190000Y-94536666D01*
X115142380Y-94441428D01*
X115142380Y-94250952D01*
X115190000Y-94155714D01*
X115237619Y-94108095D01*
X115332857Y-94060476D01*
X115570952Y-94060476D01*
X115666190Y-94108095D01*
X115713809Y-94155714D01*
X115761428Y-94250952D01*
X115761428Y-94441428D01*
X115713809Y-94536666D01*
X115666190Y-94584285D01*
X115570952Y-94631904D01*
X131092380Y-93108095D02*
X130092380Y-93108095D01*
X130092380Y-93346190D01*
X130140000Y-93489047D01*
X130235238Y-93584285D01*
X130330476Y-93631904D01*
X130520952Y-93679523D01*
X130663809Y-93679523D01*
X130854285Y-93631904D01*
X130949523Y-93584285D01*
X131044761Y-93489047D01*
X131092380Y-93346190D01*
X131092380Y-93108095D01*
X135192380Y-92155714D02*
X134192380Y-92155714D01*
X134192380Y-92393809D01*
X134240000Y-92536666D01*
X134335238Y-92631904D01*
X134430476Y-92679523D01*
X134620952Y-92727142D01*
X134763809Y-92727142D01*
X134954285Y-92679523D01*
X135049523Y-92631904D01*
X135144761Y-92536666D01*
X135192380Y-92393809D01*
X135192380Y-92155714D01*
X134287619Y-93108095D02*
X134240000Y-93155714D01*
X134192380Y-93250952D01*
X134192380Y-93489047D01*
X134240000Y-93584285D01*
X134287619Y-93631904D01*
X134382857Y-93679523D01*
X134478095Y-93679523D01*
X134620952Y-93631904D01*
X135192380Y-93060476D01*
X135192380Y-93679523D01*
X134525714Y-94536666D02*
X135192380Y-94536666D01*
X134144761Y-94298571D02*
X134859047Y-94060476D01*
X134859047Y-94679523D01*
X150142380Y-93108095D02*
X149142380Y-93108095D01*
X149142380Y-93346190D01*
X149190000Y-93489047D01*
X149285238Y-93584285D01*
X149380476Y-93631904D01*
X149570952Y-93679523D01*
X149713809Y-93679523D01*
X149904285Y-93631904D01*
X149999523Y-93584285D01*
X150094761Y-93489047D01*
X150142380Y-93346190D01*
X150142380Y-93108095D01*
X154242380Y-92155714D02*
X153242380Y-92155714D01*
X153242380Y-92393809D01*
X153290000Y-92536666D01*
X153385238Y-92631904D01*
X153480476Y-92679523D01*
X153670952Y-92727142D01*
X153813809Y-92727142D01*
X154004285Y-92679523D01*
X154099523Y-92631904D01*
X154194761Y-92536666D01*
X154242380Y-92393809D01*
X154242380Y-92155714D01*
X153337619Y-93108095D02*
X153290000Y-93155714D01*
X153242380Y-93250952D01*
X153242380Y-93489047D01*
X153290000Y-93584285D01*
X153337619Y-93631904D01*
X153432857Y-93679523D01*
X153528095Y-93679523D01*
X153670952Y-93631904D01*
X154242380Y-93060476D01*
X154242380Y-93679523D01*
X153670952Y-94250952D02*
X153623333Y-94155714D01*
X153575714Y-94108095D01*
X153480476Y-94060476D01*
X153432857Y-94060476D01*
X153337619Y-94108095D01*
X153290000Y-94155714D01*
X153242380Y-94250952D01*
X153242380Y-94441428D01*
X153290000Y-94536666D01*
X153337619Y-94584285D01*
X153432857Y-94631904D01*
X153480476Y-94631904D01*
X153575714Y-94584285D01*
X153623333Y-94536666D01*
X153670952Y-94441428D01*
X153670952Y-94250952D01*
X153718571Y-94155714D01*
X153766190Y-94108095D01*
X153861428Y-94060476D01*
X154051904Y-94060476D01*
X154147142Y-94108095D01*
X154194761Y-94155714D01*
X154242380Y-94250952D01*
X154242380Y-94441428D01*
X154194761Y-94536666D01*
X154147142Y-94584285D01*
X154051904Y-94631904D01*
X153861428Y-94631904D01*
X153766190Y-94584285D01*
X153718571Y-94536666D01*
X153670952Y-94441428D01*
X169192380Y-93108095D02*
X168192380Y-93108095D01*
X168192380Y-93346190D01*
X168240000Y-93489047D01*
X168335238Y-93584285D01*
X168430476Y-93631904D01*
X168620952Y-93679523D01*
X168763809Y-93679523D01*
X168954285Y-93631904D01*
X169049523Y-93584285D01*
X169144761Y-93489047D01*
X169192380Y-93346190D01*
X169192380Y-93108095D01*
X173292380Y-92155714D02*
X172292380Y-92155714D01*
X172292380Y-92393809D01*
X172340000Y-92536666D01*
X172435238Y-92631904D01*
X172530476Y-92679523D01*
X172720952Y-92727142D01*
X172863809Y-92727142D01*
X173054285Y-92679523D01*
X173149523Y-92631904D01*
X173244761Y-92536666D01*
X173292380Y-92393809D01*
X173292380Y-92155714D01*
X172292380Y-93060476D02*
X172292380Y-93679523D01*
X172673333Y-93346190D01*
X172673333Y-93489047D01*
X172720952Y-93584285D01*
X172768571Y-93631904D01*
X172863809Y-93679523D01*
X173101904Y-93679523D01*
X173197142Y-93631904D01*
X173244761Y-93584285D01*
X173292380Y-93489047D01*
X173292380Y-93203333D01*
X173244761Y-93108095D01*
X173197142Y-93060476D01*
X172387619Y-94060476D02*
X172340000Y-94108095D01*
X172292380Y-94203333D01*
X172292380Y-94441428D01*
X172340000Y-94536666D01*
X172387619Y-94584285D01*
X172482857Y-94631904D01*
X172578095Y-94631904D01*
X172720952Y-94584285D01*
X173292380Y-94012857D01*
X173292380Y-94631904D01*
X188242380Y-93108095D02*
X187242380Y-93108095D01*
X187242380Y-93346190D01*
X187290000Y-93489047D01*
X187385238Y-93584285D01*
X187480476Y-93631904D01*
X187670952Y-93679523D01*
X187813809Y-93679523D01*
X188004285Y-93631904D01*
X188099523Y-93584285D01*
X188194761Y-93489047D01*
X188242380Y-93346190D01*
X188242380Y-93108095D01*
X192342380Y-92155714D02*
X191342380Y-92155714D01*
X191342380Y-92393809D01*
X191390000Y-92536666D01*
X191485238Y-92631904D01*
X191580476Y-92679523D01*
X191770952Y-92727142D01*
X191913809Y-92727142D01*
X192104285Y-92679523D01*
X192199523Y-92631904D01*
X192294761Y-92536666D01*
X192342380Y-92393809D01*
X192342380Y-92155714D01*
X191342380Y-93060476D02*
X191342380Y-93679523D01*
X191723333Y-93346190D01*
X191723333Y-93489047D01*
X191770952Y-93584285D01*
X191818571Y-93631904D01*
X191913809Y-93679523D01*
X192151904Y-93679523D01*
X192247142Y-93631904D01*
X192294761Y-93584285D01*
X192342380Y-93489047D01*
X192342380Y-93203333D01*
X192294761Y-93108095D01*
X192247142Y-93060476D01*
X191342380Y-94536666D02*
X191342380Y-94346190D01*
X191390000Y-94250952D01*
X191437619Y-94203333D01*
X191580476Y-94108095D01*
X191770952Y-94060476D01*
X192151904Y-94060476D01*
X192247142Y-94108095D01*
X192294761Y-94155714D01*
X192342380Y-94250952D01*
X192342380Y-94441428D01*
X192294761Y-94536666D01*
X192247142Y-94584285D01*
X192151904Y-94631904D01*
X191913809Y-94631904D01*
X191818571Y-94584285D01*
X191770952Y-94536666D01*
X191723333Y-94441428D01*
X191723333Y-94250952D01*
X191770952Y-94155714D01*
X191818571Y-94108095D01*
X191913809Y-94060476D01*
X207292380Y-93108095D02*
X206292380Y-93108095D01*
X206292380Y-93346190D01*
X206340000Y-93489047D01*
X206435238Y-93584285D01*
X206530476Y-93631904D01*
X206720952Y-93679523D01*
X206863809Y-93679523D01*
X207054285Y-93631904D01*
X207149523Y-93584285D01*
X207244761Y-93489047D01*
X207292380Y-93346190D01*
X207292380Y-93108095D01*
X211392380Y-92155714D02*
X210392380Y-92155714D01*
X210392380Y-92393809D01*
X210440000Y-92536666D01*
X210535238Y-92631904D01*
X210630476Y-92679523D01*
X210820952Y-92727142D01*
X210963809Y-92727142D01*
X211154285Y-92679523D01*
X211249523Y-92631904D01*
X211344761Y-92536666D01*
X211392380Y-92393809D01*
X211392380Y-92155714D01*
X210725714Y-93584285D02*
X211392380Y-93584285D01*
X210344761Y-93346190D02*
X211059047Y-93108095D01*
X211059047Y-93727142D01*
X210392380Y-94298571D02*
X210392380Y-94393809D01*
X210440000Y-94489047D01*
X210487619Y-94536666D01*
X210582857Y-94584285D01*
X210773333Y-94631904D01*
X211011428Y-94631904D01*
X211201904Y-94584285D01*
X211297142Y-94536666D01*
X211344761Y-94489047D01*
X211392380Y-94393809D01*
X211392380Y-94298571D01*
X211344761Y-94203333D01*
X211297142Y-94155714D01*
X211201904Y-94108095D01*
X211011428Y-94060476D01*
X210773333Y-94060476D01*
X210582857Y-94108095D01*
X210487619Y-94155714D01*
X210440000Y-94203333D01*
X210392380Y-94298571D01*
X226342380Y-93108095D02*
X225342380Y-93108095D01*
X225342380Y-93346190D01*
X225390000Y-93489047D01*
X225485238Y-93584285D01*
X225580476Y-93631904D01*
X225770952Y-93679523D01*
X225913809Y-93679523D01*
X226104285Y-93631904D01*
X226199523Y-93584285D01*
X226294761Y-93489047D01*
X226342380Y-93346190D01*
X226342380Y-93108095D01*
X230442380Y-92155714D02*
X229442380Y-92155714D01*
X229442380Y-92393809D01*
X229490000Y-92536666D01*
X229585238Y-92631904D01*
X229680476Y-92679523D01*
X229870952Y-92727142D01*
X230013809Y-92727142D01*
X230204285Y-92679523D01*
X230299523Y-92631904D01*
X230394761Y-92536666D01*
X230442380Y-92393809D01*
X230442380Y-92155714D01*
X229775714Y-93584285D02*
X230442380Y-93584285D01*
X229394761Y-93346190D02*
X230109047Y-93108095D01*
X230109047Y-93727142D01*
X229775714Y-94536666D02*
X230442380Y-94536666D01*
X229394761Y-94298571D02*
X230109047Y-94060476D01*
X230109047Y-94679523D01*
X240947380Y-93362095D02*
X239947380Y-93362095D01*
X239947380Y-93600190D01*
X239995000Y-93743047D01*
X240090238Y-93838285D01*
X240185476Y-93885904D01*
X240375952Y-93933523D01*
X240518809Y-93933523D01*
X240709285Y-93885904D01*
X240804523Y-93838285D01*
X240899761Y-93743047D01*
X240947380Y-93600190D01*
X240947380Y-93362095D01*
X241142380Y-93425714D02*
X240142380Y-93425714D01*
X240142380Y-93663809D01*
X240190000Y-93806666D01*
X240285238Y-93901904D01*
X240380476Y-93949523D01*
X240570952Y-93997142D01*
X240713809Y-93997142D01*
X240904285Y-93949523D01*
X240999523Y-93901904D01*
X241094761Y-93806666D01*
X241142380Y-93663809D01*
X241142380Y-93425714D01*
X240475714Y-94854285D02*
X241142380Y-94854285D01*
X240094761Y-94616190D02*
X240809047Y-94378095D01*
X240809047Y-94997142D01*
X241142380Y-95425714D02*
X241142380Y-95616190D01*
X241094761Y-95711428D01*
X241047142Y-95759047D01*
X240904285Y-95854285D01*
X240713809Y-95901904D01*
X240332857Y-95901904D01*
X240237619Y-95854285D01*
X240190000Y-95806666D01*
X240142380Y-95711428D01*
X240142380Y-95520952D01*
X240190000Y-95425714D01*
X240237619Y-95378095D01*
X240332857Y-95330476D01*
X240570952Y-95330476D01*
X240666190Y-95378095D01*
X240713809Y-95425714D01*
X240761428Y-95520952D01*
X240761428Y-95711428D01*
X240713809Y-95806666D01*
X240666190Y-95854285D01*
X240570952Y-95901904D01*
X267617380Y-93108095D02*
X266617380Y-93108095D01*
X266617380Y-93346190D01*
X266665000Y-93489047D01*
X266760238Y-93584285D01*
X266855476Y-93631904D01*
X267045952Y-93679523D01*
X267188809Y-93679523D01*
X267379285Y-93631904D01*
X267474523Y-93584285D01*
X267569761Y-93489047D01*
X267617380Y-93346190D01*
X267617380Y-93108095D01*
X267304380Y-93425714D02*
X266304380Y-93425714D01*
X266304380Y-93663809D01*
X266352000Y-93806666D01*
X266447238Y-93901904D01*
X266542476Y-93949523D01*
X266732952Y-93997142D01*
X266875809Y-93997142D01*
X267066285Y-93949523D01*
X267161523Y-93901904D01*
X267256761Y-93806666D01*
X267304380Y-93663809D01*
X267304380Y-93425714D01*
X266304380Y-94901904D02*
X266304380Y-94425714D01*
X266780571Y-94378095D01*
X266732952Y-94425714D01*
X266685333Y-94520952D01*
X266685333Y-94759047D01*
X266732952Y-94854285D01*
X266780571Y-94901904D01*
X266875809Y-94949523D01*
X267113904Y-94949523D01*
X267209142Y-94901904D01*
X267256761Y-94854285D01*
X267304380Y-94759047D01*
X267304380Y-94520952D01*
X267256761Y-94425714D01*
X267209142Y-94378095D01*
X266637714Y-95806666D02*
X267304380Y-95806666D01*
X266256761Y-95568571D02*
X266971047Y-95330476D01*
X266971047Y-95949523D01*
X284762380Y-93108095D02*
X283762380Y-93108095D01*
X283762380Y-93346190D01*
X283810000Y-93489047D01*
X283905238Y-93584285D01*
X284000476Y-93631904D01*
X284190952Y-93679523D01*
X284333809Y-93679523D01*
X284524285Y-93631904D01*
X284619523Y-93584285D01*
X284714761Y-93489047D01*
X284762380Y-93346190D01*
X284762380Y-93108095D01*
X284830380Y-92155714D02*
X283830380Y-92155714D01*
X283830380Y-92393809D01*
X283878000Y-92536666D01*
X283973238Y-92631904D01*
X284068476Y-92679523D01*
X284258952Y-92727142D01*
X284401809Y-92727142D01*
X284592285Y-92679523D01*
X284687523Y-92631904D01*
X284782761Y-92536666D01*
X284830380Y-92393809D01*
X284830380Y-92155714D01*
X283830380Y-93631904D02*
X283830380Y-93155714D01*
X284306571Y-93108095D01*
X284258952Y-93155714D01*
X284211333Y-93250952D01*
X284211333Y-93489047D01*
X284258952Y-93584285D01*
X284306571Y-93631904D01*
X284401809Y-93679523D01*
X284639904Y-93679523D01*
X284735142Y-93631904D01*
X284782761Y-93584285D01*
X284830380Y-93489047D01*
X284830380Y-93250952D01*
X284782761Y-93155714D01*
X284735142Y-93108095D01*
X284830380Y-94155714D02*
X284830380Y-94346190D01*
X284782761Y-94441428D01*
X284735142Y-94489047D01*
X284592285Y-94584285D01*
X284401809Y-94631904D01*
X284020857Y-94631904D01*
X283925619Y-94584285D01*
X283878000Y-94536666D01*
X283830380Y-94441428D01*
X283830380Y-94250952D01*
X283878000Y-94155714D01*
X283925619Y-94108095D01*
X284020857Y-94060476D01*
X284258952Y-94060476D01*
X284354190Y-94108095D01*
X284401809Y-94155714D01*
X284449428Y-94250952D01*
X284449428Y-94441428D01*
X284401809Y-94536666D01*
X284354190Y-94584285D01*
X284258952Y-94631904D01*
X43462380Y-112475595D02*
X42462380Y-112475595D01*
X42462380Y-112713690D01*
X42510000Y-112856547D01*
X42605238Y-112951785D01*
X42700476Y-112999404D01*
X42890952Y-113047023D01*
X43033809Y-113047023D01*
X43224285Y-112999404D01*
X43319523Y-112951785D01*
X43414761Y-112856547D01*
X43462380Y-112713690D01*
X43462380Y-112475595D01*
X43530380Y-111999404D02*
X42530380Y-111999404D01*
X42530380Y-112237500D01*
X42578000Y-112380357D01*
X42673238Y-112475595D01*
X42768476Y-112523214D01*
X42958952Y-112570833D01*
X43101809Y-112570833D01*
X43292285Y-112523214D01*
X43387523Y-112475595D01*
X43482761Y-112380357D01*
X43530380Y-112237500D01*
X43530380Y-111999404D01*
X42530380Y-113475595D02*
X42530380Y-112999404D01*
X43006571Y-112951785D01*
X42958952Y-112999404D01*
X42911333Y-113094642D01*
X42911333Y-113332738D01*
X42958952Y-113427976D01*
X43006571Y-113475595D01*
X43101809Y-113523214D01*
X43339904Y-113523214D01*
X43435142Y-113475595D01*
X43482761Y-113427976D01*
X43530380Y-113332738D01*
X43530380Y-113094642D01*
X43482761Y-112999404D01*
X43435142Y-112951785D01*
X58702380Y-112475595D02*
X57702380Y-112475595D01*
X57702380Y-112713690D01*
X57750000Y-112856547D01*
X57845238Y-112951785D01*
X57940476Y-112999404D01*
X58130952Y-113047023D01*
X58273809Y-113047023D01*
X58464285Y-112999404D01*
X58559523Y-112951785D01*
X58654761Y-112856547D01*
X58702380Y-112713690D01*
X58702380Y-112475595D01*
X62802380Y-111523214D02*
X61802380Y-111523214D01*
X61802380Y-111761309D01*
X61850000Y-111904166D01*
X61945238Y-111999404D01*
X62040476Y-112047023D01*
X62230952Y-112094642D01*
X62373809Y-112094642D01*
X62564285Y-112047023D01*
X62659523Y-111999404D01*
X62754761Y-111904166D01*
X62802380Y-111761309D01*
X62802380Y-111523214D01*
X62802380Y-113047023D02*
X62802380Y-112475595D01*
X62802380Y-112761309D02*
X61802380Y-112761309D01*
X61945238Y-112666071D01*
X62040476Y-112570833D01*
X62088095Y-112475595D01*
X61802380Y-113666071D02*
X61802380Y-113761309D01*
X61850000Y-113856547D01*
X61897619Y-113904166D01*
X61992857Y-113951785D01*
X62183333Y-113999404D01*
X62421428Y-113999404D01*
X62611904Y-113951785D01*
X62707142Y-113904166D01*
X62754761Y-113856547D01*
X62802380Y-113761309D01*
X62802380Y-113666071D01*
X62754761Y-113570833D01*
X62707142Y-113523214D01*
X62611904Y-113475595D01*
X62421428Y-113427976D01*
X62183333Y-113427976D01*
X61992857Y-113475595D01*
X61897619Y-113523214D01*
X61850000Y-113570833D01*
X61802380Y-113666071D01*
X83308630Y-112475595D02*
X82308630Y-112475595D01*
X82308630Y-112713690D01*
X82356250Y-112856547D01*
X82451488Y-112951785D01*
X82546726Y-112999404D01*
X82737202Y-113047023D01*
X82880059Y-113047023D01*
X83070535Y-112999404D01*
X83165773Y-112951785D01*
X83261011Y-112856547D01*
X83308630Y-112713690D01*
X83308630Y-112475595D01*
X83408380Y-111459714D02*
X82408380Y-111459714D01*
X82408380Y-111697809D01*
X82456000Y-111840666D01*
X82551238Y-111935904D01*
X82646476Y-111983523D01*
X82836952Y-112031142D01*
X82979809Y-112031142D01*
X83170285Y-111983523D01*
X83265523Y-111935904D01*
X83360761Y-111840666D01*
X83408380Y-111697809D01*
X83408380Y-111459714D01*
X83408380Y-112983523D02*
X83408380Y-112412095D01*
X83408380Y-112697809D02*
X82408380Y-112697809D01*
X82551238Y-112602571D01*
X82646476Y-112507333D01*
X82694095Y-112412095D01*
X82408380Y-113888285D02*
X82408380Y-113412095D01*
X82884571Y-113364476D01*
X82836952Y-113412095D01*
X82789333Y-113507333D01*
X82789333Y-113745428D01*
X82836952Y-113840666D01*
X82884571Y-113888285D01*
X82979809Y-113935904D01*
X83217904Y-113935904D01*
X83313142Y-113888285D01*
X83360761Y-113840666D01*
X83408380Y-113745428D01*
X83408380Y-113507333D01*
X83360761Y-113412095D01*
X83313142Y-113364476D01*
X129187380Y-112475595D02*
X128187380Y-112475595D01*
X128187380Y-112713690D01*
X128235000Y-112856547D01*
X128330238Y-112951785D01*
X128425476Y-112999404D01*
X128615952Y-113047023D01*
X128758809Y-113047023D01*
X128949285Y-112999404D01*
X129044523Y-112951785D01*
X129139761Y-112856547D01*
X129187380Y-112713690D01*
X129187380Y-112475595D01*
X133287380Y-111523214D02*
X132287380Y-111523214D01*
X132287380Y-111761309D01*
X132335000Y-111904166D01*
X132430238Y-111999404D01*
X132525476Y-112047023D01*
X132715952Y-112094642D01*
X132858809Y-112094642D01*
X133049285Y-112047023D01*
X133144523Y-111999404D01*
X133239761Y-111904166D01*
X133287380Y-111761309D01*
X133287380Y-111523214D01*
X132382619Y-112475595D02*
X132335000Y-112523214D01*
X132287380Y-112618452D01*
X132287380Y-112856547D01*
X132335000Y-112951785D01*
X132382619Y-112999404D01*
X132477857Y-113047023D01*
X132573095Y-113047023D01*
X132715952Y-112999404D01*
X133287380Y-112427976D01*
X133287380Y-113047023D01*
X132287380Y-113666071D02*
X132287380Y-113761309D01*
X132335000Y-113856547D01*
X132382619Y-113904166D01*
X132477857Y-113951785D01*
X132668333Y-113999404D01*
X132906428Y-113999404D01*
X133096904Y-113951785D01*
X133192142Y-113904166D01*
X133239761Y-113856547D01*
X133287380Y-113761309D01*
X133287380Y-113666071D01*
X133239761Y-113570833D01*
X133192142Y-113523214D01*
X133096904Y-113475595D01*
X132906428Y-113427976D01*
X132668333Y-113427976D01*
X132477857Y-113475595D01*
X132382619Y-113523214D01*
X132335000Y-113570833D01*
X132287380Y-113666071D01*
X169827380Y-112475595D02*
X168827380Y-112475595D01*
X168827380Y-112713690D01*
X168875000Y-112856547D01*
X168970238Y-112951785D01*
X169065476Y-112999404D01*
X169255952Y-113047023D01*
X169398809Y-113047023D01*
X169589285Y-112999404D01*
X169684523Y-112951785D01*
X169779761Y-112856547D01*
X169827380Y-112713690D01*
X169827380Y-112475595D01*
X173927380Y-111523214D02*
X172927380Y-111523214D01*
X172927380Y-111761309D01*
X172975000Y-111904166D01*
X173070238Y-111999404D01*
X173165476Y-112047023D01*
X173355952Y-112094642D01*
X173498809Y-112094642D01*
X173689285Y-112047023D01*
X173784523Y-111999404D01*
X173879761Y-111904166D01*
X173927380Y-111761309D01*
X173927380Y-111523214D01*
X173260714Y-112951785D02*
X173927380Y-112951785D01*
X172879761Y-112713690D02*
X173594047Y-112475595D01*
X173594047Y-113094642D01*
X172927380Y-113951785D02*
X172927380Y-113475595D01*
X173403571Y-113427976D01*
X173355952Y-113475595D01*
X173308333Y-113570833D01*
X173308333Y-113808928D01*
X173355952Y-113904166D01*
X173403571Y-113951785D01*
X173498809Y-113999404D01*
X173736904Y-113999404D01*
X173832142Y-113951785D01*
X173879761Y-113904166D01*
X173927380Y-113808928D01*
X173927380Y-113570833D01*
X173879761Y-113475595D01*
X173832142Y-113427976D01*
X265712380Y-112475595D02*
X264712380Y-112475595D01*
X264712380Y-112713690D01*
X264760000Y-112856547D01*
X264855238Y-112951785D01*
X264950476Y-112999404D01*
X265140952Y-113047023D01*
X265283809Y-113047023D01*
X265474285Y-112999404D01*
X265569523Y-112951785D01*
X265664761Y-112856547D01*
X265712380Y-112713690D01*
X265712380Y-112475595D01*
X269812380Y-111523214D02*
X268812380Y-111523214D01*
X268812380Y-111761309D01*
X268860000Y-111904166D01*
X268955238Y-111999404D01*
X269050476Y-112047023D01*
X269240952Y-112094642D01*
X269383809Y-112094642D01*
X269574285Y-112047023D01*
X269669523Y-111999404D01*
X269764761Y-111904166D01*
X269812380Y-111761309D01*
X269812380Y-111523214D01*
X268812380Y-112951785D02*
X268812380Y-112761309D01*
X268860000Y-112666071D01*
X268907619Y-112618452D01*
X269050476Y-112523214D01*
X269240952Y-112475595D01*
X269621904Y-112475595D01*
X269717142Y-112523214D01*
X269764761Y-112570833D01*
X269812380Y-112666071D01*
X269812380Y-112856547D01*
X269764761Y-112951785D01*
X269717142Y-112999404D01*
X269621904Y-113047023D01*
X269383809Y-113047023D01*
X269288571Y-112999404D01*
X269240952Y-112951785D01*
X269193333Y-112856547D01*
X269193333Y-112666071D01*
X269240952Y-112570833D01*
X269288571Y-112523214D01*
X269383809Y-112475595D01*
X268812380Y-113666071D02*
X268812380Y-113761309D01*
X268860000Y-113856547D01*
X268907619Y-113904166D01*
X269002857Y-113951785D01*
X269193333Y-113999404D01*
X269431428Y-113999404D01*
X269621904Y-113951785D01*
X269717142Y-113904166D01*
X269764761Y-113856547D01*
X269812380Y-113761309D01*
X269812380Y-113666071D01*
X269764761Y-113570833D01*
X269717142Y-113523214D01*
X269621904Y-113475595D01*
X269431428Y-113427976D01*
X269193333Y-113427976D01*
X269002857Y-113475595D01*
X268907619Y-113523214D01*
X268860000Y-113570833D01*
X268812380Y-113666071D01*
X288572380Y-112475595D02*
X287572380Y-112475595D01*
X287572380Y-112713690D01*
X287620000Y-112856547D01*
X287715238Y-112951785D01*
X287810476Y-112999404D01*
X288000952Y-113047023D01*
X288143809Y-113047023D01*
X288334285Y-112999404D01*
X288429523Y-112951785D01*
X288524761Y-112856547D01*
X288572380Y-112713690D01*
X288572380Y-112475595D01*
X292672380Y-110951714D02*
X291672380Y-110951714D01*
X291672380Y-111189809D01*
X291720000Y-111332666D01*
X291815238Y-111427904D01*
X291910476Y-111475523D01*
X292100952Y-111523142D01*
X292243809Y-111523142D01*
X292434285Y-111475523D01*
X292529523Y-111427904D01*
X292624761Y-111332666D01*
X292672380Y-111189809D01*
X292672380Y-110951714D01*
X291672380Y-112380285D02*
X291672380Y-112189809D01*
X291720000Y-112094571D01*
X291767619Y-112046952D01*
X291910476Y-111951714D01*
X292100952Y-111904095D01*
X292481904Y-111904095D01*
X292577142Y-111951714D01*
X292624761Y-111999333D01*
X292672380Y-112094571D01*
X292672380Y-112285047D01*
X292624761Y-112380285D01*
X292577142Y-112427904D01*
X292481904Y-112475523D01*
X292243809Y-112475523D01*
X292148571Y-112427904D01*
X292100952Y-112380285D01*
X292053333Y-112285047D01*
X292053333Y-112094571D01*
X292100952Y-111999333D01*
X292148571Y-111951714D01*
X292243809Y-111904095D01*
X291672380Y-113380285D02*
X291672380Y-112904095D01*
X292148571Y-112856476D01*
X292100952Y-112904095D01*
X292053333Y-112999333D01*
X292053333Y-113237428D01*
X292100952Y-113332666D01*
X292148571Y-113380285D01*
X292243809Y-113427904D01*
X292481904Y-113427904D01*
X292577142Y-113380285D01*
X292624761Y-113332666D01*
X292672380Y-113237428D01*
X292672380Y-112999333D01*
X292624761Y-112904095D01*
X292577142Y-112856476D01*
X57206523Y-30507380D02*
X57682714Y-30507380D01*
X57730333Y-30983571D01*
X57682714Y-30935952D01*
X57587476Y-30888333D01*
X57349380Y-30888333D01*
X57254142Y-30935952D01*
X57206523Y-30983571D01*
X57158904Y-31078809D01*
X57158904Y-31316904D01*
X57206523Y-31412142D01*
X57254142Y-31459761D01*
X57349380Y-31507380D01*
X57587476Y-31507380D01*
X57682714Y-31459761D01*
X57730333Y-31412142D01*
X56539857Y-30507380D02*
X56444619Y-30507380D01*
X56349380Y-30555000D01*
X56301761Y-30602619D01*
X56254142Y-30697857D01*
X56206523Y-30888333D01*
X56206523Y-31126428D01*
X56254142Y-31316904D01*
X56301761Y-31412142D01*
X56349380Y-31459761D01*
X56444619Y-31507380D01*
X56539857Y-31507380D01*
X56635095Y-31459761D01*
X56682714Y-31412142D01*
X56730333Y-31316904D01*
X56777952Y-31126428D01*
X56777952Y-30888333D01*
X56730333Y-30697857D01*
X56682714Y-30602619D01*
X56635095Y-30555000D01*
X56539857Y-30507380D01*
X55587476Y-30507380D02*
X55492238Y-30507380D01*
X55397000Y-30555000D01*
X55349380Y-30602619D01*
X55301761Y-30697857D01*
X55254142Y-30888333D01*
X55254142Y-31126428D01*
X55301761Y-31316904D01*
X55349380Y-31412142D01*
X55397000Y-31459761D01*
X55492238Y-31507380D01*
X55587476Y-31507380D01*
X55682714Y-31459761D01*
X55730333Y-31412142D01*
X55777952Y-31316904D01*
X55825571Y-31126428D01*
X55825571Y-30888333D01*
X55777952Y-30697857D01*
X55730333Y-30602619D01*
X55682714Y-30555000D01*
X55587476Y-30507380D01*
X54825571Y-31507380D02*
X54825571Y-30840714D01*
X54825571Y-30935952D02*
X54777952Y-30888333D01*
X54682714Y-30840714D01*
X54539857Y-30840714D01*
X54444619Y-30888333D01*
X54397000Y-30983571D01*
X54397000Y-31507380D01*
X54397000Y-30983571D02*
X54349380Y-30888333D01*
X54254142Y-30840714D01*
X54111285Y-30840714D01*
X54016047Y-30888333D01*
X53968428Y-30983571D01*
X53968428Y-31507380D01*
X53539857Y-31221666D02*
X53063666Y-31221666D01*
X53635095Y-31507380D02*
X53301761Y-30507380D01*
X52968428Y-31507380D01*
D14*
X55663666Y-29177857D02*
X55930333Y-29177857D01*
X55930333Y-29596904D02*
X55930333Y-28796904D01*
X55549380Y-28796904D01*
X54825571Y-29596904D02*
X55282714Y-29596904D01*
X55054142Y-29596904D02*
X55054142Y-28796904D01*
X55130333Y-28911190D01*
X55206523Y-28987380D01*
X55282714Y-29025476D01*
D11*
X44816380Y-67105238D02*
X44816380Y-66629047D01*
X45292571Y-66581428D01*
X45244952Y-66629047D01*
X45197333Y-66724285D01*
X45197333Y-66962380D01*
X45244952Y-67057619D01*
X45292571Y-67105238D01*
X45387809Y-67152857D01*
X45625904Y-67152857D01*
X45721142Y-67105238D01*
X45768761Y-67057619D01*
X45816380Y-66962380D01*
X45816380Y-66724285D01*
X45768761Y-66629047D01*
X45721142Y-66581428D01*
X45721142Y-67581428D02*
X45768761Y-67629047D01*
X45816380Y-67581428D01*
X45768761Y-67533809D01*
X45721142Y-67581428D01*
X45816380Y-67581428D01*
X44911619Y-68010000D02*
X44864000Y-68057619D01*
X44816380Y-68152857D01*
X44816380Y-68390952D01*
X44864000Y-68486190D01*
X44911619Y-68533809D01*
X45006857Y-68581428D01*
X45102095Y-68581428D01*
X45244952Y-68533809D01*
X45816380Y-67962380D01*
X45816380Y-68581428D01*
X45816380Y-68914761D02*
X45149714Y-69438571D01*
X45149714Y-68914761D02*
X45816380Y-69438571D01*
X44816380Y-70295714D02*
X44816380Y-69819523D01*
X45292571Y-69771904D01*
X45244952Y-69819523D01*
X45197333Y-69914761D01*
X45197333Y-70152857D01*
X45244952Y-70248095D01*
X45292571Y-70295714D01*
X45387809Y-70343333D01*
X45625904Y-70343333D01*
X45721142Y-70295714D01*
X45768761Y-70248095D01*
X45816380Y-70152857D01*
X45816380Y-69914761D01*
X45768761Y-69819523D01*
X45721142Y-69771904D01*
X45721142Y-70771904D02*
X45768761Y-70819523D01*
X45816380Y-70771904D01*
X45768761Y-70724285D01*
X45721142Y-70771904D01*
X45816380Y-70771904D01*
X44911619Y-71200476D02*
X44864000Y-71248095D01*
X44816380Y-71343333D01*
X44816380Y-71581428D01*
X44864000Y-71676666D01*
X44911619Y-71724285D01*
X45006857Y-71771904D01*
X45102095Y-71771904D01*
X45244952Y-71724285D01*
X45816380Y-71152857D01*
X45816380Y-71771904D01*
X45816380Y-72200476D02*
X45149714Y-72200476D01*
X45244952Y-72200476D02*
X45197333Y-72248095D01*
X45149714Y-72343333D01*
X45149714Y-72486190D01*
X45197333Y-72581428D01*
X45292571Y-72629047D01*
X45816380Y-72629047D01*
X45292571Y-72629047D02*
X45197333Y-72676666D01*
X45149714Y-72771904D01*
X45149714Y-72914761D01*
X45197333Y-73010000D01*
X45292571Y-73057619D01*
X45816380Y-73057619D01*
X45816380Y-73533809D02*
X45149714Y-73533809D01*
X45244952Y-73533809D02*
X45197333Y-73581428D01*
X45149714Y-73676666D01*
X45149714Y-73819523D01*
X45197333Y-73914761D01*
X45292571Y-73962380D01*
X45816380Y-73962380D01*
X45292571Y-73962380D02*
X45197333Y-74010000D01*
X45149714Y-74105238D01*
X45149714Y-74248095D01*
X45197333Y-74343333D01*
X45292571Y-74390952D01*
X45816380Y-74390952D01*
X202847380Y-112475595D02*
X201847380Y-112475595D01*
X201847380Y-112713690D01*
X201895000Y-112856547D01*
X201990238Y-112951785D01*
X202085476Y-112999404D01*
X202275952Y-113047023D01*
X202418809Y-113047023D01*
X202609285Y-112999404D01*
X202704523Y-112951785D01*
X202799761Y-112856547D01*
X202847380Y-112713690D01*
X202847380Y-112475595D01*
X206947380Y-111523214D02*
X205947380Y-111523214D01*
X205947380Y-111761309D01*
X205995000Y-111904166D01*
X206090238Y-111999404D01*
X206185476Y-112047023D01*
X206375952Y-112094642D01*
X206518809Y-112094642D01*
X206709285Y-112047023D01*
X206804523Y-111999404D01*
X206899761Y-111904166D01*
X206947380Y-111761309D01*
X206947380Y-111523214D01*
X205947380Y-112999404D02*
X205947380Y-112523214D01*
X206423571Y-112475595D01*
X206375952Y-112523214D01*
X206328333Y-112618452D01*
X206328333Y-112856547D01*
X206375952Y-112951785D01*
X206423571Y-112999404D01*
X206518809Y-113047023D01*
X206756904Y-113047023D01*
X206852142Y-112999404D01*
X206899761Y-112951785D01*
X206947380Y-112856547D01*
X206947380Y-112618452D01*
X206899761Y-112523214D01*
X206852142Y-112475595D01*
X205947380Y-113666071D02*
X205947380Y-113761309D01*
X205995000Y-113856547D01*
X206042619Y-113904166D01*
X206137857Y-113951785D01*
X206328333Y-113999404D01*
X206566428Y-113999404D01*
X206756904Y-113951785D01*
X206852142Y-113904166D01*
X206899761Y-113856547D01*
X206947380Y-113761309D01*
X206947380Y-113666071D01*
X206899761Y-113570833D01*
X206852142Y-113523214D01*
X206756904Y-113475595D01*
X206566428Y-113427976D01*
X206328333Y-113427976D01*
X206137857Y-113475595D01*
X206042619Y-113523214D01*
X205995000Y-113570833D01*
X205947380Y-113666071D01*
X228882380Y-112475595D02*
X227882380Y-112475595D01*
X227882380Y-112713690D01*
X227930000Y-112856547D01*
X228025238Y-112951785D01*
X228120476Y-112999404D01*
X228310952Y-113047023D01*
X228453809Y-113047023D01*
X228644285Y-112999404D01*
X228739523Y-112951785D01*
X228834761Y-112856547D01*
X228882380Y-112713690D01*
X228882380Y-112475595D01*
X232982380Y-111523214D02*
X231982380Y-111523214D01*
X231982380Y-111761309D01*
X232030000Y-111904166D01*
X232125238Y-111999404D01*
X232220476Y-112047023D01*
X232410952Y-112094642D01*
X232553809Y-112094642D01*
X232744285Y-112047023D01*
X232839523Y-111999404D01*
X232934761Y-111904166D01*
X232982380Y-111761309D01*
X232982380Y-111523214D01*
X231982380Y-112999404D02*
X231982380Y-112523214D01*
X232458571Y-112475595D01*
X232410952Y-112523214D01*
X232363333Y-112618452D01*
X232363333Y-112856547D01*
X232410952Y-112951785D01*
X232458571Y-112999404D01*
X232553809Y-113047023D01*
X232791904Y-113047023D01*
X232887142Y-112999404D01*
X232934761Y-112951785D01*
X232982380Y-112856547D01*
X232982380Y-112618452D01*
X232934761Y-112523214D01*
X232887142Y-112475595D01*
X231982380Y-113951785D02*
X231982380Y-113475595D01*
X232458571Y-113427976D01*
X232410952Y-113475595D01*
X232363333Y-113570833D01*
X232363333Y-113808928D01*
X232410952Y-113904166D01*
X232458571Y-113951785D01*
X232553809Y-113999404D01*
X232791904Y-113999404D01*
X232887142Y-113951785D01*
X232934761Y-113904166D01*
X232982380Y-113808928D01*
X232982380Y-113570833D01*
X232934761Y-113475595D01*
X232887142Y-113427976D01*
X66528665Y-54207142D02*
X66528665Y-54683333D01*
X66814379Y-54111904D02*
X65814379Y-54445238D01*
X66814379Y-54778571D01*
X65814379Y-54969047D02*
X65814379Y-55540476D01*
X66814379Y-55254761D02*
X65814379Y-55254761D01*
X66814379Y-55873809D02*
X66147713Y-55873809D01*
X66242951Y-55873809D02*
X66195332Y-55921428D01*
X66147713Y-56016666D01*
X66147713Y-56159523D01*
X66195332Y-56254761D01*
X66290570Y-56302380D01*
X66814379Y-56302380D01*
X66290570Y-56302380D02*
X66195332Y-56350000D01*
X66147713Y-56445238D01*
X66147713Y-56588095D01*
X66195332Y-56683333D01*
X66290570Y-56730952D01*
X66814379Y-56730952D01*
X66766760Y-57588095D02*
X66814379Y-57492857D01*
X66814379Y-57302380D01*
X66766760Y-57207142D01*
X66671522Y-57159523D01*
X66290570Y-57159523D01*
X66195332Y-57207142D01*
X66147713Y-57302380D01*
X66147713Y-57492857D01*
X66195332Y-57588095D01*
X66290570Y-57635714D01*
X66385808Y-57635714D01*
X66481046Y-57159523D01*
X66147713Y-58492857D02*
X66957237Y-58492857D01*
X67052475Y-58445238D01*
X67100094Y-58397619D01*
X67147713Y-58302380D01*
X67147713Y-58159523D01*
X67100094Y-58064285D01*
X66766760Y-58492857D02*
X66814379Y-58397619D01*
X66814379Y-58207142D01*
X66766760Y-58111904D01*
X66719141Y-58064285D01*
X66623903Y-58016666D01*
X66338189Y-58016666D01*
X66242951Y-58064285D01*
X66195332Y-58111904D01*
X66147713Y-58207142D01*
X66147713Y-58397619D01*
X66195332Y-58492857D01*
X66814379Y-59397619D02*
X66290570Y-59397619D01*
X66195332Y-59350000D01*
X66147713Y-59254761D01*
X66147713Y-59064285D01*
X66195332Y-58969047D01*
X66766760Y-59397619D02*
X66814379Y-59302380D01*
X66814379Y-59064285D01*
X66766760Y-58969047D01*
X66671522Y-58921428D01*
X66576284Y-58921428D01*
X66481046Y-58969047D01*
X66433427Y-59064285D01*
X66433427Y-59302380D01*
X66385808Y-59397619D01*
X65814379Y-59778571D02*
X65814379Y-60397619D01*
X66195332Y-60064285D01*
X66195332Y-60207142D01*
X66242951Y-60302380D01*
X66290570Y-60350000D01*
X66385808Y-60397619D01*
X66623903Y-60397619D01*
X66719141Y-60350000D01*
X66766760Y-60302380D01*
X66814379Y-60207142D01*
X66814379Y-59921428D01*
X66766760Y-59826190D01*
X66719141Y-59778571D01*
X65909618Y-60778571D02*
X65861999Y-60826190D01*
X65814379Y-60921428D01*
X65814379Y-61159523D01*
X65861999Y-61254761D01*
X65909618Y-61302380D01*
X66004856Y-61350000D01*
X66100094Y-61350000D01*
X66242951Y-61302380D01*
X66814379Y-60730952D01*
X66814379Y-61350000D01*
X65814379Y-61778571D02*
X66623903Y-61778571D01*
X66719141Y-61826190D01*
X66766760Y-61873809D01*
X66814379Y-61969047D01*
X66814379Y-62159523D01*
X66766760Y-62254761D01*
X66719141Y-62302380D01*
X66623903Y-62350000D01*
X65814379Y-62350000D01*
X66147713Y-63254761D02*
X66814379Y-63254761D01*
X65766760Y-63016666D02*
X66481046Y-62778571D01*
X66481046Y-63397619D01*
X66433427Y-63778571D02*
X66433427Y-64540476D01*
X66528665Y-64969047D02*
X66528665Y-65445238D01*
X66814379Y-64873809D02*
X65814379Y-65207142D01*
X66814379Y-65540476D01*
X65814379Y-65873809D02*
X66623903Y-65873809D01*
X66719141Y-65921428D01*
X66766760Y-65969047D01*
X66814379Y-66064285D01*
X66814379Y-66254761D01*
X66766760Y-66350000D01*
X66719141Y-66397619D01*
X66623903Y-66445238D01*
X65814379Y-66445238D01*
X73264380Y-59588095D02*
X74073904Y-59588095D01*
X74169142Y-59635714D01*
X74216761Y-59683333D01*
X74264380Y-59778571D01*
X74264380Y-59969047D01*
X74216761Y-60064285D01*
X74169142Y-60111904D01*
X74073904Y-60159523D01*
X73264380Y-60159523D01*
X73359619Y-60588095D02*
X73312000Y-60635714D01*
X73264380Y-60730952D01*
X73264380Y-60969047D01*
X73312000Y-61064285D01*
X73359619Y-61111904D01*
X73454857Y-61159523D01*
X73550095Y-61159523D01*
X73692952Y-61111904D01*
X74264380Y-60540476D01*
X74264380Y-61159523D01*
X76153428Y-70666380D02*
X76724857Y-70666380D01*
X76439142Y-70666380D02*
X76439142Y-69666380D01*
X76534380Y-69809238D01*
X76629619Y-69904476D01*
X76724857Y-69952095D01*
X75534380Y-69666380D02*
X75439142Y-69666380D01*
X75343904Y-69714000D01*
X75296285Y-69761619D01*
X75248666Y-69856857D01*
X75201047Y-70047333D01*
X75201047Y-70285428D01*
X75248666Y-70475904D01*
X75296285Y-70571142D01*
X75343904Y-70618761D01*
X75439142Y-70666380D01*
X75534380Y-70666380D01*
X75629619Y-70618761D01*
X75677238Y-70571142D01*
X75724857Y-70475904D01*
X75772476Y-70285428D01*
X75772476Y-70047333D01*
X75724857Y-69856857D01*
X75677238Y-69761619D01*
X75629619Y-69714000D01*
X75534380Y-69666380D01*
X74343904Y-69999714D02*
X74343904Y-70666380D01*
X74772476Y-69999714D02*
X74772476Y-70523523D01*
X74724857Y-70618761D01*
X74629619Y-70666380D01*
X74486761Y-70666380D01*
X74391523Y-70618761D01*
X74343904Y-70571142D01*
X73534380Y-70142571D02*
X73867714Y-70142571D01*
X73867714Y-70666380D02*
X73867714Y-69666380D01*
X73391523Y-69666380D01*
D14*
X75215333Y-72319714D02*
X75253428Y-72357809D01*
X75367714Y-72395904D01*
X75443904Y-72395904D01*
X75558190Y-72357809D01*
X75634380Y-72281619D01*
X75672476Y-72205428D01*
X75710571Y-72053047D01*
X75710571Y-71938761D01*
X75672476Y-71786380D01*
X75634380Y-71710190D01*
X75558190Y-71634000D01*
X75443904Y-71595904D01*
X75367714Y-71595904D01*
X75253428Y-71634000D01*
X75215333Y-71672095D01*
X74453428Y-72395904D02*
X74910571Y-72395904D01*
X74682000Y-72395904D02*
X74682000Y-71595904D01*
X74758190Y-71710190D01*
X74834380Y-71786380D01*
X74910571Y-71824476D01*
D11*
X84990380Y-63025142D02*
X84990380Y-63120380D01*
X85038000Y-63215619D01*
X85085619Y-63263238D01*
X85180857Y-63310857D01*
X85371333Y-63358476D01*
X85609428Y-63358476D01*
X85799904Y-63310857D01*
X85895142Y-63263238D01*
X85942761Y-63215619D01*
X85990380Y-63120380D01*
X85990380Y-63025142D01*
X85942761Y-62929904D01*
X85895142Y-62882285D01*
X85799904Y-62834666D01*
X85609428Y-62787047D01*
X85371333Y-62787047D01*
X85180857Y-62834666D01*
X85085619Y-62882285D01*
X85038000Y-62929904D01*
X84990380Y-63025142D01*
X85895142Y-63787047D02*
X85942761Y-63834666D01*
X85990380Y-63787047D01*
X85942761Y-63739428D01*
X85895142Y-63787047D01*
X85990380Y-63787047D01*
X85990380Y-64787047D02*
X85990380Y-64215619D01*
X85990380Y-64501333D02*
X84990380Y-64501333D01*
X85133238Y-64406095D01*
X85228476Y-64310857D01*
X85276095Y-64215619D01*
X85323714Y-65644190D02*
X85990380Y-65644190D01*
X85323714Y-65215619D02*
X85847523Y-65215619D01*
X85942761Y-65263238D01*
X85990380Y-65358476D01*
X85990380Y-65501333D01*
X85942761Y-65596571D01*
X85895142Y-65644190D01*
X85466571Y-66453714D02*
X85466571Y-66120380D01*
X85990380Y-66120380D02*
X84990380Y-66120380D01*
X84990380Y-66596571D01*
D14*
X84003714Y-64534666D02*
X84041809Y-64496571D01*
X84079904Y-64382285D01*
X84079904Y-64306095D01*
X84041809Y-64191809D01*
X83965619Y-64115619D01*
X83889428Y-64077523D01*
X83737047Y-64039428D01*
X83622761Y-64039428D01*
X83470380Y-64077523D01*
X83394190Y-64115619D01*
X83318000Y-64191809D01*
X83279904Y-64306095D01*
X83279904Y-64382285D01*
X83318000Y-64496571D01*
X83356095Y-64534666D01*
X83546571Y-65220380D02*
X84079904Y-65220380D01*
X83241809Y-65029904D02*
X83813238Y-64839428D01*
X83813238Y-65334666D01*
D11*
X70882857Y-48838380D02*
X70787619Y-48838380D01*
X70692380Y-48886000D01*
X70644761Y-48933619D01*
X70597142Y-49028857D01*
X70549523Y-49219333D01*
X70549523Y-49457428D01*
X70597142Y-49647904D01*
X70644761Y-49743142D01*
X70692380Y-49790761D01*
X70787619Y-49838380D01*
X70882857Y-49838380D01*
X70978095Y-49790761D01*
X71025714Y-49743142D01*
X71073333Y-49647904D01*
X71120952Y-49457428D01*
X71120952Y-49219333D01*
X71073333Y-49028857D01*
X71025714Y-48933619D01*
X70978095Y-48886000D01*
X70882857Y-48838380D01*
X70120952Y-49743142D02*
X70073333Y-49790761D01*
X70120952Y-49838380D01*
X70168571Y-49790761D01*
X70120952Y-49743142D01*
X70120952Y-49838380D01*
X69120952Y-49838380D02*
X69692380Y-49838380D01*
X69406666Y-49838380D02*
X69406666Y-48838380D01*
X69501904Y-48981238D01*
X69597142Y-49076476D01*
X69692380Y-49124095D01*
X68263809Y-49171714D02*
X68263809Y-49838380D01*
X68692380Y-49171714D02*
X68692380Y-49695523D01*
X68644761Y-49790761D01*
X68549523Y-49838380D01*
X68406666Y-49838380D01*
X68311428Y-49790761D01*
X68263809Y-49743142D01*
X67454285Y-49314571D02*
X67787619Y-49314571D01*
X67787619Y-49838380D02*
X67787619Y-48838380D01*
X67311428Y-48838380D01*
D14*
X69373333Y-51491714D02*
X69411428Y-51529809D01*
X69525714Y-51567904D01*
X69601904Y-51567904D01*
X69716190Y-51529809D01*
X69792380Y-51453619D01*
X69830476Y-51377428D01*
X69868571Y-51225047D01*
X69868571Y-51110761D01*
X69830476Y-50958380D01*
X69792380Y-50882190D01*
X69716190Y-50806000D01*
X69601904Y-50767904D01*
X69525714Y-50767904D01*
X69411428Y-50806000D01*
X69373333Y-50844095D01*
X68649523Y-50767904D02*
X69030476Y-50767904D01*
X69068571Y-51148857D01*
X69030476Y-51110761D01*
X68954285Y-51072666D01*
X68763809Y-51072666D01*
X68687619Y-51110761D01*
X68649523Y-51148857D01*
X68611428Y-51225047D01*
X68611428Y-51415523D01*
X68649523Y-51491714D01*
X68687619Y-51529809D01*
X68763809Y-51567904D01*
X68954285Y-51567904D01*
X69030476Y-51529809D01*
X69068571Y-51491714D01*
D11*
X69581238Y-68126380D02*
X70152666Y-68126380D01*
X69866952Y-68126380D02*
X69866952Y-67126380D01*
X69962190Y-67269238D01*
X70057428Y-67364476D01*
X70152666Y-67412095D01*
X68724095Y-67459714D02*
X68724095Y-68126380D01*
X69152666Y-67459714D02*
X69152666Y-67983523D01*
X69105047Y-68078761D01*
X69009809Y-68126380D01*
X68866952Y-68126380D01*
X68771714Y-68078761D01*
X68724095Y-68031142D01*
X67914571Y-67602571D02*
X68247904Y-67602571D01*
X68247904Y-68126380D02*
X68247904Y-67126380D01*
X67771714Y-67126380D01*
D14*
X69119333Y-69779714D02*
X69157428Y-69817809D01*
X69271714Y-69855904D01*
X69347904Y-69855904D01*
X69462190Y-69817809D01*
X69538380Y-69741619D01*
X69576476Y-69665428D01*
X69614571Y-69513047D01*
X69614571Y-69398761D01*
X69576476Y-69246380D01*
X69538380Y-69170190D01*
X69462190Y-69094000D01*
X69347904Y-69055904D01*
X69271714Y-69055904D01*
X69157428Y-69094000D01*
X69119333Y-69132095D01*
X68433619Y-69055904D02*
X68586000Y-69055904D01*
X68662190Y-69094000D01*
X68700285Y-69132095D01*
X68776476Y-69246380D01*
X68814571Y-69398761D01*
X68814571Y-69703523D01*
X68776476Y-69779714D01*
X68738380Y-69817809D01*
X68662190Y-69855904D01*
X68509809Y-69855904D01*
X68433619Y-69817809D01*
X68395523Y-69779714D01*
X68357428Y-69703523D01*
X68357428Y-69513047D01*
X68395523Y-69436857D01*
X68433619Y-69398761D01*
X68509809Y-69360666D01*
X68662190Y-69360666D01*
X68738380Y-69398761D01*
X68776476Y-69436857D01*
X68814571Y-69513047D01*
D11*
X64024857Y-67718380D02*
X63929619Y-67718380D01*
X63834380Y-67766000D01*
X63786761Y-67813619D01*
X63739142Y-67908857D01*
X63691523Y-68099333D01*
X63691523Y-68337428D01*
X63739142Y-68527904D01*
X63786761Y-68623142D01*
X63834380Y-68670761D01*
X63929619Y-68718380D01*
X64024857Y-68718380D01*
X64120095Y-68670761D01*
X64167714Y-68623142D01*
X64215333Y-68527904D01*
X64262952Y-68337428D01*
X64262952Y-68099333D01*
X64215333Y-67908857D01*
X64167714Y-67813619D01*
X64120095Y-67766000D01*
X64024857Y-67718380D01*
X63262952Y-68623142D02*
X63215333Y-68670761D01*
X63262952Y-68718380D01*
X63310571Y-68670761D01*
X63262952Y-68623142D01*
X63262952Y-68718380D01*
X62262952Y-68718380D02*
X62834380Y-68718380D01*
X62548666Y-68718380D02*
X62548666Y-67718380D01*
X62643904Y-67861238D01*
X62739142Y-67956476D01*
X62834380Y-68004095D01*
X61405809Y-68051714D02*
X61405809Y-68718380D01*
X61834380Y-68051714D02*
X61834380Y-68575523D01*
X61786761Y-68670761D01*
X61691523Y-68718380D01*
X61548666Y-68718380D01*
X61453428Y-68670761D01*
X61405809Y-68623142D01*
X60596285Y-68194571D02*
X60929619Y-68194571D01*
X60929619Y-68718380D02*
X60929619Y-67718380D01*
X60453428Y-67718380D01*
D14*
X62515333Y-66731714D02*
X62553428Y-66769809D01*
X62667714Y-66807904D01*
X62743904Y-66807904D01*
X62858190Y-66769809D01*
X62934380Y-66693619D01*
X62972476Y-66617428D01*
X63010571Y-66465047D01*
X63010571Y-66350761D01*
X62972476Y-66198380D01*
X62934380Y-66122190D01*
X62858190Y-66046000D01*
X62743904Y-66007904D01*
X62667714Y-66007904D01*
X62553428Y-66046000D01*
X62515333Y-66084095D01*
X62248666Y-66007904D02*
X61715333Y-66007904D01*
X62058190Y-66807904D01*
D11*
X48411904Y-42667619D02*
X48364285Y-42620000D01*
X48269047Y-42572380D01*
X48030952Y-42572380D01*
X47935714Y-42620000D01*
X47888095Y-42667619D01*
X47840476Y-42762857D01*
X47840476Y-42858095D01*
X47888095Y-43000952D01*
X48459523Y-43572380D01*
X47840476Y-43572380D01*
X47459523Y-42667619D02*
X47411904Y-42620000D01*
X47316666Y-42572380D01*
X47078571Y-42572380D01*
X46983333Y-42620000D01*
X46935714Y-42667619D01*
X46888095Y-42762857D01*
X46888095Y-42858095D01*
X46935714Y-43000952D01*
X47507142Y-43572380D01*
X46888095Y-43572380D01*
D14*
X47783333Y-41661904D02*
X48050000Y-41280952D01*
X48240476Y-41661904D02*
X48240476Y-40861904D01*
X47935714Y-40861904D01*
X47859523Y-40900000D01*
X47821428Y-40938095D01*
X47783333Y-41014285D01*
X47783333Y-41128571D01*
X47821428Y-41204761D01*
X47859523Y-41242857D01*
X47935714Y-41280952D01*
X48240476Y-41280952D01*
X47516666Y-40861904D02*
X47021428Y-40861904D01*
X47288095Y-41166666D01*
X47173809Y-41166666D01*
X47097619Y-41204761D01*
X47059523Y-41242857D01*
X47021428Y-41319047D01*
X47021428Y-41509523D01*
X47059523Y-41585714D01*
X47097619Y-41623809D01*
X47173809Y-41661904D01*
X47402380Y-41661904D01*
X47478571Y-41623809D01*
X47516666Y-41585714D01*
D11*
X48411904Y-46223619D02*
X48364285Y-46176000D01*
X48269047Y-46128380D01*
X48030952Y-46128380D01*
X47935714Y-46176000D01*
X47888095Y-46223619D01*
X47840476Y-46318857D01*
X47840476Y-46414095D01*
X47888095Y-46556952D01*
X48459523Y-47128380D01*
X47840476Y-47128380D01*
X47459523Y-46223619D02*
X47411904Y-46176000D01*
X47316666Y-46128380D01*
X47078571Y-46128380D01*
X46983333Y-46176000D01*
X46935714Y-46223619D01*
X46888095Y-46318857D01*
X46888095Y-46414095D01*
X46935714Y-46556952D01*
X47507142Y-47128380D01*
X46888095Y-47128380D01*
D14*
X47783333Y-45217904D02*
X48050000Y-44836952D01*
X48240476Y-45217904D02*
X48240476Y-44417904D01*
X47935714Y-44417904D01*
X47859523Y-44456000D01*
X47821428Y-44494095D01*
X47783333Y-44570285D01*
X47783333Y-44684571D01*
X47821428Y-44760761D01*
X47859523Y-44798857D01*
X47935714Y-44836952D01*
X48240476Y-44836952D01*
X47097619Y-44684571D02*
X47097619Y-45217904D01*
X47288095Y-44379809D02*
X47478571Y-44951238D01*
X46983333Y-44951238D01*
D11*
X50023238Y-66305380D02*
X50594666Y-66305380D01*
X50308952Y-66305380D02*
X50308952Y-65305380D01*
X50404190Y-65448238D01*
X50499428Y-65543476D01*
X50594666Y-65591095D01*
X49404190Y-65305380D02*
X49308952Y-65305380D01*
X49213714Y-65353000D01*
X49166095Y-65400619D01*
X49118476Y-65495857D01*
X49070857Y-65686333D01*
X49070857Y-65924428D01*
X49118476Y-66114904D01*
X49166095Y-66210142D01*
X49213714Y-66257761D01*
X49308952Y-66305380D01*
X49404190Y-66305380D01*
X49499428Y-66257761D01*
X49547047Y-66210142D01*
X49594666Y-66114904D01*
X49642285Y-65924428D01*
X49642285Y-65686333D01*
X49594666Y-65495857D01*
X49547047Y-65400619D01*
X49499428Y-65353000D01*
X49404190Y-65305380D01*
X48642285Y-66305380D02*
X48642285Y-65305380D01*
X48547047Y-65924428D02*
X48261333Y-66305380D01*
X48261333Y-65638714D02*
X48642285Y-66019666D01*
D14*
X49561333Y-64394904D02*
X49828000Y-64013952D01*
X50018476Y-64394904D02*
X50018476Y-63594904D01*
X49713714Y-63594904D01*
X49637523Y-63633000D01*
X49599428Y-63671095D01*
X49561333Y-63747285D01*
X49561333Y-63861571D01*
X49599428Y-63937761D01*
X49637523Y-63975857D01*
X49713714Y-64013952D01*
X50018476Y-64013952D01*
X48837523Y-63594904D02*
X49218476Y-63594904D01*
X49256571Y-63975857D01*
X49218476Y-63937761D01*
X49142285Y-63899666D01*
X48951809Y-63899666D01*
X48875619Y-63937761D01*
X48837523Y-63975857D01*
X48799428Y-64052047D01*
X48799428Y-64242523D01*
X48837523Y-64318714D01*
X48875619Y-64356809D01*
X48951809Y-64394904D01*
X49142285Y-64394904D01*
X49218476Y-64356809D01*
X49256571Y-64318714D01*
D11*
X82350380Y-54928761D02*
X82350380Y-54357333D01*
X82350380Y-54643047D02*
X81350380Y-54643047D01*
X81493238Y-54547809D01*
X81588476Y-54452571D01*
X81636095Y-54357333D01*
X81350380Y-55547809D02*
X81350380Y-55643047D01*
X81398000Y-55738285D01*
X81445619Y-55785904D01*
X81540857Y-55833523D01*
X81731333Y-55881142D01*
X81969428Y-55881142D01*
X82159904Y-55833523D01*
X82255142Y-55785904D01*
X82302761Y-55738285D01*
X82350380Y-55643047D01*
X82350380Y-55547809D01*
X82302761Y-55452571D01*
X82255142Y-55404952D01*
X82159904Y-55357333D01*
X81969428Y-55309714D01*
X81731333Y-55309714D01*
X81540857Y-55357333D01*
X81445619Y-55404952D01*
X81398000Y-55452571D01*
X81350380Y-55547809D01*
X82350380Y-56309714D02*
X81350380Y-56309714D01*
X81969428Y-56404952D02*
X82350380Y-56690666D01*
X81683714Y-56690666D02*
X82064666Y-56309714D01*
D14*
X84079904Y-55390666D02*
X83698952Y-55124000D01*
X84079904Y-54933523D02*
X83279904Y-54933523D01*
X83279904Y-55238285D01*
X83318000Y-55314476D01*
X83356095Y-55352571D01*
X83432285Y-55390666D01*
X83546571Y-55390666D01*
X83622761Y-55352571D01*
X83660857Y-55314476D01*
X83698952Y-55238285D01*
X83698952Y-54933523D01*
X83279904Y-56076380D02*
X83279904Y-55924000D01*
X83318000Y-55847809D01*
X83356095Y-55809714D01*
X83470380Y-55733523D01*
X83622761Y-55695428D01*
X83927523Y-55695428D01*
X84003714Y-55733523D01*
X84041809Y-55771619D01*
X84079904Y-55847809D01*
X84079904Y-56000190D01*
X84041809Y-56076380D01*
X84003714Y-56114476D01*
X83927523Y-56152571D01*
X83737047Y-56152571D01*
X83660857Y-56114476D01*
X83622761Y-56076380D01*
X83584666Y-56000190D01*
X83584666Y-55847809D01*
X83622761Y-55771619D01*
X83660857Y-55733523D01*
X83737047Y-55695428D01*
D15*
X48034285Y-20051923D02*
X48034285Y-20570019D01*
X48003809Y-20630971D01*
X47973333Y-20661447D01*
X47912380Y-20691923D01*
X47790476Y-20691923D01*
X47729523Y-20661447D01*
X47699047Y-20630971D01*
X47668571Y-20570019D01*
X47668571Y-20051923D01*
X47424761Y-20051923D02*
X46998095Y-20691923D01*
X46998095Y-20051923D02*
X47424761Y-20691923D01*
X46480000Y-20051923D02*
X46601904Y-20051923D01*
X46662857Y-20082400D01*
X46693333Y-20112876D01*
X46754285Y-20204304D01*
X46784761Y-20326209D01*
X46784761Y-20570019D01*
X46754285Y-20630971D01*
X46723809Y-20661447D01*
X46662857Y-20691923D01*
X46540952Y-20691923D01*
X46480000Y-20661447D01*
X46449523Y-20630971D01*
X46419047Y-20570019D01*
X46419047Y-20417638D01*
X46449523Y-20356685D01*
X46480000Y-20326209D01*
X46540952Y-20295733D01*
X46662857Y-20295733D01*
X46723809Y-20326209D01*
X46754285Y-20356685D01*
X46784761Y-20417638D01*
X46022857Y-20051923D02*
X45961904Y-20051923D01*
X45900952Y-20082400D01*
X45870476Y-20112876D01*
X45840000Y-20173828D01*
X45809523Y-20295733D01*
X45809523Y-20448114D01*
X45840000Y-20570019D01*
X45870476Y-20630971D01*
X45900952Y-20661447D01*
X45961904Y-20691923D01*
X46022857Y-20691923D01*
X46083809Y-20661447D01*
X46114285Y-20630971D01*
X46144761Y-20570019D01*
X46175238Y-20448114D01*
X46175238Y-20295733D01*
X46144761Y-20173828D01*
X46114285Y-20112876D01*
X46083809Y-20082400D01*
X46022857Y-20051923D01*
X45565714Y-20661447D02*
X45474285Y-20691923D01*
X45321904Y-20691923D01*
X45260952Y-20661447D01*
X45230476Y-20630971D01*
X45200000Y-20570019D01*
X45200000Y-20509066D01*
X45230476Y-20448114D01*
X45260952Y-20417638D01*
X45321904Y-20387161D01*
X45443809Y-20356685D01*
X45504761Y-20326209D01*
X45535238Y-20295733D01*
X45565714Y-20234780D01*
X45565714Y-20173828D01*
X45535238Y-20112876D01*
X45504761Y-20082400D01*
X45443809Y-20051923D01*
X45291428Y-20051923D01*
X45200000Y-20082400D01*
X44560000Y-20630971D02*
X44590476Y-20661447D01*
X44681904Y-20691923D01*
X44742857Y-20691923D01*
X44834285Y-20661447D01*
X44895238Y-20600495D01*
X44925714Y-20539542D01*
X44956190Y-20417638D01*
X44956190Y-20326209D01*
X44925714Y-20204304D01*
X44895238Y-20143352D01*
X44834285Y-20082400D01*
X44742857Y-20051923D01*
X44681904Y-20051923D01*
X44590476Y-20082400D01*
X44560000Y-20112876D01*
X44285714Y-20448114D02*
X43798095Y-20448114D01*
X43493333Y-20691923D02*
X43493333Y-20051923D01*
X43280000Y-20509066D01*
X43066666Y-20051923D01*
X43066666Y-20691923D01*
X42548571Y-20356685D02*
X42457142Y-20387161D01*
X42426666Y-20417638D01*
X42396190Y-20478590D01*
X42396190Y-20570019D01*
X42426666Y-20630971D01*
X42457142Y-20661447D01*
X42518095Y-20691923D01*
X42761904Y-20691923D01*
X42761904Y-20051923D01*
X42548571Y-20051923D01*
X42487619Y-20082400D01*
X42457142Y-20112876D01*
X42426666Y-20173828D01*
X42426666Y-20234780D01*
X42457142Y-20295733D01*
X42487619Y-20326209D01*
X42548571Y-20356685D01*
X42761904Y-20356685D01*
X42121904Y-20448114D02*
X41634285Y-20448114D01*
X41024761Y-20051923D02*
X41329523Y-20051923D01*
X41360000Y-20356685D01*
X41329523Y-20326209D01*
X41268571Y-20295733D01*
X41116190Y-20295733D01*
X41055238Y-20326209D01*
X41024761Y-20356685D01*
X40994285Y-20417638D01*
X40994285Y-20570019D01*
X41024761Y-20630971D01*
X41055238Y-20661447D01*
X41116190Y-20691923D01*
X41268571Y-20691923D01*
X41329523Y-20661447D01*
X41360000Y-20630971D01*
X40750476Y-20661447D02*
X40659047Y-20691923D01*
X40506666Y-20691923D01*
X40445714Y-20661447D01*
X40415238Y-20630971D01*
X40384761Y-20570019D01*
X40384761Y-20509066D01*
X40415238Y-20448114D01*
X40445714Y-20417638D01*
X40506666Y-20387161D01*
X40628571Y-20356685D01*
X40689523Y-20326209D01*
X40720000Y-20295733D01*
X40750476Y-20234780D01*
X40750476Y-20173828D01*
X40720000Y-20112876D01*
X40689523Y-20082400D01*
X40628571Y-20051923D01*
X40476190Y-20051923D01*
X40384761Y-20082400D01*
X40019047Y-20326209D02*
X40080000Y-20295733D01*
X40110476Y-20265257D01*
X40140952Y-20204304D01*
X40140952Y-20173828D01*
X40110476Y-20112876D01*
X40080000Y-20082400D01*
X40019047Y-20051923D01*
X39897142Y-20051923D01*
X39836190Y-20082400D01*
X39805714Y-20112876D01*
X39775238Y-20173828D01*
X39775238Y-20204304D01*
X39805714Y-20265257D01*
X39836190Y-20295733D01*
X39897142Y-20326209D01*
X40019047Y-20326209D01*
X40080000Y-20356685D01*
X40110476Y-20387161D01*
X40140952Y-20448114D01*
X40140952Y-20570019D01*
X40110476Y-20630971D01*
X40080000Y-20661447D01*
X40019047Y-20691923D01*
X39897142Y-20691923D01*
X39836190Y-20661447D01*
X39805714Y-20630971D01*
X39775238Y-20570019D01*
X39775238Y-20448114D01*
X39805714Y-20387161D01*
X39836190Y-20356685D01*
X39897142Y-20326209D01*
X47267238Y-22340761D02*
X47267238Y-22020761D01*
X47145333Y-22020761D01*
X47114857Y-22036000D01*
X47099619Y-22051238D01*
X47084380Y-22081714D01*
X47084380Y-22127428D01*
X47099619Y-22157904D01*
X47114857Y-22173142D01*
X47145333Y-22188380D01*
X47267238Y-22188380D01*
X46764380Y-22310285D02*
X46779619Y-22325523D01*
X46825333Y-22340761D01*
X46855809Y-22340761D01*
X46901523Y-22325523D01*
X46932000Y-22295047D01*
X46947238Y-22264571D01*
X46962476Y-22203619D01*
X46962476Y-22157904D01*
X46947238Y-22096952D01*
X46932000Y-22066476D01*
X46901523Y-22036000D01*
X46855809Y-22020761D01*
X46825333Y-22020761D01*
X46779619Y-22036000D01*
X46764380Y-22051238D01*
X46520571Y-22173142D02*
X46474857Y-22188380D01*
X46459619Y-22203619D01*
X46444380Y-22234095D01*
X46444380Y-22279809D01*
X46459619Y-22310285D01*
X46474857Y-22325523D01*
X46505333Y-22340761D01*
X46627238Y-22340761D01*
X46627238Y-22020761D01*
X46520571Y-22020761D01*
X46490095Y-22036000D01*
X46474857Y-22051238D01*
X46459619Y-22081714D01*
X46459619Y-22112190D01*
X46474857Y-22142666D01*
X46490095Y-22157904D01*
X46520571Y-22173142D01*
X46627238Y-22173142D01*
X46383428Y-21946100D02*
X46093904Y-21946100D01*
X46307238Y-22173142D02*
X46200571Y-22173142D01*
X46154857Y-22340761D02*
X46307238Y-22340761D01*
X46307238Y-22020761D01*
X46154857Y-22020761D01*
X46093904Y-21946100D02*
X45804380Y-21946100D01*
X45880571Y-22340761D02*
X45880571Y-22020761D01*
X45880571Y-22325523D02*
X45911047Y-22340761D01*
X45972000Y-22340761D01*
X46002476Y-22325523D01*
X46017714Y-22310285D01*
X46032952Y-22279809D01*
X46032952Y-22188380D01*
X46017714Y-22157904D01*
X46002476Y-22142666D01*
X45972000Y-22127428D01*
X45911047Y-22127428D01*
X45880571Y-22142666D01*
X45804380Y-21946100D02*
X45514857Y-21946100D01*
X45591047Y-22127428D02*
X45591047Y-22386476D01*
X45606285Y-22416952D01*
X45621523Y-22432190D01*
X45652000Y-22447428D01*
X45697714Y-22447428D01*
X45728190Y-22432190D01*
X45591047Y-22325523D02*
X45621523Y-22340761D01*
X45682476Y-22340761D01*
X45712952Y-22325523D01*
X45728190Y-22310285D01*
X45743428Y-22279809D01*
X45743428Y-22188380D01*
X45728190Y-22157904D01*
X45712952Y-22142666D01*
X45682476Y-22127428D01*
X45621523Y-22127428D01*
X45591047Y-22142666D01*
X45514857Y-21946100D02*
X45240571Y-21946100D01*
X45316761Y-22325523D02*
X45347238Y-22340761D01*
X45408190Y-22340761D01*
X45438666Y-22325523D01*
X45453904Y-22295047D01*
X45453904Y-22173142D01*
X45438666Y-22142666D01*
X45408190Y-22127428D01*
X45347238Y-22127428D01*
X45316761Y-22142666D01*
X45301523Y-22173142D01*
X45301523Y-22203619D01*
X45453904Y-22234095D01*
D11*
X87841142Y-38958904D02*
X87888761Y-38911285D01*
X87936380Y-38768428D01*
X87936380Y-38673190D01*
X87888761Y-38530333D01*
X87793523Y-38435095D01*
X87698285Y-38387476D01*
X87507809Y-38339857D01*
X87364952Y-38339857D01*
X87174476Y-38387476D01*
X87079238Y-38435095D01*
X86984000Y-38530333D01*
X86936380Y-38673190D01*
X86936380Y-38768428D01*
X86984000Y-38911285D01*
X87031619Y-38958904D01*
X87936380Y-39530333D02*
X87888761Y-39435095D01*
X87841142Y-39387476D01*
X87745904Y-39339857D01*
X87460190Y-39339857D01*
X87364952Y-39387476D01*
X87317333Y-39435095D01*
X87269714Y-39530333D01*
X87269714Y-39673190D01*
X87317333Y-39768428D01*
X87364952Y-39816047D01*
X87460190Y-39863666D01*
X87745904Y-39863666D01*
X87841142Y-39816047D01*
X87888761Y-39768428D01*
X87936380Y-39673190D01*
X87936380Y-39530333D01*
X87269714Y-40292238D02*
X87936380Y-40292238D01*
X87364952Y-40292238D02*
X87317333Y-40339857D01*
X87269714Y-40435095D01*
X87269714Y-40577952D01*
X87317333Y-40673190D01*
X87412571Y-40720809D01*
X87936380Y-40720809D01*
X87269714Y-41197000D02*
X87936380Y-41197000D01*
X87364952Y-41197000D02*
X87317333Y-41244619D01*
X87269714Y-41339857D01*
X87269714Y-41482714D01*
X87317333Y-41577952D01*
X87412571Y-41625571D01*
X87936380Y-41625571D01*
X88031619Y-41863666D02*
X88031619Y-42625571D01*
X86936380Y-43054142D02*
X86936380Y-43149380D01*
X86984000Y-43244619D01*
X87031619Y-43292238D01*
X87126857Y-43339857D01*
X87317333Y-43387476D01*
X87555428Y-43387476D01*
X87745904Y-43339857D01*
X87841142Y-43292238D01*
X87888761Y-43244619D01*
X87936380Y-43149380D01*
X87936380Y-43054142D01*
X87888761Y-42958904D01*
X87841142Y-42911285D01*
X87745904Y-42863666D01*
X87555428Y-42816047D01*
X87317333Y-42816047D01*
X87126857Y-42863666D01*
X87031619Y-42911285D01*
X86984000Y-42958904D01*
X86936380Y-43054142D01*
X87936380Y-44339857D02*
X87936380Y-43768428D01*
X87936380Y-44054142D02*
X86936380Y-44054142D01*
X87079238Y-43958904D01*
X87174476Y-43863666D01*
X87222095Y-43768428D01*
X87936380Y-44673190D02*
X87269714Y-45197000D01*
X87269714Y-44673190D02*
X87936380Y-45197000D01*
X86936380Y-45768428D02*
X86936380Y-45863666D01*
X86984000Y-45958904D01*
X87031619Y-46006523D01*
X87126857Y-46054142D01*
X87317333Y-46101761D01*
X87555428Y-46101761D01*
X87745904Y-46054142D01*
X87841142Y-46006523D01*
X87888761Y-45958904D01*
X87936380Y-45863666D01*
X87936380Y-45768428D01*
X87888761Y-45673190D01*
X87841142Y-45625571D01*
X87745904Y-45577952D01*
X87555428Y-45530333D01*
X87317333Y-45530333D01*
X87126857Y-45577952D01*
X87031619Y-45625571D01*
X86984000Y-45673190D01*
X86936380Y-45768428D01*
X86936380Y-46435095D02*
X86936380Y-47054142D01*
X87317333Y-46720809D01*
X87317333Y-46863666D01*
X87364952Y-46958904D01*
X87412571Y-47006523D01*
X87507809Y-47054142D01*
X87745904Y-47054142D01*
X87841142Y-47006523D01*
X87888761Y-46958904D01*
X87936380Y-46863666D01*
X87936380Y-46577952D01*
X87888761Y-46482714D01*
X87841142Y-46435095D01*
X92687333Y-42149380D02*
X92687333Y-42863666D01*
X92734952Y-43006523D01*
X92830190Y-43101761D01*
X92973047Y-43149380D01*
X93068285Y-43149380D01*
X92258761Y-42244619D02*
X92211142Y-42197000D01*
X92115904Y-42149380D01*
X91877809Y-42149380D01*
X91782571Y-42197000D01*
X91734952Y-42244619D01*
X91687333Y-42339857D01*
X91687333Y-42435095D01*
X91734952Y-42577952D01*
X92306380Y-43149380D01*
X91687333Y-43149380D01*
M02*
