G04 #@! TF.GenerationSoftware,KiCad,Pcbnew,(5.1.6-0-10_14)*
G04 #@! TF.CreationDate,2020-06-28T15:00:23+09:00*
G04 #@! TF.ProjectId,Jones,4a6f6e65-732e-46b6-9963-61645f706362,rev?*
G04 #@! TF.SameCoordinates,Original*
G04 #@! TF.FileFunction,Soldermask,Bot*
G04 #@! TF.FilePolarity,Negative*
%FSLAX46Y46*%
G04 Gerber Fmt 4.6, Leading zero omitted, Abs format (unit mm)*
G04 Created by KiCad (PCBNEW (5.1.6-0-10_14)) date 2020-06-28 15:00:23*
%MOMM*%
%LPD*%
G01*
G04 APERTURE LIST*
%ADD10C,2.501900*%
%ADD11C,0.000100*%
%ADD12C,1.187400*%
%ADD13C,7.401300*%
%ADD14C,7.400240*%
%ADD15C,1.400000*%
%ADD16R,2.950000X2.900000*%
%ADD17C,2.150000*%
%ADD18C,3.400000*%
%ADD19C,4.387800*%
%ADD20R,2.200000X2.500000*%
%ADD21R,1.600000X1.300000*%
%ADD22R,1.500000X2.200000*%
%ADD23C,2.400000*%
%ADD24R,2.400000X3.600000*%
%ADD25R,2.400000X2.400000*%
%ADD26C,2.650000*%
%ADD27C,3.448000*%
%ADD28C,4.400000*%
%ADD29C,2.600000*%
%ADD30R,0.950000X1.900000*%
%ADD31R,1.900000X0.950000*%
%ADD32R,0.900000X1.800000*%
%ADD33O,1.500000X2.600000*%
%ADD34R,2.750000X1.200000*%
%ADD35O,2.100000X2.100000*%
%ADD36R,2.100000X2.100000*%
G04 APERTURE END LIST*
D10*
X303800000Y-76399050D02*
X307600000Y-76399050D01*
X303800000Y-81700950D02*
X307650000Y-81700950D01*
X22600000Y-76399050D02*
X26400000Y-76399050D01*
X22600000Y-81700950D02*
X26400000Y-81700950D01*
X301149050Y-79050000D02*
G75*
G02*
X303800000Y-76399050I2650950J0D01*
G01*
X303800000Y-81700950D02*
G75*
G02*
X301149050Y-79050000I0J2650950D01*
G01*
X29050950Y-79050000D02*
G75*
G03*
X26400000Y-76399050I-2650950J0D01*
G01*
X26400000Y-81700950D02*
G75*
G03*
X29050950Y-79050000I0J2650950D01*
G01*
D11*
G36*
X43792000Y-24446000D02*
G01*
X43792000Y-26946000D01*
X43792891Y-26980018D01*
X43795561Y-27013944D01*
X43800003Y-27047682D01*
X43806204Y-27081143D01*
X43814148Y-27114232D01*
X43823813Y-27146861D01*
X43835173Y-27178939D01*
X43848195Y-27210379D01*
X43862846Y-27241094D01*
X43879083Y-27271000D01*
X43896864Y-27300015D01*
X43916139Y-27328060D01*
X43936855Y-27355058D01*
X43958956Y-27380935D01*
X43982381Y-27405619D01*
X44007065Y-27429044D01*
X44032942Y-27451145D01*
X44059940Y-27471861D01*
X44087985Y-27491136D01*
X44117000Y-27508917D01*
X44146906Y-27525154D01*
X44177621Y-27539805D01*
X44209061Y-27552827D01*
X44241139Y-27564187D01*
X44273768Y-27573852D01*
X44306857Y-27581796D01*
X44340318Y-27587997D01*
X44374056Y-27592439D01*
X44407982Y-27595109D01*
X44442000Y-27596000D01*
X44476018Y-27595109D01*
X44509944Y-27592439D01*
X44543682Y-27587997D01*
X44577143Y-27581796D01*
X44610232Y-27573852D01*
X44642861Y-27564187D01*
X44674939Y-27552827D01*
X44706379Y-27539805D01*
X44737094Y-27525154D01*
X44767000Y-27508917D01*
X44796015Y-27491136D01*
X44824060Y-27471861D01*
X44851058Y-27451145D01*
X44876935Y-27429044D01*
X44901619Y-27405619D01*
X44925044Y-27380935D01*
X44947145Y-27355058D01*
X44967861Y-27328060D01*
X44987136Y-27300015D01*
X45004917Y-27271000D01*
X45021154Y-27241094D01*
X45035805Y-27210379D01*
X45048827Y-27178939D01*
X45060187Y-27146861D01*
X45069852Y-27114232D01*
X45077796Y-27081143D01*
X45083997Y-27047682D01*
X45088439Y-27013944D01*
X45091109Y-26980018D01*
X45092000Y-26946000D01*
X45092000Y-24446000D01*
X45091109Y-24411982D01*
X45088439Y-24378056D01*
X45083997Y-24344318D01*
X45077796Y-24310857D01*
X45069852Y-24277768D01*
X45060187Y-24245139D01*
X45048827Y-24213061D01*
X45035805Y-24181621D01*
X45021154Y-24150906D01*
X45004917Y-24121000D01*
X44987136Y-24091985D01*
X44967861Y-24063940D01*
X44947145Y-24036942D01*
X44925044Y-24011065D01*
X44901619Y-23986381D01*
X44876935Y-23962956D01*
X44851058Y-23940855D01*
X44824060Y-23920139D01*
X44796015Y-23900864D01*
X44767000Y-23883083D01*
X44737094Y-23866846D01*
X44706379Y-23852195D01*
X44674939Y-23839173D01*
X44642861Y-23827813D01*
X44610232Y-23818148D01*
X44577143Y-23810204D01*
X44543682Y-23804003D01*
X44509944Y-23799561D01*
X44476018Y-23796891D01*
X44442000Y-23796000D01*
X44407982Y-23796891D01*
X44374056Y-23799561D01*
X44340318Y-23804003D01*
X44306857Y-23810204D01*
X44273768Y-23818148D01*
X44241139Y-23827813D01*
X44209061Y-23839173D01*
X44177621Y-23852195D01*
X44146906Y-23866846D01*
X44117000Y-23883083D01*
X44087985Y-23900864D01*
X44059940Y-23920139D01*
X44032942Y-23940855D01*
X44007065Y-23962956D01*
X43982381Y-23986381D01*
X43958956Y-24011065D01*
X43936855Y-24036942D01*
X43916139Y-24063940D01*
X43896864Y-24091985D01*
X43879083Y-24121000D01*
X43862846Y-24150906D01*
X43848195Y-24181621D01*
X43835173Y-24213061D01*
X43823813Y-24245139D01*
X43814148Y-24277768D01*
X43806204Y-24310857D01*
X43800003Y-24344318D01*
X43795561Y-24378056D01*
X43792891Y-24411982D01*
X43792000Y-24446000D01*
G37*
X43792000Y-24446000D02*
X43792000Y-26946000D01*
X43792891Y-26980018D01*
X43795561Y-27013944D01*
X43800003Y-27047682D01*
X43806204Y-27081143D01*
X43814148Y-27114232D01*
X43823813Y-27146861D01*
X43835173Y-27178939D01*
X43848195Y-27210379D01*
X43862846Y-27241094D01*
X43879083Y-27271000D01*
X43896864Y-27300015D01*
X43916139Y-27328060D01*
X43936855Y-27355058D01*
X43958956Y-27380935D01*
X43982381Y-27405619D01*
X44007065Y-27429044D01*
X44032942Y-27451145D01*
X44059940Y-27471861D01*
X44087985Y-27491136D01*
X44117000Y-27508917D01*
X44146906Y-27525154D01*
X44177621Y-27539805D01*
X44209061Y-27552827D01*
X44241139Y-27564187D01*
X44273768Y-27573852D01*
X44306857Y-27581796D01*
X44340318Y-27587997D01*
X44374056Y-27592439D01*
X44407982Y-27595109D01*
X44442000Y-27596000D01*
X44476018Y-27595109D01*
X44509944Y-27592439D01*
X44543682Y-27587997D01*
X44577143Y-27581796D01*
X44610232Y-27573852D01*
X44642861Y-27564187D01*
X44674939Y-27552827D01*
X44706379Y-27539805D01*
X44737094Y-27525154D01*
X44767000Y-27508917D01*
X44796015Y-27491136D01*
X44824060Y-27471861D01*
X44851058Y-27451145D01*
X44876935Y-27429044D01*
X44901619Y-27405619D01*
X44925044Y-27380935D01*
X44947145Y-27355058D01*
X44967861Y-27328060D01*
X44987136Y-27300015D01*
X45004917Y-27271000D01*
X45021154Y-27241094D01*
X45035805Y-27210379D01*
X45048827Y-27178939D01*
X45060187Y-27146861D01*
X45069852Y-27114232D01*
X45077796Y-27081143D01*
X45083997Y-27047682D01*
X45088439Y-27013944D01*
X45091109Y-26980018D01*
X45092000Y-26946000D01*
X45092000Y-24446000D01*
X45091109Y-24411982D01*
X45088439Y-24378056D01*
X45083997Y-24344318D01*
X45077796Y-24310857D01*
X45069852Y-24277768D01*
X45060187Y-24245139D01*
X45048827Y-24213061D01*
X45035805Y-24181621D01*
X45021154Y-24150906D01*
X45004917Y-24121000D01*
X44987136Y-24091985D01*
X44967861Y-24063940D01*
X44947145Y-24036942D01*
X44925044Y-24011065D01*
X44901619Y-23986381D01*
X44876935Y-23962956D01*
X44851058Y-23940855D01*
X44824060Y-23920139D01*
X44796015Y-23900864D01*
X44767000Y-23883083D01*
X44737094Y-23866846D01*
X44706379Y-23852195D01*
X44674939Y-23839173D01*
X44642861Y-23827813D01*
X44610232Y-23818148D01*
X44577143Y-23810204D01*
X44543682Y-23804003D01*
X44509944Y-23799561D01*
X44476018Y-23796891D01*
X44442000Y-23796000D01*
X44407982Y-23796891D01*
X44374056Y-23799561D01*
X44340318Y-23804003D01*
X44306857Y-23810204D01*
X44273768Y-23818148D01*
X44241139Y-23827813D01*
X44209061Y-23839173D01*
X44177621Y-23852195D01*
X44146906Y-23866846D01*
X44117000Y-23883083D01*
X44087985Y-23900864D01*
X44059940Y-23920139D01*
X44032942Y-23940855D01*
X44007065Y-23962956D01*
X43982381Y-23986381D01*
X43958956Y-24011065D01*
X43936855Y-24036942D01*
X43916139Y-24063940D01*
X43896864Y-24091985D01*
X43879083Y-24121000D01*
X43862846Y-24150906D01*
X43848195Y-24181621D01*
X43835173Y-24213061D01*
X43823813Y-24245139D01*
X43814148Y-24277768D01*
X43806204Y-24310857D01*
X43800003Y-24344318D01*
X43795561Y-24378056D01*
X43792891Y-24411982D01*
X43792000Y-24446000D01*
G36*
X36492000Y-24446000D02*
G01*
X36492000Y-26946000D01*
X36492891Y-26980018D01*
X36495561Y-27013944D01*
X36500003Y-27047682D01*
X36506204Y-27081143D01*
X36514148Y-27114232D01*
X36523813Y-27146861D01*
X36535173Y-27178939D01*
X36548195Y-27210379D01*
X36562846Y-27241094D01*
X36579083Y-27271000D01*
X36596864Y-27300015D01*
X36616139Y-27328060D01*
X36636855Y-27355058D01*
X36658956Y-27380935D01*
X36682381Y-27405619D01*
X36707065Y-27429044D01*
X36732942Y-27451145D01*
X36759940Y-27471861D01*
X36787985Y-27491136D01*
X36817000Y-27508917D01*
X36846906Y-27525154D01*
X36877621Y-27539805D01*
X36909061Y-27552827D01*
X36941139Y-27564187D01*
X36973768Y-27573852D01*
X37006857Y-27581796D01*
X37040318Y-27587997D01*
X37074056Y-27592439D01*
X37107982Y-27595109D01*
X37142000Y-27596000D01*
X37176018Y-27595109D01*
X37209944Y-27592439D01*
X37243682Y-27587997D01*
X37277143Y-27581796D01*
X37310232Y-27573852D01*
X37342861Y-27564187D01*
X37374939Y-27552827D01*
X37406379Y-27539805D01*
X37437094Y-27525154D01*
X37467000Y-27508917D01*
X37496015Y-27491136D01*
X37524060Y-27471861D01*
X37551058Y-27451145D01*
X37576935Y-27429044D01*
X37601619Y-27405619D01*
X37625044Y-27380935D01*
X37647145Y-27355058D01*
X37667861Y-27328060D01*
X37687136Y-27300015D01*
X37704917Y-27271000D01*
X37721154Y-27241094D01*
X37735805Y-27210379D01*
X37748827Y-27178939D01*
X37760187Y-27146861D01*
X37769852Y-27114232D01*
X37777796Y-27081143D01*
X37783997Y-27047682D01*
X37788439Y-27013944D01*
X37791109Y-26980018D01*
X37792000Y-26946000D01*
X37792000Y-24446000D01*
X37791109Y-24411982D01*
X37788439Y-24378056D01*
X37783997Y-24344318D01*
X37777796Y-24310857D01*
X37769852Y-24277768D01*
X37760187Y-24245139D01*
X37748827Y-24213061D01*
X37735805Y-24181621D01*
X37721154Y-24150906D01*
X37704917Y-24121000D01*
X37687136Y-24091985D01*
X37667861Y-24063940D01*
X37647145Y-24036942D01*
X37625044Y-24011065D01*
X37601619Y-23986381D01*
X37576935Y-23962956D01*
X37551058Y-23940855D01*
X37524060Y-23920139D01*
X37496015Y-23900864D01*
X37467000Y-23883083D01*
X37437094Y-23866846D01*
X37406379Y-23852195D01*
X37374939Y-23839173D01*
X37342861Y-23827813D01*
X37310232Y-23818148D01*
X37277143Y-23810204D01*
X37243682Y-23804003D01*
X37209944Y-23799561D01*
X37176018Y-23796891D01*
X37142000Y-23796000D01*
X37107982Y-23796891D01*
X37074056Y-23799561D01*
X37040318Y-23804003D01*
X37006857Y-23810204D01*
X36973768Y-23818148D01*
X36941139Y-23827813D01*
X36909061Y-23839173D01*
X36877621Y-23852195D01*
X36846906Y-23866846D01*
X36817000Y-23883083D01*
X36787985Y-23900864D01*
X36759940Y-23920139D01*
X36732942Y-23940855D01*
X36707065Y-23962956D01*
X36682381Y-23986381D01*
X36658956Y-24011065D01*
X36636855Y-24036942D01*
X36616139Y-24063940D01*
X36596864Y-24091985D01*
X36579083Y-24121000D01*
X36562846Y-24150906D01*
X36548195Y-24181621D01*
X36535173Y-24213061D01*
X36523813Y-24245139D01*
X36514148Y-24277768D01*
X36506204Y-24310857D01*
X36500003Y-24344318D01*
X36495561Y-24378056D01*
X36492891Y-24411982D01*
X36492000Y-24446000D01*
G37*
X36492000Y-24446000D02*
X36492000Y-26946000D01*
X36492891Y-26980018D01*
X36495561Y-27013944D01*
X36500003Y-27047682D01*
X36506204Y-27081143D01*
X36514148Y-27114232D01*
X36523813Y-27146861D01*
X36535173Y-27178939D01*
X36548195Y-27210379D01*
X36562846Y-27241094D01*
X36579083Y-27271000D01*
X36596864Y-27300015D01*
X36616139Y-27328060D01*
X36636855Y-27355058D01*
X36658956Y-27380935D01*
X36682381Y-27405619D01*
X36707065Y-27429044D01*
X36732942Y-27451145D01*
X36759940Y-27471861D01*
X36787985Y-27491136D01*
X36817000Y-27508917D01*
X36846906Y-27525154D01*
X36877621Y-27539805D01*
X36909061Y-27552827D01*
X36941139Y-27564187D01*
X36973768Y-27573852D01*
X37006857Y-27581796D01*
X37040318Y-27587997D01*
X37074056Y-27592439D01*
X37107982Y-27595109D01*
X37142000Y-27596000D01*
X37176018Y-27595109D01*
X37209944Y-27592439D01*
X37243682Y-27587997D01*
X37277143Y-27581796D01*
X37310232Y-27573852D01*
X37342861Y-27564187D01*
X37374939Y-27552827D01*
X37406379Y-27539805D01*
X37437094Y-27525154D01*
X37467000Y-27508917D01*
X37496015Y-27491136D01*
X37524060Y-27471861D01*
X37551058Y-27451145D01*
X37576935Y-27429044D01*
X37601619Y-27405619D01*
X37625044Y-27380935D01*
X37647145Y-27355058D01*
X37667861Y-27328060D01*
X37687136Y-27300015D01*
X37704917Y-27271000D01*
X37721154Y-27241094D01*
X37735805Y-27210379D01*
X37748827Y-27178939D01*
X37760187Y-27146861D01*
X37769852Y-27114232D01*
X37777796Y-27081143D01*
X37783997Y-27047682D01*
X37788439Y-27013944D01*
X37791109Y-26980018D01*
X37792000Y-26946000D01*
X37792000Y-24446000D01*
X37791109Y-24411982D01*
X37788439Y-24378056D01*
X37783997Y-24344318D01*
X37777796Y-24310857D01*
X37769852Y-24277768D01*
X37760187Y-24245139D01*
X37748827Y-24213061D01*
X37735805Y-24181621D01*
X37721154Y-24150906D01*
X37704917Y-24121000D01*
X37687136Y-24091985D01*
X37667861Y-24063940D01*
X37647145Y-24036942D01*
X37625044Y-24011065D01*
X37601619Y-23986381D01*
X37576935Y-23962956D01*
X37551058Y-23940855D01*
X37524060Y-23920139D01*
X37496015Y-23900864D01*
X37467000Y-23883083D01*
X37437094Y-23866846D01*
X37406379Y-23852195D01*
X37374939Y-23839173D01*
X37342861Y-23827813D01*
X37310232Y-23818148D01*
X37277143Y-23810204D01*
X37243682Y-23804003D01*
X37209944Y-23799561D01*
X37176018Y-23796891D01*
X37142000Y-23796000D01*
X37107982Y-23796891D01*
X37074056Y-23799561D01*
X37040318Y-23804003D01*
X37006857Y-23810204D01*
X36973768Y-23818148D01*
X36941139Y-23827813D01*
X36909061Y-23839173D01*
X36877621Y-23852195D01*
X36846906Y-23866846D01*
X36817000Y-23883083D01*
X36787985Y-23900864D01*
X36759940Y-23920139D01*
X36732942Y-23940855D01*
X36707065Y-23962956D01*
X36682381Y-23986381D01*
X36658956Y-24011065D01*
X36636855Y-24036942D01*
X36616139Y-24063940D01*
X36596864Y-24091985D01*
X36579083Y-24121000D01*
X36562846Y-24150906D01*
X36548195Y-24181621D01*
X36535173Y-24213061D01*
X36523813Y-24245139D01*
X36514148Y-24277768D01*
X36506204Y-24310857D01*
X36500003Y-24344318D01*
X36495561Y-24378056D01*
X36492891Y-24411982D01*
X36492000Y-24446000D01*
D12*
X126887840Y-122742560D03*
X128157840Y-122742560D03*
X131967840Y-122742560D03*
X130697840Y-122742560D03*
X129427840Y-122742560D03*
X131967840Y-117408560D03*
X130697840Y-117408560D03*
X126887840Y-117408560D03*
X128157840Y-117408560D03*
X129427840Y-117408560D03*
X275442280Y-122737480D03*
X276712280Y-122737480D03*
X280522280Y-122737480D03*
X279252280Y-122737480D03*
X277982280Y-122737480D03*
X280522280Y-117403480D03*
X279252280Y-117403480D03*
X275442280Y-117403480D03*
X276712280Y-117403480D03*
X277982280Y-117403480D03*
D13*
X47800000Y-50450000D03*
D14*
X150800000Y-69550000D03*
X213100000Y-107750000D03*
X282650000Y-50450000D03*
D15*
X47800000Y-48150000D03*
X45500000Y-50450000D03*
X50100000Y-50450000D03*
X47800000Y-52750000D03*
X46173654Y-48823654D03*
X49426346Y-48823654D03*
X46173654Y-52076346D03*
X49426346Y-52076346D03*
X282650000Y-48150000D03*
X282650000Y-52750000D03*
X283850000Y-52750000D03*
X281450000Y-52750000D03*
X281450000Y-48150000D03*
X283850000Y-48133000D03*
X213100000Y-105450000D03*
X213100000Y-110050000D03*
X214300000Y-105450000D03*
X211900000Y-105450000D03*
X211900000Y-110050000D03*
X214300000Y-110050000D03*
X150800000Y-67250000D03*
X152000000Y-67250000D03*
X149600000Y-67250000D03*
X150800000Y-71850000D03*
X149600000Y-71850000D03*
X152000000Y-71850000D03*
X29000000Y-79050000D03*
X26400000Y-76450000D03*
X26400000Y-81650000D03*
X28238478Y-77211522D03*
X28238478Y-80888478D03*
X24357965Y-76450000D03*
X24357965Y-81650000D03*
X301200000Y-79050000D03*
X301961522Y-77211522D03*
X303800000Y-76450000D03*
X305842035Y-76450000D03*
X305842035Y-81650000D03*
X303800000Y-81650000D03*
X301961522Y-80888478D03*
D12*
X46634000Y-117398400D03*
X45364000Y-117398400D03*
X44094000Y-117398400D03*
X47904000Y-117398400D03*
X49174000Y-117398400D03*
X46634000Y-122732400D03*
X47904000Y-122732400D03*
X49174000Y-122732400D03*
X45364000Y-122732400D03*
X44094000Y-122732400D03*
D16*
X44983000Y-36855040D03*
X57910000Y-34315040D03*
D17*
X45745000Y-31775040D03*
X55905000Y-31775040D03*
D18*
X54635000Y-34315040D03*
D19*
X50825000Y-31775040D03*
D18*
X48285000Y-36855040D03*
D20*
X63532000Y-57503000D03*
X63532000Y-60403000D03*
X61232000Y-60403000D03*
X61232000Y-57503000D03*
G36*
G01*
X61807000Y-53372176D02*
X61807000Y-54881824D01*
G75*
G02*
X61486824Y-55202000I-320176J0D01*
G01*
X60302176Y-55202000D01*
G75*
G02*
X59982000Y-54881824I0J320176D01*
G01*
X59982000Y-53372176D01*
G75*
G02*
X60302176Y-53052000I320176J0D01*
G01*
X61486824Y-53052000D01*
G75*
G02*
X61807000Y-53372176I0J-320176D01*
G01*
G37*
G36*
G01*
X64782000Y-53372176D02*
X64782000Y-54881824D01*
G75*
G02*
X64461824Y-55202000I-320176J0D01*
G01*
X63277176Y-55202000D01*
G75*
G02*
X62957000Y-54881824I0J320176D01*
G01*
X62957000Y-53372176D01*
G75*
G02*
X63277176Y-53052000I320176J0D01*
G01*
X64461824Y-53052000D01*
G75*
G02*
X64782000Y-53372176I0J-320176D01*
G01*
G37*
G36*
G01*
X64782000Y-62897176D02*
X64782000Y-64406824D01*
G75*
G02*
X64461824Y-64727000I-320176J0D01*
G01*
X63277176Y-64727000D01*
G75*
G02*
X62957000Y-64406824I0J320176D01*
G01*
X62957000Y-62897176D01*
G75*
G02*
X63277176Y-62577000I320176J0D01*
G01*
X64461824Y-62577000D01*
G75*
G02*
X64782000Y-62897176I0J-320176D01*
G01*
G37*
G36*
G01*
X61807000Y-62897176D02*
X61807000Y-64406824D01*
G75*
G02*
X61486824Y-64727000I-320176J0D01*
G01*
X60302176Y-64727000D01*
G75*
G02*
X59982000Y-64406824I0J320176D01*
G01*
X59982000Y-62897176D01*
G75*
G02*
X60302176Y-62577000I320176J0D01*
G01*
X61486824Y-62577000D01*
G75*
G02*
X61807000Y-62897176I0J-320176D01*
G01*
G37*
D21*
X106451000Y-50953000D03*
X106451000Y-54253000D03*
X40030000Y-37110000D03*
X40030000Y-40410000D03*
X59080000Y-37110000D03*
X59080000Y-40410000D03*
X75590000Y-34570000D03*
X75590000Y-37870000D03*
X94640000Y-34570000D03*
X94640000Y-37870000D03*
X113690000Y-34570000D03*
X113690000Y-37870000D03*
X132740000Y-34570000D03*
X132740000Y-37870000D03*
X151790000Y-34570000D03*
X151790000Y-37870000D03*
X170840000Y-34570000D03*
X170840000Y-37870000D03*
X189890000Y-34570000D03*
X189890000Y-37870000D03*
X208940000Y-34570000D03*
X208940000Y-37870000D03*
X227990000Y-34570000D03*
X227990000Y-37870000D03*
X247040000Y-34570000D03*
X247040000Y-37870000D03*
X266090000Y-34570000D03*
X266090000Y-37870000D03*
X283235000Y-34570000D03*
X283235000Y-37870000D03*
X297205000Y-72670000D03*
X297205000Y-75970000D03*
X42570000Y-56920000D03*
X42570000Y-53620000D03*
X51968000Y-56920000D03*
X51968000Y-53620000D03*
X87274000Y-49048000D03*
X87274000Y-52348000D03*
X125501000Y-54126000D03*
X125501000Y-50826000D03*
X144424000Y-51080000D03*
X144424000Y-54380000D03*
X163474000Y-51334000D03*
X163474000Y-54634000D03*
X182524000Y-51334000D03*
X182524000Y-54634000D03*
X199415000Y-53620000D03*
X199415000Y-56920000D03*
X218465000Y-53620000D03*
X218465000Y-56920000D03*
X237515000Y-53620000D03*
X237515000Y-56920000D03*
X261645000Y-53620000D03*
X261645000Y-56920000D03*
X287045000Y-53112000D03*
X287045000Y-56412000D03*
X304190000Y-34570000D03*
X304190000Y-37870000D03*
X41173000Y-72670000D03*
X41173000Y-75970000D03*
X44221000Y-72670000D03*
X44221000Y-75970000D03*
X90068000Y-72670000D03*
X90068000Y-75970000D03*
X104165000Y-72670000D03*
X104165000Y-75970000D03*
X123215000Y-75970000D03*
X123215000Y-72670000D03*
X142265000Y-75970000D03*
X142265000Y-72670000D03*
X146075000Y-75970000D03*
X146075000Y-72670000D03*
X180365000Y-75970000D03*
X180365000Y-72670000D03*
X199415000Y-75970000D03*
X199415000Y-72670000D03*
X218465000Y-75970000D03*
X218465000Y-72670000D03*
X237515000Y-75970000D03*
X237515000Y-72670000D03*
X266090000Y-75970000D03*
X266090000Y-72670000D03*
X304190000Y-56920000D03*
X304190000Y-53620000D03*
X47015000Y-95020000D03*
X47015000Y-91720000D03*
X78130000Y-95020000D03*
X78130000Y-91720000D03*
X94640000Y-95020000D03*
X94640000Y-91720000D03*
X113690000Y-95020000D03*
X113690000Y-91720000D03*
X132740000Y-95020000D03*
X132740000Y-91720000D03*
X151790000Y-95020000D03*
X151790000Y-91720000D03*
X170840000Y-95020000D03*
X170840000Y-91720000D03*
X189890000Y-95020000D03*
X189890000Y-91720000D03*
X208940000Y-95020000D03*
X208940000Y-91720000D03*
X227990000Y-95020000D03*
X227990000Y-91720000D03*
X242595000Y-95274000D03*
X242595000Y-91974000D03*
X269265000Y-95020000D03*
X269265000Y-91720000D03*
X286410000Y-95020000D03*
X286410000Y-91720000D03*
X45110000Y-114387500D03*
X45110000Y-111087500D03*
X60350000Y-114387500D03*
X60350000Y-111087500D03*
X84956250Y-114387500D03*
X84956250Y-111087500D03*
X130835000Y-114387500D03*
X130835000Y-111087500D03*
X171475000Y-114387500D03*
X171475000Y-111087500D03*
X267360000Y-114387500D03*
X267360000Y-111087500D03*
X290220000Y-111087500D03*
X290220000Y-114387500D03*
G36*
G01*
X57797000Y-28480176D02*
X57797000Y-29989824D01*
G75*
G02*
X57476824Y-30310000I-320176J0D01*
G01*
X56292176Y-30310000D01*
G75*
G02*
X55972000Y-29989824I0J320176D01*
G01*
X55972000Y-28480176D01*
G75*
G02*
X56292176Y-28160000I320176J0D01*
G01*
X57476824Y-28160000D01*
G75*
G02*
X57797000Y-28480176I0J-320176D01*
G01*
G37*
G36*
G01*
X54822000Y-28480176D02*
X54822000Y-29989824D01*
G75*
G02*
X54501824Y-30310000I-320176J0D01*
G01*
X53317176Y-30310000D01*
G75*
G02*
X52997000Y-29989824I0J320176D01*
G01*
X52997000Y-28480176D01*
G75*
G02*
X53317176Y-28160000I320176J0D01*
G01*
X54501824Y-28160000D01*
G75*
G02*
X54822000Y-28480176I0J-320176D01*
G01*
G37*
D22*
X51278000Y-73610000D03*
X47578000Y-67410000D03*
X47578000Y-73610000D03*
X51278000Y-67410000D03*
D21*
X204495000Y-114387500D03*
X204495000Y-111087500D03*
X230530000Y-111087500D03*
X230530000Y-114387500D03*
D23*
X298712500Y-100619140D03*
X293712500Y-100619140D03*
D24*
X301812500Y-107619140D03*
X290612500Y-107619140D03*
D23*
X298712500Y-115119140D03*
X296212500Y-115119140D03*
D25*
X293712500Y-115119140D03*
D17*
X62413750Y-107975360D03*
X72573750Y-107975360D03*
D26*
X71303750Y-110515360D03*
D19*
X67493750Y-107975360D03*
D26*
X64953750Y-113055360D03*
X48285000Y-113055360D03*
D19*
X50825000Y-107975360D03*
D26*
X54635000Y-110515360D03*
D17*
X55905000Y-107975360D03*
X45745000Y-107975360D03*
X48126250Y-107975360D03*
X58286250Y-107975360D03*
D26*
X57016250Y-110515360D03*
D19*
X53206250Y-107975360D03*
D26*
X50666250Y-113055360D03*
X33997500Y-113055360D03*
D19*
X36537500Y-107975360D03*
D26*
X40347500Y-110515360D03*
D17*
X41617500Y-107975360D03*
X31457500Y-107975360D03*
D26*
X31616250Y-113055360D03*
D19*
X34156250Y-107975360D03*
D26*
X37966250Y-110515360D03*
D17*
X39236250Y-107975360D03*
X29076250Y-107975360D03*
X26695000Y-107975360D03*
X36855000Y-107975360D03*
D26*
X35585000Y-110515360D03*
D19*
X31775000Y-107975360D03*
D26*
X29235000Y-113055360D03*
D17*
X86226250Y-107975360D03*
X96386250Y-107975360D03*
D26*
X95116250Y-110515360D03*
D19*
X91306250Y-107975360D03*
D26*
X88766250Y-113055360D03*
D17*
X69557500Y-107975360D03*
X79717500Y-107975360D03*
D26*
X78447500Y-110515360D03*
D19*
X74637500Y-107975360D03*
D26*
X72097500Y-113055360D03*
X74478750Y-113055360D03*
D19*
X77018750Y-107975360D03*
D26*
X80828750Y-110515360D03*
D17*
X82098750Y-107975360D03*
X71938750Y-107975360D03*
D19*
X198456150Y-99720360D03*
X98456350Y-99720360D03*
D27*
X198456150Y-114960360D03*
X98456350Y-114960360D03*
D17*
X153536250Y-107975360D03*
X143376250Y-107975360D03*
D26*
X144646250Y-105435360D03*
D19*
X148456250Y-107975360D03*
D26*
X150996250Y-102895360D03*
D19*
X29362000Y-80670280D03*
X53238000Y-80670280D03*
D27*
X29362000Y-95910280D03*
X53238000Y-95910280D03*
D16*
X47142000Y-83845280D03*
X34215000Y-86385280D03*
D17*
X46380000Y-88925280D03*
X36220000Y-88925280D03*
D18*
X37490000Y-86385280D03*
D19*
X41300000Y-88925280D03*
D18*
X43840000Y-83845280D03*
X41458750Y-102895360D03*
D19*
X38918750Y-107975360D03*
D18*
X35108750Y-105435360D03*
D17*
X33838750Y-107975360D03*
X43998750Y-107975360D03*
D16*
X31833750Y-105435360D03*
X44760750Y-102895360D03*
D18*
X127183750Y-102895360D03*
D19*
X124643750Y-107975360D03*
D18*
X120833750Y-105435360D03*
D17*
X119563750Y-107975360D03*
X129723750Y-107975360D03*
D16*
X117558750Y-105435360D03*
X130485750Y-102895360D03*
D27*
X136581750Y-114960360D03*
X112705750Y-114960360D03*
D19*
X136581750Y-99720360D03*
X112705750Y-99720360D03*
D18*
X167665000Y-102895360D03*
D19*
X165125000Y-107975360D03*
D18*
X161315000Y-105435360D03*
D17*
X160045000Y-107975360D03*
X170205000Y-107975360D03*
D16*
X158040000Y-105435360D03*
X170967000Y-102895360D03*
D27*
X177063000Y-114960360D03*
X153187000Y-114960360D03*
D19*
X177063000Y-99720360D03*
X153187000Y-99720360D03*
D18*
X29235000Y-36855040D03*
D19*
X31775000Y-31775040D03*
D18*
X35585000Y-34315040D03*
D17*
X36855000Y-31775040D03*
X26695000Y-31775040D03*
D16*
X38860000Y-34315040D03*
X25933000Y-36855040D03*
X42379500Y-45745120D03*
X29452500Y-48285120D03*
D17*
X41617500Y-50825120D03*
X31457500Y-50825120D03*
D18*
X32727500Y-48285120D03*
D19*
X36537500Y-50825120D03*
D18*
X39077500Y-45745120D03*
D16*
X42379500Y-64795200D03*
X29452500Y-67335200D03*
D17*
X41617500Y-69875200D03*
X31457500Y-69875200D03*
D18*
X32727500Y-67335200D03*
D19*
X36537500Y-69875200D03*
D18*
X39077500Y-64795200D03*
D16*
X66192000Y-45745120D03*
X53265000Y-48285120D03*
D17*
X65430000Y-50825120D03*
X55270000Y-50825120D03*
D18*
X56540000Y-48285120D03*
D19*
X60350000Y-50825120D03*
D18*
X62890000Y-45745120D03*
X57810000Y-74955200D03*
D19*
X60350000Y-69875200D03*
D18*
X64160000Y-72415200D03*
D17*
X65430000Y-69875200D03*
X55270000Y-69875200D03*
D16*
X67435000Y-72415200D03*
X54508000Y-74955200D03*
D18*
X72415000Y-83845280D03*
D19*
X69875000Y-88925280D03*
D18*
X66065000Y-86385280D03*
D17*
X64795000Y-88925280D03*
X74955000Y-88925280D03*
D16*
X62790000Y-86385280D03*
X75717000Y-83845280D03*
X70954500Y-102895360D03*
X58027500Y-105435360D03*
D17*
X70192500Y-107975360D03*
X60032500Y-107975360D03*
D18*
X61302500Y-105435360D03*
D19*
X65112500Y-107975360D03*
D18*
X67652500Y-102895360D03*
X72415000Y-26695040D03*
D19*
X69875000Y-31775040D03*
D18*
X66065000Y-29235040D03*
D17*
X64795000Y-31775040D03*
X74955000Y-31775040D03*
D16*
X62790000Y-29235040D03*
X75717000Y-26695040D03*
X85242000Y-45745120D03*
X72315000Y-48285120D03*
D17*
X84480000Y-50825120D03*
X74320000Y-50825120D03*
D18*
X75590000Y-48285120D03*
D19*
X79400000Y-50825120D03*
D18*
X81940000Y-45745120D03*
X76860000Y-74955200D03*
D19*
X79400000Y-69875200D03*
D18*
X83210000Y-72415200D03*
D17*
X84480000Y-69875200D03*
X74320000Y-69875200D03*
D16*
X86485000Y-72415200D03*
X73558000Y-74955200D03*
D18*
X91465000Y-83845280D03*
D19*
X88925000Y-88925280D03*
D18*
X85115000Y-86385280D03*
D17*
X83845000Y-88925280D03*
X94005000Y-88925280D03*
D16*
X81840000Y-86385280D03*
X94767000Y-83845280D03*
X94767000Y-102895360D03*
X81840000Y-105435360D03*
D17*
X94005000Y-107975360D03*
X83845000Y-107975360D03*
D18*
X85115000Y-105435360D03*
D19*
X88925000Y-107975360D03*
D18*
X91465000Y-102895360D03*
X91465000Y-26695040D03*
D19*
X88925000Y-31775040D03*
D18*
X85115000Y-29235040D03*
D17*
X83845000Y-31775040D03*
X94005000Y-31775040D03*
D16*
X81840000Y-29235040D03*
X94767000Y-26695040D03*
X104292000Y-45745120D03*
X91365000Y-48285120D03*
D17*
X103530000Y-50825120D03*
X93370000Y-50825120D03*
D18*
X94640000Y-48285120D03*
D19*
X98450000Y-50825120D03*
D18*
X100990000Y-45745120D03*
X100990000Y-64795200D03*
D19*
X98450000Y-69875200D03*
D18*
X94640000Y-67335200D03*
D17*
X93370000Y-69875200D03*
X103530000Y-69875200D03*
D16*
X91365000Y-67335200D03*
X104292000Y-64795200D03*
D18*
X110515000Y-83845280D03*
D19*
X107975000Y-88925280D03*
D18*
X104165000Y-86385280D03*
D17*
X102895000Y-88925280D03*
X113055000Y-88925280D03*
D16*
X100890000Y-86385280D03*
X113817000Y-83845280D03*
D18*
X110515000Y-26695040D03*
D19*
X107975000Y-31775040D03*
D18*
X104165000Y-29235040D03*
D17*
X102895000Y-31775040D03*
X113055000Y-31775040D03*
D16*
X100890000Y-29235040D03*
X113817000Y-26695040D03*
X123342000Y-45745120D03*
X110415000Y-48285120D03*
D17*
X122580000Y-50825120D03*
X112420000Y-50825120D03*
D18*
X113690000Y-48285120D03*
D19*
X117500000Y-50825120D03*
D18*
X120040000Y-45745120D03*
X120040000Y-64795200D03*
D19*
X117500000Y-69875200D03*
D18*
X113690000Y-67335200D03*
D17*
X112420000Y-69875200D03*
X122580000Y-69875200D03*
D16*
X110415000Y-67335200D03*
X123342000Y-64795200D03*
D18*
X129565000Y-83845280D03*
D19*
X127025000Y-88925280D03*
D18*
X123215000Y-86385280D03*
D17*
X121945000Y-88925280D03*
X132105000Y-88925280D03*
D16*
X119940000Y-86385280D03*
X132867000Y-83845280D03*
D18*
X129565000Y-26695040D03*
D19*
X127025000Y-31775040D03*
D18*
X123215000Y-29235040D03*
D17*
X121945000Y-31775040D03*
X132105000Y-31775040D03*
D16*
X119940000Y-29235040D03*
X132867000Y-26695040D03*
X142392000Y-45745120D03*
X129465000Y-48285120D03*
D17*
X141630000Y-50825120D03*
X131470000Y-50825120D03*
D18*
X132740000Y-48285120D03*
D19*
X136550000Y-50825120D03*
D18*
X139090000Y-45745120D03*
X139090000Y-64795200D03*
D19*
X136550000Y-69875200D03*
D18*
X132740000Y-67335200D03*
D17*
X131470000Y-69875200D03*
X141630000Y-69875200D03*
D16*
X129465000Y-67335200D03*
X142392000Y-64795200D03*
D18*
X148615000Y-83845280D03*
D19*
X146075000Y-88925280D03*
D18*
X142265000Y-86385280D03*
D17*
X140995000Y-88925280D03*
X151155000Y-88925280D03*
D16*
X138990000Y-86385280D03*
X151917000Y-83845280D03*
X151917000Y-26695040D03*
X138990000Y-29235040D03*
D17*
X151155000Y-31775040D03*
X140995000Y-31775040D03*
D18*
X142265000Y-29235040D03*
D19*
X146075000Y-31775040D03*
D18*
X148615000Y-26695040D03*
D16*
X161442000Y-45745120D03*
X148515000Y-48285120D03*
D17*
X160680000Y-50825120D03*
X150520000Y-50825120D03*
D18*
X151790000Y-48285120D03*
D19*
X155600000Y-50825120D03*
D18*
X158140000Y-45745120D03*
X153060000Y-74955200D03*
D19*
X155600000Y-69875200D03*
D18*
X159410000Y-72415200D03*
D17*
X160680000Y-69875200D03*
X150520000Y-69875200D03*
D16*
X162685000Y-72415200D03*
X149758000Y-74955200D03*
D18*
X167665000Y-83845280D03*
D19*
X165125000Y-88925280D03*
D18*
X161315000Y-86385280D03*
D17*
X160045000Y-88925280D03*
X170205000Y-88925280D03*
D16*
X158040000Y-86385280D03*
X170967000Y-83845280D03*
D18*
X167665000Y-26695040D03*
D19*
X165125000Y-31775040D03*
D18*
X161315000Y-29235040D03*
D17*
X160045000Y-31775040D03*
X170205000Y-31775040D03*
D16*
X158040000Y-29235040D03*
X170967000Y-26695040D03*
X180492000Y-45745120D03*
X167565000Y-48285120D03*
D17*
X179730000Y-50825120D03*
X169570000Y-50825120D03*
D18*
X170840000Y-48285120D03*
D19*
X174650000Y-50825120D03*
D18*
X177190000Y-45745120D03*
D16*
X180492000Y-64795200D03*
X167565000Y-67335200D03*
D17*
X179730000Y-69875200D03*
X169570000Y-69875200D03*
D18*
X170840000Y-67335200D03*
D19*
X174650000Y-69875200D03*
D18*
X177190000Y-64795200D03*
X186715000Y-83845280D03*
D19*
X184175000Y-88925280D03*
D18*
X180365000Y-86385280D03*
D17*
X179095000Y-88925280D03*
X189255000Y-88925280D03*
D16*
X177090000Y-86385280D03*
X190017000Y-83845280D03*
X190017000Y-26695040D03*
X177090000Y-29235040D03*
D17*
X189255000Y-31775040D03*
X179095000Y-31775040D03*
D18*
X180365000Y-29235040D03*
D19*
X184175000Y-31775040D03*
D18*
X186715000Y-26695040D03*
D16*
X199542000Y-45745120D03*
X186615000Y-48285120D03*
D17*
X198780000Y-50825120D03*
X188620000Y-50825120D03*
D18*
X189890000Y-48285120D03*
D19*
X193700000Y-50825120D03*
D18*
X196240000Y-45745120D03*
D16*
X199542000Y-64795200D03*
X186615000Y-67335200D03*
D17*
X198780000Y-69875200D03*
X188620000Y-69875200D03*
D18*
X189890000Y-67335200D03*
D19*
X193700000Y-69875200D03*
D18*
X196240000Y-64795200D03*
X205765000Y-83845280D03*
D19*
X203225000Y-88925280D03*
D18*
X199415000Y-86385280D03*
D17*
X198145000Y-88925280D03*
X208305000Y-88925280D03*
D16*
X196140000Y-86385280D03*
X209067000Y-83845280D03*
D18*
X205765000Y-26695040D03*
D19*
X203225000Y-31775040D03*
D18*
X199415000Y-29235040D03*
D17*
X198145000Y-31775040D03*
X208305000Y-31775040D03*
D16*
X196140000Y-29235040D03*
X209067000Y-26695040D03*
X218592000Y-45745120D03*
X205665000Y-48285120D03*
D17*
X217830000Y-50825120D03*
X207670000Y-50825120D03*
D18*
X208940000Y-48285120D03*
D19*
X212750000Y-50825120D03*
D18*
X215290000Y-45745120D03*
D16*
X218592000Y-64795200D03*
X205665000Y-67335200D03*
D17*
X217830000Y-69875200D03*
X207670000Y-69875200D03*
D18*
X208940000Y-67335200D03*
D19*
X212750000Y-69875200D03*
D18*
X215290000Y-64795200D03*
X224815000Y-83845280D03*
D19*
X222275000Y-88925280D03*
D18*
X218465000Y-86385280D03*
D17*
X217195000Y-88925280D03*
X227355000Y-88925280D03*
D16*
X215190000Y-86385280D03*
X228117000Y-83845280D03*
X228117000Y-26695040D03*
X215190000Y-29235040D03*
D17*
X227355000Y-31775040D03*
X217195000Y-31775040D03*
D18*
X218465000Y-29235040D03*
D19*
X222275000Y-31775040D03*
D18*
X224815000Y-26695040D03*
D16*
X237642000Y-45745120D03*
X224715000Y-48285120D03*
D17*
X236880000Y-50825120D03*
X226720000Y-50825120D03*
D18*
X227990000Y-48285120D03*
D19*
X231800000Y-50825120D03*
D18*
X234340000Y-45745120D03*
D16*
X237642000Y-64795200D03*
X224715000Y-67335200D03*
D17*
X236880000Y-69875200D03*
X226720000Y-69875200D03*
D18*
X227990000Y-67335200D03*
D19*
X231800000Y-69875200D03*
D18*
X234340000Y-64795200D03*
X201002500Y-102895360D03*
D19*
X198462500Y-107975360D03*
D18*
X194652500Y-105435360D03*
D17*
X193382500Y-107975360D03*
X203542500Y-107975360D03*
D16*
X191377500Y-105435360D03*
X204304500Y-102895360D03*
D18*
X243865000Y-26695040D03*
D19*
X241325000Y-31775040D03*
D18*
X237515000Y-29235040D03*
D17*
X236245000Y-31775040D03*
X246405000Y-31775040D03*
D16*
X234240000Y-29235040D03*
X247167000Y-26695040D03*
D18*
X258152500Y-45745120D03*
D19*
X255612500Y-50825120D03*
D18*
X251802500Y-48285120D03*
D17*
X250532500Y-50825120D03*
X260692500Y-50825120D03*
D16*
X248527500Y-48285120D03*
X261454500Y-45745120D03*
D18*
X243865000Y-83845280D03*
D19*
X241325000Y-88925280D03*
D18*
X237515000Y-86385280D03*
D17*
X236245000Y-88925280D03*
X246405000Y-88925280D03*
D16*
X234240000Y-86385280D03*
X247167000Y-83845280D03*
X266217000Y-26695040D03*
X253290000Y-29235040D03*
D17*
X265455000Y-31775040D03*
X255295000Y-31775040D03*
D18*
X256565000Y-29235040D03*
D19*
X260375000Y-31775040D03*
D18*
X262915000Y-26695040D03*
D16*
X299554500Y-64795200D03*
X286627500Y-67335200D03*
D17*
X298792500Y-69875200D03*
X288632500Y-69875200D03*
D18*
X289902500Y-67335200D03*
D19*
X293712500Y-69875200D03*
D18*
X296252500Y-64795200D03*
D16*
X273360750Y-83845280D03*
X260433750Y-86385280D03*
D17*
X272598750Y-88925280D03*
X262438750Y-88925280D03*
D18*
X263708750Y-86385280D03*
D19*
X267518750Y-88925280D03*
D18*
X270058750Y-83845280D03*
D16*
X259073250Y-102895360D03*
X246146250Y-105435360D03*
D17*
X258311250Y-107975360D03*
X248151250Y-107975360D03*
D18*
X249421250Y-105435360D03*
D19*
X253231250Y-107975360D03*
D18*
X255771250Y-102895360D03*
X281965000Y-26695040D03*
D19*
X279425000Y-31775040D03*
D18*
X275615000Y-29235040D03*
D17*
X274345000Y-31775040D03*
X284505000Y-31775040D03*
D16*
X272340000Y-29235040D03*
X285267000Y-26695040D03*
X304317000Y-26695040D03*
X291390000Y-29235040D03*
D17*
X303555000Y-31775040D03*
X293395000Y-31775040D03*
D18*
X294665000Y-29235040D03*
D19*
X298475000Y-31775040D03*
D18*
X301015000Y-26695040D03*
D16*
X304317000Y-45745120D03*
X291390000Y-48285120D03*
D17*
X303555000Y-50825120D03*
X293395000Y-50825120D03*
D18*
X294665000Y-48285120D03*
D19*
X298475000Y-50825120D03*
D18*
X301015000Y-45745120D03*
D16*
X290251750Y-94005280D03*
X303178750Y-91465280D03*
D17*
X291013750Y-88925280D03*
X301173750Y-88925280D03*
D18*
X299903750Y-91465280D03*
D19*
X296093750Y-88925280D03*
D18*
X293553750Y-94005280D03*
D17*
X191001250Y-107975360D03*
X201161250Y-107975360D03*
D26*
X199891250Y-110515360D03*
D19*
X196081250Y-107975360D03*
D26*
X193541250Y-113055360D03*
X219735000Y-113055360D03*
D19*
X222275000Y-107975360D03*
D26*
X226085000Y-110515360D03*
D17*
X227355000Y-107975360D03*
X217195000Y-107975360D03*
D28*
X219893750Y-107975360D03*
D29*
X223703750Y-110515360D03*
X217353750Y-113055360D03*
D18*
X281965000Y-45745120D03*
D19*
X279425000Y-50825120D03*
D18*
X275615000Y-48285120D03*
D17*
X274345000Y-50825120D03*
X284505000Y-50825120D03*
D16*
X272340000Y-48285120D03*
X285267000Y-45745120D03*
D26*
X248310000Y-55905120D03*
D19*
X250850000Y-50825120D03*
D26*
X254660000Y-53365120D03*
D17*
X255930000Y-50825120D03*
X245770000Y-50825120D03*
D26*
X248310000Y-74955200D03*
D19*
X250850000Y-69875200D03*
D26*
X254660000Y-72415200D03*
D17*
X255930000Y-69875200D03*
X245770000Y-69875200D03*
X243388750Y-88925280D03*
X253548750Y-88925280D03*
D26*
X252278750Y-91465280D03*
D19*
X248468750Y-88925280D03*
D26*
X245928750Y-94005280D03*
D17*
X264820000Y-50825120D03*
X274980000Y-50825120D03*
D26*
X273710000Y-53365120D03*
D19*
X269900000Y-50825120D03*
D26*
X267360000Y-55905120D03*
X272122500Y-94005280D03*
D19*
X274662500Y-88925280D03*
D26*
X278472500Y-91465280D03*
D17*
X279742500Y-88925280D03*
X269582500Y-88925280D03*
X288632500Y-50825120D03*
X298792500Y-50825120D03*
D26*
X297522500Y-53365120D03*
D19*
X293712500Y-50825120D03*
D26*
X291172500Y-55905120D03*
D17*
X298792500Y-88925280D03*
X288632500Y-88925280D03*
D26*
X289902500Y-86385280D03*
D19*
X293712500Y-88925280D03*
D26*
X296252500Y-83845280D03*
D18*
X265296250Y-64795200D03*
D19*
X262756250Y-69875200D03*
D18*
X258946250Y-67335200D03*
D17*
X257676250Y-69875200D03*
X267836250Y-69875200D03*
D16*
X255671250Y-67335200D03*
X268598250Y-64795200D03*
D27*
X274694250Y-76860200D03*
X250818250Y-76860200D03*
D19*
X274694250Y-61620200D03*
X250818250Y-61620200D03*
D17*
X255295000Y-107975360D03*
X265455000Y-107975360D03*
D26*
X264185000Y-110515360D03*
D19*
X260375000Y-107975360D03*
D26*
X257835000Y-113055360D03*
D17*
X241007500Y-107975360D03*
X251167500Y-107975360D03*
D26*
X249897500Y-110515360D03*
D19*
X246087500Y-107975360D03*
D26*
X243547500Y-113055360D03*
X238785000Y-113055360D03*
D19*
X241325000Y-107975360D03*
D26*
X245135000Y-110515360D03*
D17*
X246405000Y-107975360D03*
X236245000Y-107975360D03*
D26*
X255453750Y-113055360D03*
D19*
X257993750Y-107975360D03*
D26*
X261803750Y-110515360D03*
D17*
X263073750Y-107975360D03*
X252913750Y-107975360D03*
X229736250Y-107975360D03*
X219576250Y-107975360D03*
D26*
X220846250Y-105435360D03*
D19*
X224656250Y-107975360D03*
D26*
X227196250Y-102895360D03*
D28*
X222275000Y-107975360D03*
D29*
X218465000Y-105435360D03*
X224815000Y-102895360D03*
D19*
X269900000Y-61620200D03*
X293712500Y-61620200D03*
D27*
X269900000Y-76860200D03*
X293712500Y-76860200D03*
D17*
X276726250Y-69875200D03*
X286886250Y-69875200D03*
D26*
X285616250Y-72415200D03*
D19*
X281806250Y-69875200D03*
D26*
X279266250Y-74955200D03*
D30*
X77812000Y-66050000D03*
X77012000Y-66050000D03*
X76212000Y-66050000D03*
X75412000Y-66050000D03*
X74612000Y-66050000D03*
X73812000Y-66050000D03*
X73012000Y-66050000D03*
X72212000Y-66050000D03*
X71412000Y-66050000D03*
X70612000Y-66050000D03*
X69812000Y-66050000D03*
D31*
X68112000Y-64350000D03*
X68112000Y-63550000D03*
X68112000Y-62750000D03*
X68112000Y-61950000D03*
X68112000Y-61150000D03*
X68112000Y-60350000D03*
X68112000Y-59550000D03*
X68112000Y-58750000D03*
X68112000Y-57950000D03*
X68112000Y-57150000D03*
X68112000Y-56350000D03*
D30*
X69812000Y-54650000D03*
X70612000Y-54650000D03*
X71412000Y-54650000D03*
X72212000Y-54650000D03*
X73012000Y-54650000D03*
X73812000Y-54650000D03*
X74612000Y-54650000D03*
X75412000Y-54650000D03*
X76212000Y-54650000D03*
X77012000Y-54650000D03*
X77812000Y-54650000D03*
D31*
X79512000Y-56350000D03*
X79512000Y-57150000D03*
X79512000Y-57950000D03*
X79512000Y-58750000D03*
X79512000Y-59550000D03*
X79512000Y-60350000D03*
X79512000Y-61150000D03*
X79512000Y-61950000D03*
X79512000Y-62750000D03*
X79512000Y-63550000D03*
X79512000Y-64350000D03*
D19*
X277043750Y-40030040D03*
X300856250Y-40030040D03*
D27*
X277043750Y-24790040D03*
X300856250Y-24790040D03*
D17*
X283870000Y-31775040D03*
X294030000Y-31775040D03*
D26*
X292760000Y-34315040D03*
D19*
X288950000Y-31775040D03*
D26*
X286410000Y-36855040D03*
G36*
G01*
X72682000Y-72788824D02*
X72682000Y-71279176D01*
G75*
G02*
X73002176Y-70959000I320176J0D01*
G01*
X74186824Y-70959000D01*
G75*
G02*
X74507000Y-71279176I0J-320176D01*
G01*
X74507000Y-72788824D01*
G75*
G02*
X74186824Y-73109000I-320176J0D01*
G01*
X73002176Y-73109000D01*
G75*
G02*
X72682000Y-72788824I0J320176D01*
G01*
G37*
G36*
G01*
X75657000Y-72788824D02*
X75657000Y-71279176D01*
G75*
G02*
X75977176Y-70959000I320176J0D01*
G01*
X77161824Y-70959000D01*
G75*
G02*
X77482000Y-71279176I0J-320176D01*
G01*
X77482000Y-72788824D01*
G75*
G02*
X77161824Y-73109000I-320176J0D01*
G01*
X75977176Y-73109000D01*
G75*
G02*
X75657000Y-72788824I0J320176D01*
G01*
G37*
G36*
G01*
X82963176Y-65243000D02*
X84472824Y-65243000D01*
G75*
G02*
X84793000Y-65563176I0J-320176D01*
G01*
X84793000Y-66747824D01*
G75*
G02*
X84472824Y-67068000I-320176J0D01*
G01*
X82963176Y-67068000D01*
G75*
G02*
X82643000Y-66747824I0J320176D01*
G01*
X82643000Y-65563176D01*
G75*
G02*
X82963176Y-65243000I320176J0D01*
G01*
G37*
G36*
G01*
X82963176Y-62268000D02*
X84472824Y-62268000D01*
G75*
G02*
X84793000Y-62588176I0J-320176D01*
G01*
X84793000Y-63772824D01*
G75*
G02*
X84472824Y-64093000I-320176J0D01*
G01*
X82963176Y-64093000D01*
G75*
G02*
X82643000Y-63772824I0J320176D01*
G01*
X82643000Y-62588176D01*
G75*
G02*
X82963176Y-62268000I320176J0D01*
G01*
G37*
G36*
G01*
X66840000Y-51960824D02*
X66840000Y-50451176D01*
G75*
G02*
X67160176Y-50131000I320176J0D01*
G01*
X68344824Y-50131000D01*
G75*
G02*
X68665000Y-50451176I0J-320176D01*
G01*
X68665000Y-51960824D01*
G75*
G02*
X68344824Y-52281000I-320176J0D01*
G01*
X67160176Y-52281000D01*
G75*
G02*
X66840000Y-51960824I0J320176D01*
G01*
G37*
G36*
G01*
X69815000Y-51960824D02*
X69815000Y-50451176D01*
G75*
G02*
X70135176Y-50131000I320176J0D01*
G01*
X71319824Y-50131000D01*
G75*
G02*
X71640000Y-50451176I0J-320176D01*
G01*
X71640000Y-51960824D01*
G75*
G02*
X71319824Y-52281000I-320176J0D01*
G01*
X70135176Y-52281000D01*
G75*
G02*
X69815000Y-51960824I0J320176D01*
G01*
G37*
G36*
G01*
X66586000Y-70248824D02*
X66586000Y-68739176D01*
G75*
G02*
X66906176Y-68419000I320176J0D01*
G01*
X68090824Y-68419000D01*
G75*
G02*
X68411000Y-68739176I0J-320176D01*
G01*
X68411000Y-70248824D01*
G75*
G02*
X68090824Y-70569000I-320176J0D01*
G01*
X66906176Y-70569000D01*
G75*
G02*
X66586000Y-70248824I0J320176D01*
G01*
G37*
G36*
G01*
X69561000Y-70248824D02*
X69561000Y-68739176D01*
G75*
G02*
X69881176Y-68419000I320176J0D01*
G01*
X71065824Y-68419000D01*
G75*
G02*
X71386000Y-68739176I0J-320176D01*
G01*
X71386000Y-70248824D01*
G75*
G02*
X71065824Y-70569000I-320176J0D01*
G01*
X69881176Y-70569000D01*
G75*
G02*
X69561000Y-70248824I0J320176D01*
G01*
G37*
G36*
G01*
X61807000Y-65691176D02*
X61807000Y-67200824D01*
G75*
G02*
X61486824Y-67521000I-320176J0D01*
G01*
X60302176Y-67521000D01*
G75*
G02*
X59982000Y-67200824I0J320176D01*
G01*
X59982000Y-65691176D01*
G75*
G02*
X60302176Y-65371000I320176J0D01*
G01*
X61486824Y-65371000D01*
G75*
G02*
X61807000Y-65691176I0J-320176D01*
G01*
G37*
G36*
G01*
X64782000Y-65691176D02*
X64782000Y-67200824D01*
G75*
G02*
X64461824Y-67521000I-320176J0D01*
G01*
X63277176Y-67521000D01*
G75*
G02*
X62957000Y-67200824I0J320176D01*
G01*
X62957000Y-65691176D01*
G75*
G02*
X63277176Y-65371000I320176J0D01*
G01*
X64461824Y-65371000D01*
G75*
G02*
X64782000Y-65691176I0J-320176D01*
G01*
G37*
G36*
G01*
X47075000Y-40545176D02*
X47075000Y-42054824D01*
G75*
G02*
X46754824Y-42375000I-320176J0D01*
G01*
X45570176Y-42375000D01*
G75*
G02*
X45250000Y-42054824I0J320176D01*
G01*
X45250000Y-40545176D01*
G75*
G02*
X45570176Y-40225000I320176J0D01*
G01*
X46754824Y-40225000D01*
G75*
G02*
X47075000Y-40545176I0J-320176D01*
G01*
G37*
G36*
G01*
X50050000Y-40545176D02*
X50050000Y-42054824D01*
G75*
G02*
X49729824Y-42375000I-320176J0D01*
G01*
X48545176Y-42375000D01*
G75*
G02*
X48225000Y-42054824I0J320176D01*
G01*
X48225000Y-40545176D01*
G75*
G02*
X48545176Y-40225000I320176J0D01*
G01*
X49729824Y-40225000D01*
G75*
G02*
X50050000Y-40545176I0J-320176D01*
G01*
G37*
G36*
G01*
X50050000Y-44101176D02*
X50050000Y-45610824D01*
G75*
G02*
X49729824Y-45931000I-320176J0D01*
G01*
X48545176Y-45931000D01*
G75*
G02*
X48225000Y-45610824I0J320176D01*
G01*
X48225000Y-44101176D01*
G75*
G02*
X48545176Y-43781000I320176J0D01*
G01*
X49729824Y-43781000D01*
G75*
G02*
X50050000Y-44101176I0J-320176D01*
G01*
G37*
G36*
G01*
X47075000Y-44101176D02*
X47075000Y-45610824D01*
G75*
G02*
X46754824Y-45931000I-320176J0D01*
G01*
X45570176Y-45931000D01*
G75*
G02*
X45250000Y-45610824I0J320176D01*
G01*
X45250000Y-44101176D01*
G75*
G02*
X45570176Y-43781000I320176J0D01*
G01*
X46754824Y-43781000D01*
G75*
G02*
X47075000Y-44101176I0J-320176D01*
G01*
G37*
G36*
G01*
X51828000Y-63278176D02*
X51828000Y-64787824D01*
G75*
G02*
X51507824Y-65108000I-320176J0D01*
G01*
X50323176Y-65108000D01*
G75*
G02*
X50003000Y-64787824I0J320176D01*
G01*
X50003000Y-63278176D01*
G75*
G02*
X50323176Y-62958000I320176J0D01*
G01*
X51507824Y-62958000D01*
G75*
G02*
X51828000Y-63278176I0J-320176D01*
G01*
G37*
G36*
G01*
X48853000Y-63278176D02*
X48853000Y-64787824D01*
G75*
G02*
X48532824Y-65108000I-320176J0D01*
G01*
X47348176Y-65108000D01*
G75*
G02*
X47028000Y-64787824I0J320176D01*
G01*
X47028000Y-63278176D01*
G75*
G02*
X47348176Y-62958000I320176J0D01*
G01*
X48532824Y-62958000D01*
G75*
G02*
X48853000Y-63278176I0J-320176D01*
G01*
G37*
G36*
G01*
X84472824Y-54949000D02*
X82963176Y-54949000D01*
G75*
G02*
X82643000Y-54628824I0J320176D01*
G01*
X82643000Y-53444176D01*
G75*
G02*
X82963176Y-53124000I320176J0D01*
G01*
X84472824Y-53124000D01*
G75*
G02*
X84793000Y-53444176I0J-320176D01*
G01*
X84793000Y-54628824D01*
G75*
G02*
X84472824Y-54949000I-320176J0D01*
G01*
G37*
G36*
G01*
X84472824Y-57924000D02*
X82963176Y-57924000D01*
G75*
G02*
X82643000Y-57603824I0J320176D01*
G01*
X82643000Y-56419176D01*
G75*
G02*
X82963176Y-56099000I320176J0D01*
G01*
X84472824Y-56099000D01*
G75*
G02*
X84793000Y-56419176I0J-320176D01*
G01*
X84793000Y-57603824D01*
G75*
G02*
X84472824Y-57924000I-320176J0D01*
G01*
G37*
D32*
X39192000Y-28096000D03*
X39992000Y-28096000D03*
X40792000Y-28096000D03*
X41592000Y-28096000D03*
X42392000Y-28096000D03*
D33*
X37142000Y-25696000D03*
X44442000Y-25696000D03*
D34*
X38117000Y-22896000D03*
X43467000Y-22896000D03*
D29*
X277043750Y-107975360D03*
X298475000Y-107975360D03*
D35*
X89814000Y-42697000D03*
X92354000Y-42697000D03*
D36*
X94894000Y-42697000D03*
M02*
