G04 #@! TF.GenerationSoftware,KiCad,Pcbnew,(5.1.10-1-10_14)*
G04 #@! TF.CreationDate,2022-01-20T18:11:36+09:00*
G04 #@! TF.ProjectId,Jones,4a6f6e65-732e-46b6-9963-61645f706362,v.1.01 (042)*
G04 #@! TF.SameCoordinates,Original*
G04 #@! TF.FileFunction,Copper,L2,Bot*
G04 #@! TF.FilePolarity,Positive*
%FSLAX46Y46*%
G04 Gerber Fmt 4.6, Leading zero omitted, Abs format (unit mm)*
G04 Created by KiCad (PCBNEW (5.1.10-1-10_14)) date 2022-01-20 18:11:36*
%MOMM*%
%LPD*%
G01*
G04 APERTURE LIST*
G04 #@! TA.AperFunction,SMDPad,CuDef*
%ADD10R,2.550000X2.500000*%
G04 #@! TD*
G04 #@! TA.AperFunction,SMDPad,CuDef*
%ADD11R,0.900000X1.200000*%
G04 #@! TD*
G04 #@! TA.AperFunction,ComponentPad*
%ADD12C,1.000000*%
G04 #@! TD*
G04 #@! TA.AperFunction,ComponentPad*
%ADD13C,4.800000*%
G04 #@! TD*
G04 #@! TA.AperFunction,SMDPad,CuDef*
%ADD14R,2.100000X1.800000*%
G04 #@! TD*
G04 #@! TA.AperFunction,SMDPad,CuDef*
%ADD15R,1.200000X0.900000*%
G04 #@! TD*
G04 #@! TA.AperFunction,SMDPad,CuDef*
%ADD16R,1.000000X1.700000*%
G04 #@! TD*
G04 #@! TA.AperFunction,SMDPad,CuDef*
%ADD17R,2.500000X2.550000*%
G04 #@! TD*
G04 #@! TA.AperFunction,SMDPad,CuDef*
%ADD18R,1.200000X1.400000*%
G04 #@! TD*
G04 #@! TA.AperFunction,SMDPad,CuDef*
%ADD19R,1.000000X1.400000*%
G04 #@! TD*
G04 #@! TA.AperFunction,SMDPad,CuDef*
%ADD20R,1.000000X1.500000*%
G04 #@! TD*
G04 #@! TA.AperFunction,ComponentPad*
%ADD21C,2.250000*%
G04 #@! TD*
G04 #@! TA.AperFunction,ComponentPad*
%ADD22R,1.700000X1.700000*%
G04 #@! TD*
G04 #@! TA.AperFunction,ComponentPad*
%ADD23O,1.700000X1.700000*%
G04 #@! TD*
G04 #@! TA.AperFunction,ComponentPad*
%ADD24C,1.500000*%
G04 #@! TD*
G04 #@! TA.AperFunction,ComponentPad*
%ADD25R,2.000000X2.000000*%
G04 #@! TD*
G04 #@! TA.AperFunction,ComponentPad*
%ADD26C,2.000000*%
G04 #@! TD*
G04 #@! TA.AperFunction,ComponentPad*
%ADD27R,2.000000X3.200000*%
G04 #@! TD*
G04 #@! TA.AperFunction,ComponentPad*
%ADD28C,0.700000*%
G04 #@! TD*
G04 #@! TA.AperFunction,ComponentPad*
%ADD29O,0.900000X2.400000*%
G04 #@! TD*
G04 #@! TA.AperFunction,ComponentPad*
%ADD30O,0.900000X1.700000*%
G04 #@! TD*
G04 #@! TA.AperFunction,SMDPad,CuDef*
%ADD31R,1.824000X1.524000*%
G04 #@! TD*
G04 #@! TA.AperFunction,SMDPad,CuDef*
%ADD32R,0.250000X0.700000*%
G04 #@! TD*
G04 #@! TA.AperFunction,SMDPad,CuDef*
%ADD33R,0.700000X0.250000*%
G04 #@! TD*
G04 #@! TA.AperFunction,SMDPad,CuDef*
%ADD34R,1.287500X1.287500*%
G04 #@! TD*
G04 #@! TA.AperFunction,ViaPad*
%ADD35C,0.600000*%
G04 #@! TD*
G04 #@! TA.AperFunction,Conductor*
%ADD36C,0.381000*%
G04 #@! TD*
G04 #@! TA.AperFunction,Conductor*
%ADD37C,0.254000*%
G04 #@! TD*
G04 #@! TA.AperFunction,Conductor*
%ADD38C,0.100000*%
G04 #@! TD*
G04 APERTURE END LIST*
D10*
X291391160Y-86385320D03*
X304318160Y-83845320D03*
D11*
X57050000Y-96500000D03*
X60350000Y-96500000D03*
G04 #@! TA.AperFunction,SMDPad,CuDef*
G36*
G01*
X87545000Y-51850000D02*
X87845000Y-51850000D01*
G75*
G02*
X87995000Y-52000000I0J-150000D01*
G01*
X87995000Y-53450000D01*
G75*
G02*
X87845000Y-53600000I-150000J0D01*
G01*
X87545000Y-53600000D01*
G75*
G02*
X87395000Y-53450000I0J150000D01*
G01*
X87395000Y-52000000D01*
G75*
G02*
X87545000Y-51850000I150000J0D01*
G01*
G37*
G04 #@! TD.AperFunction*
G04 #@! TA.AperFunction,SMDPad,CuDef*
G36*
G01*
X88815000Y-51850000D02*
X89115000Y-51850000D01*
G75*
G02*
X89265000Y-52000000I0J-150000D01*
G01*
X89265000Y-53450000D01*
G75*
G02*
X89115000Y-53600000I-150000J0D01*
G01*
X88815000Y-53600000D01*
G75*
G02*
X88665000Y-53450000I0J150000D01*
G01*
X88665000Y-52000000D01*
G75*
G02*
X88815000Y-51850000I150000J0D01*
G01*
G37*
G04 #@! TD.AperFunction*
G04 #@! TA.AperFunction,SMDPad,CuDef*
G36*
G01*
X90085000Y-51850000D02*
X90385000Y-51850000D01*
G75*
G02*
X90535000Y-52000000I0J-150000D01*
G01*
X90535000Y-53450000D01*
G75*
G02*
X90385000Y-53600000I-150000J0D01*
G01*
X90085000Y-53600000D01*
G75*
G02*
X89935000Y-53450000I0J150000D01*
G01*
X89935000Y-52000000D01*
G75*
G02*
X90085000Y-51850000I150000J0D01*
G01*
G37*
G04 #@! TD.AperFunction*
G04 #@! TA.AperFunction,SMDPad,CuDef*
G36*
G01*
X91355000Y-51850000D02*
X91655000Y-51850000D01*
G75*
G02*
X91805000Y-52000000I0J-150000D01*
G01*
X91805000Y-53450000D01*
G75*
G02*
X91655000Y-53600000I-150000J0D01*
G01*
X91355000Y-53600000D01*
G75*
G02*
X91205000Y-53450000I0J150000D01*
G01*
X91205000Y-52000000D01*
G75*
G02*
X91355000Y-51850000I150000J0D01*
G01*
G37*
G04 #@! TD.AperFunction*
G04 #@! TA.AperFunction,SMDPad,CuDef*
G36*
G01*
X91355000Y-57000000D02*
X91655000Y-57000000D01*
G75*
G02*
X91805000Y-57150000I0J-150000D01*
G01*
X91805000Y-58600000D01*
G75*
G02*
X91655000Y-58750000I-150000J0D01*
G01*
X91355000Y-58750000D01*
G75*
G02*
X91205000Y-58600000I0J150000D01*
G01*
X91205000Y-57150000D01*
G75*
G02*
X91355000Y-57000000I150000J0D01*
G01*
G37*
G04 #@! TD.AperFunction*
G04 #@! TA.AperFunction,SMDPad,CuDef*
G36*
G01*
X90085000Y-57000000D02*
X90385000Y-57000000D01*
G75*
G02*
X90535000Y-57150000I0J-150000D01*
G01*
X90535000Y-58600000D01*
G75*
G02*
X90385000Y-58750000I-150000J0D01*
G01*
X90085000Y-58750000D01*
G75*
G02*
X89935000Y-58600000I0J150000D01*
G01*
X89935000Y-57150000D01*
G75*
G02*
X90085000Y-57000000I150000J0D01*
G01*
G37*
G04 #@! TD.AperFunction*
G04 #@! TA.AperFunction,SMDPad,CuDef*
G36*
G01*
X88815000Y-57000000D02*
X89115000Y-57000000D01*
G75*
G02*
X89265000Y-57150000I0J-150000D01*
G01*
X89265000Y-58600000D01*
G75*
G02*
X89115000Y-58750000I-150000J0D01*
G01*
X88815000Y-58750000D01*
G75*
G02*
X88665000Y-58600000I0J150000D01*
G01*
X88665000Y-57150000D01*
G75*
G02*
X88815000Y-57000000I150000J0D01*
G01*
G37*
G04 #@! TD.AperFunction*
G04 #@! TA.AperFunction,SMDPad,CuDef*
G36*
G01*
X87545000Y-57000000D02*
X87845000Y-57000000D01*
G75*
G02*
X87995000Y-57150000I0J-150000D01*
G01*
X87995000Y-58600000D01*
G75*
G02*
X87845000Y-58750000I-150000J0D01*
G01*
X87545000Y-58750000D01*
G75*
G02*
X87395000Y-58600000I0J150000D01*
G01*
X87395000Y-57150000D01*
G75*
G02*
X87545000Y-57000000I150000J0D01*
G01*
G37*
G04 #@! TD.AperFunction*
D12*
X49050000Y-51800000D03*
X46450000Y-51750000D03*
X49050000Y-49100000D03*
X46450000Y-49100000D03*
X47800000Y-52350000D03*
X49700000Y-50450000D03*
X45900000Y-50450000D03*
X47800000Y-48550000D03*
D13*
X47800000Y-50450000D03*
D10*
X81840000Y-86385280D03*
X94767000Y-83845280D03*
X76960000Y-91465280D03*
X64033000Y-94005280D03*
D14*
X78812889Y-75971501D03*
X75912889Y-75971501D03*
X75912889Y-78271501D03*
X78812889Y-78271501D03*
D15*
X270500000Y-54850000D03*
X270500000Y-58150000D03*
G04 #@! TA.AperFunction,SMDPad,CuDef*
G36*
G01*
X81890041Y-78850400D02*
X80990039Y-78850400D01*
G75*
G02*
X80740040Y-78600401I0J249999D01*
G01*
X80740040Y-77950399D01*
G75*
G02*
X80990039Y-77700400I249999J0D01*
G01*
X81890041Y-77700400D01*
G75*
G02*
X82140040Y-77950399I0J-249999D01*
G01*
X82140040Y-78600401D01*
G75*
G02*
X81890041Y-78850400I-249999J0D01*
G01*
G37*
G04 #@! TD.AperFunction*
G04 #@! TA.AperFunction,SMDPad,CuDef*
G36*
G01*
X81890041Y-76800400D02*
X80990039Y-76800400D01*
G75*
G02*
X80740040Y-76550401I0J249999D01*
G01*
X80740040Y-75900399D01*
G75*
G02*
X80990039Y-75650400I249999J0D01*
G01*
X81890041Y-75650400D01*
G75*
G02*
X82140040Y-75900399I0J-249999D01*
G01*
X82140040Y-76550401D01*
G75*
G02*
X81890041Y-76800400I-249999J0D01*
G01*
G37*
G04 #@! TD.AperFunction*
D16*
X46550040Y-67920400D03*
X46550040Y-74220400D03*
X50350040Y-67920400D03*
X50350040Y-74220400D03*
G04 #@! TA.AperFunction,SMDPad,CuDef*
G36*
G01*
X74825000Y-74050001D02*
X74825000Y-73149999D01*
G75*
G02*
X75074999Y-72900000I249999J0D01*
G01*
X75725001Y-72900000D01*
G75*
G02*
X75975000Y-73149999I0J-249999D01*
G01*
X75975000Y-74050001D01*
G75*
G02*
X75725001Y-74300000I-249999J0D01*
G01*
X75074999Y-74300000D01*
G75*
G02*
X74825000Y-74050001I0J249999D01*
G01*
G37*
G04 #@! TD.AperFunction*
G04 #@! TA.AperFunction,SMDPad,CuDef*
G36*
G01*
X76875000Y-74050001D02*
X76875000Y-73149999D01*
G75*
G02*
X77124999Y-72900000I249999J0D01*
G01*
X77775001Y-72900000D01*
G75*
G02*
X78025000Y-73149999I0J-249999D01*
G01*
X78025000Y-74050001D01*
G75*
G02*
X77775001Y-74300000I-249999J0D01*
G01*
X77124999Y-74300000D01*
G75*
G02*
X76875000Y-74050001I0J249999D01*
G01*
G37*
G04 #@! TD.AperFunction*
G04 #@! TA.AperFunction,SMDPad,CuDef*
G36*
G01*
X70950000Y-70249999D02*
X70950000Y-71150001D01*
G75*
G02*
X70700001Y-71400000I-249999J0D01*
G01*
X70049999Y-71400000D01*
G75*
G02*
X69800000Y-71150001I0J249999D01*
G01*
X69800000Y-70249999D01*
G75*
G02*
X70049999Y-70000000I249999J0D01*
G01*
X70700001Y-70000000D01*
G75*
G02*
X70950000Y-70249999I0J-249999D01*
G01*
G37*
G04 #@! TD.AperFunction*
G04 #@! TA.AperFunction,SMDPad,CuDef*
G36*
G01*
X73000000Y-70249999D02*
X73000000Y-71150001D01*
G75*
G02*
X72750001Y-71400000I-249999J0D01*
G01*
X72099999Y-71400000D01*
G75*
G02*
X71850000Y-71150001I0J249999D01*
G01*
X71850000Y-70249999D01*
G75*
G02*
X72099999Y-70000000I249999J0D01*
G01*
X72750001Y-70000000D01*
G75*
G02*
X73000000Y-70249999I0J-249999D01*
G01*
G37*
G04 #@! TD.AperFunction*
D17*
X222433790Y-100890400D03*
X224973790Y-113817400D03*
D18*
X50195000Y-28575040D03*
D19*
X48475000Y-28575040D03*
X48475000Y-26375040D03*
X50375000Y-26375040D03*
G04 #@! TA.AperFunction,SMDPad,CuDef*
G36*
G01*
X32899999Y-23250000D02*
X33800001Y-23250000D01*
G75*
G02*
X34050000Y-23499999I0J-249999D01*
G01*
X34050000Y-24150001D01*
G75*
G02*
X33800001Y-24400000I-249999J0D01*
G01*
X32899999Y-24400000D01*
G75*
G02*
X32650000Y-24150001I0J249999D01*
G01*
X32650000Y-23499999D01*
G75*
G02*
X32899999Y-23250000I249999J0D01*
G01*
G37*
G04 #@! TD.AperFunction*
G04 #@! TA.AperFunction,SMDPad,CuDef*
G36*
G01*
X32899999Y-25300000D02*
X33800001Y-25300000D01*
G75*
G02*
X34050000Y-25549999I0J-249999D01*
G01*
X34050000Y-26200001D01*
G75*
G02*
X33800001Y-26450000I-249999J0D01*
G01*
X32899999Y-26450000D01*
G75*
G02*
X32650000Y-26200001I0J249999D01*
G01*
X32650000Y-25549999D01*
G75*
G02*
X32899999Y-25300000I249999J0D01*
G01*
G37*
G04 #@! TD.AperFunction*
G04 #@! TA.AperFunction,SMDPad,CuDef*
G36*
G01*
X58187500Y-28325000D02*
X58187500Y-29575000D01*
G75*
G02*
X57937500Y-29825000I-250000J0D01*
G01*
X57012500Y-29825000D01*
G75*
G02*
X56762500Y-29575000I0J250000D01*
G01*
X56762500Y-28325000D01*
G75*
G02*
X57012500Y-28075000I250000J0D01*
G01*
X57937500Y-28075000D01*
G75*
G02*
X58187500Y-28325000I0J-250000D01*
G01*
G37*
G04 #@! TD.AperFunction*
G04 #@! TA.AperFunction,SMDPad,CuDef*
G36*
G01*
X55212500Y-28325000D02*
X55212500Y-29575000D01*
G75*
G02*
X54962500Y-29825000I-250000J0D01*
G01*
X54037500Y-29825000D01*
G75*
G02*
X53787500Y-29575000I0J250000D01*
G01*
X53787500Y-28325000D01*
G75*
G02*
X54037500Y-28075000I250000J0D01*
G01*
X54962500Y-28075000D01*
G75*
G02*
X55212500Y-28325000I0J-250000D01*
G01*
G37*
G04 #@! TD.AperFunction*
G04 #@! TA.AperFunction,SMDPad,CuDef*
G36*
G01*
X75299999Y-83950000D02*
X76200001Y-83950000D01*
G75*
G02*
X76450000Y-84199999I0J-249999D01*
G01*
X76450000Y-84850001D01*
G75*
G02*
X76200001Y-85100000I-249999J0D01*
G01*
X75299999Y-85100000D01*
G75*
G02*
X75050000Y-84850001I0J249999D01*
G01*
X75050000Y-84199999D01*
G75*
G02*
X75299999Y-83950000I249999J0D01*
G01*
G37*
G04 #@! TD.AperFunction*
G04 #@! TA.AperFunction,SMDPad,CuDef*
G36*
G01*
X75299999Y-86000000D02*
X76200001Y-86000000D01*
G75*
G02*
X76450000Y-86249999I0J-249999D01*
G01*
X76450000Y-86900001D01*
G75*
G02*
X76200001Y-87150000I-249999J0D01*
G01*
X75299999Y-87150000D01*
G75*
G02*
X75050000Y-86900001I0J249999D01*
G01*
X75050000Y-86249999D01*
G75*
G02*
X75299999Y-86000000I249999J0D01*
G01*
G37*
G04 #@! TD.AperFunction*
G04 #@! TA.AperFunction,SMDPad,CuDef*
G36*
G01*
X57350000Y-83550001D02*
X57350000Y-82649999D01*
G75*
G02*
X57599999Y-82400000I249999J0D01*
G01*
X58250001Y-82400000D01*
G75*
G02*
X58500000Y-82649999I0J-249999D01*
G01*
X58500000Y-83550001D01*
G75*
G02*
X58250001Y-83800000I-249999J0D01*
G01*
X57599999Y-83800000D01*
G75*
G02*
X57350000Y-83550001I0J249999D01*
G01*
G37*
G04 #@! TD.AperFunction*
G04 #@! TA.AperFunction,SMDPad,CuDef*
G36*
G01*
X55300000Y-83550001D02*
X55300000Y-82649999D01*
G75*
G02*
X55549999Y-82400000I249999J0D01*
G01*
X56200001Y-82400000D01*
G75*
G02*
X56450000Y-82649999I0J-249999D01*
G01*
X56450000Y-83550001D01*
G75*
G02*
X56200001Y-83800000I-249999J0D01*
G01*
X55549999Y-83800000D01*
G75*
G02*
X55300000Y-83550001I0J249999D01*
G01*
G37*
G04 #@! TD.AperFunction*
G04 #@! TA.AperFunction,SMDPad,CuDef*
G36*
G01*
X69025000Y-67349999D02*
X69025000Y-68250001D01*
G75*
G02*
X68775001Y-68500000I-249999J0D01*
G01*
X68124999Y-68500000D01*
G75*
G02*
X67875000Y-68250001I0J249999D01*
G01*
X67875000Y-67349999D01*
G75*
G02*
X68124999Y-67100000I249999J0D01*
G01*
X68775001Y-67100000D01*
G75*
G02*
X69025000Y-67349999I0J-249999D01*
G01*
G37*
G04 #@! TD.AperFunction*
G04 #@! TA.AperFunction,SMDPad,CuDef*
G36*
G01*
X66975000Y-67349999D02*
X66975000Y-68250001D01*
G75*
G02*
X66725001Y-68500000I-249999J0D01*
G01*
X66074999Y-68500000D01*
G75*
G02*
X65825000Y-68250001I0J249999D01*
G01*
X65825000Y-67349999D01*
G75*
G02*
X66074999Y-67100000I249999J0D01*
G01*
X66725001Y-67100000D01*
G75*
G02*
X66975000Y-67349999I0J-249999D01*
G01*
G37*
G04 #@! TD.AperFunction*
D20*
X31000000Y-59700000D03*
X29700000Y-59700000D03*
X28400000Y-59700000D03*
G04 #@! TA.AperFunction,SMDPad,CuDef*
G36*
G01*
X42100001Y-31700000D02*
X41199999Y-31700000D01*
G75*
G02*
X40950000Y-31450001I0J249999D01*
G01*
X40950000Y-30799999D01*
G75*
G02*
X41199999Y-30550000I249999J0D01*
G01*
X42100001Y-30550000D01*
G75*
G02*
X42350000Y-30799999I0J-249999D01*
G01*
X42350000Y-31450001D01*
G75*
G02*
X42100001Y-31700000I-249999J0D01*
G01*
G37*
G04 #@! TD.AperFunction*
G04 #@! TA.AperFunction,SMDPad,CuDef*
G36*
G01*
X42100001Y-33750000D02*
X41199999Y-33750000D01*
G75*
G02*
X40950000Y-33500001I0J249999D01*
G01*
X40950000Y-32849999D01*
G75*
G02*
X41199999Y-32600000I249999J0D01*
G01*
X42100001Y-32600000D01*
G75*
G02*
X42350000Y-32849999I0J-249999D01*
G01*
X42350000Y-33500001D01*
G75*
G02*
X42100001Y-33750000I-249999J0D01*
G01*
G37*
G04 #@! TD.AperFunction*
G04 #@! TA.AperFunction,SMDPad,CuDef*
G36*
G01*
X44150001Y-33700000D02*
X43249999Y-33700000D01*
G75*
G02*
X43000000Y-33450001I0J249999D01*
G01*
X43000000Y-32799999D01*
G75*
G02*
X43249999Y-32550000I249999J0D01*
G01*
X44150001Y-32550000D01*
G75*
G02*
X44400000Y-32799999I0J-249999D01*
G01*
X44400000Y-33450001D01*
G75*
G02*
X44150001Y-33700000I-249999J0D01*
G01*
G37*
G04 #@! TD.AperFunction*
G04 #@! TA.AperFunction,SMDPad,CuDef*
G36*
G01*
X44150001Y-31650000D02*
X43249999Y-31650000D01*
G75*
G02*
X43000000Y-31400001I0J249999D01*
G01*
X43000000Y-30749999D01*
G75*
G02*
X43249999Y-30500000I249999J0D01*
G01*
X44150001Y-30500000D01*
G75*
G02*
X44400000Y-30749999I0J-249999D01*
G01*
X44400000Y-31400001D01*
G75*
G02*
X44150001Y-31650000I-249999J0D01*
G01*
G37*
G04 #@! TD.AperFunction*
G04 #@! TA.AperFunction,SMDPad,CuDef*
G36*
G01*
X54149999Y-74350000D02*
X55050001Y-74350000D01*
G75*
G02*
X55300000Y-74599999I0J-249999D01*
G01*
X55300000Y-75250001D01*
G75*
G02*
X55050001Y-75500000I-249999J0D01*
G01*
X54149999Y-75500000D01*
G75*
G02*
X53900000Y-75250001I0J249999D01*
G01*
X53900000Y-74599999D01*
G75*
G02*
X54149999Y-74350000I249999J0D01*
G01*
G37*
G04 #@! TD.AperFunction*
G04 #@! TA.AperFunction,SMDPad,CuDef*
G36*
G01*
X54149999Y-72300000D02*
X55050001Y-72300000D01*
G75*
G02*
X55300000Y-72549999I0J-249999D01*
G01*
X55300000Y-73200001D01*
G75*
G02*
X55050001Y-73450000I-249999J0D01*
G01*
X54149999Y-73450000D01*
G75*
G02*
X53900000Y-73200001I0J249999D01*
G01*
X53900000Y-72549999D01*
G75*
G02*
X54149999Y-72300000I249999J0D01*
G01*
G37*
G04 #@! TD.AperFunction*
G04 #@! TA.AperFunction,SMDPad,CuDef*
G36*
G01*
X55300000Y-85650001D02*
X55300000Y-84749999D01*
G75*
G02*
X55549999Y-84500000I249999J0D01*
G01*
X56200001Y-84500000D01*
G75*
G02*
X56450000Y-84749999I0J-249999D01*
G01*
X56450000Y-85650001D01*
G75*
G02*
X56200001Y-85900000I-249999J0D01*
G01*
X55549999Y-85900000D01*
G75*
G02*
X55300000Y-85650001I0J249999D01*
G01*
G37*
G04 #@! TD.AperFunction*
G04 #@! TA.AperFunction,SMDPad,CuDef*
G36*
G01*
X57350000Y-85650001D02*
X57350000Y-84749999D01*
G75*
G02*
X57599999Y-84500000I249999J0D01*
G01*
X58250001Y-84500000D01*
G75*
G02*
X58500000Y-84749999I0J-249999D01*
G01*
X58500000Y-85650001D01*
G75*
G02*
X58250001Y-85900000I-249999J0D01*
G01*
X57599999Y-85900000D01*
G75*
G02*
X57350000Y-85650001I0J249999D01*
G01*
G37*
G04 #@! TD.AperFunction*
G04 #@! TA.AperFunction,SMDPad,CuDef*
G36*
G01*
X49950000Y-24250041D02*
X49950000Y-23350039D01*
G75*
G02*
X50199999Y-23100040I249999J0D01*
G01*
X50850001Y-23100040D01*
G75*
G02*
X51100000Y-23350039I0J-249999D01*
G01*
X51100000Y-24250041D01*
G75*
G02*
X50850001Y-24500040I-249999J0D01*
G01*
X50199999Y-24500040D01*
G75*
G02*
X49950000Y-24250041I0J249999D01*
G01*
G37*
G04 #@! TD.AperFunction*
G04 #@! TA.AperFunction,SMDPad,CuDef*
G36*
G01*
X47900000Y-24250041D02*
X47900000Y-23350039D01*
G75*
G02*
X48149999Y-23100040I249999J0D01*
G01*
X48800001Y-23100040D01*
G75*
G02*
X49050000Y-23350039I0J-249999D01*
G01*
X49050000Y-24250041D01*
G75*
G02*
X48800001Y-24500040I-249999J0D01*
G01*
X48149999Y-24500040D01*
G75*
G02*
X47900000Y-24250041I0J249999D01*
G01*
G37*
G04 #@! TD.AperFunction*
G04 #@! TA.AperFunction,SMDPad,CuDef*
G36*
G01*
X62200000Y-88149999D02*
X62200000Y-89050001D01*
G75*
G02*
X61950001Y-89300000I-249999J0D01*
G01*
X61299999Y-89300000D01*
G75*
G02*
X61050000Y-89050001I0J249999D01*
G01*
X61050000Y-88149999D01*
G75*
G02*
X61299999Y-87900000I249999J0D01*
G01*
X61950001Y-87900000D01*
G75*
G02*
X62200000Y-88149999I0J-249999D01*
G01*
G37*
G04 #@! TD.AperFunction*
G04 #@! TA.AperFunction,SMDPad,CuDef*
G36*
G01*
X60150000Y-88149999D02*
X60150000Y-89050001D01*
G75*
G02*
X59900001Y-89300000I-249999J0D01*
G01*
X59249999Y-89300000D01*
G75*
G02*
X59000000Y-89050001I0J249999D01*
G01*
X59000000Y-88149999D01*
G75*
G02*
X59249999Y-87900000I249999J0D01*
G01*
X59900001Y-87900000D01*
G75*
G02*
X60150000Y-88149999I0J-249999D01*
G01*
G37*
G04 #@! TD.AperFunction*
G04 #@! TA.AperFunction,SMDPad,CuDef*
G36*
G01*
X57250001Y-75500000D02*
X56349999Y-75500000D01*
G75*
G02*
X56100000Y-75250001I0J249999D01*
G01*
X56100000Y-74599999D01*
G75*
G02*
X56349999Y-74350000I249999J0D01*
G01*
X57250001Y-74350000D01*
G75*
G02*
X57500000Y-74599999I0J-249999D01*
G01*
X57500000Y-75250001D01*
G75*
G02*
X57250001Y-75500000I-249999J0D01*
G01*
G37*
G04 #@! TD.AperFunction*
G04 #@! TA.AperFunction,SMDPad,CuDef*
G36*
G01*
X57250001Y-73450000D02*
X56349999Y-73450000D01*
G75*
G02*
X56100000Y-73200001I0J249999D01*
G01*
X56100000Y-72549999D01*
G75*
G02*
X56349999Y-72300000I249999J0D01*
G01*
X57250001Y-72300000D01*
G75*
G02*
X57500000Y-72549999I0J-249999D01*
G01*
X57500000Y-73200001D01*
G75*
G02*
X57250001Y-73450000I-249999J0D01*
G01*
G37*
G04 #@! TD.AperFunction*
D21*
X151790560Y-67335240D03*
X158140560Y-64795240D03*
D20*
X223550000Y-75200520D03*
X224850000Y-75200520D03*
X226150000Y-75200520D03*
D10*
X253289840Y-29235040D03*
X266216840Y-26695040D03*
X75717000Y-26695040D03*
X62790000Y-29235040D03*
X81840000Y-29235040D03*
X94767000Y-26695040D03*
X113817000Y-26695040D03*
X100890000Y-29235040D03*
X132867000Y-26695040D03*
X119940000Y-29235040D03*
X138990000Y-29235040D03*
X151917000Y-26695040D03*
X196140600Y-29235080D03*
X209067600Y-26695080D03*
X215190680Y-29235040D03*
X228117680Y-26695040D03*
X234240760Y-29235040D03*
X247167760Y-26695040D03*
X272339840Y-29235040D03*
X285266840Y-26695040D03*
X57910000Y-34315040D03*
X44983000Y-36855040D03*
X180492880Y-64795240D03*
X167565880Y-67335240D03*
X234240760Y-86385320D03*
X247167760Y-83845320D03*
X291389840Y-29235040D03*
X304316840Y-26695040D03*
X266217840Y-83845320D03*
X253290840Y-86385320D03*
X167565040Y-48285400D03*
X180492040Y-45745400D03*
X177090040Y-29235400D03*
X190017040Y-26695400D03*
X158040040Y-29235400D03*
X170967040Y-26695400D03*
X66192000Y-64795200D03*
X53265000Y-67335200D03*
X151917000Y-83845280D03*
X138990000Y-86385280D03*
X113817000Y-83845280D03*
X100890000Y-86385280D03*
X104292000Y-64795200D03*
X91365000Y-67335200D03*
X272341080Y-105435360D03*
X285268080Y-102895360D03*
X91365000Y-48285120D03*
X104292000Y-45745120D03*
X25933000Y-36855040D03*
X38860000Y-34315040D03*
X110415000Y-67335200D03*
X123342000Y-64795200D03*
X142392000Y-64795200D03*
X129465000Y-67335200D03*
X149758560Y-74955240D03*
X162685560Y-72415240D03*
X237642720Y-45745160D03*
X224715720Y-48285160D03*
X218592640Y-64795200D03*
X205665640Y-67335200D03*
X237642720Y-64795240D03*
X224715720Y-67335240D03*
X245008800Y-74955240D03*
X257935800Y-72415240D03*
X25933040Y-94005400D03*
X38860040Y-91465400D03*
X57910040Y-91465400D03*
X44983040Y-94005400D03*
X228117680Y-83845280D03*
X215190680Y-86385280D03*
X209067600Y-83845280D03*
X196140600Y-86385280D03*
X245008800Y-55905160D03*
X257935800Y-53365160D03*
X275742880Y-45745160D03*
X262815880Y-48285160D03*
X53265000Y-48285120D03*
X66192000Y-45745120D03*
X110415000Y-48285120D03*
X123342000Y-45745120D03*
X291391160Y-105435400D03*
X304318160Y-102895400D03*
X72315000Y-67335200D03*
X85242000Y-64795200D03*
X129465000Y-48285120D03*
X142392000Y-45745120D03*
X218592640Y-45745160D03*
X205665640Y-48285160D03*
X272341080Y-86385320D03*
X285268080Y-83845320D03*
X132867000Y-83845280D03*
X119940000Y-86385280D03*
X72315000Y-48285120D03*
X85242000Y-45745120D03*
X64033040Y-113055400D03*
X76960040Y-110515400D03*
X161442560Y-45745120D03*
X148515560Y-48285120D03*
X299555480Y-45745160D03*
X286628480Y-48285160D03*
X24690040Y-105435400D03*
X37617040Y-102895400D03*
X88984060Y-105435400D03*
X101911060Y-102895400D03*
X286628480Y-67335240D03*
X299555480Y-64795240D03*
X65171290Y-105435400D03*
X78098290Y-102895400D03*
X201923290Y-102895400D03*
X188996290Y-105435400D03*
X36596340Y-86385320D03*
X49523340Y-83845320D03*
X48385080Y-91465320D03*
X35458080Y-94005320D03*
X119940440Y-105435400D03*
X132867440Y-102895400D03*
X240023290Y-102895400D03*
X227096290Y-105435400D03*
X196140040Y-105435400D03*
X209067040Y-102895400D03*
X42379500Y-45745120D03*
X29452500Y-48285120D03*
X131729180Y-110515400D03*
X118802180Y-113055400D03*
D22*
X233550000Y-75200000D03*
D23*
X236090000Y-75200000D03*
X238630000Y-75200000D03*
D17*
X276885040Y-76960400D03*
X274345040Y-64033400D03*
D10*
X275742040Y-64795400D03*
X262815040Y-67335400D03*
D17*
X274345040Y-44983400D03*
X276885040Y-57910400D03*
D10*
X292633040Y-55905400D03*
X305560040Y-53365400D03*
X190017040Y-83845400D03*
X177090040Y-86385400D03*
X298416290Y-53365400D03*
X285489290Y-55905400D03*
X170967040Y-83845400D03*
X158040040Y-86385400D03*
X148515040Y-105435400D03*
X161442040Y-102895400D03*
X167565040Y-105435400D03*
X180492040Y-102895400D03*
X31833820Y-67335240D03*
X44760820Y-64795240D03*
X43622540Y-72415400D03*
X30695540Y-74955400D03*
X285489290Y-74955400D03*
X298416290Y-72415400D03*
X56667040Y-102895400D03*
X43740040Y-105435400D03*
X87845540Y-113055400D03*
X100772540Y-110515400D03*
X267460040Y-110515400D03*
X254533040Y-113055400D03*
X305560040Y-72415400D03*
X292633040Y-74955400D03*
X243647540Y-110515400D03*
X230720540Y-113055400D03*
X186615040Y-48285400D03*
X199542040Y-45745400D03*
D15*
X272350000Y-35850000D03*
X272350000Y-39150000D03*
X267600000Y-54850000D03*
X267600000Y-58150000D03*
X205650000Y-51650040D03*
X205650000Y-54950040D03*
X177100000Y-37550000D03*
X177100000Y-34250000D03*
X167575000Y-56650000D03*
X167575000Y-53350000D03*
X119900000Y-35100040D03*
X119900000Y-38400040D03*
X90500000Y-95700040D03*
X90500000Y-92400040D03*
X85000000Y-91600040D03*
X85000000Y-94900040D03*
X37400000Y-114050000D03*
X37400000Y-110750000D03*
X53800000Y-110750000D03*
X53800000Y-114050000D03*
X191250000Y-38400040D03*
X191250000Y-35100040D03*
X267400000Y-34250040D03*
X267400000Y-37550040D03*
X229300000Y-38400040D03*
X229300000Y-35100040D03*
X210575000Y-37550040D03*
X210575000Y-34250040D03*
X134400000Y-37550040D03*
X134400000Y-34250040D03*
X96300000Y-37550040D03*
X96300000Y-34250040D03*
X76900000Y-38400040D03*
X76900000Y-35100040D03*
X67600000Y-35100040D03*
X67600000Y-38400040D03*
X172050040Y-90750400D03*
X172050040Y-94050400D03*
X169450000Y-95700040D03*
X169450000Y-92400040D03*
X286100000Y-36250520D03*
X286100000Y-39550520D03*
X228550000Y-55850040D03*
X228550000Y-52550040D03*
X215900000Y-53350040D03*
X215900000Y-56650040D03*
X139700000Y-53350040D03*
X139700000Y-56650040D03*
X101500000Y-56650040D03*
X101500000Y-53350040D03*
X82700000Y-55850040D03*
X82700000Y-52550040D03*
X39700000Y-52550040D03*
X39700000Y-55850040D03*
X197000000Y-52550040D03*
X197000000Y-55850040D03*
X199500000Y-58250040D03*
X199500000Y-54950040D03*
X191050040Y-94050400D03*
X191050040Y-90750400D03*
X224656250Y-58250040D03*
X224656250Y-54950040D03*
X218500000Y-57450040D03*
X218500000Y-54150040D03*
X142300000Y-57450040D03*
X142300000Y-54150040D03*
X104300000Y-54150040D03*
X104300000Y-57450040D03*
X85300000Y-58250040D03*
X85300000Y-54950040D03*
X42350000Y-58250040D03*
X42350000Y-54950040D03*
X180500040Y-95700040D03*
X180500040Y-92400040D03*
X276350000Y-94850040D03*
X276350000Y-91550040D03*
X234200000Y-90750000D03*
X234200000Y-94050000D03*
X229200000Y-90750000D03*
X229200000Y-94050000D03*
X240250000Y-54950000D03*
X240250000Y-58250000D03*
X209450000Y-91600040D03*
X209450000Y-94900040D03*
X130250000Y-91600040D03*
X130250000Y-94900040D03*
X95650000Y-94900040D03*
X95650000Y-91600040D03*
X82200000Y-92050000D03*
X82200000Y-95350000D03*
X42800000Y-109050000D03*
X42800000Y-112350000D03*
X303600000Y-92400040D03*
X303600000Y-95700040D03*
X279850000Y-93250040D03*
X279850000Y-96550040D03*
X240025000Y-96550040D03*
X240025000Y-93250040D03*
X132850000Y-96500040D03*
X132850000Y-93200040D03*
X101900040Y-96500040D03*
X101900040Y-93200040D03*
X40100000Y-114850000D03*
X40100000Y-111550000D03*
X172000000Y-35100040D03*
X172000000Y-38400040D03*
X301700000Y-36750000D03*
X301700000Y-33450000D03*
X263500000Y-38400000D03*
X263500000Y-35100000D03*
X248650000Y-37550040D03*
X248650000Y-34250040D03*
X153450000Y-37550040D03*
X153450000Y-34250040D03*
X115000000Y-38400040D03*
X115000000Y-35100040D03*
X65000000Y-37550040D03*
X65000000Y-34250040D03*
X63300000Y-56650040D03*
X63300000Y-53350040D03*
X177900000Y-52550040D03*
X177900000Y-55850040D03*
X281300000Y-38750520D03*
X281300000Y-35450520D03*
X234450000Y-53350000D03*
X234450000Y-56650000D03*
X158900000Y-55850040D03*
X158900000Y-52550040D03*
X120700000Y-55850040D03*
X120700000Y-52550040D03*
X66100000Y-54150040D03*
X66100000Y-57450040D03*
X180500000Y-58250040D03*
X180500000Y-54950040D03*
X237450000Y-57450000D03*
X237450000Y-54150000D03*
X161700000Y-58250040D03*
X161700000Y-54950040D03*
X123300000Y-54950040D03*
X123300000Y-58250040D03*
X58200000Y-109650000D03*
X58200000Y-106350000D03*
X295250000Y-94050000D03*
X295250000Y-90750000D03*
X263830040Y-92400040D03*
X263830040Y-95700040D03*
X267300000Y-94050000D03*
X267300000Y-90750000D03*
X247850000Y-91550040D03*
X247850000Y-94850040D03*
X153000000Y-94050400D03*
X153000000Y-90750400D03*
X206850000Y-96500040D03*
X206850000Y-93200040D03*
X111050000Y-94100040D03*
X111050000Y-90800040D03*
X87800000Y-92400040D03*
X87800000Y-95700040D03*
D10*
X186615040Y-67335400D03*
X199542040Y-64795400D03*
X234240040Y-105435400D03*
X247167040Y-102895400D03*
D15*
X225450000Y-95700040D03*
X225450000Y-92400040D03*
D10*
X250908790Y-105435400D03*
X263835790Y-102895400D03*
D22*
X94250040Y-76750400D03*
D23*
X94250040Y-74210400D03*
D22*
X102100000Y-74200000D03*
D23*
X102100000Y-76740000D03*
X104640000Y-74200000D03*
X104640000Y-76740000D03*
X107180000Y-74200000D03*
X107180000Y-76740000D03*
D24*
X147450000Y-114960520D03*
X251750000Y-114960520D03*
X183750000Y-115000520D03*
X204150000Y-115000520D03*
X83350000Y-115000520D03*
X169900000Y-114960520D03*
X159050000Y-114960520D03*
X249150000Y-114960520D03*
X80350000Y-115000520D03*
X77350000Y-115000520D03*
X143850000Y-98460520D03*
X143850000Y-100960520D03*
X143850000Y-103450520D03*
X143850000Y-105950520D03*
X143850000Y-108450520D03*
X106850000Y-98450520D03*
X106850000Y-100960520D03*
X106850000Y-103450520D03*
X106850000Y-105950520D03*
X106850000Y-108460520D03*
D10*
X158040040Y-105435400D03*
X170967040Y-102895400D03*
D17*
X279266250Y-76960040D03*
X276726250Y-64033040D03*
D12*
X64850000Y-91050000D03*
X60000000Y-86575000D03*
X72800000Y-84050040D03*
X57950000Y-76850040D03*
X57950000Y-80450040D03*
X55950000Y-80450040D03*
X63200000Y-86600000D03*
X66300000Y-97075000D03*
D10*
X281865000Y-29235040D03*
X294792000Y-26695040D03*
D25*
X300993580Y-100465550D03*
D26*
X298493580Y-100465550D03*
X295993580Y-100465550D03*
D27*
X304093580Y-107965550D03*
X292893580Y-107965550D03*
D26*
X300993580Y-114965550D03*
X295993580Y-114965550D03*
X29271347Y-114952828D03*
X34271347Y-114952828D03*
D27*
X26171347Y-107952828D03*
X37371347Y-107952828D03*
D26*
X29271347Y-100452828D03*
X31771347Y-100452828D03*
D25*
X34271347Y-100452828D03*
D20*
X62650000Y-91000000D03*
X61350000Y-91000000D03*
G04 #@! TA.AperFunction,SMDPad,CuDef*
G36*
G01*
X89499999Y-75800000D02*
X90400001Y-75800000D01*
G75*
G02*
X90650000Y-76049999I0J-249999D01*
G01*
X90650000Y-76750001D01*
G75*
G02*
X90400001Y-77000000I-249999J0D01*
G01*
X89499999Y-77000000D01*
G75*
G02*
X89250000Y-76750001I0J249999D01*
G01*
X89250000Y-76049999D01*
G75*
G02*
X89499999Y-75800000I249999J0D01*
G01*
G37*
G04 #@! TD.AperFunction*
G04 #@! TA.AperFunction,SMDPad,CuDef*
G36*
G01*
X89499999Y-73800000D02*
X90400001Y-73800000D01*
G75*
G02*
X90650000Y-74049999I0J-249999D01*
G01*
X90650000Y-74750001D01*
G75*
G02*
X90400001Y-75000000I-249999J0D01*
G01*
X89499999Y-75000000D01*
G75*
G02*
X89250000Y-74750001I0J249999D01*
G01*
X89250000Y-74049999D01*
G75*
G02*
X89499999Y-73800000I249999J0D01*
G01*
G37*
G04 #@! TD.AperFunction*
G04 #@! TA.AperFunction,SMDPad,CuDef*
G36*
G01*
X86399999Y-73800000D02*
X87300001Y-73800000D01*
G75*
G02*
X87550000Y-74049999I0J-249999D01*
G01*
X87550000Y-74750001D01*
G75*
G02*
X87300001Y-75000000I-249999J0D01*
G01*
X86399999Y-75000000D01*
G75*
G02*
X86150000Y-74750001I0J249999D01*
G01*
X86150000Y-74049999D01*
G75*
G02*
X86399999Y-73800000I249999J0D01*
G01*
G37*
G04 #@! TD.AperFunction*
G04 #@! TA.AperFunction,SMDPad,CuDef*
G36*
G01*
X86399999Y-75800000D02*
X87300001Y-75800000D01*
G75*
G02*
X87550000Y-76049999I0J-249999D01*
G01*
X87550000Y-76750001D01*
G75*
G02*
X87300001Y-77000000I-249999J0D01*
G01*
X86399999Y-77000000D01*
G75*
G02*
X86150000Y-76750001I0J249999D01*
G01*
X86150000Y-76049999D01*
G75*
G02*
X86399999Y-75800000I249999J0D01*
G01*
G37*
G04 #@! TD.AperFunction*
D28*
X37800000Y-28190000D03*
X38650000Y-28190000D03*
X39500000Y-28190000D03*
X40350000Y-28190000D03*
X41200000Y-28190000D03*
X42050000Y-28190000D03*
X42900000Y-28190000D03*
X43750000Y-28190000D03*
X38650000Y-26840000D03*
X40350000Y-26840000D03*
X39500000Y-26840000D03*
X37800000Y-26840000D03*
X42050000Y-26840000D03*
X42900000Y-26840000D03*
X43750000Y-26840000D03*
X41200000Y-26840000D03*
D29*
X36450000Y-27210000D03*
X45100000Y-27210000D03*
D30*
X36450000Y-23830000D03*
X45100000Y-23830000D03*
D31*
X287600000Y-90780520D03*
X287600000Y-93320520D03*
X287600000Y-95860520D03*
D17*
X248151250Y-44983520D03*
X250691250Y-57910520D03*
X258152540Y-43740400D03*
X260692540Y-56667400D03*
X250691250Y-76960520D03*
X248151250Y-64033520D03*
X260692540Y-75717400D03*
X258152540Y-62790400D03*
D32*
X64500000Y-75910000D03*
X65000000Y-75910000D03*
X65500000Y-75910000D03*
X66000000Y-75910000D03*
X66500000Y-75910000D03*
X67000000Y-75910000D03*
X67500000Y-75910000D03*
X68000000Y-75910000D03*
X68500000Y-75910000D03*
X69000000Y-75910000D03*
X69500000Y-75910000D03*
D33*
X70400000Y-76810000D03*
X70400000Y-77310000D03*
X70400000Y-77810000D03*
X70400000Y-78310000D03*
X70400000Y-78810000D03*
X70400000Y-79310000D03*
X70400000Y-79810000D03*
X70400000Y-80310000D03*
X70400000Y-80810000D03*
X70400000Y-81310000D03*
X70400000Y-81810000D03*
D32*
X69500000Y-82710000D03*
X69000000Y-82710000D03*
X68500000Y-82710000D03*
X68000000Y-82710000D03*
X67500000Y-82710000D03*
X67000000Y-82710000D03*
X66500000Y-82710000D03*
X66000000Y-82710000D03*
X65500000Y-82710000D03*
X65000000Y-82710000D03*
X64500000Y-82710000D03*
D33*
X63600000Y-81810000D03*
X63600000Y-81310000D03*
X63600000Y-80810000D03*
X63600000Y-80310000D03*
X63600000Y-79810000D03*
X63600000Y-79310000D03*
X63600000Y-78810000D03*
X63600000Y-78310000D03*
X63600000Y-77810000D03*
X63600000Y-77310000D03*
X63600000Y-76810000D03*
D34*
X68931250Y-81241250D03*
X67643750Y-81241250D03*
X66356250Y-81241250D03*
X65068750Y-81241250D03*
X68931250Y-79953750D03*
X67643750Y-79953750D03*
X66356250Y-79953750D03*
X65068750Y-79953750D03*
X68931250Y-78666250D03*
X67643750Y-78666250D03*
X66356250Y-78666250D03*
X65068750Y-78666250D03*
X68931250Y-77378750D03*
X67643750Y-77378750D03*
X66356250Y-77378750D03*
X65068750Y-77378750D03*
D35*
X48000000Y-30000000D03*
X305250000Y-50400522D03*
X305250000Y-55300520D03*
X104300000Y-60269790D03*
X104300000Y-62980210D03*
X85222996Y-62980210D03*
X85300000Y-60269790D03*
X42350000Y-61850000D03*
X42350000Y-60224998D03*
X130222555Y-112422555D03*
X133999999Y-105000003D03*
X70550000Y-69250000D03*
X59100000Y-28950000D03*
X53100000Y-72850000D03*
X30950000Y-62900000D03*
X25149990Y-63325040D03*
X70420711Y-61620701D03*
X87700000Y-61620701D03*
X102975000Y-61625000D03*
X87700000Y-60250000D03*
X292100000Y-90660520D03*
X241200000Y-60999994D03*
X267100000Y-61100000D03*
X274400000Y-61000000D03*
X300800000Y-62100000D03*
X62300000Y-83100000D03*
X67849622Y-74140000D03*
X69700002Y-84200000D03*
X61150020Y-74469790D03*
X63650000Y-74469790D03*
X71979998Y-75740000D03*
X28819790Y-65800000D03*
X88970000Y-50700000D03*
X55875000Y-86524998D03*
X55625000Y-96100000D03*
X88960000Y-60240000D03*
X85649997Y-84250043D03*
X88960000Y-80940042D03*
X104349982Y-80400520D03*
X289800000Y-90660520D03*
X236849996Y-80400520D03*
X30224740Y-85725260D03*
X294050000Y-83900520D03*
X289450000Y-81100520D03*
X62205000Y-81605000D03*
X62265000Y-77135000D03*
X70200000Y-83400000D03*
X52874996Y-28950036D03*
X43199994Y-36600000D03*
X63209084Y-71627208D03*
X42750000Y-34300000D03*
X63970000Y-71370000D03*
X24300000Y-64549994D03*
X26900009Y-64550000D03*
X33350000Y-27400000D03*
X49774665Y-24818649D03*
X79300000Y-97800000D03*
X71599998Y-94700000D03*
X109160480Y-94900040D03*
X73900000Y-96965888D03*
X78000000Y-97169790D03*
X76198852Y-97159896D03*
X72900000Y-94600000D03*
X100360480Y-93200040D03*
X79600000Y-96500000D03*
X73850000Y-94600002D03*
X75747114Y-96495756D03*
X145410480Y-94100040D03*
X146039520Y-92400040D03*
X63750000Y-37550000D03*
X110550000Y-37550040D03*
X68539379Y-73250000D03*
X24650000Y-103350000D03*
X39100000Y-96150000D03*
X30282866Y-68922183D03*
X55600000Y-46050000D03*
X34880210Y-88080734D03*
X33799740Y-43950260D03*
X38850000Y-36200520D03*
X57900000Y-36200520D03*
X284830210Y-69030252D03*
X291390000Y-31100040D03*
X291390000Y-33560520D03*
X301050000Y-48000899D03*
X288287741Y-83373651D03*
X288287729Y-105088249D03*
X299000000Y-55500520D03*
X109550000Y-60950000D03*
X25950000Y-67500000D03*
X109550000Y-79106810D03*
X25400000Y-61499990D03*
X292850000Y-59900520D03*
X302700000Y-59900000D03*
X280950000Y-78550000D03*
X306050000Y-64550000D03*
X302800000Y-64550000D03*
X288943920Y-82894440D03*
X290650000Y-83700528D03*
X30784102Y-84157670D03*
X31924742Y-84925262D03*
X29550000Y-61450040D03*
X30600002Y-76900040D03*
X60000000Y-90200000D03*
X61400000Y-96500000D03*
X255400000Y-84250000D03*
X253300000Y-31350040D03*
X252950000Y-103450040D03*
X263500000Y-58150002D03*
X262800002Y-46050002D03*
X262800000Y-70400000D03*
X205650000Y-65100040D03*
X196150000Y-32100040D03*
X205699998Y-50450006D03*
X222400000Y-98900000D03*
X211950000Y-83700000D03*
X177099996Y-32600000D03*
X174650000Y-86450002D03*
X184600000Y-67350002D03*
X184614600Y-48285400D03*
X169900000Y-110350520D03*
X156050000Y-86374994D03*
X165550000Y-67350000D03*
X165549994Y-48300000D03*
X158050000Y-32200520D03*
X156049998Y-103800520D03*
X119950000Y-88550000D03*
X162700000Y-69950000D03*
X148500000Y-50450000D03*
X119949998Y-33750040D03*
X119950000Y-103150000D03*
X127400000Y-48300000D03*
X127399998Y-67350000D03*
X98750000Y-31300000D03*
X92050000Y-50250036D03*
X97600000Y-86400000D03*
X92050000Y-65475000D03*
X92300005Y-95700005D03*
X93231989Y-91481989D03*
X72301648Y-46349937D03*
X56700000Y-111600000D03*
X62852680Y-31721624D03*
X63350000Y-108400524D03*
X80399988Y-91200028D03*
X80399988Y-110550508D03*
X78400480Y-65250040D03*
X66100000Y-62850000D03*
X66100000Y-60200000D03*
X305124980Y-74225020D03*
X291400000Y-89960520D03*
X291400000Y-80650520D03*
X234250000Y-31400000D03*
X234224998Y-84350000D03*
X241950001Y-72300521D03*
X241950004Y-41200516D03*
X234250000Y-98625000D03*
X241950001Y-61694230D03*
X66400000Y-38400000D03*
X104975040Y-38400040D03*
X145500000Y-38400038D03*
X70430210Y-72550000D03*
X68309050Y-56590990D03*
X105950000Y-56650000D03*
X240699996Y-40250000D03*
X236850000Y-55850000D03*
X69169790Y-74100000D03*
X91419790Y-60244786D03*
X92050000Y-76510520D03*
X90250000Y-60250006D03*
X91350000Y-75350000D03*
X55300002Y-76250000D03*
X107200000Y-62350000D03*
X72024998Y-62350000D03*
X71146858Y-75620438D03*
X69100000Y-55850040D03*
X107100000Y-55870233D03*
X239600000Y-39200000D03*
X144600000Y-55860520D03*
X235950000Y-55850002D03*
X69799790Y-73181681D03*
X71200000Y-54150040D03*
X111214799Y-54195721D03*
X71250006Y-73650000D03*
X41050000Y-54950000D03*
X145950000Y-54960520D03*
X60680643Y-73019357D03*
D36*
X48000000Y-30000000D02*
X48475000Y-29525000D01*
X48475000Y-29525000D02*
X48475000Y-28575040D01*
X40351552Y-29001552D02*
X40351552Y-28187233D01*
X41600000Y-30250000D02*
X40351552Y-29001552D01*
X41600000Y-31100000D02*
X41600000Y-30250000D01*
D37*
X191250040Y-27928400D02*
X191250040Y-35000000D01*
X190017040Y-26695400D02*
X191250040Y-27928400D01*
X292797480Y-24700520D02*
X294792000Y-26695040D01*
X287260000Y-24700520D02*
X292797480Y-24700520D01*
X285266840Y-26693680D02*
X287260000Y-24700520D01*
X285266840Y-26695040D02*
X285266840Y-26693680D01*
X278560000Y-26800520D02*
X280660000Y-24700520D01*
X271654998Y-26800520D02*
X278560000Y-26800520D01*
X267400000Y-31055518D02*
X271654998Y-26800520D01*
X280660000Y-24700520D02*
X283272320Y-24700520D01*
X267400000Y-34250040D02*
X267400000Y-31055518D01*
X283272320Y-24700520D02*
X285266840Y-26695040D01*
X229300000Y-27877360D02*
X229300000Y-35200000D01*
X228117680Y-26695040D02*
X229300000Y-27877360D01*
X134400000Y-28228040D02*
X134400000Y-34300000D01*
X132867000Y-26695040D02*
X134400000Y-28228040D01*
X96300000Y-28228040D02*
X96300000Y-34200000D01*
X94767000Y-26695040D02*
X96300000Y-28228040D01*
X76900000Y-27878040D02*
X76900000Y-35100000D01*
X75717000Y-26695040D02*
X76900000Y-27878040D01*
X67600000Y-35100040D02*
X61846553Y-35100040D01*
X61846553Y-35100040D02*
X57688862Y-39257731D01*
X57688862Y-39257731D02*
X28335691Y-39257731D01*
X28335691Y-39257731D02*
X25933000Y-36855040D01*
X172050040Y-84928400D02*
X172050040Y-90750400D01*
X170967040Y-83845400D02*
X172050040Y-84928400D01*
X293410840Y-39600520D02*
X299555480Y-45745160D01*
X286050000Y-39600520D02*
X293410840Y-39600520D01*
X305250000Y-50400520D02*
X305250000Y-50400522D01*
X300594640Y-45745160D02*
X305250000Y-50400520D01*
X299555480Y-45745160D02*
X300594640Y-45745160D01*
X287484410Y-57900520D02*
X285489290Y-55905400D01*
X290637920Y-57900520D02*
X287484410Y-57900520D01*
X292633040Y-55905400D02*
X290637920Y-57900520D01*
X302650000Y-57900520D02*
X305250000Y-55300520D01*
X294628160Y-57900520D02*
X302650000Y-57900520D01*
X292633040Y-55905400D02*
X294628160Y-57900520D01*
X228550000Y-52450040D02*
X228450000Y-52550040D01*
X228550000Y-50600520D02*
X228550000Y-52450040D01*
X231050000Y-48100520D02*
X228550000Y-50600520D01*
X235287360Y-48100520D02*
X231050000Y-48100520D01*
X237642720Y-45745160D02*
X235287360Y-48100520D01*
X215900000Y-48437800D02*
X218592640Y-45745160D01*
X215900000Y-53350040D02*
X215900000Y-48437800D01*
X139700000Y-48437120D02*
X139700000Y-53350040D01*
X142392000Y-45745120D02*
X139700000Y-48437120D01*
X101500000Y-48537120D02*
X104292000Y-45745120D01*
X101500000Y-53350040D02*
X101500000Y-48537120D01*
X82700000Y-52550040D02*
X82700000Y-48287120D01*
X82700000Y-48287120D02*
X85242000Y-45745120D01*
X39700000Y-48424620D02*
X39700000Y-52550040D01*
X42379500Y-45745120D02*
X39700000Y-48424620D01*
X199500000Y-64753360D02*
X199542040Y-64795400D01*
X199500000Y-58250040D02*
X199500000Y-64753360D01*
X297557891Y-66792829D02*
X294439382Y-66792829D01*
X284200000Y-73666110D02*
X285489290Y-74955400D01*
X284200000Y-66644358D02*
X284200000Y-73666110D01*
X294439382Y-66792829D02*
X292439382Y-64792829D01*
X299555480Y-64795240D02*
X297557891Y-66792829D01*
X292439382Y-64792829D02*
X286051529Y-64792829D01*
X284809679Y-66034679D02*
X284200000Y-66644358D01*
X285040046Y-65790046D02*
X285047179Y-65797179D01*
X285047179Y-65797179D02*
X284809679Y-66034679D01*
X284815321Y-66034679D02*
X284809679Y-66034679D01*
X285800000Y-64550000D02*
X285800000Y-65050000D01*
X285800000Y-65050000D02*
X284815321Y-66034679D01*
X286051529Y-64798471D02*
X285800000Y-65050000D01*
X286051529Y-64792829D02*
X286051529Y-64798471D01*
X286042829Y-64792829D02*
X285800000Y-64550000D01*
X286051529Y-64792829D02*
X286042829Y-64792829D01*
X283350000Y-62100000D02*
X285800000Y-64550000D01*
X274400000Y-62100000D02*
X283350000Y-62100000D01*
X270500000Y-58200000D02*
X274400000Y-62100000D01*
X290477640Y-72800000D02*
X287644690Y-72800000D01*
X287644690Y-72800000D02*
X285489290Y-74955400D01*
X292633040Y-74955400D02*
X290477640Y-72800000D01*
X237642720Y-62492720D02*
X237642720Y-64795240D01*
X233400040Y-58250040D02*
X237642720Y-62492720D01*
X224650000Y-58250040D02*
X233400040Y-58250040D01*
X218500000Y-64702560D02*
X218592640Y-64795200D01*
X218500000Y-57450040D02*
X218500000Y-64702560D01*
X142300000Y-64703200D02*
X142392000Y-64795200D01*
X142300000Y-57450040D02*
X142300000Y-64703200D01*
X104300000Y-57450040D02*
X104300000Y-60269790D01*
X104292000Y-62988210D02*
X104300000Y-62980210D01*
X104292000Y-64795200D02*
X104292000Y-62988210D01*
X85242000Y-64795200D02*
X85242000Y-62999214D01*
X85242000Y-62999214D02*
X85222996Y-62980210D01*
X85300000Y-58250040D02*
X85300000Y-60269790D01*
X33650000Y-61850000D02*
X42350000Y-61850000D01*
X28049871Y-70449911D02*
X28049871Y-65667431D01*
X30695540Y-73095580D02*
X28049871Y-70449911D01*
X28717302Y-65000000D02*
X30500000Y-65000000D01*
X30500000Y-65000000D02*
X33650000Y-61850000D01*
X28049871Y-65667431D02*
X28717302Y-65000000D01*
X30695540Y-74955400D02*
X30695540Y-73095580D01*
X42350000Y-58250040D02*
X42350000Y-60224998D01*
X43174740Y-61850000D02*
X42350000Y-61850000D01*
X44760820Y-63436080D02*
X43174740Y-61850000D01*
X44760820Y-64795240D02*
X44760820Y-63436080D01*
X285268080Y-83931920D02*
X285268080Y-83845320D01*
X282600000Y-86600000D02*
X285268080Y-83931920D01*
X280649960Y-91550040D02*
X282600000Y-89600000D01*
X282600000Y-89600000D02*
X282600000Y-86600000D01*
X276350000Y-91550040D02*
X280649960Y-91550040D01*
X229200000Y-84927600D02*
X229200000Y-90750000D01*
X228117680Y-83845280D02*
X229200000Y-84927600D01*
X209510801Y-84288481D02*
X209067600Y-83845280D01*
X209510801Y-91539239D02*
X209510801Y-84288481D01*
X209450000Y-91600040D02*
X209510801Y-91539239D01*
X130250000Y-86462280D02*
X132867000Y-83845280D01*
X130250000Y-91600040D02*
X130250000Y-86462280D01*
X95650000Y-84728280D02*
X94767000Y-83845280D01*
X95650000Y-91600040D02*
X95650000Y-84728280D01*
X81346000Y-92050000D02*
X82200000Y-92050000D01*
X77546000Y-95850000D02*
X81346000Y-92050000D01*
X66100000Y-95850000D02*
X77546000Y-95850000D01*
X64255280Y-94005280D02*
X66100000Y-95850000D01*
X64033000Y-94005280D02*
X64255280Y-94005280D01*
X25933040Y-94005400D02*
X27908230Y-92030210D01*
X27908230Y-92030210D02*
X33169830Y-92030210D01*
X35405320Y-94005320D02*
X33430210Y-92030210D01*
X35458080Y-94005320D02*
X35405320Y-94005320D01*
X33450000Y-92010420D02*
X33430210Y-92030210D01*
X33450000Y-91750040D02*
X33169830Y-92030210D01*
X33450000Y-91700040D02*
X33450000Y-92010420D01*
X33430210Y-92030210D02*
X33169830Y-92030210D01*
X33450000Y-91700040D02*
X33450000Y-91750040D01*
X33450000Y-90821131D02*
X33450000Y-91700040D01*
X34250000Y-90021131D02*
X33450000Y-90821131D01*
X49523340Y-83845320D02*
X47688540Y-82010520D01*
X34250000Y-85612298D02*
X34250000Y-90021131D01*
X47688540Y-82010520D02*
X37851778Y-82010520D01*
X37851778Y-82010520D02*
X34250000Y-85612298D01*
X40650000Y-107900520D02*
X41799480Y-109050000D01*
X41799480Y-109050000D02*
X42800000Y-109050000D01*
X40650000Y-99197240D02*
X40650000Y-107900520D01*
X35458080Y-94005320D02*
X40650000Y-99197240D01*
X285268080Y-100718600D02*
X285268080Y-102895360D01*
X281110000Y-96560520D02*
X285268080Y-100718600D01*
X279900000Y-96560520D02*
X281110000Y-96560520D01*
X240025000Y-102893690D02*
X240023290Y-102895400D01*
X240025000Y-96550040D02*
X240025000Y-102893690D01*
X245212400Y-104850040D02*
X247167040Y-102895400D01*
X241977930Y-104850040D02*
X245212400Y-104850040D01*
X240023290Y-102895400D02*
X241977930Y-104850040D01*
X249000000Y-104728360D02*
X247167040Y-102895400D01*
X249000000Y-113500000D02*
X249000000Y-104728360D01*
X247499480Y-115000520D02*
X249000000Y-113500000D01*
X232665660Y-115000520D02*
X247499480Y-115000520D01*
X230720540Y-113055400D02*
X232665660Y-115000520D01*
X132850000Y-102877960D02*
X132867440Y-102895400D01*
X132850000Y-96500040D02*
X132850000Y-102877960D01*
X120807580Y-111050000D02*
X125252888Y-111050000D01*
X125252888Y-111050000D02*
X127260618Y-113057731D01*
X118802180Y-113055400D02*
X120807580Y-111050000D01*
X127260618Y-113057731D02*
X129587379Y-113057731D01*
X129587379Y-113057731D02*
X130222555Y-112422555D01*
X132867440Y-102895400D02*
X132867440Y-103867444D01*
X132867440Y-103867444D02*
X133999999Y-105000003D01*
X101900040Y-102884380D02*
X101911060Y-102895400D01*
X101900040Y-96500040D02*
X101900040Y-102884380D01*
X102377741Y-103362081D02*
X101911060Y-102895400D01*
X101357302Y-113050000D02*
X102377741Y-112029561D01*
X94350000Y-113050000D02*
X101357302Y-113050000D01*
X92350040Y-111050040D02*
X94350000Y-113050000D01*
X102377741Y-112029561D02*
X102377741Y-103362081D01*
X89850900Y-111050040D02*
X92350040Y-111050040D01*
X87845540Y-113055400D02*
X89850900Y-111050040D01*
X172000040Y-35099960D02*
X172000000Y-35100000D01*
X172000040Y-27728400D02*
X172000040Y-35099960D01*
X170967040Y-26695400D02*
X172000040Y-27728400D01*
X301700000Y-29311880D02*
X301700000Y-33450000D01*
X304316840Y-26695040D02*
X301700000Y-29311880D01*
X263500000Y-29411880D02*
X263500000Y-35100000D01*
X266216840Y-26695040D02*
X263500000Y-29411880D01*
D36*
X56800000Y-72875000D02*
X54600000Y-72875000D01*
X70375000Y-69425000D02*
X70550000Y-69250000D01*
X70375000Y-70700000D02*
X70375000Y-69425000D01*
X59100000Y-28950000D02*
X57475000Y-28950000D01*
X53125000Y-72875000D02*
X53100000Y-72850000D01*
X54600000Y-72875000D02*
X53125000Y-72875000D01*
X30950000Y-62900000D02*
X30524960Y-63325040D01*
X30524960Y-63325040D02*
X25149990Y-63325040D01*
X70420711Y-61620701D02*
X87700000Y-61620701D01*
X102970701Y-61620701D02*
X102975000Y-61625000D01*
X87700000Y-61620701D02*
X102970701Y-61620701D01*
X97911606Y-72551606D02*
X93048394Y-72551606D01*
X91200000Y-74400000D02*
X89950000Y-74400000D01*
X93048394Y-72551606D02*
X91200000Y-74400000D01*
X102100000Y-76740000D02*
X97911606Y-72551606D01*
X89950000Y-74400000D02*
X86850000Y-74400000D01*
X87695000Y-57875000D02*
X87695000Y-60245000D01*
X87695000Y-60245000D02*
X87700000Y-60250000D01*
X292100000Y-91360520D02*
X292100000Y-90660520D01*
X287600000Y-95860520D02*
X292100000Y-91360520D01*
X223650000Y-79800520D02*
X228250520Y-75200000D01*
X105160520Y-79800520D02*
X223650000Y-79800520D01*
X102100000Y-76740000D02*
X105160520Y-79800520D01*
X228250520Y-75200000D02*
X233550000Y-75200000D01*
X259596322Y-61000520D02*
X241200526Y-61000520D01*
X241200526Y-61000520D02*
X241200000Y-60999994D01*
X259596322Y-61000520D02*
X259596842Y-61000000D01*
X267000000Y-61000000D02*
X267100000Y-61100000D01*
X259596842Y-61000000D02*
X267000000Y-61000000D01*
X299700000Y-61000000D02*
X300800000Y-62100000D01*
X294664747Y-60972339D02*
X294692408Y-61000000D01*
X294692408Y-61000000D02*
X299700000Y-61000000D01*
X292823753Y-60972339D02*
X294664747Y-60972339D01*
X292796092Y-61000000D02*
X292823753Y-60972339D01*
X274400000Y-61000000D02*
X292796092Y-61000000D01*
D37*
X71222790Y-77767210D02*
X70442790Y-77767210D01*
X71420000Y-77570000D02*
X71222790Y-77767210D01*
D36*
X63579290Y-81830710D02*
X62310000Y-83100000D01*
X57925000Y-83100000D02*
X62300000Y-83100000D01*
X62310000Y-83100000D02*
X62300000Y-83100000D01*
X75700000Y-86550000D02*
X72050002Y-86550000D01*
X72050002Y-86550000D02*
X70000001Y-84499999D01*
X70000001Y-84499999D02*
X69700002Y-84200000D01*
D37*
X69000000Y-82710000D02*
X69000000Y-83499998D01*
X69000000Y-83499998D02*
X69700002Y-84200000D01*
D36*
X63469520Y-76789290D02*
X61450019Y-74769789D01*
X59555230Y-72875000D02*
X61150020Y-74469790D01*
D37*
X64955201Y-75865201D02*
X64955201Y-75417796D01*
X65000000Y-75910000D02*
X64955201Y-75865201D01*
X64007195Y-74469790D02*
X63650000Y-74469790D01*
X64955201Y-75417796D02*
X64007195Y-74469790D01*
D36*
X61450019Y-74769789D02*
X61150020Y-74469790D01*
X64007196Y-74469790D02*
X63650000Y-74469790D01*
X63579290Y-76789290D02*
X63469520Y-76789290D01*
X56800000Y-72875000D02*
X59555230Y-72875000D01*
X64703705Y-75166299D02*
X64007196Y-74469790D01*
D37*
X67500000Y-75182989D02*
X67671156Y-75011833D01*
X67671156Y-74642472D02*
X67849622Y-74464006D01*
X67500000Y-75910000D02*
X67500000Y-75182989D01*
X67849622Y-74464006D02*
X67849622Y-74140000D01*
X67671156Y-75011833D02*
X67671156Y-74642472D01*
D36*
X71950000Y-76950000D02*
X71950000Y-75769998D01*
X71950000Y-75769998D02*
X71979998Y-75740000D01*
X71200000Y-77700000D02*
X71950000Y-76950000D01*
X70375000Y-70700000D02*
X71950000Y-72275000D01*
X71950000Y-72275000D02*
X71950000Y-75710002D01*
X71950000Y-75710002D02*
X71979998Y-75740000D01*
X79066788Y-76225400D02*
X78812889Y-75971501D01*
X81440040Y-76225400D02*
X79066788Y-76225400D01*
X76271551Y-78271501D02*
X75912889Y-78271501D01*
X78571551Y-75971501D02*
X76271551Y-78271501D01*
X78812889Y-75971501D02*
X78571551Y-75971501D01*
X36449319Y-23825000D02*
X36451552Y-23827233D01*
X33350000Y-23825000D02*
X36449319Y-23825000D01*
X48497767Y-23827233D02*
X48500000Y-23825000D01*
X45101552Y-23827233D02*
X48497767Y-23827233D01*
X55875000Y-82225000D02*
X55875000Y-83100000D01*
X56124600Y-81975400D02*
X55875000Y-82225000D01*
X55875000Y-83100000D02*
X55875000Y-85200000D01*
X46550040Y-67920400D02*
X46550040Y-74220400D01*
X55875000Y-81775000D02*
X55899600Y-81750400D01*
X55875000Y-82225000D02*
X55875000Y-81775000D01*
X55899600Y-81750400D02*
X56124600Y-81975400D01*
X56800000Y-76000000D02*
X56800000Y-74925000D01*
X50750000Y-77050000D02*
X55750000Y-77050000D01*
X47920400Y-74220400D02*
X50750000Y-77050000D01*
X55750000Y-77050000D02*
X56800000Y-76000000D01*
X46550040Y-74220400D02*
X47920400Y-74220400D01*
X88970000Y-52720000D02*
X88965000Y-52725000D01*
X88970000Y-50700000D02*
X88970000Y-52720000D01*
X90235000Y-52725000D02*
X90235000Y-50735000D01*
X90200000Y-50700000D02*
X88970000Y-50700000D01*
X90235000Y-50735000D02*
X90200000Y-50700000D01*
X91505000Y-51155000D02*
X91050000Y-50700000D01*
X91050000Y-50700000D02*
X90200000Y-50700000D01*
X91505000Y-52725000D02*
X91505000Y-51155000D01*
X87695000Y-51155000D02*
X88150000Y-50700000D01*
X88150000Y-50700000D02*
X88970000Y-50700000D01*
X87695000Y-52725000D02*
X87695000Y-51155000D01*
X55875000Y-85200000D02*
X55875000Y-86524998D01*
X56025000Y-96500000D02*
X55625000Y-96100000D01*
X57000000Y-96500000D02*
X56025000Y-96500000D01*
X88965000Y-57875000D02*
X88965000Y-60235000D01*
X88965000Y-60235000D02*
X88960000Y-60240000D01*
X49400000Y-27780040D02*
X50195000Y-28575040D01*
X49400000Y-25425040D02*
X49400000Y-27780040D01*
X48475000Y-24500040D02*
X49400000Y-25425040D01*
X48475000Y-23800040D02*
X48475000Y-24500040D01*
X88960000Y-80940042D02*
X89499522Y-80400520D01*
X89499522Y-80400520D02*
X104349982Y-80400520D01*
X289680000Y-90780520D02*
X289800000Y-90660520D01*
X287600000Y-90780520D02*
X289680000Y-90780520D01*
X104349982Y-80400520D02*
X236849996Y-80400520D01*
X55899600Y-81750400D02*
X54171819Y-80022619D01*
X32624740Y-85725260D02*
X30224740Y-85725260D01*
X54171819Y-80022619D02*
X38327381Y-80022619D01*
X38327381Y-80022619D02*
X32624740Y-85725260D01*
X292250000Y-83900520D02*
X289450000Y-81100520D01*
X294050000Y-83900520D02*
X292250000Y-83900520D01*
X270800000Y-75350000D02*
X275922079Y-80472079D01*
X260649480Y-80400520D02*
X265700000Y-75350000D01*
X265700000Y-75350000D02*
X270800000Y-75350000D01*
X236849996Y-80400520D02*
X260649480Y-80400520D01*
X275922079Y-80472079D02*
X288821559Y-80472079D01*
X288821559Y-80472079D02*
X289450000Y-81100520D01*
D37*
X65000000Y-77310000D02*
X65068750Y-77378750D01*
X63600000Y-77310000D02*
X65000000Y-77310000D01*
X66500000Y-77235000D02*
X66356250Y-77378750D01*
X66500000Y-75910000D02*
X66500000Y-77235000D01*
X69287500Y-78310000D02*
X68931250Y-78666250D01*
X70400000Y-78310000D02*
X69287500Y-78310000D01*
X69500000Y-81810000D02*
X68931250Y-81241250D01*
X69500000Y-82710000D02*
X69500000Y-81810000D01*
X65000000Y-81310000D02*
X65068750Y-81241250D01*
X63600000Y-81310000D02*
X65000000Y-81310000D01*
X71290000Y-78310000D02*
X70400000Y-78310000D01*
D36*
X72425000Y-71775000D02*
X72425000Y-70700000D01*
X73400000Y-72750000D02*
X72425000Y-71775000D01*
X73400000Y-77200000D02*
X73400000Y-72750000D01*
X72250000Y-78350000D02*
X73400000Y-77200000D01*
X71110000Y-78350000D02*
X72250000Y-78350000D01*
D37*
X63210000Y-77310000D02*
X63600000Y-77310000D01*
X63200000Y-77300000D02*
X63210000Y-77310000D01*
X66650000Y-74550000D02*
X66600000Y-74550000D01*
X66580000Y-74620000D02*
X66650000Y-74550000D01*
X66580000Y-75410000D02*
X66580000Y-74620000D01*
X66500000Y-75910000D02*
X66500000Y-75490000D01*
X66500000Y-75490000D02*
X66580000Y-75410000D01*
D36*
X62430000Y-77300000D02*
X63100000Y-77300000D01*
X60055000Y-74925000D02*
X62265000Y-77135000D01*
X56800000Y-74925000D02*
X60055000Y-74925000D01*
D37*
X63040000Y-81310000D02*
X63000000Y-81350000D01*
X63600000Y-81310000D02*
X63040000Y-81310000D01*
D36*
X61834600Y-81975400D02*
X56124600Y-81975400D01*
X62460000Y-81350000D02*
X62205000Y-81605000D01*
X63000000Y-81350000D02*
X62460000Y-81350000D01*
X62205000Y-81605000D02*
X61834600Y-81975400D01*
X62265000Y-77135000D02*
X62430000Y-77300000D01*
X66650000Y-74550000D02*
X66650000Y-74280639D01*
X66698701Y-68098701D02*
X66400000Y-67800000D01*
X66650000Y-74280639D02*
X66698701Y-74231938D01*
X66698701Y-74231938D02*
X66698701Y-68098701D01*
X69560000Y-82760000D02*
X70200000Y-83400000D01*
X69530000Y-82760000D02*
X69560000Y-82760000D01*
X71900000Y-85100000D02*
X70200000Y-83400000D01*
X77000000Y-84600000D02*
X74400000Y-84600000D01*
X73900000Y-85100000D02*
X71900000Y-85100000D01*
X77349957Y-84250043D02*
X77000000Y-84600000D01*
X74400000Y-84600000D02*
X73900000Y-85100000D01*
X85649997Y-84250043D02*
X77349957Y-84250043D01*
X28819790Y-70356226D02*
X28819790Y-65800000D01*
X31463564Y-73000000D02*
X28819790Y-70356226D01*
X46550040Y-74220400D02*
X42629600Y-74220400D01*
X36663564Y-73000000D02*
X31463564Y-73000000D01*
X41650000Y-75200000D02*
X38863564Y-75200000D01*
X42629600Y-74220400D02*
X41650000Y-75200000D01*
X38863564Y-75200000D02*
X36663564Y-73000000D01*
X42901552Y-26342259D02*
X42901552Y-26837233D01*
X42652825Y-26093532D02*
X42901552Y-26342259D01*
X38900279Y-26093532D02*
X42652825Y-26093532D01*
X38651552Y-26342259D02*
X38900279Y-26093532D01*
X38651552Y-26837233D02*
X38651552Y-26342259D01*
X54500000Y-28950000D02*
X52875032Y-28950000D01*
X52875032Y-28950000D02*
X52874996Y-28950036D01*
X50375000Y-26450040D02*
X52874996Y-28950036D01*
X50375000Y-26375040D02*
X50375000Y-26450040D01*
X43199994Y-35126686D02*
X43199994Y-36600000D01*
X43600000Y-33125000D02*
X43600000Y-34726680D01*
X43600000Y-34726680D02*
X43199994Y-35126686D01*
D37*
X65455201Y-75305201D02*
X65450000Y-75300000D01*
X65455201Y-75865201D02*
X65455201Y-75305201D01*
X65500000Y-75910000D02*
X65455201Y-75865201D01*
D36*
X63209084Y-72761482D02*
X63209084Y-71627208D01*
X65455789Y-75008187D02*
X63209084Y-72761482D01*
X65455789Y-75271988D02*
X65455789Y-75008187D01*
X42725000Y-34300000D02*
X42750000Y-34300000D01*
X41600000Y-33175000D02*
X42725000Y-34300000D01*
X66040000Y-74766199D02*
X63970000Y-72696199D01*
X66040000Y-75170000D02*
X66040000Y-74766199D01*
X63970000Y-72696199D02*
X63970000Y-71370000D01*
D37*
X66042790Y-75300618D02*
X66090000Y-75253408D01*
X66042790Y-75867210D02*
X66042790Y-75300618D01*
X66090000Y-75253408D02*
X66090000Y-74810000D01*
X66000000Y-75910000D02*
X66042790Y-75867210D01*
X210600000Y-28250000D02*
X210600000Y-34200000D01*
X209062680Y-26712680D02*
X210600000Y-28250000D01*
X209050000Y-26712680D02*
X209062680Y-26712680D01*
X209067600Y-26695080D02*
X209050000Y-26712680D01*
X81436141Y-78271501D02*
X81440040Y-78275400D01*
X78812889Y-78271501D02*
X81436141Y-78271501D01*
X74598728Y-79501702D02*
X74424946Y-79327920D01*
X70417920Y-79327920D02*
X70400000Y-79310000D01*
X77582688Y-79501702D02*
X74598728Y-79501702D01*
X78812889Y-78271501D02*
X77582688Y-79501702D01*
X74424946Y-79327920D02*
X70417920Y-79327920D01*
X75500000Y-75500000D02*
X75912889Y-75912889D01*
X75500000Y-73700000D02*
X75500000Y-75500000D01*
X75912889Y-75912889D02*
X75912889Y-75971501D01*
X75400000Y-73600000D02*
X75500000Y-73700000D01*
X75762889Y-75971501D02*
X75912889Y-75971501D01*
X72863679Y-78870711D02*
X75762889Y-75971501D01*
X70833604Y-78810000D02*
X70894315Y-78870711D01*
X70400000Y-78810000D02*
X70833604Y-78810000D01*
X70894315Y-78870711D02*
X72863679Y-78870711D01*
X62010000Y-85200000D02*
X57925000Y-85200000D01*
X64500000Y-82710000D02*
X62010000Y-85200000D01*
X67000000Y-75910000D02*
X67037211Y-75872789D01*
X67037211Y-75872789D02*
X67037211Y-74979185D01*
X67037211Y-74979185D02*
X67213945Y-74802451D01*
X67219412Y-69080588D02*
X68500000Y-67800000D01*
X67219412Y-74447623D02*
X67219412Y-69080588D01*
X67213945Y-74802451D02*
X67213945Y-74453090D01*
X67213945Y-74453090D02*
X67219412Y-74447623D01*
X26900003Y-64549994D02*
X26900009Y-64550000D01*
X24300000Y-64549994D02*
X26900003Y-64549994D01*
X248700000Y-28227280D02*
X248700000Y-34200000D01*
X247167760Y-26695040D02*
X248700000Y-28227280D01*
X113800000Y-28600000D02*
X115000000Y-29800000D01*
X115000000Y-29800000D02*
X115000000Y-35100000D01*
X113800000Y-26712040D02*
X113800000Y-28600000D01*
X113817000Y-26695040D02*
X113800000Y-26712040D01*
X57499480Y-38800520D02*
X62049960Y-34250040D01*
X62049960Y-34250040D02*
X65000000Y-34250040D01*
X47000520Y-38800520D02*
X57499480Y-38800520D01*
X44983000Y-36855040D02*
X45055040Y-36855040D01*
X45055040Y-36855040D02*
X47000520Y-38800520D01*
X66192000Y-45745120D02*
X63300000Y-48637120D01*
X63300000Y-48637120D02*
X63300000Y-53350040D01*
X177900000Y-48337440D02*
X177900000Y-52550040D01*
X180492040Y-45745400D02*
X177900000Y-48337440D01*
X33350000Y-27400000D02*
X33350000Y-25875000D01*
X50525000Y-23800040D02*
X50525000Y-24068314D01*
X50525000Y-24068314D02*
X49774665Y-24818649D01*
X130250000Y-94900040D02*
X209450000Y-94900040D01*
X109160480Y-94900040D02*
X130250000Y-94900040D01*
X95650000Y-94900040D02*
X109160480Y-94900040D01*
X227294362Y-94900040D02*
X209450000Y-94900040D01*
X227344362Y-94850040D02*
X227294362Y-94900040D01*
X276349960Y-94850040D02*
X227344362Y-94850040D01*
X276350000Y-94850000D02*
X276349960Y-94850040D01*
X95650000Y-94900040D02*
X84294322Y-94900040D01*
X83064161Y-96130201D02*
X80969799Y-96130201D01*
X84294322Y-94900040D02*
X83064161Y-96130201D01*
X80969799Y-96130201D02*
X79300000Y-97800000D01*
X73900000Y-97000000D02*
X73900000Y-96965888D01*
X71550000Y-99350000D02*
X73900000Y-97000000D01*
X65550956Y-99350000D02*
X71550000Y-99350000D01*
X59928367Y-104972589D02*
X65550956Y-99350000D01*
X59928367Y-107921633D02*
X59928367Y-104972589D01*
X58200000Y-109650000D02*
X59928367Y-107921633D01*
X66589380Y-86427434D02*
X67000000Y-86016815D01*
X70853407Y-94700000D02*
X66589380Y-90435973D01*
X71599998Y-94700000D02*
X70853407Y-94700000D01*
X67000000Y-86016815D02*
X67000000Y-82710000D01*
X66589380Y-90435973D02*
X66589380Y-86427434D01*
X101900040Y-93200040D02*
X132850000Y-93200040D01*
X37400000Y-114050000D02*
X53800000Y-114050000D01*
X101900040Y-93200040D02*
X100360480Y-93200040D01*
X206900000Y-93250040D02*
X206850000Y-93200040D01*
X240025000Y-93250040D02*
X206900000Y-93250040D01*
X206839520Y-93200040D02*
X132850000Y-93200040D01*
X206900000Y-93260520D02*
X206839520Y-93200040D01*
X279850000Y-93250040D02*
X240025000Y-93250040D01*
X80969790Y-94200000D02*
X78000000Y-97169790D01*
X83999960Y-93200040D02*
X83000000Y-94200000D01*
X83000000Y-94200000D02*
X80969790Y-94200000D01*
X100360480Y-93200040D02*
X83999960Y-93200040D01*
X76190104Y-97159896D02*
X76198852Y-97159896D01*
X61350000Y-108790955D02*
X61350000Y-104844142D01*
X73025058Y-100324942D02*
X76190104Y-97159896D01*
X56090955Y-114050000D02*
X61350000Y-108790955D01*
X65869200Y-100324942D02*
X73025058Y-100324942D01*
X61350000Y-104844142D02*
X65869200Y-100324942D01*
X53800000Y-114050000D02*
X56090955Y-114050000D01*
X67500000Y-86163408D02*
X67500000Y-82710000D01*
X72900000Y-94600000D02*
X72350520Y-94050520D01*
X67046591Y-90246591D02*
X67046591Y-86616816D01*
X67046591Y-86616816D02*
X67500000Y-86163408D01*
X70850520Y-94050520D02*
X67046591Y-90246591D01*
X72350520Y-94050520D02*
X70850520Y-94050520D01*
X37674175Y-111550000D02*
X34271347Y-114952828D01*
X40100000Y-111550000D02*
X37674175Y-111550000D01*
X40100000Y-103850520D02*
X40100000Y-111550000D01*
X39144880Y-102895400D02*
X40100000Y-103850520D01*
X37617040Y-102895400D02*
X39144880Y-102895400D01*
X152950360Y-94100040D02*
X153000000Y-94050400D01*
X234250440Y-94050000D02*
X234250040Y-94050400D01*
X267300000Y-94050000D02*
X234250440Y-94050000D01*
X229200400Y-94050400D02*
X229200000Y-94050000D01*
X234250040Y-94050400D02*
X229200400Y-94050400D01*
X191050440Y-94050000D02*
X191050040Y-94050400D01*
X229200000Y-94050000D02*
X191050440Y-94050000D01*
X191050040Y-94050400D02*
X172050040Y-94050400D01*
X172050040Y-94050400D02*
X153000000Y-94050400D01*
X111050000Y-94100040D02*
X84155638Y-94100040D01*
X82905678Y-95350000D02*
X84155638Y-94100040D01*
X82200000Y-95350000D02*
X82905678Y-95350000D01*
X80750000Y-95350000D02*
X79600000Y-96500000D01*
X82200000Y-95350000D02*
X80750000Y-95350000D01*
X145410480Y-94100040D02*
X152950360Y-94100040D01*
X111050000Y-94100040D02*
X145410480Y-94100040D01*
X294049960Y-94050040D02*
X295200000Y-94050040D01*
X290282269Y-97817731D02*
X294049960Y-94050040D01*
X284517731Y-97817731D02*
X290282269Y-97817731D01*
X280750000Y-94050000D02*
X284517731Y-97817731D01*
X267300000Y-94050000D02*
X280750000Y-94050000D01*
X72375139Y-99867731D02*
X75747114Y-96495756D01*
X60650000Y-104897549D02*
X65679818Y-99867731D01*
X65679818Y-99867731D02*
X72375139Y-99867731D01*
X60650000Y-108844362D02*
X60650000Y-104897549D01*
X57144362Y-112350000D02*
X60650000Y-108844362D01*
X42800000Y-112350000D02*
X57144362Y-112350000D01*
X68000000Y-86310000D02*
X68000000Y-82710000D01*
X67503802Y-86806198D02*
X68000000Y-86310000D01*
X67503802Y-89993752D02*
X67503802Y-86806198D01*
X73850000Y-94600002D02*
X72750518Y-93500520D01*
X71010570Y-93500520D02*
X67503802Y-89993752D01*
X72750518Y-93500520D02*
X71010570Y-93500520D01*
X286260520Y-97360520D02*
X281300040Y-92400040D01*
X288493408Y-97360520D02*
X286260520Y-97360520D01*
X293453888Y-92400040D02*
X288493408Y-97360520D01*
X281300040Y-92400040D02*
X146039520Y-92400040D01*
X303550000Y-92400040D02*
X293453888Y-92400040D01*
X62050000Y-108737548D02*
X55944239Y-114843309D01*
X62050000Y-104790735D02*
X62050000Y-108737548D01*
X73457211Y-100792789D02*
X66047946Y-100792789D01*
X81050000Y-93200000D02*
X73457211Y-100792789D01*
X55944239Y-114843309D02*
X40106691Y-114843309D01*
X66047946Y-100792789D02*
X62050000Y-104790735D01*
X83799960Y-92400040D02*
X83000000Y-93200000D01*
X40106691Y-114843309D02*
X40100000Y-114850000D01*
X83000000Y-93200000D02*
X81050000Y-93200000D01*
X146039520Y-92400040D02*
X83799960Y-92400040D01*
X87800000Y-92400000D02*
X86050040Y-90650040D01*
X82503447Y-90650040D02*
X79503447Y-87650040D01*
X79503447Y-87650040D02*
X72088587Y-87650040D01*
X86050040Y-90650040D02*
X82503447Y-90650040D01*
X68500000Y-84061453D02*
X68500000Y-82710000D01*
X72088587Y-87650040D02*
X68500000Y-84061453D01*
X248650000Y-37550040D02*
X210575000Y-37550040D01*
X177100040Y-37550040D02*
X177100000Y-37550000D01*
X210575000Y-37550040D02*
X177100040Y-37550040D01*
X153450040Y-37550000D02*
X153450000Y-37550040D01*
X177100000Y-37550000D02*
X153450040Y-37550000D01*
X153450000Y-37550040D02*
X134400000Y-37550040D01*
X63750040Y-37550040D02*
X96300000Y-37550040D01*
X63750000Y-37550000D02*
X63750040Y-37550040D01*
X267400000Y-37550040D02*
X248650000Y-37550040D01*
X96300000Y-37550040D02*
X110550000Y-37550040D01*
X134400000Y-37550040D02*
X110550000Y-37550040D01*
X68000000Y-75329582D02*
X68128367Y-75201215D01*
X68000000Y-75910000D02*
X68000000Y-75329582D01*
X68539379Y-74420843D02*
X68539379Y-73250000D01*
X68128367Y-75201215D02*
X68128367Y-74831854D01*
X68128367Y-74831854D02*
X68539379Y-74420843D01*
X303600000Y-102177240D02*
X304318160Y-102895400D01*
X303600000Y-95700040D02*
X303600000Y-102177240D01*
X301550000Y-114350040D02*
X300993580Y-114906460D01*
X301550000Y-105663560D02*
X301550000Y-114350040D01*
X300993580Y-114906460D02*
X300993580Y-114965550D01*
X304318160Y-102895400D02*
X301550000Y-105663560D01*
X30282866Y-68886194D02*
X30282866Y-68922183D01*
X31833820Y-67335240D02*
X30282866Y-68886194D01*
X30070711Y-70870751D02*
X30070711Y-69134338D01*
X41387900Y-74650040D02*
X39050000Y-74650040D01*
X31679249Y-72479289D02*
X30070711Y-70870751D01*
X43622540Y-72415400D02*
X41387900Y-74650040D01*
X30070711Y-69134338D02*
X30282866Y-68922183D01*
X36879249Y-72479289D02*
X31679249Y-72479289D01*
X39050000Y-74650040D02*
X36879249Y-72479289D01*
X56079839Y-93295601D02*
X57910040Y-91465400D01*
X50695561Y-93295601D02*
X56079839Y-93295601D01*
X48865280Y-91465320D02*
X50695561Y-93295601D01*
X48385080Y-91465320D02*
X48865280Y-91465320D01*
X57910040Y-88485040D02*
X57910040Y-91465400D01*
X56800000Y-87375000D02*
X57910040Y-88485040D01*
X38531620Y-84450040D02*
X41800040Y-84450040D01*
X52082251Y-86307251D02*
X53150000Y-87375000D01*
X43657251Y-86307251D02*
X52082251Y-86307251D01*
X53150000Y-87375000D02*
X56800000Y-87375000D01*
X41800040Y-84450040D02*
X43657251Y-86307251D01*
X36596340Y-86385320D02*
X38531620Y-84450040D01*
X53364880Y-48285120D02*
X55600000Y-46050000D01*
X53265000Y-48285120D02*
X53364880Y-48285120D01*
X52669999Y-66740199D02*
X53265000Y-67335200D01*
X45785879Y-66740199D02*
X52669999Y-66740199D01*
X45300000Y-67226078D02*
X45785879Y-66740199D01*
X45300000Y-70737940D02*
X45300000Y-67226078D01*
X43622540Y-72415400D02*
X45300000Y-70737940D01*
X39364880Y-91465400D02*
X38860040Y-91465400D01*
X40750000Y-94924264D02*
X40750000Y-92850520D01*
X39524264Y-96150000D02*
X40750000Y-94924264D01*
X40750000Y-92850520D02*
X39364880Y-91465400D01*
X39100000Y-96150000D02*
X39524264Y-96150000D01*
X36596340Y-86385320D02*
X34900926Y-88080734D01*
X34900926Y-88080734D02*
X34880210Y-88080734D01*
X24650000Y-105395360D02*
X24690040Y-105435400D01*
X24650000Y-103350000D02*
X24650000Y-105395360D01*
X23950000Y-106175440D02*
X24690040Y-105435400D01*
X23950000Y-109631481D02*
X23950000Y-106175440D01*
X29271347Y-114952828D02*
X23950000Y-109631481D01*
X35950000Y-110750000D02*
X32499480Y-114200520D01*
X30023655Y-114200520D02*
X29271347Y-114952828D01*
X32499480Y-114200520D02*
X30023655Y-114200520D01*
X37400000Y-110750000D02*
X35950000Y-110750000D01*
X29464880Y-48285120D02*
X33799740Y-43950260D01*
X29452500Y-48285120D02*
X29464880Y-48285120D01*
X33849480Y-43900520D02*
X33799740Y-43950260D01*
X48880400Y-43900520D02*
X33849480Y-43900520D01*
X53265000Y-48285120D02*
X48880400Y-43900520D01*
X38860000Y-34315040D02*
X38860000Y-36190520D01*
X38860000Y-36190520D02*
X38850000Y-36200520D01*
X57910000Y-34315040D02*
X57910000Y-36190520D01*
X57910000Y-36190520D02*
X57900000Y-36200520D01*
X40966971Y-116283029D02*
X30601548Y-116283029D01*
X77050000Y-115300520D02*
X41949480Y-115300520D01*
X30601548Y-116283029D02*
X29271347Y-114952828D01*
X41949480Y-115300520D02*
X40966971Y-116283029D01*
X77350000Y-115000520D02*
X77050000Y-115300520D01*
X286628480Y-67335240D02*
X284933468Y-69030252D01*
X284933468Y-69030252D02*
X284830210Y-69030252D01*
X288713680Y-65250040D02*
X286628480Y-67335240D01*
X292250000Y-65250040D02*
X288713680Y-65250040D01*
X294250000Y-67250040D02*
X292250000Y-65250040D01*
X299289350Y-67250040D02*
X294250000Y-67250040D01*
X291389840Y-29235040D02*
X291389840Y-31099880D01*
X291389840Y-31099880D02*
X291390000Y-31100040D01*
X301050000Y-67250040D02*
X299289350Y-67250040D01*
X299374710Y-72415400D02*
X301050000Y-70740110D01*
X298416290Y-72415400D02*
X299374710Y-72415400D01*
X301050000Y-70740110D02*
X301050000Y-67550040D01*
X301050000Y-67550040D02*
X301350000Y-67250040D01*
X301050000Y-67550040D02*
X301050000Y-67250040D01*
X301050000Y-67550040D02*
X300750000Y-67250040D01*
X300750000Y-67250040D02*
X299289350Y-67250040D01*
X301350000Y-67250040D02*
X300750000Y-67250040D01*
X272339840Y-35839840D02*
X272350000Y-35850000D01*
X272339840Y-29235040D02*
X272339840Y-35839840D01*
X291391160Y-105435400D02*
X291315040Y-105435400D01*
X291315040Y-105435400D02*
X291350000Y-105470360D01*
X292489148Y-48000899D02*
X301050000Y-48000899D01*
X288613120Y-46300520D02*
X290788769Y-46300520D01*
X290788769Y-46300520D02*
X292489148Y-48000899D01*
X286628480Y-48285160D02*
X288613120Y-46300520D01*
X290750000Y-34200520D02*
X291390000Y-33560520D01*
X284150000Y-34200520D02*
X290750000Y-34200520D01*
X282250000Y-32300520D02*
X284150000Y-34200520D01*
X282250000Y-29620040D02*
X282250000Y-32300520D01*
X281865000Y-29235040D02*
X282250000Y-29620040D01*
X280584520Y-29235040D02*
X281865000Y-29235040D01*
X278607211Y-27257731D02*
X280584520Y-29235040D01*
X274317149Y-27257731D02*
X278607211Y-27257731D01*
X272339840Y-29235040D02*
X274317149Y-27257731D01*
X302899520Y-67250040D02*
X301350000Y-67250040D01*
X305560040Y-69910560D02*
X302899520Y-67250040D01*
X305560040Y-72415400D02*
X305560040Y-69910560D01*
X276706204Y-82020196D02*
X281082506Y-82020196D01*
X281082506Y-82020196D02*
X281087583Y-82015119D01*
X272341080Y-86385320D02*
X276706204Y-82020196D01*
X281087583Y-82015119D02*
X282844577Y-82015119D01*
X286934286Y-82020196D02*
X288287741Y-83373651D01*
X282844577Y-82015119D02*
X282849654Y-82020196D01*
X282849654Y-82020196D02*
X286934286Y-82020196D01*
X288287741Y-83388261D02*
X288287741Y-83373651D01*
X291284800Y-86385320D02*
X288287741Y-83388261D01*
X291391160Y-86385320D02*
X291284800Y-86385320D01*
X290850000Y-105976560D02*
X291391160Y-105435400D01*
X290850000Y-109821970D02*
X290850000Y-105976560D01*
X295993580Y-114965550D02*
X290850000Y-109821970D01*
X251760000Y-114950520D02*
X251750000Y-114960520D01*
X266700000Y-114950520D02*
X251760000Y-114950520D01*
X269650000Y-112000520D02*
X266700000Y-114950520D01*
X269650000Y-108126440D02*
X269650000Y-112000520D01*
X272341080Y-105435360D02*
X269650000Y-108126440D01*
X272341080Y-105435360D02*
X274375920Y-103400520D01*
X277750000Y-103400520D02*
X279437729Y-105088249D01*
X274375920Y-103400520D02*
X277750000Y-103400520D01*
X279437729Y-105088249D02*
X288287729Y-105088249D01*
X288300000Y-105100520D02*
X288287729Y-105088249D01*
X291056280Y-105100520D02*
X288300000Y-105100520D01*
X291391160Y-105435400D02*
X291056280Y-105100520D01*
X298416290Y-54916810D02*
X299000000Y-55500520D01*
X305560040Y-53365400D02*
X305535040Y-53365400D01*
X305535040Y-53365400D02*
X303399920Y-55500520D01*
X298416290Y-53365400D02*
X298416290Y-54916810D01*
X303399920Y-55500520D02*
X299000000Y-55500520D01*
X25950000Y-67075736D02*
X25950000Y-67500000D01*
X28525736Y-64500000D02*
X25950000Y-67075736D01*
X31625000Y-62475000D02*
X31625000Y-63157698D01*
X31625000Y-63157698D02*
X30282698Y-64500000D01*
X31000000Y-61850000D02*
X31625000Y-62475000D01*
X30282698Y-64500000D02*
X28525736Y-64500000D01*
X31000000Y-59700000D02*
X31000000Y-61850000D01*
X32400000Y-59700000D02*
X31000000Y-59700000D01*
X33650000Y-60950000D02*
X32400000Y-59700000D01*
X109550000Y-60950000D02*
X33650000Y-60950000D01*
X221947710Y-79106810D02*
X109550000Y-79106810D01*
X224850000Y-75200520D02*
X224850000Y-76204520D01*
X224850000Y-76204520D02*
X221947710Y-79106810D01*
X28400000Y-59700000D02*
X27199990Y-59700000D01*
X27199990Y-59700000D02*
X25400000Y-61499990D01*
X292850520Y-59900000D02*
X292850000Y-59900520D01*
X302700000Y-59900000D02*
X292850520Y-59900000D01*
X265294933Y-74372078D02*
X271205066Y-74372078D01*
X224183932Y-73562588D02*
X240412068Y-73562588D01*
X245872412Y-79022932D02*
X260644080Y-79022932D01*
X271205066Y-74372078D02*
X275398589Y-78565601D01*
X280934399Y-78565601D02*
X280950000Y-78550000D01*
X260644080Y-79022932D02*
X265294933Y-74372078D01*
X275398589Y-78565601D02*
X280934399Y-78565601D01*
X223550000Y-74196520D02*
X224183932Y-73562588D01*
X223550000Y-75200520D02*
X223550000Y-74196520D01*
X240412068Y-73562588D02*
X245872412Y-79022932D01*
X306050000Y-64550000D02*
X302800000Y-64550000D01*
X287550000Y-81500520D02*
X288943920Y-82894440D01*
X90510000Y-81500520D02*
X287550000Y-81500520D01*
X70400000Y-81310000D02*
X71570222Y-81310000D01*
X71570222Y-81310000D02*
X73835222Y-83574999D01*
X73835222Y-83574999D02*
X88435521Y-83574999D01*
X88435521Y-83574999D02*
X90510000Y-81500520D01*
X89843607Y-81043309D02*
X287992781Y-81043309D01*
X70400000Y-80810000D02*
X71716815Y-80810000D01*
X287992781Y-81043309D02*
X290650000Y-83700528D01*
X71716815Y-80810000D02*
X74024603Y-83117789D01*
X87769128Y-83117788D02*
X89843607Y-81043309D01*
X74024603Y-83117789D02*
X87769128Y-83117788D01*
X36166372Y-78775400D02*
X30784102Y-84157670D01*
X60865400Y-78775400D02*
X36166372Y-78775400D01*
X61400000Y-79310000D02*
X60865400Y-78775400D01*
X63600000Y-79310000D02*
X61400000Y-79310000D01*
X37348096Y-79501908D02*
X31924742Y-84925262D01*
X60860000Y-79810000D02*
X60551908Y-79501908D01*
X60551908Y-79501908D02*
X37348096Y-79501908D01*
X63600000Y-79810000D02*
X60860000Y-79810000D01*
X29700000Y-61300040D02*
X29550000Y-61450040D01*
X29700000Y-59700000D02*
X29700000Y-61300040D01*
X31559962Y-77860000D02*
X30600002Y-76900040D01*
X61030000Y-77860000D02*
X31559962Y-77860000D01*
X61980000Y-78810000D02*
X61030000Y-77860000D01*
X63600000Y-78810000D02*
X61980000Y-78810000D01*
X61625000Y-87535520D02*
X61625000Y-88600000D01*
X62560520Y-86600000D02*
X61625000Y-87535520D01*
X63200000Y-86600000D02*
X62560520Y-86600000D01*
X61350000Y-91000000D02*
X61350000Y-89910520D01*
X61625000Y-89635520D02*
X61625000Y-88600000D01*
X61350000Y-89910520D02*
X61625000Y-89635520D01*
X63200000Y-85800000D02*
X63200000Y-86600000D01*
X65500000Y-83500000D02*
X63200000Y-85800000D01*
X65500000Y-82710000D02*
X65500000Y-83500000D01*
X60400000Y-96500000D02*
X61400000Y-96500000D01*
X60000000Y-90160520D02*
X60000000Y-90200000D01*
X59600000Y-89760520D02*
X60000000Y-90160520D01*
X59600000Y-88600000D02*
X59600000Y-89760520D01*
X253290840Y-86359160D02*
X255400000Y-84250000D01*
X253290840Y-86385320D02*
X253290840Y-86359160D01*
X253250040Y-29195240D02*
X253289840Y-29235040D01*
X276885400Y-76960040D02*
X276885040Y-76960400D01*
X279266250Y-76960040D02*
X276885400Y-76960040D01*
X253289840Y-31339880D02*
X253300000Y-31350040D01*
X253289840Y-29235040D02*
X253289840Y-31339880D01*
X250908790Y-105435400D02*
X252894150Y-103450040D01*
X252894150Y-103450040D02*
X252950000Y-103450040D01*
X256449680Y-103450040D02*
X252950000Y-103450040D01*
X258250040Y-105250400D02*
X256449680Y-103450040D01*
X264850360Y-105250400D02*
X258250040Y-105250400D01*
X267460040Y-107860080D02*
X264850360Y-105250400D01*
X267460040Y-110515400D02*
X267460040Y-107860080D01*
X263500002Y-58150000D02*
X263500000Y-58150002D01*
X267600000Y-58150000D02*
X263500002Y-58150000D01*
X262815880Y-48285160D02*
X262815880Y-46065880D01*
X262815880Y-46065880D02*
X262800002Y-46050002D01*
X268700260Y-58150000D02*
X267600000Y-58150000D01*
X269549740Y-57300520D02*
X268700260Y-58150000D01*
X276275160Y-57300520D02*
X269549740Y-57300520D01*
X276885040Y-57910400D02*
X276275160Y-57300520D01*
X249850000Y-106494190D02*
X250908790Y-105435400D01*
X249850000Y-114260520D02*
X249850000Y-106494190D01*
X249150000Y-114960520D02*
X249850000Y-114260520D01*
X262815040Y-67335400D02*
X262815040Y-70384960D01*
X262815040Y-70384960D02*
X262800000Y-70400000D01*
X266200000Y-73800000D02*
X262800000Y-70400000D01*
X271400000Y-73800000D02*
X266200000Y-73800000D01*
X274560400Y-76960400D02*
X271400000Y-73800000D01*
X276885040Y-76960400D02*
X274560400Y-76960400D01*
X205665640Y-67335200D02*
X205665640Y-65115680D01*
X205665640Y-65115680D02*
X205650000Y-65100040D01*
X196150000Y-29244480D02*
X196140600Y-29235080D01*
X196150000Y-32100040D02*
X196150000Y-29244480D01*
X220280560Y-43850000D02*
X224715720Y-48285160D01*
X210100800Y-43850000D02*
X220280560Y-43850000D01*
X205665640Y-48285160D02*
X210100800Y-43850000D01*
X205650000Y-50500004D02*
X205699998Y-50450006D01*
X205665640Y-48285160D02*
X205665640Y-50415648D01*
X205665640Y-50415648D02*
X205699998Y-50450006D01*
X205650000Y-51650040D02*
X205650000Y-50500004D01*
X222433790Y-98933790D02*
X222400000Y-98900000D01*
X222433790Y-100890400D02*
X222433790Y-98933790D01*
X215190680Y-86385280D02*
X214635280Y-86385280D01*
X214635280Y-86385280D02*
X211950000Y-83700000D01*
X200510801Y-82015079D02*
X210265079Y-82015079D01*
X210265079Y-82015079D02*
X211950000Y-83700000D01*
X196140600Y-86385280D02*
X200510801Y-82015079D01*
X202899015Y-95680241D02*
X196140040Y-102439216D01*
X219180241Y-95680241D02*
X202899015Y-95680241D01*
X196140040Y-102439216D02*
X196140040Y-105435400D01*
X222400000Y-98900000D02*
X219180241Y-95680241D01*
X183750000Y-110850040D02*
X183750000Y-115000520D01*
X188996290Y-105603750D02*
X183750000Y-110850040D01*
X188996290Y-105435400D02*
X188996290Y-105603750D01*
X194309839Y-103605199D02*
X196140040Y-105435400D01*
X194305177Y-103605199D02*
X194309839Y-103605199D01*
X193899978Y-103200000D02*
X194305177Y-103605199D01*
X191231690Y-103200000D02*
X193899978Y-103200000D01*
X188996290Y-105435400D02*
X191231690Y-103200000D01*
X215190680Y-25590680D02*
X215190680Y-29235040D01*
X213800000Y-24200000D02*
X215190680Y-25590680D01*
X201175680Y-24200000D02*
X213800000Y-24200000D01*
X196140600Y-29235080D02*
X201175680Y-24200000D01*
X177150040Y-29175400D02*
X177090040Y-29235400D01*
X177090040Y-32590044D02*
X177099996Y-32600000D01*
X177090040Y-29235400D02*
X177090040Y-32590044D01*
X177099996Y-34249996D02*
X177100000Y-34250000D01*
X177099996Y-32600000D02*
X177099996Y-34249996D01*
X177090040Y-86385400D02*
X174714602Y-86385400D01*
X174714602Y-86385400D02*
X174650000Y-86450002D01*
X186615040Y-67335400D02*
X184614602Y-67335400D01*
X184614602Y-67335400D02*
X184600000Y-67350002D01*
X186615040Y-48285400D02*
X184614600Y-48285400D01*
X184614600Y-48285400D02*
X184600000Y-48300000D01*
X167900000Y-108350520D02*
X169900000Y-110350520D01*
X167900000Y-105770360D02*
X167900000Y-108350520D01*
X167565040Y-105435400D02*
X167900000Y-105770360D01*
X167565040Y-53340040D02*
X167575000Y-53350000D01*
X167565040Y-48285400D02*
X167565040Y-53340040D01*
X156060406Y-86385400D02*
X156050000Y-86374994D01*
X158040040Y-86385400D02*
X156060406Y-86385400D01*
X165564760Y-67335240D02*
X165550000Y-67350000D01*
X167565880Y-67335240D02*
X165564760Y-67335240D01*
X165564594Y-48285400D02*
X165549994Y-48300000D01*
X167565040Y-48285400D02*
X165564594Y-48285400D01*
X158040040Y-32190560D02*
X158050000Y-32200520D01*
X158040040Y-29235400D02*
X158040040Y-32190560D01*
X158450000Y-105845360D02*
X158040040Y-105435400D01*
X158450000Y-114360520D02*
X158450000Y-105845360D01*
X159050000Y-114960520D02*
X158450000Y-114360520D01*
X155749999Y-103500521D02*
X156049998Y-103800520D01*
X148515040Y-105435400D02*
X150449919Y-103500521D01*
X150449919Y-103500521D02*
X155749999Y-103500521D01*
X157684880Y-105435400D02*
X156050000Y-103800520D01*
X156050000Y-103800520D02*
X156049998Y-103800520D01*
X158040040Y-105435400D02*
X157684880Y-105435400D01*
X158050040Y-29225400D02*
X158040040Y-29235400D01*
X153389480Y-24600000D02*
X158014880Y-29225400D01*
X143625040Y-24600000D02*
X153389480Y-24600000D01*
X158014880Y-29225400D02*
X158050040Y-29225400D01*
X138990000Y-29235040D02*
X143625040Y-24600000D01*
X119940000Y-88540000D02*
X119950000Y-88550000D01*
X119940000Y-86385280D02*
X119940000Y-88540000D01*
X162685560Y-69964440D02*
X162700000Y-69950000D01*
X162685560Y-72415240D02*
X162685560Y-69964440D01*
X148515560Y-50434440D02*
X148500000Y-50450000D01*
X148515560Y-48285120D02*
X148515560Y-50434440D01*
X119940000Y-29235040D02*
X119940000Y-33740042D01*
X119940000Y-33740042D02*
X119949998Y-33750040D01*
X144130440Y-43900000D02*
X148515560Y-48285120D01*
X133850120Y-43900000D02*
X144130440Y-43900000D01*
X129465000Y-48285120D02*
X133850120Y-43900000D01*
X119949998Y-35050042D02*
X119900000Y-35100040D01*
X119949998Y-33750040D02*
X119949998Y-35050042D01*
X119940440Y-103159560D02*
X119950000Y-103150000D01*
X119940440Y-105435400D02*
X119940440Y-103159560D01*
X129465000Y-48285120D02*
X127414880Y-48285120D01*
X127414880Y-48285120D02*
X127400000Y-48300000D01*
X129465000Y-67335200D02*
X127414798Y-67335200D01*
X127414798Y-67335200D02*
X127399998Y-67350000D01*
X134619799Y-82015079D02*
X138990000Y-86385280D01*
X124310201Y-82015079D02*
X134619799Y-82015079D01*
X119940000Y-86385280D02*
X124310201Y-82015079D01*
X147410000Y-114960520D02*
X147450000Y-114960520D01*
X144000000Y-111550520D02*
X147410000Y-114960520D01*
X132764300Y-111550520D02*
X144000000Y-111550520D01*
X131729180Y-110515400D02*
X132764300Y-111550520D01*
X127450000Y-112600520D02*
X129153337Y-112600520D01*
X125442269Y-110592789D02*
X127450000Y-112600520D01*
X131253337Y-110500520D02*
X131714300Y-110500520D01*
X120142269Y-110592789D02*
X125442269Y-110592789D01*
X129153337Y-112600520D02*
X131253337Y-110500520D01*
X118150000Y-108600520D02*
X120142269Y-110592789D01*
X118150000Y-107225840D02*
X118150000Y-108600520D01*
X119940440Y-105435400D02*
X118150000Y-107225840D01*
X100814960Y-29235040D02*
X100890000Y-29235040D01*
X98750000Y-31300000D02*
X100814960Y-29235040D01*
X94539382Y-112592789D02*
X92539422Y-110592829D01*
X100772540Y-110515400D02*
X100772540Y-112019400D01*
X100772540Y-112019400D02*
X100199151Y-112592789D01*
X100199151Y-112592789D02*
X94539382Y-112592789D01*
X92539422Y-110592829D02*
X89192789Y-110592829D01*
X87250000Y-108650040D02*
X87250000Y-107169460D01*
X87250000Y-107169460D02*
X88984060Y-105435400D01*
X91400000Y-48300000D02*
X95900000Y-43800000D01*
X95900000Y-43800000D02*
X105929880Y-43800000D01*
X91379880Y-48300000D02*
X91400000Y-48300000D01*
X105929880Y-43800000D02*
X110415000Y-48285120D01*
X91365000Y-48285120D02*
X91379880Y-48300000D01*
X91385120Y-48285120D02*
X92050000Y-48950000D01*
X92050000Y-48950000D02*
X92050000Y-50250036D01*
X91365000Y-48285120D02*
X91385120Y-48285120D01*
X97614720Y-86385280D02*
X97600000Y-86400000D01*
X100890000Y-86385280D02*
X97614720Y-86385280D01*
X91365000Y-66160000D02*
X92050000Y-65475000D01*
X91365000Y-67335200D02*
X91365000Y-66160000D01*
X92299970Y-95700040D02*
X92300005Y-95700005D01*
X90500000Y-95700040D02*
X92299970Y-95700040D01*
X87430240Y-108830280D02*
X87480240Y-108880280D01*
X87069760Y-108830280D02*
X87430240Y-108830280D01*
X87480240Y-108880280D02*
X87250000Y-108650040D01*
X89192789Y-110592829D02*
X87480240Y-108880280D01*
X87069760Y-108830280D02*
X87250000Y-108650040D01*
X92274960Y-65250040D02*
X92050000Y-65475000D01*
X97699520Y-65250040D02*
X92274960Y-65250040D01*
X99784680Y-67335200D02*
X97699520Y-65250040D01*
X110415000Y-67335200D02*
X99784680Y-67335200D01*
X88005026Y-91481989D02*
X93231989Y-91481989D01*
X82692829Y-90192829D02*
X86715866Y-90192829D01*
X81840000Y-89340000D02*
X82692829Y-90192829D01*
X86715866Y-90192829D02*
X88005026Y-91481989D01*
X81840000Y-86385280D02*
X81840000Y-89340000D01*
X83350000Y-112550040D02*
X87069760Y-108830280D01*
X83350000Y-115000520D02*
X83350000Y-112550040D01*
X89050000Y-105369460D02*
X88984060Y-105435400D01*
X90500000Y-103919460D02*
X89050000Y-105369460D01*
X90500000Y-95700000D02*
X90500000Y-103919460D01*
X86475040Y-24600000D02*
X81840000Y-29235040D01*
X96254960Y-24600000D02*
X86475040Y-24600000D01*
X100890000Y-29235040D02*
X96254960Y-24600000D01*
X72315000Y-48285120D02*
X72315000Y-46363289D01*
X72315000Y-46363289D02*
X72301648Y-46349937D01*
X62800000Y-29225040D02*
X62790000Y-29235040D01*
X62790000Y-29235040D02*
X62790000Y-31658944D01*
X62790000Y-31658944D02*
X62852680Y-31721624D01*
X47249480Y-111600000D02*
X56700000Y-111600000D01*
X43740040Y-108090560D02*
X47249480Y-111600000D01*
X43740040Y-105435400D02*
X43740040Y-108090560D01*
X85000000Y-91600040D02*
X84146000Y-91600040D01*
X84146000Y-91600040D02*
X83745988Y-91200028D01*
X83745988Y-91200028D02*
X80399988Y-91200028D01*
X80399496Y-91200520D02*
X80399988Y-91200028D01*
X77224760Y-91200520D02*
X80399496Y-91200520D01*
X76960000Y-91465280D02*
X77224760Y-91200520D01*
X76960040Y-110515400D02*
X80364880Y-110515400D01*
X80364880Y-110515400D02*
X80399988Y-110550508D01*
X74400160Y-65250040D02*
X78400480Y-65250040D01*
X72315000Y-67335200D02*
X74400160Y-65250040D01*
X63350000Y-107256690D02*
X65171290Y-105435400D01*
X63350000Y-108575260D02*
X63350000Y-107256690D01*
X65474740Y-110700000D02*
X63350000Y-108575260D01*
X70649480Y-110700000D02*
X65474740Y-110700000D01*
X72549480Y-112600000D02*
X70649480Y-110700000D01*
X74875440Y-112600000D02*
X72549480Y-112600000D01*
X76960040Y-110515400D02*
X74875440Y-112600000D01*
D36*
X40351552Y-27086555D02*
X40351552Y-26837233D01*
X43594345Y-31075000D02*
X43600000Y-31075000D01*
X41201552Y-28682207D02*
X43594345Y-31075000D01*
X41201552Y-28187233D02*
X41201552Y-28682207D01*
X41201552Y-28187233D02*
X41201552Y-27936555D01*
X41201552Y-27936555D02*
X40351552Y-27086555D01*
X47724960Y-26375040D02*
X48475000Y-26375040D01*
X47300000Y-29900000D02*
X47300000Y-26800000D01*
X47300000Y-26800000D02*
X47724960Y-26375040D01*
X46693661Y-30506339D02*
X47300000Y-29900000D01*
X44943661Y-30506339D02*
X46693661Y-30506339D01*
X44375000Y-31075000D02*
X44943661Y-30506339D01*
X43700000Y-31075000D02*
X44375000Y-31075000D01*
D37*
X153450040Y-28228080D02*
X153450040Y-34200000D01*
X151917000Y-26695040D02*
X153450040Y-28228080D01*
X274981120Y-44983400D02*
X275742880Y-45745160D01*
X274345040Y-44983400D02*
X274981120Y-44983400D01*
X281300000Y-40200000D02*
X281300000Y-38800520D01*
X275754840Y-45745160D02*
X281300000Y-40200000D01*
X275742880Y-45745160D02*
X275754840Y-45745160D01*
X243754640Y-55905160D02*
X245008800Y-55905160D01*
X241199480Y-53350000D02*
X243754640Y-55905160D01*
X234450000Y-53350000D02*
X241199480Y-53350000D01*
X245008800Y-55959320D02*
X245008800Y-55905160D01*
X248565201Y-59515721D02*
X245008800Y-55959320D01*
X260692540Y-58057980D02*
X259234799Y-59515721D01*
X259234799Y-59515721D02*
X248565201Y-59515721D01*
X260692540Y-56667400D02*
X260692540Y-58057980D01*
X244950000Y-55900520D02*
X245004160Y-55900520D01*
X244400000Y-55350520D02*
X244950000Y-55900520D01*
X245004160Y-55900520D02*
X245008800Y-55905160D01*
X244400000Y-48734770D02*
X244400000Y-55350520D01*
X248151250Y-44983520D02*
X244400000Y-48734770D01*
X158900000Y-48287680D02*
X158900000Y-52550040D01*
X161442560Y-45745120D02*
X158900000Y-48287680D01*
X120700000Y-48387120D02*
X120700000Y-52550040D01*
X123342000Y-45745120D02*
X120700000Y-48387120D01*
X66100000Y-64703200D02*
X66192000Y-64795200D01*
X66100000Y-62850000D02*
X66100000Y-64703200D01*
X66100000Y-57450040D02*
X66100000Y-60200000D01*
X180492880Y-58257160D02*
X180500000Y-58250040D01*
X180492880Y-64795240D02*
X180492880Y-58257160D01*
X248050000Y-63900520D02*
X248050000Y-64100520D01*
X241750000Y-62600520D02*
X246750000Y-62600520D01*
X246750000Y-62600520D02*
X248050000Y-63900520D01*
X237450000Y-58300520D02*
X241750000Y-62600520D01*
X237450000Y-57500520D02*
X237450000Y-58300520D01*
X244450000Y-74396440D02*
X245008800Y-74955240D01*
X244450000Y-67734770D02*
X244450000Y-74396440D01*
X248151250Y-64033520D02*
X244450000Y-67734770D01*
X248565201Y-78565721D02*
X245008800Y-75009320D01*
X259384799Y-78565721D02*
X248565201Y-78565721D01*
X245008800Y-75009320D02*
X245008800Y-74955240D01*
X260692540Y-77257980D02*
X259384799Y-78565721D01*
X260692540Y-75717400D02*
X260692540Y-77257980D01*
X161700000Y-61235800D02*
X161700000Y-58250040D01*
X158140560Y-64795240D02*
X161700000Y-61235800D01*
X157015561Y-63670241D02*
X158140560Y-64795240D01*
X147729759Y-63670241D02*
X157015561Y-63670241D01*
X145000000Y-66400000D02*
X147729759Y-63670241D01*
X145000000Y-72000000D02*
X145000000Y-66400000D01*
X147955240Y-74955240D02*
X145000000Y-72000000D01*
X149758560Y-74955240D02*
X147955240Y-74955240D01*
X123300000Y-64753200D02*
X123342000Y-64795200D01*
X123300000Y-58250040D02*
X123300000Y-64753200D01*
X301963440Y-86200040D02*
X304318160Y-83845320D01*
X299750000Y-91500000D02*
X301963440Y-89286560D01*
X301963440Y-89286560D02*
X301963440Y-86200040D01*
X296750000Y-91500000D02*
X299750000Y-91500000D01*
X296000000Y-90750000D02*
X296750000Y-91500000D01*
X295250000Y-90750000D02*
X296000000Y-90750000D01*
X263830040Y-102889650D02*
X263835790Y-102895400D01*
X263830040Y-95700040D02*
X263830040Y-102889650D01*
X254533040Y-113055400D02*
X256638400Y-110950040D01*
X261799680Y-112550040D02*
X268453888Y-112550040D01*
X260199680Y-110950040D02*
X261799680Y-112550040D01*
X256638400Y-110950040D02*
X260199680Y-110950040D01*
X268453888Y-112550040D02*
X269065241Y-111938687D01*
X269065241Y-108124851D02*
X263835790Y-102895400D01*
X269065241Y-111938687D02*
X269065241Y-108124851D01*
X267300000Y-84927480D02*
X267300000Y-90750000D01*
X266217840Y-83845320D02*
X267300000Y-84927480D01*
X247850000Y-84527560D02*
X247167760Y-83845320D01*
X247850000Y-91550040D02*
X247850000Y-84527560D01*
X153000000Y-84928280D02*
X153000000Y-90750400D01*
X151917000Y-83845280D02*
X153000000Y-84928280D01*
X207086920Y-104875520D02*
X203903410Y-104875520D01*
X203903410Y-104875520D02*
X201923290Y-102895400D01*
X209067040Y-102895400D02*
X207086920Y-104875520D01*
X206850000Y-97300520D02*
X209067040Y-99517560D01*
X209067040Y-99517560D02*
X209067040Y-102895400D01*
X206850000Y-96500040D02*
X206850000Y-97300520D01*
X111050000Y-86612280D02*
X113817000Y-83845280D01*
X111050000Y-90800040D02*
X111050000Y-86612280D01*
X62719799Y-104767529D02*
X62719799Y-111742159D01*
X66187328Y-101300000D02*
X62719799Y-104767529D01*
X62719799Y-111742159D02*
X64033040Y-113055400D01*
X73682992Y-101300000D02*
X66187328Y-101300000D01*
X76532992Y-98450000D02*
X73682992Y-101300000D01*
X84449960Y-95700040D02*
X83500000Y-96650000D01*
X83500000Y-96650000D02*
X81450000Y-96650000D01*
X81450000Y-96650000D02*
X79650000Y-98450000D01*
X87800000Y-95700040D02*
X84449960Y-95700040D01*
X78098290Y-98501710D02*
X78150000Y-98450000D01*
X78400000Y-98450000D02*
X78098290Y-98751710D01*
X78098290Y-102895400D02*
X78098290Y-98751710D01*
X79650000Y-98450000D02*
X78400000Y-98450000D01*
X78098290Y-98751710D02*
X78098290Y-98501710D01*
X78400000Y-98450000D02*
X78150000Y-98450000D01*
X77796580Y-98450000D02*
X78098290Y-98751710D01*
X78150000Y-98450000D02*
X77750000Y-98450000D01*
X77750000Y-98450000D02*
X77796580Y-98450000D01*
X77750000Y-98450000D02*
X76532992Y-98450000D01*
X288060000Y-93300520D02*
X291400000Y-89960520D01*
X287600000Y-93300520D02*
X288060000Y-93300520D01*
X294750000Y-81800520D02*
X292550000Y-81800520D01*
X292550000Y-81800520D02*
X291400000Y-80650520D01*
X302025501Y-74525019D02*
X294750000Y-81800520D01*
X304824981Y-74525019D02*
X302025501Y-74525019D01*
X305124980Y-74225020D02*
X304824981Y-74525019D01*
X227430721Y-74019799D02*
X234909799Y-74019799D01*
X234909799Y-74019799D02*
X236090000Y-75200000D01*
X226150000Y-75300520D02*
X227430721Y-74019799D01*
X275372504Y-79186108D02*
X289935588Y-79186108D01*
X289935588Y-79186108D02*
X291400000Y-80650520D01*
X260833461Y-79480143D02*
X265484315Y-74829289D01*
X240370143Y-79480143D02*
X260833461Y-79480143D01*
X236090000Y-75200000D02*
X240370143Y-79480143D01*
X265484315Y-74829289D02*
X271015685Y-74829289D01*
X271015685Y-74829289D02*
X275372504Y-79186108D01*
X234225000Y-86369560D02*
X234240760Y-86385320D01*
X234250000Y-105425440D02*
X234240040Y-105435400D01*
X234250040Y-29225760D02*
X234240760Y-29235040D01*
X234240760Y-31390760D02*
X234250000Y-31400000D01*
X234240760Y-29235040D02*
X234240760Y-31390760D01*
X232254680Y-103450040D02*
X234240040Y-105435400D01*
X229081650Y-103450040D02*
X232254680Y-103450040D01*
X227096290Y-105435400D02*
X229081650Y-103450040D01*
X234200000Y-86426080D02*
X234240760Y-86385320D01*
X234200000Y-90750000D02*
X234200000Y-86426080D01*
X234240760Y-84365762D02*
X234224998Y-84350000D01*
X234240760Y-86385320D02*
X234240760Y-84365762D01*
X255612656Y-41200516D02*
X241950004Y-41200516D01*
X258152540Y-43740400D02*
X255612656Y-41200516D01*
X257935800Y-75514720D02*
X257935800Y-72415240D01*
X256490000Y-76960520D02*
X257935800Y-75514720D01*
X250691250Y-76960520D02*
X256490000Y-76960520D01*
X260250000Y-64887860D02*
X258152540Y-62790400D01*
X260250000Y-68800520D02*
X260250000Y-64887860D01*
X257935800Y-71114720D02*
X260250000Y-68800520D01*
X257935800Y-72415240D02*
X257935800Y-71114720D01*
X257935800Y-52114720D02*
X257935800Y-53365160D01*
X260350000Y-49700520D02*
X257935800Y-52114720D01*
X260350000Y-45937860D02*
X260350000Y-49700520D01*
X258152540Y-43740400D02*
X260350000Y-45937860D01*
X257935800Y-56014720D02*
X257935800Y-53365160D01*
X256040000Y-57910520D02*
X257935800Y-56014720D01*
X250691250Y-57910520D02*
X256040000Y-57910520D01*
X227550000Y-110500520D02*
X227550000Y-105889110D01*
X227550000Y-110900520D02*
X227550000Y-110500520D01*
X227900000Y-110850520D02*
X227600000Y-110850520D01*
X227550000Y-110500520D02*
X227900000Y-110850520D01*
X227600000Y-110850520D02*
X227550000Y-110900520D01*
X227550000Y-105889110D02*
X227096290Y-105435400D01*
X227550000Y-111400520D02*
X227550000Y-110900520D01*
X227550000Y-111400520D02*
X227550000Y-111200520D01*
X227550000Y-111200520D02*
X227900000Y-110850520D01*
X236100000Y-110850520D02*
X227900000Y-110850520D01*
X237950000Y-112700520D02*
X236100000Y-110850520D01*
X241550000Y-112700520D02*
X237950000Y-112700520D01*
X243647540Y-110602980D02*
X241550000Y-112700520D01*
X243647540Y-110515400D02*
X243647540Y-110602980D01*
X234250000Y-98625000D02*
X234250000Y-105425440D01*
X227550000Y-114600520D02*
X227550000Y-111400520D01*
X226550000Y-115600520D02*
X227550000Y-114600520D01*
X220250000Y-115600520D02*
X226550000Y-115600520D01*
X212850000Y-112900520D02*
X217550000Y-112900520D01*
X217550000Y-112900520D02*
X220250000Y-115600520D01*
X210750000Y-115000520D02*
X212850000Y-112900520D01*
X204150000Y-115000520D02*
X210750000Y-115000520D01*
X258152540Y-62790400D02*
X256648540Y-62790400D01*
X256648540Y-62790400D02*
X255552370Y-61694230D01*
X255552370Y-61694230D02*
X241950001Y-61694230D01*
X227100521Y-72300521D02*
X241950001Y-72300521D01*
X224715720Y-69915720D02*
X227100521Y-72300521D01*
X224715720Y-67335240D02*
X224715720Y-69915720D01*
X274980040Y-64033400D02*
X275742040Y-64795400D01*
X274345040Y-64033400D02*
X274980040Y-64033400D01*
X243297309Y-60443309D02*
X241104000Y-58250000D01*
X271389949Y-60443309D02*
X243297309Y-60443309D01*
X275742040Y-64795400D02*
X271389949Y-60443309D01*
X241104000Y-58250000D02*
X240250000Y-58250000D01*
X191050040Y-84878400D02*
X191050040Y-90750400D01*
X190017040Y-83845400D02*
X191050040Y-84878400D01*
X180500040Y-102887400D02*
X180492040Y-102895400D01*
X180500040Y-95700040D02*
X180500040Y-102887400D01*
X168972160Y-100900520D02*
X170967040Y-102895400D01*
X163436920Y-100900520D02*
X168972160Y-100900520D01*
X161442040Y-102895400D02*
X163436920Y-100900520D01*
X170950000Y-102878360D02*
X170967040Y-102895400D01*
X170950000Y-98200520D02*
X170950000Y-102878360D01*
X169450000Y-96700520D02*
X170950000Y-98200520D01*
X169450000Y-95700040D02*
X169450000Y-96700520D01*
X56667040Y-103732960D02*
X56667040Y-102895400D01*
X53800000Y-106600000D02*
X56667040Y-103732960D01*
X53800000Y-110750000D02*
X53800000Y-106600000D01*
X58272241Y-101381239D02*
X58272241Y-106277759D01*
X58272241Y-106277759D02*
X58200000Y-106350000D01*
X56991002Y-100100000D02*
X58272241Y-101381239D01*
X51077640Y-100100000D02*
X56991002Y-100100000D01*
X44983040Y-94005400D02*
X51077640Y-100100000D01*
X197000000Y-48287440D02*
X197000000Y-52550040D01*
X199542040Y-45745400D02*
X197000000Y-48287440D01*
X227050000Y-111741190D02*
X224973790Y-113817400D01*
X227050000Y-109650040D02*
X227050000Y-111741190D01*
X225450000Y-108050040D02*
X227050000Y-109650040D01*
X225450000Y-95700040D02*
X225450000Y-108050040D01*
X229300000Y-38400040D02*
X191250000Y-38400040D01*
X191250000Y-38400040D02*
X172000000Y-38400040D01*
X115000000Y-38400040D02*
X119900000Y-38400040D01*
X76900000Y-38400040D02*
X67600000Y-38400040D01*
X66400040Y-38400040D02*
X66400000Y-38400000D01*
X67600000Y-38400040D02*
X66400040Y-38400040D01*
X76900000Y-38400040D02*
X104975040Y-38400040D01*
X104975040Y-38400040D02*
X115000000Y-38400040D01*
X119900000Y-38400040D02*
X145499998Y-38400040D01*
X145499998Y-38400040D02*
X145500000Y-38400038D01*
X172000000Y-38400040D02*
X145500002Y-38400040D01*
X145500002Y-38400040D02*
X145500000Y-38400038D01*
X229450040Y-38350000D02*
X229400000Y-38400040D01*
X277095676Y-34657731D02*
X273403407Y-38350000D01*
X299607731Y-34657731D02*
X277095676Y-34657731D01*
X301700000Y-36750000D02*
X299607731Y-34657731D01*
X273403407Y-38350000D02*
X229450040Y-38350000D01*
X70430000Y-72550210D02*
X70430210Y-72550000D01*
X69500000Y-75400000D02*
X70430000Y-74470000D01*
X69500000Y-75910000D02*
X69500000Y-75400000D01*
X70430000Y-74470000D02*
X70430000Y-72550210D01*
X101500000Y-56650040D02*
X215900000Y-56650040D01*
X101500000Y-56650040D02*
X63300000Y-56650040D01*
X273150000Y-40250000D02*
X240699996Y-40250000D01*
X277099480Y-36300520D02*
X273150000Y-40250000D01*
X286100000Y-36300520D02*
X277099480Y-36300520D01*
X215900000Y-56650040D02*
X236049960Y-56650040D01*
X236049960Y-56650040D02*
X236850000Y-55850000D01*
X68500000Y-75910000D02*
X68500000Y-75476175D01*
X69169790Y-74437025D02*
X69169790Y-74100000D01*
X68585578Y-75390597D02*
X68585578Y-75021236D01*
X68500000Y-75476175D02*
X68585578Y-75390597D01*
X68585578Y-75021236D02*
X69169790Y-74437025D01*
X91505000Y-57875000D02*
X91505000Y-60159576D01*
X91505000Y-60159576D02*
X91419790Y-60244786D01*
X94010160Y-76510520D02*
X92050000Y-76510520D01*
X94250040Y-76750400D02*
X94010160Y-76510520D01*
X90060520Y-76510520D02*
X89950000Y-76400000D01*
X92050000Y-76510520D02*
X90060520Y-76510520D01*
X89950000Y-78350000D02*
X89950000Y-76400000D01*
X85639422Y-82660578D02*
X89950000Y-78350000D01*
X74213985Y-82660578D02*
X85639422Y-82660578D01*
X71863408Y-80310000D02*
X74213985Y-82660578D01*
X70400000Y-80310000D02*
X71863408Y-80310000D01*
X90235000Y-57875000D02*
X90235000Y-60235006D01*
X90235000Y-60235006D02*
X90250000Y-60250006D01*
X93000000Y-75350000D02*
X91350000Y-75350000D01*
X94139600Y-74210400D02*
X93000000Y-75350000D01*
X88350000Y-76400000D02*
X88919790Y-75830210D01*
X88919790Y-75809666D02*
X89259666Y-75469790D01*
X89400000Y-75350000D02*
X91350000Y-75350000D01*
X86850000Y-76400000D02*
X88350000Y-76400000D01*
X94250040Y-74210400D02*
X94139600Y-74210400D01*
X88919790Y-75830210D02*
X88919790Y-75809666D01*
X89280210Y-75469790D02*
X89400000Y-75350000D01*
X89259666Y-75469790D02*
X89280210Y-75469790D01*
X72010000Y-79810000D02*
X70400000Y-79810000D01*
X84096633Y-82203367D02*
X74403367Y-82203367D01*
X86850000Y-76425000D02*
X86850000Y-79450000D01*
X74403367Y-82203367D02*
X72010000Y-79810000D01*
X86850000Y-79450000D02*
X84096633Y-82203367D01*
X50350040Y-67920400D02*
X50350040Y-74220400D01*
X50350040Y-74250040D02*
X50350040Y-74220400D01*
X51025000Y-74925000D02*
X50350040Y-74250040D01*
X54600000Y-74925000D02*
X51025000Y-74925000D01*
X54600000Y-74925000D02*
X54600000Y-75549998D01*
X54600000Y-75549998D02*
X55300002Y-76250000D01*
X102157700Y-62350000D02*
X102152498Y-62355202D01*
X101542300Y-62350000D02*
X72050000Y-62350000D01*
X101547502Y-62355202D02*
X101542300Y-62350000D01*
X102152498Y-62355202D02*
X101547502Y-62355202D01*
X107200000Y-62350000D02*
X102157700Y-62350000D01*
X70400000Y-77310000D02*
X70853604Y-77310000D01*
X70853604Y-77310000D02*
X71146858Y-77016746D01*
X71146858Y-77016746D02*
X71146858Y-75620438D01*
X69100000Y-55850040D02*
X39700000Y-55850040D01*
X277099480Y-35500520D02*
X281300000Y-35500520D01*
X273419759Y-39180241D02*
X277099480Y-35500520D01*
X239619759Y-39180241D02*
X273419759Y-39180241D01*
X239600000Y-39200000D02*
X239619759Y-39180241D01*
X235949962Y-55850040D02*
X235950000Y-55850002D01*
X69100000Y-55850040D02*
X235949962Y-55850040D01*
X69042789Y-75210618D02*
X69800000Y-74453408D01*
X69800000Y-74453408D02*
X69800000Y-73181891D01*
X69042789Y-75867211D02*
X69042789Y-75210618D01*
X69800000Y-73181891D02*
X69799790Y-73181681D01*
X69000000Y-75910000D02*
X69042789Y-75867211D01*
X66114420Y-89785580D02*
X64850000Y-91050000D01*
X66500000Y-82710000D02*
X66500000Y-85870222D01*
X66114420Y-86255802D02*
X66114420Y-89785580D01*
X66500000Y-85870222D02*
X66114420Y-86255802D01*
X61739000Y-86575000D02*
X61357174Y-86575000D01*
X61357174Y-86575000D02*
X60000000Y-86575000D01*
X65000000Y-83314000D02*
X61739000Y-86575000D01*
X65000000Y-82710000D02*
X65000000Y-83314000D01*
X72640040Y-84050040D02*
X70400000Y-81810000D01*
X72800000Y-84050040D02*
X72640040Y-84050040D01*
X61020040Y-76850040D02*
X57950000Y-76850040D01*
X62480000Y-78310000D02*
X61020040Y-76850040D01*
X63600000Y-78310000D02*
X62480000Y-78310000D01*
X58047250Y-80352790D02*
X57950000Y-80450040D01*
X63557210Y-80352790D02*
X58047250Y-80352790D01*
X63600000Y-80310000D02*
X63557210Y-80352790D01*
X61890000Y-80810000D02*
X61419759Y-81280241D01*
X56780201Y-81280241D02*
X55950000Y-80450040D01*
X61419759Y-81280241D02*
X56780201Y-81280241D01*
X63600000Y-80810000D02*
X61890000Y-80810000D01*
X62427799Y-95519441D02*
X63983358Y-97075000D01*
X62427799Y-92226201D02*
X62427799Y-95519441D01*
X62650000Y-92004000D02*
X62427799Y-92226201D01*
X63983358Y-97075000D02*
X66300000Y-97075000D01*
X62650000Y-91000000D02*
X62650000Y-92004000D01*
X62650000Y-89073629D02*
X66000000Y-85723629D01*
X62650000Y-91000000D02*
X62650000Y-89073629D01*
X66000000Y-85723629D02*
X66000000Y-82710000D01*
X142300000Y-54150040D02*
X104300000Y-54150040D01*
X142300000Y-54150040D02*
X218500000Y-54150040D01*
X66100000Y-54150040D02*
X104300000Y-54150040D01*
X270500000Y-54850000D02*
X267600000Y-54850000D01*
X218500000Y-54150040D02*
X237450000Y-54150040D01*
X265800520Y-54850000D02*
X267600000Y-54850000D01*
X260677588Y-59972932D02*
X265800520Y-54850000D01*
X245822932Y-59972932D02*
X260677588Y-59972932D01*
X242350000Y-56500000D02*
X245822932Y-59972932D01*
X242350000Y-55300520D02*
X242350000Y-56500000D01*
X241199480Y-54150000D02*
X242350000Y-55300520D01*
X237450000Y-54150000D02*
X241199480Y-54150000D01*
X70400000Y-76810000D02*
X70400000Y-75200000D01*
X71250006Y-74349994D02*
X71250006Y-73650000D01*
X70400000Y-75200000D02*
X71250006Y-74349994D01*
X85300000Y-54950040D02*
X123300000Y-54950040D01*
X199500000Y-54950040D02*
X180500000Y-54950040D01*
X180500000Y-54950040D02*
X161700000Y-54950040D01*
X161700000Y-54950040D02*
X123300000Y-54950040D01*
X85300000Y-54950040D02*
X42350000Y-54950040D01*
X41050040Y-54950040D02*
X41050000Y-54950000D01*
X42350000Y-54950040D02*
X41050040Y-54950040D01*
X199500000Y-54950040D02*
X240250000Y-54950040D01*
X63571286Y-75910000D02*
X60680643Y-73019357D01*
X64500000Y-75910000D02*
X63571286Y-75910000D01*
X44268413Y-22721609D02*
X44146191Y-22897455D01*
X44060624Y-23093767D01*
X44015000Y-23303000D01*
X44015000Y-23703000D01*
X44973000Y-23703000D01*
X44973000Y-23683000D01*
X45227000Y-23683000D01*
X45227000Y-23703000D01*
X46185000Y-23703000D01*
X46185000Y-23303000D01*
X46139376Y-23093767D01*
X46055440Y-22901196D01*
X46123478Y-22956688D01*
X46171252Y-22988429D01*
X46218550Y-23020814D01*
X46226319Y-23025015D01*
X46312480Y-23070827D01*
X46365507Y-23092683D01*
X46418184Y-23115260D01*
X46426621Y-23117873D01*
X46520039Y-23146078D01*
X46576284Y-23157214D01*
X46632371Y-23169136D01*
X46641155Y-23170059D01*
X46657043Y-23171617D01*
X46646301Y-26636205D01*
X46636641Y-26668050D01*
X46623644Y-26800000D01*
X46626901Y-26833066D01*
X46626900Y-29621193D01*
X46414855Y-29833239D01*
X44976716Y-29833239D01*
X44943660Y-29829983D01*
X44910604Y-29833239D01*
X44910602Y-29833239D01*
X44811710Y-29842979D01*
X44684831Y-29881468D01*
X44567898Y-29943970D01*
X44531858Y-29973547D01*
X43444783Y-29973531D01*
X42412358Y-28941107D01*
X42444384Y-28927841D01*
X42475000Y-28907384D01*
X42505616Y-28927841D01*
X42657139Y-28990604D01*
X42817996Y-29022600D01*
X42982004Y-29022600D01*
X43142861Y-28990604D01*
X43265756Y-28939699D01*
X43275784Y-29058767D01*
X43454384Y-29134589D01*
X43644344Y-29174110D01*
X43838364Y-29175813D01*
X44028989Y-29139632D01*
X44208893Y-29066957D01*
X44224216Y-29058767D01*
X44240912Y-28860517D01*
X43750000Y-28369605D01*
X43735858Y-28383748D01*
X43714601Y-28362491D01*
X43732600Y-28272004D01*
X43732600Y-28107996D01*
X43714601Y-28017509D01*
X43735858Y-27996253D01*
X43750000Y-28010395D01*
X43764143Y-27996253D01*
X43943748Y-28175858D01*
X43929605Y-28190000D01*
X44079775Y-28340170D01*
X44146191Y-28492545D01*
X44268413Y-28668391D01*
X44422592Y-28817014D01*
X44602803Y-28932702D01*
X44805999Y-29004408D01*
X44973000Y-28877502D01*
X44973000Y-27337000D01*
X45227000Y-27337000D01*
X45227000Y-28877502D01*
X45394001Y-29004408D01*
X45597197Y-28932702D01*
X45777408Y-28817014D01*
X45931587Y-28668391D01*
X46053809Y-28492545D01*
X46139376Y-28296233D01*
X46185000Y-28087000D01*
X46185000Y-27337000D01*
X45227000Y-27337000D01*
X44973000Y-27337000D01*
X44426608Y-27337000D01*
X44420520Y-27330912D01*
X44618767Y-27314216D01*
X44694589Y-27135616D01*
X44705536Y-27083000D01*
X44973000Y-27083000D01*
X44973000Y-25542498D01*
X45227000Y-25542498D01*
X45227000Y-27083000D01*
X46185000Y-27083000D01*
X46185000Y-26333000D01*
X46139376Y-26123767D01*
X46053809Y-25927455D01*
X45931587Y-25751609D01*
X45777408Y-25602986D01*
X45597197Y-25487298D01*
X45394001Y-25415592D01*
X45227000Y-25542498D01*
X44973000Y-25542498D01*
X44805999Y-25415592D01*
X44602803Y-25487298D01*
X44422592Y-25602986D01*
X44268413Y-25751609D01*
X44146191Y-25927455D01*
X44142272Y-25936445D01*
X44045616Y-25895411D01*
X43855656Y-25855890D01*
X43661636Y-25854187D01*
X43471011Y-25890368D01*
X43418765Y-25911474D01*
X43379807Y-25864003D01*
X43354128Y-25842929D01*
X43152160Y-25640961D01*
X43131081Y-25615276D01*
X43028588Y-25531163D01*
X42911655Y-25468661D01*
X42784776Y-25430172D01*
X42685884Y-25420432D01*
X42685881Y-25420432D01*
X42652825Y-25417176D01*
X42619769Y-25420432D01*
X38933334Y-25420432D01*
X38900278Y-25417176D01*
X38867222Y-25420432D01*
X38867220Y-25420432D01*
X38768328Y-25430172D01*
X38641449Y-25468661D01*
X38524516Y-25531163D01*
X38422023Y-25615276D01*
X38400944Y-25640961D01*
X38198976Y-25842929D01*
X38173297Y-25864003D01*
X38134110Y-25911753D01*
X38095616Y-25895411D01*
X37905656Y-25855890D01*
X37711636Y-25854187D01*
X37521011Y-25890368D01*
X37407611Y-25936178D01*
X37403809Y-25927455D01*
X37281587Y-25751609D01*
X37127408Y-25602986D01*
X36947197Y-25487298D01*
X36744001Y-25415592D01*
X36577000Y-25542498D01*
X36577000Y-27083000D01*
X36843537Y-27083000D01*
X36850368Y-27118989D01*
X36923043Y-27298893D01*
X36931233Y-27314216D01*
X37129480Y-27330912D01*
X37123392Y-27337000D01*
X36577000Y-27337000D01*
X36577000Y-28877502D01*
X36744001Y-29004408D01*
X36947197Y-28932702D01*
X37127408Y-28817014D01*
X37281587Y-28668391D01*
X37403809Y-28492545D01*
X37470225Y-28340170D01*
X37620395Y-28190000D01*
X37606253Y-28175858D01*
X37785858Y-27996253D01*
X37800000Y-28010395D01*
X37814143Y-27996253D01*
X37835399Y-28017509D01*
X37817400Y-28107996D01*
X37817400Y-28272004D01*
X37835399Y-28362491D01*
X37814143Y-28383748D01*
X37800000Y-28369605D01*
X37309088Y-28860517D01*
X37325784Y-29058767D01*
X37504384Y-29134589D01*
X37694344Y-29174110D01*
X37888364Y-29175813D01*
X38078989Y-29139632D01*
X38258893Y-29066957D01*
X38274216Y-29058767D01*
X38284244Y-28939699D01*
X38407139Y-28990604D01*
X38567996Y-29022600D01*
X38732004Y-29022600D01*
X38892861Y-28990604D01*
X39044384Y-28927841D01*
X39075000Y-28907384D01*
X39105616Y-28927841D01*
X39257139Y-28990604D01*
X39417996Y-29022600D01*
X39582004Y-29022600D01*
X39675439Y-29004015D01*
X39678452Y-29034608D01*
X39678452Y-29034610D01*
X39688192Y-29133502D01*
X39726681Y-29260381D01*
X39789183Y-29377314D01*
X39873296Y-29479807D01*
X39898976Y-29500882D01*
X40371579Y-29973485D01*
X34789954Y-29973402D01*
X34798127Y-27337000D01*
X35365000Y-27337000D01*
X35365000Y-28087000D01*
X35410624Y-28296233D01*
X35496191Y-28492545D01*
X35618413Y-28668391D01*
X35772592Y-28817014D01*
X35952803Y-28932702D01*
X36155999Y-29004408D01*
X36323000Y-28877502D01*
X36323000Y-27337000D01*
X35365000Y-27337000D01*
X34798127Y-27337000D01*
X34801239Y-26333000D01*
X35365000Y-26333000D01*
X35365000Y-27083000D01*
X36323000Y-27083000D01*
X36323000Y-25542498D01*
X36155999Y-25415592D01*
X35952803Y-25487298D01*
X35772592Y-25602986D01*
X35618413Y-25751609D01*
X35496191Y-25927455D01*
X35410624Y-26123767D01*
X35365000Y-26333000D01*
X34801239Y-26333000D01*
X34808606Y-23957000D01*
X35365000Y-23957000D01*
X35365000Y-24357000D01*
X35410624Y-24566233D01*
X35496191Y-24762545D01*
X35618413Y-24938391D01*
X35772592Y-25087014D01*
X35952803Y-25202702D01*
X36155999Y-25274408D01*
X36323000Y-25147502D01*
X36323000Y-23957000D01*
X36577000Y-23957000D01*
X36577000Y-25147502D01*
X36744001Y-25274408D01*
X36947197Y-25202702D01*
X37127408Y-25087014D01*
X37281587Y-24938391D01*
X37403809Y-24762545D01*
X37489376Y-24566233D01*
X37535000Y-24357000D01*
X37535000Y-23957000D01*
X44015000Y-23957000D01*
X44015000Y-24357000D01*
X44060624Y-24566233D01*
X44146191Y-24762545D01*
X44268413Y-24938391D01*
X44422592Y-25087014D01*
X44602803Y-25202702D01*
X44805999Y-25274408D01*
X44973000Y-25147502D01*
X44973000Y-23957000D01*
X45227000Y-23957000D01*
X45227000Y-25147502D01*
X45394001Y-25274408D01*
X45597197Y-25202702D01*
X45777408Y-25087014D01*
X45931587Y-24938391D01*
X46053809Y-24762545D01*
X46139376Y-24566233D01*
X46185000Y-24357000D01*
X46185000Y-23957000D01*
X45227000Y-23957000D01*
X44973000Y-23957000D01*
X44015000Y-23957000D01*
X37535000Y-23957000D01*
X36577000Y-23957000D01*
X36323000Y-23957000D01*
X35365000Y-23957000D01*
X34808606Y-23957000D01*
X34811008Y-23182600D01*
X34831069Y-23182600D01*
X34857841Y-23179963D01*
X34860825Y-23179984D01*
X34869615Y-23179123D01*
X34917936Y-23174044D01*
X34924011Y-23173446D01*
X34924214Y-23173385D01*
X34966663Y-23168923D01*
X35022861Y-23157387D01*
X35079148Y-23146650D01*
X35087601Y-23144098D01*
X35087607Y-23144096D01*
X35180822Y-23115241D01*
X35233710Y-23093009D01*
X35286842Y-23071542D01*
X35294634Y-23067400D01*
X35294638Y-23067398D01*
X35294641Y-23067396D01*
X35380478Y-23020983D01*
X35427983Y-22988940D01*
X35467621Y-22963002D01*
X35410624Y-23093767D01*
X35365000Y-23303000D01*
X35365000Y-23703000D01*
X36323000Y-23703000D01*
X36323000Y-23683000D01*
X36577000Y-23683000D01*
X36577000Y-23703000D01*
X37535000Y-23703000D01*
X37535000Y-23303000D01*
X37489376Y-23093767D01*
X37403809Y-22897455D01*
X37281587Y-22721609D01*
X37241120Y-22682600D01*
X44308880Y-22682600D01*
X44268413Y-22721609D01*
G04 #@! TA.AperFunction,Conductor*
D38*
G36*
X44268413Y-22721609D02*
G01*
X44146191Y-22897455D01*
X44060624Y-23093767D01*
X44015000Y-23303000D01*
X44015000Y-23703000D01*
X44973000Y-23703000D01*
X44973000Y-23683000D01*
X45227000Y-23683000D01*
X45227000Y-23703000D01*
X46185000Y-23703000D01*
X46185000Y-23303000D01*
X46139376Y-23093767D01*
X46055440Y-22901196D01*
X46123478Y-22956688D01*
X46171252Y-22988429D01*
X46218550Y-23020814D01*
X46226319Y-23025015D01*
X46312480Y-23070827D01*
X46365507Y-23092683D01*
X46418184Y-23115260D01*
X46426621Y-23117873D01*
X46520039Y-23146078D01*
X46576284Y-23157214D01*
X46632371Y-23169136D01*
X46641155Y-23170059D01*
X46657043Y-23171617D01*
X46646301Y-26636205D01*
X46636641Y-26668050D01*
X46623644Y-26800000D01*
X46626901Y-26833066D01*
X46626900Y-29621193D01*
X46414855Y-29833239D01*
X44976716Y-29833239D01*
X44943660Y-29829983D01*
X44910604Y-29833239D01*
X44910602Y-29833239D01*
X44811710Y-29842979D01*
X44684831Y-29881468D01*
X44567898Y-29943970D01*
X44531858Y-29973547D01*
X43444783Y-29973531D01*
X42412358Y-28941107D01*
X42444384Y-28927841D01*
X42475000Y-28907384D01*
X42505616Y-28927841D01*
X42657139Y-28990604D01*
X42817996Y-29022600D01*
X42982004Y-29022600D01*
X43142861Y-28990604D01*
X43265756Y-28939699D01*
X43275784Y-29058767D01*
X43454384Y-29134589D01*
X43644344Y-29174110D01*
X43838364Y-29175813D01*
X44028989Y-29139632D01*
X44208893Y-29066957D01*
X44224216Y-29058767D01*
X44240912Y-28860517D01*
X43750000Y-28369605D01*
X43735858Y-28383748D01*
X43714601Y-28362491D01*
X43732600Y-28272004D01*
X43732600Y-28107996D01*
X43714601Y-28017509D01*
X43735858Y-27996253D01*
X43750000Y-28010395D01*
X43764143Y-27996253D01*
X43943748Y-28175858D01*
X43929605Y-28190000D01*
X44079775Y-28340170D01*
X44146191Y-28492545D01*
X44268413Y-28668391D01*
X44422592Y-28817014D01*
X44602803Y-28932702D01*
X44805999Y-29004408D01*
X44973000Y-28877502D01*
X44973000Y-27337000D01*
X45227000Y-27337000D01*
X45227000Y-28877502D01*
X45394001Y-29004408D01*
X45597197Y-28932702D01*
X45777408Y-28817014D01*
X45931587Y-28668391D01*
X46053809Y-28492545D01*
X46139376Y-28296233D01*
X46185000Y-28087000D01*
X46185000Y-27337000D01*
X45227000Y-27337000D01*
X44973000Y-27337000D01*
X44426608Y-27337000D01*
X44420520Y-27330912D01*
X44618767Y-27314216D01*
X44694589Y-27135616D01*
X44705536Y-27083000D01*
X44973000Y-27083000D01*
X44973000Y-25542498D01*
X45227000Y-25542498D01*
X45227000Y-27083000D01*
X46185000Y-27083000D01*
X46185000Y-26333000D01*
X46139376Y-26123767D01*
X46053809Y-25927455D01*
X45931587Y-25751609D01*
X45777408Y-25602986D01*
X45597197Y-25487298D01*
X45394001Y-25415592D01*
X45227000Y-25542498D01*
X44973000Y-25542498D01*
X44805999Y-25415592D01*
X44602803Y-25487298D01*
X44422592Y-25602986D01*
X44268413Y-25751609D01*
X44146191Y-25927455D01*
X44142272Y-25936445D01*
X44045616Y-25895411D01*
X43855656Y-25855890D01*
X43661636Y-25854187D01*
X43471011Y-25890368D01*
X43418765Y-25911474D01*
X43379807Y-25864003D01*
X43354128Y-25842929D01*
X43152160Y-25640961D01*
X43131081Y-25615276D01*
X43028588Y-25531163D01*
X42911655Y-25468661D01*
X42784776Y-25430172D01*
X42685884Y-25420432D01*
X42685881Y-25420432D01*
X42652825Y-25417176D01*
X42619769Y-25420432D01*
X38933334Y-25420432D01*
X38900278Y-25417176D01*
X38867222Y-25420432D01*
X38867220Y-25420432D01*
X38768328Y-25430172D01*
X38641449Y-25468661D01*
X38524516Y-25531163D01*
X38422023Y-25615276D01*
X38400944Y-25640961D01*
X38198976Y-25842929D01*
X38173297Y-25864003D01*
X38134110Y-25911753D01*
X38095616Y-25895411D01*
X37905656Y-25855890D01*
X37711636Y-25854187D01*
X37521011Y-25890368D01*
X37407611Y-25936178D01*
X37403809Y-25927455D01*
X37281587Y-25751609D01*
X37127408Y-25602986D01*
X36947197Y-25487298D01*
X36744001Y-25415592D01*
X36577000Y-25542498D01*
X36577000Y-27083000D01*
X36843537Y-27083000D01*
X36850368Y-27118989D01*
X36923043Y-27298893D01*
X36931233Y-27314216D01*
X37129480Y-27330912D01*
X37123392Y-27337000D01*
X36577000Y-27337000D01*
X36577000Y-28877502D01*
X36744001Y-29004408D01*
X36947197Y-28932702D01*
X37127408Y-28817014D01*
X37281587Y-28668391D01*
X37403809Y-28492545D01*
X37470225Y-28340170D01*
X37620395Y-28190000D01*
X37606253Y-28175858D01*
X37785858Y-27996253D01*
X37800000Y-28010395D01*
X37814143Y-27996253D01*
X37835399Y-28017509D01*
X37817400Y-28107996D01*
X37817400Y-28272004D01*
X37835399Y-28362491D01*
X37814143Y-28383748D01*
X37800000Y-28369605D01*
X37309088Y-28860517D01*
X37325784Y-29058767D01*
X37504384Y-29134589D01*
X37694344Y-29174110D01*
X37888364Y-29175813D01*
X38078989Y-29139632D01*
X38258893Y-29066957D01*
X38274216Y-29058767D01*
X38284244Y-28939699D01*
X38407139Y-28990604D01*
X38567996Y-29022600D01*
X38732004Y-29022600D01*
X38892861Y-28990604D01*
X39044384Y-28927841D01*
X39075000Y-28907384D01*
X39105616Y-28927841D01*
X39257139Y-28990604D01*
X39417996Y-29022600D01*
X39582004Y-29022600D01*
X39675439Y-29004015D01*
X39678452Y-29034608D01*
X39678452Y-29034610D01*
X39688192Y-29133502D01*
X39726681Y-29260381D01*
X39789183Y-29377314D01*
X39873296Y-29479807D01*
X39898976Y-29500882D01*
X40371579Y-29973485D01*
X34789954Y-29973402D01*
X34798127Y-27337000D01*
X35365000Y-27337000D01*
X35365000Y-28087000D01*
X35410624Y-28296233D01*
X35496191Y-28492545D01*
X35618413Y-28668391D01*
X35772592Y-28817014D01*
X35952803Y-28932702D01*
X36155999Y-29004408D01*
X36323000Y-28877502D01*
X36323000Y-27337000D01*
X35365000Y-27337000D01*
X34798127Y-27337000D01*
X34801239Y-26333000D01*
X35365000Y-26333000D01*
X35365000Y-27083000D01*
X36323000Y-27083000D01*
X36323000Y-25542498D01*
X36155999Y-25415592D01*
X35952803Y-25487298D01*
X35772592Y-25602986D01*
X35618413Y-25751609D01*
X35496191Y-25927455D01*
X35410624Y-26123767D01*
X35365000Y-26333000D01*
X34801239Y-26333000D01*
X34808606Y-23957000D01*
X35365000Y-23957000D01*
X35365000Y-24357000D01*
X35410624Y-24566233D01*
X35496191Y-24762545D01*
X35618413Y-24938391D01*
X35772592Y-25087014D01*
X35952803Y-25202702D01*
X36155999Y-25274408D01*
X36323000Y-25147502D01*
X36323000Y-23957000D01*
X36577000Y-23957000D01*
X36577000Y-25147502D01*
X36744001Y-25274408D01*
X36947197Y-25202702D01*
X37127408Y-25087014D01*
X37281587Y-24938391D01*
X37403809Y-24762545D01*
X37489376Y-24566233D01*
X37535000Y-24357000D01*
X37535000Y-23957000D01*
X44015000Y-23957000D01*
X44015000Y-24357000D01*
X44060624Y-24566233D01*
X44146191Y-24762545D01*
X44268413Y-24938391D01*
X44422592Y-25087014D01*
X44602803Y-25202702D01*
X44805999Y-25274408D01*
X44973000Y-25147502D01*
X44973000Y-23957000D01*
X45227000Y-23957000D01*
X45227000Y-25147502D01*
X45394001Y-25274408D01*
X45597197Y-25202702D01*
X45777408Y-25087014D01*
X45931587Y-24938391D01*
X46053809Y-24762545D01*
X46139376Y-24566233D01*
X46185000Y-24357000D01*
X46185000Y-23957000D01*
X45227000Y-23957000D01*
X44973000Y-23957000D01*
X44015000Y-23957000D01*
X37535000Y-23957000D01*
X36577000Y-23957000D01*
X36323000Y-23957000D01*
X35365000Y-23957000D01*
X34808606Y-23957000D01*
X34811008Y-23182600D01*
X34831069Y-23182600D01*
X34857841Y-23179963D01*
X34860825Y-23179984D01*
X34869615Y-23179123D01*
X34917936Y-23174044D01*
X34924011Y-23173446D01*
X34924214Y-23173385D01*
X34966663Y-23168923D01*
X35022861Y-23157387D01*
X35079148Y-23146650D01*
X35087601Y-23144098D01*
X35087607Y-23144096D01*
X35180822Y-23115241D01*
X35233710Y-23093009D01*
X35286842Y-23071542D01*
X35294634Y-23067400D01*
X35294638Y-23067398D01*
X35294641Y-23067396D01*
X35380478Y-23020983D01*
X35427983Y-22988940D01*
X35467621Y-22963002D01*
X35410624Y-23093767D01*
X35365000Y-23303000D01*
X35365000Y-23703000D01*
X36323000Y-23703000D01*
X36323000Y-23683000D01*
X36577000Y-23683000D01*
X36577000Y-23703000D01*
X37535000Y-23703000D01*
X37535000Y-23303000D01*
X37489376Y-23093767D01*
X37403809Y-22897455D01*
X37281587Y-22721609D01*
X37241120Y-22682600D01*
X44308880Y-22682600D01*
X44268413Y-22721609D01*
G37*
G04 #@! TD.AperFunction*
D37*
X43943748Y-26825858D02*
X43929605Y-26840000D01*
X43943748Y-26854143D01*
X43764143Y-27033748D01*
X43750000Y-27019605D01*
X43735858Y-27033748D01*
X43714601Y-27012491D01*
X43732600Y-26922004D01*
X43732600Y-26757996D01*
X43714601Y-26667509D01*
X43735858Y-26646253D01*
X43750000Y-26660395D01*
X43764143Y-26646253D01*
X43943748Y-26825858D01*
G04 #@! TA.AperFunction,Conductor*
D38*
G36*
X43943748Y-26825858D02*
G01*
X43929605Y-26840000D01*
X43943748Y-26854143D01*
X43764143Y-27033748D01*
X43750000Y-27019605D01*
X43735858Y-27033748D01*
X43714601Y-27012491D01*
X43732600Y-26922004D01*
X43732600Y-26757996D01*
X43714601Y-26667509D01*
X43735858Y-26646253D01*
X43750000Y-26660395D01*
X43764143Y-26646253D01*
X43943748Y-26825858D01*
G37*
G04 #@! TD.AperFunction*
D37*
X37835399Y-26667509D02*
X37817400Y-26757996D01*
X37817400Y-26922004D01*
X37835399Y-27012491D01*
X37814143Y-27033748D01*
X37800000Y-27019605D01*
X37785858Y-27033748D01*
X37606253Y-26854143D01*
X37620395Y-26840000D01*
X37606253Y-26825858D01*
X37785858Y-26646253D01*
X37800000Y-26660395D01*
X37814143Y-26646253D01*
X37835399Y-26667509D01*
G04 #@! TA.AperFunction,Conductor*
D38*
G36*
X37835399Y-26667509D02*
G01*
X37817400Y-26757996D01*
X37817400Y-26922004D01*
X37835399Y-27012491D01*
X37814143Y-27033748D01*
X37800000Y-27019605D01*
X37785858Y-27033748D01*
X37606253Y-26854143D01*
X37620395Y-26840000D01*
X37606253Y-26825858D01*
X37785858Y-26646253D01*
X37800000Y-26660395D01*
X37814143Y-26646253D01*
X37835399Y-26667509D01*
G37*
G04 #@! TD.AperFunction*
D37*
X77154361Y-70925156D02*
X77205354Y-71048263D01*
X77476377Y-71453877D01*
X77821323Y-71798823D01*
X78226937Y-72069846D01*
X78677632Y-72256530D01*
X79156086Y-72351700D01*
X79643914Y-72351700D01*
X79773877Y-72325849D01*
X84113589Y-72315301D01*
X84033108Y-81404789D01*
X83951954Y-81485943D01*
X74590417Y-81528313D01*
X72999623Y-79937520D01*
X74168856Y-79937520D01*
X74258414Y-80011018D01*
X74364316Y-80067623D01*
X74452480Y-80094368D01*
X74479225Y-80102481D01*
X74598728Y-80114251D01*
X74628669Y-80111302D01*
X77552747Y-80111302D01*
X77582688Y-80114251D01*
X77612629Y-80111302D01*
X77702190Y-80102481D01*
X77817100Y-80067623D01*
X77923002Y-80011018D01*
X78015826Y-79934840D01*
X78034923Y-79911570D01*
X78290057Y-79656436D01*
X79862889Y-79656436D01*
X79957495Y-79647118D01*
X80048466Y-79619523D01*
X80132304Y-79574710D01*
X80205790Y-79514402D01*
X80266098Y-79440916D01*
X80310911Y-79357078D01*
X80338506Y-79266107D01*
X80347824Y-79171501D01*
X80347824Y-78950449D01*
X80378964Y-79008708D01*
X80470362Y-79120078D01*
X80581732Y-79211476D01*
X80708792Y-79279391D01*
X80846660Y-79321213D01*
X80990039Y-79335335D01*
X81890041Y-79335335D01*
X82033420Y-79321213D01*
X82171288Y-79279391D01*
X82298348Y-79211476D01*
X82409718Y-79120078D01*
X82501116Y-79008708D01*
X82569031Y-78881648D01*
X82610853Y-78743780D01*
X82624975Y-78600401D01*
X82624975Y-77950399D01*
X82610853Y-77807020D01*
X82569031Y-77669152D01*
X82501116Y-77542092D01*
X82409718Y-77430722D01*
X82366520Y-77395271D01*
X82384220Y-77389902D01*
X82494534Y-77330937D01*
X82591225Y-77251585D01*
X82670577Y-77154894D01*
X82729542Y-77044580D01*
X82765852Y-76924882D01*
X82778112Y-76800400D01*
X82775040Y-76511150D01*
X82616290Y-76352400D01*
X81567040Y-76352400D01*
X81567040Y-76372400D01*
X81313040Y-76372400D01*
X81313040Y-76352400D01*
X81293040Y-76352400D01*
X81293040Y-76098400D01*
X81313040Y-76098400D01*
X81313040Y-75174150D01*
X81567040Y-75174150D01*
X81567040Y-76098400D01*
X82616290Y-76098400D01*
X82775040Y-75939650D01*
X82778112Y-75650400D01*
X82765852Y-75525918D01*
X82729542Y-75406220D01*
X82670577Y-75295906D01*
X82591225Y-75199215D01*
X82494534Y-75119863D01*
X82384220Y-75060898D01*
X82264522Y-75024588D01*
X82140040Y-75012328D01*
X81725790Y-75015400D01*
X81567040Y-75174150D01*
X81313040Y-75174150D01*
X81154290Y-75015400D01*
X80740040Y-75012328D01*
X80615558Y-75024588D01*
X80499799Y-75059703D01*
X80488701Y-74947019D01*
X80452391Y-74827321D01*
X80393426Y-74717007D01*
X80314074Y-74620316D01*
X80217383Y-74540964D01*
X80107069Y-74481999D01*
X79987371Y-74445689D01*
X79862889Y-74433429D01*
X79098639Y-74436501D01*
X78939889Y-74595251D01*
X78939889Y-75844501D01*
X78959889Y-75844501D01*
X78959889Y-76098501D01*
X78939889Y-76098501D01*
X78939889Y-76118501D01*
X78685889Y-76118501D01*
X78685889Y-76098501D01*
X78665889Y-76098501D01*
X78665889Y-75844501D01*
X78685889Y-75844501D01*
X78685889Y-74595251D01*
X78619230Y-74528592D01*
X78650812Y-74424482D01*
X78663072Y-74300000D01*
X78660000Y-73885750D01*
X78501250Y-73727000D01*
X77577000Y-73727000D01*
X77577000Y-73747000D01*
X77323000Y-73747000D01*
X77323000Y-73727000D01*
X77303000Y-73727000D01*
X77303000Y-73473000D01*
X77323000Y-73473000D01*
X77323000Y-72423750D01*
X77577000Y-72423750D01*
X77577000Y-73473000D01*
X78501250Y-73473000D01*
X78660000Y-73314250D01*
X78663072Y-72900000D01*
X78650812Y-72775518D01*
X78614502Y-72655820D01*
X78555537Y-72545506D01*
X78476185Y-72448815D01*
X78379494Y-72369463D01*
X78269180Y-72310498D01*
X78149482Y-72274188D01*
X78025000Y-72261928D01*
X77735750Y-72265000D01*
X77577000Y-72423750D01*
X77323000Y-72423750D01*
X77164250Y-72265000D01*
X76875000Y-72261928D01*
X76750518Y-72274188D01*
X76630820Y-72310498D01*
X76520506Y-72369463D01*
X76423815Y-72448815D01*
X76344463Y-72545506D01*
X76285498Y-72655820D01*
X76280129Y-72673520D01*
X76244678Y-72630322D01*
X76133308Y-72538924D01*
X76006248Y-72471009D01*
X75868380Y-72429187D01*
X75725001Y-72415065D01*
X75074999Y-72415065D01*
X74931620Y-72429187D01*
X74793752Y-72471009D01*
X74666692Y-72538924D01*
X74555322Y-72630322D01*
X74463924Y-72741692D01*
X74396009Y-72868752D01*
X74354187Y-73006620D01*
X74340065Y-73149999D01*
X74340065Y-74050001D01*
X74354187Y-74193380D01*
X74396009Y-74331248D01*
X74463924Y-74458308D01*
X74555322Y-74569678D01*
X74643138Y-74641746D01*
X74593474Y-74668292D01*
X74519988Y-74728600D01*
X74459680Y-74802086D01*
X74414867Y-74885924D01*
X74387272Y-74976895D01*
X74377954Y-75071501D01*
X74377954Y-76494332D01*
X72862882Y-78009405D01*
X72913973Y-72037158D01*
X73000000Y-72038072D01*
X73124482Y-72025812D01*
X73244180Y-71989502D01*
X73354494Y-71930537D01*
X73451185Y-71851185D01*
X73530537Y-71754494D01*
X73589502Y-71644180D01*
X73625812Y-71524482D01*
X73638072Y-71400000D01*
X73635481Y-71050591D01*
X73676935Y-71078290D01*
X73924003Y-71180628D01*
X74186288Y-71232800D01*
X74453712Y-71232800D01*
X74715997Y-71180628D01*
X74963065Y-71078290D01*
X75185420Y-70929717D01*
X75198083Y-70917054D01*
X77154361Y-70925156D01*
G04 #@! TA.AperFunction,Conductor*
D38*
G36*
X77154361Y-70925156D02*
G01*
X77205354Y-71048263D01*
X77476377Y-71453877D01*
X77821323Y-71798823D01*
X78226937Y-72069846D01*
X78677632Y-72256530D01*
X79156086Y-72351700D01*
X79643914Y-72351700D01*
X79773877Y-72325849D01*
X84113589Y-72315301D01*
X84033108Y-81404789D01*
X83951954Y-81485943D01*
X74590417Y-81528313D01*
X72999623Y-79937520D01*
X74168856Y-79937520D01*
X74258414Y-80011018D01*
X74364316Y-80067623D01*
X74452480Y-80094368D01*
X74479225Y-80102481D01*
X74598728Y-80114251D01*
X74628669Y-80111302D01*
X77552747Y-80111302D01*
X77582688Y-80114251D01*
X77612629Y-80111302D01*
X77702190Y-80102481D01*
X77817100Y-80067623D01*
X77923002Y-80011018D01*
X78015826Y-79934840D01*
X78034923Y-79911570D01*
X78290057Y-79656436D01*
X79862889Y-79656436D01*
X79957495Y-79647118D01*
X80048466Y-79619523D01*
X80132304Y-79574710D01*
X80205790Y-79514402D01*
X80266098Y-79440916D01*
X80310911Y-79357078D01*
X80338506Y-79266107D01*
X80347824Y-79171501D01*
X80347824Y-78950449D01*
X80378964Y-79008708D01*
X80470362Y-79120078D01*
X80581732Y-79211476D01*
X80708792Y-79279391D01*
X80846660Y-79321213D01*
X80990039Y-79335335D01*
X81890041Y-79335335D01*
X82033420Y-79321213D01*
X82171288Y-79279391D01*
X82298348Y-79211476D01*
X82409718Y-79120078D01*
X82501116Y-79008708D01*
X82569031Y-78881648D01*
X82610853Y-78743780D01*
X82624975Y-78600401D01*
X82624975Y-77950399D01*
X82610853Y-77807020D01*
X82569031Y-77669152D01*
X82501116Y-77542092D01*
X82409718Y-77430722D01*
X82366520Y-77395271D01*
X82384220Y-77389902D01*
X82494534Y-77330937D01*
X82591225Y-77251585D01*
X82670577Y-77154894D01*
X82729542Y-77044580D01*
X82765852Y-76924882D01*
X82778112Y-76800400D01*
X82775040Y-76511150D01*
X82616290Y-76352400D01*
X81567040Y-76352400D01*
X81567040Y-76372400D01*
X81313040Y-76372400D01*
X81313040Y-76352400D01*
X81293040Y-76352400D01*
X81293040Y-76098400D01*
X81313040Y-76098400D01*
X81313040Y-75174150D01*
X81567040Y-75174150D01*
X81567040Y-76098400D01*
X82616290Y-76098400D01*
X82775040Y-75939650D01*
X82778112Y-75650400D01*
X82765852Y-75525918D01*
X82729542Y-75406220D01*
X82670577Y-75295906D01*
X82591225Y-75199215D01*
X82494534Y-75119863D01*
X82384220Y-75060898D01*
X82264522Y-75024588D01*
X82140040Y-75012328D01*
X81725790Y-75015400D01*
X81567040Y-75174150D01*
X81313040Y-75174150D01*
X81154290Y-75015400D01*
X80740040Y-75012328D01*
X80615558Y-75024588D01*
X80499799Y-75059703D01*
X80488701Y-74947019D01*
X80452391Y-74827321D01*
X80393426Y-74717007D01*
X80314074Y-74620316D01*
X80217383Y-74540964D01*
X80107069Y-74481999D01*
X79987371Y-74445689D01*
X79862889Y-74433429D01*
X79098639Y-74436501D01*
X78939889Y-74595251D01*
X78939889Y-75844501D01*
X78959889Y-75844501D01*
X78959889Y-76098501D01*
X78939889Y-76098501D01*
X78939889Y-76118501D01*
X78685889Y-76118501D01*
X78685889Y-76098501D01*
X78665889Y-76098501D01*
X78665889Y-75844501D01*
X78685889Y-75844501D01*
X78685889Y-74595251D01*
X78619230Y-74528592D01*
X78650812Y-74424482D01*
X78663072Y-74300000D01*
X78660000Y-73885750D01*
X78501250Y-73727000D01*
X77577000Y-73727000D01*
X77577000Y-73747000D01*
X77323000Y-73747000D01*
X77323000Y-73727000D01*
X77303000Y-73727000D01*
X77303000Y-73473000D01*
X77323000Y-73473000D01*
X77323000Y-72423750D01*
X77577000Y-72423750D01*
X77577000Y-73473000D01*
X78501250Y-73473000D01*
X78660000Y-73314250D01*
X78663072Y-72900000D01*
X78650812Y-72775518D01*
X78614502Y-72655820D01*
X78555537Y-72545506D01*
X78476185Y-72448815D01*
X78379494Y-72369463D01*
X78269180Y-72310498D01*
X78149482Y-72274188D01*
X78025000Y-72261928D01*
X77735750Y-72265000D01*
X77577000Y-72423750D01*
X77323000Y-72423750D01*
X77164250Y-72265000D01*
X76875000Y-72261928D01*
X76750518Y-72274188D01*
X76630820Y-72310498D01*
X76520506Y-72369463D01*
X76423815Y-72448815D01*
X76344463Y-72545506D01*
X76285498Y-72655820D01*
X76280129Y-72673520D01*
X76244678Y-72630322D01*
X76133308Y-72538924D01*
X76006248Y-72471009D01*
X75868380Y-72429187D01*
X75725001Y-72415065D01*
X75074999Y-72415065D01*
X74931620Y-72429187D01*
X74793752Y-72471009D01*
X74666692Y-72538924D01*
X74555322Y-72630322D01*
X74463924Y-72741692D01*
X74396009Y-72868752D01*
X74354187Y-73006620D01*
X74340065Y-73149999D01*
X74340065Y-74050001D01*
X74354187Y-74193380D01*
X74396009Y-74331248D01*
X74463924Y-74458308D01*
X74555322Y-74569678D01*
X74643138Y-74641746D01*
X74593474Y-74668292D01*
X74519988Y-74728600D01*
X74459680Y-74802086D01*
X74414867Y-74885924D01*
X74387272Y-74976895D01*
X74377954Y-75071501D01*
X74377954Y-76494332D01*
X72862882Y-78009405D01*
X72913973Y-72037158D01*
X73000000Y-72038072D01*
X73124482Y-72025812D01*
X73244180Y-71989502D01*
X73354494Y-71930537D01*
X73451185Y-71851185D01*
X73530537Y-71754494D01*
X73589502Y-71644180D01*
X73625812Y-71524482D01*
X73638072Y-71400000D01*
X73635481Y-71050591D01*
X73676935Y-71078290D01*
X73924003Y-71180628D01*
X74186288Y-71232800D01*
X74453712Y-71232800D01*
X74715997Y-71180628D01*
X74963065Y-71078290D01*
X75185420Y-70929717D01*
X75198083Y-70917054D01*
X77154361Y-70925156D01*
G37*
G04 #@! TD.AperFunction*
D37*
X76039889Y-78144501D02*
X76059889Y-78144501D01*
X76059889Y-78398501D01*
X76039889Y-78398501D01*
X76039889Y-78418501D01*
X75785889Y-78418501D01*
X75785889Y-78398501D01*
X75765889Y-78398501D01*
X75765889Y-78144501D01*
X75785889Y-78144501D01*
X75785889Y-78124501D01*
X76039889Y-78124501D01*
X76039889Y-78144501D01*
G04 #@! TA.AperFunction,Conductor*
D38*
G36*
X76039889Y-78144501D02*
G01*
X76059889Y-78144501D01*
X76059889Y-78398501D01*
X76039889Y-78398501D01*
X76039889Y-78418501D01*
X75785889Y-78418501D01*
X75785889Y-78398501D01*
X75765889Y-78398501D01*
X75765889Y-78144501D01*
X75785889Y-78144501D01*
X75785889Y-78124501D01*
X76039889Y-78124501D01*
X76039889Y-78144501D01*
G37*
G04 #@! TD.AperFunction*
D37*
X65195750Y-77251750D02*
X66229250Y-77251750D01*
X66229250Y-77231750D01*
X66483250Y-77231750D01*
X66483250Y-77251750D01*
X67516750Y-77251750D01*
X67516750Y-77231750D01*
X67770750Y-77231750D01*
X67770750Y-77251750D01*
X68804250Y-77251750D01*
X68804250Y-77231750D01*
X69058250Y-77231750D01*
X69058250Y-77251750D01*
X69078250Y-77251750D01*
X69078250Y-77505750D01*
X69058250Y-77505750D01*
X69058250Y-78539250D01*
X69078250Y-78539250D01*
X69078250Y-78793250D01*
X69058250Y-78793250D01*
X69058250Y-79826750D01*
X69078250Y-79826750D01*
X69078250Y-80080750D01*
X69058250Y-80080750D01*
X69058250Y-81114250D01*
X69078250Y-81114250D01*
X69078250Y-81368250D01*
X69058250Y-81368250D01*
X69058250Y-81388250D01*
X68804250Y-81388250D01*
X68804250Y-81368250D01*
X67770750Y-81368250D01*
X67770750Y-81388250D01*
X67516750Y-81388250D01*
X67516750Y-81368250D01*
X66483250Y-81368250D01*
X66483250Y-81388250D01*
X66229250Y-81388250D01*
X66229250Y-81368250D01*
X65195750Y-81368250D01*
X65195750Y-81388250D01*
X64941750Y-81388250D01*
X64941750Y-81368250D01*
X64921750Y-81368250D01*
X64921750Y-81114250D01*
X64941750Y-81114250D01*
X64941750Y-80597500D01*
X65074428Y-80597500D01*
X65077500Y-80955500D01*
X65195750Y-81073750D01*
X65195750Y-81114250D01*
X65236250Y-81114250D01*
X65354500Y-81232500D01*
X65712500Y-81235572D01*
X66070500Y-81232500D01*
X66188750Y-81114250D01*
X66229250Y-81114250D01*
X66229250Y-81073750D01*
X66347500Y-80955500D01*
X66350572Y-80597500D01*
X66361928Y-80597500D01*
X66365000Y-80955500D01*
X66483250Y-81073750D01*
X66483250Y-81114250D01*
X66523750Y-81114250D01*
X66642000Y-81232500D01*
X67000000Y-81235572D01*
X67358000Y-81232500D01*
X67476250Y-81114250D01*
X67516750Y-81114250D01*
X67516750Y-81073750D01*
X67635000Y-80955500D01*
X67638072Y-80597500D01*
X67649428Y-80597500D01*
X67652500Y-80955500D01*
X67770750Y-81073750D01*
X67770750Y-81114250D01*
X67811250Y-81114250D01*
X67929500Y-81232500D01*
X68287500Y-81235572D01*
X68645500Y-81232500D01*
X68763750Y-81114250D01*
X68804250Y-81114250D01*
X68804250Y-81073750D01*
X68922500Y-80955500D01*
X68925572Y-80597500D01*
X68922500Y-80239500D01*
X68804250Y-80121250D01*
X68804250Y-80080750D01*
X68763750Y-80080750D01*
X68645500Y-79962500D01*
X68287500Y-79959428D01*
X67929500Y-79962500D01*
X67811250Y-80080750D01*
X67770750Y-80080750D01*
X67770750Y-80121250D01*
X67652500Y-80239500D01*
X67649428Y-80597500D01*
X67638072Y-80597500D01*
X67635000Y-80239500D01*
X67516750Y-80121250D01*
X67516750Y-80080750D01*
X67476250Y-80080750D01*
X67358000Y-79962500D01*
X67000000Y-79959428D01*
X66642000Y-79962500D01*
X66523750Y-80080750D01*
X66483250Y-80080750D01*
X66483250Y-80121250D01*
X66365000Y-80239500D01*
X66361928Y-80597500D01*
X66350572Y-80597500D01*
X66347500Y-80239500D01*
X66229250Y-80121250D01*
X66229250Y-80080750D01*
X66188750Y-80080750D01*
X66070500Y-79962500D01*
X65712500Y-79959428D01*
X65354500Y-79962500D01*
X65236250Y-80080750D01*
X65195750Y-80080750D01*
X65195750Y-80121250D01*
X65077500Y-80239500D01*
X65074428Y-80597500D01*
X64941750Y-80597500D01*
X64941750Y-80080750D01*
X64921750Y-80080750D01*
X64921750Y-79826750D01*
X64941750Y-79826750D01*
X64941750Y-79310000D01*
X65074428Y-79310000D01*
X65077500Y-79668000D01*
X65195750Y-79786250D01*
X65195750Y-79826750D01*
X65236250Y-79826750D01*
X65354500Y-79945000D01*
X65712500Y-79948072D01*
X66070500Y-79945000D01*
X66188750Y-79826750D01*
X66229250Y-79826750D01*
X66229250Y-79786250D01*
X66347500Y-79668000D01*
X66350572Y-79310000D01*
X66361928Y-79310000D01*
X66365000Y-79668000D01*
X66483250Y-79786250D01*
X66483250Y-79826750D01*
X66523750Y-79826750D01*
X66642000Y-79945000D01*
X67000000Y-79948072D01*
X67358000Y-79945000D01*
X67476250Y-79826750D01*
X67516750Y-79826750D01*
X67516750Y-79786250D01*
X67635000Y-79668000D01*
X67638072Y-79310000D01*
X67649428Y-79310000D01*
X67652500Y-79668000D01*
X67770750Y-79786250D01*
X67770750Y-79826750D01*
X67811250Y-79826750D01*
X67929500Y-79945000D01*
X68287500Y-79948072D01*
X68645500Y-79945000D01*
X68763750Y-79826750D01*
X68804250Y-79826750D01*
X68804250Y-79786250D01*
X68922500Y-79668000D01*
X68925572Y-79310000D01*
X68922500Y-78952000D01*
X68804250Y-78833750D01*
X68804250Y-78793250D01*
X68763750Y-78793250D01*
X68645500Y-78675000D01*
X68287500Y-78671928D01*
X67929500Y-78675000D01*
X67811250Y-78793250D01*
X67770750Y-78793250D01*
X67770750Y-78833750D01*
X67652500Y-78952000D01*
X67649428Y-79310000D01*
X67638072Y-79310000D01*
X67635000Y-78952000D01*
X67516750Y-78833750D01*
X67516750Y-78793250D01*
X67476250Y-78793250D01*
X67358000Y-78675000D01*
X67000000Y-78671928D01*
X66642000Y-78675000D01*
X66523750Y-78793250D01*
X66483250Y-78793250D01*
X66483250Y-78833750D01*
X66365000Y-78952000D01*
X66361928Y-79310000D01*
X66350572Y-79310000D01*
X66347500Y-78952000D01*
X66229250Y-78833750D01*
X66229250Y-78793250D01*
X66188750Y-78793250D01*
X66070500Y-78675000D01*
X65712500Y-78671928D01*
X65354500Y-78675000D01*
X65236250Y-78793250D01*
X65195750Y-78793250D01*
X65195750Y-78833750D01*
X65077500Y-78952000D01*
X65074428Y-79310000D01*
X64941750Y-79310000D01*
X64941750Y-78793250D01*
X64921750Y-78793250D01*
X64921750Y-78539250D01*
X64941750Y-78539250D01*
X64941750Y-78022500D01*
X65074428Y-78022500D01*
X65077500Y-78380500D01*
X65195750Y-78498750D01*
X65195750Y-78539250D01*
X65236250Y-78539250D01*
X65354500Y-78657500D01*
X65712500Y-78660572D01*
X66070500Y-78657500D01*
X66188750Y-78539250D01*
X66229250Y-78539250D01*
X66229250Y-78498750D01*
X66347500Y-78380500D01*
X66350572Y-78022500D01*
X66361928Y-78022500D01*
X66365000Y-78380500D01*
X66483250Y-78498750D01*
X66483250Y-78539250D01*
X66523750Y-78539250D01*
X66642000Y-78657500D01*
X67000000Y-78660572D01*
X67358000Y-78657500D01*
X67476250Y-78539250D01*
X67516750Y-78539250D01*
X67516750Y-78498750D01*
X67635000Y-78380500D01*
X67638072Y-78022500D01*
X67649428Y-78022500D01*
X67652500Y-78380500D01*
X67770750Y-78498750D01*
X67770750Y-78539250D01*
X67811250Y-78539250D01*
X67929500Y-78657500D01*
X68287500Y-78660572D01*
X68645500Y-78657500D01*
X68763750Y-78539250D01*
X68804250Y-78539250D01*
X68804250Y-78498750D01*
X68922500Y-78380500D01*
X68925572Y-78022500D01*
X68922500Y-77664500D01*
X68804250Y-77546250D01*
X68804250Y-77505750D01*
X68763750Y-77505750D01*
X68645500Y-77387500D01*
X68287500Y-77384428D01*
X67929500Y-77387500D01*
X67811250Y-77505750D01*
X67770750Y-77505750D01*
X67770750Y-77546250D01*
X67652500Y-77664500D01*
X67649428Y-78022500D01*
X67638072Y-78022500D01*
X67635000Y-77664500D01*
X67516750Y-77546250D01*
X67516750Y-77505750D01*
X67476250Y-77505750D01*
X67358000Y-77387500D01*
X67000000Y-77384428D01*
X66642000Y-77387500D01*
X66523750Y-77505750D01*
X66483250Y-77505750D01*
X66483250Y-77546250D01*
X66365000Y-77664500D01*
X66361928Y-78022500D01*
X66350572Y-78022500D01*
X66347500Y-77664500D01*
X66229250Y-77546250D01*
X66229250Y-77505750D01*
X66188750Y-77505750D01*
X66070500Y-77387500D01*
X65712500Y-77384428D01*
X65354500Y-77387500D01*
X65236250Y-77505750D01*
X65195750Y-77505750D01*
X65195750Y-77546250D01*
X65077500Y-77664500D01*
X65074428Y-78022500D01*
X64941750Y-78022500D01*
X64941750Y-77505750D01*
X64921750Y-77505750D01*
X64921750Y-77251750D01*
X64941750Y-77251750D01*
X64941750Y-77231750D01*
X65195750Y-77231750D01*
X65195750Y-77251750D01*
G04 #@! TA.AperFunction,Conductor*
D38*
G36*
X65195750Y-77251750D02*
G01*
X66229250Y-77251750D01*
X66229250Y-77231750D01*
X66483250Y-77231750D01*
X66483250Y-77251750D01*
X67516750Y-77251750D01*
X67516750Y-77231750D01*
X67770750Y-77231750D01*
X67770750Y-77251750D01*
X68804250Y-77251750D01*
X68804250Y-77231750D01*
X69058250Y-77231750D01*
X69058250Y-77251750D01*
X69078250Y-77251750D01*
X69078250Y-77505750D01*
X69058250Y-77505750D01*
X69058250Y-78539250D01*
X69078250Y-78539250D01*
X69078250Y-78793250D01*
X69058250Y-78793250D01*
X69058250Y-79826750D01*
X69078250Y-79826750D01*
X69078250Y-80080750D01*
X69058250Y-80080750D01*
X69058250Y-81114250D01*
X69078250Y-81114250D01*
X69078250Y-81368250D01*
X69058250Y-81368250D01*
X69058250Y-81388250D01*
X68804250Y-81388250D01*
X68804250Y-81368250D01*
X67770750Y-81368250D01*
X67770750Y-81388250D01*
X67516750Y-81388250D01*
X67516750Y-81368250D01*
X66483250Y-81368250D01*
X66483250Y-81388250D01*
X66229250Y-81388250D01*
X66229250Y-81368250D01*
X65195750Y-81368250D01*
X65195750Y-81388250D01*
X64941750Y-81388250D01*
X64941750Y-81368250D01*
X64921750Y-81368250D01*
X64921750Y-81114250D01*
X64941750Y-81114250D01*
X64941750Y-80597500D01*
X65074428Y-80597500D01*
X65077500Y-80955500D01*
X65195750Y-81073750D01*
X65195750Y-81114250D01*
X65236250Y-81114250D01*
X65354500Y-81232500D01*
X65712500Y-81235572D01*
X66070500Y-81232500D01*
X66188750Y-81114250D01*
X66229250Y-81114250D01*
X66229250Y-81073750D01*
X66347500Y-80955500D01*
X66350572Y-80597500D01*
X66361928Y-80597500D01*
X66365000Y-80955500D01*
X66483250Y-81073750D01*
X66483250Y-81114250D01*
X66523750Y-81114250D01*
X66642000Y-81232500D01*
X67000000Y-81235572D01*
X67358000Y-81232500D01*
X67476250Y-81114250D01*
X67516750Y-81114250D01*
X67516750Y-81073750D01*
X67635000Y-80955500D01*
X67638072Y-80597500D01*
X67649428Y-80597500D01*
X67652500Y-80955500D01*
X67770750Y-81073750D01*
X67770750Y-81114250D01*
X67811250Y-81114250D01*
X67929500Y-81232500D01*
X68287500Y-81235572D01*
X68645500Y-81232500D01*
X68763750Y-81114250D01*
X68804250Y-81114250D01*
X68804250Y-81073750D01*
X68922500Y-80955500D01*
X68925572Y-80597500D01*
X68922500Y-80239500D01*
X68804250Y-80121250D01*
X68804250Y-80080750D01*
X68763750Y-80080750D01*
X68645500Y-79962500D01*
X68287500Y-79959428D01*
X67929500Y-79962500D01*
X67811250Y-80080750D01*
X67770750Y-80080750D01*
X67770750Y-80121250D01*
X67652500Y-80239500D01*
X67649428Y-80597500D01*
X67638072Y-80597500D01*
X67635000Y-80239500D01*
X67516750Y-80121250D01*
X67516750Y-80080750D01*
X67476250Y-80080750D01*
X67358000Y-79962500D01*
X67000000Y-79959428D01*
X66642000Y-79962500D01*
X66523750Y-80080750D01*
X66483250Y-80080750D01*
X66483250Y-80121250D01*
X66365000Y-80239500D01*
X66361928Y-80597500D01*
X66350572Y-80597500D01*
X66347500Y-80239500D01*
X66229250Y-80121250D01*
X66229250Y-80080750D01*
X66188750Y-80080750D01*
X66070500Y-79962500D01*
X65712500Y-79959428D01*
X65354500Y-79962500D01*
X65236250Y-80080750D01*
X65195750Y-80080750D01*
X65195750Y-80121250D01*
X65077500Y-80239500D01*
X65074428Y-80597500D01*
X64941750Y-80597500D01*
X64941750Y-80080750D01*
X64921750Y-80080750D01*
X64921750Y-79826750D01*
X64941750Y-79826750D01*
X64941750Y-79310000D01*
X65074428Y-79310000D01*
X65077500Y-79668000D01*
X65195750Y-79786250D01*
X65195750Y-79826750D01*
X65236250Y-79826750D01*
X65354500Y-79945000D01*
X65712500Y-79948072D01*
X66070500Y-79945000D01*
X66188750Y-79826750D01*
X66229250Y-79826750D01*
X66229250Y-79786250D01*
X66347500Y-79668000D01*
X66350572Y-79310000D01*
X66361928Y-79310000D01*
X66365000Y-79668000D01*
X66483250Y-79786250D01*
X66483250Y-79826750D01*
X66523750Y-79826750D01*
X66642000Y-79945000D01*
X67000000Y-79948072D01*
X67358000Y-79945000D01*
X67476250Y-79826750D01*
X67516750Y-79826750D01*
X67516750Y-79786250D01*
X67635000Y-79668000D01*
X67638072Y-79310000D01*
X67649428Y-79310000D01*
X67652500Y-79668000D01*
X67770750Y-79786250D01*
X67770750Y-79826750D01*
X67811250Y-79826750D01*
X67929500Y-79945000D01*
X68287500Y-79948072D01*
X68645500Y-79945000D01*
X68763750Y-79826750D01*
X68804250Y-79826750D01*
X68804250Y-79786250D01*
X68922500Y-79668000D01*
X68925572Y-79310000D01*
X68922500Y-78952000D01*
X68804250Y-78833750D01*
X68804250Y-78793250D01*
X68763750Y-78793250D01*
X68645500Y-78675000D01*
X68287500Y-78671928D01*
X67929500Y-78675000D01*
X67811250Y-78793250D01*
X67770750Y-78793250D01*
X67770750Y-78833750D01*
X67652500Y-78952000D01*
X67649428Y-79310000D01*
X67638072Y-79310000D01*
X67635000Y-78952000D01*
X67516750Y-78833750D01*
X67516750Y-78793250D01*
X67476250Y-78793250D01*
X67358000Y-78675000D01*
X67000000Y-78671928D01*
X66642000Y-78675000D01*
X66523750Y-78793250D01*
X66483250Y-78793250D01*
X66483250Y-78833750D01*
X66365000Y-78952000D01*
X66361928Y-79310000D01*
X66350572Y-79310000D01*
X66347500Y-78952000D01*
X66229250Y-78833750D01*
X66229250Y-78793250D01*
X66188750Y-78793250D01*
X66070500Y-78675000D01*
X65712500Y-78671928D01*
X65354500Y-78675000D01*
X65236250Y-78793250D01*
X65195750Y-78793250D01*
X65195750Y-78833750D01*
X65077500Y-78952000D01*
X65074428Y-79310000D01*
X64941750Y-79310000D01*
X64941750Y-78793250D01*
X64921750Y-78793250D01*
X64921750Y-78539250D01*
X64941750Y-78539250D01*
X64941750Y-78022500D01*
X65074428Y-78022500D01*
X65077500Y-78380500D01*
X65195750Y-78498750D01*
X65195750Y-78539250D01*
X65236250Y-78539250D01*
X65354500Y-78657500D01*
X65712500Y-78660572D01*
X66070500Y-78657500D01*
X66188750Y-78539250D01*
X66229250Y-78539250D01*
X66229250Y-78498750D01*
X66347500Y-78380500D01*
X66350572Y-78022500D01*
X66361928Y-78022500D01*
X66365000Y-78380500D01*
X66483250Y-78498750D01*
X66483250Y-78539250D01*
X66523750Y-78539250D01*
X66642000Y-78657500D01*
X67000000Y-78660572D01*
X67358000Y-78657500D01*
X67476250Y-78539250D01*
X67516750Y-78539250D01*
X67516750Y-78498750D01*
X67635000Y-78380500D01*
X67638072Y-78022500D01*
X67649428Y-78022500D01*
X67652500Y-78380500D01*
X67770750Y-78498750D01*
X67770750Y-78539250D01*
X67811250Y-78539250D01*
X67929500Y-78657500D01*
X68287500Y-78660572D01*
X68645500Y-78657500D01*
X68763750Y-78539250D01*
X68804250Y-78539250D01*
X68804250Y-78498750D01*
X68922500Y-78380500D01*
X68925572Y-78022500D01*
X68922500Y-77664500D01*
X68804250Y-77546250D01*
X68804250Y-77505750D01*
X68763750Y-77505750D01*
X68645500Y-77387500D01*
X68287500Y-77384428D01*
X67929500Y-77387500D01*
X67811250Y-77505750D01*
X67770750Y-77505750D01*
X67770750Y-77546250D01*
X67652500Y-77664500D01*
X67649428Y-78022500D01*
X67638072Y-78022500D01*
X67635000Y-77664500D01*
X67516750Y-77546250D01*
X67516750Y-77505750D01*
X67476250Y-77505750D01*
X67358000Y-77387500D01*
X67000000Y-77384428D01*
X66642000Y-77387500D01*
X66523750Y-77505750D01*
X66483250Y-77505750D01*
X66483250Y-77546250D01*
X66365000Y-77664500D01*
X66361928Y-78022500D01*
X66350572Y-78022500D01*
X66347500Y-77664500D01*
X66229250Y-77546250D01*
X66229250Y-77505750D01*
X66188750Y-77505750D01*
X66070500Y-77387500D01*
X65712500Y-77384428D01*
X65354500Y-77387500D01*
X65236250Y-77505750D01*
X65195750Y-77505750D01*
X65195750Y-77546250D01*
X65077500Y-77664500D01*
X65074428Y-78022500D01*
X64941750Y-78022500D01*
X64941750Y-77505750D01*
X64921750Y-77505750D01*
X64921750Y-77251750D01*
X64941750Y-77251750D01*
X64941750Y-77231750D01*
X65195750Y-77231750D01*
X65195750Y-77251750D01*
G37*
G04 #@! TD.AperFunction*
M02*
