G04 #@! TF.GenerationSoftware,KiCad,Pcbnew,(5.1.10-1-10_14)*
G04 #@! TF.CreationDate,2021-05-27T16:13:23+09:00*
G04 #@! TF.ProjectId,Jones,4a6f6e65-732e-46b6-9963-61645f706362,v.0.3.2*
G04 #@! TF.SameCoordinates,Original*
G04 #@! TF.FileFunction,Copper,L2,Bot*
G04 #@! TF.FilePolarity,Positive*
%FSLAX46Y46*%
G04 Gerber Fmt 4.6, Leading zero omitted, Abs format (unit mm)*
G04 Created by KiCad (PCBNEW (5.1.10-1-10_14)) date 2021-05-27 16:13:23*
%MOMM*%
%LPD*%
G01*
G04 APERTURE LIST*
G04 #@! TA.AperFunction,ComponentPad*
%ADD10C,1.000000*%
G04 #@! TD*
G04 #@! TA.AperFunction,ComponentPad*
%ADD11C,4.800000*%
G04 #@! TD*
G04 #@! TA.AperFunction,SMDPad,CuDef*
%ADD12R,2.550000X2.500000*%
G04 #@! TD*
G04 #@! TA.AperFunction,SMDPad,CuDef*
%ADD13R,2.100000X1.800000*%
G04 #@! TD*
G04 #@! TA.AperFunction,SMDPad,CuDef*
%ADD14R,1.200000X0.900000*%
G04 #@! TD*
G04 #@! TA.AperFunction,SMDPad,CuDef*
%ADD15R,1.000000X1.700000*%
G04 #@! TD*
G04 #@! TA.AperFunction,SMDPad,CuDef*
%ADD16R,2.500000X2.550000*%
G04 #@! TD*
G04 #@! TA.AperFunction,SMDPad,CuDef*
%ADD17R,1.200000X1.400000*%
G04 #@! TD*
G04 #@! TA.AperFunction,SMDPad,CuDef*
%ADD18R,1.000000X1.400000*%
G04 #@! TD*
G04 #@! TA.AperFunction,ComponentPad*
%ADD19R,2.000000X2.000000*%
G04 #@! TD*
G04 #@! TA.AperFunction,ComponentPad*
%ADD20C,2.000000*%
G04 #@! TD*
G04 #@! TA.AperFunction,ComponentPad*
%ADD21R,2.000000X3.200000*%
G04 #@! TD*
G04 #@! TA.AperFunction,SMDPad,CuDef*
%ADD22R,1.000000X1.500000*%
G04 #@! TD*
G04 #@! TA.AperFunction,ComponentPad*
%ADD23C,0.700000*%
G04 #@! TD*
G04 #@! TA.AperFunction,ComponentPad*
%ADD24O,0.900000X2.400000*%
G04 #@! TD*
G04 #@! TA.AperFunction,ComponentPad*
%ADD25O,0.900000X1.700000*%
G04 #@! TD*
G04 #@! TA.AperFunction,ComponentPad*
%ADD26C,2.250000*%
G04 #@! TD*
G04 #@! TA.AperFunction,ComponentPad*
%ADD27R,1.700000X1.700000*%
G04 #@! TD*
G04 #@! TA.AperFunction,ComponentPad*
%ADD28O,1.700000X1.700000*%
G04 #@! TD*
G04 #@! TA.AperFunction,SMDPad,CuDef*
%ADD29R,0.900000X1.200000*%
G04 #@! TD*
G04 #@! TA.AperFunction,ComponentPad*
%ADD30C,1.500000*%
G04 #@! TD*
G04 #@! TA.AperFunction,SMDPad,CuDef*
%ADD31R,0.550000X1.500000*%
G04 #@! TD*
G04 #@! TA.AperFunction,SMDPad,CuDef*
%ADD32R,1.500000X0.550000*%
G04 #@! TD*
G04 #@! TA.AperFunction,SMDPad,CuDef*
%ADD33R,0.500000X2.900000*%
G04 #@! TD*
G04 #@! TA.AperFunction,SMDPad,CuDef*
%ADD34R,1.200000X1.500000*%
G04 #@! TD*
G04 #@! TA.AperFunction,ComponentPad*
%ADD35C,1.600000*%
G04 #@! TD*
G04 #@! TA.AperFunction,ComponentPad*
%ADD36R,1.600000X1.600000*%
G04 #@! TD*
G04 #@! TA.AperFunction,ComponentPad*
%ADD37O,1.600000X1.600000*%
G04 #@! TD*
G04 #@! TA.AperFunction,ViaPad*
%ADD38C,0.600000*%
G04 #@! TD*
G04 #@! TA.AperFunction,Conductor*
%ADD39C,0.254000*%
G04 #@! TD*
G04 #@! TA.AperFunction,Conductor*
%ADD40C,0.381000*%
G04 #@! TD*
G04 #@! TA.AperFunction,Conductor*
%ADD41C,0.100000*%
G04 #@! TD*
G04 APERTURE END LIST*
D10*
X49050000Y-51800000D03*
X46450000Y-51750000D03*
X49050000Y-49100000D03*
X46450000Y-49100000D03*
X47800000Y-52350000D03*
X49700000Y-50450000D03*
X45900000Y-50450000D03*
X47800000Y-48550000D03*
D11*
X47800000Y-50450000D03*
D12*
X81840000Y-86385280D03*
X94767000Y-83845280D03*
X76960000Y-91465280D03*
X64033000Y-94005280D03*
D13*
X78812889Y-75971501D03*
X75912889Y-75971501D03*
X75912889Y-78271501D03*
X78812889Y-78271501D03*
D14*
X302650000Y-62300040D03*
X302650000Y-65600040D03*
G04 #@! TA.AperFunction,SMDPad,CuDef*
G36*
G01*
X81890041Y-78850400D02*
X80990039Y-78850400D01*
G75*
G02*
X80740040Y-78600401I0J249999D01*
G01*
X80740040Y-77950399D01*
G75*
G02*
X80990039Y-77700400I249999J0D01*
G01*
X81890041Y-77700400D01*
G75*
G02*
X82140040Y-77950399I0J-249999D01*
G01*
X82140040Y-78600401D01*
G75*
G02*
X81890041Y-78850400I-249999J0D01*
G01*
G37*
G04 #@! TD.AperFunction*
G04 #@! TA.AperFunction,SMDPad,CuDef*
G36*
G01*
X81890041Y-76800400D02*
X80990039Y-76800400D01*
G75*
G02*
X80740040Y-76550401I0J249999D01*
G01*
X80740040Y-75900399D01*
G75*
G02*
X80990039Y-75650400I249999J0D01*
G01*
X81890041Y-75650400D01*
G75*
G02*
X82140040Y-75900399I0J-249999D01*
G01*
X82140040Y-76550401D01*
G75*
G02*
X81890041Y-76800400I-249999J0D01*
G01*
G37*
G04 #@! TD.AperFunction*
D15*
X46550040Y-67920400D03*
X46550040Y-74220400D03*
X50350040Y-67920400D03*
X50350040Y-74220400D03*
G04 #@! TA.AperFunction,SMDPad,CuDef*
G36*
G01*
X74825000Y-74050001D02*
X74825000Y-73149999D01*
G75*
G02*
X75074999Y-72900000I249999J0D01*
G01*
X75725001Y-72900000D01*
G75*
G02*
X75975000Y-73149999I0J-249999D01*
G01*
X75975000Y-74050001D01*
G75*
G02*
X75725001Y-74300000I-249999J0D01*
G01*
X75074999Y-74300000D01*
G75*
G02*
X74825000Y-74050001I0J249999D01*
G01*
G37*
G04 #@! TD.AperFunction*
G04 #@! TA.AperFunction,SMDPad,CuDef*
G36*
G01*
X76875000Y-74050001D02*
X76875000Y-73149999D01*
G75*
G02*
X77124999Y-72900000I249999J0D01*
G01*
X77775001Y-72900000D01*
G75*
G02*
X78025000Y-73149999I0J-249999D01*
G01*
X78025000Y-74050001D01*
G75*
G02*
X77775001Y-74300000I-249999J0D01*
G01*
X77124999Y-74300000D01*
G75*
G02*
X76875000Y-74050001I0J249999D01*
G01*
G37*
G04 #@! TD.AperFunction*
G04 #@! TA.AperFunction,SMDPad,CuDef*
G36*
G01*
X70950000Y-70249999D02*
X70950000Y-71150001D01*
G75*
G02*
X70700001Y-71400000I-249999J0D01*
G01*
X70049999Y-71400000D01*
G75*
G02*
X69800000Y-71150001I0J249999D01*
G01*
X69800000Y-70249999D01*
G75*
G02*
X70049999Y-70000000I249999J0D01*
G01*
X70700001Y-70000000D01*
G75*
G02*
X70950000Y-70249999I0J-249999D01*
G01*
G37*
G04 #@! TD.AperFunction*
G04 #@! TA.AperFunction,SMDPad,CuDef*
G36*
G01*
X73000000Y-70249999D02*
X73000000Y-71150001D01*
G75*
G02*
X72750001Y-71400000I-249999J0D01*
G01*
X72099999Y-71400000D01*
G75*
G02*
X71850000Y-71150001I0J249999D01*
G01*
X71850000Y-70249999D01*
G75*
G02*
X72099999Y-70000000I249999J0D01*
G01*
X72750001Y-70000000D01*
G75*
G02*
X73000000Y-70249999I0J-249999D01*
G01*
G37*
G04 #@! TD.AperFunction*
D16*
X222433790Y-100890400D03*
X224973790Y-113817400D03*
D17*
X50195000Y-28575040D03*
D18*
X48475000Y-28575040D03*
X48475000Y-26375040D03*
X50375000Y-26375040D03*
G04 #@! TA.AperFunction,SMDPad,CuDef*
G36*
G01*
X32899999Y-23250000D02*
X33800001Y-23250000D01*
G75*
G02*
X34050000Y-23499999I0J-249999D01*
G01*
X34050000Y-24150001D01*
G75*
G02*
X33800001Y-24400000I-249999J0D01*
G01*
X32899999Y-24400000D01*
G75*
G02*
X32650000Y-24150001I0J249999D01*
G01*
X32650000Y-23499999D01*
G75*
G02*
X32899999Y-23250000I249999J0D01*
G01*
G37*
G04 #@! TD.AperFunction*
G04 #@! TA.AperFunction,SMDPad,CuDef*
G36*
G01*
X32899999Y-25300000D02*
X33800001Y-25300000D01*
G75*
G02*
X34050000Y-25549999I0J-249999D01*
G01*
X34050000Y-26200001D01*
G75*
G02*
X33800001Y-26450000I-249999J0D01*
G01*
X32899999Y-26450000D01*
G75*
G02*
X32650000Y-26200001I0J249999D01*
G01*
X32650000Y-25549999D01*
G75*
G02*
X32899999Y-25300000I249999J0D01*
G01*
G37*
G04 #@! TD.AperFunction*
D19*
X300993580Y-100465550D03*
D20*
X298493580Y-100465550D03*
X295993580Y-100465550D03*
D21*
X304093580Y-107965550D03*
X292893580Y-107965550D03*
D20*
X300993580Y-114965550D03*
X295993580Y-114965550D03*
G04 #@! TA.AperFunction,SMDPad,CuDef*
G36*
G01*
X58187500Y-28325000D02*
X58187500Y-29575000D01*
G75*
G02*
X57937500Y-29825000I-250000J0D01*
G01*
X57012500Y-29825000D01*
G75*
G02*
X56762500Y-29575000I0J250000D01*
G01*
X56762500Y-28325000D01*
G75*
G02*
X57012500Y-28075000I250000J0D01*
G01*
X57937500Y-28075000D01*
G75*
G02*
X58187500Y-28325000I0J-250000D01*
G01*
G37*
G04 #@! TD.AperFunction*
G04 #@! TA.AperFunction,SMDPad,CuDef*
G36*
G01*
X55212500Y-28325000D02*
X55212500Y-29575000D01*
G75*
G02*
X54962500Y-29825000I-250000J0D01*
G01*
X54037500Y-29825000D01*
G75*
G02*
X53787500Y-29575000I0J250000D01*
G01*
X53787500Y-28325000D01*
G75*
G02*
X54037500Y-28075000I250000J0D01*
G01*
X54962500Y-28075000D01*
G75*
G02*
X55212500Y-28325000I0J-250000D01*
G01*
G37*
G04 #@! TD.AperFunction*
G04 #@! TA.AperFunction,SMDPad,CuDef*
G36*
G01*
X75299999Y-83950000D02*
X76200001Y-83950000D01*
G75*
G02*
X76450000Y-84199999I0J-249999D01*
G01*
X76450000Y-84850001D01*
G75*
G02*
X76200001Y-85100000I-249999J0D01*
G01*
X75299999Y-85100000D01*
G75*
G02*
X75050000Y-84850001I0J249999D01*
G01*
X75050000Y-84199999D01*
G75*
G02*
X75299999Y-83950000I249999J0D01*
G01*
G37*
G04 #@! TD.AperFunction*
G04 #@! TA.AperFunction,SMDPad,CuDef*
G36*
G01*
X75299999Y-86000000D02*
X76200001Y-86000000D01*
G75*
G02*
X76450000Y-86249999I0J-249999D01*
G01*
X76450000Y-86900001D01*
G75*
G02*
X76200001Y-87150000I-249999J0D01*
G01*
X75299999Y-87150000D01*
G75*
G02*
X75050000Y-86900001I0J249999D01*
G01*
X75050000Y-86249999D01*
G75*
G02*
X75299999Y-86000000I249999J0D01*
G01*
G37*
G04 #@! TD.AperFunction*
G04 #@! TA.AperFunction,SMDPad,CuDef*
G36*
G01*
X57350000Y-83550001D02*
X57350000Y-82649999D01*
G75*
G02*
X57599999Y-82400000I249999J0D01*
G01*
X58250001Y-82400000D01*
G75*
G02*
X58500000Y-82649999I0J-249999D01*
G01*
X58500000Y-83550001D01*
G75*
G02*
X58250001Y-83800000I-249999J0D01*
G01*
X57599999Y-83800000D01*
G75*
G02*
X57350000Y-83550001I0J249999D01*
G01*
G37*
G04 #@! TD.AperFunction*
G04 #@! TA.AperFunction,SMDPad,CuDef*
G36*
G01*
X55300000Y-83550001D02*
X55300000Y-82649999D01*
G75*
G02*
X55549999Y-82400000I249999J0D01*
G01*
X56200001Y-82400000D01*
G75*
G02*
X56450000Y-82649999I0J-249999D01*
G01*
X56450000Y-83550001D01*
G75*
G02*
X56200001Y-83800000I-249999J0D01*
G01*
X55549999Y-83800000D01*
G75*
G02*
X55300000Y-83550001I0J249999D01*
G01*
G37*
G04 #@! TD.AperFunction*
G04 #@! TA.AperFunction,SMDPad,CuDef*
G36*
G01*
X69500000Y-67500039D02*
X69500000Y-68400041D01*
G75*
G02*
X69250001Y-68650040I-249999J0D01*
G01*
X68599999Y-68650040D01*
G75*
G02*
X68350000Y-68400041I0J249999D01*
G01*
X68350000Y-67500039D01*
G75*
G02*
X68599999Y-67250040I249999J0D01*
G01*
X69250001Y-67250040D01*
G75*
G02*
X69500000Y-67500039I0J-249999D01*
G01*
G37*
G04 #@! TD.AperFunction*
G04 #@! TA.AperFunction,SMDPad,CuDef*
G36*
G01*
X67450000Y-67500039D02*
X67450000Y-68400041D01*
G75*
G02*
X67200001Y-68650040I-249999J0D01*
G01*
X66549999Y-68650040D01*
G75*
G02*
X66300000Y-68400041I0J249999D01*
G01*
X66300000Y-67500039D01*
G75*
G02*
X66549999Y-67250040I249999J0D01*
G01*
X67200001Y-67250040D01*
G75*
G02*
X67450000Y-67500039I0J-249999D01*
G01*
G37*
G04 #@! TD.AperFunction*
D22*
X31000000Y-59700000D03*
X29700000Y-59700000D03*
X28400000Y-59700000D03*
G04 #@! TA.AperFunction,SMDPad,CuDef*
G36*
G01*
X41500000Y-31300039D02*
X41500000Y-32200041D01*
G75*
G02*
X41250001Y-32450040I-249999J0D01*
G01*
X40599999Y-32450040D01*
G75*
G02*
X40350000Y-32200041I0J249999D01*
G01*
X40350000Y-31300039D01*
G75*
G02*
X40599999Y-31050040I249999J0D01*
G01*
X41250001Y-31050040D01*
G75*
G02*
X41500000Y-31300039I0J-249999D01*
G01*
G37*
G04 #@! TD.AperFunction*
G04 #@! TA.AperFunction,SMDPad,CuDef*
G36*
G01*
X43550000Y-31300039D02*
X43550000Y-32200041D01*
G75*
G02*
X43300001Y-32450040I-249999J0D01*
G01*
X42649999Y-32450040D01*
G75*
G02*
X42400000Y-32200041I0J249999D01*
G01*
X42400000Y-31300039D01*
G75*
G02*
X42649999Y-31050040I249999J0D01*
G01*
X43300001Y-31050040D01*
G75*
G02*
X43550000Y-31300039I0J-249999D01*
G01*
G37*
G04 #@! TD.AperFunction*
G04 #@! TA.AperFunction,SMDPad,CuDef*
G36*
G01*
X42400001Y-36350040D02*
X41499999Y-36350040D01*
G75*
G02*
X41250000Y-36100041I0J249999D01*
G01*
X41250000Y-35450039D01*
G75*
G02*
X41499999Y-35200040I249999J0D01*
G01*
X42400001Y-35200040D01*
G75*
G02*
X42650000Y-35450039I0J-249999D01*
G01*
X42650000Y-36100041D01*
G75*
G02*
X42400001Y-36350040I-249999J0D01*
G01*
G37*
G04 #@! TD.AperFunction*
G04 #@! TA.AperFunction,SMDPad,CuDef*
G36*
G01*
X42400001Y-34300040D02*
X41499999Y-34300040D01*
G75*
G02*
X41250000Y-34050041I0J249999D01*
G01*
X41250000Y-33400039D01*
G75*
G02*
X41499999Y-33150040I249999J0D01*
G01*
X42400001Y-33150040D01*
G75*
G02*
X42650000Y-33400039I0J-249999D01*
G01*
X42650000Y-34050041D01*
G75*
G02*
X42400001Y-34300040I-249999J0D01*
G01*
G37*
G04 #@! TD.AperFunction*
G04 #@! TA.AperFunction,SMDPad,CuDef*
G36*
G01*
X54149999Y-74350000D02*
X55050001Y-74350000D01*
G75*
G02*
X55300000Y-74599999I0J-249999D01*
G01*
X55300000Y-75250001D01*
G75*
G02*
X55050001Y-75500000I-249999J0D01*
G01*
X54149999Y-75500000D01*
G75*
G02*
X53900000Y-75250001I0J249999D01*
G01*
X53900000Y-74599999D01*
G75*
G02*
X54149999Y-74350000I249999J0D01*
G01*
G37*
G04 #@! TD.AperFunction*
G04 #@! TA.AperFunction,SMDPad,CuDef*
G36*
G01*
X54149999Y-72300000D02*
X55050001Y-72300000D01*
G75*
G02*
X55300000Y-72549999I0J-249999D01*
G01*
X55300000Y-73200001D01*
G75*
G02*
X55050001Y-73450000I-249999J0D01*
G01*
X54149999Y-73450000D01*
G75*
G02*
X53900000Y-73200001I0J249999D01*
G01*
X53900000Y-72549999D01*
G75*
G02*
X54149999Y-72300000I249999J0D01*
G01*
G37*
G04 #@! TD.AperFunction*
G04 #@! TA.AperFunction,SMDPad,CuDef*
G36*
G01*
X55300000Y-85650001D02*
X55300000Y-84749999D01*
G75*
G02*
X55549999Y-84500000I249999J0D01*
G01*
X56200001Y-84500000D01*
G75*
G02*
X56450000Y-84749999I0J-249999D01*
G01*
X56450000Y-85650001D01*
G75*
G02*
X56200001Y-85900000I-249999J0D01*
G01*
X55549999Y-85900000D01*
G75*
G02*
X55300000Y-85650001I0J249999D01*
G01*
G37*
G04 #@! TD.AperFunction*
G04 #@! TA.AperFunction,SMDPad,CuDef*
G36*
G01*
X57350000Y-85650001D02*
X57350000Y-84749999D01*
G75*
G02*
X57599999Y-84500000I249999J0D01*
G01*
X58250001Y-84500000D01*
G75*
G02*
X58500000Y-84749999I0J-249999D01*
G01*
X58500000Y-85650001D01*
G75*
G02*
X58250001Y-85900000I-249999J0D01*
G01*
X57599999Y-85900000D01*
G75*
G02*
X57350000Y-85650001I0J249999D01*
G01*
G37*
G04 #@! TD.AperFunction*
G04 #@! TA.AperFunction,SMDPad,CuDef*
G36*
G01*
X49950000Y-24250041D02*
X49950000Y-23350039D01*
G75*
G02*
X50199999Y-23100040I249999J0D01*
G01*
X50850001Y-23100040D01*
G75*
G02*
X51100000Y-23350039I0J-249999D01*
G01*
X51100000Y-24250041D01*
G75*
G02*
X50850001Y-24500040I-249999J0D01*
G01*
X50199999Y-24500040D01*
G75*
G02*
X49950000Y-24250041I0J249999D01*
G01*
G37*
G04 #@! TD.AperFunction*
G04 #@! TA.AperFunction,SMDPad,CuDef*
G36*
G01*
X47900000Y-24250041D02*
X47900000Y-23350039D01*
G75*
G02*
X48149999Y-23100040I249999J0D01*
G01*
X48800001Y-23100040D01*
G75*
G02*
X49050000Y-23350039I0J-249999D01*
G01*
X49050000Y-24250041D01*
G75*
G02*
X48800001Y-24500040I-249999J0D01*
G01*
X48149999Y-24500040D01*
G75*
G02*
X47900000Y-24250041I0J249999D01*
G01*
G37*
G04 #@! TD.AperFunction*
G04 #@! TA.AperFunction,SMDPad,CuDef*
G36*
G01*
X63100000Y-88249999D02*
X63100000Y-89150001D01*
G75*
G02*
X62850001Y-89400000I-249999J0D01*
G01*
X62199999Y-89400000D01*
G75*
G02*
X61950000Y-89150001I0J249999D01*
G01*
X61950000Y-88249999D01*
G75*
G02*
X62199999Y-88000000I249999J0D01*
G01*
X62850001Y-88000000D01*
G75*
G02*
X63100000Y-88249999I0J-249999D01*
G01*
G37*
G04 #@! TD.AperFunction*
G04 #@! TA.AperFunction,SMDPad,CuDef*
G36*
G01*
X61050000Y-88249999D02*
X61050000Y-89150001D01*
G75*
G02*
X60800001Y-89400000I-249999J0D01*
G01*
X60149999Y-89400000D01*
G75*
G02*
X59900000Y-89150001I0J249999D01*
G01*
X59900000Y-88249999D01*
G75*
G02*
X60149999Y-88000000I249999J0D01*
G01*
X60800001Y-88000000D01*
G75*
G02*
X61050000Y-88249999I0J-249999D01*
G01*
G37*
G04 #@! TD.AperFunction*
D19*
X34271347Y-100452828D03*
D20*
X31771347Y-100452828D03*
X29271347Y-100452828D03*
D21*
X37371347Y-107952828D03*
X26171347Y-107952828D03*
D20*
X34271347Y-114952828D03*
X29271347Y-114952828D03*
D23*
X37801552Y-28187233D03*
X38651552Y-28187233D03*
X39501552Y-28187233D03*
X40351552Y-28187233D03*
X41201552Y-28187233D03*
X42051552Y-28187233D03*
X42901552Y-28187233D03*
X43751552Y-28187233D03*
X38651552Y-26837233D03*
X40351552Y-26837233D03*
X39501552Y-26837233D03*
X37801552Y-26837233D03*
X42051552Y-26837233D03*
X42901552Y-26837233D03*
X43751552Y-26837233D03*
X41201552Y-26837233D03*
D24*
X36451552Y-27207233D03*
X45101552Y-27207233D03*
D25*
X36451552Y-23827233D03*
X45101552Y-23827233D03*
G04 #@! TA.AperFunction,SMDPad,CuDef*
G36*
G01*
X57250001Y-75500000D02*
X56349999Y-75500000D01*
G75*
G02*
X56100000Y-75250001I0J249999D01*
G01*
X56100000Y-74599999D01*
G75*
G02*
X56349999Y-74350000I249999J0D01*
G01*
X57250001Y-74350000D01*
G75*
G02*
X57500000Y-74599999I0J-249999D01*
G01*
X57500000Y-75250001D01*
G75*
G02*
X57250001Y-75500000I-249999J0D01*
G01*
G37*
G04 #@! TD.AperFunction*
G04 #@! TA.AperFunction,SMDPad,CuDef*
G36*
G01*
X57250001Y-73450000D02*
X56349999Y-73450000D01*
G75*
G02*
X56100000Y-73200001I0J249999D01*
G01*
X56100000Y-72549999D01*
G75*
G02*
X56349999Y-72300000I249999J0D01*
G01*
X57250001Y-72300000D01*
G75*
G02*
X57500000Y-72549999I0J-249999D01*
G01*
X57500000Y-73200001D01*
G75*
G02*
X57250001Y-73450000I-249999J0D01*
G01*
G37*
G04 #@! TD.AperFunction*
D26*
X151790560Y-67335240D03*
X158140560Y-64795240D03*
D22*
X241700000Y-54050040D03*
X243000000Y-54050040D03*
X244300000Y-54050040D03*
D12*
X253289840Y-29235040D03*
X266216840Y-26695040D03*
X75717000Y-26695040D03*
X62790000Y-29235040D03*
X81840000Y-29235040D03*
X94767000Y-26695040D03*
X113817000Y-26695040D03*
X100890000Y-29235040D03*
X132867000Y-26695040D03*
X119940000Y-29235040D03*
X138990000Y-29235040D03*
X151917000Y-26695040D03*
X196140600Y-29235080D03*
X209067600Y-26695080D03*
X215190680Y-29235040D03*
X228117680Y-26695040D03*
X234240760Y-29235040D03*
X247167760Y-26695040D03*
X272339840Y-29235040D03*
X285266840Y-26695040D03*
X57910000Y-34315040D03*
X44983000Y-36855040D03*
X180492880Y-64795240D03*
X167565880Y-67335240D03*
X234240760Y-86385320D03*
X247167760Y-83845320D03*
X291389840Y-29235040D03*
X304316840Y-26695040D03*
X266217840Y-83845320D03*
X253290840Y-86385320D03*
X167565040Y-48285400D03*
X180492040Y-45745400D03*
X177090040Y-29235400D03*
X190017040Y-26695400D03*
X158040040Y-29235400D03*
X170967040Y-26695400D03*
X66192000Y-64795200D03*
X53265000Y-67335200D03*
X151917000Y-83845280D03*
X138990000Y-86385280D03*
X113817000Y-83845280D03*
X100890000Y-86385280D03*
X104292000Y-64795200D03*
X91365000Y-67335200D03*
X272341080Y-105435360D03*
X285268080Y-102895360D03*
X91365000Y-48285120D03*
X104292000Y-45745120D03*
X25933000Y-36855040D03*
X38860000Y-34315040D03*
X110415000Y-67335200D03*
X123342000Y-64795200D03*
X291391160Y-86385320D03*
X304318160Y-83845320D03*
X142392000Y-64795200D03*
X129465000Y-67335200D03*
X149758560Y-74955240D03*
X162685560Y-72415240D03*
X237642720Y-45745160D03*
X224715720Y-48285160D03*
X218592640Y-64795200D03*
X205665640Y-67335200D03*
X237642720Y-64795240D03*
X224715720Y-67335240D03*
X256692800Y-64795240D03*
X243765800Y-67335240D03*
X25933040Y-94005400D03*
X38860040Y-91465400D03*
X57910040Y-91465400D03*
X44983040Y-94005400D03*
X228117680Y-83845280D03*
X215190680Y-86385280D03*
X209067600Y-83845280D03*
X196140600Y-86385280D03*
X256692800Y-45745160D03*
X243765800Y-48285160D03*
X275742880Y-45745160D03*
X262815880Y-48285160D03*
X53265000Y-48285120D03*
X66192000Y-45745120D03*
X110415000Y-48285120D03*
X123342000Y-45745120D03*
X291391160Y-105435400D03*
X304318160Y-102895400D03*
X72315000Y-67335200D03*
X85242000Y-64795200D03*
X129465000Y-48285120D03*
X142392000Y-45745120D03*
X218592640Y-45745160D03*
X205665640Y-48285160D03*
X272341080Y-86385320D03*
X285268080Y-83845320D03*
X132867000Y-83845280D03*
X119940000Y-86385280D03*
X72315000Y-48285120D03*
X85242000Y-45745120D03*
X64033040Y-113055400D03*
X76960040Y-110515400D03*
X161442560Y-45745120D03*
X148515560Y-48285120D03*
X299555480Y-45745160D03*
X286628480Y-48285160D03*
X24690040Y-105435400D03*
X37617040Y-102895400D03*
X88984060Y-105435400D03*
X101911060Y-102895400D03*
X286628480Y-67335240D03*
X299555480Y-64795240D03*
X65171290Y-105435400D03*
X78098290Y-102895400D03*
X201923290Y-102895400D03*
X188996290Y-105435400D03*
X36596340Y-86385320D03*
X49523340Y-83845320D03*
X35458080Y-94005320D03*
X48385080Y-91465320D03*
X119940440Y-105435400D03*
X132867440Y-102895400D03*
X240023290Y-102895400D03*
X227096290Y-105435400D03*
X196140040Y-105435400D03*
X209067040Y-102895400D03*
X42379500Y-45745120D03*
X29452500Y-48285120D03*
X131729180Y-110515400D03*
X118802180Y-113055400D03*
D27*
X229650000Y-77050040D03*
D28*
X232190000Y-77050040D03*
X234730000Y-77050040D03*
D16*
X276885040Y-76960400D03*
X274345040Y-64033400D03*
D12*
X275742040Y-64795400D03*
X262815040Y-67335400D03*
D16*
X274345040Y-44983400D03*
X276885040Y-57910400D03*
D12*
X292633040Y-55905400D03*
X305560040Y-53365400D03*
X190017040Y-83845400D03*
X177090040Y-86385400D03*
X298416290Y-53365400D03*
X285489290Y-55905400D03*
X249770540Y-55905400D03*
X262697540Y-53365400D03*
X170967040Y-83845400D03*
X158040040Y-86385400D03*
X144995540Y-113055400D03*
X157922540Y-110515400D03*
X148515040Y-105435400D03*
X161442040Y-102895400D03*
X173570540Y-113055400D03*
X186497540Y-110515400D03*
X167565040Y-105435400D03*
X180492040Y-102895400D03*
X31833820Y-67335240D03*
X44760820Y-64795240D03*
X43622540Y-72415400D03*
X30695540Y-74955400D03*
X285489290Y-74955400D03*
X298416290Y-72415400D03*
X262697540Y-72415400D03*
X249770540Y-74955400D03*
X56667040Y-102895400D03*
X43740040Y-105435400D03*
X87845540Y-113055400D03*
X100772540Y-110515400D03*
X267460040Y-110515400D03*
X254533040Y-113055400D03*
D16*
X124802540Y-100890400D03*
X127342540Y-113817400D03*
D12*
X305560040Y-72415400D03*
X292633040Y-74955400D03*
X243647540Y-110515400D03*
X230720540Y-113055400D03*
X186615040Y-48285400D03*
X199542040Y-45745400D03*
D29*
X63650000Y-91100000D03*
X60350000Y-91100000D03*
D14*
X271250000Y-34750040D03*
X271250000Y-38050040D03*
X282450000Y-58550040D03*
X282450000Y-55250040D03*
X202450000Y-49100040D03*
X202450000Y-52400040D03*
X176850000Y-35950040D03*
X176850000Y-32650040D03*
X139000000Y-37950040D03*
X139000000Y-34650040D03*
X119900040Y-33550400D03*
X119900040Y-36850400D03*
X89050000Y-95700040D03*
X89050000Y-92400040D03*
X83450000Y-91600040D03*
X83450000Y-94900040D03*
X60750000Y-103500040D03*
X60750000Y-100200040D03*
X60750000Y-108500040D03*
X60750000Y-105200040D03*
X191250040Y-36850400D03*
X191250040Y-33550400D03*
X286850040Y-32600400D03*
X286850040Y-35900400D03*
X229300000Y-36850000D03*
X229300000Y-33550000D03*
X210600000Y-35950000D03*
X210600000Y-32650000D03*
X134400000Y-35950000D03*
X134400000Y-32650000D03*
X96300000Y-35950000D03*
X96300000Y-32650000D03*
X76900000Y-36850000D03*
X76900000Y-33550000D03*
D29*
X25950000Y-44650040D03*
X29250000Y-44650040D03*
D14*
X161450000Y-95700040D03*
X161450000Y-92400040D03*
X172050040Y-90750400D03*
X172050040Y-94050400D03*
X169450000Y-95700040D03*
X169450000Y-92400040D03*
D29*
X284150000Y-43250040D03*
X287450000Y-43250040D03*
D14*
X240450000Y-43600040D03*
X240450000Y-46900040D03*
X221450000Y-46100040D03*
X221450000Y-42800040D03*
X145250000Y-46100040D03*
X145250000Y-42800040D03*
X107250000Y-42800040D03*
X107250000Y-46100040D03*
X88250000Y-43600040D03*
X88250000Y-46900040D03*
D29*
X48000000Y-43850040D03*
X51300000Y-43850040D03*
D14*
X202450000Y-46900040D03*
X202450000Y-43600040D03*
X202400000Y-65350040D03*
X202400000Y-62050040D03*
X191050040Y-94050400D03*
X191050040Y-90750400D03*
X240600000Y-65400040D03*
X240600000Y-62100040D03*
X221550000Y-66150040D03*
X221550000Y-62850040D03*
X145300000Y-66050040D03*
X145300000Y-62750040D03*
X107200000Y-62750040D03*
X107200000Y-66050040D03*
X88450000Y-66400040D03*
X88450000Y-63100040D03*
X48000000Y-65300040D03*
X48000000Y-62000040D03*
X180500040Y-95700040D03*
X180500040Y-92400040D03*
X286000000Y-94850040D03*
X286000000Y-91550040D03*
X234250040Y-97350400D03*
X234250040Y-94050400D03*
X229200000Y-90750000D03*
X229200000Y-94050000D03*
D29*
X282300000Y-62550040D03*
X279000000Y-62550040D03*
D14*
X209450000Y-91600040D03*
X209450000Y-94900040D03*
X130250000Y-91600040D03*
X130250000Y-94900040D03*
X95650000Y-94900040D03*
X95650000Y-91600040D03*
X80650000Y-90800040D03*
X80650000Y-94100040D03*
X40450000Y-102000040D03*
X40450000Y-105300040D03*
X303600000Y-92400040D03*
X303600000Y-95700040D03*
X283250000Y-93250040D03*
X283250000Y-96550040D03*
X240025000Y-96550040D03*
X240025000Y-93250040D03*
X132850000Y-96500040D03*
X132850000Y-93200040D03*
X101900040Y-96500040D03*
X101900040Y-93200040D03*
X58250000Y-108000040D03*
X58250000Y-111300040D03*
X172000040Y-33550400D03*
X172000040Y-36850400D03*
X301700040Y-33550400D03*
X301700040Y-36850400D03*
X267300000Y-36850000D03*
X267300000Y-33550000D03*
X248700000Y-35950000D03*
X248700000Y-32650000D03*
X153450040Y-35900400D03*
X153450040Y-32600400D03*
X115000000Y-36850000D03*
X115000000Y-33550000D03*
X62500000Y-35950000D03*
X62500000Y-32650000D03*
X69250000Y-42800040D03*
X69250000Y-46100040D03*
X183450000Y-46900040D03*
X183450000Y-43600040D03*
D29*
X281700000Y-43250040D03*
X278400000Y-43250040D03*
D14*
X259650000Y-46100040D03*
X259650000Y-42800040D03*
X164250000Y-43600040D03*
X164250000Y-46900040D03*
X126250000Y-43600040D03*
X126250000Y-46900040D03*
X69100000Y-62800040D03*
X69100000Y-66100040D03*
X183450000Y-65300040D03*
X183450000Y-62000040D03*
X259600000Y-66150040D03*
X259600000Y-62850040D03*
X164350000Y-65250040D03*
X164350000Y-61950040D03*
X126200000Y-62000040D03*
X126200000Y-65300040D03*
D29*
X60800000Y-96350040D03*
X57500000Y-96350040D03*
D14*
X295250000Y-94050000D03*
X295250000Y-90750000D03*
X263830040Y-92400040D03*
X263830040Y-95700040D03*
X267300000Y-94050000D03*
X267300000Y-90750000D03*
X247850000Y-91550040D03*
X247850000Y-94850040D03*
X153000000Y-94050400D03*
X153000000Y-90750400D03*
X206850000Y-96500040D03*
X206850000Y-93200040D03*
X111050000Y-94100040D03*
X111050000Y-90800040D03*
X86250000Y-92400040D03*
X86250000Y-95700040D03*
D12*
X186615040Y-67335400D03*
X199542040Y-64795400D03*
D16*
X205447540Y-115060400D03*
X202907540Y-102133400D03*
D12*
X234240040Y-105435400D03*
X247167040Y-102895400D03*
D14*
X225450000Y-95700040D03*
X225450000Y-92400040D03*
D12*
X250908790Y-105435400D03*
X263835790Y-102895400D03*
D27*
X94250040Y-76750400D03*
D28*
X94250040Y-74210400D03*
D27*
X102100000Y-74200000D03*
D28*
X102100000Y-76740000D03*
X104640000Y-74200000D03*
X104640000Y-76740000D03*
X107180000Y-74200000D03*
X107180000Y-76740000D03*
D30*
X116220000Y-30250000D03*
X290000040Y-114850040D03*
X210450040Y-114500400D03*
X234250040Y-25300400D03*
X89050000Y-100550040D03*
X177150040Y-25300400D03*
X158050040Y-25300400D03*
X253250040Y-25300400D03*
X77650000Y-99700040D03*
X24650040Y-113300400D03*
X298450000Y-36850040D03*
X268250000Y-43250040D03*
X264100000Y-59000040D03*
X294450000Y-96350040D03*
X300800000Y-92400040D03*
X290900040Y-35300400D03*
X284100000Y-39400040D03*
X286850000Y-60800040D03*
X288950000Y-95750040D03*
X300800000Y-95300040D03*
D12*
X138990040Y-105435400D03*
X151917040Y-102895400D03*
X180714290Y-113055400D03*
X193641290Y-110515400D03*
X158040040Y-105435400D03*
X170967040Y-102895400D03*
D31*
X61900040Y-73075400D03*
X62700040Y-73075400D03*
X63500040Y-73075400D03*
X64300040Y-73075400D03*
X65100040Y-73075400D03*
X65900040Y-73075400D03*
X66700040Y-73075400D03*
X67500040Y-73075400D03*
X68300040Y-73075400D03*
X69100040Y-73075400D03*
X69900040Y-73075400D03*
D32*
X71600040Y-74775400D03*
X71600040Y-75575400D03*
X71600040Y-76375400D03*
X71600040Y-77175400D03*
X71600040Y-77975400D03*
X71600040Y-78775400D03*
X71600040Y-79575400D03*
X71600040Y-80375400D03*
X71600040Y-81175400D03*
X71600040Y-81975400D03*
X71600040Y-82775400D03*
D31*
X69900040Y-84475400D03*
X69100040Y-84475400D03*
X68300040Y-84475400D03*
X67500040Y-84475400D03*
X66700040Y-84475400D03*
X65900040Y-84475400D03*
X65100040Y-84475400D03*
X64300040Y-84475400D03*
X63500040Y-84475400D03*
X62700040Y-84475400D03*
X61900040Y-84475400D03*
D32*
X60200040Y-82775400D03*
X60200040Y-81975400D03*
X60200040Y-81175400D03*
X60200040Y-80375400D03*
X60200040Y-79575400D03*
X60200040Y-78775400D03*
X60200040Y-77975400D03*
X60200040Y-77175400D03*
X60200040Y-76375400D03*
X60200040Y-75575400D03*
X60200040Y-74775400D03*
D33*
X89950000Y-77900000D03*
D34*
X89950000Y-76750000D03*
X89950000Y-74050000D03*
D33*
X89950000Y-72900000D03*
D35*
X89950000Y-79300000D03*
X89950000Y-71500000D03*
X86850000Y-71500000D03*
X86850000Y-79300000D03*
D33*
X86850000Y-72900000D03*
D34*
X86850000Y-74050000D03*
X86850000Y-76750000D03*
D33*
X86850000Y-77900000D03*
D16*
X279266250Y-76960040D03*
X276726250Y-64033040D03*
D10*
X64850000Y-86750040D03*
X61250000Y-86750040D03*
X73650000Y-84050040D03*
X57950000Y-76850040D03*
X57950000Y-80450040D03*
X55950000Y-80450040D03*
D36*
X83250000Y-53050040D03*
D37*
X90870000Y-60670040D03*
X85790000Y-53050040D03*
X88330000Y-60670040D03*
X88330000Y-53050040D03*
X85790000Y-60670040D03*
X90870000Y-53050040D03*
X83250000Y-60670040D03*
D38*
X48450000Y-30050040D03*
X304900000Y-56100000D03*
X304900000Y-49400000D03*
X45650000Y-43850040D03*
X42450000Y-43850040D03*
X129400000Y-113800000D03*
X133300000Y-104900000D03*
X69100000Y-82749998D03*
X62300000Y-74599960D03*
X66629218Y-74625930D03*
X70550000Y-69250000D03*
X59100000Y-28950000D03*
X70550000Y-64300000D03*
X61500000Y-82800000D03*
X53100000Y-72850000D03*
X30950000Y-62900000D03*
X25149990Y-63325040D03*
X69910021Y-76428149D03*
X229650000Y-79412619D03*
X77866064Y-64249730D03*
X296250000Y-80650040D03*
X30900000Y-85050000D03*
X56600000Y-86850000D03*
X107149996Y-81437421D03*
X28819790Y-65800000D03*
X289800000Y-81900040D03*
X234737381Y-81437421D03*
X64800000Y-91100040D03*
X85650000Y-84250040D03*
X296050000Y-81900040D03*
X52874996Y-28950036D03*
X24300000Y-64549994D03*
X26900009Y-64550000D03*
X33350000Y-27400000D03*
X49774665Y-24818649D03*
X71194790Y-73590528D03*
X284050000Y-58550040D03*
X71300000Y-62800038D03*
X71093640Y-95199752D03*
X72049992Y-96530250D03*
X75300000Y-99069830D03*
X67500000Y-74400002D03*
X67470837Y-36043710D03*
X53800000Y-62000040D03*
X50650000Y-62000040D03*
X60300000Y-73100040D03*
X202450000Y-53750040D03*
X200850000Y-62050040D03*
X74504394Y-96465691D03*
X76050000Y-98000040D03*
X73269383Y-95205271D03*
X36900000Y-36250000D03*
X29450000Y-46100000D03*
X24650000Y-103350000D03*
X34750000Y-86249998D03*
X39100000Y-96150000D03*
X60000000Y-34300000D03*
X30282866Y-68922183D03*
X55449996Y-45750040D03*
X300246491Y-55195601D03*
X291400000Y-31450000D03*
X284830210Y-69030252D03*
X288300000Y-83300040D03*
X292800000Y-103600040D03*
X300799141Y-48000899D03*
X27400000Y-66703296D03*
X49750004Y-60950040D03*
X53049998Y-60950040D03*
X25400000Y-61499990D03*
X302700000Y-59900000D03*
X306050000Y-64550000D03*
X302800000Y-64550000D03*
X289000000Y-81084351D03*
X290662616Y-81243712D03*
X30717198Y-84073734D03*
X32800004Y-84050000D03*
X29550000Y-61450040D03*
X30600002Y-76900040D03*
X60350000Y-92600000D03*
X255400000Y-84250000D03*
X269050000Y-57900000D03*
X262800000Y-46050000D03*
X262830210Y-69450000D03*
X253300000Y-31350040D03*
X252950000Y-103450040D03*
X215200000Y-88450000D03*
X222450000Y-98600000D03*
X196100000Y-88600000D03*
X194309839Y-103605199D03*
X205650000Y-65100040D03*
X196150000Y-32100040D03*
X205699998Y-50600040D03*
X177100000Y-88450000D03*
X182750000Y-115300000D03*
X172325939Y-109090969D03*
X186600000Y-46000000D03*
X186600000Y-65100000D03*
X176850000Y-34000040D03*
X167600000Y-65150000D03*
X158050000Y-83950000D03*
X155950000Y-103650000D03*
X167575000Y-45725040D03*
X158050000Y-31700040D03*
X139000000Y-88350000D03*
X119950000Y-88550000D03*
X122483842Y-100890400D03*
X129450000Y-46150000D03*
X119900000Y-35100000D03*
X129450000Y-65000000D03*
X162700000Y-69950000D03*
X148500000Y-50450000D03*
X141650000Y-103250040D03*
X98750000Y-31300000D03*
X93231989Y-91481989D03*
X98950000Y-85763986D03*
X89050000Y-97450040D03*
X92050000Y-69250040D03*
X92050000Y-50250036D03*
X78850000Y-89850040D03*
X62800000Y-31350040D03*
X72300000Y-46350040D03*
X77850000Y-65250040D03*
X247900000Y-52150000D03*
X247900000Y-54200000D03*
X247550000Y-71850000D03*
X247550000Y-74000000D03*
X304950000Y-74400000D03*
X245885601Y-76785601D03*
X244565599Y-57334441D03*
X73845626Y-97154414D03*
X74932209Y-98150279D03*
X71896833Y-95205271D03*
X243750000Y-50400000D03*
X243765800Y-69653938D03*
X234225000Y-84275000D03*
X234250000Y-98625000D03*
X234250000Y-31400000D03*
X262700000Y-55450000D03*
X262200000Y-70400000D03*
X144700000Y-111100000D03*
X149950000Y-100950000D03*
X69900000Y-74800000D03*
X42450000Y-42650040D03*
X45650000Y-42650040D03*
X69114897Y-37582389D03*
X98850000Y-36850040D03*
X68309050Y-74746839D03*
X68300000Y-41650040D03*
X104800000Y-42800040D03*
X70250000Y-75600000D03*
X72050000Y-63450000D03*
X55300002Y-76250000D03*
X69100000Y-74400000D03*
X69179283Y-43850040D03*
X105800000Y-43600040D03*
X271250000Y-39300040D03*
D39*
X48475000Y-30025040D02*
X48450000Y-30050040D01*
X48475000Y-28575040D02*
X48475000Y-30025040D01*
X40950000Y-29050040D02*
X40950000Y-31725040D01*
X40950000Y-31725040D02*
X40925000Y-31750040D01*
X40351552Y-28187233D02*
X40351552Y-28451592D01*
X40351552Y-28451592D02*
X40950000Y-29050040D01*
X191250040Y-27928400D02*
X191250040Y-33550400D01*
X190017040Y-26695400D02*
X191250040Y-27928400D01*
X286850040Y-28278240D02*
X286850040Y-32600400D01*
X285266840Y-26695040D02*
X286850040Y-28278240D01*
X229300000Y-27877360D02*
X229300000Y-33550000D01*
X228117680Y-26695040D02*
X229300000Y-27877360D01*
X134400000Y-28228040D02*
X134400000Y-32650000D01*
X132867000Y-26695040D02*
X134400000Y-28228040D01*
X96300000Y-28228040D02*
X96300000Y-32650000D01*
X94767000Y-26695040D02*
X96300000Y-28228040D01*
X76900000Y-27878040D02*
X76900000Y-33550000D01*
X75717000Y-26695040D02*
X76900000Y-27878040D01*
X25933000Y-44633040D02*
X25950000Y-44650040D01*
X25933000Y-36855040D02*
X25933000Y-44633040D01*
X172050040Y-84928400D02*
X172050040Y-90750400D01*
X170967040Y-83845400D02*
X172050040Y-84928400D01*
X287319491Y-57735601D02*
X285489290Y-55905400D01*
X290802839Y-57735601D02*
X287319491Y-57735601D01*
X292633040Y-55905400D02*
X290802839Y-57735601D01*
X294463241Y-57735601D02*
X303264399Y-57735601D01*
X303264399Y-57735601D02*
X304900000Y-56100000D01*
X292633040Y-55905400D02*
X294463241Y-57735601D01*
X304559931Y-49400000D02*
X300905091Y-45745160D01*
X300905091Y-45745160D02*
X299555480Y-45745160D01*
X304900000Y-49400000D02*
X304559931Y-49400000D01*
X299195120Y-45745160D02*
X299555480Y-45745160D01*
X296700000Y-43250040D02*
X299195120Y-45745160D01*
X287450000Y-43250040D02*
X296700000Y-43250040D01*
X238797600Y-46900040D02*
X237642720Y-45745160D01*
X240450000Y-46900040D02*
X238797600Y-46900040D01*
X218947520Y-46100040D02*
X218592640Y-45745160D01*
X221450000Y-46100040D02*
X218947520Y-46100040D01*
X142746920Y-46100040D02*
X142392000Y-45745120D01*
X145250000Y-46100040D02*
X142746920Y-46100040D01*
X104646920Y-46100040D02*
X104292000Y-45745120D01*
X107250000Y-46100040D02*
X104646920Y-46100040D01*
X86396920Y-46900040D02*
X85242000Y-45745120D01*
X88250000Y-46900040D02*
X86396920Y-46900040D01*
X48000000Y-43850040D02*
X45650000Y-43850040D01*
X42450000Y-45674620D02*
X42379500Y-45745120D01*
X42450000Y-43850040D02*
X42450000Y-45674620D01*
X200096680Y-65350040D02*
X199542040Y-64795400D01*
X202400000Y-65350040D02*
X200096680Y-65350040D01*
X287319491Y-73125199D02*
X285489290Y-74955400D01*
X290802839Y-73125199D02*
X287319491Y-73125199D01*
X292633040Y-74955400D02*
X290802839Y-73125199D01*
X300360280Y-65600040D02*
X299555480Y-64795240D01*
X302650000Y-65600040D02*
X300360280Y-65600040D01*
X297557891Y-66792829D02*
X294439382Y-66792829D01*
X284200000Y-73666110D02*
X285489290Y-74955400D01*
X284200000Y-66644358D02*
X284200000Y-73666110D01*
X294439382Y-66792829D02*
X292439382Y-64792829D01*
X299555480Y-64795240D02*
X297557891Y-66792829D01*
X292439382Y-64792829D02*
X286051529Y-64792829D01*
X286051529Y-64792829D02*
X284200000Y-66644358D01*
X238247520Y-65400040D02*
X237642720Y-64795240D01*
X240600000Y-65400040D02*
X238247520Y-65400040D01*
X219947480Y-66150040D02*
X218592640Y-64795200D01*
X221550000Y-66150040D02*
X219947480Y-66150040D01*
X143646840Y-66050040D02*
X142392000Y-64795200D01*
X145300000Y-66050040D02*
X143646840Y-66050040D01*
X105546840Y-66050040D02*
X104292000Y-64795200D01*
X107200000Y-66050040D02*
X105546840Y-66050040D01*
X86896840Y-66450040D02*
X85242000Y-64795200D01*
X88450000Y-66450040D02*
X86896840Y-66450040D01*
X45265620Y-65300040D02*
X44760820Y-64795240D01*
X48000000Y-65300040D02*
X45265620Y-65300040D01*
X28049871Y-70449911D02*
X30695540Y-73095580D01*
X28049871Y-65667431D02*
X28049871Y-70449911D01*
X28717302Y-65000000D02*
X28049871Y-65667431D01*
X30500040Y-65000000D02*
X28717302Y-65000000D01*
X32535001Y-62965039D02*
X30500040Y-65000000D01*
X30695540Y-73095580D02*
X30695540Y-74955400D01*
X42930619Y-62965039D02*
X32535001Y-62965039D01*
X44760820Y-64795240D02*
X42930619Y-62965039D01*
X286000000Y-84577240D02*
X285268080Y-83845320D01*
X286000000Y-91550040D02*
X286000000Y-84577240D01*
X229200000Y-84927600D02*
X229200000Y-90750000D01*
X228117680Y-83845280D02*
X229200000Y-84927600D01*
X209510801Y-84288481D02*
X209067600Y-83845280D01*
X209510801Y-91539239D02*
X209510801Y-84288481D01*
X209450000Y-91600040D02*
X209510801Y-91539239D01*
X130250000Y-86462280D02*
X132867000Y-83845280D01*
X130250000Y-91600040D02*
X130250000Y-86462280D01*
X95650000Y-84728280D02*
X94767000Y-83845280D01*
X95650000Y-91600040D02*
X95650000Y-84728280D01*
X65863201Y-95835481D02*
X64033000Y-94005280D01*
X75614559Y-95835481D02*
X65863201Y-95835481D01*
X80650000Y-90800040D02*
X75614559Y-95835481D01*
X25933040Y-94005400D02*
X27908230Y-92030210D01*
X27908230Y-92030210D02*
X27999998Y-92030210D01*
X35405320Y-94005320D02*
X33430210Y-92030210D01*
X35458080Y-94005320D02*
X35405320Y-94005320D01*
X33450000Y-92010420D02*
X33430210Y-92030210D01*
X33450000Y-91750040D02*
X33169830Y-92030210D01*
X33450000Y-91700040D02*
X33450000Y-92010420D01*
X33430210Y-92030210D02*
X33169830Y-92030210D01*
X33450000Y-91700040D02*
X33450000Y-91750040D01*
X33169830Y-92030210D02*
X27999998Y-92030210D01*
X40450000Y-102000040D02*
X40450000Y-101050040D01*
X35458080Y-96058120D02*
X35458080Y-94005320D01*
X40450000Y-101050040D02*
X35458080Y-96058120D01*
X34099141Y-90242601D02*
X33450000Y-90891742D01*
X34099141Y-85763157D02*
X34099141Y-90242601D01*
X41989422Y-83992829D02*
X35869469Y-83992829D01*
X43846633Y-85850040D02*
X41989422Y-83992829D01*
X33450000Y-90891742D02*
X33450000Y-91700040D01*
X49523340Y-83845320D02*
X47518620Y-85850040D01*
X35869469Y-83992829D02*
X34099141Y-85763157D01*
X47518620Y-85850040D02*
X43846633Y-85850040D01*
X283250000Y-100877280D02*
X285268080Y-102895360D01*
X283250000Y-96550040D02*
X283250000Y-100877280D01*
X240025000Y-102893690D02*
X240023290Y-102895400D01*
X240025000Y-96550040D02*
X240025000Y-102893690D01*
X247610241Y-103338601D02*
X247167040Y-102895400D01*
X247610241Y-109672061D02*
X247610241Y-103338601D01*
X232715180Y-115050040D02*
X242232262Y-115050040D01*
X242232262Y-115050040D02*
X247610241Y-109672061D01*
X230720540Y-113055400D02*
X232715180Y-115050040D01*
X245212400Y-104850040D02*
X247167040Y-102895400D01*
X241977930Y-104850040D02*
X245212400Y-104850040D01*
X240023290Y-102895400D02*
X241977930Y-104850040D01*
X126274339Y-114885601D02*
X127342540Y-113817400D01*
X120632381Y-114885601D02*
X126274339Y-114885601D01*
X118802180Y-113055400D02*
X120632381Y-114885601D01*
X129382600Y-113817400D02*
X129400000Y-113800000D01*
X127342540Y-113817400D02*
X129382600Y-113817400D01*
X133300000Y-103327960D02*
X132867440Y-102895400D01*
X133300000Y-104900000D02*
X133300000Y-103327960D01*
X132850000Y-102877960D02*
X132867440Y-102895400D01*
X132850000Y-96500040D02*
X132850000Y-102877960D01*
X101900040Y-102884380D02*
X101911060Y-102895400D01*
X101900040Y-96500040D02*
X101900040Y-102884380D01*
X102377741Y-103362081D02*
X101911060Y-102895400D01*
X101357302Y-113050000D02*
X102377741Y-112029561D01*
X94350000Y-113050000D02*
X101357302Y-113050000D01*
X92350040Y-111050040D02*
X94350000Y-113050000D01*
X102377741Y-112029561D02*
X102377741Y-103362081D01*
X89850900Y-111050040D02*
X92350040Y-111050040D01*
X87845540Y-113055400D02*
X89850900Y-111050040D01*
X172000040Y-27728400D02*
X172000040Y-33550400D01*
X170967040Y-26695400D02*
X172000040Y-27728400D01*
X301700040Y-29311840D02*
X301700040Y-33550400D01*
X304316840Y-26695040D02*
X301700040Y-29311840D01*
X267300000Y-27778200D02*
X267300000Y-33550000D01*
X266216840Y-26695040D02*
X267300000Y-27778200D01*
D40*
X56800000Y-72875000D02*
X57675000Y-72875000D01*
X59575400Y-74775400D02*
X60200040Y-74775400D01*
X57675000Y-72875000D02*
X59575400Y-74775400D01*
X59200000Y-82800000D02*
X60175440Y-82800000D01*
X58900000Y-83100000D02*
X59200000Y-82800000D01*
X60175440Y-82800000D02*
X60200040Y-82775400D01*
X57925000Y-83100000D02*
X58900000Y-83100000D01*
X56800000Y-72875000D02*
X54600000Y-72875000D01*
X69100040Y-84475400D02*
X69100040Y-82750038D01*
X69100040Y-82750038D02*
X69100000Y-82749998D01*
X62124560Y-74775400D02*
X62300000Y-74599960D01*
X62306480Y-74599960D02*
X62300000Y-74599960D01*
X62700040Y-74206400D02*
X62306480Y-74599960D01*
X62700040Y-73075400D02*
X62700040Y-74206400D01*
X60200040Y-74775400D02*
X62124560Y-74775400D01*
X66700040Y-74555108D02*
X66629218Y-74625930D01*
X66700040Y-73075400D02*
X66700040Y-74555108D01*
X72704842Y-76375400D02*
X72743741Y-76336501D01*
X70375000Y-71725000D02*
X70375000Y-70700000D01*
X71600040Y-76375400D02*
X72704842Y-76375400D01*
X72743741Y-74093741D02*
X70375000Y-71725000D01*
X72743741Y-76336501D02*
X72743741Y-74093741D01*
X70375000Y-69425000D02*
X70550000Y-69250000D01*
X70375000Y-70700000D02*
X70375000Y-69425000D01*
X59100000Y-28950000D02*
X57475000Y-28950000D01*
X72950000Y-86550000D02*
X75700000Y-86550000D01*
X69419101Y-85619101D02*
X72019101Y-85619101D01*
X69100040Y-85300040D02*
X69419101Y-85619101D01*
X72019101Y-85619101D02*
X72950000Y-86550000D01*
X69100040Y-84475400D02*
X69100040Y-85300040D01*
X61475400Y-82775400D02*
X61500000Y-82800000D01*
X60200040Y-82775400D02*
X61475400Y-82775400D01*
X53125000Y-72875000D02*
X53100000Y-72850000D01*
X54600000Y-72875000D02*
X53125000Y-72875000D01*
X30950000Y-62900000D02*
X30524960Y-63325040D01*
X30524960Y-63325040D02*
X25149990Y-63325040D01*
X71600040Y-76375400D02*
X69962770Y-76375400D01*
X69962770Y-76375400D02*
X69910021Y-76428149D01*
X104772619Y-79412619D02*
X229650000Y-79412619D01*
X102100000Y-76740000D02*
X104772619Y-79412619D01*
X102100000Y-76740000D02*
X98326699Y-72966699D01*
X98326699Y-72966699D02*
X92666659Y-72966699D01*
X91199960Y-71500000D02*
X89950000Y-71500000D01*
X92666659Y-72966699D02*
X91199960Y-71500000D01*
X89950000Y-71500000D02*
X86850000Y-71500000D01*
X86850000Y-71500000D02*
X86850000Y-70350040D01*
X84761356Y-68261396D02*
X81877730Y-68261396D01*
X86850000Y-70350040D02*
X84761356Y-68261396D01*
X81877730Y-68261396D02*
X77866064Y-64249730D01*
X77815794Y-64300000D02*
X77866064Y-64249730D01*
X70550000Y-64300000D02*
X77815794Y-64300000D01*
X295529289Y-81370751D02*
X296250000Y-80650040D01*
X290300000Y-79900040D02*
X291770711Y-81370751D01*
X271050000Y-81050040D02*
X272200000Y-79900040D01*
X258999960Y-79900040D02*
X267500000Y-79900040D01*
X256850000Y-82050000D02*
X258999960Y-79900040D01*
X268650000Y-81050040D02*
X271050000Y-81050040D01*
X291770711Y-81370751D02*
X295529289Y-81370751D01*
X254250000Y-82050000D02*
X256850000Y-82050000D01*
X272200000Y-79900040D02*
X290300000Y-79900040D01*
X229650000Y-79412619D02*
X251612619Y-79412619D01*
X267500000Y-79900040D02*
X268650000Y-81050040D01*
X251612619Y-79412619D02*
X254250000Y-82050000D01*
X79066788Y-76225400D02*
X78812889Y-75971501D01*
X81440040Y-76225400D02*
X79066788Y-76225400D01*
X76271551Y-78271501D02*
X75912889Y-78271501D01*
X78571551Y-75971501D02*
X76271551Y-78271501D01*
X78812889Y-75971501D02*
X78571551Y-75971501D01*
X36449319Y-23825000D02*
X36451552Y-23827233D01*
X33350000Y-23825000D02*
X36449319Y-23825000D01*
X48497767Y-23827233D02*
X48500000Y-23825000D01*
X45101552Y-23827233D02*
X48497767Y-23827233D01*
X72425000Y-71775000D02*
X72425000Y-70700000D01*
X73400000Y-76506440D02*
X73400000Y-72750000D01*
X72731040Y-77175400D02*
X73400000Y-76506440D01*
X73400000Y-72750000D02*
X72425000Y-71775000D01*
X71600040Y-77175400D02*
X72731040Y-77175400D01*
X58525400Y-75575400D02*
X60200040Y-75575400D01*
X57875000Y-74925000D02*
X58525400Y-75575400D01*
X56800000Y-74925000D02*
X57875000Y-74925000D01*
X60200040Y-81975400D02*
X56124600Y-81975400D01*
X55875000Y-82225000D02*
X55875000Y-83100000D01*
X56124600Y-81975400D02*
X55875000Y-82225000D01*
X55875000Y-83100000D02*
X55875000Y-85200000D01*
X46550040Y-67920400D02*
X46550040Y-74220400D01*
X55875000Y-81775000D02*
X55899600Y-81750400D01*
X55875000Y-82225000D02*
X55875000Y-81775000D01*
X55899600Y-81750400D02*
X56124600Y-81975400D01*
X56600000Y-86850000D02*
X55900000Y-86150000D01*
X55900000Y-85225000D02*
X55875000Y-85200000D01*
X55900000Y-86150000D02*
X55900000Y-85225000D01*
X45227381Y-80022619D02*
X54171819Y-80022619D01*
X35050000Y-83300000D02*
X41950000Y-83300000D01*
X41950000Y-83300000D02*
X45227381Y-80022619D01*
X54171819Y-80022619D02*
X55899600Y-81750400D01*
X33350000Y-85000000D02*
X35050000Y-83300000D01*
X30950000Y-85000000D02*
X33350000Y-85000000D01*
X30900000Y-85050000D02*
X30950000Y-85000000D01*
X56800000Y-76000000D02*
X56800000Y-74925000D01*
X50750000Y-77050000D02*
X55750000Y-77050000D01*
X47920400Y-74220400D02*
X50750000Y-77050000D01*
X55750000Y-77050000D02*
X56800000Y-76000000D01*
X46550040Y-74220400D02*
X47920400Y-74220400D01*
X49481299Y-27861339D02*
X50195000Y-28575040D01*
X48475000Y-24500040D02*
X49481299Y-25506339D01*
X49481299Y-25506339D02*
X49481299Y-27861339D01*
X48475000Y-23800040D02*
X48475000Y-24500040D01*
X63650000Y-91100000D02*
X64799960Y-91100000D01*
X64799960Y-91100000D02*
X64800000Y-91100040D01*
X65100040Y-72030864D02*
X66850000Y-70280904D01*
X66850000Y-70280904D02*
X66850000Y-68000040D01*
X65100040Y-73075400D02*
X65100040Y-72030864D01*
X69900040Y-84600400D02*
X70249680Y-84950040D01*
X74547118Y-84552922D02*
X77047078Y-84552922D01*
X88257562Y-84250040D02*
X91070181Y-81437421D01*
X70249680Y-84950040D02*
X74150000Y-84950040D01*
X91070181Y-81437421D02*
X107149996Y-81437421D01*
X77047078Y-84552922D02*
X77349960Y-84250040D01*
X74150000Y-84950040D02*
X74547118Y-84552922D01*
X85650000Y-84250040D02*
X88257562Y-84250040D01*
X77349960Y-84250040D02*
X85650000Y-84250040D01*
X257720753Y-83548632D02*
X259837322Y-81432063D01*
X253629248Y-83548633D02*
X257720753Y-83548632D01*
X288321032Y-81432063D02*
X288789009Y-81900040D01*
X107149996Y-81437421D02*
X251518036Y-81437421D01*
X259837322Y-81432063D02*
X266912639Y-81432063D01*
X266912639Y-81432063D02*
X268029248Y-82548673D01*
X251518036Y-81437421D02*
X253629248Y-83548633D01*
X271670752Y-82548673D02*
X272787362Y-81432063D01*
X288789009Y-81900040D02*
X289800000Y-81900040D01*
X268029248Y-82548673D02*
X271670752Y-82548673D01*
X272787362Y-81432063D02*
X288321032Y-81432063D01*
X295750001Y-82200039D02*
X296050000Y-81900040D01*
X289800000Y-81900040D02*
X290099999Y-82200039D01*
X290099999Y-82200039D02*
X295750001Y-82200039D01*
X39114964Y-75451400D02*
X36725263Y-73061699D01*
X46550040Y-74220400D02*
X46550040Y-74570400D01*
X46550040Y-74570400D02*
X45669040Y-75451400D01*
X45669040Y-75451400D02*
X39114964Y-75451400D01*
X36725263Y-73061699D02*
X31525263Y-73061699D01*
X31525263Y-73061699D02*
X28819790Y-70356226D01*
X28819790Y-70356226D02*
X28819790Y-65800000D01*
X42901552Y-26342259D02*
X42901552Y-26837233D01*
X42652825Y-26093532D02*
X42901552Y-26342259D01*
X38900279Y-26093532D02*
X42652825Y-26093532D01*
X38651552Y-26342259D02*
X38900279Y-26093532D01*
X38651552Y-26837233D02*
X38651552Y-26342259D01*
X54500000Y-28950000D02*
X52875032Y-28950000D01*
X52875032Y-28950000D02*
X52874996Y-28950036D01*
X50375000Y-26450040D02*
X52874996Y-28950036D01*
X50375000Y-26375040D02*
X50375000Y-26450040D01*
D39*
X43984701Y-47193727D02*
X42892789Y-48285638D01*
X41950000Y-35775040D02*
X41950000Y-39846632D01*
X43984701Y-41881333D02*
X43984701Y-47193727D01*
X42892789Y-52889382D02*
X54803407Y-64800000D01*
X54803407Y-64800000D02*
X58900000Y-64800000D01*
X42892789Y-48285638D02*
X42892789Y-52889382D01*
X41950000Y-39846632D02*
X43984701Y-41881333D01*
X58900000Y-64800000D02*
X63500040Y-69400040D01*
X63500040Y-69400040D02*
X63500040Y-73075400D01*
X64224799Y-73000159D02*
X64300040Y-73075400D01*
X64224799Y-72224799D02*
X64224799Y-73000159D01*
X64000000Y-69253407D02*
X64000000Y-72000000D01*
X59089382Y-64342789D02*
X64000000Y-69253407D01*
X54992789Y-64342789D02*
X59089382Y-64342789D01*
X43350000Y-52700000D02*
X54992789Y-64342789D01*
X44450000Y-47375020D02*
X43350000Y-48475020D01*
X44450000Y-41700040D02*
X44450000Y-47375020D01*
X43377799Y-40627839D02*
X44450000Y-41700040D01*
X43377799Y-32152839D02*
X43377799Y-40627839D01*
X42975000Y-31750040D02*
X43377799Y-32152839D01*
X43350000Y-48475020D02*
X43350000Y-52700000D01*
X64000000Y-72000000D02*
X64224799Y-72224799D01*
X210600000Y-28227480D02*
X210600000Y-32650000D01*
X209067600Y-26695080D02*
X210600000Y-28227480D01*
X81436141Y-78271501D02*
X81440040Y-78275400D01*
X78812889Y-78271501D02*
X81436141Y-78271501D01*
X74598728Y-79501702D02*
X77582688Y-79501702D01*
X71775440Y-78600000D02*
X73697026Y-78600000D01*
X77582688Y-79501702D02*
X78812889Y-78271501D01*
X73697026Y-78600000D02*
X74598728Y-79501702D01*
X71600040Y-78775400D02*
X71775440Y-78600000D01*
X73634390Y-78100000D02*
X75762889Y-75971501D01*
X75762889Y-75971501D02*
X75912889Y-75971501D01*
X71724640Y-78100000D02*
X73634390Y-78100000D01*
X71600040Y-77975400D02*
X71724640Y-78100000D01*
X75500000Y-75500000D02*
X75912889Y-75912889D01*
X75500000Y-73700000D02*
X75500000Y-75500000D01*
X75912889Y-75912889D02*
X75912889Y-75971501D01*
X75400000Y-73600000D02*
X75500000Y-73700000D01*
X59624600Y-84475400D02*
X61900040Y-84475400D01*
X58900000Y-85200000D02*
X59624600Y-84475400D01*
X57925000Y-85200000D02*
X58900000Y-85200000D01*
X68950000Y-68917300D02*
X68950000Y-67950040D01*
X65900040Y-71967260D02*
X68950000Y-68917300D01*
X65900040Y-73075400D02*
X65900040Y-71967260D01*
X26900003Y-64549994D02*
X26900009Y-64550000D01*
X24300000Y-64549994D02*
X26900003Y-64549994D01*
X248700000Y-28227280D02*
X248700000Y-32650000D01*
X247167760Y-26695040D02*
X248700000Y-28227280D01*
X114260201Y-27138241D02*
X114260201Y-30760201D01*
X113817000Y-26695040D02*
X114260201Y-27138241D01*
X115000000Y-31500000D02*
X115000000Y-33550000D01*
X114260201Y-30760201D02*
X115000000Y-31500000D01*
X62500000Y-33450000D02*
X62500000Y-32650000D01*
X59499960Y-36450040D02*
X62500000Y-33450000D01*
X52050000Y-36450040D02*
X59499960Y-36450040D01*
X50450000Y-34850040D02*
X52050000Y-36450040D01*
X46988000Y-34850040D02*
X50450000Y-34850040D01*
X44983000Y-36855040D02*
X46988000Y-34850040D01*
X66546920Y-46100040D02*
X66192000Y-45745120D01*
X69250000Y-46100040D02*
X66546920Y-46100040D01*
X181646680Y-46900040D02*
X180492040Y-45745400D01*
X183450000Y-46900040D02*
X181646680Y-46900040D01*
X33350000Y-27400000D02*
X33350000Y-25875000D01*
X50525000Y-23800040D02*
X50525000Y-24068314D01*
X50525000Y-24068314D02*
X49774665Y-24818649D01*
X71600040Y-73995778D02*
X71194790Y-73590528D01*
X71600040Y-74775400D02*
X71600040Y-73995778D01*
X107150000Y-62800040D02*
X107200000Y-62750040D01*
X221580201Y-62880241D02*
X221550000Y-62850040D01*
X259569799Y-62880241D02*
X221580201Y-62880241D01*
X259600000Y-62850040D02*
X259569799Y-62880241D01*
X284050000Y-58550040D02*
X282450000Y-58550040D01*
X145507211Y-62957251D02*
X145300000Y-62750040D01*
X213989382Y-63507251D02*
X211307211Y-63507251D01*
X221550000Y-62850040D02*
X214646593Y-62850040D01*
X214646593Y-62850040D02*
X213989382Y-63507251D01*
X210757211Y-62957251D02*
X145507211Y-62957251D01*
X211307211Y-63507251D02*
X210757211Y-62957251D01*
X116157211Y-63507251D02*
X115400000Y-62750040D01*
X119281633Y-62964999D02*
X118739382Y-63507251D01*
X145085041Y-62964999D02*
X119281633Y-62964999D01*
X145300000Y-62750040D02*
X145085041Y-62964999D01*
X115400000Y-62750040D02*
X107200000Y-62750040D01*
X118739382Y-63507251D02*
X116157211Y-63507251D01*
X299900000Y-60800040D02*
X301400000Y-62300040D01*
X301400000Y-62300040D02*
X302650000Y-62300040D01*
X286850000Y-60800040D02*
X299900000Y-60800040D01*
X284169799Y-63480241D02*
X286850000Y-60800040D01*
X259600000Y-62850040D02*
X263450000Y-62850040D01*
X281585839Y-63480241D02*
X284169799Y-63480241D01*
X279141437Y-61035839D02*
X281585839Y-63480241D01*
X265264201Y-61035839D02*
X279141437Y-61035839D01*
X263450000Y-62850040D02*
X265264201Y-61035839D01*
X69100002Y-62800038D02*
X69100000Y-62800040D01*
X71300000Y-62800038D02*
X69100002Y-62800038D01*
X107200000Y-62750040D02*
X99938231Y-62750040D01*
X87503408Y-63950040D02*
X86353406Y-62800038D01*
X99938231Y-62750040D02*
X98738231Y-63950040D01*
X86353406Y-62800038D02*
X71300000Y-62800038D01*
X98738231Y-63950040D02*
X87503408Y-63950040D01*
X95650000Y-94900040D02*
X128800000Y-94900040D01*
X128800000Y-94900040D02*
X130250000Y-94900040D01*
X130250000Y-94900040D02*
X207200000Y-94900040D01*
X209450000Y-94900040D02*
X207200000Y-94900040D01*
X227294362Y-94900040D02*
X209450000Y-94900040D01*
X227344362Y-94850040D02*
X227294362Y-94900040D01*
X286000000Y-94850040D02*
X227344362Y-94850040D01*
X288050000Y-94850040D02*
X288950000Y-95750040D01*
X286000000Y-94850040D02*
X288050000Y-94850040D01*
X60980210Y-96530250D02*
X72049992Y-96530250D01*
X60800000Y-96350040D02*
X60980210Y-96530250D01*
X66000201Y-89725977D02*
X71093640Y-94819416D01*
X71093640Y-94819416D02*
X71093640Y-95199752D01*
X65900040Y-84475400D02*
X66000201Y-84575561D01*
X66000201Y-84575561D02*
X66000201Y-89725977D01*
X80050000Y-94900040D02*
X75880210Y-99069830D01*
X95650000Y-94900040D02*
X80050000Y-94900040D01*
X75880210Y-99069830D02*
X75300000Y-99069830D01*
X37924135Y-111300040D02*
X34271347Y-114952828D01*
X37617040Y-102895400D02*
X39200000Y-104478360D01*
X39200000Y-111000040D02*
X39200000Y-111100040D01*
X39200000Y-111300040D02*
X39000000Y-111300040D01*
X39200000Y-104478360D02*
X39200000Y-111000040D01*
X39200000Y-111000040D02*
X39200000Y-111300040D01*
X39200000Y-111000040D02*
X39500000Y-111300040D01*
X39500000Y-111300040D02*
X39200000Y-111300040D01*
X58250000Y-111300040D02*
X39500000Y-111300040D01*
X39200000Y-111000040D02*
X38900000Y-111300040D01*
X38900000Y-111300040D02*
X37924135Y-111300040D01*
X39000000Y-111300040D02*
X38900000Y-111300040D01*
X290250440Y-35950000D02*
X290900040Y-35300400D01*
X96300000Y-35950000D02*
X290250440Y-35950000D01*
X67500040Y-74399962D02*
X67500000Y-74400002D01*
X67500040Y-73075400D02*
X67500040Y-74399962D01*
X96300000Y-35950000D02*
X67564547Y-35950000D01*
X62500000Y-35950000D02*
X67377127Y-35950000D01*
X67564547Y-35950000D02*
X67470837Y-36043710D01*
X67377127Y-35950000D02*
X67470837Y-36043710D01*
X126230201Y-61969839D02*
X126200000Y-62000040D01*
X164269799Y-61969839D02*
X126230201Y-61969839D01*
X164300000Y-62000040D02*
X164269799Y-61969839D01*
X164400000Y-62000040D02*
X164350000Y-61950040D01*
X183450000Y-62000040D02*
X164400000Y-62000040D01*
X183500000Y-62050040D02*
X183450000Y-62000040D01*
X202400000Y-62050040D02*
X183500000Y-62050040D01*
X50650000Y-62000040D02*
X48000000Y-62000040D01*
X60324640Y-73075400D02*
X60300000Y-73100040D01*
X61900040Y-73075400D02*
X60324640Y-73075400D01*
X210600000Y-62050040D02*
X202400000Y-62050040D01*
X213800000Y-63050040D02*
X211600000Y-63050040D01*
X214800000Y-62050040D02*
X213800000Y-63050040D01*
X240550000Y-62050040D02*
X214800000Y-62050040D01*
X240600000Y-62100040D02*
X240550000Y-62050040D01*
X211600000Y-63050040D02*
X210600000Y-62050040D01*
X202450000Y-52400040D02*
X202450000Y-53750040D01*
X262850000Y-57750040D02*
X264100000Y-59000040D01*
X254600000Y-57750040D02*
X262850000Y-57750040D01*
X250250000Y-62100040D02*
X254600000Y-57750040D01*
X240600000Y-62100040D02*
X250250000Y-62100040D01*
X282350000Y-61250040D02*
X282350000Y-62550040D01*
X265350000Y-60250040D02*
X281350000Y-60250040D01*
X281350000Y-60250040D02*
X282350000Y-61250040D01*
X264100000Y-59000040D02*
X265350000Y-60250040D01*
X53819799Y-62019839D02*
X53800000Y-62000040D01*
X91030201Y-61969839D02*
X89850000Y-63150040D01*
X115269799Y-61969839D02*
X91030201Y-61969839D01*
X86219799Y-62019839D02*
X53819799Y-62019839D01*
X126200000Y-62000040D02*
X126169799Y-61969839D01*
X118550000Y-63050040D02*
X116350000Y-63050040D01*
X87350000Y-63150040D02*
X86219799Y-62019839D01*
X119630201Y-61969839D02*
X118550000Y-63050040D01*
X126169799Y-61969839D02*
X119630201Y-61969839D01*
X116350000Y-63050040D02*
X115269799Y-61969839D01*
X89850000Y-63150040D02*
X87350000Y-63150040D01*
X152950360Y-94100040D02*
X153000000Y-94050400D01*
X111050000Y-94100040D02*
X152950360Y-94100040D01*
X234250440Y-94050000D02*
X234250040Y-94050400D01*
X267300000Y-94050000D02*
X234250440Y-94050000D01*
X229200400Y-94050400D02*
X229200000Y-94050000D01*
X234250040Y-94050400D02*
X229200400Y-94050400D01*
X191050440Y-94050000D02*
X191050040Y-94050400D01*
X229200000Y-94050000D02*
X191050440Y-94050000D01*
X191050040Y-94050400D02*
X172050040Y-94050400D01*
X172050040Y-94050400D02*
X153000000Y-94050400D01*
X295199960Y-94050000D02*
X295200000Y-94050040D01*
X267300000Y-94050000D02*
X295199960Y-94050000D01*
X295250000Y-95550040D02*
X294450000Y-96350040D01*
X295250000Y-94050000D02*
X295250000Y-95550040D01*
X79950000Y-94100040D02*
X76050000Y-98000040D01*
X111050000Y-94100040D02*
X79950000Y-94100040D01*
X67500040Y-89885610D02*
X72819701Y-95205271D01*
X67500040Y-84475400D02*
X67500040Y-89885610D01*
X72819701Y-95205271D02*
X73269383Y-95205271D01*
X73594689Y-96465691D02*
X74504394Y-96465691D01*
X69010340Y-101050040D02*
X73594689Y-96465691D01*
X44700000Y-101050040D02*
X69010340Y-101050040D01*
X40450000Y-105300040D02*
X44700000Y-101050040D01*
X104200000Y-92400040D02*
X89050000Y-92400040D01*
X303550000Y-92400040D02*
X104200000Y-92400040D01*
X73300040Y-87650040D02*
X79850000Y-87650040D01*
X68300040Y-85294762D02*
X69145090Y-86139812D01*
X82850000Y-90650040D02*
X85450000Y-90650040D01*
X68300040Y-84475400D02*
X68300040Y-85294762D01*
X71789812Y-86139812D02*
X73300040Y-87650040D01*
X85450000Y-90650040D02*
X86250000Y-91450040D01*
X79850000Y-87650040D02*
X82850000Y-90650040D01*
X86250000Y-91450040D02*
X86250000Y-92400040D01*
X69145090Y-86139812D02*
X71789812Y-86139812D01*
X65450000Y-102150040D02*
X59650000Y-107950040D01*
X70022301Y-102150040D02*
X65450000Y-102150040D01*
X79772301Y-92400040D02*
X70022301Y-102150040D01*
X59650000Y-107950040D02*
X58350000Y-107950040D01*
X89050000Y-92400040D02*
X79772301Y-92400040D01*
X303600000Y-102177240D02*
X304318160Y-102895400D01*
X303600000Y-95700040D02*
X303600000Y-102177240D01*
X301850000Y-114050040D02*
X300993580Y-114906460D01*
X301850000Y-105363560D02*
X301850000Y-114050040D01*
X300993580Y-114906460D02*
X300993580Y-114965550D01*
X304318160Y-102895400D02*
X301850000Y-105363560D01*
X26302468Y-114952828D02*
X24650040Y-113300400D01*
X29271347Y-114952828D02*
X26302468Y-114952828D01*
X38860000Y-34315040D02*
X36925040Y-36250000D01*
X36925040Y-36250000D02*
X36900000Y-36250000D01*
X29450000Y-48282620D02*
X29452500Y-48285120D01*
X29450000Y-46100000D02*
X29450000Y-48282620D01*
X36596340Y-86385320D02*
X34885322Y-86385320D01*
X34885322Y-86385320D02*
X34750000Y-86249998D01*
X40590281Y-93195641D02*
X38860040Y-91465400D01*
X40590281Y-95083983D02*
X40590281Y-93195641D01*
X39524264Y-96150000D02*
X40590281Y-95083983D01*
X39100000Y-96150000D02*
X39524264Y-96150000D01*
X52669999Y-66740199D02*
X53265000Y-67335200D01*
X45785879Y-66740199D02*
X52669999Y-66740199D01*
X45204021Y-67322057D02*
X45785879Y-66740199D01*
X45204021Y-70833919D02*
X45204021Y-67322057D01*
X43622540Y-72415400D02*
X45204021Y-70833919D01*
X59984960Y-34315040D02*
X60000000Y-34300000D01*
X57910000Y-34315040D02*
X59984960Y-34315040D01*
X30282866Y-68886194D02*
X30282866Y-68922183D01*
X31833820Y-67335240D02*
X30282866Y-68886194D01*
X55449996Y-45750044D02*
X55449996Y-45750040D01*
X53265000Y-47935040D02*
X55449996Y-45750044D01*
X53265000Y-48285120D02*
X53265000Y-47935040D01*
X24650000Y-113300360D02*
X24650040Y-113300400D01*
X24650000Y-103350000D02*
X24650000Y-113300360D01*
X60019799Y-93575159D02*
X57910040Y-91465400D01*
X60019799Y-99669839D02*
X60019799Y-93575159D01*
X60750000Y-100400040D02*
X60019799Y-99669839D01*
X30070711Y-70870751D02*
X30070711Y-69134338D01*
X41387900Y-74650040D02*
X39050000Y-74650040D01*
X31679249Y-72479289D02*
X30070711Y-70870751D01*
X43622540Y-72415400D02*
X41387900Y-74650040D01*
X30070711Y-69134338D02*
X30282866Y-68922183D01*
X36879249Y-72479289D02*
X31679249Y-72479289D01*
X39050000Y-74650040D02*
X36879249Y-72479289D01*
X55070589Y-86307251D02*
X57910040Y-89146702D01*
X43657251Y-86307251D02*
X55070589Y-86307251D01*
X57910040Y-89146702D02*
X57910040Y-91465400D01*
X41800040Y-84450040D02*
X43657251Y-86307251D01*
X38531620Y-84450040D02*
X41800040Y-84450040D01*
X36596340Y-86385320D02*
X38531620Y-84450040D01*
X56079839Y-93295601D02*
X57910040Y-91465400D01*
X50695561Y-93295601D02*
X56079839Y-93295601D01*
X48865280Y-91465320D02*
X50695561Y-93295601D01*
X48385080Y-91465320D02*
X48865280Y-91465320D01*
X300246491Y-55195601D02*
X298416290Y-53365400D01*
X303729839Y-55195601D02*
X300246491Y-55195601D01*
X305560040Y-53365400D02*
X303729839Y-55195601D01*
X276710041Y-24864839D02*
X287019639Y-24864839D01*
X287019639Y-24864839D02*
X291389840Y-29235040D01*
X272339840Y-29235040D02*
X276710041Y-24864839D01*
X291389840Y-29235040D02*
X291389840Y-31439840D01*
X291389840Y-31439840D02*
X291400000Y-31450000D01*
X286628480Y-67335240D02*
X284933468Y-69030252D01*
X284933468Y-69030252D02*
X284830210Y-69030252D01*
X291391160Y-86385320D02*
X288305880Y-83300040D01*
X287000001Y-82000041D02*
X288300000Y-83300040D01*
X288305880Y-83300040D02*
X288300000Y-83300040D01*
X272341080Y-86385320D02*
X276726359Y-82000041D01*
X276726359Y-82000041D02*
X287000001Y-82000041D01*
X291391160Y-105435400D02*
X292800000Y-104026560D01*
X292800000Y-104026560D02*
X292800000Y-103600040D01*
X290781977Y-46454959D02*
X292327917Y-48000899D01*
X292327917Y-48000899D02*
X300799141Y-48000899D01*
X289024983Y-46454959D02*
X290781977Y-46454959D01*
X287194782Y-48285160D02*
X289024983Y-46454959D01*
X286628480Y-48285160D02*
X287194782Y-48285160D01*
X271250000Y-30324880D02*
X272339840Y-29235040D01*
X271250000Y-34750040D02*
X271250000Y-30324880D01*
X295878070Y-114850040D02*
X295993580Y-114965550D01*
X290000040Y-114850040D02*
X295878070Y-114850040D01*
X288713680Y-65250040D02*
X286628480Y-67335240D01*
X292250000Y-65250040D02*
X288713680Y-65250040D01*
X294250000Y-67250040D02*
X292250000Y-65250040D01*
X299289350Y-67250040D02*
X294250000Y-67250040D01*
X301050000Y-70740110D02*
X301050000Y-69010690D01*
X298416290Y-72415400D02*
X299374710Y-72415400D01*
X299374710Y-72415400D02*
X301050000Y-70740110D01*
X301050000Y-69010690D02*
X299289350Y-67250040D01*
X300450930Y-74450040D02*
X303525400Y-74450040D01*
X303525400Y-74450040D02*
X305560040Y-72415400D01*
X298416290Y-72415400D02*
X300450930Y-74450040D01*
X280635360Y-105435400D02*
X291391160Y-105435400D01*
X278550000Y-103350040D02*
X280635360Y-105435400D01*
X274426400Y-103350040D02*
X278550000Y-103350040D01*
X272341080Y-105435360D02*
X274426400Y-103350040D01*
X290750000Y-114100080D02*
X290000040Y-114850040D01*
X291350000Y-105470360D02*
X291350000Y-105850040D01*
X290750000Y-106450040D02*
X290750000Y-114100080D01*
X291350000Y-105850040D02*
X290750000Y-106450040D01*
X291315040Y-105435400D02*
X291350000Y-105470360D01*
X291391160Y-105435400D02*
X291315040Y-105435400D01*
X28570709Y-64500000D02*
X27400000Y-65670709D01*
X31000000Y-59700000D02*
X31000000Y-61000000D01*
X30282698Y-64500000D02*
X28570709Y-64500000D01*
X31580201Y-61580201D02*
X31580201Y-63202497D01*
X27400000Y-65670709D02*
X27400000Y-66703296D01*
X31580201Y-63202497D02*
X30282698Y-64500000D01*
X31000000Y-61000000D02*
X31580201Y-61580201D01*
X40750000Y-60950040D02*
X49750004Y-60950040D01*
X37550000Y-57750040D02*
X40750000Y-60950040D01*
X35450000Y-57750040D02*
X37550000Y-57750040D01*
X33500040Y-59700000D02*
X35450000Y-57750040D01*
X31000000Y-59700000D02*
X33500040Y-59700000D01*
X121850000Y-60950040D02*
X118650000Y-57750040D01*
X208450000Y-60950040D02*
X121850000Y-60950040D01*
X213850000Y-57750040D02*
X211650000Y-57750040D01*
X118650000Y-57750040D02*
X116350000Y-57750040D01*
X217050000Y-60950040D02*
X213850000Y-57750040D01*
X236603960Y-60950040D02*
X217050000Y-60950040D01*
X243000000Y-54554000D02*
X236603960Y-60950040D01*
X211650000Y-57750040D02*
X208450000Y-60950040D01*
X243000000Y-54150040D02*
X243000000Y-54554000D01*
X53049998Y-60950040D02*
X79750000Y-60950040D01*
X114539799Y-59539839D02*
X114550000Y-59550040D01*
X79750000Y-60950040D02*
X81160201Y-59539839D01*
X81160201Y-59539839D02*
X114539799Y-59539839D01*
X116350000Y-57750040D02*
X114550000Y-59550040D01*
X28400000Y-59700000D02*
X27199990Y-59700000D01*
X27199990Y-59700000D02*
X25400000Y-61499990D01*
X266950000Y-59550040D02*
X302350040Y-59550040D01*
X302350040Y-59550040D02*
X302700000Y-59900000D01*
X257574261Y-56400040D02*
X263800000Y-56400040D01*
X263800000Y-56400040D02*
X266950000Y-59550040D01*
X254724221Y-53550000D02*
X257574261Y-56400040D01*
X247582738Y-52950040D02*
X248182698Y-53550000D01*
X242000000Y-52950040D02*
X247582738Y-52950040D01*
X248182698Y-53550000D02*
X254724221Y-53550000D01*
X241700000Y-53250040D02*
X242000000Y-52950040D01*
X241700000Y-54150040D02*
X241700000Y-53250040D01*
X306050000Y-64550000D02*
X302800000Y-64550000D01*
X288827001Y-80911352D02*
X289000000Y-81084351D01*
X72757448Y-81975400D02*
X74357046Y-83574999D01*
X271455067Y-82027962D02*
X272571676Y-80911352D01*
X251517051Y-80700040D02*
X253844933Y-83027922D01*
X257505067Y-83027922D02*
X259621637Y-80911352D01*
X268244933Y-82027962D02*
X271455067Y-82027962D01*
X71600040Y-81975400D02*
X72757448Y-81975400D01*
X272571676Y-80911352D02*
X288827001Y-80911352D01*
X253844933Y-83027922D02*
X257505067Y-83027922D01*
X259621637Y-80911352D02*
X267128324Y-80911352D01*
X74357046Y-83574999D02*
X88196207Y-83574999D01*
X88196207Y-83574999D02*
X91071166Y-80700040D01*
X267128324Y-80911352D02*
X268244933Y-82027962D01*
X91071166Y-80700040D02*
X251517051Y-80700040D01*
X251506433Y-80042829D02*
X254034315Y-82570711D01*
X71600040Y-81175400D02*
X72604040Y-81175400D01*
X91081784Y-80042829D02*
X251506433Y-80042829D01*
X74546428Y-83117788D02*
X88006825Y-83117788D01*
X254034315Y-82570711D02*
X257315685Y-82570711D01*
X88006825Y-83117788D02*
X91081784Y-80042829D01*
X259432255Y-80454141D02*
X267317705Y-80454141D01*
X272382295Y-80454141D02*
X289873045Y-80454141D01*
X267317705Y-80454141D02*
X268434315Y-81570751D01*
X268434315Y-81570751D02*
X271265685Y-81570751D01*
X271265685Y-81570751D02*
X272382295Y-80454141D01*
X289873045Y-80454141D02*
X290662616Y-81243712D01*
X72604040Y-81175400D02*
X74546428Y-83117788D01*
X257315685Y-82570711D02*
X259432255Y-80454141D01*
X41520711Y-82279289D02*
X32511643Y-82279289D01*
X32511643Y-82279289D02*
X30717198Y-84073734D01*
X45024600Y-78775400D02*
X41520711Y-82279289D01*
X60200040Y-78775400D02*
X45024600Y-78775400D01*
X34100004Y-82750000D02*
X32800004Y-84050000D01*
X44944684Y-79501908D02*
X41696592Y-82750000D01*
X60126548Y-79501908D02*
X44944684Y-79501908D01*
X60200040Y-79575400D02*
X60126548Y-79501908D01*
X41696592Y-82750000D02*
X34100004Y-82750000D01*
X29700000Y-61300040D02*
X29550000Y-61450040D01*
X29700000Y-59700000D02*
X29700000Y-61300040D01*
X44000040Y-76900040D02*
X30600002Y-76900040D01*
X60200040Y-77975400D02*
X45075400Y-77975400D01*
X45075400Y-77975400D02*
X44000040Y-76900040D01*
X64300040Y-84475400D02*
X64300040Y-85499960D01*
X64300040Y-85499960D02*
X64300000Y-85500000D01*
X64300000Y-85500000D02*
X63500000Y-85500000D01*
X63500000Y-84475440D02*
X63500040Y-84475400D01*
X63500000Y-85500000D02*
X63500000Y-84475440D01*
X62525000Y-86475000D02*
X62525000Y-88700000D01*
X63500000Y-85500000D02*
X62525000Y-86475000D01*
X60350000Y-88825000D02*
X60475000Y-88700000D01*
X60350000Y-91100000D02*
X60350000Y-88825000D01*
X60350000Y-92600000D02*
X60350000Y-91100000D01*
X253290840Y-86359160D02*
X255400000Y-84250000D01*
X253290840Y-86385320D02*
X253290840Y-86359160D01*
X276874640Y-57900000D02*
X276885040Y-57910400D01*
X269050000Y-57900000D02*
X276874640Y-57900000D01*
X253250040Y-29195240D02*
X253289840Y-29235040D01*
X253250040Y-25300400D02*
X253250040Y-29195240D01*
X262800000Y-48269280D02*
X262815880Y-48285160D01*
X262800000Y-46050000D02*
X262800000Y-48269280D01*
X262815040Y-69434830D02*
X262830210Y-69450000D01*
X262815040Y-67335400D02*
X262815040Y-69434830D01*
X276885400Y-76960040D02*
X276885040Y-76960400D01*
X279266250Y-76960040D02*
X276885400Y-76960040D01*
X253289840Y-31339880D02*
X253300000Y-31350040D01*
X253289840Y-29235040D02*
X253289840Y-31339880D01*
X282450000Y-55250040D02*
X282450000Y-56150040D01*
X280689640Y-57910400D02*
X276885040Y-57910400D01*
X282450000Y-56150040D02*
X280689640Y-57910400D01*
X269250000Y-65250040D02*
X272450000Y-68450040D01*
X272450000Y-72525360D02*
X276885040Y-76960400D01*
X264900400Y-65250040D02*
X269250000Y-65250040D01*
X272450000Y-68450040D02*
X272450000Y-72525360D01*
X262815040Y-67335400D02*
X264900400Y-65250040D01*
X250908790Y-105435400D02*
X252738991Y-103605199D01*
X252894150Y-103450040D02*
X252950000Y-103450040D01*
X252738991Y-103605199D02*
X252894150Y-103450040D01*
X256449680Y-103450040D02*
X252950000Y-103450040D01*
X258250040Y-105250400D02*
X256449680Y-103450040D01*
X264850360Y-105250400D02*
X258250040Y-105250400D01*
X267460040Y-107860080D02*
X264850360Y-105250400D01*
X267460040Y-110515400D02*
X267460040Y-107860080D01*
X210820479Y-82015079D02*
X215190680Y-86385280D01*
X200510801Y-82015079D02*
X210820479Y-82015079D01*
X196140600Y-86385280D02*
X200510801Y-82015079D01*
X215190680Y-88440680D02*
X215200000Y-88450000D01*
X215190680Y-86385280D02*
X215190680Y-88440680D01*
X222450000Y-100874190D02*
X222433790Y-100890400D01*
X222450000Y-98600000D02*
X222450000Y-100874190D01*
X209890040Y-115060400D02*
X210450040Y-114500400D01*
X205447540Y-115060400D02*
X209890040Y-115060400D01*
X196140040Y-105435400D02*
X194309839Y-103605199D01*
X200510801Y-24864879D02*
X210356761Y-24864879D01*
X214726922Y-29235040D02*
X215190680Y-29235040D01*
X210356761Y-24864879D02*
X214726922Y-29235040D01*
X196140600Y-29235080D02*
X200510801Y-24864879D01*
X196140600Y-88559400D02*
X196100000Y-88600000D01*
X196140600Y-86385280D02*
X196140600Y-88559400D01*
X205665640Y-67335200D02*
X205665640Y-65115680D01*
X205665640Y-65115680D02*
X205650000Y-65100040D01*
X196150000Y-29244480D02*
X196140600Y-29235080D01*
X196150000Y-32100040D02*
X196150000Y-29244480D01*
X204850760Y-49100040D02*
X205665640Y-48285160D01*
X202450000Y-49100040D02*
X204850760Y-49100040D01*
X205665640Y-48285160D02*
X205665640Y-50565682D01*
X205665640Y-50565682D02*
X205699998Y-50600040D01*
X214085120Y-48285160D02*
X224715720Y-48285160D01*
X212050000Y-46250040D02*
X214085120Y-48285160D01*
X207700760Y-46250040D02*
X212050000Y-46250040D01*
X205665640Y-48285160D02*
X207700760Y-46250040D01*
X190981650Y-103450040D02*
X188996290Y-105435400D01*
X194154680Y-103450040D02*
X190981650Y-103450040D01*
X194309839Y-103605199D02*
X194154680Y-103450040D01*
X177090040Y-88440040D02*
X177100000Y-88450000D01*
X177090040Y-86385400D02*
X177090040Y-88440040D01*
X184480388Y-115300000D02*
X186497540Y-113282848D01*
X186497540Y-113282848D02*
X186497540Y-110515400D01*
X182750000Y-115300000D02*
X184480388Y-115300000D01*
X177150040Y-29175400D02*
X177090040Y-29235400D01*
X177150040Y-25300400D02*
X177150040Y-29175400D01*
X186600000Y-48270360D02*
X186615040Y-48285400D01*
X186600000Y-46000000D02*
X186600000Y-48270360D01*
X186600000Y-67320360D02*
X186615040Y-67335400D01*
X186600000Y-65100000D02*
X186600000Y-67320360D01*
X176850000Y-29475440D02*
X177090040Y-29235400D01*
X176850000Y-32650040D02*
X176850000Y-29475440D01*
X176850000Y-32650040D02*
X176850000Y-34000040D01*
X172166868Y-109250040D02*
X172325939Y-109090969D01*
X168850000Y-109250040D02*
X172166868Y-109250040D01*
X167850000Y-108250040D02*
X168850000Y-109250040D01*
X167850000Y-105720360D02*
X167850000Y-108250040D01*
X167565040Y-105435400D02*
X167850000Y-105720360D01*
X188532180Y-112550040D02*
X186497540Y-110515400D01*
X191606650Y-112550040D02*
X188532180Y-112550040D01*
X193641290Y-110515400D02*
X191606650Y-112550040D01*
X157614479Y-24864839D02*
X158050040Y-25300400D01*
X143360201Y-24864839D02*
X157614479Y-24864839D01*
X138990000Y-29235040D02*
X143360201Y-24864839D01*
X158050040Y-29225400D02*
X158040040Y-29235400D01*
X158050040Y-25300400D02*
X158050040Y-29225400D01*
X167600000Y-67301120D02*
X167565880Y-67335240D01*
X167600000Y-65150000D02*
X167600000Y-67301120D01*
X158050000Y-86375440D02*
X158040040Y-86385400D01*
X158050000Y-83950000D02*
X158050000Y-86375440D01*
X157735400Y-105435400D02*
X158040040Y-105435400D01*
X155950000Y-103650000D02*
X157735400Y-105435400D01*
X167575000Y-48275440D02*
X167565040Y-48285400D01*
X167575000Y-45725040D02*
X167575000Y-48275440D01*
X138990000Y-34640040D02*
X139000000Y-34650040D01*
X138990000Y-29235040D02*
X138990000Y-34640040D01*
X158040040Y-31690080D02*
X158050000Y-31700040D01*
X158040040Y-29235400D02*
X158040040Y-31690080D01*
X133910040Y-110515400D02*
X138990040Y-105435400D01*
X131729180Y-110515400D02*
X133910040Y-110515400D01*
X138990000Y-88340000D02*
X139000000Y-88350000D01*
X138990000Y-86385280D02*
X138990000Y-88340000D01*
X122483842Y-100890400D02*
X124802540Y-100890400D01*
X119940000Y-88540000D02*
X119950000Y-88550000D01*
X119940000Y-86385280D02*
X119940000Y-88540000D01*
X117234960Y-29235040D02*
X116220000Y-30250000D01*
X119940000Y-29235040D02*
X117234960Y-29235040D01*
X119940000Y-33510440D02*
X119900040Y-33550400D01*
X119940000Y-29235040D02*
X119940000Y-33510440D01*
X129465000Y-46165000D02*
X129450000Y-46150000D01*
X129465000Y-48285120D02*
X129465000Y-46165000D01*
X119900000Y-33550440D02*
X119900040Y-33550400D01*
X119900000Y-35100000D02*
X119900000Y-33550440D01*
X129450000Y-67320200D02*
X129465000Y-67335200D01*
X129450000Y-65000000D02*
X129450000Y-67320200D01*
X162685560Y-69964440D02*
X162700000Y-69950000D01*
X162685560Y-72415240D02*
X162685560Y-69964440D01*
X148515560Y-50434440D02*
X148500000Y-50450000D01*
X148515560Y-48285120D02*
X148515560Y-50434440D01*
X137885080Y-48285120D02*
X148515560Y-48285120D01*
X131500080Y-46250040D02*
X135850000Y-46250040D01*
X135850000Y-46250040D02*
X137885080Y-48285120D01*
X129465000Y-48285120D02*
X131500080Y-46250040D01*
X122246741Y-100890400D02*
X122483842Y-100890400D01*
X119940440Y-103196701D02*
X122246741Y-100890400D01*
X119940440Y-105435400D02*
X119940440Y-103196701D01*
X133450000Y-108794580D02*
X131729180Y-110515400D01*
X131650000Y-105450040D02*
X133450000Y-107250040D01*
X129050000Y-105450040D02*
X131650000Y-105450040D01*
X124802540Y-101202580D02*
X129050000Y-105450040D01*
X133450000Y-107250040D02*
X133450000Y-108794580D01*
X124802540Y-100890400D02*
X124802540Y-101202580D01*
X138990040Y-105435400D02*
X141175400Y-103250040D01*
X148515040Y-105435400D02*
X146986040Y-105435400D01*
X141175400Y-103250040D02*
X141650000Y-103250040D01*
X144800680Y-103250040D02*
X141650000Y-103250040D01*
X146986040Y-105435400D02*
X144800680Y-103250040D01*
X155787900Y-112650040D02*
X157922540Y-110515400D01*
X153650000Y-112650040D02*
X155787900Y-112650040D01*
X151469758Y-110469798D02*
X153650000Y-112650040D01*
X138990040Y-107990080D02*
X141469758Y-110469798D01*
X141469758Y-110469798D02*
X151469758Y-110469798D01*
X138990040Y-105435400D02*
X138990040Y-107990080D01*
X100814960Y-29235040D02*
X100890000Y-29235040D01*
X98750000Y-31300000D02*
X100814960Y-29235040D01*
X86210201Y-24864839D02*
X81840000Y-29235040D01*
X96519799Y-24864839D02*
X86210201Y-24864839D01*
X100890000Y-29235040D02*
X96519799Y-24864839D01*
X100890000Y-86385280D02*
X100268706Y-85763986D01*
X100268706Y-85763986D02*
X98950000Y-85763986D01*
X89050000Y-105369460D02*
X88984060Y-105435400D01*
X89050000Y-95700040D02*
X89050000Y-105369460D01*
X91365000Y-68565040D02*
X92050000Y-69250040D01*
X91365000Y-67335200D02*
X91365000Y-68565040D01*
X91365000Y-49565036D02*
X92050000Y-50250036D01*
X91365000Y-48285120D02*
X91365000Y-49565036D01*
X98050000Y-46250040D02*
X100085080Y-48285120D01*
X93400080Y-46250040D02*
X98050000Y-46250040D01*
X100085080Y-48285120D02*
X110415000Y-48285120D01*
X91365000Y-48285120D02*
X93400080Y-46250040D01*
X99235160Y-67335200D02*
X110415000Y-67335200D01*
X97150000Y-65250040D02*
X99235160Y-67335200D01*
X93450160Y-65250040D02*
X97150000Y-65250040D01*
X91365000Y-67335200D02*
X93450160Y-65250040D01*
X87528542Y-91481989D02*
X93231989Y-91481989D01*
X83192789Y-90192829D02*
X86239382Y-90192829D01*
X81840000Y-88840040D02*
X83192789Y-90192829D01*
X86239382Y-90192829D02*
X87528542Y-91481989D01*
X81840000Y-86385280D02*
X81840000Y-88840040D01*
X94539382Y-112592789D02*
X92539422Y-110592829D01*
X100772540Y-110515400D02*
X100772540Y-112019400D01*
X100772540Y-112019400D02*
X100199151Y-112592789D01*
X100199151Y-112592789D02*
X94539382Y-112592789D01*
X92539422Y-110592829D02*
X89192789Y-110592829D01*
X89192789Y-110592829D02*
X87250000Y-108650040D01*
X87250000Y-108650040D02*
X87250000Y-107169460D01*
X87250000Y-107169460D02*
X88984060Y-105435400D01*
X83094362Y-91600040D02*
X81344362Y-89850040D01*
X83450000Y-91600040D02*
X83094362Y-91600040D01*
X81344362Y-89850040D02*
X78850000Y-89850040D01*
X77234760Y-91465280D02*
X76960000Y-91465280D01*
X78850000Y-89850040D02*
X77234760Y-91465280D01*
X65171290Y-105628750D02*
X65171290Y-105435400D01*
X62790000Y-31340040D02*
X62800000Y-31350040D01*
X62790000Y-29235040D02*
X62790000Y-31340040D01*
X72315000Y-46365040D02*
X72300000Y-46350040D01*
X72315000Y-48285120D02*
X72315000Y-46365040D01*
X63000000Y-108250040D02*
X63000000Y-107800040D01*
X63025000Y-107775040D02*
X65171290Y-105628750D01*
X63000000Y-107800040D02*
X63025000Y-107775040D01*
X63000000Y-108250040D02*
X62775000Y-108025040D01*
X62775000Y-108025040D02*
X63025000Y-107775040D01*
X63000000Y-108250040D02*
X62550000Y-108250040D01*
X62550000Y-108250040D02*
X62775000Y-108025040D01*
X73600000Y-99700040D02*
X77650000Y-99700040D01*
X70600000Y-102700040D02*
X73600000Y-99700040D01*
X67906650Y-102700040D02*
X70600000Y-102700040D01*
X65171290Y-105435400D02*
X67906650Y-102700040D01*
X74400160Y-65250040D02*
X77850000Y-65250040D01*
X72315000Y-67335200D02*
X74400160Y-65250040D01*
X46050000Y-110450040D02*
X60350000Y-110450040D01*
X43740040Y-108140080D02*
X46050000Y-110450040D01*
X60350000Y-110450040D02*
X62550000Y-108250040D01*
X43740040Y-105435400D02*
X43740040Y-108140080D01*
X64800000Y-110050040D02*
X63000000Y-108250040D01*
X70450000Y-112650040D02*
X67850000Y-110050040D01*
X74825400Y-112650040D02*
X70450000Y-112650040D01*
X67850000Y-110050040D02*
X64800000Y-110050040D01*
X76960040Y-110515400D02*
X74825400Y-112650040D01*
X41201552Y-28030535D02*
X41201552Y-28187233D01*
X40351552Y-27180535D02*
X41201552Y-28030535D01*
X40351552Y-26837233D02*
X40351552Y-27180535D01*
X41950000Y-30650040D02*
X41950000Y-30600040D01*
X41950000Y-30850040D02*
X41950000Y-30650040D01*
X41950000Y-33725040D02*
X41950000Y-30850040D01*
X41950000Y-30350040D02*
X41950000Y-30600040D01*
X41950000Y-30825040D02*
X41950000Y-30850040D01*
X47425000Y-27425040D02*
X47425000Y-29725040D01*
X47425000Y-29725040D02*
X46580201Y-30569839D01*
X48475000Y-26375040D02*
X47425000Y-27425040D01*
X42169799Y-30569839D02*
X41950000Y-30350040D01*
X46580201Y-30569839D02*
X42180201Y-30569839D01*
X42180201Y-30569839D02*
X42169799Y-30569839D01*
X42180201Y-30569839D02*
X41950000Y-30569839D01*
X42180201Y-30594839D02*
X41950000Y-30825040D01*
X42180201Y-30569839D02*
X42180201Y-30594839D01*
X41201552Y-28401592D02*
X41950000Y-29150040D01*
X41201552Y-28187233D02*
X41201552Y-28401592D01*
X41950000Y-29150040D02*
X41950000Y-30350040D01*
X153450040Y-28228080D02*
X153450040Y-32600400D01*
X151917000Y-26695040D02*
X153450040Y-28228080D01*
X274981120Y-44983400D02*
X275742880Y-45745160D01*
X274345040Y-44983400D02*
X274981120Y-44983400D01*
X280409841Y-44540199D02*
X281700000Y-43250040D01*
X276947841Y-44540199D02*
X280409841Y-44540199D01*
X275742880Y-45745160D02*
X276947841Y-44540199D01*
X247900000Y-50336290D02*
X247900000Y-52150000D01*
X249735231Y-48501059D02*
X247900000Y-50336290D01*
X253936901Y-48501059D02*
X249735231Y-48501059D01*
X256692800Y-45745160D02*
X253936901Y-48501059D01*
X249605400Y-55905400D02*
X249770540Y-55905400D01*
X247900000Y-54200000D02*
X249605400Y-55905400D01*
X257047680Y-46100040D02*
X256692800Y-45745160D01*
X259650000Y-46100040D02*
X257047680Y-46100040D01*
X162597480Y-46900040D02*
X161442560Y-45745120D01*
X164250000Y-46900040D02*
X162597480Y-46900040D01*
X124496920Y-46900040D02*
X123342000Y-45745120D01*
X126250000Y-46900040D02*
X124496920Y-46900040D01*
X67496840Y-66100040D02*
X66192000Y-64795200D01*
X69100000Y-66100040D02*
X67496840Y-66100040D01*
X180997680Y-65300040D02*
X180492880Y-64795240D01*
X183450000Y-65300040D02*
X180997680Y-65300040D01*
X248505400Y-74955400D02*
X249770540Y-74955400D01*
X247550000Y-74000000D02*
X248505400Y-74955400D01*
X258047600Y-66150040D02*
X256692800Y-64795240D01*
X259600000Y-66150040D02*
X258047600Y-66150040D01*
X250436330Y-66850040D02*
X247550000Y-69736370D01*
X247550000Y-69736370D02*
X247550000Y-71850000D01*
X254638000Y-66850040D02*
X250436330Y-66850040D01*
X256692800Y-64795240D02*
X254638000Y-66850040D01*
X158595360Y-65250040D02*
X158140560Y-64795240D01*
X164350000Y-65250040D02*
X158595360Y-65250040D01*
X158140560Y-70774910D02*
X158140560Y-64795240D01*
X155800000Y-75300040D02*
X155800000Y-73115470D01*
X154050000Y-77050040D02*
X155800000Y-75300040D01*
X151853360Y-77050040D02*
X154050000Y-77050040D01*
X155800000Y-73115470D02*
X158140560Y-70774910D01*
X149758560Y-74955240D02*
X151853360Y-77050040D01*
X123846840Y-65300040D02*
X123342000Y-64795200D01*
X126200000Y-65300040D02*
X123846840Y-65300040D01*
X297655885Y-86200040D02*
X301963440Y-86200040D01*
X301963440Y-86200040D02*
X304318160Y-83845320D01*
X295250000Y-88605925D02*
X297655885Y-86200040D01*
X295250000Y-90750000D02*
X295250000Y-88605925D01*
X263830040Y-102889650D02*
X263835790Y-102895400D01*
X263830040Y-95700040D02*
X263830040Y-102889650D01*
X269250040Y-108309650D02*
X263835790Y-102895400D01*
X269250040Y-111844762D02*
X269250040Y-108309650D01*
X268544762Y-112550040D02*
X269250040Y-111844762D01*
X260199680Y-110950040D02*
X261799680Y-112550040D01*
X261799680Y-112550040D02*
X268544762Y-112550040D01*
X256638400Y-110950040D02*
X260199680Y-110950040D01*
X254533040Y-113055400D02*
X256638400Y-110950040D01*
X267300000Y-84927480D02*
X267300000Y-90750000D01*
X266217840Y-83845320D02*
X267300000Y-84927480D01*
X247850000Y-84527560D02*
X247167760Y-83845320D01*
X247850000Y-91550040D02*
X247850000Y-84527560D01*
X153000000Y-84928280D02*
X153000000Y-90750400D01*
X151917000Y-83845280D02*
X153000000Y-84928280D01*
X202685290Y-102133400D02*
X201923290Y-102895400D01*
X202907540Y-102133400D02*
X202685290Y-102133400D01*
X201923290Y-102895400D02*
X203753491Y-101065199D01*
X208024399Y-104725601D02*
X209500000Y-103250000D01*
X204886543Y-104725601D02*
X208024399Y-104725601D01*
X203056342Y-102895400D02*
X204886543Y-104725601D01*
X201923290Y-102895400D02*
X203056342Y-102895400D01*
X206850000Y-96500040D02*
X208100000Y-96500040D01*
X209067040Y-97467080D02*
X209067040Y-102191202D01*
X208100000Y-96500040D02*
X209067040Y-97467080D01*
X206850000Y-98750040D02*
X203466640Y-102133400D01*
X203466640Y-102133400D02*
X202907540Y-102133400D01*
X206850000Y-96500040D02*
X206850000Y-98750040D01*
X111050000Y-86612280D02*
X113817000Y-83845280D01*
X111050000Y-90800040D02*
X111050000Y-86612280D01*
X85293650Y-95700040D02*
X78098290Y-102895400D01*
X86250000Y-95700040D02*
X85293650Y-95700040D01*
X79050000Y-103847110D02*
X78098290Y-102895400D01*
X79050000Y-111750040D02*
X79050000Y-103847110D01*
X75850000Y-114950040D02*
X79050000Y-111750040D01*
X65927680Y-114950040D02*
X75850000Y-114950040D01*
X64033040Y-113055400D02*
X65927680Y-114950040D01*
X244300000Y-54250040D02*
X244300000Y-57068842D01*
X244300000Y-57068842D02*
X244565599Y-57334441D01*
X233390000Y-75850040D02*
X232190000Y-77050040D01*
X235250000Y-75850040D02*
X233390000Y-75850040D01*
X235269799Y-75869839D02*
X235250000Y-75850040D01*
X235296497Y-75869839D02*
X235269799Y-75869839D01*
X236376698Y-76950040D02*
X235296497Y-75869839D01*
X245721162Y-76950040D02*
X236376698Y-76950040D01*
X245885601Y-76785601D02*
X245721162Y-76950040D01*
X304950000Y-74400000D02*
X304442749Y-74907251D01*
X300992789Y-74907251D02*
X295050000Y-80850040D01*
X292250000Y-80850040D02*
X290650000Y-79250040D01*
X290650000Y-79250040D02*
X275836396Y-79250040D01*
X304442749Y-74907251D02*
X300992789Y-74907251D01*
X295050000Y-80850040D02*
X292250000Y-80850040D01*
X271836396Y-75250040D02*
X267813604Y-75250040D01*
X266278043Y-76785601D02*
X245885601Y-76785601D01*
X275836396Y-79250040D02*
X271836396Y-75250040D01*
X267813604Y-75250040D02*
X266278043Y-76785601D01*
X101900040Y-93200040D02*
X132850000Y-93200040D01*
X79817300Y-93200040D02*
X74932209Y-98085131D01*
X101900040Y-93200040D02*
X79817300Y-93200040D01*
X74932209Y-98085131D02*
X74932209Y-98150279D01*
X66700040Y-84475400D02*
X66700040Y-89776795D01*
X66700040Y-89776795D02*
X71896833Y-94973588D01*
X71896833Y-94973588D02*
X71896833Y-95205271D01*
X172894042Y-93250040D02*
X172844042Y-93200040D01*
X298750000Y-93250040D02*
X172894042Y-93250040D01*
X172844042Y-93200040D02*
X132850000Y-93200040D01*
X300800000Y-95300040D02*
X298750000Y-93250040D01*
X60750000Y-105200040D02*
X60750000Y-103500040D01*
X69307211Y-101692829D02*
X65207211Y-101692829D01*
X63400000Y-103500040D02*
X60750000Y-103500040D01*
X65207211Y-101692829D02*
X63400000Y-103500040D01*
X73845626Y-97154414D02*
X69307211Y-101692829D01*
X243765800Y-67335240D02*
X243765800Y-69653938D01*
X243765800Y-50384200D02*
X243750000Y-50400000D01*
X243765800Y-48285160D02*
X243765800Y-50384200D01*
X234225000Y-86369560D02*
X234240760Y-86385320D01*
X234225000Y-84275000D02*
X234225000Y-86369560D01*
X234250000Y-97350440D02*
X234250040Y-97350400D01*
X234250000Y-98625000D02*
X234250000Y-97350440D01*
X234250000Y-105425440D02*
X234240040Y-105435400D01*
X234250000Y-98625000D02*
X234250000Y-105425440D01*
X234250040Y-29225760D02*
X234240760Y-29235040D01*
X234250040Y-25300400D02*
X234250040Y-29225760D01*
X234240760Y-31390760D02*
X234250000Y-31400000D01*
X234240760Y-29235040D02*
X234240760Y-31390760D01*
X262697540Y-55447540D02*
X262700000Y-55450000D01*
X262697540Y-53365400D02*
X262697540Y-55447540D01*
X262200000Y-71917860D02*
X262697540Y-72415400D01*
X262200000Y-70400000D02*
X262200000Y-71917860D01*
X233135200Y-67335240D02*
X243765800Y-67335240D01*
X231050000Y-65250040D02*
X233135200Y-67335240D01*
X226800920Y-65250040D02*
X231050000Y-65250040D01*
X224715720Y-67335240D02*
X226800920Y-65250040D01*
X260662900Y-74450040D02*
X262697540Y-72415400D01*
X257250000Y-74450040D02*
X260662900Y-74450040D01*
X255650000Y-72850040D02*
X257250000Y-74450040D01*
X246961902Y-72850040D02*
X255650000Y-72850040D01*
X243765800Y-69653938D02*
X246961902Y-72850040D01*
X232254680Y-103450040D02*
X234240040Y-105435400D01*
X229081650Y-103450040D02*
X232254680Y-103450040D01*
X227096290Y-105435400D02*
X229081650Y-103450040D01*
X227096290Y-107996330D02*
X227096290Y-105435400D01*
X229950000Y-110850040D02*
X227096290Y-107996330D01*
X235650000Y-110850040D02*
X229950000Y-110850040D01*
X237350000Y-112550040D02*
X235650000Y-110850040D01*
X241612900Y-112550040D02*
X237350000Y-112550040D01*
X243647540Y-110515400D02*
X241612900Y-112550040D01*
X274980040Y-64033400D02*
X275742040Y-64795400D01*
X274345040Y-64033400D02*
X274980040Y-64033400D01*
X277987400Y-62550040D02*
X275742040Y-64795400D01*
X279050000Y-62550040D02*
X277987400Y-62550040D01*
X191050040Y-84878400D02*
X191050040Y-90750400D01*
X190017040Y-83845400D02*
X191050040Y-84878400D01*
X144995540Y-111395540D02*
X144700000Y-111100000D01*
X144995540Y-113055400D02*
X144995540Y-111395540D01*
X151895400Y-102895400D02*
X151917040Y-102895400D01*
X149950000Y-100950000D02*
X151895400Y-102895400D01*
X161450000Y-102887440D02*
X161442040Y-102895400D01*
X161450000Y-95700040D02*
X161450000Y-102887440D01*
X154604640Y-102895400D02*
X151917040Y-102895400D01*
X156650000Y-100850040D02*
X154604640Y-102895400D01*
X159396680Y-100850040D02*
X156650000Y-100850040D01*
X161442040Y-102895400D02*
X159396680Y-100850040D01*
X177000000Y-106387440D02*
X180492040Y-102895400D01*
X177000000Y-109625940D02*
X177000000Y-106387440D01*
X173570540Y-113055400D02*
X177000000Y-109625940D01*
X180405400Y-113055400D02*
X180714290Y-113055400D01*
X177050000Y-109700000D02*
X180405400Y-113055400D01*
X176925940Y-109700000D02*
X177050000Y-109700000D01*
X173570540Y-113055400D02*
X176925940Y-109700000D01*
X180500040Y-102887400D02*
X180492040Y-102895400D01*
X180500040Y-95700040D02*
X180500040Y-102887400D01*
X169450000Y-101378360D02*
X170967040Y-102895400D01*
X169450000Y-95700040D02*
X169450000Y-101378360D01*
X56667040Y-102895400D02*
X56804640Y-102895400D01*
X57385839Y-108780241D02*
X60469799Y-108780241D01*
X57110241Y-108504643D02*
X57385839Y-108780241D01*
X60469799Y-108780241D02*
X60750000Y-108500040D01*
X57110241Y-103201001D02*
X57110241Y-108504643D01*
X56804640Y-102895400D02*
X57110241Y-103201001D01*
X47027680Y-96050040D02*
X44983040Y-94005400D01*
X49850000Y-96050040D02*
X47027680Y-96050040D01*
X54550000Y-94650040D02*
X51250000Y-94650040D01*
X57500000Y-96350040D02*
X56250000Y-96350040D01*
X56250000Y-96350040D02*
X54550000Y-94650040D01*
X51250000Y-94650040D02*
X49850000Y-96050040D01*
X200696680Y-46900040D02*
X199542040Y-45745400D01*
X202450000Y-46900040D02*
X200696680Y-46900040D01*
X227050000Y-111741190D02*
X224973790Y-113817400D01*
X227050000Y-109650040D02*
X227050000Y-111741190D01*
X225450000Y-108050040D02*
X227050000Y-109650040D01*
X225450000Y-95700040D02*
X225450000Y-108050040D01*
X301699640Y-36850000D02*
X301700040Y-36850400D01*
X267300000Y-36850000D02*
X301699640Y-36850000D01*
X115000400Y-36850400D02*
X115000000Y-36850000D01*
X119900040Y-36850400D02*
X115000400Y-36850400D01*
X172000040Y-36850400D02*
X191250040Y-36850400D01*
X229270199Y-36820199D02*
X229300000Y-36850000D01*
X191280241Y-36820199D02*
X229270199Y-36820199D01*
X191250040Y-36850400D02*
X191280241Y-36820199D01*
X267270199Y-36820199D02*
X267300000Y-36850000D01*
X229329801Y-36820199D02*
X267270199Y-36820199D01*
X229300000Y-36850000D02*
X229329801Y-36820199D01*
X69900040Y-74799960D02*
X69900000Y-74800000D01*
X69900040Y-73075400D02*
X69900040Y-74799960D01*
X119900040Y-36850400D02*
X119930241Y-36820199D01*
X119930241Y-36820199D02*
X171969839Y-36820199D01*
X171969839Y-36820199D02*
X172000040Y-36850400D01*
X29250000Y-44650040D02*
X37050000Y-44650040D01*
X39050000Y-42650040D02*
X42450000Y-42650040D01*
X37050000Y-44650040D02*
X39050000Y-42650040D01*
X76900000Y-36850000D02*
X69847286Y-36850000D01*
X69847286Y-36850000D02*
X69114897Y-37582389D01*
X45650000Y-42650040D02*
X64047246Y-42650040D01*
X64047246Y-42650040D02*
X69114897Y-37582389D01*
X115000000Y-36850000D02*
X98850040Y-36850000D01*
X98849960Y-36850000D02*
X98850000Y-36850040D01*
X76900000Y-36850000D02*
X98849960Y-36850000D01*
X98850040Y-36850000D02*
X98850000Y-36850040D01*
X68300040Y-74737829D02*
X68309050Y-74746839D01*
X68300040Y-73075400D02*
X68300040Y-74737829D01*
X145250000Y-42800040D02*
X107250000Y-42800040D01*
X145269799Y-42819839D02*
X145250000Y-42800040D01*
X221419799Y-42819839D02*
X145269799Y-42819839D01*
X221450000Y-42850040D02*
X221419799Y-42819839D01*
X259650000Y-42800040D02*
X221450000Y-42800040D01*
X69250000Y-42050040D02*
X68850000Y-41650040D01*
X68850000Y-41650040D02*
X68300000Y-41650040D01*
X69250000Y-42800040D02*
X69250000Y-42050040D01*
X104800000Y-42800040D02*
X69250000Y-42800040D01*
X107250000Y-42800040D02*
X104800000Y-42800040D01*
X282169799Y-42169839D02*
X283250000Y-43250040D01*
X283250000Y-43250040D02*
X284150000Y-43250040D01*
X262080201Y-42169839D02*
X282169799Y-42169839D01*
X261450000Y-42800040D02*
X262080201Y-42169839D01*
X259650000Y-42800040D02*
X261450000Y-42800040D01*
X284100000Y-43200040D02*
X284150000Y-43250040D01*
X284100000Y-39400040D02*
X284100000Y-43200040D01*
X139000000Y-37950040D02*
X141550000Y-37950040D01*
X145250000Y-41650040D02*
X145250000Y-42800040D01*
X141550000Y-37950040D02*
X145250000Y-41650040D01*
X94250040Y-76750400D02*
X90250040Y-76750400D01*
X86889862Y-82660578D02*
X89950000Y-79600440D01*
X74763985Y-82660578D02*
X86889862Y-82660578D01*
X72478807Y-80375400D02*
X74763985Y-82660578D01*
X89950000Y-79600440D02*
X89950000Y-79300000D01*
X71600040Y-80375400D02*
X72478807Y-80375400D01*
X88500040Y-75400400D02*
X87150040Y-76750400D01*
X93060040Y-75400400D02*
X88500040Y-75400400D01*
X94250040Y-74210400D02*
X93060040Y-75400400D01*
X86850000Y-79600440D02*
X86850000Y-79300000D01*
X74953367Y-82203367D02*
X84247073Y-82203367D01*
X84247073Y-82203367D02*
X86850000Y-79600440D01*
X72325400Y-79575400D02*
X74953367Y-82203367D01*
X71600040Y-79575400D02*
X72325400Y-79575400D01*
X50350040Y-67920400D02*
X50350040Y-74220400D01*
X50350040Y-74250040D02*
X50350040Y-74220400D01*
X51025000Y-74925000D02*
X50350040Y-74250040D01*
X54600000Y-74925000D02*
X51025000Y-74925000D01*
X71600040Y-75575400D02*
X70274600Y-75575400D01*
X70274600Y-75575400D02*
X70250000Y-75600000D01*
X54600000Y-74925000D02*
X54600000Y-75549998D01*
X54600000Y-75549998D02*
X55300002Y-76250000D01*
X77975000Y-63450000D02*
X72050000Y-63450000D01*
X82225040Y-67700040D02*
X77975000Y-63450000D01*
X90636396Y-70200040D02*
X87550000Y-70200040D01*
X92836396Y-72400040D02*
X90636396Y-70200040D01*
X87550000Y-70200040D02*
X85050000Y-67700040D01*
X105380040Y-72400040D02*
X92836396Y-72400040D01*
X85050000Y-67700040D02*
X82225040Y-67700040D01*
X107180000Y-74200000D02*
X105380040Y-72400040D01*
X69100040Y-74399960D02*
X69100000Y-74400000D01*
X69100040Y-73075400D02*
X69100040Y-74399960D01*
X88250000Y-43600040D02*
X126250000Y-43600040D01*
X164250000Y-43600040D02*
X126250000Y-43600040D01*
X164250000Y-43600040D02*
X183450000Y-43600040D01*
X183450000Y-43600040D02*
X202450000Y-43600040D01*
X267900000Y-43600040D02*
X268250000Y-43250040D01*
X240450000Y-43600040D02*
X267900000Y-43600040D01*
X268250000Y-43250040D02*
X278400000Y-43250040D01*
X240450000Y-43600040D02*
X202450000Y-43600040D01*
X69429283Y-43600040D02*
X69179283Y-43850040D01*
X51300000Y-43850040D02*
X69179283Y-43850040D01*
X88250000Y-43600040D02*
X69429283Y-43600040D01*
X271250000Y-39300040D02*
X271250000Y-38050040D01*
X65100040Y-86500000D02*
X64850000Y-86750040D01*
X65100040Y-84475400D02*
X65100040Y-86500000D01*
X61429400Y-86750040D02*
X61250000Y-86750040D01*
X62700040Y-85479400D02*
X61429400Y-86750040D01*
X62700040Y-84475400D02*
X62700040Y-85479400D01*
X72375360Y-82775400D02*
X73650000Y-84050040D01*
X71600040Y-82775400D02*
X72375360Y-82775400D01*
X58275360Y-77175400D02*
X57950000Y-76850040D01*
X60200040Y-77175400D02*
X58275360Y-77175400D01*
X58024640Y-80375400D02*
X57950000Y-80450040D01*
X60200040Y-80375400D02*
X58024640Y-80375400D01*
X56780201Y-81280241D02*
X55950000Y-80450040D01*
X59091199Y-81280241D02*
X56780201Y-81280241D01*
X59196040Y-81175400D02*
X59091199Y-81280241D01*
X60200040Y-81175400D02*
X59196040Y-81175400D01*
X65140105Y-73825400D02*
X65149423Y-73920006D01*
X65177018Y-74010977D01*
X65221831Y-74094815D01*
X65227040Y-74101162D01*
X65227040Y-74301650D01*
X65385790Y-74460400D01*
X65502671Y-74450577D01*
X65622185Y-74413665D01*
X65732201Y-74354146D01*
X65785040Y-74310335D01*
X65912862Y-74310335D01*
X65876693Y-74397654D01*
X65846618Y-74548851D01*
X65846618Y-74703009D01*
X65876693Y-74854206D01*
X65935687Y-74996630D01*
X66021333Y-75124809D01*
X66130339Y-75233815D01*
X66258518Y-75319461D01*
X66400942Y-75378455D01*
X66552139Y-75408530D01*
X66706297Y-75408530D01*
X66857494Y-75378455D01*
X66999918Y-75319461D01*
X67128097Y-75233815D01*
X67227644Y-75134268D01*
X67271724Y-75152527D01*
X67422921Y-75182602D01*
X67577079Y-75182602D01*
X67649383Y-75168220D01*
X67701165Y-75245718D01*
X67810171Y-75354724D01*
X67938350Y-75440370D01*
X68080774Y-75499364D01*
X68231971Y-75529439D01*
X68386129Y-75529439D01*
X68537326Y-75499364D01*
X68679750Y-75440370D01*
X68807929Y-75354724D01*
X68916935Y-75245718D01*
X68966595Y-75171396D01*
X69022921Y-75182600D01*
X69177079Y-75182600D01*
X69210040Y-75176044D01*
X69292115Y-75298879D01*
X69401121Y-75407885D01*
X69479822Y-75460471D01*
X69467400Y-75522921D01*
X69467400Y-75677079D01*
X69485940Y-75770286D01*
X69411142Y-75820264D01*
X69302136Y-75929270D01*
X69216490Y-76057449D01*
X69157496Y-76199873D01*
X69127421Y-76351070D01*
X69127421Y-76505228D01*
X69157496Y-76656425D01*
X69216490Y-76798849D01*
X69302136Y-76927028D01*
X69411142Y-77036034D01*
X69539321Y-77121680D01*
X69681745Y-77180674D01*
X69832942Y-77210749D01*
X69987100Y-77210749D01*
X70138297Y-77180674D01*
X70280721Y-77121680D01*
X70390243Y-77048500D01*
X70574400Y-77048500D01*
X70580625Y-77053609D01*
X70664463Y-77098422D01*
X70755434Y-77126017D01*
X70850040Y-77135335D01*
X71747040Y-77135335D01*
X71747040Y-77215465D01*
X70850040Y-77215465D01*
X70755434Y-77224783D01*
X70664463Y-77252378D01*
X70580625Y-77297191D01*
X70574278Y-77302400D01*
X70373790Y-77302400D01*
X70215040Y-77461150D01*
X70224863Y-77578031D01*
X70261775Y-77697545D01*
X70321294Y-77807561D01*
X70365105Y-77860400D01*
X70365105Y-78250400D01*
X70374423Y-78345006D01*
X70383643Y-78375400D01*
X70374423Y-78405794D01*
X70365105Y-78500400D01*
X70365105Y-79050400D01*
X70374423Y-79145006D01*
X70383643Y-79175400D01*
X70374423Y-79205794D01*
X70365105Y-79300400D01*
X70365105Y-79850400D01*
X70374423Y-79945006D01*
X70383643Y-79975400D01*
X70374423Y-80005794D01*
X70365105Y-80100400D01*
X70365105Y-80650400D01*
X70374423Y-80745006D01*
X70383643Y-80775400D01*
X70374423Y-80805794D01*
X70365105Y-80900400D01*
X70365105Y-81450400D01*
X70374423Y-81545006D01*
X70383643Y-81575400D01*
X70374423Y-81605794D01*
X70365105Y-81700400D01*
X70365105Y-82250400D01*
X70374423Y-82345006D01*
X70383643Y-82375400D01*
X70374423Y-82405794D01*
X70365105Y-82500400D01*
X70365105Y-83050400D01*
X70372125Y-83121674D01*
X70302671Y-83100223D01*
X70185790Y-83090400D01*
X70027040Y-83249150D01*
X70027040Y-84348400D01*
X70651290Y-84348400D01*
X70810040Y-84189650D01*
X70813104Y-83728613D01*
X70801470Y-83604071D01*
X70778910Y-83528329D01*
X70850040Y-83535335D01*
X72273192Y-83535335D01*
X72473064Y-83735207D01*
X72473046Y-85120894D01*
X72394864Y-85056732D01*
X72277931Y-84994230D01*
X72151052Y-84955741D01*
X72052160Y-84946001D01*
X72052157Y-84946001D01*
X72019101Y-84942745D01*
X71986045Y-84946001D01*
X70811268Y-84946001D01*
X70810040Y-84761150D01*
X70651290Y-84602400D01*
X70027040Y-84602400D01*
X70027040Y-84622400D01*
X69859975Y-84622400D01*
X69859975Y-83725400D01*
X69850657Y-83630794D01*
X69823062Y-83539823D01*
X69778249Y-83455985D01*
X69773140Y-83449760D01*
X69773140Y-83151215D01*
X69793531Y-83120698D01*
X69852525Y-82978274D01*
X69882600Y-82827077D01*
X69882600Y-82672919D01*
X69852525Y-82521722D01*
X69793531Y-82379298D01*
X69707885Y-82251119D01*
X69598879Y-82142113D01*
X69470700Y-82056467D01*
X69328276Y-81997473D01*
X69177079Y-81967398D01*
X69022921Y-81967398D01*
X68871724Y-81997473D01*
X68729300Y-82056467D01*
X68601121Y-82142113D01*
X68492115Y-82251119D01*
X68406469Y-82379298D01*
X68347475Y-82521722D01*
X68317400Y-82672919D01*
X68317400Y-82827077D01*
X68347475Y-82978274D01*
X68406469Y-83120698D01*
X68426941Y-83151336D01*
X68426941Y-83240465D01*
X68025040Y-83240465D01*
X67930434Y-83249783D01*
X67900040Y-83259003D01*
X67869646Y-83249783D01*
X67775040Y-83240465D01*
X67225040Y-83240465D01*
X67130434Y-83249783D01*
X67100040Y-83259003D01*
X67069646Y-83249783D01*
X66975040Y-83240465D01*
X66425040Y-83240465D01*
X66330434Y-83249783D01*
X66300040Y-83259003D01*
X66269646Y-83249783D01*
X66175040Y-83240465D01*
X65625040Y-83240465D01*
X65530434Y-83249783D01*
X65500040Y-83259003D01*
X65469646Y-83249783D01*
X65375040Y-83240465D01*
X64825040Y-83240465D01*
X64730434Y-83249783D01*
X64700040Y-83259003D01*
X64669646Y-83249783D01*
X64575040Y-83240465D01*
X64025040Y-83240465D01*
X63930434Y-83249783D01*
X63900040Y-83259003D01*
X63869646Y-83249783D01*
X63775040Y-83240465D01*
X63225040Y-83240465D01*
X63130434Y-83249783D01*
X63100040Y-83259003D01*
X63069646Y-83249783D01*
X62975040Y-83240465D01*
X62425040Y-83240465D01*
X62330434Y-83249783D01*
X62300040Y-83259003D01*
X62269646Y-83249783D01*
X62175040Y-83240465D01*
X62146916Y-83240465D01*
X62193531Y-83170700D01*
X62252525Y-83028276D01*
X62282600Y-82877079D01*
X62282600Y-82722921D01*
X62252525Y-82571724D01*
X62193531Y-82429300D01*
X62107885Y-82301121D01*
X61998879Y-82192115D01*
X61870700Y-82106469D01*
X61728276Y-82047475D01*
X61577079Y-82017400D01*
X61422921Y-82017400D01*
X61271724Y-82047475D01*
X61189873Y-82081379D01*
X61135617Y-82052378D01*
X61044646Y-82024783D01*
X60950040Y-82015465D01*
X60053040Y-82015465D01*
X60053040Y-81935335D01*
X60950040Y-81935335D01*
X61044646Y-81926017D01*
X61135617Y-81898422D01*
X61219455Y-81853609D01*
X61225802Y-81848400D01*
X61426290Y-81848400D01*
X61585040Y-81689650D01*
X61575217Y-81572769D01*
X61538305Y-81453255D01*
X61478786Y-81343239D01*
X61434975Y-81290400D01*
X61434975Y-80900400D01*
X61425657Y-80805794D01*
X61416437Y-80775400D01*
X61425657Y-80745006D01*
X61434975Y-80650400D01*
X61434975Y-80100400D01*
X61425657Y-80005794D01*
X61416437Y-79975400D01*
X61425657Y-79945006D01*
X61434975Y-79850400D01*
X61434975Y-79300400D01*
X61425657Y-79205794D01*
X61416437Y-79175400D01*
X61425657Y-79145006D01*
X61434975Y-79050400D01*
X61434975Y-78500400D01*
X61425657Y-78405794D01*
X61416437Y-78375400D01*
X61425657Y-78345006D01*
X61434975Y-78250400D01*
X61434975Y-77700400D01*
X61425657Y-77605794D01*
X61416437Y-77575400D01*
X61425657Y-77545006D01*
X61434975Y-77450400D01*
X61434975Y-76900400D01*
X61425657Y-76805794D01*
X61416437Y-76775400D01*
X61425657Y-76745006D01*
X61434975Y-76650400D01*
X61434975Y-76260400D01*
X61478786Y-76207561D01*
X61538305Y-76097545D01*
X61575217Y-75978031D01*
X61585040Y-75861150D01*
X61426290Y-75702400D01*
X61225802Y-75702400D01*
X61219455Y-75697191D01*
X61135617Y-75652378D01*
X61044646Y-75624783D01*
X60950040Y-75615465D01*
X60053040Y-75615465D01*
X60053040Y-75535335D01*
X60950040Y-75535335D01*
X61044646Y-75526017D01*
X61135617Y-75498422D01*
X61219455Y-75453609D01*
X61225680Y-75448500D01*
X62091504Y-75448500D01*
X62124560Y-75451756D01*
X62157616Y-75448500D01*
X62157619Y-75448500D01*
X62256511Y-75438760D01*
X62383390Y-75400271D01*
X62439905Y-75370063D01*
X62528276Y-75352485D01*
X62670700Y-75293491D01*
X62798879Y-75207845D01*
X62907885Y-75098839D01*
X62993531Y-74970660D01*
X63052525Y-74828236D01*
X63058091Y-74800255D01*
X63152611Y-74705735D01*
X63178296Y-74684656D01*
X63262409Y-74582163D01*
X63324911Y-74465230D01*
X63363400Y-74338351D01*
X63366159Y-74310335D01*
X63775040Y-74310335D01*
X63869646Y-74301017D01*
X63900040Y-74291797D01*
X63930434Y-74301017D01*
X64025040Y-74310335D01*
X64415040Y-74310335D01*
X64467879Y-74354146D01*
X64577895Y-74413665D01*
X64697409Y-74450577D01*
X64814290Y-74460400D01*
X64973040Y-74301650D01*
X64973040Y-74101162D01*
X64978249Y-74094815D01*
X65023062Y-74010977D01*
X65050657Y-73920006D01*
X65059975Y-73825400D01*
X65059975Y-72928400D01*
X65140105Y-72928400D01*
X65140105Y-73825400D01*
G04 #@! TA.AperFunction,Conductor*
D41*
G36*
X65140105Y-73825400D02*
G01*
X65149423Y-73920006D01*
X65177018Y-74010977D01*
X65221831Y-74094815D01*
X65227040Y-74101162D01*
X65227040Y-74301650D01*
X65385790Y-74460400D01*
X65502671Y-74450577D01*
X65622185Y-74413665D01*
X65732201Y-74354146D01*
X65785040Y-74310335D01*
X65912862Y-74310335D01*
X65876693Y-74397654D01*
X65846618Y-74548851D01*
X65846618Y-74703009D01*
X65876693Y-74854206D01*
X65935687Y-74996630D01*
X66021333Y-75124809D01*
X66130339Y-75233815D01*
X66258518Y-75319461D01*
X66400942Y-75378455D01*
X66552139Y-75408530D01*
X66706297Y-75408530D01*
X66857494Y-75378455D01*
X66999918Y-75319461D01*
X67128097Y-75233815D01*
X67227644Y-75134268D01*
X67271724Y-75152527D01*
X67422921Y-75182602D01*
X67577079Y-75182602D01*
X67649383Y-75168220D01*
X67701165Y-75245718D01*
X67810171Y-75354724D01*
X67938350Y-75440370D01*
X68080774Y-75499364D01*
X68231971Y-75529439D01*
X68386129Y-75529439D01*
X68537326Y-75499364D01*
X68679750Y-75440370D01*
X68807929Y-75354724D01*
X68916935Y-75245718D01*
X68966595Y-75171396D01*
X69022921Y-75182600D01*
X69177079Y-75182600D01*
X69210040Y-75176044D01*
X69292115Y-75298879D01*
X69401121Y-75407885D01*
X69479822Y-75460471D01*
X69467400Y-75522921D01*
X69467400Y-75677079D01*
X69485940Y-75770286D01*
X69411142Y-75820264D01*
X69302136Y-75929270D01*
X69216490Y-76057449D01*
X69157496Y-76199873D01*
X69127421Y-76351070D01*
X69127421Y-76505228D01*
X69157496Y-76656425D01*
X69216490Y-76798849D01*
X69302136Y-76927028D01*
X69411142Y-77036034D01*
X69539321Y-77121680D01*
X69681745Y-77180674D01*
X69832942Y-77210749D01*
X69987100Y-77210749D01*
X70138297Y-77180674D01*
X70280721Y-77121680D01*
X70390243Y-77048500D01*
X70574400Y-77048500D01*
X70580625Y-77053609D01*
X70664463Y-77098422D01*
X70755434Y-77126017D01*
X70850040Y-77135335D01*
X71747040Y-77135335D01*
X71747040Y-77215465D01*
X70850040Y-77215465D01*
X70755434Y-77224783D01*
X70664463Y-77252378D01*
X70580625Y-77297191D01*
X70574278Y-77302400D01*
X70373790Y-77302400D01*
X70215040Y-77461150D01*
X70224863Y-77578031D01*
X70261775Y-77697545D01*
X70321294Y-77807561D01*
X70365105Y-77860400D01*
X70365105Y-78250400D01*
X70374423Y-78345006D01*
X70383643Y-78375400D01*
X70374423Y-78405794D01*
X70365105Y-78500400D01*
X70365105Y-79050400D01*
X70374423Y-79145006D01*
X70383643Y-79175400D01*
X70374423Y-79205794D01*
X70365105Y-79300400D01*
X70365105Y-79850400D01*
X70374423Y-79945006D01*
X70383643Y-79975400D01*
X70374423Y-80005794D01*
X70365105Y-80100400D01*
X70365105Y-80650400D01*
X70374423Y-80745006D01*
X70383643Y-80775400D01*
X70374423Y-80805794D01*
X70365105Y-80900400D01*
X70365105Y-81450400D01*
X70374423Y-81545006D01*
X70383643Y-81575400D01*
X70374423Y-81605794D01*
X70365105Y-81700400D01*
X70365105Y-82250400D01*
X70374423Y-82345006D01*
X70383643Y-82375400D01*
X70374423Y-82405794D01*
X70365105Y-82500400D01*
X70365105Y-83050400D01*
X70372125Y-83121674D01*
X70302671Y-83100223D01*
X70185790Y-83090400D01*
X70027040Y-83249150D01*
X70027040Y-84348400D01*
X70651290Y-84348400D01*
X70810040Y-84189650D01*
X70813104Y-83728613D01*
X70801470Y-83604071D01*
X70778910Y-83528329D01*
X70850040Y-83535335D01*
X72273192Y-83535335D01*
X72473064Y-83735207D01*
X72473046Y-85120894D01*
X72394864Y-85056732D01*
X72277931Y-84994230D01*
X72151052Y-84955741D01*
X72052160Y-84946001D01*
X72052157Y-84946001D01*
X72019101Y-84942745D01*
X71986045Y-84946001D01*
X70811268Y-84946001D01*
X70810040Y-84761150D01*
X70651290Y-84602400D01*
X70027040Y-84602400D01*
X70027040Y-84622400D01*
X69859975Y-84622400D01*
X69859975Y-83725400D01*
X69850657Y-83630794D01*
X69823062Y-83539823D01*
X69778249Y-83455985D01*
X69773140Y-83449760D01*
X69773140Y-83151215D01*
X69793531Y-83120698D01*
X69852525Y-82978274D01*
X69882600Y-82827077D01*
X69882600Y-82672919D01*
X69852525Y-82521722D01*
X69793531Y-82379298D01*
X69707885Y-82251119D01*
X69598879Y-82142113D01*
X69470700Y-82056467D01*
X69328276Y-81997473D01*
X69177079Y-81967398D01*
X69022921Y-81967398D01*
X68871724Y-81997473D01*
X68729300Y-82056467D01*
X68601121Y-82142113D01*
X68492115Y-82251119D01*
X68406469Y-82379298D01*
X68347475Y-82521722D01*
X68317400Y-82672919D01*
X68317400Y-82827077D01*
X68347475Y-82978274D01*
X68406469Y-83120698D01*
X68426941Y-83151336D01*
X68426941Y-83240465D01*
X68025040Y-83240465D01*
X67930434Y-83249783D01*
X67900040Y-83259003D01*
X67869646Y-83249783D01*
X67775040Y-83240465D01*
X67225040Y-83240465D01*
X67130434Y-83249783D01*
X67100040Y-83259003D01*
X67069646Y-83249783D01*
X66975040Y-83240465D01*
X66425040Y-83240465D01*
X66330434Y-83249783D01*
X66300040Y-83259003D01*
X66269646Y-83249783D01*
X66175040Y-83240465D01*
X65625040Y-83240465D01*
X65530434Y-83249783D01*
X65500040Y-83259003D01*
X65469646Y-83249783D01*
X65375040Y-83240465D01*
X64825040Y-83240465D01*
X64730434Y-83249783D01*
X64700040Y-83259003D01*
X64669646Y-83249783D01*
X64575040Y-83240465D01*
X64025040Y-83240465D01*
X63930434Y-83249783D01*
X63900040Y-83259003D01*
X63869646Y-83249783D01*
X63775040Y-83240465D01*
X63225040Y-83240465D01*
X63130434Y-83249783D01*
X63100040Y-83259003D01*
X63069646Y-83249783D01*
X62975040Y-83240465D01*
X62425040Y-83240465D01*
X62330434Y-83249783D01*
X62300040Y-83259003D01*
X62269646Y-83249783D01*
X62175040Y-83240465D01*
X62146916Y-83240465D01*
X62193531Y-83170700D01*
X62252525Y-83028276D01*
X62282600Y-82877079D01*
X62282600Y-82722921D01*
X62252525Y-82571724D01*
X62193531Y-82429300D01*
X62107885Y-82301121D01*
X61998879Y-82192115D01*
X61870700Y-82106469D01*
X61728276Y-82047475D01*
X61577079Y-82017400D01*
X61422921Y-82017400D01*
X61271724Y-82047475D01*
X61189873Y-82081379D01*
X61135617Y-82052378D01*
X61044646Y-82024783D01*
X60950040Y-82015465D01*
X60053040Y-82015465D01*
X60053040Y-81935335D01*
X60950040Y-81935335D01*
X61044646Y-81926017D01*
X61135617Y-81898422D01*
X61219455Y-81853609D01*
X61225802Y-81848400D01*
X61426290Y-81848400D01*
X61585040Y-81689650D01*
X61575217Y-81572769D01*
X61538305Y-81453255D01*
X61478786Y-81343239D01*
X61434975Y-81290400D01*
X61434975Y-80900400D01*
X61425657Y-80805794D01*
X61416437Y-80775400D01*
X61425657Y-80745006D01*
X61434975Y-80650400D01*
X61434975Y-80100400D01*
X61425657Y-80005794D01*
X61416437Y-79975400D01*
X61425657Y-79945006D01*
X61434975Y-79850400D01*
X61434975Y-79300400D01*
X61425657Y-79205794D01*
X61416437Y-79175400D01*
X61425657Y-79145006D01*
X61434975Y-79050400D01*
X61434975Y-78500400D01*
X61425657Y-78405794D01*
X61416437Y-78375400D01*
X61425657Y-78345006D01*
X61434975Y-78250400D01*
X61434975Y-77700400D01*
X61425657Y-77605794D01*
X61416437Y-77575400D01*
X61425657Y-77545006D01*
X61434975Y-77450400D01*
X61434975Y-76900400D01*
X61425657Y-76805794D01*
X61416437Y-76775400D01*
X61425657Y-76745006D01*
X61434975Y-76650400D01*
X61434975Y-76260400D01*
X61478786Y-76207561D01*
X61538305Y-76097545D01*
X61575217Y-75978031D01*
X61585040Y-75861150D01*
X61426290Y-75702400D01*
X61225802Y-75702400D01*
X61219455Y-75697191D01*
X61135617Y-75652378D01*
X61044646Y-75624783D01*
X60950040Y-75615465D01*
X60053040Y-75615465D01*
X60053040Y-75535335D01*
X60950040Y-75535335D01*
X61044646Y-75526017D01*
X61135617Y-75498422D01*
X61219455Y-75453609D01*
X61225680Y-75448500D01*
X62091504Y-75448500D01*
X62124560Y-75451756D01*
X62157616Y-75448500D01*
X62157619Y-75448500D01*
X62256511Y-75438760D01*
X62383390Y-75400271D01*
X62439905Y-75370063D01*
X62528276Y-75352485D01*
X62670700Y-75293491D01*
X62798879Y-75207845D01*
X62907885Y-75098839D01*
X62993531Y-74970660D01*
X63052525Y-74828236D01*
X63058091Y-74800255D01*
X63152611Y-74705735D01*
X63178296Y-74684656D01*
X63262409Y-74582163D01*
X63324911Y-74465230D01*
X63363400Y-74338351D01*
X63366159Y-74310335D01*
X63775040Y-74310335D01*
X63869646Y-74301017D01*
X63900040Y-74291797D01*
X63930434Y-74301017D01*
X64025040Y-74310335D01*
X64415040Y-74310335D01*
X64467879Y-74354146D01*
X64577895Y-74413665D01*
X64697409Y-74450577D01*
X64814290Y-74460400D01*
X64973040Y-74301650D01*
X64973040Y-74101162D01*
X64978249Y-74094815D01*
X65023062Y-74010977D01*
X65050657Y-73920006D01*
X65059975Y-73825400D01*
X65059975Y-72928400D01*
X65140105Y-72928400D01*
X65140105Y-73825400D01*
G37*
G04 #@! TD.AperFunction*
D39*
X44269965Y-22718842D02*
X44147743Y-22894688D01*
X44062176Y-23091000D01*
X44016552Y-23300233D01*
X44016552Y-23700233D01*
X44974552Y-23700233D01*
X44974552Y-23680233D01*
X45228552Y-23680233D01*
X45228552Y-23700233D01*
X46186552Y-23700233D01*
X46186552Y-23300233D01*
X46140928Y-23091000D01*
X46059719Y-22904687D01*
X46123478Y-22956688D01*
X46171252Y-22988429D01*
X46218550Y-23020814D01*
X46226319Y-23025015D01*
X46312480Y-23070827D01*
X46365507Y-23092683D01*
X46418184Y-23115260D01*
X46426621Y-23117873D01*
X46520039Y-23146078D01*
X46576284Y-23157214D01*
X46632371Y-23169136D01*
X46641155Y-23170059D01*
X46657043Y-23171617D01*
X46636954Y-29650982D01*
X46327698Y-29960239D01*
X42559600Y-29960239D01*
X42559600Y-29179978D01*
X42562549Y-29150039D01*
X42554093Y-29064190D01*
X42550779Y-29030538D01*
X42520456Y-28930578D01*
X42658691Y-28987837D01*
X42819548Y-29019833D01*
X42983556Y-29019833D01*
X43144413Y-28987837D01*
X43267308Y-28936932D01*
X43277336Y-29056000D01*
X43455936Y-29131822D01*
X43645896Y-29171343D01*
X43839916Y-29173046D01*
X44030541Y-29136865D01*
X44210445Y-29064190D01*
X44225768Y-29056000D01*
X44242464Y-28857750D01*
X43751552Y-28366838D01*
X43737410Y-28380981D01*
X43716153Y-28359724D01*
X43734152Y-28269237D01*
X43734152Y-28105229D01*
X43716153Y-28014742D01*
X43737410Y-27993486D01*
X43751552Y-28007628D01*
X43765695Y-27993486D01*
X43945300Y-28173091D01*
X43931157Y-28187233D01*
X44081327Y-28337403D01*
X44147743Y-28489778D01*
X44269965Y-28665624D01*
X44424144Y-28814247D01*
X44604355Y-28929935D01*
X44807551Y-29001641D01*
X44974552Y-28874735D01*
X44974552Y-27334233D01*
X45228552Y-27334233D01*
X45228552Y-28874735D01*
X45395553Y-29001641D01*
X45598749Y-28929935D01*
X45778960Y-28814247D01*
X45933139Y-28665624D01*
X46055361Y-28489778D01*
X46140928Y-28293466D01*
X46186552Y-28084233D01*
X46186552Y-27334233D01*
X45228552Y-27334233D01*
X44974552Y-27334233D01*
X44428160Y-27334233D01*
X44422072Y-27328145D01*
X44620319Y-27311449D01*
X44696141Y-27132849D01*
X44707088Y-27080233D01*
X44974552Y-27080233D01*
X44974552Y-25539731D01*
X45228552Y-25539731D01*
X45228552Y-27080233D01*
X46186552Y-27080233D01*
X46186552Y-26330233D01*
X46140928Y-26121000D01*
X46055361Y-25924688D01*
X45933139Y-25748842D01*
X45778960Y-25600219D01*
X45598749Y-25484531D01*
X45395553Y-25412825D01*
X45228552Y-25539731D01*
X44974552Y-25539731D01*
X44807551Y-25412825D01*
X44604355Y-25484531D01*
X44424144Y-25600219D01*
X44269965Y-25748842D01*
X44147743Y-25924688D01*
X44143824Y-25933678D01*
X44047168Y-25892644D01*
X43857208Y-25853123D01*
X43663188Y-25851420D01*
X43472563Y-25887601D01*
X43417446Y-25909866D01*
X43379807Y-25864003D01*
X43354128Y-25842929D01*
X43152160Y-25640961D01*
X43131081Y-25615276D01*
X43028588Y-25531163D01*
X42911655Y-25468661D01*
X42784776Y-25430172D01*
X42685884Y-25420432D01*
X42685881Y-25420432D01*
X42652825Y-25417176D01*
X42619769Y-25420432D01*
X38933334Y-25420432D01*
X38900278Y-25417176D01*
X38867222Y-25420432D01*
X38867220Y-25420432D01*
X38768328Y-25430172D01*
X38641449Y-25468661D01*
X38524516Y-25531163D01*
X38422023Y-25615276D01*
X38400944Y-25640961D01*
X38198976Y-25842929D01*
X38173297Y-25864003D01*
X38136195Y-25909212D01*
X38097168Y-25892644D01*
X37907208Y-25853123D01*
X37713188Y-25851420D01*
X37522563Y-25887601D01*
X37409163Y-25933411D01*
X37405361Y-25924688D01*
X37283139Y-25748842D01*
X37128960Y-25600219D01*
X36948749Y-25484531D01*
X36745553Y-25412825D01*
X36578552Y-25539731D01*
X36578552Y-27080233D01*
X36845089Y-27080233D01*
X36851920Y-27116222D01*
X36924595Y-27296126D01*
X36932785Y-27311449D01*
X37131032Y-27328145D01*
X37124944Y-27334233D01*
X36578552Y-27334233D01*
X36578552Y-28874735D01*
X36745553Y-29001641D01*
X36948749Y-28929935D01*
X37128960Y-28814247D01*
X37283139Y-28665624D01*
X37405361Y-28489778D01*
X37471777Y-28337403D01*
X37621947Y-28187233D01*
X37607805Y-28173091D01*
X37787410Y-27993486D01*
X37801552Y-28007628D01*
X37815695Y-27993486D01*
X37836951Y-28014742D01*
X37818952Y-28105229D01*
X37818952Y-28269237D01*
X37836951Y-28359724D01*
X37815695Y-28380981D01*
X37801552Y-28366838D01*
X37310640Y-28857750D01*
X37327336Y-29056000D01*
X37505936Y-29131822D01*
X37695896Y-29171343D01*
X37889916Y-29173046D01*
X38080541Y-29136865D01*
X38260445Y-29064190D01*
X38275768Y-29056000D01*
X38285796Y-28936932D01*
X38408691Y-28987837D01*
X38569548Y-29019833D01*
X38733556Y-29019833D01*
X38894413Y-28987837D01*
X39045936Y-28925074D01*
X39076552Y-28904617D01*
X39107168Y-28925074D01*
X39258691Y-28987837D01*
X39419548Y-29019833D01*
X39583556Y-29019833D01*
X39744413Y-28987837D01*
X39895936Y-28925074D01*
X39926552Y-28904617D01*
X39957168Y-28925074D01*
X39967006Y-28929149D01*
X40340400Y-29302544D01*
X40340400Y-29973484D01*
X34789954Y-29973402D01*
X34798136Y-27334233D01*
X35366552Y-27334233D01*
X35366552Y-28084233D01*
X35412176Y-28293466D01*
X35497743Y-28489778D01*
X35619965Y-28665624D01*
X35774144Y-28814247D01*
X35954355Y-28929935D01*
X36157551Y-29001641D01*
X36324552Y-28874735D01*
X36324552Y-27334233D01*
X35366552Y-27334233D01*
X34798136Y-27334233D01*
X34801248Y-26330233D01*
X35366552Y-26330233D01*
X35366552Y-27080233D01*
X36324552Y-27080233D01*
X36324552Y-25539731D01*
X36157551Y-25412825D01*
X35954355Y-25484531D01*
X35774144Y-25600219D01*
X35619965Y-25748842D01*
X35497743Y-25924688D01*
X35412176Y-26121000D01*
X35366552Y-26330233D01*
X34801248Y-26330233D01*
X34808615Y-23954233D01*
X35366552Y-23954233D01*
X35366552Y-24354233D01*
X35412176Y-24563466D01*
X35497743Y-24759778D01*
X35619965Y-24935624D01*
X35774144Y-25084247D01*
X35954355Y-25199935D01*
X36157551Y-25271641D01*
X36324552Y-25144735D01*
X36324552Y-23954233D01*
X36578552Y-23954233D01*
X36578552Y-25144735D01*
X36745553Y-25271641D01*
X36948749Y-25199935D01*
X37128960Y-25084247D01*
X37283139Y-24935624D01*
X37405361Y-24759778D01*
X37490928Y-24563466D01*
X37536552Y-24354233D01*
X37536552Y-23954233D01*
X44016552Y-23954233D01*
X44016552Y-24354233D01*
X44062176Y-24563466D01*
X44147743Y-24759778D01*
X44269965Y-24935624D01*
X44424144Y-25084247D01*
X44604355Y-25199935D01*
X44807551Y-25271641D01*
X44974552Y-25144735D01*
X44974552Y-23954233D01*
X45228552Y-23954233D01*
X45228552Y-25144735D01*
X45395553Y-25271641D01*
X45598749Y-25199935D01*
X45778960Y-25084247D01*
X45933139Y-24935624D01*
X46055361Y-24759778D01*
X46140928Y-24563466D01*
X46186552Y-24354233D01*
X46186552Y-23954233D01*
X45228552Y-23954233D01*
X44974552Y-23954233D01*
X44016552Y-23954233D01*
X37536552Y-23954233D01*
X36578552Y-23954233D01*
X36324552Y-23954233D01*
X35366552Y-23954233D01*
X34808615Y-23954233D01*
X34811008Y-23182600D01*
X34831069Y-23182600D01*
X34857841Y-23179963D01*
X34860825Y-23179984D01*
X34869615Y-23179123D01*
X34917936Y-23174044D01*
X34924011Y-23173446D01*
X34924214Y-23173385D01*
X34966663Y-23168923D01*
X35022861Y-23157387D01*
X35079148Y-23146650D01*
X35087601Y-23144098D01*
X35087607Y-23144096D01*
X35180822Y-23115241D01*
X35233710Y-23093009D01*
X35286842Y-23071542D01*
X35294634Y-23067400D01*
X35294638Y-23067398D01*
X35294641Y-23067396D01*
X35380478Y-23020983D01*
X35427983Y-22988940D01*
X35468105Y-22962685D01*
X35412176Y-23091000D01*
X35366552Y-23300233D01*
X35366552Y-23700233D01*
X36324552Y-23700233D01*
X36324552Y-23680233D01*
X36578552Y-23680233D01*
X36578552Y-23700233D01*
X37536552Y-23700233D01*
X37536552Y-23300233D01*
X37490928Y-23091000D01*
X37405361Y-22894688D01*
X37283139Y-22718842D01*
X37245542Y-22682600D01*
X44307562Y-22682600D01*
X44269965Y-22718842D01*
G04 #@! TA.AperFunction,Conductor*
D41*
G36*
X44269965Y-22718842D02*
G01*
X44147743Y-22894688D01*
X44062176Y-23091000D01*
X44016552Y-23300233D01*
X44016552Y-23700233D01*
X44974552Y-23700233D01*
X44974552Y-23680233D01*
X45228552Y-23680233D01*
X45228552Y-23700233D01*
X46186552Y-23700233D01*
X46186552Y-23300233D01*
X46140928Y-23091000D01*
X46059719Y-22904687D01*
X46123478Y-22956688D01*
X46171252Y-22988429D01*
X46218550Y-23020814D01*
X46226319Y-23025015D01*
X46312480Y-23070827D01*
X46365507Y-23092683D01*
X46418184Y-23115260D01*
X46426621Y-23117873D01*
X46520039Y-23146078D01*
X46576284Y-23157214D01*
X46632371Y-23169136D01*
X46641155Y-23170059D01*
X46657043Y-23171617D01*
X46636954Y-29650982D01*
X46327698Y-29960239D01*
X42559600Y-29960239D01*
X42559600Y-29179978D01*
X42562549Y-29150039D01*
X42554093Y-29064190D01*
X42550779Y-29030538D01*
X42520456Y-28930578D01*
X42658691Y-28987837D01*
X42819548Y-29019833D01*
X42983556Y-29019833D01*
X43144413Y-28987837D01*
X43267308Y-28936932D01*
X43277336Y-29056000D01*
X43455936Y-29131822D01*
X43645896Y-29171343D01*
X43839916Y-29173046D01*
X44030541Y-29136865D01*
X44210445Y-29064190D01*
X44225768Y-29056000D01*
X44242464Y-28857750D01*
X43751552Y-28366838D01*
X43737410Y-28380981D01*
X43716153Y-28359724D01*
X43734152Y-28269237D01*
X43734152Y-28105229D01*
X43716153Y-28014742D01*
X43737410Y-27993486D01*
X43751552Y-28007628D01*
X43765695Y-27993486D01*
X43945300Y-28173091D01*
X43931157Y-28187233D01*
X44081327Y-28337403D01*
X44147743Y-28489778D01*
X44269965Y-28665624D01*
X44424144Y-28814247D01*
X44604355Y-28929935D01*
X44807551Y-29001641D01*
X44974552Y-28874735D01*
X44974552Y-27334233D01*
X45228552Y-27334233D01*
X45228552Y-28874735D01*
X45395553Y-29001641D01*
X45598749Y-28929935D01*
X45778960Y-28814247D01*
X45933139Y-28665624D01*
X46055361Y-28489778D01*
X46140928Y-28293466D01*
X46186552Y-28084233D01*
X46186552Y-27334233D01*
X45228552Y-27334233D01*
X44974552Y-27334233D01*
X44428160Y-27334233D01*
X44422072Y-27328145D01*
X44620319Y-27311449D01*
X44696141Y-27132849D01*
X44707088Y-27080233D01*
X44974552Y-27080233D01*
X44974552Y-25539731D01*
X45228552Y-25539731D01*
X45228552Y-27080233D01*
X46186552Y-27080233D01*
X46186552Y-26330233D01*
X46140928Y-26121000D01*
X46055361Y-25924688D01*
X45933139Y-25748842D01*
X45778960Y-25600219D01*
X45598749Y-25484531D01*
X45395553Y-25412825D01*
X45228552Y-25539731D01*
X44974552Y-25539731D01*
X44807551Y-25412825D01*
X44604355Y-25484531D01*
X44424144Y-25600219D01*
X44269965Y-25748842D01*
X44147743Y-25924688D01*
X44143824Y-25933678D01*
X44047168Y-25892644D01*
X43857208Y-25853123D01*
X43663188Y-25851420D01*
X43472563Y-25887601D01*
X43417446Y-25909866D01*
X43379807Y-25864003D01*
X43354128Y-25842929D01*
X43152160Y-25640961D01*
X43131081Y-25615276D01*
X43028588Y-25531163D01*
X42911655Y-25468661D01*
X42784776Y-25430172D01*
X42685884Y-25420432D01*
X42685881Y-25420432D01*
X42652825Y-25417176D01*
X42619769Y-25420432D01*
X38933334Y-25420432D01*
X38900278Y-25417176D01*
X38867222Y-25420432D01*
X38867220Y-25420432D01*
X38768328Y-25430172D01*
X38641449Y-25468661D01*
X38524516Y-25531163D01*
X38422023Y-25615276D01*
X38400944Y-25640961D01*
X38198976Y-25842929D01*
X38173297Y-25864003D01*
X38136195Y-25909212D01*
X38097168Y-25892644D01*
X37907208Y-25853123D01*
X37713188Y-25851420D01*
X37522563Y-25887601D01*
X37409163Y-25933411D01*
X37405361Y-25924688D01*
X37283139Y-25748842D01*
X37128960Y-25600219D01*
X36948749Y-25484531D01*
X36745553Y-25412825D01*
X36578552Y-25539731D01*
X36578552Y-27080233D01*
X36845089Y-27080233D01*
X36851920Y-27116222D01*
X36924595Y-27296126D01*
X36932785Y-27311449D01*
X37131032Y-27328145D01*
X37124944Y-27334233D01*
X36578552Y-27334233D01*
X36578552Y-28874735D01*
X36745553Y-29001641D01*
X36948749Y-28929935D01*
X37128960Y-28814247D01*
X37283139Y-28665624D01*
X37405361Y-28489778D01*
X37471777Y-28337403D01*
X37621947Y-28187233D01*
X37607805Y-28173091D01*
X37787410Y-27993486D01*
X37801552Y-28007628D01*
X37815695Y-27993486D01*
X37836951Y-28014742D01*
X37818952Y-28105229D01*
X37818952Y-28269237D01*
X37836951Y-28359724D01*
X37815695Y-28380981D01*
X37801552Y-28366838D01*
X37310640Y-28857750D01*
X37327336Y-29056000D01*
X37505936Y-29131822D01*
X37695896Y-29171343D01*
X37889916Y-29173046D01*
X38080541Y-29136865D01*
X38260445Y-29064190D01*
X38275768Y-29056000D01*
X38285796Y-28936932D01*
X38408691Y-28987837D01*
X38569548Y-29019833D01*
X38733556Y-29019833D01*
X38894413Y-28987837D01*
X39045936Y-28925074D01*
X39076552Y-28904617D01*
X39107168Y-28925074D01*
X39258691Y-28987837D01*
X39419548Y-29019833D01*
X39583556Y-29019833D01*
X39744413Y-28987837D01*
X39895936Y-28925074D01*
X39926552Y-28904617D01*
X39957168Y-28925074D01*
X39967006Y-28929149D01*
X40340400Y-29302544D01*
X40340400Y-29973484D01*
X34789954Y-29973402D01*
X34798136Y-27334233D01*
X35366552Y-27334233D01*
X35366552Y-28084233D01*
X35412176Y-28293466D01*
X35497743Y-28489778D01*
X35619965Y-28665624D01*
X35774144Y-28814247D01*
X35954355Y-28929935D01*
X36157551Y-29001641D01*
X36324552Y-28874735D01*
X36324552Y-27334233D01*
X35366552Y-27334233D01*
X34798136Y-27334233D01*
X34801248Y-26330233D01*
X35366552Y-26330233D01*
X35366552Y-27080233D01*
X36324552Y-27080233D01*
X36324552Y-25539731D01*
X36157551Y-25412825D01*
X35954355Y-25484531D01*
X35774144Y-25600219D01*
X35619965Y-25748842D01*
X35497743Y-25924688D01*
X35412176Y-26121000D01*
X35366552Y-26330233D01*
X34801248Y-26330233D01*
X34808615Y-23954233D01*
X35366552Y-23954233D01*
X35366552Y-24354233D01*
X35412176Y-24563466D01*
X35497743Y-24759778D01*
X35619965Y-24935624D01*
X35774144Y-25084247D01*
X35954355Y-25199935D01*
X36157551Y-25271641D01*
X36324552Y-25144735D01*
X36324552Y-23954233D01*
X36578552Y-23954233D01*
X36578552Y-25144735D01*
X36745553Y-25271641D01*
X36948749Y-25199935D01*
X37128960Y-25084247D01*
X37283139Y-24935624D01*
X37405361Y-24759778D01*
X37490928Y-24563466D01*
X37536552Y-24354233D01*
X37536552Y-23954233D01*
X44016552Y-23954233D01*
X44016552Y-24354233D01*
X44062176Y-24563466D01*
X44147743Y-24759778D01*
X44269965Y-24935624D01*
X44424144Y-25084247D01*
X44604355Y-25199935D01*
X44807551Y-25271641D01*
X44974552Y-25144735D01*
X44974552Y-23954233D01*
X45228552Y-23954233D01*
X45228552Y-25144735D01*
X45395553Y-25271641D01*
X45598749Y-25199935D01*
X45778960Y-25084247D01*
X45933139Y-24935624D01*
X46055361Y-24759778D01*
X46140928Y-24563466D01*
X46186552Y-24354233D01*
X46186552Y-23954233D01*
X45228552Y-23954233D01*
X44974552Y-23954233D01*
X44016552Y-23954233D01*
X37536552Y-23954233D01*
X36578552Y-23954233D01*
X36324552Y-23954233D01*
X35366552Y-23954233D01*
X34808615Y-23954233D01*
X34811008Y-23182600D01*
X34831069Y-23182600D01*
X34857841Y-23179963D01*
X34860825Y-23179984D01*
X34869615Y-23179123D01*
X34917936Y-23174044D01*
X34924011Y-23173446D01*
X34924214Y-23173385D01*
X34966663Y-23168923D01*
X35022861Y-23157387D01*
X35079148Y-23146650D01*
X35087601Y-23144098D01*
X35087607Y-23144096D01*
X35180822Y-23115241D01*
X35233710Y-23093009D01*
X35286842Y-23071542D01*
X35294634Y-23067400D01*
X35294638Y-23067398D01*
X35294641Y-23067396D01*
X35380478Y-23020983D01*
X35427983Y-22988940D01*
X35468105Y-22962685D01*
X35412176Y-23091000D01*
X35366552Y-23300233D01*
X35366552Y-23700233D01*
X36324552Y-23700233D01*
X36324552Y-23680233D01*
X36578552Y-23680233D01*
X36578552Y-23700233D01*
X37536552Y-23700233D01*
X37536552Y-23300233D01*
X37490928Y-23091000D01*
X37405361Y-22894688D01*
X37283139Y-22718842D01*
X37245542Y-22682600D01*
X44307562Y-22682600D01*
X44269965Y-22718842D01*
G37*
G04 #@! TD.AperFunction*
D39*
X43945300Y-26823091D02*
X43931157Y-26837233D01*
X43945300Y-26851376D01*
X43765695Y-27030981D01*
X43751552Y-27016838D01*
X43737410Y-27030981D01*
X43716153Y-27009724D01*
X43734152Y-26919237D01*
X43734152Y-26755229D01*
X43716153Y-26664742D01*
X43737410Y-26643486D01*
X43751552Y-26657628D01*
X43765695Y-26643486D01*
X43945300Y-26823091D01*
G04 #@! TA.AperFunction,Conductor*
D41*
G36*
X43945300Y-26823091D02*
G01*
X43931157Y-26837233D01*
X43945300Y-26851376D01*
X43765695Y-27030981D01*
X43751552Y-27016838D01*
X43737410Y-27030981D01*
X43716153Y-27009724D01*
X43734152Y-26919237D01*
X43734152Y-26755229D01*
X43716153Y-26664742D01*
X43737410Y-26643486D01*
X43751552Y-26657628D01*
X43765695Y-26643486D01*
X43945300Y-26823091D01*
G37*
G04 #@! TD.AperFunction*
D39*
X37836951Y-26664742D02*
X37818952Y-26755229D01*
X37818952Y-26919237D01*
X37836951Y-27009724D01*
X37815695Y-27030981D01*
X37801552Y-27016838D01*
X37787410Y-27030981D01*
X37607805Y-26851376D01*
X37621947Y-26837233D01*
X37607805Y-26823091D01*
X37787410Y-26643486D01*
X37801552Y-26657628D01*
X37815695Y-26643486D01*
X37836951Y-26664742D01*
G04 #@! TA.AperFunction,Conductor*
D41*
G36*
X37836951Y-26664742D02*
G01*
X37818952Y-26755229D01*
X37818952Y-26919237D01*
X37836951Y-27009724D01*
X37815695Y-27030981D01*
X37801552Y-27016838D01*
X37787410Y-27030981D01*
X37607805Y-26851376D01*
X37621947Y-26837233D01*
X37607805Y-26823091D01*
X37787410Y-26643486D01*
X37801552Y-26657628D01*
X37815695Y-26643486D01*
X37836951Y-26664742D01*
G37*
G04 #@! TD.AperFunction*
D39*
X77154361Y-70925156D02*
X77205354Y-71048263D01*
X77476377Y-71453877D01*
X77821323Y-71798823D01*
X78226937Y-72069846D01*
X78677632Y-72256530D01*
X79156086Y-72351700D01*
X79643914Y-72351700D01*
X79773877Y-72325849D01*
X84113589Y-72315301D01*
X84032393Y-81485579D01*
X75137940Y-81525835D01*
X72852353Y-79240250D01*
X72852615Y-79209600D01*
X73444523Y-79209600D01*
X74146497Y-79911575D01*
X74165590Y-79934840D01*
X74258414Y-80011018D01*
X74364316Y-80067623D01*
X74479226Y-80102481D01*
X74568787Y-80111302D01*
X74568788Y-80111302D01*
X74598727Y-80114251D01*
X74628666Y-80111302D01*
X77552747Y-80111302D01*
X77582688Y-80114251D01*
X77612629Y-80111302D01*
X77702190Y-80102481D01*
X77817100Y-80067623D01*
X77923002Y-80011018D01*
X78015826Y-79934840D01*
X78034923Y-79911570D01*
X78290057Y-79656436D01*
X79862889Y-79656436D01*
X79957495Y-79647118D01*
X80048466Y-79619523D01*
X80132304Y-79574710D01*
X80205790Y-79514402D01*
X80266098Y-79440916D01*
X80310911Y-79357078D01*
X80338506Y-79266107D01*
X80347824Y-79171501D01*
X80347824Y-78950449D01*
X80378964Y-79008708D01*
X80470362Y-79120078D01*
X80581732Y-79211476D01*
X80708792Y-79279391D01*
X80846660Y-79321213D01*
X80990039Y-79335335D01*
X81890041Y-79335335D01*
X82033420Y-79321213D01*
X82171288Y-79279391D01*
X82298348Y-79211476D01*
X82409718Y-79120078D01*
X82501116Y-79008708D01*
X82569031Y-78881648D01*
X82610853Y-78743780D01*
X82624975Y-78600401D01*
X82624975Y-77950399D01*
X82610853Y-77807020D01*
X82569031Y-77669152D01*
X82501116Y-77542092D01*
X82409718Y-77430722D01*
X82366520Y-77395271D01*
X82384220Y-77389902D01*
X82494534Y-77330937D01*
X82591225Y-77251585D01*
X82670577Y-77154894D01*
X82729542Y-77044580D01*
X82765852Y-76924882D01*
X82778112Y-76800400D01*
X82775040Y-76511150D01*
X82616290Y-76352400D01*
X81567040Y-76352400D01*
X81567040Y-76372400D01*
X81313040Y-76372400D01*
X81313040Y-76352400D01*
X81293040Y-76352400D01*
X81293040Y-76098400D01*
X81313040Y-76098400D01*
X81313040Y-75174150D01*
X81567040Y-75174150D01*
X81567040Y-76098400D01*
X82616290Y-76098400D01*
X82775040Y-75939650D01*
X82778112Y-75650400D01*
X82765852Y-75525918D01*
X82729542Y-75406220D01*
X82670577Y-75295906D01*
X82591225Y-75199215D01*
X82494534Y-75119863D01*
X82384220Y-75060898D01*
X82264522Y-75024588D01*
X82140040Y-75012328D01*
X81725790Y-75015400D01*
X81567040Y-75174150D01*
X81313040Y-75174150D01*
X81154290Y-75015400D01*
X80740040Y-75012328D01*
X80615558Y-75024588D01*
X80499799Y-75059703D01*
X80488701Y-74947019D01*
X80452391Y-74827321D01*
X80393426Y-74717007D01*
X80314074Y-74620316D01*
X80217383Y-74540964D01*
X80107069Y-74481999D01*
X79987371Y-74445689D01*
X79862889Y-74433429D01*
X79098639Y-74436501D01*
X78939889Y-74595251D01*
X78939889Y-75844501D01*
X78959889Y-75844501D01*
X78959889Y-76098501D01*
X78939889Y-76098501D01*
X78939889Y-76118501D01*
X78685889Y-76118501D01*
X78685889Y-76098501D01*
X78665889Y-76098501D01*
X78665889Y-75844501D01*
X78685889Y-75844501D01*
X78685889Y-74595251D01*
X78619230Y-74528592D01*
X78650812Y-74424482D01*
X78663072Y-74300000D01*
X78660000Y-73885750D01*
X78501250Y-73727000D01*
X77577000Y-73727000D01*
X77577000Y-73747000D01*
X77323000Y-73747000D01*
X77323000Y-73727000D01*
X77303000Y-73727000D01*
X77303000Y-73473000D01*
X77323000Y-73473000D01*
X77323000Y-72423750D01*
X77577000Y-72423750D01*
X77577000Y-73473000D01*
X78501250Y-73473000D01*
X78660000Y-73314250D01*
X78663072Y-72900000D01*
X78650812Y-72775518D01*
X78614502Y-72655820D01*
X78555537Y-72545506D01*
X78476185Y-72448815D01*
X78379494Y-72369463D01*
X78269180Y-72310498D01*
X78149482Y-72274188D01*
X78025000Y-72261928D01*
X77735750Y-72265000D01*
X77577000Y-72423750D01*
X77323000Y-72423750D01*
X77164250Y-72265000D01*
X76875000Y-72261928D01*
X76750518Y-72274188D01*
X76630820Y-72310498D01*
X76520506Y-72369463D01*
X76423815Y-72448815D01*
X76344463Y-72545506D01*
X76285498Y-72655820D01*
X76280129Y-72673520D01*
X76244678Y-72630322D01*
X76133308Y-72538924D01*
X76006248Y-72471009D01*
X75868380Y-72429187D01*
X75725001Y-72415065D01*
X75074999Y-72415065D01*
X74931620Y-72429187D01*
X74793752Y-72471009D01*
X74666692Y-72538924D01*
X74555322Y-72630322D01*
X74463924Y-72741692D01*
X74396009Y-72868752D01*
X74354187Y-73006620D01*
X74340065Y-73149999D01*
X74340065Y-74050001D01*
X74354187Y-74193380D01*
X74396009Y-74331248D01*
X74463924Y-74458308D01*
X74555322Y-74569678D01*
X74643138Y-74641746D01*
X74593474Y-74668292D01*
X74519988Y-74728600D01*
X74459680Y-74802086D01*
X74414867Y-74885924D01*
X74387272Y-74976895D01*
X74377954Y-75071501D01*
X74377954Y-76494332D01*
X73381887Y-77490400D01*
X72982582Y-77490400D01*
X72985040Y-77461150D01*
X72868569Y-77344679D01*
X72871275Y-77028300D01*
X72963672Y-77000271D01*
X73080605Y-76937769D01*
X73183098Y-76853656D01*
X73200634Y-76832288D01*
X73221996Y-76814757D01*
X73306110Y-76712264D01*
X73368612Y-76595331D01*
X73407101Y-76468452D01*
X73416841Y-76369560D01*
X73416841Y-76369550D01*
X73420096Y-76336502D01*
X73416841Y-76303453D01*
X73416841Y-74126797D01*
X73420097Y-74093741D01*
X73415789Y-74050001D01*
X73407101Y-73961790D01*
X73368612Y-73834911D01*
X73360376Y-73819502D01*
X73306111Y-73717978D01*
X73243071Y-73641163D01*
X73243066Y-73641158D01*
X73221997Y-73615485D01*
X73196323Y-73594415D01*
X72903159Y-73301251D01*
X72913973Y-72037158D01*
X73000000Y-72038072D01*
X73124482Y-72025812D01*
X73244180Y-71989502D01*
X73354494Y-71930537D01*
X73451185Y-71851185D01*
X73530537Y-71754494D01*
X73589502Y-71644180D01*
X73625812Y-71524482D01*
X73638072Y-71400000D01*
X73635481Y-71050591D01*
X73676935Y-71078290D01*
X73924003Y-71180628D01*
X74186288Y-71232800D01*
X74453712Y-71232800D01*
X74715997Y-71180628D01*
X74963065Y-71078290D01*
X75185420Y-70929717D01*
X75198083Y-70917054D01*
X77154361Y-70925156D01*
G04 #@! TA.AperFunction,Conductor*
D41*
G36*
X77154361Y-70925156D02*
G01*
X77205354Y-71048263D01*
X77476377Y-71453877D01*
X77821323Y-71798823D01*
X78226937Y-72069846D01*
X78677632Y-72256530D01*
X79156086Y-72351700D01*
X79643914Y-72351700D01*
X79773877Y-72325849D01*
X84113589Y-72315301D01*
X84032393Y-81485579D01*
X75137940Y-81525835D01*
X72852353Y-79240250D01*
X72852615Y-79209600D01*
X73444523Y-79209600D01*
X74146497Y-79911575D01*
X74165590Y-79934840D01*
X74258414Y-80011018D01*
X74364316Y-80067623D01*
X74479226Y-80102481D01*
X74568787Y-80111302D01*
X74568788Y-80111302D01*
X74598727Y-80114251D01*
X74628666Y-80111302D01*
X77552747Y-80111302D01*
X77582688Y-80114251D01*
X77612629Y-80111302D01*
X77702190Y-80102481D01*
X77817100Y-80067623D01*
X77923002Y-80011018D01*
X78015826Y-79934840D01*
X78034923Y-79911570D01*
X78290057Y-79656436D01*
X79862889Y-79656436D01*
X79957495Y-79647118D01*
X80048466Y-79619523D01*
X80132304Y-79574710D01*
X80205790Y-79514402D01*
X80266098Y-79440916D01*
X80310911Y-79357078D01*
X80338506Y-79266107D01*
X80347824Y-79171501D01*
X80347824Y-78950449D01*
X80378964Y-79008708D01*
X80470362Y-79120078D01*
X80581732Y-79211476D01*
X80708792Y-79279391D01*
X80846660Y-79321213D01*
X80990039Y-79335335D01*
X81890041Y-79335335D01*
X82033420Y-79321213D01*
X82171288Y-79279391D01*
X82298348Y-79211476D01*
X82409718Y-79120078D01*
X82501116Y-79008708D01*
X82569031Y-78881648D01*
X82610853Y-78743780D01*
X82624975Y-78600401D01*
X82624975Y-77950399D01*
X82610853Y-77807020D01*
X82569031Y-77669152D01*
X82501116Y-77542092D01*
X82409718Y-77430722D01*
X82366520Y-77395271D01*
X82384220Y-77389902D01*
X82494534Y-77330937D01*
X82591225Y-77251585D01*
X82670577Y-77154894D01*
X82729542Y-77044580D01*
X82765852Y-76924882D01*
X82778112Y-76800400D01*
X82775040Y-76511150D01*
X82616290Y-76352400D01*
X81567040Y-76352400D01*
X81567040Y-76372400D01*
X81313040Y-76372400D01*
X81313040Y-76352400D01*
X81293040Y-76352400D01*
X81293040Y-76098400D01*
X81313040Y-76098400D01*
X81313040Y-75174150D01*
X81567040Y-75174150D01*
X81567040Y-76098400D01*
X82616290Y-76098400D01*
X82775040Y-75939650D01*
X82778112Y-75650400D01*
X82765852Y-75525918D01*
X82729542Y-75406220D01*
X82670577Y-75295906D01*
X82591225Y-75199215D01*
X82494534Y-75119863D01*
X82384220Y-75060898D01*
X82264522Y-75024588D01*
X82140040Y-75012328D01*
X81725790Y-75015400D01*
X81567040Y-75174150D01*
X81313040Y-75174150D01*
X81154290Y-75015400D01*
X80740040Y-75012328D01*
X80615558Y-75024588D01*
X80499799Y-75059703D01*
X80488701Y-74947019D01*
X80452391Y-74827321D01*
X80393426Y-74717007D01*
X80314074Y-74620316D01*
X80217383Y-74540964D01*
X80107069Y-74481999D01*
X79987371Y-74445689D01*
X79862889Y-74433429D01*
X79098639Y-74436501D01*
X78939889Y-74595251D01*
X78939889Y-75844501D01*
X78959889Y-75844501D01*
X78959889Y-76098501D01*
X78939889Y-76098501D01*
X78939889Y-76118501D01*
X78685889Y-76118501D01*
X78685889Y-76098501D01*
X78665889Y-76098501D01*
X78665889Y-75844501D01*
X78685889Y-75844501D01*
X78685889Y-74595251D01*
X78619230Y-74528592D01*
X78650812Y-74424482D01*
X78663072Y-74300000D01*
X78660000Y-73885750D01*
X78501250Y-73727000D01*
X77577000Y-73727000D01*
X77577000Y-73747000D01*
X77323000Y-73747000D01*
X77323000Y-73727000D01*
X77303000Y-73727000D01*
X77303000Y-73473000D01*
X77323000Y-73473000D01*
X77323000Y-72423750D01*
X77577000Y-72423750D01*
X77577000Y-73473000D01*
X78501250Y-73473000D01*
X78660000Y-73314250D01*
X78663072Y-72900000D01*
X78650812Y-72775518D01*
X78614502Y-72655820D01*
X78555537Y-72545506D01*
X78476185Y-72448815D01*
X78379494Y-72369463D01*
X78269180Y-72310498D01*
X78149482Y-72274188D01*
X78025000Y-72261928D01*
X77735750Y-72265000D01*
X77577000Y-72423750D01*
X77323000Y-72423750D01*
X77164250Y-72265000D01*
X76875000Y-72261928D01*
X76750518Y-72274188D01*
X76630820Y-72310498D01*
X76520506Y-72369463D01*
X76423815Y-72448815D01*
X76344463Y-72545506D01*
X76285498Y-72655820D01*
X76280129Y-72673520D01*
X76244678Y-72630322D01*
X76133308Y-72538924D01*
X76006248Y-72471009D01*
X75868380Y-72429187D01*
X75725001Y-72415065D01*
X75074999Y-72415065D01*
X74931620Y-72429187D01*
X74793752Y-72471009D01*
X74666692Y-72538924D01*
X74555322Y-72630322D01*
X74463924Y-72741692D01*
X74396009Y-72868752D01*
X74354187Y-73006620D01*
X74340065Y-73149999D01*
X74340065Y-74050001D01*
X74354187Y-74193380D01*
X74396009Y-74331248D01*
X74463924Y-74458308D01*
X74555322Y-74569678D01*
X74643138Y-74641746D01*
X74593474Y-74668292D01*
X74519988Y-74728600D01*
X74459680Y-74802086D01*
X74414867Y-74885924D01*
X74387272Y-74976895D01*
X74377954Y-75071501D01*
X74377954Y-76494332D01*
X73381887Y-77490400D01*
X72982582Y-77490400D01*
X72985040Y-77461150D01*
X72868569Y-77344679D01*
X72871275Y-77028300D01*
X72963672Y-77000271D01*
X73080605Y-76937769D01*
X73183098Y-76853656D01*
X73200634Y-76832288D01*
X73221996Y-76814757D01*
X73306110Y-76712264D01*
X73368612Y-76595331D01*
X73407101Y-76468452D01*
X73416841Y-76369560D01*
X73416841Y-76369550D01*
X73420096Y-76336502D01*
X73416841Y-76303453D01*
X73416841Y-74126797D01*
X73420097Y-74093741D01*
X73415789Y-74050001D01*
X73407101Y-73961790D01*
X73368612Y-73834911D01*
X73360376Y-73819502D01*
X73306111Y-73717978D01*
X73243071Y-73641163D01*
X73243066Y-73641158D01*
X73221997Y-73615485D01*
X73196323Y-73594415D01*
X72903159Y-73301251D01*
X72913973Y-72037158D01*
X73000000Y-72038072D01*
X73124482Y-72025812D01*
X73244180Y-71989502D01*
X73354494Y-71930537D01*
X73451185Y-71851185D01*
X73530537Y-71754494D01*
X73589502Y-71644180D01*
X73625812Y-71524482D01*
X73638072Y-71400000D01*
X73635481Y-71050591D01*
X73676935Y-71078290D01*
X73924003Y-71180628D01*
X74186288Y-71232800D01*
X74453712Y-71232800D01*
X74715997Y-71180628D01*
X74963065Y-71078290D01*
X75185420Y-70929717D01*
X75198083Y-70917054D01*
X77154361Y-70925156D01*
G37*
G04 #@! TD.AperFunction*
D39*
X76039889Y-78144501D02*
X76059889Y-78144501D01*
X76059889Y-78398501D01*
X76039889Y-78398501D01*
X76039889Y-78418501D01*
X75785889Y-78418501D01*
X75785889Y-78398501D01*
X75765889Y-78398501D01*
X75765889Y-78144501D01*
X75785889Y-78144501D01*
X75785889Y-78124501D01*
X76039889Y-78124501D01*
X76039889Y-78144501D01*
G04 #@! TA.AperFunction,Conductor*
D41*
G36*
X76039889Y-78144501D02*
G01*
X76059889Y-78144501D01*
X76059889Y-78398501D01*
X76039889Y-78398501D01*
X76039889Y-78418501D01*
X75785889Y-78418501D01*
X75785889Y-78398501D01*
X75765889Y-78398501D01*
X75765889Y-78144501D01*
X75785889Y-78144501D01*
X75785889Y-78124501D01*
X76039889Y-78124501D01*
X76039889Y-78144501D01*
G37*
G04 #@! TD.AperFunction*
M02*
