G04 #@! TF.GenerationSoftware,KiCad,Pcbnew,(5.1.9-0-10_14)*
G04 #@! TF.CreationDate,2021-01-10T18:11:49+09:00*
G04 #@! TF.ProjectId,Jones,4a6f6e65-732e-46b6-9963-61645f706362,v.0.3.2*
G04 #@! TF.SameCoordinates,Original*
G04 #@! TF.FileFunction,Soldermask,Bot*
G04 #@! TF.FilePolarity,Negative*
%FSLAX46Y46*%
G04 Gerber Fmt 4.6, Leading zero omitted, Abs format (unit mm)*
G04 Created by KiCad (PCBNEW (5.1.9-0-10_14)) date 2021-01-10 18:11:49*
%MOMM*%
%LPD*%
G01*
G04 APERTURE LIST*
%ADD10C,1.500000*%
%ADD11O,5.600000X2.800000*%
%ADD12C,1.400000*%
%ADD13O,7.400240X5.400000*%
%ADD14C,5.400000*%
%ADD15C,3.400000*%
%ADD16C,4.387800*%
%ADD17C,2.150000*%
%ADD18C,2.400000*%
%ADD19C,1.797000*%
%ADD20C,1.100000*%
%ADD21O,1.300000X2.800000*%
%ADD22O,1.300000X2.100000*%
%ADD23C,2.650000*%
%ADD24C,3.448000*%
%ADD25O,1.400000X1.400000*%
%ADD26C,2.000000*%
G04 APERTURE END LIST*
D10*
X28550000Y-79050000D02*
G75*
G03*
X26400000Y-76900000I-2150000J0D01*
G01*
X28550000Y-79050000D02*
G75*
G02*
X26400000Y-81200000I-2150000J0D01*
G01*
X301650000Y-79050000D02*
G75*
G02*
X303800000Y-76900000I2150000J0D01*
G01*
X301650000Y-79050000D02*
G75*
G03*
X303800000Y-81200000I2150000J0D01*
G01*
X22600000Y-76900000D02*
X26400000Y-76900000D01*
X22650000Y-81200000D02*
X26450000Y-81200000D01*
X307600000Y-81200000D02*
X303800000Y-81200000D01*
X307550000Y-76900000D02*
X303750000Y-76900000D01*
D11*
X282650000Y-50450000D03*
D12*
X24357965Y-81250000D03*
X24350000Y-76900000D03*
X27950000Y-77550000D03*
X26400000Y-81250000D03*
X26400000Y-76900000D03*
X28550000Y-79050000D03*
X152000000Y-71450000D03*
X149600000Y-71450000D03*
X150800000Y-71450000D03*
X149600000Y-67700000D03*
X152000000Y-67700000D03*
X150800000Y-67700000D03*
X214300000Y-109600000D03*
X211900000Y-109600000D03*
X211950000Y-105900000D03*
X214350000Y-105900000D03*
X213100000Y-109600000D03*
X213150000Y-105900000D03*
X49050000Y-51800000D03*
X46450000Y-51750000D03*
X49050000Y-49100000D03*
X46450000Y-49100000D03*
X47800000Y-52350000D03*
X49700000Y-50450000D03*
X45900000Y-50450000D03*
X47800000Y-48550000D03*
D13*
X213100000Y-107750000D03*
X150800000Y-69550000D03*
D14*
X47800000Y-50450000D03*
D12*
X27950000Y-80550000D03*
X302250000Y-77550000D03*
X301650000Y-79050000D03*
X303800000Y-81200000D03*
X303800000Y-76850000D03*
X302250000Y-80550000D03*
X305850000Y-81200000D03*
X305842035Y-76850000D03*
D15*
X139090000Y-64795200D03*
D16*
X136550000Y-69875200D03*
D15*
X132740000Y-67335200D03*
D17*
X131470000Y-69875200D03*
X141630000Y-69875200D03*
G36*
G01*
X127990000Y-68585200D02*
X127990000Y-66085200D01*
G75*
G02*
X128190000Y-65885200I200000J0D01*
G01*
X130740000Y-65885200D01*
G75*
G02*
X130940000Y-66085200I0J-200000D01*
G01*
X130940000Y-68585200D01*
G75*
G02*
X130740000Y-68785200I-200000J0D01*
G01*
X128190000Y-68785200D01*
G75*
G02*
X127990000Y-68585200I0J200000D01*
G01*
G37*
G36*
G01*
X140917000Y-66045200D02*
X140917000Y-63545200D01*
G75*
G02*
X141117000Y-63345200I200000J0D01*
G01*
X143667000Y-63345200D01*
G75*
G02*
X143867000Y-63545200I0J-200000D01*
G01*
X143867000Y-66045200D01*
G75*
G02*
X143667000Y-66245200I-200000J0D01*
G01*
X141117000Y-66245200D01*
G75*
G02*
X140917000Y-66045200I0J200000D01*
G01*
G37*
G36*
G01*
X264741840Y-27945040D02*
X264741840Y-25445040D01*
G75*
G02*
X264941840Y-25245040I200000J0D01*
G01*
X267491840Y-25245040D01*
G75*
G02*
X267691840Y-25445040I0J-200000D01*
G01*
X267691840Y-27945040D01*
G75*
G02*
X267491840Y-28145040I-200000J0D01*
G01*
X264941840Y-28145040D01*
G75*
G02*
X264741840Y-27945040I0J200000D01*
G01*
G37*
G36*
G01*
X251814840Y-30485040D02*
X251814840Y-27985040D01*
G75*
G02*
X252014840Y-27785040I200000J0D01*
G01*
X254564840Y-27785040D01*
G75*
G02*
X254764840Y-27985040I0J-200000D01*
G01*
X254764840Y-30485040D01*
G75*
G02*
X254564840Y-30685040I-200000J0D01*
G01*
X252014840Y-30685040D01*
G75*
G02*
X251814840Y-30485040I0J200000D01*
G01*
G37*
X265454840Y-31775040D03*
X255294840Y-31775040D03*
D15*
X256564840Y-29235040D03*
D16*
X260374840Y-31775040D03*
D15*
X262914840Y-26695040D03*
X281966080Y-26695080D03*
D16*
X279426080Y-31775080D03*
D15*
X275616080Y-29235080D03*
D17*
X274346080Y-31775080D03*
X284506080Y-31775080D03*
G36*
G01*
X270866080Y-30485080D02*
X270866080Y-27985080D01*
G75*
G02*
X271066080Y-27785080I200000J0D01*
G01*
X273616080Y-27785080D01*
G75*
G02*
X273816080Y-27985080I0J-200000D01*
G01*
X273816080Y-30485080D01*
G75*
G02*
X273616080Y-30685080I-200000J0D01*
G01*
X271066080Y-30685080D01*
G75*
G02*
X270866080Y-30485080I0J200000D01*
G01*
G37*
G36*
G01*
X283793080Y-27945080D02*
X283793080Y-25445080D01*
G75*
G02*
X283993080Y-25245080I200000J0D01*
G01*
X286543080Y-25245080D01*
G75*
G02*
X286743080Y-25445080I0J-200000D01*
G01*
X286743080Y-27945080D01*
G75*
G02*
X286543080Y-28145080I-200000J0D01*
G01*
X283993080Y-28145080D01*
G75*
G02*
X283793080Y-27945080I0J200000D01*
G01*
G37*
D15*
X120040000Y-64795200D03*
D16*
X117500000Y-69875200D03*
D15*
X113690000Y-67335200D03*
D17*
X112420000Y-69875200D03*
X122580000Y-69875200D03*
G36*
G01*
X108940000Y-68585200D02*
X108940000Y-66085200D01*
G75*
G02*
X109140000Y-65885200I200000J0D01*
G01*
X111690000Y-65885200D01*
G75*
G02*
X111890000Y-66085200I0J-200000D01*
G01*
X111890000Y-68585200D01*
G75*
G02*
X111690000Y-68785200I-200000J0D01*
G01*
X109140000Y-68785200D01*
G75*
G02*
X108940000Y-68585200I0J200000D01*
G01*
G37*
G36*
G01*
X121867000Y-66045200D02*
X121867000Y-63545200D01*
G75*
G02*
X122067000Y-63345200I200000J0D01*
G01*
X124617000Y-63345200D01*
G75*
G02*
X124817000Y-63545200I0J-200000D01*
G01*
X124817000Y-66045200D01*
G75*
G02*
X124617000Y-66245200I-200000J0D01*
G01*
X122067000Y-66245200D01*
G75*
G02*
X121867000Y-66045200I0J200000D01*
G01*
G37*
G36*
G01*
X24086955Y-24850040D02*
X25213045Y-24850040D01*
G75*
G02*
X25550000Y-25186995I0J-336955D01*
G01*
X25550000Y-26063085D01*
G75*
G02*
X25213045Y-26400040I-336955J0D01*
G01*
X24086955Y-26400040D01*
G75*
G02*
X23750000Y-26063085I0J336955D01*
G01*
X23750000Y-25186995D01*
G75*
G02*
X24086955Y-24850040I336955J0D01*
G01*
G37*
G36*
G01*
X24086955Y-26900040D02*
X25213045Y-26900040D01*
G75*
G02*
X25550000Y-27236995I0J-336955D01*
G01*
X25550000Y-28113085D01*
G75*
G02*
X25213045Y-28450040I-336955J0D01*
G01*
X24086955Y-28450040D01*
G75*
G02*
X23750000Y-28113085I0J336955D01*
G01*
X23750000Y-27236995D01*
G75*
G02*
X24086955Y-26900040I336955J0D01*
G01*
G37*
G36*
G01*
X30450000Y-28220040D02*
X29050000Y-28220040D01*
G75*
G02*
X28850000Y-28020040I0J200000D01*
G01*
X28850000Y-26820040D01*
G75*
G02*
X29050000Y-26620040I200000J0D01*
G01*
X30450000Y-26620040D01*
G75*
G02*
X30650000Y-26820040I0J-200000D01*
G01*
X30650000Y-28020040D01*
G75*
G02*
X30450000Y-28220040I-200000J0D01*
G01*
G37*
G36*
G01*
X30450000Y-26400040D02*
X29050000Y-26400040D01*
G75*
G02*
X28850000Y-26200040I0J200000D01*
G01*
X28850000Y-25200040D01*
G75*
G02*
X29050000Y-25000040I200000J0D01*
G01*
X30450000Y-25000040D01*
G75*
G02*
X30650000Y-25200040I0J-200000D01*
G01*
X30650000Y-26200040D01*
G75*
G02*
X30450000Y-26400040I-200000J0D01*
G01*
G37*
G36*
G01*
X32650000Y-26400040D02*
X31250000Y-26400040D01*
G75*
G02*
X31050000Y-26200040I0J200000D01*
G01*
X31050000Y-25200040D01*
G75*
G02*
X31250000Y-25000040I200000J0D01*
G01*
X32650000Y-25000040D01*
G75*
G02*
X32850000Y-25200040I0J-200000D01*
G01*
X32850000Y-26200040D01*
G75*
G02*
X32650000Y-26400040I-200000J0D01*
G01*
G37*
G36*
G01*
X32650000Y-28300040D02*
X31250000Y-28300040D01*
G75*
G02*
X31050000Y-28100040I0J200000D01*
G01*
X31050000Y-27100040D01*
G75*
G02*
X31250000Y-26900040I200000J0D01*
G01*
X32650000Y-26900040D01*
G75*
G02*
X32850000Y-27100040I0J-200000D01*
G01*
X32850000Y-28100040D01*
G75*
G02*
X32650000Y-28300040I-200000J0D01*
G01*
G37*
G36*
G01*
X64717000Y-46995120D02*
X64717000Y-44495120D01*
G75*
G02*
X64917000Y-44295120I200000J0D01*
G01*
X67467000Y-44295120D01*
G75*
G02*
X67667000Y-44495120I0J-200000D01*
G01*
X67667000Y-46995120D01*
G75*
G02*
X67467000Y-47195120I-200000J0D01*
G01*
X64917000Y-47195120D01*
G75*
G02*
X64717000Y-46995120I0J200000D01*
G01*
G37*
G36*
G01*
X51790000Y-49535120D02*
X51790000Y-47035120D01*
G75*
G02*
X51990000Y-46835120I200000J0D01*
G01*
X54540000Y-46835120D01*
G75*
G02*
X54740000Y-47035120I0J-200000D01*
G01*
X54740000Y-49535120D01*
G75*
G02*
X54540000Y-49735120I-200000J0D01*
G01*
X51990000Y-49735120D01*
G75*
G02*
X51790000Y-49535120I0J200000D01*
G01*
G37*
X65430000Y-50825120D03*
X55270000Y-50825120D03*
D15*
X56540000Y-48285120D03*
D16*
X60350000Y-50825120D03*
D15*
X62890000Y-45745120D03*
X62890000Y-64795200D03*
D16*
X60350000Y-69875200D03*
D15*
X56540000Y-67335200D03*
D17*
X55270000Y-69875200D03*
X65430000Y-69875200D03*
G36*
G01*
X51790000Y-68585200D02*
X51790000Y-66085200D01*
G75*
G02*
X51990000Y-65885200I200000J0D01*
G01*
X54540000Y-65885200D01*
G75*
G02*
X54740000Y-66085200I0J-200000D01*
G01*
X54740000Y-68585200D01*
G75*
G02*
X54540000Y-68785200I-200000J0D01*
G01*
X51990000Y-68785200D01*
G75*
G02*
X51790000Y-68585200I0J200000D01*
G01*
G37*
G36*
G01*
X64717000Y-66045200D02*
X64717000Y-63545200D01*
G75*
G02*
X64917000Y-63345200I200000J0D01*
G01*
X67467000Y-63345200D01*
G75*
G02*
X67667000Y-63545200I0J-200000D01*
G01*
X67667000Y-66045200D01*
G75*
G02*
X67467000Y-66245200I-200000J0D01*
G01*
X64917000Y-66245200D01*
G75*
G02*
X64717000Y-66045200I0J200000D01*
G01*
G37*
G36*
G01*
X179017640Y-66045200D02*
X179017640Y-63545200D01*
G75*
G02*
X179217640Y-63345200I200000J0D01*
G01*
X181767640Y-63345200D01*
G75*
G02*
X181967640Y-63545200I0J-200000D01*
G01*
X181967640Y-66045200D01*
G75*
G02*
X181767640Y-66245200I-200000J0D01*
G01*
X179217640Y-66245200D01*
G75*
G02*
X179017640Y-66045200I0J200000D01*
G01*
G37*
G36*
G01*
X166090640Y-68585200D02*
X166090640Y-66085200D01*
G75*
G02*
X166290640Y-65885200I200000J0D01*
G01*
X168840640Y-65885200D01*
G75*
G02*
X169040640Y-66085200I0J-200000D01*
G01*
X169040640Y-68585200D01*
G75*
G02*
X168840640Y-68785200I-200000J0D01*
G01*
X166290640Y-68785200D01*
G75*
G02*
X166090640Y-68585200I0J200000D01*
G01*
G37*
X179730640Y-69875200D03*
X169570640Y-69875200D03*
D15*
X170840640Y-67335200D03*
D16*
X174650640Y-69875200D03*
D15*
X177190640Y-64795200D03*
X39077500Y-45745120D03*
D16*
X36537500Y-50825120D03*
D15*
X32727500Y-48285120D03*
D17*
X31457500Y-50825120D03*
X41617500Y-50825120D03*
G36*
G01*
X27977500Y-49535120D02*
X27977500Y-47035120D01*
G75*
G02*
X28177500Y-46835120I200000J0D01*
G01*
X30727500Y-46835120D01*
G75*
G02*
X30927500Y-47035120I0J-200000D01*
G01*
X30927500Y-49535120D01*
G75*
G02*
X30727500Y-49735120I-200000J0D01*
G01*
X28177500Y-49735120D01*
G75*
G02*
X27977500Y-49535120I0J200000D01*
G01*
G37*
G36*
G01*
X40904500Y-46995120D02*
X40904500Y-44495120D01*
G75*
G02*
X41104500Y-44295120I200000J0D01*
G01*
X43654500Y-44295120D01*
G75*
G02*
X43854500Y-44495120I0J-200000D01*
G01*
X43854500Y-46995120D01*
G75*
G02*
X43654500Y-47195120I-200000J0D01*
G01*
X41104500Y-47195120D01*
G75*
G02*
X40904500Y-46995120I0J200000D01*
G01*
G37*
G36*
G01*
X52100000Y-54950040D02*
X53900000Y-54950040D01*
G75*
G02*
X54100000Y-55150040I0J-200000D01*
G01*
X54100000Y-57250040D01*
G75*
G02*
X53900000Y-57450040I-200000J0D01*
G01*
X52100000Y-57450040D01*
G75*
G02*
X51900000Y-57250040I0J200000D01*
G01*
X51900000Y-55150040D01*
G75*
G02*
X52100000Y-54950040I200000J0D01*
G01*
G37*
G36*
G01*
X52100000Y-57850040D02*
X53900000Y-57850040D01*
G75*
G02*
X54100000Y-58050040I0J-200000D01*
G01*
X54100000Y-60150040D01*
G75*
G02*
X53900000Y-60350040I-200000J0D01*
G01*
X52100000Y-60350040D01*
G75*
G02*
X51900000Y-60150040I0J200000D01*
G01*
X51900000Y-58050040D01*
G75*
G02*
X52100000Y-57850040I200000J0D01*
G01*
G37*
G36*
G01*
X49800000Y-57850040D02*
X51600000Y-57850040D01*
G75*
G02*
X51800000Y-58050040I0J-200000D01*
G01*
X51800000Y-60150040D01*
G75*
G02*
X51600000Y-60350040I-200000J0D01*
G01*
X49800000Y-60350040D01*
G75*
G02*
X49600000Y-60150040I0J200000D01*
G01*
X49600000Y-58050040D01*
G75*
G02*
X49800000Y-57850040I200000J0D01*
G01*
G37*
G36*
G01*
X49800000Y-54950040D02*
X51600000Y-54950040D01*
G75*
G02*
X51800000Y-55150040I0J-200000D01*
G01*
X51800000Y-57250040D01*
G75*
G02*
X51600000Y-57450040I-200000J0D01*
G01*
X49800000Y-57450040D01*
G75*
G02*
X49600000Y-57250040I0J200000D01*
G01*
X49600000Y-55150040D01*
G75*
G02*
X49800000Y-54950040I200000J0D01*
G01*
G37*
G36*
G01*
X51800000Y-52686995D02*
X51800000Y-53813085D01*
G75*
G02*
X51463045Y-54150040I-336955J0D01*
G01*
X50586955Y-54150040D01*
G75*
G02*
X50250000Y-53813085I0J336955D01*
G01*
X50250000Y-52686995D01*
G75*
G02*
X50586955Y-52350040I336955J0D01*
G01*
X51463045Y-52350040D01*
G75*
G02*
X51800000Y-52686995I0J-336955D01*
G01*
G37*
G36*
G01*
X53850000Y-52686995D02*
X53850000Y-53813085D01*
G75*
G02*
X53513045Y-54150040I-336955J0D01*
G01*
X52636955Y-54150040D01*
G75*
G02*
X52300000Y-53813085I0J336955D01*
G01*
X52300000Y-52686995D01*
G75*
G02*
X52636955Y-52350040I336955J0D01*
G01*
X53513045Y-52350040D01*
G75*
G02*
X53850000Y-52686995I0J-336955D01*
G01*
G37*
G36*
G01*
X48013045Y-57400040D02*
X46886955Y-57400040D01*
G75*
G02*
X46550000Y-57063085I0J336955D01*
G01*
X46550000Y-56186995D01*
G75*
G02*
X46886955Y-55850040I336955J0D01*
G01*
X48013045Y-55850040D01*
G75*
G02*
X48350000Y-56186995I0J-336955D01*
G01*
X48350000Y-57063085D01*
G75*
G02*
X48013045Y-57400040I-336955J0D01*
G01*
G37*
G36*
G01*
X48013045Y-59450040D02*
X46886955Y-59450040D01*
G75*
G02*
X46550000Y-59113085I0J336955D01*
G01*
X46550000Y-58236995D01*
G75*
G02*
X46886955Y-57900040I336955J0D01*
G01*
X48013045Y-57900040D01*
G75*
G02*
X48350000Y-58236995I0J-336955D01*
G01*
X48350000Y-59113085D01*
G75*
G02*
X48013045Y-59450040I-336955J0D01*
G01*
G37*
G36*
G01*
X50450000Y-62413085D02*
X50450000Y-61286995D01*
G75*
G02*
X50786955Y-60950040I336955J0D01*
G01*
X51663045Y-60950040D01*
G75*
G02*
X52000000Y-61286995I0J-336955D01*
G01*
X52000000Y-62413085D01*
G75*
G02*
X51663045Y-62750040I-336955J0D01*
G01*
X50786955Y-62750040D01*
G75*
G02*
X50450000Y-62413085I0J336955D01*
G01*
G37*
G36*
G01*
X52500000Y-62413085D02*
X52500000Y-61286995D01*
G75*
G02*
X52836955Y-60950040I336955J0D01*
G01*
X53713045Y-60950040D01*
G75*
G02*
X54050000Y-61286995I0J-336955D01*
G01*
X54050000Y-62413085D01*
G75*
G02*
X53713045Y-62750040I-336955J0D01*
G01*
X52836955Y-62750040D01*
G75*
G02*
X52500000Y-62413085I0J336955D01*
G01*
G37*
G36*
G01*
X299993580Y-99265550D02*
X301993580Y-99265550D01*
G75*
G02*
X302193580Y-99465550I0J-200000D01*
G01*
X302193580Y-101465550D01*
G75*
G02*
X301993580Y-101665550I-200000J0D01*
G01*
X299993580Y-101665550D01*
G75*
G02*
X299793580Y-101465550I0J200000D01*
G01*
X299793580Y-99465550D01*
G75*
G02*
X299993580Y-99265550I200000J0D01*
G01*
G37*
D18*
X298493580Y-100465550D03*
X295993580Y-100465550D03*
G36*
G01*
X303093580Y-106165550D02*
X305093580Y-106165550D01*
G75*
G02*
X305293580Y-106365550I0J-200000D01*
G01*
X305293580Y-109565550D01*
G75*
G02*
X305093580Y-109765550I-200000J0D01*
G01*
X303093580Y-109765550D01*
G75*
G02*
X302893580Y-109565550I0J200000D01*
G01*
X302893580Y-106365550D01*
G75*
G02*
X303093580Y-106165550I200000J0D01*
G01*
G37*
G36*
G01*
X291893580Y-106165550D02*
X293893580Y-106165550D01*
G75*
G02*
X294093580Y-106365550I0J-200000D01*
G01*
X294093580Y-109565550D01*
G75*
G02*
X293893580Y-109765550I-200000J0D01*
G01*
X291893580Y-109765550D01*
G75*
G02*
X291693580Y-109565550I0J200000D01*
G01*
X291693580Y-106365550D01*
G75*
G02*
X291893580Y-106165550I200000J0D01*
G01*
G37*
X300993580Y-114965550D03*
X295993580Y-114965550D03*
G36*
G01*
X46458000Y-35605040D02*
X46458000Y-38105040D01*
G75*
G02*
X46258000Y-38305040I-200000J0D01*
G01*
X43708000Y-38305040D01*
G75*
G02*
X43508000Y-38105040I0J200000D01*
G01*
X43508000Y-35605040D01*
G75*
G02*
X43708000Y-35405040I200000J0D01*
G01*
X46258000Y-35405040D01*
G75*
G02*
X46458000Y-35605040I0J-200000D01*
G01*
G37*
G36*
G01*
X59385000Y-33065040D02*
X59385000Y-35565040D01*
G75*
G02*
X59185000Y-35765040I-200000J0D01*
G01*
X56635000Y-35765040D01*
G75*
G02*
X56435000Y-35565040I0J200000D01*
G01*
X56435000Y-33065040D01*
G75*
G02*
X56635000Y-32865040I200000J0D01*
G01*
X59185000Y-32865040D01*
G75*
G02*
X59385000Y-33065040I0J-200000D01*
G01*
G37*
D17*
X45745000Y-31775040D03*
X55905000Y-31775040D03*
D15*
X54635000Y-34315040D03*
D16*
X50825000Y-31775040D03*
D15*
X48285000Y-36855040D03*
G36*
G01*
X107250000Y-51650040D02*
X106050000Y-51650040D01*
G75*
G02*
X105850000Y-51450040I0J200000D01*
G01*
X105850000Y-50550040D01*
G75*
G02*
X106050000Y-50350040I200000J0D01*
G01*
X107250000Y-50350040D01*
G75*
G02*
X107450000Y-50550040I0J-200000D01*
G01*
X107450000Y-51450040D01*
G75*
G02*
X107250000Y-51650040I-200000J0D01*
G01*
G37*
G36*
G01*
X107250000Y-54950040D02*
X106050000Y-54950040D01*
G75*
G02*
X105850000Y-54750040I0J200000D01*
G01*
X105850000Y-53850040D01*
G75*
G02*
X106050000Y-53650040I200000J0D01*
G01*
X107250000Y-53650040D01*
G75*
G02*
X107450000Y-53850040I0J-200000D01*
G01*
X107450000Y-54750040D01*
G75*
G02*
X107250000Y-54950040I-200000J0D01*
G01*
G37*
G36*
G01*
X26450000Y-48350040D02*
X25250000Y-48350040D01*
G75*
G02*
X25050000Y-48150040I0J200000D01*
G01*
X25050000Y-47250040D01*
G75*
G02*
X25250000Y-47050040I200000J0D01*
G01*
X26450000Y-47050040D01*
G75*
G02*
X26650000Y-47250040I0J-200000D01*
G01*
X26650000Y-48150040D01*
G75*
G02*
X26450000Y-48350040I-200000J0D01*
G01*
G37*
G36*
G01*
X26450000Y-45050040D02*
X25250000Y-45050040D01*
G75*
G02*
X25050000Y-44850040I0J200000D01*
G01*
X25050000Y-43950040D01*
G75*
G02*
X25250000Y-43750040I200000J0D01*
G01*
X26450000Y-43750040D01*
G75*
G02*
X26650000Y-43950040I0J-200000D01*
G01*
X26650000Y-44850040D01*
G75*
G02*
X26450000Y-45050040I-200000J0D01*
G01*
G37*
G36*
G01*
X42450000Y-35450040D02*
X41250000Y-35450040D01*
G75*
G02*
X41050000Y-35250040I0J200000D01*
G01*
X41050000Y-34350040D01*
G75*
G02*
X41250000Y-34150040I200000J0D01*
G01*
X42450000Y-34150040D01*
G75*
G02*
X42650000Y-34350040I0J-200000D01*
G01*
X42650000Y-35250040D01*
G75*
G02*
X42450000Y-35450040I-200000J0D01*
G01*
G37*
G36*
G01*
X42450000Y-38750040D02*
X41250000Y-38750040D01*
G75*
G02*
X41050000Y-38550040I0J200000D01*
G01*
X41050000Y-37650040D01*
G75*
G02*
X41250000Y-37450040I200000J0D01*
G01*
X42450000Y-37450040D01*
G75*
G02*
X42650000Y-37650040I0J-200000D01*
G01*
X42650000Y-38550040D01*
G75*
G02*
X42450000Y-38750040I-200000J0D01*
G01*
G37*
G36*
G01*
X79250000Y-26250040D02*
X78050000Y-26250040D01*
G75*
G02*
X77850000Y-26050040I0J200000D01*
G01*
X77850000Y-25150040D01*
G75*
G02*
X78050000Y-24950040I200000J0D01*
G01*
X79250000Y-24950040D01*
G75*
G02*
X79450000Y-25150040I0J-200000D01*
G01*
X79450000Y-26050040D01*
G75*
G02*
X79250000Y-26250040I-200000J0D01*
G01*
G37*
G36*
G01*
X79250000Y-29550040D02*
X78050000Y-29550040D01*
G75*
G02*
X77850000Y-29350040I0J200000D01*
G01*
X77850000Y-28450040D01*
G75*
G02*
X78050000Y-28250040I200000J0D01*
G01*
X79250000Y-28250040D01*
G75*
G02*
X79450000Y-28450040I0J-200000D01*
G01*
X79450000Y-29350040D01*
G75*
G02*
X79250000Y-29550040I-200000J0D01*
G01*
G37*
G36*
G01*
X98450000Y-26250040D02*
X97250000Y-26250040D01*
G75*
G02*
X97050000Y-26050040I0J200000D01*
G01*
X97050000Y-25150040D01*
G75*
G02*
X97250000Y-24950040I200000J0D01*
G01*
X98450000Y-24950040D01*
G75*
G02*
X98650000Y-25150040I0J-200000D01*
G01*
X98650000Y-26050040D01*
G75*
G02*
X98450000Y-26250040I-200000J0D01*
G01*
G37*
G36*
G01*
X98450000Y-29550040D02*
X97250000Y-29550040D01*
G75*
G02*
X97050000Y-29350040I0J200000D01*
G01*
X97050000Y-28450040D01*
G75*
G02*
X97250000Y-28250040I200000J0D01*
G01*
X98450000Y-28250040D01*
G75*
G02*
X98650000Y-28450040I0J-200000D01*
G01*
X98650000Y-29350040D01*
G75*
G02*
X98450000Y-29550040I-200000J0D01*
G01*
G37*
G36*
G01*
X117450000Y-26250040D02*
X116250000Y-26250040D01*
G75*
G02*
X116050000Y-26050040I0J200000D01*
G01*
X116050000Y-25150040D01*
G75*
G02*
X116250000Y-24950040I200000J0D01*
G01*
X117450000Y-24950040D01*
G75*
G02*
X117650000Y-25150040I0J-200000D01*
G01*
X117650000Y-26050040D01*
G75*
G02*
X117450000Y-26250040I-200000J0D01*
G01*
G37*
G36*
G01*
X117450000Y-29550040D02*
X116250000Y-29550040D01*
G75*
G02*
X116050000Y-29350040I0J200000D01*
G01*
X116050000Y-28450040D01*
G75*
G02*
X116250000Y-28250040I200000J0D01*
G01*
X117450000Y-28250040D01*
G75*
G02*
X117650000Y-28450040I0J-200000D01*
G01*
X117650000Y-29350040D01*
G75*
G02*
X117450000Y-29550040I-200000J0D01*
G01*
G37*
G36*
G01*
X136450000Y-26250040D02*
X135250000Y-26250040D01*
G75*
G02*
X135050000Y-26050040I0J200000D01*
G01*
X135050000Y-25150040D01*
G75*
G02*
X135250000Y-24950040I200000J0D01*
G01*
X136450000Y-24950040D01*
G75*
G02*
X136650000Y-25150040I0J-200000D01*
G01*
X136650000Y-26050040D01*
G75*
G02*
X136450000Y-26250040I-200000J0D01*
G01*
G37*
G36*
G01*
X136450000Y-29550040D02*
X135250000Y-29550040D01*
G75*
G02*
X135050000Y-29350040I0J200000D01*
G01*
X135050000Y-28450040D01*
G75*
G02*
X135250000Y-28250040I200000J0D01*
G01*
X136450000Y-28250040D01*
G75*
G02*
X136650000Y-28450040I0J-200000D01*
G01*
X136650000Y-29350040D01*
G75*
G02*
X136450000Y-29550040I-200000J0D01*
G01*
G37*
G36*
G01*
X155650000Y-26250040D02*
X154450000Y-26250040D01*
G75*
G02*
X154250000Y-26050040I0J200000D01*
G01*
X154250000Y-25150040D01*
G75*
G02*
X154450000Y-24950040I200000J0D01*
G01*
X155650000Y-24950040D01*
G75*
G02*
X155850000Y-25150040I0J-200000D01*
G01*
X155850000Y-26050040D01*
G75*
G02*
X155650000Y-26250040I-200000J0D01*
G01*
G37*
G36*
G01*
X155650000Y-29550040D02*
X154450000Y-29550040D01*
G75*
G02*
X154250000Y-29350040I0J200000D01*
G01*
X154250000Y-28450040D01*
G75*
G02*
X154450000Y-28250040I200000J0D01*
G01*
X155650000Y-28250040D01*
G75*
G02*
X155850000Y-28450040I0J-200000D01*
G01*
X155850000Y-29350040D01*
G75*
G02*
X155650000Y-29550040I-200000J0D01*
G01*
G37*
G36*
G01*
X174650000Y-26250040D02*
X173450000Y-26250040D01*
G75*
G02*
X173250000Y-26050040I0J200000D01*
G01*
X173250000Y-25150040D01*
G75*
G02*
X173450000Y-24950040I200000J0D01*
G01*
X174650000Y-24950040D01*
G75*
G02*
X174850000Y-25150040I0J-200000D01*
G01*
X174850000Y-26050040D01*
G75*
G02*
X174650000Y-26250040I-200000J0D01*
G01*
G37*
G36*
G01*
X174650000Y-29550040D02*
X173450000Y-29550040D01*
G75*
G02*
X173250000Y-29350040I0J200000D01*
G01*
X173250000Y-28450040D01*
G75*
G02*
X173450000Y-28250040I200000J0D01*
G01*
X174650000Y-28250040D01*
G75*
G02*
X174850000Y-28450040I0J-200000D01*
G01*
X174850000Y-29350040D01*
G75*
G02*
X174650000Y-29550040I-200000J0D01*
G01*
G37*
G36*
G01*
X193650000Y-26250040D02*
X192450000Y-26250040D01*
G75*
G02*
X192250000Y-26050040I0J200000D01*
G01*
X192250000Y-25150040D01*
G75*
G02*
X192450000Y-24950040I200000J0D01*
G01*
X193650000Y-24950040D01*
G75*
G02*
X193850000Y-25150040I0J-200000D01*
G01*
X193850000Y-26050040D01*
G75*
G02*
X193650000Y-26250040I-200000J0D01*
G01*
G37*
G36*
G01*
X193650000Y-29550040D02*
X192450000Y-29550040D01*
G75*
G02*
X192250000Y-29350040I0J200000D01*
G01*
X192250000Y-28450040D01*
G75*
G02*
X192450000Y-28250040I200000J0D01*
G01*
X193650000Y-28250040D01*
G75*
G02*
X193850000Y-28450040I0J-200000D01*
G01*
X193850000Y-29350040D01*
G75*
G02*
X193650000Y-29550040I-200000J0D01*
G01*
G37*
G36*
G01*
X212650000Y-26250040D02*
X211450000Y-26250040D01*
G75*
G02*
X211250000Y-26050040I0J200000D01*
G01*
X211250000Y-25150040D01*
G75*
G02*
X211450000Y-24950040I200000J0D01*
G01*
X212650000Y-24950040D01*
G75*
G02*
X212850000Y-25150040I0J-200000D01*
G01*
X212850000Y-26050040D01*
G75*
G02*
X212650000Y-26250040I-200000J0D01*
G01*
G37*
G36*
G01*
X212650000Y-29550040D02*
X211450000Y-29550040D01*
G75*
G02*
X211250000Y-29350040I0J200000D01*
G01*
X211250000Y-28450040D01*
G75*
G02*
X211450000Y-28250040I200000J0D01*
G01*
X212650000Y-28250040D01*
G75*
G02*
X212850000Y-28450040I0J-200000D01*
G01*
X212850000Y-29350040D01*
G75*
G02*
X212650000Y-29550040I-200000J0D01*
G01*
G37*
G36*
G01*
X231850000Y-26250040D02*
X230650000Y-26250040D01*
G75*
G02*
X230450000Y-26050040I0J200000D01*
G01*
X230450000Y-25150040D01*
G75*
G02*
X230650000Y-24950040I200000J0D01*
G01*
X231850000Y-24950040D01*
G75*
G02*
X232050000Y-25150040I0J-200000D01*
G01*
X232050000Y-26050040D01*
G75*
G02*
X231850000Y-26250040I-200000J0D01*
G01*
G37*
G36*
G01*
X231850000Y-29550040D02*
X230650000Y-29550040D01*
G75*
G02*
X230450000Y-29350040I0J200000D01*
G01*
X230450000Y-28450040D01*
G75*
G02*
X230650000Y-28250040I200000J0D01*
G01*
X231850000Y-28250040D01*
G75*
G02*
X232050000Y-28450040I0J-200000D01*
G01*
X232050000Y-29350040D01*
G75*
G02*
X231850000Y-29550040I-200000J0D01*
G01*
G37*
G36*
G01*
X250850000Y-26250040D02*
X249650000Y-26250040D01*
G75*
G02*
X249450000Y-26050040I0J200000D01*
G01*
X249450000Y-25150040D01*
G75*
G02*
X249650000Y-24950040I200000J0D01*
G01*
X250850000Y-24950040D01*
G75*
G02*
X251050000Y-25150040I0J-200000D01*
G01*
X251050000Y-26050040D01*
G75*
G02*
X250850000Y-26250040I-200000J0D01*
G01*
G37*
G36*
G01*
X250850000Y-29550040D02*
X249650000Y-29550040D01*
G75*
G02*
X249450000Y-29350040I0J200000D01*
G01*
X249450000Y-28450040D01*
G75*
G02*
X249650000Y-28250040I200000J0D01*
G01*
X250850000Y-28250040D01*
G75*
G02*
X251050000Y-28450040I0J-200000D01*
G01*
X251050000Y-29350040D01*
G75*
G02*
X250850000Y-29550040I-200000J0D01*
G01*
G37*
G36*
G01*
X269850000Y-26250040D02*
X268650000Y-26250040D01*
G75*
G02*
X268450000Y-26050040I0J200000D01*
G01*
X268450000Y-25150040D01*
G75*
G02*
X268650000Y-24950040I200000J0D01*
G01*
X269850000Y-24950040D01*
G75*
G02*
X270050000Y-25150040I0J-200000D01*
G01*
X270050000Y-26050040D01*
G75*
G02*
X269850000Y-26250040I-200000J0D01*
G01*
G37*
G36*
G01*
X269850000Y-29550040D02*
X268650000Y-29550040D01*
G75*
G02*
X268450000Y-29350040I0J200000D01*
G01*
X268450000Y-28450040D01*
G75*
G02*
X268650000Y-28250040I200000J0D01*
G01*
X269850000Y-28250040D01*
G75*
G02*
X270050000Y-28450040I0J-200000D01*
G01*
X270050000Y-29350040D01*
G75*
G02*
X269850000Y-29550040I-200000J0D01*
G01*
G37*
G36*
G01*
X269850000Y-31850040D02*
X268650000Y-31850040D01*
G75*
G02*
X268450000Y-31650040I0J200000D01*
G01*
X268450000Y-30750040D01*
G75*
G02*
X268650000Y-30550040I200000J0D01*
G01*
X269850000Y-30550040D01*
G75*
G02*
X270050000Y-30750040I0J-200000D01*
G01*
X270050000Y-31650040D01*
G75*
G02*
X269850000Y-31850040I-200000J0D01*
G01*
G37*
G36*
G01*
X269850000Y-35150040D02*
X268650000Y-35150040D01*
G75*
G02*
X268450000Y-34950040I0J200000D01*
G01*
X268450000Y-34050040D01*
G75*
G02*
X268650000Y-33850040I200000J0D01*
G01*
X269850000Y-33850040D01*
G75*
G02*
X270050000Y-34050040I0J-200000D01*
G01*
X270050000Y-34950040D01*
G75*
G02*
X269850000Y-35150040I-200000J0D01*
G01*
G37*
G36*
G01*
X266850000Y-73450040D02*
X265650000Y-73450040D01*
G75*
G02*
X265450000Y-73250040I0J200000D01*
G01*
X265450000Y-72350040D01*
G75*
G02*
X265650000Y-72150040I200000J0D01*
G01*
X266850000Y-72150040D01*
G75*
G02*
X267050000Y-72350040I0J-200000D01*
G01*
X267050000Y-73250040D01*
G75*
G02*
X266850000Y-73450040I-200000J0D01*
G01*
G37*
G36*
G01*
X266850000Y-76750040D02*
X265650000Y-76750040D01*
G75*
G02*
X265450000Y-76550040I0J200000D01*
G01*
X265450000Y-75650040D01*
G75*
G02*
X265650000Y-75450040I200000J0D01*
G01*
X266850000Y-75450040D01*
G75*
G02*
X267050000Y-75650040I0J-200000D01*
G01*
X267050000Y-76550040D01*
G75*
G02*
X266850000Y-76750040I-200000J0D01*
G01*
G37*
G36*
G01*
X26450000Y-53550040D02*
X25250000Y-53550040D01*
G75*
G02*
X25050000Y-53350040I0J200000D01*
G01*
X25050000Y-52450040D01*
G75*
G02*
X25250000Y-52250040I200000J0D01*
G01*
X26450000Y-52250040D01*
G75*
G02*
X26650000Y-52450040I0J-200000D01*
G01*
X26650000Y-53350040D01*
G75*
G02*
X26450000Y-53550040I-200000J0D01*
G01*
G37*
G36*
G01*
X26450000Y-50250040D02*
X25250000Y-50250040D01*
G75*
G02*
X25050000Y-50050040I0J200000D01*
G01*
X25050000Y-49150040D01*
G75*
G02*
X25250000Y-48950040I200000J0D01*
G01*
X26450000Y-48950040D01*
G75*
G02*
X26650000Y-49150040I0J-200000D01*
G01*
X26650000Y-50050040D01*
G75*
G02*
X26450000Y-50250040I-200000J0D01*
G01*
G37*
G36*
G01*
X88850000Y-48350040D02*
X87650000Y-48350040D01*
G75*
G02*
X87450000Y-48150040I0J200000D01*
G01*
X87450000Y-47250040D01*
G75*
G02*
X87650000Y-47050040I200000J0D01*
G01*
X88850000Y-47050040D01*
G75*
G02*
X89050000Y-47250040I0J-200000D01*
G01*
X89050000Y-48150040D01*
G75*
G02*
X88850000Y-48350040I-200000J0D01*
G01*
G37*
G36*
G01*
X88850000Y-45050040D02*
X87650000Y-45050040D01*
G75*
G02*
X87450000Y-44850040I0J200000D01*
G01*
X87450000Y-43950040D01*
G75*
G02*
X87650000Y-43750040I200000J0D01*
G01*
X88850000Y-43750040D01*
G75*
G02*
X89050000Y-43950040I0J-200000D01*
G01*
X89050000Y-44850040D01*
G75*
G02*
X88850000Y-45050040I-200000J0D01*
G01*
G37*
G36*
G01*
X88850000Y-51650040D02*
X87650000Y-51650040D01*
G75*
G02*
X87450000Y-51450040I0J200000D01*
G01*
X87450000Y-50550040D01*
G75*
G02*
X87650000Y-50350040I200000J0D01*
G01*
X88850000Y-50350040D01*
G75*
G02*
X89050000Y-50550040I0J-200000D01*
G01*
X89050000Y-51450040D01*
G75*
G02*
X88850000Y-51650040I-200000J0D01*
G01*
G37*
G36*
G01*
X88850000Y-54950040D02*
X87650000Y-54950040D01*
G75*
G02*
X87450000Y-54750040I0J200000D01*
G01*
X87450000Y-53850040D01*
G75*
G02*
X87650000Y-53650040I200000J0D01*
G01*
X88850000Y-53650040D01*
G75*
G02*
X89050000Y-53850040I0J-200000D01*
G01*
X89050000Y-54750040D01*
G75*
G02*
X88850000Y-54950040I-200000J0D01*
G01*
G37*
G36*
G01*
X126250000Y-54950040D02*
X125050000Y-54950040D01*
G75*
G02*
X124850000Y-54750040I0J200000D01*
G01*
X124850000Y-53850040D01*
G75*
G02*
X125050000Y-53650040I200000J0D01*
G01*
X126250000Y-53650040D01*
G75*
G02*
X126450000Y-53850040I0J-200000D01*
G01*
X126450000Y-54750040D01*
G75*
G02*
X126250000Y-54950040I-200000J0D01*
G01*
G37*
G36*
G01*
X126250000Y-51650040D02*
X125050000Y-51650040D01*
G75*
G02*
X124850000Y-51450040I0J200000D01*
G01*
X124850000Y-50550040D01*
G75*
G02*
X125050000Y-50350040I200000J0D01*
G01*
X126250000Y-50350040D01*
G75*
G02*
X126450000Y-50550040I0J-200000D01*
G01*
X126450000Y-51450040D01*
G75*
G02*
X126250000Y-51650040I-200000J0D01*
G01*
G37*
G36*
G01*
X145450000Y-51650040D02*
X144250000Y-51650040D01*
G75*
G02*
X144050000Y-51450040I0J200000D01*
G01*
X144050000Y-50550040D01*
G75*
G02*
X144250000Y-50350040I200000J0D01*
G01*
X145450000Y-50350040D01*
G75*
G02*
X145650000Y-50550040I0J-200000D01*
G01*
X145650000Y-51450040D01*
G75*
G02*
X145450000Y-51650040I-200000J0D01*
G01*
G37*
G36*
G01*
X145450000Y-54950040D02*
X144250000Y-54950040D01*
G75*
G02*
X144050000Y-54750040I0J200000D01*
G01*
X144050000Y-53850040D01*
G75*
G02*
X144250000Y-53650040I200000J0D01*
G01*
X145450000Y-53650040D01*
G75*
G02*
X145650000Y-53850040I0J-200000D01*
G01*
X145650000Y-54750040D01*
G75*
G02*
X145450000Y-54950040I-200000J0D01*
G01*
G37*
G36*
G01*
X221450000Y-54950040D02*
X220250000Y-54950040D01*
G75*
G02*
X220050000Y-54750040I0J200000D01*
G01*
X220050000Y-53850040D01*
G75*
G02*
X220250000Y-53650040I200000J0D01*
G01*
X221450000Y-53650040D01*
G75*
G02*
X221650000Y-53850040I0J-200000D01*
G01*
X221650000Y-54750040D01*
G75*
G02*
X221450000Y-54950040I-200000J0D01*
G01*
G37*
G36*
G01*
X221450000Y-51650040D02*
X220250000Y-51650040D01*
G75*
G02*
X220050000Y-51450040I0J200000D01*
G01*
X220050000Y-50550040D01*
G75*
G02*
X220250000Y-50350040I200000J0D01*
G01*
X221450000Y-50350040D01*
G75*
G02*
X221650000Y-50550040I0J-200000D01*
G01*
X221650000Y-51450040D01*
G75*
G02*
X221450000Y-51650040I-200000J0D01*
G01*
G37*
G36*
G01*
X240450000Y-54950040D02*
X239250000Y-54950040D01*
G75*
G02*
X239050000Y-54750040I0J200000D01*
G01*
X239050000Y-53850040D01*
G75*
G02*
X239250000Y-53650040I200000J0D01*
G01*
X240450000Y-53650040D01*
G75*
G02*
X240650000Y-53850040I0J-200000D01*
G01*
X240650000Y-54750040D01*
G75*
G02*
X240450000Y-54950040I-200000J0D01*
G01*
G37*
G36*
G01*
X240450000Y-51650040D02*
X239250000Y-51650040D01*
G75*
G02*
X239050000Y-51450040I0J200000D01*
G01*
X239050000Y-50550040D01*
G75*
G02*
X239250000Y-50350040I200000J0D01*
G01*
X240450000Y-50350040D01*
G75*
G02*
X240650000Y-50550040I0J-200000D01*
G01*
X240650000Y-51450040D01*
G75*
G02*
X240450000Y-51650040I-200000J0D01*
G01*
G37*
G36*
G01*
X164450000Y-51650040D02*
X163250000Y-51650040D01*
G75*
G02*
X163050000Y-51450040I0J200000D01*
G01*
X163050000Y-50550040D01*
G75*
G02*
X163250000Y-50350040I200000J0D01*
G01*
X164450000Y-50350040D01*
G75*
G02*
X164650000Y-50550040I0J-200000D01*
G01*
X164650000Y-51450040D01*
G75*
G02*
X164450000Y-51650040I-200000J0D01*
G01*
G37*
G36*
G01*
X164450000Y-54950040D02*
X163250000Y-54950040D01*
G75*
G02*
X163050000Y-54750040I0J200000D01*
G01*
X163050000Y-53850040D01*
G75*
G02*
X163250000Y-53650040I200000J0D01*
G01*
X164450000Y-53650040D01*
G75*
G02*
X164650000Y-53850040I0J-200000D01*
G01*
X164650000Y-54750040D01*
G75*
G02*
X164450000Y-54950040I-200000J0D01*
G01*
G37*
G36*
G01*
X183450000Y-51650040D02*
X182250000Y-51650040D01*
G75*
G02*
X182050000Y-51450040I0J200000D01*
G01*
X182050000Y-50550040D01*
G75*
G02*
X182250000Y-50350040I200000J0D01*
G01*
X183450000Y-50350040D01*
G75*
G02*
X183650000Y-50550040I0J-200000D01*
G01*
X183650000Y-51450040D01*
G75*
G02*
X183450000Y-51650040I-200000J0D01*
G01*
G37*
G36*
G01*
X183450000Y-54950040D02*
X182250000Y-54950040D01*
G75*
G02*
X182050000Y-54750040I0J200000D01*
G01*
X182050000Y-53850040D01*
G75*
G02*
X182250000Y-53650040I200000J0D01*
G01*
X183450000Y-53650040D01*
G75*
G02*
X183650000Y-53850040I0J-200000D01*
G01*
X183650000Y-54750040D01*
G75*
G02*
X183450000Y-54950040I-200000J0D01*
G01*
G37*
G36*
G01*
X202450000Y-51650040D02*
X201250000Y-51650040D01*
G75*
G02*
X201050000Y-51450040I0J200000D01*
G01*
X201050000Y-50550040D01*
G75*
G02*
X201250000Y-50350040I200000J0D01*
G01*
X202450000Y-50350040D01*
G75*
G02*
X202650000Y-50550040I0J-200000D01*
G01*
X202650000Y-51450040D01*
G75*
G02*
X202450000Y-51650040I-200000J0D01*
G01*
G37*
G36*
G01*
X202450000Y-54950040D02*
X201250000Y-54950040D01*
G75*
G02*
X201050000Y-54750040I0J200000D01*
G01*
X201050000Y-53850040D01*
G75*
G02*
X201250000Y-53650040I200000J0D01*
G01*
X202450000Y-53650040D01*
G75*
G02*
X202650000Y-53850040I0J-200000D01*
G01*
X202650000Y-54750040D01*
G75*
G02*
X202450000Y-54950040I-200000J0D01*
G01*
G37*
G36*
G01*
X243450000Y-51650040D02*
X242250000Y-51650040D01*
G75*
G02*
X242050000Y-51450040I0J200000D01*
G01*
X242050000Y-50550040D01*
G75*
G02*
X242250000Y-50350040I200000J0D01*
G01*
X243450000Y-50350040D01*
G75*
G02*
X243650000Y-50550040I0J-200000D01*
G01*
X243650000Y-51450040D01*
G75*
G02*
X243450000Y-51650040I-200000J0D01*
G01*
G37*
G36*
G01*
X243450000Y-54950040D02*
X242250000Y-54950040D01*
G75*
G02*
X242050000Y-54750040I0J200000D01*
G01*
X242050000Y-53850040D01*
G75*
G02*
X242250000Y-53650040I200000J0D01*
G01*
X243450000Y-53650040D01*
G75*
G02*
X243650000Y-53850040I0J-200000D01*
G01*
X243650000Y-54750040D01*
G75*
G02*
X243450000Y-54950040I-200000J0D01*
G01*
G37*
G36*
G01*
X264450000Y-51850040D02*
X263250000Y-51850040D01*
G75*
G02*
X263050000Y-51650040I0J200000D01*
G01*
X263050000Y-50750040D01*
G75*
G02*
X263250000Y-50550040I200000J0D01*
G01*
X264450000Y-50550040D01*
G75*
G02*
X264650000Y-50750040I0J-200000D01*
G01*
X264650000Y-51650040D01*
G75*
G02*
X264450000Y-51850040I-200000J0D01*
G01*
G37*
G36*
G01*
X264450000Y-55150040D02*
X263250000Y-55150040D01*
G75*
G02*
X263050000Y-54950040I0J200000D01*
G01*
X263050000Y-54050040D01*
G75*
G02*
X263250000Y-53850040I200000J0D01*
G01*
X264450000Y-53850040D01*
G75*
G02*
X264650000Y-54050040I0J-200000D01*
G01*
X264650000Y-54950040D01*
G75*
G02*
X264450000Y-55150040I-200000J0D01*
G01*
G37*
G36*
G01*
X288850000Y-26250040D02*
X287650000Y-26250040D01*
G75*
G02*
X287450000Y-26050040I0J200000D01*
G01*
X287450000Y-25150040D01*
G75*
G02*
X287650000Y-24950040I200000J0D01*
G01*
X288850000Y-24950040D01*
G75*
G02*
X289050000Y-25150040I0J-200000D01*
G01*
X289050000Y-26050040D01*
G75*
G02*
X288850000Y-26250040I-200000J0D01*
G01*
G37*
G36*
G01*
X288850000Y-29550040D02*
X287650000Y-29550040D01*
G75*
G02*
X287450000Y-29350040I0J200000D01*
G01*
X287450000Y-28450040D01*
G75*
G02*
X287650000Y-28250040I200000J0D01*
G01*
X288850000Y-28250040D01*
G75*
G02*
X289050000Y-28450040I0J-200000D01*
G01*
X289050000Y-29350040D01*
G75*
G02*
X288850000Y-29550040I-200000J0D01*
G01*
G37*
G36*
G01*
X44850000Y-76050040D02*
X43650000Y-76050040D01*
G75*
G02*
X43450000Y-75850040I0J200000D01*
G01*
X43450000Y-74950040D01*
G75*
G02*
X43650000Y-74750040I200000J0D01*
G01*
X44850000Y-74750040D01*
G75*
G02*
X45050000Y-74950040I0J-200000D01*
G01*
X45050000Y-75850040D01*
G75*
G02*
X44850000Y-76050040I-200000J0D01*
G01*
G37*
G36*
G01*
X44850000Y-79350040D02*
X43650000Y-79350040D01*
G75*
G02*
X43450000Y-79150040I0J200000D01*
G01*
X43450000Y-78250040D01*
G75*
G02*
X43650000Y-78050040I200000J0D01*
G01*
X44850000Y-78050040D01*
G75*
G02*
X45050000Y-78250040I0J-200000D01*
G01*
X45050000Y-79150040D01*
G75*
G02*
X44850000Y-79350040I-200000J0D01*
G01*
G37*
G36*
G01*
X69350000Y-71050040D02*
X68150000Y-71050040D01*
G75*
G02*
X67950000Y-70850040I0J200000D01*
G01*
X67950000Y-69950040D01*
G75*
G02*
X68150000Y-69750040I200000J0D01*
G01*
X69350000Y-69750040D01*
G75*
G02*
X69550000Y-69950040I0J-200000D01*
G01*
X69550000Y-70850040D01*
G75*
G02*
X69350000Y-71050040I-200000J0D01*
G01*
G37*
G36*
G01*
X69350000Y-74350040D02*
X68150000Y-74350040D01*
G75*
G02*
X67950000Y-74150040I0J200000D01*
G01*
X67950000Y-73250040D01*
G75*
G02*
X68150000Y-73050040I200000J0D01*
G01*
X69350000Y-73050040D01*
G75*
G02*
X69550000Y-73250040I0J-200000D01*
G01*
X69550000Y-74150040D01*
G75*
G02*
X69350000Y-74350040I-200000J0D01*
G01*
G37*
G36*
G01*
X88350000Y-71050040D02*
X87150000Y-71050040D01*
G75*
G02*
X86950000Y-70850040I0J200000D01*
G01*
X86950000Y-69950040D01*
G75*
G02*
X87150000Y-69750040I200000J0D01*
G01*
X88350000Y-69750040D01*
G75*
G02*
X88550000Y-69950040I0J-200000D01*
G01*
X88550000Y-70850040D01*
G75*
G02*
X88350000Y-71050040I-200000J0D01*
G01*
G37*
G36*
G01*
X88350000Y-74350040D02*
X87150000Y-74350040D01*
G75*
G02*
X86950000Y-74150040I0J200000D01*
G01*
X86950000Y-73250040D01*
G75*
G02*
X87150000Y-73050040I200000J0D01*
G01*
X88350000Y-73050040D01*
G75*
G02*
X88550000Y-73250040I0J-200000D01*
G01*
X88550000Y-74150040D01*
G75*
G02*
X88350000Y-74350040I-200000J0D01*
G01*
G37*
G36*
G01*
X107350000Y-71050040D02*
X106150000Y-71050040D01*
G75*
G02*
X105950000Y-70850040I0J200000D01*
G01*
X105950000Y-69950040D01*
G75*
G02*
X106150000Y-69750040I200000J0D01*
G01*
X107350000Y-69750040D01*
G75*
G02*
X107550000Y-69950040I0J-200000D01*
G01*
X107550000Y-70850040D01*
G75*
G02*
X107350000Y-71050040I-200000J0D01*
G01*
G37*
G36*
G01*
X107350000Y-74350040D02*
X106150000Y-74350040D01*
G75*
G02*
X105950000Y-74150040I0J200000D01*
G01*
X105950000Y-73250040D01*
G75*
G02*
X106150000Y-73050040I200000J0D01*
G01*
X107350000Y-73050040D01*
G75*
G02*
X107550000Y-73250040I0J-200000D01*
G01*
X107550000Y-74150040D01*
G75*
G02*
X107350000Y-74350040I-200000J0D01*
G01*
G37*
G36*
G01*
X126450000Y-74250040D02*
X125250000Y-74250040D01*
G75*
G02*
X125050000Y-74050040I0J200000D01*
G01*
X125050000Y-73150040D01*
G75*
G02*
X125250000Y-72950040I200000J0D01*
G01*
X126450000Y-72950040D01*
G75*
G02*
X126650000Y-73150040I0J-200000D01*
G01*
X126650000Y-74050040D01*
G75*
G02*
X126450000Y-74250040I-200000J0D01*
G01*
G37*
G36*
G01*
X126450000Y-70950040D02*
X125250000Y-70950040D01*
G75*
G02*
X125050000Y-70750040I0J200000D01*
G01*
X125050000Y-69850040D01*
G75*
G02*
X125250000Y-69650040I200000J0D01*
G01*
X126450000Y-69650040D01*
G75*
G02*
X126650000Y-69850040I0J-200000D01*
G01*
X126650000Y-70750040D01*
G75*
G02*
X126450000Y-70950040I-200000J0D01*
G01*
G37*
G36*
G01*
X129250000Y-74250040D02*
X128050000Y-74250040D01*
G75*
G02*
X127850000Y-74050040I0J200000D01*
G01*
X127850000Y-73150040D01*
G75*
G02*
X128050000Y-72950040I200000J0D01*
G01*
X129250000Y-72950040D01*
G75*
G02*
X129450000Y-73150040I0J-200000D01*
G01*
X129450000Y-74050040D01*
G75*
G02*
X129250000Y-74250040I-200000J0D01*
G01*
G37*
G36*
G01*
X129250000Y-70950040D02*
X128050000Y-70950040D01*
G75*
G02*
X127850000Y-70750040I0J200000D01*
G01*
X127850000Y-69850040D01*
G75*
G02*
X128050000Y-69650040I200000J0D01*
G01*
X129250000Y-69650040D01*
G75*
G02*
X129450000Y-69850040I0J-200000D01*
G01*
X129450000Y-70750040D01*
G75*
G02*
X129250000Y-70950040I-200000J0D01*
G01*
G37*
G36*
G01*
X221450000Y-74350040D02*
X220250000Y-74350040D01*
G75*
G02*
X220050000Y-74150040I0J200000D01*
G01*
X220050000Y-73250040D01*
G75*
G02*
X220250000Y-73050040I200000J0D01*
G01*
X221450000Y-73050040D01*
G75*
G02*
X221650000Y-73250040I0J-200000D01*
G01*
X221650000Y-74150040D01*
G75*
G02*
X221450000Y-74350040I-200000J0D01*
G01*
G37*
G36*
G01*
X221450000Y-71050040D02*
X220250000Y-71050040D01*
G75*
G02*
X220050000Y-70850040I0J200000D01*
G01*
X220050000Y-69950040D01*
G75*
G02*
X220250000Y-69750040I200000J0D01*
G01*
X221450000Y-69750040D01*
G75*
G02*
X221650000Y-69950040I0J-200000D01*
G01*
X221650000Y-70850040D01*
G75*
G02*
X221450000Y-71050040I-200000J0D01*
G01*
G37*
G36*
G01*
X240050000Y-74350040D02*
X238850000Y-74350040D01*
G75*
G02*
X238650000Y-74150040I0J200000D01*
G01*
X238650000Y-73250040D01*
G75*
G02*
X238850000Y-73050040I200000J0D01*
G01*
X240050000Y-73050040D01*
G75*
G02*
X240250000Y-73250040I0J-200000D01*
G01*
X240250000Y-74150040D01*
G75*
G02*
X240050000Y-74350040I-200000J0D01*
G01*
G37*
G36*
G01*
X240050000Y-71050040D02*
X238850000Y-71050040D01*
G75*
G02*
X238650000Y-70850040I0J200000D01*
G01*
X238650000Y-69950040D01*
G75*
G02*
X238850000Y-69750040I200000J0D01*
G01*
X240050000Y-69750040D01*
G75*
G02*
X240250000Y-69950040I0J-200000D01*
G01*
X240250000Y-70850040D01*
G75*
G02*
X240050000Y-71050040I-200000J0D01*
G01*
G37*
G36*
G01*
X166350000Y-74250040D02*
X165150000Y-74250040D01*
G75*
G02*
X164950000Y-74050040I0J200000D01*
G01*
X164950000Y-73150040D01*
G75*
G02*
X165150000Y-72950040I200000J0D01*
G01*
X166350000Y-72950040D01*
G75*
G02*
X166550000Y-73150040I0J-200000D01*
G01*
X166550000Y-74050040D01*
G75*
G02*
X166350000Y-74250040I-200000J0D01*
G01*
G37*
G36*
G01*
X166350000Y-70950040D02*
X165150000Y-70950040D01*
G75*
G02*
X164950000Y-70750040I0J200000D01*
G01*
X164950000Y-69850040D01*
G75*
G02*
X165150000Y-69650040I200000J0D01*
G01*
X166350000Y-69650040D01*
G75*
G02*
X166550000Y-69850040I0J-200000D01*
G01*
X166550000Y-70750040D01*
G75*
G02*
X166350000Y-70950040I-200000J0D01*
G01*
G37*
G36*
G01*
X186250000Y-74350040D02*
X185050000Y-74350040D01*
G75*
G02*
X184850000Y-74150040I0J200000D01*
G01*
X184850000Y-73250040D01*
G75*
G02*
X185050000Y-73050040I200000J0D01*
G01*
X186250000Y-73050040D01*
G75*
G02*
X186450000Y-73250040I0J-200000D01*
G01*
X186450000Y-74150040D01*
G75*
G02*
X186250000Y-74350040I-200000J0D01*
G01*
G37*
G36*
G01*
X186250000Y-71050040D02*
X185050000Y-71050040D01*
G75*
G02*
X184850000Y-70850040I0J200000D01*
G01*
X184850000Y-69950040D01*
G75*
G02*
X185050000Y-69750040I200000J0D01*
G01*
X186250000Y-69750040D01*
G75*
G02*
X186450000Y-69950040I0J-200000D01*
G01*
X186450000Y-70850040D01*
G75*
G02*
X186250000Y-71050040I-200000J0D01*
G01*
G37*
G36*
G01*
X202650000Y-74350040D02*
X201450000Y-74350040D01*
G75*
G02*
X201250000Y-74150040I0J200000D01*
G01*
X201250000Y-73250040D01*
G75*
G02*
X201450000Y-73050040I200000J0D01*
G01*
X202650000Y-73050040D01*
G75*
G02*
X202850000Y-73250040I0J-200000D01*
G01*
X202850000Y-74150040D01*
G75*
G02*
X202650000Y-74350040I-200000J0D01*
G01*
G37*
G36*
G01*
X202650000Y-71050040D02*
X201450000Y-71050040D01*
G75*
G02*
X201250000Y-70850040I0J200000D01*
G01*
X201250000Y-69950040D01*
G75*
G02*
X201450000Y-69750040I200000J0D01*
G01*
X202650000Y-69750040D01*
G75*
G02*
X202850000Y-69950040I0J-200000D01*
G01*
X202850000Y-70850040D01*
G75*
G02*
X202650000Y-71050040I-200000J0D01*
G01*
G37*
G36*
G01*
X242650000Y-74350040D02*
X241450000Y-74350040D01*
G75*
G02*
X241250000Y-74150040I0J200000D01*
G01*
X241250000Y-73250040D01*
G75*
G02*
X241450000Y-73050040I200000J0D01*
G01*
X242650000Y-73050040D01*
G75*
G02*
X242850000Y-73250040I0J-200000D01*
G01*
X242850000Y-74150040D01*
G75*
G02*
X242650000Y-74350040I-200000J0D01*
G01*
G37*
G36*
G01*
X242650000Y-71050040D02*
X241450000Y-71050040D01*
G75*
G02*
X241250000Y-70850040I0J200000D01*
G01*
X241250000Y-69950040D01*
G75*
G02*
X241450000Y-69750040I200000J0D01*
G01*
X242650000Y-69750040D01*
G75*
G02*
X242850000Y-69950040I0J-200000D01*
G01*
X242850000Y-70850040D01*
G75*
G02*
X242650000Y-71050040I-200000J0D01*
G01*
G37*
G36*
G01*
X267250000Y-55150040D02*
X266050000Y-55150040D01*
G75*
G02*
X265850000Y-54950040I0J200000D01*
G01*
X265850000Y-54050040D01*
G75*
G02*
X266050000Y-53850040I200000J0D01*
G01*
X267250000Y-53850040D01*
G75*
G02*
X267450000Y-54050040I0J-200000D01*
G01*
X267450000Y-54950040D01*
G75*
G02*
X267250000Y-55150040I-200000J0D01*
G01*
G37*
G36*
G01*
X267250000Y-51850040D02*
X266050000Y-51850040D01*
G75*
G02*
X265850000Y-51650040I0J200000D01*
G01*
X265850000Y-50750040D01*
G75*
G02*
X266050000Y-50550040I200000J0D01*
G01*
X267250000Y-50550040D01*
G75*
G02*
X267450000Y-50750040I0J-200000D01*
G01*
X267450000Y-51650040D01*
G75*
G02*
X267250000Y-51850040I-200000J0D01*
G01*
G37*
G36*
G01*
X75050000Y-95850040D02*
X73850000Y-95850040D01*
G75*
G02*
X73650000Y-95650040I0J200000D01*
G01*
X73650000Y-94750040D01*
G75*
G02*
X73850000Y-94550040I200000J0D01*
G01*
X75050000Y-94550040D01*
G75*
G02*
X75250000Y-94750040I0J-200000D01*
G01*
X75250000Y-95650040D01*
G75*
G02*
X75050000Y-95850040I-200000J0D01*
G01*
G37*
G36*
G01*
X75050000Y-92550040D02*
X73850000Y-92550040D01*
G75*
G02*
X73650000Y-92350040I0J200000D01*
G01*
X73650000Y-91450040D01*
G75*
G02*
X73850000Y-91250040I200000J0D01*
G01*
X75050000Y-91250040D01*
G75*
G02*
X75250000Y-91450040I0J-200000D01*
G01*
X75250000Y-92350040D01*
G75*
G02*
X75050000Y-92550040I-200000J0D01*
G01*
G37*
G36*
G01*
X78750000Y-92950040D02*
X77550000Y-92950040D01*
G75*
G02*
X77350000Y-92750040I0J200000D01*
G01*
X77350000Y-91850040D01*
G75*
G02*
X77550000Y-91650040I200000J0D01*
G01*
X78750000Y-91650040D01*
G75*
G02*
X78950000Y-91850040I0J-200000D01*
G01*
X78950000Y-92750040D01*
G75*
G02*
X78750000Y-92950040I-200000J0D01*
G01*
G37*
G36*
G01*
X78750000Y-89650040D02*
X77550000Y-89650040D01*
G75*
G02*
X77350000Y-89450040I0J200000D01*
G01*
X77350000Y-88550040D01*
G75*
G02*
X77550000Y-88350040I200000J0D01*
G01*
X78750000Y-88350040D01*
G75*
G02*
X78950000Y-88550040I0J-200000D01*
G01*
X78950000Y-89450040D01*
G75*
G02*
X78750000Y-89650040I-200000J0D01*
G01*
G37*
G36*
G01*
X97850000Y-92950040D02*
X96650000Y-92950040D01*
G75*
G02*
X96450000Y-92750040I0J200000D01*
G01*
X96450000Y-91850040D01*
G75*
G02*
X96650000Y-91650040I200000J0D01*
G01*
X97850000Y-91650040D01*
G75*
G02*
X98050000Y-91850040I0J-200000D01*
G01*
X98050000Y-92750040D01*
G75*
G02*
X97850000Y-92950040I-200000J0D01*
G01*
G37*
G36*
G01*
X97850000Y-89650040D02*
X96650000Y-89650040D01*
G75*
G02*
X96450000Y-89450040I0J200000D01*
G01*
X96450000Y-88550040D01*
G75*
G02*
X96650000Y-88350040I200000J0D01*
G01*
X97850000Y-88350040D01*
G75*
G02*
X98050000Y-88550040I0J-200000D01*
G01*
X98050000Y-89450040D01*
G75*
G02*
X97850000Y-89650040I-200000J0D01*
G01*
G37*
G36*
G01*
X116850000Y-92950040D02*
X115650000Y-92950040D01*
G75*
G02*
X115450000Y-92750040I0J200000D01*
G01*
X115450000Y-91850040D01*
G75*
G02*
X115650000Y-91650040I200000J0D01*
G01*
X116850000Y-91650040D01*
G75*
G02*
X117050000Y-91850040I0J-200000D01*
G01*
X117050000Y-92750040D01*
G75*
G02*
X116850000Y-92950040I-200000J0D01*
G01*
G37*
G36*
G01*
X116850000Y-89650040D02*
X115650000Y-89650040D01*
G75*
G02*
X115450000Y-89450040I0J200000D01*
G01*
X115450000Y-88550040D01*
G75*
G02*
X115650000Y-88350040I200000J0D01*
G01*
X116850000Y-88350040D01*
G75*
G02*
X117050000Y-88550040I0J-200000D01*
G01*
X117050000Y-89450040D01*
G75*
G02*
X116850000Y-89650040I-200000J0D01*
G01*
G37*
G36*
G01*
X135950000Y-92950040D02*
X134750000Y-92950040D01*
G75*
G02*
X134550000Y-92750040I0J200000D01*
G01*
X134550000Y-91850040D01*
G75*
G02*
X134750000Y-91650040I200000J0D01*
G01*
X135950000Y-91650040D01*
G75*
G02*
X136150000Y-91850040I0J-200000D01*
G01*
X136150000Y-92750040D01*
G75*
G02*
X135950000Y-92950040I-200000J0D01*
G01*
G37*
G36*
G01*
X135950000Y-89650040D02*
X134750000Y-89650040D01*
G75*
G02*
X134550000Y-89450040I0J200000D01*
G01*
X134550000Y-88550040D01*
G75*
G02*
X134750000Y-88350040I200000J0D01*
G01*
X135950000Y-88350040D01*
G75*
G02*
X136150000Y-88550040I0J-200000D01*
G01*
X136150000Y-89450040D01*
G75*
G02*
X135950000Y-89650040I-200000J0D01*
G01*
G37*
G36*
G01*
X154950000Y-92950040D02*
X153750000Y-92950040D01*
G75*
G02*
X153550000Y-92750040I0J200000D01*
G01*
X153550000Y-91850040D01*
G75*
G02*
X153750000Y-91650040I200000J0D01*
G01*
X154950000Y-91650040D01*
G75*
G02*
X155150000Y-91850040I0J-200000D01*
G01*
X155150000Y-92750040D01*
G75*
G02*
X154950000Y-92950040I-200000J0D01*
G01*
G37*
G36*
G01*
X154950000Y-89650040D02*
X153750000Y-89650040D01*
G75*
G02*
X153550000Y-89450040I0J200000D01*
G01*
X153550000Y-88550040D01*
G75*
G02*
X153750000Y-88350040I200000J0D01*
G01*
X154950000Y-88350040D01*
G75*
G02*
X155150000Y-88550040I0J-200000D01*
G01*
X155150000Y-89450040D01*
G75*
G02*
X154950000Y-89650040I-200000J0D01*
G01*
G37*
G36*
G01*
X231150000Y-92950040D02*
X229950000Y-92950040D01*
G75*
G02*
X229750000Y-92750040I0J200000D01*
G01*
X229750000Y-91850040D01*
G75*
G02*
X229950000Y-91650040I200000J0D01*
G01*
X231150000Y-91650040D01*
G75*
G02*
X231350000Y-91850040I0J-200000D01*
G01*
X231350000Y-92750040D01*
G75*
G02*
X231150000Y-92950040I-200000J0D01*
G01*
G37*
G36*
G01*
X231150000Y-89650040D02*
X229950000Y-89650040D01*
G75*
G02*
X229750000Y-89450040I0J200000D01*
G01*
X229750000Y-88550040D01*
G75*
G02*
X229950000Y-88350040I200000J0D01*
G01*
X231150000Y-88350040D01*
G75*
G02*
X231350000Y-88550040I0J-200000D01*
G01*
X231350000Y-89450040D01*
G75*
G02*
X231150000Y-89650040I-200000J0D01*
G01*
G37*
G36*
G01*
X250150000Y-92950040D02*
X248950000Y-92950040D01*
G75*
G02*
X248750000Y-92750040I0J200000D01*
G01*
X248750000Y-91850040D01*
G75*
G02*
X248950000Y-91650040I200000J0D01*
G01*
X250150000Y-91650040D01*
G75*
G02*
X250350000Y-91850040I0J-200000D01*
G01*
X250350000Y-92750040D01*
G75*
G02*
X250150000Y-92950040I-200000J0D01*
G01*
G37*
G36*
G01*
X250150000Y-89650040D02*
X248950000Y-89650040D01*
G75*
G02*
X248750000Y-89450040I0J200000D01*
G01*
X248750000Y-88550040D01*
G75*
G02*
X248950000Y-88350040I200000J0D01*
G01*
X250150000Y-88350040D01*
G75*
G02*
X250350000Y-88550040I0J-200000D01*
G01*
X250350000Y-89450040D01*
G75*
G02*
X250150000Y-89650040I-200000J0D01*
G01*
G37*
G36*
G01*
X173950000Y-92950040D02*
X172750000Y-92950040D01*
G75*
G02*
X172550000Y-92750040I0J200000D01*
G01*
X172550000Y-91850040D01*
G75*
G02*
X172750000Y-91650040I200000J0D01*
G01*
X173950000Y-91650040D01*
G75*
G02*
X174150000Y-91850040I0J-200000D01*
G01*
X174150000Y-92750040D01*
G75*
G02*
X173950000Y-92950040I-200000J0D01*
G01*
G37*
G36*
G01*
X173950000Y-89650040D02*
X172750000Y-89650040D01*
G75*
G02*
X172550000Y-89450040I0J200000D01*
G01*
X172550000Y-88550040D01*
G75*
G02*
X172750000Y-88350040I200000J0D01*
G01*
X173950000Y-88350040D01*
G75*
G02*
X174150000Y-88550040I0J-200000D01*
G01*
X174150000Y-89450040D01*
G75*
G02*
X173950000Y-89650040I-200000J0D01*
G01*
G37*
G36*
G01*
X193050000Y-92950040D02*
X191850000Y-92950040D01*
G75*
G02*
X191650000Y-92750040I0J200000D01*
G01*
X191650000Y-91850040D01*
G75*
G02*
X191850000Y-91650040I200000J0D01*
G01*
X193050000Y-91650040D01*
G75*
G02*
X193250000Y-91850040I0J-200000D01*
G01*
X193250000Y-92750040D01*
G75*
G02*
X193050000Y-92950040I-200000J0D01*
G01*
G37*
G36*
G01*
X193050000Y-89650040D02*
X191850000Y-89650040D01*
G75*
G02*
X191650000Y-89450040I0J200000D01*
G01*
X191650000Y-88550040D01*
G75*
G02*
X191850000Y-88350040I200000J0D01*
G01*
X193050000Y-88350040D01*
G75*
G02*
X193250000Y-88550040I0J-200000D01*
G01*
X193250000Y-89450040D01*
G75*
G02*
X193050000Y-89650040I-200000J0D01*
G01*
G37*
G36*
G01*
X212150000Y-92950040D02*
X210950000Y-92950040D01*
G75*
G02*
X210750000Y-92750040I0J200000D01*
G01*
X210750000Y-91850040D01*
G75*
G02*
X210950000Y-91650040I200000J0D01*
G01*
X212150000Y-91650040D01*
G75*
G02*
X212350000Y-91850040I0J-200000D01*
G01*
X212350000Y-92750040D01*
G75*
G02*
X212150000Y-92950040I-200000J0D01*
G01*
G37*
G36*
G01*
X212150000Y-89650040D02*
X210950000Y-89650040D01*
G75*
G02*
X210750000Y-89450040I0J200000D01*
G01*
X210750000Y-88550040D01*
G75*
G02*
X210950000Y-88350040I200000J0D01*
G01*
X212150000Y-88350040D01*
G75*
G02*
X212350000Y-88550040I0J-200000D01*
G01*
X212350000Y-89450040D01*
G75*
G02*
X212150000Y-89650040I-200000J0D01*
G01*
G37*
G36*
G01*
X257450000Y-95750040D02*
X256250000Y-95750040D01*
G75*
G02*
X256050000Y-95550040I0J200000D01*
G01*
X256050000Y-94650040D01*
G75*
G02*
X256250000Y-94450040I200000J0D01*
G01*
X257450000Y-94450040D01*
G75*
G02*
X257650000Y-94650040I0J-200000D01*
G01*
X257650000Y-95550040D01*
G75*
G02*
X257450000Y-95750040I-200000J0D01*
G01*
G37*
G36*
G01*
X257450000Y-92450040D02*
X256250000Y-92450040D01*
G75*
G02*
X256050000Y-92250040I0J200000D01*
G01*
X256050000Y-91350040D01*
G75*
G02*
X256250000Y-91150040I200000J0D01*
G01*
X257450000Y-91150040D01*
G75*
G02*
X257650000Y-91350040I0J-200000D01*
G01*
X257650000Y-92250040D01*
G75*
G02*
X257450000Y-92450040I-200000J0D01*
G01*
G37*
G36*
G01*
X285450000Y-95750040D02*
X284250000Y-95750040D01*
G75*
G02*
X284050000Y-95550040I0J200000D01*
G01*
X284050000Y-94650040D01*
G75*
G02*
X284250000Y-94450040I200000J0D01*
G01*
X285450000Y-94450040D01*
G75*
G02*
X285650000Y-94650040I0J-200000D01*
G01*
X285650000Y-95550040D01*
G75*
G02*
X285450000Y-95750040I-200000J0D01*
G01*
G37*
G36*
G01*
X285450000Y-92450040D02*
X284250000Y-92450040D01*
G75*
G02*
X284050000Y-92250040I0J200000D01*
G01*
X284050000Y-91350040D01*
G75*
G02*
X284250000Y-91150040I200000J0D01*
G01*
X285450000Y-91150040D01*
G75*
G02*
X285650000Y-91350040I0J-200000D01*
G01*
X285650000Y-92250040D01*
G75*
G02*
X285450000Y-92450040I-200000J0D01*
G01*
G37*
G36*
G01*
X41250000Y-105750040D02*
X40050000Y-105750040D01*
G75*
G02*
X39850000Y-105550040I0J200000D01*
G01*
X39850000Y-104650040D01*
G75*
G02*
X40050000Y-104450040I200000J0D01*
G01*
X41250000Y-104450040D01*
G75*
G02*
X41450000Y-104650040I0J-200000D01*
G01*
X41450000Y-105550040D01*
G75*
G02*
X41250000Y-105750040I-200000J0D01*
G01*
G37*
G36*
G01*
X41250000Y-102450040D02*
X40050000Y-102450040D01*
G75*
G02*
X39850000Y-102250040I0J200000D01*
G01*
X39850000Y-101350040D01*
G75*
G02*
X40050000Y-101150040I200000J0D01*
G01*
X41250000Y-101150040D01*
G75*
G02*
X41450000Y-101350040I0J-200000D01*
G01*
X41450000Y-102250040D01*
G75*
G02*
X41250000Y-102450040I-200000J0D01*
G01*
G37*
G36*
G01*
X83050000Y-105750040D02*
X81850000Y-105750040D01*
G75*
G02*
X81650000Y-105550040I0J200000D01*
G01*
X81650000Y-104650040D01*
G75*
G02*
X81850000Y-104450040I200000J0D01*
G01*
X83050000Y-104450040D01*
G75*
G02*
X83250000Y-104650040I0J-200000D01*
G01*
X83250000Y-105550040D01*
G75*
G02*
X83050000Y-105750040I-200000J0D01*
G01*
G37*
G36*
G01*
X83050000Y-102450040D02*
X81850000Y-102450040D01*
G75*
G02*
X81650000Y-102250040I0J200000D01*
G01*
X81650000Y-101350040D01*
G75*
G02*
X81850000Y-101150040I200000J0D01*
G01*
X83050000Y-101150040D01*
G75*
G02*
X83250000Y-101350040I0J-200000D01*
G01*
X83250000Y-102250040D01*
G75*
G02*
X83050000Y-102450040I-200000J0D01*
G01*
G37*
G36*
G01*
X105850000Y-105750040D02*
X104650000Y-105750040D01*
G75*
G02*
X104450000Y-105550040I0J200000D01*
G01*
X104450000Y-104650040D01*
G75*
G02*
X104650000Y-104450040I200000J0D01*
G01*
X105850000Y-104450040D01*
G75*
G02*
X106050000Y-104650040I0J-200000D01*
G01*
X106050000Y-105550040D01*
G75*
G02*
X105850000Y-105750040I-200000J0D01*
G01*
G37*
G36*
G01*
X105850000Y-102450040D02*
X104650000Y-102450040D01*
G75*
G02*
X104450000Y-102250040I0J200000D01*
G01*
X104450000Y-101350040D01*
G75*
G02*
X104650000Y-101150040I200000J0D01*
G01*
X105850000Y-101150040D01*
G75*
G02*
X106050000Y-101350040I0J-200000D01*
G01*
X106050000Y-102250040D01*
G75*
G02*
X105850000Y-102450040I-200000J0D01*
G01*
G37*
G36*
G01*
X117450000Y-106750040D02*
X116250000Y-106750040D01*
G75*
G02*
X116050000Y-106550040I0J200000D01*
G01*
X116050000Y-105650040D01*
G75*
G02*
X116250000Y-105450040I200000J0D01*
G01*
X117450000Y-105450040D01*
G75*
G02*
X117650000Y-105650040I0J-200000D01*
G01*
X117650000Y-106550040D01*
G75*
G02*
X117450000Y-106750040I-200000J0D01*
G01*
G37*
G36*
G01*
X117450000Y-103450040D02*
X116250000Y-103450040D01*
G75*
G02*
X116050000Y-103250040I0J200000D01*
G01*
X116050000Y-102350040D01*
G75*
G02*
X116250000Y-102150040I200000J0D01*
G01*
X117450000Y-102150040D01*
G75*
G02*
X117650000Y-102350040I0J-200000D01*
G01*
X117650000Y-103250040D01*
G75*
G02*
X117450000Y-103450040I-200000J0D01*
G01*
G37*
G36*
G01*
X230250000Y-105750040D02*
X229050000Y-105750040D01*
G75*
G02*
X228850000Y-105550040I0J200000D01*
G01*
X228850000Y-104650040D01*
G75*
G02*
X229050000Y-104450040I200000J0D01*
G01*
X230250000Y-104450040D01*
G75*
G02*
X230450000Y-104650040I0J-200000D01*
G01*
X230450000Y-105550040D01*
G75*
G02*
X230250000Y-105750040I-200000J0D01*
G01*
G37*
G36*
G01*
X230250000Y-102450040D02*
X229050000Y-102450040D01*
G75*
G02*
X228850000Y-102250040I0J200000D01*
G01*
X228850000Y-101350040D01*
G75*
G02*
X229050000Y-101150040I200000J0D01*
G01*
X230250000Y-101150040D01*
G75*
G02*
X230450000Y-101350040I0J-200000D01*
G01*
X230450000Y-102250040D01*
G75*
G02*
X230250000Y-102450040I-200000J0D01*
G01*
G37*
G36*
G01*
X269850000Y-105750040D02*
X268650000Y-105750040D01*
G75*
G02*
X268450000Y-105550040I0J200000D01*
G01*
X268450000Y-104650040D01*
G75*
G02*
X268650000Y-104450040I200000J0D01*
G01*
X269850000Y-104450040D01*
G75*
G02*
X270050000Y-104650040I0J-200000D01*
G01*
X270050000Y-105550040D01*
G75*
G02*
X269850000Y-105750040I-200000J0D01*
G01*
G37*
G36*
G01*
X269850000Y-102450040D02*
X268650000Y-102450040D01*
G75*
G02*
X268450000Y-102250040I0J200000D01*
G01*
X268450000Y-101350040D01*
G75*
G02*
X268650000Y-101150040I200000J0D01*
G01*
X269850000Y-101150040D01*
G75*
G02*
X270050000Y-101350040I0J-200000D01*
G01*
X270050000Y-102250040D01*
G75*
G02*
X269850000Y-102450040I-200000J0D01*
G01*
G37*
G36*
G01*
X288850000Y-102450040D02*
X287650000Y-102450040D01*
G75*
G02*
X287450000Y-102250040I0J200000D01*
G01*
X287450000Y-101350040D01*
G75*
G02*
X287650000Y-101150040I200000J0D01*
G01*
X288850000Y-101150040D01*
G75*
G02*
X289050000Y-101350040I0J-200000D01*
G01*
X289050000Y-102250040D01*
G75*
G02*
X288850000Y-102450040I-200000J0D01*
G01*
G37*
G36*
G01*
X288850000Y-105750040D02*
X287650000Y-105750040D01*
G75*
G02*
X287450000Y-105550040I0J200000D01*
G01*
X287450000Y-104650040D01*
G75*
G02*
X287650000Y-104450040I200000J0D01*
G01*
X288850000Y-104450040D01*
G75*
G02*
X289050000Y-104650040I0J-200000D01*
G01*
X289050000Y-105550040D01*
G75*
G02*
X288850000Y-105750040I-200000J0D01*
G01*
G37*
G36*
G01*
X57604825Y-29450040D02*
X56095175Y-29450040D01*
G75*
G02*
X55775000Y-29129865I0J320175D01*
G01*
X55775000Y-27945215D01*
G75*
G02*
X56095175Y-27625040I320175J0D01*
G01*
X57604825Y-27625040D01*
G75*
G02*
X57925000Y-27945215I0J-320175D01*
G01*
X57925000Y-29129865D01*
G75*
G02*
X57604825Y-29450040I-320175J0D01*
G01*
G37*
G36*
G01*
X57604825Y-26475040D02*
X56095175Y-26475040D01*
G75*
G02*
X55775000Y-26154865I0J320175D01*
G01*
X55775000Y-24970215D01*
G75*
G02*
X56095175Y-24650040I320175J0D01*
G01*
X57604825Y-24650040D01*
G75*
G02*
X57925000Y-24970215I0J-320175D01*
G01*
X57925000Y-26154865D01*
G75*
G02*
X57604825Y-26475040I-320175J0D01*
G01*
G37*
G36*
G01*
X49743860Y-73065870D02*
X50843860Y-73065870D01*
G75*
G02*
X51043860Y-73265870I0J-200000D01*
G01*
X51043860Y-75065870D01*
G75*
G02*
X50843860Y-75265870I-200000J0D01*
G01*
X49743860Y-75265870D01*
G75*
G02*
X49543860Y-75065870I0J200000D01*
G01*
X49543860Y-73265870D01*
G75*
G02*
X49743860Y-73065870I200000J0D01*
G01*
G37*
G36*
G01*
X46043860Y-66865870D02*
X47143860Y-66865870D01*
G75*
G02*
X47343860Y-67065870I0J-200000D01*
G01*
X47343860Y-68865870D01*
G75*
G02*
X47143860Y-69065870I-200000J0D01*
G01*
X46043860Y-69065870D01*
G75*
G02*
X45843860Y-68865870I0J200000D01*
G01*
X45843860Y-67065870D01*
G75*
G02*
X46043860Y-66865870I200000J0D01*
G01*
G37*
G36*
G01*
X46043860Y-73065870D02*
X47143860Y-73065870D01*
G75*
G02*
X47343860Y-73265870I0J-200000D01*
G01*
X47343860Y-75065870D01*
G75*
G02*
X47143860Y-75265870I-200000J0D01*
G01*
X46043860Y-75265870D01*
G75*
G02*
X45843860Y-75065870I0J200000D01*
G01*
X45843860Y-73265870D01*
G75*
G02*
X46043860Y-73065870I200000J0D01*
G01*
G37*
G36*
G01*
X49743860Y-66865870D02*
X50843860Y-66865870D01*
G75*
G02*
X51043860Y-67065870I0J-200000D01*
G01*
X51043860Y-68865870D01*
G75*
G02*
X50843860Y-69065870I-200000J0D01*
G01*
X49743860Y-69065870D01*
G75*
G02*
X49543860Y-68865870I0J200000D01*
G01*
X49543860Y-67065870D01*
G75*
G02*
X49743860Y-66865870I200000J0D01*
G01*
G37*
G36*
G01*
X250650000Y-105550040D02*
X249450000Y-105550040D01*
G75*
G02*
X249250000Y-105350040I0J200000D01*
G01*
X249250000Y-104450040D01*
G75*
G02*
X249450000Y-104250040I200000J0D01*
G01*
X250650000Y-104250040D01*
G75*
G02*
X250850000Y-104450040I0J-200000D01*
G01*
X250850000Y-105350040D01*
G75*
G02*
X250650000Y-105550040I-200000J0D01*
G01*
G37*
G36*
G01*
X250650000Y-102250040D02*
X249450000Y-102250040D01*
G75*
G02*
X249250000Y-102050040I0J200000D01*
G01*
X249250000Y-101150040D01*
G75*
G02*
X249450000Y-100950040I200000J0D01*
G01*
X250650000Y-100950040D01*
G75*
G02*
X250850000Y-101150040I0J-200000D01*
G01*
X250850000Y-102050040D01*
G75*
G02*
X250650000Y-102250040I-200000J0D01*
G01*
G37*
G36*
G01*
X250650000Y-108850040D02*
X249450000Y-108850040D01*
G75*
G02*
X249250000Y-108650040I0J200000D01*
G01*
X249250000Y-107750040D01*
G75*
G02*
X249450000Y-107550040I200000J0D01*
G01*
X250650000Y-107550040D01*
G75*
G02*
X250850000Y-107750040I0J-200000D01*
G01*
X250850000Y-108650040D01*
G75*
G02*
X250650000Y-108850040I-200000J0D01*
G01*
G37*
G36*
G01*
X250650000Y-112150040D02*
X249450000Y-112150040D01*
G75*
G02*
X249250000Y-111950040I0J200000D01*
G01*
X249250000Y-111050040D01*
G75*
G02*
X249450000Y-110850040I200000J0D01*
G01*
X250650000Y-110850040D01*
G75*
G02*
X250850000Y-111050040I0J-200000D01*
G01*
X250850000Y-111950040D01*
G75*
G02*
X250650000Y-112150040I-200000J0D01*
G01*
G37*
G36*
G01*
X27408000Y-35605040D02*
X27408000Y-38105040D01*
G75*
G02*
X27208000Y-38305040I-200000J0D01*
G01*
X24658000Y-38305040D01*
G75*
G02*
X24458000Y-38105040I0J200000D01*
G01*
X24458000Y-35605040D01*
G75*
G02*
X24658000Y-35405040I200000J0D01*
G01*
X27208000Y-35405040D01*
G75*
G02*
X27408000Y-35605040I0J-200000D01*
G01*
G37*
G36*
G01*
X40335000Y-33065040D02*
X40335000Y-35565040D01*
G75*
G02*
X40135000Y-35765040I-200000J0D01*
G01*
X37585000Y-35765040D01*
G75*
G02*
X37385000Y-35565040I0J200000D01*
G01*
X37385000Y-33065040D01*
G75*
G02*
X37585000Y-32865040I200000J0D01*
G01*
X40135000Y-32865040D01*
G75*
G02*
X40335000Y-33065040I0J-200000D01*
G01*
G37*
D17*
X26695000Y-31775040D03*
X36855000Y-31775040D03*
D15*
X35585000Y-34315040D03*
D16*
X31775000Y-31775040D03*
D15*
X29235000Y-36855040D03*
X72415000Y-83845280D03*
D16*
X69875000Y-88925280D03*
D15*
X66065000Y-86385280D03*
D17*
X64795000Y-88925280D03*
X74955000Y-88925280D03*
G36*
G01*
X61315000Y-87635280D02*
X61315000Y-85135280D01*
G75*
G02*
X61515000Y-84935280I200000J0D01*
G01*
X64065000Y-84935280D01*
G75*
G02*
X64265000Y-85135280I0J-200000D01*
G01*
X64265000Y-87635280D01*
G75*
G02*
X64065000Y-87835280I-200000J0D01*
G01*
X61515000Y-87835280D01*
G75*
G02*
X61315000Y-87635280I0J200000D01*
G01*
G37*
G36*
G01*
X74242000Y-85095280D02*
X74242000Y-82595280D01*
G75*
G02*
X74442000Y-82395280I200000J0D01*
G01*
X76992000Y-82395280D01*
G75*
G02*
X77192000Y-82595280I0J-200000D01*
G01*
X77192000Y-85095280D01*
G75*
G02*
X76992000Y-85295280I-200000J0D01*
G01*
X74442000Y-85295280D01*
G75*
G02*
X74242000Y-85095280I0J200000D01*
G01*
G37*
D15*
X72415000Y-26695040D03*
D16*
X69875000Y-31775040D03*
D15*
X66065000Y-29235040D03*
D17*
X64795000Y-31775040D03*
X74955000Y-31775040D03*
G36*
G01*
X61315000Y-30485040D02*
X61315000Y-27985040D01*
G75*
G02*
X61515000Y-27785040I200000J0D01*
G01*
X64065000Y-27785040D01*
G75*
G02*
X64265000Y-27985040I0J-200000D01*
G01*
X64265000Y-30485040D01*
G75*
G02*
X64065000Y-30685040I-200000J0D01*
G01*
X61515000Y-30685040D01*
G75*
G02*
X61315000Y-30485040I0J200000D01*
G01*
G37*
G36*
G01*
X74242000Y-27945040D02*
X74242000Y-25445040D01*
G75*
G02*
X74442000Y-25245040I200000J0D01*
G01*
X76992000Y-25245040D01*
G75*
G02*
X77192000Y-25445040I0J-200000D01*
G01*
X77192000Y-27945040D01*
G75*
G02*
X76992000Y-28145040I-200000J0D01*
G01*
X74442000Y-28145040D01*
G75*
G02*
X74242000Y-27945040I0J200000D01*
G01*
G37*
G36*
G01*
X83767000Y-46995120D02*
X83767000Y-44495120D01*
G75*
G02*
X83967000Y-44295120I200000J0D01*
G01*
X86517000Y-44295120D01*
G75*
G02*
X86717000Y-44495120I0J-200000D01*
G01*
X86717000Y-46995120D01*
G75*
G02*
X86517000Y-47195120I-200000J0D01*
G01*
X83967000Y-47195120D01*
G75*
G02*
X83767000Y-46995120I0J200000D01*
G01*
G37*
G36*
G01*
X70840000Y-49535120D02*
X70840000Y-47035120D01*
G75*
G02*
X71040000Y-46835120I200000J0D01*
G01*
X73590000Y-46835120D01*
G75*
G02*
X73790000Y-47035120I0J-200000D01*
G01*
X73790000Y-49535120D01*
G75*
G02*
X73590000Y-49735120I-200000J0D01*
G01*
X71040000Y-49735120D01*
G75*
G02*
X70840000Y-49535120I0J200000D01*
G01*
G37*
X84480000Y-50825120D03*
X74320000Y-50825120D03*
D15*
X75590000Y-48285120D03*
D16*
X79400000Y-50825120D03*
D15*
X81940000Y-45745120D03*
X81940000Y-64795200D03*
D16*
X79400000Y-69875200D03*
D15*
X75590000Y-67335200D03*
D17*
X74320000Y-69875200D03*
X84480000Y-69875200D03*
G36*
G01*
X70840000Y-68585200D02*
X70840000Y-66085200D01*
G75*
G02*
X71040000Y-65885200I200000J0D01*
G01*
X73590000Y-65885200D01*
G75*
G02*
X73790000Y-66085200I0J-200000D01*
G01*
X73790000Y-68585200D01*
G75*
G02*
X73590000Y-68785200I-200000J0D01*
G01*
X71040000Y-68785200D01*
G75*
G02*
X70840000Y-68585200I0J200000D01*
G01*
G37*
G36*
G01*
X83767000Y-66045200D02*
X83767000Y-63545200D01*
G75*
G02*
X83967000Y-63345200I200000J0D01*
G01*
X86517000Y-63345200D01*
G75*
G02*
X86717000Y-63545200I0J-200000D01*
G01*
X86717000Y-66045200D01*
G75*
G02*
X86517000Y-66245200I-200000J0D01*
G01*
X83967000Y-66245200D01*
G75*
G02*
X83767000Y-66045200I0J200000D01*
G01*
G37*
D15*
X91465000Y-83845280D03*
D16*
X88925000Y-88925280D03*
D15*
X85115000Y-86385280D03*
D17*
X83845000Y-88925280D03*
X94005000Y-88925280D03*
G36*
G01*
X80365000Y-87635280D02*
X80365000Y-85135280D01*
G75*
G02*
X80565000Y-84935280I200000J0D01*
G01*
X83115000Y-84935280D01*
G75*
G02*
X83315000Y-85135280I0J-200000D01*
G01*
X83315000Y-87635280D01*
G75*
G02*
X83115000Y-87835280I-200000J0D01*
G01*
X80565000Y-87835280D01*
G75*
G02*
X80365000Y-87635280I0J200000D01*
G01*
G37*
G36*
G01*
X93292000Y-85095280D02*
X93292000Y-82595280D01*
G75*
G02*
X93492000Y-82395280I200000J0D01*
G01*
X96042000Y-82395280D01*
G75*
G02*
X96242000Y-82595280I0J-200000D01*
G01*
X96242000Y-85095280D01*
G75*
G02*
X96042000Y-85295280I-200000J0D01*
G01*
X93492000Y-85295280D01*
G75*
G02*
X93292000Y-85095280I0J200000D01*
G01*
G37*
D15*
X91465000Y-26695040D03*
D16*
X88925000Y-31775040D03*
D15*
X85115000Y-29235040D03*
D17*
X83845000Y-31775040D03*
X94005000Y-31775040D03*
G36*
G01*
X80365000Y-30485040D02*
X80365000Y-27985040D01*
G75*
G02*
X80565000Y-27785040I200000J0D01*
G01*
X83115000Y-27785040D01*
G75*
G02*
X83315000Y-27985040I0J-200000D01*
G01*
X83315000Y-30485040D01*
G75*
G02*
X83115000Y-30685040I-200000J0D01*
G01*
X80565000Y-30685040D01*
G75*
G02*
X80365000Y-30485040I0J200000D01*
G01*
G37*
G36*
G01*
X93292000Y-27945040D02*
X93292000Y-25445040D01*
G75*
G02*
X93492000Y-25245040I200000J0D01*
G01*
X96042000Y-25245040D01*
G75*
G02*
X96242000Y-25445040I0J-200000D01*
G01*
X96242000Y-27945040D01*
G75*
G02*
X96042000Y-28145040I-200000J0D01*
G01*
X93492000Y-28145040D01*
G75*
G02*
X93292000Y-27945040I0J200000D01*
G01*
G37*
G36*
G01*
X102817000Y-46995120D02*
X102817000Y-44495120D01*
G75*
G02*
X103017000Y-44295120I200000J0D01*
G01*
X105567000Y-44295120D01*
G75*
G02*
X105767000Y-44495120I0J-200000D01*
G01*
X105767000Y-46995120D01*
G75*
G02*
X105567000Y-47195120I-200000J0D01*
G01*
X103017000Y-47195120D01*
G75*
G02*
X102817000Y-46995120I0J200000D01*
G01*
G37*
G36*
G01*
X89890000Y-49535120D02*
X89890000Y-47035120D01*
G75*
G02*
X90090000Y-46835120I200000J0D01*
G01*
X92640000Y-46835120D01*
G75*
G02*
X92840000Y-47035120I0J-200000D01*
G01*
X92840000Y-49535120D01*
G75*
G02*
X92640000Y-49735120I-200000J0D01*
G01*
X90090000Y-49735120D01*
G75*
G02*
X89890000Y-49535120I0J200000D01*
G01*
G37*
X103530000Y-50825120D03*
X93370000Y-50825120D03*
D15*
X94640000Y-48285120D03*
D16*
X98450000Y-50825120D03*
D15*
X100990000Y-45745120D03*
X100990000Y-64795200D03*
D16*
X98450000Y-69875200D03*
D15*
X94640000Y-67335200D03*
D17*
X93370000Y-69875200D03*
X103530000Y-69875200D03*
G36*
G01*
X89890000Y-68585200D02*
X89890000Y-66085200D01*
G75*
G02*
X90090000Y-65885200I200000J0D01*
G01*
X92640000Y-65885200D01*
G75*
G02*
X92840000Y-66085200I0J-200000D01*
G01*
X92840000Y-68585200D01*
G75*
G02*
X92640000Y-68785200I-200000J0D01*
G01*
X90090000Y-68785200D01*
G75*
G02*
X89890000Y-68585200I0J200000D01*
G01*
G37*
G36*
G01*
X102817000Y-66045200D02*
X102817000Y-63545200D01*
G75*
G02*
X103017000Y-63345200I200000J0D01*
G01*
X105567000Y-63345200D01*
G75*
G02*
X105767000Y-63545200I0J-200000D01*
G01*
X105767000Y-66045200D01*
G75*
G02*
X105567000Y-66245200I-200000J0D01*
G01*
X103017000Y-66245200D01*
G75*
G02*
X102817000Y-66045200I0J200000D01*
G01*
G37*
D15*
X110515000Y-83845280D03*
D16*
X107975000Y-88925280D03*
D15*
X104165000Y-86385280D03*
D17*
X102895000Y-88925280D03*
X113055000Y-88925280D03*
G36*
G01*
X99415000Y-87635280D02*
X99415000Y-85135280D01*
G75*
G02*
X99615000Y-84935280I200000J0D01*
G01*
X102165000Y-84935280D01*
G75*
G02*
X102365000Y-85135280I0J-200000D01*
G01*
X102365000Y-87635280D01*
G75*
G02*
X102165000Y-87835280I-200000J0D01*
G01*
X99615000Y-87835280D01*
G75*
G02*
X99415000Y-87635280I0J200000D01*
G01*
G37*
G36*
G01*
X112342000Y-85095280D02*
X112342000Y-82595280D01*
G75*
G02*
X112542000Y-82395280I200000J0D01*
G01*
X115092000Y-82395280D01*
G75*
G02*
X115292000Y-82595280I0J-200000D01*
G01*
X115292000Y-85095280D01*
G75*
G02*
X115092000Y-85295280I-200000J0D01*
G01*
X112542000Y-85295280D01*
G75*
G02*
X112342000Y-85095280I0J200000D01*
G01*
G37*
D15*
X110515000Y-26695040D03*
D16*
X107975000Y-31775040D03*
D15*
X104165000Y-29235040D03*
D17*
X102895000Y-31775040D03*
X113055000Y-31775040D03*
G36*
G01*
X99415000Y-30485040D02*
X99415000Y-27985040D01*
G75*
G02*
X99615000Y-27785040I200000J0D01*
G01*
X102165000Y-27785040D01*
G75*
G02*
X102365000Y-27985040I0J-200000D01*
G01*
X102365000Y-30485040D01*
G75*
G02*
X102165000Y-30685040I-200000J0D01*
G01*
X99615000Y-30685040D01*
G75*
G02*
X99415000Y-30485040I0J200000D01*
G01*
G37*
G36*
G01*
X112342000Y-27945040D02*
X112342000Y-25445040D01*
G75*
G02*
X112542000Y-25245040I200000J0D01*
G01*
X115092000Y-25245040D01*
G75*
G02*
X115292000Y-25445040I0J-200000D01*
G01*
X115292000Y-27945040D01*
G75*
G02*
X115092000Y-28145040I-200000J0D01*
G01*
X112542000Y-28145040D01*
G75*
G02*
X112342000Y-27945040I0J200000D01*
G01*
G37*
G36*
G01*
X121867000Y-46995120D02*
X121867000Y-44495120D01*
G75*
G02*
X122067000Y-44295120I200000J0D01*
G01*
X124617000Y-44295120D01*
G75*
G02*
X124817000Y-44495120I0J-200000D01*
G01*
X124817000Y-46995120D01*
G75*
G02*
X124617000Y-47195120I-200000J0D01*
G01*
X122067000Y-47195120D01*
G75*
G02*
X121867000Y-46995120I0J200000D01*
G01*
G37*
G36*
G01*
X108940000Y-49535120D02*
X108940000Y-47035120D01*
G75*
G02*
X109140000Y-46835120I200000J0D01*
G01*
X111690000Y-46835120D01*
G75*
G02*
X111890000Y-47035120I0J-200000D01*
G01*
X111890000Y-49535120D01*
G75*
G02*
X111690000Y-49735120I-200000J0D01*
G01*
X109140000Y-49735120D01*
G75*
G02*
X108940000Y-49535120I0J200000D01*
G01*
G37*
X122580000Y-50825120D03*
X112420000Y-50825120D03*
D15*
X113690000Y-48285120D03*
D16*
X117500000Y-50825120D03*
D15*
X120040000Y-45745120D03*
X129565000Y-83845280D03*
D16*
X127025000Y-88925280D03*
D15*
X123215000Y-86385280D03*
D17*
X121945000Y-88925280D03*
X132105000Y-88925280D03*
G36*
G01*
X118465000Y-87635280D02*
X118465000Y-85135280D01*
G75*
G02*
X118665000Y-84935280I200000J0D01*
G01*
X121215000Y-84935280D01*
G75*
G02*
X121415000Y-85135280I0J-200000D01*
G01*
X121415000Y-87635280D01*
G75*
G02*
X121215000Y-87835280I-200000J0D01*
G01*
X118665000Y-87835280D01*
G75*
G02*
X118465000Y-87635280I0J200000D01*
G01*
G37*
G36*
G01*
X131392000Y-85095280D02*
X131392000Y-82595280D01*
G75*
G02*
X131592000Y-82395280I200000J0D01*
G01*
X134142000Y-82395280D01*
G75*
G02*
X134342000Y-82595280I0J-200000D01*
G01*
X134342000Y-85095280D01*
G75*
G02*
X134142000Y-85295280I-200000J0D01*
G01*
X131592000Y-85295280D01*
G75*
G02*
X131392000Y-85095280I0J200000D01*
G01*
G37*
D15*
X129565000Y-26695040D03*
D16*
X127025000Y-31775040D03*
D15*
X123215000Y-29235040D03*
D17*
X121945000Y-31775040D03*
X132105000Y-31775040D03*
G36*
G01*
X118465000Y-30485040D02*
X118465000Y-27985040D01*
G75*
G02*
X118665000Y-27785040I200000J0D01*
G01*
X121215000Y-27785040D01*
G75*
G02*
X121415000Y-27985040I0J-200000D01*
G01*
X121415000Y-30485040D01*
G75*
G02*
X121215000Y-30685040I-200000J0D01*
G01*
X118665000Y-30685040D01*
G75*
G02*
X118465000Y-30485040I0J200000D01*
G01*
G37*
G36*
G01*
X131392000Y-27945040D02*
X131392000Y-25445040D01*
G75*
G02*
X131592000Y-25245040I200000J0D01*
G01*
X134142000Y-25245040D01*
G75*
G02*
X134342000Y-25445040I0J-200000D01*
G01*
X134342000Y-27945040D01*
G75*
G02*
X134142000Y-28145040I-200000J0D01*
G01*
X131592000Y-28145040D01*
G75*
G02*
X131392000Y-27945040I0J200000D01*
G01*
G37*
G36*
G01*
X140917000Y-46995120D02*
X140917000Y-44495120D01*
G75*
G02*
X141117000Y-44295120I200000J0D01*
G01*
X143667000Y-44295120D01*
G75*
G02*
X143867000Y-44495120I0J-200000D01*
G01*
X143867000Y-46995120D01*
G75*
G02*
X143667000Y-47195120I-200000J0D01*
G01*
X141117000Y-47195120D01*
G75*
G02*
X140917000Y-46995120I0J200000D01*
G01*
G37*
G36*
G01*
X127990000Y-49535120D02*
X127990000Y-47035120D01*
G75*
G02*
X128190000Y-46835120I200000J0D01*
G01*
X130740000Y-46835120D01*
G75*
G02*
X130940000Y-47035120I0J-200000D01*
G01*
X130940000Y-49535120D01*
G75*
G02*
X130740000Y-49735120I-200000J0D01*
G01*
X128190000Y-49735120D01*
G75*
G02*
X127990000Y-49535120I0J200000D01*
G01*
G37*
X141630000Y-50825120D03*
X131470000Y-50825120D03*
D15*
X132740000Y-48285120D03*
D16*
X136550000Y-50825120D03*
D15*
X139090000Y-45745120D03*
X148615000Y-83845280D03*
D16*
X146075000Y-88925280D03*
D15*
X142265000Y-86385280D03*
D17*
X140995000Y-88925280D03*
X151155000Y-88925280D03*
G36*
G01*
X137515000Y-87635280D02*
X137515000Y-85135280D01*
G75*
G02*
X137715000Y-84935280I200000J0D01*
G01*
X140265000Y-84935280D01*
G75*
G02*
X140465000Y-85135280I0J-200000D01*
G01*
X140465000Y-87635280D01*
G75*
G02*
X140265000Y-87835280I-200000J0D01*
G01*
X137715000Y-87835280D01*
G75*
G02*
X137515000Y-87635280I0J200000D01*
G01*
G37*
G36*
G01*
X150442000Y-85095280D02*
X150442000Y-82595280D01*
G75*
G02*
X150642000Y-82395280I200000J0D01*
G01*
X153192000Y-82395280D01*
G75*
G02*
X153392000Y-82595280I0J-200000D01*
G01*
X153392000Y-85095280D01*
G75*
G02*
X153192000Y-85295280I-200000J0D01*
G01*
X150642000Y-85295280D01*
G75*
G02*
X150442000Y-85095280I0J200000D01*
G01*
G37*
G36*
G01*
X150442000Y-27945040D02*
X150442000Y-25445040D01*
G75*
G02*
X150642000Y-25245040I200000J0D01*
G01*
X153192000Y-25245040D01*
G75*
G02*
X153392000Y-25445040I0J-200000D01*
G01*
X153392000Y-27945040D01*
G75*
G02*
X153192000Y-28145040I-200000J0D01*
G01*
X150642000Y-28145040D01*
G75*
G02*
X150442000Y-27945040I0J200000D01*
G01*
G37*
G36*
G01*
X137515000Y-30485040D02*
X137515000Y-27985040D01*
G75*
G02*
X137715000Y-27785040I200000J0D01*
G01*
X140265000Y-27785040D01*
G75*
G02*
X140465000Y-27985040I0J-200000D01*
G01*
X140465000Y-30485040D01*
G75*
G02*
X140265000Y-30685040I-200000J0D01*
G01*
X137715000Y-30685040D01*
G75*
G02*
X137515000Y-30485040I0J200000D01*
G01*
G37*
X151155000Y-31775040D03*
X140995000Y-31775040D03*
D15*
X142265000Y-29235040D03*
D16*
X146075000Y-31775040D03*
D15*
X148615000Y-26695040D03*
G36*
G01*
X217117800Y-46995160D02*
X217117800Y-44495160D01*
G75*
G02*
X217317800Y-44295160I200000J0D01*
G01*
X219867800Y-44295160D01*
G75*
G02*
X220067800Y-44495160I0J-200000D01*
G01*
X220067800Y-46995160D01*
G75*
G02*
X219867800Y-47195160I-200000J0D01*
G01*
X217317800Y-47195160D01*
G75*
G02*
X217117800Y-46995160I0J200000D01*
G01*
G37*
G36*
G01*
X204190800Y-49535160D02*
X204190800Y-47035160D01*
G75*
G02*
X204390800Y-46835160I200000J0D01*
G01*
X206940800Y-46835160D01*
G75*
G02*
X207140800Y-47035160I0J-200000D01*
G01*
X207140800Y-49535160D01*
G75*
G02*
X206940800Y-49735160I-200000J0D01*
G01*
X204390800Y-49735160D01*
G75*
G02*
X204190800Y-49535160I0J200000D01*
G01*
G37*
D17*
X217830800Y-50825160D03*
X207670800Y-50825160D03*
D15*
X208940800Y-48285160D03*
D16*
X212750800Y-50825160D03*
D15*
X215290800Y-45745160D03*
X215290800Y-64795240D03*
D16*
X212750800Y-69875240D03*
D15*
X208940800Y-67335240D03*
D17*
X207670800Y-69875240D03*
X217830800Y-69875240D03*
G36*
G01*
X204190800Y-68585240D02*
X204190800Y-66085240D01*
G75*
G02*
X204390800Y-65885240I200000J0D01*
G01*
X206940800Y-65885240D01*
G75*
G02*
X207140800Y-66085240I0J-200000D01*
G01*
X207140800Y-68585240D01*
G75*
G02*
X206940800Y-68785240I-200000J0D01*
G01*
X204390800Y-68785240D01*
G75*
G02*
X204190800Y-68585240I0J200000D01*
G01*
G37*
G36*
G01*
X217117800Y-66045240D02*
X217117800Y-63545240D01*
G75*
G02*
X217317800Y-63345240I200000J0D01*
G01*
X219867800Y-63345240D01*
G75*
G02*
X220067800Y-63545240I0J-200000D01*
G01*
X220067800Y-66045240D01*
G75*
G02*
X219867800Y-66245240I-200000J0D01*
G01*
X217317800Y-66245240D01*
G75*
G02*
X217117800Y-66045240I0J200000D01*
G01*
G37*
D15*
X224815840Y-83845320D03*
D16*
X222275840Y-88925320D03*
D15*
X218465840Y-86385320D03*
D17*
X217195840Y-88925320D03*
X227355840Y-88925320D03*
G36*
G01*
X213715840Y-87635320D02*
X213715840Y-85135320D01*
G75*
G02*
X213915840Y-84935320I200000J0D01*
G01*
X216465840Y-84935320D01*
G75*
G02*
X216665840Y-85135320I0J-200000D01*
G01*
X216665840Y-87635320D01*
G75*
G02*
X216465840Y-87835320I-200000J0D01*
G01*
X213915840Y-87835320D01*
G75*
G02*
X213715840Y-87635320I0J200000D01*
G01*
G37*
G36*
G01*
X226642840Y-85095320D02*
X226642840Y-82595320D01*
G75*
G02*
X226842840Y-82395320I200000J0D01*
G01*
X229392840Y-82395320D01*
G75*
G02*
X229592840Y-82595320I0J-200000D01*
G01*
X229592840Y-85095320D01*
G75*
G02*
X229392840Y-85295320I-200000J0D01*
G01*
X226842840Y-85295320D01*
G75*
G02*
X226642840Y-85095320I0J200000D01*
G01*
G37*
G36*
G01*
X236167880Y-46995160D02*
X236167880Y-44495160D01*
G75*
G02*
X236367880Y-44295160I200000J0D01*
G01*
X238917880Y-44295160D01*
G75*
G02*
X239117880Y-44495160I0J-200000D01*
G01*
X239117880Y-46995160D01*
G75*
G02*
X238917880Y-47195160I-200000J0D01*
G01*
X236367880Y-47195160D01*
G75*
G02*
X236167880Y-46995160I0J200000D01*
G01*
G37*
G36*
G01*
X223240880Y-49535160D02*
X223240880Y-47035160D01*
G75*
G02*
X223440880Y-46835160I200000J0D01*
G01*
X225990880Y-46835160D01*
G75*
G02*
X226190880Y-47035160I0J-200000D01*
G01*
X226190880Y-49535160D01*
G75*
G02*
X225990880Y-49735160I-200000J0D01*
G01*
X223440880Y-49735160D01*
G75*
G02*
X223240880Y-49535160I0J200000D01*
G01*
G37*
X236880880Y-50825160D03*
X226720880Y-50825160D03*
D15*
X227990880Y-48285160D03*
D16*
X231800880Y-50825160D03*
D15*
X234340880Y-45745160D03*
G36*
G01*
X236167880Y-66045240D02*
X236167880Y-63545240D01*
G75*
G02*
X236367880Y-63345240I200000J0D01*
G01*
X238917880Y-63345240D01*
G75*
G02*
X239117880Y-63545240I0J-200000D01*
G01*
X239117880Y-66045240D01*
G75*
G02*
X238917880Y-66245240I-200000J0D01*
G01*
X236367880Y-66245240D01*
G75*
G02*
X236167880Y-66045240I0J200000D01*
G01*
G37*
G36*
G01*
X223240880Y-68585240D02*
X223240880Y-66085240D01*
G75*
G02*
X223440880Y-65885240I200000J0D01*
G01*
X225990880Y-65885240D01*
G75*
G02*
X226190880Y-66085240I0J-200000D01*
G01*
X226190880Y-68585240D01*
G75*
G02*
X225990880Y-68785240I-200000J0D01*
G01*
X223440880Y-68785240D01*
G75*
G02*
X223240880Y-68585240I0J200000D01*
G01*
G37*
D17*
X236880880Y-69875240D03*
X226720880Y-69875240D03*
D15*
X227990880Y-67335240D03*
D16*
X231800880Y-69875240D03*
D15*
X234340880Y-64795240D03*
X243865920Y-83845320D03*
D16*
X241325920Y-88925320D03*
D15*
X237515920Y-86385320D03*
D17*
X236245920Y-88925320D03*
X246405920Y-88925320D03*
G36*
G01*
X232765920Y-87635320D02*
X232765920Y-85135320D01*
G75*
G02*
X232965920Y-84935320I200000J0D01*
G01*
X235515920Y-84935320D01*
G75*
G02*
X235715920Y-85135320I0J-200000D01*
G01*
X235715920Y-87635320D01*
G75*
G02*
X235515920Y-87835320I-200000J0D01*
G01*
X232965920Y-87835320D01*
G75*
G02*
X232765920Y-87635320I0J200000D01*
G01*
G37*
G36*
G01*
X245692920Y-85095320D02*
X245692920Y-82595320D01*
G75*
G02*
X245892920Y-82395320I200000J0D01*
G01*
X248442920Y-82395320D01*
G75*
G02*
X248642920Y-82595320I0J-200000D01*
G01*
X248642920Y-85095320D01*
G75*
G02*
X248442920Y-85295320I-200000J0D01*
G01*
X245892920Y-85295320D01*
G75*
G02*
X245692920Y-85095320I0J200000D01*
G01*
G37*
G36*
G01*
X302843160Y-27945080D02*
X302843160Y-25445080D01*
G75*
G02*
X303043160Y-25245080I200000J0D01*
G01*
X305593160Y-25245080D01*
G75*
G02*
X305793160Y-25445080I0J-200000D01*
G01*
X305793160Y-27945080D01*
G75*
G02*
X305593160Y-28145080I-200000J0D01*
G01*
X303043160Y-28145080D01*
G75*
G02*
X302843160Y-27945080I0J200000D01*
G01*
G37*
G36*
G01*
X289916160Y-30485080D02*
X289916160Y-27985080D01*
G75*
G02*
X290116160Y-27785080I200000J0D01*
G01*
X292666160Y-27785080D01*
G75*
G02*
X292866160Y-27985080I0J-200000D01*
G01*
X292866160Y-30485080D01*
G75*
G02*
X292666160Y-30685080I-200000J0D01*
G01*
X290116160Y-30685080D01*
G75*
G02*
X289916160Y-30485080I0J200000D01*
G01*
G37*
X303556160Y-31775080D03*
X293396160Y-31775080D03*
D15*
X294666160Y-29235080D03*
D16*
X298476160Y-31775080D03*
D15*
X301016160Y-26695080D03*
G36*
G01*
X159967560Y-46995120D02*
X159967560Y-44495120D01*
G75*
G02*
X160167560Y-44295120I200000J0D01*
G01*
X162717560Y-44295120D01*
G75*
G02*
X162917560Y-44495120I0J-200000D01*
G01*
X162917560Y-46995120D01*
G75*
G02*
X162717560Y-47195120I-200000J0D01*
G01*
X160167560Y-47195120D01*
G75*
G02*
X159967560Y-46995120I0J200000D01*
G01*
G37*
G36*
G01*
X147040560Y-49535120D02*
X147040560Y-47035120D01*
G75*
G02*
X147240560Y-46835120I200000J0D01*
G01*
X149790560Y-46835120D01*
G75*
G02*
X149990560Y-47035120I0J-200000D01*
G01*
X149990560Y-49535120D01*
G75*
G02*
X149790560Y-49735120I-200000J0D01*
G01*
X147240560Y-49735120D01*
G75*
G02*
X147040560Y-49535120I0J200000D01*
G01*
G37*
D17*
X160680560Y-50825120D03*
X150520560Y-50825120D03*
D15*
X151790560Y-48285120D03*
D16*
X155600560Y-50825120D03*
D15*
X158140560Y-45745120D03*
X167665600Y-83845280D03*
D16*
X165125600Y-88925280D03*
D15*
X161315600Y-86385280D03*
D17*
X160045600Y-88925280D03*
X170205600Y-88925280D03*
G36*
G01*
X156565600Y-87635280D02*
X156565600Y-85135280D01*
G75*
G02*
X156765600Y-84935280I200000J0D01*
G01*
X159315600Y-84935280D01*
G75*
G02*
X159515600Y-85135280I0J-200000D01*
G01*
X159515600Y-87635280D01*
G75*
G02*
X159315600Y-87835280I-200000J0D01*
G01*
X156765600Y-87835280D01*
G75*
G02*
X156565600Y-87635280I0J200000D01*
G01*
G37*
G36*
G01*
X169492600Y-85095280D02*
X169492600Y-82595280D01*
G75*
G02*
X169692600Y-82395280I200000J0D01*
G01*
X172242600Y-82395280D01*
G75*
G02*
X172442600Y-82595280I0J-200000D01*
G01*
X172442600Y-85095280D01*
G75*
G02*
X172242600Y-85295280I-200000J0D01*
G01*
X169692600Y-85295280D01*
G75*
G02*
X169492600Y-85095280I0J200000D01*
G01*
G37*
D15*
X167665600Y-26695080D03*
D16*
X165125600Y-31775080D03*
D15*
X161315600Y-29235080D03*
D17*
X160045600Y-31775080D03*
X170205600Y-31775080D03*
G36*
G01*
X156565600Y-30485080D02*
X156565600Y-27985080D01*
G75*
G02*
X156765600Y-27785080I200000J0D01*
G01*
X159315600Y-27785080D01*
G75*
G02*
X159515600Y-27985080I0J-200000D01*
G01*
X159515600Y-30485080D01*
G75*
G02*
X159315600Y-30685080I-200000J0D01*
G01*
X156765600Y-30685080D01*
G75*
G02*
X156565600Y-30485080I0J200000D01*
G01*
G37*
G36*
G01*
X169492600Y-27945080D02*
X169492600Y-25445080D01*
G75*
G02*
X169692600Y-25245080I200000J0D01*
G01*
X172242600Y-25245080D01*
G75*
G02*
X172442600Y-25445080I0J-200000D01*
G01*
X172442600Y-27945080D01*
G75*
G02*
X172242600Y-28145080I-200000J0D01*
G01*
X169692600Y-28145080D01*
G75*
G02*
X169492600Y-27945080I0J200000D01*
G01*
G37*
G36*
G01*
X179017640Y-46995160D02*
X179017640Y-44495160D01*
G75*
G02*
X179217640Y-44295160I200000J0D01*
G01*
X181767640Y-44295160D01*
G75*
G02*
X181967640Y-44495160I0J-200000D01*
G01*
X181967640Y-46995160D01*
G75*
G02*
X181767640Y-47195160I-200000J0D01*
G01*
X179217640Y-47195160D01*
G75*
G02*
X179017640Y-46995160I0J200000D01*
G01*
G37*
G36*
G01*
X166090640Y-49535160D02*
X166090640Y-47035160D01*
G75*
G02*
X166290640Y-46835160I200000J0D01*
G01*
X168840640Y-46835160D01*
G75*
G02*
X169040640Y-47035160I0J-200000D01*
G01*
X169040640Y-49535160D01*
G75*
G02*
X168840640Y-49735160I-200000J0D01*
G01*
X166290640Y-49735160D01*
G75*
G02*
X166090640Y-49535160I0J200000D01*
G01*
G37*
X179730640Y-50825160D03*
X169570640Y-50825160D03*
D15*
X170840640Y-48285160D03*
D16*
X174650640Y-50825160D03*
D15*
X177190640Y-45745160D03*
X186715680Y-83845280D03*
D16*
X184175680Y-88925280D03*
D15*
X180365680Y-86385280D03*
D17*
X179095680Y-88925280D03*
X189255680Y-88925280D03*
G36*
G01*
X175615680Y-87635280D02*
X175615680Y-85135280D01*
G75*
G02*
X175815680Y-84935280I200000J0D01*
G01*
X178365680Y-84935280D01*
G75*
G02*
X178565680Y-85135280I0J-200000D01*
G01*
X178565680Y-87635280D01*
G75*
G02*
X178365680Y-87835280I-200000J0D01*
G01*
X175815680Y-87835280D01*
G75*
G02*
X175615680Y-87635280I0J200000D01*
G01*
G37*
G36*
G01*
X188542680Y-85095280D02*
X188542680Y-82595280D01*
G75*
G02*
X188742680Y-82395280I200000J0D01*
G01*
X191292680Y-82395280D01*
G75*
G02*
X191492680Y-82595280I0J-200000D01*
G01*
X191492680Y-85095280D01*
G75*
G02*
X191292680Y-85295280I-200000J0D01*
G01*
X188742680Y-85295280D01*
G75*
G02*
X188542680Y-85095280I0J200000D01*
G01*
G37*
G36*
G01*
X188542680Y-27945040D02*
X188542680Y-25445040D01*
G75*
G02*
X188742680Y-25245040I200000J0D01*
G01*
X191292680Y-25245040D01*
G75*
G02*
X191492680Y-25445040I0J-200000D01*
G01*
X191492680Y-27945040D01*
G75*
G02*
X191292680Y-28145040I-200000J0D01*
G01*
X188742680Y-28145040D01*
G75*
G02*
X188542680Y-27945040I0J200000D01*
G01*
G37*
G36*
G01*
X175615680Y-30485040D02*
X175615680Y-27985040D01*
G75*
G02*
X175815680Y-27785040I200000J0D01*
G01*
X178365680Y-27785040D01*
G75*
G02*
X178565680Y-27985040I0J-200000D01*
G01*
X178565680Y-30485040D01*
G75*
G02*
X178365680Y-30685040I-200000J0D01*
G01*
X175815680Y-30685040D01*
G75*
G02*
X175615680Y-30485040I0J200000D01*
G01*
G37*
X189255680Y-31775040D03*
X179095680Y-31775040D03*
D15*
X180365680Y-29235040D03*
D16*
X184175680Y-31775040D03*
D15*
X186715680Y-26695040D03*
G36*
G01*
X198067720Y-46995160D02*
X198067720Y-44495160D01*
G75*
G02*
X198267720Y-44295160I200000J0D01*
G01*
X200817720Y-44295160D01*
G75*
G02*
X201017720Y-44495160I0J-200000D01*
G01*
X201017720Y-46995160D01*
G75*
G02*
X200817720Y-47195160I-200000J0D01*
G01*
X198267720Y-47195160D01*
G75*
G02*
X198067720Y-46995160I0J200000D01*
G01*
G37*
G36*
G01*
X185140720Y-49535160D02*
X185140720Y-47035160D01*
G75*
G02*
X185340720Y-46835160I200000J0D01*
G01*
X187890720Y-46835160D01*
G75*
G02*
X188090720Y-47035160I0J-200000D01*
G01*
X188090720Y-49535160D01*
G75*
G02*
X187890720Y-49735160I-200000J0D01*
G01*
X185340720Y-49735160D01*
G75*
G02*
X185140720Y-49535160I0J200000D01*
G01*
G37*
D17*
X198780720Y-50825160D03*
X188620720Y-50825160D03*
D15*
X189890720Y-48285160D03*
D16*
X193700720Y-50825160D03*
D15*
X196240720Y-45745160D03*
G36*
G01*
X198067720Y-66045240D02*
X198067720Y-63545240D01*
G75*
G02*
X198267720Y-63345240I200000J0D01*
G01*
X200817720Y-63345240D01*
G75*
G02*
X201017720Y-63545240I0J-200000D01*
G01*
X201017720Y-66045240D01*
G75*
G02*
X200817720Y-66245240I-200000J0D01*
G01*
X198267720Y-66245240D01*
G75*
G02*
X198067720Y-66045240I0J200000D01*
G01*
G37*
G36*
G01*
X185140720Y-68585240D02*
X185140720Y-66085240D01*
G75*
G02*
X185340720Y-65885240I200000J0D01*
G01*
X187890720Y-65885240D01*
G75*
G02*
X188090720Y-66085240I0J-200000D01*
G01*
X188090720Y-68585240D01*
G75*
G02*
X187890720Y-68785240I-200000J0D01*
G01*
X185340720Y-68785240D01*
G75*
G02*
X185140720Y-68585240I0J200000D01*
G01*
G37*
D17*
X198780720Y-69875240D03*
X188620720Y-69875240D03*
D15*
X189890720Y-67335240D03*
D16*
X193700720Y-69875240D03*
D15*
X196240720Y-64795240D03*
X205765760Y-26695040D03*
D16*
X203225760Y-31775040D03*
D15*
X199415760Y-29235040D03*
D17*
X198145760Y-31775040D03*
X208305760Y-31775040D03*
G36*
G01*
X194665760Y-30485040D02*
X194665760Y-27985040D01*
G75*
G02*
X194865760Y-27785040I200000J0D01*
G01*
X197415760Y-27785040D01*
G75*
G02*
X197615760Y-27985040I0J-200000D01*
G01*
X197615760Y-30485040D01*
G75*
G02*
X197415760Y-30685040I-200000J0D01*
G01*
X194865760Y-30685040D01*
G75*
G02*
X194665760Y-30485040I0J200000D01*
G01*
G37*
G36*
G01*
X207592760Y-27945040D02*
X207592760Y-25445040D01*
G75*
G02*
X207792760Y-25245040I200000J0D01*
G01*
X210342760Y-25245040D01*
G75*
G02*
X210542760Y-25445040I0J-200000D01*
G01*
X210542760Y-27945040D01*
G75*
G02*
X210342760Y-28145040I-200000J0D01*
G01*
X207792760Y-28145040D01*
G75*
G02*
X207592760Y-27945040I0J200000D01*
G01*
G37*
G36*
G01*
X226641840Y-27945040D02*
X226641840Y-25445040D01*
G75*
G02*
X226841840Y-25245040I200000J0D01*
G01*
X229391840Y-25245040D01*
G75*
G02*
X229591840Y-25445040I0J-200000D01*
G01*
X229591840Y-27945040D01*
G75*
G02*
X229391840Y-28145040I-200000J0D01*
G01*
X226841840Y-28145040D01*
G75*
G02*
X226641840Y-27945040I0J200000D01*
G01*
G37*
G36*
G01*
X213714840Y-30485040D02*
X213714840Y-27985040D01*
G75*
G02*
X213914840Y-27785040I200000J0D01*
G01*
X216464840Y-27785040D01*
G75*
G02*
X216664840Y-27985040I0J-200000D01*
G01*
X216664840Y-30485040D01*
G75*
G02*
X216464840Y-30685040I-200000J0D01*
G01*
X213914840Y-30685040D01*
G75*
G02*
X213714840Y-30485040I0J200000D01*
G01*
G37*
X227354840Y-31775040D03*
X217194840Y-31775040D03*
D15*
X218464840Y-29235040D03*
D16*
X222274840Y-31775040D03*
D15*
X224814840Y-26695040D03*
X243864840Y-26695040D03*
D16*
X241324840Y-31775040D03*
D15*
X237514840Y-29235040D03*
D17*
X236244840Y-31775040D03*
X246404840Y-31775040D03*
G36*
G01*
X232764840Y-30485040D02*
X232764840Y-27985040D01*
G75*
G02*
X232964840Y-27785040I200000J0D01*
G01*
X235514840Y-27785040D01*
G75*
G02*
X235714840Y-27985040I0J-200000D01*
G01*
X235714840Y-30485040D01*
G75*
G02*
X235514840Y-30685040I-200000J0D01*
G01*
X232964840Y-30685040D01*
G75*
G02*
X232764840Y-30485040I0J200000D01*
G01*
G37*
G36*
G01*
X245691840Y-27945040D02*
X245691840Y-25445040D01*
G75*
G02*
X245891840Y-25245040I200000J0D01*
G01*
X248441840Y-25245040D01*
G75*
G02*
X248641840Y-25445040I0J-200000D01*
G01*
X248641840Y-27945040D01*
G75*
G02*
X248441840Y-28145040I-200000J0D01*
G01*
X245891840Y-28145040D01*
G75*
G02*
X245691840Y-27945040I0J200000D01*
G01*
G37*
G36*
G01*
X283793080Y-85095320D02*
X283793080Y-82595320D01*
G75*
G02*
X283993080Y-82395320I200000J0D01*
G01*
X286543080Y-82395320D01*
G75*
G02*
X286743080Y-82595320I0J-200000D01*
G01*
X286743080Y-85095320D01*
G75*
G02*
X286543080Y-85295320I-200000J0D01*
G01*
X283993080Y-85295320D01*
G75*
G02*
X283793080Y-85095320I0J200000D01*
G01*
G37*
G36*
G01*
X270866080Y-87635320D02*
X270866080Y-85135320D01*
G75*
G02*
X271066080Y-84935320I200000J0D01*
G01*
X273616080Y-84935320D01*
G75*
G02*
X273816080Y-85135320I0J-200000D01*
G01*
X273816080Y-87635320D01*
G75*
G02*
X273616080Y-87835320I-200000J0D01*
G01*
X271066080Y-87835320D01*
G75*
G02*
X270866080Y-87635320I0J200000D01*
G01*
G37*
X284506080Y-88925320D03*
X274346080Y-88925320D03*
D15*
X275616080Y-86385320D03*
D16*
X279426080Y-88925320D03*
D15*
X281966080Y-83845320D03*
G36*
G01*
X269850000Y-76750040D02*
X268650000Y-76750040D01*
G75*
G02*
X268450000Y-76550040I0J200000D01*
G01*
X268450000Y-75650040D01*
G75*
G02*
X268650000Y-75450040I200000J0D01*
G01*
X269850000Y-75450040D01*
G75*
G02*
X270050000Y-75650040I0J-200000D01*
G01*
X270050000Y-76550040D01*
G75*
G02*
X269850000Y-76750040I-200000J0D01*
G01*
G37*
G36*
G01*
X269850000Y-73450040D02*
X268650000Y-73450040D01*
G75*
G02*
X268450000Y-73250040I0J200000D01*
G01*
X268450000Y-72350040D01*
G75*
G02*
X268650000Y-72150040I200000J0D01*
G01*
X269850000Y-72150040D01*
G75*
G02*
X270050000Y-72350040I0J-200000D01*
G01*
X270050000Y-73250040D01*
G75*
G02*
X269850000Y-73450040I-200000J0D01*
G01*
G37*
G36*
G01*
X60950000Y-105750040D02*
X59750000Y-105750040D01*
G75*
G02*
X59550000Y-105550040I0J200000D01*
G01*
X59550000Y-104650040D01*
G75*
G02*
X59750000Y-104450040I200000J0D01*
G01*
X60950000Y-104450040D01*
G75*
G02*
X61150000Y-104650040I0J-200000D01*
G01*
X61150000Y-105550040D01*
G75*
G02*
X60950000Y-105750040I-200000J0D01*
G01*
G37*
G36*
G01*
X60950000Y-102450040D02*
X59750000Y-102450040D01*
G75*
G02*
X59550000Y-102250040I0J200000D01*
G01*
X59550000Y-101350040D01*
G75*
G02*
X59750000Y-101150040I200000J0D01*
G01*
X60950000Y-101150040D01*
G75*
G02*
X61150000Y-101350040I0J-200000D01*
G01*
X61150000Y-102250040D01*
G75*
G02*
X60950000Y-102450040I-200000J0D01*
G01*
G37*
G36*
G01*
X182250000Y-105750040D02*
X181050000Y-105750040D01*
G75*
G02*
X180850000Y-105550040I0J200000D01*
G01*
X180850000Y-104650040D01*
G75*
G02*
X181050000Y-104450040I200000J0D01*
G01*
X182250000Y-104450040D01*
G75*
G02*
X182450000Y-104650040I0J-200000D01*
G01*
X182450000Y-105550040D01*
G75*
G02*
X182250000Y-105750040I-200000J0D01*
G01*
G37*
G36*
G01*
X182250000Y-102450040D02*
X181050000Y-102450040D01*
G75*
G02*
X180850000Y-102250040I0J200000D01*
G01*
X180850000Y-101350040D01*
G75*
G02*
X181050000Y-101150040I200000J0D01*
G01*
X182250000Y-101150040D01*
G75*
G02*
X182450000Y-101350040I0J-200000D01*
G01*
X182450000Y-102250040D01*
G75*
G02*
X182250000Y-102450040I-200000J0D01*
G01*
G37*
G36*
G01*
X206850000Y-102450040D02*
X205650000Y-102450040D01*
G75*
G02*
X205450000Y-102250040I0J200000D01*
G01*
X205450000Y-101350040D01*
G75*
G02*
X205650000Y-101150040I200000J0D01*
G01*
X206850000Y-101150040D01*
G75*
G02*
X207050000Y-101350040I0J-200000D01*
G01*
X207050000Y-102250040D01*
G75*
G02*
X206850000Y-102450040I-200000J0D01*
G01*
G37*
G36*
G01*
X206850000Y-105750040D02*
X205650000Y-105750040D01*
G75*
G02*
X205450000Y-105550040I0J200000D01*
G01*
X205450000Y-104650040D01*
G75*
G02*
X205650000Y-104450040I200000J0D01*
G01*
X206850000Y-104450040D01*
G75*
G02*
X207050000Y-104650040I0J-200000D01*
G01*
X207050000Y-105550040D01*
G75*
G02*
X206850000Y-105750040I-200000J0D01*
G01*
G37*
G36*
G01*
X288450000Y-92450040D02*
X287250000Y-92450040D01*
G75*
G02*
X287050000Y-92250040I0J200000D01*
G01*
X287050000Y-91350040D01*
G75*
G02*
X287250000Y-91150040I200000J0D01*
G01*
X288450000Y-91150040D01*
G75*
G02*
X288650000Y-91350040I0J-200000D01*
G01*
X288650000Y-92250040D01*
G75*
G02*
X288450000Y-92450040I-200000J0D01*
G01*
G37*
G36*
G01*
X288450000Y-95750040D02*
X287250000Y-95750040D01*
G75*
G02*
X287050000Y-95550040I0J200000D01*
G01*
X287050000Y-94650040D01*
G75*
G02*
X287250000Y-94450040I200000J0D01*
G01*
X288450000Y-94450040D01*
G75*
G02*
X288650000Y-94650040I0J-200000D01*
G01*
X288650000Y-95550040D01*
G75*
G02*
X288450000Y-95750040I-200000J0D01*
G01*
G37*
G36*
G01*
X294109160Y-92755320D02*
X294109160Y-95255320D01*
G75*
G02*
X293909160Y-95455320I-200000J0D01*
G01*
X291359160Y-95455320D01*
G75*
G02*
X291159160Y-95255320I0J200000D01*
G01*
X291159160Y-92755320D01*
G75*
G02*
X291359160Y-92555320I200000J0D01*
G01*
X293909160Y-92555320D01*
G75*
G02*
X294109160Y-92755320I0J-200000D01*
G01*
G37*
G36*
G01*
X307036160Y-90215320D02*
X307036160Y-92715320D01*
G75*
G02*
X306836160Y-92915320I-200000J0D01*
G01*
X304286160Y-92915320D01*
G75*
G02*
X304086160Y-92715320I0J200000D01*
G01*
X304086160Y-90215320D01*
G75*
G02*
X304286160Y-90015320I200000J0D01*
G01*
X306836160Y-90015320D01*
G75*
G02*
X307036160Y-90215320I0J-200000D01*
G01*
G37*
D17*
X293396160Y-88925320D03*
X303556160Y-88925320D03*
D15*
X302286160Y-91465320D03*
D16*
X298476160Y-88925320D03*
D15*
X295936160Y-94005320D03*
X281966080Y-102895360D03*
D16*
X279426080Y-107975360D03*
D15*
X275616080Y-105435360D03*
D17*
X274346080Y-107975360D03*
X284506080Y-107975360D03*
G36*
G01*
X270866080Y-106685360D02*
X270866080Y-104185360D01*
G75*
G02*
X271066080Y-103985360I200000J0D01*
G01*
X273616080Y-103985360D01*
G75*
G02*
X273816080Y-104185360I0J-200000D01*
G01*
X273816080Y-106685360D01*
G75*
G02*
X273616080Y-106885360I-200000J0D01*
G01*
X271066080Y-106885360D01*
G75*
G02*
X270866080Y-106685360I0J200000D01*
G01*
G37*
G36*
G01*
X283793080Y-104145360D02*
X283793080Y-101645360D01*
G75*
G02*
X283993080Y-101445360I200000J0D01*
G01*
X286543080Y-101445360D01*
G75*
G02*
X286743080Y-101645360I0J-200000D01*
G01*
X286743080Y-104145360D01*
G75*
G02*
X286543080Y-104345360I-200000J0D01*
G01*
X283993080Y-104345360D01*
G75*
G02*
X283793080Y-104145360I0J200000D01*
G01*
G37*
D15*
X205765760Y-83845320D03*
D16*
X203225760Y-88925320D03*
D15*
X199415760Y-86385320D03*
D17*
X198145760Y-88925320D03*
X208305760Y-88925320D03*
G36*
G01*
X194665760Y-87635320D02*
X194665760Y-85135320D01*
G75*
G02*
X194865760Y-84935320I200000J0D01*
G01*
X197415760Y-84935320D01*
G75*
G02*
X197615760Y-85135320I0J-200000D01*
G01*
X197615760Y-87635320D01*
G75*
G02*
X197415760Y-87835320I-200000J0D01*
G01*
X194865760Y-87835320D01*
G75*
G02*
X194665760Y-87635320I0J200000D01*
G01*
G37*
G36*
G01*
X207592760Y-85095320D02*
X207592760Y-82595320D01*
G75*
G02*
X207792760Y-82395320I200000J0D01*
G01*
X210342760Y-82395320D01*
G75*
G02*
X210542760Y-82595320I0J-200000D01*
G01*
X210542760Y-85095320D01*
G75*
G02*
X210342760Y-85295320I-200000J0D01*
G01*
X207792760Y-85295320D01*
G75*
G02*
X207592760Y-85095320I0J200000D01*
G01*
G37*
G36*
G01*
X66650000Y-53813085D02*
X66650000Y-52686995D01*
G75*
G02*
X66986955Y-52350040I336955J0D01*
G01*
X67863045Y-52350040D01*
G75*
G02*
X68200000Y-52686995I0J-336955D01*
G01*
X68200000Y-53813085D01*
G75*
G02*
X67863045Y-54150040I-336955J0D01*
G01*
X66986955Y-54150040D01*
G75*
G02*
X66650000Y-53813085I0J336955D01*
G01*
G37*
G36*
G01*
X68700000Y-53813085D02*
X68700000Y-52686995D01*
G75*
G02*
X69036955Y-52350040I336955J0D01*
G01*
X69913045Y-52350040D01*
G75*
G02*
X70250000Y-52686995I0J-336955D01*
G01*
X70250000Y-53813085D01*
G75*
G02*
X69913045Y-54150040I-336955J0D01*
G01*
X69036955Y-54150040D01*
G75*
G02*
X68700000Y-53813085I0J336955D01*
G01*
G37*
G36*
G01*
X68700000Y-51513085D02*
X68700000Y-50386995D01*
G75*
G02*
X69036955Y-50050040I336955J0D01*
G01*
X69913045Y-50050040D01*
G75*
G02*
X70250000Y-50386995I0J-336955D01*
G01*
X70250000Y-51513085D01*
G75*
G02*
X69913045Y-51850040I-336955J0D01*
G01*
X69036955Y-51850040D01*
G75*
G02*
X68700000Y-51513085I0J336955D01*
G01*
G37*
G36*
G01*
X66650000Y-51513085D02*
X66650000Y-50386995D01*
G75*
G02*
X66986955Y-50050040I336955J0D01*
G01*
X67863045Y-50050040D01*
G75*
G02*
X68200000Y-50386995I0J-336955D01*
G01*
X68200000Y-51513085D01*
G75*
G02*
X67863045Y-51850040I-336955J0D01*
G01*
X66986955Y-51850040D01*
G75*
G02*
X66650000Y-51513085I0J336955D01*
G01*
G37*
G36*
G01*
X68650000Y-62313085D02*
X68650000Y-61186995D01*
G75*
G02*
X68986955Y-60850040I336955J0D01*
G01*
X69863045Y-60850040D01*
G75*
G02*
X70200000Y-61186995I0J-336955D01*
G01*
X70200000Y-62313085D01*
G75*
G02*
X69863045Y-62650040I-336955J0D01*
G01*
X68986955Y-62650040D01*
G75*
G02*
X68650000Y-62313085I0J336955D01*
G01*
G37*
G36*
G01*
X70700000Y-62313085D02*
X70700000Y-61186995D01*
G75*
G02*
X71036955Y-60850040I336955J0D01*
G01*
X71913045Y-60850040D01*
G75*
G02*
X72250000Y-61186995I0J-336955D01*
G01*
X72250000Y-62313085D01*
G75*
G02*
X71913045Y-62650040I-336955J0D01*
G01*
X71036955Y-62650040D01*
G75*
G02*
X70700000Y-62313085I0J336955D01*
G01*
G37*
G36*
G01*
X57250000Y-76600040D02*
X57250000Y-75100040D01*
G75*
G02*
X57450000Y-74900040I200000J0D01*
G01*
X58450000Y-74900040D01*
G75*
G02*
X58650000Y-75100040I0J-200000D01*
G01*
X58650000Y-76600040D01*
G75*
G02*
X58450000Y-76800040I-200000J0D01*
G01*
X57450000Y-76800040D01*
G75*
G02*
X57250000Y-76600040I0J200000D01*
G01*
G37*
G36*
G01*
X55950000Y-76600040D02*
X55950000Y-75100040D01*
G75*
G02*
X56150000Y-74900040I200000J0D01*
G01*
X57150000Y-74900040D01*
G75*
G02*
X57350000Y-75100040I0J-200000D01*
G01*
X57350000Y-76600040D01*
G75*
G02*
X57150000Y-76800040I-200000J0D01*
G01*
X56150000Y-76800040D01*
G75*
G02*
X55950000Y-76600040I0J200000D01*
G01*
G37*
G36*
G01*
X54650000Y-76600040D02*
X54650000Y-75100040D01*
G75*
G02*
X54850000Y-74900040I200000J0D01*
G01*
X55850000Y-74900040D01*
G75*
G02*
X56050000Y-75100040I0J-200000D01*
G01*
X56050000Y-76600040D01*
G75*
G02*
X55850000Y-76800040I-200000J0D01*
G01*
X54850000Y-76800040D01*
G75*
G02*
X54650000Y-76600040I0J200000D01*
G01*
G37*
D19*
X306650000Y-34850040D03*
X306650000Y-32310040D03*
X306650000Y-29770040D03*
X306650000Y-27230040D03*
G36*
G01*
X44513045Y-55000040D02*
X43386955Y-55000040D01*
G75*
G02*
X43050000Y-54663085I0J336955D01*
G01*
X43050000Y-53786995D01*
G75*
G02*
X43386955Y-53450040I336955J0D01*
G01*
X44513045Y-53450040D01*
G75*
G02*
X44850000Y-53786995I0J-336955D01*
G01*
X44850000Y-54663085D01*
G75*
G02*
X44513045Y-55000040I-336955J0D01*
G01*
G37*
G36*
G01*
X44513045Y-57050040D02*
X43386955Y-57050040D01*
G75*
G02*
X43050000Y-56713085I0J336955D01*
G01*
X43050000Y-55836995D01*
G75*
G02*
X43386955Y-55500040I336955J0D01*
G01*
X44513045Y-55500040D01*
G75*
G02*
X44850000Y-55836995I0J-336955D01*
G01*
X44850000Y-56713085D01*
G75*
G02*
X44513045Y-57050040I-336955J0D01*
G01*
G37*
G36*
G01*
X44513045Y-61450040D02*
X43386955Y-61450040D01*
G75*
G02*
X43050000Y-61113085I0J336955D01*
G01*
X43050000Y-60236995D01*
G75*
G02*
X43386955Y-59900040I336955J0D01*
G01*
X44513045Y-59900040D01*
G75*
G02*
X44850000Y-60236995I0J-336955D01*
G01*
X44850000Y-61113085D01*
G75*
G02*
X44513045Y-61450040I-336955J0D01*
G01*
G37*
G36*
G01*
X44513045Y-59400040D02*
X43386955Y-59400040D01*
G75*
G02*
X43050000Y-59063085I0J336955D01*
G01*
X43050000Y-58186995D01*
G75*
G02*
X43386955Y-57850040I336955J0D01*
G01*
X44513045Y-57850040D01*
G75*
G02*
X44850000Y-58186995I0J-336955D01*
G01*
X44850000Y-59063085D01*
G75*
G02*
X44513045Y-59400040I-336955J0D01*
G01*
G37*
G36*
G01*
X52486955Y-72300040D02*
X53613045Y-72300040D01*
G75*
G02*
X53950000Y-72636995I0J-336955D01*
G01*
X53950000Y-73513085D01*
G75*
G02*
X53613045Y-73850040I-336955J0D01*
G01*
X52486955Y-73850040D01*
G75*
G02*
X52150000Y-73513085I0J336955D01*
G01*
X52150000Y-72636995D01*
G75*
G02*
X52486955Y-72300040I336955J0D01*
G01*
G37*
G36*
G01*
X52486955Y-70250040D02*
X53613045Y-70250040D01*
G75*
G02*
X53950000Y-70586995I0J-336955D01*
G01*
X53950000Y-71463085D01*
G75*
G02*
X53613045Y-71800040I-336955J0D01*
G01*
X52486955Y-71800040D01*
G75*
G02*
X52150000Y-71463085I0J336955D01*
G01*
X52150000Y-70586995D01*
G75*
G02*
X52486955Y-70250040I336955J0D01*
G01*
G37*
G36*
G01*
X70250000Y-48086995D02*
X70250000Y-49213085D01*
G75*
G02*
X69913045Y-49550040I-336955J0D01*
G01*
X69036955Y-49550040D01*
G75*
G02*
X68700000Y-49213085I0J336955D01*
G01*
X68700000Y-48086995D01*
G75*
G02*
X69036955Y-47750040I336955J0D01*
G01*
X69913045Y-47750040D01*
G75*
G02*
X70250000Y-48086995I0J-336955D01*
G01*
G37*
G36*
G01*
X68200000Y-48086995D02*
X68200000Y-49213085D01*
G75*
G02*
X67863045Y-49550040I-336955J0D01*
G01*
X66986955Y-49550040D01*
G75*
G02*
X66650000Y-49213085I0J336955D01*
G01*
X66650000Y-48086995D01*
G75*
G02*
X66986955Y-47750040I336955J0D01*
G01*
X67863045Y-47750040D01*
G75*
G02*
X68200000Y-48086995I0J-336955D01*
G01*
G37*
G36*
G01*
X32170500Y-73705200D02*
X32170500Y-76205200D01*
G75*
G02*
X31970500Y-76405200I-200000J0D01*
G01*
X29420500Y-76405200D01*
G75*
G02*
X29220500Y-76205200I0J200000D01*
G01*
X29220500Y-73705200D01*
G75*
G02*
X29420500Y-73505200I200000J0D01*
G01*
X31970500Y-73505200D01*
G75*
G02*
X32170500Y-73705200I0J-200000D01*
G01*
G37*
G36*
G01*
X45097500Y-71165200D02*
X45097500Y-73665200D01*
G75*
G02*
X44897500Y-73865200I-200000J0D01*
G01*
X42347500Y-73865200D01*
G75*
G02*
X42147500Y-73665200I0J200000D01*
G01*
X42147500Y-71165200D01*
G75*
G02*
X42347500Y-70965200I200000J0D01*
G01*
X44897500Y-70965200D01*
G75*
G02*
X45097500Y-71165200I0J-200000D01*
G01*
G37*
D17*
X31457500Y-69875200D03*
X41617500Y-69875200D03*
D15*
X40347500Y-72415200D03*
D16*
X36537500Y-69875200D03*
D15*
X33997500Y-74955200D03*
X258153480Y-45745160D03*
D16*
X255613480Y-50825160D03*
D15*
X251803480Y-48285160D03*
D17*
X250533480Y-50825160D03*
X260693480Y-50825160D03*
G36*
G01*
X247053480Y-49535160D02*
X247053480Y-47035160D01*
G75*
G02*
X247253480Y-46835160I200000J0D01*
G01*
X249803480Y-46835160D01*
G75*
G02*
X250003480Y-47035160I0J-200000D01*
G01*
X250003480Y-49535160D01*
G75*
G02*
X249803480Y-49735160I-200000J0D01*
G01*
X247253480Y-49735160D01*
G75*
G02*
X247053480Y-49535160I0J200000D01*
G01*
G37*
G36*
G01*
X259980480Y-46995160D02*
X259980480Y-44495160D01*
G75*
G02*
X260180480Y-44295160I200000J0D01*
G01*
X262730480Y-44295160D01*
G75*
G02*
X262930480Y-44495160I0J-200000D01*
G01*
X262930480Y-46995160D01*
G75*
G02*
X262730480Y-47195160I-200000J0D01*
G01*
X260180480Y-47195160D01*
G75*
G02*
X259980480Y-46995160I0J200000D01*
G01*
G37*
D15*
X262916000Y-102895360D03*
D16*
X260376000Y-107975360D03*
D15*
X256566000Y-105435360D03*
D17*
X255296000Y-107975360D03*
X265456000Y-107975360D03*
G36*
G01*
X251816000Y-106685360D02*
X251816000Y-104185360D01*
G75*
G02*
X252016000Y-103985360I200000J0D01*
G01*
X254566000Y-103985360D01*
G75*
G02*
X254766000Y-104185360I0J-200000D01*
G01*
X254766000Y-106685360D01*
G75*
G02*
X254566000Y-106885360I-200000J0D01*
G01*
X252016000Y-106885360D01*
G75*
G02*
X251816000Y-106685360I0J200000D01*
G01*
G37*
G36*
G01*
X264743000Y-104145360D02*
X264743000Y-101645360D01*
G75*
G02*
X264943000Y-101445360I200000J0D01*
G01*
X267493000Y-101445360D01*
G75*
G02*
X267693000Y-101645360I0J-200000D01*
G01*
X267693000Y-104145360D01*
G75*
G02*
X267493000Y-104345360I-200000J0D01*
G01*
X264943000Y-104345360D01*
G75*
G02*
X264743000Y-104145360I0J200000D01*
G01*
G37*
G36*
G01*
X49700000Y-26213085D02*
X49700000Y-25086995D01*
G75*
G02*
X50036955Y-24750040I336955J0D01*
G01*
X50913045Y-24750040D01*
G75*
G02*
X51250000Y-25086995I0J-336955D01*
G01*
X51250000Y-26213085D01*
G75*
G02*
X50913045Y-26550040I-336955J0D01*
G01*
X50036955Y-26550040D01*
G75*
G02*
X49700000Y-26213085I0J336955D01*
G01*
G37*
G36*
G01*
X47650000Y-26213085D02*
X47650000Y-25086995D01*
G75*
G02*
X47986955Y-24750040I336955J0D01*
G01*
X48863045Y-24750040D01*
G75*
G02*
X49200000Y-25086995I0J-336955D01*
G01*
X49200000Y-26213085D01*
G75*
G02*
X48863045Y-26550040I-336955J0D01*
G01*
X47986955Y-26550040D01*
G75*
G02*
X47650000Y-26213085I0J336955D01*
G01*
G37*
G36*
G01*
X63875000Y-61800040D02*
X63625000Y-61800040D01*
G75*
G02*
X63425000Y-61600040I0J200000D01*
G01*
X63425000Y-60900040D01*
G75*
G02*
X63625000Y-60700040I200000J0D01*
G01*
X63875000Y-60700040D01*
G75*
G02*
X64075000Y-60900040I0J-200000D01*
G01*
X64075000Y-61600040D01*
G75*
G02*
X63875000Y-61800040I-200000J0D01*
G01*
G37*
G36*
G01*
X63375000Y-61800040D02*
X63125000Y-61800040D01*
G75*
G02*
X62925000Y-61600040I0J200000D01*
G01*
X62925000Y-60900040D01*
G75*
G02*
X63125000Y-60700040I200000J0D01*
G01*
X63375000Y-60700040D01*
G75*
G02*
X63575000Y-60900040I0J-200000D01*
G01*
X63575000Y-61600040D01*
G75*
G02*
X63375000Y-61800040I-200000J0D01*
G01*
G37*
G36*
G01*
X62875000Y-61800040D02*
X62625000Y-61800040D01*
G75*
G02*
X62425000Y-61600040I0J200000D01*
G01*
X62425000Y-60900040D01*
G75*
G02*
X62625000Y-60700040I200000J0D01*
G01*
X62875000Y-60700040D01*
G75*
G02*
X63075000Y-60900040I0J-200000D01*
G01*
X63075000Y-61600040D01*
G75*
G02*
X62875000Y-61800040I-200000J0D01*
G01*
G37*
G36*
G01*
X62375000Y-61800040D02*
X62125000Y-61800040D01*
G75*
G02*
X61925000Y-61600040I0J200000D01*
G01*
X61925000Y-60900040D01*
G75*
G02*
X62125000Y-60700040I200000J0D01*
G01*
X62375000Y-60700040D01*
G75*
G02*
X62575000Y-60900040I0J-200000D01*
G01*
X62575000Y-61600040D01*
G75*
G02*
X62375000Y-61800040I-200000J0D01*
G01*
G37*
G36*
G01*
X61875000Y-61800040D02*
X61625000Y-61800040D01*
G75*
G02*
X61425000Y-61600040I0J200000D01*
G01*
X61425000Y-60900040D01*
G75*
G02*
X61625000Y-60700040I200000J0D01*
G01*
X61875000Y-60700040D01*
G75*
G02*
X62075000Y-60900040I0J-200000D01*
G01*
X62075000Y-61600040D01*
G75*
G02*
X61875000Y-61800040I-200000J0D01*
G01*
G37*
G36*
G01*
X61375000Y-61800040D02*
X61125000Y-61800040D01*
G75*
G02*
X60925000Y-61600040I0J200000D01*
G01*
X60925000Y-60900040D01*
G75*
G02*
X61125000Y-60700040I200000J0D01*
G01*
X61375000Y-60700040D01*
G75*
G02*
X61575000Y-60900040I0J-200000D01*
G01*
X61575000Y-61600040D01*
G75*
G02*
X61375000Y-61800040I-200000J0D01*
G01*
G37*
G36*
G01*
X60875000Y-61800040D02*
X60625000Y-61800040D01*
G75*
G02*
X60425000Y-61600040I0J200000D01*
G01*
X60425000Y-60900040D01*
G75*
G02*
X60625000Y-60700040I200000J0D01*
G01*
X60875000Y-60700040D01*
G75*
G02*
X61075000Y-60900040I0J-200000D01*
G01*
X61075000Y-61600040D01*
G75*
G02*
X60875000Y-61800040I-200000J0D01*
G01*
G37*
G36*
G01*
X60375000Y-61800040D02*
X60125000Y-61800040D01*
G75*
G02*
X59925000Y-61600040I0J200000D01*
G01*
X59925000Y-60900040D01*
G75*
G02*
X60125000Y-60700040I200000J0D01*
G01*
X60375000Y-60700040D01*
G75*
G02*
X60575000Y-60900040I0J-200000D01*
G01*
X60575000Y-61600040D01*
G75*
G02*
X60375000Y-61800040I-200000J0D01*
G01*
G37*
G36*
G01*
X59875000Y-61800040D02*
X59625000Y-61800040D01*
G75*
G02*
X59425000Y-61600040I0J200000D01*
G01*
X59425000Y-60900040D01*
G75*
G02*
X59625000Y-60700040I200000J0D01*
G01*
X59875000Y-60700040D01*
G75*
G02*
X60075000Y-60900040I0J-200000D01*
G01*
X60075000Y-61600040D01*
G75*
G02*
X59875000Y-61800040I-200000J0D01*
G01*
G37*
G36*
G01*
X59375000Y-61800040D02*
X59125000Y-61800040D01*
G75*
G02*
X58925000Y-61600040I0J200000D01*
G01*
X58925000Y-60900040D01*
G75*
G02*
X59125000Y-60700040I200000J0D01*
G01*
X59375000Y-60700040D01*
G75*
G02*
X59575000Y-60900040I0J-200000D01*
G01*
X59575000Y-61600040D01*
G75*
G02*
X59375000Y-61800040I-200000J0D01*
G01*
G37*
G36*
G01*
X58875000Y-61800040D02*
X58625000Y-61800040D01*
G75*
G02*
X58425000Y-61600040I0J200000D01*
G01*
X58425000Y-60900040D01*
G75*
G02*
X58625000Y-60700040I200000J0D01*
G01*
X58875000Y-60700040D01*
G75*
G02*
X59075000Y-60900040I0J-200000D01*
G01*
X59075000Y-61600040D01*
G75*
G02*
X58875000Y-61800040I-200000J0D01*
G01*
G37*
G36*
G01*
X57300000Y-60475040D02*
X57300000Y-60225040D01*
G75*
G02*
X57500000Y-60025040I200000J0D01*
G01*
X58200000Y-60025040D01*
G75*
G02*
X58400000Y-60225040I0J-200000D01*
G01*
X58400000Y-60475040D01*
G75*
G02*
X58200000Y-60675040I-200000J0D01*
G01*
X57500000Y-60675040D01*
G75*
G02*
X57300000Y-60475040I0J200000D01*
G01*
G37*
G36*
G01*
X57300000Y-59975040D02*
X57300000Y-59725040D01*
G75*
G02*
X57500000Y-59525040I200000J0D01*
G01*
X58200000Y-59525040D01*
G75*
G02*
X58400000Y-59725040I0J-200000D01*
G01*
X58400000Y-59975040D01*
G75*
G02*
X58200000Y-60175040I-200000J0D01*
G01*
X57500000Y-60175040D01*
G75*
G02*
X57300000Y-59975040I0J200000D01*
G01*
G37*
G36*
G01*
X57300000Y-59475040D02*
X57300000Y-59225040D01*
G75*
G02*
X57500000Y-59025040I200000J0D01*
G01*
X58200000Y-59025040D01*
G75*
G02*
X58400000Y-59225040I0J-200000D01*
G01*
X58400000Y-59475040D01*
G75*
G02*
X58200000Y-59675040I-200000J0D01*
G01*
X57500000Y-59675040D01*
G75*
G02*
X57300000Y-59475040I0J200000D01*
G01*
G37*
G36*
G01*
X57300000Y-58975040D02*
X57300000Y-58725040D01*
G75*
G02*
X57500000Y-58525040I200000J0D01*
G01*
X58200000Y-58525040D01*
G75*
G02*
X58400000Y-58725040I0J-200000D01*
G01*
X58400000Y-58975040D01*
G75*
G02*
X58200000Y-59175040I-200000J0D01*
G01*
X57500000Y-59175040D01*
G75*
G02*
X57300000Y-58975040I0J200000D01*
G01*
G37*
G36*
G01*
X57300000Y-58475040D02*
X57300000Y-58225040D01*
G75*
G02*
X57500000Y-58025040I200000J0D01*
G01*
X58200000Y-58025040D01*
G75*
G02*
X58400000Y-58225040I0J-200000D01*
G01*
X58400000Y-58475040D01*
G75*
G02*
X58200000Y-58675040I-200000J0D01*
G01*
X57500000Y-58675040D01*
G75*
G02*
X57300000Y-58475040I0J200000D01*
G01*
G37*
G36*
G01*
X57300000Y-57975040D02*
X57300000Y-57725040D01*
G75*
G02*
X57500000Y-57525040I200000J0D01*
G01*
X58200000Y-57525040D01*
G75*
G02*
X58400000Y-57725040I0J-200000D01*
G01*
X58400000Y-57975040D01*
G75*
G02*
X58200000Y-58175040I-200000J0D01*
G01*
X57500000Y-58175040D01*
G75*
G02*
X57300000Y-57975040I0J200000D01*
G01*
G37*
G36*
G01*
X57300000Y-57475040D02*
X57300000Y-57225040D01*
G75*
G02*
X57500000Y-57025040I200000J0D01*
G01*
X58200000Y-57025040D01*
G75*
G02*
X58400000Y-57225040I0J-200000D01*
G01*
X58400000Y-57475040D01*
G75*
G02*
X58200000Y-57675040I-200000J0D01*
G01*
X57500000Y-57675040D01*
G75*
G02*
X57300000Y-57475040I0J200000D01*
G01*
G37*
G36*
G01*
X57300000Y-56975040D02*
X57300000Y-56725040D01*
G75*
G02*
X57500000Y-56525040I200000J0D01*
G01*
X58200000Y-56525040D01*
G75*
G02*
X58400000Y-56725040I0J-200000D01*
G01*
X58400000Y-56975040D01*
G75*
G02*
X58200000Y-57175040I-200000J0D01*
G01*
X57500000Y-57175040D01*
G75*
G02*
X57300000Y-56975040I0J200000D01*
G01*
G37*
G36*
G01*
X57300000Y-56475040D02*
X57300000Y-56225040D01*
G75*
G02*
X57500000Y-56025040I200000J0D01*
G01*
X58200000Y-56025040D01*
G75*
G02*
X58400000Y-56225040I0J-200000D01*
G01*
X58400000Y-56475040D01*
G75*
G02*
X58200000Y-56675040I-200000J0D01*
G01*
X57500000Y-56675040D01*
G75*
G02*
X57300000Y-56475040I0J200000D01*
G01*
G37*
G36*
G01*
X57300000Y-55975040D02*
X57300000Y-55725040D01*
G75*
G02*
X57500000Y-55525040I200000J0D01*
G01*
X58200000Y-55525040D01*
G75*
G02*
X58400000Y-55725040I0J-200000D01*
G01*
X58400000Y-55975040D01*
G75*
G02*
X58200000Y-56175040I-200000J0D01*
G01*
X57500000Y-56175040D01*
G75*
G02*
X57300000Y-55975040I0J200000D01*
G01*
G37*
G36*
G01*
X57300000Y-55475040D02*
X57300000Y-55225040D01*
G75*
G02*
X57500000Y-55025040I200000J0D01*
G01*
X58200000Y-55025040D01*
G75*
G02*
X58400000Y-55225040I0J-200000D01*
G01*
X58400000Y-55475040D01*
G75*
G02*
X58200000Y-55675040I-200000J0D01*
G01*
X57500000Y-55675040D01*
G75*
G02*
X57300000Y-55475040I0J200000D01*
G01*
G37*
G36*
G01*
X58875000Y-55000040D02*
X58625000Y-55000040D01*
G75*
G02*
X58425000Y-54800040I0J200000D01*
G01*
X58425000Y-54100040D01*
G75*
G02*
X58625000Y-53900040I200000J0D01*
G01*
X58875000Y-53900040D01*
G75*
G02*
X59075000Y-54100040I0J-200000D01*
G01*
X59075000Y-54800040D01*
G75*
G02*
X58875000Y-55000040I-200000J0D01*
G01*
G37*
G36*
G01*
X59375000Y-55000040D02*
X59125000Y-55000040D01*
G75*
G02*
X58925000Y-54800040I0J200000D01*
G01*
X58925000Y-54100040D01*
G75*
G02*
X59125000Y-53900040I200000J0D01*
G01*
X59375000Y-53900040D01*
G75*
G02*
X59575000Y-54100040I0J-200000D01*
G01*
X59575000Y-54800040D01*
G75*
G02*
X59375000Y-55000040I-200000J0D01*
G01*
G37*
G36*
G01*
X59875000Y-55000040D02*
X59625000Y-55000040D01*
G75*
G02*
X59425000Y-54800040I0J200000D01*
G01*
X59425000Y-54100040D01*
G75*
G02*
X59625000Y-53900040I200000J0D01*
G01*
X59875000Y-53900040D01*
G75*
G02*
X60075000Y-54100040I0J-200000D01*
G01*
X60075000Y-54800040D01*
G75*
G02*
X59875000Y-55000040I-200000J0D01*
G01*
G37*
G36*
G01*
X60375000Y-55000040D02*
X60125000Y-55000040D01*
G75*
G02*
X59925000Y-54800040I0J200000D01*
G01*
X59925000Y-54100040D01*
G75*
G02*
X60125000Y-53900040I200000J0D01*
G01*
X60375000Y-53900040D01*
G75*
G02*
X60575000Y-54100040I0J-200000D01*
G01*
X60575000Y-54800040D01*
G75*
G02*
X60375000Y-55000040I-200000J0D01*
G01*
G37*
G36*
G01*
X60875000Y-55000040D02*
X60625000Y-55000040D01*
G75*
G02*
X60425000Y-54800040I0J200000D01*
G01*
X60425000Y-54100040D01*
G75*
G02*
X60625000Y-53900040I200000J0D01*
G01*
X60875000Y-53900040D01*
G75*
G02*
X61075000Y-54100040I0J-200000D01*
G01*
X61075000Y-54800040D01*
G75*
G02*
X60875000Y-55000040I-200000J0D01*
G01*
G37*
G36*
G01*
X61375000Y-55000040D02*
X61125000Y-55000040D01*
G75*
G02*
X60925000Y-54800040I0J200000D01*
G01*
X60925000Y-54100040D01*
G75*
G02*
X61125000Y-53900040I200000J0D01*
G01*
X61375000Y-53900040D01*
G75*
G02*
X61575000Y-54100040I0J-200000D01*
G01*
X61575000Y-54800040D01*
G75*
G02*
X61375000Y-55000040I-200000J0D01*
G01*
G37*
G36*
G01*
X61875000Y-55000040D02*
X61625000Y-55000040D01*
G75*
G02*
X61425000Y-54800040I0J200000D01*
G01*
X61425000Y-54100040D01*
G75*
G02*
X61625000Y-53900040I200000J0D01*
G01*
X61875000Y-53900040D01*
G75*
G02*
X62075000Y-54100040I0J-200000D01*
G01*
X62075000Y-54800040D01*
G75*
G02*
X61875000Y-55000040I-200000J0D01*
G01*
G37*
G36*
G01*
X62375000Y-55000040D02*
X62125000Y-55000040D01*
G75*
G02*
X61925000Y-54800040I0J200000D01*
G01*
X61925000Y-54100040D01*
G75*
G02*
X62125000Y-53900040I200000J0D01*
G01*
X62375000Y-53900040D01*
G75*
G02*
X62575000Y-54100040I0J-200000D01*
G01*
X62575000Y-54800040D01*
G75*
G02*
X62375000Y-55000040I-200000J0D01*
G01*
G37*
G36*
G01*
X62875000Y-55000040D02*
X62625000Y-55000040D01*
G75*
G02*
X62425000Y-54800040I0J200000D01*
G01*
X62425000Y-54100040D01*
G75*
G02*
X62625000Y-53900040I200000J0D01*
G01*
X62875000Y-53900040D01*
G75*
G02*
X63075000Y-54100040I0J-200000D01*
G01*
X63075000Y-54800040D01*
G75*
G02*
X62875000Y-55000040I-200000J0D01*
G01*
G37*
G36*
G01*
X63375000Y-55000040D02*
X63125000Y-55000040D01*
G75*
G02*
X62925000Y-54800040I0J200000D01*
G01*
X62925000Y-54100040D01*
G75*
G02*
X63125000Y-53900040I200000J0D01*
G01*
X63375000Y-53900040D01*
G75*
G02*
X63575000Y-54100040I0J-200000D01*
G01*
X63575000Y-54800040D01*
G75*
G02*
X63375000Y-55000040I-200000J0D01*
G01*
G37*
G36*
G01*
X63875000Y-55000040D02*
X63625000Y-55000040D01*
G75*
G02*
X63425000Y-54800040I0J200000D01*
G01*
X63425000Y-54100040D01*
G75*
G02*
X63625000Y-53900040I200000J0D01*
G01*
X63875000Y-53900040D01*
G75*
G02*
X64075000Y-54100040I0J-200000D01*
G01*
X64075000Y-54800040D01*
G75*
G02*
X63875000Y-55000040I-200000J0D01*
G01*
G37*
G36*
G01*
X64100000Y-55475040D02*
X64100000Y-55225040D01*
G75*
G02*
X64300000Y-55025040I200000J0D01*
G01*
X65000000Y-55025040D01*
G75*
G02*
X65200000Y-55225040I0J-200000D01*
G01*
X65200000Y-55475040D01*
G75*
G02*
X65000000Y-55675040I-200000J0D01*
G01*
X64300000Y-55675040D01*
G75*
G02*
X64100000Y-55475040I0J200000D01*
G01*
G37*
G36*
G01*
X64100000Y-55975040D02*
X64100000Y-55725040D01*
G75*
G02*
X64300000Y-55525040I200000J0D01*
G01*
X65000000Y-55525040D01*
G75*
G02*
X65200000Y-55725040I0J-200000D01*
G01*
X65200000Y-55975040D01*
G75*
G02*
X65000000Y-56175040I-200000J0D01*
G01*
X64300000Y-56175040D01*
G75*
G02*
X64100000Y-55975040I0J200000D01*
G01*
G37*
G36*
G01*
X64100000Y-56475040D02*
X64100000Y-56225040D01*
G75*
G02*
X64300000Y-56025040I200000J0D01*
G01*
X65000000Y-56025040D01*
G75*
G02*
X65200000Y-56225040I0J-200000D01*
G01*
X65200000Y-56475040D01*
G75*
G02*
X65000000Y-56675040I-200000J0D01*
G01*
X64300000Y-56675040D01*
G75*
G02*
X64100000Y-56475040I0J200000D01*
G01*
G37*
G36*
G01*
X64100000Y-56975040D02*
X64100000Y-56725040D01*
G75*
G02*
X64300000Y-56525040I200000J0D01*
G01*
X65000000Y-56525040D01*
G75*
G02*
X65200000Y-56725040I0J-200000D01*
G01*
X65200000Y-56975040D01*
G75*
G02*
X65000000Y-57175040I-200000J0D01*
G01*
X64300000Y-57175040D01*
G75*
G02*
X64100000Y-56975040I0J200000D01*
G01*
G37*
G36*
G01*
X64100000Y-57475040D02*
X64100000Y-57225040D01*
G75*
G02*
X64300000Y-57025040I200000J0D01*
G01*
X65000000Y-57025040D01*
G75*
G02*
X65200000Y-57225040I0J-200000D01*
G01*
X65200000Y-57475040D01*
G75*
G02*
X65000000Y-57675040I-200000J0D01*
G01*
X64300000Y-57675040D01*
G75*
G02*
X64100000Y-57475040I0J200000D01*
G01*
G37*
G36*
G01*
X64100000Y-57975040D02*
X64100000Y-57725040D01*
G75*
G02*
X64300000Y-57525040I200000J0D01*
G01*
X65000000Y-57525040D01*
G75*
G02*
X65200000Y-57725040I0J-200000D01*
G01*
X65200000Y-57975040D01*
G75*
G02*
X65000000Y-58175040I-200000J0D01*
G01*
X64300000Y-58175040D01*
G75*
G02*
X64100000Y-57975040I0J200000D01*
G01*
G37*
G36*
G01*
X64100000Y-58475040D02*
X64100000Y-58225040D01*
G75*
G02*
X64300000Y-58025040I200000J0D01*
G01*
X65000000Y-58025040D01*
G75*
G02*
X65200000Y-58225040I0J-200000D01*
G01*
X65200000Y-58475040D01*
G75*
G02*
X65000000Y-58675040I-200000J0D01*
G01*
X64300000Y-58675040D01*
G75*
G02*
X64100000Y-58475040I0J200000D01*
G01*
G37*
G36*
G01*
X64100000Y-58975040D02*
X64100000Y-58725040D01*
G75*
G02*
X64300000Y-58525040I200000J0D01*
G01*
X65000000Y-58525040D01*
G75*
G02*
X65200000Y-58725040I0J-200000D01*
G01*
X65200000Y-58975040D01*
G75*
G02*
X65000000Y-59175040I-200000J0D01*
G01*
X64300000Y-59175040D01*
G75*
G02*
X64100000Y-58975040I0J200000D01*
G01*
G37*
G36*
G01*
X64100000Y-59475040D02*
X64100000Y-59225040D01*
G75*
G02*
X64300000Y-59025040I200000J0D01*
G01*
X65000000Y-59025040D01*
G75*
G02*
X65200000Y-59225040I0J-200000D01*
G01*
X65200000Y-59475040D01*
G75*
G02*
X65000000Y-59675040I-200000J0D01*
G01*
X64300000Y-59675040D01*
G75*
G02*
X64100000Y-59475040I0J200000D01*
G01*
G37*
G36*
G01*
X64100000Y-59975040D02*
X64100000Y-59725040D01*
G75*
G02*
X64300000Y-59525040I200000J0D01*
G01*
X65000000Y-59525040D01*
G75*
G02*
X65200000Y-59725040I0J-200000D01*
G01*
X65200000Y-59975040D01*
G75*
G02*
X65000000Y-60175040I-200000J0D01*
G01*
X64300000Y-60175040D01*
G75*
G02*
X64100000Y-59975040I0J200000D01*
G01*
G37*
G36*
G01*
X64100000Y-60475040D02*
X64100000Y-60225040D01*
G75*
G02*
X64300000Y-60025040I200000J0D01*
G01*
X65000000Y-60025040D01*
G75*
G02*
X65200000Y-60225040I0J-200000D01*
G01*
X65200000Y-60475040D01*
G75*
G02*
X65000000Y-60675040I-200000J0D01*
G01*
X64300000Y-60675040D01*
G75*
G02*
X64100000Y-60475040I0J200000D01*
G01*
G37*
G36*
G01*
X59962500Y-56762540D02*
X58675000Y-56762540D01*
G75*
G02*
X58475000Y-56562540I0J200000D01*
G01*
X58475000Y-55275040D01*
G75*
G02*
X58675000Y-55075040I200000J0D01*
G01*
X59962500Y-55075040D01*
G75*
G02*
X60162500Y-55275040I0J-200000D01*
G01*
X60162500Y-56562540D01*
G75*
G02*
X59962500Y-56762540I-200000J0D01*
G01*
G37*
G36*
G01*
X61250000Y-56762540D02*
X59962500Y-56762540D01*
G75*
G02*
X59762500Y-56562540I0J200000D01*
G01*
X59762500Y-55275040D01*
G75*
G02*
X59962500Y-55075040I200000J0D01*
G01*
X61250000Y-55075040D01*
G75*
G02*
X61450000Y-55275040I0J-200000D01*
G01*
X61450000Y-56562540D01*
G75*
G02*
X61250000Y-56762540I-200000J0D01*
G01*
G37*
G36*
G01*
X62537500Y-56762540D02*
X61250000Y-56762540D01*
G75*
G02*
X61050000Y-56562540I0J200000D01*
G01*
X61050000Y-55275040D01*
G75*
G02*
X61250000Y-55075040I200000J0D01*
G01*
X62537500Y-55075040D01*
G75*
G02*
X62737500Y-55275040I0J-200000D01*
G01*
X62737500Y-56562540D01*
G75*
G02*
X62537500Y-56762540I-200000J0D01*
G01*
G37*
G36*
G01*
X63825000Y-56762540D02*
X62537500Y-56762540D01*
G75*
G02*
X62337500Y-56562540I0J200000D01*
G01*
X62337500Y-55275040D01*
G75*
G02*
X62537500Y-55075040I200000J0D01*
G01*
X63825000Y-55075040D01*
G75*
G02*
X64025000Y-55275040I0J-200000D01*
G01*
X64025000Y-56562540D01*
G75*
G02*
X63825000Y-56762540I-200000J0D01*
G01*
G37*
G36*
G01*
X59962500Y-58050040D02*
X58675000Y-58050040D01*
G75*
G02*
X58475000Y-57850040I0J200000D01*
G01*
X58475000Y-56562540D01*
G75*
G02*
X58675000Y-56362540I200000J0D01*
G01*
X59962500Y-56362540D01*
G75*
G02*
X60162500Y-56562540I0J-200000D01*
G01*
X60162500Y-57850040D01*
G75*
G02*
X59962500Y-58050040I-200000J0D01*
G01*
G37*
G36*
G01*
X61250000Y-58050040D02*
X59962500Y-58050040D01*
G75*
G02*
X59762500Y-57850040I0J200000D01*
G01*
X59762500Y-56562540D01*
G75*
G02*
X59962500Y-56362540I200000J0D01*
G01*
X61250000Y-56362540D01*
G75*
G02*
X61450000Y-56562540I0J-200000D01*
G01*
X61450000Y-57850040D01*
G75*
G02*
X61250000Y-58050040I-200000J0D01*
G01*
G37*
G36*
G01*
X62537500Y-58050040D02*
X61250000Y-58050040D01*
G75*
G02*
X61050000Y-57850040I0J200000D01*
G01*
X61050000Y-56562540D01*
G75*
G02*
X61250000Y-56362540I200000J0D01*
G01*
X62537500Y-56362540D01*
G75*
G02*
X62737500Y-56562540I0J-200000D01*
G01*
X62737500Y-57850040D01*
G75*
G02*
X62537500Y-58050040I-200000J0D01*
G01*
G37*
G36*
G01*
X63825000Y-58050040D02*
X62537500Y-58050040D01*
G75*
G02*
X62337500Y-57850040I0J200000D01*
G01*
X62337500Y-56562540D01*
G75*
G02*
X62537500Y-56362540I200000J0D01*
G01*
X63825000Y-56362540D01*
G75*
G02*
X64025000Y-56562540I0J-200000D01*
G01*
X64025000Y-57850040D01*
G75*
G02*
X63825000Y-58050040I-200000J0D01*
G01*
G37*
G36*
G01*
X59962500Y-59337540D02*
X58675000Y-59337540D01*
G75*
G02*
X58475000Y-59137540I0J200000D01*
G01*
X58475000Y-57850040D01*
G75*
G02*
X58675000Y-57650040I200000J0D01*
G01*
X59962500Y-57650040D01*
G75*
G02*
X60162500Y-57850040I0J-200000D01*
G01*
X60162500Y-59137540D01*
G75*
G02*
X59962500Y-59337540I-200000J0D01*
G01*
G37*
G36*
G01*
X61250000Y-59337540D02*
X59962500Y-59337540D01*
G75*
G02*
X59762500Y-59137540I0J200000D01*
G01*
X59762500Y-57850040D01*
G75*
G02*
X59962500Y-57650040I200000J0D01*
G01*
X61250000Y-57650040D01*
G75*
G02*
X61450000Y-57850040I0J-200000D01*
G01*
X61450000Y-59137540D01*
G75*
G02*
X61250000Y-59337540I-200000J0D01*
G01*
G37*
G36*
G01*
X62537500Y-59337540D02*
X61250000Y-59337540D01*
G75*
G02*
X61050000Y-59137540I0J200000D01*
G01*
X61050000Y-57850040D01*
G75*
G02*
X61250000Y-57650040I200000J0D01*
G01*
X62537500Y-57650040D01*
G75*
G02*
X62737500Y-57850040I0J-200000D01*
G01*
X62737500Y-59137540D01*
G75*
G02*
X62537500Y-59337540I-200000J0D01*
G01*
G37*
G36*
G01*
X63825000Y-59337540D02*
X62537500Y-59337540D01*
G75*
G02*
X62337500Y-59137540I0J200000D01*
G01*
X62337500Y-57850040D01*
G75*
G02*
X62537500Y-57650040I200000J0D01*
G01*
X63825000Y-57650040D01*
G75*
G02*
X64025000Y-57850040I0J-200000D01*
G01*
X64025000Y-59137540D01*
G75*
G02*
X63825000Y-59337540I-200000J0D01*
G01*
G37*
G36*
G01*
X59962500Y-60625040D02*
X58675000Y-60625040D01*
G75*
G02*
X58475000Y-60425040I0J200000D01*
G01*
X58475000Y-59137540D01*
G75*
G02*
X58675000Y-58937540I200000J0D01*
G01*
X59962500Y-58937540D01*
G75*
G02*
X60162500Y-59137540I0J-200000D01*
G01*
X60162500Y-60425040D01*
G75*
G02*
X59962500Y-60625040I-200000J0D01*
G01*
G37*
G36*
G01*
X61250000Y-60625040D02*
X59962500Y-60625040D01*
G75*
G02*
X59762500Y-60425040I0J200000D01*
G01*
X59762500Y-59137540D01*
G75*
G02*
X59962500Y-58937540I200000J0D01*
G01*
X61250000Y-58937540D01*
G75*
G02*
X61450000Y-59137540I0J-200000D01*
G01*
X61450000Y-60425040D01*
G75*
G02*
X61250000Y-60625040I-200000J0D01*
G01*
G37*
G36*
G01*
X62537500Y-60625040D02*
X61250000Y-60625040D01*
G75*
G02*
X61050000Y-60425040I0J200000D01*
G01*
X61050000Y-59137540D01*
G75*
G02*
X61250000Y-58937540I200000J0D01*
G01*
X62537500Y-58937540D01*
G75*
G02*
X62737500Y-59137540I0J-200000D01*
G01*
X62737500Y-60425040D01*
G75*
G02*
X62537500Y-60625040I-200000J0D01*
G01*
G37*
G36*
G01*
X63825000Y-60625040D02*
X62537500Y-60625040D01*
G75*
G02*
X62337500Y-60425040I0J200000D01*
G01*
X62337500Y-59137540D01*
G75*
G02*
X62537500Y-58937540I200000J0D01*
G01*
X63825000Y-58937540D01*
G75*
G02*
X64025000Y-59137540I0J-200000D01*
G01*
X64025000Y-60425040D01*
G75*
G02*
X63825000Y-60625040I-200000J0D01*
G01*
G37*
G36*
G01*
X24850000Y-34550040D02*
X23650000Y-34550040D01*
G75*
G02*
X23450000Y-34350040I0J200000D01*
G01*
X23450000Y-33450040D01*
G75*
G02*
X23650000Y-33250040I200000J0D01*
G01*
X24850000Y-33250040D01*
G75*
G02*
X25050000Y-33450040I0J-200000D01*
G01*
X25050000Y-34350040D01*
G75*
G02*
X24850000Y-34550040I-200000J0D01*
G01*
G37*
G36*
G01*
X24850000Y-31250040D02*
X23650000Y-31250040D01*
G75*
G02*
X23450000Y-31050040I0J200000D01*
G01*
X23450000Y-30150040D01*
G75*
G02*
X23650000Y-29950040I200000J0D01*
G01*
X24850000Y-29950040D01*
G75*
G02*
X25050000Y-30150040I0J-200000D01*
G01*
X25050000Y-31050040D01*
G75*
G02*
X24850000Y-31250040I-200000J0D01*
G01*
G37*
G36*
G01*
X62450000Y-33250040D02*
X61250000Y-33250040D01*
G75*
G02*
X61050000Y-33050040I0J200000D01*
G01*
X61050000Y-32150040D01*
G75*
G02*
X61250000Y-31950040I200000J0D01*
G01*
X62450000Y-31950040D01*
G75*
G02*
X62650000Y-32150040I0J-200000D01*
G01*
X62650000Y-33050040D01*
G75*
G02*
X62450000Y-33250040I-200000J0D01*
G01*
G37*
G36*
G01*
X62450000Y-36550040D02*
X61250000Y-36550040D01*
G75*
G02*
X61050000Y-36350040I0J200000D01*
G01*
X61050000Y-35450040D01*
G75*
G02*
X61250000Y-35250040I200000J0D01*
G01*
X62450000Y-35250040D01*
G75*
G02*
X62650000Y-35450040I0J-200000D01*
G01*
X62650000Y-36350040D01*
G75*
G02*
X62450000Y-36550040I-200000J0D01*
G01*
G37*
G36*
G01*
X79250000Y-36350040D02*
X78050000Y-36350040D01*
G75*
G02*
X77850000Y-36150040I0J200000D01*
G01*
X77850000Y-35250040D01*
G75*
G02*
X78050000Y-35050040I200000J0D01*
G01*
X79250000Y-35050040D01*
G75*
G02*
X79450000Y-35250040I0J-200000D01*
G01*
X79450000Y-36150040D01*
G75*
G02*
X79250000Y-36350040I-200000J0D01*
G01*
G37*
G36*
G01*
X79250000Y-33050040D02*
X78050000Y-33050040D01*
G75*
G02*
X77850000Y-32850040I0J200000D01*
G01*
X77850000Y-31950040D01*
G75*
G02*
X78050000Y-31750040I200000J0D01*
G01*
X79250000Y-31750040D01*
G75*
G02*
X79450000Y-31950040I0J-200000D01*
G01*
X79450000Y-32850040D01*
G75*
G02*
X79250000Y-33050040I-200000J0D01*
G01*
G37*
G36*
G01*
X72150000Y-71050040D02*
X70950000Y-71050040D01*
G75*
G02*
X70750000Y-70850040I0J200000D01*
G01*
X70750000Y-69950040D01*
G75*
G02*
X70950000Y-69750040I200000J0D01*
G01*
X72150000Y-69750040D01*
G75*
G02*
X72350000Y-69950040I0J-200000D01*
G01*
X72350000Y-70850040D01*
G75*
G02*
X72150000Y-71050040I-200000J0D01*
G01*
G37*
G36*
G01*
X72150000Y-74350040D02*
X70950000Y-74350040D01*
G75*
G02*
X70750000Y-74150040I0J200000D01*
G01*
X70750000Y-73250040D01*
G75*
G02*
X70950000Y-73050040I200000J0D01*
G01*
X72150000Y-73050040D01*
G75*
G02*
X72350000Y-73250040I0J-200000D01*
G01*
X72350000Y-74150040D01*
G75*
G02*
X72150000Y-74350040I-200000J0D01*
G01*
G37*
G36*
G01*
X91250000Y-74350040D02*
X90050000Y-74350040D01*
G75*
G02*
X89850000Y-74150040I0J200000D01*
G01*
X89850000Y-73250040D01*
G75*
G02*
X90050000Y-73050040I200000J0D01*
G01*
X91250000Y-73050040D01*
G75*
G02*
X91450000Y-73250040I0J-200000D01*
G01*
X91450000Y-74150040D01*
G75*
G02*
X91250000Y-74350040I-200000J0D01*
G01*
G37*
G36*
G01*
X91250000Y-71050040D02*
X90050000Y-71050040D01*
G75*
G02*
X89850000Y-70850040I0J200000D01*
G01*
X89850000Y-69950040D01*
G75*
G02*
X90050000Y-69750040I200000J0D01*
G01*
X91250000Y-69750040D01*
G75*
G02*
X91450000Y-69950040I0J-200000D01*
G01*
X91450000Y-70850040D01*
G75*
G02*
X91250000Y-71050040I-200000J0D01*
G01*
G37*
G36*
G01*
X110250000Y-71050040D02*
X109050000Y-71050040D01*
G75*
G02*
X108850000Y-70850040I0J200000D01*
G01*
X108850000Y-69950040D01*
G75*
G02*
X109050000Y-69750040I200000J0D01*
G01*
X110250000Y-69750040D01*
G75*
G02*
X110450000Y-69950040I0J-200000D01*
G01*
X110450000Y-70850040D01*
G75*
G02*
X110250000Y-71050040I-200000J0D01*
G01*
G37*
G36*
G01*
X110250000Y-74350040D02*
X109050000Y-74350040D01*
G75*
G02*
X108850000Y-74150040I0J200000D01*
G01*
X108850000Y-73250040D01*
G75*
G02*
X109050000Y-73050040I200000J0D01*
G01*
X110250000Y-73050040D01*
G75*
G02*
X110450000Y-73250040I0J-200000D01*
G01*
X110450000Y-74150040D01*
G75*
G02*
X110250000Y-74350040I-200000J0D01*
G01*
G37*
G36*
G01*
X136650000Y-35950040D02*
X135450000Y-35950040D01*
G75*
G02*
X135250000Y-35750040I0J200000D01*
G01*
X135250000Y-34850040D01*
G75*
G02*
X135450000Y-34650040I200000J0D01*
G01*
X136650000Y-34650040D01*
G75*
G02*
X136850000Y-34850040I0J-200000D01*
G01*
X136850000Y-35750040D01*
G75*
G02*
X136650000Y-35950040I-200000J0D01*
G01*
G37*
G36*
G01*
X136650000Y-32650040D02*
X135450000Y-32650040D01*
G75*
G02*
X135250000Y-32450040I0J200000D01*
G01*
X135250000Y-31550040D01*
G75*
G02*
X135450000Y-31350040I200000J0D01*
G01*
X136650000Y-31350040D01*
G75*
G02*
X136850000Y-31550040I0J-200000D01*
G01*
X136850000Y-32450040D01*
G75*
G02*
X136650000Y-32650040I-200000J0D01*
G01*
G37*
G36*
G01*
X145450000Y-70850040D02*
X144250000Y-70850040D01*
G75*
G02*
X144050000Y-70650040I0J200000D01*
G01*
X144050000Y-69750040D01*
G75*
G02*
X144250000Y-69550040I200000J0D01*
G01*
X145450000Y-69550040D01*
G75*
G02*
X145650000Y-69750040I0J-200000D01*
G01*
X145650000Y-70650040D01*
G75*
G02*
X145450000Y-70850040I-200000J0D01*
G01*
G37*
G36*
G01*
X145450000Y-74150040D02*
X144250000Y-74150040D01*
G75*
G02*
X144050000Y-73950040I0J200000D01*
G01*
X144050000Y-73050040D01*
G75*
G02*
X144250000Y-72850040I200000J0D01*
G01*
X145450000Y-72850040D01*
G75*
G02*
X145650000Y-73050040I0J-200000D01*
G01*
X145650000Y-73950040D01*
G75*
G02*
X145450000Y-74150040I-200000J0D01*
G01*
G37*
G36*
G01*
X183250000Y-74350040D02*
X182050000Y-74350040D01*
G75*
G02*
X181850000Y-74150040I0J200000D01*
G01*
X181850000Y-73250040D01*
G75*
G02*
X182050000Y-73050040I200000J0D01*
G01*
X183250000Y-73050040D01*
G75*
G02*
X183450000Y-73250040I0J-200000D01*
G01*
X183450000Y-74150040D01*
G75*
G02*
X183250000Y-74350040I-200000J0D01*
G01*
G37*
G36*
G01*
X183250000Y-71050040D02*
X182050000Y-71050040D01*
G75*
G02*
X181850000Y-70850040I0J200000D01*
G01*
X181850000Y-69950040D01*
G75*
G02*
X182050000Y-69750040I200000J0D01*
G01*
X183250000Y-69750040D01*
G75*
G02*
X183450000Y-69950040I0J-200000D01*
G01*
X183450000Y-70850040D01*
G75*
G02*
X183250000Y-71050040I-200000J0D01*
G01*
G37*
G36*
G01*
X186050000Y-102450040D02*
X184850000Y-102450040D01*
G75*
G02*
X184650000Y-102250040I0J200000D01*
G01*
X184650000Y-101350040D01*
G75*
G02*
X184850000Y-101150040I200000J0D01*
G01*
X186050000Y-101150040D01*
G75*
G02*
X186250000Y-101350040I0J-200000D01*
G01*
X186250000Y-102250040D01*
G75*
G02*
X186050000Y-102450040I-200000J0D01*
G01*
G37*
G36*
G01*
X186050000Y-105750040D02*
X184850000Y-105750040D01*
G75*
G02*
X184650000Y-105550040I0J200000D01*
G01*
X184650000Y-104650040D01*
G75*
G02*
X184850000Y-104450040I200000J0D01*
G01*
X186050000Y-104450040D01*
G75*
G02*
X186250000Y-104650040I0J-200000D01*
G01*
X186250000Y-105550040D01*
G75*
G02*
X186050000Y-105750040I-200000J0D01*
G01*
G37*
G36*
G01*
X206850000Y-112500000D02*
X205650000Y-112500000D01*
G75*
G02*
X205450000Y-112300000I0J200000D01*
G01*
X205450000Y-111400000D01*
G75*
G02*
X205650000Y-111200000I200000J0D01*
G01*
X206850000Y-111200000D01*
G75*
G02*
X207050000Y-111400000I0J-200000D01*
G01*
X207050000Y-112300000D01*
G75*
G02*
X206850000Y-112500000I-200000J0D01*
G01*
G37*
G36*
G01*
X206850000Y-109200000D02*
X205650000Y-109200000D01*
G75*
G02*
X205450000Y-109000000I0J200000D01*
G01*
X205450000Y-108100000D01*
G75*
G02*
X205650000Y-107900000I200000J0D01*
G01*
X206850000Y-107900000D01*
G75*
G02*
X207050000Y-108100000I0J-200000D01*
G01*
X207050000Y-109000000D01*
G75*
G02*
X206850000Y-109200000I-200000J0D01*
G01*
G37*
G36*
G01*
X224250000Y-71050040D02*
X223050000Y-71050040D01*
G75*
G02*
X222850000Y-70850040I0J200000D01*
G01*
X222850000Y-69950040D01*
G75*
G02*
X223050000Y-69750040I200000J0D01*
G01*
X224250000Y-69750040D01*
G75*
G02*
X224450000Y-69950040I0J-200000D01*
G01*
X224450000Y-70850040D01*
G75*
G02*
X224250000Y-71050040I-200000J0D01*
G01*
G37*
G36*
G01*
X224250000Y-74350040D02*
X223050000Y-74350040D01*
G75*
G02*
X222850000Y-74150040I0J200000D01*
G01*
X222850000Y-73250040D01*
G75*
G02*
X223050000Y-73050040I200000J0D01*
G01*
X224250000Y-73050040D01*
G75*
G02*
X224450000Y-73250040I0J-200000D01*
G01*
X224450000Y-74150040D01*
G75*
G02*
X224250000Y-74350040I-200000J0D01*
G01*
G37*
G36*
G01*
X253250000Y-92950040D02*
X252050000Y-92950040D01*
G75*
G02*
X251850000Y-92750040I0J200000D01*
G01*
X251850000Y-91850040D01*
G75*
G02*
X252050000Y-91650040I200000J0D01*
G01*
X253250000Y-91650040D01*
G75*
G02*
X253450000Y-91850040I0J-200000D01*
G01*
X253450000Y-92750040D01*
G75*
G02*
X253250000Y-92950040I-200000J0D01*
G01*
G37*
G36*
G01*
X253250000Y-89650040D02*
X252050000Y-89650040D01*
G75*
G02*
X251850000Y-89450040I0J200000D01*
G01*
X251850000Y-88550040D01*
G75*
G02*
X252050000Y-88350040I200000J0D01*
G01*
X253250000Y-88350040D01*
G75*
G02*
X253450000Y-88550040I0J-200000D01*
G01*
X253450000Y-89450040D01*
G75*
G02*
X253250000Y-89650040I-200000J0D01*
G01*
G37*
G36*
G01*
X269850000Y-108850040D02*
X268650000Y-108850040D01*
G75*
G02*
X268450000Y-108650040I0J200000D01*
G01*
X268450000Y-107750040D01*
G75*
G02*
X268650000Y-107550040I200000J0D01*
G01*
X269850000Y-107550040D01*
G75*
G02*
X270050000Y-107750040I0J-200000D01*
G01*
X270050000Y-108650040D01*
G75*
G02*
X269850000Y-108850040I-200000J0D01*
G01*
G37*
G36*
G01*
X269850000Y-112150040D02*
X268650000Y-112150040D01*
G75*
G02*
X268450000Y-111950040I0J200000D01*
G01*
X268450000Y-111050040D01*
G75*
G02*
X268650000Y-110850040I200000J0D01*
G01*
X269850000Y-110850040D01*
G75*
G02*
X270050000Y-111050040I0J-200000D01*
G01*
X270050000Y-111950040D01*
G75*
G02*
X269850000Y-112150040I-200000J0D01*
G01*
G37*
G36*
G01*
X288850000Y-112150040D02*
X287650000Y-112150040D01*
G75*
G02*
X287450000Y-111950040I0J200000D01*
G01*
X287450000Y-111050040D01*
G75*
G02*
X287650000Y-110850040I200000J0D01*
G01*
X288850000Y-110850040D01*
G75*
G02*
X289050000Y-111050040I0J-200000D01*
G01*
X289050000Y-111950040D01*
G75*
G02*
X288850000Y-112150040I-200000J0D01*
G01*
G37*
G36*
G01*
X288850000Y-108850040D02*
X287650000Y-108850040D01*
G75*
G02*
X287450000Y-108650040I0J200000D01*
G01*
X287450000Y-107750040D01*
G75*
G02*
X287650000Y-107550040I200000J0D01*
G01*
X288850000Y-107550040D01*
G75*
G02*
X289050000Y-107750040I0J-200000D01*
G01*
X289050000Y-108650040D01*
G75*
G02*
X288850000Y-108850040I-200000J0D01*
G01*
G37*
G36*
G01*
X63250000Y-92450040D02*
X62050000Y-92450040D01*
G75*
G02*
X61850000Y-92250040I0J200000D01*
G01*
X61850000Y-91350040D01*
G75*
G02*
X62050000Y-91150040I200000J0D01*
G01*
X63250000Y-91150040D01*
G75*
G02*
X63450000Y-91350040I0J-200000D01*
G01*
X63450000Y-92250040D01*
G75*
G02*
X63250000Y-92450040I-200000J0D01*
G01*
G37*
G36*
G01*
X63250000Y-95750040D02*
X62050000Y-95750040D01*
G75*
G02*
X61850000Y-95550040I0J200000D01*
G01*
X61850000Y-94650040D01*
G75*
G02*
X62050000Y-94450040I200000J0D01*
G01*
X63250000Y-94450040D01*
G75*
G02*
X63450000Y-94650040I0J-200000D01*
G01*
X63450000Y-95550040D01*
G75*
G02*
X63250000Y-95750040I-200000J0D01*
G01*
G37*
G36*
G01*
X64686955Y-92050040D02*
X65813045Y-92050040D01*
G75*
G02*
X66150000Y-92386995I0J-336955D01*
G01*
X66150000Y-93263085D01*
G75*
G02*
X65813045Y-93600040I-336955J0D01*
G01*
X64686955Y-93600040D01*
G75*
G02*
X64350000Y-93263085I0J336955D01*
G01*
X64350000Y-92386995D01*
G75*
G02*
X64686955Y-92050040I336955J0D01*
G01*
G37*
G36*
G01*
X64686955Y-94100040D02*
X65813045Y-94100040D01*
G75*
G02*
X66150000Y-94436995I0J-336955D01*
G01*
X66150000Y-95313085D01*
G75*
G02*
X65813045Y-95650040I-336955J0D01*
G01*
X64686955Y-95650040D01*
G75*
G02*
X64350000Y-95313085I0J336955D01*
G01*
X64350000Y-94436995D01*
G75*
G02*
X64686955Y-94100040I336955J0D01*
G01*
G37*
G36*
G01*
X298080640Y-46995160D02*
X298080640Y-44495160D01*
G75*
G02*
X298280640Y-44295160I200000J0D01*
G01*
X300830640Y-44295160D01*
G75*
G02*
X301030640Y-44495160I0J-200000D01*
G01*
X301030640Y-46995160D01*
G75*
G02*
X300830640Y-47195160I-200000J0D01*
G01*
X298280640Y-47195160D01*
G75*
G02*
X298080640Y-46995160I0J200000D01*
G01*
G37*
G36*
G01*
X285153640Y-49535160D02*
X285153640Y-47035160D01*
G75*
G02*
X285353640Y-46835160I200000J0D01*
G01*
X287903640Y-46835160D01*
G75*
G02*
X288103640Y-47035160I0J-200000D01*
G01*
X288103640Y-49535160D01*
G75*
G02*
X287903640Y-49735160I-200000J0D01*
G01*
X285353640Y-49735160D01*
G75*
G02*
X285153640Y-49535160I0J200000D01*
G01*
G37*
X298793640Y-50825160D03*
X288633640Y-50825160D03*
D15*
X289903640Y-48285160D03*
D16*
X293713640Y-50825160D03*
D15*
X296253640Y-45745160D03*
G36*
G01*
X33271347Y-99252828D02*
X35271347Y-99252828D01*
G75*
G02*
X35471347Y-99452828I0J-200000D01*
G01*
X35471347Y-101452828D01*
G75*
G02*
X35271347Y-101652828I-200000J0D01*
G01*
X33271347Y-101652828D01*
G75*
G02*
X33071347Y-101452828I0J200000D01*
G01*
X33071347Y-99452828D01*
G75*
G02*
X33271347Y-99252828I200000J0D01*
G01*
G37*
D18*
X31771347Y-100452828D03*
X29271347Y-100452828D03*
G36*
G01*
X36371347Y-106152828D02*
X38371347Y-106152828D01*
G75*
G02*
X38571347Y-106352828I0J-200000D01*
G01*
X38571347Y-109552828D01*
G75*
G02*
X38371347Y-109752828I-200000J0D01*
G01*
X36371347Y-109752828D01*
G75*
G02*
X36171347Y-109552828I0J200000D01*
G01*
X36171347Y-106352828D01*
G75*
G02*
X36371347Y-106152828I200000J0D01*
G01*
G37*
G36*
G01*
X25171347Y-106152828D02*
X27171347Y-106152828D01*
G75*
G02*
X27371347Y-106352828I0J-200000D01*
G01*
X27371347Y-109552828D01*
G75*
G02*
X27171347Y-109752828I-200000J0D01*
G01*
X25171347Y-109752828D01*
G75*
G02*
X24971347Y-109552828I0J200000D01*
G01*
X24971347Y-106352828D01*
G75*
G02*
X25171347Y-106152828I200000J0D01*
G01*
G37*
X34271347Y-114952828D03*
X29271347Y-114952828D03*
D20*
X37801552Y-28187233D03*
X38651552Y-28187233D03*
X39501552Y-28187233D03*
X40351552Y-28187233D03*
X41201552Y-28187233D03*
X42051552Y-28187233D03*
X42901552Y-28187233D03*
X43751552Y-28187233D03*
X38651552Y-26837233D03*
X40351552Y-26837233D03*
X39501552Y-26837233D03*
X37801552Y-26837233D03*
X42051552Y-26837233D03*
X42901552Y-26837233D03*
X43751552Y-26837233D03*
X41201552Y-26837233D03*
D21*
X36451552Y-27207233D03*
X45101552Y-27207233D03*
D22*
X36451552Y-23827233D03*
X45101552Y-23827233D03*
G36*
G01*
X298080640Y-66045240D02*
X298080640Y-63545240D01*
G75*
G02*
X298280640Y-63345240I200000J0D01*
G01*
X300830640Y-63345240D01*
G75*
G02*
X301030640Y-63545240I0J-200000D01*
G01*
X301030640Y-66045240D01*
G75*
G02*
X300830640Y-66245240I-200000J0D01*
G01*
X298280640Y-66245240D01*
G75*
G02*
X298080640Y-66045240I0J200000D01*
G01*
G37*
G36*
G01*
X285153640Y-68585240D02*
X285153640Y-66085240D01*
G75*
G02*
X285353640Y-65885240I200000J0D01*
G01*
X287903640Y-65885240D01*
G75*
G02*
X288103640Y-66085240I0J-200000D01*
G01*
X288103640Y-68585240D01*
G75*
G02*
X287903640Y-68785240I-200000J0D01*
G01*
X285353640Y-68785240D01*
G75*
G02*
X285153640Y-68585240I0J200000D01*
G01*
G37*
D17*
X298793640Y-69875240D03*
X288633640Y-69875240D03*
D15*
X289903640Y-67335240D03*
D16*
X293713640Y-69875240D03*
D15*
X296253640Y-64795240D03*
X277203560Y-45745160D03*
D16*
X274663560Y-50825160D03*
D15*
X270853560Y-48285160D03*
D17*
X269583560Y-50825160D03*
X279743560Y-50825160D03*
G36*
G01*
X266103560Y-49535160D02*
X266103560Y-47035160D01*
G75*
G02*
X266303560Y-46835160I200000J0D01*
G01*
X268853560Y-46835160D01*
G75*
G02*
X269053560Y-47035160I0J-200000D01*
G01*
X269053560Y-49535160D01*
G75*
G02*
X268853560Y-49735160I-200000J0D01*
G01*
X266303560Y-49735160D01*
G75*
G02*
X266103560Y-49535160I0J200000D01*
G01*
G37*
G36*
G01*
X279030560Y-46995160D02*
X279030560Y-44495160D01*
G75*
G02*
X279230560Y-44295160I200000J0D01*
G01*
X281780560Y-44295160D01*
G75*
G02*
X281980560Y-44495160I0J-200000D01*
G01*
X281980560Y-46995160D01*
G75*
G02*
X281780560Y-47195160I-200000J0D01*
G01*
X279230560Y-47195160D01*
G75*
G02*
X279030560Y-46995160I0J200000D01*
G01*
G37*
G36*
G01*
X294109160Y-54655160D02*
X294109160Y-57155160D01*
G75*
G02*
X293909160Y-57355160I-200000J0D01*
G01*
X291359160Y-57355160D01*
G75*
G02*
X291159160Y-57155160I0J200000D01*
G01*
X291159160Y-54655160D01*
G75*
G02*
X291359160Y-54455160I200000J0D01*
G01*
X293909160Y-54455160D01*
G75*
G02*
X294109160Y-54655160I0J-200000D01*
G01*
G37*
G36*
G01*
X307036160Y-52115160D02*
X307036160Y-54615160D01*
G75*
G02*
X306836160Y-54815160I-200000J0D01*
G01*
X304286160Y-54815160D01*
G75*
G02*
X304086160Y-54615160I0J200000D01*
G01*
X304086160Y-52115160D01*
G75*
G02*
X304286160Y-51915160I200000J0D01*
G01*
X306836160Y-51915160D01*
G75*
G02*
X307036160Y-52115160I0J-200000D01*
G01*
G37*
X293396160Y-50825160D03*
X303556160Y-50825160D03*
D15*
X302286160Y-53365160D03*
D16*
X298476160Y-50825160D03*
D15*
X295936160Y-55905160D03*
G36*
G01*
X294109160Y-73705240D02*
X294109160Y-76205240D01*
G75*
G02*
X293909160Y-76405240I-200000J0D01*
G01*
X291359160Y-76405240D01*
G75*
G02*
X291159160Y-76205240I0J200000D01*
G01*
X291159160Y-73705240D01*
G75*
G02*
X291359160Y-73505240I200000J0D01*
G01*
X293909160Y-73505240D01*
G75*
G02*
X294109160Y-73705240I0J-200000D01*
G01*
G37*
G36*
G01*
X307036160Y-71165240D02*
X307036160Y-73665240D01*
G75*
G02*
X306836160Y-73865240I-200000J0D01*
G01*
X304286160Y-73865240D01*
G75*
G02*
X304086160Y-73665240I0J200000D01*
G01*
X304086160Y-71165240D01*
G75*
G02*
X304286160Y-70965240I200000J0D01*
G01*
X306836160Y-70965240D01*
G75*
G02*
X307036160Y-71165240I0J-200000D01*
G01*
G37*
D17*
X293396160Y-69875240D03*
X303556160Y-69875240D03*
D15*
X302286160Y-72415240D03*
D16*
X298476160Y-69875240D03*
D15*
X295936160Y-74955240D03*
G36*
G01*
X100436060Y-104145400D02*
X100436060Y-101645400D01*
G75*
G02*
X100636060Y-101445400I200000J0D01*
G01*
X103186060Y-101445400D01*
G75*
G02*
X103386060Y-101645400I0J-200000D01*
G01*
X103386060Y-104145400D01*
G75*
G02*
X103186060Y-104345400I-200000J0D01*
G01*
X100636060Y-104345400D01*
G75*
G02*
X100436060Y-104145400I0J200000D01*
G01*
G37*
G36*
G01*
X87509060Y-106685400D02*
X87509060Y-104185400D01*
G75*
G02*
X87709060Y-103985400I200000J0D01*
G01*
X90259060Y-103985400D01*
G75*
G02*
X90459060Y-104185400I0J-200000D01*
G01*
X90459060Y-106685400D01*
G75*
G02*
X90259060Y-106885400I-200000J0D01*
G01*
X87709060Y-106885400D01*
G75*
G02*
X87509060Y-106685400I0J200000D01*
G01*
G37*
D17*
X101149060Y-107975400D03*
X90989060Y-107975400D03*
D15*
X92259060Y-105435400D03*
D16*
X96069060Y-107975400D03*
D15*
X98609060Y-102895400D03*
X41458820Y-64795240D03*
D16*
X38918820Y-69875240D03*
D15*
X35108820Y-67335240D03*
D17*
X33838820Y-69875240D03*
X43998820Y-69875240D03*
G36*
G01*
X30358820Y-68585240D02*
X30358820Y-66085240D01*
G75*
G02*
X30558820Y-65885240I200000J0D01*
G01*
X33108820Y-65885240D01*
G75*
G02*
X33308820Y-66085240I0J-200000D01*
G01*
X33308820Y-68585240D01*
G75*
G02*
X33108820Y-68785240I-200000J0D01*
G01*
X30558820Y-68785240D01*
G75*
G02*
X30358820Y-68585240I0J200000D01*
G01*
G37*
G36*
G01*
X43285820Y-66045240D02*
X43285820Y-63545240D01*
G75*
G02*
X43485820Y-63345240I200000J0D01*
G01*
X46035820Y-63345240D01*
G75*
G02*
X46235820Y-63545240I0J-200000D01*
G01*
X46235820Y-66045240D01*
G75*
G02*
X46035820Y-66245240I-200000J0D01*
G01*
X43485820Y-66245240D01*
G75*
G02*
X43285820Y-66045240I0J200000D01*
G01*
G37*
X250533480Y-69875240D03*
X260693480Y-69875240D03*
D23*
X259423480Y-72415240D03*
D16*
X255613480Y-69875240D03*
D23*
X253073480Y-74955240D03*
X291173640Y-94005320D03*
D16*
X293713640Y-88925320D03*
D23*
X297523640Y-91465320D03*
D17*
X298793640Y-88925320D03*
X288633640Y-88925320D03*
X281489860Y-69875240D03*
X291649860Y-69875240D03*
D23*
X290379860Y-72415240D03*
D16*
X286569860Y-69875240D03*
D23*
X284029860Y-74955240D03*
G36*
G01*
X72651980Y-111805400D02*
X72651980Y-114305400D01*
G75*
G02*
X72451980Y-114505400I-200000J0D01*
G01*
X69901980Y-114505400D01*
G75*
G02*
X69701980Y-114305400I0J200000D01*
G01*
X69701980Y-111805400D01*
G75*
G02*
X69901980Y-111605400I200000J0D01*
G01*
X72451980Y-111605400D01*
G75*
G02*
X72651980Y-111805400I0J-200000D01*
G01*
G37*
G36*
G01*
X85578980Y-109265400D02*
X85578980Y-111765400D01*
G75*
G02*
X85378980Y-111965400I-200000J0D01*
G01*
X82828980Y-111965400D01*
G75*
G02*
X82628980Y-111765400I0J200000D01*
G01*
X82628980Y-109265400D01*
G75*
G02*
X82828980Y-109065400I200000J0D01*
G01*
X85378980Y-109065400D01*
G75*
G02*
X85578980Y-109265400I0J-200000D01*
G01*
G37*
D17*
X71938980Y-107975400D03*
X82098980Y-107975400D03*
D15*
X80828980Y-110515400D03*
D16*
X77018980Y-107975400D03*
D15*
X74478980Y-113055400D03*
G36*
G01*
X51220640Y-111805400D02*
X51220640Y-114305400D01*
G75*
G02*
X51020640Y-114505400I-200000J0D01*
G01*
X48470640Y-114505400D01*
G75*
G02*
X48270640Y-114305400I0J200000D01*
G01*
X48270640Y-111805400D01*
G75*
G02*
X48470640Y-111605400I200000J0D01*
G01*
X51020640Y-111605400D01*
G75*
G02*
X51220640Y-111805400I0J-200000D01*
G01*
G37*
G36*
G01*
X64147640Y-109265400D02*
X64147640Y-111765400D01*
G75*
G02*
X63947640Y-111965400I-200000J0D01*
G01*
X61397640Y-111965400D01*
G75*
G02*
X61197640Y-111765400I0J200000D01*
G01*
X61197640Y-109265400D01*
G75*
G02*
X61397640Y-109065400I200000J0D01*
G01*
X63947640Y-109065400D01*
G75*
G02*
X64147640Y-109265400I0J-200000D01*
G01*
G37*
D17*
X50507640Y-107975400D03*
X60667640Y-107975400D03*
D15*
X59397640Y-110515400D03*
D16*
X55587640Y-107975400D03*
D15*
X53047640Y-113055400D03*
G36*
G01*
X76623460Y-104145400D02*
X76623460Y-101645400D01*
G75*
G02*
X76823460Y-101445400I200000J0D01*
G01*
X79373460Y-101445400D01*
G75*
G02*
X79573460Y-101645400I0J-200000D01*
G01*
X79573460Y-104145400D01*
G75*
G02*
X79373460Y-104345400I-200000J0D01*
G01*
X76823460Y-104345400D01*
G75*
G02*
X76623460Y-104145400I0J200000D01*
G01*
G37*
G36*
G01*
X63696460Y-106685400D02*
X63696460Y-104185400D01*
G75*
G02*
X63896460Y-103985400I200000J0D01*
G01*
X66446460Y-103985400D01*
G75*
G02*
X66646460Y-104185400I0J-200000D01*
G01*
X66646460Y-106685400D01*
G75*
G02*
X66446460Y-106885400I-200000J0D01*
G01*
X63896460Y-106885400D01*
G75*
G02*
X63696460Y-106685400I0J200000D01*
G01*
G37*
D17*
X77336460Y-107975400D03*
X67176460Y-107975400D03*
D15*
X68446460Y-105435400D03*
D16*
X72256460Y-107975400D03*
D15*
X74796460Y-102895400D03*
X46221340Y-83845320D03*
D16*
X43681340Y-88925320D03*
D15*
X39871340Y-86385320D03*
D17*
X38601340Y-88925320D03*
X48761340Y-88925320D03*
G36*
G01*
X35121340Y-87635320D02*
X35121340Y-85135320D01*
G75*
G02*
X35321340Y-84935320I200000J0D01*
G01*
X37871340Y-84935320D01*
G75*
G02*
X38071340Y-85135320I0J-200000D01*
G01*
X38071340Y-87635320D01*
G75*
G02*
X37871340Y-87835320I-200000J0D01*
G01*
X35321340Y-87835320D01*
G75*
G02*
X35121340Y-87635320I0J200000D01*
G01*
G37*
G36*
G01*
X48048340Y-85095320D02*
X48048340Y-82595320D01*
G75*
G02*
X48248340Y-82395320I200000J0D01*
G01*
X50798340Y-82395320D01*
G75*
G02*
X50998340Y-82595320I0J-200000D01*
G01*
X50998340Y-85095320D01*
G75*
G02*
X50798340Y-85295320I-200000J0D01*
G01*
X48248340Y-85295320D01*
G75*
G02*
X48048340Y-85095320I0J200000D01*
G01*
G37*
D15*
X243865920Y-102895400D03*
D16*
X241325920Y-107975400D03*
D15*
X237515920Y-105435400D03*
D17*
X236245920Y-107975400D03*
X246405920Y-107975400D03*
G36*
G01*
X232765920Y-106685400D02*
X232765920Y-104185400D01*
G75*
G02*
X232965920Y-103985400I200000J0D01*
G01*
X235515920Y-103985400D01*
G75*
G02*
X235715920Y-104185400I0J-200000D01*
G01*
X235715920Y-106685400D01*
G75*
G02*
X235515920Y-106885400I-200000J0D01*
G01*
X232965920Y-106885400D01*
G75*
G02*
X232765920Y-106685400I0J200000D01*
G01*
G37*
G36*
G01*
X245692920Y-104145400D02*
X245692920Y-101645400D01*
G75*
G02*
X245892920Y-101445400I200000J0D01*
G01*
X248442920Y-101445400D01*
G75*
G02*
X248642920Y-101645400I0J-200000D01*
G01*
X248642920Y-104145400D01*
G75*
G02*
X248442920Y-104345400I-200000J0D01*
G01*
X245892920Y-104345400D01*
G75*
G02*
X245692920Y-104145400I0J200000D01*
G01*
G37*
G36*
G01*
X89320800Y-111805400D02*
X89320800Y-114305400D01*
G75*
G02*
X89120800Y-114505400I-200000J0D01*
G01*
X86570800Y-114505400D01*
G75*
G02*
X86370800Y-114305400I0J200000D01*
G01*
X86370800Y-111805400D01*
G75*
G02*
X86570800Y-111605400I200000J0D01*
G01*
X89120800Y-111605400D01*
G75*
G02*
X89320800Y-111805400I0J-200000D01*
G01*
G37*
G36*
G01*
X102247800Y-109265400D02*
X102247800Y-111765400D01*
G75*
G02*
X102047800Y-111965400I-200000J0D01*
G01*
X99497800Y-111965400D01*
G75*
G02*
X99297800Y-111765400I0J200000D01*
G01*
X99297800Y-109265400D01*
G75*
G02*
X99497800Y-109065400I200000J0D01*
G01*
X102047800Y-109065400D01*
G75*
G02*
X102247800Y-109265400I0J-200000D01*
G01*
G37*
X88607800Y-107975400D03*
X98767800Y-107975400D03*
D15*
X97497800Y-110515400D03*
D16*
X93687800Y-107975400D03*
D15*
X91147800Y-113055400D03*
X198621980Y-102895400D03*
D16*
X196081980Y-107975400D03*
D15*
X192271980Y-105435400D03*
D17*
X191001980Y-107975400D03*
X201161980Y-107975400D03*
G36*
G01*
X187521980Y-106685400D02*
X187521980Y-104185400D01*
G75*
G02*
X187721980Y-103985400I200000J0D01*
G01*
X190271980Y-103985400D01*
G75*
G02*
X190471980Y-104185400I0J-200000D01*
G01*
X190471980Y-106685400D01*
G75*
G02*
X190271980Y-106885400I-200000J0D01*
G01*
X187721980Y-106885400D01*
G75*
G02*
X187521980Y-106685400I0J200000D01*
G01*
G37*
G36*
G01*
X200448980Y-104145400D02*
X200448980Y-101645400D01*
G75*
G02*
X200648980Y-101445400I200000J0D01*
G01*
X203198980Y-101445400D01*
G75*
G02*
X203398980Y-101645400I0J-200000D01*
G01*
X203398980Y-104145400D01*
G75*
G02*
X203198980Y-104345400I-200000J0D01*
G01*
X200648980Y-104345400D01*
G75*
G02*
X200448980Y-104145400I0J200000D01*
G01*
G37*
D15*
X222434580Y-102895400D03*
D16*
X219894580Y-107975400D03*
D15*
X216084580Y-105435400D03*
D17*
X214814580Y-107975400D03*
X224974580Y-107975400D03*
G36*
G01*
X211334580Y-106685400D02*
X211334580Y-104185400D01*
G75*
G02*
X211534580Y-103985400I200000J0D01*
G01*
X214084580Y-103985400D01*
G75*
G02*
X214284580Y-104185400I0J-200000D01*
G01*
X214284580Y-106685400D01*
G75*
G02*
X214084580Y-106885400I-200000J0D01*
G01*
X211534580Y-106885400D01*
G75*
G02*
X211334580Y-106685400I0J200000D01*
G01*
G37*
G36*
G01*
X224261580Y-104145400D02*
X224261580Y-101645400D01*
G75*
G02*
X224461580Y-101445400I200000J0D01*
G01*
X227011580Y-101445400D01*
G75*
G02*
X227211580Y-101645400I0J-200000D01*
G01*
X227211580Y-104145400D01*
G75*
G02*
X227011580Y-104345400I-200000J0D01*
G01*
X224461580Y-104345400D01*
G75*
G02*
X224261580Y-104145400I0J200000D01*
G01*
G37*
X270218520Y-88925320D03*
X260058520Y-88925320D03*
D23*
X261328520Y-86385320D03*
D16*
X265138520Y-88925320D03*
D23*
X267678520Y-83845320D03*
D15*
X264979780Y-94005320D03*
D16*
X267519780Y-88925320D03*
D15*
X271329780Y-91465320D03*
D17*
X272599780Y-88925320D03*
X262439780Y-88925320D03*
G36*
G01*
X276079780Y-90215320D02*
X276079780Y-92715320D01*
G75*
G02*
X275879780Y-92915320I-200000J0D01*
G01*
X273329780Y-92915320D01*
G75*
G02*
X273129780Y-92715320I0J200000D01*
G01*
X273129780Y-90215320D01*
G75*
G02*
X273329780Y-90015320I200000J0D01*
G01*
X275879780Y-90015320D01*
G75*
G02*
X276079780Y-90215320I0J-200000D01*
G01*
G37*
G36*
G01*
X263152780Y-92755320D02*
X263152780Y-95255320D01*
G75*
G02*
X262952780Y-95455320I-200000J0D01*
G01*
X260402780Y-95455320D01*
G75*
G02*
X260202780Y-95255320I0J200000D01*
G01*
X260202780Y-92755320D01*
G75*
G02*
X260402780Y-92555320I200000J0D01*
G01*
X262952780Y-92555320D01*
G75*
G02*
X263152780Y-92755320I0J-200000D01*
G01*
G37*
D15*
X262916000Y-83845320D03*
D16*
X260376000Y-88925320D03*
D15*
X256566000Y-86385320D03*
D17*
X255296000Y-88925320D03*
X265456000Y-88925320D03*
G36*
G01*
X251816000Y-87635320D02*
X251816000Y-85135320D01*
G75*
G02*
X252016000Y-84935320I200000J0D01*
G01*
X254566000Y-84935320D01*
G75*
G02*
X254766000Y-85135320I0J-200000D01*
G01*
X254766000Y-87635320D01*
G75*
G02*
X254566000Y-87835320I-200000J0D01*
G01*
X252016000Y-87835320D01*
G75*
G02*
X251816000Y-87635320I0J200000D01*
G01*
G37*
G36*
G01*
X264743000Y-85095320D02*
X264743000Y-82595320D01*
G75*
G02*
X264943000Y-82395320I200000J0D01*
G01*
X267493000Y-82395320D01*
G75*
G02*
X267693000Y-82595320I0J-200000D01*
G01*
X267693000Y-85095320D01*
G75*
G02*
X267493000Y-85295320I-200000J0D01*
G01*
X264943000Y-85295320D01*
G75*
G02*
X264743000Y-85095320I0J200000D01*
G01*
G37*
D15*
X167665600Y-102895400D03*
D16*
X165125600Y-107975400D03*
D15*
X161315600Y-105435400D03*
D17*
X160045600Y-107975400D03*
X170205600Y-107975400D03*
G36*
G01*
X156565600Y-106685400D02*
X156565600Y-104185400D01*
G75*
G02*
X156765600Y-103985400I200000J0D01*
G01*
X159315600Y-103985400D01*
G75*
G02*
X159515600Y-104185400I0J-200000D01*
G01*
X159515600Y-106685400D01*
G75*
G02*
X159315600Y-106885400I-200000J0D01*
G01*
X156765600Y-106885400D01*
G75*
G02*
X156565600Y-106685400I0J200000D01*
G01*
G37*
G36*
G01*
X169492600Y-104145400D02*
X169492600Y-101645400D01*
G75*
G02*
X169692600Y-101445400I200000J0D01*
G01*
X172242600Y-101445400D01*
G75*
G02*
X172442600Y-101645400I0J-200000D01*
G01*
X172442600Y-104145400D01*
G75*
G02*
X172242600Y-104345400I-200000J0D01*
G01*
X169692600Y-104345400D01*
G75*
G02*
X169492600Y-104145400I0J200000D01*
G01*
G37*
D24*
X177063600Y-114960400D03*
X153187600Y-114960400D03*
D16*
X177063600Y-99720400D03*
X153187600Y-99720400D03*
D15*
X150996780Y-102895400D03*
D16*
X148456780Y-107975400D03*
D15*
X144646780Y-105435400D03*
D17*
X143376780Y-107975400D03*
X153536780Y-107975400D03*
G36*
G01*
X139896780Y-106685400D02*
X139896780Y-104185400D01*
G75*
G02*
X140096780Y-103985400I200000J0D01*
G01*
X142646780Y-103985400D01*
G75*
G02*
X142846780Y-104185400I0J-200000D01*
G01*
X142846780Y-106685400D01*
G75*
G02*
X142646780Y-106885400I-200000J0D01*
G01*
X140096780Y-106885400D01*
G75*
G02*
X139896780Y-106685400I0J200000D01*
G01*
G37*
G36*
G01*
X152823780Y-104145400D02*
X152823780Y-101645400D01*
G75*
G02*
X153023780Y-101445400I200000J0D01*
G01*
X155573780Y-101445400D01*
G75*
G02*
X155773780Y-101645400I0J-200000D01*
G01*
X155773780Y-104145400D01*
G75*
G02*
X155573780Y-104345400I-200000J0D01*
G01*
X153023780Y-104345400D01*
G75*
G02*
X152823780Y-104145400I0J200000D01*
G01*
G37*
D24*
X198456680Y-114960400D03*
X98456880Y-114960400D03*
D16*
X198456680Y-99720400D03*
X98456880Y-99720400D03*
D15*
X53365120Y-102895400D03*
D16*
X50825120Y-107975400D03*
D15*
X47015120Y-105435400D03*
D17*
X45745120Y-107975400D03*
X55905120Y-107975400D03*
G36*
G01*
X42265120Y-106685400D02*
X42265120Y-104185400D01*
G75*
G02*
X42465120Y-103985400I200000J0D01*
G01*
X45015120Y-103985400D01*
G75*
G02*
X45215120Y-104185400I0J-200000D01*
G01*
X45215120Y-106685400D01*
G75*
G02*
X45015120Y-106885400I-200000J0D01*
G01*
X42465120Y-106885400D01*
G75*
G02*
X42265120Y-106685400I0J200000D01*
G01*
G37*
G36*
G01*
X55192120Y-104145400D02*
X55192120Y-101645400D01*
G75*
G02*
X55392120Y-101445400I200000J0D01*
G01*
X57942120Y-101445400D01*
G75*
G02*
X58142120Y-101645400I0J-200000D01*
G01*
X58142120Y-104145400D01*
G75*
G02*
X57942120Y-104345400I-200000J0D01*
G01*
X55392120Y-104345400D01*
G75*
G02*
X55192120Y-104145400I0J200000D01*
G01*
G37*
D15*
X38760080Y-94005320D03*
D16*
X41300080Y-88925320D03*
D15*
X45110080Y-91465320D03*
D17*
X46380080Y-88925320D03*
X36220080Y-88925320D03*
G36*
G01*
X49860080Y-90215320D02*
X49860080Y-92715320D01*
G75*
G02*
X49660080Y-92915320I-200000J0D01*
G01*
X47110080Y-92915320D01*
G75*
G02*
X46910080Y-92715320I0J200000D01*
G01*
X46910080Y-90215320D01*
G75*
G02*
X47110080Y-90015320I200000J0D01*
G01*
X49660080Y-90015320D01*
G75*
G02*
X49860080Y-90215320I0J-200000D01*
G01*
G37*
G36*
G01*
X36933080Y-92755320D02*
X36933080Y-95255320D01*
G75*
G02*
X36733080Y-95455320I-200000J0D01*
G01*
X34183080Y-95455320D01*
G75*
G02*
X33983080Y-95255320I0J200000D01*
G01*
X33983080Y-92755320D01*
G75*
G02*
X34183080Y-92555320I200000J0D01*
G01*
X36733080Y-92555320D01*
G75*
G02*
X36933080Y-92755320I0J-200000D01*
G01*
G37*
D24*
X29362080Y-81940320D03*
X53238080Y-81940320D03*
D16*
X29362080Y-97180320D03*
X53238080Y-97180320D03*
D17*
X29076300Y-107975400D03*
X39236300Y-107975400D03*
D23*
X37966300Y-110515400D03*
D16*
X34156300Y-107975400D03*
D23*
X31616300Y-113055400D03*
D15*
X122104180Y-113055400D03*
D16*
X124644180Y-107975400D03*
D15*
X128454180Y-110515400D03*
D17*
X129724180Y-107975400D03*
X119564180Y-107975400D03*
G36*
G01*
X133204180Y-109265400D02*
X133204180Y-111765400D01*
G75*
G02*
X133004180Y-111965400I-200000J0D01*
G01*
X130454180Y-111965400D01*
G75*
G02*
X130254180Y-111765400I0J200000D01*
G01*
X130254180Y-109265400D01*
G75*
G02*
X130454180Y-109065400I200000J0D01*
G01*
X133004180Y-109065400D01*
G75*
G02*
X133204180Y-109265400I0J-200000D01*
G01*
G37*
G36*
G01*
X120277180Y-111805400D02*
X120277180Y-114305400D01*
G75*
G02*
X120077180Y-114505400I-200000J0D01*
G01*
X117527180Y-114505400D01*
G75*
G02*
X117327180Y-114305400I0J200000D01*
G01*
X117327180Y-111805400D01*
G75*
G02*
X117527180Y-111605400I200000J0D01*
G01*
X120077180Y-111605400D01*
G75*
G02*
X120277180Y-111805400I0J-200000D01*
G01*
G37*
D24*
X112706180Y-114960400D03*
X136582180Y-114960400D03*
D16*
X112706180Y-99720400D03*
X136582180Y-99720400D03*
D15*
X129565440Y-102895400D03*
D16*
X127025440Y-107975400D03*
D15*
X123215440Y-105435400D03*
D17*
X121945440Y-107975400D03*
X132105440Y-107975400D03*
G36*
G01*
X118465440Y-106685400D02*
X118465440Y-104185400D01*
G75*
G02*
X118665440Y-103985400I200000J0D01*
G01*
X121215440Y-103985400D01*
G75*
G02*
X121415440Y-104185400I0J-200000D01*
G01*
X121415440Y-106685400D01*
G75*
G02*
X121215440Y-106885400I-200000J0D01*
G01*
X118665440Y-106885400D01*
G75*
G02*
X118465440Y-106685400I0J200000D01*
G01*
G37*
G36*
G01*
X131392440Y-104145400D02*
X131392440Y-101645400D01*
G75*
G02*
X131592440Y-101445400I200000J0D01*
G01*
X134142440Y-101445400D01*
G75*
G02*
X134342440Y-101645400I0J-200000D01*
G01*
X134342440Y-104145400D01*
G75*
G02*
X134142440Y-104345400I-200000J0D01*
G01*
X131592440Y-104345400D01*
G75*
G02*
X131392440Y-104145400I0J200000D01*
G01*
G37*
D24*
X138963440Y-114960400D03*
X115087440Y-114960400D03*
D16*
X138963440Y-99720400D03*
X115087440Y-99720400D03*
G36*
G01*
X72250000Y-63486995D02*
X72250000Y-64613085D01*
G75*
G02*
X71913045Y-64950040I-336955J0D01*
G01*
X71036955Y-64950040D01*
G75*
G02*
X70700000Y-64613085I0J336955D01*
G01*
X70700000Y-63486995D01*
G75*
G02*
X71036955Y-63150040I336955J0D01*
G01*
X71913045Y-63150040D01*
G75*
G02*
X72250000Y-63486995I0J-336955D01*
G01*
G37*
G36*
G01*
X70200000Y-63486995D02*
X70200000Y-64613085D01*
G75*
G02*
X69863045Y-64950040I-336955J0D01*
G01*
X68986955Y-64950040D01*
G75*
G02*
X68650000Y-64613085I0J336955D01*
G01*
X68650000Y-63486995D01*
G75*
G02*
X68986955Y-63150040I336955J0D01*
G01*
X69863045Y-63150040D01*
G75*
G02*
X70200000Y-63486995I0J-336955D01*
G01*
G37*
D15*
X250692220Y-65430200D03*
D16*
X253232220Y-60350200D03*
D15*
X257042220Y-62890200D03*
D17*
X258312220Y-60350200D03*
X248152220Y-60350200D03*
G36*
G01*
X261792220Y-61640200D02*
X261792220Y-64140200D01*
G75*
G02*
X261592220Y-64340200I-200000J0D01*
G01*
X259042220Y-64340200D01*
G75*
G02*
X258842220Y-64140200I0J200000D01*
G01*
X258842220Y-61640200D01*
G75*
G02*
X259042220Y-61440200I200000J0D01*
G01*
X261592220Y-61440200D01*
G75*
G02*
X261792220Y-61640200I0J-200000D01*
G01*
G37*
G36*
G01*
X248865220Y-64180200D02*
X248865220Y-66680200D01*
G75*
G02*
X248665220Y-66880200I-200000J0D01*
G01*
X246115220Y-66880200D01*
G75*
G02*
X245915220Y-66680200I0J200000D01*
G01*
X245915220Y-64180200D01*
G75*
G02*
X246115220Y-63980200I200000J0D01*
G01*
X248665220Y-63980200D01*
G75*
G02*
X248865220Y-64180200I0J-200000D01*
G01*
G37*
D15*
X153060560Y-74955240D03*
D16*
X155600560Y-69875240D03*
D15*
X159410560Y-72415240D03*
D17*
X160680560Y-69875240D03*
X150520560Y-69875240D03*
G36*
G01*
X164160560Y-71165240D02*
X164160560Y-73665240D01*
G75*
G02*
X163960560Y-73865240I-200000J0D01*
G01*
X161410560Y-73865240D01*
G75*
G02*
X161210560Y-73665240I0J200000D01*
G01*
X161210560Y-71165240D01*
G75*
G02*
X161410560Y-70965240I200000J0D01*
G01*
X163960560Y-70965240D01*
G75*
G02*
X164160560Y-71165240I0J-200000D01*
G01*
G37*
G36*
G01*
X151233560Y-73705240D02*
X151233560Y-76205240D01*
G75*
G02*
X151033560Y-76405240I-200000J0D01*
G01*
X148483560Y-76405240D01*
G75*
G02*
X148283560Y-76205240I0J200000D01*
G01*
X148283560Y-73705240D01*
G75*
G02*
X148483560Y-73505240I200000J0D01*
G01*
X151033560Y-73505240D01*
G75*
G02*
X151233560Y-73705240I0J-200000D01*
G01*
G37*
X160680560Y-69875240D03*
X150520560Y-69875240D03*
D23*
X151790560Y-67335240D03*
D16*
X155600560Y-69875240D03*
D23*
X158140560Y-64795240D03*
D15*
X265297260Y-64795240D03*
D16*
X262757260Y-69875240D03*
D15*
X258947260Y-67335240D03*
D17*
X257677260Y-69875240D03*
X267837260Y-69875240D03*
G36*
G01*
X254197260Y-68585240D02*
X254197260Y-66085240D01*
G75*
G02*
X254397260Y-65885240I200000J0D01*
G01*
X256947260Y-65885240D01*
G75*
G02*
X257147260Y-66085240I0J-200000D01*
G01*
X257147260Y-68585240D01*
G75*
G02*
X256947260Y-68785240I-200000J0D01*
G01*
X254397260Y-68785240D01*
G75*
G02*
X254197260Y-68585240I0J200000D01*
G01*
G37*
G36*
G01*
X267124260Y-66045240D02*
X267124260Y-63545240D01*
G75*
G02*
X267324260Y-63345240I200000J0D01*
G01*
X269874260Y-63345240D01*
G75*
G02*
X270074260Y-63545240I0J-200000D01*
G01*
X270074260Y-66045240D01*
G75*
G02*
X269874260Y-66245240I-200000J0D01*
G01*
X267324260Y-66245240D01*
G75*
G02*
X267124260Y-66045240I0J200000D01*
G01*
G37*
D24*
X274695260Y-76860240D03*
X250819260Y-76860240D03*
D16*
X274695260Y-61620240D03*
X250819260Y-61620240D03*
G36*
G01*
X32550000Y-85548040D02*
X32550000Y-87072040D01*
G75*
G02*
X32350000Y-87272040I-200000J0D01*
G01*
X30350000Y-87272040D01*
G75*
G02*
X30150000Y-87072040I0J200000D01*
G01*
X30150000Y-85548040D01*
G75*
G02*
X30350000Y-85348040I200000J0D01*
G01*
X32350000Y-85348040D01*
G75*
G02*
X32550000Y-85548040I0J-200000D01*
G01*
G37*
G36*
G01*
X32550000Y-88088040D02*
X32550000Y-89612040D01*
G75*
G02*
X32350000Y-89812040I-200000J0D01*
G01*
X30350000Y-89812040D01*
G75*
G02*
X30150000Y-89612040I0J200000D01*
G01*
X30150000Y-88088040D01*
G75*
G02*
X30350000Y-87888040I200000J0D01*
G01*
X32350000Y-87888040D01*
G75*
G02*
X32550000Y-88088040I0J-200000D01*
G01*
G37*
G36*
G01*
X32550000Y-90628040D02*
X32550000Y-92152040D01*
G75*
G02*
X32350000Y-92352040I-200000J0D01*
G01*
X30350000Y-92352040D01*
G75*
G02*
X30150000Y-92152040I0J200000D01*
G01*
X30150000Y-90628040D01*
G75*
G02*
X30350000Y-90428040I200000J0D01*
G01*
X32350000Y-90428040D01*
G75*
G02*
X32550000Y-90628040I0J-200000D01*
G01*
G37*
D15*
X298634900Y-83845320D03*
D16*
X296094900Y-88925320D03*
D15*
X292284900Y-86385320D03*
D17*
X291014900Y-88925320D03*
X301174900Y-88925320D03*
G36*
G01*
X287534900Y-87635320D02*
X287534900Y-85135320D01*
G75*
G02*
X287734900Y-84935320I200000J0D01*
G01*
X290284900Y-84935320D01*
G75*
G02*
X290484900Y-85135320I0J-200000D01*
G01*
X290484900Y-87635320D01*
G75*
G02*
X290284900Y-87835320I-200000J0D01*
G01*
X287734900Y-87835320D01*
G75*
G02*
X287534900Y-87635320I0J200000D01*
G01*
G37*
G36*
G01*
X300461900Y-85095320D02*
X300461900Y-82595320D01*
G75*
G02*
X300661900Y-82395320I200000J0D01*
G01*
X303211900Y-82395320D01*
G75*
G02*
X303411900Y-82595320I0J-200000D01*
G01*
X303411900Y-85095320D01*
G75*
G02*
X303211900Y-85295320I-200000J0D01*
G01*
X300661900Y-85295320D01*
G75*
G02*
X300461900Y-85095320I0J200000D01*
G01*
G37*
D15*
X217354580Y-113055400D03*
D16*
X219894580Y-107975400D03*
D15*
X223704580Y-110515400D03*
D17*
X224974580Y-107975400D03*
X214814580Y-107975400D03*
G36*
G01*
X228454580Y-109265400D02*
X228454580Y-111765400D01*
G75*
G02*
X228254580Y-111965400I-200000J0D01*
G01*
X225704580Y-111965400D01*
G75*
G02*
X225504580Y-111765400I0J200000D01*
G01*
X225504580Y-109265400D01*
G75*
G02*
X225704580Y-109065400I200000J0D01*
G01*
X228254580Y-109065400D01*
G75*
G02*
X228454580Y-109265400I0J-200000D01*
G01*
G37*
G36*
G01*
X215527580Y-111805400D02*
X215527580Y-114305400D01*
G75*
G02*
X215327580Y-114505400I-200000J0D01*
G01*
X212777580Y-114505400D01*
G75*
G02*
X212577580Y-114305400I0J200000D01*
G01*
X212577580Y-111805400D01*
G75*
G02*
X212777580Y-111605400I200000J0D01*
G01*
X215327580Y-111605400D01*
G75*
G02*
X215527580Y-111805400I0J-200000D01*
G01*
G37*
G36*
G01*
X286100000Y-60400000D02*
X287600000Y-60400000D01*
G75*
G02*
X287800000Y-60600000I0J-200000D01*
G01*
X287800000Y-61600000D01*
G75*
G02*
X287600000Y-61800000I-200000J0D01*
G01*
X286100000Y-61800000D01*
G75*
G02*
X285900000Y-61600000I0J200000D01*
G01*
X285900000Y-60600000D01*
G75*
G02*
X286100000Y-60400000I200000J0D01*
G01*
G37*
G36*
G01*
X286100000Y-59100000D02*
X287600000Y-59100000D01*
G75*
G02*
X287800000Y-59300000I0J-200000D01*
G01*
X287800000Y-60300000D01*
G75*
G02*
X287600000Y-60500000I-200000J0D01*
G01*
X286100000Y-60500000D01*
G75*
G02*
X285900000Y-60300000I0J200000D01*
G01*
X285900000Y-59300000D01*
G75*
G02*
X286100000Y-59100000I200000J0D01*
G01*
G37*
G36*
G01*
X286100000Y-57800000D02*
X287600000Y-57800000D01*
G75*
G02*
X287800000Y-58000000I0J-200000D01*
G01*
X287800000Y-59000000D01*
G75*
G02*
X287600000Y-59200000I-200000J0D01*
G01*
X286100000Y-59200000D01*
G75*
G02*
X285900000Y-59000000I0J200000D01*
G01*
X285900000Y-58000000D01*
G75*
G02*
X286100000Y-57800000I200000J0D01*
G01*
G37*
G36*
G01*
X290150000Y-61800000D02*
X288650000Y-61800000D01*
G75*
G02*
X288450000Y-61600000I0J200000D01*
G01*
X288450000Y-60600000D01*
G75*
G02*
X288650000Y-60400000I200000J0D01*
G01*
X290150000Y-60400000D01*
G75*
G02*
X290350000Y-60600000I0J-200000D01*
G01*
X290350000Y-61600000D01*
G75*
G02*
X290150000Y-61800000I-200000J0D01*
G01*
G37*
G36*
G01*
X290150000Y-60500000D02*
X288650000Y-60500000D01*
G75*
G02*
X288450000Y-60300000I0J200000D01*
G01*
X288450000Y-59300000D01*
G75*
G02*
X288650000Y-59100000I200000J0D01*
G01*
X290150000Y-59100000D01*
G75*
G02*
X290350000Y-59300000I0J-200000D01*
G01*
X290350000Y-60300000D01*
G75*
G02*
X290150000Y-60500000I-200000J0D01*
G01*
G37*
G36*
G01*
X290150000Y-59200000D02*
X288650000Y-59200000D01*
G75*
G02*
X288450000Y-59000000I0J200000D01*
G01*
X288450000Y-58000000D01*
G75*
G02*
X288650000Y-57800000I200000J0D01*
G01*
X290150000Y-57800000D01*
G75*
G02*
X290350000Y-58000000I0J-200000D01*
G01*
X290350000Y-59000000D01*
G75*
G02*
X290150000Y-59200000I-200000J0D01*
G01*
G37*
D23*
X277203560Y-64795240D03*
D16*
X274663560Y-69875240D03*
D23*
X270853560Y-67335240D03*
D17*
X269583560Y-69875240D03*
X279743560Y-69875240D03*
D15*
X276886080Y-74955240D03*
D16*
X279426080Y-69875240D03*
D15*
X283236080Y-72415240D03*
D17*
X284506080Y-69875240D03*
X274346080Y-69875240D03*
G36*
G01*
X287986080Y-71165240D02*
X287986080Y-73665240D01*
G75*
G02*
X287786080Y-73865240I-200000J0D01*
G01*
X285236080Y-73865240D01*
G75*
G02*
X285036080Y-73665240I0J200000D01*
G01*
X285036080Y-71165240D01*
G75*
G02*
X285236080Y-70965240I200000J0D01*
G01*
X287786080Y-70965240D01*
G75*
G02*
X287986080Y-71165240I0J-200000D01*
G01*
G37*
G36*
G01*
X275059080Y-73705240D02*
X275059080Y-76205240D01*
G75*
G02*
X274859080Y-76405240I-200000J0D01*
G01*
X272309080Y-76405240D01*
G75*
G02*
X272109080Y-76205240I0J200000D01*
G01*
X272109080Y-73705240D01*
G75*
G02*
X272309080Y-73505240I200000J0D01*
G01*
X274859080Y-73505240D01*
G75*
G02*
X275059080Y-73705240I0J-200000D01*
G01*
G37*
X248152220Y-69875240D03*
X258312220Y-69875240D03*
D23*
X257042220Y-72415240D03*
D16*
X253232220Y-69875240D03*
D23*
X250692220Y-74955240D03*
D24*
X246247220Y-48412200D03*
X246247220Y-72288200D03*
D16*
X261487220Y-48412200D03*
X261487220Y-72288200D03*
G36*
G01*
X272950000Y-42050000D02*
X271950000Y-42050000D01*
G75*
G02*
X271750000Y-41850000I0J200000D01*
G01*
X271750000Y-40850000D01*
G75*
G02*
X271950000Y-40650000I200000J0D01*
G01*
X272950000Y-40650000D01*
G75*
G02*
X273150000Y-40850000I0J-200000D01*
G01*
X273150000Y-41850000D01*
G75*
G02*
X272950000Y-42050000I-200000J0D01*
G01*
G37*
D25*
X272450000Y-40080000D03*
X273720000Y-41350000D03*
X273720000Y-40080000D03*
X274990000Y-41350000D03*
X274990000Y-40080000D03*
X276260000Y-41350000D03*
X276260000Y-40080000D03*
X277530000Y-41350000D03*
X277530000Y-40080000D03*
X289730000Y-40080000D03*
X289730000Y-41350000D03*
X288460000Y-40080000D03*
X288460000Y-41350000D03*
X287190000Y-40080000D03*
X287190000Y-41350000D03*
X285920000Y-40080000D03*
X285920000Y-41350000D03*
X284650000Y-40080000D03*
G36*
G01*
X285150000Y-42050000D02*
X284150000Y-42050000D01*
G75*
G02*
X283950000Y-41850000I0J200000D01*
G01*
X283950000Y-40850000D01*
G75*
G02*
X284150000Y-40650000I200000J0D01*
G01*
X285150000Y-40650000D01*
G75*
G02*
X285350000Y-40850000I0J-200000D01*
G01*
X285350000Y-41850000D01*
G75*
G02*
X285150000Y-42050000I-200000J0D01*
G01*
G37*
G36*
G01*
X291200000Y-37900040D02*
X292700000Y-37900040D01*
G75*
G02*
X292900000Y-38100040I0J-200000D01*
G01*
X292900000Y-39100040D01*
G75*
G02*
X292700000Y-39300040I-200000J0D01*
G01*
X291200000Y-39300040D01*
G75*
G02*
X291000000Y-39100040I0J200000D01*
G01*
X291000000Y-38100040D01*
G75*
G02*
X291200000Y-37900040I200000J0D01*
G01*
G37*
G36*
G01*
X291200000Y-39200040D02*
X292700000Y-39200040D01*
G75*
G02*
X292900000Y-39400040I0J-200000D01*
G01*
X292900000Y-40400040D01*
G75*
G02*
X292700000Y-40600040I-200000J0D01*
G01*
X291200000Y-40600040D01*
G75*
G02*
X291000000Y-40400040I0J200000D01*
G01*
X291000000Y-39400040D01*
G75*
G02*
X291200000Y-39200040I200000J0D01*
G01*
G37*
G36*
G01*
X292700000Y-35950040D02*
X291200000Y-35950040D01*
G75*
G02*
X291000000Y-35750040I0J200000D01*
G01*
X291000000Y-34750040D01*
G75*
G02*
X291200000Y-34550040I200000J0D01*
G01*
X292700000Y-34550040D01*
G75*
G02*
X292900000Y-34750040I0J-200000D01*
G01*
X292900000Y-35750040D01*
G75*
G02*
X292700000Y-35950040I-200000J0D01*
G01*
G37*
G36*
G01*
X292700000Y-37250040D02*
X291200000Y-37250040D01*
G75*
G02*
X291000000Y-37050040I0J200000D01*
G01*
X291000000Y-36050040D01*
G75*
G02*
X291200000Y-35850040I200000J0D01*
G01*
X292700000Y-35850040D01*
G75*
G02*
X292900000Y-36050040I0J-200000D01*
G01*
X292900000Y-37050040D01*
G75*
G02*
X292700000Y-37250040I-200000J0D01*
G01*
G37*
G36*
G01*
X299250000Y-38250040D02*
X299250000Y-37050040D01*
G75*
G02*
X299450000Y-36850040I200000J0D01*
G01*
X300950000Y-36850040D01*
G75*
G02*
X301150000Y-37050040I0J-200000D01*
G01*
X301150000Y-38250040D01*
G75*
G02*
X300950000Y-38450040I-200000J0D01*
G01*
X299450000Y-38450040D01*
G75*
G02*
X299250000Y-38250040I0J200000D01*
G01*
G37*
G36*
G01*
X296550000Y-38250040D02*
X296550000Y-37050040D01*
G75*
G02*
X296750000Y-36850040I200000J0D01*
G01*
X298250000Y-36850040D01*
G75*
G02*
X298450000Y-37050040I0J-200000D01*
G01*
X298450000Y-38250040D01*
G75*
G02*
X298250000Y-38450040I-200000J0D01*
G01*
X296750000Y-38450040D01*
G75*
G02*
X296550000Y-38250040I0J200000D01*
G01*
G37*
D26*
X294950000Y-37650040D03*
X302750000Y-37650040D03*
X302050000Y-34850040D03*
X294250000Y-34850040D03*
G36*
G01*
X295850000Y-35450040D02*
X295850000Y-34250040D01*
G75*
G02*
X296050000Y-34050040I200000J0D01*
G01*
X297550000Y-34050040D01*
G75*
G02*
X297750000Y-34250040I0J-200000D01*
G01*
X297750000Y-35450040D01*
G75*
G02*
X297550000Y-35650040I-200000J0D01*
G01*
X296050000Y-35650040D01*
G75*
G02*
X295850000Y-35450040I0J200000D01*
G01*
G37*
G36*
G01*
X298550000Y-35450040D02*
X298550000Y-34250040D01*
G75*
G02*
X298750000Y-34050040I200000J0D01*
G01*
X300250000Y-34050040D01*
G75*
G02*
X300450000Y-34250040I0J-200000D01*
G01*
X300450000Y-35450040D01*
G75*
G02*
X300250000Y-35650040I-200000J0D01*
G01*
X298750000Y-35650040D01*
G75*
G02*
X298550000Y-35450040I0J200000D01*
G01*
G37*
D17*
X55905000Y-31775040D03*
X45745000Y-31775040D03*
D23*
X47015000Y-29235040D03*
D16*
X50825000Y-31775040D03*
D23*
X53365000Y-26695040D03*
D17*
X36855040Y-31775080D03*
X26695040Y-31775080D03*
D23*
X27965040Y-29235080D03*
D16*
X31775040Y-31775080D03*
D23*
X34315040Y-26695080D03*
D15*
X301016160Y-102895400D03*
D16*
X298476160Y-107975400D03*
D15*
X294666160Y-105435400D03*
D17*
X293396160Y-107975400D03*
X303556160Y-107975400D03*
G36*
G01*
X289916160Y-106685400D02*
X289916160Y-104185400D01*
G75*
G02*
X290116160Y-103985400I200000J0D01*
G01*
X292666160Y-103985400D01*
G75*
G02*
X292866160Y-104185400I0J-200000D01*
G01*
X292866160Y-106685400D01*
G75*
G02*
X292666160Y-106885400I-200000J0D01*
G01*
X290116160Y-106885400D01*
G75*
G02*
X289916160Y-106685400I0J200000D01*
G01*
G37*
G36*
G01*
X302843160Y-104145400D02*
X302843160Y-101645400D01*
G75*
G02*
X303043160Y-101445400I200000J0D01*
G01*
X305593160Y-101445400D01*
G75*
G02*
X305793160Y-101645400I0J-200000D01*
G01*
X305793160Y-104145400D01*
G75*
G02*
X305593160Y-104345400I-200000J0D01*
G01*
X303043160Y-104345400D01*
G75*
G02*
X302843160Y-104145400I0J200000D01*
G01*
G37*
D15*
X34315040Y-102895400D03*
D16*
X31775040Y-107975400D03*
D15*
X27965040Y-105435400D03*
D17*
X26695040Y-107975400D03*
X36855040Y-107975400D03*
G36*
G01*
X23215040Y-106685400D02*
X23215040Y-104185400D01*
G75*
G02*
X23415040Y-103985400I200000J0D01*
G01*
X25965040Y-103985400D01*
G75*
G02*
X26165040Y-104185400I0J-200000D01*
G01*
X26165040Y-106685400D01*
G75*
G02*
X25965040Y-106885400I-200000J0D01*
G01*
X23415040Y-106885400D01*
G75*
G02*
X23215040Y-106685400I0J200000D01*
G01*
G37*
G36*
G01*
X36142040Y-104145400D02*
X36142040Y-101645400D01*
G75*
G02*
X36342040Y-101445400I200000J0D01*
G01*
X38892040Y-101445400D01*
G75*
G02*
X39092040Y-101645400I0J-200000D01*
G01*
X39092040Y-104145400D01*
G75*
G02*
X38892040Y-104345400I-200000J0D01*
G01*
X36342040Y-104345400D01*
G75*
G02*
X36142040Y-104145400I0J200000D01*
G01*
G37*
G36*
G01*
X59250000Y-81250000D02*
X60750000Y-81250000D01*
G75*
G02*
X60950000Y-81450000I0J-200000D01*
G01*
X60950000Y-82450000D01*
G75*
G02*
X60750000Y-82650000I-200000J0D01*
G01*
X59250000Y-82650000D01*
G75*
G02*
X59050000Y-82450000I0J200000D01*
G01*
X59050000Y-81450000D01*
G75*
G02*
X59250000Y-81250000I200000J0D01*
G01*
G37*
G36*
G01*
X59250000Y-79950000D02*
X60750000Y-79950000D01*
G75*
G02*
X60950000Y-80150000I0J-200000D01*
G01*
X60950000Y-81150000D01*
G75*
G02*
X60750000Y-81350000I-200000J0D01*
G01*
X59250000Y-81350000D01*
G75*
G02*
X59050000Y-81150000I0J200000D01*
G01*
X59050000Y-80150000D01*
G75*
G02*
X59250000Y-79950000I200000J0D01*
G01*
G37*
D15*
X276886080Y-55905160D03*
D16*
X279426080Y-50825160D03*
D15*
X283236080Y-53365160D03*
D17*
X284506080Y-50825160D03*
X274346080Y-50825160D03*
G36*
G01*
X287986080Y-52115160D02*
X287986080Y-54615160D01*
G75*
G02*
X287786080Y-54815160I-200000J0D01*
G01*
X285236080Y-54815160D01*
G75*
G02*
X285036080Y-54615160I0J200000D01*
G01*
X285036080Y-52115160D01*
G75*
G02*
X285236080Y-51915160I200000J0D01*
G01*
X287786080Y-51915160D01*
G75*
G02*
X287986080Y-52115160I0J-200000D01*
G01*
G37*
G36*
G01*
X275059080Y-54655160D02*
X275059080Y-57155160D01*
G75*
G02*
X274859080Y-57355160I-200000J0D01*
G01*
X272309080Y-57355160D01*
G75*
G02*
X272109080Y-57155160I0J200000D01*
G01*
X272109080Y-54655160D01*
G75*
G02*
X272309080Y-54455160I200000J0D01*
G01*
X274859080Y-54455160D01*
G75*
G02*
X275059080Y-54655160I0J-200000D01*
G01*
G37*
X284506080Y-50825160D03*
X274346080Y-50825160D03*
D23*
X275616080Y-48285160D03*
D16*
X279426080Y-50825160D03*
D23*
X281966080Y-45745160D03*
G36*
G01*
X278900000Y-60650000D02*
X278900000Y-59150000D01*
G75*
G02*
X279100000Y-58950000I200000J0D01*
G01*
X280100000Y-58950000D01*
G75*
G02*
X280300000Y-59150000I0J-200000D01*
G01*
X280300000Y-60650000D01*
G75*
G02*
X280100000Y-60850000I-200000J0D01*
G01*
X279100000Y-60850000D01*
G75*
G02*
X278900000Y-60650000I0J200000D01*
G01*
G37*
G36*
G01*
X280200000Y-60650000D02*
X280200000Y-59150000D01*
G75*
G02*
X280400000Y-58950000I200000J0D01*
G01*
X281400000Y-58950000D01*
G75*
G02*
X281600000Y-59150000I0J-200000D01*
G01*
X281600000Y-60650000D01*
G75*
G02*
X281400000Y-60850000I-200000J0D01*
G01*
X280400000Y-60850000D01*
G75*
G02*
X280200000Y-60650000I0J200000D01*
G01*
G37*
G36*
G01*
X281500000Y-60650000D02*
X281500000Y-59150000D01*
G75*
G02*
X281700000Y-58950000I200000J0D01*
G01*
X282700000Y-58950000D01*
G75*
G02*
X282900000Y-59150000I0J-200000D01*
G01*
X282900000Y-60650000D01*
G75*
G02*
X282700000Y-60850000I-200000J0D01*
G01*
X281700000Y-60850000D01*
G75*
G02*
X281500000Y-60650000I0J200000D01*
G01*
G37*
M02*
