G04 #@! TF.GenerationSoftware,KiCad,Pcbnew,(5.1.10-1-10_14)*
G04 #@! TF.CreationDate,2021-05-27T16:13:23+09:00*
G04 #@! TF.ProjectId,Jones,4a6f6e65-732e-46b6-9963-61645f706362,v.0.3.2*
G04 #@! TF.SameCoordinates,Original*
G04 #@! TF.FileFunction,Soldermask,Bot*
G04 #@! TF.FilePolarity,Negative*
%FSLAX46Y46*%
G04 Gerber Fmt 4.6, Leading zero omitted, Abs format (unit mm)*
G04 Created by KiCad (PCBNEW (5.1.10-1-10_14)) date 2021-05-27 16:13:23*
%MOMM*%
%LPD*%
G01*
G04 APERTURE LIST*
%ADD10O,5.600000X2.800000*%
%ADD11C,1.400000*%
%ADD12C,5.200000*%
%ADD13C,3.400000*%
%ADD14C,4.387800*%
%ADD15C,2.150000*%
%ADD16C,2.600000*%
%ADD17C,2.400000*%
%ADD18C,1.100000*%
%ADD19O,1.300000X2.800000*%
%ADD20O,1.300000X2.100000*%
%ADD21C,2.650000*%
%ADD22C,3.448000*%
%ADD23O,2.100000X2.100000*%
%ADD24C,1.900000*%
%ADD25C,2.000000*%
%ADD26O,2.000000X2.000000*%
G04 APERTURE END LIST*
D10*
X150800000Y-69550000D03*
X213100000Y-107750000D03*
X282650000Y-50450000D03*
D11*
X49050000Y-51800000D03*
X46450000Y-51750000D03*
X49050000Y-49100000D03*
X46450000Y-49100000D03*
X47800000Y-52350000D03*
X49700000Y-50450000D03*
X45900000Y-50450000D03*
X47800000Y-48550000D03*
D12*
X47800000Y-50450000D03*
D13*
X91465000Y-83845280D03*
D14*
X88925000Y-88925280D03*
D13*
X85115000Y-86385280D03*
D15*
X83845000Y-88925280D03*
X94005000Y-88925280D03*
G36*
G01*
X80365000Y-87635280D02*
X80365000Y-85135280D01*
G75*
G02*
X80565000Y-84935280I200000J0D01*
G01*
X83115000Y-84935280D01*
G75*
G02*
X83315000Y-85135280I0J-200000D01*
G01*
X83315000Y-87635280D01*
G75*
G02*
X83115000Y-87835280I-200000J0D01*
G01*
X80565000Y-87835280D01*
G75*
G02*
X80365000Y-87635280I0J200000D01*
G01*
G37*
G36*
G01*
X93292000Y-85095280D02*
X93292000Y-82595280D01*
G75*
G02*
X93492000Y-82395280I200000J0D01*
G01*
X96042000Y-82395280D01*
G75*
G02*
X96242000Y-82595280I0J-200000D01*
G01*
X96242000Y-85095280D01*
G75*
G02*
X96042000Y-85295280I-200000J0D01*
G01*
X93492000Y-85295280D01*
G75*
G02*
X93292000Y-85095280I0J200000D01*
G01*
G37*
D13*
X67335000Y-94005280D03*
D14*
X69875000Y-88925280D03*
D13*
X73685000Y-91465280D03*
D15*
X74955000Y-88925280D03*
X64795000Y-88925280D03*
G36*
G01*
X78435000Y-90215280D02*
X78435000Y-92715280D01*
G75*
G02*
X78235000Y-92915280I-200000J0D01*
G01*
X75685000Y-92915280D01*
G75*
G02*
X75485000Y-92715280I0J200000D01*
G01*
X75485000Y-90215280D01*
G75*
G02*
X75685000Y-90015280I200000J0D01*
G01*
X78235000Y-90015280D01*
G75*
G02*
X78435000Y-90215280I0J-200000D01*
G01*
G37*
G36*
G01*
X65508000Y-92755280D02*
X65508000Y-95255280D01*
G75*
G02*
X65308000Y-95455280I-200000J0D01*
G01*
X62758000Y-95455280D01*
G75*
G02*
X62558000Y-95255280I0J200000D01*
G01*
X62558000Y-92755280D01*
G75*
G02*
X62758000Y-92555280I200000J0D01*
G01*
X65308000Y-92555280D01*
G75*
G02*
X65508000Y-92755280I0J-200000D01*
G01*
G37*
G36*
G01*
X80062889Y-75071501D02*
X80062889Y-76871501D01*
G75*
G02*
X79862889Y-77071501I-200000J0D01*
G01*
X77762889Y-77071501D01*
G75*
G02*
X77562889Y-76871501I0J200000D01*
G01*
X77562889Y-75071501D01*
G75*
G02*
X77762889Y-74871501I200000J0D01*
G01*
X79862889Y-74871501D01*
G75*
G02*
X80062889Y-75071501I0J-200000D01*
G01*
G37*
G36*
G01*
X77162889Y-75071501D02*
X77162889Y-76871501D01*
G75*
G02*
X76962889Y-77071501I-200000J0D01*
G01*
X74862889Y-77071501D01*
G75*
G02*
X74662889Y-76871501I0J200000D01*
G01*
X74662889Y-75071501D01*
G75*
G02*
X74862889Y-74871501I200000J0D01*
G01*
X76962889Y-74871501D01*
G75*
G02*
X77162889Y-75071501I0J-200000D01*
G01*
G37*
G36*
G01*
X77162889Y-77371501D02*
X77162889Y-79171501D01*
G75*
G02*
X76962889Y-79371501I-200000J0D01*
G01*
X74862889Y-79371501D01*
G75*
G02*
X74662889Y-79171501I0J200000D01*
G01*
X74662889Y-77371501D01*
G75*
G02*
X74862889Y-77171501I200000J0D01*
G01*
X76962889Y-77171501D01*
G75*
G02*
X77162889Y-77371501I0J-200000D01*
G01*
G37*
G36*
G01*
X80062889Y-77371501D02*
X80062889Y-79171501D01*
G75*
G02*
X79862889Y-79371501I-200000J0D01*
G01*
X77762889Y-79371501D01*
G75*
G02*
X77562889Y-79171501I0J200000D01*
G01*
X77562889Y-77371501D01*
G75*
G02*
X77762889Y-77171501I200000J0D01*
G01*
X79862889Y-77171501D01*
G75*
G02*
X80062889Y-77371501I0J-200000D01*
G01*
G37*
G36*
G01*
X302050000Y-61650040D02*
X303250000Y-61650040D01*
G75*
G02*
X303450000Y-61850040I0J-200000D01*
G01*
X303450000Y-62750040D01*
G75*
G02*
X303250000Y-62950040I-200000J0D01*
G01*
X302050000Y-62950040D01*
G75*
G02*
X301850000Y-62750040I0J200000D01*
G01*
X301850000Y-61850040D01*
G75*
G02*
X302050000Y-61650040I200000J0D01*
G01*
G37*
G36*
G01*
X302050000Y-64950040D02*
X303250000Y-64950040D01*
G75*
G02*
X303450000Y-65150040I0J-200000D01*
G01*
X303450000Y-66050040D01*
G75*
G02*
X303250000Y-66250040I-200000J0D01*
G01*
X302050000Y-66250040D01*
G75*
G02*
X301850000Y-66050040I0J200000D01*
G01*
X301850000Y-65150040D01*
G75*
G02*
X302050000Y-64950040I200000J0D01*
G01*
G37*
G36*
G01*
X82003085Y-79050400D02*
X80876995Y-79050400D01*
G75*
G02*
X80540040Y-78713445I0J336955D01*
G01*
X80540040Y-77837355D01*
G75*
G02*
X80876995Y-77500400I336955J0D01*
G01*
X82003085Y-77500400D01*
G75*
G02*
X82340040Y-77837355I0J-336955D01*
G01*
X82340040Y-78713445D01*
G75*
G02*
X82003085Y-79050400I-336955J0D01*
G01*
G37*
G36*
G01*
X82003085Y-77000400D02*
X80876995Y-77000400D01*
G75*
G02*
X80540040Y-76663445I0J336955D01*
G01*
X80540040Y-75787355D01*
G75*
G02*
X80876995Y-75450400I336955J0D01*
G01*
X82003085Y-75450400D01*
G75*
G02*
X82340040Y-75787355I0J-336955D01*
G01*
X82340040Y-76663445D01*
G75*
G02*
X82003085Y-77000400I-336955J0D01*
G01*
G37*
G36*
G01*
X46050040Y-66870400D02*
X47050040Y-66870400D01*
G75*
G02*
X47250040Y-67070400I0J-200000D01*
G01*
X47250040Y-68770400D01*
G75*
G02*
X47050040Y-68970400I-200000J0D01*
G01*
X46050040Y-68970400D01*
G75*
G02*
X45850040Y-68770400I0J200000D01*
G01*
X45850040Y-67070400D01*
G75*
G02*
X46050040Y-66870400I200000J0D01*
G01*
G37*
G36*
G01*
X46050040Y-73170400D02*
X47050040Y-73170400D01*
G75*
G02*
X47250040Y-73370400I0J-200000D01*
G01*
X47250040Y-75070400D01*
G75*
G02*
X47050040Y-75270400I-200000J0D01*
G01*
X46050040Y-75270400D01*
G75*
G02*
X45850040Y-75070400I0J200000D01*
G01*
X45850040Y-73370400D01*
G75*
G02*
X46050040Y-73170400I200000J0D01*
G01*
G37*
G36*
G01*
X49850040Y-66870400D02*
X50850040Y-66870400D01*
G75*
G02*
X51050040Y-67070400I0J-200000D01*
G01*
X51050040Y-68770400D01*
G75*
G02*
X50850040Y-68970400I-200000J0D01*
G01*
X49850040Y-68970400D01*
G75*
G02*
X49650040Y-68770400I0J200000D01*
G01*
X49650040Y-67070400D01*
G75*
G02*
X49850040Y-66870400I200000J0D01*
G01*
G37*
G36*
G01*
X49850040Y-73170400D02*
X50850040Y-73170400D01*
G75*
G02*
X51050040Y-73370400I0J-200000D01*
G01*
X51050040Y-75070400D01*
G75*
G02*
X50850040Y-75270400I-200000J0D01*
G01*
X49850040Y-75270400D01*
G75*
G02*
X49650040Y-75070400I0J200000D01*
G01*
X49650040Y-73370400D01*
G75*
G02*
X49850040Y-73170400I200000J0D01*
G01*
G37*
G36*
G01*
X74625000Y-74163045D02*
X74625000Y-73036955D01*
G75*
G02*
X74961955Y-72700000I336955J0D01*
G01*
X75838045Y-72700000D01*
G75*
G02*
X76175000Y-73036955I0J-336955D01*
G01*
X76175000Y-74163045D01*
G75*
G02*
X75838045Y-74500000I-336955J0D01*
G01*
X74961955Y-74500000D01*
G75*
G02*
X74625000Y-74163045I0J336955D01*
G01*
G37*
G36*
G01*
X76675000Y-74163045D02*
X76675000Y-73036955D01*
G75*
G02*
X77011955Y-72700000I336955J0D01*
G01*
X77888045Y-72700000D01*
G75*
G02*
X78225000Y-73036955I0J-336955D01*
G01*
X78225000Y-74163045D01*
G75*
G02*
X77888045Y-74500000I-336955J0D01*
G01*
X77011955Y-74500000D01*
G75*
G02*
X76675000Y-74163045I0J336955D01*
G01*
G37*
G36*
G01*
X71150000Y-70136955D02*
X71150000Y-71263045D01*
G75*
G02*
X70813045Y-71600000I-336955J0D01*
G01*
X69936955Y-71600000D01*
G75*
G02*
X69600000Y-71263045I0J336955D01*
G01*
X69600000Y-70136955D01*
G75*
G02*
X69936955Y-69800000I336955J0D01*
G01*
X70813045Y-69800000D01*
G75*
G02*
X71150000Y-70136955I0J-336955D01*
G01*
G37*
G36*
G01*
X73200000Y-70136955D02*
X73200000Y-71263045D01*
G75*
G02*
X72863045Y-71600000I-336955J0D01*
G01*
X71986955Y-71600000D01*
G75*
G02*
X71650000Y-71263045I0J336955D01*
G01*
X71650000Y-70136955D01*
G75*
G02*
X71986955Y-69800000I336955J0D01*
G01*
X72863045Y-69800000D01*
G75*
G02*
X73200000Y-70136955I0J-336955D01*
G01*
G37*
D13*
X224973790Y-110515400D03*
D14*
X219893790Y-107975400D03*
D13*
X222433790Y-104165400D03*
D15*
X219893790Y-102895400D03*
X219893790Y-113055400D03*
G36*
G01*
X221183790Y-99415400D02*
X223683790Y-99415400D01*
G75*
G02*
X223883790Y-99615400I0J-200000D01*
G01*
X223883790Y-102165400D01*
G75*
G02*
X223683790Y-102365400I-200000J0D01*
G01*
X221183790Y-102365400D01*
G75*
G02*
X220983790Y-102165400I0J200000D01*
G01*
X220983790Y-99615400D01*
G75*
G02*
X221183790Y-99415400I200000J0D01*
G01*
G37*
G36*
G01*
X223723790Y-112342400D02*
X226223790Y-112342400D01*
G75*
G02*
X226423790Y-112542400I0J-200000D01*
G01*
X226423790Y-115092400D01*
G75*
G02*
X226223790Y-115292400I-200000J0D01*
G01*
X223723790Y-115292400D01*
G75*
G02*
X223523790Y-115092400I0J200000D01*
G01*
X223523790Y-112542400D01*
G75*
G02*
X223723790Y-112342400I200000J0D01*
G01*
G37*
G36*
G01*
X50995000Y-27875040D02*
X50995000Y-29275040D01*
G75*
G02*
X50795000Y-29475040I-200000J0D01*
G01*
X49595000Y-29475040D01*
G75*
G02*
X49395000Y-29275040I0J200000D01*
G01*
X49395000Y-27875040D01*
G75*
G02*
X49595000Y-27675040I200000J0D01*
G01*
X50795000Y-27675040D01*
G75*
G02*
X50995000Y-27875040I0J-200000D01*
G01*
G37*
G36*
G01*
X49175000Y-27875040D02*
X49175000Y-29275040D01*
G75*
G02*
X48975000Y-29475040I-200000J0D01*
G01*
X47975000Y-29475040D01*
G75*
G02*
X47775000Y-29275040I0J200000D01*
G01*
X47775000Y-27875040D01*
G75*
G02*
X47975000Y-27675040I200000J0D01*
G01*
X48975000Y-27675040D01*
G75*
G02*
X49175000Y-27875040I0J-200000D01*
G01*
G37*
G36*
G01*
X49175000Y-25675040D02*
X49175000Y-27075040D01*
G75*
G02*
X48975000Y-27275040I-200000J0D01*
G01*
X47975000Y-27275040D01*
G75*
G02*
X47775000Y-27075040I0J200000D01*
G01*
X47775000Y-25675040D01*
G75*
G02*
X47975000Y-25475040I200000J0D01*
G01*
X48975000Y-25475040D01*
G75*
G02*
X49175000Y-25675040I0J-200000D01*
G01*
G37*
G36*
G01*
X51075000Y-25675040D02*
X51075000Y-27075040D01*
G75*
G02*
X50875000Y-27275040I-200000J0D01*
G01*
X49875000Y-27275040D01*
G75*
G02*
X49675000Y-27075040I0J200000D01*
G01*
X49675000Y-25675040D01*
G75*
G02*
X49875000Y-25475040I200000J0D01*
G01*
X50875000Y-25475040D01*
G75*
G02*
X51075000Y-25675040I0J-200000D01*
G01*
G37*
D16*
X41300040Y-98450400D03*
G36*
G01*
X32786955Y-23050000D02*
X33913045Y-23050000D01*
G75*
G02*
X34250000Y-23386955I0J-336955D01*
G01*
X34250000Y-24263045D01*
G75*
G02*
X33913045Y-24600000I-336955J0D01*
G01*
X32786955Y-24600000D01*
G75*
G02*
X32450000Y-24263045I0J336955D01*
G01*
X32450000Y-23386955D01*
G75*
G02*
X32786955Y-23050000I336955J0D01*
G01*
G37*
G36*
G01*
X32786955Y-25100000D02*
X33913045Y-25100000D01*
G75*
G02*
X34250000Y-25436955I0J-336955D01*
G01*
X34250000Y-26313045D01*
G75*
G02*
X33913045Y-26650000I-336955J0D01*
G01*
X32786955Y-26650000D01*
G75*
G02*
X32450000Y-26313045I0J336955D01*
G01*
X32450000Y-25436955D01*
G75*
G02*
X32786955Y-25100000I336955J0D01*
G01*
G37*
G36*
G01*
X299993580Y-99265550D02*
X301993580Y-99265550D01*
G75*
G02*
X302193580Y-99465550I0J-200000D01*
G01*
X302193580Y-101465550D01*
G75*
G02*
X301993580Y-101665550I-200000J0D01*
G01*
X299993580Y-101665550D01*
G75*
G02*
X299793580Y-101465550I0J200000D01*
G01*
X299793580Y-99465550D01*
G75*
G02*
X299993580Y-99265550I200000J0D01*
G01*
G37*
D17*
X298493580Y-100465550D03*
X295993580Y-100465550D03*
G36*
G01*
X303093580Y-106165550D02*
X305093580Y-106165550D01*
G75*
G02*
X305293580Y-106365550I0J-200000D01*
G01*
X305293580Y-109565550D01*
G75*
G02*
X305093580Y-109765550I-200000J0D01*
G01*
X303093580Y-109765550D01*
G75*
G02*
X302893580Y-109565550I0J200000D01*
G01*
X302893580Y-106365550D01*
G75*
G02*
X303093580Y-106165550I200000J0D01*
G01*
G37*
G36*
G01*
X291893580Y-106165550D02*
X293893580Y-106165550D01*
G75*
G02*
X294093580Y-106365550I0J-200000D01*
G01*
X294093580Y-109565550D01*
G75*
G02*
X293893580Y-109765550I-200000J0D01*
G01*
X291893580Y-109765550D01*
G75*
G02*
X291693580Y-109565550I0J200000D01*
G01*
X291693580Y-106365550D01*
G75*
G02*
X291893580Y-106165550I200000J0D01*
G01*
G37*
X300993580Y-114965550D03*
X295993580Y-114965550D03*
G36*
G01*
X58387500Y-28195175D02*
X58387500Y-29704825D01*
G75*
G02*
X58067325Y-30025000I-320175J0D01*
G01*
X56882675Y-30025000D01*
G75*
G02*
X56562500Y-29704825I0J320175D01*
G01*
X56562500Y-28195175D01*
G75*
G02*
X56882675Y-27875000I320175J0D01*
G01*
X58067325Y-27875000D01*
G75*
G02*
X58387500Y-28195175I0J-320175D01*
G01*
G37*
G36*
G01*
X55412500Y-28195175D02*
X55412500Y-29704825D01*
G75*
G02*
X55092325Y-30025000I-320175J0D01*
G01*
X53907675Y-30025000D01*
G75*
G02*
X53587500Y-29704825I0J320175D01*
G01*
X53587500Y-28195175D01*
G75*
G02*
X53907675Y-27875000I320175J0D01*
G01*
X55092325Y-27875000D01*
G75*
G02*
X55412500Y-28195175I0J-320175D01*
G01*
G37*
G36*
G01*
X75186955Y-83750000D02*
X76313045Y-83750000D01*
G75*
G02*
X76650000Y-84086955I0J-336955D01*
G01*
X76650000Y-84963045D01*
G75*
G02*
X76313045Y-85300000I-336955J0D01*
G01*
X75186955Y-85300000D01*
G75*
G02*
X74850000Y-84963045I0J336955D01*
G01*
X74850000Y-84086955D01*
G75*
G02*
X75186955Y-83750000I336955J0D01*
G01*
G37*
G36*
G01*
X75186955Y-85800000D02*
X76313045Y-85800000D01*
G75*
G02*
X76650000Y-86136955I0J-336955D01*
G01*
X76650000Y-87013045D01*
G75*
G02*
X76313045Y-87350000I-336955J0D01*
G01*
X75186955Y-87350000D01*
G75*
G02*
X74850000Y-87013045I0J336955D01*
G01*
X74850000Y-86136955D01*
G75*
G02*
X75186955Y-85800000I336955J0D01*
G01*
G37*
G36*
G01*
X57150000Y-83663045D02*
X57150000Y-82536955D01*
G75*
G02*
X57486955Y-82200000I336955J0D01*
G01*
X58363045Y-82200000D01*
G75*
G02*
X58700000Y-82536955I0J-336955D01*
G01*
X58700000Y-83663045D01*
G75*
G02*
X58363045Y-84000000I-336955J0D01*
G01*
X57486955Y-84000000D01*
G75*
G02*
X57150000Y-83663045I0J336955D01*
G01*
G37*
G36*
G01*
X55100000Y-83663045D02*
X55100000Y-82536955D01*
G75*
G02*
X55436955Y-82200000I336955J0D01*
G01*
X56313045Y-82200000D01*
G75*
G02*
X56650000Y-82536955I0J-336955D01*
G01*
X56650000Y-83663045D01*
G75*
G02*
X56313045Y-84000000I-336955J0D01*
G01*
X55436955Y-84000000D01*
G75*
G02*
X55100000Y-83663045I0J336955D01*
G01*
G37*
G36*
G01*
X69700000Y-67386995D02*
X69700000Y-68513085D01*
G75*
G02*
X69363045Y-68850040I-336955J0D01*
G01*
X68486955Y-68850040D01*
G75*
G02*
X68150000Y-68513085I0J336955D01*
G01*
X68150000Y-67386995D01*
G75*
G02*
X68486955Y-67050040I336955J0D01*
G01*
X69363045Y-67050040D01*
G75*
G02*
X69700000Y-67386995I0J-336955D01*
G01*
G37*
G36*
G01*
X67650000Y-67386995D02*
X67650000Y-68513085D01*
G75*
G02*
X67313045Y-68850040I-336955J0D01*
G01*
X66436955Y-68850040D01*
G75*
G02*
X66100000Y-68513085I0J336955D01*
G01*
X66100000Y-67386995D01*
G75*
G02*
X66436955Y-67050040I336955J0D01*
G01*
X67313045Y-67050040D01*
G75*
G02*
X67650000Y-67386995I0J-336955D01*
G01*
G37*
G36*
G01*
X30300000Y-60450000D02*
X30300000Y-58950000D01*
G75*
G02*
X30500000Y-58750000I200000J0D01*
G01*
X31500000Y-58750000D01*
G75*
G02*
X31700000Y-58950000I0J-200000D01*
G01*
X31700000Y-60450000D01*
G75*
G02*
X31500000Y-60650000I-200000J0D01*
G01*
X30500000Y-60650000D01*
G75*
G02*
X30300000Y-60450000I0J200000D01*
G01*
G37*
G36*
G01*
X29000000Y-60450000D02*
X29000000Y-58950000D01*
G75*
G02*
X29200000Y-58750000I200000J0D01*
G01*
X30200000Y-58750000D01*
G75*
G02*
X30400000Y-58950000I0J-200000D01*
G01*
X30400000Y-60450000D01*
G75*
G02*
X30200000Y-60650000I-200000J0D01*
G01*
X29200000Y-60650000D01*
G75*
G02*
X29000000Y-60450000I0J200000D01*
G01*
G37*
G36*
G01*
X27700000Y-60450000D02*
X27700000Y-58950000D01*
G75*
G02*
X27900000Y-58750000I200000J0D01*
G01*
X28900000Y-58750000D01*
G75*
G02*
X29100000Y-58950000I0J-200000D01*
G01*
X29100000Y-60450000D01*
G75*
G02*
X28900000Y-60650000I-200000J0D01*
G01*
X27900000Y-60650000D01*
G75*
G02*
X27700000Y-60450000I0J200000D01*
G01*
G37*
G36*
G01*
X41700000Y-31186995D02*
X41700000Y-32313085D01*
G75*
G02*
X41363045Y-32650040I-336955J0D01*
G01*
X40486955Y-32650040D01*
G75*
G02*
X40150000Y-32313085I0J336955D01*
G01*
X40150000Y-31186995D01*
G75*
G02*
X40486955Y-30850040I336955J0D01*
G01*
X41363045Y-30850040D01*
G75*
G02*
X41700000Y-31186995I0J-336955D01*
G01*
G37*
G36*
G01*
X43750000Y-31186995D02*
X43750000Y-32313085D01*
G75*
G02*
X43413045Y-32650040I-336955J0D01*
G01*
X42536955Y-32650040D01*
G75*
G02*
X42200000Y-32313085I0J336955D01*
G01*
X42200000Y-31186995D01*
G75*
G02*
X42536955Y-30850040I336955J0D01*
G01*
X43413045Y-30850040D01*
G75*
G02*
X43750000Y-31186995I0J-336955D01*
G01*
G37*
G36*
G01*
X42513045Y-36550040D02*
X41386955Y-36550040D01*
G75*
G02*
X41050000Y-36213085I0J336955D01*
G01*
X41050000Y-35336995D01*
G75*
G02*
X41386955Y-35000040I336955J0D01*
G01*
X42513045Y-35000040D01*
G75*
G02*
X42850000Y-35336995I0J-336955D01*
G01*
X42850000Y-36213085D01*
G75*
G02*
X42513045Y-36550040I-336955J0D01*
G01*
G37*
G36*
G01*
X42513045Y-34500040D02*
X41386955Y-34500040D01*
G75*
G02*
X41050000Y-34163085I0J336955D01*
G01*
X41050000Y-33286995D01*
G75*
G02*
X41386955Y-32950040I336955J0D01*
G01*
X42513045Y-32950040D01*
G75*
G02*
X42850000Y-33286995I0J-336955D01*
G01*
X42850000Y-34163085D01*
G75*
G02*
X42513045Y-34500040I-336955J0D01*
G01*
G37*
G36*
G01*
X54036955Y-74150000D02*
X55163045Y-74150000D01*
G75*
G02*
X55500000Y-74486955I0J-336955D01*
G01*
X55500000Y-75363045D01*
G75*
G02*
X55163045Y-75700000I-336955J0D01*
G01*
X54036955Y-75700000D01*
G75*
G02*
X53700000Y-75363045I0J336955D01*
G01*
X53700000Y-74486955D01*
G75*
G02*
X54036955Y-74150000I336955J0D01*
G01*
G37*
G36*
G01*
X54036955Y-72100000D02*
X55163045Y-72100000D01*
G75*
G02*
X55500000Y-72436955I0J-336955D01*
G01*
X55500000Y-73313045D01*
G75*
G02*
X55163045Y-73650000I-336955J0D01*
G01*
X54036955Y-73650000D01*
G75*
G02*
X53700000Y-73313045I0J336955D01*
G01*
X53700000Y-72436955D01*
G75*
G02*
X54036955Y-72100000I336955J0D01*
G01*
G37*
G36*
G01*
X55100000Y-85763045D02*
X55100000Y-84636955D01*
G75*
G02*
X55436955Y-84300000I336955J0D01*
G01*
X56313045Y-84300000D01*
G75*
G02*
X56650000Y-84636955I0J-336955D01*
G01*
X56650000Y-85763045D01*
G75*
G02*
X56313045Y-86100000I-336955J0D01*
G01*
X55436955Y-86100000D01*
G75*
G02*
X55100000Y-85763045I0J336955D01*
G01*
G37*
G36*
G01*
X57150000Y-85763045D02*
X57150000Y-84636955D01*
G75*
G02*
X57486955Y-84300000I336955J0D01*
G01*
X58363045Y-84300000D01*
G75*
G02*
X58700000Y-84636955I0J-336955D01*
G01*
X58700000Y-85763045D01*
G75*
G02*
X58363045Y-86100000I-336955J0D01*
G01*
X57486955Y-86100000D01*
G75*
G02*
X57150000Y-85763045I0J336955D01*
G01*
G37*
G36*
G01*
X49750000Y-24363085D02*
X49750000Y-23236995D01*
G75*
G02*
X50086955Y-22900040I336955J0D01*
G01*
X50963045Y-22900040D01*
G75*
G02*
X51300000Y-23236995I0J-336955D01*
G01*
X51300000Y-24363085D01*
G75*
G02*
X50963045Y-24700040I-336955J0D01*
G01*
X50086955Y-24700040D01*
G75*
G02*
X49750000Y-24363085I0J336955D01*
G01*
G37*
G36*
G01*
X47700000Y-24363085D02*
X47700000Y-23236995D01*
G75*
G02*
X48036955Y-22900040I336955J0D01*
G01*
X48913045Y-22900040D01*
G75*
G02*
X49250000Y-23236995I0J-336955D01*
G01*
X49250000Y-24363085D01*
G75*
G02*
X48913045Y-24700040I-336955J0D01*
G01*
X48036955Y-24700040D01*
G75*
G02*
X47700000Y-24363085I0J336955D01*
G01*
G37*
G36*
G01*
X63300000Y-88136955D02*
X63300000Y-89263045D01*
G75*
G02*
X62963045Y-89600000I-336955J0D01*
G01*
X62086955Y-89600000D01*
G75*
G02*
X61750000Y-89263045I0J336955D01*
G01*
X61750000Y-88136955D01*
G75*
G02*
X62086955Y-87800000I336955J0D01*
G01*
X62963045Y-87800000D01*
G75*
G02*
X63300000Y-88136955I0J-336955D01*
G01*
G37*
G36*
G01*
X61250000Y-88136955D02*
X61250000Y-89263045D01*
G75*
G02*
X60913045Y-89600000I-336955J0D01*
G01*
X60036955Y-89600000D01*
G75*
G02*
X59700000Y-89263045I0J336955D01*
G01*
X59700000Y-88136955D01*
G75*
G02*
X60036955Y-87800000I336955J0D01*
G01*
X60913045Y-87800000D01*
G75*
G02*
X61250000Y-88136955I0J-336955D01*
G01*
G37*
G36*
G01*
X33271347Y-99252828D02*
X35271347Y-99252828D01*
G75*
G02*
X35471347Y-99452828I0J-200000D01*
G01*
X35471347Y-101452828D01*
G75*
G02*
X35271347Y-101652828I-200000J0D01*
G01*
X33271347Y-101652828D01*
G75*
G02*
X33071347Y-101452828I0J200000D01*
G01*
X33071347Y-99452828D01*
G75*
G02*
X33271347Y-99252828I200000J0D01*
G01*
G37*
X31771347Y-100452828D03*
X29271347Y-100452828D03*
G36*
G01*
X36371347Y-106152828D02*
X38371347Y-106152828D01*
G75*
G02*
X38571347Y-106352828I0J-200000D01*
G01*
X38571347Y-109552828D01*
G75*
G02*
X38371347Y-109752828I-200000J0D01*
G01*
X36371347Y-109752828D01*
G75*
G02*
X36171347Y-109552828I0J200000D01*
G01*
X36171347Y-106352828D01*
G75*
G02*
X36371347Y-106152828I200000J0D01*
G01*
G37*
G36*
G01*
X25171347Y-106152828D02*
X27171347Y-106152828D01*
G75*
G02*
X27371347Y-106352828I0J-200000D01*
G01*
X27371347Y-109552828D01*
G75*
G02*
X27171347Y-109752828I-200000J0D01*
G01*
X25171347Y-109752828D01*
G75*
G02*
X24971347Y-109552828I0J200000D01*
G01*
X24971347Y-106352828D01*
G75*
G02*
X25171347Y-106152828I200000J0D01*
G01*
G37*
X34271347Y-114952828D03*
X29271347Y-114952828D03*
D18*
X37801552Y-28187233D03*
X38651552Y-28187233D03*
X39501552Y-28187233D03*
X40351552Y-28187233D03*
X41201552Y-28187233D03*
X42051552Y-28187233D03*
X42901552Y-28187233D03*
X43751552Y-28187233D03*
X38651552Y-26837233D03*
X40351552Y-26837233D03*
X39501552Y-26837233D03*
X37801552Y-26837233D03*
X42051552Y-26837233D03*
X42901552Y-26837233D03*
X43751552Y-26837233D03*
X41201552Y-26837233D03*
D19*
X36451552Y-27207233D03*
X45101552Y-27207233D03*
D20*
X36451552Y-23827233D03*
X45101552Y-23827233D03*
G36*
G01*
X57363045Y-75700000D02*
X56236955Y-75700000D01*
G75*
G02*
X55900000Y-75363045I0J336955D01*
G01*
X55900000Y-74486955D01*
G75*
G02*
X56236955Y-74150000I336955J0D01*
G01*
X57363045Y-74150000D01*
G75*
G02*
X57700000Y-74486955I0J-336955D01*
G01*
X57700000Y-75363045D01*
G75*
G02*
X57363045Y-75700000I-336955J0D01*
G01*
G37*
G36*
G01*
X57363045Y-73650000D02*
X56236955Y-73650000D01*
G75*
G02*
X55900000Y-73313045I0J336955D01*
G01*
X55900000Y-72436955D01*
G75*
G02*
X56236955Y-72100000I336955J0D01*
G01*
X57363045Y-72100000D01*
G75*
G02*
X57700000Y-72436955I0J-336955D01*
G01*
X57700000Y-73313045D01*
G75*
G02*
X57363045Y-73650000I-336955J0D01*
G01*
G37*
D15*
X160680560Y-69875240D03*
X150520560Y-69875240D03*
D21*
X151790560Y-67335240D03*
D14*
X155600560Y-69875240D03*
D21*
X158140560Y-64795240D03*
G36*
G01*
X241000000Y-54800040D02*
X241000000Y-53300040D01*
G75*
G02*
X241200000Y-53100040I200000J0D01*
G01*
X242200000Y-53100040D01*
G75*
G02*
X242400000Y-53300040I0J-200000D01*
G01*
X242400000Y-54800040D01*
G75*
G02*
X242200000Y-55000040I-200000J0D01*
G01*
X241200000Y-55000040D01*
G75*
G02*
X241000000Y-54800040I0J200000D01*
G01*
G37*
G36*
G01*
X242300000Y-54800040D02*
X242300000Y-53300040D01*
G75*
G02*
X242500000Y-53100040I200000J0D01*
G01*
X243500000Y-53100040D01*
G75*
G02*
X243700000Y-53300040I0J-200000D01*
G01*
X243700000Y-54800040D01*
G75*
G02*
X243500000Y-55000040I-200000J0D01*
G01*
X242500000Y-55000040D01*
G75*
G02*
X242300000Y-54800040I0J200000D01*
G01*
G37*
G36*
G01*
X243600000Y-54800040D02*
X243600000Y-53300040D01*
G75*
G02*
X243800000Y-53100040I200000J0D01*
G01*
X244800000Y-53100040D01*
G75*
G02*
X245000000Y-53300040I0J-200000D01*
G01*
X245000000Y-54800040D01*
G75*
G02*
X244800000Y-55000040I-200000J0D01*
G01*
X243800000Y-55000040D01*
G75*
G02*
X243600000Y-54800040I0J200000D01*
G01*
G37*
D16*
X36537540Y-41300400D03*
X255612540Y-60350400D03*
X255612540Y-79400400D03*
X36537540Y-60350400D03*
X25600000Y-72800000D03*
X25600000Y-50825400D03*
X298475040Y-41300400D03*
X255612540Y-41300400D03*
X36537540Y-79400400D03*
D13*
X262914840Y-26695040D03*
D14*
X260374840Y-31775040D03*
D13*
X256564840Y-29235040D03*
D15*
X255294840Y-31775040D03*
X265454840Y-31775040D03*
G36*
G01*
X251814840Y-30485040D02*
X251814840Y-27985040D01*
G75*
G02*
X252014840Y-27785040I200000J0D01*
G01*
X254564840Y-27785040D01*
G75*
G02*
X254764840Y-27985040I0J-200000D01*
G01*
X254764840Y-30485040D01*
G75*
G02*
X254564840Y-30685040I-200000J0D01*
G01*
X252014840Y-30685040D01*
G75*
G02*
X251814840Y-30485040I0J200000D01*
G01*
G37*
G36*
G01*
X264741840Y-27945040D02*
X264741840Y-25445040D01*
G75*
G02*
X264941840Y-25245040I200000J0D01*
G01*
X267491840Y-25245040D01*
G75*
G02*
X267691840Y-25445040I0J-200000D01*
G01*
X267691840Y-27945040D01*
G75*
G02*
X267491840Y-28145040I-200000J0D01*
G01*
X264941840Y-28145040D01*
G75*
G02*
X264741840Y-27945040I0J200000D01*
G01*
G37*
G36*
G01*
X74242000Y-27945040D02*
X74242000Y-25445040D01*
G75*
G02*
X74442000Y-25245040I200000J0D01*
G01*
X76992000Y-25245040D01*
G75*
G02*
X77192000Y-25445040I0J-200000D01*
G01*
X77192000Y-27945040D01*
G75*
G02*
X76992000Y-28145040I-200000J0D01*
G01*
X74442000Y-28145040D01*
G75*
G02*
X74242000Y-27945040I0J200000D01*
G01*
G37*
G36*
G01*
X61315000Y-30485040D02*
X61315000Y-27985040D01*
G75*
G02*
X61515000Y-27785040I200000J0D01*
G01*
X64065000Y-27785040D01*
G75*
G02*
X64265000Y-27985040I0J-200000D01*
G01*
X64265000Y-30485040D01*
G75*
G02*
X64065000Y-30685040I-200000J0D01*
G01*
X61515000Y-30685040D01*
G75*
G02*
X61315000Y-30485040I0J200000D01*
G01*
G37*
X74955000Y-31775040D03*
X64795000Y-31775040D03*
D13*
X66065000Y-29235040D03*
D14*
X69875000Y-31775040D03*
D13*
X72415000Y-26695040D03*
X91465000Y-26695040D03*
D14*
X88925000Y-31775040D03*
D13*
X85115000Y-29235040D03*
D15*
X83845000Y-31775040D03*
X94005000Y-31775040D03*
G36*
G01*
X80365000Y-30485040D02*
X80365000Y-27985040D01*
G75*
G02*
X80565000Y-27785040I200000J0D01*
G01*
X83115000Y-27785040D01*
G75*
G02*
X83315000Y-27985040I0J-200000D01*
G01*
X83315000Y-30485040D01*
G75*
G02*
X83115000Y-30685040I-200000J0D01*
G01*
X80565000Y-30685040D01*
G75*
G02*
X80365000Y-30485040I0J200000D01*
G01*
G37*
G36*
G01*
X93292000Y-27945040D02*
X93292000Y-25445040D01*
G75*
G02*
X93492000Y-25245040I200000J0D01*
G01*
X96042000Y-25245040D01*
G75*
G02*
X96242000Y-25445040I0J-200000D01*
G01*
X96242000Y-27945040D01*
G75*
G02*
X96042000Y-28145040I-200000J0D01*
G01*
X93492000Y-28145040D01*
G75*
G02*
X93292000Y-27945040I0J200000D01*
G01*
G37*
G36*
G01*
X112342000Y-27945040D02*
X112342000Y-25445040D01*
G75*
G02*
X112542000Y-25245040I200000J0D01*
G01*
X115092000Y-25245040D01*
G75*
G02*
X115292000Y-25445040I0J-200000D01*
G01*
X115292000Y-27945040D01*
G75*
G02*
X115092000Y-28145040I-200000J0D01*
G01*
X112542000Y-28145040D01*
G75*
G02*
X112342000Y-27945040I0J200000D01*
G01*
G37*
G36*
G01*
X99415000Y-30485040D02*
X99415000Y-27985040D01*
G75*
G02*
X99615000Y-27785040I200000J0D01*
G01*
X102165000Y-27785040D01*
G75*
G02*
X102365000Y-27985040I0J-200000D01*
G01*
X102365000Y-30485040D01*
G75*
G02*
X102165000Y-30685040I-200000J0D01*
G01*
X99615000Y-30685040D01*
G75*
G02*
X99415000Y-30485040I0J200000D01*
G01*
G37*
X113055000Y-31775040D03*
X102895000Y-31775040D03*
D13*
X104165000Y-29235040D03*
D14*
X107975000Y-31775040D03*
D13*
X110515000Y-26695040D03*
G36*
G01*
X131392000Y-27945040D02*
X131392000Y-25445040D01*
G75*
G02*
X131592000Y-25245040I200000J0D01*
G01*
X134142000Y-25245040D01*
G75*
G02*
X134342000Y-25445040I0J-200000D01*
G01*
X134342000Y-27945040D01*
G75*
G02*
X134142000Y-28145040I-200000J0D01*
G01*
X131592000Y-28145040D01*
G75*
G02*
X131392000Y-27945040I0J200000D01*
G01*
G37*
G36*
G01*
X118465000Y-30485040D02*
X118465000Y-27985040D01*
G75*
G02*
X118665000Y-27785040I200000J0D01*
G01*
X121215000Y-27785040D01*
G75*
G02*
X121415000Y-27985040I0J-200000D01*
G01*
X121415000Y-30485040D01*
G75*
G02*
X121215000Y-30685040I-200000J0D01*
G01*
X118665000Y-30685040D01*
G75*
G02*
X118465000Y-30485040I0J200000D01*
G01*
G37*
D15*
X132105000Y-31775040D03*
X121945000Y-31775040D03*
D13*
X123215000Y-29235040D03*
D14*
X127025000Y-31775040D03*
D13*
X129565000Y-26695040D03*
X148615000Y-26695040D03*
D14*
X146075000Y-31775040D03*
D13*
X142265000Y-29235040D03*
D15*
X140995000Y-31775040D03*
X151155000Y-31775040D03*
G36*
G01*
X137515000Y-30485040D02*
X137515000Y-27985040D01*
G75*
G02*
X137715000Y-27785040I200000J0D01*
G01*
X140265000Y-27785040D01*
G75*
G02*
X140465000Y-27985040I0J-200000D01*
G01*
X140465000Y-30485040D01*
G75*
G02*
X140265000Y-30685040I-200000J0D01*
G01*
X137715000Y-30685040D01*
G75*
G02*
X137515000Y-30485040I0J200000D01*
G01*
G37*
G36*
G01*
X150442000Y-27945040D02*
X150442000Y-25445040D01*
G75*
G02*
X150642000Y-25245040I200000J0D01*
G01*
X153192000Y-25245040D01*
G75*
G02*
X153392000Y-25445040I0J-200000D01*
G01*
X153392000Y-27945040D01*
G75*
G02*
X153192000Y-28145040I-200000J0D01*
G01*
X150642000Y-28145040D01*
G75*
G02*
X150442000Y-27945040I0J200000D01*
G01*
G37*
D13*
X205765600Y-26695080D03*
D14*
X203225600Y-31775080D03*
D13*
X199415600Y-29235080D03*
D15*
X198145600Y-31775080D03*
X208305600Y-31775080D03*
G36*
G01*
X194665600Y-30485080D02*
X194665600Y-27985080D01*
G75*
G02*
X194865600Y-27785080I200000J0D01*
G01*
X197415600Y-27785080D01*
G75*
G02*
X197615600Y-27985080I0J-200000D01*
G01*
X197615600Y-30485080D01*
G75*
G02*
X197415600Y-30685080I-200000J0D01*
G01*
X194865600Y-30685080D01*
G75*
G02*
X194665600Y-30485080I0J200000D01*
G01*
G37*
G36*
G01*
X207592600Y-27945080D02*
X207592600Y-25445080D01*
G75*
G02*
X207792600Y-25245080I200000J0D01*
G01*
X210342600Y-25245080D01*
G75*
G02*
X210542600Y-25445080I0J-200000D01*
G01*
X210542600Y-27945080D01*
G75*
G02*
X210342600Y-28145080I-200000J0D01*
G01*
X207792600Y-28145080D01*
G75*
G02*
X207592600Y-27945080I0J200000D01*
G01*
G37*
D13*
X224815680Y-26695040D03*
D14*
X222275680Y-31775040D03*
D13*
X218465680Y-29235040D03*
D15*
X217195680Y-31775040D03*
X227355680Y-31775040D03*
G36*
G01*
X213715680Y-30485040D02*
X213715680Y-27985040D01*
G75*
G02*
X213915680Y-27785040I200000J0D01*
G01*
X216465680Y-27785040D01*
G75*
G02*
X216665680Y-27985040I0J-200000D01*
G01*
X216665680Y-30485040D01*
G75*
G02*
X216465680Y-30685040I-200000J0D01*
G01*
X213915680Y-30685040D01*
G75*
G02*
X213715680Y-30485040I0J200000D01*
G01*
G37*
G36*
G01*
X226642680Y-27945040D02*
X226642680Y-25445040D01*
G75*
G02*
X226842680Y-25245040I200000J0D01*
G01*
X229392680Y-25245040D01*
G75*
G02*
X229592680Y-25445040I0J-200000D01*
G01*
X229592680Y-27945040D01*
G75*
G02*
X229392680Y-28145040I-200000J0D01*
G01*
X226842680Y-28145040D01*
G75*
G02*
X226642680Y-27945040I0J200000D01*
G01*
G37*
D13*
X243865760Y-26695040D03*
D14*
X241325760Y-31775040D03*
D13*
X237515760Y-29235040D03*
D15*
X236245760Y-31775040D03*
X246405760Y-31775040D03*
G36*
G01*
X232765760Y-30485040D02*
X232765760Y-27985040D01*
G75*
G02*
X232965760Y-27785040I200000J0D01*
G01*
X235515760Y-27785040D01*
G75*
G02*
X235715760Y-27985040I0J-200000D01*
G01*
X235715760Y-30485040D01*
G75*
G02*
X235515760Y-30685040I-200000J0D01*
G01*
X232965760Y-30685040D01*
G75*
G02*
X232765760Y-30485040I0J200000D01*
G01*
G37*
G36*
G01*
X245692760Y-27945040D02*
X245692760Y-25445040D01*
G75*
G02*
X245892760Y-25245040I200000J0D01*
G01*
X248442760Y-25245040D01*
G75*
G02*
X248642760Y-25445040I0J-200000D01*
G01*
X248642760Y-27945040D01*
G75*
G02*
X248442760Y-28145040I-200000J0D01*
G01*
X245892760Y-28145040D01*
G75*
G02*
X245692760Y-27945040I0J200000D01*
G01*
G37*
D13*
X281964840Y-26695040D03*
D14*
X279424840Y-31775040D03*
D13*
X275614840Y-29235040D03*
D15*
X274344840Y-31775040D03*
X284504840Y-31775040D03*
G36*
G01*
X270864840Y-30485040D02*
X270864840Y-27985040D01*
G75*
G02*
X271064840Y-27785040I200000J0D01*
G01*
X273614840Y-27785040D01*
G75*
G02*
X273814840Y-27985040I0J-200000D01*
G01*
X273814840Y-30485040D01*
G75*
G02*
X273614840Y-30685040I-200000J0D01*
G01*
X271064840Y-30685040D01*
G75*
G02*
X270864840Y-30485040I0J200000D01*
G01*
G37*
G36*
G01*
X283791840Y-27945040D02*
X283791840Y-25445040D01*
G75*
G02*
X283991840Y-25245040I200000J0D01*
G01*
X286541840Y-25245040D01*
G75*
G02*
X286741840Y-25445040I0J-200000D01*
G01*
X286741840Y-27945040D01*
G75*
G02*
X286541840Y-28145040I-200000J0D01*
G01*
X283991840Y-28145040D01*
G75*
G02*
X283791840Y-27945040I0J200000D01*
G01*
G37*
D13*
X48285000Y-36855040D03*
D14*
X50825000Y-31775040D03*
D13*
X54635000Y-34315040D03*
D15*
X55905000Y-31775040D03*
X45745000Y-31775040D03*
G36*
G01*
X59385000Y-33065040D02*
X59385000Y-35565040D01*
G75*
G02*
X59185000Y-35765040I-200000J0D01*
G01*
X56635000Y-35765040D01*
G75*
G02*
X56435000Y-35565040I0J200000D01*
G01*
X56435000Y-33065040D01*
G75*
G02*
X56635000Y-32865040I200000J0D01*
G01*
X59185000Y-32865040D01*
G75*
G02*
X59385000Y-33065040I0J-200000D01*
G01*
G37*
G36*
G01*
X46458000Y-35605040D02*
X46458000Y-38105040D01*
G75*
G02*
X46258000Y-38305040I-200000J0D01*
G01*
X43708000Y-38305040D01*
G75*
G02*
X43508000Y-38105040I0J200000D01*
G01*
X43508000Y-35605040D01*
G75*
G02*
X43708000Y-35405040I200000J0D01*
G01*
X46258000Y-35405040D01*
G75*
G02*
X46458000Y-35605040I0J-200000D01*
G01*
G37*
G36*
G01*
X179017880Y-66045240D02*
X179017880Y-63545240D01*
G75*
G02*
X179217880Y-63345240I200000J0D01*
G01*
X181767880Y-63345240D01*
G75*
G02*
X181967880Y-63545240I0J-200000D01*
G01*
X181967880Y-66045240D01*
G75*
G02*
X181767880Y-66245240I-200000J0D01*
G01*
X179217880Y-66245240D01*
G75*
G02*
X179017880Y-66045240I0J200000D01*
G01*
G37*
G36*
G01*
X166090880Y-68585240D02*
X166090880Y-66085240D01*
G75*
G02*
X166290880Y-65885240I200000J0D01*
G01*
X168840880Y-65885240D01*
G75*
G02*
X169040880Y-66085240I0J-200000D01*
G01*
X169040880Y-68585240D01*
G75*
G02*
X168840880Y-68785240I-200000J0D01*
G01*
X166290880Y-68785240D01*
G75*
G02*
X166090880Y-68585240I0J200000D01*
G01*
G37*
X179730880Y-69875240D03*
X169570880Y-69875240D03*
D13*
X170840880Y-67335240D03*
D14*
X174650880Y-69875240D03*
D13*
X177190880Y-64795240D03*
X243865760Y-83845320D03*
D14*
X241325760Y-88925320D03*
D13*
X237515760Y-86385320D03*
D15*
X236245760Y-88925320D03*
X246405760Y-88925320D03*
G36*
G01*
X232765760Y-87635320D02*
X232765760Y-85135320D01*
G75*
G02*
X232965760Y-84935320I200000J0D01*
G01*
X235515760Y-84935320D01*
G75*
G02*
X235715760Y-85135320I0J-200000D01*
G01*
X235715760Y-87635320D01*
G75*
G02*
X235515760Y-87835320I-200000J0D01*
G01*
X232965760Y-87835320D01*
G75*
G02*
X232765760Y-87635320I0J200000D01*
G01*
G37*
G36*
G01*
X245692760Y-85095320D02*
X245692760Y-82595320D01*
G75*
G02*
X245892760Y-82395320I200000J0D01*
G01*
X248442760Y-82395320D01*
G75*
G02*
X248642760Y-82595320I0J-200000D01*
G01*
X248642760Y-85095320D01*
G75*
G02*
X248442760Y-85295320I-200000J0D01*
G01*
X245892760Y-85295320D01*
G75*
G02*
X245692760Y-85095320I0J200000D01*
G01*
G37*
D13*
X301014840Y-26695040D03*
D14*
X298474840Y-31775040D03*
D13*
X294664840Y-29235040D03*
D15*
X293394840Y-31775040D03*
X303554840Y-31775040D03*
G36*
G01*
X289914840Y-30485040D02*
X289914840Y-27985040D01*
G75*
G02*
X290114840Y-27785040I200000J0D01*
G01*
X292664840Y-27785040D01*
G75*
G02*
X292864840Y-27985040I0J-200000D01*
G01*
X292864840Y-30485040D01*
G75*
G02*
X292664840Y-30685040I-200000J0D01*
G01*
X290114840Y-30685040D01*
G75*
G02*
X289914840Y-30485040I0J200000D01*
G01*
G37*
G36*
G01*
X302841840Y-27945040D02*
X302841840Y-25445040D01*
G75*
G02*
X303041840Y-25245040I200000J0D01*
G01*
X305591840Y-25245040D01*
G75*
G02*
X305791840Y-25445040I0J-200000D01*
G01*
X305791840Y-27945040D01*
G75*
G02*
X305591840Y-28145040I-200000J0D01*
G01*
X303041840Y-28145040D01*
G75*
G02*
X302841840Y-27945040I0J200000D01*
G01*
G37*
G36*
G01*
X264742840Y-85095320D02*
X264742840Y-82595320D01*
G75*
G02*
X264942840Y-82395320I200000J0D01*
G01*
X267492840Y-82395320D01*
G75*
G02*
X267692840Y-82595320I0J-200000D01*
G01*
X267692840Y-85095320D01*
G75*
G02*
X267492840Y-85295320I-200000J0D01*
G01*
X264942840Y-85295320D01*
G75*
G02*
X264742840Y-85095320I0J200000D01*
G01*
G37*
G36*
G01*
X251815840Y-87635320D02*
X251815840Y-85135320D01*
G75*
G02*
X252015840Y-84935320I200000J0D01*
G01*
X254565840Y-84935320D01*
G75*
G02*
X254765840Y-85135320I0J-200000D01*
G01*
X254765840Y-87635320D01*
G75*
G02*
X254565840Y-87835320I-200000J0D01*
G01*
X252015840Y-87835320D01*
G75*
G02*
X251815840Y-87635320I0J200000D01*
G01*
G37*
X265455840Y-88925320D03*
X255295840Y-88925320D03*
D13*
X256565840Y-86385320D03*
D14*
X260375840Y-88925320D03*
D13*
X262915840Y-83845320D03*
X177190040Y-45745400D03*
D14*
X174650040Y-50825400D03*
D13*
X170840040Y-48285400D03*
D15*
X169570040Y-50825400D03*
X179730040Y-50825400D03*
G36*
G01*
X166090040Y-49535400D02*
X166090040Y-47035400D01*
G75*
G02*
X166290040Y-46835400I200000J0D01*
G01*
X168840040Y-46835400D01*
G75*
G02*
X169040040Y-47035400I0J-200000D01*
G01*
X169040040Y-49535400D01*
G75*
G02*
X168840040Y-49735400I-200000J0D01*
G01*
X166290040Y-49735400D01*
G75*
G02*
X166090040Y-49535400I0J200000D01*
G01*
G37*
G36*
G01*
X179017040Y-46995400D02*
X179017040Y-44495400D01*
G75*
G02*
X179217040Y-44295400I200000J0D01*
G01*
X181767040Y-44295400D01*
G75*
G02*
X181967040Y-44495400I0J-200000D01*
G01*
X181967040Y-46995400D01*
G75*
G02*
X181767040Y-47195400I-200000J0D01*
G01*
X179217040Y-47195400D01*
G75*
G02*
X179017040Y-46995400I0J200000D01*
G01*
G37*
D13*
X186715040Y-26695400D03*
D14*
X184175040Y-31775400D03*
D13*
X180365040Y-29235400D03*
D15*
X179095040Y-31775400D03*
X189255040Y-31775400D03*
G36*
G01*
X175615040Y-30485400D02*
X175615040Y-27985400D01*
G75*
G02*
X175815040Y-27785400I200000J0D01*
G01*
X178365040Y-27785400D01*
G75*
G02*
X178565040Y-27985400I0J-200000D01*
G01*
X178565040Y-30485400D01*
G75*
G02*
X178365040Y-30685400I-200000J0D01*
G01*
X175815040Y-30685400D01*
G75*
G02*
X175615040Y-30485400I0J200000D01*
G01*
G37*
G36*
G01*
X188542040Y-27945400D02*
X188542040Y-25445400D01*
G75*
G02*
X188742040Y-25245400I200000J0D01*
G01*
X191292040Y-25245400D01*
G75*
G02*
X191492040Y-25445400I0J-200000D01*
G01*
X191492040Y-27945400D01*
G75*
G02*
X191292040Y-28145400I-200000J0D01*
G01*
X188742040Y-28145400D01*
G75*
G02*
X188542040Y-27945400I0J200000D01*
G01*
G37*
D13*
X167665040Y-26695400D03*
D14*
X165125040Y-31775400D03*
D13*
X161315040Y-29235400D03*
D15*
X160045040Y-31775400D03*
X170205040Y-31775400D03*
G36*
G01*
X156565040Y-30485400D02*
X156565040Y-27985400D01*
G75*
G02*
X156765040Y-27785400I200000J0D01*
G01*
X159315040Y-27785400D01*
G75*
G02*
X159515040Y-27985400I0J-200000D01*
G01*
X159515040Y-30485400D01*
G75*
G02*
X159315040Y-30685400I-200000J0D01*
G01*
X156765040Y-30685400D01*
G75*
G02*
X156565040Y-30485400I0J200000D01*
G01*
G37*
G36*
G01*
X169492040Y-27945400D02*
X169492040Y-25445400D01*
G75*
G02*
X169692040Y-25245400I200000J0D01*
G01*
X172242040Y-25245400D01*
G75*
G02*
X172442040Y-25445400I0J-200000D01*
G01*
X172442040Y-27945400D01*
G75*
G02*
X172242040Y-28145400I-200000J0D01*
G01*
X169692040Y-28145400D01*
G75*
G02*
X169492040Y-27945400I0J200000D01*
G01*
G37*
G36*
G01*
X64717000Y-66045200D02*
X64717000Y-63545200D01*
G75*
G02*
X64917000Y-63345200I200000J0D01*
G01*
X67467000Y-63345200D01*
G75*
G02*
X67667000Y-63545200I0J-200000D01*
G01*
X67667000Y-66045200D01*
G75*
G02*
X67467000Y-66245200I-200000J0D01*
G01*
X64917000Y-66245200D01*
G75*
G02*
X64717000Y-66045200I0J200000D01*
G01*
G37*
G36*
G01*
X51790000Y-68585200D02*
X51790000Y-66085200D01*
G75*
G02*
X51990000Y-65885200I200000J0D01*
G01*
X54540000Y-65885200D01*
G75*
G02*
X54740000Y-66085200I0J-200000D01*
G01*
X54740000Y-68585200D01*
G75*
G02*
X54540000Y-68785200I-200000J0D01*
G01*
X51990000Y-68785200D01*
G75*
G02*
X51790000Y-68585200I0J200000D01*
G01*
G37*
X65430000Y-69875200D03*
X55270000Y-69875200D03*
D13*
X56540000Y-67335200D03*
D14*
X60350000Y-69875200D03*
D13*
X62890000Y-64795200D03*
G36*
G01*
X150442000Y-85095280D02*
X150442000Y-82595280D01*
G75*
G02*
X150642000Y-82395280I200000J0D01*
G01*
X153192000Y-82395280D01*
G75*
G02*
X153392000Y-82595280I0J-200000D01*
G01*
X153392000Y-85095280D01*
G75*
G02*
X153192000Y-85295280I-200000J0D01*
G01*
X150642000Y-85295280D01*
G75*
G02*
X150442000Y-85095280I0J200000D01*
G01*
G37*
G36*
G01*
X137515000Y-87635280D02*
X137515000Y-85135280D01*
G75*
G02*
X137715000Y-84935280I200000J0D01*
G01*
X140265000Y-84935280D01*
G75*
G02*
X140465000Y-85135280I0J-200000D01*
G01*
X140465000Y-87635280D01*
G75*
G02*
X140265000Y-87835280I-200000J0D01*
G01*
X137715000Y-87835280D01*
G75*
G02*
X137515000Y-87635280I0J200000D01*
G01*
G37*
D15*
X151155000Y-88925280D03*
X140995000Y-88925280D03*
D13*
X142265000Y-86385280D03*
D14*
X146075000Y-88925280D03*
D13*
X148615000Y-83845280D03*
G36*
G01*
X112342000Y-85095280D02*
X112342000Y-82595280D01*
G75*
G02*
X112542000Y-82395280I200000J0D01*
G01*
X115092000Y-82395280D01*
G75*
G02*
X115292000Y-82595280I0J-200000D01*
G01*
X115292000Y-85095280D01*
G75*
G02*
X115092000Y-85295280I-200000J0D01*
G01*
X112542000Y-85295280D01*
G75*
G02*
X112342000Y-85095280I0J200000D01*
G01*
G37*
G36*
G01*
X99415000Y-87635280D02*
X99415000Y-85135280D01*
G75*
G02*
X99615000Y-84935280I200000J0D01*
G01*
X102165000Y-84935280D01*
G75*
G02*
X102365000Y-85135280I0J-200000D01*
G01*
X102365000Y-87635280D01*
G75*
G02*
X102165000Y-87835280I-200000J0D01*
G01*
X99615000Y-87835280D01*
G75*
G02*
X99415000Y-87635280I0J200000D01*
G01*
G37*
D15*
X113055000Y-88925280D03*
X102895000Y-88925280D03*
D13*
X104165000Y-86385280D03*
D14*
X107975000Y-88925280D03*
D13*
X110515000Y-83845280D03*
G36*
G01*
X102817000Y-66045200D02*
X102817000Y-63545200D01*
G75*
G02*
X103017000Y-63345200I200000J0D01*
G01*
X105567000Y-63345200D01*
G75*
G02*
X105767000Y-63545200I0J-200000D01*
G01*
X105767000Y-66045200D01*
G75*
G02*
X105567000Y-66245200I-200000J0D01*
G01*
X103017000Y-66245200D01*
G75*
G02*
X102817000Y-66045200I0J200000D01*
G01*
G37*
G36*
G01*
X89890000Y-68585200D02*
X89890000Y-66085200D01*
G75*
G02*
X90090000Y-65885200I200000J0D01*
G01*
X92640000Y-65885200D01*
G75*
G02*
X92840000Y-66085200I0J-200000D01*
G01*
X92840000Y-68585200D01*
G75*
G02*
X92640000Y-68785200I-200000J0D01*
G01*
X90090000Y-68785200D01*
G75*
G02*
X89890000Y-68585200I0J200000D01*
G01*
G37*
D15*
X103530000Y-69875200D03*
X93370000Y-69875200D03*
D13*
X94640000Y-67335200D03*
D14*
X98450000Y-69875200D03*
D13*
X100990000Y-64795200D03*
X281966080Y-102895360D03*
D14*
X279426080Y-107975360D03*
D13*
X275616080Y-105435360D03*
D15*
X274346080Y-107975360D03*
X284506080Y-107975360D03*
G36*
G01*
X270866080Y-106685360D02*
X270866080Y-104185360D01*
G75*
G02*
X271066080Y-103985360I200000J0D01*
G01*
X273616080Y-103985360D01*
G75*
G02*
X273816080Y-104185360I0J-200000D01*
G01*
X273816080Y-106685360D01*
G75*
G02*
X273616080Y-106885360I-200000J0D01*
G01*
X271066080Y-106885360D01*
G75*
G02*
X270866080Y-106685360I0J200000D01*
G01*
G37*
G36*
G01*
X283793080Y-104145360D02*
X283793080Y-101645360D01*
G75*
G02*
X283993080Y-101445360I200000J0D01*
G01*
X286543080Y-101445360D01*
G75*
G02*
X286743080Y-101645360I0J-200000D01*
G01*
X286743080Y-104145360D01*
G75*
G02*
X286543080Y-104345360I-200000J0D01*
G01*
X283993080Y-104345360D01*
G75*
G02*
X283793080Y-104145360I0J200000D01*
G01*
G37*
D13*
X100990000Y-45745120D03*
D14*
X98450000Y-50825120D03*
D13*
X94640000Y-48285120D03*
D15*
X93370000Y-50825120D03*
X103530000Y-50825120D03*
G36*
G01*
X89890000Y-49535120D02*
X89890000Y-47035120D01*
G75*
G02*
X90090000Y-46835120I200000J0D01*
G01*
X92640000Y-46835120D01*
G75*
G02*
X92840000Y-47035120I0J-200000D01*
G01*
X92840000Y-49535120D01*
G75*
G02*
X92640000Y-49735120I-200000J0D01*
G01*
X90090000Y-49735120D01*
G75*
G02*
X89890000Y-49535120I0J200000D01*
G01*
G37*
G36*
G01*
X102817000Y-46995120D02*
X102817000Y-44495120D01*
G75*
G02*
X103017000Y-44295120I200000J0D01*
G01*
X105567000Y-44295120D01*
G75*
G02*
X105767000Y-44495120I0J-200000D01*
G01*
X105767000Y-46995120D01*
G75*
G02*
X105567000Y-47195120I-200000J0D01*
G01*
X103017000Y-47195120D01*
G75*
G02*
X102817000Y-46995120I0J200000D01*
G01*
G37*
G36*
G01*
X27408000Y-35605040D02*
X27408000Y-38105040D01*
G75*
G02*
X27208000Y-38305040I-200000J0D01*
G01*
X24658000Y-38305040D01*
G75*
G02*
X24458000Y-38105040I0J200000D01*
G01*
X24458000Y-35605040D01*
G75*
G02*
X24658000Y-35405040I200000J0D01*
G01*
X27208000Y-35405040D01*
G75*
G02*
X27408000Y-35605040I0J-200000D01*
G01*
G37*
G36*
G01*
X40335000Y-33065040D02*
X40335000Y-35565040D01*
G75*
G02*
X40135000Y-35765040I-200000J0D01*
G01*
X37585000Y-35765040D01*
G75*
G02*
X37385000Y-35565040I0J200000D01*
G01*
X37385000Y-33065040D01*
G75*
G02*
X37585000Y-32865040I200000J0D01*
G01*
X40135000Y-32865040D01*
G75*
G02*
X40335000Y-33065040I0J-200000D01*
G01*
G37*
X26695000Y-31775040D03*
X36855000Y-31775040D03*
D13*
X35585000Y-34315040D03*
D14*
X31775000Y-31775040D03*
D13*
X29235000Y-36855040D03*
X120040000Y-64795200D03*
D14*
X117500000Y-69875200D03*
D13*
X113690000Y-67335200D03*
D15*
X112420000Y-69875200D03*
X122580000Y-69875200D03*
G36*
G01*
X108940000Y-68585200D02*
X108940000Y-66085200D01*
G75*
G02*
X109140000Y-65885200I200000J0D01*
G01*
X111690000Y-65885200D01*
G75*
G02*
X111890000Y-66085200I0J-200000D01*
G01*
X111890000Y-68585200D01*
G75*
G02*
X111690000Y-68785200I-200000J0D01*
G01*
X109140000Y-68785200D01*
G75*
G02*
X108940000Y-68585200I0J200000D01*
G01*
G37*
G36*
G01*
X121867000Y-66045200D02*
X121867000Y-63545200D01*
G75*
G02*
X122067000Y-63345200I200000J0D01*
G01*
X124617000Y-63345200D01*
G75*
G02*
X124817000Y-63545200I0J-200000D01*
G01*
X124817000Y-66045200D01*
G75*
G02*
X124617000Y-66245200I-200000J0D01*
G01*
X122067000Y-66245200D01*
G75*
G02*
X121867000Y-66045200I0J200000D01*
G01*
G37*
D13*
X301016160Y-83845320D03*
D14*
X298476160Y-88925320D03*
D13*
X294666160Y-86385320D03*
D15*
X293396160Y-88925320D03*
X303556160Y-88925320D03*
G36*
G01*
X289916160Y-87635320D02*
X289916160Y-85135320D01*
G75*
G02*
X290116160Y-84935320I200000J0D01*
G01*
X292666160Y-84935320D01*
G75*
G02*
X292866160Y-85135320I0J-200000D01*
G01*
X292866160Y-87635320D01*
G75*
G02*
X292666160Y-87835320I-200000J0D01*
G01*
X290116160Y-87835320D01*
G75*
G02*
X289916160Y-87635320I0J200000D01*
G01*
G37*
G36*
G01*
X302843160Y-85095320D02*
X302843160Y-82595320D01*
G75*
G02*
X303043160Y-82395320I200000J0D01*
G01*
X305593160Y-82395320D01*
G75*
G02*
X305793160Y-82595320I0J-200000D01*
G01*
X305793160Y-85095320D01*
G75*
G02*
X305593160Y-85295320I-200000J0D01*
G01*
X303043160Y-85295320D01*
G75*
G02*
X302843160Y-85095320I0J200000D01*
G01*
G37*
G36*
G01*
X140917000Y-66045200D02*
X140917000Y-63545200D01*
G75*
G02*
X141117000Y-63345200I200000J0D01*
G01*
X143667000Y-63345200D01*
G75*
G02*
X143867000Y-63545200I0J-200000D01*
G01*
X143867000Y-66045200D01*
G75*
G02*
X143667000Y-66245200I-200000J0D01*
G01*
X141117000Y-66245200D01*
G75*
G02*
X140917000Y-66045200I0J200000D01*
G01*
G37*
G36*
G01*
X127990000Y-68585200D02*
X127990000Y-66085200D01*
G75*
G02*
X128190000Y-65885200I200000J0D01*
G01*
X130740000Y-65885200D01*
G75*
G02*
X130940000Y-66085200I0J-200000D01*
G01*
X130940000Y-68585200D01*
G75*
G02*
X130740000Y-68785200I-200000J0D01*
G01*
X128190000Y-68785200D01*
G75*
G02*
X127990000Y-68585200I0J200000D01*
G01*
G37*
X141630000Y-69875200D03*
X131470000Y-69875200D03*
D13*
X132740000Y-67335200D03*
D14*
X136550000Y-69875200D03*
D13*
X139090000Y-64795200D03*
G36*
G01*
X151233560Y-73705240D02*
X151233560Y-76205240D01*
G75*
G02*
X151033560Y-76405240I-200000J0D01*
G01*
X148483560Y-76405240D01*
G75*
G02*
X148283560Y-76205240I0J200000D01*
G01*
X148283560Y-73705240D01*
G75*
G02*
X148483560Y-73505240I200000J0D01*
G01*
X151033560Y-73505240D01*
G75*
G02*
X151233560Y-73705240I0J-200000D01*
G01*
G37*
G36*
G01*
X164160560Y-71165240D02*
X164160560Y-73665240D01*
G75*
G02*
X163960560Y-73865240I-200000J0D01*
G01*
X161410560Y-73865240D01*
G75*
G02*
X161210560Y-73665240I0J200000D01*
G01*
X161210560Y-71165240D01*
G75*
G02*
X161410560Y-70965240I200000J0D01*
G01*
X163960560Y-70965240D01*
G75*
G02*
X164160560Y-71165240I0J-200000D01*
G01*
G37*
D15*
X150520560Y-69875240D03*
X160680560Y-69875240D03*
D13*
X159410560Y-72415240D03*
D14*
X155600560Y-69875240D03*
D13*
X153060560Y-74955240D03*
G36*
G01*
X236167720Y-46995160D02*
X236167720Y-44495160D01*
G75*
G02*
X236367720Y-44295160I200000J0D01*
G01*
X238917720Y-44295160D01*
G75*
G02*
X239117720Y-44495160I0J-200000D01*
G01*
X239117720Y-46995160D01*
G75*
G02*
X238917720Y-47195160I-200000J0D01*
G01*
X236367720Y-47195160D01*
G75*
G02*
X236167720Y-46995160I0J200000D01*
G01*
G37*
G36*
G01*
X223240720Y-49535160D02*
X223240720Y-47035160D01*
G75*
G02*
X223440720Y-46835160I200000J0D01*
G01*
X225990720Y-46835160D01*
G75*
G02*
X226190720Y-47035160I0J-200000D01*
G01*
X226190720Y-49535160D01*
G75*
G02*
X225990720Y-49735160I-200000J0D01*
G01*
X223440720Y-49735160D01*
G75*
G02*
X223240720Y-49535160I0J200000D01*
G01*
G37*
D15*
X236880720Y-50825160D03*
X226720720Y-50825160D03*
D13*
X227990720Y-48285160D03*
D14*
X231800720Y-50825160D03*
D13*
X234340720Y-45745160D03*
G36*
G01*
X217117640Y-66045200D02*
X217117640Y-63545200D01*
G75*
G02*
X217317640Y-63345200I200000J0D01*
G01*
X219867640Y-63345200D01*
G75*
G02*
X220067640Y-63545200I0J-200000D01*
G01*
X220067640Y-66045200D01*
G75*
G02*
X219867640Y-66245200I-200000J0D01*
G01*
X217317640Y-66245200D01*
G75*
G02*
X217117640Y-66045200I0J200000D01*
G01*
G37*
G36*
G01*
X204190640Y-68585200D02*
X204190640Y-66085200D01*
G75*
G02*
X204390640Y-65885200I200000J0D01*
G01*
X206940640Y-65885200D01*
G75*
G02*
X207140640Y-66085200I0J-200000D01*
G01*
X207140640Y-68585200D01*
G75*
G02*
X206940640Y-68785200I-200000J0D01*
G01*
X204390640Y-68785200D01*
G75*
G02*
X204190640Y-68585200I0J200000D01*
G01*
G37*
D15*
X217830640Y-69875200D03*
X207670640Y-69875200D03*
D13*
X208940640Y-67335200D03*
D14*
X212750640Y-69875200D03*
D13*
X215290640Y-64795200D03*
G36*
G01*
X236167720Y-66045240D02*
X236167720Y-63545240D01*
G75*
G02*
X236367720Y-63345240I200000J0D01*
G01*
X238917720Y-63345240D01*
G75*
G02*
X239117720Y-63545240I0J-200000D01*
G01*
X239117720Y-66045240D01*
G75*
G02*
X238917720Y-66245240I-200000J0D01*
G01*
X236367720Y-66245240D01*
G75*
G02*
X236167720Y-66045240I0J200000D01*
G01*
G37*
G36*
G01*
X223240720Y-68585240D02*
X223240720Y-66085240D01*
G75*
G02*
X223440720Y-65885240I200000J0D01*
G01*
X225990720Y-65885240D01*
G75*
G02*
X226190720Y-66085240I0J-200000D01*
G01*
X226190720Y-68585240D01*
G75*
G02*
X225990720Y-68785240I-200000J0D01*
G01*
X223440720Y-68785240D01*
G75*
G02*
X223240720Y-68585240I0J200000D01*
G01*
G37*
D15*
X236880720Y-69875240D03*
X226720720Y-69875240D03*
D13*
X227990720Y-67335240D03*
D14*
X231800720Y-69875240D03*
D13*
X234340720Y-64795240D03*
G36*
G01*
X255217800Y-66045240D02*
X255217800Y-63545240D01*
G75*
G02*
X255417800Y-63345240I200000J0D01*
G01*
X257967800Y-63345240D01*
G75*
G02*
X258167800Y-63545240I0J-200000D01*
G01*
X258167800Y-66045240D01*
G75*
G02*
X257967800Y-66245240I-200000J0D01*
G01*
X255417800Y-66245240D01*
G75*
G02*
X255217800Y-66045240I0J200000D01*
G01*
G37*
G36*
G01*
X242290800Y-68585240D02*
X242290800Y-66085240D01*
G75*
G02*
X242490800Y-65885240I200000J0D01*
G01*
X245040800Y-65885240D01*
G75*
G02*
X245240800Y-66085240I0J-200000D01*
G01*
X245240800Y-68585240D01*
G75*
G02*
X245040800Y-68785240I-200000J0D01*
G01*
X242490800Y-68785240D01*
G75*
G02*
X242290800Y-68585240I0J200000D01*
G01*
G37*
D15*
X255930800Y-69875240D03*
X245770800Y-69875240D03*
D13*
X247040800Y-67335240D03*
D14*
X250850800Y-69875240D03*
D13*
X253390800Y-64795240D03*
G36*
G01*
X27408040Y-92755400D02*
X27408040Y-95255400D01*
G75*
G02*
X27208040Y-95455400I-200000J0D01*
G01*
X24658040Y-95455400D01*
G75*
G02*
X24458040Y-95255400I0J200000D01*
G01*
X24458040Y-92755400D01*
G75*
G02*
X24658040Y-92555400I200000J0D01*
G01*
X27208040Y-92555400D01*
G75*
G02*
X27408040Y-92755400I0J-200000D01*
G01*
G37*
G36*
G01*
X40335040Y-90215400D02*
X40335040Y-92715400D01*
G75*
G02*
X40135040Y-92915400I-200000J0D01*
G01*
X37585040Y-92915400D01*
G75*
G02*
X37385040Y-92715400I0J200000D01*
G01*
X37385040Y-90215400D01*
G75*
G02*
X37585040Y-90015400I200000J0D01*
G01*
X40135040Y-90015400D01*
G75*
G02*
X40335040Y-90215400I0J-200000D01*
G01*
G37*
D15*
X26695040Y-88925400D03*
X36855040Y-88925400D03*
D13*
X35585040Y-91465400D03*
D14*
X31775040Y-88925400D03*
D13*
X29235040Y-94005400D03*
X48285040Y-94005400D03*
D14*
X50825040Y-88925400D03*
D13*
X54635040Y-91465400D03*
D15*
X55905040Y-88925400D03*
X45745040Y-88925400D03*
G36*
G01*
X59385040Y-90215400D02*
X59385040Y-92715400D01*
G75*
G02*
X59185040Y-92915400I-200000J0D01*
G01*
X56635040Y-92915400D01*
G75*
G02*
X56435040Y-92715400I0J200000D01*
G01*
X56435040Y-90215400D01*
G75*
G02*
X56635040Y-90015400I200000J0D01*
G01*
X59185040Y-90015400D01*
G75*
G02*
X59385040Y-90215400I0J-200000D01*
G01*
G37*
G36*
G01*
X46458040Y-92755400D02*
X46458040Y-95255400D01*
G75*
G02*
X46258040Y-95455400I-200000J0D01*
G01*
X43708040Y-95455400D01*
G75*
G02*
X43508040Y-95255400I0J200000D01*
G01*
X43508040Y-92755400D01*
G75*
G02*
X43708040Y-92555400I200000J0D01*
G01*
X46258040Y-92555400D01*
G75*
G02*
X46458040Y-92755400I0J-200000D01*
G01*
G37*
G36*
G01*
X226642680Y-85095280D02*
X226642680Y-82595280D01*
G75*
G02*
X226842680Y-82395280I200000J0D01*
G01*
X229392680Y-82395280D01*
G75*
G02*
X229592680Y-82595280I0J-200000D01*
G01*
X229592680Y-85095280D01*
G75*
G02*
X229392680Y-85295280I-200000J0D01*
G01*
X226842680Y-85295280D01*
G75*
G02*
X226642680Y-85095280I0J200000D01*
G01*
G37*
G36*
G01*
X213715680Y-87635280D02*
X213715680Y-85135280D01*
G75*
G02*
X213915680Y-84935280I200000J0D01*
G01*
X216465680Y-84935280D01*
G75*
G02*
X216665680Y-85135280I0J-200000D01*
G01*
X216665680Y-87635280D01*
G75*
G02*
X216465680Y-87835280I-200000J0D01*
G01*
X213915680Y-87835280D01*
G75*
G02*
X213715680Y-87635280I0J200000D01*
G01*
G37*
X227355680Y-88925280D03*
X217195680Y-88925280D03*
D13*
X218465680Y-86385280D03*
D14*
X222275680Y-88925280D03*
D13*
X224815680Y-83845280D03*
G36*
G01*
X207592600Y-85095280D02*
X207592600Y-82595280D01*
G75*
G02*
X207792600Y-82395280I200000J0D01*
G01*
X210342600Y-82395280D01*
G75*
G02*
X210542600Y-82595280I0J-200000D01*
G01*
X210542600Y-85095280D01*
G75*
G02*
X210342600Y-85295280I-200000J0D01*
G01*
X207792600Y-85295280D01*
G75*
G02*
X207592600Y-85095280I0J200000D01*
G01*
G37*
G36*
G01*
X194665600Y-87635280D02*
X194665600Y-85135280D01*
G75*
G02*
X194865600Y-84935280I200000J0D01*
G01*
X197415600Y-84935280D01*
G75*
G02*
X197615600Y-85135280I0J-200000D01*
G01*
X197615600Y-87635280D01*
G75*
G02*
X197415600Y-87835280I-200000J0D01*
G01*
X194865600Y-87835280D01*
G75*
G02*
X194665600Y-87635280I0J200000D01*
G01*
G37*
D15*
X208305600Y-88925280D03*
X198145600Y-88925280D03*
D13*
X199415600Y-86385280D03*
D14*
X203225600Y-88925280D03*
D13*
X205765600Y-83845280D03*
G36*
G01*
X255217800Y-46995160D02*
X255217800Y-44495160D01*
G75*
G02*
X255417800Y-44295160I200000J0D01*
G01*
X257967800Y-44295160D01*
G75*
G02*
X258167800Y-44495160I0J-200000D01*
G01*
X258167800Y-46995160D01*
G75*
G02*
X257967800Y-47195160I-200000J0D01*
G01*
X255417800Y-47195160D01*
G75*
G02*
X255217800Y-46995160I0J200000D01*
G01*
G37*
G36*
G01*
X242290800Y-49535160D02*
X242290800Y-47035160D01*
G75*
G02*
X242490800Y-46835160I200000J0D01*
G01*
X245040800Y-46835160D01*
G75*
G02*
X245240800Y-47035160I0J-200000D01*
G01*
X245240800Y-49535160D01*
G75*
G02*
X245040800Y-49735160I-200000J0D01*
G01*
X242490800Y-49735160D01*
G75*
G02*
X242290800Y-49535160I0J200000D01*
G01*
G37*
D15*
X255930800Y-50825160D03*
X245770800Y-50825160D03*
D13*
X247040800Y-48285160D03*
D14*
X250850800Y-50825160D03*
D13*
X253390800Y-45745160D03*
G36*
G01*
X274267880Y-46995160D02*
X274267880Y-44495160D01*
G75*
G02*
X274467880Y-44295160I200000J0D01*
G01*
X277017880Y-44295160D01*
G75*
G02*
X277217880Y-44495160I0J-200000D01*
G01*
X277217880Y-46995160D01*
G75*
G02*
X277017880Y-47195160I-200000J0D01*
G01*
X274467880Y-47195160D01*
G75*
G02*
X274267880Y-46995160I0J200000D01*
G01*
G37*
G36*
G01*
X261340880Y-49535160D02*
X261340880Y-47035160D01*
G75*
G02*
X261540880Y-46835160I200000J0D01*
G01*
X264090880Y-46835160D01*
G75*
G02*
X264290880Y-47035160I0J-200000D01*
G01*
X264290880Y-49535160D01*
G75*
G02*
X264090880Y-49735160I-200000J0D01*
G01*
X261540880Y-49735160D01*
G75*
G02*
X261340880Y-49535160I0J200000D01*
G01*
G37*
D15*
X274980880Y-50825160D03*
X264820880Y-50825160D03*
D13*
X266090880Y-48285160D03*
D14*
X269900880Y-50825160D03*
D13*
X272440880Y-45745160D03*
X62890000Y-45745120D03*
D14*
X60350000Y-50825120D03*
D13*
X56540000Y-48285120D03*
D15*
X55270000Y-50825120D03*
X65430000Y-50825120D03*
G36*
G01*
X51790000Y-49535120D02*
X51790000Y-47035120D01*
G75*
G02*
X51990000Y-46835120I200000J0D01*
G01*
X54540000Y-46835120D01*
G75*
G02*
X54740000Y-47035120I0J-200000D01*
G01*
X54740000Y-49535120D01*
G75*
G02*
X54540000Y-49735120I-200000J0D01*
G01*
X51990000Y-49735120D01*
G75*
G02*
X51790000Y-49535120I0J200000D01*
G01*
G37*
G36*
G01*
X64717000Y-46995120D02*
X64717000Y-44495120D01*
G75*
G02*
X64917000Y-44295120I200000J0D01*
G01*
X67467000Y-44295120D01*
G75*
G02*
X67667000Y-44495120I0J-200000D01*
G01*
X67667000Y-46995120D01*
G75*
G02*
X67467000Y-47195120I-200000J0D01*
G01*
X64917000Y-47195120D01*
G75*
G02*
X64717000Y-46995120I0J200000D01*
G01*
G37*
D13*
X120040000Y-45745120D03*
D14*
X117500000Y-50825120D03*
D13*
X113690000Y-48285120D03*
D15*
X112420000Y-50825120D03*
X122580000Y-50825120D03*
G36*
G01*
X108940000Y-49535120D02*
X108940000Y-47035120D01*
G75*
G02*
X109140000Y-46835120I200000J0D01*
G01*
X111690000Y-46835120D01*
G75*
G02*
X111890000Y-47035120I0J-200000D01*
G01*
X111890000Y-49535120D01*
G75*
G02*
X111690000Y-49735120I-200000J0D01*
G01*
X109140000Y-49735120D01*
G75*
G02*
X108940000Y-49535120I0J200000D01*
G01*
G37*
G36*
G01*
X121867000Y-46995120D02*
X121867000Y-44495120D01*
G75*
G02*
X122067000Y-44295120I200000J0D01*
G01*
X124617000Y-44295120D01*
G75*
G02*
X124817000Y-44495120I0J-200000D01*
G01*
X124817000Y-46995120D01*
G75*
G02*
X124617000Y-47195120I-200000J0D01*
G01*
X122067000Y-47195120D01*
G75*
G02*
X121867000Y-46995120I0J200000D01*
G01*
G37*
D13*
X301016160Y-102895400D03*
D14*
X298476160Y-107975400D03*
D13*
X294666160Y-105435400D03*
D15*
X293396160Y-107975400D03*
X303556160Y-107975400D03*
G36*
G01*
X289916160Y-106685400D02*
X289916160Y-104185400D01*
G75*
G02*
X290116160Y-103985400I200000J0D01*
G01*
X292666160Y-103985400D01*
G75*
G02*
X292866160Y-104185400I0J-200000D01*
G01*
X292866160Y-106685400D01*
G75*
G02*
X292666160Y-106885400I-200000J0D01*
G01*
X290116160Y-106885400D01*
G75*
G02*
X289916160Y-106685400I0J200000D01*
G01*
G37*
G36*
G01*
X302843160Y-104145400D02*
X302843160Y-101645400D01*
G75*
G02*
X303043160Y-101445400I200000J0D01*
G01*
X305593160Y-101445400D01*
G75*
G02*
X305793160Y-101645400I0J-200000D01*
G01*
X305793160Y-104145400D01*
G75*
G02*
X305593160Y-104345400I-200000J0D01*
G01*
X303043160Y-104345400D01*
G75*
G02*
X302843160Y-104145400I0J200000D01*
G01*
G37*
D13*
X81940000Y-64795200D03*
D14*
X79400000Y-69875200D03*
D13*
X75590000Y-67335200D03*
D15*
X74320000Y-69875200D03*
X84480000Y-69875200D03*
G36*
G01*
X70840000Y-68585200D02*
X70840000Y-66085200D01*
G75*
G02*
X71040000Y-65885200I200000J0D01*
G01*
X73590000Y-65885200D01*
G75*
G02*
X73790000Y-66085200I0J-200000D01*
G01*
X73790000Y-68585200D01*
G75*
G02*
X73590000Y-68785200I-200000J0D01*
G01*
X71040000Y-68785200D01*
G75*
G02*
X70840000Y-68585200I0J200000D01*
G01*
G37*
G36*
G01*
X83767000Y-66045200D02*
X83767000Y-63545200D01*
G75*
G02*
X83967000Y-63345200I200000J0D01*
G01*
X86517000Y-63345200D01*
G75*
G02*
X86717000Y-63545200I0J-200000D01*
G01*
X86717000Y-66045200D01*
G75*
G02*
X86517000Y-66245200I-200000J0D01*
G01*
X83967000Y-66245200D01*
G75*
G02*
X83767000Y-66045200I0J200000D01*
G01*
G37*
D13*
X139090000Y-45745120D03*
D14*
X136550000Y-50825120D03*
D13*
X132740000Y-48285120D03*
D15*
X131470000Y-50825120D03*
X141630000Y-50825120D03*
G36*
G01*
X127990000Y-49535120D02*
X127990000Y-47035120D01*
G75*
G02*
X128190000Y-46835120I200000J0D01*
G01*
X130740000Y-46835120D01*
G75*
G02*
X130940000Y-47035120I0J-200000D01*
G01*
X130940000Y-49535120D01*
G75*
G02*
X130740000Y-49735120I-200000J0D01*
G01*
X128190000Y-49735120D01*
G75*
G02*
X127990000Y-49535120I0J200000D01*
G01*
G37*
G36*
G01*
X140917000Y-46995120D02*
X140917000Y-44495120D01*
G75*
G02*
X141117000Y-44295120I200000J0D01*
G01*
X143667000Y-44295120D01*
G75*
G02*
X143867000Y-44495120I0J-200000D01*
G01*
X143867000Y-46995120D01*
G75*
G02*
X143667000Y-47195120I-200000J0D01*
G01*
X141117000Y-47195120D01*
G75*
G02*
X140917000Y-46995120I0J200000D01*
G01*
G37*
G36*
G01*
X217117640Y-46995160D02*
X217117640Y-44495160D01*
G75*
G02*
X217317640Y-44295160I200000J0D01*
G01*
X219867640Y-44295160D01*
G75*
G02*
X220067640Y-44495160I0J-200000D01*
G01*
X220067640Y-46995160D01*
G75*
G02*
X219867640Y-47195160I-200000J0D01*
G01*
X217317640Y-47195160D01*
G75*
G02*
X217117640Y-46995160I0J200000D01*
G01*
G37*
G36*
G01*
X204190640Y-49535160D02*
X204190640Y-47035160D01*
G75*
G02*
X204390640Y-46835160I200000J0D01*
G01*
X206940640Y-46835160D01*
G75*
G02*
X207140640Y-47035160I0J-200000D01*
G01*
X207140640Y-49535160D01*
G75*
G02*
X206940640Y-49735160I-200000J0D01*
G01*
X204390640Y-49735160D01*
G75*
G02*
X204190640Y-49535160I0J200000D01*
G01*
G37*
X217830640Y-50825160D03*
X207670640Y-50825160D03*
D13*
X208940640Y-48285160D03*
D14*
X212750640Y-50825160D03*
D13*
X215290640Y-45745160D03*
X281966080Y-83845320D03*
D14*
X279426080Y-88925320D03*
D13*
X275616080Y-86385320D03*
D15*
X274346080Y-88925320D03*
X284506080Y-88925320D03*
G36*
G01*
X270866080Y-87635320D02*
X270866080Y-85135320D01*
G75*
G02*
X271066080Y-84935320I200000J0D01*
G01*
X273616080Y-84935320D01*
G75*
G02*
X273816080Y-85135320I0J-200000D01*
G01*
X273816080Y-87635320D01*
G75*
G02*
X273616080Y-87835320I-200000J0D01*
G01*
X271066080Y-87835320D01*
G75*
G02*
X270866080Y-87635320I0J200000D01*
G01*
G37*
G36*
G01*
X283793080Y-85095320D02*
X283793080Y-82595320D01*
G75*
G02*
X283993080Y-82395320I200000J0D01*
G01*
X286543080Y-82395320D01*
G75*
G02*
X286743080Y-82595320I0J-200000D01*
G01*
X286743080Y-85095320D01*
G75*
G02*
X286543080Y-85295320I-200000J0D01*
G01*
X283993080Y-85295320D01*
G75*
G02*
X283793080Y-85095320I0J200000D01*
G01*
G37*
G36*
G01*
X131392000Y-85095280D02*
X131392000Y-82595280D01*
G75*
G02*
X131592000Y-82395280I200000J0D01*
G01*
X134142000Y-82395280D01*
G75*
G02*
X134342000Y-82595280I0J-200000D01*
G01*
X134342000Y-85095280D01*
G75*
G02*
X134142000Y-85295280I-200000J0D01*
G01*
X131592000Y-85295280D01*
G75*
G02*
X131392000Y-85095280I0J200000D01*
G01*
G37*
G36*
G01*
X118465000Y-87635280D02*
X118465000Y-85135280D01*
G75*
G02*
X118665000Y-84935280I200000J0D01*
G01*
X121215000Y-84935280D01*
G75*
G02*
X121415000Y-85135280I0J-200000D01*
G01*
X121415000Y-87635280D01*
G75*
G02*
X121215000Y-87835280I-200000J0D01*
G01*
X118665000Y-87835280D01*
G75*
G02*
X118465000Y-87635280I0J200000D01*
G01*
G37*
X132105000Y-88925280D03*
X121945000Y-88925280D03*
D13*
X123215000Y-86385280D03*
D14*
X127025000Y-88925280D03*
D13*
X129565000Y-83845280D03*
X81940000Y-45745120D03*
D14*
X79400000Y-50825120D03*
D13*
X75590000Y-48285120D03*
D15*
X74320000Y-50825120D03*
X84480000Y-50825120D03*
G36*
G01*
X70840000Y-49535120D02*
X70840000Y-47035120D01*
G75*
G02*
X71040000Y-46835120I200000J0D01*
G01*
X73590000Y-46835120D01*
G75*
G02*
X73790000Y-47035120I0J-200000D01*
G01*
X73790000Y-49535120D01*
G75*
G02*
X73590000Y-49735120I-200000J0D01*
G01*
X71040000Y-49735120D01*
G75*
G02*
X70840000Y-49535120I0J200000D01*
G01*
G37*
G36*
G01*
X83767000Y-46995120D02*
X83767000Y-44495120D01*
G75*
G02*
X83967000Y-44295120I200000J0D01*
G01*
X86517000Y-44295120D01*
G75*
G02*
X86717000Y-44495120I0J-200000D01*
G01*
X86717000Y-46995120D01*
G75*
G02*
X86517000Y-47195120I-200000J0D01*
G01*
X83967000Y-47195120D01*
G75*
G02*
X83767000Y-46995120I0J200000D01*
G01*
G37*
G36*
G01*
X65508040Y-111805400D02*
X65508040Y-114305400D01*
G75*
G02*
X65308040Y-114505400I-200000J0D01*
G01*
X62758040Y-114505400D01*
G75*
G02*
X62558040Y-114305400I0J200000D01*
G01*
X62558040Y-111805400D01*
G75*
G02*
X62758040Y-111605400I200000J0D01*
G01*
X65308040Y-111605400D01*
G75*
G02*
X65508040Y-111805400I0J-200000D01*
G01*
G37*
G36*
G01*
X78435040Y-109265400D02*
X78435040Y-111765400D01*
G75*
G02*
X78235040Y-111965400I-200000J0D01*
G01*
X75685040Y-111965400D01*
G75*
G02*
X75485040Y-111765400I0J200000D01*
G01*
X75485040Y-109265400D01*
G75*
G02*
X75685040Y-109065400I200000J0D01*
G01*
X78235040Y-109065400D01*
G75*
G02*
X78435040Y-109265400I0J-200000D01*
G01*
G37*
X64795040Y-107975400D03*
X74955040Y-107975400D03*
D13*
X73685040Y-110515400D03*
D14*
X69875040Y-107975400D03*
D13*
X67335040Y-113055400D03*
G36*
G01*
X159967560Y-46995120D02*
X159967560Y-44495120D01*
G75*
G02*
X160167560Y-44295120I200000J0D01*
G01*
X162717560Y-44295120D01*
G75*
G02*
X162917560Y-44495120I0J-200000D01*
G01*
X162917560Y-46995120D01*
G75*
G02*
X162717560Y-47195120I-200000J0D01*
G01*
X160167560Y-47195120D01*
G75*
G02*
X159967560Y-46995120I0J200000D01*
G01*
G37*
G36*
G01*
X147040560Y-49535120D02*
X147040560Y-47035120D01*
G75*
G02*
X147240560Y-46835120I200000J0D01*
G01*
X149790560Y-46835120D01*
G75*
G02*
X149990560Y-47035120I0J-200000D01*
G01*
X149990560Y-49535120D01*
G75*
G02*
X149790560Y-49735120I-200000J0D01*
G01*
X147240560Y-49735120D01*
G75*
G02*
X147040560Y-49535120I0J200000D01*
G01*
G37*
D15*
X160680560Y-50825120D03*
X150520560Y-50825120D03*
D13*
X151790560Y-48285120D03*
D14*
X155600560Y-50825120D03*
D13*
X158140560Y-45745120D03*
G36*
G01*
X298080480Y-46995160D02*
X298080480Y-44495160D01*
G75*
G02*
X298280480Y-44295160I200000J0D01*
G01*
X300830480Y-44295160D01*
G75*
G02*
X301030480Y-44495160I0J-200000D01*
G01*
X301030480Y-46995160D01*
G75*
G02*
X300830480Y-47195160I-200000J0D01*
G01*
X298280480Y-47195160D01*
G75*
G02*
X298080480Y-46995160I0J200000D01*
G01*
G37*
G36*
G01*
X285153480Y-49535160D02*
X285153480Y-47035160D01*
G75*
G02*
X285353480Y-46835160I200000J0D01*
G01*
X287903480Y-46835160D01*
G75*
G02*
X288103480Y-47035160I0J-200000D01*
G01*
X288103480Y-49535160D01*
G75*
G02*
X287903480Y-49735160I-200000J0D01*
G01*
X285353480Y-49735160D01*
G75*
G02*
X285153480Y-49535160I0J200000D01*
G01*
G37*
D15*
X298793480Y-50825160D03*
X288633480Y-50825160D03*
D13*
X289903480Y-48285160D03*
D14*
X293713480Y-50825160D03*
D13*
X296253480Y-45745160D03*
X34315040Y-102895400D03*
D14*
X31775040Y-107975400D03*
D13*
X27965040Y-105435400D03*
D15*
X26695040Y-107975400D03*
X36855040Y-107975400D03*
G36*
G01*
X23215040Y-106685400D02*
X23215040Y-104185400D01*
G75*
G02*
X23415040Y-103985400I200000J0D01*
G01*
X25965040Y-103985400D01*
G75*
G02*
X26165040Y-104185400I0J-200000D01*
G01*
X26165040Y-106685400D01*
G75*
G02*
X25965040Y-106885400I-200000J0D01*
G01*
X23415040Y-106885400D01*
G75*
G02*
X23215040Y-106685400I0J200000D01*
G01*
G37*
G36*
G01*
X36142040Y-104145400D02*
X36142040Y-101645400D01*
G75*
G02*
X36342040Y-101445400I200000J0D01*
G01*
X38892040Y-101445400D01*
G75*
G02*
X39092040Y-101645400I0J-200000D01*
G01*
X39092040Y-104145400D01*
G75*
G02*
X38892040Y-104345400I-200000J0D01*
G01*
X36342040Y-104345400D01*
G75*
G02*
X36142040Y-104145400I0J200000D01*
G01*
G37*
D13*
X98609060Y-102895400D03*
D14*
X96069060Y-107975400D03*
D13*
X92259060Y-105435400D03*
D15*
X90989060Y-107975400D03*
X101149060Y-107975400D03*
G36*
G01*
X87509060Y-106685400D02*
X87509060Y-104185400D01*
G75*
G02*
X87709060Y-103985400I200000J0D01*
G01*
X90259060Y-103985400D01*
G75*
G02*
X90459060Y-104185400I0J-200000D01*
G01*
X90459060Y-106685400D01*
G75*
G02*
X90259060Y-106885400I-200000J0D01*
G01*
X87709060Y-106885400D01*
G75*
G02*
X87509060Y-106685400I0J200000D01*
G01*
G37*
G36*
G01*
X100436060Y-104145400D02*
X100436060Y-101645400D01*
G75*
G02*
X100636060Y-101445400I200000J0D01*
G01*
X103186060Y-101445400D01*
G75*
G02*
X103386060Y-101645400I0J-200000D01*
G01*
X103386060Y-104145400D01*
G75*
G02*
X103186060Y-104345400I-200000J0D01*
G01*
X100636060Y-104345400D01*
G75*
G02*
X100436060Y-104145400I0J200000D01*
G01*
G37*
D13*
X296253480Y-64795240D03*
D14*
X293713480Y-69875240D03*
D13*
X289903480Y-67335240D03*
D15*
X288633480Y-69875240D03*
X298793480Y-69875240D03*
G36*
G01*
X285153480Y-68585240D02*
X285153480Y-66085240D01*
G75*
G02*
X285353480Y-65885240I200000J0D01*
G01*
X287903480Y-65885240D01*
G75*
G02*
X288103480Y-66085240I0J-200000D01*
G01*
X288103480Y-68585240D01*
G75*
G02*
X287903480Y-68785240I-200000J0D01*
G01*
X285353480Y-68785240D01*
G75*
G02*
X285153480Y-68585240I0J200000D01*
G01*
G37*
G36*
G01*
X298080480Y-66045240D02*
X298080480Y-63545240D01*
G75*
G02*
X298280480Y-63345240I200000J0D01*
G01*
X300830480Y-63345240D01*
G75*
G02*
X301030480Y-63545240I0J-200000D01*
G01*
X301030480Y-66045240D01*
G75*
G02*
X300830480Y-66245240I-200000J0D01*
G01*
X298280480Y-66245240D01*
G75*
G02*
X298080480Y-66045240I0J200000D01*
G01*
G37*
D13*
X74796290Y-102895400D03*
D14*
X72256290Y-107975400D03*
D13*
X68446290Y-105435400D03*
D15*
X67176290Y-107975400D03*
X77336290Y-107975400D03*
G36*
G01*
X63696290Y-106685400D02*
X63696290Y-104185400D01*
G75*
G02*
X63896290Y-103985400I200000J0D01*
G01*
X66446290Y-103985400D01*
G75*
G02*
X66646290Y-104185400I0J-200000D01*
G01*
X66646290Y-106685400D01*
G75*
G02*
X66446290Y-106885400I-200000J0D01*
G01*
X63896290Y-106885400D01*
G75*
G02*
X63696290Y-106685400I0J200000D01*
G01*
G37*
G36*
G01*
X76623290Y-104145400D02*
X76623290Y-101645400D01*
G75*
G02*
X76823290Y-101445400I200000J0D01*
G01*
X79373290Y-101445400D01*
G75*
G02*
X79573290Y-101645400I0J-200000D01*
G01*
X79573290Y-104145400D01*
G75*
G02*
X79373290Y-104345400I-200000J0D01*
G01*
X76823290Y-104345400D01*
G75*
G02*
X76623290Y-104145400I0J200000D01*
G01*
G37*
G36*
G01*
X200448290Y-104145400D02*
X200448290Y-101645400D01*
G75*
G02*
X200648290Y-101445400I200000J0D01*
G01*
X203198290Y-101445400D01*
G75*
G02*
X203398290Y-101645400I0J-200000D01*
G01*
X203398290Y-104145400D01*
G75*
G02*
X203198290Y-104345400I-200000J0D01*
G01*
X200648290Y-104345400D01*
G75*
G02*
X200448290Y-104145400I0J200000D01*
G01*
G37*
G36*
G01*
X187521290Y-106685400D02*
X187521290Y-104185400D01*
G75*
G02*
X187721290Y-103985400I200000J0D01*
G01*
X190271290Y-103985400D01*
G75*
G02*
X190471290Y-104185400I0J-200000D01*
G01*
X190471290Y-106685400D01*
G75*
G02*
X190271290Y-106885400I-200000J0D01*
G01*
X187721290Y-106885400D01*
G75*
G02*
X187521290Y-106685400I0J200000D01*
G01*
G37*
X201161290Y-107975400D03*
X191001290Y-107975400D03*
D13*
X192271290Y-105435400D03*
D14*
X196081290Y-107975400D03*
D13*
X198621290Y-102895400D03*
X46221340Y-83845320D03*
D14*
X43681340Y-88925320D03*
D13*
X39871340Y-86385320D03*
D15*
X38601340Y-88925320D03*
X48761340Y-88925320D03*
G36*
G01*
X35121340Y-87635320D02*
X35121340Y-85135320D01*
G75*
G02*
X35321340Y-84935320I200000J0D01*
G01*
X37871340Y-84935320D01*
G75*
G02*
X38071340Y-85135320I0J-200000D01*
G01*
X38071340Y-87635320D01*
G75*
G02*
X37871340Y-87835320I-200000J0D01*
G01*
X35321340Y-87835320D01*
G75*
G02*
X35121340Y-87635320I0J200000D01*
G01*
G37*
G36*
G01*
X48048340Y-85095320D02*
X48048340Y-82595320D01*
G75*
G02*
X48248340Y-82395320I200000J0D01*
G01*
X50798340Y-82395320D01*
G75*
G02*
X50998340Y-82595320I0J-200000D01*
G01*
X50998340Y-85095320D01*
G75*
G02*
X50798340Y-85295320I-200000J0D01*
G01*
X48248340Y-85295320D01*
G75*
G02*
X48048340Y-85095320I0J200000D01*
G01*
G37*
D14*
X53238080Y-97180320D03*
X29362080Y-97180320D03*
D22*
X53238080Y-81940320D03*
X29362080Y-81940320D03*
G36*
G01*
X36933080Y-92755320D02*
X36933080Y-95255320D01*
G75*
G02*
X36733080Y-95455320I-200000J0D01*
G01*
X34183080Y-95455320D01*
G75*
G02*
X33983080Y-95255320I0J200000D01*
G01*
X33983080Y-92755320D01*
G75*
G02*
X34183080Y-92555320I200000J0D01*
G01*
X36733080Y-92555320D01*
G75*
G02*
X36933080Y-92755320I0J-200000D01*
G01*
G37*
G36*
G01*
X49860080Y-90215320D02*
X49860080Y-92715320D01*
G75*
G02*
X49660080Y-92915320I-200000J0D01*
G01*
X47110080Y-92915320D01*
G75*
G02*
X46910080Y-92715320I0J200000D01*
G01*
X46910080Y-90215320D01*
G75*
G02*
X47110080Y-90015320I200000J0D01*
G01*
X49660080Y-90015320D01*
G75*
G02*
X49860080Y-90215320I0J-200000D01*
G01*
G37*
D15*
X36220080Y-88925320D03*
X46380080Y-88925320D03*
D13*
X45110080Y-91465320D03*
D14*
X41300080Y-88925320D03*
D13*
X38760080Y-94005320D03*
X129565440Y-102895400D03*
D14*
X127025440Y-107975400D03*
D13*
X123215440Y-105435400D03*
D15*
X121945440Y-107975400D03*
X132105440Y-107975400D03*
G36*
G01*
X118465440Y-106685400D02*
X118465440Y-104185400D01*
G75*
G02*
X118665440Y-103985400I200000J0D01*
G01*
X121215440Y-103985400D01*
G75*
G02*
X121415440Y-104185400I0J-200000D01*
G01*
X121415440Y-106685400D01*
G75*
G02*
X121215440Y-106885400I-200000J0D01*
G01*
X118665440Y-106885400D01*
G75*
G02*
X118465440Y-106685400I0J200000D01*
G01*
G37*
G36*
G01*
X131392440Y-104145400D02*
X131392440Y-101645400D01*
G75*
G02*
X131592440Y-101445400I200000J0D01*
G01*
X134142440Y-101445400D01*
G75*
G02*
X134342440Y-101645400I0J-200000D01*
G01*
X134342440Y-104145400D01*
G75*
G02*
X134142440Y-104345400I-200000J0D01*
G01*
X131592440Y-104345400D01*
G75*
G02*
X131392440Y-104145400I0J200000D01*
G01*
G37*
D22*
X138963440Y-114960400D03*
X115087440Y-114960400D03*
D14*
X138963440Y-99720400D03*
X115087440Y-99720400D03*
G36*
G01*
X238548290Y-104145400D02*
X238548290Y-101645400D01*
G75*
G02*
X238748290Y-101445400I200000J0D01*
G01*
X241298290Y-101445400D01*
G75*
G02*
X241498290Y-101645400I0J-200000D01*
G01*
X241498290Y-104145400D01*
G75*
G02*
X241298290Y-104345400I-200000J0D01*
G01*
X238748290Y-104345400D01*
G75*
G02*
X238548290Y-104145400I0J200000D01*
G01*
G37*
G36*
G01*
X225621290Y-106685400D02*
X225621290Y-104185400D01*
G75*
G02*
X225821290Y-103985400I200000J0D01*
G01*
X228371290Y-103985400D01*
G75*
G02*
X228571290Y-104185400I0J-200000D01*
G01*
X228571290Y-106685400D01*
G75*
G02*
X228371290Y-106885400I-200000J0D01*
G01*
X225821290Y-106885400D01*
G75*
G02*
X225621290Y-106685400I0J200000D01*
G01*
G37*
D15*
X239261290Y-107975400D03*
X229101290Y-107975400D03*
D13*
X230371290Y-105435400D03*
D14*
X234181290Y-107975400D03*
D13*
X236721290Y-102895400D03*
X205765040Y-102895400D03*
D14*
X203225040Y-107975400D03*
D13*
X199415040Y-105435400D03*
D15*
X198145040Y-107975400D03*
X208305040Y-107975400D03*
G36*
G01*
X194665040Y-106685400D02*
X194665040Y-104185400D01*
G75*
G02*
X194865040Y-103985400I200000J0D01*
G01*
X197415040Y-103985400D01*
G75*
G02*
X197615040Y-104185400I0J-200000D01*
G01*
X197615040Y-106685400D01*
G75*
G02*
X197415040Y-106885400I-200000J0D01*
G01*
X194865040Y-106885400D01*
G75*
G02*
X194665040Y-106685400I0J200000D01*
G01*
G37*
G36*
G01*
X207592040Y-104145400D02*
X207592040Y-101645400D01*
G75*
G02*
X207792040Y-101445400I200000J0D01*
G01*
X210342040Y-101445400D01*
G75*
G02*
X210542040Y-101645400I0J-200000D01*
G01*
X210542040Y-104145400D01*
G75*
G02*
X210342040Y-104345400I-200000J0D01*
G01*
X207792040Y-104345400D01*
G75*
G02*
X207592040Y-104145400I0J200000D01*
G01*
G37*
D22*
X215163040Y-114960400D03*
X191287040Y-114960400D03*
D14*
X215163040Y-99720400D03*
X191287040Y-99720400D03*
G36*
G01*
X40904500Y-46995120D02*
X40904500Y-44495120D01*
G75*
G02*
X41104500Y-44295120I200000J0D01*
G01*
X43654500Y-44295120D01*
G75*
G02*
X43854500Y-44495120I0J-200000D01*
G01*
X43854500Y-46995120D01*
G75*
G02*
X43654500Y-47195120I-200000J0D01*
G01*
X41104500Y-47195120D01*
G75*
G02*
X40904500Y-46995120I0J200000D01*
G01*
G37*
G36*
G01*
X27977500Y-49535120D02*
X27977500Y-47035120D01*
G75*
G02*
X28177500Y-46835120I200000J0D01*
G01*
X30727500Y-46835120D01*
G75*
G02*
X30927500Y-47035120I0J-200000D01*
G01*
X30927500Y-49535120D01*
G75*
G02*
X30727500Y-49735120I-200000J0D01*
G01*
X28177500Y-49735120D01*
G75*
G02*
X27977500Y-49535120I0J200000D01*
G01*
G37*
D15*
X41617500Y-50825120D03*
X31457500Y-50825120D03*
D13*
X32727500Y-48285120D03*
D14*
X36537500Y-50825120D03*
D13*
X39077500Y-45745120D03*
X122104180Y-113055400D03*
D14*
X124644180Y-107975400D03*
D13*
X128454180Y-110515400D03*
D15*
X129724180Y-107975400D03*
X119564180Y-107975400D03*
G36*
G01*
X133204180Y-109265400D02*
X133204180Y-111765400D01*
G75*
G02*
X133004180Y-111965400I-200000J0D01*
G01*
X130454180Y-111965400D01*
G75*
G02*
X130254180Y-111765400I0J200000D01*
G01*
X130254180Y-109265400D01*
G75*
G02*
X130454180Y-109065400I200000J0D01*
G01*
X133004180Y-109065400D01*
G75*
G02*
X133204180Y-109265400I0J-200000D01*
G01*
G37*
G36*
G01*
X120277180Y-111805400D02*
X120277180Y-114305400D01*
G75*
G02*
X120077180Y-114505400I-200000J0D01*
G01*
X117527180Y-114505400D01*
G75*
G02*
X117327180Y-114305400I0J200000D01*
G01*
X117327180Y-111805400D01*
G75*
G02*
X117527180Y-111605400I200000J0D01*
G01*
X120077180Y-111605400D01*
G75*
G02*
X120277180Y-111805400I0J-200000D01*
G01*
G37*
D22*
X112706180Y-114960400D03*
X136582180Y-114960400D03*
D14*
X112706180Y-99720400D03*
X136582180Y-99720400D03*
G36*
G01*
X228800000Y-76000040D02*
X230500000Y-76000040D01*
G75*
G02*
X230700000Y-76200040I0J-200000D01*
G01*
X230700000Y-77900040D01*
G75*
G02*
X230500000Y-78100040I-200000J0D01*
G01*
X228800000Y-78100040D01*
G75*
G02*
X228600000Y-77900040I0J200000D01*
G01*
X228600000Y-76200040D01*
G75*
G02*
X228800000Y-76000040I200000J0D01*
G01*
G37*
D23*
X232190000Y-77050040D03*
X234730000Y-77050040D03*
D13*
X274345040Y-67335400D03*
D14*
X279425040Y-69875400D03*
D13*
X276885040Y-73685400D03*
D15*
X279425040Y-74955400D03*
X279425040Y-64795400D03*
G36*
G01*
X278135040Y-78435400D02*
X275635040Y-78435400D01*
G75*
G02*
X275435040Y-78235400I0J200000D01*
G01*
X275435040Y-75685400D01*
G75*
G02*
X275635040Y-75485400I200000J0D01*
G01*
X278135040Y-75485400D01*
G75*
G02*
X278335040Y-75685400I0J-200000D01*
G01*
X278335040Y-78235400D01*
G75*
G02*
X278135040Y-78435400I-200000J0D01*
G01*
G37*
G36*
G01*
X275595040Y-65508400D02*
X273095040Y-65508400D01*
G75*
G02*
X272895040Y-65308400I0J200000D01*
G01*
X272895040Y-62758400D01*
G75*
G02*
X273095040Y-62558400I200000J0D01*
G01*
X275595040Y-62558400D01*
G75*
G02*
X275795040Y-62758400I0J-200000D01*
G01*
X275795040Y-65308400D01*
G75*
G02*
X275595040Y-65508400I-200000J0D01*
G01*
G37*
G36*
G01*
X274267040Y-66045400D02*
X274267040Y-63545400D01*
G75*
G02*
X274467040Y-63345400I200000J0D01*
G01*
X277017040Y-63345400D01*
G75*
G02*
X277217040Y-63545400I0J-200000D01*
G01*
X277217040Y-66045400D01*
G75*
G02*
X277017040Y-66245400I-200000J0D01*
G01*
X274467040Y-66245400D01*
G75*
G02*
X274267040Y-66045400I0J200000D01*
G01*
G37*
G36*
G01*
X261340040Y-68585400D02*
X261340040Y-66085400D01*
G75*
G02*
X261540040Y-65885400I200000J0D01*
G01*
X264090040Y-65885400D01*
G75*
G02*
X264290040Y-66085400I0J-200000D01*
G01*
X264290040Y-68585400D01*
G75*
G02*
X264090040Y-68785400I-200000J0D01*
G01*
X261540040Y-68785400D01*
G75*
G02*
X261340040Y-68585400I0J200000D01*
G01*
G37*
X274980040Y-69875400D03*
X264820040Y-69875400D03*
D13*
X266090040Y-67335400D03*
D14*
X269900040Y-69875400D03*
D13*
X272440040Y-64795400D03*
G36*
G01*
X275595040Y-46458400D02*
X273095040Y-46458400D01*
G75*
G02*
X272895040Y-46258400I0J200000D01*
G01*
X272895040Y-43708400D01*
G75*
G02*
X273095040Y-43508400I200000J0D01*
G01*
X275595040Y-43508400D01*
G75*
G02*
X275795040Y-43708400I0J-200000D01*
G01*
X275795040Y-46258400D01*
G75*
G02*
X275595040Y-46458400I-200000J0D01*
G01*
G37*
G36*
G01*
X278135040Y-59385400D02*
X275635040Y-59385400D01*
G75*
G02*
X275435040Y-59185400I0J200000D01*
G01*
X275435040Y-56635400D01*
G75*
G02*
X275635040Y-56435400I200000J0D01*
G01*
X278135040Y-56435400D01*
G75*
G02*
X278335040Y-56635400I0J-200000D01*
G01*
X278335040Y-59185400D01*
G75*
G02*
X278135040Y-59385400I-200000J0D01*
G01*
G37*
D15*
X279425040Y-45745400D03*
X279425040Y-55905400D03*
D13*
X276885040Y-54635400D03*
D14*
X279425040Y-50825400D03*
D13*
X274345040Y-48285400D03*
G36*
G01*
X294108040Y-54655400D02*
X294108040Y-57155400D01*
G75*
G02*
X293908040Y-57355400I-200000J0D01*
G01*
X291358040Y-57355400D01*
G75*
G02*
X291158040Y-57155400I0J200000D01*
G01*
X291158040Y-54655400D01*
G75*
G02*
X291358040Y-54455400I200000J0D01*
G01*
X293908040Y-54455400D01*
G75*
G02*
X294108040Y-54655400I0J-200000D01*
G01*
G37*
G36*
G01*
X307035040Y-52115400D02*
X307035040Y-54615400D01*
G75*
G02*
X306835040Y-54815400I-200000J0D01*
G01*
X304285040Y-54815400D01*
G75*
G02*
X304085040Y-54615400I0J200000D01*
G01*
X304085040Y-52115400D01*
G75*
G02*
X304285040Y-51915400I200000J0D01*
G01*
X306835040Y-51915400D01*
G75*
G02*
X307035040Y-52115400I0J-200000D01*
G01*
G37*
D15*
X293395040Y-50825400D03*
X303555040Y-50825400D03*
D13*
X302285040Y-53365400D03*
D14*
X298475040Y-50825400D03*
D13*
X295935040Y-55905400D03*
G36*
G01*
X188542040Y-85095400D02*
X188542040Y-82595400D01*
G75*
G02*
X188742040Y-82395400I200000J0D01*
G01*
X191292040Y-82395400D01*
G75*
G02*
X191492040Y-82595400I0J-200000D01*
G01*
X191492040Y-85095400D01*
G75*
G02*
X191292040Y-85295400I-200000J0D01*
G01*
X188742040Y-85295400D01*
G75*
G02*
X188542040Y-85095400I0J200000D01*
G01*
G37*
G36*
G01*
X175615040Y-87635400D02*
X175615040Y-85135400D01*
G75*
G02*
X175815040Y-84935400I200000J0D01*
G01*
X178365040Y-84935400D01*
G75*
G02*
X178565040Y-85135400I0J-200000D01*
G01*
X178565040Y-87635400D01*
G75*
G02*
X178365040Y-87835400I-200000J0D01*
G01*
X175815040Y-87835400D01*
G75*
G02*
X175615040Y-87635400I0J200000D01*
G01*
G37*
D15*
X189255040Y-88925400D03*
X179095040Y-88925400D03*
D13*
X180365040Y-86385400D03*
D14*
X184175040Y-88925400D03*
D13*
X186715040Y-83845400D03*
X288791290Y-55905400D03*
D14*
X291331290Y-50825400D03*
D13*
X295141290Y-53365400D03*
D15*
X296411290Y-50825400D03*
X286251290Y-50825400D03*
G36*
G01*
X299891290Y-52115400D02*
X299891290Y-54615400D01*
G75*
G02*
X299691290Y-54815400I-200000J0D01*
G01*
X297141290Y-54815400D01*
G75*
G02*
X296941290Y-54615400I0J200000D01*
G01*
X296941290Y-52115400D01*
G75*
G02*
X297141290Y-51915400I200000J0D01*
G01*
X299691290Y-51915400D01*
G75*
G02*
X299891290Y-52115400I0J-200000D01*
G01*
G37*
G36*
G01*
X286964290Y-54655400D02*
X286964290Y-57155400D01*
G75*
G02*
X286764290Y-57355400I-200000J0D01*
G01*
X284214290Y-57355400D01*
G75*
G02*
X284014290Y-57155400I0J200000D01*
G01*
X284014290Y-54655400D01*
G75*
G02*
X284214290Y-54455400I200000J0D01*
G01*
X286764290Y-54455400D01*
G75*
G02*
X286964290Y-54655400I0J-200000D01*
G01*
G37*
G36*
G01*
X251245540Y-54655400D02*
X251245540Y-57155400D01*
G75*
G02*
X251045540Y-57355400I-200000J0D01*
G01*
X248495540Y-57355400D01*
G75*
G02*
X248295540Y-57155400I0J200000D01*
G01*
X248295540Y-54655400D01*
G75*
G02*
X248495540Y-54455400I200000J0D01*
G01*
X251045540Y-54455400D01*
G75*
G02*
X251245540Y-54655400I0J-200000D01*
G01*
G37*
G36*
G01*
X264172540Y-52115400D02*
X264172540Y-54615400D01*
G75*
G02*
X263972540Y-54815400I-200000J0D01*
G01*
X261422540Y-54815400D01*
G75*
G02*
X261222540Y-54615400I0J200000D01*
G01*
X261222540Y-52115400D01*
G75*
G02*
X261422540Y-51915400I200000J0D01*
G01*
X263972540Y-51915400D01*
G75*
G02*
X264172540Y-52115400I0J-200000D01*
G01*
G37*
X250532540Y-50825400D03*
X260692540Y-50825400D03*
D13*
X259422540Y-53365400D03*
D14*
X255612540Y-50825400D03*
D13*
X253072540Y-55905400D03*
G36*
G01*
X169492040Y-85095400D02*
X169492040Y-82595400D01*
G75*
G02*
X169692040Y-82395400I200000J0D01*
G01*
X172242040Y-82395400D01*
G75*
G02*
X172442040Y-82595400I0J-200000D01*
G01*
X172442040Y-85095400D01*
G75*
G02*
X172242040Y-85295400I-200000J0D01*
G01*
X169692040Y-85295400D01*
G75*
G02*
X169492040Y-85095400I0J200000D01*
G01*
G37*
G36*
G01*
X156565040Y-87635400D02*
X156565040Y-85135400D01*
G75*
G02*
X156765040Y-84935400I200000J0D01*
G01*
X159315040Y-84935400D01*
G75*
G02*
X159515040Y-85135400I0J-200000D01*
G01*
X159515040Y-87635400D01*
G75*
G02*
X159315040Y-87835400I-200000J0D01*
G01*
X156765040Y-87835400D01*
G75*
G02*
X156565040Y-87635400I0J200000D01*
G01*
G37*
D15*
X170205040Y-88925400D03*
X160045040Y-88925400D03*
D13*
X161315040Y-86385400D03*
D14*
X165125040Y-88925400D03*
D13*
X167665040Y-83845400D03*
G36*
G01*
X146470540Y-111805400D02*
X146470540Y-114305400D01*
G75*
G02*
X146270540Y-114505400I-200000J0D01*
G01*
X143720540Y-114505400D01*
G75*
G02*
X143520540Y-114305400I0J200000D01*
G01*
X143520540Y-111805400D01*
G75*
G02*
X143720540Y-111605400I200000J0D01*
G01*
X146270540Y-111605400D01*
G75*
G02*
X146470540Y-111805400I0J-200000D01*
G01*
G37*
G36*
G01*
X159397540Y-109265400D02*
X159397540Y-111765400D01*
G75*
G02*
X159197540Y-111965400I-200000J0D01*
G01*
X156647540Y-111965400D01*
G75*
G02*
X156447540Y-111765400I0J200000D01*
G01*
X156447540Y-109265400D01*
G75*
G02*
X156647540Y-109065400I200000J0D01*
G01*
X159197540Y-109065400D01*
G75*
G02*
X159397540Y-109265400I0J-200000D01*
G01*
G37*
D15*
X145757540Y-107975400D03*
X155917540Y-107975400D03*
D13*
X154647540Y-110515400D03*
D14*
X150837540Y-107975400D03*
D13*
X148297540Y-113055400D03*
X158140040Y-102895400D03*
D14*
X155600040Y-107975400D03*
D13*
X151790040Y-105435400D03*
D15*
X150520040Y-107975400D03*
X160680040Y-107975400D03*
G36*
G01*
X147040040Y-106685400D02*
X147040040Y-104185400D01*
G75*
G02*
X147240040Y-103985400I200000J0D01*
G01*
X149790040Y-103985400D01*
G75*
G02*
X149990040Y-104185400I0J-200000D01*
G01*
X149990040Y-106685400D01*
G75*
G02*
X149790040Y-106885400I-200000J0D01*
G01*
X147240040Y-106885400D01*
G75*
G02*
X147040040Y-106685400I0J200000D01*
G01*
G37*
G36*
G01*
X159967040Y-104145400D02*
X159967040Y-101645400D01*
G75*
G02*
X160167040Y-101445400I200000J0D01*
G01*
X162717040Y-101445400D01*
G75*
G02*
X162917040Y-101645400I0J-200000D01*
G01*
X162917040Y-104145400D01*
G75*
G02*
X162717040Y-104345400I-200000J0D01*
G01*
X160167040Y-104345400D01*
G75*
G02*
X159967040Y-104145400I0J200000D01*
G01*
G37*
G36*
G01*
X175045540Y-111805400D02*
X175045540Y-114305400D01*
G75*
G02*
X174845540Y-114505400I-200000J0D01*
G01*
X172295540Y-114505400D01*
G75*
G02*
X172095540Y-114305400I0J200000D01*
G01*
X172095540Y-111805400D01*
G75*
G02*
X172295540Y-111605400I200000J0D01*
G01*
X174845540Y-111605400D01*
G75*
G02*
X175045540Y-111805400I0J-200000D01*
G01*
G37*
G36*
G01*
X187972540Y-109265400D02*
X187972540Y-111765400D01*
G75*
G02*
X187772540Y-111965400I-200000J0D01*
G01*
X185222540Y-111965400D01*
G75*
G02*
X185022540Y-111765400I0J200000D01*
G01*
X185022540Y-109265400D01*
G75*
G02*
X185222540Y-109065400I200000J0D01*
G01*
X187772540Y-109065400D01*
G75*
G02*
X187972540Y-109265400I0J-200000D01*
G01*
G37*
X174332540Y-107975400D03*
X184492540Y-107975400D03*
D13*
X183222540Y-110515400D03*
D14*
X179412540Y-107975400D03*
D13*
X176872540Y-113055400D03*
X177190040Y-102895400D03*
D14*
X174650040Y-107975400D03*
D13*
X170840040Y-105435400D03*
D15*
X169570040Y-107975400D03*
X179730040Y-107975400D03*
G36*
G01*
X166090040Y-106685400D02*
X166090040Y-104185400D01*
G75*
G02*
X166290040Y-103985400I200000J0D01*
G01*
X168840040Y-103985400D01*
G75*
G02*
X169040040Y-104185400I0J-200000D01*
G01*
X169040040Y-106685400D01*
G75*
G02*
X168840040Y-106885400I-200000J0D01*
G01*
X166290040Y-106885400D01*
G75*
G02*
X166090040Y-106685400I0J200000D01*
G01*
G37*
G36*
G01*
X179017040Y-104145400D02*
X179017040Y-101645400D01*
G75*
G02*
X179217040Y-101445400I200000J0D01*
G01*
X181767040Y-101445400D01*
G75*
G02*
X181967040Y-101645400I0J-200000D01*
G01*
X181967040Y-104145400D01*
G75*
G02*
X181767040Y-104345400I-200000J0D01*
G01*
X179217040Y-104345400D01*
G75*
G02*
X179017040Y-104145400I0J200000D01*
G01*
G37*
D13*
X41458820Y-64795240D03*
D14*
X38918820Y-69875240D03*
D13*
X35108820Y-67335240D03*
D15*
X33838820Y-69875240D03*
X43998820Y-69875240D03*
G36*
G01*
X30358820Y-68585240D02*
X30358820Y-66085240D01*
G75*
G02*
X30558820Y-65885240I200000J0D01*
G01*
X33108820Y-65885240D01*
G75*
G02*
X33308820Y-66085240I0J-200000D01*
G01*
X33308820Y-68585240D01*
G75*
G02*
X33108820Y-68785240I-200000J0D01*
G01*
X30558820Y-68785240D01*
G75*
G02*
X30358820Y-68585240I0J200000D01*
G01*
G37*
G36*
G01*
X43285820Y-66045240D02*
X43285820Y-63545240D01*
G75*
G02*
X43485820Y-63345240I200000J0D01*
G01*
X46035820Y-63345240D01*
G75*
G02*
X46235820Y-63545240I0J-200000D01*
G01*
X46235820Y-66045240D01*
G75*
G02*
X46035820Y-66245240I-200000J0D01*
G01*
X43485820Y-66245240D01*
G75*
G02*
X43285820Y-66045240I0J200000D01*
G01*
G37*
D13*
X33997540Y-74955400D03*
D14*
X36537540Y-69875400D03*
D13*
X40347540Y-72415400D03*
D15*
X41617540Y-69875400D03*
X31457540Y-69875400D03*
G36*
G01*
X45097540Y-71165400D02*
X45097540Y-73665400D01*
G75*
G02*
X44897540Y-73865400I-200000J0D01*
G01*
X42347540Y-73865400D01*
G75*
G02*
X42147540Y-73665400I0J200000D01*
G01*
X42147540Y-71165400D01*
G75*
G02*
X42347540Y-70965400I200000J0D01*
G01*
X44897540Y-70965400D01*
G75*
G02*
X45097540Y-71165400I0J-200000D01*
G01*
G37*
G36*
G01*
X32170540Y-73705400D02*
X32170540Y-76205400D01*
G75*
G02*
X31970540Y-76405400I-200000J0D01*
G01*
X29420540Y-76405400D01*
G75*
G02*
X29220540Y-76205400I0J200000D01*
G01*
X29220540Y-73705400D01*
G75*
G02*
X29420540Y-73505400I200000J0D01*
G01*
X31970540Y-73505400D01*
G75*
G02*
X32170540Y-73705400I0J-200000D01*
G01*
G37*
G36*
G01*
X286964290Y-73705400D02*
X286964290Y-76205400D01*
G75*
G02*
X286764290Y-76405400I-200000J0D01*
G01*
X284214290Y-76405400D01*
G75*
G02*
X284014290Y-76205400I0J200000D01*
G01*
X284014290Y-73705400D01*
G75*
G02*
X284214290Y-73505400I200000J0D01*
G01*
X286764290Y-73505400D01*
G75*
G02*
X286964290Y-73705400I0J-200000D01*
G01*
G37*
G36*
G01*
X299891290Y-71165400D02*
X299891290Y-73665400D01*
G75*
G02*
X299691290Y-73865400I-200000J0D01*
G01*
X297141290Y-73865400D01*
G75*
G02*
X296941290Y-73665400I0J200000D01*
G01*
X296941290Y-71165400D01*
G75*
G02*
X297141290Y-70965400I200000J0D01*
G01*
X299691290Y-70965400D01*
G75*
G02*
X299891290Y-71165400I0J-200000D01*
G01*
G37*
X286251290Y-69875400D03*
X296411290Y-69875400D03*
D13*
X295141290Y-72415400D03*
D14*
X291331290Y-69875400D03*
D13*
X288791290Y-74955400D03*
X253072540Y-74955400D03*
D14*
X255612540Y-69875400D03*
D13*
X259422540Y-72415400D03*
D15*
X260692540Y-69875400D03*
X250532540Y-69875400D03*
G36*
G01*
X264172540Y-71165400D02*
X264172540Y-73665400D01*
G75*
G02*
X263972540Y-73865400I-200000J0D01*
G01*
X261422540Y-73865400D01*
G75*
G02*
X261222540Y-73665400I0J200000D01*
G01*
X261222540Y-71165400D01*
G75*
G02*
X261422540Y-70965400I200000J0D01*
G01*
X263972540Y-70965400D01*
G75*
G02*
X264172540Y-71165400I0J-200000D01*
G01*
G37*
G36*
G01*
X251245540Y-73705400D02*
X251245540Y-76205400D01*
G75*
G02*
X251045540Y-76405400I-200000J0D01*
G01*
X248495540Y-76405400D01*
G75*
G02*
X248295540Y-76205400I0J200000D01*
G01*
X248295540Y-73705400D01*
G75*
G02*
X248495540Y-73505400I200000J0D01*
G01*
X251045540Y-73505400D01*
G75*
G02*
X251245540Y-73705400I0J-200000D01*
G01*
G37*
G36*
G01*
X55192040Y-104145400D02*
X55192040Y-101645400D01*
G75*
G02*
X55392040Y-101445400I200000J0D01*
G01*
X57942040Y-101445400D01*
G75*
G02*
X58142040Y-101645400I0J-200000D01*
G01*
X58142040Y-104145400D01*
G75*
G02*
X57942040Y-104345400I-200000J0D01*
G01*
X55392040Y-104345400D01*
G75*
G02*
X55192040Y-104145400I0J200000D01*
G01*
G37*
G36*
G01*
X42265040Y-106685400D02*
X42265040Y-104185400D01*
G75*
G02*
X42465040Y-103985400I200000J0D01*
G01*
X45015040Y-103985400D01*
G75*
G02*
X45215040Y-104185400I0J-200000D01*
G01*
X45215040Y-106685400D01*
G75*
G02*
X45015040Y-106885400I-200000J0D01*
G01*
X42465040Y-106885400D01*
G75*
G02*
X42265040Y-106685400I0J200000D01*
G01*
G37*
X55905040Y-107975400D03*
X45745040Y-107975400D03*
D13*
X47015040Y-105435400D03*
D14*
X50825040Y-107975400D03*
D13*
X53365040Y-102895400D03*
G36*
G01*
X89320540Y-111805400D02*
X89320540Y-114305400D01*
G75*
G02*
X89120540Y-114505400I-200000J0D01*
G01*
X86570540Y-114505400D01*
G75*
G02*
X86370540Y-114305400I0J200000D01*
G01*
X86370540Y-111805400D01*
G75*
G02*
X86570540Y-111605400I200000J0D01*
G01*
X89120540Y-111605400D01*
G75*
G02*
X89320540Y-111805400I0J-200000D01*
G01*
G37*
G36*
G01*
X102247540Y-109265400D02*
X102247540Y-111765400D01*
G75*
G02*
X102047540Y-111965400I-200000J0D01*
G01*
X99497540Y-111965400D01*
G75*
G02*
X99297540Y-111765400I0J200000D01*
G01*
X99297540Y-109265400D01*
G75*
G02*
X99497540Y-109065400I200000J0D01*
G01*
X102047540Y-109065400D01*
G75*
G02*
X102247540Y-109265400I0J-200000D01*
G01*
G37*
D15*
X88607540Y-107975400D03*
X98767540Y-107975400D03*
D13*
X97497540Y-110515400D03*
D14*
X93687540Y-107975400D03*
D13*
X91147540Y-113055400D03*
X257835040Y-113055400D03*
D14*
X260375040Y-107975400D03*
D13*
X264185040Y-110515400D03*
D15*
X265455040Y-107975400D03*
X255295040Y-107975400D03*
G36*
G01*
X268935040Y-109265400D02*
X268935040Y-111765400D01*
G75*
G02*
X268735040Y-111965400I-200000J0D01*
G01*
X266185040Y-111965400D01*
G75*
G02*
X265985040Y-111765400I0J200000D01*
G01*
X265985040Y-109265400D01*
G75*
G02*
X266185040Y-109065400I200000J0D01*
G01*
X268735040Y-109065400D01*
G75*
G02*
X268935040Y-109265400I0J-200000D01*
G01*
G37*
G36*
G01*
X256008040Y-111805400D02*
X256008040Y-114305400D01*
G75*
G02*
X255808040Y-114505400I-200000J0D01*
G01*
X253258040Y-114505400D01*
G75*
G02*
X253058040Y-114305400I0J200000D01*
G01*
X253058040Y-111805400D01*
G75*
G02*
X253258040Y-111605400I200000J0D01*
G01*
X255808040Y-111605400D01*
G75*
G02*
X256008040Y-111805400I0J-200000D01*
G01*
G37*
D13*
X127342540Y-110515400D03*
D14*
X122262540Y-107975400D03*
D13*
X124802540Y-104165400D03*
D15*
X122262540Y-102895400D03*
X122262540Y-113055400D03*
G36*
G01*
X123552540Y-99415400D02*
X126052540Y-99415400D01*
G75*
G02*
X126252540Y-99615400I0J-200000D01*
G01*
X126252540Y-102165400D01*
G75*
G02*
X126052540Y-102365400I-200000J0D01*
G01*
X123552540Y-102365400D01*
G75*
G02*
X123352540Y-102165400I0J200000D01*
G01*
X123352540Y-99615400D01*
G75*
G02*
X123552540Y-99415400I200000J0D01*
G01*
G37*
G36*
G01*
X126092540Y-112342400D02*
X128592540Y-112342400D01*
G75*
G02*
X128792540Y-112542400I0J-200000D01*
G01*
X128792540Y-115092400D01*
G75*
G02*
X128592540Y-115292400I-200000J0D01*
G01*
X126092540Y-115292400D01*
G75*
G02*
X125892540Y-115092400I0J200000D01*
G01*
X125892540Y-112542400D01*
G75*
G02*
X126092540Y-112342400I200000J0D01*
G01*
G37*
D13*
X295935040Y-74955400D03*
D14*
X298475040Y-69875400D03*
D13*
X302285040Y-72415400D03*
D15*
X303555040Y-69875400D03*
X293395040Y-69875400D03*
G36*
G01*
X307035040Y-71165400D02*
X307035040Y-73665400D01*
G75*
G02*
X306835040Y-73865400I-200000J0D01*
G01*
X304285040Y-73865400D01*
G75*
G02*
X304085040Y-73665400I0J200000D01*
G01*
X304085040Y-71165400D01*
G75*
G02*
X304285040Y-70965400I200000J0D01*
G01*
X306835040Y-70965400D01*
G75*
G02*
X307035040Y-71165400I0J-200000D01*
G01*
G37*
G36*
G01*
X294108040Y-73705400D02*
X294108040Y-76205400D01*
G75*
G02*
X293908040Y-76405400I-200000J0D01*
G01*
X291358040Y-76405400D01*
G75*
G02*
X291158040Y-76205400I0J200000D01*
G01*
X291158040Y-73705400D01*
G75*
G02*
X291358040Y-73505400I200000J0D01*
G01*
X293908040Y-73505400D01*
G75*
G02*
X294108040Y-73705400I0J-200000D01*
G01*
G37*
D13*
X234022540Y-113055400D03*
D14*
X236562540Y-107975400D03*
D13*
X240372540Y-110515400D03*
D15*
X241642540Y-107975400D03*
X231482540Y-107975400D03*
G36*
G01*
X245122540Y-109265400D02*
X245122540Y-111765400D01*
G75*
G02*
X244922540Y-111965400I-200000J0D01*
G01*
X242372540Y-111965400D01*
G75*
G02*
X242172540Y-111765400I0J200000D01*
G01*
X242172540Y-109265400D01*
G75*
G02*
X242372540Y-109065400I200000J0D01*
G01*
X244922540Y-109065400D01*
G75*
G02*
X245122540Y-109265400I0J-200000D01*
G01*
G37*
G36*
G01*
X232195540Y-111805400D02*
X232195540Y-114305400D01*
G75*
G02*
X231995540Y-114505400I-200000J0D01*
G01*
X229445540Y-114505400D01*
G75*
G02*
X229245540Y-114305400I0J200000D01*
G01*
X229245540Y-111805400D01*
G75*
G02*
X229445540Y-111605400I200000J0D01*
G01*
X231995540Y-111605400D01*
G75*
G02*
X232195540Y-111805400I0J-200000D01*
G01*
G37*
D13*
X196240040Y-45745400D03*
D14*
X193700040Y-50825400D03*
D13*
X189890040Y-48285400D03*
D15*
X188620040Y-50825400D03*
X198780040Y-50825400D03*
G36*
G01*
X185140040Y-49535400D02*
X185140040Y-47035400D01*
G75*
G02*
X185340040Y-46835400I200000J0D01*
G01*
X187890040Y-46835400D01*
G75*
G02*
X188090040Y-47035400I0J-200000D01*
G01*
X188090040Y-49535400D01*
G75*
G02*
X187890040Y-49735400I-200000J0D01*
G01*
X185340040Y-49735400D01*
G75*
G02*
X185140040Y-49535400I0J200000D01*
G01*
G37*
G36*
G01*
X198067040Y-46995400D02*
X198067040Y-44495400D01*
G75*
G02*
X198267040Y-44295400I200000J0D01*
G01*
X200817040Y-44295400D01*
G75*
G02*
X201017040Y-44495400I0J-200000D01*
G01*
X201017040Y-46995400D01*
G75*
G02*
X200817040Y-47195400I-200000J0D01*
G01*
X198267040Y-47195400D01*
G75*
G02*
X198067040Y-46995400I0J200000D01*
G01*
G37*
G36*
G01*
X63000000Y-91700000D02*
X63000000Y-90500000D01*
G75*
G02*
X63200000Y-90300000I200000J0D01*
G01*
X64100000Y-90300000D01*
G75*
G02*
X64300000Y-90500000I0J-200000D01*
G01*
X64300000Y-91700000D01*
G75*
G02*
X64100000Y-91900000I-200000J0D01*
G01*
X63200000Y-91900000D01*
G75*
G02*
X63000000Y-91700000I0J200000D01*
G01*
G37*
G36*
G01*
X59700000Y-91700000D02*
X59700000Y-90500000D01*
G75*
G02*
X59900000Y-90300000I200000J0D01*
G01*
X60800000Y-90300000D01*
G75*
G02*
X61000000Y-90500000I0J-200000D01*
G01*
X61000000Y-91700000D01*
G75*
G02*
X60800000Y-91900000I-200000J0D01*
G01*
X59900000Y-91900000D01*
G75*
G02*
X59700000Y-91700000I0J200000D01*
G01*
G37*
G36*
G01*
X270650000Y-34100040D02*
X271850000Y-34100040D01*
G75*
G02*
X272050000Y-34300040I0J-200000D01*
G01*
X272050000Y-35200040D01*
G75*
G02*
X271850000Y-35400040I-200000J0D01*
G01*
X270650000Y-35400040D01*
G75*
G02*
X270450000Y-35200040I0J200000D01*
G01*
X270450000Y-34300040D01*
G75*
G02*
X270650000Y-34100040I200000J0D01*
G01*
G37*
G36*
G01*
X270650000Y-37400040D02*
X271850000Y-37400040D01*
G75*
G02*
X272050000Y-37600040I0J-200000D01*
G01*
X272050000Y-38500040D01*
G75*
G02*
X271850000Y-38700040I-200000J0D01*
G01*
X270650000Y-38700040D01*
G75*
G02*
X270450000Y-38500040I0J200000D01*
G01*
X270450000Y-37600040D01*
G75*
G02*
X270650000Y-37400040I200000J0D01*
G01*
G37*
G36*
G01*
X281850000Y-57900040D02*
X283050000Y-57900040D01*
G75*
G02*
X283250000Y-58100040I0J-200000D01*
G01*
X283250000Y-59000040D01*
G75*
G02*
X283050000Y-59200040I-200000J0D01*
G01*
X281850000Y-59200040D01*
G75*
G02*
X281650000Y-59000040I0J200000D01*
G01*
X281650000Y-58100040D01*
G75*
G02*
X281850000Y-57900040I200000J0D01*
G01*
G37*
G36*
G01*
X281850000Y-54600040D02*
X283050000Y-54600040D01*
G75*
G02*
X283250000Y-54800040I0J-200000D01*
G01*
X283250000Y-55700040D01*
G75*
G02*
X283050000Y-55900040I-200000J0D01*
G01*
X281850000Y-55900040D01*
G75*
G02*
X281650000Y-55700040I0J200000D01*
G01*
X281650000Y-54800040D01*
G75*
G02*
X281850000Y-54600040I200000J0D01*
G01*
G37*
G36*
G01*
X201850000Y-48450040D02*
X203050000Y-48450040D01*
G75*
G02*
X203250000Y-48650040I0J-200000D01*
G01*
X203250000Y-49550040D01*
G75*
G02*
X203050000Y-49750040I-200000J0D01*
G01*
X201850000Y-49750040D01*
G75*
G02*
X201650000Y-49550040I0J200000D01*
G01*
X201650000Y-48650040D01*
G75*
G02*
X201850000Y-48450040I200000J0D01*
G01*
G37*
G36*
G01*
X201850000Y-51750040D02*
X203050000Y-51750040D01*
G75*
G02*
X203250000Y-51950040I0J-200000D01*
G01*
X203250000Y-52850040D01*
G75*
G02*
X203050000Y-53050040I-200000J0D01*
G01*
X201850000Y-53050040D01*
G75*
G02*
X201650000Y-52850040I0J200000D01*
G01*
X201650000Y-51950040D01*
G75*
G02*
X201850000Y-51750040I200000J0D01*
G01*
G37*
G36*
G01*
X176250000Y-35300040D02*
X177450000Y-35300040D01*
G75*
G02*
X177650000Y-35500040I0J-200000D01*
G01*
X177650000Y-36400040D01*
G75*
G02*
X177450000Y-36600040I-200000J0D01*
G01*
X176250000Y-36600040D01*
G75*
G02*
X176050000Y-36400040I0J200000D01*
G01*
X176050000Y-35500040D01*
G75*
G02*
X176250000Y-35300040I200000J0D01*
G01*
G37*
G36*
G01*
X176250000Y-32000040D02*
X177450000Y-32000040D01*
G75*
G02*
X177650000Y-32200040I0J-200000D01*
G01*
X177650000Y-33100040D01*
G75*
G02*
X177450000Y-33300040I-200000J0D01*
G01*
X176250000Y-33300040D01*
G75*
G02*
X176050000Y-33100040I0J200000D01*
G01*
X176050000Y-32200040D01*
G75*
G02*
X176250000Y-32000040I200000J0D01*
G01*
G37*
G36*
G01*
X138400000Y-37300040D02*
X139600000Y-37300040D01*
G75*
G02*
X139800000Y-37500040I0J-200000D01*
G01*
X139800000Y-38400040D01*
G75*
G02*
X139600000Y-38600040I-200000J0D01*
G01*
X138400000Y-38600040D01*
G75*
G02*
X138200000Y-38400040I0J200000D01*
G01*
X138200000Y-37500040D01*
G75*
G02*
X138400000Y-37300040I200000J0D01*
G01*
G37*
G36*
G01*
X138400000Y-34000040D02*
X139600000Y-34000040D01*
G75*
G02*
X139800000Y-34200040I0J-200000D01*
G01*
X139800000Y-35100040D01*
G75*
G02*
X139600000Y-35300040I-200000J0D01*
G01*
X138400000Y-35300040D01*
G75*
G02*
X138200000Y-35100040I0J200000D01*
G01*
X138200000Y-34200040D01*
G75*
G02*
X138400000Y-34000040I200000J0D01*
G01*
G37*
G36*
G01*
X119300040Y-32900400D02*
X120500040Y-32900400D01*
G75*
G02*
X120700040Y-33100400I0J-200000D01*
G01*
X120700040Y-34000400D01*
G75*
G02*
X120500040Y-34200400I-200000J0D01*
G01*
X119300040Y-34200400D01*
G75*
G02*
X119100040Y-34000400I0J200000D01*
G01*
X119100040Y-33100400D01*
G75*
G02*
X119300040Y-32900400I200000J0D01*
G01*
G37*
G36*
G01*
X119300040Y-36200400D02*
X120500040Y-36200400D01*
G75*
G02*
X120700040Y-36400400I0J-200000D01*
G01*
X120700040Y-37300400D01*
G75*
G02*
X120500040Y-37500400I-200000J0D01*
G01*
X119300040Y-37500400D01*
G75*
G02*
X119100040Y-37300400I0J200000D01*
G01*
X119100040Y-36400400D01*
G75*
G02*
X119300040Y-36200400I200000J0D01*
G01*
G37*
G36*
G01*
X89650000Y-96350040D02*
X88450000Y-96350040D01*
G75*
G02*
X88250000Y-96150040I0J200000D01*
G01*
X88250000Y-95250040D01*
G75*
G02*
X88450000Y-95050040I200000J0D01*
G01*
X89650000Y-95050040D01*
G75*
G02*
X89850000Y-95250040I0J-200000D01*
G01*
X89850000Y-96150040D01*
G75*
G02*
X89650000Y-96350040I-200000J0D01*
G01*
G37*
G36*
G01*
X89650000Y-93050040D02*
X88450000Y-93050040D01*
G75*
G02*
X88250000Y-92850040I0J200000D01*
G01*
X88250000Y-91950040D01*
G75*
G02*
X88450000Y-91750040I200000J0D01*
G01*
X89650000Y-91750040D01*
G75*
G02*
X89850000Y-91950040I0J-200000D01*
G01*
X89850000Y-92850040D01*
G75*
G02*
X89650000Y-93050040I-200000J0D01*
G01*
G37*
G36*
G01*
X82850000Y-90950040D02*
X84050000Y-90950040D01*
G75*
G02*
X84250000Y-91150040I0J-200000D01*
G01*
X84250000Y-92050040D01*
G75*
G02*
X84050000Y-92250040I-200000J0D01*
G01*
X82850000Y-92250040D01*
G75*
G02*
X82650000Y-92050040I0J200000D01*
G01*
X82650000Y-91150040D01*
G75*
G02*
X82850000Y-90950040I200000J0D01*
G01*
G37*
G36*
G01*
X82850000Y-94250040D02*
X84050000Y-94250040D01*
G75*
G02*
X84250000Y-94450040I0J-200000D01*
G01*
X84250000Y-95350040D01*
G75*
G02*
X84050000Y-95550040I-200000J0D01*
G01*
X82850000Y-95550040D01*
G75*
G02*
X82650000Y-95350040I0J200000D01*
G01*
X82650000Y-94450040D01*
G75*
G02*
X82850000Y-94250040I200000J0D01*
G01*
G37*
G36*
G01*
X60150000Y-102850040D02*
X61350000Y-102850040D01*
G75*
G02*
X61550000Y-103050040I0J-200000D01*
G01*
X61550000Y-103950040D01*
G75*
G02*
X61350000Y-104150040I-200000J0D01*
G01*
X60150000Y-104150040D01*
G75*
G02*
X59950000Y-103950040I0J200000D01*
G01*
X59950000Y-103050040D01*
G75*
G02*
X60150000Y-102850040I200000J0D01*
G01*
G37*
G36*
G01*
X60150000Y-99550040D02*
X61350000Y-99550040D01*
G75*
G02*
X61550000Y-99750040I0J-200000D01*
G01*
X61550000Y-100650040D01*
G75*
G02*
X61350000Y-100850040I-200000J0D01*
G01*
X60150000Y-100850040D01*
G75*
G02*
X59950000Y-100650040I0J200000D01*
G01*
X59950000Y-99750040D01*
G75*
G02*
X60150000Y-99550040I200000J0D01*
G01*
G37*
G36*
G01*
X60150000Y-107850040D02*
X61350000Y-107850040D01*
G75*
G02*
X61550000Y-108050040I0J-200000D01*
G01*
X61550000Y-108950040D01*
G75*
G02*
X61350000Y-109150040I-200000J0D01*
G01*
X60150000Y-109150040D01*
G75*
G02*
X59950000Y-108950040I0J200000D01*
G01*
X59950000Y-108050040D01*
G75*
G02*
X60150000Y-107850040I200000J0D01*
G01*
G37*
G36*
G01*
X60150000Y-104550040D02*
X61350000Y-104550040D01*
G75*
G02*
X61550000Y-104750040I0J-200000D01*
G01*
X61550000Y-105650040D01*
G75*
G02*
X61350000Y-105850040I-200000J0D01*
G01*
X60150000Y-105850040D01*
G75*
G02*
X59950000Y-105650040I0J200000D01*
G01*
X59950000Y-104750040D01*
G75*
G02*
X60150000Y-104550040I200000J0D01*
G01*
G37*
G36*
G01*
X191850040Y-37500400D02*
X190650040Y-37500400D01*
G75*
G02*
X190450040Y-37300400I0J200000D01*
G01*
X190450040Y-36400400D01*
G75*
G02*
X190650040Y-36200400I200000J0D01*
G01*
X191850040Y-36200400D01*
G75*
G02*
X192050040Y-36400400I0J-200000D01*
G01*
X192050040Y-37300400D01*
G75*
G02*
X191850040Y-37500400I-200000J0D01*
G01*
G37*
G36*
G01*
X191850040Y-34200400D02*
X190650040Y-34200400D01*
G75*
G02*
X190450040Y-34000400I0J200000D01*
G01*
X190450040Y-33100400D01*
G75*
G02*
X190650040Y-32900400I200000J0D01*
G01*
X191850040Y-32900400D01*
G75*
G02*
X192050040Y-33100400I0J-200000D01*
G01*
X192050040Y-34000400D01*
G75*
G02*
X191850040Y-34200400I-200000J0D01*
G01*
G37*
G36*
G01*
X287450040Y-33250400D02*
X286250040Y-33250400D01*
G75*
G02*
X286050040Y-33050400I0J200000D01*
G01*
X286050040Y-32150400D01*
G75*
G02*
X286250040Y-31950400I200000J0D01*
G01*
X287450040Y-31950400D01*
G75*
G02*
X287650040Y-32150400I0J-200000D01*
G01*
X287650040Y-33050400D01*
G75*
G02*
X287450040Y-33250400I-200000J0D01*
G01*
G37*
G36*
G01*
X287450040Y-36550400D02*
X286250040Y-36550400D01*
G75*
G02*
X286050040Y-36350400I0J200000D01*
G01*
X286050040Y-35450400D01*
G75*
G02*
X286250040Y-35250400I200000J0D01*
G01*
X287450040Y-35250400D01*
G75*
G02*
X287650040Y-35450400I0J-200000D01*
G01*
X287650040Y-36350400D01*
G75*
G02*
X287450040Y-36550400I-200000J0D01*
G01*
G37*
G36*
G01*
X229900000Y-37500000D02*
X228700000Y-37500000D01*
G75*
G02*
X228500000Y-37300000I0J200000D01*
G01*
X228500000Y-36400000D01*
G75*
G02*
X228700000Y-36200000I200000J0D01*
G01*
X229900000Y-36200000D01*
G75*
G02*
X230100000Y-36400000I0J-200000D01*
G01*
X230100000Y-37300000D01*
G75*
G02*
X229900000Y-37500000I-200000J0D01*
G01*
G37*
G36*
G01*
X229900000Y-34200000D02*
X228700000Y-34200000D01*
G75*
G02*
X228500000Y-34000000I0J200000D01*
G01*
X228500000Y-33100000D01*
G75*
G02*
X228700000Y-32900000I200000J0D01*
G01*
X229900000Y-32900000D01*
G75*
G02*
X230100000Y-33100000I0J-200000D01*
G01*
X230100000Y-34000000D01*
G75*
G02*
X229900000Y-34200000I-200000J0D01*
G01*
G37*
G36*
G01*
X211200000Y-36600000D02*
X210000000Y-36600000D01*
G75*
G02*
X209800000Y-36400000I0J200000D01*
G01*
X209800000Y-35500000D01*
G75*
G02*
X210000000Y-35300000I200000J0D01*
G01*
X211200000Y-35300000D01*
G75*
G02*
X211400000Y-35500000I0J-200000D01*
G01*
X211400000Y-36400000D01*
G75*
G02*
X211200000Y-36600000I-200000J0D01*
G01*
G37*
G36*
G01*
X211200000Y-33300000D02*
X210000000Y-33300000D01*
G75*
G02*
X209800000Y-33100000I0J200000D01*
G01*
X209800000Y-32200000D01*
G75*
G02*
X210000000Y-32000000I200000J0D01*
G01*
X211200000Y-32000000D01*
G75*
G02*
X211400000Y-32200000I0J-200000D01*
G01*
X211400000Y-33100000D01*
G75*
G02*
X211200000Y-33300000I-200000J0D01*
G01*
G37*
G36*
G01*
X135000000Y-36600000D02*
X133800000Y-36600000D01*
G75*
G02*
X133600000Y-36400000I0J200000D01*
G01*
X133600000Y-35500000D01*
G75*
G02*
X133800000Y-35300000I200000J0D01*
G01*
X135000000Y-35300000D01*
G75*
G02*
X135200000Y-35500000I0J-200000D01*
G01*
X135200000Y-36400000D01*
G75*
G02*
X135000000Y-36600000I-200000J0D01*
G01*
G37*
G36*
G01*
X135000000Y-33300000D02*
X133800000Y-33300000D01*
G75*
G02*
X133600000Y-33100000I0J200000D01*
G01*
X133600000Y-32200000D01*
G75*
G02*
X133800000Y-32000000I200000J0D01*
G01*
X135000000Y-32000000D01*
G75*
G02*
X135200000Y-32200000I0J-200000D01*
G01*
X135200000Y-33100000D01*
G75*
G02*
X135000000Y-33300000I-200000J0D01*
G01*
G37*
G36*
G01*
X96900000Y-36600000D02*
X95700000Y-36600000D01*
G75*
G02*
X95500000Y-36400000I0J200000D01*
G01*
X95500000Y-35500000D01*
G75*
G02*
X95700000Y-35300000I200000J0D01*
G01*
X96900000Y-35300000D01*
G75*
G02*
X97100000Y-35500000I0J-200000D01*
G01*
X97100000Y-36400000D01*
G75*
G02*
X96900000Y-36600000I-200000J0D01*
G01*
G37*
G36*
G01*
X96900000Y-33300000D02*
X95700000Y-33300000D01*
G75*
G02*
X95500000Y-33100000I0J200000D01*
G01*
X95500000Y-32200000D01*
G75*
G02*
X95700000Y-32000000I200000J0D01*
G01*
X96900000Y-32000000D01*
G75*
G02*
X97100000Y-32200000I0J-200000D01*
G01*
X97100000Y-33100000D01*
G75*
G02*
X96900000Y-33300000I-200000J0D01*
G01*
G37*
G36*
G01*
X77500000Y-37500000D02*
X76300000Y-37500000D01*
G75*
G02*
X76100000Y-37300000I0J200000D01*
G01*
X76100000Y-36400000D01*
G75*
G02*
X76300000Y-36200000I200000J0D01*
G01*
X77500000Y-36200000D01*
G75*
G02*
X77700000Y-36400000I0J-200000D01*
G01*
X77700000Y-37300000D01*
G75*
G02*
X77500000Y-37500000I-200000J0D01*
G01*
G37*
G36*
G01*
X77500000Y-34200000D02*
X76300000Y-34200000D01*
G75*
G02*
X76100000Y-34000000I0J200000D01*
G01*
X76100000Y-33100000D01*
G75*
G02*
X76300000Y-32900000I200000J0D01*
G01*
X77500000Y-32900000D01*
G75*
G02*
X77700000Y-33100000I0J-200000D01*
G01*
X77700000Y-34000000D01*
G75*
G02*
X77500000Y-34200000I-200000J0D01*
G01*
G37*
G36*
G01*
X26600000Y-44050040D02*
X26600000Y-45250040D01*
G75*
G02*
X26400000Y-45450040I-200000J0D01*
G01*
X25500000Y-45450040D01*
G75*
G02*
X25300000Y-45250040I0J200000D01*
G01*
X25300000Y-44050040D01*
G75*
G02*
X25500000Y-43850040I200000J0D01*
G01*
X26400000Y-43850040D01*
G75*
G02*
X26600000Y-44050040I0J-200000D01*
G01*
G37*
G36*
G01*
X29900000Y-44050040D02*
X29900000Y-45250040D01*
G75*
G02*
X29700000Y-45450040I-200000J0D01*
G01*
X28800000Y-45450040D01*
G75*
G02*
X28600000Y-45250040I0J200000D01*
G01*
X28600000Y-44050040D01*
G75*
G02*
X28800000Y-43850040I200000J0D01*
G01*
X29700000Y-43850040D01*
G75*
G02*
X29900000Y-44050040I0J-200000D01*
G01*
G37*
G36*
G01*
X160850000Y-95050040D02*
X162050000Y-95050040D01*
G75*
G02*
X162250000Y-95250040I0J-200000D01*
G01*
X162250000Y-96150040D01*
G75*
G02*
X162050000Y-96350040I-200000J0D01*
G01*
X160850000Y-96350040D01*
G75*
G02*
X160650000Y-96150040I0J200000D01*
G01*
X160650000Y-95250040D01*
G75*
G02*
X160850000Y-95050040I200000J0D01*
G01*
G37*
G36*
G01*
X160850000Y-91750040D02*
X162050000Y-91750040D01*
G75*
G02*
X162250000Y-91950040I0J-200000D01*
G01*
X162250000Y-92850040D01*
G75*
G02*
X162050000Y-93050040I-200000J0D01*
G01*
X160850000Y-93050040D01*
G75*
G02*
X160650000Y-92850040I0J200000D01*
G01*
X160650000Y-91950040D01*
G75*
G02*
X160850000Y-91750040I200000J0D01*
G01*
G37*
G36*
G01*
X172650040Y-91400400D02*
X171450040Y-91400400D01*
G75*
G02*
X171250040Y-91200400I0J200000D01*
G01*
X171250040Y-90300400D01*
G75*
G02*
X171450040Y-90100400I200000J0D01*
G01*
X172650040Y-90100400D01*
G75*
G02*
X172850040Y-90300400I0J-200000D01*
G01*
X172850040Y-91200400D01*
G75*
G02*
X172650040Y-91400400I-200000J0D01*
G01*
G37*
G36*
G01*
X172650040Y-94700400D02*
X171450040Y-94700400D01*
G75*
G02*
X171250040Y-94500400I0J200000D01*
G01*
X171250040Y-93600400D01*
G75*
G02*
X171450040Y-93400400I200000J0D01*
G01*
X172650040Y-93400400D01*
G75*
G02*
X172850040Y-93600400I0J-200000D01*
G01*
X172850040Y-94500400D01*
G75*
G02*
X172650040Y-94700400I-200000J0D01*
G01*
G37*
G36*
G01*
X168850000Y-95050040D02*
X170050000Y-95050040D01*
G75*
G02*
X170250000Y-95250040I0J-200000D01*
G01*
X170250000Y-96150040D01*
G75*
G02*
X170050000Y-96350040I-200000J0D01*
G01*
X168850000Y-96350040D01*
G75*
G02*
X168650000Y-96150040I0J200000D01*
G01*
X168650000Y-95250040D01*
G75*
G02*
X168850000Y-95050040I200000J0D01*
G01*
G37*
G36*
G01*
X168850000Y-91750040D02*
X170050000Y-91750040D01*
G75*
G02*
X170250000Y-91950040I0J-200000D01*
G01*
X170250000Y-92850040D01*
G75*
G02*
X170050000Y-93050040I-200000J0D01*
G01*
X168850000Y-93050040D01*
G75*
G02*
X168650000Y-92850040I0J200000D01*
G01*
X168650000Y-91950040D01*
G75*
G02*
X168850000Y-91750040I200000J0D01*
G01*
G37*
G36*
G01*
X283500000Y-43850040D02*
X283500000Y-42650040D01*
G75*
G02*
X283700000Y-42450040I200000J0D01*
G01*
X284600000Y-42450040D01*
G75*
G02*
X284800000Y-42650040I0J-200000D01*
G01*
X284800000Y-43850040D01*
G75*
G02*
X284600000Y-44050040I-200000J0D01*
G01*
X283700000Y-44050040D01*
G75*
G02*
X283500000Y-43850040I0J200000D01*
G01*
G37*
G36*
G01*
X286800000Y-43850040D02*
X286800000Y-42650040D01*
G75*
G02*
X287000000Y-42450040I200000J0D01*
G01*
X287900000Y-42450040D01*
G75*
G02*
X288100000Y-42650040I0J-200000D01*
G01*
X288100000Y-43850040D01*
G75*
G02*
X287900000Y-44050040I-200000J0D01*
G01*
X287000000Y-44050040D01*
G75*
G02*
X286800000Y-43850040I0J200000D01*
G01*
G37*
G36*
G01*
X239850000Y-42950040D02*
X241050000Y-42950040D01*
G75*
G02*
X241250000Y-43150040I0J-200000D01*
G01*
X241250000Y-44050040D01*
G75*
G02*
X241050000Y-44250040I-200000J0D01*
G01*
X239850000Y-44250040D01*
G75*
G02*
X239650000Y-44050040I0J200000D01*
G01*
X239650000Y-43150040D01*
G75*
G02*
X239850000Y-42950040I200000J0D01*
G01*
G37*
G36*
G01*
X239850000Y-46250040D02*
X241050000Y-46250040D01*
G75*
G02*
X241250000Y-46450040I0J-200000D01*
G01*
X241250000Y-47350040D01*
G75*
G02*
X241050000Y-47550040I-200000J0D01*
G01*
X239850000Y-47550040D01*
G75*
G02*
X239650000Y-47350040I0J200000D01*
G01*
X239650000Y-46450040D01*
G75*
G02*
X239850000Y-46250040I200000J0D01*
G01*
G37*
G36*
G01*
X220850000Y-45450040D02*
X222050000Y-45450040D01*
G75*
G02*
X222250000Y-45650040I0J-200000D01*
G01*
X222250000Y-46550040D01*
G75*
G02*
X222050000Y-46750040I-200000J0D01*
G01*
X220850000Y-46750040D01*
G75*
G02*
X220650000Y-46550040I0J200000D01*
G01*
X220650000Y-45650040D01*
G75*
G02*
X220850000Y-45450040I200000J0D01*
G01*
G37*
G36*
G01*
X220850000Y-42150040D02*
X222050000Y-42150040D01*
G75*
G02*
X222250000Y-42350040I0J-200000D01*
G01*
X222250000Y-43250040D01*
G75*
G02*
X222050000Y-43450040I-200000J0D01*
G01*
X220850000Y-43450040D01*
G75*
G02*
X220650000Y-43250040I0J200000D01*
G01*
X220650000Y-42350040D01*
G75*
G02*
X220850000Y-42150040I200000J0D01*
G01*
G37*
G36*
G01*
X144650000Y-45450040D02*
X145850000Y-45450040D01*
G75*
G02*
X146050000Y-45650040I0J-200000D01*
G01*
X146050000Y-46550040D01*
G75*
G02*
X145850000Y-46750040I-200000J0D01*
G01*
X144650000Y-46750040D01*
G75*
G02*
X144450000Y-46550040I0J200000D01*
G01*
X144450000Y-45650040D01*
G75*
G02*
X144650000Y-45450040I200000J0D01*
G01*
G37*
G36*
G01*
X144650000Y-42150040D02*
X145850000Y-42150040D01*
G75*
G02*
X146050000Y-42350040I0J-200000D01*
G01*
X146050000Y-43250040D01*
G75*
G02*
X145850000Y-43450040I-200000J0D01*
G01*
X144650000Y-43450040D01*
G75*
G02*
X144450000Y-43250040I0J200000D01*
G01*
X144450000Y-42350040D01*
G75*
G02*
X144650000Y-42150040I200000J0D01*
G01*
G37*
G36*
G01*
X106650000Y-42150040D02*
X107850000Y-42150040D01*
G75*
G02*
X108050000Y-42350040I0J-200000D01*
G01*
X108050000Y-43250040D01*
G75*
G02*
X107850000Y-43450040I-200000J0D01*
G01*
X106650000Y-43450040D01*
G75*
G02*
X106450000Y-43250040I0J200000D01*
G01*
X106450000Y-42350040D01*
G75*
G02*
X106650000Y-42150040I200000J0D01*
G01*
G37*
G36*
G01*
X106650000Y-45450040D02*
X107850000Y-45450040D01*
G75*
G02*
X108050000Y-45650040I0J-200000D01*
G01*
X108050000Y-46550040D01*
G75*
G02*
X107850000Y-46750040I-200000J0D01*
G01*
X106650000Y-46750040D01*
G75*
G02*
X106450000Y-46550040I0J200000D01*
G01*
X106450000Y-45650040D01*
G75*
G02*
X106650000Y-45450040I200000J0D01*
G01*
G37*
G36*
G01*
X87650000Y-42950040D02*
X88850000Y-42950040D01*
G75*
G02*
X89050000Y-43150040I0J-200000D01*
G01*
X89050000Y-44050040D01*
G75*
G02*
X88850000Y-44250040I-200000J0D01*
G01*
X87650000Y-44250040D01*
G75*
G02*
X87450000Y-44050040I0J200000D01*
G01*
X87450000Y-43150040D01*
G75*
G02*
X87650000Y-42950040I200000J0D01*
G01*
G37*
G36*
G01*
X87650000Y-46250040D02*
X88850000Y-46250040D01*
G75*
G02*
X89050000Y-46450040I0J-200000D01*
G01*
X89050000Y-47350040D01*
G75*
G02*
X88850000Y-47550040I-200000J0D01*
G01*
X87650000Y-47550040D01*
G75*
G02*
X87450000Y-47350040I0J200000D01*
G01*
X87450000Y-46450040D01*
G75*
G02*
X87650000Y-46250040I200000J0D01*
G01*
G37*
G36*
G01*
X48650000Y-43250040D02*
X48650000Y-44450040D01*
G75*
G02*
X48450000Y-44650040I-200000J0D01*
G01*
X47550000Y-44650040D01*
G75*
G02*
X47350000Y-44450040I0J200000D01*
G01*
X47350000Y-43250040D01*
G75*
G02*
X47550000Y-43050040I200000J0D01*
G01*
X48450000Y-43050040D01*
G75*
G02*
X48650000Y-43250040I0J-200000D01*
G01*
G37*
G36*
G01*
X51950000Y-43250040D02*
X51950000Y-44450040D01*
G75*
G02*
X51750000Y-44650040I-200000J0D01*
G01*
X50850000Y-44650040D01*
G75*
G02*
X50650000Y-44450040I0J200000D01*
G01*
X50650000Y-43250040D01*
G75*
G02*
X50850000Y-43050040I200000J0D01*
G01*
X51750000Y-43050040D01*
G75*
G02*
X51950000Y-43250040I0J-200000D01*
G01*
G37*
G36*
G01*
X201850000Y-46250040D02*
X203050000Y-46250040D01*
G75*
G02*
X203250000Y-46450040I0J-200000D01*
G01*
X203250000Y-47350040D01*
G75*
G02*
X203050000Y-47550040I-200000J0D01*
G01*
X201850000Y-47550040D01*
G75*
G02*
X201650000Y-47350040I0J200000D01*
G01*
X201650000Y-46450040D01*
G75*
G02*
X201850000Y-46250040I200000J0D01*
G01*
G37*
G36*
G01*
X201850000Y-42950040D02*
X203050000Y-42950040D01*
G75*
G02*
X203250000Y-43150040I0J-200000D01*
G01*
X203250000Y-44050040D01*
G75*
G02*
X203050000Y-44250040I-200000J0D01*
G01*
X201850000Y-44250040D01*
G75*
G02*
X201650000Y-44050040I0J200000D01*
G01*
X201650000Y-43150040D01*
G75*
G02*
X201850000Y-42950040I200000J0D01*
G01*
G37*
G36*
G01*
X201800000Y-64700040D02*
X203000000Y-64700040D01*
G75*
G02*
X203200000Y-64900040I0J-200000D01*
G01*
X203200000Y-65800040D01*
G75*
G02*
X203000000Y-66000040I-200000J0D01*
G01*
X201800000Y-66000040D01*
G75*
G02*
X201600000Y-65800040I0J200000D01*
G01*
X201600000Y-64900040D01*
G75*
G02*
X201800000Y-64700040I200000J0D01*
G01*
G37*
G36*
G01*
X201800000Y-61400040D02*
X203000000Y-61400040D01*
G75*
G02*
X203200000Y-61600040I0J-200000D01*
G01*
X203200000Y-62500040D01*
G75*
G02*
X203000000Y-62700040I-200000J0D01*
G01*
X201800000Y-62700040D01*
G75*
G02*
X201600000Y-62500040I0J200000D01*
G01*
X201600000Y-61600040D01*
G75*
G02*
X201800000Y-61400040I200000J0D01*
G01*
G37*
G36*
G01*
X191650040Y-94700400D02*
X190450040Y-94700400D01*
G75*
G02*
X190250040Y-94500400I0J200000D01*
G01*
X190250040Y-93600400D01*
G75*
G02*
X190450040Y-93400400I200000J0D01*
G01*
X191650040Y-93400400D01*
G75*
G02*
X191850040Y-93600400I0J-200000D01*
G01*
X191850040Y-94500400D01*
G75*
G02*
X191650040Y-94700400I-200000J0D01*
G01*
G37*
G36*
G01*
X191650040Y-91400400D02*
X190450040Y-91400400D01*
G75*
G02*
X190250040Y-91200400I0J200000D01*
G01*
X190250040Y-90300400D01*
G75*
G02*
X190450040Y-90100400I200000J0D01*
G01*
X191650040Y-90100400D01*
G75*
G02*
X191850040Y-90300400I0J-200000D01*
G01*
X191850040Y-91200400D01*
G75*
G02*
X191650040Y-91400400I-200000J0D01*
G01*
G37*
G36*
G01*
X240000000Y-64750040D02*
X241200000Y-64750040D01*
G75*
G02*
X241400000Y-64950040I0J-200000D01*
G01*
X241400000Y-65850040D01*
G75*
G02*
X241200000Y-66050040I-200000J0D01*
G01*
X240000000Y-66050040D01*
G75*
G02*
X239800000Y-65850040I0J200000D01*
G01*
X239800000Y-64950040D01*
G75*
G02*
X240000000Y-64750040I200000J0D01*
G01*
G37*
G36*
G01*
X240000000Y-61450040D02*
X241200000Y-61450040D01*
G75*
G02*
X241400000Y-61650040I0J-200000D01*
G01*
X241400000Y-62550040D01*
G75*
G02*
X241200000Y-62750040I-200000J0D01*
G01*
X240000000Y-62750040D01*
G75*
G02*
X239800000Y-62550040I0J200000D01*
G01*
X239800000Y-61650040D01*
G75*
G02*
X240000000Y-61450040I200000J0D01*
G01*
G37*
G36*
G01*
X220950000Y-65500040D02*
X222150000Y-65500040D01*
G75*
G02*
X222350000Y-65700040I0J-200000D01*
G01*
X222350000Y-66600040D01*
G75*
G02*
X222150000Y-66800040I-200000J0D01*
G01*
X220950000Y-66800040D01*
G75*
G02*
X220750000Y-66600040I0J200000D01*
G01*
X220750000Y-65700040D01*
G75*
G02*
X220950000Y-65500040I200000J0D01*
G01*
G37*
G36*
G01*
X220950000Y-62200040D02*
X222150000Y-62200040D01*
G75*
G02*
X222350000Y-62400040I0J-200000D01*
G01*
X222350000Y-63300040D01*
G75*
G02*
X222150000Y-63500040I-200000J0D01*
G01*
X220950000Y-63500040D01*
G75*
G02*
X220750000Y-63300040I0J200000D01*
G01*
X220750000Y-62400040D01*
G75*
G02*
X220950000Y-62200040I200000J0D01*
G01*
G37*
G36*
G01*
X144700000Y-65400040D02*
X145900000Y-65400040D01*
G75*
G02*
X146100000Y-65600040I0J-200000D01*
G01*
X146100000Y-66500040D01*
G75*
G02*
X145900000Y-66700040I-200000J0D01*
G01*
X144700000Y-66700040D01*
G75*
G02*
X144500000Y-66500040I0J200000D01*
G01*
X144500000Y-65600040D01*
G75*
G02*
X144700000Y-65400040I200000J0D01*
G01*
G37*
G36*
G01*
X144700000Y-62100040D02*
X145900000Y-62100040D01*
G75*
G02*
X146100000Y-62300040I0J-200000D01*
G01*
X146100000Y-63200040D01*
G75*
G02*
X145900000Y-63400040I-200000J0D01*
G01*
X144700000Y-63400040D01*
G75*
G02*
X144500000Y-63200040I0J200000D01*
G01*
X144500000Y-62300040D01*
G75*
G02*
X144700000Y-62100040I200000J0D01*
G01*
G37*
G36*
G01*
X106600000Y-62100040D02*
X107800000Y-62100040D01*
G75*
G02*
X108000000Y-62300040I0J-200000D01*
G01*
X108000000Y-63200040D01*
G75*
G02*
X107800000Y-63400040I-200000J0D01*
G01*
X106600000Y-63400040D01*
G75*
G02*
X106400000Y-63200040I0J200000D01*
G01*
X106400000Y-62300040D01*
G75*
G02*
X106600000Y-62100040I200000J0D01*
G01*
G37*
G36*
G01*
X106600000Y-65400040D02*
X107800000Y-65400040D01*
G75*
G02*
X108000000Y-65600040I0J-200000D01*
G01*
X108000000Y-66500040D01*
G75*
G02*
X107800000Y-66700040I-200000J0D01*
G01*
X106600000Y-66700040D01*
G75*
G02*
X106400000Y-66500040I0J200000D01*
G01*
X106400000Y-65600040D01*
G75*
G02*
X106600000Y-65400040I200000J0D01*
G01*
G37*
G36*
G01*
X87850000Y-65750040D02*
X89050000Y-65750040D01*
G75*
G02*
X89250000Y-65950040I0J-200000D01*
G01*
X89250000Y-66850040D01*
G75*
G02*
X89050000Y-67050040I-200000J0D01*
G01*
X87850000Y-67050040D01*
G75*
G02*
X87650000Y-66850040I0J200000D01*
G01*
X87650000Y-65950040D01*
G75*
G02*
X87850000Y-65750040I200000J0D01*
G01*
G37*
G36*
G01*
X87850000Y-62450040D02*
X89050000Y-62450040D01*
G75*
G02*
X89250000Y-62650040I0J-200000D01*
G01*
X89250000Y-63550040D01*
G75*
G02*
X89050000Y-63750040I-200000J0D01*
G01*
X87850000Y-63750040D01*
G75*
G02*
X87650000Y-63550040I0J200000D01*
G01*
X87650000Y-62650040D01*
G75*
G02*
X87850000Y-62450040I200000J0D01*
G01*
G37*
G36*
G01*
X47400000Y-64650040D02*
X48600000Y-64650040D01*
G75*
G02*
X48800000Y-64850040I0J-200000D01*
G01*
X48800000Y-65750040D01*
G75*
G02*
X48600000Y-65950040I-200000J0D01*
G01*
X47400000Y-65950040D01*
G75*
G02*
X47200000Y-65750040I0J200000D01*
G01*
X47200000Y-64850040D01*
G75*
G02*
X47400000Y-64650040I200000J0D01*
G01*
G37*
G36*
G01*
X47400000Y-61350040D02*
X48600000Y-61350040D01*
G75*
G02*
X48800000Y-61550040I0J-200000D01*
G01*
X48800000Y-62450040D01*
G75*
G02*
X48600000Y-62650040I-200000J0D01*
G01*
X47400000Y-62650040D01*
G75*
G02*
X47200000Y-62450040I0J200000D01*
G01*
X47200000Y-61550040D01*
G75*
G02*
X47400000Y-61350040I200000J0D01*
G01*
G37*
G36*
G01*
X179900040Y-95050040D02*
X181100040Y-95050040D01*
G75*
G02*
X181300040Y-95250040I0J-200000D01*
G01*
X181300040Y-96150040D01*
G75*
G02*
X181100040Y-96350040I-200000J0D01*
G01*
X179900040Y-96350040D01*
G75*
G02*
X179700040Y-96150040I0J200000D01*
G01*
X179700040Y-95250040D01*
G75*
G02*
X179900040Y-95050040I200000J0D01*
G01*
G37*
G36*
G01*
X179900040Y-91750040D02*
X181100040Y-91750040D01*
G75*
G02*
X181300040Y-91950040I0J-200000D01*
G01*
X181300040Y-92850040D01*
G75*
G02*
X181100040Y-93050040I-200000J0D01*
G01*
X179900040Y-93050040D01*
G75*
G02*
X179700040Y-92850040I0J200000D01*
G01*
X179700040Y-91950040D01*
G75*
G02*
X179900040Y-91750040I200000J0D01*
G01*
G37*
G36*
G01*
X286600000Y-95500040D02*
X285400000Y-95500040D01*
G75*
G02*
X285200000Y-95300040I0J200000D01*
G01*
X285200000Y-94400040D01*
G75*
G02*
X285400000Y-94200040I200000J0D01*
G01*
X286600000Y-94200040D01*
G75*
G02*
X286800000Y-94400040I0J-200000D01*
G01*
X286800000Y-95300040D01*
G75*
G02*
X286600000Y-95500040I-200000J0D01*
G01*
G37*
G36*
G01*
X286600000Y-92200040D02*
X285400000Y-92200040D01*
G75*
G02*
X285200000Y-92000040I0J200000D01*
G01*
X285200000Y-91100040D01*
G75*
G02*
X285400000Y-90900040I200000J0D01*
G01*
X286600000Y-90900040D01*
G75*
G02*
X286800000Y-91100040I0J-200000D01*
G01*
X286800000Y-92000040D01*
G75*
G02*
X286600000Y-92200040I-200000J0D01*
G01*
G37*
G36*
G01*
X234850040Y-98000400D02*
X233650040Y-98000400D01*
G75*
G02*
X233450040Y-97800400I0J200000D01*
G01*
X233450040Y-96900400D01*
G75*
G02*
X233650040Y-96700400I200000J0D01*
G01*
X234850040Y-96700400D01*
G75*
G02*
X235050040Y-96900400I0J-200000D01*
G01*
X235050040Y-97800400D01*
G75*
G02*
X234850040Y-98000400I-200000J0D01*
G01*
G37*
G36*
G01*
X234850040Y-94700400D02*
X233650040Y-94700400D01*
G75*
G02*
X233450040Y-94500400I0J200000D01*
G01*
X233450040Y-93600400D01*
G75*
G02*
X233650040Y-93400400I200000J0D01*
G01*
X234850040Y-93400400D01*
G75*
G02*
X235050040Y-93600400I0J-200000D01*
G01*
X235050040Y-94500400D01*
G75*
G02*
X234850040Y-94700400I-200000J0D01*
G01*
G37*
G36*
G01*
X229800000Y-91400000D02*
X228600000Y-91400000D01*
G75*
G02*
X228400000Y-91200000I0J200000D01*
G01*
X228400000Y-90300000D01*
G75*
G02*
X228600000Y-90100000I200000J0D01*
G01*
X229800000Y-90100000D01*
G75*
G02*
X230000000Y-90300000I0J-200000D01*
G01*
X230000000Y-91200000D01*
G75*
G02*
X229800000Y-91400000I-200000J0D01*
G01*
G37*
G36*
G01*
X229800000Y-94700000D02*
X228600000Y-94700000D01*
G75*
G02*
X228400000Y-94500000I0J200000D01*
G01*
X228400000Y-93600000D01*
G75*
G02*
X228600000Y-93400000I200000J0D01*
G01*
X229800000Y-93400000D01*
G75*
G02*
X230000000Y-93600000I0J-200000D01*
G01*
X230000000Y-94500000D01*
G75*
G02*
X229800000Y-94700000I-200000J0D01*
G01*
G37*
G36*
G01*
X282950000Y-61950040D02*
X282950000Y-63150040D01*
G75*
G02*
X282750000Y-63350040I-200000J0D01*
G01*
X281850000Y-63350040D01*
G75*
G02*
X281650000Y-63150040I0J200000D01*
G01*
X281650000Y-61950040D01*
G75*
G02*
X281850000Y-61750040I200000J0D01*
G01*
X282750000Y-61750040D01*
G75*
G02*
X282950000Y-61950040I0J-200000D01*
G01*
G37*
G36*
G01*
X279650000Y-61950040D02*
X279650000Y-63150040D01*
G75*
G02*
X279450000Y-63350040I-200000J0D01*
G01*
X278550000Y-63350040D01*
G75*
G02*
X278350000Y-63150040I0J200000D01*
G01*
X278350000Y-61950040D01*
G75*
G02*
X278550000Y-61750040I200000J0D01*
G01*
X279450000Y-61750040D01*
G75*
G02*
X279650000Y-61950040I0J-200000D01*
G01*
G37*
G36*
G01*
X210050000Y-92250040D02*
X208850000Y-92250040D01*
G75*
G02*
X208650000Y-92050040I0J200000D01*
G01*
X208650000Y-91150040D01*
G75*
G02*
X208850000Y-90950040I200000J0D01*
G01*
X210050000Y-90950040D01*
G75*
G02*
X210250000Y-91150040I0J-200000D01*
G01*
X210250000Y-92050040D01*
G75*
G02*
X210050000Y-92250040I-200000J0D01*
G01*
G37*
G36*
G01*
X210050000Y-95550040D02*
X208850000Y-95550040D01*
G75*
G02*
X208650000Y-95350040I0J200000D01*
G01*
X208650000Y-94450040D01*
G75*
G02*
X208850000Y-94250040I200000J0D01*
G01*
X210050000Y-94250040D01*
G75*
G02*
X210250000Y-94450040I0J-200000D01*
G01*
X210250000Y-95350040D01*
G75*
G02*
X210050000Y-95550040I-200000J0D01*
G01*
G37*
G36*
G01*
X130850000Y-92250040D02*
X129650000Y-92250040D01*
G75*
G02*
X129450000Y-92050040I0J200000D01*
G01*
X129450000Y-91150040D01*
G75*
G02*
X129650000Y-90950040I200000J0D01*
G01*
X130850000Y-90950040D01*
G75*
G02*
X131050000Y-91150040I0J-200000D01*
G01*
X131050000Y-92050040D01*
G75*
G02*
X130850000Y-92250040I-200000J0D01*
G01*
G37*
G36*
G01*
X130850000Y-95550040D02*
X129650000Y-95550040D01*
G75*
G02*
X129450000Y-95350040I0J200000D01*
G01*
X129450000Y-94450040D01*
G75*
G02*
X129650000Y-94250040I200000J0D01*
G01*
X130850000Y-94250040D01*
G75*
G02*
X131050000Y-94450040I0J-200000D01*
G01*
X131050000Y-95350040D01*
G75*
G02*
X130850000Y-95550040I-200000J0D01*
G01*
G37*
G36*
G01*
X96250000Y-95550040D02*
X95050000Y-95550040D01*
G75*
G02*
X94850000Y-95350040I0J200000D01*
G01*
X94850000Y-94450040D01*
G75*
G02*
X95050000Y-94250040I200000J0D01*
G01*
X96250000Y-94250040D01*
G75*
G02*
X96450000Y-94450040I0J-200000D01*
G01*
X96450000Y-95350040D01*
G75*
G02*
X96250000Y-95550040I-200000J0D01*
G01*
G37*
G36*
G01*
X96250000Y-92250040D02*
X95050000Y-92250040D01*
G75*
G02*
X94850000Y-92050040I0J200000D01*
G01*
X94850000Y-91150040D01*
G75*
G02*
X95050000Y-90950040I200000J0D01*
G01*
X96250000Y-90950040D01*
G75*
G02*
X96450000Y-91150040I0J-200000D01*
G01*
X96450000Y-92050040D01*
G75*
G02*
X96250000Y-92250040I-200000J0D01*
G01*
G37*
G36*
G01*
X81250000Y-91450040D02*
X80050000Y-91450040D01*
G75*
G02*
X79850000Y-91250040I0J200000D01*
G01*
X79850000Y-90350040D01*
G75*
G02*
X80050000Y-90150040I200000J0D01*
G01*
X81250000Y-90150040D01*
G75*
G02*
X81450000Y-90350040I0J-200000D01*
G01*
X81450000Y-91250040D01*
G75*
G02*
X81250000Y-91450040I-200000J0D01*
G01*
G37*
G36*
G01*
X81250000Y-94750040D02*
X80050000Y-94750040D01*
G75*
G02*
X79850000Y-94550040I0J200000D01*
G01*
X79850000Y-93650040D01*
G75*
G02*
X80050000Y-93450040I200000J0D01*
G01*
X81250000Y-93450040D01*
G75*
G02*
X81450000Y-93650040I0J-200000D01*
G01*
X81450000Y-94550040D01*
G75*
G02*
X81250000Y-94750040I-200000J0D01*
G01*
G37*
G36*
G01*
X41050000Y-102650040D02*
X39850000Y-102650040D01*
G75*
G02*
X39650000Y-102450040I0J200000D01*
G01*
X39650000Y-101550040D01*
G75*
G02*
X39850000Y-101350040I200000J0D01*
G01*
X41050000Y-101350040D01*
G75*
G02*
X41250000Y-101550040I0J-200000D01*
G01*
X41250000Y-102450040D01*
G75*
G02*
X41050000Y-102650040I-200000J0D01*
G01*
G37*
G36*
G01*
X41050000Y-105950040D02*
X39850000Y-105950040D01*
G75*
G02*
X39650000Y-105750040I0J200000D01*
G01*
X39650000Y-104850040D01*
G75*
G02*
X39850000Y-104650040I200000J0D01*
G01*
X41050000Y-104650040D01*
G75*
G02*
X41250000Y-104850040I0J-200000D01*
G01*
X41250000Y-105750040D01*
G75*
G02*
X41050000Y-105950040I-200000J0D01*
G01*
G37*
G36*
G01*
X303000000Y-91750040D02*
X304200000Y-91750040D01*
G75*
G02*
X304400000Y-91950040I0J-200000D01*
G01*
X304400000Y-92850040D01*
G75*
G02*
X304200000Y-93050040I-200000J0D01*
G01*
X303000000Y-93050040D01*
G75*
G02*
X302800000Y-92850040I0J200000D01*
G01*
X302800000Y-91950040D01*
G75*
G02*
X303000000Y-91750040I200000J0D01*
G01*
G37*
G36*
G01*
X303000000Y-95050040D02*
X304200000Y-95050040D01*
G75*
G02*
X304400000Y-95250040I0J-200000D01*
G01*
X304400000Y-96150040D01*
G75*
G02*
X304200000Y-96350040I-200000J0D01*
G01*
X303000000Y-96350040D01*
G75*
G02*
X302800000Y-96150040I0J200000D01*
G01*
X302800000Y-95250040D01*
G75*
G02*
X303000000Y-95050040I200000J0D01*
G01*
G37*
G36*
G01*
X282650000Y-92600040D02*
X283850000Y-92600040D01*
G75*
G02*
X284050000Y-92800040I0J-200000D01*
G01*
X284050000Y-93700040D01*
G75*
G02*
X283850000Y-93900040I-200000J0D01*
G01*
X282650000Y-93900040D01*
G75*
G02*
X282450000Y-93700040I0J200000D01*
G01*
X282450000Y-92800040D01*
G75*
G02*
X282650000Y-92600040I200000J0D01*
G01*
G37*
G36*
G01*
X282650000Y-95900040D02*
X283850000Y-95900040D01*
G75*
G02*
X284050000Y-96100040I0J-200000D01*
G01*
X284050000Y-97000040D01*
G75*
G02*
X283850000Y-97200040I-200000J0D01*
G01*
X282650000Y-97200040D01*
G75*
G02*
X282450000Y-97000040I0J200000D01*
G01*
X282450000Y-96100040D01*
G75*
G02*
X282650000Y-95900040I200000J0D01*
G01*
G37*
G36*
G01*
X239425000Y-95900040D02*
X240625000Y-95900040D01*
G75*
G02*
X240825000Y-96100040I0J-200000D01*
G01*
X240825000Y-97000040D01*
G75*
G02*
X240625000Y-97200040I-200000J0D01*
G01*
X239425000Y-97200040D01*
G75*
G02*
X239225000Y-97000040I0J200000D01*
G01*
X239225000Y-96100040D01*
G75*
G02*
X239425000Y-95900040I200000J0D01*
G01*
G37*
G36*
G01*
X239425000Y-92600040D02*
X240625000Y-92600040D01*
G75*
G02*
X240825000Y-92800040I0J-200000D01*
G01*
X240825000Y-93700040D01*
G75*
G02*
X240625000Y-93900040I-200000J0D01*
G01*
X239425000Y-93900040D01*
G75*
G02*
X239225000Y-93700040I0J200000D01*
G01*
X239225000Y-92800040D01*
G75*
G02*
X239425000Y-92600040I200000J0D01*
G01*
G37*
G36*
G01*
X132250000Y-95850040D02*
X133450000Y-95850040D01*
G75*
G02*
X133650000Y-96050040I0J-200000D01*
G01*
X133650000Y-96950040D01*
G75*
G02*
X133450000Y-97150040I-200000J0D01*
G01*
X132250000Y-97150040D01*
G75*
G02*
X132050000Y-96950040I0J200000D01*
G01*
X132050000Y-96050040D01*
G75*
G02*
X132250000Y-95850040I200000J0D01*
G01*
G37*
G36*
G01*
X132250000Y-92550040D02*
X133450000Y-92550040D01*
G75*
G02*
X133650000Y-92750040I0J-200000D01*
G01*
X133650000Y-93650040D01*
G75*
G02*
X133450000Y-93850040I-200000J0D01*
G01*
X132250000Y-93850040D01*
G75*
G02*
X132050000Y-93650040I0J200000D01*
G01*
X132050000Y-92750040D01*
G75*
G02*
X132250000Y-92550040I200000J0D01*
G01*
G37*
G36*
G01*
X101300040Y-95850040D02*
X102500040Y-95850040D01*
G75*
G02*
X102700040Y-96050040I0J-200000D01*
G01*
X102700040Y-96950040D01*
G75*
G02*
X102500040Y-97150040I-200000J0D01*
G01*
X101300040Y-97150040D01*
G75*
G02*
X101100040Y-96950040I0J200000D01*
G01*
X101100040Y-96050040D01*
G75*
G02*
X101300040Y-95850040I200000J0D01*
G01*
G37*
G36*
G01*
X101300040Y-92550040D02*
X102500040Y-92550040D01*
G75*
G02*
X102700040Y-92750040I0J-200000D01*
G01*
X102700040Y-93650040D01*
G75*
G02*
X102500040Y-93850040I-200000J0D01*
G01*
X101300040Y-93850040D01*
G75*
G02*
X101100040Y-93650040I0J200000D01*
G01*
X101100040Y-92750040D01*
G75*
G02*
X101300040Y-92550040I200000J0D01*
G01*
G37*
G36*
G01*
X57650000Y-107350040D02*
X58850000Y-107350040D01*
G75*
G02*
X59050000Y-107550040I0J-200000D01*
G01*
X59050000Y-108450040D01*
G75*
G02*
X58850000Y-108650040I-200000J0D01*
G01*
X57650000Y-108650040D01*
G75*
G02*
X57450000Y-108450040I0J200000D01*
G01*
X57450000Y-107550040D01*
G75*
G02*
X57650000Y-107350040I200000J0D01*
G01*
G37*
G36*
G01*
X57650000Y-110650040D02*
X58850000Y-110650040D01*
G75*
G02*
X59050000Y-110850040I0J-200000D01*
G01*
X59050000Y-111750040D01*
G75*
G02*
X58850000Y-111950040I-200000J0D01*
G01*
X57650000Y-111950040D01*
G75*
G02*
X57450000Y-111750040I0J200000D01*
G01*
X57450000Y-110850040D01*
G75*
G02*
X57650000Y-110650040I200000J0D01*
G01*
G37*
G36*
G01*
X172600040Y-34200400D02*
X171400040Y-34200400D01*
G75*
G02*
X171200040Y-34000400I0J200000D01*
G01*
X171200040Y-33100400D01*
G75*
G02*
X171400040Y-32900400I200000J0D01*
G01*
X172600040Y-32900400D01*
G75*
G02*
X172800040Y-33100400I0J-200000D01*
G01*
X172800040Y-34000400D01*
G75*
G02*
X172600040Y-34200400I-200000J0D01*
G01*
G37*
G36*
G01*
X172600040Y-37500400D02*
X171400040Y-37500400D01*
G75*
G02*
X171200040Y-37300400I0J200000D01*
G01*
X171200040Y-36400400D01*
G75*
G02*
X171400040Y-36200400I200000J0D01*
G01*
X172600040Y-36200400D01*
G75*
G02*
X172800040Y-36400400I0J-200000D01*
G01*
X172800040Y-37300400D01*
G75*
G02*
X172600040Y-37500400I-200000J0D01*
G01*
G37*
G36*
G01*
X302300040Y-34200400D02*
X301100040Y-34200400D01*
G75*
G02*
X300900040Y-34000400I0J200000D01*
G01*
X300900040Y-33100400D01*
G75*
G02*
X301100040Y-32900400I200000J0D01*
G01*
X302300040Y-32900400D01*
G75*
G02*
X302500040Y-33100400I0J-200000D01*
G01*
X302500040Y-34000400D01*
G75*
G02*
X302300040Y-34200400I-200000J0D01*
G01*
G37*
G36*
G01*
X302300040Y-37500400D02*
X301100040Y-37500400D01*
G75*
G02*
X300900040Y-37300400I0J200000D01*
G01*
X300900040Y-36400400D01*
G75*
G02*
X301100040Y-36200400I200000J0D01*
G01*
X302300040Y-36200400D01*
G75*
G02*
X302500040Y-36400400I0J-200000D01*
G01*
X302500040Y-37300400D01*
G75*
G02*
X302300040Y-37500400I-200000J0D01*
G01*
G37*
G36*
G01*
X267900000Y-37500000D02*
X266700000Y-37500000D01*
G75*
G02*
X266500000Y-37300000I0J200000D01*
G01*
X266500000Y-36400000D01*
G75*
G02*
X266700000Y-36200000I200000J0D01*
G01*
X267900000Y-36200000D01*
G75*
G02*
X268100000Y-36400000I0J-200000D01*
G01*
X268100000Y-37300000D01*
G75*
G02*
X267900000Y-37500000I-200000J0D01*
G01*
G37*
G36*
G01*
X267900000Y-34200000D02*
X266700000Y-34200000D01*
G75*
G02*
X266500000Y-34000000I0J200000D01*
G01*
X266500000Y-33100000D01*
G75*
G02*
X266700000Y-32900000I200000J0D01*
G01*
X267900000Y-32900000D01*
G75*
G02*
X268100000Y-33100000I0J-200000D01*
G01*
X268100000Y-34000000D01*
G75*
G02*
X267900000Y-34200000I-200000J0D01*
G01*
G37*
G36*
G01*
X249300000Y-36600000D02*
X248100000Y-36600000D01*
G75*
G02*
X247900000Y-36400000I0J200000D01*
G01*
X247900000Y-35500000D01*
G75*
G02*
X248100000Y-35300000I200000J0D01*
G01*
X249300000Y-35300000D01*
G75*
G02*
X249500000Y-35500000I0J-200000D01*
G01*
X249500000Y-36400000D01*
G75*
G02*
X249300000Y-36600000I-200000J0D01*
G01*
G37*
G36*
G01*
X249300000Y-33300000D02*
X248100000Y-33300000D01*
G75*
G02*
X247900000Y-33100000I0J200000D01*
G01*
X247900000Y-32200000D01*
G75*
G02*
X248100000Y-32000000I200000J0D01*
G01*
X249300000Y-32000000D01*
G75*
G02*
X249500000Y-32200000I0J-200000D01*
G01*
X249500000Y-33100000D01*
G75*
G02*
X249300000Y-33300000I-200000J0D01*
G01*
G37*
G36*
G01*
X154050040Y-36550400D02*
X152850040Y-36550400D01*
G75*
G02*
X152650040Y-36350400I0J200000D01*
G01*
X152650040Y-35450400D01*
G75*
G02*
X152850040Y-35250400I200000J0D01*
G01*
X154050040Y-35250400D01*
G75*
G02*
X154250040Y-35450400I0J-200000D01*
G01*
X154250040Y-36350400D01*
G75*
G02*
X154050040Y-36550400I-200000J0D01*
G01*
G37*
G36*
G01*
X154050040Y-33250400D02*
X152850040Y-33250400D01*
G75*
G02*
X152650040Y-33050400I0J200000D01*
G01*
X152650040Y-32150400D01*
G75*
G02*
X152850040Y-31950400I200000J0D01*
G01*
X154050040Y-31950400D01*
G75*
G02*
X154250040Y-32150400I0J-200000D01*
G01*
X154250040Y-33050400D01*
G75*
G02*
X154050040Y-33250400I-200000J0D01*
G01*
G37*
G36*
G01*
X115600000Y-37500000D02*
X114400000Y-37500000D01*
G75*
G02*
X114200000Y-37300000I0J200000D01*
G01*
X114200000Y-36400000D01*
G75*
G02*
X114400000Y-36200000I200000J0D01*
G01*
X115600000Y-36200000D01*
G75*
G02*
X115800000Y-36400000I0J-200000D01*
G01*
X115800000Y-37300000D01*
G75*
G02*
X115600000Y-37500000I-200000J0D01*
G01*
G37*
G36*
G01*
X115600000Y-34200000D02*
X114400000Y-34200000D01*
G75*
G02*
X114200000Y-34000000I0J200000D01*
G01*
X114200000Y-33100000D01*
G75*
G02*
X114400000Y-32900000I200000J0D01*
G01*
X115600000Y-32900000D01*
G75*
G02*
X115800000Y-33100000I0J-200000D01*
G01*
X115800000Y-34000000D01*
G75*
G02*
X115600000Y-34200000I-200000J0D01*
G01*
G37*
G36*
G01*
X63100000Y-36600000D02*
X61900000Y-36600000D01*
G75*
G02*
X61700000Y-36400000I0J200000D01*
G01*
X61700000Y-35500000D01*
G75*
G02*
X61900000Y-35300000I200000J0D01*
G01*
X63100000Y-35300000D01*
G75*
G02*
X63300000Y-35500000I0J-200000D01*
G01*
X63300000Y-36400000D01*
G75*
G02*
X63100000Y-36600000I-200000J0D01*
G01*
G37*
G36*
G01*
X63100000Y-33300000D02*
X61900000Y-33300000D01*
G75*
G02*
X61700000Y-33100000I0J200000D01*
G01*
X61700000Y-32200000D01*
G75*
G02*
X61900000Y-32000000I200000J0D01*
G01*
X63100000Y-32000000D01*
G75*
G02*
X63300000Y-32200000I0J-200000D01*
G01*
X63300000Y-33100000D01*
G75*
G02*
X63100000Y-33300000I-200000J0D01*
G01*
G37*
G36*
G01*
X68650000Y-42150040D02*
X69850000Y-42150040D01*
G75*
G02*
X70050000Y-42350040I0J-200000D01*
G01*
X70050000Y-43250040D01*
G75*
G02*
X69850000Y-43450040I-200000J0D01*
G01*
X68650000Y-43450040D01*
G75*
G02*
X68450000Y-43250040I0J200000D01*
G01*
X68450000Y-42350040D01*
G75*
G02*
X68650000Y-42150040I200000J0D01*
G01*
G37*
G36*
G01*
X68650000Y-45450040D02*
X69850000Y-45450040D01*
G75*
G02*
X70050000Y-45650040I0J-200000D01*
G01*
X70050000Y-46550040D01*
G75*
G02*
X69850000Y-46750040I-200000J0D01*
G01*
X68650000Y-46750040D01*
G75*
G02*
X68450000Y-46550040I0J200000D01*
G01*
X68450000Y-45650040D01*
G75*
G02*
X68650000Y-45450040I200000J0D01*
G01*
G37*
G36*
G01*
X182850000Y-46250040D02*
X184050000Y-46250040D01*
G75*
G02*
X184250000Y-46450040I0J-200000D01*
G01*
X184250000Y-47350040D01*
G75*
G02*
X184050000Y-47550040I-200000J0D01*
G01*
X182850000Y-47550040D01*
G75*
G02*
X182650000Y-47350040I0J200000D01*
G01*
X182650000Y-46450040D01*
G75*
G02*
X182850000Y-46250040I200000J0D01*
G01*
G37*
G36*
G01*
X182850000Y-42950040D02*
X184050000Y-42950040D01*
G75*
G02*
X184250000Y-43150040I0J-200000D01*
G01*
X184250000Y-44050040D01*
G75*
G02*
X184050000Y-44250040I-200000J0D01*
G01*
X182850000Y-44250040D01*
G75*
G02*
X182650000Y-44050040I0J200000D01*
G01*
X182650000Y-43150040D01*
G75*
G02*
X182850000Y-42950040I200000J0D01*
G01*
G37*
G36*
G01*
X281050000Y-43850040D02*
X281050000Y-42650040D01*
G75*
G02*
X281250000Y-42450040I200000J0D01*
G01*
X282150000Y-42450040D01*
G75*
G02*
X282350000Y-42650040I0J-200000D01*
G01*
X282350000Y-43850040D01*
G75*
G02*
X282150000Y-44050040I-200000J0D01*
G01*
X281250000Y-44050040D01*
G75*
G02*
X281050000Y-43850040I0J200000D01*
G01*
G37*
G36*
G01*
X277750000Y-43850040D02*
X277750000Y-42650040D01*
G75*
G02*
X277950000Y-42450040I200000J0D01*
G01*
X278850000Y-42450040D01*
G75*
G02*
X279050000Y-42650040I0J-200000D01*
G01*
X279050000Y-43850040D01*
G75*
G02*
X278850000Y-44050040I-200000J0D01*
G01*
X277950000Y-44050040D01*
G75*
G02*
X277750000Y-43850040I0J200000D01*
G01*
G37*
G36*
G01*
X259050000Y-45450040D02*
X260250000Y-45450040D01*
G75*
G02*
X260450000Y-45650040I0J-200000D01*
G01*
X260450000Y-46550040D01*
G75*
G02*
X260250000Y-46750040I-200000J0D01*
G01*
X259050000Y-46750040D01*
G75*
G02*
X258850000Y-46550040I0J200000D01*
G01*
X258850000Y-45650040D01*
G75*
G02*
X259050000Y-45450040I200000J0D01*
G01*
G37*
G36*
G01*
X259050000Y-42150040D02*
X260250000Y-42150040D01*
G75*
G02*
X260450000Y-42350040I0J-200000D01*
G01*
X260450000Y-43250040D01*
G75*
G02*
X260250000Y-43450040I-200000J0D01*
G01*
X259050000Y-43450040D01*
G75*
G02*
X258850000Y-43250040I0J200000D01*
G01*
X258850000Y-42350040D01*
G75*
G02*
X259050000Y-42150040I200000J0D01*
G01*
G37*
G36*
G01*
X163650000Y-42950040D02*
X164850000Y-42950040D01*
G75*
G02*
X165050000Y-43150040I0J-200000D01*
G01*
X165050000Y-44050040D01*
G75*
G02*
X164850000Y-44250040I-200000J0D01*
G01*
X163650000Y-44250040D01*
G75*
G02*
X163450000Y-44050040I0J200000D01*
G01*
X163450000Y-43150040D01*
G75*
G02*
X163650000Y-42950040I200000J0D01*
G01*
G37*
G36*
G01*
X163650000Y-46250040D02*
X164850000Y-46250040D01*
G75*
G02*
X165050000Y-46450040I0J-200000D01*
G01*
X165050000Y-47350040D01*
G75*
G02*
X164850000Y-47550040I-200000J0D01*
G01*
X163650000Y-47550040D01*
G75*
G02*
X163450000Y-47350040I0J200000D01*
G01*
X163450000Y-46450040D01*
G75*
G02*
X163650000Y-46250040I200000J0D01*
G01*
G37*
G36*
G01*
X125650000Y-42950040D02*
X126850000Y-42950040D01*
G75*
G02*
X127050000Y-43150040I0J-200000D01*
G01*
X127050000Y-44050040D01*
G75*
G02*
X126850000Y-44250040I-200000J0D01*
G01*
X125650000Y-44250040D01*
G75*
G02*
X125450000Y-44050040I0J200000D01*
G01*
X125450000Y-43150040D01*
G75*
G02*
X125650000Y-42950040I200000J0D01*
G01*
G37*
G36*
G01*
X125650000Y-46250040D02*
X126850000Y-46250040D01*
G75*
G02*
X127050000Y-46450040I0J-200000D01*
G01*
X127050000Y-47350040D01*
G75*
G02*
X126850000Y-47550040I-200000J0D01*
G01*
X125650000Y-47550040D01*
G75*
G02*
X125450000Y-47350040I0J200000D01*
G01*
X125450000Y-46450040D01*
G75*
G02*
X125650000Y-46250040I200000J0D01*
G01*
G37*
G36*
G01*
X68500000Y-62150040D02*
X69700000Y-62150040D01*
G75*
G02*
X69900000Y-62350040I0J-200000D01*
G01*
X69900000Y-63250040D01*
G75*
G02*
X69700000Y-63450040I-200000J0D01*
G01*
X68500000Y-63450040D01*
G75*
G02*
X68300000Y-63250040I0J200000D01*
G01*
X68300000Y-62350040D01*
G75*
G02*
X68500000Y-62150040I200000J0D01*
G01*
G37*
G36*
G01*
X68500000Y-65450040D02*
X69700000Y-65450040D01*
G75*
G02*
X69900000Y-65650040I0J-200000D01*
G01*
X69900000Y-66550040D01*
G75*
G02*
X69700000Y-66750040I-200000J0D01*
G01*
X68500000Y-66750040D01*
G75*
G02*
X68300000Y-66550040I0J200000D01*
G01*
X68300000Y-65650040D01*
G75*
G02*
X68500000Y-65450040I200000J0D01*
G01*
G37*
G36*
G01*
X182850000Y-64650040D02*
X184050000Y-64650040D01*
G75*
G02*
X184250000Y-64850040I0J-200000D01*
G01*
X184250000Y-65750040D01*
G75*
G02*
X184050000Y-65950040I-200000J0D01*
G01*
X182850000Y-65950040D01*
G75*
G02*
X182650000Y-65750040I0J200000D01*
G01*
X182650000Y-64850040D01*
G75*
G02*
X182850000Y-64650040I200000J0D01*
G01*
G37*
G36*
G01*
X182850000Y-61350040D02*
X184050000Y-61350040D01*
G75*
G02*
X184250000Y-61550040I0J-200000D01*
G01*
X184250000Y-62450040D01*
G75*
G02*
X184050000Y-62650040I-200000J0D01*
G01*
X182850000Y-62650040D01*
G75*
G02*
X182650000Y-62450040I0J200000D01*
G01*
X182650000Y-61550040D01*
G75*
G02*
X182850000Y-61350040I200000J0D01*
G01*
G37*
G36*
G01*
X259000000Y-65500040D02*
X260200000Y-65500040D01*
G75*
G02*
X260400000Y-65700040I0J-200000D01*
G01*
X260400000Y-66600040D01*
G75*
G02*
X260200000Y-66800040I-200000J0D01*
G01*
X259000000Y-66800040D01*
G75*
G02*
X258800000Y-66600040I0J200000D01*
G01*
X258800000Y-65700040D01*
G75*
G02*
X259000000Y-65500040I200000J0D01*
G01*
G37*
G36*
G01*
X259000000Y-62200040D02*
X260200000Y-62200040D01*
G75*
G02*
X260400000Y-62400040I0J-200000D01*
G01*
X260400000Y-63300040D01*
G75*
G02*
X260200000Y-63500040I-200000J0D01*
G01*
X259000000Y-63500040D01*
G75*
G02*
X258800000Y-63300040I0J200000D01*
G01*
X258800000Y-62400040D01*
G75*
G02*
X259000000Y-62200040I200000J0D01*
G01*
G37*
G36*
G01*
X163750000Y-64600040D02*
X164950000Y-64600040D01*
G75*
G02*
X165150000Y-64800040I0J-200000D01*
G01*
X165150000Y-65700040D01*
G75*
G02*
X164950000Y-65900040I-200000J0D01*
G01*
X163750000Y-65900040D01*
G75*
G02*
X163550000Y-65700040I0J200000D01*
G01*
X163550000Y-64800040D01*
G75*
G02*
X163750000Y-64600040I200000J0D01*
G01*
G37*
G36*
G01*
X163750000Y-61300040D02*
X164950000Y-61300040D01*
G75*
G02*
X165150000Y-61500040I0J-200000D01*
G01*
X165150000Y-62400040D01*
G75*
G02*
X164950000Y-62600040I-200000J0D01*
G01*
X163750000Y-62600040D01*
G75*
G02*
X163550000Y-62400040I0J200000D01*
G01*
X163550000Y-61500040D01*
G75*
G02*
X163750000Y-61300040I200000J0D01*
G01*
G37*
G36*
G01*
X125600000Y-61350040D02*
X126800000Y-61350040D01*
G75*
G02*
X127000000Y-61550040I0J-200000D01*
G01*
X127000000Y-62450040D01*
G75*
G02*
X126800000Y-62650040I-200000J0D01*
G01*
X125600000Y-62650040D01*
G75*
G02*
X125400000Y-62450040I0J200000D01*
G01*
X125400000Y-61550040D01*
G75*
G02*
X125600000Y-61350040I200000J0D01*
G01*
G37*
G36*
G01*
X125600000Y-64650040D02*
X126800000Y-64650040D01*
G75*
G02*
X127000000Y-64850040I0J-200000D01*
G01*
X127000000Y-65750040D01*
G75*
G02*
X126800000Y-65950040I-200000J0D01*
G01*
X125600000Y-65950040D01*
G75*
G02*
X125400000Y-65750040I0J200000D01*
G01*
X125400000Y-64850040D01*
G75*
G02*
X125600000Y-64650040I200000J0D01*
G01*
G37*
G36*
G01*
X61450000Y-95750040D02*
X61450000Y-96950040D01*
G75*
G02*
X61250000Y-97150040I-200000J0D01*
G01*
X60350000Y-97150040D01*
G75*
G02*
X60150000Y-96950040I0J200000D01*
G01*
X60150000Y-95750040D01*
G75*
G02*
X60350000Y-95550040I200000J0D01*
G01*
X61250000Y-95550040D01*
G75*
G02*
X61450000Y-95750040I0J-200000D01*
G01*
G37*
G36*
G01*
X58150000Y-95750040D02*
X58150000Y-96950040D01*
G75*
G02*
X57950000Y-97150040I-200000J0D01*
G01*
X57050000Y-97150040D01*
G75*
G02*
X56850000Y-96950040I0J200000D01*
G01*
X56850000Y-95750040D01*
G75*
G02*
X57050000Y-95550040I200000J0D01*
G01*
X57950000Y-95550040D01*
G75*
G02*
X58150000Y-95750040I0J-200000D01*
G01*
G37*
G36*
G01*
X295850000Y-94700000D02*
X294650000Y-94700000D01*
G75*
G02*
X294450000Y-94500000I0J200000D01*
G01*
X294450000Y-93600000D01*
G75*
G02*
X294650000Y-93400000I200000J0D01*
G01*
X295850000Y-93400000D01*
G75*
G02*
X296050000Y-93600000I0J-200000D01*
G01*
X296050000Y-94500000D01*
G75*
G02*
X295850000Y-94700000I-200000J0D01*
G01*
G37*
G36*
G01*
X295850000Y-91400000D02*
X294650000Y-91400000D01*
G75*
G02*
X294450000Y-91200000I0J200000D01*
G01*
X294450000Y-90300000D01*
G75*
G02*
X294650000Y-90100000I200000J0D01*
G01*
X295850000Y-90100000D01*
G75*
G02*
X296050000Y-90300000I0J-200000D01*
G01*
X296050000Y-91200000D01*
G75*
G02*
X295850000Y-91400000I-200000J0D01*
G01*
G37*
G36*
G01*
X263230040Y-91750040D02*
X264430040Y-91750040D01*
G75*
G02*
X264630040Y-91950040I0J-200000D01*
G01*
X264630040Y-92850040D01*
G75*
G02*
X264430040Y-93050040I-200000J0D01*
G01*
X263230040Y-93050040D01*
G75*
G02*
X263030040Y-92850040I0J200000D01*
G01*
X263030040Y-91950040D01*
G75*
G02*
X263230040Y-91750040I200000J0D01*
G01*
G37*
G36*
G01*
X263230040Y-95050040D02*
X264430040Y-95050040D01*
G75*
G02*
X264630040Y-95250040I0J-200000D01*
G01*
X264630040Y-96150040D01*
G75*
G02*
X264430040Y-96350040I-200000J0D01*
G01*
X263230040Y-96350040D01*
G75*
G02*
X263030040Y-96150040I0J200000D01*
G01*
X263030040Y-95250040D01*
G75*
G02*
X263230040Y-95050040I200000J0D01*
G01*
G37*
G36*
G01*
X267900000Y-94700000D02*
X266700000Y-94700000D01*
G75*
G02*
X266500000Y-94500000I0J200000D01*
G01*
X266500000Y-93600000D01*
G75*
G02*
X266700000Y-93400000I200000J0D01*
G01*
X267900000Y-93400000D01*
G75*
G02*
X268100000Y-93600000I0J-200000D01*
G01*
X268100000Y-94500000D01*
G75*
G02*
X267900000Y-94700000I-200000J0D01*
G01*
G37*
G36*
G01*
X267900000Y-91400000D02*
X266700000Y-91400000D01*
G75*
G02*
X266500000Y-91200000I0J200000D01*
G01*
X266500000Y-90300000D01*
G75*
G02*
X266700000Y-90100000I200000J0D01*
G01*
X267900000Y-90100000D01*
G75*
G02*
X268100000Y-90300000I0J-200000D01*
G01*
X268100000Y-91200000D01*
G75*
G02*
X267900000Y-91400000I-200000J0D01*
G01*
G37*
G36*
G01*
X248450000Y-92200040D02*
X247250000Y-92200040D01*
G75*
G02*
X247050000Y-92000040I0J200000D01*
G01*
X247050000Y-91100040D01*
G75*
G02*
X247250000Y-90900040I200000J0D01*
G01*
X248450000Y-90900040D01*
G75*
G02*
X248650000Y-91100040I0J-200000D01*
G01*
X248650000Y-92000040D01*
G75*
G02*
X248450000Y-92200040I-200000J0D01*
G01*
G37*
G36*
G01*
X248450000Y-95500040D02*
X247250000Y-95500040D01*
G75*
G02*
X247050000Y-95300040I0J200000D01*
G01*
X247050000Y-94400040D01*
G75*
G02*
X247250000Y-94200040I200000J0D01*
G01*
X248450000Y-94200040D01*
G75*
G02*
X248650000Y-94400040I0J-200000D01*
G01*
X248650000Y-95300040D01*
G75*
G02*
X248450000Y-95500040I-200000J0D01*
G01*
G37*
G36*
G01*
X153600000Y-94700400D02*
X152400000Y-94700400D01*
G75*
G02*
X152200000Y-94500400I0J200000D01*
G01*
X152200000Y-93600400D01*
G75*
G02*
X152400000Y-93400400I200000J0D01*
G01*
X153600000Y-93400400D01*
G75*
G02*
X153800000Y-93600400I0J-200000D01*
G01*
X153800000Y-94500400D01*
G75*
G02*
X153600000Y-94700400I-200000J0D01*
G01*
G37*
G36*
G01*
X153600000Y-91400400D02*
X152400000Y-91400400D01*
G75*
G02*
X152200000Y-91200400I0J200000D01*
G01*
X152200000Y-90300400D01*
G75*
G02*
X152400000Y-90100400I200000J0D01*
G01*
X153600000Y-90100400D01*
G75*
G02*
X153800000Y-90300400I0J-200000D01*
G01*
X153800000Y-91200400D01*
G75*
G02*
X153600000Y-91400400I-200000J0D01*
G01*
G37*
G36*
G01*
X206250000Y-95850040D02*
X207450000Y-95850040D01*
G75*
G02*
X207650000Y-96050040I0J-200000D01*
G01*
X207650000Y-96950040D01*
G75*
G02*
X207450000Y-97150040I-200000J0D01*
G01*
X206250000Y-97150040D01*
G75*
G02*
X206050000Y-96950040I0J200000D01*
G01*
X206050000Y-96050040D01*
G75*
G02*
X206250000Y-95850040I200000J0D01*
G01*
G37*
G36*
G01*
X206250000Y-92550040D02*
X207450000Y-92550040D01*
G75*
G02*
X207650000Y-92750040I0J-200000D01*
G01*
X207650000Y-93650040D01*
G75*
G02*
X207450000Y-93850040I-200000J0D01*
G01*
X206250000Y-93850040D01*
G75*
G02*
X206050000Y-93650040I0J200000D01*
G01*
X206050000Y-92750040D01*
G75*
G02*
X206250000Y-92550040I200000J0D01*
G01*
G37*
G36*
G01*
X111650000Y-94750040D02*
X110450000Y-94750040D01*
G75*
G02*
X110250000Y-94550040I0J200000D01*
G01*
X110250000Y-93650040D01*
G75*
G02*
X110450000Y-93450040I200000J0D01*
G01*
X111650000Y-93450040D01*
G75*
G02*
X111850000Y-93650040I0J-200000D01*
G01*
X111850000Y-94550040D01*
G75*
G02*
X111650000Y-94750040I-200000J0D01*
G01*
G37*
G36*
G01*
X111650000Y-91450040D02*
X110450000Y-91450040D01*
G75*
G02*
X110250000Y-91250040I0J200000D01*
G01*
X110250000Y-90350040D01*
G75*
G02*
X110450000Y-90150040I200000J0D01*
G01*
X111650000Y-90150040D01*
G75*
G02*
X111850000Y-90350040I0J-200000D01*
G01*
X111850000Y-91250040D01*
G75*
G02*
X111650000Y-91450040I-200000J0D01*
G01*
G37*
G36*
G01*
X85650000Y-91750040D02*
X86850000Y-91750040D01*
G75*
G02*
X87050000Y-91950040I0J-200000D01*
G01*
X87050000Y-92850040D01*
G75*
G02*
X86850000Y-93050040I-200000J0D01*
G01*
X85650000Y-93050040D01*
G75*
G02*
X85450000Y-92850040I0J200000D01*
G01*
X85450000Y-91950040D01*
G75*
G02*
X85650000Y-91750040I200000J0D01*
G01*
G37*
G36*
G01*
X85650000Y-95050040D02*
X86850000Y-95050040D01*
G75*
G02*
X87050000Y-95250040I0J-200000D01*
G01*
X87050000Y-96150040D01*
G75*
G02*
X86850000Y-96350040I-200000J0D01*
G01*
X85650000Y-96350040D01*
G75*
G02*
X85450000Y-96150040I0J200000D01*
G01*
X85450000Y-95250040D01*
G75*
G02*
X85650000Y-95050040I200000J0D01*
G01*
G37*
D13*
X196240040Y-64795400D03*
D14*
X193700040Y-69875400D03*
D13*
X189890040Y-67335400D03*
D15*
X188620040Y-69875400D03*
X198780040Y-69875400D03*
G36*
G01*
X185140040Y-68585400D02*
X185140040Y-66085400D01*
G75*
G02*
X185340040Y-65885400I200000J0D01*
G01*
X187890040Y-65885400D01*
G75*
G02*
X188090040Y-66085400I0J-200000D01*
G01*
X188090040Y-68585400D01*
G75*
G02*
X187890040Y-68785400I-200000J0D01*
G01*
X185340040Y-68785400D01*
G75*
G02*
X185140040Y-68585400I0J200000D01*
G01*
G37*
G36*
G01*
X198067040Y-66045400D02*
X198067040Y-63545400D01*
G75*
G02*
X198267040Y-63345400I200000J0D01*
G01*
X200817040Y-63345400D01*
G75*
G02*
X201017040Y-63545400I0J-200000D01*
G01*
X201017040Y-66045400D01*
G75*
G02*
X200817040Y-66245400I-200000J0D01*
G01*
X198267040Y-66245400D01*
G75*
G02*
X198067040Y-66045400I0J200000D01*
G01*
G37*
D13*
X202907540Y-105435400D03*
D14*
X207987540Y-107975400D03*
D13*
X205447540Y-111785400D03*
D15*
X207987540Y-113055400D03*
X207987540Y-102895400D03*
G36*
G01*
X206697540Y-116535400D02*
X204197540Y-116535400D01*
G75*
G02*
X203997540Y-116335400I0J200000D01*
G01*
X203997540Y-113785400D01*
G75*
G02*
X204197540Y-113585400I200000J0D01*
G01*
X206697540Y-113585400D01*
G75*
G02*
X206897540Y-113785400I0J-200000D01*
G01*
X206897540Y-116335400D01*
G75*
G02*
X206697540Y-116535400I-200000J0D01*
G01*
G37*
G36*
G01*
X204157540Y-103608400D02*
X201657540Y-103608400D01*
G75*
G02*
X201457540Y-103408400I0J200000D01*
G01*
X201457540Y-100858400D01*
G75*
G02*
X201657540Y-100658400I200000J0D01*
G01*
X204157540Y-100658400D01*
G75*
G02*
X204357540Y-100858400I0J-200000D01*
G01*
X204357540Y-103408400D01*
G75*
G02*
X204157540Y-103608400I-200000J0D01*
G01*
G37*
D13*
X243865040Y-102895400D03*
D14*
X241325040Y-107975400D03*
D13*
X237515040Y-105435400D03*
D15*
X236245040Y-107975400D03*
X246405040Y-107975400D03*
G36*
G01*
X232765040Y-106685400D02*
X232765040Y-104185400D01*
G75*
G02*
X232965040Y-103985400I200000J0D01*
G01*
X235515040Y-103985400D01*
G75*
G02*
X235715040Y-104185400I0J-200000D01*
G01*
X235715040Y-106685400D01*
G75*
G02*
X235515040Y-106885400I-200000J0D01*
G01*
X232965040Y-106885400D01*
G75*
G02*
X232765040Y-106685400I0J200000D01*
G01*
G37*
G36*
G01*
X245692040Y-104145400D02*
X245692040Y-101645400D01*
G75*
G02*
X245892040Y-101445400I200000J0D01*
G01*
X248442040Y-101445400D01*
G75*
G02*
X248642040Y-101645400I0J-200000D01*
G01*
X248642040Y-104145400D01*
G75*
G02*
X248442040Y-104345400I-200000J0D01*
G01*
X245892040Y-104345400D01*
G75*
G02*
X245692040Y-104145400I0J200000D01*
G01*
G37*
G36*
G01*
X224850000Y-95050040D02*
X226050000Y-95050040D01*
G75*
G02*
X226250000Y-95250040I0J-200000D01*
G01*
X226250000Y-96150040D01*
G75*
G02*
X226050000Y-96350040I-200000J0D01*
G01*
X224850000Y-96350040D01*
G75*
G02*
X224650000Y-96150040I0J200000D01*
G01*
X224650000Y-95250040D01*
G75*
G02*
X224850000Y-95050040I200000J0D01*
G01*
G37*
G36*
G01*
X224850000Y-91750040D02*
X226050000Y-91750040D01*
G75*
G02*
X226250000Y-91950040I0J-200000D01*
G01*
X226250000Y-92850040D01*
G75*
G02*
X226050000Y-93050040I-200000J0D01*
G01*
X224850000Y-93050040D01*
G75*
G02*
X224650000Y-92850040I0J200000D01*
G01*
X224650000Y-91950040D01*
G75*
G02*
X224850000Y-91750040I200000J0D01*
G01*
G37*
D13*
X260533790Y-102895400D03*
D14*
X257993790Y-107975400D03*
D13*
X254183790Y-105435400D03*
D15*
X252913790Y-107975400D03*
X263073790Y-107975400D03*
G36*
G01*
X249433790Y-106685400D02*
X249433790Y-104185400D01*
G75*
G02*
X249633790Y-103985400I200000J0D01*
G01*
X252183790Y-103985400D01*
G75*
G02*
X252383790Y-104185400I0J-200000D01*
G01*
X252383790Y-106685400D01*
G75*
G02*
X252183790Y-106885400I-200000J0D01*
G01*
X249633790Y-106885400D01*
G75*
G02*
X249433790Y-106685400I0J200000D01*
G01*
G37*
G36*
G01*
X262360790Y-104145400D02*
X262360790Y-101645400D01*
G75*
G02*
X262560790Y-101445400I200000J0D01*
G01*
X265110790Y-101445400D01*
G75*
G02*
X265310790Y-101645400I0J-200000D01*
G01*
X265310790Y-104145400D01*
G75*
G02*
X265110790Y-104345400I-200000J0D01*
G01*
X262560790Y-104345400D01*
G75*
G02*
X262360790Y-104145400I0J200000D01*
G01*
G37*
G36*
G01*
X93200040Y-77600400D02*
X93200040Y-75900400D01*
G75*
G02*
X93400040Y-75700400I200000J0D01*
G01*
X95100040Y-75700400D01*
G75*
G02*
X95300040Y-75900400I0J-200000D01*
G01*
X95300040Y-77600400D01*
G75*
G02*
X95100040Y-77800400I-200000J0D01*
G01*
X93400040Y-77800400D01*
G75*
G02*
X93200040Y-77600400I0J200000D01*
G01*
G37*
D23*
X94250040Y-74210400D03*
G36*
G01*
X101250000Y-73150000D02*
X102950000Y-73150000D01*
G75*
G02*
X103150000Y-73350000I0J-200000D01*
G01*
X103150000Y-75050000D01*
G75*
G02*
X102950000Y-75250000I-200000J0D01*
G01*
X101250000Y-75250000D01*
G75*
G02*
X101050000Y-75050000I0J200000D01*
G01*
X101050000Y-73350000D01*
G75*
G02*
X101250000Y-73150000I200000J0D01*
G01*
G37*
X102100000Y-76740000D03*
X104640000Y-74200000D03*
X104640000Y-76740000D03*
X107180000Y-74200000D03*
X107180000Y-76740000D03*
D24*
X116220000Y-30250000D03*
X290000040Y-114850040D03*
X210450040Y-114500400D03*
X234250040Y-25300400D03*
X89050000Y-100550040D03*
X177150040Y-25300400D03*
X158050040Y-25300400D03*
X253250040Y-25300400D03*
X77650000Y-99700040D03*
X24650040Y-113300400D03*
X298450000Y-36850040D03*
X268250000Y-43250040D03*
X264100000Y-59000040D03*
X294450000Y-96350040D03*
X300800000Y-92400040D03*
X290900040Y-35300400D03*
X284100000Y-39400040D03*
X286850000Y-60800040D03*
X288950000Y-95750040D03*
X300800000Y-95300040D03*
D16*
X65112540Y-98450400D03*
X83250000Y-107975400D03*
X106450000Y-107975400D03*
X129406290Y-98450400D03*
X165125040Y-98450400D03*
X203225040Y-98450400D03*
X246087540Y-98450400D03*
X117500040Y-60350400D03*
X212750040Y-60350400D03*
D13*
X148615040Y-102895400D03*
D14*
X146075040Y-107975400D03*
D13*
X142265040Y-105435400D03*
D15*
X140995040Y-107975400D03*
X151155040Y-107975400D03*
G36*
G01*
X137515040Y-106685400D02*
X137515040Y-104185400D01*
G75*
G02*
X137715040Y-103985400I200000J0D01*
G01*
X140265040Y-103985400D01*
G75*
G02*
X140465040Y-104185400I0J-200000D01*
G01*
X140465040Y-106685400D01*
G75*
G02*
X140265040Y-106885400I-200000J0D01*
G01*
X137715040Y-106885400D01*
G75*
G02*
X137515040Y-106685400I0J200000D01*
G01*
G37*
G36*
G01*
X150442040Y-104145400D02*
X150442040Y-101645400D01*
G75*
G02*
X150642040Y-101445400I200000J0D01*
G01*
X153192040Y-101445400D01*
G75*
G02*
X153392040Y-101645400I0J-200000D01*
G01*
X153392040Y-104145400D01*
G75*
G02*
X153192040Y-104345400I-200000J0D01*
G01*
X150642040Y-104345400D01*
G75*
G02*
X150442040Y-104145400I0J200000D01*
G01*
G37*
G36*
G01*
X182189290Y-111805400D02*
X182189290Y-114305400D01*
G75*
G02*
X181989290Y-114505400I-200000J0D01*
G01*
X179439290Y-114505400D01*
G75*
G02*
X179239290Y-114305400I0J200000D01*
G01*
X179239290Y-111805400D01*
G75*
G02*
X179439290Y-111605400I200000J0D01*
G01*
X181989290Y-111605400D01*
G75*
G02*
X182189290Y-111805400I0J-200000D01*
G01*
G37*
G36*
G01*
X195116290Y-109265400D02*
X195116290Y-111765400D01*
G75*
G02*
X194916290Y-111965400I-200000J0D01*
G01*
X192366290Y-111965400D01*
G75*
G02*
X192166290Y-111765400I0J200000D01*
G01*
X192166290Y-109265400D01*
G75*
G02*
X192366290Y-109065400I200000J0D01*
G01*
X194916290Y-109065400D01*
G75*
G02*
X195116290Y-109265400I0J-200000D01*
G01*
G37*
X181476290Y-107975400D03*
X191636290Y-107975400D03*
D13*
X190366290Y-110515400D03*
D14*
X186556290Y-107975400D03*
D13*
X184016290Y-113055400D03*
X167665040Y-102895400D03*
D14*
X165125040Y-107975400D03*
D13*
X161315040Y-105435400D03*
D15*
X160045040Y-107975400D03*
X170205040Y-107975400D03*
G36*
G01*
X156565040Y-106685400D02*
X156565040Y-104185400D01*
G75*
G02*
X156765040Y-103985400I200000J0D01*
G01*
X159315040Y-103985400D01*
G75*
G02*
X159515040Y-104185400I0J-200000D01*
G01*
X159515040Y-106685400D01*
G75*
G02*
X159315040Y-106885400I-200000J0D01*
G01*
X156765040Y-106885400D01*
G75*
G02*
X156565040Y-106685400I0J200000D01*
G01*
G37*
G36*
G01*
X169492040Y-104145400D02*
X169492040Y-101645400D01*
G75*
G02*
X169692040Y-101445400I200000J0D01*
G01*
X172242040Y-101445400D01*
G75*
G02*
X172442040Y-101645400I0J-200000D01*
G01*
X172442040Y-104145400D01*
G75*
G02*
X172242040Y-104345400I-200000J0D01*
G01*
X169692040Y-104345400D01*
G75*
G02*
X169492040Y-104145400I0J200000D01*
G01*
G37*
D22*
X177063040Y-114960400D03*
X153187040Y-114960400D03*
D14*
X177063040Y-99720400D03*
X153187040Y-99720400D03*
G36*
G01*
X61625040Y-72125400D02*
X62175040Y-72125400D01*
G75*
G02*
X62375040Y-72325400I0J-200000D01*
G01*
X62375040Y-73825400D01*
G75*
G02*
X62175040Y-74025400I-200000J0D01*
G01*
X61625040Y-74025400D01*
G75*
G02*
X61425040Y-73825400I0J200000D01*
G01*
X61425040Y-72325400D01*
G75*
G02*
X61625040Y-72125400I200000J0D01*
G01*
G37*
G36*
G01*
X62425040Y-72125400D02*
X62975040Y-72125400D01*
G75*
G02*
X63175040Y-72325400I0J-200000D01*
G01*
X63175040Y-73825400D01*
G75*
G02*
X62975040Y-74025400I-200000J0D01*
G01*
X62425040Y-74025400D01*
G75*
G02*
X62225040Y-73825400I0J200000D01*
G01*
X62225040Y-72325400D01*
G75*
G02*
X62425040Y-72125400I200000J0D01*
G01*
G37*
G36*
G01*
X63225040Y-72125400D02*
X63775040Y-72125400D01*
G75*
G02*
X63975040Y-72325400I0J-200000D01*
G01*
X63975040Y-73825400D01*
G75*
G02*
X63775040Y-74025400I-200000J0D01*
G01*
X63225040Y-74025400D01*
G75*
G02*
X63025040Y-73825400I0J200000D01*
G01*
X63025040Y-72325400D01*
G75*
G02*
X63225040Y-72125400I200000J0D01*
G01*
G37*
G36*
G01*
X64025040Y-72125400D02*
X64575040Y-72125400D01*
G75*
G02*
X64775040Y-72325400I0J-200000D01*
G01*
X64775040Y-73825400D01*
G75*
G02*
X64575040Y-74025400I-200000J0D01*
G01*
X64025040Y-74025400D01*
G75*
G02*
X63825040Y-73825400I0J200000D01*
G01*
X63825040Y-72325400D01*
G75*
G02*
X64025040Y-72125400I200000J0D01*
G01*
G37*
G36*
G01*
X64825040Y-72125400D02*
X65375040Y-72125400D01*
G75*
G02*
X65575040Y-72325400I0J-200000D01*
G01*
X65575040Y-73825400D01*
G75*
G02*
X65375040Y-74025400I-200000J0D01*
G01*
X64825040Y-74025400D01*
G75*
G02*
X64625040Y-73825400I0J200000D01*
G01*
X64625040Y-72325400D01*
G75*
G02*
X64825040Y-72125400I200000J0D01*
G01*
G37*
G36*
G01*
X65625040Y-72125400D02*
X66175040Y-72125400D01*
G75*
G02*
X66375040Y-72325400I0J-200000D01*
G01*
X66375040Y-73825400D01*
G75*
G02*
X66175040Y-74025400I-200000J0D01*
G01*
X65625040Y-74025400D01*
G75*
G02*
X65425040Y-73825400I0J200000D01*
G01*
X65425040Y-72325400D01*
G75*
G02*
X65625040Y-72125400I200000J0D01*
G01*
G37*
G36*
G01*
X66425040Y-72125400D02*
X66975040Y-72125400D01*
G75*
G02*
X67175040Y-72325400I0J-200000D01*
G01*
X67175040Y-73825400D01*
G75*
G02*
X66975040Y-74025400I-200000J0D01*
G01*
X66425040Y-74025400D01*
G75*
G02*
X66225040Y-73825400I0J200000D01*
G01*
X66225040Y-72325400D01*
G75*
G02*
X66425040Y-72125400I200000J0D01*
G01*
G37*
G36*
G01*
X67225040Y-72125400D02*
X67775040Y-72125400D01*
G75*
G02*
X67975040Y-72325400I0J-200000D01*
G01*
X67975040Y-73825400D01*
G75*
G02*
X67775040Y-74025400I-200000J0D01*
G01*
X67225040Y-74025400D01*
G75*
G02*
X67025040Y-73825400I0J200000D01*
G01*
X67025040Y-72325400D01*
G75*
G02*
X67225040Y-72125400I200000J0D01*
G01*
G37*
G36*
G01*
X68025040Y-72125400D02*
X68575040Y-72125400D01*
G75*
G02*
X68775040Y-72325400I0J-200000D01*
G01*
X68775040Y-73825400D01*
G75*
G02*
X68575040Y-74025400I-200000J0D01*
G01*
X68025040Y-74025400D01*
G75*
G02*
X67825040Y-73825400I0J200000D01*
G01*
X67825040Y-72325400D01*
G75*
G02*
X68025040Y-72125400I200000J0D01*
G01*
G37*
G36*
G01*
X68825040Y-72125400D02*
X69375040Y-72125400D01*
G75*
G02*
X69575040Y-72325400I0J-200000D01*
G01*
X69575040Y-73825400D01*
G75*
G02*
X69375040Y-74025400I-200000J0D01*
G01*
X68825040Y-74025400D01*
G75*
G02*
X68625040Y-73825400I0J200000D01*
G01*
X68625040Y-72325400D01*
G75*
G02*
X68825040Y-72125400I200000J0D01*
G01*
G37*
G36*
G01*
X69625040Y-72125400D02*
X70175040Y-72125400D01*
G75*
G02*
X70375040Y-72325400I0J-200000D01*
G01*
X70375040Y-73825400D01*
G75*
G02*
X70175040Y-74025400I-200000J0D01*
G01*
X69625040Y-74025400D01*
G75*
G02*
X69425040Y-73825400I0J200000D01*
G01*
X69425040Y-72325400D01*
G75*
G02*
X69625040Y-72125400I200000J0D01*
G01*
G37*
G36*
G01*
X72550040Y-74500400D02*
X72550040Y-75050400D01*
G75*
G02*
X72350040Y-75250400I-200000J0D01*
G01*
X70850040Y-75250400D01*
G75*
G02*
X70650040Y-75050400I0J200000D01*
G01*
X70650040Y-74500400D01*
G75*
G02*
X70850040Y-74300400I200000J0D01*
G01*
X72350040Y-74300400D01*
G75*
G02*
X72550040Y-74500400I0J-200000D01*
G01*
G37*
G36*
G01*
X72550040Y-75300400D02*
X72550040Y-75850400D01*
G75*
G02*
X72350040Y-76050400I-200000J0D01*
G01*
X70850040Y-76050400D01*
G75*
G02*
X70650040Y-75850400I0J200000D01*
G01*
X70650040Y-75300400D01*
G75*
G02*
X70850040Y-75100400I200000J0D01*
G01*
X72350040Y-75100400D01*
G75*
G02*
X72550040Y-75300400I0J-200000D01*
G01*
G37*
G36*
G01*
X72550040Y-76100400D02*
X72550040Y-76650400D01*
G75*
G02*
X72350040Y-76850400I-200000J0D01*
G01*
X70850040Y-76850400D01*
G75*
G02*
X70650040Y-76650400I0J200000D01*
G01*
X70650040Y-76100400D01*
G75*
G02*
X70850040Y-75900400I200000J0D01*
G01*
X72350040Y-75900400D01*
G75*
G02*
X72550040Y-76100400I0J-200000D01*
G01*
G37*
G36*
G01*
X72550040Y-76900400D02*
X72550040Y-77450400D01*
G75*
G02*
X72350040Y-77650400I-200000J0D01*
G01*
X70850040Y-77650400D01*
G75*
G02*
X70650040Y-77450400I0J200000D01*
G01*
X70650040Y-76900400D01*
G75*
G02*
X70850040Y-76700400I200000J0D01*
G01*
X72350040Y-76700400D01*
G75*
G02*
X72550040Y-76900400I0J-200000D01*
G01*
G37*
G36*
G01*
X72550040Y-77700400D02*
X72550040Y-78250400D01*
G75*
G02*
X72350040Y-78450400I-200000J0D01*
G01*
X70850040Y-78450400D01*
G75*
G02*
X70650040Y-78250400I0J200000D01*
G01*
X70650040Y-77700400D01*
G75*
G02*
X70850040Y-77500400I200000J0D01*
G01*
X72350040Y-77500400D01*
G75*
G02*
X72550040Y-77700400I0J-200000D01*
G01*
G37*
G36*
G01*
X72550040Y-78500400D02*
X72550040Y-79050400D01*
G75*
G02*
X72350040Y-79250400I-200000J0D01*
G01*
X70850040Y-79250400D01*
G75*
G02*
X70650040Y-79050400I0J200000D01*
G01*
X70650040Y-78500400D01*
G75*
G02*
X70850040Y-78300400I200000J0D01*
G01*
X72350040Y-78300400D01*
G75*
G02*
X72550040Y-78500400I0J-200000D01*
G01*
G37*
G36*
G01*
X72550040Y-79300400D02*
X72550040Y-79850400D01*
G75*
G02*
X72350040Y-80050400I-200000J0D01*
G01*
X70850040Y-80050400D01*
G75*
G02*
X70650040Y-79850400I0J200000D01*
G01*
X70650040Y-79300400D01*
G75*
G02*
X70850040Y-79100400I200000J0D01*
G01*
X72350040Y-79100400D01*
G75*
G02*
X72550040Y-79300400I0J-200000D01*
G01*
G37*
G36*
G01*
X72550040Y-80100400D02*
X72550040Y-80650400D01*
G75*
G02*
X72350040Y-80850400I-200000J0D01*
G01*
X70850040Y-80850400D01*
G75*
G02*
X70650040Y-80650400I0J200000D01*
G01*
X70650040Y-80100400D01*
G75*
G02*
X70850040Y-79900400I200000J0D01*
G01*
X72350040Y-79900400D01*
G75*
G02*
X72550040Y-80100400I0J-200000D01*
G01*
G37*
G36*
G01*
X72550040Y-80900400D02*
X72550040Y-81450400D01*
G75*
G02*
X72350040Y-81650400I-200000J0D01*
G01*
X70850040Y-81650400D01*
G75*
G02*
X70650040Y-81450400I0J200000D01*
G01*
X70650040Y-80900400D01*
G75*
G02*
X70850040Y-80700400I200000J0D01*
G01*
X72350040Y-80700400D01*
G75*
G02*
X72550040Y-80900400I0J-200000D01*
G01*
G37*
G36*
G01*
X72550040Y-81700400D02*
X72550040Y-82250400D01*
G75*
G02*
X72350040Y-82450400I-200000J0D01*
G01*
X70850040Y-82450400D01*
G75*
G02*
X70650040Y-82250400I0J200000D01*
G01*
X70650040Y-81700400D01*
G75*
G02*
X70850040Y-81500400I200000J0D01*
G01*
X72350040Y-81500400D01*
G75*
G02*
X72550040Y-81700400I0J-200000D01*
G01*
G37*
G36*
G01*
X72550040Y-82500400D02*
X72550040Y-83050400D01*
G75*
G02*
X72350040Y-83250400I-200000J0D01*
G01*
X70850040Y-83250400D01*
G75*
G02*
X70650040Y-83050400I0J200000D01*
G01*
X70650040Y-82500400D01*
G75*
G02*
X70850040Y-82300400I200000J0D01*
G01*
X72350040Y-82300400D01*
G75*
G02*
X72550040Y-82500400I0J-200000D01*
G01*
G37*
G36*
G01*
X69625040Y-83525400D02*
X70175040Y-83525400D01*
G75*
G02*
X70375040Y-83725400I0J-200000D01*
G01*
X70375040Y-85225400D01*
G75*
G02*
X70175040Y-85425400I-200000J0D01*
G01*
X69625040Y-85425400D01*
G75*
G02*
X69425040Y-85225400I0J200000D01*
G01*
X69425040Y-83725400D01*
G75*
G02*
X69625040Y-83525400I200000J0D01*
G01*
G37*
G36*
G01*
X68825040Y-83525400D02*
X69375040Y-83525400D01*
G75*
G02*
X69575040Y-83725400I0J-200000D01*
G01*
X69575040Y-85225400D01*
G75*
G02*
X69375040Y-85425400I-200000J0D01*
G01*
X68825040Y-85425400D01*
G75*
G02*
X68625040Y-85225400I0J200000D01*
G01*
X68625040Y-83725400D01*
G75*
G02*
X68825040Y-83525400I200000J0D01*
G01*
G37*
G36*
G01*
X68025040Y-83525400D02*
X68575040Y-83525400D01*
G75*
G02*
X68775040Y-83725400I0J-200000D01*
G01*
X68775040Y-85225400D01*
G75*
G02*
X68575040Y-85425400I-200000J0D01*
G01*
X68025040Y-85425400D01*
G75*
G02*
X67825040Y-85225400I0J200000D01*
G01*
X67825040Y-83725400D01*
G75*
G02*
X68025040Y-83525400I200000J0D01*
G01*
G37*
G36*
G01*
X67225040Y-83525400D02*
X67775040Y-83525400D01*
G75*
G02*
X67975040Y-83725400I0J-200000D01*
G01*
X67975040Y-85225400D01*
G75*
G02*
X67775040Y-85425400I-200000J0D01*
G01*
X67225040Y-85425400D01*
G75*
G02*
X67025040Y-85225400I0J200000D01*
G01*
X67025040Y-83725400D01*
G75*
G02*
X67225040Y-83525400I200000J0D01*
G01*
G37*
G36*
G01*
X66425040Y-83525400D02*
X66975040Y-83525400D01*
G75*
G02*
X67175040Y-83725400I0J-200000D01*
G01*
X67175040Y-85225400D01*
G75*
G02*
X66975040Y-85425400I-200000J0D01*
G01*
X66425040Y-85425400D01*
G75*
G02*
X66225040Y-85225400I0J200000D01*
G01*
X66225040Y-83725400D01*
G75*
G02*
X66425040Y-83525400I200000J0D01*
G01*
G37*
G36*
G01*
X65625040Y-83525400D02*
X66175040Y-83525400D01*
G75*
G02*
X66375040Y-83725400I0J-200000D01*
G01*
X66375040Y-85225400D01*
G75*
G02*
X66175040Y-85425400I-200000J0D01*
G01*
X65625040Y-85425400D01*
G75*
G02*
X65425040Y-85225400I0J200000D01*
G01*
X65425040Y-83725400D01*
G75*
G02*
X65625040Y-83525400I200000J0D01*
G01*
G37*
G36*
G01*
X64825040Y-83525400D02*
X65375040Y-83525400D01*
G75*
G02*
X65575040Y-83725400I0J-200000D01*
G01*
X65575040Y-85225400D01*
G75*
G02*
X65375040Y-85425400I-200000J0D01*
G01*
X64825040Y-85425400D01*
G75*
G02*
X64625040Y-85225400I0J200000D01*
G01*
X64625040Y-83725400D01*
G75*
G02*
X64825040Y-83525400I200000J0D01*
G01*
G37*
G36*
G01*
X64025040Y-83525400D02*
X64575040Y-83525400D01*
G75*
G02*
X64775040Y-83725400I0J-200000D01*
G01*
X64775040Y-85225400D01*
G75*
G02*
X64575040Y-85425400I-200000J0D01*
G01*
X64025040Y-85425400D01*
G75*
G02*
X63825040Y-85225400I0J200000D01*
G01*
X63825040Y-83725400D01*
G75*
G02*
X64025040Y-83525400I200000J0D01*
G01*
G37*
G36*
G01*
X63225040Y-83525400D02*
X63775040Y-83525400D01*
G75*
G02*
X63975040Y-83725400I0J-200000D01*
G01*
X63975040Y-85225400D01*
G75*
G02*
X63775040Y-85425400I-200000J0D01*
G01*
X63225040Y-85425400D01*
G75*
G02*
X63025040Y-85225400I0J200000D01*
G01*
X63025040Y-83725400D01*
G75*
G02*
X63225040Y-83525400I200000J0D01*
G01*
G37*
G36*
G01*
X62425040Y-83525400D02*
X62975040Y-83525400D01*
G75*
G02*
X63175040Y-83725400I0J-200000D01*
G01*
X63175040Y-85225400D01*
G75*
G02*
X62975040Y-85425400I-200000J0D01*
G01*
X62425040Y-85425400D01*
G75*
G02*
X62225040Y-85225400I0J200000D01*
G01*
X62225040Y-83725400D01*
G75*
G02*
X62425040Y-83525400I200000J0D01*
G01*
G37*
G36*
G01*
X61625040Y-83525400D02*
X62175040Y-83525400D01*
G75*
G02*
X62375040Y-83725400I0J-200000D01*
G01*
X62375040Y-85225400D01*
G75*
G02*
X62175040Y-85425400I-200000J0D01*
G01*
X61625040Y-85425400D01*
G75*
G02*
X61425040Y-85225400I0J200000D01*
G01*
X61425040Y-83725400D01*
G75*
G02*
X61625040Y-83525400I200000J0D01*
G01*
G37*
G36*
G01*
X61150040Y-82500400D02*
X61150040Y-83050400D01*
G75*
G02*
X60950040Y-83250400I-200000J0D01*
G01*
X59450040Y-83250400D01*
G75*
G02*
X59250040Y-83050400I0J200000D01*
G01*
X59250040Y-82500400D01*
G75*
G02*
X59450040Y-82300400I200000J0D01*
G01*
X60950040Y-82300400D01*
G75*
G02*
X61150040Y-82500400I0J-200000D01*
G01*
G37*
G36*
G01*
X61150040Y-81700400D02*
X61150040Y-82250400D01*
G75*
G02*
X60950040Y-82450400I-200000J0D01*
G01*
X59450040Y-82450400D01*
G75*
G02*
X59250040Y-82250400I0J200000D01*
G01*
X59250040Y-81700400D01*
G75*
G02*
X59450040Y-81500400I200000J0D01*
G01*
X60950040Y-81500400D01*
G75*
G02*
X61150040Y-81700400I0J-200000D01*
G01*
G37*
G36*
G01*
X61150040Y-80900400D02*
X61150040Y-81450400D01*
G75*
G02*
X60950040Y-81650400I-200000J0D01*
G01*
X59450040Y-81650400D01*
G75*
G02*
X59250040Y-81450400I0J200000D01*
G01*
X59250040Y-80900400D01*
G75*
G02*
X59450040Y-80700400I200000J0D01*
G01*
X60950040Y-80700400D01*
G75*
G02*
X61150040Y-80900400I0J-200000D01*
G01*
G37*
G36*
G01*
X61150040Y-80100400D02*
X61150040Y-80650400D01*
G75*
G02*
X60950040Y-80850400I-200000J0D01*
G01*
X59450040Y-80850400D01*
G75*
G02*
X59250040Y-80650400I0J200000D01*
G01*
X59250040Y-80100400D01*
G75*
G02*
X59450040Y-79900400I200000J0D01*
G01*
X60950040Y-79900400D01*
G75*
G02*
X61150040Y-80100400I0J-200000D01*
G01*
G37*
G36*
G01*
X61150040Y-79300400D02*
X61150040Y-79850400D01*
G75*
G02*
X60950040Y-80050400I-200000J0D01*
G01*
X59450040Y-80050400D01*
G75*
G02*
X59250040Y-79850400I0J200000D01*
G01*
X59250040Y-79300400D01*
G75*
G02*
X59450040Y-79100400I200000J0D01*
G01*
X60950040Y-79100400D01*
G75*
G02*
X61150040Y-79300400I0J-200000D01*
G01*
G37*
G36*
G01*
X61150040Y-78500400D02*
X61150040Y-79050400D01*
G75*
G02*
X60950040Y-79250400I-200000J0D01*
G01*
X59450040Y-79250400D01*
G75*
G02*
X59250040Y-79050400I0J200000D01*
G01*
X59250040Y-78500400D01*
G75*
G02*
X59450040Y-78300400I200000J0D01*
G01*
X60950040Y-78300400D01*
G75*
G02*
X61150040Y-78500400I0J-200000D01*
G01*
G37*
G36*
G01*
X61150040Y-77700400D02*
X61150040Y-78250400D01*
G75*
G02*
X60950040Y-78450400I-200000J0D01*
G01*
X59450040Y-78450400D01*
G75*
G02*
X59250040Y-78250400I0J200000D01*
G01*
X59250040Y-77700400D01*
G75*
G02*
X59450040Y-77500400I200000J0D01*
G01*
X60950040Y-77500400D01*
G75*
G02*
X61150040Y-77700400I0J-200000D01*
G01*
G37*
G36*
G01*
X61150040Y-76900400D02*
X61150040Y-77450400D01*
G75*
G02*
X60950040Y-77650400I-200000J0D01*
G01*
X59450040Y-77650400D01*
G75*
G02*
X59250040Y-77450400I0J200000D01*
G01*
X59250040Y-76900400D01*
G75*
G02*
X59450040Y-76700400I200000J0D01*
G01*
X60950040Y-76700400D01*
G75*
G02*
X61150040Y-76900400I0J-200000D01*
G01*
G37*
G36*
G01*
X61150040Y-76100400D02*
X61150040Y-76650400D01*
G75*
G02*
X60950040Y-76850400I-200000J0D01*
G01*
X59450040Y-76850400D01*
G75*
G02*
X59250040Y-76650400I0J200000D01*
G01*
X59250040Y-76100400D01*
G75*
G02*
X59450040Y-75900400I200000J0D01*
G01*
X60950040Y-75900400D01*
G75*
G02*
X61150040Y-76100400I0J-200000D01*
G01*
G37*
G36*
G01*
X61150040Y-75300400D02*
X61150040Y-75850400D01*
G75*
G02*
X60950040Y-76050400I-200000J0D01*
G01*
X59450040Y-76050400D01*
G75*
G02*
X59250040Y-75850400I0J200000D01*
G01*
X59250040Y-75300400D01*
G75*
G02*
X59450040Y-75100400I200000J0D01*
G01*
X60950040Y-75100400D01*
G75*
G02*
X61150040Y-75300400I0J-200000D01*
G01*
G37*
G36*
G01*
X61150040Y-74500400D02*
X61150040Y-75050400D01*
G75*
G02*
X60950040Y-75250400I-200000J0D01*
G01*
X59450040Y-75250400D01*
G75*
G02*
X59250040Y-75050400I0J200000D01*
G01*
X59250040Y-74500400D01*
G75*
G02*
X59450040Y-74300400I200000J0D01*
G01*
X60950040Y-74300400D01*
G75*
G02*
X61150040Y-74500400I0J-200000D01*
G01*
G37*
G36*
G01*
X90550000Y-77700000D02*
X89350000Y-77700000D01*
G75*
G02*
X89150000Y-77500000I0J200000D01*
G01*
X89150000Y-76000000D01*
G75*
G02*
X89350000Y-75800000I200000J0D01*
G01*
X90550000Y-75800000D01*
G75*
G02*
X90750000Y-76000000I0J-200000D01*
G01*
X90750000Y-77500000D01*
G75*
G02*
X90550000Y-77700000I-200000J0D01*
G01*
G37*
G36*
G01*
X90550000Y-75000000D02*
X89350000Y-75000000D01*
G75*
G02*
X89150000Y-74800000I0J200000D01*
G01*
X89150000Y-73300000D01*
G75*
G02*
X89350000Y-73100000I200000J0D01*
G01*
X90550000Y-73100000D01*
G75*
G02*
X90750000Y-73300000I0J-200000D01*
G01*
X90750000Y-74800000D01*
G75*
G02*
X90550000Y-75000000I-200000J0D01*
G01*
G37*
D25*
X89950000Y-79300000D03*
X89950000Y-71500000D03*
X86850000Y-71500000D03*
X86850000Y-79300000D03*
G36*
G01*
X87450000Y-75000000D02*
X86250000Y-75000000D01*
G75*
G02*
X86050000Y-74800000I0J200000D01*
G01*
X86050000Y-73300000D01*
G75*
G02*
X86250000Y-73100000I200000J0D01*
G01*
X87450000Y-73100000D01*
G75*
G02*
X87650000Y-73300000I0J-200000D01*
G01*
X87650000Y-74800000D01*
G75*
G02*
X87450000Y-75000000I-200000J0D01*
G01*
G37*
G36*
G01*
X87450000Y-77700000D02*
X86250000Y-77700000D01*
G75*
G02*
X86050000Y-77500000I0J200000D01*
G01*
X86050000Y-76000000D01*
G75*
G02*
X86250000Y-75800000I200000J0D01*
G01*
X87450000Y-75800000D01*
G75*
G02*
X87650000Y-76000000I0J-200000D01*
G01*
X87650000Y-77500000D01*
G75*
G02*
X87450000Y-77700000I-200000J0D01*
G01*
G37*
D16*
X117900000Y-25300000D03*
X213100000Y-25300000D03*
X106450000Y-114400000D03*
X197800000Y-114400000D03*
D13*
X276726250Y-67335040D03*
D14*
X281806250Y-69875040D03*
D13*
X279266250Y-73685040D03*
D15*
X281806250Y-74955040D03*
X281806250Y-64795040D03*
G36*
G01*
X280516250Y-78435040D02*
X278016250Y-78435040D01*
G75*
G02*
X277816250Y-78235040I0J200000D01*
G01*
X277816250Y-75685040D01*
G75*
G02*
X278016250Y-75485040I200000J0D01*
G01*
X280516250Y-75485040D01*
G75*
G02*
X280716250Y-75685040I0J-200000D01*
G01*
X280716250Y-78235040D01*
G75*
G02*
X280516250Y-78435040I-200000J0D01*
G01*
G37*
G36*
G01*
X277976250Y-65508040D02*
X275476250Y-65508040D01*
G75*
G02*
X275276250Y-65308040I0J200000D01*
G01*
X275276250Y-62758040D01*
G75*
G02*
X275476250Y-62558040I200000J0D01*
G01*
X277976250Y-62558040D01*
G75*
G02*
X278176250Y-62758040I0J-200000D01*
G01*
X278176250Y-65308040D01*
G75*
G02*
X277976250Y-65508040I-200000J0D01*
G01*
G37*
D22*
X293744250Y-62890040D03*
X269868250Y-62890040D03*
D14*
X293744250Y-78130040D03*
X269868250Y-78130040D03*
D11*
X64850000Y-86750040D03*
X61250000Y-86750040D03*
X73650000Y-84050040D03*
X57950000Y-76850040D03*
X57950000Y-80450040D03*
X55950000Y-80450040D03*
G36*
G01*
X82450000Y-52050040D02*
X84050000Y-52050040D01*
G75*
G02*
X84250000Y-52250040I0J-200000D01*
G01*
X84250000Y-53850040D01*
G75*
G02*
X84050000Y-54050040I-200000J0D01*
G01*
X82450000Y-54050040D01*
G75*
G02*
X82250000Y-53850040I0J200000D01*
G01*
X82250000Y-52250040D01*
G75*
G02*
X82450000Y-52050040I200000J0D01*
G01*
G37*
D26*
X90870000Y-60670040D03*
X85790000Y-53050040D03*
X88330000Y-60670040D03*
X88330000Y-53050040D03*
X85790000Y-60670040D03*
X90870000Y-53050040D03*
X83250000Y-60670040D03*
M02*
