G04 #@! TF.GenerationSoftware,KiCad,Pcbnew,(5.1.10-1-10_14)*
G04 #@! TF.CreationDate,2021-07-02T05:31:03+09:00*
G04 #@! TF.ProjectId,Jones,4a6f6e65-732e-46b6-9963-61645f706362,v.0.3.2*
G04 #@! TF.SameCoordinates,Original*
G04 #@! TF.FileFunction,Copper,L2,Bot*
G04 #@! TF.FilePolarity,Positive*
%FSLAX46Y46*%
G04 Gerber Fmt 4.6, Leading zero omitted, Abs format (unit mm)*
G04 Created by KiCad (PCBNEW (5.1.10-1-10_14)) date 2021-07-02 05:31:03*
%MOMM*%
%LPD*%
G01*
G04 APERTURE LIST*
G04 #@! TA.AperFunction,SMDPad,CuDef*
%ADD10R,0.900000X1.200000*%
G04 #@! TD*
G04 #@! TA.AperFunction,ComponentPad*
%ADD11C,1.000000*%
G04 #@! TD*
G04 #@! TA.AperFunction,ComponentPad*
%ADD12C,4.800000*%
G04 #@! TD*
G04 #@! TA.AperFunction,SMDPad,CuDef*
%ADD13R,2.550000X2.500000*%
G04 #@! TD*
G04 #@! TA.AperFunction,SMDPad,CuDef*
%ADD14R,2.100000X1.800000*%
G04 #@! TD*
G04 #@! TA.AperFunction,SMDPad,CuDef*
%ADD15R,1.200000X0.900000*%
G04 #@! TD*
G04 #@! TA.AperFunction,SMDPad,CuDef*
%ADD16R,1.000000X1.700000*%
G04 #@! TD*
G04 #@! TA.AperFunction,SMDPad,CuDef*
%ADD17R,2.500000X2.550000*%
G04 #@! TD*
G04 #@! TA.AperFunction,SMDPad,CuDef*
%ADD18R,1.200000X1.400000*%
G04 #@! TD*
G04 #@! TA.AperFunction,SMDPad,CuDef*
%ADD19R,1.000000X1.400000*%
G04 #@! TD*
G04 #@! TA.AperFunction,SMDPad,CuDef*
%ADD20R,1.000000X1.500000*%
G04 #@! TD*
G04 #@! TA.AperFunction,ComponentPad*
%ADD21C,2.250000*%
G04 #@! TD*
G04 #@! TA.AperFunction,ComponentPad*
%ADD22R,1.700000X1.700000*%
G04 #@! TD*
G04 #@! TA.AperFunction,ComponentPad*
%ADD23O,1.700000X1.700000*%
G04 #@! TD*
G04 #@! TA.AperFunction,ComponentPad*
%ADD24C,1.500000*%
G04 #@! TD*
G04 #@! TA.AperFunction,SMDPad,CuDef*
%ADD25R,0.550000X1.500000*%
G04 #@! TD*
G04 #@! TA.AperFunction,SMDPad,CuDef*
%ADD26R,1.500000X0.550000*%
G04 #@! TD*
G04 #@! TA.AperFunction,ComponentPad*
%ADD27R,2.000000X2.000000*%
G04 #@! TD*
G04 #@! TA.AperFunction,ComponentPad*
%ADD28C,2.000000*%
G04 #@! TD*
G04 #@! TA.AperFunction,ComponentPad*
%ADD29R,2.000000X3.200000*%
G04 #@! TD*
G04 #@! TA.AperFunction,ComponentPad*
%ADD30C,0.700000*%
G04 #@! TD*
G04 #@! TA.AperFunction,ComponentPad*
%ADD31O,0.900000X2.400000*%
G04 #@! TD*
G04 #@! TA.AperFunction,ComponentPad*
%ADD32O,0.900000X1.700000*%
G04 #@! TD*
G04 #@! TA.AperFunction,ViaPad*
%ADD33C,0.600000*%
G04 #@! TD*
G04 #@! TA.AperFunction,Conductor*
%ADD34C,0.381000*%
G04 #@! TD*
G04 #@! TA.AperFunction,Conductor*
%ADD35C,0.254000*%
G04 #@! TD*
G04 #@! TA.AperFunction,Conductor*
%ADD36C,0.100000*%
G04 #@! TD*
G04 APERTURE END LIST*
D10*
X57050000Y-96500000D03*
X60350000Y-96500000D03*
G04 #@! TA.AperFunction,SMDPad,CuDef*
G36*
G01*
X87545000Y-51850000D02*
X87845000Y-51850000D01*
G75*
G02*
X87995000Y-52000000I0J-150000D01*
G01*
X87995000Y-53450000D01*
G75*
G02*
X87845000Y-53600000I-150000J0D01*
G01*
X87545000Y-53600000D01*
G75*
G02*
X87395000Y-53450000I0J150000D01*
G01*
X87395000Y-52000000D01*
G75*
G02*
X87545000Y-51850000I150000J0D01*
G01*
G37*
G04 #@! TD.AperFunction*
G04 #@! TA.AperFunction,SMDPad,CuDef*
G36*
G01*
X88815000Y-51850000D02*
X89115000Y-51850000D01*
G75*
G02*
X89265000Y-52000000I0J-150000D01*
G01*
X89265000Y-53450000D01*
G75*
G02*
X89115000Y-53600000I-150000J0D01*
G01*
X88815000Y-53600000D01*
G75*
G02*
X88665000Y-53450000I0J150000D01*
G01*
X88665000Y-52000000D01*
G75*
G02*
X88815000Y-51850000I150000J0D01*
G01*
G37*
G04 #@! TD.AperFunction*
G04 #@! TA.AperFunction,SMDPad,CuDef*
G36*
G01*
X90085000Y-51850000D02*
X90385000Y-51850000D01*
G75*
G02*
X90535000Y-52000000I0J-150000D01*
G01*
X90535000Y-53450000D01*
G75*
G02*
X90385000Y-53600000I-150000J0D01*
G01*
X90085000Y-53600000D01*
G75*
G02*
X89935000Y-53450000I0J150000D01*
G01*
X89935000Y-52000000D01*
G75*
G02*
X90085000Y-51850000I150000J0D01*
G01*
G37*
G04 #@! TD.AperFunction*
G04 #@! TA.AperFunction,SMDPad,CuDef*
G36*
G01*
X91355000Y-51850000D02*
X91655000Y-51850000D01*
G75*
G02*
X91805000Y-52000000I0J-150000D01*
G01*
X91805000Y-53450000D01*
G75*
G02*
X91655000Y-53600000I-150000J0D01*
G01*
X91355000Y-53600000D01*
G75*
G02*
X91205000Y-53450000I0J150000D01*
G01*
X91205000Y-52000000D01*
G75*
G02*
X91355000Y-51850000I150000J0D01*
G01*
G37*
G04 #@! TD.AperFunction*
G04 #@! TA.AperFunction,SMDPad,CuDef*
G36*
G01*
X91355000Y-57000000D02*
X91655000Y-57000000D01*
G75*
G02*
X91805000Y-57150000I0J-150000D01*
G01*
X91805000Y-58600000D01*
G75*
G02*
X91655000Y-58750000I-150000J0D01*
G01*
X91355000Y-58750000D01*
G75*
G02*
X91205000Y-58600000I0J150000D01*
G01*
X91205000Y-57150000D01*
G75*
G02*
X91355000Y-57000000I150000J0D01*
G01*
G37*
G04 #@! TD.AperFunction*
G04 #@! TA.AperFunction,SMDPad,CuDef*
G36*
G01*
X90085000Y-57000000D02*
X90385000Y-57000000D01*
G75*
G02*
X90535000Y-57150000I0J-150000D01*
G01*
X90535000Y-58600000D01*
G75*
G02*
X90385000Y-58750000I-150000J0D01*
G01*
X90085000Y-58750000D01*
G75*
G02*
X89935000Y-58600000I0J150000D01*
G01*
X89935000Y-57150000D01*
G75*
G02*
X90085000Y-57000000I150000J0D01*
G01*
G37*
G04 #@! TD.AperFunction*
G04 #@! TA.AperFunction,SMDPad,CuDef*
G36*
G01*
X88815000Y-57000000D02*
X89115000Y-57000000D01*
G75*
G02*
X89265000Y-57150000I0J-150000D01*
G01*
X89265000Y-58600000D01*
G75*
G02*
X89115000Y-58750000I-150000J0D01*
G01*
X88815000Y-58750000D01*
G75*
G02*
X88665000Y-58600000I0J150000D01*
G01*
X88665000Y-57150000D01*
G75*
G02*
X88815000Y-57000000I150000J0D01*
G01*
G37*
G04 #@! TD.AperFunction*
G04 #@! TA.AperFunction,SMDPad,CuDef*
G36*
G01*
X87545000Y-57000000D02*
X87845000Y-57000000D01*
G75*
G02*
X87995000Y-57150000I0J-150000D01*
G01*
X87995000Y-58600000D01*
G75*
G02*
X87845000Y-58750000I-150000J0D01*
G01*
X87545000Y-58750000D01*
G75*
G02*
X87395000Y-58600000I0J150000D01*
G01*
X87395000Y-57150000D01*
G75*
G02*
X87545000Y-57000000I150000J0D01*
G01*
G37*
G04 #@! TD.AperFunction*
D11*
X49050000Y-51800000D03*
X46450000Y-51750000D03*
X49050000Y-49100000D03*
X46450000Y-49100000D03*
X47800000Y-52350000D03*
X49700000Y-50450000D03*
X45900000Y-50450000D03*
X47800000Y-48550000D03*
D12*
X47800000Y-50450000D03*
D13*
X81840000Y-86385280D03*
X94767000Y-83845280D03*
X76960000Y-91465280D03*
X64033000Y-94005280D03*
D14*
X78812889Y-75971501D03*
X75912889Y-75971501D03*
X75912889Y-78271501D03*
X78812889Y-78271501D03*
D15*
X270500000Y-54850000D03*
X270500000Y-58150000D03*
G04 #@! TA.AperFunction,SMDPad,CuDef*
G36*
G01*
X81890041Y-78850400D02*
X80990039Y-78850400D01*
G75*
G02*
X80740040Y-78600401I0J249999D01*
G01*
X80740040Y-77950399D01*
G75*
G02*
X80990039Y-77700400I249999J0D01*
G01*
X81890041Y-77700400D01*
G75*
G02*
X82140040Y-77950399I0J-249999D01*
G01*
X82140040Y-78600401D01*
G75*
G02*
X81890041Y-78850400I-249999J0D01*
G01*
G37*
G04 #@! TD.AperFunction*
G04 #@! TA.AperFunction,SMDPad,CuDef*
G36*
G01*
X81890041Y-76800400D02*
X80990039Y-76800400D01*
G75*
G02*
X80740040Y-76550401I0J249999D01*
G01*
X80740040Y-75900399D01*
G75*
G02*
X80990039Y-75650400I249999J0D01*
G01*
X81890041Y-75650400D01*
G75*
G02*
X82140040Y-75900399I0J-249999D01*
G01*
X82140040Y-76550401D01*
G75*
G02*
X81890041Y-76800400I-249999J0D01*
G01*
G37*
G04 #@! TD.AperFunction*
D16*
X46550040Y-67920400D03*
X46550040Y-74220400D03*
X50350040Y-67920400D03*
X50350040Y-74220400D03*
G04 #@! TA.AperFunction,SMDPad,CuDef*
G36*
G01*
X74825000Y-74050001D02*
X74825000Y-73149999D01*
G75*
G02*
X75074999Y-72900000I249999J0D01*
G01*
X75725001Y-72900000D01*
G75*
G02*
X75975000Y-73149999I0J-249999D01*
G01*
X75975000Y-74050001D01*
G75*
G02*
X75725001Y-74300000I-249999J0D01*
G01*
X75074999Y-74300000D01*
G75*
G02*
X74825000Y-74050001I0J249999D01*
G01*
G37*
G04 #@! TD.AperFunction*
G04 #@! TA.AperFunction,SMDPad,CuDef*
G36*
G01*
X76875000Y-74050001D02*
X76875000Y-73149999D01*
G75*
G02*
X77124999Y-72900000I249999J0D01*
G01*
X77775001Y-72900000D01*
G75*
G02*
X78025000Y-73149999I0J-249999D01*
G01*
X78025000Y-74050001D01*
G75*
G02*
X77775001Y-74300000I-249999J0D01*
G01*
X77124999Y-74300000D01*
G75*
G02*
X76875000Y-74050001I0J249999D01*
G01*
G37*
G04 #@! TD.AperFunction*
G04 #@! TA.AperFunction,SMDPad,CuDef*
G36*
G01*
X70950000Y-70249999D02*
X70950000Y-71150001D01*
G75*
G02*
X70700001Y-71400000I-249999J0D01*
G01*
X70049999Y-71400000D01*
G75*
G02*
X69800000Y-71150001I0J249999D01*
G01*
X69800000Y-70249999D01*
G75*
G02*
X70049999Y-70000000I249999J0D01*
G01*
X70700001Y-70000000D01*
G75*
G02*
X70950000Y-70249999I0J-249999D01*
G01*
G37*
G04 #@! TD.AperFunction*
G04 #@! TA.AperFunction,SMDPad,CuDef*
G36*
G01*
X73000000Y-70249999D02*
X73000000Y-71150001D01*
G75*
G02*
X72750001Y-71400000I-249999J0D01*
G01*
X72099999Y-71400000D01*
G75*
G02*
X71850000Y-71150001I0J249999D01*
G01*
X71850000Y-70249999D01*
G75*
G02*
X72099999Y-70000000I249999J0D01*
G01*
X72750001Y-70000000D01*
G75*
G02*
X73000000Y-70249999I0J-249999D01*
G01*
G37*
G04 #@! TD.AperFunction*
D17*
X222433790Y-100890400D03*
X224973790Y-113817400D03*
D18*
X50195000Y-28575040D03*
D19*
X48475000Y-28575040D03*
X48475000Y-26375040D03*
X50375000Y-26375040D03*
G04 #@! TA.AperFunction,SMDPad,CuDef*
G36*
G01*
X32899999Y-23250000D02*
X33800001Y-23250000D01*
G75*
G02*
X34050000Y-23499999I0J-249999D01*
G01*
X34050000Y-24150001D01*
G75*
G02*
X33800001Y-24400000I-249999J0D01*
G01*
X32899999Y-24400000D01*
G75*
G02*
X32650000Y-24150001I0J249999D01*
G01*
X32650000Y-23499999D01*
G75*
G02*
X32899999Y-23250000I249999J0D01*
G01*
G37*
G04 #@! TD.AperFunction*
G04 #@! TA.AperFunction,SMDPad,CuDef*
G36*
G01*
X32899999Y-25300000D02*
X33800001Y-25300000D01*
G75*
G02*
X34050000Y-25549999I0J-249999D01*
G01*
X34050000Y-26200001D01*
G75*
G02*
X33800001Y-26450000I-249999J0D01*
G01*
X32899999Y-26450000D01*
G75*
G02*
X32650000Y-26200001I0J249999D01*
G01*
X32650000Y-25549999D01*
G75*
G02*
X32899999Y-25300000I249999J0D01*
G01*
G37*
G04 #@! TD.AperFunction*
G04 #@! TA.AperFunction,SMDPad,CuDef*
G36*
G01*
X58187500Y-28325000D02*
X58187500Y-29575000D01*
G75*
G02*
X57937500Y-29825000I-250000J0D01*
G01*
X57012500Y-29825000D01*
G75*
G02*
X56762500Y-29575000I0J250000D01*
G01*
X56762500Y-28325000D01*
G75*
G02*
X57012500Y-28075000I250000J0D01*
G01*
X57937500Y-28075000D01*
G75*
G02*
X58187500Y-28325000I0J-250000D01*
G01*
G37*
G04 #@! TD.AperFunction*
G04 #@! TA.AperFunction,SMDPad,CuDef*
G36*
G01*
X55212500Y-28325000D02*
X55212500Y-29575000D01*
G75*
G02*
X54962500Y-29825000I-250000J0D01*
G01*
X54037500Y-29825000D01*
G75*
G02*
X53787500Y-29575000I0J250000D01*
G01*
X53787500Y-28325000D01*
G75*
G02*
X54037500Y-28075000I250000J0D01*
G01*
X54962500Y-28075000D01*
G75*
G02*
X55212500Y-28325000I0J-250000D01*
G01*
G37*
G04 #@! TD.AperFunction*
G04 #@! TA.AperFunction,SMDPad,CuDef*
G36*
G01*
X75299999Y-83950000D02*
X76200001Y-83950000D01*
G75*
G02*
X76450000Y-84199999I0J-249999D01*
G01*
X76450000Y-84850001D01*
G75*
G02*
X76200001Y-85100000I-249999J0D01*
G01*
X75299999Y-85100000D01*
G75*
G02*
X75050000Y-84850001I0J249999D01*
G01*
X75050000Y-84199999D01*
G75*
G02*
X75299999Y-83950000I249999J0D01*
G01*
G37*
G04 #@! TD.AperFunction*
G04 #@! TA.AperFunction,SMDPad,CuDef*
G36*
G01*
X75299999Y-86000000D02*
X76200001Y-86000000D01*
G75*
G02*
X76450000Y-86249999I0J-249999D01*
G01*
X76450000Y-86900001D01*
G75*
G02*
X76200001Y-87150000I-249999J0D01*
G01*
X75299999Y-87150000D01*
G75*
G02*
X75050000Y-86900001I0J249999D01*
G01*
X75050000Y-86249999D01*
G75*
G02*
X75299999Y-86000000I249999J0D01*
G01*
G37*
G04 #@! TD.AperFunction*
G04 #@! TA.AperFunction,SMDPad,CuDef*
G36*
G01*
X57350000Y-83550001D02*
X57350000Y-82649999D01*
G75*
G02*
X57599999Y-82400000I249999J0D01*
G01*
X58250001Y-82400000D01*
G75*
G02*
X58500000Y-82649999I0J-249999D01*
G01*
X58500000Y-83550001D01*
G75*
G02*
X58250001Y-83800000I-249999J0D01*
G01*
X57599999Y-83800000D01*
G75*
G02*
X57350000Y-83550001I0J249999D01*
G01*
G37*
G04 #@! TD.AperFunction*
G04 #@! TA.AperFunction,SMDPad,CuDef*
G36*
G01*
X55300000Y-83550001D02*
X55300000Y-82649999D01*
G75*
G02*
X55549999Y-82400000I249999J0D01*
G01*
X56200001Y-82400000D01*
G75*
G02*
X56450000Y-82649999I0J-249999D01*
G01*
X56450000Y-83550001D01*
G75*
G02*
X56200001Y-83800000I-249999J0D01*
G01*
X55549999Y-83800000D01*
G75*
G02*
X55300000Y-83550001I0J249999D01*
G01*
G37*
G04 #@! TD.AperFunction*
G04 #@! TA.AperFunction,SMDPad,CuDef*
G36*
G01*
X69025000Y-67349999D02*
X69025000Y-68250001D01*
G75*
G02*
X68775001Y-68500000I-249999J0D01*
G01*
X68124999Y-68500000D01*
G75*
G02*
X67875000Y-68250001I0J249999D01*
G01*
X67875000Y-67349999D01*
G75*
G02*
X68124999Y-67100000I249999J0D01*
G01*
X68775001Y-67100000D01*
G75*
G02*
X69025000Y-67349999I0J-249999D01*
G01*
G37*
G04 #@! TD.AperFunction*
G04 #@! TA.AperFunction,SMDPad,CuDef*
G36*
G01*
X66975000Y-67349999D02*
X66975000Y-68250001D01*
G75*
G02*
X66725001Y-68500000I-249999J0D01*
G01*
X66074999Y-68500000D01*
G75*
G02*
X65825000Y-68250001I0J249999D01*
G01*
X65825000Y-67349999D01*
G75*
G02*
X66074999Y-67100000I249999J0D01*
G01*
X66725001Y-67100000D01*
G75*
G02*
X66975000Y-67349999I0J-249999D01*
G01*
G37*
G04 #@! TD.AperFunction*
D20*
X31000000Y-59700000D03*
X29700000Y-59700000D03*
X28400000Y-59700000D03*
G04 #@! TA.AperFunction,SMDPad,CuDef*
G36*
G01*
X42100001Y-31700000D02*
X41199999Y-31700000D01*
G75*
G02*
X40950000Y-31450001I0J249999D01*
G01*
X40950000Y-30799999D01*
G75*
G02*
X41199999Y-30550000I249999J0D01*
G01*
X42100001Y-30550000D01*
G75*
G02*
X42350000Y-30799999I0J-249999D01*
G01*
X42350000Y-31450001D01*
G75*
G02*
X42100001Y-31700000I-249999J0D01*
G01*
G37*
G04 #@! TD.AperFunction*
G04 #@! TA.AperFunction,SMDPad,CuDef*
G36*
G01*
X42100001Y-33750000D02*
X41199999Y-33750000D01*
G75*
G02*
X40950000Y-33500001I0J249999D01*
G01*
X40950000Y-32849999D01*
G75*
G02*
X41199999Y-32600000I249999J0D01*
G01*
X42100001Y-32600000D01*
G75*
G02*
X42350000Y-32849999I0J-249999D01*
G01*
X42350000Y-33500001D01*
G75*
G02*
X42100001Y-33750000I-249999J0D01*
G01*
G37*
G04 #@! TD.AperFunction*
G04 #@! TA.AperFunction,SMDPad,CuDef*
G36*
G01*
X44150001Y-33700000D02*
X43249999Y-33700000D01*
G75*
G02*
X43000000Y-33450001I0J249999D01*
G01*
X43000000Y-32799999D01*
G75*
G02*
X43249999Y-32550000I249999J0D01*
G01*
X44150001Y-32550000D01*
G75*
G02*
X44400000Y-32799999I0J-249999D01*
G01*
X44400000Y-33450001D01*
G75*
G02*
X44150001Y-33700000I-249999J0D01*
G01*
G37*
G04 #@! TD.AperFunction*
G04 #@! TA.AperFunction,SMDPad,CuDef*
G36*
G01*
X44150001Y-31650000D02*
X43249999Y-31650000D01*
G75*
G02*
X43000000Y-31400001I0J249999D01*
G01*
X43000000Y-30749999D01*
G75*
G02*
X43249999Y-30500000I249999J0D01*
G01*
X44150001Y-30500000D01*
G75*
G02*
X44400000Y-30749999I0J-249999D01*
G01*
X44400000Y-31400001D01*
G75*
G02*
X44150001Y-31650000I-249999J0D01*
G01*
G37*
G04 #@! TD.AperFunction*
G04 #@! TA.AperFunction,SMDPad,CuDef*
G36*
G01*
X54149999Y-74350000D02*
X55050001Y-74350000D01*
G75*
G02*
X55300000Y-74599999I0J-249999D01*
G01*
X55300000Y-75250001D01*
G75*
G02*
X55050001Y-75500000I-249999J0D01*
G01*
X54149999Y-75500000D01*
G75*
G02*
X53900000Y-75250001I0J249999D01*
G01*
X53900000Y-74599999D01*
G75*
G02*
X54149999Y-74350000I249999J0D01*
G01*
G37*
G04 #@! TD.AperFunction*
G04 #@! TA.AperFunction,SMDPad,CuDef*
G36*
G01*
X54149999Y-72300000D02*
X55050001Y-72300000D01*
G75*
G02*
X55300000Y-72549999I0J-249999D01*
G01*
X55300000Y-73200001D01*
G75*
G02*
X55050001Y-73450000I-249999J0D01*
G01*
X54149999Y-73450000D01*
G75*
G02*
X53900000Y-73200001I0J249999D01*
G01*
X53900000Y-72549999D01*
G75*
G02*
X54149999Y-72300000I249999J0D01*
G01*
G37*
G04 #@! TD.AperFunction*
G04 #@! TA.AperFunction,SMDPad,CuDef*
G36*
G01*
X55300000Y-85650001D02*
X55300000Y-84749999D01*
G75*
G02*
X55549999Y-84500000I249999J0D01*
G01*
X56200001Y-84500000D01*
G75*
G02*
X56450000Y-84749999I0J-249999D01*
G01*
X56450000Y-85650001D01*
G75*
G02*
X56200001Y-85900000I-249999J0D01*
G01*
X55549999Y-85900000D01*
G75*
G02*
X55300000Y-85650001I0J249999D01*
G01*
G37*
G04 #@! TD.AperFunction*
G04 #@! TA.AperFunction,SMDPad,CuDef*
G36*
G01*
X57350000Y-85650001D02*
X57350000Y-84749999D01*
G75*
G02*
X57599999Y-84500000I249999J0D01*
G01*
X58250001Y-84500000D01*
G75*
G02*
X58500000Y-84749999I0J-249999D01*
G01*
X58500000Y-85650001D01*
G75*
G02*
X58250001Y-85900000I-249999J0D01*
G01*
X57599999Y-85900000D01*
G75*
G02*
X57350000Y-85650001I0J249999D01*
G01*
G37*
G04 #@! TD.AperFunction*
G04 #@! TA.AperFunction,SMDPad,CuDef*
G36*
G01*
X49950000Y-24250041D02*
X49950000Y-23350039D01*
G75*
G02*
X50199999Y-23100040I249999J0D01*
G01*
X50850001Y-23100040D01*
G75*
G02*
X51100000Y-23350039I0J-249999D01*
G01*
X51100000Y-24250041D01*
G75*
G02*
X50850001Y-24500040I-249999J0D01*
G01*
X50199999Y-24500040D01*
G75*
G02*
X49950000Y-24250041I0J249999D01*
G01*
G37*
G04 #@! TD.AperFunction*
G04 #@! TA.AperFunction,SMDPad,CuDef*
G36*
G01*
X47900000Y-24250041D02*
X47900000Y-23350039D01*
G75*
G02*
X48149999Y-23100040I249999J0D01*
G01*
X48800001Y-23100040D01*
G75*
G02*
X49050000Y-23350039I0J-249999D01*
G01*
X49050000Y-24250041D01*
G75*
G02*
X48800001Y-24500040I-249999J0D01*
G01*
X48149999Y-24500040D01*
G75*
G02*
X47900000Y-24250041I0J249999D01*
G01*
G37*
G04 #@! TD.AperFunction*
G04 #@! TA.AperFunction,SMDPad,CuDef*
G36*
G01*
X63400000Y-88149999D02*
X63400000Y-89050001D01*
G75*
G02*
X63150001Y-89300000I-249999J0D01*
G01*
X62499999Y-89300000D01*
G75*
G02*
X62250000Y-89050001I0J249999D01*
G01*
X62250000Y-88149999D01*
G75*
G02*
X62499999Y-87900000I249999J0D01*
G01*
X63150001Y-87900000D01*
G75*
G02*
X63400000Y-88149999I0J-249999D01*
G01*
G37*
G04 #@! TD.AperFunction*
G04 #@! TA.AperFunction,SMDPad,CuDef*
G36*
G01*
X61350000Y-88149999D02*
X61350000Y-89050001D01*
G75*
G02*
X61100001Y-89300000I-249999J0D01*
G01*
X60449999Y-89300000D01*
G75*
G02*
X60200000Y-89050001I0J249999D01*
G01*
X60200000Y-88149999D01*
G75*
G02*
X60449999Y-87900000I249999J0D01*
G01*
X61100001Y-87900000D01*
G75*
G02*
X61350000Y-88149999I0J-249999D01*
G01*
G37*
G04 #@! TD.AperFunction*
G04 #@! TA.AperFunction,SMDPad,CuDef*
G36*
G01*
X57250001Y-75500000D02*
X56349999Y-75500000D01*
G75*
G02*
X56100000Y-75250001I0J249999D01*
G01*
X56100000Y-74599999D01*
G75*
G02*
X56349999Y-74350000I249999J0D01*
G01*
X57250001Y-74350000D01*
G75*
G02*
X57500000Y-74599999I0J-249999D01*
G01*
X57500000Y-75250001D01*
G75*
G02*
X57250001Y-75500000I-249999J0D01*
G01*
G37*
G04 #@! TD.AperFunction*
G04 #@! TA.AperFunction,SMDPad,CuDef*
G36*
G01*
X57250001Y-73450000D02*
X56349999Y-73450000D01*
G75*
G02*
X56100000Y-73200001I0J249999D01*
G01*
X56100000Y-72549999D01*
G75*
G02*
X56349999Y-72300000I249999J0D01*
G01*
X57250001Y-72300000D01*
G75*
G02*
X57500000Y-72549999I0J-249999D01*
G01*
X57500000Y-73200001D01*
G75*
G02*
X57250001Y-73450000I-249999J0D01*
G01*
G37*
G04 #@! TD.AperFunction*
D21*
X151790560Y-67335240D03*
X158140560Y-64795240D03*
D20*
X229450000Y-75200520D03*
X230750000Y-75200520D03*
X232050000Y-75200520D03*
D13*
X253289840Y-29235040D03*
X266216840Y-26695040D03*
X75717000Y-26695040D03*
X62790000Y-29235040D03*
X81840000Y-29235040D03*
X94767000Y-26695040D03*
X113817000Y-26695040D03*
X100890000Y-29235040D03*
X132867000Y-26695040D03*
X119940000Y-29235040D03*
X138990000Y-29235040D03*
X151917000Y-26695040D03*
X196140600Y-29235080D03*
X209067600Y-26695080D03*
X215190680Y-29235040D03*
X228117680Y-26695040D03*
X234240760Y-29235040D03*
X247167760Y-26695040D03*
X272339840Y-29235040D03*
X285266840Y-26695040D03*
X57910000Y-34315040D03*
X44983000Y-36855040D03*
X180492880Y-64795240D03*
X167565880Y-67335240D03*
X234240760Y-86385320D03*
X247167760Y-83845320D03*
X291389840Y-29235040D03*
X304316840Y-26695040D03*
X266217840Y-83845320D03*
X253290840Y-86385320D03*
X167565040Y-48285400D03*
X180492040Y-45745400D03*
X177090040Y-29235400D03*
X190017040Y-26695400D03*
X158040040Y-29235400D03*
X170967040Y-26695400D03*
X66192000Y-64795200D03*
X53265000Y-67335200D03*
X151917000Y-83845280D03*
X138990000Y-86385280D03*
X113817000Y-83845280D03*
X100890000Y-86385280D03*
X104292000Y-64795200D03*
X91365000Y-67335200D03*
X272341080Y-105435360D03*
X285268080Y-102895360D03*
X91365000Y-48285120D03*
X104292000Y-45745120D03*
X25933000Y-36855040D03*
X38860000Y-34315040D03*
X110415000Y-67335200D03*
X123342000Y-64795200D03*
X291391160Y-86385320D03*
X304318160Y-83845320D03*
X142392000Y-64795200D03*
X129465000Y-67335200D03*
X149758560Y-74955240D03*
X162685560Y-72415240D03*
X237642720Y-45745160D03*
X224715720Y-48285160D03*
X218592640Y-64795200D03*
X205665640Y-67335200D03*
X237642720Y-64795240D03*
X224715720Y-67335240D03*
X256692800Y-64795240D03*
X243765800Y-67335240D03*
X25933040Y-94005400D03*
X38860040Y-91465400D03*
X57910040Y-91465400D03*
X44983040Y-94005400D03*
X228117680Y-83845280D03*
X215190680Y-86385280D03*
X209067600Y-83845280D03*
X196140600Y-86385280D03*
X256692800Y-45745160D03*
X243765800Y-48285160D03*
X275742880Y-45745160D03*
X262815880Y-48285160D03*
X53265000Y-48285120D03*
X66192000Y-45745120D03*
X110415000Y-48285120D03*
X123342000Y-45745120D03*
X291391160Y-105435400D03*
X304318160Y-102895400D03*
X72315000Y-67335200D03*
X85242000Y-64795200D03*
X129465000Y-48285120D03*
X142392000Y-45745120D03*
X218592640Y-45745160D03*
X205665640Y-48285160D03*
X272341080Y-86385320D03*
X285268080Y-83845320D03*
X132867000Y-83845280D03*
X119940000Y-86385280D03*
X72315000Y-48285120D03*
X85242000Y-45745120D03*
X64033040Y-113055400D03*
X76960040Y-110515400D03*
X161442560Y-45745120D03*
X148515560Y-48285120D03*
X299555480Y-45745160D03*
X286628480Y-48285160D03*
X24690040Y-105435400D03*
X37617040Y-102895400D03*
X88984060Y-105435400D03*
X101911060Y-102895400D03*
X286628480Y-67335240D03*
X299555480Y-64795240D03*
X65171290Y-105435400D03*
X78098290Y-102895400D03*
X201923290Y-102895400D03*
X188996290Y-105435400D03*
X36596340Y-86385320D03*
X49523340Y-83845320D03*
X48385080Y-91465320D03*
X35458080Y-94005320D03*
X119940440Y-105435400D03*
X132867440Y-102895400D03*
X240023290Y-102895400D03*
X227096290Y-105435400D03*
X196140040Y-105435400D03*
X209067040Y-102895400D03*
X42379500Y-45745120D03*
X29452500Y-48285120D03*
X131729180Y-110515400D03*
X118802180Y-113055400D03*
D22*
X238750000Y-75200000D03*
D23*
X241290000Y-75200000D03*
X243830000Y-75200000D03*
D17*
X276885040Y-76960400D03*
X274345040Y-64033400D03*
D13*
X275742040Y-64795400D03*
X262815040Y-67335400D03*
D17*
X274345040Y-44983400D03*
X276885040Y-57910400D03*
D13*
X292633040Y-55905400D03*
X305560040Y-53365400D03*
X190017040Y-83845400D03*
X177090040Y-86385400D03*
X298416290Y-53365400D03*
X285489290Y-55905400D03*
X249770540Y-55905400D03*
X262697540Y-53365400D03*
X170967040Y-83845400D03*
X158040040Y-86385400D03*
X148515040Y-105435400D03*
X161442040Y-102895400D03*
X167565040Y-105435400D03*
X180492040Y-102895400D03*
X31833820Y-67335240D03*
X44760820Y-64795240D03*
X43622540Y-72415400D03*
X30695540Y-74955400D03*
X285489290Y-74955400D03*
X298416290Y-72415400D03*
X262697540Y-72415400D03*
X249770540Y-74955400D03*
X56667040Y-102895400D03*
X43740040Y-105435400D03*
X87845540Y-113055400D03*
X100772540Y-110515400D03*
X267460040Y-110515400D03*
X254533040Y-113055400D03*
X305560040Y-72415400D03*
X292633040Y-74955400D03*
X243647540Y-110515400D03*
X230720540Y-113055400D03*
X186615040Y-48285400D03*
X199542040Y-45745400D03*
D15*
X272350000Y-35850000D03*
X272350000Y-39150000D03*
X267600000Y-54850000D03*
X267600000Y-58150000D03*
X205650000Y-51650040D03*
X205650000Y-54950040D03*
X177100000Y-37550000D03*
X177100000Y-34250000D03*
X167575000Y-56650000D03*
X167575000Y-53350000D03*
X119900000Y-35100040D03*
X119900000Y-38400040D03*
X90500000Y-95700040D03*
X90500000Y-92400040D03*
X85000000Y-91600040D03*
X85000000Y-94900040D03*
X37400000Y-114050000D03*
X37400000Y-110750000D03*
X53800000Y-110750000D03*
X53800000Y-114050000D03*
X191250000Y-38400040D03*
X191250000Y-35100040D03*
X267400000Y-34250040D03*
X267400000Y-37550040D03*
X229300000Y-38400040D03*
X229300000Y-35100040D03*
X210575000Y-37550040D03*
X210575000Y-34250040D03*
X134400000Y-37550040D03*
X134400000Y-34250040D03*
X96300000Y-37550040D03*
X96300000Y-34250040D03*
X76900000Y-38400040D03*
X76900000Y-35100040D03*
X67600000Y-35100040D03*
X67600000Y-38400040D03*
X172050040Y-90750400D03*
X172050040Y-94050400D03*
X169450000Y-95700040D03*
X169450000Y-92400040D03*
X286100000Y-36050000D03*
X286100000Y-39350000D03*
X235100000Y-55850040D03*
X235100000Y-52550040D03*
X215900000Y-53350040D03*
X215900000Y-56650040D03*
X139700000Y-53350040D03*
X139700000Y-56650040D03*
X101500000Y-56650040D03*
X101500000Y-53350040D03*
X82700000Y-55850040D03*
X82700000Y-52550040D03*
X39700000Y-52550040D03*
X39700000Y-55850040D03*
X197000000Y-52550040D03*
X197000000Y-55850040D03*
X199500000Y-58250040D03*
X199500000Y-54950040D03*
X191050040Y-94050400D03*
X191050040Y-90750400D03*
X230100000Y-58250040D03*
X230100000Y-54950040D03*
X218500000Y-57450040D03*
X218500000Y-54150040D03*
X142300000Y-57450040D03*
X142300000Y-54150040D03*
X104300000Y-54150040D03*
X104300000Y-57450040D03*
X85300000Y-58250040D03*
X85300000Y-54950040D03*
X42350000Y-58250040D03*
X42350000Y-54950040D03*
X180500040Y-95700040D03*
X180500040Y-92400040D03*
X286000000Y-94850040D03*
X286000000Y-91550040D03*
X234200000Y-90750000D03*
X234200000Y-94050000D03*
X229200000Y-90750000D03*
X229200000Y-94050000D03*
X243775000Y-54950000D03*
X243775000Y-58250000D03*
X209450000Y-91600040D03*
X209450000Y-94900040D03*
X130250000Y-91600040D03*
X130250000Y-94900040D03*
X95650000Y-94900040D03*
X95650000Y-91600040D03*
X82200000Y-92050000D03*
X82200000Y-95350000D03*
X42800000Y-109050000D03*
X42800000Y-112350000D03*
X303600000Y-92400040D03*
X303600000Y-95700040D03*
X283250000Y-93250040D03*
X283250000Y-96550040D03*
X240025000Y-96550040D03*
X240025000Y-93250040D03*
X132850000Y-96500040D03*
X132850000Y-93200040D03*
X101900040Y-96500040D03*
X101900040Y-93200040D03*
X40100000Y-114850000D03*
X40100000Y-111550000D03*
X172000000Y-35100040D03*
X172000000Y-38400040D03*
X301700000Y-36750000D03*
X301700000Y-33450000D03*
X263500000Y-38400000D03*
X263500000Y-35100000D03*
X248650000Y-37550040D03*
X248650000Y-34250040D03*
X153450000Y-37550040D03*
X153450000Y-34250040D03*
X115000000Y-38400040D03*
X115000000Y-35100040D03*
X65000000Y-37550040D03*
X65000000Y-34250040D03*
X63300000Y-56650040D03*
X63300000Y-53350040D03*
X177900000Y-52550040D03*
X177900000Y-55850040D03*
X281300000Y-38550000D03*
X281300000Y-35250000D03*
X237750000Y-56650000D03*
X237750000Y-53350000D03*
X158900000Y-55850040D03*
X158900000Y-52550040D03*
X120700000Y-55850040D03*
X120700000Y-52550040D03*
X66100000Y-54150040D03*
X66100000Y-57450040D03*
X180500000Y-58250040D03*
X180500000Y-54950040D03*
X240450000Y-57450000D03*
X240450000Y-54150000D03*
X161700000Y-58250040D03*
X161700000Y-54950040D03*
X123300000Y-54950040D03*
X123300000Y-58250040D03*
X58200000Y-109650000D03*
X58200000Y-106350000D03*
X295250000Y-94050000D03*
X295250000Y-90750000D03*
X263830040Y-92400040D03*
X263830040Y-95700040D03*
X267300000Y-94050000D03*
X267300000Y-90750000D03*
X247850000Y-91550040D03*
X247850000Y-94850040D03*
X153000000Y-94050400D03*
X153000000Y-90750400D03*
X206850000Y-96500040D03*
X206850000Y-93200040D03*
X111050000Y-94100040D03*
X111050000Y-90800040D03*
X87800000Y-92400040D03*
X87800000Y-95700040D03*
D13*
X186615040Y-67335400D03*
X199542040Y-64795400D03*
X234240040Y-105435400D03*
X247167040Y-102895400D03*
D15*
X225450000Y-95700040D03*
X225450000Y-92400040D03*
D13*
X250908790Y-105435400D03*
X263835790Y-102895400D03*
D22*
X94250040Y-76750400D03*
D23*
X94250040Y-74210400D03*
D22*
X102100000Y-74200000D03*
D23*
X102100000Y-76740000D03*
X104640000Y-74200000D03*
X104640000Y-76740000D03*
X107180000Y-74200000D03*
X107180000Y-76740000D03*
D24*
X148500000Y-114960520D03*
X290000000Y-114960520D03*
X196200000Y-114960520D03*
X221700000Y-114960520D03*
X82800000Y-114960520D03*
X169900000Y-114960520D03*
X158050040Y-114960520D03*
X250900000Y-114960520D03*
X59400000Y-114960520D03*
X24900000Y-114960520D03*
X143850000Y-98460520D03*
X143850000Y-100960520D03*
X143850000Y-103450520D03*
X143850000Y-105950520D03*
X143850000Y-108450520D03*
X106850000Y-98450520D03*
X106850000Y-100960520D03*
X106850000Y-103450520D03*
X106850000Y-105950520D03*
X106850000Y-108460520D03*
D13*
X158040040Y-105435400D03*
X170967040Y-102895400D03*
D25*
X61900040Y-73075400D03*
X62700040Y-73075400D03*
X63500040Y-73075400D03*
X64300040Y-73075400D03*
X65100040Y-73075400D03*
X65900040Y-73075400D03*
X66700040Y-73075400D03*
X67500040Y-73075400D03*
X68300040Y-73075400D03*
X69100040Y-73075400D03*
X69900040Y-73075400D03*
D26*
X71600040Y-74775400D03*
X71600040Y-75575400D03*
X71600040Y-76375400D03*
X71600040Y-77175400D03*
X71600040Y-77975400D03*
X71600040Y-78775400D03*
X71600040Y-79575400D03*
X71600040Y-80375400D03*
X71600040Y-81175400D03*
X71600040Y-81975400D03*
X71600040Y-82775400D03*
D25*
X69900040Y-84475400D03*
X69100040Y-84475400D03*
X68300040Y-84475400D03*
X67500040Y-84475400D03*
X66700040Y-84475400D03*
X65900040Y-84475400D03*
X65100040Y-84475400D03*
X64300040Y-84475400D03*
X63500040Y-84475400D03*
X62700040Y-84475400D03*
X61900040Y-84475400D03*
D26*
X60200040Y-82775400D03*
X60200040Y-81975400D03*
X60200040Y-81175400D03*
X60200040Y-80375400D03*
X60200040Y-79575400D03*
X60200040Y-78775400D03*
X60200040Y-77975400D03*
X60200040Y-77175400D03*
X60200040Y-76375400D03*
X60200040Y-75575400D03*
X60200040Y-74775400D03*
D17*
X279266250Y-76960040D03*
X276726250Y-64033040D03*
D11*
X64850000Y-91050000D03*
X60000000Y-86575000D03*
X73650000Y-84050040D03*
X57950000Y-76850040D03*
X57950000Y-80450040D03*
X55950000Y-80450040D03*
X64300000Y-86600000D03*
X66300000Y-97075000D03*
D13*
X281865000Y-29235040D03*
X294792000Y-26695040D03*
D27*
X300993580Y-100465550D03*
D28*
X298493580Y-100465550D03*
X295993580Y-100465550D03*
D29*
X304093580Y-107965550D03*
X292893580Y-107965550D03*
D28*
X300993580Y-114965550D03*
X295993580Y-114965550D03*
X29271347Y-114952828D03*
X34271347Y-114952828D03*
D29*
X26171347Y-107952828D03*
X37371347Y-107952828D03*
D28*
X29271347Y-100452828D03*
X31771347Y-100452828D03*
D27*
X34271347Y-100452828D03*
D20*
X61350000Y-91000000D03*
X62650000Y-91000000D03*
G04 #@! TA.AperFunction,SMDPad,CuDef*
G36*
G01*
X89499999Y-75800000D02*
X90400001Y-75800000D01*
G75*
G02*
X90650000Y-76049999I0J-249999D01*
G01*
X90650000Y-76750001D01*
G75*
G02*
X90400001Y-77000000I-249999J0D01*
G01*
X89499999Y-77000000D01*
G75*
G02*
X89250000Y-76750001I0J249999D01*
G01*
X89250000Y-76049999D01*
G75*
G02*
X89499999Y-75800000I249999J0D01*
G01*
G37*
G04 #@! TD.AperFunction*
G04 #@! TA.AperFunction,SMDPad,CuDef*
G36*
G01*
X89499999Y-73800000D02*
X90400001Y-73800000D01*
G75*
G02*
X90650000Y-74049999I0J-249999D01*
G01*
X90650000Y-74750001D01*
G75*
G02*
X90400001Y-75000000I-249999J0D01*
G01*
X89499999Y-75000000D01*
G75*
G02*
X89250000Y-74750001I0J249999D01*
G01*
X89250000Y-74049999D01*
G75*
G02*
X89499999Y-73800000I249999J0D01*
G01*
G37*
G04 #@! TD.AperFunction*
G04 #@! TA.AperFunction,SMDPad,CuDef*
G36*
G01*
X86399999Y-73800000D02*
X87300001Y-73800000D01*
G75*
G02*
X87550000Y-74049999I0J-249999D01*
G01*
X87550000Y-74750001D01*
G75*
G02*
X87300001Y-75000000I-249999J0D01*
G01*
X86399999Y-75000000D01*
G75*
G02*
X86150000Y-74750001I0J249999D01*
G01*
X86150000Y-74049999D01*
G75*
G02*
X86399999Y-73800000I249999J0D01*
G01*
G37*
G04 #@! TD.AperFunction*
G04 #@! TA.AperFunction,SMDPad,CuDef*
G36*
G01*
X86399999Y-75800000D02*
X87300001Y-75800000D01*
G75*
G02*
X87550000Y-76049999I0J-249999D01*
G01*
X87550000Y-76750001D01*
G75*
G02*
X87300001Y-77000000I-249999J0D01*
G01*
X86399999Y-77000000D01*
G75*
G02*
X86150000Y-76750001I0J249999D01*
G01*
X86150000Y-76049999D01*
G75*
G02*
X86399999Y-75800000I249999J0D01*
G01*
G37*
G04 #@! TD.AperFunction*
D30*
X37800000Y-28190000D03*
X38650000Y-28190000D03*
X39500000Y-28190000D03*
X40350000Y-28190000D03*
X41200000Y-28190000D03*
X42050000Y-28190000D03*
X42900000Y-28190000D03*
X43750000Y-28190000D03*
X38650000Y-26840000D03*
X40350000Y-26840000D03*
X39500000Y-26840000D03*
X37800000Y-26840000D03*
X42050000Y-26840000D03*
X42900000Y-26840000D03*
X43750000Y-26840000D03*
X41200000Y-26840000D03*
D31*
X36450000Y-27210000D03*
X45100000Y-27210000D03*
D32*
X36450000Y-23830000D03*
X45100000Y-23830000D03*
D33*
X48000000Y-30000000D03*
X304914296Y-50597604D03*
X304914298Y-55414298D03*
X104300000Y-60269790D03*
X104300000Y-62980210D03*
X85222996Y-62980210D03*
X85300000Y-60269790D03*
X42350000Y-61850000D03*
X42350000Y-60224998D03*
X133400004Y-105000004D03*
X130220207Y-112420207D03*
X69100000Y-82749998D03*
X62300000Y-74599960D03*
X66629218Y-74625930D03*
X70550000Y-69250000D03*
X59100000Y-28950000D03*
X61500000Y-82800000D03*
X53100000Y-72850000D03*
X30950000Y-62900000D03*
X25149990Y-63325040D03*
X69910021Y-76428149D03*
X70420711Y-61620701D03*
X87700000Y-61620701D03*
X102975000Y-61625000D03*
X87700000Y-60250000D03*
X295902590Y-80302630D03*
X30900000Y-85050000D03*
X28819790Y-65800000D03*
X88970000Y-50700000D03*
X55875000Y-86524998D03*
X55625000Y-96100000D03*
X88960000Y-60240000D03*
X85649997Y-84250043D03*
X88960000Y-80940042D03*
X289550000Y-80500520D03*
X295849998Y-81400520D03*
X104349982Y-80400520D03*
X243830001Y-80380517D03*
X52874996Y-28950036D03*
X63500000Y-71550000D03*
X43199994Y-36600000D03*
X64193710Y-71049947D03*
X42750000Y-34300000D03*
X24300000Y-64549994D03*
X26900009Y-64550000D03*
X33350000Y-27400000D03*
X49774665Y-24818649D03*
X71194790Y-73590528D03*
X71200000Y-54150040D03*
X111214799Y-54195721D03*
X79300000Y-97800000D03*
X71599998Y-94700000D03*
X109160480Y-94900040D03*
X73900000Y-96965888D03*
X67500000Y-74400002D03*
X63750000Y-37550000D03*
X110910480Y-37550040D03*
X41050000Y-54950000D03*
X58699992Y-71900520D03*
X145950000Y-54960520D03*
X79600000Y-96500000D03*
X73850000Y-94600002D03*
X75747114Y-96495756D03*
X145410480Y-94100040D03*
X146039520Y-92400040D03*
X36900000Y-36250000D03*
X24650000Y-103350000D03*
X34750000Y-86249998D03*
X39100000Y-96150000D03*
X60000000Y-34300000D03*
X30282866Y-68922183D03*
X33850000Y-43900000D03*
X55600000Y-46050000D03*
X284830210Y-69030252D03*
X288300000Y-83300040D03*
X300799141Y-48000899D03*
X291390000Y-31100040D03*
X291400000Y-103349998D03*
X300243341Y-55169790D03*
X109550000Y-60950000D03*
X25950000Y-67500000D03*
X109550000Y-79160520D03*
X25400000Y-61499990D03*
X282825000Y-78450520D03*
X292850000Y-59900520D03*
X302700000Y-59900000D03*
X306050000Y-64550000D03*
X302800000Y-64550000D03*
X288862549Y-82417041D03*
X290250041Y-82400520D03*
X30717198Y-84073734D03*
X32800004Y-84050000D03*
X29550000Y-61450040D03*
X30600002Y-76900040D03*
X60000000Y-90200000D03*
X61400000Y-96500000D03*
X255400000Y-84250000D03*
X253300000Y-31350040D03*
X252950000Y-103450040D03*
X263500000Y-58150002D03*
X262800002Y-46050002D03*
X263500000Y-65400000D03*
X205650000Y-65100040D03*
X196150000Y-32100040D03*
X205699998Y-50450006D03*
X222400000Y-98900000D03*
X211950000Y-83700000D03*
X177099996Y-32600000D03*
X174650000Y-86450002D03*
X184600000Y-67350002D03*
X184600000Y-48300000D03*
X169600000Y-109460536D03*
X158050000Y-31700040D03*
X156050000Y-86374994D03*
X165550000Y-67350000D03*
X165549994Y-48300000D03*
X156050000Y-103474990D03*
X119950000Y-88550000D03*
X162700000Y-69950000D03*
X148500000Y-50450000D03*
X119949998Y-33750040D03*
X119950000Y-103150000D03*
X127400000Y-48300000D03*
X127399998Y-67350000D03*
X98750000Y-31300000D03*
X92050000Y-50250036D03*
X97600000Y-86400000D03*
X92050000Y-65475000D03*
X92300005Y-95700005D03*
X93231989Y-91481989D03*
X77850000Y-65250040D03*
X72301648Y-46349937D03*
X78700000Y-108800000D03*
X56700000Y-111600000D03*
X80399988Y-91200000D03*
X65700000Y-110700000D03*
X62852680Y-31721624D03*
X60339480Y-111600000D03*
X66100000Y-62850000D03*
X66100000Y-60200000D03*
X247550000Y-71850000D03*
X247550000Y-74000000D03*
X305124980Y-74225020D03*
X78000000Y-97169790D03*
X76198852Y-97159896D03*
X72900000Y-94600000D03*
X100360480Y-93200040D03*
X234250000Y-98625000D03*
X234250000Y-31400000D03*
X262700000Y-55450000D03*
X262699988Y-69900012D03*
X241950001Y-48300000D03*
X241950001Y-67349999D03*
X234224998Y-84350000D03*
X69900000Y-74750000D03*
X66400000Y-38400000D03*
X104975040Y-38400040D03*
X145500000Y-38400038D03*
X68309050Y-56590990D03*
X68309050Y-74746839D03*
X105950000Y-56650000D03*
X240700000Y-55850000D03*
X240699996Y-40250000D03*
X91419790Y-60244786D03*
X92050000Y-76510520D03*
X90250000Y-60250006D03*
X91350000Y-75350000D03*
X70250000Y-75600000D03*
X55300002Y-76250000D03*
X107200000Y-62350000D03*
X72024998Y-62350000D03*
X69100000Y-74400000D03*
X69100000Y-55850040D03*
X107100000Y-55870233D03*
X239600000Y-39200000D03*
X239600000Y-55850002D03*
X144600000Y-55860520D03*
D34*
X48000000Y-30000000D02*
X48475000Y-29525000D01*
X48475000Y-29525000D02*
X48475000Y-28575040D01*
X40351552Y-29001552D02*
X40351552Y-28187233D01*
X41600000Y-30250000D02*
X40351552Y-29001552D01*
X41600000Y-31100000D02*
X41600000Y-30250000D01*
D35*
X191250040Y-27928400D02*
X191250040Y-35000000D01*
X190017040Y-26695400D02*
X191250040Y-27928400D01*
X283436639Y-24864839D02*
X285266840Y-26695040D01*
X280495681Y-24864839D02*
X283436639Y-24864839D01*
X278716279Y-26644241D02*
X280495681Y-24864839D01*
X267400000Y-31055518D02*
X271811277Y-26644241D01*
X271811277Y-26644241D02*
X278716279Y-26644241D01*
X267400000Y-34250040D02*
X267400000Y-31055518D01*
X292961799Y-24864839D02*
X294792000Y-26695040D01*
X287095681Y-24864839D02*
X292961799Y-24864839D01*
X285266840Y-26693680D02*
X287095681Y-24864839D01*
X285266840Y-26695040D02*
X285266840Y-26693680D01*
X229300000Y-27877360D02*
X229300000Y-35200000D01*
X228117680Y-26695040D02*
X229300000Y-27877360D01*
X134400000Y-28228040D02*
X134400000Y-34300000D01*
X132867000Y-26695040D02*
X134400000Y-28228040D01*
X96300000Y-28228040D02*
X96300000Y-34200000D01*
X94767000Y-26695040D02*
X96300000Y-28228040D01*
X76900000Y-27878040D02*
X76900000Y-35100000D01*
X75717000Y-26695040D02*
X76900000Y-27878040D01*
X28277960Y-39200000D02*
X25933000Y-36855040D01*
X57800000Y-39200000D02*
X28277960Y-39200000D01*
X61899960Y-35100040D02*
X57800000Y-39200000D01*
X67600000Y-35100040D02*
X61899960Y-35100040D01*
X172050040Y-84928400D02*
X172050040Y-90750400D01*
X170967040Y-83845400D02*
X172050040Y-84928400D01*
X287319491Y-57735601D02*
X285489290Y-55905400D01*
X290802839Y-57735601D02*
X287319491Y-57735601D01*
X292633040Y-55905400D02*
X290802839Y-57735601D01*
X304914296Y-50214296D02*
X304914296Y-50597604D01*
X300445160Y-45745160D02*
X304914296Y-50214296D01*
X299555480Y-45745160D02*
X300445160Y-45745160D01*
X302592995Y-57735601D02*
X304914298Y-55414298D01*
X294463241Y-57735601D02*
X302592995Y-57735601D01*
X292633040Y-55905400D02*
X294463241Y-57735601D01*
X293160320Y-39350000D02*
X299555480Y-45745160D01*
X286100000Y-39350000D02*
X293160320Y-39350000D01*
X235100000Y-48287880D02*
X235100000Y-52550040D01*
X237642720Y-45745160D02*
X235100000Y-48287880D01*
X215900000Y-48437800D02*
X218592640Y-45745160D01*
X215900000Y-53350040D02*
X215900000Y-48437800D01*
X139700000Y-48437120D02*
X139700000Y-53350040D01*
X142392000Y-45745120D02*
X139700000Y-48437120D01*
X101500000Y-48537120D02*
X104292000Y-45745120D01*
X101500000Y-53350040D02*
X101500000Y-48537120D01*
X82700000Y-48287120D02*
X85242000Y-45745120D01*
X82700000Y-52550040D02*
X82700000Y-48287120D01*
X39700000Y-48424620D02*
X39700000Y-52550040D01*
X42379500Y-45745120D02*
X39700000Y-48424620D01*
X199500000Y-64753360D02*
X199542040Y-64795400D01*
X199500000Y-58250040D02*
X199500000Y-64753360D01*
X287319491Y-73125199D02*
X285489290Y-74955400D01*
X290802839Y-73125199D02*
X287319491Y-73125199D01*
X292633040Y-74955400D02*
X290802839Y-73125199D01*
X297557891Y-66792829D02*
X294439382Y-66792829D01*
X284200000Y-73666110D02*
X285489290Y-74955400D01*
X284200000Y-66644358D02*
X284200000Y-73666110D01*
X294439382Y-66792829D02*
X292439382Y-64792829D01*
X299555480Y-64795240D02*
X297557891Y-66792829D01*
X292439382Y-64792829D02*
X286051529Y-64792829D01*
X284809679Y-66034679D02*
X284200000Y-66644358D01*
X285040046Y-65790046D02*
X285047179Y-65797179D01*
X285047179Y-65797179D02*
X284809679Y-66034679D01*
X284815321Y-66034679D02*
X284809679Y-66034679D01*
X285800000Y-64550000D02*
X285800000Y-65050000D01*
X285800000Y-65050000D02*
X284815321Y-66034679D01*
X286051529Y-64798471D02*
X285800000Y-65050000D01*
X286051529Y-64792829D02*
X286051529Y-64798471D01*
X286042829Y-64792829D02*
X285800000Y-64550000D01*
X286051529Y-64792829D02*
X286042829Y-64792829D01*
X283350000Y-62100000D02*
X285800000Y-64550000D01*
X274400000Y-62100000D02*
X283350000Y-62100000D01*
X270500000Y-58200000D02*
X274400000Y-62100000D01*
X231097520Y-58250040D02*
X237642720Y-64795240D01*
X230100000Y-58250040D02*
X231097520Y-58250040D01*
X218500000Y-64702560D02*
X218592640Y-64795200D01*
X218500000Y-57450040D02*
X218500000Y-64702560D01*
X142300000Y-64703200D02*
X142392000Y-64795200D01*
X142300000Y-57450040D02*
X142300000Y-64703200D01*
X104300000Y-57450040D02*
X104300000Y-60269790D01*
X104292000Y-62988210D02*
X104300000Y-62980210D01*
X104292000Y-64795200D02*
X104292000Y-62988210D01*
X85242000Y-64795200D02*
X85242000Y-62999214D01*
X85242000Y-62999214D02*
X85222996Y-62980210D01*
X85300000Y-58250040D02*
X85300000Y-60269790D01*
X43350000Y-61850000D02*
X42350000Y-61850000D01*
X44760820Y-63260820D02*
X43350000Y-61850000D01*
X44760820Y-64795240D02*
X44760820Y-63260820D01*
X33650000Y-61850000D02*
X42350000Y-61850000D01*
X28049871Y-70449911D02*
X28049871Y-65667431D01*
X30695540Y-73095580D02*
X28049871Y-70449911D01*
X28717302Y-65000000D02*
X30500000Y-65000000D01*
X30500000Y-65000000D02*
X33650000Y-61850000D01*
X28049871Y-65667431D02*
X28717302Y-65000000D01*
X30695540Y-74955400D02*
X30695540Y-73095580D01*
X42350000Y-58250040D02*
X42350000Y-60224998D01*
X286000000Y-84577240D02*
X285268080Y-83845320D01*
X286000000Y-91550040D02*
X286000000Y-84577240D01*
X229200000Y-84927600D02*
X229200000Y-90750000D01*
X228117680Y-83845280D02*
X229200000Y-84927600D01*
X209510801Y-84288481D02*
X209067600Y-83845280D01*
X209510801Y-91539239D02*
X209510801Y-84288481D01*
X209450000Y-91600040D02*
X209510801Y-91539239D01*
X130250000Y-86462280D02*
X132867000Y-83845280D01*
X130250000Y-91600040D02*
X130250000Y-86462280D01*
X95650000Y-84728280D02*
X94767000Y-83845280D01*
X95650000Y-91600040D02*
X95650000Y-84728280D01*
X81346000Y-92050000D02*
X82200000Y-92050000D01*
X77546000Y-95850000D02*
X81346000Y-92050000D01*
X66100000Y-95850000D02*
X77546000Y-95850000D01*
X64255280Y-94005280D02*
X66100000Y-95850000D01*
X64033000Y-94005280D02*
X64255280Y-94005280D01*
X25933040Y-94005400D02*
X27908230Y-92030210D01*
X27908230Y-92030210D02*
X33169830Y-92030210D01*
X35405320Y-94005320D02*
X33430210Y-92030210D01*
X35458080Y-94005320D02*
X35405320Y-94005320D01*
X33450000Y-92010420D02*
X33430210Y-92030210D01*
X33450000Y-91750040D02*
X33169830Y-92030210D01*
X33450000Y-91700040D02*
X33450000Y-92010420D01*
X33430210Y-92030210D02*
X33169830Y-92030210D01*
X33450000Y-91700040D02*
X33450000Y-91750040D01*
X40100000Y-98647240D02*
X40100000Y-105600000D01*
X42800000Y-108300000D02*
X42800000Y-109050000D01*
X40100000Y-105600000D02*
X42800000Y-108300000D01*
X35458080Y-94005320D02*
X40100000Y-98647240D01*
X37851778Y-82010520D02*
X34099141Y-85763157D01*
X33450000Y-90891742D02*
X33450000Y-91700040D01*
X47688540Y-82010520D02*
X37851778Y-82010520D01*
X34099141Y-90242601D02*
X33450000Y-90891742D01*
X34099141Y-85763157D02*
X34099141Y-90242601D01*
X49523340Y-83845320D02*
X47688540Y-82010520D01*
X283250000Y-100877280D02*
X285268080Y-102895360D01*
X283250000Y-96550040D02*
X283250000Y-100877280D01*
X240025000Y-102893690D02*
X240023290Y-102895400D01*
X240025000Y-96550040D02*
X240025000Y-102893690D01*
X245212400Y-104850040D02*
X247167040Y-102895400D01*
X241977930Y-104850040D02*
X245212400Y-104850040D01*
X240023290Y-102895400D02*
X241977930Y-104850040D01*
X245966178Y-114900520D02*
X247780201Y-113086497D01*
X247780201Y-103508561D02*
X247167040Y-102895400D01*
X232565660Y-114900520D02*
X245966178Y-114900520D01*
X247780201Y-113086497D02*
X247780201Y-103508561D01*
X230720540Y-113055400D02*
X232565660Y-114900520D01*
X132850000Y-102877960D02*
X132867440Y-102895400D01*
X132850000Y-96500040D02*
X132850000Y-102877960D01*
X133400004Y-103400004D02*
X133400004Y-105000004D01*
X132895400Y-102895400D02*
X133400004Y-103400004D01*
X132867440Y-102895400D02*
X132895400Y-102895400D01*
X129795208Y-112845206D02*
X130220207Y-112420207D01*
X125633490Y-111050000D02*
X127428696Y-112845206D01*
X120807580Y-111050000D02*
X125633490Y-111050000D01*
X118802180Y-113055400D02*
X120807580Y-111050000D01*
X127428696Y-112845206D02*
X129795208Y-112845206D01*
X101900040Y-102884380D02*
X101911060Y-102895400D01*
X101900040Y-96500040D02*
X101900040Y-102884380D01*
X102377741Y-103362081D02*
X101911060Y-102895400D01*
X101357302Y-113050000D02*
X102377741Y-112029561D01*
X94350000Y-113050000D02*
X101357302Y-113050000D01*
X92350040Y-111050040D02*
X94350000Y-113050000D01*
X102377741Y-112029561D02*
X102377741Y-103362081D01*
X89850900Y-111050040D02*
X92350040Y-111050040D01*
X87845540Y-113055400D02*
X89850900Y-111050040D01*
X172000040Y-35099960D02*
X172000000Y-35100000D01*
X172000040Y-27728400D02*
X172000040Y-35099960D01*
X170967040Y-26695400D02*
X172000040Y-27728400D01*
X301700000Y-29311880D02*
X301700000Y-33450000D01*
X304316840Y-26695040D02*
X301700000Y-29311880D01*
X263500000Y-29411880D02*
X263500000Y-35100000D01*
X266216840Y-26695040D02*
X263500000Y-29411880D01*
D34*
X56800000Y-72875000D02*
X57675000Y-72875000D01*
X59575400Y-74775400D02*
X60200040Y-74775400D01*
X57675000Y-72875000D02*
X59575400Y-74775400D01*
X59200000Y-82800000D02*
X60175440Y-82800000D01*
X58900000Y-83100000D02*
X59200000Y-82800000D01*
X60175440Y-82800000D02*
X60200040Y-82775400D01*
X57925000Y-83100000D02*
X58900000Y-83100000D01*
X56800000Y-72875000D02*
X54600000Y-72875000D01*
X69100040Y-84475400D02*
X69100040Y-82750038D01*
X69100040Y-82750038D02*
X69100000Y-82749998D01*
X62124560Y-74775400D02*
X62300000Y-74599960D01*
X62306480Y-74599960D02*
X62300000Y-74599960D01*
X62700040Y-74206400D02*
X62306480Y-74599960D01*
X62700040Y-73075400D02*
X62700040Y-74206400D01*
X60200040Y-74775400D02*
X62124560Y-74775400D01*
X66700040Y-74555108D02*
X66629218Y-74625930D01*
X66700040Y-73075400D02*
X66700040Y-74555108D01*
X72704842Y-76375400D02*
X72743741Y-76336501D01*
X70375000Y-71725000D02*
X70375000Y-70700000D01*
X71600040Y-76375400D02*
X72704842Y-76375400D01*
X72743741Y-74093741D02*
X70375000Y-71725000D01*
X72743741Y-76336501D02*
X72743741Y-74093741D01*
X70375000Y-69425000D02*
X70550000Y-69250000D01*
X70375000Y-70700000D02*
X70375000Y-69425000D01*
X59100000Y-28950000D02*
X57475000Y-28950000D01*
X61475400Y-82775400D02*
X61500000Y-82800000D01*
X60200040Y-82775400D02*
X61475400Y-82775400D01*
X53125000Y-72875000D02*
X53100000Y-72850000D01*
X54600000Y-72875000D02*
X53125000Y-72875000D01*
X30950000Y-62900000D02*
X30524960Y-63325040D01*
X30524960Y-63325040D02*
X25149990Y-63325040D01*
X71600040Y-76375400D02*
X69962770Y-76375400D01*
X69962770Y-76375400D02*
X69910021Y-76428149D01*
X70420711Y-61620701D02*
X87700000Y-61620701D01*
X74750000Y-86550000D02*
X75700000Y-86550000D01*
X69419101Y-85619101D02*
X73819101Y-85619101D01*
X69100040Y-85300040D02*
X69419101Y-85619101D01*
X73819101Y-85619101D02*
X74750000Y-86550000D01*
X69100040Y-84475400D02*
X69100040Y-85300040D01*
X102970701Y-61620701D02*
X102975000Y-61625000D01*
X87700000Y-61620701D02*
X102970701Y-61620701D01*
X97911606Y-72551606D02*
X93048394Y-72551606D01*
X91200000Y-74400000D02*
X89950000Y-74400000D01*
X93048394Y-72551606D02*
X91200000Y-74400000D01*
X102100000Y-76740000D02*
X97911606Y-72551606D01*
X89950000Y-74400000D02*
X86850000Y-74400000D01*
X87695000Y-57875000D02*
X87695000Y-60245000D01*
X87695000Y-60245000D02*
X87700000Y-60250000D01*
X261333509Y-77800000D02*
X263455587Y-75677922D01*
X289919903Y-79706819D02*
X291213084Y-81000000D01*
X295205220Y-81000000D02*
X295902590Y-80302630D01*
X275129109Y-79706819D02*
X289919903Y-79706819D01*
X238750000Y-75200000D02*
X241350000Y-77800000D01*
X263455587Y-75677922D02*
X271100212Y-75677922D01*
X291213084Y-81000000D02*
X295205220Y-81000000D01*
X241350000Y-77800000D02*
X261333509Y-77800000D01*
X271100212Y-75677922D02*
X275129109Y-79706819D01*
X105214221Y-79854221D02*
X234095779Y-79854221D01*
X234095779Y-79854221D02*
X238750000Y-75200000D01*
X102100000Y-76740000D02*
X105214221Y-79854221D01*
X79066788Y-76225400D02*
X78812889Y-75971501D01*
X81440040Y-76225400D02*
X79066788Y-76225400D01*
X76271551Y-78271501D02*
X75912889Y-78271501D01*
X78571551Y-75971501D02*
X76271551Y-78271501D01*
X78812889Y-75971501D02*
X78571551Y-75971501D01*
X36449319Y-23825000D02*
X36451552Y-23827233D01*
X33350000Y-23825000D02*
X36449319Y-23825000D01*
X48497767Y-23827233D02*
X48500000Y-23825000D01*
X45101552Y-23827233D02*
X48497767Y-23827233D01*
X72425000Y-71775000D02*
X72425000Y-70700000D01*
X73400000Y-76506440D02*
X73400000Y-72750000D01*
X72731040Y-77175400D02*
X73400000Y-76506440D01*
X73400000Y-72750000D02*
X72425000Y-71775000D01*
X71600040Y-77175400D02*
X72731040Y-77175400D01*
X58525400Y-75575400D02*
X60200040Y-75575400D01*
X57875000Y-74925000D02*
X58525400Y-75575400D01*
X56800000Y-74925000D02*
X57875000Y-74925000D01*
X60200040Y-81975400D02*
X56124600Y-81975400D01*
X55875000Y-82225000D02*
X55875000Y-83100000D01*
X56124600Y-81975400D02*
X55875000Y-82225000D01*
X55875000Y-83100000D02*
X55875000Y-85200000D01*
X46550040Y-67920400D02*
X46550040Y-74220400D01*
X55875000Y-81775000D02*
X55899600Y-81750400D01*
X55875000Y-82225000D02*
X55875000Y-81775000D01*
X55899600Y-81750400D02*
X56124600Y-81975400D01*
X56800000Y-76000000D02*
X56800000Y-74925000D01*
X50750000Y-77050000D02*
X55750000Y-77050000D01*
X47920400Y-74220400D02*
X50750000Y-77050000D01*
X55750000Y-77050000D02*
X56800000Y-76000000D01*
X46550040Y-74220400D02*
X47920400Y-74220400D01*
X88970000Y-52720000D02*
X88965000Y-52725000D01*
X88970000Y-50700000D02*
X88970000Y-52720000D01*
X90235000Y-52725000D02*
X90235000Y-50735000D01*
X90200000Y-50700000D02*
X88970000Y-50700000D01*
X90235000Y-50735000D02*
X90200000Y-50700000D01*
X91505000Y-51155000D02*
X91050000Y-50700000D01*
X91050000Y-50700000D02*
X90200000Y-50700000D01*
X91505000Y-52725000D02*
X91505000Y-51155000D01*
X87695000Y-51155000D02*
X88150000Y-50700000D01*
X88150000Y-50700000D02*
X88970000Y-50700000D01*
X87695000Y-52725000D02*
X87695000Y-51155000D01*
X55875000Y-85200000D02*
X55875000Y-86524998D01*
X56025000Y-96500000D02*
X55625000Y-96100000D01*
X57000000Y-96500000D02*
X56025000Y-96500000D01*
X66698701Y-70484177D02*
X66698701Y-69198701D01*
X66400000Y-68900000D02*
X66400000Y-67800000D01*
X66698701Y-69198701D02*
X66400000Y-68900000D01*
X65100040Y-72082838D02*
X66698701Y-70484177D01*
X65100040Y-73075400D02*
X65100040Y-72082838D01*
X31525263Y-73061699D02*
X28819790Y-70356226D01*
X46550040Y-74220400D02*
X42629600Y-74220400D01*
X38863564Y-75200000D02*
X36725263Y-73061699D01*
X36725263Y-73061699D02*
X31525263Y-73061699D01*
X41650000Y-75200000D02*
X38863564Y-75200000D01*
X28819790Y-70356226D02*
X28819790Y-65800000D01*
X42629600Y-74220400D02*
X41650000Y-75200000D01*
X88965000Y-57875000D02*
X88965000Y-60235000D01*
X88965000Y-60235000D02*
X88960000Y-60240000D01*
X49400000Y-27780040D02*
X50195000Y-28575040D01*
X49400000Y-25425040D02*
X49400000Y-27780040D01*
X48475000Y-24500040D02*
X49400000Y-25425040D01*
X48475000Y-23800040D02*
X48475000Y-24500040D01*
X88960000Y-80940042D02*
X89499522Y-80400520D01*
X89499522Y-80400520D02*
X104349982Y-80400520D01*
X289550000Y-80500520D02*
X290749999Y-81700519D01*
X290749999Y-81700519D02*
X295549999Y-81700519D01*
X295549999Y-81700519D02*
X295849998Y-81400520D01*
X74750000Y-84500520D02*
X76950000Y-84500520D01*
X74300480Y-84950040D02*
X74750000Y-84500520D01*
X85599520Y-84300520D02*
X85649997Y-84250043D01*
X77150000Y-84300520D02*
X85599520Y-84300520D01*
X76950000Y-84500520D02*
X77150000Y-84300520D01*
X70249680Y-84950040D02*
X74300480Y-84950040D01*
X69900040Y-84600400D02*
X70249680Y-84950040D01*
X54171819Y-80022619D02*
X55899600Y-81750400D01*
X38327381Y-80022619D02*
X54171819Y-80022619D01*
X33350000Y-85000000D02*
X38327381Y-80022619D01*
X30950000Y-85000000D02*
X33350000Y-85000000D01*
X30900000Y-85050000D02*
X30950000Y-85000000D01*
X289532879Y-80517641D02*
X243967125Y-80517641D01*
X243967125Y-80517641D02*
X243830001Y-80380517D01*
X289550000Y-80500520D02*
X289532879Y-80517641D01*
X104387894Y-80438432D02*
X243772086Y-80438432D01*
X104349982Y-80400520D02*
X104387894Y-80438432D01*
X243772086Y-80438432D02*
X243830001Y-80380517D01*
X42901552Y-26342259D02*
X42901552Y-26837233D01*
X42652825Y-26093532D02*
X42901552Y-26342259D01*
X38900279Y-26093532D02*
X42652825Y-26093532D01*
X38651552Y-26342259D02*
X38900279Y-26093532D01*
X38651552Y-26837233D02*
X38651552Y-26342259D01*
X54500000Y-28950000D02*
X52875032Y-28950000D01*
X52875032Y-28950000D02*
X52874996Y-28950036D01*
X50375000Y-26450040D02*
X52874996Y-28950036D01*
X50375000Y-26375040D02*
X50375000Y-26450040D01*
X63500000Y-73075360D02*
X63500040Y-73075400D01*
X63500000Y-71550000D02*
X63500000Y-73075360D01*
X43199994Y-35126686D02*
X43199994Y-36600000D01*
X43600000Y-33125000D02*
X43600000Y-34726680D01*
X43600000Y-34726680D02*
X43199994Y-35126686D01*
X64300040Y-73075400D02*
X64300040Y-71156277D01*
X64300040Y-71156277D02*
X64193710Y-71049947D01*
X42725000Y-34300000D02*
X42750000Y-34300000D01*
X41600000Y-33175000D02*
X42725000Y-34300000D01*
D35*
X210600000Y-28227480D02*
X210600000Y-34200000D01*
X209067600Y-26695080D02*
X210600000Y-28227480D01*
X81436141Y-78271501D02*
X81440040Y-78275400D01*
X78812889Y-78271501D02*
X81436141Y-78271501D01*
X74598728Y-79501702D02*
X77582688Y-79501702D01*
X71775440Y-78600000D02*
X73697026Y-78600000D01*
X77582688Y-79501702D02*
X78812889Y-78271501D01*
X73697026Y-78600000D02*
X74598728Y-79501702D01*
X71600040Y-78775400D02*
X71775440Y-78600000D01*
X73634390Y-78100000D02*
X75762889Y-75971501D01*
X75762889Y-75971501D02*
X75912889Y-75971501D01*
X71724640Y-78100000D02*
X73634390Y-78100000D01*
X71600040Y-77975400D02*
X71724640Y-78100000D01*
X75500000Y-75500000D02*
X75912889Y-75912889D01*
X75500000Y-73700000D02*
X75500000Y-75500000D01*
X75912889Y-75912889D02*
X75912889Y-75971501D01*
X75400000Y-73600000D02*
X75500000Y-73700000D01*
X59624600Y-84475400D02*
X61900040Y-84475400D01*
X58900000Y-85200000D02*
X59624600Y-84475400D01*
X57925000Y-85200000D02*
X58900000Y-85200000D01*
X68500000Y-69419274D02*
X68500000Y-67800000D01*
X65900040Y-72019234D02*
X68500000Y-69419274D01*
X65900040Y-73075400D02*
X65900040Y-72019234D01*
X26900003Y-64549994D02*
X26900009Y-64550000D01*
X24300000Y-64549994D02*
X26900003Y-64549994D01*
X248700000Y-28227280D02*
X248700000Y-34200000D01*
X247167760Y-26695040D02*
X248700000Y-28227280D01*
X115000000Y-31500000D02*
X115000000Y-35100000D01*
X114260201Y-30760201D02*
X115000000Y-31500000D01*
X114260201Y-27138241D02*
X114260201Y-30760201D01*
X113817000Y-26695040D02*
X114260201Y-27138241D01*
X57600000Y-38700000D02*
X62049960Y-34250040D01*
X46900000Y-38700000D02*
X57600000Y-38700000D01*
X62049960Y-34250040D02*
X65000000Y-34250040D01*
X45055040Y-36855040D02*
X46900000Y-38700000D01*
X44983000Y-36855040D02*
X45055040Y-36855040D01*
X66192000Y-45745120D02*
X63300000Y-48637120D01*
X63300000Y-48637120D02*
X63300000Y-53350040D01*
X177900000Y-48337440D02*
X177900000Y-52550040D01*
X180492040Y-45745400D02*
X177900000Y-48337440D01*
X33350000Y-27400000D02*
X33350000Y-25875000D01*
X50525000Y-23800040D02*
X50525000Y-24068314D01*
X50525000Y-24068314D02*
X49774665Y-24818649D01*
X71600040Y-73995778D02*
X71194790Y-73590528D01*
X71600040Y-74775400D02*
X71600040Y-73995778D01*
X142300000Y-54150040D02*
X104300000Y-54150040D01*
X142300000Y-54150040D02*
X218500000Y-54150040D01*
X66100000Y-54150040D02*
X104300000Y-54150040D01*
X240449960Y-54150040D02*
X240450000Y-54150000D01*
X218500000Y-54150040D02*
X240449960Y-54150040D01*
X270500000Y-54850000D02*
X267600000Y-54850000D01*
X244975000Y-54150000D02*
X240450000Y-54150000D01*
X248560601Y-57735601D02*
X244975000Y-54150000D01*
X261964399Y-57735601D02*
X248560601Y-57735601D01*
X264850000Y-54850000D02*
X261964399Y-57735601D01*
X267600000Y-54850000D02*
X264850000Y-54850000D01*
X130250000Y-94900040D02*
X209450000Y-94900040D01*
X227294362Y-94900040D02*
X209450000Y-94900040D01*
X227344362Y-94850040D02*
X227294362Y-94900040D01*
X286000000Y-94850040D02*
X227344362Y-94850040D01*
X95650000Y-94900040D02*
X84199960Y-94900040D01*
X81300000Y-97800000D02*
X79300000Y-97800000D01*
X84199960Y-94900040D02*
X81300000Y-97800000D01*
X66535578Y-90382171D02*
X70853407Y-94700000D01*
X65900040Y-84475400D02*
X65900040Y-85650040D01*
X70853407Y-94700000D02*
X71599998Y-94700000D01*
X66535578Y-86285578D02*
X66535578Y-90382171D01*
X65900040Y-85650040D02*
X66535578Y-86285578D01*
X109160480Y-94900040D02*
X130250000Y-94900040D01*
X95650000Y-94900040D02*
X109160480Y-94900040D01*
X59928367Y-105619182D02*
X66137029Y-99410520D01*
X71455368Y-99410520D02*
X73900000Y-96965888D01*
X66137029Y-99410520D02*
X71455368Y-99410520D01*
X59928367Y-107921633D02*
X59928367Y-105619182D01*
X58200000Y-109650000D02*
X59928367Y-107921633D01*
X37674175Y-111550000D02*
X34271347Y-114952828D01*
X40100000Y-111550000D02*
X37674175Y-111550000D01*
X40100000Y-106300000D02*
X40100000Y-111550000D01*
X37617040Y-103817040D02*
X40100000Y-106300000D01*
X37617040Y-102895400D02*
X37617040Y-103817040D01*
X67500040Y-74399962D02*
X67500000Y-74400002D01*
X67500040Y-73075400D02*
X67500040Y-74399962D01*
X248650000Y-37550040D02*
X210575000Y-37550040D01*
X177100040Y-37550040D02*
X177100000Y-37550000D01*
X210575000Y-37550040D02*
X177100040Y-37550040D01*
X153450040Y-37550000D02*
X153450000Y-37550040D01*
X177100000Y-37550000D02*
X153450040Y-37550000D01*
X153450000Y-37550040D02*
X134400000Y-37550040D01*
X63750040Y-37550040D02*
X96300000Y-37550040D01*
X63750000Y-37550000D02*
X63750040Y-37550040D01*
X267400000Y-37550040D02*
X248650000Y-37550040D01*
X110910480Y-37550040D02*
X96300000Y-37550040D01*
X134400000Y-37550040D02*
X110910480Y-37550040D01*
X85300000Y-54950040D02*
X123300000Y-54950040D01*
X230100000Y-54950040D02*
X199500000Y-54950040D01*
X199500000Y-54950040D02*
X180500000Y-54950040D01*
X180500000Y-54950040D02*
X161700000Y-54950040D01*
X161700000Y-54950040D02*
X123300000Y-54950040D01*
X85300000Y-54950040D02*
X42350000Y-54950040D01*
X41050040Y-54950040D02*
X41050000Y-54950000D01*
X42350000Y-54950040D02*
X41050040Y-54950040D01*
X230100000Y-54950040D02*
X243750000Y-54950040D01*
X59874872Y-73075400D02*
X58699992Y-71900520D01*
X61900040Y-73075400D02*
X59874872Y-73075400D01*
X152950360Y-94100040D02*
X153000000Y-94050400D01*
X234250440Y-94050000D02*
X234250040Y-94050400D01*
X267300000Y-94050000D02*
X234250440Y-94050000D01*
X229200400Y-94050400D02*
X229200000Y-94050000D01*
X234250040Y-94050400D02*
X229200400Y-94050400D01*
X191050440Y-94050000D02*
X191050040Y-94050400D01*
X229200000Y-94050000D02*
X191050440Y-94050000D01*
X191050040Y-94050400D02*
X172050040Y-94050400D01*
X172050040Y-94050400D02*
X153000000Y-94050400D01*
X111050000Y-94100040D02*
X84155638Y-94100040D01*
X82905678Y-95350000D02*
X84155638Y-94100040D01*
X82200000Y-95350000D02*
X82905678Y-95350000D01*
X80750000Y-95350000D02*
X79600000Y-96500000D01*
X82200000Y-95350000D02*
X80750000Y-95350000D01*
X72299998Y-93050000D02*
X73850000Y-94600002D01*
X70560050Y-93050000D02*
X72299998Y-93050000D01*
X67500040Y-89989990D02*
X70560050Y-93050000D01*
X67500040Y-84475400D02*
X67500040Y-89989990D01*
X145410480Y-94100040D02*
X152950360Y-94100040D01*
X111050000Y-94100040D02*
X145410480Y-94100040D01*
X295210480Y-94050040D02*
X295200000Y-94050040D01*
X295210520Y-94050000D02*
X295210480Y-94050040D01*
X267300000Y-94050000D02*
X295210520Y-94050000D01*
X60385578Y-105808564D02*
X66326411Y-99867731D01*
X42800000Y-112350000D02*
X57144362Y-112350000D01*
X57144362Y-112350000D02*
X60385578Y-109108784D01*
X60385578Y-109108784D02*
X60385578Y-105808564D01*
X72375139Y-99867731D02*
X75747114Y-96495756D01*
X66326411Y-99867731D02*
X72375139Y-99867731D01*
X87800000Y-91750000D02*
X87800000Y-92400000D01*
X86700040Y-90650040D02*
X87800000Y-91750000D01*
X82503447Y-90650040D02*
X86700040Y-90650040D01*
X75050040Y-87650040D02*
X79503447Y-87650040D01*
X69086404Y-86139812D02*
X73539812Y-86139812D01*
X73539812Y-86139812D02*
X75050040Y-87650040D01*
X68300040Y-85353448D02*
X69086404Y-86139812D01*
X68300040Y-84475400D02*
X68300040Y-85353448D01*
X79503447Y-87650040D02*
X82503447Y-90650040D01*
X303550000Y-92400040D02*
X146039520Y-92400040D01*
X146039520Y-92400040D02*
X83799960Y-92400040D01*
X83799960Y-92400040D02*
X82100000Y-94100000D01*
X82100000Y-94100000D02*
X80150000Y-94100000D01*
X73467847Y-100782153D02*
X66705175Y-100782153D01*
X80150000Y-94100000D02*
X73467847Y-100782153D01*
X66705175Y-100782153D02*
X61300000Y-106187328D01*
X55937548Y-114850000D02*
X40100000Y-114850000D01*
X61300000Y-106187328D02*
X61300000Y-109487548D01*
X61300000Y-109487548D02*
X55937548Y-114850000D01*
X303600000Y-102177240D02*
X304318160Y-102895400D01*
X303600000Y-95700040D02*
X303600000Y-102177240D01*
X301850000Y-114050040D02*
X300993580Y-114906460D01*
X301850000Y-105363560D02*
X301850000Y-114050040D01*
X300993580Y-114906460D02*
X300993580Y-114965550D01*
X304318160Y-102895400D02*
X301850000Y-105363560D01*
X38860000Y-34315040D02*
X36925040Y-36250000D01*
X36925040Y-36250000D02*
X36900000Y-36250000D01*
X36596340Y-86385320D02*
X34885322Y-86385320D01*
X34885322Y-86385320D02*
X34750000Y-86249998D01*
X40590281Y-93195641D02*
X38860040Y-91465400D01*
X40590281Y-95083983D02*
X40590281Y-93195641D01*
X39524264Y-96150000D02*
X40590281Y-95083983D01*
X39100000Y-96150000D02*
X39524264Y-96150000D01*
X52669999Y-66740199D02*
X53265000Y-67335200D01*
X45785879Y-66740199D02*
X52669999Y-66740199D01*
X45204021Y-67322057D02*
X45785879Y-66740199D01*
X45204021Y-70833919D02*
X45204021Y-67322057D01*
X43622540Y-72415400D02*
X45204021Y-70833919D01*
X59984960Y-34315040D02*
X60000000Y-34300000D01*
X57910000Y-34315040D02*
X59984960Y-34315040D01*
X30282866Y-68886194D02*
X30282866Y-68922183D01*
X31833820Y-67335240D02*
X30282866Y-68886194D01*
X30070711Y-70870751D02*
X30070711Y-69134338D01*
X41387900Y-74650040D02*
X39050000Y-74650040D01*
X31679249Y-72479289D02*
X30070711Y-70870751D01*
X43622540Y-72415400D02*
X41387900Y-74650040D01*
X30070711Y-69134338D02*
X30282866Y-68922183D01*
X36879249Y-72479289D02*
X31679249Y-72479289D01*
X39050000Y-74650040D02*
X36879249Y-72479289D01*
X56079839Y-93295601D02*
X57910040Y-91465400D01*
X50695561Y-93295601D02*
X56079839Y-93295601D01*
X48865280Y-91465320D02*
X50695561Y-93295601D01*
X48385080Y-91465320D02*
X48865280Y-91465320D01*
X31747172Y-114952828D02*
X29271347Y-114952828D01*
X35950000Y-110750000D02*
X31747172Y-114952828D01*
X37400000Y-110750000D02*
X35950000Y-110750000D01*
X57910040Y-88485040D02*
X57910040Y-91465400D01*
X56800000Y-87375000D02*
X57910040Y-88485040D01*
X38531620Y-84450040D02*
X41800040Y-84450040D01*
X52082251Y-86307251D02*
X53150000Y-87375000D01*
X43657251Y-86307251D02*
X52082251Y-86307251D01*
X53150000Y-87375000D02*
X56800000Y-87375000D01*
X41800040Y-84450040D02*
X43657251Y-86307251D01*
X36596340Y-86385320D02*
X38531620Y-84450040D01*
X29464880Y-48285120D02*
X33850000Y-43900000D01*
X29452500Y-48285120D02*
X29464880Y-48285120D01*
X48800000Y-43900000D02*
X33850000Y-43900000D01*
X53185120Y-48285120D02*
X48800000Y-43900000D01*
X53265000Y-48285120D02*
X53185120Y-48285120D01*
X53364880Y-48285120D02*
X55600000Y-46050000D01*
X53265000Y-48285120D02*
X53364880Y-48285120D01*
X24907692Y-114952828D02*
X24900000Y-114960520D01*
X29271347Y-114952828D02*
X24907692Y-114952828D01*
X24800000Y-114860520D02*
X24900000Y-114960520D01*
X24800000Y-103500000D02*
X24800000Y-114860520D01*
X24650000Y-103350000D02*
X24800000Y-103500000D01*
X286628480Y-67335240D02*
X284933468Y-69030252D01*
X284933468Y-69030252D02*
X284830210Y-69030252D01*
X291391160Y-86385320D02*
X288305880Y-83300040D01*
X288305880Y-83300040D02*
X288300000Y-83300040D01*
X290781977Y-46454959D02*
X292327917Y-48000899D01*
X292327917Y-48000899D02*
X300799141Y-48000899D01*
X289024983Y-46454959D02*
X290781977Y-46454959D01*
X287194782Y-48285160D02*
X289024983Y-46454959D01*
X286628480Y-48285160D02*
X287194782Y-48285160D01*
X288713680Y-65250040D02*
X286628480Y-67335240D01*
X292250000Y-65250040D02*
X288713680Y-65250040D01*
X294250000Y-67250040D02*
X292250000Y-65250040D01*
X299289350Y-67250040D02*
X294250000Y-67250040D01*
X291389840Y-29235040D02*
X291389840Y-31099880D01*
X291389840Y-31099880D02*
X291390000Y-31100040D01*
X305560040Y-70096702D02*
X302713378Y-67250040D01*
X305560040Y-72415400D02*
X305560040Y-70096702D01*
X301050000Y-67250040D02*
X299289350Y-67250040D01*
X299374710Y-72415400D02*
X301050000Y-70740110D01*
X298416290Y-72415400D02*
X299374710Y-72415400D01*
X302713378Y-67250040D02*
X301350000Y-67250040D01*
X301050000Y-70740110D02*
X301050000Y-67550040D01*
X301050000Y-67550040D02*
X301350000Y-67250040D01*
X301050000Y-67550040D02*
X301050000Y-67250040D01*
X301050000Y-67550040D02*
X300750000Y-67250040D01*
X300750000Y-67250040D02*
X299289350Y-67250040D01*
X301350000Y-67250040D02*
X300750000Y-67250040D01*
X272339840Y-35839840D02*
X272350000Y-35850000D01*
X272339840Y-29235040D02*
X272339840Y-35839840D01*
X291391160Y-103358838D02*
X291400000Y-103349998D01*
X291391160Y-105435400D02*
X291391160Y-103358838D01*
X300269152Y-55195601D02*
X300243341Y-55169790D01*
X305560040Y-53365400D02*
X303729839Y-55195601D01*
X300220680Y-55169790D02*
X300243341Y-55169790D01*
X298416290Y-53365400D02*
X300220680Y-55169790D01*
X303729839Y-55195601D02*
X300269152Y-55195601D01*
X287015079Y-82015119D02*
X288300000Y-83300040D01*
X276711281Y-82015119D02*
X287015079Y-82015119D01*
X272341080Y-86385320D02*
X276711281Y-82015119D01*
X291391160Y-105435400D02*
X291315040Y-105435400D01*
X291315040Y-105435400D02*
X291350000Y-105470360D01*
X290005030Y-114965550D02*
X290000000Y-114960520D01*
X295993580Y-114965550D02*
X290005030Y-114965550D01*
X278324818Y-105435400D02*
X276494577Y-103605159D01*
X274171281Y-103605159D02*
X272341080Y-105435360D01*
X276494577Y-103605159D02*
X274171281Y-103605159D01*
X291391160Y-105435400D02*
X278324818Y-105435400D01*
X291400000Y-105444240D02*
X291391160Y-105435400D01*
X291400000Y-107210520D02*
X291400000Y-105444240D01*
X290000000Y-108610520D02*
X291400000Y-107210520D01*
X290000000Y-114960520D02*
X290000000Y-108610520D01*
X282200000Y-32100000D02*
X282200000Y-29570040D01*
X283080241Y-32980241D02*
X282200000Y-32100000D01*
X285319759Y-32980241D02*
X283080241Y-32980241D01*
X286300000Y-32000000D02*
X285319759Y-32980241D01*
X282200000Y-29570040D02*
X281865000Y-29235040D01*
X286300000Y-30985370D02*
X286300000Y-32000000D01*
X288050330Y-29235040D02*
X286300000Y-30985370D01*
X291389840Y-29235040D02*
X288050330Y-29235040D01*
X280224520Y-29235040D02*
X281865000Y-29235040D01*
X274274840Y-27300040D02*
X278289520Y-27300040D01*
X278289520Y-27300040D02*
X280224520Y-29235040D01*
X272339840Y-29235040D02*
X274274840Y-27300040D01*
X25950000Y-67075736D02*
X25950000Y-67500000D01*
X28525736Y-64500000D02*
X25950000Y-67075736D01*
X31625000Y-62475000D02*
X31625000Y-63157698D01*
X31625000Y-63157698D02*
X30282698Y-64500000D01*
X31000000Y-61850000D02*
X31625000Y-62475000D01*
X30282698Y-64500000D02*
X28525736Y-64500000D01*
X31000000Y-59700000D02*
X31000000Y-61850000D01*
X32400000Y-59700000D02*
X31000000Y-59700000D01*
X33650000Y-60950000D02*
X32400000Y-59700000D01*
X109550000Y-60950000D02*
X33650000Y-60950000D01*
X230750000Y-75200520D02*
X230750000Y-76204520D01*
X230750000Y-76204520D02*
X227794000Y-79160520D01*
X227794000Y-79160520D02*
X109550000Y-79160520D01*
X28400000Y-59700000D02*
X27199990Y-59700000D01*
X27199990Y-59700000D02*
X25400000Y-61499990D01*
X271505278Y-74700000D02*
X275505277Y-78699999D01*
X263050520Y-74700000D02*
X271505278Y-74700000D01*
X243912068Y-73562588D02*
X247135081Y-76785601D01*
X230083932Y-73562588D02*
X243912068Y-73562588D01*
X229450000Y-74196520D02*
X230083932Y-73562588D01*
X229450000Y-75200520D02*
X229450000Y-74196520D01*
X247135081Y-76785601D02*
X260964919Y-76785601D01*
X275505277Y-78699999D02*
X282575521Y-78699999D01*
X282575521Y-78699999D02*
X282825000Y-78450520D01*
X260964919Y-76785601D02*
X263050520Y-74700000D01*
X292850520Y-59900000D02*
X292850000Y-59900520D01*
X302700000Y-59900000D02*
X292850520Y-59900000D01*
X306050000Y-64550000D02*
X302800000Y-64550000D01*
X88435521Y-83574999D02*
X90510000Y-81500520D01*
X287946028Y-81500520D02*
X288862549Y-82417041D01*
X71600040Y-81975400D02*
X72757448Y-81975400D01*
X74357046Y-83574999D02*
X88435521Y-83574999D01*
X90510000Y-81500520D02*
X287946028Y-81500520D01*
X72757448Y-81975400D02*
X74357046Y-83574999D01*
X87769128Y-83117788D02*
X89848565Y-81038351D01*
X74546428Y-83117788D02*
X87769128Y-83117788D01*
X71600040Y-81175400D02*
X72604040Y-81175400D01*
X72604040Y-81175400D02*
X74546428Y-83117788D01*
X288887872Y-81038351D02*
X290250041Y-82400520D01*
X89848565Y-81038351D02*
X288887872Y-81038351D01*
X36015532Y-78775400D02*
X30717198Y-84073734D01*
X60200040Y-78775400D02*
X36015532Y-78775400D01*
X60200040Y-79575400D02*
X60126548Y-79501908D01*
X37348096Y-79501908D02*
X32800004Y-84050000D01*
X60126548Y-79501908D02*
X37348096Y-79501908D01*
X29700000Y-61300040D02*
X29550000Y-61450040D01*
X29700000Y-59700000D02*
X29700000Y-61300040D01*
X30600002Y-76910522D02*
X30600002Y-76900040D01*
X31664880Y-77975400D02*
X30600002Y-76910522D01*
X60200040Y-77975400D02*
X31664880Y-77975400D01*
X62825000Y-87375000D02*
X62825000Y-88600000D01*
X63600000Y-86600000D02*
X62825000Y-87375000D01*
X64300000Y-86600000D02*
X63600000Y-86600000D01*
X64300040Y-86599960D02*
X64300000Y-86600000D01*
X64300040Y-84475400D02*
X64300040Y-86599960D01*
X62825000Y-89650000D02*
X62650000Y-89825000D01*
X62650000Y-89825000D02*
X62650000Y-91000000D01*
X62825000Y-88600000D02*
X62825000Y-89650000D01*
X60775000Y-89425000D02*
X60000000Y-90200000D01*
X60775000Y-88600000D02*
X60775000Y-89425000D01*
X60400000Y-96500000D02*
X61400000Y-96500000D01*
X253290840Y-86359160D02*
X255400000Y-84250000D01*
X253290840Y-86385320D02*
X253290840Y-86359160D01*
X253250040Y-29195240D02*
X253289840Y-29235040D01*
X276885400Y-76960040D02*
X276885040Y-76960400D01*
X279266250Y-76960040D02*
X276885400Y-76960040D01*
X253289840Y-31339880D02*
X253300000Y-31350040D01*
X253289840Y-29235040D02*
X253289840Y-31339880D01*
X250908790Y-105435400D02*
X252894150Y-103450040D01*
X252894150Y-103450040D02*
X252950000Y-103450040D01*
X256449680Y-103450040D02*
X252950000Y-103450040D01*
X258250040Y-105250400D02*
X256449680Y-103450040D01*
X264850360Y-105250400D02*
X258250040Y-105250400D01*
X267460040Y-107860080D02*
X264850360Y-105250400D01*
X267460040Y-110515400D02*
X267460040Y-107860080D01*
X276344439Y-57369799D02*
X269680201Y-57369799D01*
X276885040Y-57910400D02*
X276344439Y-57369799D01*
X268900000Y-58150000D02*
X267600000Y-58150000D01*
X269680201Y-57369799D02*
X268900000Y-58150000D01*
X263500002Y-58150000D02*
X263500000Y-58150002D01*
X267600000Y-58150000D02*
X263500002Y-58150000D01*
X262815880Y-48285160D02*
X262815880Y-46065880D01*
X262815880Y-46065880D02*
X262800002Y-46050002D01*
X263649960Y-65250040D02*
X263500000Y-65400000D01*
X269250000Y-65250040D02*
X263649960Y-65250040D01*
X272450000Y-68450040D02*
X269250000Y-65250040D01*
X276885040Y-76960400D02*
X272450000Y-72525360D01*
X272450000Y-72525360D02*
X272450000Y-68450040D01*
X262815040Y-66084960D02*
X262815040Y-67335400D01*
X263500000Y-65400000D02*
X262815040Y-66084960D01*
X250900000Y-105444190D02*
X250908790Y-105435400D01*
X250900000Y-114960520D02*
X250900000Y-105444190D01*
X205665640Y-67335200D02*
X205665640Y-65115680D01*
X205665640Y-65115680D02*
X205650000Y-65100040D01*
X196150000Y-29244480D02*
X196140600Y-29235080D01*
X196150000Y-32100040D02*
X196150000Y-29244480D01*
X196140040Y-105435400D02*
X194309839Y-103605199D01*
X194305177Y-103605199D02*
X194150000Y-103450022D01*
X194309839Y-103605199D02*
X194305177Y-103605199D01*
X188996290Y-105435400D02*
X190981668Y-103450022D01*
X190981668Y-103450022D02*
X194150000Y-103450022D01*
X220280560Y-43850000D02*
X224715720Y-48285160D01*
X210100800Y-43850000D02*
X220280560Y-43850000D01*
X205665640Y-48285160D02*
X210100800Y-43850000D01*
X199080201Y-35030241D02*
X196150000Y-32100040D01*
X215190680Y-31278722D02*
X211439161Y-35030241D01*
X211439161Y-35030241D02*
X199080201Y-35030241D01*
X215190680Y-29235040D02*
X215190680Y-31278722D01*
X205650000Y-50500004D02*
X205699998Y-50450006D01*
X205665640Y-48285160D02*
X205665640Y-50415648D01*
X205665640Y-50415648D02*
X205699998Y-50450006D01*
X205650000Y-51650040D02*
X205650000Y-50500004D01*
X222433790Y-98933790D02*
X222400000Y-98900000D01*
X222433790Y-100890400D02*
X222433790Y-98933790D01*
X196140040Y-102667952D02*
X196140040Y-105435400D01*
X219180241Y-95680241D02*
X203127751Y-95680241D01*
X203127751Y-95680241D02*
X196140040Y-102667952D01*
X222400000Y-98900000D02*
X219180241Y-95680241D01*
X215190680Y-86385280D02*
X214635280Y-86385280D01*
X214635280Y-86385280D02*
X211950000Y-83700000D01*
X210265079Y-82015079D02*
X211950000Y-83700000D01*
X200510801Y-82015079D02*
X210265079Y-82015079D01*
X196140600Y-86385280D02*
X200510801Y-82015079D01*
X189000000Y-105607460D02*
X189000000Y-107760520D01*
X188996290Y-105603750D02*
X189000000Y-105607460D01*
X189000000Y-107760520D02*
X196200000Y-114960520D01*
X188996290Y-105435400D02*
X188996290Y-105603750D01*
X177150040Y-29175400D02*
X177090040Y-29235400D01*
X177090040Y-32590044D02*
X177099996Y-32600000D01*
X177090040Y-29235400D02*
X177090040Y-32590044D01*
X177099996Y-34249996D02*
X177100000Y-34250000D01*
X177099996Y-32600000D02*
X177099996Y-34249996D01*
X177090040Y-86385400D02*
X174714602Y-86385400D01*
X174714602Y-86385400D02*
X174650000Y-86450002D01*
X186615040Y-67335400D02*
X184614602Y-67335400D01*
X184614602Y-67335400D02*
X184600000Y-67350002D01*
X186615040Y-48285400D02*
X184614600Y-48285400D01*
X184614600Y-48285400D02*
X184600000Y-48300000D01*
X169900000Y-114960520D02*
X169900000Y-109760536D01*
X167565040Y-107965080D02*
X169060496Y-109460536D01*
X169900000Y-109760536D02*
X169600000Y-109460536D01*
X167565040Y-105435400D02*
X167565040Y-107965080D01*
X169060496Y-109460536D02*
X169600000Y-109460536D01*
X158040040Y-31690080D02*
X158050000Y-31700040D01*
X158040040Y-29235400D02*
X158040040Y-31690080D01*
X167565040Y-53340040D02*
X167575000Y-53350000D01*
X167565040Y-48285400D02*
X167565040Y-53340040D01*
X156060406Y-86385400D02*
X156050000Y-86374994D01*
X158040040Y-86385400D02*
X156060406Y-86385400D01*
X165564760Y-67335240D02*
X165550000Y-67350000D01*
X167565880Y-67335240D02*
X165564760Y-67335240D01*
X165564594Y-48285400D02*
X165549994Y-48300000D01*
X167565040Y-48285400D02*
X165564594Y-48285400D01*
X158050040Y-105445400D02*
X158040040Y-105435400D01*
X158050040Y-114960520D02*
X158050040Y-105445400D01*
X158050040Y-29225400D02*
X158040040Y-29235400D01*
X158014880Y-29225400D02*
X158050040Y-29225400D01*
X153654319Y-24864839D02*
X158014880Y-29225400D01*
X143360201Y-24864839D02*
X153654319Y-24864839D01*
X138990000Y-29235040D02*
X143360201Y-24864839D01*
X150475450Y-103474990D02*
X156050000Y-103474990D01*
X148515040Y-105435400D02*
X150475450Y-103474990D01*
X158040040Y-105435400D02*
X156079630Y-103474990D01*
X156079630Y-103474990D02*
X156050000Y-103474990D01*
X119940000Y-88540000D02*
X119950000Y-88550000D01*
X119940000Y-86385280D02*
X119940000Y-88540000D01*
X162685560Y-69964440D02*
X162700000Y-69950000D01*
X162685560Y-72415240D02*
X162685560Y-69964440D01*
X148515560Y-50434440D02*
X148500000Y-50450000D01*
X148515560Y-48285120D02*
X148515560Y-50434440D01*
X119940000Y-29235040D02*
X119940000Y-33740042D01*
X119940000Y-33740042D02*
X119949998Y-33750040D01*
X144130440Y-43900000D02*
X148515560Y-48285120D01*
X133850120Y-43900000D02*
X144130440Y-43900000D01*
X129465000Y-48285120D02*
X133850120Y-43900000D01*
X119949998Y-35050042D02*
X119900000Y-35100040D01*
X119949998Y-33750040D02*
X119949998Y-35050042D01*
X119940440Y-103159560D02*
X119950000Y-103150000D01*
X119940440Y-105435400D02*
X119940440Y-103159560D01*
X129465000Y-48285120D02*
X127414880Y-48285120D01*
X127414880Y-48285120D02*
X127400000Y-48300000D01*
X129465000Y-67335200D02*
X127414798Y-67335200D01*
X127414798Y-67335200D02*
X127399998Y-67350000D01*
X129362113Y-112345601D02*
X131207194Y-110500520D01*
X127575683Y-112345601D02*
X129362113Y-112345601D01*
X125822872Y-110592789D02*
X127575683Y-112345601D01*
X131207194Y-110500520D02*
X131714300Y-110500520D01*
X120397871Y-110592789D02*
X125822872Y-110592789D01*
X118358979Y-108553897D02*
X120397871Y-110592789D01*
X118358979Y-107016861D02*
X118358979Y-108553897D01*
X119940440Y-105435400D02*
X118358979Y-107016861D01*
X119940000Y-86385280D02*
X124089628Y-82235652D01*
X128686503Y-82015079D02*
X130443497Y-82015079D01*
X130464071Y-82035653D02*
X134640373Y-82035653D01*
X124089628Y-82235652D02*
X128465930Y-82235652D01*
X134640373Y-82035653D02*
X138990000Y-86385280D01*
X130443497Y-82015079D02*
X130464071Y-82035653D01*
X128465930Y-82235652D02*
X128686503Y-82015079D01*
X144300000Y-114960520D02*
X148500000Y-114960520D01*
X139854880Y-110515400D02*
X144300000Y-114960520D01*
X131729180Y-110515400D02*
X139854880Y-110515400D01*
X100814960Y-29235040D02*
X100890000Y-29235040D01*
X98750000Y-31300000D02*
X100814960Y-29235040D01*
X86210201Y-24864839D02*
X81840000Y-29235040D01*
X96519799Y-24864839D02*
X86210201Y-24864839D01*
X100890000Y-29235040D02*
X96519799Y-24864839D01*
X94539382Y-112592789D02*
X92539422Y-110592829D01*
X100772540Y-110515400D02*
X100772540Y-112019400D01*
X100772540Y-112019400D02*
X100199151Y-112592789D01*
X100199151Y-112592789D02*
X94539382Y-112592789D01*
X92539422Y-110592829D02*
X89192789Y-110592829D01*
X87250000Y-108650040D02*
X87250000Y-107169460D01*
X87250000Y-107169460D02*
X88984060Y-105435400D01*
X91400000Y-48300000D02*
X95900000Y-43800000D01*
X95900000Y-43800000D02*
X105929880Y-43800000D01*
X91379880Y-48300000D02*
X91400000Y-48300000D01*
X105929880Y-43800000D02*
X110415000Y-48285120D01*
X91365000Y-48285120D02*
X91379880Y-48300000D01*
X89050000Y-98950000D02*
X89050000Y-105369460D01*
X90500000Y-97500000D02*
X89050000Y-98950000D01*
X89050000Y-105369460D02*
X88984060Y-105435400D01*
X90500000Y-95700000D02*
X90500000Y-97500000D01*
X91385120Y-48285120D02*
X92050000Y-48950000D01*
X92050000Y-48950000D02*
X92050000Y-50250036D01*
X91365000Y-48285120D02*
X91385120Y-48285120D01*
X97614720Y-86385280D02*
X97600000Y-86400000D01*
X100890000Y-86385280D02*
X97614720Y-86385280D01*
X92274960Y-65250040D02*
X92050000Y-65475000D01*
X97150000Y-65250040D02*
X92274960Y-65250040D01*
X110415000Y-67335200D02*
X99235160Y-67335200D01*
X99235160Y-67335200D02*
X97150000Y-65250040D01*
X91365000Y-66160000D02*
X92050000Y-65475000D01*
X91365000Y-67335200D02*
X91365000Y-66160000D01*
X92299970Y-95700040D02*
X92300005Y-95700005D01*
X90500000Y-95700040D02*
X92299970Y-95700040D01*
X86889422Y-90192829D02*
X88178582Y-91481989D01*
X88178582Y-91481989D02*
X93231989Y-91481989D01*
X81840000Y-86385280D02*
X81840000Y-89340000D01*
X81840000Y-89340000D02*
X82692829Y-90192829D01*
X82692829Y-90192829D02*
X86889422Y-90192829D01*
X82800000Y-114960520D02*
X82800000Y-113100040D01*
X87430240Y-108830280D02*
X87480240Y-108880280D01*
X87069760Y-108830280D02*
X87430240Y-108830280D01*
X87480240Y-108880280D02*
X87250000Y-108650040D01*
X89192789Y-110592829D02*
X87480240Y-108880280D01*
X82800000Y-113100040D02*
X87069760Y-108830280D01*
X87069760Y-108830280D02*
X87250000Y-108650040D01*
X74400160Y-65250040D02*
X77850000Y-65250040D01*
X72315000Y-67335200D02*
X74400160Y-65250040D01*
X72315000Y-48285120D02*
X72315000Y-46363289D01*
X72315000Y-46363289D02*
X72301648Y-46349937D01*
X76960040Y-110515400D02*
X78675440Y-108800000D01*
X78675440Y-108800000D02*
X78700000Y-108800000D01*
X43740040Y-107754098D02*
X47585942Y-111600000D01*
X47585942Y-111600000D02*
X56700000Y-111600000D01*
X43740040Y-105435400D02*
X43740040Y-107754098D01*
X85000000Y-91600040D02*
X84146000Y-91600040D01*
X84146000Y-91600040D02*
X83745960Y-91200000D01*
X83745960Y-91200000D02*
X80399988Y-91200000D01*
X76960000Y-91440000D02*
X77200000Y-91200000D01*
X77200000Y-91200000D02*
X80399988Y-91200000D01*
X76960000Y-91465280D02*
X76960000Y-91440000D01*
X62800000Y-29225040D02*
X62790000Y-29235040D01*
X63589839Y-107016851D02*
X65171290Y-105435400D01*
X65735942Y-110700000D02*
X63589839Y-108553897D01*
X71160942Y-110700000D02*
X65735942Y-110700000D01*
X63589839Y-108553897D02*
X63589839Y-107016851D01*
X72806543Y-112345601D02*
X71160942Y-110700000D01*
X75129839Y-112345601D02*
X72806543Y-112345601D01*
X76960040Y-110515400D02*
X75129839Y-112345601D01*
X62790000Y-29235040D02*
X62790000Y-31658944D01*
X62790000Y-31658944D02*
X62852680Y-31721624D01*
X59400000Y-112539480D02*
X60339480Y-111600000D01*
X59400000Y-114960520D02*
X59400000Y-112539480D01*
D34*
X40351552Y-27086555D02*
X40351552Y-26837233D01*
X43594345Y-31075000D02*
X43600000Y-31075000D01*
X41201552Y-28682207D02*
X43594345Y-31075000D01*
X41201552Y-28187233D02*
X41201552Y-28682207D01*
X41201552Y-28187233D02*
X41201552Y-27936555D01*
X41201552Y-27936555D02*
X40351552Y-27086555D01*
X47724960Y-26375040D02*
X48475000Y-26375040D01*
X47300000Y-29900000D02*
X47300000Y-26800000D01*
X47300000Y-26800000D02*
X47724960Y-26375040D01*
X46693661Y-30506339D02*
X47300000Y-29900000D01*
X44943661Y-30506339D02*
X46693661Y-30506339D01*
X44375000Y-31075000D02*
X44943661Y-30506339D01*
X43700000Y-31075000D02*
X44375000Y-31075000D01*
D35*
X153450040Y-28228080D02*
X153450040Y-34200000D01*
X151917000Y-26695040D02*
X153450040Y-28228080D01*
X274981120Y-44983400D02*
X275742880Y-45745160D01*
X274345040Y-44983400D02*
X274981120Y-44983400D01*
X281300000Y-40200000D02*
X281300000Y-38550000D01*
X275754840Y-45745160D02*
X281300000Y-40200000D01*
X275742880Y-45745160D02*
X275754840Y-45745160D01*
X252025940Y-53650000D02*
X249770540Y-55905400D01*
X256500000Y-53650000D02*
X252025940Y-53650000D01*
X258000000Y-47052360D02*
X258000000Y-52150000D01*
X258000000Y-52150000D02*
X256500000Y-53650000D01*
X256692800Y-45745160D02*
X258000000Y-47052360D01*
X247580400Y-55905400D02*
X249770540Y-55905400D01*
X245025000Y-53350000D02*
X247580400Y-55905400D01*
X237750000Y-53350000D02*
X245025000Y-53350000D01*
X158900000Y-48287680D02*
X158900000Y-52550040D01*
X161442560Y-45745120D02*
X158900000Y-48287680D01*
X120700000Y-48387120D02*
X120700000Y-52550040D01*
X123342000Y-45745120D02*
X120700000Y-48387120D01*
X66100000Y-64703200D02*
X66192000Y-64795200D01*
X66100000Y-62850000D02*
X66100000Y-64703200D01*
X66100000Y-57450040D02*
X66100000Y-60200000D01*
X180492880Y-58257160D02*
X180500000Y-58250040D01*
X180492880Y-64795240D02*
X180492880Y-58257160D01*
X248505400Y-74955400D02*
X249770540Y-74955400D01*
X247550000Y-74000000D02*
X248505400Y-74955400D01*
X250436330Y-66850040D02*
X247550000Y-69736370D01*
X247550000Y-69736370D02*
X247550000Y-71850000D01*
X254638000Y-66850040D02*
X250436330Y-66850040D01*
X256692800Y-64795240D02*
X254638000Y-66850040D01*
X250927761Y-59030201D02*
X256692800Y-64795240D01*
X242980201Y-59030201D02*
X250927761Y-59030201D01*
X241400000Y-57450000D02*
X242980201Y-59030201D01*
X240450000Y-57450000D02*
X241400000Y-57450000D01*
X161700000Y-61235800D02*
X161700000Y-58250040D01*
X158140560Y-64795240D02*
X161700000Y-61235800D01*
X151825398Y-77022078D02*
X154077962Y-77022078D01*
X158140560Y-70774910D02*
X158140560Y-64795240D01*
X149758560Y-74955240D02*
X151825398Y-77022078D01*
X155800000Y-75300040D02*
X155800000Y-73115470D01*
X154077962Y-77022078D02*
X155800000Y-75300040D01*
X155800000Y-73115470D02*
X158140560Y-70774910D01*
X123300000Y-64753200D02*
X123342000Y-64795200D01*
X123300000Y-58250040D02*
X123300000Y-64753200D01*
X297655885Y-86200040D02*
X301963440Y-86200040D01*
X301963440Y-86200040D02*
X304318160Y-83845320D01*
X295250000Y-88605925D02*
X297655885Y-86200040D01*
X295250000Y-90750000D02*
X295250000Y-88605925D01*
X263830040Y-102889650D02*
X263835790Y-102895400D01*
X263830040Y-95700040D02*
X263830040Y-102889650D01*
X269250040Y-108309650D02*
X263835790Y-102895400D01*
X269250040Y-111844762D02*
X269250040Y-108309650D01*
X268544762Y-112550040D02*
X269250040Y-111844762D01*
X260199680Y-110950040D02*
X261799680Y-112550040D01*
X261799680Y-112550040D02*
X268544762Y-112550040D01*
X256638400Y-110950040D02*
X260199680Y-110950040D01*
X254533040Y-113055400D02*
X256638400Y-110950040D01*
X267300000Y-84927480D02*
X267300000Y-90750000D01*
X266217840Y-83845320D02*
X267300000Y-84927480D01*
X247850000Y-84527560D02*
X247167760Y-83845320D01*
X247850000Y-91550040D02*
X247850000Y-84527560D01*
X153000000Y-84928280D02*
X153000000Y-90750400D01*
X151917000Y-83845280D02*
X153000000Y-84928280D01*
X209067040Y-100567080D02*
X209067040Y-102895400D01*
X206850000Y-98350040D02*
X209067040Y-100567080D01*
X206850000Y-96500040D02*
X206850000Y-98350040D01*
X203753491Y-104725601D02*
X201923290Y-102895400D01*
X207236839Y-104725601D02*
X203753491Y-104725601D01*
X209067040Y-102895400D02*
X207236839Y-104725601D01*
X111050000Y-86612280D02*
X113817000Y-83845280D01*
X111050000Y-90800040D02*
X111050000Y-86612280D01*
X78098290Y-102051710D02*
X78098290Y-102895400D01*
X84449960Y-95700040D02*
X78098290Y-102051710D01*
X87800000Y-95700040D02*
X84449960Y-95700040D01*
X64277298Y-113055400D02*
X66132698Y-111200000D01*
X64033040Y-113055400D02*
X64277298Y-113055400D01*
X66132698Y-111200000D02*
X71014350Y-111200000D01*
X72671561Y-112857211D02*
X77742789Y-112857211D01*
X77742789Y-112857211D02*
X79330202Y-111269798D01*
X79330202Y-104127312D02*
X78098290Y-102895400D01*
X71014350Y-111200000D02*
X72671561Y-112857211D01*
X79330202Y-111269798D02*
X79330202Y-104127312D01*
X232050000Y-74196520D02*
X232226721Y-74019799D01*
X232050000Y-75200520D02*
X232050000Y-74196520D01*
X232226721Y-74019799D02*
X240109799Y-74019799D01*
X240109799Y-74019799D02*
X241290000Y-75200000D01*
X271315897Y-75157211D02*
X263239901Y-75157211D01*
X275344794Y-79186108D02*
X271315897Y-75157211D01*
X263239901Y-75157211D02*
X261154301Y-77242812D01*
X290135588Y-79186108D02*
X275344794Y-79186108D01*
X291428769Y-80479289D02*
X290135588Y-79186108D01*
X294757475Y-80479289D02*
X291428769Y-80479289D01*
X261154301Y-77242812D02*
X243332812Y-77242812D01*
X300711745Y-74525019D02*
X294757475Y-80479289D01*
X305124980Y-74225020D02*
X304824981Y-74525019D01*
X304824981Y-74525019D02*
X300711745Y-74525019D01*
X243332812Y-77242812D02*
X241290000Y-75200000D01*
X101900040Y-93200040D02*
X132850000Y-93200040D01*
X37400000Y-114050000D02*
X53800000Y-114050000D01*
X80612579Y-94557211D02*
X78000000Y-97169790D01*
X82642789Y-94557211D02*
X80612579Y-94557211D01*
X83999960Y-93200040D02*
X82642789Y-94557211D01*
X72150000Y-93850000D02*
X72900000Y-94600000D01*
X66992789Y-90192789D02*
X70650000Y-93850000D01*
X66992789Y-85942789D02*
X66992789Y-90192789D01*
X66700040Y-85650040D02*
X66992789Y-85942789D01*
X70650000Y-93850000D02*
X72150000Y-93850000D01*
X66700040Y-84475400D02*
X66700040Y-85650040D01*
X100360480Y-93200040D02*
X83999960Y-93200040D01*
X101900040Y-93200040D02*
X100360480Y-93200040D01*
X283250000Y-93250040D02*
X240025000Y-93250040D01*
X206900000Y-93250040D02*
X206850000Y-93200040D01*
X240025000Y-93250040D02*
X206900000Y-93250040D01*
X206839520Y-93200040D02*
X132850000Y-93200040D01*
X206900000Y-93260520D02*
X206839520Y-93200040D01*
X60842789Y-105997946D02*
X66515793Y-100324942D01*
X73033806Y-100324942D02*
X76198852Y-97159896D01*
X53800000Y-114050000D02*
X56090955Y-114050000D01*
X66515793Y-100324942D02*
X73033806Y-100324942D01*
X56090955Y-114050000D02*
X60842789Y-109298166D01*
X60842789Y-109298166D02*
X60842789Y-105997946D01*
X234225000Y-86369560D02*
X234240760Y-86385320D01*
X234250000Y-105425440D02*
X234240040Y-105435400D01*
X234250000Y-98625000D02*
X234250000Y-105425440D01*
X234250040Y-29225760D02*
X234240760Y-29235040D01*
X234240760Y-31390760D02*
X234250000Y-31400000D01*
X234240760Y-29235040D02*
X234240760Y-31390760D01*
X262697540Y-55447540D02*
X262700000Y-55450000D01*
X262697540Y-53365400D02*
X262697540Y-55447540D01*
X233135200Y-67335240D02*
X243765800Y-67335240D01*
X231050000Y-65250040D02*
X233135200Y-67335240D01*
X226800920Y-65250040D02*
X231050000Y-65250040D01*
X224715720Y-67335240D02*
X226800920Y-65250040D01*
X232254680Y-103450040D02*
X234240040Y-105435400D01*
X229081650Y-103450040D02*
X232254680Y-103450040D01*
X227096290Y-105435400D02*
X229081650Y-103450040D01*
X234200000Y-86426080D02*
X234240760Y-86385320D01*
X234200000Y-90750000D02*
X234200000Y-86426080D01*
X262697540Y-72415400D02*
X262697540Y-69902460D01*
X262697540Y-69902460D02*
X262699988Y-69900012D01*
X262697540Y-72415400D02*
X260662900Y-74450040D01*
X260662900Y-74450040D02*
X257250000Y-74450040D01*
X257250000Y-74450040D02*
X255650000Y-72850040D01*
X255650000Y-72850040D02*
X247025776Y-72850040D01*
X243765800Y-69590064D02*
X247025776Y-72850040D01*
X243765800Y-67335240D02*
X243765800Y-69590064D01*
X243765800Y-48285160D02*
X241964841Y-48285160D01*
X241964841Y-48285160D02*
X241950001Y-48300000D01*
X234240760Y-84365762D02*
X234224998Y-84350000D01*
X234240760Y-86385320D02*
X234240760Y-84365762D01*
X237350000Y-112550040D02*
X235360480Y-110560520D01*
X235360480Y-110560520D02*
X229700000Y-110560520D01*
X241612900Y-112550040D02*
X237350000Y-112550040D01*
X243647540Y-110515400D02*
X241612900Y-112550040D01*
X229700000Y-110560520D02*
X229660480Y-110560520D01*
X227096290Y-107996330D02*
X227096290Y-105435400D01*
X228400000Y-113510552D02*
X228400000Y-111860520D01*
X222449999Y-115710519D02*
X226200033Y-115710519D01*
X226200033Y-115710519D02*
X228400000Y-113510552D01*
X221700000Y-114960520D02*
X222449999Y-115710519D01*
X229400000Y-110860520D02*
X229400000Y-110360520D01*
X229660480Y-110560520D02*
X229430240Y-110330280D01*
X229400000Y-110860520D02*
X229700000Y-110560520D01*
X228400000Y-111860520D02*
X229400000Y-110860520D01*
X229400000Y-110360520D02*
X229430240Y-110330280D01*
X229430240Y-110330280D02*
X227096290Y-107996330D01*
X274980040Y-64033400D02*
X275742040Y-64795400D01*
X274345040Y-64033400D02*
X274980040Y-64033400D01*
X262850000Y-59150000D02*
X261950000Y-58250000D01*
X270096640Y-59150000D02*
X262850000Y-59150000D01*
X261950000Y-58250000D02*
X243800000Y-58250000D01*
X275742040Y-64795400D02*
X270096640Y-59150000D01*
X191050040Y-84878400D02*
X191050040Y-90750400D01*
X190017040Y-83845400D02*
X191050040Y-84878400D01*
X180500040Y-102887400D02*
X180492040Y-102895400D01*
X180500040Y-95700040D02*
X180500040Y-102887400D01*
X169136839Y-101065199D02*
X170967040Y-102895400D01*
X163272241Y-101065199D02*
X169136839Y-101065199D01*
X161442040Y-102895400D02*
X163272241Y-101065199D01*
X170950000Y-99760520D02*
X170950000Y-102878360D01*
X170950000Y-102878360D02*
X170967040Y-102895400D01*
X169450000Y-98260520D02*
X170950000Y-99760520D01*
X169450000Y-95700040D02*
X169450000Y-98260520D01*
X53800000Y-105762440D02*
X56667040Y-102895400D01*
X53800000Y-110750000D02*
X53800000Y-105762440D01*
X58272241Y-101381239D02*
X58272241Y-106277759D01*
X58272241Y-106277759D02*
X58200000Y-106350000D01*
X56991002Y-100100000D02*
X58272241Y-101381239D01*
X51077640Y-100100000D02*
X56991002Y-100100000D01*
X44983040Y-94005400D02*
X51077640Y-100100000D01*
X197000000Y-48287440D02*
X197000000Y-52550040D01*
X199542040Y-45745400D02*
X197000000Y-48287440D01*
X227050000Y-111741190D02*
X224973790Y-113817400D01*
X227050000Y-109650040D02*
X227050000Y-111741190D01*
X225450000Y-108050040D02*
X227050000Y-109650040D01*
X225450000Y-95700040D02*
X225450000Y-108050040D01*
X229300000Y-38400040D02*
X191250000Y-38400040D01*
X191250000Y-38400040D02*
X172000000Y-38400040D01*
X115000000Y-38400040D02*
X119900000Y-38400040D01*
X69900040Y-74749960D02*
X69900000Y-74750000D01*
X69900040Y-73075400D02*
X69900040Y-74749960D01*
X76900000Y-38400040D02*
X67600000Y-38400040D01*
X66400040Y-38400040D02*
X66400000Y-38400000D01*
X67600000Y-38400040D02*
X66400040Y-38400040D01*
X76900000Y-38400040D02*
X104975040Y-38400040D01*
X104975040Y-38400040D02*
X115000000Y-38400040D01*
X119900000Y-38400040D02*
X145499998Y-38400040D01*
X145499998Y-38400040D02*
X145500000Y-38400038D01*
X172000000Y-38400040D02*
X145500002Y-38400040D01*
X145500002Y-38400040D02*
X145500000Y-38400038D01*
X273403407Y-38350000D02*
X229450040Y-38350000D01*
X277283608Y-34469799D02*
X273403407Y-38350000D01*
X289739480Y-36750000D02*
X287459279Y-34469799D01*
X229450040Y-38350000D02*
X229400000Y-38400040D01*
X287459279Y-34469799D02*
X277283608Y-34469799D01*
X301700000Y-36750000D02*
X289739480Y-36750000D01*
X68300040Y-73075400D02*
X68300040Y-74737829D01*
X68300040Y-74737829D02*
X68309050Y-74746839D01*
X101500000Y-56650040D02*
X215900000Y-56650040D01*
X101500000Y-56650040D02*
X63300000Y-56650040D01*
X215900000Y-56650040D02*
X239899960Y-56650040D01*
X239899960Y-56650040D02*
X240700000Y-55850000D01*
X286100000Y-36050000D02*
X277350000Y-36050000D01*
X277350000Y-36050000D02*
X273150000Y-40250000D01*
X273150000Y-40250000D02*
X240699996Y-40250000D01*
X91505000Y-57875000D02*
X91505000Y-60159576D01*
X91505000Y-60159576D02*
X91419790Y-60244786D01*
X94010160Y-76510520D02*
X92050000Y-76510520D01*
X94250040Y-76750400D02*
X94010160Y-76510520D01*
X87750000Y-77860520D02*
X89100000Y-76510520D01*
X87750000Y-80410520D02*
X87750000Y-77860520D01*
X74889218Y-82660578D02*
X85499942Y-82660578D01*
X89100000Y-76510520D02*
X92050000Y-76510520D01*
X71600040Y-80375400D02*
X72604040Y-80375400D01*
X72604040Y-80375400D02*
X74889218Y-82660578D01*
X85499942Y-82660578D02*
X87750000Y-80410520D01*
X90235000Y-57875000D02*
X90235000Y-60235006D01*
X90235000Y-60235006D02*
X90250000Y-60250006D01*
X93000000Y-75350000D02*
X91350000Y-75350000D01*
X94139600Y-74210400D02*
X93000000Y-75350000D01*
X88350000Y-76400000D02*
X88919790Y-75830210D01*
X88919790Y-75809666D02*
X89259666Y-75469790D01*
X89400000Y-75350000D02*
X91350000Y-75350000D01*
X86850000Y-76400000D02*
X88350000Y-76400000D01*
X94250040Y-74210400D02*
X94139600Y-74210400D01*
X88919790Y-75830210D02*
X88919790Y-75809666D01*
X89280210Y-75469790D02*
X89400000Y-75350000D01*
X89259666Y-75469790D02*
X89280210Y-75469790D01*
X71600040Y-79575400D02*
X72604040Y-79575400D01*
X86850000Y-79750000D02*
X86850000Y-76425000D01*
X72604040Y-79575400D02*
X75232007Y-82203367D01*
X84396633Y-82203367D02*
X86850000Y-79750000D01*
X75232007Y-82203367D02*
X84396633Y-82203367D01*
X50350040Y-67920400D02*
X50350040Y-74220400D01*
X50350040Y-74250040D02*
X50350040Y-74220400D01*
X51025000Y-74925000D02*
X50350040Y-74250040D01*
X54600000Y-74925000D02*
X51025000Y-74925000D01*
X71600040Y-75575400D02*
X70274600Y-75575400D01*
X70274600Y-75575400D02*
X70250000Y-75600000D01*
X54600000Y-74925000D02*
X54600000Y-75549998D01*
X54600000Y-75549998D02*
X55300002Y-76250000D01*
X102157700Y-62350000D02*
X102152498Y-62355202D01*
X101542300Y-62350000D02*
X72050000Y-62350000D01*
X101547502Y-62355202D02*
X101542300Y-62350000D01*
X102152498Y-62355202D02*
X101547502Y-62355202D01*
X107200000Y-62350000D02*
X102157700Y-62350000D01*
X69100040Y-74399960D02*
X69100000Y-74400000D01*
X69100040Y-73075400D02*
X69100040Y-74399960D01*
X69100000Y-55850040D02*
X39700000Y-55850040D01*
X277350000Y-35250000D02*
X281300000Y-35250000D01*
X273419759Y-39180241D02*
X277350000Y-35250000D01*
X239619759Y-39180241D02*
X273419759Y-39180241D01*
X239600000Y-39200000D02*
X239619759Y-39180241D01*
X69100000Y-55850040D02*
X239599962Y-55850040D01*
X239599962Y-55850040D02*
X239600000Y-55850002D01*
X66078367Y-89821633D02*
X64850000Y-91050000D01*
X66078367Y-86628367D02*
X66078367Y-89821633D01*
X65100040Y-85650040D02*
X66078367Y-86628367D01*
X65100040Y-84475400D02*
X65100040Y-85650040D01*
X61604440Y-86575000D02*
X60000000Y-86575000D01*
X62700040Y-85479400D02*
X61604440Y-86575000D01*
X62700040Y-84475400D02*
X62700040Y-85479400D01*
X72375360Y-82775400D02*
X73650000Y-84050040D01*
X71600040Y-82775400D02*
X72375360Y-82775400D01*
X58275360Y-77175400D02*
X57950000Y-76850040D01*
X60200040Y-77175400D02*
X58275360Y-77175400D01*
X58024640Y-80375400D02*
X57950000Y-80450040D01*
X60200040Y-80375400D02*
X58024640Y-80375400D01*
X56780201Y-81280241D02*
X55950000Y-80450040D01*
X59091199Y-81280241D02*
X56780201Y-81280241D01*
X59196040Y-81175400D02*
X59091199Y-81280241D01*
X60200040Y-81175400D02*
X59196040Y-81175400D01*
X63983358Y-97075000D02*
X66300000Y-97075000D01*
X61350000Y-94441642D02*
X63983358Y-97075000D01*
X61350000Y-91000000D02*
X61350000Y-94441642D01*
X61350000Y-90025000D02*
X61350000Y-91000000D01*
X61680210Y-89694790D02*
X61350000Y-90025000D01*
X61680210Y-87369790D02*
X61680210Y-89694790D01*
X63500040Y-85549960D02*
X61680210Y-87369790D01*
X63500040Y-84475400D02*
X63500040Y-85549960D01*
X44268413Y-22721609D02*
X44146191Y-22897455D01*
X44060624Y-23093767D01*
X44015000Y-23303000D01*
X44015000Y-23703000D01*
X44973000Y-23703000D01*
X44973000Y-23683000D01*
X45227000Y-23683000D01*
X45227000Y-23703000D01*
X46185000Y-23703000D01*
X46185000Y-23303000D01*
X46139376Y-23093767D01*
X46055440Y-22901196D01*
X46123478Y-22956688D01*
X46171252Y-22988429D01*
X46218550Y-23020814D01*
X46226319Y-23025015D01*
X46312480Y-23070827D01*
X46365507Y-23092683D01*
X46418184Y-23115260D01*
X46426621Y-23117873D01*
X46520039Y-23146078D01*
X46576284Y-23157214D01*
X46632371Y-23169136D01*
X46641155Y-23170059D01*
X46657043Y-23171617D01*
X46646301Y-26636205D01*
X46636641Y-26668050D01*
X46623644Y-26800000D01*
X46626901Y-26833066D01*
X46626900Y-29621193D01*
X46414855Y-29833239D01*
X44976716Y-29833239D01*
X44943660Y-29829983D01*
X44910604Y-29833239D01*
X44910602Y-29833239D01*
X44811710Y-29842979D01*
X44684831Y-29881468D01*
X44567898Y-29943970D01*
X44531858Y-29973547D01*
X43444783Y-29973531D01*
X42412358Y-28941107D01*
X42444384Y-28927841D01*
X42475000Y-28907384D01*
X42505616Y-28927841D01*
X42657139Y-28990604D01*
X42817996Y-29022600D01*
X42982004Y-29022600D01*
X43142861Y-28990604D01*
X43265756Y-28939699D01*
X43275784Y-29058767D01*
X43454384Y-29134589D01*
X43644344Y-29174110D01*
X43838364Y-29175813D01*
X44028989Y-29139632D01*
X44208893Y-29066957D01*
X44224216Y-29058767D01*
X44240912Y-28860517D01*
X43750000Y-28369605D01*
X43735858Y-28383748D01*
X43714601Y-28362491D01*
X43732600Y-28272004D01*
X43732600Y-28107996D01*
X43714601Y-28017509D01*
X43735858Y-27996253D01*
X43750000Y-28010395D01*
X43764143Y-27996253D01*
X43943748Y-28175858D01*
X43929605Y-28190000D01*
X44079775Y-28340170D01*
X44146191Y-28492545D01*
X44268413Y-28668391D01*
X44422592Y-28817014D01*
X44602803Y-28932702D01*
X44805999Y-29004408D01*
X44973000Y-28877502D01*
X44973000Y-27337000D01*
X45227000Y-27337000D01*
X45227000Y-28877502D01*
X45394001Y-29004408D01*
X45597197Y-28932702D01*
X45777408Y-28817014D01*
X45931587Y-28668391D01*
X46053809Y-28492545D01*
X46139376Y-28296233D01*
X46185000Y-28087000D01*
X46185000Y-27337000D01*
X45227000Y-27337000D01*
X44973000Y-27337000D01*
X44426608Y-27337000D01*
X44420520Y-27330912D01*
X44618767Y-27314216D01*
X44694589Y-27135616D01*
X44705536Y-27083000D01*
X44973000Y-27083000D01*
X44973000Y-25542498D01*
X45227000Y-25542498D01*
X45227000Y-27083000D01*
X46185000Y-27083000D01*
X46185000Y-26333000D01*
X46139376Y-26123767D01*
X46053809Y-25927455D01*
X45931587Y-25751609D01*
X45777408Y-25602986D01*
X45597197Y-25487298D01*
X45394001Y-25415592D01*
X45227000Y-25542498D01*
X44973000Y-25542498D01*
X44805999Y-25415592D01*
X44602803Y-25487298D01*
X44422592Y-25602986D01*
X44268413Y-25751609D01*
X44146191Y-25927455D01*
X44142272Y-25936445D01*
X44045616Y-25895411D01*
X43855656Y-25855890D01*
X43661636Y-25854187D01*
X43471011Y-25890368D01*
X43418765Y-25911474D01*
X43379807Y-25864003D01*
X43354128Y-25842929D01*
X43152160Y-25640961D01*
X43131081Y-25615276D01*
X43028588Y-25531163D01*
X42911655Y-25468661D01*
X42784776Y-25430172D01*
X42685884Y-25420432D01*
X42685881Y-25420432D01*
X42652825Y-25417176D01*
X42619769Y-25420432D01*
X38933334Y-25420432D01*
X38900278Y-25417176D01*
X38867222Y-25420432D01*
X38867220Y-25420432D01*
X38768328Y-25430172D01*
X38641449Y-25468661D01*
X38524516Y-25531163D01*
X38422023Y-25615276D01*
X38400944Y-25640961D01*
X38198976Y-25842929D01*
X38173297Y-25864003D01*
X38134110Y-25911753D01*
X38095616Y-25895411D01*
X37905656Y-25855890D01*
X37711636Y-25854187D01*
X37521011Y-25890368D01*
X37407611Y-25936178D01*
X37403809Y-25927455D01*
X37281587Y-25751609D01*
X37127408Y-25602986D01*
X36947197Y-25487298D01*
X36744001Y-25415592D01*
X36577000Y-25542498D01*
X36577000Y-27083000D01*
X36843537Y-27083000D01*
X36850368Y-27118989D01*
X36923043Y-27298893D01*
X36931233Y-27314216D01*
X37129480Y-27330912D01*
X37123392Y-27337000D01*
X36577000Y-27337000D01*
X36577000Y-28877502D01*
X36744001Y-29004408D01*
X36947197Y-28932702D01*
X37127408Y-28817014D01*
X37281587Y-28668391D01*
X37403809Y-28492545D01*
X37470225Y-28340170D01*
X37620395Y-28190000D01*
X37606253Y-28175858D01*
X37785858Y-27996253D01*
X37800000Y-28010395D01*
X37814143Y-27996253D01*
X37835399Y-28017509D01*
X37817400Y-28107996D01*
X37817400Y-28272004D01*
X37835399Y-28362491D01*
X37814143Y-28383748D01*
X37800000Y-28369605D01*
X37309088Y-28860517D01*
X37325784Y-29058767D01*
X37504384Y-29134589D01*
X37694344Y-29174110D01*
X37888364Y-29175813D01*
X38078989Y-29139632D01*
X38258893Y-29066957D01*
X38274216Y-29058767D01*
X38284244Y-28939699D01*
X38407139Y-28990604D01*
X38567996Y-29022600D01*
X38732004Y-29022600D01*
X38892861Y-28990604D01*
X39044384Y-28927841D01*
X39075000Y-28907384D01*
X39105616Y-28927841D01*
X39257139Y-28990604D01*
X39417996Y-29022600D01*
X39582004Y-29022600D01*
X39675439Y-29004015D01*
X39678452Y-29034608D01*
X39678452Y-29034610D01*
X39688192Y-29133502D01*
X39726681Y-29260381D01*
X39789183Y-29377314D01*
X39873296Y-29479807D01*
X39898976Y-29500882D01*
X40371579Y-29973485D01*
X34789954Y-29973402D01*
X34798127Y-27337000D01*
X35365000Y-27337000D01*
X35365000Y-28087000D01*
X35410624Y-28296233D01*
X35496191Y-28492545D01*
X35618413Y-28668391D01*
X35772592Y-28817014D01*
X35952803Y-28932702D01*
X36155999Y-29004408D01*
X36323000Y-28877502D01*
X36323000Y-27337000D01*
X35365000Y-27337000D01*
X34798127Y-27337000D01*
X34801239Y-26333000D01*
X35365000Y-26333000D01*
X35365000Y-27083000D01*
X36323000Y-27083000D01*
X36323000Y-25542498D01*
X36155999Y-25415592D01*
X35952803Y-25487298D01*
X35772592Y-25602986D01*
X35618413Y-25751609D01*
X35496191Y-25927455D01*
X35410624Y-26123767D01*
X35365000Y-26333000D01*
X34801239Y-26333000D01*
X34808606Y-23957000D01*
X35365000Y-23957000D01*
X35365000Y-24357000D01*
X35410624Y-24566233D01*
X35496191Y-24762545D01*
X35618413Y-24938391D01*
X35772592Y-25087014D01*
X35952803Y-25202702D01*
X36155999Y-25274408D01*
X36323000Y-25147502D01*
X36323000Y-23957000D01*
X36577000Y-23957000D01*
X36577000Y-25147502D01*
X36744001Y-25274408D01*
X36947197Y-25202702D01*
X37127408Y-25087014D01*
X37281587Y-24938391D01*
X37403809Y-24762545D01*
X37489376Y-24566233D01*
X37535000Y-24357000D01*
X37535000Y-23957000D01*
X44015000Y-23957000D01*
X44015000Y-24357000D01*
X44060624Y-24566233D01*
X44146191Y-24762545D01*
X44268413Y-24938391D01*
X44422592Y-25087014D01*
X44602803Y-25202702D01*
X44805999Y-25274408D01*
X44973000Y-25147502D01*
X44973000Y-23957000D01*
X45227000Y-23957000D01*
X45227000Y-25147502D01*
X45394001Y-25274408D01*
X45597197Y-25202702D01*
X45777408Y-25087014D01*
X45931587Y-24938391D01*
X46053809Y-24762545D01*
X46139376Y-24566233D01*
X46185000Y-24357000D01*
X46185000Y-23957000D01*
X45227000Y-23957000D01*
X44973000Y-23957000D01*
X44015000Y-23957000D01*
X37535000Y-23957000D01*
X36577000Y-23957000D01*
X36323000Y-23957000D01*
X35365000Y-23957000D01*
X34808606Y-23957000D01*
X34811008Y-23182600D01*
X34831069Y-23182600D01*
X34857841Y-23179963D01*
X34860825Y-23179984D01*
X34869615Y-23179123D01*
X34917936Y-23174044D01*
X34924011Y-23173446D01*
X34924214Y-23173385D01*
X34966663Y-23168923D01*
X35022861Y-23157387D01*
X35079148Y-23146650D01*
X35087601Y-23144098D01*
X35087607Y-23144096D01*
X35180822Y-23115241D01*
X35233710Y-23093009D01*
X35286842Y-23071542D01*
X35294634Y-23067400D01*
X35294638Y-23067398D01*
X35294641Y-23067396D01*
X35380478Y-23020983D01*
X35427983Y-22988940D01*
X35467621Y-22963002D01*
X35410624Y-23093767D01*
X35365000Y-23303000D01*
X35365000Y-23703000D01*
X36323000Y-23703000D01*
X36323000Y-23683000D01*
X36577000Y-23683000D01*
X36577000Y-23703000D01*
X37535000Y-23703000D01*
X37535000Y-23303000D01*
X37489376Y-23093767D01*
X37403809Y-22897455D01*
X37281587Y-22721609D01*
X37241120Y-22682600D01*
X44308880Y-22682600D01*
X44268413Y-22721609D01*
G04 #@! TA.AperFunction,Conductor*
D36*
G36*
X44268413Y-22721609D02*
G01*
X44146191Y-22897455D01*
X44060624Y-23093767D01*
X44015000Y-23303000D01*
X44015000Y-23703000D01*
X44973000Y-23703000D01*
X44973000Y-23683000D01*
X45227000Y-23683000D01*
X45227000Y-23703000D01*
X46185000Y-23703000D01*
X46185000Y-23303000D01*
X46139376Y-23093767D01*
X46055440Y-22901196D01*
X46123478Y-22956688D01*
X46171252Y-22988429D01*
X46218550Y-23020814D01*
X46226319Y-23025015D01*
X46312480Y-23070827D01*
X46365507Y-23092683D01*
X46418184Y-23115260D01*
X46426621Y-23117873D01*
X46520039Y-23146078D01*
X46576284Y-23157214D01*
X46632371Y-23169136D01*
X46641155Y-23170059D01*
X46657043Y-23171617D01*
X46646301Y-26636205D01*
X46636641Y-26668050D01*
X46623644Y-26800000D01*
X46626901Y-26833066D01*
X46626900Y-29621193D01*
X46414855Y-29833239D01*
X44976716Y-29833239D01*
X44943660Y-29829983D01*
X44910604Y-29833239D01*
X44910602Y-29833239D01*
X44811710Y-29842979D01*
X44684831Y-29881468D01*
X44567898Y-29943970D01*
X44531858Y-29973547D01*
X43444783Y-29973531D01*
X42412358Y-28941107D01*
X42444384Y-28927841D01*
X42475000Y-28907384D01*
X42505616Y-28927841D01*
X42657139Y-28990604D01*
X42817996Y-29022600D01*
X42982004Y-29022600D01*
X43142861Y-28990604D01*
X43265756Y-28939699D01*
X43275784Y-29058767D01*
X43454384Y-29134589D01*
X43644344Y-29174110D01*
X43838364Y-29175813D01*
X44028989Y-29139632D01*
X44208893Y-29066957D01*
X44224216Y-29058767D01*
X44240912Y-28860517D01*
X43750000Y-28369605D01*
X43735858Y-28383748D01*
X43714601Y-28362491D01*
X43732600Y-28272004D01*
X43732600Y-28107996D01*
X43714601Y-28017509D01*
X43735858Y-27996253D01*
X43750000Y-28010395D01*
X43764143Y-27996253D01*
X43943748Y-28175858D01*
X43929605Y-28190000D01*
X44079775Y-28340170D01*
X44146191Y-28492545D01*
X44268413Y-28668391D01*
X44422592Y-28817014D01*
X44602803Y-28932702D01*
X44805999Y-29004408D01*
X44973000Y-28877502D01*
X44973000Y-27337000D01*
X45227000Y-27337000D01*
X45227000Y-28877502D01*
X45394001Y-29004408D01*
X45597197Y-28932702D01*
X45777408Y-28817014D01*
X45931587Y-28668391D01*
X46053809Y-28492545D01*
X46139376Y-28296233D01*
X46185000Y-28087000D01*
X46185000Y-27337000D01*
X45227000Y-27337000D01*
X44973000Y-27337000D01*
X44426608Y-27337000D01*
X44420520Y-27330912D01*
X44618767Y-27314216D01*
X44694589Y-27135616D01*
X44705536Y-27083000D01*
X44973000Y-27083000D01*
X44973000Y-25542498D01*
X45227000Y-25542498D01*
X45227000Y-27083000D01*
X46185000Y-27083000D01*
X46185000Y-26333000D01*
X46139376Y-26123767D01*
X46053809Y-25927455D01*
X45931587Y-25751609D01*
X45777408Y-25602986D01*
X45597197Y-25487298D01*
X45394001Y-25415592D01*
X45227000Y-25542498D01*
X44973000Y-25542498D01*
X44805999Y-25415592D01*
X44602803Y-25487298D01*
X44422592Y-25602986D01*
X44268413Y-25751609D01*
X44146191Y-25927455D01*
X44142272Y-25936445D01*
X44045616Y-25895411D01*
X43855656Y-25855890D01*
X43661636Y-25854187D01*
X43471011Y-25890368D01*
X43418765Y-25911474D01*
X43379807Y-25864003D01*
X43354128Y-25842929D01*
X43152160Y-25640961D01*
X43131081Y-25615276D01*
X43028588Y-25531163D01*
X42911655Y-25468661D01*
X42784776Y-25430172D01*
X42685884Y-25420432D01*
X42685881Y-25420432D01*
X42652825Y-25417176D01*
X42619769Y-25420432D01*
X38933334Y-25420432D01*
X38900278Y-25417176D01*
X38867222Y-25420432D01*
X38867220Y-25420432D01*
X38768328Y-25430172D01*
X38641449Y-25468661D01*
X38524516Y-25531163D01*
X38422023Y-25615276D01*
X38400944Y-25640961D01*
X38198976Y-25842929D01*
X38173297Y-25864003D01*
X38134110Y-25911753D01*
X38095616Y-25895411D01*
X37905656Y-25855890D01*
X37711636Y-25854187D01*
X37521011Y-25890368D01*
X37407611Y-25936178D01*
X37403809Y-25927455D01*
X37281587Y-25751609D01*
X37127408Y-25602986D01*
X36947197Y-25487298D01*
X36744001Y-25415592D01*
X36577000Y-25542498D01*
X36577000Y-27083000D01*
X36843537Y-27083000D01*
X36850368Y-27118989D01*
X36923043Y-27298893D01*
X36931233Y-27314216D01*
X37129480Y-27330912D01*
X37123392Y-27337000D01*
X36577000Y-27337000D01*
X36577000Y-28877502D01*
X36744001Y-29004408D01*
X36947197Y-28932702D01*
X37127408Y-28817014D01*
X37281587Y-28668391D01*
X37403809Y-28492545D01*
X37470225Y-28340170D01*
X37620395Y-28190000D01*
X37606253Y-28175858D01*
X37785858Y-27996253D01*
X37800000Y-28010395D01*
X37814143Y-27996253D01*
X37835399Y-28017509D01*
X37817400Y-28107996D01*
X37817400Y-28272004D01*
X37835399Y-28362491D01*
X37814143Y-28383748D01*
X37800000Y-28369605D01*
X37309088Y-28860517D01*
X37325784Y-29058767D01*
X37504384Y-29134589D01*
X37694344Y-29174110D01*
X37888364Y-29175813D01*
X38078989Y-29139632D01*
X38258893Y-29066957D01*
X38274216Y-29058767D01*
X38284244Y-28939699D01*
X38407139Y-28990604D01*
X38567996Y-29022600D01*
X38732004Y-29022600D01*
X38892861Y-28990604D01*
X39044384Y-28927841D01*
X39075000Y-28907384D01*
X39105616Y-28927841D01*
X39257139Y-28990604D01*
X39417996Y-29022600D01*
X39582004Y-29022600D01*
X39675439Y-29004015D01*
X39678452Y-29034608D01*
X39678452Y-29034610D01*
X39688192Y-29133502D01*
X39726681Y-29260381D01*
X39789183Y-29377314D01*
X39873296Y-29479807D01*
X39898976Y-29500882D01*
X40371579Y-29973485D01*
X34789954Y-29973402D01*
X34798127Y-27337000D01*
X35365000Y-27337000D01*
X35365000Y-28087000D01*
X35410624Y-28296233D01*
X35496191Y-28492545D01*
X35618413Y-28668391D01*
X35772592Y-28817014D01*
X35952803Y-28932702D01*
X36155999Y-29004408D01*
X36323000Y-28877502D01*
X36323000Y-27337000D01*
X35365000Y-27337000D01*
X34798127Y-27337000D01*
X34801239Y-26333000D01*
X35365000Y-26333000D01*
X35365000Y-27083000D01*
X36323000Y-27083000D01*
X36323000Y-25542498D01*
X36155999Y-25415592D01*
X35952803Y-25487298D01*
X35772592Y-25602986D01*
X35618413Y-25751609D01*
X35496191Y-25927455D01*
X35410624Y-26123767D01*
X35365000Y-26333000D01*
X34801239Y-26333000D01*
X34808606Y-23957000D01*
X35365000Y-23957000D01*
X35365000Y-24357000D01*
X35410624Y-24566233D01*
X35496191Y-24762545D01*
X35618413Y-24938391D01*
X35772592Y-25087014D01*
X35952803Y-25202702D01*
X36155999Y-25274408D01*
X36323000Y-25147502D01*
X36323000Y-23957000D01*
X36577000Y-23957000D01*
X36577000Y-25147502D01*
X36744001Y-25274408D01*
X36947197Y-25202702D01*
X37127408Y-25087014D01*
X37281587Y-24938391D01*
X37403809Y-24762545D01*
X37489376Y-24566233D01*
X37535000Y-24357000D01*
X37535000Y-23957000D01*
X44015000Y-23957000D01*
X44015000Y-24357000D01*
X44060624Y-24566233D01*
X44146191Y-24762545D01*
X44268413Y-24938391D01*
X44422592Y-25087014D01*
X44602803Y-25202702D01*
X44805999Y-25274408D01*
X44973000Y-25147502D01*
X44973000Y-23957000D01*
X45227000Y-23957000D01*
X45227000Y-25147502D01*
X45394001Y-25274408D01*
X45597197Y-25202702D01*
X45777408Y-25087014D01*
X45931587Y-24938391D01*
X46053809Y-24762545D01*
X46139376Y-24566233D01*
X46185000Y-24357000D01*
X46185000Y-23957000D01*
X45227000Y-23957000D01*
X44973000Y-23957000D01*
X44015000Y-23957000D01*
X37535000Y-23957000D01*
X36577000Y-23957000D01*
X36323000Y-23957000D01*
X35365000Y-23957000D01*
X34808606Y-23957000D01*
X34811008Y-23182600D01*
X34831069Y-23182600D01*
X34857841Y-23179963D01*
X34860825Y-23179984D01*
X34869615Y-23179123D01*
X34917936Y-23174044D01*
X34924011Y-23173446D01*
X34924214Y-23173385D01*
X34966663Y-23168923D01*
X35022861Y-23157387D01*
X35079148Y-23146650D01*
X35087601Y-23144098D01*
X35087607Y-23144096D01*
X35180822Y-23115241D01*
X35233710Y-23093009D01*
X35286842Y-23071542D01*
X35294634Y-23067400D01*
X35294638Y-23067398D01*
X35294641Y-23067396D01*
X35380478Y-23020983D01*
X35427983Y-22988940D01*
X35467621Y-22963002D01*
X35410624Y-23093767D01*
X35365000Y-23303000D01*
X35365000Y-23703000D01*
X36323000Y-23703000D01*
X36323000Y-23683000D01*
X36577000Y-23683000D01*
X36577000Y-23703000D01*
X37535000Y-23703000D01*
X37535000Y-23303000D01*
X37489376Y-23093767D01*
X37403809Y-22897455D01*
X37281587Y-22721609D01*
X37241120Y-22682600D01*
X44308880Y-22682600D01*
X44268413Y-22721609D01*
G37*
G04 #@! TD.AperFunction*
D35*
X43943748Y-26825858D02*
X43929605Y-26840000D01*
X43943748Y-26854143D01*
X43764143Y-27033748D01*
X43750000Y-27019605D01*
X43735858Y-27033748D01*
X43714601Y-27012491D01*
X43732600Y-26922004D01*
X43732600Y-26757996D01*
X43714601Y-26667509D01*
X43735858Y-26646253D01*
X43750000Y-26660395D01*
X43764143Y-26646253D01*
X43943748Y-26825858D01*
G04 #@! TA.AperFunction,Conductor*
D36*
G36*
X43943748Y-26825858D02*
G01*
X43929605Y-26840000D01*
X43943748Y-26854143D01*
X43764143Y-27033748D01*
X43750000Y-27019605D01*
X43735858Y-27033748D01*
X43714601Y-27012491D01*
X43732600Y-26922004D01*
X43732600Y-26757996D01*
X43714601Y-26667509D01*
X43735858Y-26646253D01*
X43750000Y-26660395D01*
X43764143Y-26646253D01*
X43943748Y-26825858D01*
G37*
G04 #@! TD.AperFunction*
D35*
X37835399Y-26667509D02*
X37817400Y-26757996D01*
X37817400Y-26922004D01*
X37835399Y-27012491D01*
X37814143Y-27033748D01*
X37800000Y-27019605D01*
X37785858Y-27033748D01*
X37606253Y-26854143D01*
X37620395Y-26840000D01*
X37606253Y-26825858D01*
X37785858Y-26646253D01*
X37800000Y-26660395D01*
X37814143Y-26646253D01*
X37835399Y-26667509D01*
G04 #@! TA.AperFunction,Conductor*
D36*
G36*
X37835399Y-26667509D02*
G01*
X37817400Y-26757996D01*
X37817400Y-26922004D01*
X37835399Y-27012491D01*
X37814143Y-27033748D01*
X37800000Y-27019605D01*
X37785858Y-27033748D01*
X37606253Y-26854143D01*
X37620395Y-26840000D01*
X37606253Y-26825858D01*
X37785858Y-26646253D01*
X37800000Y-26660395D01*
X37814143Y-26646253D01*
X37835399Y-26667509D01*
G37*
G04 #@! TD.AperFunction*
D35*
X77154361Y-70925156D02*
X77205354Y-71048263D01*
X77476377Y-71453877D01*
X77821323Y-71798823D01*
X78226937Y-72069846D01*
X78677632Y-72256530D01*
X79156086Y-72351700D01*
X79643914Y-72351700D01*
X79773877Y-72325849D01*
X84113589Y-72315301D01*
X84032393Y-81485579D01*
X75415324Y-81524579D01*
X73100343Y-79209600D01*
X73444523Y-79209600D01*
X74146497Y-79911575D01*
X74165590Y-79934840D01*
X74258414Y-80011018D01*
X74364316Y-80067623D01*
X74479226Y-80102481D01*
X74568787Y-80111302D01*
X74568788Y-80111302D01*
X74598727Y-80114251D01*
X74628666Y-80111302D01*
X77552747Y-80111302D01*
X77582688Y-80114251D01*
X77612629Y-80111302D01*
X77702190Y-80102481D01*
X77817100Y-80067623D01*
X77923002Y-80011018D01*
X78015826Y-79934840D01*
X78034923Y-79911570D01*
X78290057Y-79656436D01*
X79862889Y-79656436D01*
X79957495Y-79647118D01*
X80048466Y-79619523D01*
X80132304Y-79574710D01*
X80205790Y-79514402D01*
X80266098Y-79440916D01*
X80310911Y-79357078D01*
X80338506Y-79266107D01*
X80347824Y-79171501D01*
X80347824Y-78950449D01*
X80378964Y-79008708D01*
X80470362Y-79120078D01*
X80581732Y-79211476D01*
X80708792Y-79279391D01*
X80846660Y-79321213D01*
X80990039Y-79335335D01*
X81890041Y-79335335D01*
X82033420Y-79321213D01*
X82171288Y-79279391D01*
X82298348Y-79211476D01*
X82409718Y-79120078D01*
X82501116Y-79008708D01*
X82569031Y-78881648D01*
X82610853Y-78743780D01*
X82624975Y-78600401D01*
X82624975Y-77950399D01*
X82610853Y-77807020D01*
X82569031Y-77669152D01*
X82501116Y-77542092D01*
X82409718Y-77430722D01*
X82366520Y-77395271D01*
X82384220Y-77389902D01*
X82494534Y-77330937D01*
X82591225Y-77251585D01*
X82670577Y-77154894D01*
X82729542Y-77044580D01*
X82765852Y-76924882D01*
X82778112Y-76800400D01*
X82775040Y-76511150D01*
X82616290Y-76352400D01*
X81567040Y-76352400D01*
X81567040Y-76372400D01*
X81313040Y-76372400D01*
X81313040Y-76352400D01*
X81293040Y-76352400D01*
X81293040Y-76098400D01*
X81313040Y-76098400D01*
X81313040Y-75174150D01*
X81567040Y-75174150D01*
X81567040Y-76098400D01*
X82616290Y-76098400D01*
X82775040Y-75939650D01*
X82778112Y-75650400D01*
X82765852Y-75525918D01*
X82729542Y-75406220D01*
X82670577Y-75295906D01*
X82591225Y-75199215D01*
X82494534Y-75119863D01*
X82384220Y-75060898D01*
X82264522Y-75024588D01*
X82140040Y-75012328D01*
X81725790Y-75015400D01*
X81567040Y-75174150D01*
X81313040Y-75174150D01*
X81154290Y-75015400D01*
X80740040Y-75012328D01*
X80615558Y-75024588D01*
X80499799Y-75059703D01*
X80488701Y-74947019D01*
X80452391Y-74827321D01*
X80393426Y-74717007D01*
X80314074Y-74620316D01*
X80217383Y-74540964D01*
X80107069Y-74481999D01*
X79987371Y-74445689D01*
X79862889Y-74433429D01*
X79098639Y-74436501D01*
X78939889Y-74595251D01*
X78939889Y-75844501D01*
X78959889Y-75844501D01*
X78959889Y-76098501D01*
X78939889Y-76098501D01*
X78939889Y-76118501D01*
X78685889Y-76118501D01*
X78685889Y-76098501D01*
X78665889Y-76098501D01*
X78665889Y-75844501D01*
X78685889Y-75844501D01*
X78685889Y-74595251D01*
X78619230Y-74528592D01*
X78650812Y-74424482D01*
X78663072Y-74300000D01*
X78660000Y-73885750D01*
X78501250Y-73727000D01*
X77577000Y-73727000D01*
X77577000Y-73747000D01*
X77323000Y-73747000D01*
X77323000Y-73727000D01*
X77303000Y-73727000D01*
X77303000Y-73473000D01*
X77323000Y-73473000D01*
X77323000Y-72423750D01*
X77577000Y-72423750D01*
X77577000Y-73473000D01*
X78501250Y-73473000D01*
X78660000Y-73314250D01*
X78663072Y-72900000D01*
X78650812Y-72775518D01*
X78614502Y-72655820D01*
X78555537Y-72545506D01*
X78476185Y-72448815D01*
X78379494Y-72369463D01*
X78269180Y-72310498D01*
X78149482Y-72274188D01*
X78025000Y-72261928D01*
X77735750Y-72265000D01*
X77577000Y-72423750D01*
X77323000Y-72423750D01*
X77164250Y-72265000D01*
X76875000Y-72261928D01*
X76750518Y-72274188D01*
X76630820Y-72310498D01*
X76520506Y-72369463D01*
X76423815Y-72448815D01*
X76344463Y-72545506D01*
X76285498Y-72655820D01*
X76280129Y-72673520D01*
X76244678Y-72630322D01*
X76133308Y-72538924D01*
X76006248Y-72471009D01*
X75868380Y-72429187D01*
X75725001Y-72415065D01*
X75074999Y-72415065D01*
X74931620Y-72429187D01*
X74793752Y-72471009D01*
X74666692Y-72538924D01*
X74555322Y-72630322D01*
X74463924Y-72741692D01*
X74396009Y-72868752D01*
X74354187Y-73006620D01*
X74340065Y-73149999D01*
X74340065Y-74050001D01*
X74354187Y-74193380D01*
X74396009Y-74331248D01*
X74463924Y-74458308D01*
X74555322Y-74569678D01*
X74643138Y-74641746D01*
X74593474Y-74668292D01*
X74519988Y-74728600D01*
X74459680Y-74802086D01*
X74414867Y-74885924D01*
X74387272Y-74976895D01*
X74377954Y-75071501D01*
X74377954Y-76494332D01*
X73381887Y-77490400D01*
X72982582Y-77490400D01*
X72985040Y-77461150D01*
X72868569Y-77344679D01*
X72871275Y-77028300D01*
X72963672Y-77000271D01*
X73080605Y-76937769D01*
X73183098Y-76853656D01*
X73200634Y-76832288D01*
X73221996Y-76814757D01*
X73306110Y-76712264D01*
X73368612Y-76595331D01*
X73407101Y-76468452D01*
X73416841Y-76369560D01*
X73416841Y-76369550D01*
X73420096Y-76336502D01*
X73416841Y-76303453D01*
X73416841Y-74126797D01*
X73420097Y-74093741D01*
X73415789Y-74050001D01*
X73407101Y-73961790D01*
X73368612Y-73834911D01*
X73360376Y-73819502D01*
X73306111Y-73717978D01*
X73243071Y-73641163D01*
X73243066Y-73641158D01*
X73221997Y-73615485D01*
X73196323Y-73594415D01*
X72903159Y-73301251D01*
X72913973Y-72037158D01*
X73000000Y-72038072D01*
X73124482Y-72025812D01*
X73244180Y-71989502D01*
X73354494Y-71930537D01*
X73451185Y-71851185D01*
X73530537Y-71754494D01*
X73589502Y-71644180D01*
X73625812Y-71524482D01*
X73638072Y-71400000D01*
X73635481Y-71050591D01*
X73676935Y-71078290D01*
X73924003Y-71180628D01*
X74186288Y-71232800D01*
X74453712Y-71232800D01*
X74715997Y-71180628D01*
X74963065Y-71078290D01*
X75185420Y-70929717D01*
X75198083Y-70917054D01*
X77154361Y-70925156D01*
G04 #@! TA.AperFunction,Conductor*
D36*
G36*
X77154361Y-70925156D02*
G01*
X77205354Y-71048263D01*
X77476377Y-71453877D01*
X77821323Y-71798823D01*
X78226937Y-72069846D01*
X78677632Y-72256530D01*
X79156086Y-72351700D01*
X79643914Y-72351700D01*
X79773877Y-72325849D01*
X84113589Y-72315301D01*
X84032393Y-81485579D01*
X75415324Y-81524579D01*
X73100343Y-79209600D01*
X73444523Y-79209600D01*
X74146497Y-79911575D01*
X74165590Y-79934840D01*
X74258414Y-80011018D01*
X74364316Y-80067623D01*
X74479226Y-80102481D01*
X74568787Y-80111302D01*
X74568788Y-80111302D01*
X74598727Y-80114251D01*
X74628666Y-80111302D01*
X77552747Y-80111302D01*
X77582688Y-80114251D01*
X77612629Y-80111302D01*
X77702190Y-80102481D01*
X77817100Y-80067623D01*
X77923002Y-80011018D01*
X78015826Y-79934840D01*
X78034923Y-79911570D01*
X78290057Y-79656436D01*
X79862889Y-79656436D01*
X79957495Y-79647118D01*
X80048466Y-79619523D01*
X80132304Y-79574710D01*
X80205790Y-79514402D01*
X80266098Y-79440916D01*
X80310911Y-79357078D01*
X80338506Y-79266107D01*
X80347824Y-79171501D01*
X80347824Y-78950449D01*
X80378964Y-79008708D01*
X80470362Y-79120078D01*
X80581732Y-79211476D01*
X80708792Y-79279391D01*
X80846660Y-79321213D01*
X80990039Y-79335335D01*
X81890041Y-79335335D01*
X82033420Y-79321213D01*
X82171288Y-79279391D01*
X82298348Y-79211476D01*
X82409718Y-79120078D01*
X82501116Y-79008708D01*
X82569031Y-78881648D01*
X82610853Y-78743780D01*
X82624975Y-78600401D01*
X82624975Y-77950399D01*
X82610853Y-77807020D01*
X82569031Y-77669152D01*
X82501116Y-77542092D01*
X82409718Y-77430722D01*
X82366520Y-77395271D01*
X82384220Y-77389902D01*
X82494534Y-77330937D01*
X82591225Y-77251585D01*
X82670577Y-77154894D01*
X82729542Y-77044580D01*
X82765852Y-76924882D01*
X82778112Y-76800400D01*
X82775040Y-76511150D01*
X82616290Y-76352400D01*
X81567040Y-76352400D01*
X81567040Y-76372400D01*
X81313040Y-76372400D01*
X81313040Y-76352400D01*
X81293040Y-76352400D01*
X81293040Y-76098400D01*
X81313040Y-76098400D01*
X81313040Y-75174150D01*
X81567040Y-75174150D01*
X81567040Y-76098400D01*
X82616290Y-76098400D01*
X82775040Y-75939650D01*
X82778112Y-75650400D01*
X82765852Y-75525918D01*
X82729542Y-75406220D01*
X82670577Y-75295906D01*
X82591225Y-75199215D01*
X82494534Y-75119863D01*
X82384220Y-75060898D01*
X82264522Y-75024588D01*
X82140040Y-75012328D01*
X81725790Y-75015400D01*
X81567040Y-75174150D01*
X81313040Y-75174150D01*
X81154290Y-75015400D01*
X80740040Y-75012328D01*
X80615558Y-75024588D01*
X80499799Y-75059703D01*
X80488701Y-74947019D01*
X80452391Y-74827321D01*
X80393426Y-74717007D01*
X80314074Y-74620316D01*
X80217383Y-74540964D01*
X80107069Y-74481999D01*
X79987371Y-74445689D01*
X79862889Y-74433429D01*
X79098639Y-74436501D01*
X78939889Y-74595251D01*
X78939889Y-75844501D01*
X78959889Y-75844501D01*
X78959889Y-76098501D01*
X78939889Y-76098501D01*
X78939889Y-76118501D01*
X78685889Y-76118501D01*
X78685889Y-76098501D01*
X78665889Y-76098501D01*
X78665889Y-75844501D01*
X78685889Y-75844501D01*
X78685889Y-74595251D01*
X78619230Y-74528592D01*
X78650812Y-74424482D01*
X78663072Y-74300000D01*
X78660000Y-73885750D01*
X78501250Y-73727000D01*
X77577000Y-73727000D01*
X77577000Y-73747000D01*
X77323000Y-73747000D01*
X77323000Y-73727000D01*
X77303000Y-73727000D01*
X77303000Y-73473000D01*
X77323000Y-73473000D01*
X77323000Y-72423750D01*
X77577000Y-72423750D01*
X77577000Y-73473000D01*
X78501250Y-73473000D01*
X78660000Y-73314250D01*
X78663072Y-72900000D01*
X78650812Y-72775518D01*
X78614502Y-72655820D01*
X78555537Y-72545506D01*
X78476185Y-72448815D01*
X78379494Y-72369463D01*
X78269180Y-72310498D01*
X78149482Y-72274188D01*
X78025000Y-72261928D01*
X77735750Y-72265000D01*
X77577000Y-72423750D01*
X77323000Y-72423750D01*
X77164250Y-72265000D01*
X76875000Y-72261928D01*
X76750518Y-72274188D01*
X76630820Y-72310498D01*
X76520506Y-72369463D01*
X76423815Y-72448815D01*
X76344463Y-72545506D01*
X76285498Y-72655820D01*
X76280129Y-72673520D01*
X76244678Y-72630322D01*
X76133308Y-72538924D01*
X76006248Y-72471009D01*
X75868380Y-72429187D01*
X75725001Y-72415065D01*
X75074999Y-72415065D01*
X74931620Y-72429187D01*
X74793752Y-72471009D01*
X74666692Y-72538924D01*
X74555322Y-72630322D01*
X74463924Y-72741692D01*
X74396009Y-72868752D01*
X74354187Y-73006620D01*
X74340065Y-73149999D01*
X74340065Y-74050001D01*
X74354187Y-74193380D01*
X74396009Y-74331248D01*
X74463924Y-74458308D01*
X74555322Y-74569678D01*
X74643138Y-74641746D01*
X74593474Y-74668292D01*
X74519988Y-74728600D01*
X74459680Y-74802086D01*
X74414867Y-74885924D01*
X74387272Y-74976895D01*
X74377954Y-75071501D01*
X74377954Y-76494332D01*
X73381887Y-77490400D01*
X72982582Y-77490400D01*
X72985040Y-77461150D01*
X72868569Y-77344679D01*
X72871275Y-77028300D01*
X72963672Y-77000271D01*
X73080605Y-76937769D01*
X73183098Y-76853656D01*
X73200634Y-76832288D01*
X73221996Y-76814757D01*
X73306110Y-76712264D01*
X73368612Y-76595331D01*
X73407101Y-76468452D01*
X73416841Y-76369560D01*
X73416841Y-76369550D01*
X73420096Y-76336502D01*
X73416841Y-76303453D01*
X73416841Y-74126797D01*
X73420097Y-74093741D01*
X73415789Y-74050001D01*
X73407101Y-73961790D01*
X73368612Y-73834911D01*
X73360376Y-73819502D01*
X73306111Y-73717978D01*
X73243071Y-73641163D01*
X73243066Y-73641158D01*
X73221997Y-73615485D01*
X73196323Y-73594415D01*
X72903159Y-73301251D01*
X72913973Y-72037158D01*
X73000000Y-72038072D01*
X73124482Y-72025812D01*
X73244180Y-71989502D01*
X73354494Y-71930537D01*
X73451185Y-71851185D01*
X73530537Y-71754494D01*
X73589502Y-71644180D01*
X73625812Y-71524482D01*
X73638072Y-71400000D01*
X73635481Y-71050591D01*
X73676935Y-71078290D01*
X73924003Y-71180628D01*
X74186288Y-71232800D01*
X74453712Y-71232800D01*
X74715997Y-71180628D01*
X74963065Y-71078290D01*
X75185420Y-70929717D01*
X75198083Y-70917054D01*
X77154361Y-70925156D01*
G37*
G04 #@! TD.AperFunction*
D35*
X76039889Y-78144501D02*
X76059889Y-78144501D01*
X76059889Y-78398501D01*
X76039889Y-78398501D01*
X76039889Y-78418501D01*
X75785889Y-78418501D01*
X75785889Y-78398501D01*
X75765889Y-78398501D01*
X75765889Y-78144501D01*
X75785889Y-78144501D01*
X75785889Y-78124501D01*
X76039889Y-78124501D01*
X76039889Y-78144501D01*
G04 #@! TA.AperFunction,Conductor*
D36*
G36*
X76039889Y-78144501D02*
G01*
X76059889Y-78144501D01*
X76059889Y-78398501D01*
X76039889Y-78398501D01*
X76039889Y-78418501D01*
X75785889Y-78418501D01*
X75785889Y-78398501D01*
X75765889Y-78398501D01*
X75765889Y-78144501D01*
X75785889Y-78144501D01*
X75785889Y-78124501D01*
X76039889Y-78124501D01*
X76039889Y-78144501D01*
G37*
G04 #@! TD.AperFunction*
D35*
X65140105Y-73825400D02*
X65149423Y-73920006D01*
X65177018Y-74010977D01*
X65221831Y-74094815D01*
X65227040Y-74101162D01*
X65227040Y-74301650D01*
X65385790Y-74460400D01*
X65502671Y-74450577D01*
X65622185Y-74413665D01*
X65732201Y-74354146D01*
X65785040Y-74310335D01*
X65912862Y-74310335D01*
X65876693Y-74397654D01*
X65846618Y-74548851D01*
X65846618Y-74703009D01*
X65876693Y-74854206D01*
X65935687Y-74996630D01*
X66021333Y-75124809D01*
X66130339Y-75233815D01*
X66258518Y-75319461D01*
X66400942Y-75378455D01*
X66552139Y-75408530D01*
X66706297Y-75408530D01*
X66857494Y-75378455D01*
X66999918Y-75319461D01*
X67128097Y-75233815D01*
X67227644Y-75134268D01*
X67271724Y-75152527D01*
X67422921Y-75182602D01*
X67577079Y-75182602D01*
X67649383Y-75168220D01*
X67701165Y-75245718D01*
X67810171Y-75354724D01*
X67938350Y-75440370D01*
X68080774Y-75499364D01*
X68231971Y-75529439D01*
X68386129Y-75529439D01*
X68537326Y-75499364D01*
X68679750Y-75440370D01*
X68807929Y-75354724D01*
X68916935Y-75245718D01*
X68966595Y-75171396D01*
X69022921Y-75182600D01*
X69177079Y-75182600D01*
X69239529Y-75170178D01*
X69292115Y-75248879D01*
X69401121Y-75357885D01*
X69488601Y-75416337D01*
X69467400Y-75522921D01*
X69467400Y-75677079D01*
X69485940Y-75770286D01*
X69411142Y-75820264D01*
X69302136Y-75929270D01*
X69216490Y-76057449D01*
X69157496Y-76199873D01*
X69127421Y-76351070D01*
X69127421Y-76505228D01*
X69157496Y-76656425D01*
X69216490Y-76798849D01*
X69302136Y-76927028D01*
X69411142Y-77036034D01*
X69539321Y-77121680D01*
X69681745Y-77180674D01*
X69832942Y-77210749D01*
X69987100Y-77210749D01*
X70138297Y-77180674D01*
X70280721Y-77121680D01*
X70390243Y-77048500D01*
X70574400Y-77048500D01*
X70580625Y-77053609D01*
X70664463Y-77098422D01*
X70755434Y-77126017D01*
X70850040Y-77135335D01*
X71747040Y-77135335D01*
X71747040Y-77215465D01*
X70850040Y-77215465D01*
X70755434Y-77224783D01*
X70664463Y-77252378D01*
X70580625Y-77297191D01*
X70574278Y-77302400D01*
X70373790Y-77302400D01*
X70215040Y-77461150D01*
X70224863Y-77578031D01*
X70261775Y-77697545D01*
X70321294Y-77807561D01*
X70365105Y-77860400D01*
X70365105Y-78250400D01*
X70374423Y-78345006D01*
X70383643Y-78375400D01*
X70374423Y-78405794D01*
X70365105Y-78500400D01*
X70365105Y-79050400D01*
X70374423Y-79145006D01*
X70383643Y-79175400D01*
X70374423Y-79205794D01*
X70365105Y-79300400D01*
X70365105Y-79850400D01*
X70374423Y-79945006D01*
X70383643Y-79975400D01*
X70374423Y-80005794D01*
X70365105Y-80100400D01*
X70365105Y-80650400D01*
X70374423Y-80745006D01*
X70383643Y-80775400D01*
X70374423Y-80805794D01*
X70365105Y-80900400D01*
X70365105Y-81450400D01*
X70374423Y-81545006D01*
X70383643Y-81575400D01*
X70374423Y-81605794D01*
X70365105Y-81700400D01*
X70365105Y-82250400D01*
X70374423Y-82345006D01*
X70383643Y-82375400D01*
X70374423Y-82405794D01*
X70365105Y-82500400D01*
X70365105Y-83050400D01*
X70372125Y-83121674D01*
X70302671Y-83100223D01*
X70185790Y-83090400D01*
X70027040Y-83249150D01*
X70027040Y-84348400D01*
X70651290Y-84348400D01*
X70810040Y-84189650D01*
X70813104Y-83728613D01*
X70801470Y-83604071D01*
X70778910Y-83528329D01*
X70850040Y-83535335D01*
X72273192Y-83535335D01*
X72473064Y-83735207D01*
X72473049Y-84946001D01*
X70811268Y-84946001D01*
X70810040Y-84761150D01*
X70651290Y-84602400D01*
X70027040Y-84602400D01*
X70027040Y-84622400D01*
X69859975Y-84622400D01*
X69859975Y-83725400D01*
X69850657Y-83630794D01*
X69823062Y-83539823D01*
X69778249Y-83455985D01*
X69773140Y-83449760D01*
X69773140Y-83151215D01*
X69793531Y-83120698D01*
X69852525Y-82978274D01*
X69882600Y-82827077D01*
X69882600Y-82672919D01*
X69852525Y-82521722D01*
X69793531Y-82379298D01*
X69707885Y-82251119D01*
X69598879Y-82142113D01*
X69470700Y-82056467D01*
X69328276Y-81997473D01*
X69177079Y-81967398D01*
X69022921Y-81967398D01*
X68871724Y-81997473D01*
X68729300Y-82056467D01*
X68601121Y-82142113D01*
X68492115Y-82251119D01*
X68406469Y-82379298D01*
X68347475Y-82521722D01*
X68317400Y-82672919D01*
X68317400Y-82827077D01*
X68347475Y-82978274D01*
X68406469Y-83120698D01*
X68426941Y-83151336D01*
X68426941Y-83240465D01*
X68025040Y-83240465D01*
X67930434Y-83249783D01*
X67900040Y-83259003D01*
X67869646Y-83249783D01*
X67775040Y-83240465D01*
X67225040Y-83240465D01*
X67130434Y-83249783D01*
X67100040Y-83259003D01*
X67069646Y-83249783D01*
X66975040Y-83240465D01*
X66425040Y-83240465D01*
X66330434Y-83249783D01*
X66300040Y-83259003D01*
X66269646Y-83249783D01*
X66175040Y-83240465D01*
X65625040Y-83240465D01*
X65530434Y-83249783D01*
X65500040Y-83259003D01*
X65469646Y-83249783D01*
X65375040Y-83240465D01*
X64825040Y-83240465D01*
X64730434Y-83249783D01*
X64700040Y-83259003D01*
X64669646Y-83249783D01*
X64575040Y-83240465D01*
X64025040Y-83240465D01*
X63930434Y-83249783D01*
X63900040Y-83259003D01*
X63869646Y-83249783D01*
X63775040Y-83240465D01*
X63225040Y-83240465D01*
X63130434Y-83249783D01*
X63100040Y-83259003D01*
X63069646Y-83249783D01*
X62975040Y-83240465D01*
X62425040Y-83240465D01*
X62330434Y-83249783D01*
X62300040Y-83259003D01*
X62269646Y-83249783D01*
X62175040Y-83240465D01*
X62146916Y-83240465D01*
X62193531Y-83170700D01*
X62252525Y-83028276D01*
X62282600Y-82877079D01*
X62282600Y-82722921D01*
X62252525Y-82571724D01*
X62193531Y-82429300D01*
X62107885Y-82301121D01*
X61998879Y-82192115D01*
X61870700Y-82106469D01*
X61728276Y-82047475D01*
X61577079Y-82017400D01*
X61422921Y-82017400D01*
X61271724Y-82047475D01*
X61189873Y-82081379D01*
X61135617Y-82052378D01*
X61044646Y-82024783D01*
X60950040Y-82015465D01*
X60053040Y-82015465D01*
X60053040Y-81935335D01*
X60950040Y-81935335D01*
X61044646Y-81926017D01*
X61135617Y-81898422D01*
X61219455Y-81853609D01*
X61225802Y-81848400D01*
X61426290Y-81848400D01*
X61585040Y-81689650D01*
X61575217Y-81572769D01*
X61538305Y-81453255D01*
X61478786Y-81343239D01*
X61434975Y-81290400D01*
X61434975Y-80900400D01*
X61425657Y-80805794D01*
X61416437Y-80775400D01*
X61425657Y-80745006D01*
X61434975Y-80650400D01*
X61434975Y-80100400D01*
X61425657Y-80005794D01*
X61416437Y-79975400D01*
X61425657Y-79945006D01*
X61434975Y-79850400D01*
X61434975Y-79300400D01*
X61425657Y-79205794D01*
X61416437Y-79175400D01*
X61425657Y-79145006D01*
X61434975Y-79050400D01*
X61434975Y-78500400D01*
X61425657Y-78405794D01*
X61416437Y-78375400D01*
X61425657Y-78345006D01*
X61434975Y-78250400D01*
X61434975Y-77700400D01*
X61425657Y-77605794D01*
X61416437Y-77575400D01*
X61425657Y-77545006D01*
X61434975Y-77450400D01*
X61434975Y-76900400D01*
X61425657Y-76805794D01*
X61416437Y-76775400D01*
X61425657Y-76745006D01*
X61434975Y-76650400D01*
X61434975Y-76260400D01*
X61478786Y-76207561D01*
X61538305Y-76097545D01*
X61575217Y-75978031D01*
X61585040Y-75861150D01*
X61426290Y-75702400D01*
X61225802Y-75702400D01*
X61219455Y-75697191D01*
X61135617Y-75652378D01*
X61044646Y-75624783D01*
X60950040Y-75615465D01*
X60053040Y-75615465D01*
X60053040Y-75535335D01*
X60950040Y-75535335D01*
X61044646Y-75526017D01*
X61135617Y-75498422D01*
X61219455Y-75453609D01*
X61225680Y-75448500D01*
X62091504Y-75448500D01*
X62124560Y-75451756D01*
X62157616Y-75448500D01*
X62157619Y-75448500D01*
X62256511Y-75438760D01*
X62383390Y-75400271D01*
X62439905Y-75370063D01*
X62528276Y-75352485D01*
X62670700Y-75293491D01*
X62798879Y-75207845D01*
X62907885Y-75098839D01*
X62993531Y-74970660D01*
X63052525Y-74828236D01*
X63058091Y-74800255D01*
X63152611Y-74705735D01*
X63178296Y-74684656D01*
X63262409Y-74582163D01*
X63324911Y-74465230D01*
X63363400Y-74338351D01*
X63366159Y-74310335D01*
X63775040Y-74310335D01*
X63869646Y-74301017D01*
X63900040Y-74291797D01*
X63930434Y-74301017D01*
X64025040Y-74310335D01*
X64415040Y-74310335D01*
X64467879Y-74354146D01*
X64577895Y-74413665D01*
X64697409Y-74450577D01*
X64814290Y-74460400D01*
X64973040Y-74301650D01*
X64973040Y-74101162D01*
X64978249Y-74094815D01*
X65023062Y-74010977D01*
X65050657Y-73920006D01*
X65059975Y-73825400D01*
X65059975Y-72928400D01*
X65140105Y-72928400D01*
X65140105Y-73825400D01*
G04 #@! TA.AperFunction,Conductor*
D36*
G36*
X65140105Y-73825400D02*
G01*
X65149423Y-73920006D01*
X65177018Y-74010977D01*
X65221831Y-74094815D01*
X65227040Y-74101162D01*
X65227040Y-74301650D01*
X65385790Y-74460400D01*
X65502671Y-74450577D01*
X65622185Y-74413665D01*
X65732201Y-74354146D01*
X65785040Y-74310335D01*
X65912862Y-74310335D01*
X65876693Y-74397654D01*
X65846618Y-74548851D01*
X65846618Y-74703009D01*
X65876693Y-74854206D01*
X65935687Y-74996630D01*
X66021333Y-75124809D01*
X66130339Y-75233815D01*
X66258518Y-75319461D01*
X66400942Y-75378455D01*
X66552139Y-75408530D01*
X66706297Y-75408530D01*
X66857494Y-75378455D01*
X66999918Y-75319461D01*
X67128097Y-75233815D01*
X67227644Y-75134268D01*
X67271724Y-75152527D01*
X67422921Y-75182602D01*
X67577079Y-75182602D01*
X67649383Y-75168220D01*
X67701165Y-75245718D01*
X67810171Y-75354724D01*
X67938350Y-75440370D01*
X68080774Y-75499364D01*
X68231971Y-75529439D01*
X68386129Y-75529439D01*
X68537326Y-75499364D01*
X68679750Y-75440370D01*
X68807929Y-75354724D01*
X68916935Y-75245718D01*
X68966595Y-75171396D01*
X69022921Y-75182600D01*
X69177079Y-75182600D01*
X69239529Y-75170178D01*
X69292115Y-75248879D01*
X69401121Y-75357885D01*
X69488601Y-75416337D01*
X69467400Y-75522921D01*
X69467400Y-75677079D01*
X69485940Y-75770286D01*
X69411142Y-75820264D01*
X69302136Y-75929270D01*
X69216490Y-76057449D01*
X69157496Y-76199873D01*
X69127421Y-76351070D01*
X69127421Y-76505228D01*
X69157496Y-76656425D01*
X69216490Y-76798849D01*
X69302136Y-76927028D01*
X69411142Y-77036034D01*
X69539321Y-77121680D01*
X69681745Y-77180674D01*
X69832942Y-77210749D01*
X69987100Y-77210749D01*
X70138297Y-77180674D01*
X70280721Y-77121680D01*
X70390243Y-77048500D01*
X70574400Y-77048500D01*
X70580625Y-77053609D01*
X70664463Y-77098422D01*
X70755434Y-77126017D01*
X70850040Y-77135335D01*
X71747040Y-77135335D01*
X71747040Y-77215465D01*
X70850040Y-77215465D01*
X70755434Y-77224783D01*
X70664463Y-77252378D01*
X70580625Y-77297191D01*
X70574278Y-77302400D01*
X70373790Y-77302400D01*
X70215040Y-77461150D01*
X70224863Y-77578031D01*
X70261775Y-77697545D01*
X70321294Y-77807561D01*
X70365105Y-77860400D01*
X70365105Y-78250400D01*
X70374423Y-78345006D01*
X70383643Y-78375400D01*
X70374423Y-78405794D01*
X70365105Y-78500400D01*
X70365105Y-79050400D01*
X70374423Y-79145006D01*
X70383643Y-79175400D01*
X70374423Y-79205794D01*
X70365105Y-79300400D01*
X70365105Y-79850400D01*
X70374423Y-79945006D01*
X70383643Y-79975400D01*
X70374423Y-80005794D01*
X70365105Y-80100400D01*
X70365105Y-80650400D01*
X70374423Y-80745006D01*
X70383643Y-80775400D01*
X70374423Y-80805794D01*
X70365105Y-80900400D01*
X70365105Y-81450400D01*
X70374423Y-81545006D01*
X70383643Y-81575400D01*
X70374423Y-81605794D01*
X70365105Y-81700400D01*
X70365105Y-82250400D01*
X70374423Y-82345006D01*
X70383643Y-82375400D01*
X70374423Y-82405794D01*
X70365105Y-82500400D01*
X70365105Y-83050400D01*
X70372125Y-83121674D01*
X70302671Y-83100223D01*
X70185790Y-83090400D01*
X70027040Y-83249150D01*
X70027040Y-84348400D01*
X70651290Y-84348400D01*
X70810040Y-84189650D01*
X70813104Y-83728613D01*
X70801470Y-83604071D01*
X70778910Y-83528329D01*
X70850040Y-83535335D01*
X72273192Y-83535335D01*
X72473064Y-83735207D01*
X72473049Y-84946001D01*
X70811268Y-84946001D01*
X70810040Y-84761150D01*
X70651290Y-84602400D01*
X70027040Y-84602400D01*
X70027040Y-84622400D01*
X69859975Y-84622400D01*
X69859975Y-83725400D01*
X69850657Y-83630794D01*
X69823062Y-83539823D01*
X69778249Y-83455985D01*
X69773140Y-83449760D01*
X69773140Y-83151215D01*
X69793531Y-83120698D01*
X69852525Y-82978274D01*
X69882600Y-82827077D01*
X69882600Y-82672919D01*
X69852525Y-82521722D01*
X69793531Y-82379298D01*
X69707885Y-82251119D01*
X69598879Y-82142113D01*
X69470700Y-82056467D01*
X69328276Y-81997473D01*
X69177079Y-81967398D01*
X69022921Y-81967398D01*
X68871724Y-81997473D01*
X68729300Y-82056467D01*
X68601121Y-82142113D01*
X68492115Y-82251119D01*
X68406469Y-82379298D01*
X68347475Y-82521722D01*
X68317400Y-82672919D01*
X68317400Y-82827077D01*
X68347475Y-82978274D01*
X68406469Y-83120698D01*
X68426941Y-83151336D01*
X68426941Y-83240465D01*
X68025040Y-83240465D01*
X67930434Y-83249783D01*
X67900040Y-83259003D01*
X67869646Y-83249783D01*
X67775040Y-83240465D01*
X67225040Y-83240465D01*
X67130434Y-83249783D01*
X67100040Y-83259003D01*
X67069646Y-83249783D01*
X66975040Y-83240465D01*
X66425040Y-83240465D01*
X66330434Y-83249783D01*
X66300040Y-83259003D01*
X66269646Y-83249783D01*
X66175040Y-83240465D01*
X65625040Y-83240465D01*
X65530434Y-83249783D01*
X65500040Y-83259003D01*
X65469646Y-83249783D01*
X65375040Y-83240465D01*
X64825040Y-83240465D01*
X64730434Y-83249783D01*
X64700040Y-83259003D01*
X64669646Y-83249783D01*
X64575040Y-83240465D01*
X64025040Y-83240465D01*
X63930434Y-83249783D01*
X63900040Y-83259003D01*
X63869646Y-83249783D01*
X63775040Y-83240465D01*
X63225040Y-83240465D01*
X63130434Y-83249783D01*
X63100040Y-83259003D01*
X63069646Y-83249783D01*
X62975040Y-83240465D01*
X62425040Y-83240465D01*
X62330434Y-83249783D01*
X62300040Y-83259003D01*
X62269646Y-83249783D01*
X62175040Y-83240465D01*
X62146916Y-83240465D01*
X62193531Y-83170700D01*
X62252525Y-83028276D01*
X62282600Y-82877079D01*
X62282600Y-82722921D01*
X62252525Y-82571724D01*
X62193531Y-82429300D01*
X62107885Y-82301121D01*
X61998879Y-82192115D01*
X61870700Y-82106469D01*
X61728276Y-82047475D01*
X61577079Y-82017400D01*
X61422921Y-82017400D01*
X61271724Y-82047475D01*
X61189873Y-82081379D01*
X61135617Y-82052378D01*
X61044646Y-82024783D01*
X60950040Y-82015465D01*
X60053040Y-82015465D01*
X60053040Y-81935335D01*
X60950040Y-81935335D01*
X61044646Y-81926017D01*
X61135617Y-81898422D01*
X61219455Y-81853609D01*
X61225802Y-81848400D01*
X61426290Y-81848400D01*
X61585040Y-81689650D01*
X61575217Y-81572769D01*
X61538305Y-81453255D01*
X61478786Y-81343239D01*
X61434975Y-81290400D01*
X61434975Y-80900400D01*
X61425657Y-80805794D01*
X61416437Y-80775400D01*
X61425657Y-80745006D01*
X61434975Y-80650400D01*
X61434975Y-80100400D01*
X61425657Y-80005794D01*
X61416437Y-79975400D01*
X61425657Y-79945006D01*
X61434975Y-79850400D01*
X61434975Y-79300400D01*
X61425657Y-79205794D01*
X61416437Y-79175400D01*
X61425657Y-79145006D01*
X61434975Y-79050400D01*
X61434975Y-78500400D01*
X61425657Y-78405794D01*
X61416437Y-78375400D01*
X61425657Y-78345006D01*
X61434975Y-78250400D01*
X61434975Y-77700400D01*
X61425657Y-77605794D01*
X61416437Y-77575400D01*
X61425657Y-77545006D01*
X61434975Y-77450400D01*
X61434975Y-76900400D01*
X61425657Y-76805794D01*
X61416437Y-76775400D01*
X61425657Y-76745006D01*
X61434975Y-76650400D01*
X61434975Y-76260400D01*
X61478786Y-76207561D01*
X61538305Y-76097545D01*
X61575217Y-75978031D01*
X61585040Y-75861150D01*
X61426290Y-75702400D01*
X61225802Y-75702400D01*
X61219455Y-75697191D01*
X61135617Y-75652378D01*
X61044646Y-75624783D01*
X60950040Y-75615465D01*
X60053040Y-75615465D01*
X60053040Y-75535335D01*
X60950040Y-75535335D01*
X61044646Y-75526017D01*
X61135617Y-75498422D01*
X61219455Y-75453609D01*
X61225680Y-75448500D01*
X62091504Y-75448500D01*
X62124560Y-75451756D01*
X62157616Y-75448500D01*
X62157619Y-75448500D01*
X62256511Y-75438760D01*
X62383390Y-75400271D01*
X62439905Y-75370063D01*
X62528276Y-75352485D01*
X62670700Y-75293491D01*
X62798879Y-75207845D01*
X62907885Y-75098839D01*
X62993531Y-74970660D01*
X63052525Y-74828236D01*
X63058091Y-74800255D01*
X63152611Y-74705735D01*
X63178296Y-74684656D01*
X63262409Y-74582163D01*
X63324911Y-74465230D01*
X63363400Y-74338351D01*
X63366159Y-74310335D01*
X63775040Y-74310335D01*
X63869646Y-74301017D01*
X63900040Y-74291797D01*
X63930434Y-74301017D01*
X64025040Y-74310335D01*
X64415040Y-74310335D01*
X64467879Y-74354146D01*
X64577895Y-74413665D01*
X64697409Y-74450577D01*
X64814290Y-74460400D01*
X64973040Y-74301650D01*
X64973040Y-74101162D01*
X64978249Y-74094815D01*
X65023062Y-74010977D01*
X65050657Y-73920006D01*
X65059975Y-73825400D01*
X65059975Y-72928400D01*
X65140105Y-72928400D01*
X65140105Y-73825400D01*
G37*
G04 #@! TD.AperFunction*
M02*
