G04 #@! TF.GenerationSoftware,KiCad,Pcbnew,(5.1.6-0-10_14)*
G04 #@! TF.CreationDate,2020-10-11T16:31:34+09:00*
G04 #@! TF.ProjectId,Jones,4a6f6e65-732e-46b6-9963-61645f706362,v.0.2*
G04 #@! TF.SameCoordinates,Original*
G04 #@! TF.FileFunction,Profile,NP*
%FSLAX46Y46*%
G04 Gerber Fmt 4.6, Leading zero omitted, Abs format (unit mm)*
G04 Created by KiCad (PCBNEW (5.1.6-0-10_14)) date 2020-10-11 16:31:34*
%MOMM*%
%LPD*%
G01*
G04 APERTURE LIST*
G04 #@! TA.AperFunction,Profile*
%ADD10C,0.150000*%
G04 #@! TD*
G04 #@! TA.AperFunction,Profile*
%ADD11C,0.300000*%
G04 #@! TD*
G04 #@! TA.AperFunction,Profile*
%ADD12C,0.200000*%
G04 #@! TD*
G04 APERTURE END LIST*
D10*
X209800000Y-109450000D02*
X209100000Y-110050000D01*
X209100000Y-110050000D02*
X208300000Y-109150000D01*
X208300000Y-105650000D02*
X208650000Y-105250000D01*
X214600000Y-102700000D02*
X213500000Y-103700000D01*
X209650000Y-104000000D02*
X210900000Y-102700000D01*
X213500000Y-103700000D02*
X211400000Y-103700000D01*
X209350000Y-106200000D02*
X209350000Y-108850000D01*
X209350000Y-108850000D02*
X209800000Y-109450000D01*
X210900000Y-102700000D02*
X214600000Y-102700000D01*
X211400000Y-103700000D02*
X210450000Y-104700000D01*
X209650000Y-104000000D02*
X210450000Y-104700000D01*
X209350000Y-106200000D02*
X209500000Y-105950000D01*
X208300000Y-105650000D02*
X208300000Y-109150000D01*
X208650000Y-105250000D02*
X209500000Y-105950000D01*
X217400000Y-110000000D02*
X216350000Y-111000000D01*
X210900000Y-110500000D02*
X210250000Y-111000000D01*
X210250000Y-111000000D02*
X216350000Y-111000000D01*
X210900000Y-110500000D02*
X215200000Y-110495000D01*
X216650000Y-109200000D02*
X215200000Y-110495000D01*
X216650000Y-109200000D02*
X217400000Y-110000000D01*
X153050000Y-72000000D02*
X152600000Y-72245000D01*
X153600000Y-67000000D02*
X153100000Y-66050000D01*
X154500000Y-66500000D02*
X153750000Y-65050000D01*
X154500000Y-66500000D02*
X153600000Y-67000000D01*
X153100000Y-66050000D02*
X152500000Y-66050000D01*
X152500000Y-65050000D02*
X153750000Y-65050000D01*
X152500000Y-65050000D02*
X152500000Y-66050000D01*
X153050000Y-72000000D02*
X153850000Y-72750000D01*
X148450000Y-72250000D02*
X147800000Y-72750000D01*
X147500000Y-71250000D02*
X146800000Y-71850000D01*
X146000000Y-67800000D02*
X146000000Y-70950000D01*
X147050000Y-68350000D02*
X147200000Y-68100000D01*
X146350000Y-67400000D02*
X147200000Y-68100000D01*
X147250000Y-66350000D02*
X148050000Y-67050000D01*
X147250000Y-66350000D02*
X148500000Y-65050000D01*
X146000000Y-67800000D02*
X146350000Y-67400000D01*
X146800000Y-71850000D02*
X146000000Y-70950000D01*
X147800000Y-72750000D02*
X153850000Y-72750000D01*
X148450000Y-72250000D02*
X152600000Y-72245000D01*
X147050000Y-70650000D02*
X147500000Y-71250000D01*
X147050000Y-68350000D02*
X147050000Y-70650000D01*
X149000000Y-66050000D02*
X148050000Y-67050000D01*
X151000000Y-66050000D02*
X149000000Y-66050000D01*
X151000000Y-65050000D02*
X151000000Y-66050000D01*
X148500000Y-65050000D02*
X151000000Y-65050000D01*
D11*
X305546280Y-117149480D02*
X305600000Y-117150000D01*
X27296280Y-117149480D02*
X305546280Y-117149480D01*
X24600000Y-117150000D02*
X27296280Y-117149480D01*
D10*
X65881250Y-80168750D02*
X259556250Y-80168750D01*
X259556250Y-78581250D02*
X65881250Y-78581250D01*
D12*
X259556250Y-78581250D02*
G75*
G02*
X259556250Y-80168750I0J-793750D01*
G01*
X65881250Y-80168750D02*
G75*
G02*
X65881250Y-78581250I0J793750D01*
G01*
D11*
X24600000Y-22550000D02*
X34800000Y-22550000D01*
X35300000Y-22050000D02*
X46300000Y-22050000D01*
X303800000Y-77650000D02*
X307600000Y-77650000D01*
X303800000Y-80450000D02*
X307600000Y-80450000D01*
X307600000Y-77650000D02*
X307600000Y-24550000D01*
X307600000Y-80450000D02*
X307600000Y-115150000D01*
X22600000Y-77650000D02*
X22600000Y-24550000D01*
X26400000Y-77650000D02*
X22600000Y-77650000D01*
X22600000Y-80450000D02*
X26400000Y-80450000D01*
X22600000Y-115150000D02*
X22600000Y-80450000D01*
X305600000Y-22550000D02*
X46800000Y-22550000D01*
X46300000Y-22050000D02*
G75*
G03*
X46800000Y-22550000I500000J0D01*
G01*
X34800000Y-22550000D02*
G75*
G03*
X35300000Y-22050000I0J500000D01*
G01*
X26400000Y-80450000D02*
G75*
G03*
X27800000Y-79050000I0J1400000D01*
G01*
X303800000Y-80450000D02*
G75*
G02*
X302400000Y-79050000I0J1400000D01*
G01*
X302400000Y-79050000D02*
G75*
G02*
X303800000Y-77650000I1400000J0D01*
G01*
X27800000Y-79050000D02*
G75*
G03*
X26400000Y-77650000I-1400000J0D01*
G01*
X307600000Y-24550000D02*
G75*
G03*
X305600000Y-22550000I-2000000J0D01*
G01*
X305600000Y-117150000D02*
G75*
G03*
X307600000Y-115150000I0J2000000D01*
G01*
X22600000Y-115150000D02*
G75*
G03*
X24600000Y-117150000I2000000J0D01*
G01*
X24600000Y-22550000D02*
G75*
G03*
X22600000Y-24550000I0J-2000000D01*
G01*
M02*
