M48
; DRILL file {KiCad (5.1.10-1-10_14)} date Thursday, May 27, 2021 at 04:13:21 PM
; FORMAT={-:-/ absolute / inch / decimal}
; #@! TF.CreationDate,2021-05-27T16:13:21+09:00
; #@! TF.GenerationSoftware,Kicad,Pcbnew,(5.1.10-1-10_14)
FMAT,2
INCH
T1C0.0157
T2C0.0197
T3C0.0236
T4C0.0276
T5C0.0315
T6C0.0394
T7C0.0579
T8C0.0591
T9C0.0984
T10C0.0689
T11C0.0866
T12C0.0945
T13C0.1181
T14C0.1200
T15C0.1570
%
G90
G05
T1
X0.9567Y-2.5413
X0.9705Y-4.0689
X0.9902Y-2.4931
X1.0Y-2.4213
X1.0591Y-2.5413
X1.0787Y-2.6261
X1.1346Y-2.5906
X1.1594Y-1.815
X1.1634Y-2.4193
X1.1922Y-2.7135
X1.2047Y-3.0276
X1.2093Y-3.31
X1.2165Y-3.3484
X1.2185Y-2.4764
X1.2913Y-3.3091
X1.313Y-1.0787
X1.3681Y-3.3957
X1.4528Y-1.4272
X1.4883Y-1.0566
X1.4883Y-1.1097
X1.5217Y-1.0566
X1.5217Y-1.1097
X1.5394Y-3.7854
X1.5552Y-1.0566
X1.5552Y-1.1097
X1.5886Y-1.0566
X1.5886Y-1.1097
X1.6221Y-1.0566
X1.6221Y-1.1097
X1.6556Y-1.0566
X1.6556Y-1.1097
X1.6713Y-1.6791
X1.6713Y-1.7264
X1.689Y-1.0566
X1.689Y-1.1097
X1.7225Y-1.0566
X1.7225Y-1.1097
X1.7972Y-1.6791
X1.7972Y-1.7264
X1.9075Y-1.1831
X1.9587Y-2.3996
X1.9596Y-0.9771
X1.9941Y-2.4409
X2.0817Y-1.1398
X2.0886Y-2.3996
X2.0906Y-2.8681
X2.1181Y-2.4409
X2.1772Y-3.002
X2.1831Y-1.8012
X2.2283Y-3.4193
X2.3268Y-1.1398
X2.3622Y-1.3504
X2.374Y-2.878
X2.376Y-3.6457
X2.4213Y-3.2598
X2.4528Y-2.937
X2.4724Y-1.2343
X2.5512Y-3.5866
X2.6232Y-2.938
X2.6563Y-1.419
X2.6575Y-2.9291
X2.689Y-1.6398
X2.6893Y-2.9428
X2.7205Y-2.9291
X2.7205Y-3.2579
X2.7211Y-1.4796
X2.7236Y-1.7264
X2.752Y-2.9449
X2.7524Y-3.009
X2.7657Y-2.9764
X2.7776Y-2.5315
X2.7776Y-2.7264
X2.799Y-3.748
X2.8029Y-2.8973
X2.8071Y-2.4724
X2.8306Y-3.7482
X2.8366Y-3.8004
X2.8366Y-2.498
X2.8465Y-1.8248
X2.8846Y-3.7482
X2.9073Y-3.825
X2.9332Y-3.7979
X2.9501Y-3.8642
X2.9646Y-3.9004
X2.9941Y-3.8583
X3.065Y-2.5689
X3.0656Y-2.5295
X3.1043Y-3.5374
X3.372Y-3.3169
X3.5059Y-3.8366
X3.624Y-1.9783
X3.624Y-2.7264
X3.6706Y-3.6017
X3.8878Y-1.2323
X3.8917Y-1.4508
X3.8957Y-3.3765
X4.126Y-1.685
X4.1654Y-1.7165
X4.2185Y-3.2062
X4.7205Y-1.3819
X4.7224Y-3.4862
X4.8222Y-3.9721
X5.0945Y-4.4803
X5.0965Y-1.8169
X5.0965Y-2.5591
X5.248Y-4.1299
X5.4724Y-3.4783
X5.5768Y-4.065
X5.6969Y-4.374
X5.8465Y-1.9862
X5.9035Y-3.9744
X6.1398Y-4.0807
X6.2224Y-1.248
X6.2224Y-3.3051
X6.4055Y-2.7539
X6.5974Y-1.8002
X6.5984Y-2.565
X6.7845Y-4.2949
X6.9626Y-1.3386
X6.9724Y-3.4823
X7.1949Y-4.5394
X7.3465Y-1.811
X7.3465Y-2.563
X7.65Y-4.0789
X7.7205Y-3.4882
X7.7224Y-1.2638
X7.9075Y-2.4429
X7.9705Y-2.1161
X8.0965Y-2.563
X8.0984Y-1.9921
X8.4724Y-3.4823
X8.7579Y-3.8819
X9.0413Y-3.1265
X9.2215Y-3.3179
X9.2224Y-1.2362
X9.2224Y-3.8829
X9.2416Y-3.2062
X9.5965Y-1.9843
X9.5971Y-2.7423
X9.6286Y-2.2573
X9.6805Y-3.0231
X9.7461Y-2.8287
X9.7461Y-2.9134
X9.7598Y-2.0531
X9.7598Y-2.1339
X9.9587Y-4.0728
X9.9724Y-1.2343
X10.0551Y-3.3169
X10.3228Y-2.7717
X10.3425Y-2.1831
X10.3465Y-1.813
X10.3476Y-2.7343
X10.5925Y-2.2795
X10.6791Y-1.5472
X11.1831Y-2.3051
X11.2138Y-2.7177
X11.3504Y-3.2795
X11.378Y-3.1923
X11.4094Y-3.2244
X11.4434Y-3.1986
X11.4724Y-1.2382
X11.5276Y-4.0787
X11.6555Y-3.2244
X11.6634Y-3.1752
X11.8207Y-2.1731
X11.8425Y-1.8898
X11.9173Y-2.3583
X11.9213Y-2.5413
X12.0039Y-1.9449
X12.0039Y-2.2087
X12.0059Y-2.9291
X12.0492Y-2.5413
T2
X1.8071Y-1.9862
X1.8287Y-1.9331
X1.8287Y-2.0374
X1.8819Y-1.9114
X1.8819Y-2.061
X1.9311Y-1.9331
X1.9311Y-2.0394
X1.9567Y-1.9862
X2.2028Y-3.1673
X2.2815Y-3.0256
X2.2815Y-3.1673
X2.4114Y-3.4154
X2.5531Y-3.4154
X2.8996Y-3.3091
T4
X0.9705Y-4.4606
X3.0571Y-3.9252
X3.5059Y-3.9587
X4.5756Y-1.1909
X6.2224Y-0.9961
X6.9744Y-0.9961
X8.2854Y-4.5079
X9.2224Y-0.9961
X9.9705Y-0.9961
X10.3976Y-2.3228
X10.561Y-1.7028
X11.185Y-1.5512
X11.2933Y-2.3937
X11.376Y-3.7697
X11.4173Y-4.5217
X11.4528Y-1.3898
X11.5925Y-3.7933
X11.75Y-1.4508
X11.8425Y-3.6378
X11.8425Y-3.752
T5
X3.2776Y-2.0886
X3.2776Y-2.3886
X3.3776Y-2.0886
X3.3776Y-2.3886
X3.4776Y-2.0886
X3.4776Y-2.3886
X3.5776Y-2.0886
X3.5776Y-2.3886
T6
X1.1524Y-3.9548
X1.1524Y-4.5257
X1.2508Y-3.9548
X1.3493Y-3.9548
X1.3493Y-4.5257
X3.4193Y-2.815
X3.4193Y-3.122
X3.5413Y-2.815
X3.5413Y-3.122
X3.7106Y-2.9217
X3.7106Y-3.0217
X4.0197Y-2.9213
X4.0197Y-3.0213
X4.1197Y-2.9213
X4.1197Y-3.0213
X4.2197Y-2.9213
X4.2197Y-3.0213
X9.0413Y-3.0335
X9.1413Y-3.0335
X9.2413Y-3.0335
X11.6533Y-3.9553
X11.6533Y-4.5262
X11.7517Y-3.9553
X11.8501Y-3.9553
X11.8501Y-4.5262
T7
X5.976Y-2.651
X6.226Y-2.551
T9
X1.8819Y-1.9862
T10
X1.051Y-1.251
X1.051Y-3.501
X1.051Y-4.251
X1.2385Y-2.001
X1.2385Y-2.751
X1.3322Y-2.751
X1.426Y-3.501
X1.451Y-1.251
X1.451Y-3.501
X1.451Y-4.251
X1.5197Y-3.501
X1.6385Y-2.001
X1.6385Y-2.751
X1.7322Y-2.751
X1.801Y-1.251
X1.801Y-3.501
X1.801Y-4.251
X1.826Y-3.501
X1.9197Y-3.501
X2.176Y-2.001
X2.176Y-2.751
X2.201Y-1.251
X2.201Y-3.501
X2.201Y-4.251
X2.551Y-1.251
X2.551Y-3.501
X2.551Y-4.251
X2.576Y-2.001
X2.576Y-2.751
X2.6447Y-4.251
X2.926Y-2.001
X2.926Y-2.751
X2.951Y-1.251
X2.951Y-3.501
X2.951Y-4.251
X3.0447Y-4.251
X3.301Y-1.251
X3.301Y-3.501
X3.326Y-2.001
X3.326Y-2.751
X3.4885Y-4.251
X3.5822Y-4.251
X3.676Y-2.001
X3.676Y-2.751
X3.701Y-1.251
X3.701Y-3.501
X3.8885Y-4.251
X3.9822Y-4.251
X4.051Y-1.251
X4.051Y-3.501
X4.076Y-2.001
X4.076Y-2.751
X4.426Y-2.001
X4.426Y-2.751
X4.451Y-1.251
X4.451Y-3.501
X4.7073Y-4.251
X4.801Y-1.251
X4.801Y-3.501
X4.801Y-4.251
X4.8135Y-4.051
X4.8135Y-4.451
X4.826Y-2.001
X4.826Y-2.751
X5.1073Y-4.251
X5.176Y-2.001
X5.176Y-2.751
X5.201Y-1.251
X5.201Y-3.501
X5.201Y-4.251
X5.551Y-1.251
X5.551Y-3.501
X5.551Y-4.251
X5.576Y-2.001
X5.576Y-2.751
X5.7385Y-4.251
X5.926Y-4.251
X5.926Y-2.001
X5.926Y-2.751
X5.926Y-2.751
X5.951Y-1.251
X5.951Y-3.501
X5.951Y-4.251
X6.1385Y-4.251
X6.301Y-1.251
X6.301Y-3.501
X6.301Y-4.251
X6.326Y-4.251
X6.326Y-2.001
X6.326Y-2.751
X6.326Y-2.751
X6.676Y-2.001
X6.676Y-4.251
X6.676Y-2.751
X6.701Y-1.251
X6.701Y-3.501
X6.701Y-4.251
X6.8635Y-4.251
X7.051Y-1.251
X7.051Y-3.501
X7.076Y-2.001
X7.076Y-4.251
X7.076Y-2.751
X7.1447Y-4.251
X7.2635Y-4.251
X7.426Y-2.001
X7.426Y-2.751
X7.451Y-1.251
X7.451Y-3.501
X7.5197Y-4.251
X7.5447Y-4.251
X7.801Y-4.251
X7.801Y-1.251
X7.801Y-3.501
X7.826Y-2.001
X7.826Y-2.751
X7.9197Y-4.251
X8.176Y-2.001
X8.176Y-2.751
X8.1885Y-4.051
X8.1885Y-4.451
X8.201Y-4.251
X8.201Y-1.251
X8.201Y-3.501
X8.551Y-1.251
X8.551Y-3.501
X8.576Y-2.001
X8.576Y-2.751
X8.6572Y-4.051
X8.6572Y-4.451
X8.926Y-2.001
X8.926Y-2.751
X8.951Y-1.251
X8.951Y-3.501
X9.0197Y-4.251
X9.1135Y-4.251
X9.301Y-4.251
X9.301Y-1.251
X9.301Y-3.501
X9.326Y-2.001
X9.326Y-2.751
X9.4197Y-4.251
X9.5135Y-4.251
X9.676Y-2.001
X9.676Y-2.751
X9.701Y-4.251
X9.701Y-1.251
X9.701Y-3.501
X9.8635Y-2.001
X9.8635Y-2.751
X9.9572Y-4.251
X10.051Y-1.251
X10.051Y-4.251
X10.051Y-3.501
X10.076Y-2.001
X10.076Y-2.751
X10.2635Y-2.001
X10.2635Y-2.751
X10.3572Y-4.251
X10.426Y-2.751
X10.426Y-2.001
X10.451Y-1.251
X10.451Y-4.251
X10.451Y-3.501
X10.801Y-1.251
X10.801Y-3.501
X10.801Y-4.251
X10.826Y-2.751
X10.826Y-2.001
X11.001Y-1.801
X11.001Y-2.201
X11.001Y-2.551
X11.001Y-2.951
X11.0947Y-2.551
X11.0947Y-2.951
X11.201Y-1.251
X11.201Y-3.501
X11.201Y-4.251
X11.2697Y-2.001
X11.2697Y-2.751
X11.3635Y-2.001
X11.3635Y-2.751
X11.551Y-1.251
X11.551Y-2.001
X11.551Y-2.751
X11.551Y-3.501
X11.551Y-4.251
X11.6697Y-2.001
X11.6697Y-2.751
X11.7635Y-2.001
X11.7635Y-2.751
X11.951Y-1.251
X11.951Y-2.001
X11.951Y-2.751
X11.951Y-3.501
X11.951Y-4.251
T11
X1.0079Y-2.001
X1.0079Y-2.8661
X1.4385Y-1.626
X1.4385Y-2.376
X1.4385Y-3.126
X1.626Y-3.876
X2.5635Y-3.876
X3.2776Y-4.251
X4.1909Y-4.251
X4.1909Y-4.5039
X4.626Y-2.376
X4.6417Y-0.9961
X5.0947Y-3.876
X6.501Y-3.876
X7.7874Y-4.5039
X8.001Y-3.876
X8.376Y-2.376
X8.3898Y-0.9961
X9.6885Y-3.876
X10.0635Y-1.626
X10.0635Y-2.376
X10.0635Y-3.126
X11.751Y-1.626
T13
X1.101Y-4.151
X1.151Y-1.451
X1.151Y-3.701
X1.2885Y-1.901
X1.3385Y-2.951
X1.351Y-4.051
X1.3822Y-2.651
X1.401Y-1.351
X1.401Y-3.601
X1.526Y-3.701
X1.5385Y-1.801
X1.5697Y-3.401
X1.5885Y-2.851
X1.6322Y-2.551
X1.776Y-3.601
X1.8197Y-3.301
X1.851Y-4.151
X1.901Y-1.451
X1.901Y-3.701
X2.101Y-4.051
X2.151Y-1.351
X2.151Y-3.601
X2.226Y-1.901
X2.226Y-2.651
X2.476Y-1.801
X2.476Y-2.551
X2.601Y-1.151
X2.651Y-3.701
X2.651Y-4.451
X2.6947Y-4.151
X2.851Y-1.051
X2.901Y-3.601
X2.901Y-4.351
X2.9447Y-4.051
X2.976Y-1.901
X2.976Y-2.651
X3.226Y-1.801
X3.226Y-2.551
X3.351Y-1.151
X3.351Y-3.401
X3.5885Y-4.451
X3.601Y-1.051
X3.601Y-3.301
X3.6322Y-4.151
X3.726Y-1.901
X3.726Y-2.651
X3.8385Y-4.351
X3.8822Y-4.051
X3.976Y-1.801
X3.976Y-2.551
X4.101Y-1.151
X4.101Y-3.401
X4.351Y-1.051
X4.351Y-3.301
X4.476Y-1.901
X4.476Y-2.651
X4.726Y-1.801
X4.726Y-2.551
X4.8073Y-4.451
X4.851Y-1.151
X4.851Y-3.401
X4.851Y-4.151
X4.9135Y-4.101
X5.0135Y-4.351
X5.0573Y-4.351
X5.101Y-1.051
X5.101Y-3.301
X5.101Y-4.051
X5.226Y-1.901
X5.226Y-2.651
X5.476Y-1.801
X5.476Y-2.551
X5.601Y-1.151
X5.601Y-3.401
X5.601Y-4.151
X5.8385Y-4.451
X5.851Y-1.051
X5.851Y-3.301
X5.851Y-4.051
X5.976Y-4.151
X5.976Y-1.901
X6.026Y-2.951
X6.0885Y-4.351
X6.226Y-4.051
X6.226Y-1.801
X6.276Y-2.851
X6.351Y-1.151
X6.351Y-3.401
X6.351Y-4.151
X6.601Y-1.051
X6.601Y-3.301
X6.601Y-4.051
X6.726Y-1.901
X6.726Y-4.151
X6.726Y-2.651
X6.9635Y-4.451
X6.976Y-1.801
X6.976Y-4.051
X6.976Y-2.551
X7.101Y-1.151
X7.101Y-3.401
X7.2135Y-4.351
X7.2447Y-4.451
X7.351Y-1.051
X7.351Y-3.301
X7.476Y-1.901
X7.476Y-2.651
X7.4947Y-4.351
X7.5697Y-4.151
X7.726Y-1.801
X7.726Y-2.551
X7.8197Y-4.051
X7.851Y-4.151
X7.851Y-1.151
X7.851Y-3.401
X7.9885Y-4.151
X8.0885Y-4.401
X8.101Y-4.051
X8.101Y-1.051
X8.101Y-3.301
X8.226Y-1.901
X8.226Y-2.651
X8.476Y-1.801
X8.476Y-2.551
X8.601Y-1.151
X8.601Y-3.401
X8.7572Y-4.101
X8.851Y-1.051
X8.851Y-3.301
X8.8572Y-4.351
X8.976Y-1.901
X8.976Y-2.651
X9.0697Y-4.151
X9.2135Y-4.451
X9.226Y-1.801
X9.226Y-2.551
X9.3197Y-4.051
X9.351Y-4.151
X9.351Y-1.151
X9.351Y-3.401
X9.4635Y-4.351
X9.601Y-4.051
X9.601Y-1.051
X9.601Y-3.301
X9.726Y-1.901
X9.726Y-2.651
X9.9635Y-2.201
X9.9635Y-2.951
X9.976Y-1.801
X9.976Y-2.551
X10.0072Y-4.151
X10.101Y-1.151
X10.101Y-3.401
X10.151Y-4.451
X10.2135Y-2.101
X10.2135Y-2.851
X10.2572Y-4.051
X10.351Y-1.051
X10.351Y-3.301
X10.401Y-4.351
X10.476Y-2.651
X10.476Y-1.901
X10.726Y-2.551
X10.726Y-1.801
X10.801Y-1.901
X10.801Y-2.651
X10.851Y-1.151
X10.851Y-3.401
X10.851Y-4.151
X10.8947Y-2.651
X10.901Y-2.151
X10.901Y-2.901
X10.9947Y-2.901
X11.101Y-1.051
X11.101Y-3.301
X11.101Y-4.051
X11.3697Y-2.201
X11.3697Y-2.951
X11.4135Y-1.901
X11.4135Y-2.651
X11.601Y-1.151
X11.601Y-3.401
X11.601Y-4.151
X11.6197Y-2.101
X11.6197Y-2.851
X11.651Y-2.201
X11.651Y-2.951
X11.6635Y-1.801
X11.6635Y-2.551
X11.851Y-1.051
X11.851Y-3.301
X11.851Y-4.051
X11.901Y-2.101
X11.901Y-2.851
T14
X1.156Y-3.226
X2.096Y-3.226
X4.4373Y-4.526
X4.531Y-4.526
X5.3773Y-4.526
X5.471Y-4.526
X6.031Y-4.526
X6.971Y-4.526
X7.531Y-4.526
X8.471Y-4.526
X10.6247Y-2.476
X11.5647Y-2.476
T15
X1.156Y-3.826
X1.251Y-1.251
X1.251Y-3.501
X1.251Y-4.251
X1.4385Y-2.001
X1.4385Y-2.751
X1.5322Y-2.751
X1.626Y-3.501
X1.7197Y-3.501
X2.001Y-1.251
X2.001Y-3.501
X2.001Y-4.251
X2.096Y-3.826
X2.376Y-2.001
X2.376Y-2.751
X2.751Y-1.251
X2.751Y-3.501
X2.751Y-4.251
X2.8447Y-4.251
X3.126Y-2.001
X3.126Y-2.751
X3.501Y-1.251
X3.501Y-3.501
X3.6885Y-4.251
X3.7822Y-4.251
X3.876Y-2.001
X3.876Y-2.751
X4.251Y-1.251
X4.251Y-3.501
X4.4373Y-3.926
X4.531Y-3.926
X4.626Y-2.001
X4.626Y-2.751
X4.8135Y-4.251
X4.9073Y-4.251
X5.001Y-1.251
X5.001Y-3.501
X5.001Y-4.251
X5.376Y-2.001
X5.376Y-2.751
X5.3773Y-3.926
X5.471Y-3.926
X5.751Y-1.251
X5.751Y-3.501
X5.751Y-4.251
X5.9385Y-4.251
X6.031Y-3.926
X6.126Y-4.251
X6.126Y-2.001
X6.126Y-2.751
X6.126Y-2.751
X6.501Y-1.251
X6.501Y-3.501
X6.501Y-4.251
X6.876Y-2.001
X6.876Y-4.251
X6.876Y-2.751
X6.971Y-3.926
X7.0635Y-4.251
X7.251Y-1.251
X7.251Y-3.501
X7.3447Y-4.251
X7.531Y-3.926
X7.626Y-2.001
X7.626Y-2.751
X7.7197Y-4.251
X8.001Y-4.251
X8.001Y-1.251
X8.001Y-3.501
X8.1885Y-4.251
X8.376Y-2.001
X8.376Y-2.751
X8.471Y-3.926
X8.6572Y-4.251
X8.751Y-1.251
X8.751Y-3.501
X9.126Y-2.001
X9.126Y-2.751
X9.2197Y-4.251
X9.3135Y-4.251
X9.501Y-4.251
X9.501Y-1.251
X9.501Y-3.501
X9.876Y-2.001
X9.876Y-2.751
X10.0635Y-2.001
X10.0635Y-2.751
X10.1572Y-4.251
X10.251Y-1.251
X10.251Y-4.251
X10.251Y-3.501
X10.6247Y-3.076
X10.626Y-2.751
X10.626Y-2.001
X11.001Y-1.251
X11.001Y-2.001
X11.001Y-2.751
X11.001Y-3.501
X11.001Y-4.251
X11.0947Y-2.751
X11.4697Y-2.001
X11.4697Y-2.751
X11.5635Y-2.001
X11.5635Y-2.751
X11.5647Y-3.076
X11.751Y-1.251
X11.751Y-2.001
X11.751Y-2.751
X11.751Y-3.501
X11.751Y-4.251
T3
G00X1.4351Y-0.9223
M15
G01X1.4351Y-0.9538
M16
G05
G00X1.4351Y-1.0416
M15
G01X1.4351Y-1.1007
M16
G05
G00X1.7757Y-0.9223
M15
G01X1.7757Y-0.9538
M16
G05
G00X1.7757Y-1.0416
M15
G01X1.7757Y-1.1007
M16
G05
T8
G00X1.0304Y-4.2245
M15
G01X1.0304Y-4.2757
M16
G05
G00X1.4713Y-4.2245
M15
G01X1.4713Y-4.2757
M16
G05
G00X11.5312Y-4.225
M15
G01X11.5312Y-4.2762
M16
G05
G00X11.9722Y-4.225
M15
G01X11.9722Y-4.2762
M16
G05
T12
G00X5.8819Y-2.7382
M15
G01X5.9921Y-2.7382
M16
G05
G00X8.3346Y-4.2421
M15
G01X8.4449Y-4.2421
M16
G05
G00X11.0728Y-1.9862
M15
G01X11.1831Y-1.9862
M16
G05
T0
M30
