G04 #@! TF.GenerationSoftware,KiCad,Pcbnew,(5.1.10-1-10_14)*
G04 #@! TF.CreationDate,2021-05-27T16:13:23+09:00*
G04 #@! TF.ProjectId,Jones,4a6f6e65-732e-46b6-9963-61645f706362,v.0.3.2*
G04 #@! TF.SameCoordinates,Original*
G04 #@! TF.FileFunction,Copper,L1,Top*
G04 #@! TF.FilePolarity,Positive*
%FSLAX46Y46*%
G04 Gerber Fmt 4.6, Leading zero omitted, Abs format (unit mm)*
G04 Created by KiCad (PCBNEW (5.1.10-1-10_14)) date 2021-05-27 16:13:23*
%MOMM*%
%LPD*%
G01*
G04 APERTURE LIST*
G04 #@! TA.AperFunction,ComponentPad*
%ADD10C,1.000000*%
G04 #@! TD*
G04 #@! TA.AperFunction,ComponentPad*
%ADD11C,4.800000*%
G04 #@! TD*
G04 #@! TA.AperFunction,ComponentPad*
%ADD12R,2.000000X2.000000*%
G04 #@! TD*
G04 #@! TA.AperFunction,ComponentPad*
%ADD13C,2.000000*%
G04 #@! TD*
G04 #@! TA.AperFunction,ComponentPad*
%ADD14R,2.000000X3.200000*%
G04 #@! TD*
G04 #@! TA.AperFunction,SMDPad,CuDef*
%ADD15R,1.300000X3.400000*%
G04 #@! TD*
G04 #@! TA.AperFunction,ComponentPad*
%ADD16C,0.700000*%
G04 #@! TD*
G04 #@! TA.AperFunction,ComponentPad*
%ADD17O,0.900000X2.400000*%
G04 #@! TD*
G04 #@! TA.AperFunction,ComponentPad*
%ADD18O,0.900000X1.700000*%
G04 #@! TD*
G04 #@! TA.AperFunction,ComponentPad*
%ADD19C,2.250000*%
G04 #@! TD*
G04 #@! TA.AperFunction,ComponentPad*
%ADD20R,1.700000X1.700000*%
G04 #@! TD*
G04 #@! TA.AperFunction,ComponentPad*
%ADD21O,1.700000X1.700000*%
G04 #@! TD*
G04 #@! TA.AperFunction,SMDPad,CuDef*
%ADD22R,1.600000X0.850000*%
G04 #@! TD*
G04 #@! TA.AperFunction,ComponentPad*
%ADD23C,1.500000*%
G04 #@! TD*
G04 #@! TA.AperFunction,ComponentPad*
%ADD24C,1.600000*%
G04 #@! TD*
G04 #@! TA.AperFunction,ComponentPad*
%ADD25R,1.600000X1.600000*%
G04 #@! TD*
G04 #@! TA.AperFunction,ComponentPad*
%ADD26O,1.600000X1.600000*%
G04 #@! TD*
G04 #@! TA.AperFunction,ViaPad*
%ADD27C,0.600000*%
G04 #@! TD*
G04 #@! TA.AperFunction,Conductor*
%ADD28C,0.254000*%
G04 #@! TD*
G04 #@! TA.AperFunction,Conductor*
%ADD29C,0.381000*%
G04 #@! TD*
G04 APERTURE END LIST*
D10*
X49050000Y-51800000D03*
X46450000Y-51750000D03*
X49050000Y-49100000D03*
X46450000Y-49100000D03*
X47800000Y-52350000D03*
X49700000Y-50450000D03*
X45900000Y-50450000D03*
X47800000Y-48550000D03*
D11*
X47800000Y-50450000D03*
D12*
X300993580Y-100465550D03*
D13*
X298493580Y-100465550D03*
X295993580Y-100465550D03*
D14*
X304093580Y-107965550D03*
X292893580Y-107965550D03*
D13*
X300993580Y-114965550D03*
X295993580Y-114965550D03*
D15*
X61600040Y-92900400D03*
X52900040Y-92900400D03*
D12*
X34271347Y-100452828D03*
D13*
X31771347Y-100452828D03*
X29271347Y-100452828D03*
D14*
X37371347Y-107952828D03*
X26171347Y-107952828D03*
D13*
X34271347Y-114952828D03*
X29271347Y-114952828D03*
D16*
X37801552Y-28187233D03*
X38651552Y-28187233D03*
X39501552Y-28187233D03*
X40351552Y-28187233D03*
X41201552Y-28187233D03*
X42051552Y-28187233D03*
X42901552Y-28187233D03*
X43751552Y-28187233D03*
X38651552Y-26837233D03*
X40351552Y-26837233D03*
X39501552Y-26837233D03*
X37801552Y-26837233D03*
X42051552Y-26837233D03*
X42901552Y-26837233D03*
X43751552Y-26837233D03*
X41201552Y-26837233D03*
D17*
X36451552Y-27207233D03*
X45101552Y-27207233D03*
D18*
X36451552Y-23827233D03*
X45101552Y-23827233D03*
D19*
X151790560Y-67335240D03*
X158140560Y-64795240D03*
D20*
X229650000Y-77050040D03*
D21*
X232190000Y-77050040D03*
X234730000Y-77050040D03*
D22*
X27400000Y-63325040D03*
X27400000Y-61575040D03*
X23900000Y-63325040D03*
X23900000Y-61575040D03*
X23900000Y-65775040D03*
X23900000Y-67525040D03*
X27400000Y-65775040D03*
X27400000Y-67525040D03*
X306200000Y-63325040D03*
X306200000Y-61575040D03*
X302700000Y-63325040D03*
X302700000Y-61575040D03*
X302700000Y-65775040D03*
X302700000Y-67525040D03*
X306200000Y-65775040D03*
X306200000Y-67525040D03*
D20*
X94250040Y-76750400D03*
D21*
X94250040Y-74210400D03*
D20*
X102100000Y-74200000D03*
D21*
X102100000Y-76740000D03*
X104640000Y-74200000D03*
X104640000Y-76740000D03*
X107180000Y-74200000D03*
X107180000Y-76740000D03*
D23*
X116220000Y-30250000D03*
X290000040Y-114850040D03*
X210450040Y-114500400D03*
X234250040Y-25300400D03*
X89050000Y-100550040D03*
X177150040Y-25300400D03*
X158050040Y-25300400D03*
X253250040Y-25300400D03*
X77650000Y-99700040D03*
X24650040Y-113300400D03*
X298450000Y-36850040D03*
X268250000Y-43250040D03*
X264100000Y-59000040D03*
X294450000Y-96350040D03*
X300800000Y-92400040D03*
X290900040Y-35300400D03*
X284100000Y-39400040D03*
X286850000Y-60800040D03*
X288950000Y-95750040D03*
X300800000Y-95300040D03*
D24*
X89950000Y-79300000D03*
X89950000Y-71500000D03*
X86850000Y-71500000D03*
X86850000Y-79300000D03*
D10*
X64850000Y-86750040D03*
X61250000Y-86750040D03*
X73650000Y-84050040D03*
X57950000Y-76850040D03*
X57950000Y-80450040D03*
X55950000Y-80450040D03*
D25*
X83250000Y-53050040D03*
D26*
X90870000Y-60670040D03*
X85790000Y-53050040D03*
X88330000Y-60670040D03*
X88330000Y-53050040D03*
X85790000Y-60670040D03*
X90870000Y-53050040D03*
X83250000Y-60670040D03*
D27*
X48450000Y-30050040D03*
X304900000Y-56100000D03*
X304900000Y-49400000D03*
X45650000Y-43850040D03*
X42450000Y-43850040D03*
X129400000Y-113800000D03*
X133300000Y-104900000D03*
X69100000Y-82749998D03*
X62300000Y-74599960D03*
X66629218Y-74625930D03*
X70550000Y-69250000D03*
X59100000Y-28950000D03*
X70550000Y-64300000D03*
X61500000Y-82800000D03*
X53100000Y-72850000D03*
X30950000Y-62900000D03*
X25149990Y-63325040D03*
X69910021Y-76428149D03*
X229650000Y-79412619D03*
X77866064Y-64249730D03*
X296250000Y-80650040D03*
X30900000Y-85050000D03*
X56600000Y-86850000D03*
X107149996Y-81437421D03*
X28819790Y-65800000D03*
X289800000Y-81900040D03*
X234737381Y-81437421D03*
X64800000Y-91100040D03*
X85650000Y-84250040D03*
X296050000Y-81900040D03*
X52874996Y-28950036D03*
X24300000Y-64549994D03*
X26900009Y-64550000D03*
X33350000Y-27400000D03*
X49774665Y-24818649D03*
X71194790Y-73590528D03*
X284050000Y-58550040D03*
X71300000Y-62800038D03*
X71093640Y-95199752D03*
X72049992Y-96530250D03*
X75300000Y-99069830D03*
X67500000Y-74400002D03*
X67470837Y-36043710D03*
X53800000Y-62000040D03*
X50650000Y-62000040D03*
X60300000Y-73100040D03*
X202450000Y-53750040D03*
X200850000Y-62050040D03*
X74504394Y-96465691D03*
X76050000Y-98000040D03*
X73269383Y-95205271D03*
X36900000Y-36250000D03*
X29450000Y-46100000D03*
X24650000Y-103350000D03*
X34750000Y-86249998D03*
X39100000Y-96150000D03*
X60000000Y-34300000D03*
X30282866Y-68922183D03*
X55449996Y-45750040D03*
X300246491Y-55195601D03*
X291400000Y-31450000D03*
X284830210Y-69030252D03*
X288300000Y-83300040D03*
X292800000Y-103600040D03*
X300799141Y-48000899D03*
X27400000Y-66703296D03*
X49750004Y-60950040D03*
X53049998Y-60950040D03*
X25400000Y-61499990D03*
X302700000Y-59900000D03*
X306050000Y-64550000D03*
X302800000Y-64550000D03*
X289000000Y-81084351D03*
X290662616Y-81243712D03*
X30717198Y-84073734D03*
X32800004Y-84050000D03*
X29550000Y-61450040D03*
X30600002Y-76900040D03*
X60350000Y-92600000D03*
X255400000Y-84250000D03*
X269050000Y-57900000D03*
X262800000Y-46050000D03*
X262830210Y-69450000D03*
X253300000Y-31350040D03*
X252950000Y-103450040D03*
X215200000Y-88450000D03*
X222450000Y-98600000D03*
X196100000Y-88600000D03*
X194309839Y-103605199D03*
X205650000Y-65100040D03*
X196150000Y-32100040D03*
X205699998Y-50600040D03*
X177100000Y-88450000D03*
X182750000Y-115300000D03*
X172325939Y-109090969D03*
X186600000Y-46000000D03*
X186600000Y-65100000D03*
X176850000Y-34000040D03*
X167600000Y-65150000D03*
X158050000Y-83950000D03*
X155950000Y-103650000D03*
X167575000Y-45725040D03*
X158050000Y-31700040D03*
X139000000Y-88350000D03*
X119950000Y-88550000D03*
X122483842Y-100890400D03*
X129450000Y-46150000D03*
X119900000Y-35100000D03*
X129450000Y-65000000D03*
X162700000Y-69950000D03*
X148500000Y-50450000D03*
X141650000Y-103250040D03*
X98750000Y-31300000D03*
X93231989Y-91481989D03*
X98950000Y-85763986D03*
X89050000Y-97450040D03*
X92050000Y-69250040D03*
X92050000Y-50250036D03*
X78850000Y-89850040D03*
X62800000Y-31350040D03*
X72300000Y-46350040D03*
X77850000Y-65250040D03*
X247900000Y-52150000D03*
X247900000Y-54200000D03*
X247550000Y-71850000D03*
X247550000Y-74000000D03*
X304950000Y-74400000D03*
X245885601Y-76785601D03*
X244565599Y-57334441D03*
X73845626Y-97154414D03*
X74932209Y-98150279D03*
X71896833Y-95205271D03*
X243750000Y-50400000D03*
X243765800Y-69653938D03*
X234225000Y-84275000D03*
X234250000Y-98625000D03*
X234250000Y-31400000D03*
X262700000Y-55450000D03*
X262200000Y-70400000D03*
X144700000Y-111100000D03*
X149950000Y-100950000D03*
X69900000Y-74800000D03*
X42450000Y-42650040D03*
X45650000Y-42650040D03*
X69114897Y-37582389D03*
X98850000Y-36850040D03*
X68309050Y-74746839D03*
X68300000Y-41650040D03*
X104800000Y-42800040D03*
X70250000Y-75600000D03*
X72050000Y-63450000D03*
X55300002Y-76250000D03*
X69100000Y-74400000D03*
X69179283Y-43850040D03*
X105800000Y-43600040D03*
X271250000Y-39300040D03*
D28*
X40351552Y-27843931D02*
X40351552Y-28187233D01*
X41201552Y-26993931D02*
X40351552Y-27843931D01*
X41201552Y-26837233D02*
X41201552Y-26993931D01*
X48150001Y-29750041D02*
X41419386Y-29750041D01*
X48450000Y-30050040D02*
X48150001Y-29750041D01*
X41419386Y-29750041D02*
X40351552Y-28682207D01*
X40351552Y-28682207D02*
X40351552Y-28187233D01*
X304900000Y-56100000D02*
X304900000Y-49400000D01*
X45650000Y-43850040D02*
X42450000Y-43850040D01*
X133310641Y-104910641D02*
X133300000Y-104900000D01*
X133310641Y-109889359D02*
X133310641Y-104910641D01*
X129400000Y-113800000D02*
X133310641Y-109889359D01*
D29*
X62300000Y-74599960D02*
X66603248Y-74599960D01*
X66603248Y-74599960D02*
X66629218Y-74625930D01*
X303893701Y-67525040D02*
X302700000Y-67525040D01*
X302700000Y-63325040D02*
X303893701Y-64518741D01*
X303893701Y-64518741D02*
X303893701Y-67525040D01*
X70550000Y-69250000D02*
X70550000Y-64300000D01*
X69049998Y-82800000D02*
X69100000Y-82749998D01*
X61500000Y-82800000D02*
X69049998Y-82800000D01*
X43151539Y-62901539D02*
X32951539Y-62901539D01*
X53100000Y-72850000D02*
X43151539Y-62901539D01*
X32951539Y-62901539D02*
X30951539Y-62901539D01*
X30951539Y-62901539D02*
X30950000Y-62900000D01*
X25150000Y-66600000D02*
X24224960Y-67525040D01*
X24224960Y-67525040D02*
X23900000Y-67525040D01*
X25150000Y-63325040D02*
X25150000Y-66600000D01*
X23900000Y-63325040D02*
X25150000Y-63325040D01*
X23900000Y-63325040D02*
X25149990Y-63325040D01*
X56935958Y-82800000D02*
X61500000Y-82800000D01*
X53100000Y-78964042D02*
X56935958Y-82800000D01*
X53100000Y-72850000D02*
X53100000Y-78964042D01*
X69100000Y-77238170D02*
X69910021Y-76428149D01*
X69100000Y-82749998D02*
X69100000Y-77238170D01*
X67863564Y-35350000D02*
X65500000Y-35350000D01*
X65500000Y-35350000D02*
X59100000Y-28950000D01*
X70550000Y-64300000D02*
X70550000Y-38036436D01*
X70550000Y-38036436D02*
X67863564Y-35350000D01*
X229650000Y-77050040D02*
X229650000Y-79412619D01*
X304823741Y-68908642D02*
X304823741Y-72679377D01*
X304823741Y-72679377D02*
X303194017Y-74309101D01*
X303893701Y-67525040D02*
X303893701Y-67978602D01*
X303194017Y-74309101D02*
X302590939Y-74309101D01*
X302590939Y-74309101D02*
X296250000Y-80650040D01*
X303893701Y-67978602D02*
X304823741Y-68908642D01*
X77866064Y-64233976D02*
X77866064Y-64249730D01*
X81430000Y-60670040D02*
X77866064Y-64233976D01*
X83250000Y-60670040D02*
X81430000Y-60670040D01*
X37801552Y-26837233D02*
X37801552Y-28187233D01*
X43751552Y-26837233D02*
X43751552Y-28187233D01*
X36821552Y-26837233D02*
X36451552Y-27207233D01*
X37801552Y-26837233D02*
X36821552Y-26837233D01*
X36821552Y-27207233D02*
X37801552Y-28187233D01*
X36451552Y-27207233D02*
X36821552Y-27207233D01*
X44731552Y-27207233D02*
X43751552Y-28187233D01*
X45101552Y-27207233D02*
X44731552Y-27207233D01*
X44731552Y-26837233D02*
X45101552Y-27207233D01*
X43751552Y-26837233D02*
X44731552Y-26837233D01*
X306016338Y-61575040D02*
X306200000Y-61575040D01*
X305006299Y-62585079D02*
X306016338Y-61575040D01*
X305006299Y-65775040D02*
X305006299Y-62585079D01*
X306200000Y-65775040D02*
X305006299Y-65775040D01*
X26219000Y-65775040D02*
X26093701Y-65649741D01*
X27400000Y-65775040D02*
X26219000Y-65775040D01*
X26093701Y-65649741D02*
X26093701Y-61700339D01*
X26093701Y-61700339D02*
X26219000Y-61575040D01*
X26219000Y-61575040D02*
X27400000Y-61575040D01*
X61600040Y-91850040D02*
X56600000Y-86850000D01*
X61600040Y-92900400D02*
X61600040Y-91850040D01*
X107180000Y-81407417D02*
X107149996Y-81437421D01*
X107180000Y-76740000D02*
X107180000Y-81407417D01*
X27400000Y-65775040D02*
X28794830Y-65775040D01*
X28794830Y-65775040D02*
X28819790Y-65800000D01*
X298493580Y-96729976D02*
X289800000Y-88036396D01*
X298493580Y-100465550D02*
X298493580Y-96729976D01*
X289800000Y-88036396D02*
X289800000Y-81900040D01*
X61600040Y-92900400D02*
X62999640Y-92900400D01*
X62999640Y-92900400D02*
X64800000Y-91100040D01*
X28750000Y-90400000D02*
X28750000Y-87200000D01*
X31771347Y-93421347D02*
X28750000Y-90400000D01*
X28750000Y-87200000D02*
X30900000Y-85050000D01*
X31771347Y-100452828D02*
X31771347Y-93421347D01*
X234730000Y-81430040D02*
X234737381Y-81437421D01*
X234730000Y-77050040D02*
X234730000Y-81430040D01*
X83250000Y-58130040D02*
X83250000Y-53050040D01*
X85790000Y-60670040D02*
X83250000Y-58130040D01*
X83250000Y-53050040D02*
X85790000Y-53050040D01*
X85790000Y-70793322D02*
X85650000Y-70933322D01*
X85790000Y-60670040D02*
X85790000Y-70793322D01*
X85650000Y-70933322D02*
X85650000Y-84250040D01*
X28500000Y-30947785D02*
X35620552Y-23827233D01*
X28500000Y-33200040D02*
X28500000Y-30947785D01*
X35620552Y-23827233D02*
X36451552Y-23827233D01*
X26650000Y-35050040D02*
X28500000Y-33200040D01*
X27400000Y-61575040D02*
X27400000Y-41492718D01*
X26650000Y-40742718D02*
X26650000Y-35050040D01*
X27400000Y-41492718D02*
X26650000Y-40742718D01*
X303436005Y-74893312D02*
X303056728Y-74893312D01*
X305407952Y-68666654D02*
X305407952Y-72921365D01*
X305006299Y-68265001D02*
X305407952Y-68666654D01*
X305006299Y-65775040D02*
X305006299Y-68265001D01*
X305407952Y-72921365D02*
X303436005Y-74893312D01*
X303056728Y-74893312D02*
X296050000Y-81900040D01*
X90870000Y-55590040D02*
X90870000Y-53050040D01*
X85790000Y-60670040D02*
X90870000Y-55590040D01*
X88330000Y-53050040D02*
X90870000Y-53050040D01*
X42901552Y-26837233D02*
X42901552Y-28187233D01*
X38651552Y-26837233D02*
X38651552Y-28187233D01*
X42901552Y-28682207D02*
X43169381Y-28950036D01*
X43169381Y-28950036D02*
X52874996Y-28950036D01*
X42901552Y-28187233D02*
X42901552Y-28682207D01*
D28*
X23900000Y-64949994D02*
X24300000Y-64549994D01*
X23900000Y-65775040D02*
X23900000Y-64949994D01*
X27400000Y-63325040D02*
X27400000Y-64050009D01*
X27400000Y-64050009D02*
X26900009Y-64550000D01*
X34817434Y-28867434D02*
X33350000Y-27400000D01*
X39316325Y-28867434D02*
X34817434Y-28867434D01*
X39501552Y-28682207D02*
X39316325Y-28867434D01*
X39501552Y-28187233D02*
X39501552Y-28682207D01*
X42051552Y-26837233D02*
X42051552Y-26342259D01*
X49568274Y-25025040D02*
X49774665Y-24818649D01*
X42051552Y-26342259D02*
X43368771Y-25025040D01*
X43368771Y-25025040D02*
X49568274Y-25025040D01*
X284600000Y-58550040D02*
X284050000Y-58550040D01*
X286850000Y-60800040D02*
X284600000Y-58550040D01*
X71194790Y-73590528D02*
X71194790Y-62905248D01*
X71194790Y-62905248D02*
X71300000Y-62800038D01*
X71093640Y-95573898D02*
X71093640Y-95199752D01*
X72049992Y-96530250D02*
X71093640Y-95573898D01*
X74589572Y-99069830D02*
X75300000Y-99069830D01*
X72049992Y-96530250D02*
X74589572Y-99069830D01*
X67500000Y-74400002D02*
X67500000Y-36072873D01*
X67500000Y-36072873D02*
X67470837Y-36043710D01*
X53800000Y-62000040D02*
X50650000Y-62000040D01*
X50650000Y-67038898D02*
X50650000Y-62000040D01*
X56711142Y-73100040D02*
X50650000Y-67038898D01*
X60300000Y-73100040D02*
X56711142Y-73100040D01*
X202450000Y-60450040D02*
X200850000Y-62050040D01*
X202450000Y-53750040D02*
X202450000Y-60450040D01*
X74504394Y-96465691D02*
X76038743Y-98000040D01*
X76038743Y-98000040D02*
X76050000Y-98000040D01*
X73269383Y-95230680D02*
X73269383Y-95205271D01*
X74504394Y-96465691D02*
X73269383Y-95230680D01*
X29450000Y-43700000D02*
X29450000Y-46100000D01*
X36900000Y-36250000D02*
X29450000Y-43700000D01*
X29450000Y-55950000D02*
X30300000Y-56800000D01*
X29450000Y-46100000D02*
X29450000Y-55950000D01*
X30300000Y-68905049D02*
X30282866Y-68922183D01*
X30300000Y-56800000D02*
X30300000Y-68905049D01*
X60000000Y-34300000D02*
X60000000Y-41200036D01*
X60000000Y-41200036D02*
X55449996Y-45750040D01*
X34750000Y-84987805D02*
X34750000Y-86249998D01*
X32495914Y-82733719D02*
X34750000Y-84987805D01*
X37560942Y-96150000D02*
X39100000Y-96150000D01*
X33600000Y-92189058D02*
X37560942Y-96150000D01*
X33600000Y-90650040D02*
X33600000Y-92189058D01*
X34750000Y-89500040D02*
X33600000Y-90650040D01*
X34750000Y-86249998D02*
X34750000Y-89500040D01*
X31216281Y-82733719D02*
X31230203Y-82719797D01*
X30438926Y-83459173D02*
X24650000Y-89248099D01*
X31216281Y-82733719D02*
X30490827Y-83459173D01*
X30490827Y-83459173D02*
X30438926Y-83459173D01*
X24650000Y-89248099D02*
X24650000Y-103350000D01*
X31280203Y-82530243D02*
X31483679Y-82733719D01*
X31230203Y-82530243D02*
X31280203Y-82530243D01*
X31230203Y-82719797D02*
X31230203Y-82530243D01*
X31483679Y-82733719D02*
X32495914Y-82733719D01*
X31216281Y-82733719D02*
X31483679Y-82733719D01*
X42350000Y-45750040D02*
X55449996Y-45750040D01*
X36650000Y-47850040D02*
X40250000Y-47850040D01*
X40250000Y-47850040D02*
X42350000Y-45750040D01*
X34899960Y-46100000D02*
X36650000Y-47850040D01*
X29450000Y-46100000D02*
X34899960Y-46100000D01*
X29982867Y-69222182D02*
X30282866Y-68922183D01*
X31230203Y-75430243D02*
X29982867Y-74182907D01*
X29982867Y-74182907D02*
X29982867Y-69222182D01*
X31230203Y-82530243D02*
X31230203Y-75430243D01*
X300246491Y-55195601D02*
X300246491Y-52493619D01*
X300799141Y-40899141D02*
X291400000Y-31500000D01*
X291400000Y-31500000D02*
X291400000Y-31450000D01*
X300246491Y-52493619D02*
X300799141Y-51940969D01*
X288300000Y-78150040D02*
X288300000Y-83300040D01*
X284830210Y-74680250D02*
X288300000Y-78150040D01*
X284830210Y-69030252D02*
X284830210Y-74680250D01*
X292800000Y-92850040D02*
X292800000Y-103600040D01*
X288300000Y-88350040D02*
X292800000Y-92850040D01*
X288300000Y-83300040D02*
X288300000Y-88350040D01*
X300799141Y-48000899D02*
X300799141Y-40899141D01*
X300799141Y-51940969D02*
X300799141Y-48000899D01*
X297292052Y-58150040D02*
X292750000Y-58150040D01*
X284830210Y-66069830D02*
X284830210Y-69030252D01*
X292750000Y-58150040D02*
X284830210Y-66069830D01*
X300246491Y-55195601D02*
X297292052Y-58150040D01*
X27400000Y-67525040D02*
X27400000Y-66703296D01*
X49750004Y-60950040D02*
X53049998Y-60950040D01*
X23900000Y-61575040D02*
X25324950Y-61575040D01*
X25324950Y-61575040D02*
X25400000Y-61499990D01*
X302700000Y-59900000D02*
X302700000Y-61575040D01*
X306200000Y-64400000D02*
X306050000Y-64550000D01*
X306200000Y-63325040D02*
X306200000Y-64400000D01*
X302800000Y-65675040D02*
X302700000Y-65775040D01*
X302800000Y-64550000D02*
X302800000Y-65675040D01*
X289030202Y-88230242D02*
X289030202Y-81114553D01*
X295993580Y-95193620D02*
X289030202Y-88230242D01*
X289030202Y-81114553D02*
X289000000Y-81084351D01*
X295993580Y-100465550D02*
X295993580Y-95193620D01*
X290662616Y-87962656D02*
X290662616Y-81243712D01*
X300993580Y-98293620D02*
X290662616Y-87962656D01*
X300993580Y-100465550D02*
X300993580Y-98293620D01*
X28150000Y-90400040D02*
X28150000Y-86640932D01*
X28150000Y-86640932D02*
X30717198Y-84073734D01*
X27037979Y-91512061D02*
X28150000Y-90400040D01*
X27037979Y-98219460D02*
X27037979Y-91512061D01*
X29271347Y-100452828D02*
X27037979Y-98219460D01*
X29350000Y-87500004D02*
X32800004Y-84050000D01*
X29350000Y-90163604D02*
X29350000Y-87500004D01*
X34271347Y-100452828D02*
X34252828Y-100452828D01*
X32300000Y-93113604D02*
X29350000Y-90163604D01*
X32300000Y-98500000D02*
X32300000Y-93113604D01*
X34252828Y-100452828D02*
X32300000Y-98500000D01*
X30600002Y-75650042D02*
X30600002Y-76900040D01*
X29480202Y-74530242D02*
X30600002Y-75650042D01*
X29480202Y-61519838D02*
X29480202Y-74530242D01*
X29550000Y-61450040D02*
X29480202Y-61519838D01*
X59654399Y-93295601D02*
X60350000Y-92600000D01*
X53295241Y-93295601D02*
X59654399Y-93295601D01*
X52900040Y-92900400D02*
X53295241Y-93295601D01*
X269050000Y-56837978D02*
X269050000Y-57900000D01*
X262800000Y-50587978D02*
X269050000Y-56837978D01*
X262800000Y-46050000D02*
X262800000Y-50587978D01*
X255400000Y-84250000D02*
X262830210Y-76819790D01*
X269050000Y-57900000D02*
X262830210Y-64119790D01*
X262830210Y-64119790D02*
X262830210Y-69450000D01*
X262830210Y-76819790D02*
X262830210Y-69450000D01*
X262800000Y-42050040D02*
X262800000Y-46050000D01*
X253300000Y-32550040D02*
X262800000Y-42050040D01*
X253300000Y-31350040D02*
X253300000Y-32550040D01*
X255400000Y-84250000D02*
X252950000Y-86700000D01*
X252950000Y-86700000D02*
X252950000Y-103450040D01*
X215200000Y-91350000D02*
X222450000Y-98600000D01*
X215200000Y-88450000D02*
X215200000Y-91350000D01*
X205650000Y-78900000D02*
X205650000Y-65100040D01*
X215200000Y-88450000D02*
X205650000Y-78900000D01*
X205699998Y-41650038D02*
X205699998Y-50600040D01*
X196150000Y-32100040D02*
X205699998Y-41650038D01*
X205650000Y-65100040D02*
X205650000Y-50650038D01*
X205650000Y-50650038D02*
X205699998Y-50600040D01*
X194494841Y-103605199D02*
X194309839Y-103605199D01*
X196050000Y-102050040D02*
X194494841Y-103605199D01*
X196050000Y-88650000D02*
X196050000Y-102050040D01*
X196100000Y-88600000D02*
X196050000Y-88650000D01*
X211899640Y-114500400D02*
X210450040Y-114500400D01*
X214050000Y-112350040D02*
X211899640Y-114500400D01*
X217950000Y-112350040D02*
X214050000Y-112350040D01*
X223850000Y-107850040D02*
X223850000Y-107854450D01*
X223850000Y-107854450D02*
X220654410Y-111050040D01*
X224263991Y-107436049D02*
X223850000Y-107850040D01*
X224263991Y-100413991D02*
X224263991Y-107436049D01*
X219250000Y-111050040D02*
X217950000Y-112350040D01*
X220654410Y-111050040D02*
X219250000Y-111050040D01*
X222450000Y-98600000D02*
X224263991Y-100413991D01*
X172325939Y-109090969D02*
X174460169Y-111225199D01*
X174460169Y-111225199D02*
X178675199Y-111225199D01*
X178675199Y-111225199D02*
X182750000Y-115300000D01*
X186600000Y-46000000D02*
X186600000Y-65100000D01*
X177100000Y-78400000D02*
X177100000Y-88450000D01*
X186600000Y-68900000D02*
X177100000Y-78400000D01*
X186600000Y-65100000D02*
X186600000Y-68900000D01*
X176850000Y-36250000D02*
X186600000Y-46000000D01*
X176850000Y-34000040D02*
X176850000Y-36250000D01*
X172250000Y-109015030D02*
X172325939Y-109090969D01*
X173750000Y-105435770D02*
X172250000Y-106935770D01*
X173750000Y-91800040D02*
X173750000Y-105435770D01*
X177100000Y-88450000D02*
X174738939Y-90811061D01*
X174738939Y-90811101D02*
X173750000Y-91800040D01*
X172250000Y-106935770D02*
X172250000Y-109015030D01*
X174738939Y-90811061D02*
X174738939Y-90811101D01*
X158050000Y-78250040D02*
X158050000Y-83950000D01*
X167600000Y-68700040D02*
X158050000Y-78250040D01*
X167600000Y-65150000D02*
X167600000Y-68700040D01*
X167600000Y-45750040D02*
X167575000Y-45725040D01*
X167600000Y-65150000D02*
X167600000Y-45750040D01*
X167575000Y-41225040D02*
X167575000Y-45725040D01*
X158050000Y-31700040D02*
X167575000Y-41225040D01*
X155950000Y-101750040D02*
X155950000Y-103650000D01*
X158050000Y-99650040D02*
X155950000Y-101750040D01*
X158050000Y-83950000D02*
X158050000Y-99650040D01*
X119950000Y-98356558D02*
X122483842Y-100890400D01*
X119950000Y-88550000D02*
X119950000Y-98356558D01*
X129450000Y-46150000D02*
X119900000Y-36600000D01*
X119900000Y-36600000D02*
X119900000Y-35100000D01*
X129450000Y-46150000D02*
X129450000Y-65000000D01*
X148500000Y-50874264D02*
X151790560Y-54164824D01*
X148500000Y-50450000D02*
X148500000Y-50874264D01*
X151790560Y-62440560D02*
X151790560Y-62540560D01*
X152009440Y-62759440D02*
X151790560Y-62759440D01*
X151790560Y-62440560D02*
X151790560Y-62759440D01*
X151790560Y-54164824D02*
X151790560Y-62440560D01*
X151790560Y-63109440D02*
X151790560Y-62978320D01*
X151790560Y-62759440D02*
X151790560Y-63109440D01*
X151790560Y-63109440D02*
X151790560Y-67335240D01*
X158258458Y-62759440D02*
X152009440Y-62759440D01*
X162700000Y-67200982D02*
X158258458Y-62759440D01*
X162700000Y-69950000D02*
X162700000Y-67200982D01*
X151790560Y-62978320D02*
X152009440Y-62759440D01*
X151790560Y-62540560D02*
X152009440Y-62759440D01*
X119950000Y-78525040D02*
X119950000Y-88550000D01*
X129450000Y-69025040D02*
X119950000Y-78525040D01*
X129450000Y-65000000D02*
X129450000Y-69025040D01*
X141650000Y-92250040D02*
X141650000Y-103250040D01*
X139000000Y-89600040D02*
X141650000Y-92250040D01*
X139000000Y-88350000D02*
X139000000Y-89600040D01*
X93231989Y-91481989D02*
X98949992Y-85763986D01*
X98949992Y-85763986D02*
X98950000Y-85763986D01*
X89050000Y-95650040D02*
X89050000Y-97450040D01*
X93218051Y-91481989D02*
X89050000Y-95650040D01*
X93231989Y-91481989D02*
X93218051Y-91481989D01*
X98950000Y-85763986D02*
X92050000Y-78863986D01*
X92050000Y-78863986D02*
X92050000Y-69250040D01*
X98750000Y-31300000D02*
X92050000Y-38000000D01*
X92050000Y-69250040D02*
X92050000Y-50250036D01*
X92050000Y-38000000D02*
X92050000Y-50250036D01*
X68050000Y-34800040D02*
X72300000Y-39050040D01*
X65825736Y-34800040D02*
X68050000Y-34800040D01*
X62800000Y-31774304D02*
X65825736Y-34800040D01*
X62800000Y-31350040D02*
X62800000Y-31774304D01*
X72300000Y-39050040D02*
X72300000Y-46350040D01*
X78850000Y-98500040D02*
X77650000Y-99700040D01*
X78850000Y-89850040D02*
X78850000Y-98500040D01*
X72300000Y-46350040D02*
X72300000Y-59700040D01*
X72300000Y-59700040D02*
X77850000Y-65250040D01*
X79062132Y-65250040D02*
X77850000Y-65250040D01*
X82650000Y-70450040D02*
X82650000Y-68837908D01*
X84550000Y-72350040D02*
X82650000Y-70450040D01*
X84550000Y-84150040D02*
X84550000Y-72350040D01*
X82650000Y-68837908D02*
X79062132Y-65250040D01*
X78850000Y-89850040D02*
X84550000Y-84150040D01*
X247900000Y-52150000D02*
X247900000Y-54200000D01*
X247550000Y-71850000D02*
X247550000Y-74000000D01*
X306200000Y-73150000D02*
X304950000Y-74400000D01*
X306200000Y-67525040D02*
X306200000Y-73150000D01*
X245885601Y-76785601D02*
X244565599Y-75465599D01*
X244565599Y-75465599D02*
X244565599Y-57334441D01*
X73845626Y-97154414D02*
X74841491Y-98150279D01*
X74841491Y-98150279D02*
X74932209Y-98150279D01*
X73845626Y-97154414D02*
X71896833Y-95205621D01*
X71896833Y-95205621D02*
X71896833Y-95205271D01*
X243765800Y-74734200D02*
X234225000Y-84275000D01*
X243765800Y-69653938D02*
X243765800Y-74734200D01*
X234225000Y-98600000D02*
X234250000Y-98625000D01*
X234225000Y-84275000D02*
X234225000Y-98600000D01*
X243750000Y-41324264D02*
X243750000Y-50400000D01*
X234250000Y-31824264D02*
X243750000Y-41324264D01*
X234250000Y-31400000D02*
X234250000Y-31824264D01*
X262200000Y-55950000D02*
X262200000Y-70400000D01*
X262700000Y-55450000D02*
X262200000Y-55950000D01*
X243750000Y-69638138D02*
X243765800Y-69653938D01*
X243750000Y-50400000D02*
X243750000Y-69638138D01*
X147700891Y-100950000D02*
X149950000Y-100950000D01*
X145250000Y-103400891D02*
X147700891Y-100950000D01*
X145250000Y-105159138D02*
X145250000Y-103400891D01*
X143750939Y-106658199D02*
X145250000Y-105159138D01*
X143750939Y-110150939D02*
X143750939Y-106658199D01*
X144700000Y-111100000D02*
X143750939Y-110150939D01*
X42450000Y-42650040D02*
X45650000Y-42650040D01*
X69900000Y-74800000D02*
X69900000Y-38367492D01*
X69900000Y-38367492D02*
X69114897Y-37582389D01*
X98850000Y-47200000D02*
X98850000Y-36850040D01*
X102100000Y-63196502D02*
X102100000Y-50450000D01*
X102820201Y-65673697D02*
X102820201Y-63916703D01*
X102100000Y-66393898D02*
X102820201Y-65673697D01*
X102100000Y-50450000D02*
X98850000Y-47200000D01*
X102820201Y-63916703D02*
X102100000Y-63196502D01*
X102100000Y-74200000D02*
X102100000Y-66393898D01*
X68309050Y-74746839D02*
X68309050Y-41659090D01*
X68309050Y-41659090D02*
X68300000Y-41650040D01*
X104800000Y-74040000D02*
X104800000Y-42800040D01*
X104640000Y-74200000D02*
X104800000Y-74040000D01*
X91080201Y-70957503D02*
X91080201Y-78169799D01*
X90870000Y-70747302D02*
X91080201Y-70957503D01*
X91080201Y-78169799D02*
X89950000Y-79300000D01*
X90870000Y-60670040D02*
X90870000Y-70747302D01*
X88330000Y-77820000D02*
X86850000Y-79300000D01*
X88330000Y-60670040D02*
X88330000Y-77820000D01*
X72050000Y-73800000D02*
X72050000Y-63450000D01*
X70250000Y-75600000D02*
X72050000Y-73800000D01*
X70250000Y-75600000D02*
X55950002Y-75600000D01*
X55950002Y-75600000D02*
X55300002Y-76250000D01*
X69100000Y-43929323D02*
X69179283Y-43850040D01*
X69100000Y-74400000D02*
X69100000Y-43929323D01*
X105820201Y-43620241D02*
X105800000Y-43600040D01*
X105820201Y-75559799D02*
X105820201Y-43620241D01*
X104640000Y-76740000D02*
X105820201Y-75559799D01*
X271250000Y-40250040D02*
X271250000Y-39300040D01*
X268250000Y-43250040D02*
X271250000Y-40250040D01*
M02*
