M48
; DRILL file {KiCad (5.1.9-0-10_14)} date Sunday, January 10, 2021 at 06:11:44 PM
; FORMAT={-:-/ absolute / metric / decimal}
; #@! TF.CreationDate,2021-01-10T18:11:44+09:00
; #@! TF.GenerationSoftware,Kicad,Pcbnew,(5.1.9-0-10_14)
FMAT,2
METRIC
T1C0.400
T2C0.500
T3C0.600
T4C0.650
T5C0.813
T6C1.000
T7C1.470
T8C1.500
T9C2.499
T10C2.499
T11C1.750
T12C2.400
T13C3.000
T14C3.048
T15C3.988
%
G90
G05
T1
X23.9Y-65.775
X23.9Y-84.375
X23.9Y-86.125
X23.9Y-88.575
X24.25Y-30.6
X24.25Y-33.9
X24.65Y-27.675
X24.69Y-105.435
X26.1Y-66.65
X26.85Y-41.65
X27.4Y-86.194
X27.4Y-90.325
X27.45Y-63.35
X29.371Y-67.121
X29.452Y-48.285
X29.65Y-25.65
X30.391Y-84.309
X30.8Y-77.9
X31.35Y-86.31
X31.35Y-91.39
X31.834Y-67.335
X31.85Y-25.65
X32.06Y-77.85
X32.096Y-27.7
X32.864Y-78.692
X34.175Y-78.625
X36.596Y-86.385
X37.802Y-26.837
X37.802Y-28.187
X38.652Y-26.837
X38.652Y-28.187
X38.86Y-34.315
X39.502Y-26.837
X39.502Y-28.187
X40.352Y-26.837
X40.352Y-28.187
X40.5Y-30.4
X41.202Y-26.837
X41.202Y-28.187
X41.204Y-31.996
X41.85Y-38.1
X42.052Y-26.837
X42.052Y-28.187
X42.08Y-43.141
X42.902Y-26.837
X42.902Y-28.187
X43.622Y-72.415
X43.74Y-105.435
X43.752Y-26.837
X43.752Y-28.187
X43.95Y-54.25
X43.95Y-58.65
X44.3Y-33.0
X46.594Y-67.966
X47.35Y-65.35
X47.4Y-100.3
X48.385Y-91.465
X48.4Y-25.7
X50.45Y-25.65
X50.597Y-74.166
X51.05Y-50.45
X51.25Y-61.85
X51.5Y-89.85
X51.82Y-46.343
X52.963Y-71.044
X53.05Y-73.075
X53.275Y-61.85
X53.28Y-48.25
X54.25Y-41.65
X55.25Y-42.45
X56.4Y-81.1
X56.48Y-54.232
X56.511Y-55.056
X56.547Y-55.859
X56.554Y-56.662
X56.56Y-57.465
X56.65Y-50.85
X56.83Y-59.413
X56.85Y-28.45
X57.23Y-60.96
X57.707Y-94.643
X57.756Y-34.315
X57.849Y-53.74
X58.05Y-61.05
X58.249Y-47.239
X58.25Y-43.45
X58.412Y-52.4
X58.716Y-65.373
X58.779Y-63.644
X58.837Y-62.143
X58.956Y-40.477
X59.32Y-78.13
X59.4Y-62.82
X59.65Y-67.25
X59.716Y-47.218
X60.0Y-80.7
X60.039Y-63.445
X60.169Y-53.316
X60.2Y-89.85
X60.298Y-95.259
X60.71Y-62.675
X60.97Y-53.252
X61.304Y-62.134
X61.85Y-32.65
X62.502Y-86.193
X62.63Y-74.079
X62.65Y-91.8
X62.65Y-95.1
X62.673Y-110.515
X62.674Y-68.76
X62.85Y-29.25
X62.85Y-41.65
X62.85Y-100.85
X63.27Y-48.8
X63.346Y-62.25
X63.856Y-63.04
X64.089Y-48.999
X64.16Y-52.72
X64.414Y-61.284
X64.852Y-53.127
X65.171Y-105.435
X65.182Y-61.051
X65.435Y-73.456
X66.248Y-53.557
X66.45Y-96.25
X66.476Y-55.188
X66.57Y-60.85
X66.8Y-92.0
X67.093Y-55.702
X67.25Y-40.65
X67.425Y-53.032
X67.45Y-48.65
X67.45Y-50.95
X67.569Y-71.969
X67.659Y-56.272
X67.708Y-39.301
X67.737Y-68.748
X67.83Y-63.151
X68.094Y-62.35
X68.195Y-66.174
X68.255Y-56.81
X68.29Y-66.972
X68.456Y-40.638
X69.2Y-57.669
X69.22Y-48.65
X69.22Y-50.95
X69.22Y-53.25
X69.25Y-40.02
X69.333Y-61.69
X71.22Y-41.28
X71.55Y-73.65
X71.85Y-52.05
X72.315Y-67.335
X72.799Y-38.474
X72.937Y-48.285
X72.953Y-41.28
X73.05Y-37.71
X76.85Y-43.25
X78.65Y-28.9
X78.65Y-32.45
X78.65Y-35.7
X81.84Y-86.48
X81.85Y-29.25
X84.05Y-110.45
X88.984Y-105.435
X89.25Y-73.65
X90.65Y-70.4
X90.65Y-73.7
X91.365Y-48.285
X91.45Y-67.25
X100.773Y-110.515
X100.89Y-29.235
X100.89Y-86.48
X109.15Y-64.4
X109.65Y-73.65
X110.415Y-48.285
X110.415Y-67.335
X119.85Y-29.25
X119.94Y-86.385
X119.94Y-105.435
X129.465Y-48.285
X129.465Y-67.335
X131.729Y-110.515
X133.4Y-60.42
X136.05Y-35.25
X138.99Y-86.385
X139.05Y-29.25
X141.372Y-105.435
X144.85Y-54.45
X144.85Y-70.25
X144.85Y-73.65
X148.516Y-48.285
X151.45Y-34.85
X158.041Y-29.235
X158.041Y-86.385
X158.041Y-105.435
X158.05Y-36.45
X162.686Y-72.415
X163.85Y-54.3
X167.52Y-67.335
X167.566Y-48.285
X177.05Y-29.25
X177.091Y-86.385
X182.65Y-73.7
X185.45Y-105.1
X186.616Y-48.285
X186.65Y-67.25
X188.85Y-105.05
X196.141Y-29.235
X196.25Y-86.45
X205.666Y-48.285
X205.666Y-67.335
X212.4Y-101.6
X212.81Y-104.747
X215.25Y-29.05
X215.25Y-86.45
X223.65Y-73.65
X224.716Y-48.285
X224.716Y-67.335
X226.98Y-110.515
X234.241Y-86.385
X234.241Y-105.435
X234.25Y-29.25
X235.85Y-55.65
X238.05Y-82.119
X239.25Y-73.65
X239.55Y-37.0
X239.85Y-54.25
X241.6Y-42.45
X242.65Y-57.582
X244.05Y-56.82
X245.25Y-56.85
X246.45Y-56.85
X248.732Y-48.285
X249.625Y-35.325
X249.8Y-38.8
X250.05Y-104.85
X250.326Y-28.91
X251.4Y-38.2
X252.55Y-34.7
X252.65Y-92.3
X253.29Y-29.235
X253.291Y-86.385
X253.291Y-105.435
X253.88Y-31.05
X254.95Y-39.505
X255.672Y-67.05
X258.0Y-36.334
X259.892Y-77.058
X260.317Y-62.89
X260.55Y-82.25
X261.455Y-45.745
X262.277Y-39.609
X262.45Y-78.45
X265.936Y-83.564
X266.213Y-57.82
X266.65Y-78.85
X266.65Y-79.85
X267.35Y-57.744
X267.55Y-43.25
X267.579Y-48.285
X268.3Y-55.3
X268.6Y-43.4
X269.25Y-108.25
X269.25Y-111.45
X269.3Y-34.5
X269.45Y-80.952
X269.933Y-41.881
X269.95Y-41.0
X270.213Y-96.835
X270.795Y-69.218
X271.2Y-44.2
X271.256Y-78.619
X272.063Y-80.952
X272.341Y-29.235
X272.341Y-105.435
X272.45Y-86.25
X272.516Y-78.707
X273.1Y-74.9
X273.6Y-55.9
X273.8Y-27.25
X274.65Y-91.45
X277.65Y-66.65
X278.65Y-65.85
X280.05Y-81.98
X280.05Y-45.75
X280.6Y-41.65
X282.05Y-98.45
X284.85Y-80.85
X285.65Y-63.65
X285.85Y-79.85
X286.05Y-81.05
X286.25Y-96.85
X286.45Y-72.85
X286.629Y-67.335
X286.65Y-100.05
X286.852Y-63.613
X287.075Y-47.875
X287.85Y-95.1
X288.45Y-108.2
X288.9Y-62.9
X289.01Y-86.385
X289.45Y-59.8
X289.688Y-57.3
X290.7Y-101.2
X291.45Y-29.25
X291.45Y-105.45
X293.1Y-94.0
X298.85Y-58.544
X302.7Y-46.575
X302.7Y-48.325
X302.7Y-61.575
X302.7Y-65.775
X303.193Y-49.363
X305.55Y-53.35
X305.556Y-91.465
X305.561Y-72.415
X306.15Y-63.35
X306.2Y-48.325
X306.2Y-67.525
X306.25Y-44.15
X306.834Y-58.634
T2
X24.35Y-76.9
X24.358Y-81.25
X26.4Y-76.9
X26.4Y-81.25
X27.95Y-77.55
X27.95Y-80.55
X28.55Y-79.05
X45.9Y-50.45
X46.45Y-49.1
X46.45Y-51.75
X47.8Y-48.55
X47.8Y-52.35
X49.05Y-49.1
X49.05Y-51.8
X49.7Y-50.45
X149.6Y-67.7
X149.6Y-71.45
X150.8Y-67.7
X150.8Y-71.45
X152.0Y-67.7
X152.0Y-71.45
X211.9Y-109.6
X211.95Y-105.9
X213.1Y-109.6
X213.15Y-105.9
X214.3Y-109.6
X214.35Y-105.9
X301.65Y-79.05
X302.25Y-77.55
X302.25Y-80.55
X303.8Y-76.85
X303.8Y-81.2
X305.842Y-76.85
X305.85Y-81.2
T4
X272.45Y-40.08
X272.45Y-41.35
X273.72Y-40.08
X273.72Y-41.35
X274.99Y-40.08
X274.99Y-41.35
X276.26Y-40.08
X276.26Y-41.35
X277.53Y-40.08
X277.53Y-41.35
X284.65Y-40.08
X284.65Y-41.35
X285.92Y-40.08
X285.92Y-41.35
X287.19Y-40.08
X287.19Y-41.35
X288.46Y-40.08
X288.46Y-41.35
X289.73Y-40.08
X289.73Y-41.35
T5
X306.65Y-27.23
X306.65Y-29.77
X306.65Y-32.31
X306.65Y-34.85
T6
X29.271Y-100.453
X29.271Y-114.953
X31.771Y-100.453
X34.271Y-100.453
X34.271Y-114.953
X294.25Y-34.85
X294.95Y-37.65
X295.994Y-100.466
X295.994Y-114.966
X298.494Y-100.466
X300.994Y-100.466
X300.994Y-114.966
X302.05Y-34.85
X302.75Y-37.65
T7
X27.965Y-29.235
X31.616Y-113.055
X34.315Y-26.695
X37.966Y-110.515
X47.015Y-29.235
X53.365Y-26.695
X151.791Y-67.335
X158.141Y-64.795
X250.692Y-74.955
X253.073Y-74.955
X257.042Y-72.415
X259.423Y-72.415
X261.329Y-86.385
X267.679Y-83.845
X270.854Y-67.335
X275.616Y-48.285
X277.204Y-64.795
X281.966Y-45.745
X284.03Y-74.955
X290.38Y-72.415
X291.174Y-94.005
X297.524Y-91.465
T10
X47.8Y-50.45
T11
X26.695Y-31.775
X26.695Y-31.775
X26.695Y-107.975
X29.076Y-107.975
X31.457Y-50.825
X31.457Y-69.875
X33.839Y-69.875
X36.22Y-88.925
X36.855Y-31.775
X36.855Y-31.775
X36.855Y-107.975
X38.601Y-88.925
X39.236Y-107.975
X41.617Y-50.825
X41.617Y-69.875
X43.999Y-69.875
X45.745Y-31.775
X45.745Y-31.775
X45.745Y-107.975
X46.38Y-88.925
X48.761Y-88.925
X50.508Y-107.975
X55.27Y-50.825
X55.27Y-69.875
X55.905Y-31.775
X55.905Y-31.775
X55.905Y-107.975
X60.668Y-107.975
X64.795Y-31.775
X64.795Y-88.925
X65.43Y-50.825
X65.43Y-69.875
X67.176Y-107.975
X71.939Y-107.975
X74.32Y-50.825
X74.32Y-69.875
X74.955Y-31.775
X74.955Y-88.925
X77.336Y-107.975
X82.099Y-107.975
X83.845Y-31.775
X83.845Y-88.925
X84.48Y-50.825
X84.48Y-69.875
X88.608Y-107.975
X90.989Y-107.975
X93.37Y-50.825
X93.37Y-69.875
X94.005Y-31.775
X94.005Y-88.925
X98.768Y-107.975
X101.149Y-107.975
X102.895Y-31.775
X102.895Y-88.925
X103.53Y-50.825
X103.53Y-69.875
X112.42Y-50.825
X112.42Y-69.875
X113.055Y-31.775
X113.055Y-88.925
X119.564Y-107.975
X121.945Y-31.775
X121.945Y-88.925
X121.945Y-107.975
X122.58Y-50.825
X122.58Y-69.875
X129.724Y-107.975
X131.47Y-50.825
X131.47Y-69.875
X132.105Y-31.775
X132.105Y-88.925
X132.105Y-107.975
X140.995Y-31.775
X140.995Y-88.925
X141.63Y-50.825
X141.63Y-69.875
X143.377Y-107.975
X150.521Y-50.825
X150.521Y-69.875
X150.521Y-69.875
X151.155Y-31.775
X151.155Y-88.925
X153.537Y-107.975
X160.046Y-31.775
X160.046Y-88.925
X160.046Y-107.975
X160.681Y-50.825
X160.681Y-69.875
X160.681Y-69.875
X169.571Y-50.825
X169.571Y-69.875
X170.206Y-31.775
X170.206Y-88.925
X170.206Y-107.975
X179.096Y-31.775
X179.096Y-88.925
X179.731Y-50.825
X179.731Y-69.875
X188.621Y-50.825
X188.621Y-69.875
X189.256Y-31.775
X189.256Y-88.925
X191.002Y-107.975
X198.146Y-31.775
X198.146Y-88.925
X198.781Y-50.825
X198.781Y-69.875
X201.162Y-107.975
X207.671Y-50.825
X207.671Y-69.875
X208.306Y-31.775
X208.306Y-88.925
X214.815Y-107.975
X214.815Y-107.975
X217.195Y-31.775
X217.196Y-88.925
X217.831Y-50.825
X217.831Y-69.875
X224.975Y-107.975
X224.975Y-107.975
X226.721Y-50.825
X226.721Y-69.875
X227.355Y-31.775
X227.356Y-88.925
X236.245Y-31.775
X236.246Y-88.925
X236.246Y-107.975
X236.881Y-50.825
X236.881Y-69.875
X246.405Y-31.775
X246.406Y-88.925
X246.406Y-107.975
X248.152Y-60.35
X248.152Y-69.875
X250.533Y-50.825
X250.533Y-69.875
X255.295Y-31.775
X255.296Y-88.925
X255.296Y-107.975
X257.677Y-69.875
X258.312Y-60.35
X258.312Y-69.875
X260.059Y-88.925
X260.693Y-50.825
X260.693Y-69.875
X262.44Y-88.925
X265.455Y-31.775
X265.456Y-88.925
X265.456Y-107.975
X267.837Y-69.875
X269.584Y-50.825
X269.584Y-69.875
X270.219Y-88.925
X272.6Y-88.925
X274.346Y-31.775
X274.346Y-50.825
X274.346Y-50.825
X274.346Y-69.875
X274.346Y-88.925
X274.346Y-107.975
X279.744Y-50.825
X279.744Y-69.875
X281.49Y-69.875
X284.506Y-31.775
X284.506Y-50.825
X284.506Y-50.825
X284.506Y-69.875
X284.506Y-88.925
X284.506Y-107.975
X288.634Y-50.825
X288.634Y-69.875
X288.634Y-88.925
X291.015Y-88.925
X291.65Y-69.875
X293.396Y-31.775
X293.396Y-50.825
X293.396Y-69.875
X293.396Y-88.925
X293.396Y-107.975
X298.794Y-50.825
X298.794Y-69.875
X298.794Y-88.925
X301.175Y-88.925
X303.556Y-31.775
X303.556Y-50.825
X303.556Y-69.875
X303.556Y-88.925
X303.556Y-107.975
T13
X27.965Y-105.435
X29.235Y-36.855
X32.727Y-48.285
X33.997Y-74.955
X34.315Y-102.895
X35.109Y-67.335
X35.585Y-34.315
X38.76Y-94.005
X39.078Y-45.745
X39.871Y-86.385
X40.347Y-72.415
X41.459Y-64.795
X45.11Y-91.465
X46.221Y-83.845
X47.015Y-105.435
X48.285Y-36.855
X53.048Y-113.055
X53.365Y-102.895
X54.635Y-34.315
X56.54Y-48.285
X56.54Y-67.335
X59.398Y-110.515
X62.89Y-45.745
X62.89Y-64.795
X66.065Y-29.235
X66.065Y-86.385
X68.446Y-105.435
X72.415Y-26.695
X72.415Y-83.845
X74.479Y-113.055
X74.796Y-102.895
X75.59Y-48.285
X75.59Y-67.335
X80.829Y-110.515
X81.94Y-45.745
X81.94Y-64.795
X85.115Y-29.235
X85.115Y-86.385
X91.148Y-113.055
X91.465Y-26.695
X91.465Y-83.845
X92.259Y-105.435
X94.64Y-48.285
X94.64Y-67.335
X97.498Y-110.515
X98.609Y-102.895
X100.99Y-45.745
X100.99Y-64.795
X104.165Y-29.235
X104.165Y-86.385
X110.515Y-26.695
X110.515Y-83.845
X113.69Y-48.285
X113.69Y-67.335
X120.04Y-45.745
X120.04Y-64.795
X122.104Y-113.055
X123.215Y-29.235
X123.215Y-86.385
X123.215Y-105.435
X128.454Y-110.515
X129.565Y-26.695
X129.565Y-83.845
X129.565Y-102.895
X132.74Y-48.285
X132.74Y-67.335
X139.09Y-45.745
X139.09Y-64.795
X142.265Y-29.235
X142.265Y-86.385
X144.647Y-105.435
X148.615Y-26.695
X148.615Y-83.845
X150.997Y-102.895
X151.791Y-48.285
X153.061Y-74.955
X158.141Y-45.745
X159.411Y-72.415
X161.316Y-29.235
X161.316Y-86.385
X161.316Y-105.435
X167.666Y-26.695
X167.666Y-83.845
X167.666Y-102.895
X170.841Y-48.285
X170.841Y-67.335
X177.191Y-45.745
X177.191Y-64.795
X180.366Y-29.235
X180.366Y-86.385
X186.716Y-26.695
X186.716Y-83.845
X189.891Y-48.285
X189.891Y-67.335
X192.272Y-105.435
X196.241Y-45.745
X196.241Y-64.795
X198.622Y-102.895
X199.416Y-29.235
X199.416Y-86.385
X205.766Y-26.695
X205.766Y-83.845
X208.941Y-48.285
X208.941Y-67.335
X215.291Y-45.745
X215.291Y-64.795
X216.085Y-105.435
X217.355Y-113.055
X218.465Y-29.235
X218.466Y-86.385
X222.435Y-102.895
X223.705Y-110.515
X224.815Y-26.695
X224.816Y-83.845
X227.991Y-48.285
X227.991Y-67.335
X234.341Y-45.745
X234.341Y-64.795
X237.515Y-29.235
X237.516Y-86.385
X237.516Y-105.435
X243.865Y-26.695
X243.866Y-83.845
X243.866Y-102.895
X250.692Y-65.43
X251.803Y-48.285
X256.565Y-29.235
X256.566Y-86.385
X256.566Y-105.435
X257.042Y-62.89
X258.153Y-45.745
X258.947Y-67.335
X262.915Y-26.695
X262.916Y-83.845
X262.916Y-102.895
X264.98Y-94.005
X265.297Y-64.795
X270.854Y-48.285
X271.33Y-91.465
X275.616Y-29.235
X275.616Y-86.385
X275.616Y-105.435
X276.886Y-55.905
X276.886Y-74.955
X277.204Y-45.745
X281.966Y-26.695
X281.966Y-83.845
X281.966Y-102.895
X283.236Y-53.365
X283.236Y-72.415
X289.904Y-48.285
X289.904Y-67.335
X292.285Y-86.385
X294.666Y-29.235
X294.666Y-105.435
X295.936Y-55.905
X295.936Y-74.955
X295.936Y-94.005
X296.254Y-45.745
X296.254Y-64.795
X298.635Y-83.845
X301.016Y-26.695
X301.016Y-102.895
X302.286Y-53.365
X302.286Y-72.415
X302.286Y-91.465
T14
X29.362Y-81.94
X53.238Y-81.94
X98.457Y-114.96
X112.706Y-114.96
X115.087Y-114.96
X136.582Y-114.96
X138.963Y-114.96
X153.188Y-114.96
X177.064Y-114.96
X198.457Y-114.96
X246.247Y-48.412
X246.247Y-72.288
X250.819Y-76.86
X274.695Y-76.86
T15
X29.362Y-97.18
X31.775Y-31.775
X31.775Y-31.775
X31.775Y-107.975
X34.156Y-107.975
X36.538Y-50.825
X36.538Y-69.875
X38.919Y-69.875
X41.3Y-88.925
X43.681Y-88.925
X50.825Y-31.775
X50.825Y-31.775
X50.825Y-107.975
X53.238Y-97.18
X55.588Y-107.975
X60.35Y-50.825
X60.35Y-69.875
X69.875Y-31.775
X69.875Y-88.925
X72.256Y-107.975
X77.019Y-107.975
X79.4Y-50.825
X79.4Y-69.875
X88.925Y-31.775
X88.925Y-88.925
X93.688Y-107.975
X96.069Y-107.975
X98.45Y-50.825
X98.45Y-69.875
X98.457Y-99.72
X107.975Y-31.775
X107.975Y-88.925
X112.706Y-99.72
X115.087Y-99.72
X117.5Y-50.825
X117.5Y-69.875
X124.644Y-107.975
X127.025Y-31.775
X127.025Y-88.925
X127.025Y-107.975
X136.55Y-50.825
X136.55Y-69.875
X136.582Y-99.72
X138.963Y-99.72
X146.075Y-31.775
X146.075Y-88.925
X148.457Y-107.975
X153.188Y-99.72
X155.601Y-50.825
X155.601Y-69.875
X155.601Y-69.875
X165.126Y-31.775
X165.126Y-88.925
X165.126Y-107.975
X174.651Y-50.825
X174.651Y-69.875
X177.064Y-99.72
X184.176Y-31.775
X184.176Y-88.925
X193.701Y-50.825
X193.701Y-69.875
X196.082Y-107.975
X198.457Y-99.72
X203.226Y-31.775
X203.226Y-88.925
X212.751Y-50.825
X212.751Y-69.875
X219.895Y-107.975
X219.895Y-107.975
X222.275Y-31.775
X222.276Y-88.925
X231.801Y-50.825
X231.801Y-69.875
X241.325Y-31.775
X241.326Y-88.925
X241.326Y-107.975
X250.819Y-61.62
X253.232Y-60.35
X253.232Y-69.875
X255.613Y-50.825
X255.613Y-69.875
X260.375Y-31.775
X260.376Y-88.925
X260.376Y-107.975
X261.487Y-48.412
X261.487Y-72.288
X262.757Y-69.875
X265.139Y-88.925
X267.52Y-88.925
X274.664Y-50.825
X274.664Y-69.875
X274.695Y-61.62
X279.426Y-31.775
X279.426Y-50.825
X279.426Y-50.825
X279.426Y-69.875
X279.426Y-88.925
X279.426Y-107.975
X286.57Y-69.875
X293.714Y-50.825
X293.714Y-69.875
X293.714Y-88.925
X296.095Y-88.925
X298.476Y-31.775
X298.476Y-50.825
X298.476Y-69.875
X298.476Y-88.925
X298.476Y-107.975
T3
G00X36.452Y-23.427
M15
G01X36.452Y-24.227
M16
G05
G00X36.452Y-26.457
M15
G01X36.452Y-27.957
M16
G05
G00X45.102Y-23.427
M15
G01X45.102Y-24.227
M16
G05
G00X45.102Y-26.457
M15
G01X45.102Y-27.957
M16
G05
T8
G00X26.171Y-107.303
M15
G01X26.171Y-108.603
M16
G05
G00X37.371Y-107.303
M15
G01X37.371Y-108.603
M16
G05
G00X292.894Y-107.316
M15
G01X292.894Y-108.616
M16
G05
G00X304.094Y-107.316
M15
G01X304.094Y-108.616
M16
G05
T9
G00X149.549Y-69.55
M15
G01X152.051Y-69.55
M16
G05
G00X211.849Y-107.75
M15
G01X214.351Y-107.75
M16
G05
T12
G00X281.25Y-50.45
M15
G01X284.05Y-50.45
M16
G05
T0
M30
