G04 #@! TF.GenerationSoftware,KiCad,Pcbnew,(5.1.6-0-10_14)*
G04 #@! TF.CreationDate,2020-07-20T09:45:54+09:00*
G04 #@! TF.ProjectId,Jones,4a6f6e65-732e-46b6-9963-61645f706362,v.0.2*
G04 #@! TF.SameCoordinates,Original*
G04 #@! TF.FileFunction,Soldermask,Top*
G04 #@! TF.FilePolarity,Negative*
%FSLAX46Y46*%
G04 Gerber Fmt 4.6, Leading zero omitted, Abs format (unit mm)*
G04 Created by KiCad (PCBNEW (5.1.6-0-10_14)) date 2020-07-20 09:45:54*
%MOMM*%
%LPD*%
G01*
G04 APERTURE LIST*
%ADD10C,2.501900*%
%ADD11C,1.400000*%
%ADD12O,7.400240X5.400000*%
%ADD13C,5.400000*%
%ADD14C,4.387800*%
%ADD15C,3.448000*%
%ADD16C,2.150000*%
%ADD17C,3.400000*%
%ADD18R,1.250000X2.000000*%
%ADD19C,2.400000*%
%ADD20R,2.400000X3.600000*%
%ADD21R,2.400000X2.400000*%
%ADD22C,2.600000*%
%ADD23O,2.100000X2.100000*%
%ADD24R,2.100000X2.100000*%
%ADD25O,2.100000X3.100000*%
%ADD26O,1.500000X2.050000*%
G04 APERTURE END LIST*
D10*
X22600000Y-81700950D02*
X26400000Y-81700950D01*
X22600000Y-76399050D02*
X26400000Y-76399050D01*
X303800000Y-81700950D02*
X307650000Y-81700950D01*
X303800000Y-76399050D02*
X307600000Y-76399050D01*
X26400000Y-81700950D02*
G75*
G03*
X29050950Y-79050000I0J2650950D01*
G01*
X29050950Y-79050000D02*
G75*
G03*
X26400000Y-76399050I-2650950J0D01*
G01*
X303800000Y-81700950D02*
G75*
G02*
X301149050Y-79050000I0J2650950D01*
G01*
X301149050Y-79050000D02*
G75*
G02*
X303800000Y-76399050I2650950J0D01*
G01*
D11*
X301961522Y-80888478D03*
X303800000Y-81650000D03*
X305842035Y-81650000D03*
X305842035Y-76450000D03*
X303800000Y-76450000D03*
X301961522Y-77211522D03*
X301200000Y-79050000D03*
X24357965Y-81650000D03*
X24357965Y-76450000D03*
X28238478Y-80888478D03*
X28238478Y-77211522D03*
X26400000Y-81650000D03*
X26400000Y-76450000D03*
X29000000Y-79050000D03*
X152000000Y-71450000D03*
X149600000Y-71450000D03*
X150800000Y-71450000D03*
X149600000Y-67700000D03*
X152000000Y-67700000D03*
X150800000Y-67700000D03*
X214300000Y-109600000D03*
X211900000Y-109600000D03*
X211950000Y-105900000D03*
X214350000Y-105900000D03*
X213100000Y-109600000D03*
X213150000Y-105900000D03*
X283850000Y-48583000D03*
X281450000Y-48600000D03*
X281450000Y-52300000D03*
X283850000Y-52300000D03*
X282650000Y-52300000D03*
X282650000Y-48600000D03*
X49050000Y-51800000D03*
X46450000Y-51750000D03*
X49050000Y-49100000D03*
X46450000Y-49100000D03*
X47800000Y-52350000D03*
X49700000Y-50450000D03*
X45900000Y-50450000D03*
X47800000Y-48550000D03*
D12*
X282650000Y-50450000D03*
X213100000Y-107750000D03*
X150800000Y-69550000D03*
D13*
X47800000Y-50450000D03*
D14*
X191287760Y-99720360D03*
X215163760Y-99720360D03*
D15*
X191287760Y-114960360D03*
X215163760Y-114960360D03*
D16*
X208305760Y-107975360D03*
X198145760Y-107975360D03*
D17*
X199415760Y-105435360D03*
D14*
X203225760Y-107975360D03*
D17*
X205765760Y-102895360D03*
D16*
X217195840Y-107975360D03*
X227355840Y-107975360D03*
D14*
X222275840Y-107975360D03*
D16*
X45745000Y-31775040D03*
X55905000Y-31775040D03*
D17*
X54635000Y-34315040D03*
D14*
X50825000Y-31775040D03*
D17*
X48285000Y-36855040D03*
D18*
X304743750Y-65500000D03*
X306493750Y-65500000D03*
X304743750Y-62000000D03*
X306493750Y-62000000D03*
X306493750Y-70000000D03*
X304743750Y-70000000D03*
X306493750Y-73500000D03*
X304743750Y-73500000D03*
D19*
X302285530Y-100619140D03*
X297285530Y-100619140D03*
D20*
X305385530Y-107619140D03*
X294185530Y-107619140D03*
D19*
X302285530Y-115119140D03*
X299785530Y-115119140D03*
D21*
X297285530Y-115119140D03*
D16*
X26695000Y-107975360D03*
X36855000Y-107975360D03*
D14*
X31775000Y-107975360D03*
D17*
X127183750Y-102895360D03*
D14*
X124643750Y-107975360D03*
D17*
X120833750Y-105435360D03*
D16*
X119563750Y-107975360D03*
X129723750Y-107975360D03*
D15*
X136581750Y-114960360D03*
X112705750Y-114960360D03*
D14*
X136581750Y-99720360D03*
X112705750Y-99720360D03*
D17*
X29235000Y-36855040D03*
D14*
X31775000Y-31775040D03*
D17*
X35585000Y-34315040D03*
D16*
X36855000Y-31775040D03*
X26695000Y-31775040D03*
X65430000Y-50825120D03*
X55270000Y-50825120D03*
D17*
X56540000Y-48285120D03*
D14*
X60350000Y-50825120D03*
D17*
X62890000Y-45745120D03*
X57810000Y-74955200D03*
D14*
X60350000Y-69875200D03*
D17*
X64160000Y-72415200D03*
D16*
X65430000Y-69875200D03*
X55270000Y-69875200D03*
D17*
X72415000Y-83845280D03*
D14*
X69875000Y-88925280D03*
D17*
X66065000Y-86385280D03*
D16*
X64795000Y-88925280D03*
X74955000Y-88925280D03*
X70192500Y-107975360D03*
X60032500Y-107975360D03*
D17*
X61302500Y-105435360D03*
D14*
X65112500Y-107975360D03*
D17*
X67652500Y-102895360D03*
X72415000Y-26695040D03*
D14*
X69875000Y-31775040D03*
D17*
X66065000Y-29235040D03*
D16*
X64795000Y-31775040D03*
X74955000Y-31775040D03*
X84480000Y-50825120D03*
X74320000Y-50825120D03*
D17*
X75590000Y-48285120D03*
D14*
X79400000Y-50825120D03*
D17*
X81940000Y-45745120D03*
X76860000Y-74955200D03*
D14*
X79400000Y-69875200D03*
D17*
X83210000Y-72415200D03*
D16*
X84480000Y-69875200D03*
X74320000Y-69875200D03*
D17*
X91465000Y-83845280D03*
D14*
X88925000Y-88925280D03*
D17*
X85115000Y-86385280D03*
D16*
X83845000Y-88925280D03*
X94005000Y-88925280D03*
D17*
X91465000Y-26695040D03*
D14*
X88925000Y-31775040D03*
D17*
X85115000Y-29235040D03*
D16*
X83845000Y-31775040D03*
X94005000Y-31775040D03*
X103530000Y-50825120D03*
X93370000Y-50825120D03*
D17*
X94640000Y-48285120D03*
D14*
X98450000Y-50825120D03*
D17*
X100990000Y-45745120D03*
X100990000Y-64795200D03*
D14*
X98450000Y-69875200D03*
D17*
X94640000Y-67335200D03*
D16*
X93370000Y-69875200D03*
X103530000Y-69875200D03*
D17*
X110515000Y-83845280D03*
D14*
X107975000Y-88925280D03*
D17*
X104165000Y-86385280D03*
D16*
X102895000Y-88925280D03*
X113055000Y-88925280D03*
D17*
X110515000Y-26695040D03*
D14*
X107975000Y-31775040D03*
D17*
X104165000Y-29235040D03*
D16*
X102895000Y-31775040D03*
X113055000Y-31775040D03*
X122580000Y-50825120D03*
X112420000Y-50825120D03*
D17*
X113690000Y-48285120D03*
D14*
X117500000Y-50825120D03*
D17*
X120040000Y-45745120D03*
X120040000Y-64795200D03*
D14*
X117500000Y-69875200D03*
D17*
X113690000Y-67335200D03*
D16*
X112420000Y-69875200D03*
X122580000Y-69875200D03*
D17*
X129565000Y-83845280D03*
D14*
X127025000Y-88925280D03*
D17*
X123215000Y-86385280D03*
D16*
X121945000Y-88925280D03*
X132105000Y-88925280D03*
D17*
X129565000Y-26695040D03*
D14*
X127025000Y-31775040D03*
D17*
X123215000Y-29235040D03*
D16*
X121945000Y-31775040D03*
X132105000Y-31775040D03*
X141630000Y-50825120D03*
X131470000Y-50825120D03*
D17*
X132740000Y-48285120D03*
D14*
X136550000Y-50825120D03*
D17*
X139090000Y-45745120D03*
X139090000Y-64795200D03*
D14*
X136550000Y-69875200D03*
D17*
X132740000Y-67335200D03*
D16*
X131470000Y-69875200D03*
X141630000Y-69875200D03*
D17*
X148615000Y-83845280D03*
D14*
X146075000Y-88925280D03*
D17*
X142265000Y-86385280D03*
D16*
X140995000Y-88925280D03*
X151155000Y-88925280D03*
X151155000Y-31775040D03*
X140995000Y-31775040D03*
D17*
X142265000Y-29235040D03*
D14*
X146075000Y-31775040D03*
D17*
X148615000Y-26695040D03*
D16*
X160680000Y-50825120D03*
X150520000Y-50825120D03*
D17*
X151790000Y-48285120D03*
D14*
X155600000Y-50825120D03*
D17*
X158140000Y-45745120D03*
X153060000Y-74955200D03*
D14*
X155600000Y-69875200D03*
D17*
X159410000Y-72415200D03*
D16*
X160680000Y-69875200D03*
X150520000Y-69875200D03*
D17*
X167665000Y-83845280D03*
D14*
X165125000Y-88925280D03*
D17*
X161315000Y-86385280D03*
D16*
X160045000Y-88925280D03*
X170205000Y-88925280D03*
D17*
X167665000Y-26695040D03*
D14*
X165125000Y-31775040D03*
D17*
X161315000Y-29235040D03*
D16*
X160045000Y-31775040D03*
X170205000Y-31775040D03*
X179730000Y-50825120D03*
X169570000Y-50825120D03*
D17*
X170840000Y-48285120D03*
D14*
X174650000Y-50825120D03*
D17*
X177190000Y-45745120D03*
D16*
X179730000Y-69875200D03*
X169570000Y-69875200D03*
D17*
X170840000Y-67335200D03*
D14*
X174650000Y-69875200D03*
D17*
X177190000Y-64795200D03*
X186715000Y-83845280D03*
D14*
X184175000Y-88925280D03*
D17*
X180365000Y-86385280D03*
D16*
X179095000Y-88925280D03*
X189255000Y-88925280D03*
X189255000Y-31775040D03*
X179095000Y-31775040D03*
D17*
X180365000Y-29235040D03*
D14*
X184175000Y-31775040D03*
D17*
X186715000Y-26695040D03*
D16*
X198780000Y-50825120D03*
X188620000Y-50825120D03*
D17*
X189890000Y-48285120D03*
D14*
X193700000Y-50825120D03*
D17*
X196240000Y-45745120D03*
D16*
X198780000Y-69875200D03*
X188620000Y-69875200D03*
D17*
X189890000Y-67335200D03*
D14*
X193700000Y-69875200D03*
D17*
X196240000Y-64795200D03*
X205765000Y-83845280D03*
D14*
X203225000Y-88925280D03*
D17*
X199415000Y-86385280D03*
D16*
X198145000Y-88925280D03*
X208305000Y-88925280D03*
D17*
X205765000Y-26695040D03*
D14*
X203225000Y-31775040D03*
D17*
X199415000Y-29235040D03*
D16*
X198145000Y-31775040D03*
X208305000Y-31775040D03*
X217830000Y-50825120D03*
X207670000Y-50825120D03*
D17*
X208940000Y-48285120D03*
D14*
X212750000Y-50825120D03*
D17*
X215290000Y-45745120D03*
D16*
X217830000Y-69875200D03*
X207670000Y-69875200D03*
D17*
X208940000Y-67335200D03*
D14*
X212750000Y-69875200D03*
D17*
X215290000Y-64795200D03*
X224815000Y-83845280D03*
D14*
X222275000Y-88925280D03*
D17*
X218465000Y-86385280D03*
D16*
X217195000Y-88925280D03*
X227355000Y-88925280D03*
X227355000Y-31775040D03*
X217195000Y-31775040D03*
D17*
X218465000Y-29235040D03*
D14*
X222275000Y-31775040D03*
D17*
X224815000Y-26695040D03*
D16*
X236880000Y-50825120D03*
X226720000Y-50825120D03*
D17*
X227990000Y-48285120D03*
D14*
X231800000Y-50825120D03*
D17*
X234340000Y-45745120D03*
D16*
X236880000Y-69875200D03*
X226720000Y-69875200D03*
D17*
X227990000Y-67335200D03*
D14*
X231800000Y-69875200D03*
D17*
X234340000Y-64795200D03*
X243865000Y-26695040D03*
D14*
X241325000Y-31775040D03*
D17*
X237515000Y-29235040D03*
D16*
X236245000Y-31775040D03*
X246405000Y-31775040D03*
D17*
X253390960Y-45745120D03*
D14*
X250850960Y-50825120D03*
D17*
X247040960Y-48285120D03*
D16*
X245770960Y-50825120D03*
X255930960Y-50825120D03*
X265455000Y-31775040D03*
X255295000Y-31775040D03*
D17*
X256565000Y-29235040D03*
D14*
X260375000Y-31775040D03*
D17*
X262915000Y-26695040D03*
D16*
X274981040Y-69875200D03*
X264821040Y-69875200D03*
D17*
X266091040Y-67335200D03*
D14*
X269901040Y-69875200D03*
D17*
X272441040Y-64795200D03*
D16*
X265456000Y-88925280D03*
X255296000Y-88925280D03*
D17*
X256566000Y-86385280D03*
D14*
X260376000Y-88925280D03*
D17*
X262916000Y-83845280D03*
X281965000Y-26695040D03*
D14*
X279425000Y-31775040D03*
D17*
X275615000Y-29235040D03*
D16*
X274345000Y-31775040D03*
X284505000Y-31775040D03*
X303555000Y-31775040D03*
X293395000Y-31775040D03*
D17*
X294665000Y-29235040D03*
D14*
X298475000Y-31775040D03*
D17*
X301015000Y-26695040D03*
D16*
X284506080Y-88925280D03*
X274346080Y-88925280D03*
D17*
X275616080Y-86385280D03*
D14*
X279426080Y-88925280D03*
D17*
X281966080Y-83845280D03*
D16*
X236245920Y-107975360D03*
X246405920Y-107975360D03*
D14*
X241325920Y-107975360D03*
D17*
X272441040Y-45745120D03*
D14*
X269901040Y-50825120D03*
D17*
X266091040Y-48285120D03*
D16*
X264821040Y-50825120D03*
X274981040Y-50825120D03*
X269583560Y-88925280D03*
X279743560Y-88925280D03*
D14*
X274663560Y-88925280D03*
D22*
X274350000Y-107975360D03*
X303550000Y-107975360D03*
D23*
X272370000Y-98800000D03*
X274910000Y-98800000D03*
D24*
X277450000Y-98800000D03*
D16*
X293396160Y-88925280D03*
X303556160Y-88925280D03*
D17*
X302286160Y-91465280D03*
D14*
X298476160Y-88925280D03*
D17*
X295936160Y-94005280D03*
D14*
X50825120Y-107975360D03*
D16*
X45745120Y-107975360D03*
X55905120Y-107975360D03*
X58286380Y-107975360D03*
X48126380Y-107975360D03*
D14*
X53206380Y-107975360D03*
D17*
X41458750Y-102895360D03*
D14*
X38918750Y-107975360D03*
D17*
X35108750Y-105435360D03*
D16*
X33838750Y-107975360D03*
X43998750Y-107975360D03*
X31457500Y-107975360D03*
X41617500Y-107975360D03*
D14*
X36537500Y-107975360D03*
D16*
X29076250Y-107975360D03*
X39236250Y-107975360D03*
D14*
X34156250Y-107975360D03*
X67493940Y-107975360D03*
D16*
X72573940Y-107975360D03*
X62413940Y-107975360D03*
X69557720Y-107975360D03*
X79717720Y-107975360D03*
D14*
X74637720Y-107975360D03*
D16*
X71938980Y-107975360D03*
X82098980Y-107975360D03*
D14*
X77018980Y-107975360D03*
D17*
X91465280Y-102895360D03*
D14*
X88925280Y-107975360D03*
D17*
X85115280Y-105435360D03*
D16*
X83845280Y-107975360D03*
X94005280Y-107975360D03*
X86226540Y-107975360D03*
X96386540Y-107975360D03*
D14*
X91306540Y-107975360D03*
X93687800Y-107975360D03*
D16*
X98767800Y-107975360D03*
X88607800Y-107975360D03*
D17*
X167665600Y-102895360D03*
D14*
X165125600Y-107975360D03*
D17*
X161315600Y-105435360D03*
D16*
X160045600Y-107975360D03*
X170205600Y-107975360D03*
D15*
X177063600Y-114960360D03*
X153187600Y-114960360D03*
D14*
X177063600Y-99720360D03*
X153187600Y-99720360D03*
D16*
X150520560Y-107975360D03*
X160680560Y-107975360D03*
D14*
X155600560Y-107975360D03*
D16*
X191001980Y-107975360D03*
X201161980Y-107975360D03*
D14*
X196081980Y-107975360D03*
D16*
X193383240Y-107975360D03*
X203543240Y-107975360D03*
D14*
X198463240Y-107975360D03*
X200844500Y-107975360D03*
D16*
X205924500Y-107975360D03*
X195764500Y-107975360D03*
X214814580Y-107975360D03*
X224974580Y-107975360D03*
D14*
X219894580Y-107975360D03*
X224657100Y-107975360D03*
D16*
X229737100Y-107975360D03*
X219577100Y-107975360D03*
D14*
X215132060Y-107975360D03*
D16*
X220212060Y-107975360D03*
X210052060Y-107975360D03*
X239262140Y-107975360D03*
X229102140Y-107975360D03*
D17*
X230372140Y-105435360D03*
D14*
X234182140Y-107975360D03*
D17*
X236722140Y-102895360D03*
D14*
X238944660Y-107975360D03*
D16*
X244024660Y-107975360D03*
X233864660Y-107975360D03*
D14*
X246088440Y-107975360D03*
D16*
X251168440Y-107975360D03*
X241008440Y-107975360D03*
D17*
X260534740Y-102895360D03*
D14*
X257994740Y-107975360D03*
D17*
X254184740Y-105435360D03*
D16*
X252914740Y-107975360D03*
X263074740Y-107975360D03*
X248152220Y-107975360D03*
X258312220Y-107975360D03*
D14*
X253232220Y-107975360D03*
D17*
X281966080Y-102895360D03*
D14*
X279426080Y-107975360D03*
D17*
X275616080Y-105435360D03*
D16*
X274346080Y-107975360D03*
X284506080Y-107975360D03*
D14*
X112744440Y-99720360D03*
X212744240Y-99720360D03*
D15*
X112744440Y-114960360D03*
X212744240Y-114960360D03*
D16*
X157664340Y-107975360D03*
X167824340Y-107975360D03*
D14*
X162744340Y-107975360D03*
X155600610Y-99720360D03*
X179413110Y-99720360D03*
D15*
X155600610Y-114960360D03*
X179413110Y-114960360D03*
D16*
X162426860Y-107975360D03*
X172586860Y-107975360D03*
D14*
X167506860Y-107975360D03*
D17*
X43840080Y-83845280D03*
D14*
X41300080Y-88925280D03*
D17*
X37490080Y-86385280D03*
D16*
X36220080Y-88925280D03*
X46380080Y-88925280D03*
D15*
X53238080Y-81940280D03*
X29362080Y-81940280D03*
D14*
X53238080Y-97180280D03*
X29362080Y-97180280D03*
D17*
X293872380Y-64795200D03*
D14*
X291332380Y-69875200D03*
D17*
X287522380Y-67335200D03*
D16*
X286252380Y-69875200D03*
X296412380Y-69875200D03*
D14*
X274662500Y-61620200D03*
X250850000Y-61620200D03*
D15*
X274662500Y-76860200D03*
X250850000Y-76860200D03*
D16*
X267836250Y-69875200D03*
X257676250Y-69875200D03*
D14*
X262756250Y-69875200D03*
D16*
X255930000Y-69875200D03*
X245770000Y-69875200D03*
D17*
X247040000Y-67335200D03*
D14*
X250850000Y-69875200D03*
D17*
X253390000Y-64795200D03*
D16*
X269583560Y-50825120D03*
X279743560Y-50825120D03*
D14*
X274663560Y-50825120D03*
X267519780Y-88925280D03*
D16*
X262439780Y-88925280D03*
X272599780Y-88925280D03*
X288633640Y-69875200D03*
X298793640Y-69875200D03*
D14*
X293713640Y-69875200D03*
D17*
X291173640Y-55905120D03*
D14*
X293713640Y-50825120D03*
D17*
X297523640Y-53365120D03*
D16*
X298793640Y-50825120D03*
X288633640Y-50825120D03*
X291014900Y-69875200D03*
X301174900Y-69875200D03*
D14*
X296094900Y-69875200D03*
X293713640Y-88925280D03*
D16*
X288633640Y-88925280D03*
X298793640Y-88925280D03*
D14*
X296094900Y-88925280D03*
D16*
X291014900Y-88925280D03*
X301174900Y-88925280D03*
D17*
X243865920Y-83845280D03*
D14*
X241325920Y-88925280D03*
D17*
X237515920Y-86385280D03*
D16*
X236245920Y-88925280D03*
X246405920Y-88925280D03*
X243389700Y-88925280D03*
X253549700Y-88925280D03*
D14*
X248469700Y-88925280D03*
D16*
X284506080Y-50825120D03*
X274346080Y-50825120D03*
D14*
X279426080Y-50825120D03*
D24*
X75500000Y-42000000D03*
D23*
X72960000Y-42000000D03*
X70420000Y-42000000D03*
D24*
X306000000Y-49000000D03*
D17*
X39077500Y-45745120D03*
D14*
X36537500Y-50825120D03*
D17*
X32727500Y-48285120D03*
D16*
X31457500Y-50825120D03*
X41617500Y-50825120D03*
X41617500Y-69875200D03*
X31457500Y-69875200D03*
D17*
X32727500Y-67335200D03*
D14*
X36537500Y-69875200D03*
D17*
X39077500Y-64795200D03*
D25*
X44450000Y-23850000D03*
X37150000Y-23850000D03*
D26*
X42400000Y-29150000D03*
X41600000Y-27450000D03*
X40800000Y-29150000D03*
X40000000Y-27450000D03*
X39200000Y-29150000D03*
D17*
X253073480Y-55905120D03*
D14*
X255613480Y-50825120D03*
D17*
X259423480Y-53365120D03*
D16*
X260693480Y-50825120D03*
X250533480Y-50825120D03*
D17*
X29235040Y-94005280D03*
D14*
X31775040Y-88925280D03*
D17*
X35585040Y-91465280D03*
D16*
X36855040Y-88925280D03*
X26695040Y-88925280D03*
D17*
X279266250Y-74955200D03*
D14*
X281806250Y-69875200D03*
D17*
X285616250Y-72415200D03*
D16*
X286886250Y-69875200D03*
X276726250Y-69875200D03*
D15*
X269868250Y-76860200D03*
X293744250Y-76860200D03*
D14*
X269868250Y-61620200D03*
X293744250Y-61620200D03*
D17*
X286410000Y-36855040D03*
D14*
X288950000Y-31775040D03*
D17*
X292760000Y-34315040D03*
D16*
X294030000Y-31775040D03*
X283870000Y-31775040D03*
D15*
X277012000Y-24790040D03*
X300888000Y-24790040D03*
D14*
X277012000Y-40030040D03*
X300888000Y-40030040D03*
D17*
X301016160Y-45745120D03*
D14*
X298476160Y-50825120D03*
D17*
X294666160Y-48285120D03*
D16*
X293396160Y-50825120D03*
X303556160Y-50825120D03*
D17*
X48285120Y-94005280D03*
D14*
X50825120Y-88925280D03*
D17*
X54635120Y-91465280D03*
D16*
X55905120Y-88925280D03*
X45745120Y-88925280D03*
D17*
X124485440Y-113055360D03*
D14*
X127025440Y-107975360D03*
D17*
X130835440Y-110515360D03*
D16*
X132105440Y-107975360D03*
X121945440Y-107975360D03*
D15*
X115087440Y-114960360D03*
X138963440Y-114960360D03*
D14*
X115087440Y-99720360D03*
X138963440Y-99720360D03*
D17*
X150996780Y-102895360D03*
D14*
X148456780Y-107975360D03*
D17*
X144646780Y-105435360D03*
D16*
X143376780Y-107975360D03*
X153536780Y-107975360D03*
D15*
X198456680Y-114960360D03*
X98456880Y-114960360D03*
D14*
X198456680Y-99720360D03*
X98456880Y-99720360D03*
D17*
X186715680Y-102895360D03*
D14*
X184175680Y-107975360D03*
D17*
X180365680Y-105435360D03*
D16*
X179095680Y-107975360D03*
X189255680Y-107975360D03*
D15*
X196113680Y-114960360D03*
X172237680Y-114960360D03*
D14*
X196113680Y-99720360D03*
X172237680Y-99720360D03*
D17*
X257836000Y-113055360D03*
D14*
X260376000Y-107975360D03*
D17*
X264186000Y-110515360D03*
D16*
X265456000Y-107975360D03*
X255296000Y-107975360D03*
D22*
X255300000Y-107975400D03*
X244025000Y-107975400D03*
X284500000Y-107975040D03*
X263075000Y-107975400D03*
X26700000Y-107975040D03*
X45750000Y-107975040D03*
D16*
X298476160Y-113055400D03*
X298476160Y-102895400D03*
D14*
X298476160Y-107975400D03*
M02*
