G04 #@! TF.GenerationSoftware,KiCad,Pcbnew,(5.1.9-0-10_14)*
G04 #@! TF.CreationDate,2021-01-10T18:11:49+09:00*
G04 #@! TF.ProjectId,Jones,4a6f6e65-732e-46b6-9963-61645f706362,v.0.3.2*
G04 #@! TF.SameCoordinates,Original*
G04 #@! TF.FileFunction,Soldermask,Top*
G04 #@! TF.FilePolarity,Negative*
%FSLAX46Y46*%
G04 Gerber Fmt 4.6, Leading zero omitted, Abs format (unit mm)*
G04 Created by KiCad (PCBNEW (5.1.9-0-10_14)) date 2021-01-10 18:11:49*
%MOMM*%
%LPD*%
G01*
G04 APERTURE LIST*
%ADD10C,1.500000*%
%ADD11O,5.600000X2.800000*%
%ADD12C,1.400000*%
%ADD13O,7.400240X5.400000*%
%ADD14C,5.400000*%
%ADD15C,3.400000*%
%ADD16C,4.387800*%
%ADD17C,2.150000*%
%ADD18C,2.400000*%
%ADD19C,1.100000*%
%ADD20O,1.300000X2.800000*%
%ADD21O,1.300000X2.100000*%
%ADD22C,3.448000*%
%ADD23O,1.400000X1.400000*%
%ADD24C,2.000000*%
G04 APERTURE END LIST*
D10*
X28550000Y-79050000D02*
G75*
G03*
X26400000Y-76900000I-2150000J0D01*
G01*
X28550000Y-79050000D02*
G75*
G02*
X26400000Y-81200000I-2150000J0D01*
G01*
X301650000Y-79050000D02*
G75*
G02*
X303800000Y-76900000I2150000J0D01*
G01*
X301650000Y-79050000D02*
G75*
G03*
X303800000Y-81200000I2150000J0D01*
G01*
X22600000Y-76900000D02*
X26400000Y-76900000D01*
X22650000Y-81200000D02*
X26450000Y-81200000D01*
X307600000Y-81200000D02*
X303800000Y-81200000D01*
X307550000Y-76900000D02*
X303750000Y-76900000D01*
D11*
X282650000Y-50450000D03*
D12*
X24357965Y-81250000D03*
X24350000Y-76900000D03*
X27950000Y-77550000D03*
X26400000Y-81250000D03*
X26400000Y-76900000D03*
X28550000Y-79050000D03*
X152000000Y-71450000D03*
X149600000Y-71450000D03*
X150800000Y-71450000D03*
X149600000Y-67700000D03*
X152000000Y-67700000D03*
X150800000Y-67700000D03*
X214300000Y-109600000D03*
X211900000Y-109600000D03*
X211950000Y-105900000D03*
X214350000Y-105900000D03*
X213100000Y-109600000D03*
X213150000Y-105900000D03*
X49050000Y-51800000D03*
X46450000Y-51750000D03*
X49050000Y-49100000D03*
X46450000Y-49100000D03*
X47800000Y-52350000D03*
X49700000Y-50450000D03*
X45900000Y-50450000D03*
X47800000Y-48550000D03*
D13*
X213100000Y-107750000D03*
X150800000Y-69550000D03*
D14*
X47800000Y-50450000D03*
D12*
X27950000Y-80550000D03*
X302250000Y-77550000D03*
X301650000Y-79050000D03*
X303800000Y-81200000D03*
X303800000Y-76850000D03*
X302250000Y-80550000D03*
X305850000Y-81200000D03*
X305842035Y-76850000D03*
D15*
X139090000Y-64795200D03*
D16*
X136550000Y-69875200D03*
D15*
X132740000Y-67335200D03*
D17*
X131470000Y-69875200D03*
X141630000Y-69875200D03*
X265454840Y-31775040D03*
X255294840Y-31775040D03*
D15*
X256564840Y-29235040D03*
D16*
X260374840Y-31775040D03*
D15*
X262914840Y-26695040D03*
X281966080Y-26695080D03*
D16*
X279426080Y-31775080D03*
D15*
X275616080Y-29235080D03*
D17*
X274346080Y-31775080D03*
X284506080Y-31775080D03*
D15*
X120040000Y-64795200D03*
D16*
X117500000Y-69875200D03*
D15*
X113690000Y-67335200D03*
D17*
X112420000Y-69875200D03*
X122580000Y-69875200D03*
X65430000Y-50825120D03*
X55270000Y-50825120D03*
D15*
X56540000Y-48285120D03*
D16*
X60350000Y-50825120D03*
D15*
X62890000Y-45745120D03*
X62890000Y-64795200D03*
D16*
X60350000Y-69875200D03*
D15*
X56540000Y-67335200D03*
D17*
X55270000Y-69875200D03*
X65430000Y-69875200D03*
X179730640Y-69875200D03*
X169570640Y-69875200D03*
D15*
X170840640Y-67335200D03*
D16*
X174650640Y-69875200D03*
D15*
X177190640Y-64795200D03*
X39077500Y-45745120D03*
D16*
X36537500Y-50825120D03*
D15*
X32727500Y-48285120D03*
D17*
X31457500Y-50825120D03*
X41617500Y-50825120D03*
G36*
G01*
X299993580Y-99265550D02*
X301993580Y-99265550D01*
G75*
G02*
X302193580Y-99465550I0J-200000D01*
G01*
X302193580Y-101465550D01*
G75*
G02*
X301993580Y-101665550I-200000J0D01*
G01*
X299993580Y-101665550D01*
G75*
G02*
X299793580Y-101465550I0J200000D01*
G01*
X299793580Y-99465550D01*
G75*
G02*
X299993580Y-99265550I200000J0D01*
G01*
G37*
D18*
X298493580Y-100465550D03*
X295993580Y-100465550D03*
G36*
G01*
X303093580Y-106165550D02*
X305093580Y-106165550D01*
G75*
G02*
X305293580Y-106365550I0J-200000D01*
G01*
X305293580Y-109565550D01*
G75*
G02*
X305093580Y-109765550I-200000J0D01*
G01*
X303093580Y-109765550D01*
G75*
G02*
X302893580Y-109565550I0J200000D01*
G01*
X302893580Y-106365550D01*
G75*
G02*
X303093580Y-106165550I200000J0D01*
G01*
G37*
G36*
G01*
X291893580Y-106165550D02*
X293893580Y-106165550D01*
G75*
G02*
X294093580Y-106365550I0J-200000D01*
G01*
X294093580Y-109565550D01*
G75*
G02*
X293893580Y-109765550I-200000J0D01*
G01*
X291893580Y-109765550D01*
G75*
G02*
X291693580Y-109565550I0J200000D01*
G01*
X291693580Y-106365550D01*
G75*
G02*
X291893580Y-106165550I200000J0D01*
G01*
G37*
X300993580Y-114965550D03*
X295993580Y-114965550D03*
D17*
X45745000Y-31775040D03*
X55905000Y-31775040D03*
D15*
X54635000Y-34315040D03*
D16*
X50825000Y-31775040D03*
D15*
X48285000Y-36855040D03*
D17*
X26695000Y-31775040D03*
X36855000Y-31775040D03*
D15*
X35585000Y-34315040D03*
D16*
X31775000Y-31775040D03*
D15*
X29235000Y-36855040D03*
X72415000Y-83845280D03*
D16*
X69875000Y-88925280D03*
D15*
X66065000Y-86385280D03*
D17*
X64795000Y-88925280D03*
X74955000Y-88925280D03*
D15*
X72415000Y-26695040D03*
D16*
X69875000Y-31775040D03*
D15*
X66065000Y-29235040D03*
D17*
X64795000Y-31775040D03*
X74955000Y-31775040D03*
X84480000Y-50825120D03*
X74320000Y-50825120D03*
D15*
X75590000Y-48285120D03*
D16*
X79400000Y-50825120D03*
D15*
X81940000Y-45745120D03*
X81940000Y-64795200D03*
D16*
X79400000Y-69875200D03*
D15*
X75590000Y-67335200D03*
D17*
X74320000Y-69875200D03*
X84480000Y-69875200D03*
D15*
X91465000Y-83845280D03*
D16*
X88925000Y-88925280D03*
D15*
X85115000Y-86385280D03*
D17*
X83845000Y-88925280D03*
X94005000Y-88925280D03*
D15*
X91465000Y-26695040D03*
D16*
X88925000Y-31775040D03*
D15*
X85115000Y-29235040D03*
D17*
X83845000Y-31775040D03*
X94005000Y-31775040D03*
X103530000Y-50825120D03*
X93370000Y-50825120D03*
D15*
X94640000Y-48285120D03*
D16*
X98450000Y-50825120D03*
D15*
X100990000Y-45745120D03*
X100990000Y-64795200D03*
D16*
X98450000Y-69875200D03*
D15*
X94640000Y-67335200D03*
D17*
X93370000Y-69875200D03*
X103530000Y-69875200D03*
D15*
X110515000Y-83845280D03*
D16*
X107975000Y-88925280D03*
D15*
X104165000Y-86385280D03*
D17*
X102895000Y-88925280D03*
X113055000Y-88925280D03*
D15*
X110515000Y-26695040D03*
D16*
X107975000Y-31775040D03*
D15*
X104165000Y-29235040D03*
D17*
X102895000Y-31775040D03*
X113055000Y-31775040D03*
X122580000Y-50825120D03*
X112420000Y-50825120D03*
D15*
X113690000Y-48285120D03*
D16*
X117500000Y-50825120D03*
D15*
X120040000Y-45745120D03*
X129565000Y-83845280D03*
D16*
X127025000Y-88925280D03*
D15*
X123215000Y-86385280D03*
D17*
X121945000Y-88925280D03*
X132105000Y-88925280D03*
D15*
X129565000Y-26695040D03*
D16*
X127025000Y-31775040D03*
D15*
X123215000Y-29235040D03*
D17*
X121945000Y-31775040D03*
X132105000Y-31775040D03*
X141630000Y-50825120D03*
X131470000Y-50825120D03*
D15*
X132740000Y-48285120D03*
D16*
X136550000Y-50825120D03*
D15*
X139090000Y-45745120D03*
X148615000Y-83845280D03*
D16*
X146075000Y-88925280D03*
D15*
X142265000Y-86385280D03*
D17*
X140995000Y-88925280D03*
X151155000Y-88925280D03*
X151155000Y-31775040D03*
X140995000Y-31775040D03*
D15*
X142265000Y-29235040D03*
D16*
X146075000Y-31775040D03*
D15*
X148615000Y-26695040D03*
D17*
X217830800Y-50825160D03*
X207670800Y-50825160D03*
D15*
X208940800Y-48285160D03*
D16*
X212750800Y-50825160D03*
D15*
X215290800Y-45745160D03*
X215290800Y-64795240D03*
D16*
X212750800Y-69875240D03*
D15*
X208940800Y-67335240D03*
D17*
X207670800Y-69875240D03*
X217830800Y-69875240D03*
D15*
X224815840Y-83845320D03*
D16*
X222275840Y-88925320D03*
D15*
X218465840Y-86385320D03*
D17*
X217195840Y-88925320D03*
X227355840Y-88925320D03*
X236880880Y-50825160D03*
X226720880Y-50825160D03*
D15*
X227990880Y-48285160D03*
D16*
X231800880Y-50825160D03*
D15*
X234340880Y-45745160D03*
D17*
X236880880Y-69875240D03*
X226720880Y-69875240D03*
D15*
X227990880Y-67335240D03*
D16*
X231800880Y-69875240D03*
D15*
X234340880Y-64795240D03*
X243865920Y-83845320D03*
D16*
X241325920Y-88925320D03*
D15*
X237515920Y-86385320D03*
D17*
X236245920Y-88925320D03*
X246405920Y-88925320D03*
X303556160Y-31775080D03*
X293396160Y-31775080D03*
D15*
X294666160Y-29235080D03*
D16*
X298476160Y-31775080D03*
D15*
X301016160Y-26695080D03*
D17*
X160680560Y-50825120D03*
X150520560Y-50825120D03*
D15*
X151790560Y-48285120D03*
D16*
X155600560Y-50825120D03*
D15*
X158140560Y-45745120D03*
X167665600Y-83845280D03*
D16*
X165125600Y-88925280D03*
D15*
X161315600Y-86385280D03*
D17*
X160045600Y-88925280D03*
X170205600Y-88925280D03*
D15*
X167665600Y-26695080D03*
D16*
X165125600Y-31775080D03*
D15*
X161315600Y-29235080D03*
D17*
X160045600Y-31775080D03*
X170205600Y-31775080D03*
X179730640Y-50825160D03*
X169570640Y-50825160D03*
D15*
X170840640Y-48285160D03*
D16*
X174650640Y-50825160D03*
D15*
X177190640Y-45745160D03*
X186715680Y-83845280D03*
D16*
X184175680Y-88925280D03*
D15*
X180365680Y-86385280D03*
D17*
X179095680Y-88925280D03*
X189255680Y-88925280D03*
X189255680Y-31775040D03*
X179095680Y-31775040D03*
D15*
X180365680Y-29235040D03*
D16*
X184175680Y-31775040D03*
D15*
X186715680Y-26695040D03*
D17*
X198780720Y-50825160D03*
X188620720Y-50825160D03*
D15*
X189890720Y-48285160D03*
D16*
X193700720Y-50825160D03*
D15*
X196240720Y-45745160D03*
D17*
X198780720Y-69875240D03*
X188620720Y-69875240D03*
D15*
X189890720Y-67335240D03*
D16*
X193700720Y-69875240D03*
D15*
X196240720Y-64795240D03*
X205765760Y-26695040D03*
D16*
X203225760Y-31775040D03*
D15*
X199415760Y-29235040D03*
D17*
X198145760Y-31775040D03*
X208305760Y-31775040D03*
X227354840Y-31775040D03*
X217194840Y-31775040D03*
D15*
X218464840Y-29235040D03*
D16*
X222274840Y-31775040D03*
D15*
X224814840Y-26695040D03*
X243864840Y-26695040D03*
D16*
X241324840Y-31775040D03*
D15*
X237514840Y-29235040D03*
D17*
X236244840Y-31775040D03*
X246404840Y-31775040D03*
X284506080Y-88925320D03*
X274346080Y-88925320D03*
D15*
X275616080Y-86385320D03*
D16*
X279426080Y-88925320D03*
D15*
X281966080Y-83845320D03*
D17*
X293396160Y-88925320D03*
X303556160Y-88925320D03*
D15*
X302286160Y-91465320D03*
D16*
X298476160Y-88925320D03*
D15*
X295936160Y-94005320D03*
X281966080Y-102895360D03*
D16*
X279426080Y-107975360D03*
D15*
X275616080Y-105435360D03*
D17*
X274346080Y-107975360D03*
X284506080Y-107975360D03*
D15*
X205765760Y-83845320D03*
D16*
X203225760Y-88925320D03*
D15*
X199415760Y-86385320D03*
D17*
X198145760Y-88925320D03*
X208305760Y-88925320D03*
X31457500Y-69875200D03*
X41617500Y-69875200D03*
D15*
X40347500Y-72415200D03*
D16*
X36537500Y-69875200D03*
D15*
X33997500Y-74955200D03*
X258153480Y-45745160D03*
D16*
X255613480Y-50825160D03*
D15*
X251803480Y-48285160D03*
D17*
X250533480Y-50825160D03*
X260693480Y-50825160D03*
D15*
X262916000Y-102895360D03*
D16*
X260376000Y-107975360D03*
D15*
X256566000Y-105435360D03*
D17*
X255296000Y-107975360D03*
X265456000Y-107975360D03*
G36*
G01*
X50650000Y-91550040D02*
X50650000Y-88150040D01*
G75*
G02*
X50850000Y-87950040I200000J0D01*
G01*
X52150000Y-87950040D01*
G75*
G02*
X52350000Y-88150040I0J-200000D01*
G01*
X52350000Y-91550040D01*
G75*
G02*
X52150000Y-91750040I-200000J0D01*
G01*
X50850000Y-91750040D01*
G75*
G02*
X50650000Y-91550040I0J200000D01*
G01*
G37*
G36*
G01*
X59350000Y-91550040D02*
X59350000Y-88150040D01*
G75*
G02*
X59550000Y-87950040I200000J0D01*
G01*
X60850000Y-87950040D01*
G75*
G02*
X61050000Y-88150040I0J-200000D01*
G01*
X61050000Y-91550040D01*
G75*
G02*
X60850000Y-91750040I-200000J0D01*
G01*
X59550000Y-91750040D01*
G75*
G02*
X59350000Y-91550040I0J200000D01*
G01*
G37*
X298793640Y-50825160D03*
X288633640Y-50825160D03*
D15*
X289903640Y-48285160D03*
D16*
X293713640Y-50825160D03*
D15*
X296253640Y-45745160D03*
G36*
G01*
X33271347Y-99252828D02*
X35271347Y-99252828D01*
G75*
G02*
X35471347Y-99452828I0J-200000D01*
G01*
X35471347Y-101452828D01*
G75*
G02*
X35271347Y-101652828I-200000J0D01*
G01*
X33271347Y-101652828D01*
G75*
G02*
X33071347Y-101452828I0J200000D01*
G01*
X33071347Y-99452828D01*
G75*
G02*
X33271347Y-99252828I200000J0D01*
G01*
G37*
D18*
X31771347Y-100452828D03*
X29271347Y-100452828D03*
G36*
G01*
X36371347Y-106152828D02*
X38371347Y-106152828D01*
G75*
G02*
X38571347Y-106352828I0J-200000D01*
G01*
X38571347Y-109552828D01*
G75*
G02*
X38371347Y-109752828I-200000J0D01*
G01*
X36371347Y-109752828D01*
G75*
G02*
X36171347Y-109552828I0J200000D01*
G01*
X36171347Y-106352828D01*
G75*
G02*
X36371347Y-106152828I200000J0D01*
G01*
G37*
G36*
G01*
X25171347Y-106152828D02*
X27171347Y-106152828D01*
G75*
G02*
X27371347Y-106352828I0J-200000D01*
G01*
X27371347Y-109552828D01*
G75*
G02*
X27171347Y-109752828I-200000J0D01*
G01*
X25171347Y-109752828D01*
G75*
G02*
X24971347Y-109552828I0J200000D01*
G01*
X24971347Y-106352828D01*
G75*
G02*
X25171347Y-106152828I200000J0D01*
G01*
G37*
X34271347Y-114952828D03*
X29271347Y-114952828D03*
D19*
X37801552Y-28187233D03*
X38651552Y-28187233D03*
X39501552Y-28187233D03*
X40351552Y-28187233D03*
X41201552Y-28187233D03*
X42051552Y-28187233D03*
X42901552Y-28187233D03*
X43751552Y-28187233D03*
X38651552Y-26837233D03*
X40351552Y-26837233D03*
X39501552Y-26837233D03*
X37801552Y-26837233D03*
X42051552Y-26837233D03*
X42901552Y-26837233D03*
X43751552Y-26837233D03*
X41201552Y-26837233D03*
D20*
X36451552Y-27207233D03*
X45101552Y-27207233D03*
D21*
X36451552Y-23827233D03*
X45101552Y-23827233D03*
D17*
X298793640Y-69875240D03*
X288633640Y-69875240D03*
D15*
X289903640Y-67335240D03*
D16*
X293713640Y-69875240D03*
D15*
X296253640Y-64795240D03*
X277203560Y-45745160D03*
D16*
X274663560Y-50825160D03*
D15*
X270853560Y-48285160D03*
D17*
X269583560Y-50825160D03*
X279743560Y-50825160D03*
X293396160Y-50825160D03*
X303556160Y-50825160D03*
D15*
X302286160Y-53365160D03*
D16*
X298476160Y-50825160D03*
D15*
X295936160Y-55905160D03*
D17*
X293396160Y-69875240D03*
X303556160Y-69875240D03*
D15*
X302286160Y-72415240D03*
D16*
X298476160Y-69875240D03*
D15*
X295936160Y-74955240D03*
D17*
X101149060Y-107975400D03*
X90989060Y-107975400D03*
D15*
X92259060Y-105435400D03*
D16*
X96069060Y-107975400D03*
D15*
X98609060Y-102895400D03*
X41458820Y-64795240D03*
D16*
X38918820Y-69875240D03*
D15*
X35108820Y-67335240D03*
D17*
X33838820Y-69875240D03*
X43998820Y-69875240D03*
X250533480Y-69875240D03*
X260693480Y-69875240D03*
D16*
X255613480Y-69875240D03*
X293713640Y-88925320D03*
D17*
X298793640Y-88925320D03*
X288633640Y-88925320D03*
X281489860Y-69875240D03*
X291649860Y-69875240D03*
D16*
X286569860Y-69875240D03*
D17*
X71938980Y-107975400D03*
X82098980Y-107975400D03*
D15*
X80828980Y-110515400D03*
D16*
X77018980Y-107975400D03*
D15*
X74478980Y-113055400D03*
D17*
X50507640Y-107975400D03*
X60667640Y-107975400D03*
D15*
X59397640Y-110515400D03*
D16*
X55587640Y-107975400D03*
D15*
X53047640Y-113055400D03*
D17*
X77336460Y-107975400D03*
X67176460Y-107975400D03*
D15*
X68446460Y-105435400D03*
D16*
X72256460Y-107975400D03*
D15*
X74796460Y-102895400D03*
X46221340Y-83845320D03*
D16*
X43681340Y-88925320D03*
D15*
X39871340Y-86385320D03*
D17*
X38601340Y-88925320D03*
X48761340Y-88925320D03*
D15*
X243865920Y-102895400D03*
D16*
X241325920Y-107975400D03*
D15*
X237515920Y-105435400D03*
D17*
X236245920Y-107975400D03*
X246405920Y-107975400D03*
X88607800Y-107975400D03*
X98767800Y-107975400D03*
D15*
X97497800Y-110515400D03*
D16*
X93687800Y-107975400D03*
D15*
X91147800Y-113055400D03*
X198621980Y-102895400D03*
D16*
X196081980Y-107975400D03*
D15*
X192271980Y-105435400D03*
D17*
X191001980Y-107975400D03*
X201161980Y-107975400D03*
D15*
X222434580Y-102895400D03*
D16*
X219894580Y-107975400D03*
D15*
X216084580Y-105435400D03*
D17*
X214814580Y-107975400D03*
X224974580Y-107975400D03*
X270218520Y-88925320D03*
X260058520Y-88925320D03*
D16*
X265138520Y-88925320D03*
D15*
X264979780Y-94005320D03*
D16*
X267519780Y-88925320D03*
D15*
X271329780Y-91465320D03*
D17*
X272599780Y-88925320D03*
X262439780Y-88925320D03*
D15*
X262916000Y-83845320D03*
D16*
X260376000Y-88925320D03*
D15*
X256566000Y-86385320D03*
D17*
X255296000Y-88925320D03*
X265456000Y-88925320D03*
D15*
X167665600Y-102895400D03*
D16*
X165125600Y-107975400D03*
D15*
X161315600Y-105435400D03*
D17*
X160045600Y-107975400D03*
X170205600Y-107975400D03*
D22*
X177063600Y-114960400D03*
X153187600Y-114960400D03*
D16*
X177063600Y-99720400D03*
X153187600Y-99720400D03*
D15*
X150996780Y-102895400D03*
D16*
X148456780Y-107975400D03*
D15*
X144646780Y-105435400D03*
D17*
X143376780Y-107975400D03*
X153536780Y-107975400D03*
D22*
X198456680Y-114960400D03*
X98456880Y-114960400D03*
D16*
X198456680Y-99720400D03*
X98456880Y-99720400D03*
D15*
X53365120Y-102895400D03*
D16*
X50825120Y-107975400D03*
D15*
X47015120Y-105435400D03*
D17*
X45745120Y-107975400D03*
X55905120Y-107975400D03*
D15*
X38760080Y-94005320D03*
D16*
X41300080Y-88925320D03*
D15*
X45110080Y-91465320D03*
D17*
X46380080Y-88925320D03*
X36220080Y-88925320D03*
D22*
X29362080Y-81940320D03*
X53238080Y-81940320D03*
D16*
X29362080Y-97180320D03*
X53238080Y-97180320D03*
D17*
X29076300Y-107975400D03*
X39236300Y-107975400D03*
D16*
X34156300Y-107975400D03*
D15*
X122104180Y-113055400D03*
D16*
X124644180Y-107975400D03*
D15*
X128454180Y-110515400D03*
D17*
X129724180Y-107975400D03*
X119564180Y-107975400D03*
D22*
X112706180Y-114960400D03*
X136582180Y-114960400D03*
D16*
X112706180Y-99720400D03*
X136582180Y-99720400D03*
D15*
X129565440Y-102895400D03*
D16*
X127025440Y-107975400D03*
D15*
X123215440Y-105435400D03*
D17*
X121945440Y-107975400D03*
X132105440Y-107975400D03*
D22*
X138963440Y-114960400D03*
X115087440Y-114960400D03*
D16*
X138963440Y-99720400D03*
X115087440Y-99720400D03*
D15*
X250692220Y-65430200D03*
D16*
X253232220Y-60350200D03*
D15*
X257042220Y-62890200D03*
D17*
X258312220Y-60350200D03*
X248152220Y-60350200D03*
D15*
X153060560Y-74955240D03*
D16*
X155600560Y-69875240D03*
D15*
X159410560Y-72415240D03*
D17*
X160680560Y-69875240D03*
X150520560Y-69875240D03*
X160680560Y-69875240D03*
X150520560Y-69875240D03*
D16*
X155600560Y-69875240D03*
D15*
X265297260Y-64795240D03*
D16*
X262757260Y-69875240D03*
D15*
X258947260Y-67335240D03*
D17*
X257677260Y-69875240D03*
X267837260Y-69875240D03*
D22*
X274695260Y-76860240D03*
X250819260Y-76860240D03*
D16*
X274695260Y-61620240D03*
X250819260Y-61620240D03*
D15*
X298634900Y-83845320D03*
D16*
X296094900Y-88925320D03*
D15*
X292284900Y-86385320D03*
D17*
X291014900Y-88925320D03*
X301174900Y-88925320D03*
D15*
X217354580Y-113055400D03*
D16*
X219894580Y-107975400D03*
D15*
X223704580Y-110515400D03*
D17*
X224974580Y-107975400D03*
X214814580Y-107975400D03*
D16*
X274663560Y-69875240D03*
D17*
X269583560Y-69875240D03*
X279743560Y-69875240D03*
D15*
X276886080Y-74955240D03*
D16*
X279426080Y-69875240D03*
D15*
X283236080Y-72415240D03*
D17*
X284506080Y-69875240D03*
X274346080Y-69875240D03*
X248152220Y-69875240D03*
X258312220Y-69875240D03*
D16*
X253232220Y-69875240D03*
D22*
X246247220Y-48412200D03*
X246247220Y-72288200D03*
D16*
X261487220Y-48412200D03*
X261487220Y-72288200D03*
G36*
G01*
X272950000Y-42050000D02*
X271950000Y-42050000D01*
G75*
G02*
X271750000Y-41850000I0J200000D01*
G01*
X271750000Y-40850000D01*
G75*
G02*
X271950000Y-40650000I200000J0D01*
G01*
X272950000Y-40650000D01*
G75*
G02*
X273150000Y-40850000I0J-200000D01*
G01*
X273150000Y-41850000D01*
G75*
G02*
X272950000Y-42050000I-200000J0D01*
G01*
G37*
D23*
X272450000Y-40080000D03*
X273720000Y-41350000D03*
X273720000Y-40080000D03*
X274990000Y-41350000D03*
X274990000Y-40080000D03*
X276260000Y-41350000D03*
X276260000Y-40080000D03*
X277530000Y-41350000D03*
X277530000Y-40080000D03*
X289730000Y-40080000D03*
X289730000Y-41350000D03*
X288460000Y-40080000D03*
X288460000Y-41350000D03*
X287190000Y-40080000D03*
X287190000Y-41350000D03*
X285920000Y-40080000D03*
X285920000Y-41350000D03*
X284650000Y-40080000D03*
G36*
G01*
X285150000Y-42050000D02*
X284150000Y-42050000D01*
G75*
G02*
X283950000Y-41850000I0J200000D01*
G01*
X283950000Y-40850000D01*
G75*
G02*
X284150000Y-40650000I200000J0D01*
G01*
X285150000Y-40650000D01*
G75*
G02*
X285350000Y-40850000I0J-200000D01*
G01*
X285350000Y-41850000D01*
G75*
G02*
X285150000Y-42050000I-200000J0D01*
G01*
G37*
G36*
G01*
X296550000Y-38250040D02*
X296550000Y-37050040D01*
G75*
G02*
X296750000Y-36850040I200000J0D01*
G01*
X298250000Y-36850040D01*
G75*
G02*
X298450000Y-37050040I0J-200000D01*
G01*
X298450000Y-38250040D01*
G75*
G02*
X298250000Y-38450040I-200000J0D01*
G01*
X296750000Y-38450040D01*
G75*
G02*
X296550000Y-38250040I0J200000D01*
G01*
G37*
G36*
G01*
X299250000Y-38250040D02*
X299250000Y-37050040D01*
G75*
G02*
X299450000Y-36850040I200000J0D01*
G01*
X300950000Y-36850040D01*
G75*
G02*
X301150000Y-37050040I0J-200000D01*
G01*
X301150000Y-38250040D01*
G75*
G02*
X300950000Y-38450040I-200000J0D01*
G01*
X299450000Y-38450040D01*
G75*
G02*
X299250000Y-38250040I0J200000D01*
G01*
G37*
D24*
X294950000Y-37650040D03*
X302750000Y-37650040D03*
X302050000Y-34850040D03*
X294250000Y-34850040D03*
G36*
G01*
X298550000Y-35450040D02*
X298550000Y-34250040D01*
G75*
G02*
X298750000Y-34050040I200000J0D01*
G01*
X300250000Y-34050040D01*
G75*
G02*
X300450000Y-34250040I0J-200000D01*
G01*
X300450000Y-35450040D01*
G75*
G02*
X300250000Y-35650040I-200000J0D01*
G01*
X298750000Y-35650040D01*
G75*
G02*
X298550000Y-35450040I0J200000D01*
G01*
G37*
G36*
G01*
X295850000Y-35450040D02*
X295850000Y-34250040D01*
G75*
G02*
X296050000Y-34050040I200000J0D01*
G01*
X297550000Y-34050040D01*
G75*
G02*
X297750000Y-34250040I0J-200000D01*
G01*
X297750000Y-35450040D01*
G75*
G02*
X297550000Y-35650040I-200000J0D01*
G01*
X296050000Y-35650040D01*
G75*
G02*
X295850000Y-35450040I0J200000D01*
G01*
G37*
D17*
X55905000Y-31775040D03*
X45745000Y-31775040D03*
D16*
X50825000Y-31775040D03*
D17*
X36855040Y-31775080D03*
X26695040Y-31775080D03*
D16*
X31775040Y-31775080D03*
G36*
G01*
X24900000Y-61150040D02*
X24900000Y-62000040D01*
G75*
G02*
X24700000Y-62200040I-200000J0D01*
G01*
X23100000Y-62200040D01*
G75*
G02*
X22900000Y-62000040I0J200000D01*
G01*
X22900000Y-61150040D01*
G75*
G02*
X23100000Y-60950040I200000J0D01*
G01*
X24700000Y-60950040D01*
G75*
G02*
X24900000Y-61150040I0J-200000D01*
G01*
G37*
G36*
G01*
X24900000Y-62900040D02*
X24900000Y-63750040D01*
G75*
G02*
X24700000Y-63950040I-200000J0D01*
G01*
X23100000Y-63950040D01*
G75*
G02*
X22900000Y-63750040I0J200000D01*
G01*
X22900000Y-62900040D01*
G75*
G02*
X23100000Y-62700040I200000J0D01*
G01*
X24700000Y-62700040D01*
G75*
G02*
X24900000Y-62900040I0J-200000D01*
G01*
G37*
G36*
G01*
X28400000Y-61150040D02*
X28400000Y-62000040D01*
G75*
G02*
X28200000Y-62200040I-200000J0D01*
G01*
X26600000Y-62200040D01*
G75*
G02*
X26400000Y-62000040I0J200000D01*
G01*
X26400000Y-61150040D01*
G75*
G02*
X26600000Y-60950040I200000J0D01*
G01*
X28200000Y-60950040D01*
G75*
G02*
X28400000Y-61150040I0J-200000D01*
G01*
G37*
G36*
G01*
X28400000Y-62900040D02*
X28400000Y-63750040D01*
G75*
G02*
X28200000Y-63950040I-200000J0D01*
G01*
X26600000Y-63950040D01*
G75*
G02*
X26400000Y-63750040I0J200000D01*
G01*
X26400000Y-62900040D01*
G75*
G02*
X26600000Y-62700040I200000J0D01*
G01*
X28200000Y-62700040D01*
G75*
G02*
X28400000Y-62900040I0J-200000D01*
G01*
G37*
G36*
G01*
X28400000Y-67100040D02*
X28400000Y-67950040D01*
G75*
G02*
X28200000Y-68150040I-200000J0D01*
G01*
X26600000Y-68150040D01*
G75*
G02*
X26400000Y-67950040I0J200000D01*
G01*
X26400000Y-67100040D01*
G75*
G02*
X26600000Y-66900040I200000J0D01*
G01*
X28200000Y-66900040D01*
G75*
G02*
X28400000Y-67100040I0J-200000D01*
G01*
G37*
G36*
G01*
X28400000Y-65350040D02*
X28400000Y-66200040D01*
G75*
G02*
X28200000Y-66400040I-200000J0D01*
G01*
X26600000Y-66400040D01*
G75*
G02*
X26400000Y-66200040I0J200000D01*
G01*
X26400000Y-65350040D01*
G75*
G02*
X26600000Y-65150040I200000J0D01*
G01*
X28200000Y-65150040D01*
G75*
G02*
X28400000Y-65350040I0J-200000D01*
G01*
G37*
G36*
G01*
X24900000Y-67100040D02*
X24900000Y-67950040D01*
G75*
G02*
X24700000Y-68150040I-200000J0D01*
G01*
X23100000Y-68150040D01*
G75*
G02*
X22900000Y-67950040I0J200000D01*
G01*
X22900000Y-67100040D01*
G75*
G02*
X23100000Y-66900040I200000J0D01*
G01*
X24700000Y-66900040D01*
G75*
G02*
X24900000Y-67100040I0J-200000D01*
G01*
G37*
G36*
G01*
X24900000Y-65350040D02*
X24900000Y-66200040D01*
G75*
G02*
X24700000Y-66400040I-200000J0D01*
G01*
X23100000Y-66400040D01*
G75*
G02*
X22900000Y-66200040I0J200000D01*
G01*
X22900000Y-65350040D01*
G75*
G02*
X23100000Y-65150040I200000J0D01*
G01*
X24700000Y-65150040D01*
G75*
G02*
X24900000Y-65350040I0J-200000D01*
G01*
G37*
G36*
G01*
X24900000Y-83950040D02*
X24900000Y-84800040D01*
G75*
G02*
X24700000Y-85000040I-200000J0D01*
G01*
X23100000Y-85000040D01*
G75*
G02*
X22900000Y-84800040I0J200000D01*
G01*
X22900000Y-83950040D01*
G75*
G02*
X23100000Y-83750040I200000J0D01*
G01*
X24700000Y-83750040D01*
G75*
G02*
X24900000Y-83950040I0J-200000D01*
G01*
G37*
G36*
G01*
X24900000Y-85700040D02*
X24900000Y-86550040D01*
G75*
G02*
X24700000Y-86750040I-200000J0D01*
G01*
X23100000Y-86750040D01*
G75*
G02*
X22900000Y-86550040I0J200000D01*
G01*
X22900000Y-85700040D01*
G75*
G02*
X23100000Y-85500040I200000J0D01*
G01*
X24700000Y-85500040D01*
G75*
G02*
X24900000Y-85700040I0J-200000D01*
G01*
G37*
G36*
G01*
X28400000Y-83950040D02*
X28400000Y-84800040D01*
G75*
G02*
X28200000Y-85000040I-200000J0D01*
G01*
X26600000Y-85000040D01*
G75*
G02*
X26400000Y-84800040I0J200000D01*
G01*
X26400000Y-83950040D01*
G75*
G02*
X26600000Y-83750040I200000J0D01*
G01*
X28200000Y-83750040D01*
G75*
G02*
X28400000Y-83950040I0J-200000D01*
G01*
G37*
G36*
G01*
X28400000Y-85700040D02*
X28400000Y-86550040D01*
G75*
G02*
X28200000Y-86750040I-200000J0D01*
G01*
X26600000Y-86750040D01*
G75*
G02*
X26400000Y-86550040I0J200000D01*
G01*
X26400000Y-85700040D01*
G75*
G02*
X26600000Y-85500040I200000J0D01*
G01*
X28200000Y-85500040D01*
G75*
G02*
X28400000Y-85700040I0J-200000D01*
G01*
G37*
G36*
G01*
X28400000Y-89900040D02*
X28400000Y-90750040D01*
G75*
G02*
X28200000Y-90950040I-200000J0D01*
G01*
X26600000Y-90950040D01*
G75*
G02*
X26400000Y-90750040I0J200000D01*
G01*
X26400000Y-89900040D01*
G75*
G02*
X26600000Y-89700040I200000J0D01*
G01*
X28200000Y-89700040D01*
G75*
G02*
X28400000Y-89900040I0J-200000D01*
G01*
G37*
G36*
G01*
X28400000Y-88150040D02*
X28400000Y-89000040D01*
G75*
G02*
X28200000Y-89200040I-200000J0D01*
G01*
X26600000Y-89200040D01*
G75*
G02*
X26400000Y-89000040I0J200000D01*
G01*
X26400000Y-88150040D01*
G75*
G02*
X26600000Y-87950040I200000J0D01*
G01*
X28200000Y-87950040D01*
G75*
G02*
X28400000Y-88150040I0J-200000D01*
G01*
G37*
G36*
G01*
X24900000Y-89900040D02*
X24900000Y-90750040D01*
G75*
G02*
X24700000Y-90950040I-200000J0D01*
G01*
X23100000Y-90950040D01*
G75*
G02*
X22900000Y-90750040I0J200000D01*
G01*
X22900000Y-89900040D01*
G75*
G02*
X23100000Y-89700040I200000J0D01*
G01*
X24700000Y-89700040D01*
G75*
G02*
X24900000Y-89900040I0J-200000D01*
G01*
G37*
G36*
G01*
X24900000Y-88150040D02*
X24900000Y-89000040D01*
G75*
G02*
X24700000Y-89200040I-200000J0D01*
G01*
X23100000Y-89200040D01*
G75*
G02*
X22900000Y-89000040I0J200000D01*
G01*
X22900000Y-88150040D01*
G75*
G02*
X23100000Y-87950040I200000J0D01*
G01*
X24700000Y-87950040D01*
G75*
G02*
X24900000Y-88150040I0J-200000D01*
G01*
G37*
G36*
G01*
X307200000Y-43700040D02*
X307200000Y-44550040D01*
G75*
G02*
X307000000Y-44750040I-200000J0D01*
G01*
X305400000Y-44750040D01*
G75*
G02*
X305200000Y-44550040I0J200000D01*
G01*
X305200000Y-43700040D01*
G75*
G02*
X305400000Y-43500040I200000J0D01*
G01*
X307000000Y-43500040D01*
G75*
G02*
X307200000Y-43700040I0J-200000D01*
G01*
G37*
G36*
G01*
X307200000Y-41950040D02*
X307200000Y-42800040D01*
G75*
G02*
X307000000Y-43000040I-200000J0D01*
G01*
X305400000Y-43000040D01*
G75*
G02*
X305200000Y-42800040I0J200000D01*
G01*
X305200000Y-41950040D01*
G75*
G02*
X305400000Y-41750040I200000J0D01*
G01*
X307000000Y-41750040D01*
G75*
G02*
X307200000Y-41950040I0J-200000D01*
G01*
G37*
G36*
G01*
X303700000Y-43700040D02*
X303700000Y-44550040D01*
G75*
G02*
X303500000Y-44750040I-200000J0D01*
G01*
X301900000Y-44750040D01*
G75*
G02*
X301700000Y-44550040I0J200000D01*
G01*
X301700000Y-43700040D01*
G75*
G02*
X301900000Y-43500040I200000J0D01*
G01*
X303500000Y-43500040D01*
G75*
G02*
X303700000Y-43700040I0J-200000D01*
G01*
G37*
G36*
G01*
X303700000Y-41950040D02*
X303700000Y-42800040D01*
G75*
G02*
X303500000Y-43000040I-200000J0D01*
G01*
X301900000Y-43000040D01*
G75*
G02*
X301700000Y-42800040I0J200000D01*
G01*
X301700000Y-41950040D01*
G75*
G02*
X301900000Y-41750040I200000J0D01*
G01*
X303500000Y-41750040D01*
G75*
G02*
X303700000Y-41950040I0J-200000D01*
G01*
G37*
G36*
G01*
X303700000Y-46150040D02*
X303700000Y-47000040D01*
G75*
G02*
X303500000Y-47200040I-200000J0D01*
G01*
X301900000Y-47200040D01*
G75*
G02*
X301700000Y-47000040I0J200000D01*
G01*
X301700000Y-46150040D01*
G75*
G02*
X301900000Y-45950040I200000J0D01*
G01*
X303500000Y-45950040D01*
G75*
G02*
X303700000Y-46150040I0J-200000D01*
G01*
G37*
G36*
G01*
X303700000Y-47900040D02*
X303700000Y-48750040D01*
G75*
G02*
X303500000Y-48950040I-200000J0D01*
G01*
X301900000Y-48950040D01*
G75*
G02*
X301700000Y-48750040I0J200000D01*
G01*
X301700000Y-47900040D01*
G75*
G02*
X301900000Y-47700040I200000J0D01*
G01*
X303500000Y-47700040D01*
G75*
G02*
X303700000Y-47900040I0J-200000D01*
G01*
G37*
G36*
G01*
X307200000Y-46150040D02*
X307200000Y-47000040D01*
G75*
G02*
X307000000Y-47200040I-200000J0D01*
G01*
X305400000Y-47200040D01*
G75*
G02*
X305200000Y-47000040I0J200000D01*
G01*
X305200000Y-46150040D01*
G75*
G02*
X305400000Y-45950040I200000J0D01*
G01*
X307000000Y-45950040D01*
G75*
G02*
X307200000Y-46150040I0J-200000D01*
G01*
G37*
G36*
G01*
X307200000Y-47900040D02*
X307200000Y-48750040D01*
G75*
G02*
X307000000Y-48950040I-200000J0D01*
G01*
X305400000Y-48950040D01*
G75*
G02*
X305200000Y-48750040I0J200000D01*
G01*
X305200000Y-47900040D01*
G75*
G02*
X305400000Y-47700040I200000J0D01*
G01*
X307000000Y-47700040D01*
G75*
G02*
X307200000Y-47900040I0J-200000D01*
G01*
G37*
G36*
G01*
X303700000Y-61150040D02*
X303700000Y-62000040D01*
G75*
G02*
X303500000Y-62200040I-200000J0D01*
G01*
X301900000Y-62200040D01*
G75*
G02*
X301700000Y-62000040I0J200000D01*
G01*
X301700000Y-61150040D01*
G75*
G02*
X301900000Y-60950040I200000J0D01*
G01*
X303500000Y-60950040D01*
G75*
G02*
X303700000Y-61150040I0J-200000D01*
G01*
G37*
G36*
G01*
X303700000Y-62900040D02*
X303700000Y-63750040D01*
G75*
G02*
X303500000Y-63950040I-200000J0D01*
G01*
X301900000Y-63950040D01*
G75*
G02*
X301700000Y-63750040I0J200000D01*
G01*
X301700000Y-62900040D01*
G75*
G02*
X301900000Y-62700040I200000J0D01*
G01*
X303500000Y-62700040D01*
G75*
G02*
X303700000Y-62900040I0J-200000D01*
G01*
G37*
G36*
G01*
X307200000Y-61150040D02*
X307200000Y-62000040D01*
G75*
G02*
X307000000Y-62200040I-200000J0D01*
G01*
X305400000Y-62200040D01*
G75*
G02*
X305200000Y-62000040I0J200000D01*
G01*
X305200000Y-61150040D01*
G75*
G02*
X305400000Y-60950040I200000J0D01*
G01*
X307000000Y-60950040D01*
G75*
G02*
X307200000Y-61150040I0J-200000D01*
G01*
G37*
G36*
G01*
X307200000Y-62900040D02*
X307200000Y-63750040D01*
G75*
G02*
X307000000Y-63950040I-200000J0D01*
G01*
X305400000Y-63950040D01*
G75*
G02*
X305200000Y-63750040I0J200000D01*
G01*
X305200000Y-62900040D01*
G75*
G02*
X305400000Y-62700040I200000J0D01*
G01*
X307000000Y-62700040D01*
G75*
G02*
X307200000Y-62900040I0J-200000D01*
G01*
G37*
G36*
G01*
X307200000Y-67100040D02*
X307200000Y-67950040D01*
G75*
G02*
X307000000Y-68150040I-200000J0D01*
G01*
X305400000Y-68150040D01*
G75*
G02*
X305200000Y-67950040I0J200000D01*
G01*
X305200000Y-67100040D01*
G75*
G02*
X305400000Y-66900040I200000J0D01*
G01*
X307000000Y-66900040D01*
G75*
G02*
X307200000Y-67100040I0J-200000D01*
G01*
G37*
G36*
G01*
X307200000Y-65350040D02*
X307200000Y-66200040D01*
G75*
G02*
X307000000Y-66400040I-200000J0D01*
G01*
X305400000Y-66400040D01*
G75*
G02*
X305200000Y-66200040I0J200000D01*
G01*
X305200000Y-65350040D01*
G75*
G02*
X305400000Y-65150040I200000J0D01*
G01*
X307000000Y-65150040D01*
G75*
G02*
X307200000Y-65350040I0J-200000D01*
G01*
G37*
G36*
G01*
X303700000Y-67100040D02*
X303700000Y-67950040D01*
G75*
G02*
X303500000Y-68150040I-200000J0D01*
G01*
X301900000Y-68150040D01*
G75*
G02*
X301700000Y-67950040I0J200000D01*
G01*
X301700000Y-67100040D01*
G75*
G02*
X301900000Y-66900040I200000J0D01*
G01*
X303500000Y-66900040D01*
G75*
G02*
X303700000Y-67100040I0J-200000D01*
G01*
G37*
G36*
G01*
X303700000Y-65350040D02*
X303700000Y-66200040D01*
G75*
G02*
X303500000Y-66400040I-200000J0D01*
G01*
X301900000Y-66400040D01*
G75*
G02*
X301700000Y-66200040I0J200000D01*
G01*
X301700000Y-65350040D01*
G75*
G02*
X301900000Y-65150040I200000J0D01*
G01*
X303500000Y-65150040D01*
G75*
G02*
X303700000Y-65350040I0J-200000D01*
G01*
G37*
D15*
X301016160Y-102895400D03*
D16*
X298476160Y-107975400D03*
D15*
X294666160Y-105435400D03*
D17*
X293396160Y-107975400D03*
X303556160Y-107975400D03*
D15*
X34315040Y-102895400D03*
D16*
X31775040Y-107975400D03*
D15*
X27965040Y-105435400D03*
D17*
X26695040Y-107975400D03*
X36855040Y-107975400D03*
D15*
X276886080Y-55905160D03*
D16*
X279426080Y-50825160D03*
D15*
X283236080Y-53365160D03*
D17*
X284506080Y-50825160D03*
X274346080Y-50825160D03*
X284506080Y-50825160D03*
X274346080Y-50825160D03*
D16*
X279426080Y-50825160D03*
M02*
