M48
; DRILL file {KiCad (5.1.10-1-10_14)} date Friday, July 02, 2021 at 05:31:01 AM
; FORMAT={-:-/ absolute / inch / decimal}
; #@! TF.CreationDate,2021-07-02T05:31:01+09:00
; #@! TF.GenerationSoftware,Kicad,Pcbnew,(5.1.10-1-10_14)
FMAT,2
INCH
T1C0.0157
T2C0.0197
T3C0.0236
T4C0.0276
T5C0.0394
T6C0.0579
T7C0.0591
T8C0.0984
T9C0.0630
T10C0.0689
T11C0.0827
T12C0.0866
T13C0.0945
T14C0.1181
T15C0.1200
T16C0.1570
%
G90
G05
T1
X0.9567Y-2.5413
X0.9705Y-4.0689
X0.9902Y-2.4931
X1.0Y-2.4213
X1.0217Y-2.6575
X1.0591Y-2.5413
X1.1346Y-2.5906
X1.1634Y-2.4193
X1.1922Y-2.7135
X1.2047Y-3.0276
X1.2093Y-3.31
X1.2165Y-3.3484
X1.2185Y-2.4764
X1.2913Y-3.3091
X1.313Y-1.0787
X1.3327Y-1.7283
X1.3681Y-3.3957
X1.4528Y-1.4272
X1.4882Y-1.0567
X1.4882Y-1.1098
X1.5217Y-1.0567
X1.5217Y-1.1098
X1.5394Y-3.7854
X1.5551Y-1.0567
X1.5551Y-1.1098
X1.5886Y-1.0567
X1.5886Y-1.1098
X1.6161Y-2.1634
X1.622Y-1.0567
X1.622Y-1.1098
X1.6555Y-1.0567
X1.6555Y-1.1098
X1.6673Y-2.3711
X1.6673Y-2.435
X1.6831Y-1.3504
X1.689Y-1.0567
X1.689Y-1.1098
X1.7008Y-1.4409
X1.7224Y-1.0567
X1.7224Y-1.1098
X1.8898Y-1.1811
X1.9596Y-0.9771
X2.0817Y-1.1398
X2.0906Y-2.8681
X2.1772Y-3.002
X2.189Y-1.813
X2.19Y-3.7835
X2.1998Y-3.4065
X2.2323Y-4.3937
X2.311Y-2.8307
X2.3268Y-1.1398
X2.3622Y-1.3504
X2.3622Y-3.5512
X2.3756Y-4.3937
X2.4173Y-3.7992
X2.4213Y-3.2598
X2.4528Y-2.937
X2.4745Y-1.2489
X2.5Y-2.8169
X2.5098Y-1.4783
X2.5273Y-2.7972
X2.5866Y-4.3583
X2.6024Y-2.3701
X2.6024Y-2.4744
X2.6142Y-1.5118
X2.6232Y-2.938
X2.6575Y-2.9291
X2.6893Y-2.228
X2.6893Y-2.9428
X2.7205Y-2.1988
X2.7205Y-2.9291
X2.7205Y-3.2579
X2.752Y-2.9429
X2.7524Y-3.009
X2.7657Y-2.9764
X2.7725Y-2.426
X2.7776Y-2.7264
X2.8029Y-2.8973
X2.8031Y-2.1319
X2.8189Y-3.7283
X2.8356Y-2.4547
X2.8465Y-1.8248
X2.8701Y-3.7244
X2.9075Y-3.7244
X2.9094Y-3.8176
X2.9822Y-3.799
X3.0Y-3.8252
X3.065Y-2.5689
X3.0709Y-3.8256
X3.0984Y-4.2835
X3.122Y-3.8504
X3.1339Y-3.7992
X3.1654Y-3.5906
X3.3552Y-2.4795
X3.3583Y-2.3728
X3.372Y-3.3169
X3.4528Y-2.372
X3.4528Y-2.426
X3.5024Y-2.3717
X3.5024Y-3.1866
X3.5028Y-1.9961
X3.5531Y-2.372
X3.5965Y-2.9665
X3.5992Y-2.3718
X3.624Y-1.9783
X3.624Y-2.5778
X3.624Y-3.0122
X3.6339Y-3.7677
X3.6706Y-3.6017
X3.8425Y-3.4016
X3.8878Y-1.2323
X3.9512Y-3.6693
X4.0541Y-2.4262
X4.1063Y-2.3728
X4.1063Y-2.4795
X4.1083Y-3.1654
X4.1329Y-1.5118
X4.1713Y-2.2303
X4.2165Y-2.1996
X4.2205Y-2.4547
X4.2977Y-3.7362
X4.313Y-2.3996
X4.313Y-3.1166
X4.3666Y-1.4783
X4.3785Y-2.1337
X4.7224Y-1.3287
X4.7224Y-3.4862
X4.7224Y-4.061
X5.0157Y-2.6516
X5.0157Y-1.9016
X5.1268Y-4.426
X5.252Y-4.1339
X5.6929Y-2.1992
X5.7248Y-3.7047
X5.7283Y-1.5118
X5.7461Y-2.1638
X5.7496Y-3.6378
X5.8465Y-1.9862
X6.1437Y-3.4006
X6.1437Y-4.0738
X6.2224Y-1.248
X6.4055Y-2.7539
X6.5177Y-1.9016
X6.5177Y-2.6516
X6.6772Y-4.3095
X6.876Y-3.4035
X6.9724Y-1.2835
X7.2677Y-1.9016
X7.2677Y-2.6516
X7.7224Y-1.2638
X8.0965Y-2.563
X8.0984Y-1.9862
X8.3445Y-3.2953
X8.7559Y-3.8937
X9.2215Y-3.3209
X9.2224Y-1.2362
X9.2224Y-3.8829
X9.4331Y-1.5433
X9.4331Y-2.1988
X9.4764Y-1.5846
X9.4764Y-2.1988
X9.5256Y-1.9016
X9.5256Y-2.6516
X9.5996Y-3.1646
X9.7461Y-2.8287
X9.7461Y-2.9134
X9.9587Y-4.0728
X9.9724Y-1.2343
X10.0551Y-3.3169
X10.3425Y-2.752
X10.3425Y-2.1831
X10.3465Y-1.813
X10.374Y-2.2894
X10.374Y-2.5748
X11.1348Y-3.0886
X11.2138Y-2.7177
X11.3504Y-3.2795
X11.3725Y-3.2448
X11.3996Y-3.1693
X11.4272Y-3.2441
X11.472Y-1.2244
X11.4724Y-4.0689
X11.5295Y-2.3583
X11.6476Y-3.2047
X11.6497Y-3.1615
X11.8206Y-2.172
X11.8425Y-1.8898
X11.9173Y-2.3583
X11.9213Y-2.5413
X12.0045Y-1.992
X12.0045Y-2.1817
X12.0128Y-2.9222
X12.0492Y-2.5413
T2
X1.8071Y-1.9862
X1.8287Y-1.9331
X1.8287Y-2.0374
X1.8819Y-1.9114
X1.8819Y-2.061
X1.9311Y-1.9331
X1.9311Y-2.0394
X1.9567Y-1.9862
X2.2028Y-3.1673
X2.2815Y-3.0256
X2.2815Y-3.1673
X2.3622Y-3.4085
X2.5315Y-3.4094
X2.5531Y-3.5846
X2.6102Y-3.8219
X2.8996Y-3.3091
T4
X0.9803Y-4.526
X2.3386Y-4.526
X3.2598Y-4.526
X4.2067Y-3.876
X4.2067Y-3.9748
X4.2067Y-4.0729
X4.2067Y-4.1713
X4.2067Y-4.2701
X5.6634Y-3.8764
X5.6634Y-3.9748
X5.6634Y-4.0729
X5.6634Y-4.1713
X5.6634Y-4.2697
X5.8465Y-4.526
X6.2224Y-4.526
X6.689Y-4.526
X7.7244Y-4.526
X8.7283Y-4.526
X9.878Y-4.526
X11.4173Y-4.526
T5
X1.1524Y-3.9548
X1.1524Y-4.5257
X1.2508Y-3.9548
X1.3493Y-3.9548
X1.3493Y-4.5257
X3.7106Y-2.9217
X3.7106Y-3.0217
X4.0197Y-2.9213
X4.0197Y-3.0213
X4.1197Y-2.9213
X4.1197Y-3.0213
X4.2197Y-2.9213
X4.2197Y-3.0213
X9.3996Y-2.9606
X9.4996Y-2.9606
X9.5996Y-2.9606
X11.6533Y-3.9553
X11.6533Y-4.5262
X11.7517Y-3.9553
X11.8501Y-3.9553
X11.8501Y-4.5262
T6
X5.976Y-2.651
X6.226Y-2.551
T8
X1.8819Y-1.9862
T10
X1.051Y-1.251
X1.051Y-3.501
X1.051Y-4.251
X1.2385Y-2.001
X1.2385Y-2.751
X1.3322Y-2.751
X1.426Y-3.501
X1.451Y-1.251
X1.451Y-3.501
X1.451Y-4.251
X1.5197Y-3.501
X1.6385Y-2.001
X1.6385Y-2.751
X1.7322Y-2.751
X1.801Y-1.251
X1.801Y-3.501
X1.801Y-4.251
X1.826Y-3.501
X1.9197Y-3.501
X2.176Y-2.001
X2.176Y-2.751
X2.201Y-1.251
X2.201Y-3.501
X2.201Y-4.251
X2.551Y-1.251
X2.551Y-3.501
X2.551Y-4.251
X2.576Y-2.001
X2.576Y-2.751
X2.6447Y-4.251
X2.926Y-2.001
X2.926Y-2.751
X2.951Y-1.251
X2.951Y-3.501
X2.951Y-4.251
X3.0447Y-4.251
X3.301Y-1.251
X3.301Y-3.501
X3.326Y-2.001
X3.326Y-2.751
X3.4885Y-4.251
X3.5822Y-4.251
X3.676Y-2.001
X3.676Y-2.751
X3.701Y-1.251
X3.701Y-3.501
X3.8885Y-4.251
X3.9822Y-4.251
X4.051Y-1.251
X4.051Y-3.501
X4.076Y-2.001
X4.076Y-2.751
X4.426Y-2.001
X4.426Y-2.751
X4.451Y-1.251
X4.451Y-3.501
X4.7073Y-4.251
X4.801Y-1.251
X4.801Y-3.501
X4.801Y-4.251
X4.826Y-2.001
X4.826Y-2.751
X5.1073Y-4.251
X5.176Y-2.001
X5.176Y-2.751
X5.201Y-1.251
X5.201Y-3.501
X5.201Y-4.251
X5.551Y-1.251
X5.551Y-3.501
X5.576Y-2.001
X5.576Y-2.751
X5.926Y-4.251
X5.926Y-2.001
X5.926Y-2.751
X5.926Y-2.751
X5.951Y-1.251
X5.951Y-3.501
X6.301Y-1.251
X6.301Y-3.501
X6.301Y-4.251
X6.326Y-4.251
X6.326Y-2.001
X6.326Y-2.751
X6.326Y-2.751
X6.676Y-2.001
X6.676Y-4.251
X6.676Y-2.751
X6.701Y-1.251
X6.701Y-3.501
X6.701Y-4.251
X7.051Y-1.251
X7.051Y-3.501
X7.076Y-2.001
X7.076Y-4.251
X7.076Y-2.751
X7.426Y-2.001
X7.426Y-2.751
X7.451Y-1.251
X7.451Y-3.501
X7.5197Y-4.251
X7.801Y-4.251
X7.801Y-1.251
X7.801Y-3.501
X7.826Y-2.001
X7.826Y-2.751
X7.9197Y-4.251
X8.176Y-2.001
X8.176Y-2.751
X8.201Y-4.251
X8.201Y-1.251
X8.201Y-3.501
X8.551Y-1.251
X8.551Y-3.501
X8.576Y-2.001
X8.576Y-2.751
X8.6572Y-4.051
X8.6572Y-4.451
X8.926Y-2.001
X8.926Y-2.751
X8.951Y-1.251
X8.951Y-3.501
X9.0197Y-4.251
X9.1135Y-4.251
X9.301Y-4.251
X9.301Y-1.251
X9.301Y-3.501
X9.326Y-2.001
X9.326Y-2.751
X9.4197Y-4.251
X9.5135Y-4.251
X9.676Y-2.001
X9.676Y-2.751
X9.701Y-4.251
X9.701Y-1.251
X9.701Y-3.501
X9.8635Y-2.001
X9.8635Y-2.751
X9.9572Y-4.251
X10.051Y-1.251
X10.051Y-4.251
X10.051Y-3.501
X10.076Y-2.001
X10.076Y-2.751
X10.2635Y-2.001
X10.2635Y-2.751
X10.3572Y-4.251
X10.426Y-2.751
X10.426Y-2.001
X10.451Y-1.251
X10.451Y-4.251
X10.451Y-3.501
X10.801Y-1.251
X10.801Y-3.501
X10.801Y-4.251
X10.826Y-2.751
X10.826Y-2.001
X11.001Y-1.801
X11.001Y-2.201
X11.001Y-2.551
X11.001Y-2.951
X11.0947Y-2.551
X11.0947Y-2.951
X11.176Y-1.251
X11.201Y-1.251
X11.201Y-3.501
X11.201Y-4.251
X11.2697Y-2.001
X11.2697Y-2.751
X11.3635Y-2.001
X11.3635Y-2.751
X11.551Y-1.251
X11.551Y-2.001
X11.551Y-2.751
X11.551Y-3.501
X11.551Y-4.251
X11.576Y-1.251
X11.6697Y-2.001
X11.6697Y-2.751
X11.7635Y-2.001
X11.7635Y-2.751
X11.951Y-1.251
X11.951Y-2.001
X11.951Y-2.751
X11.951Y-3.501
X11.951Y-4.251
T11
X1.2508Y-4.2501
X11.7517Y-4.2506
T12
X4.1909Y-4.4252
X4.626Y-1.0551
X8.189Y-4.4252
X8.376Y-1.0551
X9.6988Y-4.4252
T14
X1.101Y-4.151
X1.151Y-1.451
X1.151Y-3.701
X1.2885Y-1.901
X1.3385Y-2.951
X1.351Y-4.051
X1.3822Y-2.651
X1.401Y-1.351
X1.401Y-3.601
X1.526Y-3.701
X1.5385Y-1.801
X1.5697Y-3.401
X1.5885Y-2.851
X1.6322Y-2.551
X1.776Y-3.601
X1.8197Y-3.301
X1.851Y-4.151
X1.901Y-1.451
X1.901Y-3.701
X2.101Y-4.051
X2.151Y-1.351
X2.151Y-3.601
X2.226Y-1.901
X2.226Y-2.651
X2.476Y-1.801
X2.476Y-2.551
X2.601Y-1.151
X2.651Y-3.701
X2.651Y-4.451
X2.6947Y-4.151
X2.851Y-1.051
X2.901Y-3.601
X2.901Y-4.351
X2.9447Y-4.051
X2.976Y-1.901
X2.976Y-2.651
X3.226Y-1.801
X3.226Y-2.551
X3.351Y-1.151
X3.351Y-3.401
X3.5885Y-4.451
X3.601Y-1.051
X3.601Y-3.301
X3.6322Y-4.151
X3.726Y-1.901
X3.726Y-2.651
X3.8385Y-4.351
X3.8822Y-4.051
X3.976Y-1.801
X3.976Y-2.551
X4.101Y-1.151
X4.101Y-3.401
X4.351Y-1.051
X4.351Y-3.301
X4.476Y-1.901
X4.476Y-2.651
X4.726Y-1.801
X4.726Y-2.551
X4.8073Y-4.451
X4.851Y-1.151
X4.851Y-3.401
X4.851Y-4.151
X5.0573Y-4.351
X5.101Y-1.051
X5.101Y-3.301
X5.101Y-4.051
X5.226Y-1.901
X5.226Y-2.651
X5.476Y-1.801
X5.476Y-2.551
X5.601Y-1.151
X5.601Y-3.401
X5.851Y-1.051
X5.851Y-3.301
X5.976Y-4.151
X5.976Y-1.901
X6.026Y-2.951
X6.226Y-4.051
X6.226Y-1.801
X6.276Y-2.851
X6.351Y-1.151
X6.351Y-3.401
X6.351Y-4.151
X6.601Y-1.051
X6.601Y-3.301
X6.601Y-4.051
X6.726Y-1.901
X6.726Y-4.151
X6.726Y-2.651
X6.976Y-1.801
X6.976Y-4.051
X6.976Y-2.551
X7.101Y-1.151
X7.101Y-3.401
X7.351Y-1.051
X7.351Y-3.301
X7.476Y-1.901
X7.476Y-2.651
X7.5697Y-4.151
X7.726Y-1.801
X7.726Y-2.551
X7.8197Y-4.051
X7.851Y-4.151
X7.851Y-1.151
X7.851Y-3.401
X8.101Y-4.051
X8.101Y-1.051
X8.101Y-3.301
X8.226Y-1.901
X8.226Y-2.651
X8.476Y-1.801
X8.476Y-2.551
X8.601Y-1.151
X8.601Y-3.401
X8.7572Y-4.101
X8.851Y-1.051
X8.851Y-3.301
X8.8572Y-4.351
X8.976Y-1.901
X8.976Y-2.651
X9.0697Y-4.151
X9.2135Y-4.451
X9.226Y-1.801
X9.226Y-2.551
X9.3197Y-4.051
X9.351Y-4.151
X9.351Y-1.151
X9.351Y-3.401
X9.4635Y-4.351
X9.601Y-4.051
X9.601Y-1.051
X9.601Y-3.301
X9.726Y-1.901
X9.726Y-2.651
X9.9635Y-2.201
X9.9635Y-2.951
X9.976Y-1.801
X9.976Y-2.551
X10.0072Y-4.151
X10.101Y-1.151
X10.101Y-3.401
X10.151Y-4.451
X10.2135Y-2.101
X10.2135Y-2.851
X10.2572Y-4.051
X10.351Y-1.051
X10.351Y-3.301
X10.401Y-4.351
X10.476Y-2.651
X10.476Y-1.901
X10.726Y-2.551
X10.726Y-1.801
X10.801Y-1.901
X10.801Y-2.651
X10.851Y-1.151
X10.851Y-3.401
X10.851Y-4.151
X10.8947Y-2.651
X10.901Y-2.151
X10.901Y-2.901
X10.9947Y-2.901
X11.101Y-1.051
X11.101Y-3.301
X11.101Y-4.051
X11.226Y-1.151
X11.3697Y-2.201
X11.3697Y-2.951
X11.4135Y-1.901
X11.4135Y-2.651
X11.476Y-1.051
X11.601Y-1.151
X11.601Y-3.401
X11.601Y-4.151
X11.6197Y-2.101
X11.6197Y-2.851
X11.651Y-2.201
X11.651Y-2.951
X11.6635Y-1.801
X11.6635Y-2.551
X11.851Y-1.051
X11.851Y-3.301
X11.851Y-4.051
X11.901Y-2.101
X11.901Y-2.851
T15
X1.156Y-3.226
X2.096Y-3.226
X4.4373Y-4.526
X4.531Y-4.526
X5.3773Y-4.526
X5.471Y-4.526
X6.031Y-4.526
X6.971Y-4.526
X7.531Y-4.526
X8.471Y-4.526
X10.6247Y-2.476
X10.906Y-0.976
X11.5647Y-2.476
X11.846Y-0.976
T16
X1.156Y-3.826
X1.251Y-1.251
X1.251Y-3.501
X1.251Y-4.251
X1.4385Y-2.001
X1.4385Y-2.751
X1.5322Y-2.751
X1.626Y-3.501
X1.7197Y-3.501
X2.001Y-1.251
X2.001Y-3.501
X2.001Y-4.251
X2.096Y-3.826
X2.376Y-2.001
X2.376Y-2.751
X2.751Y-1.251
X2.751Y-3.501
X2.751Y-4.251
X2.8447Y-4.251
X3.126Y-2.001
X3.126Y-2.751
X3.501Y-1.251
X3.501Y-3.501
X3.6885Y-4.251
X3.7822Y-4.251
X3.876Y-2.001
X3.876Y-2.751
X4.251Y-1.251
X4.251Y-3.501
X4.4373Y-3.926
X4.531Y-3.926
X4.626Y-2.001
X4.626Y-2.751
X4.9073Y-4.251
X5.001Y-1.251
X5.001Y-3.501
X5.001Y-4.251
X5.376Y-2.001
X5.376Y-2.751
X5.3773Y-3.926
X5.471Y-3.926
X5.751Y-1.251
X5.751Y-3.501
X6.031Y-3.926
X6.126Y-4.251
X6.126Y-2.001
X6.126Y-2.751
X6.126Y-2.751
X6.501Y-1.251
X6.501Y-3.501
X6.501Y-4.251
X6.876Y-2.001
X6.876Y-4.251
X6.876Y-2.751
X6.971Y-3.926
X7.251Y-1.251
X7.251Y-3.501
X7.531Y-3.926
X7.626Y-2.001
X7.626Y-2.751
X7.7197Y-4.251
X8.001Y-4.251
X8.001Y-1.251
X8.001Y-3.501
X8.376Y-2.001
X8.376Y-2.751
X8.471Y-3.926
X8.6572Y-4.251
X8.751Y-1.251
X8.751Y-3.501
X9.126Y-2.001
X9.126Y-2.751
X9.2197Y-4.251
X9.3135Y-4.251
X9.501Y-4.251
X9.501Y-1.251
X9.501Y-3.501
X9.876Y-2.001
X9.876Y-2.751
X10.0635Y-2.001
X10.0635Y-2.751
X10.1572Y-4.251
X10.251Y-1.251
X10.251Y-4.251
X10.251Y-3.501
X10.6247Y-3.076
X10.626Y-2.751
X10.626Y-2.001
X10.906Y-1.576
X11.001Y-1.251
X11.001Y-2.001
X11.001Y-2.751
X11.001Y-3.501
X11.001Y-4.251
X11.0947Y-2.751
X11.376Y-1.251
X11.4697Y-2.001
X11.4697Y-2.751
X11.5635Y-2.001
X11.5635Y-2.751
X11.5647Y-3.076
X11.751Y-1.251
X11.751Y-2.001
X11.751Y-2.751
X11.751Y-3.501
X11.751Y-4.251
X11.846Y-1.576
T3
G00X1.435Y-0.9224
M15
G01X1.435Y-0.9539
M16
G05
G00X1.435Y-1.0417
M15
G01X1.435Y-1.1008
M16
G05
G00X1.7756Y-0.9224
M15
G01X1.7756Y-0.9539
M16
G05
G00X1.7756Y-1.0417
M15
G01X1.7756Y-1.1008
M16
G05
T7
G00X1.0304Y-4.2245
M15
G01X1.0304Y-4.2757
M16
G05
G00X1.4713Y-4.2245
M15
G01X1.4713Y-4.2757
M16
G05
G00X11.5312Y-4.225
M15
G01X11.5312Y-4.2762
M16
G05
G00X11.9722Y-4.225
M15
G01X11.9722Y-4.2762
M16
G05
T9
G00X1.2508Y-4.067
M15
G01X1.2508Y-4.0789
M16
G05
G00X1.2508Y-4.4214
M15
G01X1.2508Y-4.4332
M16
G05
G00X11.7517Y-4.0675
M15
G01X11.7517Y-4.0794
M16
G05
G00X11.7517Y-4.4219
M15
G01X11.7517Y-4.4337
M16
G05
T13
G00X5.8819Y-2.7382
M15
G01X5.9921Y-2.7382
M16
G05
G00X8.3346Y-4.2421
M15
G01X8.4449Y-4.2421
M16
G05
G00X11.0728Y-1.9862
M15
G01X11.1831Y-1.9862
M16
G05
T0
M30
