G04 #@! TF.GenerationSoftware,KiCad,Pcbnew,(5.1.10-1-10_14)*
G04 #@! TF.CreationDate,2021-08-04T05:45:13+09:00*
G04 #@! TF.ProjectId,Jones,4a6f6e65-732e-46b6-9963-61645f706362,v.1 (042)*
G04 #@! TF.SameCoordinates,Original*
G04 #@! TF.FileFunction,Paste,Bot*
G04 #@! TF.FilePolarity,Positive*
%FSLAX46Y46*%
G04 Gerber Fmt 4.6, Leading zero omitted, Abs format (unit mm)*
G04 Created by KiCad (PCBNEW (5.1.10-1-10_14)) date 2021-08-04 05:45:13*
%MOMM*%
%LPD*%
G01*
G04 APERTURE LIST*
%ADD10R,2.550000X2.500000*%
%ADD11R,0.900000X1.200000*%
%ADD12R,2.100000X1.800000*%
%ADD13R,1.200000X0.900000*%
%ADD14R,1.000000X1.700000*%
%ADD15R,2.500000X2.550000*%
%ADD16R,1.200000X1.400000*%
%ADD17R,1.000000X1.400000*%
%ADD18R,0.250000X0.700000*%
%ADD19R,0.700000X0.250000*%
%ADD20R,0.772500X0.772500*%
G04 APERTURE END LIST*
D10*
X291391160Y-86385320D03*
X304318160Y-83845320D03*
D11*
X57050000Y-96500000D03*
X60350000Y-96500000D03*
G36*
G01*
X87545000Y-51850000D02*
X87845000Y-51850000D01*
G75*
G02*
X87995000Y-52000000I0J-150000D01*
G01*
X87995000Y-53450000D01*
G75*
G02*
X87845000Y-53600000I-150000J0D01*
G01*
X87545000Y-53600000D01*
G75*
G02*
X87395000Y-53450000I0J150000D01*
G01*
X87395000Y-52000000D01*
G75*
G02*
X87545000Y-51850000I150000J0D01*
G01*
G37*
G36*
G01*
X88815000Y-51850000D02*
X89115000Y-51850000D01*
G75*
G02*
X89265000Y-52000000I0J-150000D01*
G01*
X89265000Y-53450000D01*
G75*
G02*
X89115000Y-53600000I-150000J0D01*
G01*
X88815000Y-53600000D01*
G75*
G02*
X88665000Y-53450000I0J150000D01*
G01*
X88665000Y-52000000D01*
G75*
G02*
X88815000Y-51850000I150000J0D01*
G01*
G37*
G36*
G01*
X90085000Y-51850000D02*
X90385000Y-51850000D01*
G75*
G02*
X90535000Y-52000000I0J-150000D01*
G01*
X90535000Y-53450000D01*
G75*
G02*
X90385000Y-53600000I-150000J0D01*
G01*
X90085000Y-53600000D01*
G75*
G02*
X89935000Y-53450000I0J150000D01*
G01*
X89935000Y-52000000D01*
G75*
G02*
X90085000Y-51850000I150000J0D01*
G01*
G37*
G36*
G01*
X91355000Y-51850000D02*
X91655000Y-51850000D01*
G75*
G02*
X91805000Y-52000000I0J-150000D01*
G01*
X91805000Y-53450000D01*
G75*
G02*
X91655000Y-53600000I-150000J0D01*
G01*
X91355000Y-53600000D01*
G75*
G02*
X91205000Y-53450000I0J150000D01*
G01*
X91205000Y-52000000D01*
G75*
G02*
X91355000Y-51850000I150000J0D01*
G01*
G37*
G36*
G01*
X91355000Y-57000000D02*
X91655000Y-57000000D01*
G75*
G02*
X91805000Y-57150000I0J-150000D01*
G01*
X91805000Y-58600000D01*
G75*
G02*
X91655000Y-58750000I-150000J0D01*
G01*
X91355000Y-58750000D01*
G75*
G02*
X91205000Y-58600000I0J150000D01*
G01*
X91205000Y-57150000D01*
G75*
G02*
X91355000Y-57000000I150000J0D01*
G01*
G37*
G36*
G01*
X90085000Y-57000000D02*
X90385000Y-57000000D01*
G75*
G02*
X90535000Y-57150000I0J-150000D01*
G01*
X90535000Y-58600000D01*
G75*
G02*
X90385000Y-58750000I-150000J0D01*
G01*
X90085000Y-58750000D01*
G75*
G02*
X89935000Y-58600000I0J150000D01*
G01*
X89935000Y-57150000D01*
G75*
G02*
X90085000Y-57000000I150000J0D01*
G01*
G37*
G36*
G01*
X88815000Y-57000000D02*
X89115000Y-57000000D01*
G75*
G02*
X89265000Y-57150000I0J-150000D01*
G01*
X89265000Y-58600000D01*
G75*
G02*
X89115000Y-58750000I-150000J0D01*
G01*
X88815000Y-58750000D01*
G75*
G02*
X88665000Y-58600000I0J150000D01*
G01*
X88665000Y-57150000D01*
G75*
G02*
X88815000Y-57000000I150000J0D01*
G01*
G37*
G36*
G01*
X87545000Y-57000000D02*
X87845000Y-57000000D01*
G75*
G02*
X87995000Y-57150000I0J-150000D01*
G01*
X87995000Y-58600000D01*
G75*
G02*
X87845000Y-58750000I-150000J0D01*
G01*
X87545000Y-58750000D01*
G75*
G02*
X87395000Y-58600000I0J150000D01*
G01*
X87395000Y-57150000D01*
G75*
G02*
X87545000Y-57000000I150000J0D01*
G01*
G37*
D10*
X81840000Y-86385280D03*
X94767000Y-83845280D03*
X76960000Y-91465280D03*
X64033000Y-94005280D03*
D12*
X78812889Y-75971501D03*
X75912889Y-75971501D03*
X75912889Y-78271501D03*
X78812889Y-78271501D03*
D13*
X270500000Y-54850000D03*
X270500000Y-58150000D03*
G36*
G01*
X81890041Y-78850400D02*
X80990039Y-78850400D01*
G75*
G02*
X80740040Y-78600401I0J249999D01*
G01*
X80740040Y-77950399D01*
G75*
G02*
X80990039Y-77700400I249999J0D01*
G01*
X81890041Y-77700400D01*
G75*
G02*
X82140040Y-77950399I0J-249999D01*
G01*
X82140040Y-78600401D01*
G75*
G02*
X81890041Y-78850400I-249999J0D01*
G01*
G37*
G36*
G01*
X81890041Y-76800400D02*
X80990039Y-76800400D01*
G75*
G02*
X80740040Y-76550401I0J249999D01*
G01*
X80740040Y-75900399D01*
G75*
G02*
X80990039Y-75650400I249999J0D01*
G01*
X81890041Y-75650400D01*
G75*
G02*
X82140040Y-75900399I0J-249999D01*
G01*
X82140040Y-76550401D01*
G75*
G02*
X81890041Y-76800400I-249999J0D01*
G01*
G37*
D14*
X46550040Y-67920400D03*
X46550040Y-74220400D03*
X50350040Y-67920400D03*
X50350040Y-74220400D03*
G36*
G01*
X74825000Y-74050001D02*
X74825000Y-73149999D01*
G75*
G02*
X75074999Y-72900000I249999J0D01*
G01*
X75725001Y-72900000D01*
G75*
G02*
X75975000Y-73149999I0J-249999D01*
G01*
X75975000Y-74050001D01*
G75*
G02*
X75725001Y-74300000I-249999J0D01*
G01*
X75074999Y-74300000D01*
G75*
G02*
X74825000Y-74050001I0J249999D01*
G01*
G37*
G36*
G01*
X76875000Y-74050001D02*
X76875000Y-73149999D01*
G75*
G02*
X77124999Y-72900000I249999J0D01*
G01*
X77775001Y-72900000D01*
G75*
G02*
X78025000Y-73149999I0J-249999D01*
G01*
X78025000Y-74050001D01*
G75*
G02*
X77775001Y-74300000I-249999J0D01*
G01*
X77124999Y-74300000D01*
G75*
G02*
X76875000Y-74050001I0J249999D01*
G01*
G37*
G36*
G01*
X70950000Y-70249999D02*
X70950000Y-71150001D01*
G75*
G02*
X70700001Y-71400000I-249999J0D01*
G01*
X70049999Y-71400000D01*
G75*
G02*
X69800000Y-71150001I0J249999D01*
G01*
X69800000Y-70249999D01*
G75*
G02*
X70049999Y-70000000I249999J0D01*
G01*
X70700001Y-70000000D01*
G75*
G02*
X70950000Y-70249999I0J-249999D01*
G01*
G37*
G36*
G01*
X73000000Y-70249999D02*
X73000000Y-71150001D01*
G75*
G02*
X72750001Y-71400000I-249999J0D01*
G01*
X72099999Y-71400000D01*
G75*
G02*
X71850000Y-71150001I0J249999D01*
G01*
X71850000Y-70249999D01*
G75*
G02*
X72099999Y-70000000I249999J0D01*
G01*
X72750001Y-70000000D01*
G75*
G02*
X73000000Y-70249999I0J-249999D01*
G01*
G37*
D15*
X222433790Y-100890400D03*
X224973790Y-113817400D03*
D16*
X50195000Y-28575040D03*
D17*
X48475000Y-28575040D03*
X48475000Y-26375040D03*
X50375000Y-26375040D03*
G36*
G01*
X32899999Y-23250000D02*
X33800001Y-23250000D01*
G75*
G02*
X34050000Y-23499999I0J-249999D01*
G01*
X34050000Y-24150001D01*
G75*
G02*
X33800001Y-24400000I-249999J0D01*
G01*
X32899999Y-24400000D01*
G75*
G02*
X32650000Y-24150001I0J249999D01*
G01*
X32650000Y-23499999D01*
G75*
G02*
X32899999Y-23250000I249999J0D01*
G01*
G37*
G36*
G01*
X32899999Y-25300000D02*
X33800001Y-25300000D01*
G75*
G02*
X34050000Y-25549999I0J-249999D01*
G01*
X34050000Y-26200001D01*
G75*
G02*
X33800001Y-26450000I-249999J0D01*
G01*
X32899999Y-26450000D01*
G75*
G02*
X32650000Y-26200001I0J249999D01*
G01*
X32650000Y-25549999D01*
G75*
G02*
X32899999Y-25300000I249999J0D01*
G01*
G37*
G36*
G01*
X58187500Y-28325000D02*
X58187500Y-29575000D01*
G75*
G02*
X57937500Y-29825000I-250000J0D01*
G01*
X57012500Y-29825000D01*
G75*
G02*
X56762500Y-29575000I0J250000D01*
G01*
X56762500Y-28325000D01*
G75*
G02*
X57012500Y-28075000I250000J0D01*
G01*
X57937500Y-28075000D01*
G75*
G02*
X58187500Y-28325000I0J-250000D01*
G01*
G37*
G36*
G01*
X55212500Y-28325000D02*
X55212500Y-29575000D01*
G75*
G02*
X54962500Y-29825000I-250000J0D01*
G01*
X54037500Y-29825000D01*
G75*
G02*
X53787500Y-29575000I0J250000D01*
G01*
X53787500Y-28325000D01*
G75*
G02*
X54037500Y-28075000I250000J0D01*
G01*
X54962500Y-28075000D01*
G75*
G02*
X55212500Y-28325000I0J-250000D01*
G01*
G37*
G36*
G01*
X75299999Y-83950000D02*
X76200001Y-83950000D01*
G75*
G02*
X76450000Y-84199999I0J-249999D01*
G01*
X76450000Y-84850001D01*
G75*
G02*
X76200001Y-85100000I-249999J0D01*
G01*
X75299999Y-85100000D01*
G75*
G02*
X75050000Y-84850001I0J249999D01*
G01*
X75050000Y-84199999D01*
G75*
G02*
X75299999Y-83950000I249999J0D01*
G01*
G37*
G36*
G01*
X75299999Y-86000000D02*
X76200001Y-86000000D01*
G75*
G02*
X76450000Y-86249999I0J-249999D01*
G01*
X76450000Y-86900001D01*
G75*
G02*
X76200001Y-87150000I-249999J0D01*
G01*
X75299999Y-87150000D01*
G75*
G02*
X75050000Y-86900001I0J249999D01*
G01*
X75050000Y-86249999D01*
G75*
G02*
X75299999Y-86000000I249999J0D01*
G01*
G37*
G36*
G01*
X57350000Y-83550001D02*
X57350000Y-82649999D01*
G75*
G02*
X57599999Y-82400000I249999J0D01*
G01*
X58250001Y-82400000D01*
G75*
G02*
X58500000Y-82649999I0J-249999D01*
G01*
X58500000Y-83550001D01*
G75*
G02*
X58250001Y-83800000I-249999J0D01*
G01*
X57599999Y-83800000D01*
G75*
G02*
X57350000Y-83550001I0J249999D01*
G01*
G37*
G36*
G01*
X55300000Y-83550001D02*
X55300000Y-82649999D01*
G75*
G02*
X55549999Y-82400000I249999J0D01*
G01*
X56200001Y-82400000D01*
G75*
G02*
X56450000Y-82649999I0J-249999D01*
G01*
X56450000Y-83550001D01*
G75*
G02*
X56200001Y-83800000I-249999J0D01*
G01*
X55549999Y-83800000D01*
G75*
G02*
X55300000Y-83550001I0J249999D01*
G01*
G37*
G36*
G01*
X69025000Y-67349999D02*
X69025000Y-68250001D01*
G75*
G02*
X68775001Y-68500000I-249999J0D01*
G01*
X68124999Y-68500000D01*
G75*
G02*
X67875000Y-68250001I0J249999D01*
G01*
X67875000Y-67349999D01*
G75*
G02*
X68124999Y-67100000I249999J0D01*
G01*
X68775001Y-67100000D01*
G75*
G02*
X69025000Y-67349999I0J-249999D01*
G01*
G37*
G36*
G01*
X66975000Y-67349999D02*
X66975000Y-68250001D01*
G75*
G02*
X66725001Y-68500000I-249999J0D01*
G01*
X66074999Y-68500000D01*
G75*
G02*
X65825000Y-68250001I0J249999D01*
G01*
X65825000Y-67349999D01*
G75*
G02*
X66074999Y-67100000I249999J0D01*
G01*
X66725001Y-67100000D01*
G75*
G02*
X66975000Y-67349999I0J-249999D01*
G01*
G37*
G36*
G01*
X42100001Y-31700000D02*
X41199999Y-31700000D01*
G75*
G02*
X40950000Y-31450001I0J249999D01*
G01*
X40950000Y-30799999D01*
G75*
G02*
X41199999Y-30550000I249999J0D01*
G01*
X42100001Y-30550000D01*
G75*
G02*
X42350000Y-30799999I0J-249999D01*
G01*
X42350000Y-31450001D01*
G75*
G02*
X42100001Y-31700000I-249999J0D01*
G01*
G37*
G36*
G01*
X42100001Y-33750000D02*
X41199999Y-33750000D01*
G75*
G02*
X40950000Y-33500001I0J249999D01*
G01*
X40950000Y-32849999D01*
G75*
G02*
X41199999Y-32600000I249999J0D01*
G01*
X42100001Y-32600000D01*
G75*
G02*
X42350000Y-32849999I0J-249999D01*
G01*
X42350000Y-33500001D01*
G75*
G02*
X42100001Y-33750000I-249999J0D01*
G01*
G37*
G36*
G01*
X44150001Y-33700000D02*
X43249999Y-33700000D01*
G75*
G02*
X43000000Y-33450001I0J249999D01*
G01*
X43000000Y-32799999D01*
G75*
G02*
X43249999Y-32550000I249999J0D01*
G01*
X44150001Y-32550000D01*
G75*
G02*
X44400000Y-32799999I0J-249999D01*
G01*
X44400000Y-33450001D01*
G75*
G02*
X44150001Y-33700000I-249999J0D01*
G01*
G37*
G36*
G01*
X44150001Y-31650000D02*
X43249999Y-31650000D01*
G75*
G02*
X43000000Y-31400001I0J249999D01*
G01*
X43000000Y-30749999D01*
G75*
G02*
X43249999Y-30500000I249999J0D01*
G01*
X44150001Y-30500000D01*
G75*
G02*
X44400000Y-30749999I0J-249999D01*
G01*
X44400000Y-31400001D01*
G75*
G02*
X44150001Y-31650000I-249999J0D01*
G01*
G37*
G36*
G01*
X54149999Y-74350000D02*
X55050001Y-74350000D01*
G75*
G02*
X55300000Y-74599999I0J-249999D01*
G01*
X55300000Y-75250001D01*
G75*
G02*
X55050001Y-75500000I-249999J0D01*
G01*
X54149999Y-75500000D01*
G75*
G02*
X53900000Y-75250001I0J249999D01*
G01*
X53900000Y-74599999D01*
G75*
G02*
X54149999Y-74350000I249999J0D01*
G01*
G37*
G36*
G01*
X54149999Y-72300000D02*
X55050001Y-72300000D01*
G75*
G02*
X55300000Y-72549999I0J-249999D01*
G01*
X55300000Y-73200001D01*
G75*
G02*
X55050001Y-73450000I-249999J0D01*
G01*
X54149999Y-73450000D01*
G75*
G02*
X53900000Y-73200001I0J249999D01*
G01*
X53900000Y-72549999D01*
G75*
G02*
X54149999Y-72300000I249999J0D01*
G01*
G37*
G36*
G01*
X55300000Y-85650001D02*
X55300000Y-84749999D01*
G75*
G02*
X55549999Y-84500000I249999J0D01*
G01*
X56200001Y-84500000D01*
G75*
G02*
X56450000Y-84749999I0J-249999D01*
G01*
X56450000Y-85650001D01*
G75*
G02*
X56200001Y-85900000I-249999J0D01*
G01*
X55549999Y-85900000D01*
G75*
G02*
X55300000Y-85650001I0J249999D01*
G01*
G37*
G36*
G01*
X57350000Y-85650001D02*
X57350000Y-84749999D01*
G75*
G02*
X57599999Y-84500000I249999J0D01*
G01*
X58250001Y-84500000D01*
G75*
G02*
X58500000Y-84749999I0J-249999D01*
G01*
X58500000Y-85650001D01*
G75*
G02*
X58250001Y-85900000I-249999J0D01*
G01*
X57599999Y-85900000D01*
G75*
G02*
X57350000Y-85650001I0J249999D01*
G01*
G37*
G36*
G01*
X49950000Y-24250041D02*
X49950000Y-23350039D01*
G75*
G02*
X50199999Y-23100040I249999J0D01*
G01*
X50850001Y-23100040D01*
G75*
G02*
X51100000Y-23350039I0J-249999D01*
G01*
X51100000Y-24250041D01*
G75*
G02*
X50850001Y-24500040I-249999J0D01*
G01*
X50199999Y-24500040D01*
G75*
G02*
X49950000Y-24250041I0J249999D01*
G01*
G37*
G36*
G01*
X47900000Y-24250041D02*
X47900000Y-23350039D01*
G75*
G02*
X48149999Y-23100040I249999J0D01*
G01*
X48800001Y-23100040D01*
G75*
G02*
X49050000Y-23350039I0J-249999D01*
G01*
X49050000Y-24250041D01*
G75*
G02*
X48800001Y-24500040I-249999J0D01*
G01*
X48149999Y-24500040D01*
G75*
G02*
X47900000Y-24250041I0J249999D01*
G01*
G37*
G36*
G01*
X62200000Y-88149999D02*
X62200000Y-89050001D01*
G75*
G02*
X61950001Y-89300000I-249999J0D01*
G01*
X61299999Y-89300000D01*
G75*
G02*
X61050000Y-89050001I0J249999D01*
G01*
X61050000Y-88149999D01*
G75*
G02*
X61299999Y-87900000I249999J0D01*
G01*
X61950001Y-87900000D01*
G75*
G02*
X62200000Y-88149999I0J-249999D01*
G01*
G37*
G36*
G01*
X60150000Y-88149999D02*
X60150000Y-89050001D01*
G75*
G02*
X59900001Y-89300000I-249999J0D01*
G01*
X59249999Y-89300000D01*
G75*
G02*
X59000000Y-89050001I0J249999D01*
G01*
X59000000Y-88149999D01*
G75*
G02*
X59249999Y-87900000I249999J0D01*
G01*
X59900001Y-87900000D01*
G75*
G02*
X60150000Y-88149999I0J-249999D01*
G01*
G37*
G36*
G01*
X57250001Y-75500000D02*
X56349999Y-75500000D01*
G75*
G02*
X56100000Y-75250001I0J249999D01*
G01*
X56100000Y-74599999D01*
G75*
G02*
X56349999Y-74350000I249999J0D01*
G01*
X57250001Y-74350000D01*
G75*
G02*
X57500000Y-74599999I0J-249999D01*
G01*
X57500000Y-75250001D01*
G75*
G02*
X57250001Y-75500000I-249999J0D01*
G01*
G37*
G36*
G01*
X57250001Y-73450000D02*
X56349999Y-73450000D01*
G75*
G02*
X56100000Y-73200001I0J249999D01*
G01*
X56100000Y-72549999D01*
G75*
G02*
X56349999Y-72300000I249999J0D01*
G01*
X57250001Y-72300000D01*
G75*
G02*
X57500000Y-72549999I0J-249999D01*
G01*
X57500000Y-73200001D01*
G75*
G02*
X57250001Y-73450000I-249999J0D01*
G01*
G37*
D10*
X253289840Y-29235040D03*
X266216840Y-26695040D03*
X75717000Y-26695040D03*
X62790000Y-29235040D03*
X81840000Y-29235040D03*
X94767000Y-26695040D03*
X113817000Y-26695040D03*
X100890000Y-29235040D03*
X132867000Y-26695040D03*
X119940000Y-29235040D03*
X138990000Y-29235040D03*
X151917000Y-26695040D03*
X196140600Y-29235080D03*
X209067600Y-26695080D03*
X215190680Y-29235040D03*
X228117680Y-26695040D03*
X234240760Y-29235040D03*
X247167760Y-26695040D03*
X272339840Y-29235040D03*
X285266840Y-26695040D03*
X57910000Y-34315040D03*
X44983000Y-36855040D03*
X180492880Y-64795240D03*
X167565880Y-67335240D03*
X234240760Y-86385320D03*
X247167760Y-83845320D03*
X291389840Y-29235040D03*
X304316840Y-26695040D03*
X266217840Y-83845320D03*
X253290840Y-86385320D03*
X167565040Y-48285400D03*
X180492040Y-45745400D03*
X177090040Y-29235400D03*
X190017040Y-26695400D03*
X158040040Y-29235400D03*
X170967040Y-26695400D03*
X66192000Y-64795200D03*
X53265000Y-67335200D03*
X151917000Y-83845280D03*
X138990000Y-86385280D03*
X113817000Y-83845280D03*
X100890000Y-86385280D03*
X104292000Y-64795200D03*
X91365000Y-67335200D03*
X272341080Y-105435360D03*
X285268080Y-102895360D03*
X91365000Y-48285120D03*
X104292000Y-45745120D03*
X25933000Y-36855040D03*
X38860000Y-34315040D03*
X110415000Y-67335200D03*
X123342000Y-64795200D03*
X142392000Y-64795200D03*
X129465000Y-67335200D03*
X149758560Y-74955240D03*
X162685560Y-72415240D03*
X237642720Y-45745160D03*
X224715720Y-48285160D03*
X218592640Y-64795200D03*
X205665640Y-67335200D03*
X237642720Y-64795240D03*
X224715720Y-67335240D03*
X245008800Y-74955240D03*
X257935800Y-72415240D03*
X25933040Y-94005400D03*
X38860040Y-91465400D03*
X57910040Y-91465400D03*
X44983040Y-94005400D03*
X228117680Y-83845280D03*
X215190680Y-86385280D03*
X209067600Y-83845280D03*
X196140600Y-86385280D03*
X245008800Y-55905160D03*
X257935800Y-53365160D03*
X275742880Y-45745160D03*
X262815880Y-48285160D03*
X53265000Y-48285120D03*
X66192000Y-45745120D03*
X110415000Y-48285120D03*
X123342000Y-45745120D03*
X291391160Y-105435400D03*
X304318160Y-102895400D03*
X72315000Y-67335200D03*
X85242000Y-64795200D03*
X129465000Y-48285120D03*
X142392000Y-45745120D03*
X218592640Y-45745160D03*
X205665640Y-48285160D03*
X272341080Y-86385320D03*
X285268080Y-83845320D03*
X132867000Y-83845280D03*
X119940000Y-86385280D03*
X72315000Y-48285120D03*
X85242000Y-45745120D03*
X64033040Y-113055400D03*
X76960040Y-110515400D03*
X161442560Y-45745120D03*
X148515560Y-48285120D03*
X299555480Y-45745160D03*
X286628480Y-48285160D03*
X24690040Y-105435400D03*
X37617040Y-102895400D03*
X88984060Y-105435400D03*
X101911060Y-102895400D03*
X286628480Y-67335240D03*
X299555480Y-64795240D03*
X65171290Y-105435400D03*
X78098290Y-102895400D03*
X201923290Y-102895400D03*
X188996290Y-105435400D03*
X36596340Y-86385320D03*
X49523340Y-83845320D03*
X48385080Y-91465320D03*
X35458080Y-94005320D03*
X119940440Y-105435400D03*
X132867440Y-102895400D03*
X240023290Y-102895400D03*
X227096290Y-105435400D03*
X196140040Y-105435400D03*
X209067040Y-102895400D03*
X42379500Y-45745120D03*
X29452500Y-48285120D03*
X131729180Y-110515400D03*
X118802180Y-113055400D03*
D15*
X276885040Y-76960400D03*
X274345040Y-64033400D03*
D10*
X275742040Y-64795400D03*
X262815040Y-67335400D03*
D15*
X274345040Y-44983400D03*
X276885040Y-57910400D03*
D10*
X292633040Y-55905400D03*
X305560040Y-53365400D03*
X190017040Y-83845400D03*
X177090040Y-86385400D03*
X298416290Y-53365400D03*
X285489290Y-55905400D03*
X170967040Y-83845400D03*
X158040040Y-86385400D03*
X148515040Y-105435400D03*
X161442040Y-102895400D03*
X167565040Y-105435400D03*
X180492040Y-102895400D03*
X31833820Y-67335240D03*
X44760820Y-64795240D03*
X43622540Y-72415400D03*
X30695540Y-74955400D03*
X285489290Y-74955400D03*
X298416290Y-72415400D03*
X56667040Y-102895400D03*
X43740040Y-105435400D03*
X87845540Y-113055400D03*
X100772540Y-110515400D03*
X267460040Y-110515400D03*
X254533040Y-113055400D03*
X305560040Y-72415400D03*
X292633040Y-74955400D03*
X243647540Y-110515400D03*
X230720540Y-113055400D03*
X186615040Y-48285400D03*
X199542040Y-45745400D03*
D13*
X272350000Y-35850000D03*
X272350000Y-39150000D03*
X267600000Y-54850000D03*
X267600000Y-58150000D03*
X205650000Y-51650040D03*
X205650000Y-54950040D03*
X177100000Y-37550000D03*
X177100000Y-34250000D03*
X167575000Y-56650000D03*
X167575000Y-53350000D03*
X119900000Y-35100040D03*
X119900000Y-38400040D03*
X90500000Y-95700040D03*
X90500000Y-92400040D03*
X85000000Y-91600040D03*
X85000000Y-94900040D03*
X37400000Y-114050000D03*
X37400000Y-110750000D03*
X53800000Y-110750000D03*
X53800000Y-114050000D03*
X191250000Y-38400040D03*
X191250000Y-35100040D03*
X267400000Y-34250040D03*
X267400000Y-37550040D03*
X229300000Y-38400040D03*
X229300000Y-35100040D03*
X210575000Y-37550040D03*
X210575000Y-34250040D03*
X134400000Y-37550040D03*
X134400000Y-34250040D03*
X96300000Y-37550040D03*
X96300000Y-34250040D03*
X76900000Y-38400040D03*
X76900000Y-35100040D03*
X67600000Y-35100040D03*
X67600000Y-38400040D03*
X172050040Y-90750400D03*
X172050040Y-94050400D03*
X169450000Y-95700040D03*
X169450000Y-92400040D03*
X286100000Y-36250520D03*
X286100000Y-39550520D03*
X228550000Y-55850040D03*
X228550000Y-52550040D03*
X215900000Y-53350040D03*
X215900000Y-56650040D03*
X139700000Y-53350040D03*
X139700000Y-56650040D03*
X101500000Y-56650040D03*
X101500000Y-53350040D03*
X82700000Y-55850040D03*
X82700000Y-52550040D03*
X39700000Y-52550040D03*
X39700000Y-55850040D03*
X197000000Y-52550040D03*
X197000000Y-55850040D03*
X199500000Y-58250040D03*
X199500000Y-54950040D03*
X191050040Y-94050400D03*
X191050040Y-90750400D03*
X224656250Y-58250040D03*
X224656250Y-54950040D03*
X218500000Y-57450040D03*
X218500000Y-54150040D03*
X142300000Y-57450040D03*
X142300000Y-54150040D03*
X104300000Y-54150040D03*
X104300000Y-57450040D03*
X85300000Y-58250040D03*
X85300000Y-54950040D03*
X42350000Y-58250040D03*
X42350000Y-54950040D03*
X180500040Y-95700040D03*
X180500040Y-92400040D03*
X276350000Y-94850040D03*
X276350000Y-91550040D03*
X234200000Y-90750000D03*
X234200000Y-94050000D03*
X229200000Y-90750000D03*
X229200000Y-94050000D03*
X240250000Y-54950000D03*
X240250000Y-58250000D03*
X209450000Y-91600040D03*
X209450000Y-94900040D03*
X130250000Y-91600040D03*
X130250000Y-94900040D03*
X95650000Y-94900040D03*
X95650000Y-91600040D03*
X82200000Y-92050000D03*
X82200000Y-95350000D03*
X42800000Y-109050000D03*
X42800000Y-112350000D03*
X303600000Y-92400040D03*
X303600000Y-95700040D03*
X279850000Y-93250040D03*
X279850000Y-96550040D03*
X240025000Y-96550040D03*
X240025000Y-93250040D03*
X132850000Y-96500040D03*
X132850000Y-93200040D03*
X101900040Y-96500040D03*
X101900040Y-93200040D03*
X40100000Y-114850000D03*
X40100000Y-111550000D03*
X172000000Y-35100040D03*
X172000000Y-38400040D03*
X301700000Y-36750000D03*
X301700000Y-33450000D03*
X263500000Y-38400000D03*
X263500000Y-35100000D03*
X248650000Y-37550040D03*
X248650000Y-34250040D03*
X153450000Y-37550040D03*
X153450000Y-34250040D03*
X115000000Y-38400040D03*
X115000000Y-35100040D03*
X65000000Y-37550040D03*
X65000000Y-34250040D03*
X63300000Y-56650040D03*
X63300000Y-53350040D03*
X177900000Y-52550040D03*
X177900000Y-55850040D03*
X281300000Y-38750520D03*
X281300000Y-35450520D03*
X234450000Y-53350000D03*
X234450000Y-56650000D03*
X158900000Y-55850040D03*
X158900000Y-52550040D03*
X120700000Y-55850040D03*
X120700000Y-52550040D03*
X66100000Y-54150040D03*
X66100000Y-57450040D03*
X180500000Y-58250040D03*
X180500000Y-54950040D03*
X237450000Y-57450000D03*
X237450000Y-54150000D03*
X161700000Y-58250040D03*
X161700000Y-54950040D03*
X123300000Y-54950040D03*
X123300000Y-58250040D03*
X58200000Y-109650000D03*
X58200000Y-106350000D03*
X295250000Y-94050000D03*
X295250000Y-90750000D03*
X263830040Y-92400040D03*
X263830040Y-95700040D03*
X267300000Y-94050000D03*
X267300000Y-90750000D03*
X247850000Y-91550040D03*
X247850000Y-94850040D03*
X153000000Y-94050400D03*
X153000000Y-90750400D03*
X206850000Y-96500040D03*
X206850000Y-93200040D03*
X111050000Y-94100040D03*
X111050000Y-90800040D03*
X87800000Y-92400040D03*
X87800000Y-95700040D03*
D10*
X186615040Y-67335400D03*
X199542040Y-64795400D03*
X234240040Y-105435400D03*
X247167040Y-102895400D03*
D13*
X225450000Y-95700040D03*
X225450000Y-92400040D03*
D10*
X250908790Y-105435400D03*
X263835790Y-102895400D03*
X158040040Y-105435400D03*
X170967040Y-102895400D03*
D15*
X279266250Y-76960040D03*
X276726250Y-64033040D03*
D10*
X281865000Y-29235040D03*
X294792000Y-26695040D03*
G36*
G01*
X89499999Y-75800000D02*
X90400001Y-75800000D01*
G75*
G02*
X90650000Y-76049999I0J-249999D01*
G01*
X90650000Y-76750001D01*
G75*
G02*
X90400001Y-77000000I-249999J0D01*
G01*
X89499999Y-77000000D01*
G75*
G02*
X89250000Y-76750001I0J249999D01*
G01*
X89250000Y-76049999D01*
G75*
G02*
X89499999Y-75800000I249999J0D01*
G01*
G37*
G36*
G01*
X89499999Y-73800000D02*
X90400001Y-73800000D01*
G75*
G02*
X90650000Y-74049999I0J-249999D01*
G01*
X90650000Y-74750001D01*
G75*
G02*
X90400001Y-75000000I-249999J0D01*
G01*
X89499999Y-75000000D01*
G75*
G02*
X89250000Y-74750001I0J249999D01*
G01*
X89250000Y-74049999D01*
G75*
G02*
X89499999Y-73800000I249999J0D01*
G01*
G37*
G36*
G01*
X86399999Y-73800000D02*
X87300001Y-73800000D01*
G75*
G02*
X87550000Y-74049999I0J-249999D01*
G01*
X87550000Y-74750001D01*
G75*
G02*
X87300001Y-75000000I-249999J0D01*
G01*
X86399999Y-75000000D01*
G75*
G02*
X86150000Y-74750001I0J249999D01*
G01*
X86150000Y-74049999D01*
G75*
G02*
X86399999Y-73800000I249999J0D01*
G01*
G37*
G36*
G01*
X86399999Y-75800000D02*
X87300001Y-75800000D01*
G75*
G02*
X87550000Y-76049999I0J-249999D01*
G01*
X87550000Y-76750001D01*
G75*
G02*
X87300001Y-77000000I-249999J0D01*
G01*
X86399999Y-77000000D01*
G75*
G02*
X86150000Y-76750001I0J249999D01*
G01*
X86150000Y-76049999D01*
G75*
G02*
X86399999Y-75800000I249999J0D01*
G01*
G37*
D15*
X248151250Y-44983520D03*
X250691250Y-57910520D03*
X258152540Y-43740400D03*
X260692540Y-56667400D03*
X250691250Y-76960520D03*
X248151250Y-64033520D03*
X260692540Y-75717400D03*
X258152540Y-62790400D03*
D18*
X64500000Y-75910000D03*
X65000000Y-75910000D03*
X65500000Y-75910000D03*
X66000000Y-75910000D03*
X66500000Y-75910000D03*
X67000000Y-75910000D03*
X67500000Y-75910000D03*
X68000000Y-75910000D03*
X68500000Y-75910000D03*
X69000000Y-75910000D03*
X69500000Y-75910000D03*
D19*
X70400000Y-76810000D03*
X70400000Y-77310000D03*
X70400000Y-77810000D03*
X70400000Y-78310000D03*
X70400000Y-78810000D03*
X70400000Y-79310000D03*
X70400000Y-79810000D03*
X70400000Y-80310000D03*
X70400000Y-80810000D03*
X70400000Y-81310000D03*
X70400000Y-81810000D03*
D18*
X69500000Y-82710000D03*
X69000000Y-82710000D03*
X68500000Y-82710000D03*
X68000000Y-82710000D03*
X67500000Y-82710000D03*
X67000000Y-82710000D03*
X66500000Y-82710000D03*
X66000000Y-82710000D03*
X65500000Y-82710000D03*
X65000000Y-82710000D03*
X64500000Y-82710000D03*
D19*
X63600000Y-81810000D03*
X63600000Y-81310000D03*
X63600000Y-80810000D03*
X63600000Y-80310000D03*
X63600000Y-79810000D03*
X63600000Y-79310000D03*
X63600000Y-78810000D03*
X63600000Y-78310000D03*
X63600000Y-77810000D03*
X63600000Y-77310000D03*
X63600000Y-76810000D03*
D20*
X68931250Y-81241250D03*
X67643750Y-81241250D03*
X66356250Y-81241250D03*
X65068750Y-81241250D03*
X68931250Y-79953750D03*
X67643750Y-79953750D03*
X66356250Y-79953750D03*
X65068750Y-79953750D03*
X68931250Y-78666250D03*
X67643750Y-78666250D03*
X66356250Y-78666250D03*
X65068750Y-78666250D03*
X68931250Y-77378750D03*
X67643750Y-77378750D03*
X66356250Y-77378750D03*
X65068750Y-77378750D03*
M02*
