G04 #@! TF.GenerationSoftware,KiCad,Pcbnew,(5.1.10-1-10_14)*
G04 #@! TF.CreationDate,2021-05-27T16:13:23+09:00*
G04 #@! TF.ProjectId,Jones,4a6f6e65-732e-46b6-9963-61645f706362,v.0.3.2*
G04 #@! TF.SameCoordinates,Original*
G04 #@! TF.FileFunction,Paste,Bot*
G04 #@! TF.FilePolarity,Positive*
%FSLAX46Y46*%
G04 Gerber Fmt 4.6, Leading zero omitted, Abs format (unit mm)*
G04 Created by KiCad (PCBNEW (5.1.10-1-10_14)) date 2021-05-27 16:13:23*
%MOMM*%
%LPD*%
G01*
G04 APERTURE LIST*
%ADD10R,2.550000X2.500000*%
%ADD11R,2.100000X1.800000*%
%ADD12R,1.200000X0.900000*%
%ADD13R,1.000000X1.700000*%
%ADD14R,2.500000X2.550000*%
%ADD15R,1.200000X1.400000*%
%ADD16R,1.000000X1.400000*%
%ADD17R,0.900000X1.200000*%
%ADD18R,0.550000X1.500000*%
%ADD19R,1.500000X0.550000*%
%ADD20R,1.200000X1.500000*%
G04 APERTURE END LIST*
D10*
X81840000Y-86385280D03*
X94767000Y-83845280D03*
X76960000Y-91465280D03*
X64033000Y-94005280D03*
D11*
X78812889Y-75971501D03*
X75912889Y-75971501D03*
X75912889Y-78271501D03*
X78812889Y-78271501D03*
D12*
X302650000Y-62300040D03*
X302650000Y-65600040D03*
G36*
G01*
X81890041Y-78850400D02*
X80990039Y-78850400D01*
G75*
G02*
X80740040Y-78600401I0J249999D01*
G01*
X80740040Y-77950399D01*
G75*
G02*
X80990039Y-77700400I249999J0D01*
G01*
X81890041Y-77700400D01*
G75*
G02*
X82140040Y-77950399I0J-249999D01*
G01*
X82140040Y-78600401D01*
G75*
G02*
X81890041Y-78850400I-249999J0D01*
G01*
G37*
G36*
G01*
X81890041Y-76800400D02*
X80990039Y-76800400D01*
G75*
G02*
X80740040Y-76550401I0J249999D01*
G01*
X80740040Y-75900399D01*
G75*
G02*
X80990039Y-75650400I249999J0D01*
G01*
X81890041Y-75650400D01*
G75*
G02*
X82140040Y-75900399I0J-249999D01*
G01*
X82140040Y-76550401D01*
G75*
G02*
X81890041Y-76800400I-249999J0D01*
G01*
G37*
D13*
X46550040Y-67920400D03*
X46550040Y-74220400D03*
X50350040Y-67920400D03*
X50350040Y-74220400D03*
G36*
G01*
X74825000Y-74050001D02*
X74825000Y-73149999D01*
G75*
G02*
X75074999Y-72900000I249999J0D01*
G01*
X75725001Y-72900000D01*
G75*
G02*
X75975000Y-73149999I0J-249999D01*
G01*
X75975000Y-74050001D01*
G75*
G02*
X75725001Y-74300000I-249999J0D01*
G01*
X75074999Y-74300000D01*
G75*
G02*
X74825000Y-74050001I0J249999D01*
G01*
G37*
G36*
G01*
X76875000Y-74050001D02*
X76875000Y-73149999D01*
G75*
G02*
X77124999Y-72900000I249999J0D01*
G01*
X77775001Y-72900000D01*
G75*
G02*
X78025000Y-73149999I0J-249999D01*
G01*
X78025000Y-74050001D01*
G75*
G02*
X77775001Y-74300000I-249999J0D01*
G01*
X77124999Y-74300000D01*
G75*
G02*
X76875000Y-74050001I0J249999D01*
G01*
G37*
G36*
G01*
X70950000Y-70249999D02*
X70950000Y-71150001D01*
G75*
G02*
X70700001Y-71400000I-249999J0D01*
G01*
X70049999Y-71400000D01*
G75*
G02*
X69800000Y-71150001I0J249999D01*
G01*
X69800000Y-70249999D01*
G75*
G02*
X70049999Y-70000000I249999J0D01*
G01*
X70700001Y-70000000D01*
G75*
G02*
X70950000Y-70249999I0J-249999D01*
G01*
G37*
G36*
G01*
X73000000Y-70249999D02*
X73000000Y-71150001D01*
G75*
G02*
X72750001Y-71400000I-249999J0D01*
G01*
X72099999Y-71400000D01*
G75*
G02*
X71850000Y-71150001I0J249999D01*
G01*
X71850000Y-70249999D01*
G75*
G02*
X72099999Y-70000000I249999J0D01*
G01*
X72750001Y-70000000D01*
G75*
G02*
X73000000Y-70249999I0J-249999D01*
G01*
G37*
D14*
X222433790Y-100890400D03*
X224973790Y-113817400D03*
D15*
X50195000Y-28575040D03*
D16*
X48475000Y-28575040D03*
X48475000Y-26375040D03*
X50375000Y-26375040D03*
G36*
G01*
X32899999Y-23250000D02*
X33800001Y-23250000D01*
G75*
G02*
X34050000Y-23499999I0J-249999D01*
G01*
X34050000Y-24150001D01*
G75*
G02*
X33800001Y-24400000I-249999J0D01*
G01*
X32899999Y-24400000D01*
G75*
G02*
X32650000Y-24150001I0J249999D01*
G01*
X32650000Y-23499999D01*
G75*
G02*
X32899999Y-23250000I249999J0D01*
G01*
G37*
G36*
G01*
X32899999Y-25300000D02*
X33800001Y-25300000D01*
G75*
G02*
X34050000Y-25549999I0J-249999D01*
G01*
X34050000Y-26200001D01*
G75*
G02*
X33800001Y-26450000I-249999J0D01*
G01*
X32899999Y-26450000D01*
G75*
G02*
X32650000Y-26200001I0J249999D01*
G01*
X32650000Y-25549999D01*
G75*
G02*
X32899999Y-25300000I249999J0D01*
G01*
G37*
G36*
G01*
X58187500Y-28325000D02*
X58187500Y-29575000D01*
G75*
G02*
X57937500Y-29825000I-250000J0D01*
G01*
X57012500Y-29825000D01*
G75*
G02*
X56762500Y-29575000I0J250000D01*
G01*
X56762500Y-28325000D01*
G75*
G02*
X57012500Y-28075000I250000J0D01*
G01*
X57937500Y-28075000D01*
G75*
G02*
X58187500Y-28325000I0J-250000D01*
G01*
G37*
G36*
G01*
X55212500Y-28325000D02*
X55212500Y-29575000D01*
G75*
G02*
X54962500Y-29825000I-250000J0D01*
G01*
X54037500Y-29825000D01*
G75*
G02*
X53787500Y-29575000I0J250000D01*
G01*
X53787500Y-28325000D01*
G75*
G02*
X54037500Y-28075000I250000J0D01*
G01*
X54962500Y-28075000D01*
G75*
G02*
X55212500Y-28325000I0J-250000D01*
G01*
G37*
G36*
G01*
X75299999Y-83950000D02*
X76200001Y-83950000D01*
G75*
G02*
X76450000Y-84199999I0J-249999D01*
G01*
X76450000Y-84850001D01*
G75*
G02*
X76200001Y-85100000I-249999J0D01*
G01*
X75299999Y-85100000D01*
G75*
G02*
X75050000Y-84850001I0J249999D01*
G01*
X75050000Y-84199999D01*
G75*
G02*
X75299999Y-83950000I249999J0D01*
G01*
G37*
G36*
G01*
X75299999Y-86000000D02*
X76200001Y-86000000D01*
G75*
G02*
X76450000Y-86249999I0J-249999D01*
G01*
X76450000Y-86900001D01*
G75*
G02*
X76200001Y-87150000I-249999J0D01*
G01*
X75299999Y-87150000D01*
G75*
G02*
X75050000Y-86900001I0J249999D01*
G01*
X75050000Y-86249999D01*
G75*
G02*
X75299999Y-86000000I249999J0D01*
G01*
G37*
G36*
G01*
X57350000Y-83550001D02*
X57350000Y-82649999D01*
G75*
G02*
X57599999Y-82400000I249999J0D01*
G01*
X58250001Y-82400000D01*
G75*
G02*
X58500000Y-82649999I0J-249999D01*
G01*
X58500000Y-83550001D01*
G75*
G02*
X58250001Y-83800000I-249999J0D01*
G01*
X57599999Y-83800000D01*
G75*
G02*
X57350000Y-83550001I0J249999D01*
G01*
G37*
G36*
G01*
X55300000Y-83550001D02*
X55300000Y-82649999D01*
G75*
G02*
X55549999Y-82400000I249999J0D01*
G01*
X56200001Y-82400000D01*
G75*
G02*
X56450000Y-82649999I0J-249999D01*
G01*
X56450000Y-83550001D01*
G75*
G02*
X56200001Y-83800000I-249999J0D01*
G01*
X55549999Y-83800000D01*
G75*
G02*
X55300000Y-83550001I0J249999D01*
G01*
G37*
G36*
G01*
X69500000Y-67500039D02*
X69500000Y-68400041D01*
G75*
G02*
X69250001Y-68650040I-249999J0D01*
G01*
X68599999Y-68650040D01*
G75*
G02*
X68350000Y-68400041I0J249999D01*
G01*
X68350000Y-67500039D01*
G75*
G02*
X68599999Y-67250040I249999J0D01*
G01*
X69250001Y-67250040D01*
G75*
G02*
X69500000Y-67500039I0J-249999D01*
G01*
G37*
G36*
G01*
X67450000Y-67500039D02*
X67450000Y-68400041D01*
G75*
G02*
X67200001Y-68650040I-249999J0D01*
G01*
X66549999Y-68650040D01*
G75*
G02*
X66300000Y-68400041I0J249999D01*
G01*
X66300000Y-67500039D01*
G75*
G02*
X66549999Y-67250040I249999J0D01*
G01*
X67200001Y-67250040D01*
G75*
G02*
X67450000Y-67500039I0J-249999D01*
G01*
G37*
G36*
G01*
X41500000Y-31300039D02*
X41500000Y-32200041D01*
G75*
G02*
X41250001Y-32450040I-249999J0D01*
G01*
X40599999Y-32450040D01*
G75*
G02*
X40350000Y-32200041I0J249999D01*
G01*
X40350000Y-31300039D01*
G75*
G02*
X40599999Y-31050040I249999J0D01*
G01*
X41250001Y-31050040D01*
G75*
G02*
X41500000Y-31300039I0J-249999D01*
G01*
G37*
G36*
G01*
X43550000Y-31300039D02*
X43550000Y-32200041D01*
G75*
G02*
X43300001Y-32450040I-249999J0D01*
G01*
X42649999Y-32450040D01*
G75*
G02*
X42400000Y-32200041I0J249999D01*
G01*
X42400000Y-31300039D01*
G75*
G02*
X42649999Y-31050040I249999J0D01*
G01*
X43300001Y-31050040D01*
G75*
G02*
X43550000Y-31300039I0J-249999D01*
G01*
G37*
G36*
G01*
X42400001Y-36350040D02*
X41499999Y-36350040D01*
G75*
G02*
X41250000Y-36100041I0J249999D01*
G01*
X41250000Y-35450039D01*
G75*
G02*
X41499999Y-35200040I249999J0D01*
G01*
X42400001Y-35200040D01*
G75*
G02*
X42650000Y-35450039I0J-249999D01*
G01*
X42650000Y-36100041D01*
G75*
G02*
X42400001Y-36350040I-249999J0D01*
G01*
G37*
G36*
G01*
X42400001Y-34300040D02*
X41499999Y-34300040D01*
G75*
G02*
X41250000Y-34050041I0J249999D01*
G01*
X41250000Y-33400039D01*
G75*
G02*
X41499999Y-33150040I249999J0D01*
G01*
X42400001Y-33150040D01*
G75*
G02*
X42650000Y-33400039I0J-249999D01*
G01*
X42650000Y-34050041D01*
G75*
G02*
X42400001Y-34300040I-249999J0D01*
G01*
G37*
G36*
G01*
X54149999Y-74350000D02*
X55050001Y-74350000D01*
G75*
G02*
X55300000Y-74599999I0J-249999D01*
G01*
X55300000Y-75250001D01*
G75*
G02*
X55050001Y-75500000I-249999J0D01*
G01*
X54149999Y-75500000D01*
G75*
G02*
X53900000Y-75250001I0J249999D01*
G01*
X53900000Y-74599999D01*
G75*
G02*
X54149999Y-74350000I249999J0D01*
G01*
G37*
G36*
G01*
X54149999Y-72300000D02*
X55050001Y-72300000D01*
G75*
G02*
X55300000Y-72549999I0J-249999D01*
G01*
X55300000Y-73200001D01*
G75*
G02*
X55050001Y-73450000I-249999J0D01*
G01*
X54149999Y-73450000D01*
G75*
G02*
X53900000Y-73200001I0J249999D01*
G01*
X53900000Y-72549999D01*
G75*
G02*
X54149999Y-72300000I249999J0D01*
G01*
G37*
G36*
G01*
X55300000Y-85650001D02*
X55300000Y-84749999D01*
G75*
G02*
X55549999Y-84500000I249999J0D01*
G01*
X56200001Y-84500000D01*
G75*
G02*
X56450000Y-84749999I0J-249999D01*
G01*
X56450000Y-85650001D01*
G75*
G02*
X56200001Y-85900000I-249999J0D01*
G01*
X55549999Y-85900000D01*
G75*
G02*
X55300000Y-85650001I0J249999D01*
G01*
G37*
G36*
G01*
X57350000Y-85650001D02*
X57350000Y-84749999D01*
G75*
G02*
X57599999Y-84500000I249999J0D01*
G01*
X58250001Y-84500000D01*
G75*
G02*
X58500000Y-84749999I0J-249999D01*
G01*
X58500000Y-85650001D01*
G75*
G02*
X58250001Y-85900000I-249999J0D01*
G01*
X57599999Y-85900000D01*
G75*
G02*
X57350000Y-85650001I0J249999D01*
G01*
G37*
G36*
G01*
X49950000Y-24250041D02*
X49950000Y-23350039D01*
G75*
G02*
X50199999Y-23100040I249999J0D01*
G01*
X50850001Y-23100040D01*
G75*
G02*
X51100000Y-23350039I0J-249999D01*
G01*
X51100000Y-24250041D01*
G75*
G02*
X50850001Y-24500040I-249999J0D01*
G01*
X50199999Y-24500040D01*
G75*
G02*
X49950000Y-24250041I0J249999D01*
G01*
G37*
G36*
G01*
X47900000Y-24250041D02*
X47900000Y-23350039D01*
G75*
G02*
X48149999Y-23100040I249999J0D01*
G01*
X48800001Y-23100040D01*
G75*
G02*
X49050000Y-23350039I0J-249999D01*
G01*
X49050000Y-24250041D01*
G75*
G02*
X48800001Y-24500040I-249999J0D01*
G01*
X48149999Y-24500040D01*
G75*
G02*
X47900000Y-24250041I0J249999D01*
G01*
G37*
G36*
G01*
X63100000Y-88249999D02*
X63100000Y-89150001D01*
G75*
G02*
X62850001Y-89400000I-249999J0D01*
G01*
X62199999Y-89400000D01*
G75*
G02*
X61950000Y-89150001I0J249999D01*
G01*
X61950000Y-88249999D01*
G75*
G02*
X62199999Y-88000000I249999J0D01*
G01*
X62850001Y-88000000D01*
G75*
G02*
X63100000Y-88249999I0J-249999D01*
G01*
G37*
G36*
G01*
X61050000Y-88249999D02*
X61050000Y-89150001D01*
G75*
G02*
X60800001Y-89400000I-249999J0D01*
G01*
X60149999Y-89400000D01*
G75*
G02*
X59900000Y-89150001I0J249999D01*
G01*
X59900000Y-88249999D01*
G75*
G02*
X60149999Y-88000000I249999J0D01*
G01*
X60800001Y-88000000D01*
G75*
G02*
X61050000Y-88249999I0J-249999D01*
G01*
G37*
G36*
G01*
X57250001Y-75500000D02*
X56349999Y-75500000D01*
G75*
G02*
X56100000Y-75250001I0J249999D01*
G01*
X56100000Y-74599999D01*
G75*
G02*
X56349999Y-74350000I249999J0D01*
G01*
X57250001Y-74350000D01*
G75*
G02*
X57500000Y-74599999I0J-249999D01*
G01*
X57500000Y-75250001D01*
G75*
G02*
X57250001Y-75500000I-249999J0D01*
G01*
G37*
G36*
G01*
X57250001Y-73450000D02*
X56349999Y-73450000D01*
G75*
G02*
X56100000Y-73200001I0J249999D01*
G01*
X56100000Y-72549999D01*
G75*
G02*
X56349999Y-72300000I249999J0D01*
G01*
X57250001Y-72300000D01*
G75*
G02*
X57500000Y-72549999I0J-249999D01*
G01*
X57500000Y-73200001D01*
G75*
G02*
X57250001Y-73450000I-249999J0D01*
G01*
G37*
D10*
X253289840Y-29235040D03*
X266216840Y-26695040D03*
X75717000Y-26695040D03*
X62790000Y-29235040D03*
X81840000Y-29235040D03*
X94767000Y-26695040D03*
X113817000Y-26695040D03*
X100890000Y-29235040D03*
X132867000Y-26695040D03*
X119940000Y-29235040D03*
X138990000Y-29235040D03*
X151917000Y-26695040D03*
X196140600Y-29235080D03*
X209067600Y-26695080D03*
X215190680Y-29235040D03*
X228117680Y-26695040D03*
X234240760Y-29235040D03*
X247167760Y-26695040D03*
X272339840Y-29235040D03*
X285266840Y-26695040D03*
X57910000Y-34315040D03*
X44983000Y-36855040D03*
X180492880Y-64795240D03*
X167565880Y-67335240D03*
X234240760Y-86385320D03*
X247167760Y-83845320D03*
X291389840Y-29235040D03*
X304316840Y-26695040D03*
X266217840Y-83845320D03*
X253290840Y-86385320D03*
X167565040Y-48285400D03*
X180492040Y-45745400D03*
X177090040Y-29235400D03*
X190017040Y-26695400D03*
X158040040Y-29235400D03*
X170967040Y-26695400D03*
X66192000Y-64795200D03*
X53265000Y-67335200D03*
X151917000Y-83845280D03*
X138990000Y-86385280D03*
X113817000Y-83845280D03*
X100890000Y-86385280D03*
X104292000Y-64795200D03*
X91365000Y-67335200D03*
X272341080Y-105435360D03*
X285268080Y-102895360D03*
X91365000Y-48285120D03*
X104292000Y-45745120D03*
X25933000Y-36855040D03*
X38860000Y-34315040D03*
X110415000Y-67335200D03*
X123342000Y-64795200D03*
X291391160Y-86385320D03*
X304318160Y-83845320D03*
X142392000Y-64795200D03*
X129465000Y-67335200D03*
X149758560Y-74955240D03*
X162685560Y-72415240D03*
X237642720Y-45745160D03*
X224715720Y-48285160D03*
X218592640Y-64795200D03*
X205665640Y-67335200D03*
X237642720Y-64795240D03*
X224715720Y-67335240D03*
X256692800Y-64795240D03*
X243765800Y-67335240D03*
X25933040Y-94005400D03*
X38860040Y-91465400D03*
X57910040Y-91465400D03*
X44983040Y-94005400D03*
X228117680Y-83845280D03*
X215190680Y-86385280D03*
X209067600Y-83845280D03*
X196140600Y-86385280D03*
X256692800Y-45745160D03*
X243765800Y-48285160D03*
X275742880Y-45745160D03*
X262815880Y-48285160D03*
X53265000Y-48285120D03*
X66192000Y-45745120D03*
X110415000Y-48285120D03*
X123342000Y-45745120D03*
X291391160Y-105435400D03*
X304318160Y-102895400D03*
X72315000Y-67335200D03*
X85242000Y-64795200D03*
X129465000Y-48285120D03*
X142392000Y-45745120D03*
X218592640Y-45745160D03*
X205665640Y-48285160D03*
X272341080Y-86385320D03*
X285268080Y-83845320D03*
X132867000Y-83845280D03*
X119940000Y-86385280D03*
X72315000Y-48285120D03*
X85242000Y-45745120D03*
X64033040Y-113055400D03*
X76960040Y-110515400D03*
X161442560Y-45745120D03*
X148515560Y-48285120D03*
X299555480Y-45745160D03*
X286628480Y-48285160D03*
X24690040Y-105435400D03*
X37617040Y-102895400D03*
X88984060Y-105435400D03*
X101911060Y-102895400D03*
X286628480Y-67335240D03*
X299555480Y-64795240D03*
X65171290Y-105435400D03*
X78098290Y-102895400D03*
X201923290Y-102895400D03*
X188996290Y-105435400D03*
X36596340Y-86385320D03*
X49523340Y-83845320D03*
X35458080Y-94005320D03*
X48385080Y-91465320D03*
X119940440Y-105435400D03*
X132867440Y-102895400D03*
X240023290Y-102895400D03*
X227096290Y-105435400D03*
X196140040Y-105435400D03*
X209067040Y-102895400D03*
X42379500Y-45745120D03*
X29452500Y-48285120D03*
X131729180Y-110515400D03*
X118802180Y-113055400D03*
D14*
X276885040Y-76960400D03*
X274345040Y-64033400D03*
D10*
X275742040Y-64795400D03*
X262815040Y-67335400D03*
D14*
X274345040Y-44983400D03*
X276885040Y-57910400D03*
D10*
X292633040Y-55905400D03*
X305560040Y-53365400D03*
X190017040Y-83845400D03*
X177090040Y-86385400D03*
X298416290Y-53365400D03*
X285489290Y-55905400D03*
X249770540Y-55905400D03*
X262697540Y-53365400D03*
X170967040Y-83845400D03*
X158040040Y-86385400D03*
X144995540Y-113055400D03*
X157922540Y-110515400D03*
X148515040Y-105435400D03*
X161442040Y-102895400D03*
X173570540Y-113055400D03*
X186497540Y-110515400D03*
X167565040Y-105435400D03*
X180492040Y-102895400D03*
X31833820Y-67335240D03*
X44760820Y-64795240D03*
X43622540Y-72415400D03*
X30695540Y-74955400D03*
X285489290Y-74955400D03*
X298416290Y-72415400D03*
X262697540Y-72415400D03*
X249770540Y-74955400D03*
X56667040Y-102895400D03*
X43740040Y-105435400D03*
X87845540Y-113055400D03*
X100772540Y-110515400D03*
X267460040Y-110515400D03*
X254533040Y-113055400D03*
D14*
X124802540Y-100890400D03*
X127342540Y-113817400D03*
D10*
X305560040Y-72415400D03*
X292633040Y-74955400D03*
X243647540Y-110515400D03*
X230720540Y-113055400D03*
X186615040Y-48285400D03*
X199542040Y-45745400D03*
D17*
X63650000Y-91100000D03*
X60350000Y-91100000D03*
D12*
X271250000Y-34750040D03*
X271250000Y-38050040D03*
X282450000Y-58550040D03*
X282450000Y-55250040D03*
X202450000Y-49100040D03*
X202450000Y-52400040D03*
X176850000Y-35950040D03*
X176850000Y-32650040D03*
X139000000Y-37950040D03*
X139000000Y-34650040D03*
X119900040Y-33550400D03*
X119900040Y-36850400D03*
X89050000Y-95700040D03*
X89050000Y-92400040D03*
X83450000Y-91600040D03*
X83450000Y-94900040D03*
X60750000Y-103500040D03*
X60750000Y-100200040D03*
X60750000Y-108500040D03*
X60750000Y-105200040D03*
X191250040Y-36850400D03*
X191250040Y-33550400D03*
X286850040Y-32600400D03*
X286850040Y-35900400D03*
X229300000Y-36850000D03*
X229300000Y-33550000D03*
X210600000Y-35950000D03*
X210600000Y-32650000D03*
X134400000Y-35950000D03*
X134400000Y-32650000D03*
X96300000Y-35950000D03*
X96300000Y-32650000D03*
X76900000Y-36850000D03*
X76900000Y-33550000D03*
D17*
X25950000Y-44650040D03*
X29250000Y-44650040D03*
D12*
X161450000Y-95700040D03*
X161450000Y-92400040D03*
X172050040Y-90750400D03*
X172050040Y-94050400D03*
X169450000Y-95700040D03*
X169450000Y-92400040D03*
D17*
X284150000Y-43250040D03*
X287450000Y-43250040D03*
D12*
X240450000Y-43600040D03*
X240450000Y-46900040D03*
X221450000Y-46100040D03*
X221450000Y-42800040D03*
X145250000Y-46100040D03*
X145250000Y-42800040D03*
X107250000Y-42800040D03*
X107250000Y-46100040D03*
X88250000Y-43600040D03*
X88250000Y-46900040D03*
D17*
X48000000Y-43850040D03*
X51300000Y-43850040D03*
D12*
X202450000Y-46900040D03*
X202450000Y-43600040D03*
X202400000Y-65350040D03*
X202400000Y-62050040D03*
X191050040Y-94050400D03*
X191050040Y-90750400D03*
X240600000Y-65400040D03*
X240600000Y-62100040D03*
X221550000Y-66150040D03*
X221550000Y-62850040D03*
X145300000Y-66050040D03*
X145300000Y-62750040D03*
X107200000Y-62750040D03*
X107200000Y-66050040D03*
X88450000Y-66400040D03*
X88450000Y-63100040D03*
X48000000Y-65300040D03*
X48000000Y-62000040D03*
X180500040Y-95700040D03*
X180500040Y-92400040D03*
X286000000Y-94850040D03*
X286000000Y-91550040D03*
X234250040Y-97350400D03*
X234250040Y-94050400D03*
X229200000Y-90750000D03*
X229200000Y-94050000D03*
D17*
X282300000Y-62550040D03*
X279000000Y-62550040D03*
D12*
X209450000Y-91600040D03*
X209450000Y-94900040D03*
X130250000Y-91600040D03*
X130250000Y-94900040D03*
X95650000Y-94900040D03*
X95650000Y-91600040D03*
X80650000Y-90800040D03*
X80650000Y-94100040D03*
X40450000Y-102000040D03*
X40450000Y-105300040D03*
X303600000Y-92400040D03*
X303600000Y-95700040D03*
X283250000Y-93250040D03*
X283250000Y-96550040D03*
X240025000Y-96550040D03*
X240025000Y-93250040D03*
X132850000Y-96500040D03*
X132850000Y-93200040D03*
X101900040Y-96500040D03*
X101900040Y-93200040D03*
X58250000Y-108000040D03*
X58250000Y-111300040D03*
X172000040Y-33550400D03*
X172000040Y-36850400D03*
X301700040Y-33550400D03*
X301700040Y-36850400D03*
X267300000Y-36850000D03*
X267300000Y-33550000D03*
X248700000Y-35950000D03*
X248700000Y-32650000D03*
X153450040Y-35900400D03*
X153450040Y-32600400D03*
X115000000Y-36850000D03*
X115000000Y-33550000D03*
X62500000Y-35950000D03*
X62500000Y-32650000D03*
X69250000Y-42800040D03*
X69250000Y-46100040D03*
X183450000Y-46900040D03*
X183450000Y-43600040D03*
D17*
X281700000Y-43250040D03*
X278400000Y-43250040D03*
D12*
X259650000Y-46100040D03*
X259650000Y-42800040D03*
X164250000Y-43600040D03*
X164250000Y-46900040D03*
X126250000Y-43600040D03*
X126250000Y-46900040D03*
X69100000Y-62800040D03*
X69100000Y-66100040D03*
X183450000Y-65300040D03*
X183450000Y-62000040D03*
X259600000Y-66150040D03*
X259600000Y-62850040D03*
X164350000Y-65250040D03*
X164350000Y-61950040D03*
X126200000Y-62000040D03*
X126200000Y-65300040D03*
D17*
X60800000Y-96350040D03*
X57500000Y-96350040D03*
D12*
X295250000Y-94050000D03*
X295250000Y-90750000D03*
X263830040Y-92400040D03*
X263830040Y-95700040D03*
X267300000Y-94050000D03*
X267300000Y-90750000D03*
X247850000Y-91550040D03*
X247850000Y-94850040D03*
X153000000Y-94050400D03*
X153000000Y-90750400D03*
X206850000Y-96500040D03*
X206850000Y-93200040D03*
X111050000Y-94100040D03*
X111050000Y-90800040D03*
X86250000Y-92400040D03*
X86250000Y-95700040D03*
D10*
X186615040Y-67335400D03*
X199542040Y-64795400D03*
D14*
X205447540Y-115060400D03*
X202907540Y-102133400D03*
D10*
X234240040Y-105435400D03*
X247167040Y-102895400D03*
D12*
X225450000Y-95700040D03*
X225450000Y-92400040D03*
D10*
X250908790Y-105435400D03*
X263835790Y-102895400D03*
X138990040Y-105435400D03*
X151917040Y-102895400D03*
X180714290Y-113055400D03*
X193641290Y-110515400D03*
X158040040Y-105435400D03*
X170967040Y-102895400D03*
D18*
X61900040Y-73075400D03*
X62700040Y-73075400D03*
X63500040Y-73075400D03*
X64300040Y-73075400D03*
X65100040Y-73075400D03*
X65900040Y-73075400D03*
X66700040Y-73075400D03*
X67500040Y-73075400D03*
X68300040Y-73075400D03*
X69100040Y-73075400D03*
X69900040Y-73075400D03*
D19*
X71600040Y-74775400D03*
X71600040Y-75575400D03*
X71600040Y-76375400D03*
X71600040Y-77175400D03*
X71600040Y-77975400D03*
X71600040Y-78775400D03*
X71600040Y-79575400D03*
X71600040Y-80375400D03*
X71600040Y-81175400D03*
X71600040Y-81975400D03*
X71600040Y-82775400D03*
D18*
X69900040Y-84475400D03*
X69100040Y-84475400D03*
X68300040Y-84475400D03*
X67500040Y-84475400D03*
X66700040Y-84475400D03*
X65900040Y-84475400D03*
X65100040Y-84475400D03*
X64300040Y-84475400D03*
X63500040Y-84475400D03*
X62700040Y-84475400D03*
X61900040Y-84475400D03*
D19*
X60200040Y-82775400D03*
X60200040Y-81975400D03*
X60200040Y-81175400D03*
X60200040Y-80375400D03*
X60200040Y-79575400D03*
X60200040Y-78775400D03*
X60200040Y-77975400D03*
X60200040Y-77175400D03*
X60200040Y-76375400D03*
X60200040Y-75575400D03*
X60200040Y-74775400D03*
D20*
X89950000Y-76750000D03*
X89950000Y-74050000D03*
X86850000Y-74050000D03*
X86850000Y-76750000D03*
D14*
X279266250Y-76960040D03*
X276726250Y-64033040D03*
M02*
