G04 #@! TF.GenerationSoftware,KiCad,Pcbnew,(5.1.10-1-10_14)*
G04 #@! TF.CreationDate,2022-01-21T05:32:34+09:00*
G04 #@! TF.ProjectId,Jones,4a6f6e65-732e-46b6-9963-61645f706362,v.1.01 (042)*
G04 #@! TF.SameCoordinates,Original*
G04 #@! TF.FileFunction,Copper,L1,Top*
G04 #@! TF.FilePolarity,Positive*
%FSLAX46Y46*%
G04 Gerber Fmt 4.6, Leading zero omitted, Abs format (unit mm)*
G04 Created by KiCad (PCBNEW (5.1.10-1-10_14)) date 2022-01-21 05:32:34*
%MOMM*%
%LPD*%
G01*
G04 APERTURE LIST*
G04 #@! TA.AperFunction,ComponentPad*
%ADD10C,1.750000*%
G04 #@! TD*
G04 #@! TA.AperFunction,ComponentPad*
%ADD11C,1.000000*%
G04 #@! TD*
G04 #@! TA.AperFunction,ComponentPad*
%ADD12C,4.800000*%
G04 #@! TD*
G04 #@! TA.AperFunction,SMDPad,CuDef*
%ADD13R,1.300000X3.400000*%
G04 #@! TD*
G04 #@! TA.AperFunction,ComponentPad*
%ADD14C,2.250000*%
G04 #@! TD*
G04 #@! TA.AperFunction,ComponentPad*
%ADD15R,1.700000X1.700000*%
G04 #@! TD*
G04 #@! TA.AperFunction,ComponentPad*
%ADD16O,1.700000X1.700000*%
G04 #@! TD*
G04 #@! TA.AperFunction,SMDPad,CuDef*
%ADD17R,1.600000X0.850000*%
G04 #@! TD*
G04 #@! TA.AperFunction,ComponentPad*
%ADD18C,1.500000*%
G04 #@! TD*
G04 #@! TA.AperFunction,ComponentPad*
%ADD19R,2.000000X2.000000*%
G04 #@! TD*
G04 #@! TA.AperFunction,ComponentPad*
%ADD20C,2.000000*%
G04 #@! TD*
G04 #@! TA.AperFunction,ComponentPad*
%ADD21R,2.000000X3.200000*%
G04 #@! TD*
G04 #@! TA.AperFunction,ComponentPad*
%ADD22C,0.700000*%
G04 #@! TD*
G04 #@! TA.AperFunction,ComponentPad*
%ADD23O,0.900000X2.400000*%
G04 #@! TD*
G04 #@! TA.AperFunction,ComponentPad*
%ADD24O,0.900000X1.700000*%
G04 #@! TD*
G04 #@! TA.AperFunction,ViaPad*
%ADD25C,0.600000*%
G04 #@! TD*
G04 #@! TA.AperFunction,Conductor*
%ADD26C,0.381000*%
G04 #@! TD*
G04 #@! TA.AperFunction,Conductor*
%ADD27C,0.254000*%
G04 #@! TD*
G04 #@! TA.AperFunction,Conductor*
%ADD28C,0.100000*%
G04 #@! TD*
G04 APERTURE END LIST*
D10*
X293396160Y-107975400D03*
X303556160Y-107975400D03*
X26695040Y-107975400D03*
X36855040Y-107975400D03*
D11*
X49050000Y-51800000D03*
X46450000Y-51750000D03*
X49050000Y-49100000D03*
X46450000Y-49100000D03*
X47800000Y-52350000D03*
X49700000Y-50450000D03*
X45900000Y-50450000D03*
X47800000Y-48550000D03*
D12*
X47800000Y-50450000D03*
D13*
X52900040Y-92900400D03*
X61600040Y-92900400D03*
D14*
X151790560Y-67335240D03*
X158140560Y-64795240D03*
D15*
X233550000Y-75200000D03*
D16*
X236090000Y-75200000D03*
X238630000Y-75200000D03*
D17*
X27400000Y-63325040D03*
X27400000Y-61575040D03*
X23900000Y-63325040D03*
X23900000Y-61575040D03*
X23900000Y-65775040D03*
X23900000Y-67525040D03*
X27400000Y-65775040D03*
X27400000Y-67525040D03*
X306200000Y-63325040D03*
X306200000Y-61575040D03*
X302700000Y-63325040D03*
X302700000Y-61575040D03*
X302700000Y-65775040D03*
X302700000Y-67525040D03*
X306200000Y-65775040D03*
X306200000Y-67525040D03*
D15*
X94250040Y-76750400D03*
D16*
X94250040Y-74210400D03*
D15*
X102100000Y-74200000D03*
D16*
X102100000Y-76740000D03*
X104640000Y-74200000D03*
X104640000Y-76740000D03*
X107180000Y-74200000D03*
X107180000Y-76740000D03*
D18*
X147450000Y-114960520D03*
X251750000Y-114960520D03*
X183750000Y-115000520D03*
X204150000Y-115000520D03*
X83350000Y-115000520D03*
X169900000Y-114960520D03*
X159050000Y-114960520D03*
X249150000Y-114960520D03*
X80350000Y-115000520D03*
X77350000Y-115000520D03*
X143850000Y-98460520D03*
X143850000Y-100960520D03*
X143850000Y-103450520D03*
X143850000Y-105950520D03*
X143850000Y-108450520D03*
X106850000Y-98450520D03*
X106850000Y-100960520D03*
X106850000Y-103450520D03*
X106850000Y-105950520D03*
X106850000Y-108460520D03*
D11*
X64850000Y-91050000D03*
X60000000Y-86575000D03*
X72800000Y-84050040D03*
X57950000Y-76850040D03*
X57950000Y-80450040D03*
X55950000Y-80450040D03*
X63200000Y-86600000D03*
X66300000Y-97075000D03*
D19*
X300993580Y-100465550D03*
D20*
X298493580Y-100465550D03*
X295993580Y-100465550D03*
D21*
X304093580Y-107965550D03*
X292893580Y-107965550D03*
D20*
X300993580Y-114965550D03*
X295993580Y-114965550D03*
X29271347Y-114952828D03*
X34271347Y-114952828D03*
D21*
X26171347Y-107952828D03*
X37371347Y-107952828D03*
D20*
X29271347Y-100452828D03*
X31771347Y-100452828D03*
D19*
X34271347Y-100452828D03*
D22*
X37800000Y-28190000D03*
X38650000Y-28190000D03*
X39500000Y-28190000D03*
X40350000Y-28190000D03*
X41200000Y-28190000D03*
X42050000Y-28190000D03*
X42900000Y-28190000D03*
X43750000Y-28190000D03*
X38650000Y-26840000D03*
X40350000Y-26840000D03*
X39500000Y-26840000D03*
X37800000Y-26840000D03*
X42050000Y-26840000D03*
X42900000Y-26840000D03*
X43750000Y-26840000D03*
X41200000Y-26840000D03*
D23*
X36450000Y-27210000D03*
X45100000Y-27210000D03*
D24*
X36450000Y-23830000D03*
X45100000Y-23830000D03*
D25*
X48000000Y-30000000D03*
X305250000Y-50400522D03*
X305250000Y-55300520D03*
X104300000Y-60269790D03*
X104300000Y-62980210D03*
X85222996Y-62980210D03*
X85300000Y-60269790D03*
X42350000Y-61850000D03*
X42350000Y-60224998D03*
X130222555Y-112422555D03*
X133999999Y-105000003D03*
X70550000Y-69250000D03*
X59100000Y-28950000D03*
X53100000Y-72850000D03*
X30950000Y-62900000D03*
X25149990Y-63325040D03*
X70420711Y-61620701D03*
X87700000Y-61620701D03*
X102975000Y-61625000D03*
X87700000Y-60250000D03*
X292100000Y-90660520D03*
X241200000Y-60999994D03*
X267100000Y-61100000D03*
X274400000Y-61000000D03*
X300800000Y-62100000D03*
X62300000Y-83100000D03*
X67849622Y-74140000D03*
X69700002Y-84200000D03*
X61150020Y-74469790D03*
X63650000Y-74469790D03*
X71979998Y-75740000D03*
X28819790Y-65800000D03*
X88970000Y-50700000D03*
X55875000Y-86524998D03*
X55625000Y-96100000D03*
X88960000Y-60240000D03*
X85649997Y-84250043D03*
X88960000Y-80940042D03*
X104349982Y-80400520D03*
X289800000Y-90660520D03*
X236849996Y-80400520D03*
X30224740Y-85725260D03*
X294050000Y-83900520D03*
X289450000Y-81100520D03*
X62205000Y-81605000D03*
X62265000Y-77135000D03*
X70200000Y-83400000D03*
X52874996Y-28950036D03*
X43199994Y-36600000D03*
X63209084Y-71627208D03*
X42750000Y-34300000D03*
X63970000Y-71370000D03*
X24300000Y-64549994D03*
X26900009Y-64550000D03*
X33350000Y-27400000D03*
X49774665Y-24818649D03*
X79300000Y-97800000D03*
X71599998Y-94700000D03*
X109160480Y-94900040D03*
X73900000Y-96965888D03*
X78000000Y-97169790D03*
X76198852Y-97159896D03*
X72900000Y-94600000D03*
X100360480Y-93200040D03*
X79600000Y-96500000D03*
X73850000Y-94600002D03*
X75747114Y-96495756D03*
X145410480Y-94100040D03*
X146039520Y-92400040D03*
X63750000Y-37550000D03*
X110550000Y-37550040D03*
X68539379Y-73250000D03*
X24650000Y-103350000D03*
X39100000Y-96150000D03*
X30282866Y-68922183D03*
X55600000Y-46050000D03*
X34880210Y-88080734D03*
X33799740Y-43950260D03*
X38850000Y-36200520D03*
X57900000Y-36200520D03*
X284830210Y-69030252D03*
X291390000Y-31100040D03*
X291390000Y-33560520D03*
X301050000Y-48000899D03*
X288287741Y-83373651D03*
X288287729Y-105088249D03*
X299000000Y-55500520D03*
X109550000Y-60950000D03*
X25950000Y-67500000D03*
X109550000Y-79106810D03*
X25400000Y-61499990D03*
X292850000Y-59900520D03*
X302700000Y-59900000D03*
X280950000Y-78550000D03*
X306050000Y-64550000D03*
X302800000Y-64550000D03*
X288943920Y-82894440D03*
X290650000Y-83700528D03*
X30784102Y-84157670D03*
X31924742Y-84925262D03*
X29550000Y-61450040D03*
X30600002Y-76900040D03*
X60000000Y-90200000D03*
X61400000Y-96500000D03*
X255400000Y-84250000D03*
X253300000Y-31350040D03*
X252950000Y-103450040D03*
X263500000Y-58150002D03*
X262800002Y-46050002D03*
X262800000Y-70400000D03*
X205650000Y-65100040D03*
X196150000Y-32100040D03*
X205699998Y-50450006D03*
X222400000Y-98900000D03*
X211950000Y-83700000D03*
X177099996Y-32600000D03*
X174650000Y-86450002D03*
X184600000Y-67350002D03*
X184614600Y-48285400D03*
X169900000Y-110350520D03*
X156050000Y-86374994D03*
X165550000Y-67350000D03*
X165549994Y-48300000D03*
X158050000Y-32200520D03*
X156049998Y-103800520D03*
X119950000Y-88550000D03*
X162700000Y-69950000D03*
X148500000Y-50450000D03*
X119949998Y-33750040D03*
X119950000Y-103150000D03*
X127400000Y-48300000D03*
X127399998Y-67350000D03*
X98750000Y-31300000D03*
X92050000Y-50250036D03*
X97600000Y-86400000D03*
X92050000Y-65475000D03*
X92300005Y-95700005D03*
X93231989Y-91481989D03*
X72301648Y-46349937D03*
X56700000Y-111600000D03*
X62852680Y-31721624D03*
X63350000Y-108400524D03*
X80399988Y-91200028D03*
X80399988Y-110550508D03*
X78400480Y-65250040D03*
X66100000Y-62850000D03*
X66100000Y-60200000D03*
X305124980Y-74225020D03*
X291400000Y-89960520D03*
X291400000Y-80650520D03*
X234250000Y-31400000D03*
X234224998Y-84350000D03*
X241950001Y-72300521D03*
X241950004Y-41200516D03*
X234250000Y-98625000D03*
X241950001Y-61694230D03*
X66400000Y-38400000D03*
X104975040Y-38400040D03*
X145500000Y-38400038D03*
X70430210Y-72550000D03*
X68309050Y-56590990D03*
X105950000Y-56650000D03*
X240699996Y-40250000D03*
X236850000Y-55850000D03*
X69169790Y-74100000D03*
X91419790Y-60244786D03*
X92050000Y-76510520D03*
X90250000Y-60250006D03*
X91350000Y-75350000D03*
X55300002Y-76250000D03*
X107200000Y-62350000D03*
X72024998Y-62350000D03*
X71146858Y-75620438D03*
X69100000Y-55850040D03*
X107100000Y-55870233D03*
X239600000Y-39200000D03*
X144600000Y-55860520D03*
X235950000Y-55850002D03*
X69799790Y-73181681D03*
X71200000Y-54150040D03*
X111214799Y-54195721D03*
X71250006Y-73650000D03*
X41050000Y-54950000D03*
X145950000Y-54960520D03*
X60680643Y-73019357D03*
D26*
X41201552Y-27087911D02*
X41201552Y-26837233D01*
X40351552Y-28187233D02*
X40351552Y-27937911D01*
X40351552Y-27937911D02*
X41201552Y-27087911D01*
X47080375Y-29080375D02*
X48000000Y-30000000D01*
X40749720Y-29080375D02*
X47080375Y-29080375D01*
X40351552Y-28187233D02*
X40351552Y-28682207D01*
X40351552Y-28682207D02*
X40749720Y-29080375D01*
D27*
X305250000Y-50400522D02*
X305250000Y-55300520D01*
X104300000Y-60269790D02*
X104300000Y-62980210D01*
X85300000Y-62903206D02*
X85222996Y-62980210D01*
X85300000Y-60269790D02*
X85300000Y-62903206D01*
X42350000Y-61850000D02*
X42350000Y-60224998D01*
X130222555Y-112422555D02*
X133999999Y-108645111D01*
X133999999Y-108645111D02*
X133999999Y-105000003D01*
D26*
X303893701Y-67525040D02*
X302700000Y-67525040D01*
X302700000Y-63325040D02*
X303893701Y-64518741D01*
X303893701Y-64518741D02*
X303893701Y-67525040D01*
X25150000Y-66600000D02*
X24224960Y-67525040D01*
X24224960Y-67525040D02*
X23900000Y-67525040D01*
X25150000Y-63325040D02*
X25150000Y-66600000D01*
X23900000Y-63325040D02*
X25150000Y-63325040D01*
X23900000Y-63325040D02*
X25149990Y-63325040D01*
X70550000Y-69250000D02*
X70550000Y-61749990D01*
X70420711Y-40270711D02*
X70420711Y-61620701D01*
X70550000Y-61749990D02*
X70420711Y-61620701D01*
X87700000Y-61620701D02*
X87700000Y-60250000D01*
X59100000Y-28950000D02*
X70420711Y-40270711D01*
X31049480Y-62800520D02*
X30950000Y-62900000D01*
X43050520Y-62800520D02*
X31049480Y-62800520D01*
X53100000Y-72850000D02*
X43050520Y-62800520D01*
X292100000Y-84425520D02*
X292100000Y-90660520D01*
X297450000Y-79075520D02*
X292100000Y-84425520D01*
X301300000Y-74350520D02*
X297450000Y-78200520D01*
X303152598Y-74350520D02*
X301300000Y-74350520D01*
X297450000Y-78200520D02*
X297450000Y-79075520D01*
X304823741Y-72679377D02*
X303152598Y-74350520D01*
X304823741Y-68908642D02*
X304823741Y-72679377D01*
X303893701Y-67978602D02*
X304823741Y-68908642D01*
X303893701Y-67525040D02*
X303893701Y-67978602D01*
X233550000Y-75200000D02*
X241200000Y-67550000D01*
X241200000Y-67550000D02*
X241200000Y-60999994D01*
X302025040Y-63325040D02*
X302700000Y-63325040D01*
X300800000Y-62100000D02*
X302025040Y-63325040D01*
X274350000Y-60950000D02*
X274400000Y-61000000D01*
X267250000Y-60950000D02*
X274350000Y-60950000D01*
X267100000Y-61100000D02*
X267250000Y-60950000D01*
X53100000Y-78964042D02*
X57235958Y-83100000D01*
X53100000Y-72850000D02*
X53100000Y-78964042D01*
X57235958Y-83100000D02*
X62300000Y-83100000D01*
X63400000Y-84200000D02*
X69700002Y-84200000D01*
X62300000Y-83100000D02*
X63400000Y-84200000D01*
X67849622Y-74140000D02*
X67519832Y-74469790D01*
X67519832Y-74469790D02*
X63650000Y-74469790D01*
X61150020Y-74469790D02*
X63650000Y-74469790D01*
X70700000Y-84200000D02*
X69700002Y-84200000D01*
X71979998Y-82920002D02*
X70700000Y-84200000D01*
X71979998Y-75740000D02*
X71979998Y-82920002D01*
X101800000Y-68800000D02*
X102975000Y-67625000D01*
X101800000Y-71445669D02*
X101800000Y-68800000D01*
X100800000Y-72445669D02*
X101800000Y-71445669D01*
X100800000Y-75440000D02*
X100800000Y-72445669D01*
X102975000Y-67625000D02*
X102975000Y-61625000D01*
X102100000Y-76740000D02*
X100800000Y-75440000D01*
X37801552Y-26837233D02*
X37801552Y-28187233D01*
X43751552Y-26837233D02*
X43751552Y-28187233D01*
X36821552Y-26837233D02*
X36451552Y-27207233D01*
X37801552Y-26837233D02*
X36821552Y-26837233D01*
X36821552Y-27207233D02*
X37801552Y-28187233D01*
X36451552Y-27207233D02*
X36821552Y-27207233D01*
X44731552Y-27207233D02*
X43751552Y-28187233D01*
X45101552Y-27207233D02*
X44731552Y-27207233D01*
X44731552Y-26837233D02*
X45101552Y-27207233D01*
X43751552Y-26837233D02*
X44731552Y-26837233D01*
X306016338Y-61575040D02*
X306200000Y-61575040D01*
X305006299Y-62585079D02*
X306016338Y-61575040D01*
X305006299Y-65775040D02*
X305006299Y-62585079D01*
X306200000Y-65775040D02*
X305006299Y-65775040D01*
X26219000Y-65775040D02*
X26093701Y-65649741D01*
X27400000Y-65775040D02*
X26219000Y-65775040D01*
X26093701Y-65649741D02*
X26093701Y-61700339D01*
X26093701Y-61700339D02*
X26219000Y-61575040D01*
X26219000Y-61575040D02*
X27400000Y-61575040D01*
X27400000Y-65775040D02*
X28794830Y-65775040D01*
X28794830Y-65775040D02*
X28819790Y-65800000D01*
X52900040Y-92900400D02*
X52741339Y-92741699D01*
X53400000Y-89897762D02*
X53400000Y-88999998D01*
X52741339Y-92741699D02*
X52741339Y-90556423D01*
X52741339Y-90556423D02*
X53400000Y-89897762D01*
X53400000Y-88999998D02*
X55875000Y-86524998D01*
X52900040Y-93375040D02*
X55625000Y-96100000D01*
X52900040Y-92900400D02*
X52900040Y-93375040D01*
X88970000Y-50700000D02*
X88970000Y-60230000D01*
X88970000Y-60230000D02*
X88960000Y-60240000D01*
X35620552Y-23827233D02*
X36451552Y-23827233D01*
X28500000Y-30947785D02*
X35620552Y-23827233D01*
X28500000Y-33200040D02*
X28500000Y-30947785D01*
X27341299Y-61516339D02*
X27341299Y-34358741D01*
X27341299Y-34358741D02*
X28500000Y-33200040D01*
X27400000Y-61575040D02*
X27341299Y-61516339D01*
X85649997Y-84250043D02*
X88960000Y-80940040D01*
X88960000Y-60240000D02*
X88960000Y-80940042D01*
X88960000Y-80940040D02*
X88960000Y-80940042D01*
X107180000Y-76740000D02*
X104349982Y-79570018D01*
X104349982Y-79570018D02*
X104349982Y-80400520D01*
X289800000Y-91771970D02*
X298493580Y-100465550D01*
X289800000Y-90660520D02*
X289800000Y-91771970D01*
X238630000Y-78620516D02*
X236849996Y-80400520D01*
X238630000Y-75200000D02*
X238630000Y-78620516D01*
X28750000Y-87200000D02*
X30224740Y-85725260D01*
X28750000Y-90400000D02*
X28750000Y-87200000D01*
X31950000Y-93600000D02*
X28750000Y-90400000D01*
X31950000Y-100274175D02*
X31950000Y-93600000D01*
X31771347Y-100452828D02*
X31950000Y-100274175D01*
X289750000Y-81400520D02*
X289450000Y-81100520D01*
X289750000Y-90610520D02*
X289750000Y-81400520D01*
X289800000Y-90660520D02*
X289750000Y-90610520D01*
X298050000Y-78700520D02*
X298050000Y-79900520D01*
X298050000Y-79900520D02*
X294050000Y-83900520D01*
X301815789Y-74934731D02*
X298050000Y-78700520D01*
X303394586Y-74934731D02*
X301815789Y-74934731D01*
X305407952Y-72921365D02*
X303394586Y-74934731D01*
X305407952Y-68666654D02*
X305407952Y-72921365D01*
X305006299Y-68265001D02*
X305407952Y-68666654D01*
X305006299Y-65775040D02*
X305006299Y-68265001D01*
X42901552Y-26837233D02*
X42901552Y-28187233D01*
X38651552Y-26837233D02*
X38651552Y-28187233D01*
X42901552Y-28187233D02*
X42901552Y-26586555D01*
X43874584Y-25613523D02*
X49538483Y-25613523D01*
X42901552Y-26586555D02*
X43874584Y-25613523D01*
X49538483Y-25613523D02*
X52874996Y-28950036D01*
X63209084Y-69009085D02*
X63209084Y-71627208D01*
X53417089Y-46817095D02*
X53417089Y-59217090D01*
X53417089Y-59217090D02*
X63209084Y-69009085D01*
X43199994Y-36600000D02*
X53417089Y-46817095D01*
X54001300Y-58975102D02*
X63970000Y-68943802D01*
X63970000Y-68943802D02*
X63970000Y-71370000D01*
X54001300Y-45551300D02*
X54001300Y-58975102D01*
X42750000Y-34300000D02*
X54001300Y-45551300D01*
D27*
X23900000Y-64949994D02*
X24300000Y-64549994D01*
X23900000Y-65775040D02*
X23900000Y-64949994D01*
X27400000Y-63325040D02*
X27400000Y-64050009D01*
X27400000Y-64050009D02*
X26900009Y-64550000D01*
X34850000Y-28900000D02*
X33350000Y-27400000D01*
X39501552Y-28682207D02*
X39283759Y-28900000D01*
X39501552Y-28187233D02*
X39501552Y-28682207D01*
X39283759Y-28900000D02*
X34850000Y-28900000D01*
X42051552Y-26837233D02*
X42051552Y-26342259D01*
X49568274Y-25025040D02*
X49774665Y-24818649D01*
X42051552Y-26342259D02*
X43368771Y-25025040D01*
X43368771Y-25025040D02*
X49568274Y-25025040D01*
X108387412Y-104413108D02*
X108387412Y-95673108D01*
X106850000Y-105950520D02*
X108387412Y-104413108D01*
X108387412Y-95673108D02*
X109160480Y-94900040D01*
X79300000Y-97800000D02*
X74734112Y-97800000D01*
X74734112Y-97800000D02*
X73900000Y-96965888D01*
X73865886Y-96965888D02*
X73900000Y-96965888D01*
X71599998Y-94700000D02*
X73865886Y-96965888D01*
X78000000Y-97169790D02*
X76208746Y-97169790D01*
X76208746Y-97169790D02*
X76198852Y-97159896D01*
X75459896Y-97159896D02*
X72900000Y-94600000D01*
X76198852Y-97159896D02*
X75459896Y-97159896D01*
X106850000Y-108450520D02*
X105450000Y-107050520D01*
X105450000Y-107050520D02*
X105450000Y-100210520D01*
X100360480Y-95121000D02*
X100360480Y-93200040D01*
X105450000Y-100210520D02*
X100360480Y-95121000D01*
X75751358Y-96500000D02*
X75747114Y-96495756D01*
X73850000Y-94600002D02*
X75745754Y-96495756D01*
X79600000Y-96500000D02*
X75751358Y-96500000D01*
X75745754Y-96495756D02*
X75747114Y-96495756D01*
X143850000Y-105950520D02*
X145400000Y-104400520D01*
X145400000Y-104400520D02*
X145400000Y-94110520D01*
X145400000Y-94110520D02*
X145410480Y-94100040D01*
X143850000Y-108450520D02*
X146050000Y-106250520D01*
X146050000Y-92410520D02*
X146039520Y-92400040D01*
X146050000Y-106250520D02*
X146050000Y-92410520D01*
X67672506Y-72383127D02*
X68539379Y-73250000D01*
X63750000Y-37550000D02*
X67672506Y-41472506D01*
X67672506Y-41472506D02*
X67672506Y-72383127D01*
X110250001Y-37850039D02*
X110550000Y-37550040D01*
X110792789Y-90317731D02*
X110792789Y-87721138D01*
X110792789Y-87721138D02*
X112600000Y-85913927D01*
X112600000Y-73557112D02*
X110250001Y-71207113D01*
X106850000Y-98450520D02*
X106850000Y-94260520D01*
X106850000Y-94260520D02*
X110792789Y-90317731D01*
X112600000Y-85913927D02*
X112600000Y-73557112D01*
X110250001Y-71207113D02*
X110250001Y-37850039D01*
X29982867Y-69222182D02*
X30282866Y-68922183D01*
X29982867Y-74182907D02*
X29982867Y-69222182D01*
X31400000Y-75600040D02*
X29982867Y-74182907D01*
X31400000Y-82360446D02*
X31400000Y-75600040D01*
X31316801Y-82733719D02*
X31683199Y-82733719D01*
X31216281Y-82834239D02*
X31316801Y-82733719D01*
X31400000Y-82650520D02*
X31216281Y-82834239D01*
X31400000Y-82360446D02*
X31400000Y-82650520D01*
X34880210Y-85930730D02*
X34880210Y-88080734D01*
X31683199Y-82733719D02*
X34880210Y-85930730D01*
X31400000Y-82450520D02*
X31683199Y-82733719D01*
X31400000Y-82360446D02*
X31400000Y-82450520D01*
X24650000Y-88400520D02*
X24650000Y-103350000D01*
X26550000Y-86500520D02*
X24650000Y-88400520D01*
X27550000Y-86500520D02*
X26550000Y-86500520D01*
X31216281Y-82834239D02*
X27550000Y-86500520D01*
X30282866Y-68922183D02*
X30250001Y-68889318D01*
X30250001Y-68889318D02*
X30250001Y-47499999D01*
X30250001Y-47499999D02*
X33799740Y-43950260D01*
X33800260Y-43950260D02*
X38850000Y-38900520D01*
X38850000Y-38900520D02*
X38850000Y-36200520D01*
X33799740Y-43950260D02*
X33800260Y-43950260D01*
X57900000Y-43750520D02*
X57900000Y-36200520D01*
X55600520Y-46050000D02*
X57900000Y-43750520D01*
X55600000Y-46050000D02*
X55600520Y-46050000D01*
X34880210Y-89369830D02*
X34880210Y-88080734D01*
X33600000Y-90650040D02*
X34880210Y-89369830D01*
X33600000Y-92400000D02*
X33600000Y-90650040D01*
X37350000Y-96150000D02*
X33600000Y-92400000D01*
X39100000Y-96150000D02*
X37350000Y-96150000D01*
X291390000Y-33560520D02*
X291390000Y-31100040D01*
X291390000Y-37640520D02*
X301050000Y-47300520D01*
X301050000Y-47300520D02*
X301050000Y-48000899D01*
X291390000Y-33560520D02*
X291390000Y-37640520D01*
X284830210Y-79916120D02*
X288287741Y-83373651D01*
X284830210Y-69030252D02*
X284830210Y-79916120D01*
X288287741Y-83373651D02*
X288287741Y-105088237D01*
X288287741Y-105088237D02*
X288287729Y-105088249D01*
X295710422Y-58150040D02*
X296350480Y-58150040D01*
X301050000Y-48000899D02*
X301050000Y-51690110D01*
X296350480Y-58150040D02*
X299000000Y-55500520D01*
X301050000Y-51690110D02*
X299000000Y-53740110D01*
X284830210Y-69030252D02*
X295710422Y-58150040D01*
X299000000Y-53740110D02*
X299000000Y-55500520D01*
X27400000Y-67525040D02*
X25975040Y-67525040D01*
X25975040Y-67525040D02*
X25950000Y-67500000D01*
X109550000Y-60950000D02*
X109550000Y-79106810D01*
X23900000Y-61575040D02*
X25324950Y-61575040D01*
X25324950Y-61575040D02*
X25400000Y-61499990D01*
X302700000Y-59900000D02*
X302700000Y-61575040D01*
X284149999Y-68600521D02*
X284149999Y-75350001D01*
X292850000Y-59900520D02*
X284149999Y-68600521D01*
X284149999Y-75350001D02*
X280950000Y-78550000D01*
X306200000Y-64400000D02*
X306050000Y-64550000D01*
X306200000Y-63325040D02*
X306200000Y-64400000D01*
X302800000Y-65675040D02*
X302700000Y-65775040D01*
X302800000Y-64550000D02*
X302800000Y-65675040D01*
X295993580Y-100465550D02*
X288943920Y-93415890D01*
X288943920Y-93415890D02*
X288943920Y-82894440D01*
X300993580Y-100465550D02*
X290650000Y-90121970D01*
X290650000Y-90121970D02*
X290650000Y-83700528D01*
X28150000Y-86791772D02*
X30784102Y-84157670D01*
X26800000Y-91750040D02*
X28150000Y-90400040D01*
X29271347Y-100452828D02*
X29102308Y-100452828D01*
X28150000Y-90400040D02*
X28150000Y-86791772D01*
X26800000Y-98150520D02*
X26800000Y-91750040D01*
X29102308Y-100452828D02*
X26800000Y-98150520D01*
X33150000Y-93963604D02*
X29350000Y-90163604D01*
X29350000Y-87500004D02*
X31924742Y-84925262D01*
X29350000Y-90163604D02*
X29350000Y-87500004D01*
X33150000Y-99331481D02*
X33150000Y-93963604D01*
X34271347Y-100452828D02*
X33150000Y-99331481D01*
X30600002Y-75650042D02*
X30600002Y-76900040D01*
X29480202Y-74530242D02*
X30600002Y-75650042D01*
X29480202Y-61519838D02*
X29480202Y-74530242D01*
X29550000Y-61450040D02*
X29480202Y-61519838D01*
X60000000Y-90200000D02*
X60000000Y-92600000D01*
X60300400Y-92900400D02*
X61600040Y-92900400D01*
X60000000Y-92600000D02*
X60300400Y-92900400D01*
X61600040Y-92900400D02*
X61600040Y-96299960D01*
X61600040Y-96299960D02*
X61400000Y-96500000D01*
X255400000Y-84250000D02*
X252950000Y-86700000D01*
X253300000Y-31350040D02*
X253300000Y-36550000D01*
X263500000Y-58150002D02*
X263500000Y-46750000D01*
X253300000Y-36550000D02*
X262800002Y-46050002D01*
X263500000Y-46750000D02*
X262800002Y-46050002D01*
X252950000Y-86700000D02*
X252950000Y-103450040D01*
X255400000Y-84250000D02*
X262800000Y-76850000D01*
X262800000Y-76850000D02*
X262800000Y-70400000D01*
X262800000Y-58850002D02*
X262800000Y-70400000D01*
X263500000Y-58150002D02*
X262800000Y-58850002D01*
X205650000Y-50500004D02*
X205699998Y-50450006D01*
X205699998Y-41650038D02*
X205699998Y-50450006D01*
X205650000Y-65100040D02*
X205650000Y-50500004D01*
X196150000Y-32100040D02*
X205699998Y-41650038D01*
X211950000Y-88450000D02*
X211950000Y-83700000D01*
X222400000Y-98900000D02*
X211950000Y-88450000D01*
X205650000Y-77400000D02*
X211950000Y-83700000D01*
X205650000Y-65100040D02*
X205650000Y-77400000D01*
X177099996Y-32600000D02*
X184600000Y-40100004D01*
X184600000Y-48270800D02*
X184614600Y-48285400D01*
X184600000Y-40100004D02*
X184600000Y-48270800D01*
X184614600Y-67335402D02*
X184600000Y-67350002D01*
X184614600Y-48285400D02*
X184614600Y-67335402D01*
X174650000Y-86450002D02*
X174700518Y-86450002D01*
X169900000Y-110350520D02*
X169900000Y-114960520D01*
X184600000Y-76500002D02*
X174650000Y-86450002D01*
X184600000Y-67350002D02*
X184600000Y-76500002D01*
X169850520Y-110350520D02*
X169900000Y-110350520D01*
X167800000Y-108300000D02*
X169850520Y-110350520D01*
X165400000Y-104200000D02*
X167800000Y-106600000D01*
X174650000Y-86450002D02*
X165400000Y-95700002D01*
X165400000Y-95700002D02*
X165400000Y-104200000D01*
X167800000Y-106600000D02*
X167800000Y-108300000D01*
X156050000Y-86374994D02*
X165550000Y-76874994D01*
X165550000Y-76874994D02*
X165550000Y-67350000D01*
X165550000Y-67350000D02*
X165550000Y-48300006D01*
X165550000Y-48300006D02*
X165549994Y-48300000D01*
X165549994Y-39700514D02*
X158050000Y-32200520D01*
X165549994Y-48300000D02*
X165549994Y-39700514D01*
X156050000Y-86374994D02*
X156050000Y-103800518D01*
X156050000Y-103800518D02*
X156049998Y-103800520D01*
X148500000Y-50874264D02*
X151790560Y-54164824D01*
X148500000Y-50450000D02*
X148500000Y-50874264D01*
X151790560Y-62440560D02*
X151790560Y-62540560D01*
X152009440Y-62759440D02*
X151790560Y-62759440D01*
X151790560Y-62440560D02*
X151790560Y-62759440D01*
X151790560Y-54164824D02*
X151790560Y-62440560D01*
X151790560Y-63109440D02*
X151790560Y-62978320D01*
X151790560Y-62759440D02*
X151790560Y-63109440D01*
X151790560Y-63109440D02*
X151790560Y-67335240D01*
X151790560Y-62978320D02*
X152009440Y-62759440D01*
X151790560Y-62540560D02*
X152009440Y-62759440D01*
X119950000Y-88550000D02*
X119950000Y-103150000D01*
X127400000Y-41200042D02*
X127400000Y-48300000D01*
X119949998Y-33750040D02*
X127400000Y-41200042D01*
X127400000Y-48300000D02*
X127400000Y-67349998D01*
X127400000Y-67349998D02*
X127399998Y-67350000D01*
X127399998Y-69750002D02*
X127399998Y-67350000D01*
X119950000Y-77200000D02*
X127399998Y-69750002D01*
X119950000Y-88550000D02*
X119950000Y-77200000D01*
X158759440Y-62759440D02*
X152009440Y-62759440D01*
X162700000Y-66700000D02*
X158759440Y-62759440D01*
X162700000Y-69950000D02*
X162700000Y-66700000D01*
X98750000Y-31300000D02*
X92050000Y-38000000D01*
X92050000Y-38000000D02*
X92050000Y-50250036D01*
X92050000Y-65475000D02*
X92050000Y-50250036D01*
X93231989Y-91481989D02*
X93231989Y-94768021D01*
X93231989Y-94768021D02*
X92300005Y-95700005D01*
X92680202Y-74930202D02*
X92050000Y-74300000D01*
X92050000Y-74300000D02*
X92050000Y-65475000D01*
X92680202Y-81480202D02*
X92680202Y-74930202D01*
X97600000Y-86400000D02*
X92680202Y-81480202D01*
X97600000Y-87250520D02*
X97600000Y-86400000D01*
X93368531Y-91481989D02*
X97600000Y-87250520D01*
X93231989Y-91481989D02*
X93368531Y-91481989D01*
X72301648Y-46349937D02*
X72301648Y-41170592D01*
X72301648Y-41170592D02*
X62852680Y-31721624D01*
X56700000Y-111600000D02*
X60150524Y-111600000D01*
X60150524Y-111600000D02*
X63350000Y-108400524D01*
X80399988Y-114950532D02*
X80350000Y-115000520D01*
X80399988Y-91200028D02*
X80399988Y-114950532D01*
X72301648Y-46349937D02*
X72301648Y-59151208D01*
X72301648Y-59151208D02*
X78400480Y-65250040D01*
X83200000Y-70049560D02*
X78400480Y-65250040D01*
X83200000Y-87786582D02*
X83200000Y-70049560D01*
X80399988Y-90586594D02*
X83200000Y-87786582D01*
X80399988Y-91200028D02*
X80399988Y-90586594D01*
X66100000Y-62850000D02*
X66100000Y-60200000D01*
X306200000Y-67525040D02*
X306200000Y-73150000D01*
X306200000Y-73150000D02*
X305124980Y-74225020D01*
X291400000Y-89960520D02*
X291400000Y-80650520D01*
X234250000Y-84375002D02*
X234224998Y-84350000D01*
X234250000Y-98625000D02*
X234250000Y-84375002D01*
X234224998Y-84350000D02*
X241950001Y-76624997D01*
X241950001Y-76624997D02*
X241950001Y-72300521D01*
X234250000Y-31824264D02*
X241950004Y-39524268D01*
X234250000Y-31400000D02*
X234250000Y-31824264D01*
X241950004Y-39524268D02*
X241950004Y-41200516D01*
X241950001Y-72300521D02*
X241950001Y-61694230D01*
X241950004Y-41200516D02*
X241950004Y-61694227D01*
X241950004Y-61694227D02*
X241950001Y-61694230D01*
X105000000Y-38425000D02*
X104975040Y-38400040D01*
X102100000Y-74200000D02*
X105000000Y-71300000D01*
X105000000Y-71300000D02*
X105000000Y-38425000D01*
X145319798Y-38580240D02*
X145500000Y-38400038D01*
X145319798Y-68615692D02*
X145319798Y-38580240D01*
X139092789Y-74842701D02*
X145319798Y-68615692D01*
X139092789Y-91896717D02*
X139092789Y-74842701D01*
X143850000Y-96653928D02*
X139092789Y-91896717D01*
X143850000Y-98450520D02*
X143850000Y-96653928D01*
X69790508Y-41790508D02*
X69790508Y-70790510D01*
X70430210Y-71430212D02*
X70430210Y-72550000D01*
X66400000Y-38400000D02*
X69790508Y-41790508D01*
X69790508Y-70790510D02*
X70430210Y-71430212D01*
X105457209Y-73382791D02*
X105457209Y-57142791D01*
X105457209Y-57142791D02*
X105950000Y-56650000D01*
X104640000Y-74200000D02*
X105457209Y-73382791D01*
X240699996Y-52000004D02*
X236850000Y-55850000D01*
X240699996Y-40250000D02*
X240699996Y-52000004D01*
X103400000Y-77186698D02*
X103400000Y-75440000D01*
X101450000Y-79136698D02*
X103400000Y-77186698D01*
X101450000Y-95550520D02*
X101450000Y-79136698D01*
X103400000Y-75440000D02*
X104640000Y-74200000D01*
X106850000Y-100950520D02*
X101450000Y-95550520D01*
X68309050Y-71779050D02*
X69169589Y-72639589D01*
X69169589Y-72639589D02*
X69169589Y-74099799D01*
X68309050Y-56590990D02*
X68309050Y-71779050D01*
X69169589Y-74099799D02*
X69169790Y-74100000D01*
X92050000Y-75117300D02*
X92050000Y-76510520D01*
X91419790Y-74487090D02*
X92050000Y-75117300D01*
X91419790Y-60244786D02*
X91419790Y-74487090D01*
X91350000Y-75350000D02*
X90250000Y-74250000D01*
X90250000Y-74250000D02*
X90250000Y-60250006D01*
X107180000Y-62370000D02*
X107200000Y-62350000D01*
X107180000Y-74200000D02*
X107180000Y-62370000D01*
X56450002Y-75100000D02*
X70626420Y-75100000D01*
X72024998Y-74742298D02*
X71146858Y-75620438D01*
X55300002Y-76250000D02*
X56450002Y-75100000D01*
X70626420Y-75100000D02*
X71146858Y-75620438D01*
X72024998Y-62350000D02*
X72024998Y-74742298D01*
X105914420Y-57610580D02*
X107100000Y-56425000D01*
X107100000Y-56425000D02*
X107100000Y-55870233D01*
X105914420Y-75465580D02*
X105914420Y-57610580D01*
X104640000Y-76740000D02*
X105914420Y-75465580D01*
X239600000Y-52200002D02*
X235950000Y-55850002D01*
X239600000Y-39200000D02*
X239600000Y-52200002D01*
X144600000Y-68688898D02*
X144600000Y-55860520D01*
X138635578Y-74653319D02*
X144600000Y-68688898D01*
X138635578Y-92086098D02*
X138635578Y-74653319D01*
X142750000Y-96200520D02*
X138635578Y-92086098D01*
X142750000Y-99850520D02*
X142750000Y-96200520D01*
X143850000Y-100950520D02*
X142750000Y-99850520D01*
X69799790Y-72009790D02*
X69799790Y-73181681D01*
X69100000Y-71310000D02*
X69799790Y-72009790D01*
X69100000Y-55850040D02*
X69100000Y-71310000D01*
X71200000Y-54150040D02*
X71200000Y-73599994D01*
X71200000Y-73599994D02*
X71250006Y-73650000D01*
X110800000Y-54610520D02*
X111214799Y-54195721D01*
X113057211Y-73367730D02*
X110800000Y-71110519D01*
X113057211Y-86103309D02*
X113057211Y-73367730D01*
X111250000Y-87910520D02*
X113057211Y-86103309D01*
X111250000Y-90507113D02*
X111250000Y-87910520D01*
X110800000Y-71110519D02*
X110800000Y-54610520D01*
X107930201Y-102370319D02*
X107930201Y-93826911D01*
X106850000Y-103450520D02*
X107930201Y-102370319D01*
X107930201Y-93826911D02*
X111250000Y-90507113D01*
X145950000Y-68632083D02*
X145950000Y-54960520D01*
X139550000Y-75032083D02*
X145950000Y-68632083D01*
X144930201Y-96890721D02*
X139550000Y-91510520D01*
X139550000Y-91510520D02*
X139550000Y-75032083D01*
X143850000Y-103450520D02*
X144930201Y-102370319D01*
X144930201Y-102370319D02*
X144930201Y-96890721D01*
X41050000Y-54950000D02*
X41050000Y-57474264D01*
X41050000Y-57474264D02*
X56595093Y-73019357D01*
X56595093Y-73019357D02*
X60680643Y-73019357D01*
X70394333Y-75848714D02*
X70453327Y-75991138D01*
X70538973Y-76119317D01*
X70647979Y-76228323D01*
X70776158Y-76313969D01*
X70918582Y-76372963D01*
X71069779Y-76403038D01*
X71223937Y-76403038D01*
X71273000Y-76393279D01*
X71273000Y-82675093D01*
X70421194Y-83526900D01*
X70101279Y-83526900D01*
X70070702Y-83506469D01*
X69928278Y-83447475D01*
X69777081Y-83417400D01*
X69622923Y-83417400D01*
X69471726Y-83447475D01*
X69329302Y-83506469D01*
X69298725Y-83526900D01*
X63678807Y-83526900D01*
X63059700Y-82907793D01*
X63052525Y-82871724D01*
X62993531Y-82729300D01*
X62907885Y-82601121D01*
X62798879Y-82492115D01*
X62670700Y-82406469D01*
X62528276Y-82347475D01*
X62377079Y-82317400D01*
X62222921Y-82317400D01*
X62071724Y-82347475D01*
X61929300Y-82406469D01*
X61927000Y-82408006D01*
X61927000Y-75709600D01*
X70366661Y-75709600D01*
X70394333Y-75848714D01*
G04 #@! TA.AperFunction,Conductor*
D28*
G36*
X70394333Y-75848714D02*
G01*
X70453327Y-75991138D01*
X70538973Y-76119317D01*
X70647979Y-76228323D01*
X70776158Y-76313969D01*
X70918582Y-76372963D01*
X71069779Y-76403038D01*
X71223937Y-76403038D01*
X71273000Y-76393279D01*
X71273000Y-82675093D01*
X70421194Y-83526900D01*
X70101279Y-83526900D01*
X70070702Y-83506469D01*
X69928278Y-83447475D01*
X69777081Y-83417400D01*
X69622923Y-83417400D01*
X69471726Y-83447475D01*
X69329302Y-83506469D01*
X69298725Y-83526900D01*
X63678807Y-83526900D01*
X63059700Y-82907793D01*
X63052525Y-82871724D01*
X62993531Y-82729300D01*
X62907885Y-82601121D01*
X62798879Y-82492115D01*
X62670700Y-82406469D01*
X62528276Y-82347475D01*
X62377079Y-82317400D01*
X62222921Y-82317400D01*
X62071724Y-82347475D01*
X61929300Y-82406469D01*
X61927000Y-82408006D01*
X61927000Y-75709600D01*
X70366661Y-75709600D01*
X70394333Y-75848714D01*
G37*
G04 #@! TD.AperFunction*
M02*
