G04 #@! TF.GenerationSoftware,KiCad,Pcbnew,(5.1.6-0-10_14)*
G04 #@! TF.CreationDate,2020-10-11T16:31:34+09:00*
G04 #@! TF.ProjectId,Jones,4a6f6e65-732e-46b6-9963-61645f706362,v.0.2*
G04 #@! TF.SameCoordinates,Original*
G04 #@! TF.FileFunction,Copper,L1,Top*
G04 #@! TF.FilePolarity,Positive*
%FSLAX46Y46*%
G04 Gerber Fmt 4.6, Leading zero omitted, Abs format (unit mm)*
G04 Created by KiCad (PCBNEW (5.1.6-0-10_14)) date 2020-10-11 16:31:34*
%MOMM*%
%LPD*%
G01*
G04 APERTURE LIST*
G04 #@! TA.AperFunction,EtchedComponent*
%ADD10C,1.500000*%
G04 #@! TD*
G04 #@! TA.AperFunction,ComponentPad*
%ADD11C,1.000000*%
G04 #@! TD*
G04 #@! TA.AperFunction,ComponentPad*
%ADD12C,5.000000*%
G04 #@! TD*
G04 #@! TA.AperFunction,ComponentPad*
%ADD13O,7.000240X5.000000*%
G04 #@! TD*
G04 #@! TA.AperFunction,ComponentPad*
%ADD14R,2.000000X2.000000*%
G04 #@! TD*
G04 #@! TA.AperFunction,ComponentPad*
%ADD15C,2.000000*%
G04 #@! TD*
G04 #@! TA.AperFunction,ComponentPad*
%ADD16R,2.000000X3.200000*%
G04 #@! TD*
G04 #@! TA.AperFunction,ComponentPad*
%ADD17C,1.397000*%
G04 #@! TD*
G04 #@! TA.AperFunction,SMDPad,CuDef*
%ADD18R,1.300000X3.400000*%
G04 #@! TD*
G04 #@! TA.AperFunction,ComponentPad*
%ADD19C,0.700000*%
G04 #@! TD*
G04 #@! TA.AperFunction,ComponentPad*
%ADD20O,0.900000X2.400000*%
G04 #@! TD*
G04 #@! TA.AperFunction,ComponentPad*
%ADD21O,0.900000X1.700000*%
G04 #@! TD*
G04 #@! TA.AperFunction,ComponentPad*
%ADD22C,2.250000*%
G04 #@! TD*
G04 #@! TA.AperFunction,ComponentPad*
%ADD23R,1.000000X1.000000*%
G04 #@! TD*
G04 #@! TA.AperFunction,ComponentPad*
%ADD24O,1.000000X1.000000*%
G04 #@! TD*
G04 #@! TA.AperFunction,Conductor*
%ADD25R,2.900000X0.500000*%
G04 #@! TD*
G04 #@! TA.AperFunction,SMDPad,CuDef*
%ADD26R,1.500000X1.200000*%
G04 #@! TD*
G04 #@! TA.AperFunction,ComponentPad*
%ADD27C,1.600000*%
G04 #@! TD*
G04 #@! TA.AperFunction,SMDPad,CuDef*
%ADD28R,1.600000X0.850000*%
G04 #@! TD*
G04 #@! TA.AperFunction,ViaPad*
%ADD29C,0.600000*%
G04 #@! TD*
G04 #@! TA.AperFunction,Conductor*
%ADD30C,0.254000*%
G04 #@! TD*
G04 #@! TA.AperFunction,Conductor*
%ADD31C,0.381000*%
G04 #@! TD*
G04 #@! TA.AperFunction,Conductor*
%ADD32C,0.200000*%
G04 #@! TD*
G04 APERTURE END LIST*
D10*
X22600000Y-76900000D02*
X26400000Y-76900000D01*
X22650000Y-81200000D02*
X26450000Y-81200000D01*
X307600000Y-81200000D02*
X303800000Y-81200000D01*
X307550000Y-76900000D02*
X303750000Y-76900000D01*
X301650000Y-79050000D02*
G75*
G03*
X303800000Y-81200000I2150000J0D01*
G01*
X301650000Y-79050000D02*
G75*
G02*
X303800000Y-76900000I2150000J0D01*
G01*
X28550000Y-79050000D02*
G75*
G02*
X26400000Y-81200000I-2150000J0D01*
G01*
X28550000Y-79050000D02*
G75*
G03*
X26400000Y-76900000I-2150000J0D01*
G01*
D11*
X305842035Y-76850000D03*
X305850000Y-81200000D03*
X302250000Y-80550000D03*
X303800000Y-76850000D03*
X303800000Y-81200000D03*
X301650000Y-79050000D03*
X302250000Y-77550000D03*
X27950000Y-80550000D03*
D12*
X47800000Y-50450000D03*
D13*
X150800000Y-69550000D03*
X213100000Y-107750000D03*
X282650000Y-50450000D03*
D11*
X47800000Y-48550000D03*
X45900000Y-50450000D03*
X49700000Y-50450000D03*
X47800000Y-52350000D03*
X46450000Y-49100000D03*
X49050000Y-49100000D03*
X46450000Y-51750000D03*
X49050000Y-51800000D03*
X282650000Y-48600000D03*
X282650000Y-52300000D03*
X283850000Y-52300000D03*
X281450000Y-52300000D03*
X281450000Y-48600000D03*
X283850000Y-48583000D03*
X213150000Y-105900000D03*
X213100000Y-109600000D03*
X214350000Y-105900000D03*
X211950000Y-105900000D03*
X211900000Y-109600000D03*
X214300000Y-109600000D03*
X150800000Y-67700000D03*
X152000000Y-67700000D03*
X149600000Y-67700000D03*
X150800000Y-71450000D03*
X149600000Y-71450000D03*
X152000000Y-71450000D03*
X28550000Y-79050000D03*
X26400000Y-76900000D03*
X26400000Y-81250000D03*
X27950000Y-77550000D03*
X24350000Y-76900000D03*
X24357965Y-81250000D03*
D14*
X300993580Y-100465550D03*
D15*
X298493580Y-100465550D03*
X295993580Y-100465550D03*
D16*
X304093580Y-107965550D03*
X292893580Y-107965550D03*
D15*
X300993580Y-114965550D03*
X295993580Y-114965550D03*
D17*
X306650000Y-34850040D03*
X306650000Y-32310040D03*
X306650000Y-29770040D03*
X306650000Y-27230040D03*
D18*
X51500000Y-89850040D03*
X60200000Y-89850040D03*
D14*
X34271347Y-100452828D03*
D15*
X31771347Y-100452828D03*
X29271347Y-100452828D03*
D16*
X37371347Y-107952828D03*
X26171347Y-107952828D03*
D15*
X34271347Y-114952828D03*
X29271347Y-114952828D03*
D19*
X37801552Y-28187233D03*
X38651552Y-28187233D03*
X39501552Y-28187233D03*
X40351552Y-28187233D03*
X41201552Y-28187233D03*
X42051552Y-28187233D03*
X42901552Y-28187233D03*
X43751552Y-28187233D03*
X38651552Y-26837233D03*
X40351552Y-26837233D03*
X39501552Y-26837233D03*
X37801552Y-26837233D03*
X42051552Y-26837233D03*
X42901552Y-26837233D03*
X43751552Y-26837233D03*
X41201552Y-26837233D03*
D20*
X36451552Y-27207233D03*
X45101552Y-27207233D03*
D21*
X36451552Y-23827233D03*
X45101552Y-23827233D03*
D22*
X259423480Y-72415240D03*
X253073480Y-74955240D03*
X291173640Y-94005320D03*
X297523640Y-91465320D03*
X290379860Y-72415240D03*
X284029860Y-74955240D03*
X261328520Y-86385320D03*
X267678520Y-83845320D03*
X37966300Y-110515400D03*
X31616300Y-113055400D03*
X151790560Y-67335240D03*
X158140560Y-64795240D03*
X277203560Y-64795240D03*
X270853560Y-67335240D03*
X257042220Y-72415240D03*
X250692220Y-74955240D03*
D23*
X272450000Y-41350000D03*
D24*
X272450000Y-40080000D03*
X273720000Y-41350000D03*
X273720000Y-40080000D03*
X274990000Y-41350000D03*
X274990000Y-40080000D03*
X276260000Y-41350000D03*
X276260000Y-40080000D03*
X277530000Y-41350000D03*
X277530000Y-40080000D03*
X289730000Y-40080000D03*
X289730000Y-41350000D03*
X288460000Y-40080000D03*
X288460000Y-41350000D03*
X287190000Y-40080000D03*
X287190000Y-41350000D03*
X285920000Y-40080000D03*
X285920000Y-41350000D03*
X284650000Y-40080000D03*
D23*
X284650000Y-41350000D03*
D25*
X296350000Y-37650040D03*
D26*
X297500000Y-37650040D03*
X300200000Y-37650040D03*
D25*
X301350000Y-37650040D03*
D27*
X294950000Y-37650040D03*
X302750000Y-37650040D03*
X302050000Y-34850040D03*
X294250000Y-34850040D03*
D25*
X300650000Y-34850040D03*
D26*
X299500000Y-34850040D03*
X296800000Y-34850040D03*
D25*
X295650000Y-34850040D03*
D22*
X47015000Y-29235040D03*
X53365000Y-26695040D03*
X34315040Y-26695080D03*
X27965040Y-29235080D03*
D28*
X27400000Y-63325040D03*
X27400000Y-61575040D03*
X23900000Y-63325040D03*
X23900000Y-61575040D03*
X23900000Y-65775040D03*
X23900000Y-67525040D03*
X27400000Y-65775040D03*
X27400000Y-67525040D03*
X27400000Y-86125040D03*
X27400000Y-84375040D03*
X23900000Y-86125040D03*
X23900000Y-84375040D03*
X23900000Y-88575040D03*
X23900000Y-90325040D03*
X27400000Y-88575040D03*
X27400000Y-90325040D03*
X306200000Y-44125040D03*
X306200000Y-42375040D03*
X302700000Y-44125040D03*
X302700000Y-42375040D03*
X302700000Y-46575040D03*
X302700000Y-48325040D03*
X306200000Y-46575040D03*
X306200000Y-48325040D03*
X302700000Y-61575040D03*
X302700000Y-63325040D03*
X306200000Y-61575040D03*
X306200000Y-63325040D03*
X306200000Y-67525040D03*
X306200000Y-65775040D03*
X302700000Y-67525040D03*
X302700000Y-65775040D03*
D22*
X275616080Y-48285160D03*
X281966080Y-45745160D03*
D29*
X261455480Y-45745160D03*
X259891781Y-77057535D03*
X265936340Y-83563660D03*
X273600000Y-55900000D03*
X280049999Y-45750000D03*
X273100000Y-74900000D03*
X53275000Y-61850040D03*
X59715858Y-47218139D03*
X302700000Y-48325040D03*
X56829893Y-59412788D03*
X69219790Y-50950040D03*
X69219790Y-53250040D03*
X56850000Y-28450040D03*
X57849194Y-53740487D03*
X63346440Y-62250040D03*
X32864421Y-78691995D03*
X60710006Y-62674675D03*
X52962579Y-71043563D03*
X68093775Y-62350397D03*
X65182379Y-61050509D03*
X31350000Y-86310040D03*
X27400000Y-84375040D03*
X51050000Y-50450040D03*
X51250000Y-61850040D03*
X51500000Y-89850040D03*
X50596751Y-74165870D03*
X67425005Y-53032418D03*
X67450000Y-50950040D03*
X69219790Y-48650040D03*
X306834211Y-58634251D03*
X23900000Y-90325040D03*
X62650000Y-91800040D03*
X66450000Y-96250040D03*
X69200000Y-57668944D03*
X31350000Y-91390040D03*
X31697282Y-77814733D03*
X56850000Y-25650040D03*
X32095647Y-27700017D03*
X46593860Y-67965870D03*
X53050000Y-73075040D03*
X57229526Y-60960393D03*
X67450000Y-48650040D03*
X66247796Y-53556544D03*
X69333065Y-61689564D03*
X63855862Y-63040216D03*
X61304307Y-62134346D03*
X67830210Y-63151186D03*
X293100000Y-94000000D03*
X43950000Y-54250034D03*
X29649996Y-25650040D03*
X40469790Y-30600000D03*
X43950000Y-58650040D03*
X41104374Y-31595666D03*
X31850000Y-25650040D03*
X24650000Y-27650040D03*
X39500000Y-30400000D03*
X50450000Y-25650040D03*
X58248538Y-47239292D03*
X60169267Y-53315683D03*
X41850000Y-38100040D03*
X163850000Y-54300040D03*
X58250000Y-43450040D03*
X58412007Y-52399830D03*
X76850000Y-43250040D03*
X78650000Y-28900040D03*
X42080201Y-43140633D03*
X158050000Y-36450040D03*
X269932775Y-41880594D03*
X268300000Y-55300000D03*
X51819790Y-46342652D03*
X144850000Y-54450038D03*
X56480144Y-54232013D03*
X144850000Y-70250040D03*
X260550000Y-82250040D03*
X59319790Y-78130054D03*
X262450000Y-78450044D03*
X64413872Y-61284058D03*
X270212729Y-96835493D03*
X269250000Y-108250040D03*
X60297536Y-95258758D03*
X60039314Y-63444678D03*
X288450000Y-108200040D03*
X286650000Y-100050040D03*
X59400000Y-62820044D03*
X62850002Y-100850040D03*
X151450000Y-34850040D03*
X253880210Y-31050040D03*
X133400002Y-60420040D03*
X262277201Y-39609052D03*
X60969945Y-53251920D03*
X239850000Y-54250044D03*
X61850000Y-32650040D03*
X271200002Y-44199998D03*
X239550000Y-37000000D03*
X278650000Y-65850040D03*
X285650000Y-63650040D03*
X71850000Y-52050040D03*
X78650000Y-32450040D03*
X239250000Y-73650040D03*
X235850000Y-55650040D03*
X272516153Y-78707445D03*
X287850000Y-95100040D03*
X285850000Y-79850040D03*
X271255742Y-78618820D03*
X67568903Y-71968943D03*
X66799996Y-92000000D03*
X90650000Y-70400040D03*
X89250000Y-73650040D03*
X277650000Y-66650040D03*
X282050000Y-98450040D03*
X250050000Y-104850040D03*
X238050000Y-82118583D03*
X280049998Y-81980052D03*
X272062820Y-80951883D03*
X286852394Y-63612681D03*
X55250000Y-42450040D03*
X26850000Y-41650040D03*
X24250000Y-30600040D03*
X56650000Y-50850040D03*
X250325760Y-28909639D03*
X273800004Y-27250040D03*
X269300000Y-34500000D03*
X269950000Y-41000000D03*
X241599996Y-42450000D03*
X36596340Y-86385320D03*
X48385080Y-91465320D03*
X43622500Y-72415200D03*
X24690040Y-105435400D03*
X29452500Y-48285120D03*
X31833820Y-67335240D03*
X24250000Y-33900040D03*
X38860000Y-34315040D03*
X43740120Y-105435400D03*
X62672640Y-110515400D03*
X59650000Y-67250040D03*
X58956290Y-40477244D03*
X57756290Y-34315040D03*
X71219790Y-41280250D03*
X68289664Y-66971646D03*
X62850000Y-29250040D03*
X84050000Y-110450040D03*
X65171460Y-105435400D03*
X62502378Y-86192990D03*
X53280210Y-48250040D03*
X78650000Y-35700040D03*
X54250000Y-41650040D03*
X72952974Y-41280250D03*
X62850000Y-41650040D03*
X65435256Y-73455996D03*
X81850000Y-29250040D03*
X72315000Y-67335200D03*
X81840000Y-86480250D03*
X88984060Y-105435400D03*
X71550000Y-73650040D03*
X72937421Y-48285120D03*
X100772800Y-110515400D03*
X91450000Y-67250040D03*
X90650000Y-73700040D03*
X91365000Y-48285120D03*
X100890000Y-29235040D03*
X100890000Y-86480250D03*
X119850000Y-29250040D03*
X110415000Y-48285120D03*
X109150000Y-64400040D03*
X110415000Y-67335200D03*
X119940000Y-86385280D03*
X119940440Y-105435400D03*
X131729180Y-110515400D03*
X109650000Y-73650040D03*
X139050000Y-29250040D03*
X129465000Y-48285120D03*
X129465000Y-67335200D03*
X138990000Y-86385280D03*
X136050000Y-35250036D03*
X148515560Y-48285120D03*
X158040600Y-29235080D03*
X162685560Y-72415240D03*
X144850000Y-73650040D03*
X158040600Y-86385280D03*
X158040600Y-105435400D03*
X141371780Y-105435400D03*
X167565640Y-48285160D03*
X177050000Y-29250040D03*
X177090680Y-86385280D03*
X167519790Y-67335200D03*
X188850000Y-105050040D03*
X182650000Y-73700040D03*
X196250000Y-86450040D03*
X212809580Y-104746800D03*
X226979580Y-110515400D03*
X186650000Y-67250040D03*
X186615720Y-48285160D03*
X196140760Y-29235040D03*
X185450000Y-105100040D03*
X215250000Y-86450040D03*
X215250000Y-29050040D03*
X205665800Y-48285160D03*
X205665800Y-67335240D03*
X212400000Y-101599994D03*
X234250000Y-29250040D03*
X224715880Y-48285160D03*
X224715880Y-67335240D03*
X234240920Y-86385320D03*
X234240920Y-105435400D03*
X223650000Y-73650040D03*
X260317220Y-62890200D03*
X253291000Y-86385320D03*
X253291000Y-105435360D03*
X255672256Y-67050040D03*
X274650000Y-91450040D03*
X252650000Y-92300040D03*
X248731631Y-48285160D03*
X253289840Y-29235040D03*
X272450000Y-86250040D03*
X272341080Y-105435360D03*
X267578560Y-48285160D03*
X286450000Y-72850040D03*
X269250000Y-111450040D03*
X272341080Y-29235080D03*
X289009900Y-86385320D03*
X286628640Y-67335240D03*
X305561160Y-72415240D03*
X291450000Y-29250040D03*
X291450000Y-105450040D03*
X305556290Y-91465320D03*
X305550000Y-53350000D03*
X287075000Y-47875000D03*
X60200000Y-89850040D03*
X62650000Y-95100040D03*
X23850000Y-88550040D03*
X34174961Y-78625041D03*
X302700000Y-61575038D03*
X306250000Y-44150040D03*
X302700000Y-46575040D03*
X306150000Y-63350040D03*
X302700000Y-65775040D03*
X56554175Y-56661827D03*
X242650000Y-57582085D03*
X67659170Y-56271916D03*
X249625001Y-35324999D03*
X56560345Y-57465015D03*
X246450000Y-56850040D03*
X68255205Y-56810331D03*
X252549998Y-34700000D03*
X58050000Y-61050040D03*
X56400000Y-81100000D03*
X266650000Y-79850040D03*
X286250000Y-96850040D03*
X266212553Y-57819830D03*
X284850000Y-80850040D03*
X267550000Y-43250000D03*
X266650000Y-78850040D03*
X267350000Y-57743750D03*
X286050004Y-81050040D03*
X268600000Y-43400000D03*
X280600000Y-41650000D03*
X290700000Y-101200000D03*
X62674101Y-68759631D03*
X73050002Y-37710452D03*
X58778903Y-63643560D03*
X67737426Y-68748053D03*
X57707211Y-94642791D03*
X58716380Y-65373433D03*
X47350000Y-65350040D03*
X72799336Y-38473549D03*
X58837128Y-62142708D03*
X68194637Y-66174075D03*
X47400000Y-100300000D03*
X56547121Y-55858646D03*
X245250000Y-56850040D03*
X67092987Y-55702192D03*
X251400000Y-38200000D03*
X56510644Y-55056263D03*
X244050000Y-56819830D03*
X66475757Y-55188211D03*
X249800000Y-38800000D03*
X63270000Y-48800040D03*
X67250000Y-40650040D03*
X64089024Y-48999064D03*
X67707575Y-39301213D03*
X66569790Y-60850040D03*
X62630085Y-74078662D03*
X270794837Y-69217760D03*
X269450001Y-80951883D03*
X288900000Y-62900000D03*
X289450000Y-59800000D03*
X289687529Y-57300009D03*
X23850000Y-69450040D03*
X23900000Y-65775040D03*
X64160000Y-52720040D03*
X68456412Y-40638065D03*
X254950000Y-39504995D03*
X258000000Y-36333534D03*
X64852265Y-53127370D03*
X69250000Y-40019830D03*
X60000000Y-80700002D03*
X306200000Y-67525040D03*
X306200000Y-48325040D03*
X298850000Y-58543750D03*
X303193283Y-49363313D03*
D30*
X253073480Y-74955240D02*
X255175775Y-77057535D01*
X255175775Y-77057535D02*
X259891781Y-77057535D01*
X277101979Y-52398021D02*
X277101979Y-48698020D01*
X273600000Y-55900000D02*
X277101979Y-52398021D01*
X277101979Y-48698020D02*
X280049999Y-45750000D01*
D31*
X26250000Y-64108702D02*
X26250000Y-64625040D01*
X26206299Y-64065001D02*
X26250000Y-64108702D01*
X26206299Y-62585079D02*
X26206299Y-64065001D01*
X26250000Y-62541378D02*
X26206299Y-62585079D01*
X27125000Y-61575040D02*
X26250000Y-62450040D01*
X26250000Y-64625040D02*
X27400000Y-65775040D01*
X26250000Y-62450040D02*
X26250000Y-62541378D01*
X27400000Y-61575040D02*
X27125000Y-61575040D01*
X26250000Y-87425040D02*
X27400000Y-88575040D01*
X26250000Y-86908702D02*
X26250000Y-87425040D01*
X26250000Y-85341378D02*
X26206299Y-85385079D01*
X26250000Y-85250040D02*
X26250000Y-85341378D01*
X27125000Y-84375040D02*
X26250000Y-85250040D01*
X26206299Y-85385079D02*
X26206299Y-86865001D01*
X26206299Y-86865001D02*
X26250000Y-86908702D01*
X27400000Y-84375040D02*
X27125000Y-84375040D01*
X303893701Y-45318741D02*
X302700000Y-44125040D01*
X303893701Y-48312339D02*
X303893701Y-45318741D01*
X303881000Y-48325040D02*
X303893701Y-48312339D01*
X303893701Y-67512339D02*
X303881000Y-67525040D01*
X303881000Y-67525040D02*
X302700000Y-67525040D01*
X303893701Y-64518741D02*
X303893701Y-67512339D01*
X302700000Y-63325040D02*
X303893701Y-64518741D01*
X302700000Y-48325040D02*
X303881000Y-48325040D01*
X69219790Y-53250040D02*
X69219790Y-50950040D01*
X302050000Y-36950040D02*
X302750000Y-37650040D01*
X302050000Y-34850040D02*
X302050000Y-36950040D01*
X56850000Y-28450040D02*
X59650000Y-31250040D01*
X59650000Y-31250040D02*
X59650000Y-47977798D01*
X57549195Y-53440488D02*
X57849194Y-53740487D01*
X57549195Y-50078603D02*
X57549195Y-53440488D01*
X59650000Y-47977798D02*
X57549195Y-50078603D01*
X63346440Y-62250040D02*
X62522046Y-61425646D01*
X60410007Y-62001970D02*
X60410007Y-62374676D01*
X60986331Y-61425646D02*
X60410007Y-62001970D01*
X60410007Y-62374676D02*
X60710006Y-62674675D01*
X62522046Y-61425646D02*
X60986331Y-61425646D01*
X53275000Y-62550040D02*
X52962579Y-62862461D01*
X52962579Y-62862461D02*
X52962579Y-71043563D01*
X53275000Y-61850040D02*
X53275000Y-62550040D01*
X70104922Y-57831474D02*
X70104922Y-55942327D01*
X68093775Y-62350397D02*
X68093775Y-59842621D01*
X69219790Y-55057195D02*
X69219790Y-53250040D01*
X68093775Y-59842621D02*
X70104922Y-57831474D01*
X70104922Y-55942327D02*
X69219790Y-55057195D01*
X56829893Y-59412788D02*
X63544658Y-59412788D01*
X63544658Y-59412788D02*
X65182379Y-61050509D01*
X31350000Y-86350040D02*
X31350000Y-86310040D01*
X32864421Y-84795619D02*
X31350000Y-86310040D01*
X32864421Y-78691995D02*
X32864421Y-84795619D01*
X27400000Y-65775040D02*
X28581000Y-65775040D01*
X28581000Y-65775040D02*
X28593702Y-65787742D01*
X28593702Y-65787742D02*
X28593702Y-73730098D01*
X32864421Y-78000817D02*
X32864421Y-78691995D01*
X28593702Y-73730098D02*
X32864421Y-78000817D01*
X302700000Y-44100000D02*
X302700000Y-44125040D01*
X302908702Y-44100000D02*
X302700000Y-44100000D01*
X303893701Y-43115001D02*
X302908702Y-44100000D01*
X303893701Y-38893741D02*
X303893701Y-43115001D01*
X302750000Y-37750040D02*
X303893701Y-38893741D01*
X302750000Y-37650040D02*
X302750000Y-37750040D01*
X303893701Y-63312339D02*
X303881000Y-63325040D01*
X306243701Y-53682977D02*
X303893701Y-56032977D01*
X303881000Y-49272322D02*
X306243701Y-51635023D01*
X306243701Y-51635023D02*
X306243701Y-53682977D01*
X303881000Y-48325040D02*
X303881000Y-49272322D01*
X303893701Y-56032977D02*
X303893701Y-63312339D01*
X303881000Y-63325040D02*
X302700000Y-63325040D01*
X24218701Y-67525040D02*
X23900000Y-67525040D01*
X25093701Y-66650040D02*
X24218701Y-67525040D01*
X25093701Y-64518741D02*
X25093701Y-66650040D01*
X23900000Y-63325040D02*
X25093701Y-64518741D01*
X23975000Y-90325040D02*
X23900000Y-90325040D01*
X25093701Y-89206339D02*
X23975000Y-90325040D01*
X25093701Y-87318741D02*
X25093701Y-89206339D01*
X23900000Y-86125040D02*
X25093701Y-87318741D01*
X305006299Y-64581339D02*
X306200000Y-65775040D01*
X306200000Y-61575040D02*
X305825000Y-61575040D01*
X305825000Y-61575040D02*
X305006299Y-62393741D01*
X305006299Y-62393741D02*
X305006299Y-64581339D01*
X51250000Y-73512621D02*
X50596751Y-74165870D01*
X51500000Y-89850040D02*
X51500000Y-87769040D01*
X50596751Y-86865791D02*
X50596751Y-74165870D01*
X51250000Y-61850040D02*
X51250000Y-73512621D01*
X51500000Y-87769040D02*
X50596751Y-86865791D01*
X305006299Y-45381339D02*
X306200000Y-46575040D01*
X305006299Y-43193741D02*
X305006299Y-45381339D01*
X305825000Y-42375040D02*
X305006299Y-43193741D01*
X306200000Y-42375040D02*
X305825000Y-42375040D01*
X67425005Y-50975035D02*
X67450000Y-50950040D01*
X67425005Y-53032418D02*
X67425005Y-50975035D01*
X67450000Y-50950040D02*
X69219790Y-49180250D01*
X69219790Y-49180250D02*
X69219790Y-48650040D01*
X51050000Y-50450040D02*
X51050000Y-43786436D01*
X51050000Y-43786436D02*
X44227923Y-36964359D01*
X44227923Y-36964359D02*
X44227923Y-28663604D01*
X44227923Y-28663604D02*
X43751552Y-28187233D01*
X28602370Y-101846529D02*
X23900000Y-97144159D01*
X30377646Y-101846529D02*
X28602370Y-101846529D01*
X23900000Y-97144159D02*
X23900000Y-90325040D01*
X31771347Y-100452828D02*
X30377646Y-101846529D01*
X305450000Y-41625040D02*
X306200000Y-42375040D01*
X305450000Y-28430040D02*
X305450000Y-41625040D01*
X306650000Y-27230040D02*
X305450000Y-28430040D01*
X62650000Y-91800040D02*
X63400000Y-91800040D01*
X63400000Y-91800040D02*
X66250000Y-94650040D01*
X66250000Y-94650040D02*
X66450000Y-94850040D01*
X66450000Y-94850040D02*
X66450000Y-96250040D01*
X69520711Y-57348233D02*
X69200000Y-57668944D01*
X67425005Y-54088609D02*
X69520711Y-56184315D01*
X67425005Y-53032418D02*
X67425005Y-54088609D01*
X69520711Y-56184315D02*
X69520711Y-57348233D01*
X24970711Y-68595751D02*
X24970711Y-71088162D01*
X31997281Y-84102719D02*
X31997281Y-78114732D01*
X30600000Y-85500000D02*
X31997281Y-84102719D01*
X23900000Y-67525040D02*
X24970711Y-68595751D01*
X31350000Y-91390040D02*
X30600000Y-90640040D01*
X24970711Y-71088162D02*
X31697282Y-77814733D01*
X30600000Y-90640040D02*
X30600000Y-85500000D01*
X31997281Y-78114732D02*
X31697282Y-77814733D01*
X305937558Y-46575040D02*
X306200000Y-46575040D01*
X305006299Y-47506299D02*
X305937558Y-46575040D01*
X306834211Y-60940829D02*
X306834211Y-51399334D01*
X305006299Y-49571422D02*
X305006299Y-47506299D01*
X306834211Y-51399334D02*
X305006299Y-49571422D01*
X306200000Y-61575040D02*
X306834211Y-60940829D01*
X306250000Y-92050040D02*
X298493580Y-99806460D01*
X306250000Y-88657742D02*
X306250000Y-92050040D01*
X298901641Y-81309383D02*
X306250000Y-88657742D01*
X304733888Y-74766152D02*
X301833888Y-74766152D01*
X306400000Y-73100040D02*
X304733888Y-74766152D01*
X298493580Y-99806460D02*
X298493580Y-100465550D01*
X306400000Y-71700040D02*
X306400000Y-73100040D01*
X306200000Y-65775040D02*
X305019000Y-65775040D01*
X305006299Y-70306339D02*
X306400000Y-71700040D01*
X305006299Y-65787741D02*
X305006299Y-70306339D01*
X298901641Y-77698400D02*
X298901641Y-81309383D01*
X301833888Y-74766152D02*
X298901641Y-77698400D01*
X305019000Y-65775040D02*
X305006299Y-65787741D01*
X42901552Y-28682207D02*
X42901552Y-28187233D01*
X39144575Y-28930934D02*
X42652825Y-28930934D01*
X38651552Y-28437911D02*
X39144575Y-28930934D01*
X42652825Y-28930934D02*
X42901552Y-28682207D01*
X38651552Y-26837233D02*
X38651552Y-28437911D01*
X56250000Y-25050040D02*
X56850000Y-25650040D01*
X42901552Y-26342259D02*
X43630288Y-25613523D01*
X42901552Y-26837233D02*
X42901552Y-26342259D01*
X52650000Y-25050040D02*
X56250000Y-25050040D01*
X49386803Y-25613523D02*
X50117022Y-26343742D01*
X50117022Y-26343742D02*
X51356298Y-26343742D01*
X51356298Y-26343742D02*
X52650000Y-25050040D01*
X43630288Y-25613523D02*
X49386803Y-25613523D01*
X38651552Y-28187233D02*
X38651552Y-28682207D01*
X38651552Y-28682207D02*
X38402825Y-28930934D01*
X33326564Y-28930934D02*
X32095647Y-27700017D01*
X38402825Y-28930934D02*
X33326564Y-28930934D01*
D30*
X53050000Y-73075040D02*
X53592789Y-72532251D01*
X53592789Y-64597130D02*
X57229526Y-60960393D01*
X53592789Y-72532251D02*
X53592789Y-64597130D01*
X66750001Y-53054339D02*
X66247796Y-53556544D01*
X67450000Y-48650040D02*
X66750001Y-49350039D01*
X66750001Y-49350039D02*
X66750001Y-53054339D01*
X63780645Y-62964999D02*
X63855862Y-63040216D01*
X61304307Y-62134346D02*
X62134960Y-62964999D01*
X62134960Y-62964999D02*
X63780645Y-62964999D01*
X68295707Y-63151186D02*
X67830210Y-63151186D01*
X69333065Y-62113828D02*
X68295707Y-63151186D01*
X69333065Y-61689564D02*
X69333065Y-62113828D01*
X25614412Y-62235452D02*
X25614412Y-65739452D01*
X25614412Y-65739452D02*
X27400000Y-67525040D01*
X24954000Y-61575040D02*
X25614412Y-62235452D01*
X23900000Y-61575040D02*
X24954000Y-61575040D01*
X40351552Y-28030535D02*
X40351552Y-28187233D01*
X41201552Y-27180535D02*
X40351552Y-28030535D01*
X41201552Y-26837233D02*
X41201552Y-27180535D01*
X36128379Y-25007443D02*
X34970976Y-23850040D01*
X34970976Y-23850040D02*
X31449996Y-23850040D01*
X41201552Y-26837233D02*
X41201552Y-26342259D01*
X31449996Y-23850040D02*
X29649996Y-25650040D01*
X41201552Y-26342259D02*
X39866736Y-25007443D01*
X39866736Y-25007443D02*
X36128379Y-25007443D01*
X41024264Y-30600000D02*
X40469790Y-30600000D01*
X43707212Y-54007246D02*
X43707212Y-33282948D01*
X43950000Y-54250034D02*
X43707212Y-54007246D01*
X43707212Y-33282948D02*
X41024264Y-30600000D01*
X32349999Y-25150041D02*
X31850000Y-25650040D01*
X40351552Y-26837233D02*
X40351552Y-26342259D01*
X39473947Y-25464654D02*
X35938997Y-25464654D01*
X35938997Y-25464654D02*
X35624384Y-25150041D01*
X40351552Y-26342259D02*
X39473947Y-25464654D01*
X35624384Y-25150041D02*
X32349999Y-25150041D01*
X43250001Y-57950041D02*
X43250001Y-33741293D01*
X43250001Y-33741293D02*
X41104374Y-31595666D01*
X43950000Y-58650040D02*
X43250001Y-57950041D01*
X31050040Y-27650040D02*
X33800000Y-30400000D01*
X24650000Y-27650040D02*
X31050040Y-27650040D01*
X33800000Y-30400000D02*
X39500000Y-30400000D01*
X43343771Y-25050040D02*
X49850000Y-25050040D01*
X42051552Y-26837233D02*
X42051552Y-26342259D01*
X42051552Y-26342259D02*
X43343771Y-25050040D01*
X49850000Y-25050040D02*
X50450000Y-25650040D01*
X58248538Y-47239292D02*
X58248538Y-43451502D01*
X58248538Y-43451502D02*
X58250000Y-43450040D01*
X59327860Y-53315683D02*
X58412007Y-52399830D01*
X60169267Y-53315683D02*
X59327860Y-53315683D01*
X76850000Y-43250040D02*
X79450000Y-40650040D01*
X79450000Y-29700040D02*
X78650000Y-28900040D01*
X79450000Y-40650040D02*
X79450000Y-29700040D01*
X41850000Y-38100040D02*
X41850000Y-42910432D01*
X41850000Y-42910432D02*
X42080201Y-43140633D01*
X163850000Y-54300040D02*
X163850000Y-42250040D01*
X163850000Y-42250040D02*
X158050000Y-36450040D01*
X268300000Y-47024304D02*
X268300000Y-55300000D01*
X269932775Y-45391529D02*
X268300000Y-47024304D01*
X269932775Y-41880594D02*
X269932775Y-45391529D01*
X55867703Y-54232013D02*
X56480144Y-54232013D01*
X51819790Y-46342652D02*
X51819790Y-50184100D01*
X51819790Y-50184100D02*
X55867703Y-54232013D01*
X144850000Y-54450038D02*
X144850000Y-70250040D01*
X144850000Y-70250040D02*
X144850000Y-70250044D01*
X260550000Y-82250040D02*
X262450000Y-80350040D01*
X262450000Y-80350040D02*
X262450000Y-78450044D01*
X64759999Y-61630185D02*
X64413872Y-61284058D01*
X59319790Y-76456259D02*
X64218724Y-71557325D01*
X64218724Y-66234724D02*
X64759999Y-65693449D01*
X64759999Y-65693449D02*
X64759999Y-61630185D01*
X59319790Y-78130054D02*
X59319790Y-76456259D01*
X64218724Y-71557325D02*
X64218724Y-66234724D01*
X270212729Y-107287311D02*
X269250000Y-108250040D01*
X270212729Y-96835493D02*
X270212729Y-107287311D01*
X63761513Y-71367943D02*
X63761513Y-68267752D01*
X60297536Y-95258758D02*
X58689589Y-93650811D01*
X58689589Y-93650811D02*
X58689589Y-76439867D01*
X58689589Y-76439867D02*
X63761513Y-71367943D01*
X63761513Y-68267752D02*
X60393005Y-64899244D01*
X60393005Y-64899244D02*
X60393005Y-63798369D01*
X60393005Y-63798369D02*
X60039314Y-63444678D01*
X286650000Y-106400040D02*
X286650000Y-100050040D01*
X288450000Y-108200040D02*
X286650000Y-106400040D01*
X58337413Y-96337451D02*
X62850002Y-100850040D01*
X59400000Y-62820044D02*
X59409113Y-62829157D01*
X59409113Y-62829157D02*
X59409113Y-63747175D01*
X59907211Y-65060043D02*
X63304302Y-68457134D01*
X59907211Y-64245273D02*
X59907211Y-65060043D01*
X63304302Y-71178561D02*
X58232378Y-76250485D01*
X58232378Y-93885254D02*
X58337413Y-93990289D01*
X59409113Y-63747175D02*
X59907211Y-64245273D01*
X63304302Y-68457134D02*
X63304302Y-71178561D01*
X58232378Y-76250485D02*
X58232378Y-93885254D01*
X58337413Y-93990289D02*
X58337413Y-96337451D01*
X147850000Y-46394306D02*
X133824266Y-60420040D01*
X151450000Y-34850040D02*
X147850000Y-38450040D01*
X147850000Y-38450040D02*
X147850000Y-46394306D01*
X133824266Y-60420040D02*
X133400002Y-60420040D01*
X257453333Y-35703333D02*
X258371482Y-35703333D01*
X253880210Y-31050040D02*
X253880210Y-32130210D01*
X253880210Y-32130210D02*
X257453333Y-35703333D01*
X258371482Y-35703333D02*
X262277201Y-39609052D01*
X61394209Y-53251920D02*
X62674101Y-51972028D01*
X62674101Y-49136839D02*
X60950001Y-47412739D01*
X62674101Y-51972028D02*
X62674101Y-49136839D01*
X60969945Y-53251920D02*
X61394209Y-53251920D01*
X60950001Y-47412739D02*
X60950001Y-33550039D01*
X60950001Y-33550039D02*
X61850000Y-32650040D01*
X271685839Y-40519799D02*
X272010201Y-40519799D01*
X272010201Y-40519799D02*
X272450000Y-40080000D01*
X271200002Y-41005636D02*
X271685839Y-40519799D01*
X271200002Y-44199998D02*
X271200002Y-41005636D01*
X239850000Y-54250044D02*
X239550000Y-53950044D01*
X239550000Y-53950044D02*
X239550000Y-37000000D01*
X239250000Y-73650040D02*
X239250000Y-59050040D01*
X239250000Y-59050040D02*
X235850000Y-55650040D01*
X78650000Y-33555585D02*
X78650000Y-32450040D01*
X71850000Y-52050040D02*
X71850000Y-40355585D01*
X71850000Y-40355585D02*
X78650000Y-33555585D01*
X272516153Y-76383847D02*
X272516153Y-78707445D01*
X277101979Y-68598061D02*
X277101979Y-71798021D01*
X278650000Y-67050040D02*
X277101979Y-68598061D01*
X277101979Y-71798021D02*
X272516153Y-76383847D01*
X278650000Y-65850040D02*
X278650000Y-67050040D01*
X283421281Y-45921281D02*
X283421281Y-45046663D01*
X276284959Y-43914959D02*
X273720000Y-41350000D01*
X286480330Y-48980330D02*
X283421281Y-45921281D01*
X282289577Y-43914959D02*
X276284959Y-43914959D01*
X283421281Y-45046663D02*
X282289577Y-43914959D01*
X285650000Y-63650040D02*
X286480330Y-62819710D01*
X286480330Y-62819710D02*
X286480330Y-48980330D01*
X287850000Y-95100040D02*
X286971228Y-94221268D01*
X286971228Y-94221268D02*
X286971228Y-80971268D01*
X286971228Y-80971268D02*
X285850000Y-79850040D01*
X65439429Y-92000000D02*
X66799996Y-92000000D01*
X63132588Y-89693159D02*
X65439429Y-92000000D01*
X63132588Y-82886036D02*
X63132588Y-89693159D01*
X65251646Y-74086198D02*
X61907211Y-77430633D01*
X65875912Y-74086198D02*
X65251646Y-74086198D01*
X67568903Y-72393207D02*
X65875912Y-74086198D01*
X61907211Y-77430633D02*
X61907211Y-81660659D01*
X61907211Y-81660659D02*
X63132588Y-82886036D01*
X67568903Y-71968943D02*
X67568903Y-72393207D01*
X272889799Y-39249799D02*
X273720000Y-40080000D01*
X271900201Y-39249799D02*
X272889799Y-39249799D01*
X270742791Y-40407209D02*
X271900201Y-39249799D01*
X270569798Y-44502496D02*
X270569798Y-41212902D01*
X272683761Y-49163657D02*
X272683761Y-46616459D01*
X272308761Y-49538657D02*
X272683761Y-49163657D01*
X272683761Y-46616459D02*
X270569798Y-44502496D01*
X272308761Y-68143777D02*
X272308761Y-49538657D01*
X270569798Y-41212902D02*
X270742791Y-41039909D01*
X271882248Y-68570289D02*
X272308761Y-68143777D01*
X271255742Y-76121085D02*
X271882248Y-75494579D01*
X270742791Y-41039909D02*
X270742791Y-40407209D01*
X271882248Y-75494579D02*
X271882248Y-68570289D01*
X271255742Y-78618820D02*
X271255742Y-76121085D01*
X90650000Y-72250040D02*
X89250000Y-73650040D01*
X90650000Y-70400040D02*
X90650000Y-72250040D01*
X238050000Y-82274304D02*
X238050000Y-82118583D01*
X250050000Y-94274304D02*
X238050000Y-82274304D01*
X250050000Y-104850040D02*
X250050000Y-94274304D01*
X282050000Y-98450040D02*
X282050000Y-86637938D01*
X282050000Y-86637938D02*
X280049998Y-84637936D01*
X280049998Y-84637936D02*
X280049998Y-81980052D01*
X271885952Y-76214088D02*
X271885952Y-80775015D01*
X271885952Y-80775015D02*
X272062820Y-80951883D01*
X277650000Y-66650040D02*
X274449090Y-66650040D01*
X272339459Y-75760581D02*
X271885952Y-76214088D01*
X272339459Y-68759671D02*
X272339459Y-75760581D01*
X274449090Y-66650040D02*
X272339459Y-68759671D01*
X274990000Y-41350000D02*
X276620200Y-42980200D01*
X276620200Y-42980200D02*
X282520160Y-42980200D01*
X282520160Y-42980200D02*
X283900000Y-44360040D01*
X283900000Y-45753408D02*
X286957211Y-48810619D01*
X286957211Y-48810619D02*
X286957211Y-63507864D01*
X283900000Y-44360040D02*
X283900000Y-45753408D01*
X286957211Y-63507864D02*
X286852394Y-63612681D01*
X26850000Y-41650040D02*
X23619798Y-38419838D01*
X23619798Y-38419838D02*
X23619798Y-31230242D01*
X23619798Y-31230242D02*
X24250000Y-30600040D01*
X56650000Y-51228818D02*
X56650000Y-50850040D01*
X55848497Y-52030321D02*
X56650000Y-51228818D01*
X54064799Y-51403617D02*
X54691503Y-52030321D01*
X54691503Y-52030321D02*
X55848497Y-52030321D01*
X54064799Y-43635241D02*
X54064799Y-51403617D01*
X55250000Y-42450040D02*
X54064799Y-43635241D01*
X269300000Y-33700000D02*
X273200000Y-29800000D01*
X273200000Y-27850044D02*
X273800004Y-27250040D01*
X273200000Y-29800000D02*
X273200000Y-27850044D01*
X269300000Y-34500000D02*
X269300000Y-33700000D01*
X269300000Y-38700000D02*
X269300000Y-34500000D01*
X269300000Y-38700000D02*
X269300000Y-40350000D01*
X269300000Y-40350000D02*
X269950000Y-41000000D01*
X250325760Y-28909639D02*
X250325760Y-33724236D01*
X250325760Y-33724236D02*
X241599996Y-42450000D01*
X36596340Y-79441360D02*
X43622500Y-72415200D01*
X36596340Y-86385320D02*
X36596340Y-79441360D01*
X40913498Y-93450040D02*
X46400360Y-93450040D01*
X36596340Y-86385320D02*
X35014879Y-87966781D01*
X35014879Y-87966781D02*
X35014879Y-89614919D01*
X39638577Y-92175119D02*
X40913498Y-93450040D01*
X46400360Y-93450040D02*
X48385080Y-91465320D01*
X35014879Y-89614919D02*
X37575079Y-92175119D01*
X37575079Y-92175119D02*
X39638577Y-92175119D01*
X36740077Y-110515400D02*
X37966300Y-110515400D01*
X32302649Y-114952828D02*
X36740077Y-110515400D01*
X29271347Y-114952828D02*
X32302649Y-114952828D01*
X39557290Y-110515400D02*
X40913498Y-109159192D01*
X40913498Y-109159192D02*
X40913498Y-93450040D01*
X37966300Y-110515400D02*
X39557290Y-110515400D01*
X24690040Y-110371521D02*
X24690040Y-105435400D01*
X29271347Y-114952828D02*
X24690040Y-110371521D01*
X27965040Y-29235080D02*
X27965040Y-32288778D01*
X37029799Y-36145241D02*
X38860000Y-34315040D01*
X31821503Y-36145241D02*
X37029799Y-36145241D01*
X31821503Y-45916117D02*
X31821503Y-36145241D01*
X29452500Y-48285120D02*
X31821503Y-45916117D01*
X27000000Y-33900040D02*
X24250000Y-33900040D01*
X27965040Y-32935000D02*
X27000000Y-33900040D01*
X27965040Y-32288778D02*
X27965040Y-32935000D01*
X31145201Y-36145241D02*
X31821503Y-36145241D01*
X27965040Y-32965080D02*
X31145201Y-36145241D01*
X27965040Y-32288778D02*
X27965040Y-32965080D01*
X30050000Y-64047420D02*
X30050000Y-48882620D01*
X30050000Y-48882620D02*
X29452500Y-48285120D01*
X31833820Y-65831240D02*
X30050000Y-64047420D01*
X31833820Y-67335240D02*
X31833820Y-65831240D01*
X36596340Y-80303700D02*
X36596340Y-80155168D01*
X36596340Y-80155168D02*
X30252299Y-73811127D01*
X30252299Y-68916761D02*
X31833820Y-67335240D01*
X30252299Y-73811127D02*
X30252299Y-68916761D01*
X60842439Y-112345601D02*
X62672640Y-110515400D01*
X58519143Y-112345601D02*
X60842439Y-112345601D01*
X57398741Y-111225199D02*
X58519143Y-112345601D01*
X46883461Y-111225199D02*
X57398741Y-111225199D01*
X43740120Y-108081858D02*
X46883461Y-111225199D01*
X43740120Y-105435400D02*
X43740120Y-108081858D01*
X57756290Y-31842632D02*
X57756290Y-34315040D01*
X55148698Y-29235040D02*
X57756290Y-31842632D01*
X47015000Y-29235040D02*
X55148698Y-29235040D01*
X58850000Y-40370954D02*
X58850000Y-35408750D01*
X58850000Y-35408750D02*
X57756290Y-34315040D01*
X58956290Y-40477244D02*
X58850000Y-40370954D01*
X71540051Y-52672789D02*
X71540051Y-63721259D01*
X71540051Y-63721259D02*
X68289664Y-66971646D01*
X71219790Y-52352528D02*
X71540051Y-52672789D01*
X71219790Y-41280250D02*
X71219790Y-52352528D01*
X57250000Y-69650040D02*
X59650000Y-67250040D01*
X56969798Y-94097502D02*
X57250000Y-93817300D01*
X57250000Y-93817300D02*
X57250000Y-69650040D01*
X56969798Y-98030202D02*
X56969798Y-94097502D01*
X54050000Y-100950000D02*
X56969798Y-98030202D01*
X48225520Y-100950000D02*
X54050000Y-100950000D01*
X43740120Y-105435400D02*
X48225520Y-100950000D01*
X69324957Y-103605199D02*
X67001661Y-103605199D01*
X67001661Y-103605199D02*
X65171460Y-105435400D01*
X81342678Y-105435400D02*
X71155158Y-105435400D01*
X71155158Y-105435400D02*
X69324957Y-103605199D01*
X84050000Y-108142722D02*
X81342678Y-105435400D01*
X84050000Y-110450040D02*
X84050000Y-108142722D01*
X77796000Y-35700040D02*
X72952974Y-40543066D01*
X78650000Y-35700040D02*
X77796000Y-35700040D01*
X72952974Y-40543066D02*
X72952974Y-41280250D01*
X62850000Y-29250040D02*
X62850000Y-41650040D01*
X53280210Y-42619830D02*
X54250000Y-41650040D01*
X53280210Y-48250040D02*
X53280210Y-42619830D01*
X67080202Y-94287366D02*
X62502378Y-89709542D01*
X67001661Y-103605199D02*
X67080202Y-103526658D01*
X67080202Y-103526658D02*
X67080202Y-94287366D01*
X62502378Y-89709542D02*
X62502378Y-86192990D01*
X62502378Y-86192990D02*
X61450000Y-85140612D01*
X72307211Y-51167472D02*
X72480201Y-51340462D01*
X61450000Y-85140612D02*
X61450000Y-77241252D01*
X72307211Y-41926013D02*
X72307211Y-51167472D01*
X72480201Y-51340462D02*
X72480201Y-66166391D01*
X72952974Y-41280250D02*
X72307211Y-41926013D01*
X65435256Y-73211336D02*
X65435256Y-73455996D01*
X65235256Y-73455996D02*
X65435256Y-73455996D01*
X61450000Y-77241252D02*
X65235256Y-73455996D01*
X72480201Y-66166391D02*
X65435256Y-73211336D01*
X81840000Y-98291340D02*
X81840000Y-86480250D01*
X88984060Y-105435400D02*
X81840000Y-98291340D01*
X72315000Y-72885040D02*
X71550000Y-73650040D01*
X72315000Y-67335200D02*
X72315000Y-72885040D01*
X72937421Y-66712779D02*
X72937421Y-48285120D01*
X81850000Y-39372541D02*
X72937421Y-48285120D01*
X72315000Y-67335200D02*
X72937421Y-66712779D01*
X81850000Y-29250040D02*
X81850000Y-39372541D01*
X65556631Y-74543409D02*
X70656631Y-74543409D01*
X62364422Y-81471276D02*
X62364422Y-77735618D01*
X81840000Y-86480250D02*
X77070869Y-91249381D01*
X63589799Y-82696653D02*
X62364422Y-81471276D01*
X63589799Y-89503777D02*
X63589799Y-82696653D01*
X70656631Y-74543409D02*
X71550000Y-73650040D01*
X65335403Y-91249381D02*
X63589799Y-89503777D01*
X62364422Y-77735618D02*
X65556631Y-74543409D01*
X77070869Y-91249381D02*
X65335403Y-91249381D01*
X87402599Y-107016861D02*
X88984060Y-105435400D01*
X87402599Y-108553897D02*
X87402599Y-107016861D01*
X89981699Y-109180601D02*
X88029303Y-109180601D01*
X88029303Y-109180601D02*
X87402599Y-108553897D01*
X98942599Y-112345601D02*
X93146699Y-112345601D01*
X93146699Y-112345601D02*
X89981699Y-109180601D01*
X100772800Y-110515400D02*
X98942599Y-112345601D01*
X91450000Y-48370120D02*
X91365000Y-48285120D01*
X91450000Y-67250040D02*
X91450000Y-48370120D01*
X91365000Y-38760040D02*
X100890000Y-29235040D01*
X91365000Y-48285120D02*
X91365000Y-38760040D01*
X91850000Y-67650040D02*
X91850000Y-72500040D01*
X91850000Y-72500040D02*
X90650000Y-73700040D01*
X91450000Y-67250040D02*
X91850000Y-67650040D01*
X69307211Y-84107251D02*
X71332652Y-86132692D01*
X87918668Y-86480250D02*
X100890000Y-86480250D01*
X85993497Y-84555079D02*
X87918668Y-86480250D01*
X82832473Y-84555079D02*
X85993497Y-84555079D01*
X71332652Y-86132692D02*
X81254860Y-86132692D01*
X89349420Y-75000620D02*
X65746012Y-75000620D01*
X62821633Y-81281895D02*
X65646990Y-84107251D01*
X81254860Y-86132692D02*
X82832473Y-84555079D01*
X65746012Y-75000620D02*
X62821633Y-77924999D01*
X90650000Y-73700040D02*
X89349420Y-75000620D01*
X65646990Y-84107251D02*
X69307211Y-84107251D01*
X62821633Y-77924999D02*
X62821633Y-81281895D01*
X110415000Y-38685040D02*
X110415000Y-48285120D01*
X119850000Y-29250040D02*
X110415000Y-38685040D01*
X110415000Y-63135040D02*
X109150000Y-64400040D01*
X110415000Y-48285120D02*
X110415000Y-63135040D01*
X109150000Y-66070200D02*
X110415000Y-67335200D01*
X109150000Y-64400040D02*
X109150000Y-66070200D01*
X119940000Y-105434960D02*
X119940440Y-105435400D01*
X119940000Y-86385280D02*
X119940000Y-105434960D01*
X110415000Y-72885040D02*
X109650000Y-73650040D01*
X110415000Y-67335200D02*
X110415000Y-72885040D01*
X120573070Y-110767988D02*
X125998070Y-110767988D01*
X125998070Y-110767988D02*
X127575683Y-112345601D01*
X119940440Y-105435400D02*
X118358979Y-107016861D01*
X118358979Y-108553897D02*
X120573070Y-110767988D01*
X118358979Y-107016861D02*
X118358979Y-108553897D01*
X127575683Y-112345601D02*
X129898979Y-112345601D01*
X129898979Y-112345601D02*
X131729180Y-110515400D01*
X102166101Y-85675481D02*
X103286503Y-84555079D01*
X73293497Y-85675481D02*
X74871110Y-84097868D01*
X107842209Y-75457831D02*
X65935393Y-75457831D01*
X65935393Y-75457831D02*
X63278844Y-78114380D01*
X74871110Y-84097868D02*
X89008890Y-84097868D01*
X90586503Y-85675481D02*
X102166101Y-85675481D01*
X69511062Y-83650040D02*
X71536503Y-85675481D01*
X89008890Y-84097868D02*
X90586503Y-85675481D01*
X103286503Y-84555079D02*
X105043497Y-84555079D01*
X105043497Y-84555079D02*
X106873698Y-86385280D01*
X65836372Y-83650040D02*
X69511062Y-83650040D01*
X63278844Y-81092512D02*
X65836372Y-83650040D01*
X109650000Y-73650040D02*
X107842209Y-75457831D01*
X63278844Y-78114380D02*
X63278844Y-81092512D01*
X71536503Y-85675481D02*
X73293497Y-85675481D01*
X106873698Y-86385280D02*
X119940000Y-86385280D01*
X129465000Y-48285120D02*
X129465000Y-67335200D01*
X129465000Y-48285120D02*
X129465000Y-41835036D01*
X129465000Y-41835036D02*
X136050000Y-35250036D01*
X136050000Y-32050040D02*
X136050000Y-35250036D01*
X138850000Y-29250040D02*
X136050000Y-32050040D01*
X139050000Y-29250040D02*
X138850000Y-29250040D01*
X66124774Y-75915042D02*
X63736055Y-78303761D01*
X64671236Y-81764462D02*
X134369182Y-81764462D01*
X129465000Y-67335200D02*
X120885158Y-75915042D01*
X120885158Y-75915042D02*
X66124774Y-75915042D01*
X134369182Y-81764462D02*
X138990000Y-86385280D01*
X63736055Y-80829281D02*
X64671236Y-81764462D01*
X63736055Y-78303761D02*
X63736055Y-80829281D01*
X148515560Y-38760120D02*
X158040600Y-29235080D01*
X148515560Y-48285120D02*
X148515560Y-38760120D01*
X158040600Y-105435400D02*
X158040600Y-93540640D01*
X148430201Y-100050999D02*
X158040600Y-90440600D01*
X148430201Y-103364161D02*
X148430201Y-100050999D01*
X148189163Y-103605199D02*
X148430201Y-103364161D01*
X143201981Y-103605199D02*
X148189163Y-103605199D01*
X141371780Y-105435400D02*
X143201981Y-103605199D01*
X158040600Y-90440600D02*
X158040600Y-86385280D01*
X158040600Y-93540640D02*
X158040600Y-90440600D01*
X64193266Y-80639899D02*
X64860618Y-81307251D01*
X64193266Y-78493142D02*
X64193266Y-80639899D01*
X144850000Y-73650040D02*
X142127787Y-76372253D01*
X142127787Y-76372253D02*
X66314155Y-76372253D01*
X64860618Y-81307251D02*
X152962571Y-81307251D01*
X152962571Y-81307251D02*
X158040600Y-86385280D01*
X66314155Y-76372253D02*
X64193266Y-78493142D01*
X151750000Y-66144900D02*
X151750000Y-64450000D01*
X151175110Y-66719790D02*
X151750000Y-66144900D01*
X145480202Y-73019838D02*
X144850000Y-73650040D01*
X145480202Y-66619798D02*
X145480202Y-73019838D01*
X148515560Y-63584440D02*
X145480202Y-66619798D01*
X148515560Y-48285120D02*
X148515560Y-63584440D01*
X161259057Y-68670039D02*
X162685560Y-70096542D01*
X162685560Y-70096542D02*
X162685560Y-72415240D01*
X158940359Y-68670039D02*
X161259057Y-68670039D01*
X154720320Y-64450000D02*
X158940359Y-68670039D01*
X147700000Y-64450000D02*
X154720320Y-64450000D01*
X177050000Y-29250040D02*
X167565640Y-38734400D01*
X167565640Y-38734400D02*
X167565640Y-48285160D01*
X177090680Y-86385280D02*
X177090680Y-93290720D01*
X177090680Y-93290720D02*
X188850000Y-105050040D01*
X168125826Y-73198166D02*
X168125826Y-67941236D01*
X168125826Y-67941236D02*
X167519790Y-67335200D01*
X167650000Y-67204990D02*
X167519790Y-67335200D01*
X167650000Y-48369520D02*
X167650000Y-67204990D01*
X167565640Y-48285160D02*
X167650000Y-48369520D01*
X182148126Y-73198166D02*
X182650000Y-73700040D01*
X168125826Y-73198166D02*
X182148126Y-73198166D01*
X65253395Y-78079605D02*
X163244387Y-78079605D01*
X64650477Y-78682523D02*
X65253395Y-78079605D01*
X64650477Y-80450517D02*
X64650477Y-78682523D01*
X171555440Y-80850040D02*
X65050000Y-80850040D01*
X65050000Y-80850040D02*
X64650477Y-80450517D01*
X177090680Y-86385280D02*
X171555440Y-80850040D01*
X163244387Y-78079605D02*
X168125826Y-73198166D01*
X186650000Y-48319440D02*
X186615720Y-48285160D01*
X186650000Y-67250040D02*
X186650000Y-48319440D01*
X186615720Y-38760080D02*
X196140760Y-29235040D01*
X186615720Y-48285160D02*
X186615720Y-38760080D01*
X239831262Y-80573959D02*
X202126081Y-80573959D01*
X186650000Y-67250040D02*
X186650000Y-69688218D01*
X186650000Y-69688218D02*
X192211822Y-75250040D01*
X260850000Y-80010264D02*
X260254847Y-80605417D01*
X192211822Y-75250040D02*
X248243722Y-75250040D01*
X248243722Y-75250040D02*
X250001261Y-73492501D01*
X250001261Y-73492501D02*
X254739053Y-73492501D01*
X260850000Y-77100152D02*
X260850000Y-80010264D01*
X257673886Y-76427334D02*
X260177182Y-76427334D01*
X260177182Y-76427334D02*
X260850000Y-77100152D01*
X239862720Y-80605417D02*
X239831262Y-80573959D01*
X260254847Y-80605417D02*
X239862720Y-80605417D01*
X254739053Y-73492501D02*
X257673886Y-76427334D01*
X202126081Y-80573959D02*
X196250000Y-86450040D01*
X194850000Y-91650040D02*
X194850000Y-87850040D01*
X194850000Y-87850040D02*
X196250000Y-86450040D01*
X194850000Y-99982740D02*
X194850000Y-91750040D01*
X189152498Y-105680242D02*
X194850000Y-99982740D01*
X186030202Y-105680242D02*
X189152498Y-105680242D01*
X185450000Y-105100040D02*
X186030202Y-105680242D01*
X194850000Y-92450000D02*
X194850000Y-92500000D01*
X206402882Y-115000000D02*
X194850000Y-103447118D01*
X220171684Y-115000000D02*
X206402882Y-115000000D01*
X194850000Y-103447118D02*
X194850000Y-99982740D01*
X222826083Y-112345601D02*
X220171684Y-115000000D01*
X225149379Y-112345601D02*
X222826083Y-112345601D01*
X226979580Y-110515400D02*
X225149379Y-112345601D01*
X223529678Y-104746800D02*
X226979580Y-108196702D01*
X219946800Y-104746800D02*
X223529678Y-104746800D01*
X226979580Y-108196702D02*
X226979580Y-110515400D01*
X215150000Y-103100000D02*
X218300000Y-103100000D01*
X213550000Y-104700000D02*
X215150000Y-103100000D01*
X212809580Y-104746800D02*
X212856380Y-104700000D01*
X218300000Y-103100000D02*
X219946800Y-104746800D01*
X212856380Y-104700000D02*
X213550000Y-104700000D01*
X205665800Y-38634240D02*
X205665800Y-48285160D01*
X215250000Y-29050040D02*
X205665800Y-38634240D01*
X205665800Y-48285160D02*
X205665800Y-67335240D01*
X210799314Y-74787452D02*
X205665800Y-69653938D01*
X215250000Y-86450040D02*
X220668870Y-81031170D01*
X220668870Y-81031170D02*
X239641880Y-81031170D01*
X239641880Y-81031170D02*
X239673338Y-81062628D01*
X257863268Y-75970123D02*
X254685976Y-72792831D01*
X254685976Y-72792831D02*
X249953801Y-72792831D01*
X260444229Y-81062628D02*
X261307211Y-80199646D01*
X261307211Y-76893674D02*
X260383660Y-75970123D01*
X261307211Y-80199646D02*
X261307211Y-76893674D01*
X260383660Y-75970123D02*
X257863268Y-75970123D01*
X239673338Y-81062628D02*
X260444229Y-81062628D01*
X249953801Y-72792831D02*
X247959181Y-74787452D01*
X247959181Y-74787452D02*
X210799314Y-74787452D01*
X205665800Y-69653938D02*
X205665800Y-67335240D01*
X215250000Y-86450040D02*
X215250000Y-98749994D01*
X215250000Y-98749994D02*
X212400000Y-101599994D01*
X234240920Y-86385320D02*
X234240920Y-105435400D01*
X224715880Y-40584160D02*
X224715880Y-48285160D01*
X234250000Y-29250040D02*
X234250000Y-31050040D01*
X234250000Y-31050040D02*
X224715880Y-40584160D01*
X224715880Y-48285160D02*
X224715880Y-67335240D01*
X224715880Y-72584160D02*
X223650000Y-73650040D01*
X224715880Y-67335240D02*
X224715880Y-72584160D01*
X260573042Y-75512912D02*
X261764422Y-76704292D01*
X258052650Y-75512912D02*
X260573042Y-75512912D01*
X239452498Y-81488381D02*
X237633859Y-81488381D01*
X237633859Y-81488381D02*
X234240920Y-84881320D01*
X260633611Y-81519839D02*
X239483956Y-81519839D01*
X261764422Y-80389028D02*
X260633611Y-81519839D01*
X247769798Y-74330241D02*
X249764419Y-72335620D01*
X223650000Y-73650040D02*
X224330201Y-74330241D01*
X254875358Y-72335620D02*
X258052650Y-75512912D01*
X249764419Y-72335620D02*
X254875358Y-72335620D01*
X234240920Y-84881320D02*
X234240920Y-86385320D01*
X224330201Y-74330241D02*
X247769798Y-74330241D01*
X261764422Y-76704292D02*
X261764422Y-80389028D01*
X239483956Y-81519839D02*
X239452498Y-81488381D01*
X257042220Y-72415240D02*
X259163119Y-72415240D01*
X253291000Y-91659040D02*
X252650000Y-92300040D01*
X253291000Y-86385320D02*
X253291000Y-91659040D01*
X252650000Y-104794360D02*
X253291000Y-105435360D01*
X252650000Y-92300040D02*
X252650000Y-104794360D01*
X259177619Y-84555119D02*
X255121201Y-84555119D01*
X255121201Y-84555119D02*
X253291000Y-86385320D01*
X260317220Y-62890200D02*
X260292220Y-62890200D01*
X260292220Y-62890200D02*
X256132380Y-67050040D01*
X256132380Y-67050040D02*
X255672256Y-67050040D01*
X259498319Y-84555119D02*
X261328520Y-86385320D01*
X259177619Y-84555119D02*
X259498319Y-84555119D01*
X263480202Y-80252536D02*
X259177619Y-84555119D01*
X263480202Y-74804764D02*
X263480202Y-80252536D01*
X263287739Y-74612301D02*
X263480202Y-74804764D01*
X257301571Y-72415240D02*
X257042220Y-72415240D01*
X259936371Y-75050040D02*
X257301571Y-72415240D01*
X262850000Y-75050040D02*
X259936371Y-75050040D01*
X263287739Y-74612301D02*
X262850000Y-75050040D01*
X274650000Y-91450040D02*
X272804519Y-93295521D01*
X252774921Y-92175119D02*
X252650000Y-92300040D01*
X265858277Y-92175119D02*
X252774921Y-92175119D01*
X266978679Y-93295521D02*
X265858277Y-92175119D01*
X272804519Y-93295521D02*
X266978679Y-93295521D01*
X265081361Y-72818679D02*
X263287739Y-74612301D01*
X265081361Y-67654341D02*
X265081361Y-72818679D01*
X260317220Y-62890200D02*
X265081361Y-67654341D01*
X258890717Y-59144999D02*
X257069621Y-59144999D01*
X248731631Y-50807009D02*
X248731631Y-48285160D01*
X260317220Y-62890200D02*
X260317220Y-60571502D01*
X260317220Y-60571502D02*
X258890717Y-59144999D01*
X257069621Y-59144999D02*
X248731631Y-50807009D01*
X253250000Y-29274880D02*
X253289840Y-29235040D01*
X253250000Y-43766791D02*
X253250000Y-29274880D01*
X248731631Y-48285160D02*
X253250000Y-43766791D01*
X274144921Y-84555119D02*
X276494577Y-84555119D01*
X272450000Y-86250040D02*
X274144921Y-84555119D01*
X272341080Y-105435360D02*
X272341080Y-108358960D01*
X272341080Y-108358960D02*
X269250000Y-111450040D01*
X275280201Y-102496239D02*
X272341080Y-105435360D01*
X277446281Y-85506823D02*
X277446281Y-87608817D01*
X275280201Y-89774897D02*
X275280201Y-102496239D01*
X277446281Y-87608817D02*
X275280201Y-89774897D01*
X276494577Y-84555119D02*
X277446281Y-85506823D01*
X276583679Y-84555119D02*
X276494577Y-84555119D01*
X286450000Y-74688798D02*
X276583679Y-84555119D01*
X286450000Y-72850040D02*
X286450000Y-74688798D01*
X270853560Y-67335240D02*
X271425037Y-67906717D01*
X270625541Y-76104693D02*
X270625541Y-84425581D01*
X271425037Y-75305197D02*
X270625541Y-76104693D01*
X271425037Y-67906717D02*
X271425037Y-75305197D01*
X270625541Y-84425581D02*
X272450000Y-86250040D01*
X269242789Y-45116931D02*
X269242789Y-40939381D01*
X269242789Y-40939381D02*
X268450000Y-40146592D01*
X268450000Y-40146592D02*
X268450000Y-33126160D01*
X267578560Y-48285160D02*
X267578560Y-46781160D01*
X267578560Y-46781160D02*
X269242789Y-45116931D01*
X268450000Y-33126160D02*
X272341080Y-29235080D01*
X267578560Y-56378560D02*
X267578560Y-48285160D01*
X268619798Y-57419798D02*
X267578560Y-56378560D01*
X268619798Y-65101478D02*
X268619798Y-57419798D01*
X270853560Y-67335240D02*
X268619798Y-65101478D01*
X289389942Y-91465320D02*
X297523640Y-91465320D01*
X287428439Y-87966781D02*
X289009900Y-86385320D01*
X287428439Y-89503817D02*
X287428439Y-87966781D01*
X289389942Y-91465320D02*
X287428439Y-89503817D01*
X289009900Y-73785200D02*
X290379860Y-72415240D01*
X289009900Y-86385320D02*
X289009900Y-73785200D01*
X296037741Y-70990809D02*
X296037741Y-68759671D01*
X290379860Y-72415240D02*
X294613310Y-72415240D01*
X294613310Y-72415240D02*
X296037741Y-70990809D01*
X299292373Y-74245441D02*
X303164657Y-74245441D01*
X296037741Y-70990809D02*
X299292373Y-74245441D01*
X303164657Y-74245441D02*
X304994858Y-72415240D01*
X304994858Y-72415240D02*
X305561160Y-72415240D01*
X297523640Y-91465320D02*
X299353841Y-93295521D01*
X303726089Y-93295521D02*
X305556290Y-91465320D01*
X299353841Y-93295521D02*
X303726089Y-93295521D01*
X289389942Y-98389982D02*
X289389942Y-91465320D01*
X291450000Y-100450040D02*
X289389942Y-98389982D01*
X291450000Y-105450040D02*
X291450000Y-100450040D01*
X286628640Y-67335240D02*
X288157640Y-65806240D01*
X298083841Y-66713571D02*
X296037741Y-68759671D01*
X304990182Y-53350000D02*
X298083841Y-60256341D01*
X298083841Y-60256341D02*
X298083841Y-66713571D01*
X305550000Y-53350000D02*
X304990182Y-53350000D01*
X288458841Y-65505039D02*
X288157640Y-65806240D01*
X292783109Y-65505039D02*
X288458841Y-65505039D01*
X296037741Y-68759671D02*
X292783109Y-65505039D01*
X288157640Y-65806240D02*
X288157640Y-61696098D01*
X287428439Y-48228439D02*
X287075000Y-47875000D01*
X288157640Y-61696098D02*
X287428439Y-60966897D01*
X287428439Y-60966897D02*
X287428439Y-48228439D01*
X291450000Y-29250040D02*
X291450000Y-43500000D01*
X291450000Y-43500000D02*
X287075000Y-47875000D01*
X60200000Y-89850040D02*
X60200000Y-92650040D01*
X60200000Y-92650040D02*
X62650000Y-95100040D01*
X23875000Y-88575040D02*
X23850000Y-88550040D01*
X23900000Y-88575040D02*
X23875000Y-88575040D01*
X27400000Y-63325040D02*
X29114412Y-65039452D01*
X29114412Y-73514412D02*
X34174961Y-78574961D01*
X29114412Y-65039452D02*
X29114412Y-73514412D01*
X34174961Y-78574961D02*
X34174961Y-78625041D01*
X25650000Y-88575040D02*
X27400000Y-90325040D01*
X25650000Y-86125040D02*
X25650000Y-88575040D01*
X23900000Y-84375040D02*
X25650000Y-86125040D01*
X306225000Y-44125040D02*
X306250000Y-44150040D01*
X306200000Y-44125040D02*
X306225000Y-44125040D01*
X306175000Y-63325040D02*
X306150000Y-63350040D01*
X306200000Y-63325040D02*
X306175000Y-63325040D01*
X56554175Y-56661827D02*
X67269259Y-56661827D01*
X67269259Y-56661827D02*
X67659170Y-56271916D01*
X242650000Y-57582085D02*
X242380201Y-57312286D01*
X242380201Y-42569799D02*
X249625001Y-35324999D01*
X242380201Y-57312286D02*
X242380201Y-42569799D01*
X56560345Y-57465015D02*
X67600521Y-57465015D01*
X67600521Y-57465015D02*
X68255205Y-56810331D01*
X246450000Y-56850040D02*
X243850000Y-54250040D01*
X243850000Y-47232814D02*
X252549998Y-38532816D01*
X243850000Y-54250040D02*
X243850000Y-47232814D01*
X252549998Y-38532816D02*
X252549998Y-34700000D01*
X58050000Y-61050040D02*
X54050000Y-65050040D01*
X54050000Y-78750000D02*
X56400000Y-81100000D01*
X54050000Y-65050040D02*
X54050000Y-78750000D01*
X267127461Y-58734738D02*
X266212553Y-57819830D01*
X265850001Y-79050041D02*
X265850001Y-69432208D01*
X266650000Y-79850040D02*
X265850001Y-79050041D01*
X265850001Y-69432208D02*
X267127461Y-68154748D01*
X267127461Y-68154748D02*
X267127461Y-58734738D01*
X285950001Y-96550041D02*
X285950001Y-81950041D01*
X286250000Y-96850040D02*
X285950001Y-96550041D01*
X285950001Y-81950041D02*
X284850000Y-80850040D01*
X266212553Y-57819830D02*
X266212553Y-44587447D01*
X266212553Y-44587447D02*
X267550000Y-43250000D01*
X277530000Y-40080000D02*
X279800000Y-42350000D01*
X288730000Y-42350000D02*
X289730000Y-41350000D01*
X279800000Y-42350000D02*
X288730000Y-42350000D01*
X266350001Y-78550041D02*
X266350001Y-69578801D01*
X267649999Y-68278803D02*
X267649999Y-58043749D01*
X266350001Y-69578801D02*
X267649999Y-68278803D01*
X267649999Y-58043749D02*
X267350000Y-57743750D01*
X266650000Y-78850040D02*
X266350001Y-78550041D01*
X267350000Y-57743750D02*
X266907211Y-57300961D01*
X266907211Y-45092789D02*
X268600000Y-43400000D01*
X266907211Y-57300961D02*
X266907211Y-45092789D01*
X276260000Y-40080000D02*
X277090201Y-39249799D01*
X277090201Y-39249799D02*
X278199799Y-39249799D01*
X278199799Y-39249799D02*
X280600000Y-41650000D01*
X286514017Y-81514053D02*
X286514017Y-96219839D01*
X286050004Y-81050040D02*
X286514017Y-81514053D01*
X286514017Y-96219839D02*
X290700000Y-100405822D01*
X290700000Y-100405822D02*
X290700000Y-101200000D01*
X58778903Y-64067824D02*
X58778903Y-63643560D01*
X59450000Y-65535530D02*
X59450000Y-64738921D01*
X62674101Y-68759631D02*
X59450000Y-65535530D01*
X59450000Y-64738921D02*
X58778903Y-64067824D01*
X70625631Y-55726640D02*
X70625631Y-62674408D01*
X67564427Y-68575054D02*
X67737426Y-68748053D01*
X69950001Y-55051010D02*
X70625631Y-55726640D01*
X69950001Y-40386189D02*
X69950001Y-55051010D01*
X70625631Y-62674408D02*
X67564427Y-65735612D01*
X67564427Y-65735612D02*
X67564427Y-68575054D01*
X73050002Y-37710452D02*
X72625738Y-37710452D01*
X72625738Y-37710452D02*
X69950001Y-40386189D01*
X62674101Y-68759631D02*
X62674101Y-71162169D01*
X62674101Y-71162169D02*
X57707211Y-76129059D01*
X57707211Y-76129059D02*
X57707211Y-94642791D01*
X58139382Y-64796435D02*
X58139382Y-62840454D01*
X58139382Y-62840454D02*
X58837128Y-62142708D01*
X58716380Y-65373433D02*
X58139382Y-64796435D01*
X71082840Y-52862171D02*
X71082840Y-63285872D01*
X70507211Y-52286542D02*
X71082840Y-52862171D01*
X70507211Y-40765674D02*
X70507211Y-52286542D01*
X71082840Y-63285872D02*
X68194637Y-66174075D01*
X72799336Y-38473549D02*
X70507211Y-40765674D01*
X49966541Y-67966581D02*
X49966541Y-97733459D01*
X47350000Y-65350040D02*
X49966541Y-67966581D01*
X49966541Y-97733459D02*
X47400000Y-100300000D01*
X56547121Y-55858646D02*
X66936533Y-55858646D01*
X66936533Y-55858646D02*
X67092987Y-55702192D01*
X243392789Y-46207211D02*
X251400000Y-38200000D01*
X243392789Y-54992829D02*
X243392789Y-46207211D01*
X245250000Y-56850040D02*
X243392789Y-54992829D01*
X56510644Y-55056263D02*
X66343809Y-55056263D01*
X66343809Y-55056263D02*
X66475757Y-55188211D01*
X242935578Y-55705408D02*
X242935578Y-45664422D01*
X242935578Y-45664422D02*
X249800000Y-38800000D01*
X244050000Y-56819830D02*
X242935578Y-55705408D01*
D32*
X67250000Y-44820040D02*
X67250000Y-40650040D01*
X63270000Y-48800040D02*
X67250000Y-44820040D01*
X67853202Y-45234886D02*
X67853202Y-39446840D01*
X64089024Y-48999064D02*
X67853202Y-45234886D01*
X67853202Y-39446840D02*
X67707575Y-39301213D01*
D30*
X65628346Y-71080401D02*
X62630085Y-74078662D01*
X66569790Y-60850040D02*
X66635201Y-60915451D01*
X66008497Y-71080401D02*
X65628346Y-71080401D01*
X66635201Y-70453697D02*
X66008497Y-71080401D01*
X66635201Y-60915451D02*
X66635201Y-70453697D01*
X270794837Y-69217760D02*
X270794837Y-74905203D01*
X270794837Y-74905203D02*
X269450001Y-76250039D01*
X269450001Y-76250039D02*
X269450001Y-80951883D01*
X288900000Y-62900000D02*
X289450000Y-62350000D01*
X289450000Y-62350000D02*
X289450000Y-59800000D01*
X296037741Y-51986523D02*
X290724255Y-57300009D01*
X290724255Y-57300009D02*
X289687529Y-57300009D01*
X302700000Y-42375040D02*
X296037741Y-49037299D01*
X296037741Y-49037299D02*
X296037741Y-51986523D01*
X31220075Y-83656919D02*
X31220075Y-78383191D01*
X31220075Y-78383191D02*
X23850000Y-71013116D01*
X27400000Y-86125040D02*
X28751954Y-86125040D01*
X28751954Y-86125040D02*
X31220075Y-83656919D01*
X23850000Y-71013116D02*
X23850000Y-69450040D01*
D32*
X68456412Y-45484744D02*
X68456412Y-40638065D01*
X64160000Y-52720040D02*
X63848588Y-52408628D01*
X63848588Y-52408628D02*
X63848589Y-50092567D01*
X63848589Y-50092567D02*
X68456412Y-45484744D01*
D30*
X254950000Y-39504995D02*
X258000000Y-36454995D01*
X258000000Y-36454995D02*
X258000000Y-36333534D01*
D32*
X64251799Y-51929101D02*
X64251799Y-50259583D01*
X69250000Y-45261382D02*
X69250000Y-40019830D01*
X64251799Y-50259583D02*
X69250000Y-45261382D01*
X64852265Y-52529567D02*
X64251799Y-51929101D01*
X64852265Y-53127370D02*
X64852265Y-52529567D01*
D30*
X64852265Y-53127370D02*
X65924895Y-54200000D01*
X68910424Y-56310424D02*
X68910424Y-57046364D01*
X65924895Y-54200000D02*
X66800000Y-54200000D01*
X68910424Y-57046364D02*
X67199991Y-58756797D01*
X66800000Y-54200000D02*
X68910424Y-56310424D01*
X67199991Y-61152537D02*
X67107216Y-61245312D01*
X67107216Y-70692784D02*
X60000000Y-77800000D01*
X67199991Y-58756797D02*
X67199991Y-61152537D01*
X67107216Y-61245312D02*
X67107216Y-70692784D01*
X60000000Y-77800000D02*
X60000000Y-80700002D01*
X298850000Y-53745948D02*
X303193283Y-49402665D01*
X298850000Y-58543750D02*
X298850000Y-53745948D01*
X303193283Y-49402665D02*
X303193283Y-49363313D01*
M02*
