G04 #@! TF.GenerationSoftware,KiCad,Pcbnew,(5.1.10-1-10_14)*
G04 #@! TF.CreationDate,2021-08-04T05:45:13+09:00*
G04 #@! TF.ProjectId,Jones,4a6f6e65-732e-46b6-9963-61645f706362,v.1 (042)*
G04 #@! TF.SameCoordinates,Original*
G04 #@! TF.FileFunction,Soldermask,Top*
G04 #@! TF.FilePolarity,Negative*
%FSLAX46Y46*%
G04 Gerber Fmt 4.6, Leading zero omitted, Abs format (unit mm)*
G04 Created by KiCad (PCBNEW (5.1.10-1-10_14)) date 2021-08-04 05:45:13*
%MOMM*%
%LPD*%
G01*
G04 APERTURE LIST*
%ADD10C,3.400000*%
%ADD11C,4.387800*%
%ADD12C,2.150000*%
%ADD13O,5.600000X2.800000*%
%ADD14C,1.400000*%
%ADD15C,5.200000*%
%ADD16C,3.448000*%
%ADD17O,2.100000X2.100000*%
%ADD18C,1.900000*%
%ADD19C,2.600000*%
%ADD20O,2.000000X2.300000*%
%ADD21C,2.500000*%
%ADD22C,2.400000*%
%ADD23C,1.100000*%
%ADD24O,1.300000X2.800000*%
%ADD25O,1.300000X2.100000*%
G04 APERTURE END LIST*
D10*
X301016160Y-83845320D03*
D11*
X298476160Y-88925320D03*
D10*
X294666160Y-86385320D03*
D12*
X293396160Y-88925320D03*
X303556160Y-88925320D03*
D13*
X150800000Y-69550000D03*
X213100000Y-107750000D03*
X282650000Y-50450000D03*
D14*
X49050000Y-51800000D03*
X46450000Y-51750000D03*
X49050000Y-49100000D03*
X46450000Y-49100000D03*
X47800000Y-52350000D03*
X49700000Y-50450000D03*
X45900000Y-50450000D03*
X47800000Y-48550000D03*
D15*
X47800000Y-50450000D03*
D10*
X91465000Y-83845280D03*
D11*
X88925000Y-88925280D03*
D10*
X85115000Y-86385280D03*
D12*
X83845000Y-88925280D03*
X94005000Y-88925280D03*
D10*
X67335000Y-94005280D03*
D11*
X69875000Y-88925280D03*
D10*
X73685000Y-91465280D03*
D12*
X74955000Y-88925280D03*
X64795000Y-88925280D03*
D10*
X224973790Y-110515400D03*
D11*
X219893790Y-107975400D03*
D10*
X222433790Y-104165400D03*
D12*
X219893790Y-102895400D03*
X219893790Y-113055400D03*
G36*
G01*
X52050040Y-94600400D02*
X52050040Y-91200400D01*
G75*
G02*
X52250040Y-91000400I200000J0D01*
G01*
X53550040Y-91000400D01*
G75*
G02*
X53750040Y-91200400I0J-200000D01*
G01*
X53750040Y-94600400D01*
G75*
G02*
X53550040Y-94800400I-200000J0D01*
G01*
X52250040Y-94800400D01*
G75*
G02*
X52050040Y-94600400I0J200000D01*
G01*
G37*
G36*
G01*
X60750040Y-94600400D02*
X60750040Y-91200400D01*
G75*
G02*
X60950040Y-91000400I200000J0D01*
G01*
X62250040Y-91000400D01*
G75*
G02*
X62450040Y-91200400I0J-200000D01*
G01*
X62450040Y-94600400D01*
G75*
G02*
X62250040Y-94800400I-200000J0D01*
G01*
X60950040Y-94800400D01*
G75*
G02*
X60750040Y-94600400I0J200000D01*
G01*
G37*
X160680560Y-69875240D03*
X150520560Y-69875240D03*
D11*
X155600560Y-69875240D03*
D10*
X262914840Y-26695040D03*
D11*
X260374840Y-31775040D03*
D10*
X256564840Y-29235040D03*
D12*
X255294840Y-31775040D03*
X265454840Y-31775040D03*
X74955000Y-31775040D03*
X64795000Y-31775040D03*
D10*
X66065000Y-29235040D03*
D11*
X69875000Y-31775040D03*
D10*
X72415000Y-26695040D03*
X91465000Y-26695040D03*
D11*
X88925000Y-31775040D03*
D10*
X85115000Y-29235040D03*
D12*
X83845000Y-31775040D03*
X94005000Y-31775040D03*
X113055000Y-31775040D03*
X102895000Y-31775040D03*
D10*
X104165000Y-29235040D03*
D11*
X107975000Y-31775040D03*
D10*
X110515000Y-26695040D03*
D12*
X132105000Y-31775040D03*
X121945000Y-31775040D03*
D10*
X123215000Y-29235040D03*
D11*
X127025000Y-31775040D03*
D10*
X129565000Y-26695040D03*
X148615000Y-26695040D03*
D11*
X146075000Y-31775040D03*
D10*
X142265000Y-29235040D03*
D12*
X140995000Y-31775040D03*
X151155000Y-31775040D03*
D10*
X205765600Y-26695080D03*
D11*
X203225600Y-31775080D03*
D10*
X199415600Y-29235080D03*
D12*
X198145600Y-31775080D03*
X208305600Y-31775080D03*
D10*
X224815680Y-26695040D03*
D11*
X222275680Y-31775040D03*
D10*
X218465680Y-29235040D03*
D12*
X217195680Y-31775040D03*
X227355680Y-31775040D03*
D10*
X243865760Y-26695040D03*
D11*
X241325760Y-31775040D03*
D10*
X237515760Y-29235040D03*
D12*
X236245760Y-31775040D03*
X246405760Y-31775040D03*
D10*
X281964840Y-26695040D03*
D11*
X279424840Y-31775040D03*
D10*
X275614840Y-29235040D03*
D12*
X274344840Y-31775040D03*
X284504840Y-31775040D03*
D10*
X48285000Y-36855040D03*
D11*
X50825000Y-31775040D03*
D10*
X54635000Y-34315040D03*
D12*
X55905000Y-31775040D03*
X45745000Y-31775040D03*
X179730880Y-69875240D03*
X169570880Y-69875240D03*
D10*
X170840880Y-67335240D03*
D11*
X174650880Y-69875240D03*
D10*
X177190880Y-64795240D03*
X243865760Y-83845320D03*
D11*
X241325760Y-88925320D03*
D10*
X237515760Y-86385320D03*
D12*
X236245760Y-88925320D03*
X246405760Y-88925320D03*
D10*
X301014840Y-26695040D03*
D11*
X298474840Y-31775040D03*
D10*
X294664840Y-29235040D03*
D12*
X293394840Y-31775040D03*
X303554840Y-31775040D03*
X265455840Y-88925320D03*
X255295840Y-88925320D03*
D10*
X256565840Y-86385320D03*
D11*
X260375840Y-88925320D03*
D10*
X262915840Y-83845320D03*
X177190040Y-45745400D03*
D11*
X174650040Y-50825400D03*
D10*
X170840040Y-48285400D03*
D12*
X169570040Y-50825400D03*
X179730040Y-50825400D03*
D10*
X186715040Y-26695400D03*
D11*
X184175040Y-31775400D03*
D10*
X180365040Y-29235400D03*
D12*
X179095040Y-31775400D03*
X189255040Y-31775400D03*
D10*
X167665040Y-26695400D03*
D11*
X165125040Y-31775400D03*
D10*
X161315040Y-29235400D03*
D12*
X160045040Y-31775400D03*
X170205040Y-31775400D03*
X65430000Y-69875200D03*
X55270000Y-69875200D03*
D10*
X56540000Y-67335200D03*
D11*
X60350000Y-69875200D03*
D10*
X62890000Y-64795200D03*
D12*
X151155000Y-88925280D03*
X140995000Y-88925280D03*
D10*
X142265000Y-86385280D03*
D11*
X146075000Y-88925280D03*
D10*
X148615000Y-83845280D03*
D12*
X113055000Y-88925280D03*
X102895000Y-88925280D03*
D10*
X104165000Y-86385280D03*
D11*
X107975000Y-88925280D03*
D10*
X110515000Y-83845280D03*
D12*
X103530000Y-69875200D03*
X93370000Y-69875200D03*
D10*
X94640000Y-67335200D03*
D11*
X98450000Y-69875200D03*
D10*
X100990000Y-64795200D03*
X281966080Y-102895360D03*
D11*
X279426080Y-107975360D03*
D10*
X275616080Y-105435360D03*
D12*
X274346080Y-107975360D03*
X284506080Y-107975360D03*
D10*
X100990000Y-45745120D03*
D11*
X98450000Y-50825120D03*
D10*
X94640000Y-48285120D03*
D12*
X93370000Y-50825120D03*
X103530000Y-50825120D03*
X26695000Y-31775040D03*
X36855000Y-31775040D03*
D10*
X35585000Y-34315040D03*
D11*
X31775000Y-31775040D03*
D10*
X29235000Y-36855040D03*
X120040000Y-64795200D03*
D11*
X117500000Y-69875200D03*
D10*
X113690000Y-67335200D03*
D12*
X112420000Y-69875200D03*
X122580000Y-69875200D03*
X141630000Y-69875200D03*
X131470000Y-69875200D03*
D10*
X132740000Y-67335200D03*
D11*
X136550000Y-69875200D03*
D10*
X139090000Y-64795200D03*
D12*
X150520560Y-69875240D03*
X160680560Y-69875240D03*
D10*
X159410560Y-72415240D03*
D11*
X155600560Y-69875240D03*
D10*
X153060560Y-74955240D03*
D12*
X236880720Y-50825160D03*
X226720720Y-50825160D03*
D10*
X227990720Y-48285160D03*
D11*
X231800720Y-50825160D03*
D10*
X234340720Y-45745160D03*
D12*
X217830640Y-69875200D03*
X207670640Y-69875200D03*
D10*
X208940640Y-67335200D03*
D11*
X212750640Y-69875200D03*
D10*
X215290640Y-64795200D03*
D12*
X236880720Y-69875240D03*
X226720720Y-69875240D03*
D10*
X227990720Y-67335240D03*
D11*
X231800720Y-69875240D03*
D10*
X234340720Y-64795240D03*
D12*
X245770800Y-69875240D03*
X255930800Y-69875240D03*
D10*
X254660800Y-72415240D03*
D11*
X250850800Y-69875240D03*
D10*
X248310800Y-74955240D03*
D12*
X26695040Y-88925400D03*
X36855040Y-88925400D03*
D10*
X35585040Y-91465400D03*
D11*
X31775040Y-88925400D03*
D10*
X29235040Y-94005400D03*
X48285040Y-94005400D03*
D11*
X50825040Y-88925400D03*
D10*
X54635040Y-91465400D03*
D12*
X55905040Y-88925400D03*
X45745040Y-88925400D03*
X227355680Y-88925280D03*
X217195680Y-88925280D03*
D10*
X218465680Y-86385280D03*
D11*
X222275680Y-88925280D03*
D10*
X224815680Y-83845280D03*
D12*
X208305600Y-88925280D03*
X198145600Y-88925280D03*
D10*
X199415600Y-86385280D03*
D11*
X203225600Y-88925280D03*
D10*
X205765600Y-83845280D03*
D12*
X245770800Y-50825160D03*
X255930800Y-50825160D03*
D10*
X254660800Y-53365160D03*
D11*
X250850800Y-50825160D03*
D10*
X248310800Y-55905160D03*
D12*
X274980880Y-50825160D03*
X264820880Y-50825160D03*
D10*
X266090880Y-48285160D03*
D11*
X269900880Y-50825160D03*
D10*
X272440880Y-45745160D03*
X62890000Y-45745120D03*
D11*
X60350000Y-50825120D03*
D10*
X56540000Y-48285120D03*
D12*
X55270000Y-50825120D03*
X65430000Y-50825120D03*
D10*
X120040000Y-45745120D03*
D11*
X117500000Y-50825120D03*
D10*
X113690000Y-48285120D03*
D12*
X112420000Y-50825120D03*
X122580000Y-50825120D03*
D10*
X301016160Y-102895400D03*
D11*
X298476160Y-107975400D03*
D10*
X294666160Y-105435400D03*
D12*
X293396160Y-107975400D03*
X303556160Y-107975400D03*
D10*
X81940000Y-64795200D03*
D11*
X79400000Y-69875200D03*
D10*
X75590000Y-67335200D03*
D12*
X74320000Y-69875200D03*
X84480000Y-69875200D03*
D10*
X139090000Y-45745120D03*
D11*
X136550000Y-50825120D03*
D10*
X132740000Y-48285120D03*
D12*
X131470000Y-50825120D03*
X141630000Y-50825120D03*
X217830640Y-50825160D03*
X207670640Y-50825160D03*
D10*
X208940640Y-48285160D03*
D11*
X212750640Y-50825160D03*
D10*
X215290640Y-45745160D03*
X281966080Y-83845320D03*
D11*
X279426080Y-88925320D03*
D10*
X275616080Y-86385320D03*
D12*
X274346080Y-88925320D03*
X284506080Y-88925320D03*
X132105000Y-88925280D03*
X121945000Y-88925280D03*
D10*
X123215000Y-86385280D03*
D11*
X127025000Y-88925280D03*
D10*
X129565000Y-83845280D03*
X81940000Y-45745120D03*
D11*
X79400000Y-50825120D03*
D10*
X75590000Y-48285120D03*
D12*
X74320000Y-50825120D03*
X84480000Y-50825120D03*
X64795040Y-107975400D03*
X74955040Y-107975400D03*
D10*
X73685040Y-110515400D03*
D11*
X69875040Y-107975400D03*
D10*
X67335040Y-113055400D03*
D12*
X160680560Y-50825120D03*
X150520560Y-50825120D03*
D10*
X151790560Y-48285120D03*
D11*
X155600560Y-50825120D03*
D10*
X158140560Y-45745120D03*
D12*
X298793480Y-50825160D03*
X288633480Y-50825160D03*
D10*
X289903480Y-48285160D03*
D11*
X293713480Y-50825160D03*
D10*
X296253480Y-45745160D03*
X34315040Y-102895400D03*
D11*
X31775040Y-107975400D03*
D10*
X27965040Y-105435400D03*
D12*
X26695040Y-107975400D03*
X36855040Y-107975400D03*
D10*
X98609060Y-102895400D03*
D11*
X96069060Y-107975400D03*
D10*
X92259060Y-105435400D03*
D12*
X90989060Y-107975400D03*
X101149060Y-107975400D03*
D10*
X296253480Y-64795240D03*
D11*
X293713480Y-69875240D03*
D10*
X289903480Y-67335240D03*
D12*
X288633480Y-69875240D03*
X298793480Y-69875240D03*
D10*
X74796290Y-102895400D03*
D11*
X72256290Y-107975400D03*
D10*
X68446290Y-105435400D03*
D12*
X67176290Y-107975400D03*
X77336290Y-107975400D03*
X201161290Y-107975400D03*
X191001290Y-107975400D03*
D10*
X192271290Y-105435400D03*
D11*
X196081290Y-107975400D03*
D10*
X198621290Y-102895400D03*
X46221340Y-83845320D03*
D11*
X43681340Y-88925320D03*
D10*
X39871340Y-86385320D03*
D12*
X38601340Y-88925320D03*
X48761340Y-88925320D03*
D10*
X38760080Y-94005320D03*
D11*
X41300080Y-88925320D03*
D10*
X45110080Y-91465320D03*
D12*
X46380080Y-88925320D03*
X36220080Y-88925320D03*
D16*
X29362080Y-81940320D03*
X53238080Y-81940320D03*
D11*
X29362080Y-97180320D03*
X53238080Y-97180320D03*
D10*
X129565440Y-102895400D03*
D11*
X127025440Y-107975400D03*
D10*
X123215440Y-105435400D03*
D12*
X121945440Y-107975400D03*
X132105440Y-107975400D03*
D16*
X138963440Y-114960400D03*
X115087440Y-114960400D03*
D11*
X138963440Y-99720400D03*
X115087440Y-99720400D03*
D12*
X239261290Y-107975400D03*
X229101290Y-107975400D03*
D10*
X230371290Y-105435400D03*
D11*
X234181290Y-107975400D03*
D10*
X236721290Y-102895400D03*
X205765040Y-102895400D03*
D11*
X203225040Y-107975400D03*
D10*
X199415040Y-105435400D03*
D12*
X198145040Y-107975400D03*
X208305040Y-107975400D03*
D16*
X215163040Y-114960400D03*
X191287040Y-114960400D03*
D11*
X215163040Y-99720400D03*
X191287040Y-99720400D03*
D12*
X41617500Y-50825120D03*
X31457500Y-50825120D03*
D10*
X32727500Y-48285120D03*
D11*
X36537500Y-50825120D03*
D10*
X39077500Y-45745120D03*
X122104180Y-113055400D03*
D11*
X124644180Y-107975400D03*
D10*
X128454180Y-110515400D03*
D12*
X129724180Y-107975400D03*
X119564180Y-107975400D03*
D16*
X112706180Y-114960400D03*
X136582180Y-114960400D03*
D11*
X112706180Y-99720400D03*
X136582180Y-99720400D03*
G36*
G01*
X232700000Y-74150000D02*
X234400000Y-74150000D01*
G75*
G02*
X234600000Y-74350000I0J-200000D01*
G01*
X234600000Y-76050000D01*
G75*
G02*
X234400000Y-76250000I-200000J0D01*
G01*
X232700000Y-76250000D01*
G75*
G02*
X232500000Y-76050000I0J200000D01*
G01*
X232500000Y-74350000D01*
G75*
G02*
X232700000Y-74150000I200000J0D01*
G01*
G37*
D17*
X236090000Y-75200000D03*
X238630000Y-75200000D03*
G36*
G01*
X28400000Y-62900040D02*
X28400000Y-63750040D01*
G75*
G02*
X28200000Y-63950040I-200000J0D01*
G01*
X26600000Y-63950040D01*
G75*
G02*
X26400000Y-63750040I0J200000D01*
G01*
X26400000Y-62900040D01*
G75*
G02*
X26600000Y-62700040I200000J0D01*
G01*
X28200000Y-62700040D01*
G75*
G02*
X28400000Y-62900040I0J-200000D01*
G01*
G37*
G36*
G01*
X28400000Y-61150040D02*
X28400000Y-62000040D01*
G75*
G02*
X28200000Y-62200040I-200000J0D01*
G01*
X26600000Y-62200040D01*
G75*
G02*
X26400000Y-62000040I0J200000D01*
G01*
X26400000Y-61150040D01*
G75*
G02*
X26600000Y-60950040I200000J0D01*
G01*
X28200000Y-60950040D01*
G75*
G02*
X28400000Y-61150040I0J-200000D01*
G01*
G37*
G36*
G01*
X24900000Y-62900040D02*
X24900000Y-63750040D01*
G75*
G02*
X24700000Y-63950040I-200000J0D01*
G01*
X23100000Y-63950040D01*
G75*
G02*
X22900000Y-63750040I0J200000D01*
G01*
X22900000Y-62900040D01*
G75*
G02*
X23100000Y-62700040I200000J0D01*
G01*
X24700000Y-62700040D01*
G75*
G02*
X24900000Y-62900040I0J-200000D01*
G01*
G37*
G36*
G01*
X24900000Y-61150040D02*
X24900000Y-62000040D01*
G75*
G02*
X24700000Y-62200040I-200000J0D01*
G01*
X23100000Y-62200040D01*
G75*
G02*
X22900000Y-62000040I0J200000D01*
G01*
X22900000Y-61150040D01*
G75*
G02*
X23100000Y-60950040I200000J0D01*
G01*
X24700000Y-60950040D01*
G75*
G02*
X24900000Y-61150040I0J-200000D01*
G01*
G37*
G36*
G01*
X24900000Y-65350040D02*
X24900000Y-66200040D01*
G75*
G02*
X24700000Y-66400040I-200000J0D01*
G01*
X23100000Y-66400040D01*
G75*
G02*
X22900000Y-66200040I0J200000D01*
G01*
X22900000Y-65350040D01*
G75*
G02*
X23100000Y-65150040I200000J0D01*
G01*
X24700000Y-65150040D01*
G75*
G02*
X24900000Y-65350040I0J-200000D01*
G01*
G37*
G36*
G01*
X24900000Y-67100040D02*
X24900000Y-67950040D01*
G75*
G02*
X24700000Y-68150040I-200000J0D01*
G01*
X23100000Y-68150040D01*
G75*
G02*
X22900000Y-67950040I0J200000D01*
G01*
X22900000Y-67100040D01*
G75*
G02*
X23100000Y-66900040I200000J0D01*
G01*
X24700000Y-66900040D01*
G75*
G02*
X24900000Y-67100040I0J-200000D01*
G01*
G37*
G36*
G01*
X28400000Y-65350040D02*
X28400000Y-66200040D01*
G75*
G02*
X28200000Y-66400040I-200000J0D01*
G01*
X26600000Y-66400040D01*
G75*
G02*
X26400000Y-66200040I0J200000D01*
G01*
X26400000Y-65350040D01*
G75*
G02*
X26600000Y-65150040I200000J0D01*
G01*
X28200000Y-65150040D01*
G75*
G02*
X28400000Y-65350040I0J-200000D01*
G01*
G37*
G36*
G01*
X28400000Y-67100040D02*
X28400000Y-67950040D01*
G75*
G02*
X28200000Y-68150040I-200000J0D01*
G01*
X26600000Y-68150040D01*
G75*
G02*
X26400000Y-67950040I0J200000D01*
G01*
X26400000Y-67100040D01*
G75*
G02*
X26600000Y-66900040I200000J0D01*
G01*
X28200000Y-66900040D01*
G75*
G02*
X28400000Y-67100040I0J-200000D01*
G01*
G37*
G36*
G01*
X307200000Y-62900040D02*
X307200000Y-63750040D01*
G75*
G02*
X307000000Y-63950040I-200000J0D01*
G01*
X305400000Y-63950040D01*
G75*
G02*
X305200000Y-63750040I0J200000D01*
G01*
X305200000Y-62900040D01*
G75*
G02*
X305400000Y-62700040I200000J0D01*
G01*
X307000000Y-62700040D01*
G75*
G02*
X307200000Y-62900040I0J-200000D01*
G01*
G37*
G36*
G01*
X307200000Y-61150040D02*
X307200000Y-62000040D01*
G75*
G02*
X307000000Y-62200040I-200000J0D01*
G01*
X305400000Y-62200040D01*
G75*
G02*
X305200000Y-62000040I0J200000D01*
G01*
X305200000Y-61150040D01*
G75*
G02*
X305400000Y-60950040I200000J0D01*
G01*
X307000000Y-60950040D01*
G75*
G02*
X307200000Y-61150040I0J-200000D01*
G01*
G37*
G36*
G01*
X303700000Y-62900040D02*
X303700000Y-63750040D01*
G75*
G02*
X303500000Y-63950040I-200000J0D01*
G01*
X301900000Y-63950040D01*
G75*
G02*
X301700000Y-63750040I0J200000D01*
G01*
X301700000Y-62900040D01*
G75*
G02*
X301900000Y-62700040I200000J0D01*
G01*
X303500000Y-62700040D01*
G75*
G02*
X303700000Y-62900040I0J-200000D01*
G01*
G37*
G36*
G01*
X303700000Y-61150040D02*
X303700000Y-62000040D01*
G75*
G02*
X303500000Y-62200040I-200000J0D01*
G01*
X301900000Y-62200040D01*
G75*
G02*
X301700000Y-62000040I0J200000D01*
G01*
X301700000Y-61150040D01*
G75*
G02*
X301900000Y-60950040I200000J0D01*
G01*
X303500000Y-60950040D01*
G75*
G02*
X303700000Y-61150040I0J-200000D01*
G01*
G37*
G36*
G01*
X303700000Y-65350040D02*
X303700000Y-66200040D01*
G75*
G02*
X303500000Y-66400040I-200000J0D01*
G01*
X301900000Y-66400040D01*
G75*
G02*
X301700000Y-66200040I0J200000D01*
G01*
X301700000Y-65350040D01*
G75*
G02*
X301900000Y-65150040I200000J0D01*
G01*
X303500000Y-65150040D01*
G75*
G02*
X303700000Y-65350040I0J-200000D01*
G01*
G37*
G36*
G01*
X303700000Y-67100040D02*
X303700000Y-67950040D01*
G75*
G02*
X303500000Y-68150040I-200000J0D01*
G01*
X301900000Y-68150040D01*
G75*
G02*
X301700000Y-67950040I0J200000D01*
G01*
X301700000Y-67100040D01*
G75*
G02*
X301900000Y-66900040I200000J0D01*
G01*
X303500000Y-66900040D01*
G75*
G02*
X303700000Y-67100040I0J-200000D01*
G01*
G37*
G36*
G01*
X307200000Y-65350040D02*
X307200000Y-66200040D01*
G75*
G02*
X307000000Y-66400040I-200000J0D01*
G01*
X305400000Y-66400040D01*
G75*
G02*
X305200000Y-66200040I0J200000D01*
G01*
X305200000Y-65350040D01*
G75*
G02*
X305400000Y-65150040I200000J0D01*
G01*
X307000000Y-65150040D01*
G75*
G02*
X307200000Y-65350040I0J-200000D01*
G01*
G37*
G36*
G01*
X307200000Y-67100040D02*
X307200000Y-67950040D01*
G75*
G02*
X307000000Y-68150040I-200000J0D01*
G01*
X305400000Y-68150040D01*
G75*
G02*
X305200000Y-67950040I0J200000D01*
G01*
X305200000Y-67100040D01*
G75*
G02*
X305400000Y-66900040I200000J0D01*
G01*
X307000000Y-66900040D01*
G75*
G02*
X307200000Y-67100040I0J-200000D01*
G01*
G37*
D10*
X274345040Y-67335400D03*
D11*
X279425040Y-69875400D03*
D10*
X276885040Y-73685400D03*
D12*
X279425040Y-74955400D03*
X279425040Y-64795400D03*
X274980040Y-69875400D03*
X264820040Y-69875400D03*
D10*
X266090040Y-67335400D03*
D11*
X269900040Y-69875400D03*
D10*
X272440040Y-64795400D03*
D12*
X279425040Y-45745400D03*
X279425040Y-55905400D03*
D10*
X276885040Y-54635400D03*
D11*
X279425040Y-50825400D03*
D10*
X274345040Y-48285400D03*
D12*
X293395040Y-50825400D03*
X303555040Y-50825400D03*
D10*
X302285040Y-53365400D03*
D11*
X298475040Y-50825400D03*
D10*
X295935040Y-55905400D03*
D12*
X189255040Y-88925400D03*
X179095040Y-88925400D03*
D10*
X180365040Y-86385400D03*
D11*
X184175040Y-88925400D03*
D10*
X186715040Y-83845400D03*
X288791290Y-55905400D03*
D11*
X291331290Y-50825400D03*
D10*
X295141290Y-53365400D03*
D12*
X296411290Y-50825400D03*
X286251290Y-50825400D03*
X170205040Y-88925400D03*
X160045040Y-88925400D03*
D10*
X161315040Y-86385400D03*
D11*
X165125040Y-88925400D03*
D10*
X167665040Y-83845400D03*
X158140040Y-102895400D03*
D11*
X155600040Y-107975400D03*
D10*
X151790040Y-105435400D03*
D12*
X150520040Y-107975400D03*
X160680040Y-107975400D03*
D10*
X177190040Y-102895400D03*
D11*
X174650040Y-107975400D03*
D10*
X170840040Y-105435400D03*
D12*
X169570040Y-107975400D03*
X179730040Y-107975400D03*
D10*
X41458820Y-64795240D03*
D11*
X38918820Y-69875240D03*
D10*
X35108820Y-67335240D03*
D12*
X33838820Y-69875240D03*
X43998820Y-69875240D03*
D10*
X33997540Y-74955400D03*
D11*
X36537540Y-69875400D03*
D10*
X40347540Y-72415400D03*
D12*
X41617540Y-69875400D03*
X31457540Y-69875400D03*
X286251290Y-69875400D03*
X296411290Y-69875400D03*
D10*
X295141290Y-72415400D03*
D11*
X291331290Y-69875400D03*
D10*
X288791290Y-74955400D03*
D12*
X55905040Y-107975400D03*
X45745040Y-107975400D03*
D10*
X47015040Y-105435400D03*
D11*
X50825040Y-107975400D03*
D10*
X53365040Y-102895400D03*
D12*
X88607540Y-107975400D03*
X98767540Y-107975400D03*
D10*
X97497540Y-110515400D03*
D11*
X93687540Y-107975400D03*
D10*
X91147540Y-113055400D03*
X257835040Y-113055400D03*
D11*
X260375040Y-107975400D03*
D10*
X264185040Y-110515400D03*
D12*
X265455040Y-107975400D03*
X255295040Y-107975400D03*
D10*
X295935040Y-74955400D03*
D11*
X298475040Y-69875400D03*
D10*
X302285040Y-72415400D03*
D12*
X303555040Y-69875400D03*
X293395040Y-69875400D03*
D10*
X234022540Y-113055400D03*
D11*
X236562540Y-107975400D03*
D10*
X240372540Y-110515400D03*
D12*
X241642540Y-107975400D03*
X231482540Y-107975400D03*
D10*
X196240040Y-45745400D03*
D11*
X193700040Y-50825400D03*
D10*
X189890040Y-48285400D03*
D12*
X188620040Y-50825400D03*
X198780040Y-50825400D03*
D10*
X196240040Y-64795400D03*
D11*
X193700040Y-69875400D03*
D10*
X189890040Y-67335400D03*
D12*
X188620040Y-69875400D03*
X198780040Y-69875400D03*
D10*
X243865040Y-102895400D03*
D11*
X241325040Y-107975400D03*
D10*
X237515040Y-105435400D03*
D12*
X236245040Y-107975400D03*
X246405040Y-107975400D03*
D10*
X260533790Y-102895400D03*
D11*
X257993790Y-107975400D03*
D10*
X254183790Y-105435400D03*
D12*
X252913790Y-107975400D03*
X263073790Y-107975400D03*
G36*
G01*
X93200040Y-77600400D02*
X93200040Y-75900400D01*
G75*
G02*
X93400040Y-75700400I200000J0D01*
G01*
X95100040Y-75700400D01*
G75*
G02*
X95300040Y-75900400I0J-200000D01*
G01*
X95300040Y-77600400D01*
G75*
G02*
X95100040Y-77800400I-200000J0D01*
G01*
X93400040Y-77800400D01*
G75*
G02*
X93200040Y-77600400I0J200000D01*
G01*
G37*
D17*
X94250040Y-74210400D03*
G36*
G01*
X101250000Y-73150000D02*
X102950000Y-73150000D01*
G75*
G02*
X103150000Y-73350000I0J-200000D01*
G01*
X103150000Y-75050000D01*
G75*
G02*
X102950000Y-75250000I-200000J0D01*
G01*
X101250000Y-75250000D01*
G75*
G02*
X101050000Y-75050000I0J200000D01*
G01*
X101050000Y-73350000D01*
G75*
G02*
X101250000Y-73150000I200000J0D01*
G01*
G37*
X102100000Y-76740000D03*
X104640000Y-74200000D03*
X104640000Y-76740000D03*
X107180000Y-74200000D03*
X107180000Y-76740000D03*
D18*
X147450000Y-114960520D03*
X251750000Y-114960520D03*
X183750000Y-115000520D03*
X204150000Y-115000520D03*
X83350000Y-115000520D03*
X169900000Y-114960520D03*
X159050000Y-114960520D03*
X249150000Y-114960520D03*
X80350000Y-115000520D03*
X77350000Y-115000520D03*
X143850000Y-98460520D03*
X143850000Y-100960520D03*
X143850000Y-103450520D03*
X143850000Y-105950520D03*
X143850000Y-108450520D03*
X106850000Y-98450520D03*
X106850000Y-100960520D03*
X106850000Y-103450520D03*
X106850000Y-105950520D03*
X106850000Y-108460520D03*
D10*
X167665040Y-102895400D03*
D11*
X165125040Y-107975400D03*
D10*
X161315040Y-105435400D03*
D12*
X160045040Y-107975400D03*
X170205040Y-107975400D03*
D16*
X177063040Y-114960400D03*
X153187040Y-114960400D03*
D11*
X177063040Y-99720400D03*
X153187040Y-99720400D03*
D19*
X117500000Y-26800000D03*
X212750000Y-26800000D03*
X106450000Y-112400000D03*
X208000000Y-112400000D03*
D10*
X276726250Y-67335040D03*
D11*
X281806250Y-69875040D03*
D10*
X279266250Y-73685040D03*
D12*
X281806250Y-74955040D03*
X281806250Y-64795040D03*
D16*
X293744250Y-62890040D03*
X269868250Y-62890040D03*
D11*
X293744250Y-78130040D03*
X269868250Y-78130040D03*
D14*
X64850000Y-91050000D03*
X60000000Y-86575000D03*
X72800000Y-84050040D03*
X57950000Y-76850040D03*
X57950000Y-80450040D03*
X55950000Y-80450040D03*
X63200000Y-86600000D03*
X66300000Y-97075000D03*
D10*
X291490000Y-26695040D03*
D11*
X288950000Y-31775040D03*
D10*
X285140000Y-29235040D03*
D12*
X283870000Y-31775040D03*
X294030000Y-31775040D03*
D16*
X300888000Y-24790040D03*
X277012000Y-24790040D03*
D11*
X300888000Y-40030040D03*
X277012000Y-40030040D03*
D20*
X298493580Y-112465550D03*
X298493580Y-103465550D03*
D21*
X298493580Y-107965550D03*
G36*
G01*
X299993580Y-99265550D02*
X301993580Y-99265550D01*
G75*
G02*
X302193580Y-99465550I0J-200000D01*
G01*
X302193580Y-101465550D01*
G75*
G02*
X301993580Y-101665550I-200000J0D01*
G01*
X299993580Y-101665550D01*
G75*
G02*
X299793580Y-101465550I0J200000D01*
G01*
X299793580Y-99465550D01*
G75*
G02*
X299993580Y-99265550I200000J0D01*
G01*
G37*
D22*
X298493580Y-100465550D03*
X295993580Y-100465550D03*
G36*
G01*
X303093580Y-106165550D02*
X305093580Y-106165550D01*
G75*
G02*
X305293580Y-106365550I0J-200000D01*
G01*
X305293580Y-109565550D01*
G75*
G02*
X305093580Y-109765550I-200000J0D01*
G01*
X303093580Y-109765550D01*
G75*
G02*
X302893580Y-109565550I0J200000D01*
G01*
X302893580Y-106365550D01*
G75*
G02*
X303093580Y-106165550I200000J0D01*
G01*
G37*
G36*
G01*
X291893580Y-106165550D02*
X293893580Y-106165550D01*
G75*
G02*
X294093580Y-106365550I0J-200000D01*
G01*
X294093580Y-109565550D01*
G75*
G02*
X293893580Y-109765550I-200000J0D01*
G01*
X291893580Y-109765550D01*
G75*
G02*
X291693580Y-109565550I0J200000D01*
G01*
X291693580Y-106365550D01*
G75*
G02*
X291893580Y-106165550I200000J0D01*
G01*
G37*
X300993580Y-114965550D03*
X295993580Y-114965550D03*
X29271347Y-114952828D03*
X34271347Y-114952828D03*
G36*
G01*
X25171347Y-106152828D02*
X27171347Y-106152828D01*
G75*
G02*
X27371347Y-106352828I0J-200000D01*
G01*
X27371347Y-109552828D01*
G75*
G02*
X27171347Y-109752828I-200000J0D01*
G01*
X25171347Y-109752828D01*
G75*
G02*
X24971347Y-109552828I0J200000D01*
G01*
X24971347Y-106352828D01*
G75*
G02*
X25171347Y-106152828I200000J0D01*
G01*
G37*
G36*
G01*
X36371347Y-106152828D02*
X38371347Y-106152828D01*
G75*
G02*
X38571347Y-106352828I0J-200000D01*
G01*
X38571347Y-109552828D01*
G75*
G02*
X38371347Y-109752828I-200000J0D01*
G01*
X36371347Y-109752828D01*
G75*
G02*
X36171347Y-109552828I0J200000D01*
G01*
X36171347Y-106352828D01*
G75*
G02*
X36371347Y-106152828I200000J0D01*
G01*
G37*
X29271347Y-100452828D03*
X31771347Y-100452828D03*
G36*
G01*
X33271347Y-99252828D02*
X35271347Y-99252828D01*
G75*
G02*
X35471347Y-99452828I0J-200000D01*
G01*
X35471347Y-101452828D01*
G75*
G02*
X35271347Y-101652828I-200000J0D01*
G01*
X33271347Y-101652828D01*
G75*
G02*
X33071347Y-101452828I0J200000D01*
G01*
X33071347Y-99452828D01*
G75*
G02*
X33271347Y-99252828I200000J0D01*
G01*
G37*
D21*
X31771347Y-107952828D03*
D20*
X31771347Y-103452828D03*
X31771347Y-112452828D03*
D19*
X246350000Y-112400000D03*
D23*
X37800000Y-28190000D03*
X38650000Y-28190000D03*
X39500000Y-28190000D03*
X40350000Y-28190000D03*
X41200000Y-28190000D03*
X42050000Y-28190000D03*
X42900000Y-28190000D03*
X43750000Y-28190000D03*
X38650000Y-26840000D03*
X40350000Y-26840000D03*
X39500000Y-26840000D03*
X37800000Y-26840000D03*
X42050000Y-26840000D03*
X42900000Y-26840000D03*
X43750000Y-26840000D03*
X41200000Y-26840000D03*
D24*
X36450000Y-27210000D03*
X45100000Y-27210000D03*
D25*
X36450000Y-23830000D03*
X45100000Y-23830000D03*
D12*
X253231250Y-45745520D03*
X253231250Y-55905520D03*
D10*
X250691250Y-54635520D03*
D11*
X253231250Y-50825520D03*
D10*
X248151250Y-48285520D03*
X260692540Y-53365400D03*
D11*
X255612540Y-50825400D03*
D10*
X258152540Y-47015400D03*
D12*
X255612540Y-45745400D03*
X255612540Y-55905400D03*
D10*
X248151250Y-67335520D03*
D11*
X253231250Y-69875520D03*
D10*
X250691250Y-73685520D03*
D12*
X253231250Y-74955520D03*
X253231250Y-64795520D03*
X255612540Y-74955400D03*
X255612540Y-64795400D03*
D10*
X258152540Y-66065400D03*
D11*
X255612540Y-69875400D03*
D10*
X260692540Y-72415400D03*
M02*
