G04 #@! TF.GenerationSoftware,KiCad,Pcbnew,(5.1.10-1-10_14)*
G04 #@! TF.CreationDate,2021-07-02T05:31:03+09:00*
G04 #@! TF.ProjectId,Jones,4a6f6e65-732e-46b6-9963-61645f706362,v.0.3.2*
G04 #@! TF.SameCoordinates,Original*
G04 #@! TF.FileFunction,Soldermask,Bot*
G04 #@! TF.FilePolarity,Negative*
%FSLAX46Y46*%
G04 Gerber Fmt 4.6, Leading zero omitted, Abs format (unit mm)*
G04 Created by KiCad (PCBNEW (5.1.10-1-10_14)) date 2021-07-02 05:31:03*
%MOMM*%
%LPD*%
G01*
G04 APERTURE LIST*
%ADD10O,5.600000X2.800000*%
%ADD11C,1.400000*%
%ADD12C,5.200000*%
%ADD13C,3.400000*%
%ADD14C,4.387800*%
%ADD15C,2.150000*%
%ADD16C,2.650000*%
%ADD17C,3.448000*%
%ADD18O,2.100000X2.100000*%
%ADD19C,1.900000*%
%ADD20C,2.600000*%
%ADD21O,2.000000X2.300000*%
%ADD22C,2.500000*%
%ADD23C,2.400000*%
%ADD24C,1.100000*%
%ADD25O,1.300000X2.800000*%
%ADD26O,1.300000X2.100000*%
G04 APERTURE END LIST*
G36*
G01*
X57700000Y-95900000D02*
X57700000Y-97100000D01*
G75*
G02*
X57500000Y-97300000I-200000J0D01*
G01*
X56600000Y-97300000D01*
G75*
G02*
X56400000Y-97100000I0J200000D01*
G01*
X56400000Y-95900000D01*
G75*
G02*
X56600000Y-95700000I200000J0D01*
G01*
X57500000Y-95700000D01*
G75*
G02*
X57700000Y-95900000I0J-200000D01*
G01*
G37*
G36*
G01*
X61000000Y-95900000D02*
X61000000Y-97100000D01*
G75*
G02*
X60800000Y-97300000I-200000J0D01*
G01*
X59900000Y-97300000D01*
G75*
G02*
X59700000Y-97100000I0J200000D01*
G01*
X59700000Y-95900000D01*
G75*
G02*
X59900000Y-95700000I200000J0D01*
G01*
X60800000Y-95700000D01*
G75*
G02*
X61000000Y-95900000I0J-200000D01*
G01*
G37*
G36*
G01*
X87445000Y-51650000D02*
X87945000Y-51650000D01*
G75*
G02*
X88195000Y-51900000I0J-250000D01*
G01*
X88195000Y-53550000D01*
G75*
G02*
X87945000Y-53800000I-250000J0D01*
G01*
X87445000Y-53800000D01*
G75*
G02*
X87195000Y-53550000I0J250000D01*
G01*
X87195000Y-51900000D01*
G75*
G02*
X87445000Y-51650000I250000J0D01*
G01*
G37*
G36*
G01*
X88715000Y-51650000D02*
X89215000Y-51650000D01*
G75*
G02*
X89465000Y-51900000I0J-250000D01*
G01*
X89465000Y-53550000D01*
G75*
G02*
X89215000Y-53800000I-250000J0D01*
G01*
X88715000Y-53800000D01*
G75*
G02*
X88465000Y-53550000I0J250000D01*
G01*
X88465000Y-51900000D01*
G75*
G02*
X88715000Y-51650000I250000J0D01*
G01*
G37*
G36*
G01*
X89985000Y-51650000D02*
X90485000Y-51650000D01*
G75*
G02*
X90735000Y-51900000I0J-250000D01*
G01*
X90735000Y-53550000D01*
G75*
G02*
X90485000Y-53800000I-250000J0D01*
G01*
X89985000Y-53800000D01*
G75*
G02*
X89735000Y-53550000I0J250000D01*
G01*
X89735000Y-51900000D01*
G75*
G02*
X89985000Y-51650000I250000J0D01*
G01*
G37*
G36*
G01*
X91255000Y-51650000D02*
X91755000Y-51650000D01*
G75*
G02*
X92005000Y-51900000I0J-250000D01*
G01*
X92005000Y-53550000D01*
G75*
G02*
X91755000Y-53800000I-250000J0D01*
G01*
X91255000Y-53800000D01*
G75*
G02*
X91005000Y-53550000I0J250000D01*
G01*
X91005000Y-51900000D01*
G75*
G02*
X91255000Y-51650000I250000J0D01*
G01*
G37*
G36*
G01*
X91255000Y-56800000D02*
X91755000Y-56800000D01*
G75*
G02*
X92005000Y-57050000I0J-250000D01*
G01*
X92005000Y-58700000D01*
G75*
G02*
X91755000Y-58950000I-250000J0D01*
G01*
X91255000Y-58950000D01*
G75*
G02*
X91005000Y-58700000I0J250000D01*
G01*
X91005000Y-57050000D01*
G75*
G02*
X91255000Y-56800000I250000J0D01*
G01*
G37*
G36*
G01*
X89985000Y-56800000D02*
X90485000Y-56800000D01*
G75*
G02*
X90735000Y-57050000I0J-250000D01*
G01*
X90735000Y-58700000D01*
G75*
G02*
X90485000Y-58950000I-250000J0D01*
G01*
X89985000Y-58950000D01*
G75*
G02*
X89735000Y-58700000I0J250000D01*
G01*
X89735000Y-57050000D01*
G75*
G02*
X89985000Y-56800000I250000J0D01*
G01*
G37*
G36*
G01*
X88715000Y-56800000D02*
X89215000Y-56800000D01*
G75*
G02*
X89465000Y-57050000I0J-250000D01*
G01*
X89465000Y-58700000D01*
G75*
G02*
X89215000Y-58950000I-250000J0D01*
G01*
X88715000Y-58950000D01*
G75*
G02*
X88465000Y-58700000I0J250000D01*
G01*
X88465000Y-57050000D01*
G75*
G02*
X88715000Y-56800000I250000J0D01*
G01*
G37*
G36*
G01*
X87445000Y-56800000D02*
X87945000Y-56800000D01*
G75*
G02*
X88195000Y-57050000I0J-250000D01*
G01*
X88195000Y-58700000D01*
G75*
G02*
X87945000Y-58950000I-250000J0D01*
G01*
X87445000Y-58950000D01*
G75*
G02*
X87195000Y-58700000I0J250000D01*
G01*
X87195000Y-57050000D01*
G75*
G02*
X87445000Y-56800000I250000J0D01*
G01*
G37*
D10*
X150800000Y-69550000D03*
X213100000Y-107750000D03*
X282650000Y-50450000D03*
D11*
X49050000Y-51800000D03*
X46450000Y-51750000D03*
X49050000Y-49100000D03*
X46450000Y-49100000D03*
X47800000Y-52350000D03*
X49700000Y-50450000D03*
X45900000Y-50450000D03*
X47800000Y-48550000D03*
D12*
X47800000Y-50450000D03*
D13*
X91465000Y-83845280D03*
D14*
X88925000Y-88925280D03*
D13*
X85115000Y-86385280D03*
D15*
X83845000Y-88925280D03*
X94005000Y-88925280D03*
G36*
G01*
X80365000Y-87635280D02*
X80365000Y-85135280D01*
G75*
G02*
X80565000Y-84935280I200000J0D01*
G01*
X83115000Y-84935280D01*
G75*
G02*
X83315000Y-85135280I0J-200000D01*
G01*
X83315000Y-87635280D01*
G75*
G02*
X83115000Y-87835280I-200000J0D01*
G01*
X80565000Y-87835280D01*
G75*
G02*
X80365000Y-87635280I0J200000D01*
G01*
G37*
G36*
G01*
X93292000Y-85095280D02*
X93292000Y-82595280D01*
G75*
G02*
X93492000Y-82395280I200000J0D01*
G01*
X96042000Y-82395280D01*
G75*
G02*
X96242000Y-82595280I0J-200000D01*
G01*
X96242000Y-85095280D01*
G75*
G02*
X96042000Y-85295280I-200000J0D01*
G01*
X93492000Y-85295280D01*
G75*
G02*
X93292000Y-85095280I0J200000D01*
G01*
G37*
D13*
X67335000Y-94005280D03*
D14*
X69875000Y-88925280D03*
D13*
X73685000Y-91465280D03*
D15*
X74955000Y-88925280D03*
X64795000Y-88925280D03*
G36*
G01*
X78435000Y-90215280D02*
X78435000Y-92715280D01*
G75*
G02*
X78235000Y-92915280I-200000J0D01*
G01*
X75685000Y-92915280D01*
G75*
G02*
X75485000Y-92715280I0J200000D01*
G01*
X75485000Y-90215280D01*
G75*
G02*
X75685000Y-90015280I200000J0D01*
G01*
X78235000Y-90015280D01*
G75*
G02*
X78435000Y-90215280I0J-200000D01*
G01*
G37*
G36*
G01*
X65508000Y-92755280D02*
X65508000Y-95255280D01*
G75*
G02*
X65308000Y-95455280I-200000J0D01*
G01*
X62758000Y-95455280D01*
G75*
G02*
X62558000Y-95255280I0J200000D01*
G01*
X62558000Y-92755280D01*
G75*
G02*
X62758000Y-92555280I200000J0D01*
G01*
X65308000Y-92555280D01*
G75*
G02*
X65508000Y-92755280I0J-200000D01*
G01*
G37*
G36*
G01*
X80062889Y-75071501D02*
X80062889Y-76871501D01*
G75*
G02*
X79862889Y-77071501I-200000J0D01*
G01*
X77762889Y-77071501D01*
G75*
G02*
X77562889Y-76871501I0J200000D01*
G01*
X77562889Y-75071501D01*
G75*
G02*
X77762889Y-74871501I200000J0D01*
G01*
X79862889Y-74871501D01*
G75*
G02*
X80062889Y-75071501I0J-200000D01*
G01*
G37*
G36*
G01*
X77162889Y-75071501D02*
X77162889Y-76871501D01*
G75*
G02*
X76962889Y-77071501I-200000J0D01*
G01*
X74862889Y-77071501D01*
G75*
G02*
X74662889Y-76871501I0J200000D01*
G01*
X74662889Y-75071501D01*
G75*
G02*
X74862889Y-74871501I200000J0D01*
G01*
X76962889Y-74871501D01*
G75*
G02*
X77162889Y-75071501I0J-200000D01*
G01*
G37*
G36*
G01*
X77162889Y-77371501D02*
X77162889Y-79171501D01*
G75*
G02*
X76962889Y-79371501I-200000J0D01*
G01*
X74862889Y-79371501D01*
G75*
G02*
X74662889Y-79171501I0J200000D01*
G01*
X74662889Y-77371501D01*
G75*
G02*
X74862889Y-77171501I200000J0D01*
G01*
X76962889Y-77171501D01*
G75*
G02*
X77162889Y-77371501I0J-200000D01*
G01*
G37*
G36*
G01*
X80062889Y-77371501D02*
X80062889Y-79171501D01*
G75*
G02*
X79862889Y-79371501I-200000J0D01*
G01*
X77762889Y-79371501D01*
G75*
G02*
X77562889Y-79171501I0J200000D01*
G01*
X77562889Y-77371501D01*
G75*
G02*
X77762889Y-77171501I200000J0D01*
G01*
X79862889Y-77171501D01*
G75*
G02*
X80062889Y-77371501I0J-200000D01*
G01*
G37*
G36*
G01*
X269900000Y-54200000D02*
X271100000Y-54200000D01*
G75*
G02*
X271300000Y-54400000I0J-200000D01*
G01*
X271300000Y-55300000D01*
G75*
G02*
X271100000Y-55500000I-200000J0D01*
G01*
X269900000Y-55500000D01*
G75*
G02*
X269700000Y-55300000I0J200000D01*
G01*
X269700000Y-54400000D01*
G75*
G02*
X269900000Y-54200000I200000J0D01*
G01*
G37*
G36*
G01*
X269900000Y-57500000D02*
X271100000Y-57500000D01*
G75*
G02*
X271300000Y-57700000I0J-200000D01*
G01*
X271300000Y-58600000D01*
G75*
G02*
X271100000Y-58800000I-200000J0D01*
G01*
X269900000Y-58800000D01*
G75*
G02*
X269700000Y-58600000I0J200000D01*
G01*
X269700000Y-57700000D01*
G75*
G02*
X269900000Y-57500000I200000J0D01*
G01*
G37*
G36*
G01*
X82003085Y-79050400D02*
X80876995Y-79050400D01*
G75*
G02*
X80540040Y-78713445I0J336955D01*
G01*
X80540040Y-77837355D01*
G75*
G02*
X80876995Y-77500400I336955J0D01*
G01*
X82003085Y-77500400D01*
G75*
G02*
X82340040Y-77837355I0J-336955D01*
G01*
X82340040Y-78713445D01*
G75*
G02*
X82003085Y-79050400I-336955J0D01*
G01*
G37*
G36*
G01*
X82003085Y-77000400D02*
X80876995Y-77000400D01*
G75*
G02*
X80540040Y-76663445I0J336955D01*
G01*
X80540040Y-75787355D01*
G75*
G02*
X80876995Y-75450400I336955J0D01*
G01*
X82003085Y-75450400D01*
G75*
G02*
X82340040Y-75787355I0J-336955D01*
G01*
X82340040Y-76663445D01*
G75*
G02*
X82003085Y-77000400I-336955J0D01*
G01*
G37*
G36*
G01*
X46050040Y-66870400D02*
X47050040Y-66870400D01*
G75*
G02*
X47250040Y-67070400I0J-200000D01*
G01*
X47250040Y-68770400D01*
G75*
G02*
X47050040Y-68970400I-200000J0D01*
G01*
X46050040Y-68970400D01*
G75*
G02*
X45850040Y-68770400I0J200000D01*
G01*
X45850040Y-67070400D01*
G75*
G02*
X46050040Y-66870400I200000J0D01*
G01*
G37*
G36*
G01*
X46050040Y-73170400D02*
X47050040Y-73170400D01*
G75*
G02*
X47250040Y-73370400I0J-200000D01*
G01*
X47250040Y-75070400D01*
G75*
G02*
X47050040Y-75270400I-200000J0D01*
G01*
X46050040Y-75270400D01*
G75*
G02*
X45850040Y-75070400I0J200000D01*
G01*
X45850040Y-73370400D01*
G75*
G02*
X46050040Y-73170400I200000J0D01*
G01*
G37*
G36*
G01*
X49850040Y-66870400D02*
X50850040Y-66870400D01*
G75*
G02*
X51050040Y-67070400I0J-200000D01*
G01*
X51050040Y-68770400D01*
G75*
G02*
X50850040Y-68970400I-200000J0D01*
G01*
X49850040Y-68970400D01*
G75*
G02*
X49650040Y-68770400I0J200000D01*
G01*
X49650040Y-67070400D01*
G75*
G02*
X49850040Y-66870400I200000J0D01*
G01*
G37*
G36*
G01*
X49850040Y-73170400D02*
X50850040Y-73170400D01*
G75*
G02*
X51050040Y-73370400I0J-200000D01*
G01*
X51050040Y-75070400D01*
G75*
G02*
X50850040Y-75270400I-200000J0D01*
G01*
X49850040Y-75270400D01*
G75*
G02*
X49650040Y-75070400I0J200000D01*
G01*
X49650040Y-73370400D01*
G75*
G02*
X49850040Y-73170400I200000J0D01*
G01*
G37*
G36*
G01*
X74625000Y-74163045D02*
X74625000Y-73036955D01*
G75*
G02*
X74961955Y-72700000I336955J0D01*
G01*
X75838045Y-72700000D01*
G75*
G02*
X76175000Y-73036955I0J-336955D01*
G01*
X76175000Y-74163045D01*
G75*
G02*
X75838045Y-74500000I-336955J0D01*
G01*
X74961955Y-74500000D01*
G75*
G02*
X74625000Y-74163045I0J336955D01*
G01*
G37*
G36*
G01*
X76675000Y-74163045D02*
X76675000Y-73036955D01*
G75*
G02*
X77011955Y-72700000I336955J0D01*
G01*
X77888045Y-72700000D01*
G75*
G02*
X78225000Y-73036955I0J-336955D01*
G01*
X78225000Y-74163045D01*
G75*
G02*
X77888045Y-74500000I-336955J0D01*
G01*
X77011955Y-74500000D01*
G75*
G02*
X76675000Y-74163045I0J336955D01*
G01*
G37*
G36*
G01*
X71150000Y-70136955D02*
X71150000Y-71263045D01*
G75*
G02*
X70813045Y-71600000I-336955J0D01*
G01*
X69936955Y-71600000D01*
G75*
G02*
X69600000Y-71263045I0J336955D01*
G01*
X69600000Y-70136955D01*
G75*
G02*
X69936955Y-69800000I336955J0D01*
G01*
X70813045Y-69800000D01*
G75*
G02*
X71150000Y-70136955I0J-336955D01*
G01*
G37*
G36*
G01*
X73200000Y-70136955D02*
X73200000Y-71263045D01*
G75*
G02*
X72863045Y-71600000I-336955J0D01*
G01*
X71986955Y-71600000D01*
G75*
G02*
X71650000Y-71263045I0J336955D01*
G01*
X71650000Y-70136955D01*
G75*
G02*
X71986955Y-69800000I336955J0D01*
G01*
X72863045Y-69800000D01*
G75*
G02*
X73200000Y-70136955I0J-336955D01*
G01*
G37*
D13*
X224973790Y-110515400D03*
D14*
X219893790Y-107975400D03*
D13*
X222433790Y-104165400D03*
D15*
X219893790Y-102895400D03*
X219893790Y-113055400D03*
G36*
G01*
X221183790Y-99415400D02*
X223683790Y-99415400D01*
G75*
G02*
X223883790Y-99615400I0J-200000D01*
G01*
X223883790Y-102165400D01*
G75*
G02*
X223683790Y-102365400I-200000J0D01*
G01*
X221183790Y-102365400D01*
G75*
G02*
X220983790Y-102165400I0J200000D01*
G01*
X220983790Y-99615400D01*
G75*
G02*
X221183790Y-99415400I200000J0D01*
G01*
G37*
G36*
G01*
X223723790Y-112342400D02*
X226223790Y-112342400D01*
G75*
G02*
X226423790Y-112542400I0J-200000D01*
G01*
X226423790Y-115092400D01*
G75*
G02*
X226223790Y-115292400I-200000J0D01*
G01*
X223723790Y-115292400D01*
G75*
G02*
X223523790Y-115092400I0J200000D01*
G01*
X223523790Y-112542400D01*
G75*
G02*
X223723790Y-112342400I200000J0D01*
G01*
G37*
G36*
G01*
X50995000Y-27875040D02*
X50995000Y-29275040D01*
G75*
G02*
X50795000Y-29475040I-200000J0D01*
G01*
X49595000Y-29475040D01*
G75*
G02*
X49395000Y-29275040I0J200000D01*
G01*
X49395000Y-27875040D01*
G75*
G02*
X49595000Y-27675040I200000J0D01*
G01*
X50795000Y-27675040D01*
G75*
G02*
X50995000Y-27875040I0J-200000D01*
G01*
G37*
G36*
G01*
X49175000Y-27875040D02*
X49175000Y-29275040D01*
G75*
G02*
X48975000Y-29475040I-200000J0D01*
G01*
X47975000Y-29475040D01*
G75*
G02*
X47775000Y-29275040I0J200000D01*
G01*
X47775000Y-27875040D01*
G75*
G02*
X47975000Y-27675040I200000J0D01*
G01*
X48975000Y-27675040D01*
G75*
G02*
X49175000Y-27875040I0J-200000D01*
G01*
G37*
G36*
G01*
X49175000Y-25675040D02*
X49175000Y-27075040D01*
G75*
G02*
X48975000Y-27275040I-200000J0D01*
G01*
X47975000Y-27275040D01*
G75*
G02*
X47775000Y-27075040I0J200000D01*
G01*
X47775000Y-25675040D01*
G75*
G02*
X47975000Y-25475040I200000J0D01*
G01*
X48975000Y-25475040D01*
G75*
G02*
X49175000Y-25675040I0J-200000D01*
G01*
G37*
G36*
G01*
X51075000Y-25675040D02*
X51075000Y-27075040D01*
G75*
G02*
X50875000Y-27275040I-200000J0D01*
G01*
X49875000Y-27275040D01*
G75*
G02*
X49675000Y-27075040I0J200000D01*
G01*
X49675000Y-25675040D01*
G75*
G02*
X49875000Y-25475040I200000J0D01*
G01*
X50875000Y-25475040D01*
G75*
G02*
X51075000Y-25675040I0J-200000D01*
G01*
G37*
G36*
G01*
X32786955Y-23050000D02*
X33913045Y-23050000D01*
G75*
G02*
X34250000Y-23386955I0J-336955D01*
G01*
X34250000Y-24263045D01*
G75*
G02*
X33913045Y-24600000I-336955J0D01*
G01*
X32786955Y-24600000D01*
G75*
G02*
X32450000Y-24263045I0J336955D01*
G01*
X32450000Y-23386955D01*
G75*
G02*
X32786955Y-23050000I336955J0D01*
G01*
G37*
G36*
G01*
X32786955Y-25100000D02*
X33913045Y-25100000D01*
G75*
G02*
X34250000Y-25436955I0J-336955D01*
G01*
X34250000Y-26313045D01*
G75*
G02*
X33913045Y-26650000I-336955J0D01*
G01*
X32786955Y-26650000D01*
G75*
G02*
X32450000Y-26313045I0J336955D01*
G01*
X32450000Y-25436955D01*
G75*
G02*
X32786955Y-25100000I336955J0D01*
G01*
G37*
G36*
G01*
X58387500Y-28195175D02*
X58387500Y-29704825D01*
G75*
G02*
X58067325Y-30025000I-320175J0D01*
G01*
X56882675Y-30025000D01*
G75*
G02*
X56562500Y-29704825I0J320175D01*
G01*
X56562500Y-28195175D01*
G75*
G02*
X56882675Y-27875000I320175J0D01*
G01*
X58067325Y-27875000D01*
G75*
G02*
X58387500Y-28195175I0J-320175D01*
G01*
G37*
G36*
G01*
X55412500Y-28195175D02*
X55412500Y-29704825D01*
G75*
G02*
X55092325Y-30025000I-320175J0D01*
G01*
X53907675Y-30025000D01*
G75*
G02*
X53587500Y-29704825I0J320175D01*
G01*
X53587500Y-28195175D01*
G75*
G02*
X53907675Y-27875000I320175J0D01*
G01*
X55092325Y-27875000D01*
G75*
G02*
X55412500Y-28195175I0J-320175D01*
G01*
G37*
G36*
G01*
X75186955Y-83750000D02*
X76313045Y-83750000D01*
G75*
G02*
X76650000Y-84086955I0J-336955D01*
G01*
X76650000Y-84963045D01*
G75*
G02*
X76313045Y-85300000I-336955J0D01*
G01*
X75186955Y-85300000D01*
G75*
G02*
X74850000Y-84963045I0J336955D01*
G01*
X74850000Y-84086955D01*
G75*
G02*
X75186955Y-83750000I336955J0D01*
G01*
G37*
G36*
G01*
X75186955Y-85800000D02*
X76313045Y-85800000D01*
G75*
G02*
X76650000Y-86136955I0J-336955D01*
G01*
X76650000Y-87013045D01*
G75*
G02*
X76313045Y-87350000I-336955J0D01*
G01*
X75186955Y-87350000D01*
G75*
G02*
X74850000Y-87013045I0J336955D01*
G01*
X74850000Y-86136955D01*
G75*
G02*
X75186955Y-85800000I336955J0D01*
G01*
G37*
G36*
G01*
X57150000Y-83663045D02*
X57150000Y-82536955D01*
G75*
G02*
X57486955Y-82200000I336955J0D01*
G01*
X58363045Y-82200000D01*
G75*
G02*
X58700000Y-82536955I0J-336955D01*
G01*
X58700000Y-83663045D01*
G75*
G02*
X58363045Y-84000000I-336955J0D01*
G01*
X57486955Y-84000000D01*
G75*
G02*
X57150000Y-83663045I0J336955D01*
G01*
G37*
G36*
G01*
X55100000Y-83663045D02*
X55100000Y-82536955D01*
G75*
G02*
X55436955Y-82200000I336955J0D01*
G01*
X56313045Y-82200000D01*
G75*
G02*
X56650000Y-82536955I0J-336955D01*
G01*
X56650000Y-83663045D01*
G75*
G02*
X56313045Y-84000000I-336955J0D01*
G01*
X55436955Y-84000000D01*
G75*
G02*
X55100000Y-83663045I0J336955D01*
G01*
G37*
G36*
G01*
X69225000Y-67236955D02*
X69225000Y-68363045D01*
G75*
G02*
X68888045Y-68700000I-336955J0D01*
G01*
X68011955Y-68700000D01*
G75*
G02*
X67675000Y-68363045I0J336955D01*
G01*
X67675000Y-67236955D01*
G75*
G02*
X68011955Y-66900000I336955J0D01*
G01*
X68888045Y-66900000D01*
G75*
G02*
X69225000Y-67236955I0J-336955D01*
G01*
G37*
G36*
G01*
X67175000Y-67236955D02*
X67175000Y-68363045D01*
G75*
G02*
X66838045Y-68700000I-336955J0D01*
G01*
X65961955Y-68700000D01*
G75*
G02*
X65625000Y-68363045I0J336955D01*
G01*
X65625000Y-67236955D01*
G75*
G02*
X65961955Y-66900000I336955J0D01*
G01*
X66838045Y-66900000D01*
G75*
G02*
X67175000Y-67236955I0J-336955D01*
G01*
G37*
G36*
G01*
X30300000Y-60450000D02*
X30300000Y-58950000D01*
G75*
G02*
X30500000Y-58750000I200000J0D01*
G01*
X31500000Y-58750000D01*
G75*
G02*
X31700000Y-58950000I0J-200000D01*
G01*
X31700000Y-60450000D01*
G75*
G02*
X31500000Y-60650000I-200000J0D01*
G01*
X30500000Y-60650000D01*
G75*
G02*
X30300000Y-60450000I0J200000D01*
G01*
G37*
G36*
G01*
X29000000Y-60450000D02*
X29000000Y-58950000D01*
G75*
G02*
X29200000Y-58750000I200000J0D01*
G01*
X30200000Y-58750000D01*
G75*
G02*
X30400000Y-58950000I0J-200000D01*
G01*
X30400000Y-60450000D01*
G75*
G02*
X30200000Y-60650000I-200000J0D01*
G01*
X29200000Y-60650000D01*
G75*
G02*
X29000000Y-60450000I0J200000D01*
G01*
G37*
G36*
G01*
X27700000Y-60450000D02*
X27700000Y-58950000D01*
G75*
G02*
X27900000Y-58750000I200000J0D01*
G01*
X28900000Y-58750000D01*
G75*
G02*
X29100000Y-58950000I0J-200000D01*
G01*
X29100000Y-60450000D01*
G75*
G02*
X28900000Y-60650000I-200000J0D01*
G01*
X27900000Y-60650000D01*
G75*
G02*
X27700000Y-60450000I0J200000D01*
G01*
G37*
G36*
G01*
X42213045Y-31900000D02*
X41086955Y-31900000D01*
G75*
G02*
X40750000Y-31563045I0J336955D01*
G01*
X40750000Y-30686955D01*
G75*
G02*
X41086955Y-30350000I336955J0D01*
G01*
X42213045Y-30350000D01*
G75*
G02*
X42550000Y-30686955I0J-336955D01*
G01*
X42550000Y-31563045D01*
G75*
G02*
X42213045Y-31900000I-336955J0D01*
G01*
G37*
G36*
G01*
X42213045Y-33950000D02*
X41086955Y-33950000D01*
G75*
G02*
X40750000Y-33613045I0J336955D01*
G01*
X40750000Y-32736955D01*
G75*
G02*
X41086955Y-32400000I336955J0D01*
G01*
X42213045Y-32400000D01*
G75*
G02*
X42550000Y-32736955I0J-336955D01*
G01*
X42550000Y-33613045D01*
G75*
G02*
X42213045Y-33950000I-336955J0D01*
G01*
G37*
G36*
G01*
X44263045Y-33900000D02*
X43136955Y-33900000D01*
G75*
G02*
X42800000Y-33563045I0J336955D01*
G01*
X42800000Y-32686955D01*
G75*
G02*
X43136955Y-32350000I336955J0D01*
G01*
X44263045Y-32350000D01*
G75*
G02*
X44600000Y-32686955I0J-336955D01*
G01*
X44600000Y-33563045D01*
G75*
G02*
X44263045Y-33900000I-336955J0D01*
G01*
G37*
G36*
G01*
X44263045Y-31850000D02*
X43136955Y-31850000D01*
G75*
G02*
X42800000Y-31513045I0J336955D01*
G01*
X42800000Y-30636955D01*
G75*
G02*
X43136955Y-30300000I336955J0D01*
G01*
X44263045Y-30300000D01*
G75*
G02*
X44600000Y-30636955I0J-336955D01*
G01*
X44600000Y-31513045D01*
G75*
G02*
X44263045Y-31850000I-336955J0D01*
G01*
G37*
G36*
G01*
X54036955Y-74150000D02*
X55163045Y-74150000D01*
G75*
G02*
X55500000Y-74486955I0J-336955D01*
G01*
X55500000Y-75363045D01*
G75*
G02*
X55163045Y-75700000I-336955J0D01*
G01*
X54036955Y-75700000D01*
G75*
G02*
X53700000Y-75363045I0J336955D01*
G01*
X53700000Y-74486955D01*
G75*
G02*
X54036955Y-74150000I336955J0D01*
G01*
G37*
G36*
G01*
X54036955Y-72100000D02*
X55163045Y-72100000D01*
G75*
G02*
X55500000Y-72436955I0J-336955D01*
G01*
X55500000Y-73313045D01*
G75*
G02*
X55163045Y-73650000I-336955J0D01*
G01*
X54036955Y-73650000D01*
G75*
G02*
X53700000Y-73313045I0J336955D01*
G01*
X53700000Y-72436955D01*
G75*
G02*
X54036955Y-72100000I336955J0D01*
G01*
G37*
G36*
G01*
X55100000Y-85763045D02*
X55100000Y-84636955D01*
G75*
G02*
X55436955Y-84300000I336955J0D01*
G01*
X56313045Y-84300000D01*
G75*
G02*
X56650000Y-84636955I0J-336955D01*
G01*
X56650000Y-85763045D01*
G75*
G02*
X56313045Y-86100000I-336955J0D01*
G01*
X55436955Y-86100000D01*
G75*
G02*
X55100000Y-85763045I0J336955D01*
G01*
G37*
G36*
G01*
X57150000Y-85763045D02*
X57150000Y-84636955D01*
G75*
G02*
X57486955Y-84300000I336955J0D01*
G01*
X58363045Y-84300000D01*
G75*
G02*
X58700000Y-84636955I0J-336955D01*
G01*
X58700000Y-85763045D01*
G75*
G02*
X58363045Y-86100000I-336955J0D01*
G01*
X57486955Y-86100000D01*
G75*
G02*
X57150000Y-85763045I0J336955D01*
G01*
G37*
G36*
G01*
X49750000Y-24363085D02*
X49750000Y-23236995D01*
G75*
G02*
X50086955Y-22900040I336955J0D01*
G01*
X50963045Y-22900040D01*
G75*
G02*
X51300000Y-23236995I0J-336955D01*
G01*
X51300000Y-24363085D01*
G75*
G02*
X50963045Y-24700040I-336955J0D01*
G01*
X50086955Y-24700040D01*
G75*
G02*
X49750000Y-24363085I0J336955D01*
G01*
G37*
G36*
G01*
X47700000Y-24363085D02*
X47700000Y-23236995D01*
G75*
G02*
X48036955Y-22900040I336955J0D01*
G01*
X48913045Y-22900040D01*
G75*
G02*
X49250000Y-23236995I0J-336955D01*
G01*
X49250000Y-24363085D01*
G75*
G02*
X48913045Y-24700040I-336955J0D01*
G01*
X48036955Y-24700040D01*
G75*
G02*
X47700000Y-24363085I0J336955D01*
G01*
G37*
G36*
G01*
X63600000Y-88036955D02*
X63600000Y-89163045D01*
G75*
G02*
X63263045Y-89500000I-336955J0D01*
G01*
X62386955Y-89500000D01*
G75*
G02*
X62050000Y-89163045I0J336955D01*
G01*
X62050000Y-88036955D01*
G75*
G02*
X62386955Y-87700000I336955J0D01*
G01*
X63263045Y-87700000D01*
G75*
G02*
X63600000Y-88036955I0J-336955D01*
G01*
G37*
G36*
G01*
X61550000Y-88036955D02*
X61550000Y-89163045D01*
G75*
G02*
X61213045Y-89500000I-336955J0D01*
G01*
X60336955Y-89500000D01*
G75*
G02*
X60000000Y-89163045I0J336955D01*
G01*
X60000000Y-88036955D01*
G75*
G02*
X60336955Y-87700000I336955J0D01*
G01*
X61213045Y-87700000D01*
G75*
G02*
X61550000Y-88036955I0J-336955D01*
G01*
G37*
G36*
G01*
X57363045Y-75700000D02*
X56236955Y-75700000D01*
G75*
G02*
X55900000Y-75363045I0J336955D01*
G01*
X55900000Y-74486955D01*
G75*
G02*
X56236955Y-74150000I336955J0D01*
G01*
X57363045Y-74150000D01*
G75*
G02*
X57700000Y-74486955I0J-336955D01*
G01*
X57700000Y-75363045D01*
G75*
G02*
X57363045Y-75700000I-336955J0D01*
G01*
G37*
G36*
G01*
X57363045Y-73650000D02*
X56236955Y-73650000D01*
G75*
G02*
X55900000Y-73313045I0J336955D01*
G01*
X55900000Y-72436955D01*
G75*
G02*
X56236955Y-72100000I336955J0D01*
G01*
X57363045Y-72100000D01*
G75*
G02*
X57700000Y-72436955I0J-336955D01*
G01*
X57700000Y-73313045D01*
G75*
G02*
X57363045Y-73650000I-336955J0D01*
G01*
G37*
X160680560Y-69875240D03*
X150520560Y-69875240D03*
D16*
X151790560Y-67335240D03*
D14*
X155600560Y-69875240D03*
D16*
X158140560Y-64795240D03*
G36*
G01*
X228750000Y-75950520D02*
X228750000Y-74450520D01*
G75*
G02*
X228950000Y-74250520I200000J0D01*
G01*
X229950000Y-74250520D01*
G75*
G02*
X230150000Y-74450520I0J-200000D01*
G01*
X230150000Y-75950520D01*
G75*
G02*
X229950000Y-76150520I-200000J0D01*
G01*
X228950000Y-76150520D01*
G75*
G02*
X228750000Y-75950520I0J200000D01*
G01*
G37*
G36*
G01*
X230050000Y-75950520D02*
X230050000Y-74450520D01*
G75*
G02*
X230250000Y-74250520I200000J0D01*
G01*
X231250000Y-74250520D01*
G75*
G02*
X231450000Y-74450520I0J-200000D01*
G01*
X231450000Y-75950520D01*
G75*
G02*
X231250000Y-76150520I-200000J0D01*
G01*
X230250000Y-76150520D01*
G75*
G02*
X230050000Y-75950520I0J200000D01*
G01*
G37*
G36*
G01*
X231350000Y-75950520D02*
X231350000Y-74450520D01*
G75*
G02*
X231550000Y-74250520I200000J0D01*
G01*
X232550000Y-74250520D01*
G75*
G02*
X232750000Y-74450520I0J-200000D01*
G01*
X232750000Y-75950520D01*
G75*
G02*
X232550000Y-76150520I-200000J0D01*
G01*
X231550000Y-76150520D01*
G75*
G02*
X231350000Y-75950520I0J200000D01*
G01*
G37*
D13*
X262914840Y-26695040D03*
D14*
X260374840Y-31775040D03*
D13*
X256564840Y-29235040D03*
D15*
X255294840Y-31775040D03*
X265454840Y-31775040D03*
G36*
G01*
X251814840Y-30485040D02*
X251814840Y-27985040D01*
G75*
G02*
X252014840Y-27785040I200000J0D01*
G01*
X254564840Y-27785040D01*
G75*
G02*
X254764840Y-27985040I0J-200000D01*
G01*
X254764840Y-30485040D01*
G75*
G02*
X254564840Y-30685040I-200000J0D01*
G01*
X252014840Y-30685040D01*
G75*
G02*
X251814840Y-30485040I0J200000D01*
G01*
G37*
G36*
G01*
X264741840Y-27945040D02*
X264741840Y-25445040D01*
G75*
G02*
X264941840Y-25245040I200000J0D01*
G01*
X267491840Y-25245040D01*
G75*
G02*
X267691840Y-25445040I0J-200000D01*
G01*
X267691840Y-27945040D01*
G75*
G02*
X267491840Y-28145040I-200000J0D01*
G01*
X264941840Y-28145040D01*
G75*
G02*
X264741840Y-27945040I0J200000D01*
G01*
G37*
G36*
G01*
X74242000Y-27945040D02*
X74242000Y-25445040D01*
G75*
G02*
X74442000Y-25245040I200000J0D01*
G01*
X76992000Y-25245040D01*
G75*
G02*
X77192000Y-25445040I0J-200000D01*
G01*
X77192000Y-27945040D01*
G75*
G02*
X76992000Y-28145040I-200000J0D01*
G01*
X74442000Y-28145040D01*
G75*
G02*
X74242000Y-27945040I0J200000D01*
G01*
G37*
G36*
G01*
X61315000Y-30485040D02*
X61315000Y-27985040D01*
G75*
G02*
X61515000Y-27785040I200000J0D01*
G01*
X64065000Y-27785040D01*
G75*
G02*
X64265000Y-27985040I0J-200000D01*
G01*
X64265000Y-30485040D01*
G75*
G02*
X64065000Y-30685040I-200000J0D01*
G01*
X61515000Y-30685040D01*
G75*
G02*
X61315000Y-30485040I0J200000D01*
G01*
G37*
X74955000Y-31775040D03*
X64795000Y-31775040D03*
D13*
X66065000Y-29235040D03*
D14*
X69875000Y-31775040D03*
D13*
X72415000Y-26695040D03*
X91465000Y-26695040D03*
D14*
X88925000Y-31775040D03*
D13*
X85115000Y-29235040D03*
D15*
X83845000Y-31775040D03*
X94005000Y-31775040D03*
G36*
G01*
X80365000Y-30485040D02*
X80365000Y-27985040D01*
G75*
G02*
X80565000Y-27785040I200000J0D01*
G01*
X83115000Y-27785040D01*
G75*
G02*
X83315000Y-27985040I0J-200000D01*
G01*
X83315000Y-30485040D01*
G75*
G02*
X83115000Y-30685040I-200000J0D01*
G01*
X80565000Y-30685040D01*
G75*
G02*
X80365000Y-30485040I0J200000D01*
G01*
G37*
G36*
G01*
X93292000Y-27945040D02*
X93292000Y-25445040D01*
G75*
G02*
X93492000Y-25245040I200000J0D01*
G01*
X96042000Y-25245040D01*
G75*
G02*
X96242000Y-25445040I0J-200000D01*
G01*
X96242000Y-27945040D01*
G75*
G02*
X96042000Y-28145040I-200000J0D01*
G01*
X93492000Y-28145040D01*
G75*
G02*
X93292000Y-27945040I0J200000D01*
G01*
G37*
G36*
G01*
X112342000Y-27945040D02*
X112342000Y-25445040D01*
G75*
G02*
X112542000Y-25245040I200000J0D01*
G01*
X115092000Y-25245040D01*
G75*
G02*
X115292000Y-25445040I0J-200000D01*
G01*
X115292000Y-27945040D01*
G75*
G02*
X115092000Y-28145040I-200000J0D01*
G01*
X112542000Y-28145040D01*
G75*
G02*
X112342000Y-27945040I0J200000D01*
G01*
G37*
G36*
G01*
X99415000Y-30485040D02*
X99415000Y-27985040D01*
G75*
G02*
X99615000Y-27785040I200000J0D01*
G01*
X102165000Y-27785040D01*
G75*
G02*
X102365000Y-27985040I0J-200000D01*
G01*
X102365000Y-30485040D01*
G75*
G02*
X102165000Y-30685040I-200000J0D01*
G01*
X99615000Y-30685040D01*
G75*
G02*
X99415000Y-30485040I0J200000D01*
G01*
G37*
X113055000Y-31775040D03*
X102895000Y-31775040D03*
D13*
X104165000Y-29235040D03*
D14*
X107975000Y-31775040D03*
D13*
X110515000Y-26695040D03*
G36*
G01*
X131392000Y-27945040D02*
X131392000Y-25445040D01*
G75*
G02*
X131592000Y-25245040I200000J0D01*
G01*
X134142000Y-25245040D01*
G75*
G02*
X134342000Y-25445040I0J-200000D01*
G01*
X134342000Y-27945040D01*
G75*
G02*
X134142000Y-28145040I-200000J0D01*
G01*
X131592000Y-28145040D01*
G75*
G02*
X131392000Y-27945040I0J200000D01*
G01*
G37*
G36*
G01*
X118465000Y-30485040D02*
X118465000Y-27985040D01*
G75*
G02*
X118665000Y-27785040I200000J0D01*
G01*
X121215000Y-27785040D01*
G75*
G02*
X121415000Y-27985040I0J-200000D01*
G01*
X121415000Y-30485040D01*
G75*
G02*
X121215000Y-30685040I-200000J0D01*
G01*
X118665000Y-30685040D01*
G75*
G02*
X118465000Y-30485040I0J200000D01*
G01*
G37*
D15*
X132105000Y-31775040D03*
X121945000Y-31775040D03*
D13*
X123215000Y-29235040D03*
D14*
X127025000Y-31775040D03*
D13*
X129565000Y-26695040D03*
X148615000Y-26695040D03*
D14*
X146075000Y-31775040D03*
D13*
X142265000Y-29235040D03*
D15*
X140995000Y-31775040D03*
X151155000Y-31775040D03*
G36*
G01*
X137515000Y-30485040D02*
X137515000Y-27985040D01*
G75*
G02*
X137715000Y-27785040I200000J0D01*
G01*
X140265000Y-27785040D01*
G75*
G02*
X140465000Y-27985040I0J-200000D01*
G01*
X140465000Y-30485040D01*
G75*
G02*
X140265000Y-30685040I-200000J0D01*
G01*
X137715000Y-30685040D01*
G75*
G02*
X137515000Y-30485040I0J200000D01*
G01*
G37*
G36*
G01*
X150442000Y-27945040D02*
X150442000Y-25445040D01*
G75*
G02*
X150642000Y-25245040I200000J0D01*
G01*
X153192000Y-25245040D01*
G75*
G02*
X153392000Y-25445040I0J-200000D01*
G01*
X153392000Y-27945040D01*
G75*
G02*
X153192000Y-28145040I-200000J0D01*
G01*
X150642000Y-28145040D01*
G75*
G02*
X150442000Y-27945040I0J200000D01*
G01*
G37*
D13*
X205765600Y-26695080D03*
D14*
X203225600Y-31775080D03*
D13*
X199415600Y-29235080D03*
D15*
X198145600Y-31775080D03*
X208305600Y-31775080D03*
G36*
G01*
X194665600Y-30485080D02*
X194665600Y-27985080D01*
G75*
G02*
X194865600Y-27785080I200000J0D01*
G01*
X197415600Y-27785080D01*
G75*
G02*
X197615600Y-27985080I0J-200000D01*
G01*
X197615600Y-30485080D01*
G75*
G02*
X197415600Y-30685080I-200000J0D01*
G01*
X194865600Y-30685080D01*
G75*
G02*
X194665600Y-30485080I0J200000D01*
G01*
G37*
G36*
G01*
X207592600Y-27945080D02*
X207592600Y-25445080D01*
G75*
G02*
X207792600Y-25245080I200000J0D01*
G01*
X210342600Y-25245080D01*
G75*
G02*
X210542600Y-25445080I0J-200000D01*
G01*
X210542600Y-27945080D01*
G75*
G02*
X210342600Y-28145080I-200000J0D01*
G01*
X207792600Y-28145080D01*
G75*
G02*
X207592600Y-27945080I0J200000D01*
G01*
G37*
D13*
X224815680Y-26695040D03*
D14*
X222275680Y-31775040D03*
D13*
X218465680Y-29235040D03*
D15*
X217195680Y-31775040D03*
X227355680Y-31775040D03*
G36*
G01*
X213715680Y-30485040D02*
X213715680Y-27985040D01*
G75*
G02*
X213915680Y-27785040I200000J0D01*
G01*
X216465680Y-27785040D01*
G75*
G02*
X216665680Y-27985040I0J-200000D01*
G01*
X216665680Y-30485040D01*
G75*
G02*
X216465680Y-30685040I-200000J0D01*
G01*
X213915680Y-30685040D01*
G75*
G02*
X213715680Y-30485040I0J200000D01*
G01*
G37*
G36*
G01*
X226642680Y-27945040D02*
X226642680Y-25445040D01*
G75*
G02*
X226842680Y-25245040I200000J0D01*
G01*
X229392680Y-25245040D01*
G75*
G02*
X229592680Y-25445040I0J-200000D01*
G01*
X229592680Y-27945040D01*
G75*
G02*
X229392680Y-28145040I-200000J0D01*
G01*
X226842680Y-28145040D01*
G75*
G02*
X226642680Y-27945040I0J200000D01*
G01*
G37*
D13*
X243865760Y-26695040D03*
D14*
X241325760Y-31775040D03*
D13*
X237515760Y-29235040D03*
D15*
X236245760Y-31775040D03*
X246405760Y-31775040D03*
G36*
G01*
X232765760Y-30485040D02*
X232765760Y-27985040D01*
G75*
G02*
X232965760Y-27785040I200000J0D01*
G01*
X235515760Y-27785040D01*
G75*
G02*
X235715760Y-27985040I0J-200000D01*
G01*
X235715760Y-30485040D01*
G75*
G02*
X235515760Y-30685040I-200000J0D01*
G01*
X232965760Y-30685040D01*
G75*
G02*
X232765760Y-30485040I0J200000D01*
G01*
G37*
G36*
G01*
X245692760Y-27945040D02*
X245692760Y-25445040D01*
G75*
G02*
X245892760Y-25245040I200000J0D01*
G01*
X248442760Y-25245040D01*
G75*
G02*
X248642760Y-25445040I0J-200000D01*
G01*
X248642760Y-27945040D01*
G75*
G02*
X248442760Y-28145040I-200000J0D01*
G01*
X245892760Y-28145040D01*
G75*
G02*
X245692760Y-27945040I0J200000D01*
G01*
G37*
D13*
X281964840Y-26695040D03*
D14*
X279424840Y-31775040D03*
D13*
X275614840Y-29235040D03*
D15*
X274344840Y-31775040D03*
X284504840Y-31775040D03*
G36*
G01*
X270864840Y-30485040D02*
X270864840Y-27985040D01*
G75*
G02*
X271064840Y-27785040I200000J0D01*
G01*
X273614840Y-27785040D01*
G75*
G02*
X273814840Y-27985040I0J-200000D01*
G01*
X273814840Y-30485040D01*
G75*
G02*
X273614840Y-30685040I-200000J0D01*
G01*
X271064840Y-30685040D01*
G75*
G02*
X270864840Y-30485040I0J200000D01*
G01*
G37*
G36*
G01*
X283791840Y-27945040D02*
X283791840Y-25445040D01*
G75*
G02*
X283991840Y-25245040I200000J0D01*
G01*
X286541840Y-25245040D01*
G75*
G02*
X286741840Y-25445040I0J-200000D01*
G01*
X286741840Y-27945040D01*
G75*
G02*
X286541840Y-28145040I-200000J0D01*
G01*
X283991840Y-28145040D01*
G75*
G02*
X283791840Y-27945040I0J200000D01*
G01*
G37*
D13*
X48285000Y-36855040D03*
D14*
X50825000Y-31775040D03*
D13*
X54635000Y-34315040D03*
D15*
X55905000Y-31775040D03*
X45745000Y-31775040D03*
G36*
G01*
X59385000Y-33065040D02*
X59385000Y-35565040D01*
G75*
G02*
X59185000Y-35765040I-200000J0D01*
G01*
X56635000Y-35765040D01*
G75*
G02*
X56435000Y-35565040I0J200000D01*
G01*
X56435000Y-33065040D01*
G75*
G02*
X56635000Y-32865040I200000J0D01*
G01*
X59185000Y-32865040D01*
G75*
G02*
X59385000Y-33065040I0J-200000D01*
G01*
G37*
G36*
G01*
X46458000Y-35605040D02*
X46458000Y-38105040D01*
G75*
G02*
X46258000Y-38305040I-200000J0D01*
G01*
X43708000Y-38305040D01*
G75*
G02*
X43508000Y-38105040I0J200000D01*
G01*
X43508000Y-35605040D01*
G75*
G02*
X43708000Y-35405040I200000J0D01*
G01*
X46258000Y-35405040D01*
G75*
G02*
X46458000Y-35605040I0J-200000D01*
G01*
G37*
G36*
G01*
X179017880Y-66045240D02*
X179017880Y-63545240D01*
G75*
G02*
X179217880Y-63345240I200000J0D01*
G01*
X181767880Y-63345240D01*
G75*
G02*
X181967880Y-63545240I0J-200000D01*
G01*
X181967880Y-66045240D01*
G75*
G02*
X181767880Y-66245240I-200000J0D01*
G01*
X179217880Y-66245240D01*
G75*
G02*
X179017880Y-66045240I0J200000D01*
G01*
G37*
G36*
G01*
X166090880Y-68585240D02*
X166090880Y-66085240D01*
G75*
G02*
X166290880Y-65885240I200000J0D01*
G01*
X168840880Y-65885240D01*
G75*
G02*
X169040880Y-66085240I0J-200000D01*
G01*
X169040880Y-68585240D01*
G75*
G02*
X168840880Y-68785240I-200000J0D01*
G01*
X166290880Y-68785240D01*
G75*
G02*
X166090880Y-68585240I0J200000D01*
G01*
G37*
X179730880Y-69875240D03*
X169570880Y-69875240D03*
D13*
X170840880Y-67335240D03*
D14*
X174650880Y-69875240D03*
D13*
X177190880Y-64795240D03*
X243865760Y-83845320D03*
D14*
X241325760Y-88925320D03*
D13*
X237515760Y-86385320D03*
D15*
X236245760Y-88925320D03*
X246405760Y-88925320D03*
G36*
G01*
X232765760Y-87635320D02*
X232765760Y-85135320D01*
G75*
G02*
X232965760Y-84935320I200000J0D01*
G01*
X235515760Y-84935320D01*
G75*
G02*
X235715760Y-85135320I0J-200000D01*
G01*
X235715760Y-87635320D01*
G75*
G02*
X235515760Y-87835320I-200000J0D01*
G01*
X232965760Y-87835320D01*
G75*
G02*
X232765760Y-87635320I0J200000D01*
G01*
G37*
G36*
G01*
X245692760Y-85095320D02*
X245692760Y-82595320D01*
G75*
G02*
X245892760Y-82395320I200000J0D01*
G01*
X248442760Y-82395320D01*
G75*
G02*
X248642760Y-82595320I0J-200000D01*
G01*
X248642760Y-85095320D01*
G75*
G02*
X248442760Y-85295320I-200000J0D01*
G01*
X245892760Y-85295320D01*
G75*
G02*
X245692760Y-85095320I0J200000D01*
G01*
G37*
D13*
X301014840Y-26695040D03*
D14*
X298474840Y-31775040D03*
D13*
X294664840Y-29235040D03*
D15*
X293394840Y-31775040D03*
X303554840Y-31775040D03*
G36*
G01*
X289914840Y-30485040D02*
X289914840Y-27985040D01*
G75*
G02*
X290114840Y-27785040I200000J0D01*
G01*
X292664840Y-27785040D01*
G75*
G02*
X292864840Y-27985040I0J-200000D01*
G01*
X292864840Y-30485040D01*
G75*
G02*
X292664840Y-30685040I-200000J0D01*
G01*
X290114840Y-30685040D01*
G75*
G02*
X289914840Y-30485040I0J200000D01*
G01*
G37*
G36*
G01*
X302841840Y-27945040D02*
X302841840Y-25445040D01*
G75*
G02*
X303041840Y-25245040I200000J0D01*
G01*
X305591840Y-25245040D01*
G75*
G02*
X305791840Y-25445040I0J-200000D01*
G01*
X305791840Y-27945040D01*
G75*
G02*
X305591840Y-28145040I-200000J0D01*
G01*
X303041840Y-28145040D01*
G75*
G02*
X302841840Y-27945040I0J200000D01*
G01*
G37*
G36*
G01*
X264742840Y-85095320D02*
X264742840Y-82595320D01*
G75*
G02*
X264942840Y-82395320I200000J0D01*
G01*
X267492840Y-82395320D01*
G75*
G02*
X267692840Y-82595320I0J-200000D01*
G01*
X267692840Y-85095320D01*
G75*
G02*
X267492840Y-85295320I-200000J0D01*
G01*
X264942840Y-85295320D01*
G75*
G02*
X264742840Y-85095320I0J200000D01*
G01*
G37*
G36*
G01*
X251815840Y-87635320D02*
X251815840Y-85135320D01*
G75*
G02*
X252015840Y-84935320I200000J0D01*
G01*
X254565840Y-84935320D01*
G75*
G02*
X254765840Y-85135320I0J-200000D01*
G01*
X254765840Y-87635320D01*
G75*
G02*
X254565840Y-87835320I-200000J0D01*
G01*
X252015840Y-87835320D01*
G75*
G02*
X251815840Y-87635320I0J200000D01*
G01*
G37*
X265455840Y-88925320D03*
X255295840Y-88925320D03*
D13*
X256565840Y-86385320D03*
D14*
X260375840Y-88925320D03*
D13*
X262915840Y-83845320D03*
X177190040Y-45745400D03*
D14*
X174650040Y-50825400D03*
D13*
X170840040Y-48285400D03*
D15*
X169570040Y-50825400D03*
X179730040Y-50825400D03*
G36*
G01*
X166090040Y-49535400D02*
X166090040Y-47035400D01*
G75*
G02*
X166290040Y-46835400I200000J0D01*
G01*
X168840040Y-46835400D01*
G75*
G02*
X169040040Y-47035400I0J-200000D01*
G01*
X169040040Y-49535400D01*
G75*
G02*
X168840040Y-49735400I-200000J0D01*
G01*
X166290040Y-49735400D01*
G75*
G02*
X166090040Y-49535400I0J200000D01*
G01*
G37*
G36*
G01*
X179017040Y-46995400D02*
X179017040Y-44495400D01*
G75*
G02*
X179217040Y-44295400I200000J0D01*
G01*
X181767040Y-44295400D01*
G75*
G02*
X181967040Y-44495400I0J-200000D01*
G01*
X181967040Y-46995400D01*
G75*
G02*
X181767040Y-47195400I-200000J0D01*
G01*
X179217040Y-47195400D01*
G75*
G02*
X179017040Y-46995400I0J200000D01*
G01*
G37*
D13*
X186715040Y-26695400D03*
D14*
X184175040Y-31775400D03*
D13*
X180365040Y-29235400D03*
D15*
X179095040Y-31775400D03*
X189255040Y-31775400D03*
G36*
G01*
X175615040Y-30485400D02*
X175615040Y-27985400D01*
G75*
G02*
X175815040Y-27785400I200000J0D01*
G01*
X178365040Y-27785400D01*
G75*
G02*
X178565040Y-27985400I0J-200000D01*
G01*
X178565040Y-30485400D01*
G75*
G02*
X178365040Y-30685400I-200000J0D01*
G01*
X175815040Y-30685400D01*
G75*
G02*
X175615040Y-30485400I0J200000D01*
G01*
G37*
G36*
G01*
X188542040Y-27945400D02*
X188542040Y-25445400D01*
G75*
G02*
X188742040Y-25245400I200000J0D01*
G01*
X191292040Y-25245400D01*
G75*
G02*
X191492040Y-25445400I0J-200000D01*
G01*
X191492040Y-27945400D01*
G75*
G02*
X191292040Y-28145400I-200000J0D01*
G01*
X188742040Y-28145400D01*
G75*
G02*
X188542040Y-27945400I0J200000D01*
G01*
G37*
D13*
X167665040Y-26695400D03*
D14*
X165125040Y-31775400D03*
D13*
X161315040Y-29235400D03*
D15*
X160045040Y-31775400D03*
X170205040Y-31775400D03*
G36*
G01*
X156565040Y-30485400D02*
X156565040Y-27985400D01*
G75*
G02*
X156765040Y-27785400I200000J0D01*
G01*
X159315040Y-27785400D01*
G75*
G02*
X159515040Y-27985400I0J-200000D01*
G01*
X159515040Y-30485400D01*
G75*
G02*
X159315040Y-30685400I-200000J0D01*
G01*
X156765040Y-30685400D01*
G75*
G02*
X156565040Y-30485400I0J200000D01*
G01*
G37*
G36*
G01*
X169492040Y-27945400D02*
X169492040Y-25445400D01*
G75*
G02*
X169692040Y-25245400I200000J0D01*
G01*
X172242040Y-25245400D01*
G75*
G02*
X172442040Y-25445400I0J-200000D01*
G01*
X172442040Y-27945400D01*
G75*
G02*
X172242040Y-28145400I-200000J0D01*
G01*
X169692040Y-28145400D01*
G75*
G02*
X169492040Y-27945400I0J200000D01*
G01*
G37*
G36*
G01*
X64717000Y-66045200D02*
X64717000Y-63545200D01*
G75*
G02*
X64917000Y-63345200I200000J0D01*
G01*
X67467000Y-63345200D01*
G75*
G02*
X67667000Y-63545200I0J-200000D01*
G01*
X67667000Y-66045200D01*
G75*
G02*
X67467000Y-66245200I-200000J0D01*
G01*
X64917000Y-66245200D01*
G75*
G02*
X64717000Y-66045200I0J200000D01*
G01*
G37*
G36*
G01*
X51790000Y-68585200D02*
X51790000Y-66085200D01*
G75*
G02*
X51990000Y-65885200I200000J0D01*
G01*
X54540000Y-65885200D01*
G75*
G02*
X54740000Y-66085200I0J-200000D01*
G01*
X54740000Y-68585200D01*
G75*
G02*
X54540000Y-68785200I-200000J0D01*
G01*
X51990000Y-68785200D01*
G75*
G02*
X51790000Y-68585200I0J200000D01*
G01*
G37*
X65430000Y-69875200D03*
X55270000Y-69875200D03*
D13*
X56540000Y-67335200D03*
D14*
X60350000Y-69875200D03*
D13*
X62890000Y-64795200D03*
G36*
G01*
X150442000Y-85095280D02*
X150442000Y-82595280D01*
G75*
G02*
X150642000Y-82395280I200000J0D01*
G01*
X153192000Y-82395280D01*
G75*
G02*
X153392000Y-82595280I0J-200000D01*
G01*
X153392000Y-85095280D01*
G75*
G02*
X153192000Y-85295280I-200000J0D01*
G01*
X150642000Y-85295280D01*
G75*
G02*
X150442000Y-85095280I0J200000D01*
G01*
G37*
G36*
G01*
X137515000Y-87635280D02*
X137515000Y-85135280D01*
G75*
G02*
X137715000Y-84935280I200000J0D01*
G01*
X140265000Y-84935280D01*
G75*
G02*
X140465000Y-85135280I0J-200000D01*
G01*
X140465000Y-87635280D01*
G75*
G02*
X140265000Y-87835280I-200000J0D01*
G01*
X137715000Y-87835280D01*
G75*
G02*
X137515000Y-87635280I0J200000D01*
G01*
G37*
D15*
X151155000Y-88925280D03*
X140995000Y-88925280D03*
D13*
X142265000Y-86385280D03*
D14*
X146075000Y-88925280D03*
D13*
X148615000Y-83845280D03*
G36*
G01*
X112342000Y-85095280D02*
X112342000Y-82595280D01*
G75*
G02*
X112542000Y-82395280I200000J0D01*
G01*
X115092000Y-82395280D01*
G75*
G02*
X115292000Y-82595280I0J-200000D01*
G01*
X115292000Y-85095280D01*
G75*
G02*
X115092000Y-85295280I-200000J0D01*
G01*
X112542000Y-85295280D01*
G75*
G02*
X112342000Y-85095280I0J200000D01*
G01*
G37*
G36*
G01*
X99415000Y-87635280D02*
X99415000Y-85135280D01*
G75*
G02*
X99615000Y-84935280I200000J0D01*
G01*
X102165000Y-84935280D01*
G75*
G02*
X102365000Y-85135280I0J-200000D01*
G01*
X102365000Y-87635280D01*
G75*
G02*
X102165000Y-87835280I-200000J0D01*
G01*
X99615000Y-87835280D01*
G75*
G02*
X99415000Y-87635280I0J200000D01*
G01*
G37*
D15*
X113055000Y-88925280D03*
X102895000Y-88925280D03*
D13*
X104165000Y-86385280D03*
D14*
X107975000Y-88925280D03*
D13*
X110515000Y-83845280D03*
G36*
G01*
X102817000Y-66045200D02*
X102817000Y-63545200D01*
G75*
G02*
X103017000Y-63345200I200000J0D01*
G01*
X105567000Y-63345200D01*
G75*
G02*
X105767000Y-63545200I0J-200000D01*
G01*
X105767000Y-66045200D01*
G75*
G02*
X105567000Y-66245200I-200000J0D01*
G01*
X103017000Y-66245200D01*
G75*
G02*
X102817000Y-66045200I0J200000D01*
G01*
G37*
G36*
G01*
X89890000Y-68585200D02*
X89890000Y-66085200D01*
G75*
G02*
X90090000Y-65885200I200000J0D01*
G01*
X92640000Y-65885200D01*
G75*
G02*
X92840000Y-66085200I0J-200000D01*
G01*
X92840000Y-68585200D01*
G75*
G02*
X92640000Y-68785200I-200000J0D01*
G01*
X90090000Y-68785200D01*
G75*
G02*
X89890000Y-68585200I0J200000D01*
G01*
G37*
D15*
X103530000Y-69875200D03*
X93370000Y-69875200D03*
D13*
X94640000Y-67335200D03*
D14*
X98450000Y-69875200D03*
D13*
X100990000Y-64795200D03*
X281966080Y-102895360D03*
D14*
X279426080Y-107975360D03*
D13*
X275616080Y-105435360D03*
D15*
X274346080Y-107975360D03*
X284506080Y-107975360D03*
G36*
G01*
X270866080Y-106685360D02*
X270866080Y-104185360D01*
G75*
G02*
X271066080Y-103985360I200000J0D01*
G01*
X273616080Y-103985360D01*
G75*
G02*
X273816080Y-104185360I0J-200000D01*
G01*
X273816080Y-106685360D01*
G75*
G02*
X273616080Y-106885360I-200000J0D01*
G01*
X271066080Y-106885360D01*
G75*
G02*
X270866080Y-106685360I0J200000D01*
G01*
G37*
G36*
G01*
X283793080Y-104145360D02*
X283793080Y-101645360D01*
G75*
G02*
X283993080Y-101445360I200000J0D01*
G01*
X286543080Y-101445360D01*
G75*
G02*
X286743080Y-101645360I0J-200000D01*
G01*
X286743080Y-104145360D01*
G75*
G02*
X286543080Y-104345360I-200000J0D01*
G01*
X283993080Y-104345360D01*
G75*
G02*
X283793080Y-104145360I0J200000D01*
G01*
G37*
D13*
X100990000Y-45745120D03*
D14*
X98450000Y-50825120D03*
D13*
X94640000Y-48285120D03*
D15*
X93370000Y-50825120D03*
X103530000Y-50825120D03*
G36*
G01*
X89890000Y-49535120D02*
X89890000Y-47035120D01*
G75*
G02*
X90090000Y-46835120I200000J0D01*
G01*
X92640000Y-46835120D01*
G75*
G02*
X92840000Y-47035120I0J-200000D01*
G01*
X92840000Y-49535120D01*
G75*
G02*
X92640000Y-49735120I-200000J0D01*
G01*
X90090000Y-49735120D01*
G75*
G02*
X89890000Y-49535120I0J200000D01*
G01*
G37*
G36*
G01*
X102817000Y-46995120D02*
X102817000Y-44495120D01*
G75*
G02*
X103017000Y-44295120I200000J0D01*
G01*
X105567000Y-44295120D01*
G75*
G02*
X105767000Y-44495120I0J-200000D01*
G01*
X105767000Y-46995120D01*
G75*
G02*
X105567000Y-47195120I-200000J0D01*
G01*
X103017000Y-47195120D01*
G75*
G02*
X102817000Y-46995120I0J200000D01*
G01*
G37*
G36*
G01*
X27408000Y-35605040D02*
X27408000Y-38105040D01*
G75*
G02*
X27208000Y-38305040I-200000J0D01*
G01*
X24658000Y-38305040D01*
G75*
G02*
X24458000Y-38105040I0J200000D01*
G01*
X24458000Y-35605040D01*
G75*
G02*
X24658000Y-35405040I200000J0D01*
G01*
X27208000Y-35405040D01*
G75*
G02*
X27408000Y-35605040I0J-200000D01*
G01*
G37*
G36*
G01*
X40335000Y-33065040D02*
X40335000Y-35565040D01*
G75*
G02*
X40135000Y-35765040I-200000J0D01*
G01*
X37585000Y-35765040D01*
G75*
G02*
X37385000Y-35565040I0J200000D01*
G01*
X37385000Y-33065040D01*
G75*
G02*
X37585000Y-32865040I200000J0D01*
G01*
X40135000Y-32865040D01*
G75*
G02*
X40335000Y-33065040I0J-200000D01*
G01*
G37*
X26695000Y-31775040D03*
X36855000Y-31775040D03*
D13*
X35585000Y-34315040D03*
D14*
X31775000Y-31775040D03*
D13*
X29235000Y-36855040D03*
X120040000Y-64795200D03*
D14*
X117500000Y-69875200D03*
D13*
X113690000Y-67335200D03*
D15*
X112420000Y-69875200D03*
X122580000Y-69875200D03*
G36*
G01*
X108940000Y-68585200D02*
X108940000Y-66085200D01*
G75*
G02*
X109140000Y-65885200I200000J0D01*
G01*
X111690000Y-65885200D01*
G75*
G02*
X111890000Y-66085200I0J-200000D01*
G01*
X111890000Y-68585200D01*
G75*
G02*
X111690000Y-68785200I-200000J0D01*
G01*
X109140000Y-68785200D01*
G75*
G02*
X108940000Y-68585200I0J200000D01*
G01*
G37*
G36*
G01*
X121867000Y-66045200D02*
X121867000Y-63545200D01*
G75*
G02*
X122067000Y-63345200I200000J0D01*
G01*
X124617000Y-63345200D01*
G75*
G02*
X124817000Y-63545200I0J-200000D01*
G01*
X124817000Y-66045200D01*
G75*
G02*
X124617000Y-66245200I-200000J0D01*
G01*
X122067000Y-66245200D01*
G75*
G02*
X121867000Y-66045200I0J200000D01*
G01*
G37*
D13*
X301016160Y-83845320D03*
D14*
X298476160Y-88925320D03*
D13*
X294666160Y-86385320D03*
D15*
X293396160Y-88925320D03*
X303556160Y-88925320D03*
G36*
G01*
X289916160Y-87635320D02*
X289916160Y-85135320D01*
G75*
G02*
X290116160Y-84935320I200000J0D01*
G01*
X292666160Y-84935320D01*
G75*
G02*
X292866160Y-85135320I0J-200000D01*
G01*
X292866160Y-87635320D01*
G75*
G02*
X292666160Y-87835320I-200000J0D01*
G01*
X290116160Y-87835320D01*
G75*
G02*
X289916160Y-87635320I0J200000D01*
G01*
G37*
G36*
G01*
X302843160Y-85095320D02*
X302843160Y-82595320D01*
G75*
G02*
X303043160Y-82395320I200000J0D01*
G01*
X305593160Y-82395320D01*
G75*
G02*
X305793160Y-82595320I0J-200000D01*
G01*
X305793160Y-85095320D01*
G75*
G02*
X305593160Y-85295320I-200000J0D01*
G01*
X303043160Y-85295320D01*
G75*
G02*
X302843160Y-85095320I0J200000D01*
G01*
G37*
G36*
G01*
X140917000Y-66045200D02*
X140917000Y-63545200D01*
G75*
G02*
X141117000Y-63345200I200000J0D01*
G01*
X143667000Y-63345200D01*
G75*
G02*
X143867000Y-63545200I0J-200000D01*
G01*
X143867000Y-66045200D01*
G75*
G02*
X143667000Y-66245200I-200000J0D01*
G01*
X141117000Y-66245200D01*
G75*
G02*
X140917000Y-66045200I0J200000D01*
G01*
G37*
G36*
G01*
X127990000Y-68585200D02*
X127990000Y-66085200D01*
G75*
G02*
X128190000Y-65885200I200000J0D01*
G01*
X130740000Y-65885200D01*
G75*
G02*
X130940000Y-66085200I0J-200000D01*
G01*
X130940000Y-68585200D01*
G75*
G02*
X130740000Y-68785200I-200000J0D01*
G01*
X128190000Y-68785200D01*
G75*
G02*
X127990000Y-68585200I0J200000D01*
G01*
G37*
X141630000Y-69875200D03*
X131470000Y-69875200D03*
D13*
X132740000Y-67335200D03*
D14*
X136550000Y-69875200D03*
D13*
X139090000Y-64795200D03*
G36*
G01*
X151233560Y-73705240D02*
X151233560Y-76205240D01*
G75*
G02*
X151033560Y-76405240I-200000J0D01*
G01*
X148483560Y-76405240D01*
G75*
G02*
X148283560Y-76205240I0J200000D01*
G01*
X148283560Y-73705240D01*
G75*
G02*
X148483560Y-73505240I200000J0D01*
G01*
X151033560Y-73505240D01*
G75*
G02*
X151233560Y-73705240I0J-200000D01*
G01*
G37*
G36*
G01*
X164160560Y-71165240D02*
X164160560Y-73665240D01*
G75*
G02*
X163960560Y-73865240I-200000J0D01*
G01*
X161410560Y-73865240D01*
G75*
G02*
X161210560Y-73665240I0J200000D01*
G01*
X161210560Y-71165240D01*
G75*
G02*
X161410560Y-70965240I200000J0D01*
G01*
X163960560Y-70965240D01*
G75*
G02*
X164160560Y-71165240I0J-200000D01*
G01*
G37*
D15*
X150520560Y-69875240D03*
X160680560Y-69875240D03*
D13*
X159410560Y-72415240D03*
D14*
X155600560Y-69875240D03*
D13*
X153060560Y-74955240D03*
G36*
G01*
X236167720Y-46995160D02*
X236167720Y-44495160D01*
G75*
G02*
X236367720Y-44295160I200000J0D01*
G01*
X238917720Y-44295160D01*
G75*
G02*
X239117720Y-44495160I0J-200000D01*
G01*
X239117720Y-46995160D01*
G75*
G02*
X238917720Y-47195160I-200000J0D01*
G01*
X236367720Y-47195160D01*
G75*
G02*
X236167720Y-46995160I0J200000D01*
G01*
G37*
G36*
G01*
X223240720Y-49535160D02*
X223240720Y-47035160D01*
G75*
G02*
X223440720Y-46835160I200000J0D01*
G01*
X225990720Y-46835160D01*
G75*
G02*
X226190720Y-47035160I0J-200000D01*
G01*
X226190720Y-49535160D01*
G75*
G02*
X225990720Y-49735160I-200000J0D01*
G01*
X223440720Y-49735160D01*
G75*
G02*
X223240720Y-49535160I0J200000D01*
G01*
G37*
D15*
X236880720Y-50825160D03*
X226720720Y-50825160D03*
D13*
X227990720Y-48285160D03*
D14*
X231800720Y-50825160D03*
D13*
X234340720Y-45745160D03*
G36*
G01*
X217117640Y-66045200D02*
X217117640Y-63545200D01*
G75*
G02*
X217317640Y-63345200I200000J0D01*
G01*
X219867640Y-63345200D01*
G75*
G02*
X220067640Y-63545200I0J-200000D01*
G01*
X220067640Y-66045200D01*
G75*
G02*
X219867640Y-66245200I-200000J0D01*
G01*
X217317640Y-66245200D01*
G75*
G02*
X217117640Y-66045200I0J200000D01*
G01*
G37*
G36*
G01*
X204190640Y-68585200D02*
X204190640Y-66085200D01*
G75*
G02*
X204390640Y-65885200I200000J0D01*
G01*
X206940640Y-65885200D01*
G75*
G02*
X207140640Y-66085200I0J-200000D01*
G01*
X207140640Y-68585200D01*
G75*
G02*
X206940640Y-68785200I-200000J0D01*
G01*
X204390640Y-68785200D01*
G75*
G02*
X204190640Y-68585200I0J200000D01*
G01*
G37*
D15*
X217830640Y-69875200D03*
X207670640Y-69875200D03*
D13*
X208940640Y-67335200D03*
D14*
X212750640Y-69875200D03*
D13*
X215290640Y-64795200D03*
G36*
G01*
X236167720Y-66045240D02*
X236167720Y-63545240D01*
G75*
G02*
X236367720Y-63345240I200000J0D01*
G01*
X238917720Y-63345240D01*
G75*
G02*
X239117720Y-63545240I0J-200000D01*
G01*
X239117720Y-66045240D01*
G75*
G02*
X238917720Y-66245240I-200000J0D01*
G01*
X236367720Y-66245240D01*
G75*
G02*
X236167720Y-66045240I0J200000D01*
G01*
G37*
G36*
G01*
X223240720Y-68585240D02*
X223240720Y-66085240D01*
G75*
G02*
X223440720Y-65885240I200000J0D01*
G01*
X225990720Y-65885240D01*
G75*
G02*
X226190720Y-66085240I0J-200000D01*
G01*
X226190720Y-68585240D01*
G75*
G02*
X225990720Y-68785240I-200000J0D01*
G01*
X223440720Y-68785240D01*
G75*
G02*
X223240720Y-68585240I0J200000D01*
G01*
G37*
D15*
X236880720Y-69875240D03*
X226720720Y-69875240D03*
D13*
X227990720Y-67335240D03*
D14*
X231800720Y-69875240D03*
D13*
X234340720Y-64795240D03*
G36*
G01*
X255217800Y-66045240D02*
X255217800Y-63545240D01*
G75*
G02*
X255417800Y-63345240I200000J0D01*
G01*
X257967800Y-63345240D01*
G75*
G02*
X258167800Y-63545240I0J-200000D01*
G01*
X258167800Y-66045240D01*
G75*
G02*
X257967800Y-66245240I-200000J0D01*
G01*
X255417800Y-66245240D01*
G75*
G02*
X255217800Y-66045240I0J200000D01*
G01*
G37*
G36*
G01*
X242290800Y-68585240D02*
X242290800Y-66085240D01*
G75*
G02*
X242490800Y-65885240I200000J0D01*
G01*
X245040800Y-65885240D01*
G75*
G02*
X245240800Y-66085240I0J-200000D01*
G01*
X245240800Y-68585240D01*
G75*
G02*
X245040800Y-68785240I-200000J0D01*
G01*
X242490800Y-68785240D01*
G75*
G02*
X242290800Y-68585240I0J200000D01*
G01*
G37*
D15*
X255930800Y-69875240D03*
X245770800Y-69875240D03*
D13*
X247040800Y-67335240D03*
D14*
X250850800Y-69875240D03*
D13*
X253390800Y-64795240D03*
G36*
G01*
X27408040Y-92755400D02*
X27408040Y-95255400D01*
G75*
G02*
X27208040Y-95455400I-200000J0D01*
G01*
X24658040Y-95455400D01*
G75*
G02*
X24458040Y-95255400I0J200000D01*
G01*
X24458040Y-92755400D01*
G75*
G02*
X24658040Y-92555400I200000J0D01*
G01*
X27208040Y-92555400D01*
G75*
G02*
X27408040Y-92755400I0J-200000D01*
G01*
G37*
G36*
G01*
X40335040Y-90215400D02*
X40335040Y-92715400D01*
G75*
G02*
X40135040Y-92915400I-200000J0D01*
G01*
X37585040Y-92915400D01*
G75*
G02*
X37385040Y-92715400I0J200000D01*
G01*
X37385040Y-90215400D01*
G75*
G02*
X37585040Y-90015400I200000J0D01*
G01*
X40135040Y-90015400D01*
G75*
G02*
X40335040Y-90215400I0J-200000D01*
G01*
G37*
D15*
X26695040Y-88925400D03*
X36855040Y-88925400D03*
D13*
X35585040Y-91465400D03*
D14*
X31775040Y-88925400D03*
D13*
X29235040Y-94005400D03*
X48285040Y-94005400D03*
D14*
X50825040Y-88925400D03*
D13*
X54635040Y-91465400D03*
D15*
X55905040Y-88925400D03*
X45745040Y-88925400D03*
G36*
G01*
X59385040Y-90215400D02*
X59385040Y-92715400D01*
G75*
G02*
X59185040Y-92915400I-200000J0D01*
G01*
X56635040Y-92915400D01*
G75*
G02*
X56435040Y-92715400I0J200000D01*
G01*
X56435040Y-90215400D01*
G75*
G02*
X56635040Y-90015400I200000J0D01*
G01*
X59185040Y-90015400D01*
G75*
G02*
X59385040Y-90215400I0J-200000D01*
G01*
G37*
G36*
G01*
X46458040Y-92755400D02*
X46458040Y-95255400D01*
G75*
G02*
X46258040Y-95455400I-200000J0D01*
G01*
X43708040Y-95455400D01*
G75*
G02*
X43508040Y-95255400I0J200000D01*
G01*
X43508040Y-92755400D01*
G75*
G02*
X43708040Y-92555400I200000J0D01*
G01*
X46258040Y-92555400D01*
G75*
G02*
X46458040Y-92755400I0J-200000D01*
G01*
G37*
G36*
G01*
X226642680Y-85095280D02*
X226642680Y-82595280D01*
G75*
G02*
X226842680Y-82395280I200000J0D01*
G01*
X229392680Y-82395280D01*
G75*
G02*
X229592680Y-82595280I0J-200000D01*
G01*
X229592680Y-85095280D01*
G75*
G02*
X229392680Y-85295280I-200000J0D01*
G01*
X226842680Y-85295280D01*
G75*
G02*
X226642680Y-85095280I0J200000D01*
G01*
G37*
G36*
G01*
X213715680Y-87635280D02*
X213715680Y-85135280D01*
G75*
G02*
X213915680Y-84935280I200000J0D01*
G01*
X216465680Y-84935280D01*
G75*
G02*
X216665680Y-85135280I0J-200000D01*
G01*
X216665680Y-87635280D01*
G75*
G02*
X216465680Y-87835280I-200000J0D01*
G01*
X213915680Y-87835280D01*
G75*
G02*
X213715680Y-87635280I0J200000D01*
G01*
G37*
X227355680Y-88925280D03*
X217195680Y-88925280D03*
D13*
X218465680Y-86385280D03*
D14*
X222275680Y-88925280D03*
D13*
X224815680Y-83845280D03*
G36*
G01*
X207592600Y-85095280D02*
X207592600Y-82595280D01*
G75*
G02*
X207792600Y-82395280I200000J0D01*
G01*
X210342600Y-82395280D01*
G75*
G02*
X210542600Y-82595280I0J-200000D01*
G01*
X210542600Y-85095280D01*
G75*
G02*
X210342600Y-85295280I-200000J0D01*
G01*
X207792600Y-85295280D01*
G75*
G02*
X207592600Y-85095280I0J200000D01*
G01*
G37*
G36*
G01*
X194665600Y-87635280D02*
X194665600Y-85135280D01*
G75*
G02*
X194865600Y-84935280I200000J0D01*
G01*
X197415600Y-84935280D01*
G75*
G02*
X197615600Y-85135280I0J-200000D01*
G01*
X197615600Y-87635280D01*
G75*
G02*
X197415600Y-87835280I-200000J0D01*
G01*
X194865600Y-87835280D01*
G75*
G02*
X194665600Y-87635280I0J200000D01*
G01*
G37*
D15*
X208305600Y-88925280D03*
X198145600Y-88925280D03*
D13*
X199415600Y-86385280D03*
D14*
X203225600Y-88925280D03*
D13*
X205765600Y-83845280D03*
G36*
G01*
X255217800Y-46995160D02*
X255217800Y-44495160D01*
G75*
G02*
X255417800Y-44295160I200000J0D01*
G01*
X257967800Y-44295160D01*
G75*
G02*
X258167800Y-44495160I0J-200000D01*
G01*
X258167800Y-46995160D01*
G75*
G02*
X257967800Y-47195160I-200000J0D01*
G01*
X255417800Y-47195160D01*
G75*
G02*
X255217800Y-46995160I0J200000D01*
G01*
G37*
G36*
G01*
X242290800Y-49535160D02*
X242290800Y-47035160D01*
G75*
G02*
X242490800Y-46835160I200000J0D01*
G01*
X245040800Y-46835160D01*
G75*
G02*
X245240800Y-47035160I0J-200000D01*
G01*
X245240800Y-49535160D01*
G75*
G02*
X245040800Y-49735160I-200000J0D01*
G01*
X242490800Y-49735160D01*
G75*
G02*
X242290800Y-49535160I0J200000D01*
G01*
G37*
D15*
X255930800Y-50825160D03*
X245770800Y-50825160D03*
D13*
X247040800Y-48285160D03*
D14*
X250850800Y-50825160D03*
D13*
X253390800Y-45745160D03*
G36*
G01*
X274267880Y-46995160D02*
X274267880Y-44495160D01*
G75*
G02*
X274467880Y-44295160I200000J0D01*
G01*
X277017880Y-44295160D01*
G75*
G02*
X277217880Y-44495160I0J-200000D01*
G01*
X277217880Y-46995160D01*
G75*
G02*
X277017880Y-47195160I-200000J0D01*
G01*
X274467880Y-47195160D01*
G75*
G02*
X274267880Y-46995160I0J200000D01*
G01*
G37*
G36*
G01*
X261340880Y-49535160D02*
X261340880Y-47035160D01*
G75*
G02*
X261540880Y-46835160I200000J0D01*
G01*
X264090880Y-46835160D01*
G75*
G02*
X264290880Y-47035160I0J-200000D01*
G01*
X264290880Y-49535160D01*
G75*
G02*
X264090880Y-49735160I-200000J0D01*
G01*
X261540880Y-49735160D01*
G75*
G02*
X261340880Y-49535160I0J200000D01*
G01*
G37*
D15*
X274980880Y-50825160D03*
X264820880Y-50825160D03*
D13*
X266090880Y-48285160D03*
D14*
X269900880Y-50825160D03*
D13*
X272440880Y-45745160D03*
X62890000Y-45745120D03*
D14*
X60350000Y-50825120D03*
D13*
X56540000Y-48285120D03*
D15*
X55270000Y-50825120D03*
X65430000Y-50825120D03*
G36*
G01*
X51790000Y-49535120D02*
X51790000Y-47035120D01*
G75*
G02*
X51990000Y-46835120I200000J0D01*
G01*
X54540000Y-46835120D01*
G75*
G02*
X54740000Y-47035120I0J-200000D01*
G01*
X54740000Y-49535120D01*
G75*
G02*
X54540000Y-49735120I-200000J0D01*
G01*
X51990000Y-49735120D01*
G75*
G02*
X51790000Y-49535120I0J200000D01*
G01*
G37*
G36*
G01*
X64717000Y-46995120D02*
X64717000Y-44495120D01*
G75*
G02*
X64917000Y-44295120I200000J0D01*
G01*
X67467000Y-44295120D01*
G75*
G02*
X67667000Y-44495120I0J-200000D01*
G01*
X67667000Y-46995120D01*
G75*
G02*
X67467000Y-47195120I-200000J0D01*
G01*
X64917000Y-47195120D01*
G75*
G02*
X64717000Y-46995120I0J200000D01*
G01*
G37*
D13*
X120040000Y-45745120D03*
D14*
X117500000Y-50825120D03*
D13*
X113690000Y-48285120D03*
D15*
X112420000Y-50825120D03*
X122580000Y-50825120D03*
G36*
G01*
X108940000Y-49535120D02*
X108940000Y-47035120D01*
G75*
G02*
X109140000Y-46835120I200000J0D01*
G01*
X111690000Y-46835120D01*
G75*
G02*
X111890000Y-47035120I0J-200000D01*
G01*
X111890000Y-49535120D01*
G75*
G02*
X111690000Y-49735120I-200000J0D01*
G01*
X109140000Y-49735120D01*
G75*
G02*
X108940000Y-49535120I0J200000D01*
G01*
G37*
G36*
G01*
X121867000Y-46995120D02*
X121867000Y-44495120D01*
G75*
G02*
X122067000Y-44295120I200000J0D01*
G01*
X124617000Y-44295120D01*
G75*
G02*
X124817000Y-44495120I0J-200000D01*
G01*
X124817000Y-46995120D01*
G75*
G02*
X124617000Y-47195120I-200000J0D01*
G01*
X122067000Y-47195120D01*
G75*
G02*
X121867000Y-46995120I0J200000D01*
G01*
G37*
D13*
X301016160Y-102895400D03*
D14*
X298476160Y-107975400D03*
D13*
X294666160Y-105435400D03*
D15*
X293396160Y-107975400D03*
X303556160Y-107975400D03*
G36*
G01*
X289916160Y-106685400D02*
X289916160Y-104185400D01*
G75*
G02*
X290116160Y-103985400I200000J0D01*
G01*
X292666160Y-103985400D01*
G75*
G02*
X292866160Y-104185400I0J-200000D01*
G01*
X292866160Y-106685400D01*
G75*
G02*
X292666160Y-106885400I-200000J0D01*
G01*
X290116160Y-106885400D01*
G75*
G02*
X289916160Y-106685400I0J200000D01*
G01*
G37*
G36*
G01*
X302843160Y-104145400D02*
X302843160Y-101645400D01*
G75*
G02*
X303043160Y-101445400I200000J0D01*
G01*
X305593160Y-101445400D01*
G75*
G02*
X305793160Y-101645400I0J-200000D01*
G01*
X305793160Y-104145400D01*
G75*
G02*
X305593160Y-104345400I-200000J0D01*
G01*
X303043160Y-104345400D01*
G75*
G02*
X302843160Y-104145400I0J200000D01*
G01*
G37*
D13*
X81940000Y-64795200D03*
D14*
X79400000Y-69875200D03*
D13*
X75590000Y-67335200D03*
D15*
X74320000Y-69875200D03*
X84480000Y-69875200D03*
G36*
G01*
X70840000Y-68585200D02*
X70840000Y-66085200D01*
G75*
G02*
X71040000Y-65885200I200000J0D01*
G01*
X73590000Y-65885200D01*
G75*
G02*
X73790000Y-66085200I0J-200000D01*
G01*
X73790000Y-68585200D01*
G75*
G02*
X73590000Y-68785200I-200000J0D01*
G01*
X71040000Y-68785200D01*
G75*
G02*
X70840000Y-68585200I0J200000D01*
G01*
G37*
G36*
G01*
X83767000Y-66045200D02*
X83767000Y-63545200D01*
G75*
G02*
X83967000Y-63345200I200000J0D01*
G01*
X86517000Y-63345200D01*
G75*
G02*
X86717000Y-63545200I0J-200000D01*
G01*
X86717000Y-66045200D01*
G75*
G02*
X86517000Y-66245200I-200000J0D01*
G01*
X83967000Y-66245200D01*
G75*
G02*
X83767000Y-66045200I0J200000D01*
G01*
G37*
D13*
X139090000Y-45745120D03*
D14*
X136550000Y-50825120D03*
D13*
X132740000Y-48285120D03*
D15*
X131470000Y-50825120D03*
X141630000Y-50825120D03*
G36*
G01*
X127990000Y-49535120D02*
X127990000Y-47035120D01*
G75*
G02*
X128190000Y-46835120I200000J0D01*
G01*
X130740000Y-46835120D01*
G75*
G02*
X130940000Y-47035120I0J-200000D01*
G01*
X130940000Y-49535120D01*
G75*
G02*
X130740000Y-49735120I-200000J0D01*
G01*
X128190000Y-49735120D01*
G75*
G02*
X127990000Y-49535120I0J200000D01*
G01*
G37*
G36*
G01*
X140917000Y-46995120D02*
X140917000Y-44495120D01*
G75*
G02*
X141117000Y-44295120I200000J0D01*
G01*
X143667000Y-44295120D01*
G75*
G02*
X143867000Y-44495120I0J-200000D01*
G01*
X143867000Y-46995120D01*
G75*
G02*
X143667000Y-47195120I-200000J0D01*
G01*
X141117000Y-47195120D01*
G75*
G02*
X140917000Y-46995120I0J200000D01*
G01*
G37*
G36*
G01*
X217117640Y-46995160D02*
X217117640Y-44495160D01*
G75*
G02*
X217317640Y-44295160I200000J0D01*
G01*
X219867640Y-44295160D01*
G75*
G02*
X220067640Y-44495160I0J-200000D01*
G01*
X220067640Y-46995160D01*
G75*
G02*
X219867640Y-47195160I-200000J0D01*
G01*
X217317640Y-47195160D01*
G75*
G02*
X217117640Y-46995160I0J200000D01*
G01*
G37*
G36*
G01*
X204190640Y-49535160D02*
X204190640Y-47035160D01*
G75*
G02*
X204390640Y-46835160I200000J0D01*
G01*
X206940640Y-46835160D01*
G75*
G02*
X207140640Y-47035160I0J-200000D01*
G01*
X207140640Y-49535160D01*
G75*
G02*
X206940640Y-49735160I-200000J0D01*
G01*
X204390640Y-49735160D01*
G75*
G02*
X204190640Y-49535160I0J200000D01*
G01*
G37*
X217830640Y-50825160D03*
X207670640Y-50825160D03*
D13*
X208940640Y-48285160D03*
D14*
X212750640Y-50825160D03*
D13*
X215290640Y-45745160D03*
X281966080Y-83845320D03*
D14*
X279426080Y-88925320D03*
D13*
X275616080Y-86385320D03*
D15*
X274346080Y-88925320D03*
X284506080Y-88925320D03*
G36*
G01*
X270866080Y-87635320D02*
X270866080Y-85135320D01*
G75*
G02*
X271066080Y-84935320I200000J0D01*
G01*
X273616080Y-84935320D01*
G75*
G02*
X273816080Y-85135320I0J-200000D01*
G01*
X273816080Y-87635320D01*
G75*
G02*
X273616080Y-87835320I-200000J0D01*
G01*
X271066080Y-87835320D01*
G75*
G02*
X270866080Y-87635320I0J200000D01*
G01*
G37*
G36*
G01*
X283793080Y-85095320D02*
X283793080Y-82595320D01*
G75*
G02*
X283993080Y-82395320I200000J0D01*
G01*
X286543080Y-82395320D01*
G75*
G02*
X286743080Y-82595320I0J-200000D01*
G01*
X286743080Y-85095320D01*
G75*
G02*
X286543080Y-85295320I-200000J0D01*
G01*
X283993080Y-85295320D01*
G75*
G02*
X283793080Y-85095320I0J200000D01*
G01*
G37*
G36*
G01*
X131392000Y-85095280D02*
X131392000Y-82595280D01*
G75*
G02*
X131592000Y-82395280I200000J0D01*
G01*
X134142000Y-82395280D01*
G75*
G02*
X134342000Y-82595280I0J-200000D01*
G01*
X134342000Y-85095280D01*
G75*
G02*
X134142000Y-85295280I-200000J0D01*
G01*
X131592000Y-85295280D01*
G75*
G02*
X131392000Y-85095280I0J200000D01*
G01*
G37*
G36*
G01*
X118465000Y-87635280D02*
X118465000Y-85135280D01*
G75*
G02*
X118665000Y-84935280I200000J0D01*
G01*
X121215000Y-84935280D01*
G75*
G02*
X121415000Y-85135280I0J-200000D01*
G01*
X121415000Y-87635280D01*
G75*
G02*
X121215000Y-87835280I-200000J0D01*
G01*
X118665000Y-87835280D01*
G75*
G02*
X118465000Y-87635280I0J200000D01*
G01*
G37*
X132105000Y-88925280D03*
X121945000Y-88925280D03*
D13*
X123215000Y-86385280D03*
D14*
X127025000Y-88925280D03*
D13*
X129565000Y-83845280D03*
X81940000Y-45745120D03*
D14*
X79400000Y-50825120D03*
D13*
X75590000Y-48285120D03*
D15*
X74320000Y-50825120D03*
X84480000Y-50825120D03*
G36*
G01*
X70840000Y-49535120D02*
X70840000Y-47035120D01*
G75*
G02*
X71040000Y-46835120I200000J0D01*
G01*
X73590000Y-46835120D01*
G75*
G02*
X73790000Y-47035120I0J-200000D01*
G01*
X73790000Y-49535120D01*
G75*
G02*
X73590000Y-49735120I-200000J0D01*
G01*
X71040000Y-49735120D01*
G75*
G02*
X70840000Y-49535120I0J200000D01*
G01*
G37*
G36*
G01*
X83767000Y-46995120D02*
X83767000Y-44495120D01*
G75*
G02*
X83967000Y-44295120I200000J0D01*
G01*
X86517000Y-44295120D01*
G75*
G02*
X86717000Y-44495120I0J-200000D01*
G01*
X86717000Y-46995120D01*
G75*
G02*
X86517000Y-47195120I-200000J0D01*
G01*
X83967000Y-47195120D01*
G75*
G02*
X83767000Y-46995120I0J200000D01*
G01*
G37*
G36*
G01*
X65508040Y-111805400D02*
X65508040Y-114305400D01*
G75*
G02*
X65308040Y-114505400I-200000J0D01*
G01*
X62758040Y-114505400D01*
G75*
G02*
X62558040Y-114305400I0J200000D01*
G01*
X62558040Y-111805400D01*
G75*
G02*
X62758040Y-111605400I200000J0D01*
G01*
X65308040Y-111605400D01*
G75*
G02*
X65508040Y-111805400I0J-200000D01*
G01*
G37*
G36*
G01*
X78435040Y-109265400D02*
X78435040Y-111765400D01*
G75*
G02*
X78235040Y-111965400I-200000J0D01*
G01*
X75685040Y-111965400D01*
G75*
G02*
X75485040Y-111765400I0J200000D01*
G01*
X75485040Y-109265400D01*
G75*
G02*
X75685040Y-109065400I200000J0D01*
G01*
X78235040Y-109065400D01*
G75*
G02*
X78435040Y-109265400I0J-200000D01*
G01*
G37*
X64795040Y-107975400D03*
X74955040Y-107975400D03*
D13*
X73685040Y-110515400D03*
D14*
X69875040Y-107975400D03*
D13*
X67335040Y-113055400D03*
G36*
G01*
X159967560Y-46995120D02*
X159967560Y-44495120D01*
G75*
G02*
X160167560Y-44295120I200000J0D01*
G01*
X162717560Y-44295120D01*
G75*
G02*
X162917560Y-44495120I0J-200000D01*
G01*
X162917560Y-46995120D01*
G75*
G02*
X162717560Y-47195120I-200000J0D01*
G01*
X160167560Y-47195120D01*
G75*
G02*
X159967560Y-46995120I0J200000D01*
G01*
G37*
G36*
G01*
X147040560Y-49535120D02*
X147040560Y-47035120D01*
G75*
G02*
X147240560Y-46835120I200000J0D01*
G01*
X149790560Y-46835120D01*
G75*
G02*
X149990560Y-47035120I0J-200000D01*
G01*
X149990560Y-49535120D01*
G75*
G02*
X149790560Y-49735120I-200000J0D01*
G01*
X147240560Y-49735120D01*
G75*
G02*
X147040560Y-49535120I0J200000D01*
G01*
G37*
D15*
X160680560Y-50825120D03*
X150520560Y-50825120D03*
D13*
X151790560Y-48285120D03*
D14*
X155600560Y-50825120D03*
D13*
X158140560Y-45745120D03*
G36*
G01*
X298080480Y-46995160D02*
X298080480Y-44495160D01*
G75*
G02*
X298280480Y-44295160I200000J0D01*
G01*
X300830480Y-44295160D01*
G75*
G02*
X301030480Y-44495160I0J-200000D01*
G01*
X301030480Y-46995160D01*
G75*
G02*
X300830480Y-47195160I-200000J0D01*
G01*
X298280480Y-47195160D01*
G75*
G02*
X298080480Y-46995160I0J200000D01*
G01*
G37*
G36*
G01*
X285153480Y-49535160D02*
X285153480Y-47035160D01*
G75*
G02*
X285353480Y-46835160I200000J0D01*
G01*
X287903480Y-46835160D01*
G75*
G02*
X288103480Y-47035160I0J-200000D01*
G01*
X288103480Y-49535160D01*
G75*
G02*
X287903480Y-49735160I-200000J0D01*
G01*
X285353480Y-49735160D01*
G75*
G02*
X285153480Y-49535160I0J200000D01*
G01*
G37*
D15*
X298793480Y-50825160D03*
X288633480Y-50825160D03*
D13*
X289903480Y-48285160D03*
D14*
X293713480Y-50825160D03*
D13*
X296253480Y-45745160D03*
X34315040Y-102895400D03*
D14*
X31775040Y-107975400D03*
D13*
X27965040Y-105435400D03*
D15*
X26695040Y-107975400D03*
X36855040Y-107975400D03*
G36*
G01*
X23215040Y-106685400D02*
X23215040Y-104185400D01*
G75*
G02*
X23415040Y-103985400I200000J0D01*
G01*
X25965040Y-103985400D01*
G75*
G02*
X26165040Y-104185400I0J-200000D01*
G01*
X26165040Y-106685400D01*
G75*
G02*
X25965040Y-106885400I-200000J0D01*
G01*
X23415040Y-106885400D01*
G75*
G02*
X23215040Y-106685400I0J200000D01*
G01*
G37*
G36*
G01*
X36142040Y-104145400D02*
X36142040Y-101645400D01*
G75*
G02*
X36342040Y-101445400I200000J0D01*
G01*
X38892040Y-101445400D01*
G75*
G02*
X39092040Y-101645400I0J-200000D01*
G01*
X39092040Y-104145400D01*
G75*
G02*
X38892040Y-104345400I-200000J0D01*
G01*
X36342040Y-104345400D01*
G75*
G02*
X36142040Y-104145400I0J200000D01*
G01*
G37*
D13*
X98609060Y-102895400D03*
D14*
X96069060Y-107975400D03*
D13*
X92259060Y-105435400D03*
D15*
X90989060Y-107975400D03*
X101149060Y-107975400D03*
G36*
G01*
X87509060Y-106685400D02*
X87509060Y-104185400D01*
G75*
G02*
X87709060Y-103985400I200000J0D01*
G01*
X90259060Y-103985400D01*
G75*
G02*
X90459060Y-104185400I0J-200000D01*
G01*
X90459060Y-106685400D01*
G75*
G02*
X90259060Y-106885400I-200000J0D01*
G01*
X87709060Y-106885400D01*
G75*
G02*
X87509060Y-106685400I0J200000D01*
G01*
G37*
G36*
G01*
X100436060Y-104145400D02*
X100436060Y-101645400D01*
G75*
G02*
X100636060Y-101445400I200000J0D01*
G01*
X103186060Y-101445400D01*
G75*
G02*
X103386060Y-101645400I0J-200000D01*
G01*
X103386060Y-104145400D01*
G75*
G02*
X103186060Y-104345400I-200000J0D01*
G01*
X100636060Y-104345400D01*
G75*
G02*
X100436060Y-104145400I0J200000D01*
G01*
G37*
D13*
X296253480Y-64795240D03*
D14*
X293713480Y-69875240D03*
D13*
X289903480Y-67335240D03*
D15*
X288633480Y-69875240D03*
X298793480Y-69875240D03*
G36*
G01*
X285153480Y-68585240D02*
X285153480Y-66085240D01*
G75*
G02*
X285353480Y-65885240I200000J0D01*
G01*
X287903480Y-65885240D01*
G75*
G02*
X288103480Y-66085240I0J-200000D01*
G01*
X288103480Y-68585240D01*
G75*
G02*
X287903480Y-68785240I-200000J0D01*
G01*
X285353480Y-68785240D01*
G75*
G02*
X285153480Y-68585240I0J200000D01*
G01*
G37*
G36*
G01*
X298080480Y-66045240D02*
X298080480Y-63545240D01*
G75*
G02*
X298280480Y-63345240I200000J0D01*
G01*
X300830480Y-63345240D01*
G75*
G02*
X301030480Y-63545240I0J-200000D01*
G01*
X301030480Y-66045240D01*
G75*
G02*
X300830480Y-66245240I-200000J0D01*
G01*
X298280480Y-66245240D01*
G75*
G02*
X298080480Y-66045240I0J200000D01*
G01*
G37*
D13*
X74796290Y-102895400D03*
D14*
X72256290Y-107975400D03*
D13*
X68446290Y-105435400D03*
D15*
X67176290Y-107975400D03*
X77336290Y-107975400D03*
G36*
G01*
X63696290Y-106685400D02*
X63696290Y-104185400D01*
G75*
G02*
X63896290Y-103985400I200000J0D01*
G01*
X66446290Y-103985400D01*
G75*
G02*
X66646290Y-104185400I0J-200000D01*
G01*
X66646290Y-106685400D01*
G75*
G02*
X66446290Y-106885400I-200000J0D01*
G01*
X63896290Y-106885400D01*
G75*
G02*
X63696290Y-106685400I0J200000D01*
G01*
G37*
G36*
G01*
X76623290Y-104145400D02*
X76623290Y-101645400D01*
G75*
G02*
X76823290Y-101445400I200000J0D01*
G01*
X79373290Y-101445400D01*
G75*
G02*
X79573290Y-101645400I0J-200000D01*
G01*
X79573290Y-104145400D01*
G75*
G02*
X79373290Y-104345400I-200000J0D01*
G01*
X76823290Y-104345400D01*
G75*
G02*
X76623290Y-104145400I0J200000D01*
G01*
G37*
G36*
G01*
X200448290Y-104145400D02*
X200448290Y-101645400D01*
G75*
G02*
X200648290Y-101445400I200000J0D01*
G01*
X203198290Y-101445400D01*
G75*
G02*
X203398290Y-101645400I0J-200000D01*
G01*
X203398290Y-104145400D01*
G75*
G02*
X203198290Y-104345400I-200000J0D01*
G01*
X200648290Y-104345400D01*
G75*
G02*
X200448290Y-104145400I0J200000D01*
G01*
G37*
G36*
G01*
X187521290Y-106685400D02*
X187521290Y-104185400D01*
G75*
G02*
X187721290Y-103985400I200000J0D01*
G01*
X190271290Y-103985400D01*
G75*
G02*
X190471290Y-104185400I0J-200000D01*
G01*
X190471290Y-106685400D01*
G75*
G02*
X190271290Y-106885400I-200000J0D01*
G01*
X187721290Y-106885400D01*
G75*
G02*
X187521290Y-106685400I0J200000D01*
G01*
G37*
X201161290Y-107975400D03*
X191001290Y-107975400D03*
D13*
X192271290Y-105435400D03*
D14*
X196081290Y-107975400D03*
D13*
X198621290Y-102895400D03*
X46221340Y-83845320D03*
D14*
X43681340Y-88925320D03*
D13*
X39871340Y-86385320D03*
D15*
X38601340Y-88925320D03*
X48761340Y-88925320D03*
G36*
G01*
X35121340Y-87635320D02*
X35121340Y-85135320D01*
G75*
G02*
X35321340Y-84935320I200000J0D01*
G01*
X37871340Y-84935320D01*
G75*
G02*
X38071340Y-85135320I0J-200000D01*
G01*
X38071340Y-87635320D01*
G75*
G02*
X37871340Y-87835320I-200000J0D01*
G01*
X35321340Y-87835320D01*
G75*
G02*
X35121340Y-87635320I0J200000D01*
G01*
G37*
G36*
G01*
X48048340Y-85095320D02*
X48048340Y-82595320D01*
G75*
G02*
X48248340Y-82395320I200000J0D01*
G01*
X50798340Y-82395320D01*
G75*
G02*
X50998340Y-82595320I0J-200000D01*
G01*
X50998340Y-85095320D01*
G75*
G02*
X50798340Y-85295320I-200000J0D01*
G01*
X48248340Y-85295320D01*
G75*
G02*
X48048340Y-85095320I0J200000D01*
G01*
G37*
D13*
X38760080Y-94005320D03*
D14*
X41300080Y-88925320D03*
D13*
X45110080Y-91465320D03*
D15*
X46380080Y-88925320D03*
X36220080Y-88925320D03*
G36*
G01*
X49860080Y-90215320D02*
X49860080Y-92715320D01*
G75*
G02*
X49660080Y-92915320I-200000J0D01*
G01*
X47110080Y-92915320D01*
G75*
G02*
X46910080Y-92715320I0J200000D01*
G01*
X46910080Y-90215320D01*
G75*
G02*
X47110080Y-90015320I200000J0D01*
G01*
X49660080Y-90015320D01*
G75*
G02*
X49860080Y-90215320I0J-200000D01*
G01*
G37*
G36*
G01*
X36933080Y-92755320D02*
X36933080Y-95255320D01*
G75*
G02*
X36733080Y-95455320I-200000J0D01*
G01*
X34183080Y-95455320D01*
G75*
G02*
X33983080Y-95255320I0J200000D01*
G01*
X33983080Y-92755320D01*
G75*
G02*
X34183080Y-92555320I200000J0D01*
G01*
X36733080Y-92555320D01*
G75*
G02*
X36933080Y-92755320I0J-200000D01*
G01*
G37*
D17*
X29362080Y-81940320D03*
X53238080Y-81940320D03*
D14*
X29362080Y-97180320D03*
X53238080Y-97180320D03*
D13*
X129565440Y-102895400D03*
D14*
X127025440Y-107975400D03*
D13*
X123215440Y-105435400D03*
D15*
X121945440Y-107975400D03*
X132105440Y-107975400D03*
G36*
G01*
X118465440Y-106685400D02*
X118465440Y-104185400D01*
G75*
G02*
X118665440Y-103985400I200000J0D01*
G01*
X121215440Y-103985400D01*
G75*
G02*
X121415440Y-104185400I0J-200000D01*
G01*
X121415440Y-106685400D01*
G75*
G02*
X121215440Y-106885400I-200000J0D01*
G01*
X118665440Y-106885400D01*
G75*
G02*
X118465440Y-106685400I0J200000D01*
G01*
G37*
G36*
G01*
X131392440Y-104145400D02*
X131392440Y-101645400D01*
G75*
G02*
X131592440Y-101445400I200000J0D01*
G01*
X134142440Y-101445400D01*
G75*
G02*
X134342440Y-101645400I0J-200000D01*
G01*
X134342440Y-104145400D01*
G75*
G02*
X134142440Y-104345400I-200000J0D01*
G01*
X131592440Y-104345400D01*
G75*
G02*
X131392440Y-104145400I0J200000D01*
G01*
G37*
D17*
X138963440Y-114960400D03*
X115087440Y-114960400D03*
D14*
X138963440Y-99720400D03*
X115087440Y-99720400D03*
G36*
G01*
X238548290Y-104145400D02*
X238548290Y-101645400D01*
G75*
G02*
X238748290Y-101445400I200000J0D01*
G01*
X241298290Y-101445400D01*
G75*
G02*
X241498290Y-101645400I0J-200000D01*
G01*
X241498290Y-104145400D01*
G75*
G02*
X241298290Y-104345400I-200000J0D01*
G01*
X238748290Y-104345400D01*
G75*
G02*
X238548290Y-104145400I0J200000D01*
G01*
G37*
G36*
G01*
X225621290Y-106685400D02*
X225621290Y-104185400D01*
G75*
G02*
X225821290Y-103985400I200000J0D01*
G01*
X228371290Y-103985400D01*
G75*
G02*
X228571290Y-104185400I0J-200000D01*
G01*
X228571290Y-106685400D01*
G75*
G02*
X228371290Y-106885400I-200000J0D01*
G01*
X225821290Y-106885400D01*
G75*
G02*
X225621290Y-106685400I0J200000D01*
G01*
G37*
D15*
X239261290Y-107975400D03*
X229101290Y-107975400D03*
D13*
X230371290Y-105435400D03*
D14*
X234181290Y-107975400D03*
D13*
X236721290Y-102895400D03*
X205765040Y-102895400D03*
D14*
X203225040Y-107975400D03*
D13*
X199415040Y-105435400D03*
D15*
X198145040Y-107975400D03*
X208305040Y-107975400D03*
G36*
G01*
X194665040Y-106685400D02*
X194665040Y-104185400D01*
G75*
G02*
X194865040Y-103985400I200000J0D01*
G01*
X197415040Y-103985400D01*
G75*
G02*
X197615040Y-104185400I0J-200000D01*
G01*
X197615040Y-106685400D01*
G75*
G02*
X197415040Y-106885400I-200000J0D01*
G01*
X194865040Y-106885400D01*
G75*
G02*
X194665040Y-106685400I0J200000D01*
G01*
G37*
G36*
G01*
X207592040Y-104145400D02*
X207592040Y-101645400D01*
G75*
G02*
X207792040Y-101445400I200000J0D01*
G01*
X210342040Y-101445400D01*
G75*
G02*
X210542040Y-101645400I0J-200000D01*
G01*
X210542040Y-104145400D01*
G75*
G02*
X210342040Y-104345400I-200000J0D01*
G01*
X207792040Y-104345400D01*
G75*
G02*
X207592040Y-104145400I0J200000D01*
G01*
G37*
D17*
X215163040Y-114960400D03*
X191287040Y-114960400D03*
D14*
X215163040Y-99720400D03*
X191287040Y-99720400D03*
G36*
G01*
X40904500Y-46995120D02*
X40904500Y-44495120D01*
G75*
G02*
X41104500Y-44295120I200000J0D01*
G01*
X43654500Y-44295120D01*
G75*
G02*
X43854500Y-44495120I0J-200000D01*
G01*
X43854500Y-46995120D01*
G75*
G02*
X43654500Y-47195120I-200000J0D01*
G01*
X41104500Y-47195120D01*
G75*
G02*
X40904500Y-46995120I0J200000D01*
G01*
G37*
G36*
G01*
X27977500Y-49535120D02*
X27977500Y-47035120D01*
G75*
G02*
X28177500Y-46835120I200000J0D01*
G01*
X30727500Y-46835120D01*
G75*
G02*
X30927500Y-47035120I0J-200000D01*
G01*
X30927500Y-49535120D01*
G75*
G02*
X30727500Y-49735120I-200000J0D01*
G01*
X28177500Y-49735120D01*
G75*
G02*
X27977500Y-49535120I0J200000D01*
G01*
G37*
D15*
X41617500Y-50825120D03*
X31457500Y-50825120D03*
D13*
X32727500Y-48285120D03*
D14*
X36537500Y-50825120D03*
D13*
X39077500Y-45745120D03*
X122104180Y-113055400D03*
D14*
X124644180Y-107975400D03*
D13*
X128454180Y-110515400D03*
D15*
X129724180Y-107975400D03*
X119564180Y-107975400D03*
G36*
G01*
X133204180Y-109265400D02*
X133204180Y-111765400D01*
G75*
G02*
X133004180Y-111965400I-200000J0D01*
G01*
X130454180Y-111965400D01*
G75*
G02*
X130254180Y-111765400I0J200000D01*
G01*
X130254180Y-109265400D01*
G75*
G02*
X130454180Y-109065400I200000J0D01*
G01*
X133004180Y-109065400D01*
G75*
G02*
X133204180Y-109265400I0J-200000D01*
G01*
G37*
G36*
G01*
X120277180Y-111805400D02*
X120277180Y-114305400D01*
G75*
G02*
X120077180Y-114505400I-200000J0D01*
G01*
X117527180Y-114505400D01*
G75*
G02*
X117327180Y-114305400I0J200000D01*
G01*
X117327180Y-111805400D01*
G75*
G02*
X117527180Y-111605400I200000J0D01*
G01*
X120077180Y-111605400D01*
G75*
G02*
X120277180Y-111805400I0J-200000D01*
G01*
G37*
D17*
X112706180Y-114960400D03*
X136582180Y-114960400D03*
D14*
X112706180Y-99720400D03*
X136582180Y-99720400D03*
G36*
G01*
X237900000Y-74150000D02*
X239600000Y-74150000D01*
G75*
G02*
X239800000Y-74350000I0J-200000D01*
G01*
X239800000Y-76050000D01*
G75*
G02*
X239600000Y-76250000I-200000J0D01*
G01*
X237900000Y-76250000D01*
G75*
G02*
X237700000Y-76050000I0J200000D01*
G01*
X237700000Y-74350000D01*
G75*
G02*
X237900000Y-74150000I200000J0D01*
G01*
G37*
D18*
X241290000Y-75200000D03*
X243830000Y-75200000D03*
D13*
X274345040Y-67335400D03*
D14*
X279425040Y-69875400D03*
D13*
X276885040Y-73685400D03*
D15*
X279425040Y-74955400D03*
X279425040Y-64795400D03*
G36*
G01*
X278135040Y-78435400D02*
X275635040Y-78435400D01*
G75*
G02*
X275435040Y-78235400I0J200000D01*
G01*
X275435040Y-75685400D01*
G75*
G02*
X275635040Y-75485400I200000J0D01*
G01*
X278135040Y-75485400D01*
G75*
G02*
X278335040Y-75685400I0J-200000D01*
G01*
X278335040Y-78235400D01*
G75*
G02*
X278135040Y-78435400I-200000J0D01*
G01*
G37*
G36*
G01*
X275595040Y-65508400D02*
X273095040Y-65508400D01*
G75*
G02*
X272895040Y-65308400I0J200000D01*
G01*
X272895040Y-62758400D01*
G75*
G02*
X273095040Y-62558400I200000J0D01*
G01*
X275595040Y-62558400D01*
G75*
G02*
X275795040Y-62758400I0J-200000D01*
G01*
X275795040Y-65308400D01*
G75*
G02*
X275595040Y-65508400I-200000J0D01*
G01*
G37*
G36*
G01*
X274267040Y-66045400D02*
X274267040Y-63545400D01*
G75*
G02*
X274467040Y-63345400I200000J0D01*
G01*
X277017040Y-63345400D01*
G75*
G02*
X277217040Y-63545400I0J-200000D01*
G01*
X277217040Y-66045400D01*
G75*
G02*
X277017040Y-66245400I-200000J0D01*
G01*
X274467040Y-66245400D01*
G75*
G02*
X274267040Y-66045400I0J200000D01*
G01*
G37*
G36*
G01*
X261340040Y-68585400D02*
X261340040Y-66085400D01*
G75*
G02*
X261540040Y-65885400I200000J0D01*
G01*
X264090040Y-65885400D01*
G75*
G02*
X264290040Y-66085400I0J-200000D01*
G01*
X264290040Y-68585400D01*
G75*
G02*
X264090040Y-68785400I-200000J0D01*
G01*
X261540040Y-68785400D01*
G75*
G02*
X261340040Y-68585400I0J200000D01*
G01*
G37*
X274980040Y-69875400D03*
X264820040Y-69875400D03*
D13*
X266090040Y-67335400D03*
D14*
X269900040Y-69875400D03*
D13*
X272440040Y-64795400D03*
G36*
G01*
X275595040Y-46458400D02*
X273095040Y-46458400D01*
G75*
G02*
X272895040Y-46258400I0J200000D01*
G01*
X272895040Y-43708400D01*
G75*
G02*
X273095040Y-43508400I200000J0D01*
G01*
X275595040Y-43508400D01*
G75*
G02*
X275795040Y-43708400I0J-200000D01*
G01*
X275795040Y-46258400D01*
G75*
G02*
X275595040Y-46458400I-200000J0D01*
G01*
G37*
G36*
G01*
X278135040Y-59385400D02*
X275635040Y-59385400D01*
G75*
G02*
X275435040Y-59185400I0J200000D01*
G01*
X275435040Y-56635400D01*
G75*
G02*
X275635040Y-56435400I200000J0D01*
G01*
X278135040Y-56435400D01*
G75*
G02*
X278335040Y-56635400I0J-200000D01*
G01*
X278335040Y-59185400D01*
G75*
G02*
X278135040Y-59385400I-200000J0D01*
G01*
G37*
D15*
X279425040Y-45745400D03*
X279425040Y-55905400D03*
D13*
X276885040Y-54635400D03*
D14*
X279425040Y-50825400D03*
D13*
X274345040Y-48285400D03*
G36*
G01*
X294108040Y-54655400D02*
X294108040Y-57155400D01*
G75*
G02*
X293908040Y-57355400I-200000J0D01*
G01*
X291358040Y-57355400D01*
G75*
G02*
X291158040Y-57155400I0J200000D01*
G01*
X291158040Y-54655400D01*
G75*
G02*
X291358040Y-54455400I200000J0D01*
G01*
X293908040Y-54455400D01*
G75*
G02*
X294108040Y-54655400I0J-200000D01*
G01*
G37*
G36*
G01*
X307035040Y-52115400D02*
X307035040Y-54615400D01*
G75*
G02*
X306835040Y-54815400I-200000J0D01*
G01*
X304285040Y-54815400D01*
G75*
G02*
X304085040Y-54615400I0J200000D01*
G01*
X304085040Y-52115400D01*
G75*
G02*
X304285040Y-51915400I200000J0D01*
G01*
X306835040Y-51915400D01*
G75*
G02*
X307035040Y-52115400I0J-200000D01*
G01*
G37*
D15*
X293395040Y-50825400D03*
X303555040Y-50825400D03*
D13*
X302285040Y-53365400D03*
D14*
X298475040Y-50825400D03*
D13*
X295935040Y-55905400D03*
G36*
G01*
X188542040Y-85095400D02*
X188542040Y-82595400D01*
G75*
G02*
X188742040Y-82395400I200000J0D01*
G01*
X191292040Y-82395400D01*
G75*
G02*
X191492040Y-82595400I0J-200000D01*
G01*
X191492040Y-85095400D01*
G75*
G02*
X191292040Y-85295400I-200000J0D01*
G01*
X188742040Y-85295400D01*
G75*
G02*
X188542040Y-85095400I0J200000D01*
G01*
G37*
G36*
G01*
X175615040Y-87635400D02*
X175615040Y-85135400D01*
G75*
G02*
X175815040Y-84935400I200000J0D01*
G01*
X178365040Y-84935400D01*
G75*
G02*
X178565040Y-85135400I0J-200000D01*
G01*
X178565040Y-87635400D01*
G75*
G02*
X178365040Y-87835400I-200000J0D01*
G01*
X175815040Y-87835400D01*
G75*
G02*
X175615040Y-87635400I0J200000D01*
G01*
G37*
D15*
X189255040Y-88925400D03*
X179095040Y-88925400D03*
D13*
X180365040Y-86385400D03*
D14*
X184175040Y-88925400D03*
D13*
X186715040Y-83845400D03*
X288791290Y-55905400D03*
D14*
X291331290Y-50825400D03*
D13*
X295141290Y-53365400D03*
D15*
X296411290Y-50825400D03*
X286251290Y-50825400D03*
G36*
G01*
X299891290Y-52115400D02*
X299891290Y-54615400D01*
G75*
G02*
X299691290Y-54815400I-200000J0D01*
G01*
X297141290Y-54815400D01*
G75*
G02*
X296941290Y-54615400I0J200000D01*
G01*
X296941290Y-52115400D01*
G75*
G02*
X297141290Y-51915400I200000J0D01*
G01*
X299691290Y-51915400D01*
G75*
G02*
X299891290Y-52115400I0J-200000D01*
G01*
G37*
G36*
G01*
X286964290Y-54655400D02*
X286964290Y-57155400D01*
G75*
G02*
X286764290Y-57355400I-200000J0D01*
G01*
X284214290Y-57355400D01*
G75*
G02*
X284014290Y-57155400I0J200000D01*
G01*
X284014290Y-54655400D01*
G75*
G02*
X284214290Y-54455400I200000J0D01*
G01*
X286764290Y-54455400D01*
G75*
G02*
X286964290Y-54655400I0J-200000D01*
G01*
G37*
G36*
G01*
X251245540Y-54655400D02*
X251245540Y-57155400D01*
G75*
G02*
X251045540Y-57355400I-200000J0D01*
G01*
X248495540Y-57355400D01*
G75*
G02*
X248295540Y-57155400I0J200000D01*
G01*
X248295540Y-54655400D01*
G75*
G02*
X248495540Y-54455400I200000J0D01*
G01*
X251045540Y-54455400D01*
G75*
G02*
X251245540Y-54655400I0J-200000D01*
G01*
G37*
G36*
G01*
X264172540Y-52115400D02*
X264172540Y-54615400D01*
G75*
G02*
X263972540Y-54815400I-200000J0D01*
G01*
X261422540Y-54815400D01*
G75*
G02*
X261222540Y-54615400I0J200000D01*
G01*
X261222540Y-52115400D01*
G75*
G02*
X261422540Y-51915400I200000J0D01*
G01*
X263972540Y-51915400D01*
G75*
G02*
X264172540Y-52115400I0J-200000D01*
G01*
G37*
X250532540Y-50825400D03*
X260692540Y-50825400D03*
D13*
X259422540Y-53365400D03*
D14*
X255612540Y-50825400D03*
D13*
X253072540Y-55905400D03*
G36*
G01*
X169492040Y-85095400D02*
X169492040Y-82595400D01*
G75*
G02*
X169692040Y-82395400I200000J0D01*
G01*
X172242040Y-82395400D01*
G75*
G02*
X172442040Y-82595400I0J-200000D01*
G01*
X172442040Y-85095400D01*
G75*
G02*
X172242040Y-85295400I-200000J0D01*
G01*
X169692040Y-85295400D01*
G75*
G02*
X169492040Y-85095400I0J200000D01*
G01*
G37*
G36*
G01*
X156565040Y-87635400D02*
X156565040Y-85135400D01*
G75*
G02*
X156765040Y-84935400I200000J0D01*
G01*
X159315040Y-84935400D01*
G75*
G02*
X159515040Y-85135400I0J-200000D01*
G01*
X159515040Y-87635400D01*
G75*
G02*
X159315040Y-87835400I-200000J0D01*
G01*
X156765040Y-87835400D01*
G75*
G02*
X156565040Y-87635400I0J200000D01*
G01*
G37*
D15*
X170205040Y-88925400D03*
X160045040Y-88925400D03*
D13*
X161315040Y-86385400D03*
D14*
X165125040Y-88925400D03*
D13*
X167665040Y-83845400D03*
X158140040Y-102895400D03*
D14*
X155600040Y-107975400D03*
D13*
X151790040Y-105435400D03*
D15*
X150520040Y-107975400D03*
X160680040Y-107975400D03*
G36*
G01*
X147040040Y-106685400D02*
X147040040Y-104185400D01*
G75*
G02*
X147240040Y-103985400I200000J0D01*
G01*
X149790040Y-103985400D01*
G75*
G02*
X149990040Y-104185400I0J-200000D01*
G01*
X149990040Y-106685400D01*
G75*
G02*
X149790040Y-106885400I-200000J0D01*
G01*
X147240040Y-106885400D01*
G75*
G02*
X147040040Y-106685400I0J200000D01*
G01*
G37*
G36*
G01*
X159967040Y-104145400D02*
X159967040Y-101645400D01*
G75*
G02*
X160167040Y-101445400I200000J0D01*
G01*
X162717040Y-101445400D01*
G75*
G02*
X162917040Y-101645400I0J-200000D01*
G01*
X162917040Y-104145400D01*
G75*
G02*
X162717040Y-104345400I-200000J0D01*
G01*
X160167040Y-104345400D01*
G75*
G02*
X159967040Y-104145400I0J200000D01*
G01*
G37*
D13*
X177190040Y-102895400D03*
D14*
X174650040Y-107975400D03*
D13*
X170840040Y-105435400D03*
D15*
X169570040Y-107975400D03*
X179730040Y-107975400D03*
G36*
G01*
X166090040Y-106685400D02*
X166090040Y-104185400D01*
G75*
G02*
X166290040Y-103985400I200000J0D01*
G01*
X168840040Y-103985400D01*
G75*
G02*
X169040040Y-104185400I0J-200000D01*
G01*
X169040040Y-106685400D01*
G75*
G02*
X168840040Y-106885400I-200000J0D01*
G01*
X166290040Y-106885400D01*
G75*
G02*
X166090040Y-106685400I0J200000D01*
G01*
G37*
G36*
G01*
X179017040Y-104145400D02*
X179017040Y-101645400D01*
G75*
G02*
X179217040Y-101445400I200000J0D01*
G01*
X181767040Y-101445400D01*
G75*
G02*
X181967040Y-101645400I0J-200000D01*
G01*
X181967040Y-104145400D01*
G75*
G02*
X181767040Y-104345400I-200000J0D01*
G01*
X179217040Y-104345400D01*
G75*
G02*
X179017040Y-104145400I0J200000D01*
G01*
G37*
D13*
X41458820Y-64795240D03*
D14*
X38918820Y-69875240D03*
D13*
X35108820Y-67335240D03*
D15*
X33838820Y-69875240D03*
X43998820Y-69875240D03*
G36*
G01*
X30358820Y-68585240D02*
X30358820Y-66085240D01*
G75*
G02*
X30558820Y-65885240I200000J0D01*
G01*
X33108820Y-65885240D01*
G75*
G02*
X33308820Y-66085240I0J-200000D01*
G01*
X33308820Y-68585240D01*
G75*
G02*
X33108820Y-68785240I-200000J0D01*
G01*
X30558820Y-68785240D01*
G75*
G02*
X30358820Y-68585240I0J200000D01*
G01*
G37*
G36*
G01*
X43285820Y-66045240D02*
X43285820Y-63545240D01*
G75*
G02*
X43485820Y-63345240I200000J0D01*
G01*
X46035820Y-63345240D01*
G75*
G02*
X46235820Y-63545240I0J-200000D01*
G01*
X46235820Y-66045240D01*
G75*
G02*
X46035820Y-66245240I-200000J0D01*
G01*
X43485820Y-66245240D01*
G75*
G02*
X43285820Y-66045240I0J200000D01*
G01*
G37*
D13*
X33997540Y-74955400D03*
D14*
X36537540Y-69875400D03*
D13*
X40347540Y-72415400D03*
D15*
X41617540Y-69875400D03*
X31457540Y-69875400D03*
G36*
G01*
X45097540Y-71165400D02*
X45097540Y-73665400D01*
G75*
G02*
X44897540Y-73865400I-200000J0D01*
G01*
X42347540Y-73865400D01*
G75*
G02*
X42147540Y-73665400I0J200000D01*
G01*
X42147540Y-71165400D01*
G75*
G02*
X42347540Y-70965400I200000J0D01*
G01*
X44897540Y-70965400D01*
G75*
G02*
X45097540Y-71165400I0J-200000D01*
G01*
G37*
G36*
G01*
X32170540Y-73705400D02*
X32170540Y-76205400D01*
G75*
G02*
X31970540Y-76405400I-200000J0D01*
G01*
X29420540Y-76405400D01*
G75*
G02*
X29220540Y-76205400I0J200000D01*
G01*
X29220540Y-73705400D01*
G75*
G02*
X29420540Y-73505400I200000J0D01*
G01*
X31970540Y-73505400D01*
G75*
G02*
X32170540Y-73705400I0J-200000D01*
G01*
G37*
G36*
G01*
X286964290Y-73705400D02*
X286964290Y-76205400D01*
G75*
G02*
X286764290Y-76405400I-200000J0D01*
G01*
X284214290Y-76405400D01*
G75*
G02*
X284014290Y-76205400I0J200000D01*
G01*
X284014290Y-73705400D01*
G75*
G02*
X284214290Y-73505400I200000J0D01*
G01*
X286764290Y-73505400D01*
G75*
G02*
X286964290Y-73705400I0J-200000D01*
G01*
G37*
G36*
G01*
X299891290Y-71165400D02*
X299891290Y-73665400D01*
G75*
G02*
X299691290Y-73865400I-200000J0D01*
G01*
X297141290Y-73865400D01*
G75*
G02*
X296941290Y-73665400I0J200000D01*
G01*
X296941290Y-71165400D01*
G75*
G02*
X297141290Y-70965400I200000J0D01*
G01*
X299691290Y-70965400D01*
G75*
G02*
X299891290Y-71165400I0J-200000D01*
G01*
G37*
X286251290Y-69875400D03*
X296411290Y-69875400D03*
D13*
X295141290Y-72415400D03*
D14*
X291331290Y-69875400D03*
D13*
X288791290Y-74955400D03*
X253072540Y-74955400D03*
D14*
X255612540Y-69875400D03*
D13*
X259422540Y-72415400D03*
D15*
X260692540Y-69875400D03*
X250532540Y-69875400D03*
G36*
G01*
X264172540Y-71165400D02*
X264172540Y-73665400D01*
G75*
G02*
X263972540Y-73865400I-200000J0D01*
G01*
X261422540Y-73865400D01*
G75*
G02*
X261222540Y-73665400I0J200000D01*
G01*
X261222540Y-71165400D01*
G75*
G02*
X261422540Y-70965400I200000J0D01*
G01*
X263972540Y-70965400D01*
G75*
G02*
X264172540Y-71165400I0J-200000D01*
G01*
G37*
G36*
G01*
X251245540Y-73705400D02*
X251245540Y-76205400D01*
G75*
G02*
X251045540Y-76405400I-200000J0D01*
G01*
X248495540Y-76405400D01*
G75*
G02*
X248295540Y-76205400I0J200000D01*
G01*
X248295540Y-73705400D01*
G75*
G02*
X248495540Y-73505400I200000J0D01*
G01*
X251045540Y-73505400D01*
G75*
G02*
X251245540Y-73705400I0J-200000D01*
G01*
G37*
G36*
G01*
X55192040Y-104145400D02*
X55192040Y-101645400D01*
G75*
G02*
X55392040Y-101445400I200000J0D01*
G01*
X57942040Y-101445400D01*
G75*
G02*
X58142040Y-101645400I0J-200000D01*
G01*
X58142040Y-104145400D01*
G75*
G02*
X57942040Y-104345400I-200000J0D01*
G01*
X55392040Y-104345400D01*
G75*
G02*
X55192040Y-104145400I0J200000D01*
G01*
G37*
G36*
G01*
X42265040Y-106685400D02*
X42265040Y-104185400D01*
G75*
G02*
X42465040Y-103985400I200000J0D01*
G01*
X45015040Y-103985400D01*
G75*
G02*
X45215040Y-104185400I0J-200000D01*
G01*
X45215040Y-106685400D01*
G75*
G02*
X45015040Y-106885400I-200000J0D01*
G01*
X42465040Y-106885400D01*
G75*
G02*
X42265040Y-106685400I0J200000D01*
G01*
G37*
X55905040Y-107975400D03*
X45745040Y-107975400D03*
D13*
X47015040Y-105435400D03*
D14*
X50825040Y-107975400D03*
D13*
X53365040Y-102895400D03*
G36*
G01*
X89320540Y-111805400D02*
X89320540Y-114305400D01*
G75*
G02*
X89120540Y-114505400I-200000J0D01*
G01*
X86570540Y-114505400D01*
G75*
G02*
X86370540Y-114305400I0J200000D01*
G01*
X86370540Y-111805400D01*
G75*
G02*
X86570540Y-111605400I200000J0D01*
G01*
X89120540Y-111605400D01*
G75*
G02*
X89320540Y-111805400I0J-200000D01*
G01*
G37*
G36*
G01*
X102247540Y-109265400D02*
X102247540Y-111765400D01*
G75*
G02*
X102047540Y-111965400I-200000J0D01*
G01*
X99497540Y-111965400D01*
G75*
G02*
X99297540Y-111765400I0J200000D01*
G01*
X99297540Y-109265400D01*
G75*
G02*
X99497540Y-109065400I200000J0D01*
G01*
X102047540Y-109065400D01*
G75*
G02*
X102247540Y-109265400I0J-200000D01*
G01*
G37*
D15*
X88607540Y-107975400D03*
X98767540Y-107975400D03*
D13*
X97497540Y-110515400D03*
D14*
X93687540Y-107975400D03*
D13*
X91147540Y-113055400D03*
X257835040Y-113055400D03*
D14*
X260375040Y-107975400D03*
D13*
X264185040Y-110515400D03*
D15*
X265455040Y-107975400D03*
X255295040Y-107975400D03*
G36*
G01*
X268935040Y-109265400D02*
X268935040Y-111765400D01*
G75*
G02*
X268735040Y-111965400I-200000J0D01*
G01*
X266185040Y-111965400D01*
G75*
G02*
X265985040Y-111765400I0J200000D01*
G01*
X265985040Y-109265400D01*
G75*
G02*
X266185040Y-109065400I200000J0D01*
G01*
X268735040Y-109065400D01*
G75*
G02*
X268935040Y-109265400I0J-200000D01*
G01*
G37*
G36*
G01*
X256008040Y-111805400D02*
X256008040Y-114305400D01*
G75*
G02*
X255808040Y-114505400I-200000J0D01*
G01*
X253258040Y-114505400D01*
G75*
G02*
X253058040Y-114305400I0J200000D01*
G01*
X253058040Y-111805400D01*
G75*
G02*
X253258040Y-111605400I200000J0D01*
G01*
X255808040Y-111605400D01*
G75*
G02*
X256008040Y-111805400I0J-200000D01*
G01*
G37*
D13*
X295935040Y-74955400D03*
D14*
X298475040Y-69875400D03*
D13*
X302285040Y-72415400D03*
D15*
X303555040Y-69875400D03*
X293395040Y-69875400D03*
G36*
G01*
X307035040Y-71165400D02*
X307035040Y-73665400D01*
G75*
G02*
X306835040Y-73865400I-200000J0D01*
G01*
X304285040Y-73865400D01*
G75*
G02*
X304085040Y-73665400I0J200000D01*
G01*
X304085040Y-71165400D01*
G75*
G02*
X304285040Y-70965400I200000J0D01*
G01*
X306835040Y-70965400D01*
G75*
G02*
X307035040Y-71165400I0J-200000D01*
G01*
G37*
G36*
G01*
X294108040Y-73705400D02*
X294108040Y-76205400D01*
G75*
G02*
X293908040Y-76405400I-200000J0D01*
G01*
X291358040Y-76405400D01*
G75*
G02*
X291158040Y-76205400I0J200000D01*
G01*
X291158040Y-73705400D01*
G75*
G02*
X291358040Y-73505400I200000J0D01*
G01*
X293908040Y-73505400D01*
G75*
G02*
X294108040Y-73705400I0J-200000D01*
G01*
G37*
D13*
X234022540Y-113055400D03*
D14*
X236562540Y-107975400D03*
D13*
X240372540Y-110515400D03*
D15*
X241642540Y-107975400D03*
X231482540Y-107975400D03*
G36*
G01*
X245122540Y-109265400D02*
X245122540Y-111765400D01*
G75*
G02*
X244922540Y-111965400I-200000J0D01*
G01*
X242372540Y-111965400D01*
G75*
G02*
X242172540Y-111765400I0J200000D01*
G01*
X242172540Y-109265400D01*
G75*
G02*
X242372540Y-109065400I200000J0D01*
G01*
X244922540Y-109065400D01*
G75*
G02*
X245122540Y-109265400I0J-200000D01*
G01*
G37*
G36*
G01*
X232195540Y-111805400D02*
X232195540Y-114305400D01*
G75*
G02*
X231995540Y-114505400I-200000J0D01*
G01*
X229445540Y-114505400D01*
G75*
G02*
X229245540Y-114305400I0J200000D01*
G01*
X229245540Y-111805400D01*
G75*
G02*
X229445540Y-111605400I200000J0D01*
G01*
X231995540Y-111605400D01*
G75*
G02*
X232195540Y-111805400I0J-200000D01*
G01*
G37*
D13*
X196240040Y-45745400D03*
D14*
X193700040Y-50825400D03*
D13*
X189890040Y-48285400D03*
D15*
X188620040Y-50825400D03*
X198780040Y-50825400D03*
G36*
G01*
X185140040Y-49535400D02*
X185140040Y-47035400D01*
G75*
G02*
X185340040Y-46835400I200000J0D01*
G01*
X187890040Y-46835400D01*
G75*
G02*
X188090040Y-47035400I0J-200000D01*
G01*
X188090040Y-49535400D01*
G75*
G02*
X187890040Y-49735400I-200000J0D01*
G01*
X185340040Y-49735400D01*
G75*
G02*
X185140040Y-49535400I0J200000D01*
G01*
G37*
G36*
G01*
X198067040Y-46995400D02*
X198067040Y-44495400D01*
G75*
G02*
X198267040Y-44295400I200000J0D01*
G01*
X200817040Y-44295400D01*
G75*
G02*
X201017040Y-44495400I0J-200000D01*
G01*
X201017040Y-46995400D01*
G75*
G02*
X200817040Y-47195400I-200000J0D01*
G01*
X198267040Y-47195400D01*
G75*
G02*
X198067040Y-46995400I0J200000D01*
G01*
G37*
G36*
G01*
X271750000Y-35200000D02*
X272950000Y-35200000D01*
G75*
G02*
X273150000Y-35400000I0J-200000D01*
G01*
X273150000Y-36300000D01*
G75*
G02*
X272950000Y-36500000I-200000J0D01*
G01*
X271750000Y-36500000D01*
G75*
G02*
X271550000Y-36300000I0J200000D01*
G01*
X271550000Y-35400000D01*
G75*
G02*
X271750000Y-35200000I200000J0D01*
G01*
G37*
G36*
G01*
X271750000Y-38500000D02*
X272950000Y-38500000D01*
G75*
G02*
X273150000Y-38700000I0J-200000D01*
G01*
X273150000Y-39600000D01*
G75*
G02*
X272950000Y-39800000I-200000J0D01*
G01*
X271750000Y-39800000D01*
G75*
G02*
X271550000Y-39600000I0J200000D01*
G01*
X271550000Y-38700000D01*
G75*
G02*
X271750000Y-38500000I200000J0D01*
G01*
G37*
G36*
G01*
X268200000Y-55500000D02*
X267000000Y-55500000D01*
G75*
G02*
X266800000Y-55300000I0J200000D01*
G01*
X266800000Y-54400000D01*
G75*
G02*
X267000000Y-54200000I200000J0D01*
G01*
X268200000Y-54200000D01*
G75*
G02*
X268400000Y-54400000I0J-200000D01*
G01*
X268400000Y-55300000D01*
G75*
G02*
X268200000Y-55500000I-200000J0D01*
G01*
G37*
G36*
G01*
X268200000Y-58800000D02*
X267000000Y-58800000D01*
G75*
G02*
X266800000Y-58600000I0J200000D01*
G01*
X266800000Y-57700000D01*
G75*
G02*
X267000000Y-57500000I200000J0D01*
G01*
X268200000Y-57500000D01*
G75*
G02*
X268400000Y-57700000I0J-200000D01*
G01*
X268400000Y-58600000D01*
G75*
G02*
X268200000Y-58800000I-200000J0D01*
G01*
G37*
G36*
G01*
X205050000Y-51000040D02*
X206250000Y-51000040D01*
G75*
G02*
X206450000Y-51200040I0J-200000D01*
G01*
X206450000Y-52100040D01*
G75*
G02*
X206250000Y-52300040I-200000J0D01*
G01*
X205050000Y-52300040D01*
G75*
G02*
X204850000Y-52100040I0J200000D01*
G01*
X204850000Y-51200040D01*
G75*
G02*
X205050000Y-51000040I200000J0D01*
G01*
G37*
G36*
G01*
X205050000Y-54300040D02*
X206250000Y-54300040D01*
G75*
G02*
X206450000Y-54500040I0J-200000D01*
G01*
X206450000Y-55400040D01*
G75*
G02*
X206250000Y-55600040I-200000J0D01*
G01*
X205050000Y-55600040D01*
G75*
G02*
X204850000Y-55400040I0J200000D01*
G01*
X204850000Y-54500040D01*
G75*
G02*
X205050000Y-54300040I200000J0D01*
G01*
G37*
G36*
G01*
X176500000Y-36900000D02*
X177700000Y-36900000D01*
G75*
G02*
X177900000Y-37100000I0J-200000D01*
G01*
X177900000Y-38000000D01*
G75*
G02*
X177700000Y-38200000I-200000J0D01*
G01*
X176500000Y-38200000D01*
G75*
G02*
X176300000Y-38000000I0J200000D01*
G01*
X176300000Y-37100000D01*
G75*
G02*
X176500000Y-36900000I200000J0D01*
G01*
G37*
G36*
G01*
X176500000Y-33600000D02*
X177700000Y-33600000D01*
G75*
G02*
X177900000Y-33800000I0J-200000D01*
G01*
X177900000Y-34700000D01*
G75*
G02*
X177700000Y-34900000I-200000J0D01*
G01*
X176500000Y-34900000D01*
G75*
G02*
X176300000Y-34700000I0J200000D01*
G01*
X176300000Y-33800000D01*
G75*
G02*
X176500000Y-33600000I200000J0D01*
G01*
G37*
G36*
G01*
X166975000Y-56000000D02*
X168175000Y-56000000D01*
G75*
G02*
X168375000Y-56200000I0J-200000D01*
G01*
X168375000Y-57100000D01*
G75*
G02*
X168175000Y-57300000I-200000J0D01*
G01*
X166975000Y-57300000D01*
G75*
G02*
X166775000Y-57100000I0J200000D01*
G01*
X166775000Y-56200000D01*
G75*
G02*
X166975000Y-56000000I200000J0D01*
G01*
G37*
G36*
G01*
X166975000Y-52700000D02*
X168175000Y-52700000D01*
G75*
G02*
X168375000Y-52900000I0J-200000D01*
G01*
X168375000Y-53800000D01*
G75*
G02*
X168175000Y-54000000I-200000J0D01*
G01*
X166975000Y-54000000D01*
G75*
G02*
X166775000Y-53800000I0J200000D01*
G01*
X166775000Y-52900000D01*
G75*
G02*
X166975000Y-52700000I200000J0D01*
G01*
G37*
G36*
G01*
X119300000Y-34450040D02*
X120500000Y-34450040D01*
G75*
G02*
X120700000Y-34650040I0J-200000D01*
G01*
X120700000Y-35550040D01*
G75*
G02*
X120500000Y-35750040I-200000J0D01*
G01*
X119300000Y-35750040D01*
G75*
G02*
X119100000Y-35550040I0J200000D01*
G01*
X119100000Y-34650040D01*
G75*
G02*
X119300000Y-34450040I200000J0D01*
G01*
G37*
G36*
G01*
X119300000Y-37750040D02*
X120500000Y-37750040D01*
G75*
G02*
X120700000Y-37950040I0J-200000D01*
G01*
X120700000Y-38850040D01*
G75*
G02*
X120500000Y-39050040I-200000J0D01*
G01*
X119300000Y-39050040D01*
G75*
G02*
X119100000Y-38850040I0J200000D01*
G01*
X119100000Y-37950040D01*
G75*
G02*
X119300000Y-37750040I200000J0D01*
G01*
G37*
G36*
G01*
X91100000Y-96350040D02*
X89900000Y-96350040D01*
G75*
G02*
X89700000Y-96150040I0J200000D01*
G01*
X89700000Y-95250040D01*
G75*
G02*
X89900000Y-95050040I200000J0D01*
G01*
X91100000Y-95050040D01*
G75*
G02*
X91300000Y-95250040I0J-200000D01*
G01*
X91300000Y-96150040D01*
G75*
G02*
X91100000Y-96350040I-200000J0D01*
G01*
G37*
G36*
G01*
X91100000Y-93050040D02*
X89900000Y-93050040D01*
G75*
G02*
X89700000Y-92850040I0J200000D01*
G01*
X89700000Y-91950040D01*
G75*
G02*
X89900000Y-91750040I200000J0D01*
G01*
X91100000Y-91750040D01*
G75*
G02*
X91300000Y-91950040I0J-200000D01*
G01*
X91300000Y-92850040D01*
G75*
G02*
X91100000Y-93050040I-200000J0D01*
G01*
G37*
G36*
G01*
X84400000Y-90950040D02*
X85600000Y-90950040D01*
G75*
G02*
X85800000Y-91150040I0J-200000D01*
G01*
X85800000Y-92050040D01*
G75*
G02*
X85600000Y-92250040I-200000J0D01*
G01*
X84400000Y-92250040D01*
G75*
G02*
X84200000Y-92050040I0J200000D01*
G01*
X84200000Y-91150040D01*
G75*
G02*
X84400000Y-90950040I200000J0D01*
G01*
G37*
G36*
G01*
X84400000Y-94250040D02*
X85600000Y-94250040D01*
G75*
G02*
X85800000Y-94450040I0J-200000D01*
G01*
X85800000Y-95350040D01*
G75*
G02*
X85600000Y-95550040I-200000J0D01*
G01*
X84400000Y-95550040D01*
G75*
G02*
X84200000Y-95350040I0J200000D01*
G01*
X84200000Y-94450040D01*
G75*
G02*
X84400000Y-94250040I200000J0D01*
G01*
G37*
G36*
G01*
X36800000Y-113400000D02*
X38000000Y-113400000D01*
G75*
G02*
X38200000Y-113600000I0J-200000D01*
G01*
X38200000Y-114500000D01*
G75*
G02*
X38000000Y-114700000I-200000J0D01*
G01*
X36800000Y-114700000D01*
G75*
G02*
X36600000Y-114500000I0J200000D01*
G01*
X36600000Y-113600000D01*
G75*
G02*
X36800000Y-113400000I200000J0D01*
G01*
G37*
G36*
G01*
X36800000Y-110100000D02*
X38000000Y-110100000D01*
G75*
G02*
X38200000Y-110300000I0J-200000D01*
G01*
X38200000Y-111200000D01*
G75*
G02*
X38000000Y-111400000I-200000J0D01*
G01*
X36800000Y-111400000D01*
G75*
G02*
X36600000Y-111200000I0J200000D01*
G01*
X36600000Y-110300000D01*
G75*
G02*
X36800000Y-110100000I200000J0D01*
G01*
G37*
G36*
G01*
X54400000Y-111400000D02*
X53200000Y-111400000D01*
G75*
G02*
X53000000Y-111200000I0J200000D01*
G01*
X53000000Y-110300000D01*
G75*
G02*
X53200000Y-110100000I200000J0D01*
G01*
X54400000Y-110100000D01*
G75*
G02*
X54600000Y-110300000I0J-200000D01*
G01*
X54600000Y-111200000D01*
G75*
G02*
X54400000Y-111400000I-200000J0D01*
G01*
G37*
G36*
G01*
X54400000Y-114700000D02*
X53200000Y-114700000D01*
G75*
G02*
X53000000Y-114500000I0J200000D01*
G01*
X53000000Y-113600000D01*
G75*
G02*
X53200000Y-113400000I200000J0D01*
G01*
X54400000Y-113400000D01*
G75*
G02*
X54600000Y-113600000I0J-200000D01*
G01*
X54600000Y-114500000D01*
G75*
G02*
X54400000Y-114700000I-200000J0D01*
G01*
G37*
G36*
G01*
X191850000Y-39050040D02*
X190650000Y-39050040D01*
G75*
G02*
X190450000Y-38850040I0J200000D01*
G01*
X190450000Y-37950040D01*
G75*
G02*
X190650000Y-37750040I200000J0D01*
G01*
X191850000Y-37750040D01*
G75*
G02*
X192050000Y-37950040I0J-200000D01*
G01*
X192050000Y-38850040D01*
G75*
G02*
X191850000Y-39050040I-200000J0D01*
G01*
G37*
G36*
G01*
X191850000Y-35750040D02*
X190650000Y-35750040D01*
G75*
G02*
X190450000Y-35550040I0J200000D01*
G01*
X190450000Y-34650040D01*
G75*
G02*
X190650000Y-34450040I200000J0D01*
G01*
X191850000Y-34450040D01*
G75*
G02*
X192050000Y-34650040I0J-200000D01*
G01*
X192050000Y-35550040D01*
G75*
G02*
X191850000Y-35750040I-200000J0D01*
G01*
G37*
G36*
G01*
X268000000Y-34900040D02*
X266800000Y-34900040D01*
G75*
G02*
X266600000Y-34700040I0J200000D01*
G01*
X266600000Y-33800040D01*
G75*
G02*
X266800000Y-33600040I200000J0D01*
G01*
X268000000Y-33600040D01*
G75*
G02*
X268200000Y-33800040I0J-200000D01*
G01*
X268200000Y-34700040D01*
G75*
G02*
X268000000Y-34900040I-200000J0D01*
G01*
G37*
G36*
G01*
X268000000Y-38200040D02*
X266800000Y-38200040D01*
G75*
G02*
X266600000Y-38000040I0J200000D01*
G01*
X266600000Y-37100040D01*
G75*
G02*
X266800000Y-36900040I200000J0D01*
G01*
X268000000Y-36900040D01*
G75*
G02*
X268200000Y-37100040I0J-200000D01*
G01*
X268200000Y-38000040D01*
G75*
G02*
X268000000Y-38200040I-200000J0D01*
G01*
G37*
G36*
G01*
X229900000Y-39050040D02*
X228700000Y-39050040D01*
G75*
G02*
X228500000Y-38850040I0J200000D01*
G01*
X228500000Y-37950040D01*
G75*
G02*
X228700000Y-37750040I200000J0D01*
G01*
X229900000Y-37750040D01*
G75*
G02*
X230100000Y-37950040I0J-200000D01*
G01*
X230100000Y-38850040D01*
G75*
G02*
X229900000Y-39050040I-200000J0D01*
G01*
G37*
G36*
G01*
X229900000Y-35750040D02*
X228700000Y-35750040D01*
G75*
G02*
X228500000Y-35550040I0J200000D01*
G01*
X228500000Y-34650040D01*
G75*
G02*
X228700000Y-34450040I200000J0D01*
G01*
X229900000Y-34450040D01*
G75*
G02*
X230100000Y-34650040I0J-200000D01*
G01*
X230100000Y-35550040D01*
G75*
G02*
X229900000Y-35750040I-200000J0D01*
G01*
G37*
G36*
G01*
X211175000Y-38200040D02*
X209975000Y-38200040D01*
G75*
G02*
X209775000Y-38000040I0J200000D01*
G01*
X209775000Y-37100040D01*
G75*
G02*
X209975000Y-36900040I200000J0D01*
G01*
X211175000Y-36900040D01*
G75*
G02*
X211375000Y-37100040I0J-200000D01*
G01*
X211375000Y-38000040D01*
G75*
G02*
X211175000Y-38200040I-200000J0D01*
G01*
G37*
G36*
G01*
X211175000Y-34900040D02*
X209975000Y-34900040D01*
G75*
G02*
X209775000Y-34700040I0J200000D01*
G01*
X209775000Y-33800040D01*
G75*
G02*
X209975000Y-33600040I200000J0D01*
G01*
X211175000Y-33600040D01*
G75*
G02*
X211375000Y-33800040I0J-200000D01*
G01*
X211375000Y-34700040D01*
G75*
G02*
X211175000Y-34900040I-200000J0D01*
G01*
G37*
G36*
G01*
X135000000Y-38200040D02*
X133800000Y-38200040D01*
G75*
G02*
X133600000Y-38000040I0J200000D01*
G01*
X133600000Y-37100040D01*
G75*
G02*
X133800000Y-36900040I200000J0D01*
G01*
X135000000Y-36900040D01*
G75*
G02*
X135200000Y-37100040I0J-200000D01*
G01*
X135200000Y-38000040D01*
G75*
G02*
X135000000Y-38200040I-200000J0D01*
G01*
G37*
G36*
G01*
X135000000Y-34900040D02*
X133800000Y-34900040D01*
G75*
G02*
X133600000Y-34700040I0J200000D01*
G01*
X133600000Y-33800040D01*
G75*
G02*
X133800000Y-33600040I200000J0D01*
G01*
X135000000Y-33600040D01*
G75*
G02*
X135200000Y-33800040I0J-200000D01*
G01*
X135200000Y-34700040D01*
G75*
G02*
X135000000Y-34900040I-200000J0D01*
G01*
G37*
G36*
G01*
X96900000Y-38200040D02*
X95700000Y-38200040D01*
G75*
G02*
X95500000Y-38000040I0J200000D01*
G01*
X95500000Y-37100040D01*
G75*
G02*
X95700000Y-36900040I200000J0D01*
G01*
X96900000Y-36900040D01*
G75*
G02*
X97100000Y-37100040I0J-200000D01*
G01*
X97100000Y-38000040D01*
G75*
G02*
X96900000Y-38200040I-200000J0D01*
G01*
G37*
G36*
G01*
X96900000Y-34900040D02*
X95700000Y-34900040D01*
G75*
G02*
X95500000Y-34700040I0J200000D01*
G01*
X95500000Y-33800040D01*
G75*
G02*
X95700000Y-33600040I200000J0D01*
G01*
X96900000Y-33600040D01*
G75*
G02*
X97100000Y-33800040I0J-200000D01*
G01*
X97100000Y-34700040D01*
G75*
G02*
X96900000Y-34900040I-200000J0D01*
G01*
G37*
G36*
G01*
X77500000Y-39050040D02*
X76300000Y-39050040D01*
G75*
G02*
X76100000Y-38850040I0J200000D01*
G01*
X76100000Y-37950040D01*
G75*
G02*
X76300000Y-37750040I200000J0D01*
G01*
X77500000Y-37750040D01*
G75*
G02*
X77700000Y-37950040I0J-200000D01*
G01*
X77700000Y-38850040D01*
G75*
G02*
X77500000Y-39050040I-200000J0D01*
G01*
G37*
G36*
G01*
X77500000Y-35750040D02*
X76300000Y-35750040D01*
G75*
G02*
X76100000Y-35550040I0J200000D01*
G01*
X76100000Y-34650040D01*
G75*
G02*
X76300000Y-34450040I200000J0D01*
G01*
X77500000Y-34450040D01*
G75*
G02*
X77700000Y-34650040I0J-200000D01*
G01*
X77700000Y-35550040D01*
G75*
G02*
X77500000Y-35750040I-200000J0D01*
G01*
G37*
G36*
G01*
X68200000Y-35750040D02*
X67000000Y-35750040D01*
G75*
G02*
X66800000Y-35550040I0J200000D01*
G01*
X66800000Y-34650040D01*
G75*
G02*
X67000000Y-34450040I200000J0D01*
G01*
X68200000Y-34450040D01*
G75*
G02*
X68400000Y-34650040I0J-200000D01*
G01*
X68400000Y-35550040D01*
G75*
G02*
X68200000Y-35750040I-200000J0D01*
G01*
G37*
G36*
G01*
X68200000Y-39050040D02*
X67000000Y-39050040D01*
G75*
G02*
X66800000Y-38850040I0J200000D01*
G01*
X66800000Y-37950040D01*
G75*
G02*
X67000000Y-37750040I200000J0D01*
G01*
X68200000Y-37750040D01*
G75*
G02*
X68400000Y-37950040I0J-200000D01*
G01*
X68400000Y-38850040D01*
G75*
G02*
X68200000Y-39050040I-200000J0D01*
G01*
G37*
G36*
G01*
X172650040Y-91400400D02*
X171450040Y-91400400D01*
G75*
G02*
X171250040Y-91200400I0J200000D01*
G01*
X171250040Y-90300400D01*
G75*
G02*
X171450040Y-90100400I200000J0D01*
G01*
X172650040Y-90100400D01*
G75*
G02*
X172850040Y-90300400I0J-200000D01*
G01*
X172850040Y-91200400D01*
G75*
G02*
X172650040Y-91400400I-200000J0D01*
G01*
G37*
G36*
G01*
X172650040Y-94700400D02*
X171450040Y-94700400D01*
G75*
G02*
X171250040Y-94500400I0J200000D01*
G01*
X171250040Y-93600400D01*
G75*
G02*
X171450040Y-93400400I200000J0D01*
G01*
X172650040Y-93400400D01*
G75*
G02*
X172850040Y-93600400I0J-200000D01*
G01*
X172850040Y-94500400D01*
G75*
G02*
X172650040Y-94700400I-200000J0D01*
G01*
G37*
G36*
G01*
X168850000Y-95050040D02*
X170050000Y-95050040D01*
G75*
G02*
X170250000Y-95250040I0J-200000D01*
G01*
X170250000Y-96150040D01*
G75*
G02*
X170050000Y-96350040I-200000J0D01*
G01*
X168850000Y-96350040D01*
G75*
G02*
X168650000Y-96150040I0J200000D01*
G01*
X168650000Y-95250040D01*
G75*
G02*
X168850000Y-95050040I200000J0D01*
G01*
G37*
G36*
G01*
X168850000Y-91750040D02*
X170050000Y-91750040D01*
G75*
G02*
X170250000Y-91950040I0J-200000D01*
G01*
X170250000Y-92850040D01*
G75*
G02*
X170050000Y-93050040I-200000J0D01*
G01*
X168850000Y-93050040D01*
G75*
G02*
X168650000Y-92850040I0J200000D01*
G01*
X168650000Y-91950040D01*
G75*
G02*
X168850000Y-91750040I200000J0D01*
G01*
G37*
G36*
G01*
X285500000Y-35400000D02*
X286700000Y-35400000D01*
G75*
G02*
X286900000Y-35600000I0J-200000D01*
G01*
X286900000Y-36500000D01*
G75*
G02*
X286700000Y-36700000I-200000J0D01*
G01*
X285500000Y-36700000D01*
G75*
G02*
X285300000Y-36500000I0J200000D01*
G01*
X285300000Y-35600000D01*
G75*
G02*
X285500000Y-35400000I200000J0D01*
G01*
G37*
G36*
G01*
X285500000Y-38700000D02*
X286700000Y-38700000D01*
G75*
G02*
X286900000Y-38900000I0J-200000D01*
G01*
X286900000Y-39800000D01*
G75*
G02*
X286700000Y-40000000I-200000J0D01*
G01*
X285500000Y-40000000D01*
G75*
G02*
X285300000Y-39800000I0J200000D01*
G01*
X285300000Y-38900000D01*
G75*
G02*
X285500000Y-38700000I200000J0D01*
G01*
G37*
G36*
G01*
X235700000Y-56500040D02*
X234500000Y-56500040D01*
G75*
G02*
X234300000Y-56300040I0J200000D01*
G01*
X234300000Y-55400040D01*
G75*
G02*
X234500000Y-55200040I200000J0D01*
G01*
X235700000Y-55200040D01*
G75*
G02*
X235900000Y-55400040I0J-200000D01*
G01*
X235900000Y-56300040D01*
G75*
G02*
X235700000Y-56500040I-200000J0D01*
G01*
G37*
G36*
G01*
X235700000Y-53200040D02*
X234500000Y-53200040D01*
G75*
G02*
X234300000Y-53000040I0J200000D01*
G01*
X234300000Y-52100040D01*
G75*
G02*
X234500000Y-51900040I200000J0D01*
G01*
X235700000Y-51900040D01*
G75*
G02*
X235900000Y-52100040I0J-200000D01*
G01*
X235900000Y-53000040D01*
G75*
G02*
X235700000Y-53200040I-200000J0D01*
G01*
G37*
G36*
G01*
X216500000Y-54000040D02*
X215300000Y-54000040D01*
G75*
G02*
X215100000Y-53800040I0J200000D01*
G01*
X215100000Y-52900040D01*
G75*
G02*
X215300000Y-52700040I200000J0D01*
G01*
X216500000Y-52700040D01*
G75*
G02*
X216700000Y-52900040I0J-200000D01*
G01*
X216700000Y-53800040D01*
G75*
G02*
X216500000Y-54000040I-200000J0D01*
G01*
G37*
G36*
G01*
X216500000Y-57300040D02*
X215300000Y-57300040D01*
G75*
G02*
X215100000Y-57100040I0J200000D01*
G01*
X215100000Y-56200040D01*
G75*
G02*
X215300000Y-56000040I200000J0D01*
G01*
X216500000Y-56000040D01*
G75*
G02*
X216700000Y-56200040I0J-200000D01*
G01*
X216700000Y-57100040D01*
G75*
G02*
X216500000Y-57300040I-200000J0D01*
G01*
G37*
G36*
G01*
X140300000Y-54000040D02*
X139100000Y-54000040D01*
G75*
G02*
X138900000Y-53800040I0J200000D01*
G01*
X138900000Y-52900040D01*
G75*
G02*
X139100000Y-52700040I200000J0D01*
G01*
X140300000Y-52700040D01*
G75*
G02*
X140500000Y-52900040I0J-200000D01*
G01*
X140500000Y-53800040D01*
G75*
G02*
X140300000Y-54000040I-200000J0D01*
G01*
G37*
G36*
G01*
X140300000Y-57300040D02*
X139100000Y-57300040D01*
G75*
G02*
X138900000Y-57100040I0J200000D01*
G01*
X138900000Y-56200040D01*
G75*
G02*
X139100000Y-56000040I200000J0D01*
G01*
X140300000Y-56000040D01*
G75*
G02*
X140500000Y-56200040I0J-200000D01*
G01*
X140500000Y-57100040D01*
G75*
G02*
X140300000Y-57300040I-200000J0D01*
G01*
G37*
G36*
G01*
X102100000Y-57300040D02*
X100900000Y-57300040D01*
G75*
G02*
X100700000Y-57100040I0J200000D01*
G01*
X100700000Y-56200040D01*
G75*
G02*
X100900000Y-56000040I200000J0D01*
G01*
X102100000Y-56000040D01*
G75*
G02*
X102300000Y-56200040I0J-200000D01*
G01*
X102300000Y-57100040D01*
G75*
G02*
X102100000Y-57300040I-200000J0D01*
G01*
G37*
G36*
G01*
X102100000Y-54000040D02*
X100900000Y-54000040D01*
G75*
G02*
X100700000Y-53800040I0J200000D01*
G01*
X100700000Y-52900040D01*
G75*
G02*
X100900000Y-52700040I200000J0D01*
G01*
X102100000Y-52700040D01*
G75*
G02*
X102300000Y-52900040I0J-200000D01*
G01*
X102300000Y-53800040D01*
G75*
G02*
X102100000Y-54000040I-200000J0D01*
G01*
G37*
G36*
G01*
X83300000Y-56500040D02*
X82100000Y-56500040D01*
G75*
G02*
X81900000Y-56300040I0J200000D01*
G01*
X81900000Y-55400040D01*
G75*
G02*
X82100000Y-55200040I200000J0D01*
G01*
X83300000Y-55200040D01*
G75*
G02*
X83500000Y-55400040I0J-200000D01*
G01*
X83500000Y-56300040D01*
G75*
G02*
X83300000Y-56500040I-200000J0D01*
G01*
G37*
G36*
G01*
X83300000Y-53200040D02*
X82100000Y-53200040D01*
G75*
G02*
X81900000Y-53000040I0J200000D01*
G01*
X81900000Y-52100040D01*
G75*
G02*
X82100000Y-51900040I200000J0D01*
G01*
X83300000Y-51900040D01*
G75*
G02*
X83500000Y-52100040I0J-200000D01*
G01*
X83500000Y-53000040D01*
G75*
G02*
X83300000Y-53200040I-200000J0D01*
G01*
G37*
G36*
G01*
X40300000Y-53200040D02*
X39100000Y-53200040D01*
G75*
G02*
X38900000Y-53000040I0J200000D01*
G01*
X38900000Y-52100040D01*
G75*
G02*
X39100000Y-51900040I200000J0D01*
G01*
X40300000Y-51900040D01*
G75*
G02*
X40500000Y-52100040I0J-200000D01*
G01*
X40500000Y-53000040D01*
G75*
G02*
X40300000Y-53200040I-200000J0D01*
G01*
G37*
G36*
G01*
X40300000Y-56500040D02*
X39100000Y-56500040D01*
G75*
G02*
X38900000Y-56300040I0J200000D01*
G01*
X38900000Y-55400040D01*
G75*
G02*
X39100000Y-55200040I200000J0D01*
G01*
X40300000Y-55200040D01*
G75*
G02*
X40500000Y-55400040I0J-200000D01*
G01*
X40500000Y-56300040D01*
G75*
G02*
X40300000Y-56500040I-200000J0D01*
G01*
G37*
G36*
G01*
X197600000Y-53200040D02*
X196400000Y-53200040D01*
G75*
G02*
X196200000Y-53000040I0J200000D01*
G01*
X196200000Y-52100040D01*
G75*
G02*
X196400000Y-51900040I200000J0D01*
G01*
X197600000Y-51900040D01*
G75*
G02*
X197800000Y-52100040I0J-200000D01*
G01*
X197800000Y-53000040D01*
G75*
G02*
X197600000Y-53200040I-200000J0D01*
G01*
G37*
G36*
G01*
X197600000Y-56500040D02*
X196400000Y-56500040D01*
G75*
G02*
X196200000Y-56300040I0J200000D01*
G01*
X196200000Y-55400040D01*
G75*
G02*
X196400000Y-55200040I200000J0D01*
G01*
X197600000Y-55200040D01*
G75*
G02*
X197800000Y-55400040I0J-200000D01*
G01*
X197800000Y-56300040D01*
G75*
G02*
X197600000Y-56500040I-200000J0D01*
G01*
G37*
G36*
G01*
X198900000Y-57600040D02*
X200100000Y-57600040D01*
G75*
G02*
X200300000Y-57800040I0J-200000D01*
G01*
X200300000Y-58700040D01*
G75*
G02*
X200100000Y-58900040I-200000J0D01*
G01*
X198900000Y-58900040D01*
G75*
G02*
X198700000Y-58700040I0J200000D01*
G01*
X198700000Y-57800040D01*
G75*
G02*
X198900000Y-57600040I200000J0D01*
G01*
G37*
G36*
G01*
X198900000Y-54300040D02*
X200100000Y-54300040D01*
G75*
G02*
X200300000Y-54500040I0J-200000D01*
G01*
X200300000Y-55400040D01*
G75*
G02*
X200100000Y-55600040I-200000J0D01*
G01*
X198900000Y-55600040D01*
G75*
G02*
X198700000Y-55400040I0J200000D01*
G01*
X198700000Y-54500040D01*
G75*
G02*
X198900000Y-54300040I200000J0D01*
G01*
G37*
G36*
G01*
X191650040Y-94700400D02*
X190450040Y-94700400D01*
G75*
G02*
X190250040Y-94500400I0J200000D01*
G01*
X190250040Y-93600400D01*
G75*
G02*
X190450040Y-93400400I200000J0D01*
G01*
X191650040Y-93400400D01*
G75*
G02*
X191850040Y-93600400I0J-200000D01*
G01*
X191850040Y-94500400D01*
G75*
G02*
X191650040Y-94700400I-200000J0D01*
G01*
G37*
G36*
G01*
X191650040Y-91400400D02*
X190450040Y-91400400D01*
G75*
G02*
X190250040Y-91200400I0J200000D01*
G01*
X190250040Y-90300400D01*
G75*
G02*
X190450040Y-90100400I200000J0D01*
G01*
X191650040Y-90100400D01*
G75*
G02*
X191850040Y-90300400I0J-200000D01*
G01*
X191850040Y-91200400D01*
G75*
G02*
X191650040Y-91400400I-200000J0D01*
G01*
G37*
G36*
G01*
X229500000Y-57600040D02*
X230700000Y-57600040D01*
G75*
G02*
X230900000Y-57800040I0J-200000D01*
G01*
X230900000Y-58700040D01*
G75*
G02*
X230700000Y-58900040I-200000J0D01*
G01*
X229500000Y-58900040D01*
G75*
G02*
X229300000Y-58700040I0J200000D01*
G01*
X229300000Y-57800040D01*
G75*
G02*
X229500000Y-57600040I200000J0D01*
G01*
G37*
G36*
G01*
X229500000Y-54300040D02*
X230700000Y-54300040D01*
G75*
G02*
X230900000Y-54500040I0J-200000D01*
G01*
X230900000Y-55400040D01*
G75*
G02*
X230700000Y-55600040I-200000J0D01*
G01*
X229500000Y-55600040D01*
G75*
G02*
X229300000Y-55400040I0J200000D01*
G01*
X229300000Y-54500040D01*
G75*
G02*
X229500000Y-54300040I200000J0D01*
G01*
G37*
G36*
G01*
X217900000Y-56800040D02*
X219100000Y-56800040D01*
G75*
G02*
X219300000Y-57000040I0J-200000D01*
G01*
X219300000Y-57900040D01*
G75*
G02*
X219100000Y-58100040I-200000J0D01*
G01*
X217900000Y-58100040D01*
G75*
G02*
X217700000Y-57900040I0J200000D01*
G01*
X217700000Y-57000040D01*
G75*
G02*
X217900000Y-56800040I200000J0D01*
G01*
G37*
G36*
G01*
X217900000Y-53500040D02*
X219100000Y-53500040D01*
G75*
G02*
X219300000Y-53700040I0J-200000D01*
G01*
X219300000Y-54600040D01*
G75*
G02*
X219100000Y-54800040I-200000J0D01*
G01*
X217900000Y-54800040D01*
G75*
G02*
X217700000Y-54600040I0J200000D01*
G01*
X217700000Y-53700040D01*
G75*
G02*
X217900000Y-53500040I200000J0D01*
G01*
G37*
G36*
G01*
X141700000Y-56800040D02*
X142900000Y-56800040D01*
G75*
G02*
X143100000Y-57000040I0J-200000D01*
G01*
X143100000Y-57900040D01*
G75*
G02*
X142900000Y-58100040I-200000J0D01*
G01*
X141700000Y-58100040D01*
G75*
G02*
X141500000Y-57900040I0J200000D01*
G01*
X141500000Y-57000040D01*
G75*
G02*
X141700000Y-56800040I200000J0D01*
G01*
G37*
G36*
G01*
X141700000Y-53500040D02*
X142900000Y-53500040D01*
G75*
G02*
X143100000Y-53700040I0J-200000D01*
G01*
X143100000Y-54600040D01*
G75*
G02*
X142900000Y-54800040I-200000J0D01*
G01*
X141700000Y-54800040D01*
G75*
G02*
X141500000Y-54600040I0J200000D01*
G01*
X141500000Y-53700040D01*
G75*
G02*
X141700000Y-53500040I200000J0D01*
G01*
G37*
G36*
G01*
X103700000Y-53500040D02*
X104900000Y-53500040D01*
G75*
G02*
X105100000Y-53700040I0J-200000D01*
G01*
X105100000Y-54600040D01*
G75*
G02*
X104900000Y-54800040I-200000J0D01*
G01*
X103700000Y-54800040D01*
G75*
G02*
X103500000Y-54600040I0J200000D01*
G01*
X103500000Y-53700040D01*
G75*
G02*
X103700000Y-53500040I200000J0D01*
G01*
G37*
G36*
G01*
X103700000Y-56800040D02*
X104900000Y-56800040D01*
G75*
G02*
X105100000Y-57000040I0J-200000D01*
G01*
X105100000Y-57900040D01*
G75*
G02*
X104900000Y-58100040I-200000J0D01*
G01*
X103700000Y-58100040D01*
G75*
G02*
X103500000Y-57900040I0J200000D01*
G01*
X103500000Y-57000040D01*
G75*
G02*
X103700000Y-56800040I200000J0D01*
G01*
G37*
G36*
G01*
X84700000Y-57600040D02*
X85900000Y-57600040D01*
G75*
G02*
X86100000Y-57800040I0J-200000D01*
G01*
X86100000Y-58700040D01*
G75*
G02*
X85900000Y-58900040I-200000J0D01*
G01*
X84700000Y-58900040D01*
G75*
G02*
X84500000Y-58700040I0J200000D01*
G01*
X84500000Y-57800040D01*
G75*
G02*
X84700000Y-57600040I200000J0D01*
G01*
G37*
G36*
G01*
X84700000Y-54300040D02*
X85900000Y-54300040D01*
G75*
G02*
X86100000Y-54500040I0J-200000D01*
G01*
X86100000Y-55400040D01*
G75*
G02*
X85900000Y-55600040I-200000J0D01*
G01*
X84700000Y-55600040D01*
G75*
G02*
X84500000Y-55400040I0J200000D01*
G01*
X84500000Y-54500040D01*
G75*
G02*
X84700000Y-54300040I200000J0D01*
G01*
G37*
G36*
G01*
X41750000Y-57600040D02*
X42950000Y-57600040D01*
G75*
G02*
X43150000Y-57800040I0J-200000D01*
G01*
X43150000Y-58700040D01*
G75*
G02*
X42950000Y-58900040I-200000J0D01*
G01*
X41750000Y-58900040D01*
G75*
G02*
X41550000Y-58700040I0J200000D01*
G01*
X41550000Y-57800040D01*
G75*
G02*
X41750000Y-57600040I200000J0D01*
G01*
G37*
G36*
G01*
X41750000Y-54300040D02*
X42950000Y-54300040D01*
G75*
G02*
X43150000Y-54500040I0J-200000D01*
G01*
X43150000Y-55400040D01*
G75*
G02*
X42950000Y-55600040I-200000J0D01*
G01*
X41750000Y-55600040D01*
G75*
G02*
X41550000Y-55400040I0J200000D01*
G01*
X41550000Y-54500040D01*
G75*
G02*
X41750000Y-54300040I200000J0D01*
G01*
G37*
G36*
G01*
X179900040Y-95050040D02*
X181100040Y-95050040D01*
G75*
G02*
X181300040Y-95250040I0J-200000D01*
G01*
X181300040Y-96150040D01*
G75*
G02*
X181100040Y-96350040I-200000J0D01*
G01*
X179900040Y-96350040D01*
G75*
G02*
X179700040Y-96150040I0J200000D01*
G01*
X179700040Y-95250040D01*
G75*
G02*
X179900040Y-95050040I200000J0D01*
G01*
G37*
G36*
G01*
X179900040Y-91750040D02*
X181100040Y-91750040D01*
G75*
G02*
X181300040Y-91950040I0J-200000D01*
G01*
X181300040Y-92850040D01*
G75*
G02*
X181100040Y-93050040I-200000J0D01*
G01*
X179900040Y-93050040D01*
G75*
G02*
X179700040Y-92850040I0J200000D01*
G01*
X179700040Y-91950040D01*
G75*
G02*
X179900040Y-91750040I200000J0D01*
G01*
G37*
G36*
G01*
X286600000Y-95500040D02*
X285400000Y-95500040D01*
G75*
G02*
X285200000Y-95300040I0J200000D01*
G01*
X285200000Y-94400040D01*
G75*
G02*
X285400000Y-94200040I200000J0D01*
G01*
X286600000Y-94200040D01*
G75*
G02*
X286800000Y-94400040I0J-200000D01*
G01*
X286800000Y-95300040D01*
G75*
G02*
X286600000Y-95500040I-200000J0D01*
G01*
G37*
G36*
G01*
X286600000Y-92200040D02*
X285400000Y-92200040D01*
G75*
G02*
X285200000Y-92000040I0J200000D01*
G01*
X285200000Y-91100040D01*
G75*
G02*
X285400000Y-90900040I200000J0D01*
G01*
X286600000Y-90900040D01*
G75*
G02*
X286800000Y-91100040I0J-200000D01*
G01*
X286800000Y-92000040D01*
G75*
G02*
X286600000Y-92200040I-200000J0D01*
G01*
G37*
G36*
G01*
X233600000Y-90100000D02*
X234800000Y-90100000D01*
G75*
G02*
X235000000Y-90300000I0J-200000D01*
G01*
X235000000Y-91200000D01*
G75*
G02*
X234800000Y-91400000I-200000J0D01*
G01*
X233600000Y-91400000D01*
G75*
G02*
X233400000Y-91200000I0J200000D01*
G01*
X233400000Y-90300000D01*
G75*
G02*
X233600000Y-90100000I200000J0D01*
G01*
G37*
G36*
G01*
X233600000Y-93400000D02*
X234800000Y-93400000D01*
G75*
G02*
X235000000Y-93600000I0J-200000D01*
G01*
X235000000Y-94500000D01*
G75*
G02*
X234800000Y-94700000I-200000J0D01*
G01*
X233600000Y-94700000D01*
G75*
G02*
X233400000Y-94500000I0J200000D01*
G01*
X233400000Y-93600000D01*
G75*
G02*
X233600000Y-93400000I200000J0D01*
G01*
G37*
G36*
G01*
X229800000Y-91400000D02*
X228600000Y-91400000D01*
G75*
G02*
X228400000Y-91200000I0J200000D01*
G01*
X228400000Y-90300000D01*
G75*
G02*
X228600000Y-90100000I200000J0D01*
G01*
X229800000Y-90100000D01*
G75*
G02*
X230000000Y-90300000I0J-200000D01*
G01*
X230000000Y-91200000D01*
G75*
G02*
X229800000Y-91400000I-200000J0D01*
G01*
G37*
G36*
G01*
X229800000Y-94700000D02*
X228600000Y-94700000D01*
G75*
G02*
X228400000Y-94500000I0J200000D01*
G01*
X228400000Y-93600000D01*
G75*
G02*
X228600000Y-93400000I200000J0D01*
G01*
X229800000Y-93400000D01*
G75*
G02*
X230000000Y-93600000I0J-200000D01*
G01*
X230000000Y-94500000D01*
G75*
G02*
X229800000Y-94700000I-200000J0D01*
G01*
G37*
G36*
G01*
X243175000Y-54300000D02*
X244375000Y-54300000D01*
G75*
G02*
X244575000Y-54500000I0J-200000D01*
G01*
X244575000Y-55400000D01*
G75*
G02*
X244375000Y-55600000I-200000J0D01*
G01*
X243175000Y-55600000D01*
G75*
G02*
X242975000Y-55400000I0J200000D01*
G01*
X242975000Y-54500000D01*
G75*
G02*
X243175000Y-54300000I200000J0D01*
G01*
G37*
G36*
G01*
X243175000Y-57600000D02*
X244375000Y-57600000D01*
G75*
G02*
X244575000Y-57800000I0J-200000D01*
G01*
X244575000Y-58700000D01*
G75*
G02*
X244375000Y-58900000I-200000J0D01*
G01*
X243175000Y-58900000D01*
G75*
G02*
X242975000Y-58700000I0J200000D01*
G01*
X242975000Y-57800000D01*
G75*
G02*
X243175000Y-57600000I200000J0D01*
G01*
G37*
G36*
G01*
X210050000Y-92250040D02*
X208850000Y-92250040D01*
G75*
G02*
X208650000Y-92050040I0J200000D01*
G01*
X208650000Y-91150040D01*
G75*
G02*
X208850000Y-90950040I200000J0D01*
G01*
X210050000Y-90950040D01*
G75*
G02*
X210250000Y-91150040I0J-200000D01*
G01*
X210250000Y-92050040D01*
G75*
G02*
X210050000Y-92250040I-200000J0D01*
G01*
G37*
G36*
G01*
X210050000Y-95550040D02*
X208850000Y-95550040D01*
G75*
G02*
X208650000Y-95350040I0J200000D01*
G01*
X208650000Y-94450040D01*
G75*
G02*
X208850000Y-94250040I200000J0D01*
G01*
X210050000Y-94250040D01*
G75*
G02*
X210250000Y-94450040I0J-200000D01*
G01*
X210250000Y-95350040D01*
G75*
G02*
X210050000Y-95550040I-200000J0D01*
G01*
G37*
G36*
G01*
X130850000Y-92250040D02*
X129650000Y-92250040D01*
G75*
G02*
X129450000Y-92050040I0J200000D01*
G01*
X129450000Y-91150040D01*
G75*
G02*
X129650000Y-90950040I200000J0D01*
G01*
X130850000Y-90950040D01*
G75*
G02*
X131050000Y-91150040I0J-200000D01*
G01*
X131050000Y-92050040D01*
G75*
G02*
X130850000Y-92250040I-200000J0D01*
G01*
G37*
G36*
G01*
X130850000Y-95550040D02*
X129650000Y-95550040D01*
G75*
G02*
X129450000Y-95350040I0J200000D01*
G01*
X129450000Y-94450040D01*
G75*
G02*
X129650000Y-94250040I200000J0D01*
G01*
X130850000Y-94250040D01*
G75*
G02*
X131050000Y-94450040I0J-200000D01*
G01*
X131050000Y-95350040D01*
G75*
G02*
X130850000Y-95550040I-200000J0D01*
G01*
G37*
G36*
G01*
X96250000Y-95550040D02*
X95050000Y-95550040D01*
G75*
G02*
X94850000Y-95350040I0J200000D01*
G01*
X94850000Y-94450040D01*
G75*
G02*
X95050000Y-94250040I200000J0D01*
G01*
X96250000Y-94250040D01*
G75*
G02*
X96450000Y-94450040I0J-200000D01*
G01*
X96450000Y-95350040D01*
G75*
G02*
X96250000Y-95550040I-200000J0D01*
G01*
G37*
G36*
G01*
X96250000Y-92250040D02*
X95050000Y-92250040D01*
G75*
G02*
X94850000Y-92050040I0J200000D01*
G01*
X94850000Y-91150040D01*
G75*
G02*
X95050000Y-90950040I200000J0D01*
G01*
X96250000Y-90950040D01*
G75*
G02*
X96450000Y-91150040I0J-200000D01*
G01*
X96450000Y-92050040D01*
G75*
G02*
X96250000Y-92250040I-200000J0D01*
G01*
G37*
G36*
G01*
X82800000Y-92700000D02*
X81600000Y-92700000D01*
G75*
G02*
X81400000Y-92500000I0J200000D01*
G01*
X81400000Y-91600000D01*
G75*
G02*
X81600000Y-91400000I200000J0D01*
G01*
X82800000Y-91400000D01*
G75*
G02*
X83000000Y-91600000I0J-200000D01*
G01*
X83000000Y-92500000D01*
G75*
G02*
X82800000Y-92700000I-200000J0D01*
G01*
G37*
G36*
G01*
X82800000Y-96000000D02*
X81600000Y-96000000D01*
G75*
G02*
X81400000Y-95800000I0J200000D01*
G01*
X81400000Y-94900000D01*
G75*
G02*
X81600000Y-94700000I200000J0D01*
G01*
X82800000Y-94700000D01*
G75*
G02*
X83000000Y-94900000I0J-200000D01*
G01*
X83000000Y-95800000D01*
G75*
G02*
X82800000Y-96000000I-200000J0D01*
G01*
G37*
G36*
G01*
X43400000Y-109700000D02*
X42200000Y-109700000D01*
G75*
G02*
X42000000Y-109500000I0J200000D01*
G01*
X42000000Y-108600000D01*
G75*
G02*
X42200000Y-108400000I200000J0D01*
G01*
X43400000Y-108400000D01*
G75*
G02*
X43600000Y-108600000I0J-200000D01*
G01*
X43600000Y-109500000D01*
G75*
G02*
X43400000Y-109700000I-200000J0D01*
G01*
G37*
G36*
G01*
X43400000Y-113000000D02*
X42200000Y-113000000D01*
G75*
G02*
X42000000Y-112800000I0J200000D01*
G01*
X42000000Y-111900000D01*
G75*
G02*
X42200000Y-111700000I200000J0D01*
G01*
X43400000Y-111700000D01*
G75*
G02*
X43600000Y-111900000I0J-200000D01*
G01*
X43600000Y-112800000D01*
G75*
G02*
X43400000Y-113000000I-200000J0D01*
G01*
G37*
G36*
G01*
X303000000Y-91750040D02*
X304200000Y-91750040D01*
G75*
G02*
X304400000Y-91950040I0J-200000D01*
G01*
X304400000Y-92850040D01*
G75*
G02*
X304200000Y-93050040I-200000J0D01*
G01*
X303000000Y-93050040D01*
G75*
G02*
X302800000Y-92850040I0J200000D01*
G01*
X302800000Y-91950040D01*
G75*
G02*
X303000000Y-91750040I200000J0D01*
G01*
G37*
G36*
G01*
X303000000Y-95050040D02*
X304200000Y-95050040D01*
G75*
G02*
X304400000Y-95250040I0J-200000D01*
G01*
X304400000Y-96150040D01*
G75*
G02*
X304200000Y-96350040I-200000J0D01*
G01*
X303000000Y-96350040D01*
G75*
G02*
X302800000Y-96150040I0J200000D01*
G01*
X302800000Y-95250040D01*
G75*
G02*
X303000000Y-95050040I200000J0D01*
G01*
G37*
G36*
G01*
X282650000Y-92600040D02*
X283850000Y-92600040D01*
G75*
G02*
X284050000Y-92800040I0J-200000D01*
G01*
X284050000Y-93700040D01*
G75*
G02*
X283850000Y-93900040I-200000J0D01*
G01*
X282650000Y-93900040D01*
G75*
G02*
X282450000Y-93700040I0J200000D01*
G01*
X282450000Y-92800040D01*
G75*
G02*
X282650000Y-92600040I200000J0D01*
G01*
G37*
G36*
G01*
X282650000Y-95900040D02*
X283850000Y-95900040D01*
G75*
G02*
X284050000Y-96100040I0J-200000D01*
G01*
X284050000Y-97000040D01*
G75*
G02*
X283850000Y-97200040I-200000J0D01*
G01*
X282650000Y-97200040D01*
G75*
G02*
X282450000Y-97000040I0J200000D01*
G01*
X282450000Y-96100040D01*
G75*
G02*
X282650000Y-95900040I200000J0D01*
G01*
G37*
G36*
G01*
X239425000Y-95900040D02*
X240625000Y-95900040D01*
G75*
G02*
X240825000Y-96100040I0J-200000D01*
G01*
X240825000Y-97000040D01*
G75*
G02*
X240625000Y-97200040I-200000J0D01*
G01*
X239425000Y-97200040D01*
G75*
G02*
X239225000Y-97000040I0J200000D01*
G01*
X239225000Y-96100040D01*
G75*
G02*
X239425000Y-95900040I200000J0D01*
G01*
G37*
G36*
G01*
X239425000Y-92600040D02*
X240625000Y-92600040D01*
G75*
G02*
X240825000Y-92800040I0J-200000D01*
G01*
X240825000Y-93700040D01*
G75*
G02*
X240625000Y-93900040I-200000J0D01*
G01*
X239425000Y-93900040D01*
G75*
G02*
X239225000Y-93700040I0J200000D01*
G01*
X239225000Y-92800040D01*
G75*
G02*
X239425000Y-92600040I200000J0D01*
G01*
G37*
G36*
G01*
X132250000Y-95850040D02*
X133450000Y-95850040D01*
G75*
G02*
X133650000Y-96050040I0J-200000D01*
G01*
X133650000Y-96950040D01*
G75*
G02*
X133450000Y-97150040I-200000J0D01*
G01*
X132250000Y-97150040D01*
G75*
G02*
X132050000Y-96950040I0J200000D01*
G01*
X132050000Y-96050040D01*
G75*
G02*
X132250000Y-95850040I200000J0D01*
G01*
G37*
G36*
G01*
X132250000Y-92550040D02*
X133450000Y-92550040D01*
G75*
G02*
X133650000Y-92750040I0J-200000D01*
G01*
X133650000Y-93650040D01*
G75*
G02*
X133450000Y-93850040I-200000J0D01*
G01*
X132250000Y-93850040D01*
G75*
G02*
X132050000Y-93650040I0J200000D01*
G01*
X132050000Y-92750040D01*
G75*
G02*
X132250000Y-92550040I200000J0D01*
G01*
G37*
G36*
G01*
X101300040Y-95850040D02*
X102500040Y-95850040D01*
G75*
G02*
X102700040Y-96050040I0J-200000D01*
G01*
X102700040Y-96950040D01*
G75*
G02*
X102500040Y-97150040I-200000J0D01*
G01*
X101300040Y-97150040D01*
G75*
G02*
X101100040Y-96950040I0J200000D01*
G01*
X101100040Y-96050040D01*
G75*
G02*
X101300040Y-95850040I200000J0D01*
G01*
G37*
G36*
G01*
X101300040Y-92550040D02*
X102500040Y-92550040D01*
G75*
G02*
X102700040Y-92750040I0J-200000D01*
G01*
X102700040Y-93650040D01*
G75*
G02*
X102500040Y-93850040I-200000J0D01*
G01*
X101300040Y-93850040D01*
G75*
G02*
X101100040Y-93650040I0J200000D01*
G01*
X101100040Y-92750040D01*
G75*
G02*
X101300040Y-92550040I200000J0D01*
G01*
G37*
G36*
G01*
X40700000Y-115500000D02*
X39500000Y-115500000D01*
G75*
G02*
X39300000Y-115300000I0J200000D01*
G01*
X39300000Y-114400000D01*
G75*
G02*
X39500000Y-114200000I200000J0D01*
G01*
X40700000Y-114200000D01*
G75*
G02*
X40900000Y-114400000I0J-200000D01*
G01*
X40900000Y-115300000D01*
G75*
G02*
X40700000Y-115500000I-200000J0D01*
G01*
G37*
G36*
G01*
X40700000Y-112200000D02*
X39500000Y-112200000D01*
G75*
G02*
X39300000Y-112000000I0J200000D01*
G01*
X39300000Y-111100000D01*
G75*
G02*
X39500000Y-110900000I200000J0D01*
G01*
X40700000Y-110900000D01*
G75*
G02*
X40900000Y-111100000I0J-200000D01*
G01*
X40900000Y-112000000D01*
G75*
G02*
X40700000Y-112200000I-200000J0D01*
G01*
G37*
G36*
G01*
X172600000Y-35750040D02*
X171400000Y-35750040D01*
G75*
G02*
X171200000Y-35550040I0J200000D01*
G01*
X171200000Y-34650040D01*
G75*
G02*
X171400000Y-34450040I200000J0D01*
G01*
X172600000Y-34450040D01*
G75*
G02*
X172800000Y-34650040I0J-200000D01*
G01*
X172800000Y-35550040D01*
G75*
G02*
X172600000Y-35750040I-200000J0D01*
G01*
G37*
G36*
G01*
X172600000Y-39050040D02*
X171400000Y-39050040D01*
G75*
G02*
X171200000Y-38850040I0J200000D01*
G01*
X171200000Y-37950040D01*
G75*
G02*
X171400000Y-37750040I200000J0D01*
G01*
X172600000Y-37750040D01*
G75*
G02*
X172800000Y-37950040I0J-200000D01*
G01*
X172800000Y-38850040D01*
G75*
G02*
X172600000Y-39050040I-200000J0D01*
G01*
G37*
G36*
G01*
X302300000Y-37400000D02*
X301100000Y-37400000D01*
G75*
G02*
X300900000Y-37200000I0J200000D01*
G01*
X300900000Y-36300000D01*
G75*
G02*
X301100000Y-36100000I200000J0D01*
G01*
X302300000Y-36100000D01*
G75*
G02*
X302500000Y-36300000I0J-200000D01*
G01*
X302500000Y-37200000D01*
G75*
G02*
X302300000Y-37400000I-200000J0D01*
G01*
G37*
G36*
G01*
X302300000Y-34100000D02*
X301100000Y-34100000D01*
G75*
G02*
X300900000Y-33900000I0J200000D01*
G01*
X300900000Y-33000000D01*
G75*
G02*
X301100000Y-32800000I200000J0D01*
G01*
X302300000Y-32800000D01*
G75*
G02*
X302500000Y-33000000I0J-200000D01*
G01*
X302500000Y-33900000D01*
G75*
G02*
X302300000Y-34100000I-200000J0D01*
G01*
G37*
G36*
G01*
X264100000Y-39050000D02*
X262900000Y-39050000D01*
G75*
G02*
X262700000Y-38850000I0J200000D01*
G01*
X262700000Y-37950000D01*
G75*
G02*
X262900000Y-37750000I200000J0D01*
G01*
X264100000Y-37750000D01*
G75*
G02*
X264300000Y-37950000I0J-200000D01*
G01*
X264300000Y-38850000D01*
G75*
G02*
X264100000Y-39050000I-200000J0D01*
G01*
G37*
G36*
G01*
X264100000Y-35750000D02*
X262900000Y-35750000D01*
G75*
G02*
X262700000Y-35550000I0J200000D01*
G01*
X262700000Y-34650000D01*
G75*
G02*
X262900000Y-34450000I200000J0D01*
G01*
X264100000Y-34450000D01*
G75*
G02*
X264300000Y-34650000I0J-200000D01*
G01*
X264300000Y-35550000D01*
G75*
G02*
X264100000Y-35750000I-200000J0D01*
G01*
G37*
G36*
G01*
X249250000Y-38200040D02*
X248050000Y-38200040D01*
G75*
G02*
X247850000Y-38000040I0J200000D01*
G01*
X247850000Y-37100040D01*
G75*
G02*
X248050000Y-36900040I200000J0D01*
G01*
X249250000Y-36900040D01*
G75*
G02*
X249450000Y-37100040I0J-200000D01*
G01*
X249450000Y-38000040D01*
G75*
G02*
X249250000Y-38200040I-200000J0D01*
G01*
G37*
G36*
G01*
X249250000Y-34900040D02*
X248050000Y-34900040D01*
G75*
G02*
X247850000Y-34700040I0J200000D01*
G01*
X247850000Y-33800040D01*
G75*
G02*
X248050000Y-33600040I200000J0D01*
G01*
X249250000Y-33600040D01*
G75*
G02*
X249450000Y-33800040I0J-200000D01*
G01*
X249450000Y-34700040D01*
G75*
G02*
X249250000Y-34900040I-200000J0D01*
G01*
G37*
G36*
G01*
X154050000Y-38200040D02*
X152850000Y-38200040D01*
G75*
G02*
X152650000Y-38000040I0J200000D01*
G01*
X152650000Y-37100040D01*
G75*
G02*
X152850000Y-36900040I200000J0D01*
G01*
X154050000Y-36900040D01*
G75*
G02*
X154250000Y-37100040I0J-200000D01*
G01*
X154250000Y-38000040D01*
G75*
G02*
X154050000Y-38200040I-200000J0D01*
G01*
G37*
G36*
G01*
X154050000Y-34900040D02*
X152850000Y-34900040D01*
G75*
G02*
X152650000Y-34700040I0J200000D01*
G01*
X152650000Y-33800040D01*
G75*
G02*
X152850000Y-33600040I200000J0D01*
G01*
X154050000Y-33600040D01*
G75*
G02*
X154250000Y-33800040I0J-200000D01*
G01*
X154250000Y-34700040D01*
G75*
G02*
X154050000Y-34900040I-200000J0D01*
G01*
G37*
G36*
G01*
X115600000Y-39050040D02*
X114400000Y-39050040D01*
G75*
G02*
X114200000Y-38850040I0J200000D01*
G01*
X114200000Y-37950040D01*
G75*
G02*
X114400000Y-37750040I200000J0D01*
G01*
X115600000Y-37750040D01*
G75*
G02*
X115800000Y-37950040I0J-200000D01*
G01*
X115800000Y-38850040D01*
G75*
G02*
X115600000Y-39050040I-200000J0D01*
G01*
G37*
G36*
G01*
X115600000Y-35750040D02*
X114400000Y-35750040D01*
G75*
G02*
X114200000Y-35550040I0J200000D01*
G01*
X114200000Y-34650040D01*
G75*
G02*
X114400000Y-34450040I200000J0D01*
G01*
X115600000Y-34450040D01*
G75*
G02*
X115800000Y-34650040I0J-200000D01*
G01*
X115800000Y-35550040D01*
G75*
G02*
X115600000Y-35750040I-200000J0D01*
G01*
G37*
G36*
G01*
X65600000Y-38200040D02*
X64400000Y-38200040D01*
G75*
G02*
X64200000Y-38000040I0J200000D01*
G01*
X64200000Y-37100040D01*
G75*
G02*
X64400000Y-36900040I200000J0D01*
G01*
X65600000Y-36900040D01*
G75*
G02*
X65800000Y-37100040I0J-200000D01*
G01*
X65800000Y-38000040D01*
G75*
G02*
X65600000Y-38200040I-200000J0D01*
G01*
G37*
G36*
G01*
X65600000Y-34900040D02*
X64400000Y-34900040D01*
G75*
G02*
X64200000Y-34700040I0J200000D01*
G01*
X64200000Y-33800040D01*
G75*
G02*
X64400000Y-33600040I200000J0D01*
G01*
X65600000Y-33600040D01*
G75*
G02*
X65800000Y-33800040I0J-200000D01*
G01*
X65800000Y-34700040D01*
G75*
G02*
X65600000Y-34900040I-200000J0D01*
G01*
G37*
G36*
G01*
X63900000Y-57300040D02*
X62700000Y-57300040D01*
G75*
G02*
X62500000Y-57100040I0J200000D01*
G01*
X62500000Y-56200040D01*
G75*
G02*
X62700000Y-56000040I200000J0D01*
G01*
X63900000Y-56000040D01*
G75*
G02*
X64100000Y-56200040I0J-200000D01*
G01*
X64100000Y-57100040D01*
G75*
G02*
X63900000Y-57300040I-200000J0D01*
G01*
G37*
G36*
G01*
X63900000Y-54000040D02*
X62700000Y-54000040D01*
G75*
G02*
X62500000Y-53800040I0J200000D01*
G01*
X62500000Y-52900040D01*
G75*
G02*
X62700000Y-52700040I200000J0D01*
G01*
X63900000Y-52700040D01*
G75*
G02*
X64100000Y-52900040I0J-200000D01*
G01*
X64100000Y-53800040D01*
G75*
G02*
X63900000Y-54000040I-200000J0D01*
G01*
G37*
G36*
G01*
X178500000Y-53200040D02*
X177300000Y-53200040D01*
G75*
G02*
X177100000Y-53000040I0J200000D01*
G01*
X177100000Y-52100040D01*
G75*
G02*
X177300000Y-51900040I200000J0D01*
G01*
X178500000Y-51900040D01*
G75*
G02*
X178700000Y-52100040I0J-200000D01*
G01*
X178700000Y-53000040D01*
G75*
G02*
X178500000Y-53200040I-200000J0D01*
G01*
G37*
G36*
G01*
X178500000Y-56500040D02*
X177300000Y-56500040D01*
G75*
G02*
X177100000Y-56300040I0J200000D01*
G01*
X177100000Y-55400040D01*
G75*
G02*
X177300000Y-55200040I200000J0D01*
G01*
X178500000Y-55200040D01*
G75*
G02*
X178700000Y-55400040I0J-200000D01*
G01*
X178700000Y-56300040D01*
G75*
G02*
X178500000Y-56500040I-200000J0D01*
G01*
G37*
G36*
G01*
X280700000Y-37900000D02*
X281900000Y-37900000D01*
G75*
G02*
X282100000Y-38100000I0J-200000D01*
G01*
X282100000Y-39000000D01*
G75*
G02*
X281900000Y-39200000I-200000J0D01*
G01*
X280700000Y-39200000D01*
G75*
G02*
X280500000Y-39000000I0J200000D01*
G01*
X280500000Y-38100000D01*
G75*
G02*
X280700000Y-37900000I200000J0D01*
G01*
G37*
G36*
G01*
X280700000Y-34600000D02*
X281900000Y-34600000D01*
G75*
G02*
X282100000Y-34800000I0J-200000D01*
G01*
X282100000Y-35700000D01*
G75*
G02*
X281900000Y-35900000I-200000J0D01*
G01*
X280700000Y-35900000D01*
G75*
G02*
X280500000Y-35700000I0J200000D01*
G01*
X280500000Y-34800000D01*
G75*
G02*
X280700000Y-34600000I200000J0D01*
G01*
G37*
G36*
G01*
X238350000Y-57300000D02*
X237150000Y-57300000D01*
G75*
G02*
X236950000Y-57100000I0J200000D01*
G01*
X236950000Y-56200000D01*
G75*
G02*
X237150000Y-56000000I200000J0D01*
G01*
X238350000Y-56000000D01*
G75*
G02*
X238550000Y-56200000I0J-200000D01*
G01*
X238550000Y-57100000D01*
G75*
G02*
X238350000Y-57300000I-200000J0D01*
G01*
G37*
G36*
G01*
X238350000Y-54000000D02*
X237150000Y-54000000D01*
G75*
G02*
X236950000Y-53800000I0J200000D01*
G01*
X236950000Y-52900000D01*
G75*
G02*
X237150000Y-52700000I200000J0D01*
G01*
X238350000Y-52700000D01*
G75*
G02*
X238550000Y-52900000I0J-200000D01*
G01*
X238550000Y-53800000D01*
G75*
G02*
X238350000Y-54000000I-200000J0D01*
G01*
G37*
G36*
G01*
X159500000Y-56500040D02*
X158300000Y-56500040D01*
G75*
G02*
X158100000Y-56300040I0J200000D01*
G01*
X158100000Y-55400040D01*
G75*
G02*
X158300000Y-55200040I200000J0D01*
G01*
X159500000Y-55200040D01*
G75*
G02*
X159700000Y-55400040I0J-200000D01*
G01*
X159700000Y-56300040D01*
G75*
G02*
X159500000Y-56500040I-200000J0D01*
G01*
G37*
G36*
G01*
X159500000Y-53200040D02*
X158300000Y-53200040D01*
G75*
G02*
X158100000Y-53000040I0J200000D01*
G01*
X158100000Y-52100040D01*
G75*
G02*
X158300000Y-51900040I200000J0D01*
G01*
X159500000Y-51900040D01*
G75*
G02*
X159700000Y-52100040I0J-200000D01*
G01*
X159700000Y-53000040D01*
G75*
G02*
X159500000Y-53200040I-200000J0D01*
G01*
G37*
G36*
G01*
X121300000Y-56500040D02*
X120100000Y-56500040D01*
G75*
G02*
X119900000Y-56300040I0J200000D01*
G01*
X119900000Y-55400040D01*
G75*
G02*
X120100000Y-55200040I200000J0D01*
G01*
X121300000Y-55200040D01*
G75*
G02*
X121500000Y-55400040I0J-200000D01*
G01*
X121500000Y-56300040D01*
G75*
G02*
X121300000Y-56500040I-200000J0D01*
G01*
G37*
G36*
G01*
X121300000Y-53200040D02*
X120100000Y-53200040D01*
G75*
G02*
X119900000Y-53000040I0J200000D01*
G01*
X119900000Y-52100040D01*
G75*
G02*
X120100000Y-51900040I200000J0D01*
G01*
X121300000Y-51900040D01*
G75*
G02*
X121500000Y-52100040I0J-200000D01*
G01*
X121500000Y-53000040D01*
G75*
G02*
X121300000Y-53200040I-200000J0D01*
G01*
G37*
G36*
G01*
X65500000Y-53500040D02*
X66700000Y-53500040D01*
G75*
G02*
X66900000Y-53700040I0J-200000D01*
G01*
X66900000Y-54600040D01*
G75*
G02*
X66700000Y-54800040I-200000J0D01*
G01*
X65500000Y-54800040D01*
G75*
G02*
X65300000Y-54600040I0J200000D01*
G01*
X65300000Y-53700040D01*
G75*
G02*
X65500000Y-53500040I200000J0D01*
G01*
G37*
G36*
G01*
X65500000Y-56800040D02*
X66700000Y-56800040D01*
G75*
G02*
X66900000Y-57000040I0J-200000D01*
G01*
X66900000Y-57900040D01*
G75*
G02*
X66700000Y-58100040I-200000J0D01*
G01*
X65500000Y-58100040D01*
G75*
G02*
X65300000Y-57900040I0J200000D01*
G01*
X65300000Y-57000040D01*
G75*
G02*
X65500000Y-56800040I200000J0D01*
G01*
G37*
G36*
G01*
X179900000Y-57600040D02*
X181100000Y-57600040D01*
G75*
G02*
X181300000Y-57800040I0J-200000D01*
G01*
X181300000Y-58700040D01*
G75*
G02*
X181100000Y-58900040I-200000J0D01*
G01*
X179900000Y-58900040D01*
G75*
G02*
X179700000Y-58700040I0J200000D01*
G01*
X179700000Y-57800040D01*
G75*
G02*
X179900000Y-57600040I200000J0D01*
G01*
G37*
G36*
G01*
X179900000Y-54300040D02*
X181100000Y-54300040D01*
G75*
G02*
X181300000Y-54500040I0J-200000D01*
G01*
X181300000Y-55400040D01*
G75*
G02*
X181100000Y-55600040I-200000J0D01*
G01*
X179900000Y-55600040D01*
G75*
G02*
X179700000Y-55400040I0J200000D01*
G01*
X179700000Y-54500040D01*
G75*
G02*
X179900000Y-54300040I200000J0D01*
G01*
G37*
G36*
G01*
X239850000Y-56800000D02*
X241050000Y-56800000D01*
G75*
G02*
X241250000Y-57000000I0J-200000D01*
G01*
X241250000Y-57900000D01*
G75*
G02*
X241050000Y-58100000I-200000J0D01*
G01*
X239850000Y-58100000D01*
G75*
G02*
X239650000Y-57900000I0J200000D01*
G01*
X239650000Y-57000000D01*
G75*
G02*
X239850000Y-56800000I200000J0D01*
G01*
G37*
G36*
G01*
X239850000Y-53500000D02*
X241050000Y-53500000D01*
G75*
G02*
X241250000Y-53700000I0J-200000D01*
G01*
X241250000Y-54600000D01*
G75*
G02*
X241050000Y-54800000I-200000J0D01*
G01*
X239850000Y-54800000D01*
G75*
G02*
X239650000Y-54600000I0J200000D01*
G01*
X239650000Y-53700000D01*
G75*
G02*
X239850000Y-53500000I200000J0D01*
G01*
G37*
G36*
G01*
X161100000Y-57600040D02*
X162300000Y-57600040D01*
G75*
G02*
X162500000Y-57800040I0J-200000D01*
G01*
X162500000Y-58700040D01*
G75*
G02*
X162300000Y-58900040I-200000J0D01*
G01*
X161100000Y-58900040D01*
G75*
G02*
X160900000Y-58700040I0J200000D01*
G01*
X160900000Y-57800040D01*
G75*
G02*
X161100000Y-57600040I200000J0D01*
G01*
G37*
G36*
G01*
X161100000Y-54300040D02*
X162300000Y-54300040D01*
G75*
G02*
X162500000Y-54500040I0J-200000D01*
G01*
X162500000Y-55400040D01*
G75*
G02*
X162300000Y-55600040I-200000J0D01*
G01*
X161100000Y-55600040D01*
G75*
G02*
X160900000Y-55400040I0J200000D01*
G01*
X160900000Y-54500040D01*
G75*
G02*
X161100000Y-54300040I200000J0D01*
G01*
G37*
G36*
G01*
X122700000Y-54300040D02*
X123900000Y-54300040D01*
G75*
G02*
X124100000Y-54500040I0J-200000D01*
G01*
X124100000Y-55400040D01*
G75*
G02*
X123900000Y-55600040I-200000J0D01*
G01*
X122700000Y-55600040D01*
G75*
G02*
X122500000Y-55400040I0J200000D01*
G01*
X122500000Y-54500040D01*
G75*
G02*
X122700000Y-54300040I200000J0D01*
G01*
G37*
G36*
G01*
X122700000Y-57600040D02*
X123900000Y-57600040D01*
G75*
G02*
X124100000Y-57800040I0J-200000D01*
G01*
X124100000Y-58700040D01*
G75*
G02*
X123900000Y-58900040I-200000J0D01*
G01*
X122700000Y-58900040D01*
G75*
G02*
X122500000Y-58700040I0J200000D01*
G01*
X122500000Y-57800040D01*
G75*
G02*
X122700000Y-57600040I200000J0D01*
G01*
G37*
G36*
G01*
X58800000Y-110300000D02*
X57600000Y-110300000D01*
G75*
G02*
X57400000Y-110100000I0J200000D01*
G01*
X57400000Y-109200000D01*
G75*
G02*
X57600000Y-109000000I200000J0D01*
G01*
X58800000Y-109000000D01*
G75*
G02*
X59000000Y-109200000I0J-200000D01*
G01*
X59000000Y-110100000D01*
G75*
G02*
X58800000Y-110300000I-200000J0D01*
G01*
G37*
G36*
G01*
X58800000Y-107000000D02*
X57600000Y-107000000D01*
G75*
G02*
X57400000Y-106800000I0J200000D01*
G01*
X57400000Y-105900000D01*
G75*
G02*
X57600000Y-105700000I200000J0D01*
G01*
X58800000Y-105700000D01*
G75*
G02*
X59000000Y-105900000I0J-200000D01*
G01*
X59000000Y-106800000D01*
G75*
G02*
X58800000Y-107000000I-200000J0D01*
G01*
G37*
G36*
G01*
X295850000Y-94700000D02*
X294650000Y-94700000D01*
G75*
G02*
X294450000Y-94500000I0J200000D01*
G01*
X294450000Y-93600000D01*
G75*
G02*
X294650000Y-93400000I200000J0D01*
G01*
X295850000Y-93400000D01*
G75*
G02*
X296050000Y-93600000I0J-200000D01*
G01*
X296050000Y-94500000D01*
G75*
G02*
X295850000Y-94700000I-200000J0D01*
G01*
G37*
G36*
G01*
X295850000Y-91400000D02*
X294650000Y-91400000D01*
G75*
G02*
X294450000Y-91200000I0J200000D01*
G01*
X294450000Y-90300000D01*
G75*
G02*
X294650000Y-90100000I200000J0D01*
G01*
X295850000Y-90100000D01*
G75*
G02*
X296050000Y-90300000I0J-200000D01*
G01*
X296050000Y-91200000D01*
G75*
G02*
X295850000Y-91400000I-200000J0D01*
G01*
G37*
G36*
G01*
X263230040Y-91750040D02*
X264430040Y-91750040D01*
G75*
G02*
X264630040Y-91950040I0J-200000D01*
G01*
X264630040Y-92850040D01*
G75*
G02*
X264430040Y-93050040I-200000J0D01*
G01*
X263230040Y-93050040D01*
G75*
G02*
X263030040Y-92850040I0J200000D01*
G01*
X263030040Y-91950040D01*
G75*
G02*
X263230040Y-91750040I200000J0D01*
G01*
G37*
G36*
G01*
X263230040Y-95050040D02*
X264430040Y-95050040D01*
G75*
G02*
X264630040Y-95250040I0J-200000D01*
G01*
X264630040Y-96150040D01*
G75*
G02*
X264430040Y-96350040I-200000J0D01*
G01*
X263230040Y-96350040D01*
G75*
G02*
X263030040Y-96150040I0J200000D01*
G01*
X263030040Y-95250040D01*
G75*
G02*
X263230040Y-95050040I200000J0D01*
G01*
G37*
G36*
G01*
X267900000Y-94700000D02*
X266700000Y-94700000D01*
G75*
G02*
X266500000Y-94500000I0J200000D01*
G01*
X266500000Y-93600000D01*
G75*
G02*
X266700000Y-93400000I200000J0D01*
G01*
X267900000Y-93400000D01*
G75*
G02*
X268100000Y-93600000I0J-200000D01*
G01*
X268100000Y-94500000D01*
G75*
G02*
X267900000Y-94700000I-200000J0D01*
G01*
G37*
G36*
G01*
X267900000Y-91400000D02*
X266700000Y-91400000D01*
G75*
G02*
X266500000Y-91200000I0J200000D01*
G01*
X266500000Y-90300000D01*
G75*
G02*
X266700000Y-90100000I200000J0D01*
G01*
X267900000Y-90100000D01*
G75*
G02*
X268100000Y-90300000I0J-200000D01*
G01*
X268100000Y-91200000D01*
G75*
G02*
X267900000Y-91400000I-200000J0D01*
G01*
G37*
G36*
G01*
X248450000Y-92200040D02*
X247250000Y-92200040D01*
G75*
G02*
X247050000Y-92000040I0J200000D01*
G01*
X247050000Y-91100040D01*
G75*
G02*
X247250000Y-90900040I200000J0D01*
G01*
X248450000Y-90900040D01*
G75*
G02*
X248650000Y-91100040I0J-200000D01*
G01*
X248650000Y-92000040D01*
G75*
G02*
X248450000Y-92200040I-200000J0D01*
G01*
G37*
G36*
G01*
X248450000Y-95500040D02*
X247250000Y-95500040D01*
G75*
G02*
X247050000Y-95300040I0J200000D01*
G01*
X247050000Y-94400040D01*
G75*
G02*
X247250000Y-94200040I200000J0D01*
G01*
X248450000Y-94200040D01*
G75*
G02*
X248650000Y-94400040I0J-200000D01*
G01*
X248650000Y-95300040D01*
G75*
G02*
X248450000Y-95500040I-200000J0D01*
G01*
G37*
G36*
G01*
X153600000Y-94700400D02*
X152400000Y-94700400D01*
G75*
G02*
X152200000Y-94500400I0J200000D01*
G01*
X152200000Y-93600400D01*
G75*
G02*
X152400000Y-93400400I200000J0D01*
G01*
X153600000Y-93400400D01*
G75*
G02*
X153800000Y-93600400I0J-200000D01*
G01*
X153800000Y-94500400D01*
G75*
G02*
X153600000Y-94700400I-200000J0D01*
G01*
G37*
G36*
G01*
X153600000Y-91400400D02*
X152400000Y-91400400D01*
G75*
G02*
X152200000Y-91200400I0J200000D01*
G01*
X152200000Y-90300400D01*
G75*
G02*
X152400000Y-90100400I200000J0D01*
G01*
X153600000Y-90100400D01*
G75*
G02*
X153800000Y-90300400I0J-200000D01*
G01*
X153800000Y-91200400D01*
G75*
G02*
X153600000Y-91400400I-200000J0D01*
G01*
G37*
G36*
G01*
X206250000Y-95850040D02*
X207450000Y-95850040D01*
G75*
G02*
X207650000Y-96050040I0J-200000D01*
G01*
X207650000Y-96950040D01*
G75*
G02*
X207450000Y-97150040I-200000J0D01*
G01*
X206250000Y-97150040D01*
G75*
G02*
X206050000Y-96950040I0J200000D01*
G01*
X206050000Y-96050040D01*
G75*
G02*
X206250000Y-95850040I200000J0D01*
G01*
G37*
G36*
G01*
X206250000Y-92550040D02*
X207450000Y-92550040D01*
G75*
G02*
X207650000Y-92750040I0J-200000D01*
G01*
X207650000Y-93650040D01*
G75*
G02*
X207450000Y-93850040I-200000J0D01*
G01*
X206250000Y-93850040D01*
G75*
G02*
X206050000Y-93650040I0J200000D01*
G01*
X206050000Y-92750040D01*
G75*
G02*
X206250000Y-92550040I200000J0D01*
G01*
G37*
G36*
G01*
X111650000Y-94750040D02*
X110450000Y-94750040D01*
G75*
G02*
X110250000Y-94550040I0J200000D01*
G01*
X110250000Y-93650040D01*
G75*
G02*
X110450000Y-93450040I200000J0D01*
G01*
X111650000Y-93450040D01*
G75*
G02*
X111850000Y-93650040I0J-200000D01*
G01*
X111850000Y-94550040D01*
G75*
G02*
X111650000Y-94750040I-200000J0D01*
G01*
G37*
G36*
G01*
X111650000Y-91450040D02*
X110450000Y-91450040D01*
G75*
G02*
X110250000Y-91250040I0J200000D01*
G01*
X110250000Y-90350040D01*
G75*
G02*
X110450000Y-90150040I200000J0D01*
G01*
X111650000Y-90150040D01*
G75*
G02*
X111850000Y-90350040I0J-200000D01*
G01*
X111850000Y-91250040D01*
G75*
G02*
X111650000Y-91450040I-200000J0D01*
G01*
G37*
G36*
G01*
X87200000Y-91750040D02*
X88400000Y-91750040D01*
G75*
G02*
X88600000Y-91950040I0J-200000D01*
G01*
X88600000Y-92850040D01*
G75*
G02*
X88400000Y-93050040I-200000J0D01*
G01*
X87200000Y-93050040D01*
G75*
G02*
X87000000Y-92850040I0J200000D01*
G01*
X87000000Y-91950040D01*
G75*
G02*
X87200000Y-91750040I200000J0D01*
G01*
G37*
G36*
G01*
X87200000Y-95050040D02*
X88400000Y-95050040D01*
G75*
G02*
X88600000Y-95250040I0J-200000D01*
G01*
X88600000Y-96150040D01*
G75*
G02*
X88400000Y-96350040I-200000J0D01*
G01*
X87200000Y-96350040D01*
G75*
G02*
X87000000Y-96150040I0J200000D01*
G01*
X87000000Y-95250040D01*
G75*
G02*
X87200000Y-95050040I200000J0D01*
G01*
G37*
D13*
X196240040Y-64795400D03*
D14*
X193700040Y-69875400D03*
D13*
X189890040Y-67335400D03*
D15*
X188620040Y-69875400D03*
X198780040Y-69875400D03*
G36*
G01*
X185140040Y-68585400D02*
X185140040Y-66085400D01*
G75*
G02*
X185340040Y-65885400I200000J0D01*
G01*
X187890040Y-65885400D01*
G75*
G02*
X188090040Y-66085400I0J-200000D01*
G01*
X188090040Y-68585400D01*
G75*
G02*
X187890040Y-68785400I-200000J0D01*
G01*
X185340040Y-68785400D01*
G75*
G02*
X185140040Y-68585400I0J200000D01*
G01*
G37*
G36*
G01*
X198067040Y-66045400D02*
X198067040Y-63545400D01*
G75*
G02*
X198267040Y-63345400I200000J0D01*
G01*
X200817040Y-63345400D01*
G75*
G02*
X201017040Y-63545400I0J-200000D01*
G01*
X201017040Y-66045400D01*
G75*
G02*
X200817040Y-66245400I-200000J0D01*
G01*
X198267040Y-66245400D01*
G75*
G02*
X198067040Y-66045400I0J200000D01*
G01*
G37*
D13*
X243865040Y-102895400D03*
D14*
X241325040Y-107975400D03*
D13*
X237515040Y-105435400D03*
D15*
X236245040Y-107975400D03*
X246405040Y-107975400D03*
G36*
G01*
X232765040Y-106685400D02*
X232765040Y-104185400D01*
G75*
G02*
X232965040Y-103985400I200000J0D01*
G01*
X235515040Y-103985400D01*
G75*
G02*
X235715040Y-104185400I0J-200000D01*
G01*
X235715040Y-106685400D01*
G75*
G02*
X235515040Y-106885400I-200000J0D01*
G01*
X232965040Y-106885400D01*
G75*
G02*
X232765040Y-106685400I0J200000D01*
G01*
G37*
G36*
G01*
X245692040Y-104145400D02*
X245692040Y-101645400D01*
G75*
G02*
X245892040Y-101445400I200000J0D01*
G01*
X248442040Y-101445400D01*
G75*
G02*
X248642040Y-101645400I0J-200000D01*
G01*
X248642040Y-104145400D01*
G75*
G02*
X248442040Y-104345400I-200000J0D01*
G01*
X245892040Y-104345400D01*
G75*
G02*
X245692040Y-104145400I0J200000D01*
G01*
G37*
G36*
G01*
X224850000Y-95050040D02*
X226050000Y-95050040D01*
G75*
G02*
X226250000Y-95250040I0J-200000D01*
G01*
X226250000Y-96150040D01*
G75*
G02*
X226050000Y-96350040I-200000J0D01*
G01*
X224850000Y-96350040D01*
G75*
G02*
X224650000Y-96150040I0J200000D01*
G01*
X224650000Y-95250040D01*
G75*
G02*
X224850000Y-95050040I200000J0D01*
G01*
G37*
G36*
G01*
X224850000Y-91750040D02*
X226050000Y-91750040D01*
G75*
G02*
X226250000Y-91950040I0J-200000D01*
G01*
X226250000Y-92850040D01*
G75*
G02*
X226050000Y-93050040I-200000J0D01*
G01*
X224850000Y-93050040D01*
G75*
G02*
X224650000Y-92850040I0J200000D01*
G01*
X224650000Y-91950040D01*
G75*
G02*
X224850000Y-91750040I200000J0D01*
G01*
G37*
D13*
X260533790Y-102895400D03*
D14*
X257993790Y-107975400D03*
D13*
X254183790Y-105435400D03*
D15*
X252913790Y-107975400D03*
X263073790Y-107975400D03*
G36*
G01*
X249433790Y-106685400D02*
X249433790Y-104185400D01*
G75*
G02*
X249633790Y-103985400I200000J0D01*
G01*
X252183790Y-103985400D01*
G75*
G02*
X252383790Y-104185400I0J-200000D01*
G01*
X252383790Y-106685400D01*
G75*
G02*
X252183790Y-106885400I-200000J0D01*
G01*
X249633790Y-106885400D01*
G75*
G02*
X249433790Y-106685400I0J200000D01*
G01*
G37*
G36*
G01*
X262360790Y-104145400D02*
X262360790Y-101645400D01*
G75*
G02*
X262560790Y-101445400I200000J0D01*
G01*
X265110790Y-101445400D01*
G75*
G02*
X265310790Y-101645400I0J-200000D01*
G01*
X265310790Y-104145400D01*
G75*
G02*
X265110790Y-104345400I-200000J0D01*
G01*
X262560790Y-104345400D01*
G75*
G02*
X262360790Y-104145400I0J200000D01*
G01*
G37*
G36*
G01*
X93200040Y-77600400D02*
X93200040Y-75900400D01*
G75*
G02*
X93400040Y-75700400I200000J0D01*
G01*
X95100040Y-75700400D01*
G75*
G02*
X95300040Y-75900400I0J-200000D01*
G01*
X95300040Y-77600400D01*
G75*
G02*
X95100040Y-77800400I-200000J0D01*
G01*
X93400040Y-77800400D01*
G75*
G02*
X93200040Y-77600400I0J200000D01*
G01*
G37*
D18*
X94250040Y-74210400D03*
G36*
G01*
X101250000Y-73150000D02*
X102950000Y-73150000D01*
G75*
G02*
X103150000Y-73350000I0J-200000D01*
G01*
X103150000Y-75050000D01*
G75*
G02*
X102950000Y-75250000I-200000J0D01*
G01*
X101250000Y-75250000D01*
G75*
G02*
X101050000Y-75050000I0J200000D01*
G01*
X101050000Y-73350000D01*
G75*
G02*
X101250000Y-73150000I200000J0D01*
G01*
G37*
X102100000Y-76740000D03*
X104640000Y-74200000D03*
X104640000Y-76740000D03*
X107180000Y-74200000D03*
X107180000Y-76740000D03*
D19*
X148500000Y-114960520D03*
X290000000Y-114960520D03*
X196200000Y-114960520D03*
X221700000Y-114960520D03*
X82800000Y-114960520D03*
X169900000Y-114960520D03*
X158050040Y-114960520D03*
X250900000Y-114960520D03*
X59400000Y-114960520D03*
X24900000Y-114960520D03*
X143850000Y-98460520D03*
X143850000Y-100960520D03*
X143850000Y-103450520D03*
X143850000Y-105950520D03*
X143850000Y-108450520D03*
X106850000Y-98450520D03*
X106850000Y-100960520D03*
X106850000Y-103450520D03*
X106850000Y-105950520D03*
X106850000Y-108460520D03*
D13*
X167665040Y-102895400D03*
D14*
X165125040Y-107975400D03*
D13*
X161315040Y-105435400D03*
D15*
X160045040Y-107975400D03*
X170205040Y-107975400D03*
G36*
G01*
X156565040Y-106685400D02*
X156565040Y-104185400D01*
G75*
G02*
X156765040Y-103985400I200000J0D01*
G01*
X159315040Y-103985400D01*
G75*
G02*
X159515040Y-104185400I0J-200000D01*
G01*
X159515040Y-106685400D01*
G75*
G02*
X159315040Y-106885400I-200000J0D01*
G01*
X156765040Y-106885400D01*
G75*
G02*
X156565040Y-106685400I0J200000D01*
G01*
G37*
G36*
G01*
X169492040Y-104145400D02*
X169492040Y-101645400D01*
G75*
G02*
X169692040Y-101445400I200000J0D01*
G01*
X172242040Y-101445400D01*
G75*
G02*
X172442040Y-101645400I0J-200000D01*
G01*
X172442040Y-104145400D01*
G75*
G02*
X172242040Y-104345400I-200000J0D01*
G01*
X169692040Y-104345400D01*
G75*
G02*
X169492040Y-104145400I0J200000D01*
G01*
G37*
D17*
X177063040Y-114960400D03*
X153187040Y-114960400D03*
D14*
X177063040Y-99720400D03*
X153187040Y-99720400D03*
G36*
G01*
X61625040Y-72125400D02*
X62175040Y-72125400D01*
G75*
G02*
X62375040Y-72325400I0J-200000D01*
G01*
X62375040Y-73825400D01*
G75*
G02*
X62175040Y-74025400I-200000J0D01*
G01*
X61625040Y-74025400D01*
G75*
G02*
X61425040Y-73825400I0J200000D01*
G01*
X61425040Y-72325400D01*
G75*
G02*
X61625040Y-72125400I200000J0D01*
G01*
G37*
G36*
G01*
X62425040Y-72125400D02*
X62975040Y-72125400D01*
G75*
G02*
X63175040Y-72325400I0J-200000D01*
G01*
X63175040Y-73825400D01*
G75*
G02*
X62975040Y-74025400I-200000J0D01*
G01*
X62425040Y-74025400D01*
G75*
G02*
X62225040Y-73825400I0J200000D01*
G01*
X62225040Y-72325400D01*
G75*
G02*
X62425040Y-72125400I200000J0D01*
G01*
G37*
G36*
G01*
X63225040Y-72125400D02*
X63775040Y-72125400D01*
G75*
G02*
X63975040Y-72325400I0J-200000D01*
G01*
X63975040Y-73825400D01*
G75*
G02*
X63775040Y-74025400I-200000J0D01*
G01*
X63225040Y-74025400D01*
G75*
G02*
X63025040Y-73825400I0J200000D01*
G01*
X63025040Y-72325400D01*
G75*
G02*
X63225040Y-72125400I200000J0D01*
G01*
G37*
G36*
G01*
X64025040Y-72125400D02*
X64575040Y-72125400D01*
G75*
G02*
X64775040Y-72325400I0J-200000D01*
G01*
X64775040Y-73825400D01*
G75*
G02*
X64575040Y-74025400I-200000J0D01*
G01*
X64025040Y-74025400D01*
G75*
G02*
X63825040Y-73825400I0J200000D01*
G01*
X63825040Y-72325400D01*
G75*
G02*
X64025040Y-72125400I200000J0D01*
G01*
G37*
G36*
G01*
X64825040Y-72125400D02*
X65375040Y-72125400D01*
G75*
G02*
X65575040Y-72325400I0J-200000D01*
G01*
X65575040Y-73825400D01*
G75*
G02*
X65375040Y-74025400I-200000J0D01*
G01*
X64825040Y-74025400D01*
G75*
G02*
X64625040Y-73825400I0J200000D01*
G01*
X64625040Y-72325400D01*
G75*
G02*
X64825040Y-72125400I200000J0D01*
G01*
G37*
G36*
G01*
X65625040Y-72125400D02*
X66175040Y-72125400D01*
G75*
G02*
X66375040Y-72325400I0J-200000D01*
G01*
X66375040Y-73825400D01*
G75*
G02*
X66175040Y-74025400I-200000J0D01*
G01*
X65625040Y-74025400D01*
G75*
G02*
X65425040Y-73825400I0J200000D01*
G01*
X65425040Y-72325400D01*
G75*
G02*
X65625040Y-72125400I200000J0D01*
G01*
G37*
G36*
G01*
X66425040Y-72125400D02*
X66975040Y-72125400D01*
G75*
G02*
X67175040Y-72325400I0J-200000D01*
G01*
X67175040Y-73825400D01*
G75*
G02*
X66975040Y-74025400I-200000J0D01*
G01*
X66425040Y-74025400D01*
G75*
G02*
X66225040Y-73825400I0J200000D01*
G01*
X66225040Y-72325400D01*
G75*
G02*
X66425040Y-72125400I200000J0D01*
G01*
G37*
G36*
G01*
X67225040Y-72125400D02*
X67775040Y-72125400D01*
G75*
G02*
X67975040Y-72325400I0J-200000D01*
G01*
X67975040Y-73825400D01*
G75*
G02*
X67775040Y-74025400I-200000J0D01*
G01*
X67225040Y-74025400D01*
G75*
G02*
X67025040Y-73825400I0J200000D01*
G01*
X67025040Y-72325400D01*
G75*
G02*
X67225040Y-72125400I200000J0D01*
G01*
G37*
G36*
G01*
X68025040Y-72125400D02*
X68575040Y-72125400D01*
G75*
G02*
X68775040Y-72325400I0J-200000D01*
G01*
X68775040Y-73825400D01*
G75*
G02*
X68575040Y-74025400I-200000J0D01*
G01*
X68025040Y-74025400D01*
G75*
G02*
X67825040Y-73825400I0J200000D01*
G01*
X67825040Y-72325400D01*
G75*
G02*
X68025040Y-72125400I200000J0D01*
G01*
G37*
G36*
G01*
X68825040Y-72125400D02*
X69375040Y-72125400D01*
G75*
G02*
X69575040Y-72325400I0J-200000D01*
G01*
X69575040Y-73825400D01*
G75*
G02*
X69375040Y-74025400I-200000J0D01*
G01*
X68825040Y-74025400D01*
G75*
G02*
X68625040Y-73825400I0J200000D01*
G01*
X68625040Y-72325400D01*
G75*
G02*
X68825040Y-72125400I200000J0D01*
G01*
G37*
G36*
G01*
X69625040Y-72125400D02*
X70175040Y-72125400D01*
G75*
G02*
X70375040Y-72325400I0J-200000D01*
G01*
X70375040Y-73825400D01*
G75*
G02*
X70175040Y-74025400I-200000J0D01*
G01*
X69625040Y-74025400D01*
G75*
G02*
X69425040Y-73825400I0J200000D01*
G01*
X69425040Y-72325400D01*
G75*
G02*
X69625040Y-72125400I200000J0D01*
G01*
G37*
G36*
G01*
X72550040Y-74500400D02*
X72550040Y-75050400D01*
G75*
G02*
X72350040Y-75250400I-200000J0D01*
G01*
X70850040Y-75250400D01*
G75*
G02*
X70650040Y-75050400I0J200000D01*
G01*
X70650040Y-74500400D01*
G75*
G02*
X70850040Y-74300400I200000J0D01*
G01*
X72350040Y-74300400D01*
G75*
G02*
X72550040Y-74500400I0J-200000D01*
G01*
G37*
G36*
G01*
X72550040Y-75300400D02*
X72550040Y-75850400D01*
G75*
G02*
X72350040Y-76050400I-200000J0D01*
G01*
X70850040Y-76050400D01*
G75*
G02*
X70650040Y-75850400I0J200000D01*
G01*
X70650040Y-75300400D01*
G75*
G02*
X70850040Y-75100400I200000J0D01*
G01*
X72350040Y-75100400D01*
G75*
G02*
X72550040Y-75300400I0J-200000D01*
G01*
G37*
G36*
G01*
X72550040Y-76100400D02*
X72550040Y-76650400D01*
G75*
G02*
X72350040Y-76850400I-200000J0D01*
G01*
X70850040Y-76850400D01*
G75*
G02*
X70650040Y-76650400I0J200000D01*
G01*
X70650040Y-76100400D01*
G75*
G02*
X70850040Y-75900400I200000J0D01*
G01*
X72350040Y-75900400D01*
G75*
G02*
X72550040Y-76100400I0J-200000D01*
G01*
G37*
G36*
G01*
X72550040Y-76900400D02*
X72550040Y-77450400D01*
G75*
G02*
X72350040Y-77650400I-200000J0D01*
G01*
X70850040Y-77650400D01*
G75*
G02*
X70650040Y-77450400I0J200000D01*
G01*
X70650040Y-76900400D01*
G75*
G02*
X70850040Y-76700400I200000J0D01*
G01*
X72350040Y-76700400D01*
G75*
G02*
X72550040Y-76900400I0J-200000D01*
G01*
G37*
G36*
G01*
X72550040Y-77700400D02*
X72550040Y-78250400D01*
G75*
G02*
X72350040Y-78450400I-200000J0D01*
G01*
X70850040Y-78450400D01*
G75*
G02*
X70650040Y-78250400I0J200000D01*
G01*
X70650040Y-77700400D01*
G75*
G02*
X70850040Y-77500400I200000J0D01*
G01*
X72350040Y-77500400D01*
G75*
G02*
X72550040Y-77700400I0J-200000D01*
G01*
G37*
G36*
G01*
X72550040Y-78500400D02*
X72550040Y-79050400D01*
G75*
G02*
X72350040Y-79250400I-200000J0D01*
G01*
X70850040Y-79250400D01*
G75*
G02*
X70650040Y-79050400I0J200000D01*
G01*
X70650040Y-78500400D01*
G75*
G02*
X70850040Y-78300400I200000J0D01*
G01*
X72350040Y-78300400D01*
G75*
G02*
X72550040Y-78500400I0J-200000D01*
G01*
G37*
G36*
G01*
X72550040Y-79300400D02*
X72550040Y-79850400D01*
G75*
G02*
X72350040Y-80050400I-200000J0D01*
G01*
X70850040Y-80050400D01*
G75*
G02*
X70650040Y-79850400I0J200000D01*
G01*
X70650040Y-79300400D01*
G75*
G02*
X70850040Y-79100400I200000J0D01*
G01*
X72350040Y-79100400D01*
G75*
G02*
X72550040Y-79300400I0J-200000D01*
G01*
G37*
G36*
G01*
X72550040Y-80100400D02*
X72550040Y-80650400D01*
G75*
G02*
X72350040Y-80850400I-200000J0D01*
G01*
X70850040Y-80850400D01*
G75*
G02*
X70650040Y-80650400I0J200000D01*
G01*
X70650040Y-80100400D01*
G75*
G02*
X70850040Y-79900400I200000J0D01*
G01*
X72350040Y-79900400D01*
G75*
G02*
X72550040Y-80100400I0J-200000D01*
G01*
G37*
G36*
G01*
X72550040Y-80900400D02*
X72550040Y-81450400D01*
G75*
G02*
X72350040Y-81650400I-200000J0D01*
G01*
X70850040Y-81650400D01*
G75*
G02*
X70650040Y-81450400I0J200000D01*
G01*
X70650040Y-80900400D01*
G75*
G02*
X70850040Y-80700400I200000J0D01*
G01*
X72350040Y-80700400D01*
G75*
G02*
X72550040Y-80900400I0J-200000D01*
G01*
G37*
G36*
G01*
X72550040Y-81700400D02*
X72550040Y-82250400D01*
G75*
G02*
X72350040Y-82450400I-200000J0D01*
G01*
X70850040Y-82450400D01*
G75*
G02*
X70650040Y-82250400I0J200000D01*
G01*
X70650040Y-81700400D01*
G75*
G02*
X70850040Y-81500400I200000J0D01*
G01*
X72350040Y-81500400D01*
G75*
G02*
X72550040Y-81700400I0J-200000D01*
G01*
G37*
G36*
G01*
X72550040Y-82500400D02*
X72550040Y-83050400D01*
G75*
G02*
X72350040Y-83250400I-200000J0D01*
G01*
X70850040Y-83250400D01*
G75*
G02*
X70650040Y-83050400I0J200000D01*
G01*
X70650040Y-82500400D01*
G75*
G02*
X70850040Y-82300400I200000J0D01*
G01*
X72350040Y-82300400D01*
G75*
G02*
X72550040Y-82500400I0J-200000D01*
G01*
G37*
G36*
G01*
X69625040Y-83525400D02*
X70175040Y-83525400D01*
G75*
G02*
X70375040Y-83725400I0J-200000D01*
G01*
X70375040Y-85225400D01*
G75*
G02*
X70175040Y-85425400I-200000J0D01*
G01*
X69625040Y-85425400D01*
G75*
G02*
X69425040Y-85225400I0J200000D01*
G01*
X69425040Y-83725400D01*
G75*
G02*
X69625040Y-83525400I200000J0D01*
G01*
G37*
G36*
G01*
X68825040Y-83525400D02*
X69375040Y-83525400D01*
G75*
G02*
X69575040Y-83725400I0J-200000D01*
G01*
X69575040Y-85225400D01*
G75*
G02*
X69375040Y-85425400I-200000J0D01*
G01*
X68825040Y-85425400D01*
G75*
G02*
X68625040Y-85225400I0J200000D01*
G01*
X68625040Y-83725400D01*
G75*
G02*
X68825040Y-83525400I200000J0D01*
G01*
G37*
G36*
G01*
X68025040Y-83525400D02*
X68575040Y-83525400D01*
G75*
G02*
X68775040Y-83725400I0J-200000D01*
G01*
X68775040Y-85225400D01*
G75*
G02*
X68575040Y-85425400I-200000J0D01*
G01*
X68025040Y-85425400D01*
G75*
G02*
X67825040Y-85225400I0J200000D01*
G01*
X67825040Y-83725400D01*
G75*
G02*
X68025040Y-83525400I200000J0D01*
G01*
G37*
G36*
G01*
X67225040Y-83525400D02*
X67775040Y-83525400D01*
G75*
G02*
X67975040Y-83725400I0J-200000D01*
G01*
X67975040Y-85225400D01*
G75*
G02*
X67775040Y-85425400I-200000J0D01*
G01*
X67225040Y-85425400D01*
G75*
G02*
X67025040Y-85225400I0J200000D01*
G01*
X67025040Y-83725400D01*
G75*
G02*
X67225040Y-83525400I200000J0D01*
G01*
G37*
G36*
G01*
X66425040Y-83525400D02*
X66975040Y-83525400D01*
G75*
G02*
X67175040Y-83725400I0J-200000D01*
G01*
X67175040Y-85225400D01*
G75*
G02*
X66975040Y-85425400I-200000J0D01*
G01*
X66425040Y-85425400D01*
G75*
G02*
X66225040Y-85225400I0J200000D01*
G01*
X66225040Y-83725400D01*
G75*
G02*
X66425040Y-83525400I200000J0D01*
G01*
G37*
G36*
G01*
X65625040Y-83525400D02*
X66175040Y-83525400D01*
G75*
G02*
X66375040Y-83725400I0J-200000D01*
G01*
X66375040Y-85225400D01*
G75*
G02*
X66175040Y-85425400I-200000J0D01*
G01*
X65625040Y-85425400D01*
G75*
G02*
X65425040Y-85225400I0J200000D01*
G01*
X65425040Y-83725400D01*
G75*
G02*
X65625040Y-83525400I200000J0D01*
G01*
G37*
G36*
G01*
X64825040Y-83525400D02*
X65375040Y-83525400D01*
G75*
G02*
X65575040Y-83725400I0J-200000D01*
G01*
X65575040Y-85225400D01*
G75*
G02*
X65375040Y-85425400I-200000J0D01*
G01*
X64825040Y-85425400D01*
G75*
G02*
X64625040Y-85225400I0J200000D01*
G01*
X64625040Y-83725400D01*
G75*
G02*
X64825040Y-83525400I200000J0D01*
G01*
G37*
G36*
G01*
X64025040Y-83525400D02*
X64575040Y-83525400D01*
G75*
G02*
X64775040Y-83725400I0J-200000D01*
G01*
X64775040Y-85225400D01*
G75*
G02*
X64575040Y-85425400I-200000J0D01*
G01*
X64025040Y-85425400D01*
G75*
G02*
X63825040Y-85225400I0J200000D01*
G01*
X63825040Y-83725400D01*
G75*
G02*
X64025040Y-83525400I200000J0D01*
G01*
G37*
G36*
G01*
X63225040Y-83525400D02*
X63775040Y-83525400D01*
G75*
G02*
X63975040Y-83725400I0J-200000D01*
G01*
X63975040Y-85225400D01*
G75*
G02*
X63775040Y-85425400I-200000J0D01*
G01*
X63225040Y-85425400D01*
G75*
G02*
X63025040Y-85225400I0J200000D01*
G01*
X63025040Y-83725400D01*
G75*
G02*
X63225040Y-83525400I200000J0D01*
G01*
G37*
G36*
G01*
X62425040Y-83525400D02*
X62975040Y-83525400D01*
G75*
G02*
X63175040Y-83725400I0J-200000D01*
G01*
X63175040Y-85225400D01*
G75*
G02*
X62975040Y-85425400I-200000J0D01*
G01*
X62425040Y-85425400D01*
G75*
G02*
X62225040Y-85225400I0J200000D01*
G01*
X62225040Y-83725400D01*
G75*
G02*
X62425040Y-83525400I200000J0D01*
G01*
G37*
G36*
G01*
X61625040Y-83525400D02*
X62175040Y-83525400D01*
G75*
G02*
X62375040Y-83725400I0J-200000D01*
G01*
X62375040Y-85225400D01*
G75*
G02*
X62175040Y-85425400I-200000J0D01*
G01*
X61625040Y-85425400D01*
G75*
G02*
X61425040Y-85225400I0J200000D01*
G01*
X61425040Y-83725400D01*
G75*
G02*
X61625040Y-83525400I200000J0D01*
G01*
G37*
G36*
G01*
X61150040Y-82500400D02*
X61150040Y-83050400D01*
G75*
G02*
X60950040Y-83250400I-200000J0D01*
G01*
X59450040Y-83250400D01*
G75*
G02*
X59250040Y-83050400I0J200000D01*
G01*
X59250040Y-82500400D01*
G75*
G02*
X59450040Y-82300400I200000J0D01*
G01*
X60950040Y-82300400D01*
G75*
G02*
X61150040Y-82500400I0J-200000D01*
G01*
G37*
G36*
G01*
X61150040Y-81700400D02*
X61150040Y-82250400D01*
G75*
G02*
X60950040Y-82450400I-200000J0D01*
G01*
X59450040Y-82450400D01*
G75*
G02*
X59250040Y-82250400I0J200000D01*
G01*
X59250040Y-81700400D01*
G75*
G02*
X59450040Y-81500400I200000J0D01*
G01*
X60950040Y-81500400D01*
G75*
G02*
X61150040Y-81700400I0J-200000D01*
G01*
G37*
G36*
G01*
X61150040Y-80900400D02*
X61150040Y-81450400D01*
G75*
G02*
X60950040Y-81650400I-200000J0D01*
G01*
X59450040Y-81650400D01*
G75*
G02*
X59250040Y-81450400I0J200000D01*
G01*
X59250040Y-80900400D01*
G75*
G02*
X59450040Y-80700400I200000J0D01*
G01*
X60950040Y-80700400D01*
G75*
G02*
X61150040Y-80900400I0J-200000D01*
G01*
G37*
G36*
G01*
X61150040Y-80100400D02*
X61150040Y-80650400D01*
G75*
G02*
X60950040Y-80850400I-200000J0D01*
G01*
X59450040Y-80850400D01*
G75*
G02*
X59250040Y-80650400I0J200000D01*
G01*
X59250040Y-80100400D01*
G75*
G02*
X59450040Y-79900400I200000J0D01*
G01*
X60950040Y-79900400D01*
G75*
G02*
X61150040Y-80100400I0J-200000D01*
G01*
G37*
G36*
G01*
X61150040Y-79300400D02*
X61150040Y-79850400D01*
G75*
G02*
X60950040Y-80050400I-200000J0D01*
G01*
X59450040Y-80050400D01*
G75*
G02*
X59250040Y-79850400I0J200000D01*
G01*
X59250040Y-79300400D01*
G75*
G02*
X59450040Y-79100400I200000J0D01*
G01*
X60950040Y-79100400D01*
G75*
G02*
X61150040Y-79300400I0J-200000D01*
G01*
G37*
G36*
G01*
X61150040Y-78500400D02*
X61150040Y-79050400D01*
G75*
G02*
X60950040Y-79250400I-200000J0D01*
G01*
X59450040Y-79250400D01*
G75*
G02*
X59250040Y-79050400I0J200000D01*
G01*
X59250040Y-78500400D01*
G75*
G02*
X59450040Y-78300400I200000J0D01*
G01*
X60950040Y-78300400D01*
G75*
G02*
X61150040Y-78500400I0J-200000D01*
G01*
G37*
G36*
G01*
X61150040Y-77700400D02*
X61150040Y-78250400D01*
G75*
G02*
X60950040Y-78450400I-200000J0D01*
G01*
X59450040Y-78450400D01*
G75*
G02*
X59250040Y-78250400I0J200000D01*
G01*
X59250040Y-77700400D01*
G75*
G02*
X59450040Y-77500400I200000J0D01*
G01*
X60950040Y-77500400D01*
G75*
G02*
X61150040Y-77700400I0J-200000D01*
G01*
G37*
G36*
G01*
X61150040Y-76900400D02*
X61150040Y-77450400D01*
G75*
G02*
X60950040Y-77650400I-200000J0D01*
G01*
X59450040Y-77650400D01*
G75*
G02*
X59250040Y-77450400I0J200000D01*
G01*
X59250040Y-76900400D01*
G75*
G02*
X59450040Y-76700400I200000J0D01*
G01*
X60950040Y-76700400D01*
G75*
G02*
X61150040Y-76900400I0J-200000D01*
G01*
G37*
G36*
G01*
X61150040Y-76100400D02*
X61150040Y-76650400D01*
G75*
G02*
X60950040Y-76850400I-200000J0D01*
G01*
X59450040Y-76850400D01*
G75*
G02*
X59250040Y-76650400I0J200000D01*
G01*
X59250040Y-76100400D01*
G75*
G02*
X59450040Y-75900400I200000J0D01*
G01*
X60950040Y-75900400D01*
G75*
G02*
X61150040Y-76100400I0J-200000D01*
G01*
G37*
G36*
G01*
X61150040Y-75300400D02*
X61150040Y-75850400D01*
G75*
G02*
X60950040Y-76050400I-200000J0D01*
G01*
X59450040Y-76050400D01*
G75*
G02*
X59250040Y-75850400I0J200000D01*
G01*
X59250040Y-75300400D01*
G75*
G02*
X59450040Y-75100400I200000J0D01*
G01*
X60950040Y-75100400D01*
G75*
G02*
X61150040Y-75300400I0J-200000D01*
G01*
G37*
G36*
G01*
X61150040Y-74500400D02*
X61150040Y-75050400D01*
G75*
G02*
X60950040Y-75250400I-200000J0D01*
G01*
X59450040Y-75250400D01*
G75*
G02*
X59250040Y-75050400I0J200000D01*
G01*
X59250040Y-74500400D01*
G75*
G02*
X59450040Y-74300400I200000J0D01*
G01*
X60950040Y-74300400D01*
G75*
G02*
X61150040Y-74500400I0J-200000D01*
G01*
G37*
D20*
X117500000Y-26800000D03*
X212750000Y-26800000D03*
X106450000Y-112400000D03*
X208000000Y-112400000D03*
D13*
X276726250Y-67335040D03*
D14*
X281806250Y-69875040D03*
D13*
X279266250Y-73685040D03*
D15*
X281806250Y-74955040D03*
X281806250Y-64795040D03*
G36*
G01*
X280516250Y-78435040D02*
X278016250Y-78435040D01*
G75*
G02*
X277816250Y-78235040I0J200000D01*
G01*
X277816250Y-75685040D01*
G75*
G02*
X278016250Y-75485040I200000J0D01*
G01*
X280516250Y-75485040D01*
G75*
G02*
X280716250Y-75685040I0J-200000D01*
G01*
X280716250Y-78235040D01*
G75*
G02*
X280516250Y-78435040I-200000J0D01*
G01*
G37*
G36*
G01*
X277976250Y-65508040D02*
X275476250Y-65508040D01*
G75*
G02*
X275276250Y-65308040I0J200000D01*
G01*
X275276250Y-62758040D01*
G75*
G02*
X275476250Y-62558040I200000J0D01*
G01*
X277976250Y-62558040D01*
G75*
G02*
X278176250Y-62758040I0J-200000D01*
G01*
X278176250Y-65308040D01*
G75*
G02*
X277976250Y-65508040I-200000J0D01*
G01*
G37*
D17*
X293744250Y-62890040D03*
X269868250Y-62890040D03*
D14*
X293744250Y-78130040D03*
X269868250Y-78130040D03*
D11*
X64850000Y-91050000D03*
X60000000Y-86575000D03*
X73650000Y-84050040D03*
X57950000Y-76850040D03*
X57950000Y-80450040D03*
X55950000Y-80450040D03*
X64300000Y-86600000D03*
X66300000Y-97075000D03*
D13*
X291490000Y-26695040D03*
D14*
X288950000Y-31775040D03*
D13*
X285140000Y-29235040D03*
D15*
X283870000Y-31775040D03*
X294030000Y-31775040D03*
G36*
G01*
X280390000Y-30485040D02*
X280390000Y-27985040D01*
G75*
G02*
X280590000Y-27785040I200000J0D01*
G01*
X283140000Y-27785040D01*
G75*
G02*
X283340000Y-27985040I0J-200000D01*
G01*
X283340000Y-30485040D01*
G75*
G02*
X283140000Y-30685040I-200000J0D01*
G01*
X280590000Y-30685040D01*
G75*
G02*
X280390000Y-30485040I0J200000D01*
G01*
G37*
G36*
G01*
X293317000Y-27945040D02*
X293317000Y-25445040D01*
G75*
G02*
X293517000Y-25245040I200000J0D01*
G01*
X296067000Y-25245040D01*
G75*
G02*
X296267000Y-25445040I0J-200000D01*
G01*
X296267000Y-27945040D01*
G75*
G02*
X296067000Y-28145040I-200000J0D01*
G01*
X293517000Y-28145040D01*
G75*
G02*
X293317000Y-27945040I0J200000D01*
G01*
G37*
D17*
X300888000Y-24790040D03*
X277012000Y-24790040D03*
D14*
X300888000Y-40030040D03*
X277012000Y-40030040D03*
D21*
X298493580Y-112465550D03*
X298493580Y-103465550D03*
D22*
X298493580Y-107965550D03*
G36*
G01*
X299993580Y-99265550D02*
X301993580Y-99265550D01*
G75*
G02*
X302193580Y-99465550I0J-200000D01*
G01*
X302193580Y-101465550D01*
G75*
G02*
X301993580Y-101665550I-200000J0D01*
G01*
X299993580Y-101665550D01*
G75*
G02*
X299793580Y-101465550I0J200000D01*
G01*
X299793580Y-99465550D01*
G75*
G02*
X299993580Y-99265550I200000J0D01*
G01*
G37*
D23*
X298493580Y-100465550D03*
X295993580Y-100465550D03*
G36*
G01*
X303093580Y-106165550D02*
X305093580Y-106165550D01*
G75*
G02*
X305293580Y-106365550I0J-200000D01*
G01*
X305293580Y-109565550D01*
G75*
G02*
X305093580Y-109765550I-200000J0D01*
G01*
X303093580Y-109765550D01*
G75*
G02*
X302893580Y-109565550I0J200000D01*
G01*
X302893580Y-106365550D01*
G75*
G02*
X303093580Y-106165550I200000J0D01*
G01*
G37*
G36*
G01*
X291893580Y-106165550D02*
X293893580Y-106165550D01*
G75*
G02*
X294093580Y-106365550I0J-200000D01*
G01*
X294093580Y-109565550D01*
G75*
G02*
X293893580Y-109765550I-200000J0D01*
G01*
X291893580Y-109765550D01*
G75*
G02*
X291693580Y-109565550I0J200000D01*
G01*
X291693580Y-106365550D01*
G75*
G02*
X291893580Y-106165550I200000J0D01*
G01*
G37*
X300993580Y-114965550D03*
X295993580Y-114965550D03*
X29271347Y-114952828D03*
X34271347Y-114952828D03*
G36*
G01*
X25171347Y-106152828D02*
X27171347Y-106152828D01*
G75*
G02*
X27371347Y-106352828I0J-200000D01*
G01*
X27371347Y-109552828D01*
G75*
G02*
X27171347Y-109752828I-200000J0D01*
G01*
X25171347Y-109752828D01*
G75*
G02*
X24971347Y-109552828I0J200000D01*
G01*
X24971347Y-106352828D01*
G75*
G02*
X25171347Y-106152828I200000J0D01*
G01*
G37*
G36*
G01*
X36371347Y-106152828D02*
X38371347Y-106152828D01*
G75*
G02*
X38571347Y-106352828I0J-200000D01*
G01*
X38571347Y-109552828D01*
G75*
G02*
X38371347Y-109752828I-200000J0D01*
G01*
X36371347Y-109752828D01*
G75*
G02*
X36171347Y-109552828I0J200000D01*
G01*
X36171347Y-106352828D01*
G75*
G02*
X36371347Y-106152828I200000J0D01*
G01*
G37*
X29271347Y-100452828D03*
X31771347Y-100452828D03*
G36*
G01*
X33271347Y-99252828D02*
X35271347Y-99252828D01*
G75*
G02*
X35471347Y-99452828I0J-200000D01*
G01*
X35471347Y-101452828D01*
G75*
G02*
X35271347Y-101652828I-200000J0D01*
G01*
X33271347Y-101652828D01*
G75*
G02*
X33071347Y-101452828I0J200000D01*
G01*
X33071347Y-99452828D01*
G75*
G02*
X33271347Y-99252828I200000J0D01*
G01*
G37*
D22*
X31771347Y-107952828D03*
D21*
X31771347Y-103452828D03*
X31771347Y-112452828D03*
D20*
X246350000Y-112400000D03*
G36*
G01*
X62050000Y-90250000D02*
X62050000Y-91750000D01*
G75*
G02*
X61850000Y-91950000I-200000J0D01*
G01*
X60850000Y-91950000D01*
G75*
G02*
X60650000Y-91750000I0J200000D01*
G01*
X60650000Y-90250000D01*
G75*
G02*
X60850000Y-90050000I200000J0D01*
G01*
X61850000Y-90050000D01*
G75*
G02*
X62050000Y-90250000I0J-200000D01*
G01*
G37*
G36*
G01*
X63350000Y-90250000D02*
X63350000Y-91750000D01*
G75*
G02*
X63150000Y-91950000I-200000J0D01*
G01*
X62150000Y-91950000D01*
G75*
G02*
X61950000Y-91750000I0J200000D01*
G01*
X61950000Y-90250000D01*
G75*
G02*
X62150000Y-90050000I200000J0D01*
G01*
X63150000Y-90050000D01*
G75*
G02*
X63350000Y-90250000I0J-200000D01*
G01*
G37*
G36*
G01*
X89383332Y-75600000D02*
X90516668Y-75600000D01*
G75*
G02*
X90850000Y-75933332I0J-333332D01*
G01*
X90850000Y-76866668D01*
G75*
G02*
X90516668Y-77200000I-333332J0D01*
G01*
X89383332Y-77200000D01*
G75*
G02*
X89050000Y-76866668I0J333332D01*
G01*
X89050000Y-75933332D01*
G75*
G02*
X89383332Y-75600000I333332J0D01*
G01*
G37*
G36*
G01*
X89383332Y-73600000D02*
X90516668Y-73600000D01*
G75*
G02*
X90850000Y-73933332I0J-333332D01*
G01*
X90850000Y-74866668D01*
G75*
G02*
X90516668Y-75200000I-333332J0D01*
G01*
X89383332Y-75200000D01*
G75*
G02*
X89050000Y-74866668I0J333332D01*
G01*
X89050000Y-73933332D01*
G75*
G02*
X89383332Y-73600000I333332J0D01*
G01*
G37*
G36*
G01*
X86283332Y-73600000D02*
X87416668Y-73600000D01*
G75*
G02*
X87750000Y-73933332I0J-333332D01*
G01*
X87750000Y-74866668D01*
G75*
G02*
X87416668Y-75200000I-333332J0D01*
G01*
X86283332Y-75200000D01*
G75*
G02*
X85950000Y-74866668I0J333332D01*
G01*
X85950000Y-73933332D01*
G75*
G02*
X86283332Y-73600000I333332J0D01*
G01*
G37*
G36*
G01*
X86283332Y-75600000D02*
X87416668Y-75600000D01*
G75*
G02*
X87750000Y-75933332I0J-333332D01*
G01*
X87750000Y-76866668D01*
G75*
G02*
X87416668Y-77200000I-333332J0D01*
G01*
X86283332Y-77200000D01*
G75*
G02*
X85950000Y-76866668I0J333332D01*
G01*
X85950000Y-75933332D01*
G75*
G02*
X86283332Y-75600000I333332J0D01*
G01*
G37*
D24*
X37800000Y-28190000D03*
X38650000Y-28190000D03*
X39500000Y-28190000D03*
X40350000Y-28190000D03*
X41200000Y-28190000D03*
X42050000Y-28190000D03*
X42900000Y-28190000D03*
X43750000Y-28190000D03*
X38650000Y-26840000D03*
X40350000Y-26840000D03*
X39500000Y-26840000D03*
X37800000Y-26840000D03*
X42050000Y-26840000D03*
X42900000Y-26840000D03*
X43750000Y-26840000D03*
X41200000Y-26840000D03*
D25*
X36450000Y-27210000D03*
X45100000Y-27210000D03*
D26*
X36450000Y-23830000D03*
X45100000Y-23830000D03*
M02*
