G04 #@! TF.GenerationSoftware,KiCad,Pcbnew,(5.1.6-0-10_14)*
G04 #@! TF.CreationDate,2020-06-28T16:37:13+09:00*
G04 #@! TF.ProjectId,Jones,4a6f6e65-732e-46b6-9963-61645f706362,rev?*
G04 #@! TF.SameCoordinates,Original*
G04 #@! TF.FileFunction,Copper,L1,Top*
G04 #@! TF.FilePolarity,Positive*
%FSLAX46Y46*%
G04 Gerber Fmt 4.6, Leading zero omitted, Abs format (unit mm)*
G04 Created by KiCad (PCBNEW (5.1.6-0-10_14)) date 2020-06-28 16:37:13*
%MOMM*%
%LPD*%
G01*
G04 APERTURE LIST*
G04 #@! TA.AperFunction,EtchedComponent*
%ADD10C,0.010000*%
G04 #@! TD*
G04 #@! TA.AperFunction,EtchedComponent*
%ADD11C,2.501900*%
G04 #@! TD*
G04 #@! TA.AperFunction,EtchedComponent*
%ADD12C,0.000100*%
G04 #@! TD*
G04 #@! TA.AperFunction,ComponentPad*
%ADD13C,7.001300*%
G04 #@! TD*
G04 #@! TA.AperFunction,ComponentPad*
%ADD14C,7.000240*%
G04 #@! TD*
G04 #@! TA.AperFunction,ComponentPad*
%ADD15C,1.000000*%
G04 #@! TD*
G04 #@! TA.AperFunction,SMDPad,CuDef*
%ADD16R,0.850000X1.600000*%
G04 #@! TD*
G04 #@! TA.AperFunction,ComponentPad*
%ADD17C,2.000000*%
G04 #@! TD*
G04 #@! TA.AperFunction,ComponentPad*
%ADD18R,2.000000X3.200000*%
G04 #@! TD*
G04 #@! TA.AperFunction,ComponentPad*
%ADD19R,2.000000X2.000000*%
G04 #@! TD*
G04 #@! TA.AperFunction,ComponentPad*
%ADD20C,2.250000*%
G04 #@! TD*
G04 #@! TA.AperFunction,ComponentPad*
%ADD21C,2.200000*%
G04 #@! TD*
G04 #@! TA.AperFunction,ComponentPad*
%ADD22O,1.100000X2.200000*%
G04 #@! TD*
G04 #@! TA.AperFunction,ComponentPad*
%ADD23O,1.700000X1.700000*%
G04 #@! TD*
G04 #@! TA.AperFunction,ComponentPad*
%ADD24R,1.700000X1.700000*%
G04 #@! TD*
G04 #@! TA.AperFunction,ViaPad*
%ADD25C,0.600000*%
G04 #@! TD*
G04 #@! TA.AperFunction,Conductor*
%ADD26C,0.254000*%
G04 #@! TD*
G04 #@! TA.AperFunction,Conductor*
%ADD27C,0.381000*%
G04 #@! TD*
G04 APERTURE END LIST*
D10*
G36*
X197108614Y-129318939D02*
G01*
X197495964Y-129444071D01*
X197804848Y-129642914D01*
X198021627Y-129910340D01*
X198079175Y-130034521D01*
X198114482Y-130284819D01*
X198042043Y-130514516D01*
X197881033Y-130698454D01*
X197650625Y-130811474D01*
X197469122Y-130835000D01*
X197342186Y-130804652D01*
X197189757Y-130703528D01*
X196990130Y-130516510D01*
X196944935Y-130469874D01*
X196755221Y-130279240D01*
X196577289Y-130112829D01*
X196445898Y-130002970D01*
X196433341Y-129994043D01*
X196191228Y-129895046D01*
X195941233Y-129904644D01*
X195704728Y-130007850D01*
X195503087Y-130189674D01*
X195357680Y-130435127D01*
X195289879Y-130729220D01*
X195287500Y-130797663D01*
X195310893Y-131001163D01*
X195387382Y-131220001D01*
X195526428Y-131470387D01*
X195737494Y-131768530D01*
X196030042Y-132130639D01*
X196143339Y-132263750D01*
X196380235Y-132551262D01*
X196603695Y-132843723D01*
X196791158Y-133110199D01*
X196920068Y-133319753D01*
X196936473Y-133351374D01*
X197116576Y-133838921D01*
X197177093Y-134316478D01*
X197125434Y-134773506D01*
X196969013Y-135199466D01*
X196715240Y-135583819D01*
X196371528Y-135916026D01*
X195945289Y-136185548D01*
X195443935Y-136381845D01*
X194874878Y-136494379D01*
X194716000Y-136508669D01*
X194466012Y-136521028D01*
X194252900Y-136523108D01*
X194119517Y-136514582D01*
X194112750Y-136513253D01*
X193977977Y-136484671D01*
X193776227Y-136443076D01*
X193657064Y-136418870D01*
X193263044Y-136283294D01*
X192943705Y-136059095D01*
X192712170Y-135761371D01*
X192581561Y-135405219D01*
X192557000Y-135153295D01*
X192594626Y-134838375D01*
X192712033Y-134615978D01*
X192916014Y-134474696D01*
X192973954Y-134453112D01*
X193243242Y-134415186D01*
X193484778Y-134496344D01*
X193620625Y-134599867D01*
X193710148Y-134711340D01*
X193753181Y-134861174D01*
X193763500Y-135071972D01*
X193794354Y-135403530D01*
X193894651Y-135642588D01*
X194075992Y-135809712D01*
X194219602Y-135880483D01*
X194569088Y-135957558D01*
X194931976Y-135930196D01*
X195281575Y-135811295D01*
X195591191Y-135613759D01*
X195834134Y-135350488D01*
X195983710Y-135034383D01*
X195985775Y-135026833D01*
X196022030Y-134841867D01*
X196020937Y-134664536D01*
X195974510Y-134478875D01*
X195874764Y-134268915D01*
X195713716Y-134018689D01*
X195483378Y-133712228D01*
X195175767Y-133333565D01*
X195083986Y-133223514D01*
X194796710Y-132862535D01*
X194586402Y-132551266D01*
X194433710Y-132256638D01*
X194319285Y-131945585D01*
X194301610Y-131886509D01*
X194218211Y-131391386D01*
X194258825Y-130917332D01*
X194421108Y-130472700D01*
X194702710Y-130065843D01*
X194858060Y-129906307D01*
X195179089Y-129649043D01*
X195522008Y-129470281D01*
X195927664Y-129351224D01*
X196153066Y-129310320D01*
X196656436Y-129272647D01*
X197108614Y-129318939D01*
G37*
X197108614Y-129318939D02*
X197495964Y-129444071D01*
X197804848Y-129642914D01*
X198021627Y-129910340D01*
X198079175Y-130034521D01*
X198114482Y-130284819D01*
X198042043Y-130514516D01*
X197881033Y-130698454D01*
X197650625Y-130811474D01*
X197469122Y-130835000D01*
X197342186Y-130804652D01*
X197189757Y-130703528D01*
X196990130Y-130516510D01*
X196944935Y-130469874D01*
X196755221Y-130279240D01*
X196577289Y-130112829D01*
X196445898Y-130002970D01*
X196433341Y-129994043D01*
X196191228Y-129895046D01*
X195941233Y-129904644D01*
X195704728Y-130007850D01*
X195503087Y-130189674D01*
X195357680Y-130435127D01*
X195289879Y-130729220D01*
X195287500Y-130797663D01*
X195310893Y-131001163D01*
X195387382Y-131220001D01*
X195526428Y-131470387D01*
X195737494Y-131768530D01*
X196030042Y-132130639D01*
X196143339Y-132263750D01*
X196380235Y-132551262D01*
X196603695Y-132843723D01*
X196791158Y-133110199D01*
X196920068Y-133319753D01*
X196936473Y-133351374D01*
X197116576Y-133838921D01*
X197177093Y-134316478D01*
X197125434Y-134773506D01*
X196969013Y-135199466D01*
X196715240Y-135583819D01*
X196371528Y-135916026D01*
X195945289Y-136185548D01*
X195443935Y-136381845D01*
X194874878Y-136494379D01*
X194716000Y-136508669D01*
X194466012Y-136521028D01*
X194252900Y-136523108D01*
X194119517Y-136514582D01*
X194112750Y-136513253D01*
X193977977Y-136484671D01*
X193776227Y-136443076D01*
X193657064Y-136418870D01*
X193263044Y-136283294D01*
X192943705Y-136059095D01*
X192712170Y-135761371D01*
X192581561Y-135405219D01*
X192557000Y-135153295D01*
X192594626Y-134838375D01*
X192712033Y-134615978D01*
X192916014Y-134474696D01*
X192973954Y-134453112D01*
X193243242Y-134415186D01*
X193484778Y-134496344D01*
X193620625Y-134599867D01*
X193710148Y-134711340D01*
X193753181Y-134861174D01*
X193763500Y-135071972D01*
X193794354Y-135403530D01*
X193894651Y-135642588D01*
X194075992Y-135809712D01*
X194219602Y-135880483D01*
X194569088Y-135957558D01*
X194931976Y-135930196D01*
X195281575Y-135811295D01*
X195591191Y-135613759D01*
X195834134Y-135350488D01*
X195983710Y-135034383D01*
X195985775Y-135026833D01*
X196022030Y-134841867D01*
X196020937Y-134664536D01*
X195974510Y-134478875D01*
X195874764Y-134268915D01*
X195713716Y-134018689D01*
X195483378Y-133712228D01*
X195175767Y-133333565D01*
X195083986Y-133223514D01*
X194796710Y-132862535D01*
X194586402Y-132551266D01*
X194433710Y-132256638D01*
X194319285Y-131945585D01*
X194301610Y-131886509D01*
X194218211Y-131391386D01*
X194258825Y-130917332D01*
X194421108Y-130472700D01*
X194702710Y-130065843D01*
X194858060Y-129906307D01*
X195179089Y-129649043D01*
X195522008Y-129470281D01*
X195927664Y-129351224D01*
X196153066Y-129310320D01*
X196656436Y-129272647D01*
X197108614Y-129318939D01*
G36*
X191443699Y-129304990D02*
G01*
X191784452Y-129435131D01*
X192038579Y-129643787D01*
X192205445Y-129916018D01*
X192284417Y-130236880D01*
X192274861Y-130591435D01*
X192176144Y-130964739D01*
X191987633Y-131341852D01*
X191708693Y-131707833D01*
X191552284Y-131866049D01*
X191313376Y-132074462D01*
X191050593Y-132270720D01*
X190743874Y-132467037D01*
X190373160Y-132675623D01*
X189918388Y-132908689D01*
X189527298Y-133098674D01*
X189157301Y-133275521D01*
X188885658Y-133413628D01*
X188697785Y-133532336D01*
X188579096Y-133650989D01*
X188515008Y-133788929D01*
X188490935Y-133965499D01*
X188492292Y-134200041D01*
X188502483Y-134457791D01*
X188515211Y-134733540D01*
X188534217Y-134914826D01*
X188569268Y-135034137D01*
X188630130Y-135123959D01*
X188726567Y-135216783D01*
X188732126Y-135221753D01*
X188945779Y-135363158D01*
X189126782Y-135407000D01*
X189429887Y-135359785D01*
X189804484Y-135221856D01*
X190239252Y-134998789D01*
X190722873Y-134696158D01*
X191072446Y-134448813D01*
X191255332Y-134321298D01*
X191403449Y-134231706D01*
X191480484Y-134200500D01*
X191571553Y-134247776D01*
X191682033Y-134357437D01*
X191768981Y-134481233D01*
X191792887Y-134551498D01*
X191745983Y-134629490D01*
X191614447Y-134766710D01*
X191416238Y-134947525D01*
X191169314Y-135156302D01*
X190891634Y-135377408D01*
X190601155Y-135595208D01*
X190559151Y-135625507D01*
X189996323Y-135992584D01*
X189470714Y-136256302D01*
X188961955Y-136426489D01*
X188842250Y-136454056D01*
X188554138Y-136510302D01*
X188345990Y-136535825D01*
X188174999Y-136532402D01*
X187998356Y-136501809D01*
X187951921Y-136490995D01*
X187632704Y-136355703D01*
X187385686Y-136119621D01*
X187210458Y-135781700D01*
X187106613Y-135340894D01*
X187073742Y-134796153D01*
X187097338Y-134295750D01*
X187165051Y-133748614D01*
X187277809Y-133232458D01*
X187394466Y-132872230D01*
X188683500Y-132872230D01*
X188733219Y-132886044D01*
X188874153Y-132832746D01*
X189093962Y-132718751D01*
X189380310Y-132550473D01*
X189720859Y-132334326D01*
X189731250Y-132327520D01*
X190199031Y-131988540D01*
X190569495Y-131651171D01*
X190835894Y-131323414D01*
X190991477Y-131013276D01*
X191031605Y-130785335D01*
X190983540Y-130525006D01*
X190853154Y-130284652D01*
X190668487Y-130114051D01*
X190646692Y-130102005D01*
X190395698Y-130039507D01*
X190124222Y-130088010D01*
X189851097Y-130237755D01*
X189595155Y-130478979D01*
X189407866Y-130744060D01*
X189278890Y-130995048D01*
X189141136Y-131314316D01*
X189004971Y-131671408D01*
X188880761Y-132035871D01*
X188778870Y-132377250D01*
X188709665Y-132665090D01*
X188683512Y-132868937D01*
X188683500Y-132872230D01*
X187394466Y-132872230D01*
X187446237Y-132712368D01*
X187680958Y-132153433D01*
X187866491Y-131767961D01*
X188207809Y-131165564D01*
X188594284Y-130624075D01*
X189011041Y-130160234D01*
X189443203Y-129790780D01*
X189836675Y-129551028D01*
X190261675Y-129388670D01*
X190713263Y-129292438D01*
X191147704Y-129269027D01*
X191443699Y-129304990D01*
G37*
X191443699Y-129304990D02*
X191784452Y-129435131D01*
X192038579Y-129643787D01*
X192205445Y-129916018D01*
X192284417Y-130236880D01*
X192274861Y-130591435D01*
X192176144Y-130964739D01*
X191987633Y-131341852D01*
X191708693Y-131707833D01*
X191552284Y-131866049D01*
X191313376Y-132074462D01*
X191050593Y-132270720D01*
X190743874Y-132467037D01*
X190373160Y-132675623D01*
X189918388Y-132908689D01*
X189527298Y-133098674D01*
X189157301Y-133275521D01*
X188885658Y-133413628D01*
X188697785Y-133532336D01*
X188579096Y-133650989D01*
X188515008Y-133788929D01*
X188490935Y-133965499D01*
X188492292Y-134200041D01*
X188502483Y-134457791D01*
X188515211Y-134733540D01*
X188534217Y-134914826D01*
X188569268Y-135034137D01*
X188630130Y-135123959D01*
X188726567Y-135216783D01*
X188732126Y-135221753D01*
X188945779Y-135363158D01*
X189126782Y-135407000D01*
X189429887Y-135359785D01*
X189804484Y-135221856D01*
X190239252Y-134998789D01*
X190722873Y-134696158D01*
X191072446Y-134448813D01*
X191255332Y-134321298D01*
X191403449Y-134231706D01*
X191480484Y-134200500D01*
X191571553Y-134247776D01*
X191682033Y-134357437D01*
X191768981Y-134481233D01*
X191792887Y-134551498D01*
X191745983Y-134629490D01*
X191614447Y-134766710D01*
X191416238Y-134947525D01*
X191169314Y-135156302D01*
X190891634Y-135377408D01*
X190601155Y-135595208D01*
X190559151Y-135625507D01*
X189996323Y-135992584D01*
X189470714Y-136256302D01*
X188961955Y-136426489D01*
X188842250Y-136454056D01*
X188554138Y-136510302D01*
X188345990Y-136535825D01*
X188174999Y-136532402D01*
X187998356Y-136501809D01*
X187951921Y-136490995D01*
X187632704Y-136355703D01*
X187385686Y-136119621D01*
X187210458Y-135781700D01*
X187106613Y-135340894D01*
X187073742Y-134796153D01*
X187097338Y-134295750D01*
X187165051Y-133748614D01*
X187277809Y-133232458D01*
X187394466Y-132872230D01*
X188683500Y-132872230D01*
X188733219Y-132886044D01*
X188874153Y-132832746D01*
X189093962Y-132718751D01*
X189380310Y-132550473D01*
X189720859Y-132334326D01*
X189731250Y-132327520D01*
X190199031Y-131988540D01*
X190569495Y-131651171D01*
X190835894Y-131323414D01*
X190991477Y-131013276D01*
X191031605Y-130785335D01*
X190983540Y-130525006D01*
X190853154Y-130284652D01*
X190668487Y-130114051D01*
X190646692Y-130102005D01*
X190395698Y-130039507D01*
X190124222Y-130088010D01*
X189851097Y-130237755D01*
X189595155Y-130478979D01*
X189407866Y-130744060D01*
X189278890Y-130995048D01*
X189141136Y-131314316D01*
X189004971Y-131671408D01*
X188880761Y-132035871D01*
X188778870Y-132377250D01*
X188709665Y-132665090D01*
X188683512Y-132868937D01*
X188683500Y-132872230D01*
X187394466Y-132872230D01*
X187446237Y-132712368D01*
X187680958Y-132153433D01*
X187866491Y-131767961D01*
X188207809Y-131165564D01*
X188594284Y-130624075D01*
X189011041Y-130160234D01*
X189443203Y-129790780D01*
X189836675Y-129551028D01*
X190261675Y-129388670D01*
X190713263Y-129292438D01*
X191147704Y-129269027D01*
X191443699Y-129304990D01*
G36*
X182367664Y-129319730D02*
G01*
X182420158Y-129364608D01*
X182468097Y-129423724D01*
X182495186Y-129488476D01*
X182500077Y-129582541D01*
X182481423Y-129729595D01*
X182437877Y-129953315D01*
X182368273Y-130276547D01*
X182300156Y-130585771D01*
X182238965Y-130857975D01*
X182191208Y-131064576D01*
X182163392Y-131176991D01*
X182162668Y-131179537D01*
X182188434Y-131196259D01*
X182292657Y-131131683D01*
X182463663Y-130993981D01*
X182601892Y-130872038D01*
X183066505Y-130474090D01*
X183536216Y-130114000D01*
X183993395Y-129802896D01*
X184420415Y-129551903D01*
X184799648Y-129372149D01*
X185113465Y-129274761D01*
X185139876Y-129270093D01*
X185431189Y-129277669D01*
X185688900Y-129385830D01*
X185880511Y-129577998D01*
X185930934Y-129673632D01*
X185975463Y-129806251D01*
X185999415Y-129954721D01*
X186000360Y-130132734D01*
X185975867Y-130353983D01*
X185923505Y-130632161D01*
X185840843Y-130980960D01*
X185725452Y-131414073D01*
X185574900Y-131945193D01*
X185454233Y-132359000D01*
X185267914Y-132996662D01*
X185115993Y-133525611D01*
X184995420Y-133958487D01*
X184903147Y-134307930D01*
X184836123Y-134586582D01*
X184791300Y-134807081D01*
X184765629Y-134982070D01*
X184756059Y-135124187D01*
X184759117Y-135240438D01*
X184790317Y-135417871D01*
X184859132Y-135509053D01*
X184976639Y-135512569D01*
X185153914Y-135427004D01*
X185402032Y-135250941D01*
X185541432Y-135140448D01*
X185837798Y-134899939D01*
X186050687Y-134728712D01*
X186196411Y-134617488D01*
X186291279Y-134556990D01*
X186351602Y-134537939D01*
X186393690Y-134551056D01*
X186433855Y-134587064D01*
X186463782Y-134615768D01*
X186557601Y-134725394D01*
X186588000Y-134799551D01*
X186545135Y-134873466D01*
X186430705Y-135009561D01*
X186265954Y-135183321D01*
X186191125Y-135257489D01*
X185674786Y-135726723D01*
X185198188Y-136090921D01*
X184764838Y-136348272D01*
X184378241Y-136496965D01*
X184041904Y-136535189D01*
X183813199Y-136485751D01*
X183638190Y-136347579D01*
X183521359Y-136099619D01*
X183464132Y-135745696D01*
X183458288Y-135534000D01*
X183483764Y-135184923D01*
X183556560Y-134737977D01*
X183677647Y-134188880D01*
X183847992Y-133533354D01*
X184068567Y-132767119D01*
X184134819Y-132547406D01*
X184295557Y-132001898D01*
X184425356Y-131526071D01*
X184521754Y-131130594D01*
X184582287Y-130826136D01*
X184604493Y-130623367D01*
X184596271Y-130548557D01*
X184503794Y-130464597D01*
X184333440Y-130456556D01*
X184102202Y-130515918D01*
X183827072Y-130634172D01*
X183525044Y-130802802D01*
X183213109Y-131013297D01*
X182908261Y-131257141D01*
X182627492Y-131525823D01*
X182611325Y-131543037D01*
X182443658Y-131729728D01*
X182300008Y-131910354D01*
X182174745Y-132099619D01*
X182062239Y-132312228D01*
X181956860Y-132562887D01*
X181852977Y-132866300D01*
X181744962Y-133237173D01*
X181627182Y-133690209D01*
X181494009Y-134240115D01*
X181361668Y-134806948D01*
X181024789Y-136264250D01*
X180377394Y-136282346D01*
X180108140Y-136285188D01*
X179893662Y-136278537D01*
X179760545Y-136263760D01*
X179730000Y-136249044D01*
X179745055Y-136172892D01*
X179786639Y-135995851D01*
X179849380Y-135739960D01*
X179927906Y-135427259D01*
X179982054Y-135214948D01*
X180097143Y-134759685D01*
X180219696Y-134263297D01*
X180346089Y-133741539D01*
X180472699Y-133210171D01*
X180595903Y-132684949D01*
X180712076Y-132181632D01*
X180817595Y-131715976D01*
X180908837Y-131303740D01*
X180982178Y-130960681D01*
X181033996Y-130702557D01*
X181060665Y-130545125D01*
X181063500Y-130512014D01*
X181046349Y-130371293D01*
X181010161Y-130301530D01*
X180904836Y-130308423D01*
X180718039Y-130404328D01*
X180455321Y-130585757D01*
X180122234Y-130849223D01*
X180072918Y-130890268D01*
X179589423Y-131294787D01*
X179271841Y-130977205D01*
X179548545Y-130723499D01*
X179936470Y-130375323D01*
X180260659Y-130103174D01*
X180543849Y-129890066D01*
X180808778Y-129719013D01*
X181078183Y-129573030D01*
X181108889Y-129557860D01*
X181527415Y-129378114D01*
X181883128Y-129277566D01*
X182166416Y-129257633D01*
X182367664Y-129319730D01*
G37*
X182367664Y-129319730D02*
X182420158Y-129364608D01*
X182468097Y-129423724D01*
X182495186Y-129488476D01*
X182500077Y-129582541D01*
X182481423Y-129729595D01*
X182437877Y-129953315D01*
X182368273Y-130276547D01*
X182300156Y-130585771D01*
X182238965Y-130857975D01*
X182191208Y-131064576D01*
X182163392Y-131176991D01*
X182162668Y-131179537D01*
X182188434Y-131196259D01*
X182292657Y-131131683D01*
X182463663Y-130993981D01*
X182601892Y-130872038D01*
X183066505Y-130474090D01*
X183536216Y-130114000D01*
X183993395Y-129802896D01*
X184420415Y-129551903D01*
X184799648Y-129372149D01*
X185113465Y-129274761D01*
X185139876Y-129270093D01*
X185431189Y-129277669D01*
X185688900Y-129385830D01*
X185880511Y-129577998D01*
X185930934Y-129673632D01*
X185975463Y-129806251D01*
X185999415Y-129954721D01*
X186000360Y-130132734D01*
X185975867Y-130353983D01*
X185923505Y-130632161D01*
X185840843Y-130980960D01*
X185725452Y-131414073D01*
X185574900Y-131945193D01*
X185454233Y-132359000D01*
X185267914Y-132996662D01*
X185115993Y-133525611D01*
X184995420Y-133958487D01*
X184903147Y-134307930D01*
X184836123Y-134586582D01*
X184791300Y-134807081D01*
X184765629Y-134982070D01*
X184756059Y-135124187D01*
X184759117Y-135240438D01*
X184790317Y-135417871D01*
X184859132Y-135509053D01*
X184976639Y-135512569D01*
X185153914Y-135427004D01*
X185402032Y-135250941D01*
X185541432Y-135140448D01*
X185837798Y-134899939D01*
X186050687Y-134728712D01*
X186196411Y-134617488D01*
X186291279Y-134556990D01*
X186351602Y-134537939D01*
X186393690Y-134551056D01*
X186433855Y-134587064D01*
X186463782Y-134615768D01*
X186557601Y-134725394D01*
X186588000Y-134799551D01*
X186545135Y-134873466D01*
X186430705Y-135009561D01*
X186265954Y-135183321D01*
X186191125Y-135257489D01*
X185674786Y-135726723D01*
X185198188Y-136090921D01*
X184764838Y-136348272D01*
X184378241Y-136496965D01*
X184041904Y-136535189D01*
X183813199Y-136485751D01*
X183638190Y-136347579D01*
X183521359Y-136099619D01*
X183464132Y-135745696D01*
X183458288Y-135534000D01*
X183483764Y-135184923D01*
X183556560Y-134737977D01*
X183677647Y-134188880D01*
X183847992Y-133533354D01*
X184068567Y-132767119D01*
X184134819Y-132547406D01*
X184295557Y-132001898D01*
X184425356Y-131526071D01*
X184521754Y-131130594D01*
X184582287Y-130826136D01*
X184604493Y-130623367D01*
X184596271Y-130548557D01*
X184503794Y-130464597D01*
X184333440Y-130456556D01*
X184102202Y-130515918D01*
X183827072Y-130634172D01*
X183525044Y-130802802D01*
X183213109Y-131013297D01*
X182908261Y-131257141D01*
X182627492Y-131525823D01*
X182611325Y-131543037D01*
X182443658Y-131729728D01*
X182300008Y-131910354D01*
X182174745Y-132099619D01*
X182062239Y-132312228D01*
X181956860Y-132562887D01*
X181852977Y-132866300D01*
X181744962Y-133237173D01*
X181627182Y-133690209D01*
X181494009Y-134240115D01*
X181361668Y-134806948D01*
X181024789Y-136264250D01*
X180377394Y-136282346D01*
X180108140Y-136285188D01*
X179893662Y-136278537D01*
X179760545Y-136263760D01*
X179730000Y-136249044D01*
X179745055Y-136172892D01*
X179786639Y-135995851D01*
X179849380Y-135739960D01*
X179927906Y-135427259D01*
X179982054Y-135214948D01*
X180097143Y-134759685D01*
X180219696Y-134263297D01*
X180346089Y-133741539D01*
X180472699Y-133210171D01*
X180595903Y-132684949D01*
X180712076Y-132181632D01*
X180817595Y-131715976D01*
X180908837Y-131303740D01*
X180982178Y-130960681D01*
X181033996Y-130702557D01*
X181060665Y-130545125D01*
X181063500Y-130512014D01*
X181046349Y-130371293D01*
X181010161Y-130301530D01*
X180904836Y-130308423D01*
X180718039Y-130404328D01*
X180455321Y-130585757D01*
X180122234Y-130849223D01*
X180072918Y-130890268D01*
X179589423Y-131294787D01*
X179271841Y-130977205D01*
X179548545Y-130723499D01*
X179936470Y-130375323D01*
X180260659Y-130103174D01*
X180543849Y-129890066D01*
X180808778Y-129719013D01*
X181078183Y-129573030D01*
X181108889Y-129557860D01*
X181527415Y-129378114D01*
X181883128Y-129277566D01*
X182166416Y-129257633D01*
X182367664Y-129319730D01*
G36*
X177118667Y-129344887D02*
G01*
X177550406Y-129496973D01*
X177915003Y-129756738D01*
X178213746Y-130125003D01*
X178370029Y-130415939D01*
X178496546Y-130798502D01*
X178574067Y-131265374D01*
X178601904Y-131783411D01*
X178579373Y-132319469D01*
X178505784Y-132840404D01*
X178427024Y-133166364D01*
X178203776Y-133754055D01*
X177886038Y-134333955D01*
X177491823Y-134885610D01*
X177039146Y-135388565D01*
X176546021Y-135822364D01*
X176030463Y-136166554D01*
X175609758Y-136365246D01*
X175236937Y-136468893D01*
X174817290Y-136524666D01*
X174396351Y-136530693D01*
X174019656Y-136485103D01*
X173848553Y-136437609D01*
X173425882Y-136225902D01*
X173086396Y-135921485D01*
X172825524Y-135519573D01*
X172710781Y-135246513D01*
X172643717Y-134958729D01*
X172607359Y-134582983D01*
X172601209Y-134154420D01*
X172624769Y-133708186D01*
X172638423Y-133597250D01*
X174053993Y-133597250D01*
X174071271Y-134191204D01*
X174137451Y-134679066D01*
X174256902Y-135073677D01*
X174433995Y-135387882D01*
X174673102Y-135634524D01*
X174772026Y-135707113D01*
X174982674Y-135815661D01*
X175193493Y-135841202D01*
X175440340Y-135783443D01*
X175639413Y-135700013D01*
X175979166Y-135475655D01*
X176290973Y-135137590D01*
X176568143Y-134697321D01*
X176803984Y-134166350D01*
X176991803Y-133556180D01*
X177058485Y-133260749D01*
X177097370Y-132968107D01*
X177118441Y-132592850D01*
X177122012Y-132178061D01*
X177108401Y-131766822D01*
X177077921Y-131402219D01*
X177043251Y-131180815D01*
X176916395Y-130762127D01*
X176733806Y-130421801D01*
X176506711Y-130170608D01*
X176246339Y-130019321D01*
X175963918Y-129978711D01*
X175816293Y-130003731D01*
X175437247Y-130173628D01*
X175084081Y-130465324D01*
X174759790Y-130875696D01*
X174467364Y-131401623D01*
X174458455Y-131420561D01*
X174279965Y-131873805D01*
X174156514Y-132364114D01*
X174082996Y-132918957D01*
X174054309Y-133565807D01*
X174053993Y-133597250D01*
X172638423Y-133597250D01*
X172677543Y-133279427D01*
X172743112Y-132962250D01*
X172983122Y-132244951D01*
X173321027Y-131550349D01*
X173739070Y-130908960D01*
X174219494Y-130351299D01*
X174317864Y-130255915D01*
X174807866Y-129853555D01*
X175306244Y-129567682D01*
X175836202Y-129388652D01*
X176420943Y-129306821D01*
X176618500Y-129299659D01*
X177118667Y-129344887D01*
G37*
X177118667Y-129344887D02*
X177550406Y-129496973D01*
X177915003Y-129756738D01*
X178213746Y-130125003D01*
X178370029Y-130415939D01*
X178496546Y-130798502D01*
X178574067Y-131265374D01*
X178601904Y-131783411D01*
X178579373Y-132319469D01*
X178505784Y-132840404D01*
X178427024Y-133166364D01*
X178203776Y-133754055D01*
X177886038Y-134333955D01*
X177491823Y-134885610D01*
X177039146Y-135388565D01*
X176546021Y-135822364D01*
X176030463Y-136166554D01*
X175609758Y-136365246D01*
X175236937Y-136468893D01*
X174817290Y-136524666D01*
X174396351Y-136530693D01*
X174019656Y-136485103D01*
X173848553Y-136437609D01*
X173425882Y-136225902D01*
X173086396Y-135921485D01*
X172825524Y-135519573D01*
X172710781Y-135246513D01*
X172643717Y-134958729D01*
X172607359Y-134582983D01*
X172601209Y-134154420D01*
X172624769Y-133708186D01*
X172638423Y-133597250D01*
X174053993Y-133597250D01*
X174071271Y-134191204D01*
X174137451Y-134679066D01*
X174256902Y-135073677D01*
X174433995Y-135387882D01*
X174673102Y-135634524D01*
X174772026Y-135707113D01*
X174982674Y-135815661D01*
X175193493Y-135841202D01*
X175440340Y-135783443D01*
X175639413Y-135700013D01*
X175979166Y-135475655D01*
X176290973Y-135137590D01*
X176568143Y-134697321D01*
X176803984Y-134166350D01*
X176991803Y-133556180D01*
X177058485Y-133260749D01*
X177097370Y-132968107D01*
X177118441Y-132592850D01*
X177122012Y-132178061D01*
X177108401Y-131766822D01*
X177077921Y-131402219D01*
X177043251Y-131180815D01*
X176916395Y-130762127D01*
X176733806Y-130421801D01*
X176506711Y-130170608D01*
X176246339Y-130019321D01*
X175963918Y-129978711D01*
X175816293Y-130003731D01*
X175437247Y-130173628D01*
X175084081Y-130465324D01*
X174759790Y-130875696D01*
X174467364Y-131401623D01*
X174458455Y-131420561D01*
X174279965Y-131873805D01*
X174156514Y-132364114D01*
X174082996Y-132918957D01*
X174054309Y-133565807D01*
X174053993Y-133597250D01*
X172638423Y-133597250D01*
X172677543Y-133279427D01*
X172743112Y-132962250D01*
X172983122Y-132244951D01*
X173321027Y-131550349D01*
X173739070Y-130908960D01*
X174219494Y-130351299D01*
X174317864Y-130255915D01*
X174807866Y-129853555D01*
X175306244Y-129567682D01*
X175836202Y-129388652D01*
X176420943Y-129306821D01*
X176618500Y-129299659D01*
X177118667Y-129344887D01*
G36*
X172391769Y-126450978D02*
G01*
X172603905Y-126455353D01*
X172725268Y-126464525D01*
X172745000Y-126472030D01*
X172722505Y-126534663D01*
X172661625Y-126689785D01*
X172572269Y-126912427D01*
X172487929Y-127119948D01*
X172340008Y-127507209D01*
X172163363Y-128014467D01*
X171959074Y-128638262D01*
X171728221Y-129375140D01*
X171471885Y-130221641D01*
X171191145Y-131174309D01*
X170887081Y-132229687D01*
X170841202Y-132390750D01*
X170636301Y-133108112D01*
X170460565Y-133715813D01*
X170309801Y-134226732D01*
X170179814Y-134653747D01*
X170066410Y-135009737D01*
X169965394Y-135307583D01*
X169872572Y-135560161D01*
X169783750Y-135780352D01*
X169694734Y-135981035D01*
X169623135Y-136130952D01*
X169227711Y-136823734D01*
X168776743Y-137404168D01*
X168271244Y-137871315D01*
X167712224Y-138224238D01*
X167112506Y-138458644D01*
X166733508Y-138536724D01*
X166317305Y-138573172D01*
X165911097Y-138566993D01*
X165562085Y-138517193D01*
X165474250Y-138493174D01*
X165067937Y-138322667D01*
X164742196Y-138099319D01*
X164512185Y-137836466D01*
X164393065Y-137547445D01*
X164391828Y-137541008D01*
X164394467Y-137286972D01*
X164485882Y-137065131D01*
X164644001Y-136900628D01*
X164846754Y-136818607D01*
X165018371Y-136827219D01*
X165141153Y-136888372D01*
X165323097Y-137015041D01*
X165532307Y-137184212D01*
X165617220Y-137259299D01*
X166022400Y-137586729D01*
X166390672Y-137795833D01*
X166728738Y-137887562D01*
X167043296Y-137862869D01*
X167341046Y-137722704D01*
X167563804Y-137535961D01*
X167692055Y-137394297D01*
X167810056Y-137230200D01*
X167925360Y-137027332D01*
X168045519Y-136769357D01*
X168178088Y-136439938D01*
X168330618Y-136022738D01*
X168510662Y-135501421D01*
X168527832Y-135450733D01*
X168682047Y-134987426D01*
X168852036Y-134463460D01*
X169034420Y-133890265D01*
X169225818Y-133279271D01*
X169422851Y-132641908D01*
X169622139Y-131989608D01*
X169820301Y-131333798D01*
X170013957Y-130685911D01*
X170199727Y-130057376D01*
X170374231Y-129459623D01*
X170534090Y-128904082D01*
X170675922Y-128402183D01*
X170796348Y-127965357D01*
X170891987Y-127605034D01*
X170959461Y-127332644D01*
X170995387Y-127159617D01*
X170997831Y-127098165D01*
X170907287Y-127074463D01*
X170723718Y-127068350D01*
X170479553Y-127077646D01*
X170207219Y-127100172D01*
X169939143Y-127133746D01*
X169707755Y-127176190D01*
X169658352Y-127188214D01*
X169199136Y-127347254D01*
X168774486Y-127568995D01*
X168400716Y-127838454D01*
X168094141Y-128140651D01*
X167871075Y-128460604D01*
X167747832Y-128783330D01*
X167728500Y-128960420D01*
X167761211Y-129152224D01*
X167847332Y-129393900D01*
X167919000Y-129543388D01*
X168057514Y-129852170D01*
X168102211Y-130095484D01*
X168053849Y-130292625D01*
X167953636Y-130425136D01*
X167753227Y-130544892D01*
X167503856Y-130584074D01*
X167259840Y-130536007D01*
X167216982Y-130515617D01*
X167059078Y-130364560D01*
X166942954Y-130118627D01*
X166874506Y-129804765D01*
X166859630Y-129449924D01*
X166903677Y-129083686D01*
X167054341Y-128589967D01*
X167299771Y-128140120D01*
X167655693Y-127705338D01*
X167656503Y-127704488D01*
X168131898Y-127284781D01*
X168673845Y-126956961D01*
X169292693Y-126716383D01*
X169998796Y-126558403D01*
X170300250Y-126518155D01*
X170502774Y-126501122D01*
X170775781Y-126485843D01*
X171096232Y-126472753D01*
X171441093Y-126462287D01*
X171787327Y-126454880D01*
X172111898Y-126450965D01*
X172391769Y-126450978D01*
G37*
X172391769Y-126450978D02*
X172603905Y-126455353D01*
X172725268Y-126464525D01*
X172745000Y-126472030D01*
X172722505Y-126534663D01*
X172661625Y-126689785D01*
X172572269Y-126912427D01*
X172487929Y-127119948D01*
X172340008Y-127507209D01*
X172163363Y-128014467D01*
X171959074Y-128638262D01*
X171728221Y-129375140D01*
X171471885Y-130221641D01*
X171191145Y-131174309D01*
X170887081Y-132229687D01*
X170841202Y-132390750D01*
X170636301Y-133108112D01*
X170460565Y-133715813D01*
X170309801Y-134226732D01*
X170179814Y-134653747D01*
X170066410Y-135009737D01*
X169965394Y-135307583D01*
X169872572Y-135560161D01*
X169783750Y-135780352D01*
X169694734Y-135981035D01*
X169623135Y-136130952D01*
X169227711Y-136823734D01*
X168776743Y-137404168D01*
X168271244Y-137871315D01*
X167712224Y-138224238D01*
X167112506Y-138458644D01*
X166733508Y-138536724D01*
X166317305Y-138573172D01*
X165911097Y-138566993D01*
X165562085Y-138517193D01*
X165474250Y-138493174D01*
X165067937Y-138322667D01*
X164742196Y-138099319D01*
X164512185Y-137836466D01*
X164393065Y-137547445D01*
X164391828Y-137541008D01*
X164394467Y-137286972D01*
X164485882Y-137065131D01*
X164644001Y-136900628D01*
X164846754Y-136818607D01*
X165018371Y-136827219D01*
X165141153Y-136888372D01*
X165323097Y-137015041D01*
X165532307Y-137184212D01*
X165617220Y-137259299D01*
X166022400Y-137586729D01*
X166390672Y-137795833D01*
X166728738Y-137887562D01*
X167043296Y-137862869D01*
X167341046Y-137722704D01*
X167563804Y-137535961D01*
X167692055Y-137394297D01*
X167810056Y-137230200D01*
X167925360Y-137027332D01*
X168045519Y-136769357D01*
X168178088Y-136439938D01*
X168330618Y-136022738D01*
X168510662Y-135501421D01*
X168527832Y-135450733D01*
X168682047Y-134987426D01*
X168852036Y-134463460D01*
X169034420Y-133890265D01*
X169225818Y-133279271D01*
X169422851Y-132641908D01*
X169622139Y-131989608D01*
X169820301Y-131333798D01*
X170013957Y-130685911D01*
X170199727Y-130057376D01*
X170374231Y-129459623D01*
X170534090Y-128904082D01*
X170675922Y-128402183D01*
X170796348Y-127965357D01*
X170891987Y-127605034D01*
X170959461Y-127332644D01*
X170995387Y-127159617D01*
X170997831Y-127098165D01*
X170907287Y-127074463D01*
X170723718Y-127068350D01*
X170479553Y-127077646D01*
X170207219Y-127100172D01*
X169939143Y-127133746D01*
X169707755Y-127176190D01*
X169658352Y-127188214D01*
X169199136Y-127347254D01*
X168774486Y-127568995D01*
X168400716Y-127838454D01*
X168094141Y-128140651D01*
X167871075Y-128460604D01*
X167747832Y-128783330D01*
X167728500Y-128960420D01*
X167761211Y-129152224D01*
X167847332Y-129393900D01*
X167919000Y-129543388D01*
X168057514Y-129852170D01*
X168102211Y-130095484D01*
X168053849Y-130292625D01*
X167953636Y-130425136D01*
X167753227Y-130544892D01*
X167503856Y-130584074D01*
X167259840Y-130536007D01*
X167216982Y-130515617D01*
X167059078Y-130364560D01*
X166942954Y-130118627D01*
X166874506Y-129804765D01*
X166859630Y-129449924D01*
X166903677Y-129083686D01*
X167054341Y-128589967D01*
X167299771Y-128140120D01*
X167655693Y-127705338D01*
X167656503Y-127704488D01*
X168131898Y-127284781D01*
X168673845Y-126956961D01*
X169292693Y-126716383D01*
X169998796Y-126558403D01*
X170300250Y-126518155D01*
X170502774Y-126501122D01*
X170775781Y-126485843D01*
X171096232Y-126472753D01*
X171441093Y-126462287D01*
X171787327Y-126454880D01*
X172111898Y-126450965D01*
X172391769Y-126450978D01*
G36*
X263069769Y-126450978D02*
G01*
X263281905Y-126455353D01*
X263403268Y-126464525D01*
X263423000Y-126472030D01*
X263400505Y-126534663D01*
X263339625Y-126689785D01*
X263250269Y-126912427D01*
X263165929Y-127119948D01*
X263018008Y-127507209D01*
X262841363Y-128014467D01*
X262637074Y-128638262D01*
X262406221Y-129375140D01*
X262149885Y-130221641D01*
X261869145Y-131174309D01*
X261565081Y-132229687D01*
X261519202Y-132390750D01*
X261314301Y-133108112D01*
X261138565Y-133715813D01*
X260987801Y-134226732D01*
X260857814Y-134653747D01*
X260744410Y-135009737D01*
X260643394Y-135307583D01*
X260550572Y-135560161D01*
X260461750Y-135780352D01*
X260372734Y-135981035D01*
X260301135Y-136130952D01*
X259905711Y-136823734D01*
X259454743Y-137404168D01*
X258949244Y-137871315D01*
X258390224Y-138224238D01*
X257790506Y-138458644D01*
X257411508Y-138536724D01*
X256995305Y-138573172D01*
X256589097Y-138566993D01*
X256240085Y-138517193D01*
X256152250Y-138493174D01*
X255745937Y-138322667D01*
X255420196Y-138099319D01*
X255190185Y-137836466D01*
X255071065Y-137547445D01*
X255069828Y-137541008D01*
X255072467Y-137286972D01*
X255163882Y-137065131D01*
X255322001Y-136900628D01*
X255524754Y-136818607D01*
X255696371Y-136827219D01*
X255819153Y-136888372D01*
X256001097Y-137015041D01*
X256210307Y-137184212D01*
X256295220Y-137259299D01*
X256700400Y-137586729D01*
X257068672Y-137795833D01*
X257406738Y-137887562D01*
X257721296Y-137862869D01*
X258019046Y-137722704D01*
X258241804Y-137535961D01*
X258370055Y-137394297D01*
X258488056Y-137230200D01*
X258603360Y-137027332D01*
X258723519Y-136769357D01*
X258856088Y-136439938D01*
X259008618Y-136022738D01*
X259188662Y-135501421D01*
X259205832Y-135450733D01*
X259360047Y-134987426D01*
X259530036Y-134463460D01*
X259712420Y-133890265D01*
X259903818Y-133279271D01*
X260100851Y-132641908D01*
X260300139Y-131989608D01*
X260498301Y-131333798D01*
X260691957Y-130685911D01*
X260877727Y-130057376D01*
X261052231Y-129459623D01*
X261212090Y-128904082D01*
X261353922Y-128402183D01*
X261474348Y-127965357D01*
X261569987Y-127605034D01*
X261637461Y-127332644D01*
X261673387Y-127159617D01*
X261675831Y-127098165D01*
X261585287Y-127074463D01*
X261401718Y-127068350D01*
X261157553Y-127077646D01*
X260885219Y-127100172D01*
X260617143Y-127133746D01*
X260385755Y-127176190D01*
X260336352Y-127188214D01*
X259877136Y-127347254D01*
X259452486Y-127568995D01*
X259078716Y-127838454D01*
X258772141Y-128140651D01*
X258549075Y-128460604D01*
X258425832Y-128783330D01*
X258406500Y-128960420D01*
X258439211Y-129152224D01*
X258525332Y-129393900D01*
X258597000Y-129543388D01*
X258735514Y-129852170D01*
X258780211Y-130095484D01*
X258731849Y-130292625D01*
X258631636Y-130425136D01*
X258431227Y-130544892D01*
X258181856Y-130584074D01*
X257937840Y-130536007D01*
X257894982Y-130515617D01*
X257737078Y-130364560D01*
X257620954Y-130118627D01*
X257552506Y-129804765D01*
X257537630Y-129449924D01*
X257581677Y-129083686D01*
X257732341Y-128589967D01*
X257977771Y-128140120D01*
X258333693Y-127705338D01*
X258334503Y-127704488D01*
X258809898Y-127284781D01*
X259351845Y-126956961D01*
X259970693Y-126716383D01*
X260676796Y-126558403D01*
X260978250Y-126518155D01*
X261180774Y-126501122D01*
X261453781Y-126485843D01*
X261774232Y-126472753D01*
X262119093Y-126462287D01*
X262465327Y-126454880D01*
X262789898Y-126450965D01*
X263069769Y-126450978D01*
G37*
X263069769Y-126450978D02*
X263281905Y-126455353D01*
X263403268Y-126464525D01*
X263423000Y-126472030D01*
X263400505Y-126534663D01*
X263339625Y-126689785D01*
X263250269Y-126912427D01*
X263165929Y-127119948D01*
X263018008Y-127507209D01*
X262841363Y-128014467D01*
X262637074Y-128638262D01*
X262406221Y-129375140D01*
X262149885Y-130221641D01*
X261869145Y-131174309D01*
X261565081Y-132229687D01*
X261519202Y-132390750D01*
X261314301Y-133108112D01*
X261138565Y-133715813D01*
X260987801Y-134226732D01*
X260857814Y-134653747D01*
X260744410Y-135009737D01*
X260643394Y-135307583D01*
X260550572Y-135560161D01*
X260461750Y-135780352D01*
X260372734Y-135981035D01*
X260301135Y-136130952D01*
X259905711Y-136823734D01*
X259454743Y-137404168D01*
X258949244Y-137871315D01*
X258390224Y-138224238D01*
X257790506Y-138458644D01*
X257411508Y-138536724D01*
X256995305Y-138573172D01*
X256589097Y-138566993D01*
X256240085Y-138517193D01*
X256152250Y-138493174D01*
X255745937Y-138322667D01*
X255420196Y-138099319D01*
X255190185Y-137836466D01*
X255071065Y-137547445D01*
X255069828Y-137541008D01*
X255072467Y-137286972D01*
X255163882Y-137065131D01*
X255322001Y-136900628D01*
X255524754Y-136818607D01*
X255696371Y-136827219D01*
X255819153Y-136888372D01*
X256001097Y-137015041D01*
X256210307Y-137184212D01*
X256295220Y-137259299D01*
X256700400Y-137586729D01*
X257068672Y-137795833D01*
X257406738Y-137887562D01*
X257721296Y-137862869D01*
X258019046Y-137722704D01*
X258241804Y-137535961D01*
X258370055Y-137394297D01*
X258488056Y-137230200D01*
X258603360Y-137027332D01*
X258723519Y-136769357D01*
X258856088Y-136439938D01*
X259008618Y-136022738D01*
X259188662Y-135501421D01*
X259205832Y-135450733D01*
X259360047Y-134987426D01*
X259530036Y-134463460D01*
X259712420Y-133890265D01*
X259903818Y-133279271D01*
X260100851Y-132641908D01*
X260300139Y-131989608D01*
X260498301Y-131333798D01*
X260691957Y-130685911D01*
X260877727Y-130057376D01*
X261052231Y-129459623D01*
X261212090Y-128904082D01*
X261353922Y-128402183D01*
X261474348Y-127965357D01*
X261569987Y-127605034D01*
X261637461Y-127332644D01*
X261673387Y-127159617D01*
X261675831Y-127098165D01*
X261585287Y-127074463D01*
X261401718Y-127068350D01*
X261157553Y-127077646D01*
X260885219Y-127100172D01*
X260617143Y-127133746D01*
X260385755Y-127176190D01*
X260336352Y-127188214D01*
X259877136Y-127347254D01*
X259452486Y-127568995D01*
X259078716Y-127838454D01*
X258772141Y-128140651D01*
X258549075Y-128460604D01*
X258425832Y-128783330D01*
X258406500Y-128960420D01*
X258439211Y-129152224D01*
X258525332Y-129393900D01*
X258597000Y-129543388D01*
X258735514Y-129852170D01*
X258780211Y-130095484D01*
X258731849Y-130292625D01*
X258631636Y-130425136D01*
X258431227Y-130544892D01*
X258181856Y-130584074D01*
X257937840Y-130536007D01*
X257894982Y-130515617D01*
X257737078Y-130364560D01*
X257620954Y-130118627D01*
X257552506Y-129804765D01*
X257537630Y-129449924D01*
X257581677Y-129083686D01*
X257732341Y-128589967D01*
X257977771Y-128140120D01*
X258333693Y-127705338D01*
X258334503Y-127704488D01*
X258809898Y-127284781D01*
X259351845Y-126956961D01*
X259970693Y-126716383D01*
X260676796Y-126558403D01*
X260978250Y-126518155D01*
X261180774Y-126501122D01*
X261453781Y-126485843D01*
X261774232Y-126472753D01*
X262119093Y-126462287D01*
X262465327Y-126454880D01*
X262789898Y-126450965D01*
X263069769Y-126450978D01*
G36*
X267796667Y-129344887D02*
G01*
X268228406Y-129496973D01*
X268593003Y-129756738D01*
X268891746Y-130125003D01*
X269048029Y-130415939D01*
X269174546Y-130798502D01*
X269252067Y-131265374D01*
X269279904Y-131783411D01*
X269257373Y-132319469D01*
X269183784Y-132840404D01*
X269105024Y-133166364D01*
X268881776Y-133754055D01*
X268564038Y-134333955D01*
X268169823Y-134885610D01*
X267717146Y-135388565D01*
X267224021Y-135822364D01*
X266708463Y-136166554D01*
X266287758Y-136365246D01*
X265914937Y-136468893D01*
X265495290Y-136524666D01*
X265074351Y-136530693D01*
X264697656Y-136485103D01*
X264526553Y-136437609D01*
X264103882Y-136225902D01*
X263764396Y-135921485D01*
X263503524Y-135519573D01*
X263388781Y-135246513D01*
X263321717Y-134958729D01*
X263285359Y-134582983D01*
X263279209Y-134154420D01*
X263302769Y-133708186D01*
X263316423Y-133597250D01*
X264731993Y-133597250D01*
X264749271Y-134191204D01*
X264815451Y-134679066D01*
X264934902Y-135073677D01*
X265111995Y-135387882D01*
X265351102Y-135634524D01*
X265450026Y-135707113D01*
X265660674Y-135815661D01*
X265871493Y-135841202D01*
X266118340Y-135783443D01*
X266317413Y-135700013D01*
X266657166Y-135475655D01*
X266968973Y-135137590D01*
X267246143Y-134697321D01*
X267481984Y-134166350D01*
X267669803Y-133556180D01*
X267736485Y-133260749D01*
X267775370Y-132968107D01*
X267796441Y-132592850D01*
X267800012Y-132178061D01*
X267786401Y-131766822D01*
X267755921Y-131402219D01*
X267721251Y-131180815D01*
X267594395Y-130762127D01*
X267411806Y-130421801D01*
X267184711Y-130170608D01*
X266924339Y-130019321D01*
X266641918Y-129978711D01*
X266494293Y-130003731D01*
X266115247Y-130173628D01*
X265762081Y-130465324D01*
X265437790Y-130875696D01*
X265145364Y-131401623D01*
X265136455Y-131420561D01*
X264957965Y-131873805D01*
X264834514Y-132364114D01*
X264760996Y-132918957D01*
X264732309Y-133565807D01*
X264731993Y-133597250D01*
X263316423Y-133597250D01*
X263355543Y-133279427D01*
X263421112Y-132962250D01*
X263661122Y-132244951D01*
X263999027Y-131550349D01*
X264417070Y-130908960D01*
X264897494Y-130351299D01*
X264995864Y-130255915D01*
X265485866Y-129853555D01*
X265984244Y-129567682D01*
X266514202Y-129388652D01*
X267098943Y-129306821D01*
X267296500Y-129299659D01*
X267796667Y-129344887D01*
G37*
X267796667Y-129344887D02*
X268228406Y-129496973D01*
X268593003Y-129756738D01*
X268891746Y-130125003D01*
X269048029Y-130415939D01*
X269174546Y-130798502D01*
X269252067Y-131265374D01*
X269279904Y-131783411D01*
X269257373Y-132319469D01*
X269183784Y-132840404D01*
X269105024Y-133166364D01*
X268881776Y-133754055D01*
X268564038Y-134333955D01*
X268169823Y-134885610D01*
X267717146Y-135388565D01*
X267224021Y-135822364D01*
X266708463Y-136166554D01*
X266287758Y-136365246D01*
X265914937Y-136468893D01*
X265495290Y-136524666D01*
X265074351Y-136530693D01*
X264697656Y-136485103D01*
X264526553Y-136437609D01*
X264103882Y-136225902D01*
X263764396Y-135921485D01*
X263503524Y-135519573D01*
X263388781Y-135246513D01*
X263321717Y-134958729D01*
X263285359Y-134582983D01*
X263279209Y-134154420D01*
X263302769Y-133708186D01*
X263316423Y-133597250D01*
X264731993Y-133597250D01*
X264749271Y-134191204D01*
X264815451Y-134679066D01*
X264934902Y-135073677D01*
X265111995Y-135387882D01*
X265351102Y-135634524D01*
X265450026Y-135707113D01*
X265660674Y-135815661D01*
X265871493Y-135841202D01*
X266118340Y-135783443D01*
X266317413Y-135700013D01*
X266657166Y-135475655D01*
X266968973Y-135137590D01*
X267246143Y-134697321D01*
X267481984Y-134166350D01*
X267669803Y-133556180D01*
X267736485Y-133260749D01*
X267775370Y-132968107D01*
X267796441Y-132592850D01*
X267800012Y-132178061D01*
X267786401Y-131766822D01*
X267755921Y-131402219D01*
X267721251Y-131180815D01*
X267594395Y-130762127D01*
X267411806Y-130421801D01*
X267184711Y-130170608D01*
X266924339Y-130019321D01*
X266641918Y-129978711D01*
X266494293Y-130003731D01*
X266115247Y-130173628D01*
X265762081Y-130465324D01*
X265437790Y-130875696D01*
X265145364Y-131401623D01*
X265136455Y-131420561D01*
X264957965Y-131873805D01*
X264834514Y-132364114D01*
X264760996Y-132918957D01*
X264732309Y-133565807D01*
X264731993Y-133597250D01*
X263316423Y-133597250D01*
X263355543Y-133279427D01*
X263421112Y-132962250D01*
X263661122Y-132244951D01*
X263999027Y-131550349D01*
X264417070Y-130908960D01*
X264897494Y-130351299D01*
X264995864Y-130255915D01*
X265485866Y-129853555D01*
X265984244Y-129567682D01*
X266514202Y-129388652D01*
X267098943Y-129306821D01*
X267296500Y-129299659D01*
X267796667Y-129344887D01*
G36*
X273045664Y-129319730D02*
G01*
X273098158Y-129364608D01*
X273146097Y-129423724D01*
X273173186Y-129488476D01*
X273178077Y-129582541D01*
X273159423Y-129729595D01*
X273115877Y-129953315D01*
X273046273Y-130276547D01*
X272978156Y-130585771D01*
X272916965Y-130857975D01*
X272869208Y-131064576D01*
X272841392Y-131176991D01*
X272840668Y-131179537D01*
X272866434Y-131196259D01*
X272970657Y-131131683D01*
X273141663Y-130993981D01*
X273279892Y-130872038D01*
X273744505Y-130474090D01*
X274214216Y-130114000D01*
X274671395Y-129802896D01*
X275098415Y-129551903D01*
X275477648Y-129372149D01*
X275791465Y-129274761D01*
X275817876Y-129270093D01*
X276109189Y-129277669D01*
X276366900Y-129385830D01*
X276558511Y-129577998D01*
X276608934Y-129673632D01*
X276653463Y-129806251D01*
X276677415Y-129954721D01*
X276678360Y-130132734D01*
X276653867Y-130353983D01*
X276601505Y-130632161D01*
X276518843Y-130980960D01*
X276403452Y-131414073D01*
X276252900Y-131945193D01*
X276132233Y-132359000D01*
X275945914Y-132996662D01*
X275793993Y-133525611D01*
X275673420Y-133958487D01*
X275581147Y-134307930D01*
X275514123Y-134586582D01*
X275469300Y-134807081D01*
X275443629Y-134982070D01*
X275434059Y-135124187D01*
X275437117Y-135240438D01*
X275468317Y-135417871D01*
X275537132Y-135509053D01*
X275654639Y-135512569D01*
X275831914Y-135427004D01*
X276080032Y-135250941D01*
X276219432Y-135140448D01*
X276515798Y-134899939D01*
X276728687Y-134728712D01*
X276874411Y-134617488D01*
X276969279Y-134556990D01*
X277029602Y-134537939D01*
X277071690Y-134551056D01*
X277111855Y-134587064D01*
X277141782Y-134615768D01*
X277235601Y-134725394D01*
X277266000Y-134799551D01*
X277223135Y-134873466D01*
X277108705Y-135009561D01*
X276943954Y-135183321D01*
X276869125Y-135257489D01*
X276352786Y-135726723D01*
X275876188Y-136090921D01*
X275442838Y-136348272D01*
X275056241Y-136496965D01*
X274719904Y-136535189D01*
X274491199Y-136485751D01*
X274316190Y-136347579D01*
X274199359Y-136099619D01*
X274142132Y-135745696D01*
X274136288Y-135534000D01*
X274161764Y-135184923D01*
X274234560Y-134737977D01*
X274355647Y-134188880D01*
X274525992Y-133533354D01*
X274746567Y-132767119D01*
X274812819Y-132547406D01*
X274973557Y-132001898D01*
X275103356Y-131526071D01*
X275199754Y-131130594D01*
X275260287Y-130826136D01*
X275282493Y-130623367D01*
X275274271Y-130548557D01*
X275181794Y-130464597D01*
X275011440Y-130456556D01*
X274780202Y-130515918D01*
X274505072Y-130634172D01*
X274203044Y-130802802D01*
X273891109Y-131013297D01*
X273586261Y-131257141D01*
X273305492Y-131525823D01*
X273289325Y-131543037D01*
X273121658Y-131729728D01*
X272978008Y-131910354D01*
X272852745Y-132099619D01*
X272740239Y-132312228D01*
X272634860Y-132562887D01*
X272530977Y-132866300D01*
X272422962Y-133237173D01*
X272305182Y-133690209D01*
X272172009Y-134240115D01*
X272039668Y-134806948D01*
X271702789Y-136264250D01*
X271055394Y-136282346D01*
X270786140Y-136285188D01*
X270571662Y-136278537D01*
X270438545Y-136263760D01*
X270408000Y-136249044D01*
X270423055Y-136172892D01*
X270464639Y-135995851D01*
X270527380Y-135739960D01*
X270605906Y-135427259D01*
X270660054Y-135214948D01*
X270775143Y-134759685D01*
X270897696Y-134263297D01*
X271024089Y-133741539D01*
X271150699Y-133210171D01*
X271273903Y-132684949D01*
X271390076Y-132181632D01*
X271495595Y-131715976D01*
X271586837Y-131303740D01*
X271660178Y-130960681D01*
X271711996Y-130702557D01*
X271738665Y-130545125D01*
X271741500Y-130512014D01*
X271724349Y-130371293D01*
X271688161Y-130301530D01*
X271582836Y-130308423D01*
X271396039Y-130404328D01*
X271133321Y-130585757D01*
X270800234Y-130849223D01*
X270750918Y-130890268D01*
X270267423Y-131294787D01*
X269949841Y-130977205D01*
X270226545Y-130723499D01*
X270614470Y-130375323D01*
X270938659Y-130103174D01*
X271221849Y-129890066D01*
X271486778Y-129719013D01*
X271756183Y-129573030D01*
X271786889Y-129557860D01*
X272205415Y-129378114D01*
X272561128Y-129277566D01*
X272844416Y-129257633D01*
X273045664Y-129319730D01*
G37*
X273045664Y-129319730D02*
X273098158Y-129364608D01*
X273146097Y-129423724D01*
X273173186Y-129488476D01*
X273178077Y-129582541D01*
X273159423Y-129729595D01*
X273115877Y-129953315D01*
X273046273Y-130276547D01*
X272978156Y-130585771D01*
X272916965Y-130857975D01*
X272869208Y-131064576D01*
X272841392Y-131176991D01*
X272840668Y-131179537D01*
X272866434Y-131196259D01*
X272970657Y-131131683D01*
X273141663Y-130993981D01*
X273279892Y-130872038D01*
X273744505Y-130474090D01*
X274214216Y-130114000D01*
X274671395Y-129802896D01*
X275098415Y-129551903D01*
X275477648Y-129372149D01*
X275791465Y-129274761D01*
X275817876Y-129270093D01*
X276109189Y-129277669D01*
X276366900Y-129385830D01*
X276558511Y-129577998D01*
X276608934Y-129673632D01*
X276653463Y-129806251D01*
X276677415Y-129954721D01*
X276678360Y-130132734D01*
X276653867Y-130353983D01*
X276601505Y-130632161D01*
X276518843Y-130980960D01*
X276403452Y-131414073D01*
X276252900Y-131945193D01*
X276132233Y-132359000D01*
X275945914Y-132996662D01*
X275793993Y-133525611D01*
X275673420Y-133958487D01*
X275581147Y-134307930D01*
X275514123Y-134586582D01*
X275469300Y-134807081D01*
X275443629Y-134982070D01*
X275434059Y-135124187D01*
X275437117Y-135240438D01*
X275468317Y-135417871D01*
X275537132Y-135509053D01*
X275654639Y-135512569D01*
X275831914Y-135427004D01*
X276080032Y-135250941D01*
X276219432Y-135140448D01*
X276515798Y-134899939D01*
X276728687Y-134728712D01*
X276874411Y-134617488D01*
X276969279Y-134556990D01*
X277029602Y-134537939D01*
X277071690Y-134551056D01*
X277111855Y-134587064D01*
X277141782Y-134615768D01*
X277235601Y-134725394D01*
X277266000Y-134799551D01*
X277223135Y-134873466D01*
X277108705Y-135009561D01*
X276943954Y-135183321D01*
X276869125Y-135257489D01*
X276352786Y-135726723D01*
X275876188Y-136090921D01*
X275442838Y-136348272D01*
X275056241Y-136496965D01*
X274719904Y-136535189D01*
X274491199Y-136485751D01*
X274316190Y-136347579D01*
X274199359Y-136099619D01*
X274142132Y-135745696D01*
X274136288Y-135534000D01*
X274161764Y-135184923D01*
X274234560Y-134737977D01*
X274355647Y-134188880D01*
X274525992Y-133533354D01*
X274746567Y-132767119D01*
X274812819Y-132547406D01*
X274973557Y-132001898D01*
X275103356Y-131526071D01*
X275199754Y-131130594D01*
X275260287Y-130826136D01*
X275282493Y-130623367D01*
X275274271Y-130548557D01*
X275181794Y-130464597D01*
X275011440Y-130456556D01*
X274780202Y-130515918D01*
X274505072Y-130634172D01*
X274203044Y-130802802D01*
X273891109Y-131013297D01*
X273586261Y-131257141D01*
X273305492Y-131525823D01*
X273289325Y-131543037D01*
X273121658Y-131729728D01*
X272978008Y-131910354D01*
X272852745Y-132099619D01*
X272740239Y-132312228D01*
X272634860Y-132562887D01*
X272530977Y-132866300D01*
X272422962Y-133237173D01*
X272305182Y-133690209D01*
X272172009Y-134240115D01*
X272039668Y-134806948D01*
X271702789Y-136264250D01*
X271055394Y-136282346D01*
X270786140Y-136285188D01*
X270571662Y-136278537D01*
X270438545Y-136263760D01*
X270408000Y-136249044D01*
X270423055Y-136172892D01*
X270464639Y-135995851D01*
X270527380Y-135739960D01*
X270605906Y-135427259D01*
X270660054Y-135214948D01*
X270775143Y-134759685D01*
X270897696Y-134263297D01*
X271024089Y-133741539D01*
X271150699Y-133210171D01*
X271273903Y-132684949D01*
X271390076Y-132181632D01*
X271495595Y-131715976D01*
X271586837Y-131303740D01*
X271660178Y-130960681D01*
X271711996Y-130702557D01*
X271738665Y-130545125D01*
X271741500Y-130512014D01*
X271724349Y-130371293D01*
X271688161Y-130301530D01*
X271582836Y-130308423D01*
X271396039Y-130404328D01*
X271133321Y-130585757D01*
X270800234Y-130849223D01*
X270750918Y-130890268D01*
X270267423Y-131294787D01*
X269949841Y-130977205D01*
X270226545Y-130723499D01*
X270614470Y-130375323D01*
X270938659Y-130103174D01*
X271221849Y-129890066D01*
X271486778Y-129719013D01*
X271756183Y-129573030D01*
X271786889Y-129557860D01*
X272205415Y-129378114D01*
X272561128Y-129277566D01*
X272844416Y-129257633D01*
X273045664Y-129319730D01*
G36*
X282121699Y-129304990D02*
G01*
X282462452Y-129435131D01*
X282716579Y-129643787D01*
X282883445Y-129916018D01*
X282962417Y-130236880D01*
X282952861Y-130591435D01*
X282854144Y-130964739D01*
X282665633Y-131341852D01*
X282386693Y-131707833D01*
X282230284Y-131866049D01*
X281991376Y-132074462D01*
X281728593Y-132270720D01*
X281421874Y-132467037D01*
X281051160Y-132675623D01*
X280596388Y-132908689D01*
X280205298Y-133098674D01*
X279835301Y-133275521D01*
X279563658Y-133413628D01*
X279375785Y-133532336D01*
X279257096Y-133650989D01*
X279193008Y-133788929D01*
X279168935Y-133965499D01*
X279170292Y-134200041D01*
X279180483Y-134457791D01*
X279193211Y-134733540D01*
X279212217Y-134914826D01*
X279247268Y-135034137D01*
X279308130Y-135123959D01*
X279404567Y-135216783D01*
X279410126Y-135221753D01*
X279623779Y-135363158D01*
X279804782Y-135407000D01*
X280107887Y-135359785D01*
X280482484Y-135221856D01*
X280917252Y-134998789D01*
X281400873Y-134696158D01*
X281750446Y-134448813D01*
X281933332Y-134321298D01*
X282081449Y-134231706D01*
X282158484Y-134200500D01*
X282249553Y-134247776D01*
X282360033Y-134357437D01*
X282446981Y-134481233D01*
X282470887Y-134551498D01*
X282423983Y-134629490D01*
X282292447Y-134766710D01*
X282094238Y-134947525D01*
X281847314Y-135156302D01*
X281569634Y-135377408D01*
X281279155Y-135595208D01*
X281237151Y-135625507D01*
X280674323Y-135992584D01*
X280148714Y-136256302D01*
X279639955Y-136426489D01*
X279520250Y-136454056D01*
X279232138Y-136510302D01*
X279023990Y-136535825D01*
X278852999Y-136532402D01*
X278676356Y-136501809D01*
X278629921Y-136490995D01*
X278310704Y-136355703D01*
X278063686Y-136119621D01*
X277888458Y-135781700D01*
X277784613Y-135340894D01*
X277751742Y-134796153D01*
X277775338Y-134295750D01*
X277843051Y-133748614D01*
X277955809Y-133232458D01*
X278072466Y-132872230D01*
X279361500Y-132872230D01*
X279411219Y-132886044D01*
X279552153Y-132832746D01*
X279771962Y-132718751D01*
X280058310Y-132550473D01*
X280398859Y-132334326D01*
X280409250Y-132327520D01*
X280877031Y-131988540D01*
X281247495Y-131651171D01*
X281513894Y-131323414D01*
X281669477Y-131013276D01*
X281709605Y-130785335D01*
X281661540Y-130525006D01*
X281531154Y-130284652D01*
X281346487Y-130114051D01*
X281324692Y-130102005D01*
X281073698Y-130039507D01*
X280802222Y-130088010D01*
X280529097Y-130237755D01*
X280273155Y-130478979D01*
X280085866Y-130744060D01*
X279956890Y-130995048D01*
X279819136Y-131314316D01*
X279682971Y-131671408D01*
X279558761Y-132035871D01*
X279456870Y-132377250D01*
X279387665Y-132665090D01*
X279361512Y-132868937D01*
X279361500Y-132872230D01*
X278072466Y-132872230D01*
X278124237Y-132712368D01*
X278358958Y-132153433D01*
X278544491Y-131767961D01*
X278885809Y-131165564D01*
X279272284Y-130624075D01*
X279689041Y-130160234D01*
X280121203Y-129790780D01*
X280514675Y-129551028D01*
X280939675Y-129388670D01*
X281391263Y-129292438D01*
X281825704Y-129269027D01*
X282121699Y-129304990D01*
G37*
X282121699Y-129304990D02*
X282462452Y-129435131D01*
X282716579Y-129643787D01*
X282883445Y-129916018D01*
X282962417Y-130236880D01*
X282952861Y-130591435D01*
X282854144Y-130964739D01*
X282665633Y-131341852D01*
X282386693Y-131707833D01*
X282230284Y-131866049D01*
X281991376Y-132074462D01*
X281728593Y-132270720D01*
X281421874Y-132467037D01*
X281051160Y-132675623D01*
X280596388Y-132908689D01*
X280205298Y-133098674D01*
X279835301Y-133275521D01*
X279563658Y-133413628D01*
X279375785Y-133532336D01*
X279257096Y-133650989D01*
X279193008Y-133788929D01*
X279168935Y-133965499D01*
X279170292Y-134200041D01*
X279180483Y-134457791D01*
X279193211Y-134733540D01*
X279212217Y-134914826D01*
X279247268Y-135034137D01*
X279308130Y-135123959D01*
X279404567Y-135216783D01*
X279410126Y-135221753D01*
X279623779Y-135363158D01*
X279804782Y-135407000D01*
X280107887Y-135359785D01*
X280482484Y-135221856D01*
X280917252Y-134998789D01*
X281400873Y-134696158D01*
X281750446Y-134448813D01*
X281933332Y-134321298D01*
X282081449Y-134231706D01*
X282158484Y-134200500D01*
X282249553Y-134247776D01*
X282360033Y-134357437D01*
X282446981Y-134481233D01*
X282470887Y-134551498D01*
X282423983Y-134629490D01*
X282292447Y-134766710D01*
X282094238Y-134947525D01*
X281847314Y-135156302D01*
X281569634Y-135377408D01*
X281279155Y-135595208D01*
X281237151Y-135625507D01*
X280674323Y-135992584D01*
X280148714Y-136256302D01*
X279639955Y-136426489D01*
X279520250Y-136454056D01*
X279232138Y-136510302D01*
X279023990Y-136535825D01*
X278852999Y-136532402D01*
X278676356Y-136501809D01*
X278629921Y-136490995D01*
X278310704Y-136355703D01*
X278063686Y-136119621D01*
X277888458Y-135781700D01*
X277784613Y-135340894D01*
X277751742Y-134796153D01*
X277775338Y-134295750D01*
X277843051Y-133748614D01*
X277955809Y-133232458D01*
X278072466Y-132872230D01*
X279361500Y-132872230D01*
X279411219Y-132886044D01*
X279552153Y-132832746D01*
X279771962Y-132718751D01*
X280058310Y-132550473D01*
X280398859Y-132334326D01*
X280409250Y-132327520D01*
X280877031Y-131988540D01*
X281247495Y-131651171D01*
X281513894Y-131323414D01*
X281669477Y-131013276D01*
X281709605Y-130785335D01*
X281661540Y-130525006D01*
X281531154Y-130284652D01*
X281346487Y-130114051D01*
X281324692Y-130102005D01*
X281073698Y-130039507D01*
X280802222Y-130088010D01*
X280529097Y-130237755D01*
X280273155Y-130478979D01*
X280085866Y-130744060D01*
X279956890Y-130995048D01*
X279819136Y-131314316D01*
X279682971Y-131671408D01*
X279558761Y-132035871D01*
X279456870Y-132377250D01*
X279387665Y-132665090D01*
X279361512Y-132868937D01*
X279361500Y-132872230D01*
X278072466Y-132872230D01*
X278124237Y-132712368D01*
X278358958Y-132153433D01*
X278544491Y-131767961D01*
X278885809Y-131165564D01*
X279272284Y-130624075D01*
X279689041Y-130160234D01*
X280121203Y-129790780D01*
X280514675Y-129551028D01*
X280939675Y-129388670D01*
X281391263Y-129292438D01*
X281825704Y-129269027D01*
X282121699Y-129304990D01*
G36*
X287786614Y-129318939D02*
G01*
X288173964Y-129444071D01*
X288482848Y-129642914D01*
X288699627Y-129910340D01*
X288757175Y-130034521D01*
X288792482Y-130284819D01*
X288720043Y-130514516D01*
X288559033Y-130698454D01*
X288328625Y-130811474D01*
X288147122Y-130835000D01*
X288020186Y-130804652D01*
X287867757Y-130703528D01*
X287668130Y-130516510D01*
X287622935Y-130469874D01*
X287433221Y-130279240D01*
X287255289Y-130112829D01*
X287123898Y-130002970D01*
X287111341Y-129994043D01*
X286869228Y-129895046D01*
X286619233Y-129904644D01*
X286382728Y-130007850D01*
X286181087Y-130189674D01*
X286035680Y-130435127D01*
X285967879Y-130729220D01*
X285965500Y-130797663D01*
X285988893Y-131001163D01*
X286065382Y-131220001D01*
X286204428Y-131470387D01*
X286415494Y-131768530D01*
X286708042Y-132130639D01*
X286821339Y-132263750D01*
X287058235Y-132551262D01*
X287281695Y-132843723D01*
X287469158Y-133110199D01*
X287598068Y-133319753D01*
X287614473Y-133351374D01*
X287794576Y-133838921D01*
X287855093Y-134316478D01*
X287803434Y-134773506D01*
X287647013Y-135199466D01*
X287393240Y-135583819D01*
X287049528Y-135916026D01*
X286623289Y-136185548D01*
X286121935Y-136381845D01*
X285552878Y-136494379D01*
X285394000Y-136508669D01*
X285144012Y-136521028D01*
X284930900Y-136523108D01*
X284797517Y-136514582D01*
X284790750Y-136513253D01*
X284655977Y-136484671D01*
X284454227Y-136443076D01*
X284335064Y-136418870D01*
X283941044Y-136283294D01*
X283621705Y-136059095D01*
X283390170Y-135761371D01*
X283259561Y-135405219D01*
X283235000Y-135153295D01*
X283272626Y-134838375D01*
X283390033Y-134615978D01*
X283594014Y-134474696D01*
X283651954Y-134453112D01*
X283921242Y-134415186D01*
X284162778Y-134496344D01*
X284298625Y-134599867D01*
X284388148Y-134711340D01*
X284431181Y-134861174D01*
X284441500Y-135071972D01*
X284472354Y-135403530D01*
X284572651Y-135642588D01*
X284753992Y-135809712D01*
X284897602Y-135880483D01*
X285247088Y-135957558D01*
X285609976Y-135930196D01*
X285959575Y-135811295D01*
X286269191Y-135613759D01*
X286512134Y-135350488D01*
X286661710Y-135034383D01*
X286663775Y-135026833D01*
X286700030Y-134841867D01*
X286698937Y-134664536D01*
X286652510Y-134478875D01*
X286552764Y-134268915D01*
X286391716Y-134018689D01*
X286161378Y-133712228D01*
X285853767Y-133333565D01*
X285761986Y-133223514D01*
X285474710Y-132862535D01*
X285264402Y-132551266D01*
X285111710Y-132256638D01*
X284997285Y-131945585D01*
X284979610Y-131886509D01*
X284896211Y-131391386D01*
X284936825Y-130917332D01*
X285099108Y-130472700D01*
X285380710Y-130065843D01*
X285536060Y-129906307D01*
X285857089Y-129649043D01*
X286200008Y-129470281D01*
X286605664Y-129351224D01*
X286831066Y-129310320D01*
X287334436Y-129272647D01*
X287786614Y-129318939D01*
G37*
X287786614Y-129318939D02*
X288173964Y-129444071D01*
X288482848Y-129642914D01*
X288699627Y-129910340D01*
X288757175Y-130034521D01*
X288792482Y-130284819D01*
X288720043Y-130514516D01*
X288559033Y-130698454D01*
X288328625Y-130811474D01*
X288147122Y-130835000D01*
X288020186Y-130804652D01*
X287867757Y-130703528D01*
X287668130Y-130516510D01*
X287622935Y-130469874D01*
X287433221Y-130279240D01*
X287255289Y-130112829D01*
X287123898Y-130002970D01*
X287111341Y-129994043D01*
X286869228Y-129895046D01*
X286619233Y-129904644D01*
X286382728Y-130007850D01*
X286181087Y-130189674D01*
X286035680Y-130435127D01*
X285967879Y-130729220D01*
X285965500Y-130797663D01*
X285988893Y-131001163D01*
X286065382Y-131220001D01*
X286204428Y-131470387D01*
X286415494Y-131768530D01*
X286708042Y-132130639D01*
X286821339Y-132263750D01*
X287058235Y-132551262D01*
X287281695Y-132843723D01*
X287469158Y-133110199D01*
X287598068Y-133319753D01*
X287614473Y-133351374D01*
X287794576Y-133838921D01*
X287855093Y-134316478D01*
X287803434Y-134773506D01*
X287647013Y-135199466D01*
X287393240Y-135583819D01*
X287049528Y-135916026D01*
X286623289Y-136185548D01*
X286121935Y-136381845D01*
X285552878Y-136494379D01*
X285394000Y-136508669D01*
X285144012Y-136521028D01*
X284930900Y-136523108D01*
X284797517Y-136514582D01*
X284790750Y-136513253D01*
X284655977Y-136484671D01*
X284454227Y-136443076D01*
X284335064Y-136418870D01*
X283941044Y-136283294D01*
X283621705Y-136059095D01*
X283390170Y-135761371D01*
X283259561Y-135405219D01*
X283235000Y-135153295D01*
X283272626Y-134838375D01*
X283390033Y-134615978D01*
X283594014Y-134474696D01*
X283651954Y-134453112D01*
X283921242Y-134415186D01*
X284162778Y-134496344D01*
X284298625Y-134599867D01*
X284388148Y-134711340D01*
X284431181Y-134861174D01*
X284441500Y-135071972D01*
X284472354Y-135403530D01*
X284572651Y-135642588D01*
X284753992Y-135809712D01*
X284897602Y-135880483D01*
X285247088Y-135957558D01*
X285609976Y-135930196D01*
X285959575Y-135811295D01*
X286269191Y-135613759D01*
X286512134Y-135350488D01*
X286661710Y-135034383D01*
X286663775Y-135026833D01*
X286700030Y-134841867D01*
X286698937Y-134664536D01*
X286652510Y-134478875D01*
X286552764Y-134268915D01*
X286391716Y-134018689D01*
X286161378Y-133712228D01*
X285853767Y-133333565D01*
X285761986Y-133223514D01*
X285474710Y-132862535D01*
X285264402Y-132551266D01*
X285111710Y-132256638D01*
X284997285Y-131945585D01*
X284979610Y-131886509D01*
X284896211Y-131391386D01*
X284936825Y-130917332D01*
X285099108Y-130472700D01*
X285380710Y-130065843D01*
X285536060Y-129906307D01*
X285857089Y-129649043D01*
X286200008Y-129470281D01*
X286605664Y-129351224D01*
X286831066Y-129310320D01*
X287334436Y-129272647D01*
X287786614Y-129318939D01*
G36*
X242472178Y-129592783D02*
G01*
X242794970Y-129697059D01*
X243052373Y-129862761D01*
X243233023Y-130085617D01*
X243280979Y-130189101D01*
X243310401Y-130397682D01*
X243250036Y-130589097D01*
X243115861Y-130742378D01*
X242923854Y-130836562D01*
X242772601Y-130856166D01*
X242666822Y-130830876D01*
X242539798Y-130746607D01*
X242373442Y-130590759D01*
X242335779Y-130551895D01*
X242177684Y-130393033D01*
X242029408Y-130254357D01*
X241919915Y-130162809D01*
X241909451Y-130155369D01*
X241707690Y-130072871D01*
X241499361Y-130080870D01*
X241302274Y-130166875D01*
X241134239Y-130318395D01*
X241013066Y-130522939D01*
X240956566Y-130768017D01*
X240954583Y-130825053D01*
X240974077Y-130994636D01*
X241037818Y-131177001D01*
X241153690Y-131385656D01*
X241329578Y-131634108D01*
X241573368Y-131935866D01*
X241667782Y-132046791D01*
X241865196Y-132286385D01*
X242051412Y-132530103D01*
X242207632Y-132752165D01*
X242315056Y-132926794D01*
X242328727Y-132953145D01*
X242478813Y-133359434D01*
X242529244Y-133757398D01*
X242486195Y-134138255D01*
X242355844Y-134493222D01*
X242144367Y-134813516D01*
X241857940Y-135090355D01*
X241502741Y-135314956D01*
X241084946Y-135478537D01*
X240610731Y-135572316D01*
X240478333Y-135584224D01*
X240270010Y-135594523D01*
X240092417Y-135596256D01*
X239981264Y-135589152D01*
X239975625Y-135588044D01*
X239863314Y-135564225D01*
X239695189Y-135529563D01*
X239595887Y-135509392D01*
X239267537Y-135396412D01*
X239001421Y-135209579D01*
X238808475Y-134961476D01*
X238699634Y-134664683D01*
X238679166Y-134454746D01*
X238710521Y-134192312D01*
X238808360Y-134006981D01*
X238978345Y-133889246D01*
X239026628Y-133871260D01*
X239251035Y-133839655D01*
X239452315Y-133907287D01*
X239565520Y-133993556D01*
X239640124Y-134086450D01*
X239675984Y-134211311D01*
X239684583Y-134386976D01*
X239710295Y-134663275D01*
X239793876Y-134862490D01*
X239944993Y-135001760D01*
X240064668Y-135060736D01*
X240355906Y-135124965D01*
X240658313Y-135102163D01*
X240949646Y-135003079D01*
X241207659Y-134838466D01*
X241410111Y-134619073D01*
X241534758Y-134355652D01*
X241536479Y-134349361D01*
X241566692Y-134195222D01*
X241565781Y-134047447D01*
X241527091Y-133892729D01*
X241443970Y-133717763D01*
X241309763Y-133509240D01*
X241117815Y-133253857D01*
X240861473Y-132938304D01*
X240784988Y-132846595D01*
X240545592Y-132545779D01*
X240370335Y-132286388D01*
X240243092Y-132040865D01*
X240147737Y-131781654D01*
X240133009Y-131732424D01*
X240063509Y-131319821D01*
X240097354Y-130924776D01*
X240232590Y-130554250D01*
X240467259Y-130215202D01*
X240596716Y-130082256D01*
X240864240Y-129867869D01*
X241150007Y-129718901D01*
X241488053Y-129619687D01*
X241675888Y-129585600D01*
X242095363Y-129554205D01*
X242472178Y-129592783D01*
G37*
X242472178Y-129592783D02*
X242794970Y-129697059D01*
X243052373Y-129862761D01*
X243233023Y-130085617D01*
X243280979Y-130189101D01*
X243310401Y-130397682D01*
X243250036Y-130589097D01*
X243115861Y-130742378D01*
X242923854Y-130836562D01*
X242772601Y-130856166D01*
X242666822Y-130830876D01*
X242539798Y-130746607D01*
X242373442Y-130590759D01*
X242335779Y-130551895D01*
X242177684Y-130393033D01*
X242029408Y-130254357D01*
X241919915Y-130162809D01*
X241909451Y-130155369D01*
X241707690Y-130072871D01*
X241499361Y-130080870D01*
X241302274Y-130166875D01*
X241134239Y-130318395D01*
X241013066Y-130522939D01*
X240956566Y-130768017D01*
X240954583Y-130825053D01*
X240974077Y-130994636D01*
X241037818Y-131177001D01*
X241153690Y-131385656D01*
X241329578Y-131634108D01*
X241573368Y-131935866D01*
X241667782Y-132046791D01*
X241865196Y-132286385D01*
X242051412Y-132530103D01*
X242207632Y-132752165D01*
X242315056Y-132926794D01*
X242328727Y-132953145D01*
X242478813Y-133359434D01*
X242529244Y-133757398D01*
X242486195Y-134138255D01*
X242355844Y-134493222D01*
X242144367Y-134813516D01*
X241857940Y-135090355D01*
X241502741Y-135314956D01*
X241084946Y-135478537D01*
X240610731Y-135572316D01*
X240478333Y-135584224D01*
X240270010Y-135594523D01*
X240092417Y-135596256D01*
X239981264Y-135589152D01*
X239975625Y-135588044D01*
X239863314Y-135564225D01*
X239695189Y-135529563D01*
X239595887Y-135509392D01*
X239267537Y-135396412D01*
X239001421Y-135209579D01*
X238808475Y-134961476D01*
X238699634Y-134664683D01*
X238679166Y-134454746D01*
X238710521Y-134192312D01*
X238808360Y-134006981D01*
X238978345Y-133889246D01*
X239026628Y-133871260D01*
X239251035Y-133839655D01*
X239452315Y-133907287D01*
X239565520Y-133993556D01*
X239640124Y-134086450D01*
X239675984Y-134211311D01*
X239684583Y-134386976D01*
X239710295Y-134663275D01*
X239793876Y-134862490D01*
X239944993Y-135001760D01*
X240064668Y-135060736D01*
X240355906Y-135124965D01*
X240658313Y-135102163D01*
X240949646Y-135003079D01*
X241207659Y-134838466D01*
X241410111Y-134619073D01*
X241534758Y-134355652D01*
X241536479Y-134349361D01*
X241566692Y-134195222D01*
X241565781Y-134047447D01*
X241527091Y-133892729D01*
X241443970Y-133717763D01*
X241309763Y-133509240D01*
X241117815Y-133253857D01*
X240861473Y-132938304D01*
X240784988Y-132846595D01*
X240545592Y-132545779D01*
X240370335Y-132286388D01*
X240243092Y-132040865D01*
X240147737Y-131781654D01*
X240133009Y-131732424D01*
X240063509Y-131319821D01*
X240097354Y-130924776D01*
X240232590Y-130554250D01*
X240467259Y-130215202D01*
X240596716Y-130082256D01*
X240864240Y-129867869D01*
X241150007Y-129718901D01*
X241488053Y-129619687D01*
X241675888Y-129585600D01*
X242095363Y-129554205D01*
X242472178Y-129592783D01*
G36*
X237751415Y-129581158D02*
G01*
X238035377Y-129689609D01*
X238247149Y-129863489D01*
X238386204Y-130090348D01*
X238452014Y-130357734D01*
X238444051Y-130653195D01*
X238361787Y-130964282D01*
X238204694Y-131278543D01*
X237972244Y-131583527D01*
X237841903Y-131715374D01*
X237642813Y-131889051D01*
X237423827Y-132052600D01*
X237168229Y-132216198D01*
X236859300Y-132390019D01*
X236480323Y-132584241D01*
X236154415Y-132742561D01*
X235846084Y-132889934D01*
X235619715Y-133005023D01*
X235463154Y-133103947D01*
X235364247Y-133202824D01*
X235310840Y-133317774D01*
X235290779Y-133464916D01*
X235291910Y-133660367D01*
X235300403Y-133875159D01*
X235311009Y-134104950D01*
X235326848Y-134256022D01*
X235356057Y-134355447D01*
X235406775Y-134430299D01*
X235487139Y-134507652D01*
X235491772Y-134511794D01*
X235669816Y-134629631D01*
X235820652Y-134666166D01*
X236073239Y-134626820D01*
X236385403Y-134511880D01*
X236747710Y-134325991D01*
X237150728Y-134073798D01*
X237442039Y-133867678D01*
X237594443Y-133761415D01*
X237717874Y-133686755D01*
X237782070Y-133660750D01*
X237857960Y-133700146D01*
X237950028Y-133791531D01*
X238022484Y-133894694D01*
X238042406Y-133953249D01*
X238003319Y-134018241D01*
X237893706Y-134132591D01*
X237728531Y-134283271D01*
X237522761Y-134457252D01*
X237291361Y-134641506D01*
X237049296Y-134823007D01*
X237014292Y-134848256D01*
X236545269Y-135154154D01*
X236107262Y-135373918D01*
X235683295Y-135515741D01*
X235583541Y-135538713D01*
X235343448Y-135585585D01*
X235169992Y-135606854D01*
X235027499Y-135604002D01*
X234880297Y-135578508D01*
X234841601Y-135569495D01*
X234575587Y-135456752D01*
X234369738Y-135260017D01*
X234223715Y-134978417D01*
X234137178Y-134611078D01*
X234109785Y-134157127D01*
X234129448Y-133740125D01*
X234185875Y-133284178D01*
X234279841Y-132854048D01*
X234377055Y-132553859D01*
X235451250Y-132553859D01*
X235492682Y-132565370D01*
X235610127Y-132520955D01*
X235793302Y-132425959D01*
X236031925Y-132285727D01*
X236315716Y-132105605D01*
X236324375Y-132099933D01*
X236714192Y-131817450D01*
X237022913Y-131536309D01*
X237244911Y-131263178D01*
X237374564Y-131004730D01*
X237408004Y-130814779D01*
X237367950Y-130597839D01*
X237259295Y-130397543D01*
X237105406Y-130255376D01*
X237087243Y-130245337D01*
X236878082Y-130193256D01*
X236651852Y-130233675D01*
X236424248Y-130358462D01*
X236210962Y-130559483D01*
X236054888Y-130780383D01*
X235947408Y-130989540D01*
X235832614Y-131255596D01*
X235719143Y-131553173D01*
X235615634Y-131856892D01*
X235530725Y-132141375D01*
X235473054Y-132381242D01*
X235451260Y-132551114D01*
X235451250Y-132553859D01*
X234377055Y-132553859D01*
X234420197Y-132420640D01*
X234615798Y-131954860D01*
X234770409Y-131633634D01*
X235054841Y-131131636D01*
X235376904Y-130680396D01*
X235724201Y-130293862D01*
X236084336Y-129985983D01*
X236412229Y-129786190D01*
X236766396Y-129650892D01*
X237142719Y-129570698D01*
X237504753Y-129551189D01*
X237751415Y-129581158D01*
G37*
X237751415Y-129581158D02*
X238035377Y-129689609D01*
X238247149Y-129863489D01*
X238386204Y-130090348D01*
X238452014Y-130357734D01*
X238444051Y-130653195D01*
X238361787Y-130964282D01*
X238204694Y-131278543D01*
X237972244Y-131583527D01*
X237841903Y-131715374D01*
X237642813Y-131889051D01*
X237423827Y-132052600D01*
X237168229Y-132216198D01*
X236859300Y-132390019D01*
X236480323Y-132584241D01*
X236154415Y-132742561D01*
X235846084Y-132889934D01*
X235619715Y-133005023D01*
X235463154Y-133103947D01*
X235364247Y-133202824D01*
X235310840Y-133317774D01*
X235290779Y-133464916D01*
X235291910Y-133660367D01*
X235300403Y-133875159D01*
X235311009Y-134104950D01*
X235326848Y-134256022D01*
X235356057Y-134355447D01*
X235406775Y-134430299D01*
X235487139Y-134507652D01*
X235491772Y-134511794D01*
X235669816Y-134629631D01*
X235820652Y-134666166D01*
X236073239Y-134626820D01*
X236385403Y-134511880D01*
X236747710Y-134325991D01*
X237150728Y-134073798D01*
X237442039Y-133867678D01*
X237594443Y-133761415D01*
X237717874Y-133686755D01*
X237782070Y-133660750D01*
X237857960Y-133700146D01*
X237950028Y-133791531D01*
X238022484Y-133894694D01*
X238042406Y-133953249D01*
X238003319Y-134018241D01*
X237893706Y-134132591D01*
X237728531Y-134283271D01*
X237522761Y-134457252D01*
X237291361Y-134641506D01*
X237049296Y-134823007D01*
X237014292Y-134848256D01*
X236545269Y-135154154D01*
X236107262Y-135373918D01*
X235683295Y-135515741D01*
X235583541Y-135538713D01*
X235343448Y-135585585D01*
X235169992Y-135606854D01*
X235027499Y-135604002D01*
X234880297Y-135578508D01*
X234841601Y-135569495D01*
X234575587Y-135456752D01*
X234369738Y-135260017D01*
X234223715Y-134978417D01*
X234137178Y-134611078D01*
X234109785Y-134157127D01*
X234129448Y-133740125D01*
X234185875Y-133284178D01*
X234279841Y-132854048D01*
X234377055Y-132553859D01*
X235451250Y-132553859D01*
X235492682Y-132565370D01*
X235610127Y-132520955D01*
X235793302Y-132425959D01*
X236031925Y-132285727D01*
X236315716Y-132105605D01*
X236324375Y-132099933D01*
X236714192Y-131817450D01*
X237022913Y-131536309D01*
X237244911Y-131263178D01*
X237374564Y-131004730D01*
X237408004Y-130814779D01*
X237367950Y-130597839D01*
X237259295Y-130397543D01*
X237105406Y-130255376D01*
X237087243Y-130245337D01*
X236878082Y-130193256D01*
X236651852Y-130233675D01*
X236424248Y-130358462D01*
X236210962Y-130559483D01*
X236054888Y-130780383D01*
X235947408Y-130989540D01*
X235832614Y-131255596D01*
X235719143Y-131553173D01*
X235615634Y-131856892D01*
X235530725Y-132141375D01*
X235473054Y-132381242D01*
X235451260Y-132551114D01*
X235451250Y-132553859D01*
X234377055Y-132553859D01*
X234420197Y-132420640D01*
X234615798Y-131954860D01*
X234770409Y-131633634D01*
X235054841Y-131131636D01*
X235376904Y-130680396D01*
X235724201Y-130293862D01*
X236084336Y-129985983D01*
X236412229Y-129786190D01*
X236766396Y-129650892D01*
X237142719Y-129570698D01*
X237504753Y-129551189D01*
X237751415Y-129581158D01*
G36*
X230188053Y-129593441D02*
G01*
X230231798Y-129630840D01*
X230271747Y-129680103D01*
X230294321Y-129734063D01*
X230298397Y-129812451D01*
X230282852Y-129934996D01*
X230246564Y-130121429D01*
X230188560Y-130390789D01*
X230131797Y-130648476D01*
X230080804Y-130875312D01*
X230041006Y-131047480D01*
X230017827Y-131141159D01*
X230017223Y-131143280D01*
X230038695Y-131157216D01*
X230125548Y-131103402D01*
X230268053Y-130988650D01*
X230383243Y-130887032D01*
X230770421Y-130555408D01*
X231161846Y-130255334D01*
X231542829Y-129996080D01*
X231898679Y-129786919D01*
X232214706Y-129637124D01*
X232476220Y-129555967D01*
X232498230Y-129552077D01*
X232740991Y-129558391D01*
X232955750Y-129648525D01*
X233115426Y-129808665D01*
X233157445Y-129888360D01*
X233194552Y-129998876D01*
X233214512Y-130122600D01*
X233215300Y-130270945D01*
X233194889Y-130455319D01*
X233151254Y-130687134D01*
X233082369Y-130977800D01*
X232986210Y-131338728D01*
X232860750Y-131781327D01*
X232760194Y-132126166D01*
X232604928Y-132657551D01*
X232478327Y-133098342D01*
X232377850Y-133459072D01*
X232300956Y-133750275D01*
X232245103Y-133982485D01*
X232207750Y-134166234D01*
X232186357Y-134312058D01*
X232178382Y-134430489D01*
X232180931Y-134527365D01*
X232206930Y-134675226D01*
X232264276Y-134751211D01*
X232362199Y-134754141D01*
X232509928Y-134682836D01*
X232716694Y-134536117D01*
X232832860Y-134444040D01*
X233079832Y-134243616D01*
X233257239Y-134100927D01*
X233378675Y-134008240D01*
X233457732Y-133957825D01*
X233508001Y-133941949D01*
X233543075Y-133952880D01*
X233576545Y-133982887D01*
X233601485Y-134006806D01*
X233679668Y-134098162D01*
X233705000Y-134159959D01*
X233669279Y-134221555D01*
X233573921Y-134334967D01*
X233436628Y-134479767D01*
X233374270Y-134541574D01*
X232943988Y-134932602D01*
X232546823Y-135236101D01*
X232185698Y-135450560D01*
X231863534Y-135574471D01*
X231583253Y-135606324D01*
X231392666Y-135565125D01*
X231246825Y-135449983D01*
X231149465Y-135243349D01*
X231101777Y-134948414D01*
X231096906Y-134772000D01*
X231118136Y-134481103D01*
X231178800Y-134108647D01*
X231279706Y-133651067D01*
X231421660Y-133104795D01*
X231605472Y-132466265D01*
X231660683Y-132283171D01*
X231794631Y-131828582D01*
X231902797Y-131432059D01*
X231983128Y-131102495D01*
X232033573Y-130848780D01*
X232052078Y-130679805D01*
X232045225Y-130617464D01*
X231968162Y-130547498D01*
X231826200Y-130540796D01*
X231633502Y-130590265D01*
X231404227Y-130688810D01*
X231152536Y-130829335D01*
X230892591Y-131004747D01*
X230638550Y-131207951D01*
X230404576Y-131431852D01*
X230391104Y-131446198D01*
X230251382Y-131601774D01*
X230131673Y-131752295D01*
X230027288Y-131910016D01*
X229933533Y-132087190D01*
X229845717Y-132296073D01*
X229759148Y-132548917D01*
X229669135Y-132857977D01*
X229570985Y-133235508D01*
X229460008Y-133693763D01*
X229349723Y-134166123D01*
X229068990Y-135380541D01*
X228529495Y-135395622D01*
X228305116Y-135397990D01*
X228126385Y-135392447D01*
X228015454Y-135380134D01*
X227990000Y-135367870D01*
X228002545Y-135304410D01*
X228037199Y-135156876D01*
X228089483Y-134943633D01*
X228154921Y-134683049D01*
X228200045Y-134506123D01*
X228295952Y-134126738D01*
X228398080Y-133713081D01*
X228503408Y-133278283D01*
X228608916Y-132835476D01*
X228711585Y-132397791D01*
X228808396Y-131978360D01*
X228896329Y-131590313D01*
X228972364Y-131246783D01*
X229033482Y-130960901D01*
X229076663Y-130745797D01*
X229098888Y-130614604D01*
X229101250Y-130587011D01*
X229086958Y-130469744D01*
X229056801Y-130411608D01*
X228969030Y-130417352D01*
X228813366Y-130497273D01*
X228594434Y-130648464D01*
X228316862Y-130868019D01*
X228275765Y-130902223D01*
X227872853Y-131239322D01*
X227740527Y-131106996D01*
X227608201Y-130974671D01*
X227838788Y-130763249D01*
X228162058Y-130473103D01*
X228432216Y-130246312D01*
X228668207Y-130068722D01*
X228888982Y-129926178D01*
X229113486Y-129804525D01*
X229139074Y-129791883D01*
X229487846Y-129642095D01*
X229784273Y-129558305D01*
X230020346Y-129541694D01*
X230188053Y-129593441D01*
G37*
X230188053Y-129593441D02*
X230231798Y-129630840D01*
X230271747Y-129680103D01*
X230294321Y-129734063D01*
X230298397Y-129812451D01*
X230282852Y-129934996D01*
X230246564Y-130121429D01*
X230188560Y-130390789D01*
X230131797Y-130648476D01*
X230080804Y-130875312D01*
X230041006Y-131047480D01*
X230017827Y-131141159D01*
X230017223Y-131143280D01*
X230038695Y-131157216D01*
X230125548Y-131103402D01*
X230268053Y-130988650D01*
X230383243Y-130887032D01*
X230770421Y-130555408D01*
X231161846Y-130255334D01*
X231542829Y-129996080D01*
X231898679Y-129786919D01*
X232214706Y-129637124D01*
X232476220Y-129555967D01*
X232498230Y-129552077D01*
X232740991Y-129558391D01*
X232955750Y-129648525D01*
X233115426Y-129808665D01*
X233157445Y-129888360D01*
X233194552Y-129998876D01*
X233214512Y-130122600D01*
X233215300Y-130270945D01*
X233194889Y-130455319D01*
X233151254Y-130687134D01*
X233082369Y-130977800D01*
X232986210Y-131338728D01*
X232860750Y-131781327D01*
X232760194Y-132126166D01*
X232604928Y-132657551D01*
X232478327Y-133098342D01*
X232377850Y-133459072D01*
X232300956Y-133750275D01*
X232245103Y-133982485D01*
X232207750Y-134166234D01*
X232186357Y-134312058D01*
X232178382Y-134430489D01*
X232180931Y-134527365D01*
X232206930Y-134675226D01*
X232264276Y-134751211D01*
X232362199Y-134754141D01*
X232509928Y-134682836D01*
X232716694Y-134536117D01*
X232832860Y-134444040D01*
X233079832Y-134243616D01*
X233257239Y-134100927D01*
X233378675Y-134008240D01*
X233457732Y-133957825D01*
X233508001Y-133941949D01*
X233543075Y-133952880D01*
X233576545Y-133982887D01*
X233601485Y-134006806D01*
X233679668Y-134098162D01*
X233705000Y-134159959D01*
X233669279Y-134221555D01*
X233573921Y-134334967D01*
X233436628Y-134479767D01*
X233374270Y-134541574D01*
X232943988Y-134932602D01*
X232546823Y-135236101D01*
X232185698Y-135450560D01*
X231863534Y-135574471D01*
X231583253Y-135606324D01*
X231392666Y-135565125D01*
X231246825Y-135449983D01*
X231149465Y-135243349D01*
X231101777Y-134948414D01*
X231096906Y-134772000D01*
X231118136Y-134481103D01*
X231178800Y-134108647D01*
X231279706Y-133651067D01*
X231421660Y-133104795D01*
X231605472Y-132466265D01*
X231660683Y-132283171D01*
X231794631Y-131828582D01*
X231902797Y-131432059D01*
X231983128Y-131102495D01*
X232033573Y-130848780D01*
X232052078Y-130679805D01*
X232045225Y-130617464D01*
X231968162Y-130547498D01*
X231826200Y-130540796D01*
X231633502Y-130590265D01*
X231404227Y-130688810D01*
X231152536Y-130829335D01*
X230892591Y-131004747D01*
X230638550Y-131207951D01*
X230404576Y-131431852D01*
X230391104Y-131446198D01*
X230251382Y-131601774D01*
X230131673Y-131752295D01*
X230027288Y-131910016D01*
X229933533Y-132087190D01*
X229845717Y-132296073D01*
X229759148Y-132548917D01*
X229669135Y-132857977D01*
X229570985Y-133235508D01*
X229460008Y-133693763D01*
X229349723Y-134166123D01*
X229068990Y-135380541D01*
X228529495Y-135395622D01*
X228305116Y-135397990D01*
X228126385Y-135392447D01*
X228015454Y-135380134D01*
X227990000Y-135367870D01*
X228002545Y-135304410D01*
X228037199Y-135156876D01*
X228089483Y-134943633D01*
X228154921Y-134683049D01*
X228200045Y-134506123D01*
X228295952Y-134126738D01*
X228398080Y-133713081D01*
X228503408Y-133278283D01*
X228608916Y-132835476D01*
X228711585Y-132397791D01*
X228808396Y-131978360D01*
X228896329Y-131590313D01*
X228972364Y-131246783D01*
X229033482Y-130960901D01*
X229076663Y-130745797D01*
X229098888Y-130614604D01*
X229101250Y-130587011D01*
X229086958Y-130469744D01*
X229056801Y-130411608D01*
X228969030Y-130417352D01*
X228813366Y-130497273D01*
X228594434Y-130648464D01*
X228316862Y-130868019D01*
X228275765Y-130902223D01*
X227872853Y-131239322D01*
X227740527Y-131106996D01*
X227608201Y-130974671D01*
X227838788Y-130763249D01*
X228162058Y-130473103D01*
X228432216Y-130246312D01*
X228668207Y-130068722D01*
X228888982Y-129926178D01*
X229113486Y-129804525D01*
X229139074Y-129791883D01*
X229487846Y-129642095D01*
X229784273Y-129558305D01*
X230020346Y-129541694D01*
X230188053Y-129593441D01*
G36*
X225813889Y-129614406D02*
G01*
X226173671Y-129741144D01*
X226477502Y-129957615D01*
X226726455Y-130264502D01*
X226856690Y-130506949D01*
X226962121Y-130825752D01*
X227026722Y-131214811D01*
X227049920Y-131646509D01*
X227031144Y-132093224D01*
X226969820Y-132527336D01*
X226904186Y-132798970D01*
X226718147Y-133288713D01*
X226453365Y-133771963D01*
X226124852Y-134231675D01*
X225747621Y-134650804D01*
X225336684Y-135012304D01*
X224907052Y-135299129D01*
X224556465Y-135464705D01*
X224245781Y-135551078D01*
X223896075Y-135597555D01*
X223545293Y-135602577D01*
X223231380Y-135564586D01*
X223088794Y-135525007D01*
X222736568Y-135348585D01*
X222453663Y-135094904D01*
X222236270Y-134759977D01*
X222140650Y-134532428D01*
X222084764Y-134292607D01*
X222054466Y-133979485D01*
X222049341Y-133622350D01*
X222068974Y-133250488D01*
X222080352Y-133158041D01*
X223259994Y-133158041D01*
X223274393Y-133653004D01*
X223329542Y-134059555D01*
X223429085Y-134388397D01*
X223576663Y-134650235D01*
X223775919Y-134855770D01*
X223858355Y-134916261D01*
X224033895Y-135006717D01*
X224209578Y-135028001D01*
X224415283Y-134979869D01*
X224581177Y-134910344D01*
X224864305Y-134723379D01*
X225124144Y-134441658D01*
X225355119Y-134074767D01*
X225551653Y-133632292D01*
X225708169Y-133123817D01*
X225763737Y-132877624D01*
X225796142Y-132633756D01*
X225813701Y-132321042D01*
X225816677Y-131975384D01*
X225805334Y-131632685D01*
X225779934Y-131328849D01*
X225751042Y-131144346D01*
X225645329Y-130795439D01*
X225493172Y-130511834D01*
X225303926Y-130302506D01*
X225086949Y-130176434D01*
X224851598Y-130142592D01*
X224728578Y-130163442D01*
X224412705Y-130305024D01*
X224118401Y-130548103D01*
X223848158Y-130890080D01*
X223604470Y-131328352D01*
X223597046Y-131344134D01*
X223448304Y-131721837D01*
X223345428Y-132130428D01*
X223284164Y-132592798D01*
X223260257Y-133131839D01*
X223259994Y-133158041D01*
X222080352Y-133158041D01*
X222112952Y-132893189D01*
X222167593Y-132628875D01*
X222367602Y-132031126D01*
X222649189Y-131452291D01*
X222997558Y-130917800D01*
X223397912Y-130453083D01*
X223479887Y-130373596D01*
X223888221Y-130038296D01*
X224303537Y-129800068D01*
X224745169Y-129650877D01*
X225232452Y-129582684D01*
X225397083Y-129576716D01*
X225813889Y-129614406D01*
G37*
X225813889Y-129614406D02*
X226173671Y-129741144D01*
X226477502Y-129957615D01*
X226726455Y-130264502D01*
X226856690Y-130506949D01*
X226962121Y-130825752D01*
X227026722Y-131214811D01*
X227049920Y-131646509D01*
X227031144Y-132093224D01*
X226969820Y-132527336D01*
X226904186Y-132798970D01*
X226718147Y-133288713D01*
X226453365Y-133771963D01*
X226124852Y-134231675D01*
X225747621Y-134650804D01*
X225336684Y-135012304D01*
X224907052Y-135299129D01*
X224556465Y-135464705D01*
X224245781Y-135551078D01*
X223896075Y-135597555D01*
X223545293Y-135602577D01*
X223231380Y-135564586D01*
X223088794Y-135525007D01*
X222736568Y-135348585D01*
X222453663Y-135094904D01*
X222236270Y-134759977D01*
X222140650Y-134532428D01*
X222084764Y-134292607D01*
X222054466Y-133979485D01*
X222049341Y-133622350D01*
X222068974Y-133250488D01*
X222080352Y-133158041D01*
X223259994Y-133158041D01*
X223274393Y-133653004D01*
X223329542Y-134059555D01*
X223429085Y-134388397D01*
X223576663Y-134650235D01*
X223775919Y-134855770D01*
X223858355Y-134916261D01*
X224033895Y-135006717D01*
X224209578Y-135028001D01*
X224415283Y-134979869D01*
X224581177Y-134910344D01*
X224864305Y-134723379D01*
X225124144Y-134441658D01*
X225355119Y-134074767D01*
X225551653Y-133632292D01*
X225708169Y-133123817D01*
X225763737Y-132877624D01*
X225796142Y-132633756D01*
X225813701Y-132321042D01*
X225816677Y-131975384D01*
X225805334Y-131632685D01*
X225779934Y-131328849D01*
X225751042Y-131144346D01*
X225645329Y-130795439D01*
X225493172Y-130511834D01*
X225303926Y-130302506D01*
X225086949Y-130176434D01*
X224851598Y-130142592D01*
X224728578Y-130163442D01*
X224412705Y-130305024D01*
X224118401Y-130548103D01*
X223848158Y-130890080D01*
X223604470Y-131328352D01*
X223597046Y-131344134D01*
X223448304Y-131721837D01*
X223345428Y-132130428D01*
X223284164Y-132592798D01*
X223260257Y-133131839D01*
X223259994Y-133158041D01*
X222080352Y-133158041D01*
X222112952Y-132893189D01*
X222167593Y-132628875D01*
X222367602Y-132031126D01*
X222649189Y-131452291D01*
X222997558Y-130917800D01*
X223397912Y-130453083D01*
X223479887Y-130373596D01*
X223888221Y-130038296D01*
X224303537Y-129800068D01*
X224745169Y-129650877D01*
X225232452Y-129582684D01*
X225397083Y-129576716D01*
X225813889Y-129614406D01*
G36*
X221874808Y-127202815D02*
G01*
X222051587Y-127206461D01*
X222152723Y-127214104D01*
X222169166Y-127220358D01*
X222150421Y-127272552D01*
X222099688Y-127401821D01*
X222025224Y-127587356D01*
X221954940Y-127760290D01*
X221831673Y-128083008D01*
X221684469Y-128505722D01*
X221514228Y-129025552D01*
X221321851Y-129639616D01*
X221108237Y-130345034D01*
X220874287Y-131138924D01*
X220620901Y-132018406D01*
X220582668Y-132152625D01*
X220411917Y-132750426D01*
X220265471Y-133256844D01*
X220139834Y-133682610D01*
X220031512Y-134038456D01*
X219937008Y-134335114D01*
X219852828Y-134583319D01*
X219775477Y-134793801D01*
X219701459Y-134977293D01*
X219627279Y-135144529D01*
X219567612Y-135269460D01*
X219238092Y-135846778D01*
X218862286Y-136330473D01*
X218441037Y-136719762D01*
X217975187Y-137013865D01*
X217475421Y-137209203D01*
X217159590Y-137274270D01*
X216812754Y-137304643D01*
X216474247Y-137299494D01*
X216183404Y-137257994D01*
X216110208Y-137237978D01*
X215771614Y-137095889D01*
X215500163Y-136909765D01*
X215308488Y-136690722D01*
X215209221Y-136449871D01*
X215208190Y-136444507D01*
X215210389Y-136232810D01*
X215286568Y-136047942D01*
X215418334Y-135910856D01*
X215587295Y-135842506D01*
X215730309Y-135849683D01*
X215832627Y-135900643D01*
X215984247Y-136006201D01*
X216158589Y-136147177D01*
X216229350Y-136209749D01*
X216567000Y-136482608D01*
X216873894Y-136656861D01*
X217155615Y-136733302D01*
X217417747Y-136712724D01*
X217665872Y-136595920D01*
X217851504Y-136440301D01*
X217958379Y-136322248D01*
X218056713Y-136185500D01*
X218152800Y-136016444D01*
X218252933Y-135801464D01*
X218363407Y-135526949D01*
X218490515Y-135179282D01*
X218640552Y-134744850D01*
X218654860Y-134702611D01*
X218783372Y-134316522D01*
X218925030Y-133879883D01*
X219077016Y-133402220D01*
X219236515Y-132893059D01*
X219400709Y-132361924D01*
X219566782Y-131818340D01*
X219731917Y-131271832D01*
X219893297Y-130731926D01*
X220048106Y-130208146D01*
X220193526Y-129710019D01*
X220326741Y-129247068D01*
X220444935Y-128828819D01*
X220545290Y-128464798D01*
X220624989Y-128164529D01*
X220681217Y-127937537D01*
X220711156Y-127793347D01*
X220713193Y-127742137D01*
X220637739Y-127722385D01*
X220484765Y-127717291D01*
X220281294Y-127725038D01*
X220054349Y-127743810D01*
X219830953Y-127771788D01*
X219638129Y-127807158D01*
X219596960Y-127817178D01*
X219214280Y-127949712D01*
X218860405Y-128134496D01*
X218548930Y-128359045D01*
X218293451Y-128610876D01*
X218107562Y-128877503D01*
X218004860Y-129146441D01*
X217988750Y-129294016D01*
X218016009Y-129453853D01*
X218087777Y-129655250D01*
X218147500Y-129779823D01*
X218262928Y-130037142D01*
X218300176Y-130239903D01*
X218259874Y-130404187D01*
X218176363Y-130514613D01*
X218009356Y-130614410D01*
X217801546Y-130647061D01*
X217598200Y-130607006D01*
X217562485Y-130590014D01*
X217430898Y-130464133D01*
X217334128Y-130259189D01*
X217277088Y-129997637D01*
X217264692Y-129701936D01*
X217301398Y-129396738D01*
X217426951Y-128985305D01*
X217631476Y-128610433D01*
X217928077Y-128248115D01*
X217928752Y-128247407D01*
X218324915Y-127897651D01*
X218776537Y-127624467D01*
X219292244Y-127423986D01*
X219880663Y-127292336D01*
X220131875Y-127258796D01*
X220300645Y-127244601D01*
X220528150Y-127231869D01*
X220795194Y-127220961D01*
X221082578Y-127212239D01*
X221371106Y-127206066D01*
X221641582Y-127202804D01*
X221874808Y-127202815D01*
G37*
X221874808Y-127202815D02*
X222051587Y-127206461D01*
X222152723Y-127214104D01*
X222169166Y-127220358D01*
X222150421Y-127272552D01*
X222099688Y-127401821D01*
X222025224Y-127587356D01*
X221954940Y-127760290D01*
X221831673Y-128083008D01*
X221684469Y-128505722D01*
X221514228Y-129025552D01*
X221321851Y-129639616D01*
X221108237Y-130345034D01*
X220874287Y-131138924D01*
X220620901Y-132018406D01*
X220582668Y-132152625D01*
X220411917Y-132750426D01*
X220265471Y-133256844D01*
X220139834Y-133682610D01*
X220031512Y-134038456D01*
X219937008Y-134335114D01*
X219852828Y-134583319D01*
X219775477Y-134793801D01*
X219701459Y-134977293D01*
X219627279Y-135144529D01*
X219567612Y-135269460D01*
X219238092Y-135846778D01*
X218862286Y-136330473D01*
X218441037Y-136719762D01*
X217975187Y-137013865D01*
X217475421Y-137209203D01*
X217159590Y-137274270D01*
X216812754Y-137304643D01*
X216474247Y-137299494D01*
X216183404Y-137257994D01*
X216110208Y-137237978D01*
X215771614Y-137095889D01*
X215500163Y-136909765D01*
X215308488Y-136690722D01*
X215209221Y-136449871D01*
X215208190Y-136444507D01*
X215210389Y-136232810D01*
X215286568Y-136047942D01*
X215418334Y-135910856D01*
X215587295Y-135842506D01*
X215730309Y-135849683D01*
X215832627Y-135900643D01*
X215984247Y-136006201D01*
X216158589Y-136147177D01*
X216229350Y-136209749D01*
X216567000Y-136482608D01*
X216873894Y-136656861D01*
X217155615Y-136733302D01*
X217417747Y-136712724D01*
X217665872Y-136595920D01*
X217851504Y-136440301D01*
X217958379Y-136322248D01*
X218056713Y-136185500D01*
X218152800Y-136016444D01*
X218252933Y-135801464D01*
X218363407Y-135526949D01*
X218490515Y-135179282D01*
X218640552Y-134744850D01*
X218654860Y-134702611D01*
X218783372Y-134316522D01*
X218925030Y-133879883D01*
X219077016Y-133402220D01*
X219236515Y-132893059D01*
X219400709Y-132361924D01*
X219566782Y-131818340D01*
X219731917Y-131271832D01*
X219893297Y-130731926D01*
X220048106Y-130208146D01*
X220193526Y-129710019D01*
X220326741Y-129247068D01*
X220444935Y-128828819D01*
X220545290Y-128464798D01*
X220624989Y-128164529D01*
X220681217Y-127937537D01*
X220711156Y-127793347D01*
X220713193Y-127742137D01*
X220637739Y-127722385D01*
X220484765Y-127717291D01*
X220281294Y-127725038D01*
X220054349Y-127743810D01*
X219830953Y-127771788D01*
X219638129Y-127807158D01*
X219596960Y-127817178D01*
X219214280Y-127949712D01*
X218860405Y-128134496D01*
X218548930Y-128359045D01*
X218293451Y-128610876D01*
X218107562Y-128877503D01*
X218004860Y-129146441D01*
X217988750Y-129294016D01*
X218016009Y-129453853D01*
X218087777Y-129655250D01*
X218147500Y-129779823D01*
X218262928Y-130037142D01*
X218300176Y-130239903D01*
X218259874Y-130404187D01*
X218176363Y-130514613D01*
X218009356Y-130614410D01*
X217801546Y-130647061D01*
X217598200Y-130607006D01*
X217562485Y-130590014D01*
X217430898Y-130464133D01*
X217334128Y-130259189D01*
X217277088Y-129997637D01*
X217264692Y-129701936D01*
X217301398Y-129396738D01*
X217426951Y-128985305D01*
X217631476Y-128610433D01*
X217928077Y-128248115D01*
X217928752Y-128247407D01*
X218324915Y-127897651D01*
X218776537Y-127624467D01*
X219292244Y-127423986D01*
X219880663Y-127292336D01*
X220131875Y-127258796D01*
X220300645Y-127244601D01*
X220528150Y-127231869D01*
X220795194Y-127220961D01*
X221082578Y-127212239D01*
X221371106Y-127206066D01*
X221641582Y-127202804D01*
X221874808Y-127202815D01*
D11*
X303800000Y-76399050D02*
X307600000Y-76399050D01*
X303800000Y-81700950D02*
X307650000Y-81700950D01*
X22600000Y-81700950D02*
X26400000Y-81700950D01*
X22600000Y-76399050D02*
X26400000Y-76399050D01*
X303800000Y-81700950D02*
G75*
G02*
X301149050Y-79050000I0J2650950D01*
G01*
X301149050Y-79050000D02*
G75*
G02*
X303800000Y-76399050I2650950J0D01*
G01*
X29050950Y-79050000D02*
G75*
G03*
X26400000Y-76399050I-2650950J0D01*
G01*
X26400000Y-81700950D02*
G75*
G03*
X29050950Y-79050000I0J2650950D01*
G01*
D12*
G36*
X43892000Y-24446000D02*
G01*
X43892000Y-26946000D01*
X43892754Y-26974785D01*
X43895013Y-27003491D01*
X43898771Y-27032039D01*
X43904019Y-27060351D01*
X43910741Y-27088350D01*
X43918919Y-27115959D01*
X43928531Y-27143102D01*
X43939550Y-27169705D01*
X43951946Y-27195695D01*
X43965686Y-27221000D01*
X43980731Y-27245551D01*
X43997041Y-27269282D01*
X44014570Y-27292126D01*
X44033270Y-27314022D01*
X44053091Y-27334909D01*
X44073978Y-27354730D01*
X44095874Y-27373430D01*
X44118718Y-27390959D01*
X44142449Y-27407269D01*
X44167000Y-27422314D01*
X44192305Y-27436054D01*
X44218295Y-27448450D01*
X44244898Y-27459469D01*
X44272041Y-27469081D01*
X44299650Y-27477259D01*
X44327649Y-27483981D01*
X44355961Y-27489229D01*
X44384509Y-27492987D01*
X44413215Y-27495246D01*
X44442000Y-27496000D01*
X44470785Y-27495246D01*
X44499491Y-27492987D01*
X44528039Y-27489229D01*
X44556351Y-27483981D01*
X44584350Y-27477259D01*
X44611959Y-27469081D01*
X44639102Y-27459469D01*
X44665705Y-27448450D01*
X44691695Y-27436054D01*
X44717000Y-27422314D01*
X44741551Y-27407269D01*
X44765282Y-27390959D01*
X44788126Y-27373430D01*
X44810022Y-27354730D01*
X44830909Y-27334909D01*
X44850730Y-27314022D01*
X44869430Y-27292126D01*
X44886959Y-27269282D01*
X44903269Y-27245551D01*
X44918314Y-27221000D01*
X44932054Y-27195695D01*
X44944450Y-27169705D01*
X44955469Y-27143102D01*
X44965081Y-27115959D01*
X44973259Y-27088350D01*
X44979981Y-27060351D01*
X44985229Y-27032039D01*
X44988987Y-27003491D01*
X44991246Y-26974785D01*
X44992000Y-26946000D01*
X44992000Y-24446000D01*
X44991246Y-24417215D01*
X44988987Y-24388509D01*
X44985229Y-24359961D01*
X44979981Y-24331649D01*
X44973259Y-24303650D01*
X44965081Y-24276041D01*
X44955469Y-24248898D01*
X44944450Y-24222295D01*
X44932054Y-24196305D01*
X44918314Y-24171000D01*
X44903269Y-24146449D01*
X44886959Y-24122718D01*
X44869430Y-24099874D01*
X44850730Y-24077978D01*
X44830909Y-24057091D01*
X44810022Y-24037270D01*
X44788126Y-24018570D01*
X44765282Y-24001041D01*
X44741551Y-23984731D01*
X44717000Y-23969686D01*
X44691695Y-23955946D01*
X44665705Y-23943550D01*
X44639102Y-23932531D01*
X44611959Y-23922919D01*
X44584350Y-23914741D01*
X44556351Y-23908019D01*
X44528039Y-23902771D01*
X44499491Y-23899013D01*
X44470785Y-23896754D01*
X44442000Y-23896000D01*
X44413215Y-23896754D01*
X44384509Y-23899013D01*
X44355961Y-23902771D01*
X44327649Y-23908019D01*
X44299650Y-23914741D01*
X44272041Y-23922919D01*
X44244898Y-23932531D01*
X44218295Y-23943550D01*
X44192305Y-23955946D01*
X44167000Y-23969686D01*
X44142449Y-23984731D01*
X44118718Y-24001041D01*
X44095874Y-24018570D01*
X44073978Y-24037270D01*
X44053091Y-24057091D01*
X44033270Y-24077978D01*
X44014570Y-24099874D01*
X43997041Y-24122718D01*
X43980731Y-24146449D01*
X43965686Y-24171000D01*
X43951946Y-24196305D01*
X43939550Y-24222295D01*
X43928531Y-24248898D01*
X43918919Y-24276041D01*
X43910741Y-24303650D01*
X43904019Y-24331649D01*
X43898771Y-24359961D01*
X43895013Y-24388509D01*
X43892754Y-24417215D01*
X43892000Y-24446000D01*
G37*
X43892000Y-24446000D02*
X43892000Y-26946000D01*
X43892754Y-26974785D01*
X43895013Y-27003491D01*
X43898771Y-27032039D01*
X43904019Y-27060351D01*
X43910741Y-27088350D01*
X43918919Y-27115959D01*
X43928531Y-27143102D01*
X43939550Y-27169705D01*
X43951946Y-27195695D01*
X43965686Y-27221000D01*
X43980731Y-27245551D01*
X43997041Y-27269282D01*
X44014570Y-27292126D01*
X44033270Y-27314022D01*
X44053091Y-27334909D01*
X44073978Y-27354730D01*
X44095874Y-27373430D01*
X44118718Y-27390959D01*
X44142449Y-27407269D01*
X44167000Y-27422314D01*
X44192305Y-27436054D01*
X44218295Y-27448450D01*
X44244898Y-27459469D01*
X44272041Y-27469081D01*
X44299650Y-27477259D01*
X44327649Y-27483981D01*
X44355961Y-27489229D01*
X44384509Y-27492987D01*
X44413215Y-27495246D01*
X44442000Y-27496000D01*
X44470785Y-27495246D01*
X44499491Y-27492987D01*
X44528039Y-27489229D01*
X44556351Y-27483981D01*
X44584350Y-27477259D01*
X44611959Y-27469081D01*
X44639102Y-27459469D01*
X44665705Y-27448450D01*
X44691695Y-27436054D01*
X44717000Y-27422314D01*
X44741551Y-27407269D01*
X44765282Y-27390959D01*
X44788126Y-27373430D01*
X44810022Y-27354730D01*
X44830909Y-27334909D01*
X44850730Y-27314022D01*
X44869430Y-27292126D01*
X44886959Y-27269282D01*
X44903269Y-27245551D01*
X44918314Y-27221000D01*
X44932054Y-27195695D01*
X44944450Y-27169705D01*
X44955469Y-27143102D01*
X44965081Y-27115959D01*
X44973259Y-27088350D01*
X44979981Y-27060351D01*
X44985229Y-27032039D01*
X44988987Y-27003491D01*
X44991246Y-26974785D01*
X44992000Y-26946000D01*
X44992000Y-24446000D01*
X44991246Y-24417215D01*
X44988987Y-24388509D01*
X44985229Y-24359961D01*
X44979981Y-24331649D01*
X44973259Y-24303650D01*
X44965081Y-24276041D01*
X44955469Y-24248898D01*
X44944450Y-24222295D01*
X44932054Y-24196305D01*
X44918314Y-24171000D01*
X44903269Y-24146449D01*
X44886959Y-24122718D01*
X44869430Y-24099874D01*
X44850730Y-24077978D01*
X44830909Y-24057091D01*
X44810022Y-24037270D01*
X44788126Y-24018570D01*
X44765282Y-24001041D01*
X44741551Y-23984731D01*
X44717000Y-23969686D01*
X44691695Y-23955946D01*
X44665705Y-23943550D01*
X44639102Y-23932531D01*
X44611959Y-23922919D01*
X44584350Y-23914741D01*
X44556351Y-23908019D01*
X44528039Y-23902771D01*
X44499491Y-23899013D01*
X44470785Y-23896754D01*
X44442000Y-23896000D01*
X44413215Y-23896754D01*
X44384509Y-23899013D01*
X44355961Y-23902771D01*
X44327649Y-23908019D01*
X44299650Y-23914741D01*
X44272041Y-23922919D01*
X44244898Y-23932531D01*
X44218295Y-23943550D01*
X44192305Y-23955946D01*
X44167000Y-23969686D01*
X44142449Y-23984731D01*
X44118718Y-24001041D01*
X44095874Y-24018570D01*
X44073978Y-24037270D01*
X44053091Y-24057091D01*
X44033270Y-24077978D01*
X44014570Y-24099874D01*
X43997041Y-24122718D01*
X43980731Y-24146449D01*
X43965686Y-24171000D01*
X43951946Y-24196305D01*
X43939550Y-24222295D01*
X43928531Y-24248898D01*
X43918919Y-24276041D01*
X43910741Y-24303650D01*
X43904019Y-24331649D01*
X43898771Y-24359961D01*
X43895013Y-24388509D01*
X43892754Y-24417215D01*
X43892000Y-24446000D01*
G36*
X36592000Y-24446000D02*
G01*
X36592000Y-26946000D01*
X36592754Y-26974785D01*
X36595013Y-27003491D01*
X36598771Y-27032039D01*
X36604019Y-27060351D01*
X36610741Y-27088350D01*
X36618919Y-27115959D01*
X36628531Y-27143102D01*
X36639550Y-27169705D01*
X36651946Y-27195695D01*
X36665686Y-27221000D01*
X36680731Y-27245551D01*
X36697041Y-27269282D01*
X36714570Y-27292126D01*
X36733270Y-27314022D01*
X36753091Y-27334909D01*
X36773978Y-27354730D01*
X36795874Y-27373430D01*
X36818718Y-27390959D01*
X36842449Y-27407269D01*
X36867000Y-27422314D01*
X36892305Y-27436054D01*
X36918295Y-27448450D01*
X36944898Y-27459469D01*
X36972041Y-27469081D01*
X36999650Y-27477259D01*
X37027649Y-27483981D01*
X37055961Y-27489229D01*
X37084509Y-27492987D01*
X37113215Y-27495246D01*
X37142000Y-27496000D01*
X37170785Y-27495246D01*
X37199491Y-27492987D01*
X37228039Y-27489229D01*
X37256351Y-27483981D01*
X37284350Y-27477259D01*
X37311959Y-27469081D01*
X37339102Y-27459469D01*
X37365705Y-27448450D01*
X37391695Y-27436054D01*
X37417000Y-27422314D01*
X37441551Y-27407269D01*
X37465282Y-27390959D01*
X37488126Y-27373430D01*
X37510022Y-27354730D01*
X37530909Y-27334909D01*
X37550730Y-27314022D01*
X37569430Y-27292126D01*
X37586959Y-27269282D01*
X37603269Y-27245551D01*
X37618314Y-27221000D01*
X37632054Y-27195695D01*
X37644450Y-27169705D01*
X37655469Y-27143102D01*
X37665081Y-27115959D01*
X37673259Y-27088350D01*
X37679981Y-27060351D01*
X37685229Y-27032039D01*
X37688987Y-27003491D01*
X37691246Y-26974785D01*
X37692000Y-26946000D01*
X37692000Y-24446000D01*
X37691246Y-24417215D01*
X37688987Y-24388509D01*
X37685229Y-24359961D01*
X37679981Y-24331649D01*
X37673259Y-24303650D01*
X37665081Y-24276041D01*
X37655469Y-24248898D01*
X37644450Y-24222295D01*
X37632054Y-24196305D01*
X37618314Y-24171000D01*
X37603269Y-24146449D01*
X37586959Y-24122718D01*
X37569430Y-24099874D01*
X37550730Y-24077978D01*
X37530909Y-24057091D01*
X37510022Y-24037270D01*
X37488126Y-24018570D01*
X37465282Y-24001041D01*
X37441551Y-23984731D01*
X37417000Y-23969686D01*
X37391695Y-23955946D01*
X37365705Y-23943550D01*
X37339102Y-23932531D01*
X37311959Y-23922919D01*
X37284350Y-23914741D01*
X37256351Y-23908019D01*
X37228039Y-23902771D01*
X37199491Y-23899013D01*
X37170785Y-23896754D01*
X37142000Y-23896000D01*
X37113215Y-23896754D01*
X37084509Y-23899013D01*
X37055961Y-23902771D01*
X37027649Y-23908019D01*
X36999650Y-23914741D01*
X36972041Y-23922919D01*
X36944898Y-23932531D01*
X36918295Y-23943550D01*
X36892305Y-23955946D01*
X36867000Y-23969686D01*
X36842449Y-23984731D01*
X36818718Y-24001041D01*
X36795874Y-24018570D01*
X36773978Y-24037270D01*
X36753091Y-24057091D01*
X36733270Y-24077978D01*
X36714570Y-24099874D01*
X36697041Y-24122718D01*
X36680731Y-24146449D01*
X36665686Y-24171000D01*
X36651946Y-24196305D01*
X36639550Y-24222295D01*
X36628531Y-24248898D01*
X36618919Y-24276041D01*
X36610741Y-24303650D01*
X36604019Y-24331649D01*
X36598771Y-24359961D01*
X36595013Y-24388509D01*
X36592754Y-24417215D01*
X36592000Y-24446000D01*
G37*
X36592000Y-24446000D02*
X36592000Y-26946000D01*
X36592754Y-26974785D01*
X36595013Y-27003491D01*
X36598771Y-27032039D01*
X36604019Y-27060351D01*
X36610741Y-27088350D01*
X36618919Y-27115959D01*
X36628531Y-27143102D01*
X36639550Y-27169705D01*
X36651946Y-27195695D01*
X36665686Y-27221000D01*
X36680731Y-27245551D01*
X36697041Y-27269282D01*
X36714570Y-27292126D01*
X36733270Y-27314022D01*
X36753091Y-27334909D01*
X36773978Y-27354730D01*
X36795874Y-27373430D01*
X36818718Y-27390959D01*
X36842449Y-27407269D01*
X36867000Y-27422314D01*
X36892305Y-27436054D01*
X36918295Y-27448450D01*
X36944898Y-27459469D01*
X36972041Y-27469081D01*
X36999650Y-27477259D01*
X37027649Y-27483981D01*
X37055961Y-27489229D01*
X37084509Y-27492987D01*
X37113215Y-27495246D01*
X37142000Y-27496000D01*
X37170785Y-27495246D01*
X37199491Y-27492987D01*
X37228039Y-27489229D01*
X37256351Y-27483981D01*
X37284350Y-27477259D01*
X37311959Y-27469081D01*
X37339102Y-27459469D01*
X37365705Y-27448450D01*
X37391695Y-27436054D01*
X37417000Y-27422314D01*
X37441551Y-27407269D01*
X37465282Y-27390959D01*
X37488126Y-27373430D01*
X37510022Y-27354730D01*
X37530909Y-27334909D01*
X37550730Y-27314022D01*
X37569430Y-27292126D01*
X37586959Y-27269282D01*
X37603269Y-27245551D01*
X37618314Y-27221000D01*
X37632054Y-27195695D01*
X37644450Y-27169705D01*
X37655469Y-27143102D01*
X37665081Y-27115959D01*
X37673259Y-27088350D01*
X37679981Y-27060351D01*
X37685229Y-27032039D01*
X37688987Y-27003491D01*
X37691246Y-26974785D01*
X37692000Y-26946000D01*
X37692000Y-24446000D01*
X37691246Y-24417215D01*
X37688987Y-24388509D01*
X37685229Y-24359961D01*
X37679981Y-24331649D01*
X37673259Y-24303650D01*
X37665081Y-24276041D01*
X37655469Y-24248898D01*
X37644450Y-24222295D01*
X37632054Y-24196305D01*
X37618314Y-24171000D01*
X37603269Y-24146449D01*
X37586959Y-24122718D01*
X37569430Y-24099874D01*
X37550730Y-24077978D01*
X37530909Y-24057091D01*
X37510022Y-24037270D01*
X37488126Y-24018570D01*
X37465282Y-24001041D01*
X37441551Y-23984731D01*
X37417000Y-23969686D01*
X37391695Y-23955946D01*
X37365705Y-23943550D01*
X37339102Y-23932531D01*
X37311959Y-23922919D01*
X37284350Y-23914741D01*
X37256351Y-23908019D01*
X37228039Y-23902771D01*
X37199491Y-23899013D01*
X37170785Y-23896754D01*
X37142000Y-23896000D01*
X37113215Y-23896754D01*
X37084509Y-23899013D01*
X37055961Y-23902771D01*
X37027649Y-23908019D01*
X36999650Y-23914741D01*
X36972041Y-23922919D01*
X36944898Y-23932531D01*
X36918295Y-23943550D01*
X36892305Y-23955946D01*
X36867000Y-23969686D01*
X36842449Y-23984731D01*
X36818718Y-24001041D01*
X36795874Y-24018570D01*
X36773978Y-24037270D01*
X36753091Y-24057091D01*
X36733270Y-24077978D01*
X36714570Y-24099874D01*
X36697041Y-24122718D01*
X36680731Y-24146449D01*
X36665686Y-24171000D01*
X36651946Y-24196305D01*
X36639550Y-24222295D01*
X36628531Y-24248898D01*
X36618919Y-24276041D01*
X36610741Y-24303650D01*
X36604019Y-24331649D01*
X36598771Y-24359961D01*
X36595013Y-24388509D01*
X36592754Y-24417215D01*
X36592000Y-24446000D01*
D13*
X47800000Y-50450000D03*
D14*
X150800000Y-69550000D03*
X213100000Y-107750000D03*
X282650000Y-50450000D03*
D15*
X47800000Y-48150000D03*
X45500000Y-50450000D03*
X50100000Y-50450000D03*
X47800000Y-52750000D03*
X46173654Y-48823654D03*
X49426346Y-48823654D03*
X46173654Y-52076346D03*
X49426346Y-52076346D03*
X282650000Y-48150000D03*
X282650000Y-52750000D03*
X283850000Y-52750000D03*
X281450000Y-52750000D03*
X281450000Y-48150000D03*
X283850000Y-48133000D03*
X213100000Y-105450000D03*
X213100000Y-110050000D03*
X214300000Y-105450000D03*
X211900000Y-105450000D03*
X211900000Y-110050000D03*
X214300000Y-110050000D03*
X150800000Y-67250000D03*
X152000000Y-67250000D03*
X149600000Y-67250000D03*
X150800000Y-71850000D03*
X149600000Y-71850000D03*
X152000000Y-71850000D03*
X29000000Y-79050000D03*
X26400000Y-76450000D03*
X26400000Y-81650000D03*
X28238478Y-77211522D03*
X28238478Y-80888478D03*
X24357965Y-76450000D03*
X24357965Y-81650000D03*
X301200000Y-79050000D03*
X301961522Y-77211522D03*
X303800000Y-76450000D03*
X305842035Y-76450000D03*
X305842035Y-81650000D03*
X303800000Y-81650000D03*
X301961522Y-80888478D03*
D16*
X304743750Y-65500000D03*
X306493750Y-65500000D03*
X304743750Y-62000000D03*
X306493750Y-62000000D03*
X306493750Y-70000000D03*
X304743750Y-70000000D03*
X306493750Y-73500000D03*
X304743750Y-73500000D03*
D17*
X298712500Y-100619140D03*
X293712500Y-100619140D03*
D18*
X301812500Y-107619140D03*
X290612500Y-107619140D03*
D17*
X298712500Y-115119140D03*
X296212500Y-115119140D03*
D19*
X293712500Y-115119140D03*
D20*
X71303750Y-110515360D03*
X64953750Y-113055360D03*
X48285000Y-113055360D03*
X54635000Y-110515360D03*
X57016250Y-110515360D03*
X50666250Y-113055360D03*
X33997500Y-113055360D03*
X40347500Y-110515360D03*
X31616250Y-113055360D03*
X37966250Y-110515360D03*
X35585000Y-110515360D03*
X29235000Y-113055360D03*
X95116250Y-110515360D03*
X88766250Y-113055360D03*
X78447500Y-110515360D03*
X72097500Y-113055360D03*
X74478750Y-113055360D03*
X80828750Y-110515360D03*
X144646250Y-105435360D03*
X150996250Y-102895360D03*
X199891250Y-110515360D03*
X193541250Y-113055360D03*
X219735000Y-113055360D03*
X226085000Y-110515360D03*
D21*
X223703750Y-110515360D03*
X217353750Y-113055360D03*
D20*
X248310000Y-55905120D03*
X254660000Y-53365120D03*
X248310000Y-74955200D03*
X254660000Y-72415200D03*
X252278750Y-91465280D03*
X245928750Y-94005280D03*
X273710000Y-53365120D03*
X267360000Y-55905120D03*
X272122500Y-94005280D03*
X278472500Y-91465280D03*
X297522500Y-53365120D03*
X291172500Y-55905120D03*
X289902500Y-86385280D03*
X296252500Y-83845280D03*
X264185000Y-110515360D03*
X257835000Y-113055360D03*
X249897500Y-110515360D03*
X243547500Y-113055360D03*
X238785000Y-113055360D03*
X245135000Y-110515360D03*
X255453750Y-113055360D03*
X261803750Y-110515360D03*
X220846250Y-105435360D03*
X227196250Y-102895360D03*
D21*
X218465000Y-105435360D03*
X224815000Y-102895360D03*
D20*
X285616250Y-72415200D03*
X279266250Y-74955200D03*
X292760000Y-34315040D03*
X286410000Y-36855040D03*
D22*
X37142000Y-25696000D03*
X44442000Y-25696000D03*
D23*
X89814000Y-42697000D03*
X92354000Y-42697000D03*
D24*
X94894000Y-42697000D03*
D25*
X63144000Y-40538000D03*
X69397856Y-58338753D03*
X57429000Y-51460000D03*
X69240000Y-49555000D03*
X69345974Y-57537226D03*
X265942030Y-75021811D03*
X264987743Y-74033821D03*
X60986125Y-81052127D03*
X65557002Y-74320000D03*
X61621126Y-78638000D03*
X64605626Y-75023290D03*
X57937000Y-34315000D03*
X58064000Y-105435000D03*
X62763000Y-86385000D03*
X67326862Y-72165790D03*
X35331000Y-102895000D03*
X33172000Y-102895000D03*
X53265000Y-48285120D03*
X72247773Y-55901515D03*
X61180290Y-37563670D03*
X303047000Y-60223000D03*
X60985000Y-35585000D03*
X69367001Y-64160001D03*
X61008680Y-65434789D03*
X78130000Y-56285996D03*
X71444697Y-55916305D03*
X73558000Y-64541000D03*
X76352000Y-64541000D03*
X62763000Y-29235000D03*
X72315000Y-48285120D03*
X81840000Y-86385280D03*
X81840000Y-105435360D03*
X86512000Y-72415000D03*
X73071630Y-55883370D03*
X81813000Y-29362000D03*
X91365000Y-67335200D03*
X100890000Y-86385280D03*
X117558750Y-105435360D03*
X91365000Y-48385000D03*
X73939000Y-53365000D03*
X100863000Y-29235000D03*
X110415000Y-48285120D03*
X110415000Y-67335200D03*
X119940000Y-86385280D03*
X110415000Y-55804994D03*
X119913000Y-29362000D03*
X129465000Y-48285120D03*
X129465000Y-67335200D03*
X138990000Y-86385280D03*
X129465000Y-55805000D03*
X75526500Y-55968500D03*
X86385000Y-55143000D03*
X138963000Y-29362000D03*
X148515000Y-48285120D03*
X162685000Y-72415200D03*
X158040000Y-86385280D03*
X148515000Y-56004996D03*
X76421852Y-56024113D03*
X85810110Y-55703938D03*
X167565000Y-48285120D03*
X167565000Y-67335200D03*
X158013000Y-29362000D03*
X177090000Y-86385280D03*
X167565000Y-57021000D03*
X77241000Y-56032000D03*
X85242208Y-56271949D03*
X186615000Y-48285120D03*
X177090000Y-29235040D03*
X186615000Y-67335200D03*
X196140000Y-86385280D03*
X158040000Y-105435360D03*
X186615000Y-57583000D03*
X196113000Y-29235000D03*
X205665000Y-48285120D03*
X191377500Y-105435360D03*
X205665000Y-67335200D03*
X215190000Y-86385280D03*
X205665000Y-58164000D03*
X215290000Y-29235000D03*
X224715000Y-48285120D03*
X234240000Y-86385280D03*
X224715000Y-67335200D03*
X224715000Y-58545000D03*
X234340000Y-29235000D03*
X248527500Y-48285120D03*
X255671250Y-67335200D03*
X260433750Y-86385280D03*
X246146250Y-105435360D03*
X255676000Y-57970465D03*
X253390000Y-29362000D03*
X272340000Y-48285120D03*
X286627500Y-67335200D03*
X303178750Y-91465280D03*
X277007082Y-56662210D03*
X291363000Y-29235000D03*
X272440000Y-29235000D03*
X291390000Y-29235040D03*
X291390000Y-48285120D03*
X288696000Y-56794000D03*
X38887000Y-34442000D03*
X29452500Y-48285120D03*
X29452500Y-67335200D03*
X34215000Y-86385280D03*
X31833750Y-105435360D03*
X54254000Y-36855000D03*
X55396994Y-37998000D03*
X71399000Y-52984000D03*
X306476000Y-73558000D03*
X61874000Y-36220000D03*
X61874000Y-38252000D03*
X306493750Y-65500000D03*
X304444000Y-60223000D03*
X302920000Y-58698996D03*
X39693716Y-29418989D03*
X42766993Y-29419021D03*
X51810834Y-46434994D03*
X74194689Y-68227653D03*
X52476000Y-45745000D03*
X74992968Y-67593790D03*
X80219761Y-67270265D03*
X263381787Y-75590000D03*
X263381802Y-73308781D03*
X71018000Y-64795000D03*
X81261447Y-67420699D03*
X264185000Y-73304000D03*
X264238604Y-75523441D03*
X71914351Y-64787643D03*
X47578003Y-67409997D03*
X66953999Y-67609630D03*
X67462000Y-69494000D03*
X69779177Y-68065822D03*
X302412000Y-57937000D03*
X269656128Y-57947128D03*
X267487000Y-60073375D03*
X42018722Y-40621718D03*
X42018722Y-39193863D03*
X42819660Y-40528412D03*
X42824000Y-39268000D03*
X89687002Y-51224596D03*
X76987000Y-59588000D03*
X89052000Y-52476000D03*
X76479000Y-58953000D03*
X88421790Y-53496796D03*
X75717000Y-58571998D03*
D26*
X72029201Y-49423201D02*
X72029201Y-54088100D01*
X69997202Y-56120099D02*
X69997202Y-58163671D01*
X63144000Y-40538000D02*
X72029201Y-49423201D01*
X69997202Y-58163671D02*
X69822120Y-58338753D01*
X69822120Y-58338753D02*
X69397856Y-58338753D01*
X72029201Y-54088100D02*
X69997202Y-56120099D01*
X57429000Y-51460000D02*
X57429000Y-50306450D01*
X68097000Y-48412000D02*
X69240000Y-49555000D01*
X57429000Y-50306450D02*
X59323450Y-48412000D01*
X59323450Y-48412000D02*
X68097000Y-48412000D01*
X69240000Y-49555000D02*
X69240000Y-57431252D01*
X69240000Y-57431252D02*
X69345974Y-57537226D01*
X265942030Y-75021811D02*
X264987743Y-74067524D01*
X264987743Y-74067524D02*
X264987743Y-74033821D01*
X60986125Y-77710091D02*
X64376216Y-74320000D01*
X64376216Y-74320000D02*
X65557002Y-74320000D01*
X60986125Y-81052127D02*
X60986125Y-77710091D01*
X61621126Y-77886466D02*
X64484302Y-75023290D01*
X61621126Y-78638000D02*
X61621126Y-77886466D01*
X64484302Y-75023290D02*
X64605626Y-75023290D01*
X54635000Y-110515360D02*
X57016250Y-110515360D01*
X57016250Y-110515360D02*
X71303750Y-110515360D01*
X37871000Y-105435000D02*
X35331000Y-102895000D01*
X58064000Y-105435000D02*
X37871000Y-105435000D01*
X44676101Y-114510561D02*
X48671302Y-110515360D01*
X25032592Y-111006650D02*
X28536503Y-114510561D01*
X28536503Y-114510561D02*
X44676101Y-114510561D01*
X25032589Y-107207481D02*
X25032592Y-111006650D01*
X48671302Y-110515360D02*
X54635000Y-110515360D01*
X29345070Y-102895000D02*
X25032589Y-107207481D01*
X33172000Y-102895000D02*
X29345070Y-102895000D01*
X58064000Y-91084000D02*
X58064000Y-105435000D01*
X62763000Y-86385000D02*
X58064000Y-91084000D01*
X62255000Y-77919698D02*
X64330698Y-75844000D01*
X62763000Y-86385000D02*
X62255000Y-85877000D01*
X64330698Y-75844000D02*
X65092698Y-75844000D01*
X62255000Y-85877000D02*
X62255000Y-77919698D01*
X67326862Y-73609836D02*
X67326862Y-72165790D01*
X65092698Y-75844000D02*
X67326862Y-73609836D01*
X57937000Y-34315000D02*
X54127000Y-38125000D01*
X54127000Y-47423120D02*
X53265000Y-48285120D01*
X54127000Y-38125000D02*
X54127000Y-47423120D01*
X57428998Y-66064998D02*
X68872848Y-66064998D01*
X53265000Y-48285120D02*
X53265000Y-61901000D01*
X53265000Y-61901000D02*
X57428998Y-66064998D01*
X68872848Y-66064998D02*
X71491219Y-66064998D01*
X74965119Y-66674633D02*
X75623170Y-67332684D01*
X75623170Y-70355728D02*
X74113107Y-71865791D01*
X72100854Y-66674633D02*
X74965119Y-66674633D01*
X74113107Y-71865791D02*
X67626861Y-71865791D01*
X75623170Y-67332684D02*
X75623170Y-70355728D01*
X71491219Y-66064998D02*
X72100854Y-66674633D01*
X67626861Y-71865791D02*
X67326862Y-72165790D01*
X68872848Y-65841031D02*
X72247773Y-62466106D01*
X72247773Y-62466106D02*
X72247773Y-55901515D01*
X68872848Y-66064998D02*
X68872848Y-65841031D01*
D27*
X304743750Y-62000000D02*
X303682000Y-63061750D01*
X303682000Y-68938250D02*
X304743750Y-70000000D01*
X303682000Y-63061750D02*
X303682000Y-68938250D01*
X303047000Y-60303250D02*
X303047000Y-60223000D01*
X304743750Y-62000000D02*
X303047000Y-60303250D01*
X60985000Y-37368380D02*
X60985000Y-35585000D01*
X61180290Y-37563670D02*
X60985000Y-37368380D01*
X62283468Y-64160001D02*
X61008680Y-65434789D01*
X69367001Y-64160001D02*
X62283468Y-64160001D01*
X71444697Y-62082305D02*
X71444697Y-55916305D01*
X69367001Y-64160001D02*
X71444697Y-62082305D01*
X73558000Y-64541000D02*
X76352000Y-64541000D01*
X78130000Y-56285996D02*
X77680706Y-56735290D01*
X77680706Y-56735290D02*
X76527030Y-56735290D01*
X75023299Y-63212299D02*
X76352000Y-64541000D01*
X76527030Y-56735290D02*
X75023299Y-58239021D01*
X75023299Y-58239021D02*
X75023299Y-63212299D01*
D26*
X81840000Y-86385280D02*
X81840000Y-105435360D01*
X95116250Y-110515360D02*
X80828750Y-110515360D01*
X80828750Y-110515360D02*
X78447500Y-110515360D01*
X97591451Y-107396863D02*
X97591451Y-109631149D01*
X95502588Y-105308000D02*
X97591451Y-107396863D01*
X90576000Y-105308000D02*
X95502588Y-105308000D01*
X97591451Y-109631149D02*
X96707240Y-110515360D01*
X88873159Y-103605159D02*
X90576000Y-105308000D01*
X96707240Y-110515360D02*
X95116250Y-110515360D01*
X83670201Y-103605159D02*
X88873159Y-103605159D01*
X81840000Y-105435360D02*
X83670201Y-103605159D01*
X62890000Y-38860120D02*
X72315000Y-48285120D01*
X62890000Y-29362000D02*
X62890000Y-38860120D01*
X62763000Y-29235000D02*
X62890000Y-29362000D01*
X72161280Y-86385280D02*
X68248288Y-82472288D01*
X64322878Y-82472288D02*
X62765680Y-80915092D01*
X69255674Y-76301211D02*
X72964096Y-72592789D01*
X68248288Y-82472288D02*
X64322878Y-82472288D01*
X62765680Y-80915092D02*
X62765680Y-78080948D01*
X64545417Y-76301211D02*
X69255674Y-76301211D01*
X81840000Y-86385280D02*
X72161280Y-86385280D01*
X72964096Y-72592789D02*
X80678891Y-72592789D01*
X80678891Y-72592789D02*
X82331503Y-74245401D01*
X82331503Y-74245401D02*
X84681599Y-74245401D01*
X84681599Y-74245401D02*
X86512000Y-72415000D01*
X62765680Y-78080948D02*
X64545417Y-76301211D01*
X73071630Y-55459106D02*
X73071630Y-55883370D01*
X72315000Y-48285120D02*
X73071630Y-49041750D01*
X73071630Y-49041750D02*
X73071630Y-55459106D01*
X72927799Y-64843497D02*
X72927799Y-56027201D01*
X73387302Y-65303000D02*
X72927799Y-64843497D01*
X72927799Y-56027201D02*
X73071630Y-55883370D01*
X86512000Y-72415000D02*
X86512000Y-70123502D01*
X86512000Y-70123502D02*
X81691498Y-65303000D01*
X81691498Y-65303000D02*
X73387302Y-65303000D01*
X81813000Y-38733120D02*
X91365000Y-48285120D01*
X81813000Y-29362000D02*
X81813000Y-38733120D01*
X91365000Y-48285120D02*
X91365000Y-48385000D01*
X114981080Y-105435360D02*
X117558750Y-105435360D01*
X100890000Y-91344280D02*
X114981080Y-105435360D01*
X100890000Y-86385280D02*
X100890000Y-91344280D01*
X91365000Y-48385000D02*
X91365000Y-67335200D01*
X123469360Y-105435360D02*
X144646250Y-105435360D01*
X121639159Y-103605159D02*
X123469360Y-105435360D01*
X119388951Y-103605159D02*
X121639159Y-103605159D01*
X117558750Y-105435360D02*
X119388951Y-103605159D01*
X96519799Y-82015079D02*
X100890000Y-86385280D01*
X63222891Y-78270330D02*
X63222891Y-80725710D01*
X91365000Y-68839200D02*
X83418799Y-76785401D01*
X63222891Y-80725710D02*
X64512261Y-82015078D01*
X75981503Y-76785401D02*
X75968901Y-76772799D01*
X64512261Y-82015078D02*
X96519799Y-82015079D01*
X83418799Y-76785401D02*
X75981503Y-76785401D01*
X64720422Y-76772799D02*
X63222891Y-78270330D01*
X75968901Y-76772799D02*
X64720422Y-76772799D01*
X91365000Y-67335200D02*
X91365000Y-68839200D01*
X80109799Y-40436321D02*
X81813000Y-38733120D01*
X77075899Y-49507919D02*
X80109799Y-46474019D01*
X77075899Y-50228101D02*
X77075899Y-49507919D01*
X80109799Y-46474019D02*
X80109799Y-40436321D01*
X73939000Y-53365000D02*
X77075899Y-50228101D01*
X100863000Y-38733120D02*
X110415000Y-48285120D01*
X100863000Y-29235000D02*
X100863000Y-38733120D01*
X110415000Y-67335200D02*
X110415000Y-55804994D01*
X110415000Y-48285120D02*
X110415000Y-55804994D01*
X63680102Y-80536328D02*
X64676183Y-81532407D01*
X64909804Y-77230010D02*
X63680102Y-78459712D01*
X75779519Y-77230010D02*
X64909804Y-77230010D01*
X100507588Y-77242612D02*
X75792121Y-77242612D01*
X115087127Y-81532407D02*
X119940000Y-86385280D01*
X110415000Y-67335200D02*
X100507588Y-77242612D01*
X63680102Y-78459712D02*
X63680102Y-80536328D01*
X75792121Y-77242612D02*
X75779519Y-77230010D01*
X64676183Y-81532407D02*
X115087127Y-81532407D01*
X119913000Y-38733120D02*
X129465000Y-48285120D01*
X119913000Y-29362000D02*
X119913000Y-38733120D01*
X129465000Y-48285120D02*
X129465000Y-55805000D01*
X129465000Y-67335200D02*
X129465000Y-55805000D01*
X75602739Y-77699823D02*
X75590137Y-77687221D01*
X129465000Y-67335200D02*
X119100377Y-77699823D01*
X119100377Y-77699823D02*
X75602739Y-77699823D01*
X64859095Y-81068727D02*
X133673447Y-81068727D01*
X64137313Y-80346946D02*
X64859095Y-81068727D01*
X65099186Y-77687221D02*
X64137313Y-78649094D01*
X64137313Y-78649094D02*
X64137313Y-80346946D01*
X133673447Y-81068727D02*
X138990000Y-86385280D01*
X75590137Y-77687221D02*
X65099186Y-77687221D01*
X75526500Y-55544236D02*
X76348601Y-54722135D01*
X76348601Y-54722135D02*
X85964135Y-54722135D01*
X85964135Y-54722135D02*
X86385000Y-55143000D01*
X75526500Y-55968500D02*
X75526500Y-55544236D01*
X138963000Y-38733120D02*
X148515000Y-48285120D01*
X138963000Y-29362000D02*
X138963000Y-38733120D01*
X162685000Y-70174996D02*
X148515000Y-56004996D01*
X148515000Y-48285120D02*
X148515000Y-56004996D01*
X162685000Y-72415200D02*
X162685000Y-70174996D01*
X75413357Y-78157034D02*
X75400755Y-78144432D01*
X64594524Y-80157564D02*
X65042007Y-80605047D01*
X156943166Y-78157034D02*
X75413357Y-78157034D01*
X75400755Y-78144432D02*
X65288568Y-78144432D01*
X64594524Y-78838476D02*
X64594524Y-80157564D01*
X162685000Y-72415200D02*
X156943166Y-78157034D01*
X65288568Y-78144432D02*
X64594524Y-78838476D01*
X65042007Y-80605047D02*
X152259767Y-80605047D01*
X152259767Y-80605047D02*
X158040000Y-86385280D01*
X85290127Y-55183955D02*
X85810110Y-55703938D01*
X76421852Y-56024113D02*
X76421852Y-55599849D01*
X76421852Y-55599849D02*
X76837746Y-55183955D01*
X76837746Y-55183955D02*
X85290127Y-55183955D01*
X158013000Y-29362000D02*
X158013000Y-38733120D01*
X158013000Y-38733120D02*
X167565000Y-48285120D01*
X167565000Y-48285120D02*
X167565000Y-57021000D01*
X167565000Y-67335200D02*
X167565000Y-57021000D01*
X182831832Y-80643448D02*
X177090000Y-86385280D01*
X247528080Y-73583422D02*
X247611503Y-73499999D01*
X260832156Y-78852748D02*
X260832156Y-80039476D01*
X167565000Y-67335200D02*
X167565000Y-69653898D01*
X167565000Y-69653898D02*
X171494524Y-73583422D01*
X250273202Y-73570934D02*
X254789016Y-78086748D01*
X249079432Y-73570934D02*
X250273202Y-73570934D01*
X260066156Y-78086748D02*
X260832156Y-78852748D01*
X260832156Y-80039476D02*
X260228184Y-80643448D01*
X254789016Y-78086748D02*
X260066156Y-78086748D01*
X249008497Y-73499999D02*
X249079432Y-73570934D01*
X260228184Y-80643448D02*
X182831832Y-80643448D01*
X247611503Y-73499999D02*
X249008497Y-73499999D01*
X171494524Y-73583422D02*
X247528080Y-73583422D01*
X77617206Y-55655794D02*
X84626053Y-55655794D01*
X77241000Y-56032000D02*
X77617206Y-55655794D01*
X84626053Y-55655794D02*
X85242208Y-56271949D01*
X177090000Y-38760120D02*
X177090000Y-29235040D01*
X186615000Y-48285120D02*
X177090000Y-38760120D01*
X196140000Y-86385280D02*
X196112720Y-86385280D01*
X164239597Y-105651259D02*
X162193497Y-103605159D01*
X176846741Y-105651259D02*
X164239597Y-105651259D01*
X159870201Y-103605159D02*
X158040000Y-105435360D01*
X162193497Y-103605159D02*
X159870201Y-103605159D01*
X196112720Y-86385280D02*
X176846741Y-105651259D01*
X186615000Y-67335200D02*
X186615000Y-57583000D01*
X186615000Y-48285120D02*
X186615000Y-57583000D01*
X247338698Y-73126211D02*
X247422121Y-73042788D01*
X260255538Y-77629537D02*
X261289367Y-78663366D01*
X201424621Y-81100659D02*
X196140000Y-86385280D01*
X186615000Y-67335200D02*
X186615000Y-69653898D01*
X261289367Y-80228858D02*
X260417566Y-81100659D01*
X247422121Y-73042788D02*
X249197879Y-73042788D01*
X250462584Y-73113723D02*
X254978398Y-77629537D01*
X186615000Y-69653898D02*
X190087313Y-73126211D01*
X249197879Y-73042788D02*
X249268814Y-73113723D01*
X254978398Y-77629537D02*
X260255538Y-77629537D01*
X261289367Y-78663366D02*
X261289367Y-80228858D01*
X249268814Y-73113723D02*
X250462584Y-73113723D01*
X260417566Y-81100659D02*
X201424621Y-81100659D01*
X190087313Y-73126211D02*
X247338698Y-73126211D01*
X196113000Y-38733120D02*
X205665000Y-48285120D01*
X196113000Y-29235000D02*
X196113000Y-38733120D01*
X226085000Y-110515360D02*
X223703750Y-110515360D01*
X200956211Y-111580321D02*
X199891250Y-110515360D01*
X223703750Y-110515360D02*
X222638789Y-111580321D01*
X189796049Y-108553857D02*
X189796049Y-107016811D01*
X191757552Y-110515360D02*
X189796049Y-108553857D01*
X189796049Y-107016811D02*
X191377500Y-105435360D01*
X199891250Y-110515360D02*
X191757552Y-110515360D01*
X215190000Y-98111558D02*
X201721237Y-111580321D01*
X215190000Y-86385280D02*
X215190000Y-98111558D01*
X201721237Y-111580321D02*
X201651679Y-111580321D01*
X201651679Y-111580321D02*
X200956211Y-111580321D01*
X222638789Y-111580321D02*
X201651679Y-111580321D01*
X205665000Y-48285120D02*
X205665000Y-58164000D01*
X205665000Y-67335200D02*
X205665000Y-58164000D01*
X208680102Y-72669000D02*
X247149316Y-72669000D01*
X247232739Y-72585577D02*
X249474114Y-72585577D01*
X249545049Y-72656512D02*
X250651966Y-72656512D01*
X261746578Y-78381764D02*
X261746578Y-80418240D01*
X260606948Y-81557870D02*
X220017410Y-81557870D01*
X260504237Y-77139422D02*
X261746578Y-78381764D01*
X250651966Y-72656512D02*
X255134876Y-77139422D01*
X249474114Y-72585577D02*
X249545049Y-72656512D01*
X205665000Y-69653898D02*
X208680102Y-72669000D01*
X205665000Y-67335200D02*
X205665000Y-69653898D01*
X247149316Y-72669000D02*
X247232739Y-72585577D01*
X255134876Y-77139422D02*
X260504237Y-77139422D01*
X261746578Y-80418240D02*
X260606948Y-81557870D01*
X220017410Y-81557870D02*
X215190000Y-86385280D01*
X215290000Y-38860120D02*
X224715000Y-48285120D01*
X215290000Y-29235000D02*
X215290000Y-38860120D01*
X249897500Y-110515360D02*
X245135000Y-110515360D01*
X239000899Y-104743131D02*
X252278750Y-91465280D01*
X239000899Y-109090929D02*
X239000899Y-104743131D01*
X240425330Y-110515360D02*
X239000899Y-109090929D01*
X245135000Y-110515360D02*
X240425330Y-110515360D01*
X234240000Y-88703978D02*
X234240000Y-86385280D01*
X237001302Y-91465280D02*
X234240000Y-88703978D01*
X252278750Y-91465280D02*
X237001302Y-91465280D01*
X218465000Y-105435360D02*
X220846250Y-105435360D01*
X224715000Y-67335200D02*
X224715000Y-58545000D01*
X224715000Y-48285120D02*
X224715000Y-58545000D01*
X227272891Y-72211789D02*
X224715000Y-69653898D01*
X246959934Y-72211789D02*
X227272891Y-72211789D01*
X249663496Y-72128366D02*
X247043357Y-72128366D01*
X250888301Y-72199301D02*
X249734431Y-72199301D01*
X253174101Y-74485101D02*
X250888301Y-72199301D01*
X262203789Y-80607622D02*
X262203789Y-78192381D01*
X238610201Y-82015079D02*
X260796332Y-82015079D01*
X234240000Y-86385280D02*
X238610201Y-82015079D01*
X247043357Y-72128366D02*
X246959934Y-72211789D01*
X260693619Y-76682211D02*
X255324258Y-76682211D01*
X249734431Y-72199301D02*
X249663496Y-72128366D01*
X224715000Y-69653898D02*
X224715000Y-67335200D01*
X253174101Y-74532054D02*
X253174101Y-74485101D01*
X260796332Y-82015079D02*
X262203789Y-80607622D01*
X262203789Y-78192381D02*
X260693619Y-76682211D01*
X255324258Y-76682211D02*
X253174101Y-74532054D01*
X234240000Y-91184000D02*
X234240000Y-86385280D01*
X220846250Y-104577750D02*
X234240000Y-91184000D01*
X220846250Y-105435360D02*
X220846250Y-104577750D01*
X234340000Y-34097620D02*
X248527500Y-48285120D01*
X234340000Y-29235000D02*
X234340000Y-34097620D01*
X249950330Y-53365120D02*
X254660000Y-53365120D01*
X248525899Y-48286721D02*
X248525899Y-51940689D01*
X248525899Y-51940689D02*
X249950330Y-53365120D01*
X248527500Y-48285120D02*
X248525899Y-48286721D01*
X254660000Y-68346450D02*
X254660000Y-72415200D01*
X255671250Y-67335200D02*
X254660000Y-68346450D01*
X261803750Y-110515360D02*
X264185000Y-110515360D01*
X278472500Y-97818850D02*
X278472500Y-91465280D01*
X265775990Y-110515360D02*
X278472500Y-97818850D01*
X264185000Y-110515360D02*
X265775990Y-110515360D01*
X260502000Y-86317030D02*
X260433750Y-86385280D01*
X260502000Y-82956000D02*
X260502000Y-86317030D01*
X262661000Y-80797000D02*
X260502000Y-82956000D01*
X262661000Y-78003000D02*
X262661000Y-80797000D01*
X260883000Y-76225000D02*
X262661000Y-78003000D01*
X254660000Y-72415200D02*
X254660200Y-72415200D01*
X258470000Y-76225000D02*
X260883000Y-76225000D01*
X254660200Y-72415200D02*
X258470000Y-76225000D01*
X255676000Y-67330450D02*
X255671250Y-67335200D01*
X255676000Y-54381120D02*
X255676000Y-67330450D01*
X254660000Y-53365120D02*
X255676000Y-54381120D01*
X263118666Y-91465280D02*
X278472500Y-91465280D01*
X260433750Y-88780364D02*
X263118666Y-91465280D01*
X260433750Y-86385280D02*
X260433750Y-88780364D01*
X246146250Y-103026750D02*
X246146250Y-105435360D01*
X260433750Y-88739250D02*
X246146250Y-103026750D01*
X260433750Y-86385280D02*
X260433750Y-88739250D01*
X285616250Y-68346450D02*
X285616250Y-72415200D01*
X286627500Y-67335200D02*
X285616250Y-68346450D01*
X300417448Y-86385280D02*
X303178750Y-89146582D01*
X303178750Y-89146582D02*
X303178750Y-91465280D01*
X289902500Y-86385280D02*
X300417448Y-86385280D01*
X303178750Y-96152890D02*
X298712500Y-100619140D01*
X303178750Y-91465280D02*
X303178750Y-96152890D01*
X277007082Y-56662202D02*
X277007082Y-56662210D01*
X273710000Y-53365120D02*
X277007082Y-56662202D01*
X277007082Y-56690432D02*
X277007082Y-56662210D01*
X286627500Y-66310850D02*
X277007082Y-56690432D01*
X286627500Y-67335200D02*
X286627500Y-66310850D01*
X272948000Y-52603120D02*
X273710000Y-53365120D01*
X272948000Y-48893120D02*
X272948000Y-52603120D01*
X272340000Y-48285120D02*
X272948000Y-48893120D01*
X271450880Y-47396000D02*
X272340000Y-48285120D01*
X269132262Y-47396000D02*
X271450880Y-47396000D01*
X253390000Y-31653738D02*
X269132262Y-47396000D01*
X253390000Y-29362000D02*
X253390000Y-31653738D01*
X285521000Y-72510450D02*
X285521000Y-82003780D01*
X285521000Y-82003780D02*
X289902500Y-86385280D01*
X285616250Y-72415200D02*
X285521000Y-72510450D01*
X279966101Y-27404839D02*
X281796302Y-29235040D01*
X281796302Y-29235040D02*
X291390000Y-29235040D01*
X274270161Y-27404839D02*
X279966101Y-27404839D01*
X272440000Y-29235000D02*
X274270161Y-27404839D01*
X292760000Y-32923738D02*
X292760000Y-34315040D01*
X291363000Y-31526738D02*
X292760000Y-32923738D01*
X291363000Y-29235000D02*
X291363000Y-31526738D01*
X292760000Y-46915120D02*
X291390000Y-48285120D01*
X292760000Y-34315040D02*
X292760000Y-46915120D01*
X291388399Y-48286721D02*
X291388399Y-51940689D01*
X291390000Y-48285120D02*
X291388399Y-48286721D01*
X291388399Y-51940689D02*
X292812830Y-53365120D01*
X292812830Y-53365120D02*
X297522500Y-53365120D01*
X288696000Y-56369736D02*
X288696000Y-56794000D01*
X288696000Y-54633088D02*
X288696000Y-56369736D01*
X291388399Y-51940689D02*
X288696000Y-54633088D01*
X29452500Y-48285120D02*
X29452500Y-67335200D01*
X34215000Y-74982000D02*
X34215000Y-86385280D01*
X29452500Y-67335200D02*
X29452500Y-70219500D01*
X29452500Y-70219500D02*
X34215000Y-74982000D01*
X34215000Y-103054110D02*
X31833750Y-105435360D01*
X34215000Y-86385280D02*
X34215000Y-103054110D01*
X27451302Y-110515360D02*
X35585000Y-110515360D01*
X25489799Y-107396863D02*
X25489799Y-108553857D01*
X27451302Y-105435360D02*
X25489799Y-107396863D01*
X25489799Y-108553857D02*
X27451302Y-110515360D01*
X31833750Y-105435360D02*
X27451302Y-105435360D01*
X35585000Y-110515360D02*
X37966250Y-110515360D01*
X37966250Y-110515360D02*
X40347500Y-110515360D01*
X51841000Y-34442000D02*
X54254000Y-36855000D01*
X38887000Y-34442000D02*
X51841000Y-34442000D01*
X37490000Y-40247620D02*
X29452500Y-48285120D01*
X37490000Y-35839000D02*
X37490000Y-40247620D01*
X38887000Y-34442000D02*
X37490000Y-35839000D01*
X71399000Y-50217342D02*
X59179658Y-37998000D01*
X59179658Y-37998000D02*
X55396994Y-37998000D01*
X71399000Y-52984000D02*
X71399000Y-50217342D01*
D27*
X61874000Y-36220000D02*
X61874000Y-38252000D01*
X302920000Y-58699000D02*
X302920000Y-58698996D01*
X304444000Y-60223000D02*
X302920000Y-58699000D01*
X42766961Y-29418989D02*
X42766993Y-29419021D01*
X39693716Y-29418989D02*
X42766961Y-29418989D01*
D26*
X51810834Y-46434994D02*
X51810834Y-61740020D01*
X57050234Y-66979420D02*
X71112456Y-66979420D01*
X71112456Y-66979420D02*
X72360689Y-68227653D01*
X51810834Y-61740020D02*
X57050234Y-66979420D01*
X72360689Y-68227653D02*
X74194689Y-68227653D01*
X52476000Y-45745000D02*
X52476000Y-61758593D01*
X71301838Y-66522209D02*
X72373419Y-67593790D01*
X52476000Y-61758593D02*
X57239616Y-66522209D01*
X72373419Y-67593790D02*
X74992968Y-67593790D01*
X57239616Y-66522209D02*
X71301838Y-66522209D01*
X263381787Y-73308796D02*
X263381802Y-73308781D01*
X263381787Y-75590000D02*
X263381787Y-73308796D01*
X72440422Y-66217422D02*
X71018000Y-64795000D01*
X80219761Y-67270265D02*
X79166918Y-66217422D01*
X79166918Y-66217422D02*
X72440422Y-66217422D01*
X264185000Y-73304000D02*
X264185000Y-75469837D01*
X264185000Y-75469837D02*
X264238604Y-75523441D01*
X81261447Y-67420699D02*
X79600959Y-65760211D01*
X79600959Y-65760211D02*
X72886919Y-65760211D01*
X72886919Y-65760211D02*
X71914351Y-64787643D01*
X66827001Y-67482632D02*
X66953999Y-67609630D01*
X47650638Y-67482632D02*
X66827001Y-67482632D01*
X47578003Y-67409997D02*
X47650638Y-67482632D01*
X67462000Y-69621000D02*
X69017178Y-68065822D01*
X69017178Y-68065822D02*
X69779177Y-68065822D01*
X304743750Y-68250000D02*
X306493750Y-70000000D01*
X304743750Y-65500000D02*
X304743750Y-68250000D01*
X306493750Y-60946000D02*
X303484750Y-57937000D01*
X306493750Y-62000000D02*
X306493750Y-60946000D01*
X303484750Y-57937000D02*
X302412000Y-57937000D01*
X269656128Y-57947128D02*
X267529881Y-60073375D01*
X267529881Y-60073375D02*
X267487000Y-60073375D01*
X42018722Y-40621718D02*
X42018722Y-39193863D01*
X42819660Y-39272340D02*
X42824000Y-39268000D01*
X42819660Y-40528412D02*
X42819660Y-39272340D01*
X89687002Y-51224596D02*
X89687002Y-54126998D01*
X89687002Y-54126998D02*
X84226000Y-59588000D01*
X84226000Y-59588000D02*
X76987000Y-59588000D01*
X89052000Y-52476000D02*
X89052000Y-54055291D01*
X84154291Y-58953000D02*
X76479000Y-58953000D01*
X89052000Y-54055291D02*
X84154291Y-58953000D01*
X88421790Y-54038908D02*
X88421790Y-53496796D01*
X75717000Y-58571998D02*
X76016999Y-58271999D01*
X84188699Y-58271999D02*
X88421790Y-54038908D01*
X76016999Y-58271999D02*
X84188699Y-58271999D01*
M02*
