M48
; DRILL file {KiCad (5.1.6-0-10_14)} date Monday, July 20, 2020 at 09:45:52 AM
; FORMAT={-:-/ absolute / metric / decimal}
; #@! TF.CreationDate,2020-07-20T09:45:52+09:00
; #@! TF.GenerationSoftware,Kicad,Pcbnew,(5.1.6-0-10_14)
FMAT,2
METRIC
T1C0.400
T2C0.500
T3C0.700
T4C0.813
T5C1.000
T6C1.470
T7C1.500
T8C2.499
T9C2.499
T10C1.750
T11C2.200
T12C3.000
T13C3.048
T14C3.988
%
G90
G05
T1
X29.452Y-48.285
X29.452Y-67.335
X31.85Y-105.25
X34.215Y-86.385
X38.86Y-91.465
X38.887Y-34.442
X41.9Y-40.7
X41.9Y-39.3
X42.9Y-30.5
X42.9Y-39.2
X43.6Y-41.9
X47.578Y-67.25
X51.811Y-46.435
X53.25Y-100.25
X53.265Y-48.285
X54.0Y-46.2
X54.754Y-37.74
X55.85Y-38.85
X56.274Y-52.495
X57.91Y-91.465
X57.937Y-34.315
X58.027Y-105.435
X60.986Y-81.052
X61.18Y-35.38
X61.318Y-37.48
X61.596Y-40.404
X61.621Y-78.638
X61.874Y-36.219
X62.026Y-38.174
X62.763Y-29.235
X62.763Y-86.385
X64.606Y-75.023
X65.557Y-74.32
X65.788Y-67.456
X67.327Y-72.166
X67.662Y-65.21
X67.889Y-44.113
X68.05Y-69.494
X69.255Y-49.357
X69.346Y-57.537
X69.367Y-64.16
X69.398Y-58.339
X70.65Y-67.85
X71.16Y-52.859
X71.184Y-64.894
X71.445Y-55.916
X71.987Y-64.894
X72.248Y-55.902
X72.315Y-48.285
X73.072Y-55.883
X73.25Y-64.65
X73.939Y-53.365
X74.195Y-68.228
X74.95Y-59.25
X74.993Y-67.594
X75.65Y-55.926
X75.75Y-59.95
X76.539Y-55.967
X76.65Y-60.85
X77.342Y-55.983
X77.85Y-64.55
X78.25Y-55.95
X80.6Y-67.0
X81.813Y-29.362
X81.84Y-86.385
X81.84Y-105.435
X81.846Y-67.354
X84.65Y-49.25
X85.225Y-56.251
X85.812Y-55.702
X86.387Y-55.141
X86.512Y-72.415
X87.65Y-68.65
X87.8Y-63.2
X88.496Y-68.604
X89.45Y-68.65
X91.365Y-48.385
X91.365Y-67.335
X98.05Y-104.45
X99.25Y-105.65
X100.863Y-29.235
X100.89Y-86.385
X110.415Y-48.285
X110.415Y-55.477
X110.415Y-67.335
X117.559Y-105.435
X119.913Y-29.362
X119.94Y-86.385
X129.465Y-48.285
X129.465Y-55.805
X129.465Y-67.335
X134.11Y-110.515
X138.963Y-29.362
X138.99Y-86.385
X141.372Y-105.435
X148.515Y-48.285
X148.515Y-56.005
X158.013Y-29.362
X158.04Y-86.385
X158.041Y-105.435
X162.685Y-72.415
X167.565Y-48.285
X167.565Y-56.848
X167.565Y-67.335
X177.09Y-29.235
X177.09Y-86.385
X177.091Y-105.435
X186.615Y-48.285
X186.615Y-57.105
X186.615Y-67.335
X196.05Y-86.45
X196.113Y-29.235
X196.141Y-105.435
X205.665Y-48.285
X205.665Y-57.363
X205.665Y-67.335
X215.19Y-86.385
X215.29Y-29.235
X224.715Y-48.285
X224.715Y-57.42
X224.715Y-67.335
X226.944Y-105.314
X234.241Y-86.385
X234.34Y-29.235
X243.744Y-57.944
X243.765Y-67.335
X243.85Y-48.25
X247.45Y-53.35
X249.771Y-55.905
X250.85Y-105.45
X253.25Y-86.45
X253.39Y-29.362
X261.424Y-73.004
X261.563Y-94.65
X261.563Y-96.25
X262.326Y-73.004
X262.367Y-94.65
X262.367Y-96.25
X262.6Y-56.377
X262.7Y-53.3
X262.816Y-67.05
X262.85Y-48.25
X263.132Y-75.18
X263.17Y-94.65
X263.17Y-96.25
X265.087Y-77.581
X265.552Y-76.923
X265.688Y-75.18
X267.461Y-110.515
X270.25Y-57.497
X272.341Y-86.385
X272.341Y-105.435
X272.44Y-29.235
X284.25Y-67.25
X287.2Y-100.6
X287.725Y-99.85
X288.891Y-72.415
X290.2Y-99.97
X291.39Y-29.25
X291.391Y-48.285
X294.075Y-114.6
X296.035Y-34.315
X297.174Y-64.795
X300.799Y-53.365
X300.945Y-59.328
X303.422Y-60.678
X303.711Y-59.88
X305.05Y-60.465
X305.561Y-91.465
X306.1Y-93.219
X306.1Y-94.2
X306.476Y-73.558
X306.494Y-65.5
T2
X24.358Y-76.45
X24.358Y-81.65
X26.4Y-76.45
X26.4Y-81.65
X28.238Y-77.212
X28.238Y-80.888
X29.0Y-79.05
X45.9Y-50.45
X46.45Y-49.1
X46.45Y-51.75
X47.8Y-48.55
X47.8Y-52.35
X49.05Y-49.1
X49.05Y-51.8
X49.7Y-50.45
X149.6Y-67.7
X149.6Y-71.45
X150.8Y-67.7
X150.8Y-71.45
X152.0Y-67.7
X152.0Y-71.45
X211.9Y-109.6
X211.95Y-105.9
X213.1Y-109.6
X213.15Y-105.9
X214.3Y-109.6
X214.35Y-105.9
X281.45Y-48.6
X281.45Y-52.3
X282.65Y-48.6
X282.65Y-52.3
X283.85Y-48.583
X283.85Y-52.3
X301.2Y-79.05
X301.962Y-77.212
X301.962Y-80.888
X303.8Y-76.45
X303.8Y-81.65
X305.842Y-76.45
X305.842Y-81.65
T4
X291.6Y-100.2
X291.6Y-102.74
X291.6Y-105.28
X291.6Y-107.82
T5
X306.0Y-49.0
X272.37Y-98.8
X274.91Y-98.8
X277.45Y-98.8
X70.42Y-42.0
X72.96Y-42.0
X75.5Y-42.0
X297.286Y-100.619
X297.286Y-115.119
X299.786Y-115.119
X302.286Y-100.619
X302.286Y-115.119
T6
X164.967Y-113.055
X171.317Y-110.515
X88.767Y-113.055
X95.117Y-110.515
X250.692Y-113.055
X257.042Y-110.515
X258.946Y-67.335
X265.296Y-64.795
X198.304Y-113.055
X204.654Y-110.515
X29.235Y-113.055
X35.585Y-110.515
X292.285Y-86.385
X298.635Y-83.845
X74.479Y-113.055
X80.829Y-110.515
X153.061Y-113.055
X159.411Y-110.515
X219.736Y-113.055
X226.086Y-110.515
X31.616Y-113.055
X37.966Y-110.515
X217.355Y-113.055
X223.705Y-110.515
X47.015Y-105.435
X53.365Y-102.895
X263.71Y-86.385
X270.06Y-83.845
X272.124Y-94.005
X278.474Y-91.465
X236.405Y-113.055
X242.755Y-110.515
X301.016Y-104.165
X303.556Y-110.515
X293.555Y-74.955
X299.905Y-72.415
X64.954Y-113.055
X71.304Y-110.515
X222.117Y-113.055
X228.467Y-110.515
X243.548Y-113.055
X249.898Y-110.515
X245.93Y-94.005
X252.28Y-91.465
X195.923Y-113.055
X202.273Y-110.515
X160.204Y-113.055
X166.554Y-110.515
X193.542Y-113.055
X199.892Y-110.515
X91.148Y-113.055
X97.498Y-110.515
X238.786Y-113.055
X245.136Y-110.515
X289.904Y-86.385
X296.254Y-83.845
X49.396Y-105.435
X55.746Y-102.895
X72.098Y-113.055
X78.448Y-110.515
X291.174Y-74.955
X297.524Y-72.415
X272.124Y-55.905
X278.474Y-53.365
X212.592Y-113.055
X218.942Y-110.515
X275.616Y-48.285
X281.966Y-45.745
X33.997Y-113.055
X40.347Y-110.515
T9
X47.8Y-50.45
T10
X150.52Y-69.875
X160.68Y-69.875
X31.457Y-69.875
X41.617Y-69.875
X255.295Y-31.775
X265.455Y-31.775
X188.62Y-69.875
X198.78Y-69.875
X74.32Y-50.825
X84.48Y-50.825
X162.427Y-107.975
X172.587Y-107.975
X283.87Y-31.775
X294.03Y-31.775
X229.102Y-107.975
X239.262Y-107.975
X86.227Y-107.975
X96.387Y-107.975
X248.152Y-107.975
X258.312Y-107.975
X257.676Y-69.875
X267.836Y-69.875
X264.821Y-50.825
X274.981Y-50.825
X255.296Y-107.975
X265.456Y-107.975
X217.195Y-88.925
X227.355Y-88.925
X217.195Y-31.775
X227.355Y-31.775
X160.045Y-88.925
X170.205Y-88.925
X55.27Y-50.825
X65.43Y-50.825
X195.764Y-107.975
X205.924Y-107.975
X26.695Y-107.975
X36.855Y-107.975
X198.145Y-31.775
X208.305Y-31.775
X291.015Y-88.925
X301.175Y-88.925
X198.145Y-88.925
X208.305Y-88.925
X74.32Y-69.875
X84.48Y-69.875
X140.995Y-88.925
X151.155Y-88.925
X71.939Y-107.975
X82.099Y-107.975
X150.521Y-107.975
X160.681Y-107.975
X288.634Y-50.825
X298.794Y-50.825
X143.377Y-107.975
X153.537Y-107.975
X102.895Y-31.775
X113.055Y-31.775
X121.945Y-31.775
X132.105Y-31.775
X217.196Y-107.975
X227.356Y-107.975
X45.745Y-31.775
X55.905Y-31.775
X121.945Y-107.975
X132.105Y-107.975
X64.795Y-88.925
X74.955Y-88.925
X121.945Y-88.925
X132.105Y-88.925
X29.076Y-107.975
X39.236Y-107.975
X214.815Y-107.975
X224.975Y-107.975
X207.67Y-50.825
X217.83Y-50.825
X264.821Y-69.875
X274.981Y-69.875
X45.745Y-107.975
X55.905Y-107.975
X236.245Y-31.775
X246.405Y-31.775
X179.095Y-31.775
X189.255Y-31.775
X60.032Y-107.975
X70.192Y-107.975
X293.396Y-50.825
X303.556Y-50.825
X262.44Y-88.925
X272.6Y-88.925
X250.533Y-50.825
X260.693Y-50.825
X226.72Y-69.875
X236.88Y-69.875
X169.57Y-50.825
X179.73Y-50.825
X269.584Y-88.925
X279.744Y-88.925
X93.37Y-50.825
X103.53Y-50.825
X226.72Y-50.825
X236.88Y-50.825
X160.045Y-31.775
X170.205Y-31.775
X274.346Y-88.925
X284.506Y-88.925
X233.865Y-107.975
X244.025Y-107.975
X119.564Y-107.975
X129.724Y-107.975
X55.27Y-69.875
X65.43Y-69.875
X198.146Y-107.975
X208.306Y-107.975
X293.395Y-31.775
X303.555Y-31.775
X83.845Y-88.925
X94.005Y-88.925
X140.995Y-31.775
X151.155Y-31.775
X298.476Y-102.895
X298.476Y-113.055
X291.015Y-69.875
X301.175Y-69.875
X112.42Y-50.825
X122.58Y-50.825
X131.47Y-50.825
X141.63Y-50.825
X274.346Y-107.975
X284.506Y-107.975
X93.37Y-69.875
X103.53Y-69.875
X62.414Y-107.975
X72.574Y-107.975
X245.77Y-69.875
X255.93Y-69.875
X219.577Y-107.975
X229.737Y-107.975
X241.008Y-107.975
X251.168Y-107.975
X243.39Y-88.925
X253.55Y-88.925
X33.839Y-107.975
X43.999Y-107.975
X193.383Y-107.975
X203.543Y-107.975
X236.246Y-88.925
X246.406Y-88.925
X31.457Y-50.825
X41.617Y-50.825
X83.845Y-107.975
X94.005Y-107.975
X245.771Y-50.825
X255.931Y-50.825
X157.664Y-107.975
X167.824Y-107.975
X191.002Y-107.975
X201.162Y-107.975
X188.62Y-50.825
X198.78Y-50.825
X64.795Y-31.775
X74.955Y-31.775
X45.745Y-88.925
X55.905Y-88.925
X88.608Y-107.975
X98.768Y-107.975
X26.695Y-88.925
X36.855Y-88.925
X169.57Y-69.875
X179.73Y-69.875
X36.22Y-88.925
X46.38Y-88.925
X179.096Y-107.975
X189.256Y-107.975
X112.42Y-69.875
X122.58Y-69.875
X236.246Y-107.975
X246.406Y-107.975
X207.67Y-69.875
X217.83Y-69.875
X274.345Y-31.775
X284.505Y-31.775
X26.695Y-31.775
X36.855Y-31.775
X83.845Y-31.775
X94.005Y-31.775
X150.52Y-50.825
X160.68Y-50.825
X255.296Y-88.925
X265.456Y-88.925
X288.634Y-88.925
X298.794Y-88.925
X293.396Y-88.925
X303.556Y-88.925
X48.126Y-107.975
X58.286Y-107.975
X160.046Y-107.975
X170.206Y-107.975
X131.47Y-69.875
X141.63Y-69.875
X276.726Y-69.875
X286.886Y-69.875
X179.095Y-88.925
X189.255Y-88.925
X69.558Y-107.975
X79.718Y-107.975
X102.895Y-88.925
X113.055Y-88.925
X288.634Y-69.875
X298.794Y-69.875
X269.584Y-50.825
X279.744Y-50.825
X210.052Y-107.975
X220.212Y-107.975
X252.915Y-107.975
X263.075Y-107.975
X286.252Y-69.875
X296.412Y-69.875
X274.346Y-50.825
X284.506Y-50.825
X31.457Y-107.975
X41.617Y-107.975
T11
X303.55Y-107.975
X26.7Y-107.975
X284.5Y-107.975
X255.3Y-107.975
X274.35Y-107.975
X263.075Y-107.975
X244.025Y-107.975
X45.75Y-107.975
T12
X85.115Y-105.435
X91.465Y-102.895
X247.041Y-48.285
X253.391Y-45.745
X189.89Y-48.285
X196.24Y-45.745
X66.065Y-29.235
X72.415Y-26.695
X48.285Y-94.005
X54.635Y-91.465
X29.235Y-94.005
X35.585Y-91.465
X170.84Y-67.335
X177.19Y-64.795
X37.49Y-86.385
X43.84Y-83.845
X180.366Y-105.435
X186.716Y-102.895
X113.69Y-67.335
X120.04Y-64.795
X208.94Y-67.335
X215.29Y-64.795
X275.615Y-29.235
X281.965Y-26.695
X29.235Y-36.855
X35.585Y-34.315
X85.115Y-29.235
X91.465Y-26.695
X151.79Y-48.285
X158.14Y-45.745
X256.566Y-86.385
X262.916Y-83.845
X295.936Y-94.005
X302.286Y-91.465
X161.316Y-105.435
X167.666Y-102.895
X132.74Y-67.335
X139.09Y-64.795
X279.266Y-74.955
X285.616Y-72.415
X180.365Y-86.385
X186.715Y-83.845
X104.165Y-86.385
X110.515Y-83.845
X254.185Y-105.435
X260.535Y-102.895
X287.522Y-67.335
X293.872Y-64.795
X153.06Y-74.955
X159.41Y-72.415
X32.727Y-67.335
X39.078Y-64.795
X256.565Y-29.235
X262.915Y-26.695
X189.89Y-67.335
X196.24Y-64.795
X75.59Y-48.285
X81.94Y-45.745
X286.41Y-36.855
X292.76Y-34.315
X230.372Y-105.435
X236.722Y-102.895
X266.091Y-48.285
X272.441Y-45.745
X257.836Y-113.055
X264.186Y-110.515
X218.465Y-86.385
X224.815Y-83.845
X218.465Y-29.235
X224.815Y-26.695
X161.315Y-86.385
X167.665Y-83.845
X56.54Y-48.285
X62.89Y-45.745
X199.415Y-29.235
X205.765Y-26.695
X199.415Y-86.385
X205.765Y-83.845
X76.86Y-74.955
X83.21Y-72.415
X142.265Y-86.385
X148.615Y-83.845
X291.174Y-55.905
X297.524Y-53.365
X144.647Y-105.435
X150.997Y-102.895
X104.165Y-29.235
X110.515Y-26.695
X123.215Y-29.235
X129.565Y-26.695
X48.285Y-36.855
X54.635Y-34.315
X124.485Y-113.055
X130.835Y-110.515
X66.065Y-86.385
X72.415Y-83.845
X123.215Y-86.385
X129.565Y-83.845
X208.94Y-48.285
X215.29Y-45.745
X266.091Y-67.335
X272.441Y-64.795
X237.515Y-29.235
X243.865Y-26.695
X180.365Y-29.235
X186.715Y-26.695
X61.302Y-105.435
X67.653Y-102.895
X294.666Y-48.285
X301.016Y-45.745
X253.073Y-55.905
X259.423Y-53.365
X227.99Y-67.335
X234.34Y-64.795
X170.84Y-48.285
X177.19Y-45.745
X94.64Y-48.285
X100.99Y-45.745
X227.99Y-48.285
X234.34Y-45.745
X161.315Y-29.235
X167.665Y-26.695
X275.616Y-86.385
X281.966Y-83.845
X120.834Y-105.435
X127.184Y-102.895
X57.81Y-74.955
X64.16Y-72.415
X199.416Y-105.435
X205.766Y-102.895
X294.665Y-29.235
X301.015Y-26.695
X85.115Y-86.385
X91.465Y-83.845
X142.265Y-29.235
X148.615Y-26.695
X113.69Y-48.285
X120.04Y-45.745
X132.74Y-48.285
X139.09Y-45.745
X275.616Y-105.435
X281.966Y-102.895
X94.64Y-67.335
X100.99Y-64.795
X247.04Y-67.335
X253.39Y-64.795
X35.109Y-105.435
X41.459Y-102.895
X237.516Y-86.385
X243.866Y-83.845
X32.727Y-48.285
X39.078Y-45.745
T13
X112.744Y-114.96
X277.012Y-24.79
X300.888Y-24.79
X191.288Y-114.96
X215.164Y-114.96
X269.868Y-76.86
X293.744Y-76.86
X250.85Y-76.86
X274.662Y-76.86
X136.582Y-114.96
X212.744Y-114.96
X29.362Y-81.94
X53.238Y-81.94
X172.238Y-114.96
X196.114Y-114.96
X153.188Y-114.96
X177.064Y-114.96
X155.601Y-114.96
X179.413Y-114.96
X98.457Y-114.96
X198.457Y-114.96
X115.087Y-114.96
X138.963Y-114.96
X112.706Y-114.96
T14
X136.55Y-69.875
X269.868Y-61.62
X281.806Y-69.875
X293.744Y-61.62
X184.175Y-88.925
X74.638Y-107.975
X107.975Y-88.925
X293.714Y-69.875
X274.664Y-50.825
X215.132Y-107.975
X257.995Y-107.975
X291.332Y-69.875
X279.426Y-50.825
X36.538Y-107.975
X155.6Y-69.875
X36.538Y-69.875
X260.375Y-31.775
X193.7Y-69.875
X79.4Y-50.825
X155.601Y-99.72
X167.507Y-107.975
X179.413Y-99.72
X277.012Y-40.03
X288.95Y-31.775
X300.888Y-40.03
X234.182Y-107.975
X91.307Y-107.975
X253.232Y-107.975
X250.85Y-61.62
X262.756Y-69.875
X274.662Y-61.62
X269.901Y-50.825
X260.376Y-107.975
X222.275Y-88.925
X222.275Y-31.775
X165.125Y-88.925
X60.35Y-50.825
X200.844Y-107.975
X31.775Y-107.975
X203.225Y-31.775
X296.095Y-88.925
X203.225Y-88.925
X79.4Y-69.875
X146.075Y-88.925
X77.019Y-107.975
X155.601Y-107.975
X293.714Y-50.825
X98.457Y-99.72
X148.457Y-107.975
X198.457Y-99.72
X107.975Y-31.775
X127.025Y-31.775
X222.276Y-107.975
X50.825Y-31.775
X115.087Y-99.72
X127.025Y-107.975
X138.963Y-99.72
X69.875Y-88.925
X127.025Y-88.925
X34.156Y-107.975
X219.895Y-107.975
X212.75Y-50.825
X269.901Y-69.875
X50.825Y-107.975
X241.325Y-31.775
X184.175Y-31.775
X65.112Y-107.975
X298.476Y-50.825
X267.52Y-88.925
X255.613Y-50.825
X231.8Y-69.875
X174.65Y-50.825
X274.664Y-88.925
X98.45Y-50.825
X231.8Y-50.825
X165.125Y-31.775
X279.426Y-88.925
X238.945Y-107.975
X112.706Y-99.72
X124.644Y-107.975
X136.582Y-99.72
X60.35Y-69.875
X191.288Y-99.72
X203.226Y-107.975
X215.164Y-99.72
X298.475Y-31.775
X88.925Y-88.925
X146.075Y-31.775
X298.476Y-107.975
X296.095Y-69.875
X117.5Y-50.825
X136.55Y-50.825
X279.426Y-107.975
X98.45Y-69.875
X67.494Y-107.975
X250.85Y-69.875
X224.657Y-107.975
X246.088Y-107.975
X248.47Y-88.925
X38.919Y-107.975
X198.463Y-107.975
X241.326Y-88.925
X36.538Y-50.825
X88.925Y-107.975
X250.851Y-50.825
X112.744Y-99.72
X162.744Y-107.975
X212.744Y-99.72
X196.082Y-107.975
X193.7Y-50.825
X69.875Y-31.775
X50.825Y-88.925
X93.688Y-107.975
X31.775Y-88.925
X174.65Y-69.875
X29.362Y-97.18
X41.3Y-88.925
X53.238Y-97.18
X172.238Y-99.72
X184.176Y-107.975
X196.114Y-99.72
X117.5Y-69.875
X241.326Y-107.975
X212.75Y-69.875
X279.425Y-31.775
X31.775Y-31.775
X88.925Y-31.775
X155.6Y-50.825
X260.376Y-88.925
X293.714Y-88.925
X298.476Y-88.925
X53.206Y-107.975
X153.188Y-99.72
X165.126Y-107.975
X177.064Y-99.72
T3
G00X37.15Y-23.25
M15
G01X37.15Y-24.45
M16
G05
G00X39.2Y-28.9
M15
G01X39.2Y-28.9
M16
G05
G00X40.0Y-27.7
M15
G01X40.0Y-27.7
M16
G05
G00X40.8Y-28.9
M15
G01X40.8Y-28.9
M16
G05
G00X41.6Y-27.7
M15
G01X41.6Y-27.7
M16
G05
G00X42.4Y-28.9
M15
G01X42.4Y-28.9
M16
G05
G00X44.45Y-23.25
M15
G01X44.45Y-24.45
M16
G05
T7
G00X294.186Y-108.269
M15
G01X294.186Y-106.969
M16
G05
G00X305.386Y-108.269
M15
G01X305.386Y-106.969
M16
G05
T8
G00X149.549Y-69.55
M15
G01X152.051Y-69.55
M16
G05
G00X211.849Y-107.75
M15
G01X214.351Y-107.75
M16
G05
G00X281.399Y-50.45
M15
G01X283.901Y-50.45
M16
G05
T0
M30
