G04 #@! TF.GenerationSoftware,KiCad,Pcbnew,(5.1.10-1-10_14)*
G04 #@! TF.CreationDate,2022-01-20T18:11:36+09:00*
G04 #@! TF.ProjectId,Jones,4a6f6e65-732e-46b6-9963-61645f706362,v.1.01 (042)*
G04 #@! TF.SameCoordinates,Original*
G04 #@! TF.FileFunction,Legend,Top*
G04 #@! TF.FilePolarity,Positive*
%FSLAX46Y46*%
G04 Gerber Fmt 4.6, Leading zero omitted, Abs format (unit mm)*
G04 Created by KiCad (PCBNEW (5.1.10-1-10_14)) date 2022-01-20 18:11:36*
%MOMM*%
%LPD*%
G01*
G04 APERTURE LIST*
%ADD10C,0.150000*%
%ADD11C,0.120000*%
%ADD12C,0.010000*%
%ADD13C,3.400000*%
%ADD14C,4.387800*%
%ADD15C,2.150000*%
%ADD16O,5.600000X2.800000*%
%ADD17C,1.400000*%
%ADD18C,5.200000*%
%ADD19C,3.448000*%
%ADD20O,2.100000X2.100000*%
%ADD21C,1.900000*%
%ADD22C,2.600000*%
%ADD23O,2.000000X2.300000*%
%ADD24C,2.500000*%
%ADD25C,2.400000*%
%ADD26C,1.100000*%
%ADD27O,1.300000X2.800000*%
%ADD28O,1.300000X2.100000*%
G04 APERTURE END LIST*
D10*
X291671428Y-80908139D02*
X291719047Y-80860520D01*
X291814285Y-80812900D01*
X292052380Y-80812900D01*
X292147619Y-80860520D01*
X292195238Y-80908139D01*
X292242857Y-81003377D01*
X292242857Y-81098615D01*
X292195238Y-81241472D01*
X291623809Y-81812900D01*
X292242857Y-81812900D01*
X292671428Y-81717662D02*
X292719047Y-81765281D01*
X292671428Y-81812900D01*
X292623809Y-81765281D01*
X292671428Y-81717662D01*
X292671428Y-81812900D01*
X293052380Y-80812900D02*
X293719047Y-80812900D01*
X293290476Y-81812900D01*
X294576190Y-80812900D02*
X294100000Y-80812900D01*
X294052380Y-81289091D01*
X294100000Y-81241472D01*
X294195238Y-81193853D01*
X294433333Y-81193853D01*
X294528571Y-81241472D01*
X294576190Y-81289091D01*
X294623809Y-81384329D01*
X294623809Y-81622424D01*
X294576190Y-81717662D01*
X294528571Y-81765281D01*
X294433333Y-81812900D01*
X294195238Y-81812900D01*
X294100000Y-81765281D01*
X294052380Y-81717662D01*
X295480952Y-81146234D02*
X295480952Y-81812900D01*
X295052380Y-81146234D02*
X295052380Y-81670043D01*
X295100000Y-81765281D01*
X295195238Y-81812900D01*
X295338095Y-81812900D01*
X295433333Y-81765281D01*
X295480952Y-81717662D01*
X267871428Y-80908139D02*
X267919047Y-80860520D01*
X268014285Y-80812900D01*
X268252380Y-80812900D01*
X268347619Y-80860520D01*
X268395238Y-80908139D01*
X268442857Y-81003377D01*
X268442857Y-81098615D01*
X268395238Y-81241472D01*
X267823809Y-81812900D01*
X268442857Y-81812900D01*
X268871428Y-81717662D02*
X268919047Y-81765281D01*
X268871428Y-81812900D01*
X268823809Y-81765281D01*
X268871428Y-81717662D01*
X268871428Y-81812900D01*
X269252380Y-80812900D02*
X269919047Y-80812900D01*
X269490476Y-81812900D01*
X270776190Y-80812900D02*
X270300000Y-80812900D01*
X270252380Y-81289091D01*
X270300000Y-81241472D01*
X270395238Y-81193853D01*
X270633333Y-81193853D01*
X270728571Y-81241472D01*
X270776190Y-81289091D01*
X270823809Y-81384329D01*
X270823809Y-81622424D01*
X270776190Y-81717662D01*
X270728571Y-81765281D01*
X270633333Y-81812900D01*
X270395238Y-81812900D01*
X270300000Y-81765281D01*
X270252380Y-81717662D01*
X271680952Y-81146234D02*
X271680952Y-81812900D01*
X271252380Y-81146234D02*
X271252380Y-81670043D01*
X271300000Y-81765281D01*
X271395238Y-81812900D01*
X271538095Y-81812900D01*
X271633333Y-81765281D01*
X271680952Y-81717662D01*
X133711904Y-96308139D02*
X133759523Y-96260520D01*
X133854761Y-96212900D01*
X134092857Y-96212900D01*
X134188095Y-96260520D01*
X134235714Y-96308139D01*
X134283333Y-96403377D01*
X134283333Y-96498615D01*
X134235714Y-96641472D01*
X133664285Y-97212900D01*
X134283333Y-97212900D01*
X134711904Y-97117662D02*
X134759523Y-97165281D01*
X134711904Y-97212900D01*
X134664285Y-97165281D01*
X134711904Y-97117662D01*
X134711904Y-97212900D01*
X135140476Y-96308139D02*
X135188095Y-96260520D01*
X135283333Y-96212900D01*
X135521428Y-96212900D01*
X135616666Y-96260520D01*
X135664285Y-96308139D01*
X135711904Y-96403377D01*
X135711904Y-96498615D01*
X135664285Y-96641472D01*
X135092857Y-97212900D01*
X135711904Y-97212900D01*
X136616666Y-96212900D02*
X136140476Y-96212900D01*
X136092857Y-96689091D01*
X136140476Y-96641472D01*
X136235714Y-96593853D01*
X136473809Y-96593853D01*
X136569047Y-96641472D01*
X136616666Y-96689091D01*
X136664285Y-96784329D01*
X136664285Y-97022424D01*
X136616666Y-97117662D01*
X136569047Y-97165281D01*
X136473809Y-97212900D01*
X136235714Y-97212900D01*
X136140476Y-97165281D01*
X136092857Y-97117662D01*
X137521428Y-96546234D02*
X137521428Y-97212900D01*
X137092857Y-96546234D02*
X137092857Y-97070043D01*
X137140476Y-97165281D01*
X137235714Y-97212900D01*
X137378571Y-97212900D01*
X137473809Y-97165281D01*
X137521428Y-97117662D01*
X138711904Y-96308139D02*
X138759523Y-96260520D01*
X138854761Y-96212900D01*
X139092857Y-96212900D01*
X139188095Y-96260520D01*
X139235714Y-96308139D01*
X139283333Y-96403377D01*
X139283333Y-96498615D01*
X139235714Y-96641472D01*
X138664285Y-97212900D01*
X139283333Y-97212900D01*
X140140476Y-96546234D02*
X140140476Y-97212900D01*
X139711904Y-96546234D02*
X139711904Y-97070043D01*
X139759523Y-97165281D01*
X139854761Y-97212900D01*
X139997619Y-97212900D01*
X140092857Y-97165281D01*
X140140476Y-97117662D01*
D11*
X52640040Y-90940400D02*
X52640040Y-88290400D01*
X52640040Y-88290400D02*
X61860040Y-88290400D01*
X61860040Y-88290400D02*
X61860040Y-90940400D01*
X61860040Y-94860400D02*
X61860040Y-97510400D01*
X61860040Y-97510400D02*
X52640040Y-97510400D01*
X52640040Y-97510400D02*
X52640040Y-94860400D01*
X52640040Y-90940400D02*
X52310040Y-90940400D01*
X22500000Y-60500040D02*
X22500000Y-61575040D01*
X28600000Y-60500040D02*
X22500000Y-60500040D01*
X28600000Y-64400040D02*
X22700000Y-64400040D01*
G36*
X22500000Y-60500040D02*
G01*
X23500000Y-60500040D01*
X22500000Y-61575040D01*
X22500000Y-60500040D01*
G37*
X22500000Y-60500040D02*
X23500000Y-60500040D01*
X22500000Y-61575040D01*
X22500000Y-60500040D01*
G36*
X22500000Y-64700040D02*
G01*
X23500000Y-64700040D01*
X22500000Y-65775040D01*
X22500000Y-64700040D01*
G37*
X22500000Y-64700040D02*
X23500000Y-64700040D01*
X22500000Y-65775040D01*
X22500000Y-64700040D01*
X28600000Y-68600040D02*
X22700000Y-68600040D01*
X28600000Y-64700040D02*
X22500000Y-64700040D01*
X22500000Y-64700040D02*
X22500000Y-65775040D01*
X301300000Y-60500040D02*
X301300000Y-61575040D01*
X307400000Y-60500040D02*
X301300000Y-60500040D01*
X307400000Y-64400040D02*
X301500000Y-64400040D01*
G36*
X301300000Y-60500040D02*
G01*
X302300000Y-60500040D01*
X301300000Y-61575040D01*
X301300000Y-60500040D01*
G37*
X301300000Y-60500040D02*
X302300000Y-60500040D01*
X301300000Y-61575040D01*
X301300000Y-60500040D01*
G36*
X301300000Y-64700040D02*
G01*
X302300000Y-64700040D01*
X301300000Y-65775040D01*
X301300000Y-64700040D01*
G37*
X301300000Y-64700040D02*
X302300000Y-64700040D01*
X301300000Y-65775040D01*
X301300000Y-64700040D01*
X307400000Y-68600040D02*
X301500000Y-68600040D01*
X307400000Y-64700040D02*
X301300000Y-64700040D01*
X301300000Y-64700040D02*
X301300000Y-65775040D01*
X298493580Y-107465550D02*
X298493580Y-108465550D01*
X298993580Y-107965550D02*
X297993580Y-107965550D01*
X294993580Y-114065550D02*
X292593580Y-114065550D01*
X299793580Y-114065550D02*
X297193580Y-114065550D01*
X304393580Y-114065550D02*
X301993580Y-114065550D01*
X302593580Y-100765550D02*
X302293580Y-100465550D01*
X302593580Y-100165550D02*
X302593580Y-100765550D01*
X302293580Y-100465550D02*
X302593580Y-100165550D01*
X304393580Y-101865550D02*
X292593580Y-101865550D01*
X304393580Y-105965550D02*
X304393580Y-101865550D01*
X292593580Y-105965550D02*
X292593580Y-101865550D01*
X292593580Y-114065550D02*
X292593580Y-109965550D01*
X304393580Y-109965550D02*
X304393580Y-114065550D01*
X301493580Y-107965550D02*
G75*
G03*
X301493580Y-107965550I-3000000J0D01*
G01*
X34771347Y-107952828D02*
G75*
G03*
X34771347Y-107952828I-3000000J0D01*
G01*
X37671347Y-109952828D02*
X37671347Y-114052828D01*
X25871347Y-114052828D02*
X25871347Y-109952828D01*
X25871347Y-105952828D02*
X25871347Y-101852828D01*
X37671347Y-105952828D02*
X37671347Y-101852828D01*
X37671347Y-101852828D02*
X25871347Y-101852828D01*
X35571347Y-100452828D02*
X35871347Y-100152828D01*
X35871347Y-100152828D02*
X35871347Y-100752828D01*
X35871347Y-100752828D02*
X35571347Y-100452828D01*
X37671347Y-114052828D02*
X35271347Y-114052828D01*
X33071347Y-114052828D02*
X30471347Y-114052828D01*
X28271347Y-114052828D02*
X25871347Y-114052828D01*
X32271347Y-107952828D02*
X31271347Y-107952828D01*
X31771347Y-107452828D02*
X31771347Y-108452828D01*
D12*
G36*
X73353851Y-23660923D02*
G01*
X74723320Y-23661632D01*
X76075494Y-23663000D01*
X77399397Y-23665027D01*
X78684048Y-23667712D01*
X79918471Y-23671057D01*
X81091688Y-23675062D01*
X82192720Y-23679725D01*
X83210589Y-23685047D01*
X84134318Y-23691028D01*
X84952928Y-23697669D01*
X85655441Y-23704968D01*
X86230879Y-23712926D01*
X86668265Y-23721544D01*
X86956620Y-23730821D01*
X87076294Y-23739216D01*
X87807239Y-23925403D01*
X88456960Y-24252685D01*
X89011285Y-24706668D01*
X89456037Y-25272953D01*
X89777041Y-25937142D01*
X89957375Y-26665480D01*
X89975271Y-26874116D01*
X89991922Y-27232291D01*
X90006944Y-27720213D01*
X90019957Y-28318091D01*
X90030577Y-29006132D01*
X90038424Y-29764545D01*
X90043115Y-30573537D01*
X90044322Y-31171354D01*
X90046000Y-35087187D01*
X94004166Y-35088889D01*
X94827711Y-35090868D01*
X95616115Y-35095857D01*
X96349719Y-35103515D01*
X97008862Y-35113498D01*
X97573884Y-35125465D01*
X98025126Y-35139074D01*
X98342927Y-35153981D01*
X98490792Y-35167025D01*
X99218645Y-35353186D01*
X99871570Y-35680686D01*
X100432637Y-36132673D01*
X100884920Y-36692299D01*
X101211492Y-37342714D01*
X101393970Y-38056892D01*
X101403834Y-38209805D01*
X101413267Y-38523786D01*
X101422216Y-38990570D01*
X101430632Y-39601892D01*
X101438463Y-40349486D01*
X101445660Y-41225088D01*
X101452171Y-42220432D01*
X101457946Y-43327254D01*
X101462933Y-44537289D01*
X101467083Y-45842271D01*
X101470345Y-47233935D01*
X101472667Y-48704017D01*
X101474000Y-50244251D01*
X101474297Y-51152687D01*
X101476000Y-63704520D01*
X105649211Y-63704520D01*
X106631804Y-63705247D01*
X107460158Y-63707709D01*
X108149364Y-63712331D01*
X108714512Y-63719537D01*
X109170692Y-63729751D01*
X109532994Y-63743395D01*
X109816509Y-63760895D01*
X110036325Y-63782675D01*
X110207534Y-63809157D01*
X110327044Y-63835923D01*
X111030575Y-64102268D01*
X111640720Y-64502627D01*
X112143364Y-65021382D01*
X112524394Y-65642913D01*
X112769694Y-66351603D01*
X112816659Y-66590785D01*
X112825315Y-66728661D01*
X112833546Y-67027274D01*
X112841351Y-67478058D01*
X112848728Y-68072446D01*
X112855677Y-68801874D01*
X112862196Y-69657775D01*
X112868284Y-70631584D01*
X112873940Y-71714735D01*
X112879162Y-72898663D01*
X112883950Y-74174800D01*
X112888301Y-75534582D01*
X112892215Y-76969444D01*
X112895691Y-78470818D01*
X112898727Y-80030140D01*
X112901321Y-81638843D01*
X112903474Y-83288362D01*
X112905183Y-84970132D01*
X112906447Y-86675585D01*
X112907265Y-88396158D01*
X112907636Y-90123283D01*
X112907559Y-91848395D01*
X112907032Y-93562928D01*
X112906053Y-95258317D01*
X112904623Y-96925996D01*
X112902739Y-98557399D01*
X112900400Y-100143960D01*
X112897606Y-101677113D01*
X112894354Y-103148294D01*
X112890643Y-104548935D01*
X112886473Y-105870471D01*
X112881842Y-107104337D01*
X112876749Y-108241967D01*
X112871192Y-109274794D01*
X112865170Y-110194254D01*
X112858683Y-110991780D01*
X112851728Y-111658806D01*
X112844305Y-112186768D01*
X112836412Y-112567099D01*
X112828048Y-112791233D01*
X112823393Y-112843958D01*
X112629432Y-113550862D01*
X112298345Y-114204673D01*
X111851128Y-114773958D01*
X111308780Y-115227284D01*
X111176059Y-115309930D01*
X111079756Y-115367831D01*
X110992171Y-115420723D01*
X110905620Y-115468829D01*
X110812420Y-115512373D01*
X110704888Y-115551578D01*
X110575340Y-115586668D01*
X110416094Y-115617865D01*
X110219465Y-115645393D01*
X109977771Y-115669475D01*
X109683327Y-115690335D01*
X109328452Y-115708196D01*
X108905461Y-115723281D01*
X108406672Y-115735814D01*
X107824400Y-115746017D01*
X107150962Y-115754115D01*
X106378676Y-115760330D01*
X105499858Y-115764886D01*
X104506825Y-115768007D01*
X103391892Y-115769914D01*
X102147378Y-115770833D01*
X100765598Y-115770986D01*
X99238870Y-115770596D01*
X97559509Y-115769886D01*
X95719833Y-115769081D01*
X95383378Y-115768948D01*
X93513554Y-115768061D01*
X91805756Y-115766865D01*
X90252679Y-115765297D01*
X88847014Y-115763297D01*
X87581455Y-115760802D01*
X86448696Y-115757749D01*
X85441430Y-115754076D01*
X84552350Y-115749722D01*
X83774149Y-115744624D01*
X83099521Y-115738719D01*
X82521159Y-115731947D01*
X82031755Y-115724244D01*
X81624005Y-115715548D01*
X81290600Y-115705797D01*
X81024234Y-115694930D01*
X80817600Y-115682883D01*
X80663392Y-115669595D01*
X80554302Y-115655003D01*
X80494278Y-115642262D01*
X79822477Y-115376845D01*
X79227990Y-114973607D01*
X78728871Y-114453353D01*
X78343174Y-113836887D01*
X78088954Y-113145016D01*
X78018505Y-112789312D01*
X78009451Y-112642683D01*
X78000707Y-112336137D01*
X77992328Y-111879090D01*
X77984371Y-111280957D01*
X77976892Y-110551154D01*
X77969946Y-109699099D01*
X77963591Y-108734205D01*
X77957883Y-107665890D01*
X77952877Y-106503569D01*
X77948630Y-105256659D01*
X77945198Y-103934574D01*
X77942638Y-102546732D01*
X77941006Y-101102547D01*
X77940369Y-99709020D01*
X77938666Y-87157187D01*
X73635749Y-87157187D01*
X72655253Y-87156680D01*
X71829198Y-87154861D01*
X71142692Y-87151283D01*
X70580843Y-87145500D01*
X70128760Y-87137065D01*
X69771553Y-87125532D01*
X69494329Y-87110453D01*
X69282199Y-87091384D01*
X69120270Y-87067876D01*
X68993651Y-87039483D01*
X68915582Y-87015626D01*
X68208374Y-86692734D01*
X67613530Y-86247415D01*
X67140616Y-85690964D01*
X66799200Y-85034673D01*
X66598847Y-84289837D01*
X66597039Y-84278520D01*
X66583602Y-84105903D01*
X66571237Y-83765852D01*
X66559957Y-83260266D01*
X66549774Y-82591040D01*
X66540702Y-81760071D01*
X66532752Y-80769256D01*
X66525938Y-79620493D01*
X66520273Y-78315678D01*
X66515769Y-76856707D01*
X66512438Y-75245478D01*
X66510294Y-73483888D01*
X66509349Y-71573834D01*
X66509306Y-71181215D01*
X66508666Y-58634243D01*
X57745666Y-58582187D01*
X57142656Y-58299475D01*
X56480762Y-57900294D01*
X55935788Y-57384658D01*
X55519146Y-56767601D01*
X55242248Y-56064154D01*
X55160360Y-55688345D01*
X55150190Y-55541333D01*
X55140698Y-55235916D01*
X55131884Y-54783022D01*
X55123749Y-54193580D01*
X55116291Y-53478516D01*
X55109512Y-52648758D01*
X55103412Y-51715235D01*
X55097989Y-50688873D01*
X55093244Y-49580601D01*
X55089178Y-48401346D01*
X55085790Y-47162035D01*
X55083080Y-45873597D01*
X55081049Y-44546958D01*
X55079695Y-43193048D01*
X55079020Y-41822793D01*
X55079021Y-41144232D01*
X59736338Y-41144232D01*
X59736404Y-42645199D01*
X59737014Y-43986234D01*
X59738290Y-45176734D01*
X59740351Y-46226101D01*
X59743318Y-47143734D01*
X59747310Y-47939032D01*
X59752447Y-48621396D01*
X59758851Y-49200224D01*
X59766642Y-49684917D01*
X59775939Y-50084874D01*
X59786862Y-50409494D01*
X59799533Y-50668178D01*
X59814070Y-50870325D01*
X59830596Y-51025335D01*
X59849228Y-51142607D01*
X59865119Y-51213227D01*
X60136509Y-51935651D01*
X60544206Y-52581412D01*
X61067981Y-53131395D01*
X61687604Y-53566487D01*
X62382846Y-53867574D01*
X62779917Y-53967206D01*
X62966907Y-53986311D01*
X63307282Y-54003602D01*
X63785099Y-54018772D01*
X64384416Y-54031511D01*
X65089291Y-54041513D01*
X65883781Y-54048470D01*
X66751944Y-54052072D01*
X67197556Y-54052520D01*
X71165333Y-54052520D01*
X71166338Y-66689020D01*
X71166410Y-68424717D01*
X71166509Y-69999437D01*
X71166898Y-71421535D01*
X71167836Y-72699366D01*
X71169583Y-73841286D01*
X71172400Y-74855651D01*
X71176548Y-75750816D01*
X71182287Y-76535137D01*
X71189878Y-77216970D01*
X71199581Y-77804670D01*
X71211657Y-78306592D01*
X71226366Y-78731092D01*
X71243969Y-79086526D01*
X71264726Y-79381249D01*
X71288897Y-79623617D01*
X71316744Y-79821986D01*
X71348527Y-79984711D01*
X71384507Y-80120147D01*
X71424943Y-80236650D01*
X71470096Y-80342576D01*
X71520227Y-80446281D01*
X71575597Y-80556119D01*
X71600240Y-80605609D01*
X71889579Y-81059450D01*
X72291352Y-81511190D01*
X72755203Y-81912122D01*
X73230772Y-82213538D01*
X73294942Y-82244798D01*
X73682895Y-82395072D01*
X74125700Y-82521906D01*
X74425000Y-82581188D01*
X74634548Y-82599185D01*
X74992817Y-82615959D01*
X75479192Y-82631103D01*
X76073063Y-82644207D01*
X76753816Y-82654862D01*
X77500841Y-82662658D01*
X78293525Y-82667186D01*
X78806500Y-82668176D01*
X82595333Y-82669854D01*
X82595333Y-95267398D01*
X82595275Y-97005529D01*
X82595273Y-98582657D01*
X82595587Y-100007115D01*
X82596474Y-101287234D01*
X82598194Y-102431345D01*
X82601005Y-103447780D01*
X82605167Y-104344869D01*
X82610936Y-105130944D01*
X82618574Y-105814337D01*
X82628337Y-106403378D01*
X82640486Y-106906400D01*
X82655277Y-107331733D01*
X82672972Y-107687709D01*
X82693827Y-107982659D01*
X82718102Y-108224915D01*
X82746055Y-108422807D01*
X82777945Y-108584668D01*
X82814032Y-108718828D01*
X82854572Y-108833619D01*
X82899827Y-108937372D01*
X82950053Y-109038418D01*
X83005509Y-109145089D01*
X83027613Y-109188057D01*
X83248761Y-109531298D01*
X83565019Y-109910545D01*
X83926841Y-110273773D01*
X84284684Y-110568961D01*
X84439685Y-110670739D01*
X84738094Y-110822066D01*
X85095786Y-110971580D01*
X85287538Y-111039045D01*
X85368948Y-111062842D01*
X85462401Y-111084076D01*
X85577500Y-111102895D01*
X85723849Y-111119451D01*
X85911051Y-111133893D01*
X86148710Y-111146369D01*
X86446429Y-111157031D01*
X86813812Y-111166027D01*
X87260461Y-111173507D01*
X87795982Y-111179621D01*
X88429976Y-111184518D01*
X89172048Y-111188348D01*
X90031801Y-111191262D01*
X91018838Y-111193407D01*
X92142763Y-111194935D01*
X93413180Y-111195994D01*
X94839692Y-111196734D01*
X95422333Y-111196962D01*
X96962614Y-111197197D01*
X98342110Y-111196645D01*
X99569365Y-111195214D01*
X100652926Y-111192810D01*
X101601339Y-111189342D01*
X102423149Y-111184715D01*
X103126903Y-111178838D01*
X103721145Y-111171616D01*
X104214423Y-111162958D01*
X104615282Y-111152770D01*
X104932267Y-111140960D01*
X105173926Y-111127434D01*
X105348802Y-111112100D01*
X105465443Y-111094864D01*
X105497666Y-111087428D01*
X106243215Y-110808025D01*
X106901106Y-110399277D01*
X107453993Y-109877420D01*
X107884531Y-109258695D01*
X108166598Y-108588799D01*
X108185762Y-108523505D01*
X108203418Y-108454773D01*
X108219619Y-108375778D01*
X108234417Y-108279696D01*
X108247865Y-108159703D01*
X108260017Y-108008975D01*
X108270925Y-107820688D01*
X108280642Y-107588018D01*
X108289222Y-107304141D01*
X108296716Y-106962232D01*
X108303178Y-106555469D01*
X108308661Y-106077026D01*
X108313217Y-105520079D01*
X108316900Y-104877804D01*
X108319763Y-104143379D01*
X108321858Y-103309977D01*
X108323238Y-102370775D01*
X108323957Y-101318950D01*
X108324066Y-100147676D01*
X108323620Y-98850131D01*
X108322671Y-97419489D01*
X108321272Y-95848927D01*
X108319475Y-94131621D01*
X108317334Y-92260746D01*
X108314902Y-90229479D01*
X108314097Y-89565783D01*
X108291666Y-71104047D01*
X107976841Y-70467053D01*
X107549028Y-69778150D01*
X107011783Y-69208873D01*
X106379744Y-68770298D01*
X105667547Y-68473500D01*
X105201333Y-68367020D01*
X104982649Y-68345902D01*
X104609869Y-68327035D01*
X104098216Y-68310726D01*
X103462918Y-68297287D01*
X102719198Y-68287025D01*
X101882282Y-68280250D01*
X100967395Y-68277272D01*
X100778569Y-68277160D01*
X96906139Y-68276520D01*
X96883903Y-55428354D01*
X96861666Y-42580187D01*
X96671769Y-42114520D01*
X96307409Y-41436871D01*
X95809355Y-40834846D01*
X95206737Y-40337577D01*
X94533333Y-39976084D01*
X94425238Y-39933480D01*
X94317527Y-39897678D01*
X94194950Y-39867990D01*
X94042256Y-39843731D01*
X93844193Y-39824216D01*
X93585511Y-39808758D01*
X93250958Y-39796672D01*
X92825284Y-39787273D01*
X92293236Y-39779874D01*
X91639565Y-39773789D01*
X90849019Y-39768334D01*
X89906347Y-39762821D01*
X89773777Y-39762076D01*
X85479888Y-39737965D01*
X85455777Y-35444076D01*
X85450208Y-34480808D01*
X85444784Y-33671621D01*
X85438818Y-33001263D01*
X85431626Y-32454483D01*
X85422521Y-32016030D01*
X85410818Y-31670653D01*
X85395830Y-31403100D01*
X85376873Y-31198122D01*
X85353261Y-31040466D01*
X85324307Y-30914882D01*
X85289326Y-30806118D01*
X85247632Y-30698924D01*
X85241769Y-30684520D01*
X84877409Y-30006871D01*
X84379355Y-29404846D01*
X83776737Y-28907577D01*
X83103333Y-28546084D01*
X82637666Y-28356187D01*
X72764772Y-28333652D01*
X71260570Y-28330310D01*
X69916179Y-28327612D01*
X68722076Y-28325682D01*
X67668741Y-28324645D01*
X66746652Y-28324626D01*
X65946286Y-28325747D01*
X65258122Y-28328134D01*
X64672639Y-28331910D01*
X64180314Y-28337201D01*
X63771626Y-28344130D01*
X63437054Y-28352821D01*
X63167074Y-28363398D01*
X62952166Y-28375987D01*
X62782808Y-28390711D01*
X62649478Y-28407694D01*
X62542654Y-28427061D01*
X62452815Y-28448936D01*
X62384285Y-28469098D01*
X61670219Y-28776854D01*
X61036865Y-29221993D01*
X60508301Y-29784237D01*
X60155962Y-30345854D01*
X60092683Y-30470539D01*
X60036120Y-30586729D01*
X59985898Y-30704143D01*
X59941638Y-30832501D01*
X59902963Y-30981522D01*
X59869495Y-31160924D01*
X59840855Y-31380428D01*
X59816667Y-31649753D01*
X59796553Y-31978618D01*
X59780135Y-32376742D01*
X59767036Y-32853844D01*
X59756877Y-33419644D01*
X59749281Y-34083861D01*
X59743871Y-34856214D01*
X59740268Y-35746422D01*
X59738096Y-36764206D01*
X59736975Y-37919283D01*
X59736529Y-39221374D01*
X59736380Y-40680197D01*
X59736338Y-41144232D01*
X55079021Y-41144232D01*
X55079023Y-40447121D01*
X55079704Y-39076959D01*
X55081063Y-37723236D01*
X55083101Y-36396879D01*
X55085816Y-35108816D01*
X55089210Y-33869974D01*
X55093282Y-32691281D01*
X55098033Y-31583665D01*
X55103461Y-30558053D01*
X55109568Y-29625373D01*
X55116353Y-28796553D01*
X55123816Y-28082521D01*
X55131957Y-27494203D01*
X55140776Y-27042528D01*
X55150274Y-26738424D01*
X55160360Y-26593362D01*
X55360251Y-25867408D01*
X55699995Y-25218483D01*
X56162543Y-24663436D01*
X56730848Y-24219116D01*
X57387860Y-23902370D01*
X58048372Y-23739216D01*
X58201540Y-23729380D01*
X58513062Y-23720203D01*
X58971961Y-23711685D01*
X59567257Y-23703825D01*
X60287973Y-23696625D01*
X61123131Y-23690084D01*
X62061753Y-23684202D01*
X63092861Y-23678980D01*
X64205477Y-23674416D01*
X65388622Y-23670511D01*
X66631319Y-23667265D01*
X67922590Y-23664679D01*
X69251457Y-23662751D01*
X70606941Y-23661483D01*
X71978065Y-23660873D01*
X73353851Y-23660923D01*
G37*
X73353851Y-23660923D02*
X74723320Y-23661632D01*
X76075494Y-23663000D01*
X77399397Y-23665027D01*
X78684048Y-23667712D01*
X79918471Y-23671057D01*
X81091688Y-23675062D01*
X82192720Y-23679725D01*
X83210589Y-23685047D01*
X84134318Y-23691028D01*
X84952928Y-23697669D01*
X85655441Y-23704968D01*
X86230879Y-23712926D01*
X86668265Y-23721544D01*
X86956620Y-23730821D01*
X87076294Y-23739216D01*
X87807239Y-23925403D01*
X88456960Y-24252685D01*
X89011285Y-24706668D01*
X89456037Y-25272953D01*
X89777041Y-25937142D01*
X89957375Y-26665480D01*
X89975271Y-26874116D01*
X89991922Y-27232291D01*
X90006944Y-27720213D01*
X90019957Y-28318091D01*
X90030577Y-29006132D01*
X90038424Y-29764545D01*
X90043115Y-30573537D01*
X90044322Y-31171354D01*
X90046000Y-35087187D01*
X94004166Y-35088889D01*
X94827711Y-35090868D01*
X95616115Y-35095857D01*
X96349719Y-35103515D01*
X97008862Y-35113498D01*
X97573884Y-35125465D01*
X98025126Y-35139074D01*
X98342927Y-35153981D01*
X98490792Y-35167025D01*
X99218645Y-35353186D01*
X99871570Y-35680686D01*
X100432637Y-36132673D01*
X100884920Y-36692299D01*
X101211492Y-37342714D01*
X101393970Y-38056892D01*
X101403834Y-38209805D01*
X101413267Y-38523786D01*
X101422216Y-38990570D01*
X101430632Y-39601892D01*
X101438463Y-40349486D01*
X101445660Y-41225088D01*
X101452171Y-42220432D01*
X101457946Y-43327254D01*
X101462933Y-44537289D01*
X101467083Y-45842271D01*
X101470345Y-47233935D01*
X101472667Y-48704017D01*
X101474000Y-50244251D01*
X101474297Y-51152687D01*
X101476000Y-63704520D01*
X105649211Y-63704520D01*
X106631804Y-63705247D01*
X107460158Y-63707709D01*
X108149364Y-63712331D01*
X108714512Y-63719537D01*
X109170692Y-63729751D01*
X109532994Y-63743395D01*
X109816509Y-63760895D01*
X110036325Y-63782675D01*
X110207534Y-63809157D01*
X110327044Y-63835923D01*
X111030575Y-64102268D01*
X111640720Y-64502627D01*
X112143364Y-65021382D01*
X112524394Y-65642913D01*
X112769694Y-66351603D01*
X112816659Y-66590785D01*
X112825315Y-66728661D01*
X112833546Y-67027274D01*
X112841351Y-67478058D01*
X112848728Y-68072446D01*
X112855677Y-68801874D01*
X112862196Y-69657775D01*
X112868284Y-70631584D01*
X112873940Y-71714735D01*
X112879162Y-72898663D01*
X112883950Y-74174800D01*
X112888301Y-75534582D01*
X112892215Y-76969444D01*
X112895691Y-78470818D01*
X112898727Y-80030140D01*
X112901321Y-81638843D01*
X112903474Y-83288362D01*
X112905183Y-84970132D01*
X112906447Y-86675585D01*
X112907265Y-88396158D01*
X112907636Y-90123283D01*
X112907559Y-91848395D01*
X112907032Y-93562928D01*
X112906053Y-95258317D01*
X112904623Y-96925996D01*
X112902739Y-98557399D01*
X112900400Y-100143960D01*
X112897606Y-101677113D01*
X112894354Y-103148294D01*
X112890643Y-104548935D01*
X112886473Y-105870471D01*
X112881842Y-107104337D01*
X112876749Y-108241967D01*
X112871192Y-109274794D01*
X112865170Y-110194254D01*
X112858683Y-110991780D01*
X112851728Y-111658806D01*
X112844305Y-112186768D01*
X112836412Y-112567099D01*
X112828048Y-112791233D01*
X112823393Y-112843958D01*
X112629432Y-113550862D01*
X112298345Y-114204673D01*
X111851128Y-114773958D01*
X111308780Y-115227284D01*
X111176059Y-115309930D01*
X111079756Y-115367831D01*
X110992171Y-115420723D01*
X110905620Y-115468829D01*
X110812420Y-115512373D01*
X110704888Y-115551578D01*
X110575340Y-115586668D01*
X110416094Y-115617865D01*
X110219465Y-115645393D01*
X109977771Y-115669475D01*
X109683327Y-115690335D01*
X109328452Y-115708196D01*
X108905461Y-115723281D01*
X108406672Y-115735814D01*
X107824400Y-115746017D01*
X107150962Y-115754115D01*
X106378676Y-115760330D01*
X105499858Y-115764886D01*
X104506825Y-115768007D01*
X103391892Y-115769914D01*
X102147378Y-115770833D01*
X100765598Y-115770986D01*
X99238870Y-115770596D01*
X97559509Y-115769886D01*
X95719833Y-115769081D01*
X95383378Y-115768948D01*
X93513554Y-115768061D01*
X91805756Y-115766865D01*
X90252679Y-115765297D01*
X88847014Y-115763297D01*
X87581455Y-115760802D01*
X86448696Y-115757749D01*
X85441430Y-115754076D01*
X84552350Y-115749722D01*
X83774149Y-115744624D01*
X83099521Y-115738719D01*
X82521159Y-115731947D01*
X82031755Y-115724244D01*
X81624005Y-115715548D01*
X81290600Y-115705797D01*
X81024234Y-115694930D01*
X80817600Y-115682883D01*
X80663392Y-115669595D01*
X80554302Y-115655003D01*
X80494278Y-115642262D01*
X79822477Y-115376845D01*
X79227990Y-114973607D01*
X78728871Y-114453353D01*
X78343174Y-113836887D01*
X78088954Y-113145016D01*
X78018505Y-112789312D01*
X78009451Y-112642683D01*
X78000707Y-112336137D01*
X77992328Y-111879090D01*
X77984371Y-111280957D01*
X77976892Y-110551154D01*
X77969946Y-109699099D01*
X77963591Y-108734205D01*
X77957883Y-107665890D01*
X77952877Y-106503569D01*
X77948630Y-105256659D01*
X77945198Y-103934574D01*
X77942638Y-102546732D01*
X77941006Y-101102547D01*
X77940369Y-99709020D01*
X77938666Y-87157187D01*
X73635749Y-87157187D01*
X72655253Y-87156680D01*
X71829198Y-87154861D01*
X71142692Y-87151283D01*
X70580843Y-87145500D01*
X70128760Y-87137065D01*
X69771553Y-87125532D01*
X69494329Y-87110453D01*
X69282199Y-87091384D01*
X69120270Y-87067876D01*
X68993651Y-87039483D01*
X68915582Y-87015626D01*
X68208374Y-86692734D01*
X67613530Y-86247415D01*
X67140616Y-85690964D01*
X66799200Y-85034673D01*
X66598847Y-84289837D01*
X66597039Y-84278520D01*
X66583602Y-84105903D01*
X66571237Y-83765852D01*
X66559957Y-83260266D01*
X66549774Y-82591040D01*
X66540702Y-81760071D01*
X66532752Y-80769256D01*
X66525938Y-79620493D01*
X66520273Y-78315678D01*
X66515769Y-76856707D01*
X66512438Y-75245478D01*
X66510294Y-73483888D01*
X66509349Y-71573834D01*
X66509306Y-71181215D01*
X66508666Y-58634243D01*
X57745666Y-58582187D01*
X57142656Y-58299475D01*
X56480762Y-57900294D01*
X55935788Y-57384658D01*
X55519146Y-56767601D01*
X55242248Y-56064154D01*
X55160360Y-55688345D01*
X55150190Y-55541333D01*
X55140698Y-55235916D01*
X55131884Y-54783022D01*
X55123749Y-54193580D01*
X55116291Y-53478516D01*
X55109512Y-52648758D01*
X55103412Y-51715235D01*
X55097989Y-50688873D01*
X55093244Y-49580601D01*
X55089178Y-48401346D01*
X55085790Y-47162035D01*
X55083080Y-45873597D01*
X55081049Y-44546958D01*
X55079695Y-43193048D01*
X55079020Y-41822793D01*
X55079021Y-41144232D01*
X59736338Y-41144232D01*
X59736404Y-42645199D01*
X59737014Y-43986234D01*
X59738290Y-45176734D01*
X59740351Y-46226101D01*
X59743318Y-47143734D01*
X59747310Y-47939032D01*
X59752447Y-48621396D01*
X59758851Y-49200224D01*
X59766642Y-49684917D01*
X59775939Y-50084874D01*
X59786862Y-50409494D01*
X59799533Y-50668178D01*
X59814070Y-50870325D01*
X59830596Y-51025335D01*
X59849228Y-51142607D01*
X59865119Y-51213227D01*
X60136509Y-51935651D01*
X60544206Y-52581412D01*
X61067981Y-53131395D01*
X61687604Y-53566487D01*
X62382846Y-53867574D01*
X62779917Y-53967206D01*
X62966907Y-53986311D01*
X63307282Y-54003602D01*
X63785099Y-54018772D01*
X64384416Y-54031511D01*
X65089291Y-54041513D01*
X65883781Y-54048470D01*
X66751944Y-54052072D01*
X67197556Y-54052520D01*
X71165333Y-54052520D01*
X71166338Y-66689020D01*
X71166410Y-68424717D01*
X71166509Y-69999437D01*
X71166898Y-71421535D01*
X71167836Y-72699366D01*
X71169583Y-73841286D01*
X71172400Y-74855651D01*
X71176548Y-75750816D01*
X71182287Y-76535137D01*
X71189878Y-77216970D01*
X71199581Y-77804670D01*
X71211657Y-78306592D01*
X71226366Y-78731092D01*
X71243969Y-79086526D01*
X71264726Y-79381249D01*
X71288897Y-79623617D01*
X71316744Y-79821986D01*
X71348527Y-79984711D01*
X71384507Y-80120147D01*
X71424943Y-80236650D01*
X71470096Y-80342576D01*
X71520227Y-80446281D01*
X71575597Y-80556119D01*
X71600240Y-80605609D01*
X71889579Y-81059450D01*
X72291352Y-81511190D01*
X72755203Y-81912122D01*
X73230772Y-82213538D01*
X73294942Y-82244798D01*
X73682895Y-82395072D01*
X74125700Y-82521906D01*
X74425000Y-82581188D01*
X74634548Y-82599185D01*
X74992817Y-82615959D01*
X75479192Y-82631103D01*
X76073063Y-82644207D01*
X76753816Y-82654862D01*
X77500841Y-82662658D01*
X78293525Y-82667186D01*
X78806500Y-82668176D01*
X82595333Y-82669854D01*
X82595333Y-95267398D01*
X82595275Y-97005529D01*
X82595273Y-98582657D01*
X82595587Y-100007115D01*
X82596474Y-101287234D01*
X82598194Y-102431345D01*
X82601005Y-103447780D01*
X82605167Y-104344869D01*
X82610936Y-105130944D01*
X82618574Y-105814337D01*
X82628337Y-106403378D01*
X82640486Y-106906400D01*
X82655277Y-107331733D01*
X82672972Y-107687709D01*
X82693827Y-107982659D01*
X82718102Y-108224915D01*
X82746055Y-108422807D01*
X82777945Y-108584668D01*
X82814032Y-108718828D01*
X82854572Y-108833619D01*
X82899827Y-108937372D01*
X82950053Y-109038418D01*
X83005509Y-109145089D01*
X83027613Y-109188057D01*
X83248761Y-109531298D01*
X83565019Y-109910545D01*
X83926841Y-110273773D01*
X84284684Y-110568961D01*
X84439685Y-110670739D01*
X84738094Y-110822066D01*
X85095786Y-110971580D01*
X85287538Y-111039045D01*
X85368948Y-111062842D01*
X85462401Y-111084076D01*
X85577500Y-111102895D01*
X85723849Y-111119451D01*
X85911051Y-111133893D01*
X86148710Y-111146369D01*
X86446429Y-111157031D01*
X86813812Y-111166027D01*
X87260461Y-111173507D01*
X87795982Y-111179621D01*
X88429976Y-111184518D01*
X89172048Y-111188348D01*
X90031801Y-111191262D01*
X91018838Y-111193407D01*
X92142763Y-111194935D01*
X93413180Y-111195994D01*
X94839692Y-111196734D01*
X95422333Y-111196962D01*
X96962614Y-111197197D01*
X98342110Y-111196645D01*
X99569365Y-111195214D01*
X100652926Y-111192810D01*
X101601339Y-111189342D01*
X102423149Y-111184715D01*
X103126903Y-111178838D01*
X103721145Y-111171616D01*
X104214423Y-111162958D01*
X104615282Y-111152770D01*
X104932267Y-111140960D01*
X105173926Y-111127434D01*
X105348802Y-111112100D01*
X105465443Y-111094864D01*
X105497666Y-111087428D01*
X106243215Y-110808025D01*
X106901106Y-110399277D01*
X107453993Y-109877420D01*
X107884531Y-109258695D01*
X108166598Y-108588799D01*
X108185762Y-108523505D01*
X108203418Y-108454773D01*
X108219619Y-108375778D01*
X108234417Y-108279696D01*
X108247865Y-108159703D01*
X108260017Y-108008975D01*
X108270925Y-107820688D01*
X108280642Y-107588018D01*
X108289222Y-107304141D01*
X108296716Y-106962232D01*
X108303178Y-106555469D01*
X108308661Y-106077026D01*
X108313217Y-105520079D01*
X108316900Y-104877804D01*
X108319763Y-104143379D01*
X108321858Y-103309977D01*
X108323238Y-102370775D01*
X108323957Y-101318950D01*
X108324066Y-100147676D01*
X108323620Y-98850131D01*
X108322671Y-97419489D01*
X108321272Y-95848927D01*
X108319475Y-94131621D01*
X108317334Y-92260746D01*
X108314902Y-90229479D01*
X108314097Y-89565783D01*
X108291666Y-71104047D01*
X107976841Y-70467053D01*
X107549028Y-69778150D01*
X107011783Y-69208873D01*
X106379744Y-68770298D01*
X105667547Y-68473500D01*
X105201333Y-68367020D01*
X104982649Y-68345902D01*
X104609869Y-68327035D01*
X104098216Y-68310726D01*
X103462918Y-68297287D01*
X102719198Y-68287025D01*
X101882282Y-68280250D01*
X100967395Y-68277272D01*
X100778569Y-68277160D01*
X96906139Y-68276520D01*
X96883903Y-55428354D01*
X96861666Y-42580187D01*
X96671769Y-42114520D01*
X96307409Y-41436871D01*
X95809355Y-40834846D01*
X95206737Y-40337577D01*
X94533333Y-39976084D01*
X94425238Y-39933480D01*
X94317527Y-39897678D01*
X94194950Y-39867990D01*
X94042256Y-39843731D01*
X93844193Y-39824216D01*
X93585511Y-39808758D01*
X93250958Y-39796672D01*
X92825284Y-39787273D01*
X92293236Y-39779874D01*
X91639565Y-39773789D01*
X90849019Y-39768334D01*
X89906347Y-39762821D01*
X89773777Y-39762076D01*
X85479888Y-39737965D01*
X85455777Y-35444076D01*
X85450208Y-34480808D01*
X85444784Y-33671621D01*
X85438818Y-33001263D01*
X85431626Y-32454483D01*
X85422521Y-32016030D01*
X85410818Y-31670653D01*
X85395830Y-31403100D01*
X85376873Y-31198122D01*
X85353261Y-31040466D01*
X85324307Y-30914882D01*
X85289326Y-30806118D01*
X85247632Y-30698924D01*
X85241769Y-30684520D01*
X84877409Y-30006871D01*
X84379355Y-29404846D01*
X83776737Y-28907577D01*
X83103333Y-28546084D01*
X82637666Y-28356187D01*
X72764772Y-28333652D01*
X71260570Y-28330310D01*
X69916179Y-28327612D01*
X68722076Y-28325682D01*
X67668741Y-28324645D01*
X66746652Y-28324626D01*
X65946286Y-28325747D01*
X65258122Y-28328134D01*
X64672639Y-28331910D01*
X64180314Y-28337201D01*
X63771626Y-28344130D01*
X63437054Y-28352821D01*
X63167074Y-28363398D01*
X62952166Y-28375987D01*
X62782808Y-28390711D01*
X62649478Y-28407694D01*
X62542654Y-28427061D01*
X62452815Y-28448936D01*
X62384285Y-28469098D01*
X61670219Y-28776854D01*
X61036865Y-29221993D01*
X60508301Y-29784237D01*
X60155962Y-30345854D01*
X60092683Y-30470539D01*
X60036120Y-30586729D01*
X59985898Y-30704143D01*
X59941638Y-30832501D01*
X59902963Y-30981522D01*
X59869495Y-31160924D01*
X59840855Y-31380428D01*
X59816667Y-31649753D01*
X59796553Y-31978618D01*
X59780135Y-32376742D01*
X59767036Y-32853844D01*
X59756877Y-33419644D01*
X59749281Y-34083861D01*
X59743871Y-34856214D01*
X59740268Y-35746422D01*
X59738096Y-36764206D01*
X59736975Y-37919283D01*
X59736529Y-39221374D01*
X59736380Y-40680197D01*
X59736338Y-41144232D01*
X55079021Y-41144232D01*
X55079023Y-40447121D01*
X55079704Y-39076959D01*
X55081063Y-37723236D01*
X55083101Y-36396879D01*
X55085816Y-35108816D01*
X55089210Y-33869974D01*
X55093282Y-32691281D01*
X55098033Y-31583665D01*
X55103461Y-30558053D01*
X55109568Y-29625373D01*
X55116353Y-28796553D01*
X55123816Y-28082521D01*
X55131957Y-27494203D01*
X55140776Y-27042528D01*
X55150274Y-26738424D01*
X55160360Y-26593362D01*
X55360251Y-25867408D01*
X55699995Y-25218483D01*
X56162543Y-24663436D01*
X56730848Y-24219116D01*
X57387860Y-23902370D01*
X58048372Y-23739216D01*
X58201540Y-23729380D01*
X58513062Y-23720203D01*
X58971961Y-23711685D01*
X59567257Y-23703825D01*
X60287973Y-23696625D01*
X61123131Y-23690084D01*
X62061753Y-23684202D01*
X63092861Y-23678980D01*
X64205477Y-23674416D01*
X65388622Y-23670511D01*
X66631319Y-23667265D01*
X67922590Y-23664679D01*
X69251457Y-23662751D01*
X70606941Y-23661483D01*
X71978065Y-23660873D01*
X73353851Y-23660923D01*
G36*
X76560319Y-31192825D02*
G01*
X77589560Y-31194164D01*
X78486927Y-31196971D01*
X79261784Y-31201726D01*
X79923496Y-31208907D01*
X80481429Y-31218993D01*
X80944945Y-31232463D01*
X81323411Y-31249794D01*
X81626190Y-31271466D01*
X81862648Y-31297957D01*
X82042149Y-31329746D01*
X82174057Y-31367312D01*
X82267738Y-31411132D01*
X82332555Y-31461687D01*
X82377874Y-31519453D01*
X82413060Y-31584911D01*
X82447476Y-31658538D01*
X82466900Y-31697749D01*
X82494838Y-31770636D01*
X82518512Y-31881358D01*
X82538259Y-32043106D01*
X82554416Y-32269074D01*
X82567320Y-32572454D01*
X82577309Y-32966437D01*
X82584720Y-33464217D01*
X82589891Y-34078986D01*
X82593158Y-34823936D01*
X82594860Y-35712261D01*
X82595333Y-36720666D01*
X82595333Y-41495220D01*
X82790298Y-41863905D01*
X83068445Y-42229272D01*
X83353948Y-42427555D01*
X83722633Y-42622520D01*
X88497187Y-42622520D01*
X89555298Y-42622661D01*
X90457261Y-42623811D01*
X91216264Y-42627064D01*
X91845493Y-42633510D01*
X92358134Y-42644242D01*
X92767374Y-42660352D01*
X93086400Y-42682933D01*
X93328397Y-42713076D01*
X93506553Y-42751873D01*
X93634053Y-42800418D01*
X93724084Y-42859801D01*
X93789833Y-42931115D01*
X93844486Y-43015453D01*
X93874656Y-43067897D01*
X93889482Y-43124032D01*
X93903200Y-43243014D01*
X93915885Y-43431579D01*
X93927612Y-43696466D01*
X93938454Y-44044415D01*
X93948485Y-44482164D01*
X93957780Y-45016453D01*
X93966412Y-45654019D01*
X93974456Y-46401601D01*
X93981986Y-47265939D01*
X93989076Y-48253771D01*
X93995800Y-49371835D01*
X94002232Y-50626871D01*
X94008446Y-52025618D01*
X94014517Y-53574814D01*
X94020518Y-55281197D01*
X94025333Y-56768459D01*
X94067666Y-70279398D01*
X94304876Y-70590381D01*
X94397247Y-70713646D01*
X94480776Y-70818974D01*
X94568838Y-70907882D01*
X94674809Y-70981892D01*
X94812065Y-71042522D01*
X94993982Y-71091292D01*
X95233936Y-71129720D01*
X95545303Y-71159327D01*
X95941458Y-71181632D01*
X96435778Y-71198154D01*
X97041638Y-71210412D01*
X97772414Y-71219927D01*
X98641483Y-71228216D01*
X99662219Y-71236801D01*
X100022521Y-71239854D01*
X104961376Y-71282187D01*
X105208355Y-71558689D01*
X105455333Y-71835192D01*
X105455333Y-89702727D01*
X105455485Y-91778931D01*
X105455807Y-93692477D01*
X105456101Y-95450040D01*
X105456166Y-97058294D01*
X105455803Y-98523914D01*
X105454813Y-99853576D01*
X105452995Y-101053953D01*
X105450150Y-102131722D01*
X105446079Y-103093556D01*
X105440582Y-103946130D01*
X105433459Y-104696119D01*
X105424510Y-105350199D01*
X105413537Y-105915043D01*
X105400340Y-106397327D01*
X105384718Y-106803725D01*
X105366472Y-107140913D01*
X105345404Y-107415565D01*
X105321312Y-107634355D01*
X105293998Y-107803960D01*
X105263262Y-107931052D01*
X105228904Y-108022308D01*
X105190725Y-108084403D01*
X105148525Y-108124010D01*
X105102104Y-108147805D01*
X105051264Y-108162462D01*
X104995803Y-108174657D01*
X104935524Y-108191064D01*
X104902096Y-108203523D01*
X104766961Y-108224758D01*
X104476647Y-108244141D01*
X104044655Y-108261679D01*
X103484487Y-108277378D01*
X102809645Y-108291247D01*
X102033631Y-108303291D01*
X101169947Y-108313518D01*
X100232096Y-108321934D01*
X99233579Y-108328546D01*
X98187899Y-108333362D01*
X97108558Y-108336387D01*
X96009057Y-108337630D01*
X94902899Y-108337096D01*
X93803586Y-108334793D01*
X92724620Y-108330728D01*
X91679504Y-108324907D01*
X90681738Y-108317337D01*
X89744826Y-108308026D01*
X88882269Y-108296980D01*
X88107569Y-108284205D01*
X87434230Y-108269710D01*
X86875751Y-108253500D01*
X86445637Y-108235582D01*
X86157388Y-108215965D01*
X86024508Y-108194653D01*
X86022896Y-108193906D01*
X85957122Y-108165791D01*
X85897296Y-108144258D01*
X85843116Y-108121568D01*
X85794279Y-108089981D01*
X85750480Y-108041758D01*
X85711416Y-107969159D01*
X85676785Y-107864445D01*
X85646283Y-107719877D01*
X85619607Y-107527714D01*
X85596454Y-107280217D01*
X85576520Y-106969647D01*
X85559503Y-106588265D01*
X85545098Y-106128330D01*
X85533003Y-105582103D01*
X85522914Y-104941845D01*
X85514529Y-104199817D01*
X85507544Y-103348278D01*
X85501655Y-102379489D01*
X85496560Y-101285711D01*
X85493740Y-100534520D01*
X90215333Y-100534520D01*
X90217947Y-101360020D01*
X90247414Y-102232965D01*
X90333954Y-102968933D01*
X90483795Y-103592467D01*
X90703165Y-104128111D01*
X90998291Y-104600406D01*
X91060897Y-104681795D01*
X91457916Y-105068681D01*
X91989353Y-105413937D01*
X92622346Y-105702222D01*
X93324032Y-105918198D01*
X93959222Y-106034643D01*
X94498534Y-106076175D01*
X95124625Y-106082835D01*
X95781023Y-106057475D01*
X96411257Y-106002944D01*
X96958857Y-105922093D01*
X97188052Y-105871661D01*
X97768502Y-105696557D01*
X98238340Y-105485652D01*
X98656224Y-105207755D01*
X99002499Y-104906843D01*
X99430338Y-104429446D01*
X99747762Y-103899895D01*
X99963724Y-103293147D01*
X100087178Y-102584162D01*
X100127051Y-101761414D01*
X100096142Y-101026031D01*
X99992510Y-100406043D01*
X99805718Y-99859387D01*
X99528632Y-99349133D01*
X99378905Y-99133927D01*
X99202343Y-98920818D01*
X98982501Y-98695675D01*
X98702930Y-98444367D01*
X98347183Y-98152765D01*
X97898814Y-97806737D01*
X97341376Y-97392154D01*
X96744663Y-96957302D01*
X96121057Y-96503647D01*
X95620848Y-96134042D01*
X95228680Y-95835472D01*
X94929198Y-95594918D01*
X94707050Y-95399364D01*
X94546878Y-95235792D01*
X94433331Y-95091187D01*
X94351052Y-94952531D01*
X94330369Y-94910569D01*
X94211542Y-94509967D01*
X94210397Y-94099731D01*
X94318023Y-93725211D01*
X94525508Y-93431758D01*
X94638011Y-93345005D01*
X94886435Y-93262848D01*
X95212430Y-93244008D01*
X95537450Y-93286224D01*
X95768872Y-93377559D01*
X95929126Y-93514750D01*
X96037843Y-93699902D01*
X96103709Y-93964730D01*
X96135407Y-94340952D01*
X96142000Y-94740365D01*
X96142000Y-95539187D01*
X99867333Y-95539187D01*
X99865863Y-94671354D01*
X99828503Y-93870132D01*
X99722543Y-93159872D01*
X99552908Y-92568119D01*
X99446787Y-92327317D01*
X99077580Y-91787732D01*
X98570999Y-91342495D01*
X97931570Y-90993550D01*
X97163817Y-90742841D01*
X96272265Y-90592311D01*
X95295333Y-90543854D01*
X94248932Y-90599271D01*
X93330479Y-90765578D01*
X92539877Y-91042862D01*
X91877028Y-91431206D01*
X91341834Y-91930696D01*
X90934199Y-92541416D01*
X90654022Y-93263452D01*
X90501208Y-94096889D01*
X90469972Y-94738232D01*
X90493710Y-95126532D01*
X90554951Y-95548828D01*
X90599918Y-95754232D01*
X90734276Y-96171704D01*
X90922601Y-96569390D01*
X91178220Y-96961476D01*
X91514462Y-97362149D01*
X91944652Y-97785596D01*
X92482119Y-98246003D01*
X93140190Y-98757558D01*
X93932192Y-99334448D01*
X94025333Y-99400572D01*
X94659935Y-99855720D01*
X95167357Y-100234830D01*
X95563019Y-100553177D01*
X95862343Y-100826036D01*
X96080751Y-101068683D01*
X96233663Y-101296395D01*
X96336502Y-101524445D01*
X96401665Y-101754430D01*
X96457977Y-102050188D01*
X96460755Y-102264682D01*
X96404740Y-102478954D01*
X96344744Y-102631435D01*
X96106723Y-103013084D01*
X95777186Y-103276909D01*
X95389663Y-103412050D01*
X94977687Y-103407645D01*
X94574788Y-103252832D01*
X94524687Y-103220999D01*
X94291075Y-103033091D01*
X94126595Y-102811337D01*
X94020601Y-102524119D01*
X93962445Y-102139816D01*
X93941479Y-101626809D01*
X93940798Y-101487020D01*
X93940666Y-100534520D01*
X90215333Y-100534520D01*
X85493740Y-100534520D01*
X85491955Y-100059204D01*
X85487537Y-98692228D01*
X85483003Y-97177045D01*
X85478050Y-95505915D01*
X85474000Y-94184520D01*
X85468595Y-92387275D01*
X85463936Y-90751606D01*
X85459665Y-89269761D01*
X85455426Y-87933985D01*
X85450864Y-86736526D01*
X85445621Y-85669630D01*
X85439343Y-84725544D01*
X85431671Y-83896514D01*
X85422251Y-83174788D01*
X85410726Y-82552611D01*
X85396739Y-82022232D01*
X85379935Y-81575895D01*
X85359958Y-81205849D01*
X85336450Y-80904339D01*
X85309057Y-80663613D01*
X85277421Y-80475917D01*
X85241186Y-80333497D01*
X85199997Y-80228601D01*
X85153497Y-80153476D01*
X85101329Y-80100367D01*
X85043138Y-80061521D01*
X84978567Y-80029186D01*
X84907261Y-79995608D01*
X84828862Y-79953033D01*
X84819886Y-79947527D01*
X84500333Y-79748854D01*
X79539080Y-79706520D01*
X78482162Y-79697562D01*
X77581455Y-79689382D01*
X76823848Y-79680857D01*
X76196226Y-79670862D01*
X75685481Y-79658274D01*
X75278498Y-79641969D01*
X74962166Y-79620823D01*
X74723374Y-79593712D01*
X74549010Y-79559513D01*
X74425961Y-79517101D01*
X74341116Y-79465353D01*
X74281362Y-79403144D01*
X74233589Y-79329351D01*
X74187544Y-79247817D01*
X74173376Y-79182860D01*
X74160174Y-79035177D01*
X74147877Y-78798883D01*
X74136422Y-78468092D01*
X74125749Y-78036917D01*
X74115794Y-77499472D01*
X74106498Y-76849872D01*
X74097798Y-76082231D01*
X74089632Y-75190662D01*
X74081938Y-74169279D01*
X74074656Y-73012198D01*
X74067722Y-71713531D01*
X74061077Y-70267393D01*
X74054657Y-68667897D01*
X74048401Y-66909158D01*
X74044000Y-65552211D01*
X74038439Y-63782450D01*
X74033279Y-62174151D01*
X74033017Y-62095854D01*
X78870000Y-62095854D01*
X78870000Y-77251187D01*
X82001220Y-77251187D01*
X82045000Y-67993859D01*
X82610480Y-69638023D01*
X82776637Y-70120586D01*
X82986790Y-70730073D01*
X83229518Y-71433402D01*
X83493396Y-72197489D01*
X83766999Y-72989252D01*
X84038905Y-73775608D01*
X84208809Y-74266687D01*
X85241656Y-77251187D01*
X89199333Y-77251187D01*
X89199333Y-73525854D01*
X91231333Y-73525854D01*
X91231333Y-88681187D01*
X99190000Y-88681187D01*
X99190000Y-85887187D01*
X94956666Y-85887187D01*
X94956666Y-82415854D01*
X98597333Y-82415854D01*
X98597333Y-79621854D01*
X94956666Y-79621854D01*
X94956666Y-76404520D01*
X98851333Y-76404520D01*
X98851333Y-73525854D01*
X91231333Y-73525854D01*
X89199333Y-73525854D01*
X89199333Y-62095854D01*
X86040898Y-62095854D01*
X86086797Y-67027687D01*
X86132697Y-71959520D01*
X85386639Y-69673520D01*
X85157489Y-68970972D01*
X84891773Y-68155638D01*
X84605209Y-67275789D01*
X84313514Y-66379698D01*
X84032406Y-65515638D01*
X83780790Y-64741687D01*
X82920999Y-62095854D01*
X78870000Y-62095854D01*
X74033017Y-62095854D01*
X74028397Y-60719443D01*
X74023668Y-59410454D01*
X74018968Y-58239314D01*
X74014172Y-57198152D01*
X74009157Y-56279097D01*
X74003799Y-55474278D01*
X73997973Y-54775825D01*
X73991555Y-54175865D01*
X73984422Y-53666529D01*
X73976448Y-53239945D01*
X73967511Y-52888243D01*
X73957485Y-52603551D01*
X73946246Y-52377999D01*
X73933671Y-52203716D01*
X73919636Y-52072830D01*
X73904015Y-51977472D01*
X73886686Y-51909769D01*
X73867523Y-51861851D01*
X73846404Y-51825848D01*
X73827101Y-51799109D01*
X73625473Y-51573066D01*
X73418839Y-51390752D01*
X73365735Y-51354182D01*
X73303091Y-51322955D01*
X73217562Y-51296518D01*
X73095802Y-51274316D01*
X72924468Y-51255795D01*
X72690213Y-51240399D01*
X72379693Y-51227576D01*
X71979562Y-51216770D01*
X71476477Y-51207427D01*
X70857091Y-51198993D01*
X70108059Y-51190914D01*
X69216038Y-51182635D01*
X68197455Y-51173854D01*
X63209769Y-51131520D01*
X63120059Y-51041789D01*
X79220166Y-51041789D01*
X79222685Y-51990697D01*
X79230329Y-53093607D01*
X79230561Y-53121187D01*
X79239694Y-54129419D01*
X79249653Y-54983968D01*
X79261908Y-55700482D01*
X79277929Y-56294611D01*
X79299185Y-56782003D01*
X79327144Y-57178307D01*
X79363278Y-57499173D01*
X79409054Y-57760248D01*
X79465942Y-57977181D01*
X79535412Y-58165622D01*
X79618932Y-58341220D01*
X79717973Y-58519623D01*
X79741181Y-58559419D01*
X80151974Y-59095194D01*
X80701055Y-59545125D01*
X81377481Y-59903394D01*
X82170311Y-60164184D01*
X83052866Y-60319938D01*
X83594615Y-60354664D01*
X84216616Y-60353557D01*
X84855578Y-60319829D01*
X85448211Y-60256692D01*
X85897333Y-60175576D01*
X86621498Y-59940630D01*
X87273634Y-59603101D01*
X87828378Y-59181180D01*
X88260367Y-58693059D01*
X88473130Y-58328187D01*
X88555663Y-58139462D01*
X88625690Y-57944570D01*
X88684224Y-57728426D01*
X88732275Y-57475951D01*
X88770853Y-57172061D01*
X88800972Y-56801676D01*
X88823641Y-56349712D01*
X88839872Y-55801088D01*
X88850677Y-55140722D01*
X88857065Y-54353532D01*
X88860050Y-53424436D01*
X88860666Y-52548287D01*
X88859767Y-51492773D01*
X88856233Y-50591389D01*
X88848812Y-49828939D01*
X88836247Y-49190226D01*
X88817287Y-48660052D01*
X88790677Y-48223221D01*
X88755163Y-47864535D01*
X88709491Y-47568797D01*
X88652407Y-47320811D01*
X88582658Y-47105378D01*
X88498989Y-46907303D01*
X88400146Y-46711388D01*
X88375255Y-46665258D01*
X87992653Y-46135974D01*
X87468629Y-45683164D01*
X86816931Y-45315501D01*
X86051303Y-45041658D01*
X85652340Y-44947088D01*
X85127041Y-44872346D01*
X84510127Y-44834324D01*
X83849274Y-44831492D01*
X83192161Y-44862321D01*
X82586465Y-44925280D01*
X82079865Y-45018842D01*
X81907064Y-45067231D01*
X81147605Y-45373761D01*
X80512182Y-45761574D01*
X80011823Y-46221738D01*
X79657555Y-46745321D01*
X79560076Y-46968229D01*
X79480484Y-47202974D01*
X79413214Y-47457351D01*
X79357466Y-47746289D01*
X79312441Y-48084719D01*
X79277338Y-48487570D01*
X79251359Y-48969772D01*
X79233704Y-49546256D01*
X79223573Y-50231952D01*
X79220166Y-51041789D01*
X63120059Y-51041789D01*
X62656333Y-50577958D01*
X62634155Y-42453187D01*
X66999281Y-42453187D01*
X67036421Y-44167687D01*
X67058584Y-44897539D01*
X67093778Y-45485974D01*
X67147694Y-45960748D01*
X67226021Y-46349617D01*
X67334450Y-46680338D01*
X67478669Y-46980667D01*
X67664369Y-47278361D01*
X67678208Y-47298569D01*
X68071885Y-47732556D01*
X68605234Y-48107476D01*
X69255308Y-48411480D01*
X69999162Y-48632716D01*
X70412357Y-48710647D01*
X70949862Y-48760934D01*
X71585399Y-48770128D01*
X72256664Y-48741330D01*
X72901353Y-48677638D01*
X73457161Y-48582154D01*
X73576780Y-48553195D01*
X74339775Y-48288482D01*
X74966559Y-47925422D01*
X75462759Y-47458163D01*
X75834002Y-46880854D01*
X76085917Y-46187643D01*
X76155403Y-45871896D01*
X76175037Y-45675643D01*
X76192384Y-45314287D01*
X76207383Y-44792047D01*
X76219977Y-44113139D01*
X76230107Y-43281780D01*
X76237715Y-42302187D01*
X76242742Y-41178577D01*
X76245130Y-39915167D01*
X76245333Y-39389637D01*
X76245333Y-33393854D01*
X72612091Y-33393854D01*
X72587212Y-39384020D01*
X72582166Y-40541702D01*
X72577107Y-41542135D01*
X72571700Y-42397406D01*
X72565608Y-43119600D01*
X72558497Y-43720801D01*
X72550030Y-44213096D01*
X72539873Y-44608569D01*
X72527689Y-44919305D01*
X72513143Y-45157390D01*
X72495899Y-45334909D01*
X72475622Y-45463946D01*
X72451975Y-45556589D01*
X72424624Y-45624921D01*
X72413290Y-45646844D01*
X72209006Y-45919815D01*
X71945655Y-46059554D01*
X71631000Y-46093854D01*
X71356393Y-46075147D01*
X71141912Y-46006782D01*
X70979498Y-45870385D01*
X70861092Y-45647588D01*
X70778636Y-45320019D01*
X70724072Y-44869308D01*
X70689340Y-44277083D01*
X70676785Y-43918544D01*
X70632787Y-42453187D01*
X66999281Y-42453187D01*
X62634155Y-42453187D01*
X62631203Y-41372073D01*
X62627423Y-39756920D01*
X62625382Y-38306421D01*
X62625114Y-37015900D01*
X62626651Y-35880688D01*
X62630027Y-34896109D01*
X62635275Y-34057494D01*
X62642429Y-33360167D01*
X62651522Y-32799458D01*
X62662588Y-32370694D01*
X62675660Y-32069202D01*
X62690772Y-31890310D01*
X62699315Y-31844638D01*
X62874798Y-31515860D01*
X63063111Y-31358121D01*
X63109319Y-31332253D01*
X63164650Y-31309240D01*
X63238730Y-31288912D01*
X63341184Y-31271105D01*
X63481640Y-31255650D01*
X63669721Y-31242381D01*
X63915056Y-31231130D01*
X64227269Y-31221731D01*
X64615987Y-31214016D01*
X65090836Y-31207819D01*
X65661442Y-31202972D01*
X66337430Y-31199308D01*
X67128427Y-31196661D01*
X68044059Y-31194863D01*
X69093951Y-31193747D01*
X70287731Y-31193146D01*
X71635023Y-31192893D01*
X72587704Y-31192837D01*
X74068755Y-31192640D01*
X75389839Y-31192477D01*
X76560319Y-31192825D01*
G37*
X76560319Y-31192825D02*
X77589560Y-31194164D01*
X78486927Y-31196971D01*
X79261784Y-31201726D01*
X79923496Y-31208907D01*
X80481429Y-31218993D01*
X80944945Y-31232463D01*
X81323411Y-31249794D01*
X81626190Y-31271466D01*
X81862648Y-31297957D01*
X82042149Y-31329746D01*
X82174057Y-31367312D01*
X82267738Y-31411132D01*
X82332555Y-31461687D01*
X82377874Y-31519453D01*
X82413060Y-31584911D01*
X82447476Y-31658538D01*
X82466900Y-31697749D01*
X82494838Y-31770636D01*
X82518512Y-31881358D01*
X82538259Y-32043106D01*
X82554416Y-32269074D01*
X82567320Y-32572454D01*
X82577309Y-32966437D01*
X82584720Y-33464217D01*
X82589891Y-34078986D01*
X82593158Y-34823936D01*
X82594860Y-35712261D01*
X82595333Y-36720666D01*
X82595333Y-41495220D01*
X82790298Y-41863905D01*
X83068445Y-42229272D01*
X83353948Y-42427555D01*
X83722633Y-42622520D01*
X88497187Y-42622520D01*
X89555298Y-42622661D01*
X90457261Y-42623811D01*
X91216264Y-42627064D01*
X91845493Y-42633510D01*
X92358134Y-42644242D01*
X92767374Y-42660352D01*
X93086400Y-42682933D01*
X93328397Y-42713076D01*
X93506553Y-42751873D01*
X93634053Y-42800418D01*
X93724084Y-42859801D01*
X93789833Y-42931115D01*
X93844486Y-43015453D01*
X93874656Y-43067897D01*
X93889482Y-43124032D01*
X93903200Y-43243014D01*
X93915885Y-43431579D01*
X93927612Y-43696466D01*
X93938454Y-44044415D01*
X93948485Y-44482164D01*
X93957780Y-45016453D01*
X93966412Y-45654019D01*
X93974456Y-46401601D01*
X93981986Y-47265939D01*
X93989076Y-48253771D01*
X93995800Y-49371835D01*
X94002232Y-50626871D01*
X94008446Y-52025618D01*
X94014517Y-53574814D01*
X94020518Y-55281197D01*
X94025333Y-56768459D01*
X94067666Y-70279398D01*
X94304876Y-70590381D01*
X94397247Y-70713646D01*
X94480776Y-70818974D01*
X94568838Y-70907882D01*
X94674809Y-70981892D01*
X94812065Y-71042522D01*
X94993982Y-71091292D01*
X95233936Y-71129720D01*
X95545303Y-71159327D01*
X95941458Y-71181632D01*
X96435778Y-71198154D01*
X97041638Y-71210412D01*
X97772414Y-71219927D01*
X98641483Y-71228216D01*
X99662219Y-71236801D01*
X100022521Y-71239854D01*
X104961376Y-71282187D01*
X105208355Y-71558689D01*
X105455333Y-71835192D01*
X105455333Y-89702727D01*
X105455485Y-91778931D01*
X105455807Y-93692477D01*
X105456101Y-95450040D01*
X105456166Y-97058294D01*
X105455803Y-98523914D01*
X105454813Y-99853576D01*
X105452995Y-101053953D01*
X105450150Y-102131722D01*
X105446079Y-103093556D01*
X105440582Y-103946130D01*
X105433459Y-104696119D01*
X105424510Y-105350199D01*
X105413537Y-105915043D01*
X105400340Y-106397327D01*
X105384718Y-106803725D01*
X105366472Y-107140913D01*
X105345404Y-107415565D01*
X105321312Y-107634355D01*
X105293998Y-107803960D01*
X105263262Y-107931052D01*
X105228904Y-108022308D01*
X105190725Y-108084403D01*
X105148525Y-108124010D01*
X105102104Y-108147805D01*
X105051264Y-108162462D01*
X104995803Y-108174657D01*
X104935524Y-108191064D01*
X104902096Y-108203523D01*
X104766961Y-108224758D01*
X104476647Y-108244141D01*
X104044655Y-108261679D01*
X103484487Y-108277378D01*
X102809645Y-108291247D01*
X102033631Y-108303291D01*
X101169947Y-108313518D01*
X100232096Y-108321934D01*
X99233579Y-108328546D01*
X98187899Y-108333362D01*
X97108558Y-108336387D01*
X96009057Y-108337630D01*
X94902899Y-108337096D01*
X93803586Y-108334793D01*
X92724620Y-108330728D01*
X91679504Y-108324907D01*
X90681738Y-108317337D01*
X89744826Y-108308026D01*
X88882269Y-108296980D01*
X88107569Y-108284205D01*
X87434230Y-108269710D01*
X86875751Y-108253500D01*
X86445637Y-108235582D01*
X86157388Y-108215965D01*
X86024508Y-108194653D01*
X86022896Y-108193906D01*
X85957122Y-108165791D01*
X85897296Y-108144258D01*
X85843116Y-108121568D01*
X85794279Y-108089981D01*
X85750480Y-108041758D01*
X85711416Y-107969159D01*
X85676785Y-107864445D01*
X85646283Y-107719877D01*
X85619607Y-107527714D01*
X85596454Y-107280217D01*
X85576520Y-106969647D01*
X85559503Y-106588265D01*
X85545098Y-106128330D01*
X85533003Y-105582103D01*
X85522914Y-104941845D01*
X85514529Y-104199817D01*
X85507544Y-103348278D01*
X85501655Y-102379489D01*
X85496560Y-101285711D01*
X85493740Y-100534520D01*
X90215333Y-100534520D01*
X90217947Y-101360020D01*
X90247414Y-102232965D01*
X90333954Y-102968933D01*
X90483795Y-103592467D01*
X90703165Y-104128111D01*
X90998291Y-104600406D01*
X91060897Y-104681795D01*
X91457916Y-105068681D01*
X91989353Y-105413937D01*
X92622346Y-105702222D01*
X93324032Y-105918198D01*
X93959222Y-106034643D01*
X94498534Y-106076175D01*
X95124625Y-106082835D01*
X95781023Y-106057475D01*
X96411257Y-106002944D01*
X96958857Y-105922093D01*
X97188052Y-105871661D01*
X97768502Y-105696557D01*
X98238340Y-105485652D01*
X98656224Y-105207755D01*
X99002499Y-104906843D01*
X99430338Y-104429446D01*
X99747762Y-103899895D01*
X99963724Y-103293147D01*
X100087178Y-102584162D01*
X100127051Y-101761414D01*
X100096142Y-101026031D01*
X99992510Y-100406043D01*
X99805718Y-99859387D01*
X99528632Y-99349133D01*
X99378905Y-99133927D01*
X99202343Y-98920818D01*
X98982501Y-98695675D01*
X98702930Y-98444367D01*
X98347183Y-98152765D01*
X97898814Y-97806737D01*
X97341376Y-97392154D01*
X96744663Y-96957302D01*
X96121057Y-96503647D01*
X95620848Y-96134042D01*
X95228680Y-95835472D01*
X94929198Y-95594918D01*
X94707050Y-95399364D01*
X94546878Y-95235792D01*
X94433331Y-95091187D01*
X94351052Y-94952531D01*
X94330369Y-94910569D01*
X94211542Y-94509967D01*
X94210397Y-94099731D01*
X94318023Y-93725211D01*
X94525508Y-93431758D01*
X94638011Y-93345005D01*
X94886435Y-93262848D01*
X95212430Y-93244008D01*
X95537450Y-93286224D01*
X95768872Y-93377559D01*
X95929126Y-93514750D01*
X96037843Y-93699902D01*
X96103709Y-93964730D01*
X96135407Y-94340952D01*
X96142000Y-94740365D01*
X96142000Y-95539187D01*
X99867333Y-95539187D01*
X99865863Y-94671354D01*
X99828503Y-93870132D01*
X99722543Y-93159872D01*
X99552908Y-92568119D01*
X99446787Y-92327317D01*
X99077580Y-91787732D01*
X98570999Y-91342495D01*
X97931570Y-90993550D01*
X97163817Y-90742841D01*
X96272265Y-90592311D01*
X95295333Y-90543854D01*
X94248932Y-90599271D01*
X93330479Y-90765578D01*
X92539877Y-91042862D01*
X91877028Y-91431206D01*
X91341834Y-91930696D01*
X90934199Y-92541416D01*
X90654022Y-93263452D01*
X90501208Y-94096889D01*
X90469972Y-94738232D01*
X90493710Y-95126532D01*
X90554951Y-95548828D01*
X90599918Y-95754232D01*
X90734276Y-96171704D01*
X90922601Y-96569390D01*
X91178220Y-96961476D01*
X91514462Y-97362149D01*
X91944652Y-97785596D01*
X92482119Y-98246003D01*
X93140190Y-98757558D01*
X93932192Y-99334448D01*
X94025333Y-99400572D01*
X94659935Y-99855720D01*
X95167357Y-100234830D01*
X95563019Y-100553177D01*
X95862343Y-100826036D01*
X96080751Y-101068683D01*
X96233663Y-101296395D01*
X96336502Y-101524445D01*
X96401665Y-101754430D01*
X96457977Y-102050188D01*
X96460755Y-102264682D01*
X96404740Y-102478954D01*
X96344744Y-102631435D01*
X96106723Y-103013084D01*
X95777186Y-103276909D01*
X95389663Y-103412050D01*
X94977687Y-103407645D01*
X94574788Y-103252832D01*
X94524687Y-103220999D01*
X94291075Y-103033091D01*
X94126595Y-102811337D01*
X94020601Y-102524119D01*
X93962445Y-102139816D01*
X93941479Y-101626809D01*
X93940798Y-101487020D01*
X93940666Y-100534520D01*
X90215333Y-100534520D01*
X85493740Y-100534520D01*
X85491955Y-100059204D01*
X85487537Y-98692228D01*
X85483003Y-97177045D01*
X85478050Y-95505915D01*
X85474000Y-94184520D01*
X85468595Y-92387275D01*
X85463936Y-90751606D01*
X85459665Y-89269761D01*
X85455426Y-87933985D01*
X85450864Y-86736526D01*
X85445621Y-85669630D01*
X85439343Y-84725544D01*
X85431671Y-83896514D01*
X85422251Y-83174788D01*
X85410726Y-82552611D01*
X85396739Y-82022232D01*
X85379935Y-81575895D01*
X85359958Y-81205849D01*
X85336450Y-80904339D01*
X85309057Y-80663613D01*
X85277421Y-80475917D01*
X85241186Y-80333497D01*
X85199997Y-80228601D01*
X85153497Y-80153476D01*
X85101329Y-80100367D01*
X85043138Y-80061521D01*
X84978567Y-80029186D01*
X84907261Y-79995608D01*
X84828862Y-79953033D01*
X84819886Y-79947527D01*
X84500333Y-79748854D01*
X79539080Y-79706520D01*
X78482162Y-79697562D01*
X77581455Y-79689382D01*
X76823848Y-79680857D01*
X76196226Y-79670862D01*
X75685481Y-79658274D01*
X75278498Y-79641969D01*
X74962166Y-79620823D01*
X74723374Y-79593712D01*
X74549010Y-79559513D01*
X74425961Y-79517101D01*
X74341116Y-79465353D01*
X74281362Y-79403144D01*
X74233589Y-79329351D01*
X74187544Y-79247817D01*
X74173376Y-79182860D01*
X74160174Y-79035177D01*
X74147877Y-78798883D01*
X74136422Y-78468092D01*
X74125749Y-78036917D01*
X74115794Y-77499472D01*
X74106498Y-76849872D01*
X74097798Y-76082231D01*
X74089632Y-75190662D01*
X74081938Y-74169279D01*
X74074656Y-73012198D01*
X74067722Y-71713531D01*
X74061077Y-70267393D01*
X74054657Y-68667897D01*
X74048401Y-66909158D01*
X74044000Y-65552211D01*
X74038439Y-63782450D01*
X74033279Y-62174151D01*
X74033017Y-62095854D01*
X78870000Y-62095854D01*
X78870000Y-77251187D01*
X82001220Y-77251187D01*
X82045000Y-67993859D01*
X82610480Y-69638023D01*
X82776637Y-70120586D01*
X82986790Y-70730073D01*
X83229518Y-71433402D01*
X83493396Y-72197489D01*
X83766999Y-72989252D01*
X84038905Y-73775608D01*
X84208809Y-74266687D01*
X85241656Y-77251187D01*
X89199333Y-77251187D01*
X89199333Y-73525854D01*
X91231333Y-73525854D01*
X91231333Y-88681187D01*
X99190000Y-88681187D01*
X99190000Y-85887187D01*
X94956666Y-85887187D01*
X94956666Y-82415854D01*
X98597333Y-82415854D01*
X98597333Y-79621854D01*
X94956666Y-79621854D01*
X94956666Y-76404520D01*
X98851333Y-76404520D01*
X98851333Y-73525854D01*
X91231333Y-73525854D01*
X89199333Y-73525854D01*
X89199333Y-62095854D01*
X86040898Y-62095854D01*
X86086797Y-67027687D01*
X86132697Y-71959520D01*
X85386639Y-69673520D01*
X85157489Y-68970972D01*
X84891773Y-68155638D01*
X84605209Y-67275789D01*
X84313514Y-66379698D01*
X84032406Y-65515638D01*
X83780790Y-64741687D01*
X82920999Y-62095854D01*
X78870000Y-62095854D01*
X74033017Y-62095854D01*
X74028397Y-60719443D01*
X74023668Y-59410454D01*
X74018968Y-58239314D01*
X74014172Y-57198152D01*
X74009157Y-56279097D01*
X74003799Y-55474278D01*
X73997973Y-54775825D01*
X73991555Y-54175865D01*
X73984422Y-53666529D01*
X73976448Y-53239945D01*
X73967511Y-52888243D01*
X73957485Y-52603551D01*
X73946246Y-52377999D01*
X73933671Y-52203716D01*
X73919636Y-52072830D01*
X73904015Y-51977472D01*
X73886686Y-51909769D01*
X73867523Y-51861851D01*
X73846404Y-51825848D01*
X73827101Y-51799109D01*
X73625473Y-51573066D01*
X73418839Y-51390752D01*
X73365735Y-51354182D01*
X73303091Y-51322955D01*
X73217562Y-51296518D01*
X73095802Y-51274316D01*
X72924468Y-51255795D01*
X72690213Y-51240399D01*
X72379693Y-51227576D01*
X71979562Y-51216770D01*
X71476477Y-51207427D01*
X70857091Y-51198993D01*
X70108059Y-51190914D01*
X69216038Y-51182635D01*
X68197455Y-51173854D01*
X63209769Y-51131520D01*
X63120059Y-51041789D01*
X79220166Y-51041789D01*
X79222685Y-51990697D01*
X79230329Y-53093607D01*
X79230561Y-53121187D01*
X79239694Y-54129419D01*
X79249653Y-54983968D01*
X79261908Y-55700482D01*
X79277929Y-56294611D01*
X79299185Y-56782003D01*
X79327144Y-57178307D01*
X79363278Y-57499173D01*
X79409054Y-57760248D01*
X79465942Y-57977181D01*
X79535412Y-58165622D01*
X79618932Y-58341220D01*
X79717973Y-58519623D01*
X79741181Y-58559419D01*
X80151974Y-59095194D01*
X80701055Y-59545125D01*
X81377481Y-59903394D01*
X82170311Y-60164184D01*
X83052866Y-60319938D01*
X83594615Y-60354664D01*
X84216616Y-60353557D01*
X84855578Y-60319829D01*
X85448211Y-60256692D01*
X85897333Y-60175576D01*
X86621498Y-59940630D01*
X87273634Y-59603101D01*
X87828378Y-59181180D01*
X88260367Y-58693059D01*
X88473130Y-58328187D01*
X88555663Y-58139462D01*
X88625690Y-57944570D01*
X88684224Y-57728426D01*
X88732275Y-57475951D01*
X88770853Y-57172061D01*
X88800972Y-56801676D01*
X88823641Y-56349712D01*
X88839872Y-55801088D01*
X88850677Y-55140722D01*
X88857065Y-54353532D01*
X88860050Y-53424436D01*
X88860666Y-52548287D01*
X88859767Y-51492773D01*
X88856233Y-50591389D01*
X88848812Y-49828939D01*
X88836247Y-49190226D01*
X88817287Y-48660052D01*
X88790677Y-48223221D01*
X88755163Y-47864535D01*
X88709491Y-47568797D01*
X88652407Y-47320811D01*
X88582658Y-47105378D01*
X88498989Y-46907303D01*
X88400146Y-46711388D01*
X88375255Y-46665258D01*
X87992653Y-46135974D01*
X87468629Y-45683164D01*
X86816931Y-45315501D01*
X86051303Y-45041658D01*
X85652340Y-44947088D01*
X85127041Y-44872346D01*
X84510127Y-44834324D01*
X83849274Y-44831492D01*
X83192161Y-44862321D01*
X82586465Y-44925280D01*
X82079865Y-45018842D01*
X81907064Y-45067231D01*
X81147605Y-45373761D01*
X80512182Y-45761574D01*
X80011823Y-46221738D01*
X79657555Y-46745321D01*
X79560076Y-46968229D01*
X79480484Y-47202974D01*
X79413214Y-47457351D01*
X79357466Y-47746289D01*
X79312441Y-48084719D01*
X79277338Y-48487570D01*
X79251359Y-48969772D01*
X79233704Y-49546256D01*
X79223573Y-50231952D01*
X79220166Y-51041789D01*
X63120059Y-51041789D01*
X62656333Y-50577958D01*
X62634155Y-42453187D01*
X66999281Y-42453187D01*
X67036421Y-44167687D01*
X67058584Y-44897539D01*
X67093778Y-45485974D01*
X67147694Y-45960748D01*
X67226021Y-46349617D01*
X67334450Y-46680338D01*
X67478669Y-46980667D01*
X67664369Y-47278361D01*
X67678208Y-47298569D01*
X68071885Y-47732556D01*
X68605234Y-48107476D01*
X69255308Y-48411480D01*
X69999162Y-48632716D01*
X70412357Y-48710647D01*
X70949862Y-48760934D01*
X71585399Y-48770128D01*
X72256664Y-48741330D01*
X72901353Y-48677638D01*
X73457161Y-48582154D01*
X73576780Y-48553195D01*
X74339775Y-48288482D01*
X74966559Y-47925422D01*
X75462759Y-47458163D01*
X75834002Y-46880854D01*
X76085917Y-46187643D01*
X76155403Y-45871896D01*
X76175037Y-45675643D01*
X76192384Y-45314287D01*
X76207383Y-44792047D01*
X76219977Y-44113139D01*
X76230107Y-43281780D01*
X76237715Y-42302187D01*
X76242742Y-41178577D01*
X76245130Y-39915167D01*
X76245333Y-39389637D01*
X76245333Y-33393854D01*
X72612091Y-33393854D01*
X72587212Y-39384020D01*
X72582166Y-40541702D01*
X72577107Y-41542135D01*
X72571700Y-42397406D01*
X72565608Y-43119600D01*
X72558497Y-43720801D01*
X72550030Y-44213096D01*
X72539873Y-44608569D01*
X72527689Y-44919305D01*
X72513143Y-45157390D01*
X72495899Y-45334909D01*
X72475622Y-45463946D01*
X72451975Y-45556589D01*
X72424624Y-45624921D01*
X72413290Y-45646844D01*
X72209006Y-45919815D01*
X71945655Y-46059554D01*
X71631000Y-46093854D01*
X71356393Y-46075147D01*
X71141912Y-46006782D01*
X70979498Y-45870385D01*
X70861092Y-45647588D01*
X70778636Y-45320019D01*
X70724072Y-44869308D01*
X70689340Y-44277083D01*
X70676785Y-43918544D01*
X70632787Y-42453187D01*
X66999281Y-42453187D01*
X62634155Y-42453187D01*
X62631203Y-41372073D01*
X62627423Y-39756920D01*
X62625382Y-38306421D01*
X62625114Y-37015900D01*
X62626651Y-35880688D01*
X62630027Y-34896109D01*
X62635275Y-34057494D01*
X62642429Y-33360167D01*
X62651522Y-32799458D01*
X62662588Y-32370694D01*
X62675660Y-32069202D01*
X62690772Y-31890310D01*
X62699315Y-31844638D01*
X62874798Y-31515860D01*
X63063111Y-31358121D01*
X63109319Y-31332253D01*
X63164650Y-31309240D01*
X63238730Y-31288912D01*
X63341184Y-31271105D01*
X63481640Y-31255650D01*
X63669721Y-31242381D01*
X63915056Y-31231130D01*
X64227269Y-31221731D01*
X64615987Y-31214016D01*
X65090836Y-31207819D01*
X65661442Y-31202972D01*
X66337430Y-31199308D01*
X67128427Y-31196661D01*
X68044059Y-31194863D01*
X69093951Y-31193747D01*
X70287731Y-31193146D01*
X71635023Y-31192893D01*
X72587704Y-31192837D01*
X74068755Y-31192640D01*
X75389839Y-31192477D01*
X76560319Y-31192825D01*
G36*
X84486050Y-47652489D02*
G01*
X84789864Y-47850720D01*
X85016844Y-48183013D01*
X85054144Y-48266289D01*
X85085205Y-48362802D01*
X85110592Y-48487901D01*
X85130876Y-48656940D01*
X85146623Y-48885268D01*
X85158401Y-49188238D01*
X85166780Y-49581200D01*
X85172327Y-50079506D01*
X85175611Y-50698508D01*
X85177199Y-51453556D01*
X85177659Y-52360002D01*
X85177666Y-52528520D01*
X85177201Y-53508817D01*
X85174940Y-54334554D01*
X85169591Y-55020501D01*
X85159856Y-55581432D01*
X85144443Y-56032119D01*
X85122055Y-56387332D01*
X85091398Y-56661845D01*
X85051177Y-56870429D01*
X85000096Y-57027856D01*
X84936862Y-57148898D01*
X84860179Y-57248328D01*
X84768752Y-57340916D01*
X84754639Y-57354233D01*
X84466355Y-57521779D01*
X84103585Y-57591386D01*
X83733438Y-57557984D01*
X83472906Y-57451068D01*
X83354457Y-57372793D01*
X83254509Y-57289716D01*
X83171590Y-57187665D01*
X83104223Y-57052469D01*
X83050935Y-56869957D01*
X83010251Y-56625958D01*
X82980697Y-56306300D01*
X82960797Y-55896814D01*
X82949079Y-55383326D01*
X82944066Y-54751668D01*
X82944285Y-53987666D01*
X82948260Y-53077151D01*
X82951900Y-52443854D01*
X82957814Y-51500792D01*
X82963784Y-50712100D01*
X82970448Y-50062816D01*
X82978446Y-49537978D01*
X82988417Y-49122623D01*
X83001001Y-48801789D01*
X83016836Y-48560514D01*
X83036562Y-48383836D01*
X83060819Y-48256792D01*
X83090246Y-48164420D01*
X83125481Y-48091758D01*
X83138835Y-48068988D01*
X83394081Y-47773186D01*
X83728477Y-47616530D01*
X84084638Y-47583515D01*
X84486050Y-47652489D01*
G37*
X84486050Y-47652489D02*
X84789864Y-47850720D01*
X85016844Y-48183013D01*
X85054144Y-48266289D01*
X85085205Y-48362802D01*
X85110592Y-48487901D01*
X85130876Y-48656940D01*
X85146623Y-48885268D01*
X85158401Y-49188238D01*
X85166780Y-49581200D01*
X85172327Y-50079506D01*
X85175611Y-50698508D01*
X85177199Y-51453556D01*
X85177659Y-52360002D01*
X85177666Y-52528520D01*
X85177201Y-53508817D01*
X85174940Y-54334554D01*
X85169591Y-55020501D01*
X85159856Y-55581432D01*
X85144443Y-56032119D01*
X85122055Y-56387332D01*
X85091398Y-56661845D01*
X85051177Y-56870429D01*
X85000096Y-57027856D01*
X84936862Y-57148898D01*
X84860179Y-57248328D01*
X84768752Y-57340916D01*
X84754639Y-57354233D01*
X84466355Y-57521779D01*
X84103585Y-57591386D01*
X83733438Y-57557984D01*
X83472906Y-57451068D01*
X83354457Y-57372793D01*
X83254509Y-57289716D01*
X83171590Y-57187665D01*
X83104223Y-57052469D01*
X83050935Y-56869957D01*
X83010251Y-56625958D01*
X82980697Y-56306300D01*
X82960797Y-55896814D01*
X82949079Y-55383326D01*
X82944066Y-54751668D01*
X82944285Y-53987666D01*
X82948260Y-53077151D01*
X82951900Y-52443854D01*
X82957814Y-51500792D01*
X82963784Y-50712100D01*
X82970448Y-50062816D01*
X82978446Y-49537978D01*
X82988417Y-49122623D01*
X83001001Y-48801789D01*
X83016836Y-48560514D01*
X83036562Y-48383836D01*
X83060819Y-48256792D01*
X83090246Y-48164420D01*
X83125481Y-48091758D01*
X83138835Y-48068988D01*
X83394081Y-47773186D01*
X83728477Y-47616530D01*
X84084638Y-47583515D01*
X84486050Y-47652489D01*
D10*
X54438095Y-94415281D02*
X54580952Y-94462900D01*
X54819047Y-94462900D01*
X54914285Y-94415281D01*
X54961904Y-94367662D01*
X55009523Y-94272424D01*
X55009523Y-94177186D01*
X54961904Y-94081948D01*
X54914285Y-94034329D01*
X54819047Y-93986710D01*
X54628571Y-93939091D01*
X54533333Y-93891472D01*
X54485714Y-93843853D01*
X54438095Y-93748615D01*
X54438095Y-93653377D01*
X54485714Y-93558139D01*
X54533333Y-93510520D01*
X54628571Y-93462900D01*
X54866666Y-93462900D01*
X55009523Y-93510520D01*
X55438095Y-93796234D02*
X55438095Y-94796234D01*
X55438095Y-93843853D02*
X55533333Y-93796234D01*
X55723809Y-93796234D01*
X55819047Y-93843853D01*
X55866666Y-93891472D01*
X55914285Y-93986710D01*
X55914285Y-94272424D01*
X55866666Y-94367662D01*
X55819047Y-94415281D01*
X55723809Y-94462900D01*
X55533333Y-94462900D01*
X55438095Y-94415281D01*
X56723809Y-94415281D02*
X56628571Y-94462900D01*
X56438095Y-94462900D01*
X56342857Y-94415281D01*
X56295238Y-94320043D01*
X56295238Y-93939091D01*
X56342857Y-93843853D01*
X56438095Y-93796234D01*
X56628571Y-93796234D01*
X56723809Y-93843853D01*
X56771428Y-93939091D01*
X56771428Y-94034329D01*
X56295238Y-94129567D01*
X57628571Y-94462900D02*
X57628571Y-93939091D01*
X57580952Y-93843853D01*
X57485714Y-93796234D01*
X57295238Y-93796234D01*
X57200000Y-93843853D01*
X57628571Y-94415281D02*
X57533333Y-94462900D01*
X57295238Y-94462900D01*
X57200000Y-94415281D01*
X57152380Y-94320043D01*
X57152380Y-94224805D01*
X57200000Y-94129567D01*
X57295238Y-94081948D01*
X57533333Y-94081948D01*
X57628571Y-94034329D01*
X58104761Y-94462900D02*
X58104761Y-93462900D01*
X58200000Y-94081948D02*
X58485714Y-94462900D01*
X58485714Y-93796234D02*
X58104761Y-94177186D01*
X59295238Y-94415281D02*
X59200000Y-94462900D01*
X59009523Y-94462900D01*
X58914285Y-94415281D01*
X58866666Y-94320043D01*
X58866666Y-93939091D01*
X58914285Y-93843853D01*
X59009523Y-93796234D01*
X59200000Y-93796234D01*
X59295238Y-93843853D01*
X59342857Y-93939091D01*
X59342857Y-94034329D01*
X58866666Y-94129567D01*
X59771428Y-94462900D02*
X59771428Y-93796234D01*
X59771428Y-93986710D02*
X59819047Y-93891472D01*
X59866666Y-93843853D01*
X59961904Y-93796234D01*
X60057142Y-93796234D01*
X24480952Y-59952380D02*
X24004761Y-59952380D01*
X24004761Y-58952380D01*
X24814285Y-59428571D02*
X25147619Y-59428571D01*
X25290476Y-59952380D02*
X24814285Y-59952380D01*
X24814285Y-58952380D01*
X25290476Y-58952380D01*
X25719047Y-59952380D02*
X25719047Y-58952380D01*
X25957142Y-58952380D01*
X26100000Y-59000000D01*
X26195238Y-59095238D01*
X26242857Y-59190476D01*
X26290476Y-59380952D01*
X26290476Y-59523809D01*
X26242857Y-59714285D01*
X26195238Y-59809523D01*
X26100000Y-59904761D01*
X25957142Y-59952380D01*
X25719047Y-59952380D01*
X27242857Y-59952380D02*
X26671428Y-59952380D01*
X26957142Y-59952380D02*
X26957142Y-58952380D01*
X26861904Y-59095238D01*
X26766666Y-59190476D01*
X26671428Y-59238095D01*
X24480952Y-69952380D02*
X24004761Y-69952380D01*
X24004761Y-68952380D01*
X24814285Y-69428571D02*
X25147619Y-69428571D01*
X25290476Y-69952380D02*
X24814285Y-69952380D01*
X24814285Y-68952380D01*
X25290476Y-68952380D01*
X25719047Y-69952380D02*
X25719047Y-68952380D01*
X25957142Y-68952380D01*
X26100000Y-69000000D01*
X26195238Y-69095238D01*
X26242857Y-69190476D01*
X26290476Y-69380952D01*
X26290476Y-69523809D01*
X26242857Y-69714285D01*
X26195238Y-69809523D01*
X26100000Y-69904761D01*
X25957142Y-69952380D01*
X25719047Y-69952380D01*
X26671428Y-69047619D02*
X26719047Y-69000000D01*
X26814285Y-68952380D01*
X27052380Y-68952380D01*
X27147619Y-69000000D01*
X27195238Y-69047619D01*
X27242857Y-69142857D01*
X27242857Y-69238095D01*
X27195238Y-69380952D01*
X26623809Y-69952380D01*
X27242857Y-69952380D01*
X298280952Y-62902380D02*
X297804761Y-62902380D01*
X297804761Y-61902380D01*
X298614285Y-62378571D02*
X298947619Y-62378571D01*
X299090476Y-62902380D02*
X298614285Y-62902380D01*
X298614285Y-61902380D01*
X299090476Y-61902380D01*
X299519047Y-62902380D02*
X299519047Y-61902380D01*
X299757142Y-61902380D01*
X299900000Y-61950000D01*
X299995238Y-62045238D01*
X300042857Y-62140476D01*
X300090476Y-62330952D01*
X300090476Y-62473809D01*
X300042857Y-62664285D01*
X299995238Y-62759523D01*
X299900000Y-62854761D01*
X299757142Y-62902380D01*
X299519047Y-62902380D01*
X300423809Y-61902380D02*
X301042857Y-61902380D01*
X300709523Y-62283333D01*
X300852380Y-62283333D01*
X300947619Y-62330952D01*
X300995238Y-62378571D01*
X301042857Y-62473809D01*
X301042857Y-62711904D01*
X300995238Y-62807142D01*
X300947619Y-62854761D01*
X300852380Y-62902380D01*
X300566666Y-62902380D01*
X300471428Y-62854761D01*
X300423809Y-62807142D01*
X298280952Y-67102380D02*
X297804761Y-67102380D01*
X297804761Y-66102380D01*
X298614285Y-66578571D02*
X298947619Y-66578571D01*
X299090476Y-67102380D02*
X298614285Y-67102380D01*
X298614285Y-66102380D01*
X299090476Y-66102380D01*
X299519047Y-67102380D02*
X299519047Y-66102380D01*
X299757142Y-66102380D01*
X299900000Y-66150000D01*
X299995238Y-66245238D01*
X300042857Y-66340476D01*
X300090476Y-66530952D01*
X300090476Y-66673809D01*
X300042857Y-66864285D01*
X299995238Y-66959523D01*
X299900000Y-67054761D01*
X299757142Y-67102380D01*
X299519047Y-67102380D01*
X300947619Y-66435714D02*
X300947619Y-67102380D01*
X300709523Y-66054761D02*
X300471428Y-66769047D01*
X301090476Y-66769047D01*
%LPC*%
D13*
X301016160Y-83845320D03*
D14*
X298476160Y-88925320D03*
D13*
X294666160Y-86385320D03*
D15*
X293396160Y-88925320D03*
X303556160Y-88925320D03*
D16*
X150800000Y-69550000D03*
X213100000Y-107750000D03*
X282650000Y-50450000D03*
D17*
X49050000Y-51800000D03*
X46450000Y-51750000D03*
X49050000Y-49100000D03*
X46450000Y-49100000D03*
X47800000Y-52350000D03*
X49700000Y-50450000D03*
X45900000Y-50450000D03*
X47800000Y-48550000D03*
D18*
X47800000Y-50450000D03*
D13*
X91465000Y-83845280D03*
D14*
X88925000Y-88925280D03*
D13*
X85115000Y-86385280D03*
D15*
X83845000Y-88925280D03*
X94005000Y-88925280D03*
D13*
X67335000Y-94005280D03*
D14*
X69875000Y-88925280D03*
D13*
X73685000Y-91465280D03*
D15*
X74955000Y-88925280D03*
X64795000Y-88925280D03*
D13*
X224973790Y-110515400D03*
D14*
X219893790Y-107975400D03*
D13*
X222433790Y-104165400D03*
D15*
X219893790Y-102895400D03*
X219893790Y-113055400D03*
G36*
G01*
X52050040Y-94600400D02*
X52050040Y-91200400D01*
G75*
G02*
X52250040Y-91000400I200000J0D01*
G01*
X53550040Y-91000400D01*
G75*
G02*
X53750040Y-91200400I0J-200000D01*
G01*
X53750040Y-94600400D01*
G75*
G02*
X53550040Y-94800400I-200000J0D01*
G01*
X52250040Y-94800400D01*
G75*
G02*
X52050040Y-94600400I0J200000D01*
G01*
G37*
G36*
G01*
X60750040Y-94600400D02*
X60750040Y-91200400D01*
G75*
G02*
X60950040Y-91000400I200000J0D01*
G01*
X62250040Y-91000400D01*
G75*
G02*
X62450040Y-91200400I0J-200000D01*
G01*
X62450040Y-94600400D01*
G75*
G02*
X62250040Y-94800400I-200000J0D01*
G01*
X60950040Y-94800400D01*
G75*
G02*
X60750040Y-94600400I0J200000D01*
G01*
G37*
X160680560Y-69875240D03*
X150520560Y-69875240D03*
D14*
X155600560Y-69875240D03*
D13*
X262914840Y-26695040D03*
D14*
X260374840Y-31775040D03*
D13*
X256564840Y-29235040D03*
D15*
X255294840Y-31775040D03*
X265454840Y-31775040D03*
X74955000Y-31775040D03*
X64795000Y-31775040D03*
D13*
X66065000Y-29235040D03*
D14*
X69875000Y-31775040D03*
D13*
X72415000Y-26695040D03*
X91465000Y-26695040D03*
D14*
X88925000Y-31775040D03*
D13*
X85115000Y-29235040D03*
D15*
X83845000Y-31775040D03*
X94005000Y-31775040D03*
X113055000Y-31775040D03*
X102895000Y-31775040D03*
D13*
X104165000Y-29235040D03*
D14*
X107975000Y-31775040D03*
D13*
X110515000Y-26695040D03*
D15*
X132105000Y-31775040D03*
X121945000Y-31775040D03*
D13*
X123215000Y-29235040D03*
D14*
X127025000Y-31775040D03*
D13*
X129565000Y-26695040D03*
X148615000Y-26695040D03*
D14*
X146075000Y-31775040D03*
D13*
X142265000Y-29235040D03*
D15*
X140995000Y-31775040D03*
X151155000Y-31775040D03*
D13*
X205765600Y-26695080D03*
D14*
X203225600Y-31775080D03*
D13*
X199415600Y-29235080D03*
D15*
X198145600Y-31775080D03*
X208305600Y-31775080D03*
D13*
X224815680Y-26695040D03*
D14*
X222275680Y-31775040D03*
D13*
X218465680Y-29235040D03*
D15*
X217195680Y-31775040D03*
X227355680Y-31775040D03*
D13*
X243865760Y-26695040D03*
D14*
X241325760Y-31775040D03*
D13*
X237515760Y-29235040D03*
D15*
X236245760Y-31775040D03*
X246405760Y-31775040D03*
D13*
X281964840Y-26695040D03*
D14*
X279424840Y-31775040D03*
D13*
X275614840Y-29235040D03*
D15*
X274344840Y-31775040D03*
X284504840Y-31775040D03*
D13*
X48285000Y-36855040D03*
D14*
X50825000Y-31775040D03*
D13*
X54635000Y-34315040D03*
D15*
X55905000Y-31775040D03*
X45745000Y-31775040D03*
X179730880Y-69875240D03*
X169570880Y-69875240D03*
D13*
X170840880Y-67335240D03*
D14*
X174650880Y-69875240D03*
D13*
X177190880Y-64795240D03*
X243865760Y-83845320D03*
D14*
X241325760Y-88925320D03*
D13*
X237515760Y-86385320D03*
D15*
X236245760Y-88925320D03*
X246405760Y-88925320D03*
D13*
X301014840Y-26695040D03*
D14*
X298474840Y-31775040D03*
D13*
X294664840Y-29235040D03*
D15*
X293394840Y-31775040D03*
X303554840Y-31775040D03*
X265455840Y-88925320D03*
X255295840Y-88925320D03*
D13*
X256565840Y-86385320D03*
D14*
X260375840Y-88925320D03*
D13*
X262915840Y-83845320D03*
X177190040Y-45745400D03*
D14*
X174650040Y-50825400D03*
D13*
X170840040Y-48285400D03*
D15*
X169570040Y-50825400D03*
X179730040Y-50825400D03*
D13*
X186715040Y-26695400D03*
D14*
X184175040Y-31775400D03*
D13*
X180365040Y-29235400D03*
D15*
X179095040Y-31775400D03*
X189255040Y-31775400D03*
D13*
X167665040Y-26695400D03*
D14*
X165125040Y-31775400D03*
D13*
X161315040Y-29235400D03*
D15*
X160045040Y-31775400D03*
X170205040Y-31775400D03*
X65430000Y-69875200D03*
X55270000Y-69875200D03*
D13*
X56540000Y-67335200D03*
D14*
X60350000Y-69875200D03*
D13*
X62890000Y-64795200D03*
D15*
X151155000Y-88925280D03*
X140995000Y-88925280D03*
D13*
X142265000Y-86385280D03*
D14*
X146075000Y-88925280D03*
D13*
X148615000Y-83845280D03*
D15*
X113055000Y-88925280D03*
X102895000Y-88925280D03*
D13*
X104165000Y-86385280D03*
D14*
X107975000Y-88925280D03*
D13*
X110515000Y-83845280D03*
D15*
X103530000Y-69875200D03*
X93370000Y-69875200D03*
D13*
X94640000Y-67335200D03*
D14*
X98450000Y-69875200D03*
D13*
X100990000Y-64795200D03*
X281966080Y-102895360D03*
D14*
X279426080Y-107975360D03*
D13*
X275616080Y-105435360D03*
D15*
X274346080Y-107975360D03*
X284506080Y-107975360D03*
D13*
X100990000Y-45745120D03*
D14*
X98450000Y-50825120D03*
D13*
X94640000Y-48285120D03*
D15*
X93370000Y-50825120D03*
X103530000Y-50825120D03*
X26695000Y-31775040D03*
X36855000Y-31775040D03*
D13*
X35585000Y-34315040D03*
D14*
X31775000Y-31775040D03*
D13*
X29235000Y-36855040D03*
X120040000Y-64795200D03*
D14*
X117500000Y-69875200D03*
D13*
X113690000Y-67335200D03*
D15*
X112420000Y-69875200D03*
X122580000Y-69875200D03*
X141630000Y-69875200D03*
X131470000Y-69875200D03*
D13*
X132740000Y-67335200D03*
D14*
X136550000Y-69875200D03*
D13*
X139090000Y-64795200D03*
D15*
X150520560Y-69875240D03*
X160680560Y-69875240D03*
D13*
X159410560Y-72415240D03*
D14*
X155600560Y-69875240D03*
D13*
X153060560Y-74955240D03*
D15*
X236880720Y-50825160D03*
X226720720Y-50825160D03*
D13*
X227990720Y-48285160D03*
D14*
X231800720Y-50825160D03*
D13*
X234340720Y-45745160D03*
D15*
X217830640Y-69875200D03*
X207670640Y-69875200D03*
D13*
X208940640Y-67335200D03*
D14*
X212750640Y-69875200D03*
D13*
X215290640Y-64795200D03*
D15*
X236880720Y-69875240D03*
X226720720Y-69875240D03*
D13*
X227990720Y-67335240D03*
D14*
X231800720Y-69875240D03*
D13*
X234340720Y-64795240D03*
D15*
X245770800Y-69875240D03*
X255930800Y-69875240D03*
D13*
X254660800Y-72415240D03*
D14*
X250850800Y-69875240D03*
D13*
X248310800Y-74955240D03*
D15*
X26695040Y-88925400D03*
X36855040Y-88925400D03*
D13*
X35585040Y-91465400D03*
D14*
X31775040Y-88925400D03*
D13*
X29235040Y-94005400D03*
X48285040Y-94005400D03*
D14*
X50825040Y-88925400D03*
D13*
X54635040Y-91465400D03*
D15*
X55905040Y-88925400D03*
X45745040Y-88925400D03*
X227355680Y-88925280D03*
X217195680Y-88925280D03*
D13*
X218465680Y-86385280D03*
D14*
X222275680Y-88925280D03*
D13*
X224815680Y-83845280D03*
D15*
X208305600Y-88925280D03*
X198145600Y-88925280D03*
D13*
X199415600Y-86385280D03*
D14*
X203225600Y-88925280D03*
D13*
X205765600Y-83845280D03*
D15*
X245770800Y-50825160D03*
X255930800Y-50825160D03*
D13*
X254660800Y-53365160D03*
D14*
X250850800Y-50825160D03*
D13*
X248310800Y-55905160D03*
D15*
X274980880Y-50825160D03*
X264820880Y-50825160D03*
D13*
X266090880Y-48285160D03*
D14*
X269900880Y-50825160D03*
D13*
X272440880Y-45745160D03*
X62890000Y-45745120D03*
D14*
X60350000Y-50825120D03*
D13*
X56540000Y-48285120D03*
D15*
X55270000Y-50825120D03*
X65430000Y-50825120D03*
D13*
X120040000Y-45745120D03*
D14*
X117500000Y-50825120D03*
D13*
X113690000Y-48285120D03*
D15*
X112420000Y-50825120D03*
X122580000Y-50825120D03*
D13*
X301016160Y-102895400D03*
D14*
X298476160Y-107975400D03*
D13*
X294666160Y-105435400D03*
D15*
X293396160Y-107975400D03*
X303556160Y-107975400D03*
D13*
X81940000Y-64795200D03*
D14*
X79400000Y-69875200D03*
D13*
X75590000Y-67335200D03*
D15*
X74320000Y-69875200D03*
X84480000Y-69875200D03*
D13*
X139090000Y-45745120D03*
D14*
X136550000Y-50825120D03*
D13*
X132740000Y-48285120D03*
D15*
X131470000Y-50825120D03*
X141630000Y-50825120D03*
X217830640Y-50825160D03*
X207670640Y-50825160D03*
D13*
X208940640Y-48285160D03*
D14*
X212750640Y-50825160D03*
D13*
X215290640Y-45745160D03*
X281966080Y-83845320D03*
D14*
X279426080Y-88925320D03*
D13*
X275616080Y-86385320D03*
D15*
X274346080Y-88925320D03*
X284506080Y-88925320D03*
X132105000Y-88925280D03*
X121945000Y-88925280D03*
D13*
X123215000Y-86385280D03*
D14*
X127025000Y-88925280D03*
D13*
X129565000Y-83845280D03*
X81940000Y-45745120D03*
D14*
X79400000Y-50825120D03*
D13*
X75590000Y-48285120D03*
D15*
X74320000Y-50825120D03*
X84480000Y-50825120D03*
X64795040Y-107975400D03*
X74955040Y-107975400D03*
D13*
X73685040Y-110515400D03*
D14*
X69875040Y-107975400D03*
D13*
X67335040Y-113055400D03*
D15*
X160680560Y-50825120D03*
X150520560Y-50825120D03*
D13*
X151790560Y-48285120D03*
D14*
X155600560Y-50825120D03*
D13*
X158140560Y-45745120D03*
D15*
X298793480Y-50825160D03*
X288633480Y-50825160D03*
D13*
X289903480Y-48285160D03*
D14*
X293713480Y-50825160D03*
D13*
X296253480Y-45745160D03*
X34315040Y-102895400D03*
D14*
X31775040Y-107975400D03*
D13*
X27965040Y-105435400D03*
D15*
X26695040Y-107975400D03*
X36855040Y-107975400D03*
D13*
X98609060Y-102895400D03*
D14*
X96069060Y-107975400D03*
D13*
X92259060Y-105435400D03*
D15*
X90989060Y-107975400D03*
X101149060Y-107975400D03*
D13*
X296253480Y-64795240D03*
D14*
X293713480Y-69875240D03*
D13*
X289903480Y-67335240D03*
D15*
X288633480Y-69875240D03*
X298793480Y-69875240D03*
D13*
X74796290Y-102895400D03*
D14*
X72256290Y-107975400D03*
D13*
X68446290Y-105435400D03*
D15*
X67176290Y-107975400D03*
X77336290Y-107975400D03*
X201161290Y-107975400D03*
X191001290Y-107975400D03*
D13*
X192271290Y-105435400D03*
D14*
X196081290Y-107975400D03*
D13*
X198621290Y-102895400D03*
X46221340Y-83845320D03*
D14*
X43681340Y-88925320D03*
D13*
X39871340Y-86385320D03*
D15*
X38601340Y-88925320D03*
X48761340Y-88925320D03*
D13*
X38760080Y-94005320D03*
D14*
X41300080Y-88925320D03*
D13*
X45110080Y-91465320D03*
D15*
X46380080Y-88925320D03*
X36220080Y-88925320D03*
D19*
X29362080Y-81940320D03*
X53238080Y-81940320D03*
D14*
X29362080Y-97180320D03*
X53238080Y-97180320D03*
D13*
X129565440Y-102895400D03*
D14*
X127025440Y-107975400D03*
D13*
X123215440Y-105435400D03*
D15*
X121945440Y-107975400D03*
X132105440Y-107975400D03*
D19*
X138963440Y-114960400D03*
X115087440Y-114960400D03*
D14*
X138963440Y-99720400D03*
X115087440Y-99720400D03*
D15*
X239261290Y-107975400D03*
X229101290Y-107975400D03*
D13*
X230371290Y-105435400D03*
D14*
X234181290Y-107975400D03*
D13*
X236721290Y-102895400D03*
X205765040Y-102895400D03*
D14*
X203225040Y-107975400D03*
D13*
X199415040Y-105435400D03*
D15*
X198145040Y-107975400D03*
X208305040Y-107975400D03*
D19*
X215163040Y-114960400D03*
X191287040Y-114960400D03*
D14*
X215163040Y-99720400D03*
X191287040Y-99720400D03*
D15*
X41617500Y-50825120D03*
X31457500Y-50825120D03*
D13*
X32727500Y-48285120D03*
D14*
X36537500Y-50825120D03*
D13*
X39077500Y-45745120D03*
X122104180Y-113055400D03*
D14*
X124644180Y-107975400D03*
D13*
X128454180Y-110515400D03*
D15*
X129724180Y-107975400D03*
X119564180Y-107975400D03*
D19*
X112706180Y-114960400D03*
X136582180Y-114960400D03*
D14*
X112706180Y-99720400D03*
X136582180Y-99720400D03*
G36*
G01*
X232700000Y-74150000D02*
X234400000Y-74150000D01*
G75*
G02*
X234600000Y-74350000I0J-200000D01*
G01*
X234600000Y-76050000D01*
G75*
G02*
X234400000Y-76250000I-200000J0D01*
G01*
X232700000Y-76250000D01*
G75*
G02*
X232500000Y-76050000I0J200000D01*
G01*
X232500000Y-74350000D01*
G75*
G02*
X232700000Y-74150000I200000J0D01*
G01*
G37*
D20*
X236090000Y-75200000D03*
X238630000Y-75200000D03*
G36*
G01*
X28400000Y-62900040D02*
X28400000Y-63750040D01*
G75*
G02*
X28200000Y-63950040I-200000J0D01*
G01*
X26600000Y-63950040D01*
G75*
G02*
X26400000Y-63750040I0J200000D01*
G01*
X26400000Y-62900040D01*
G75*
G02*
X26600000Y-62700040I200000J0D01*
G01*
X28200000Y-62700040D01*
G75*
G02*
X28400000Y-62900040I0J-200000D01*
G01*
G37*
G36*
G01*
X28400000Y-61150040D02*
X28400000Y-62000040D01*
G75*
G02*
X28200000Y-62200040I-200000J0D01*
G01*
X26600000Y-62200040D01*
G75*
G02*
X26400000Y-62000040I0J200000D01*
G01*
X26400000Y-61150040D01*
G75*
G02*
X26600000Y-60950040I200000J0D01*
G01*
X28200000Y-60950040D01*
G75*
G02*
X28400000Y-61150040I0J-200000D01*
G01*
G37*
G36*
G01*
X24900000Y-62900040D02*
X24900000Y-63750040D01*
G75*
G02*
X24700000Y-63950040I-200000J0D01*
G01*
X23100000Y-63950040D01*
G75*
G02*
X22900000Y-63750040I0J200000D01*
G01*
X22900000Y-62900040D01*
G75*
G02*
X23100000Y-62700040I200000J0D01*
G01*
X24700000Y-62700040D01*
G75*
G02*
X24900000Y-62900040I0J-200000D01*
G01*
G37*
G36*
G01*
X24900000Y-61150040D02*
X24900000Y-62000040D01*
G75*
G02*
X24700000Y-62200040I-200000J0D01*
G01*
X23100000Y-62200040D01*
G75*
G02*
X22900000Y-62000040I0J200000D01*
G01*
X22900000Y-61150040D01*
G75*
G02*
X23100000Y-60950040I200000J0D01*
G01*
X24700000Y-60950040D01*
G75*
G02*
X24900000Y-61150040I0J-200000D01*
G01*
G37*
G36*
G01*
X24900000Y-65350040D02*
X24900000Y-66200040D01*
G75*
G02*
X24700000Y-66400040I-200000J0D01*
G01*
X23100000Y-66400040D01*
G75*
G02*
X22900000Y-66200040I0J200000D01*
G01*
X22900000Y-65350040D01*
G75*
G02*
X23100000Y-65150040I200000J0D01*
G01*
X24700000Y-65150040D01*
G75*
G02*
X24900000Y-65350040I0J-200000D01*
G01*
G37*
G36*
G01*
X24900000Y-67100040D02*
X24900000Y-67950040D01*
G75*
G02*
X24700000Y-68150040I-200000J0D01*
G01*
X23100000Y-68150040D01*
G75*
G02*
X22900000Y-67950040I0J200000D01*
G01*
X22900000Y-67100040D01*
G75*
G02*
X23100000Y-66900040I200000J0D01*
G01*
X24700000Y-66900040D01*
G75*
G02*
X24900000Y-67100040I0J-200000D01*
G01*
G37*
G36*
G01*
X28400000Y-65350040D02*
X28400000Y-66200040D01*
G75*
G02*
X28200000Y-66400040I-200000J0D01*
G01*
X26600000Y-66400040D01*
G75*
G02*
X26400000Y-66200040I0J200000D01*
G01*
X26400000Y-65350040D01*
G75*
G02*
X26600000Y-65150040I200000J0D01*
G01*
X28200000Y-65150040D01*
G75*
G02*
X28400000Y-65350040I0J-200000D01*
G01*
G37*
G36*
G01*
X28400000Y-67100040D02*
X28400000Y-67950040D01*
G75*
G02*
X28200000Y-68150040I-200000J0D01*
G01*
X26600000Y-68150040D01*
G75*
G02*
X26400000Y-67950040I0J200000D01*
G01*
X26400000Y-67100040D01*
G75*
G02*
X26600000Y-66900040I200000J0D01*
G01*
X28200000Y-66900040D01*
G75*
G02*
X28400000Y-67100040I0J-200000D01*
G01*
G37*
G36*
G01*
X307200000Y-62900040D02*
X307200000Y-63750040D01*
G75*
G02*
X307000000Y-63950040I-200000J0D01*
G01*
X305400000Y-63950040D01*
G75*
G02*
X305200000Y-63750040I0J200000D01*
G01*
X305200000Y-62900040D01*
G75*
G02*
X305400000Y-62700040I200000J0D01*
G01*
X307000000Y-62700040D01*
G75*
G02*
X307200000Y-62900040I0J-200000D01*
G01*
G37*
G36*
G01*
X307200000Y-61150040D02*
X307200000Y-62000040D01*
G75*
G02*
X307000000Y-62200040I-200000J0D01*
G01*
X305400000Y-62200040D01*
G75*
G02*
X305200000Y-62000040I0J200000D01*
G01*
X305200000Y-61150040D01*
G75*
G02*
X305400000Y-60950040I200000J0D01*
G01*
X307000000Y-60950040D01*
G75*
G02*
X307200000Y-61150040I0J-200000D01*
G01*
G37*
G36*
G01*
X303700000Y-62900040D02*
X303700000Y-63750040D01*
G75*
G02*
X303500000Y-63950040I-200000J0D01*
G01*
X301900000Y-63950040D01*
G75*
G02*
X301700000Y-63750040I0J200000D01*
G01*
X301700000Y-62900040D01*
G75*
G02*
X301900000Y-62700040I200000J0D01*
G01*
X303500000Y-62700040D01*
G75*
G02*
X303700000Y-62900040I0J-200000D01*
G01*
G37*
G36*
G01*
X303700000Y-61150040D02*
X303700000Y-62000040D01*
G75*
G02*
X303500000Y-62200040I-200000J0D01*
G01*
X301900000Y-62200040D01*
G75*
G02*
X301700000Y-62000040I0J200000D01*
G01*
X301700000Y-61150040D01*
G75*
G02*
X301900000Y-60950040I200000J0D01*
G01*
X303500000Y-60950040D01*
G75*
G02*
X303700000Y-61150040I0J-200000D01*
G01*
G37*
G36*
G01*
X303700000Y-65350040D02*
X303700000Y-66200040D01*
G75*
G02*
X303500000Y-66400040I-200000J0D01*
G01*
X301900000Y-66400040D01*
G75*
G02*
X301700000Y-66200040I0J200000D01*
G01*
X301700000Y-65350040D01*
G75*
G02*
X301900000Y-65150040I200000J0D01*
G01*
X303500000Y-65150040D01*
G75*
G02*
X303700000Y-65350040I0J-200000D01*
G01*
G37*
G36*
G01*
X303700000Y-67100040D02*
X303700000Y-67950040D01*
G75*
G02*
X303500000Y-68150040I-200000J0D01*
G01*
X301900000Y-68150040D01*
G75*
G02*
X301700000Y-67950040I0J200000D01*
G01*
X301700000Y-67100040D01*
G75*
G02*
X301900000Y-66900040I200000J0D01*
G01*
X303500000Y-66900040D01*
G75*
G02*
X303700000Y-67100040I0J-200000D01*
G01*
G37*
G36*
G01*
X307200000Y-65350040D02*
X307200000Y-66200040D01*
G75*
G02*
X307000000Y-66400040I-200000J0D01*
G01*
X305400000Y-66400040D01*
G75*
G02*
X305200000Y-66200040I0J200000D01*
G01*
X305200000Y-65350040D01*
G75*
G02*
X305400000Y-65150040I200000J0D01*
G01*
X307000000Y-65150040D01*
G75*
G02*
X307200000Y-65350040I0J-200000D01*
G01*
G37*
G36*
G01*
X307200000Y-67100040D02*
X307200000Y-67950040D01*
G75*
G02*
X307000000Y-68150040I-200000J0D01*
G01*
X305400000Y-68150040D01*
G75*
G02*
X305200000Y-67950040I0J200000D01*
G01*
X305200000Y-67100040D01*
G75*
G02*
X305400000Y-66900040I200000J0D01*
G01*
X307000000Y-66900040D01*
G75*
G02*
X307200000Y-67100040I0J-200000D01*
G01*
G37*
D13*
X274345040Y-67335400D03*
D14*
X279425040Y-69875400D03*
D13*
X276885040Y-73685400D03*
D15*
X279425040Y-74955400D03*
X279425040Y-64795400D03*
X274980040Y-69875400D03*
X264820040Y-69875400D03*
D13*
X266090040Y-67335400D03*
D14*
X269900040Y-69875400D03*
D13*
X272440040Y-64795400D03*
D15*
X279425040Y-45745400D03*
X279425040Y-55905400D03*
D13*
X276885040Y-54635400D03*
D14*
X279425040Y-50825400D03*
D13*
X274345040Y-48285400D03*
D15*
X293395040Y-50825400D03*
X303555040Y-50825400D03*
D13*
X302285040Y-53365400D03*
D14*
X298475040Y-50825400D03*
D13*
X295935040Y-55905400D03*
D15*
X189255040Y-88925400D03*
X179095040Y-88925400D03*
D13*
X180365040Y-86385400D03*
D14*
X184175040Y-88925400D03*
D13*
X186715040Y-83845400D03*
X288791290Y-55905400D03*
D14*
X291331290Y-50825400D03*
D13*
X295141290Y-53365400D03*
D15*
X296411290Y-50825400D03*
X286251290Y-50825400D03*
X170205040Y-88925400D03*
X160045040Y-88925400D03*
D13*
X161315040Y-86385400D03*
D14*
X165125040Y-88925400D03*
D13*
X167665040Y-83845400D03*
X158140040Y-102895400D03*
D14*
X155600040Y-107975400D03*
D13*
X151790040Y-105435400D03*
D15*
X150520040Y-107975400D03*
X160680040Y-107975400D03*
D13*
X177190040Y-102895400D03*
D14*
X174650040Y-107975400D03*
D13*
X170840040Y-105435400D03*
D15*
X169570040Y-107975400D03*
X179730040Y-107975400D03*
D13*
X41458820Y-64795240D03*
D14*
X38918820Y-69875240D03*
D13*
X35108820Y-67335240D03*
D15*
X33838820Y-69875240D03*
X43998820Y-69875240D03*
D13*
X33997540Y-74955400D03*
D14*
X36537540Y-69875400D03*
D13*
X40347540Y-72415400D03*
D15*
X41617540Y-69875400D03*
X31457540Y-69875400D03*
X286251290Y-69875400D03*
X296411290Y-69875400D03*
D13*
X295141290Y-72415400D03*
D14*
X291331290Y-69875400D03*
D13*
X288791290Y-74955400D03*
D15*
X55905040Y-107975400D03*
X45745040Y-107975400D03*
D13*
X47015040Y-105435400D03*
D14*
X50825040Y-107975400D03*
D13*
X53365040Y-102895400D03*
D15*
X88607540Y-107975400D03*
X98767540Y-107975400D03*
D13*
X97497540Y-110515400D03*
D14*
X93687540Y-107975400D03*
D13*
X91147540Y-113055400D03*
X257835040Y-113055400D03*
D14*
X260375040Y-107975400D03*
D13*
X264185040Y-110515400D03*
D15*
X265455040Y-107975400D03*
X255295040Y-107975400D03*
D13*
X295935040Y-74955400D03*
D14*
X298475040Y-69875400D03*
D13*
X302285040Y-72415400D03*
D15*
X303555040Y-69875400D03*
X293395040Y-69875400D03*
D13*
X234022540Y-113055400D03*
D14*
X236562540Y-107975400D03*
D13*
X240372540Y-110515400D03*
D15*
X241642540Y-107975400D03*
X231482540Y-107975400D03*
D13*
X196240040Y-45745400D03*
D14*
X193700040Y-50825400D03*
D13*
X189890040Y-48285400D03*
D15*
X188620040Y-50825400D03*
X198780040Y-50825400D03*
D13*
X196240040Y-64795400D03*
D14*
X193700040Y-69875400D03*
D13*
X189890040Y-67335400D03*
D15*
X188620040Y-69875400D03*
X198780040Y-69875400D03*
D13*
X243865040Y-102895400D03*
D14*
X241325040Y-107975400D03*
D13*
X237515040Y-105435400D03*
D15*
X236245040Y-107975400D03*
X246405040Y-107975400D03*
D13*
X260533790Y-102895400D03*
D14*
X257993790Y-107975400D03*
D13*
X254183790Y-105435400D03*
D15*
X252913790Y-107975400D03*
X263073790Y-107975400D03*
G36*
G01*
X93200040Y-77600400D02*
X93200040Y-75900400D01*
G75*
G02*
X93400040Y-75700400I200000J0D01*
G01*
X95100040Y-75700400D01*
G75*
G02*
X95300040Y-75900400I0J-200000D01*
G01*
X95300040Y-77600400D01*
G75*
G02*
X95100040Y-77800400I-200000J0D01*
G01*
X93400040Y-77800400D01*
G75*
G02*
X93200040Y-77600400I0J200000D01*
G01*
G37*
D20*
X94250040Y-74210400D03*
G36*
G01*
X101250000Y-73150000D02*
X102950000Y-73150000D01*
G75*
G02*
X103150000Y-73350000I0J-200000D01*
G01*
X103150000Y-75050000D01*
G75*
G02*
X102950000Y-75250000I-200000J0D01*
G01*
X101250000Y-75250000D01*
G75*
G02*
X101050000Y-75050000I0J200000D01*
G01*
X101050000Y-73350000D01*
G75*
G02*
X101250000Y-73150000I200000J0D01*
G01*
G37*
X102100000Y-76740000D03*
X104640000Y-74200000D03*
X104640000Y-76740000D03*
X107180000Y-74200000D03*
X107180000Y-76740000D03*
D21*
X147450000Y-114960520D03*
X251750000Y-114960520D03*
X183750000Y-115000520D03*
X204150000Y-115000520D03*
X83350000Y-115000520D03*
X169900000Y-114960520D03*
X159050000Y-114960520D03*
X249150000Y-114960520D03*
X80350000Y-115000520D03*
X77350000Y-115000520D03*
X143850000Y-98460520D03*
X143850000Y-100960520D03*
X143850000Y-103450520D03*
X143850000Y-105950520D03*
X143850000Y-108450520D03*
X106850000Y-98450520D03*
X106850000Y-100960520D03*
X106850000Y-103450520D03*
X106850000Y-105950520D03*
X106850000Y-108460520D03*
D13*
X167665040Y-102895400D03*
D14*
X165125040Y-107975400D03*
D13*
X161315040Y-105435400D03*
D15*
X160045040Y-107975400D03*
X170205040Y-107975400D03*
D19*
X177063040Y-114960400D03*
X153187040Y-114960400D03*
D14*
X177063040Y-99720400D03*
X153187040Y-99720400D03*
D22*
X117500000Y-26800000D03*
X212750000Y-26800000D03*
X106450000Y-112400000D03*
X208000000Y-112400000D03*
D13*
X276726250Y-67335040D03*
D14*
X281806250Y-69875040D03*
D13*
X279266250Y-73685040D03*
D15*
X281806250Y-74955040D03*
X281806250Y-64795040D03*
D19*
X293744250Y-62890040D03*
X269868250Y-62890040D03*
D14*
X293744250Y-78130040D03*
X269868250Y-78130040D03*
D17*
X64850000Y-91050000D03*
X60000000Y-86575000D03*
X72800000Y-84050040D03*
X57950000Y-76850040D03*
X57950000Y-80450040D03*
X55950000Y-80450040D03*
X63200000Y-86600000D03*
X66300000Y-97075000D03*
D13*
X291490000Y-26695040D03*
D14*
X288950000Y-31775040D03*
D13*
X285140000Y-29235040D03*
D15*
X283870000Y-31775040D03*
X294030000Y-31775040D03*
D19*
X300888000Y-24790040D03*
X277012000Y-24790040D03*
D14*
X300888000Y-40030040D03*
X277012000Y-40030040D03*
D23*
X298493580Y-112465550D03*
X298493580Y-103465550D03*
D24*
X298493580Y-107965550D03*
G36*
G01*
X299993580Y-99265550D02*
X301993580Y-99265550D01*
G75*
G02*
X302193580Y-99465550I0J-200000D01*
G01*
X302193580Y-101465550D01*
G75*
G02*
X301993580Y-101665550I-200000J0D01*
G01*
X299993580Y-101665550D01*
G75*
G02*
X299793580Y-101465550I0J200000D01*
G01*
X299793580Y-99465550D01*
G75*
G02*
X299993580Y-99265550I200000J0D01*
G01*
G37*
D25*
X298493580Y-100465550D03*
X295993580Y-100465550D03*
G36*
G01*
X303093580Y-106165550D02*
X305093580Y-106165550D01*
G75*
G02*
X305293580Y-106365550I0J-200000D01*
G01*
X305293580Y-109565550D01*
G75*
G02*
X305093580Y-109765550I-200000J0D01*
G01*
X303093580Y-109765550D01*
G75*
G02*
X302893580Y-109565550I0J200000D01*
G01*
X302893580Y-106365550D01*
G75*
G02*
X303093580Y-106165550I200000J0D01*
G01*
G37*
G36*
G01*
X291893580Y-106165550D02*
X293893580Y-106165550D01*
G75*
G02*
X294093580Y-106365550I0J-200000D01*
G01*
X294093580Y-109565550D01*
G75*
G02*
X293893580Y-109765550I-200000J0D01*
G01*
X291893580Y-109765550D01*
G75*
G02*
X291693580Y-109565550I0J200000D01*
G01*
X291693580Y-106365550D01*
G75*
G02*
X291893580Y-106165550I200000J0D01*
G01*
G37*
X300993580Y-114965550D03*
X295993580Y-114965550D03*
X29271347Y-114952828D03*
X34271347Y-114952828D03*
G36*
G01*
X25171347Y-106152828D02*
X27171347Y-106152828D01*
G75*
G02*
X27371347Y-106352828I0J-200000D01*
G01*
X27371347Y-109552828D01*
G75*
G02*
X27171347Y-109752828I-200000J0D01*
G01*
X25171347Y-109752828D01*
G75*
G02*
X24971347Y-109552828I0J200000D01*
G01*
X24971347Y-106352828D01*
G75*
G02*
X25171347Y-106152828I200000J0D01*
G01*
G37*
G36*
G01*
X36371347Y-106152828D02*
X38371347Y-106152828D01*
G75*
G02*
X38571347Y-106352828I0J-200000D01*
G01*
X38571347Y-109552828D01*
G75*
G02*
X38371347Y-109752828I-200000J0D01*
G01*
X36371347Y-109752828D01*
G75*
G02*
X36171347Y-109552828I0J200000D01*
G01*
X36171347Y-106352828D01*
G75*
G02*
X36371347Y-106152828I200000J0D01*
G01*
G37*
X29271347Y-100452828D03*
X31771347Y-100452828D03*
G36*
G01*
X33271347Y-99252828D02*
X35271347Y-99252828D01*
G75*
G02*
X35471347Y-99452828I0J-200000D01*
G01*
X35471347Y-101452828D01*
G75*
G02*
X35271347Y-101652828I-200000J0D01*
G01*
X33271347Y-101652828D01*
G75*
G02*
X33071347Y-101452828I0J200000D01*
G01*
X33071347Y-99452828D01*
G75*
G02*
X33271347Y-99252828I200000J0D01*
G01*
G37*
D24*
X31771347Y-107952828D03*
D23*
X31771347Y-103452828D03*
X31771347Y-112452828D03*
D22*
X246350000Y-112400000D03*
D26*
X37800000Y-28190000D03*
X38650000Y-28190000D03*
X39500000Y-28190000D03*
X40350000Y-28190000D03*
X41200000Y-28190000D03*
X42050000Y-28190000D03*
X42900000Y-28190000D03*
X43750000Y-28190000D03*
X38650000Y-26840000D03*
X40350000Y-26840000D03*
X39500000Y-26840000D03*
X37800000Y-26840000D03*
X42050000Y-26840000D03*
X42900000Y-26840000D03*
X43750000Y-26840000D03*
X41200000Y-26840000D03*
D27*
X36450000Y-27210000D03*
X45100000Y-27210000D03*
D28*
X36450000Y-23830000D03*
X45100000Y-23830000D03*
D15*
X253231250Y-45745520D03*
X253231250Y-55905520D03*
D13*
X250691250Y-54635520D03*
D14*
X253231250Y-50825520D03*
D13*
X248151250Y-48285520D03*
X260692540Y-53365400D03*
D14*
X255612540Y-50825400D03*
D13*
X258152540Y-47015400D03*
D15*
X255612540Y-45745400D03*
X255612540Y-55905400D03*
D13*
X248151250Y-67335520D03*
D14*
X253231250Y-69875520D03*
D13*
X250691250Y-73685520D03*
D15*
X253231250Y-74955520D03*
X253231250Y-64795520D03*
X255612540Y-74955400D03*
X255612540Y-64795400D03*
D13*
X258152540Y-66065400D03*
D14*
X255612540Y-69875400D03*
D13*
X260692540Y-72415400D03*
M02*
