G04 #@! TF.GenerationSoftware,KiCad,Pcbnew,(5.1.6-0-10_14)*
G04 #@! TF.CreationDate,2020-06-28T15:00:23+09:00*
G04 #@! TF.ProjectId,Jones,4a6f6e65-732e-46b6-9963-61645f706362,rev?*
G04 #@! TF.SameCoordinates,Original*
G04 #@! TF.FileFunction,Other,Fab,Top*
%FSLAX46Y46*%
G04 Gerber Fmt 4.6, Leading zero omitted, Abs format (unit mm)*
G04 Created by KiCad (PCBNEW (5.1.6-0-10_14)) date 2020-06-28 15:00:23*
%MOMM*%
%LPD*%
G01*
G04 APERTURE LIST*
%ADD10C,0.100000*%
%ADD11C,0.120000*%
%ADD12C,0.150000*%
G04 APERTURE END LIST*
D10*
X307118750Y-63750000D02*
G75*
G03*
X307118750Y-63750000I-1500000J0D01*
G01*
X303868750Y-62000000D02*
X303868750Y-65500000D01*
X307368750Y-62000000D02*
X303868750Y-62000000D01*
X307368750Y-65500000D02*
X307368750Y-62000000D01*
X303868750Y-65500000D02*
X307368750Y-65500000D01*
X306368750Y-62000000D02*
X307368750Y-63000000D01*
X306368750Y-70000000D02*
X307368750Y-71000000D01*
X303868750Y-73500000D02*
X307368750Y-73500000D01*
X307368750Y-73500000D02*
X307368750Y-70000000D01*
X307368750Y-70000000D02*
X303868750Y-70000000D01*
X303868750Y-70000000D02*
X303868750Y-73500000D01*
X307118750Y-71750000D02*
G75*
G03*
X307118750Y-71750000I-1500000J0D01*
G01*
D11*
X296212500Y-110619140D02*
X296212500Y-104619140D01*
X293212500Y-107619140D02*
X299212500Y-107619140D01*
X291512500Y-113619140D02*
X290412500Y-112619140D01*
X302012500Y-113619140D02*
X291512500Y-113619140D01*
X302012500Y-101619140D02*
X302012500Y-113619140D01*
X290412500Y-101619140D02*
X302012500Y-101619140D01*
X290412500Y-112619140D02*
X290412500Y-101619140D01*
X299212500Y-107619140D02*
G75*
G03*
X299212500Y-107619140I-3000000J0D01*
G01*
D10*
X229393750Y-98475360D02*
X229393750Y-117475360D01*
X210393750Y-98475360D02*
X229393750Y-98475360D01*
X210393750Y-117475360D02*
X210393750Y-98475360D01*
X229393750Y-117475360D02*
X210393750Y-117475360D01*
X212775000Y-117475360D02*
X212775000Y-98475360D01*
X231775000Y-117475360D02*
X212775000Y-117475360D01*
X231775000Y-98475360D02*
X231775000Y-117475360D01*
X212775000Y-98475360D02*
X231775000Y-98475360D01*
D12*
X309273511Y-68011904D02*
X309321130Y-67869047D01*
X309321130Y-67630952D01*
X309273511Y-67535714D01*
X309225892Y-67488095D01*
X309130654Y-67440476D01*
X309035416Y-67440476D01*
X308940178Y-67488095D01*
X308892559Y-67535714D01*
X308844940Y-67630952D01*
X308797321Y-67821428D01*
X308749702Y-67916666D01*
X308702083Y-67964285D01*
X308606845Y-68011904D01*
X308511607Y-68011904D01*
X308416369Y-67964285D01*
X308368750Y-67916666D01*
X308321130Y-67821428D01*
X308321130Y-67583333D01*
X308368750Y-67440476D01*
X309321130Y-67011904D02*
X308321130Y-67011904D01*
X309321130Y-66440476D02*
X308749702Y-66869047D01*
X308321130Y-66440476D02*
X308892559Y-67011904D01*
X308321130Y-65583333D02*
X308321130Y-65773809D01*
X308368750Y-65869047D01*
X308416369Y-65916666D01*
X308559226Y-66011904D01*
X308749702Y-66059523D01*
X309130654Y-66059523D01*
X309225892Y-66011904D01*
X309273511Y-65964285D01*
X309321130Y-65869047D01*
X309321130Y-65678571D01*
X309273511Y-65583333D01*
X309225892Y-65535714D01*
X309130654Y-65488095D01*
X308892559Y-65488095D01*
X308797321Y-65535714D01*
X308749702Y-65583333D01*
X308702083Y-65678571D01*
X308702083Y-65869047D01*
X308749702Y-65964285D01*
X308797321Y-66011904D01*
X308892559Y-66059523D01*
X308749702Y-64916666D02*
X308702083Y-65011904D01*
X308654464Y-65059523D01*
X308559226Y-65107142D01*
X308511607Y-65107142D01*
X308416369Y-65059523D01*
X308368750Y-65011904D01*
X308321130Y-64916666D01*
X308321130Y-64726190D01*
X308368750Y-64630952D01*
X308416369Y-64583333D01*
X308511607Y-64535714D01*
X308559226Y-64535714D01*
X308654464Y-64583333D01*
X308702083Y-64630952D01*
X308749702Y-64726190D01*
X308749702Y-64916666D01*
X308797321Y-65011904D01*
X308844940Y-65059523D01*
X308940178Y-65107142D01*
X309130654Y-65107142D01*
X309225892Y-65059523D01*
X309273511Y-65011904D01*
X309321130Y-64916666D01*
X309321130Y-64726190D01*
X309273511Y-64630952D01*
X309225892Y-64583333D01*
X309130654Y-64535714D01*
X308940178Y-64535714D01*
X308844940Y-64583333D01*
X308797321Y-64630952D01*
X308749702Y-64726190D01*
X309321130Y-63583333D02*
X309321130Y-64154761D01*
X309321130Y-63869047D02*
X308321130Y-63869047D01*
X308463988Y-63964285D01*
X308559226Y-64059523D01*
X308606845Y-64154761D01*
X308416369Y-63202380D02*
X308368750Y-63154761D01*
X308321130Y-63059523D01*
X308321130Y-62821428D01*
X308368750Y-62726190D01*
X308416369Y-62678571D01*
X308511607Y-62630952D01*
X308606845Y-62630952D01*
X308749702Y-62678571D01*
X309321130Y-63250000D01*
X309321130Y-62630952D01*
X309321130Y-62202380D02*
X308321130Y-62202380D01*
X309035416Y-61869047D01*
X308321130Y-61535714D01*
X309321130Y-61535714D01*
X309321130Y-61059523D02*
X308321130Y-61059523D01*
X309321130Y-60583333D02*
X308321130Y-60583333D01*
X309321130Y-60011904D01*
X308321130Y-60011904D01*
X309321130Y-59535714D02*
X308321130Y-59535714D01*
D10*
X305844940Y-64309523D02*
X305844940Y-64547619D01*
X305344940Y-64547619D01*
X305583035Y-64142857D02*
X305583035Y-63976190D01*
X305844940Y-63904761D02*
X305844940Y-64142857D01*
X305344940Y-64142857D01*
X305344940Y-63904761D01*
X305844940Y-63690476D02*
X305344940Y-63690476D01*
X305344940Y-63571428D01*
X305368750Y-63500000D01*
X305416369Y-63452380D01*
X305463988Y-63428571D01*
X305559226Y-63404761D01*
X305630654Y-63404761D01*
X305725892Y-63428571D01*
X305773511Y-63452380D01*
X305821130Y-63500000D01*
X305844940Y-63571428D01*
X305844940Y-63690476D01*
X305844940Y-62928571D02*
X305844940Y-63214285D01*
X305844940Y-63071428D02*
X305344940Y-63071428D01*
X305416369Y-63119047D01*
X305463988Y-63166666D01*
X305487797Y-63214285D01*
D12*
X309273511Y-76011904D02*
X309321130Y-75869047D01*
X309321130Y-75630952D01*
X309273511Y-75535714D01*
X309225892Y-75488095D01*
X309130654Y-75440476D01*
X309035416Y-75440476D01*
X308940178Y-75488095D01*
X308892559Y-75535714D01*
X308844940Y-75630952D01*
X308797321Y-75821428D01*
X308749702Y-75916666D01*
X308702083Y-75964285D01*
X308606845Y-76011904D01*
X308511607Y-76011904D01*
X308416369Y-75964285D01*
X308368750Y-75916666D01*
X308321130Y-75821428D01*
X308321130Y-75583333D01*
X308368750Y-75440476D01*
X309321130Y-75011904D02*
X308321130Y-75011904D01*
X309321130Y-74440476D02*
X308749702Y-74869047D01*
X308321130Y-74440476D02*
X308892559Y-75011904D01*
X308321130Y-73583333D02*
X308321130Y-73773809D01*
X308368750Y-73869047D01*
X308416369Y-73916666D01*
X308559226Y-74011904D01*
X308749702Y-74059523D01*
X309130654Y-74059523D01*
X309225892Y-74011904D01*
X309273511Y-73964285D01*
X309321130Y-73869047D01*
X309321130Y-73678571D01*
X309273511Y-73583333D01*
X309225892Y-73535714D01*
X309130654Y-73488095D01*
X308892559Y-73488095D01*
X308797321Y-73535714D01*
X308749702Y-73583333D01*
X308702083Y-73678571D01*
X308702083Y-73869047D01*
X308749702Y-73964285D01*
X308797321Y-74011904D01*
X308892559Y-74059523D01*
X308749702Y-72916666D02*
X308702083Y-73011904D01*
X308654464Y-73059523D01*
X308559226Y-73107142D01*
X308511607Y-73107142D01*
X308416369Y-73059523D01*
X308368750Y-73011904D01*
X308321130Y-72916666D01*
X308321130Y-72726190D01*
X308368750Y-72630952D01*
X308416369Y-72583333D01*
X308511607Y-72535714D01*
X308559226Y-72535714D01*
X308654464Y-72583333D01*
X308702083Y-72630952D01*
X308749702Y-72726190D01*
X308749702Y-72916666D01*
X308797321Y-73011904D01*
X308844940Y-73059523D01*
X308940178Y-73107142D01*
X309130654Y-73107142D01*
X309225892Y-73059523D01*
X309273511Y-73011904D01*
X309321130Y-72916666D01*
X309321130Y-72726190D01*
X309273511Y-72630952D01*
X309225892Y-72583333D01*
X309130654Y-72535714D01*
X308940178Y-72535714D01*
X308844940Y-72583333D01*
X308797321Y-72630952D01*
X308749702Y-72726190D01*
X309321130Y-71583333D02*
X309321130Y-72154761D01*
X309321130Y-71869047D02*
X308321130Y-71869047D01*
X308463988Y-71964285D01*
X308559226Y-72059523D01*
X308606845Y-72154761D01*
X308416369Y-71202380D02*
X308368750Y-71154761D01*
X308321130Y-71059523D01*
X308321130Y-70821428D01*
X308368750Y-70726190D01*
X308416369Y-70678571D01*
X308511607Y-70630952D01*
X308606845Y-70630952D01*
X308749702Y-70678571D01*
X309321130Y-71250000D01*
X309321130Y-70630952D01*
X309321130Y-70202380D02*
X308321130Y-70202380D01*
X309035416Y-69869047D01*
X308321130Y-69535714D01*
X309321130Y-69535714D01*
X309321130Y-69059523D02*
X308321130Y-69059523D01*
X309321130Y-68583333D02*
X308321130Y-68583333D01*
X309321130Y-68011904D01*
X308321130Y-68011904D01*
X309321130Y-67535714D02*
X308321130Y-67535714D01*
D10*
X305844940Y-72309523D02*
X305844940Y-72547619D01*
X305344940Y-72547619D01*
X305583035Y-72142857D02*
X305583035Y-71976190D01*
X305844940Y-71904761D02*
X305844940Y-72142857D01*
X305344940Y-72142857D01*
X305344940Y-71904761D01*
X305844940Y-71690476D02*
X305344940Y-71690476D01*
X305344940Y-71571428D01*
X305368750Y-71500000D01*
X305416369Y-71452380D01*
X305463988Y-71428571D01*
X305559226Y-71404761D01*
X305630654Y-71404761D01*
X305725892Y-71428571D01*
X305773511Y-71452380D01*
X305821130Y-71500000D01*
X305844940Y-71571428D01*
X305844940Y-71690476D01*
X305392559Y-71214285D02*
X305368750Y-71190476D01*
X305344940Y-71142857D01*
X305344940Y-71023809D01*
X305368750Y-70976190D01*
X305392559Y-70952380D01*
X305440178Y-70928571D01*
X305487797Y-70928571D01*
X305559226Y-70952380D01*
X305844940Y-71238095D01*
X305844940Y-70928571D01*
D12*
X304564880Y-115333425D02*
X304088690Y-115666759D01*
X304564880Y-115904854D02*
X303564880Y-115904854D01*
X303564880Y-115523901D01*
X303612500Y-115428663D01*
X303660119Y-115381044D01*
X303755357Y-115333425D01*
X303898214Y-115333425D01*
X303993452Y-115381044D01*
X304041071Y-115428663D01*
X304088690Y-115523901D01*
X304088690Y-115904854D01*
X304564880Y-114761997D02*
X304517261Y-114857235D01*
X304469642Y-114904854D01*
X304374404Y-114952473D01*
X304088690Y-114952473D01*
X303993452Y-114904854D01*
X303945833Y-114857235D01*
X303898214Y-114761997D01*
X303898214Y-114619140D01*
X303945833Y-114523901D01*
X303993452Y-114476282D01*
X304088690Y-114428663D01*
X304374404Y-114428663D01*
X304469642Y-114476282D01*
X304517261Y-114523901D01*
X304564880Y-114619140D01*
X304564880Y-114761997D01*
X303898214Y-114142949D02*
X303898214Y-113761997D01*
X303564880Y-114000092D02*
X304422023Y-114000092D01*
X304517261Y-113952473D01*
X304564880Y-113857235D01*
X304564880Y-113761997D01*
X304564880Y-113000092D02*
X304041071Y-113000092D01*
X303945833Y-113047711D01*
X303898214Y-113142949D01*
X303898214Y-113333425D01*
X303945833Y-113428663D01*
X304517261Y-113000092D02*
X304564880Y-113095330D01*
X304564880Y-113333425D01*
X304517261Y-113428663D01*
X304422023Y-113476282D01*
X304326785Y-113476282D01*
X304231547Y-113428663D01*
X304183928Y-113333425D01*
X304183928Y-113095330D01*
X304136309Y-113000092D01*
X304564880Y-112523901D02*
X303898214Y-112523901D01*
X304088690Y-112523901D02*
X303993452Y-112476282D01*
X303945833Y-112428663D01*
X303898214Y-112333425D01*
X303898214Y-112238187D01*
X303898214Y-112000092D02*
X304564880Y-111761997D01*
X303898214Y-111523901D02*
X304564880Y-111761997D01*
X304802976Y-111857235D01*
X304850595Y-111904854D01*
X304898214Y-112000092D01*
X304660119Y-111381044D02*
X304660119Y-110619140D01*
X304041071Y-110381044D02*
X304041071Y-110047711D01*
X304564880Y-109904854D02*
X304564880Y-110381044D01*
X303564880Y-110381044D01*
X303564880Y-109904854D01*
X303898214Y-109476282D02*
X304564880Y-109476282D01*
X303993452Y-109476282D02*
X303945833Y-109428663D01*
X303898214Y-109333425D01*
X303898214Y-109190568D01*
X303945833Y-109095330D01*
X304041071Y-109047711D01*
X304564880Y-109047711D01*
X304517261Y-108142949D02*
X304564880Y-108238187D01*
X304564880Y-108428663D01*
X304517261Y-108523901D01*
X304469642Y-108571520D01*
X304374404Y-108619140D01*
X304088690Y-108619140D01*
X303993452Y-108571520D01*
X303945833Y-108523901D01*
X303898214Y-108428663D01*
X303898214Y-108238187D01*
X303945833Y-108142949D01*
X304564880Y-107571520D02*
X304517261Y-107666759D01*
X304469642Y-107714378D01*
X304374404Y-107761997D01*
X304088690Y-107761997D01*
X303993452Y-107714378D01*
X303945833Y-107666759D01*
X303898214Y-107571520D01*
X303898214Y-107428663D01*
X303945833Y-107333425D01*
X303993452Y-107285806D01*
X304088690Y-107238187D01*
X304374404Y-107238187D01*
X304469642Y-107285806D01*
X304517261Y-107333425D01*
X304564880Y-107428663D01*
X304564880Y-107571520D01*
X304564880Y-106381044D02*
X303564880Y-106381044D01*
X304517261Y-106381044D02*
X304564880Y-106476282D01*
X304564880Y-106666759D01*
X304517261Y-106761997D01*
X304469642Y-106809616D01*
X304374404Y-106857235D01*
X304088690Y-106857235D01*
X303993452Y-106809616D01*
X303945833Y-106761997D01*
X303898214Y-106666759D01*
X303898214Y-106476282D01*
X303945833Y-106381044D01*
X304517261Y-105523901D02*
X304564880Y-105619140D01*
X304564880Y-105809616D01*
X304517261Y-105904854D01*
X304422023Y-105952473D01*
X304041071Y-105952473D01*
X303945833Y-105904854D01*
X303898214Y-105809616D01*
X303898214Y-105619140D01*
X303945833Y-105523901D01*
X304041071Y-105476282D01*
X304136309Y-105476282D01*
X304231547Y-105952473D01*
X304564880Y-105047711D02*
X303898214Y-105047711D01*
X304088690Y-105047711D02*
X303993452Y-105000092D01*
X303945833Y-104952473D01*
X303898214Y-104857235D01*
X303898214Y-104761997D01*
X304660119Y-104666759D02*
X304660119Y-103904854D01*
X304517261Y-103714378D02*
X304564880Y-103571520D01*
X304564880Y-103333425D01*
X304517261Y-103238187D01*
X304469642Y-103190568D01*
X304374404Y-103142949D01*
X304279166Y-103142949D01*
X304183928Y-103190568D01*
X304136309Y-103238187D01*
X304088690Y-103333425D01*
X304041071Y-103523901D01*
X303993452Y-103619140D01*
X303945833Y-103666759D01*
X303850595Y-103714378D01*
X303755357Y-103714378D01*
X303660119Y-103666759D01*
X303612500Y-103619140D01*
X303564880Y-103523901D01*
X303564880Y-103285806D01*
X303612500Y-103142949D01*
X303898214Y-102809616D02*
X304564880Y-102619140D01*
X304088690Y-102428663D01*
X304564880Y-102238187D01*
X303898214Y-102047711D01*
X304564880Y-101666759D02*
X303898214Y-101666759D01*
X303564880Y-101666759D02*
X303612500Y-101714378D01*
X303660119Y-101666759D01*
X303612500Y-101619140D01*
X303564880Y-101666759D01*
X303660119Y-101666759D01*
X303898214Y-101333425D02*
X303898214Y-100952473D01*
X303564880Y-101190568D02*
X304422023Y-101190568D01*
X304517261Y-101142949D01*
X304564880Y-101047711D01*
X304564880Y-100952473D01*
X304517261Y-100190568D02*
X304564880Y-100285806D01*
X304564880Y-100476282D01*
X304517261Y-100571520D01*
X304469642Y-100619140D01*
X304374404Y-100666759D01*
X304088690Y-100666759D01*
X303993452Y-100619140D01*
X303945833Y-100571520D01*
X303898214Y-100476282D01*
X303898214Y-100285806D01*
X303945833Y-100190568D01*
X304564880Y-99761997D02*
X303564880Y-99761997D01*
X304564880Y-99333425D02*
X304041071Y-99333425D01*
X303945833Y-99381044D01*
X303898214Y-99476282D01*
X303898214Y-99619140D01*
X303945833Y-99714378D01*
X303993452Y-99761997D01*
X300417261Y-105828663D02*
X300464880Y-105685806D01*
X300464880Y-105447711D01*
X300417261Y-105352473D01*
X300369642Y-105304854D01*
X300274404Y-105257235D01*
X300179166Y-105257235D01*
X300083928Y-105304854D01*
X300036309Y-105352473D01*
X299988690Y-105447711D01*
X299941071Y-105638187D01*
X299893452Y-105733425D01*
X299845833Y-105781044D01*
X299750595Y-105828663D01*
X299655357Y-105828663D01*
X299560119Y-105781044D01*
X299512500Y-105733425D01*
X299464880Y-105638187D01*
X299464880Y-105400092D01*
X299512500Y-105257235D01*
X299464880Y-104923901D02*
X300464880Y-104685806D01*
X299750595Y-104495330D01*
X300464880Y-104304854D01*
X299464880Y-104066759D01*
X300464880Y-103638187D02*
X300464880Y-103447711D01*
X300417261Y-103352473D01*
X300369642Y-103304854D01*
X300226785Y-103209616D01*
X300036309Y-103161997D01*
X299655357Y-103161997D01*
X299560119Y-103209616D01*
X299512500Y-103257235D01*
X299464880Y-103352473D01*
X299464880Y-103542949D01*
X299512500Y-103638187D01*
X299560119Y-103685806D01*
X299655357Y-103733425D01*
X299893452Y-103733425D01*
X299988690Y-103685806D01*
X300036309Y-103638187D01*
X300083928Y-103542949D01*
X300083928Y-103352473D01*
X300036309Y-103257235D01*
X299988690Y-103209616D01*
X299893452Y-103161997D01*
X299464880Y-102542949D02*
X299464880Y-102447711D01*
X299512500Y-102352473D01*
X299560119Y-102304854D01*
X299655357Y-102257235D01*
X299845833Y-102209616D01*
X300083928Y-102209616D01*
X300274404Y-102257235D01*
X300369642Y-102304854D01*
X300417261Y-102352473D01*
X300464880Y-102447711D01*
X300464880Y-102542949D01*
X300417261Y-102638187D01*
X300369642Y-102685806D01*
X300274404Y-102733425D01*
X300083928Y-102781044D01*
X299845833Y-102781044D01*
X299655357Y-102733425D01*
X299560119Y-102685806D01*
X299512500Y-102638187D01*
X299464880Y-102542949D01*
X272258035Y-111627740D02*
X272258035Y-110627740D01*
X272591369Y-111342026D01*
X272924702Y-110627740D01*
X272924702Y-111627740D01*
X273543750Y-111627740D02*
X273448511Y-111580121D01*
X273400892Y-111532502D01*
X273353273Y-111437264D01*
X273353273Y-111151550D01*
X273400892Y-111056312D01*
X273448511Y-111008693D01*
X273543750Y-110961074D01*
X273686607Y-110961074D01*
X273781845Y-111008693D01*
X273829464Y-111056312D01*
X273877083Y-111151550D01*
X273877083Y-111437264D01*
X273829464Y-111532502D01*
X273781845Y-111580121D01*
X273686607Y-111627740D01*
X273543750Y-111627740D01*
X274734226Y-110961074D02*
X274734226Y-111627740D01*
X274305654Y-110961074D02*
X274305654Y-111484883D01*
X274353273Y-111580121D01*
X274448511Y-111627740D01*
X274591369Y-111627740D01*
X274686607Y-111580121D01*
X274734226Y-111532502D01*
X275210416Y-110961074D02*
X275210416Y-111627740D01*
X275210416Y-111056312D02*
X275258035Y-111008693D01*
X275353273Y-110961074D01*
X275496130Y-110961074D01*
X275591369Y-111008693D01*
X275638988Y-111103931D01*
X275638988Y-111627740D01*
X275972321Y-110961074D02*
X276353273Y-110961074D01*
X276115178Y-110627740D02*
X276115178Y-111484883D01*
X276162797Y-111580121D01*
X276258035Y-111627740D01*
X276353273Y-111627740D01*
X276686607Y-111627740D02*
X276686607Y-110961074D01*
X276686607Y-110627740D02*
X276638988Y-110675360D01*
X276686607Y-110722979D01*
X276734226Y-110675360D01*
X276686607Y-110627740D01*
X276686607Y-110722979D01*
X277162797Y-110961074D02*
X277162797Y-111627740D01*
X277162797Y-111056312D02*
X277210416Y-111008693D01*
X277305654Y-110961074D01*
X277448511Y-110961074D01*
X277543750Y-111008693D01*
X277591369Y-111103931D01*
X277591369Y-111627740D01*
X278496130Y-110961074D02*
X278496130Y-111770598D01*
X278448511Y-111865836D01*
X278400892Y-111913455D01*
X278305654Y-111961074D01*
X278162797Y-111961074D01*
X278067559Y-111913455D01*
X278496130Y-111580121D02*
X278400892Y-111627740D01*
X278210416Y-111627740D01*
X278115178Y-111580121D01*
X278067559Y-111532502D01*
X278019940Y-111437264D01*
X278019940Y-111151550D01*
X278067559Y-111056312D01*
X278115178Y-111008693D01*
X278210416Y-110961074D01*
X278400892Y-110961074D01*
X278496130Y-111008693D01*
X278972321Y-111627740D02*
X278972321Y-110627740D01*
X278972321Y-111103931D02*
X279543750Y-111103931D01*
X279543750Y-111627740D02*
X279543750Y-110627740D01*
X280162797Y-111627740D02*
X280067559Y-111580121D01*
X280019940Y-111532502D01*
X279972321Y-111437264D01*
X279972321Y-111151550D01*
X280019940Y-111056312D01*
X280067559Y-111008693D01*
X280162797Y-110961074D01*
X280305654Y-110961074D01*
X280400892Y-111008693D01*
X280448511Y-111056312D01*
X280496130Y-111151550D01*
X280496130Y-111437264D01*
X280448511Y-111532502D01*
X280400892Y-111580121D01*
X280305654Y-111627740D01*
X280162797Y-111627740D01*
X281067559Y-111627740D02*
X280972321Y-111580121D01*
X280924702Y-111484883D01*
X280924702Y-110627740D01*
X281829464Y-111580121D02*
X281734226Y-111627740D01*
X281543750Y-111627740D01*
X281448511Y-111580121D01*
X281400892Y-111484883D01*
X281400892Y-111103931D01*
X281448511Y-111008693D01*
X281543750Y-110961074D01*
X281734226Y-110961074D01*
X281829464Y-111008693D01*
X281877083Y-111103931D01*
X281877083Y-111199169D01*
X281400892Y-111294407D01*
X276581845Y-108427740D02*
X276581845Y-107427740D01*
X276581845Y-107903931D02*
X277153273Y-107903931D01*
X277153273Y-108427740D02*
X277153273Y-107427740D01*
X278153273Y-108427740D02*
X277581845Y-108427740D01*
X277867559Y-108427740D02*
X277867559Y-107427740D01*
X277772321Y-107570598D01*
X277677083Y-107665836D01*
X277581845Y-107713455D01*
X293689285Y-111627740D02*
X293689285Y-110627740D01*
X294022619Y-111342026D01*
X294355952Y-110627740D01*
X294355952Y-111627740D01*
X294975000Y-111627740D02*
X294879761Y-111580121D01*
X294832142Y-111532502D01*
X294784523Y-111437264D01*
X294784523Y-111151550D01*
X294832142Y-111056312D01*
X294879761Y-111008693D01*
X294975000Y-110961074D01*
X295117857Y-110961074D01*
X295213095Y-111008693D01*
X295260714Y-111056312D01*
X295308333Y-111151550D01*
X295308333Y-111437264D01*
X295260714Y-111532502D01*
X295213095Y-111580121D01*
X295117857Y-111627740D01*
X294975000Y-111627740D01*
X296165476Y-110961074D02*
X296165476Y-111627740D01*
X295736904Y-110961074D02*
X295736904Y-111484883D01*
X295784523Y-111580121D01*
X295879761Y-111627740D01*
X296022619Y-111627740D01*
X296117857Y-111580121D01*
X296165476Y-111532502D01*
X296641666Y-110961074D02*
X296641666Y-111627740D01*
X296641666Y-111056312D02*
X296689285Y-111008693D01*
X296784523Y-110961074D01*
X296927380Y-110961074D01*
X297022619Y-111008693D01*
X297070238Y-111103931D01*
X297070238Y-111627740D01*
X297403571Y-110961074D02*
X297784523Y-110961074D01*
X297546428Y-110627740D02*
X297546428Y-111484883D01*
X297594047Y-111580121D01*
X297689285Y-111627740D01*
X297784523Y-111627740D01*
X298117857Y-111627740D02*
X298117857Y-110961074D01*
X298117857Y-110627740D02*
X298070238Y-110675360D01*
X298117857Y-110722979D01*
X298165476Y-110675360D01*
X298117857Y-110627740D01*
X298117857Y-110722979D01*
X298594047Y-110961074D02*
X298594047Y-111627740D01*
X298594047Y-111056312D02*
X298641666Y-111008693D01*
X298736904Y-110961074D01*
X298879761Y-110961074D01*
X298975000Y-111008693D01*
X299022619Y-111103931D01*
X299022619Y-111627740D01*
X299927380Y-110961074D02*
X299927380Y-111770598D01*
X299879761Y-111865836D01*
X299832142Y-111913455D01*
X299736904Y-111961074D01*
X299594047Y-111961074D01*
X299498809Y-111913455D01*
X299927380Y-111580121D02*
X299832142Y-111627740D01*
X299641666Y-111627740D01*
X299546428Y-111580121D01*
X299498809Y-111532502D01*
X299451190Y-111437264D01*
X299451190Y-111151550D01*
X299498809Y-111056312D01*
X299546428Y-111008693D01*
X299641666Y-110961074D01*
X299832142Y-110961074D01*
X299927380Y-111008693D01*
X300403571Y-111627740D02*
X300403571Y-110627740D01*
X300403571Y-111103931D02*
X300975000Y-111103931D01*
X300975000Y-111627740D02*
X300975000Y-110627740D01*
X301594047Y-111627740D02*
X301498809Y-111580121D01*
X301451190Y-111532502D01*
X301403571Y-111437264D01*
X301403571Y-111151550D01*
X301451190Y-111056312D01*
X301498809Y-111008693D01*
X301594047Y-110961074D01*
X301736904Y-110961074D01*
X301832142Y-111008693D01*
X301879761Y-111056312D01*
X301927380Y-111151550D01*
X301927380Y-111437264D01*
X301879761Y-111532502D01*
X301832142Y-111580121D01*
X301736904Y-111627740D01*
X301594047Y-111627740D01*
X302498809Y-111627740D02*
X302403571Y-111580121D01*
X302355952Y-111484883D01*
X302355952Y-110627740D01*
X303260714Y-111580121D02*
X303165476Y-111627740D01*
X302975000Y-111627740D01*
X302879761Y-111580121D01*
X302832142Y-111484883D01*
X302832142Y-111103931D01*
X302879761Y-111008693D01*
X302975000Y-110961074D01*
X303165476Y-110961074D01*
X303260714Y-111008693D01*
X303308333Y-111103931D01*
X303308333Y-111199169D01*
X302832142Y-111294407D01*
X298013095Y-108427740D02*
X298013095Y-107427740D01*
X298013095Y-107903931D02*
X298584523Y-107903931D01*
X298584523Y-108427740D02*
X298584523Y-107427740D01*
X299013095Y-107522979D02*
X299060714Y-107475360D01*
X299155952Y-107427740D01*
X299394047Y-107427740D01*
X299489285Y-107475360D01*
X299536904Y-107522979D01*
X299584523Y-107618217D01*
X299584523Y-107713455D01*
X299536904Y-107856312D01*
X298965476Y-108427740D01*
X299584523Y-108427740D01*
M02*
