G04 #@! TF.GenerationSoftware,KiCad,Pcbnew,(5.1.6-0-10_14)*
G04 #@! TF.CreationDate,2020-09-14T20:19:33+09:00*
G04 #@! TF.ProjectId,Jones,4a6f6e65-732e-46b6-9963-61645f706362,v.0.2*
G04 #@! TF.SameCoordinates,Original*
G04 #@! TF.FileFunction,Copper,L1,Top*
G04 #@! TF.FilePolarity,Positive*
%FSLAX46Y46*%
G04 Gerber Fmt 4.6, Leading zero omitted, Abs format (unit mm)*
G04 Created by KiCad (PCBNEW (5.1.6-0-10_14)) date 2020-09-14 20:19:33*
%MOMM*%
%LPD*%
G01*
G04 APERTURE LIST*
G04 #@! TA.AperFunction,EtchedComponent*
%ADD10C,1.500000*%
G04 #@! TD*
G04 #@! TA.AperFunction,ComponentPad*
%ADD11C,1.000000*%
G04 #@! TD*
G04 #@! TA.AperFunction,ComponentPad*
%ADD12C,5.000000*%
G04 #@! TD*
G04 #@! TA.AperFunction,ComponentPad*
%ADD13O,7.000240X5.000000*%
G04 #@! TD*
G04 #@! TA.AperFunction,ComponentPad*
%ADD14R,2.000000X2.000000*%
G04 #@! TD*
G04 #@! TA.AperFunction,ComponentPad*
%ADD15C,2.000000*%
G04 #@! TD*
G04 #@! TA.AperFunction,ComponentPad*
%ADD16R,2.000000X3.200000*%
G04 #@! TD*
G04 #@! TA.AperFunction,ComponentPad*
%ADD17C,1.397000*%
G04 #@! TD*
G04 #@! TA.AperFunction,SMDPad,CuDef*
%ADD18R,1.300000X3.400000*%
G04 #@! TD*
G04 #@! TA.AperFunction,ComponentPad*
%ADD19C,0.700000*%
G04 #@! TD*
G04 #@! TA.AperFunction,ComponentPad*
%ADD20O,0.900000X2.400000*%
G04 #@! TD*
G04 #@! TA.AperFunction,ComponentPad*
%ADD21O,0.900000X1.700000*%
G04 #@! TD*
G04 #@! TA.AperFunction,ComponentPad*
%ADD22C,2.250000*%
G04 #@! TD*
G04 #@! TA.AperFunction,ComponentPad*
%ADD23R,1.000000X1.000000*%
G04 #@! TD*
G04 #@! TA.AperFunction,ComponentPad*
%ADD24O,1.000000X1.000000*%
G04 #@! TD*
G04 #@! TA.AperFunction,Conductor*
%ADD25R,2.900000X0.500000*%
G04 #@! TD*
G04 #@! TA.AperFunction,SMDPad,CuDef*
%ADD26R,1.500000X1.200000*%
G04 #@! TD*
G04 #@! TA.AperFunction,ComponentPad*
%ADD27C,1.600000*%
G04 #@! TD*
G04 #@! TA.AperFunction,SMDPad,CuDef*
%ADD28R,1.600000X0.850000*%
G04 #@! TD*
G04 #@! TA.AperFunction,ViaPad*
%ADD29C,0.600000*%
G04 #@! TD*
G04 #@! TA.AperFunction,Conductor*
%ADD30C,0.254000*%
G04 #@! TD*
G04 #@! TA.AperFunction,Conductor*
%ADD31C,0.381000*%
G04 #@! TD*
G04 #@! TA.AperFunction,Conductor*
%ADD32C,0.200000*%
G04 #@! TD*
G04 APERTURE END LIST*
D10*
X22600000Y-76900000D02*
X26400000Y-76900000D01*
X22650000Y-81200000D02*
X26450000Y-81200000D01*
X307600000Y-81200000D02*
X303800000Y-81200000D01*
X307550000Y-76900000D02*
X303750000Y-76900000D01*
X301650000Y-79050000D02*
G75*
G03*
X303800000Y-81200000I2150000J0D01*
G01*
X301650000Y-79050000D02*
G75*
G02*
X303800000Y-76900000I2150000J0D01*
G01*
X28550000Y-79050000D02*
G75*
G02*
X26400000Y-81200000I-2150000J0D01*
G01*
X28550000Y-79050000D02*
G75*
G03*
X26400000Y-76900000I-2150000J0D01*
G01*
D11*
X305842035Y-76850000D03*
X305850000Y-81200000D03*
X302250000Y-80550000D03*
X303800000Y-76850000D03*
X303800000Y-81200000D03*
X301650000Y-79050000D03*
X302250000Y-77550000D03*
X27950000Y-80550000D03*
D12*
X47800000Y-50450000D03*
D13*
X150800000Y-69550000D03*
X213100000Y-107750000D03*
X282650000Y-50450000D03*
D11*
X47800000Y-48550000D03*
X45900000Y-50450000D03*
X49700000Y-50450000D03*
X47800000Y-52350000D03*
X46450000Y-49100000D03*
X49050000Y-49100000D03*
X46450000Y-51750000D03*
X49050000Y-51800000D03*
X282650000Y-48600000D03*
X282650000Y-52300000D03*
X283850000Y-52300000D03*
X281450000Y-52300000D03*
X281450000Y-48600000D03*
X283850000Y-48583000D03*
X213150000Y-105900000D03*
X213100000Y-109600000D03*
X214350000Y-105900000D03*
X211950000Y-105900000D03*
X211900000Y-109600000D03*
X214300000Y-109600000D03*
X150800000Y-67700000D03*
X152000000Y-67700000D03*
X149600000Y-67700000D03*
X150800000Y-71450000D03*
X149600000Y-71450000D03*
X152000000Y-71450000D03*
X28550000Y-79050000D03*
X26400000Y-76900000D03*
X26400000Y-81250000D03*
X27950000Y-77550000D03*
X24350000Y-76900000D03*
X24357965Y-81250000D03*
D14*
X300993580Y-100465550D03*
D15*
X298493580Y-100465550D03*
X295993580Y-100465550D03*
D16*
X304093580Y-107965550D03*
X292893580Y-107965550D03*
D15*
X300993580Y-114965550D03*
X295993580Y-114965550D03*
D17*
X306550000Y-36050040D03*
X306550000Y-33510040D03*
X306550000Y-30970040D03*
X306550000Y-28430040D03*
D18*
X51500000Y-89850040D03*
X60200000Y-89850040D03*
D14*
X34271347Y-100452828D03*
D15*
X31771347Y-100452828D03*
X29271347Y-100452828D03*
D16*
X37371347Y-107952828D03*
X26171347Y-107952828D03*
D15*
X34271347Y-114952828D03*
X29271347Y-114952828D03*
D19*
X37801552Y-28187233D03*
X38651552Y-28187233D03*
X39501552Y-28187233D03*
X40351552Y-28187233D03*
X41201552Y-28187233D03*
X42051552Y-28187233D03*
X42901552Y-28187233D03*
X43751552Y-28187233D03*
X38651552Y-26837233D03*
X40351552Y-26837233D03*
X39501552Y-26837233D03*
X37801552Y-26837233D03*
X42051552Y-26837233D03*
X42901552Y-26837233D03*
X43751552Y-26837233D03*
X41201552Y-26837233D03*
D20*
X36451552Y-27207233D03*
X45101552Y-27207233D03*
D21*
X36451552Y-23827233D03*
X45101552Y-23827233D03*
D22*
X259423480Y-72415240D03*
X253073480Y-74955240D03*
X291173640Y-94005320D03*
X297523640Y-91465320D03*
X290379860Y-72415240D03*
X284029860Y-74955240D03*
X261328520Y-86385320D03*
X267678520Y-83845320D03*
X37966300Y-110515400D03*
X31616300Y-113055400D03*
X151790560Y-67335240D03*
X158140560Y-64795240D03*
X277203560Y-64795240D03*
X270853560Y-67335240D03*
X257042220Y-72415240D03*
X250692220Y-74955240D03*
D23*
X278350000Y-41350040D03*
D24*
X278350000Y-40080040D03*
X279620000Y-41350040D03*
X279620000Y-40080040D03*
X280890000Y-41350040D03*
X280890000Y-40080040D03*
X282160000Y-41350040D03*
X282160000Y-40080040D03*
X283430000Y-41350040D03*
X283430000Y-40080040D03*
X287880000Y-30670040D03*
X289150000Y-30670040D03*
X287880000Y-31940040D03*
X289150000Y-31940040D03*
X287880000Y-33210040D03*
X289150000Y-33210040D03*
X287880000Y-34480040D03*
X289150000Y-34480040D03*
X287880000Y-35750040D03*
D23*
X289150000Y-35750040D03*
D25*
X296350000Y-37650040D03*
D26*
X297500000Y-37650040D03*
X300200000Y-37650040D03*
D25*
X301350000Y-37650040D03*
D27*
X294950000Y-37650040D03*
X302750000Y-37650040D03*
X302050000Y-34850040D03*
X294250000Y-34850040D03*
D25*
X300650000Y-34850040D03*
D26*
X299500000Y-34850040D03*
X296800000Y-34850040D03*
D25*
X295650000Y-34850040D03*
D22*
X47015000Y-29235040D03*
X53365000Y-26695040D03*
X34315040Y-26695080D03*
X27965040Y-29235080D03*
D28*
X27400000Y-63325040D03*
X27400000Y-61575040D03*
X23900000Y-63325040D03*
X23900000Y-61575040D03*
X23900000Y-65775040D03*
X23900000Y-67525040D03*
X27400000Y-65775040D03*
X27400000Y-67525040D03*
X27400000Y-86125040D03*
X27400000Y-84375040D03*
X23900000Y-86125040D03*
X23900000Y-84375040D03*
X23900000Y-88575040D03*
X23900000Y-90325040D03*
X27400000Y-88575040D03*
X27400000Y-90325040D03*
X306200000Y-44125040D03*
X306200000Y-42375040D03*
X302700000Y-44125040D03*
X302700000Y-42375040D03*
X302700000Y-46575040D03*
X302700000Y-48325040D03*
X306200000Y-46575040D03*
X306200000Y-48325040D03*
X302700000Y-61575040D03*
X302700000Y-63325040D03*
X306200000Y-61575040D03*
X306200000Y-63325040D03*
X306200000Y-67525040D03*
X306200000Y-65775040D03*
X302700000Y-67525040D03*
X302700000Y-65775040D03*
D29*
X259891781Y-77057535D03*
X53275000Y-61850040D03*
X53050000Y-71025040D03*
X27400000Y-88575040D03*
X59715858Y-47218139D03*
X302700000Y-48325040D03*
X56829893Y-59412788D03*
X65334417Y-61074371D03*
X69219790Y-50950040D03*
X69219790Y-53250040D03*
X56850000Y-28450040D03*
X57849194Y-53740487D03*
X31350000Y-91390040D03*
X63346440Y-62250040D03*
X60710006Y-62674675D03*
X32864421Y-78691995D03*
X51050000Y-50450040D03*
X51250000Y-61850040D03*
X31740786Y-77771229D03*
X31350000Y-86310040D03*
X51500000Y-89850040D03*
X50596751Y-74165870D03*
X67425005Y-53032418D03*
X67450000Y-50950040D03*
X68177053Y-57649505D03*
X69219790Y-48650040D03*
X306834211Y-58634251D03*
X23900000Y-90325040D03*
X56850000Y-25650040D03*
X32050000Y-27650042D03*
X46593860Y-67965870D03*
X53050000Y-73075040D03*
X57294502Y-60950655D03*
X67450000Y-48650040D03*
X65769994Y-54033591D03*
X67746342Y-63044107D03*
X69333065Y-61689564D03*
X61304307Y-62134346D03*
X63855862Y-63040216D03*
X43950000Y-54250034D03*
X40450001Y-29850041D03*
X29649996Y-25650040D03*
X43950000Y-58650040D03*
X41104374Y-31595666D03*
X31850000Y-25650040D03*
X39450000Y-29850040D03*
X24650000Y-27650040D03*
X50450000Y-25650040D03*
X58248538Y-47239292D03*
X60169267Y-53315683D03*
X273250000Y-41650040D03*
X41850000Y-38100040D03*
X163850000Y-54300040D03*
X58250000Y-43450040D03*
X58412007Y-52399830D03*
X76850000Y-43250040D03*
X78650000Y-28900040D03*
X42080201Y-43140633D03*
X268534902Y-54565140D03*
X158050000Y-36450040D03*
X51819790Y-46342652D03*
X144850000Y-54450038D03*
X56480144Y-54232013D03*
X144850000Y-70250040D03*
X260550000Y-82250040D03*
X59319790Y-78130054D03*
X262450000Y-78450044D03*
X64460000Y-61270040D03*
X270212729Y-96835493D03*
X269250000Y-108250040D03*
X60297536Y-95258758D03*
X60039314Y-63444678D03*
X288450000Y-108200040D03*
X59350000Y-96450040D03*
X286650000Y-100050040D03*
X59400000Y-62820044D03*
X151450000Y-34850040D03*
X253880210Y-31050040D03*
X254298684Y-41164854D03*
X133400002Y-60420040D03*
X60969945Y-53251920D03*
X273450000Y-45114950D03*
X239850000Y-54250044D03*
X275612698Y-41550031D03*
X61850000Y-32650040D03*
X240221084Y-37021124D03*
X278650000Y-65850040D03*
X285650000Y-63650040D03*
X71850000Y-52050040D03*
X78650000Y-32450040D03*
X239250000Y-73650040D03*
X235850000Y-55650040D03*
X272516153Y-78707445D03*
X287850000Y-95100040D03*
X68542192Y-93708618D03*
X274884233Y-41211671D03*
X67450000Y-71850040D03*
X285850000Y-79850040D03*
X271255742Y-78618820D03*
X90650000Y-70400040D03*
X89250000Y-73650040D03*
X277650000Y-66650040D03*
X286850000Y-63450040D03*
X282050000Y-98450040D03*
X250050000Y-104850040D03*
X238050000Y-82118583D03*
X280049998Y-81980052D03*
X272062820Y-80951883D03*
X55250000Y-42450040D03*
X241254688Y-40689629D03*
X26850000Y-41650040D03*
X24250000Y-30600040D03*
X277650000Y-27250040D03*
X56650000Y-50850040D03*
X250325760Y-28909639D03*
X36596340Y-86385320D03*
X48385080Y-91465320D03*
X43622500Y-72415200D03*
X24690040Y-105435400D03*
X29452500Y-48285120D03*
X31833820Y-67335240D03*
X24250000Y-33900040D03*
X38860000Y-34315040D03*
X43740120Y-105435400D03*
X62672640Y-110515400D03*
X59650000Y-67250040D03*
X68280493Y-66919238D03*
X58956290Y-40477244D03*
X57756290Y-34315040D03*
X71219790Y-41280250D03*
X62850000Y-29250040D03*
X84050000Y-110450040D03*
X65171460Y-105435400D03*
X62502378Y-86192990D03*
X53280210Y-48250040D03*
X78650000Y-35700040D03*
X54250000Y-41650040D03*
X72952974Y-41280250D03*
X62850000Y-41650040D03*
X65340052Y-72640098D03*
X81850000Y-29250040D03*
X72315000Y-67335200D03*
X81840000Y-86480250D03*
X88984060Y-105435400D03*
X71550000Y-73650040D03*
X72937421Y-48285120D03*
X100772800Y-110515400D03*
X91450000Y-67250040D03*
X90650000Y-73700040D03*
X91365000Y-48285120D03*
X100890000Y-29235040D03*
X100890000Y-86480250D03*
X119850000Y-29250040D03*
X110415000Y-48285120D03*
X109150000Y-64400040D03*
X110415000Y-67335200D03*
X119940000Y-86385280D03*
X119940440Y-105435400D03*
X131729180Y-110515400D03*
X109650000Y-73650040D03*
X139050000Y-29250040D03*
X129465000Y-48285120D03*
X129465000Y-67335200D03*
X138990000Y-86385280D03*
X136050000Y-35250036D03*
X148515560Y-48285120D03*
X158040600Y-29235080D03*
X162685560Y-72415240D03*
X144850000Y-73650040D03*
X158040600Y-86385280D03*
X158040600Y-105435400D03*
X141371780Y-105435400D03*
X167565640Y-48285160D03*
X177050000Y-29250040D03*
X177090680Y-86385280D03*
X167519790Y-67335200D03*
X188850000Y-105050040D03*
X182650000Y-73700040D03*
X196250000Y-86450040D03*
X212809580Y-104746800D03*
X226979580Y-110515400D03*
X186650000Y-67250040D03*
X186615720Y-48285160D03*
X196140760Y-29235040D03*
X185450000Y-105100040D03*
X215250000Y-86450040D03*
X215250000Y-29050040D03*
X205665800Y-48285160D03*
X205665800Y-67335240D03*
X214050000Y-102450040D03*
X234250000Y-29250040D03*
X224715880Y-48285160D03*
X224715880Y-67335240D03*
X234240920Y-86385320D03*
X234240920Y-105435400D03*
X223650000Y-73650040D03*
X260317220Y-62890200D03*
X253291000Y-86385320D03*
X253291000Y-105435360D03*
X255672256Y-67050040D03*
X274650000Y-91450040D03*
X252650000Y-92300040D03*
X248731631Y-48285160D03*
X253289840Y-29235040D03*
X272450000Y-86250040D03*
X272341080Y-105435360D03*
X267578560Y-48285160D03*
X272341080Y-29235080D03*
X286450000Y-72850040D03*
X269250000Y-111450040D03*
X289009900Y-86385320D03*
X286628640Y-67335240D03*
X305561160Y-72415240D03*
X291450000Y-29250040D03*
X287250000Y-47650042D03*
X291450000Y-105450040D03*
X305556290Y-91465320D03*
X305356290Y-53450040D03*
X60200000Y-89850040D03*
X62650000Y-95100040D03*
X23850000Y-88550040D03*
X34823321Y-79368173D03*
X289219788Y-57743750D03*
X306200000Y-48325040D03*
X303249994Y-49350040D03*
X298850000Y-58543750D03*
X306250000Y-44150040D03*
X302700000Y-46575040D03*
X306150000Y-63350040D03*
X302700000Y-65775040D03*
X67717936Y-56318002D03*
X56554175Y-56661827D03*
X242650000Y-57582085D03*
X247250000Y-41250040D03*
X68342404Y-56826359D03*
X56560345Y-57465015D03*
X246450000Y-56850040D03*
X250850000Y-40619830D03*
X67518809Y-61072484D03*
X59850000Y-92825034D03*
X266650000Y-79850040D03*
X288450000Y-40050040D03*
X286250000Y-96850040D03*
X269250000Y-43250040D03*
X266212553Y-57819830D03*
X284850000Y-80850040D03*
X266650000Y-78850040D03*
X267350000Y-57743750D03*
X289650000Y-39246827D03*
X290095626Y-102974989D03*
X270250000Y-43280250D03*
X286050004Y-81050040D03*
X62674101Y-68759631D03*
X67450000Y-68450040D03*
X51495626Y-95295666D03*
X73050002Y-37710452D03*
X58778903Y-63643560D03*
X58716380Y-65373433D03*
X47350000Y-65350040D03*
X68080210Y-66141397D03*
X49249998Y-96250038D03*
X72799336Y-38473549D03*
X58837128Y-62142708D03*
X284250000Y-62419830D03*
X285849996Y-59750040D03*
X270794837Y-69217760D03*
X269450001Y-80951883D03*
X67150000Y-55750040D03*
X56547121Y-55858646D03*
X245250000Y-56850040D03*
X252465515Y-38065555D03*
X66714433Y-55067295D03*
X56510644Y-55056263D03*
X244050000Y-56819830D03*
X250650000Y-38850040D03*
X63270000Y-48800040D03*
X67250000Y-40650040D03*
X64089024Y-48999064D03*
X67707575Y-39301213D03*
X56650000Y-74250040D03*
X58096439Y-60905428D03*
X302700000Y-61575040D03*
X306200000Y-67525040D03*
X23850000Y-69450040D03*
X23900000Y-65775040D03*
X64160000Y-52720040D03*
X68456412Y-40638065D03*
X254850005Y-39394664D03*
X257788968Y-36450048D03*
X64852265Y-53127370D03*
X69250000Y-40019830D03*
D30*
X253073480Y-74955240D02*
X255175775Y-77057535D01*
X255175775Y-77057535D02*
X259891781Y-77057535D01*
D31*
X26250000Y-64108702D02*
X26250000Y-64625040D01*
X26206299Y-64065001D02*
X26250000Y-64108702D01*
X26206299Y-62585079D02*
X26206299Y-64065001D01*
X26250000Y-62541378D02*
X26206299Y-62585079D01*
X27125000Y-61575040D02*
X26250000Y-62450040D01*
X26250000Y-64625040D02*
X27400000Y-65775040D01*
X26250000Y-62450040D02*
X26250000Y-62541378D01*
X27400000Y-61575040D02*
X27125000Y-61575040D01*
X26250000Y-87425040D02*
X27400000Y-88575040D01*
X26250000Y-86908702D02*
X26250000Y-87425040D01*
X26250000Y-85341378D02*
X26206299Y-85385079D01*
X26250000Y-85250040D02*
X26250000Y-85341378D01*
X27125000Y-84375040D02*
X26250000Y-85250040D01*
X26206299Y-85385079D02*
X26206299Y-86865001D01*
X26206299Y-86865001D02*
X26250000Y-86908702D01*
X27400000Y-84375040D02*
X27125000Y-84375040D01*
X303893701Y-45318741D02*
X302700000Y-44125040D01*
X303893701Y-48312339D02*
X303893701Y-45318741D01*
X303881000Y-48325040D02*
X303893701Y-48312339D01*
X303893701Y-67512339D02*
X303881000Y-67525040D01*
X303881000Y-67525040D02*
X302700000Y-67525040D01*
X303893701Y-64518741D02*
X303893701Y-67512339D01*
X302700000Y-63325040D02*
X303893701Y-64518741D01*
X53275000Y-61850040D02*
X53050000Y-62075040D01*
X53050000Y-62075040D02*
X53050000Y-71025040D01*
X302700000Y-48325040D02*
X303881000Y-48325040D01*
X65182009Y-60645653D02*
X63949144Y-59412788D01*
X65182009Y-60965518D02*
X65182009Y-60645653D01*
X63949144Y-59412788D02*
X56829893Y-59412788D01*
X65182009Y-60965518D02*
X65290862Y-61074371D01*
X65290862Y-61074371D02*
X65334417Y-61074371D01*
X69620316Y-56251394D02*
X69219790Y-55850868D01*
X66056122Y-60965518D02*
X69620316Y-57401324D01*
X69620316Y-57401324D02*
X69620316Y-56251394D01*
X69219790Y-55850868D02*
X69219790Y-53250040D01*
X65182009Y-60965518D02*
X66056122Y-60965518D01*
X69219790Y-53250040D02*
X69219790Y-50950040D01*
X302883662Y-44125040D02*
X302700000Y-44125040D01*
X303893701Y-41635079D02*
X303893701Y-43115001D01*
X303850000Y-38850040D02*
X303850000Y-41591378D01*
X302750000Y-37750040D02*
X303850000Y-38850040D01*
X303850000Y-41591378D02*
X303893701Y-41635079D01*
X303893701Y-43115001D02*
X302883662Y-44125040D01*
X302750000Y-37650040D02*
X302750000Y-37750040D01*
X302050000Y-36950040D02*
X302750000Y-37650040D01*
X302050000Y-34850040D02*
X302050000Y-36950040D01*
X56850000Y-28450040D02*
X59650000Y-31250040D01*
X59650000Y-31250040D02*
X59650000Y-47977798D01*
X57549195Y-53440488D02*
X57849194Y-53740487D01*
X57549195Y-50078603D02*
X57549195Y-53440488D01*
X59650000Y-47977798D02*
X57549195Y-50078603D01*
X303881000Y-63325040D02*
X302700000Y-63325040D01*
X303893701Y-63312339D02*
X303881000Y-63325040D01*
X304350000Y-48794040D02*
X304350000Y-49741322D01*
X306050000Y-51441322D02*
X306050000Y-59650040D01*
X304350000Y-49741322D02*
X306050000Y-51441322D01*
X303893701Y-61806339D02*
X303893701Y-63312339D01*
X306050000Y-59650040D02*
X303893701Y-61806339D01*
X303881000Y-48325040D02*
X304350000Y-48794040D01*
X63346440Y-62250040D02*
X62522046Y-61425646D01*
X60410007Y-62374676D02*
X60710006Y-62674675D01*
X60410007Y-62001970D02*
X60410007Y-62374676D01*
X60986331Y-61425646D02*
X60410007Y-62001970D01*
X62522046Y-61425646D02*
X60986331Y-61425646D01*
X32864421Y-89875619D02*
X32864421Y-78691995D01*
X27400000Y-65775040D02*
X28581000Y-65775040D01*
X28593701Y-65787741D02*
X28593701Y-73643099D01*
X28581000Y-65775040D02*
X28593701Y-65787741D01*
X32864421Y-77913819D02*
X32864421Y-78691995D01*
X28593701Y-73643099D02*
X32864421Y-77913819D01*
X31350000Y-91390040D02*
X32864421Y-89875619D01*
X24218701Y-67525040D02*
X23900000Y-67525040D01*
X25093701Y-66650040D02*
X24218701Y-67525040D01*
X25093701Y-64518741D02*
X25093701Y-66650040D01*
X23900000Y-63325040D02*
X25093701Y-64518741D01*
X23975000Y-90325040D02*
X23900000Y-90325040D01*
X25093701Y-89206339D02*
X23975000Y-90325040D01*
X25093701Y-87318741D02*
X25093701Y-89206339D01*
X23900000Y-86125040D02*
X25093701Y-87318741D01*
X306834211Y-51399334D02*
X305006299Y-49571423D01*
X306200000Y-61575040D02*
X306834211Y-60940829D01*
X305006299Y-49571423D02*
X305006299Y-46587741D01*
X306834211Y-60940829D02*
X306834211Y-51399334D01*
X305019000Y-46575040D02*
X306200000Y-46575040D01*
X305006299Y-46587741D02*
X305019000Y-46575040D01*
X305006299Y-64581339D02*
X306200000Y-65775040D01*
X306200000Y-61575040D02*
X305825000Y-61575040D01*
X305825000Y-61575040D02*
X305006299Y-62393741D01*
X305006299Y-62393741D02*
X305006299Y-64581339D01*
X51250000Y-73512621D02*
X50596751Y-74165870D01*
X51500000Y-89850040D02*
X51500000Y-87769040D01*
X50596751Y-86865791D02*
X50596751Y-74165870D01*
X51250000Y-61850040D02*
X51250000Y-73512621D01*
X51500000Y-87769040D02*
X50596751Y-86865791D01*
X305006299Y-45381339D02*
X306200000Y-46575040D01*
X305006299Y-43193741D02*
X305006299Y-45381339D01*
X305825000Y-42375040D02*
X305006299Y-43193741D01*
X306200000Y-42375040D02*
X305825000Y-42375040D01*
X67425005Y-50975035D02*
X67450000Y-50950040D01*
X67425005Y-53032418D02*
X67425005Y-50975035D01*
X305450000Y-41625040D02*
X306200000Y-42375040D01*
X305450000Y-29530040D02*
X305450000Y-41625040D01*
X306550000Y-28430040D02*
X305450000Y-29530040D01*
X67425005Y-54882282D02*
X69036105Y-56493382D01*
X67450000Y-50950040D02*
X69219790Y-49180250D01*
X69036105Y-57127003D02*
X68513603Y-57649505D01*
X69219790Y-49180250D02*
X69219790Y-48650040D01*
X69036105Y-56493382D02*
X69036105Y-57127003D01*
X67425005Y-53032418D02*
X67425005Y-54882282D01*
X68513603Y-57649505D02*
X68177053Y-57649505D01*
X306250000Y-88657742D02*
X306250000Y-92050040D01*
X306250000Y-92050040D02*
X298493580Y-99806460D01*
X298901641Y-81309383D02*
X306250000Y-88657742D01*
X298901641Y-77698400D02*
X298901641Y-81309383D01*
X301833888Y-74766152D02*
X298901641Y-77698400D01*
X303380342Y-74766152D02*
X301833888Y-74766152D01*
X304850000Y-74650040D02*
X303496454Y-74650040D01*
X305019000Y-65775040D02*
X305006299Y-65787741D01*
X305006299Y-65787741D02*
X305006299Y-70306339D01*
X306650000Y-71950040D02*
X306650000Y-72850040D01*
X306200000Y-65775040D02*
X305019000Y-65775040D01*
X305006299Y-70306339D02*
X306650000Y-71950040D01*
X303496454Y-74650040D02*
X303380342Y-74766152D01*
X298493580Y-99806460D02*
X298493580Y-100465550D01*
X306650000Y-72850040D02*
X304850000Y-74650040D01*
X51050000Y-50450040D02*
X51050000Y-43786436D01*
X51050000Y-43786436D02*
X44227923Y-36964359D01*
X44227923Y-36964359D02*
X44227923Y-28663604D01*
X44227923Y-28663604D02*
X43751552Y-28187233D01*
X31733416Y-77771229D02*
X31740786Y-77771229D01*
X24970711Y-71008524D02*
X31733416Y-77771229D01*
X24970711Y-68595751D02*
X24970711Y-71008524D01*
X23900000Y-67525040D02*
X24970711Y-68595751D01*
X31350000Y-86350040D02*
X31350000Y-86310040D01*
X32170710Y-78201153D02*
X31740786Y-77771229D01*
X31350000Y-86310040D02*
X32170710Y-85489330D01*
X32170710Y-85489330D02*
X32170710Y-78201153D01*
X28602370Y-101846529D02*
X23900000Y-97144159D01*
X30377646Y-101846529D02*
X28602370Y-101846529D01*
X23900000Y-97144159D02*
X23900000Y-90325040D01*
X31771347Y-100452828D02*
X30377646Y-101846529D01*
X42901552Y-28682207D02*
X42901552Y-28187233D01*
X39144575Y-28930934D02*
X42652825Y-28930934D01*
X38651552Y-28437911D02*
X39144575Y-28930934D01*
X42652825Y-28930934D02*
X42901552Y-28682207D01*
X38651552Y-26837233D02*
X38651552Y-28437911D01*
X56250000Y-25050040D02*
X56850000Y-25650040D01*
X42901552Y-26342259D02*
X43630288Y-25613523D01*
X42901552Y-26837233D02*
X42901552Y-26342259D01*
X52650000Y-25050040D02*
X56250000Y-25050040D01*
X49386803Y-25613523D02*
X50117022Y-26343742D01*
X50117022Y-26343742D02*
X51356298Y-26343742D01*
X51356298Y-26343742D02*
X52650000Y-25050040D01*
X43630288Y-25613523D02*
X49386803Y-25613523D01*
X38651552Y-28187233D02*
X38651552Y-28682207D01*
X38651552Y-28682207D02*
X38402825Y-28930934D01*
X38402825Y-28930934D02*
X33330892Y-28930934D01*
X33330892Y-28930934D02*
X32050000Y-27650042D01*
D30*
X53050000Y-73075040D02*
X53792796Y-72332244D01*
X53607588Y-64637569D02*
X57294502Y-60950655D01*
X53792796Y-72332244D02*
X53792796Y-70828287D01*
X53607588Y-70643079D02*
X53607588Y-64637569D01*
X53792796Y-70828287D02*
X53607588Y-70643079D01*
X67450000Y-48650040D02*
X66750001Y-49350039D01*
X66750001Y-49350039D02*
X66750001Y-53053584D01*
X66750001Y-53053584D02*
X65769994Y-54033591D01*
X67746342Y-63044107D02*
X69100885Y-61689564D01*
X69100885Y-61689564D02*
X69333065Y-61689564D01*
X62134960Y-62964999D02*
X63780645Y-62964999D01*
X63780645Y-62964999D02*
X63855862Y-63040216D01*
X61304307Y-62134346D02*
X62134960Y-62964999D01*
X25614412Y-62235452D02*
X25614412Y-65739452D01*
X25614412Y-65739452D02*
X27400000Y-67525040D01*
X24954000Y-61575040D02*
X25614412Y-62235452D01*
X23900000Y-61575040D02*
X24954000Y-61575040D01*
X40351552Y-28030535D02*
X40351552Y-28187233D01*
X41201552Y-27180535D02*
X40351552Y-28030535D01*
X41201552Y-26837233D02*
X41201552Y-27180535D01*
X36128379Y-25007443D02*
X34970976Y-23850040D01*
X34970976Y-23850040D02*
X31449996Y-23850040D01*
X41201552Y-26837233D02*
X41201552Y-26342259D01*
X31449996Y-23850040D02*
X29649996Y-25650040D01*
X41201552Y-26342259D02*
X39866736Y-25007443D01*
X39866736Y-25007443D02*
X36128379Y-25007443D01*
X43950000Y-54250034D02*
X43707212Y-54007246D01*
X43707212Y-54007246D02*
X43707212Y-33107252D01*
X43707212Y-33107252D02*
X40450001Y-29850041D01*
X32349999Y-25150041D02*
X31850000Y-25650040D01*
X40351552Y-26837233D02*
X40351552Y-26342259D01*
X39473947Y-25464654D02*
X35938997Y-25464654D01*
X35938997Y-25464654D02*
X35624384Y-25150041D01*
X40351552Y-26342259D02*
X39473947Y-25464654D01*
X35624384Y-25150041D02*
X32349999Y-25150041D01*
X43250001Y-57950041D02*
X43250001Y-33741293D01*
X43250001Y-33741293D02*
X41104374Y-31595666D01*
X43950000Y-58650040D02*
X43250001Y-57950041D01*
X33117300Y-29850040D02*
X30917300Y-27650040D01*
X30917300Y-27650040D02*
X24650000Y-27650040D01*
X39450000Y-29850040D02*
X33117300Y-29850040D01*
X43343771Y-25050040D02*
X49850000Y-25050040D01*
X42051552Y-26837233D02*
X42051552Y-26342259D01*
X42051552Y-26342259D02*
X43343771Y-25050040D01*
X49850000Y-25050040D02*
X50450000Y-25650040D01*
X58248538Y-47239292D02*
X58248538Y-43451502D01*
X58248538Y-43451502D02*
X58250000Y-43450040D01*
X59327860Y-53315683D02*
X58412007Y-52399830D01*
X60169267Y-53315683D02*
X59327860Y-53315683D01*
X76850000Y-43250040D02*
X79450000Y-40650040D01*
X79450000Y-29700040D02*
X78650000Y-28900040D01*
X79450000Y-40650040D02*
X79450000Y-29700040D01*
X41850000Y-38100040D02*
X41850000Y-42910432D01*
X41850000Y-42910432D02*
X42080201Y-43140633D01*
X273250000Y-41650040D02*
X273250000Y-42074304D01*
X268234901Y-54265139D02*
X268534902Y-54565140D01*
X273250000Y-42074304D02*
X268234901Y-47089403D01*
X268234901Y-47089403D02*
X268234901Y-54265139D01*
X163850000Y-54300040D02*
X163850000Y-42250040D01*
X163850000Y-42250040D02*
X158050000Y-36450040D01*
X55867703Y-54232013D02*
X56480144Y-54232013D01*
X51819790Y-46342652D02*
X51819790Y-50184100D01*
X51819790Y-50184100D02*
X55867703Y-54232013D01*
X144850000Y-54450038D02*
X144850000Y-70250040D01*
X144850000Y-70250040D02*
X144850000Y-70250044D01*
X260550000Y-82250040D02*
X262450000Y-80350040D01*
X262450000Y-80350040D02*
X262450000Y-78450044D01*
X64759999Y-61570039D02*
X64460000Y-61270040D01*
X64759999Y-65693449D02*
X64759999Y-61570039D01*
X64218724Y-72221094D02*
X64218724Y-66234724D01*
X64218724Y-66234724D02*
X64759999Y-65693449D01*
X59319790Y-78130054D02*
X59319790Y-77120028D01*
X59319790Y-77120028D02*
X64218724Y-72221094D01*
X270212729Y-107287311D02*
X269250000Y-108250040D01*
X270212729Y-96835493D02*
X270212729Y-107287311D01*
X58689589Y-93650811D02*
X58689589Y-77103636D01*
X60393005Y-64899244D02*
X60393005Y-63798369D01*
X63761513Y-68267752D02*
X60393005Y-64899244D01*
X63761513Y-72031712D02*
X63761513Y-68267752D01*
X60393005Y-63798369D02*
X60039314Y-63444678D01*
X60297536Y-95258758D02*
X58689589Y-93650811D01*
X58689589Y-77103636D02*
X63761513Y-72031712D01*
X286650000Y-106400040D02*
X286650000Y-100050040D01*
X288450000Y-108200040D02*
X286650000Y-106400040D01*
X59907211Y-65060043D02*
X59907211Y-64245273D01*
X58232378Y-95332418D02*
X58232378Y-76914254D01*
X59907211Y-64245273D02*
X59409113Y-63747175D01*
X59350000Y-96450040D02*
X58232378Y-95332418D01*
X58232378Y-76914254D02*
X63304302Y-71842330D01*
X63304302Y-71842330D02*
X63304302Y-68457134D01*
X59409113Y-63747175D02*
X59409113Y-62829157D01*
X59409113Y-62829157D02*
X59400000Y-62820044D01*
X63304302Y-68457134D02*
X59907211Y-65060043D01*
X253880210Y-31050040D02*
X253880210Y-40746380D01*
X253880210Y-40746380D02*
X254298684Y-41164854D01*
X147850000Y-46394306D02*
X133824266Y-60420040D01*
X151450000Y-34850040D02*
X147850000Y-38450040D01*
X147850000Y-38450040D02*
X147850000Y-46394306D01*
X133824266Y-60420040D02*
X133400002Y-60420040D01*
X273450000Y-45114950D02*
X273450000Y-43712729D01*
X273450000Y-43712729D02*
X275612698Y-41550031D01*
X61394209Y-53251920D02*
X62674101Y-51972028D01*
X62674101Y-49136839D02*
X60950001Y-47412739D01*
X62674101Y-51972028D02*
X62674101Y-49136839D01*
X60969945Y-53251920D02*
X61394209Y-53251920D01*
X60950001Y-47412739D02*
X60950001Y-33550039D01*
X60950001Y-33550039D02*
X61850000Y-32650040D01*
X240221084Y-53878960D02*
X240221084Y-37021124D01*
X239850000Y-54250044D02*
X240221084Y-53878960D01*
X286480330Y-62819710D02*
X285650000Y-63650040D01*
X279620000Y-41350040D02*
X279620000Y-42057146D01*
X286480330Y-48917476D02*
X286480330Y-62819710D01*
X279620000Y-42057146D02*
X286480330Y-48917476D01*
X239250000Y-73650040D02*
X239250000Y-59050040D01*
X239250000Y-59050040D02*
X235850000Y-55650040D01*
X78650000Y-33555585D02*
X78650000Y-32450040D01*
X71850000Y-52050040D02*
X71850000Y-40355585D01*
X71850000Y-40355585D02*
X78650000Y-33555585D01*
X277101979Y-68598061D02*
X277101979Y-71709303D01*
X272516153Y-76295129D02*
X272516153Y-78707445D01*
X278650000Y-67050040D02*
X277101979Y-68598061D01*
X277101979Y-71709303D02*
X272516153Y-76295129D01*
X278650000Y-65850040D02*
X278650000Y-67050040D01*
X287850000Y-95100040D02*
X286971228Y-94221268D01*
X286971228Y-94221268D02*
X286971228Y-80971268D01*
X286971228Y-80971268D02*
X285850000Y-79850040D01*
X63132588Y-82886036D02*
X61907211Y-81660659D01*
X67148047Y-93708618D02*
X63132588Y-89693159D01*
X63132588Y-89693159D02*
X63132588Y-82886036D01*
X61907211Y-77392829D02*
X67450000Y-71850040D01*
X68542192Y-93708618D02*
X67148047Y-93708618D01*
X61907211Y-81660659D02*
X61907211Y-77392829D01*
X271882248Y-75494579D02*
X271255742Y-76121085D01*
X272819799Y-43276105D02*
X272819799Y-49027619D01*
X272308761Y-49538657D02*
X272308761Y-68143777D01*
X274884233Y-41211671D02*
X272819799Y-43276105D01*
X272819799Y-49027619D02*
X272308761Y-49538657D01*
X272308761Y-68143777D02*
X271882248Y-68570289D01*
X271882248Y-68570289D02*
X271882248Y-75494579D01*
X271255742Y-76121085D02*
X271255742Y-78618820D01*
X90650000Y-72250040D02*
X89250000Y-73650040D01*
X90650000Y-70400040D02*
X90650000Y-72250040D01*
X286950001Y-48503449D02*
X286950001Y-63350039D01*
X280890000Y-42443448D02*
X286950001Y-48503449D01*
X286950001Y-63350039D02*
X286850000Y-63450040D01*
X280890000Y-41350040D02*
X280890000Y-42443448D01*
X238050000Y-82274304D02*
X238050000Y-82118583D01*
X250050000Y-94274304D02*
X238050000Y-82274304D01*
X250050000Y-104850040D02*
X250050000Y-94274304D01*
X282050000Y-98450040D02*
X282050000Y-86637938D01*
X282050000Y-86637938D02*
X280049998Y-84637936D01*
X280049998Y-84637936D02*
X280049998Y-81980052D01*
X271885952Y-76214088D02*
X271885952Y-80775015D01*
X271885952Y-80775015D02*
X272062820Y-80951883D01*
X277650000Y-66650040D02*
X274449090Y-66650040D01*
X272339459Y-75760581D02*
X271885952Y-76214088D01*
X272339459Y-68759671D02*
X272339459Y-75760581D01*
X274449090Y-66650040D02*
X272339459Y-68759671D01*
X26850000Y-41650040D02*
X23619798Y-38419838D01*
X23619798Y-38419838D02*
X23619798Y-31230242D01*
X23619798Y-31230242D02*
X24250000Y-30600040D01*
X277650000Y-29909858D02*
X277650000Y-27250040D01*
X277101979Y-30457879D02*
X277650000Y-29909858D01*
X277101979Y-40102019D02*
X277101979Y-30457879D01*
X278350000Y-41350040D02*
X277101979Y-40102019D01*
X56650000Y-51228818D02*
X56650000Y-50850040D01*
X55848497Y-52030321D02*
X56650000Y-51228818D01*
X54064799Y-51403617D02*
X54691503Y-52030321D01*
X54691503Y-52030321D02*
X55848497Y-52030321D01*
X54064799Y-43635241D02*
X54064799Y-51403617D01*
X55250000Y-42450040D02*
X54064799Y-43635241D01*
X250025761Y-31918556D02*
X250025761Y-29209638D01*
X250025761Y-29209638D02*
X250325760Y-28909639D01*
X241254688Y-40689629D02*
X250025761Y-31918556D01*
X36596340Y-79441360D02*
X43622500Y-72415200D01*
X36596340Y-86385320D02*
X36596340Y-79441360D01*
X40913498Y-93450040D02*
X46400360Y-93450040D01*
X36596340Y-86385320D02*
X35014879Y-87966781D01*
X35014879Y-87966781D02*
X35014879Y-89614919D01*
X39638577Y-92175119D02*
X40913498Y-93450040D01*
X46400360Y-93450040D02*
X48385080Y-91465320D01*
X35014879Y-89614919D02*
X37575079Y-92175119D01*
X37575079Y-92175119D02*
X39638577Y-92175119D01*
X36740077Y-110515400D02*
X37966300Y-110515400D01*
X32302649Y-114952828D02*
X36740077Y-110515400D01*
X29271347Y-114952828D02*
X32302649Y-114952828D01*
X39557290Y-110515400D02*
X40913498Y-109159192D01*
X40913498Y-109159192D02*
X40913498Y-93450040D01*
X37966300Y-110515400D02*
X39557290Y-110515400D01*
X24690040Y-110371521D02*
X24690040Y-105435400D01*
X29271347Y-114952828D02*
X24690040Y-110371521D01*
X27965040Y-29235080D02*
X27965040Y-32288778D01*
X37029799Y-36145241D02*
X38860000Y-34315040D01*
X31821503Y-36145241D02*
X37029799Y-36145241D01*
X31821503Y-45916117D02*
X31821503Y-36145241D01*
X29452500Y-48285120D02*
X31821503Y-45916117D01*
X27000000Y-33900040D02*
X24250000Y-33900040D01*
X27965040Y-32935000D02*
X27000000Y-33900040D01*
X27965040Y-32288778D02*
X27965040Y-32935000D01*
X31145201Y-36145241D02*
X31821503Y-36145241D01*
X27965040Y-32965080D02*
X31145201Y-36145241D01*
X27965040Y-32288778D02*
X27965040Y-32965080D01*
X30252299Y-73811127D02*
X30252299Y-68916761D01*
X36596340Y-80155168D02*
X30252299Y-73811127D01*
X30252299Y-68916761D02*
X31833820Y-67335240D01*
X36596340Y-80303700D02*
X36596340Y-80155168D01*
X30050000Y-64047420D02*
X30050000Y-48882620D01*
X30050000Y-48882620D02*
X29452500Y-48285120D01*
X31833820Y-65831240D02*
X30050000Y-64047420D01*
X31833820Y-67335240D02*
X31833820Y-65831240D01*
X60842439Y-112345601D02*
X62672640Y-110515400D01*
X58519143Y-112345601D02*
X60842439Y-112345601D01*
X57398741Y-111225199D02*
X58519143Y-112345601D01*
X46883461Y-111225199D02*
X57398741Y-111225199D01*
X43740120Y-108081858D02*
X46883461Y-111225199D01*
X43740120Y-105435400D02*
X43740120Y-108081858D01*
X57756290Y-31842632D02*
X57756290Y-34315040D01*
X55148698Y-29235040D02*
X57756290Y-31842632D01*
X47015000Y-29235040D02*
X55148698Y-29235040D01*
X68280493Y-66919238D02*
X71364422Y-63835309D01*
X71364422Y-63835309D02*
X71364422Y-52497160D01*
X71364422Y-52497160D02*
X71219790Y-52352528D01*
X71219790Y-52352528D02*
X71219790Y-41280250D01*
X58850000Y-40370954D02*
X58850000Y-35408750D01*
X58850000Y-35408750D02*
X57756290Y-34315040D01*
X58956290Y-40477244D02*
X58850000Y-40370954D01*
X57380202Y-69519838D02*
X59650000Y-67250040D01*
X50450000Y-95450040D02*
X57250000Y-88650040D01*
X50450000Y-98725520D02*
X50450000Y-95450040D01*
X57250000Y-75482740D02*
X57380202Y-75352538D01*
X57250000Y-88650040D02*
X57250000Y-75482740D01*
X43740120Y-105435400D02*
X50450000Y-98725520D01*
X57380202Y-75352538D02*
X57380202Y-69519838D01*
X69324957Y-103605199D02*
X67001661Y-103605199D01*
X67001661Y-103605199D02*
X65171460Y-105435400D01*
X81342678Y-105435400D02*
X71155158Y-105435400D01*
X71155158Y-105435400D02*
X69324957Y-103605199D01*
X84050000Y-108142722D02*
X81342678Y-105435400D01*
X84050000Y-110450040D02*
X84050000Y-108142722D01*
X67001661Y-103605199D02*
X67001661Y-94208825D01*
X67001661Y-94208825D02*
X62502378Y-89709542D01*
X62502378Y-89709542D02*
X62502378Y-86192990D01*
X77796000Y-35700040D02*
X72952974Y-40543066D01*
X78650000Y-35700040D02*
X77796000Y-35700040D01*
X72952974Y-40543066D02*
X72952974Y-41280250D01*
X62850000Y-29250040D02*
X62850000Y-41650040D01*
X53280210Y-42619830D02*
X54250000Y-41650040D01*
X53280210Y-48250040D02*
X53280210Y-42619830D01*
X72307211Y-51167472D02*
X72480201Y-51340462D01*
X72307211Y-41926013D02*
X72307211Y-51167472D01*
X72480201Y-51340462D02*
X72480201Y-65499949D01*
X72480201Y-65499949D02*
X65340052Y-72640098D01*
X72952974Y-41280250D02*
X72307211Y-41926013D01*
X61450000Y-76530150D02*
X65340052Y-72640098D01*
X61450000Y-81850040D02*
X61450000Y-76530150D01*
X62502378Y-86192990D02*
X62502378Y-82902418D01*
X62502378Y-82902418D02*
X61450000Y-81850040D01*
X81840000Y-98291340D02*
X81840000Y-86480250D01*
X88984060Y-105435400D02*
X81840000Y-98291340D01*
X72315000Y-72885040D02*
X71550000Y-73650040D01*
X72315000Y-67335200D02*
X72315000Y-72885040D01*
X72937421Y-66712779D02*
X72937421Y-48285120D01*
X81850000Y-39372541D02*
X72937421Y-48285120D01*
X72315000Y-67335200D02*
X72937421Y-66712779D01*
X81850000Y-29250040D02*
X81850000Y-39372541D01*
X77070210Y-91250040D02*
X65336062Y-91250040D01*
X66450000Y-73650040D02*
X71550000Y-73650040D01*
X65336062Y-91250040D02*
X63589799Y-89503777D01*
X63589799Y-89503777D02*
X63589799Y-82696653D01*
X63589799Y-82696653D02*
X62364422Y-81471276D01*
X81840000Y-86480250D02*
X77070210Y-91250040D01*
X62364422Y-77735618D02*
X66450000Y-73650040D01*
X62364422Y-81471276D02*
X62364422Y-77735618D01*
X88984060Y-105435400D02*
X88984060Y-101915980D01*
X88984060Y-101915980D02*
X94150000Y-96750040D01*
X94150000Y-96750040D02*
X101450000Y-96750040D01*
X102354261Y-108933939D02*
X100772800Y-110515400D01*
X102354261Y-97654301D02*
X102354261Y-108933939D01*
X101450000Y-96750040D02*
X102354261Y-97654301D01*
X91450000Y-48370120D02*
X91365000Y-48285120D01*
X91450000Y-67250040D02*
X91450000Y-48370120D01*
X91365000Y-38760040D02*
X100890000Y-29235040D01*
X91365000Y-48285120D02*
X91365000Y-38760040D01*
X91850000Y-67650040D02*
X91850000Y-72500040D01*
X91850000Y-72500040D02*
X90650000Y-73700040D01*
X91450000Y-67250040D02*
X91850000Y-67650040D01*
X90650000Y-73700040D02*
X90069798Y-74280242D01*
X82832473Y-84555079D02*
X85993497Y-84555079D01*
X71332652Y-86132692D02*
X81254860Y-86132692D01*
X85993497Y-84555079D02*
X87918668Y-86480250D01*
X65646990Y-84107251D02*
X69307211Y-84107251D01*
X90069798Y-74280242D02*
X66466390Y-74280242D01*
X62821633Y-77924998D02*
X62821633Y-81281895D01*
X69307211Y-84107251D02*
X71332652Y-86132692D01*
X62821633Y-81281895D02*
X65646990Y-84107251D01*
X87918668Y-86480250D02*
X100890000Y-86480250D01*
X66466390Y-74280242D02*
X62821633Y-77924998D01*
X81254860Y-86132692D02*
X82832473Y-84555079D01*
X110415000Y-38685040D02*
X110415000Y-48285120D01*
X119850000Y-29250040D02*
X110415000Y-38685040D01*
X110415000Y-63135040D02*
X109150000Y-64400040D01*
X110415000Y-48285120D02*
X110415000Y-63135040D01*
X109150000Y-66070200D02*
X110415000Y-67335200D01*
X109150000Y-64400040D02*
X109150000Y-66070200D01*
X119940000Y-105434960D02*
X119940440Y-105435400D01*
X119940000Y-86385280D02*
X119940000Y-105434960D01*
X110415000Y-72885040D02*
X109650000Y-73650040D01*
X110415000Y-67335200D02*
X110415000Y-72885040D01*
X129898979Y-112345601D02*
X131729180Y-110515400D01*
X126455281Y-111225199D02*
X127575683Y-112345601D01*
X118358979Y-108553897D02*
X121030281Y-111225199D01*
X127575683Y-112345601D02*
X129898979Y-112345601D01*
X119940440Y-105435400D02*
X119864640Y-105435400D01*
X118358979Y-106941061D02*
X118358979Y-108553897D01*
X119864640Y-105435400D02*
X118358979Y-106941061D01*
X121030281Y-111225199D02*
X126455281Y-111225199D01*
X106873698Y-86385280D02*
X119940000Y-86385280D01*
X105043497Y-84555079D02*
X106873698Y-86385280D01*
X103286503Y-84555079D02*
X105043497Y-84555079D01*
X102166101Y-85675481D02*
X103286503Y-84555079D01*
X90586503Y-85675481D02*
X102166101Y-85675481D01*
X71536503Y-85675481D02*
X73293497Y-85675481D01*
X89008890Y-84097868D02*
X90586503Y-85675481D01*
X73293497Y-85675481D02*
X74871110Y-84097868D01*
X74871110Y-84097868D02*
X89008890Y-84097868D01*
X69511062Y-83650040D02*
X71536503Y-85675481D01*
X66314815Y-75078409D02*
X63278844Y-78114380D01*
X63278844Y-81092512D02*
X65836372Y-83650040D01*
X63278844Y-78114380D02*
X63278844Y-81092512D01*
X109650000Y-73650040D02*
X108221631Y-75078409D01*
X108221631Y-75078409D02*
X66314815Y-75078409D01*
X65836372Y-83650040D02*
X69511062Y-83650040D01*
X129465000Y-48285120D02*
X129465000Y-67335200D01*
X129465000Y-48285120D02*
X129465000Y-41835036D01*
X129465000Y-41835036D02*
X136050000Y-35250036D01*
X136050000Y-32050040D02*
X136050000Y-35250036D01*
X138850000Y-29250040D02*
X136050000Y-32050040D01*
X139050000Y-29250040D02*
X138850000Y-29250040D01*
X64671236Y-81764462D02*
X134369182Y-81764462D01*
X66504196Y-75535620D02*
X63736055Y-78303761D01*
X129465000Y-67335200D02*
X121264580Y-75535620D01*
X63736055Y-80829281D02*
X64671236Y-81764462D01*
X134369182Y-81764462D02*
X138990000Y-86385280D01*
X121264580Y-75535620D02*
X66504196Y-75535620D01*
X63736055Y-78303761D02*
X63736055Y-80829281D01*
X148515560Y-38760120D02*
X158040600Y-29235080D01*
X148515560Y-48285120D02*
X148515560Y-38760120D01*
X162685560Y-70096542D02*
X162685560Y-72415240D01*
X161259057Y-68670039D02*
X162685560Y-70096542D01*
X158940359Y-68670039D02*
X161259057Y-68670039D01*
X149877680Y-65422360D02*
X155692680Y-65422360D01*
X155692680Y-65422360D02*
X158940359Y-68670039D01*
X149877680Y-65422360D02*
X151175110Y-66719790D01*
X147450000Y-49350680D02*
X148515560Y-48285120D01*
X149477680Y-65422360D02*
X147450000Y-67450040D01*
X147450000Y-67450040D02*
X147450000Y-49350680D01*
X149877680Y-65422360D02*
X149477680Y-65422360D01*
X145480202Y-69419838D02*
X145480202Y-73019838D01*
X147450000Y-67450040D02*
X145480202Y-69419838D01*
X145480202Y-73019838D02*
X144850000Y-73650040D01*
X152962571Y-81307251D02*
X158040600Y-86385280D01*
X64860618Y-81307251D02*
X152962571Y-81307251D01*
X142507209Y-75992831D02*
X66693577Y-75992831D01*
X64193266Y-78493142D02*
X64193266Y-80639899D01*
X66693577Y-75992831D02*
X64193266Y-78493142D01*
X64193266Y-80639899D02*
X64860618Y-81307251D01*
X144850000Y-73650040D02*
X142507209Y-75992831D01*
X158040600Y-105435400D02*
X158040600Y-93540640D01*
X158040600Y-93540640D02*
X158040600Y-86385280D01*
X141664640Y-105435400D02*
X141371780Y-105435400D01*
X153559400Y-93540640D02*
X141664640Y-105435400D01*
X158040600Y-93540640D02*
X153559400Y-93540640D01*
X177050000Y-29250040D02*
X167565640Y-38734400D01*
X167565640Y-38734400D02*
X167565640Y-48285160D01*
X177090680Y-86385280D02*
X177090680Y-93290720D01*
X177090680Y-93290720D02*
X188850000Y-105050040D01*
X168125826Y-73198166D02*
X168125826Y-67941236D01*
X168125826Y-67941236D02*
X167519790Y-67335200D01*
X167650000Y-67204990D02*
X167519790Y-67335200D01*
X167650000Y-48369520D02*
X167650000Y-67204990D01*
X167565640Y-48285160D02*
X167650000Y-48369520D01*
X182148126Y-73198166D02*
X182650000Y-73700040D01*
X168125826Y-73198166D02*
X182148126Y-73198166D01*
X65253395Y-78079605D02*
X163244387Y-78079605D01*
X64650477Y-78682523D02*
X65253395Y-78079605D01*
X64650477Y-80450517D02*
X64650477Y-78682523D01*
X171555440Y-80850040D02*
X65050000Y-80850040D01*
X65050000Y-80850040D02*
X64650477Y-80450517D01*
X177090680Y-86385280D02*
X171555440Y-80850040D01*
X163244387Y-78079605D02*
X168125826Y-73198166D01*
X223529678Y-104746800D02*
X226979580Y-108196702D01*
X218104678Y-104746800D02*
X223529678Y-104746800D01*
X226979580Y-108196702D02*
X226979580Y-110515400D01*
X216963077Y-103605199D02*
X218104678Y-104746800D01*
X213951181Y-103605199D02*
X216963077Y-103605199D01*
X212809580Y-104746800D02*
X213951181Y-103605199D01*
X186650000Y-48319440D02*
X186615720Y-48285160D01*
X186650000Y-67250040D02*
X186650000Y-48319440D01*
X186615720Y-38760080D02*
X196140760Y-29235040D01*
X186615720Y-48285160D02*
X186615720Y-38760080D01*
X239831262Y-80573959D02*
X202126081Y-80573959D01*
X186650000Y-67250040D02*
X186650000Y-69688218D01*
X186650000Y-69688218D02*
X192211822Y-75250040D01*
X260850000Y-80010264D02*
X260254847Y-80605417D01*
X192211822Y-75250040D02*
X248243722Y-75250040D01*
X248243722Y-75250040D02*
X250001261Y-73492501D01*
X250001261Y-73492501D02*
X254739053Y-73492501D01*
X260850000Y-77100152D02*
X260850000Y-80010264D01*
X257673886Y-76427334D02*
X260177182Y-76427334D01*
X260177182Y-76427334D02*
X260850000Y-77100152D01*
X239862720Y-80605417D02*
X239831262Y-80573959D01*
X260254847Y-80605417D02*
X239862720Y-80605417D01*
X254739053Y-73492501D02*
X257673886Y-76427334D01*
X202126081Y-80573959D02*
X196250000Y-86450040D01*
X194850000Y-91650040D02*
X194850000Y-87850040D01*
X194850000Y-87850040D02*
X196250000Y-86450040D01*
X212809580Y-104746800D02*
X207946760Y-104746800D01*
X194900000Y-91700040D02*
X194850000Y-91650040D01*
X207946760Y-104746800D02*
X194900000Y-91700040D01*
X194850000Y-99982740D02*
X194850000Y-91750040D01*
X189152498Y-105680242D02*
X194850000Y-99982740D01*
X186030202Y-105680242D02*
X189152498Y-105680242D01*
X194850000Y-91750040D02*
X194900000Y-91700040D01*
X185450000Y-105100040D02*
X186030202Y-105680242D01*
X205665800Y-38634240D02*
X205665800Y-48285160D01*
X215250000Y-29050040D02*
X205665800Y-38634240D01*
X205665800Y-48285160D02*
X205665800Y-67335240D01*
X215250000Y-101250040D02*
X214050000Y-102450040D01*
X215250000Y-86450040D02*
X215250000Y-101250040D01*
X210799314Y-74787452D02*
X205665800Y-69653938D01*
X215250000Y-86450040D02*
X220668870Y-81031170D01*
X220668870Y-81031170D02*
X239641880Y-81031170D01*
X239641880Y-81031170D02*
X239673338Y-81062628D01*
X257863268Y-75970123D02*
X254685976Y-72792831D01*
X254685976Y-72792831D02*
X249953801Y-72792831D01*
X260444229Y-81062628D02*
X261307211Y-80199646D01*
X261307211Y-76893674D02*
X260383660Y-75970123D01*
X261307211Y-80199646D02*
X261307211Y-76893674D01*
X260383660Y-75970123D02*
X257863268Y-75970123D01*
X239673338Y-81062628D02*
X260444229Y-81062628D01*
X249953801Y-72792831D02*
X247959181Y-74787452D01*
X247959181Y-74787452D02*
X210799314Y-74787452D01*
X205665800Y-69653938D02*
X205665800Y-67335240D01*
X234240920Y-86385320D02*
X234240920Y-105435400D01*
X224715880Y-40584160D02*
X224715880Y-48285160D01*
X234250000Y-29250040D02*
X234250000Y-31050040D01*
X234250000Y-31050040D02*
X224715880Y-40584160D01*
X224715880Y-48285160D02*
X224715880Y-67335240D01*
X224715880Y-72584160D02*
X223650000Y-73650040D01*
X224715880Y-67335240D02*
X224715880Y-72584160D01*
X260573042Y-75512912D02*
X261764422Y-76704292D01*
X258052650Y-75512912D02*
X260573042Y-75512912D01*
X239452498Y-81488381D02*
X237633859Y-81488381D01*
X237633859Y-81488381D02*
X234240920Y-84881320D01*
X260633611Y-81519839D02*
X239483956Y-81519839D01*
X261764422Y-80389028D02*
X260633611Y-81519839D01*
X247769798Y-74330241D02*
X249764419Y-72335620D01*
X223650000Y-73650040D02*
X224330201Y-74330241D01*
X254875358Y-72335620D02*
X258052650Y-75512912D01*
X249764419Y-72335620D02*
X254875358Y-72335620D01*
X234240920Y-84881320D02*
X234240920Y-86385320D01*
X224330201Y-74330241D02*
X247769798Y-74330241D01*
X261764422Y-76704292D02*
X261764422Y-80389028D01*
X239483956Y-81519839D02*
X239452498Y-81488381D01*
X257042220Y-72415240D02*
X259163119Y-72415240D01*
X253291000Y-91659040D02*
X252650000Y-92300040D01*
X253291000Y-86385320D02*
X253291000Y-91659040D01*
X252650000Y-104794360D02*
X253291000Y-105435360D01*
X252650000Y-92300040D02*
X252650000Y-104794360D01*
X259177619Y-84555119D02*
X255121201Y-84555119D01*
X255121201Y-84555119D02*
X253291000Y-86385320D01*
X260317220Y-62890200D02*
X260292220Y-62890200D01*
X260292220Y-62890200D02*
X256132380Y-67050040D01*
X256132380Y-67050040D02*
X255672256Y-67050040D01*
X259498319Y-84555119D02*
X261328520Y-86385320D01*
X259177619Y-84555119D02*
X259498319Y-84555119D01*
X263480202Y-80252536D02*
X259177619Y-84555119D01*
X263480202Y-74804764D02*
X263480202Y-80252536D01*
X263287739Y-74612301D02*
X263480202Y-74804764D01*
X257301571Y-72415240D02*
X257042220Y-72415240D01*
X259936371Y-75050040D02*
X257301571Y-72415240D01*
X262850000Y-75050040D02*
X259936371Y-75050040D01*
X263287739Y-74612301D02*
X262850000Y-75050040D01*
X274650000Y-91450040D02*
X272804519Y-93295521D01*
X252774921Y-92175119D02*
X252650000Y-92300040D01*
X265858277Y-92175119D02*
X252774921Y-92175119D01*
X266978679Y-93295521D02*
X265858277Y-92175119D01*
X272804519Y-93295521D02*
X266978679Y-93295521D01*
X265081361Y-72818679D02*
X263287739Y-74612301D01*
X265081361Y-67654341D02*
X265081361Y-72818679D01*
X260317220Y-62890200D02*
X265081361Y-67654341D01*
X258890717Y-59144999D02*
X257069621Y-59144999D01*
X248731631Y-50807009D02*
X248731631Y-48285160D01*
X260317220Y-62890200D02*
X260317220Y-60571502D01*
X260317220Y-60571502D02*
X258890717Y-59144999D01*
X257069621Y-59144999D02*
X248731631Y-50807009D01*
X253250000Y-39450040D02*
X253250000Y-29274880D01*
X248731631Y-43968409D02*
X253250000Y-39450040D01*
X253250000Y-29274880D02*
X253289840Y-29235040D01*
X248731631Y-48285160D02*
X248731631Y-43968409D01*
X274144921Y-84555119D02*
X276494577Y-84555119D01*
X272450000Y-86250040D02*
X274144921Y-84555119D01*
X272341080Y-105435360D02*
X272341080Y-108358960D01*
X272341080Y-108358960D02*
X269250000Y-111450040D01*
X275280201Y-102496239D02*
X272341080Y-105435360D01*
X277446281Y-85506823D02*
X277446281Y-87608817D01*
X275280201Y-89774897D02*
X275280201Y-102496239D01*
X277446281Y-87608817D02*
X275280201Y-89774897D01*
X276494577Y-84555119D02*
X277446281Y-85506823D01*
X272341080Y-42091660D02*
X272341080Y-29235080D01*
X267578560Y-46854180D02*
X272341080Y-42091660D01*
X267578560Y-48285160D02*
X267578560Y-46854180D01*
X270853560Y-67335240D02*
X268619798Y-65101478D01*
X267578560Y-54511300D02*
X267578560Y-48285160D01*
X268619798Y-65101478D02*
X268619798Y-55552538D01*
X268619798Y-55552538D02*
X267578560Y-54511300D01*
X276583679Y-84555119D02*
X276494577Y-84555119D01*
X286450000Y-74688798D02*
X276583679Y-84555119D01*
X286450000Y-72850040D02*
X286450000Y-74688798D01*
X270853560Y-67335240D02*
X271425037Y-67906717D01*
X270625541Y-76104693D02*
X270625541Y-84425581D01*
X271425037Y-75305197D02*
X270625541Y-76104693D01*
X271425037Y-67906717D02*
X271425037Y-75305197D01*
X270625541Y-84425581D02*
X272450000Y-86250040D01*
X289389942Y-91465320D02*
X297523640Y-91465320D01*
X287428439Y-87966781D02*
X289009900Y-86385320D01*
X287428439Y-89503817D02*
X287428439Y-87966781D01*
X289389942Y-91465320D02*
X287428439Y-89503817D01*
X289009900Y-73785200D02*
X290379860Y-72415240D01*
X289009900Y-86385320D02*
X289009900Y-73785200D01*
X288458841Y-65505039D02*
X286628640Y-67335240D01*
X292783109Y-65505039D02*
X288458841Y-65505039D01*
X296037741Y-68759671D02*
X292783109Y-65505039D01*
X296037741Y-70990809D02*
X296037741Y-68759671D01*
X290379860Y-72415240D02*
X294613310Y-72415240D01*
X294613310Y-72415240D02*
X296037741Y-70990809D01*
X299292373Y-74245441D02*
X303164657Y-74245441D01*
X296037741Y-70990809D02*
X299292373Y-74245441D01*
X303164657Y-74245441D02*
X304994858Y-72415240D01*
X304994858Y-72415240D02*
X305561160Y-72415240D01*
X291450000Y-43450042D02*
X287250000Y-47650042D01*
X291450000Y-29250040D02*
X291450000Y-43450042D01*
X288480201Y-65483679D02*
X288480201Y-52455419D01*
X287428439Y-51403657D02*
X287428439Y-47828481D01*
X287428439Y-47828481D02*
X287250000Y-47650042D01*
X288480201Y-52455419D02*
X287428439Y-51403657D01*
X288458841Y-65505039D02*
X288480201Y-65483679D01*
X297523640Y-91465320D02*
X299353841Y-93295521D01*
X303726089Y-93295521D02*
X305556290Y-91465320D01*
X299353841Y-93295521D02*
X303726089Y-93295521D01*
X289389942Y-98389982D02*
X289389942Y-91465320D01*
X291450000Y-100450040D02*
X289389942Y-98389982D01*
X291450000Y-105450040D02*
X291450000Y-100450040D01*
X292783109Y-65505039D02*
X304838108Y-53450040D01*
X304838108Y-53450040D02*
X305356290Y-53450040D01*
X60200000Y-89850040D02*
X62650000Y-92300040D01*
X62650000Y-92300040D02*
X62650000Y-95100040D01*
X23875000Y-88575040D02*
X23850000Y-88550040D01*
X23900000Y-88575040D02*
X23875000Y-88575040D01*
X34823321Y-79028741D02*
X34823321Y-79368173D01*
X29114412Y-65039452D02*
X29114412Y-73319832D01*
X29114412Y-73319832D02*
X34823321Y-79028741D01*
X27400000Y-63325040D02*
X29114412Y-65039452D01*
X296037741Y-49037299D02*
X296037741Y-51940729D01*
X290234720Y-57743750D02*
X289219788Y-57743750D01*
X302700000Y-42375040D02*
X296037741Y-49037299D01*
X296037741Y-51940729D02*
X290234720Y-57743750D01*
X298850000Y-53750034D02*
X298850000Y-58543750D01*
X303249994Y-49350040D02*
X298850000Y-53750034D01*
X25650000Y-88575040D02*
X27400000Y-90325040D01*
X25650000Y-86125040D02*
X25650000Y-88575040D01*
X23900000Y-84375040D02*
X25650000Y-86125040D01*
X306225000Y-44125040D02*
X306250000Y-44150040D01*
X306200000Y-44125040D02*
X306225000Y-44125040D01*
X306175000Y-63325040D02*
X306150000Y-63350040D01*
X306200000Y-63325040D02*
X306175000Y-63325040D01*
X67717936Y-56318002D02*
X67374111Y-56661827D01*
X67374111Y-56661827D02*
X56554175Y-56661827D01*
X242350001Y-46150039D02*
X247250000Y-41250040D01*
X242650000Y-57582085D02*
X242350001Y-57282086D01*
X242350001Y-57282086D02*
X242350001Y-46150039D01*
X68342404Y-56826359D02*
X68220565Y-56948198D01*
X67951122Y-56948198D02*
X67434305Y-57465015D01*
X68220565Y-56948198D02*
X67951122Y-56948198D01*
X67434305Y-57465015D02*
X56560345Y-57465015D01*
X243850000Y-47250040D02*
X250480210Y-40619830D01*
X250480210Y-40619830D02*
X250850000Y-40619830D01*
X243850000Y-54250040D02*
X243850000Y-47250040D01*
X246450000Y-56850040D02*
X243850000Y-54250040D01*
X59219799Y-92194833D02*
X59850000Y-92825034D01*
X59219799Y-79280241D02*
X59219799Y-92194833D01*
X59949999Y-77138899D02*
X59949999Y-78550041D01*
X66635201Y-61956092D02*
X66635201Y-70453697D01*
X59949999Y-78550041D02*
X59219799Y-79280241D01*
X66635201Y-70453697D02*
X59949999Y-77138899D01*
X67518809Y-61072484D02*
X66635201Y-61956092D01*
X289874264Y-40050040D02*
X288450000Y-40050040D01*
X290749999Y-39174305D02*
X289874264Y-40050040D01*
X290749999Y-32270039D02*
X290749999Y-39174305D01*
X289150000Y-30670040D02*
X290749999Y-32270039D01*
X269250000Y-43250040D02*
X266212553Y-46287487D01*
X267127461Y-58734738D02*
X266212553Y-57819830D01*
X265850001Y-79050041D02*
X265850001Y-69432208D01*
X266650000Y-79850040D02*
X265850001Y-79050041D01*
X265850001Y-69432208D02*
X267127461Y-68154748D01*
X267127461Y-68154748D02*
X267127461Y-58734738D01*
X266212553Y-46287487D02*
X266212553Y-57819830D01*
X285950001Y-96550041D02*
X285950001Y-81950041D01*
X286250000Y-96850040D02*
X285950001Y-96550041D01*
X285950001Y-81950041D02*
X284850000Y-80850040D01*
X266350001Y-78550041D02*
X266350001Y-69578801D01*
X267649999Y-68278803D02*
X267649999Y-58043749D01*
X266350001Y-69578801D02*
X267649999Y-68278803D01*
X267649999Y-58043749D02*
X267350000Y-57743750D01*
X266650000Y-78850040D02*
X266350001Y-78550041D01*
X290050000Y-38846827D02*
X289650000Y-39246827D01*
X290050000Y-32840040D02*
X290050000Y-38846827D01*
X289150000Y-31940040D02*
X290050000Y-32840040D01*
X267350000Y-57743750D02*
X266907211Y-57300961D01*
X266907211Y-57300961D02*
X266907211Y-46623039D01*
X266907211Y-46623039D02*
X270250000Y-43280250D01*
X286514017Y-96219839D02*
X286514017Y-81514053D01*
X286514017Y-81514053D02*
X286050004Y-81050040D01*
X290095626Y-99801448D02*
X286514017Y-96219839D01*
X290095626Y-102974989D02*
X290095626Y-99801448D01*
X67450000Y-68450040D02*
X67450000Y-65850039D01*
X69950001Y-40386189D02*
X72625738Y-37710452D01*
X67450000Y-65850039D02*
X70141030Y-63159009D01*
X70141030Y-63159009D02*
X70141026Y-56035708D01*
X70141026Y-56035708D02*
X69950001Y-55844683D01*
X69950001Y-55844683D02*
X69950001Y-40386189D01*
X72625738Y-37710452D02*
X73050002Y-37710452D01*
X57707211Y-76792829D02*
X57707211Y-89084081D01*
X62674101Y-71825939D02*
X57707211Y-76792829D01*
X62674101Y-68759631D02*
X62674101Y-71825939D01*
X57707211Y-89084081D02*
X51495626Y-95295666D01*
X62674101Y-68759631D02*
X59450000Y-65535530D01*
X58778903Y-64067824D02*
X58778903Y-63643560D01*
X59450000Y-64738921D02*
X58778903Y-64067824D01*
X59450000Y-65535530D02*
X59450000Y-64738921D01*
X47350000Y-65350040D02*
X49966541Y-67966581D01*
X49966541Y-67966581D02*
X49966541Y-95533495D01*
X49966541Y-95533495D02*
X49249998Y-96250038D01*
X68080210Y-66141397D02*
X70907211Y-63314396D01*
X70907211Y-52686542D02*
X70507211Y-52286542D01*
X70507211Y-52286542D02*
X70507211Y-40765674D01*
X70907211Y-63314396D02*
X70907211Y-52686542D01*
X70507211Y-40765674D02*
X72799336Y-38473549D01*
X58139382Y-62840454D02*
X58837128Y-62142708D01*
X58716380Y-65373433D02*
X58139382Y-64796435D01*
X58139382Y-64796435D02*
X58139382Y-62840454D01*
X284250000Y-62419830D02*
X285849996Y-60819834D01*
X285849996Y-60819834D02*
X285849996Y-59750040D01*
X270794837Y-69217760D02*
X270794837Y-74905203D01*
X270794837Y-74905203D02*
X269450001Y-76250039D01*
X269450001Y-76250039D02*
X269450001Y-80951883D01*
X56655727Y-55750040D02*
X56547121Y-55858646D01*
X67150000Y-55750040D02*
X56655727Y-55750040D01*
X252387892Y-38065555D02*
X252465515Y-38065555D01*
X245250000Y-56850040D02*
X243392789Y-54992829D01*
X243392789Y-54992829D02*
X243392789Y-47060658D01*
X243392789Y-47060658D02*
X252387892Y-38065555D01*
X56521676Y-55067295D02*
X56510644Y-55056263D01*
X66714433Y-55067295D02*
X56521676Y-55067295D01*
X242935578Y-46564462D02*
X250650000Y-38850040D01*
X244050000Y-56819830D02*
X242935578Y-55705408D01*
X242935578Y-55705408D02*
X242935578Y-46564462D01*
D32*
X67250000Y-44820040D02*
X67250000Y-40650040D01*
X63270000Y-48800040D02*
X67250000Y-44820040D01*
X67853202Y-45234886D02*
X67853202Y-39446840D01*
X64089024Y-48999064D02*
X67853202Y-45234886D01*
X67853202Y-39446840D02*
X67707575Y-39301213D01*
D30*
X54064799Y-70453697D02*
X54064799Y-65361332D01*
X56650000Y-73038898D02*
X54064799Y-70453697D01*
X58096439Y-61329692D02*
X58096439Y-60905428D01*
X56650000Y-74250040D02*
X56650000Y-73038898D01*
X54064799Y-65361332D02*
X58096439Y-61329692D01*
X31650000Y-78813116D02*
X23850000Y-71013116D01*
X28751954Y-86125040D02*
X31650000Y-83226994D01*
X27400000Y-86125040D02*
X28751954Y-86125040D01*
X23850000Y-71013116D02*
X23850000Y-69450040D01*
X31650000Y-83226994D02*
X31650000Y-78813116D01*
D32*
X68456412Y-45484744D02*
X68456412Y-40638065D01*
X64160000Y-52720040D02*
X63848588Y-52408628D01*
X63848588Y-52408628D02*
X63848589Y-50092567D01*
X63848589Y-50092567D02*
X68456412Y-45484744D01*
D30*
X257788968Y-36455701D02*
X257788968Y-36450048D01*
X254850005Y-39394664D02*
X257788968Y-36455701D01*
D32*
X64251799Y-51929101D02*
X64251799Y-50259583D01*
X69250000Y-45261382D02*
X69250000Y-40019830D01*
X64251799Y-50259583D02*
X69250000Y-45261382D01*
X64852265Y-52529567D02*
X64251799Y-51929101D01*
X64852265Y-53127370D02*
X64852265Y-52529567D01*
M02*
