G04 #@! TF.GenerationSoftware,KiCad,Pcbnew,(5.1.10-1-10_14)*
G04 #@! TF.CreationDate,2021-07-02T05:31:03+09:00*
G04 #@! TF.ProjectId,Jones,4a6f6e65-732e-46b6-9963-61645f706362,v.0.3.2*
G04 #@! TF.SameCoordinates,Original*
G04 #@! TF.FileFunction,Copper,L1,Top*
G04 #@! TF.FilePolarity,Positive*
%FSLAX46Y46*%
G04 Gerber Fmt 4.6, Leading zero omitted, Abs format (unit mm)*
G04 Created by KiCad (PCBNEW (5.1.10-1-10_14)) date 2021-07-02 05:31:03*
%MOMM*%
%LPD*%
G01*
G04 APERTURE LIST*
G04 #@! TA.AperFunction,ComponentPad*
%ADD10C,1.000000*%
G04 #@! TD*
G04 #@! TA.AperFunction,ComponentPad*
%ADD11C,4.800000*%
G04 #@! TD*
G04 #@! TA.AperFunction,SMDPad,CuDef*
%ADD12R,1.300000X3.400000*%
G04 #@! TD*
G04 #@! TA.AperFunction,ComponentPad*
%ADD13C,2.250000*%
G04 #@! TD*
G04 #@! TA.AperFunction,ComponentPad*
%ADD14R,1.700000X1.700000*%
G04 #@! TD*
G04 #@! TA.AperFunction,ComponentPad*
%ADD15O,1.700000X1.700000*%
G04 #@! TD*
G04 #@! TA.AperFunction,SMDPad,CuDef*
%ADD16R,1.600000X0.850000*%
G04 #@! TD*
G04 #@! TA.AperFunction,ComponentPad*
%ADD17C,1.500000*%
G04 #@! TD*
G04 #@! TA.AperFunction,ComponentPad*
%ADD18R,2.000000X2.000000*%
G04 #@! TD*
G04 #@! TA.AperFunction,ComponentPad*
%ADD19C,2.000000*%
G04 #@! TD*
G04 #@! TA.AperFunction,ComponentPad*
%ADD20R,2.000000X3.200000*%
G04 #@! TD*
G04 #@! TA.AperFunction,ComponentPad*
%ADD21C,0.700000*%
G04 #@! TD*
G04 #@! TA.AperFunction,ComponentPad*
%ADD22O,0.900000X2.400000*%
G04 #@! TD*
G04 #@! TA.AperFunction,ComponentPad*
%ADD23O,0.900000X1.700000*%
G04 #@! TD*
G04 #@! TA.AperFunction,ViaPad*
%ADD24C,0.600000*%
G04 #@! TD*
G04 #@! TA.AperFunction,Conductor*
%ADD25C,0.381000*%
G04 #@! TD*
G04 #@! TA.AperFunction,Conductor*
%ADD26C,0.254000*%
G04 #@! TD*
G04 APERTURE END LIST*
D10*
X49050000Y-51800000D03*
X46450000Y-51750000D03*
X49050000Y-49100000D03*
X46450000Y-49100000D03*
X47800000Y-52350000D03*
X49700000Y-50450000D03*
X45900000Y-50450000D03*
X47800000Y-48550000D03*
D11*
X47800000Y-50450000D03*
D12*
X52900040Y-92900400D03*
X61600040Y-92900400D03*
D13*
X151790560Y-67335240D03*
X158140560Y-64795240D03*
D14*
X238750000Y-75200000D03*
D15*
X241290000Y-75200000D03*
X243830000Y-75200000D03*
D16*
X27400000Y-63325040D03*
X27400000Y-61575040D03*
X23900000Y-63325040D03*
X23900000Y-61575040D03*
X23900000Y-65775040D03*
X23900000Y-67525040D03*
X27400000Y-65775040D03*
X27400000Y-67525040D03*
X306200000Y-63325040D03*
X306200000Y-61575040D03*
X302700000Y-63325040D03*
X302700000Y-61575040D03*
X302700000Y-65775040D03*
X302700000Y-67525040D03*
X306200000Y-65775040D03*
X306200000Y-67525040D03*
D14*
X94250040Y-76750400D03*
D15*
X94250040Y-74210400D03*
D14*
X102100000Y-74200000D03*
D15*
X102100000Y-76740000D03*
X104640000Y-74200000D03*
X104640000Y-76740000D03*
X107180000Y-74200000D03*
X107180000Y-76740000D03*
D17*
X148500000Y-114960520D03*
X290000000Y-114960520D03*
X196200000Y-114960520D03*
X221700000Y-114960520D03*
X82800000Y-114960520D03*
X169900000Y-114960520D03*
X158050040Y-114960520D03*
X250900000Y-114960520D03*
X59400000Y-114960520D03*
X24900000Y-114960520D03*
X143850000Y-98460520D03*
X143850000Y-100960520D03*
X143850000Y-103450520D03*
X143850000Y-105950520D03*
X143850000Y-108450520D03*
X106850000Y-98450520D03*
X106850000Y-100960520D03*
X106850000Y-103450520D03*
X106850000Y-105950520D03*
X106850000Y-108460520D03*
D10*
X64850000Y-91050000D03*
X60000000Y-86575000D03*
X73650000Y-84050040D03*
X57950000Y-76850040D03*
X57950000Y-80450040D03*
X55950000Y-80450040D03*
X64300000Y-86600000D03*
X66300000Y-97075000D03*
D18*
X300993580Y-100465550D03*
D19*
X298493580Y-100465550D03*
X295993580Y-100465550D03*
D20*
X304093580Y-107965550D03*
X292893580Y-107965550D03*
D19*
X300993580Y-114965550D03*
X295993580Y-114965550D03*
X29271347Y-114952828D03*
X34271347Y-114952828D03*
D20*
X26171347Y-107952828D03*
X37371347Y-107952828D03*
D19*
X29271347Y-100452828D03*
X31771347Y-100452828D03*
D18*
X34271347Y-100452828D03*
D21*
X37800000Y-28190000D03*
X38650000Y-28190000D03*
X39500000Y-28190000D03*
X40350000Y-28190000D03*
X41200000Y-28190000D03*
X42050000Y-28190000D03*
X42900000Y-28190000D03*
X43750000Y-28190000D03*
X38650000Y-26840000D03*
X40350000Y-26840000D03*
X39500000Y-26840000D03*
X37800000Y-26840000D03*
X42050000Y-26840000D03*
X42900000Y-26840000D03*
X43750000Y-26840000D03*
X41200000Y-26840000D03*
D22*
X36450000Y-27210000D03*
X45100000Y-27210000D03*
D23*
X36450000Y-23830000D03*
X45100000Y-23830000D03*
D24*
X48000000Y-30000000D03*
X304914296Y-50597604D03*
X304914298Y-55414298D03*
X104300000Y-60269790D03*
X104300000Y-62980210D03*
X85222996Y-62980210D03*
X85300000Y-60269790D03*
X42350000Y-61850000D03*
X42350000Y-60224998D03*
X133400004Y-105000004D03*
X130220207Y-112420207D03*
X69100000Y-82749998D03*
X62300000Y-74599960D03*
X66629218Y-74625930D03*
X70550000Y-69250000D03*
X59100000Y-28950000D03*
X61500000Y-82800000D03*
X53100000Y-72850000D03*
X30950000Y-62900000D03*
X25149990Y-63325040D03*
X69910021Y-76428149D03*
X70420711Y-61620701D03*
X87700000Y-61620701D03*
X102975000Y-61625000D03*
X87700000Y-60250000D03*
X295902590Y-80302630D03*
X30900000Y-85050000D03*
X28819790Y-65800000D03*
X88970000Y-50700000D03*
X55875000Y-86524998D03*
X55625000Y-96100000D03*
X88960000Y-60240000D03*
X85649997Y-84250043D03*
X88960000Y-80940042D03*
X289550000Y-80500520D03*
X295849998Y-81400520D03*
X104349982Y-80400520D03*
X243830001Y-80380517D03*
X52874996Y-28950036D03*
X63500000Y-71550000D03*
X43199994Y-36600000D03*
X64193710Y-71049947D03*
X42750000Y-34300000D03*
X24300000Y-64549994D03*
X26900009Y-64550000D03*
X33350000Y-27400000D03*
X49774665Y-24818649D03*
X71194790Y-73590528D03*
X71200000Y-54150040D03*
X111214799Y-54195721D03*
X79300000Y-97800000D03*
X71599998Y-94700000D03*
X109160480Y-94900040D03*
X73900000Y-96965888D03*
X67500000Y-74400002D03*
X63750000Y-37550000D03*
X110910480Y-37550040D03*
X41050000Y-54950000D03*
X58699992Y-71900520D03*
X145950000Y-54960520D03*
X79600000Y-96500000D03*
X73850000Y-94600002D03*
X75747114Y-96495756D03*
X145410480Y-94100040D03*
X146039520Y-92400040D03*
X36900000Y-36250000D03*
X24650000Y-103350000D03*
X34750000Y-86249998D03*
X39100000Y-96150000D03*
X60000000Y-34300000D03*
X30282866Y-68922183D03*
X33850000Y-43900000D03*
X55600000Y-46050000D03*
X284830210Y-69030252D03*
X288300000Y-83300040D03*
X300799141Y-48000899D03*
X291390000Y-31100040D03*
X291400000Y-103349998D03*
X300243341Y-55169790D03*
X109550000Y-60950000D03*
X25950000Y-67500000D03*
X109550000Y-79160520D03*
X25400000Y-61499990D03*
X282825000Y-78450520D03*
X292850000Y-59900520D03*
X302700000Y-59900000D03*
X306050000Y-64550000D03*
X302800000Y-64550000D03*
X288862549Y-82417041D03*
X290250041Y-82400520D03*
X30717198Y-84073734D03*
X32800004Y-84050000D03*
X29550000Y-61450040D03*
X30600002Y-76900040D03*
X60000000Y-90200000D03*
X61400000Y-96500000D03*
X255400000Y-84250000D03*
X253300000Y-31350040D03*
X252950000Y-103450040D03*
X263500000Y-58150002D03*
X262800002Y-46050002D03*
X263500000Y-65400000D03*
X205650000Y-65100040D03*
X196150000Y-32100040D03*
X205699998Y-50450006D03*
X222400000Y-98900000D03*
X211950000Y-83700000D03*
X177099996Y-32600000D03*
X174650000Y-86450002D03*
X184600000Y-67350002D03*
X184600000Y-48300000D03*
X169600000Y-109460536D03*
X158050000Y-31700040D03*
X156050000Y-86374994D03*
X165550000Y-67350000D03*
X165549994Y-48300000D03*
X156050000Y-103474990D03*
X119950000Y-88550000D03*
X162700000Y-69950000D03*
X148500000Y-50450000D03*
X119949998Y-33750040D03*
X119950000Y-103150000D03*
X127400000Y-48300000D03*
X127399998Y-67350000D03*
X98750000Y-31300000D03*
X92050000Y-50250036D03*
X97600000Y-86400000D03*
X92050000Y-65475000D03*
X92300005Y-95700005D03*
X93231989Y-91481989D03*
X77850000Y-65250040D03*
X72301648Y-46349937D03*
X78700000Y-108800000D03*
X56700000Y-111600000D03*
X80399988Y-91200000D03*
X65700000Y-110700000D03*
X62852680Y-31721624D03*
X60339480Y-111600000D03*
X66100000Y-62850000D03*
X66100000Y-60200000D03*
X247550000Y-71850000D03*
X247550000Y-74000000D03*
X305124980Y-74225020D03*
X78000000Y-97169790D03*
X76198852Y-97159896D03*
X72900000Y-94600000D03*
X100360480Y-93200040D03*
X234250000Y-98625000D03*
X234250000Y-31400000D03*
X262700000Y-55450000D03*
X262699988Y-69900012D03*
X241950001Y-48300000D03*
X241950001Y-67349999D03*
X234224998Y-84350000D03*
X69900000Y-74750000D03*
X66400000Y-38400000D03*
X104975040Y-38400040D03*
X145500000Y-38400038D03*
X68309050Y-56590990D03*
X68309050Y-74746839D03*
X105950000Y-56650000D03*
X240700000Y-55850000D03*
X240699996Y-40250000D03*
X91419790Y-60244786D03*
X92050000Y-76510520D03*
X90250000Y-60250006D03*
X91350000Y-75350000D03*
X70250000Y-75600000D03*
X55300002Y-76250000D03*
X107200000Y-62350000D03*
X72024998Y-62350000D03*
X69100000Y-74400000D03*
X69100000Y-55850040D03*
X107100000Y-55870233D03*
X239600000Y-39200000D03*
X239600000Y-55850002D03*
X144600000Y-55860520D03*
D25*
X41201552Y-27087911D02*
X41201552Y-26837233D01*
X40351552Y-28187233D02*
X40351552Y-27937911D01*
X40351552Y-27937911D02*
X41201552Y-27087911D01*
X47080375Y-29080375D02*
X48000000Y-30000000D01*
X40749720Y-29080375D02*
X47080375Y-29080375D01*
X40351552Y-28187233D02*
X40351552Y-28682207D01*
X40351552Y-28682207D02*
X40749720Y-29080375D01*
D26*
X304900000Y-50583308D02*
X304914296Y-50597604D01*
X304914296Y-50597604D02*
X304914295Y-55414295D01*
X304914295Y-55414295D02*
X304914298Y-55414298D01*
X104300000Y-60269790D02*
X104300000Y-62980210D01*
X85300000Y-62903206D02*
X85222996Y-62980210D01*
X85300000Y-60269790D02*
X85300000Y-62903206D01*
X42350000Y-61850000D02*
X42350000Y-60224998D01*
X133400004Y-105000004D02*
X133400004Y-109240410D01*
X133400004Y-109240410D02*
X130220207Y-112420207D01*
D25*
X62300000Y-74599960D02*
X66603248Y-74599960D01*
X66603248Y-74599960D02*
X66629218Y-74625930D01*
X303893701Y-67525040D02*
X302700000Y-67525040D01*
X302700000Y-63325040D02*
X303893701Y-64518741D01*
X303893701Y-64518741D02*
X303893701Y-67525040D01*
X69049998Y-82800000D02*
X69100000Y-82749998D01*
X61500000Y-82800000D02*
X69049998Y-82800000D01*
X43151539Y-62901539D02*
X30951539Y-62901539D01*
X53100000Y-72850000D02*
X43151539Y-62901539D01*
X30951539Y-62901539D02*
X30950000Y-62900000D01*
X25150000Y-66600000D02*
X24224960Y-67525040D01*
X24224960Y-67525040D02*
X23900000Y-67525040D01*
X25150000Y-63325040D02*
X25150000Y-66600000D01*
X23900000Y-63325040D02*
X25150000Y-63325040D01*
X23900000Y-63325040D02*
X25149990Y-63325040D01*
X56935958Y-82800000D02*
X61500000Y-82800000D01*
X53100000Y-78964042D02*
X56935958Y-82800000D01*
X53100000Y-72850000D02*
X53100000Y-78964042D01*
X69100000Y-77238170D02*
X69910021Y-76428149D01*
X69100000Y-82749998D02*
X69100000Y-77238170D01*
X70550000Y-69250000D02*
X70550000Y-61749990D01*
X70420711Y-40270711D02*
X70420711Y-61620701D01*
X70550000Y-61749990D02*
X70420711Y-61620701D01*
X102975000Y-68500000D02*
X102975000Y-61625000D01*
X100856299Y-70618701D02*
X102975000Y-68500000D01*
X100856299Y-75496299D02*
X100856299Y-70618701D01*
X102100000Y-76740000D02*
X100856299Y-75496299D01*
X87700000Y-61620701D02*
X87700000Y-60250000D01*
X59100000Y-28950000D02*
X70420711Y-40270711D01*
X303893701Y-67978602D02*
X304823741Y-68908642D01*
X300208012Y-74316309D02*
X296165789Y-78358532D01*
X303893701Y-67525040D02*
X303893701Y-67978602D01*
X296165789Y-80039431D02*
X295902590Y-80302630D01*
X304823741Y-68908642D02*
X304823741Y-72679377D01*
X303186809Y-74316309D02*
X300208012Y-74316309D01*
X304823741Y-72679377D02*
X303186809Y-74316309D01*
X296165789Y-78358532D02*
X296165789Y-80039431D01*
X37801552Y-26837233D02*
X37801552Y-28187233D01*
X43751552Y-26837233D02*
X43751552Y-28187233D01*
X36821552Y-26837233D02*
X36451552Y-27207233D01*
X37801552Y-26837233D02*
X36821552Y-26837233D01*
X36821552Y-27207233D02*
X37801552Y-28187233D01*
X36451552Y-27207233D02*
X36821552Y-27207233D01*
X44731552Y-27207233D02*
X43751552Y-28187233D01*
X45101552Y-27207233D02*
X44731552Y-27207233D01*
X44731552Y-26837233D02*
X45101552Y-27207233D01*
X43751552Y-26837233D02*
X44731552Y-26837233D01*
X306016338Y-61575040D02*
X306200000Y-61575040D01*
X305006299Y-62585079D02*
X306016338Y-61575040D01*
X305006299Y-65775040D02*
X305006299Y-62585079D01*
X306200000Y-65775040D02*
X305006299Y-65775040D01*
X26219000Y-65775040D02*
X26093701Y-65649741D01*
X27400000Y-65775040D02*
X26219000Y-65775040D01*
X26093701Y-65649741D02*
X26093701Y-61700339D01*
X26093701Y-61700339D02*
X26219000Y-61575040D01*
X26219000Y-61575040D02*
X27400000Y-61575040D01*
X27400000Y-65775040D02*
X28794830Y-65775040D01*
X28794830Y-65775040D02*
X28819790Y-65800000D01*
X28750000Y-90400000D02*
X28750000Y-87200000D01*
X31771347Y-93421347D02*
X28750000Y-90400000D01*
X28750000Y-87200000D02*
X30900000Y-85050000D01*
X31771347Y-100452828D02*
X31771347Y-93421347D01*
X52900040Y-92900400D02*
X52741339Y-92741699D01*
X53400000Y-89897762D02*
X53400000Y-88999998D01*
X52741339Y-92741699D02*
X52741339Y-90556423D01*
X52741339Y-90556423D02*
X53400000Y-89897762D01*
X53400000Y-88999998D02*
X55875000Y-86524998D01*
X52900040Y-93375040D02*
X55625000Y-96100000D01*
X52900040Y-92900400D02*
X52900040Y-93375040D01*
X88970000Y-50700000D02*
X88970000Y-60230000D01*
X88970000Y-60230000D02*
X88960000Y-60240000D01*
X35620552Y-23827233D02*
X36451552Y-23827233D01*
X28500000Y-30947785D02*
X35620552Y-23827233D01*
X28500000Y-33200040D02*
X28500000Y-30947785D01*
X27341299Y-61516339D02*
X27341299Y-34358741D01*
X27341299Y-34358741D02*
X28500000Y-33200040D01*
X27400000Y-61575040D02*
X27341299Y-61516339D01*
X85649997Y-84250043D02*
X88960000Y-80940040D01*
X88960000Y-60240000D02*
X88960000Y-80940042D01*
X88960000Y-80940040D02*
X88960000Y-80940042D01*
X289556331Y-87792727D02*
X289556331Y-80506851D01*
X298493580Y-100465550D02*
X298493580Y-96729976D01*
X298493580Y-96729976D02*
X289556331Y-87792727D01*
X289556331Y-80506851D02*
X289550000Y-80500520D01*
X295849998Y-81381902D02*
X295849998Y-81400520D01*
X296750000Y-80481900D02*
X295849998Y-81381902D01*
X296750000Y-78600520D02*
X296750000Y-80481900D01*
X300450000Y-74900520D02*
X296750000Y-78600520D01*
X303428797Y-74900520D02*
X300450000Y-74900520D01*
X305407952Y-72921365D02*
X303428797Y-74900520D01*
X305407952Y-68666654D02*
X305407952Y-72921365D01*
X305006299Y-68265001D02*
X305407952Y-68666654D01*
X305006299Y-65775040D02*
X305006299Y-68265001D01*
X107180000Y-76740000D02*
X104349982Y-79570018D01*
X104349982Y-79570018D02*
X104349982Y-80400520D01*
X243830000Y-75200000D02*
X243830001Y-76402082D01*
X243830001Y-76402082D02*
X243830001Y-80380517D01*
X42901552Y-26837233D02*
X42901552Y-28187233D01*
X38651552Y-26837233D02*
X38651552Y-28187233D01*
X42901552Y-28187233D02*
X42901552Y-26586555D01*
X43874584Y-25613523D02*
X49538483Y-25613523D01*
X42901552Y-26586555D02*
X43874584Y-25613523D01*
X49538483Y-25613523D02*
X52874996Y-28950036D01*
X53417089Y-59217089D02*
X53417089Y-46817095D01*
X63500000Y-71550000D02*
X63500000Y-69300000D01*
X63500000Y-69300000D02*
X53417089Y-59217089D01*
X53417089Y-46817095D02*
X43199994Y-36600000D01*
X64161299Y-71017536D02*
X64161299Y-69135101D01*
X64193710Y-71049947D02*
X64161299Y-71017536D01*
X64161299Y-69135101D02*
X54001300Y-58975102D01*
X54001300Y-45551300D02*
X42750000Y-34300000D01*
X54001300Y-58975102D02*
X54001300Y-45551300D01*
D26*
X23900000Y-64949994D02*
X24300000Y-64549994D01*
X23900000Y-65775040D02*
X23900000Y-64949994D01*
X27400000Y-63325040D02*
X27400000Y-64050009D01*
X27400000Y-64050009D02*
X26900009Y-64550000D01*
X34850000Y-28900000D02*
X33350000Y-27400000D01*
X39501552Y-28682207D02*
X39283759Y-28900000D01*
X39501552Y-28187233D02*
X39501552Y-28682207D01*
X39283759Y-28900000D02*
X34850000Y-28900000D01*
X42051552Y-26837233D02*
X42051552Y-26342259D01*
X49568274Y-25025040D02*
X49774665Y-24818649D01*
X42051552Y-26342259D02*
X43368771Y-25025040D01*
X43368771Y-25025040D02*
X49568274Y-25025040D01*
X71194790Y-73590528D02*
X71330202Y-73455116D01*
X71330202Y-73455116D02*
X71330202Y-54280242D01*
X71330202Y-54280242D02*
X71200000Y-54150040D01*
X111214799Y-71525319D02*
X111214799Y-54195721D01*
X112802412Y-73112932D02*
X111214799Y-71525319D01*
X112802412Y-86358109D02*
X112802412Y-73112932D01*
X111250000Y-87910520D02*
X112802412Y-86358109D01*
X111250000Y-90507113D02*
X111250000Y-87910520D01*
X107930201Y-93826911D02*
X111250000Y-90507113D01*
X107930201Y-102370319D02*
X107930201Y-93826911D01*
X106850000Y-103450520D02*
X107930201Y-102370319D01*
X108387412Y-104413108D02*
X108387412Y-95673108D01*
X106850000Y-105950520D02*
X108387412Y-104413108D01*
X108387412Y-95673108D02*
X109160480Y-94900040D01*
X79300000Y-97800000D02*
X74734112Y-97800000D01*
X74734112Y-97800000D02*
X73900000Y-96965888D01*
X73865886Y-96965888D02*
X73900000Y-96965888D01*
X71599998Y-94700000D02*
X73865886Y-96965888D01*
X67500000Y-74400002D02*
X67500000Y-41300000D01*
X67500000Y-41300000D02*
X63750000Y-37550000D01*
X110584598Y-37875922D02*
X110910480Y-37550040D01*
X110584598Y-71541710D02*
X110584598Y-37875922D01*
X106850000Y-94260520D02*
X110792789Y-90317731D01*
X106850000Y-98450520D02*
X106850000Y-94260520D01*
X110792789Y-90317731D02*
X110792790Y-87721137D01*
X112345201Y-86168727D02*
X112345201Y-73302313D01*
X110792790Y-87721137D02*
X112345201Y-86168727D01*
X112345201Y-73302313D02*
X110584598Y-71541710D01*
X41050000Y-54950000D02*
X41050000Y-57474264D01*
X41050000Y-57474264D02*
X55476256Y-71900520D01*
X55476256Y-71900520D02*
X58699992Y-71900520D01*
X139789799Y-91750319D02*
X139789799Y-74792284D01*
X139789799Y-74792284D02*
X145950000Y-68632083D01*
X144930201Y-96890721D02*
X139789799Y-91750319D01*
X145950000Y-68632083D02*
X145950000Y-54960520D01*
X144930201Y-102370319D02*
X144930201Y-96890721D01*
X143850000Y-103450520D02*
X144930201Y-102370319D01*
X75751358Y-96500000D02*
X75747114Y-96495756D01*
X73850000Y-94600002D02*
X75745754Y-96495756D01*
X79600000Y-96500000D02*
X75751358Y-96500000D01*
X75745754Y-96495756D02*
X75747114Y-96495756D01*
X143850000Y-105950520D02*
X145400000Y-104400520D01*
X145400000Y-104400520D02*
X145400000Y-94110520D01*
X145400000Y-94110520D02*
X145410480Y-94100040D01*
X143850000Y-108450520D02*
X146050000Y-106250520D01*
X146050000Y-92410520D02*
X146039520Y-92400040D01*
X146050000Y-106250520D02*
X146050000Y-92410520D01*
X34750000Y-84987805D02*
X34750000Y-86249998D01*
X32495914Y-82733719D02*
X34750000Y-84987805D01*
X37560942Y-96150000D02*
X39100000Y-96150000D01*
X33600000Y-92189058D02*
X37560942Y-96150000D01*
X33600000Y-90650040D02*
X33600000Y-92189058D01*
X34750000Y-89500040D02*
X33600000Y-90650040D01*
X34750000Y-86249998D02*
X34750000Y-89500040D01*
X31216281Y-82733719D02*
X31230203Y-82719797D01*
X30438926Y-83459173D02*
X24650000Y-89248099D01*
X31216281Y-82733719D02*
X30490827Y-83459173D01*
X30490827Y-83459173D02*
X30438926Y-83459173D01*
X24650000Y-89248099D02*
X24650000Y-103350000D01*
X31280203Y-82530243D02*
X31483679Y-82733719D01*
X31230203Y-82530243D02*
X31280203Y-82530243D01*
X31230203Y-82719797D02*
X31230203Y-82530243D01*
X31483679Y-82733719D02*
X32495914Y-82733719D01*
X31216281Y-82733719D02*
X31483679Y-82733719D01*
X29982867Y-69222182D02*
X30282866Y-68922183D01*
X31230203Y-75430243D02*
X29982867Y-74182907D01*
X29982867Y-74182907D02*
X29982867Y-69222182D01*
X31230203Y-82530243D02*
X31230203Y-75430243D01*
X30250001Y-47499999D02*
X33850000Y-43900000D01*
X30282866Y-68922183D02*
X30250001Y-68889318D01*
X36900000Y-40850000D02*
X33850000Y-43900000D01*
X30250001Y-68889318D02*
X30250001Y-47499999D01*
X36900000Y-36250000D02*
X36900000Y-40850000D01*
X60000000Y-41650000D02*
X55600000Y-46050000D01*
X60000000Y-34300000D02*
X60000000Y-41650000D01*
X291390000Y-37390040D02*
X291390000Y-31100040D01*
X300799141Y-46799181D02*
X291390000Y-37390040D01*
X300799141Y-48000899D02*
X300799141Y-46799181D01*
X284830210Y-69030252D02*
X295710422Y-58150040D01*
X300799141Y-48000899D02*
X300799141Y-51940969D01*
X295710422Y-58150040D02*
X297263091Y-58150040D01*
X300243341Y-52496769D02*
X300243341Y-55169790D01*
X300799141Y-51940969D02*
X300243341Y-52496769D01*
X297263091Y-58150040D02*
X300243341Y-55169790D01*
X284830210Y-69030252D02*
X284830210Y-79830250D01*
X284830210Y-79830250D02*
X288300000Y-83300040D01*
X291400000Y-91460520D02*
X291400000Y-103349998D01*
X288300000Y-88360520D02*
X291400000Y-91460520D01*
X288300000Y-83300040D02*
X288300000Y-88360520D01*
X27400000Y-67525040D02*
X25975040Y-67525040D01*
X25975040Y-67525040D02*
X25950000Y-67500000D01*
X109550000Y-60950000D02*
X109550000Y-79160520D01*
X23900000Y-61575040D02*
X25324950Y-61575040D01*
X25324950Y-61575040D02*
X25400000Y-61499990D01*
X284149999Y-68600521D02*
X284149999Y-77125521D01*
X284149999Y-77125521D02*
X282825000Y-78450520D01*
X292850000Y-59900520D02*
X284149999Y-68600521D01*
X302700000Y-59900000D02*
X302700000Y-61575040D01*
X306200000Y-64400000D02*
X306050000Y-64550000D01*
X306200000Y-63325040D02*
X306200000Y-64400000D01*
X302800000Y-65675040D02*
X302700000Y-65775040D01*
X302800000Y-64550000D02*
X302800000Y-65675040D01*
X288949999Y-88150039D02*
X288949999Y-82504491D01*
X295993580Y-100465550D02*
X295993580Y-95193620D01*
X295993580Y-95193620D02*
X288949999Y-88150039D01*
X288949999Y-82504491D02*
X288862549Y-82417041D01*
X290250041Y-87550081D02*
X290250041Y-82400520D01*
X300993580Y-100465550D02*
X300993580Y-98293620D01*
X300993580Y-98293620D02*
X290250041Y-87550081D01*
X28150000Y-90400040D02*
X28150000Y-86640932D01*
X28150000Y-86640932D02*
X30717198Y-84073734D01*
X27037979Y-91512061D02*
X28150000Y-90400040D01*
X27037979Y-98219460D02*
X27037979Y-91512061D01*
X29271347Y-100452828D02*
X27037979Y-98219460D01*
X29350000Y-87500004D02*
X32800004Y-84050000D01*
X29350000Y-90163604D02*
X29350000Y-87500004D01*
X34271347Y-100452828D02*
X34252828Y-100452828D01*
X32300000Y-93113604D02*
X29350000Y-90163604D01*
X32300000Y-98500000D02*
X32300000Y-93113604D01*
X34252828Y-100452828D02*
X32300000Y-98500000D01*
X30600002Y-75650042D02*
X30600002Y-76900040D01*
X29480202Y-74530242D02*
X30600002Y-75650042D01*
X29480202Y-61519838D02*
X29480202Y-74530242D01*
X29550000Y-61450040D02*
X29480202Y-61519838D01*
X60000000Y-90200000D02*
X60000000Y-92600000D01*
X60300400Y-92900400D02*
X61600040Y-92900400D01*
X60000000Y-92600000D02*
X60300400Y-92900400D01*
X61600040Y-92900400D02*
X61600040Y-96299960D01*
X61600040Y-96299960D02*
X61400000Y-96500000D01*
X255400000Y-84250000D02*
X252950000Y-86700000D01*
X252950000Y-86700000D02*
X252950000Y-103450040D01*
X253300000Y-31350040D02*
X253300000Y-36550000D01*
X263500000Y-58150002D02*
X263500000Y-46750000D01*
X253300000Y-36550000D02*
X262800002Y-46050002D01*
X263500000Y-46750000D02*
X262800002Y-46050002D01*
X263500000Y-76150000D02*
X263500000Y-65400000D01*
X255400000Y-84250000D02*
X263500000Y-76150000D01*
X263500000Y-58150002D02*
X263500000Y-65400000D01*
X205650000Y-50500004D02*
X205699998Y-50450006D01*
X205699998Y-41650038D02*
X205699998Y-50450006D01*
X205650000Y-65100040D02*
X205650000Y-50500004D01*
X196150000Y-32100040D02*
X205699998Y-41650038D01*
X211950000Y-88450000D02*
X211950000Y-83700000D01*
X222400000Y-98900000D02*
X211950000Y-88450000D01*
X205650000Y-77400000D02*
X211950000Y-83700000D01*
X205650000Y-65100040D02*
X205650000Y-77400000D01*
X174650000Y-77300002D02*
X184600000Y-67350002D01*
X174650000Y-86450002D02*
X174650000Y-77300002D01*
X177099996Y-32600000D02*
X184600000Y-40100004D01*
X184600000Y-67350002D02*
X184600000Y-48300000D01*
X184600000Y-40100004D02*
X184600000Y-48300000D01*
X170524264Y-109460536D02*
X169600000Y-109460536D01*
X174650000Y-104535770D02*
X171800000Y-107385770D01*
X171800000Y-108184800D02*
X170524264Y-109460536D01*
X171800000Y-107385770D02*
X171800000Y-108184800D01*
X174650000Y-86450002D02*
X174650000Y-104535770D01*
X156050000Y-86374994D02*
X165550000Y-76874994D01*
X165550000Y-76874994D02*
X165550000Y-67350000D01*
X165550000Y-67350000D02*
X165550000Y-48300006D01*
X165550000Y-48300006D02*
X165549994Y-48300000D01*
X158050000Y-31700040D02*
X165549994Y-39200034D01*
X165549994Y-39200034D02*
X165549994Y-48300000D01*
X156050000Y-86374994D02*
X156050000Y-103474990D01*
X148500000Y-50874264D02*
X151790560Y-54164824D01*
X148500000Y-50450000D02*
X148500000Y-50874264D01*
X151790560Y-62440560D02*
X151790560Y-62540560D01*
X152009440Y-62759440D02*
X151790560Y-62759440D01*
X151790560Y-62440560D02*
X151790560Y-62759440D01*
X151790560Y-54164824D02*
X151790560Y-62440560D01*
X151790560Y-63109440D02*
X151790560Y-62978320D01*
X151790560Y-62759440D02*
X151790560Y-63109440D01*
X151790560Y-63109440D02*
X151790560Y-67335240D01*
X158258458Y-62759440D02*
X152009440Y-62759440D01*
X162700000Y-67200982D02*
X158258458Y-62759440D01*
X162700000Y-69950000D02*
X162700000Y-67200982D01*
X151790560Y-62978320D02*
X152009440Y-62759440D01*
X151790560Y-62540560D02*
X152009440Y-62759440D01*
X119950000Y-88550000D02*
X119950000Y-103150000D01*
X127400000Y-41200042D02*
X127400000Y-48300000D01*
X119949998Y-33750040D02*
X127400000Y-41200042D01*
X127400000Y-48300000D02*
X127400000Y-67349998D01*
X127400000Y-67349998D02*
X127399998Y-67350000D01*
X127399998Y-69750002D02*
X127399998Y-67350000D01*
X119950000Y-77200000D02*
X127399998Y-69750002D01*
X119950000Y-88550000D02*
X119950000Y-77200000D01*
X98750000Y-31300000D02*
X92050000Y-38000000D01*
X92050000Y-38000000D02*
X92050000Y-50250036D01*
X93231989Y-91481989D02*
X97600000Y-87113978D01*
X97600000Y-87113978D02*
X97600000Y-86400000D01*
X92050000Y-65475000D02*
X92050000Y-50250036D01*
X93231989Y-91481989D02*
X93231989Y-94768021D01*
X93231989Y-94768021D02*
X92300005Y-95700005D01*
X92680202Y-74930202D02*
X92050000Y-74300000D01*
X92050000Y-74300000D02*
X92050000Y-65475000D01*
X92680202Y-81480202D02*
X92680202Y-74930202D01*
X97600000Y-86400000D02*
X92680202Y-81480202D01*
X77850000Y-65250040D02*
X72330202Y-59730242D01*
X72330202Y-46378491D02*
X72301648Y-46349937D01*
X72330202Y-59730242D02*
X72330202Y-46378491D01*
X78700000Y-108800000D02*
X80399988Y-107100012D01*
X80399988Y-90775736D02*
X80399988Y-91200000D01*
X77850000Y-65250040D02*
X79062132Y-65250040D01*
X79062132Y-65250040D02*
X82650000Y-68837908D01*
X82650000Y-68837908D02*
X82650000Y-88525724D01*
X82650000Y-88525724D02*
X80399988Y-90775736D01*
X80399988Y-107100012D02*
X80399988Y-91200000D01*
X64800000Y-111600000D02*
X65700000Y-110700000D01*
X56700000Y-111600000D02*
X64800000Y-111600000D01*
X72301648Y-46349937D02*
X72301648Y-41170592D01*
X72301648Y-41170592D02*
X62852680Y-31721624D01*
X66100000Y-62850000D02*
X66100000Y-60200000D01*
X247550000Y-71850000D02*
X247550000Y-74000000D01*
X306200000Y-67525040D02*
X306200000Y-73150000D01*
X306200000Y-73150000D02*
X305124980Y-74225020D01*
X78000000Y-97169790D02*
X76208746Y-97169790D01*
X76208746Y-97169790D02*
X76198852Y-97159896D01*
X75459896Y-97159896D02*
X72900000Y-94600000D01*
X76198852Y-97159896D02*
X75459896Y-97159896D01*
X106850000Y-108450520D02*
X105450000Y-107050520D01*
X105450000Y-107050520D02*
X105450000Y-100210520D01*
X100360480Y-95121000D02*
X100360480Y-93200040D01*
X105450000Y-100210520D02*
X100360480Y-95121000D01*
X262700000Y-55450000D02*
X262700000Y-69900000D01*
X262700000Y-69900000D02*
X262699988Y-69900012D01*
X234250000Y-31400000D02*
X234250000Y-31824264D01*
X241950001Y-39524265D02*
X241950001Y-48300000D01*
X234250000Y-31824264D02*
X241950001Y-39524265D01*
X241950001Y-67349999D02*
X241950001Y-48300000D01*
X234250000Y-84375002D02*
X234224998Y-84350000D01*
X234250000Y-98625000D02*
X234250000Y-84375002D01*
X236650000Y-81924998D02*
X234224998Y-84350000D01*
X241950001Y-68400519D02*
X236650000Y-73700520D01*
X236650000Y-73700520D02*
X236650000Y-81924998D01*
X241950001Y-67349999D02*
X241950001Y-68400519D01*
X69790508Y-74640508D02*
X69790508Y-41790508D01*
X69790508Y-41790508D02*
X66400000Y-38400000D01*
X69900000Y-74750000D02*
X69790508Y-74640508D01*
X105000000Y-38425000D02*
X104975040Y-38400040D01*
X102100000Y-74200000D02*
X105000000Y-71300000D01*
X105000000Y-71300000D02*
X105000000Y-38425000D01*
X145319798Y-38580240D02*
X145500000Y-38400038D01*
X145319798Y-68615692D02*
X145319798Y-38580240D01*
X139307211Y-93907731D02*
X139307211Y-74628279D01*
X139307211Y-74628279D02*
X145319798Y-68615692D01*
X143850000Y-98450520D02*
X139307211Y-93907731D01*
X68309050Y-74746839D02*
X68309050Y-56590990D01*
X105457209Y-73382791D02*
X105457209Y-57142791D01*
X105457209Y-57142791D02*
X105950000Y-56650000D01*
X104640000Y-74200000D02*
X105457209Y-73382791D01*
X240700000Y-40250004D02*
X240699996Y-40250000D01*
X240700000Y-55850000D02*
X240700000Y-40250004D01*
X103400000Y-75440000D02*
X104640000Y-74200000D01*
X103400000Y-77186698D02*
X103400000Y-75440000D01*
X101689799Y-78896899D02*
X103400000Y-77186698D01*
X101689799Y-95790319D02*
X101689799Y-78896899D01*
X106850000Y-100950520D02*
X101689799Y-95790319D01*
X92050000Y-75117300D02*
X92050000Y-76510520D01*
X91419790Y-74487090D02*
X92050000Y-75117300D01*
X91419790Y-60244786D02*
X91419790Y-74487090D01*
X91350000Y-75350000D02*
X90250000Y-74250000D01*
X90250000Y-74250000D02*
X90250000Y-60250006D01*
X70250000Y-75600000D02*
X55950002Y-75600000D01*
X55950002Y-75600000D02*
X55300002Y-76250000D01*
X107180000Y-62370000D02*
X107200000Y-62350000D01*
X107180000Y-74200000D02*
X107180000Y-62370000D01*
X70250000Y-75600000D02*
X72024998Y-73825002D01*
X72024998Y-73825002D02*
X72024998Y-62350000D01*
X69100000Y-74400000D02*
X69100000Y-55850040D01*
X105914420Y-57610580D02*
X107100000Y-56425000D01*
X107100000Y-56425000D02*
X107100000Y-55870233D01*
X105914420Y-75465580D02*
X105914420Y-57610580D01*
X104640000Y-76740000D02*
X105914420Y-75465580D01*
X239600000Y-39200000D02*
X239600000Y-55850002D01*
X138850000Y-74438898D02*
X144600000Y-68688898D01*
X144600000Y-68688898D02*
X144600000Y-55860520D01*
X138850000Y-95950520D02*
X138850000Y-74438898D01*
X143850000Y-100950520D02*
X138850000Y-95950520D01*
M02*
