G04 #@! TF.GenerationSoftware,KiCad,Pcbnew,(5.1.9-0-10_14)*
G04 #@! TF.CreationDate,2021-01-10T18:11:49+09:00*
G04 #@! TF.ProjectId,Jones,4a6f6e65-732e-46b6-9963-61645f706362,v.0.3.2*
G04 #@! TF.SameCoordinates,Original*
G04 #@! TF.FileFunction,Legend,Top*
G04 #@! TF.FilePolarity,Positive*
%FSLAX46Y46*%
G04 Gerber Fmt 4.6, Leading zero omitted, Abs format (unit mm)*
G04 Created by KiCad (PCBNEW (5.1.9-0-10_14)) date 2021-01-10 18:11:49*
%MOMM*%
%LPD*%
G01*
G04 APERTURE LIST*
%ADD10C,0.120000*%
%ADD11C,0.150000*%
%ADD12C,0.100000*%
%ADD13C,1.500000*%
%ADD14O,5.600000X2.800000*%
%ADD15C,1.400000*%
%ADD16O,7.400240X5.400000*%
%ADD17C,5.400000*%
%ADD18C,3.400000*%
%ADD19C,4.387800*%
%ADD20C,2.150000*%
%ADD21C,2.400000*%
%ADD22C,1.100000*%
%ADD23O,1.300000X2.800000*%
%ADD24O,1.300000X2.100000*%
%ADD25C,3.448000*%
%ADD26O,1.400000X1.400000*%
%ADD27C,2.000000*%
G04 APERTURE END LIST*
D10*
X298493580Y-107465550D02*
X298493580Y-108465550D01*
X298993580Y-107965550D02*
X297993580Y-107965550D01*
X294993580Y-114065550D02*
X292593580Y-114065550D01*
X299793580Y-114065550D02*
X297193580Y-114065550D01*
X304393580Y-114065550D02*
X301993580Y-114065550D01*
X302593580Y-100765550D02*
X302293580Y-100465550D01*
X302593580Y-100165550D02*
X302593580Y-100765550D01*
X302293580Y-100465550D02*
X302593580Y-100165550D01*
X304393580Y-101865550D02*
X292593580Y-101865550D01*
X304393580Y-105965550D02*
X304393580Y-101865550D01*
X292593580Y-105965550D02*
X292593580Y-101865550D01*
X292593580Y-114065550D02*
X292593580Y-109965550D01*
X304393580Y-109965550D02*
X304393580Y-114065550D01*
X301493580Y-107965550D02*
G75*
G03*
X301493580Y-107965550I-3000000J0D01*
G01*
D11*
X307920000Y-36120040D02*
X307920000Y-25960040D01*
X305380000Y-36120040D02*
X305380000Y-25960040D01*
X305380000Y-25960040D02*
X307920000Y-25960040D01*
X307920000Y-36120040D02*
X305380000Y-36120040D01*
D10*
X51240000Y-87890040D02*
X50910000Y-87890040D01*
X51240000Y-94460040D02*
X51240000Y-91810040D01*
X60460000Y-94460040D02*
X51240000Y-94460040D01*
X60460000Y-91810040D02*
X60460000Y-94460040D01*
X60460000Y-85240040D02*
X60460000Y-87890040D01*
X51240000Y-85240040D02*
X60460000Y-85240040D01*
X51240000Y-87890040D02*
X51240000Y-85240040D01*
X34771347Y-107952828D02*
G75*
G03*
X34771347Y-107952828I-3000000J0D01*
G01*
X37671347Y-109952828D02*
X37671347Y-114052828D01*
X25871347Y-114052828D02*
X25871347Y-109952828D01*
X25871347Y-105952828D02*
X25871347Y-101852828D01*
X37671347Y-105952828D02*
X37671347Y-101852828D01*
X37671347Y-101852828D02*
X25871347Y-101852828D01*
X35571347Y-100452828D02*
X35871347Y-100152828D01*
X35871347Y-100152828D02*
X35871347Y-100752828D01*
X35871347Y-100752828D02*
X35571347Y-100452828D01*
X37671347Y-114052828D02*
X35271347Y-114052828D01*
X33071347Y-114052828D02*
X30471347Y-114052828D01*
X28271347Y-114052828D02*
X25871347Y-114052828D01*
X32271347Y-107952828D02*
X31271347Y-107952828D01*
X31771347Y-107452828D02*
X31771347Y-108452828D01*
X271830323Y-39640000D02*
X271755000Y-39640000D01*
X271755000Y-39640000D02*
X271755000Y-38520000D01*
X271755000Y-38520000D02*
X278225000Y-38520000D01*
X278225000Y-38520000D02*
X278225000Y-39640000D01*
X278225000Y-39640000D02*
X278149677Y-39640000D01*
X272190000Y-38520000D02*
X272190000Y-34520000D01*
X272190000Y-34520000D02*
X272710000Y-34520000D01*
X272710000Y-34520000D02*
X272710000Y-38520000D01*
X272250000Y-38520000D02*
X272250000Y-34520000D01*
X272370000Y-38520000D02*
X272370000Y-34520000D01*
X272490000Y-38520000D02*
X272490000Y-34520000D01*
X272610000Y-38520000D02*
X272610000Y-34520000D01*
X273085000Y-39640000D02*
X273085000Y-38520000D01*
X273069677Y-39640000D02*
X273100323Y-39640000D01*
X273460000Y-38520000D02*
X273460000Y-34520000D01*
X273460000Y-34520000D02*
X273980000Y-34520000D01*
X273980000Y-34520000D02*
X273980000Y-38520000D01*
X274355000Y-39640000D02*
X274355000Y-38520000D01*
X274339677Y-39640000D02*
X274370323Y-39640000D01*
X274730000Y-38520000D02*
X274730000Y-34520000D01*
X274730000Y-34520000D02*
X275250000Y-34520000D01*
X275250000Y-34520000D02*
X275250000Y-38520000D01*
X275625000Y-39640000D02*
X275625000Y-38520000D01*
X275609677Y-39640000D02*
X275640323Y-39640000D01*
X276000000Y-38520000D02*
X276000000Y-34520000D01*
X276000000Y-34520000D02*
X276520000Y-34520000D01*
X276520000Y-34520000D02*
X276520000Y-38520000D01*
X276895000Y-39640000D02*
X276895000Y-38520000D01*
X276879677Y-39640000D02*
X276910323Y-39640000D01*
X277270000Y-38520000D02*
X277270000Y-34520000D01*
X277270000Y-34520000D02*
X277790000Y-34520000D01*
X277790000Y-34520000D02*
X277790000Y-38520000D01*
X272450000Y-42110000D02*
X271690000Y-42110000D01*
X271690000Y-42110000D02*
X271690000Y-41350000D01*
X283890000Y-42110000D02*
X283890000Y-41350000D01*
X284650000Y-42110000D02*
X283890000Y-42110000D01*
X289990000Y-34520000D02*
X289990000Y-38520000D01*
X289470000Y-34520000D02*
X289990000Y-34520000D01*
X289470000Y-38520000D02*
X289470000Y-34520000D01*
X289079677Y-39640000D02*
X289110323Y-39640000D01*
X289095000Y-39640000D02*
X289095000Y-38520000D01*
X288720000Y-34520000D02*
X288720000Y-38520000D01*
X288200000Y-34520000D02*
X288720000Y-34520000D01*
X288200000Y-38520000D02*
X288200000Y-34520000D01*
X287809677Y-39640000D02*
X287840323Y-39640000D01*
X287825000Y-39640000D02*
X287825000Y-38520000D01*
X287450000Y-34520000D02*
X287450000Y-38520000D01*
X286930000Y-34520000D02*
X287450000Y-34520000D01*
X286930000Y-38520000D02*
X286930000Y-34520000D01*
X286539677Y-39640000D02*
X286570323Y-39640000D01*
X286555000Y-39640000D02*
X286555000Y-38520000D01*
X286180000Y-34520000D02*
X286180000Y-38520000D01*
X285660000Y-34520000D02*
X286180000Y-34520000D01*
X285660000Y-38520000D02*
X285660000Y-34520000D01*
X285269677Y-39640000D02*
X285300323Y-39640000D01*
X285285000Y-39640000D02*
X285285000Y-38520000D01*
X284810000Y-38520000D02*
X284810000Y-34520000D01*
X284690000Y-38520000D02*
X284690000Y-34520000D01*
X284570000Y-38520000D02*
X284570000Y-34520000D01*
X284450000Y-38520000D02*
X284450000Y-34520000D01*
X284910000Y-34520000D02*
X284910000Y-38520000D01*
X284390000Y-34520000D02*
X284910000Y-34520000D01*
X284390000Y-38520000D02*
X284390000Y-34520000D01*
X290425000Y-39640000D02*
X290349677Y-39640000D01*
X290425000Y-38520000D02*
X290425000Y-39640000D01*
X283955000Y-38520000D02*
X290425000Y-38520000D01*
X283955000Y-39640000D02*
X283955000Y-38520000D01*
X284030323Y-39640000D02*
X283955000Y-39640000D01*
X22700000Y-60500040D02*
X22700000Y-61575040D01*
X28600000Y-60500040D02*
X22700000Y-60500040D01*
X28600000Y-64400040D02*
X22700000Y-64400040D01*
D12*
G36*
X22700000Y-60500040D02*
G01*
X23700000Y-60500040D01*
X22700000Y-61500040D01*
X22700000Y-60500040D01*
G37*
X22700000Y-60500040D02*
X23700000Y-60500040D01*
X22700000Y-61500040D01*
X22700000Y-60500040D01*
G36*
X22700000Y-64700040D02*
G01*
X23700000Y-64700040D01*
X22700000Y-65700040D01*
X22700000Y-64700040D01*
G37*
X22700000Y-64700040D02*
X23700000Y-64700040D01*
X22700000Y-65700040D01*
X22700000Y-64700040D01*
D10*
X28600000Y-68600040D02*
X22700000Y-68600040D01*
X28600000Y-64700040D02*
X22700000Y-64700040D01*
X22700000Y-64700040D02*
X22700000Y-65775040D01*
X22700000Y-83300040D02*
X22700000Y-84375040D01*
X28600000Y-83300040D02*
X22700000Y-83300040D01*
X28600000Y-87200040D02*
X22700000Y-87200040D01*
D12*
G36*
X22700000Y-83300040D02*
G01*
X23700000Y-83300040D01*
X22700000Y-84300040D01*
X22700000Y-83300040D01*
G37*
X22700000Y-83300040D02*
X23700000Y-83300040D01*
X22700000Y-84300040D01*
X22700000Y-83300040D01*
G36*
X22700000Y-87500040D02*
G01*
X23700000Y-87500040D01*
X22700000Y-88500040D01*
X22700000Y-87500040D01*
G37*
X22700000Y-87500040D02*
X23700000Y-87500040D01*
X22700000Y-88500040D01*
X22700000Y-87500040D01*
D10*
X28600000Y-91400040D02*
X22700000Y-91400040D01*
X28600000Y-87500040D02*
X22700000Y-87500040D01*
X22700000Y-87500040D02*
X22700000Y-88575040D01*
D12*
G36*
X301500000Y-41300040D02*
G01*
X302500000Y-41300040D01*
X301500000Y-42300040D01*
X301500000Y-41300040D01*
G37*
X301500000Y-41300040D02*
X302500000Y-41300040D01*
X301500000Y-42300040D01*
X301500000Y-41300040D01*
D10*
X307400000Y-45200040D02*
X301500000Y-45200040D01*
X307400000Y-41300040D02*
X301500000Y-41300040D01*
X301500000Y-41300040D02*
X301500000Y-42375040D01*
X301500000Y-45500040D02*
X301500000Y-46575040D01*
X307400000Y-45500040D02*
X301500000Y-45500040D01*
X307400000Y-49400040D02*
X301500000Y-49400040D01*
D12*
G36*
X301500000Y-45500040D02*
G01*
X302500000Y-45500040D01*
X301500000Y-46500040D01*
X301500000Y-45500040D01*
G37*
X301500000Y-45500040D02*
X302500000Y-45500040D01*
X301500000Y-46500040D01*
X301500000Y-45500040D01*
D10*
X301500000Y-60500040D02*
X301500000Y-61575040D01*
X307400000Y-60500040D02*
X301500000Y-60500040D01*
X307400000Y-64400040D02*
X301500000Y-64400040D01*
D12*
G36*
X301500000Y-60500040D02*
G01*
X302500000Y-60500040D01*
X301500000Y-61500040D01*
X301500000Y-60500040D01*
G37*
X301500000Y-60500040D02*
X302500000Y-60500040D01*
X301500000Y-61500040D01*
X301500000Y-60500040D01*
G36*
X301500000Y-64700040D02*
G01*
X302500000Y-64700040D01*
X301500000Y-65700040D01*
X301500000Y-64700040D01*
G37*
X301500000Y-64700040D02*
X302500000Y-64700040D01*
X301500000Y-65700040D01*
X301500000Y-64700040D01*
D10*
X307400000Y-68600040D02*
X301500000Y-68600040D01*
X307400000Y-64700040D02*
X301500000Y-64700040D01*
X301500000Y-64700040D02*
X301500000Y-65775040D01*
D11*
X292783333Y-103054801D02*
X292926190Y-103102420D01*
X293164285Y-103102420D01*
X293259523Y-103054801D01*
X293307142Y-103007182D01*
X293354761Y-102911944D01*
X293354761Y-102816706D01*
X293307142Y-102721468D01*
X293259523Y-102673849D01*
X293164285Y-102626230D01*
X292973809Y-102578611D01*
X292878571Y-102530992D01*
X292830952Y-102483373D01*
X292783333Y-102388135D01*
X292783333Y-102292897D01*
X292830952Y-102197659D01*
X292878571Y-102150040D01*
X292973809Y-102102420D01*
X293211904Y-102102420D01*
X293354761Y-102150040D01*
X293688095Y-102102420D02*
X293926190Y-103102420D01*
X294116666Y-102388135D01*
X294307142Y-103102420D01*
X294545238Y-102102420D01*
X294688095Y-103197659D02*
X295450000Y-103197659D01*
X296259523Y-103102420D02*
X295926190Y-102626230D01*
X295688095Y-103102420D02*
X295688095Y-102102420D01*
X296069047Y-102102420D01*
X296164285Y-102150040D01*
X296211904Y-102197659D01*
X296259523Y-102292897D01*
X296259523Y-102435754D01*
X296211904Y-102530992D01*
X296164285Y-102578611D01*
X296069047Y-102626230D01*
X295688095Y-102626230D01*
X296688095Y-102578611D02*
X297021428Y-102578611D01*
X297164285Y-103102420D02*
X296688095Y-103102420D01*
X296688095Y-102102420D01*
X297164285Y-102102420D01*
X298116666Y-103102420D02*
X297545238Y-103102420D01*
X297830952Y-103102420D02*
X297830952Y-102102420D01*
X297735714Y-102245278D01*
X297640476Y-102340516D01*
X297545238Y-102388135D01*
X304769504Y-36604895D02*
X304924323Y-36604895D01*
X305001733Y-36643600D01*
X305079142Y-36721009D01*
X305117847Y-36875828D01*
X305117847Y-37146761D01*
X305079142Y-37301580D01*
X305001733Y-37378990D01*
X304924323Y-37417695D01*
X304769504Y-37417695D01*
X304692095Y-37378990D01*
X304614685Y-37301580D01*
X304575980Y-37146761D01*
X304575980Y-36875828D01*
X304614685Y-36721009D01*
X304692095Y-36643600D01*
X304769504Y-36604895D01*
X305853238Y-37417695D02*
X305466190Y-37417695D01*
X305466190Y-36604895D01*
X306124171Y-36991942D02*
X306395104Y-36991942D01*
X306511219Y-37417695D02*
X306124171Y-37417695D01*
X306124171Y-36604895D01*
X306511219Y-36604895D01*
X306859561Y-37417695D02*
X306859561Y-36604895D01*
X307053085Y-36604895D01*
X307169200Y-36643600D01*
X307246609Y-36721009D01*
X307285314Y-36798419D01*
X307324019Y-36953238D01*
X307324019Y-37069352D01*
X307285314Y-37224171D01*
X307246609Y-37301580D01*
X307169200Y-37378990D01*
X307053085Y-37417695D01*
X306859561Y-37417695D01*
X302735714Y-36354761D02*
X302878571Y-36402380D01*
X303116666Y-36402380D01*
X303211904Y-36354761D01*
X303259523Y-36307142D01*
X303307142Y-36211904D01*
X303307142Y-36116666D01*
X303259523Y-36021428D01*
X303211904Y-35973809D01*
X303116666Y-35926190D01*
X302926190Y-35878571D01*
X302830952Y-35830952D01*
X302783333Y-35783333D01*
X302735714Y-35688095D01*
X302735714Y-35592857D01*
X302783333Y-35497619D01*
X302830952Y-35450000D01*
X302926190Y-35402380D01*
X303164285Y-35402380D01*
X303307142Y-35450000D01*
X303735714Y-36402380D02*
X303735714Y-35402380D01*
X303973809Y-35402380D01*
X304116666Y-35450000D01*
X304211904Y-35545238D01*
X304259523Y-35640476D01*
X304307142Y-35830952D01*
X304307142Y-35973809D01*
X304259523Y-36164285D01*
X304211904Y-36259523D01*
X304116666Y-36354761D01*
X303973809Y-36402380D01*
X303735714Y-36402380D01*
X304688095Y-36116666D02*
X305164285Y-36116666D01*
X304592857Y-36402380D02*
X304926190Y-35402380D01*
X305259523Y-36402380D01*
X302659523Y-33854761D02*
X302802380Y-33902380D01*
X303040476Y-33902380D01*
X303135714Y-33854761D01*
X303183333Y-33807142D01*
X303230952Y-33711904D01*
X303230952Y-33616666D01*
X303183333Y-33521428D01*
X303135714Y-33473809D01*
X303040476Y-33426190D01*
X302850000Y-33378571D01*
X302754761Y-33330952D01*
X302707142Y-33283333D01*
X302659523Y-33188095D01*
X302659523Y-33092857D01*
X302707142Y-32997619D01*
X302754761Y-32950000D01*
X302850000Y-32902380D01*
X303088095Y-32902380D01*
X303230952Y-32950000D01*
X304230952Y-33807142D02*
X304183333Y-33854761D01*
X304040476Y-33902380D01*
X303945238Y-33902380D01*
X303802380Y-33854761D01*
X303707142Y-33759523D01*
X303659523Y-33664285D01*
X303611904Y-33473809D01*
X303611904Y-33330952D01*
X303659523Y-33140476D01*
X303707142Y-33045238D01*
X303802380Y-32950000D01*
X303945238Y-32902380D01*
X304040476Y-32902380D01*
X304183333Y-32950000D01*
X304230952Y-32997619D01*
X305135714Y-33902380D02*
X304659523Y-33902380D01*
X304659523Y-32902380D01*
X302414285Y-29921428D02*
X303176190Y-29921428D01*
X302795238Y-30302380D02*
X302795238Y-29540476D01*
X304128571Y-29302380D02*
X303652380Y-29302380D01*
X303604761Y-29778571D01*
X303652380Y-29730952D01*
X303747619Y-29683333D01*
X303985714Y-29683333D01*
X304080952Y-29730952D01*
X304128571Y-29778571D01*
X304176190Y-29873809D01*
X304176190Y-30111904D01*
X304128571Y-30207142D01*
X304080952Y-30254761D01*
X303985714Y-30302380D01*
X303747619Y-30302380D01*
X303652380Y-30254761D01*
X303604761Y-30207142D01*
X304461904Y-29302380D02*
X304795238Y-30302380D01*
X305128571Y-29302380D01*
X303088095Y-26800000D02*
X302992857Y-26752380D01*
X302850000Y-26752380D01*
X302707142Y-26800000D01*
X302611904Y-26895238D01*
X302564285Y-26990476D01*
X302516666Y-27180952D01*
X302516666Y-27323809D01*
X302564285Y-27514285D01*
X302611904Y-27609523D01*
X302707142Y-27704761D01*
X302850000Y-27752380D01*
X302945238Y-27752380D01*
X303088095Y-27704761D01*
X303135714Y-27657142D01*
X303135714Y-27323809D01*
X302945238Y-27323809D01*
X303564285Y-27752380D02*
X303564285Y-26752380D01*
X304135714Y-27752380D01*
X304135714Y-26752380D01*
X304611904Y-27752380D02*
X304611904Y-26752380D01*
X304850000Y-26752380D01*
X304992857Y-26800000D01*
X305088095Y-26895238D01*
X305135714Y-26990476D01*
X305183333Y-27180952D01*
X305183333Y-27323809D01*
X305135714Y-27514285D01*
X305088095Y-27609523D01*
X304992857Y-27704761D01*
X304850000Y-27752380D01*
X304611904Y-27752380D01*
X55207142Y-84802420D02*
X54730952Y-84802420D01*
X54730952Y-83802420D01*
X55492857Y-84754801D02*
X55635714Y-84802420D01*
X55873809Y-84802420D01*
X55969047Y-84754801D01*
X56016666Y-84707182D01*
X56064285Y-84611944D01*
X56064285Y-84516706D01*
X56016666Y-84421468D01*
X55969047Y-84373849D01*
X55873809Y-84326230D01*
X55683333Y-84278611D01*
X55588095Y-84230992D01*
X55540476Y-84183373D01*
X55492857Y-84088135D01*
X55492857Y-83992897D01*
X55540476Y-83897659D01*
X55588095Y-83850040D01*
X55683333Y-83802420D01*
X55921428Y-83802420D01*
X56064285Y-83850040D01*
X57016666Y-84802420D02*
X56445238Y-84802420D01*
X56730952Y-84802420D02*
X56730952Y-83802420D01*
X56635714Y-83945278D01*
X56540476Y-84040516D01*
X56445238Y-84088135D01*
X53088095Y-90054801D02*
X53230952Y-90102420D01*
X53469047Y-90102420D01*
X53564285Y-90054801D01*
X53611904Y-90007182D01*
X53659523Y-89911944D01*
X53659523Y-89816706D01*
X53611904Y-89721468D01*
X53564285Y-89673849D01*
X53469047Y-89626230D01*
X53278571Y-89578611D01*
X53183333Y-89530992D01*
X53135714Y-89483373D01*
X53088095Y-89388135D01*
X53088095Y-89292897D01*
X53135714Y-89197659D01*
X53183333Y-89150040D01*
X53278571Y-89102420D01*
X53516666Y-89102420D01*
X53659523Y-89150040D01*
X54088095Y-89435754D02*
X54088095Y-90435754D01*
X54088095Y-89483373D02*
X54183333Y-89435754D01*
X54373809Y-89435754D01*
X54469047Y-89483373D01*
X54516666Y-89530992D01*
X54564285Y-89626230D01*
X54564285Y-89911944D01*
X54516666Y-90007182D01*
X54469047Y-90054801D01*
X54373809Y-90102420D01*
X54183333Y-90102420D01*
X54088095Y-90054801D01*
X55373809Y-90054801D02*
X55278571Y-90102420D01*
X55088095Y-90102420D01*
X54992857Y-90054801D01*
X54945238Y-89959563D01*
X54945238Y-89578611D01*
X54992857Y-89483373D01*
X55088095Y-89435754D01*
X55278571Y-89435754D01*
X55373809Y-89483373D01*
X55421428Y-89578611D01*
X55421428Y-89673849D01*
X54945238Y-89769087D01*
X56278571Y-90102420D02*
X56278571Y-89578611D01*
X56230952Y-89483373D01*
X56135714Y-89435754D01*
X55945238Y-89435754D01*
X55850000Y-89483373D01*
X56278571Y-90054801D02*
X56183333Y-90102420D01*
X55945238Y-90102420D01*
X55850000Y-90054801D01*
X55802380Y-89959563D01*
X55802380Y-89864325D01*
X55850000Y-89769087D01*
X55945238Y-89721468D01*
X56183333Y-89721468D01*
X56278571Y-89673849D01*
X56754761Y-90102420D02*
X56754761Y-89102420D01*
X56850000Y-89721468D02*
X57135714Y-90102420D01*
X57135714Y-89435754D02*
X56754761Y-89816706D01*
X57945238Y-90054801D02*
X57850000Y-90102420D01*
X57659523Y-90102420D01*
X57564285Y-90054801D01*
X57516666Y-89959563D01*
X57516666Y-89578611D01*
X57564285Y-89483373D01*
X57659523Y-89435754D01*
X57850000Y-89435754D01*
X57945238Y-89483373D01*
X57992857Y-89578611D01*
X57992857Y-89673849D01*
X57516666Y-89769087D01*
X58421428Y-90102420D02*
X58421428Y-89435754D01*
X58421428Y-89626230D02*
X58469047Y-89530992D01*
X58516666Y-89483373D01*
X58611904Y-89435754D01*
X58707142Y-89435754D01*
X26183333Y-103054801D02*
X26326190Y-103102420D01*
X26564285Y-103102420D01*
X26659523Y-103054801D01*
X26707142Y-103007182D01*
X26754761Y-102911944D01*
X26754761Y-102816706D01*
X26707142Y-102721468D01*
X26659523Y-102673849D01*
X26564285Y-102626230D01*
X26373809Y-102578611D01*
X26278571Y-102530992D01*
X26230952Y-102483373D01*
X26183333Y-102388135D01*
X26183333Y-102292897D01*
X26230952Y-102197659D01*
X26278571Y-102150040D01*
X26373809Y-102102420D01*
X26611904Y-102102420D01*
X26754761Y-102150040D01*
X27088095Y-102102420D02*
X27326190Y-103102420D01*
X27516666Y-102388135D01*
X27707142Y-103102420D01*
X27945238Y-102102420D01*
X28088095Y-103197659D02*
X28850000Y-103197659D01*
X29659523Y-103102420D02*
X29326190Y-102626230D01*
X29088095Y-103102420D02*
X29088095Y-102102420D01*
X29469047Y-102102420D01*
X29564285Y-102150040D01*
X29611904Y-102197659D01*
X29659523Y-102292897D01*
X29659523Y-102435754D01*
X29611904Y-102530992D01*
X29564285Y-102578611D01*
X29469047Y-102626230D01*
X29088095Y-102626230D01*
X30088095Y-102578611D02*
X30421428Y-102578611D01*
X30564285Y-103102420D02*
X30088095Y-103102420D01*
X30088095Y-102102420D01*
X30564285Y-102102420D01*
X30945238Y-102197659D02*
X30992857Y-102150040D01*
X31088095Y-102102420D01*
X31326190Y-102102420D01*
X31421428Y-102150040D01*
X31469047Y-102197659D01*
X31516666Y-102292897D01*
X31516666Y-102388135D01*
X31469047Y-102530992D01*
X30897619Y-103102420D01*
X31516666Y-103102420D01*
X270878571Y-41847619D02*
X270878571Y-41514285D01*
X271402380Y-41371428D02*
X271402380Y-41847619D01*
X270402380Y-41847619D01*
X270402380Y-41371428D01*
X270402380Y-41038095D02*
X271402380Y-40371428D01*
X270402380Y-40371428D02*
X271402380Y-41038095D01*
X270402380Y-40133333D02*
X270402380Y-39561904D01*
X271402380Y-39847619D02*
X270402380Y-39847619D01*
X271402380Y-38704761D02*
X271402380Y-39276190D01*
X271402380Y-38990476D02*
X270402380Y-38990476D01*
X270545238Y-39085714D01*
X270640476Y-39180952D01*
X270688095Y-39276190D01*
X283078571Y-41897619D02*
X283078571Y-41564285D01*
X283602380Y-41421428D02*
X283602380Y-41897619D01*
X282602380Y-41897619D01*
X282602380Y-41421428D01*
X282602380Y-41088095D02*
X283602380Y-40421428D01*
X282602380Y-40421428D02*
X283602380Y-41088095D01*
X282602380Y-40183333D02*
X282602380Y-39611904D01*
X283602380Y-39897619D02*
X282602380Y-39897619D01*
X282697619Y-39326190D02*
X282650000Y-39278571D01*
X282602380Y-39183333D01*
X282602380Y-38945238D01*
X282650000Y-38850000D01*
X282697619Y-38802380D01*
X282792857Y-38754761D01*
X282888095Y-38754761D01*
X283030952Y-38802380D01*
X283602380Y-39373809D01*
X283602380Y-38754761D01*
X24480952Y-59952380D02*
X24004761Y-59952380D01*
X24004761Y-58952380D01*
X24814285Y-59428571D02*
X25147619Y-59428571D01*
X25290476Y-59952380D02*
X24814285Y-59952380D01*
X24814285Y-58952380D01*
X25290476Y-58952380D01*
X25719047Y-59952380D02*
X25719047Y-58952380D01*
X25957142Y-58952380D01*
X26100000Y-59000000D01*
X26195238Y-59095238D01*
X26242857Y-59190476D01*
X26290476Y-59380952D01*
X26290476Y-59523809D01*
X26242857Y-59714285D01*
X26195238Y-59809523D01*
X26100000Y-59904761D01*
X25957142Y-59952380D01*
X25719047Y-59952380D01*
X27242857Y-59952380D02*
X26671428Y-59952380D01*
X26957142Y-59952380D02*
X26957142Y-58952380D01*
X26861904Y-59095238D01*
X26766666Y-59190476D01*
X26671428Y-59238095D01*
X24480952Y-69952380D02*
X24004761Y-69952380D01*
X24004761Y-68952380D01*
X24814285Y-69428571D02*
X25147619Y-69428571D01*
X25290476Y-69952380D02*
X24814285Y-69952380D01*
X24814285Y-68952380D01*
X25290476Y-68952380D01*
X25719047Y-69952380D02*
X25719047Y-68952380D01*
X25957142Y-68952380D01*
X26100000Y-69000000D01*
X26195238Y-69095238D01*
X26242857Y-69190476D01*
X26290476Y-69380952D01*
X26290476Y-69523809D01*
X26242857Y-69714285D01*
X26195238Y-69809523D01*
X26100000Y-69904761D01*
X25957142Y-69952380D01*
X25719047Y-69952380D01*
X26671428Y-69047619D02*
X26719047Y-69000000D01*
X26814285Y-68952380D01*
X27052380Y-68952380D01*
X27147619Y-69000000D01*
X27195238Y-69047619D01*
X27242857Y-69142857D01*
X27242857Y-69238095D01*
X27195238Y-69380952D01*
X26623809Y-69952380D01*
X27242857Y-69952380D01*
X24480952Y-83102380D02*
X24004761Y-83102380D01*
X24004761Y-82102380D01*
X24814285Y-82578571D02*
X25147619Y-82578571D01*
X25290476Y-83102380D02*
X24814285Y-83102380D01*
X24814285Y-82102380D01*
X25290476Y-82102380D01*
X25719047Y-83102380D02*
X25719047Y-82102380D01*
X25957142Y-82102380D01*
X26100000Y-82150000D01*
X26195238Y-82245238D01*
X26242857Y-82340476D01*
X26290476Y-82530952D01*
X26290476Y-82673809D01*
X26242857Y-82864285D01*
X26195238Y-82959523D01*
X26100000Y-83054761D01*
X25957142Y-83102380D01*
X25719047Y-83102380D01*
X26623809Y-82102380D02*
X27242857Y-82102380D01*
X26909523Y-82483333D01*
X27052380Y-82483333D01*
X27147619Y-82530952D01*
X27195238Y-82578571D01*
X27242857Y-82673809D01*
X27242857Y-82911904D01*
X27195238Y-83007142D01*
X27147619Y-83054761D01*
X27052380Y-83102380D01*
X26766666Y-83102380D01*
X26671428Y-83054761D01*
X26623809Y-83007142D01*
X24480952Y-92652380D02*
X24004761Y-92652380D01*
X24004761Y-91652380D01*
X24814285Y-92128571D02*
X25147619Y-92128571D01*
X25290476Y-92652380D02*
X24814285Y-92652380D01*
X24814285Y-91652380D01*
X25290476Y-91652380D01*
X25719047Y-92652380D02*
X25719047Y-91652380D01*
X25957142Y-91652380D01*
X26100000Y-91700000D01*
X26195238Y-91795238D01*
X26242857Y-91890476D01*
X26290476Y-92080952D01*
X26290476Y-92223809D01*
X26242857Y-92414285D01*
X26195238Y-92509523D01*
X26100000Y-92604761D01*
X25957142Y-92652380D01*
X25719047Y-92652380D01*
X27147619Y-91985714D02*
X27147619Y-92652380D01*
X26909523Y-91604761D02*
X26671428Y-92319047D01*
X27290476Y-92319047D01*
X298280952Y-43752380D02*
X297804761Y-43752380D01*
X297804761Y-42752380D01*
X298614285Y-43228571D02*
X298947619Y-43228571D01*
X299090476Y-43752380D02*
X298614285Y-43752380D01*
X298614285Y-42752380D01*
X299090476Y-42752380D01*
X299519047Y-43752380D02*
X299519047Y-42752380D01*
X299757142Y-42752380D01*
X299900000Y-42800000D01*
X299995238Y-42895238D01*
X300042857Y-42990476D01*
X300090476Y-43180952D01*
X300090476Y-43323809D01*
X300042857Y-43514285D01*
X299995238Y-43609523D01*
X299900000Y-43704761D01*
X299757142Y-43752380D01*
X299519047Y-43752380D01*
X300995238Y-42752380D02*
X300519047Y-42752380D01*
X300471428Y-43228571D01*
X300519047Y-43180952D01*
X300614285Y-43133333D01*
X300852380Y-43133333D01*
X300947619Y-43180952D01*
X300995238Y-43228571D01*
X301042857Y-43323809D01*
X301042857Y-43561904D01*
X300995238Y-43657142D01*
X300947619Y-43704761D01*
X300852380Y-43752380D01*
X300614285Y-43752380D01*
X300519047Y-43704761D01*
X300471428Y-43657142D01*
X298280952Y-47952380D02*
X297804761Y-47952380D01*
X297804761Y-46952380D01*
X298614285Y-47428571D02*
X298947619Y-47428571D01*
X299090476Y-47952380D02*
X298614285Y-47952380D01*
X298614285Y-46952380D01*
X299090476Y-46952380D01*
X299519047Y-47952380D02*
X299519047Y-46952380D01*
X299757142Y-46952380D01*
X299900000Y-47000000D01*
X299995238Y-47095238D01*
X300042857Y-47190476D01*
X300090476Y-47380952D01*
X300090476Y-47523809D01*
X300042857Y-47714285D01*
X299995238Y-47809523D01*
X299900000Y-47904761D01*
X299757142Y-47952380D01*
X299519047Y-47952380D01*
X300947619Y-46952380D02*
X300757142Y-46952380D01*
X300661904Y-47000000D01*
X300614285Y-47047619D01*
X300519047Y-47190476D01*
X300471428Y-47380952D01*
X300471428Y-47761904D01*
X300519047Y-47857142D01*
X300566666Y-47904761D01*
X300661904Y-47952380D01*
X300852380Y-47952380D01*
X300947619Y-47904761D01*
X300995238Y-47857142D01*
X301042857Y-47761904D01*
X301042857Y-47523809D01*
X300995238Y-47428571D01*
X300947619Y-47380952D01*
X300852380Y-47333333D01*
X300661904Y-47333333D01*
X300566666Y-47380952D01*
X300519047Y-47428571D01*
X300471428Y-47523809D01*
X298280952Y-62902380D02*
X297804761Y-62902380D01*
X297804761Y-61902380D01*
X298614285Y-62378571D02*
X298947619Y-62378571D01*
X299090476Y-62902380D02*
X298614285Y-62902380D01*
X298614285Y-61902380D01*
X299090476Y-61902380D01*
X299519047Y-62902380D02*
X299519047Y-61902380D01*
X299757142Y-61902380D01*
X299900000Y-61950000D01*
X299995238Y-62045238D01*
X300042857Y-62140476D01*
X300090476Y-62330952D01*
X300090476Y-62473809D01*
X300042857Y-62664285D01*
X299995238Y-62759523D01*
X299900000Y-62854761D01*
X299757142Y-62902380D01*
X299519047Y-62902380D01*
X300423809Y-61902380D02*
X301090476Y-61902380D01*
X300661904Y-62902380D01*
X298280952Y-67102380D02*
X297804761Y-67102380D01*
X297804761Y-66102380D01*
X298614285Y-66578571D02*
X298947619Y-66578571D01*
X299090476Y-67102380D02*
X298614285Y-67102380D01*
X298614285Y-66102380D01*
X299090476Y-66102380D01*
X299519047Y-67102380D02*
X299519047Y-66102380D01*
X299757142Y-66102380D01*
X299900000Y-66150000D01*
X299995238Y-66245238D01*
X300042857Y-66340476D01*
X300090476Y-66530952D01*
X300090476Y-66673809D01*
X300042857Y-66864285D01*
X299995238Y-66959523D01*
X299900000Y-67054761D01*
X299757142Y-67102380D01*
X299519047Y-67102380D01*
X300661904Y-66530952D02*
X300566666Y-66483333D01*
X300519047Y-66435714D01*
X300471428Y-66340476D01*
X300471428Y-66292857D01*
X300519047Y-66197619D01*
X300566666Y-66150000D01*
X300661904Y-66102380D01*
X300852380Y-66102380D01*
X300947619Y-66150000D01*
X300995238Y-66197619D01*
X301042857Y-66292857D01*
X301042857Y-66340476D01*
X300995238Y-66435714D01*
X300947619Y-66483333D01*
X300852380Y-66530952D01*
X300661904Y-66530952D01*
X300566666Y-66578571D01*
X300519047Y-66626190D01*
X300471428Y-66721428D01*
X300471428Y-66911904D01*
X300519047Y-67007142D01*
X300566666Y-67054761D01*
X300661904Y-67102380D01*
X300852380Y-67102380D01*
X300947619Y-67054761D01*
X300995238Y-67007142D01*
X301042857Y-66911904D01*
X301042857Y-66721428D01*
X300995238Y-66626190D01*
X300947619Y-66578571D01*
X300852380Y-66530952D01*
%LPC*%
D13*
X28550000Y-79050000D02*
G75*
G03*
X26400000Y-76900000I-2150000J0D01*
G01*
X28550000Y-79050000D02*
G75*
G02*
X26400000Y-81200000I-2150000J0D01*
G01*
X301650000Y-79050000D02*
G75*
G02*
X303800000Y-76900000I2150000J0D01*
G01*
X301650000Y-79050000D02*
G75*
G03*
X303800000Y-81200000I2150000J0D01*
G01*
X22600000Y-76900000D02*
X26400000Y-76900000D01*
X22650000Y-81200000D02*
X26450000Y-81200000D01*
X307600000Y-81200000D02*
X303800000Y-81200000D01*
X307550000Y-76900000D02*
X303750000Y-76900000D01*
D14*
X282650000Y-50450000D03*
D15*
X24357965Y-81250000D03*
X24350000Y-76900000D03*
X27950000Y-77550000D03*
X26400000Y-81250000D03*
X26400000Y-76900000D03*
X28550000Y-79050000D03*
X152000000Y-71450000D03*
X149600000Y-71450000D03*
X150800000Y-71450000D03*
X149600000Y-67700000D03*
X152000000Y-67700000D03*
X150800000Y-67700000D03*
X214300000Y-109600000D03*
X211900000Y-109600000D03*
X211950000Y-105900000D03*
X214350000Y-105900000D03*
X213100000Y-109600000D03*
X213150000Y-105900000D03*
X49050000Y-51800000D03*
X46450000Y-51750000D03*
X49050000Y-49100000D03*
X46450000Y-49100000D03*
X47800000Y-52350000D03*
X49700000Y-50450000D03*
X45900000Y-50450000D03*
X47800000Y-48550000D03*
D16*
X213100000Y-107750000D03*
X150800000Y-69550000D03*
D17*
X47800000Y-50450000D03*
D15*
X27950000Y-80550000D03*
X302250000Y-77550000D03*
X301650000Y-79050000D03*
X303800000Y-81200000D03*
X303800000Y-76850000D03*
X302250000Y-80550000D03*
X305850000Y-81200000D03*
X305842035Y-76850000D03*
D18*
X139090000Y-64795200D03*
D19*
X136550000Y-69875200D03*
D18*
X132740000Y-67335200D03*
D20*
X131470000Y-69875200D03*
X141630000Y-69875200D03*
X265454840Y-31775040D03*
X255294840Y-31775040D03*
D18*
X256564840Y-29235040D03*
D19*
X260374840Y-31775040D03*
D18*
X262914840Y-26695040D03*
X281966080Y-26695080D03*
D19*
X279426080Y-31775080D03*
D18*
X275616080Y-29235080D03*
D20*
X274346080Y-31775080D03*
X284506080Y-31775080D03*
D18*
X120040000Y-64795200D03*
D19*
X117500000Y-69875200D03*
D18*
X113690000Y-67335200D03*
D20*
X112420000Y-69875200D03*
X122580000Y-69875200D03*
X65430000Y-50825120D03*
X55270000Y-50825120D03*
D18*
X56540000Y-48285120D03*
D19*
X60350000Y-50825120D03*
D18*
X62890000Y-45745120D03*
X62890000Y-64795200D03*
D19*
X60350000Y-69875200D03*
D18*
X56540000Y-67335200D03*
D20*
X55270000Y-69875200D03*
X65430000Y-69875200D03*
X179730640Y-69875200D03*
X169570640Y-69875200D03*
D18*
X170840640Y-67335200D03*
D19*
X174650640Y-69875200D03*
D18*
X177190640Y-64795200D03*
X39077500Y-45745120D03*
D19*
X36537500Y-50825120D03*
D18*
X32727500Y-48285120D03*
D20*
X31457500Y-50825120D03*
X41617500Y-50825120D03*
G36*
G01*
X299993580Y-99265550D02*
X301993580Y-99265550D01*
G75*
G02*
X302193580Y-99465550I0J-200000D01*
G01*
X302193580Y-101465550D01*
G75*
G02*
X301993580Y-101665550I-200000J0D01*
G01*
X299993580Y-101665550D01*
G75*
G02*
X299793580Y-101465550I0J200000D01*
G01*
X299793580Y-99465550D01*
G75*
G02*
X299993580Y-99265550I200000J0D01*
G01*
G37*
D21*
X298493580Y-100465550D03*
X295993580Y-100465550D03*
G36*
G01*
X303093580Y-106165550D02*
X305093580Y-106165550D01*
G75*
G02*
X305293580Y-106365550I0J-200000D01*
G01*
X305293580Y-109565550D01*
G75*
G02*
X305093580Y-109765550I-200000J0D01*
G01*
X303093580Y-109765550D01*
G75*
G02*
X302893580Y-109565550I0J200000D01*
G01*
X302893580Y-106365550D01*
G75*
G02*
X303093580Y-106165550I200000J0D01*
G01*
G37*
G36*
G01*
X291893580Y-106165550D02*
X293893580Y-106165550D01*
G75*
G02*
X294093580Y-106365550I0J-200000D01*
G01*
X294093580Y-109565550D01*
G75*
G02*
X293893580Y-109765550I-200000J0D01*
G01*
X291893580Y-109765550D01*
G75*
G02*
X291693580Y-109565550I0J200000D01*
G01*
X291693580Y-106365550D01*
G75*
G02*
X291893580Y-106165550I200000J0D01*
G01*
G37*
X300993580Y-114965550D03*
X295993580Y-114965550D03*
D20*
X45745000Y-31775040D03*
X55905000Y-31775040D03*
D18*
X54635000Y-34315040D03*
D19*
X50825000Y-31775040D03*
D18*
X48285000Y-36855040D03*
D20*
X26695000Y-31775040D03*
X36855000Y-31775040D03*
D18*
X35585000Y-34315040D03*
D19*
X31775000Y-31775040D03*
D18*
X29235000Y-36855040D03*
X72415000Y-83845280D03*
D19*
X69875000Y-88925280D03*
D18*
X66065000Y-86385280D03*
D20*
X64795000Y-88925280D03*
X74955000Y-88925280D03*
D18*
X72415000Y-26695040D03*
D19*
X69875000Y-31775040D03*
D18*
X66065000Y-29235040D03*
D20*
X64795000Y-31775040D03*
X74955000Y-31775040D03*
X84480000Y-50825120D03*
X74320000Y-50825120D03*
D18*
X75590000Y-48285120D03*
D19*
X79400000Y-50825120D03*
D18*
X81940000Y-45745120D03*
X81940000Y-64795200D03*
D19*
X79400000Y-69875200D03*
D18*
X75590000Y-67335200D03*
D20*
X74320000Y-69875200D03*
X84480000Y-69875200D03*
D18*
X91465000Y-83845280D03*
D19*
X88925000Y-88925280D03*
D18*
X85115000Y-86385280D03*
D20*
X83845000Y-88925280D03*
X94005000Y-88925280D03*
D18*
X91465000Y-26695040D03*
D19*
X88925000Y-31775040D03*
D18*
X85115000Y-29235040D03*
D20*
X83845000Y-31775040D03*
X94005000Y-31775040D03*
X103530000Y-50825120D03*
X93370000Y-50825120D03*
D18*
X94640000Y-48285120D03*
D19*
X98450000Y-50825120D03*
D18*
X100990000Y-45745120D03*
X100990000Y-64795200D03*
D19*
X98450000Y-69875200D03*
D18*
X94640000Y-67335200D03*
D20*
X93370000Y-69875200D03*
X103530000Y-69875200D03*
D18*
X110515000Y-83845280D03*
D19*
X107975000Y-88925280D03*
D18*
X104165000Y-86385280D03*
D20*
X102895000Y-88925280D03*
X113055000Y-88925280D03*
D18*
X110515000Y-26695040D03*
D19*
X107975000Y-31775040D03*
D18*
X104165000Y-29235040D03*
D20*
X102895000Y-31775040D03*
X113055000Y-31775040D03*
X122580000Y-50825120D03*
X112420000Y-50825120D03*
D18*
X113690000Y-48285120D03*
D19*
X117500000Y-50825120D03*
D18*
X120040000Y-45745120D03*
X129565000Y-83845280D03*
D19*
X127025000Y-88925280D03*
D18*
X123215000Y-86385280D03*
D20*
X121945000Y-88925280D03*
X132105000Y-88925280D03*
D18*
X129565000Y-26695040D03*
D19*
X127025000Y-31775040D03*
D18*
X123215000Y-29235040D03*
D20*
X121945000Y-31775040D03*
X132105000Y-31775040D03*
X141630000Y-50825120D03*
X131470000Y-50825120D03*
D18*
X132740000Y-48285120D03*
D19*
X136550000Y-50825120D03*
D18*
X139090000Y-45745120D03*
X148615000Y-83845280D03*
D19*
X146075000Y-88925280D03*
D18*
X142265000Y-86385280D03*
D20*
X140995000Y-88925280D03*
X151155000Y-88925280D03*
X151155000Y-31775040D03*
X140995000Y-31775040D03*
D18*
X142265000Y-29235040D03*
D19*
X146075000Y-31775040D03*
D18*
X148615000Y-26695040D03*
D20*
X217830800Y-50825160D03*
X207670800Y-50825160D03*
D18*
X208940800Y-48285160D03*
D19*
X212750800Y-50825160D03*
D18*
X215290800Y-45745160D03*
X215290800Y-64795240D03*
D19*
X212750800Y-69875240D03*
D18*
X208940800Y-67335240D03*
D20*
X207670800Y-69875240D03*
X217830800Y-69875240D03*
D18*
X224815840Y-83845320D03*
D19*
X222275840Y-88925320D03*
D18*
X218465840Y-86385320D03*
D20*
X217195840Y-88925320D03*
X227355840Y-88925320D03*
X236880880Y-50825160D03*
X226720880Y-50825160D03*
D18*
X227990880Y-48285160D03*
D19*
X231800880Y-50825160D03*
D18*
X234340880Y-45745160D03*
D20*
X236880880Y-69875240D03*
X226720880Y-69875240D03*
D18*
X227990880Y-67335240D03*
D19*
X231800880Y-69875240D03*
D18*
X234340880Y-64795240D03*
X243865920Y-83845320D03*
D19*
X241325920Y-88925320D03*
D18*
X237515920Y-86385320D03*
D20*
X236245920Y-88925320D03*
X246405920Y-88925320D03*
X303556160Y-31775080D03*
X293396160Y-31775080D03*
D18*
X294666160Y-29235080D03*
D19*
X298476160Y-31775080D03*
D18*
X301016160Y-26695080D03*
D20*
X160680560Y-50825120D03*
X150520560Y-50825120D03*
D18*
X151790560Y-48285120D03*
D19*
X155600560Y-50825120D03*
D18*
X158140560Y-45745120D03*
X167665600Y-83845280D03*
D19*
X165125600Y-88925280D03*
D18*
X161315600Y-86385280D03*
D20*
X160045600Y-88925280D03*
X170205600Y-88925280D03*
D18*
X167665600Y-26695080D03*
D19*
X165125600Y-31775080D03*
D18*
X161315600Y-29235080D03*
D20*
X160045600Y-31775080D03*
X170205600Y-31775080D03*
X179730640Y-50825160D03*
X169570640Y-50825160D03*
D18*
X170840640Y-48285160D03*
D19*
X174650640Y-50825160D03*
D18*
X177190640Y-45745160D03*
X186715680Y-83845280D03*
D19*
X184175680Y-88925280D03*
D18*
X180365680Y-86385280D03*
D20*
X179095680Y-88925280D03*
X189255680Y-88925280D03*
X189255680Y-31775040D03*
X179095680Y-31775040D03*
D18*
X180365680Y-29235040D03*
D19*
X184175680Y-31775040D03*
D18*
X186715680Y-26695040D03*
D20*
X198780720Y-50825160D03*
X188620720Y-50825160D03*
D18*
X189890720Y-48285160D03*
D19*
X193700720Y-50825160D03*
D18*
X196240720Y-45745160D03*
D20*
X198780720Y-69875240D03*
X188620720Y-69875240D03*
D18*
X189890720Y-67335240D03*
D19*
X193700720Y-69875240D03*
D18*
X196240720Y-64795240D03*
X205765760Y-26695040D03*
D19*
X203225760Y-31775040D03*
D18*
X199415760Y-29235040D03*
D20*
X198145760Y-31775040D03*
X208305760Y-31775040D03*
X227354840Y-31775040D03*
X217194840Y-31775040D03*
D18*
X218464840Y-29235040D03*
D19*
X222274840Y-31775040D03*
D18*
X224814840Y-26695040D03*
X243864840Y-26695040D03*
D19*
X241324840Y-31775040D03*
D18*
X237514840Y-29235040D03*
D20*
X236244840Y-31775040D03*
X246404840Y-31775040D03*
X284506080Y-88925320D03*
X274346080Y-88925320D03*
D18*
X275616080Y-86385320D03*
D19*
X279426080Y-88925320D03*
D18*
X281966080Y-83845320D03*
D20*
X293396160Y-88925320D03*
X303556160Y-88925320D03*
D18*
X302286160Y-91465320D03*
D19*
X298476160Y-88925320D03*
D18*
X295936160Y-94005320D03*
X281966080Y-102895360D03*
D19*
X279426080Y-107975360D03*
D18*
X275616080Y-105435360D03*
D20*
X274346080Y-107975360D03*
X284506080Y-107975360D03*
D18*
X205765760Y-83845320D03*
D19*
X203225760Y-88925320D03*
D18*
X199415760Y-86385320D03*
D20*
X198145760Y-88925320D03*
X208305760Y-88925320D03*
X31457500Y-69875200D03*
X41617500Y-69875200D03*
D18*
X40347500Y-72415200D03*
D19*
X36537500Y-69875200D03*
D18*
X33997500Y-74955200D03*
X258153480Y-45745160D03*
D19*
X255613480Y-50825160D03*
D18*
X251803480Y-48285160D03*
D20*
X250533480Y-50825160D03*
X260693480Y-50825160D03*
D18*
X262916000Y-102895360D03*
D19*
X260376000Y-107975360D03*
D18*
X256566000Y-105435360D03*
D20*
X255296000Y-107975360D03*
X265456000Y-107975360D03*
G36*
G01*
X50650000Y-91550040D02*
X50650000Y-88150040D01*
G75*
G02*
X50850000Y-87950040I200000J0D01*
G01*
X52150000Y-87950040D01*
G75*
G02*
X52350000Y-88150040I0J-200000D01*
G01*
X52350000Y-91550040D01*
G75*
G02*
X52150000Y-91750040I-200000J0D01*
G01*
X50850000Y-91750040D01*
G75*
G02*
X50650000Y-91550040I0J200000D01*
G01*
G37*
G36*
G01*
X59350000Y-91550040D02*
X59350000Y-88150040D01*
G75*
G02*
X59550000Y-87950040I200000J0D01*
G01*
X60850000Y-87950040D01*
G75*
G02*
X61050000Y-88150040I0J-200000D01*
G01*
X61050000Y-91550040D01*
G75*
G02*
X60850000Y-91750040I-200000J0D01*
G01*
X59550000Y-91750040D01*
G75*
G02*
X59350000Y-91550040I0J200000D01*
G01*
G37*
X298793640Y-50825160D03*
X288633640Y-50825160D03*
D18*
X289903640Y-48285160D03*
D19*
X293713640Y-50825160D03*
D18*
X296253640Y-45745160D03*
G36*
G01*
X33271347Y-99252828D02*
X35271347Y-99252828D01*
G75*
G02*
X35471347Y-99452828I0J-200000D01*
G01*
X35471347Y-101452828D01*
G75*
G02*
X35271347Y-101652828I-200000J0D01*
G01*
X33271347Y-101652828D01*
G75*
G02*
X33071347Y-101452828I0J200000D01*
G01*
X33071347Y-99452828D01*
G75*
G02*
X33271347Y-99252828I200000J0D01*
G01*
G37*
D21*
X31771347Y-100452828D03*
X29271347Y-100452828D03*
G36*
G01*
X36371347Y-106152828D02*
X38371347Y-106152828D01*
G75*
G02*
X38571347Y-106352828I0J-200000D01*
G01*
X38571347Y-109552828D01*
G75*
G02*
X38371347Y-109752828I-200000J0D01*
G01*
X36371347Y-109752828D01*
G75*
G02*
X36171347Y-109552828I0J200000D01*
G01*
X36171347Y-106352828D01*
G75*
G02*
X36371347Y-106152828I200000J0D01*
G01*
G37*
G36*
G01*
X25171347Y-106152828D02*
X27171347Y-106152828D01*
G75*
G02*
X27371347Y-106352828I0J-200000D01*
G01*
X27371347Y-109552828D01*
G75*
G02*
X27171347Y-109752828I-200000J0D01*
G01*
X25171347Y-109752828D01*
G75*
G02*
X24971347Y-109552828I0J200000D01*
G01*
X24971347Y-106352828D01*
G75*
G02*
X25171347Y-106152828I200000J0D01*
G01*
G37*
X34271347Y-114952828D03*
X29271347Y-114952828D03*
D22*
X37801552Y-28187233D03*
X38651552Y-28187233D03*
X39501552Y-28187233D03*
X40351552Y-28187233D03*
X41201552Y-28187233D03*
X42051552Y-28187233D03*
X42901552Y-28187233D03*
X43751552Y-28187233D03*
X38651552Y-26837233D03*
X40351552Y-26837233D03*
X39501552Y-26837233D03*
X37801552Y-26837233D03*
X42051552Y-26837233D03*
X42901552Y-26837233D03*
X43751552Y-26837233D03*
X41201552Y-26837233D03*
D23*
X36451552Y-27207233D03*
X45101552Y-27207233D03*
D24*
X36451552Y-23827233D03*
X45101552Y-23827233D03*
D20*
X298793640Y-69875240D03*
X288633640Y-69875240D03*
D18*
X289903640Y-67335240D03*
D19*
X293713640Y-69875240D03*
D18*
X296253640Y-64795240D03*
X277203560Y-45745160D03*
D19*
X274663560Y-50825160D03*
D18*
X270853560Y-48285160D03*
D20*
X269583560Y-50825160D03*
X279743560Y-50825160D03*
X293396160Y-50825160D03*
X303556160Y-50825160D03*
D18*
X302286160Y-53365160D03*
D19*
X298476160Y-50825160D03*
D18*
X295936160Y-55905160D03*
D20*
X293396160Y-69875240D03*
X303556160Y-69875240D03*
D18*
X302286160Y-72415240D03*
D19*
X298476160Y-69875240D03*
D18*
X295936160Y-74955240D03*
D20*
X101149060Y-107975400D03*
X90989060Y-107975400D03*
D18*
X92259060Y-105435400D03*
D19*
X96069060Y-107975400D03*
D18*
X98609060Y-102895400D03*
X41458820Y-64795240D03*
D19*
X38918820Y-69875240D03*
D18*
X35108820Y-67335240D03*
D20*
X33838820Y-69875240D03*
X43998820Y-69875240D03*
X250533480Y-69875240D03*
X260693480Y-69875240D03*
D19*
X255613480Y-69875240D03*
X293713640Y-88925320D03*
D20*
X298793640Y-88925320D03*
X288633640Y-88925320D03*
X281489860Y-69875240D03*
X291649860Y-69875240D03*
D19*
X286569860Y-69875240D03*
D20*
X71938980Y-107975400D03*
X82098980Y-107975400D03*
D18*
X80828980Y-110515400D03*
D19*
X77018980Y-107975400D03*
D18*
X74478980Y-113055400D03*
D20*
X50507640Y-107975400D03*
X60667640Y-107975400D03*
D18*
X59397640Y-110515400D03*
D19*
X55587640Y-107975400D03*
D18*
X53047640Y-113055400D03*
D20*
X77336460Y-107975400D03*
X67176460Y-107975400D03*
D18*
X68446460Y-105435400D03*
D19*
X72256460Y-107975400D03*
D18*
X74796460Y-102895400D03*
X46221340Y-83845320D03*
D19*
X43681340Y-88925320D03*
D18*
X39871340Y-86385320D03*
D20*
X38601340Y-88925320D03*
X48761340Y-88925320D03*
D18*
X243865920Y-102895400D03*
D19*
X241325920Y-107975400D03*
D18*
X237515920Y-105435400D03*
D20*
X236245920Y-107975400D03*
X246405920Y-107975400D03*
X88607800Y-107975400D03*
X98767800Y-107975400D03*
D18*
X97497800Y-110515400D03*
D19*
X93687800Y-107975400D03*
D18*
X91147800Y-113055400D03*
X198621980Y-102895400D03*
D19*
X196081980Y-107975400D03*
D18*
X192271980Y-105435400D03*
D20*
X191001980Y-107975400D03*
X201161980Y-107975400D03*
D18*
X222434580Y-102895400D03*
D19*
X219894580Y-107975400D03*
D18*
X216084580Y-105435400D03*
D20*
X214814580Y-107975400D03*
X224974580Y-107975400D03*
X270218520Y-88925320D03*
X260058520Y-88925320D03*
D19*
X265138520Y-88925320D03*
D18*
X264979780Y-94005320D03*
D19*
X267519780Y-88925320D03*
D18*
X271329780Y-91465320D03*
D20*
X272599780Y-88925320D03*
X262439780Y-88925320D03*
D18*
X262916000Y-83845320D03*
D19*
X260376000Y-88925320D03*
D18*
X256566000Y-86385320D03*
D20*
X255296000Y-88925320D03*
X265456000Y-88925320D03*
D18*
X167665600Y-102895400D03*
D19*
X165125600Y-107975400D03*
D18*
X161315600Y-105435400D03*
D20*
X160045600Y-107975400D03*
X170205600Y-107975400D03*
D25*
X177063600Y-114960400D03*
X153187600Y-114960400D03*
D19*
X177063600Y-99720400D03*
X153187600Y-99720400D03*
D18*
X150996780Y-102895400D03*
D19*
X148456780Y-107975400D03*
D18*
X144646780Y-105435400D03*
D20*
X143376780Y-107975400D03*
X153536780Y-107975400D03*
D25*
X198456680Y-114960400D03*
X98456880Y-114960400D03*
D19*
X198456680Y-99720400D03*
X98456880Y-99720400D03*
D18*
X53365120Y-102895400D03*
D19*
X50825120Y-107975400D03*
D18*
X47015120Y-105435400D03*
D20*
X45745120Y-107975400D03*
X55905120Y-107975400D03*
D18*
X38760080Y-94005320D03*
D19*
X41300080Y-88925320D03*
D18*
X45110080Y-91465320D03*
D20*
X46380080Y-88925320D03*
X36220080Y-88925320D03*
D25*
X29362080Y-81940320D03*
X53238080Y-81940320D03*
D19*
X29362080Y-97180320D03*
X53238080Y-97180320D03*
D20*
X29076300Y-107975400D03*
X39236300Y-107975400D03*
D19*
X34156300Y-107975400D03*
D18*
X122104180Y-113055400D03*
D19*
X124644180Y-107975400D03*
D18*
X128454180Y-110515400D03*
D20*
X129724180Y-107975400D03*
X119564180Y-107975400D03*
D25*
X112706180Y-114960400D03*
X136582180Y-114960400D03*
D19*
X112706180Y-99720400D03*
X136582180Y-99720400D03*
D18*
X129565440Y-102895400D03*
D19*
X127025440Y-107975400D03*
D18*
X123215440Y-105435400D03*
D20*
X121945440Y-107975400D03*
X132105440Y-107975400D03*
D25*
X138963440Y-114960400D03*
X115087440Y-114960400D03*
D19*
X138963440Y-99720400D03*
X115087440Y-99720400D03*
D18*
X250692220Y-65430200D03*
D19*
X253232220Y-60350200D03*
D18*
X257042220Y-62890200D03*
D20*
X258312220Y-60350200D03*
X248152220Y-60350200D03*
D18*
X153060560Y-74955240D03*
D19*
X155600560Y-69875240D03*
D18*
X159410560Y-72415240D03*
D20*
X160680560Y-69875240D03*
X150520560Y-69875240D03*
X160680560Y-69875240D03*
X150520560Y-69875240D03*
D19*
X155600560Y-69875240D03*
D18*
X265297260Y-64795240D03*
D19*
X262757260Y-69875240D03*
D18*
X258947260Y-67335240D03*
D20*
X257677260Y-69875240D03*
X267837260Y-69875240D03*
D25*
X274695260Y-76860240D03*
X250819260Y-76860240D03*
D19*
X274695260Y-61620240D03*
X250819260Y-61620240D03*
D18*
X298634900Y-83845320D03*
D19*
X296094900Y-88925320D03*
D18*
X292284900Y-86385320D03*
D20*
X291014900Y-88925320D03*
X301174900Y-88925320D03*
D18*
X217354580Y-113055400D03*
D19*
X219894580Y-107975400D03*
D18*
X223704580Y-110515400D03*
D20*
X224974580Y-107975400D03*
X214814580Y-107975400D03*
D19*
X274663560Y-69875240D03*
D20*
X269583560Y-69875240D03*
X279743560Y-69875240D03*
D18*
X276886080Y-74955240D03*
D19*
X279426080Y-69875240D03*
D18*
X283236080Y-72415240D03*
D20*
X284506080Y-69875240D03*
X274346080Y-69875240D03*
X248152220Y-69875240D03*
X258312220Y-69875240D03*
D19*
X253232220Y-69875240D03*
D25*
X246247220Y-48412200D03*
X246247220Y-72288200D03*
D19*
X261487220Y-48412200D03*
X261487220Y-72288200D03*
G36*
G01*
X272950000Y-42050000D02*
X271950000Y-42050000D01*
G75*
G02*
X271750000Y-41850000I0J200000D01*
G01*
X271750000Y-40850000D01*
G75*
G02*
X271950000Y-40650000I200000J0D01*
G01*
X272950000Y-40650000D01*
G75*
G02*
X273150000Y-40850000I0J-200000D01*
G01*
X273150000Y-41850000D01*
G75*
G02*
X272950000Y-42050000I-200000J0D01*
G01*
G37*
D26*
X272450000Y-40080000D03*
X273720000Y-41350000D03*
X273720000Y-40080000D03*
X274990000Y-41350000D03*
X274990000Y-40080000D03*
X276260000Y-41350000D03*
X276260000Y-40080000D03*
X277530000Y-41350000D03*
X277530000Y-40080000D03*
X289730000Y-40080000D03*
X289730000Y-41350000D03*
X288460000Y-40080000D03*
X288460000Y-41350000D03*
X287190000Y-40080000D03*
X287190000Y-41350000D03*
X285920000Y-40080000D03*
X285920000Y-41350000D03*
X284650000Y-40080000D03*
G36*
G01*
X285150000Y-42050000D02*
X284150000Y-42050000D01*
G75*
G02*
X283950000Y-41850000I0J200000D01*
G01*
X283950000Y-40850000D01*
G75*
G02*
X284150000Y-40650000I200000J0D01*
G01*
X285150000Y-40650000D01*
G75*
G02*
X285350000Y-40850000I0J-200000D01*
G01*
X285350000Y-41850000D01*
G75*
G02*
X285150000Y-42050000I-200000J0D01*
G01*
G37*
G36*
G01*
X296550000Y-38250040D02*
X296550000Y-37050040D01*
G75*
G02*
X296750000Y-36850040I200000J0D01*
G01*
X298250000Y-36850040D01*
G75*
G02*
X298450000Y-37050040I0J-200000D01*
G01*
X298450000Y-38250040D01*
G75*
G02*
X298250000Y-38450040I-200000J0D01*
G01*
X296750000Y-38450040D01*
G75*
G02*
X296550000Y-38250040I0J200000D01*
G01*
G37*
G36*
G01*
X299250000Y-38250040D02*
X299250000Y-37050040D01*
G75*
G02*
X299450000Y-36850040I200000J0D01*
G01*
X300950000Y-36850040D01*
G75*
G02*
X301150000Y-37050040I0J-200000D01*
G01*
X301150000Y-38250040D01*
G75*
G02*
X300950000Y-38450040I-200000J0D01*
G01*
X299450000Y-38450040D01*
G75*
G02*
X299250000Y-38250040I0J200000D01*
G01*
G37*
D27*
X294950000Y-37650040D03*
X302750000Y-37650040D03*
X302050000Y-34850040D03*
X294250000Y-34850040D03*
G36*
G01*
X298550000Y-35450040D02*
X298550000Y-34250040D01*
G75*
G02*
X298750000Y-34050040I200000J0D01*
G01*
X300250000Y-34050040D01*
G75*
G02*
X300450000Y-34250040I0J-200000D01*
G01*
X300450000Y-35450040D01*
G75*
G02*
X300250000Y-35650040I-200000J0D01*
G01*
X298750000Y-35650040D01*
G75*
G02*
X298550000Y-35450040I0J200000D01*
G01*
G37*
G36*
G01*
X295850000Y-35450040D02*
X295850000Y-34250040D01*
G75*
G02*
X296050000Y-34050040I200000J0D01*
G01*
X297550000Y-34050040D01*
G75*
G02*
X297750000Y-34250040I0J-200000D01*
G01*
X297750000Y-35450040D01*
G75*
G02*
X297550000Y-35650040I-200000J0D01*
G01*
X296050000Y-35650040D01*
G75*
G02*
X295850000Y-35450040I0J200000D01*
G01*
G37*
D20*
X55905000Y-31775040D03*
X45745000Y-31775040D03*
D19*
X50825000Y-31775040D03*
D20*
X36855040Y-31775080D03*
X26695040Y-31775080D03*
D19*
X31775040Y-31775080D03*
G36*
G01*
X24900000Y-61150040D02*
X24900000Y-62000040D01*
G75*
G02*
X24700000Y-62200040I-200000J0D01*
G01*
X23100000Y-62200040D01*
G75*
G02*
X22900000Y-62000040I0J200000D01*
G01*
X22900000Y-61150040D01*
G75*
G02*
X23100000Y-60950040I200000J0D01*
G01*
X24700000Y-60950040D01*
G75*
G02*
X24900000Y-61150040I0J-200000D01*
G01*
G37*
G36*
G01*
X24900000Y-62900040D02*
X24900000Y-63750040D01*
G75*
G02*
X24700000Y-63950040I-200000J0D01*
G01*
X23100000Y-63950040D01*
G75*
G02*
X22900000Y-63750040I0J200000D01*
G01*
X22900000Y-62900040D01*
G75*
G02*
X23100000Y-62700040I200000J0D01*
G01*
X24700000Y-62700040D01*
G75*
G02*
X24900000Y-62900040I0J-200000D01*
G01*
G37*
G36*
G01*
X28400000Y-61150040D02*
X28400000Y-62000040D01*
G75*
G02*
X28200000Y-62200040I-200000J0D01*
G01*
X26600000Y-62200040D01*
G75*
G02*
X26400000Y-62000040I0J200000D01*
G01*
X26400000Y-61150040D01*
G75*
G02*
X26600000Y-60950040I200000J0D01*
G01*
X28200000Y-60950040D01*
G75*
G02*
X28400000Y-61150040I0J-200000D01*
G01*
G37*
G36*
G01*
X28400000Y-62900040D02*
X28400000Y-63750040D01*
G75*
G02*
X28200000Y-63950040I-200000J0D01*
G01*
X26600000Y-63950040D01*
G75*
G02*
X26400000Y-63750040I0J200000D01*
G01*
X26400000Y-62900040D01*
G75*
G02*
X26600000Y-62700040I200000J0D01*
G01*
X28200000Y-62700040D01*
G75*
G02*
X28400000Y-62900040I0J-200000D01*
G01*
G37*
G36*
G01*
X28400000Y-67100040D02*
X28400000Y-67950040D01*
G75*
G02*
X28200000Y-68150040I-200000J0D01*
G01*
X26600000Y-68150040D01*
G75*
G02*
X26400000Y-67950040I0J200000D01*
G01*
X26400000Y-67100040D01*
G75*
G02*
X26600000Y-66900040I200000J0D01*
G01*
X28200000Y-66900040D01*
G75*
G02*
X28400000Y-67100040I0J-200000D01*
G01*
G37*
G36*
G01*
X28400000Y-65350040D02*
X28400000Y-66200040D01*
G75*
G02*
X28200000Y-66400040I-200000J0D01*
G01*
X26600000Y-66400040D01*
G75*
G02*
X26400000Y-66200040I0J200000D01*
G01*
X26400000Y-65350040D01*
G75*
G02*
X26600000Y-65150040I200000J0D01*
G01*
X28200000Y-65150040D01*
G75*
G02*
X28400000Y-65350040I0J-200000D01*
G01*
G37*
G36*
G01*
X24900000Y-67100040D02*
X24900000Y-67950040D01*
G75*
G02*
X24700000Y-68150040I-200000J0D01*
G01*
X23100000Y-68150040D01*
G75*
G02*
X22900000Y-67950040I0J200000D01*
G01*
X22900000Y-67100040D01*
G75*
G02*
X23100000Y-66900040I200000J0D01*
G01*
X24700000Y-66900040D01*
G75*
G02*
X24900000Y-67100040I0J-200000D01*
G01*
G37*
G36*
G01*
X24900000Y-65350040D02*
X24900000Y-66200040D01*
G75*
G02*
X24700000Y-66400040I-200000J0D01*
G01*
X23100000Y-66400040D01*
G75*
G02*
X22900000Y-66200040I0J200000D01*
G01*
X22900000Y-65350040D01*
G75*
G02*
X23100000Y-65150040I200000J0D01*
G01*
X24700000Y-65150040D01*
G75*
G02*
X24900000Y-65350040I0J-200000D01*
G01*
G37*
G36*
G01*
X24900000Y-83950040D02*
X24900000Y-84800040D01*
G75*
G02*
X24700000Y-85000040I-200000J0D01*
G01*
X23100000Y-85000040D01*
G75*
G02*
X22900000Y-84800040I0J200000D01*
G01*
X22900000Y-83950040D01*
G75*
G02*
X23100000Y-83750040I200000J0D01*
G01*
X24700000Y-83750040D01*
G75*
G02*
X24900000Y-83950040I0J-200000D01*
G01*
G37*
G36*
G01*
X24900000Y-85700040D02*
X24900000Y-86550040D01*
G75*
G02*
X24700000Y-86750040I-200000J0D01*
G01*
X23100000Y-86750040D01*
G75*
G02*
X22900000Y-86550040I0J200000D01*
G01*
X22900000Y-85700040D01*
G75*
G02*
X23100000Y-85500040I200000J0D01*
G01*
X24700000Y-85500040D01*
G75*
G02*
X24900000Y-85700040I0J-200000D01*
G01*
G37*
G36*
G01*
X28400000Y-83950040D02*
X28400000Y-84800040D01*
G75*
G02*
X28200000Y-85000040I-200000J0D01*
G01*
X26600000Y-85000040D01*
G75*
G02*
X26400000Y-84800040I0J200000D01*
G01*
X26400000Y-83950040D01*
G75*
G02*
X26600000Y-83750040I200000J0D01*
G01*
X28200000Y-83750040D01*
G75*
G02*
X28400000Y-83950040I0J-200000D01*
G01*
G37*
G36*
G01*
X28400000Y-85700040D02*
X28400000Y-86550040D01*
G75*
G02*
X28200000Y-86750040I-200000J0D01*
G01*
X26600000Y-86750040D01*
G75*
G02*
X26400000Y-86550040I0J200000D01*
G01*
X26400000Y-85700040D01*
G75*
G02*
X26600000Y-85500040I200000J0D01*
G01*
X28200000Y-85500040D01*
G75*
G02*
X28400000Y-85700040I0J-200000D01*
G01*
G37*
G36*
G01*
X28400000Y-89900040D02*
X28400000Y-90750040D01*
G75*
G02*
X28200000Y-90950040I-200000J0D01*
G01*
X26600000Y-90950040D01*
G75*
G02*
X26400000Y-90750040I0J200000D01*
G01*
X26400000Y-89900040D01*
G75*
G02*
X26600000Y-89700040I200000J0D01*
G01*
X28200000Y-89700040D01*
G75*
G02*
X28400000Y-89900040I0J-200000D01*
G01*
G37*
G36*
G01*
X28400000Y-88150040D02*
X28400000Y-89000040D01*
G75*
G02*
X28200000Y-89200040I-200000J0D01*
G01*
X26600000Y-89200040D01*
G75*
G02*
X26400000Y-89000040I0J200000D01*
G01*
X26400000Y-88150040D01*
G75*
G02*
X26600000Y-87950040I200000J0D01*
G01*
X28200000Y-87950040D01*
G75*
G02*
X28400000Y-88150040I0J-200000D01*
G01*
G37*
G36*
G01*
X24900000Y-89900040D02*
X24900000Y-90750040D01*
G75*
G02*
X24700000Y-90950040I-200000J0D01*
G01*
X23100000Y-90950040D01*
G75*
G02*
X22900000Y-90750040I0J200000D01*
G01*
X22900000Y-89900040D01*
G75*
G02*
X23100000Y-89700040I200000J0D01*
G01*
X24700000Y-89700040D01*
G75*
G02*
X24900000Y-89900040I0J-200000D01*
G01*
G37*
G36*
G01*
X24900000Y-88150040D02*
X24900000Y-89000040D01*
G75*
G02*
X24700000Y-89200040I-200000J0D01*
G01*
X23100000Y-89200040D01*
G75*
G02*
X22900000Y-89000040I0J200000D01*
G01*
X22900000Y-88150040D01*
G75*
G02*
X23100000Y-87950040I200000J0D01*
G01*
X24700000Y-87950040D01*
G75*
G02*
X24900000Y-88150040I0J-200000D01*
G01*
G37*
G36*
G01*
X307200000Y-43700040D02*
X307200000Y-44550040D01*
G75*
G02*
X307000000Y-44750040I-200000J0D01*
G01*
X305400000Y-44750040D01*
G75*
G02*
X305200000Y-44550040I0J200000D01*
G01*
X305200000Y-43700040D01*
G75*
G02*
X305400000Y-43500040I200000J0D01*
G01*
X307000000Y-43500040D01*
G75*
G02*
X307200000Y-43700040I0J-200000D01*
G01*
G37*
G36*
G01*
X307200000Y-41950040D02*
X307200000Y-42800040D01*
G75*
G02*
X307000000Y-43000040I-200000J0D01*
G01*
X305400000Y-43000040D01*
G75*
G02*
X305200000Y-42800040I0J200000D01*
G01*
X305200000Y-41950040D01*
G75*
G02*
X305400000Y-41750040I200000J0D01*
G01*
X307000000Y-41750040D01*
G75*
G02*
X307200000Y-41950040I0J-200000D01*
G01*
G37*
G36*
G01*
X303700000Y-43700040D02*
X303700000Y-44550040D01*
G75*
G02*
X303500000Y-44750040I-200000J0D01*
G01*
X301900000Y-44750040D01*
G75*
G02*
X301700000Y-44550040I0J200000D01*
G01*
X301700000Y-43700040D01*
G75*
G02*
X301900000Y-43500040I200000J0D01*
G01*
X303500000Y-43500040D01*
G75*
G02*
X303700000Y-43700040I0J-200000D01*
G01*
G37*
G36*
G01*
X303700000Y-41950040D02*
X303700000Y-42800040D01*
G75*
G02*
X303500000Y-43000040I-200000J0D01*
G01*
X301900000Y-43000040D01*
G75*
G02*
X301700000Y-42800040I0J200000D01*
G01*
X301700000Y-41950040D01*
G75*
G02*
X301900000Y-41750040I200000J0D01*
G01*
X303500000Y-41750040D01*
G75*
G02*
X303700000Y-41950040I0J-200000D01*
G01*
G37*
G36*
G01*
X303700000Y-46150040D02*
X303700000Y-47000040D01*
G75*
G02*
X303500000Y-47200040I-200000J0D01*
G01*
X301900000Y-47200040D01*
G75*
G02*
X301700000Y-47000040I0J200000D01*
G01*
X301700000Y-46150040D01*
G75*
G02*
X301900000Y-45950040I200000J0D01*
G01*
X303500000Y-45950040D01*
G75*
G02*
X303700000Y-46150040I0J-200000D01*
G01*
G37*
G36*
G01*
X303700000Y-47900040D02*
X303700000Y-48750040D01*
G75*
G02*
X303500000Y-48950040I-200000J0D01*
G01*
X301900000Y-48950040D01*
G75*
G02*
X301700000Y-48750040I0J200000D01*
G01*
X301700000Y-47900040D01*
G75*
G02*
X301900000Y-47700040I200000J0D01*
G01*
X303500000Y-47700040D01*
G75*
G02*
X303700000Y-47900040I0J-200000D01*
G01*
G37*
G36*
G01*
X307200000Y-46150040D02*
X307200000Y-47000040D01*
G75*
G02*
X307000000Y-47200040I-200000J0D01*
G01*
X305400000Y-47200040D01*
G75*
G02*
X305200000Y-47000040I0J200000D01*
G01*
X305200000Y-46150040D01*
G75*
G02*
X305400000Y-45950040I200000J0D01*
G01*
X307000000Y-45950040D01*
G75*
G02*
X307200000Y-46150040I0J-200000D01*
G01*
G37*
G36*
G01*
X307200000Y-47900040D02*
X307200000Y-48750040D01*
G75*
G02*
X307000000Y-48950040I-200000J0D01*
G01*
X305400000Y-48950040D01*
G75*
G02*
X305200000Y-48750040I0J200000D01*
G01*
X305200000Y-47900040D01*
G75*
G02*
X305400000Y-47700040I200000J0D01*
G01*
X307000000Y-47700040D01*
G75*
G02*
X307200000Y-47900040I0J-200000D01*
G01*
G37*
G36*
G01*
X303700000Y-61150040D02*
X303700000Y-62000040D01*
G75*
G02*
X303500000Y-62200040I-200000J0D01*
G01*
X301900000Y-62200040D01*
G75*
G02*
X301700000Y-62000040I0J200000D01*
G01*
X301700000Y-61150040D01*
G75*
G02*
X301900000Y-60950040I200000J0D01*
G01*
X303500000Y-60950040D01*
G75*
G02*
X303700000Y-61150040I0J-200000D01*
G01*
G37*
G36*
G01*
X303700000Y-62900040D02*
X303700000Y-63750040D01*
G75*
G02*
X303500000Y-63950040I-200000J0D01*
G01*
X301900000Y-63950040D01*
G75*
G02*
X301700000Y-63750040I0J200000D01*
G01*
X301700000Y-62900040D01*
G75*
G02*
X301900000Y-62700040I200000J0D01*
G01*
X303500000Y-62700040D01*
G75*
G02*
X303700000Y-62900040I0J-200000D01*
G01*
G37*
G36*
G01*
X307200000Y-61150040D02*
X307200000Y-62000040D01*
G75*
G02*
X307000000Y-62200040I-200000J0D01*
G01*
X305400000Y-62200040D01*
G75*
G02*
X305200000Y-62000040I0J200000D01*
G01*
X305200000Y-61150040D01*
G75*
G02*
X305400000Y-60950040I200000J0D01*
G01*
X307000000Y-60950040D01*
G75*
G02*
X307200000Y-61150040I0J-200000D01*
G01*
G37*
G36*
G01*
X307200000Y-62900040D02*
X307200000Y-63750040D01*
G75*
G02*
X307000000Y-63950040I-200000J0D01*
G01*
X305400000Y-63950040D01*
G75*
G02*
X305200000Y-63750040I0J200000D01*
G01*
X305200000Y-62900040D01*
G75*
G02*
X305400000Y-62700040I200000J0D01*
G01*
X307000000Y-62700040D01*
G75*
G02*
X307200000Y-62900040I0J-200000D01*
G01*
G37*
G36*
G01*
X307200000Y-67100040D02*
X307200000Y-67950040D01*
G75*
G02*
X307000000Y-68150040I-200000J0D01*
G01*
X305400000Y-68150040D01*
G75*
G02*
X305200000Y-67950040I0J200000D01*
G01*
X305200000Y-67100040D01*
G75*
G02*
X305400000Y-66900040I200000J0D01*
G01*
X307000000Y-66900040D01*
G75*
G02*
X307200000Y-67100040I0J-200000D01*
G01*
G37*
G36*
G01*
X307200000Y-65350040D02*
X307200000Y-66200040D01*
G75*
G02*
X307000000Y-66400040I-200000J0D01*
G01*
X305400000Y-66400040D01*
G75*
G02*
X305200000Y-66200040I0J200000D01*
G01*
X305200000Y-65350040D01*
G75*
G02*
X305400000Y-65150040I200000J0D01*
G01*
X307000000Y-65150040D01*
G75*
G02*
X307200000Y-65350040I0J-200000D01*
G01*
G37*
G36*
G01*
X303700000Y-67100040D02*
X303700000Y-67950040D01*
G75*
G02*
X303500000Y-68150040I-200000J0D01*
G01*
X301900000Y-68150040D01*
G75*
G02*
X301700000Y-67950040I0J200000D01*
G01*
X301700000Y-67100040D01*
G75*
G02*
X301900000Y-66900040I200000J0D01*
G01*
X303500000Y-66900040D01*
G75*
G02*
X303700000Y-67100040I0J-200000D01*
G01*
G37*
G36*
G01*
X303700000Y-65350040D02*
X303700000Y-66200040D01*
G75*
G02*
X303500000Y-66400040I-200000J0D01*
G01*
X301900000Y-66400040D01*
G75*
G02*
X301700000Y-66200040I0J200000D01*
G01*
X301700000Y-65350040D01*
G75*
G02*
X301900000Y-65150040I200000J0D01*
G01*
X303500000Y-65150040D01*
G75*
G02*
X303700000Y-65350040I0J-200000D01*
G01*
G37*
D18*
X301016160Y-102895400D03*
D19*
X298476160Y-107975400D03*
D18*
X294666160Y-105435400D03*
D20*
X293396160Y-107975400D03*
X303556160Y-107975400D03*
D18*
X34315040Y-102895400D03*
D19*
X31775040Y-107975400D03*
D18*
X27965040Y-105435400D03*
D20*
X26695040Y-107975400D03*
X36855040Y-107975400D03*
D18*
X276886080Y-55905160D03*
D19*
X279426080Y-50825160D03*
D18*
X283236080Y-53365160D03*
D20*
X284506080Y-50825160D03*
X274346080Y-50825160D03*
X284506080Y-50825160D03*
X274346080Y-50825160D03*
D19*
X279426080Y-50825160D03*
M02*
