G04 #@! TF.GenerationSoftware,KiCad,Pcbnew,(5.1.10-1-10_14)*
G04 #@! TF.CreationDate,2021-05-27T16:13:23+09:00*
G04 #@! TF.ProjectId,Jones,4a6f6e65-732e-46b6-9963-61645f706362,v.0.3.2*
G04 #@! TF.SameCoordinates,Original*
G04 #@! TF.FileFunction,Other,Fab,Top*
%FSLAX46Y46*%
G04 Gerber Fmt 4.6, Leading zero omitted, Abs format (unit mm)*
G04 Created by KiCad (PCBNEW (5.1.10-1-10_14)) date 2021-05-27 16:13:23*
%MOMM*%
%LPD*%
G01*
G04 APERTURE LIST*
%ADD10C,0.120000*%
%ADD11C,0.100000*%
%ADD12C,0.150000*%
G04 APERTURE END LIST*
D10*
X298493580Y-104965550D02*
X298493580Y-110965550D01*
X301493580Y-107965550D02*
X295493580Y-107965550D01*
X303193580Y-101965550D02*
X304293580Y-102965550D01*
X292693580Y-101965550D02*
X303193580Y-101965550D01*
X292693580Y-113965550D02*
X292693580Y-101965550D01*
X304293580Y-113965550D02*
X292693580Y-113965550D01*
X304293580Y-102965550D02*
X304293580Y-113965550D01*
X301493580Y-107965550D02*
G75*
G03*
X301493580Y-107965550I-3000000J0D01*
G01*
D11*
X61750040Y-96400400D02*
X60750040Y-97400400D01*
X52750040Y-88400400D02*
X61750040Y-88400400D01*
X52750040Y-97400400D02*
X52750040Y-88400400D01*
X60750040Y-97400400D02*
X52750040Y-97400400D01*
X61750040Y-88400400D02*
X61750040Y-96400400D01*
D10*
X34771347Y-107952828D02*
G75*
G03*
X34771347Y-107952828I-3000000J0D01*
G01*
X37571347Y-102952828D02*
X37571347Y-113952828D01*
X37571347Y-113952828D02*
X25971347Y-113952828D01*
X25971347Y-113952828D02*
X25971347Y-101952828D01*
X25971347Y-101952828D02*
X36471347Y-101952828D01*
X36471347Y-101952828D02*
X37571347Y-102952828D01*
X34771347Y-107952828D02*
X28771347Y-107952828D01*
X31771347Y-104952828D02*
X31771347Y-110952828D01*
D11*
X23900000Y-61700040D02*
X24900000Y-60700040D01*
X27400000Y-64200040D02*
X27400000Y-60700040D01*
X27400000Y-60700040D02*
X23900000Y-60700040D01*
X23900000Y-60700040D02*
X23900000Y-64200040D01*
X23900000Y-64200040D02*
X27400000Y-64200040D01*
X27150000Y-62450040D02*
G75*
G03*
X27150000Y-62450040I-1500000J0D01*
G01*
X27150000Y-66650040D02*
G75*
G03*
X27150000Y-66650040I-1500000J0D01*
G01*
X23900000Y-68400040D02*
X27400000Y-68400040D01*
X23900000Y-64900040D02*
X23900000Y-68400040D01*
X27400000Y-64900040D02*
X23900000Y-64900040D01*
X27400000Y-68400040D02*
X27400000Y-64900040D01*
X23900000Y-65900040D02*
X24900000Y-64900040D01*
X302700000Y-61700040D02*
X303700000Y-60700040D01*
X306200000Y-64200040D02*
X306200000Y-60700040D01*
X306200000Y-60700040D02*
X302700000Y-60700040D01*
X302700000Y-60700040D02*
X302700000Y-64200040D01*
X302700000Y-64200040D02*
X306200000Y-64200040D01*
X305950000Y-62450040D02*
G75*
G03*
X305950000Y-62450040I-1500000J0D01*
G01*
X305950000Y-66650040D02*
G75*
G03*
X305950000Y-66650040I-1500000J0D01*
G01*
X302700000Y-68400040D02*
X306200000Y-68400040D01*
X302700000Y-64900040D02*
X302700000Y-68400040D01*
X306200000Y-64900040D02*
X302700000Y-64900040D01*
X306200000Y-68400040D02*
X306200000Y-64900040D01*
X302700000Y-65900040D02*
X303700000Y-64900040D01*
D12*
X36514325Y-102102780D02*
X36514325Y-101102780D01*
X36847659Y-101817066D01*
X37180992Y-101102780D01*
X37180992Y-102102780D01*
X37800040Y-102102780D02*
X37704801Y-102055161D01*
X37657182Y-102007542D01*
X37609563Y-101912304D01*
X37609563Y-101626590D01*
X37657182Y-101531352D01*
X37704801Y-101483733D01*
X37800040Y-101436114D01*
X37942897Y-101436114D01*
X38038135Y-101483733D01*
X38085754Y-101531352D01*
X38133373Y-101626590D01*
X38133373Y-101912304D01*
X38085754Y-102007542D01*
X38038135Y-102055161D01*
X37942897Y-102102780D01*
X37800040Y-102102780D01*
X38990516Y-101436114D02*
X38990516Y-102102780D01*
X38561944Y-101436114D02*
X38561944Y-101959923D01*
X38609563Y-102055161D01*
X38704801Y-102102780D01*
X38847659Y-102102780D01*
X38942897Y-102055161D01*
X38990516Y-102007542D01*
X39466706Y-101436114D02*
X39466706Y-102102780D01*
X39466706Y-101531352D02*
X39514325Y-101483733D01*
X39609563Y-101436114D01*
X39752420Y-101436114D01*
X39847659Y-101483733D01*
X39895278Y-101578971D01*
X39895278Y-102102780D01*
X40228611Y-101436114D02*
X40609563Y-101436114D01*
X40371468Y-101102780D02*
X40371468Y-101959923D01*
X40419087Y-102055161D01*
X40514325Y-102102780D01*
X40609563Y-102102780D01*
X40942897Y-102102780D02*
X40942897Y-101436114D01*
X40942897Y-101102780D02*
X40895278Y-101150400D01*
X40942897Y-101198019D01*
X40990516Y-101150400D01*
X40942897Y-101102780D01*
X40942897Y-101198019D01*
X41419087Y-101436114D02*
X41419087Y-102102780D01*
X41419087Y-101531352D02*
X41466706Y-101483733D01*
X41561944Y-101436114D01*
X41704801Y-101436114D01*
X41800040Y-101483733D01*
X41847659Y-101578971D01*
X41847659Y-102102780D01*
X42752420Y-101436114D02*
X42752420Y-102245638D01*
X42704801Y-102340876D01*
X42657182Y-102388495D01*
X42561944Y-102436114D01*
X42419087Y-102436114D01*
X42323849Y-102388495D01*
X42752420Y-102055161D02*
X42657182Y-102102780D01*
X42466706Y-102102780D01*
X42371468Y-102055161D01*
X42323849Y-102007542D01*
X42276230Y-101912304D01*
X42276230Y-101626590D01*
X42323849Y-101531352D01*
X42371468Y-101483733D01*
X42466706Y-101436114D01*
X42657182Y-101436114D01*
X42752420Y-101483733D01*
X43228611Y-102102780D02*
X43228611Y-101102780D01*
X43228611Y-101578971D02*
X43800040Y-101578971D01*
X43800040Y-102102780D02*
X43800040Y-101102780D01*
X44419087Y-102102780D02*
X44323849Y-102055161D01*
X44276230Y-102007542D01*
X44228611Y-101912304D01*
X44228611Y-101626590D01*
X44276230Y-101531352D01*
X44323849Y-101483733D01*
X44419087Y-101436114D01*
X44561944Y-101436114D01*
X44657182Y-101483733D01*
X44704801Y-101531352D01*
X44752420Y-101626590D01*
X44752420Y-101912304D01*
X44704801Y-102007542D01*
X44657182Y-102055161D01*
X44561944Y-102102780D01*
X44419087Y-102102780D01*
X45323849Y-102102780D02*
X45228611Y-102055161D01*
X45180992Y-101959923D01*
X45180992Y-101102780D01*
X46085754Y-102055161D02*
X45990516Y-102102780D01*
X45800040Y-102102780D01*
X45704801Y-102055161D01*
X45657182Y-101959923D01*
X45657182Y-101578971D01*
X45704801Y-101483733D01*
X45800040Y-101436114D01*
X45990516Y-101436114D01*
X46085754Y-101483733D01*
X46133373Y-101578971D01*
X46133373Y-101674209D01*
X45657182Y-101769447D01*
X40838135Y-98902780D02*
X40838135Y-97902780D01*
X40838135Y-98378971D02*
X41409563Y-98378971D01*
X41409563Y-98902780D02*
X41409563Y-97902780D01*
X42361944Y-97902780D02*
X41885754Y-97902780D01*
X41838135Y-98378971D01*
X41885754Y-98331352D01*
X41980992Y-98283733D01*
X42219087Y-98283733D01*
X42314325Y-98331352D01*
X42361944Y-98378971D01*
X42409563Y-98474209D01*
X42409563Y-98712304D01*
X42361944Y-98807542D01*
X42314325Y-98855161D01*
X42219087Y-98902780D01*
X41980992Y-98902780D01*
X41885754Y-98855161D01*
X41838135Y-98807542D01*
X291045960Y-115679835D02*
X290569770Y-116013169D01*
X291045960Y-116251264D02*
X290045960Y-116251264D01*
X290045960Y-115870311D01*
X290093580Y-115775073D01*
X290141199Y-115727454D01*
X290236437Y-115679835D01*
X290379294Y-115679835D01*
X290474532Y-115727454D01*
X290522151Y-115775073D01*
X290569770Y-115870311D01*
X290569770Y-116251264D01*
X291045960Y-115108407D02*
X290998341Y-115203645D01*
X290950722Y-115251264D01*
X290855484Y-115298883D01*
X290569770Y-115298883D01*
X290474532Y-115251264D01*
X290426913Y-115203645D01*
X290379294Y-115108407D01*
X290379294Y-114965550D01*
X290426913Y-114870311D01*
X290474532Y-114822692D01*
X290569770Y-114775073D01*
X290855484Y-114775073D01*
X290950722Y-114822692D01*
X290998341Y-114870311D01*
X291045960Y-114965550D01*
X291045960Y-115108407D01*
X290379294Y-114489359D02*
X290379294Y-114108407D01*
X290045960Y-114346502D02*
X290903103Y-114346502D01*
X290998341Y-114298883D01*
X291045960Y-114203645D01*
X291045960Y-114108407D01*
X291045960Y-113346502D02*
X290522151Y-113346502D01*
X290426913Y-113394121D01*
X290379294Y-113489359D01*
X290379294Y-113679835D01*
X290426913Y-113775073D01*
X290998341Y-113346502D02*
X291045960Y-113441740D01*
X291045960Y-113679835D01*
X290998341Y-113775073D01*
X290903103Y-113822692D01*
X290807865Y-113822692D01*
X290712627Y-113775073D01*
X290665008Y-113679835D01*
X290665008Y-113441740D01*
X290617389Y-113346502D01*
X291045960Y-112870311D02*
X290379294Y-112870311D01*
X290569770Y-112870311D02*
X290474532Y-112822692D01*
X290426913Y-112775073D01*
X290379294Y-112679835D01*
X290379294Y-112584597D01*
X290379294Y-112346502D02*
X291045960Y-112108407D01*
X290379294Y-111870311D02*
X291045960Y-112108407D01*
X291284056Y-112203645D01*
X291331675Y-112251264D01*
X291379294Y-112346502D01*
X291141199Y-111727454D02*
X291141199Y-110965550D01*
X290522151Y-110727454D02*
X290522151Y-110394121D01*
X291045960Y-110251264D02*
X291045960Y-110727454D01*
X290045960Y-110727454D01*
X290045960Y-110251264D01*
X290379294Y-109822692D02*
X291045960Y-109822692D01*
X290474532Y-109822692D02*
X290426913Y-109775073D01*
X290379294Y-109679835D01*
X290379294Y-109536978D01*
X290426913Y-109441740D01*
X290522151Y-109394121D01*
X291045960Y-109394121D01*
X290998341Y-108489359D02*
X291045960Y-108584597D01*
X291045960Y-108775073D01*
X290998341Y-108870311D01*
X290950722Y-108917930D01*
X290855484Y-108965550D01*
X290569770Y-108965550D01*
X290474532Y-108917930D01*
X290426913Y-108870311D01*
X290379294Y-108775073D01*
X290379294Y-108584597D01*
X290426913Y-108489359D01*
X291045960Y-107917930D02*
X290998341Y-108013169D01*
X290950722Y-108060788D01*
X290855484Y-108108407D01*
X290569770Y-108108407D01*
X290474532Y-108060788D01*
X290426913Y-108013169D01*
X290379294Y-107917930D01*
X290379294Y-107775073D01*
X290426913Y-107679835D01*
X290474532Y-107632216D01*
X290569770Y-107584597D01*
X290855484Y-107584597D01*
X290950722Y-107632216D01*
X290998341Y-107679835D01*
X291045960Y-107775073D01*
X291045960Y-107917930D01*
X291045960Y-106727454D02*
X290045960Y-106727454D01*
X290998341Y-106727454D02*
X291045960Y-106822692D01*
X291045960Y-107013169D01*
X290998341Y-107108407D01*
X290950722Y-107156026D01*
X290855484Y-107203645D01*
X290569770Y-107203645D01*
X290474532Y-107156026D01*
X290426913Y-107108407D01*
X290379294Y-107013169D01*
X290379294Y-106822692D01*
X290426913Y-106727454D01*
X290998341Y-105870311D02*
X291045960Y-105965550D01*
X291045960Y-106156026D01*
X290998341Y-106251264D01*
X290903103Y-106298883D01*
X290522151Y-106298883D01*
X290426913Y-106251264D01*
X290379294Y-106156026D01*
X290379294Y-105965550D01*
X290426913Y-105870311D01*
X290522151Y-105822692D01*
X290617389Y-105822692D01*
X290712627Y-106298883D01*
X291045960Y-105394121D02*
X290379294Y-105394121D01*
X290569770Y-105394121D02*
X290474532Y-105346502D01*
X290426913Y-105298883D01*
X290379294Y-105203645D01*
X290379294Y-105108407D01*
X291141199Y-105013169D02*
X291141199Y-104251264D01*
X290998341Y-104060788D02*
X291045960Y-103917930D01*
X291045960Y-103679835D01*
X290998341Y-103584597D01*
X290950722Y-103536978D01*
X290855484Y-103489359D01*
X290760246Y-103489359D01*
X290665008Y-103536978D01*
X290617389Y-103584597D01*
X290569770Y-103679835D01*
X290522151Y-103870311D01*
X290474532Y-103965550D01*
X290426913Y-104013169D01*
X290331675Y-104060788D01*
X290236437Y-104060788D01*
X290141199Y-104013169D01*
X290093580Y-103965550D01*
X290045960Y-103870311D01*
X290045960Y-103632216D01*
X290093580Y-103489359D01*
X290379294Y-103156026D02*
X291045960Y-102965550D01*
X290569770Y-102775073D01*
X291045960Y-102584597D01*
X290379294Y-102394121D01*
X291045960Y-102013169D02*
X290379294Y-102013169D01*
X290045960Y-102013169D02*
X290093580Y-102060788D01*
X290141199Y-102013169D01*
X290093580Y-101965550D01*
X290045960Y-102013169D01*
X290141199Y-102013169D01*
X290379294Y-101679835D02*
X290379294Y-101298883D01*
X290045960Y-101536978D02*
X290903103Y-101536978D01*
X290998341Y-101489359D01*
X291045960Y-101394121D01*
X291045960Y-101298883D01*
X290998341Y-100536978D02*
X291045960Y-100632216D01*
X291045960Y-100822692D01*
X290998341Y-100917930D01*
X290950722Y-100965550D01*
X290855484Y-101013169D01*
X290569770Y-101013169D01*
X290474532Y-100965550D01*
X290426913Y-100917930D01*
X290379294Y-100822692D01*
X290379294Y-100632216D01*
X290426913Y-100536978D01*
X291045960Y-100108407D02*
X290045960Y-100108407D01*
X291045960Y-99679835D02*
X290522151Y-99679835D01*
X290426913Y-99727454D01*
X290379294Y-99822692D01*
X290379294Y-99965550D01*
X290426913Y-100060788D01*
X290474532Y-100108407D01*
X56607182Y-98852780D02*
X56130992Y-98852780D01*
X56130992Y-97852780D01*
X56892897Y-98805161D02*
X57035754Y-98852780D01*
X57273849Y-98852780D01*
X57369087Y-98805161D01*
X57416706Y-98757542D01*
X57464325Y-98662304D01*
X57464325Y-98567066D01*
X57416706Y-98471828D01*
X57369087Y-98424209D01*
X57273849Y-98376590D01*
X57083373Y-98328971D01*
X56988135Y-98281352D01*
X56940516Y-98233733D01*
X56892897Y-98138495D01*
X56892897Y-98043257D01*
X56940516Y-97948019D01*
X56988135Y-97900400D01*
X57083373Y-97852780D01*
X57321468Y-97852780D01*
X57464325Y-97900400D01*
X58416706Y-98852780D02*
X57845278Y-98852780D01*
X58130992Y-98852780D02*
X58130992Y-97852780D01*
X58035754Y-97995638D01*
X57940516Y-98090876D01*
X57845278Y-98138495D01*
X56607182Y-93352780D02*
X56130992Y-93352780D01*
X56130992Y-92352780D01*
X56892897Y-93305161D02*
X57035754Y-93352780D01*
X57273849Y-93352780D01*
X57369087Y-93305161D01*
X57416706Y-93257542D01*
X57464325Y-93162304D01*
X57464325Y-93067066D01*
X57416706Y-92971828D01*
X57369087Y-92924209D01*
X57273849Y-92876590D01*
X57083373Y-92828971D01*
X56988135Y-92781352D01*
X56940516Y-92733733D01*
X56892897Y-92638495D01*
X56892897Y-92543257D01*
X56940516Y-92448019D01*
X56988135Y-92400400D01*
X57083373Y-92352780D01*
X57321468Y-92352780D01*
X57464325Y-92400400D01*
X58416706Y-93352780D02*
X57845278Y-93352780D01*
X58130992Y-93352780D02*
X58130992Y-92352780D01*
X58035754Y-92495638D01*
X57940516Y-92590876D01*
X57845278Y-92638495D01*
X26183333Y-103054801D02*
X26326190Y-103102420D01*
X26564285Y-103102420D01*
X26659523Y-103054801D01*
X26707142Y-103007182D01*
X26754761Y-102911944D01*
X26754761Y-102816706D01*
X26707142Y-102721468D01*
X26659523Y-102673849D01*
X26564285Y-102626230D01*
X26373809Y-102578611D01*
X26278571Y-102530992D01*
X26230952Y-102483373D01*
X26183333Y-102388135D01*
X26183333Y-102292897D01*
X26230952Y-102197659D01*
X26278571Y-102150040D01*
X26373809Y-102102420D01*
X26611904Y-102102420D01*
X26754761Y-102150040D01*
X27088095Y-102102420D02*
X27326190Y-103102420D01*
X27516666Y-102388135D01*
X27707142Y-103102420D01*
X27945238Y-102102420D01*
X28088095Y-103197659D02*
X28850000Y-103197659D01*
X29659523Y-103102420D02*
X29326190Y-102626230D01*
X29088095Y-103102420D02*
X29088095Y-102102420D01*
X29469047Y-102102420D01*
X29564285Y-102150040D01*
X29611904Y-102197659D01*
X29659523Y-102292897D01*
X29659523Y-102435754D01*
X29611904Y-102530992D01*
X29564285Y-102578611D01*
X29469047Y-102626230D01*
X29088095Y-102626230D01*
X30088095Y-102578611D02*
X30421428Y-102578611D01*
X30564285Y-103102420D02*
X30088095Y-103102420D01*
X30088095Y-102102420D01*
X30564285Y-102102420D01*
X30945238Y-102197659D02*
X30992857Y-102150040D01*
X31088095Y-102102420D01*
X31326190Y-102102420D01*
X31421428Y-102150040D01*
X31469047Y-102197659D01*
X31516666Y-102292897D01*
X31516666Y-102388135D01*
X31469047Y-102530992D01*
X30897619Y-103102420D01*
X31516666Y-103102420D01*
X24323727Y-115667113D02*
X23847537Y-116000447D01*
X24323727Y-116238542D02*
X23323727Y-116238542D01*
X23323727Y-115857589D01*
X23371347Y-115762351D01*
X23418966Y-115714732D01*
X23514204Y-115667113D01*
X23657061Y-115667113D01*
X23752299Y-115714732D01*
X23799918Y-115762351D01*
X23847537Y-115857589D01*
X23847537Y-116238542D01*
X24323727Y-115095685D02*
X24276108Y-115190923D01*
X24228489Y-115238542D01*
X24133251Y-115286161D01*
X23847537Y-115286161D01*
X23752299Y-115238542D01*
X23704680Y-115190923D01*
X23657061Y-115095685D01*
X23657061Y-114952828D01*
X23704680Y-114857589D01*
X23752299Y-114809970D01*
X23847537Y-114762351D01*
X24133251Y-114762351D01*
X24228489Y-114809970D01*
X24276108Y-114857589D01*
X24323727Y-114952828D01*
X24323727Y-115095685D01*
X23657061Y-114476637D02*
X23657061Y-114095685D01*
X23323727Y-114333780D02*
X24180870Y-114333780D01*
X24276108Y-114286161D01*
X24323727Y-114190923D01*
X24323727Y-114095685D01*
X24323727Y-113333780D02*
X23799918Y-113333780D01*
X23704680Y-113381399D01*
X23657061Y-113476637D01*
X23657061Y-113667113D01*
X23704680Y-113762351D01*
X24276108Y-113333780D02*
X24323727Y-113429018D01*
X24323727Y-113667113D01*
X24276108Y-113762351D01*
X24180870Y-113809970D01*
X24085632Y-113809970D01*
X23990394Y-113762351D01*
X23942775Y-113667113D01*
X23942775Y-113429018D01*
X23895156Y-113333780D01*
X24323727Y-112857589D02*
X23657061Y-112857589D01*
X23847537Y-112857589D02*
X23752299Y-112809970D01*
X23704680Y-112762351D01*
X23657061Y-112667113D01*
X23657061Y-112571875D01*
X23657061Y-112333780D02*
X24323727Y-112095685D01*
X23657061Y-111857589D02*
X24323727Y-112095685D01*
X24561823Y-112190923D01*
X24609442Y-112238542D01*
X24657061Y-112333780D01*
X24418966Y-111714732D02*
X24418966Y-110952828D01*
X23799918Y-110714732D02*
X23799918Y-110381399D01*
X24323727Y-110238542D02*
X24323727Y-110714732D01*
X23323727Y-110714732D01*
X23323727Y-110238542D01*
X23657061Y-109809970D02*
X24323727Y-109809970D01*
X23752299Y-109809970D02*
X23704680Y-109762351D01*
X23657061Y-109667113D01*
X23657061Y-109524256D01*
X23704680Y-109429018D01*
X23799918Y-109381399D01*
X24323727Y-109381399D01*
X24276108Y-108476637D02*
X24323727Y-108571875D01*
X24323727Y-108762351D01*
X24276108Y-108857589D01*
X24228489Y-108905208D01*
X24133251Y-108952828D01*
X23847537Y-108952828D01*
X23752299Y-108905208D01*
X23704680Y-108857589D01*
X23657061Y-108762351D01*
X23657061Y-108571875D01*
X23704680Y-108476637D01*
X24323727Y-107905208D02*
X24276108Y-108000447D01*
X24228489Y-108048066D01*
X24133251Y-108095685D01*
X23847537Y-108095685D01*
X23752299Y-108048066D01*
X23704680Y-108000447D01*
X23657061Y-107905208D01*
X23657061Y-107762351D01*
X23704680Y-107667113D01*
X23752299Y-107619494D01*
X23847537Y-107571875D01*
X24133251Y-107571875D01*
X24228489Y-107619494D01*
X24276108Y-107667113D01*
X24323727Y-107762351D01*
X24323727Y-107905208D01*
X24323727Y-106714732D02*
X23323727Y-106714732D01*
X24276108Y-106714732D02*
X24323727Y-106809970D01*
X24323727Y-107000447D01*
X24276108Y-107095685D01*
X24228489Y-107143304D01*
X24133251Y-107190923D01*
X23847537Y-107190923D01*
X23752299Y-107143304D01*
X23704680Y-107095685D01*
X23657061Y-107000447D01*
X23657061Y-106809970D01*
X23704680Y-106714732D01*
X24276108Y-105857589D02*
X24323727Y-105952828D01*
X24323727Y-106143304D01*
X24276108Y-106238542D01*
X24180870Y-106286161D01*
X23799918Y-106286161D01*
X23704680Y-106238542D01*
X23657061Y-106143304D01*
X23657061Y-105952828D01*
X23704680Y-105857589D01*
X23799918Y-105809970D01*
X23895156Y-105809970D01*
X23990394Y-106286161D01*
X24323727Y-105381399D02*
X23657061Y-105381399D01*
X23847537Y-105381399D02*
X23752299Y-105333780D01*
X23704680Y-105286161D01*
X23657061Y-105190923D01*
X23657061Y-105095685D01*
X24418966Y-105000447D02*
X24418966Y-104238542D01*
X24276108Y-104048066D02*
X24323727Y-103905208D01*
X24323727Y-103667113D01*
X24276108Y-103571875D01*
X24228489Y-103524256D01*
X24133251Y-103476637D01*
X24038013Y-103476637D01*
X23942775Y-103524256D01*
X23895156Y-103571875D01*
X23847537Y-103667113D01*
X23799918Y-103857589D01*
X23752299Y-103952828D01*
X23704680Y-104000447D01*
X23609442Y-104048066D01*
X23514204Y-104048066D01*
X23418966Y-104000447D01*
X23371347Y-103952828D01*
X23323727Y-103857589D01*
X23323727Y-103619494D01*
X23371347Y-103476637D01*
X23657061Y-103143304D02*
X24323727Y-102952828D01*
X23847537Y-102762351D01*
X24323727Y-102571875D01*
X23657061Y-102381399D01*
X24323727Y-102000447D02*
X23657061Y-102000447D01*
X23323727Y-102000447D02*
X23371347Y-102048066D01*
X23418966Y-102000447D01*
X23371347Y-101952828D01*
X23323727Y-102000447D01*
X23418966Y-102000447D01*
X23657061Y-101667113D02*
X23657061Y-101286161D01*
X23323727Y-101524256D02*
X24180870Y-101524256D01*
X24276108Y-101476637D01*
X24323727Y-101381399D01*
X24323727Y-101286161D01*
X24276108Y-100524256D02*
X24323727Y-100619494D01*
X24323727Y-100809970D01*
X24276108Y-100905208D01*
X24228489Y-100952828D01*
X24133251Y-101000447D01*
X23847537Y-101000447D01*
X23752299Y-100952828D01*
X23704680Y-100905208D01*
X23657061Y-100809970D01*
X23657061Y-100619494D01*
X23704680Y-100524256D01*
X24323727Y-100095685D02*
X23323727Y-100095685D01*
X24323727Y-99667113D02*
X23799918Y-99667113D01*
X23704680Y-99714732D01*
X23657061Y-99809970D01*
X23657061Y-99952828D01*
X23704680Y-100048066D01*
X23752299Y-100095685D01*
X28376108Y-114219494D02*
X28423727Y-114076637D01*
X28423727Y-113838542D01*
X28376108Y-113743304D01*
X28328489Y-113695685D01*
X28233251Y-113648066D01*
X28138013Y-113648066D01*
X28042775Y-113695685D01*
X27995156Y-113743304D01*
X27947537Y-113838542D01*
X27899918Y-114029018D01*
X27852299Y-114124256D01*
X27804680Y-114171875D01*
X27709442Y-114219494D01*
X27614204Y-114219494D01*
X27518966Y-114171875D01*
X27471347Y-114124256D01*
X27423727Y-114029018D01*
X27423727Y-113790923D01*
X27471347Y-113648066D01*
X27423727Y-113314732D02*
X28423727Y-113076637D01*
X27709442Y-112886161D01*
X28423727Y-112695685D01*
X27423727Y-112457589D01*
X28518966Y-112314732D02*
X28518966Y-111552828D01*
X28423727Y-110743304D02*
X27947537Y-111076637D01*
X28423727Y-111314732D02*
X27423727Y-111314732D01*
X27423727Y-110933780D01*
X27471347Y-110838542D01*
X27518966Y-110790923D01*
X27614204Y-110743304D01*
X27757061Y-110743304D01*
X27852299Y-110790923D01*
X27899918Y-110838542D01*
X27947537Y-110933780D01*
X27947537Y-111314732D01*
X27899918Y-110314732D02*
X27899918Y-109981399D01*
X28423727Y-109838542D02*
X28423727Y-110314732D01*
X27423727Y-110314732D01*
X27423727Y-109838542D01*
X27518966Y-109457589D02*
X27471347Y-109409970D01*
X27423727Y-109314732D01*
X27423727Y-109076637D01*
X27471347Y-108981399D01*
X27518966Y-108933780D01*
X27614204Y-108886161D01*
X27709442Y-108886161D01*
X27852299Y-108933780D01*
X28423727Y-109505208D01*
X28423727Y-108886161D01*
X31751825Y-44952780D02*
X31751825Y-43952780D01*
X32085159Y-44667066D01*
X32418492Y-43952780D01*
X32418492Y-44952780D01*
X33037540Y-44952780D02*
X32942301Y-44905161D01*
X32894682Y-44857542D01*
X32847063Y-44762304D01*
X32847063Y-44476590D01*
X32894682Y-44381352D01*
X32942301Y-44333733D01*
X33037540Y-44286114D01*
X33180397Y-44286114D01*
X33275635Y-44333733D01*
X33323254Y-44381352D01*
X33370873Y-44476590D01*
X33370873Y-44762304D01*
X33323254Y-44857542D01*
X33275635Y-44905161D01*
X33180397Y-44952780D01*
X33037540Y-44952780D01*
X34228016Y-44286114D02*
X34228016Y-44952780D01*
X33799444Y-44286114D02*
X33799444Y-44809923D01*
X33847063Y-44905161D01*
X33942301Y-44952780D01*
X34085159Y-44952780D01*
X34180397Y-44905161D01*
X34228016Y-44857542D01*
X34704206Y-44286114D02*
X34704206Y-44952780D01*
X34704206Y-44381352D02*
X34751825Y-44333733D01*
X34847063Y-44286114D01*
X34989920Y-44286114D01*
X35085159Y-44333733D01*
X35132778Y-44428971D01*
X35132778Y-44952780D01*
X35466111Y-44286114D02*
X35847063Y-44286114D01*
X35608968Y-43952780D02*
X35608968Y-44809923D01*
X35656587Y-44905161D01*
X35751825Y-44952780D01*
X35847063Y-44952780D01*
X36180397Y-44952780D02*
X36180397Y-44286114D01*
X36180397Y-43952780D02*
X36132778Y-44000400D01*
X36180397Y-44048019D01*
X36228016Y-44000400D01*
X36180397Y-43952780D01*
X36180397Y-44048019D01*
X36656587Y-44286114D02*
X36656587Y-44952780D01*
X36656587Y-44381352D02*
X36704206Y-44333733D01*
X36799444Y-44286114D01*
X36942301Y-44286114D01*
X37037540Y-44333733D01*
X37085159Y-44428971D01*
X37085159Y-44952780D01*
X37989920Y-44286114D02*
X37989920Y-45095638D01*
X37942301Y-45190876D01*
X37894682Y-45238495D01*
X37799444Y-45286114D01*
X37656587Y-45286114D01*
X37561349Y-45238495D01*
X37989920Y-44905161D02*
X37894682Y-44952780D01*
X37704206Y-44952780D01*
X37608968Y-44905161D01*
X37561349Y-44857542D01*
X37513730Y-44762304D01*
X37513730Y-44476590D01*
X37561349Y-44381352D01*
X37608968Y-44333733D01*
X37704206Y-44286114D01*
X37894682Y-44286114D01*
X37989920Y-44333733D01*
X38466111Y-44952780D02*
X38466111Y-43952780D01*
X38466111Y-44428971D02*
X39037540Y-44428971D01*
X39037540Y-44952780D02*
X39037540Y-43952780D01*
X39656587Y-44952780D02*
X39561349Y-44905161D01*
X39513730Y-44857542D01*
X39466111Y-44762304D01*
X39466111Y-44476590D01*
X39513730Y-44381352D01*
X39561349Y-44333733D01*
X39656587Y-44286114D01*
X39799444Y-44286114D01*
X39894682Y-44333733D01*
X39942301Y-44381352D01*
X39989920Y-44476590D01*
X39989920Y-44762304D01*
X39942301Y-44857542D01*
X39894682Y-44905161D01*
X39799444Y-44952780D01*
X39656587Y-44952780D01*
X40561349Y-44952780D02*
X40466111Y-44905161D01*
X40418492Y-44809923D01*
X40418492Y-43952780D01*
X41323254Y-44905161D02*
X41228016Y-44952780D01*
X41037540Y-44952780D01*
X40942301Y-44905161D01*
X40894682Y-44809923D01*
X40894682Y-44428971D01*
X40942301Y-44333733D01*
X41037540Y-44286114D01*
X41228016Y-44286114D01*
X41323254Y-44333733D01*
X41370873Y-44428971D01*
X41370873Y-44524209D01*
X40894682Y-44619447D01*
X36075635Y-41752780D02*
X36075635Y-40752780D01*
X36075635Y-41228971D02*
X36647063Y-41228971D01*
X36647063Y-41752780D02*
X36647063Y-40752780D01*
X37647063Y-41752780D02*
X37075635Y-41752780D01*
X37361349Y-41752780D02*
X37361349Y-40752780D01*
X37266111Y-40895638D01*
X37170873Y-40990876D01*
X37075635Y-41038495D01*
X250826825Y-64002780D02*
X250826825Y-63002780D01*
X251160159Y-63717066D01*
X251493492Y-63002780D01*
X251493492Y-64002780D01*
X252112540Y-64002780D02*
X252017301Y-63955161D01*
X251969682Y-63907542D01*
X251922063Y-63812304D01*
X251922063Y-63526590D01*
X251969682Y-63431352D01*
X252017301Y-63383733D01*
X252112540Y-63336114D01*
X252255397Y-63336114D01*
X252350635Y-63383733D01*
X252398254Y-63431352D01*
X252445873Y-63526590D01*
X252445873Y-63812304D01*
X252398254Y-63907542D01*
X252350635Y-63955161D01*
X252255397Y-64002780D01*
X252112540Y-64002780D01*
X253303016Y-63336114D02*
X253303016Y-64002780D01*
X252874444Y-63336114D02*
X252874444Y-63859923D01*
X252922063Y-63955161D01*
X253017301Y-64002780D01*
X253160159Y-64002780D01*
X253255397Y-63955161D01*
X253303016Y-63907542D01*
X253779206Y-63336114D02*
X253779206Y-64002780D01*
X253779206Y-63431352D02*
X253826825Y-63383733D01*
X253922063Y-63336114D01*
X254064920Y-63336114D01*
X254160159Y-63383733D01*
X254207778Y-63478971D01*
X254207778Y-64002780D01*
X254541111Y-63336114D02*
X254922063Y-63336114D01*
X254683968Y-63002780D02*
X254683968Y-63859923D01*
X254731587Y-63955161D01*
X254826825Y-64002780D01*
X254922063Y-64002780D01*
X255255397Y-64002780D02*
X255255397Y-63336114D01*
X255255397Y-63002780D02*
X255207778Y-63050400D01*
X255255397Y-63098019D01*
X255303016Y-63050400D01*
X255255397Y-63002780D01*
X255255397Y-63098019D01*
X255731587Y-63336114D02*
X255731587Y-64002780D01*
X255731587Y-63431352D02*
X255779206Y-63383733D01*
X255874444Y-63336114D01*
X256017301Y-63336114D01*
X256112540Y-63383733D01*
X256160159Y-63478971D01*
X256160159Y-64002780D01*
X257064920Y-63336114D02*
X257064920Y-64145638D01*
X257017301Y-64240876D01*
X256969682Y-64288495D01*
X256874444Y-64336114D01*
X256731587Y-64336114D01*
X256636349Y-64288495D01*
X257064920Y-63955161D02*
X256969682Y-64002780D01*
X256779206Y-64002780D01*
X256683968Y-63955161D01*
X256636349Y-63907542D01*
X256588730Y-63812304D01*
X256588730Y-63526590D01*
X256636349Y-63431352D01*
X256683968Y-63383733D01*
X256779206Y-63336114D01*
X256969682Y-63336114D01*
X257064920Y-63383733D01*
X257541111Y-64002780D02*
X257541111Y-63002780D01*
X257541111Y-63478971D02*
X258112540Y-63478971D01*
X258112540Y-64002780D02*
X258112540Y-63002780D01*
X258731587Y-64002780D02*
X258636349Y-63955161D01*
X258588730Y-63907542D01*
X258541111Y-63812304D01*
X258541111Y-63526590D01*
X258588730Y-63431352D01*
X258636349Y-63383733D01*
X258731587Y-63336114D01*
X258874444Y-63336114D01*
X258969682Y-63383733D01*
X259017301Y-63431352D01*
X259064920Y-63526590D01*
X259064920Y-63812304D01*
X259017301Y-63907542D01*
X258969682Y-63955161D01*
X258874444Y-64002780D01*
X258731587Y-64002780D01*
X259636349Y-64002780D02*
X259541111Y-63955161D01*
X259493492Y-63859923D01*
X259493492Y-63002780D01*
X260398254Y-63955161D02*
X260303016Y-64002780D01*
X260112540Y-64002780D01*
X260017301Y-63955161D01*
X259969682Y-63859923D01*
X259969682Y-63478971D01*
X260017301Y-63383733D01*
X260112540Y-63336114D01*
X260303016Y-63336114D01*
X260398254Y-63383733D01*
X260445873Y-63478971D01*
X260445873Y-63574209D01*
X259969682Y-63669447D01*
X255150635Y-60802780D02*
X255150635Y-59802780D01*
X255150635Y-60278971D02*
X255722063Y-60278971D01*
X255722063Y-60802780D02*
X255722063Y-59802780D01*
X256150635Y-59898019D02*
X256198254Y-59850400D01*
X256293492Y-59802780D01*
X256531587Y-59802780D01*
X256626825Y-59850400D01*
X256674444Y-59898019D01*
X256722063Y-59993257D01*
X256722063Y-60088495D01*
X256674444Y-60231352D01*
X256103016Y-60802780D01*
X256722063Y-60802780D01*
X250826825Y-83052780D02*
X250826825Y-82052780D01*
X251160159Y-82767066D01*
X251493492Y-82052780D01*
X251493492Y-83052780D01*
X252112540Y-83052780D02*
X252017301Y-83005161D01*
X251969682Y-82957542D01*
X251922063Y-82862304D01*
X251922063Y-82576590D01*
X251969682Y-82481352D01*
X252017301Y-82433733D01*
X252112540Y-82386114D01*
X252255397Y-82386114D01*
X252350635Y-82433733D01*
X252398254Y-82481352D01*
X252445873Y-82576590D01*
X252445873Y-82862304D01*
X252398254Y-82957542D01*
X252350635Y-83005161D01*
X252255397Y-83052780D01*
X252112540Y-83052780D01*
X253303016Y-82386114D02*
X253303016Y-83052780D01*
X252874444Y-82386114D02*
X252874444Y-82909923D01*
X252922063Y-83005161D01*
X253017301Y-83052780D01*
X253160159Y-83052780D01*
X253255397Y-83005161D01*
X253303016Y-82957542D01*
X253779206Y-82386114D02*
X253779206Y-83052780D01*
X253779206Y-82481352D02*
X253826825Y-82433733D01*
X253922063Y-82386114D01*
X254064920Y-82386114D01*
X254160159Y-82433733D01*
X254207778Y-82528971D01*
X254207778Y-83052780D01*
X254541111Y-82386114D02*
X254922063Y-82386114D01*
X254683968Y-82052780D02*
X254683968Y-82909923D01*
X254731587Y-83005161D01*
X254826825Y-83052780D01*
X254922063Y-83052780D01*
X255255397Y-83052780D02*
X255255397Y-82386114D01*
X255255397Y-82052780D02*
X255207778Y-82100400D01*
X255255397Y-82148019D01*
X255303016Y-82100400D01*
X255255397Y-82052780D01*
X255255397Y-82148019D01*
X255731587Y-82386114D02*
X255731587Y-83052780D01*
X255731587Y-82481352D02*
X255779206Y-82433733D01*
X255874444Y-82386114D01*
X256017301Y-82386114D01*
X256112540Y-82433733D01*
X256160159Y-82528971D01*
X256160159Y-83052780D01*
X257064920Y-82386114D02*
X257064920Y-83195638D01*
X257017301Y-83290876D01*
X256969682Y-83338495D01*
X256874444Y-83386114D01*
X256731587Y-83386114D01*
X256636349Y-83338495D01*
X257064920Y-83005161D02*
X256969682Y-83052780D01*
X256779206Y-83052780D01*
X256683968Y-83005161D01*
X256636349Y-82957542D01*
X256588730Y-82862304D01*
X256588730Y-82576590D01*
X256636349Y-82481352D01*
X256683968Y-82433733D01*
X256779206Y-82386114D01*
X256969682Y-82386114D01*
X257064920Y-82433733D01*
X257541111Y-83052780D02*
X257541111Y-82052780D01*
X257541111Y-82528971D02*
X258112540Y-82528971D01*
X258112540Y-83052780D02*
X258112540Y-82052780D01*
X258731587Y-83052780D02*
X258636349Y-83005161D01*
X258588730Y-82957542D01*
X258541111Y-82862304D01*
X258541111Y-82576590D01*
X258588730Y-82481352D01*
X258636349Y-82433733D01*
X258731587Y-82386114D01*
X258874444Y-82386114D01*
X258969682Y-82433733D01*
X259017301Y-82481352D01*
X259064920Y-82576590D01*
X259064920Y-82862304D01*
X259017301Y-82957542D01*
X258969682Y-83005161D01*
X258874444Y-83052780D01*
X258731587Y-83052780D01*
X259636349Y-83052780D02*
X259541111Y-83005161D01*
X259493492Y-82909923D01*
X259493492Y-82052780D01*
X260398254Y-83005161D02*
X260303016Y-83052780D01*
X260112540Y-83052780D01*
X260017301Y-83005161D01*
X259969682Y-82909923D01*
X259969682Y-82528971D01*
X260017301Y-82433733D01*
X260112540Y-82386114D01*
X260303016Y-82386114D01*
X260398254Y-82433733D01*
X260445873Y-82528971D01*
X260445873Y-82624209D01*
X259969682Y-82719447D01*
X255150635Y-79852780D02*
X255150635Y-78852780D01*
X255150635Y-79328971D02*
X255722063Y-79328971D01*
X255722063Y-79852780D02*
X255722063Y-78852780D01*
X256103016Y-78852780D02*
X256722063Y-78852780D01*
X256388730Y-79233733D01*
X256531587Y-79233733D01*
X256626825Y-79281352D01*
X256674444Y-79328971D01*
X256722063Y-79424209D01*
X256722063Y-79662304D01*
X256674444Y-79757542D01*
X256626825Y-79805161D01*
X256531587Y-79852780D01*
X256245873Y-79852780D01*
X256150635Y-79805161D01*
X256103016Y-79757542D01*
X31751825Y-64002780D02*
X31751825Y-63002780D01*
X32085159Y-63717066D01*
X32418492Y-63002780D01*
X32418492Y-64002780D01*
X33037540Y-64002780D02*
X32942301Y-63955161D01*
X32894682Y-63907542D01*
X32847063Y-63812304D01*
X32847063Y-63526590D01*
X32894682Y-63431352D01*
X32942301Y-63383733D01*
X33037540Y-63336114D01*
X33180397Y-63336114D01*
X33275635Y-63383733D01*
X33323254Y-63431352D01*
X33370873Y-63526590D01*
X33370873Y-63812304D01*
X33323254Y-63907542D01*
X33275635Y-63955161D01*
X33180397Y-64002780D01*
X33037540Y-64002780D01*
X34228016Y-63336114D02*
X34228016Y-64002780D01*
X33799444Y-63336114D02*
X33799444Y-63859923D01*
X33847063Y-63955161D01*
X33942301Y-64002780D01*
X34085159Y-64002780D01*
X34180397Y-63955161D01*
X34228016Y-63907542D01*
X34704206Y-63336114D02*
X34704206Y-64002780D01*
X34704206Y-63431352D02*
X34751825Y-63383733D01*
X34847063Y-63336114D01*
X34989920Y-63336114D01*
X35085159Y-63383733D01*
X35132778Y-63478971D01*
X35132778Y-64002780D01*
X35466111Y-63336114D02*
X35847063Y-63336114D01*
X35608968Y-63002780D02*
X35608968Y-63859923D01*
X35656587Y-63955161D01*
X35751825Y-64002780D01*
X35847063Y-64002780D01*
X36180397Y-64002780D02*
X36180397Y-63336114D01*
X36180397Y-63002780D02*
X36132778Y-63050400D01*
X36180397Y-63098019D01*
X36228016Y-63050400D01*
X36180397Y-63002780D01*
X36180397Y-63098019D01*
X36656587Y-63336114D02*
X36656587Y-64002780D01*
X36656587Y-63431352D02*
X36704206Y-63383733D01*
X36799444Y-63336114D01*
X36942301Y-63336114D01*
X37037540Y-63383733D01*
X37085159Y-63478971D01*
X37085159Y-64002780D01*
X37989920Y-63336114D02*
X37989920Y-64145638D01*
X37942301Y-64240876D01*
X37894682Y-64288495D01*
X37799444Y-64336114D01*
X37656587Y-64336114D01*
X37561349Y-64288495D01*
X37989920Y-63955161D02*
X37894682Y-64002780D01*
X37704206Y-64002780D01*
X37608968Y-63955161D01*
X37561349Y-63907542D01*
X37513730Y-63812304D01*
X37513730Y-63526590D01*
X37561349Y-63431352D01*
X37608968Y-63383733D01*
X37704206Y-63336114D01*
X37894682Y-63336114D01*
X37989920Y-63383733D01*
X38466111Y-64002780D02*
X38466111Y-63002780D01*
X38466111Y-63478971D02*
X39037540Y-63478971D01*
X39037540Y-64002780D02*
X39037540Y-63002780D01*
X39656587Y-64002780D02*
X39561349Y-63955161D01*
X39513730Y-63907542D01*
X39466111Y-63812304D01*
X39466111Y-63526590D01*
X39513730Y-63431352D01*
X39561349Y-63383733D01*
X39656587Y-63336114D01*
X39799444Y-63336114D01*
X39894682Y-63383733D01*
X39942301Y-63431352D01*
X39989920Y-63526590D01*
X39989920Y-63812304D01*
X39942301Y-63907542D01*
X39894682Y-63955161D01*
X39799444Y-64002780D01*
X39656587Y-64002780D01*
X40561349Y-64002780D02*
X40466111Y-63955161D01*
X40418492Y-63859923D01*
X40418492Y-63002780D01*
X41323254Y-63955161D02*
X41228016Y-64002780D01*
X41037540Y-64002780D01*
X40942301Y-63955161D01*
X40894682Y-63859923D01*
X40894682Y-63478971D01*
X40942301Y-63383733D01*
X41037540Y-63336114D01*
X41228016Y-63336114D01*
X41323254Y-63383733D01*
X41370873Y-63478971D01*
X41370873Y-63574209D01*
X40894682Y-63669447D01*
X36075635Y-60802780D02*
X36075635Y-59802780D01*
X36075635Y-60278971D02*
X36647063Y-60278971D01*
X36647063Y-60802780D02*
X36647063Y-59802780D01*
X37551825Y-60136114D02*
X37551825Y-60802780D01*
X37313730Y-59755161D02*
X37075635Y-60469447D01*
X37694682Y-60469447D01*
X20814285Y-76452380D02*
X20814285Y-75452380D01*
X21147619Y-76166666D01*
X21480952Y-75452380D01*
X21480952Y-76452380D01*
X22100000Y-76452380D02*
X22004761Y-76404761D01*
X21957142Y-76357142D01*
X21909523Y-76261904D01*
X21909523Y-75976190D01*
X21957142Y-75880952D01*
X22004761Y-75833333D01*
X22100000Y-75785714D01*
X22242857Y-75785714D01*
X22338095Y-75833333D01*
X22385714Y-75880952D01*
X22433333Y-75976190D01*
X22433333Y-76261904D01*
X22385714Y-76357142D01*
X22338095Y-76404761D01*
X22242857Y-76452380D01*
X22100000Y-76452380D01*
X23290476Y-75785714D02*
X23290476Y-76452380D01*
X22861904Y-75785714D02*
X22861904Y-76309523D01*
X22909523Y-76404761D01*
X23004761Y-76452380D01*
X23147619Y-76452380D01*
X23242857Y-76404761D01*
X23290476Y-76357142D01*
X23766666Y-75785714D02*
X23766666Y-76452380D01*
X23766666Y-75880952D02*
X23814285Y-75833333D01*
X23909523Y-75785714D01*
X24052380Y-75785714D01*
X24147619Y-75833333D01*
X24195238Y-75928571D01*
X24195238Y-76452380D01*
X24528571Y-75785714D02*
X24909523Y-75785714D01*
X24671428Y-75452380D02*
X24671428Y-76309523D01*
X24719047Y-76404761D01*
X24814285Y-76452380D01*
X24909523Y-76452380D01*
X25242857Y-76452380D02*
X25242857Y-75785714D01*
X25242857Y-75452380D02*
X25195238Y-75500000D01*
X25242857Y-75547619D01*
X25290476Y-75500000D01*
X25242857Y-75452380D01*
X25242857Y-75547619D01*
X25719047Y-75785714D02*
X25719047Y-76452380D01*
X25719047Y-75880952D02*
X25766666Y-75833333D01*
X25861904Y-75785714D01*
X26004761Y-75785714D01*
X26100000Y-75833333D01*
X26147619Y-75928571D01*
X26147619Y-76452380D01*
X27052380Y-75785714D02*
X27052380Y-76595238D01*
X27004761Y-76690476D01*
X26957142Y-76738095D01*
X26861904Y-76785714D01*
X26719047Y-76785714D01*
X26623809Y-76738095D01*
X27052380Y-76404761D02*
X26957142Y-76452380D01*
X26766666Y-76452380D01*
X26671428Y-76404761D01*
X26623809Y-76357142D01*
X26576190Y-76261904D01*
X26576190Y-75976190D01*
X26623809Y-75880952D01*
X26671428Y-75833333D01*
X26766666Y-75785714D01*
X26957142Y-75785714D01*
X27052380Y-75833333D01*
X27528571Y-76452380D02*
X27528571Y-75452380D01*
X27528571Y-75928571D02*
X28100000Y-75928571D01*
X28100000Y-76452380D02*
X28100000Y-75452380D01*
X28719047Y-76452380D02*
X28623809Y-76404761D01*
X28576190Y-76357142D01*
X28528571Y-76261904D01*
X28528571Y-75976190D01*
X28576190Y-75880952D01*
X28623809Y-75833333D01*
X28719047Y-75785714D01*
X28861904Y-75785714D01*
X28957142Y-75833333D01*
X29004761Y-75880952D01*
X29052380Y-75976190D01*
X29052380Y-76261904D01*
X29004761Y-76357142D01*
X28957142Y-76404761D01*
X28861904Y-76452380D01*
X28719047Y-76452380D01*
X29623809Y-76452380D02*
X29528571Y-76404761D01*
X29480952Y-76309523D01*
X29480952Y-75452380D01*
X30385714Y-76404761D02*
X30290476Y-76452380D01*
X30100000Y-76452380D01*
X30004761Y-76404761D01*
X29957142Y-76309523D01*
X29957142Y-75928571D01*
X30004761Y-75833333D01*
X30100000Y-75785714D01*
X30290476Y-75785714D01*
X30385714Y-75833333D01*
X30433333Y-75928571D01*
X30433333Y-76023809D01*
X29957142Y-76119047D01*
X25138095Y-73252380D02*
X25138095Y-72252380D01*
X25138095Y-72728571D02*
X25709523Y-72728571D01*
X25709523Y-73252380D02*
X25709523Y-72252380D01*
X26614285Y-72252380D02*
X26423809Y-72252380D01*
X26328571Y-72300000D01*
X26280952Y-72347619D01*
X26185714Y-72490476D01*
X26138095Y-72680952D01*
X26138095Y-73061904D01*
X26185714Y-73157142D01*
X26233333Y-73204761D01*
X26328571Y-73252380D01*
X26519047Y-73252380D01*
X26614285Y-73204761D01*
X26661904Y-73157142D01*
X26709523Y-73061904D01*
X26709523Y-72823809D01*
X26661904Y-72728571D01*
X26614285Y-72680952D01*
X26519047Y-72633333D01*
X26328571Y-72633333D01*
X26233333Y-72680952D01*
X26185714Y-72728571D01*
X26138095Y-72823809D01*
X20814285Y-54477780D02*
X20814285Y-53477780D01*
X21147619Y-54192066D01*
X21480952Y-53477780D01*
X21480952Y-54477780D01*
X22100000Y-54477780D02*
X22004761Y-54430161D01*
X21957142Y-54382542D01*
X21909523Y-54287304D01*
X21909523Y-54001590D01*
X21957142Y-53906352D01*
X22004761Y-53858733D01*
X22100000Y-53811114D01*
X22242857Y-53811114D01*
X22338095Y-53858733D01*
X22385714Y-53906352D01*
X22433333Y-54001590D01*
X22433333Y-54287304D01*
X22385714Y-54382542D01*
X22338095Y-54430161D01*
X22242857Y-54477780D01*
X22100000Y-54477780D01*
X23290476Y-53811114D02*
X23290476Y-54477780D01*
X22861904Y-53811114D02*
X22861904Y-54334923D01*
X22909523Y-54430161D01*
X23004761Y-54477780D01*
X23147619Y-54477780D01*
X23242857Y-54430161D01*
X23290476Y-54382542D01*
X23766666Y-53811114D02*
X23766666Y-54477780D01*
X23766666Y-53906352D02*
X23814285Y-53858733D01*
X23909523Y-53811114D01*
X24052380Y-53811114D01*
X24147619Y-53858733D01*
X24195238Y-53953971D01*
X24195238Y-54477780D01*
X24528571Y-53811114D02*
X24909523Y-53811114D01*
X24671428Y-53477780D02*
X24671428Y-54334923D01*
X24719047Y-54430161D01*
X24814285Y-54477780D01*
X24909523Y-54477780D01*
X25242857Y-54477780D02*
X25242857Y-53811114D01*
X25242857Y-53477780D02*
X25195238Y-53525400D01*
X25242857Y-53573019D01*
X25290476Y-53525400D01*
X25242857Y-53477780D01*
X25242857Y-53573019D01*
X25719047Y-53811114D02*
X25719047Y-54477780D01*
X25719047Y-53906352D02*
X25766666Y-53858733D01*
X25861904Y-53811114D01*
X26004761Y-53811114D01*
X26100000Y-53858733D01*
X26147619Y-53953971D01*
X26147619Y-54477780D01*
X27052380Y-53811114D02*
X27052380Y-54620638D01*
X27004761Y-54715876D01*
X26957142Y-54763495D01*
X26861904Y-54811114D01*
X26719047Y-54811114D01*
X26623809Y-54763495D01*
X27052380Y-54430161D02*
X26957142Y-54477780D01*
X26766666Y-54477780D01*
X26671428Y-54430161D01*
X26623809Y-54382542D01*
X26576190Y-54287304D01*
X26576190Y-54001590D01*
X26623809Y-53906352D01*
X26671428Y-53858733D01*
X26766666Y-53811114D01*
X26957142Y-53811114D01*
X27052380Y-53858733D01*
X27528571Y-54477780D02*
X27528571Y-53477780D01*
X27528571Y-53953971D02*
X28100000Y-53953971D01*
X28100000Y-54477780D02*
X28100000Y-53477780D01*
X28719047Y-54477780D02*
X28623809Y-54430161D01*
X28576190Y-54382542D01*
X28528571Y-54287304D01*
X28528571Y-54001590D01*
X28576190Y-53906352D01*
X28623809Y-53858733D01*
X28719047Y-53811114D01*
X28861904Y-53811114D01*
X28957142Y-53858733D01*
X29004761Y-53906352D01*
X29052380Y-54001590D01*
X29052380Y-54287304D01*
X29004761Y-54382542D01*
X28957142Y-54430161D01*
X28861904Y-54477780D01*
X28719047Y-54477780D01*
X29623809Y-54477780D02*
X29528571Y-54430161D01*
X29480952Y-54334923D01*
X29480952Y-53477780D01*
X30385714Y-54430161D02*
X30290476Y-54477780D01*
X30100000Y-54477780D01*
X30004761Y-54430161D01*
X29957142Y-54334923D01*
X29957142Y-53953971D01*
X30004761Y-53858733D01*
X30100000Y-53811114D01*
X30290476Y-53811114D01*
X30385714Y-53858733D01*
X30433333Y-53953971D01*
X30433333Y-54049209D01*
X29957142Y-54144447D01*
X25138095Y-51277780D02*
X25138095Y-50277780D01*
X25138095Y-50753971D02*
X25709523Y-50753971D01*
X25709523Y-51277780D02*
X25709523Y-50277780D01*
X26090476Y-50277780D02*
X26757142Y-50277780D01*
X26328571Y-51277780D01*
X293689325Y-44952780D02*
X293689325Y-43952780D01*
X294022659Y-44667066D01*
X294355992Y-43952780D01*
X294355992Y-44952780D01*
X294975040Y-44952780D02*
X294879801Y-44905161D01*
X294832182Y-44857542D01*
X294784563Y-44762304D01*
X294784563Y-44476590D01*
X294832182Y-44381352D01*
X294879801Y-44333733D01*
X294975040Y-44286114D01*
X295117897Y-44286114D01*
X295213135Y-44333733D01*
X295260754Y-44381352D01*
X295308373Y-44476590D01*
X295308373Y-44762304D01*
X295260754Y-44857542D01*
X295213135Y-44905161D01*
X295117897Y-44952780D01*
X294975040Y-44952780D01*
X296165516Y-44286114D02*
X296165516Y-44952780D01*
X295736944Y-44286114D02*
X295736944Y-44809923D01*
X295784563Y-44905161D01*
X295879801Y-44952780D01*
X296022659Y-44952780D01*
X296117897Y-44905161D01*
X296165516Y-44857542D01*
X296641706Y-44286114D02*
X296641706Y-44952780D01*
X296641706Y-44381352D02*
X296689325Y-44333733D01*
X296784563Y-44286114D01*
X296927420Y-44286114D01*
X297022659Y-44333733D01*
X297070278Y-44428971D01*
X297070278Y-44952780D01*
X297403611Y-44286114D02*
X297784563Y-44286114D01*
X297546468Y-43952780D02*
X297546468Y-44809923D01*
X297594087Y-44905161D01*
X297689325Y-44952780D01*
X297784563Y-44952780D01*
X298117897Y-44952780D02*
X298117897Y-44286114D01*
X298117897Y-43952780D02*
X298070278Y-44000400D01*
X298117897Y-44048019D01*
X298165516Y-44000400D01*
X298117897Y-43952780D01*
X298117897Y-44048019D01*
X298594087Y-44286114D02*
X298594087Y-44952780D01*
X298594087Y-44381352D02*
X298641706Y-44333733D01*
X298736944Y-44286114D01*
X298879801Y-44286114D01*
X298975040Y-44333733D01*
X299022659Y-44428971D01*
X299022659Y-44952780D01*
X299927420Y-44286114D02*
X299927420Y-45095638D01*
X299879801Y-45190876D01*
X299832182Y-45238495D01*
X299736944Y-45286114D01*
X299594087Y-45286114D01*
X299498849Y-45238495D01*
X299927420Y-44905161D02*
X299832182Y-44952780D01*
X299641706Y-44952780D01*
X299546468Y-44905161D01*
X299498849Y-44857542D01*
X299451230Y-44762304D01*
X299451230Y-44476590D01*
X299498849Y-44381352D01*
X299546468Y-44333733D01*
X299641706Y-44286114D01*
X299832182Y-44286114D01*
X299927420Y-44333733D01*
X300403611Y-44952780D02*
X300403611Y-43952780D01*
X300403611Y-44428971D02*
X300975040Y-44428971D01*
X300975040Y-44952780D02*
X300975040Y-43952780D01*
X301594087Y-44952780D02*
X301498849Y-44905161D01*
X301451230Y-44857542D01*
X301403611Y-44762304D01*
X301403611Y-44476590D01*
X301451230Y-44381352D01*
X301498849Y-44333733D01*
X301594087Y-44286114D01*
X301736944Y-44286114D01*
X301832182Y-44333733D01*
X301879801Y-44381352D01*
X301927420Y-44476590D01*
X301927420Y-44762304D01*
X301879801Y-44857542D01*
X301832182Y-44905161D01*
X301736944Y-44952780D01*
X301594087Y-44952780D01*
X302498849Y-44952780D02*
X302403611Y-44905161D01*
X302355992Y-44809923D01*
X302355992Y-43952780D01*
X303260754Y-44905161D02*
X303165516Y-44952780D01*
X302975040Y-44952780D01*
X302879801Y-44905161D01*
X302832182Y-44809923D01*
X302832182Y-44428971D01*
X302879801Y-44333733D01*
X302975040Y-44286114D01*
X303165516Y-44286114D01*
X303260754Y-44333733D01*
X303308373Y-44428971D01*
X303308373Y-44524209D01*
X302832182Y-44619447D01*
X298013135Y-41752780D02*
X298013135Y-40752780D01*
X298013135Y-41228971D02*
X298584563Y-41228971D01*
X298584563Y-41752780D02*
X298584563Y-40752780D01*
X299203611Y-41181352D02*
X299108373Y-41133733D01*
X299060754Y-41086114D01*
X299013135Y-40990876D01*
X299013135Y-40943257D01*
X299060754Y-40848019D01*
X299108373Y-40800400D01*
X299203611Y-40752780D01*
X299394087Y-40752780D01*
X299489325Y-40800400D01*
X299536944Y-40848019D01*
X299584563Y-40943257D01*
X299584563Y-40990876D01*
X299536944Y-41086114D01*
X299489325Y-41133733D01*
X299394087Y-41181352D01*
X299203611Y-41181352D01*
X299108373Y-41228971D01*
X299060754Y-41276590D01*
X299013135Y-41371828D01*
X299013135Y-41562304D01*
X299060754Y-41657542D01*
X299108373Y-41705161D01*
X299203611Y-41752780D01*
X299394087Y-41752780D01*
X299489325Y-41705161D01*
X299536944Y-41657542D01*
X299584563Y-41562304D01*
X299584563Y-41371828D01*
X299536944Y-41276590D01*
X299489325Y-41228971D01*
X299394087Y-41181352D01*
X250826825Y-44952780D02*
X250826825Y-43952780D01*
X251160159Y-44667066D01*
X251493492Y-43952780D01*
X251493492Y-44952780D01*
X252112540Y-44952780D02*
X252017301Y-44905161D01*
X251969682Y-44857542D01*
X251922063Y-44762304D01*
X251922063Y-44476590D01*
X251969682Y-44381352D01*
X252017301Y-44333733D01*
X252112540Y-44286114D01*
X252255397Y-44286114D01*
X252350635Y-44333733D01*
X252398254Y-44381352D01*
X252445873Y-44476590D01*
X252445873Y-44762304D01*
X252398254Y-44857542D01*
X252350635Y-44905161D01*
X252255397Y-44952780D01*
X252112540Y-44952780D01*
X253303016Y-44286114D02*
X253303016Y-44952780D01*
X252874444Y-44286114D02*
X252874444Y-44809923D01*
X252922063Y-44905161D01*
X253017301Y-44952780D01*
X253160159Y-44952780D01*
X253255397Y-44905161D01*
X253303016Y-44857542D01*
X253779206Y-44286114D02*
X253779206Y-44952780D01*
X253779206Y-44381352D02*
X253826825Y-44333733D01*
X253922063Y-44286114D01*
X254064920Y-44286114D01*
X254160159Y-44333733D01*
X254207778Y-44428971D01*
X254207778Y-44952780D01*
X254541111Y-44286114D02*
X254922063Y-44286114D01*
X254683968Y-43952780D02*
X254683968Y-44809923D01*
X254731587Y-44905161D01*
X254826825Y-44952780D01*
X254922063Y-44952780D01*
X255255397Y-44952780D02*
X255255397Y-44286114D01*
X255255397Y-43952780D02*
X255207778Y-44000400D01*
X255255397Y-44048019D01*
X255303016Y-44000400D01*
X255255397Y-43952780D01*
X255255397Y-44048019D01*
X255731587Y-44286114D02*
X255731587Y-44952780D01*
X255731587Y-44381352D02*
X255779206Y-44333733D01*
X255874444Y-44286114D01*
X256017301Y-44286114D01*
X256112540Y-44333733D01*
X256160159Y-44428971D01*
X256160159Y-44952780D01*
X257064920Y-44286114D02*
X257064920Y-45095638D01*
X257017301Y-45190876D01*
X256969682Y-45238495D01*
X256874444Y-45286114D01*
X256731587Y-45286114D01*
X256636349Y-45238495D01*
X257064920Y-44905161D02*
X256969682Y-44952780D01*
X256779206Y-44952780D01*
X256683968Y-44905161D01*
X256636349Y-44857542D01*
X256588730Y-44762304D01*
X256588730Y-44476590D01*
X256636349Y-44381352D01*
X256683968Y-44333733D01*
X256779206Y-44286114D01*
X256969682Y-44286114D01*
X257064920Y-44333733D01*
X257541111Y-44952780D02*
X257541111Y-43952780D01*
X257541111Y-44428971D02*
X258112540Y-44428971D01*
X258112540Y-44952780D02*
X258112540Y-43952780D01*
X258731587Y-44952780D02*
X258636349Y-44905161D01*
X258588730Y-44857542D01*
X258541111Y-44762304D01*
X258541111Y-44476590D01*
X258588730Y-44381352D01*
X258636349Y-44333733D01*
X258731587Y-44286114D01*
X258874444Y-44286114D01*
X258969682Y-44333733D01*
X259017301Y-44381352D01*
X259064920Y-44476590D01*
X259064920Y-44762304D01*
X259017301Y-44857542D01*
X258969682Y-44905161D01*
X258874444Y-44952780D01*
X258731587Y-44952780D01*
X259636349Y-44952780D02*
X259541111Y-44905161D01*
X259493492Y-44809923D01*
X259493492Y-43952780D01*
X260398254Y-44905161D02*
X260303016Y-44952780D01*
X260112540Y-44952780D01*
X260017301Y-44905161D01*
X259969682Y-44809923D01*
X259969682Y-44428971D01*
X260017301Y-44333733D01*
X260112540Y-44286114D01*
X260303016Y-44286114D01*
X260398254Y-44333733D01*
X260445873Y-44428971D01*
X260445873Y-44524209D01*
X259969682Y-44619447D01*
X255150635Y-41752780D02*
X255150635Y-40752780D01*
X255150635Y-41228971D02*
X255722063Y-41228971D01*
X255722063Y-41752780D02*
X255722063Y-40752780D01*
X256245873Y-41752780D02*
X256436349Y-41752780D01*
X256531587Y-41705161D01*
X256579206Y-41657542D01*
X256674444Y-41514685D01*
X256722063Y-41324209D01*
X256722063Y-40943257D01*
X256674444Y-40848019D01*
X256626825Y-40800400D01*
X256531587Y-40752780D01*
X256341111Y-40752780D01*
X256245873Y-40800400D01*
X256198254Y-40848019D01*
X256150635Y-40943257D01*
X256150635Y-41181352D01*
X256198254Y-41276590D01*
X256245873Y-41324209D01*
X256341111Y-41371828D01*
X256531587Y-41371828D01*
X256626825Y-41324209D01*
X256674444Y-41276590D01*
X256722063Y-41181352D01*
X31751825Y-83052780D02*
X31751825Y-82052780D01*
X32085159Y-82767066D01*
X32418492Y-82052780D01*
X32418492Y-83052780D01*
X33037540Y-83052780D02*
X32942301Y-83005161D01*
X32894682Y-82957542D01*
X32847063Y-82862304D01*
X32847063Y-82576590D01*
X32894682Y-82481352D01*
X32942301Y-82433733D01*
X33037540Y-82386114D01*
X33180397Y-82386114D01*
X33275635Y-82433733D01*
X33323254Y-82481352D01*
X33370873Y-82576590D01*
X33370873Y-82862304D01*
X33323254Y-82957542D01*
X33275635Y-83005161D01*
X33180397Y-83052780D01*
X33037540Y-83052780D01*
X34228016Y-82386114D02*
X34228016Y-83052780D01*
X33799444Y-82386114D02*
X33799444Y-82909923D01*
X33847063Y-83005161D01*
X33942301Y-83052780D01*
X34085159Y-83052780D01*
X34180397Y-83005161D01*
X34228016Y-82957542D01*
X34704206Y-82386114D02*
X34704206Y-83052780D01*
X34704206Y-82481352D02*
X34751825Y-82433733D01*
X34847063Y-82386114D01*
X34989920Y-82386114D01*
X35085159Y-82433733D01*
X35132778Y-82528971D01*
X35132778Y-83052780D01*
X35466111Y-82386114D02*
X35847063Y-82386114D01*
X35608968Y-82052780D02*
X35608968Y-82909923D01*
X35656587Y-83005161D01*
X35751825Y-83052780D01*
X35847063Y-83052780D01*
X36180397Y-83052780D02*
X36180397Y-82386114D01*
X36180397Y-82052780D02*
X36132778Y-82100400D01*
X36180397Y-82148019D01*
X36228016Y-82100400D01*
X36180397Y-82052780D01*
X36180397Y-82148019D01*
X36656587Y-82386114D02*
X36656587Y-83052780D01*
X36656587Y-82481352D02*
X36704206Y-82433733D01*
X36799444Y-82386114D01*
X36942301Y-82386114D01*
X37037540Y-82433733D01*
X37085159Y-82528971D01*
X37085159Y-83052780D01*
X37989920Y-82386114D02*
X37989920Y-83195638D01*
X37942301Y-83290876D01*
X37894682Y-83338495D01*
X37799444Y-83386114D01*
X37656587Y-83386114D01*
X37561349Y-83338495D01*
X37989920Y-83005161D02*
X37894682Y-83052780D01*
X37704206Y-83052780D01*
X37608968Y-83005161D01*
X37561349Y-82957542D01*
X37513730Y-82862304D01*
X37513730Y-82576590D01*
X37561349Y-82481352D01*
X37608968Y-82433733D01*
X37704206Y-82386114D01*
X37894682Y-82386114D01*
X37989920Y-82433733D01*
X38466111Y-83052780D02*
X38466111Y-82052780D01*
X38466111Y-82528971D02*
X39037540Y-82528971D01*
X39037540Y-83052780D02*
X39037540Y-82052780D01*
X39656587Y-83052780D02*
X39561349Y-83005161D01*
X39513730Y-82957542D01*
X39466111Y-82862304D01*
X39466111Y-82576590D01*
X39513730Y-82481352D01*
X39561349Y-82433733D01*
X39656587Y-82386114D01*
X39799444Y-82386114D01*
X39894682Y-82433733D01*
X39942301Y-82481352D01*
X39989920Y-82576590D01*
X39989920Y-82862304D01*
X39942301Y-82957542D01*
X39894682Y-83005161D01*
X39799444Y-83052780D01*
X39656587Y-83052780D01*
X40561349Y-83052780D02*
X40466111Y-83005161D01*
X40418492Y-82909923D01*
X40418492Y-82052780D01*
X41323254Y-83005161D02*
X41228016Y-83052780D01*
X41037540Y-83052780D01*
X40942301Y-83005161D01*
X40894682Y-82909923D01*
X40894682Y-82528971D01*
X40942301Y-82433733D01*
X41037540Y-82386114D01*
X41228016Y-82386114D01*
X41323254Y-82433733D01*
X41370873Y-82528971D01*
X41370873Y-82624209D01*
X40894682Y-82719447D01*
X35599444Y-79852780D02*
X35599444Y-78852780D01*
X35599444Y-79328971D02*
X36170873Y-79328971D01*
X36170873Y-79852780D02*
X36170873Y-78852780D01*
X37170873Y-79852780D02*
X36599444Y-79852780D01*
X36885159Y-79852780D02*
X36885159Y-78852780D01*
X36789920Y-78995638D01*
X36694682Y-79090876D01*
X36599444Y-79138495D01*
X37789920Y-78852780D02*
X37885159Y-78852780D01*
X37980397Y-78900400D01*
X38028016Y-78948019D01*
X38075635Y-79043257D01*
X38123254Y-79233733D01*
X38123254Y-79471828D01*
X38075635Y-79662304D01*
X38028016Y-79757542D01*
X37980397Y-79805161D01*
X37885159Y-79852780D01*
X37789920Y-79852780D01*
X37694682Y-79805161D01*
X37647063Y-79757542D01*
X37599444Y-79662304D01*
X37551825Y-79471828D01*
X37551825Y-79233733D01*
X37599444Y-79043257D01*
X37647063Y-78948019D01*
X37694682Y-78900400D01*
X37789920Y-78852780D01*
X21388095Y-59604801D02*
X21530952Y-59652420D01*
X21769047Y-59652420D01*
X21864285Y-59604801D01*
X21911904Y-59557182D01*
X21959523Y-59461944D01*
X21959523Y-59366706D01*
X21911904Y-59271468D01*
X21864285Y-59223849D01*
X21769047Y-59176230D01*
X21578571Y-59128611D01*
X21483333Y-59080992D01*
X21435714Y-59033373D01*
X21388095Y-58938135D01*
X21388095Y-58842897D01*
X21435714Y-58747659D01*
X21483333Y-58700040D01*
X21578571Y-58652420D01*
X21816666Y-58652420D01*
X21959523Y-58700040D01*
X22388095Y-59652420D02*
X22388095Y-58652420D01*
X22959523Y-59652420D02*
X22530952Y-59080992D01*
X22959523Y-58652420D02*
X22388095Y-59223849D01*
X23816666Y-58652420D02*
X23626190Y-58652420D01*
X23530952Y-58700040D01*
X23483333Y-58747659D01*
X23388095Y-58890516D01*
X23340476Y-59080992D01*
X23340476Y-59461944D01*
X23388095Y-59557182D01*
X23435714Y-59604801D01*
X23530952Y-59652420D01*
X23721428Y-59652420D01*
X23816666Y-59604801D01*
X23864285Y-59557182D01*
X23911904Y-59461944D01*
X23911904Y-59223849D01*
X23864285Y-59128611D01*
X23816666Y-59080992D01*
X23721428Y-59033373D01*
X23530952Y-59033373D01*
X23435714Y-59080992D01*
X23388095Y-59128611D01*
X23340476Y-59223849D01*
X24483333Y-59080992D02*
X24388095Y-59033373D01*
X24340476Y-58985754D01*
X24292857Y-58890516D01*
X24292857Y-58842897D01*
X24340476Y-58747659D01*
X24388095Y-58700040D01*
X24483333Y-58652420D01*
X24673809Y-58652420D01*
X24769047Y-58700040D01*
X24816666Y-58747659D01*
X24864285Y-58842897D01*
X24864285Y-58890516D01*
X24816666Y-58985754D01*
X24769047Y-59033373D01*
X24673809Y-59080992D01*
X24483333Y-59080992D01*
X24388095Y-59128611D01*
X24340476Y-59176230D01*
X24292857Y-59271468D01*
X24292857Y-59461944D01*
X24340476Y-59557182D01*
X24388095Y-59604801D01*
X24483333Y-59652420D01*
X24673809Y-59652420D01*
X24769047Y-59604801D01*
X24816666Y-59557182D01*
X24864285Y-59461944D01*
X24864285Y-59271468D01*
X24816666Y-59176230D01*
X24769047Y-59128611D01*
X24673809Y-59080992D01*
X25816666Y-59652420D02*
X25245238Y-59652420D01*
X25530952Y-59652420D02*
X25530952Y-58652420D01*
X25435714Y-58795278D01*
X25340476Y-58890516D01*
X25245238Y-58938135D01*
X26197619Y-58747659D02*
X26245238Y-58700040D01*
X26340476Y-58652420D01*
X26578571Y-58652420D01*
X26673809Y-58700040D01*
X26721428Y-58747659D01*
X26769047Y-58842897D01*
X26769047Y-58938135D01*
X26721428Y-59080992D01*
X26150000Y-59652420D01*
X26769047Y-59652420D01*
X27197619Y-59652420D02*
X27197619Y-58652420D01*
X27530952Y-59366706D01*
X27864285Y-58652420D01*
X27864285Y-59652420D01*
X28340476Y-59652420D02*
X28340476Y-58652420D01*
X28816666Y-59652420D02*
X28816666Y-58652420D01*
X29388095Y-59652420D01*
X29388095Y-58652420D01*
X29864285Y-59652420D02*
X29864285Y-58652420D01*
D11*
X25090476Y-62676230D02*
X24852380Y-62676230D01*
X24852380Y-62176230D01*
X25257142Y-62414325D02*
X25423809Y-62414325D01*
X25495238Y-62676230D02*
X25257142Y-62676230D01*
X25257142Y-62176230D01*
X25495238Y-62176230D01*
X25709523Y-62676230D02*
X25709523Y-62176230D01*
X25828571Y-62176230D01*
X25900000Y-62200040D01*
X25947619Y-62247659D01*
X25971428Y-62295278D01*
X25995238Y-62390516D01*
X25995238Y-62461944D01*
X25971428Y-62557182D01*
X25947619Y-62604801D01*
X25900000Y-62652420D01*
X25828571Y-62676230D01*
X25709523Y-62676230D01*
X26471428Y-62676230D02*
X26185714Y-62676230D01*
X26328571Y-62676230D02*
X26328571Y-62176230D01*
X26280952Y-62247659D01*
X26233333Y-62295278D01*
X26185714Y-62319087D01*
D12*
X21388095Y-63804801D02*
X21530952Y-63852420D01*
X21769047Y-63852420D01*
X21864285Y-63804801D01*
X21911904Y-63757182D01*
X21959523Y-63661944D01*
X21959523Y-63566706D01*
X21911904Y-63471468D01*
X21864285Y-63423849D01*
X21769047Y-63376230D01*
X21578571Y-63328611D01*
X21483333Y-63280992D01*
X21435714Y-63233373D01*
X21388095Y-63138135D01*
X21388095Y-63042897D01*
X21435714Y-62947659D01*
X21483333Y-62900040D01*
X21578571Y-62852420D01*
X21816666Y-62852420D01*
X21959523Y-62900040D01*
X22388095Y-63852420D02*
X22388095Y-62852420D01*
X22959523Y-63852420D02*
X22530952Y-63280992D01*
X22959523Y-62852420D02*
X22388095Y-63423849D01*
X23816666Y-62852420D02*
X23626190Y-62852420D01*
X23530952Y-62900040D01*
X23483333Y-62947659D01*
X23388095Y-63090516D01*
X23340476Y-63280992D01*
X23340476Y-63661944D01*
X23388095Y-63757182D01*
X23435714Y-63804801D01*
X23530952Y-63852420D01*
X23721428Y-63852420D01*
X23816666Y-63804801D01*
X23864285Y-63757182D01*
X23911904Y-63661944D01*
X23911904Y-63423849D01*
X23864285Y-63328611D01*
X23816666Y-63280992D01*
X23721428Y-63233373D01*
X23530952Y-63233373D01*
X23435714Y-63280992D01*
X23388095Y-63328611D01*
X23340476Y-63423849D01*
X24483333Y-63280992D02*
X24388095Y-63233373D01*
X24340476Y-63185754D01*
X24292857Y-63090516D01*
X24292857Y-63042897D01*
X24340476Y-62947659D01*
X24388095Y-62900040D01*
X24483333Y-62852420D01*
X24673809Y-62852420D01*
X24769047Y-62900040D01*
X24816666Y-62947659D01*
X24864285Y-63042897D01*
X24864285Y-63090516D01*
X24816666Y-63185754D01*
X24769047Y-63233373D01*
X24673809Y-63280992D01*
X24483333Y-63280992D01*
X24388095Y-63328611D01*
X24340476Y-63376230D01*
X24292857Y-63471468D01*
X24292857Y-63661944D01*
X24340476Y-63757182D01*
X24388095Y-63804801D01*
X24483333Y-63852420D01*
X24673809Y-63852420D01*
X24769047Y-63804801D01*
X24816666Y-63757182D01*
X24864285Y-63661944D01*
X24864285Y-63471468D01*
X24816666Y-63376230D01*
X24769047Y-63328611D01*
X24673809Y-63280992D01*
X25816666Y-63852420D02*
X25245238Y-63852420D01*
X25530952Y-63852420D02*
X25530952Y-62852420D01*
X25435714Y-62995278D01*
X25340476Y-63090516D01*
X25245238Y-63138135D01*
X26197619Y-62947659D02*
X26245238Y-62900040D01*
X26340476Y-62852420D01*
X26578571Y-62852420D01*
X26673809Y-62900040D01*
X26721428Y-62947659D01*
X26769047Y-63042897D01*
X26769047Y-63138135D01*
X26721428Y-63280992D01*
X26150000Y-63852420D01*
X26769047Y-63852420D01*
X27197619Y-63852420D02*
X27197619Y-62852420D01*
X27530952Y-63566706D01*
X27864285Y-62852420D01*
X27864285Y-63852420D01*
X28340476Y-63852420D02*
X28340476Y-62852420D01*
X28816666Y-63852420D02*
X28816666Y-62852420D01*
X29388095Y-63852420D01*
X29388095Y-62852420D01*
X29864285Y-63852420D02*
X29864285Y-62852420D01*
D11*
X25090476Y-66876230D02*
X24852380Y-66876230D01*
X24852380Y-66376230D01*
X25257142Y-66614325D02*
X25423809Y-66614325D01*
X25495238Y-66876230D02*
X25257142Y-66876230D01*
X25257142Y-66376230D01*
X25495238Y-66376230D01*
X25709523Y-66876230D02*
X25709523Y-66376230D01*
X25828571Y-66376230D01*
X25900000Y-66400040D01*
X25947619Y-66447659D01*
X25971428Y-66495278D01*
X25995238Y-66590516D01*
X25995238Y-66661944D01*
X25971428Y-66757182D01*
X25947619Y-66804801D01*
X25900000Y-66852420D01*
X25828571Y-66876230D01*
X25709523Y-66876230D01*
X26185714Y-66423849D02*
X26209523Y-66400040D01*
X26257142Y-66376230D01*
X26376190Y-66376230D01*
X26423809Y-66400040D01*
X26447619Y-66423849D01*
X26471428Y-66471468D01*
X26471428Y-66519087D01*
X26447619Y-66590516D01*
X26161904Y-66876230D01*
X26471428Y-66876230D01*
D12*
X300188095Y-59604801D02*
X300330952Y-59652420D01*
X300569047Y-59652420D01*
X300664285Y-59604801D01*
X300711904Y-59557182D01*
X300759523Y-59461944D01*
X300759523Y-59366706D01*
X300711904Y-59271468D01*
X300664285Y-59223849D01*
X300569047Y-59176230D01*
X300378571Y-59128611D01*
X300283333Y-59080992D01*
X300235714Y-59033373D01*
X300188095Y-58938135D01*
X300188095Y-58842897D01*
X300235714Y-58747659D01*
X300283333Y-58700040D01*
X300378571Y-58652420D01*
X300616666Y-58652420D01*
X300759523Y-58700040D01*
X301188095Y-59652420D02*
X301188095Y-58652420D01*
X301759523Y-59652420D02*
X301330952Y-59080992D01*
X301759523Y-58652420D02*
X301188095Y-59223849D01*
X302616666Y-58652420D02*
X302426190Y-58652420D01*
X302330952Y-58700040D01*
X302283333Y-58747659D01*
X302188095Y-58890516D01*
X302140476Y-59080992D01*
X302140476Y-59461944D01*
X302188095Y-59557182D01*
X302235714Y-59604801D01*
X302330952Y-59652420D01*
X302521428Y-59652420D01*
X302616666Y-59604801D01*
X302664285Y-59557182D01*
X302711904Y-59461944D01*
X302711904Y-59223849D01*
X302664285Y-59128611D01*
X302616666Y-59080992D01*
X302521428Y-59033373D01*
X302330952Y-59033373D01*
X302235714Y-59080992D01*
X302188095Y-59128611D01*
X302140476Y-59223849D01*
X303283333Y-59080992D02*
X303188095Y-59033373D01*
X303140476Y-58985754D01*
X303092857Y-58890516D01*
X303092857Y-58842897D01*
X303140476Y-58747659D01*
X303188095Y-58700040D01*
X303283333Y-58652420D01*
X303473809Y-58652420D01*
X303569047Y-58700040D01*
X303616666Y-58747659D01*
X303664285Y-58842897D01*
X303664285Y-58890516D01*
X303616666Y-58985754D01*
X303569047Y-59033373D01*
X303473809Y-59080992D01*
X303283333Y-59080992D01*
X303188095Y-59128611D01*
X303140476Y-59176230D01*
X303092857Y-59271468D01*
X303092857Y-59461944D01*
X303140476Y-59557182D01*
X303188095Y-59604801D01*
X303283333Y-59652420D01*
X303473809Y-59652420D01*
X303569047Y-59604801D01*
X303616666Y-59557182D01*
X303664285Y-59461944D01*
X303664285Y-59271468D01*
X303616666Y-59176230D01*
X303569047Y-59128611D01*
X303473809Y-59080992D01*
X304616666Y-59652420D02*
X304045238Y-59652420D01*
X304330952Y-59652420D02*
X304330952Y-58652420D01*
X304235714Y-58795278D01*
X304140476Y-58890516D01*
X304045238Y-58938135D01*
X304997619Y-58747659D02*
X305045238Y-58700040D01*
X305140476Y-58652420D01*
X305378571Y-58652420D01*
X305473809Y-58700040D01*
X305521428Y-58747659D01*
X305569047Y-58842897D01*
X305569047Y-58938135D01*
X305521428Y-59080992D01*
X304950000Y-59652420D01*
X305569047Y-59652420D01*
X305997619Y-59652420D02*
X305997619Y-58652420D01*
X306330952Y-59366706D01*
X306664285Y-58652420D01*
X306664285Y-59652420D01*
X307140476Y-59652420D02*
X307140476Y-58652420D01*
X307616666Y-59652420D02*
X307616666Y-58652420D01*
X308188095Y-59652420D01*
X308188095Y-58652420D01*
X308664285Y-59652420D02*
X308664285Y-58652420D01*
D11*
X303890476Y-62676230D02*
X303652380Y-62676230D01*
X303652380Y-62176230D01*
X304057142Y-62414325D02*
X304223809Y-62414325D01*
X304295238Y-62676230D02*
X304057142Y-62676230D01*
X304057142Y-62176230D01*
X304295238Y-62176230D01*
X304509523Y-62676230D02*
X304509523Y-62176230D01*
X304628571Y-62176230D01*
X304700000Y-62200040D01*
X304747619Y-62247659D01*
X304771428Y-62295278D01*
X304795238Y-62390516D01*
X304795238Y-62461944D01*
X304771428Y-62557182D01*
X304747619Y-62604801D01*
X304700000Y-62652420D01*
X304628571Y-62676230D01*
X304509523Y-62676230D01*
X304961904Y-62176230D02*
X305271428Y-62176230D01*
X305104761Y-62366706D01*
X305176190Y-62366706D01*
X305223809Y-62390516D01*
X305247619Y-62414325D01*
X305271428Y-62461944D01*
X305271428Y-62580992D01*
X305247619Y-62628611D01*
X305223809Y-62652420D01*
X305176190Y-62676230D01*
X305033333Y-62676230D01*
X304985714Y-62652420D01*
X304961904Y-62628611D01*
D12*
X300188095Y-63804801D02*
X300330952Y-63852420D01*
X300569047Y-63852420D01*
X300664285Y-63804801D01*
X300711904Y-63757182D01*
X300759523Y-63661944D01*
X300759523Y-63566706D01*
X300711904Y-63471468D01*
X300664285Y-63423849D01*
X300569047Y-63376230D01*
X300378571Y-63328611D01*
X300283333Y-63280992D01*
X300235714Y-63233373D01*
X300188095Y-63138135D01*
X300188095Y-63042897D01*
X300235714Y-62947659D01*
X300283333Y-62900040D01*
X300378571Y-62852420D01*
X300616666Y-62852420D01*
X300759523Y-62900040D01*
X301188095Y-63852420D02*
X301188095Y-62852420D01*
X301759523Y-63852420D02*
X301330952Y-63280992D01*
X301759523Y-62852420D02*
X301188095Y-63423849D01*
X302616666Y-62852420D02*
X302426190Y-62852420D01*
X302330952Y-62900040D01*
X302283333Y-62947659D01*
X302188095Y-63090516D01*
X302140476Y-63280992D01*
X302140476Y-63661944D01*
X302188095Y-63757182D01*
X302235714Y-63804801D01*
X302330952Y-63852420D01*
X302521428Y-63852420D01*
X302616666Y-63804801D01*
X302664285Y-63757182D01*
X302711904Y-63661944D01*
X302711904Y-63423849D01*
X302664285Y-63328611D01*
X302616666Y-63280992D01*
X302521428Y-63233373D01*
X302330952Y-63233373D01*
X302235714Y-63280992D01*
X302188095Y-63328611D01*
X302140476Y-63423849D01*
X303283333Y-63280992D02*
X303188095Y-63233373D01*
X303140476Y-63185754D01*
X303092857Y-63090516D01*
X303092857Y-63042897D01*
X303140476Y-62947659D01*
X303188095Y-62900040D01*
X303283333Y-62852420D01*
X303473809Y-62852420D01*
X303569047Y-62900040D01*
X303616666Y-62947659D01*
X303664285Y-63042897D01*
X303664285Y-63090516D01*
X303616666Y-63185754D01*
X303569047Y-63233373D01*
X303473809Y-63280992D01*
X303283333Y-63280992D01*
X303188095Y-63328611D01*
X303140476Y-63376230D01*
X303092857Y-63471468D01*
X303092857Y-63661944D01*
X303140476Y-63757182D01*
X303188095Y-63804801D01*
X303283333Y-63852420D01*
X303473809Y-63852420D01*
X303569047Y-63804801D01*
X303616666Y-63757182D01*
X303664285Y-63661944D01*
X303664285Y-63471468D01*
X303616666Y-63376230D01*
X303569047Y-63328611D01*
X303473809Y-63280992D01*
X304616666Y-63852420D02*
X304045238Y-63852420D01*
X304330952Y-63852420D02*
X304330952Y-62852420D01*
X304235714Y-62995278D01*
X304140476Y-63090516D01*
X304045238Y-63138135D01*
X304997619Y-62947659D02*
X305045238Y-62900040D01*
X305140476Y-62852420D01*
X305378571Y-62852420D01*
X305473809Y-62900040D01*
X305521428Y-62947659D01*
X305569047Y-63042897D01*
X305569047Y-63138135D01*
X305521428Y-63280992D01*
X304950000Y-63852420D01*
X305569047Y-63852420D01*
X305997619Y-63852420D02*
X305997619Y-62852420D01*
X306330952Y-63566706D01*
X306664285Y-62852420D01*
X306664285Y-63852420D01*
X307140476Y-63852420D02*
X307140476Y-62852420D01*
X307616666Y-63852420D02*
X307616666Y-62852420D01*
X308188095Y-63852420D01*
X308188095Y-62852420D01*
X308664285Y-63852420D02*
X308664285Y-62852420D01*
D11*
X303890476Y-66876230D02*
X303652380Y-66876230D01*
X303652380Y-66376230D01*
X304057142Y-66614325D02*
X304223809Y-66614325D01*
X304295238Y-66876230D02*
X304057142Y-66876230D01*
X304057142Y-66376230D01*
X304295238Y-66376230D01*
X304509523Y-66876230D02*
X304509523Y-66376230D01*
X304628571Y-66376230D01*
X304700000Y-66400040D01*
X304747619Y-66447659D01*
X304771428Y-66495278D01*
X304795238Y-66590516D01*
X304795238Y-66661944D01*
X304771428Y-66757182D01*
X304747619Y-66804801D01*
X304700000Y-66852420D01*
X304628571Y-66876230D01*
X304509523Y-66876230D01*
X305223809Y-66542897D02*
X305223809Y-66876230D01*
X305104761Y-66352420D02*
X304985714Y-66709563D01*
X305295238Y-66709563D01*
D12*
X60326825Y-102102780D02*
X60326825Y-101102780D01*
X60660159Y-101817066D01*
X60993492Y-101102780D01*
X60993492Y-102102780D01*
X61612540Y-102102780D02*
X61517301Y-102055161D01*
X61469682Y-102007542D01*
X61422063Y-101912304D01*
X61422063Y-101626590D01*
X61469682Y-101531352D01*
X61517301Y-101483733D01*
X61612540Y-101436114D01*
X61755397Y-101436114D01*
X61850635Y-101483733D01*
X61898254Y-101531352D01*
X61945873Y-101626590D01*
X61945873Y-101912304D01*
X61898254Y-102007542D01*
X61850635Y-102055161D01*
X61755397Y-102102780D01*
X61612540Y-102102780D01*
X62803016Y-101436114D02*
X62803016Y-102102780D01*
X62374444Y-101436114D02*
X62374444Y-101959923D01*
X62422063Y-102055161D01*
X62517301Y-102102780D01*
X62660159Y-102102780D01*
X62755397Y-102055161D01*
X62803016Y-102007542D01*
X63279206Y-101436114D02*
X63279206Y-102102780D01*
X63279206Y-101531352D02*
X63326825Y-101483733D01*
X63422063Y-101436114D01*
X63564920Y-101436114D01*
X63660159Y-101483733D01*
X63707778Y-101578971D01*
X63707778Y-102102780D01*
X64041111Y-101436114D02*
X64422063Y-101436114D01*
X64183968Y-101102780D02*
X64183968Y-101959923D01*
X64231587Y-102055161D01*
X64326825Y-102102780D01*
X64422063Y-102102780D01*
X64755397Y-102102780D02*
X64755397Y-101436114D01*
X64755397Y-101102780D02*
X64707778Y-101150400D01*
X64755397Y-101198019D01*
X64803016Y-101150400D01*
X64755397Y-101102780D01*
X64755397Y-101198019D01*
X65231587Y-101436114D02*
X65231587Y-102102780D01*
X65231587Y-101531352D02*
X65279206Y-101483733D01*
X65374444Y-101436114D01*
X65517301Y-101436114D01*
X65612540Y-101483733D01*
X65660159Y-101578971D01*
X65660159Y-102102780D01*
X66564920Y-101436114D02*
X66564920Y-102245638D01*
X66517301Y-102340876D01*
X66469682Y-102388495D01*
X66374444Y-102436114D01*
X66231587Y-102436114D01*
X66136349Y-102388495D01*
X66564920Y-102055161D02*
X66469682Y-102102780D01*
X66279206Y-102102780D01*
X66183968Y-102055161D01*
X66136349Y-102007542D01*
X66088730Y-101912304D01*
X66088730Y-101626590D01*
X66136349Y-101531352D01*
X66183968Y-101483733D01*
X66279206Y-101436114D01*
X66469682Y-101436114D01*
X66564920Y-101483733D01*
X67041111Y-102102780D02*
X67041111Y-101102780D01*
X67041111Y-101578971D02*
X67612540Y-101578971D01*
X67612540Y-102102780D02*
X67612540Y-101102780D01*
X68231587Y-102102780D02*
X68136349Y-102055161D01*
X68088730Y-102007542D01*
X68041111Y-101912304D01*
X68041111Y-101626590D01*
X68088730Y-101531352D01*
X68136349Y-101483733D01*
X68231587Y-101436114D01*
X68374444Y-101436114D01*
X68469682Y-101483733D01*
X68517301Y-101531352D01*
X68564920Y-101626590D01*
X68564920Y-101912304D01*
X68517301Y-102007542D01*
X68469682Y-102055161D01*
X68374444Y-102102780D01*
X68231587Y-102102780D01*
X69136349Y-102102780D02*
X69041111Y-102055161D01*
X68993492Y-101959923D01*
X68993492Y-101102780D01*
X69898254Y-102055161D02*
X69803016Y-102102780D01*
X69612540Y-102102780D01*
X69517301Y-102055161D01*
X69469682Y-101959923D01*
X69469682Y-101578971D01*
X69517301Y-101483733D01*
X69612540Y-101436114D01*
X69803016Y-101436114D01*
X69898254Y-101483733D01*
X69945873Y-101578971D01*
X69945873Y-101674209D01*
X69469682Y-101769447D01*
X64174444Y-98902780D02*
X64174444Y-97902780D01*
X64174444Y-98378971D02*
X64745873Y-98378971D01*
X64745873Y-98902780D02*
X64745873Y-97902780D01*
X65745873Y-98902780D02*
X65174444Y-98902780D01*
X65460159Y-98902780D02*
X65460159Y-97902780D01*
X65364920Y-98045638D01*
X65269682Y-98140876D01*
X65174444Y-98188495D01*
X66698254Y-98902780D02*
X66126825Y-98902780D01*
X66412540Y-98902780D02*
X66412540Y-97902780D01*
X66317301Y-98045638D01*
X66222063Y-98140876D01*
X66126825Y-98188495D01*
X78464285Y-111627780D02*
X78464285Y-110627780D01*
X78797619Y-111342066D01*
X79130952Y-110627780D01*
X79130952Y-111627780D01*
X79750000Y-111627780D02*
X79654761Y-111580161D01*
X79607142Y-111532542D01*
X79559523Y-111437304D01*
X79559523Y-111151590D01*
X79607142Y-111056352D01*
X79654761Y-111008733D01*
X79750000Y-110961114D01*
X79892857Y-110961114D01*
X79988095Y-111008733D01*
X80035714Y-111056352D01*
X80083333Y-111151590D01*
X80083333Y-111437304D01*
X80035714Y-111532542D01*
X79988095Y-111580161D01*
X79892857Y-111627780D01*
X79750000Y-111627780D01*
X80940476Y-110961114D02*
X80940476Y-111627780D01*
X80511904Y-110961114D02*
X80511904Y-111484923D01*
X80559523Y-111580161D01*
X80654761Y-111627780D01*
X80797619Y-111627780D01*
X80892857Y-111580161D01*
X80940476Y-111532542D01*
X81416666Y-110961114D02*
X81416666Y-111627780D01*
X81416666Y-111056352D02*
X81464285Y-111008733D01*
X81559523Y-110961114D01*
X81702380Y-110961114D01*
X81797619Y-111008733D01*
X81845238Y-111103971D01*
X81845238Y-111627780D01*
X82178571Y-110961114D02*
X82559523Y-110961114D01*
X82321428Y-110627780D02*
X82321428Y-111484923D01*
X82369047Y-111580161D01*
X82464285Y-111627780D01*
X82559523Y-111627780D01*
X82892857Y-111627780D02*
X82892857Y-110961114D01*
X82892857Y-110627780D02*
X82845238Y-110675400D01*
X82892857Y-110723019D01*
X82940476Y-110675400D01*
X82892857Y-110627780D01*
X82892857Y-110723019D01*
X83369047Y-110961114D02*
X83369047Y-111627780D01*
X83369047Y-111056352D02*
X83416666Y-111008733D01*
X83511904Y-110961114D01*
X83654761Y-110961114D01*
X83750000Y-111008733D01*
X83797619Y-111103971D01*
X83797619Y-111627780D01*
X84702380Y-110961114D02*
X84702380Y-111770638D01*
X84654761Y-111865876D01*
X84607142Y-111913495D01*
X84511904Y-111961114D01*
X84369047Y-111961114D01*
X84273809Y-111913495D01*
X84702380Y-111580161D02*
X84607142Y-111627780D01*
X84416666Y-111627780D01*
X84321428Y-111580161D01*
X84273809Y-111532542D01*
X84226190Y-111437304D01*
X84226190Y-111151590D01*
X84273809Y-111056352D01*
X84321428Y-111008733D01*
X84416666Y-110961114D01*
X84607142Y-110961114D01*
X84702380Y-111008733D01*
X85178571Y-111627780D02*
X85178571Y-110627780D01*
X85178571Y-111103971D02*
X85750000Y-111103971D01*
X85750000Y-111627780D02*
X85750000Y-110627780D01*
X86369047Y-111627780D02*
X86273809Y-111580161D01*
X86226190Y-111532542D01*
X86178571Y-111437304D01*
X86178571Y-111151590D01*
X86226190Y-111056352D01*
X86273809Y-111008733D01*
X86369047Y-110961114D01*
X86511904Y-110961114D01*
X86607142Y-111008733D01*
X86654761Y-111056352D01*
X86702380Y-111151590D01*
X86702380Y-111437304D01*
X86654761Y-111532542D01*
X86607142Y-111580161D01*
X86511904Y-111627780D01*
X86369047Y-111627780D01*
X87273809Y-111627780D02*
X87178571Y-111580161D01*
X87130952Y-111484923D01*
X87130952Y-110627780D01*
X88035714Y-111580161D02*
X87940476Y-111627780D01*
X87750000Y-111627780D01*
X87654761Y-111580161D01*
X87607142Y-111484923D01*
X87607142Y-111103971D01*
X87654761Y-111008733D01*
X87750000Y-110961114D01*
X87940476Y-110961114D01*
X88035714Y-111008733D01*
X88083333Y-111103971D01*
X88083333Y-111199209D01*
X87607142Y-111294447D01*
X82311904Y-108427780D02*
X82311904Y-107427780D01*
X82311904Y-107903971D02*
X82883333Y-107903971D01*
X82883333Y-108427780D02*
X82883333Y-107427780D01*
X83883333Y-108427780D02*
X83311904Y-108427780D01*
X83597619Y-108427780D02*
X83597619Y-107427780D01*
X83502380Y-107570638D01*
X83407142Y-107665876D01*
X83311904Y-107713495D01*
X84264285Y-107523019D02*
X84311904Y-107475400D01*
X84407142Y-107427780D01*
X84645238Y-107427780D01*
X84740476Y-107475400D01*
X84788095Y-107523019D01*
X84835714Y-107618257D01*
X84835714Y-107713495D01*
X84788095Y-107856352D01*
X84216666Y-108427780D01*
X84835714Y-108427780D01*
X101664285Y-111627780D02*
X101664285Y-110627780D01*
X101997619Y-111342066D01*
X102330952Y-110627780D01*
X102330952Y-111627780D01*
X102950000Y-111627780D02*
X102854761Y-111580161D01*
X102807142Y-111532542D01*
X102759523Y-111437304D01*
X102759523Y-111151590D01*
X102807142Y-111056352D01*
X102854761Y-111008733D01*
X102950000Y-110961114D01*
X103092857Y-110961114D01*
X103188095Y-111008733D01*
X103235714Y-111056352D01*
X103283333Y-111151590D01*
X103283333Y-111437304D01*
X103235714Y-111532542D01*
X103188095Y-111580161D01*
X103092857Y-111627780D01*
X102950000Y-111627780D01*
X104140476Y-110961114D02*
X104140476Y-111627780D01*
X103711904Y-110961114D02*
X103711904Y-111484923D01*
X103759523Y-111580161D01*
X103854761Y-111627780D01*
X103997619Y-111627780D01*
X104092857Y-111580161D01*
X104140476Y-111532542D01*
X104616666Y-110961114D02*
X104616666Y-111627780D01*
X104616666Y-111056352D02*
X104664285Y-111008733D01*
X104759523Y-110961114D01*
X104902380Y-110961114D01*
X104997619Y-111008733D01*
X105045238Y-111103971D01*
X105045238Y-111627780D01*
X105378571Y-110961114D02*
X105759523Y-110961114D01*
X105521428Y-110627780D02*
X105521428Y-111484923D01*
X105569047Y-111580161D01*
X105664285Y-111627780D01*
X105759523Y-111627780D01*
X106092857Y-111627780D02*
X106092857Y-110961114D01*
X106092857Y-110627780D02*
X106045238Y-110675400D01*
X106092857Y-110723019D01*
X106140476Y-110675400D01*
X106092857Y-110627780D01*
X106092857Y-110723019D01*
X106569047Y-110961114D02*
X106569047Y-111627780D01*
X106569047Y-111056352D02*
X106616666Y-111008733D01*
X106711904Y-110961114D01*
X106854761Y-110961114D01*
X106950000Y-111008733D01*
X106997619Y-111103971D01*
X106997619Y-111627780D01*
X107902380Y-110961114D02*
X107902380Y-111770638D01*
X107854761Y-111865876D01*
X107807142Y-111913495D01*
X107711904Y-111961114D01*
X107569047Y-111961114D01*
X107473809Y-111913495D01*
X107902380Y-111580161D02*
X107807142Y-111627780D01*
X107616666Y-111627780D01*
X107521428Y-111580161D01*
X107473809Y-111532542D01*
X107426190Y-111437304D01*
X107426190Y-111151590D01*
X107473809Y-111056352D01*
X107521428Y-111008733D01*
X107616666Y-110961114D01*
X107807142Y-110961114D01*
X107902380Y-111008733D01*
X108378571Y-111627780D02*
X108378571Y-110627780D01*
X108378571Y-111103971D02*
X108950000Y-111103971D01*
X108950000Y-111627780D02*
X108950000Y-110627780D01*
X109569047Y-111627780D02*
X109473809Y-111580161D01*
X109426190Y-111532542D01*
X109378571Y-111437304D01*
X109378571Y-111151590D01*
X109426190Y-111056352D01*
X109473809Y-111008733D01*
X109569047Y-110961114D01*
X109711904Y-110961114D01*
X109807142Y-111008733D01*
X109854761Y-111056352D01*
X109902380Y-111151590D01*
X109902380Y-111437304D01*
X109854761Y-111532542D01*
X109807142Y-111580161D01*
X109711904Y-111627780D01*
X109569047Y-111627780D01*
X110473809Y-111627780D02*
X110378571Y-111580161D01*
X110330952Y-111484923D01*
X110330952Y-110627780D01*
X111235714Y-111580161D02*
X111140476Y-111627780D01*
X110950000Y-111627780D01*
X110854761Y-111580161D01*
X110807142Y-111484923D01*
X110807142Y-111103971D01*
X110854761Y-111008733D01*
X110950000Y-110961114D01*
X111140476Y-110961114D01*
X111235714Y-111008733D01*
X111283333Y-111103971D01*
X111283333Y-111199209D01*
X110807142Y-111294447D01*
X105511904Y-108427780D02*
X105511904Y-107427780D01*
X105511904Y-107903971D02*
X106083333Y-107903971D01*
X106083333Y-108427780D02*
X106083333Y-107427780D01*
X107083333Y-108427780D02*
X106511904Y-108427780D01*
X106797619Y-108427780D02*
X106797619Y-107427780D01*
X106702380Y-107570638D01*
X106607142Y-107665876D01*
X106511904Y-107713495D01*
X107416666Y-107427780D02*
X108035714Y-107427780D01*
X107702380Y-107808733D01*
X107845238Y-107808733D01*
X107940476Y-107856352D01*
X107988095Y-107903971D01*
X108035714Y-107999209D01*
X108035714Y-108237304D01*
X107988095Y-108332542D01*
X107940476Y-108380161D01*
X107845238Y-108427780D01*
X107559523Y-108427780D01*
X107464285Y-108380161D01*
X107416666Y-108332542D01*
X124620575Y-102102780D02*
X124620575Y-101102780D01*
X124953909Y-101817066D01*
X125287242Y-101102780D01*
X125287242Y-102102780D01*
X125906290Y-102102780D02*
X125811051Y-102055161D01*
X125763432Y-102007542D01*
X125715813Y-101912304D01*
X125715813Y-101626590D01*
X125763432Y-101531352D01*
X125811051Y-101483733D01*
X125906290Y-101436114D01*
X126049147Y-101436114D01*
X126144385Y-101483733D01*
X126192004Y-101531352D01*
X126239623Y-101626590D01*
X126239623Y-101912304D01*
X126192004Y-102007542D01*
X126144385Y-102055161D01*
X126049147Y-102102780D01*
X125906290Y-102102780D01*
X127096766Y-101436114D02*
X127096766Y-102102780D01*
X126668194Y-101436114D02*
X126668194Y-101959923D01*
X126715813Y-102055161D01*
X126811051Y-102102780D01*
X126953909Y-102102780D01*
X127049147Y-102055161D01*
X127096766Y-102007542D01*
X127572956Y-101436114D02*
X127572956Y-102102780D01*
X127572956Y-101531352D02*
X127620575Y-101483733D01*
X127715813Y-101436114D01*
X127858670Y-101436114D01*
X127953909Y-101483733D01*
X128001528Y-101578971D01*
X128001528Y-102102780D01*
X128334861Y-101436114D02*
X128715813Y-101436114D01*
X128477718Y-101102780D02*
X128477718Y-101959923D01*
X128525337Y-102055161D01*
X128620575Y-102102780D01*
X128715813Y-102102780D01*
X129049147Y-102102780D02*
X129049147Y-101436114D01*
X129049147Y-101102780D02*
X129001528Y-101150400D01*
X129049147Y-101198019D01*
X129096766Y-101150400D01*
X129049147Y-101102780D01*
X129049147Y-101198019D01*
X129525337Y-101436114D02*
X129525337Y-102102780D01*
X129525337Y-101531352D02*
X129572956Y-101483733D01*
X129668194Y-101436114D01*
X129811051Y-101436114D01*
X129906290Y-101483733D01*
X129953909Y-101578971D01*
X129953909Y-102102780D01*
X130858670Y-101436114D02*
X130858670Y-102245638D01*
X130811051Y-102340876D01*
X130763432Y-102388495D01*
X130668194Y-102436114D01*
X130525337Y-102436114D01*
X130430099Y-102388495D01*
X130858670Y-102055161D02*
X130763432Y-102102780D01*
X130572956Y-102102780D01*
X130477718Y-102055161D01*
X130430099Y-102007542D01*
X130382480Y-101912304D01*
X130382480Y-101626590D01*
X130430099Y-101531352D01*
X130477718Y-101483733D01*
X130572956Y-101436114D01*
X130763432Y-101436114D01*
X130858670Y-101483733D01*
X131334861Y-102102780D02*
X131334861Y-101102780D01*
X131334861Y-101578971D02*
X131906290Y-101578971D01*
X131906290Y-102102780D02*
X131906290Y-101102780D01*
X132525337Y-102102780D02*
X132430099Y-102055161D01*
X132382480Y-102007542D01*
X132334861Y-101912304D01*
X132334861Y-101626590D01*
X132382480Y-101531352D01*
X132430099Y-101483733D01*
X132525337Y-101436114D01*
X132668194Y-101436114D01*
X132763432Y-101483733D01*
X132811051Y-101531352D01*
X132858670Y-101626590D01*
X132858670Y-101912304D01*
X132811051Y-102007542D01*
X132763432Y-102055161D01*
X132668194Y-102102780D01*
X132525337Y-102102780D01*
X133430099Y-102102780D02*
X133334861Y-102055161D01*
X133287242Y-101959923D01*
X133287242Y-101102780D01*
X134192004Y-102055161D02*
X134096766Y-102102780D01*
X133906290Y-102102780D01*
X133811051Y-102055161D01*
X133763432Y-101959923D01*
X133763432Y-101578971D01*
X133811051Y-101483733D01*
X133906290Y-101436114D01*
X134096766Y-101436114D01*
X134192004Y-101483733D01*
X134239623Y-101578971D01*
X134239623Y-101674209D01*
X133763432Y-101769447D01*
X128468194Y-98902780D02*
X128468194Y-97902780D01*
X128468194Y-98378971D02*
X129039623Y-98378971D01*
X129039623Y-98902780D02*
X129039623Y-97902780D01*
X130039623Y-98902780D02*
X129468194Y-98902780D01*
X129753909Y-98902780D02*
X129753909Y-97902780D01*
X129658670Y-98045638D01*
X129563432Y-98140876D01*
X129468194Y-98188495D01*
X130896766Y-98236114D02*
X130896766Y-98902780D01*
X130658670Y-97855161D02*
X130420575Y-98569447D01*
X131039623Y-98569447D01*
X160339325Y-102102780D02*
X160339325Y-101102780D01*
X160672659Y-101817066D01*
X161005992Y-101102780D01*
X161005992Y-102102780D01*
X161625040Y-102102780D02*
X161529801Y-102055161D01*
X161482182Y-102007542D01*
X161434563Y-101912304D01*
X161434563Y-101626590D01*
X161482182Y-101531352D01*
X161529801Y-101483733D01*
X161625040Y-101436114D01*
X161767897Y-101436114D01*
X161863135Y-101483733D01*
X161910754Y-101531352D01*
X161958373Y-101626590D01*
X161958373Y-101912304D01*
X161910754Y-102007542D01*
X161863135Y-102055161D01*
X161767897Y-102102780D01*
X161625040Y-102102780D01*
X162815516Y-101436114D02*
X162815516Y-102102780D01*
X162386944Y-101436114D02*
X162386944Y-101959923D01*
X162434563Y-102055161D01*
X162529801Y-102102780D01*
X162672659Y-102102780D01*
X162767897Y-102055161D01*
X162815516Y-102007542D01*
X163291706Y-101436114D02*
X163291706Y-102102780D01*
X163291706Y-101531352D02*
X163339325Y-101483733D01*
X163434563Y-101436114D01*
X163577420Y-101436114D01*
X163672659Y-101483733D01*
X163720278Y-101578971D01*
X163720278Y-102102780D01*
X164053611Y-101436114D02*
X164434563Y-101436114D01*
X164196468Y-101102780D02*
X164196468Y-101959923D01*
X164244087Y-102055161D01*
X164339325Y-102102780D01*
X164434563Y-102102780D01*
X164767897Y-102102780D02*
X164767897Y-101436114D01*
X164767897Y-101102780D02*
X164720278Y-101150400D01*
X164767897Y-101198019D01*
X164815516Y-101150400D01*
X164767897Y-101102780D01*
X164767897Y-101198019D01*
X165244087Y-101436114D02*
X165244087Y-102102780D01*
X165244087Y-101531352D02*
X165291706Y-101483733D01*
X165386944Y-101436114D01*
X165529801Y-101436114D01*
X165625040Y-101483733D01*
X165672659Y-101578971D01*
X165672659Y-102102780D01*
X166577420Y-101436114D02*
X166577420Y-102245638D01*
X166529801Y-102340876D01*
X166482182Y-102388495D01*
X166386944Y-102436114D01*
X166244087Y-102436114D01*
X166148849Y-102388495D01*
X166577420Y-102055161D02*
X166482182Y-102102780D01*
X166291706Y-102102780D01*
X166196468Y-102055161D01*
X166148849Y-102007542D01*
X166101230Y-101912304D01*
X166101230Y-101626590D01*
X166148849Y-101531352D01*
X166196468Y-101483733D01*
X166291706Y-101436114D01*
X166482182Y-101436114D01*
X166577420Y-101483733D01*
X167053611Y-102102780D02*
X167053611Y-101102780D01*
X167053611Y-101578971D02*
X167625040Y-101578971D01*
X167625040Y-102102780D02*
X167625040Y-101102780D01*
X168244087Y-102102780D02*
X168148849Y-102055161D01*
X168101230Y-102007542D01*
X168053611Y-101912304D01*
X168053611Y-101626590D01*
X168101230Y-101531352D01*
X168148849Y-101483733D01*
X168244087Y-101436114D01*
X168386944Y-101436114D01*
X168482182Y-101483733D01*
X168529801Y-101531352D01*
X168577420Y-101626590D01*
X168577420Y-101912304D01*
X168529801Y-102007542D01*
X168482182Y-102055161D01*
X168386944Y-102102780D01*
X168244087Y-102102780D01*
X169148849Y-102102780D02*
X169053611Y-102055161D01*
X169005992Y-101959923D01*
X169005992Y-101102780D01*
X169910754Y-102055161D02*
X169815516Y-102102780D01*
X169625040Y-102102780D01*
X169529801Y-102055161D01*
X169482182Y-101959923D01*
X169482182Y-101578971D01*
X169529801Y-101483733D01*
X169625040Y-101436114D01*
X169815516Y-101436114D01*
X169910754Y-101483733D01*
X169958373Y-101578971D01*
X169958373Y-101674209D01*
X169482182Y-101769447D01*
X164186944Y-98902780D02*
X164186944Y-97902780D01*
X164186944Y-98378971D02*
X164758373Y-98378971D01*
X164758373Y-98902780D02*
X164758373Y-97902780D01*
X165758373Y-98902780D02*
X165186944Y-98902780D01*
X165472659Y-98902780D02*
X165472659Y-97902780D01*
X165377420Y-98045638D01*
X165282182Y-98140876D01*
X165186944Y-98188495D01*
X166663135Y-97902780D02*
X166186944Y-97902780D01*
X166139325Y-98378971D01*
X166186944Y-98331352D01*
X166282182Y-98283733D01*
X166520278Y-98283733D01*
X166615516Y-98331352D01*
X166663135Y-98378971D01*
X166710754Y-98474209D01*
X166710754Y-98712304D01*
X166663135Y-98807542D01*
X166615516Y-98855161D01*
X166520278Y-98902780D01*
X166282182Y-98902780D01*
X166186944Y-98855161D01*
X166139325Y-98807542D01*
X198439325Y-102102780D02*
X198439325Y-101102780D01*
X198772659Y-101817066D01*
X199105992Y-101102780D01*
X199105992Y-102102780D01*
X199725040Y-102102780D02*
X199629801Y-102055161D01*
X199582182Y-102007542D01*
X199534563Y-101912304D01*
X199534563Y-101626590D01*
X199582182Y-101531352D01*
X199629801Y-101483733D01*
X199725040Y-101436114D01*
X199867897Y-101436114D01*
X199963135Y-101483733D01*
X200010754Y-101531352D01*
X200058373Y-101626590D01*
X200058373Y-101912304D01*
X200010754Y-102007542D01*
X199963135Y-102055161D01*
X199867897Y-102102780D01*
X199725040Y-102102780D01*
X200915516Y-101436114D02*
X200915516Y-102102780D01*
X200486944Y-101436114D02*
X200486944Y-101959923D01*
X200534563Y-102055161D01*
X200629801Y-102102780D01*
X200772659Y-102102780D01*
X200867897Y-102055161D01*
X200915516Y-102007542D01*
X201391706Y-101436114D02*
X201391706Y-102102780D01*
X201391706Y-101531352D02*
X201439325Y-101483733D01*
X201534563Y-101436114D01*
X201677420Y-101436114D01*
X201772659Y-101483733D01*
X201820278Y-101578971D01*
X201820278Y-102102780D01*
X202153611Y-101436114D02*
X202534563Y-101436114D01*
X202296468Y-101102780D02*
X202296468Y-101959923D01*
X202344087Y-102055161D01*
X202439325Y-102102780D01*
X202534563Y-102102780D01*
X202867897Y-102102780D02*
X202867897Y-101436114D01*
X202867897Y-101102780D02*
X202820278Y-101150400D01*
X202867897Y-101198019D01*
X202915516Y-101150400D01*
X202867897Y-101102780D01*
X202867897Y-101198019D01*
X203344087Y-101436114D02*
X203344087Y-102102780D01*
X203344087Y-101531352D02*
X203391706Y-101483733D01*
X203486944Y-101436114D01*
X203629801Y-101436114D01*
X203725040Y-101483733D01*
X203772659Y-101578971D01*
X203772659Y-102102780D01*
X204677420Y-101436114D02*
X204677420Y-102245638D01*
X204629801Y-102340876D01*
X204582182Y-102388495D01*
X204486944Y-102436114D01*
X204344087Y-102436114D01*
X204248849Y-102388495D01*
X204677420Y-102055161D02*
X204582182Y-102102780D01*
X204391706Y-102102780D01*
X204296468Y-102055161D01*
X204248849Y-102007542D01*
X204201230Y-101912304D01*
X204201230Y-101626590D01*
X204248849Y-101531352D01*
X204296468Y-101483733D01*
X204391706Y-101436114D01*
X204582182Y-101436114D01*
X204677420Y-101483733D01*
X205153611Y-102102780D02*
X205153611Y-101102780D01*
X205153611Y-101578971D02*
X205725040Y-101578971D01*
X205725040Y-102102780D02*
X205725040Y-101102780D01*
X206344087Y-102102780D02*
X206248849Y-102055161D01*
X206201230Y-102007542D01*
X206153611Y-101912304D01*
X206153611Y-101626590D01*
X206201230Y-101531352D01*
X206248849Y-101483733D01*
X206344087Y-101436114D01*
X206486944Y-101436114D01*
X206582182Y-101483733D01*
X206629801Y-101531352D01*
X206677420Y-101626590D01*
X206677420Y-101912304D01*
X206629801Y-102007542D01*
X206582182Y-102055161D01*
X206486944Y-102102780D01*
X206344087Y-102102780D01*
X207248849Y-102102780D02*
X207153611Y-102055161D01*
X207105992Y-101959923D01*
X207105992Y-101102780D01*
X208010754Y-102055161D02*
X207915516Y-102102780D01*
X207725040Y-102102780D01*
X207629801Y-102055161D01*
X207582182Y-101959923D01*
X207582182Y-101578971D01*
X207629801Y-101483733D01*
X207725040Y-101436114D01*
X207915516Y-101436114D01*
X208010754Y-101483733D01*
X208058373Y-101578971D01*
X208058373Y-101674209D01*
X207582182Y-101769447D01*
X202286944Y-98902780D02*
X202286944Y-97902780D01*
X202286944Y-98378971D02*
X202858373Y-98378971D01*
X202858373Y-98902780D02*
X202858373Y-97902780D01*
X203858373Y-98902780D02*
X203286944Y-98902780D01*
X203572659Y-98902780D02*
X203572659Y-97902780D01*
X203477420Y-98045638D01*
X203382182Y-98140876D01*
X203286944Y-98188495D01*
X204715516Y-97902780D02*
X204525040Y-97902780D01*
X204429801Y-97950400D01*
X204382182Y-97998019D01*
X204286944Y-98140876D01*
X204239325Y-98331352D01*
X204239325Y-98712304D01*
X204286944Y-98807542D01*
X204334563Y-98855161D01*
X204429801Y-98902780D01*
X204620278Y-98902780D01*
X204715516Y-98855161D01*
X204763135Y-98807542D01*
X204810754Y-98712304D01*
X204810754Y-98474209D01*
X204763135Y-98378971D01*
X204715516Y-98331352D01*
X204620278Y-98283733D01*
X204429801Y-98283733D01*
X204334563Y-98331352D01*
X204286944Y-98378971D01*
X204239325Y-98474209D01*
X241301825Y-102102780D02*
X241301825Y-101102780D01*
X241635159Y-101817066D01*
X241968492Y-101102780D01*
X241968492Y-102102780D01*
X242587540Y-102102780D02*
X242492301Y-102055161D01*
X242444682Y-102007542D01*
X242397063Y-101912304D01*
X242397063Y-101626590D01*
X242444682Y-101531352D01*
X242492301Y-101483733D01*
X242587540Y-101436114D01*
X242730397Y-101436114D01*
X242825635Y-101483733D01*
X242873254Y-101531352D01*
X242920873Y-101626590D01*
X242920873Y-101912304D01*
X242873254Y-102007542D01*
X242825635Y-102055161D01*
X242730397Y-102102780D01*
X242587540Y-102102780D01*
X243778016Y-101436114D02*
X243778016Y-102102780D01*
X243349444Y-101436114D02*
X243349444Y-101959923D01*
X243397063Y-102055161D01*
X243492301Y-102102780D01*
X243635159Y-102102780D01*
X243730397Y-102055161D01*
X243778016Y-102007542D01*
X244254206Y-101436114D02*
X244254206Y-102102780D01*
X244254206Y-101531352D02*
X244301825Y-101483733D01*
X244397063Y-101436114D01*
X244539920Y-101436114D01*
X244635159Y-101483733D01*
X244682778Y-101578971D01*
X244682778Y-102102780D01*
X245016111Y-101436114D02*
X245397063Y-101436114D01*
X245158968Y-101102780D02*
X245158968Y-101959923D01*
X245206587Y-102055161D01*
X245301825Y-102102780D01*
X245397063Y-102102780D01*
X245730397Y-102102780D02*
X245730397Y-101436114D01*
X245730397Y-101102780D02*
X245682778Y-101150400D01*
X245730397Y-101198019D01*
X245778016Y-101150400D01*
X245730397Y-101102780D01*
X245730397Y-101198019D01*
X246206587Y-101436114D02*
X246206587Y-102102780D01*
X246206587Y-101531352D02*
X246254206Y-101483733D01*
X246349444Y-101436114D01*
X246492301Y-101436114D01*
X246587540Y-101483733D01*
X246635159Y-101578971D01*
X246635159Y-102102780D01*
X247539920Y-101436114D02*
X247539920Y-102245638D01*
X247492301Y-102340876D01*
X247444682Y-102388495D01*
X247349444Y-102436114D01*
X247206587Y-102436114D01*
X247111349Y-102388495D01*
X247539920Y-102055161D02*
X247444682Y-102102780D01*
X247254206Y-102102780D01*
X247158968Y-102055161D01*
X247111349Y-102007542D01*
X247063730Y-101912304D01*
X247063730Y-101626590D01*
X247111349Y-101531352D01*
X247158968Y-101483733D01*
X247254206Y-101436114D01*
X247444682Y-101436114D01*
X247539920Y-101483733D01*
X248016111Y-102102780D02*
X248016111Y-101102780D01*
X248016111Y-101578971D02*
X248587540Y-101578971D01*
X248587540Y-102102780D02*
X248587540Y-101102780D01*
X249206587Y-102102780D02*
X249111349Y-102055161D01*
X249063730Y-102007542D01*
X249016111Y-101912304D01*
X249016111Y-101626590D01*
X249063730Y-101531352D01*
X249111349Y-101483733D01*
X249206587Y-101436114D01*
X249349444Y-101436114D01*
X249444682Y-101483733D01*
X249492301Y-101531352D01*
X249539920Y-101626590D01*
X249539920Y-101912304D01*
X249492301Y-102007542D01*
X249444682Y-102055161D01*
X249349444Y-102102780D01*
X249206587Y-102102780D01*
X250111349Y-102102780D02*
X250016111Y-102055161D01*
X249968492Y-101959923D01*
X249968492Y-101102780D01*
X250873254Y-102055161D02*
X250778016Y-102102780D01*
X250587540Y-102102780D01*
X250492301Y-102055161D01*
X250444682Y-101959923D01*
X250444682Y-101578971D01*
X250492301Y-101483733D01*
X250587540Y-101436114D01*
X250778016Y-101436114D01*
X250873254Y-101483733D01*
X250920873Y-101578971D01*
X250920873Y-101674209D01*
X250444682Y-101769447D01*
X245149444Y-98902780D02*
X245149444Y-97902780D01*
X245149444Y-98378971D02*
X245720873Y-98378971D01*
X245720873Y-98902780D02*
X245720873Y-97902780D01*
X246720873Y-98902780D02*
X246149444Y-98902780D01*
X246435159Y-98902780D02*
X246435159Y-97902780D01*
X246339920Y-98045638D01*
X246244682Y-98140876D01*
X246149444Y-98188495D01*
X247054206Y-97902780D02*
X247720873Y-97902780D01*
X247292301Y-98902780D01*
X112714325Y-64002780D02*
X112714325Y-63002780D01*
X113047659Y-63717066D01*
X113380992Y-63002780D01*
X113380992Y-64002780D01*
X114000040Y-64002780D02*
X113904801Y-63955161D01*
X113857182Y-63907542D01*
X113809563Y-63812304D01*
X113809563Y-63526590D01*
X113857182Y-63431352D01*
X113904801Y-63383733D01*
X114000040Y-63336114D01*
X114142897Y-63336114D01*
X114238135Y-63383733D01*
X114285754Y-63431352D01*
X114333373Y-63526590D01*
X114333373Y-63812304D01*
X114285754Y-63907542D01*
X114238135Y-63955161D01*
X114142897Y-64002780D01*
X114000040Y-64002780D01*
X115190516Y-63336114D02*
X115190516Y-64002780D01*
X114761944Y-63336114D02*
X114761944Y-63859923D01*
X114809563Y-63955161D01*
X114904801Y-64002780D01*
X115047659Y-64002780D01*
X115142897Y-63955161D01*
X115190516Y-63907542D01*
X115666706Y-63336114D02*
X115666706Y-64002780D01*
X115666706Y-63431352D02*
X115714325Y-63383733D01*
X115809563Y-63336114D01*
X115952420Y-63336114D01*
X116047659Y-63383733D01*
X116095278Y-63478971D01*
X116095278Y-64002780D01*
X116428611Y-63336114D02*
X116809563Y-63336114D01*
X116571468Y-63002780D02*
X116571468Y-63859923D01*
X116619087Y-63955161D01*
X116714325Y-64002780D01*
X116809563Y-64002780D01*
X117142897Y-64002780D02*
X117142897Y-63336114D01*
X117142897Y-63002780D02*
X117095278Y-63050400D01*
X117142897Y-63098019D01*
X117190516Y-63050400D01*
X117142897Y-63002780D01*
X117142897Y-63098019D01*
X117619087Y-63336114D02*
X117619087Y-64002780D01*
X117619087Y-63431352D02*
X117666706Y-63383733D01*
X117761944Y-63336114D01*
X117904801Y-63336114D01*
X118000040Y-63383733D01*
X118047659Y-63478971D01*
X118047659Y-64002780D01*
X118952420Y-63336114D02*
X118952420Y-64145638D01*
X118904801Y-64240876D01*
X118857182Y-64288495D01*
X118761944Y-64336114D01*
X118619087Y-64336114D01*
X118523849Y-64288495D01*
X118952420Y-63955161D02*
X118857182Y-64002780D01*
X118666706Y-64002780D01*
X118571468Y-63955161D01*
X118523849Y-63907542D01*
X118476230Y-63812304D01*
X118476230Y-63526590D01*
X118523849Y-63431352D01*
X118571468Y-63383733D01*
X118666706Y-63336114D01*
X118857182Y-63336114D01*
X118952420Y-63383733D01*
X119428611Y-64002780D02*
X119428611Y-63002780D01*
X119428611Y-63478971D02*
X120000040Y-63478971D01*
X120000040Y-64002780D02*
X120000040Y-63002780D01*
X120619087Y-64002780D02*
X120523849Y-63955161D01*
X120476230Y-63907542D01*
X120428611Y-63812304D01*
X120428611Y-63526590D01*
X120476230Y-63431352D01*
X120523849Y-63383733D01*
X120619087Y-63336114D01*
X120761944Y-63336114D01*
X120857182Y-63383733D01*
X120904801Y-63431352D01*
X120952420Y-63526590D01*
X120952420Y-63812304D01*
X120904801Y-63907542D01*
X120857182Y-63955161D01*
X120761944Y-64002780D01*
X120619087Y-64002780D01*
X121523849Y-64002780D02*
X121428611Y-63955161D01*
X121380992Y-63859923D01*
X121380992Y-63002780D01*
X122285754Y-63955161D02*
X122190516Y-64002780D01*
X122000040Y-64002780D01*
X121904801Y-63955161D01*
X121857182Y-63859923D01*
X121857182Y-63478971D01*
X121904801Y-63383733D01*
X122000040Y-63336114D01*
X122190516Y-63336114D01*
X122285754Y-63383733D01*
X122333373Y-63478971D01*
X122333373Y-63574209D01*
X121857182Y-63669447D01*
X116561944Y-60802780D02*
X116561944Y-59802780D01*
X116561944Y-60278971D02*
X117133373Y-60278971D01*
X117133373Y-60802780D02*
X117133373Y-59802780D01*
X118133373Y-60802780D02*
X117561944Y-60802780D01*
X117847659Y-60802780D02*
X117847659Y-59802780D01*
X117752420Y-59945638D01*
X117657182Y-60040876D01*
X117561944Y-60088495D01*
X118704801Y-60231352D02*
X118609563Y-60183733D01*
X118561944Y-60136114D01*
X118514325Y-60040876D01*
X118514325Y-59993257D01*
X118561944Y-59898019D01*
X118609563Y-59850400D01*
X118704801Y-59802780D01*
X118895278Y-59802780D01*
X118990516Y-59850400D01*
X119038135Y-59898019D01*
X119085754Y-59993257D01*
X119085754Y-60040876D01*
X119038135Y-60136114D01*
X118990516Y-60183733D01*
X118895278Y-60231352D01*
X118704801Y-60231352D01*
X118609563Y-60278971D01*
X118561944Y-60326590D01*
X118514325Y-60421828D01*
X118514325Y-60612304D01*
X118561944Y-60707542D01*
X118609563Y-60755161D01*
X118704801Y-60802780D01*
X118895278Y-60802780D01*
X118990516Y-60755161D01*
X119038135Y-60707542D01*
X119085754Y-60612304D01*
X119085754Y-60421828D01*
X119038135Y-60326590D01*
X118990516Y-60278971D01*
X118895278Y-60231352D01*
X207964325Y-64002780D02*
X207964325Y-63002780D01*
X208297659Y-63717066D01*
X208630992Y-63002780D01*
X208630992Y-64002780D01*
X209250040Y-64002780D02*
X209154801Y-63955161D01*
X209107182Y-63907542D01*
X209059563Y-63812304D01*
X209059563Y-63526590D01*
X209107182Y-63431352D01*
X209154801Y-63383733D01*
X209250040Y-63336114D01*
X209392897Y-63336114D01*
X209488135Y-63383733D01*
X209535754Y-63431352D01*
X209583373Y-63526590D01*
X209583373Y-63812304D01*
X209535754Y-63907542D01*
X209488135Y-63955161D01*
X209392897Y-64002780D01*
X209250040Y-64002780D01*
X210440516Y-63336114D02*
X210440516Y-64002780D01*
X210011944Y-63336114D02*
X210011944Y-63859923D01*
X210059563Y-63955161D01*
X210154801Y-64002780D01*
X210297659Y-64002780D01*
X210392897Y-63955161D01*
X210440516Y-63907542D01*
X210916706Y-63336114D02*
X210916706Y-64002780D01*
X210916706Y-63431352D02*
X210964325Y-63383733D01*
X211059563Y-63336114D01*
X211202420Y-63336114D01*
X211297659Y-63383733D01*
X211345278Y-63478971D01*
X211345278Y-64002780D01*
X211678611Y-63336114D02*
X212059563Y-63336114D01*
X211821468Y-63002780D02*
X211821468Y-63859923D01*
X211869087Y-63955161D01*
X211964325Y-64002780D01*
X212059563Y-64002780D01*
X212392897Y-64002780D02*
X212392897Y-63336114D01*
X212392897Y-63002780D02*
X212345278Y-63050400D01*
X212392897Y-63098019D01*
X212440516Y-63050400D01*
X212392897Y-63002780D01*
X212392897Y-63098019D01*
X212869087Y-63336114D02*
X212869087Y-64002780D01*
X212869087Y-63431352D02*
X212916706Y-63383733D01*
X213011944Y-63336114D01*
X213154801Y-63336114D01*
X213250040Y-63383733D01*
X213297659Y-63478971D01*
X213297659Y-64002780D01*
X214202420Y-63336114D02*
X214202420Y-64145638D01*
X214154801Y-64240876D01*
X214107182Y-64288495D01*
X214011944Y-64336114D01*
X213869087Y-64336114D01*
X213773849Y-64288495D01*
X214202420Y-63955161D02*
X214107182Y-64002780D01*
X213916706Y-64002780D01*
X213821468Y-63955161D01*
X213773849Y-63907542D01*
X213726230Y-63812304D01*
X213726230Y-63526590D01*
X213773849Y-63431352D01*
X213821468Y-63383733D01*
X213916706Y-63336114D01*
X214107182Y-63336114D01*
X214202420Y-63383733D01*
X214678611Y-64002780D02*
X214678611Y-63002780D01*
X214678611Y-63478971D02*
X215250040Y-63478971D01*
X215250040Y-64002780D02*
X215250040Y-63002780D01*
X215869087Y-64002780D02*
X215773849Y-63955161D01*
X215726230Y-63907542D01*
X215678611Y-63812304D01*
X215678611Y-63526590D01*
X215726230Y-63431352D01*
X215773849Y-63383733D01*
X215869087Y-63336114D01*
X216011944Y-63336114D01*
X216107182Y-63383733D01*
X216154801Y-63431352D01*
X216202420Y-63526590D01*
X216202420Y-63812304D01*
X216154801Y-63907542D01*
X216107182Y-63955161D01*
X216011944Y-64002780D01*
X215869087Y-64002780D01*
X216773849Y-64002780D02*
X216678611Y-63955161D01*
X216630992Y-63859923D01*
X216630992Y-63002780D01*
X217535754Y-63955161D02*
X217440516Y-64002780D01*
X217250040Y-64002780D01*
X217154801Y-63955161D01*
X217107182Y-63859923D01*
X217107182Y-63478971D01*
X217154801Y-63383733D01*
X217250040Y-63336114D01*
X217440516Y-63336114D01*
X217535754Y-63383733D01*
X217583373Y-63478971D01*
X217583373Y-63574209D01*
X217107182Y-63669447D01*
X211811944Y-60802780D02*
X211811944Y-59802780D01*
X211811944Y-60278971D02*
X212383373Y-60278971D01*
X212383373Y-60802780D02*
X212383373Y-59802780D01*
X213383373Y-60802780D02*
X212811944Y-60802780D01*
X213097659Y-60802780D02*
X213097659Y-59802780D01*
X213002420Y-59945638D01*
X212907182Y-60040876D01*
X212811944Y-60088495D01*
X213859563Y-60802780D02*
X214050040Y-60802780D01*
X214145278Y-60755161D01*
X214192897Y-60707542D01*
X214288135Y-60564685D01*
X214335754Y-60374209D01*
X214335754Y-59993257D01*
X214288135Y-59898019D01*
X214240516Y-59850400D01*
X214145278Y-59802780D01*
X213954801Y-59802780D01*
X213859563Y-59850400D01*
X213811944Y-59898019D01*
X213764325Y-59993257D01*
X213764325Y-60231352D01*
X213811944Y-60326590D01*
X213859563Y-60374209D01*
X213954801Y-60421828D01*
X214145278Y-60421828D01*
X214240516Y-60374209D01*
X214288135Y-60326590D01*
X214335754Y-60231352D01*
X113114285Y-28952380D02*
X113114285Y-27952380D01*
X113447619Y-28666666D01*
X113780952Y-27952380D01*
X113780952Y-28952380D01*
X114400000Y-28952380D02*
X114304761Y-28904761D01*
X114257142Y-28857142D01*
X114209523Y-28761904D01*
X114209523Y-28476190D01*
X114257142Y-28380952D01*
X114304761Y-28333333D01*
X114400000Y-28285714D01*
X114542857Y-28285714D01*
X114638095Y-28333333D01*
X114685714Y-28380952D01*
X114733333Y-28476190D01*
X114733333Y-28761904D01*
X114685714Y-28857142D01*
X114638095Y-28904761D01*
X114542857Y-28952380D01*
X114400000Y-28952380D01*
X115590476Y-28285714D02*
X115590476Y-28952380D01*
X115161904Y-28285714D02*
X115161904Y-28809523D01*
X115209523Y-28904761D01*
X115304761Y-28952380D01*
X115447619Y-28952380D01*
X115542857Y-28904761D01*
X115590476Y-28857142D01*
X116066666Y-28285714D02*
X116066666Y-28952380D01*
X116066666Y-28380952D02*
X116114285Y-28333333D01*
X116209523Y-28285714D01*
X116352380Y-28285714D01*
X116447619Y-28333333D01*
X116495238Y-28428571D01*
X116495238Y-28952380D01*
X116828571Y-28285714D02*
X117209523Y-28285714D01*
X116971428Y-27952380D02*
X116971428Y-28809523D01*
X117019047Y-28904761D01*
X117114285Y-28952380D01*
X117209523Y-28952380D01*
X117542857Y-28952380D02*
X117542857Y-28285714D01*
X117542857Y-27952380D02*
X117495238Y-28000000D01*
X117542857Y-28047619D01*
X117590476Y-28000000D01*
X117542857Y-27952380D01*
X117542857Y-28047619D01*
X118019047Y-28285714D02*
X118019047Y-28952380D01*
X118019047Y-28380952D02*
X118066666Y-28333333D01*
X118161904Y-28285714D01*
X118304761Y-28285714D01*
X118400000Y-28333333D01*
X118447619Y-28428571D01*
X118447619Y-28952380D01*
X119352380Y-28285714D02*
X119352380Y-29095238D01*
X119304761Y-29190476D01*
X119257142Y-29238095D01*
X119161904Y-29285714D01*
X119019047Y-29285714D01*
X118923809Y-29238095D01*
X119352380Y-28904761D02*
X119257142Y-28952380D01*
X119066666Y-28952380D01*
X118971428Y-28904761D01*
X118923809Y-28857142D01*
X118876190Y-28761904D01*
X118876190Y-28476190D01*
X118923809Y-28380952D01*
X118971428Y-28333333D01*
X119066666Y-28285714D01*
X119257142Y-28285714D01*
X119352380Y-28333333D01*
X119828571Y-28952380D02*
X119828571Y-27952380D01*
X119828571Y-28428571D02*
X120400000Y-28428571D01*
X120400000Y-28952380D02*
X120400000Y-27952380D01*
X121019047Y-28952380D02*
X120923809Y-28904761D01*
X120876190Y-28857142D01*
X120828571Y-28761904D01*
X120828571Y-28476190D01*
X120876190Y-28380952D01*
X120923809Y-28333333D01*
X121019047Y-28285714D01*
X121161904Y-28285714D01*
X121257142Y-28333333D01*
X121304761Y-28380952D01*
X121352380Y-28476190D01*
X121352380Y-28761904D01*
X121304761Y-28857142D01*
X121257142Y-28904761D01*
X121161904Y-28952380D01*
X121019047Y-28952380D01*
X121923809Y-28952380D02*
X121828571Y-28904761D01*
X121780952Y-28809523D01*
X121780952Y-27952380D01*
X122685714Y-28904761D02*
X122590476Y-28952380D01*
X122400000Y-28952380D01*
X122304761Y-28904761D01*
X122257142Y-28809523D01*
X122257142Y-28428571D01*
X122304761Y-28333333D01*
X122400000Y-28285714D01*
X122590476Y-28285714D01*
X122685714Y-28333333D01*
X122733333Y-28428571D01*
X122733333Y-28523809D01*
X122257142Y-28619047D01*
X116961904Y-25752380D02*
X116961904Y-24752380D01*
X116961904Y-25228571D02*
X117533333Y-25228571D01*
X117533333Y-25752380D02*
X117533333Y-24752380D01*
X117961904Y-24847619D02*
X118009523Y-24800000D01*
X118104761Y-24752380D01*
X118342857Y-24752380D01*
X118438095Y-24800000D01*
X118485714Y-24847619D01*
X118533333Y-24942857D01*
X118533333Y-25038095D01*
X118485714Y-25180952D01*
X117914285Y-25752380D01*
X118533333Y-25752380D01*
X119152380Y-24752380D02*
X119247619Y-24752380D01*
X119342857Y-24800000D01*
X119390476Y-24847619D01*
X119438095Y-24942857D01*
X119485714Y-25133333D01*
X119485714Y-25371428D01*
X119438095Y-25561904D01*
X119390476Y-25657142D01*
X119342857Y-25704761D01*
X119247619Y-25752380D01*
X119152380Y-25752380D01*
X119057142Y-25704761D01*
X119009523Y-25657142D01*
X118961904Y-25561904D01*
X118914285Y-25371428D01*
X118914285Y-25133333D01*
X118961904Y-24942857D01*
X119009523Y-24847619D01*
X119057142Y-24800000D01*
X119152380Y-24752380D01*
X208314285Y-28952380D02*
X208314285Y-27952380D01*
X208647619Y-28666666D01*
X208980952Y-27952380D01*
X208980952Y-28952380D01*
X209600000Y-28952380D02*
X209504761Y-28904761D01*
X209457142Y-28857142D01*
X209409523Y-28761904D01*
X209409523Y-28476190D01*
X209457142Y-28380952D01*
X209504761Y-28333333D01*
X209600000Y-28285714D01*
X209742857Y-28285714D01*
X209838095Y-28333333D01*
X209885714Y-28380952D01*
X209933333Y-28476190D01*
X209933333Y-28761904D01*
X209885714Y-28857142D01*
X209838095Y-28904761D01*
X209742857Y-28952380D01*
X209600000Y-28952380D01*
X210790476Y-28285714D02*
X210790476Y-28952380D01*
X210361904Y-28285714D02*
X210361904Y-28809523D01*
X210409523Y-28904761D01*
X210504761Y-28952380D01*
X210647619Y-28952380D01*
X210742857Y-28904761D01*
X210790476Y-28857142D01*
X211266666Y-28285714D02*
X211266666Y-28952380D01*
X211266666Y-28380952D02*
X211314285Y-28333333D01*
X211409523Y-28285714D01*
X211552380Y-28285714D01*
X211647619Y-28333333D01*
X211695238Y-28428571D01*
X211695238Y-28952380D01*
X212028571Y-28285714D02*
X212409523Y-28285714D01*
X212171428Y-27952380D02*
X212171428Y-28809523D01*
X212219047Y-28904761D01*
X212314285Y-28952380D01*
X212409523Y-28952380D01*
X212742857Y-28952380D02*
X212742857Y-28285714D01*
X212742857Y-27952380D02*
X212695238Y-28000000D01*
X212742857Y-28047619D01*
X212790476Y-28000000D01*
X212742857Y-27952380D01*
X212742857Y-28047619D01*
X213219047Y-28285714D02*
X213219047Y-28952380D01*
X213219047Y-28380952D02*
X213266666Y-28333333D01*
X213361904Y-28285714D01*
X213504761Y-28285714D01*
X213600000Y-28333333D01*
X213647619Y-28428571D01*
X213647619Y-28952380D01*
X214552380Y-28285714D02*
X214552380Y-29095238D01*
X214504761Y-29190476D01*
X214457142Y-29238095D01*
X214361904Y-29285714D01*
X214219047Y-29285714D01*
X214123809Y-29238095D01*
X214552380Y-28904761D02*
X214457142Y-28952380D01*
X214266666Y-28952380D01*
X214171428Y-28904761D01*
X214123809Y-28857142D01*
X214076190Y-28761904D01*
X214076190Y-28476190D01*
X214123809Y-28380952D01*
X214171428Y-28333333D01*
X214266666Y-28285714D01*
X214457142Y-28285714D01*
X214552380Y-28333333D01*
X215028571Y-28952380D02*
X215028571Y-27952380D01*
X215028571Y-28428571D02*
X215600000Y-28428571D01*
X215600000Y-28952380D02*
X215600000Y-27952380D01*
X216219047Y-28952380D02*
X216123809Y-28904761D01*
X216076190Y-28857142D01*
X216028571Y-28761904D01*
X216028571Y-28476190D01*
X216076190Y-28380952D01*
X216123809Y-28333333D01*
X216219047Y-28285714D01*
X216361904Y-28285714D01*
X216457142Y-28333333D01*
X216504761Y-28380952D01*
X216552380Y-28476190D01*
X216552380Y-28761904D01*
X216504761Y-28857142D01*
X216457142Y-28904761D01*
X216361904Y-28952380D01*
X216219047Y-28952380D01*
X217123809Y-28952380D02*
X217028571Y-28904761D01*
X216980952Y-28809523D01*
X216980952Y-27952380D01*
X217885714Y-28904761D02*
X217790476Y-28952380D01*
X217600000Y-28952380D01*
X217504761Y-28904761D01*
X217457142Y-28809523D01*
X217457142Y-28428571D01*
X217504761Y-28333333D01*
X217600000Y-28285714D01*
X217790476Y-28285714D01*
X217885714Y-28333333D01*
X217933333Y-28428571D01*
X217933333Y-28523809D01*
X217457142Y-28619047D01*
X212161904Y-25752380D02*
X212161904Y-24752380D01*
X212161904Y-25228571D02*
X212733333Y-25228571D01*
X212733333Y-25752380D02*
X212733333Y-24752380D01*
X213161904Y-24847619D02*
X213209523Y-24800000D01*
X213304761Y-24752380D01*
X213542857Y-24752380D01*
X213638095Y-24800000D01*
X213685714Y-24847619D01*
X213733333Y-24942857D01*
X213733333Y-25038095D01*
X213685714Y-25180952D01*
X213114285Y-25752380D01*
X213733333Y-25752380D01*
X214685714Y-25752380D02*
X214114285Y-25752380D01*
X214400000Y-25752380D02*
X214400000Y-24752380D01*
X214304761Y-24895238D01*
X214209523Y-24990476D01*
X214114285Y-25038095D01*
X101664285Y-118052380D02*
X101664285Y-117052380D01*
X101997619Y-117766666D01*
X102330952Y-117052380D01*
X102330952Y-118052380D01*
X102950000Y-118052380D02*
X102854761Y-118004761D01*
X102807142Y-117957142D01*
X102759523Y-117861904D01*
X102759523Y-117576190D01*
X102807142Y-117480952D01*
X102854761Y-117433333D01*
X102950000Y-117385714D01*
X103092857Y-117385714D01*
X103188095Y-117433333D01*
X103235714Y-117480952D01*
X103283333Y-117576190D01*
X103283333Y-117861904D01*
X103235714Y-117957142D01*
X103188095Y-118004761D01*
X103092857Y-118052380D01*
X102950000Y-118052380D01*
X104140476Y-117385714D02*
X104140476Y-118052380D01*
X103711904Y-117385714D02*
X103711904Y-117909523D01*
X103759523Y-118004761D01*
X103854761Y-118052380D01*
X103997619Y-118052380D01*
X104092857Y-118004761D01*
X104140476Y-117957142D01*
X104616666Y-117385714D02*
X104616666Y-118052380D01*
X104616666Y-117480952D02*
X104664285Y-117433333D01*
X104759523Y-117385714D01*
X104902380Y-117385714D01*
X104997619Y-117433333D01*
X105045238Y-117528571D01*
X105045238Y-118052380D01*
X105378571Y-117385714D02*
X105759523Y-117385714D01*
X105521428Y-117052380D02*
X105521428Y-117909523D01*
X105569047Y-118004761D01*
X105664285Y-118052380D01*
X105759523Y-118052380D01*
X106092857Y-118052380D02*
X106092857Y-117385714D01*
X106092857Y-117052380D02*
X106045238Y-117100000D01*
X106092857Y-117147619D01*
X106140476Y-117100000D01*
X106092857Y-117052380D01*
X106092857Y-117147619D01*
X106569047Y-117385714D02*
X106569047Y-118052380D01*
X106569047Y-117480952D02*
X106616666Y-117433333D01*
X106711904Y-117385714D01*
X106854761Y-117385714D01*
X106950000Y-117433333D01*
X106997619Y-117528571D01*
X106997619Y-118052380D01*
X107902380Y-117385714D02*
X107902380Y-118195238D01*
X107854761Y-118290476D01*
X107807142Y-118338095D01*
X107711904Y-118385714D01*
X107569047Y-118385714D01*
X107473809Y-118338095D01*
X107902380Y-118004761D02*
X107807142Y-118052380D01*
X107616666Y-118052380D01*
X107521428Y-118004761D01*
X107473809Y-117957142D01*
X107426190Y-117861904D01*
X107426190Y-117576190D01*
X107473809Y-117480952D01*
X107521428Y-117433333D01*
X107616666Y-117385714D01*
X107807142Y-117385714D01*
X107902380Y-117433333D01*
X108378571Y-118052380D02*
X108378571Y-117052380D01*
X108378571Y-117528571D02*
X108950000Y-117528571D01*
X108950000Y-118052380D02*
X108950000Y-117052380D01*
X109569047Y-118052380D02*
X109473809Y-118004761D01*
X109426190Y-117957142D01*
X109378571Y-117861904D01*
X109378571Y-117576190D01*
X109426190Y-117480952D01*
X109473809Y-117433333D01*
X109569047Y-117385714D01*
X109711904Y-117385714D01*
X109807142Y-117433333D01*
X109854761Y-117480952D01*
X109902380Y-117576190D01*
X109902380Y-117861904D01*
X109854761Y-117957142D01*
X109807142Y-118004761D01*
X109711904Y-118052380D01*
X109569047Y-118052380D01*
X110473809Y-118052380D02*
X110378571Y-118004761D01*
X110330952Y-117909523D01*
X110330952Y-117052380D01*
X111235714Y-118004761D02*
X111140476Y-118052380D01*
X110950000Y-118052380D01*
X110854761Y-118004761D01*
X110807142Y-117909523D01*
X110807142Y-117528571D01*
X110854761Y-117433333D01*
X110950000Y-117385714D01*
X111140476Y-117385714D01*
X111235714Y-117433333D01*
X111283333Y-117528571D01*
X111283333Y-117623809D01*
X110807142Y-117719047D01*
X105511904Y-114852380D02*
X105511904Y-113852380D01*
X105511904Y-114328571D02*
X106083333Y-114328571D01*
X106083333Y-114852380D02*
X106083333Y-113852380D01*
X106511904Y-113947619D02*
X106559523Y-113900000D01*
X106654761Y-113852380D01*
X106892857Y-113852380D01*
X106988095Y-113900000D01*
X107035714Y-113947619D01*
X107083333Y-114042857D01*
X107083333Y-114138095D01*
X107035714Y-114280952D01*
X106464285Y-114852380D01*
X107083333Y-114852380D01*
X107464285Y-113947619D02*
X107511904Y-113900000D01*
X107607142Y-113852380D01*
X107845238Y-113852380D01*
X107940476Y-113900000D01*
X107988095Y-113947619D01*
X108035714Y-114042857D01*
X108035714Y-114138095D01*
X107988095Y-114280952D01*
X107416666Y-114852380D01*
X108035714Y-114852380D01*
X193014285Y-118052380D02*
X193014285Y-117052380D01*
X193347619Y-117766666D01*
X193680952Y-117052380D01*
X193680952Y-118052380D01*
X194300000Y-118052380D02*
X194204761Y-118004761D01*
X194157142Y-117957142D01*
X194109523Y-117861904D01*
X194109523Y-117576190D01*
X194157142Y-117480952D01*
X194204761Y-117433333D01*
X194300000Y-117385714D01*
X194442857Y-117385714D01*
X194538095Y-117433333D01*
X194585714Y-117480952D01*
X194633333Y-117576190D01*
X194633333Y-117861904D01*
X194585714Y-117957142D01*
X194538095Y-118004761D01*
X194442857Y-118052380D01*
X194300000Y-118052380D01*
X195490476Y-117385714D02*
X195490476Y-118052380D01*
X195061904Y-117385714D02*
X195061904Y-117909523D01*
X195109523Y-118004761D01*
X195204761Y-118052380D01*
X195347619Y-118052380D01*
X195442857Y-118004761D01*
X195490476Y-117957142D01*
X195966666Y-117385714D02*
X195966666Y-118052380D01*
X195966666Y-117480952D02*
X196014285Y-117433333D01*
X196109523Y-117385714D01*
X196252380Y-117385714D01*
X196347619Y-117433333D01*
X196395238Y-117528571D01*
X196395238Y-118052380D01*
X196728571Y-117385714D02*
X197109523Y-117385714D01*
X196871428Y-117052380D02*
X196871428Y-117909523D01*
X196919047Y-118004761D01*
X197014285Y-118052380D01*
X197109523Y-118052380D01*
X197442857Y-118052380D02*
X197442857Y-117385714D01*
X197442857Y-117052380D02*
X197395238Y-117100000D01*
X197442857Y-117147619D01*
X197490476Y-117100000D01*
X197442857Y-117052380D01*
X197442857Y-117147619D01*
X197919047Y-117385714D02*
X197919047Y-118052380D01*
X197919047Y-117480952D02*
X197966666Y-117433333D01*
X198061904Y-117385714D01*
X198204761Y-117385714D01*
X198300000Y-117433333D01*
X198347619Y-117528571D01*
X198347619Y-118052380D01*
X199252380Y-117385714D02*
X199252380Y-118195238D01*
X199204761Y-118290476D01*
X199157142Y-118338095D01*
X199061904Y-118385714D01*
X198919047Y-118385714D01*
X198823809Y-118338095D01*
X199252380Y-118004761D02*
X199157142Y-118052380D01*
X198966666Y-118052380D01*
X198871428Y-118004761D01*
X198823809Y-117957142D01*
X198776190Y-117861904D01*
X198776190Y-117576190D01*
X198823809Y-117480952D01*
X198871428Y-117433333D01*
X198966666Y-117385714D01*
X199157142Y-117385714D01*
X199252380Y-117433333D01*
X199728571Y-118052380D02*
X199728571Y-117052380D01*
X199728571Y-117528571D02*
X200300000Y-117528571D01*
X200300000Y-118052380D02*
X200300000Y-117052380D01*
X200919047Y-118052380D02*
X200823809Y-118004761D01*
X200776190Y-117957142D01*
X200728571Y-117861904D01*
X200728571Y-117576190D01*
X200776190Y-117480952D01*
X200823809Y-117433333D01*
X200919047Y-117385714D01*
X201061904Y-117385714D01*
X201157142Y-117433333D01*
X201204761Y-117480952D01*
X201252380Y-117576190D01*
X201252380Y-117861904D01*
X201204761Y-117957142D01*
X201157142Y-118004761D01*
X201061904Y-118052380D01*
X200919047Y-118052380D01*
X201823809Y-118052380D02*
X201728571Y-118004761D01*
X201680952Y-117909523D01*
X201680952Y-117052380D01*
X202585714Y-118004761D02*
X202490476Y-118052380D01*
X202300000Y-118052380D01*
X202204761Y-118004761D01*
X202157142Y-117909523D01*
X202157142Y-117528571D01*
X202204761Y-117433333D01*
X202300000Y-117385714D01*
X202490476Y-117385714D01*
X202585714Y-117433333D01*
X202633333Y-117528571D01*
X202633333Y-117623809D01*
X202157142Y-117719047D01*
X196861904Y-114852380D02*
X196861904Y-113852380D01*
X196861904Y-114328571D02*
X197433333Y-114328571D01*
X197433333Y-114852380D02*
X197433333Y-113852380D01*
X197861904Y-113947619D02*
X197909523Y-113900000D01*
X198004761Y-113852380D01*
X198242857Y-113852380D01*
X198338095Y-113900000D01*
X198385714Y-113947619D01*
X198433333Y-114042857D01*
X198433333Y-114138095D01*
X198385714Y-114280952D01*
X197814285Y-114852380D01*
X198433333Y-114852380D01*
X198766666Y-113852380D02*
X199385714Y-113852380D01*
X199052380Y-114233333D01*
X199195238Y-114233333D01*
X199290476Y-114280952D01*
X199338095Y-114328571D01*
X199385714Y-114423809D01*
X199385714Y-114661904D01*
X199338095Y-114757142D01*
X199290476Y-114804761D01*
X199195238Y-114852380D01*
X198909523Y-114852380D01*
X198814285Y-114804761D01*
X198766666Y-114757142D01*
M02*
