<?xml version="1.0" encoding="UTF-8" standalone="no"?>
<!DOCTYPE svg PUBLIC "-//W3C//DTD SVG 1.1//EN" "http://www.w3.org/Graphics/SVG/1.1/DTD/svg11.dtd">
<svg width="100%" height="100%" viewBox="0 0 232 361" version="1.1" xmlns="http://www.w3.org/2000/svg" xmlns:xlink="http://www.w3.org/1999/xlink" xml:space="preserve" xmlns:serif="http://www.serif.com/" style="fill-rule:evenodd;clip-rule:evenodd;stroke-linecap:round;stroke-linejoin:round;stroke-miterlimit:1.5;">
    <g transform="matrix(0.32,0,0,0.32,-184.989,-1.13687e-15)">
        <g id="Sticker" transform="matrix(1.39,0,0,1.25617,-242.774,-29.6733)">
            <rect x="590.551" y="23.622" width="519.685" height="897.638" style="fill:none;"/>
            <g transform="matrix(0.924977,0,0,1.02352,564.242,-198.854)">
                <g transform="matrix(216.667,0,0,216.667,345.35,1022.56)">
                    <path d="M0.166,-0.223L0.022,-0.223L0.022,-0.194C0.022,-0.128 0.04,-0.077 0.075,-0.042C0.11,-0.007 0.168,0.011 0.249,0.011C0.327,0.011 0.388,-0.006 0.432,-0.041C0.475,-0.075 0.497,-0.13 0.497,-0.205C0.497,-0.227 0.495,-0.247 0.491,-0.265C0.487,-0.283 0.48,-0.3 0.47,-0.315C0.459,-0.33 0.445,-0.343 0.428,-0.357C0.411,-0.37 0.388,-0.382 0.361,-0.394L0.25,-0.442C0.219,-0.455 0.199,-0.468 0.19,-0.484C0.181,-0.499 0.176,-0.517 0.176,-0.539C0.176,-0.55 0.177,-0.56 0.18,-0.57C0.182,-0.58 0.186,-0.589 0.193,-0.597C0.199,-0.604 0.207,-0.61 0.218,-0.615C0.229,-0.62 0.242,-0.622 0.258,-0.622C0.286,-0.622 0.306,-0.613 0.318,-0.595C0.33,-0.576 0.336,-0.55 0.336,-0.516L0.474,-0.516L0.474,-0.536C0.474,-0.57 0.468,-0.599 0.458,-0.624C0.447,-0.648 0.431,-0.668 0.412,-0.684C0.392,-0.699 0.369,-0.711 0.342,-0.718C0.315,-0.724 0.285,-0.728 0.253,-0.728C0.184,-0.728 0.13,-0.711 0.091,-0.676C0.052,-0.641 0.032,-0.589 0.032,-0.518C0.032,-0.489 0.036,-0.463 0.043,-0.441C0.05,-0.418 0.062,-0.399 0.078,-0.382C0.093,-0.365 0.113,-0.35 0.136,-0.337C0.159,-0.324 0.187,-0.313 0.219,-0.302C0.243,-0.294 0.263,-0.286 0.28,-0.279C0.296,-0.271 0.309,-0.262 0.319,-0.253C0.329,-0.244 0.336,-0.233 0.341,-0.222C0.345,-0.21 0.347,-0.196 0.347,-0.18C0.347,-0.15 0.338,-0.128 0.321,-0.114C0.303,-0.099 0.283,-0.092 0.261,-0.092C0.242,-0.092 0.227,-0.095 0.215,-0.1C0.202,-0.105 0.192,-0.113 0.185,-0.122C0.178,-0.131 0.173,-0.143 0.17,-0.157C0.167,-0.17 0.166,-0.185 0.166,-0.202L0.166,-0.223Z" style="fill-rule:nonzero;"/>
                </g>
                <g transform="matrix(216.667,0,0,216.667,346.433,845.067)">
                    <path d="M0.449,-0.714L0.05,-0.714L0.05,-0L0.459,-0L0.459,-0.118L0.194,-0.118L0.194,-0.31L0.434,-0.31L0.434,-0.428L0.194,-0.428L0.194,-0.596L0.449,-0.596L0.449,-0.714Z" style="fill-rule:nonzero;"/>
                </g>
                <g transform="matrix(216.667,0,0,216.667,221.281,726.956)">
                    <path d="M0.216,-0.714L0.05,-0.714L0.05,-0L0.182,-0L0.182,-0.5L0.184,-0.5L0.36,-0L0.524,-0L0.524,-0.714L0.392,-0.714L0.392,-0.225L0.39,-0.225L0.216,-0.714Z" style="fill-rule:nonzero;"/>
                </g>
                <g transform="matrix(216.667,0,0,216.667,223.231,550.116)">
                    <path d="M0.179,-0.357C0.179,-0.405 0.18,-0.446 0.183,-0.479C0.185,-0.512 0.19,-0.54 0.197,-0.561C0.204,-0.582 0.214,-0.598 0.227,-0.608C0.24,-0.617 0.257,-0.622 0.278,-0.622C0.299,-0.622 0.317,-0.617 0.33,-0.608C0.343,-0.598 0.353,-0.582 0.36,-0.561C0.367,-0.54 0.371,-0.512 0.374,-0.479C0.376,-0.446 0.377,-0.405 0.377,-0.357C0.377,-0.309 0.376,-0.268 0.374,-0.235C0.371,-0.201 0.367,-0.173 0.36,-0.153C0.353,-0.131 0.343,-0.116 0.33,-0.107C0.317,-0.097 0.299,-0.092 0.278,-0.092C0.257,-0.092 0.24,-0.097 0.227,-0.107C0.214,-0.116 0.204,-0.131 0.197,-0.153C0.19,-0.173 0.185,-0.201 0.183,-0.235C0.18,-0.268 0.179,-0.309 0.179,-0.357ZM0.035,-0.357C0.035,-0.302 0.038,-0.252 0.043,-0.207C0.048,-0.162 0.058,-0.123 0.076,-0.09C0.093,-0.057 0.117,-0.032 0.149,-0.015C0.181,0.002 0.224,0.011 0.278,0.011C0.332,0.011 0.375,0.002 0.407,-0.015C0.439,-0.032 0.464,-0.057 0.481,-0.09C0.498,-0.123 0.509,-0.162 0.514,-0.207C0.519,-0.252 0.521,-0.302 0.521,-0.357C0.521,-0.411 0.519,-0.461 0.514,-0.507C0.509,-0.552 0.498,-0.591 0.481,-0.624C0.464,-0.657 0.439,-0.682 0.407,-0.701C0.375,-0.719 0.332,-0.728 0.278,-0.728C0.224,-0.728 0.181,-0.719 0.149,-0.701C0.117,-0.682 0.093,-0.657 0.076,-0.624C0.058,-0.591 0.048,-0.552 0.043,-0.507C0.038,-0.461 0.035,-0.411 0.035,-0.357Z" style="fill-rule:nonzero;"/>
                </g>
                <g transform="matrix(216.667,0,0,216.667,108.338,430.489)">
                    <path d="M0.419,-0.714L0.275,-0.714L0.275,-0.204C0.275,-0.166 0.271,-0.138 0.263,-0.12C0.254,-0.101 0.237,-0.092 0.211,-0.092C0.185,-0.092 0.168,-0.101 0.16,-0.12C0.151,-0.138 0.147,-0.166 0.147,-0.204L0.147,-0.226L0.015,-0.226L0.015,-0.195C0.015,-0.167 0.018,-0.14 0.023,-0.115C0.028,-0.09 0.038,-0.068 0.053,-0.049C0.067,-0.029 0.086,-0.015 0.111,-0.005C0.135,0.006 0.166,0.011 0.204,0.011C0.277,0.011 0.331,-0.005 0.366,-0.038C0.401,-0.07 0.419,-0.124 0.419,-0.2L0.419,-0.714Z" style="fill-rule:nonzero;"/>
                </g>
                <g transform="matrix(1,0,0,1,-566.929,-755.906)">
                    <path d="M732.283,1228.35L732.283,1499.4C732.283,1512.77 743.135,1523.62 756.502,1523.62L850.394,1523.62L850.394,1794.68C850.394,1808.05 861.246,1818.9 874.612,1818.9L1062.4,1818.9C1075.76,1818.9 1086.61,1808.05 1086.61,1794.68L1086.61,1429.73C1086.61,1416.36 1075.76,1405.51 1062.4,1405.51L968.504,1405.51L968.504,1134.45C968.504,1121.09 957.652,1110.24 944.285,1110.24L850.394,1110.24L850.394,1016.35C850.394,1002.98 839.542,992.126 826.175,992.126L638.392,992.126C625.025,992.126 614.173,1002.98 614.173,1016.35L614.173,1204.13C614.173,1217.49 625.025,1228.35 638.392,1228.35L732.283,1228.35Z" style="fill:none;stroke:black;stroke-width:19.44px;"/>
                </g>
            </g>
        </g>
    </g>
</svg>
