%TF.GenerationSoftware,KiCad,Pcbnew,(5.1.6-0-10_14)*%
%TF.CreationDate,2020-08-10T13:13:59+09:00*%
%TF.ProjectId,keyplate,6b657970-6c61-4746-952e-6b696361645f,rev?*%
%TF.SameCoordinates,Original*%
%TF.FileFunction,Legend,Bot*%
%TF.FilePolarity,Positive*%
%FSLAX46Y46*%
G04 Gerber Fmt 4.6, Leading zero omitted, Abs format (unit mm)*
G04 Created by KiCad (PCBNEW (5.1.6-0-10_14)) date 2020-08-10 13:13:59*
%MOMM*%
%LPD*%
G01*
G04 APERTURE LIST*
%ADD10C,0.300000*%
G04 APERTURE END LIST*
D10*
X23071428Y-15228571D02*
X22000000Y-15228571D01*
X21785714Y-15300000D01*
X21642857Y-15442857D01*
X21571428Y-15657142D01*
X21571428Y-15800000D01*
X21571428Y-13800000D02*
X21571428Y-14514285D01*
X23071428Y-14514285D01*
X21714285Y-12442857D02*
X21642857Y-12514285D01*
X21571428Y-12728571D01*
X21571428Y-12871428D01*
X21642857Y-13085714D01*
X21785714Y-13228571D01*
X21928571Y-13300000D01*
X22214285Y-13371428D01*
X22428571Y-13371428D01*
X22714285Y-13300000D01*
X22857142Y-13228571D01*
X23000000Y-13085714D01*
X23071428Y-12871428D01*
X23071428Y-12728571D01*
X23000000Y-12514285D01*
X22928571Y-12442857D01*
X23071428Y-11371428D02*
X22000000Y-11371428D01*
X21785714Y-11442857D01*
X21642857Y-11585714D01*
X21571428Y-11800000D01*
X21571428Y-11942857D01*
X21571428Y-9942857D02*
X21571428Y-10657142D01*
X23071428Y-10657142D01*
X21714285Y-8585714D02*
X21642857Y-8657142D01*
X21571428Y-8871428D01*
X21571428Y-9014285D01*
X21642857Y-9228571D01*
X21785714Y-9371428D01*
X21928571Y-9442857D01*
X22214285Y-9514285D01*
X22428571Y-9514285D01*
X22714285Y-9442857D01*
X22857142Y-9371428D01*
X23000000Y-9228571D01*
X23071428Y-9014285D01*
X23071428Y-8871428D01*
X23000000Y-8657142D01*
X22928571Y-8585714D01*
X23071428Y-7514285D02*
X22000000Y-7514285D01*
X21785714Y-7585714D01*
X21642857Y-7728571D01*
X21571428Y-7942857D01*
X21571428Y-8085714D01*
X21571428Y-6085714D02*
X21571428Y-6800000D01*
X23071428Y-6800000D01*
X21714285Y-4728571D02*
X21642857Y-4800000D01*
X21571428Y-5014285D01*
X21571428Y-5157142D01*
X21642857Y-5371428D01*
X21785714Y-5514285D01*
X21928571Y-5585714D01*
X22214285Y-5657142D01*
X22428571Y-5657142D01*
X22714285Y-5585714D01*
X22857142Y-5514285D01*
X23000000Y-5371428D01*
X23071428Y-5157142D01*
X23071428Y-5014285D01*
X23000000Y-4800000D01*
X22928571Y-4728571D01*
X23071428Y-3657142D02*
X22000000Y-3657142D01*
X21785714Y-3728571D01*
X21642857Y-3871428D01*
X21571428Y-4085714D01*
X21571428Y-4228571D01*
X21571428Y-2228571D02*
X21571428Y-2942857D01*
X23071428Y-2942857D01*
X21714285Y-871428D02*
X21642857Y-942857D01*
X21571428Y-1157142D01*
X21571428Y-1299999D01*
X21642857Y-1514285D01*
X21785714Y-1657142D01*
X21928571Y-1728571D01*
X22214285Y-1799999D01*
X22428571Y-1799999D01*
X22714285Y-1728571D01*
X22857142Y-1657142D01*
X23000000Y-1514285D01*
X23071428Y-1299999D01*
X23071428Y-1157142D01*
X23000000Y-942857D01*
X22928571Y-871428D01*
X39021428Y-50471428D02*
X37950000Y-50471428D01*
X37735714Y-50542857D01*
X37592857Y-50685714D01*
X37521428Y-50900000D01*
X37521428Y-51042857D01*
X37521428Y-49542857D02*
X37592857Y-49685714D01*
X37664285Y-49757142D01*
X37807142Y-49828571D01*
X38235714Y-49828571D01*
X38378571Y-49757142D01*
X38450000Y-49685714D01*
X38521428Y-49542857D01*
X38521428Y-49328571D01*
X38450000Y-49185714D01*
X38378571Y-49114285D01*
X38235714Y-49042857D01*
X37807142Y-49042857D01*
X37664285Y-49114285D01*
X37592857Y-49185714D01*
X37521428Y-49328571D01*
X37521428Y-49542857D01*
X38521428Y-48400000D02*
X37521428Y-48400000D01*
X38378571Y-48400000D02*
X38450000Y-48328571D01*
X38521428Y-48185714D01*
X38521428Y-47971428D01*
X38450000Y-47828571D01*
X38307142Y-47757142D01*
X37521428Y-47757142D01*
X37592857Y-46471428D02*
X37521428Y-46614285D01*
X37521428Y-46900000D01*
X37592857Y-47042857D01*
X37735714Y-47114285D01*
X38307142Y-47114285D01*
X38450000Y-47042857D01*
X38521428Y-46900000D01*
X38521428Y-46614285D01*
X38450000Y-46471428D01*
X38307142Y-46400000D01*
X38164285Y-46400000D01*
X38021428Y-47114285D01*
X37592857Y-45828571D02*
X37521428Y-45685714D01*
X37521428Y-45400000D01*
X37592857Y-45257142D01*
X37735714Y-45185714D01*
X37807142Y-45185714D01*
X37950000Y-45257142D01*
X38021428Y-45400000D01*
X38021428Y-45614285D01*
X38092857Y-45757142D01*
X38235714Y-45828571D01*
X38307142Y-45828571D01*
X38450000Y-45757142D01*
X38521428Y-45614285D01*
X38521428Y-45400000D01*
X38450000Y-45257142D01*
X37521428Y-43400000D02*
X39021428Y-43400000D01*
X37521428Y-42542857D02*
X38378571Y-43185714D01*
X39021428Y-42542857D02*
X38164285Y-43400000D01*
X37592857Y-41328571D02*
X37521428Y-41471428D01*
X37521428Y-41757142D01*
X37592857Y-41900000D01*
X37735714Y-41971428D01*
X38307142Y-41971428D01*
X38450000Y-41900000D01*
X38521428Y-41757142D01*
X38521428Y-41471428D01*
X38450000Y-41328571D01*
X38307142Y-41257142D01*
X38164285Y-41257142D01*
X38021428Y-41971428D01*
X38521428Y-40757142D02*
X37521428Y-40400000D01*
X38521428Y-40042857D02*
X37521428Y-40400000D01*
X37164285Y-40542857D01*
X37092857Y-40614285D01*
X37021428Y-40757142D01*
X38521428Y-39471428D02*
X37021428Y-39471428D01*
X38450000Y-39471428D02*
X38521428Y-39328571D01*
X38521428Y-39042857D01*
X38450000Y-38900000D01*
X38378571Y-38828571D01*
X38235714Y-38757142D01*
X37807142Y-38757142D01*
X37664285Y-38828571D01*
X37592857Y-38900000D01*
X37521428Y-39042857D01*
X37521428Y-39328571D01*
X37592857Y-39471428D01*
X37521428Y-37900000D02*
X37592857Y-38042857D01*
X37735714Y-38114285D01*
X39021428Y-38114285D01*
X37521428Y-36685714D02*
X38307142Y-36685714D01*
X38450000Y-36757142D01*
X38521428Y-36900000D01*
X38521428Y-37185714D01*
X38450000Y-37328571D01*
X37592857Y-36685714D02*
X37521428Y-36828571D01*
X37521428Y-37185714D01*
X37592857Y-37328571D01*
X37735714Y-37400000D01*
X37878571Y-37400000D01*
X38021428Y-37328571D01*
X38092857Y-37185714D01*
X38092857Y-36828571D01*
X38164285Y-36685714D01*
X38521428Y-36185714D02*
X38521428Y-35614285D01*
X39021428Y-35971428D02*
X37735714Y-35971428D01*
X37592857Y-35900000D01*
X37521428Y-35757142D01*
X37521428Y-35614285D01*
X37592857Y-34542857D02*
X37521428Y-34685714D01*
X37521428Y-34971428D01*
X37592857Y-35114285D01*
X37735714Y-35185714D01*
X38307142Y-35185714D01*
X38450000Y-35114285D01*
X38521428Y-34971428D01*
X38521428Y-34685714D01*
X38450000Y-34542857D01*
X38307142Y-34471428D01*
X38164285Y-34471428D01*
X38021428Y-35185714D01*
X38521428Y-32828571D02*
X37521428Y-32471428D01*
X38521428Y-32114285D01*
X37664285Y-31542857D02*
X37592857Y-31471428D01*
X37521428Y-31542857D01*
X37592857Y-31614285D01*
X37664285Y-31542857D01*
X37521428Y-31542857D01*
X39021428Y-30542857D02*
X39021428Y-30400000D01*
X38950000Y-30257142D01*
X38878571Y-30185714D01*
X38735714Y-30114285D01*
X38450000Y-30042857D01*
X38092857Y-30042857D01*
X37807142Y-30114285D01*
X37664285Y-30185714D01*
X37592857Y-30257142D01*
X37521428Y-30400000D01*
X37521428Y-30542857D01*
X37592857Y-30685714D01*
X37664285Y-30757142D01*
X37807142Y-30828571D01*
X38092857Y-30900000D01*
X38450000Y-30900000D01*
X38735714Y-30828571D01*
X38878571Y-30757142D01*
X38950000Y-30685714D01*
X39021428Y-30542857D01*
X37664285Y-29400000D02*
X37592857Y-29328571D01*
X37521428Y-29400000D01*
X37592857Y-29471428D01*
X37664285Y-29400000D01*
X37521428Y-29400000D01*
X39021428Y-28828571D02*
X39021428Y-27899999D01*
X38450000Y-28399999D01*
X38450000Y-28185714D01*
X38378571Y-28042857D01*
X38307142Y-27971428D01*
X38164285Y-27899999D01*
X37807142Y-27899999D01*
X37664285Y-27971428D01*
X37592857Y-28042857D01*
X37521428Y-28185714D01*
X37521428Y-28614285D01*
X37592857Y-28757142D01*
X37664285Y-28828571D01*
X38235714Y-25185714D02*
X38307142Y-25257142D01*
X38378571Y-25399999D01*
X38378571Y-25542857D01*
X38307142Y-25685714D01*
X38235714Y-25757142D01*
X38092857Y-25828571D01*
X37950000Y-25828571D01*
X37807142Y-25757142D01*
X37735714Y-25685714D01*
X37664285Y-25542857D01*
X37664285Y-25399999D01*
X37735714Y-25257142D01*
X37807142Y-25185714D01*
X38378571Y-25185714D02*
X37807142Y-25185714D01*
X37735714Y-25114285D01*
X37735714Y-25042857D01*
X37807142Y-24899999D01*
X37950000Y-24828571D01*
X38307142Y-24828571D01*
X38521428Y-24971428D01*
X38664285Y-25185714D01*
X38735714Y-25471428D01*
X38664285Y-25757142D01*
X38521428Y-25971428D01*
X38307142Y-26114285D01*
X38021428Y-26185714D01*
X37735714Y-26114285D01*
X37521428Y-25971428D01*
X37378571Y-25757142D01*
X37307142Y-25471428D01*
X37378571Y-25185714D01*
X37521428Y-24971428D01*
X38521428Y-24185714D02*
X37235714Y-24185714D01*
X37092857Y-24257142D01*
X37021428Y-24399999D01*
X37021428Y-24471428D01*
X39021428Y-24185714D02*
X38950000Y-24257142D01*
X38878571Y-24185714D01*
X38950000Y-24114285D01*
X39021428Y-24185714D01*
X38878571Y-24185714D01*
X38521428Y-23471428D02*
X37021428Y-23471428D01*
X38450000Y-23471428D02*
X38521428Y-23328571D01*
X38521428Y-23042857D01*
X38450000Y-22899999D01*
X38378571Y-22828571D01*
X38235714Y-22757142D01*
X37807142Y-22757142D01*
X37664285Y-22828571D01*
X37592857Y-22899999D01*
X37521428Y-23042857D01*
X37521428Y-23328571D01*
X37592857Y-23471428D01*
X37592857Y-22185714D02*
X37521428Y-22042857D01*
X37521428Y-21757142D01*
X37592857Y-21614285D01*
X37735714Y-21542857D01*
X37807142Y-21542857D01*
X37950000Y-21614285D01*
X38021428Y-21757142D01*
X38021428Y-21971428D01*
X38092857Y-22114285D01*
X38235714Y-22185714D01*
X38307142Y-22185714D01*
X38450000Y-22114285D01*
X38521428Y-21971428D01*
X38521428Y-21757142D01*
X38450000Y-21614285D01*
X37521428Y-20899999D02*
X39021428Y-20899999D01*
X38092857Y-20757142D02*
X37521428Y-20328571D01*
X38521428Y-20328571D02*
X37950000Y-20899999D01*
X37592857Y-19114285D02*
X37521428Y-19257142D01*
X37521428Y-19542857D01*
X37592857Y-19685714D01*
X37735714Y-19757142D01*
X38307142Y-19757142D01*
X38450000Y-19685714D01*
X38521428Y-19542857D01*
X38521428Y-19257142D01*
X38450000Y-19114285D01*
X38307142Y-19042857D01*
X38164285Y-19042857D01*
X38021428Y-19757142D01*
X38521428Y-18399999D02*
X37521428Y-18399999D01*
X38378571Y-18399999D02*
X38450000Y-18328571D01*
X38521428Y-18185714D01*
X38521428Y-17971428D01*
X38450000Y-17828571D01*
X38307142Y-17757142D01*
X37521428Y-17757142D01*
X38521428Y-17042857D02*
X37521428Y-17042857D01*
X38378571Y-17042857D02*
X38450000Y-16971428D01*
X38521428Y-16828571D01*
X38521428Y-16614285D01*
X38450000Y-16471428D01*
X38307142Y-16399999D01*
X37521428Y-16399999D01*
M02*
