%TF.GenerationSoftware,KiCad,Pcbnew,(5.1.6-0-10_14)*%
%TF.CreationDate,2020-08-10T13:13:59+09:00*%
%TF.ProjectId,keyplate,6b657970-6c61-4746-952e-6b696361645f,rev?*%
%TF.SameCoordinates,Original*%
%TF.FileFunction,Soldermask,Bot*%
%TF.FilePolarity,Negative*%
%FSLAX46Y46*%
G04 Gerber Fmt 4.6, Leading zero omitted, Abs format (unit mm)*
G04 Created by KiCad (PCBNEW (5.1.6-0-10_14)) date 2020-08-10 13:13:59*
%MOMM*%
%LPD*%
G01*
G04 APERTURE LIST*
%ADD10C,0.887400*%
%ADD11C,5.400000*%
G04 APERTURE END LIST*
D10*
%TO.C,REF\u002A\u002A*%
X327846000Y-23100000D03*
X327846000Y-21830000D03*
X327846000Y-20560000D03*
X327846000Y-24370000D03*
X327846000Y-25640000D03*
%TD*%
%TO.C,REF\u002A\u002A*%
X320354000Y-23100000D03*
X320354000Y-24370000D03*
X320354000Y-25640000D03*
X320354000Y-21830000D03*
X320354000Y-20560000D03*
%TD*%
%TO.C,REF\u002A\u002A*%
X327846000Y-74300000D03*
X327846000Y-73030000D03*
X327846000Y-71760000D03*
X327846000Y-75570000D03*
X327846000Y-76840000D03*
%TD*%
%TO.C,REF\u002A\u002A*%
X320354000Y-74300000D03*
X320354000Y-75570000D03*
X320354000Y-76840000D03*
X320354000Y-73030000D03*
X320354000Y-71760000D03*
%TD*%
%TO.C,REF\u002A\u002A*%
X34446000Y-74300000D03*
X34446000Y-73030000D03*
X34446000Y-71760000D03*
X34446000Y-75570000D03*
X34446000Y-76840000D03*
%TD*%
%TO.C,REF\u002A\u002A*%
X26954000Y-74300000D03*
X26954000Y-75570000D03*
X26954000Y-76840000D03*
X26954000Y-73030000D03*
X26954000Y-71760000D03*
%TD*%
%TO.C,REF\u002A\u002A*%
X26954000Y-19060000D03*
X26954000Y-20330000D03*
X26954000Y-24140000D03*
X26954000Y-22870000D03*
X26954000Y-21600000D03*
%TD*%
%TO.C,REF\u002A\u002A*%
X34446000Y-24140000D03*
X34446000Y-22870000D03*
X34446000Y-19060000D03*
X34446000Y-20330000D03*
X34446000Y-21600000D03*
%TD*%
D11*
%TO.C,REF\u002A\u002A*%
X60100000Y-26350000D03*
%TD*%
M02*
