M48
; DRILL file {KiCad (5.1.6-0-10_14)} date Monday, August 10, 2020 at 01:14:02 PM
; FORMAT={-:-/ absolute / metric / decimal}
; #@! TF.CreationDate,2020-08-10T13:14:02+09:00
; #@! TF.GenerationSoftware,Kicad,Pcbnew,(5.1.6-0-10_14)
FMAT,2
METRIC
T1C0.787
T2C5.300
%
G90
G05
T1
X26.954Y-71.76
X26.954Y-73.03
X26.954Y-74.3
X26.954Y-75.57
X26.954Y-76.84
X34.446Y-71.76
X34.446Y-73.03
X34.446Y-74.3
X34.446Y-75.57
X34.446Y-76.84
X34.446Y-19.06
X34.446Y-20.33
X34.446Y-21.6
X34.446Y-22.87
X34.446Y-24.14
X320.354Y-71.76
X320.354Y-73.03
X320.354Y-74.3
X320.354Y-75.57
X320.354Y-76.84
X320.354Y-20.56
X320.354Y-21.83
X320.354Y-23.1
X320.354Y-24.37
X320.354Y-25.64
X327.846Y-20.56
X327.846Y-21.83
X327.846Y-23.1
X327.846Y-24.37
X327.846Y-25.64
X26.954Y-19.06
X26.954Y-20.33
X26.954Y-21.6
X26.954Y-22.87
X26.954Y-24.14
X327.846Y-71.76
X327.846Y-73.03
X327.846Y-74.3
X327.846Y-75.57
X327.846Y-76.84
T2
X60.1Y-26.35
T0
M30
